# https://github.com/mikedh/trimesh
v 0.03049900 0.02623200 -0.04217600
v 0.03164200 0.02623200 0.00017000
v 0.03049900 0.02623200 0.00017000
v 0.03164200 0.02623200 -0.04217600
v 0.03164200 0.06586500 0.00017000
v 0.03049900 0.06586500 0.00017000
v 0.03049900 0.06586500 -0.04217600
v 0.03164200 0.06586500 -0.04217600
v 0.03049900 0.02623200 0.00934300
v 0.03164200 0.02623200 0.01149700
v 0.03049900 0.02623200 0.01149700
v 0.03164200 0.02623200 0.00934300
v 0.03164200 0.02623200 0.01658100
v 0.03049900 0.02623200 0.01658100
v 0.03164200 0.06586500 0.01658100
v 0.03049900 0.06586500 0.01658100
v 0.03164200 0.06586500 0.00307700
v 0.03049900 0.06586500 0.00307700
v 0.03049900 0.02623200 0.00307700
v 0.03164200 0.02623200 0.00307700
v 0.03164200 0.06207900 -0.00410800
v 0.03164200 0.03001900 -0.00410800
v 0.03164200 0.02966700 -0.02089600
v 0.03164200 0.03001900 -0.03789800
v 0.03164200 0.02962200 -0.02051800
v 0.03164200 0.02949400 -0.02016700
v 0.03164200 0.02928900 -0.01986500
v 0.03164200 0.02902200 -0.01963300
v 0.03164200 0.02870900 -0.01948700
v 0.03164200 0.02837500 -0.01943700
v 0.03164200 0.02804200 -0.01948700
v 0.03164200 0.02773100 -0.01963300
v 0.03164200 0.02746400 -0.01986500
v 0.03164200 0.02725800 -0.02016700
v 0.03164200 0.02713000 -0.02051800
v 0.03164200 0.02708600 -0.02089600
v 0.03164200 0.06207900 -0.03789800
v 0.03164200 0.02962200 -0.02127300
v 0.03164200 0.02949400 -0.02162500
v 0.03164200 0.02928900 -0.02192700
v 0.03164200 0.02902200 -0.02215900
v 0.03164200 0.02870900 -0.02230500
v 0.03164200 0.02837500 -0.02235400
v 0.03164200 0.02804200 -0.02230500
v 0.03164200 0.02773100 -0.02215900
v 0.03164200 0.02746400 -0.02192700
v 0.03164200 0.02725800 -0.02162500
v 0.03164200 0.02713000 -0.02127300
v 0.03049900 0.06715100 -0.04363000
v 0.03049900 0.02494700 -0.04363000
v 0.03049900 0.02494700 0.00162300
v 0.03049900 0.06715100 0.00162300
v 0.03049900 0.06715100 0.01803400
v 0.03164200 0.04729800 0.01043000
v 0.03164200 0.04725300 0.01080800
v 0.03164200 0.04712500 0.01115900
v 0.03164200 0.04692000 0.01146100
v 0.03164200 0.04665300 0.01169300
v 0.03164200 0.04634200 0.01183900
v 0.03164200 0.04600800 0.01188900
v 0.03164200 0.04567400 0.01183900
v 0.03164200 0.04476100 0.01080800
v 0.03164200 0.04471700 0.01043000
v 0.03164200 0.04488900 0.01115900
v 0.03164200 0.04509500 0.01146100
v 0.03164200 0.04536200 0.01169300
v 0.03164200 0.04725300 0.01005300
v 0.03164200 0.04712500 0.00970100
v 0.03164200 0.04692000 0.00939900
v 0.03164200 0.04665300 0.00916700
v 0.03164200 0.04634200 0.00902100
v 0.03164200 0.04600800 0.00897200
v 0.03164200 0.04567400 0.00902100
v 0.03164200 0.04476100 0.01005300
v 0.03164200 0.04488900 0.00970100
v 0.03164200 0.04509500 0.00939900
v 0.03164200 0.04536200 0.00916700
v -0.03734200 0.02494700 -0.04363000
v -0.03734200 0.06715100 -0.04363000
v -0.03734200 0.02494700 0.00934300
v 0.03049900 0.02494700 0.01149700
v -0.03734200 0.02494700 0.01149700
v 0.03049900 0.02494700 0.00934300
v -0.03734200 0.06715100 0.01803400
v 0.03049900 0.02494700 0.01803400
v -0.03734200 0.02494700 0.01803400
v 0.03049900 0.06867600 0.01803400
v -0.03734200 0.06867600 0.01803400
v 0.03049900 0.01846800 0.01803400
v 0.03202300 0.06867600 0.01803400
v 0.03202300 0.01846800 0.01803400
v -0.03734200 0.01846800 0.01803400
v -0.03848500 0.01846800 0.01803400
v -0.03848500 0.06867600 0.01803400
v -0.03848500 0.06867600 0.02097200
v 0.03202300 0.06867600 0.02097200
v 0.03202300 -0.07043600 0.02097200
v -0.03848500 -0.07043600 0.02097200
v 0.03202300 -0.06538100 0.01803400
v 0.03202300 -0.06891100 0.01803400
v 0.03202300 -0.07043600 0.01803400
v -0.03848500 -0.06538100 0.01803400
v -0.03734200 -0.06538100 0.01803400
v 0.03049900 -0.06538100 0.01803400
v -0.03848500 -0.07043600 0.01803400
v -0.03734200 -0.07043600 0.01803400
v 0.03049900 -0.06891100 0.01803400
v -0.03734200 -0.06891100 0.01803400
v 0.03049900 -0.06538100 0.01149700
v -0.03734200 -0.06538100 0.01149700
v 0.03049900 -0.06538100 0.00934300
v -0.03734200 -0.06538100 0.00934300
v -0.03734200 -0.06891100 -0.04363000
v 0.03049900 -0.06891100 -0.04363000
v 0.03049900 -0.06534200 -0.04363000
v 0.03049900 -0.06534200 0.01149700
v -0.03734200 -0.06534200 0.01149700
v -0.03734200 -0.06534200 -0.04363000
v 0.03278600 0.04509500 0.01146100
v 0.03278600 0.04536200 0.01169300
v 0.03278600 0.04567400 0.01183900
v 0.03278600 0.04600800 0.01188900
v 0.03278600 0.04634200 0.01183900
v 0.03278600 0.04665300 0.01169300
v 0.03278600 0.04692000 0.01146100
v 0.03278600 0.04712500 0.01115900
v 0.03278600 0.04725300 0.01080800
v 0.03278600 0.04729800 0.01043000
v 0.03278600 0.04725300 0.01005300
v 0.03278600 0.04712500 0.00970100
v 0.03278600 0.04692000 0.00939900
v 0.03278600 0.04665300 0.00916700
v 0.03278600 0.04634200 0.00902100
v 0.03278600 0.04600800 0.00897200
v 0.03278600 0.04567400 0.00902100
v 0.03278600 0.04536200 0.00916700
v 0.03278600 0.04509500 0.00939900
v 0.03278600 0.04488900 0.00970100
v 0.03278600 0.04476100 0.01005300
v 0.03278600 0.04471700 0.01043000
v 0.03278600 0.04476100 0.01080800
v 0.03278600 0.04488900 0.01115900
v 0.03088000 0.03134500 -0.03640000
v 0.03088000 0.06075300 -0.03640000
v 0.03088000 0.03134500 -0.00560700
v 0.03088000 0.06075300 -0.00560700
v 0.03088000 0.05866700 -0.00796300
v 0.03088000 0.03342900 -0.00796300
v 0.03088000 0.03342900 -0.03404300
v 0.03088000 0.05866700 -0.03404300
v 0.02973700 0.03342900 -0.00796300
v 0.02973700 0.05866700 -0.00796300
v 0.02973700 0.03342900 -0.03404300
v 0.02973700 0.05757600 -0.00919700
v 0.02973700 0.05866700 -0.03404300
v 0.02973700 0.03452200 -0.00919700
v 0.02973700 0.03452200 -0.03280900
v 0.02973700 0.05757600 -0.03280900
v 0.03088000 0.06207900 -0.03789800
v 0.03088000 0.06207900 -0.00410800
v 0.03088000 0.03001900 -0.03789800
v 0.03088000 0.03001900 -0.00410800
v 0.03164200 0.03452200 -0.03280900
v 0.03164200 0.05757600 -0.03280900
v 0.03164200 0.03452200 -0.00919700
v 0.03164200 0.05757600 -0.00919700
v 0.03278600 0.02746400 -0.01986500
v 0.03278600 0.02773100 -0.01963300
v 0.03278600 0.02804200 -0.01948700
v 0.03278600 0.02837500 -0.01943700
v 0.03278600 0.02870900 -0.01948700
v 0.03278600 0.02902200 -0.01963300
v 0.03278600 0.02928900 -0.01986500
v 0.03278600 0.02949400 -0.02016700
v 0.03278600 0.02962200 -0.02051800
v 0.03278600 0.02966700 -0.02089600
v 0.03278600 0.02962200 -0.02127300
v 0.03278600 0.02949400 -0.02162500
v 0.03278600 0.02837500 -0.02235400
v 0.03278600 0.02804200 -0.02230500
v 0.03278600 0.02773100 -0.02215900
v 0.03278600 0.02746400 -0.02192700
v 0.03278600 0.02725800 -0.02162500
v 0.03278600 0.02713000 -0.02127300
v 0.03278600 0.02708600 -0.02089600
v 0.03278600 0.02713000 -0.02051800
v 0.03278600 0.02725800 -0.02016700
v 0.03278600 0.02928900 -0.02192700
v 0.03278600 0.02870900 -0.02230500
v 0.03278600 0.02902200 -0.02215900
vn 0.90453403 -0.30151134 -0.30151134
vn 0.76121067 -0.47088406 0.44589968
vn 0.90453403 -0.30151134 0.30151134
vn 0.76126954 -0.47090323 -0.44577891
vn 0.76128831 0.47074300 0.44591607
vn 0.90453403 0.30151134 0.30151134
vn 0.90453403 0.30151134 -0.30151134
vn 0.76134720 0.47076216 -0.44579529
vn 0.00000000 -1.00000000 0.00000000
vn 0.70710678 -0.70710678 0.00000000
vn 0.00000000 -1.00000000 0.00000000
vn 0.70710678 -0.70710678 0.00000000
vn 0.76121067 -0.47088406 0.44589968
vn 0.90453403 -0.30151134 0.30151134
vn 0.76128831 0.47074300 0.44591607
vn 0.90453403 0.30151134 0.30151134
vn 0.76134720 0.47076216 -0.44579529
vn 0.90453403 0.30151134 -0.30151134
vn 0.90453403 -0.30151134 -0.30151134
vn 0.76126954 -0.47090323 -0.44577891
vn 0.91203805 -0.28903841 -0.29093537
vn 0.91203805 0.28903841 -0.29093537
vn 0.73474524 0.67834315 -0.00010560
vn 0.91202645 0.28906152 0.29094877
vn 0.73401304 0.66061286 0.15752939
vn 0.73587462 0.60276688 0.30848118
vn 0.73736939 0.50520372 0.44839221
vn 0.73977489 0.36643670 0.56432017
vn 0.74086091 0.19368654 0.64312568
vn 0.74205209 -0.00014736 0.67034221
vn 0.74110689 -0.19454038 0.64258433
vn 0.73947618 -0.36730989 0.56414398
vn 0.73709595 -0.50491891 0.44916195
vn 0.73614739 -0.60215355 0.30902769
vn 0.73432634 -0.66048819 0.15658922
vn 0.73411749 -0.67902246 -0.00010342
vn 0.91202645 -0.28906152 0.29094877
vn 0.73386589 0.66081503 -0.15736692
vn 0.73598484 0.60280122 -0.30815094
vn 0.73736939 0.50520372 -0.44839221
vn 0.73977489 0.36643670 -0.56432017
vn 0.74121749 0.19263133 -0.64303172
vn 0.74133700 -0.00014471 -0.67113295
vn 0.74146467 -0.19348225 -0.64249106
vn 0.73947618 -0.36730989 -0.56414398
vn 0.73709595 -0.50491891 -0.44916195
vn 0.73625768 -0.60218806 -0.30869754
vn 0.73417991 -0.66069004 -0.15642422
vn 0.69849395 0.50391693 -0.50810819
vn 0.69845463 -0.50393037 -0.50814891
vn 0.81094036 -0.58512882 0.00001771
vn 0.81096340 0.58509688 0.00001769
vn 0.43982227 0.31734669 -0.84014728
vn 0.73474524 0.67834315 -0.00010560
vn 0.73401304 0.66061286 0.15752939
vn 0.73587462 0.60276688 0.30848118
vn 0.73736939 0.50520372 0.44839221
vn 0.73947618 0.36730989 0.56414398
vn 0.74116041 0.19438201 0.64257052
vn 0.74199848 0.00000000 0.67040157
vn 0.74101024 -0.19403351 0.64284898
vn 0.73432634 -0.66048819 0.15658922
vn 0.73411749 -0.67902246 -0.00010342
vn 0.73614739 -0.60215355 0.30902769
vn 0.73709595 -0.50491891 0.44916195
vn 0.73962591 -0.36687216 0.56423252
vn 0.73386589 0.66081503 -0.15736692
vn 0.73598484 0.60280122 -0.30815094
vn 0.73736939 0.50520372 -0.44839221
vn 0.73947618 0.36730989 -0.56414398
vn 0.74151721 0.19332698 -0.64247717
vn 0.74128448 -0.00000000 -0.67119097
vn 0.74136693 -0.19297839 -0.64275533
vn 0.73417991 -0.66069004 -0.15642422
vn 0.73625768 -0.60218806 -0.30869754
vn 0.73709595 -0.50491891 -0.44916195
vn 0.73962591 -0.36687216 -0.56423252
vn -0.57735027 -0.57735027 -0.57735027
vn -0.57735027 0.57735027 -0.57735027
vn -0.55470020 -0.83205029 -0.00000000
vn 0.62808485 -0.77814486 0.00000000
vn -0.55470020 -0.83205029 0.00000000
vn 0.62808485 -0.77814486 0.00000000
vn -0.23570226 0.23570226 -0.94280904
vn 0.43982082 -0.31737199 -0.84013848
vn -0.40824829 -0.40824829 -0.81649658
vn 0.00000000 0.70710678 -0.70710678
vn 0.00000000 0.70710678 -0.70710678
vn 0.00000000 0.00000000 -1.00000000
vn 0.57735027 0.57735027 -0.57735027
vn 0.70710678 0.00000000 -0.70710678
vn 0.00000000 0.00000000 -1.00000000
vn -0.70710678 0.00000000 -0.70710678
vn -0.57735027 0.57735027 -0.57735027
vn -0.57735027 0.57735027 0.57735027
vn 0.57735027 0.57735027 0.57735027
vn 0.57735027 -0.57735027 0.57735027
vn -0.57735027 -0.57735027 0.57735027
vn 0.70710678 0.00000000 -0.70710678
vn 0.70710678 0.00000000 -0.70710678
vn 0.57735027 -0.57735027 -0.57735027
vn -0.70710678 0.00000000 -0.70710678
vn -0.23570226 0.23570226 -0.94280904
vn 0.23570226 0.23570226 -0.94280904
vn -0.57735027 -0.57735027 -0.57735027
vn 0.00000000 -0.70710678 -0.70710678
vn 0.23570226 -0.23570226 -0.94280904
vn -0.23570226 -0.23570226 -0.94280904
vn 0.83205029 0.55470020 0.00000000
vn -0.83205029 0.55470020 0.00000000
vn 0.00000000 1.00000000 -0.00000000
vn 0.00000000 1.00000000 0.00000000
vn -0.57735027 -0.57735027 -0.57735027
vn 0.57735027 -0.57735027 -0.57735027
vn 0.57735027 0.57735027 -0.57735027
vn 0.70710678 0.70710678 0.00000000
vn -0.70710678 0.70710678 0.00000000
vn -0.57735027 0.57735027 -0.57735027
vn 0.67938988 -0.54824600 0.48770453
vn 0.67724213 -0.40107375 0.61683299
vn 0.67607838 -0.21291287 0.70539786
vn 0.67525250 -0.00000000 0.73758665
vn 0.67595262 0.21338134 0.70537682
vn 0.67736848 0.40139069 0.61648800
vn 0.67915643 0.54895916 0.48722724
vn 0.68043651 0.65234113 0.33385206
vn 0.68204428 0.71136534 0.16963179
vn 0.68141010 0.73190181 -0.00011394
vn 0.68217201 0.71130058 -0.16938958
vn 0.68034179 0.65257206 -0.33359370
vn 0.67915643 0.54895916 -0.48722724
vn 0.67736848 0.40139069 -0.61648800
vn 0.67565420 0.21242670 -0.70595064
vn 0.67584879 0.00000000 -0.73704031
vn 0.67577982 -0.21195810 -0.70597125
vn 0.67724213 -0.40107375 -0.61683299
vn 0.67938988 -0.54824600 -0.48770453
vn 0.68010755 -0.65238757 -0.33443113
vn 0.68189954 -0.71176881 -0.16851758
vn 0.68195367 -0.73139536 -0.00011140
vn 0.68177264 -0.71183247 0.16876198
vn 0.68020220 -0.65215642 0.33468937
vn 0.98892004 0.11208315 0.09733712
vn 0.98892004 -0.11208315 0.09733712
vn 0.98892502 0.11209604 -0.09727167
vn 0.98892502 -0.11209604 -0.09727167
vn 0.97012416 -0.17273513 -0.17035756
vn 0.97010760 0.17276368 -0.17042289
vn 0.97010760 0.17276368 0.17042289
vn 0.97012416 -0.17273513 0.17035756
vn 0.57735027 0.57735027 -0.57735027
vn 0.57735027 -0.57735027 -0.57735027
vn 0.57735027 0.57735027 0.57735027
vn 0.90453403 0.30151134 0.30151134
vn 0.57735027 -0.57735027 0.57735027
vn 0.90453403 -0.30151134 0.30151134
vn 0.90453403 -0.30151134 -0.30151134
vn 0.90453403 0.30151134 -0.30151134
vn 0.57735027 -0.57735027 0.57735027
vn 0.57735027 -0.57735027 -0.57735027
vn 0.57735027 0.57735027 0.57735027
vn 0.57735027 0.57735027 -0.57735027
vn 0.80249105 -0.43378703 -0.40967905
vn 0.80233638 0.43411296 -0.40963676
vn 0.80249105 -0.43378703 0.40967905
vn 0.80233638 0.43411296 0.40963676
vn 0.67938988 -0.54824600 0.48770453
vn 0.67736848 -0.40139069 0.61648800
vn 0.67599743 -0.21352449 0.70529055
vn 0.67520781 -0.00016216 0.73762754
vn 0.67620353 0.21244689 0.70541839
vn 0.67711650 0.40075816 0.61717594
vn 0.67915643 0.54895916 0.48722724
vn 0.68043651 0.65234113 0.33385206
vn 0.68204428 0.71136534 0.16963179
vn 0.68141010 0.73190181 -0.00011394
vn 0.68217201 0.71130058 -0.16938958
vn 0.68034179 0.65257206 -0.33359370
vn 0.67580485 -0.00015893 -0.73708057
vn 0.67569810 -0.21256731 -0.70586628
vn 0.67736848 -0.40139069 -0.61648800
vn 0.67938988 -0.54824600 -0.48770453
vn 0.68010755 -0.65238757 -0.33443113
vn 0.68189954 -0.71176881 -0.16851758
vn 0.68195367 -0.73139536 -0.00011140
vn 0.68177264 -0.71183247 0.16876198
vn 0.68020220 -0.65215642 0.33468937
vn 0.67915643 0.54895916 -0.48722724
vn 0.67590484 0.21149198 -0.70599135
vn 0.67711650 0.40075816 -0.61717594
f 1//1 2//2 3//3
f 2//2 1//1 4//4
f 5//5 3//3 2//2
f 3//3 5//5 6//6
f 5//5 7//7 6//6
f 7//7 5//5 8//8
f 1//1 8//8 4//4
f 8//8 1//1 7//7
f 9//9 10//10 11//11
f 10//10 9//9 12//12
f 11//11 13//13 14//14
f 13//13 11//11 10//10
f 15//15 14//14 13//13
f 14//14 15//15 16//16
f 17//17 16//16 15//15
f 16//16 17//17 18//18
f 19//19 17//17 20//20
f 17//17 19//19 18//18
f 19//19 12//12 9//9
f 12//12 19//19 20//20
f 5//5 21//21 8//8
f 5//5 22//22 21//21
f 22//22 23//23 24//24
f 22//22 25//25 23//23
f 22//22 26//26 25//25
f 22//22 27//27 26//26
f 22//22 28//28 27//27
f 22//22 29//29 28//28
f 22//22 30//30 29//29
f 22//22 31//31 30//30
f 22//22 32//32 31//31
f 22//22 33//33 32//32
f 22//22 34//34 33//33
f 22//22 35//35 34//34
f 35//35 2//2 36//36
f 22//22 2//2 35//35
f 2//2 22//22 5//5
f 37//37 8//8 21//21
f 24//24 8//8 37//37
f 38//38 24//24 23//23
f 39//39 24//24 38//38
f 40//40 24//24 39//39
f 41//41 24//24 40//40
f 42//42 24//24 41//41
f 43//43 24//24 42//42
f 44//44 24//24 43//43
f 45//45 24//24 44//44
f 46//46 24//24 45//45
f 47//47 24//24 46//46
f 48//48 24//24 47//47
f 24//24 4//4 8//8
f 48//48 4//4 24//24
f 36//36 4//4 48//48
f 4//4 36//36 2//2
f 4//4 49//49 8//8
f 49//49 4//4 50//50
f 51//51 4//4 2//2
f 4//4 51//51 50//50
f 5//5 49//49 52//52
f 49//49 5//5 8//8
f 15//15 52//52 53//53
f 52//52 15//15 17//17
f 15//15 54//54 17//17
f 15//15 55//55 54//54
f 15//15 56//56 55//55
f 15//15 57//57 56//56
f 15//15 58//58 57//57
f 15//15 59//59 58//58
f 15//15 60//60 59//59
f 15//15 61//61 60//60
f 62//62 13//13 63//63
f 64//64 13//13 62//62
f 65//65 13//13 64//64
f 66//66 13//13 65//65
f 61//61 13//13 66//66
f 13//13 61//61 15//15
f 67//67 17//17 54//54
f 68//68 17//17 67//67
f 69//69 17//17 68//68
f 70//70 17//17 69//69
f 71//71 17//17 70//70
f 72//72 17//17 71//71
f 73//73 17//17 72//72
f 13//13 74//74 63//63
f 13//13 75//75 74//74
f 13//13 76//76 75//75
f 13//13 77//77 76//76
f 13//13 73//73 77//77
f 10//10 73//73 13//13
f 10//10 17//17 73//73
f 12//12 17//17 10//10
f 17//17 12//12 20//20
f 20//20 52//52 17//17
f 52//52 20//20 51//51
f 52//52 2//2 5//5
f 2//2 52//52 51//51
f 52//52 6//6 49//49
f 52//52 3//3 6//6
f 3//3 51//51 1//1
f 51//51 3//3 52//52
f 7//7 49//49 6//6
f 1//1 49//49 7//7
f 1//1 50//50 49//49
f 50//50 1//1 51//51
f 78//78 49//49 50//50
f 49//49 78//78 79//79
f 80//80 81//81 82//82
f 80//80 83//83 81//81
f 80//80 51//51 83//83
f 78//78 51//51 80//80
f 51//51 78//78 50//50
f 52//52 84//84 53//53
f 49//49 84//84 52//52
f 84//84 49//49 79//79
f 53//53 13//13 15//15
f 13//13 53//53 85//85
f 13//13 12//12 10//10
f 13//13 20//20 12//12
f 85//85 20//20 13//13
f 81//81 20//20 85//85
f 83//83 20//20 81//81
f 20//20 83//83 51//51
f 53//53 16//16 52//52
f 53//53 14//14 16//16
f 14//14 9//9 11//11
f 14//14 19//19 9//9
f 14//14 85//85 19//19
f 85//85 14//14 53//53
f 18//18 52//52 16//16
f 19//19 52//52 18//18
f 81//81 19//19 85//85
f 83//83 19//19 81//81
f 19//19 51//51 52//52
f 51//51 19//19 83//83
f 78//78 84//84 79//79
f 80//80 84//84 78//78
f 82//82 84//84 80//80
f 84//84 82//82 86//86
f 84//84 87//87 53//53
f 87//87 84//84 88//88
f 89//89 90//90 91//91
f 85//85 90//90 89//89
f 53//53 90//90 85//85
f 90//90 53//53 87//87
f 82//82 85//85 86//86
f 82//82 81//81 85//85
f 80//80 81//81 82//82
f 81//81 80//80 83//83
f 86//86 53//53 85//85
f 53//53 86//86 84//84
f 92//92 84//84 86//86
f 93//93 84//84 92//92
f 93//93 88//88 84//84
f 88//88 93//93 94//94
f 90//90 95//95 96//96
f 87//87 95//95 90//90
f 88//88 95//95 87//87
f 95//95 88//88 94//94
f 95//95 97//97 96//96
f 97//97 95//95 98//98
f 96//96 91//91 90//90
f 96//96 99//99 91//91
f 96//96 100//100 99//99
f 97//97 100//100 96//96
f 100//100 97//97 101//101
f 102//102 92//92 103//103
f 92//92 102//102 93//93
f 104//104 91//91 99//99
f 104//104 89//89 91//91
f 104//104 85//85 89//89
f 103//103 85//85 104//104
f 92//92 85//85 103//103
f 85//85 92//92 86//86
f 93//93 95//95 94//94
f 102//102 95//95 93//93
f 105//105 95//95 102//102
f 95//95 105//105 98//98
f 105//105 97//97 98//98
f 106//106 97//97 105//105
f 97//97 106//106 101//101
f 107//107 103//103 104//104
f 103//103 107//107 108//108
f 101//101 107//107 100//100
f 106//106 107//107 101//101
f 107//107 106//106 108//108
f 100//100 104//104 99//99
f 104//104 100//100 107//107
f 109//109 103//103 104//104
f 109//109 110//110 103//103
f 111//111 110//110 109//109
f 110//110 111//111 112//112
f 106//106 102//102 108//108
f 102//102 106//106 105//105
f 103//103 108//108 102//102
f 113//113 107//107 108//108
f 107//107 113//113 114//114
f 109//109 115//115 116//116
f 107//107 115//115 109//109
f 115//115 107//107 114//114
f 104//104 107//107 109//109
f 115//115 117//117 116//116
f 117//117 115//115 118//118
f 118//118 110//110 117//117
f 113//113 110//110 118//118
f 113//113 103//103 110//110
f 103//103 113//113 108//108
f 114//114 118//118 115//115
f 118//118 114//114 113//113
f 82//82 117//117 81//81
f 116//116 81//81 117//117
f 117//117 81//81 116//116
f 81//81 117//117 82//82
f 112//112 110//110 80//80
f 117//117 80//80 110//110
f 82//82 80//80 117//117
f 117//117 80//80 82//82
f 110//110 80//80 117//117
f 80//80 110//110 112//112
f 109//109 111//111 116//116
f 83//83 116//116 111//111
f 81//81 116//116 83//83
f 83//83 116//116 81//81
f 111//111 116//116 83//83
f 116//116 111//111 109//109
f 112//112 80//80 111//111
f 83//83 111//111 80//80
f 80//80 111//111 83//83
f 111//111 80//80 112//112
f 66//66 119//119 120//120
f 119//119 66//66 65//65
f 61//61 120//120 121//121
f 120//120 61//61 66//66
f 60//60 121//121 122//122
f 121//121 60//60 61//61
f 59//59 122//122 123//123
f 122//122 59//59 60//60
f 58//58 123//123 124//124
f 123//123 58//58 59//59
f 57//57 124//124 125//125
f 124//124 57//57 58//58
f 126//126 57//57 125//125
f 57//57 126//126 56//56
f 127//127 56//56 126//126
f 56//56 127//127 55//55
f 128//128 55//55 127//127
f 55//55 128//128 54//54
f 129//129 54//54 128//128
f 54//54 129//129 67//67
f 130//130 67//67 129//129
f 67//67 130//130 68//68
f 131//131 68//68 130//130
f 68//68 131//131 69//69
f 70//70 131//131 132//132
f 131//131 70//70 69//69
f 71//71 132//132 133//133
f 132//132 71//71 70//70
f 72//72 133//133 134//134
f 133//133 72//72 71//71
f 73//73 134//134 135//135
f 134//134 73//73 72//72
f 77//77 135//135 136//136
f 135//135 77//77 73//73
f 76//76 136//136 137//137
f 136//136 76//76 77//77
f 76//76 138//138 75//75
f 138//138 76//76 137//137
f 75//75 139//139 74//74
f 139//139 75//75 138//138
f 74//74 140//140 63//63
f 140//140 74//74 139//139
f 63//63 141//141 62//62
f 141//141 63//63 140//140
f 62//62 142//142 64//64
f 142//142 62//62 141//141
f 64//64 119//119 65//65
f 119//119 64//64 142//142
f 127//127 129//129 128//128
f 126//126 129//129 127//127
f 126//126 130//130 129//129
f 125//125 130//130 126//126
f 125//125 131//131 130//130
f 125//125 132//132 131//131
f 124//124 132//132 125//125
f 123//123 132//132 124//124
f 123//123 133//133 132//132
f 122//122 133//133 123//123
f 122//122 134//134 133//133
f 122//122 135//135 134//134
f 121//121 135//135 122//122
f 121//121 136//136 135//135
f 120//120 136//136 121//121
f 120//120 137//137 136//136
f 119//119 137//137 120//120
f 142//142 137//137 119//119
f 142//142 138//138 137//137
f 142//142 139//139 138//138
f 141//141 139//139 142//142
f 139//139 141//141 140//140
f 143//143 37//37 144//144
f 37//37 143//143 24//24
f 22//22 143//143 145//145
f 143//143 22//22 24//24
f 21//21 145//145 146//146
f 145//145 21//21 22//22
f 146//146 37//37 21//21
f 37//37 146//146 144//144
f 146//146 147//147 144//144
f 146//146 148//148 147//147
f 148//148 145//145 149//149
f 145//145 148//148 146//146
f 150//150 144//144 147//147
f 149//149 144//144 150//150
f 149//149 143//143 144//144
f 143//143 149//149 145//145
f 151//151 147//147 148//148
f 147//147 151//151 152//152
f 148//148 153//153 151//151
f 153//153 148//148 149//149
f 152//152 154//154 155//155
f 152//152 156//156 154//154
f 156//156 151//151 157//157
f 151//151 156//156 152//152
f 158//158 155//155 154//154
f 157//157 155//155 158//158
f 157//157 153//153 155//155
f 153//153 157//157 151//151
f 155//155 147//147 152//152
f 147//147 155//155 150//150
f 155//155 149//149 150//150
f 149//149 155//155 153//153
f 159//159 21//21 160//160
f 21//21 159//159 37//37
f 159//159 24//24 37//37
f 24//24 159//159 161//161
f 22//22 161//161 162//162
f 161//161 22//22 24//24
f 162//162 21//21 22//22
f 21//21 162//162 160//160
f 160//160 146//146 159//159
f 160//160 145//145 146//146
f 145//145 162//162 143//143
f 162//162 145//145 160//160
f 144//144 159//159 146//146
f 143//143 159//159 144//144
f 143//143 161//161 159//159
f 161//161 143//143 162//162
f 163//163 150//150 164//164
f 150//150 163//163 149//149
f 157//157 164//164 163//163
f 164//164 157//157 158//158
f 148//148 163//163 165//165
f 163//163 148//148 149//149
f 157//157 165//165 156//156
f 165//165 157//157 163//163
f 147//147 165//165 166//166
f 165//165 147//147 148//148
f 166//166 156//156 165//165
f 156//156 166//166 154//154
f 166//166 150//150 147//147
f 150//150 166//166 164//164
f 166//166 158//158 154//154
f 158//158 166//166 164//164
f 165//165 164//164 166//166
f 164//164 165//165 163//163
f 32//32 167//167 168//168
f 167//167 32//32 33//33
f 31//31 168//168 169//169
f 168//168 31//31 32//32
f 30//30 169//169 170//170
f 169//169 30//30 31//31
f 29//29 170//170 171//171
f 170//170 29//29 30//30
f 28//28 171//171 172//172
f 171//171 28//28 29//29
f 27//27 172//172 173//173
f 172//172 27//27 28//28
f 174//174 27//27 173//173
f 27//27 174//174 26//26
f 175//175 26//26 174//174
f 26//26 175//175 25//25
f 176//176 25//25 175//175
f 25//25 176//176 23//23
f 177//177 23//23 176//176
f 23//23 177//177 38//38
f 178//178 38//38 177//177
f 38//38 178//178 39//39
f 44//44 179//179 180//180
f 179//179 44//44 43//43
f 45//45 180//180 181//181
f 180//180 45//45 44//44
f 46//46 181//181 182//182
f 181//181 46//46 45//45
f 46//46 183//183 47//47
f 183//183 46//46 182//182
f 47//47 184//184 48//48
f 184//184 47//47 183//183
f 48//48 185//185 36//36
f 185//185 48//48 184//184
f 36//36 186//186 35//35
f 186//186 36//36 185//185
f 35//35 187//187 34//34
f 187//187 35//35 186//186
f 34//34 167//167 33//33
f 167//167 34//34 187//187
f 188//188 39//39 178//178
f 39//39 188//188 40//40
f 43//43 189//189 179//179
f 189//189 43//43 42//42
f 175//175 177//177 176//176
f 174//174 177//177 175//175
f 174//174 178//178 177//177
f 173//173 178//178 174//174
f 173//173 188//188 178//178
f 173//173 190//190 188//188
f 172//172 190//190 173//173
f 171//171 190//190 172//172
f 171//171 189//189 190//190
f 170//170 189//189 171//171
f 170//170 179//179 189//189
f 170//170 180//180 179//179
f 169//169 180//180 170//170
f 169//169 181//181 180//180
f 168//168 181//181 169//169
f 168//168 182//182 181//181
f 167//167 182//182 168//168
f 187//187 182//182 167//167
f 187//187 183//183 182//182
f 187//187 184//184 183//183
f 186//186 184//184 187//187
f 184//184 186//186 185//185
f 41//41 188//188 190//190
f 188//188 41//41 40//40
f 189//189 41//41 190//190
f 41//41 189//189 42//42