# https://github.com/mikedh/trimesh
v -0.14707700 -0.03771900 0.06037600
v -0.14502800 -0.03771900 0.05832800
v 0.14785800 -0.03771900 0.06037600
v -0.14502800 -0.03771900 0.02555700
v -0.14502800 -0.03771900 -0.00721300
v -0.14502800 -0.03771900 -0.03998400
v 0.14581000 -0.03771900 -0.03998400
v 0.00039100 -0.03771900 -0.03998400
v -0.14707700 -0.03771900 -0.04203200
v 0.00039100 -0.03771900 0.05832800
v 0.14581000 -0.03771900 0.05832800
v 0.14581000 -0.03771900 0.02555700
v 0.14581000 -0.03771900 -0.00721300
v 0.14785800 -0.03771900 -0.04203200
v 0.14785800 0.04420700 -0.04203200
v 0.14785800 0.04420700 0.06037600
v -0.14707700 0.04420700 0.06037600
v -0.14707700 0.04420700 -0.04203200
v 0.12942500 -0.03771900 0.04399100
v 0.01688300 -0.03771900 0.04398800
v 0.01635000 -0.03771900 0.04394600
v 0.01584600 -0.03771900 0.04376800
v 0.01540600 -0.03771900 0.04346500
v 0.01505900 -0.03771900 0.04305800
v 0.01482800 -0.03771900 0.04257600
v 0.01473100 -0.03771900 0.04205000
v 0.01477300 -0.03771900 0.04151700
v 0.01495100 -0.03771900 0.04101300
v 0.01525400 -0.03771900 0.04057200
v 0.01666900 -0.03771900 0.03989700
v 0.00039100 -0.03771900 0.02555700
v 0.12942500 -0.03771900 0.03989400
v 0.01614300 -0.03771900 0.03999500
v 0.01566100 -0.03771900 0.04022500
v 0.12995500 -0.03771900 0.04392100
v 0.13044900 -0.03771900 0.04371600
v 0.13087300 -0.03771900 0.04339100
v 0.13119900 -0.03771900 0.04296700
v 0.13140300 -0.03771900 0.04247300
v 0.13147300 -0.03771900 0.04194300
v 0.13140300 -0.03771900 0.04141300
v 0.13119900 -0.03771900 0.04091900
v 0.13087300 -0.03771900 0.04049400
v 0.13044900 -0.03771900 0.04016900
v 0.12995500 -0.03771900 0.03996400
v 0.12889500 -0.03771900 0.04392100
v 0.01740900 -0.03771900 0.04389000
v 0.12840100 -0.03771900 0.04371600
v 0.01789200 -0.03771900 0.04366000
v 0.12797600 -0.03771900 0.04339100
v 0.01829800 -0.03771900 0.04331300
v 0.12765100 -0.03771900 0.04296700
v 0.01860100 -0.03771900 0.04287300
v 0.12744600 -0.03771900 0.04247300
v 0.01878000 -0.03771900 0.04236900
v 0.12737700 -0.03771900 0.04194300
v 0.01882100 -0.03771900 0.04183500
v 0.12744600 -0.03771900 0.04141300
v 0.01872400 -0.03771900 0.04131000
v 0.12765100 -0.03771900 0.04091900
v 0.01849400 -0.03771900 0.04082700
v 0.12797600 -0.03771900 0.04049400
v 0.01814700 -0.03771900 0.04042000
v 0.12840100 -0.03771900 0.04016900
v 0.01770600 -0.03771900 0.04011800
v 0.12889500 -0.03771900 0.03996400
v 0.01720200 -0.03771900 0.03993900
v -0.12811300 -0.03771900 0.04392100
v -0.01599400 -0.03771900 0.04399100
v -0.12864300 -0.03771900 0.04399100
v -0.01652400 -0.03771900 0.04392100
v -0.12761900 -0.03771900 0.04371600
v -0.01701800 -0.03771900 0.04371600
v -0.12719500 -0.03771900 0.04339100
v -0.01744300 -0.03771900 0.04339100
v -0.12686900 -0.03771900 0.04296700
v -0.01776800 -0.03771900 0.04296700
v -0.12666500 -0.03771900 0.04247300
v -0.01797300 -0.03771900 0.04247300
v -0.12659500 -0.03771900 0.04194300
v -0.01804300 -0.03771900 0.04194300
v -0.12666500 -0.03771900 0.04141300
v -0.01797300 -0.03771900 0.04141300
v -0.12686900 -0.03771900 0.04091900
v -0.01776800 -0.03771900 0.04091900
v -0.12719500 -0.03771900 0.04049400
v -0.01744300 -0.03771900 0.04049400
v -0.12761900 -0.03771900 0.04016900
v -0.01701800 -0.03771900 0.04016900
v -0.12811300 -0.03771900 0.03996400
v -0.01652400 -0.03771900 0.03996400
v -0.12864300 -0.03771900 0.03989400
v -0.01599400 -0.03771900 0.03989400
v -0.12917300 -0.03771900 0.04392100
v -0.12966700 -0.03771900 0.04371600
v -0.13009100 -0.03771900 0.04339100
v -0.13041700 -0.03771900 0.04296700
v -0.13062100 -0.03771900 0.04247300
v -0.13069100 -0.03771900 0.04194300
v -0.13062100 -0.03771900 0.04141300
v -0.13041700 -0.03771900 0.04091900
v -0.13009100 -0.03771900 0.04049400
v -0.12917300 -0.03771900 0.03996400
v -0.12966700 -0.03771900 0.04016900
v -0.01546400 -0.03771900 0.04392100
v -0.01497000 -0.03771900 0.04371600
v -0.01454600 -0.03771900 0.04339100
v -0.01422100 -0.03771900 0.04296700
v -0.01401600 -0.03771900 0.04247300
v -0.01394600 -0.03771900 0.04194300
v -0.01401600 -0.03771900 0.04141300
v -0.01422100 -0.03771900 0.04091900
v -0.01454600 -0.03771900 0.04049400
v -0.01497000 -0.03771900 0.04016900
v -0.01546400 -0.03771900 0.03996400
v 0.12962200 -0.03771900 0.01121100
v 0.01652500 -0.03771900 0.01120500
v 0.01600800 -0.03771900 0.01107100
v 0.01554200 -0.03771900 0.01080700
v 0.01516100 -0.03771900 0.01043200
v 0.01489000 -0.03771900 0.00997100
v 0.01474800 -0.03771900 0.00945600
v 0.01474400 -0.03771900 0.00892100
v 0.01487800 -0.03771900 0.00840400
v 0.01514100 -0.03771900 0.00793800
v 0.01702700 -0.03771900 0.00714000
v 0.00039100 -0.03771900 -0.00721300
v 0.12922800 -0.03771900 0.00713300
v 0.01649300 -0.03771900 0.00714400
v 0.01597700 -0.03771900 0.00728600
v 0.01551600 -0.03771900 0.00755700
v 0.13014300 -0.03771900 0.01109000
v 0.13061500 -0.03771900 0.01083900
v 0.13100600 -0.03771900 0.01047400
v 0.13128900 -0.03771900 0.01002100
v 0.13144500 -0.03771900 0.00950900
v 0.13146400 -0.03771900 0.00897500
v 0.13134300 -0.03771900 0.00845400
v 0.13109200 -0.03771900 0.00798200
v 0.12976200 -0.03771900 0.00715200
v 0.13072700 -0.03771900 0.00759100
v 0.13027400 -0.03771900 0.00730800
v 0.01706000 -0.03771900 0.01120100
v 0.12908800 -0.03771900 0.01119200
v 0.01757500 -0.03771900 0.01105800
v 0.12857600 -0.03771900 0.01103600
v 0.01803600 -0.03771900 0.01078700
v 0.12812300 -0.03771900 0.01075300
v 0.01841100 -0.03771900 0.01040600
v 0.12775800 -0.03771900 0.01036200
v 0.01867500 -0.03771900 0.00994100
v 0.12750700 -0.03771900 0.00989000
v 0.01880900 -0.03771900 0.00942300
v 0.12738600 -0.03771900 0.00936900
v 0.01880500 -0.03771900 0.00888900
v 0.12740500 -0.03771900 0.00883500
v 0.01866200 -0.03771900 0.00837300
v 0.12756100 -0.03771900 0.00832300
v 0.01839100 -0.03771900 0.00791200
v 0.12784400 -0.03771900 0.00787000
v 0.01801000 -0.03771900 0.00753700
v 0.12823500 -0.03771900 0.00750500
v 0.01754500 -0.03771900 0.00727300
v 0.12870700 -0.03771900 0.00725400
v -0.12864300 -0.03771900 0.01122000
v -0.01627900 -0.03771900 0.01120100
v -0.01574400 -0.03771900 0.01120500
v -0.12811300 -0.03771900 0.01115100
v -0.01679400 -0.03771900 0.01105800
v -0.12761900 -0.03771900 0.01094600
v -0.01725500 -0.03771900 0.01078600
v -0.12719500 -0.03771900 0.01062100
v -0.01763000 -0.03771900 0.01040500
v -0.12686900 -0.03771900 0.01019600
v -0.01789300 -0.03771900 0.00994000
v -0.12666500 -0.03771900 0.00970200
v -0.01802700 -0.03771900 0.00942200
v -0.12659500 -0.03771900 0.00917200
v -0.01802300 -0.03771900 0.00888800
v -0.12666500 -0.03771900 0.00864200
v -0.01788000 -0.03771900 0.00837200
v -0.12686900 -0.03771900 0.00814800
v -0.01760900 -0.03771900 0.00791200
v -0.12719500 -0.03771900 0.00772400
v -0.01722700 -0.03771900 0.00753700
v -0.12761900 -0.03771900 0.00739800
v -0.01676200 -0.03771900 0.00727300
v -0.12811300 -0.03771900 0.00719400
v -0.01624500 -0.03771900 0.00713900
v -0.12864300 -0.03771900 0.00712400
v -0.12917300 -0.03771900 0.01115100
v -0.12966700 -0.03771900 0.01094600
v -0.13009100 -0.03771900 0.01062100
v -0.13041700 -0.03771900 0.01019600
v -0.13062100 -0.03771900 0.00970200
v -0.13069100 -0.03771900 0.00917200
v -0.13062100 -0.03771900 0.00864200
v -0.13041700 -0.03771900 0.00814800
v -0.13009100 -0.03771900 0.00772400
v -0.12917300 -0.03771900 0.00719400
v -0.12966700 -0.03771900 0.00739800
v -0.01522600 -0.03771900 0.01107100
v -0.01476100 -0.03771900 0.01080700
v -0.01438000 -0.03771900 0.01043300
v -0.01410900 -0.03771900 0.00997200
v -0.01396600 -0.03771900 0.00945600
v -0.01396100 -0.03771900 0.00892200
v -0.01409600 -0.03771900 0.00840400
v -0.01435900 -0.03771900 0.00793900
v -0.01571000 -0.03771900 0.00714400
v -0.01473400 -0.03771900 0.00755800
v -0.01519500 -0.03771900 0.00728700
v 0.01730600 -0.03771900 -0.02162000
v 0.12916500 -0.03771900 -0.02156700
v 0.01677600 -0.03771900 -0.02155000
v 0.12864800 -0.03771900 -0.02170300
v 0.01780000 -0.03771900 -0.02182500
v 0.12818400 -0.03771900 -0.02196900
v 0.01822500 -0.03771900 -0.02215000
v 0.12780400 -0.03771900 -0.02234600
v 0.01855000 -0.03771900 -0.02257400
v 0.12753500 -0.03771900 -0.02280800
v 0.01875500 -0.03771900 -0.02306800
v 0.12739500 -0.03771900 -0.02332400
v 0.01882400 -0.03771900 -0.02359800
v 0.12739300 -0.03771900 -0.02385900
v 0.01875500 -0.03771900 -0.02412900
v 0.12753000 -0.03771900 -0.02437600
v 0.01855000 -0.03771900 -0.02462300
v 0.12779500 -0.03771900 -0.02484000
v 0.01822500 -0.03771900 -0.02504700
v 0.12817200 -0.03771900 -0.02521900
v 0.01780000 -0.03771900 -0.02537200
v 0.12863400 -0.03771900 -0.02548800
v 0.01730600 -0.03771900 -0.02557700
v 0.12915000 -0.03771900 -0.02562800
v 0.12968500 -0.03771900 -0.02563000
v 0.01677600 -0.03771900 -0.02564700
v 0.01624600 -0.03771900 -0.02162000
v 0.01575200 -0.03771900 -0.02182500
v 0.01532800 -0.03771900 -0.02215000
v 0.01500200 -0.03771900 -0.02257400
v 0.01479800 -0.03771900 -0.02306800
v 0.01472800 -0.03771900 -0.02359800
v 0.01479800 -0.03771900 -0.02412900
v 0.01500200 -0.03771900 -0.02462300
v 0.01532800 -0.03771900 -0.02504700
v 0.01624600 -0.03771900 -0.02557700
v 0.01575200 -0.03771900 -0.02537200
v 0.12969900 -0.03771900 -0.02156900
v 0.13021600 -0.03771900 -0.02170900
v 0.13067800 -0.03771900 -0.02197800
v 0.13105400 -0.03771900 -0.02235700
v 0.13132000 -0.03771900 -0.02282100
v 0.13145700 -0.03771900 -0.02333800
v 0.13145500 -0.03771900 -0.02387300
v 0.13131500 -0.03771900 -0.02438900
v 0.13104500 -0.03771900 -0.02485100
v 0.13066600 -0.03771900 -0.02522800
v 0.13020200 -0.03771900 -0.02549300
v -0.01589100 -0.03771900 -0.02155300
v -0.12888400 -0.03771900 -0.02156500
v -0.12940200 -0.03771900 -0.02169600
v -0.12986900 -0.03771900 -0.02195700
v -0.13025200 -0.03771900 -0.02233100
v -0.13052500 -0.03771900 -0.02279000
v -0.13067000 -0.03771900 -0.02330500
v -0.13067700 -0.03771900 -0.02383900
v -0.13054500 -0.03771900 -0.02435700
v -0.13028400 -0.03771900 -0.02482400
v -0.12840200 -0.03771900 -0.02563200
v -0.01609800 -0.03771900 -0.02564400
v -0.12893700 -0.03771900 -0.02562500
v -0.12945200 -0.03771900 -0.02548000
v -0.12991100 -0.03771900 -0.02520700
v -0.01536500 -0.03771900 -0.02164900
v -0.01488200 -0.03771900 -0.02187800
v -0.01447500 -0.03771900 -0.02222500
v -0.01417100 -0.03771900 -0.02266500
v -0.01399200 -0.03771900 -0.02316900
v -0.01394900 -0.03771900 -0.02370200
v -0.01404500 -0.03771900 -0.02422800
v -0.01427400 -0.03771900 -0.02471100
v -0.01556500 -0.03771900 -0.02560100
v -0.01462100 -0.03771900 -0.02511800
v -0.01506100 -0.03771900 -0.02542200
v -0.12834900 -0.03771900 -0.02157200
v -0.01642400 -0.03771900 -0.02159600
v -0.12783500 -0.03771900 -0.02171700
v -0.01692800 -0.03771900 -0.02177500
v -0.12737500 -0.03771900 -0.02199000
v -0.01736800 -0.03771900 -0.02207900
v -0.12700200 -0.03771900 -0.02237300
v -0.01771400 -0.03771900 -0.02248600
v -0.12674100 -0.03771900 -0.02283900
v -0.01794300 -0.03771900 -0.02296900
v -0.12660900 -0.03771900 -0.02335800
v -0.01804000 -0.03771900 -0.02349500
v -0.12661600 -0.03771900 -0.02389200
v -0.01799700 -0.03771900 -0.02402800
v -0.12676100 -0.03771900 -0.02440700
v -0.01781800 -0.03771900 -0.02453200
v -0.12703500 -0.03771900 -0.02486600
v -0.01751400 -0.03771900 -0.02497200
v -0.12741800 -0.03771900 -0.02523900
v -0.01710700 -0.03771900 -0.02531800
v -0.12788400 -0.03771900 -0.02550100
v -0.01662400 -0.03771900 -0.02554700
v -0.14195600 -0.03259900 -0.04203200
v 0.14273800 0.03908600 -0.04203200
v 0.14273800 -0.03259900 -0.04203200
v -0.14195600 0.03908600 -0.04203200
v 0.14683400 -0.03259900 -0.07480200
v 0.14273800 -0.03259900 -0.04612800
v 0.14683400 -0.03259900 -0.04612800
v 0.14273800 -0.03259900 -0.07480200
v 0.14683400 -0.03259900 -0.04203200
v 0.14683400 -0.03669500 -0.04203200
v -0.14195600 -0.03669500 -0.04203200
v -0.14605200 -0.03669500 -0.04203200
v -0.14605200 0.04318300 -0.04203200
v -0.14605200 -0.03259900 -0.04203200
v 0.14683400 0.04318300 -0.04203200
v 0.14273800 0.04318300 -0.04203200
v -0.14195600 -0.03259900 -0.07480200
v -0.14605200 -0.03259900 -0.04612800
v -0.14195600 -0.03259900 -0.04612800
v -0.14605200 -0.03259900 -0.07480200
v 0.13020200 -0.04181600 -0.02549300
v 0.13066600 -0.04181600 -0.02522800
v 0.12968500 -0.04181600 -0.02563000
v 0.12915000 -0.04181600 -0.02562800
v 0.12863400 -0.04181600 -0.02548800
v 0.12817200 -0.04181600 -0.02521900
v 0.12779500 -0.04181600 -0.02484000
v 0.12753000 -0.04181600 -0.02437600
v 0.12739300 -0.04181600 -0.02385900
v 0.12739500 -0.04181600 -0.02332400
v 0.12753500 -0.04181600 -0.02280800
v 0.12780400 -0.04181600 -0.02234600
v 0.12818400 -0.04181600 -0.02196900
v 0.12864800 -0.04181600 -0.02170300
v 0.12916500 -0.04181600 -0.02156700
v 0.13105400 -0.04181600 -0.02235700
v 0.13132000 -0.04181600 -0.02282100
v 0.13145700 -0.04181600 -0.02333800
v 0.13145500 -0.04181600 -0.02387300
v 0.13131500 -0.04181600 -0.02438900
v 0.13104500 -0.04181600 -0.02485100
v 0.12969900 -0.04181600 -0.02156900
v 0.13067800 -0.04181600 -0.02197800
v 0.13021600 -0.04181600 -0.02170900
v 0.12962200 -0.04181600 0.01121100
v 0.12908800 -0.04181600 0.01119200
v 0.13014300 -0.04181600 0.01109000
v 0.13061500 -0.04181600 0.01083900
v 0.13100600 -0.04181600 0.01047400
v 0.13128900 -0.04181600 0.01002100
v 0.13144500 -0.04181600 0.00950900
v 0.13146400 -0.04181600 0.00897500
v 0.13134300 -0.04181600 0.00845400
v 0.13109200 -0.04181600 0.00798200
v 0.13072700 -0.04181600 0.00759100
v 0.13027400 -0.04181600 0.00730800
v 0.12976200 -0.04181600 0.00715200
v 0.12922800 -0.04181600 0.00713300
v 0.12870700 -0.04181600 0.00725400
v 0.12823500 -0.04181600 0.00750500
v 0.12784400 -0.04181600 0.00787000
v 0.12756100 -0.04181600 0.00832300
v 0.12740500 -0.04181600 0.00883500
v 0.12738600 -0.04181600 0.00936900
v 0.12750700 -0.04181600 0.00989000
v 0.12775800 -0.04181600 0.01036200
v 0.12857600 -0.04181600 0.01103600
v 0.12812300 -0.04181600 0.01075300
v 0.01474800 -0.04181600 0.00945600
v 0.01489000 -0.04181600 0.00997100
v 0.01516100 -0.04181600 0.01043200
v 0.01554200 -0.04181600 0.01080700
v 0.01600800 -0.04181600 0.01107100
v 0.01652500 -0.04181600 0.01120500
v 0.01706000 -0.04181600 0.01120100
v 0.01757500 -0.04181600 0.01105800
v 0.01803600 -0.04181600 0.01078700
v 0.01841100 -0.04181600 0.01040600
v 0.01867500 -0.04181600 0.00994100
v 0.01880900 -0.04181600 0.00942300
v 0.01880500 -0.04181600 0.00888900
v 0.01702700 -0.04181600 0.00714000
v 0.01754500 -0.04181600 0.00727300
v 0.01649300 -0.04181600 0.00714400
v 0.01597700 -0.04181600 0.00728600
v 0.01551600 -0.04181600 0.00755700
v 0.01514100 -0.04181600 0.00793800
v 0.01487800 -0.04181600 0.00840400
v 0.01474400 -0.04181600 0.00892100
v 0.01866200 -0.04181600 0.00837300
v 0.01801000 -0.04181600 0.00753700
v 0.01839100 -0.04181600 0.00791200
v 0.13087300 -0.04181600 0.04339100
v 0.13119900 -0.04181600 0.04296700
v 0.13140300 -0.04181600 0.04247300
v 0.13147300 -0.04181600 0.04194300
v 0.13140300 -0.04181600 0.04141300
v 0.13119900 -0.04181600 0.04091900
v 0.13087300 -0.04181600 0.04049400
v 0.13044900 -0.04181600 0.04016900
v 0.12995500 -0.04181600 0.03996400
v 0.12942500 -0.04181600 0.03989400
v 0.12889500 -0.04181600 0.03996400
v 0.12840100 -0.04181600 0.04016900
v 0.12797600 -0.04181600 0.04049400
v 0.12765100 -0.04181600 0.04091900
v 0.12744600 -0.04181600 0.04141300
v 0.12737700 -0.04181600 0.04194300
v 0.12744600 -0.04181600 0.04247300
v 0.12765100 -0.04181600 0.04296700
v 0.12797600 -0.04181600 0.04339100
v 0.12840100 -0.04181600 0.04371600
v 0.12889500 -0.04181600 0.04392100
v 0.12942500 -0.04181600 0.04399100
v 0.13044900 -0.04181600 0.04371600
v 0.12995500 -0.04181600 0.04392100
v -0.14195600 0.03908600 -0.04612800
v -0.14605200 0.03908600 -0.04612800
v -0.14195600 -0.03669500 -0.04612800
v -0.14195600 -0.03669500 -0.07480200
v -0.14605200 -0.03669500 -0.07480200
v -0.14605200 0.03908600 -0.07480200
v -0.14195600 0.03908600 -0.07480200
v -0.14605200 0.04318300 -0.07480200
v -0.14195600 0.04318300 -0.07480200
v 0.14273800 -0.03669500 -0.07480200
v 0.14273800 -0.03669500 -0.04612800
v -0.14195600 0.04318300 -0.04612800
v 0.14273800 0.03908600 -0.04612800
v 0.14273800 0.04318300 -0.04612800
v 0.14683400 -0.03669500 -0.07480200
v 0.14683400 0.04318300 -0.07480200
v 0.14273800 0.04318300 -0.07480200
v 0.14273800 0.03908600 -0.07480200
v 0.14683400 0.03908600 -0.07480200
v 0.14683400 0.03908600 -0.04612800
v -0.01410900 -0.04181600 0.00997200
v -0.01396600 -0.04181600 0.00945600
v -0.01396100 -0.04181600 0.00892200
v -0.01409600 -0.04181600 0.00840400
v -0.01435900 -0.04181600 0.00793900
v -0.01473400 -0.04181600 0.00755800
v -0.01519500 -0.04181600 0.00728700
v -0.01571000 -0.04181600 0.00714400
v -0.01624500 -0.04181600 0.00713900
v -0.01676200 -0.04181600 0.00727300
v -0.01722700 -0.04181600 0.00753700
v -0.01760900 -0.04181600 0.00791200
v -0.01789300 -0.04181600 0.00994000
v -0.01763000 -0.04181600 0.01040500
v -0.01725500 -0.04181600 0.01078600
v -0.01679400 -0.04181600 0.01105800
v -0.01627900 -0.04181600 0.01120100
v -0.01574400 -0.04181600 0.01120500
v -0.01522600 -0.04181600 0.01107100
v -0.01476100 -0.04181600 0.01080700
v -0.01438000 -0.04181600 0.01043300
v -0.01788000 -0.04181600 0.00837200
v -0.01802700 -0.04181600 0.00942200
v -0.01802300 -0.04181600 0.00888800
v 0.01740900 -0.04181600 0.04389000
v 0.01688300 -0.04181600 0.04398800
v 0.01789200 -0.04181600 0.04366000
v 0.01882100 -0.04181600 0.04183500
v 0.01872400 -0.04181600 0.04131000
v 0.01849400 -0.04181600 0.04082700
v 0.01814700 -0.04181600 0.04042000
v 0.01770600 -0.04181600 0.04011800
v 0.01720200 -0.04181600 0.03993900
v 0.01666900 -0.04181600 0.03989700
v 0.01614300 -0.04181600 0.03999500
v 0.01566100 -0.04181600 0.04022500
v 0.01525400 -0.04181600 0.04057200
v 0.01495100 -0.04181600 0.04101300
v 0.01477300 -0.04181600 0.04151700
v 0.01473100 -0.04181600 0.04205000
v 0.01482800 -0.04181600 0.04257600
v 0.01505900 -0.04181600 0.04305800
v 0.01540600 -0.04181600 0.04346500
v 0.01584600 -0.04181600 0.04376800
v 0.01635000 -0.04181600 0.04394600
v 0.01829800 -0.04181600 0.04331300
v 0.01878000 -0.04181600 0.04236900
v 0.01860100 -0.04181600 0.04287300
v 0.01575200 -0.04181600 -0.02182500
v 0.01532800 -0.04181600 -0.02215000
v 0.01624600 -0.04181600 -0.02162000
v 0.01677600 -0.04181600 -0.02155000
v 0.01730600 -0.04181600 -0.02162000
v 0.01780000 -0.04181600 -0.02182500
v 0.01822500 -0.04181600 -0.02215000
v 0.01855000 -0.04181600 -0.02257400
v 0.01875500 -0.04181600 -0.02306800
v 0.01882400 -0.04181600 -0.02359800
v 0.01875500 -0.04181600 -0.02412900
v 0.01855000 -0.04181600 -0.02462300
v 0.01822500 -0.04181600 -0.02504700
v 0.01780000 -0.04181600 -0.02537200
v 0.01730600 -0.04181600 -0.02557700
v 0.01677600 -0.04181600 -0.02564700
v 0.01500200 -0.04181600 -0.02462300
v 0.01479800 -0.04181600 -0.02412900
v 0.01472800 -0.04181600 -0.02359800
v 0.01479800 -0.04181600 -0.02306800
v 0.01500200 -0.04181600 -0.02257400
v 0.01624600 -0.04181600 -0.02557700
v 0.01532800 -0.04181600 -0.02504700
v 0.01575200 -0.04181600 -0.02537200
v -0.12676100 -0.04181600 -0.02440700
v -0.12703500 -0.04181600 -0.02486600
v -0.12741800 -0.04181600 -0.02523900
v -0.12788400 -0.04181600 -0.02550100
v -0.12840200 -0.04181600 -0.02563200
v -0.12893700 -0.04181600 -0.02562500
v -0.12945200 -0.04181600 -0.02548000
v -0.12991100 -0.04181600 -0.02520700
v -0.13028400 -0.04181600 -0.02482400
v -0.13054500 -0.04181600 -0.02435700
v -0.13067700 -0.04181600 -0.02383900
v -0.13067000 -0.04181600 -0.02330500
v -0.13052500 -0.04181600 -0.02279000
v -0.13025200 -0.04181600 -0.02233100
v -0.12986900 -0.04181600 -0.02195700
v -0.12940200 -0.04181600 -0.02169600
v -0.12888400 -0.04181600 -0.02156500
v -0.12700200 -0.04181600 -0.02237300
v -0.12674100 -0.04181600 -0.02283900
v -0.12660900 -0.04181600 -0.02335800
v -0.12661600 -0.04181600 -0.02389200
v -0.12834900 -0.04181600 -0.02157200
v -0.12737500 -0.04181600 -0.02199000
v -0.12783500 -0.04181600 -0.02171700
v -0.13069100 -0.04181600 0.00917200
v -0.13062100 -0.04181600 0.00970200
v -0.13041700 -0.04181600 0.01019600
v -0.13009100 -0.04181600 0.01062100
v -0.12966700 -0.04181600 0.01094600
v -0.12917300 -0.04181600 0.01115100
v -0.12864300 -0.04181600 0.01122000
v -0.12811300 -0.04181600 0.01115100
v -0.12761900 -0.04181600 0.01094600
v -0.12719500 -0.04181600 0.01062100
v -0.12686900 -0.04181600 0.01019600
v -0.12666500 -0.04181600 0.00970200
v -0.12659500 -0.04181600 0.00917200
v -0.12666500 -0.04181600 0.00864200
v -0.12686900 -0.04181600 0.00814800
v -0.12917300 -0.04181600 0.00719400
v -0.12864300 -0.04181600 0.00712400
v -0.12966700 -0.04181600 0.00739800
v -0.13009100 -0.04181600 0.00772400
v -0.13041700 -0.04181600 0.00814800
v -0.13062100 -0.04181600 0.00864200
v -0.12719500 -0.04181600 0.00772400
v -0.12811300 -0.04181600 0.00719400
v -0.12761900 -0.04181600 0.00739800
v -0.12686900 -0.04181600 0.04296700
v -0.12666500 -0.04181600 0.04247300
v -0.12659500 -0.04181600 0.04194300
v -0.12666500 -0.04181600 0.04141300
v -0.12686900 -0.04181600 0.04091900
v -0.12719500 -0.04181600 0.04049400
v -0.12761900 -0.04181600 0.04016900
v -0.12811300 -0.04181600 0.03996400
v -0.12864300 -0.04181600 0.03989400
v -0.12917300 -0.04181600 0.03996400
v -0.13062100 -0.04181600 0.04141300
v -0.13069100 -0.04181600 0.04194300
v -0.13062100 -0.04181600 0.04247300
v -0.13041700 -0.04181600 0.04296700
v -0.13009100 -0.04181600 0.04339100
v -0.12966700 -0.04181600 0.04371600
v -0.12917300 -0.04181600 0.04392100
v -0.12864300 -0.04181600 0.04399100
v -0.12811300 -0.04181600 0.04392100
v -0.12761900 -0.04181600 0.04371600
v -0.12719500 -0.04181600 0.04339100
v -0.12966700 -0.04181600 0.04016900
v -0.13041700 -0.04181600 0.04091900
v -0.13009100 -0.04181600 0.04049400
v -0.01401600 -0.04181600 0.04247300
v -0.01394600 -0.04181600 0.04194300
v -0.01401600 -0.04181600 0.04141300
v -0.01422100 -0.04181600 0.04091900
v -0.01454600 -0.04181600 0.04049400
v -0.01497000 -0.04181600 0.04016900
v -0.01546400 -0.04181600 0.03996400
v -0.01599400 -0.04181600 0.03989400
v -0.01652400 -0.04181600 0.03996400
v -0.01701800 -0.04181600 0.04016900
v -0.01744300 -0.04181600 0.04049400
v -0.01776800 -0.04181600 0.04091900
v -0.01797300 -0.04181600 0.04141300
v -0.01804300 -0.04181600 0.04194300
v -0.01797300 -0.04181600 0.04247300
v -0.01776800 -0.04181600 0.04296700
v -0.01744300 -0.04181600 0.04339100
v -0.01497000 -0.04181600 0.04371600
v -0.01546400 -0.04181600 0.04392100
v -0.01454600 -0.04181600 0.04339100
v -0.01422100 -0.04181600 0.04296700
v -0.01701800 -0.04181600 0.04371600
v -0.01599400 -0.04181600 0.04399100
v -0.01652400 -0.04181600 0.04392100
v -0.01710700 -0.04181600 -0.02531800
v -0.01662400 -0.04181600 -0.02554700
v -0.01751400 -0.04181600 -0.02497200
v -0.01781800 -0.04181600 -0.02453200
v -0.01799700 -0.04181600 -0.02402800
v -0.01804000 -0.04181600 -0.02349500
v -0.01642400 -0.04181600 -0.02159600
v -0.01692800 -0.04181600 -0.02177500
v -0.01589100 -0.04181600 -0.02155300
v -0.01536500 -0.04181600 -0.02164900
v -0.01488200 -0.04181600 -0.02187800
v -0.01447500 -0.04181600 -0.02222500
v -0.01417100 -0.04181600 -0.02266500
v -0.01399200 -0.04181600 -0.02316900
v -0.01394900 -0.04181600 -0.02370200
v -0.01404500 -0.04181600 -0.02422800
v -0.01427400 -0.04181600 -0.02471100
v -0.01462100 -0.04181600 -0.02511800
v -0.01506100 -0.04181600 -0.02542200
v -0.01556500 -0.04181600 -0.02560100
v -0.01609800 -0.04181600 -0.02564400
v -0.01794300 -0.04181600 -0.02296900
v -0.01736800 -0.04181600 -0.02207900
v -0.01771400 -0.04181600 -0.02248600
vn -0.57735027 -0.57735027 0.57735027
vn 0.00000000 -1.00000000 0.00000000
vn 0.57735027 -0.57735027 0.57735027
vn 0.00000000 -1.00000000 0.00000000
vn 0.00000000 -1.00000000 0.00000000
vn 0.00000000 -1.00000000 0.00000000
vn 0.00000000 -1.00000000 0.00000000
vn 0.00000000 -1.00000000 0.00000000
vn -0.57735027 -0.57735027 -0.57735027
vn 0.00000000 -1.00000000 0.00000000
vn 0.00000000 -1.00000000 0.00000000
vn 0.00000000 -1.00000000 0.00000000
vn 0.00000000 -1.00000000 0.00000000
vn 0.57735027 -0.57735027 -0.57735027
vn 0.57735027 0.57735027 -0.57735027
vn 0.57735027 0.57735027 0.57735027
vn -0.57735027 0.57735027 0.57735027
vn -0.57735027 0.57735027 -0.57735027
vn 0.00000000 -0.73780080 0.67501851
vn 0.03561054 -0.73782568 0.67405130
vn -0.14014771 -0.73758706 0.66054822
vn -0.30642064 -0.73791300 0.60132420
vn -0.45220211 -0.73769400 0.50131907
vn -0.56633043 -0.73737114 0.36817610
vn -0.64163945 -0.73803309 0.20882046
vn -0.67432630 -0.73760341 0.03500367
vn -0.66054822 -0.73758706 -0.14014771
vn -0.60161144 -0.73778477 -0.30616547
vn -0.50145459 -0.73782220 -0.45184256
vn -0.03561054 -0.73782568 -0.67405130
vn 0.00000000 -1.00000000 0.00000000
vn 0.00000000 -0.73780080 -0.67501851
vn -0.20901274 -0.73760652 -0.64206720
vn -0.36757652 -0.73757524 -0.56645412
vn 0.17507665 -0.73772902 0.65200004
vn 0.33768204 -0.73755894 0.58478856
vn 0.47707595 -0.73764529 0.47778443
vn 0.58446210 -0.73794741 0.33739838
vn 0.65237159 -0.73752007 0.17457222
vn 0.67501851 -0.73780080 0.00000000
vn 0.65237159 -0.73752007 -0.17457222
vn 0.58478437 -0.73780975 -0.33714094
vn 0.47724141 -0.73778291 -0.47740655
vn 0.33768204 -0.73755894 -0.58478856
vn 0.17507665 -0.73772902 -0.65200004
vn -0.17507665 -0.73772902 0.65200004
vn 0.20878715 -0.73750920 0.64225237
vn -0.33742449 -0.73742149 0.58511047
vn 0.36754724 -0.73781949 0.56615495
vn -0.47691393 -0.73796231 0.47745652
vn 0.50171285 -0.73754712 0.45200493
vn -0.58478856 -0.73755894 0.33768204
vn 0.60126144 -0.73769975 0.30705660
vn -0.65192520 -0.73795340 0.17440849
vn 0.66007765 -0.73804320 0.13996334
vn -0.67550841 -0.73735228 0.00000000
vn 0.67450468 -0.73740173 -0.03580690
vn -0.65192520 -0.73795340 -0.17440849
vn 0.64222037 -0.73769035 -0.20824491
vn -0.58511047 -0.73742149 -0.33742449
vn 0.56651280 -0.73767258 -0.36729064
vn -0.47707889 -0.73809991 -0.47707889
vn 0.45131937 -0.73800876 -0.50165117
vn -0.33742449 -0.73742149 -0.58511047
vn 0.30642994 -0.73738519 -0.60196659
vn -0.17507665 -0.73772902 -0.65200004
vn 0.14068138 -0.73780025 -0.66019659
vn 0.17507665 -0.73772902 0.65200004
vn -0.00000000 -0.73780080 0.67501851
vn -0.00000000 -0.73780080 0.67501851
vn -0.17507665 -0.73772902 0.65200004
vn 0.33768204 -0.73755894 0.58478856
vn -0.33742449 -0.73742149 0.58511047
vn 0.47707595 -0.73764529 0.47778443
vn -0.47691393 -0.73796231 0.47745652
vn 0.58446210 -0.73794741 0.33739838
vn -0.58478856 -0.73755894 0.33768204
vn 0.65237159 -0.73752007 0.17457222
vn -0.65200004 -0.73772902 0.17507665
vn 0.67501851 -0.73780080 0.00000000
vn -0.67501851 -0.73780080 0.00000000
vn 0.65237159 -0.73752007 -0.17457222
vn -0.65200004 -0.73772902 -0.17507665
vn 0.58478437 -0.73780975 -0.33714094
vn -0.58511047 -0.73742149 -0.33742449
vn 0.47724141 -0.73778291 -0.47740655
vn -0.47707889 -0.73809991 -0.47707889
vn 0.33768204 -0.73755894 -0.58478856
vn -0.33742449 -0.73742149 -0.58511047
vn 0.17507665 -0.73772902 -0.65200004
vn -0.17507665 -0.73772902 -0.65200004
vn 0.00000000 -0.73780080 -0.67501851
vn -0.00000000 -0.73780080 -0.67501851
vn -0.17507665 -0.73772902 0.65200004
vn -0.33768204 -0.73755894 0.58478856
vn -0.47707595 -0.73764529 0.47778443
vn -0.58446210 -0.73794741 0.33739838
vn -0.65237159 -0.73752007 0.17457222
vn -0.67501851 -0.73780080 0.00000000
vn -0.65237159 -0.73752007 -0.17457222
vn -0.58478437 -0.73780975 -0.33714094
vn -0.47724141 -0.73778291 -0.47740655
vn -0.17507665 -0.73772902 -0.65200004
vn -0.33768204 -0.73755894 -0.58478856
vn 0.17507665 -0.73772902 0.65200004
vn 0.33768204 -0.73755894 0.58478856
vn 0.47729165 -0.73782475 0.47729165
vn 0.58478856 -0.73755894 0.33768204
vn 0.65200004 -0.73772902 0.17507665
vn 0.67501851 -0.73780080 0.00000000
vn 0.65200004 -0.73772902 -0.17507665
vn 0.58511047 -0.73742149 -0.33742449
vn 0.47745652 -0.73796231 -0.47691393
vn 0.33768204 -0.73755894 -0.58478856
vn 0.17507665 -0.73772902 -0.65200004
vn 0.06490107 -0.73793808 0.67174046
vn -0.08288688 -0.73761367 0.67011629
vn -0.25325097 -0.73770439 0.62582440
vn -0.40665102 -0.73772705 0.53888195
vn -0.53234664 -0.73771178 0.41519679
vn -0.62169829 -0.73777246 0.26302670
vn -0.66871635 -0.73767208 0.09305024
vn -0.67011629 -0.73761367 -0.08288688
vn -0.62622923 -0.73750779 -0.25282248
vn -0.53904066 -0.73792373 -0.40608340
vn 0.08215484 -0.73733986 -0.67050766
vn 0.00000000 -1.00000000 0.00000000
vn -0.06490107 -0.73793808 -0.67174046
vn -0.09289813 -0.73761033 -0.66880561
vn -0.26284673 -0.73783253 -0.62170311
vn -0.41519679 -0.73771178 -0.53234664
vn 0.23692364 -0.73754878 0.63236777
vn 0.39217298 -0.73775754 0.54946717
vn 0.52112483 -0.73764895 0.42930518
vn 0.61438660 -0.73780301 0.27959940
vn 0.66609602 -0.73750519 0.11136513
vn 0.67174046 -0.73793808 -0.06490107
vn 0.63236777 -0.73754878 -0.23692364
vn 0.54946717 -0.73775754 -0.39217298
vn 0.11136513 -0.73750519 -0.66609602
vn 0.42930518 -0.73764895 -0.52112483
vn 0.27959940 -0.73780301 -0.61438660
vn 0.09362019 -0.73789023 0.66839604
vn -0.11136513 -0.73750519 0.66609602
vn 0.26368030 -0.73755436 0.62168020
vn -0.27959940 -0.73780301 0.61438660
vn 0.41519679 -0.73771178 0.53234664
vn -0.42930518 -0.73764895 0.52112483
vn 0.53879164 -0.73761558 0.40697276
vn -0.54946717 -0.73775754 0.39217298
vn 0.62559662 -0.73787260 0.25332368
vn -0.63236777 -0.73754878 0.23692364
vn 0.67019591 -0.73755866 0.08273244
vn -0.67174046 -0.73793808 0.06490107
vn 0.66848603 -0.73782809 -0.09346729
vn -0.66609602 -0.73750519 -0.11136513
vn 0.62168530 -0.73761477 -0.26349922
vn -0.61438660 -0.73780301 -0.27959940
vn 0.53234664 -0.73771178 -0.41519679
vn -0.52112483 -0.73764895 -0.42930518
vn 0.40697276 -0.73761558 -0.53879164
vn -0.39217298 -0.73775754 -0.54946717
vn 0.25266763 -0.73809164 -0.62560355
vn -0.23692364 -0.73754878 -0.63236777
vn -0.00000000 -0.73735228 0.67550841
vn -0.09362019 -0.73789023 0.66839604
vn 0.08273735 -0.73755697 0.67019717
vn 0.17440849 -0.73795340 0.65192520
vn -0.26409761 -0.73774911 0.62127185
vn 0.33768204 -0.73755894 0.58478856
vn -0.41575631 -0.73751705 0.53217975
vn 0.47724141 -0.73778291 0.47740655
vn -0.53895095 -0.73781244 0.40640458
vn 0.58478437 -0.73780975 0.33714094
vn -0.62600211 -0.73767572 0.25289502
vn 0.65237159 -0.73752007 0.17457222
vn -0.67019591 -0.73755866 0.08273244
vn 0.67501851 -0.73780080 -0.00000000
vn -0.66848603 -0.73782809 -0.09346729
vn 0.65237159 -0.73752007 -0.17457222
vn -0.62144473 -0.73772955 -0.26374525
vn 0.58446210 -0.73794741 -0.33739838
vn -0.53183960 -0.73775547 -0.41576858
vn 0.47756888 -0.73746589 -0.47756888
vn -0.40672384 -0.73745716 -0.53919630
vn 0.33739838 -0.73794741 -0.58446210
vn -0.25349364 -0.73781588 -0.62559468
vn 0.17457222 -0.73752007 -0.65237159
vn -0.08223052 -0.73783970 -0.66994830
vn 0.00000000 -0.73780080 -0.67501851
vn -0.17440849 -0.73795340 0.65192520
vn -0.33768204 -0.73755894 0.58478856
vn -0.47724141 -0.73778291 0.47740655
vn -0.58478437 -0.73780975 0.33714094
vn -0.65237159 -0.73752007 0.17457222
vn -0.67501851 -0.73780080 -0.00000000
vn -0.65237159 -0.73752007 -0.17457222
vn -0.58446210 -0.73794741 -0.33739838
vn -0.47756888 -0.73746589 -0.47756888
vn -0.17457222 -0.73752007 -0.65237159
vn -0.33739838 -0.73794741 -0.58446210
vn 0.25332368 -0.73787260 0.62559662
vn 0.40671919 -0.73745420 0.53920387
vn 0.53193032 -0.73787324 0.41544340
vn 0.62168530 -0.73761477 0.26349922
vn 0.66864326 -0.73760164 0.09412762
vn 0.66971561 -0.73800389 -0.08265140
vn 0.62599452 -0.73745707 -0.25355065
vn 0.53895095 -0.73781244 -0.40640458
vn 0.09427927 -0.73766417 -0.66855290
vn 0.41519679 -0.73771178 -0.53234664
vn 0.26368030 -0.73755436 -0.62168020
vn 0.17507665 -0.73772902 0.65200004
vn -0.08535174 -0.73760041 0.66982141
vn -0.00000000 -0.73780080 0.67501851
vn -0.25590270 -0.73788283 0.62453401
vn 0.33742449 -0.73742149 0.58511047
vn -0.40918066 -0.73759119 0.53715028
vn 0.47691393 -0.73796231 0.47745652
vn -0.53401253 -0.73773593 0.41300886
vn 0.58478856 -0.73755894 0.33768204
vn -0.62278991 -0.73776403 0.26045530
vn 0.65192520 -0.73795340 0.17440849
vn -0.66912384 -0.73762793 0.09043411
vn 0.67554021 -0.73732315 0.00008144
vn -0.66950759 -0.73781823 -0.08592933
vn 0.65191540 -0.73798257 -0.17432166
vn -0.62492993 -0.73746785 -0.25613230
vn 0.58478856 -0.73755894 -0.33768204
vn -0.53690361 -0.73794691 -0.40886291
vn 0.47691393 -0.73796231 -0.47745652
vn -0.41276338 -0.73757662 -0.53442223
vn 0.33742449 -0.73742149 -0.58511047
vn -0.26045530 -0.73776403 -0.62278991
vn 0.17507665 -0.73772902 -0.65200004
vn -0.09043411 -0.73762793 -0.66912384
vn 0.08592933 -0.73781823 -0.66950759
vn 0.00000000 -0.73780080 -0.67501851
vn -0.17507665 -0.73772902 0.65200004
vn -0.33768204 -0.73755894 0.58478856
vn -0.47707595 -0.73764529 0.47778443
vn -0.58446210 -0.73794741 0.33739838
vn -0.65237159 -0.73752007 0.17457222
vn -0.67505082 -0.73777123 0.00008252
vn -0.65236174 -0.73754963 -0.17448413
vn -0.58446210 -0.73794741 -0.33739838
vn -0.47707595 -0.73764529 -0.47778443
vn -0.17507665 -0.73772902 -0.65200004
vn -0.33768204 -0.73755894 -0.58478856
vn 0.09028165 -0.73756797 0.66921051
vn 0.26027814 -0.73782316 0.62279393
vn 0.41301081 -0.73773720 0.53400926
vn 0.53715353 -0.73758992 0.40917868
vn 0.62452348 -0.73766414 0.25655806
vn 0.66950759 -0.73781823 0.08592933
vn 0.66912384 -0.73762793 -0.09043411
vn 0.62238243 -0.73795939 -0.26087555
vn 0.53425735 -0.73738141 -0.41332522
vn 0.40886291 -0.73794691 -0.53690361
vn 0.25613230 -0.73746785 -0.62492993
vn 0.03375474 -0.73760644 0.67438665
vn -0.07903307 -0.73757765 0.67062134
vn -0.24957886 -0.73771700 0.62728305
vn -0.40387218 -0.73795063 0.54066268
vn -0.53057836 -0.73756980 0.41770490
vn -0.62033850 -0.73773869 0.26631141
vn -0.66822220 -0.73764477 0.09674336
vn -0.67030920 -0.73779993 -0.07960431
vn -0.62727895 -0.73749772 -0.25023634
vn -0.54107467 -0.73778874 -0.40361614
vn 0.07903307 -0.73757765 -0.67062134
vn -0.03436253 -0.73782886 -0.67411259
vn -0.09673471 -0.73764773 -0.66822019
vn -0.26631141 -0.73773869 -0.62033850
vn -0.41795038 -0.73773162 -0.53015991
vn 0.20698262 -0.73774959 0.64256029
vn 0.36669077 -0.73787687 0.56663534
vn 0.50112165 -0.73750781 0.45272434
vn 0.60084359 -0.73788602 0.30742675
vn 0.66030604 -0.73757481 0.14134829
vn 0.67438665 -0.73760644 -0.03375474
vn 0.64256029 -0.73774959 -0.20698262
vn 0.56663534 -0.73787687 -0.36669077
vn 0.14134829 -0.73757481 -0.66030604
vn 0.45272434 -0.73750781 -0.50112165
vn 0.30742675 -0.73788602 -0.60084359
vn 0.09689463 -0.73770910 0.66812927
vn -0.14134829 -0.73757481 0.66030604
vn 0.26624860 -0.73756177 0.62057579
vn -0.30742675 -0.73788602 0.60084359
vn 0.41761884 -0.73784721 0.53026031
vn -0.45295493 -0.73768004 0.50065956
vn 0.54098700 -0.73767827 0.40393543
vn -0.56705455 -0.73770457 0.36638929
vn 0.62705376 -0.73766390 0.25031089
vn -0.64260086 -0.73752720 0.20764815
vn 0.67038806 -0.73774416 0.07945694
vn -0.67411259 -0.73782886 0.03436253
vn 0.66822220 -0.73764477 -0.09674336
vn -0.66030604 -0.73757481 -0.14134829
vn 0.61992893 -0.73793317 -0.26672600
vn -0.60084359 -0.73788602 -0.30742675
vn 0.52999043 -0.73753722 -0.41850806
vn -0.50065956 -0.73768004 -0.45295493
vn 0.40450583 -0.73748096 -0.54082980
vn -0.36638929 -0.73770457 -0.56705455
vn 0.25025216 -0.73802492 -0.62665227
vn -0.20764815 -0.73752720 -0.64260086
vn 0.57735027 0.57735027 -0.57735027
vn -0.57735027 -0.57735027 -0.57735027
vn -0.70710678 -0.00000000 -0.70710678
vn 0.57735027 -0.57735027 -0.57735027
vn 0.57735027 0.57735027 -0.57735027
vn -0.66666667 0.33333333 -0.66666667
vn 0.70710678 0.00000000 -0.70710678
vn -0.57735027 0.57735027 -0.57735027
vn 0.66666667 -0.33333333 -0.66666667
vn 0.30151134 -0.30151134 -0.90453403
vn 0.00000000 -0.70710678 -0.70710678
vn -0.30151134 -0.30151134 -0.90453403
vn -0.30151134 0.30151134 -0.90453403
vn -1.00000000 0.00000000 0.00000000
vn 0.30151134 0.30151134 -0.90453403
vn 0.00000000 0.70710678 -0.70710678
vn 0.57735027 0.57735027 -0.57735027
vn -0.57735027 0.57735027 -0.57735027
vn 0.57735027 0.57735027 -0.57735027
vn -0.57735027 0.57735027 -0.57735027
vn 0.27838955 -0.67907245 -0.67923476
vn 0.44496532 -0.67866444 -0.58431194
vn 0.09348448 -0.67877394 -0.72837257
vn -0.09833496 -0.67893601 -0.72758239
vn -0.28331394 -0.67882008 -0.67744853
vn -0.44876283 -0.67897973 -0.58103223
vn -0.58431194 -0.67866444 -0.44496532
vn -0.67923476 -0.67907245 -0.27838955
vn -0.72837257 -0.67877394 -0.09348448
vn -0.72758239 -0.67893601 0.09833496
vn -0.67744853 -0.67882008 0.28331394
vn -0.58083576 -0.67884401 0.44922226
vn -0.44488508 -0.67896731 0.58402111
vn -0.27845078 -0.67871895 0.67956291
vn -0.09280169 -0.67895946 0.72828696
vn 0.58402265 -0.67896839 0.44488141
vn 0.67915167 -0.67890515 0.27899965
vn 0.72837257 -0.67877394 0.09348448
vn 0.72758239 -0.67893601 -0.09833496
vn 0.67736125 -0.67865382 -0.28392027
vn 0.58054789 -0.67914618 -0.44913763
vn 0.09815334 -0.67898710 0.72755924
vn 0.44922592 -0.67884292 0.58083419
vn 0.28316628 -0.67876974 0.67756070
vn 0.07063013 -0.67867195 0.73103746
vn -0.12105464 -0.67904062 0.72405083
vn 0.25756779 -0.67900346 0.68746864
vn 0.42658425 -0.67882560 0.59768024
vn 0.56668539 -0.67891809 0.46683818
vn 0.66837782 -0.67878689 0.30417010
vn 0.72405083 -0.67904062 0.12105464
vn 0.73103746 -0.67867195 -0.07063013
vn 0.68746864 -0.67900346 -0.25756779
vn 0.59768024 -0.67882560 -0.42658425
vn 0.46683818 -0.67891809 -0.56668539
vn 0.30417010 -0.67878689 -0.66837782
vn 0.12105464 -0.67904062 -0.72405083
vn -0.07063013 -0.67867195 -0.73103746
vn -0.25756779 -0.67900346 -0.68746864
vn -0.42658425 -0.67882560 -0.59768024
vn -0.56668539 -0.67891809 -0.46683818
vn -0.66837782 -0.67878689 -0.30417010
vn -0.72405083 -0.67904062 -0.12105464
vn -0.73103746 -0.67867195 0.07063013
vn -0.68746864 -0.67900346 0.25756779
vn -0.59768024 -0.67882560 0.42658425
vn -0.30417010 -0.67878689 0.66837782
vn -0.46683818 -0.67891809 0.56668539
vn -0.72722570 -0.67889839 0.10119167
vn -0.67627644 -0.67881290 0.28611750
vn -0.57898618 -0.67886457 0.45157269
vn -0.44229638 -0.67885157 0.58611813
vn -0.27543312 -0.67887087 0.68064010
vn -0.09012491 -0.67894816 0.72863358
vn 0.10187127 -0.67871266 0.72730418
vn 0.28666018 -0.67899870 0.67585997
vn 0.45157269 -0.67886457 0.57898618
vn 0.58584414 -0.67894653 0.44251356
vn 0.68070041 -0.67872766 0.27563693
vn 0.72861230 -0.67899503 0.08994366
vn 0.72728049 -0.67876554 -0.10168789
vn 0.08926314 -0.67918163 -0.72852207
vn 0.27508516 -0.67854136 -0.68110923
vn -0.10100947 -0.67895100 -0.72720192
vn -0.28596795 -0.67876176 -0.67639101
vn -0.45157269 -0.67886457 -0.57898618
vn -0.58660112 -0.67868415 -0.44191282
vn -0.68072014 -0.67903840 -0.27482166
vn -0.72863358 -0.67894816 -0.09012491
vn 0.67597541 -0.67894722 -0.28650990
vn 0.44251356 -0.67894653 -0.58584414
vn 0.57898618 -0.67886457 -0.45157269
vn 0.51878032 -0.67892121 0.51955073
vn 0.63607070 -0.67866401 0.36719100
vn 0.70916069 -0.67902793 0.18976877
vn 0.73433357 -0.67878878 0.00000000
vn 0.70916069 -0.67902793 -0.18976877
vn 0.63618573 -0.67878115 -0.36677495
vn 0.51915246 -0.67880401 -0.51933211
vn 0.36711574 -0.67899480 -0.63576104
vn 0.19042416 -0.67884989 -0.70915546
vn 0.00000000 -0.67878878 -0.73433357
vn -0.19042416 -0.67884989 -0.70915546
vn -0.36670007 -0.67911199 -0.63587574
vn -0.51941850 -0.67853433 -0.51941850
vn -0.63587574 -0.67911199 -0.36670007
vn -0.70950228 -0.67865891 -0.18981199
vn -0.73398005 -0.67917103 0.00000000
vn -0.70950228 -0.67865891 0.18981199
vn -0.63576104 -0.67899480 0.36711574
vn -0.51904672 -0.67865133 0.51963725
vn -0.36670007 -0.67911199 0.63587574
vn -0.19042416 -0.67884989 0.70915546
vn 0.00000000 -0.67878878 0.73433357
vn 0.36711574 -0.67899480 0.63576104
vn 0.19042416 -0.67884989 0.70915546
vn 0.57735027 -0.57735027 -0.57735027
vn -0.90453403 -0.30151134 -0.30151134
vn 0.30151134 -0.90453403 -0.30151134
vn 0.57735027 -0.57735027 -0.57735027
vn -0.57735027 -0.57735027 -0.57735027
vn -0.57735027 -0.57735027 -0.57735027
vn 0.57735027 -0.57735027 -0.57735027
vn -0.57735027 0.57735027 -0.57735027
vn 0.57735027 0.57735027 -0.57735027
vn -0.57735027 -0.57735027 -0.57735027
vn -0.30151134 -0.90453403 -0.30151134
vn 0.30151134 0.90453403 -0.30151134
vn -0.57735027 -0.57735027 -0.57735027
vn -0.30151134 0.90453403 -0.30151134
vn 0.57735027 -0.57735027 -0.57735027
vn 0.57735027 0.57735027 -0.57735027
vn -0.57735027 0.57735027 -0.57735027
vn -0.57735027 -0.57735027 -0.57735027
vn 0.57735027 -0.57735027 -0.57735027
vn 0.90453403 -0.30151134 -0.30151134
vn 0.67597541 -0.67894722 0.28650990
vn 0.72700840 -0.67895840 0.10234391
vn 0.72896294 -0.67861597 -0.08996328
vn 0.68037212 -0.67908165 -0.27557557
vn 0.58632788 -0.67877887 -0.44212992
vn 0.45157269 -0.67886457 -0.57898618
vn 0.28666018 -0.67899870 -0.67585997
vn 0.10252606 -0.67890512 -0.72703249
vn -0.08946563 -0.67875566 -0.72889413
vn -0.27577977 -0.67877594 -0.68059441
vn -0.44205440 -0.67908157 -0.58603424
vn -0.57850271 -0.67882737 -0.45224773
vn -0.68078085 -0.67889529 0.27502477
vn -0.58632788 -0.67877887 0.44212992
vn -0.45194433 -0.67903051 0.57850143
vn -0.28726437 -0.67883279 0.67577010
vn -0.10187127 -0.67871266 0.72730418
vn 0.08994859 -0.67899647 0.72861035
vn 0.27563693 -0.67872766 0.68070041
vn 0.44204581 -0.67908409 0.58603779
vn 0.57878479 -0.67872711 0.45203725
vn -0.67592258 -0.67884944 -0.28686601
vn -0.72861230 -0.67899503 0.08994366
vn -0.72728049 -0.67876554 -0.10168789
vn 0.22695548 -0.67903720 0.69814017
vn 0.03874230 -0.67876759 0.73333048
vn 0.39986438 -0.67877286 0.61593497
vn 0.73298697 -0.67912885 -0.03891150
vn 0.69844580 -0.67888282 -0.22647643
vn 0.61608068 -0.67889796 -0.39942728
vn 0.49125240 -0.67861183 -0.54603760
vn 0.33298384 -0.67914295 -0.65413042
vn 0.15304307 -0.67878924 -0.71820818
vn -0.03874230 -0.67876759 -0.73333048
vn -0.22726022 -0.67895424 -0.69812171
vn -0.39963348 -0.67898090 -0.61585552
vn -0.54554971 -0.67877055 -0.49157507
vn -0.65444789 -0.67880242 -0.33305441
vn -0.71817856 -0.67897083 -0.15237507
vn -0.73319098 -0.67895690 0.03805928
vn -0.69845784 -0.67859114 0.22731191
vn -0.61538292 -0.67915494 0.40006553
vn -0.49179655 -0.67887972 0.54521416
vn -0.33344702 -0.67869329 0.65436115
vn -0.15237507 -0.67897083 0.71817856
vn 0.54542679 -0.67900487 0.49138784
vn 0.71854833 -0.67858254 0.15236151
vn 0.65391752 -0.67887482 0.33394739
vn -0.36711574 -0.67899480 0.63576104
vn -0.51878032 -0.67892121 0.51955073
vn -0.19042416 -0.67884989 0.70915546
vn 0.00000000 -0.67878878 0.73433357
vn 0.19042416 -0.67884989 0.70915546
vn 0.36670007 -0.67911199 0.63587574
vn 0.51904672 -0.67865133 0.51963725
vn 0.63576104 -0.67899480 0.36711574
vn 0.70950228 -0.67865891 0.18981199
vn 0.73395704 -0.67919589 0.00008848
vn 0.70954731 -0.67863410 -0.18973238
vn 0.63576104 -0.67899480 -0.36711574
vn 0.51904672 -0.67865133 -0.51963725
vn 0.36670007 -0.67911199 -0.63587574
vn 0.19042416 -0.67884989 -0.70915546
vn -0.00000000 -0.67878878 -0.73433357
vn -0.63607070 -0.67866401 -0.36719100
vn -0.70920639 -0.67900273 -0.18968810
vn -0.73431030 -0.67881395 0.00008976
vn -0.70916069 -0.67902793 0.18976877
vn -0.63607070 -0.67866401 0.36719100
vn -0.19042416 -0.67884989 -0.70915546
vn -0.51878032 -0.67892121 -0.51955073
vn -0.36711574 -0.67899480 -0.63576104
vn 0.67464343 -0.67867612 -0.29026705
vn 0.57615281 -0.67901331 -0.45496029
vn 0.43967188 -0.67906127 -0.58784728
vn 0.27240648 -0.67859808 -0.68212854
vn 0.08592624 -0.67897885 -0.72911207
vn -0.10519162 -0.67891913 -0.72663852
vn -0.28966425 -0.67884166 -0.67473597
vn -0.45459180 -0.67884767 -0.57663865
vn -0.58860075 -0.67879904 -0.43906835
vn -0.68184273 -0.67904698 -0.27200311
vn -0.72920874 -0.67878952 -0.08659908
vn -0.72663492 -0.67892165 0.10520019
vn -0.67473597 -0.67884166 0.28966425
vn -0.57684254 -0.67898554 0.45412699
vn -0.43953831 -0.67866127 0.58840883
vn -0.27144858 -0.67886013 0.68224966
vn -0.08592624 -0.67897885 0.72911207
vn 0.58833047 -0.67889312 0.43928509
vn 0.68190284 -0.67890536 0.27220586
vn 0.72918510 -0.67883700 0.08642579
vn 0.72663492 -0.67892165 -0.10520019
vn 0.10538292 -0.67886686 0.72665964
vn 0.45437249 -0.67874927 0.57692726
vn 0.28945809 -0.67899238 0.67467278
vn -0.73433357 -0.67878878 -0.00000000
vn -0.70916069 -0.67902793 0.18976877
vn -0.63618573 -0.67878115 0.36677495
vn -0.51915246 -0.67880401 0.51933211
vn -0.36711574 -0.67899480 0.63576104
vn -0.18981199 -0.67865891 0.70950228
vn 0.00000000 -0.67917103 0.73398005
vn 0.18981199 -0.67865891 0.70950228
vn 0.36711574 -0.67899480 0.63576104
vn 0.51915246 -0.67880401 0.51933211
vn 0.63618573 -0.67878115 0.36677495
vn 0.70916069 -0.67902793 0.18976877
vn 0.73433357 -0.67878878 -0.00000000
vn 0.70916069 -0.67902793 -0.18976877
vn 0.63607070 -0.67866401 -0.36719100
vn -0.18976877 -0.67902793 -0.70916069
vn -0.00000000 -0.67878878 -0.73433357
vn -0.36719100 -0.67866401 -0.63607070
vn -0.51906567 -0.67907413 -0.51906567
vn -0.63607070 -0.67866401 -0.36719100
vn -0.70916069 -0.67902793 -0.18976877
vn 0.51906567 -0.67907413 -0.51906567
vn 0.18976877 -0.67902793 -0.70916069
vn 0.36719100 -0.67866401 -0.63607070
vn 0.63607070 -0.67866401 0.36719100
vn 0.70916069 -0.67902793 0.18976877
vn 0.73433357 -0.67878878 0.00000000
vn 0.70916069 -0.67902793 -0.18976877
vn 0.63618573 -0.67878115 -0.36677495
vn 0.51915246 -0.67880401 -0.51933211
vn 0.36711574 -0.67899480 -0.63576104
vn 0.19042416 -0.67884989 -0.70915546
vn -0.00000000 -0.67878878 -0.73433357
vn -0.19042416 -0.67884989 -0.70915546
vn -0.70916069 -0.67902793 -0.18976877
vn -0.73433357 -0.67878878 0.00000000
vn -0.70916069 -0.67902793 0.18976877
vn -0.63607070 -0.67866401 0.36719100
vn -0.51878032 -0.67892121 0.51955073
vn -0.36711574 -0.67899480 0.63576104
vn -0.19042416 -0.67884989 0.70915546
vn 0.00000000 -0.67878878 0.73433357
vn 0.19042416 -0.67884989 0.70915546
vn 0.36711574 -0.67899480 0.63576104
vn 0.51878032 -0.67892121 0.51955073
vn -0.36711574 -0.67899480 -0.63576104
vn -0.63618573 -0.67878115 -0.36677495
vn -0.51915246 -0.67880401 -0.51933211
vn 0.70915546 -0.67884989 0.19042416
vn 0.73433357 -0.67878878 0.00000000
vn 0.70915546 -0.67884989 -0.19042416
vn 0.63587574 -0.67911199 -0.36670007
vn 0.51963725 -0.67865133 -0.51904672
vn 0.36711574 -0.67899480 -0.63576104
vn 0.19042416 -0.67884989 -0.70915546
vn -0.00000000 -0.67878878 -0.73433357
vn -0.19042416 -0.67884989 -0.70915546
vn -0.36670007 -0.67911199 -0.63587574
vn -0.51941850 -0.67853433 -0.51941850
vn -0.63587574 -0.67911199 -0.36670007
vn -0.70915546 -0.67884989 -0.19042416
vn -0.73433357 -0.67878878 0.00000000
vn -0.70915546 -0.67884989 0.19042416
vn -0.63576104 -0.67899480 0.36711574
vn -0.51904672 -0.67865133 0.51963725
vn 0.36711574 -0.67899480 0.63576104
vn 0.19042416 -0.67884989 0.70915546
vn 0.51926558 -0.67876838 0.51926558
vn 0.63576104 -0.67899480 0.36711574
vn -0.36670007 -0.67911199 0.63587574
vn -0.00000000 -0.67878878 0.73433357
vn -0.19042416 -0.67884989 0.70915546
vn -0.39848136 -0.67887072 -0.61672292
vn -0.22572831 -0.67902185 -0.69855283
vn -0.54447644 -0.67889161 -0.49259678
vn -0.65379068 -0.67871624 -0.33451758
vn -0.71789159 -0.67898127 -0.15367533
vn -0.73340344 -0.67876488 0.03738485
vn -0.15367533 -0.67898127 0.71789159
vn -0.33451758 -0.67871624 0.65379068
vn 0.03670163 -0.67895432 0.73326259
vn 0.22513953 -0.67883237 0.69892690
vn 0.39899419 -0.67872403 0.61655277
vn 0.54472643 -0.67903839 0.49211786
vn 0.65379068 -0.67871624 0.33451758
vn 0.71789159 -0.67898127 0.15367533
vn 0.73326259 -0.67895432 -0.03670163
vn 0.69892690 -0.67883237 -0.22513953
vn 0.61655277 -0.67872403 -0.39899419
vn 0.49211786 -0.67903839 -0.54472643
vn 0.33451758 -0.67871624 -0.65379068
vn 0.15367533 -0.67898127 -0.71789159
vn -0.03738485 -0.67876488 -0.73340344
vn -0.69855283 -0.67902185 0.22572831
vn -0.49259678 -0.67889161 0.54447644
vn -0.61672292 -0.67887072 0.39848136
f 1//1 2//2 3//3
f 1//1 4//4 2//2
f 1//1 5//5 4//4
f 1//1 6//6 5//5
f 6//6 7//7 8//8
f 6//6 9//9 7//7
f 9//9 6//6 1//1
f 10//10 3//3 2//2
f 11//11 3//3 10//10
f 12//12 3//3 11//11
f 13//13 3//3 12//12
f 7//7 3//3 13//13
f 7//7 14//14 3//3
f 14//14 7//7 9//9
f 3//3 15//15 16//16
f 15//15 3//3 14//14
f 15//15 17//17 16//16
f 17//17 15//15 18//18
f 17//17 3//3 16//16
f 3//3 17//17 1//1
f 9//9 17//17 18//18
f 17//17 9//9 1//1
f 10//10 19//19 11//11
f 10//10 20//20 19//19
f 10//10 21//21 20//20
f 10//10 22//22 21//21
f 10//10 23//23 22//22
f 10//10 24//24 23//23
f 10//10 25//25 24//24
f 10//10 26//26 25//25
f 10//10 27//27 26//26
f 10//10 28//28 27//27
f 10//10 29//29 28//28
f 30//30 31//31 32//32
f 33//33 31//31 30//30
f 34//34 31//31 33//33
f 29//29 31//31 34//34
f 31//31 29//29 10//10
f 35//35 11//11 19//19
f 36//36 11//11 35//35
f 37//37 11//11 36//36
f 38//38 11//11 37//37
f 39//39 11//11 38//38
f 40//40 11//11 39//39
f 41//41 11//11 40//40
f 42//42 11//11 41//41
f 43//43 11//11 42//42
f 43//43 12//12 11//11
f 44//44 12//12 43//43
f 45//45 12//12 44//44
f 32//32 12//12 45//45
f 12//12 32//32 31//31
f 20//20 46//46 19//19
f 47//47 46//46 20//20
f 47//47 48//48 46//46
f 49//49 48//48 47//47
f 49//49 50//50 48//48
f 51//51 50//50 49//49
f 51//51 52//52 50//50
f 53//53 52//52 51//51
f 53//53 54//54 52//52
f 55//55 54//54 53//53
f 55//55 56//56 54//54
f 57//57 56//56 55//55
f 57//57 58//58 56//56
f 59//59 58//58 57//57
f 59//59 60//60 58//58
f 61//61 60//60 59//59
f 61//61 62//62 60//60
f 63//63 62//62 61//61
f 63//63 64//64 62//62
f 65//65 64//64 63//63
f 65//65 66//66 64//64
f 67//67 66//66 65//65
f 30//30 66//66 67//67
f 66//66 30//30 32//32
f 68//68 69//69 70//70
f 68//68 71//71 69//69
f 72//72 71//71 68//68
f 72//72 73//73 71//71
f 74//74 73//73 72//72
f 74//74 75//75 73//73
f 76//76 75//75 74//74
f 76//76 77//77 75//75
f 78//78 77//77 76//76
f 78//78 79//79 77//77
f 80//80 79//79 78//78
f 80//80 81//81 79//79
f 82//82 81//81 80//80
f 82//82 83//83 81//81
f 84//84 83//83 82//82
f 84//84 85//85 83//83
f 86//86 85//85 84//84
f 86//86 87//87 85//85
f 88//88 87//87 86//86
f 88//88 89//89 87//87
f 90//90 89//89 88//88
f 90//90 91//91 89//89
f 92//92 91//91 90//90
f 91//91 92//92 93//93
f 2//2 70//70 10//10
f 2//2 94//94 70//70
f 2//2 95//95 94//94
f 2//2 96//96 95//95
f 2//2 97//97 96//96
f 2//2 98//98 97//97
f 2//2 99//99 98//98
f 2//2 100//100 99//99
f 2//2 101//101 100//100
f 2//2 102//102 101//101
f 92//92 4//4 93//93
f 103//103 4//4 92//92
f 104//104 4//4 103//103
f 102//102 4//4 104//104
f 4//4 102//102 2//2
f 69//69 10//10 70//70
f 105//105 10//10 69//69
f 106//106 10//10 105//105
f 107//107 10//10 106//106
f 108//108 10//10 107//107
f 109//109 10//10 108//108
f 110//110 10//10 109//109
f 111//111 10//10 110//110
f 112//112 10//10 111//111
f 113//113 10//10 112//112
f 113//113 31//31 10//10
f 114//114 31//31 113//113
f 115//115 31//31 114//114
f 93//93 31//31 115//115
f 31//31 93//93 4//4
f 31//31 116//116 12//12
f 31//31 117//117 116//116
f 31//31 118//118 117//117
f 31//31 119//119 118//118
f 31//31 120//120 119//119
f 31//31 121//121 120//120
f 31//31 122//122 121//121
f 31//31 123//123 122//122
f 31//31 124//124 123//123
f 31//31 125//125 124//124
f 126//126 127//127 128//128
f 129//129 127//127 126//126
f 130//130 127//127 129//129
f 131//131 127//127 130//130
f 125//125 127//127 131//131
f 127//127 125//125 31//31
f 132//132 12//12 116//116
f 133//133 12//12 132//132
f 134//134 12//12 133//133
f 135//135 12//12 134//134
f 136//136 12//12 135//135
f 137//137 12//12 136//136
f 138//138 12//12 137//137
f 139//139 12//12 138//138
f 127//127 140//140 128//128
f 139//139 13//13 12//12
f 141//141 13//13 139//139
f 142//142 13//13 141//141
f 140//140 13//13 142//142
f 13//13 140//140 127//127
f 143//143 116//116 117//117
f 143//143 144//144 116//116
f 145//145 144//144 143//143
f 145//145 146//146 144//144
f 147//147 146//146 145//145
f 147//147 148//148 146//146
f 149//149 148//148 147//147
f 149//149 150//150 148//148
f 151//151 150//150 149//149
f 151//151 152//152 150//150
f 153//153 152//152 151//151
f 153//153 154//154 152//152
f 155//155 154//154 153//153
f 155//155 156//156 154//154
f 157//157 156//156 155//155
f 157//157 158//158 156//156
f 159//159 158//158 157//157
f 159//159 160//160 158//158
f 161//161 160//160 159//159
f 161//161 162//162 160//160
f 163//163 162//162 161//161
f 163//163 164//164 162//162
f 126//126 164//164 163//163
f 164//164 126//126 128//128
f 165//165 166//166 167//167
f 168//168 166//166 165//165
f 168//168 169//169 166//166
f 170//170 169//169 168//168
f 170//170 171//171 169//169
f 172//172 171//171 170//170
f 172//172 173//173 171//171
f 174//174 173//173 172//172
f 174//174 175//175 173//173
f 176//176 175//175 174//174
f 176//176 177//177 175//175
f 178//178 177//177 176//176
f 178//178 179//179 177//177
f 180//180 179//179 178//178
f 180//180 181//181 179//179
f 182//182 181//181 180//180
f 182//182 183//183 181//181
f 184//184 183//183 182//182
f 184//184 185//185 183//183
f 186//186 185//185 184//184
f 186//186 187//187 185//185
f 188//188 187//187 186//186
f 188//188 189//189 187//187
f 189//189 188//188 190//190
f 4//4 165//165 31//31
f 4//4 191//191 165//165
f 4//4 192//192 191//191
f 4//4 193//193 192//192
f 4//4 194//194 193//193
f 4//4 195//195 194//194
f 4//4 196//196 195//195
f 4//4 197//197 196//196
f 4//4 198//198 197//197
f 4//4 199//199 198//198
f 200//200 5//5 190//190
f 201//201 5//5 200//200
f 199//199 5//5 201//201
f 5//5 199//199 4//4
f 167//167 31//31 165//165
f 202//202 31//31 167//167
f 203//203 31//31 202//202
f 204//204 31//31 203//203
f 205//205 31//31 204//204
f 206//206 31//31 205//205
f 207//207 31//31 206//206
f 208//208 31//31 207//207
f 209//209 31//31 208//208
f 5//5 189//189 190//190
f 5//5 210//210 189//189
f 209//209 127//127 31//31
f 211//211 127//127 209//209
f 212//212 127//127 211//211
f 210//210 127//127 212//212
f 127//127 210//210 5//5
f 213//213 214//214 215//215
f 213//213 216//216 214//214
f 217//217 216//216 213//213
f 217//217 218//218 216//216
f 219//219 218//218 217//217
f 219//219 220//220 218//218
f 221//221 220//220 219//219
f 221//221 222//222 220//220
f 223//223 222//222 221//221
f 223//223 224//224 222//222
f 225//225 224//224 223//223
f 225//225 226//226 224//224
f 227//227 226//226 225//225
f 227//227 228//228 226//226
f 229//229 228//228 227//227
f 229//229 230//230 228//228
f 231//231 230//230 229//229
f 231//231 232//232 230//230
f 233//233 232//232 231//231
f 233//233 234//234 232//232
f 235//235 234//234 233//233
f 235//235 236//236 234//234
f 235//235 237//237 236//236
f 237//237 235//235 238//238
f 127//127 215//215 13//13
f 127//127 239//239 215//215
f 127//127 240//240 239//239
f 127//127 241//241 240//240
f 127//127 242//242 241//241
f 127//127 243//243 242//242
f 127//127 244//244 243//243
f 127//127 245//245 244//244
f 127//127 246//246 245//245
f 127//127 247//247 246//246
f 248//248 8//8 238//238
f 249//249 8//8 248//248
f 247//247 8//8 249//249
f 8//8 247//247 127//127
f 214//214 13//13 215//215
f 250//250 13//13 214//214
f 251//251 13//13 250//250
f 252//252 13//13 251//251
f 253//253 13//13 252//252
f 254//254 13//13 253//253
f 255//255 13//13 254//254
f 256//256 13//13 255//255
f 257//257 13//13 256//256
f 258//258 13//13 257//257
f 8//8 237//237 238//238
f 258//258 7//7 13//13
f 259//259 7//7 258//258
f 260//260 7//7 259//259
f 237//237 7//7 260//260
f 7//7 237//237 8//8
f 5//5 261//261 127//127
f 5//5 262//262 261//261
f 5//5 263//263 262//262
f 5//5 264//264 263//263
f 5//5 265//265 264//264
f 5//5 266//266 265//265
f 5//5 267//267 266//266
f 5//5 268//268 267//267
f 5//5 269//269 268//268
f 5//5 270//270 269//269
f 271//271 6//6 272//272
f 273//273 6//6 271//271
f 274//274 6//6 273//273
f 275//275 6//6 274//274
f 270//270 6//6 275//275
f 6//6 270//270 5//5
f 276//276 127//127 261//261
f 277//277 127//127 276//276
f 278//278 127//127 277//277
f 279//279 127//127 278//278
f 280//280 127//127 279//279
f 281//281 127//127 280//280
f 282//282 127//127 281//281
f 283//283 127//127 282//282
f 6//6 284//284 272//272
f 283//283 8//8 127//127
f 285//285 8//8 283//283
f 286//286 8//8 285//285
f 284//284 8//8 286//286
f 8//8 284//284 6//6
f 287//287 261//261 262//262
f 287//287 288//288 261//261
f 289//289 288//288 287//287
f 289//289 290//290 288//288
f 291//291 290//290 289//289
f 291//291 292//292 290//290
f 293//293 292//292 291//291
f 293//293 294//294 292//292
f 295//295 294//294 293//293
f 295//295 296//296 294//294
f 297//297 296//296 295//295
f 297//297 298//298 296//296
f 299//299 298//298 297//297
f 299//299 300//300 298//298
f 301//301 300//300 299//299
f 301//301 302//302 300//300
f 303//303 302//302 301//301
f 303//303 304//304 302//302
f 305//305 304//304 303//303
f 305//305 306//306 304//304
f 307//307 306//306 305//305
f 307//307 308//308 306//306
f 271//271 308//308 307//307
f 308//308 271//271 272//272
f 309//309 310//310 311//311
f 310//310 309//309 312//312
f 313//313 314//314 315//315
f 314//314 313//313 316//316
f 314//314 317//317 311//311
f 317//317 314//314 315//315
f 14//14 318//318 15//15
f 14//14 319//319 318//318
f 14//14 320//320 319//319
f 320//320 321//321 322//322
f 320//320 9//9 321//321
f 9//9 320//320 14//14
f 317//317 15//15 318//318
f 323//323 15//15 317//317
f 324//324 15//15 323//323
f 321//321 15//15 324//324
f 321//321 18//18 15//15
f 18//18 321//321 9//9
f 325//325 326//326 327//327
f 326//326 325//325 328//328
f 329//329 259//259 330//330
f 259//259 329//329 260//260
f 331//331 260//260 329//329
f 260//260 331//331 237//237
f 332//332 237//237 331//331
f 237//237 332//332 236//236
f 333//333 236//236 332//332
f 236//236 333//333 234//234
f 334//334 234//234 333//333
f 234//234 334//334 232//232
f 334//334 230//230 232//232
f 230//230 334//334 335//335
f 335//335 228//228 230//230
f 228//228 335//335 336//336
f 336//336 226//226 228//228
f 226//226 336//336 337//337
f 337//337 224//224 226//226
f 224//224 337//337 338//338
f 338//338 222//222 224//224
f 222//222 338//338 339//339
f 339//339 220//220 222//222
f 220//220 339//339 340//340
f 220//220 341//341 218//218
f 341//341 220//220 340//340
f 218//218 342//342 216//216
f 342//342 218//218 341//341
f 216//216 343//343 214//214
f 343//343 216//216 342//342
f 344//344 254//254 253//253
f 254//254 344//344 345//345
f 345//345 255//255 254//254
f 255//255 345//345 346//346
f 346//346 256//256 255//255
f 256//256 346//346 347//347
f 347//347 257//257 256//256
f 257//257 347//347 348//348
f 348//348 258//258 257//257
f 258//258 348//348 349//349
f 330//330 258//258 349//349
f 258//258 330//330 259//259
f 214//214 350//350 250//250
f 350//350 214//214 343//343
f 351//351 253//253 252//252
f 253//253 351//351 344//344
f 342//342 350//350 343//343
f 342//342 352//352 350//350
f 341//341 352//352 342//342
f 341//341 351//351 352//352
f 340//340 351//351 341//341
f 340//340 344//344 351//351
f 339//339 344//344 340//340
f 339//339 345//345 344//344
f 338//338 345//345 339//339
f 338//338 346//346 345//345
f 337//337 346//346 338//338
f 337//337 347//347 346//346
f 336//336 347//347 337//337
f 336//336 348//348 347//347
f 335//335 348//348 336//336
f 335//335 349//349 348//348
f 334//334 349//349 335//335
f 334//334 330//330 349//349
f 333//333 330//330 334//334
f 333//333 329//329 330//330
f 332//332 329//329 333//333
f 329//329 332//332 331//331
f 250//250 352//352 251//251
f 352//352 250//250 350//350
f 251//251 351//351 252//252
f 351//351 251//251 352//352
f 144//144 353//353 116//116
f 353//353 144//144 354//354
f 116//116 355//355 132//132
f 355//355 116//116 353//353
f 132//132 356//356 133//133
f 356//356 132//132 355//355
f 133//133 357//357 134//134
f 357//357 133//133 356//356
f 357//357 135//135 134//134
f 135//135 357//357 358//358
f 358//358 136//136 135//135
f 136//136 358//358 359//359
f 359//359 137//137 136//136
f 137//137 359//359 360//360
f 360//360 138//138 137//137
f 138//138 360//360 361//361
f 361//361 139//139 138//138
f 139//139 361//361 362//362
f 362//362 141//141 139//139
f 141//141 362//362 363//363
f 364//364 141//141 363//363
f 141//141 364//364 142//142
f 365//365 142//142 364//364
f 142//142 365//365 140//140
f 366//366 140//140 365//365
f 140//140 366//366 128//128
f 367//367 128//128 366//366
f 128//128 367//367 164//164
f 368//368 164//164 367//367
f 164//164 368//368 162//162
f 369//369 162//162 368//368
f 162//162 369//369 160//160
f 369//369 158//158 160//160
f 158//158 369//369 370//370
f 370//370 156//156 158//158
f 156//156 370//370 371//371
f 371//371 154//154 156//156
f 154//154 371//371 372//372
f 372//372 152//152 154//154
f 152//152 372//372 373//373
f 373//373 150//150 152//152
f 150//150 373//373 374//374
f 146//146 354//354 144//144
f 354//354 146//146 375//375
f 354//354 355//355 353//353
f 375//375 355//355 354//354
f 375//375 356//356 355//355
f 376//376 356//356 375//375
f 376//376 357//357 356//356
f 374//374 357//357 376//376
f 374//374 358//358 357//357
f 373//373 358//358 374//374
f 373//373 359//359 358//358
f 372//372 359//359 373//373
f 372//372 360//360 359//359
f 371//371 360//360 372//372
f 371//371 361//361 360//360
f 370//370 361//361 371//371
f 370//370 362//362 361//361
f 369//369 362//362 370//370
f 369//369 363//363 362//362
f 368//368 363//363 369//369
f 368//368 364//364 363//363
f 367//367 364//364 368//368
f 367//367 365//365 364//364
f 365//365 367//367 366//366
f 374//374 148//148 150//150
f 148//148 374//374 376//376
f 148//148 375//375 146//146
f 375//375 148//148 376//376
f 377//377 121//121 122//122
f 121//121 377//377 378//378
f 378//378 120//120 121//121
f 120//120 378//378 379//379
f 120//120 380//380 119//119
f 380//380 120//120 379//379
f 119//119 381//381 118//118
f 381//381 119//119 380//380
f 118//118 382//382 117//117
f 382//382 118//118 381//381
f 117//117 383//383 143//143
f 383//383 117//117 382//382
f 143//143 384//384 145//145
f 384//384 143//143 383//383
f 145//145 385//385 147//147
f 385//385 145//145 384//384
f 385//385 149//149 147//147
f 149//149 385//385 386//386
f 386//386 151//151 149//149
f 151//151 386//386 387//387
f 387//387 153//153 151//151
f 153//153 387//387 388//388
f 388//388 155//155 153//153
f 155//155 388//388 389//389
f 390//390 163//163 391//391
f 163//163 390//390 126//126
f 392//392 126//126 390//390
f 126//126 392//392 129//129
f 393//393 129//129 392//392
f 129//129 393//393 130//130
f 394//394 130//130 393//393
f 130//130 394//394 131//131
f 394//394 125//125 131//131
f 125//125 394//394 395//395
f 395//395 124//124 125//125
f 124//124 395//395 396//396
f 396//396 123//123 124//124
f 123//123 396//396 397//397
f 397//397 122//122 123//123
f 122//122 397//397 377//377
f 389//389 157//157 155//155
f 157//157 389//389 398//398
f 391//391 161//161 399//399
f 161//161 391//391 163//163
f 381//381 383//383 382//382
f 381//381 384//384 383//383
f 380//380 384//384 381//381
f 380//380 385//385 384//384
f 379//379 385//385 380//380
f 379//379 386//386 385//385
f 378//378 386//386 379//379
f 378//378 387//387 386//386
f 377//377 387//387 378//378
f 377//377 388//388 387//387
f 397//397 388//388 377//377
f 397//397 389//389 388//388
f 396//396 389//389 397//397
f 396//396 398//398 389//389
f 395//395 398//398 396//396
f 395//395 400//400 398//398
f 394//394 400//400 395//395
f 394//394 399//399 400//400
f 393//393 399//399 394//394
f 393//393 391//391 399//399
f 392//392 391//391 393//393
f 391//391 392//392 390//390
f 398//398 159//159 157//157
f 159//159 398//398 400//400
f 399//399 159//159 400//400
f 159//159 399//399 161//161
f 401//401 38//38 37//37
f 38//38 401//401 402//402
f 402//402 39//39 38//38
f 39//39 402//402 403//403
f 403//403 40//40 39//39
f 40//40 403//403 404//404
f 404//404 41//41 40//40
f 41//41 404//404 405//405
f 405//405 42//42 41//41
f 42//42 405//405 406//406
f 406//406 43//43 42//42
f 43//43 406//406 407//407
f 408//408 43//43 407//407
f 43//43 408//408 44//44
f 409//409 44//44 408//408
f 44//44 409//409 45//45
f 410//410 45//45 409//409
f 45//45 410//410 32//32
f 411//411 32//32 410//410
f 32//32 411//411 66//66
f 412//412 66//66 411//411
f 66//66 412//412 64//64
f 413//413 64//64 412//412
f 64//64 413//413 62//62
f 413//413 60//60 62//62
f 60//60 413//413 414//414
f 414//414 58//58 60//60
f 58//58 414//414 415//415
f 415//415 56//56 58//58
f 56//56 415//415 416//416
f 416//416 54//54 56//56
f 54//54 416//416 417//417
f 417//417 52//52 54//54
f 52//52 417//417 418//418
f 418//418 50//50 52//52
f 50//50 418//418 419//419
f 50//50 420//420 48//48
f 420//420 50//50 419//419
f 48//48 421//421 46//46
f 421//421 48//48 420//420
f 46//46 422//422 19//19
f 422//422 46//46 421//421
f 36//36 401//401 37//37
f 401//401 36//36 423//423
f 421//421 424//424 422//422
f 420//420 424//424 421//421
f 420//420 423//423 424//424
f 419//419 423//423 420//420
f 419//419 401//401 423//423
f 418//418 401//401 419//419
f 418//418 402//402 401//401
f 417//417 402//402 418//418
f 417//417 403//403 402//402
f 416//416 403//403 417//417
f 416//416 404//404 403//403
f 415//415 404//404 416//416
f 415//415 405//405 404//404
f 414//414 405//405 415//415
f 414//414 406//406 405//405
f 413//413 406//406 414//414
f 413//413 407//407 406//406
f 412//412 407//407 413//413
f 412//412 408//408 407//407
f 411//411 408//408 412//412
f 411//411 409//409 408//408
f 409//409 411//411 410//410
f 19//19 424//424 35//35
f 424//424 19//19 422//422
f 35//35 423//423 36//36
f 423//423 35//35 424//424
f 326//326 425//425 327//327
f 425//425 326//326 426//426
f 427//427 325//325 327//327
f 325//325 427//427 428//428
f 429//429 325//325 428//428
f 325//325 429//429 328//328
f 328//328 322//322 326//326
f 429//429 322//322 328//328
f 322//322 429//429 320//320
f 430//430 425//425 426//426
f 425//425 430//430 431//431
f 309//309 425//425 312//312
f 425//425 309//309 327//327
f 430//430 321//321 432//432
f 426//426 321//321 430//430
f 326//326 321//321 426//426
f 321//321 326//326 322//322
f 430//430 433//433 431//431
f 433//433 430//430 432//432
f 434//434 314//314 316//316
f 314//314 434//434 435//435
f 427//427 314//314 435//435
f 314//314 427//427 327//327
f 320//320 427//427 319//319
f 429//429 427//427 320//320
f 427//427 429//429 428//428
f 425//425 433//433 436//436
f 433//433 425//425 431//431
f 314//314 309//309 311//311
f 309//309 314//314 327//327
f 425//425 310//310 312//312
f 310//310 425//425 437//437
f 438//438 321//321 324//324
f 436//436 321//321 438//438
f 433//433 321//321 436//436
f 321//321 433//433 432//432
f 434//434 313//313 439//439
f 313//313 434//434 316//316
f 427//427 318//318 319//319
f 435//435 318//318 427//427
f 434//434 318//318 435//435
f 318//318 434//434 439//439
f 425//425 438//438 437//437
f 438//438 425//425 436//436
f 314//314 310//310 437//437
f 310//310 314//314 311//311
f 323//323 438//438 324//324
f 440//440 438//438 323//323
f 438//438 440//440 441//441
f 317//317 313//313 315//315
f 318//318 313//313 317//317
f 313//313 318//318 439//439
f 442//442 440//440 443//443
f 440//440 442//442 441//441
f 442//442 438//438 441//441
f 438//438 442//442 437//437
f 314//314 444//444 315//315
f 444//444 314//314 437//437
f 323//323 444//444 440//440
f 317//317 444//444 323//323
f 444//444 317//317 315//315
f 440//440 444//444 443//443
f 442//442 444//444 437//437
f 444//444 442//442 443//443
f 445//445 206//206 205//205
f 206//206 445//445 446//446
f 446//446 207//207 206//206
f 207//207 446//446 447//447
f 447//447 208//208 207//207
f 208//208 447//447 448//448
f 448//448 209//209 208//208
f 209//209 448//448 449//449
f 449//449 211//211 209//209
f 211//211 449//449 450//450
f 451//451 211//211 450//450
f 211//211 451//451 212//212
f 452//452 212//212 451//451
f 212//212 452//452 210//210
f 453//453 210//210 452//452
f 210//210 453//453 189//189
f 454//454 189//189 453//453
f 189//189 454//454 187//187
f 455//455 187//187 454//454
f 187//187 455//455 185//185
f 456//456 185//185 455//455
f 185//185 456//456 183//183
f 457//457 173//173 175//175
f 173//173 457//457 458//458
f 458//458 171//171 173//173
f 171//171 458//458 459//459
f 171//171 460//460 169//169
f 460//460 171//171 459//459
f 169//169 461//461 166//166
f 461//461 169//169 460//460
f 166//166 462//462 167//167
f 462//462 166//166 461//461
f 167//167 463//463 202//202
f 463//463 167//167 462//462
f 202//202 464//464 203//203
f 464//464 202//202 463//463
f 203//203 465//465 204//204
f 465//465 203//203 464//464
f 465//465 205//205 204//204
f 205//205 465//465 445//445
f 456//456 181//181 183//183
f 181//181 456//456 466//466
f 467//467 175//175 177//177
f 175//175 467//467 457//457
f 461//461 463//463 462//462
f 460//460 463//463 461//461
f 460//460 464//464 463//463
f 459//459 464//464 460//460
f 459//459 465//465 464//464
f 458//458 465//465 459//459
f 458//458 445//445 465//465
f 457//457 445//445 458//458
f 457//457 446//446 445//445
f 467//467 446//446 457//457
f 467//467 447//447 446//446
f 468//468 447//447 467//467
f 468//468 448//448 447//447
f 466//466 448//448 468//468
f 466//466 449//449 448//448
f 456//456 449//449 466//466
f 456//456 450//450 449//449
f 455//455 450//450 456//456
f 455//455 451//451 450//450
f 454//454 451//451 455//455
f 454//454 452//452 451//451
f 452//452 454//454 453//453
f 466//466 179//179 181//181
f 179//179 466//466 468//468
f 468//468 177//177 179//179
f 177//177 468//468 467//467
f 20//20 469//469 47//47
f 469//469 20//20 470//470
f 47//47 471//471 49//49
f 471//471 47//47 469//469
f 472//472 59//59 57//57
f 59//59 472//472 473//473
f 473//473 61//61 59//59
f 61//61 473//473 474//474
f 474//474 63//63 61//61
f 63//63 474//474 475//475
f 476//476 63//63 475//475
f 63//63 476//476 65//65
f 477//477 65//65 476//476
f 65//65 477//477 67//67
f 478//478 67//67 477//477
f 67//67 478//478 30//30
f 479//479 30//30 478//478
f 30//30 479//479 33//33
f 480//480 33//33 479//479
f 33//33 480//480 34//34
f 481//481 34//34 480//480
f 34//34 481//481 29//29
f 481//481 28//28 29//29
f 28//28 481//481 482//482
f 482//482 27//27 28//28
f 27//27 482//482 483//483
f 483//483 26//26 27//27
f 26//26 483//483 484//484
f 484//484 25//25 26//26
f 25//25 484//484 485//485
f 485//485 24//24 25//25
f 24//24 485//485 486//486
f 486//486 23//23 24//24
f 23//23 486//486 487//487
f 23//23 488//488 22//22
f 488//488 23//23 487//487
f 22//22 489//489 21//21
f 489//489 22//22 488//488
f 21//21 470//470 20//20
f 470//470 21//21 489//489
f 49//49 490//490 51//51
f 490//490 49//49 471//471
f 491//491 57//57 55//55
f 57//57 491//491 472//472
f 489//489 469//469 470//470
f 488//488 469//469 489//489
f 488//488 471//471 469//469
f 487//487 471//471 488//488
f 487//487 490//490 471//471
f 486//486 490//490 487//487
f 486//486 492//492 490//490
f 485//485 492//492 486//486
f 485//485 491//491 492//492
f 484//484 491//491 485//485
f 484//484 472//472 491//491
f 483//483 472//472 484//484
f 483//483 473//473 472//472
f 482//482 473//473 483//483
f 482//482 474//474 473//473
f 481//481 474//474 482//482
f 481//481 475//475 474//474
f 480//480 475//475 481//481
f 480//480 476//476 475//475
f 479//479 476//476 480//480
f 479//479 477//477 476//476
f 477//477 479//479 478//478
f 490//490 53//53 51//51
f 53//53 490//490 492//492
f 492//492 55//55 53//53
f 55//55 492//492 491//491
f 241//241 493//493 240//240
f 493//493 241//241 494//494
f 240//240 495//495 239//239
f 495//495 240//240 493//493
f 239//239 496//496 215//215
f 496//496 239//239 495//495
f 215//215 497//497 213//213
f 497//497 215//215 496//496
f 213//213 498//498 217//217
f 498//498 213//213 497//497
f 217//217 499//499 219//219
f 499//499 217//217 498//498
f 499//499 221//221 219//219
f 221//221 499//499 500//500
f 500//500 223//223 221//221
f 223//223 500//500 501//501
f 501//501 225//225 223//223
f 225//225 501//501 502//502
f 502//502 227//227 225//225
f 227//227 502//502 503//503
f 503//503 229//229 227//227
f 229//229 503//503 504//504
f 504//504 231//231 229//229
f 231//231 504//504 505//505
f 506//506 231//231 505//505
f 231//231 506//506 233//233
f 507//507 233//233 506//506
f 233//233 507//507 235//235
f 508//508 235//235 507//507
f 235//235 508//508 238//238
f 509//509 245//245 246//246
f 245//245 509//509 510//510
f 510//510 244//244 245//245
f 244//244 510//510 511//511
f 511//511 243//243 244//244
f 243//243 511//511 512//512
f 512//512 242//242 243//243
f 242//242 512//512 513//513
f 513//513 241//241 242//242
f 241//241 513//513 494//494
f 514//514 238//238 508//508
f 238//238 514//514 248//248
f 515//515 246//246 247//247
f 246//246 515//515 509//509
f 495//495 497//497 496//496
f 495//495 498//498 497//497
f 493//493 498//498 495//495
f 494//494 498//498 493//493
f 494//494 499//499 498//498
f 513//513 499//499 494//494
f 513//513 500//500 499//499
f 512//512 500//500 513//513
f 512//512 501//501 500//500
f 511//511 501//501 512//512
f 511//511 502//502 501//501
f 510//510 502//502 511//511
f 510//510 503//503 502//502
f 509//509 503//503 510//510
f 509//509 504//504 503//503
f 515//515 504//504 509//509
f 515//515 505//505 504//504
f 516//516 505//505 515//515
f 516//516 506//506 505//505
f 514//514 506//506 516//516
f 514//514 507//507 506//506
f 507//507 514//514 508//508
f 516//516 248//248 514//514
f 248//248 516//516 249//249
f 515//515 249//249 516//516
f 249//249 515//515 247//247
f 517//517 303//303 301//301
f 303//303 517//517 518//518
f 519//519 303//303 518//518
f 303//303 519//519 305//305
f 520//520 305//305 519//519
f 305//305 520//520 307//307
f 521//521 307//307 520//520
f 307//307 521//521 271//271
f 522//522 271//271 521//521
f 271//271 522//522 273//273
f 523//523 273//273 522//522
f 273//273 523//523 274//274
f 524//524 274//274 523//523
f 274//274 524//524 275//275
f 524//524 270//270 275//275
f 270//270 524//524 525//525
f 525//525 269//269 270//270
f 269//269 525//525 526//526
f 526//526 268//268 269//269
f 268//268 526//526 527//527
f 527//527 267//267 268//268
f 267//267 527//527 528//528
f 528//528 266//266 267//267
f 266//266 528//528 529//529
f 529//529 265//265 266//266
f 265//265 529//529 530//530
f 265//265 531//531 264//264
f 531//531 265//265 530//530
f 264//264 532//532 263//263
f 532//532 264//264 531//531
f 263//263 533//533 262//262
f 533//533 263//263 532//532
f 534//534 295//295 293//293
f 295//295 534//534 535//535
f 535//535 297//297 295//295
f 297//297 535//535 536//536
f 536//536 299//299 297//297
f 299//299 536//536 537//537
f 537//537 301//301 299//299
f 301//301 537//537 517//517
f 262//262 538//538 287//287
f 538//538 262//262 533//533
f 539//539 293//293 291//291
f 293//293 539//539 534//534
f 532//532 538//538 533//533
f 532//532 540//540 538//538
f 531//531 540//540 532//532
f 531//531 539//539 540//540
f 530//530 539//539 531//531
f 530//530 534//534 539//539
f 529//529 534//534 530//530
f 529//529 535//535 534//534
f 528//528 535//535 529//529
f 528//528 536//536 535//535
f 527//527 536//536 528//528
f 527//527 537//537 536//536
f 526//526 537//537 527//527
f 526//526 517//517 537//537
f 525//525 517//517 526//526
f 525//525 518//518 517//517
f 524//524 518//518 525//525
f 524//524 519//519 518//518
f 523//523 519//519 524//524
f 523//523 520//520 519//519
f 522//522 520//520 523//523
f 520//520 522//522 521//521
f 287//287 540//540 289//289
f 540//540 287//287 538//538
f 289//289 539//539 291//291
f 539//539 289//289 540//540
f 541//541 195//195 196//196
f 195//195 541//541 542//542
f 542//542 194//194 195//195
f 194//194 542//542 543//543
f 543//543 193//193 194//194
f 193//193 543//543 544//544
f 193//193 545//545 192//192
f 545//545 193//193 544//544
f 192//192 546//546 191//191
f 546//546 192//192 545//545
f 191//191 547//547 165//165
f 547//547 191//191 546//546
f 165//165 548//548 168//168
f 548//548 165//165 547//547
f 168//168 549//549 170//170
f 549//549 168//168 548//548
f 170//170 550//550 172//172
f 550//550 170//170 549//549
f 550//550 174//174 172//172
f 174//174 550//550 551//551
f 551//551 176//176 174//174
f 176//176 551//551 552//552
f 552//552 178//178 176//176
f 178//178 552//552 553//553
f 553//553 180//180 178//178
f 180//180 553//553 554//554
f 554//554 182//182 180//180
f 182//182 554//554 555//555
f 556//556 190//190 557//557
f 190//190 556//556 200//200
f 558//558 200//200 556//556
f 200//200 558//558 201//201
f 559//559 201//201 558//558
f 201//201 559//559 199//199
f 559//559 198//198 199//199
f 198//198 559//559 560//560
f 560//560 197//197 198//198
f 197//197 560//560 561//561
f 561//561 196//196 197//197
f 196//196 561//561 541//541
f 555//555 184//184 182//182
f 184//184 555//555 562//562
f 557//557 188//188 563//563
f 188//188 557//557 190//190
f 546//546 548//548 547//547
f 545//545 548//548 546//546
f 545//545 549//549 548//548
f 544//544 549//549 545//545
f 544//544 550//550 549//549
f 543//543 550//550 544//544
f 543//543 551//551 550//550
f 542//542 551//551 543//543
f 542//542 552//552 551//551
f 541//541 552//552 542//542
f 541//541 553//553 552//552
f 561//561 553//553 541//541
f 561//561 554//554 553//553
f 560//560 554//554 561//561
f 560//560 555//555 554//554
f 559//559 555//555 560//560
f 559//559 562//562 555//555
f 558//558 562//562 559//559
f 558//558 564//564 562//562
f 556//556 564//564 558//558
f 556//556 563//563 564//564
f 563//563 556//556 557//557
f 564//564 184//184 562//562
f 184//184 564//564 186//186
f 563//563 186//186 564//564
f 186//186 563//563 188//188
f 565//565 78//78 76//76
f 78//78 565//565 566//566
f 566//566 80//80 78//78
f 80//80 566//566 567//567
f 567//567 82//82 80//80
f 82//82 567//567 568//568
f 568//568 84//84 82//82
f 84//84 568//568 569//569
f 569//569 86//86 84//84
f 86//86 569//569 570//570
f 571//571 86//86 570//570
f 86//86 571//571 88//88
f 572//572 88//88 571//571
f 88//88 572//572 90//90
f 573//573 90//90 572//572
f 90//90 573//573 92//92
f 574//574 92//92 573//573
f 92//92 574//574 103//103
f 575//575 99//99 100//100
f 99//99 575//575 576//576
f 576//576 98//98 99//99
f 98//98 576//576 577//577
f 577//577 97//97 98//98
f 97//97 577//577 578//578
f 578//578 96//96 97//97
f 96//96 578//578 579//579
f 96//96 580//580 95//95
f 580//580 96//96 579//579
f 95//95 581//581 94//94
f 581//581 95//95 580//580
f 94//94 582//582 70//70
f 582//582 94//94 581//581
f 70//70 583//583 68//68
f 583//583 70//70 582//582
f 68//68 584//584 72//72
f 584//584 68//68 583//583
f 72//72 585//585 74//74
f 585//585 72//72 584//584
f 585//585 76//76 74//74
f 76//76 585//585 565//565
f 586//586 103//103 574//574
f 103//103 586//586 104//104
f 587//587 100//100 101//101
f 100//100 587//587 575//575
f 581//581 583//583 582//582
f 580//580 583//583 581//581
f 580//580 584//584 583//583
f 579//579 584//584 580//580
f 579//579 585//585 584//584
f 578//578 585//585 579//579
f 578//578 565//565 585//585
f 577//577 565//565 578//578
f 577//577 566//566 565//565
f 576//576 566//566 577//577
f 576//576 567//567 566//566
f 575//575 567//567 576//576
f 575//575 568//568 567//567
f 587//587 568//568 575//575
f 587//587 569//569 568//568
f 588//588 569//569 587//587
f 588//588 570//570 569//569
f 586//586 570//570 588//588
f 586//586 571//571 570//570
f 574//574 571//571 586//586
f 574//574 572//572 571//571
f 572//572 574//574 573//573
f 588//588 104//104 586//586
f 104//104 588//588 102//102
f 588//588 101//101 102//102
f 101//101 588//588 587//587
f 589//589 110//110 109//109
f 110//110 589//589 590//590
f 590//590 111//111 110//110
f 111//111 590//590 591//591
f 591//591 112//112 111//111
f 112//112 591//591 592//592
f 592//592 113//113 112//112
f 113//113 592//592 593//593
f 594//594 113//113 593//593
f 113//113 594//594 114//114
f 595//595 114//114 594//594
f 114//114 595//595 115//115
f 596//596 115//115 595//595
f 115//115 596//596 93//93
f 597//597 93//93 596//596
f 93//93 597//597 91//91
f 598//598 91//91 597//597
f 91//91 598//598 89//89
f 599//599 89//89 598//598
f 89//89 599//599 87//87
f 599//599 85//85 87//87
f 85//85 599//599 600//600
f 600//600 83//83 85//85
f 83//83 600//600 601//601
f 601//601 81//81 83//83
f 81//81 601//601 602//602
f 602//602 79//79 81//81
f 79//79 602//602 603//603
f 603//603 77//77 79//79
f 77//77 603//603 604//604
f 604//604 75//75 77//77
f 75//75 604//604 605//605
f 105//105 606//606 106//106
f 606//606 105//105 607//607
f 106//106 608//608 107//107
f 608//608 106//106 606//606
f 608//608 108//108 107//107
f 108//108 608//608 609//609
f 609//609 109//109 108//108
f 109//109 609//609 589//589
f 75//75 610//610 73//73
f 610//610 75//75 605//605
f 69//69 607//607 105//105
f 607//607 69//69 611//611
f 612//612 607//607 611//611
f 610//610 607//607 612//612
f 610//610 606//606 607//607
f 605//605 606//606 610//610
f 605//605 608//608 606//606
f 604//604 608//608 605//605
f 604//604 609//609 608//608
f 603//603 609//609 604//604
f 603//603 589//589 609//609
f 602//602 589//589 603//603
f 602//602 590//590 589//589
f 601//601 590//590 602//602
f 601//601 591//591 590//590
f 600//600 591//591 601//601
f 600//600 592//592 591//591
f 599//599 592//592 600//600
f 599//599 593//593 592//592
f 598//598 593//593 599//599
f 598//598 594//594 593//593
f 597//597 594//594 598//598
f 597//597 595//595 594//594
f 595//595 597//597 596//596
f 73//73 612//612 71//71
f 612//612 73//73 610//610
f 71//71 611//611 69//69
f 611//611 71//71 612//612
f 613//613 308//308 614//614
f 308//308 613//613 306//306
f 615//615 306//306 613//613
f 306//306 615//615 304//304
f 615//615 302//302 304//304
f 302//302 615//615 616//616
f 616//616 300//300 302//302
f 300//300 616//616 617//617
f 617//617 298//298 300//300
f 298//298 617//617 618//618
f 290//290 619//619 288//288
f 619//619 290//290 620//620
f 288//288 621//621 261//261
f 621//621 288//288 619//619
f 261//261 622//622 276//276
f 622//622 261//261 621//621
f 276//276 623//623 277//277
f 623//623 276//276 622//622
f 277//277 624//624 278//278
f 624//624 277//277 623//623
f 624//624 279//279 278//278
f 279//279 624//624 625//625
f 625//625 280//280 279//279
f 280//280 625//625 626//626
f 626//626 281//281 280//280
f 281//281 626//626 627//627
f 627//627 282//282 281//281
f 282//282 627//627 628//628
f 628//628 283//283 282//282
f 283//283 628//628 629//629
f 629//629 285//285 283//283
f 285//285 629//629 630//630
f 631//631 285//285 630//630
f 285//285 631//631 286//286
f 632//632 286//286 631//631
f 286//286 632//632 284//284
f 633//633 284//284 632//632
f 284//284 633//633 272//272
f 614//614 272//272 633//633
f 272//272 614//614 308//308
f 618//618 296//296 298//298
f 296//296 618//618 634//634
f 292//292 620//620 290//290
f 620//620 292//292 635//635
f 619//619 622//622 621//621
f 620//620 622//622 619//619
f 620//620 623//623 622//622
f 635//635 623//623 620//620
f 635//635 624//624 623//623
f 636//636 624//624 635//635
f 636//636 625//625 624//624
f 634//634 625//625 636//636
f 634//634 626//626 625//625
f 618//618 626//626 634//634
f 618//618 627//627 626//626
f 617//617 627//627 618//618
f 617//617 628//628 627//627
f 616//616 628//628 617//617
f 616//616 629//629 628//628
f 615//615 629//629 616//616
f 615//615 630//630 629//629
f 613//613 630//630 615//615
f 613//613 631//631 630//630
f 614//614 631//631 613//613
f 614//614 632//632 631//631
f 632//632 614//614 633//633
f 634//634 294//294 296//296
f 294//294 634//634 636//636
f 636//636 292//292 294//294
f 292//292 636//636 635//635