# https://github.com/mikedh/trimesh
v 0.02838200 -0.07689600 0.03112800
v -0.03602100 -0.07993600 0.02068500
v 0.02838200 -0.07993600 0.02068500
v -0.03602100 -0.07689600 0.03112800
v 0.02838200 -0.08085600 -0.02206900
v -0.03602100 -0.07826800 -0.03263200
v 0.02838200 -0.07826800 -0.03263200
v -0.03602100 -0.08085600 -0.02206900
v 0.02838200 -0.08344500 -0.01150500
v -0.03602100 -0.08344500 -0.01150500
v 0.02838200 -0.08321100 -0.00063100
v -0.03602100 -0.08321100 -0.00063100
v 0.02838200 -0.08297600 0.01024200
v -0.03602100 -0.08297600 0.01024200
v -0.03602100 0.07002300 -0.04524400
v 0.02838200 0.06438300 -0.05454400
v -0.03602100 0.06438300 -0.05454400
v 0.02838200 0.07002300 -0.04524400
v 0.02838200 0.05652900 -0.06206800
v -0.03602100 0.05652900 -0.06206800
v 0.02838200 0.04867500 -0.06959100
v -0.03602100 0.04867500 -0.06959100
v -0.03602100 0.03914100 -0.07482500
v 0.02838200 0.03914100 -0.07482500
v -0.03602100 0.02960700 -0.08006000
v 0.02838200 0.02960700 -0.08006000
v -0.03602100 0.01904300 -0.08264800
v 0.02838200 0.01904300 -0.08264800
v -0.03602100 0.00848000 -0.08523600
v 0.02838200 0.00848000 -0.08523600
v -0.03602100 -0.00239400 -0.08500200
v 0.02838200 -0.00239400 -0.08500200
v -0.03602100 -0.01326800 -0.08476800
v 0.02838200 -0.01326800 -0.08476800
v -0.03602100 -0.02371000 -0.08172800
v 0.02838200 -0.02371000 -0.08172800
v -0.03602100 -0.03415300 -0.07868800
v 0.02838200 -0.03415300 -0.07868800
v -0.03602100 -0.04345300 -0.07304800
v 0.02838200 -0.04345300 -0.07304800
v -0.03602100 -0.05275300 -0.06740900
v 0.02838200 -0.05275300 -0.06740900
v -0.03602100 -0.06027600 -0.05955400
v 0.02838200 -0.06027600 -0.05955400
v -0.03602100 -0.06779900 -0.05170000
v 0.02838200 -0.06779900 -0.05170000
v 0.02838200 -0.07303400 -0.04216600
v -0.03602100 -0.07303400 -0.04216600
v 0.02838200 -0.04990800 0.06477400
v -0.03602100 -0.05776300 0.05725100
v 0.02838200 -0.05776300 0.05725100
v -0.03602100 -0.04990800 0.06477400
v 0.02838200 -0.06561700 0.04972700
v -0.03602100 -0.07125600 0.04042800
v 0.02838200 -0.07125600 0.04042800
v -0.03602100 -0.06561700 0.04972700
v -0.03602100 0.08197700 -0.00418600
v 0.02838200 0.08174200 -0.01505900
v -0.03602100 0.08174200 -0.01505900
v 0.02838200 0.08197700 -0.00418600
v 0.02838200 0.07870200 -0.02550200
v -0.03602100 0.07870200 -0.02550200
v 0.02838200 0.07566200 -0.03594500
v -0.03602100 0.07566200 -0.03594500
v -0.03602100 -0.00971300 0.08041900
v 0.02838200 -0.02027700 0.07783100
v 0.02838200 -0.00971300 0.08041900
v -0.03602100 -0.02027700 0.07783100
v -0.03602100 -0.03084100 0.07524300
v 0.02838200 -0.04164600 0.06931100
v 0.02838200 -0.03084100 0.07524300
v -0.03602100 -0.04164600 0.06931100
v -0.03602100 0.01203400 0.07995100
v 0.02838200 0.00116000 0.08018600
v 0.02838200 0.01203400 0.07995100
v -0.03602100 0.00116000 0.08018600
v -0.03602100 0.03291900 0.07387100
v 0.02838200 0.02247700 0.07691100
v 0.02838200 0.03291900 0.07387100
v -0.03602100 0.02247700 0.07691100
v -0.03602100 0.05151900 0.06259200
v 0.02838200 0.04221900 0.06823100
v 0.02838200 0.05151900 0.06259200
v -0.03602100 0.04221900 0.06823100
v -0.03602100 0.06656600 0.04688300
v 0.02838200 0.05904200 0.05473700
v 0.02838200 0.06656600 0.04688300
v -0.03602100 0.05904200 0.05473700
v -0.03602100 0.07180000 0.03734900
v 0.02838200 0.07703400 0.02781500
v -0.03602100 0.07703400 0.02781500
v 0.02838200 0.07180000 0.03734900
v -0.03602100 0.07962200 0.01725200
v 0.02838200 0.08221100 0.00668800
v -0.03602100 0.08221100 0.00668800
v 0.02838200 0.07962200 0.01725200
v 0.02838200 -0.00548300 -0.05184900
v 0.02838200 0.00007400 -0.03618800
v 0.02838200 -0.00146100 -0.00586400
v 0.02838200 0.00603000 -0.03670900
v 0.02838200 0.05140400 -0.01048800
v 0.02838200 0.00731600 -0.02200500
v 0.02838200 0.04738100 -0.05647300
v 0.02838200 0.00136000 -0.02148400
v 0.02838200 -0.05834800 -0.04722500
v 0.02838200 -0.01407900 -0.03471100
v 0.02838200 -0.05432500 -0.00124000
v 0.02838200 -0.00793700 -0.03524800
v 0.02838200 -0.00668300 -0.02091700
v 0.02838200 -0.01282500 -0.02038000
v -0.03578000 -0.11080200 0.01225500
v 0.02744800 -0.11852200 -0.07600300
v -0.03578000 -0.11852200 -0.07600300
v 0.02744800 -0.11080200 0.01225500
v -0.03578000 0.10374000 -0.09544400
v -0.03578000 0.11145900 -0.00718600
v 0.02744800 0.11145900 -0.00718600
v 0.02744800 0.10374000 -0.09544400
v 0.02744800 0.08214700 -0.00255900
v 0.02744800 0.11163900 -0.00513800
v 0.02744800 0.08196700 -0.00460600
v -0.03578000 0.08214700 -0.00255900
v -0.03578000 0.11163900 -0.00513800
v -0.03578000 0.08196700 -0.00460600
v 0.02171900 0.10655200 -0.00469300
v -0.03040600 0.10655200 -0.00469300
v -0.03040600 0.08868500 -0.00313100
v 0.02171900 0.08868500 -0.00313100
v 0.02171900 0.10648700 -0.00543800
v 0.02171900 0.08862000 -0.00387500
v -0.03040600 0.10648700 -0.00543800
v -0.03040600 0.08862000 -0.00387500
v -0.03578000 -0.08298600 0.00982200
v -0.03578000 -0.11057400 0.01486100
v -0.03578000 -0.08275800 0.01242800
v 0.02744800 -0.11057400 0.01486100
v 0.02744800 -0.08298600 0.00982200
v 0.02744800 -0.08275800 0.01242800
v 0.02290400 -0.08702100 0.01280100
v -0.03146300 -0.08702100 0.01280100
v -0.03146300 -0.10675000 0.01452600
v 0.02290400 -0.10675000 0.01452600
v -0.03146300 -0.08710200 0.01187000
v -0.03146300 -0.10683000 0.01359600
v 0.02290400 -0.10683000 0.01359600
v 0.02290400 -0.08710200 0.01187000
v 0.02931600 0.06539700 -0.06073400
v -0.00281900 0.05207600 -0.07321900
v 0.02931600 0.05207600 -0.07321900
v -0.00281900 0.06539700 -0.06073400
v 0.02931600 0.07583800 -0.04390600
v -0.00281900 0.07583800 -0.04390600
v 0.02931600 0.07191500 -0.08876100
v -0.00281900 0.07191500 -0.08876100
v -0.00281900 0.03003800 -0.08509800
v 0.02931600 0.03003800 -0.08509800
v 0.02950300 -0.06870600 -0.05654500
v 0.02744800 -0.08051900 -0.03596700
v 0.02950300 -0.08051900 -0.03596700
v 0.02744800 -0.06870600 -0.05654500
v 0.02950300 -0.05635300 -0.07105600
v 0.02744800 -0.05635300 -0.07105600
v 0.02950300 -0.04467400 -0.07913100
v 0.02744800 -0.04467400 -0.07913100
v 0.02744800 -0.08785300 -0.07535400
v 0.02950300 -0.08785300 -0.07535400
v 0.02950300 -0.08349000 -0.02547400
v 0.02744800 -0.08349000 -0.02547400
v 0.02838200 0.06405700 0.00216300
v 0.01654400 0.06301400 0.00102400
v 0.02838200 0.06301400 0.00102400
v 0.01654400 0.06405700 0.00216300
v 0.02838200 0.06477100 0.00353400
v 0.01654400 0.06477100 0.00353400
v 0.02838200 0.06510500 0.00504200
v 0.01654400 0.06510500 0.00504200
v 0.01654400 0.07661700 0.00403500
v 0.02838200 0.07661700 0.00403500
v 0.02838200 0.07610100 -0.00186100
v 0.01654400 0.07610100 -0.00186100
v 0.02838200 0.06171000 0.00019400
v 0.01654400 0.06171000 0.00019400
v 0.02838200 0.04826600 0.00354400
v 0.01654400 0.04722300 0.00240500
v 0.02838200 0.04722300 0.00240500
v 0.01654400 0.04826600 0.00354400
v 0.02838200 0.04898000 0.00491500
v 0.01654400 0.04898000 0.00491500
v 0.02838200 0.04931400 0.00642300
v 0.01654400 0.04931400 0.00642300
v 0.01654400 0.05331300 0.00607400
v 0.02838200 0.05331300 0.00607400
v 0.02838200 0.05338000 0.00453000
v 0.01654400 0.05338000 0.00453000
v 0.02838200 0.05384500 0.00305600
v 0.01654400 0.05384500 0.00305600
v 0.02838200 0.05467500 0.00175300
v 0.01654400 0.05467500 0.00175300
v 0.01654400 0.05581400 0.00070900
v 0.02838200 0.05581400 0.00070900
v 0.01654400 0.05718500 -0.00000400
v 0.02838200 0.05718500 -0.00000400
v 0.02838200 0.04592000 0.00157500
v 0.01654400 0.04592000 0.00157500
v 0.02838200 0.06023700 -0.00027100
v 0.02838200 0.05869300 -0.00033800
v 0.01654400 0.06023700 -0.00027100
v 0.01654400 0.05869300 -0.00033800
v 0.02838200 0.03057700 0.00509200
v 0.01654400 0.02953300 0.00395200
v 0.02838200 0.02953300 0.00395200
v 0.01654400 0.03057700 0.00509200
v 0.02838200 0.03129100 0.00646200
v 0.01654400 0.03129100 0.00646200
v 0.02838200 0.03162500 0.00797100
v 0.01654400 0.03162500 0.00797100
v 0.01654400 0.03752200 0.00745500
v 0.02838200 0.03752200 0.00745500
v 0.02838200 0.03758900 0.00591100
v 0.01654400 0.03758900 0.00591100
v 0.02838200 0.03805400 0.00443800
v 0.01654400 0.03805400 0.00443800
v 0.02838200 0.03888400 0.00313400
v 0.01654400 0.03888400 0.00313400
v 0.01654400 0.04002300 0.00209100
v 0.02838200 0.04002300 0.00209100
v 0.01654400 0.04139400 0.00137700
v 0.02838200 0.04139400 0.00137700
v 0.02838200 0.02823000 0.00312200
v 0.01654400 0.02823000 0.00312200
v 0.02838200 0.04444600 0.00111000
v 0.02838200 0.04290200 0.00104300
v 0.01654400 0.04444600 0.00111000
v 0.01654400 0.04290200 0.00104300
v 0.02838200 0.01284000 0.00664300
v 0.01654400 0.01179600 0.00550400
v 0.02838200 0.01179600 0.00550400
v 0.01654400 0.01284000 0.00664300
v 0.02838200 0.01355400 0.00801300
v 0.01654400 0.01355400 0.00801300
v 0.02838200 0.01388800 0.00952200
v 0.01654400 0.01388800 0.00952200
v 0.01654400 0.01983300 0.00900200
v 0.02838200 0.01983300 0.00900200
v 0.02838200 0.01990000 0.00745800
v 0.01654400 0.01990000 0.00745800
v 0.02838200 0.02036500 0.00598500
v 0.01654400 0.02036500 0.00598500
v 0.02838200 0.02119500 0.00468200
v 0.01654400 0.02119500 0.00468200
v 0.01654400 0.02233400 0.00363800
v 0.02838200 0.02233400 0.00363800
v 0.01654400 0.02370500 0.00292400
v 0.02838200 0.02370500 0.00292400
v 0.02838200 0.01049300 0.00467400
v 0.01654400 0.01049300 0.00467400
v 0.02838200 0.02675700 0.00265700
v 0.02838200 0.02521300 0.00259000
v 0.01654400 0.02675700 0.00265700
v 0.01654400 0.02521300 0.00259000
v 0.02838200 -0.00466000 0.00817400
v 0.01654400 -0.00570300 0.00703400
v 0.02838200 -0.00570300 0.00703400
v 0.01654400 -0.00466000 0.00817400
v 0.02838200 -0.00394600 0.00954400
v 0.01654400 -0.00394600 0.00954400
v 0.02838200 -0.00361200 0.01105300
v 0.01654400 -0.00361200 0.01105300
v 0.01654400 0.00209600 0.01055300
v 0.02838200 0.00209600 0.01055300
v 0.02838200 0.00216300 0.00901000
v 0.01654400 0.00216300 0.00901000
v 0.02838200 0.00262800 0.00753600
v 0.01654400 0.00262800 0.00753600
v 0.02838200 0.00345800 0.00623300
v 0.01654400 0.00345800 0.00623300
v 0.01654400 0.00459700 0.00518900
v 0.02838200 0.00459700 0.00518900
v 0.01654400 0.00596800 0.00447600
v 0.02838200 0.00596800 0.00447600
v 0.02838200 -0.00700700 0.00620400
v 0.01654400 -0.00700700 0.00620400
v 0.02838200 0.00902000 0.00420900
v 0.02838200 0.00747600 0.00414100
v 0.01654400 0.00902000 0.00420900
v 0.01654400 0.00747600 0.00414100
v 0.02838200 -0.02309600 0.00978600
v 0.01654400 -0.02414000 0.00864700
v 0.02838200 -0.02414000 0.00864700
v 0.01654400 -0.02309600 0.00978600
v 0.02838200 -0.02238300 0.01115700
v 0.01654400 -0.02238300 0.01115700
v 0.02838200 -0.02204800 0.01266500
v 0.01654400 -0.02204800 0.01266500
v 0.01654400 -0.01540400 0.01208400
v 0.02838200 -0.01540400 0.01208400
v 0.02838200 -0.01533700 0.01054000
v 0.01654400 -0.01533700 0.01054000
v 0.02838200 -0.01487200 0.00906700
v 0.01654400 -0.01487200 0.00906700
v 0.02838200 -0.01404200 0.00776400
v 0.01654400 -0.01404200 0.00776400
v 0.01654400 -0.01290300 0.00672000
v 0.02838200 -0.01290300 0.00672000
v 0.01654400 -0.01153200 0.00600700
v 0.02838200 -0.01153200 0.00600700
v 0.02838200 -0.02544300 0.00781700
v 0.01654400 -0.02544300 0.00781700
v 0.02838200 -0.00848000 0.00574000
v 0.02838200 -0.01002400 0.00567200
v 0.01654400 -0.00848000 0.00574000
v 0.01654400 -0.01002400 0.00567200
v 0.02838200 -0.04037000 0.01129700
v 0.01654400 -0.04141400 0.01015800
v 0.02838200 -0.04141400 0.01015800
v 0.01654400 -0.04037000 0.01129700
v 0.02838200 -0.03965700 0.01266800
v 0.01654400 -0.03965700 0.01266800
v 0.02838200 -0.03932200 0.01417600
v 0.01654400 -0.03932200 0.01417600
v 0.01654400 -0.03384100 0.01369700
v 0.02838200 -0.03384100 0.01369700
v 0.02838200 -0.03377300 0.01215300
v 0.01654400 -0.03377300 0.01215300
v 0.02838200 -0.03330900 0.01067900
v 0.01654400 -0.03330900 0.01067900
v 0.02838200 -0.03247800 0.00937600
v 0.01654400 -0.03247800 0.00937600
v 0.01654400 -0.03133900 0.00833300
v 0.02838200 -0.03133900 0.00833300
v 0.01654400 -0.02996900 0.00761900
v 0.02838200 -0.02996900 0.00761900
v 0.02838200 -0.04271700 0.00932800
v 0.01654400 -0.04271700 0.00932800
v 0.01654400 -0.07510200 0.01730600
v 0.02838200 -0.07510200 0.01730600
v 0.01654400 -0.07561800 0.01141000
v 0.02838200 -0.07561800 0.01141000
v 0.02838200 -0.02691700 0.00735200
v 0.02838200 -0.02846000 0.00728500
v 0.01654400 -0.02691700 0.00735200
v 0.01654400 -0.02846000 0.00728500
v 0.02838200 -0.04419100 0.00886300
v 0.02838200 -0.04573400 0.00879600
v 0.01654400 -0.04419100 0.00886300
v 0.01654400 -0.04573400 0.00879600
v 0.01654400 -0.06269500 0.01027900
v 0.01654400 -0.06807600 0.01669100
v 0.02838200 -0.06776300 0.01666400
v 0.02838200 -0.06769900 0.01520200
v 0.01654400 -0.06800800 0.01514800
v 0.02838200 -0.06725900 0.01380700
v 0.01654400 -0.06754400 0.01367400
v 0.02838200 -0.06647300 0.01257300
v 0.01654400 -0.06671400 0.01237100
v 0.01654400 -0.06557400 0.01132700
v 0.02838200 -0.06539400 0.01158400
v 0.01654400 -0.06420400 0.01061400
v 0.02838200 -0.06409700 0.01090900
v 0.02838200 -0.06266800 0.01059200
v 0.01654400 -0.06115200 0.01034700
v 0.02838200 -0.06120600 0.01065600
v 0.01654400 -0.05967800 0.01081100
v 0.02838200 -0.05981100 0.01109600
v 0.01654400 -0.05837500 0.01164200
v 0.02838200 -0.05857700 0.01188200
v 0.01654400 -0.05733100 0.01278100
v 0.02838200 -0.05758800 0.01296100
v 0.01654400 -0.05661800 0.01415100
v 0.02838200 -0.05691300 0.01425900
v 0.02838200 -0.05659600 0.01568700
v 0.01654400 -0.05628300 0.01566000
v 0.01654400 -0.05111500 0.01520800
v 0.02838200 -0.05111500 0.01520800
v 0.02838200 -0.05104700 0.01366400
v 0.01654400 -0.05104700 0.01366400
v 0.02838200 -0.04724300 0.00913000
v 0.01654400 -0.04724300 0.00913000
v 0.02838200 -0.05058300 0.01219000
v 0.01654400 -0.05058300 0.01219000
v 0.02838200 -0.04861300 0.00984300
v 0.01654400 -0.04861300 0.00984300
v 0.02838200 -0.04975200 0.01088700
v 0.01654400 -0.04975200 0.01088700
v 0.03118400 0.08684900 -0.04015200
v 0.02912900 0.08684900 -0.04015200
v 0.03118400 0.08544800 -0.05615800
v 0.02912900 0.08544800 -0.05615800
v 0.02912900 0.09150200 -0.04055900
v 0.03118400 0.09150200 -0.04055900
v 0.03118400 0.09010100 -0.05656500
v 0.02912900 0.09010100 -0.05656500
v 0.02651400 -0.05834800 -0.04722500
v 0.02651400 -0.05432500 -0.00124000
v 0.02651400 0.04738100 -0.05647300
v 0.02651400 0.05140400 -0.01048800
v 0.02912900 -0.00793700 -0.03524800
v 0.02912900 -0.00668300 -0.02091700
v 0.02912900 -0.01282500 -0.02038000
v 0.02912900 -0.01407900 -0.03471100
v -0.03433900 -0.05559900 0.05048000
v 0.02838200 -0.06059200 0.04569700
v -0.03433900 -0.06059200 0.04569700
v 0.02838200 -0.05559900 0.05048000
v 0.02838200 0.06257000 0.04089100
v -0.03433900 0.06257000 0.04089100
v -0.03433900 0.07103200 0.02547900
v 0.02838200 0.07103200 0.02547900
v -0.03433900 0.07235100 0.02009500
v 0.02838200 0.07235100 0.02009500
v 0.02838200 -0.06823400 0.03309500
v -0.03433900 -0.06823400 0.03309500
v -0.03433900 -0.04609800 0.05958100
v 0.02838200 -0.02850400 0.06924000
v 0.02838200 -0.04609800 0.05958100
v -0.03433900 -0.02850400 0.06924000
v 0.02838200 -0.00901000 0.07401600
v -0.03433900 -0.00901000 0.07401600
v 0.02838200 0.01105600 0.07358400
v -0.03433900 0.01105600 0.07358400
v 0.02838200 0.03032700 0.06797400
v -0.03433900 0.03032700 0.06797400
v 0.02838200 0.04748900 0.05756700
v -0.03433900 0.04748900 0.05756700
v 0.02838200 0.05823400 0.04634900
v -0.03433900 0.05823400 0.04634900
v 0.02838200 -0.05201800 0.05391100
v -0.03433900 -0.05201800 0.05391100
v 0.02838200 -0.07099900 0.02853500
v 0.02838200 0.07345300 0.01559600
v 0.02838200 0.07580800 0.00598500
v 0.02838200 0.07563900 -0.00188100
v 0.02838200 -0.06228700 -0.05053000
v 0.02838200 0.05068700 -0.06041200
v 0.02838200 -0.07599300 0.01138200
v 0.02838200 -0.05763100 0.00270000
v 0.02838200 0.05534300 -0.00718200
v -0.03433900 -0.07099900 0.02853500
v -0.03433900 0.07345300 0.01559600
v -0.03433900 0.07580800 0.00598500
v -0.03433900 0.07563900 -0.00188100
v -0.03433900 -0.07599300 0.01138200
v 0.02651400 -0.05763100 0.00270000
v 0.02651400 -0.06228700 -0.05053000
v 0.02651400 0.05534300 -0.00718200
v 0.02651400 0.05068700 -0.06041200
v 0.02912900 0.00603000 -0.03670900
v 0.02912900 0.00007400 -0.03618800
v 0.02912900 0.00731600 -0.02200500
v 0.02912900 0.00136000 -0.02148400
v 0.02912900 0.08354600 -0.00689000
v 0.02744800 0.08354600 -0.00689000
v 0.02912900 0.07618800 -0.09101500
v 0.02744800 0.07618800 -0.09101500
v 0.02744800 0.10187300 -0.09326200
v 0.02912900 0.10187300 -0.09326200
v 0.02744800 0.10923100 -0.00913700
v 0.02912900 0.10923100 -0.00913700
v 0.02894200 -0.09642300 -0.03974100
v 0.02894200 -0.09270100 -0.04006600
v 0.03174500 -0.09642300 -0.03974100
v 0.03174500 -0.09270100 -0.04006600
v 0.03174500 -0.09513700 -0.02503700
v 0.02894200 -0.09513700 -0.02503700
v 0.03174500 -0.09141500 -0.02536300
v 0.02894200 -0.09141500 -0.02536300
v 0.02894200 -0.10847700 0.00968900
v 0.02744800 -0.10847700 0.00968900
v 0.02894200 -0.11575400 -0.07350600
v 0.02744800 -0.11575400 -0.07350600
v 0.02744800 -0.08484000 0.00762200
v 0.02894200 -0.08484000 0.00762200
v 0.02894200 -0.09211700 -0.07557300
v 0.02744800 -0.09211700 -0.07557300
v 0.02171900 0.10637300 -0.00674100
v -0.03040600 0.10637300 -0.00674100
v -0.03040600 0.08850600 -0.00517800
v -0.03146300 -0.10697800 0.01192100
v -0.03146300 -0.08724900 0.01019500
v 0.02290400 -0.08724900 0.01019500
v 0.02290400 -0.10697800 0.01192100
v 0.02171900 0.08850600 -0.00517800
vn 0.67886669 -0.67216759 0.29551775
vn -0.70710678 -0.67892509 0.19763787
vn 0.70710678 -0.67892509 0.19763787
vn -0.67886669 -0.67216759 0.29551775
vn 0.70711437 -0.68678070 -0.16829004
vn -0.87789632 -0.46509483 -0.11395109
vn 0.87789632 -0.46509483 -0.11395109
vn -0.70711437 -0.68678070 -0.16829004
vn 0.67886854 -0.72986929 -0.08017687
vn -0.67886854 -0.72986929 -0.08017687
vn 0.70709621 -0.70695297 0.01524629
vn -0.70709621 -0.70695297 0.01524629
vn 0.67888817 -0.72572676 0.11149676
vn -0.67888817 -0.72572676 0.11149676
vn -0.89442543 0.38240000 -0.23189091
vn 1.00000000 -0.00000000 0.00000000
vn -1.00000000 0.00000000 -0.00000000
vn 0.89442543 0.38240000 -0.23189091
vn 1.00000000 -0.00000000 0.00000000
vn -1.00000000 0.00000000 -0.00000000
vn 1.00000000 0.00000000 -0.00000000
vn -1.00000000 -0.00000000 0.00000000
vn -1.00000000 0.00000000 -0.00000000
vn 1.00000000 -0.00000000 0.00000000
vn -1.00000000 -0.00000000 0.00000000
vn 1.00000000 0.00000000 -0.00000000
vn -1.00000000 0.00000000 0.00000000
vn 1.00000000 -0.00000000 -0.00000000
vn -1.00000000 0.00000000 0.00000000
vn 1.00000000 -0.00000000 0.00000000
vn -1.00000000 0.00000000 -0.00000000
vn 1.00000000 -0.00000000 -0.00000000
vn -1.00000000 0.00000000 -0.00000000
vn 1.00000000 -0.00000000 0.00000000
vn -1.00000000 0.00000000 0.00000000
vn 1.00000000 -0.00000000 0.00000000
vn -1.00000000 -0.00000000 -0.00000000
vn 1.00000000 0.00000000 0.00000000
vn -1.00000000 0.00000000 0.00000000
vn 1.00000000 0.00000000 0.00000000
vn -1.00000000 -0.00000000 0.00000000
vn 1.00000000 0.00000000 0.00000000
vn -1.00000000 0.00000000 0.00000000
vn 1.00000000 -0.00000000 -0.00000000
vn -1.00000000 0.00000000 -0.00000000
vn 1.00000000 -0.00000000 0.00000000
vn 1.00000000 0.00000000 0.00000000
vn -1.00000000 -0.00000000 -0.00000000
vn 0.67889195 -0.43434913 0.59198526
vn -0.70709215 -0.48913470 0.51065442
vn 0.70709215 -0.48913470 0.51065442
vn -0.67889195 -0.43434913 0.59198526
vn 0.67888102 -0.57277984 0.45939506
vn -0.70711026 -0.60461407 0.36665638
vn 0.70711026 -0.60461407 0.36665638
vn -0.67888102 -0.57277984 0.45939506
vn -0.70709621 0.70695297 -0.01524629
vn 0.67888817 0.72572676 -0.11149676
vn -0.67888817 0.72572676 -0.11149676
vn 0.70709621 0.70695297 -0.01524629
vn 0.70710678 0.67892509 -0.19763787
vn -0.70710678 0.67892509 -0.19763787
vn 0.67886988 0.67216947 -0.29550617
vn -0.67886988 0.67216947 -0.29550617
vn -0.67888700 -0.08017524 0.72985230
vn 0.70710678 -0.16825367 0.68679743
vn 0.67888700 -0.08017524 0.72985230
vn -0.70710678 -0.16825367 0.68679743
vn -0.67887148 -0.26631613 0.68425817
vn 0.70709506 -0.34033238 0.61983099
vn 0.67887148 -0.26631613 0.68425817
vn -0.70709506 -0.34033238 0.61983099
vn -0.67888797 0.11149606 0.72572705
vn 0.70708631 0.01521400 0.70696356
vn 0.67888797 0.11149606 0.72572705
vn -0.70708631 0.01521400 0.70696356
vn -0.67886934 0.29552540 0.67216155
vn 0.70710389 0.19764740 0.67892532
vn 0.67886934 0.29552540 0.67216155
vn -0.70710389 0.19764740 0.67892532
vn -0.67886272 0.45942922 0.57277413
vn 0.70711563 0.36663919 0.60461822
vn 0.67886272 0.45942922 0.57277413
vn -0.70711563 0.36663919 0.60461822
vn -0.67886606 0.59200271 0.43436583
vn 0.70712141 0.51063329 0.48911446
vn 0.67886606 0.59200271 0.43436583
vn -0.70712141 0.51063329 0.48911446
vn -0.70710678 0.61984432 0.34028374
vn 0.67887551 0.68425408 0.26631635
vn -0.67887551 0.68425408 0.26631635
vn 0.70710678 0.61984432 0.34028374
vn -0.70711437 0.68678070 0.16829004
vn 0.67886854 0.72986929 0.08017687
vn -0.67886854 0.72986929 0.08017687
vn 0.70711437 0.68678070 0.16829004
vn 1.00000000 0.00000000 0.00000000
vn 0.90453222 -0.32663951 -0.27409505
vn 1.00000000 0.00000000 0.00000000
vn 0.90453585 0.27409010 -0.32663361
vn 0.57734943 0.62546704 0.52484152
vn 0.90453222 0.32663951 0.27409505
vn 0.57735111 0.52484076 -0.62546613
vn 0.90453585 -0.27409010 0.32663361
vn 0.57734943 -0.62546704 -0.52484152
vn 0.90454238 -0.32662291 -0.27408129
vn 0.57735111 -0.52484076 0.62546613
vn 0.90452569 0.27410406 -0.32665004
vn 0.90454238 0.32662291 0.27408129
vn 0.90452569 -0.27410406 0.32665004
vn -0.57733696 -0.62546181 -0.52486147
vn 0.00000000 0.00000000 -0.00000000
vn 0.00000000 0.00000000 0.00000000
vn 0.57733746 -0.62546010 -0.52486295
vn -0.00000000 -0.00000000 -0.00000000
vn -0.57737033 0.52470022 -0.62556629
vn 0.57737031 0.52470051 -0.62556607
vn -0.00000000 0.00000000 0.00000000
vn 0.57737121 -0.52469444 0.62557033
vn 0.57733001 0.62558125 0.52472675
vn 0.57732608 -0.62559884 -0.52471011
vn -0.57737169 -0.52469168 0.62557220
vn -0.57733049 0.62557886 0.52472906
vn -0.57732611 -0.62559866 -0.52471028
vn -0.30155238 -0.22156995 0.92734725
vn 0.30153751 -0.22157997 0.92734969
vn 0.30151039 0.37917104 0.87482616
vn -0.30152512 0.37916078 0.87482553
vn -0.89441351 -0.44554836 0.03887335
vn -0.70712072 0.70440585 -0.06158479
vn 0.70705509 -0.70448220 0.06146489
vn 0.44723939 0.89101547 -0.07789970
vn -0.57734865 0.52483606 -0.62547234
vn -0.57733857 -0.52482552 0.62549049
vn -0.57735269 0.62546681 0.52483821
vn 0.57733799 -0.52483089 0.62548652
vn 0.57734907 0.52483381 -0.62547384
vn 0.57735187 0.62547046 0.52483475
vn -0.30161956 -0.22157153 0.92732502
vn 0.30159869 -0.22158571 0.92732842
vn 0.30118586 0.37915006 0.87494703
vn -0.30120064 0.37913735 0.87494745
vn 0.70699805 -0.70455394 0.06129846
vn 0.70743458 0.70417828 -0.06057448
vn -0.70743458 0.70417828 -0.06057448
vn -0.70699805 -0.70455394 0.06129846
vn 0.73777998 -0.52210092 0.42789172
vn -0.73731795 -0.39454501 0.54835798
vn 0.73731795 -0.39454501 0.54835798
vn -0.73777998 -0.52210092 0.42789172
vn 0.54052654 0.26567583 0.79827778
vn -0.54052654 0.26567583 0.79827778
vn 0.57734970 0.52484882 -0.62546066
vn -0.57734970 0.52484882 -0.62546066
vn -0.54243600 -0.82275101 -0.16983511
vn 0.54243600 -0.82275101 -0.16983511
vn 0.72839506 0.56033550 0.39429021
vn -0.73569787 0.62423252 0.26283531
vn 0.73569787 0.62423252 0.26283531
vn -0.72839506 0.56033550 0.39429021
vn 0.73755735 0.45296120 0.50083461
vn -0.73755735 0.45296120 0.50083461
vn 0.54130931 0.79096656 -0.28522996
vn -0.54130931 0.79096656 -0.28522996
vn -0.57735043 -0.62546364 -0.52484446
vn 0.57735043 -0.62546364 -0.52484446
vn 0.53913243 -0.07933365 0.83847624
vn -0.53913243 -0.07933365 0.83847624
vn 0.73763876 -0.55311903 0.38723171
vn 0.00000000 -0.64276126 0.76606656
vn 0.73778952 -0.43388366 0.51711854
vn 0.00000000 -0.81919825 0.57351044
vn 0.73774535 -0.63436983 0.23088246
vn 0.00000000 -0.93969704 0.34200801
vn 0.58453716 -0.47983913 0.65427113
vn 0.00000000 -0.59139596 0.80638131
vn 0.00000000 0.76604877 0.64278245
vn 0.57734802 0.62547742 0.52483069
vn 0.70711314 0.70440796 -0.06164764
vn 0.00000000 0.99619225 -0.08718372
vn 0.73760926 -0.28534684 0.61197202
vn 0.00000000 -0.42259344 0.90631936
vn 0.73763876 -0.55311903 0.38723171
vn 0.00000000 -0.64289438 0.76595484
vn 0.73774749 -0.43400306 0.51707832
vn 0.00000000 -0.81919825 0.57351044
vn 0.73774535 -0.63436983 0.23088246
vn 0.00000000 -0.93969704 0.34200801
vn 0.58454868 -0.47989984 0.65421632
vn 0.00000000 -0.59147684 0.80632199
vn 0.00000000 0.72238175 0.69149447
vn 0.58452012 0.58612554 0.56106424
vn 0.73775111 0.66482354 0.11718772
vn 0.00000000 0.98481753 0.17359271
vn 0.73767484 0.61188529 0.28536331
vn 0.00000000 0.90628707 0.42266268
vn 0.73768976 0.51723021 0.43392018
vn 0.00000000 0.76610826 0.64271155
vn 0.00000000 0.57347087 0.81922596
vn 0.73776589 0.38712533 0.55302393
vn 0.00000000 0.34173832 0.93979515
vn 0.73767594 0.23072632 0.63450734
vn 0.73767484 -0.28536331 0.61188529
vn 0.00000000 -0.42266268 0.90628707
vn 0.73777466 -0.11724799 0.66478677
vn 0.08361705 0.08688387 0.99270307
vn 0.00000000 -0.17368861 0.98480062
vn 0.00000000 0.08718921 0.99619177
vn 0.73760747 -0.55308135 0.38734512
vn 0.00000000 -0.64287898 0.76596777
vn 0.73774262 -0.43399608 0.51709112
vn 0.00000000 -0.81910097 0.57364937
vn 0.73779844 -0.63429695 0.23091306
vn 0.00000000 -0.93966983 0.34208274
vn 0.58452753 -0.47987986 0.65424987
vn 0.00000000 -0.59144110 0.80634820
vn 0.00000000 0.72246077 0.69141191
vn 0.58453323 0.58618283 0.56099072
vn 0.73777466 0.66478677 0.11724799
vn 0.00000000 0.98480062 0.17368861
vn 0.73760926 0.61197202 0.28534684
vn 0.00000000 0.90631936 0.42259344
vn 0.73778952 0.51711854 0.43388366
vn 0.00000000 0.76606656 0.64276126
vn 0.00000000 0.57351044 0.81919825
vn 0.73763876 0.38723171 0.55311903
vn 0.00000000 0.34200801 0.93969704
vn 0.73774535 0.23088246 0.63436983
vn 0.73765129 -0.28543377 0.61188082
vn 0.00000000 -0.42275094 0.90624591
vn 0.73775111 -0.11718772 0.66482354
vn 0.08360626 0.08688395 0.99270397
vn 0.00000000 -0.17359271 0.98481753
vn 0.00000000 0.08718921 0.99619177
vn 0.73766032 -0.55294939 0.38743286
vn 0.00000000 -0.64271155 0.76610826
vn 0.73768976 -0.43392018 0.51723021
vn 0.00000000 -0.81897558 0.57382838
vn 0.73779844 -0.63429695 0.23091306
vn 0.00000000 -0.93966983 0.34208274
vn 0.58452944 -0.47988997 0.65424074
vn 0.00000000 -0.59145457 0.80633833
vn 0.00000000 0.72244922 0.69142398
vn 0.58453132 0.58617445 0.56100147
vn 0.73777466 0.66478677 0.11724799
vn 0.00000000 0.98480062 0.17368861
vn 0.73765129 0.61188082 0.28543377
vn 0.00000000 0.90624591 0.42275094
vn 0.73768976 0.51723021 0.43392018
vn 0.00000000 0.76610826 0.64271155
vn 0.00000000 0.57370594 0.81906135
vn 0.73769648 0.38732753 0.55297494
vn 0.00000000 0.34200801 0.93969704
vn 0.73774535 0.23088246 0.63436983
vn 0.73765129 -0.28543377 0.61188082
vn 0.00000000 -0.42275094 0.90624591
vn 0.73777466 -0.11724799 0.66478677
vn 0.08360996 0.08688393 0.99270366
vn 0.00000000 -0.17368861 0.98480062
vn 0.00000000 0.08718921 0.99619177
vn 0.73754977 -0.55322540 0.38724927
vn 0.00000000 -0.64292865 0.76592607
vn 0.73784239 -0.43395951 0.51697945
vn 0.00000000 -0.81923785 0.57345388
vn 0.73779844 -0.63429695 0.23091306
vn 0.00000000 -0.93966983 0.34208274
vn 0.58452216 -0.47985155 0.65427542
vn 0.00000000 -0.59140339 0.80637586
vn 0.00000000 0.72248340 0.69138827
vn 0.58454021 0.58619755 0.56096807
vn 0.73774771 0.66482555 0.11719769
vn 0.00000000 0.98481510 0.17360653
vn 0.73767484 0.61188529 0.28536331
vn 0.00000000 0.90628707 0.42266268
vn 0.73768976 0.51723021 0.43392018
vn 0.00000000 0.76610826 0.64271155
vn 0.00000000 0.57347087 0.81922596
vn 0.73776589 0.38712533 0.55302393
vn 0.00000000 0.34203530 0.93968711
vn 0.73759952 0.23095538 0.63451285
vn 0.73768393 -0.28512343 0.61198615
vn 0.00000000 -0.42231360 0.90644979
vn 0.73769649 -0.11747772 0.66483297
vn 0.08400655 0.08687387 0.99267106
vn 0.00000000 -0.17400691 0.98474443
vn 0.00000000 0.08718204 0.99619240
vn 0.73776589 -0.55302393 0.38712533
vn 0.00000000 -0.64271155 0.76610826
vn 0.73768976 -0.43392018 0.51723021
vn 0.00000000 -0.81922596 0.57347087
vn 0.73759952 -0.63451285 0.23095538
vn 0.00000000 -0.93968711 0.34203530
vn 0.58457496 -0.47962489 0.65439444
vn 0.00000000 -0.59115176 0.80656035
vn 0.00000000 0.72244197 0.69143156
vn 0.58453011 0.58616920 0.56100822
vn 0.73777466 0.66478677 0.11724799
vn 0.00000000 0.98480062 0.17368861
vn 0.73765129 0.61188082 0.28543377
vn 0.00000000 0.90624591 0.42275094
vn 0.73768976 0.51723021 0.43392018
vn 0.00000000 0.76610826 0.64271155
vn 0.00000000 0.57347087 0.81922596
vn 0.73776589 0.38712533 0.55302393
vn 0.00000000 0.34203530 0.93968711
vn 0.73759952 0.23095538 0.63451285
vn 0.73767484 -0.28536331 0.61188529
vn 0.00000000 -0.42266268 0.90628707
vn 0.73762182 -0.11728662 0.66494955
vn 0.08401766 0.08687379 0.99267013
vn 0.00000000 -0.17370287 0.98479811
vn 0.00000000 0.08718204 0.99619240
vn 0.73776589 -0.55302393 0.38712533
vn 0.00000000 -0.64271155 0.76610826
vn 0.73768976 -0.43392018 0.51723021
vn 0.00000000 -0.81922596 0.57347087
vn 0.73759952 -0.63451285 0.23095538
vn 0.00000000 -0.93968711 0.34203530
vn 0.58457807 -0.47964127 0.65437966
vn 0.00000000 -0.59117357 0.80654436
vn 0.00000000 0.72219974 0.69168456
vn 0.58456411 0.58595497 0.56119655
vn 0.73759831 0.66498624 0.11722644
vn 0.00000000 0.98481499 0.17360713
vn 0.73781548 0.61175618 0.28527651
vn 0.00000000 0.90630216 0.42263033
vn 0.73768149 0.51701510 0.43419052
vn 0.00000000 0.76577938 0.64310336
vn 0.00000000 0.57363290 0.81911250
vn 0.73760261 0.38733705 0.55309348
vn 0.00000000 0.34208274 0.93966983
vn 0.73779844 0.23091306 0.63429695
vn 0.73767484 -0.28536331 0.61188529
vn 0.00000000 -0.42266268 0.90628707
vn 0.00000000 0.08719861 0.99619095
vn 0.70710807 0.06163370 0.70441427
vn 0.00000000 0.00000000 -0.00000000
vn 1.00000000 -0.00000000 -0.00000000
vn 0.73774771 -0.11719769 0.66482555
vn 0.08357641 0.08680079 0.99271376
vn 0.00000000 -0.17360653 0.98481510
vn 0.00000000 0.08710554 0.99619909
vn 0.73774771 -0.11719769 0.66482555
vn 0.08357060 0.08680083 0.99271424
vn 0.00000000 -0.17360653 0.98481510
vn 0.00000000 0.08710554 0.99619909
vn -0.02651992 0.08705858 0.99585014
vn -0.01731040 0.71625899 0.69761981
vn 0.57795525 0.59411248 0.55946233
vn 0.72872619 0.67438664 0.11899919
vn -0.02652113 0.98446285 0.17357861
vn 0.72869875 0.62067485 0.28941468
vn -0.02655654 0.90609770 0.42223418
vn 0.72871273 0.52464257 0.44014535
vn -0.02655422 0.76569861 0.64265116
vn -0.02652063 0.57322697 0.81896734
vn 0.72876154 0.39277603 0.56092210
vn -0.02649873 0.34198695 0.93933101
vn 0.72869744 0.23424181 0.64352996
vn 0.72875631 0.05968153 0.68216739
vn -0.02650550 -0.17354566 0.98446908
vn 0.72872053 -0.11897621 0.67439680
vn -0.02652563 -0.42250219 0.90597367
vn 0.72869890 -0.28944392 0.62066105
vn -0.02652248 -0.64267953 0.76567590
vn 0.72872630 -0.44012359 0.52464197
vn -0.02649554 -0.81885263 0.57339197
vn 0.72879383 -0.56095092 0.39267496
vn -0.02651017 -0.93933285 0.34198101
vn 0.72863388 -0.64361627 0.23420240
vn 0.57798455 -0.48790987 0.65412370
vn -0.01729862 -0.58426139 0.81138116
vn 0.00001519 0.72221674 0.69166682
vn 0.58456411 0.58595497 0.56119655
vn 0.73759831 0.66498624 0.11722644
vn 0.00000000 0.98481499 0.17360713
vn 0.73772899 0.23075689 0.63443454
vn 0.00000000 0.34181296 0.93976800
vn 0.73781548 0.61175618 0.28527651
vn 0.00000000 0.90630216 0.42263033
vn 0.73772976 0.38723058 0.55299845
vn 0.00000000 0.57359323 0.81914029
vn 0.73762377 0.51716701 0.43410766
vn 0.00000000 0.76593285 0.64292058
vn 0.00000000 0.00000000 0.00000000
vn 0.00000000 -0.00000000 -0.00000000
vn -0.00000000 -0.00000000 0.00000000
vn -0.00000000 -0.00000000 -0.00000000
vn -0.00000000 0.00000000 0.00000000
vn -0.00000000 0.00000000 -0.00000000
vn 0.00000000 0.00000000 -0.00000000
vn 0.00000000 0.00000000 0.00000000
vn 0.90453591 -0.32663622 -0.27408679
vn 0.90453216 -0.27409190 0.32664232
vn 0.90453216 0.27409190 -0.32664232
vn 0.90453591 0.32663622 0.27408679
vn 0.57735402 0.52484581 -0.62545920
vn 0.57734652 0.62546326 0.52484922
vn 0.57735402 -0.52484581 0.62545920
vn 0.57734652 -0.62546326 -0.52484922
vn 0.62542084 0.26130105 -0.73523502
vn 0.73769491 0.52666053 -0.42241556
vn 0.67887894 0.57277590 -0.45940305
vn 0.81200289 0.19545261 -0.54995417
vn 0.83080951 -0.30259321 -0.46711124
vn 0.61436443 -0.42898188 -0.66221665
vn 0.67886792 -0.68425609 -0.26633054
vn 0.73770785 -0.62914331 -0.24487919
vn 0.56185302 -0.62660261 0.54008366
vn 0.94046488 -0.25745524 0.22190678
vn 0.95172327 0.27412606 0.13812210
vn 0.55719889 0.74156409 0.37364703
vn 0.67887839 0.43432880 -0.59201573
vn 0.73770087 0.24487172 -0.62915440
vn 0.73769555 0.39935940 -0.54435038
vn 0.67887386 0.26631741 -0.68425530
vn 0.73769927 0.07369185 -0.67109559
vn 0.67887522 0.08014539 -0.72986653
vn 0.73769502 -0.10249514 -0.66730862
vn 0.67887885 -0.11146983 -0.72573962
vn 0.73770377 -0.27170675 -0.61803608
vn 0.67887140 -0.29550493 -0.67216848
vn 0.73770279 -0.42242200 -0.52664433
vn 0.67887223 -0.45941979 -0.57277042
vn 0.97972785 -0.18144695 0.08491376
vn 0.54576446 -0.75894311 0.35517110
vn 0.97391584 0.21333294 0.07731100
vn 0.54814396 0.78634097 0.28496682
vn 0.88102977 0.26674878 -0.39068099
vn 0.86384727 -0.32833198 -0.38205498
vn 0.73769774 -0.67109447 -0.07371735
vn 0.91213296 -0.27366192 0.30515999
vn 0.90453380 0.32663787 0.27409177
vn 0.90453426 -0.27409114 0.32663712
vn 0.92651337 0.31051710 0.21249027
vn 0.90453426 0.27409114 -0.32663712
vn 0.90453380 -0.32663787 -0.27409177
vn 0.58824237 0.45599981 -0.66785858
vn 0.59669328 -0.52302605 -0.60860569
vn 0.67887653 -0.72986230 -0.08017279
vn 0.57397064 -0.54671426 0.60964024
vn 0.56773476 0.67937065 0.46490081
vn 0.57735017 0.52484523 -0.62546324
vn 0.57735037 0.62546313 0.52484514
vn 0.57735037 -0.62546313 -0.52484514
vn 0.57735017 -0.52484523 0.62546324
vn 0.57734945 0.52484770 -0.62546183
vn 0.57735108 -0.62546095 -0.52484696
vn 0.57735108 0.62546095 0.52484696
vn 0.57734945 -0.52484770 0.62546183
vn 0.00000000 0.00000000 0.00000000
vn 0.00000000 -0.00000000 -0.00000000
vn 0.00000000 -0.00000000 0.00000000
vn -0.00000000 0.00000000 -0.00000000
vn 0.00000000 0.00000000 0.00000000
vn -0.00000000 -0.00000000 -0.00000000
vn -0.00000000 -0.00000000 0.00000000
vn 0.00000000 0.00000000 -0.00000000
vn -0.00000000 -0.00000000 -0.00000000
vn -0.00000000 -0.00000000 0.00000000
vn -0.00000000 0.00000000 0.00000000
vn 0.00000000 0.00000000 -0.00000000
vn -0.00000000 -0.00000000 0.00000000
vn 0.00000000 0.00000000 -0.00000000
vn 0.00000000 -0.00000000 -0.00000000
vn 0.00000000 0.00000000 0.00000000
vn -0.00000000 -0.00000000 0.00000000
vn 0.00000000 0.00000000 -0.00000000
vn 0.00000000 0.00000000 0.00000000
vn -0.00000000 -0.00000000 -0.00000000
vn 0.00000000 0.00000000 0.00000000
vn 0.00000000 -0.00000000 -0.00000000
vn 0.00000000 0.00000000 -0.00000000
vn 0.00000000 -0.00000000 0.00000000
vn -0.24254171 -0.08455044 -0.96644956
vn 0.00000455 -0.08715320 -0.99619492
vn 0.00000210 0.15706888 -0.98758765
vn 0.00004593 -0.08709846 -0.99619971
vn 0.00001361 -0.08715079 -0.99619513
vn -0.00000403 -0.08715691 -0.99619460
vn -0.00003498 -0.08709206 -0.99620027
vn -0.23570279 0.15264301 -0.95976263
f 1//1 2//2 3//3
f 2//2 1//1 4//4
f 5//5 6//6 7//7
f 6//6 5//5 8//8
f 9//9 8//8 5//5
f 8//8 9//9 10//10
f 11//11 10//10 9//9
f 10//10 11//11 12//12
f 13//13 12//12 11//11
f 12//12 13//13 14//14
f 15//15 16//16 17//17
f 16//16 15//15 18//18
f 17//17 19//19 20//20
f 19//19 17//17 16//16
f 20//20 21//21 22//22
f 21//21 20//20 19//19
f 23//23 21//21 24//24
f 21//21 23//23 22//22
f 25//25 24//24 26//26
f 24//24 25//25 23//23
f 27//27 26//26 28//28
f 26//26 27//27 25//25
f 29//29 28//28 30//30
f 28//28 29//29 27//27
f 31//31 30//30 32//32
f 30//30 31//31 29//29
f 33//33 32//32 34//34
f 32//32 33//33 31//31
f 35//35 34//34 36//36
f 34//34 35//35 33//33
f 37//37 36//36 38//38
f 36//36 37//37 35//35
f 39//39 38//38 40//40
f 38//38 39//39 37//37
f 41//41 40//40 42//42
f 40//40 41//41 39//39
f 43//43 42//42 44//44
f 42//42 43//43 41//41
f 45//45 44//44 46//46
f 44//44 45//45 43//43
f 47//47 45//45 46//46
f 45//45 47//47 48//48
f 7//7 48//48 47//47
f 48//48 7//7 6//6
f 49//49 50//50 51//51
f 50//50 49//49 52//52
f 53//53 54//54 55//55
f 54//54 53//53 56//56
f 57//57 58//58 59//59
f 58//58 57//57 60//60
f 59//59 61//61 62//62
f 61//61 59//59 58//58
f 62//62 63//63 64//64
f 63//63 62//62 61//61
f 64//64 18//18 15//15
f 18//18 64//64 63//63
f 65//65 66//66 67//67
f 66//66 65//65 68//68
f 69//69 70//70 71//71
f 70//70 69//69 72//72
f 73//73 74//74 75//75
f 74//74 73//73 76//76
f 77//77 78//78 79//79
f 78//78 77//77 80//80
f 81//81 82//82 83//83
f 82//82 81//81 84//84
f 85//85 86//86 87//87
f 86//86 85//85 88//88
f 89//89 90//90 91//91
f 90//90 89//89 92//92
f 93//93 94//94 95//95
f 94//94 93//93 96//96
f 97//97 98//98 99//99
f 97//97 100//100 98//98
f 100//100 101//101 102//102
f 97//97 101//101 100//100
f 101//101 97//97 103//103
f 104//104 99//99 98//98
f 102//102 99//99 104//104
f 99//99 102//102 101//101
f 105//105 106//106 107//107
f 105//105 108//108 106//106
f 108//108 97//97 109//109
f 97//97 108//108 105//105
f 110//110 107//107 106//106
f 109//109 107//107 110//110
f 109//109 99//99 107//107
f 99//99 109//109 97//97
f 18//18 15//15 16//16
f 17//17 16//16 15//15
f 16//16 17//17 19//19
f 20//20 19//19 17//17
f 19//19 20//20 21//21
f 22//22 21//21 20//20
f 22//22 23//23 21//21
f 24//24 21//21 23//23
f 23//23 25//25 24//24
f 26//26 24//24 25//25
f 25//25 27//27 26//26
f 28//28 26//26 27//27
f 27//27 29//29 28//28
f 30//30 28//28 29//29
f 29//29 31//31 30//30
f 32//32 30//30 31//31
f 31//31 33//33 32//32
f 34//34 32//32 33//33
f 33//33 35//35 34//34
f 36//36 34//34 35//35
f 35//35 37//37 36//36
f 38//38 36//36 37//37
f 37//37 39//39 38//38
f 40//40 38//38 39//39
f 39//39 41//41 40//40
f 42//42 40//40 41//41
f 41//41 43//43 42//42
f 44//44 42//42 43//43
f 43//43 45//45 44//44
f 46//46 44//44 45//45
f 48//48 47//47 45//45
f 46//46 45//45 47//47
f 6//6 7//7 48//48
f 47//47 48//48 7//7
f 111//111 112//112 113//113
f 112//112 111//111 114//114
f 115//115 111//111 113//113
f 111//111 115//115 116//116
f 117//117 115//115 118//118
f 115//115 117//117 116//116
f 119//119 117//117 120//120
f 117//117 119//119 121//121
f 116//116 122//122 123//123
f 122//122 116//116 124//124
f 117//117 123//123 120//120
f 123//123 117//117 116//116
f 120//120 125//125 119//119
f 120//120 126//126 125//125
f 126//126 123//123 127//127
f 123//123 126//126 120//120
f 128//128 119//119 125//125
f 127//127 119//119 128//128
f 127//127 122//122 119//119
f 122//122 127//127 123//123
f 129//129 128//128 125//125
f 128//128 129//129 130//130
f 131//131 125//125 126//126
f 125//125 131//131 129//129
f 130//130 127//127 128//128
f 127//127 130//130 132//132
f 127//127 131//131 126//126
f 131//131 127//127 132//132
f 133//133 134//134 135//135
f 134//134 133//133 111//111
f 136//136 137//137 138//138
f 137//137 136//136 114//114
f 111//111 136//136 134//134
f 136//136 111//111 114//114
f 138//138 139//139 136//136
f 138//138 140//140 139//139
f 140//140 135//135 141//141
f 135//135 140//140 138//138
f 142//142 136//136 139//139
f 141//141 136//136 142//142
f 141//141 134//134 136//136
f 134//134 141//141 135//135
f 141//141 143//143 140//140
f 143//143 141//141 144//144
f 145//145 141//141 142//142
f 141//141 145//145 144//144
f 143//143 139//139 140//140
f 139//139 143//143 146//146
f 146//146 142//142 139//139
f 142//142 146//146 145//145
f 147//147 148//148 149//149
f 148//148 147//147 150//150
f 150//150 151//151 152//152
f 151//151 150//150 147//147
f 153//153 152//152 151//151
f 152//152 153//153 154//154
f 155//155 153//153 156//156
f 153//153 155//155 154//154
f 148//148 156//156 149//149
f 156//156 148//148 155//155
f 147//147 153//153 151//151
f 149//149 153//153 147//147
f 153//153 149//149 156//156
f 157//157 158//158 159//159
f 158//158 157//157 160//160
f 161//161 160//160 157//157
f 160//160 161//161 162//162
f 163//163 162//162 161//161
f 162//162 163//163 164//164
f 165//165 163//163 166//166
f 163//163 165//165 164//164
f 165//165 167//167 168//168
f 167//167 165//165 166//166
f 159//159 168//168 167//167
f 168//168 159//159 158//158
f 161//161 166//166 163//163
f 157//157 166//166 161//161
f 159//159 166//166 157//157
f 166//166 159//159 167//167
f 169//169 170//170 171//171
f 170//170 169//169 172//172
f 173//173 172//172 169//169
f 172//172 173//173 174//174
f 175//175 174//174 173//173
f 174//174 175//175 176//176
f 177//177 175//175 178//178
f 175//175 177//177 176//176
f 177//177 179//179 180//180
f 179//179 177//177 178//178
f 170//170 181//181 171//171
f 181//181 170//170 182//182
f 183//183 184//184 185//185
f 184//184 183//183 186//186
f 187//187 186//186 183//183
f 186//186 187//187 188//188
f 189//189 188//188 187//187
f 188//188 189//189 190//190
f 191//191 189//189 192//192
f 189//189 191//191 190//190
f 191//191 193//193 194//194
f 193//193 191//191 192//192
f 194//194 195//195 196//196
f 195//195 194//194 193//193
f 196//196 197//197 198//198
f 197//197 196//196 195//195
f 199//199 197//197 200//200
f 197//197 199//199 198//198
f 201//201 200//200 202//202
f 200//200 201//201 199//199
f 184//184 203//203 185//185
f 203//203 184//184 204//204
f 179//179 205//205 206//206
f 179//179 181//181 205//205
f 179//179 171//171 181//181
f 179//179 169//169 171//171
f 179//179 173//173 169//169
f 179//179 175//175 173//173
f 175//175 179//179 178//178
f 182//182 205//205 181//181
f 205//205 182//182 207//207
f 208//208 202//202 206//206
f 202//202 208//208 201//201
f 209//209 210//210 211//211
f 210//210 209//209 212//212
f 213//213 212//212 209//209
f 212//212 213//213 214//214
f 215//215 214//214 213//213
f 214//214 215//215 216//216
f 217//217 215//215 218//218
f 215//215 217//217 216//216
f 217//217 219//219 220//220
f 219//219 217//217 218//218
f 220//220 221//221 222//222
f 221//221 220//220 219//219
f 222//222 223//223 224//224
f 223//223 222//222 221//221
f 225//225 223//223 226//226
f 223//223 225//225 224//224
f 227//227 226//226 228//228
f 226//226 227//227 225//225
f 210//210 229//229 211//211
f 229//229 210//210 230//230
f 187//187 192//192 189//189
f 183//183 192//192 187//187
f 185//185 192//192 183//183
f 203//203 192//192 185//185
f 203//203 193//193 192//192
f 203//203 195//195 193//193
f 231//231 195//195 203//203
f 231//231 197//197 195//195
f 231//231 200//200 197//197
f 232//232 200//200 231//231
f 232//232 202//202 200//200
f 202//202 232//232 206//206
f 204//204 231//231 203//203
f 231//231 204//204 233//233
f 234//234 228//228 232//232
f 228//228 234//234 227//227
f 207//207 206//206 205//205
f 206//206 207//207 208//208
f 180//180 208//208 179//179
f 206//206 179//179 208//208
f 235//235 236//236 237//237
f 236//236 235//235 238//238
f 239//239 238//238 235//235
f 238//238 239//239 240//240
f 241//241 240//240 239//239
f 240//240 241//241 242//242
f 243//243 241//241 244//244
f 241//241 243//243 242//242
f 243//243 245//245 246//246
f 245//245 243//243 244//244
f 246//246 247//247 248//248
f 247//247 246//246 245//245
f 248//248 249//249 250//250
f 249//249 248//248 247//247
f 251//251 249//249 252//252
f 249//249 251//251 250//250
f 253//253 252//252 254//254
f 252//252 253//253 251//251
f 236//236 255//255 237//237
f 255//255 236//236 256//256
f 213//213 218//218 215//215
f 209//209 218//218 213//213
f 211//211 218//218 209//209
f 229//229 218//218 211//211
f 229//229 219//219 218//218
f 257//257 219//219 229//229
f 257//257 221//221 219//219
f 257//257 223//223 221//221
f 258//258 223//223 257//257
f 258//258 226//226 223//223
f 258//258 228//228 226//226
f 228//228 258//258 232//232
f 230//230 257//257 229//229
f 257//257 230//230 259//259
f 260//260 254//254 258//258
f 254//254 260//260 253//253
f 233//233 232//232 231//231
f 232//232 233//233 234//234
f 208//208 234//234 206//206
f 232//232 206//206 234//234
f 261//261 262//262 263//263
f 262//262 261//261 264//264
f 265//265 264//264 261//261
f 264//264 265//265 266//266
f 267//267 266//266 265//265
f 266//266 267//267 268//268
f 269//269 267//267 270//270
f 267//267 269//269 268//268
f 269//269 271//271 272//272
f 271//271 269//269 270//270
f 272//272 273//273 274//274
f 273//273 272//272 271//271
f 274//274 275//275 276//276
f 275//275 274//274 273//273
f 277//277 275//275 278//278
f 275//275 277//277 276//276
f 279//279 278//278 280//280
f 278//278 279//279 277//277
f 262//262 281//281 263//263
f 281//281 262//262 282//282
f 239//239 244//244 241//241
f 235//235 244//244 239//239
f 237//237 244//244 235//235
f 255//255 244//244 237//237
f 255//255 245//245 244//244
f 283//283 245//245 255//255
f 283//283 247//247 245//245
f 283//283 249//249 247//247
f 284//284 249//249 283//283
f 284//284 252//252 249//249
f 284//284 254//254 252//252
f 254//254 284//284 258//258
f 256//256 283//283 255//255
f 283//283 256//256 285//285
f 286//286 280//280 284//284
f 280//280 286//286 279//279
f 259//259 258//258 257//257
f 258//258 259//259 260//260
f 234//234 260//260 232//232
f 258//258 232//232 260//260
f 287//287 288//288 289//289
f 288//288 287//287 290//290
f 291//291 290//290 287//287
f 290//290 291//291 292//292
f 293//293 292//292 291//291
f 292//292 293//293 294//294
f 295//295 293//293 296//296
f 293//293 295//295 294//294
f 295//295 297//297 298//298
f 297//297 295//295 296//296
f 298//298 299//299 300//300
f 299//299 298//298 297//297
f 300//300 301//301 302//302
f 301//301 300//300 299//299
f 303//303 301//301 304//304
f 301//301 303//303 302//302
f 305//305 304//304 306//306
f 304//304 305//305 303//303
f 288//288 307//307 289//289
f 307//307 288//288 308//308
f 265//265 270//270 267//267
f 261//261 270//270 265//265
f 263//263 270//270 261//261
f 281//281 270//270 263//263
f 281//281 271//271 270//270
f 309//309 271//271 281//281
f 309//309 273//273 271//271
f 309//309 275//275 273//273
f 310//310 275//275 309//309
f 310//310 278//278 275//275
f 310//310 280//280 278//278
f 280//280 310//310 284//284
f 282//282 309//309 281//281
f 309//309 282//282 311//311
f 285//285 284//284 283//283
f 284//284 285//285 286//286
f 260//260 286//286 258//258
f 284//284 258//258 286//286
f 312//312 306//306 310//310
f 306//306 312//312 305//305
f 313//313 314//314 315//315
f 314//314 313//313 316//316
f 317//317 316//316 313//313
f 316//316 317//317 318//318
f 319//319 318//318 317//317
f 318//318 319//319 320//320
f 321//321 319//319 322//322
f 319//319 321//321 320//320
f 321//321 323//323 324//324
f 323//323 321//321 322//322
f 324//324 325//325 326//326
f 325//325 324//324 323//323
f 326//326 327//327 328//328
f 327//327 326//326 325//325
f 329//329 327//327 330//330
f 327//327 329//329 328//328
f 331//331 330//330 332//332
f 330//330 331//331 329//329
f 314//314 333//333 315//315
f 333//333 314//314 334//334
f 335//335 336//336 337//337
f 338//338 337//337 336//336
f 291//291 296//296 293//293
f 287//287 296//296 291//291
f 289//289 296//296 287//287
f 307//307 296//296 289//289
f 307//307 297//297 296//296
f 339//339 297//297 307//307
f 339//339 299//299 297//297
f 339//339 301//301 299//299
f 340//340 301//301 339//339
f 340//340 304//304 301//301
f 340//340 306//306 304//304
f 306//306 340//340 310//310
f 308//308 339//339 307//307
f 339//339 308//308 341//341
f 342//342 332//332 340//340
f 332//332 342//342 331//331
f 311//311 310//310 309//309
f 310//310 311//311 312//312
f 286//286 312//312 284//284
f 310//310 284//284 312//312
f 317//317 322//322 319//319
f 313//313 322//322 317//317
f 315//315 322//322 313//313
f 333//333 322//322 315//315
f 333//333 323//323 322//322
f 333//333 325//325 323//323
f 343//343 325//325 333//333
f 343//343 327//327 325//325
f 343//343 330//330 327//327
f 344//344 330//330 343//343
f 344//344 332//332 330//330
f 332//332 344//344 340//340
f 334//334 343//343 333//333
f 343//343 334//334 345//345
f 346//346 347//347 344//344
f 337//337 344//344 347//347
f 338//338 344//344 337//337
f 341//341 340//340 339//339
f 340//340 341//341 342//342
f 312//312 342//342 310//310
f 340//340 310//310 342//342
f 345//345 344//344 343//343
f 344//344 345//345 346//346
f 342//342 346//346 340//340
f 344//344 340//340 346//346
f 348//348 336//336 349//349
f 336//336 348//348 335//335
f 348//348 350//350 351//351
f 350//350 348//348 349//349
f 351//351 352//352 353//353
f 352//352 351//351 350//350
f 353//353 354//354 355//355
f 354//354 353//353 352//352
f 356//356 354//354 357//357
f 354//354 356//356 355//355
f 358//358 357//357 359//359
f 357//357 358//358 356//356
f 347//347 359//359 360//360
f 359//359 347//347 358//358
f 361//361 360//360 362//362
f 360//360 361//361 347//347
f 363//363 362//362 364//364
f 362//362 363//363 361//361
f 365//365 364//364 366//366
f 364//364 365//365 363//363
f 366//366 367//367 365//365
f 367//367 366//366 368//368
f 368//368 369//369 367//367
f 369//369 368//368 370//370
f 371//371 369//369 370//370
f 369//369 371//371 372//372
f 373//373 371//371 374//374
f 371//371 373//373 372//372
f 373//373 375//375 376//376
f 375//375 373//373 374//374
f 346//346 377//377 344//344
f 377//377 346//346 378//378
f 338//338 349//349 336//336
f 338//338 350//350 349//349
f 338//338 352//352 350//350
f 338//338 354//354 352//352
f 338//338 357//357 354//354
f 338//338 359//359 357//357
f 359//359 338//338 360//360
f 376//376 379//379 380//380
f 379//379 376//376 375//375
f 378//378 381//381 377//377
f 381//381 378//378 382//382
f 370//370 374//374 371//371
f 368//368 374//374 370//370
f 366//366 374//374 368//368
f 364//364 374//374 366//366
f 364//364 375//375 374//374
f 362//362 375//375 364//364
f 362//362 379//379 375//375
f 362//362 383//383 379//379
f 360//360 383//383 362//362
f 360//360 381//381 383//383
f 360//360 377//377 381//381
f 338//338 377//377 360//360
f 377//377 338//338 344//344
f 380//380 383//383 384//384
f 383//383 380//380 379//379
f 382//382 383//383 381//381
f 383//383 382//382 384//384
f 385//385 386//386 387//387
f 388//388 387//387 386//386
f 389//389 386//386 390//390
f 385//385 390//390 386//386
f 390//390 385//385 391//391
f 387//387 391//391 385//385
f 388//388 392//392 387//387
f 391//391 387//387 392//392
f 389//389 390//390 392//392
f 391//391 392//392 390//390
f 107//107 393//393 105//105
f 393//393 107//107 394//394
f 105//105 103//103 97//97
f 393//393 103//103 105//105
f 103//103 393//393 395//395
f 101//101 107//107 99//99
f 396//396 107//107 101//101
f 107//107 396//396 394//394
f 396//396 103//103 395//395
f 103//103 396//396 101//101
f 109//109 397//397 108//108
f 397//397 109//109 398//398
f 109//109 399//399 398//398
f 399//399 109//109 110//110
f 106//106 397//397 400//400
f 397//397 106//106 108//108
f 399//399 106//106 400//400
f 106//106 399//399 110//110
f 111//111 117//117 114//114
f 117//117 111//111 116//116
f 401//401 402//402 403//403
f 402//402 401//401 404//404
f 401//401 405//405 404//404
f 405//405 401//401 406//406
f 405//405 407//407 408//408
f 407//407 405//405 406//406
f 408//408 409//409 410//410
f 409//409 408//408 407//407
f 403//403 411//411 412//412
f 411//411 403//403 402//402
f 412//412 401//401 403//403
f 412//412 406//406 401//401
f 412//412 407//407 406//406
f 407//407 412//412 409//409
f 409//409 411//411 410//410
f 411//411 409//409 412//412
f 413//413 414//414 415//415
f 414//414 413//413 416//416
f 416//416 417//417 414//414
f 417//417 416//416 418//418
f 418//418 419//419 417//417
f 419//419 418//418 420//420
f 420//420 421//421 419//419
f 421//421 420//420 422//422
f 422//422 423//423 421//421
f 423//423 422//422 424//424
f 424//424 425//425 423//423
f 425//425 424//424 426//426
f 426//426 427//427 425//425
f 427//427 426//426 428//428
f 413//413 427//427 428//428
f 427//427 413//413 415//415
f 428//428 416//416 413//413
f 428//428 418//418 416//416
f 428//428 420//420 418//418
f 428//428 422//422 420//420
f 428//428 424//424 422//422
f 424//424 428//428 426//426
f 429//429 410//410 411//411
f 410//410 429//429 430//430
f 404//404 425//425 427//427
f 405//405 425//425 404//404
f 405//405 86//86 425//425
f 405//405 87//87 86//86
f 405//405 92//92 87//87
f 408//408 92//92 405//405
f 410//410 92//92 408//408
f 430//430 92//92 410//410
f 430//430 90//90 92//92
f 431//431 90//90 430//430
f 432//432 90//90 431//431
f 90//90 432//432 96//96
f 44//44 433//433 46//46
f 42//42 433//433 44//44
f 40//40 433//433 42//42
f 38//38 433//433 40//40
f 36//36 433//433 38//38
f 34//34 433//433 36//36
f 32//32 433//433 34//34
f 30//30 433//433 32//32
f 28//28 433//433 30//30
f 26//26 433//433 28//28
f 24//24 433//433 26//26
f 21//21 433//433 24//24
f 21//21 434//434 433//433
f 434//434 21//21 19//19
f 7//7 435//435 5//5
f 47//47 435//435 7//7
f 46//46 435//435 47//47
f 433//433 435//435 46//46
f 436//436 435//435 433//433
f 437//437 435//435 436//436
f 19//19 437//437 434//434
f 16//16 437//437 19//19
f 18//18 437//437 16//16
f 437//437 432//432 435//435
f 18//18 432//432 437//437
f 18//18 96//96 432//432
f 63//63 96//96 18//18
f 61//61 96//96 63//63
f 61//61 94//94 96//96
f 61//61 60//60 94//94
f 60//60 61//61 58//58
f 9//9 13//13 11//11
f 9//9 3//3 13//13
f 9//9 1//1 3//3
f 5//5 1//1 9//9
f 435//435 1//1 5//5
f 435//435 55//55 1//1
f 429//429 55//55 435//435
f 411//411 55//55 429//429
f 411//411 53//53 55//55
f 402//402 53//53 411//411
f 402//402 51//51 53//53
f 404//404 51//51 402//402
f 427//427 51//51 404//404
f 427//427 49//49 51//51
f 415//415 49//49 427//427
f 415//415 70//70 49//49
f 415//415 71//71 70//70
f 414//414 71//71 415//415
f 414//414 66//66 71//71
f 414//414 67//67 66//66
f 417//417 67//67 414//414
f 417//417 74//74 67//67
f 419//419 74//74 417//417
f 419//419 75//75 74//74
f 419//419 78//78 75//75
f 421//421 78//78 419//419
f 421//421 79//79 78//78
f 421//421 82//82 79//79
f 423//423 82//82 421//421
f 423//423 83//83 82//82
f 425//425 83//83 423//423
f 83//83 425//425 86//86
f 113//113 115//115 112//112
f 118//118 112//112 115//115
f 438//438 430//430 429//429
f 430//430 438//438 439//439
f 430//430 440//440 431//431
f 440//440 430//430 439//439
f 431//431 441//441 432//432
f 441//441 431//431 440//440
f 441//441 435//435 432//432
f 435//435 441//441 442//442
f 438//438 435//435 442//442
f 435//435 438//438 429//429
f 442//442 439//439 438//438
f 442//442 440//440 439//439
f 440//440 442//442 441//441
f 443//443 433//433 444//444
f 433//433 443//443 436//436
f 443//443 437//437 436//436
f 437//437 443//443 445//445
f 437//437 446//446 434//434
f 446//446 437//437 445//445
f 446//446 433//433 434//434
f 433//433 446//446 444//444
f 444//444 393//393 443//443
f 444//444 395//395 393//393
f 395//395 446//446 445//445
f 446//446 395//395 444//444
f 394//394 443//443 393//393
f 396//396 443//443 394//394
f 396//396 445//445 443//443
f 445//445 396//396 395//395
f 98//98 447//447 448//448
f 447//447 98//98 100//100
f 102//102 447//447 100//100
f 447//447 102//102 449//449
f 450//450 98//98 448//448
f 98//98 450//450 104//104
f 102//102 450//450 449//449
f 450//450 102//102 104//104
f 451//451 452//452 453//453
f 454//454 453//453 452//452
f 454//454 455//455 453//453
f 456//456 453//453 455//455
f 457//457 458//458 455//455
f 456//456 455//455 458//458
f 458//458 392//392 456//456
f 453//453 456//456 392//392
f 389//389 392//392 458//458
f 388//388 453//453 392//392
f 386//386 453//453 388//388
f 451//451 453//453 386//386
f 458//458 451//451 389//389
f 386//386 389//389 451//451
f 459//459 460//460 461//461
f 462//462 461//461 460//460
f 463//463 464//464 461//461
f 459//459 461//461 464//464
f 462//462 465//465 461//461
f 463//463 461//461 465//465
f 466//466 465//465 460//460
f 462//462 460//460 465//465
f 466//466 464//464 465//465
f 463//463 465//465 464//464
f 467//467 468//468 469//469
f 470//470 469//469 468//468
f 471//471 468//468 472//472
f 467//467 472//472 468//468
f 472//472 460//460 473//473
f 469//469 473//473 460//460
f 459//459 469//469 460//460
f 464//464 469//469 459//459
f 467//467 466//466 472//472
f 460//460 472//472 466//466
f 464//464 466//466 467//467
f 469//469 464//464 467//467
f 470//470 474//474 469//469
f 473//473 469//469 474//474
f 471//471 472//472 474//474
f 473//473 474//474 472//472
f 95//95 60//60 57//57
f 60//60 95//95 94//94
f 91//91 96//96 93//93
f 96//96 91//91 90//90
f 88//88 83//83 86//86
f 83//83 88//88 81//81
f 84//84 79//79 82//82
f 79//79 84//84 77//77
f 80//80 75//75 78//78
f 75//75 80//80 73//73
f 76//76 67//67 74//74
f 67//67 76//76 65//65
f 68//68 71//71 66//66
f 71//71 68//68 69//69
f 72//72 49//49 70//70
f 49//49 72//72 52//52
f 53//53 50//50 56//56
f 50//50 53//53 51//51
f 55//55 4//4 1//1
f 4//4 55//55 54//54
f 3//3 14//14 13//13
f 14//14 3//3 2//2
f 14//14 10//10 12//12
f 2//2 10//10 14//14
f 4//4 10//10 2//2
f 4//4 8//8 10//10
f 4//4 6//6 8//8
f 54//54 6//6 4//4
f 56//56 6//6 54//54
f 56//56 48//48 6//6
f 56//56 45//45 48//48
f 50//50 45//45 56//56
f 52//52 45//45 50//50
f 52//52 43//43 45//45
f 72//72 43//43 52//52
f 72//72 41//41 43//43
f 69//69 41//41 72//72
f 69//69 39//39 41//41
f 69//69 37//37 39//39
f 68//68 37//37 69//69
f 65//65 37//37 68//68
f 65//65 35//35 37//37
f 76//76 35//35 65//65
f 76//76 33//33 35//35
f 73//73 33//33 76//76
f 73//73 31//31 33//33
f 80//80 31//31 73//73
f 80//80 29//29 31//31
f 80//80 27//27 29//29
f 77//77 27//27 80//80
f 84//84 27//27 77//77
f 84//84 25//25 27//27
f 84//84 23//23 25//25
f 81//81 23//23 84//84
f 88//88 23//23 81//81
f 88//88 22//22 23//23
f 88//88 20//20 22//22
f 85//85 20//20 88//88
f 89//89 20//20 85//85
f 89//89 17//17 20//20
f 89//89 15//15 17//17
f 91//91 15//15 89//89
f 93//93 15//15 91//91
f 93//93 64//64 15//15
f 93//93 62//62 64//64
f 95//95 62//62 93//93
f 57//57 62//62 95//95
f 62//62 57//57 59//59
f 85//85 92//92 89//89
f 92//92 85//85 87//87
f 114//114 111//111 112//112
f 113//113 112//112 111//111
f 116//116 115//115 111//111
f 113//113 111//111 115//115
f 116//116 117//117 115//115
f 118//118 115//115 117//117
f 397//397 399//399 400//400
f 399//399 397//397 398//398
f 116//116 111//111 117//117
f 114//114 117//117 111//111
f 447//447 450//450 448//448
f 450//450 447//447 449//449
f 118//118 455//455 112//112
f 454//454 112//112 455//455
f 474//474 112//112 454//454
f 470//470 112//112 474//474
f 468//468 112//112 470//470
f 114//114 112//112 468//468
f 114//114 457//457 117//117
f 118//118 117//117 457//457
f 455//455 118//118 457//457
f 452//452 457//457 114//114
f 471//471 452//452 114//114
f 454//454 452//452 471//471
f 474//474 454//454 471//471
f 468//468 471//471 114//114
f 457//457 452//452 458//458
f 451//451 458//458 452//452
f 475//475 476//476 129//129
f 131//131 129//129 476//476
f 476//476 129//129 131//131
f 129//129 476//476 475//475
f 477//477 132//132 476//476
f 131//131 476//476 132//132
f 132//132 476//476 131//131
f 476//476 132//132 477//477
f 132//132 131//131 130//130
f 129//129 130//130 131//131
f 131//131 130//130 129//129
f 130//130 131//131 132//132
f 478//478 144//144 479//479
f 143//143 479//479 144//144
f 144//144 479//479 143//143
f 479//479 144//144 478//478
f 480//480 479//479 146//146
f 143//143 146//146 479//479
f 479//479 146//146 143//143
f 146//146 479//479 480//480
f 144//144 143//143 145//145
f 146//146 145//145 143//143
f 143//143 145//145 146//146
f 145//145 143//143 144//144
f 478//478 481//481 144//144
f 145//145 144//144 481//481
f 481//481 144//144 145//145
f 144//144 481//481 478//478
f 481//481 480//480 145//145
f 146//146 145//145 480//480
f 480//480 145//145 146//146
f 145//145 480//480 481//481
f 482//482 132//132 130//130
f 132//132 482//482 477//477
f 475//475 130//130 129//129
f 130//130 475//475 482//482
f 477//477 475//475 482//482
f 475//475 477//477 476//476
f 478//478 480//480 481//481
f 480//480 478//478 479//479
f 124//124 119//119 122//122
f 119//119 124//124 121//121
f 121//121 482//482 117//117
f 121//121 477//477 482//482
f 477//477 124//124 476//476
f 124//124 477//477 121//121
f 475//475 117//117 482//482
f 476//476 117//117 475//475
f 476//476 116//116 117//117
f 116//116 476//476 124//124
f 138//138 133//133 135//135
f 133//133 138//138 137//137
f 114//114 481//481 137//137
f 114//114 478//478 481//481
f 478//478 111//111 479//479
f 111//111 478//478 114//114
f 480//480 137//137 481//481
f 479//479 137//137 480//480
f 479//479 133//133 137//137
f 133//133 479//479 111//111
f 158//158 165//165 168//168
f 160//160 165//165 158//158
f 162//162 165//165 160//160
f 165//165 162//162 164//164
f 154//154 150//150 152//152
f 154//154 148//148 150//150
f 148//148 154//154 155//155
f 208//208 179//179 206//206
f 179//179 208//208 180//180
f 234//234 206//206 232//232
f 206//206 234//234 208//208
f 260//260 232//232 258//258
f 232//232 260//260 234//234
f 286//286 258//258 284//284
f 258//258 286//286 260//260
f 336//336 337//337 338//338
f 337//337 336//336 335//335
f 312//312 284//284 310//310
f 284//284 312//312 286//286
f 337//337 344//344 338//338
f 347//347 344//344 337//337
f 344//344 347//347 346//346
f 342//342 310//310 340//340
f 310//310 342//342 312//312
f 346//346 340//340 344//344
f 340//340 346//346 342//342
f 386//386 387//387 388//388
f 387//387 386//386 385//385
f 386//386 390//390 385//385
f 390//390 386//386 389//389
f 385//385 391//391 387//387
f 391//391 385//385 390//390
f 392//392 387//387 391//391
f 387//387 392//392 388//388
f 390//390 392//392 391//391
f 392//392 390//390 389//389
f 115//115 112//112 118//118
f 112//112 115//115 113//113
f 114//114 471//471 468//468
f 471//471 454//454 474//474
f 471//471 452//452 454//454
f 114//114 452//452 471//471
f 114//114 457//457 452//452
f 457//457 118//118 455//455
f 457//457 117//117 118//118
f 117//117 457//457 114//114
f 468//468 112//112 114//114
f 470//470 112//112 468//468
f 474//474 112//112 470//470
f 454//454 112//112 474//474
f 455//455 112//112 454//454
f 112//112 455//455 118//118
f 452//452 453//453 454//454
f 453//453 452//452 451//451
f 455//455 453//453 456//456
f 453//453 455//455 454//454
f 458//458 455//455 456//456
f 455//455 458//458 457//457
f 451//451 389//389 386//386
f 389//389 451//451 458//458
f 386//386 453//453 451//451
f 388//388 453//453 386//386
f 392//392 453//453 388//388
f 458//458 392//392 389//389
f 392//392 456//456 453//453
f 456//456 392//392 458//458
f 460//460 461//461 462//462
f 461//461 460//460 459//459
f 464//464 461//461 459//459
f 461//461 464//464 463//463
f 465//465 461//461 463//463
f 461//461 465//465 462//462
f 465//465 460//460 462//462
f 460//460 465//465 466//466
f 464//464 465//465 463//463
f 465//465 464//464 466//466
f 468//468 469//469 470//470
f 469//469 468//468 467//467
f 468//468 472//472 467//467
f 472//472 468//468 471//471
f 467//467 464//464 469//469
f 467//467 466//466 464//464
f 466//466 472//472 460//460
f 472//472 466//466 467//467
f 459//459 469//469 464//464
f 460//460 469//469 459//459
f 460//460 473//473 469//469
f 473//473 460//460 472//472
f 474//474 469//469 473//473
f 469//469 474//474 470//470
f 472//472 474//474 473//473
f 474//474 472//472 471//471
f 452//452 458//458 451//451
f 458//458 452//452 457//457