# https://github.com/mikedh/trimesh
v 0.01521400 0.01334000 -0.04592500
v 0.01521400 0.01334000 -0.04412600
v 0.01428200 0.01334000 -0.04557800
v 0.01495200 0.01334000 -0.04438700
v 0.01464400 0.01334000 -0.04461800
v 0.01428900 0.01334000 -0.04481800
v 0.01389100 0.01334000 -0.04498900
v 0.01367200 0.01334000 -0.04574700
v 0.01345800 0.01334000 -0.04512400
v 0.01307000 0.01334000 -0.04586800
v 0.01300400 0.01334000 -0.04522100
v 0.01247500 0.01334000 -0.04594000
v 0.01252800 0.01334000 -0.04528000
v 0.01203000 0.01334000 -0.04529900
v 0.01188800 0.01334000 -0.04596400
v 0.01156100 0.01334000 -0.04528100
v 0.01137100 0.01334000 -0.04594300
v 0.01122600 0.01334000 -0.04522700
v 0.01091000 0.01334000 -0.04587800
v 0.01102700 0.01334000 -0.04513800
v 0.01097600 0.01334000 -0.04508000
v 0.01096000 0.01334000 -0.04501200
v 0.01412300 0.01334000 -0.04291600
v 0.01410900 0.01334000 -0.04297900
v 0.01417500 0.01334000 -0.04446000
v 0.01374100 0.01334000 -0.04455000
v 0.01406500 0.01334000 -0.04303400
v 0.01388900 0.01334000 -0.04311900
v 0.01355200 0.01334000 -0.04318300
v 0.01257400 0.01334000 -0.04468400
v 0.01300800 0.01334000 -0.04324000
v 0.01224600 0.01334000 -0.04330000
v 0.01179100 0.01334000 -0.04474400
v 0.01158700 0.01334000 -0.04336500
v 0.01110300 0.01334000 -0.04483200
v 0.01104700 0.01334000 -0.04344500
v 0.01099500 0.01334000 -0.04490000
v 0.01062500 0.01334000 -0.04353900
v 0.01050400 0.01334000 -0.04577000
v 0.01032200 0.01334000 -0.04364700
v 0.01015300 0.01334000 -0.04561900
v 0.00996700 0.01334000 -0.04385800
v 0.00987100 0.01334000 -0.04543100
v 0.00971100 0.01334000 -0.04410200
v 0.00966900 0.01334000 -0.04521300
v 0.00955800 0.01334000 -0.04437900
v 0.00954800 0.01334000 -0.04496600
v 0.00950800 0.01334000 -0.04468900
v 0.01540700 0.01334000 -0.04333400
v 0.01536900 0.01334000 -0.04304100
v 0.01539300 0.01334000 -0.04349500
v 0.01535000 0.01334000 -0.04364600
v 0.01525600 0.01334000 -0.04278100
v 0.01528100 0.01334000 -0.04378700
v 0.01518200 0.01334000 -0.04392000
v 0.01506700 0.01334000 -0.04255400
v 0.01490100 0.01334000 -0.04415600
v 0.01480300 0.01334000 -0.04236100
v 0.01450800 0.01334000 -0.04435500
v 0.01447300 0.01334000 -0.04220700
v 0.01408500 0.01334000 -0.04209700
v 0.01410800 0.01334000 -0.04284900
v 0.01406300 0.01334000 -0.04279100
v 0.01364200 0.01334000 -0.04203100
v 0.01388300 0.01334000 -0.04270100
v 0.01358300 0.01334000 -0.04264700
v 0.01314000 0.01334000 -0.04200900
v 0.01316100 0.01334000 -0.04262900
v 0.01276400 0.01334000 -0.04264400
v 0.01264200 0.01334000 -0.04202600
v 0.01237400 0.01334000 -0.04268700
v 0.01217200 0.01334000 -0.04207900
v 0.01199000 0.01334000 -0.04275900
v 0.01172700 0.01334000 -0.04216700
v 0.01161000 0.01334000 -0.04286000
v 0.01130900 0.01334000 -0.04229000
v 0.01123700 0.01334000 -0.04298900
v 0.01116000 0.01334000 -0.04234300
v 0.01086900 0.01334000 -0.04314700
v 0.01015100 0.01334000 -0.04203200
v 0.01015100 0.01334000 -0.04355000
v 0.01428200 0.01082500 -0.04557800
v 0.01521400 0.01082500 -0.04592500
v 0.01367200 0.01082500 -0.04574700
v 0.01307000 0.01082500 -0.04586800
v 0.01247500 0.01082500 -0.04594000
v 0.01188800 0.01082500 -0.04596400
v 0.01137100 0.01082500 -0.04594300
v 0.01091000 0.01082500 -0.04587800
v 0.01050400 0.01082500 -0.04577000
v 0.01015300 0.01082500 -0.04561900
v 0.00987100 0.01082500 -0.04543100
v 0.00966900 0.01082500 -0.04521300
v 0.00954800 0.01082500 -0.04496600
v 0.00950800 0.01082500 -0.04468900
v 0.00955800 0.01082500 -0.04437900
v 0.00971100 0.01082500 -0.04410200
v 0.00996700 0.01082500 -0.04385800
v 0.01032200 0.01082500 -0.04364700
v 0.01062500 0.01082500 -0.04353900
v 0.01104700 0.01082500 -0.04344500
v 0.01158700 0.01082500 -0.04336500
v 0.01224600 0.01082500 -0.04330000
v 0.01300800 0.01082500 -0.04324000
v 0.01355200 0.01082500 -0.04318300
v 0.01388900 0.01082500 -0.04311900
v 0.01406500 0.01082500 -0.04303400
v 0.01410900 0.01082500 -0.04297900
v 0.01412300 0.01082500 -0.04291600
v 0.01410800 0.01082500 -0.04284900
v 0.01406300 0.01082500 -0.04279100
v 0.01388300 0.01082500 -0.04270100
v 0.01358300 0.01082500 -0.04264700
v 0.01316100 0.01082500 -0.04262900
v 0.01276400 0.01082500 -0.04264400
v 0.01237400 0.01082500 -0.04268700
v 0.01199000 0.01082500 -0.04275900
v 0.01161000 0.01082500 -0.04286000
v 0.01123700 0.01082500 -0.04298900
v 0.01086900 0.01082500 -0.04314700
v 0.01015100 0.01082500 -0.04355000
v 0.01015100 0.01082500 -0.04203200
v 0.01116000 0.01082500 -0.04234300
v 0.01130900 0.01082500 -0.04229000
v 0.01172700 0.01082500 -0.04216700
v 0.01217200 0.01082500 -0.04207900
v 0.01264200 0.01082500 -0.04202600
v 0.01314000 0.01082500 -0.04200900
v 0.01364200 0.01082500 -0.04203100
v 0.01408500 0.01082500 -0.04209700
v 0.01447300 0.01082500 -0.04220700
v 0.01480300 0.01082500 -0.04236100
v 0.01506700 0.01082500 -0.04255400
v 0.01525600 0.01082500 -0.04278100
v 0.01536900 0.01082500 -0.04304100
v 0.01540700 0.01082500 -0.04333400
v 0.01539300 0.01082500 -0.04349500
v 0.01535000 0.01082500 -0.04364600
v 0.01528100 0.01082500 -0.04378700
v 0.01518200 0.01082500 -0.04392000
v 0.01490100 0.01082500 -0.04415600
v 0.01450800 0.01082500 -0.04435500
v 0.01417500 0.01082500 -0.04446000
v 0.01374100 0.01082500 -0.04455000
v 0.01257400 0.01082500 -0.04468400
v 0.01179100 0.01082500 -0.04474400
v 0.01110300 0.01082500 -0.04483200
v 0.01099500 0.01082500 -0.04490000
v 0.01096000 0.01082500 -0.04501200
v 0.01097600 0.01082500 -0.04508000
v 0.01102700 0.01082500 -0.04513800
v 0.01122600 0.01082500 -0.04522700
v 0.01156100 0.01082500 -0.04528100
v 0.01203000 0.01082500 -0.04529900
v 0.01252800 0.01082500 -0.04528000
v 0.01300400 0.01082500 -0.04522100
v 0.01345800 0.01082500 -0.04512400
v 0.01389100 0.01082500 -0.04498900
v 0.01428900 0.01082500 -0.04481800
v 0.01464400 0.01082500 -0.04461800
v 0.01495200 0.01082500 -0.04438700
v 0.01521400 0.01082500 -0.04412600
v 0.00907900 0.01334000 -0.04410700
v 0.00906300 0.01334000 -0.04390300
v 0.00906300 0.01334000 -0.04428900
v 0.00901500 0.01334000 -0.04370500
v 0.00901400 0.01334000 -0.04446500
v 0.00893400 0.01334000 -0.04351500
v 0.00893300 0.01334000 -0.04463500
v 0.00882100 0.01334000 -0.04333200
v 0.00882000 0.01334000 -0.04480000
v 0.00867800 0.01334000 -0.04315600
v 0.00849700 0.01334000 -0.04511200
v 0.00850100 0.01334000 -0.04298800
v 0.00805200 0.01334000 -0.04267300
v 0.00804600 0.01334000 -0.04540300
v 0.00751400 0.01334000 -0.04241000
v 0.00750700 0.01334000 -0.04564800
v 0.00692500 0.01334000 -0.04222200
v 0.00692800 0.01334000 -0.04582200
v 0.00692200 0.01334000 -0.04399700
v 0.00690000 0.01334000 -0.04427000
v 0.00683500 0.01334000 -0.04451400
v 0.00630800 0.01334000 -0.04592700
v 0.00672700 0.01334000 -0.04472900
v 0.00657500 0.01334000 -0.04491600
v 0.00638700 0.01334000 -0.04506800
v 0.00617100 0.01334000 -0.04517600
v 0.00564700 0.01334000 -0.04596200
v 0.00592700 0.01334000 -0.04524100
v 0.00565400 0.01334000 -0.04526200
v 0.00538000 0.01334000 -0.04524100
v 0.00497400 0.01334000 -0.04592700
v 0.00513500 0.01334000 -0.04517600
v 0.00492000 0.01334000 -0.04506800
v 0.00434900 0.01334000 -0.04582400
v 0.00473300 0.01334000 -0.04491800
v 0.00458100 0.01334000 -0.04473100
v 0.00447200 0.01334000 -0.04451500
v 0.00440800 0.01334000 -0.04427100
v 0.00438600 0.01334000 -0.04399700
v 0.00628800 0.01334000 -0.04210900
v 0.00683400 0.01334000 -0.04347400
v 0.00690000 0.01334000 -0.04372200
v 0.00672300 0.01334000 -0.04325200
v 0.00656800 0.01334000 -0.04305700
v 0.00637800 0.01334000 -0.04289700
v 0.00616200 0.01334000 -0.04278400
v 0.00560100 0.01334000 -0.04207200
v 0.00592100 0.01334000 -0.04271500
v 0.00565400 0.01334000 -0.04269200
v 0.00538800 0.01334000 -0.04271500
v 0.00494300 0.01334000 -0.04211000
v 0.00514800 0.01334000 -0.04278400
v 0.00493100 0.01334000 -0.04289800
v 0.00432900 0.01334000 -0.04222300
v 0.00474100 0.01334000 -0.04305800
v 0.00458600 0.01334000 -0.04325400
v 0.00447500 0.01334000 -0.04347600
v 0.00440800 0.01334000 -0.04372300
v 0.00377300 0.01334000 -0.04565200
v 0.00376000 0.01334000 -0.04241200
v 0.00324400 0.01334000 -0.04541100
v 0.00323500 0.01334000 -0.04267700
v 0.00280200 0.01334000 -0.04512200
v 0.00279600 0.01334000 -0.04299200
v 0.00248500 0.01334000 -0.04480800
v 0.00248300 0.01334000 -0.04333500
v 0.00237400 0.01334000 -0.04464000
v 0.00237300 0.01334000 -0.04351600
v 0.00229500 0.01334000 -0.04446700
v 0.00229500 0.01334000 -0.04370400
v 0.00224800 0.01334000 -0.04428600
v 0.00224800 0.01334000 -0.04389900
v 0.00223200 0.01334000 -0.04410000
v 0.00628800 0.01082500 -0.04210900
v 0.00560100 0.01082500 -0.04207200
v 0.00692500 0.01082500 -0.04222200
v 0.00751400 0.01082500 -0.04241000
v 0.00805200 0.01082500 -0.04267300
v 0.00850100 0.01082500 -0.04298800
v 0.00867800 0.01082500 -0.04315600
v 0.00882100 0.01082500 -0.04333200
v 0.00893400 0.01082500 -0.04351500
v 0.00901500 0.01082500 -0.04370500
v 0.00906300 0.01082500 -0.04390300
v 0.00907900 0.01082500 -0.04410700
v 0.00906300 0.01082500 -0.04428900
v 0.00901400 0.01082500 -0.04446500
v 0.00893300 0.01082500 -0.04463500
v 0.00882000 0.01082500 -0.04480000
v 0.00849700 0.01082500 -0.04511200
v 0.00804600 0.01082500 -0.04540300
v 0.00750700 0.01082500 -0.04564800
v 0.00692800 0.01082500 -0.04582200
v 0.00630800 0.01082500 -0.04592700
v 0.00564700 0.01082500 -0.04596200
v 0.00497400 0.01082500 -0.04592700
v 0.00434900 0.01082500 -0.04582400
v 0.00377300 0.01082500 -0.04565200
v 0.00324400 0.01082500 -0.04541100
v 0.00280200 0.01082500 -0.04512200
v 0.00248500 0.01082500 -0.04480800
v 0.00237400 0.01082500 -0.04464000
v 0.00229500 0.01082500 -0.04446700
v 0.00224800 0.01082500 -0.04428600
v 0.00223200 0.01082500 -0.04410000
v 0.00224800 0.01082500 -0.04389900
v 0.00229500 0.01082500 -0.04370400
v 0.00237300 0.01082500 -0.04351600
v 0.00248300 0.01082500 -0.04333500
v 0.00279600 0.01082500 -0.04299200
v 0.00323500 0.01082500 -0.04267700
v 0.00376000 0.01082500 -0.04241200
v 0.00432900 0.01082500 -0.04222300
v 0.00494300 0.01082500 -0.04211000
v 0.00692200 0.01082500 -0.04399700
v 0.00690000 0.01082500 -0.04372200
v 0.00683400 0.01082500 -0.04347400
v 0.00672300 0.01082500 -0.04325200
v 0.00656800 0.01082500 -0.04305700
v 0.00637800 0.01082500 -0.04289700
v 0.00616200 0.01082500 -0.04278400
v 0.00592100 0.01082500 -0.04271500
v 0.00565400 0.01082500 -0.04269200
v 0.00538800 0.01082500 -0.04271500
v 0.00514800 0.01082500 -0.04278400
v 0.00493100 0.01082500 -0.04289800
v 0.00474100 0.01082500 -0.04305800
v 0.00458600 0.01082500 -0.04325400
v 0.00447500 0.01082500 -0.04347600
v 0.00440800 0.01082500 -0.04372300
v 0.00438600 0.01082500 -0.04399700
v 0.00690000 0.01082500 -0.04427000
v 0.00683500 0.01082500 -0.04451400
v 0.00672700 0.01082500 -0.04472900
v 0.00657500 0.01082500 -0.04491600
v 0.00638700 0.01082500 -0.04506800
v 0.00617100 0.01082500 -0.04517600
v 0.00592700 0.01082500 -0.04524100
v 0.00565400 0.01082500 -0.04526200
v 0.00538000 0.01082500 -0.04524100
v 0.00513500 0.01082500 -0.04517600
v 0.00492000 0.01082500 -0.04506800
v 0.00473300 0.01082500 -0.04491800
v 0.00458100 0.01082500 -0.04473100
v 0.00447200 0.01082500 -0.04451500
v 0.00440800 0.01082500 -0.04427100
v -0.00523700 0.01082500 -0.04219300
v -0.00643400 0.01082500 -0.04285000
v -0.00945900 0.01082500 -0.04219300
v -0.00856300 0.01082500 -0.04285000
v -0.00813200 0.01082500 -0.04448400
v -0.00813200 0.01082500 -0.04494400
v -0.00953900 0.01082500 -0.04219300
v -0.01043500 0.01082500 -0.04279000
v -0.01278700 0.01082500 -0.04219300
v -0.01159000 0.01082500 -0.04291100
v -0.00951500 0.01082500 -0.04372100
v -0.00995300 0.01082500 -0.04448400
v -0.00681300 0.01082500 -0.04578300
v -0.01126900 0.01082500 -0.04578300
v -0.00995300 0.01082500 -0.04494400
v -0.01159000 0.01334000 -0.04291100
v -0.00995300 0.01334000 -0.04448400
v -0.00995300 0.01334000 -0.04494400
v -0.01126900 0.01334000 -0.04578300
v -0.00681300 0.01334000 -0.04578300
v -0.00813200 0.01334000 -0.04494400
v -0.00813200 0.01334000 -0.04448400
v -0.00643400 0.01334000 -0.04285000
v -0.00523700 0.01334000 -0.04219300
v -0.00945900 0.01334000 -0.04219300
v -0.00856300 0.01334000 -0.04285000
v -0.00951500 0.01334000 -0.04372100
v -0.01043500 0.01334000 -0.04279000
v -0.00953900 0.01334000 -0.04219300
v -0.01278700 0.01334000 -0.04219300
v -0.00577900 0.01334000 -0.04219300
v 0.00201700 0.01334000 -0.04578300
v 0.00069800 0.01334000 -0.04494400
v -0.00166300 0.01334000 -0.04578300
v -0.00034300 0.01334000 -0.04494400
v 0.00069800 0.01334000 -0.04302900
v 0.00201700 0.01334000 -0.04219300
v -0.00118400 0.01334000 -0.04219300
v -0.00034300 0.01334000 -0.04374200
v -0.00260500 0.01334000 -0.04578300
v -0.00342100 0.01334000 -0.04413100
v -0.00446200 0.01334000 -0.04578300
v -0.00342100 0.01334000 -0.04302900
v -0.00209900 0.01334000 -0.04219300
v -0.00446200 0.01334000 -0.04302900
v 0.00201700 0.01082500 -0.04219300
v -0.00118400 0.01082500 -0.04219300
v 0.00069800 0.01082500 -0.04302900
v 0.00069800 0.01082500 -0.04494400
v 0.00201700 0.01082500 -0.04578300
v -0.00166300 0.01082500 -0.04578300
v -0.00034300 0.01082500 -0.04494400
v -0.00034300 0.01082500 -0.04374200
v -0.00260500 0.01082500 -0.04578300
v -0.00446200 0.01082500 -0.04578300
v -0.00446200 0.01082500 -0.04302900
v -0.00577900 0.01082500 -0.04219300
v -0.00209900 0.01082500 -0.04219300
v -0.00342100 0.01082500 -0.04302900
v -0.00342100 0.01082500 -0.04413100
v -0.11324100 0.00516800 -0.03399400
v 0.11589500 0.00516800 -0.03399400
v -0.11324100 0.00516800 0.04584200
v 0.11589500 0.00516800 0.04584200
v 0.00179700 -0.00706400 -0.05035500
v 0.00150900 0.01082500 -0.05035500
v 0.01059800 0.00173700 -0.05035500
v -0.00758000 0.00173700 -0.05035500
v 0.00150900 0.01082500 -0.06934200
v 0.00179700 -0.00706400 -0.06934200
v 0.01059800 0.00173700 -0.06934200
v -0.00758000 0.00173700 -0.06934200
v 0.11589500 0.00516800 -0.03776600
v -0.11324100 0.00516800 -0.03776600
v 0.11966700 0.00516800 -0.03399400
v 0.11966700 0.00516800 0.04584200
v 0.11966700 0.00516800 -0.03776600
v 0.11966700 0.01082500 -0.03776600
v -0.11701300 0.01082500 -0.03776600
v -0.11701300 0.00516800 -0.03776600
v -0.11701300 0.00516800 -0.03399400
v 0.11589500 0.00516800 0.04961400
v 0.11966700 0.00516800 0.04961400
v 0.11966700 0.01082500 0.04961400
v -0.11701300 0.00516800 0.04961400
v -0.11701300 0.01082500 0.04961400
v -0.11701300 0.00516800 0.04584200
v -0.11324100 0.00516800 0.04961400
v 0.14075100 -0.00735100 -0.05035500
v 0.13949400 -0.00735100 -0.05035500
v 0.14075100 0.01082500 -0.05035500
v 0.14075100 0.01082500 0.06490000
v 0.13949400 0.01082500 0.06490000
v 0.13949400 -0.00735100 0.06490000
v 0.12923600 -0.00735100 0.06490000
v 0.12060200 -0.01268700 0.06490000
v -0.11295500 -0.01268700 0.06490000
v -0.12158900 -0.00735100 0.06490000
v -0.13773300 0.01082500 0.06490000
v -0.13773300 -0.00735100 0.06490000
v 0.00722500 -0.01657000 -0.07908600
v -0.00273200 -0.01692700 -0.06934200
v 0.00722500 -0.01657000 -0.06934200
v -0.00273200 -0.01692700 -0.07908600
v -0.01153400 -0.01225900 -0.06934200
v -0.01153400 -0.01225900 -0.07908600
v -0.01682200 -0.00381500 -0.07908600
v -0.01682200 -0.00381500 -0.06934200
v -0.01717900 0.00614100 -0.07908600
v -0.01717900 0.00614100 -0.06934200
v -0.01251100 0.01494300 -0.07908600
v -0.01251100 0.01494300 -0.06934200
v -0.00406700 0.02023100 -0.06934200
v -0.00406700 0.02023100 -0.07908600
v 0.00588900 0.02058800 -0.07908600
v 0.01469100 0.01592000 -0.06934200
v 0.00588900 0.02058800 -0.06934200
v 0.01469100 0.01592000 -0.07908600
v 0.01566800 -0.01128200 -0.07908600
v 0.01566800 -0.01128200 -0.06934200
v 0.01998000 0.00747600 -0.07908600
v 0.02033700 -0.00248000 -0.07908600
v 0.01998000 0.00747600 -0.06934200
v 0.02033700 -0.00248000 -0.06934200
v -0.01473300 -0.00838500 -0.06934200
v -0.00863700 0.01814200 -0.06934200
v -0.00744000 -0.01517300 -0.06934200
v 0.01789100 0.01204600 -0.06934200
v 0.01179500 -0.01448200 -0.06934200
v -0.01542400 0.01084900 -0.06934200
v 0.02081300 0.00252200 -0.06934200
v 0.01059800 0.01883400 -0.06934200
v 0.00227000 -0.01740400 -0.06934200
v 0.00088800 0.02106500 -0.06934200
v -0.01765600 0.00113900 -0.06934200
v 0.01858100 -0.00718800 -0.06934200
v -0.13773300 -0.00735100 -0.05035500
v -0.13773300 0.01082500 -0.05035500
v 0.12060200 -0.01268700 -0.05035500
v -0.11295500 -0.01268700 -0.05035500
v 0.12923600 -0.00735100 -0.05035500
v -0.12158900 -0.00735100 -0.05035500
vn 0.00000000 -0.00000000 0.00000000
vn -0.00000000 -0.00000000 0.00000000
vn -0.00000000 -0.00000000 0.00000000
vn 0.00000000 0.00000000 0.00000000
vn 0.00000000 0.00000000 -0.00000000
vn -0.00000000 -0.00000000 0.00000000
vn 0.00000000 0.00000000 0.00000000
vn 0.00000000 0.00000000 0.00000000
vn 0.00000000 0.00000000 -0.00000000
vn 0.00000000 0.00000000 -0.00000000
vn -0.00000000 0.00000000 0.00000000
vn 0.00000000 -0.00000000 0.00000000
vn 0.00000000 0.00000000 0.00000000
vn 0.00000000 0.00000000 -0.00000000
vn 0.00000000 -0.00000000 -0.00000000
vn 0.00000000 -0.00000000 0.00000000
vn 0.00000000 0.00000000 0.00000000
vn -0.00000000 0.00000000 -0.00000000
vn -0.00000000 -0.00000000 -0.00000000
vn 0.00000000 0.00000000 0.00000000
vn -0.00000000 0.00000000 -0.00000000
vn 0.00000000 -0.00000000 -0.00000000
vn 0.00000000 0.00000000 0.00000000
vn 0.00000000 0.00000000 0.00000000
vn 0.00000000 -0.00000000 -0.00000000
vn 0.00000000 0.00000000 0.00000000
vn 0.00000000 -0.00000000 -0.00000000
vn 0.00000000 -0.00000000 -0.00000000
vn -0.00000000 0.00000000 0.00000000
vn -0.00000000 0.00000000 0.00000000
vn -0.00000000 -0.00000000 0.00000000
vn 0.00000000 0.00000000 -0.00000000
vn 0.00000000 0.00000000 0.00000000
vn 0.00000000 0.00000000 0.00000000
vn 0.00000000 -0.00000000 -0.00000000
vn -0.00000000 0.00000000 0.00000000
vn -0.00000000 0.00000000 0.00000000
vn 0.00000000 0.00000000 -0.00000000
vn -0.00000000 -0.00000000 -0.00000000
vn 0.00000000 0.00000000 -0.00000000
vn 0.00000000 -0.00000000 0.00000000
vn 0.00000000 0.00000000 0.00000000
vn 0.00000000 -0.00000000 0.00000000
vn -0.00000000 0.00000000 0.00000000
vn -0.00000000 -0.00000000 -0.00000000
vn 0.00000000 -0.00000000 -0.00000000
vn 0.00000000 -0.00000000 0.00000000
vn -0.00000000 -0.00000000 -0.00000000
vn 0.00000000 -0.00000000 0.00000000
vn -0.00000000 0.00000000 -0.00000000
vn -0.00000000 0.00000000 0.00000000
vn 0.00000000 -0.00000000 -0.00000000
vn 0.00000000 0.00000000 0.00000000
vn -0.00000000 -0.00000000 0.00000000
vn -0.00000000 -0.00000000 0.00000000
vn -0.00000000 -0.00000000 -0.00000000
vn 0.00000000 -0.00000000 -0.00000000
vn -0.00000000 0.00000000 -0.00000000
vn -0.00000000 -0.00000000 0.00000000
vn 0.00000000 0.00000000 0.00000000
vn -0.00000000 -0.00000000 -0.00000000
vn -0.00000000 0.00000000 -0.00000000
vn 0.00000000 -0.00000000 0.00000000
vn 0.00000000 0.00000000 -0.00000000
vn -0.00000000 -0.00000000 -0.00000000
vn 0.00000000 -0.00000000 0.00000000
vn 0.00000000 -0.00000000 0.00000000
vn 0.00000000 0.00000000 -0.00000000
vn -0.00000000 0.00000000 0.00000000
vn 0.00000000 0.00000000 -0.00000000
vn 0.00000000 0.00000000 -0.00000000
vn -0.00000000 0.00000000 0.00000000
vn -0.00000000 0.00000000 0.00000000
vn 0.00000000 0.00000000 0.00000000
vn 0.00000000 -0.00000000 -0.00000000
vn 0.00000000 0.00000000 -0.00000000
vn 0.00000000 -0.00000000 0.00000000
vn -0.00000000 0.00000000 0.00000000
vn -0.00000000 -0.00000000 0.00000000
vn 0.00000000 0.00000000 0.00000000
vn -0.00000000 -0.00000000 -0.00000000
vn 0.00000000 -0.00000000 -0.00000000
vn 0.00000000 -0.00000000 -0.00000000
vn -0.00000000 -0.00000000 0.00000000
vn -0.00000000 -0.00000000 0.00000000
vn 0.00000000 0.00000000 -0.00000000
vn 0.00000000 0.00000000 0.00000000
vn -0.00000000 -0.00000000 0.00000000
vn 0.00000000 -0.00000000 0.00000000
vn 0.00000000 -0.00000000 0.00000000
vn -0.00000000 -0.00000000 -0.00000000
vn -0.00000000 0.00000000 -0.00000000
vn 0.00000000 -0.00000000 0.00000000
vn -0.00000000 0.00000000 -0.00000000
vn 0.00000000 0.00000000 0.00000000
vn -0.00000000 0.00000000 0.00000000
vn 0.00000000 0.00000000 -0.00000000
vn -0.00000000 0.00000000 0.00000000
vn -0.00000000 0.00000000 0.00000000
vn -0.00000000 0.00000000 0.00000000
vn 0.00000000 0.00000000 -0.00000000
vn 0.00000000 0.00000000 -0.00000000
vn -0.00000000 0.00000000 0.00000000
vn -0.00000000 0.00000000 0.00000000
vn 0.00000000 -0.00000000 -0.00000000
vn -0.00000000 0.00000000 0.00000000
vn -0.00000000 0.00000000 0.00000000
vn -0.00000000 0.00000000 -0.00000000
vn -0.00000000 -0.00000000 -0.00000000
vn 0.00000000 -0.00000000 0.00000000
vn -0.00000000 0.00000000 -0.00000000
vn 0.00000000 0.00000000 0.00000000
vn -0.00000000 0.00000000 -0.00000000
vn 0.00000000 0.00000000 0.00000000
vn 0.00000000 0.00000000 -0.00000000
vn -0.00000000 0.00000000 0.00000000
vn -0.00000000 0.00000000 -0.00000000
vn -0.00000000 -0.00000000 0.00000000
vn -0.00000000 0.00000000 -0.00000000
vn 0.00000000 -0.00000000 -0.00000000
vn 0.00000000 0.00000000 0.00000000
vn -0.00000000 0.00000000 0.00000000
vn 0.00000000 -0.00000000 -0.00000000
vn -0.00000000 0.00000000 0.00000000
vn 0.00000000 -0.00000000 0.00000000
vn 0.00000000 -0.00000000 0.00000000
vn -0.00000000 -0.00000000 0.00000000
vn 0.00000000 0.00000000 -0.00000000
vn 0.00000000 0.00000000 0.00000000
vn 0.00000000 0.00000000 0.00000000
vn -0.00000000 0.00000000 -0.00000000
vn 0.00000000 -0.00000000 0.00000000
vn 0.00000000 0.00000000 0.00000000
vn -0.00000000 0.00000000 -0.00000000
vn 0.00000000 -0.00000000 0.00000000
vn -0.00000000 0.00000000 -0.00000000
vn 0.00000000 0.00000000 -0.00000000
vn -0.00000000 -0.00000000 0.00000000
vn 0.00000000 0.00000000 -0.00000000
vn 0.00000000 -0.00000000 -0.00000000
vn -0.00000000 0.00000000 0.00000000
vn 0.00000000 -0.00000000 0.00000000
vn 0.00000000 -0.00000000 0.00000000
vn 0.00000000 -0.00000000 -0.00000000
vn 0.00000000 0.00000000 0.00000000
vn 0.00000000 -0.00000000 -0.00000000
vn -0.00000000 0.00000000 0.00000000
vn 0.00000000 -0.00000000 -0.00000000
vn -0.00000000 0.00000000 0.00000000
vn 0.00000000 0.00000000 0.00000000
vn -0.00000000 0.00000000 -0.00000000
vn 0.00000000 0.00000000 0.00000000
vn -0.00000000 0.00000000 -0.00000000
vn -0.00000000 0.00000000 0.00000000
vn 0.00000000 -0.00000000 -0.00000000
vn 0.00000000 0.00000000 -0.00000000
vn -0.00000000 0.00000000 0.00000000
vn -0.00000000 0.00000000 0.00000000
vn 0.00000000 0.00000000 -0.00000000
vn -0.00000000 -0.00000000 0.00000000
vn 0.00000000 -0.00000000 -0.00000000
vn 0.00000000 0.00000000 -0.00000000
vn -0.00000000 0.00000000 0.00000000
vn 0.00000000 -0.00000000 0.00000000
vn 0.00000000 -0.00000000 -0.00000000
vn -0.00000000 0.00000000 0.00000000
vn -0.00000000 0.00000000 0.00000000
vn -0.00000000 0.00000000 0.00000000
vn 0.00000000 -0.00000000 -0.00000000
vn -0.00000000 -0.00000000 -0.00000000
vn 0.00000000 0.00000000 -0.00000000
vn 0.00000000 0.00000000 -0.00000000
vn 0.00000000 -0.00000000 0.00000000
vn 0.00000000 -0.00000000 0.00000000
vn -0.00000000 -0.00000000 0.00000000
vn 0.00000000 -0.00000000 -0.00000000
vn -0.00000000 0.00000000 -0.00000000
vn 0.00000000 0.00000000 0.00000000
vn 0.00000000 0.00000000 -0.00000000
vn 0.00000000 -0.00000000 0.00000000
vn -0.00000000 0.00000000 0.00000000
vn 0.00000000 -0.00000000 -0.00000000
vn -0.00000000 -0.00000000 0.00000000
vn 0.00000000 -0.00000000 0.00000000
vn 0.00000000 -0.00000000 0.00000000
vn 0.00000000 0.00000000 -0.00000000
vn -0.00000000 0.00000000 0.00000000
vn -0.00000000 0.00000000 0.00000000
vn -0.00000000 -0.00000000 0.00000000
vn 0.00000000 0.00000000 -0.00000000
vn -0.00000000 -0.00000000 0.00000000
vn 0.00000000 0.00000000 0.00000000
vn 0.00000000 -0.00000000 0.00000000
vn -0.00000000 0.00000000 -0.00000000
vn -0.00000000 0.00000000 -0.00000000
vn 0.00000000 0.00000000 0.00000000
vn 0.00000000 0.00000000 0.00000000
vn 0.00000000 0.00000000 0.00000000
vn -0.00000000 0.00000000 -0.00000000
vn 0.00000000 -0.00000000 -0.00000000
vn -0.00000000 0.00000000 0.00000000
vn 0.00000000 -0.00000000 -0.00000000
vn 0.00000000 0.00000000 0.00000000
vn -0.00000000 0.00000000 -0.00000000
vn -0.00000000 0.00000000 -0.00000000
vn 0.00000000 0.00000000 0.00000000
vn -0.00000000 0.00000000 -0.00000000
vn 0.00000000 0.00000000 0.00000000
vn 0.00000000 0.00000000 0.00000000
vn 0.00000000 0.00000000 -0.00000000
vn 0.00000000 0.00000000 -0.00000000
vn -0.00000000 -0.00000000 0.00000000
vn -0.00000000 0.00000000 0.00000000
vn 0.00000000 -0.00000000 -0.00000000
vn 0.00000000 -0.00000000 0.00000000
vn 0.00000000 -0.00000000 -0.00000000
vn 0.00000000 -0.00000000 -0.00000000
vn -0.00000000 0.00000000 0.00000000
vn 0.00000000 0.00000000 -0.00000000
vn 0.00000000 0.00000000 0.00000000
vn -0.00000000 0.00000000 -0.00000000
vn -0.00000000 0.00000000 0.00000000
vn 0.00000000 -0.00000000 0.00000000
vn 0.00000000 0.00000000 -0.00000000
vn 0.00000000 -0.00000000 0.00000000
vn -0.00000000 0.00000000 0.00000000
vn 0.00000000 0.00000000 -0.00000000
vn 0.00000000 -0.00000000 -0.00000000
vn 0.00000000 -0.00000000 -0.00000000
vn -0.00000000 0.00000000 0.00000000
vn -0.00000000 0.00000000 -0.00000000
vn 0.00000000 0.00000000 -0.00000000
vn -0.00000000 -0.00000000 -0.00000000
vn 0.00000000 -0.00000000 -0.00000000
vn -0.00000000 -0.00000000 0.00000000
vn -0.00000000 -0.00000000 0.00000000
vn -0.00000000 0.00000000 -0.00000000
vn -0.00000000 -0.00000000 0.00000000
vn 0.00000000 -0.00000000 0.00000000
vn 0.00000000 0.00000000 0.00000000
vn -0.00000000 0.00000000 -0.00000000
vn 0.00000000 -0.00000000 -0.00000000
vn 0.00000000 0.00000000 0.00000000
vn 0.00000000 0.00000000 0.00000000
vn 0.00000000 0.00000000 0.00000000
vn -0.00000000 0.00000000 -0.00000000
vn 0.00000000 -0.00000000 -0.00000000
vn -0.00000000 0.00000000 0.00000000
vn 0.00000000 -0.00000000 -0.00000000
vn -0.00000000 0.00000000 0.00000000
vn -0.00000000 -0.00000000 0.00000000
vn 0.00000000 -0.00000000 0.00000000
vn 0.00000000 0.00000000 0.00000000
vn 0.00000000 -0.00000000 -0.00000000
vn 0.00000000 -0.00000000 0.00000000
vn -0.00000000 -0.00000000 0.00000000
vn 0.00000000 -0.00000000 -0.00000000
vn -0.00000000 -0.00000000 -0.00000000
vn -0.00000000 -0.00000000 -0.00000000
vn 0.00000000 -0.00000000 0.00000000
vn -0.00000000 -0.00000000 -0.00000000
vn -0.00000000 0.00000000 -0.00000000
vn 0.00000000 -0.00000000 0.00000000
vn 0.00000000 0.00000000 0.00000000
vn -0.00000000 -0.00000000 -0.00000000
vn 0.00000000 -0.00000000 0.00000000
vn 0.00000000 0.00000000 -0.00000000
vn -0.00000000 0.00000000 0.00000000
vn -0.00000000 0.00000000 0.00000000
vn 0.00000000 0.00000000 -0.00000000
vn -0.00000000 0.00000000 0.00000000
vn 0.00000000 0.00000000 -0.00000000
vn -0.00000000 0.00000000 0.00000000
vn 0.00000000 -0.00000000 -0.00000000
vn -0.00000000 0.00000000 0.00000000
vn 0.00000000 -0.00000000 -0.00000000
vn 0.00000000 0.00000000 -0.00000000
vn 0.00000000 -0.00000000 0.00000000
vn -0.00000000 0.00000000 -0.00000000
vn 0.00000000 -0.00000000 0.00000000
vn -0.00000000 -0.00000000 -0.00000000
vn 0.00000000 0.00000000 0.00000000
vn -0.00000000 -0.00000000 -0.00000000
vn -0.00000000 0.00000000 -0.00000000
vn -0.00000000 -0.00000000 0.00000000
vn 0.00000000 -0.00000000 -0.00000000
vn -0.00000000 0.00000000 0.00000000
vn 0.00000000 -0.00000000 -0.00000000
vn -0.00000000 0.00000000 0.00000000
vn 0.00000000 0.00000000 -0.00000000
vn -0.00000000 -0.00000000 0.00000000
vn 0.00000000 0.00000000 -0.00000000
vn 0.00000000 0.00000000 -0.00000000
vn -0.00000000 0.00000000 0.00000000
vn 0.00000000 0.00000000 0.00000000
vn 0.00000000 0.00000000 -0.00000000
vn -0.00000000 0.00000000 0.00000000
vn 0.00000000 0.00000000 0.00000000
vn 0.00000000 0.00000000 -0.00000000
vn -0.00000000 0.00000000 0.00000000
vn 0.00000000 0.00000000 0.00000000
vn -0.00000000 -0.00000000 -0.00000000
vn 0.00000000 0.00000000 0.00000000
vn 0.00000000 0.00000000 0.00000000
vn -0.00000000 0.00000000 -0.00000000
vn -0.00000000 0.00000000 -0.00000000
vn 0.00000000 0.00000000 0.00000000
vn 0.00000000 0.00000000 0.00000000
vn 0.00000000 0.00000000 0.00000000
vn -0.00000000 -0.00000000 0.00000000
vn 0.00000000 -0.00000000 -0.00000000
vn 0.00000000 0.00000000 0.00000000
vn 0.00000000 -0.00000000 -0.00000000
vn -0.00000000 0.00000000 -0.00000000
vn 0.00000000 0.00000000 -0.00000000
vn -0.00000000 0.00000000 0.00000000
vn 0.00000000 -0.00000000 0.00000000
vn -0.00000000 0.00000000 -0.00000000
vn 0.00000000 -0.00000000 0.00000000
vn 0.00000000 -0.00000000 0.00000000
vn 0.00000000 -0.00000000 0.00000000
vn -0.00000000 0.00000000 0.00000000
vn -0.00000000 0.00000000 -0.00000000
vn 0.00000000 0.00000000 0.00000000
vn -0.00000000 0.00000000 0.00000000
vn 0.00000000 -0.00000000 0.00000000
vn 0.00000000 -0.00000000 -0.00000000
vn -0.00000000 0.00000000 0.00000000
vn 0.00000000 0.00000000 0.00000000
vn -0.00000000 0.00000000 0.00000000
vn 0.00000000 -0.00000000 -0.00000000
vn -0.00000000 0.00000000 0.00000000
vn -0.00000000 -0.00000000 0.00000000
vn 0.00000000 0.00000000 0.00000000
vn 0.00000000 0.00000000 0.00000000
vn 0.00000000 0.00000000 -0.00000000
vn -0.00000000 -0.00000000 0.00000000
vn -0.00000000 0.00000000 -0.00000000
vn 0.00000000 0.00000000 0.00000000
vn 0.00000000 -0.00000000 0.00000000
vn -0.00000000 0.00000000 0.00000000
vn 0.00000000 0.00000000 0.00000000
vn -0.00000000 0.00000000 0.00000000
vn 0.00000000 -0.00000000 -0.00000000
vn 0.00000000 -0.00000000 -0.00000000
vn 0.00000000 -0.00000000 0.00000000
vn 0.00000000 -0.00000000 -0.00000000
vn -0.00000000 0.00000000 0.00000000
vn -0.00000000 -0.00000000 0.00000000
vn -0.00000000 -0.00000000 0.00000000
vn 0.00000000 0.00000000 -0.00000000
vn 0.00000000 -0.00000000 0.00000000
vn -0.00000000 0.00000000 0.00000000
vn 0.00000000 0.00000000 0.00000000
vn 0.00000000 -0.00000000 0.00000000
vn -0.00000000 0.00000000 0.00000000
vn 0.00000000 -0.00000000 0.00000000
vn 0.00000000 0.00000000 0.00000000
vn 0.00000000 -0.00000000 0.00000000
vn 0.00000000 0.00000000 0.00000000
vn -0.00000000 0.00000000 0.00000000
vn 0.00000000 -0.00000000 -0.00000000
vn 0.00000000 -0.00000000 0.00000000
vn 0.00000000 -0.00000000 0.00000000
vn -0.00000000 0.00000000 -0.00000000
vn 0.00000000 0.00000000 -0.00000000
vn -0.00000000 0.00000000 0.00000000
vn 0.00000000 0.00000000 0.00000000
vn 0.28267442 0.95921592 -0.00000000
vn -0.28267442 0.95921592 -0.00000000
vn 0.28267442 0.95921592 -0.00000000
vn -0.28267442 0.95921592 0.00000000
vn 0.00000000 0.00000000 -1.00000000
vn -0.00000000 -0.00000000 -1.00000000
vn 0.00000000 0.00000000 -1.00000000
vn 0.00000000 -0.00000000 -1.00000000
vn 0.00000000 0.00000000 1.00000000
vn -0.00000000 0.00000000 1.00000000
vn -0.00000000 -0.00000000 1.00000000
vn -0.00000000 0.00000000 1.00000000
vn 0.00000000 0.70710678 0.70710678
vn 0.00000000 0.70710678 0.70710678
vn -0.70710678 0.70710678 0.00000000
vn -0.70710678 0.70710678 0.00000000
vn -0.57735027 0.57735027 0.57735027
vn -0.82570272 0.19848053 0.52803456
vn 0.82570272 0.19848053 0.52803456
vn 0.57735027 0.57735027 0.57735027
vn 0.70710678 0.70710678 0.00000000
vn 0.00000000 0.70710678 -0.70710678
vn -0.57735027 0.57735027 -0.57735027
vn -0.82570272 0.19848053 -0.52803456
vn 0.57735027 0.57735027 -0.57735027
vn 0.82570272 0.19848053 -0.52803456
vn 0.70710678 0.70710678 0.00000000
vn 0.00000000 0.70710678 -0.70710678
vn 0.00000000 0.00000000 -1.00000000
vn 0.00000000 0.00000000 -1.00000000
vn -0.00000000 0.00000000 -1.00000000
vn 0.00000000 0.00000000 1.00000000
vn 0.00000000 0.00000000 1.00000000
vn -0.00000000 -0.00000000 1.00000000
vn -0.00000000 0.00000000 1.00000000
vn 0.00000000 -0.00000000 1.00000000
vn 0.00000000 0.00000000 1.00000000
vn -0.00000000 -0.00000000 1.00000000
vn -0.70710678 -0.00000000 0.70710678
vn -0.70710678 0.00000000 0.70710678
vn 0.00000000 0.00000000 -0.00000000
vn 0.00000000 0.00000000 1.00000000
vn -0.00000000 -0.00000000 1.00000000
vn -0.00000000 -0.00000000 -0.00000000
vn -0.00000000 -0.00000000 1.00000000
vn 0.00000000 0.00000000 0.00000000
vn 0.00000000 -0.00000000 0.00000000
vn 0.00000000 0.00000000 1.00000000
vn -0.00000000 -0.00000000 0.00000000
vn 0.00000000 0.00000000 1.00000000
vn -0.00000000 0.00000000 -0.00000000
vn 0.00000000 0.00000000 1.00000000
vn -0.00000000 0.00000000 1.00000000
vn -0.00000000 0.00000000 0.00000000
vn -0.00000000 -0.00000000 -0.00000000
vn -0.00000000 0.00000000 1.00000000
vn -0.00000000 0.00000000 1.00000000
vn 0.00000000 -0.00000000 -0.00000000
vn 0.00000000 0.00000000 0.00000000
vn 0.00000000 -0.00000000 1.00000000
vn -0.00000000 0.00000000 -0.00000000
vn 0.00000000 -0.00000000 0.00000000
vn 0.00000000 -0.00000000 1.00000000
vn -0.00000000 -0.00000000 1.00000000
vn 0.00000000 0.00000000 1.00000000
vn 0.00000000 0.00000000 1.00000000
vn 0.00000000 0.00000000 1.00000000
vn 0.00000000 0.00000000 1.00000000
vn 0.00000000 0.00000000 1.00000000
vn 0.00000000 0.00000000 1.00000000
vn 0.00000000 0.00000000 1.00000000
vn 0.00000000 0.00000000 1.00000000
vn 0.00000000 0.00000000 1.00000000
vn 0.00000000 0.00000000 1.00000000
vn 0.00000000 0.00000000 1.00000000
vn 0.00000000 0.00000000 1.00000000
vn -0.70710678 -0.00000000 -0.70710678
vn -0.70710678 -0.00000000 -0.70710678
vn -0.00000000 0.00000000 -1.00000000
vn -0.00000000 -0.00000000 -1.00000000
vn 0.00000000 -0.00000000 -1.00000000
vn 0.00000000 0.00000000 -1.00000000
f 1//1 2//2 3//3
f 4//4 3//3 2//2
f 5//5 3//3 4//4
f 6//6 3//3 5//5
f 7//7 3//3 6//6
f 8//8 3//3 7//7
f 9//9 8//8 7//7
f 10//10 8//8 9//9
f 11//11 10//10 9//9
f 12//12 10//10 11//11
f 13//13 12//12 11//11
f 14//14 12//12 13//13
f 15//15 12//12 14//14
f 16//16 15//15 14//14
f 17//17 15//15 16//16
f 18//18 17//17 16//16
f 19//19 17//17 18//18
f 20//20 19//19 18//18
f 21//21 19//19 20//20
f 22//22 19//19 21//21
f 23//23 24//24 25//25
f 26//26 25//25 24//24
f 27//27 26//26 24//24
f 28//28 26//26 27//27
f 29//29 26//26 28//28
f 30//30 26//26 29//29
f 31//31 30//30 29//29
f 32//32 30//30 31//31
f 33//33 30//30 32//32
f 34//34 33//33 32//32
f 35//35 33//33 34//34
f 36//36 35//35 34//34
f 37//37 35//35 36//36
f 38//38 37//37 36//36
f 22//22 37//37 38//38
f 19//19 22//22 38//38
f 39//39 19//19 38//38
f 40//40 39//39 38//38
f 41//41 39//39 40//40
f 42//42 41//41 40//40
f 43//43 41//41 42//42
f 44//44 43//43 42//42
f 45//45 43//43 44//44
f 46//46 45//45 44//44
f 47//47 45//45 46//46
f 48//48 47//47 46//46
f 49//49 50//50 51//51
f 52//52 51//51 50//50
f 53//53 52//52 50//50
f 54//54 52//52 53//53
f 55//55 54//54 53//53
f 56//56 55//55 53//53
f 57//57 55//55 56//56
f 58//58 57//57 56//56
f 59//59 57//57 58//58
f 60//60 59//59 58//58
f 25//25 59//59 60//60
f 23//23 25//25 60//60
f 61//61 23//23 60//60
f 62//62 23//23 61//61
f 63//63 62//62 61//61
f 64//64 63//63 61//61
f 65//65 63//63 64//64
f 66//66 65//65 64//64
f 67//67 66//66 64//64
f 68//68 66//66 67//67
f 69//69 68//68 67//67
f 70//70 69//69 67//67
f 71//71 69//69 70//70
f 72//72 71//71 70//70
f 73//73 71//71 72//72
f 74//74 73//73 72//72
f 75//75 73//73 74//74
f 76//76 75//75 74//74
f 77//77 75//75 76//76
f 78//78 77//77 76//76
f 79//79 77//77 78//78
f 80//80 79//79 78//78
f 81//81 79//79 80//80
f 80//80 79//79 81//81
f 78//78 79//79 80//80
f 78//78 77//77 79//79
f 76//76 77//77 78//78
f 76//76 75//75 77//77
f 74//74 75//75 76//76
f 74//74 73//73 75//75
f 72//72 73//73 74//74
f 72//72 71//71 73//73
f 70//70 71//71 72//72
f 70//70 69//69 71//71
f 67//67 69//69 70//70
f 67//67 68//68 69//69
f 67//67 66//66 68//68
f 64//64 66//66 67//67
f 64//64 65//65 66//66
f 64//64 63//63 65//65
f 61//61 63//63 64//64
f 61//61 62//62 63//63
f 61//61 23//23 62//62
f 60//60 23//23 61//61
f 60//60 25//25 23//23
f 60//60 59//59 25//25
f 58//58 59//59 60//60
f 58//58 57//57 59//59
f 56//56 57//57 58//58
f 56//56 55//55 57//57
f 53//53 55//55 56//56
f 53//53 54//54 55//55
f 53//53 52//52 54//54
f 50//50 52//52 53//53
f 50//50 51//51 52//52
f 51//51 50//50 49//49
f 46//46 47//47 48//48
f 46//46 45//45 47//47
f 44//44 45//45 46//46
f 44//44 43//43 45//45
f 42//42 43//43 44//44
f 42//42 41//41 43//43
f 40//40 41//41 42//42
f 40//40 39//39 41//41
f 38//38 39//39 40//40
f 38//38 19//19 39//39
f 38//38 22//22 19//19
f 38//38 37//37 22//22
f 36//36 37//37 38//38
f 36//36 35//35 37//37
f 34//34 35//35 36//36
f 34//34 33//33 35//35
f 32//32 33//33 34//34
f 32//32 30//30 33//33
f 31//31 30//30 32//32
f 29//29 30//30 31//31
f 29//29 26//26 30//30
f 28//28 26//26 29//29
f 27//27 26//26 28//28
f 24//24 26//26 27//27
f 24//24 25//25 26//26
f 25//25 24//24 23//23
f 21//21 19//19 22//22
f 20//20 19//19 21//21
f 18//18 19//19 20//20
f 18//18 17//17 19//19
f 16//16 17//17 18//18
f 16//16 15//15 17//17
f 14//14 15//15 16//16
f 14//14 12//12 15//15
f 13//13 12//12 14//14
f 11//11 12//12 13//13
f 11//11 10//10 12//12
f 9//9 10//10 11//11
f 9//9 8//8 10//10
f 7//7 8//8 9//9
f 7//7 3//3 8//8
f 6//6 3//3 7//7
f 5//5 3//3 6//6
f 4//4 3//3 5//5
f 2//2 3//3 4//4
f 3//3 2//2 1//1
f 82//82 83//83 3//3
f 1//1 3//3 83//83
f 83//83 3//3 1//1
f 3//3 83//83 82//82
f 84//84 82//82 8//8
f 3//3 8//8 82//82
f 82//82 8//8 3//3
f 8//8 82//82 84//84
f 85//85 84//84 10//10
f 8//8 10//10 84//84
f 84//84 10//10 8//8
f 10//10 84//84 85//85
f 86//86 85//85 12//12
f 10//10 12//12 85//85
f 85//85 12//12 10//10
f 12//12 85//85 86//86
f 87//87 86//86 15//15
f 12//12 15//15 86//86
f 86//86 15//15 12//12
f 15//15 86//86 87//87
f 88//88 87//87 17//17
f 15//15 17//17 87//87
f 87//87 17//17 15//15
f 17//17 87//87 88//88
f 89//89 88//88 19//19
f 17//17 19//19 88//88
f 88//88 19//19 17//17
f 19//19 88//88 89//89
f 90//90 89//89 39//39
f 19//19 39//39 89//89
f 89//89 39//39 19//19
f 39//39 89//89 90//90
f 91//91 90//90 41//41
f 39//39 41//41 90//90
f 90//90 41//41 39//39
f 41//41 90//90 91//91
f 92//92 91//91 43//43
f 41//41 43//43 91//91
f 91//91 43//43 41//41
f 43//43 91//91 92//92
f 92//92 43//43 93//93
f 45//45 93//93 43//43
f 43//43 93//93 45//45
f 93//93 43//43 92//92
f 93//93 45//45 94//94
f 47//47 94//94 45//45
f 45//45 94//94 47//47
f 94//94 45//45 93//93
f 94//94 47//47 95//95
f 48//48 95//95 47//47
f 47//47 95//95 48//48
f 95//95 47//47 94//94
f 95//95 48//48 96//96
f 46//46 96//96 48//48
f 48//48 96//96 46//46
f 96//96 48//48 95//95
f 96//96 46//46 97//97
f 44//44 97//97 46//46
f 46//46 97//97 44//44
f 97//97 46//46 96//96
f 98//98 97//97 42//42
f 44//44 42//42 97//97
f 97//97 42//42 44//44
f 42//42 97//97 98//98
f 99//99 98//98 40//40
f 42//42 40//40 98//98
f 98//98 40//40 42//42
f 40//40 98//98 99//99
f 100//100 99//99 38//38
f 40//40 38//38 99//99
f 99//99 38//38 40//40
f 38//38 99//99 100//100
f 101//101 100//100 36//36
f 38//38 36//36 100//100
f 100//100 36//36 38//38
f 36//36 100//100 101//101
f 102//102 101//101 34//34
f 36//36 34//34 101//101
f 101//101 34//34 36//36
f 34//34 101//101 102//102
f 103//103 102//102 32//32
f 34//34 32//32 102//102
f 102//102 32//32 34//34
f 32//32 102//102 103//103
f 104//104 103//103 31//31
f 32//32 31//31 103//103
f 103//103 31//31 32//32
f 31//31 103//103 104//104
f 105//105 104//104 29//29
f 31//31 29//29 104//104
f 104//104 29//29 31//31
f 29//29 104//104 105//105
f 106//106 105//105 28//28
f 29//29 28//28 105//105
f 105//105 28//28 29//29
f 28//28 105//105 106//106
f 107//107 106//106 27//27
f 28//28 27//27 106//106
f 106//106 27//27 28//28
f 27//27 106//106 107//107
f 107//107 27//27 108//108
f 24//24 108//108 27//27
f 27//27 108//108 24//24
f 108//108 27//27 107//107
f 108//108 24//24 109//109
f 23//23 109//109 24//24
f 24//24 109//109 23//23
f 109//109 24//24 108//108
f 109//109 23//23 110//110
f 62//62 110//110 23//23
f 23//23 110//110 62//62
f 110//110 23//23 109//109
f 110//110 62//62 111//111
f 63//63 111//111 62//62
f 62//62 111//111 63//63
f 111//111 62//62 110//110
f 112//112 111//111 65//65
f 63//63 65//65 111//111
f 111//111 65//65 63//63
f 65//65 111//111 112//112
f 113//113 112//112 66//66
f 65//65 66//66 112//112
f 112//112 66//66 65//65
f 66//66 112//112 113//113
f 114//114 113//113 68//68
f 66//66 68//68 113//113
f 113//113 68//68 66//66
f 68//68 113//113 114//114
f 115//115 114//114 69//69
f 68//68 69//69 114//114
f 114//114 69//69 68//68
f 69//69 114//114 115//115
f 116//116 115//115 71//71
f 69//69 71//71 115//115
f 115//115 71//71 69//69
f 71//71 115//115 116//116
f 117//117 116//116 73//73
f 71//71 73//73 116//116
f 116//116 73//73 71//71
f 73//73 116//116 117//117
f 118//118 117//117 75//75
f 73//73 75//75 117//117
f 117//117 75//75 73//73
f 75//75 117//117 118//118
f 119//119 118//118 77//77
f 75//75 77//77 118//118
f 118//118 77//77 75//75
f 77//77 118//118 119//119
f 120//120 119//119 79//79
f 77//77 79//79 119//119
f 119//119 79//79 77//77
f 79//79 119//119 120//120
f 121//121 120//120 81//81
f 79//79 81//81 120//120
f 120//120 81//81 79//79
f 81//81 120//120 121//121
f 121//121 81//81 122//122
f 80//80 122//122 81//81
f 81//81 122//122 80//80
f 122//122 81//81 121//121
f 123//123 122//122 78//78
f 80//80 78//78 122//122
f 122//122 78//78 80//80
f 78//78 122//122 123//123
f 124//124 123//123 76//76
f 78//78 76//76 123//123
f 123//123 76//76 78//78
f 76//76 123//123 124//124
f 125//125 124//124 74//74
f 76//76 74//74 124//124
f 124//124 74//74 76//76
f 74//74 124//124 125//125
f 126//126 125//125 72//72
f 74//74 72//72 125//125
f 125//125 72//72 74//74
f 72//72 125//125 126//126
f 127//127 126//126 70//70
f 72//72 70//70 126//126
f 126//126 70//70 72//72
f 70//70 126//126 127//127
f 128//128 127//127 67//67
f 70//70 67//67 127//127
f 127//127 67//67 70//70
f 67//67 127//127 128//128
f 129//129 128//128 64//64
f 67//67 64//64 128//128
f 128//128 64//64 67//67
f 64//64 128//128 129//129
f 130//130 129//129 61//61
f 64//64 61//61 129//129
f 129//129 61//61 64//64
f 61//61 129//129 130//130
f 131//131 130//130 60//60
f 61//61 60//60 130//130
f 130//130 60//60 61//61
f 60//60 130//130 131//131
f 132//132 131//131 58//58
f 60//60 58//58 131//131
f 131//131 58//58 60//60
f 58//58 131//131 132//132
f 133//133 132//132 56//56
f 58//58 56//56 132//132
f 132//132 56//56 58//58
f 56//56 132//132 133//133
f 53//53 134//134 56//56
f 133//133 56//56 134//134
f 134//134 56//56 133//133
f 56//56 134//134 53//53
f 50//50 135//135 53//53
f 134//134 53//53 135//135
f 135//135 53//53 134//134
f 53//53 135//135 50//50
f 49//49 136//136 50//50
f 135//135 50//50 136//136
f 136//136 50//50 135//135
f 50//50 136//136 49//49
f 51//51 137//137 49//49
f 136//136 49//49 137//137
f 137//137 49//49 136//136
f 49//49 137//137 51//51
f 52//52 138//138 51//51
f 137//137 51//51 138//138
f 138//138 51//51 137//137
f 51//51 138//138 52//52
f 54//54 139//139 52//52
f 138//138 52//52 139//139
f 139//139 52//52 138//138
f 52//52 139//139 54//54
f 55//55 140//140 54//54
f 139//139 54//54 140//140
f 140//140 54//54 139//139
f 54//54 140//140 55//55
f 141//141 140//140 57//57
f 55//55 57//57 140//140
f 140//140 57//57 55//55
f 57//57 140//140 141//141
f 142//142 141//141 59//59
f 57//57 59//59 141//141
f 141//141 59//59 57//57
f 59//59 141//141 142//142
f 143//143 142//142 25//25
f 59//59 25//25 142//142
f 142//142 25//25 59//59
f 25//25 142//142 143//143
f 144//144 143//143 26//26
f 25//25 26//26 143//143
f 143//143 26//26 25//25
f 26//26 143//143 144//144
f 145//145 144//144 30//30
f 26//26 30//30 144//144
f 144//144 30//30 26//26
f 30//30 144//144 145//145
f 146//146 145//145 33//33
f 30//30 33//33 145//145
f 145//145 33//33 30//30
f 33//33 145//145 146//146
f 147//147 146//146 35//35
f 33//33 35//35 146//146
f 146//146 35//35 33//33
f 35//35 146//146 147//147
f 148//148 147//147 37//37
f 35//35 37//37 147//147
f 147//147 37//37 35//35
f 37//37 147//147 148//148
f 22//22 149//149 37//37
f 148//148 37//37 149//149
f 149//149 37//37 148//148
f 37//37 149//149 22//22
f 21//21 150//150 22//22
f 149//149 22//22 150//150
f 150//150 22//22 149//149
f 22//22 150//150 21//21
f 20//20 151//151 21//21
f 150//150 21//21 151//151
f 151//151 21//21 150//150
f 21//21 151//151 20//20
f 152//152 151//151 18//18
f 20//20 18//18 151//151
f 151//151 18//18 20//20
f 18//18 151//151 152//152
f 153//153 152//152 16//16
f 18//18 16//16 152//152
f 152//152 16//16 18//18
f 16//16 152//152 153//153
f 154//154 153//153 14//14
f 16//16 14//14 153//153
f 153//153 14//14 16//16
f 14//14 153//153 154//154
f 155//155 154//154 13//13
f 14//14 13//13 154//154
f 154//154 13//13 14//14
f 13//13 154//154 155//155
f 156//156 155//155 11//11
f 13//13 11//11 155//155
f 155//155 11//11 13//13
f 11//11 155//155 156//156
f 157//157 156//156 9//9
f 11//11 9//9 156//156
f 156//156 9//9 11//11
f 9//9 156//156 157//157
f 158//158 157//157 7//7
f 9//9 7//7 157//157
f 157//157 7//7 9//9
f 7//7 157//157 158//158
f 159//159 158//158 6//6
f 7//7 6//6 158//158
f 158//158 6//6 7//7
f 6//6 158//158 159//159
f 160//160 159//159 5//5
f 6//6 5//5 159//159
f 159//159 5//5 6//6
f 5//5 159//159 160//160
f 161//161 160//160 4//4
f 5//5 4//4 160//160
f 160//160 4//4 5//5
f 4//4 160//160 161//161
f 162//162 161//161 2//2
f 4//4 2//2 161//161
f 161//161 2//2 4//4
f 2//2 161//161 162//162
f 1//1 83//83 2//2
f 162//162 2//2 83//83
f 83//83 2//2 162//162
f 2//2 83//83 1//1
f 136//136 137//137 135//135
f 138//138 135//135 137//137
f 134//134 135//135 138//138
f 139//139 134//134 138//138
f 140//140 134//134 139//139
f 133//133 134//134 140//140
f 141//141 133//133 140//140
f 132//132 133//133 141//141
f 142//142 132//132 141//141
f 131//131 132//132 142//142
f 143//143 131//131 142//142
f 109//109 131//131 143//143
f 130//130 131//131 109//109
f 110//110 130//130 109//109
f 111//111 130//130 110//110
f 129//129 130//130 111//111
f 112//112 129//129 111//111
f 113//113 129//129 112//112
f 128//128 129//129 113//113
f 114//114 128//128 113//113
f 115//115 128//128 114//114
f 127//127 128//128 115//115
f 116//116 127//127 115//115
f 126//126 127//127 116//116
f 117//117 126//126 116//116
f 125//125 126//126 117//117
f 118//118 125//125 117//117
f 124//124 125//125 118//118
f 119//119 124//124 118//118
f 123//123 124//124 119//119
f 120//120 123//123 119//119
f 122//122 123//123 120//120
f 121//121 122//122 120//120
f 144//144 108//108 143//143
f 109//109 143//143 108//108
f 107//107 108//108 144//144
f 106//106 107//107 144//144
f 105//105 106//106 144//144
f 145//145 105//105 144//144
f 104//104 105//105 145//145
f 103//103 104//104 145//145
f 146//146 103//103 145//145
f 102//102 103//103 146//146
f 147//147 102//102 146//146
f 101//101 102//102 147//147
f 148//148 101//101 147//147
f 100//100 101//101 148//148
f 149//149 100//100 148//148
f 89//89 100//100 149//149
f 90//90 100//100 89//89
f 99//99 100//100 90//90
f 91//91 99//99 90//90
f 98//98 99//99 91//91
f 92//92 98//98 91//91
f 97//97 98//98 92//92
f 93//93 97//97 92//92
f 96//96 97//97 93//93
f 94//94 96//96 93//93
f 95//95 96//96 94//94
f 162//162 83//83 161//161
f 82//82 161//161 83//83
f 160//160 161//161 82//82
f 159//159 160//160 82//82
f 158//158 159//159 82//82
f 84//84 158//158 82//82
f 157//157 158//158 84//84
f 85//85 157//157 84//84
f 156//156 157//157 85//85
f 86//86 156//156 85//85
f 155//155 156//156 86//86
f 154//154 155//155 86//86
f 87//87 154//154 86//86
f 153//153 154//154 87//87
f 88//88 153//153 87//87
f 152//152 153//153 88//88
f 89//89 152//152 88//88
f 151//151 152//152 89//89
f 150//150 151//151 89//89
f 149//149 150//150 89//89
f 89//89 150//150 149//149
f 89//89 151//151 150//150
f 89//89 152//152 151//151
f 88//88 152//152 89//89
f 88//88 153//153 152//152
f 87//87 153//153 88//88
f 87//87 154//154 153//153
f 86//86 154//154 87//87
f 86//86 155//155 154//154
f 86//86 156//156 155//155
f 85//85 156//156 86//86
f 85//85 157//157 156//156
f 84//84 157//157 85//85
f 84//84 158//158 157//157
f 82//82 158//158 84//84
f 82//82 159//159 158//158
f 82//82 160//160 159//159
f 82//82 161//161 160//160
f 83//83 161//161 82//82
f 161//161 83//83 162//162
f 94//94 96//96 95//95
f 93//93 96//96 94//94
f 93//93 97//97 96//96
f 92//92 97//97 93//93
f 92//92 98//98 97//97
f 91//91 98//98 92//92
f 91//91 99//99 98//98
f 90//90 99//99 91//91
f 90//90 100//100 99//99
f 89//89 100//100 90//90
f 149//149 100//100 89//89
f 148//148 100//100 149//149
f 148//148 101//101 100//100
f 147//147 101//101 148//148
f 147//147 102//102 101//101
f 146//146 102//102 147//147
f 146//146 103//103 102//102
f 145//145 103//103 146//146
f 145//145 104//104 103//103
f 145//145 105//105 104//104
f 144//144 105//105 145//145
f 144//144 106//106 105//105
f 144//144 107//107 106//106
f 144//144 108//108 107//107
f 108//108 143//143 109//109
f 143//143 108//108 144//144
f 120//120 122//122 121//121
f 120//120 123//123 122//122
f 119//119 123//123 120//120
f 119//119 124//124 123//123
f 118//118 124//124 119//119
f 118//118 125//125 124//124
f 117//117 125//125 118//118
f 117//117 126//126 125//125
f 116//116 126//126 117//117
f 116//116 127//127 126//126
f 115//115 127//127 116//116
f 115//115 128//128 127//127
f 114//114 128//128 115//115
f 113//113 128//128 114//114
f 113//113 129//129 128//128
f 112//112 129//129 113//113
f 111//111 129//129 112//112
f 111//111 130//130 129//129
f 110//110 130//130 111//111
f 109//109 130//130 110//110
f 109//109 131//131 130//130
f 143//143 131//131 109//109
f 142//142 131//131 143//143
f 142//142 132//132 131//131
f 141//141 132//132 142//142
f 141//141 133//133 132//132
f 140//140 133//133 141//141
f 140//140 134//134 133//133
f 139//139 134//134 140//140
f 138//138 134//134 139//139
f 138//138 135//135 134//134
f 137//137 135//135 138//138
f 135//135 137//137 136//136
f 163//163 164//164 165//165
f 166//166 165//165 164//164
f 167//167 165//165 166//166
f 168//168 167//167 166//166
f 169//169 167//167 168//168
f 170//170 169//169 168//168
f 171//171 169//169 170//170
f 172//172 171//171 170//170
f 173//173 171//171 172//172
f 174//174 173//173 172//172
f 175//175 173//173 174//174
f 176//176 173//173 175//175
f 177//177 176//176 175//175
f 178//178 176//176 177//177
f 179//179 178//178 177//177
f 180//180 178//178 179//179
f 181//181 180//180 179//179
f 182//182 180//180 181//181
f 183//183 180//180 182//182
f 184//184 180//180 183//183
f 185//185 184//184 183//183
f 186//186 184//184 185//185
f 187//187 184//184 186//186
f 188//188 184//184 187//187
f 189//189 184//184 188//188
f 190//190 189//189 188//188
f 191//191 189//189 190//190
f 192//192 189//189 191//191
f 193//193 189//189 192//192
f 194//194 193//193 192//192
f 195//195 193//193 194//194
f 196//196 193//193 195//195
f 197//197 196//196 195//195
f 198//198 196//196 197//197
f 199//199 196//196 198//198
f 200//200 196//196 199//199
f 201//201 196//196 200//200
f 202//202 203//203 179//179
f 204//204 179//179 203//203
f 181//181 179//179 204//204
f 205//205 203//203 202//202
f 206//206 205//205 202//202
f 207//207 206//206 202//202
f 208//208 207//207 202//202
f 209//209 208//208 202//202
f 210//210 208//208 209//209
f 211//211 210//210 209//209
f 212//212 211//211 209//209
f 213//213 212//212 209//209
f 214//214 212//212 213//213
f 215//215 214//214 213//213
f 216//216 215//215 213//213
f 217//217 215//215 216//216
f 218//218 217//217 216//216
f 219//219 218//218 216//216
f 220//220 219//219 216//216
f 201//201 220//220 216//216
f 196//196 201//201 216//216
f 221//221 196//196 216//216
f 222//222 221//221 216//216
f 223//223 221//221 222//222
f 224//224 223//223 222//222
f 225//225 223//223 224//224
f 226//226 225//225 224//224
f 227//227 225//225 226//226
f 228//228 227//227 226//226
f 229//229 227//227 228//228
f 230//230 229//229 228//228
f 231//231 229//229 230//230
f 232//232 231//231 230//230
f 233//233 231//231 232//232
f 234//234 233//233 232//232
f 235//235 233//233 234//234
f 234//234 233//233 235//235
f 232//232 233//233 234//234
f 232//232 231//231 233//233
f 230//230 231//231 232//232
f 230//230 229//229 231//231
f 228//228 229//229 230//230
f 228//228 227//227 229//229
f 226//226 227//227 228//228
f 226//226 225//225 227//227
f 224//224 225//225 226//226
f 224//224 223//223 225//225
f 222//222 223//223 224//224
f 222//222 221//221 223//223
f 216//216 221//221 222//222
f 216//216 196//196 221//221
f 216//216 201//201 196//196
f 216//216 220//220 201//201
f 216//216 219//219 220//220
f 216//216 218//218 219//219
f 216//216 217//217 218//218
f 216//216 215//215 217//217
f 213//213 215//215 216//216
f 213//213 214//214 215//215
f 213//213 212//212 214//214
f 209//209 212//212 213//213
f 209//209 211//211 212//212
f 209//209 210//210 211//211
f 209//209 208//208 210//210
f 202//202 208//208 209//209
f 202//202 207//207 208//208
f 202//202 206//206 207//207
f 202//202 205//205 206//206
f 202//202 203//203 205//205
f 204//204 179//179 181//181
f 203//203 179//179 204//204
f 179//179 203//203 202//202
f 200//200 196//196 201//201
f 199//199 196//196 200//200
f 198//198 196//196 199//199
f 197//197 196//196 198//198
f 195//195 196//196 197//197
f 195//195 193//193 196//196
f 194//194 193//193 195//195
f 192//192 193//193 194//194
f 192//192 189//189 193//193
f 191//191 189//189 192//192
f 190//190 189//189 191//191
f 188//188 189//189 190//190
f 188//188 184//184 189//189
f 187//187 184//184 188//188
f 186//186 184//184 187//187
f 185//185 184//184 186//186
f 183//183 184//184 185//185
f 183//183 180//180 184//184
f 182//182 180//180 183//183
f 181//181 180//180 182//182
f 179//179 180//180 181//181
f 179//179 178//178 180//180
f 177//177 178//178 179//179
f 177//177 176//176 178//178
f 175//175 176//176 177//177
f 175//175 173//173 176//176
f 174//174 173//173 175//175
f 172//172 173//173 174//174
f 172//172 171//171 173//173
f 170//170 171//171 172//172
f 170//170 169//169 171//171
f 168//168 169//169 170//170
f 168//168 167//167 169//169
f 166//166 167//167 168//168
f 166//166 165//165 167//167
f 164//164 165//165 166//166
f 165//165 164//164 163//163
f 236//236 237//237 202//202
f 209//209 202//202 237//237
f 237//237 202//202 209//209
f 202//202 237//237 236//236
f 238//238 236//236 179//179
f 202//202 179//179 236//236
f 236//236 179//179 202//202
f 179//179 236//236 238//238
f 239//239 238//238 177//177
f 179//179 177//177 238//238
f 238//238 177//177 179//179
f 177//177 238//238 239//239
f 240//240 239//239 175//175
f 177//177 175//175 239//239
f 239//239 175//175 177//177
f 175//175 239//239 240//240
f 241//241 240//240 174//174
f 175//175 174//174 240//240
f 240//240 174//174 175//175
f 174//174 240//240 241//241
f 242//242 241//241 172//172
f 174//174 172//172 241//241
f 241//241 172//172 174//174
f 172//172 241//241 242//242
f 170//170 243//243 172//172
f 242//242 172//172 243//243
f 243//243 172//172 242//242
f 172//172 243//243 170//170
f 168//168 244//244 170//170
f 243//243 170//170 244//244
f 244//244 170//170 243//243
f 170//170 244//244 168//168
f 166//166 245//245 168//168
f 244//244 168//168 245//245
f 245//245 168//168 244//244
f 168//168 245//245 166//166
f 164//164 246//246 166//166
f 245//245 166//166 246//246
f 246//246 166//166 245//245
f 166//166 246//246 164//164
f 163//163 247//247 164//164
f 246//246 164//164 247//247
f 247//247 164//164 246//246
f 164//164 247//247 163//163
f 165//165 248//248 163//163
f 247//247 163//163 248//248
f 248//248 163//163 247//247
f 163//163 248//248 165//165
f 167//167 249//249 165//165
f 248//248 165//165 249//249
f 249//249 165//165 248//248
f 165//165 249//249 167//167
f 169//169 250//250 167//167
f 249//249 167//167 250//250
f 250//250 167//167 249//249
f 167//167 250//250 169//169
f 171//171 251//251 169//169
f 250//250 169//169 251//251
f 251//251 169//169 250//250
f 169//169 251//251 171//171
f 252//252 251//251 173//173
f 171//171 173//173 251//251
f 251//251 173//173 171//171
f 173//173 251//251 252//252
f 253//253 252//252 176//176
f 173//173 176//176 252//252
f 252//252 176//176 173//173
f 176//176 252//252 253//253
f 254//254 253//253 178//178
f 176//176 178//178 253//253
f 253//253 178//178 176//176
f 178//178 253//253 254//254
f 255//255 254//254 180//180
f 178//178 180//180 254//254
f 254//254 180//180 178//178
f 180//180 254//254 255//255
f 256//256 255//255 184//184
f 180//180 184//184 255//255
f 255//255 184//184 180//180
f 184//184 255//255 256//256
f 257//257 256//256 189//189
f 184//184 189//189 256//256
f 256//256 189//189 184//184
f 189//189 256//256 257//257
f 258//258 257//257 193//193
f 189//189 193//193 257//257
f 257//257 193//193 189//189
f 193//193 257//257 258//258
f 259//259 258//258 196//196
f 193//193 196//196 258//258
f 258//258 196//196 193//193
f 196//196 258//258 259//259
f 260//260 259//259 221//221
f 196//196 221//221 259//259
f 259//259 221//221 196//196
f 221//221 259//259 260//260
f 261//261 260//260 223//223
f 221//221 223//223 260//260
f 260//260 223//223 221//221
f 223//223 260//260 261//261
f 262//262 261//261 225//225
f 223//223 225//225 261//261
f 261//261 225//225 223//223
f 225//225 261//261 262//262
f 263//263 262//262 227//227
f 225//225 227//227 262//262
f 262//262 227//227 225//225
f 227//227 262//262 263//263
f 263//263 227//227 264//264
f 229//229 264//264 227//227
f 227//227 264//264 229//229
f 264//264 227//227 263//263
f 264//264 229//229 265//265
f 231//231 265//265 229//229
f 229//229 265//265 231//231
f 265//265 229//229 264//264
f 265//265 231//231 266//266
f 233//233 266//266 231//231
f 231//231 266//266 233//233
f 266//266 231//231 265//265
f 266//266 233//233 267//267
f 235//235 267//267 233//233
f 233//233 267//267 235//235
f 267//267 233//233 266//266
f 267//267 235//235 268//268
f 234//234 268//268 235//235
f 235//235 268//268 234//234
f 268//268 235//235 267//267
f 268//268 234//234 269//269
f 232//232 269//269 234//234
f 234//234 269//269 232//232
f 269//269 234//234 268//268
f 269//269 232//232 270//270
f 230//230 270//270 232//232
f 232//232 270//270 230//230
f 270//270 232//232 269//269
f 270//270 230//230 271//271
f 228//228 271//271 230//230
f 230//230 271//271 228//228
f 271//271 230//230 270//270
f 271//271 228//228 272//272
f 226//226 272//272 228//228
f 228//228 272//272 226//226
f 272//272 228//228 271//271
f 273//273 272//272 224//224
f 226//226 224//224 272//272
f 272//272 224//224 226//226
f 224//224 272//272 273//273
f 274//274 273//273 222//222
f 224//224 222//222 273//273
f 273//273 222//222 224//224
f 222//222 273//273 274//274
f 275//275 274//274 216//216
f 222//222 216//216 274//274
f 274//274 216//216 222//222
f 216//216 274//274 275//275
f 276//276 275//275 213//213
f 216//216 213//213 275//275
f 275//275 213//213 216//216
f 213//213 275//275 276//276
f 237//237 276//276 209//209
f 213//213 209//209 276//276
f 276//276 209//209 213//213
f 209//209 276//276 237//237
f 277//277 278//278 238//238
f 279//279 238//238 278//278
f 236//236 238//238 279//279
f 280//280 236//236 279//279
f 281//281 236//236 280//280
f 282//282 236//236 281//281
f 283//283 236//236 282//282
f 237//237 236//236 283//283
f 284//284 237//237 283//283
f 285//285 237//237 284//284
f 286//286 237//237 285//285
f 276//276 237//237 286//286
f 287//287 276//276 286//286
f 288//288 276//276 287//287
f 275//275 276//276 288//288
f 289//289 275//275 288//288
f 290//290 275//275 289//289
f 291//291 275//275 290//290
f 292//292 275//275 291//291
f 293//293 275//275 292//292
f 259//259 275//275 293//293
f 260//260 275//275 259//259
f 274//274 275//275 260//260
f 261//261 274//274 260//260
f 273//273 274//274 261//261
f 262//262 273//273 261//261
f 272//272 273//273 262//262
f 263//263 272//272 262//262
f 271//271 272//272 263//263
f 264//264 271//271 263//263
f 270//270 271//271 264//264
f 265//265 270//270 264//264
f 269//269 270//270 265//265
f 266//266 269//269 265//265
f 268//268 269//269 266//266
f 267//267 268//268 266//266
f 247//247 248//248 246//246
f 245//245 246//246 248//248
f 249//249 245//245 248//248
f 244//244 245//245 249//249
f 250//250 244//244 249//249
f 243//243 244//244 250//250
f 251//251 243//243 250//250
f 242//242 243//243 251//251
f 252//252 242//242 251//251
f 241//241 242//242 252//252
f 240//240 241//241 252//252
f 253//253 240//240 252//252
f 239//239 240//240 253//253
f 254//254 239//239 253//253
f 238//238 239//239 254//254
f 255//255 238//238 254//254
f 277//277 238//238 255//255
f 294//294 277//277 255//255
f 295//295 294//294 255//255
f 256//256 295//295 255//255
f 296//296 295//295 256//256
f 297//297 296//296 256//256
f 298//298 297//297 256//256
f 299//299 298//298 256//256
f 257//257 299//299 256//256
f 300//300 299//299 257//257
f 301//301 300//300 257//257
f 302//302 301//301 257//257
f 258//258 302//302 257//257
f 303//303 302//302 258//258
f 304//304 303//303 258//258
f 259//259 304//304 258//258
f 305//305 304//304 259//259
f 306//306 305//305 259//259
f 307//307 306//306 259//259
f 308//308 307//307 259//259
f 293//293 308//308 259//259
f 259//259 308//308 293//293
f 259//259 307//307 308//308
f 259//259 306//306 307//307
f 259//259 305//305 306//306
f 259//259 304//304 305//305
f 258//258 304//304 259//259
f 258//258 303//303 304//304
f 258//258 302//302 303//303
f 257//257 302//302 258//258
f 257//257 301//301 302//302
f 257//257 300//300 301//301
f 257//257 299//299 300//300
f 256//256 299//299 257//257
f 256//256 298//298 299//299
f 256//256 297//297 298//298
f 256//256 296//296 297//297
f 256//256 295//295 296//296
f 255//255 295//295 256//256
f 255//255 294//294 295//295
f 255//255 277//277 294//294
f 255//255 238//238 277//277
f 254//254 238//238 255//255
f 254//254 239//239 238//238
f 253//253 239//239 254//254
f 253//253 240//240 239//239
f 252//252 240//240 253//253
f 252//252 241//241 240//240
f 252//252 242//242 241//241
f 251//251 242//242 252//252
f 251//251 243//243 242//242
f 250//250 243//243 251//251
f 250//250 244//244 243//243
f 249//249 244//244 250//250
f 249//249 245//245 244//244
f 248//248 245//245 249//249
f 248//248 246//246 245//245
f 246//246 248//248 247//247
f 266//266 268//268 267//267
f 266//266 269//269 268//268
f 265//265 269//269 266//266
f 265//265 270//270 269//269
f 264//264 270//270 265//265
f 264//264 271//271 270//270
f 263//263 271//271 264//264
f 263//263 272//272 271//271
f 262//262 272//272 263//263
f 262//262 273//273 272//272
f 261//261 273//273 262//262
f 261//261 274//274 273//273
f 260//260 274//274 261//261
f 260//260 275//275 274//274
f 259//259 275//275 260//260
f 293//293 275//275 259//259
f 292//292 275//275 293//293
f 291//291 275//275 292//292
f 290//290 275//275 291//291
f 289//289 275//275 290//290
f 288//288 275//275 289//289
f 288//288 276//276 275//275
f 287//287 276//276 288//288
f 286//286 276//276 287//287
f 286//286 237//237 276//276
f 285//285 237//237 286//286
f 284//284 237//237 285//285
f 283//283 237//237 284//284
f 283//283 236//236 237//237
f 282//282 236//236 283//283
f 281//281 236//236 282//282
f 280//280 236//236 281//281
f 279//279 236//236 280//280
f 279//279 238//238 236//236
f 278//278 238//238 279//279
f 238//238 278//278 277//277
f 309//309 310//310 311//311
f 312//312 311//311 310//310
f 313//313 312//312 310//310
f 314//314 312//312 313//313
f 315//315 316//316 317//317
f 318//318 317//317 316//316
f 319//319 320//320 316//316
f 318//318 316//316 320//320
f 321//321 322//322 314//314
f 323//323 314//314 322//322
f 312//312 314//314 323//323
f 319//319 312//312 323//323
f 320//320 319//319 323//323
f 323//323 319//319 320//320
f 323//323 312//312 319//319
f 323//323 314//314 312//312
f 322//322 314//314 323//323
f 314//314 322//322 321//321
f 320//320 316//316 318//318
f 316//316 320//320 319//319
f 316//316 317//317 318//318
f 317//317 316//316 315//315
f 313//313 312//312 314//314
f 310//310 312//312 313//313
f 310//310 311//311 312//312
f 311//311 310//310 309//309
f 318//318 320//320 324//324
f 325//325 324//324 320//320
f 320//320 324//324 325//325
f 324//324 320//320 318//318
f 323//323 326//326 320//320
f 325//325 320//320 326//326
f 326//326 320//320 325//325
f 320//320 326//326 323//323
f 323//323 322//322 326//326
f 327//327 326//326 322//322
f 322//322 326//326 327//327
f 326//326 322//322 323//323
f 322//322 321//321 327//327
f 328//328 327//327 321//321
f 321//321 327//327 328//328
f 327//327 321//321 322//322
f 321//321 314//314 328//328
f 329//329 328//328 314//314
f 314//314 328//328 329//329
f 328//328 314//314 321//321
f 329//329 314//314 330//330
f 313//313 330//330 314//314
f 314//314 330//330 313//313
f 330//330 314//314 329//329
f 313//313 310//310 330//330
f 331//331 330//330 310//310
f 310//310 330//330 331//331
f 330//330 310//310 313//313
f 310//310 309//309 331//331
f 332//332 331//331 309//309
f 309//309 331//331 332//332
f 331//331 309//309 310//310
f 311//311 312//312 333//333
f 334//334 333//333 312//312
f 312//312 333//333 334//334
f 333//333 312//312 311//311
f 312//312 319//319 334//334
f 335//335 334//334 319//319
f 319//319 334//334 335//335
f 334//334 319//319 312//312
f 335//335 319//319 336//336
f 316//316 336//336 319//319
f 319//319 336//336 316//316
f 336//336 319//319 335//335
f 316//316 315//315 336//336
f 337//337 336//336 315//315
f 315//315 336//336 337//337
f 336//336 315//315 316//316
f 315//315 317//317 337//337
f 338//338 337//337 317//317
f 317//317 337//337 338//338
f 337//337 317//317 315//315
f 317//317 318//318 338//338
f 324//324 338//338 318//318
f 318//318 338//338 324//324
f 338//338 318//318 317//317
f 309//309 311//311 332//332
f 333//333 332//332 311//311
f 339//339 332//332 333//333
f 333//333 332//332 339//339
f 311//311 332//332 333//333
f 332//332 311//311 309//309
f 332//332 339//339 331//331
f 333//333 331//331 339//339
f 334//334 331//331 333//333
f 330//330 331//331 334//334
f 328//328 329//329 327//327
f 330//330 327//327 329//329
f 326//326 327//327 330//330
f 334//334 326//326 330//330
f 335//335 326//326 334//334
f 336//336 325//325 335//335
f 326//326 335//335 325//325
f 324//324 325//325 336//336
f 337//337 338//338 336//336
f 324//324 336//336 338//338
f 338//338 336//336 324//324
f 336//336 338//338 337//337
f 336//336 325//325 324//324
f 325//325 335//335 326//326
f 335//335 325//325 336//336
f 334//334 326//326 335//335
f 330//330 326//326 334//334
f 330//330 327//327 326//326
f 329//329 327//327 330//330
f 327//327 329//329 328//328
f 334//334 331//331 330//330
f 333//333 331//331 334//334
f 339//339 331//331 333//333
f 331//331 339//339 332//332
f 340//340 341//341 342//342
f 343//343 342//342 341//341
f 344//344 343//343 341//341
f 345//345 346//346 344//344
f 347//347 344//344 346//346
f 343//343 344//344 347//347
f 348//348 347//347 346//346
f 349//349 348//348 346//346
f 350//350 348//348 349//349
f 351//351 350//350 349//349
f 352//352 332//332 351//351
f 353//353 351//351 332//332
f 350//350 351//351 353//353
f 339//339 353//353 332//332
f 332//332 353//353 339//339
f 353//353 351//351 350//350
f 332//332 351//351 353//353
f 351//351 332//332 352//352
f 349//349 350//350 351//351
f 349//349 348//348 350//350
f 346//346 348//348 349//349
f 346//346 347//347 348//348
f 347//347 344//344 343//343
f 346//346 344//344 347//347
f 344//344 346//346 345//345
f 341//341 343//343 344//344
f 341//341 342//342 343//343
f 342//342 341//341 340//340
f 354//354 355//355 345//345
f 346//346 345//345 355//355
f 355//355 345//345 346//346
f 345//345 355//355 354//354
f 356//356 354//354 344//344
f 345//345 344//344 354//354
f 354//354 344//344 345//345
f 344//344 354//354 356//356
f 341//341 357//357 344//344
f 356//356 344//344 357//357
f 357//357 344//344 356//356
f 344//344 357//357 341//341
f 358//358 357//357 340//340
f 341//341 340//340 357//357
f 357//357 340//340 341//341
f 340//340 357//357 358//358
f 359//359 358//358 342//342
f 340//340 342//342 358//358
f 358//358 342//342 340//340
f 342//342 358//358 359//359
f 360//360 359//359 343//343
f 342//342 343//343 359//359
f 359//359 343//343 342//342
f 343//343 359//359 360//360
f 360//360 343//343 361//361
f 347//347 361//361 343//343
f 343//343 361//361 347//347
f 361//361 343//343 360//360
f 362//362 361//361 348//348
f 347//347 348//348 361//361
f 361//361 348//348 347//347
f 348//348 361//361 362//362
f 363//363 362//362 350//350
f 348//348 350//350 362//362
f 362//362 350//350 348//348
f 350//350 362//362 363//363
f 363//363 350//350 364//364
f 353//353 364//364 350//350
f 350//350 364//364 353//353
f 364//364 350//350 363//363
f 365//365 364//364 339//339
f 353//353 339//339 364//364
f 364//364 339//339 353//353
f 339//339 364//364 365//365
f 366//366 365//365 352//352
f 339//339 352//352 365//365
f 332//332 352//352 339//339
f 339//339 352//352 332//332
f 365//365 352//352 339//339
f 352//352 365//365 366//366
f 367//367 366//366 351//351
f 352//352 351//351 366//366
f 366//366 351//351 352//352
f 351//351 366//366 367//367
f 349//349 368//368 351//351
f 367//367 351//351 368//368
f 368//368 351//351 367//367
f 351//351 368//368 349//349
f 355//355 368//368 346//346
f 349//349 346//346 368//368
f 368//368 346//346 349//349
f 346//346 368//368 355//355
f 366//366 367//367 365//365
f 364//364 365//365 367//367
f 368//368 364//364 367//367
f 354//354 356//356 355//355
f 357//357 355//355 356//356
f 361//361 355//355 357//357
f 362//362 355//355 361//361
f 368//368 355//355 362//362
f 363//363 368//368 362//362
f 364//364 368//368 363//363
f 358//358 359//359 357//357
f 360//360 357//357 359//359
f 361//361 357//357 360//360
f 360//360 357//357 361//361
f 359//359 357//357 360//360
f 357//357 359//359 358//358
f 363//363 368//368 364//364
f 362//362 368//368 363//363
f 362//362 355//355 368//368
f 361//361 355//355 362//362
f 357//357 355//355 361//361
f 356//356 355//355 357//357
f 355//355 356//356 354//354
f 367//367 364//364 368//368
f 367//367 365//365 364//364
f 365//365 367//367 366//366
f 301//301 302//302 191//191
f 192//192 191//191 302//302
f 302//302 191//191 192//192
f 191//191 302//302 301//301
f 300//300 301//301 190//190
f 191//191 190//190 301//301
f 301//301 190//190 191//191
f 190//190 301//301 300//300
f 302//302 303//303 192//192
f 194//194 192//192 303//303
f 303//303 192//192 194//194
f 192//192 303//303 302//302
f 299//299 300//300 188//188
f 190//190 188//188 300//300
f 300//300 188//188 190//190
f 188//188 300//300 299//299
f 303//303 304//304 194//194
f 195//195 194//194 304//304
f 304//304 194//194 195//195
f 194//194 304//304 303//303
f 298//298 299//299 187//187
f 188//188 187//187 299//299
f 299//299 187//187 188//188
f 187//187 299//299 298//298
f 304//304 305//305 195//195
f 197//197 195//195 305//305
f 305//305 195//195 197//197
f 195//195 305//305 304//304
f 297//297 298//298 186//186
f 187//187 186//186 298//298
f 298//298 186//186 187//187
f 186//186 298//298 297//297
f 197//197 305//305 198//198
f 306//306 198//198 305//305
f 305//305 198//198 306//306
f 198//198 305//305 197//197
f 297//297 186//186 296//296
f 185//185 296//296 186//186
f 186//186 296//296 185//185
f 296//296 186//186 297//297
f 198//198 306//306 199//199
f 307//307 199//199 306//306
f 306//306 199//199 307//307
f 199//199 306//306 198//198
f 296//296 185//185 295//295
f 183//183 295//295 185//185
f 185//185 295//295 183//183
f 295//295 185//185 296//296
f 199//199 307//307 200//200
f 308//308 200//200 307//307
f 307//307 200//200 308//308
f 200//200 307//307 199//199
f 295//295 183//183 294//294
f 182//182 294//294 183//183
f 183//183 294//294 182//182
f 294//294 183//183 295//295
f 200//200 308//308 201//201
f 293//293 201//201 308//308
f 308//308 201//201 293//293
f 201//201 308//308 200//200
f 294//294 182//182 277//277
f 181//181 277//277 182//182
f 182//182 277//277 181//181
f 277//277 182//182 294//294
f 201//201 293//293 220//220
f 292//292 220//220 293//293
f 293//293 220//220 292//292
f 220//220 293//293 201//201
f 277//277 181//181 278//278
f 204//204 278//278 181//181
f 181//181 278//278 204//204
f 278//278 181//181 277//277
f 220//220 292//292 219//219
f 291//291 219//219 292//292
f 292//292 219//219 291//291
f 219//219 292//292 220//220
f 278//278 204//204 279//279
f 203//203 279//279 204//204
f 204//204 279//279 203//203
f 279//279 204//204 278//278
f 219//219 291//291 218//218
f 290//290 218//218 291//291
f 291//291 218//218 290//290
f 218//218 291//291 219//219
f 279//279 203//203 280//280
f 205//205 280//280 203//203
f 203//203 280//280 205//205
f 280//280 203//203 279//279
f 218//218 290//290 217//217
f 289//289 217//217 290//290
f 290//290 217//217 289//289
f 217//217 290//290 218//218
f 280//280 205//205 281//281
f 206//206 281//281 205//205
f 205//205 281//281 206//206
f 281//281 205//205 280//280
f 289//289 288//288 217//217
f 215//215 217//217 288//288
f 288//288 217//217 215//215
f 217//217 288//288 289//289
f 282//282 281//281 207//207
f 206//206 207//207 281//281
f 281//281 207//207 206//206
f 207//207 281//281 282//282
f 288//288 287//287 215//215
f 214//214 215//215 287//287
f 287//287 215//215 214//214
f 215//215 287//287 288//288
f 283//283 282//282 208//208
f 207//207 208//208 282//282
f 282//282 208//208 207//207
f 208//208 282//282 283//283
f 287//287 286//286 214//214
f 212//212 214//214 286//286
f 286//286 214//214 212//212
f 214//214 286//286 287//287
f 284//284 283//283 210//210
f 208//208 210//210 283//283
f 283//283 210//210 208//208
f 210//210 283//283 284//284
f 286//286 285//285 212//212
f 211//211 212//212 285//285
f 285//285 212//212 211//211
f 212//212 285//285 286//286
f 285//285 284//284 211//211
f 210//210 211//211 284//284
f 284//284 211//211 210//210
f 211//211 284//284 285//285
f 369//369 370//370 371//371
f 372//372 371//371 370//370
f 370//370 371//371 372//372
f 371//371 370//370 369//369
f 373//373 374//374 375//375
f 374//374 373//373 376//376
f 377//377 378//378 379//379
f 378//378 377//377 380//380
f 381//381 369//369 370//370
f 369//369 381//381 382//382
f 383//383 372//372 384//384
f 372//372 383//383 370//370
f 385//385 370//370 383//383
f 370//370 385//385 381//381
f 386//386 381//381 385//385
f 386//386 382//382 381//381
f 387//387 382//382 386//386
f 382//382 387//387 388//388
f 382//382 389//389 369//369
f 389//389 382//382 388//388
f 384//384 390//390 391//391
f 390//390 384//384 372//372
f 385//385 392//392 386//386
f 383//383 392//392 385//385
f 384//384 392//392 383//383
f 392//392 384//384 391//391
f 393//393 387//387 394//394
f 395//395 387//387 393//393
f 389//389 387//387 395//395
f 387//387 389//389 388//388
f 369//369 395//395 371//371
f 395//395 369//369 389//389
f 372//372 396//396 390//390
f 396//396 372//372 371//371
f 390//390 392//392 391//391
f 396//396 392//392 390//390
f 393//393 392//392 396//396
f 392//392 393//393 394//394
f 371//371 393//393 396//396
f 393//393 371//371 395//395
f 397//397 398//398 399//399
f 400//400 401//401 402//402
f 401//401 403//403 402//402
f 401//401 404//404 403//403
f 401//401 405//405 404//404
f 401//401 406//406 405//405
f 407//407 406//406 401//401
f 406//406 407//407 408//408
f 409//409 410//410 411//411
f 410//410 409//409 412//412
f 412//412 413//413 410//410
f 413//413 412//412 414//414
f 413//413 415//415 416//416
f 415//415 413//413 414//414
f 416//416 417//417 418//418
f 417//417 416//416 415//415
f 418//418 419//419 420//420
f 419//419 418//418 417//417
f 419//419 421//421 420//420
f 421//421 419//419 422//422
f 423//423 424//424 425//425
f 424//424 423//423 426//426
f 427//427 411//411 428//428
f 411//411 427//427 409//409
f 429//429 427//427 430//430
f 426//426 427//427 429//429
f 426//426 409//409 427//427
f 423//423 409//409 426//426
f 423//423 412//412 409//409
f 422//422 412//412 423//423
f 422//422 414//414 412//412
f 419//419 414//414 422//422
f 419//419 415//415 414//414
f 415//415 419//419 417//417
f 429//429 424//424 426//426
f 424//424 429//429 431//431
f 427//427 432//432 430//430
f 432//432 427//427 428//428
f 430//430 431//431 429//429
f 431//431 430//430 432//432
f 413//413 416//416 433//433
f 421//421 434//434 420//420
f 410//410 413//413 435//435
f 431//431 436//436 424//424
f 428//428 411//411 437//437
f 420//420 438//438 418//418
f 439//439 431//431 432//432
f 424//424 440//440 425//425
f 411//411 410//410 441//441
f 425//425 442//442 421//421
f 416//416 418//418 443//443
f 432//432 428//428 444//444
f 445//445 407//407 446//446
f 407//407 445//445 408//408
f 447//447 373//373 375//375
f 373//373 448//448 376//376
f 448//448 373//373 447//447
f 449//449 399//399 398//398
f 447//447 399//399 449//449
f 375//375 399//399 447//447
f 399//399 375//375 374//374
f 448//448 374//374 376//376
f 450//450 374//374 448//448
f 445//445 374//374 450//450
f 374//374 445//445 446//446
f 445//445 450//450 408//408
f 406//406 408//408 450//450
f 450//450 408//408 406//406
f 408//408 450//450 445//445
f 448//448 450//450 405//405
f 406//406 405//405 450//450
f 450//450 405//405 406//406
f 405//405 450//450 448//448
f 447//447 448//448 404//404
f 405//405 404//404 448//448
f 448//448 404//404 405//405
f 404//404 448//448 447//447
f 447//447 449//449 404//404
f 403//403 404//404 449//449
f 449//449 404//404 403//403
f 404//404 449//449 447//447
f 449//449 398//398 403//403
f 402//402 403//403 398//398
f 398//398 403//403 402//402
f 403//403 398//398 449//449
f 402//402 398//398 400//400
f 399//399 400//400 398//398
f 398//398 400//400 399//399
f 400//400 398//398 402//402
f 374//374 387//387 446//446
f 407//407 446//446 387//387
f 399//399 387//387 374//374
f 394//394 407//407 387//387
f 392//392 407//407 394//394
f 400//400 386//386 399//399
f 387//387 399//399 386//386
f 392//392 386//386 400//400
f 407//407 392//392 400//400
f 401//401 407//407 400//400
f 400//400 407//407 401//401
f 400//400 392//392 407//407
f 400//400 386//386 392//392
f 386//386 399//399 387//387
f 399//399 386//386 400//400
f 394//394 407//407 392//392
f 387//387 407//407 394//394
f 374//374 387//387 399//399
f 387//387 446//446 407//407
f 446//446 387//387 374//374
f 380//380 378//378 376//376
f 373//373 376//376 378//378
f 378//378 376//376 373//373
f 376//376 378//378 380//380
f 380//380 376//376 377//377
f 374//374 377//377 376//376
f 376//376 377//377 374//374
f 377//377 376//376 380//380
f 373//373 378//378 375//375
f 379//379 375//375 378//378
f 378//378 375//375 379//379
f 375//375 378//378 373//373
f 375//375 379//379 374//374
f 377//377 374//374 379//379
f 379//379 374//374 377//377
f 374//374 379//379 375//375
f 370//370 392//392 386//386
f 392//392 370//370 372//372
f 387//387 386//386 369//369
f 370//370 369//369 386//386
f 386//386 369//369 370//370
f 369//369 386//386 387//387
f 394//394 371//371 392//392
f 372//372 392//392 371//371
f 371//371 392//392 372//372
f 392//392 371//371 394//394
f 371//371 387//387 394//394
f 387//387 371//371 369//369
f 412//412 409//409 410//410
f 411//411 410//410 409//409
f 414//414 412//412 413//413
f 410//410 413//413 412//412
f 414//414 413//413 415//415
f 416//416 415//415 413//413
f 415//415 416//416 417//417
f 418//418 417//417 416//416
f 417//417 418//418 419//419
f 420//420 419//419 418//418
f 422//422 419//419 421//421
f 420//420 421//421 419//419
f 426//426 423//423 424//424
f 425//425 424//424 423//423
f 409//409 427//427 411//411
f 428//428 411//411 427//427
f 417//417 419//419 415//415
f 414//414 415//415 419//419
f 422//422 414//414 419//419
f 412//412 414//414 422//422
f 423//423 412//412 422//422
f 409//409 412//412 423//423
f 426//426 409//409 423//423
f 427//427 409//409 426//426
f 429//429 427//427 426//426
f 430//430 427//427 429//429
f 431//431 429//429 424//424
f 426//426 424//424 429//429
f 425//425 379//379 424//424
f 425//425 377//377 379//379
f 421//421 377//377 425//425
f 421//421 380//380 377//377
f 421//421 413//413 380//380
f 420//420 413//413 421//421
f 420//420 416//416 413//413
f 416//416 420//420 418//418
f 431//431 428//428 432//432
f 424//424 428//428 431//431
f 379//379 428//428 424//424
f 379//379 411//411 428//428
f 378//378 411//411 379//379
f 378//378 410//410 411//411
f 380//380 410//410 378//378
f 410//410 380//380 413//413
f 428//428 427//427 432//432
f 430//430 432//432 427//427
f 432//432 430//430 431//431
f 429//429 431//431 430//430
f 423//423 422//422 425//425
f 421//421 425//425 422//422
f 422//422 425//425 421//421
f 425//425 422//422 423//423