# https://github.com/mikedh/trimesh
v -0.02875200 0.12986300 -0.04556300
v -0.03032400 0.12921200 -0.03954700
v -0.02875200 0.12986300 -0.03954700
v -0.03032400 0.12921200 -0.04556300
v -0.03167400 0.12817600 -0.03954700
v -0.03167400 0.12817600 -0.04556300
v -0.03270900 0.12682600 -0.04556300
v -0.03270900 0.12682600 -0.03954700
v -0.03336100 0.12525500 -0.04556300
v -0.03336100 0.12525500 -0.03954700
v -0.03358300 0.12356800 -0.04556300
v -0.03358300 0.12356800 -0.03954700
v -0.03336100 0.12188100 -0.04556300
v -0.03336100 0.12188100 -0.03954700
v -0.03270900 0.12030900 -0.04556300
v -0.03270900 0.12030900 -0.03954700
v -0.03167400 0.11895900 -0.04556300
v -0.03167400 0.11895900 -0.03954700
v -0.03032400 0.11792300 -0.03954700
v -0.03032400 0.11792300 -0.04556300
v -0.02875200 0.11727200 -0.03954700
v -0.02875200 0.11727200 -0.04556300
v -0.02706500 0.11705000 -0.03954700
v -0.02706500 0.11705000 -0.04556300
v -0.02537800 0.11727200 -0.03954700
v -0.02537800 0.11727200 -0.04556300
v -0.02380600 0.11792300 -0.03954700
v -0.02380600 0.11792300 -0.04556300
v -0.02245600 0.11895900 -0.03954700
v -0.02245600 0.11895900 -0.04556300
v -0.02142000 0.12030900 -0.04556300
v -0.02142000 0.12030900 -0.03954700
v -0.02076900 0.12188100 -0.04556300
v -0.02076900 0.12188100 -0.03954700
v -0.02054700 0.12356800 -0.04556300
v -0.02054700 0.12356800 -0.03954700
v -0.02076900 0.12525500 -0.04556300
v -0.02076900 0.12525500 -0.03954700
v -0.02142000 0.12682600 -0.04556300
v -0.02142000 0.12682600 -0.03954700
v -0.02245600 0.12817600 -0.04556300
v -0.02245600 0.12817600 -0.03954700
v -0.02380600 0.12921200 -0.03954700
v -0.02380600 0.12921200 -0.04556300
v -0.02537800 0.12986300 -0.03954700
v -0.02537800 0.12986300 -0.04556300
v -0.02706500 0.13008500 -0.03954700
v -0.02706500 0.13008500 -0.04556300
v 0.03587500 0.12986300 -0.04556300
v 0.03430300 0.12921200 -0.03954700
v 0.03587500 0.12986300 -0.03954700
v 0.03430300 0.12921200 -0.04556300
v 0.03295300 0.12817600 -0.03954700
v 0.03295300 0.12817600 -0.04556300
v 0.03191700 0.12682600 -0.04556300
v 0.03191700 0.12682600 -0.03954700
v 0.03126600 0.12525500 -0.04556300
v 0.03126600 0.12525500 -0.03954700
v 0.03104400 0.12356800 -0.04556300
v 0.03104400 0.12356800 -0.03954700
v 0.03126600 0.12188100 -0.04556300
v 0.03126600 0.12188100 -0.03954700
v 0.03191700 0.12030900 -0.04556300
v 0.03191700 0.12030900 -0.03954700
v 0.03295300 0.11895900 -0.04556300
v 0.03295300 0.11895900 -0.03954700
v 0.03430300 0.11792300 -0.03954700
v 0.03430300 0.11792300 -0.04556300
v 0.03587500 0.11727200 -0.03954700
v 0.03587500 0.11727200 -0.04556300
v 0.03756200 0.11705000 -0.03954700
v 0.03756200 0.11705000 -0.04556300
v 0.03924900 0.11727200 -0.03954700
v 0.03924900 0.11727200 -0.04556300
v 0.04082100 0.11792300 -0.03954700
v 0.04082100 0.11792300 -0.04556300
v 0.04217000 0.11895900 -0.03954700
v 0.04217000 0.11895900 -0.04556300
v 0.04320600 0.12030900 -0.04556300
v 0.04320600 0.12030900 -0.03954700
v 0.04385700 0.12188100 -0.04556300
v 0.04385700 0.12188100 -0.03954700
v 0.04407900 0.12356800 -0.04556300
v 0.04407900 0.12356800 -0.03954700
v 0.04385700 0.12525500 -0.04556300
v 0.04385700 0.12525500 -0.03954700
v 0.04320600 0.12682600 -0.04556300
v 0.04320600 0.12682600 -0.03954700
v 0.04217000 0.12817600 -0.04556300
v 0.04217000 0.12817600 -0.03954700
v 0.04082100 0.12921200 -0.03954700
v 0.04082100 0.12921200 -0.04556300
v 0.03924900 0.12986300 -0.03954700
v 0.03924900 0.12986300 -0.04556300
v 0.03756200 0.13008500 -0.03954700
v 0.03756200 0.13008500 -0.04556300
v -0.02875200 -0.11805300 -0.04556300
v -0.03032400 -0.11870400 -0.03954700
v -0.02875200 -0.11805300 -0.03954700
v -0.03032400 -0.11870400 -0.04556300
v -0.03167400 -0.11974000 -0.03954700
v -0.03167400 -0.11974000 -0.04556300
v -0.03270900 -0.12109000 -0.04556300
v -0.03270900 -0.12109000 -0.03954700
v -0.03336100 -0.12266200 -0.04556300
v -0.03336100 -0.12266200 -0.03954700
v -0.03358300 -0.12434900 -0.04556300
v -0.03358300 -0.12434900 -0.03954700
v -0.03336100 -0.12603600 -0.04556300
v -0.03336100 -0.12603600 -0.03954700
v -0.03270900 -0.12760800 -0.04556300
v -0.03270900 -0.12760800 -0.03954700
v -0.03167400 -0.12895700 -0.04556300
v -0.03167400 -0.12895700 -0.03954700
v -0.03032400 -0.12999300 -0.03954700
v -0.03032400 -0.12999300 -0.04556300
v -0.02875200 -0.13064400 -0.03954700
v -0.02875200 -0.13064400 -0.04556300
v -0.02706500 -0.13086600 -0.03954700
v -0.02706500 -0.13086600 -0.04556300
v -0.02537800 -0.13064400 -0.03954700
v -0.02537800 -0.13064400 -0.04556300
v -0.02380600 -0.12999300 -0.03954700
v -0.02380600 -0.12999300 -0.04556300
v -0.02245600 -0.12895700 -0.03954700
v -0.02245600 -0.12895700 -0.04556300
v -0.02142000 -0.12760800 -0.04556300
v -0.02142000 -0.12760800 -0.03954700
v -0.02076900 -0.12603600 -0.04556300
v -0.02076900 -0.12603600 -0.03954700
v -0.02054700 -0.12434900 -0.04556300
v -0.02054700 -0.12434900 -0.03954700
v -0.02076900 -0.12266200 -0.04556300
v -0.02076900 -0.12266200 -0.03954700
v -0.02142000 -0.12109000 -0.04556300
v -0.02142000 -0.12109000 -0.03954700
v -0.02245600 -0.11974000 -0.04556300
v -0.02245600 -0.11974000 -0.03954700
v -0.02380600 -0.11870400 -0.03954700
v -0.02380600 -0.11870400 -0.04556300
v -0.02537800 -0.11805300 -0.03954700
v -0.02537800 -0.11805300 -0.04556300
v -0.02706500 -0.11783100 -0.03954700
v -0.02706500 -0.11783100 -0.04556300
v 0.03587500 -0.11805300 -0.04556300
v 0.03430300 -0.11870400 -0.03954700
v 0.03587500 -0.11805300 -0.03954700
v 0.03430300 -0.11870400 -0.04556300
v 0.03295300 -0.11974000 -0.03954700
v 0.03295300 -0.11974000 -0.04556300
v 0.03191700 -0.12109000 -0.04556300
v 0.03191700 -0.12109000 -0.03954700
v 0.03126600 -0.12266200 -0.04556300
v 0.03126600 -0.12266200 -0.03954700
v 0.03104400 -0.12434900 -0.04556300
v 0.03104400 -0.12434900 -0.03954700
v 0.03126600 -0.12603600 -0.04556300
v 0.03126600 -0.12603600 -0.03954700
v 0.03191700 -0.12760800 -0.04556300
v 0.03191700 -0.12760800 -0.03954700
v 0.03295300 -0.12895700 -0.04556300
v 0.03295300 -0.12895700 -0.03954700
v 0.03430300 -0.12999300 -0.03954700
v 0.03430300 -0.12999300 -0.04556300
v 0.03587500 -0.13064400 -0.03954700
v 0.03587500 -0.13064400 -0.04556300
v 0.03756200 -0.13086600 -0.03954700
v 0.03756200 -0.13086600 -0.04556300
v 0.03924900 -0.13064400 -0.03954700
v 0.03924900 -0.13064400 -0.04556300
v 0.04082100 -0.12999300 -0.03954700
v 0.04082100 -0.12999300 -0.04556300
v 0.04217000 -0.12895700 -0.03954700
v 0.04217000 -0.12895700 -0.04556300
v 0.04320600 -0.12760800 -0.04556300
v 0.04320600 -0.12760800 -0.03954700
v 0.04385700 -0.12603600 -0.04556300
v 0.04385700 -0.12603600 -0.03954700
v 0.04407900 -0.12434900 -0.04556300
v 0.04407900 -0.12434900 -0.03954700
v 0.04385700 -0.12266200 -0.04556300
v 0.04385700 -0.12266200 -0.03954700
v 0.04320600 -0.12109000 -0.04556300
v 0.04320600 -0.12109000 -0.03954700
v 0.04217000 -0.11974000 -0.04556300
v 0.04217000 -0.11974000 -0.03954700
v 0.04082100 -0.11870400 -0.03954700
v 0.04082100 -0.11870400 -0.04556300
v 0.03924900 -0.11805300 -0.03954700
v 0.03924900 -0.11805300 -0.04556300
v 0.03756200 -0.11783100 -0.03954700
v 0.03756200 -0.11783100 -0.04556300
v 0.04722200 0.13285900 -0.03954700
v 0.04722200 -0.13286200 -0.03954700
v 0.04957200 0.13520900 -0.03939100
v 0.04957200 -0.13521200 -0.03939100
v -0.03500100 0.13285900 -0.03954700
v -0.03500100 -0.13286200 -0.03954700
v -0.03735100 0.13520900 -0.03939100
v 0.05709200 -0.13521200 -0.03187000
v 0.05724900 -0.13286200 -0.02952000
v 0.05709200 0.13520900 -0.03187000
v 0.05724900 0.13285900 -0.02952000
v 0.05160900 -0.13724900 -0.03892000
v 0.05160900 0.13724600 -0.03892000
v -0.03735100 -0.13521200 -0.03939100
v -0.03938800 0.13724600 -0.03892000
v 0.04957200 0.14272900 -0.03187000
v 0.04722200 0.14288600 -0.02952000
v -0.03735100 0.14272900 -0.03187000
v -0.03500100 0.14288600 -0.02952000
v 0.05724900 -0.13286200 -0.00896400
v 0.05724900 0.13285900 -0.00896400
v 0.05709200 0.13520900 -0.00661400
v 0.05709200 -0.13521200 -0.00661400
v 0.05662200 -0.13724900 -0.03390700
v 0.05662200 0.13724600 -0.03390700
v 0.04957200 -0.14273200 -0.03187000
v -0.03735100 -0.14273200 -0.03187000
v 0.04722200 -0.14288900 -0.02952000
v -0.03500100 -0.14288900 -0.02952000
v 0.05333200 0.13896900 -0.03813700
v 0.05333200 -0.13897200 -0.03813700
v -0.03938800 -0.13724900 -0.03892000
v -0.04487100 -0.13521200 -0.03187000
v -0.04487100 0.13520900 -0.03187000
v -0.04502800 -0.13286200 -0.02952000
v -0.04502800 0.13285900 -0.02952000
v -0.03735100 0.14272900 -0.00661400
v -0.03500100 0.14288600 -0.00896400
v 0.04722200 0.14288600 -0.00896400
v 0.04957200 0.14272900 -0.00661400
v -0.04111100 0.13896900 -0.03813700
v -0.03938800 0.14225900 -0.03390700
v 0.05160900 0.14225900 -0.03390700
v 0.05662200 0.13724600 -0.00457700
v 0.05662200 -0.13724900 -0.00457700
v 0.05583900 -0.13897200 -0.03563000
v 0.05583900 0.13896900 -0.03563000
v 0.04957200 -0.14273200 -0.00661400
v 0.04722200 -0.14288900 -0.00896400
v -0.03500100 -0.14288900 -0.00896400
v -0.03735100 -0.14273200 -0.00661400
v -0.03938800 -0.14226200 -0.03390700
v 0.05160900 -0.14226200 -0.03390700
v 0.05474200 0.14037900 -0.03704000
v 0.05474200 -0.14038200 -0.03704000
v -0.04111100 -0.13897200 -0.03813700
v -0.04502800 -0.13286200 -0.00896400
v -0.04502800 0.13285900 -0.00896400
v -0.04487100 0.13520900 -0.00661400
v -0.04440100 -0.13724900 -0.03390700
v -0.04440100 0.13724600 -0.03390700
v -0.04487100 -0.13521200 -0.00661400
v -0.03938800 0.14225900 -0.00457700
v 0.05160900 0.14225900 -0.00457700
v -0.04252100 0.14037900 -0.03704000
v -0.04111100 0.14147600 -0.03563000
v 0.05333200 0.14147600 -0.03563000
v 0.05583900 0.13896900 -0.00285400
v 0.05583900 -0.13897200 -0.00285400
v 0.05160900 -0.14226200 -0.00457700
v -0.03938800 -0.14226200 -0.00457700
v -0.04111100 -0.14147900 -0.03563000
v 0.05333200 -0.14147900 -0.03563000
v -0.04252100 -0.14038200 -0.03704000
v -0.04440100 0.13724600 -0.00457700
v -0.04361800 -0.13897200 -0.03563000
v -0.04361800 0.13896900 -0.03563000
v -0.04440100 -0.13724900 -0.00457700
v -0.04111100 0.14147600 -0.00285400
v 0.05333200 0.14147600 -0.00285400
v 0.05474200 0.14037900 -0.00144400
v 0.05474200 -0.14038200 -0.00144400
v 0.05333200 -0.14147900 -0.00285400
v -0.04111100 -0.14147900 -0.00285400
v -0.04361800 0.13896900 -0.00285400
v -0.04361800 -0.13897200 -0.00285400
v -0.04252100 0.14037900 -0.00144400
v -0.04252100 -0.14038200 -0.00144400
v 0.05333200 -0.13897200 -0.00034700
v 0.05333200 0.13896900 -0.00034700
v -0.04111100 0.13896900 -0.00034700
v 0.05160900 -0.13724900 0.00043600
v 0.05160900 0.13724600 0.00043600
v -0.04111100 -0.13897200 -0.00034700
v -0.03938800 0.13724600 0.00043600
v 0.04957200 0.13520900 0.00090600
v 0.04957200 -0.13521200 0.00090600
v -0.03938800 -0.13724900 0.00043600
v -0.03735100 0.13520900 0.00090600
v 0.04722200 -0.13286200 0.00106300
v 0.04722200 0.13285900 0.00106300
v -0.03735100 -0.13521200 0.00090600
v -0.03500100 0.13285900 0.00106300
v -0.03500100 -0.13286200 0.00106300
v -0.00429300 0.13285900 0.01046400
v -0.00429300 0.13285900 0.03603300
v -0.00444900 0.13520900 0.00811300
v -0.00444900 0.13520900 0.03838300
v -0.00444900 -0.13521200 0.03838300
v -0.00429300 -0.13286200 0.03603300
v -0.00429300 -0.13286200 0.01046400
v -0.00444900 -0.13521200 0.00811300
v -0.01197000 0.14272900 0.00811300
v -0.01197000 0.14272900 0.03838300
v -0.01432000 0.14288600 0.01046400
v -0.01432000 0.14288600 0.03603300
v -0.00491900 0.13724600 0.00607700
v -0.00491900 0.13724600 0.04042000
v -0.01432000 0.13285900 0.04606000
v -0.01197000 0.13520900 0.04590300
v -0.01432000 -0.13286200 0.04606000
v -0.01197000 -0.13521200 0.04590300
v -0.00491900 -0.13724900 0.04042000
v -0.00491900 -0.13724900 0.00607700
v -0.01432000 0.13285900 0.00043600
v -0.01432000 -0.13286200 0.00043600
v -0.01197000 0.13520900 0.00059300
v -0.01197000 -0.13521200 0.00059300
v -0.03719400 0.14272900 0.00811300
v -0.03484400 0.14288600 0.01046400
v -0.03484400 0.14288600 0.03603300
v -0.03719400 0.14272900 0.03838300
v -0.00993300 0.14225900 0.00607700
v -0.00993300 0.14225900 0.04042000
v -0.00570300 0.13896900 0.04214300
v -0.00570300 0.13896900 0.00435300
v -0.03484400 0.13285900 0.04606000
v -0.03484400 -0.13286200 0.04606000
v -0.03719400 0.13520900 0.04590300
v -0.03719400 -0.13521200 0.04590300
v -0.00993300 0.13724600 0.04543300
v -0.00993300 -0.13724900 0.04543300
v -0.01197000 -0.14273200 0.00811300
v -0.01432000 -0.14288900 0.01046400
v -0.01197000 -0.14273200 0.03838300
v -0.01432000 -0.14288900 0.03603300
v -0.00570300 -0.13897200 0.04214300
v -0.03484400 0.13285900 0.00043600
v -0.03484400 -0.13286200 0.00043600
v -0.03719400 0.13520900 0.00059300
v -0.03719400 -0.13521200 0.00059300
v -0.00570300 -0.13897200 0.00435300
v -0.00993300 -0.13724900 0.00106300
v -0.00993300 0.13724600 0.00106300
v -0.03923100 0.14225900 0.00607700
v -0.03923100 0.14225900 0.04042000
v -0.00821000 0.14147600 0.00435300
v -0.00821000 0.14147600 0.04214300
v -0.00679900 0.14037900 0.00294300
v -0.00679900 0.14037900 0.04355300
v -0.03923100 0.13724600 0.04543300
v -0.03923100 -0.13724900 0.04543300
v -0.00821000 0.13896900 0.04465000
v -0.00821000 -0.13897200 0.04465000
v -0.03484400 -0.14288900 0.03603300
v -0.03719400 -0.14273200 0.03838300
v -0.03484400 -0.14288900 0.01046400
v -0.03719400 -0.14273200 0.00811300
v -0.00993300 -0.14226200 0.00607700
v -0.00993300 -0.14226200 0.04042000
v -0.00679900 -0.14038200 0.04355300
v -0.03923100 0.13724600 0.00106300
v -0.03923100 -0.13724900 0.00106300
v -0.00679900 -0.14038200 0.00294300
v -0.00821000 0.13896900 0.00184600
v -0.00821000 -0.13897200 0.00184600
v -0.04095500 0.14147600 0.00435300
v -0.04095500 0.14147600 0.04214300
v -0.04095500 0.13896900 0.04465000
v -0.04095500 -0.13897200 0.04465000
v -0.03923100 -0.14226200 0.04042000
v -0.03923100 -0.14226200 0.00607700
v -0.00821000 -0.14147900 0.00435300
v -0.00821000 -0.14147900 0.04214300
v -0.04095500 0.13896900 0.00184600
v -0.04095500 -0.13897200 0.00184600
v -0.04236500 0.14037900 0.00294300
v -0.04236500 0.14037900 0.04355300
v -0.04236500 -0.14038200 0.04355300
v -0.04095500 -0.14147900 0.04214300
v -0.04095500 -0.14147900 0.00435300
v -0.04236500 -0.14038200 0.00294300
v -0.04346100 0.13896900 0.04214300
v -0.04346100 0.13896900 0.00435300
v -0.04346100 -0.13897200 0.04214300
v -0.04346100 -0.13897200 0.00435300
v -0.04424500 0.13724600 0.00607700
v -0.04424500 0.13724600 0.04042000
v -0.04487100 0.13285900 0.03603300
v -0.04487100 0.13285900 0.01046400
v -0.04471500 0.13520900 0.03838300
v -0.04471500 0.13520900 0.00811300
v -0.04487100 -0.13286200 0.03603300
v -0.04487100 -0.13286200 0.01046400
v -0.04471500 -0.13521200 0.03838300
v -0.04424500 -0.13724900 0.04042000
v -0.04424500 -0.13724900 0.00607700
v -0.04471500 -0.13521200 0.00811300
v -0.00491900 0.12337800 0.00607700
v 0.04220800 0.12337800 0.02161900
v -0.00491900 0.12337800 0.02161900
v 0.04220800 0.12337800 0.00607700
v -0.00609400 0.12345600 0.00490100
v 0.04338300 0.12345600 0.00490100
v 0.04338300 0.12345600 0.02279400
v -0.00609400 0.12345600 0.02279400
v 0.04338300 0.12721700 0.00114100
v -0.00491900 0.12839200 0.00106300
v 0.04220800 0.12839200 0.00106300
v -0.00609400 0.12721700 0.00114100
v -0.00711300 0.12369200 0.00388300
v 0.04440200 0.12369200 0.00388300
v 0.04440200 0.12369200 0.02381200
v 0.04722200 0.12839200 0.02161900
v 0.04714400 0.12721700 0.00490100
v 0.04722200 0.12839200 0.00607700
v 0.04714400 0.12721700 0.02279400
v -0.00491900 0.12839200 0.02663200
v 0.04338300 0.12721700 0.02655400
v 0.04220800 0.12839200 0.02663200
v -0.00609400 0.12721700 0.02655400
v -0.00711300 0.12369200 0.02381200
v -0.00993300 0.12839200 0.00607700
v -0.00985500 0.12721700 0.02279400
v -0.00993300 0.12839200 0.02161900
v -0.00985500 0.12721700 0.00490100
v -0.00609400 0.13704200 0.00114100
v -0.00491900 0.13586700 0.00106300
v 0.04220800 0.13586700 0.00106300
v 0.04338300 0.13704200 0.00114100
v 0.04440200 0.12619800 0.00137600
v -0.00711300 0.12619800 0.00137600
v -0.00797500 0.12408300 0.00302100
v 0.04526300 0.12408300 0.00302100
v 0.04722200 0.13586700 0.02161900
v 0.04722200 0.13586700 0.00607700
v 0.04714400 0.13704200 0.02279400
v 0.04526300 0.12408300 0.02467400
v 0.04690900 0.12619800 0.02381200
v 0.04690900 0.12619800 0.00388300
v 0.04714400 0.13704200 0.00490100
v 0.04220800 0.13586700 0.02663200
v 0.04338300 0.13704200 0.02655400
v -0.00491900 0.13586700 0.02663200
v -0.00609400 0.13704200 0.02655400
v 0.04440200 0.12619800 0.02631900
v -0.00711300 0.12619800 0.02631900
v -0.00797500 0.12408300 0.02467400
v -0.00993300 0.13586700 0.02161900
v -0.00993300 0.13586700 0.00607700
v -0.00985500 0.13704200 0.00490100
v -0.00962000 0.12619800 0.02381200
v -0.00962000 0.12619800 0.00388300
v -0.00985500 0.13704200 0.02279400
v -0.00711300 0.13806000 0.00137600
v 0.04440200 0.13806000 0.00137600
v 0.04526300 0.12533600 0.00176800
v -0.00797500 0.12533600 0.00176800
v 0.04596900 0.12463100 0.00231600
v -0.00868000 0.12463100 0.00231600
v 0.04690900 0.13806000 0.02381200
v 0.04596900 0.12463100 0.02537900
v 0.04651700 0.12533600 0.02467400
v 0.04651700 0.12533600 0.00302100
v 0.04690900 0.13806000 0.00388300
v 0.04440200 0.13806000 0.02631900
v -0.00711300 0.13806000 0.02631900
v 0.04526300 0.12533600 0.02592700
v -0.00797500 0.12533600 0.02592700
v -0.00868000 0.12463100 0.02537900
v -0.00962000 0.13806000 0.00388300
v -0.00922800 0.12533600 0.00302100
v -0.00922800 0.12533600 0.02467400
v -0.00962000 0.13806000 0.02381200
v -0.00797500 0.13892200 0.00176800
v 0.04526300 0.13892200 0.00176800
v 0.04651700 0.13892200 0.02467400
v 0.04651700 0.13892200 0.00302100
v 0.04526300 0.13892200 0.02592700
v -0.00797500 0.13892200 0.02592700
v -0.00922800 0.13892200 0.00302100
v -0.00922800 0.13892200 0.02467400
v -0.00868000 0.13962700 0.00231600
v 0.04596900 0.13962700 0.00231600
v 0.04596900 0.13962700 0.02537900
v -0.00868000 0.13962700 0.02537900
v 0.04526300 0.14017500 0.00302100
v -0.00797500 0.14017500 0.00302100
v 0.04526300 0.14017500 0.02467400
v -0.00797500 0.14017500 0.02467400
v -0.00711300 0.14056700 0.00388300
v 0.04440200 0.14056700 0.00388300
v 0.04440200 0.14056700 0.02381200
v -0.00711300 0.14056700 0.02381200
v 0.04338300 0.14080200 0.00490100
v -0.00609400 0.14080200 0.00490100
v 0.04338300 0.14080200 0.02279400
v -0.00609400 0.14080200 0.02279400
v 0.04220800 0.14088000 0.00607700
v -0.00491900 0.14088000 0.00607700
v 0.04220800 0.14088000 0.02161900
v -0.00491900 0.14088000 0.02161900
v -0.00491900 -0.13988100 0.00607700
v 0.04220800 -0.13988100 0.02161900
v -0.00491900 -0.13988100 0.02161900
v 0.04220800 -0.13988100 0.00607700
v -0.00609400 -0.13980300 0.00490100
v 0.04338300 -0.13980300 0.00490100
v 0.04338300 -0.13980300 0.02279400
v -0.00609400 -0.13980300 0.02279400
v 0.04338300 -0.13604200 0.00114100
v -0.00491900 -0.13486700 0.00106300
v 0.04220800 -0.13486700 0.00106300
v -0.00609400 -0.13604200 0.00114100
v -0.00711300 -0.13956800 0.00388300
v 0.04440200 -0.13956800 0.00388300
v 0.04440200 -0.13956800 0.02381200
v 0.04722200 -0.13486700 0.02161900
v 0.04714400 -0.13604200 0.00490100
v 0.04722200 -0.13486700 0.00607700
v 0.04714400 -0.13604200 0.02279400
v -0.00491900 -0.13486700 0.02663200
v 0.04338300 -0.13604200 0.02655400
v 0.04220800 -0.13486700 0.02663200
v -0.00609400 -0.13604200 0.02655400
v -0.00711300 -0.13956800 0.02381200
v -0.00993300 -0.13486700 0.00607700
v -0.00985500 -0.13604200 0.02279400
v -0.00993300 -0.13486700 0.02161900
v -0.00985500 -0.13604200 0.00490100
v -0.00609400 -0.12621700 0.00114100
v -0.00491900 -0.12739200 0.00106300
v 0.04220800 -0.12739200 0.00106300
v 0.04338300 -0.12621700 0.00114100
v 0.04440200 -0.13706100 0.00137600
v -0.00711300 -0.13706100 0.00137600
v -0.00797500 -0.13917600 0.00302100
v 0.04526300 -0.13917600 0.00302100
v 0.04722200 -0.12739200 0.02161900
v 0.04722200 -0.12739200 0.00607700
v 0.04714400 -0.12621700 0.02279400
v 0.04526300 -0.13917600 0.02467400
v 0.04690900 -0.13706100 0.02381200
v 0.04690900 -0.13706100 0.00388300
v 0.04714400 -0.12621700 0.00490100
v 0.04220800 -0.12739200 0.02663200
v 0.04338300 -0.12621700 0.02655400
v -0.00491900 -0.12739200 0.02663200
v -0.00609400 -0.12621700 0.02655400
v 0.04440200 -0.13706100 0.02631900
v -0.00711300 -0.13706100 0.02631900
v -0.00797500 -0.13917600 0.02467400
v -0.00993300 -0.12739200 0.02161900
v -0.00993300 -0.12739200 0.00607700
v -0.00985500 -0.12621700 0.00490100
v -0.00962000 -0.13706100 0.02381200
v -0.00962000 -0.13706100 0.00388300
v -0.00985500 -0.12621700 0.02279400
v -0.00711300 -0.12519900 0.00137600
v 0.04440200 -0.12519900 0.00137600
v 0.04526300 -0.13792200 0.00176800
v -0.00797500 -0.13792200 0.00176800
v 0.04596900 -0.13862700 0.00231600
v -0.00868000 -0.13862700 0.00231600
v 0.04690900 -0.12519900 0.02381200
v 0.04596900 -0.13862700 0.02537900
v 0.04651700 -0.13792200 0.02467400
v 0.04651700 -0.13792200 0.00302100
v 0.04690900 -0.12519900 0.00388300
v 0.04440200 -0.12519900 0.02631900
v -0.00711300 -0.12519900 0.02631900
v 0.04526300 -0.13792200 0.02592700
v -0.00797500 -0.13792200 0.02592700
v -0.00868000 -0.13862700 0.02537900
v -0.00962000 -0.12519900 0.00388300
v -0.00922800 -0.13792200 0.00302100
v -0.00922800 -0.13792200 0.02467400
v -0.00962000 -0.12519900 0.02381200
v -0.00797500 -0.12433700 0.00176800
v 0.04526300 -0.12433700 0.00176800
v 0.04651700 -0.12433700 0.02467400
v 0.04651700 -0.12433700 0.00302100
v 0.04526300 -0.12433700 0.02592700
v -0.00797500 -0.12433700 0.02592700
v -0.00922800 -0.12433700 0.00302100
v -0.00922800 -0.12433700 0.02467400
v -0.00868000 -0.12363200 0.00231600
v 0.04596900 -0.12363200 0.00231600
v 0.04596900 -0.12363200 0.02537900
v -0.00868000 -0.12363200 0.02537900
v 0.04526300 -0.12308400 0.00302100
v -0.00797500 -0.12308400 0.00302100
v 0.04526300 -0.12308400 0.02467400
v -0.00797500 -0.12308400 0.02467400
v -0.00711300 -0.12269200 0.00388300
v 0.04440200 -0.12269200 0.00388300
v 0.04440200 -0.12269200 0.02381200
v -0.00711300 -0.12269200 0.02381200
v 0.04338300 -0.12245700 0.00490100
v -0.00609400 -0.12245700 0.00490100
v 0.04338300 -0.12245700 0.02279400
v -0.00609400 -0.12245700 0.02279400
v 0.04220800 -0.12237900 0.00607700
v -0.00491900 -0.12237900 0.00607700
v 0.04220800 -0.12237900 0.02161900
v -0.00491900 -0.12237900 0.02161900
vn -0.18999063 0.70924619 -0.67887658
vn -0.36712461 0.63589862 0.67886116
vn -0.18999063 0.70924619 0.67887658
vn -0.36712461 0.63589862 -0.67886116
vn -0.51934191 0.51909977 0.67883680
vn -0.51934191 0.51909977 -0.67883680
vn -0.63574138 0.36716174 -0.67898833
vn -0.63574138 0.36716174 0.67898833
vn -0.70924380 0.19028196 -0.67879747
vn -0.70924380 0.19028196 0.67879747
vn -0.73424356 -0.00000000 -0.67888614
vn -0.73424356 -0.00000000 0.67888614
vn -0.70924452 -0.19019653 -0.67882067
vn -0.70924452 -0.19019653 0.67882067
vn -0.63580131 -0.36710087 -0.67896512
vn -0.63580131 -0.36710087 0.67896512
vn -0.51934191 -0.51909977 -0.67883680
vn -0.51934191 -0.51909977 0.67883680
vn -0.36712461 -0.63589862 0.67886116
vn -0.36712461 -0.63589862 -0.67886116
vn -0.18999063 -0.70924619 0.67887658
vn -0.18999063 -0.70924619 -0.67887658
vn 0.00000000 -0.73424356 0.67888614
vn 0.00000000 -0.73424356 -0.67888614
vn 0.18999063 -0.70924619 0.67887658
vn 0.18999063 -0.70924619 -0.67887658
vn 0.36712461 -0.63589862 0.67886116
vn 0.36712461 -0.63589862 -0.67886116
vn 0.51918946 -0.51918946 0.67888483
vn 0.51918946 -0.51918946 -0.67888483
vn 0.63589862 -0.36712461 -0.67886116
vn 0.63589862 -0.36712461 0.67886116
vn 0.70924619 -0.18999063 -0.67887658
vn 0.70924619 -0.18999063 0.67887658
vn 0.73424356 -0.00000000 -0.67888614
vn 0.73424356 -0.00000000 0.67888614
vn 0.70924550 0.19007596 -0.67885340
vn 0.70924550 0.19007596 0.67885340
vn 0.63583876 0.36718543 -0.67888433
vn 0.63583876 0.36718543 0.67888433
vn 0.51918946 0.51918946 -0.67888483
vn 0.51918946 0.51918946 0.67888483
vn 0.36712461 0.63589862 0.67886116
vn 0.36712461 0.63589862 -0.67886116
vn 0.18999063 0.70924619 0.67887658
vn 0.18999063 0.70924619 -0.67887658
vn 0.00000000 0.73424356 0.67888614
vn 0.00000000 0.73424356 -0.67888614
vn -0.18999063 0.70924619 -0.67887658
vn -0.36712461 0.63589862 0.67886116
vn -0.18999063 0.70924619 0.67887658
vn -0.36712461 0.63589862 -0.67886116
vn -0.51918946 0.51918946 0.67888483
vn -0.51918946 0.51918946 -0.67888483
vn -0.63583876 0.36718543 -0.67888433
vn -0.63583876 0.36718543 0.67888433
vn -0.70924550 0.19007596 -0.67885340
vn -0.70924550 0.19007596 0.67885340
vn -0.73424356 -0.00000000 -0.67888614
vn -0.73424356 -0.00000000 0.67888614
vn -0.70924619 -0.18999063 -0.67887658
vn -0.70924619 -0.18999063 0.67887658
vn -0.63589862 -0.36712461 -0.67886116
vn -0.63589862 -0.36712461 0.67886116
vn -0.51918946 -0.51918946 -0.67888483
vn -0.51918946 -0.51918946 0.67888483
vn -0.36712461 -0.63589862 0.67886116
vn -0.36712461 -0.63589862 -0.67886116
vn -0.18999063 -0.70924619 0.67887658
vn -0.18999063 -0.70924619 -0.67887658
vn -0.00000000 -0.73424356 0.67888614
vn 0.00000000 -0.73424356 -0.67888614
vn 0.18999063 -0.70924619 0.67887658
vn 0.18999063 -0.70924619 -0.67887658
vn 0.36725545 -0.63586241 0.67882429
vn 0.36725545 -0.63586241 -0.67882429
vn 0.51925825 -0.51907243 0.67892170
vn 0.51925825 -0.51907243 -0.67892170
vn 0.63589862 -0.36712461 -0.67886116
vn 0.63589862 -0.36712461 0.67886116
vn 0.70924619 -0.18999063 -0.67887658
vn 0.70924619 -0.18999063 0.67887658
vn 0.73424356 -0.00000000 -0.67888614
vn 0.73424356 -0.00000000 0.67888614
vn 0.70924550 0.19007596 -0.67885340
vn 0.70924550 0.19007596 0.67885340
vn 0.63583876 0.36718543 -0.67888433
vn 0.63583876 0.36718543 0.67888433
vn 0.51925825 0.51907243 -0.67892170
vn 0.51925825 0.51907243 0.67892170
vn 0.36725545 0.63586241 0.67882429
vn 0.36725545 0.63586241 -0.67882429
vn 0.18999063 0.70924619 0.67887658
vn 0.18999063 0.70924619 -0.67887658
vn 0.00000000 0.73424356 0.67888614
vn -0.00000000 0.73424356 -0.67888614
vn -0.18999063 0.70924619 -0.67887658
vn -0.36712461 0.63589862 0.67886116
vn -0.18999063 0.70924619 0.67887658
vn -0.36712461 0.63589862 -0.67886116
vn -0.51934191 0.51909977 0.67883680
vn -0.51934191 0.51909977 -0.67883680
vn -0.63580131 0.36710087 -0.67896512
vn -0.63580131 0.36710087 0.67896512
vn -0.70924452 0.19019653 -0.67882067
vn -0.70924452 0.19019653 0.67882067
vn -0.73424356 0.00000000 -0.67888614
vn -0.73424356 -0.00000000 0.67888614
vn -0.70924452 -0.19019653 -0.67882067
vn -0.70924452 -0.19019653 0.67882067
vn -0.63576514 -0.36723168 -0.67892826
vn -0.63576514 -0.36723168 0.67892826
vn -0.51922494 -0.51916859 -0.67887366
vn -0.51922494 -0.51916859 0.67887366
vn -0.36712461 -0.63589862 0.67886116
vn -0.36712461 -0.63589862 -0.67886116
vn -0.18999063 -0.70924619 0.67887658
vn -0.18999063 -0.70924619 -0.67887658
vn 0.00000000 -0.73424356 0.67888614
vn 0.00000000 -0.73424356 -0.67888614
vn 0.18999063 -0.70924619 0.67887658
vn 0.18999063 -0.70924619 -0.67887658
vn 0.36712461 -0.63589862 0.67886116
vn 0.36712461 -0.63589862 -0.67886116
vn 0.51907243 -0.51925825 0.67892170
vn 0.51907243 -0.51925825 -0.67892170
vn 0.63586241 -0.36725545 -0.67882429
vn 0.63586241 -0.36725545 0.67882429
vn 0.70924619 -0.18999063 -0.67887658
vn 0.70924619 -0.18999063 0.67887658
vn 0.73424356 -0.00000000 -0.67888614
vn 0.73424356 0.00000000 0.67888614
vn 0.70924619 0.18999063 -0.67887658
vn 0.70924619 0.18999063 0.67887658
vn 0.63589862 0.36712461 -0.67886116
vn 0.63589862 0.36712461 0.67886116
vn 0.51918946 0.51918946 -0.67888483
vn 0.51918946 0.51918946 0.67888483
vn 0.36712461 0.63589862 0.67886116
vn 0.36712461 0.63589862 -0.67886116
vn 0.18999063 0.70924619 0.67887658
vn 0.18999063 0.70924619 -0.67887658
vn 0.00000000 0.73424356 0.67888614
vn 0.00000000 0.73424356 -0.67888614
vn -0.18999063 0.70924619 -0.67887658
vn -0.36712461 0.63589862 0.67886116
vn -0.18999063 0.70924619 0.67887658
vn -0.36712461 0.63589862 -0.67886116
vn -0.51918946 0.51918946 0.67888483
vn -0.51918946 0.51918946 -0.67888483
vn -0.63589862 0.36712461 -0.67886116
vn -0.63589862 0.36712461 0.67886116
vn -0.70924619 0.18999063 -0.67887658
vn -0.70924619 0.18999063 0.67887658
vn -0.73424356 0.00000000 -0.67888614
vn -0.73424356 0.00000000 0.67888614
vn -0.70924619 -0.18999063 -0.67887658
vn -0.70924619 -0.18999063 0.67887658
vn -0.63586241 -0.36725545 -0.67882429
vn -0.63586241 -0.36725545 0.67882429
vn -0.51907243 -0.51925825 -0.67892170
vn -0.51907243 -0.51925825 0.67892170
vn -0.36712461 -0.63589862 0.67886116
vn -0.36712461 -0.63589862 -0.67886116
vn -0.18999063 -0.70924619 0.67887658
vn -0.18999063 -0.70924619 -0.67887658
vn -0.00000000 -0.73424356 0.67888614
vn 0.00000000 -0.73424356 -0.67888614
vn 0.18999063 -0.70924619 0.67887658
vn 0.18999063 -0.70924619 -0.67887658
vn 0.36725545 -0.63586241 0.67882429
vn 0.36725545 -0.63586241 -0.67882429
vn 0.51914124 -0.51914124 0.67895858
vn 0.51914124 -0.51914124 -0.67895858
vn 0.63586241 -0.36725545 -0.67882429
vn 0.63586241 -0.36725545 0.67882429
vn 0.70924619 -0.18999063 -0.67887658
vn 0.70924619 -0.18999063 0.67887658
vn 0.73424356 -0.00000000 -0.67888614
vn 0.73424356 0.00000000 0.67888614
vn 0.70924619 0.18999063 -0.67887658
vn 0.70924619 0.18999063 0.67887658
vn 0.63589862 0.36712461 -0.67886116
vn 0.63589862 0.36712461 0.67886116
vn 0.51925825 0.51907243 -0.67892170
vn 0.51925825 0.51907243 0.67892170
vn 0.36725545 0.63586241 0.67882429
vn 0.36725545 0.63586241 -0.67882429
vn 0.18999063 0.70924619 0.67887658
vn 0.18999063 0.70924619 -0.67887658
vn 0.00000000 0.73424356 0.67888614
vn -0.00000000 0.73424356 -0.67888614
vn -0.00000000 0.00000000 0.00000000
vn 0.00000000 -0.00000000 -0.00000000
vn 0.00000000 -0.00000000 -0.00000000
vn -0.00000000 0.00000000 0.00000000
vn -0.00000000 -0.00000000 -0.00000000
vn 0.00000000 -0.00000000 0.00000000
vn 0.00000000 0.00000000 0.00000000
vn 0.00000000 0.00000000 -0.00000000
vn -0.00000000 -0.00000000 0.00000000
vn -0.00000000 -0.00000000 0.00000000
vn 0.00000000 -0.00000000 -0.00000000
vn 0.00000000 -0.00000000 -0.00000000
vn -0.00000000 0.00000000 0.00000000
vn -0.00000000 -0.00000000 -0.00000000
vn -0.00000000 -0.00000000 -0.00000000
vn -0.00000000 -0.00000000 0.00000000
vn 0.00000000 0.00000000 -0.00000000
vn -0.00000000 0.00000000 0.00000000
vn -0.00000000 -0.00000000 0.00000000
vn -0.00000000 0.00000000 -0.00000000
vn 0.00000000 0.00000000 0.00000000
vn -0.00000000 0.00000000 -0.00000000
vn 0.00000000 0.00000000 0.00000000
vn -0.00000000 0.00000000 0.00000000
vn 0.00000000 0.00000000 -0.00000000
vn 0.00000000 0.00000000 0.00000000
vn 0.00000000 -0.00000000 -0.00000000
vn 0.00000000 -0.00000000 -0.00000000
vn -0.00000000 0.00000000 0.00000000
vn -0.00000000 -0.00000000 0.00000000
vn 0.00000000 0.00000000 0.00000000
vn 0.00000000 0.00000000 0.00000000
vn -0.00000000 0.00000000 -0.00000000
vn 0.00000000 -0.00000000 0.00000000
vn 0.00000000 0.00000000 0.00000000
vn -0.00000000 0.00000000 -0.00000000
vn 0.00000000 0.00000000 0.00000000
vn 0.00000000 -0.00000000 -0.00000000
vn -0.00000000 0.00000000 0.00000000
vn -0.00000000 -0.00000000 -0.00000000
vn 0.00000000 0.00000000 -0.00000000
vn 0.00000000 0.00000000 -0.00000000
vn -0.00000000 0.00000000 -0.00000000
vn 0.00000000 -0.00000000 0.00000000
vn -0.00000000 -0.00000000 -0.00000000
vn 0.00000000 -0.00000000 -0.00000000
vn -0.00000000 -0.00000000 0.00000000
vn -0.00000000 -0.00000000 0.00000000
vn -0.00000000 0.00000000 -0.00000000
vn 0.00000000 -0.00000000 0.00000000
vn 0.00000000 0.00000000 -0.00000000
vn 0.00000000 -0.00000000 -0.00000000
vn -0.00000000 0.00000000 0.00000000
vn 0.00000000 -0.00000000 -0.00000000
vn -0.00000000 0.00000000 0.00000000
vn -0.00000000 -0.00000000 -0.00000000
vn 0.00000000 -0.00000000 -0.00000000
vn -0.00000000 -0.00000000 0.00000000
vn 0.00000000 -0.00000000 -0.00000000
vn 0.00000000 -0.00000000 0.00000000
vn -0.00000000 -0.00000000 -0.00000000
vn -0.00000000 0.00000000 0.00000000
vn -0.00000000 0.00000000 0.00000000
vn 0.00000000 0.00000000 0.00000000
vn -0.00000000 0.00000000 -0.00000000
vn -0.00000000 -0.00000000 0.00000000
vn 0.00000000 0.00000000 -0.00000000
vn -0.00000000 0.00000000 -0.00000000
vn 0.00000000 0.00000000 0.00000000
vn 0.00000000 0.00000000 -0.00000000
vn -0.00000000 -0.00000000 0.00000000
vn -0.00000000 0.00000000 0.00000000
vn 0.00000000 -0.00000000 -0.00000000
vn 0.00000000 -0.00000000 0.00000000
vn -0.00000000 0.00000000 0.00000000
vn -0.00000000 -0.00000000 -0.00000000
vn 0.00000000 0.00000000 0.00000000
vn 0.00000000 -0.00000000 -0.00000000
vn 0.00000000 -0.00000000 -0.00000000
vn -0.00000000 0.00000000 0.00000000
vn 0.00000000 -0.00000000 0.00000000
vn -0.00000000 -0.00000000 0.00000000
vn -0.00000000 0.00000000 -0.00000000
vn 0.00000000 -0.00000000 0.00000000
vn 0.00000000 -0.00000000 -0.00000000
vn -0.00000000 0.00000000 0.00000000
vn -0.00000000 0.00000000 -0.00000000
vn -0.00000000 0.00000000 -0.00000000
vn -0.00000000 0.00000000 -0.00000000
vn 0.00000000 -0.00000000 -0.00000000
vn -0.00000000 0.00000000 0.00000000
vn -0.00000000 -0.00000000 0.00000000
vn 0.00000000 0.00000000 0.00000000
vn 0.00000000 -0.00000000 0.00000000
vn -0.00000000 -0.00000000 0.00000000
vn 0.00000000 -0.00000000 0.00000000
vn -0.00000000 0.00000000 -0.00000000
vn 0.00000000 0.00000000 -0.00000000
vn 0.00000000 -0.00000000 -0.00000000
vn 0.00000000 0.00000000 0.00000000
vn -0.00000000 -0.00000000 -0.00000000
vn -0.00000000 -0.00000000 0.00000000
vn -0.00000000 0.00000000 0.00000000
vn 0.00000000 -0.00000000 -0.00000000
vn 0.00000000 0.00000000 -0.00000000
vn -0.00000000 -0.00000000 -0.00000000
vn -0.00000000 -0.00000000 0.00000000
vn 0.00000000 0.00000000 -0.00000000
vn -0.00000000 0.00000000 0.00000000
vn 0.00000000 -0.00000000 0.00000000
vn -0.00000000 0.00000000 0.00000000
vn 0.00000000 0.00000000 -0.00000000
vn 0.00000000 -0.00000000 0.00000000
vn 0.00000000 0.00000000 0.00000000
vn -0.00000000 0.00000000 -0.00000000
vn 0.00000000 0.00000000 0.00000000
vn -0.00000000 -0.00000000 0.00000000
vn 0.00000000 0.00000000 0.00000000
vn 0.00000000 -0.00000000 0.00000000
vn -0.00000000 0.00000000 -0.00000000
vn -0.00000000 0.00000000 -0.00000000
vn 0.00000000 -0.00000000 0.00000000
vn -0.00000000 0.00000000 -0.00000000
vn 0.00000000 -0.00000000 -0.00000000
vn 0.00000000 -0.00000000 -0.00000000
vn -0.00000000 0.00000000 0.00000000
vn -0.00000000 0.00000000 0.00000000
vn 0.00000000 -0.00000000 -0.00000000
vn 0.00000000 0.00000000 -0.00000000
vn 0.00000000 -0.00000000 0.00000000
vn -0.00000000 0.00000000 -0.00000000
vn 0.00000000 -0.00000000 -0.00000000
vn -0.00000000 0.00000000 -0.00000000
vn 0.00000000 -0.00000000 -0.00000000
vn -0.00000000 -0.00000000 -0.00000000
vn 0.00000000 0.00000000 -0.00000000
vn 0.00000000 0.00000000 -0.00000000
vn -0.00000000 -0.00000000 0.00000000
vn -0.00000000 -0.00000000 0.00000000
vn 0.00000000 0.00000000 -0.00000000
vn 0.00000000 -0.00000000 0.00000000
vn -0.00000000 0.00000000 -0.00000000
vn 0.00000000 0.00000000 0.00000000
vn -0.00000000 0.00000000 0.00000000
vn -0.00000000 -0.00000000 0.00000000
vn 0.00000000 -0.00000000 -0.00000000
vn 0.00000000 -0.00000000 0.00000000
vn 0.00000000 0.00000000 0.00000000
vn -0.00000000 -0.00000000 -0.00000000
vn -0.00000000 -0.00000000 -0.00000000
vn 0.00000000 0.00000000 0.00000000
vn -0.00000000 0.00000000 0.00000000
vn 0.00000000 0.00000000 0.00000000
vn -0.00000000 -0.00000000 0.00000000
vn -0.00000000 0.00000000 0.00000000
vn 0.00000000 0.00000000 0.00000000
vn 0.00000000 0.00000000 -0.00000000
vn -0.00000000 -0.00000000 0.00000000
vn -0.00000000 -0.00000000 0.00000000
vn -0.00000000 -0.00000000 -0.00000000
vn -0.00000000 0.00000000 0.00000000
vn 0.00000000 -0.00000000 -0.00000000
vn 0.00000000 0.00000000 0.00000000
vn -0.00000000 -0.00000000 -0.00000000
vn -0.00000000 -0.00000000 0.00000000
vn -0.00000000 0.00000000 -0.00000000
vn 0.00000000 -0.00000000 -0.00000000
vn 0.00000000 0.00000000 -0.00000000
vn -0.00000000 -0.00000000 -0.00000000
vn 0.00000000 0.00000000 -0.00000000
vn 0.00000000 -0.00000000 0.00000000
vn -0.00000000 0.00000000 -0.00000000
vn 0.00000000 -0.00000000 0.00000000
vn 0.00000000 0.00000000 -0.00000000
vn 0.00000000 0.00000000 -0.00000000
vn -0.00000000 -0.00000000 0.00000000
vn 0.00000000 -0.00000000 0.00000000
vn -0.00000000 0.00000000 -0.00000000
vn 0.00000000 -0.00000000 -0.00000000
vn -0.00000000 0.00000000 0.00000000
vn 0.00000000 0.00000000 0.00000000
vn -0.00000000 -0.00000000 0.00000000
vn 0.00000000 -0.00000000 -0.00000000
vn -0.00000000 0.00000000 -0.00000000
vn 0.00000000 -0.00000000 0.00000000
vn -0.00000000 0.00000000 -0.00000000
vn -0.00000000 0.00000000 -0.00000000
vn -0.00000000 0.00000000 0.00000000
vn 0.00000000 0.00000000 -0.00000000
vn -0.00000000 -0.00000000 0.00000000
vn 0.00000000 0.00000000 0.00000000
vn 0.00000000 -0.00000000 -0.00000000
vn 0.00000000 0.00000000 -0.00000000
vn -0.00000000 -0.00000000 -0.00000000
vn -0.00000000 -0.00000000 0.00000000
vn 0.00000000 0.00000000 0.00000000
vn 0.00000000 0.00000000 0.00000000
vn -0.00000000 -0.00000000 0.00000000
vn 0.00000000 0.00000000 -0.00000000
vn 0.00000000 -0.00000000 -0.00000000
vn -0.00000000 -0.00000000 -0.00000000
vn 0.00000000 -0.00000000 0.00000000
vn -0.00000000 0.00000000 0.00000000
vn -0.00000000 -0.00000000 0.00000000
vn 0.00000000 -0.00000000 0.00000000
vn 0.00000000 0.00000000 -0.00000000
vn -0.00000000 -0.00000000 -0.00000000
vn -0.00000000 0.00000000 -0.00000000
vn -0.02486610 -0.99938223 -0.02483609
vn 0.02486164 -0.99938171 0.02486164
vn -0.02486164 -0.99938171 0.02486164
vn 0.02486610 -0.99938223 -0.02483609
vn -0.09380756 -0.99115005 -0.09392403
vn 0.09380756 -0.99115005 -0.09392403
vn 0.09381207 -0.99114938 0.09392658
vn -0.09381207 -0.99114938 0.09392658
vn 0.09347697 -0.09347697 -0.99122354
vn -0.02486164 -0.02486164 -0.99938171
vn 0.02486164 -0.02486164 -0.99938171
vn -0.09347697 -0.09347697 -0.99122354
vn -0.18963835 -0.96336786 -0.18963033
vn 0.18983528 -0.96333492 -0.18960062
vn 0.18983528 -0.96333492 0.18960062
vn 0.99938171 -0.02486164 0.02486164
vn 0.99121655 -0.09345602 -0.09357205
vn 0.99938223 -0.02486610 -0.02483609
vn 0.99121588 -0.09346052 0.09357460
vn -0.02486164 -0.02486164 0.99938171
vn 0.09347697 -0.09347697 0.99122354
vn 0.02486164 -0.02486164 0.99938171
vn -0.09347697 -0.09347697 0.99122354
vn -0.18963835 -0.96336786 0.18963033
vn -0.99938223 -0.02486610 -0.02483609
vn -0.99121588 -0.09346052 0.09357460
vn -0.99938171 -0.02486164 0.02486164
vn -0.99121655 -0.09345602 -0.09357205
vn -0.09346052 0.09357460 -0.99121588
vn -0.02486164 0.02486164 -0.99938171
vn 0.02486164 0.02486164 -0.99938171
vn 0.09346052 0.09357460 -0.99121588
vn 0.19006572 -0.18983873 -0.96324258
vn -0.18986847 -0.18986847 -0.96327562
vn -0.30648415 -0.90118530 -0.30648415
vn 0.30620206 -0.90125536 -0.30656005
vn 0.99938171 0.02486164 0.02486164
vn 0.99938223 0.02486610 -0.02483609
vn 0.99120823 0.09355814 0.09355814
vn 0.30620206 -0.90125536 0.30656005
vn 0.96327016 -0.18988631 0.18987833
vn 0.96327016 -0.18988631 -0.18987833
vn 0.99120889 0.09355364 -0.09355559
vn 0.02486164 0.02486164 0.99938171
vn 0.09346052 0.09357460 0.99121588
vn -0.02486164 0.02486164 0.99938171
vn -0.09346052 0.09357460 0.99121588
vn 0.19006572 -0.18983873 0.96324258
vn -0.18986847 -0.18986847 0.96327562
vn -0.30648415 -0.90118530 0.30648415
vn -0.99938171 0.02486164 0.02486164
vn -0.99938223 0.02486610 -0.02483609
vn -0.99120889 0.09355364 -0.09355559
vn -0.96327016 -0.18988631 0.18987833
vn -0.96327016 -0.18988631 -0.18987833
vn -0.99120823 0.09355814 0.09355814
vn -0.18988631 0.18987833 -0.96327016
vn 0.19008357 0.18984858 -0.96323712
vn 0.30633382 -0.30669183 -0.90116575
vn -0.30661585 -0.30661585 -0.90109569
vn 0.57731928 -0.57736576 -0.57736576
vn -0.57735027 -0.57735027 -0.57735027
vn 0.96326470 0.18989618 0.18989618
vn 0.57731928 -0.57736576 0.57736576
vn 0.90109569 -0.30661585 0.30661585
vn 0.90109569 -0.30661585 -0.30661585
vn 0.96326470 0.18989618 -0.18989618
vn 0.19008357 0.18984858 0.96323712
vn -0.18988631 0.18987833 0.96327016
vn 0.30633382 -0.30669183 0.90116575
vn -0.30661585 -0.30661585 0.90109569
vn -0.57735027 -0.57735027 0.57735027
vn -0.96326470 0.18989618 -0.18989618
vn -0.90109569 -0.30661585 -0.30661585
vn -0.90109569 -0.30661585 0.30661585
vn -0.96326470 0.18989618 0.18989618
vn -0.30661585 0.30661585 -0.90109569
vn 0.30633382 0.30669183 -0.90116575
vn 0.90109569 0.30661585 0.30661585
vn 0.90109569 0.30661585 -0.30661585
vn 0.30633382 0.30669183 0.90116575
vn -0.30661585 0.30661585 0.90109569
vn -0.90109569 0.30661585 -0.30661585
vn -0.90109569 0.30661585 0.30661585
vn -0.57735027 0.57735027 -0.57735027
vn 0.57731928 0.57736576 -0.57736576
vn 0.57731928 0.57736576 0.57736576
vn -0.57735027 0.57735027 0.57735027
vn 0.30633382 0.90116575 -0.30669183
vn -0.30661585 0.90109569 -0.30661585
vn 0.30633382 0.90116575 0.30669183
vn -0.30661585 0.90109569 0.30661585
vn -0.18988631 0.96327016 -0.18987833
vn 0.19008357 0.96323712 -0.18984858
vn 0.19008357 0.96323712 0.18984858
vn -0.18988631 0.96327016 0.18987833
vn 0.09345602 0.99121655 -0.09357205
vn -0.09345602 0.99121655 -0.09357205
vn 0.09346052 0.99121588 0.09357460
vn -0.09346052 0.99121588 0.09357460
vn 0.02486610 0.99938223 -0.02483609
vn -0.02486610 0.99938223 -0.02483609
vn 0.02486164 0.99938171 0.02486164
vn -0.02486164 0.99938171 0.02486164
vn -0.02486610 -0.99938223 -0.02483609
vn 0.02486164 -0.99938171 0.02486164
vn -0.02486164 -0.99938171 0.02486164
vn 0.02486610 -0.99938223 -0.02483609
vn -0.09345602 -0.99121655 -0.09357205
vn 0.09345602 -0.99121655 -0.09357205
vn 0.09346052 -0.99121588 0.09357460
vn -0.09346052 -0.99121588 0.09357460
vn 0.09347697 -0.09347697 -0.99122354
vn -0.02486164 -0.02486164 -0.99938171
vn 0.02486164 -0.02486164 -0.99938171
vn -0.09347697 -0.09347697 -0.99122354
vn -0.18988631 -0.96327016 -0.18987833
vn 0.19008357 -0.96323712 -0.18984858
vn 0.19008357 -0.96323712 0.18984858
vn 0.99938171 -0.02486164 0.02486164
vn 0.99121655 -0.09345602 -0.09357205
vn 0.99938223 -0.02486610 -0.02483609
vn 0.99121588 -0.09346052 0.09357460
vn -0.02486164 -0.02486164 0.99938171
vn 0.09347697 -0.09347697 0.99122354
vn 0.02486164 -0.02486164 0.99938171
vn -0.09347697 -0.09347697 0.99122354
vn -0.18988631 -0.96327016 0.18987833
vn -0.99938223 -0.02486610 -0.02483609
vn -0.99121588 -0.09346052 0.09357460
vn -0.99938171 -0.02486164 0.02486164
vn -0.99121655 -0.09345602 -0.09357205
vn -0.09346052 0.09357460 -0.99121588
vn -0.02486164 0.02486164 -0.99938171
vn 0.02486164 0.02486164 -0.99938171
vn 0.09346052 0.09357460 -0.99121588
vn 0.19003595 -0.19003595 -0.96320957
vn -0.18983873 -0.19006572 -0.96324258
vn -0.30695813 -0.90086260 -0.30695813
vn 0.30667599 -0.90093280 -0.30703409
vn 0.99938171 0.02486164 0.02486164
vn 0.99938223 0.02486610 -0.02483609
vn 0.99120823 0.09355814 0.09355814
vn 0.30667599 -0.90093280 0.30703409
vn 0.96323712 -0.19008357 0.18984858
vn 0.96323712 -0.19008357 -0.18984858
vn 0.99120889 0.09355364 -0.09355559
vn 0.02486164 0.02486164 0.99938171
vn 0.09346052 0.09357460 0.99121588
vn -0.02486164 0.02486164 0.99938171
vn -0.09346052 0.09357460 0.99121588
vn 0.19003595 -0.19003595 0.96320957
vn -0.18983873 -0.19006572 0.96324258
vn -0.30695813 -0.90086260 0.30695813
vn -0.99938171 0.02486164 0.02486164
vn -0.99938223 0.02486610 -0.02483609
vn -0.99120889 0.09355364 -0.09355559
vn -0.96323712 -0.19008357 0.18984858
vn -0.96323712 -0.19008357 -0.18984858
vn -0.99120823 0.09355814 0.09355814
vn -0.18988631 0.18987833 -0.96327016
vn 0.19008357 0.18984858 -0.96323712
vn 0.30637327 -0.30671237 -0.90114535
vn -0.30665526 -0.30663634 -0.90107530
vn 0.57741700 -0.57717035 -0.57746341
vn -0.57744799 -0.57715477 -0.57744799
vn 0.96326470 0.18989618 0.18989618
vn 0.57741700 -0.57717035 0.57746341
vn 0.90107530 -0.30663634 0.30665526
vn 0.90107530 -0.30663634 -0.30665526
vn 0.96326470 0.18989618 -0.18989618
vn 0.19008357 0.18984858 0.96323712
vn -0.18988631 0.18987833 0.96327016
vn 0.30637327 -0.30671237 0.90114535
vn -0.30665526 -0.30663634 0.90107530
vn -0.57744799 -0.57715477 0.57744799
vn -0.96326470 0.18989618 -0.18989618
vn -0.90107530 -0.30663634 -0.30665526
vn -0.90107530 -0.30663634 0.30665526
vn -0.96326470 0.18989618 0.18989618
vn -0.30661585 0.30661585 -0.90109569
vn 0.30633382 0.30669183 -0.90116575
vn 0.90109569 0.30661585 0.30661585
vn 0.90109569 0.30661585 -0.30661585
vn 0.30633382 0.30669183 0.90116575
vn -0.30661585 0.30661585 0.90109569
vn -0.90109569 0.30661585 -0.30661585
vn -0.90109569 0.30661585 0.30661585
vn -0.57735027 0.57735027 -0.57735027
vn 0.57731928 0.57736576 -0.57736576
vn 0.57731928 0.57736576 0.57736576
vn -0.57735027 0.57735027 0.57735027
vn 0.30633382 0.90116575 -0.30669183
vn -0.30661585 0.90109569 -0.30661585
vn 0.30633382 0.90116575 0.30669183
vn -0.30661585 0.90109569 0.30661585
vn -0.18988631 0.96327016 -0.18987833
vn 0.19008357 0.96323712 -0.18984858
vn 0.19008357 0.96323712 0.18984858
vn -0.18988631 0.96327016 0.18987833
vn 0.09345602 0.99121655 -0.09357205
vn -0.09345602 0.99121655 -0.09357205
vn 0.09346052 0.99121588 0.09357460
vn -0.09346052 0.99121588 0.09357460
vn 0.02486610 0.99938223 -0.02483609
vn -0.02486610 0.99938223 -0.02483609
vn 0.02486164 0.99938171 0.02486164
vn -0.02486164 0.99938171 0.02486164
f 1//1 2//2 3//3
f 2//2 1//1 4//4
f 4//4 5//5 2//2
f 5//5 4//4 6//6
f 7//7 5//5 6//6
f 5//5 7//7 8//8
f 9//9 8//8 7//7
f 8//8 9//9 10//10
f 11//11 10//10 9//9
f 10//10 11//11 12//12
f 13//13 12//12 11//11
f 12//12 13//13 14//14
f 15//15 14//14 13//13
f 14//14 15//15 16//16
f 17//17 16//16 15//15
f 16//16 17//17 18//18
f 17//17 19//19 18//18
f 19//19 17//17 20//20
f 20//20 21//21 19//19
f 21//21 20//20 22//22
f 22//22 23//23 21//21
f 23//23 22//22 24//24
f 24//24 25//25 23//23
f 25//25 24//24 26//26
f 26//26 27//27 25//25
f 27//27 26//26 28//28
f 28//28 29//29 27//27
f 29//29 28//28 30//30
f 29//29 31//31 32//32
f 31//31 29//29 30//30
f 32//32 33//33 34//34
f 33//33 32//32 31//31
f 34//34 35//35 36//36
f 35//35 34//34 33//33
f 36//36 37//37 38//38
f 37//37 36//36 35//35
f 38//38 39//39 40//40
f 39//39 38//38 37//37
f 40//40 41//41 42//42
f 41//41 40//40 39//39
f 41//41 43//43 42//42
f 43//43 41//41 44//44
f 44//44 45//45 43//43
f 45//45 44//44 46//46
f 46//46 47//47 45//45
f 47//47 46//46 48//48
f 48//48 3//3 47//47
f 3//3 48//48 1//1
f 33//33 37//37 35//35
f 31//31 37//37 33//33
f 31//31 39//39 37//37
f 30//30 39//39 31//31
f 30//30 41//41 39//39
f 28//28 41//41 30//30
f 28//28 44//44 41//41
f 28//28 46//46 44//44
f 26//26 46//46 28//28
f 24//24 46//46 26//26
f 24//24 48//48 46//46
f 24//24 1//1 48//48
f 22//22 1//1 24//24
f 20//20 1//1 22//22
f 20//20 4//4 1//1
f 17//17 4//4 20//20
f 17//17 6//6 4//4
f 15//15 6//6 17//17
f 15//15 7//7 6//6
f 13//13 7//7 15//15
f 13//13 9//9 7//7
f 9//9 13//13 11//11
f 49//49 50//50 51//51
f 50//50 49//49 52//52
f 52//52 53//53 50//50
f 53//53 52//52 54//54
f 55//55 53//53 54//54
f 53//53 55//55 56//56
f 57//57 56//56 55//55
f 56//56 57//57 58//58
f 59//59 58//58 57//57
f 58//58 59//59 60//60
f 61//61 60//60 59//59
f 60//60 61//61 62//62
f 63//63 62//62 61//61
f 62//62 63//63 64//64
f 65//65 64//64 63//63
f 64//64 65//65 66//66
f 65//65 67//67 66//66
f 67//67 65//65 68//68
f 68//68 69//69 67//67
f 69//69 68//68 70//70
f 70//70 71//71 69//69
f 71//71 70//70 72//72
f 72//72 73//73 71//71
f 73//73 72//72 74//74
f 74//74 75//75 73//73
f 75//75 74//74 76//76
f 76//76 77//77 75//75
f 77//77 76//76 78//78
f 77//77 79//79 80//80
f 79//79 77//77 78//78
f 80//80 81//81 82//82
f 81//81 80//80 79//79
f 82//82 83//83 84//84
f 83//83 82//82 81//81
f 84//84 85//85 86//86
f 85//85 84//84 83//83
f 86//86 87//87 88//88
f 87//87 86//86 85//85
f 88//88 89//89 90//90
f 89//89 88//88 87//87
f 89//89 91//91 90//90
f 91//91 89//89 92//92
f 92//92 93//93 91//91
f 93//93 92//92 94//94
f 94//94 95//95 93//93
f 95//95 94//94 96//96
f 96//96 51//51 95//95
f 51//51 96//96 49//49
f 81//81 85//85 83//83
f 79//79 85//85 81//81
f 79//79 87//87 85//85
f 78//78 87//87 79//79
f 78//78 89//89 87//87
f 76//76 89//89 78//78
f 76//76 92//92 89//89
f 76//76 94//94 92//92
f 74//74 94//94 76//76
f 72//72 94//94 74//74
f 72//72 96//96 94//94
f 72//72 49//49 96//96
f 70//70 49//49 72//72
f 68//68 49//49 70//70
f 68//68 52//52 49//49
f 65//65 52//52 68//68
f 65//65 54//54 52//52
f 63//63 54//54 65//65
f 63//63 55//55 54//54
f 61//61 55//55 63//63
f 61//61 57//57 55//55
f 57//57 61//61 59//59
f 97//97 98//98 99//99
f 98//98 97//97 100//100
f 100//100 101//101 98//98
f 101//101 100//100 102//102
f 103//103 101//101 102//102
f 101//101 103//103 104//104
f 105//105 104//104 103//103
f 104//104 105//105 106//106
f 107//107 106//106 105//105
f 106//106 107//107 108//108
f 109//109 108//108 107//107
f 108//108 109//109 110//110
f 111//111 110//110 109//109
f 110//110 111//111 112//112
f 113//113 112//112 111//111
f 112//112 113//113 114//114
f 113//113 115//115 114//114
f 115//115 113//113 116//116
f 116//116 117//117 115//115
f 117//117 116//116 118//118
f 118//118 119//119 117//117
f 119//119 118//118 120//120
f 120//120 121//121 119//119
f 121//121 120//120 122//122
f 122//122 123//123 121//121
f 123//123 122//122 124//124
f 124//124 125//125 123//123
f 125//125 124//124 126//126
f 125//125 127//127 128//128
f 127//127 125//125 126//126
f 128//128 129//129 130//130
f 129//129 128//128 127//127
f 130//130 131//131 132//132
f 131//131 130//130 129//129
f 132//132 133//133 134//134
f 133//133 132//132 131//131
f 134//134 135//135 136//136
f 135//135 134//134 133//133
f 136//136 137//137 138//138
f 137//137 136//136 135//135
f 137//137 139//139 138//138
f 139//139 137//137 140//140
f 140//140 141//141 139//139
f 141//141 140//140 142//142
f 142//142 143//143 141//141
f 143//143 142//142 144//144
f 144//144 99//99 143//143
f 99//99 144//144 97//97
f 129//129 133//133 131//131
f 127//127 133//133 129//129
f 127//127 135//135 133//133
f 126//126 135//135 127//127
f 126//126 137//137 135//135
f 124//124 137//137 126//126
f 124//124 140//140 137//137
f 124//124 142//142 140//140
f 122//122 142//142 124//124
f 120//120 142//142 122//122
f 120//120 144//144 142//142
f 120//120 97//97 144//144
f 118//118 97//97 120//120
f 116//116 97//97 118//118
f 116//116 100//100 97//97
f 113//113 100//100 116//116
f 113//113 102//102 100//100
f 111//111 102//102 113//113
f 111//111 103//103 102//102
f 109//109 103//103 111//111
f 109//109 105//105 103//103
f 105//105 109//109 107//107
f 145//145 146//146 147//147
f 146//146 145//145 148//148
f 148//148 149//149 146//146
f 149//149 148//148 150//150
f 151//151 149//149 150//150
f 149//149 151//151 152//152
f 153//153 152//152 151//151
f 152//152 153//153 154//154
f 155//155 154//154 153//153
f 154//154 155//155 156//156
f 157//157 156//156 155//155
f 156//156 157//157 158//158
f 159//159 158//158 157//157
f 158//158 159//159 160//160
f 161//161 160//160 159//159
f 160//160 161//161 162//162
f 161//161 163//163 162//162
f 163//163 161//161 164//164
f 164//164 165//165 163//163
f 165//165 164//164 166//166
f 166//166 167//167 165//165
f 167//167 166//166 168//168
f 168//168 169//169 167//167
f 169//169 168//168 170//170
f 170//170 171//171 169//169
f 171//171 170//170 172//172
f 172//172 173//173 171//171
f 173//173 172//172 174//174
f 173//173 175//175 176//176
f 175//175 173//173 174//174
f 176//176 177//177 178//178
f 177//177 176//176 175//175
f 178//178 179//179 180//180
f 179//179 178//178 177//177
f 180//180 181//181 182//182
f 181//181 180//180 179//179
f 182//182 183//183 184//184
f 183//183 182//182 181//181
f 184//184 185//185 186//186
f 185//185 184//184 183//183
f 185//185 187//187 186//186
f 187//187 185//185 188//188
f 188//188 189//189 187//187
f 189//189 188//188 190//190
f 190//190 191//191 189//189
f 191//191 190//190 192//192
f 192//192 147//147 191//191
f 147//147 192//192 145//145
f 177//177 181//181 179//179
f 175//175 181//181 177//177
f 175//175 183//183 181//181
f 174//174 183//183 175//175
f 174//174 185//185 183//183
f 172//172 185//185 174//174
f 172//172 188//188 185//185
f 172//172 190//190 188//188
f 170//170 190//190 172//172
f 168//168 190//190 170//170
f 168//168 192//192 190//190
f 168//168 145//145 192//192
f 166//166 145//145 168//168
f 164//164 145//145 166//166
f 164//164 148//148 145//145
f 161//161 148//148 164//164
f 161//161 150//150 148//148
f 159//159 150//150 161//161
f 159//159 151//151 150//150
f 157//157 151//151 159//159
f 157//157 153//153 151//151
f 153//153 157//157 155//155
f 38//38 34//34 36//36
f 40//40 34//34 38//38
f 40//40 32//32 34//34
f 42//42 32//32 40//40
f 42//42 29//29 32//32
f 43//43 29//29 42//42
f 43//43 27//27 29//29
f 45//45 27//27 43//43
f 45//45 25//25 27//27
f 47//47 25//25 45//45
f 47//47 23//23 25//25
f 3//3 23//23 47//47
f 3//3 21//21 23//23
f 2//2 21//21 3//3
f 2//2 19//19 21//21
f 5//5 19//19 2//2
f 5//5 18//18 19//19
f 8//8 18//18 5//5
f 8//8 16//16 18//18
f 10//10 16//16 8//8
f 10//10 14//14 16//16
f 14//14 10//10 12//12
f 86//86 82//82 84//84
f 88//88 82//82 86//86
f 88//88 80//80 82//82
f 90//90 80//80 88//88
f 90//90 77//77 80//80
f 91//91 77//77 90//90
f 91//91 75//75 77//77
f 93//93 75//75 91//91
f 93//93 73//73 75//75
f 95//95 73//73 93//93
f 95//95 71//71 73//73
f 51//51 71//71 95//95
f 51//51 69//69 71//71
f 50//50 69//69 51//51
f 50//50 67//67 69//69
f 53//53 67//67 50//50
f 53//53 66//66 67//67
f 56//56 66//66 53//53
f 56//56 64//64 66//66
f 58//58 64//64 56//56
f 58//58 62//62 64//64
f 62//62 58//58 60//60
f 134//134 130//130 132//132
f 136//136 130//130 134//134
f 136//136 128//128 130//130
f 138//138 128//128 136//136
f 138//138 125//125 128//128
f 139//139 125//125 138//138
f 139//139 123//123 125//125
f 141//141 123//123 139//139
f 141//141 121//121 123//123
f 143//143 121//121 141//141
f 143//143 119//119 121//121
f 99//99 119//119 143//143
f 99//99 117//117 119//119
f 98//98 117//117 99//99
f 98//98 115//115 117//117
f 101//101 115//115 98//98
f 101//101 114//114 115//115
f 104//104 114//114 101//101
f 104//104 112//112 114//114
f 106//106 112//112 104//104
f 106//106 110//110 112//112
f 110//110 106//106 108//108
f 182//182 178//178 180//180
f 184//184 178//178 182//182
f 184//184 176//176 178//178
f 186//186 176//176 184//184
f 186//186 173//173 176//176
f 187//187 173//173 186//186
f 187//187 171//171 173//173
f 189//189 171//171 187//187
f 189//189 169//169 171//171
f 191//191 169//169 189//189
f 191//191 167//167 169//169
f 147//147 167//167 191//191
f 147//147 165//165 167//167
f 146//146 165//165 147//147
f 146//146 163//163 165//165
f 149//149 163//163 146//146
f 149//149 162//162 163//163
f 152//152 162//162 149//149
f 152//152 160//160 162//162
f 154//154 160//160 152//152
f 154//154 158//158 160//160
f 158//158 154//154 156//156
f 193//193 194//194 195//195
f 196//196 195//195 194//194
f 194//194 195//195 196//196
f 195//195 194//194 193//193
f 197//197 198//198 193//193
f 194//194 193//193 198//198
f 198//198 193//193 194//194
f 193//193 198//198 197//197
f 199//199 197//197 195//195
f 193//193 195//195 197//197
f 197//197 195//195 193//193
f 195//195 197//197 199//199
f 200//200 201//201 202//202
f 203//203 202//202 201//201
f 201//201 202//202 203//203
f 202//202 201//201 200//200
f 196//196 204//204 195//195
f 205//205 195//195 204//204
f 204//204 195//195 205//205
f 195//195 204//204 196//196
f 206//206 196//196 198//198
f 194//194 198//198 196//196
f 196//196 198//198 194//194
f 198//198 196//196 206//206
f 199//199 206//206 197//197
f 198//198 197//197 206//206
f 206//206 197//197 198//198
f 197//197 206//206 199//199
f 207//207 199//199 205//205
f 195//195 205//205 199//199
f 199//199 205//205 195//195
f 205//205 199//199 207//207
f 208//208 209//209 210//210
f 211//211 210//210 209//209
f 209//209 210//210 211//211
f 210//210 209//209 208//208
f 201//201 212//212 203//203
f 213//213 203//203 212//212
f 212//212 203//203 213//213
f 203//203 212//212 201//201
f 203//203 213//213 202//202
f 214//214 202//202 213//213
f 213//213 202//202 214//214
f 202//202 213//213 203//203
f 200//200 215//215 201//201
f 212//212 201//201 215//215
f 215//215 201//201 212//212
f 201//201 215//215 200//200
f 216//216 200//200 217//217
f 202//202 217//217 200//200
f 200//200 217//217 202//202
f 217//217 200//200 216//216
f 218//218 219//219 220//220
f 221//221 220//220 219//219
f 219//219 220//220 221//221
f 220//220 219//219 218//218
f 205//205 204//204 222//222
f 223//223 222//222 204//204
f 204//204 222//222 223//223
f 222//222 204//204 205//205
f 224//224 204//204 206//206
f 196//196 206//206 204//204
f 204//204 206//206 196//196
f 206//206 204//204 224//224
f 224//224 206//206 207//207
f 199//199 207//207 206//206
f 206//206 207//207 199//199
f 207//207 206//206 224//224
f 225//225 226//226 227//227
f 228//228 227//227 226//226
f 226//226 227//227 228//228
f 227//227 226//226 225//225
f 210//210 211//211 229//229
f 230//230 229//229 211//211
f 211//211 229//229 230//230
f 229//229 211//211 210//210
f 211//211 209//209 230//230
f 231//231 230//230 209//209
f 209//209 230//230 231//231
f 230//230 209//209 211//211
f 208//208 232//232 209//209
f 231//231 209//209 232//232
f 232//232 209//209 231//231
f 209//209 232//232 208//208
f 233//233 207//207 222//222
f 205//205 222//222 207//207
f 207//207 222//222 205//205
f 222//222 207//207 233//233
f 234//234 235//235 210//210
f 208//208 210//210 235//235
f 235//235 210//210 208//208
f 210//210 235//235 234//234
f 215//215 214//214 212//212
f 213//213 212//212 214//214
f 214//214 212//212 213//213
f 212//212 214//214 215//215
f 202//202 214//214 217//217
f 236//236 217//217 214//214
f 214//214 217//217 236//236
f 217//217 214//214 202//202
f 216//216 237//237 200//200
f 215//215 200//200 237//237
f 237//237 200//200 215//215
f 200//200 237//237 216//216
f 238//238 216//216 239//239
f 217//217 239//239 216//216
f 216//216 239//239 217//217
f 239//239 216//216 238//238
f 218//218 220//220 240//240
f 241//241 240//240 220//220
f 220//220 240//240 241//241
f 240//240 220//220 218//218
f 220//220 221//221 241//241
f 242//242 241//241 221//221
f 221//221 241//241 242//242
f 241//241 221//221 220//220
f 219//219 243//243 221//221
f 242//242 221//221 243//243
f 243//243 221//221 242//242
f 221//221 243//243 219//219
f 244//244 219//219 245//245
f 218//218 245//245 219//219
f 219//219 245//245 218//218
f 245//245 219//219 244//244
f 222//222 223//223 246//246
f 247//247 246//246 223//223
f 223//223 246//246 247//247
f 246//246 223//223 222//222
f 248//248 223//223 224//224
f 204//204 224//224 223//223
f 223//223 224//224 204//204
f 224//224 223//223 248//248
f 249//249 227//227 250//250
f 228//228 250//250 227//227
f 227//227 250//250 228//228
f 250//250 227//227 249//249
f 250//250 228//228 251//251
f 226//226 251//251 228//228
f 228//228 251//251 226//226
f 251//251 228//228 250//250
f 233//233 248//248 207//207
f 224//224 207//207 248//248
f 248//248 207//207 224//224
f 207//207 248//248 233//233
f 252//252 253//253 225//225
f 226//226 225//225 253//253
f 253//253 225//225 226//226
f 225//225 253//253 252//252
f 254//254 225//225 249//249
f 227//227 249//249 225//225
f 225//225 249//249 227//227
f 249//249 225//225 254//254
f 234//234 210//210 255//255
f 229//229 255//255 210//210
f 210//210 255//255 229//229
f 255//255 210//210 234//234
f 230//230 231//231 229//229
f 232//232 229//229 231//231
f 231//231 229//229 232//232
f 229//229 231//231 230//230
f 235//235 256//256 208//208
f 232//232 208//208 256//256
f 256//256 208//208 232//232
f 208//208 256//256 235//235
f 257//257 233//233 246//246
f 222//222 246//246 233//233
f 233//233 246//246 222//222
f 246//246 233//233 257//257
f 258//258 259//259 234//234
f 235//235 234//234 259//259
f 259//259 234//234 235//235
f 234//234 259//259 258//258
f 237//237 236//236 215//215
f 214//214 215//215 236//236
f 236//236 215//215 214//214
f 215//215 236//236 237//237
f 217//217 236//236 239//239
f 260//260 239//239 236//236
f 236//236 239//239 260//260
f 239//239 236//236 217//217
f 238//238 261//261 216//216
f 237//237 216//216 261//261
f 261//261 216//216 237//237
f 216//216 261//261 238//238
f 247//247 238//238 246//246
f 239//239 246//246 238//238
f 238//238 246//246 239//239
f 246//246 238//238 247//247
f 245//245 218//218 262//262
f 240//240 262//262 218//218
f 218//218 262//262 240//240
f 262//262 218//218 245//245
f 241//241 242//242 240//240
f 243//243 240//240 242//242
f 242//242 240//240 243//243
f 240//240 242//242 241//241
f 244//244 263//263 219//219
f 243//243 219//219 263//263
f 263//263 219//219 243//243
f 219//219 263//263 244//244
f 264//264 244//244 265//265
f 245//245 265//265 244//244
f 244//244 265//265 245//245
f 265//265 244//244 264//264
f 266//266 247//247 248//248
f 223//223 248//248 247//247
f 247//247 248//248 223//223
f 248//248 247//247 266//266
f 254//254 249//249 251//251
f 250//250 251//251 249//249
f 249//249 251//251 250//250
f 251//251 249//249 254//254
f 251//251 226//226 267//267
f 253//253 267//267 226//226
f 226//226 267//267 253//253
f 267//267 226//226 251//251
f 266//266 248//248 257//257
f 233//233 257//257 248//248
f 248//248 257//257 233//233
f 257//257 248//248 266//266
f 268//268 269//269 252//252
f 253//253 252//252 269//269
f 269//269 252//252 253//253
f 252//252 269//269 268//268
f 270//270 252//252 254//254
f 225//225 254//254 252//252
f 252//252 254//254 225//225
f 254//254 252//252 270//270
f 258//258 234//234 271//271
f 255//255 271//271 234//234
f 234//234 271//271 255//255
f 271//271 234//234 258//258
f 232//232 256//256 229//229
f 255//255 229//229 256//256
f 256//256 229//229 255//255
f 229//229 256//256 232//232
f 259//259 272//272 235//235
f 256//256 235//235 272//272
f 272//272 235//235 256//256
f 235//235 272//272 259//259
f 246//246 259//259 257//257
f 258//258 257//257 259//259
f 259//259 257//257 258//258
f 257//257 259//259 246//246
f 261//261 260//260 237//237
f 236//236 237//237 260//260
f 260//260 237//237 236//236
f 237//237 260//260 261//261
f 239//239 260//260 246//246
f 273//273 246//246 260//260
f 260//260 246//246 273//273
f 246//246 260//260 239//239
f 274//274 261//261 247//247
f 238//238 247//247 261//261
f 261//261 247//247 238//238
f 247//247 261//261 274//274
f 265//265 245//245 275//275
f 262//262 275//275 245//245
f 245//245 275//275 262//262
f 275//275 245//245 265//265
f 243//243 263//263 240//240
f 262//262 240//240 263//263
f 263//263 240//240 262//262
f 240//240 263//263 243//243
f 264//264 276//276 244//244
f 263//263 244//244 276//276
f 276//276 244//244 263//263
f 244//244 276//276 264//264
f 247//247 266//266 265//265
f 264//264 265//265 266//266
f 266//266 265//265 264//264
f 265//265 266//266 247//247
f 270//270 254//254 267//267
f 251//251 267//267 254//254
f 254//254 267//267 251//251
f 267//267 254//254 270//270
f 267//267 253//253 277//277
f 269//269 277//277 253//253
f 253//253 277//277 269//269
f 277//277 253//253 267//267
f 266//266 257//257 268//268
f 269//269 268//268 257//257
f 257//257 268//268 269//269
f 268//268 257//257 266//266
f 268//268 252//252 278//278
f 270//270 278//278 252//252
f 252//252 278//278 270//270
f 278//278 252//252 268//268
f 257//257 258//258 279//279
f 271//271 279//279 258//258
f 258//258 279//279 271//271
f 279//279 258//258 257//257
f 255//255 256//256 271//271
f 272//272 271//271 256//256
f 256//256 271//271 272//272
f 271//271 256//256 255//255
f 246//246 273//273 259//259
f 272//272 259//259 273//273
f 273//273 259//259 272//272
f 259//259 273//273 246//246
f 274//274 273//273 261//261
f 260//260 261//261 273//273
f 273//273 261//261 260//260
f 261//261 273//273 274//274
f 247//247 265//265 274//274
f 275//275 274//274 265//265
f 265//265 274//274 275//275
f 274//274 265//265 247//247
f 262//262 263//263 275//275
f 276//276 275//275 263//263
f 263//263 275//275 276//276
f 275//275 263//263 262//262
f 266//266 280//280 264//264
f 276//276 264//264 280//280
f 280//280 264//264 276//276
f 264//264 280//280 266//266
f 278//278 270//270 277//277
f 267//267 277//277 270//270
f 270//270 277//277 267//267
f 277//277 270//270 278//278
f 277//277 269//269 279//279
f 257//257 279//279 269//269
f 269//269 279//279 257//257
f 279//279 269//269 277//277
f 266//266 268//268 280//280
f 278//278 280//280 268//268
f 268//268 280//280 278//278
f 280//280 268//268 266//266
f 271//271 272//272 279//279
f 273//273 279//279 272//272
f 272//272 279//279 273//273
f 279//279 272//272 271//271
f 281//281 282//282 274//274
f 273//273 274//274 282//282
f 282//282 274//274 273//273
f 274//274 282//282 281//281
f 275//275 276//276 274//274
f 280//280 274//274 276//276
f 276//276 274//274 280//280
f 274//274 276//276 275//275
f 280//280 278//278 279//279
f 277//277 279//279 278//278
f 278//278 279//279 277//277
f 279//279 278//278 280//280
f 279//279 273//273 283//283
f 282//282 283//283 273//273
f 273//273 283//283 282//282
f 283//283 273//273 279//279
f 284//284 285//285 281//281
f 282//282 281//281 285//285
f 285//285 281//281 282//282
f 281//281 285//285 284//284
f 280//280 286//286 274//274
f 281//281 274//274 286//286
f 286//286 274//274 281//281
f 274//274 286//286 280//280
f 279//279 283//283 280//280
f 286//286 280//280 283//283
f 283//283 280//280 286//286
f 280//280 283//283 279//279
f 283//283 282//282 287//287
f 285//285 287//287 282//282
f 282//282 287//287 285//285
f 287//287 282//282 283//283
f 288//288 285//285 289//289
f 284//284 289//289 285//285
f 285//285 289//289 284//284
f 289//289 285//285 288//288
f 286//286 290//290 281//281
f 284//284 281//281 290//290
f 290//290 281//281 284//284
f 281//281 290//290 286//286
f 286//286 283//283 290//290
f 287//287 290//290 283//283
f 283//283 290//290 287//287
f 290//290 283//283 286//286
f 287//287 285//285 291//291
f 288//288 291//291 285//285
f 285//285 291//291 288//288
f 291//291 285//285 287//287
f 292//292 293//293 289//289
f 288//288 289//289 293//293
f 293//293 289//289 288//288
f 289//289 293//293 292//292
f 290//290 294//294 284//284
f 289//289 284//284 294//294
f 294//294 284//284 289//289
f 284//284 294//294 290//290
f 290//290 287//287 294//294
f 291//291 294//294 287//287
f 287//287 294//294 291//291
f 294//294 287//287 290//290
f 291//291 288//288 295//295
f 293//293 295//295 288//288
f 288//288 295//295 293//293
f 295//295 288//288 291//291
f 296//296 295//295 292//292
f 293//293 292//292 295//295
f 295//295 292//292 293//293
f 292//292 295//295 296//296
f 294//294 296//296 289//289
f 292//292 289//289 296//296
f 296//296 289//289 292//292
f 289//289 296//296 294//294
f 294//294 291//291 296//296
f 295//295 296//296 291//291
f 291//291 296//296 295//295
f 296//296 291//291 294//294
f 297//297 298//298 299//299
f 300//300 299//299 298//298
f 298//298 299//299 300//300
f 299//299 298//298 297//297
f 301//301 300//300 302//302
f 298//298 302//302 300//300
f 300//300 302//302 298//298
f 302//302 300//300 301//301
f 303//303 302//302 297//297
f 298//298 297//297 302//302
f 302//302 297//297 298//298
f 297//297 302//302 303//303
f 304//304 303//303 299//299
f 297//297 299//299 303//303
f 303//303 299//299 297//297
f 299//299 303//303 304//304
f 305//305 306//306 307//307
f 308//308 307//307 306//306
f 306//306 307//307 308//308
f 307//307 306//306 305//305
f 299//299 300//300 309//309
f 310//310 309//309 300//300
f 300//300 309//309 310//310
f 309//309 300//300 299//299
f 311//311 312//312 313//313
f 314//314 313//313 312//312
f 312//312 313//313 314//314
f 313//313 312//312 311//311
f 315//315 310//310 301//301
f 300//300 301//301 310//310
f 310//310 301//301 300//300
f 301//301 310//310 315//315
f 304//304 301//301 303//303
f 302//302 303//303 301//301
f 301//301 303//303 302//302
f 303//303 301//301 304//304
f 316//316 304//304 309//309
f 299//299 309//309 304//304
f 304//304 309//309 299//299
f 309//309 304//304 316//316
f 317//317 318//318 319//319
f 320//320 319//319 318//318
f 318//318 319//319 320//320
f 319//319 318//318 317//317
f 321//321 305//305 322//322
f 307//307 322//322 305//305
f 305//305 322//322 307//307
f 322//322 305//305 321//321
f 322//322 307//307 323//323
f 308//308 323//323 307//307
f 307//307 323//323 308//308
f 323//323 307//307 322//322
f 323//323 308//308 324//324
f 306//306 324//324 308//308
f 308//308 324//324 306//306
f 324//324 308//308 323//323
f 325//325 326//326 305//305
f 306//306 305//305 326//326
f 326//326 305//305 306//306
f 305//305 326//326 325//325
f 310//310 327//327 309//309
f 328//328 309//309 327//327
f 327//327 309//309 328//328
f 309//309 327//327 310//310
f 329//329 311//311 330//330
f 313//313 330//330 311//311
f 311//311 330//330 313//313
f 330//330 311//311 329//329
f 331//331 312//312 329//329
f 311//311 329//329 312//312
f 312//312 329//329 311//311
f 329//329 312//312 331//331
f 332//332 330//330 314//314
f 313//313 314//314 330//330
f 330//330 314//314 313//313
f 314//314 330//330 332//332
f 312//312 333//333 314//314
f 334//334 314//314 333//333
f 333//333 314//314 334//334
f 314//314 333//333 312//312
f 335//335 336//336 337//337
f 338//338 337//337 336//336
f 336//336 337//337 338//338
f 337//337 336//336 335//335
f 339//339 327//327 315//315
f 310//310 315//315 327//327
f 327//327 315//315 310//310
f 315//315 327//327 339//339
f 316//316 315//315 304//304
f 301//301 304//304 315//315
f 315//315 304//304 301//301
f 304//304 315//315 316//316
f 340//340 341//341 317//317
f 318//318 317//317 341//341
f 341//341 317//317 318//318
f 317//317 341//341 340//340
f 342//342 340//340 319//319
f 317//317 319//319 340//340
f 340//340 319//319 317//317
f 319//319 340//340 342//342
f 343//343 320//320 341//341
f 318//318 341//341 320//320
f 320//320 341//341 318//318
f 341//341 320//320 343//343
f 344//344 316//316 328//328
f 309//309 328//328 316//316
f 316//316 328//328 309//309
f 328//328 316//316 344//344
f 320//320 345//345 319//319
f 346//346 319//319 345//345
f 345//345 319//319 346//346
f 319//319 345//345 320//320
f 325//325 305//305 347//347
f 321//321 347//347 305//305
f 305//305 347//347 321//321
f 347//347 305//305 325//325
f 321//321 322//322 324//324
f 323//323 324//324 322//322
f 322//322 324//324 323//323
f 324//324 322//322 321//321
f 306//306 326//326 324//324
f 348//348 324//324 326//326
f 326//326 324//324 348//348
f 324//324 326//326 306//306
f 349//349 350//350 325//325
f 326//326 325//325 350//350
f 350//350 325//325 326//326
f 325//325 350//350 349//349
f 328//328 327//327 351//351
f 352//352 351//351 327//327
f 327//327 351//351 352//352
f 351//351 327//327 328//328
f 331//331 329//329 332//332
f 330//330 332//332 329//329
f 329//329 332//332 330//330
f 332//332 329//329 331//331
f 353//353 333//333 331//331
f 312//312 331//331 333//333
f 333//333 331//331 312//312
f 331//331 333//333 353//353
f 354//354 332//332 334//334
f 314//314 334//334 332//332
f 332//332 334//334 314//314
f 334//334 332//332 354//354
f 333//333 355//355 334//334
f 356//356 334//334 355//355
f 355//355 334//334 356//356
f 334//334 355//355 333//333
f 338//338 357//357 337//337
f 358//358 337//337 357//357
f 357//357 337//337 358//358
f 337//337 357//357 338//338
f 336//336 359//359 338//338
f 357//357 338//338 359//359
f 359//359 338//338 357//357
f 338//338 359//359 336//336
f 335//335 360//360 336//336
f 359//359 336//336 360//360
f 360//360 336//336 359//359
f 336//336 360//360 335//335
f 361//361 335//335 362//362
f 337//337 362//362 335//335
f 335//335 362//362 337//337
f 362//362 335//335 361//361
f 363//363 352//352 339//339
f 327//327 339//339 352//352
f 352//352 339//339 327//327
f 339//339 352//352 363//363
f 339//339 315//315 344//344
f 316//316 344//344 315//315
f 315//315 344//344 316//316
f 344//344 315//315 339//339
f 342//342 343//343 340//340
f 341//341 340//340 343//343
f 343//343 340//340 341//341
f 340//340 343//343 342//342
f 364//364 342//342 346//346
f 319//319 346//346 342//342
f 342//342 346//346 319//319
f 346//346 342//342 364//364
f 365//365 345//345 343//343
f 320//320 343//343 345//345
f 345//345 343//343 320//320
f 343//343 345//345 365//365
f 366//366 344//344 351//351
f 328//328 351//351 344//344
f 344//344 351//351 328//328
f 351//351 344//344 366//366
f 346//346 345//345 367//367
f 368//368 367//367 345//345
f 345//345 367//367 368//368
f 367//367 345//345 346//346
f 369//369 349//349 347//347
f 325//325 347//347 349//349
f 349//349 347//347 325//325
f 347//347 349//349 369//369
f 347//347 321//321 348//348
f 324//324 348//348 321//321
f 321//321 348//348 324//324
f 348//348 321//321 347//347
f 326//326 350//350 348//348
f 370//370 348//348 350//350
f 350//350 348//348 370//370
f 348//348 350//350 326//326
f 351//351 352//352 349//349
f 350//350 349//349 352//352
f 352//352 349//349 350//350
f 349//349 352//352 351//351
f 354//354 353//353 332//332
f 331//331 332//332 353//353
f 353//353 332//332 331//331
f 332//332 353//353 354//354
f 371//371 355//355 353//353
f 333//333 353//353 355//355
f 355//355 353//353 333//333
f 353//353 355//355 371//371
f 372//372 354//354 356//356
f 334//334 356//356 354//354
f 354//354 356//356 334//334
f 356//356 354//354 372//372
f 356//356 355//355 363//363
f 352//352 363//363 355//355
f 355//355 363//363 352//352
f 363//363 355//355 356//356
f 337//337 358//358 362//362
f 373//373 362//362 358//358
f 358//358 362//362 373//373
f 362//362 358//358 337//337
f 360//360 358//358 359//359
f 357//357 359//359 358//358
f 358//358 359//359 357//357
f 359//359 358//358 360//360
f 361//361 374//374 335//335
f 360//360 335//335 374//374
f 374//374 335//335 360//360
f 335//335 374//374 361//361
f 375//375 361//361 376//376
f 362//362 376//376 361//361
f 361//361 376//376 362//362
f 376//376 361//361 375//375
f 366//366 363//363 344//344
f 339//339 344//344 363//363
f 363//363 344//344 339//339
f 344//344 363//363 366//366
f 365//365 343//343 364//364
f 342//342 364//364 343//343
f 343//343 364//364 342//342
f 364//364 343//343 365//365
f 377//377 364//364 367//367
f 346//346 367//367 364//364
f 364//364 367//367 346//346
f 367//367 364//364 377//377
f 378//378 368//368 365//365
f 345//345 365//365 368//368
f 368//368 365//365 345//345
f 365//365 368//368 378//378
f 368//368 366//366 367//367
f 351//351 367//367 366//366
f 366//366 367//367 351//351
f 367//367 366//366 368//368
f 379//379 351//351 369//369
f 349//349 369//369 351//351
f 351//351 369//369 349//349
f 369//369 351//351 379//379
f 369//369 347//347 370//370
f 348//348 370//370 347//347
f 347//347 370//370 348//348
f 370//370 347//347 369//369
f 370//370 350//350 380//380
f 352//352 380//380 350//350
f 350//350 380//380 352//352
f 380//380 350//350 370//370
f 371//371 353//353 372//372
f 354//354 372//372 353//353
f 353//353 372//372 354//354
f 372//372 353//353 371//371
f 380//380 352//352 371//371
f 355//355 371//371 352//352
f 352//352 371//371 355//355
f 371//371 352//352 380//380
f 381//381 372//372 363//363
f 356//356 363//363 372//372
f 372//372 363//363 356//356
f 363//363 372//372 381//381
f 373//373 382//382 362//362
f 376//376 362//362 382//382
f 382//382 362//362 376//376
f 362//362 382//382 373//373
f 374//374 373//373 360//360
f 358//358 360//360 373//373
f 373//373 360//360 358//358
f 360//360 373//373 374//374
f 375//375 383//383 361//361
f 374//374 361//361 383//383
f 383//383 361//361 374//374
f 361//361 383//383 375//375
f 366//366 375//375 363//363
f 376//376 363//363 375//375
f 375//375 363//363 376//376
f 363//363 375//375 366//366
f 377//377 378//378 364//364
f 365//365 364//364 378//378
f 378//378 364//364 365//365
f 364//364 378//378 377//377
f 379//379 377//377 351//351
f 367//367 351//351 377//377
f 377//377 351//351 367//367
f 351//351 377//377 379//379
f 384//384 366//366 378//378
f 368//368 378//378 366//366
f 366//366 378//378 368//368
f 378//378 366//366 384//384
f 379//379 369//369 380//380
f 370//370 380//380 369//369
f 369//369 380//380 370//370
f 380//380 369//369 379//379
f 380//380 371//371 381//381
f 372//372 381//381 371//371
f 371//371 381//381 372//372
f 381//381 371//371 380//380
f 376//376 382//382 363//363
f 381//381 363//363 382//382
f 382//382 363//363 381//381
f 363//363 382//382 376//376
f 383//383 382//382 374//374
f 373//373 374//374 382//382
f 382//382 374//374 373//373
f 374//374 382//382 383//383
f 384//384 383//383 366//366
f 375//375 366//366 383//383
f 383//383 366//366 375//375
f 366//366 383//383 384//384
f 379//379 384//384 377//377
f 378//378 377//377 384//384
f 384//384 377//377 378//378
f 377//377 384//384 379//379
f 385//385 386//386 380//380
f 379//379 380//380 386//386
f 386//386 380//380 379//379
f 380//380 386//386 385//385
f 381//381 387//387 380//380
f 385//385 380//380 387//387
f 387//387 380//380 385//385
f 380//380 387//387 381//381
f 384//384 381//381 383//383
f 382//382 383//383 381//381
f 381//381 383//383 382//382
f 383//383 381//381 384//384
f 384//384 379//379 388//388
f 386//386 388//388 379//379
f 379//379 388//388 386//386
f 388//388 379//379 384//384
f 389//389 386//386 390//390
f 385//385 390//390 386//386
f 386//386 390//390 385//385
f 390//390 386//386 389//389
f 391//391 392//392 393//393
f 394//394 393//393 392//392
f 392//392 393//393 394//394
f 393//393 392//392 391//391
f 395//395 396//396 391//391
f 392//392 391//391 396//396
f 396//396 391//391 392//392
f 391//391 396//396 395//395
f 397//397 395//395 393//393
f 391//391 393//393 395//395
f 395//395 393//393 391//391
f 393//393 395//395 397//397
f 387//387 398//398 385//385
f 390//390 385//385 398//398
f 398//398 385//385 390//390
f 385//385 398//398 387//387
f 381//381 384//384 387//387
f 388//388 387//387 384//384
f 384//384 387//387 388//388
f 387//387 384//384 381//381
f 388//388 386//386 399//399
f 389//389 399//399 386//386
f 386//386 399//399 389//389
f 399//399 386//386 388//388
f 393//393 394//394 390//390
f 389//389 390//390 394//394
f 394//394 390//390 389//389
f 390//390 394//394 393//393
f 400//400 394//394 396//396
f 392//392 396//396 394//394
f 394//394 396//396 392//392
f 396//396 394//394 400//400
f 397//397 400//400 395//395
f 396//396 395//395 400//400
f 400//400 395//395 396//396
f 395//395 400//400 397//397
f 398//398 397//397 390//390
f 393//393 390//390 397//397
f 397//397 390//390 393//393
f 390//390 397//397 398//398
f 387//387 388//388 398//398
f 399//399 398//398 388//388
f 388//388 398//398 399//399
f 398//398 388//388 387//387
f 399//399 389//389 400//400
f 394//394 400//400 389//389
f 389//389 400//400 394//394
f 400//400 389//389 399//399
f 398//398 399//399 397//397
f 400//400 397//397 399//399
f 399//399 397//397 400//400
f 397//397 399//399 398//398
f 401//401 402//402 403//403
f 402//402 401//401 404//404
f 405//405 404//404 401//401
f 404//404 405//405 406//406
f 404//404 407//407 402//402
f 407//407 404//404 406//406
f 403//403 407//407 408//408
f 407//407 403//403 402//402
f 408//408 401//401 403//403
f 401//401 408//408 405//405
f 409//409 410//410 411//411
f 410//410 409//409 412//412
f 413//413 406//406 405//405
f 406//406 413//413 414//414
f 406//406 415//415 407//407
f 415//415 406//406 414//414
f 416//416 417//417 418//418
f 417//417 416//416 419//419
f 420//420 421//421 422//422
f 421//421 420//420 423//423
f 408//408 415//415 424//424
f 415//415 408//408 407//407
f 424//424 405//405 408//408
f 405//405 424//424 413//413
f 425//425 426//426 427//427
f 426//426 425//425 428//428
f 410//410 429//429 430//430
f 429//429 410//410 412//412
f 411//411 430//430 431//431
f 430//430 411//411 410//410
f 411//411 432//432 409//409
f 432//432 411//411 431//431
f 433//433 412//412 409//409
f 412//412 433//433 434//434
f 435//435 414//414 413//413
f 414//414 435//435 436//436
f 437//437 418//418 438//438
f 418//418 437//437 416//416
f 439//439 416//416 437//437
f 416//416 439//439 419//419
f 414//414 440//440 415//415
f 440//440 414//414 436//436
f 441//441 417//417 419//419
f 417//417 441//441 442//442
f 418//418 443//443 438//438
f 443//443 418//418 417//417
f 444//444 421//421 445//445
f 421//421 444//444 422//422
f 446//446 422//422 444//444
f 422//422 446//446 420//420
f 446//446 423//423 420//420
f 423//423 446//446 447//447
f 423//423 448//448 421//421
f 448//448 423//423 449//449
f 424//424 440//440 450//450
f 440//440 424//424 415//415
f 425//425 451//451 452//452
f 451//451 425//425 427//427
f 453//453 425//425 452//452
f 425//425 453//453 428//428
f 450//450 413//413 424//424
f 413//413 450//450 435//435
f 428//428 454//454 426//426
f 454//454 428//428 455//455
f 427//427 456//456 451//451
f 456//456 427//427 426//426
f 434//434 429//429 412//412
f 429//429 434//434 457//457
f 430//430 432//432 431//431
f 432//432 430//430 429//429
f 409//409 458//458 433//433
f 458//458 409//409 432//432
f 459//459 434//434 433//433
f 434//434 459//459 460//460
f 435//435 461//461 436//436
f 461//461 435//435 462//462
f 437//437 443//443 439//439
f 443//443 437//437 438//438
f 463//463 419//419 439//439
f 419//419 463//463 441//441
f 436//436 464//464 440//440
f 464//464 436//436 461//461
f 465//465 442//442 441//441
f 442//442 465//465 466//466
f 417//417 467//467 443//443
f 467//467 417//417 442//442
f 445//445 448//448 468//468
f 448//448 445//445 421//421
f 445//445 446//446 444//444
f 446//446 445//445 447//447
f 447//447 449//449 423//423
f 449//449 447//447 469//469
f 449//449 470//470 448//448
f 470//470 449//449 471//471
f 450//450 464//464 472//472
f 464//464 450//450 440//440
f 452//452 456//456 453//453
f 456//456 452//452 451//451
f 473//473 428//428 453//453
f 428//428 473//473 455//455
f 472//472 435//435 450//450
f 435//435 472//472 462//462
f 474//474 454//454 455//455
f 454//454 474//474 475//475
f 426//426 476//476 456//456
f 476//476 426//426 454//454
f 434//434 477//477 457//457
f 477//477 434//434 460//460
f 429//429 458//458 432//432
f 458//458 429//429 457//457
f 433//433 478//478 459//459
f 478//478 433//433 458//458
f 461//461 460//460 459//459
f 460//460 461//461 462//462
f 439//439 467//467 463//463
f 467//467 439//439 443//443
f 479//479 441//441 463//463
f 441//441 479//479 465//465
f 464//464 466//466 465//465
f 466//466 464//464 461//461
f 442//442 480//480 467//467
f 480//480 442//442 466//466
f 468//468 470//470 481//481
f 470//470 468//468 448//448
f 468//468 447//447 445//445
f 447//447 468//468 469//469
f 469//469 471//471 449//449
f 471//471 469//469 482//482
f 471//471 464//464 470//470
f 464//464 471//471 472//472
f 453//453 476//476 473//473
f 476//476 453//453 456//456
f 483//483 455//455 473//473
f 455//455 483//483 474//474
f 462//462 475//475 474//474
f 475//475 462//462 472//472
f 454//454 484//484 476//476
f 484//484 454//454 475//475
f 460//460 485//485 477//477
f 485//485 460//460 462//462
f 457//457 478//478 458//458
f 478//478 457//457 477//477
f 459//459 486//486 461//461
f 486//486 459//459 478//478
f 479//479 467//467 480//480
f 467//467 479//479 463//463
f 487//487 465//465 479//479
f 465//465 487//487 464//464
f 466//466 486//486 480//480
f 486//486 466//466 461//461
f 481//481 464//464 487//487
f 464//464 481//481 470//470
f 481//481 469//469 468//468
f 469//469 481//481 482//482
f 488//488 471//471 482//482
f 471//471 488//488 472//472
f 473//473 484//484 483//483
f 484//484 473//473 476//476
f 485//485 474//474 483//483
f 474//474 485//485 462//462
f 475//475 488//488 484//484
f 488//488 475//475 472//472
f 477//477 486//486 478//478
f 486//486 477//477 485//485
f 479//479 486//486 487//487
f 486//486 479//479 480//480
f 487//487 482//482 481//481
f 482//482 487//487 488//488
f 483//483 488//488 485//485
f 488//488 483//483 484//484
f 489//489 485//485 490//490
f 485//485 489//489 486//486
f 487//487 489//489 491//491
f 489//489 487//487 486//486
f 487//487 492//492 488//488
f 492//492 487//487 491//491
f 490//490 488//488 492//492
f 488//488 490//490 485//485
f 489//489 493//493 494//494
f 493//493 489//489 490//490
f 491//491 494//494 495//495
f 494//494 491//491 489//489
f 495//495 492//492 491//491
f 492//492 495//495 496//496
f 493//493 492//492 496//496
f 492//492 493//493 490//490
f 497//497 493//493 498//498
f 493//493 497//497 494//494
f 495//495 497//497 499//499
f 497//497 495//495 494//494
f 495//495 500//500 496//496
f 500//500 495//495 499//499
f 498//498 496//496 500//500
f 496//496 498//498 493//493
f 501//501 498//498 502//502
f 498//498 501//501 497//497
f 499//499 501//501 503//503
f 501//501 499//499 497//497
f 499//499 504//504 500//500
f 504//504 499//499 503//503
f 502//502 500//500 504//504
f 500//500 502//502 498//498
f 501//501 504//504 503//503
f 504//504 501//501 502//502
f 505//505 506//506 507//507
f 506//506 505//505 508//508
f 509//509 508//508 505//505
f 508//508 509//509 510//510
f 508//508 511//511 506//506
f 511//511 508//508 510//510
f 507//507 511//511 512//512
f 511//511 507//507 506//506
f 512//512 505//505 507//507
f 505//505 512//512 509//509
f 513//513 514//514 515//515
f 514//514 513//513 516//516
f 517//517 510//510 509//509
f 510//510 517//517 518//518
f 510//510 519//519 511//511
f 519//519 510//510 518//518
f 520//520 521//521 522//522
f 521//521 520//520 523//523
f 524//524 525//525 526//526
f 525//525 524//524 527//527
f 512//512 519//519 528//528
f 519//519 512//512 511//511
f 528//528 509//509 512//512
f 509//509 528//528 517//517
f 529//529 530//530 531//531
f 530//530 529//529 532//532
f 514//514 533//533 534//534
f 533//533 514//514 516//516
f 515//515 534//534 535//535
f 534//534 515//515 514//514
f 515//515 536//536 513//513
f 536//536 515//515 535//535
f 537//537 516//516 513//513
f 516//516 537//537 538//538
f 539//539 518//518 517//517
f 518//518 539//539 540//540
f 541//541 522//522 542//542
f 522//522 541//541 520//520
f 543//543 520//520 541//541
f 520//520 543//543 523//523
f 518//518 544//544 519//519
f 544//544 518//518 540//540
f 545//545 521//521 523//523
f 521//521 545//545 546//546
f 522//522 547//547 542//542
f 547//547 522//522 521//521
f 548//548 525//525 549//549
f 525//525 548//548 526//526
f 550//550 526//526 548//548
f 526//526 550//550 524//524
f 550//550 527//527 524//524
f 527//527 550//550 551//551
f 527//527 552//552 525//525
f 552//552 527//527 553//553
f 528//528 544//544 554//554
f 544//544 528//528 519//519
f 529//529 555//555 556//556
f 555//555 529//529 531//531
f 557//557 529//529 556//556
f 529//529 557//557 532//532
f 554//554 517//517 528//528
f 517//517 554//554 539//539
f 532//532 558//558 530//530
f 558//558 532//532 559//559
f 531//531 560//560 555//555
f 560//560 531//531 530//530
f 538//538 533//533 516//516
f 533//533 538//538 561//561
f 534//534 536//536 535//535
f 536//536 534//534 533//533
f 513//513 562//562 537//537
f 562//562 513//513 536//536
f 563//563 538//538 537//537
f 538//538 563//563 564//564
f 539//539 565//565 540//540
f 565//565 539//539 566//566
f 541//541 547//547 543//543
f 547//547 541//541 542//542
f 567//567 523//523 543//543
f 523//523 567//567 545//545
f 540//540 568//568 544//544
f 568//568 540//540 565//565
f 569//569 546//546 545//545
f 546//546 569//569 570//570
f 521//521 571//571 547//547
f 571//571 521//521 546//546
f 549//549 552//552 572//572
f 552//552 549//549 525//525
f 549//549 550//550 548//548
f 550//550 549//549 551//551
f 551//551 553//553 527//527
f 553//553 551//551 573//573
f 553//553 574//574 552//552
f 574//574 553//553 575//575
f 554//554 568//568 576//576
f 568//568 554//554 544//544
f 556//556 560//560 557//557
f 560//560 556//556 555//555
f 577//577 532//532 557//557
f 532//532 577//577 559//559
f 576//576 539//539 554//554
f 539//539 576//576 566//566
f 578//578 558//558 559//559
f 558//558 578//578 579//579
f 530//530 580//580 560//560
f 580//580 530//530 558//558
f 538//538 581//581 561//561
f 581//581 538//538 564//564
f 533//533 562//562 536//536
f 562//562 533//533 561//561
f 537//537 582//582 563//563
f 582//582 537//537 562//562
f 565//565 564//564 563//563
f 564//564 565//565 566//566
f 543//543 571//571 567//567
f 571//571 543//543 547//547
f 583//583 545//545 567//567
f 545//545 583//583 569//569
f 568//568 570//570 569//569
f 570//570 568//568 565//565
f 546//546 584//584 571//571
f 584//584 546//546 570//570
f 572//572 574//574 585//585
f 574//574 572//572 552//552
f 572//572 551//551 549//549
f 551//551 572//572 573//573
f 573//573 575//575 553//553
f 575//575 573//573 586//586
f 575//575 568//568 574//574
f 568//568 575//575 576//576
f 557//557 580//580 577//577
f 580//580 557//557 560//560
f 587//587 559//559 577//577
f 559//559 587//587 578//578
f 566//566 579//579 578//578
f 579//579 566//566 576//576
f 558//558 588//588 580//580
f 588//588 558//558 579//579
f 564//564 589//589 581//581
f 589//589 564//564 566//566
f 561//561 582//582 562//562
f 582//582 561//561 581//581
f 563//563 590//590 565//565
f 590//590 563//563 582//582
f 583//583 571//571 584//584
f 571//571 583//583 567//567
f 591//591 569//569 583//583
f 569//569 591//591 568//568
f 570//570 590//590 584//584
f 590//590 570//570 565//565
f 585//585 568//568 591//591
f 568//568 585//585 574//574
f 585//585 573//573 572//572
f 573//573 585//585 586//586
f 592//592 575//575 586//586
f 575//575 592//592 576//576
f 577//577 588//588 587//587
f 588//588 577//577 580//580
f 589//589 578//578 587//587
f 578//578 589//589 566//566
f 579//579 592//592 588//588
f 592//592 579//579 576//576
f 581//581 590//590 582//582
f 590//590 581//581 589//589
f 583//583 590//590 591//591
f 590//590 583//583 584//584
f 591//591 586//586 585//585
f 586//586 591//591 592//592
f 587//587 592//592 589//589
f 592//592 587//587 588//588
f 593//593 589//589 594//594
f 589//589 593//593 590//590
f 591//591 593//593 595//595
f 593//593 591//591 590//590
f 591//591 596//596 592//592
f 596//596 591//591 595//595
f 594//594 592//592 596//596
f 592//592 594//594 589//589
f 593//593 597//597 598//598
f 597//597 593//593 594//594
f 595//595 598//598 599//599
f 598//598 595//595 593//593
f 599//599 596//596 595//595
f 596//596 599//599 600//600
f 597//597 596//596 600//600
f 596//596 597//597 594//594
f 601//601 597//597 602//602
f 597//597 601//601 598//598
f 599//599 601//601 603//603
f 601//601 599//599 598//598
f 599//599 604//604 600//600
f 604//604 599//599 603//603
f 602//602 600//600 604//604
f 600//600 602//602 597//597
f 605//605 602//602 606//606
f 602//602 605//605 601//601
f 603//603 605//605 607//607
f 605//605 603//603 601//601
f 603//603 608//608 604//604
f 608//608 603//603 607//607
f 606//606 604//604 608//608
f 604//604 606//606 602//602
f 605//605 608//608 607//607
f 608//608 605//605 606//606