# https://github.com/mikedh/trimesh
v -0.05429900 0.00371400 0.11409400
v -0.05429900 0.00371400 -0.11746000
v -0.05427500 0.00408000 0.11409400
v -0.05427500 0.00408000 -0.11746000
v -0.05420300 0.00444000 0.11409400
v -0.05420300 0.00444000 -0.11746000
v -0.05408500 0.00478800 0.11409400
v -0.05408500 0.00478800 -0.11746000
v -0.05392300 0.00511700 0.11409400
v -0.05392300 0.00511700 -0.11746000
v -0.05371900 0.00542300 0.11409400
v -0.05371900 0.00542300 -0.11746000
v -0.05347700 0.00569900 0.11409400
v -0.05347700 0.00569900 -0.11746000
v -0.05320100 0.00594100 -0.11746000
v -0.05320100 0.00594100 0.11409400
v -0.05289600 0.00614500 -0.11746000
v -0.05289600 0.00614500 0.11409400
v -0.05256600 0.00630700 -0.11746000
v -0.05256600 0.00630700 0.11409400
v -0.05221900 0.00642500 -0.11746000
v -0.05221900 0.00642500 0.11409400
v -0.05185900 0.00649700 -0.11746000
v -0.05185900 0.00649700 0.11409400
v -0.05149200 0.00652100 -0.11746000
v -0.05149200 0.00652100 -0.11405800
v -0.05149200 0.00652100 0.11033000
v -0.05149200 0.00652100 0.11409400
v 0.09060500 0.00652100 -0.11405800
v 0.09364500 0.00652100 0.11409400
v 0.09060500 0.00652100 0.11033000
v 0.09364500 0.00652100 -0.11746000
v 0.09364500 0.00977800 -0.11746000
v 0.09364500 0.00977800 0.11409400
v -0.05726700 0.00977800 -0.11746000
v -0.05726700 0.00977800 0.11409400
v -0.05769200 0.00975000 0.11409400
v -0.05769200 0.00975000 -0.11746000
v -0.05811000 0.00966700 0.11409400
v -0.05811000 0.00966700 -0.11746000
v -0.05851300 0.00953000 0.11409400
v -0.05851300 0.00953000 -0.11746000
v -0.05889500 0.00934100 0.11409400
v -0.05889500 0.00934100 -0.11746000
v -0.05924900 0.00910500 0.11409400
v -0.05924900 0.00910500 -0.11746000
v -0.05957000 0.00882400 0.11409400
v -0.05957000 0.00882400 -0.11746000
v -0.05985100 0.00850300 -0.11746000
v -0.05985100 0.00850300 0.11409400
v -0.06008700 0.00814900 -0.11746000
v -0.06008700 0.00814900 0.11409400
v -0.06027600 0.00776700 -0.11746000
v -0.06027600 0.00776700 0.11409400
v -0.06041300 0.00736400 -0.11746000
v -0.06041300 0.00736400 0.11409400
v -0.06049600 0.00694600 -0.11746000
v -0.06049600 0.00694600 0.11409400
v -0.06052400 0.00652100 -0.11746000
v -0.06052400 0.00652100 0.11409400
v -0.06052400 -0.00728300 -0.11746000
v -0.06052400 -0.00728300 0.11409400
v -0.06050200 -0.00761600 -0.11746000
v -0.06050200 -0.00761600 0.11409400
v -0.06043700 -0.00794400 -0.11746000
v -0.06043700 -0.00794400 0.11409400
v -0.06032900 -0.00826000 -0.11746000
v -0.06032900 -0.00826000 0.11409400
v -0.06018100 -0.00856000 -0.11746000
v -0.06018100 -0.00856000 0.11409400
v -0.05999600 -0.00883800 -0.11746000
v -0.05999600 -0.00883800 0.11409400
v -0.05977600 -0.00908900 -0.11746000
v -0.05977600 -0.00908900 0.11409400
v -0.05952400 -0.00930900 0.11409400
v -0.05952400 -0.00930900 -0.11746000
v -0.05924700 -0.00949500 0.11409400
v -0.05924700 -0.00949500 -0.11746000
v -0.05894700 -0.00964300 0.11409400
v -0.05894700 -0.00964300 -0.11746000
v -0.05863100 -0.00975000 0.11409400
v -0.05863100 -0.00975000 -0.11746000
v 0.09364500 -0.00614600 0.11409400
v 0.09060500 -0.00614600 0.11033000
v -0.05149200 -0.00614600 0.11409400
v 0.09060500 -0.00614600 -0.11405800
v 0.09364500 -0.00614600 -0.11746000
v -0.05149200 -0.00614600 -0.11405800
v -0.05149200 -0.00614600 -0.11746000
v -0.05149200 -0.00614600 0.11033000
v -0.05185900 -0.00612200 -0.11746000
v -0.05185900 -0.00612200 0.11409400
v -0.05221900 -0.00605000 -0.11746000
v -0.05221900 -0.00605000 0.11409400
v -0.05256600 -0.00593200 -0.11746000
v -0.05256600 -0.00593200 0.11409400
v -0.05289600 -0.00577000 -0.11746000
v -0.05289600 -0.00577000 0.11409400
v -0.05320100 -0.00556600 -0.11746000
v -0.05320100 -0.00556600 0.11409400
v -0.05347700 -0.00532400 -0.11746000
v -0.05347700 -0.00532400 0.11409400
v -0.05371900 -0.00504800 0.11409400
v -0.05371900 -0.00504800 -0.11746000
v -0.05392300 -0.00474200 0.11409400
v -0.05392300 -0.00474200 -0.11746000
v -0.05408500 -0.00441300 0.11409400
v -0.05408500 -0.00441300 -0.11746000
v -0.05420300 -0.00406500 0.11409400
v -0.05420300 -0.00406500 -0.11746000
v -0.05427500 -0.00370500 0.11409400
v -0.05427500 -0.00370500 -0.11746000
v -0.05429900 -0.00333900 0.11409400
v -0.05429900 -0.00333900 -0.11746000
v -0.05830300 -0.00981500 0.11409400
v -0.05830300 -0.00981500 -0.11746000
v 0.09364500 -0.00983700 0.11409400
v -0.05796900 -0.00983700 0.11409400
v 0.09364500 -0.00983700 -0.11746000
v -0.05796900 -0.00983700 -0.11746000
v -0.05149200 0.00601400 -0.11405800
v 0.09060500 0.00601400 -0.11405800
v 0.09060500 0.00601400 0.11033000
v -0.05149200 0.00601400 0.11033000
v -0.05149200 0.00550700 -0.11405800
v 0.09060500 0.00550700 -0.11405800
v 0.09060500 0.00550700 0.11033000
v -0.05149200 0.00550700 0.11033000
v -0.05149200 0.00500100 -0.11405800
v 0.09060500 0.00500100 -0.11405800
v 0.09060500 0.00500100 0.11033000
v -0.05149200 0.00500100 0.11033000
v -0.05149200 0.00449400 -0.11405800
v 0.09060500 0.00449400 -0.11405800
v 0.09060500 0.00449400 0.11033000
v -0.05149200 0.00449400 0.11033000
v -0.05149200 0.00398700 -0.11405800
v 0.09060500 0.00398700 -0.11405800
v 0.09060500 0.00398700 0.11033000
v -0.05149200 0.00398700 0.11033000
v -0.05149200 0.00348100 -0.11405800
v 0.09060500 0.00348100 -0.11405800
v 0.09060500 0.00348100 0.11033000
v -0.05149200 0.00348100 0.11033000
v -0.05149200 0.00297400 -0.11405800
v 0.09060500 0.00297400 -0.11405800
v 0.09060500 0.00297400 0.11033000
v -0.05149200 0.00297400 0.11033000
v -0.05149200 0.00246700 -0.11405800
v 0.09060500 0.00246700 -0.11405800
v 0.09060500 0.00246700 0.11033000
v -0.05149200 0.00246700 0.11033000
v -0.05149200 0.00196100 -0.11405800
v 0.09060500 0.00196100 -0.11405800
v 0.09060500 0.00196100 0.11033000
v -0.05149200 0.00196100 0.11033000
v -0.05149200 0.00145400 -0.11405800
v 0.09060500 0.00145400 -0.11405800
v 0.09060500 0.00145400 0.11033000
v -0.05149200 0.00145400 0.11033000
v -0.05149200 0.00094700 -0.11405800
v 0.09060500 0.00094700 -0.11405800
v 0.09060500 0.00094700 0.11033000
v -0.05149200 0.00094700 0.11033000
v -0.05149200 0.00044100 -0.11405800
v 0.09060500 0.00044100 -0.11405800
v 0.09060500 0.00044100 0.11033000
v -0.05149200 0.00044100 0.11033000
v -0.05149200 -0.00006600 -0.11405800
v 0.09060500 -0.00006600 -0.11405800
v 0.09060500 -0.00006600 0.11033000
v -0.05149200 -0.00006600 0.11033000
v -0.05149200 -0.00057300 -0.11405800
v 0.09060500 -0.00057300 -0.11405800
v 0.09060500 -0.00057300 0.11033000
v -0.05149200 -0.00057300 0.11033000
v -0.05149200 -0.00107900 -0.11405800
v 0.09060500 -0.00107900 -0.11405800
v 0.09060500 -0.00107900 0.11033000
v -0.05149200 -0.00107900 0.11033000
v -0.05149200 -0.00158600 -0.11405800
v 0.09060500 -0.00158600 -0.11405800
v 0.09060500 -0.00158600 0.11033000
v -0.05149200 -0.00158600 0.11033000
v -0.05149200 -0.00209300 -0.11405800
v 0.09060500 -0.00209300 -0.11405800
v 0.09060500 -0.00209300 0.11033000
v -0.05149200 -0.00209300 0.11033000
v -0.05149200 -0.00259900 -0.11405800
v 0.09060500 -0.00259900 -0.11405800
v 0.09060500 -0.00259900 0.11033000
v -0.05149200 -0.00259900 0.11033000
v -0.05149200 -0.00563900 0.11033000
v 0.09060500 -0.00563900 0.11033000
v 0.09060500 -0.00563900 -0.11405800
v -0.05149200 -0.00563900 -0.11405800
v -0.05149200 -0.00310600 -0.11405800
v 0.09060500 -0.00310600 -0.11405800
v 0.09060500 -0.00310600 0.11033000
v -0.05149200 -0.00310600 0.11033000
v 0.09060500 -0.00513200 -0.11405800
v 0.09060500 -0.00513200 0.11033000
v -0.05149200 -0.00513200 0.11033000
v -0.05149200 -0.00513200 -0.11405800
v -0.05149200 -0.00361200 -0.11405800
v 0.09060500 -0.00361200 -0.11405800
v 0.09060500 -0.00361200 0.11033000
v -0.05149200 -0.00361200 0.11033000
v 0.09060500 -0.00462600 -0.11405800
v 0.09060500 -0.00462600 0.11033000
v -0.05149200 -0.00462600 0.11033000
v -0.05149200 -0.00462600 -0.11405800
v -0.05149200 -0.00411900 -0.11405800
v 0.09060500 -0.00411900 -0.11405800
v 0.09060500 -0.00411900 0.11033000
v -0.05149200 -0.00411900 0.11033000
v -0.02075600 -0.01099500 0.06714500
v -0.02075600 -0.01099500 0.06101200
v -0.02075600 -0.01099500 0.06309000
v -0.02075600 -0.01099500 0.05664100
v -0.02348800 -0.01099500 0.06714500
v -0.02348800 -0.01099500 0.05664100
v -0.01681600 -0.01099500 0.06101200
v -0.01681600 -0.01099500 0.06309000
v -0.01681600 -0.01099500 0.06714500
v -0.01408400 -0.01099500 0.05664100
v -0.01408400 -0.01099500 0.06714500
v -0.01681600 -0.01099500 0.05664100
v -0.01408400 -0.00983700 0.06714500
v -0.01408400 -0.00983700 0.05664100
v -0.01681600 -0.00983700 0.06714500
v -0.01681600 -0.00983700 0.06309000
v -0.02075600 -0.00983700 0.06309000
v -0.02075600 -0.00983700 0.06714500
v -0.02348800 -0.00983700 0.06714500
v -0.02348800 -0.00983700 0.05664100
v -0.02075600 -0.00983700 0.05664100
v -0.02075600 -0.00983700 0.06101200
v -0.01681600 -0.00983700 0.06101200
v -0.01681600 -0.00983700 0.05664100
v -0.00080700 -0.01099500 0.06289900
v -0.00080700 -0.01099500 0.06082200
v -0.00071800 -0.01099500 0.06185900
v -0.00107400 -0.01099500 0.06387200
v -0.00107400 -0.01099500 0.05985000
v -0.00151900 -0.01099500 0.06478000
v -0.00151900 -0.01099500 0.05894400
v -0.00214200 -0.01099500 0.06562100
v -0.00214200 -0.01099500 0.05810300
v -0.00302500 -0.01099500 0.06642600
v -0.00302500 -0.01099500 0.05729900
v -0.00355000 -0.01099500 0.06185900
v -0.00359400 -0.01099500 0.06239500
v -0.00372800 -0.01099500 0.06289400
v -0.00394900 -0.01099500 0.06335600
v -0.00405200 -0.01099500 0.06700000
v -0.00426000 -0.01099500 0.06378000
v -0.00474300 -0.01099500 0.06423100
v -0.00522200 -0.01099500 0.06734600
v -0.00528400 -0.01099500 0.06455500
v -0.00588100 -0.01099500 0.06474900
v -0.00653600 -0.01099500 0.06746000
v -0.00653600 -0.01099500 0.06481300
v -0.00743300 -0.01099500 0.06468100
v -0.00784900 -0.01099500 0.06734600
v -0.00824100 -0.01099500 0.06428500
v -0.00889400 -0.01099500 0.06366900
v -0.00901900 -0.01099500 0.06700000
v -0.00932900 -0.01099500 0.06287700
v -0.00946700 -0.01099500 0.06237200
v -0.01003900 -0.01099500 0.05729900
v -0.00951400 -0.01099500 0.06185900
v -0.01004600 -0.01099500 0.06642600
v -0.01092200 -0.01099500 0.05810300
v -0.01092900 -0.01099500 0.06562100
v -0.01151000 -0.01099500 0.06481600
v -0.01154500 -0.01099500 0.05894400
v -0.01196100 -0.01099500 0.06386300
v -0.01198900 -0.01099500 0.05985000
v -0.01224900 -0.01099500 0.06284900
v -0.01225600 -0.01099500 0.06082200
v -0.01234500 -0.01099500 0.06185900
v -0.00359400 -0.01099500 0.06133000
v -0.00372800 -0.01099500 0.06083600
v -0.00394900 -0.01099500 0.06037400
v -0.00405200 -0.01099500 0.05672400
v -0.00426000 -0.01099500 0.05994500
v -0.00473500 -0.01099500 0.05949300
v -0.00522200 -0.01099500 0.05638000
v -0.00527200 -0.01099500 0.05917000
v -0.00587300 -0.01099500 0.05897600
v -0.00653600 -0.01099500 0.05891100
v -0.00653600 -0.01099500 0.05626400
v -0.00719800 -0.01099500 0.05897600
v -0.00779700 -0.01099500 0.05917200
v -0.00784600 -0.01099500 0.05638000
v -0.00833200 -0.01099500 0.05949700
v -0.00880400 -0.01099500 0.05995400
v -0.00901400 -0.01099500 0.05672400
v -0.00911400 -0.01099500 0.06038800
v -0.00933600 -0.01099500 0.06085000
v -0.00946900 -0.01099500 0.06134000
v -0.00080700 -0.00983700 0.06289900
v -0.00071800 -0.00983700 0.06185900
v -0.00107400 -0.00983700 0.06387200
v -0.00151900 -0.00983700 0.06478000
v -0.00214200 -0.00983700 0.06562100
v -0.00302500 -0.00983700 0.06642600
v -0.00405200 -0.00983700 0.06700000
v -0.00522200 -0.00983700 0.06734600
v -0.00653600 -0.00983700 0.06746000
v -0.00784900 -0.00983700 0.06734600
v -0.00901900 -0.00983700 0.06700000
v -0.01004600 -0.00983700 0.06642600
v -0.01092900 -0.00983700 0.06562100
v -0.01151000 -0.00983700 0.06481600
v -0.01196100 -0.00983700 0.06386300
v -0.01224900 -0.00983700 0.06284900
v -0.01234500 -0.00983700 0.06185900
v -0.01225600 -0.00983700 0.06082200
v -0.01198900 -0.00983700 0.05985000
v -0.01154500 -0.00983700 0.05894400
v -0.01092200 -0.00983700 0.05810300
v -0.01003900 -0.00983700 0.05729900
v -0.00901400 -0.00983700 0.05672400
v -0.00784600 -0.00983700 0.05638000
v -0.00653600 -0.00983700 0.05626400
v -0.00522200 -0.00983700 0.05638000
v -0.00405200 -0.00983700 0.05672400
v -0.00302500 -0.00983700 0.05729900
v -0.00214200 -0.00983700 0.05810300
v -0.00151900 -0.00983700 0.05894400
v -0.00107400 -0.00983700 0.05985000
v -0.00080700 -0.00983700 0.06082200
v -0.00355000 -0.00983700 0.06185900
v -0.00359400 -0.00983700 0.06133000
v -0.00372800 -0.00983700 0.06083600
v -0.00394900 -0.00983700 0.06037400
v -0.00426000 -0.00983700 0.05994500
v -0.00473500 -0.00983700 0.05949300
v -0.00527200 -0.00983700 0.05917000
v -0.00587300 -0.00983700 0.05897600
v -0.00653600 -0.00983700 0.05891100
v -0.00719800 -0.00983700 0.05897600
v -0.00779700 -0.00983700 0.05917200
v -0.00833200 -0.00983700 0.05949700
v -0.00880400 -0.00983700 0.05995400
v -0.00911400 -0.00983700 0.06038800
v -0.00933600 -0.00983700 0.06085000
v -0.00946900 -0.00983700 0.06134000
v -0.00951400 -0.00983700 0.06185900
v -0.00359400 -0.00983700 0.06239500
v -0.00372800 -0.00983700 0.06289400
v -0.00394900 -0.00983700 0.06335600
v -0.00426000 -0.00983700 0.06378000
v -0.00474300 -0.00983700 0.06423100
v -0.00528400 -0.00983700 0.06455500
v -0.00588100 -0.00983700 0.06474900
v -0.00653600 -0.00983700 0.06481300
v -0.00743300 -0.00983700 0.06468100
v -0.00824100 -0.00983700 0.06428500
v -0.00889400 -0.00983700 0.06366900
v -0.00932900 -0.00983700 0.06287700
v -0.00946700 -0.00983700 0.06237200
v 0.00374500 -0.01099500 0.06714500
v 0.00101300 -0.01099500 0.06714500
v 0.00374500 -0.01099500 0.05891900
v 0.00702300 -0.01099500 0.05664100
v 0.00702300 -0.01099500 0.05891900
v 0.00101300 -0.01099500 0.05664100
v 0.00702300 -0.00983700 0.05891900
v 0.00702300 -0.00983700 0.05664100
v 0.00374500 -0.00983700 0.05891900
v 0.00374500 -0.00983700 0.06714500
v 0.00101300 -0.00983700 0.06714500
v 0.00101300 -0.00983700 0.05664100
v 0.01039300 -0.01099500 0.06714500
v 0.01093200 -0.01099500 0.06168900
v 0.01237800 -0.01099500 0.06428200
v 0.00713000 -0.01099500 0.06714500
v 0.01428700 -0.01099500 0.06714500
v 0.01366300 -0.01099500 0.06168900
v 0.01759500 -0.01099500 0.06714500
v 0.01366300 -0.01099500 0.05664100
v 0.01093200 -0.01099500 0.05664100
v 0.01759500 -0.00983700 0.06714500
v 0.01428700 -0.00983700 0.06714500
v 0.01237800 -0.00983700 0.06428200
v 0.01039300 -0.00983700 0.06714500
v 0.00713000 -0.00983700 0.06714500
v 0.01093200 -0.00983700 0.06168900
v 0.01093200 -0.00983700 0.05664100
v 0.01366300 -0.00983700 0.05664100
v 0.01366300 -0.00983700 0.06168900
v 0.02984600 -0.01099500 0.06504800
v 0.02981100 -0.01099500 0.06364900
v 0.02989200 -0.01099500 0.06440500
v 0.02970700 -0.01099500 0.06560400
v 0.02956900 -0.01099500 0.06302800
v 0.02947600 -0.01099500 0.06607500
v 0.02922600 -0.01099500 0.06259400
v 0.02915300 -0.01099500 0.06646000
v 0.02873800 -0.01099500 0.06676000
v 0.02873800 -0.01099500 0.06222800
v 0.02823000 -0.01099500 0.06697400
v 0.03076500 -0.01099500 0.06047900
v 0.03082700 -0.01099500 0.05906500
v 0.03086900 -0.01099500 0.05962700
v 0.03070200 -0.01099500 0.05855900
v 0.03049200 -0.01099500 0.05810800
v 0.03045500 -0.01099500 0.06121900
v 0.03019900 -0.01099500 0.05771100
v 0.03017500 -0.01099500 0.06156300
v 0.02979600 -0.01099500 0.06184500
v 0.02965100 -0.01099500 0.05724200
v 0.02931600 -0.01099500 0.06206700
v 0.02897600 -0.01099500 0.05690900
v 0.02817400 -0.01099500 0.05670900
v 0.02813700 -0.01099500 0.05981200
v 0.02807800 -0.01099500 0.06022200
v 0.02790100 -0.01099500 0.06053800
v 0.02762900 -0.01099500 0.06710200
v 0.02760700 -0.01099500 0.06076100
v 0.02736000 -0.01099500 0.06404400
v 0.02732000 -0.01099500 0.06437200
v 0.02719900 -0.01099500 0.06463800
v 0.02699800 -0.01099500 0.06484400
v 0.02693700 -0.01099500 0.06714500
v 0.02671600 -0.01099500 0.06499000
v 0.02610400 -0.01099500 0.06506800
v 0.02560600 -0.01099500 0.06506800
v 0.02560600 -0.01099500 0.06093600
v 0.02560600 -0.01099500 0.06301300
v 0.02560600 -0.01099500 0.05871900
v 0.02287400 -0.01099500 0.06714500
v 0.02802000 -0.01099500 0.05931500
v 0.02766900 -0.01099500 0.05896600
v 0.02724500 -0.01099500 0.05664100
v 0.02709800 -0.01099500 0.05878000
v 0.02621200 -0.01099500 0.05871900
v 0.02287400 -0.01099500 0.05664100
v 0.02729900 -0.01099500 0.06366900
v 0.02719400 -0.01099500 0.06088900
v 0.02711500 -0.01099500 0.06335900
v 0.02670900 -0.01099500 0.06309900
v 0.02616600 -0.01099500 0.06093600
v 0.02610400 -0.01099500 0.06301300
v 0.03076500 -0.00983700 0.06047900
v 0.03086900 -0.00983700 0.05962700
v 0.03045500 -0.00983700 0.06121900
v 0.03017500 -0.00983700 0.06156300
v 0.02979600 -0.00983700 0.06184500
v 0.02931600 -0.00983700 0.06206700
v 0.02873800 -0.00983700 0.06222800
v 0.02922600 -0.00983700 0.06259400
v 0.02956900 -0.00983700 0.06302800
v 0.02981100 -0.00983700 0.06364900
v 0.02989200 -0.00983700 0.06440500
v 0.02984600 -0.00983700 0.06504800
v 0.02970700 -0.00983700 0.06560400
v 0.02947600 -0.00983700 0.06607500
v 0.02915300 -0.00983700 0.06646000
v 0.02873800 -0.00983700 0.06676000
v 0.02823000 -0.00983700 0.06697400
v 0.02762900 -0.00983700 0.06710200
v 0.02693700 -0.00983700 0.06714500
v 0.02287400 -0.00983700 0.06714500
v 0.02287400 -0.00983700 0.05664100
v 0.02724500 -0.00983700 0.05664100
v 0.02817400 -0.00983700 0.05670900
v 0.02897600 -0.00983700 0.05690900
v 0.02965100 -0.00983700 0.05724200
v 0.03019900 -0.00983700 0.05771100
v 0.03049200 -0.00983700 0.05810800
v 0.03070200 -0.00983700 0.05855900
v 0.03082700 -0.00983700 0.05906500
v 0.02760700 -0.00983700 0.06076100
v 0.02729900 -0.00983700 0.06366900
v 0.02736000 -0.00983700 0.06404400
v 0.02719400 -0.00983700 0.06088900
v 0.02711500 -0.00983700 0.06335900
v 0.02670900 -0.00983700 0.06309900
v 0.02616600 -0.00983700 0.06093600
v 0.02610400 -0.00983700 0.06301300
v 0.02560600 -0.00983700 0.06093600
v 0.02560600 -0.00983700 0.06301300
v 0.02802000 -0.00983700 0.05931500
v 0.02813700 -0.00983700 0.05981200
v 0.02766900 -0.00983700 0.05896600
v 0.02709800 -0.00983700 0.05878000
v 0.02621200 -0.00983700 0.05871900
v 0.02560600 -0.00983700 0.05871900
v 0.02560600 -0.00983700 0.06506800
v 0.02807800 -0.00983700 0.06022200
v 0.02790100 -0.00983700 0.06053800
v 0.02732000 -0.00983700 0.06437200
v 0.02719900 -0.00983700 0.06463800
v 0.02699800 -0.00983700 0.06484400
v 0.02671600 -0.00983700 0.06499000
v 0.02610400 -0.00983700 0.06506800
v 0.03261600 -0.01099500 0.06714500
v 0.03534700 -0.01099500 0.05664100
v 0.03534700 -0.01099500 0.06714500
v 0.03261600 -0.01099500 0.05664100
v 0.03534700 -0.00983700 0.06714500
v 0.03534700 -0.00983700 0.05664100
v 0.03261600 -0.00983700 0.06714500
v 0.03261600 -0.00983700 0.05664100
v 0.04452700 -0.01099500 0.06504800
v 0.04449300 -0.01099500 0.06364900
v 0.04457400 -0.01099500 0.06440500
v 0.04438900 -0.01099500 0.06560400
v 0.04425000 -0.01099500 0.06302800
v 0.04415800 -0.01099500 0.06607500
v 0.04390800 -0.01099500 0.06259400
v 0.04383500 -0.01099500 0.06646000
v 0.04341900 -0.01099500 0.06676000
v 0.04341900 -0.01099500 0.06222800
v 0.04291100 -0.01099500 0.06697400
v 0.04544700 -0.01099500 0.06047900
v 0.04550900 -0.01099500 0.05906500
v 0.04555100 -0.01099500 0.05962700
v 0.04538300 -0.01099500 0.05855900
v 0.04517400 -0.01099500 0.05810800
v 0.04513700 -0.01099500 0.06121900
v 0.04488100 -0.01099500 0.05771100
v 0.04485700 -0.01099500 0.06156300
v 0.04447700 -0.01099500 0.06184500
v 0.04433300 -0.01099500 0.05724200
v 0.04399800 -0.01099500 0.06206700
v 0.04365800 -0.01099500 0.05690900
v 0.04285600 -0.01099500 0.05670900
v 0.04281900 -0.01099500 0.05981200
v 0.04276000 -0.01099500 0.06022200
v 0.04258300 -0.01099500 0.06053800
v 0.04231100 -0.01099500 0.06710200
v 0.04228800 -0.01099500 0.06076100
v 0.04204200 -0.01099500 0.06404400
v 0.04200200 -0.01099500 0.06437200
v 0.04188100 -0.01099500 0.06463800
v 0.04168000 -0.01099500 0.06484400
v 0.04161900 -0.01099500 0.06714500
v 0.04139800 -0.01099500 0.06499000
v 0.04078500 -0.01099500 0.06506800
v 0.04028700 -0.01099500 0.06506800
v 0.04028700 -0.01099500 0.06093600
v 0.04028700 -0.01099500 0.06301300
v 0.04028700 -0.01099500 0.05871900
v 0.03755600 -0.01099500 0.06714500
v 0.04270200 -0.01099500 0.05931500
v 0.04235100 -0.01099500 0.05896600
v 0.04192600 -0.01099500 0.05664100
v 0.04178000 -0.01099500 0.05878000
v 0.04089300 -0.01099500 0.05871900
v 0.03755600 -0.01099500 0.05664100
v 0.04198100 -0.01099500 0.06366900
v 0.04187500 -0.01099500 0.06088900
v 0.04179700 -0.01099500 0.06335900
v 0.04139100 -0.01099500 0.06309900
v 0.04084800 -0.01099500 0.06093600
v 0.04078500 -0.01099500 0.06301300
v 0.04544700 -0.00983700 0.06047900
v 0.04555100 -0.00983700 0.05962700
v 0.04513700 -0.00983700 0.06121900
v 0.04485700 -0.00983700 0.06156300
v 0.04447700 -0.00983700 0.06184500
v 0.04399800 -0.00983700 0.06206700
v 0.04341900 -0.00983700 0.06222800
v 0.04390800 -0.00983700 0.06259400
v 0.04425000 -0.00983700 0.06302800
v 0.04449300 -0.00983700 0.06364900
v 0.04457400 -0.00983700 0.06440500
v 0.04452700 -0.00983700 0.06504800
v 0.04438900 -0.00983700 0.06560400
v 0.04415800 -0.00983700 0.06607500
v 0.04383500 -0.00983700 0.06646000
v 0.04341900 -0.00983700 0.06676000
v 0.04291100 -0.00983700 0.06697400
v 0.04231100 -0.00983700 0.06710200
v 0.04161900 -0.00983700 0.06714500
v 0.03755600 -0.00983700 0.06714500
v 0.03755600 -0.00983700 0.05664100
v 0.04192600 -0.00983700 0.05664100
v 0.04285600 -0.00983700 0.05670900
v 0.04365800 -0.00983700 0.05690900
v 0.04433300 -0.00983700 0.05724200
v 0.04488100 -0.00983700 0.05771100
v 0.04517400 -0.00983700 0.05810800
v 0.04538300 -0.00983700 0.05855900
v 0.04550900 -0.00983700 0.05906500
v 0.04228800 -0.00983700 0.06076100
v 0.04198100 -0.00983700 0.06366900
v 0.04204200 -0.00983700 0.06404400
v 0.04187500 -0.00983700 0.06088900
v 0.04179700 -0.00983700 0.06335900
v 0.04139100 -0.00983700 0.06309900
v 0.04084800 -0.00983700 0.06093600
v 0.04078500 -0.00983700 0.06301300
v 0.04028700 -0.00983700 0.06093600
v 0.04028700 -0.00983700 0.06301300
v 0.04270200 -0.00983700 0.05931500
v 0.04281900 -0.00983700 0.05981200
v 0.04235100 -0.00983700 0.05896600
v 0.04178000 -0.00983700 0.05878000
v 0.04089300 -0.00983700 0.05871900
v 0.04028700 -0.00983700 0.05871900
v 0.04028700 -0.00983700 0.06506800
v 0.04276000 -0.00983700 0.06022200
v 0.04258300 -0.00983700 0.06053800
v 0.04200200 -0.00983700 0.06437200
v 0.04188100 -0.00983700 0.06463800
v 0.04168000 -0.00983700 0.06484400
v 0.04139800 -0.00983700 0.06499000
v 0.04078500 -0.00983700 0.06506800
v 0.05002900 -0.01099500 0.06714500
v 0.04729700 -0.01099500 0.06714500
v 0.05002900 -0.01099500 0.05891900
v 0.05330700 -0.01099500 0.05664100
v 0.05330700 -0.01099500 0.05891900
v 0.04729700 -0.01099500 0.05664100
v 0.05330700 -0.00983700 0.05891900
v 0.05330700 -0.00983700 0.05664100
v 0.05002900 -0.00983700 0.05891900
v 0.05002900 -0.00983700 0.06714500
v 0.04729700 -0.00983700 0.06714500
v 0.04729700 -0.00983700 0.05664100
v 0.06068600 -0.01099500 0.06714500
v 0.05743900 -0.01099500 0.06486700
v 0.06068600 -0.01099500 0.06486700
v 0.05743900 -0.01099500 0.06079700
v 0.05743900 -0.01099500 0.06307500
v 0.05743900 -0.01099500 0.05891900
v 0.05470800 -0.01099500 0.06714500
v 0.06050900 -0.01099500 0.06079700
v 0.06050900 -0.01099500 0.06307500
v 0.06068600 -0.01099500 0.05664100
v 0.06068600 -0.01099500 0.05891900
v 0.05470800 -0.01099500 0.05664100
v 0.06068600 -0.00983700 0.05891900
v 0.06068600 -0.00983700 0.05664100
v 0.05743900 -0.00983700 0.05891900
v 0.05743900 -0.00983700 0.06079700
v 0.06050900 -0.00983700 0.06079700
v 0.06050900 -0.00983700 0.06307500
v 0.05743900 -0.00983700 0.06307500
v 0.05743900 -0.00983700 0.06486700
v 0.06068600 -0.00983700 0.06486700
v 0.06068600 -0.00983700 0.06714500
v 0.05470800 -0.00983700 0.06714500
v 0.05470800 -0.00983700 0.05664100
vn 0.43986411 0.00000000 0.89806434
vn 0.43986411 -0.00000000 -0.89806434
vn 0.00000000 -0.00000000 1.00000000
vn -0.00000000 0.00000000 -1.00000000
vn 0.00000000 -0.00000000 1.00000000
vn -0.00000000 0.00000000 -1.00000000
vn -0.00000000 0.00000000 1.00000000
vn 0.00000000 -0.00000000 -1.00000000
vn 0.00000000 -0.00000000 1.00000000
vn -0.00000000 0.00000000 -1.00000000
vn 0.00000000 -0.00000000 1.00000000
vn -0.00000000 0.00000000 -1.00000000
vn -0.00000000 0.00000000 1.00000000
vn 0.00000000 -0.00000000 -1.00000000
vn -0.00000000 0.00000000 -1.00000000
vn 0.00000000 -0.00000000 1.00000000
vn 0.00000000 -0.00000000 -1.00000000
vn -0.00000000 0.00000000 1.00000000
vn -0.00000000 -0.00000000 -1.00000000
vn 0.00000000 0.00000000 1.00000000
vn -0.00000000 0.00000000 -1.00000000
vn 0.00000000 -0.00000000 1.00000000
vn 0.00000000 -0.00000000 -1.00000000
vn -0.00000000 0.00000000 1.00000000
vn 0.00000000 -0.43988379 -0.89805470
vn -0.40824829 -0.81649658 -0.40824829
vn -0.40824829 -0.81649658 0.40824829
vn 0.00000000 -0.43988379 0.89805470
vn 0.23570226 -0.94280904 -0.23570226
vn 0.57735027 -0.57735027 0.57735027
vn 0.23570226 -0.94280904 0.23570226
vn 0.57735027 -0.57735027 -0.57735027
vn 0.70710678 0.00000000 -0.70710678
vn 0.70710678 0.00000000 0.70710678
vn -0.02989958 0.45383287 -0.89058506
vn -0.02989958 0.45383287 0.89058506
vn -0.09413355 0.71500738 0.69275054
vn -0.09413355 0.71500738 -0.69275054
vn -0.18673173 0.69673871 0.69259399
vn -0.18673173 0.69673871 -0.69259399
vn -0.27662496 0.66618597 0.69258565
vn -0.27662496 0.66618597 -0.69258565
vn -0.36058151 0.62436134 0.69293138
vn -0.36058151 0.62436134 -0.69293138
vn -0.43852030 0.57264231 0.69266206
vn -0.43852030 0.57264231 -0.69266206
vn -0.51013006 0.51013006 0.69248440
vn -0.51013006 0.51013006 -0.69248440
vn -0.57264231 0.43852030 -0.69266206
vn -0.57264231 0.43852030 0.69266206
vn -0.62436134 0.36058151 -0.69293138
vn -0.62436134 0.36058151 0.69293138
vn -0.66618597 0.27662496 -0.69258565
vn -0.66618597 0.27662496 0.69258565
vn -0.69673871 0.18673173 -0.69259399
vn -0.69673871 0.18673173 0.69259399
vn -0.71500738 0.09413355 -0.69275054
vn -0.71500738 0.09413355 0.69275054
vn -0.71397311 0.02349365 -0.69977886
vn -0.71397311 0.02349365 0.69977886
vn -0.71399069 -0.02355960 -0.69975870
vn -0.71399069 -0.02355960 0.69975870
vn -0.71495886 -0.09405587 -0.69281118
vn -0.71495886 -0.09405587 0.69281118
vn -0.69682256 -0.18722227 -0.69237717
vn -0.69682256 -0.18722227 0.69237717
vn -0.66585302 -0.27667481 -0.69288586
vn -0.66585302 -0.27667481 0.69288586
vn -0.62474691 -0.35997951 -0.69289686
vn -0.62474691 -0.35997951 0.69289686
vn -0.57280704 -0.43855308 -0.69250508
vn -0.57280704 -0.43855308 0.69250508
vn -0.50967987 -0.51068514 -0.69240675
vn -0.50967987 -0.51068514 0.69240675
vn -0.43879193 -0.57182357 0.69316625
vn -0.43879193 -0.57182357 -0.69316625
vn -0.36149253 -0.62437017 0.69244859
vn -0.36149253 -0.62437017 -0.69244859
vn -0.27584265 -0.66651632 0.69257984
vn -0.27584265 -0.66651632 -0.69257984
vn -0.18615810 -0.69680372 0.69268299
vn -0.18615810 -0.69680372 -0.69268299
vn 0.57735027 0.57735027 0.57735027
vn 0.40824829 0.81649658 0.40824829
vn 0.00000000 0.43988379 0.89805470
vn 0.40824829 0.81649658 -0.40824829
vn 0.57735027 0.57735027 -0.57735027
vn -0.70710678 -0.00000000 -0.70710678
vn 0.00000000 0.43988379 -0.89805470
vn -0.70710678 -0.00000000 0.70710678
vn 0.00000000 0.00000000 -1.00000000
vn 0.00000000 0.00000000 1.00000000
vn 0.00000000 0.00000000 -1.00000000
vn -0.00000000 -0.00000000 1.00000000
vn 0.00000000 -0.00000000 -1.00000000
vn -0.00000000 0.00000000 1.00000000
vn -0.00000000 -0.00000000 -1.00000000
vn 0.00000000 0.00000000 1.00000000
vn 0.00000000 0.00000000 -1.00000000
vn -0.00000000 -0.00000000 1.00000000
vn -0.00000000 -0.00000000 -1.00000000
vn 0.00000000 0.00000000 1.00000000
vn -0.00000000 -0.00000000 1.00000000
vn 0.00000000 0.00000000 -1.00000000
vn -0.00000000 -0.00000000 1.00000000
vn 0.00000000 0.00000000 -1.00000000
vn 0.00000000 0.00000000 1.00000000
vn -0.00000000 -0.00000000 -1.00000000
vn -0.00000000 -0.00000000 1.00000000
vn 0.00000000 0.00000000 -1.00000000
vn -0.00000000 -0.00000000 1.00000000
vn 0.00000000 0.00000000 -1.00000000
vn 0.43986411 0.00000000 0.89806434
vn 0.43986411 -0.00000000 -0.89806434
vn -0.09398813 -0.71498836 0.69278992
vn -0.09398813 -0.71498836 -0.69278992
vn 0.57735027 -0.57735027 0.57735027
vn -0.02348859 -0.71397176 0.69978041
vn 0.57735027 -0.57735027 -0.57735027
vn -0.02348859 -0.71397176 -0.69978041
vn -0.66666667 -0.33333333 -0.66666667
vn 0.66666667 -0.33333333 -0.66666667
vn 0.66666667 -0.33333333 0.66666667
vn -0.66666667 -0.33333333 0.66666667
vn -0.66666667 -0.33333333 -0.66666667
vn 0.66666667 -0.33333333 -0.66666667
vn 0.66666667 -0.33333333 0.66666667
vn -0.66666667 -0.33333333 0.66666667
vn -0.66666667 -0.33333333 -0.66666667
vn 0.66666667 -0.33333333 -0.66666667
vn 0.66666667 -0.33333333 0.66666667
vn -0.66666667 -0.33333333 0.66666667
vn -0.66666667 -0.33333333 -0.66666667
vn 0.66666667 -0.33333333 -0.66666667
vn 0.66666667 -0.33333333 0.66666667
vn -0.66666667 -0.33333333 0.66666667
vn -0.66666667 -0.33333333 -0.66666667
vn 0.66666667 -0.33333333 -0.66666667
vn 0.66666667 -0.33333333 0.66666667
vn -0.66666667 -0.33333333 0.66666667
vn -0.66666667 -0.33333333 -0.66666667
vn 0.66666667 -0.33333333 -0.66666667
vn 0.66666667 -0.33333333 0.66666667
vn -0.66666667 -0.33333333 0.66666667
vn -0.66666667 -0.33333333 -0.66666667
vn 0.66666667 -0.33333333 -0.66666667
vn 0.66666667 -0.33333333 0.66666667
vn -0.66666667 -0.33333333 0.66666667
vn -0.66666667 -0.33333333 -0.66666667
vn 0.66666667 -0.33333333 -0.66666667
vn 0.66666667 -0.33333333 0.66666667
vn -0.66666667 -0.33333333 0.66666667
vn -0.66666667 -0.33333333 -0.66666667
vn 0.66666667 -0.33333333 -0.66666667
vn 0.66666667 -0.33333333 0.66666667
vn -0.66666667 -0.33333333 0.66666667
vn -0.66666667 -0.33333333 -0.66666667
vn 0.66666667 -0.33333333 -0.66666667
vn 0.66666667 -0.33333333 0.66666667
vn -0.66666667 -0.33333333 0.66666667
vn -0.66666667 -0.33333333 -0.66666667
vn 0.66666667 -0.33333333 -0.66666667
vn 0.66666667 -0.33333333 0.66666667
vn -0.66666667 -0.33333333 0.66666667
vn -0.66666667 -0.33333333 -0.66666667
vn 0.66666667 -0.33333333 -0.66666667
vn 0.66666667 -0.33333333 0.66666667
vn -0.66666667 -0.33333333 0.66666667
vn -0.66666667 -0.33333333 -0.66666667
vn 0.66666667 -0.33333333 -0.66666667
vn 0.66666667 -0.33333333 0.66666667
vn -0.66666667 -0.33333333 0.66666667
vn -0.66666667 -0.33333333 -0.66666667
vn 0.66666667 -0.33333333 -0.66666667
vn 0.66666667 -0.33333333 0.66666667
vn -0.66666667 -0.33333333 0.66666667
vn -0.66666667 -0.33333333 -0.66666667
vn 0.66666667 -0.33333333 -0.66666667
vn 0.66666667 -0.33333333 0.66666667
vn -0.66666667 -0.33333333 0.66666667
vn -0.66666667 -0.33333333 -0.66666667
vn 0.66666667 -0.33333333 -0.66666667
vn 0.66666667 -0.33333333 0.66666667
vn -0.66666667 -0.33333333 0.66666667
vn -0.66666667 -0.33333333 -0.66666667
vn 0.66666667 -0.33333333 -0.66666667
vn 0.66666667 -0.33333333 0.66666667
vn -0.66666667 -0.33333333 0.66666667
vn -0.66666667 -0.33333333 -0.66666667
vn 0.66666667 -0.33333333 -0.66666667
vn 0.66666667 -0.33333333 0.66666667
vn -0.66666667 -0.33333333 0.66666667
vn -0.66666667 -0.33333333 0.66666667
vn 0.66666667 -0.33333333 0.66666667
vn 0.66666667 -0.33333333 -0.66666667
vn -0.66666667 -0.33333333 -0.66666667
vn -0.66666667 -0.33333333 -0.66666667
vn 0.66666667 -0.33333333 -0.66666667
vn 0.66666667 -0.33333333 0.66666667
vn -0.66666667 -0.33333333 0.66666667
vn 0.66666667 -0.33333333 -0.66666667
vn 0.66666667 -0.33333333 0.66666667
vn -0.66666667 -0.33333333 0.66666667
vn -0.66666667 -0.33333333 -0.66666667
vn -0.66666667 -0.33333333 -0.66666667
vn 0.66666667 -0.33333333 -0.66666667
vn 0.66666667 -0.33333333 0.66666667
vn -0.66666667 -0.33333333 0.66666667
vn 0.66666667 -0.33333333 -0.66666667
vn 0.66666667 -0.33333333 0.66666667
vn -0.66666667 -0.33333333 0.66666667
vn -0.66666667 -0.33333333 -0.66666667
vn -0.66666667 -0.33333333 -0.66666667
vn 0.66666667 -0.33333333 -0.66666667
vn 0.66666667 -0.33333333 0.66666667
vn -0.66666667 -0.33333333 0.66666667
vn 0.57735027 -0.57735027 0.57735027
vn 0.57735027 -0.57735027 -0.57735027
vn 0.57735027 -0.57735027 0.57735027
vn 0.57735027 -0.57735027 -0.57735027
vn -0.57735027 -0.57735027 0.57735027
vn -0.57735027 -0.57735027 -0.57735027
vn -0.30151134 -0.90453403 -0.30151134
vn -0.30151134 -0.90453403 0.30151134
vn -0.57735027 -0.57735027 0.57735027
vn 0.57735027 -0.57735027 -0.57735027
vn 0.57735027 -0.57735027 0.57735027
vn -0.57735027 -0.57735027 -0.57735027
vn 0.57735027 0.57735027 0.57735027
vn 0.57735027 0.57735027 -0.57735027
vn -0.57735027 0.57735027 0.57735027
vn -0.30151134 0.90453403 0.30151134
vn 0.57735027 0.57735027 0.57735027
vn 0.57735027 0.57735027 0.57735027
vn -0.57735027 0.57735027 0.57735027
vn -0.57735027 0.57735027 -0.57735027
vn 0.57735027 0.57735027 -0.57735027
vn 0.57735027 0.57735027 -0.57735027
vn -0.30151134 0.90453403 -0.30151134
vn -0.57735027 0.57735027 -0.57735027
vn 0.71520177 -0.68716612 0.12762897
vn 0.71517097 -0.68716434 -0.12781103
vn 0.72534693 -0.68838348 -0.00008913
vn 0.67998745 -0.68659204 0.25731001
vn 0.67989829 -0.68652758 -0.25771727
vn 0.62058706 -0.68722518 0.37761523
vn 0.62034766 -0.68731762 -0.37784027
vn 0.54000295 -0.68594469 0.48772605
vn 0.53989768 -0.68587939 -0.48793438
vn 0.42746320 -0.68221421 0.59317702
vn 0.42742224 -0.68235603 -0.59304340
vn -0.68756673 -0.72612110 0.00037090
vn -0.67548806 -0.72795994 -0.11743168
vn -0.64264318 -0.72836208 -0.23769400
vn -0.58755888 -0.72869836 -0.35181424
vn 0.28349602 -0.68299047 0.67316716
vn -0.51201914 -0.72871331 -0.45476731
vn -0.41002389 -0.73166033 -0.54456732
vn 0.13543472 -0.68520745 0.71564530
vn -0.28150622 -0.73331902 -0.61886789
vn -0.13915996 -0.73228740 -0.66662558
vn -0.00002379 -0.68815326 0.72556536
vn 0.01649892 -0.73549329 -0.67733109
vn 0.19819730 -0.74351176 -0.63867683
vn -0.13545698 -0.68521435 0.71563447
vn 0.38157655 -0.74240833 -0.55066252
vn 0.52864912 -0.74384182 -0.40893697
vn -0.28349602 -0.68299047 0.67316716
vn 0.62902791 -0.73453076 -0.25453575
vn 0.67528202 -0.72736197 -0.12222422
vn -0.42762137 -0.68244272 -0.59280005
vn 0.68594322 -0.72765315 -0.00167164
vn -0.42746320 -0.68221421 0.59317702
vn -0.53989768 -0.68587939 -0.48793438
vn -0.54393657 -0.68463775 0.48518466
vn -0.62556789 -0.68709127 0.36955434
vn -0.62059190 -0.68722331 -0.37761067
vn -0.67846917 -0.68899123 0.25489343
vn -0.67992976 -0.68662168 -0.25738336
vn -0.71364053 -0.68741837 0.13480791
vn -0.71517097 -0.68716434 -0.12781103
vn -0.72647263 -0.68718367 0.00401481
vn -0.67509456 -0.72813232 0.11861984
vn -0.64264074 -0.72806173 0.23861894
vn -0.58914300 -0.72803648 0.35053302
vn 0.28330390 -0.68274874 -0.67349318
vn -0.51578713 -0.72825535 0.45122918
vn -0.41252186 -0.73256071 0.54146146
vn 0.13535564 -0.68553224 -0.71534915
vn -0.28128444 -0.73378286 0.61841878
vn -0.13867593 -0.73201436 0.66702621
vn 0.00005014 -0.72975958 0.68370385
vn -0.00009708 -0.68781079 -0.72589001
vn 0.13995513 -0.73247454 0.66625341
vn 0.28385184 -0.73382965 0.61718893
vn -0.13562064 -0.68551159 -0.71531874
vn 0.41570793 -0.73307274 0.53832265
vn 0.51946581 -0.72806087 0.44730597
vn -0.28375376 -0.68271032 -0.67334273
vn 0.59101157 -0.72699714 0.34954324
vn 0.64222256 -0.72825119 0.23916602
vn 0.67528997 -0.72773630 0.11993052
vn 0.71520177 0.68716612 0.12762897
vn 0.72534693 0.68838348 -0.00008913
vn 0.67998745 0.68659204 0.25731001
vn 0.62058706 0.68722518 0.37761523
vn 0.54000295 0.68594469 0.48772605
vn 0.42746320 0.68221421 0.59317702
vn 0.28349602 0.68299047 0.67316716
vn 0.13543472 0.68520745 0.71564530
vn -0.00002379 0.68815326 0.72556536
vn -0.13545698 0.68521435 0.71563447
vn -0.28349602 0.68299047 0.67316716
vn -0.42746320 0.68221421 0.59317702
vn -0.54393657 0.68463775 0.48518466
vn -0.62556789 0.68709127 0.36955434
vn -0.67846917 0.68899123 0.25489343
vn -0.71364053 0.68741837 0.13480791
vn -0.72647263 0.68718367 0.00401481
vn -0.71517097 0.68716434 -0.12781103
vn -0.67992976 0.68662168 -0.25738336
vn -0.62059190 0.68722331 -0.37761067
vn -0.53989768 0.68587939 -0.48793438
vn -0.42762137 0.68244272 -0.59280005
vn -0.28375376 0.68271032 -0.67334273
vn -0.13562064 0.68551159 -0.71531874
vn -0.00009708 0.68781079 -0.72589001
vn 0.13535564 0.68553224 -0.71534915
vn 0.28330390 0.68274874 -0.67349318
vn 0.42742224 0.68235603 -0.59304340
vn 0.53989768 0.68587939 -0.48793438
vn 0.62034766 0.68731762 -0.37784027
vn 0.67989829 0.68652758 -0.25771727
vn 0.71517097 0.68716434 -0.12781103
vn -0.68756673 0.72612110 0.00037090
vn -0.67509456 0.72813232 0.11861984
vn -0.64264074 0.72806173 0.23861894
vn -0.58914300 0.72803648 0.35053302
vn -0.51578713 0.72825535 0.45122918
vn -0.41252186 0.73256071 0.54146146
vn -0.28128444 0.73378286 0.61841878
vn -0.13867593 0.73201436 0.66702621
vn 0.00005014 0.72975958 0.68370385
vn 0.13995513 0.73247454 0.66625341
vn 0.28385184 0.73382965 0.61718893
vn 0.41570793 0.73307274 0.53832265
vn 0.51946581 0.72806087 0.44730597
vn 0.59101157 0.72699714 0.34954324
vn 0.64222256 0.72825119 0.23916602
vn 0.67528997 0.72773630 0.11993052
vn 0.68594322 0.72765315 -0.00167164
vn -0.67548806 0.72795994 -0.11743168
vn -0.64264318 0.72836208 -0.23769400
vn -0.58755888 0.72869836 -0.35181424
vn -0.51201914 0.72871331 -0.45476731
vn -0.41002389 0.73166033 -0.54456732
vn -0.28150622 0.73331902 -0.61886789
vn -0.13915996 0.73228740 -0.66662558
vn 0.01649892 0.73549329 -0.67733109
vn 0.19819730 0.74351176 -0.63867683
vn 0.38157655 0.74240833 -0.55066252
vn 0.52864912 0.74384182 -0.40893697
vn 0.62902791 0.73453076 -0.25453575
vn 0.67528202 0.72736197 -0.12222422
vn 0.57735027 -0.57735027 0.57735027
vn -0.57735027 -0.57735027 0.57735027
vn 0.30151134 -0.90453403 0.30151134
vn 0.57735027 -0.57735027 -0.57735027
vn 0.57735027 -0.57735027 0.57735027
vn -0.57735027 -0.57735027 -0.57735027
vn 0.57735027 0.57735027 0.57735027
vn 0.57735027 0.57735027 -0.57735027
vn 0.30151134 0.90453403 0.30151134
vn 0.57735027 0.57735027 0.57735027
vn -0.57735027 0.57735027 0.57735027
vn -0.57735027 0.57735027 -0.57735027
vn 0.36532042 -0.61610236 0.69782438
vn -0.59564191 -0.78116388 -0.18706604
vn -0.00297618 -0.94470042 0.32792113
vn -0.73924015 -0.55192060 0.38588554
vn -0.37214116 -0.61473791 0.69541948
vn 0.59169285 -0.78321196 -0.19099373
vn 0.74256635 -0.55142907 0.38015943
vn 0.57735027 -0.57735027 -0.57735027
vn -0.57735027 -0.57735027 -0.57735027
vn 0.74256635 0.55142907 0.38015943
vn -0.37214116 0.61473791 0.69541948
vn -0.00297618 0.94470042 0.32792113
vn 0.36532042 0.61610236 0.69782438
vn -0.73924015 0.55192060 0.38588554
vn -0.59564191 0.78116388 -0.18706604
vn -0.57735027 0.57735027 -0.57735027
vn 0.57735027 0.57735027 -0.57735027
vn 0.59169285 0.78321196 -0.19099373
vn 0.71654610 -0.68810940 0.11431160
vn 0.71363742 -0.67855987 -0.17400610
vn 0.72595609 -0.68762153 -0.01282088
vn 0.68499889 -0.68415580 0.25041438
vn 0.64002026 -0.67524971 -0.36662228
vn 0.61379132 -0.68091336 0.39952123
vn 0.51236346 -0.67921620 -0.52549885
vn 0.49916276 -0.68042141 0.53652888
vn 0.35829451 -0.68245801 0.63708407
vn 0.24600274 -0.96816405 0.04627127
vn 0.21784971 -0.68648783 0.69374056
vn 0.71098041 -0.67749305 0.18844102
vn 0.71592881 -0.68874454 -0.11435425
vn 0.72765891 -0.68572707 0.01705595
vn 0.68620748 -0.68598757 -0.24195113
vn 0.62619950 -0.68530936 -0.37178658
vn 0.63179538 -0.67634356 0.37867398
vn 0.53512050 -0.68246886 -0.49787780
vn 0.50686307 -0.68030825 0.52940581
vn 0.37252495 -0.68462890 0.62650494
vn 0.40363961 -0.68013642 -0.61195549
vn 0.25004494 -0.68938998 0.67986688
vn 0.25110811 -0.68385047 -0.68504981
vn 0.11465636 -0.68834715 -0.71626261
vn -0.65913635 -0.75145969 0.02911369
vn -0.62573233 -0.75065909 -0.21206126
vn -0.49365964 -0.75608580 -0.42969108
vn 0.09798827 -0.69086186 0.71631570
vn -0.30323339 -0.74827617 -0.59002735
vn -0.67222803 -0.74022264 0.01341349
vn -0.64427982 -0.74301940 -0.18117860
vn -0.54776260 -0.74800754 -0.37475439
vn -0.39728569 -0.74478062 -0.53615847
vn 0.02215014 -0.70019007 0.71361281
vn -0.19736242 -0.74859470 -0.63297240
vn -0.04384884 -0.72164558 -0.69087259
vn 0.30151134 -0.90453403 -0.30151134
vn 0.57735027 -0.57735027 -0.57735027
vn 0.57735027 -0.57735027 0.57735027
vn 0.30151134 -0.90453403 0.30151134
vn -0.57735027 -0.57735027 0.57735027
vn -0.55212041 -0.77453616 0.30863699
vn -0.33706002 -0.76316274 0.55133763
vn 0.02612078 -0.69897743 -0.71466654
vn -0.12910418 -0.73581309 0.66476403
vn -0.02402696 -0.71492373 0.69878950
vn -0.57735027 -0.57735027 -0.57735027
vn -0.62008879 -0.75149488 0.22526726
vn -0.11644892 -0.73686071 -0.66593989
vn -0.46484723 -0.76289834 0.44933637
vn -0.22686938 -0.75822558 0.61124811
vn -0.01603261 -0.71228439 -0.70170785
vn -0.04870959 -0.72333477 0.68877731
vn 0.71098041 0.67749305 0.18844102
vn 0.72765891 0.68572707 0.01705595
vn 0.63179538 0.67634356 0.37867398
vn 0.50686307 0.68030825 0.52940581
vn 0.37252495 0.68462890 0.62650494
vn 0.25004494 0.68938998 0.67986688
vn 0.24600274 0.96816405 0.04627127
vn 0.51236346 0.67921620 -0.52549885
vn 0.64002026 0.67524971 -0.36662228
vn 0.71363742 0.67855987 -0.17400610
vn 0.72595609 0.68762153 -0.01282088
vn 0.71654610 0.68810940 0.11431160
vn 0.68499889 0.68415580 0.25041438
vn 0.61379132 0.68091336 0.39952123
vn 0.49916276 0.68042141 0.53652888
vn 0.35829451 0.68245801 0.63708407
vn 0.21784971 0.68648783 0.69374056
vn 0.09798827 0.69086186 0.71631570
vn 0.02215014 0.70019007 0.71361281
vn -0.57735027 0.57735027 0.57735027
vn -0.57735027 0.57735027 -0.57735027
vn 0.02612078 0.69897743 -0.71466654
vn 0.11465636 0.68834715 -0.71626261
vn 0.25110811 0.68385047 -0.68504981
vn 0.40363961 0.68013642 -0.61195549
vn 0.53512050 0.68246886 -0.49787780
vn 0.62619950 0.68530936 -0.37178658
vn 0.68620748 0.68598757 -0.24195113
vn 0.71592881 0.68874454 -0.11435425
vn -0.30323339 0.74827617 -0.59002735
vn -0.62008879 0.75149488 0.22526726
vn -0.67222803 0.74022264 0.01341349
vn -0.11644892 0.73686071 -0.66593989
vn -0.46484723 0.76289834 0.44933637
vn -0.22686938 0.75822558 0.61124811
vn -0.01603261 0.71228439 -0.70170785
vn -0.04870959 0.72333477 0.68877731
vn 0.57735027 0.57735027 -0.57735027
vn 0.57735027 0.57735027 0.57735027
vn -0.55212041 0.77453616 0.30863699
vn -0.65913635 0.75145969 0.02911369
vn -0.33706002 0.76316274 0.55133763
vn -0.12910418 0.73581309 0.66476403
vn -0.02402696 0.71492373 0.69878950
vn 0.30151134 0.90453403 0.30151134
vn 0.30151134 0.90453403 -0.30151134
vn -0.62573233 0.75065909 -0.21206126
vn -0.49365964 0.75608580 -0.42969108
vn -0.64427982 0.74301940 -0.18117860
vn -0.54776260 0.74800754 -0.37475439
vn -0.39728569 0.74478062 -0.53615847
vn -0.19736242 0.74859470 -0.63297240
vn -0.04384884 0.72164558 -0.69087259
vn -0.57735027 -0.57735027 0.57735027
vn 0.57735027 -0.57735027 -0.57735027
vn 0.57735027 -0.57735027 0.57735027
vn -0.57735027 -0.57735027 -0.57735027
vn 0.57735027 0.57735027 0.57735027
vn 0.57735027 0.57735027 -0.57735027
vn -0.57735027 0.57735027 0.57735027
vn -0.57735027 0.57735027 -0.57735027
vn 0.71623151 -0.68845409 0.11420767
vn 0.71364462 -0.67841616 -0.17453615
vn 0.72612120 -0.68745737 -0.01226193
vn 0.68536717 -0.68397819 0.24989133
vn 0.63979671 -0.67553623 -0.36648461
vn 0.61379132 -0.68091336 0.39952123
vn 0.51263837 -0.67896858 -0.52555073
vn 0.49893100 -0.68030314 0.53689431
vn 0.35787610 -0.68257718 0.63719157
vn 0.24561919 -0.96826812 0.04613100
vn 0.21795732 -0.68652373 0.69367123
vn 0.71098041 -0.67749305 0.18844102
vn 0.71600796 -0.68854628 -0.11505052
vn 0.72765891 -0.68572707 0.01705595
vn 0.68585656 -0.68637687 -0.24184205
vn 0.62669369 -0.68511734 -0.37130749
vn 0.63179538 -0.67634356 0.37867398
vn 0.53512050 -0.68246886 -0.49787780
vn 0.50661279 -0.68017768 0.52981299
vn 0.37227507 -0.68484509 0.62641717
vn 0.40363961 -0.68013642 -0.61195549
vn 0.25020699 -0.68925747 0.67994162
vn 0.25110811 -0.68385047 -0.68504981
vn 0.11462958 -0.68833882 -0.71627490
vn -0.65913635 -0.75145969 0.02911369
vn -0.62573233 -0.75065909 -0.21206126
vn -0.49313052 -0.75628999 -0.42993923
vn 0.09811460 -0.69082545 0.71633353
vn -0.30285488 -0.74807466 -0.59047711
vn -0.67222803 -0.74022264 0.01341349
vn -0.64427982 -0.74301940 -0.18117860
vn -0.54776260 -0.74800754 -0.37475439
vn -0.39728569 -0.74478062 -0.53615847
vn 0.02215014 -0.70019007 0.71361281
vn -0.19728918 -0.74861994 -0.63296537
vn -0.04377974 -0.72162168 -0.69090193
vn 0.30151134 -0.90453403 -0.30151134
vn 0.57735027 -0.57735027 -0.57735027
vn 0.57735027 -0.57735027 0.57735027
vn 0.30151134 -0.90453403 0.30151134
vn -0.57735027 -0.57735027 0.57735027
vn -0.55212041 -0.77453616 0.30863699
vn -0.33706002 -0.76316274 0.55133763
vn 0.02609250 -0.69898604 -0.71465915
vn -0.12907657 -0.73582240 0.66475909
vn -0.02400027 -0.71491485 0.69879950
vn -0.57735027 -0.57735027 -0.57735027
vn -0.62008879 -0.75149488 0.22526726
vn -0.11646472 -0.73685535 -0.66594306
vn -0.46484723 -0.76289834 0.44933637
vn -0.22678745 -0.75825440 0.61124277
vn -0.01604808 -0.71228946 -0.70170235
vn -0.04863239 -0.72330781 0.68881107
vn 0.71098041 0.67749305 0.18844102
vn 0.72765891 0.68572707 0.01705595
vn 0.63179538 0.67634356 0.37867398
vn 0.50661279 0.68017768 0.52981299
vn 0.37227507 0.68484509 0.62641717
vn 0.25020699 0.68925747 0.67994162
vn 0.24561919 0.96826812 0.04613100
vn 0.51263837 0.67896858 -0.52555073
vn 0.63979671 0.67553623 -0.36648461
vn 0.71364462 0.67841616 -0.17453615
vn 0.72612120 0.68745737 -0.01226193
vn 0.71623151 0.68845409 0.11420767
vn 0.68536717 0.68397819 0.24989133
vn 0.61379132 0.68091336 0.39952123
vn 0.49893100 0.68030314 0.53689431
vn 0.35787610 0.68257718 0.63719157
vn 0.21795732 0.68652373 0.69367123
vn 0.09811460 0.69082545 0.71633353
vn 0.02215014 0.70019007 0.71361281
vn -0.57735027 0.57735027 0.57735027
vn -0.57735027 0.57735027 -0.57735027
vn 0.02609250 0.69898604 -0.71465915
vn 0.11462958 0.68833882 -0.71627490
vn 0.25110811 0.68385047 -0.68504981
vn 0.40363961 0.68013642 -0.61195549
vn 0.53512050 0.68246886 -0.49787780
vn 0.62669369 0.68511734 -0.37130749
vn 0.68585656 0.68637687 -0.24184205
vn 0.71600796 0.68854628 -0.11505052
vn -0.30285488 0.74807466 -0.59047711
vn -0.62008879 0.75149488 0.22526726
vn -0.67222803 0.74022264 0.01341349
vn -0.11646472 0.73685535 -0.66594306
vn -0.46484723 0.76289834 0.44933637
vn -0.22678745 0.75825440 0.61124277
vn -0.01604808 0.71228946 -0.70170235
vn -0.04863239 0.72330781 0.68881107
vn 0.57735027 0.57735027 -0.57735027
vn 0.57735027 0.57735027 0.57735027
vn -0.55212041 0.77453616 0.30863699
vn -0.65913635 0.75145969 0.02911369
vn -0.33706002 0.76316274 0.55133763
vn -0.12907657 0.73582240 0.66475909
vn -0.02400027 0.71491485 0.69879950
vn 0.30151134 0.90453403 0.30151134
vn 0.30151134 0.90453403 -0.30151134
vn -0.62573233 0.75065909 -0.21206126
vn -0.49313052 0.75628999 -0.42993923
vn -0.64427982 0.74301940 -0.18117860
vn -0.54776260 0.74800754 -0.37475439
vn -0.39728569 0.74478062 -0.53615847
vn -0.19728918 0.74861994 -0.63296537
vn -0.04377974 0.72162168 -0.69090193
vn 0.57735027 -0.57735027 0.57735027
vn -0.57735027 -0.57735027 0.57735027
vn 0.30151134 -0.90453403 0.30151134
vn 0.57735027 -0.57735027 -0.57735027
vn 0.57735027 -0.57735027 0.57735027
vn -0.57735027 -0.57735027 -0.57735027
vn 0.57735027 0.57735027 0.57735027
vn 0.57735027 0.57735027 -0.57735027
vn 0.30151134 0.90453403 0.30151134
vn 0.57735027 0.57735027 0.57735027
vn -0.57735027 0.57735027 0.57735027
vn -0.57735027 0.57735027 -0.57735027
vn 0.57735027 -0.57735027 0.57735027
vn 0.30151134 -0.90453403 -0.30151134
vn 0.57735027 -0.57735027 -0.57735027
vn 0.57735027 -0.57735027 -0.57735027
vn 0.57735027 -0.57735027 0.57735027
vn 0.30151134 -0.90453403 0.30151134
vn -0.57735027 -0.57735027 0.57735027
vn 0.57735027 -0.57735027 -0.57735027
vn 0.57735027 -0.57735027 0.57735027
vn 0.57735027 -0.57735027 -0.57735027
vn 0.57735027 -0.57735027 0.57735027
vn -0.57735027 -0.57735027 -0.57735027
vn 0.57735027 0.57735027 0.57735027
vn 0.57735027 0.57735027 -0.57735027
vn 0.30151134 0.90453403 0.30151134
vn 0.57735027 0.57735027 -0.57735027
vn 0.57735027 0.57735027 -0.57735027
vn 0.57735027 0.57735027 0.57735027
vn 0.57735027 0.57735027 0.57735027
vn 0.30151134 0.90453403 -0.30151134
vn 0.57735027 0.57735027 -0.57735027
vn 0.57735027 0.57735027 0.57735027
vn -0.57735027 0.57735027 0.57735027
vn -0.57735027 0.57735027 -0.57735027
f 1//1 2//2 3//3
f 4//4 3//3 2//2
f 3//3 4//4 5//5
f 6//6 5//5 4//4
f 5//5 6//6 7//7
f 8//8 7//7 6//6
f 7//7 8//8 9//9
f 10//10 9//9 8//8
f 9//9 10//10 11//11
f 12//12 11//11 10//10
f 11//11 12//12 13//13
f 14//14 13//13 12//12
f 14//14 15//15 13//13
f 16//16 13//13 15//15
f 15//15 17//17 16//16
f 18//18 16//16 17//17
f 17//17 19//19 18//18
f 20//20 18//18 19//19
f 19//19 21//21 20//20
f 22//22 20//20 21//21
f 21//21 23//23 22//22
f 24//24 22//22 23//23
f 23//23 25//25 24//24
f 26//26 24//24 25//25
f 27//27 24//24 26//26
f 28//28 24//24 27//27
f 26//26 25//25 29//29
f 27//27 30//30 28//28
f 31//31 30//30 27//27
f 29//29 30//30 31//31
f 29//29 32//32 30//30
f 32//32 29//29 25//25
f 30//30 33//33 34//34
f 33//33 30//30 32//32
f 33//33 35//35 34//34
f 36//36 34//34 35//35
f 35//35 37//37 36//36
f 37//37 35//35 38//38
f 38//38 39//39 37//37
f 39//39 38//38 40//40
f 40//40 41//41 39//39
f 41//41 40//40 42//42
f 42//42 43//43 41//41
f 43//43 42//42 44//44
f 44//44 45//45 43//43
f 45//45 44//44 46//46
f 46//46 47//47 45//45
f 47//47 46//46 48//48
f 49//49 47//47 48//48
f 47//47 49//49 50//50
f 51//51 50//50 49//49
f 50//50 51//51 52//52
f 53//53 52//52 51//51
f 52//52 53//53 54//54
f 55//55 54//54 53//53
f 54//54 55//55 56//56
f 57//57 56//56 55//55
f 56//56 57//57 58//58
f 59//59 58//58 57//57
f 58//58 59//59 60//60
f 61//61 60//60 59//59
f 60//60 61//61 62//62
f 63//63 62//62 61//61
f 62//62 63//63 64//64
f 65//65 64//64 63//63
f 64//64 65//65 66//66
f 67//67 66//66 65//65
f 66//66 67//67 68//68
f 69//69 68//68 67//67
f 68//68 69//69 70//70
f 71//71 70//70 69//69
f 70//70 71//71 72//72
f 73//73 72//72 71//71
f 72//72 73//73 74//74
f 73//73 75//75 74//74
f 75//75 73//73 76//76
f 76//76 77//77 75//75
f 77//77 76//76 78//78
f 78//78 79//79 77//77
f 79//79 78//78 80//80
f 80//80 81//81 79//79
f 81//81 80//80 82//82
f 83//83 84//84 85//85
f 83//83 86//86 84//84
f 87//87 86//86 83//83
f 87//87 88//88 86//86
f 88//88 87//87 89//89
f 85//85 84//84 90//90
f 89//89 91//91 88//88
f 92//92 88//88 91//91
f 90//90 88//88 92//92
f 85//85 90//90 92//92
f 91//91 93//93 92//92
f 94//94 92//92 93//93
f 93//93 95//95 94//94
f 96//96 94//94 95//95
f 95//95 97//97 96//96
f 98//98 96//96 97//97
f 97//97 99//99 98//98
f 100//100 98//98 99//99
f 99//99 101//101 100//100
f 102//102 100//100 101//101
f 102//102 101//101 103//103
f 104//104 103//103 101//101
f 103//103 104//104 105//105
f 106//106 105//105 104//104
f 105//105 106//106 107//107
f 108//108 107//107 106//106
f 107//107 108//108 109//109
f 110//110 109//109 108//108
f 109//109 110//110 111//111
f 112//112 111//111 110//110
f 111//111 112//112 113//113
f 114//114 113//113 112//112
f 113//113 2//2 1//1
f 2//2 113//113 114//114
f 82//82 115//115 81//81
f 115//115 82//82 116//116
f 34//34 28//28 30//30
f 1//1 36//36 113//113
f 3//3 36//36 1//1
f 5//5 36//36 3//3
f 7//7 36//36 5//5
f 9//9 36//36 7//7
f 11//11 36//36 9//9
f 13//13 36//36 11//11
f 16//16 36//36 13//13
f 18//18 36//36 16//16
f 20//20 36//36 18//18
f 22//22 36//36 20//20
f 24//24 36//36 22//22
f 28//28 36//36 24//24
f 36//36 28//28 34//34
f 85//85 117//117 83//83
f 36//36 111//111 113//113
f 36//36 109//109 111//111
f 37//37 109//109 36//36
f 85//85 118//118 117//117
f 92//92 118//118 85//85
f 94//94 118//118 92//92
f 96//96 118//118 94//94
f 98//98 118//118 96//96
f 100//100 118//118 98//98
f 102//102 118//118 100//100
f 103//103 118//118 102//102
f 105//105 118//118 103//103
f 107//107 118//118 105//105
f 109//109 118//118 107//107
f 37//37 118//118 109//109
f 39//39 118//118 37//37
f 39//39 115//115 118//118
f 41//41 115//115 39//39
f 41//41 81//81 115//115
f 43//43 81//81 41//41
f 43//43 79//79 81//81
f 43//43 77//77 79//79
f 45//45 77//77 43//43
f 45//45 75//75 77//77
f 47//47 75//75 45//45
f 47//47 74//74 75//75
f 50//50 74//74 47//47
f 50//50 72//72 74//74
f 52//52 72//72 50//50
f 52//52 70//70 72//72
f 54//54 70//70 52//52
f 54//54 68//68 70//70
f 56//56 68//68 54//54
f 56//56 66//66 68//68
f 58//58 66//66 56//56
f 58//58 64//64 66//66
f 60//60 64//64 58//58
f 64//64 60//60 62//62
f 117//117 87//87 83//83
f 87//87 117//117 119//119
f 119//119 89//89 87//87
f 114//114 35//35 2//2
f 112//112 35//35 114//114
f 110//110 35//35 112//112
f 110//110 38//38 35//35
f 120//120 89//89 119//119
f 120//120 91//91 89//89
f 120//120 93//93 91//91
f 120//120 95//95 93//93
f 120//120 97//97 95//95
f 120//120 99//99 97//97
f 120//120 101//101 99//99
f 120//120 104//104 101//101
f 120//120 106//106 104//104
f 120//120 108//108 106//106
f 120//120 110//110 108//108
f 120//120 38//38 110//110
f 120//120 40//40 38//38
f 116//116 40//40 120//120
f 116//116 42//42 40//40
f 82//82 42//42 116//116
f 82//82 44//44 42//42
f 80//80 44//44 82//82
f 78//78 44//44 80//80
f 78//78 46//46 44//44
f 76//76 46//46 78//78
f 76//76 48//48 46//46
f 73//73 48//48 76//76
f 73//73 49//49 48//48
f 71//71 49//49 73//73
f 71//71 51//51 49//49
f 69//69 51//51 71//71
f 69//69 53//53 51//51
f 67//67 53//53 69//69
f 67//67 55//55 53//53
f 65//65 55//55 67//67
f 65//65 57//57 55//55
f 63//63 57//57 65//65
f 61//61 57//57 63//63
f 57//57 61//61 59//59
f 25//25 33//33 32//32
f 25//25 35//35 33//33
f 23//23 35//35 25//25
f 21//21 35//35 23//23
f 19//19 35//35 21//21
f 17//17 35//35 19//19
f 15//15 35//35 17//17
f 14//14 35//35 15//15
f 12//12 35//35 14//14
f 10//10 35//35 12//12
f 8//8 35//35 10//10
f 6//6 35//35 8//8
f 4//4 35//35 6//6
f 35//35 4//4 2//2
f 116//116 118//118 115//115
f 118//118 116//116 120//120
f 120//120 117//117 118//118
f 117//117 120//120 119//119
f 26//26 31//31 27//27
f 31//31 26//26 29//29
f 121//121 29//29 122//122
f 29//29 121//121 26//26
f 27//27 123//123 31//31
f 123//123 27//27 124//124
f 123//123 29//29 31//31
f 29//29 123//123 122//122
f 121//121 27//27 26//26
f 27//27 121//121 124//124
f 121//121 123//123 124//124
f 123//123 121//121 122//122
f 125//125 122//122 126//126
f 122//122 125//125 121//121
f 124//124 127//127 123//123
f 127//127 124//124 128//128
f 127//127 122//122 123//123
f 122//122 127//127 126//126
f 125//125 124//124 121//121
f 124//124 125//125 128//128
f 125//125 127//127 128//128
f 127//127 125//125 126//126
f 129//129 126//126 130//130
f 126//126 129//129 125//125
f 128//128 131//131 127//127
f 131//131 128//128 132//132
f 131//131 126//126 127//127
f 126//126 131//131 130//130
f 129//129 128//128 125//125
f 128//128 129//129 132//132
f 129//129 131//131 132//132
f 131//131 129//129 130//130
f 133//133 130//130 134//134
f 130//130 133//133 129//129
f 132//132 135//135 131//131
f 135//135 132//132 136//136
f 135//135 130//130 131//131
f 130//130 135//135 134//134
f 133//133 135//135 136//136
f 135//135 133//133 134//134
f 133//133 132//132 129//129
f 132//132 133//133 136//136
f 137//137 134//134 138//138
f 134//134 137//137 133//133
f 136//136 139//139 135//135
f 139//139 136//136 140//140
f 139//139 134//134 135//135
f 134//134 139//139 138//138
f 137//137 136//136 133//133
f 136//136 137//137 140//140
f 137//137 139//139 140//140
f 139//139 137//137 138//138
f 141//141 138//138 142//142
f 138//138 141//141 137//137
f 140//140 143//143 139//139
f 143//143 140//140 144//144
f 143//143 138//138 139//139
f 138//138 143//143 142//142
f 141//141 140//140 137//137
f 140//140 141//141 144//144
f 141//141 143//143 144//144
f 143//143 141//141 142//142
f 145//145 142//142 146//146
f 142//142 145//145 141//141
f 144//144 147//147 143//143
f 147//147 144//144 148//148
f 147//147 142//142 143//143
f 142//142 147//147 146//146
f 145//145 147//147 148//148
f 147//147 145//145 146//146
f 145//145 144//144 141//141
f 144//144 145//145 148//148
f 149//149 146//146 150//150
f 146//146 149//149 145//145
f 148//148 151//151 147//147
f 151//151 148//148 152//152
f 151//151 146//146 147//147
f 146//146 151//151 150//150
f 149//149 148//148 145//145
f 148//148 149//149 152//152
f 149//149 151//151 152//152
f 151//151 149//149 150//150
f 153//153 150//150 154//154
f 150//150 153//153 149//149
f 152//152 155//155 151//151
f 155//155 152//152 156//156
f 155//155 150//150 151//151
f 150//150 155//155 154//154
f 153//153 152//152 149//149
f 152//152 153//153 156//156
f 153//153 155//155 156//156
f 155//155 153//153 154//154
f 157//157 154//154 158//158
f 154//154 157//157 153//153
f 156//156 159//159 155//155
f 159//159 156//156 160//160
f 159//159 154//154 155//155
f 154//154 159//159 158//158
f 157//157 159//159 160//160
f 159//159 157//157 158//158
f 157//157 156//156 153//153
f 156//156 157//157 160//160
f 161//161 158//158 162//162
f 158//158 161//161 157//157
f 160//160 163//163 159//159
f 163//163 160//160 164//164
f 163//163 158//158 159//159
f 158//158 163//163 162//162
f 161//161 163//163 164//164
f 163//163 161//161 162//162
f 161//161 160//160 157//157
f 160//160 161//161 164//164
f 165//165 162//162 166//166
f 162//162 165//165 161//161
f 164//164 167//167 163//163
f 167//167 164//164 168//168
f 167//167 162//162 163//163
f 162//162 167//167 166//166
f 165//165 167//167 168//168
f 167//167 165//165 166//166
f 165//165 164//164 161//161
f 164//164 165//165 168//168
f 169//169 166//166 170//170
f 166//166 169//169 165//165
f 168//168 171//171 167//167
f 171//171 168//168 172//172
f 171//171 166//166 167//167
f 166//166 171//171 170//170
f 169//169 168//168 165//165
f 168//168 169//169 172//172
f 169//169 171//171 172//172
f 171//171 169//169 170//170
f 173//173 170//170 174//174
f 170//170 173//173 169//169
f 172//172 175//175 171//171
f 175//175 172//172 176//176
f 175//175 170//170 171//171
f 170//170 175//175 174//174
f 173//173 172//172 169//169
f 172//172 173//173 176//176
f 173//173 175//175 176//176
f 175//175 173//173 174//174
f 177//177 174//174 178//178
f 174//174 177//177 173//173
f 176//176 179//179 175//175
f 179//179 176//176 180//180
f 179//179 174//174 175//175
f 174//174 179//179 178//178
f 177//177 179//179 180//180
f 179//179 177//177 178//178
f 177//177 176//176 173//173
f 176//176 177//177 180//180
f 181//181 178//178 182//182
f 178//178 181//181 177//177
f 180//180 183//183 179//179
f 183//183 180//180 184//184
f 183//183 178//178 179//179
f 178//178 183//183 182//182
f 181//181 180//180 177//177
f 180//180 181//181 184//184
f 181//181 183//183 184//184
f 183//183 181//181 182//182
f 185//185 182//182 186//186
f 182//182 185//185 181//181
f 184//184 187//187 183//183
f 187//187 184//184 188//188
f 187//187 182//182 183//183
f 182//182 187//187 186//186
f 185//185 184//184 181//181
f 184//184 185//185 188//188
f 185//185 187//187 188//188
f 187//187 185//185 186//186
f 189//189 186//186 190//190
f 186//186 189//189 185//185
f 188//188 191//191 187//187
f 191//191 188//188 192//192
f 191//191 186//186 187//187
f 186//186 191//191 190//190
f 88//88 84//84 90//90
f 84//84 88//88 86//86
f 193//193 84//84 194//194
f 84//84 193//193 90//90
f 84//84 195//195 194//194
f 195//195 84//84 86//86
f 88//88 195//195 86//86
f 195//195 88//88 196//196
f 189//189 188//188 185//185
f 188//188 189//189 192//192
f 189//189 191//191 192//192
f 191//191 189//189 190//190
f 197//197 190//190 198//198
f 190//190 197//197 189//189
f 192//192 199//199 191//191
f 199//199 192//192 200//200
f 199//199 190//190 191//191
f 190//190 199//199 198//198
f 194//194 201//201 202//202
f 201//201 194//194 195//195
f 203//203 194//194 202//202
f 194//194 203//203 193//193
f 88//88 193//193 196//196
f 193//193 88//88 90//90
f 196//196 194//194 193//193
f 194//194 196//196 195//195
f 196//196 201//201 195//195
f 201//201 196//196 204//204
f 197//197 192//192 189//189
f 192//192 197//197 200//200
f 197//197 199//199 200//200
f 199//199 197//197 198//198
f 205//205 198//198 206//206
f 198//198 205//205 197//197
f 200//200 207//207 199//199
f 207//207 200//200 208//208
f 207//207 198//198 199//199
f 198//198 207//207 206//206
f 202//202 209//209 210//210
f 209//209 202//202 201//201
f 211//211 202//202 210//210
f 202//202 211//211 203//203
f 204//204 202//202 203//203
f 202//202 204//204 201//201
f 196//196 203//203 204//204
f 203//203 196//196 193//193
f 204//204 209//209 201//201
f 209//209 204//204 212//212
f 205//205 207//207 208//208
f 207//207 205//205 206//206
f 205//205 200//200 197//197
f 200//200 205//205 208//208
f 213//213 206//206 214//214
f 206//206 213//213 205//205
f 208//208 215//215 207//207
f 215//215 208//208 216//216
f 210//210 214//214 215//215
f 214//214 210//210 209//209
f 215//215 206//206 207//207
f 206//206 215//215 214//214
f 216//216 210//210 215//215
f 210//210 216//216 211//211
f 212//212 210//210 211//211
f 210//210 212//212 209//209
f 204//204 211//211 212//212
f 211//211 204//204 203//203
f 212//212 214//214 209//209
f 214//214 212//212 213//213
f 213//213 208//208 205//205
f 208//208 213//213 216//216
f 213//213 215//215 216//216
f 215//215 213//213 214//214
f 212//212 216//216 213//213
f 216//216 212//212 211//211
f 2//2 3//3 4//4
f 3//3 2//2 1//1
f 4//4 5//5 6//6
f 5//5 4//4 3//3
f 6//6 7//7 8//8
f 7//7 6//6 5//5
f 8//8 9//9 10//10
f 9//9 8//8 7//7
f 10//10 11//11 12//12
f 11//11 10//10 9//9
f 12//12 13//13 14//14
f 13//13 12//12 11//11
f 15//15 13//13 16//16
f 13//13 15//15 14//14
f 17//17 16//16 18//18
f 16//16 17//17 15//15
f 19//19 18//18 20//20
f 18//18 19//19 17//17
f 21//21 20//20 22//22
f 20//20 21//21 19//19
f 23//23 22//22 24//24
f 22//22 23//23 21//21
f 27//27 24//24 28//28
f 26//26 24//24 27//27
f 25//25 24//24 26//26
f 24//24 25//25 23//23
f 35//35 34//34 36//36
f 34//34 35//35 33//33
f 92//92 90//90 85//85
f 92//92 88//88 90//90
f 91//91 88//88 92//92
f 88//88 91//91 89//89
f 93//93 92//92 94//94
f 92//92 93//93 91//91
f 95//95 94//94 96//96
f 94//94 95//95 93//93
f 97//97 96//96 98//98
f 96//96 97//97 95//95
f 99//99 98//98 100//100
f 98//98 99//99 97//97
f 101//101 100//100 102//102
f 100//100 101//101 99//99
f 101//101 103//103 104//104
f 103//103 101//101 102//102
f 104//104 105//105 106//106
f 105//105 104//104 103//103
f 106//106 107//107 108//108
f 107//107 106//106 105//105
f 108//108 109//109 110//110
f 109//109 108//108 107//107
f 110//110 111//111 112//112
f 111//111 110//110 109//109
f 112//112 113//113 114//114
f 113//113 112//112 111//111
f 217//217 218//218 219//219
f 217//217 220//220 218//218
f 221//221 220//220 217//217
f 220//220 221//221 222//222
f 219//219 223//223 224//224
f 223//223 219//219 218//218
f 225//225 226//226 227//227
f 224//224 226//226 225//225
f 223//223 226//226 224//224
f 226//226 223//223 228//228
f 226//226 229//229 227//227
f 229//229 226//226 230//230
f 229//229 225//225 227//227
f 225//225 229//229 231//231
f 232//232 225//225 231//231
f 225//225 232//232 224//224
f 232//232 219//219 224//224
f 219//219 232//232 233//233
f 219//219 234//234 217//217
f 234//234 219//219 233//233
f 234//234 221//221 217//217
f 221//221 234//234 235//235
f 236//236 221//221 235//235
f 221//221 236//236 222//222
f 236//236 220//220 222//222
f 220//220 236//236 237//237
f 220//220 238//238 218//218
f 238//238 220//220 237//237
f 238//238 223//223 218//218
f 223//223 238//238 239//239
f 240//240 223//223 239//239
f 223//223 240//240 228//228
f 240//240 226//226 228//228
f 226//226 240//240 230//230
f 237//237 233//233 238//238
f 237//237 234//234 233//233
f 236//236 234//234 237//237
f 234//234 236//236 235//235
f 238//238 232//232 239//239
f 232//232 238//238 233//233
f 240//240 229//229 230//230
f 239//239 229//229 240//240
f 232//232 229//229 239//239
f 229//229 232//232 231//231
f 241//241 242//242 243//243
f 244//244 242//242 241//241
f 244//244 245//245 242//242
f 246//246 245//245 244//244
f 246//246 247//247 245//245
f 248//248 247//247 246//246
f 248//248 249//249 247//247
f 250//250 249//249 248//248
f 250//250 251//251 249//249
f 250//250 252//252 251//251
f 250//250 253//253 252//252
f 250//250 254//254 253//253
f 250//250 255//255 254//254
f 256//256 255//255 250//250
f 256//256 257//257 255//255
f 256//256 258//258 257//257
f 259//259 258//258 256//256
f 259//259 260//260 258//258
f 259//259 261//261 260//260
f 262//262 261//261 259//259
f 262//262 263//263 261//261
f 262//262 264//264 263//263
f 265//265 264//264 262//262
f 265//265 266//266 264//264
f 265//265 267//267 266//266
f 268//268 267//267 265//265
f 268//268 269//269 267//267
f 268//268 270//270 269//269
f 270//270 271//271 272//272
f 268//268 271//271 270//270
f 273//273 271//271 268//268
f 273//273 274//274 271//271
f 275//275 274//274 273//273
f 276//276 274//274 275//275
f 276//276 277//277 274//274
f 278//278 277//277 276//276
f 278//278 279//279 277//277
f 280//280 279//279 278//278
f 280//280 281//281 279//279
f 281//281 280//280 282//282
f 283//283 251//251 252//252
f 284//284 251//251 283//283
f 285//285 251//251 284//284
f 285//285 286//286 251//251
f 287//287 286//286 285//285
f 288//288 286//286 287//287
f 288//288 289//289 286//286
f 290//290 289//289 288//288
f 291//291 289//289 290//290
f 292//292 289//289 291//291
f 292//292 293//293 289//289
f 294//294 293//293 292//292
f 295//295 293//293 294//294
f 295//295 296//296 293//293
f 297//297 296//296 295//295
f 298//298 296//296 297//297
f 298//298 299//299 296//296
f 300//300 299//299 298//298
f 301//301 299//299 300//300
f 302//302 299//299 301//301
f 302//302 271//271 299//299
f 271//271 302//302 272//272
f 243//243 303//303 241//241
f 303//303 243//243 304//304
f 241//241 305//305 244//244
f 305//305 241//241 303//303
f 244//244 306//306 246//246
f 306//306 244//244 305//305
f 246//246 307//307 248//248
f 307//307 246//246 306//306
f 307//307 250//250 248//248
f 250//250 307//307 308//308
f 308//308 256//256 250//250
f 256//256 308//308 309//309
f 309//309 259//259 256//256
f 259//259 309//309 310//310
f 310//310 262//262 259//259
f 262//262 310//310 311//311
f 311//311 265//265 262//262
f 265//265 311//311 312//312
f 312//312 268//268 265//265
f 268//268 312//312 313//313
f 313//313 273//273 268//268
f 273//273 313//313 314//314
f 314//314 275//275 273//273
f 275//275 314//314 315//315
f 316//316 275//275 315//315
f 275//275 316//316 276//276
f 317//317 276//276 316//316
f 276//276 317//317 278//278
f 318//318 278//278 317//317
f 278//278 318//318 280//280
f 319//319 280//280 318//318
f 280//280 319//319 282//282
f 320//320 282//282 319//319
f 282//282 320//320 281//281
f 321//321 281//281 320//320
f 281//281 321//321 279//279
f 322//322 279//279 321//321
f 279//279 322//322 277//277
f 323//323 277//277 322//322
f 277//277 323//323 274//274
f 323//323 271//271 274//274
f 271//271 323//323 324//324
f 324//324 299//299 271//271
f 299//299 324//324 325//325
f 325//325 296//296 299//299
f 296//296 325//325 326//326
f 326//326 293//293 296//296
f 293//293 326//326 327//327
f 327//327 289//289 293//293
f 289//289 327//327 328//328
f 328//328 286//286 289//289
f 286//286 328//328 329//329
f 329//329 251//251 286//286
f 251//251 329//329 330//330
f 330//330 249//249 251//251
f 249//249 330//330 331//331
f 249//249 332//332 247//247
f 332//332 249//249 331//331
f 247//247 333//333 245//245
f 333//333 247//247 332//332
f 245//245 334//334 242//242
f 334//334 245//245 333//333
f 242//242 304//304 243//243
f 304//304 242//242 334//334
f 334//334 303//303 304//304
f 333//333 303//303 334//334
f 333//333 305//305 303//303
f 332//332 305//305 333//333
f 332//332 306//306 305//305
f 331//331 306//306 332//332
f 331//331 307//307 306//306
f 330//330 307//307 331//331
f 330//330 308//308 307//307
f 330//330 335//335 308//308
f 330//330 336//336 335//335
f 330//330 337//337 336//336
f 330//330 338//338 337//337
f 329//329 338//338 330//330
f 329//329 339//339 338//338
f 329//329 340//340 339//339
f 328//328 340//340 329//329
f 328//328 341//341 340//340
f 328//328 342//342 341//341
f 327//327 342//342 328//328
f 327//327 343//343 342//342
f 327//327 344//344 343//343
f 327//327 345//345 344//344
f 326//326 345//345 327//327
f 326//326 346//346 345//345
f 326//326 347//347 346//346
f 325//325 347//347 326//326
f 325//325 348//348 347//347
f 325//325 349//349 348//348
f 325//325 350//350 349//349
f 350//350 324//324 351//351
f 324//324 350//350 325//325
f 352//352 308//308 335//335
f 353//353 308//308 352//352
f 354//354 308//308 353//353
f 354//354 309//309 308//308
f 355//355 309//309 354//354
f 356//356 309//309 355//355
f 356//356 310//310 309//309
f 357//357 310//310 356//356
f 358//358 310//310 357//357
f 359//359 310//310 358//358
f 359//359 311//311 310//310
f 360//360 311//311 359//359
f 360//360 312//312 311//311
f 361//361 312//312 360//360
f 362//362 312//312 361//361
f 362//362 313//313 312//312
f 363//363 313//313 362//362
f 364//364 313//313 363//363
f 324//324 364//364 351//351
f 324//324 313//313 364//364
f 324//324 314//314 313//313
f 323//323 314//314 324//324
f 323//323 315//315 314//314
f 323//323 316//316 315//315
f 322//322 316//316 323//323
f 322//322 317//317 316//316
f 321//321 317//317 322//322
f 321//321 318//318 317//317
f 320//320 318//318 321//321
f 318//318 320//320 319//319
f 365//365 366//366 367//367
f 367//367 368//368 369//369
f 367//367 370//370 368//368
f 370//370 367//367 366//366
f 368//368 371//371 369//369
f 371//371 368//368 372//372
f 371//371 367//367 369//369
f 367//367 371//371 373//373
f 367//367 374//374 365//365
f 374//374 367//367 373//373
f 374//374 366//366 365//365
f 366//366 374//374 375//375
f 376//376 366//366 375//375
f 366//366 376//376 370//370
f 376//376 368//368 370//370
f 368//368 376//376 372//372
f 372//372 373//373 371//371
f 376//376 373//373 372//372
f 376//376 374//374 373//373
f 374//374 376//376 375//375
f 377//377 378//378 379//379
f 378//378 377//377 380//380
f 381//381 382//382 383//383
f 379//379 382//382 381//381
f 379//379 384//384 382//382
f 378//378 384//384 379//379
f 384//384 378//378 385//385
f 386//386 381//381 383//383
f 381//381 386//386 387//387
f 388//388 381//381 387//387
f 381//381 388//388 379//379
f 379//379 389//389 377//377
f 389//389 379//379 388//388
f 389//389 380//380 377//377
f 380//380 389//389 390//390
f 391//391 380//380 390//390
f 380//380 391//391 378//378
f 392//392 378//378 391//391
f 378//378 392//392 385//385
f 392//392 384//384 385//385
f 384//384 392//392 393//393
f 384//384 394//394 382//382
f 394//394 384//384 393//393
f 382//382 386//386 383//383
f 386//386 382//382 394//394
f 393//393 388//388 394//394
f 392//392 388//388 393//393
f 391//391 388//388 392//392
f 391//391 389//389 388//388
f 389//389 391//391 390//390
f 394//394 387//387 386//386
f 387//387 394//394 388//388
f 395//395 396//396 397//397
f 398//398 396//396 395//395
f 398//398 399//399 396//396
f 400//400 399//399 398//398
f 400//400 401//401 399//399
f 402//402 401//401 400//400
f 403//403 401//401 402//402
f 403//403 404//404 401//401
f 404//404 403//403 405//405
f 406//406 407//407 408//408
f 406//406 409//409 407//407
f 406//406 410//410 409//409
f 411//411 410//410 406//406
f 411//411 412//412 410//410
f 413//413 412//412 411//411
f 414//414 412//412 413//413
f 414//414 415//415 412//412
f 416//416 415//415 414//414
f 416//416 417//417 415//415
f 404//404 417//417 416//416
f 405//405 417//417 404//404
f 405//405 418//418 417//417
f 405//405 419//419 418//418
f 405//405 420//420 419//419
f 405//405 421//421 420//420
f 422//422 421//421 405//405
f 422//422 423//423 421//421
f 422//422 424//424 423//423
f 422//422 425//425 424//424
f 422//422 426//426 425//425
f 422//422 427//427 426//426
f 428//428 427//427 422//422
f 428//428 429//429 427//427
f 428//428 430//430 429//429
f 428//428 431//431 430//430
f 431//431 432//432 433//433
f 431//431 434//434 432//432
f 431//431 435//435 434//434
f 435//435 431//431 428//428
f 436//436 418//418 419//419
f 437//437 418//418 436//436
f 437//437 438//438 418//418
f 439//439 438//438 437//437
f 440//440 438//438 439//439
f 434//434 438//438 440//440
f 434//434 441//441 438//438
f 441//441 434//434 435//435
f 442//442 423//423 424//424
f 442//442 443//443 423//423
f 444//444 443//443 442//442
f 445//445 443//443 444//444
f 445//445 446//446 443//443
f 447//447 446//446 445//445
f 433//433 446//446 447//447
f 446//446 433//433 432//432
f 408//408 448//448 406//406
f 448//448 408//408 449//449
f 406//406 450//450 411//411
f 450//450 406//406 448//448
f 411//411 451//451 413//413
f 451//451 411//411 450//450
f 451//451 414//414 413//413
f 414//414 451//451 452//452
f 452//452 416//416 414//414
f 416//416 452//452 453//453
f 453//453 404//404 416//416
f 404//404 453//453 454//454
f 454//454 401//401 404//404
f 401//401 454//454 455//455
f 401//401 456//456 399//399
f 456//456 401//401 455//455
f 399//399 457//457 396//396
f 457//457 399//399 456//456
f 396//396 458//458 397//397
f 458//458 396//396 457//457
f 397//397 459//459 395//395
f 459//459 397//397 458//458
f 395//395 460//460 398//398
f 460//460 395//395 459//459
f 398//398 461//461 400//400
f 461//461 398//398 460//460
f 400//400 462//462 402//402
f 462//462 400//400 461//461
f 462//462 403//403 402//402
f 403//403 462//462 463//463
f 463//463 405//405 403//403
f 405//405 463//463 464//464
f 464//464 422//422 405//405
f 422//422 464//464 465//465
f 465//465 428//428 422//422
f 428//428 465//465 466//466
f 466//466 435//435 428//428
f 435//435 466//466 467//467
f 468//468 435//435 467//467
f 435//435 468//468 441//441
f 468//468 438//438 441//441
f 438//438 468//468 469//469
f 469//469 418//418 438//438
f 418//418 469//469 470//470
f 470//470 417//417 418//418
f 417//417 470//470 471//471
f 471//471 415//415 417//417
f 415//415 471//471 472//472
f 472//472 412//412 415//415
f 412//412 472//472 473//473
f 412//412 474//474 410//410
f 474//474 412//412 473//473
f 410//410 475//475 409//409
f 475//475 410//410 474//474
f 409//409 476//476 407//407
f 476//476 409//409 475//475
f 407//407 449//449 408//408
f 449//449 407//407 476//476
f 477//477 478//478 479//479
f 480//480 478//478 477//477
f 480//480 481//481 478//478
f 480//480 482//482 481//481
f 483//483 482//482 480//480
f 483//483 484//484 482//482
f 485//485 484//484 483//483
f 484//484 485//485 486//486
f 470//470 487//487 488//488
f 470//470 489//489 487//487
f 469//469 489//489 470//470
f 469//469 490//490 489//489
f 469//469 491//491 490//490
f 469//469 492//492 491//491
f 492//492 486//486 485//485
f 492//492 493//493 486//486
f 492//492 468//468 493//493
f 468//468 492//492 469//469
f 476//476 448//448 449//449
f 475//475 448//448 476//476
f 474//474 448//448 475//475
f 474//474 450//450 448//448
f 473//473 450//450 474//474
f 473//473 451//451 450//450
f 473//473 452//452 451//451
f 472//472 452//452 473//473
f 472//472 453//453 452//452
f 471//471 453//453 472//472
f 471//471 454//454 453//453
f 454//454 464//464 463//463
f 471//471 464//464 454//454
f 470//470 464//464 471//471
f 488//488 464//464 470//470
f 494//494 464//464 488//488
f 495//495 464//464 494//494
f 495//495 465//465 464//464
f 477//477 465//465 495//495
f 479//479 465//465 477//477
f 496//496 465//465 479//479
f 497//497 465//465 496//496
f 498//498 465//465 497//497
f 498//498 466//466 465//465
f 499//499 466//466 498//498
f 500//500 466//466 499//499
f 493//493 466//466 500//500
f 493//493 467//467 466//466
f 467//467 493//493 468//468
f 457//457 459//459 458//458
f 457//457 460//460 459//459
f 456//456 460//460 457//457
f 456//456 461//461 460//460
f 455//455 461//461 456//456
f 455//455 462//462 461//461
f 454//454 462//462 455//455
f 462//462 454//454 463//463
f 501//501 502//502 503//503
f 502//502 501//501 504//504
f 502//502 505//505 503//503
f 505//505 502//502 506//506
f 505//505 501//501 503//503
f 501//501 505//505 507//507
f 508//508 501//501 507//507
f 501//501 508//508 504//504
f 508//508 502//502 504//504
f 502//502 508//508 506//506
f 508//508 505//505 506//506
f 505//505 508//508 507//507
f 509//509 510//510 511//511
f 512//512 510//510 509//509
f 512//512 513//513 510//510
f 514//514 513//513 512//512
f 514//514 515//515 513//513
f 516//516 515//515 514//514
f 517//517 515//515 516//516
f 517//517 518//518 515//515
f 518//518 517//517 519//519
f 520//520 521//521 522//522
f 520//520 523//523 521//521
f 520//520 524//524 523//523
f 525//525 524//524 520//520
f 525//525 526//526 524//524
f 527//527 526//526 525//525
f 528//528 526//526 527//527
f 528//528 529//529 526//526
f 530//530 529//529 528//528
f 530//530 531//531 529//529
f 518//518 531//531 530//530
f 519//519 531//531 518//518
f 519//519 532//532 531//531
f 519//519 533//533 532//532
f 519//519 534//534 533//533
f 519//519 535//535 534//534
f 536//536 535//535 519//519
f 536//536 537//537 535//535
f 536//536 538//538 537//537
f 536//536 539//539 538//538
f 536//536 540//540 539//539
f 536//536 541//541 540//540
f 542//542 541//541 536//536
f 542//542 543//543 541//541
f 542//542 544//544 543//543
f 542//542 545//545 544//544
f 545//545 546//546 547//547
f 545//545 548//548 546//546
f 545//545 549//549 548//548
f 549//549 545//545 542//542
f 550//550 532//532 533//533
f 551//551 532//532 550//550
f 551//551 552//552 532//532
f 553//553 552//552 551//551
f 554//554 552//552 553//553
f 548//548 552//552 554//554
f 548//548 555//555 552//552
f 555//555 548//548 549//549
f 556//556 537//537 538//538
f 556//556 557//557 537//537
f 558//558 557//557 556//556
f 559//559 557//557 558//558
f 559//559 560//560 557//557
f 561//561 560//560 559//559
f 547//547 560//560 561//561
f 560//560 547//547 546//546
f 522//522 562//562 520//520
f 562//562 522//522 563//563
f 520//520 564//564 525//525
f 564//564 520//520 562//562
f 525//525 565//565 527//527
f 565//565 525//525 564//564
f 565//565 528//528 527//527
f 528//528 565//565 566//566
f 566//566 530//530 528//528
f 530//530 566//566 567//567
f 567//567 518//518 530//530
f 518//518 567//567 568//568
f 568//568 515//515 518//518
f 515//515 568//568 569//569
f 515//515 570//570 513//513
f 570//570 515//515 569//569
f 513//513 571//571 510//510
f 571//571 513//513 570//570
f 510//510 572//572 511//511
f 572//572 510//510 571//571
f 511//511 573//573 509//509
f 573//573 511//511 572//572
f 509//509 574//574 512//512
f 574//574 509//509 573//573
f 512//512 575//575 514//514
f 575//575 512//512 574//574
f 514//514 576//576 516//516
f 576//576 514//514 575//575
f 576//576 517//517 516//516
f 517//517 576//576 577//577
f 577//577 519//519 517//517
f 519//519 577//577 578//578
f 578//578 536//536 519//519
f 536//536 578//578 579//579
f 579//579 542//542 536//536
f 542//542 579//579 580//580
f 580//580 549//549 542//542
f 549//549 580//580 581//581
f 582//582 549//549 581//581
f 549//549 582//582 555//555
f 582//582 552//552 555//555
f 552//552 582//582 583//583
f 583//583 532//532 552//552
f 532//532 583//583 584//584
f 584//584 531//531 532//532
f 531//531 584//584 585//585
f 585//585 529//529 531//531
f 529//529 585//585 586//586
f 586//586 526//526 529//529
f 526//526 586//586 587//587
f 526//526 588//588 524//524
f 588//588 526//526 587//587
f 524//524 589//589 523//523
f 589//589 524//524 588//588
f 523//523 590//590 521//521
f 590//590 523//523 589//589
f 521//521 563//563 522//522
f 563//563 521//521 590//590
f 591//591 592//592 593//593
f 594//594 592//592 591//591
f 594//594 595//595 592//592
f 594//594 596//596 595//595
f 597//597 596//596 594//594
f 597//597 598//598 596//596
f 599//599 598//598 597//597
f 598//598 599//599 600//600
f 584//584 601//601 602//602
f 584//584 603//603 601//601
f 583//583 603//603 584//584
f 583//583 604//604 603//603
f 583//583 605//605 604//604
f 583//583 606//606 605//605
f 606//606 600//600 599//599
f 606//606 607//607 600//600
f 606//606 582//582 607//607
f 582//582 606//606 583//583
f 590//590 562//562 563//563
f 589//589 562//562 590//590
f 588//588 562//562 589//589
f 588//588 564//564 562//562
f 587//587 564//564 588//588
f 587//587 565//565 564//564
f 587//587 566//566 565//565
f 586//586 566//566 587//587
f 586//586 567//567 566//566
f 585//585 567//567 586//586
f 585//585 568//568 567//567
f 585//585 578//578 568//568
f 584//584 578//578 585//585
f 602//602 578//578 584//584
f 608//608 578//578 602//602
f 609//609 578//578 608//608
f 609//609 579//579 578//578
f 591//591 579//579 609//609
f 593//593 579//579 591//591
f 610//610 579//579 593//593
f 611//611 579//579 610//610
f 612//612 579//579 611//611
f 612//612 580//580 579//579
f 613//613 580//580 612//612
f 614//614 580//580 613//613
f 607//607 580//580 614//614
f 607//607 581//581 580//580
f 581//581 607//607 582//582
f 571//571 573//573 572//572
f 571//571 574//574 573//573
f 570//570 574//574 571//571
f 570//570 575//575 574//574
f 569//569 575//575 570//570
f 569//569 576//576 575//575
f 569//569 577//577 576//576
f 568//568 577//577 569//569
f 577//577 568//568 578//578
f 615//615 616//616 617//617
f 617//617 618//618 619//619
f 617//617 620//620 618//618
f 620//620 617//617 616//616
f 618//618 621//621 619//619
f 621//621 618//618 622//622
f 621//621 617//617 619//619
f 617//617 621//621 623//623
f 617//617 624//624 615//615
f 624//624 617//617 623//623
f 624//624 616//616 615//615
f 616//616 624//624 625//625
f 626//626 616//616 625//625
f 616//616 626//626 620//620
f 626//626 618//618 620//620
f 618//618 626//626 622//622
f 622//622 623//623 621//621
f 626//626 623//623 622//622
f 626//626 624//624 623//623
f 624//624 626//626 625//625
f 627//627 628//628 629//629
f 628//628 630//630 631//631
f 628//628 632//632 630//630
f 628//628 633//633 632//632
f 633//633 628//628 627//627
f 631//631 634//634 635//635
f 634//634 631//631 630//630
f 632//632 636//636 637//637
f 632//632 638//638 636//636
f 638//638 632//632 633//633
f 636//636 639//639 637//637
f 639//639 636//636 640//640
f 639//639 632//632 637//637
f 632//632 639//639 641//641
f 632//632 642//642 630//630
f 642//642 632//632 641//641
f 642//642 634//634 630//630
f 634//634 642//642 643//643
f 634//634 644//644 635//635
f 644//644 634//634 643//643
f 644//644 631//631 635//635
f 631//631 644//644 645//645
f 631//631 646//646 628//628
f 646//646 631//631 645//645
f 646//646 629//629 628//628
f 629//629 646//646 647//647
f 629//629 648//648 627//627
f 648//648 629//629 647//647
f 648//648 633//633 627//627
f 633//633 648//648 649//649
f 650//650 633//633 649//649
f 633//633 650//650 638//638
f 650//650 636//636 638//638
f 636//636 650//650 640//640
f 640//640 641//641 639//639
f 641//641 645//645 642//642
f 641//641 646//646 645//645
f 641//641 650//650 646//646
f 650//650 641//641 640//640
f 642//642 644//644 643//643
f 644//644 642//642 645//645
f 646//646 648//648 647//647
f 646//646 649//649 648//648
f 649//649 646//646 650//650
f 301//301 350//350 302//302
f 350//350 301//301 349//349
f 302//302 351//351 272//272
f 351//351 302//302 350//350
f 300//300 349//349 301//301
f 349//349 300//300 348//348
f 272//272 364//364 270//270
f 364//364 272//272 351//351
f 298//298 348//348 300//300
f 348//348 298//298 347//347
f 270//270 363//363 269//269
f 363//363 270//270 364//364
f 346//346 298//298 297//297
f 298//298 346//346 347//347
f 269//269 362//362 267//267
f 362//362 269//269 363//363
f 345//345 297//297 295//295
f 297//297 345//345 346//346
f 362//362 266//266 267//267
f 266//266 362//362 361//361
f 344//344 295//295 294//294
f 295//295 344//344 345//345
f 361//361 264//264 266//266
f 264//264 361//361 360//360
f 343//343 294//294 292//292
f 294//294 343//343 344//344
f 360//360 263//263 264//264
f 263//263 360//360 359//359
f 342//342 292//292 291//291
f 292//292 342//342 343//343
f 359//359 261//261 263//263
f 261//261 359//359 358//358
f 341//341 291//291 290//290
f 291//291 341//341 342//342
f 358//358 260//260 261//261
f 260//260 358//358 357//357
f 340//340 290//290 288//288
f 290//290 340//340 341//341
f 357//357 258//258 260//260
f 258//258 357//357 356//356
f 339//339 288//288 287//287
f 288//288 339//339 340//340
f 356//356 257//257 258//258
f 257//257 356//356 355//355
f 339//339 285//285 338//338
f 285//285 339//339 287//287
f 354//354 257//257 355//355
f 257//257 354//354 255//255
f 338//338 284//284 337//337
f 284//284 338//338 285//285
f 353//353 255//255 354//354
f 255//255 353//353 254//254
f 337//337 283//283 336//336
f 283//283 337//337 284//284
f 352//352 254//254 353//353
f 254//254 352//352 253//253
f 336//336 252//252 335//335
f 252//252 336//336 283//283
f 335//335 253//253 352//352
f 253//253 335//335 252//252
f 433//433 493//493 431//431
f 493//493 433//433 486//486
f 493//493 430//430 431//431
f 430//430 493//493 500//500
f 484//484 433//433 447//447
f 433//433 484//484 486//486
f 500//500 429//429 430//430
f 429//429 500//500 499//499
f 482//482 447//447 445//445
f 447//447 482//482 484//484
f 499//499 427//427 429//429
f 427//427 499//499 498//498
f 481//481 445//445 444//444
f 445//445 481//481 482//482
f 497//497 427//427 498//498
f 427//427 497//497 426//426
f 481//481 442//442 478//478
f 442//442 481//481 444//444
f 496//496 426//426 497//497
f 426//426 496//496 425//425
f 478//478 424//424 479//479
f 424//424 478//478 442//442
f 479//479 425//425 496//496
f 425//425 479//479 424//424
f 434//434 485//485 432//432
f 485//485 434//434 492//492
f 485//485 446//446 432//432
f 446//446 485//485 483//483
f 491//491 434//434 440//440
f 434//434 491//491 492//492
f 483//483 443//443 446//446
f 443//443 483//483 480//480
f 490//490 440//440 439//439
f 440//440 490//490 491//491
f 480//480 423//423 443//443
f 423//423 480//480 477//477
f 489//489 439//439 437//437
f 439//439 489//489 490//490
f 477//477 421//421 423//423
f 421//421 477//477 495//495
f 487//487 437//437 436//436
f 437//437 487//487 489//489
f 494//494 421//421 495//495
f 421//421 494//494 420//420
f 487//487 419//419 488//488
f 419//419 487//487 436//436
f 488//488 420//420 494//494
f 420//420 488//488 419//419
f 547//547 607//607 545//545
f 607//607 547//547 600//600
f 607//607 544//544 545//545
f 544//544 607//607 614//614
f 598//598 547//547 561//561
f 547//547 598//598 600//600
f 614//614 543//543 544//544
f 543//543 614//614 613//613
f 596//596 561//561 559//559
f 561//561 596//596 598//598
f 613//613 541//541 543//543
f 541//541 613//613 612//612
f 595//595 559//559 558//558
f 559//559 595//595 596//596
f 611//611 541//541 612//612
f 541//541 611//611 540//540
f 595//595 556//556 592//592
f 556//556 595//595 558//558
f 610//610 540//540 611//611
f 540//540 610//610 539//539
f 592//592 538//538 593//593
f 538//538 592//592 556//556
f 593//593 539//539 610//610
f 539//539 593//593 538//538
f 548//548 599//599 546//546
f 599//599 548//548 606//606
f 599//599 560//560 546//546
f 560//560 599//599 597//597
f 605//605 548//548 554//554
f 548//548 605//605 606//606
f 597//597 557//557 560//560
f 557//557 597//597 594//594
f 604//604 554//554 553//553
f 554//554 604//604 605//605
f 594//594 537//537 557//557
f 537//537 594//594 591//591
f 603//603 553//553 551//551
f 553//553 603//603 604//604
f 591//591 535//535 537//537
f 535//535 591//591 609//609
f 601//601 551//551 550//550
f 551//551 601//601 603//603
f 608//608 535//535 609//609
f 535//535 608//608 534//534
f 601//601 533//533 602//602
f 533//533 601//601 550//550
f 602//602 534//534 608//608
f 534//534 602//602 533//533