# https://github.com/mikedh/trimesh
v -0.11224600 0.00008900 -0.04976200
v 0.11260200 -0.03031200 -0.04213700
v -0.11224600 0.00008900 -0.04213700
v 0.11260200 -0.03031200 -0.04976200
v -0.11224600 0.00008900 0.08949000
v -0.10153500 -0.00136000 0.07868100
v 0.11260200 -0.03031200 0.08949000
v -0.10153500 -0.00136000 -0.03568600
v 0.10189100 -0.02886400 -0.03568600
v 0.10189100 -0.02886400 0.07868100
v -0.10376300 0.01693400 -0.06304400
v -0.10734500 0.01535200 0.08991100
v -0.10376300 0.01693400 0.08991100
v -0.10734500 0.01535200 -0.06304400
v -0.10009800 0.01832600 -0.06304400
v -0.10009800 0.01832600 0.08991100
v -0.09637400 0.01952400 -0.06304400
v -0.09637400 0.01952400 0.08991100
v -0.09258200 0.02052500 -0.06304400
v -0.09258200 0.02052500 0.08991100
v -0.08874600 0.02132700 -0.06304400
v -0.08874600 0.02132700 0.08991100
v -0.08487300 0.02192600 -0.06304400
v -0.08487300 0.02192600 0.08991100
v -0.08097700 0.02232300 -0.06304400
v -0.08097700 0.02232300 0.08991100
v -0.07706700 0.02251400 -0.06304400
v -0.07706700 0.02251400 0.08991100
v -0.07314900 0.02250100 -0.06304400
v -0.07314900 0.02250100 0.08991100
v -0.06923100 0.02228200 -0.06304400
v -0.06923100 0.02228200 0.08991100
v -0.06533600 0.02185900 -0.06304400
v -0.06533600 0.02185900 0.08991100
v 0.07316200 0.00313300 -0.06304400
v 0.07316200 0.00313300 0.08991100
v 0.07702800 0.00250700 -0.06304400
v 0.07702800 0.00250700 0.08991100
v 0.08085700 0.00167800 -0.06304400
v 0.08085700 0.00167800 0.08991100
v 0.08464000 0.00065100 -0.06304400
v 0.08464000 0.00065100 0.08991100
v 0.08835700 -0.00057300 -0.06304400
v 0.08835700 -0.00057300 0.08991100
v 0.09201500 -0.00199000 -0.06304400
v 0.09201500 -0.00199000 0.08991100
v 0.09559000 -0.00359600 -0.06304400
v 0.09559000 -0.00359600 0.08991100
v 0.09906800 -0.00538700 -0.06304400
v 0.09906800 -0.00538700 0.08991100
v 0.10245700 -0.00735900 -0.06304400
v 0.10245700 -0.00735900 0.08991100
v 0.10573500 -0.00950400 -0.06304400
v 0.10573500 -0.00950400 0.08991100
v 0.10890000 -0.01181900 -0.06304400
v 0.10890000 -0.01181900 0.08991100
v 0.11193200 -0.01429600 -0.06304400
v 0.11193200 -0.01429600 0.08991100
v 0.11307200 -0.01532700 -0.06304400
v 0.11307200 -0.01532700 0.08991100
v 0.11333200 -0.01558400 -0.06304400
v 0.11333200 -0.01558400 0.08991100
v 0.11357100 -0.01586000 -0.06304400
v 0.11357100 -0.01586000 0.08991100
v 0.11378700 -0.01615400 0.08991100
v 0.11378700 -0.01615400 -0.06304400
v 0.11398000 -0.01646600 0.08991100
v 0.11398000 -0.01646600 -0.06304400
v 0.11414400 -0.01679200 0.08991100
v 0.11414400 -0.01679200 -0.06304400
v 0.11453100 -0.01819500 0.08991100
v 0.11447900 -0.01783400 -0.06304400
v 0.11447900 -0.01783400 0.08991100
v 0.11453100 -0.01819500 -0.06304400
v 0.11455400 -0.01855900 0.08991100
v 0.11455400 -0.01855900 -0.06304400
v 0.11455400 -0.01892500 0.08991100
v 0.11455400 -0.01892500 -0.06304400
v 0.11451700 -0.01928900 0.08991100
v 0.11451700 -0.01928900 -0.06304400
v 0.11419600 -0.02165000 0.08991100
v 0.11419600 -0.02165000 -0.06304400
v -0.11148700 0.00886300 -0.06304400
v -0.11116600 0.01122400 0.08991100
v -0.11116600 0.01122400 -0.06304400
v -0.11148700 0.00886300 0.08991100
v -0.11109900 0.01158400 -0.06304400
v -0.11109900 0.01158400 0.08991100
v -0.11101000 0.01193800 -0.06304400
v -0.11101000 0.01193800 0.08991100
v -0.11089100 0.01228300 -0.06304400
v -0.11089100 0.01228300 0.08991100
v -0.11074200 0.01261700 -0.06304400
v -0.11074200 0.01261700 0.08991100
v -0.11056300 0.01293800 -0.06304400
v -0.11056300 0.01293800 0.08991100
v -0.11036200 0.01324400 -0.06304400
v -0.11036200 0.01324400 0.08991100
v -0.11013800 0.01353300 -0.06304400
v -0.11013800 0.01353300 0.08991100
v -0.10989300 0.01380300 -0.06304400
v -0.10989300 0.01380300 0.08991100
v -0.10962500 0.01405300 -0.06304400
v -0.10962500 0.01405300 0.08991100
v -0.10934100 0.01427900 -0.06304400
v -0.10934100 0.01427900 0.08991100
v -0.10903600 0.01448200 -0.06304400
v -0.10903600 0.01448200 0.08991100
v -0.10871600 0.01466000 -0.06304400
v -0.10871600 0.01466000 0.08991100
v 0.11428600 -0.01712900 0.08991100
v 0.11428600 -0.01712900 -0.06304400
v 0.11439700 -0.01747800 -0.06304400
v 0.11439700 -0.01747800 0.08991100
v -0.11224600 0.00008900 -0.06262300
v 0.11260200 -0.03031200 -0.06262300
v -0.10133400 0.00009300 -0.03568600
v -0.10133400 0.00009300 0.07868100
v 0.01087000 0.00711600 -0.07506700
v 0.01145900 0.00489500 -0.07506700
v 0.01087000 0.00711600 -0.07360100
v 0.01145900 0.00489500 -0.07360100
v 0.00973100 0.00910900 -0.07506700
v 0.00973100 0.00910900 -0.07360100
v 0.00811400 0.01073900 -0.07506700
v 0.00811400 0.01073900 -0.07360100
v 0.00612600 0.01189400 -0.07506700
v 0.00612600 0.01189400 -0.07360100
v 0.00391300 0.01249600 -0.07506700
v 0.00391300 0.01249600 -0.07360100
v 0.00161200 0.01250400 -0.07506700
v 0.00161200 0.01250400 -0.07360100
v -0.00060800 0.01191700 -0.07506700
v -0.00060800 0.01191700 -0.07360100
v -0.00259700 0.01077600 -0.07506700
v -0.00259700 0.01077600 -0.07360100
v -0.00422800 0.00915700 -0.07506700
v -0.00422800 0.00915700 -0.07360100
v -0.00538200 0.00717200 -0.07506700
v -0.00538200 0.00717200 -0.07360100
v -0.00066000 -0.00433900 -0.07360100
v -0.00066000 -0.00433900 -0.07506700
v -0.00264900 -0.00318300 -0.07360100
v -0.00264900 -0.00318300 -0.07506700
v 0.00155200 -0.00494000 -0.07360100
v 0.00155200 -0.00494000 -0.07506700
v 0.00384600 -0.00494900 -0.07360100
v 0.00384600 -0.00494900 -0.07506700
v 0.00607300 -0.00436200 -0.07360100
v 0.00607300 -0.00436200 -0.07506700
v 0.00806200 -0.00322100 -0.07360100
v 0.00806200 -0.00322100 -0.07506700
v 0.00969300 -0.00160200 -0.07506700
v 0.00969300 -0.00160200 -0.07360100
v 0.01084800 0.00038300 -0.07506700
v 0.01084800 0.00038300 -0.07360100
v 0.01145100 0.00259900 -0.07506700
v 0.01145100 0.00259900 -0.07360100
v -0.00426500 -0.00155400 -0.07360100
v -0.00426500 -0.00155400 -0.07506700
v -0.00598600 0.00495600 -0.07506700
v -0.00598600 0.00495600 -0.07360100
v 0.01145100 0.00259900 -0.05747300
v 0.01084800 0.00038300 -0.05747300
v 0.00969300 -0.00160200 -0.05747300
v 0.00806200 -0.00322100 -0.05747300
v 0.00607300 -0.00436200 -0.05747300
v 0.00384600 -0.00494900 -0.05747300
v 0.00155200 -0.00494000 -0.05747300
v -0.00066000 -0.00433900 -0.05747300
v -0.00264900 -0.00318300 -0.05747300
v -0.00538200 0.00717200 -0.05747300
v -0.00422800 0.00915700 -0.05747300
v -0.00259700 0.01077600 -0.05747300
v -0.00060800 0.01191700 -0.05747300
v 0.00161200 0.01250400 -0.05747300
v 0.00391300 0.01249600 -0.05747300
v 0.00612600 0.01189400 -0.05747300
v 0.00811400 0.01073900 -0.05747300
v 0.00973100 0.00910900 -0.05747300
v 0.01087000 0.00711600 -0.05747300
v 0.01145900 0.00489500 -0.05747300
v -0.00426500 -0.00155400 -0.05747300
v -0.00540500 0.00044000 -0.07506700
v -0.00599300 0.00266000 -0.07506700
v -0.00540500 0.00044000 -0.07360100
v -0.00599300 0.00266000 -0.07360100
v -0.00598600 0.00495600 -0.05747300
v -0.00540500 0.00044000 -0.05747300
v -0.00599300 0.00266000 -0.05747300
v 0.00129900 -0.00679700 -0.07360100
v -0.00138300 -0.00606700 -0.07360100
v 0.00408500 -0.00680700 -0.07360100
v -0.00379600 -0.00466600 -0.07360100
v 0.00678100 -0.00609500 -0.07360100
v 0.00920200 -0.00471100 -0.07360100
v -0.00575500 -0.00268900 -0.07360100
v 0.01117600 -0.00274800 -0.07360100
v -0.00714000 -0.00027200 -0.07360100
v -0.00785500 0.00242200 -0.07360100
v 0.01257600 -0.00034000 -0.07360100
v -0.00784000 0.00520700 -0.07360100
v 0.01330600 0.00234800 -0.07360100
v -0.00711000 0.00789600 -0.07360100
v 0.01331300 0.00513400 -0.07360100
v -0.00571000 0.01030300 -0.07360100
v 0.01260600 0.00782700 -0.07360100
v 0.01122000 0.01024400 -0.07360100
v -0.00373600 0.01226600 -0.07360100
v -0.00131600 0.01365000 -0.07360100
v 0.00925400 0.01222100 -0.07360100
v 0.00684800 0.01362200 -0.07360100
v 0.00137300 0.01436200 -0.07360100
v 0.00415900 0.01435300 -0.07360100
v -0.00711000 0.00789600 -0.07506700
v -0.00571000 0.01030300 -0.07506700
v -0.00784000 0.00520700 -0.07506700
v -0.00785500 0.00242200 -0.07506700
v -0.00714000 -0.00027200 -0.07506700
v -0.00575500 -0.00268900 -0.07506700
v -0.00379600 -0.00466600 -0.07506700
v -0.00138300 -0.00606700 -0.07506700
v 0.00129900 -0.00679700 -0.07506700
v 0.00408500 -0.00680700 -0.07506700
v 0.00678100 -0.00609500 -0.07506700
v 0.00920200 -0.00471100 -0.07506700
v 0.01117600 -0.00274800 -0.07506700
v 0.01257600 -0.00034000 -0.07506700
v 0.01330600 0.00234800 -0.07506700
v 0.01331300 0.00513400 -0.07506700
v 0.01260600 0.00782700 -0.07506700
v 0.01122000 0.01024400 -0.07506700
v 0.00925400 0.01222100 -0.07506700
v 0.00684800 0.01362200 -0.07506700
v 0.00415900 0.01435300 -0.07506700
v 0.00137300 0.01436200 -0.07506700
v -0.00131600 0.01365000 -0.07506700
v -0.00373600 0.01226600 -0.07506700
v 0.04129800 -0.02869300 -0.07682700
v 0.04100700 -0.02446500 -0.07506700
v 0.04620600 -0.02398600 -0.07506700
v 0.03594200 -0.02920600 -0.07682700
v 0.03578600 -0.02480500 -0.07506700
v 0.03057900 -0.02955400 -0.07682700
v 0.03054900 -0.02500600 -0.07506700
v 0.02520900 -0.02973800 -0.07682700
v 0.02530600 -0.02506600 -0.07506700
v 0.01983800 -0.02975700 -0.07682700
v 0.02004700 -0.02498700 -0.07506700
v 0.01446800 -0.02961200 -0.07682700
v 0.01479600 -0.02476800 -0.07506700
v 0.00909800 -0.02930200 -0.07682700
v 0.00954400 -0.02441000 -0.07506700
v 0.05721500 -0.02617500 -0.07682700
v 0.05653000 -0.02261100 -0.07506700
v 0.06163200 -0.02171700 -0.07506700
v 0.05193400 -0.02717700 -0.07682700
v 0.05138300 -0.02336700 -0.07506700
v 0.04662300 -0.02801700 -0.07682700
v -0.05613700 -0.00737800 -0.07506700
v -0.06249800 -0.00811700 -0.07682700
v -0.06082900 -0.00515900 -0.07506700
v -0.05137700 -0.00947400 -0.07506700
v -0.05774600 -0.01063200 -0.07682700
v -0.04655800 -0.01144400 -0.07506700
v -0.05292600 -0.01300000 -0.07682700
v -0.04167200 -0.01328600 -0.07506700
v -0.04803300 -0.01521900 -0.07682700
v -0.03672600 -0.01500100 -0.07506700
v -0.04307200 -0.01728700 -0.07682700
v -0.03172800 -0.01658500 -0.07506700
v -0.03804400 -0.01920100 -0.07682700
v -0.02668500 -0.01803700 -0.07506700
v -0.03297200 -0.02096100 -0.07682700
v -0.02160500 -0.01935600 -0.07506700
v -0.02784000 -0.02256500 -0.07682700
v -0.01648100 -0.02054000 -0.07506700
v -0.02266300 -0.02401100 -0.07682700
v -0.01131900 -0.02158900 -0.07506700
v -0.01744900 -0.02529700 -0.07682700
v -0.00613500 -0.02250100 -0.07506700
v -0.01219000 -0.02642300 -0.07682700
v 0.00374900 -0.02882700 -0.07682700
v 0.00430100 -0.02391200 -0.07506700
v 0.06245900 -0.02501200 -0.07682700
v 0.06521500 -0.00467000 -0.07682700
v 0.06396300 -0.00450100 -0.07506700
v -0.00092800 -0.02327600 -0.07506700
v -0.05849800 0.01205600 -0.07506700
v -0.05974900 0.01222500 -0.07682700
v -0.00690200 -0.02738700 -0.07682700
v -0.00159100 -0.02818900 -0.07682700
v 0.00909800 -0.02930200 -0.08093200
v 0.00374900 -0.02882700 -0.08093200
v 0.01446800 -0.02961200 -0.08093200
v 0.01983800 -0.02975700 -0.08093200
v 0.02520900 -0.02973800 -0.08093200
v 0.03057900 -0.02955400 -0.08093200
v 0.03594200 -0.02920600 -0.08093200
v 0.04129800 -0.02869300 -0.08093200
v 0.04662300 -0.02801700 -0.08093200
v 0.05193400 -0.02717700 -0.08093200
v 0.05721500 -0.02617500 -0.08093200
v 0.06245900 -0.02501200 -0.08093200
v 0.06521500 -0.00467000 -0.08093200
v -0.05974900 0.01222500 -0.08093200
v -0.06249800 -0.00811700 -0.08093200
v -0.05774600 -0.01063200 -0.08093200
v -0.05292600 -0.01300000 -0.08093200
v -0.04803300 -0.01521900 -0.08093200
v -0.04307200 -0.01728700 -0.08093200
v -0.03804400 -0.01920100 -0.08093200
v -0.03297200 -0.02096100 -0.08093200
v -0.02784000 -0.02256500 -0.08093200
v -0.02266300 -0.02401100 -0.08093200
v -0.01744900 -0.02529700 -0.08093200
v -0.01219000 -0.02642300 -0.08093200
v -0.00690200 -0.02738700 -0.08093200
v -0.00159100 -0.02818900 -0.08093200
v 0.05201600 0.01899900 -0.07506700
v 0.04713700 0.02084200 -0.07506700
v 0.04853000 0.02484300 -0.07682700
v 0.04219100 0.02255700 -0.07506700
v 0.04351000 0.02675700 -0.07682700
v 0.03719300 0.02414000 -0.07506700
v 0.03843700 0.02851700 -0.07682700
v 0.03215100 0.02559300 -0.07506700
v 0.03330500 0.03012100 -0.07682700
v 0.02706300 0.02691100 -0.07506700
v 0.02812900 0.03156600 -0.07682700
v 0.02193900 0.02809500 -0.07506700
v 0.02290700 0.03285300 -0.07682700
v 0.01678400 0.02914400 -0.07506700
v 0.01765600 0.03397800 -0.07682700
v 0.06628700 0.01271500 -0.07506700
v 0.06160200 0.01493300 -0.07506700
v 0.06321100 0.01818700 -0.07682700
v 0.05684300 0.01702900 -0.07506700
v 0.05839200 0.02055500 -0.07682700
v 0.05349100 0.02277400 -0.07682700
v -0.05617400 0.02927200 -0.07506700
v -0.05700100 0.03256700 -0.07682700
v -0.05106400 0.03016600 -0.07506700
v -0.05174900 0.03373100 -0.07682700
v -0.04591700 0.03092300 -0.07506700
v -0.04646800 0.03473300 -0.07682700
v -0.04074100 0.03154100 -0.07506700
v -0.04116500 0.03557200 -0.07682700
v -0.03554100 0.03202100 -0.07506700
v -0.03583200 0.03624800 -0.07682700
v -0.03032000 0.03236000 -0.07506700
v -0.03048400 0.03676200 -0.07682700
v -0.02508400 0.03256100 -0.07506700
v -0.02512100 0.03710900 -0.07682700
v -0.01984000 0.03262200 -0.07506700
v -0.01975100 0.03729300 -0.07682700
v -0.01458900 0.03254300 -0.07506700
v -0.01437300 0.03731300 -0.07682700
v -0.00933000 0.03232400 -0.07506700
v -0.00900200 0.03716800 -0.07682700
v -0.00407900 0.03196600 -0.07506700
v -0.00363200 0.03685700 -0.07682700
v 0.00116500 0.03146700 -0.07506700
v 0.01160000 0.03005600 -0.07506700
v 0.01236700 0.03494300 -0.07682700
v 0.06796300 0.01567300 -0.07682700
v 0.00638600 0.03083100 -0.07506700
v 0.00171600 0.03638300 -0.07682700
v 0.00705700 0.03574400 -0.07682700
v 0.01765600 0.03397800 -0.08093200
v 0.01236700 0.03494300 -0.08093200
v 0.02290700 0.03285300 -0.08093200
v 0.02812900 0.03156600 -0.08093200
v 0.03330500 0.03012100 -0.08093200
v 0.03843700 0.02851700 -0.08093200
v 0.04351000 0.02675700 -0.08093200
v 0.04853000 0.02484300 -0.08093200
v 0.05349100 0.02277400 -0.08093200
v 0.05839200 0.02055500 -0.08093200
v 0.06321100 0.01818700 -0.08093200
v 0.06796300 0.01567300 -0.08093200
v -0.05700100 0.03256700 -0.08093200
v -0.05174900 0.03373100 -0.08093200
v -0.04646800 0.03473300 -0.08093200
v -0.04116500 0.03557200 -0.08093200
v -0.03583200 0.03624800 -0.08093200
v -0.03048400 0.03676200 -0.08093200
v -0.02512100 0.03710900 -0.08093200
v -0.01975100 0.03729300 -0.08093200
v -0.01437300 0.03731300 -0.08093200
v -0.00900200 0.03716800 -0.08093200
v -0.00363200 0.03685700 -0.08093200
v 0.00171600 0.03638300 -0.08093200
v 0.00705700 0.03574400 -0.08093200
v 0.10208500 -0.02741000 0.07868100
v 0.10208500 -0.02741000 -0.03568600
v -0.11137500 0.00884800 -0.06499000
v -0.11255200 0.00013100 -0.06499000
v -0.11106200 0.00880700 -0.06501100
v -0.11224600 0.00008900 -0.06501100
v -0.11168000 0.00888900 -0.06492900
v -0.11285700 0.00017200 -0.06492900
v -0.11197100 0.00892900 -0.06482900
v -0.11314800 0.00021100 -0.06482900
v -0.11343100 0.00024800 -0.06469100
v -0.11224600 0.00896700 -0.06469100
v -0.11250700 0.00900200 -0.06451700
v -0.11368400 0.00028300 -0.06451700
v -0.11273800 0.00903300 -0.06431100
v -0.11391500 0.00031500 -0.06431100
v -0.11412300 0.00034200 -0.06407700
v -0.11294700 0.00906100 -0.06407700
v -0.11429500 0.00036600 -0.06381700
v -0.11311800 0.00908400 -0.06381700
v -0.11442900 0.00038400 -0.06353700
v -0.11325200 0.00910200 -0.06353700
v -0.11453300 0.00039700 -0.06324100
v -0.11334900 0.00911600 -0.06324100
v -0.11459300 0.00040500 -0.06293500
v -0.11340800 0.00912400 -0.06293500
v -0.11460800 0.00040800 -0.06262300
v -0.11343100 0.00912700 -0.06262300
v -0.11460800 0.00040800 0.08949000
v -0.11343100 0.00912700 0.08949000
v -0.11429500 0.00036600 0.09068400
v -0.11442900 0.00038400 0.09040400
v -0.11311800 0.00908400 0.09068400
v -0.11325200 0.00910200 0.09040400
v -0.11412300 0.00034200 0.09094300
v -0.11294700 0.00906100 0.09094300
v -0.11391500 0.00031500 0.09117800
v -0.11273800 0.00903300 0.09117800
v -0.11368400 0.00028300 0.09138400
v -0.11250700 0.00900200 0.09138400
v -0.11224600 0.00896700 0.09155800
v -0.11343100 0.00024800 0.09155800
v -0.11314800 0.00021100 0.09169600
v -0.11197100 0.00892900 0.09169600
v -0.11285700 0.00017200 0.09179600
v -0.11168000 0.00888900 0.09179600
v -0.11255200 0.00013100 0.09185700
v -0.11137500 0.00884800 0.09185700
v -0.11224600 0.00008900 0.09187800
v -0.11106200 0.00880700 0.09187800
v 0.11260200 -0.03031200 0.09187800
v 0.11377900 -0.02159400 0.09187800
v 0.11290800 -0.03035400 0.09185700
v 0.11409200 -0.02163600 0.09185700
v 0.11321300 -0.03039500 0.09179600
v 0.11439000 -0.02167700 0.09179600
v 0.11468800 -0.02171600 0.09169600
v 0.11350400 -0.03043400 0.09169600
v 0.11378700 -0.03047200 0.09155800
v 0.11496300 -0.02175300 0.09155800
v 0.11404000 -0.03050700 0.09138400
v 0.11521700 -0.02178800 0.09138400
v 0.11427100 -0.03053800 0.09117800
v 0.11545500 -0.02182000 0.09117800
v 0.11447900 -0.03056600 0.09094300
v 0.11565600 -0.02184700 0.09094300
v 0.11465100 -0.03058900 0.09068400
v 0.11582700 -0.02187100 0.09068400
v 0.11478500 -0.03060700 0.09040400
v 0.11596900 -0.02189000 0.09040400
v 0.11488900 -0.03062100 0.09010800
v 0.11606600 -0.02190300 0.09010800
v 0.11494900 -0.03062900 0.08980100
v 0.11612500 -0.02191100 0.08980100
v 0.11496300 -0.03063200 0.08949000
v 0.11614800 -0.02191300 0.08949000
v 0.11496300 -0.03063200 -0.06262300
v 0.11614800 -0.02191300 -0.06262300
v 0.11494900 -0.03062900 -0.06293500
v 0.11612500 -0.02191100 -0.06293500
v 0.11488900 -0.03062100 -0.06324100
v 0.11606600 -0.02190300 -0.06324100
v 0.11478500 -0.03060700 -0.06353700
v 0.11596900 -0.02189000 -0.06353700
v 0.11465100 -0.03058900 -0.06381700
v 0.11582700 -0.02187100 -0.06381700
v 0.11447900 -0.03056600 -0.06407700
v 0.11565600 -0.02184700 -0.06407700
v 0.11427100 -0.03053800 -0.06431100
v 0.11545500 -0.02182000 -0.06431100
v 0.11521700 -0.02178800 -0.06451700
v 0.11404000 -0.03050700 -0.06451700
v 0.11496300 -0.02175300 -0.06469100
v 0.11378700 -0.03047200 -0.06469100
v 0.11468800 -0.02171600 -0.06482900
v 0.11350400 -0.03043400 -0.06482900
v 0.11439000 -0.02167700 -0.06492900
v 0.11321300 -0.03039500 -0.06492900
v 0.11409200 -0.02163600 -0.06499000
v 0.11290800 -0.03035400 -0.06499000
v 0.11260200 -0.03031200 -0.06501100
v 0.11377900 -0.02159400 -0.06501100
v -0.11459300 0.00040500 0.08980100
v -0.11340800 0.00912400 0.08980100
v -0.11334900 0.00911600 0.09010800
v -0.11453300 0.00039700 0.09010800
vn 0.00000000 0.00000000 0.00000000
vn 0.00000000 0.00000000 -0.00000000
vn 0.13347947 0.99105158 0.00000000
vn -0.00000000 -0.00000000 0.00000000
vn -0.13302672 -0.98506222 -0.10934489
vn 0.00000000 0.00000000 -0.00000000
vn -0.13430908 -0.99093893 0.00104809
vn -0.00000000 0.00000000 0.00000000
vn 0.00000000 -0.00000000 -0.00000000
vn -0.00000000 -0.00000000 0.00000000
vn 0.00000000 0.00000000 -0.00000000
vn -0.00000000 0.00000000 0.00000000
vn 0.00000000 0.00000000 -0.00000000
vn 0.00000000 -0.00000000 -0.00000000
vn 0.00000000 -0.00000000 -0.00000000
vn -0.00000000 0.00000000 0.00000000
vn -0.00000000 0.00000000 0.00000000
vn 0.00000000 -0.00000000 0.00000000
vn -0.00000000 0.00000000 0.00000000
vn 0.00000000 -0.00000000 0.00000000
vn 0.00000000 -0.00000000 0.00000000
vn -0.00000000 0.00000000 -0.00000000
vn -0.00000000 0.00000000 -0.00000000
vn 0.00000000 -0.00000000 0.00000000
vn -0.00000000 0.00000000 0.00000000
vn 0.00000000 0.00000000 0.00000000
vn -0.00000000 0.00000000 0.00000000
vn 0.00000000 -0.00000000 -0.00000000
vn -0.00000000 -0.00000000 0.00000000
vn 0.00000000 0.00000000 -0.00000000
vn 0.00000000 0.00000000 0.00000000
vn -0.00000000 -0.00000000 0.00000000
vn -0.00000000 -0.00000000 0.00000000
vn 0.00000000 0.00000000 -0.00000000
vn 0.00000000 -0.00000000 -0.00000000
vn 0.00000000 0.00000000 0.00000000
vn 0.00000000 0.00000000 0.00000000
vn -0.00000000 -0.00000000 -0.00000000
vn -0.00000000 -0.00000000 -0.00000000
vn 0.00000000 0.00000000 0.00000000
vn 0.00000000 0.00000000 -0.00000000
vn -0.00000000 -0.00000000 0.00000000
vn -0.00000000 -0.00000000 0.00000000
vn 0.00000000 0.00000000 -0.00000000
vn -0.00000000 0.00000000 0.00000000
vn 0.00000000 -0.00000000 -0.00000000
vn 0.00000000 0.00000000 -0.00000000
vn -0.00000000 -0.00000000 0.00000000
vn -0.00000000 -0.00000000 -0.00000000
vn 0.00000000 0.00000000 0.00000000
vn -0.00000000 -0.00000000 0.00000000
vn 0.00000000 0.00000000 -0.00000000
vn 0.00000000 0.00000000 -0.00000000
vn -0.00000000 -0.00000000 0.00000000
vn -0.00000000 -0.00000000 0.00000000
vn 0.00000000 0.00000000 -0.00000000
vn 0.00000000 0.00000000 0.00000000
vn -0.00000000 -0.00000000 0.00000000
vn -0.00000000 -0.00000000 -0.00000000
vn 0.00000000 0.00000000 -0.00000000
vn 0.00000000 0.00000000 -0.00000000
vn -0.00000000 -0.00000000 -0.00000000
vn 0.00000000 0.00000000 -0.00000000
vn -0.00000000 -0.00000000 0.00000000
vn 0.00000000 0.00000000 0.00000000
vn -0.00000000 -0.00000000 -0.00000000
vn 0.00000000 0.00000000 -0.00000000
vn -0.00000000 -0.00000000 0.00000000
vn -0.00000000 -0.00000000 -0.00000000
vn 0.00000000 0.00000000 0.00000000
vn -0.00000000 0.00000000 0.00000000
vn -0.00000000 -0.00000000 -0.00000000
vn 0.00000000 0.00000000 0.00000000
vn 0.00000000 -0.00000000 0.00000000
vn 0.00000000 0.00000000 0.00000000
vn -0.00000000 -0.00000000 0.00000000
vn -0.00000000 0.00000000 0.00000000
vn 0.00000000 -0.00000000 0.00000000
vn 0.00000000 -0.00000000 -0.00000000
vn -0.00000000 0.00000000 0.00000000
vn 0.00000000 0.00000000 -0.00000000
vn 0.00090338 0.01202820 -0.99992725
vn -0.00000000 -0.00000000 -0.00000000
vn -0.00000000 0.00000000 -0.00000000
vn 0.00000000 -0.00000000 0.00000000
vn 0.12995519 0.99029303 0.04930884
vn -0.00000000 0.00000000 -0.00000000
vn 0.00000000 -0.00000000 0.00000000
vn 0.00000000 -0.00000000 0.00000000
vn -0.09005227 0.04392794 -0.99496780
vn 0.00000000 -0.00000000 -0.00000000
vn -0.00000000 0.00000000 -0.00000000
vn -0.00000000 0.00000000 -0.00000000
vn 0.00000000 -0.00000000 -0.00000000
vn -0.17603873 0.11002421 -0.97821523
vn 0.09499817 -0.05870673 0.99374487
vn -0.32149030 0.26584775 0.90882835
vn 0.00000000 -0.00000000 0.00000000
vn 0.27532090 -0.20328927 0.93961262
vn -0.20354529 0.15236138 -0.96713770
vn 0.00000000 -0.00000000 -0.00000000
vn -0.00000000 0.00000000 0.00000000
vn -0.00000000 -0.00000000 -0.00000000
vn 0.00735670 0.01226116 0.99989777
vn -0.17779143 0.23233302 0.95624870
vn 0.00000000 -0.00000000 0.00000000
vn -0.03607640 0.07311485 0.99667081
vn 0.06472487 -0.13119905 -0.98924087
vn 0.12280780 -0.21878365 0.96801444
vn -0.09930057 0.17503829 -0.97954122
vn -0.00000000 -0.00000000 -0.00000000
vn 0.00000000 0.00000000 -0.00000000
vn 0.00000000 -0.00000000 -0.00000000
vn 0.00000000 0.00000000 -0.00000000
vn -0.00000732 -0.00004883 1.00000000
vn 0.00014238 0.00104113 -0.99999945
vn 0.00000000 -0.00000000 -0.00000000
vn -0.00000000 0.00000000 0.00000000
vn 0.00000000 0.00000000 0.00000000
vn 0.00000000 0.00000000 0.00000000
vn 0.00000000 0.00000000 0.00000000
vn 0.00000000 -0.00000000 0.00000000
vn 0.00000000 0.00000000 0.00000000
vn -0.00000000 0.00000000 0.00000000
vn 0.00000000 -0.00000000 0.00000000
vn 0.00000000 0.00000000 0.00000000
vn 0.00000000 0.00000000 -0.00000000
vn 0.00000000 0.00000000 0.00000000
vn 0.00000000 0.00000000 -0.00000000
vn -0.00000000 -0.00000000 0.00000000
vn -0.00000000 0.00000000 0.00000000
vn -0.00000000 0.00000000 0.00000000
vn -0.00000000 0.00000000 -0.00000000
vn 0.00000000 -0.00000000 0.00000000
vn 0.00000000 0.00000000 -0.00000000
vn -0.00000000 0.00000000 0.00000000
vn -0.00000000 0.00000000 -0.00000000
vn 0.00000000 -0.00000000 0.00000000
vn 0.00000000 -0.00000000 0.00000000
vn -0.00000000 0.00000000 0.00000000
vn -0.00000000 -0.00000000 0.00000000
vn 0.00000000 0.00000000 -0.00000000
vn 0.00000000 -0.00000000 0.00000000
vn -0.00000000 -0.00000000 0.00000000
vn -0.00000000 -0.00000000 0.00000000
vn -0.00000000 -0.00000000 -0.00000000
vn -0.00000000 0.00000000 0.00000000
vn 0.00000000 0.00000000 0.00000000
vn 0.00000000 -0.00000000 0.00000000
vn -0.00000000 0.00000000 -0.00000000
vn -0.00000000 0.00000000 0.00000000
vn 0.00000000 -0.00000000 -0.00000000
vn -0.00000000 0.00000000 0.00000000
vn -0.00000000 0.00000000 0.00000000
vn -0.00000000 0.00000000 -0.00000000
vn 0.00000000 -0.00000000 0.00000000
vn 0.00000000 -0.00000000 -0.00000000
vn -0.00000000 0.00000000 0.00000000
vn 0.00000000 0.00000000 0.00000000
vn 0.00000000 0.00000000 0.00000000
vn -0.00000000 0.00000000 0.00000000
vn 0.00000000 -0.00000000 0.00000000
vn 0.00000000 -0.00000000 0.00000000
vn -0.00000000 0.00000000 0.00000000
vn 0.00000000 -0.00000000 -0.00000000
vn -0.00000000 0.00000000 0.00000000
vn -0.00000000 0.00000000 0.00000000
vn 0.00000000 -0.00000000 0.00000000
vn 0.00000000 0.00000000 -0.00000000
vn 0.00000000 -0.00000000 0.00000000
vn 0.00000000 0.00000000 -0.00000000
vn 0.00000000 -0.00000000 -0.00000000
vn -0.00000000 0.00000000 -0.00000000
vn 0.00000000 0.00000000 0.00000000
vn 0.00000000 0.00000000 0.00000000
vn 0.00000000 -0.00000000 -0.00000000
vn 0.00000000 0.00000000 0.00000000
vn -0.00000000 -0.00000000 -0.00000000
vn 0.00000000 0.00000000 0.00000000
vn 0.00000000 0.00000000 0.00000000
vn -0.00000000 -0.00000000 0.00000000
vn 0.00000000 0.00000000 -0.00000000
vn -0.00000000 -0.00000000 -0.00000000
vn 0.00000000 0.00000000 0.00000000
vn -0.00000000 -0.00000000 -0.00000000
vn -0.00000000 0.00000000 0.00000000
vn -0.00000000 -0.00000000 0.00000000
vn -0.00000000 0.00000000 0.00000000
vn -0.00000000 -0.00000000 0.00000000
vn 0.00000000 0.00000000 -0.00000000
vn 0.00000000 0.00000000 -0.00000000
vn -0.00000000 -0.00000000 -0.00000000
vn 0.00000000 -0.00000000 0.00000000
vn 0.00000000 0.00000000 0.00000000
vn 0.00000000 -0.00000000 0.00000000
vn -0.00000000 0.00000000 -0.00000000
vn 0.00000000 0.00000000 -0.00000000
vn 0.00000000 -0.00000000 -0.00000000
vn -0.00000000 -0.00000000 -0.00000000
vn -0.00000000 0.00000000 0.00000000
vn -0.00000000 0.00000000 -0.00000000
vn 0.00000000 -0.00000000 -0.00000000
vn -0.00000000 -0.00000000 0.00000000
vn 0.00000000 -0.00000000 -0.00000000
vn 0.00000000 -0.00000000 0.00000000
vn -0.00000000 0.00000000 0.00000000
vn -0.00000000 -0.00000000 0.00000000
vn 0.00000000 0.00000000 -0.00000000
vn 0.00000000 0.00000000 -0.00000000
vn -0.00000000 0.00000000 0.00000000
vn -0.00000000 -0.00000000 0.00000000
vn -0.00000000 -0.00000000 -0.00000000
vn 0.00000000 0.00000000 -0.00000000
vn 0.00000000 0.00000000 0.00000000
vn -0.00000000 0.00000000 0.00000000
vn 0.00000000 -0.00000000 0.00000000
vn -0.00000000 0.00000000 0.00000000
vn -0.00000000 -0.00000000 0.00000000
vn 0.00000000 0.00000000 0.00000000
vn -0.00000000 -0.00000000 0.00000000
vn -0.00000000 -0.00000000 -0.00000000
vn 0.00000000 0.00000000 -0.00000000
vn -0.00000000 -0.00000000 0.00000000
vn -0.00000000 0.00000000 0.00000000
vn -0.00000000 0.00000000 -0.00000000
vn 0.00000000 -0.00000000 0.00000000
vn 0.00000000 0.00000000 -0.00000000
vn 0.00000000 -0.00000000 0.00000000
vn 0.00000000 0.00000000 0.00000000
vn -0.00000000 0.00000000 0.00000000
vn 0.00000000 0.00000000 -0.00000000
vn -0.00000000 -0.00000000 0.00000000
vn 0.00000000 0.00000000 0.00000000
vn 0.00000000 0.00000000 0.00000000
vn 0.00000000 0.00000000 -0.00000000
vn 0.00000000 0.00000000 0.00000000
vn 0.00000000 0.00000000 0.00000000
vn -0.00000000 0.00000000 0.00000000
vn -0.00000000 0.00000000 -0.00000000
vn 0.00000000 -0.00000000 -0.00000000
vn 0.00000000 -0.00000000 -0.00000000
vn -0.00000000 0.00000000 -0.00000000
vn 0.00000000 0.00000000 -0.00000000
vn 0.00000000 -0.00000000 0.00000000
vn -0.00000000 0.00000000 0.00000000
vn 0.00000000 0.00000000 -0.00000000
vn -0.00000000 -0.00000000 0.00000000
vn 0.00000000 0.00000000 -0.00000000
vn -0.00000000 -0.00000000 0.00000000
vn -0.00000000 -0.00000000 0.00000000
vn 0.00000000 0.00000000 -0.00000000
vn 0.00000000 0.00000000 -0.00000000
vn -0.00000000 -0.00000000 -0.00000000
vn -0.00000000 0.00000000 0.00000000
vn -0.00000000 0.00000000 -0.00000000
vn 0.00000000 -0.00000000 0.00000000
vn 0.00000000 -0.00000000 0.00000000
vn 0.00000000 -0.00000000 -0.00000000
vn -0.00000000 0.00000000 -0.00000000
vn -0.00000000 -0.00000000 -0.00000000
vn 0.00000000 0.00000000 -0.00000000
vn -0.00000000 0.00000000 -0.00000000
vn -0.00000000 -0.00000000 0.00000000
vn -0.00000000 -0.00000000 -0.00000000
vn 0.00000000 0.00000000 -0.00000000
vn 0.00000000 0.00000000 -0.00000000
vn -0.00000000 -0.00000000 0.00000000
vn 0.00000000 0.00000000 0.00000000
vn -0.00000000 -0.00000000 0.00000000
vn -0.00000000 -0.00000000 0.00000000
vn 0.00000000 0.00000000 -0.00000000
vn -0.00000000 -0.00000000 0.00000000
vn 0.00000000 0.00000000 -0.00000000
vn 0.00000000 0.00000000 -0.00000000
vn 0.00000000 0.00000000 -0.00000000
vn 0.00000000 -0.00000000 -0.00000000
vn 0.00000000 -0.00000000 -0.00000000
vn 0.00000000 0.00000000 -0.00000000
vn 0.00000000 0.00000000 -0.00000000
vn -0.00000000 -0.00000000 0.00000000
vn 0.00000000 0.00000000 0.00000000
vn -0.00000000 -0.00000000 -0.00000000
vn 0.00000000 0.00000000 0.00000000
vn 0.00000000 0.00000000 0.00000000
vn -0.00000000 -0.00000000 -0.00000000
vn 0.00000000 -0.00000000 0.00000000
vn -0.00000000 0.00000000 -0.00000000
vn -0.00000000 -0.00000000 -0.00000000
vn 0.00000000 0.00000000 -0.00000000
vn -0.00000000 0.00000000 0.00000000
vn 0.00000000 0.00000000 0.00000000
vn -0.00000000 0.00000000 -0.00000000
vn -0.00000000 -0.00000000 0.00000000
vn -0.00000000 -0.00000000 0.00000000
vn 0.00000000 0.00000000 -0.00000000
vn -0.00000000 0.00000000 -0.00000000
vn 0.00000000 -0.00000000 0.00000000
vn -0.00000000 0.00000000 -0.00000000
vn 0.00000000 0.00000000 -0.00000000
vn 0.00000000 -0.00000000 0.00000000
vn 0.00000000 -0.00000000 -0.00000000
vn -0.00000000 0.00000000 -0.00000000
vn 0.00000000 -0.00000000 -0.00000000
vn -0.00000000 -0.00000000 0.00000000
vn -0.00000000 -0.00000000 0.00000000
vn 0.00000000 0.00000000 -0.00000000
vn 0.00000000 0.00000000 0.00000000
vn 0.00000000 0.00000000 0.00000000
vn -0.00000000 -0.00000000 -0.00000000
vn -0.00000000 -0.00000000 -0.00000000
vn 0.00000000 0.00000000 0.00000000
vn 0.00000000 0.00000000 0.00000000
vn -0.00000000 -0.00000000 0.00000000
vn 0.00000000 0.00000000 0.00000000
vn -0.00000000 -0.00000000 -0.00000000
vn 0.00000000 0.00000000 -0.00000000
vn 0.00000000 0.00000000 -0.00000000
vn -0.00000000 -0.00000000 0.00000000
vn 0.00000000 0.00000000 -0.00000000
vn 0.00000000 0.00000000 0.00000000
vn -0.00000000 -0.00000000 -0.00000000
vn -0.00000000 -0.00000000 0.00000000
vn -0.00000000 -0.00000000 -0.00000000
vn 0.00000000 0.00000000 0.00000000
vn -0.00000000 -0.00000000 -0.00000000
vn -0.00000000 0.00000000 0.00000000
vn -0.00000000 -0.00000000 -0.00000000
vn -0.00000000 -0.00000000 0.00000000
vn -0.00000000 -0.00000000 0.00000000
vn 0.00000000 0.00000000 0.00000000
vn 0.00000000 0.00000000 0.00000000
vn 0.00000000 -0.00000000 0.00000000
vn 0.00000000 0.00000000 -0.00000000
vn 0.00000000 -0.00000000 -0.00000000
vn 0.00000000 -0.00000000 0.00000000
vn -0.00000000 -0.00000000 -0.00000000
vn 0.00000000 0.00000000 0.00000000
vn -0.00000000 -0.00000000 -0.00000000
vn 0.00000000 0.00000000 0.00000000
vn -0.00000000 -0.00000000 -0.00000000
vn -0.00000000 -0.00000000 -0.00000000
vn 0.00000000 -0.00000000 -0.00000000
vn -0.00000000 0.00000000 0.00000000
vn 0.00000000 -0.00000000 0.00000000
vn 0.00000000 -0.00000000 0.00000000
vn -0.00000000 0.00000000 0.00000000
vn 0.00000000 0.00000000 -0.00000000
vn -0.00000000 0.00000000 0.00000000
vn 0.00000000 -0.00000000 -0.00000000
vn -0.00000000 0.00000000 0.00000000
vn 0.00000000 0.00000000 0.00000000
vn 0.00000000 -0.00000000 0.00000000
vn 0.00000000 -0.00000000 0.00000000
vn 0.00000000 0.00000000 0.00000000
vn 0.00000000 0.00000000 -0.00000000
vn 0.00000000 -0.00000000 0.00000000
vn 0.00000000 0.00000000 0.00000000
vn 0.00000000 -0.00000000 0.00000000
vn 0.00000000 -0.00000000 -0.00000000
vn -0.00000000 0.00000000 0.00000000
vn 0.00000000 0.00000000 -0.00000000
vn 0.00000000 0.00000000 0.00000000
vn -0.00000000 -0.00000000 -0.00000000
vn 0.00000000 0.00000000 -0.00000000
vn 0.00000000 0.00000000 -0.00000000
vn -0.00000000 0.00000000 -0.00000000
vn 0.00000000 -0.00000000 0.00000000
vn 0.00000000 0.00000000 0.00000000
vn -0.00000000 0.00000000 0.00000000
vn 0.00000000 0.00000000 0.00000000
vn -0.00000000 0.00000000 -0.00000000
vn 0.00000000 0.00000000 -0.00000000
vn -0.00000000 -0.00000000 0.00000000
vn 0.00000000 0.00000000 -0.00000000
vn 0.00000000 0.00000000 -0.00000000
vn -0.00000000 -0.00000000 0.00000000
vn 0.00000000 0.00000000 -0.00000000
vn 0.00000000 -0.00000000 0.00000000
vn 0.00000000 0.00000000 0.00000000
vn 0.00000000 -0.00000000 -0.00000000
vn 0.00000000 -0.00000000 -0.00000000
vn 0.00000000 0.00000000 -0.00000000
vn -0.00000000 0.00000000 0.00000000
vn -0.00000000 0.00000000 0.00000000
vn 0.00000000 -0.00000000 -0.00000000
vn 0.00000000 -0.00000000 0.00000000
vn -0.00000000 0.00000000 0.00000000
vn 0.00000000 0.00000000 0.00000000
vn 0.00000000 0.00000000 -0.00000000
vn 0.00000000 0.00000000 0.00000000
vn 0.00000000 0.00000000 -0.00000000
vn 0.00000000 0.00000000 0.00000000
vn 0.00000000 -0.00000000 -0.00000000
vn 0.00000000 0.00000000 0.00000000
vn 0.00000000 -0.00000000 -0.00000000
vn -0.00000000 0.00000000 0.00000000
vn -0.13253903 -0.98949121 -0.05779743
vn -0.13411548 -0.99077694 0.01934167
vn 0.13392974 0.98813232 0.07521532
vn 0.13372977 0.99036070 -0.03608377
vn -0.13623254 -0.99051366 -0.01798287
vn -0.13505261 -0.99078025 0.01073704
vn -0.12880371 -0.99155326 0.01522287
vn 0.13324044 0.99103603 0.00972479
vn -0.14216616 -0.98970337 -0.01661412
vn 0.00000000 0.00000000 0.00000000
vn -0.14491727 -0.98929208 -0.01732542
vn 0.13234380 0.99119854 -0.00325171
vn -0.00000000 -0.00000000 -0.00000000
vn -0.00000000 -0.00000000 0.00000000
vn -0.00000000 0.00000000 -0.00000000
vn 0.15225426 0.98823166 0.01472505
vn -0.15134485 -0.98847107 -0.00443657
vn 0.15102207 0.98850811 0.00663636
vn -0.00000000 -0.00000000 0.00000000
vn 0.00000000 0.00000000 -0.00000000
vn -0.10967117 -0.99385093 0.01525005
vn -0.00000000 -0.00000000 -0.00000000
vn -0.11027520 -0.99389665 0.00297143
vn -0.00000000 0.00000000 -0.00000000
vn 0.00842464 0.09096110 0.99581881
vn -0.11058546 -0.99386612 0.00099742
vn 0.13323676 0.98487027 0.11080847
vn -0.00000000 -0.00000000 0.00000000
vn 0.00000000 0.00000000 0.00000000
vn -0.00000000 -0.00000000 -0.00000000
vn -0.00000000 -0.00000000 -0.00000000
vn 0.11310755 0.99347650 0.01453031
vn -0.11495057 -0.99326796 -0.01432241
vn 0.11926043 0.99280437 0.01079043
vn 0.11289984 0.99334847 0.02263711
vn 0.00000000 0.00000000 -0.00000000
vn -0.11188329 -0.99305560 -0.03636892
vn 0.10457986 0.99383621 0.03677830
vn 0.00000000 0.00000000 -0.00000000
vn 0.11184887 0.99285025 0.04169195
vn -0.13530379 -0.99079601 0.00401795
vn -0.00000000 -0.00000000 -0.00000000
vn -0.13315309 -0.99109236 -0.00248593
vn -0.13405156 -0.99094655 -0.00742354
vn 0.13388935 0.98995283 -0.04546456
vn 0.13394575 0.99094658 -0.00913266
vn 0.13416816 0.99066356 0.02417871
vn 0.13359043 0.98913205 -0.06141167
vn -0.13420429 -0.99060659 0.02622575
vn 0.13398890 0.99082759 0.01754044
vn 0.13666255 0.99027491 0.02605670
vn -0.13387410 -0.99026351 0.03815629
vn 0.12663994 0.99160957 -0.02593800
vn -0.13355495 -0.99100511 0.00848162
vn 0.13663708 0.99054063 0.01263222
vn -0.13636453 -0.99065699 0.00185562
vn -0.00000000 -0.00000000 0.00000000
vn 0.11380044 0.99298868 -0.03198333
vn -0.00000000 -0.00000000 0.00000000
vn 0.13505818 0.99083704 0.00111478
vn 0.00000000 0.00000000 -0.00000000
vn -0.14505142 -0.98937914 -0.00943384
vn -0.00000000 -0.00000000 -0.00000000
vn 0.16640098 0.98576784 0.02392672
vn 0.10440386 0.99432252 -0.02055645
vn -0.12937812 -0.99158135 0.00526522
vn 0.00000000 0.00000000 0.00000000
vn 0.14178573 0.98989511 0.00211583
vn 0.00000000 0.00000000 0.00000000
vn -0.13021931 -0.99148214 -0.00246911
vn 0.00000000 -0.00000000 0.00000000
vn -0.00000000 0.00000000 -0.00000000
vn 0.00000000 0.00000000 -0.00000000
vn -0.00000000 -0.00000000 0.00000000
vn 0.00000000 0.00000000 0.00000000
vn -0.08712828 -0.99619700 0.00045396
vn 0.15550141 0.98783425 -0.00167635
vn 0.09310135 0.99565648 -0.00056630
vn 0.00000000 0.00000000 0.00000000
vn 0.13979664 0.99018014 -0.00043384
vn 0.00000000 0.00000000 -0.00000000
vn -0.00000000 0.00000000 0.00000000
vn 0.00000000 0.00000000 0.00000000
vn 0.15070332 0.98857865 -0.00086844
vn -0.00000000 -0.00000000 0.00000000
vn -0.09205657 -0.99490101 -0.04120161
vn 0.00000000 -0.00000000 -0.00000000
vn -0.14503852 -0.98936633 0.01086734
vn -0.13401547 -0.99097914 -0.00045168
vn -0.00000000 -0.00000000 -0.00000000
vn 0.13390799 0.99099377 -0.00000515
vn -0.00000000 -0.00000000 0.00000000
vn -0.13596453 -0.99064138 0.01197118
vn 0.13935530 0.99001242 -0.02134247
vn 0.00000000 0.00000000 -0.00000000
vn 0.12707154 0.99173109 0.01795167
vn 0.13379346 0.99098381 -0.00709880
vn -0.13312055 -0.99050367 -0.03437152
vn 0.13345095 0.98999109 0.04591835
vn -0.13382872 -0.99094414 0.01093555
vn -0.00000000 -0.00000000 0.00000000
vn 0.00000000 -0.00000000 -0.00000000
vn -0.00000000 -0.00000000 0.00000000
vn 0.00000000 0.00000000 0.00000000
f 1//1 2//2 3//3
f 2//2 1//1 4//4
f 5//5 6//6 7//7
f 5//5 8//8 6//6
f 8//8 3//3 9//9
f 3//3 8//8 5//5
f 10//10 7//7 6//6
f 9//9 7//7 10//10
f 9//9 2//2 7//7
f 2//2 9//9 3//3
f 11//11 12//12 13//13
f 12//12 11//11 14//14
f 15//15 13//13 16//16
f 13//13 15//15 11//11
f 17//17 16//16 18//18
f 16//16 17//17 15//15
f 19//19 18//18 20//20
f 18//18 19//19 17//17
f 21//21 20//20 22//22
f 20//20 21//21 19//19
f 23//23 22//22 24//24
f 22//22 23//23 21//21
f 25//25 24//24 26//26
f 24//24 25//25 23//23
f 27//27 26//26 28//28
f 26//26 27//27 25//25
f 29//29 28//28 30//30
f 28//28 29//29 27//27
f 31//31 30//30 32//32
f 30//30 31//31 29//29
f 33//33 32//32 34//34
f 32//32 33//33 31//31
f 35//35 34//34 36//36
f 34//34 35//35 33//33
f 37//37 36//36 38//38
f 36//36 37//37 35//35
f 39//39 38//38 40//40
f 38//38 39//39 37//37
f 41//41 40//40 42//42
f 40//40 41//41 39//39
f 43//43 42//42 44//44
f 42//42 43//43 41//41
f 45//45 44//44 46//46
f 44//44 45//45 43//43
f 47//47 46//46 48//48
f 46//46 47//47 45//45
f 49//49 48//48 50//50
f 48//48 49//49 47//47
f 51//51 50//50 52//52
f 50//50 51//51 49//49
f 53//53 52//52 54//54
f 52//52 53//53 51//51
f 55//55 54//54 56//56
f 54//54 55//55 53//53
f 57//57 56//56 58//58
f 56//56 57//57 55//55
f 59//59 58//58 60//60
f 58//58 59//59 57//57
f 61//61 60//60 62//62
f 60//60 61//61 59//59
f 63//63 62//62 64//64
f 62//62 63//63 61//61
f 65//65 63//63 64//64
f 63//63 65//65 66//66
f 67//67 66//66 65//65
f 66//66 67//67 68//68
f 69//69 68//68 67//67
f 68//68 69//69 70//70
f 71//71 72//72 73//73
f 72//72 71//71 74//74
f 75//75 74//74 71//71
f 74//74 75//75 76//76
f 77//77 76//76 75//75
f 76//76 77//77 78//78
f 79//79 78//78 77//77
f 78//78 79//79 80//80
f 81//81 80//80 79//79
f 80//80 81//81 82//82
f 83//83 84//84 85//85
f 84//84 83//83 86//86
f 87//87 84//84 88//88
f 84//84 87//87 85//85
f 89//89 88//88 90//90
f 88//88 89//89 87//87
f 91//91 90//90 92//92
f 90//90 91//91 89//89
f 93//93 92//92 94//94
f 92//92 93//93 91//91
f 95//95 94//94 96//96
f 94//94 95//95 93//93
f 97//97 96//96 98//98
f 96//96 97//97 95//95
f 99//99 98//98 100//100
f 98//98 99//99 97//97
f 101//101 100//100 102//102
f 100//100 101//101 99//99
f 103//103 102//102 104//104
f 102//102 103//103 101//101
f 105//105 104//104 106//106
f 104//104 105//105 103//103
f 107//107 106//106 108//108
f 106//106 107//107 105//105
f 109//109 108//108 110//110
f 108//108 109//109 107//107
f 14//14 110//110 12//12
f 110//110 14//14 109//109
f 111//111 70//70 69//69
f 70//70 111//111 112//112
f 82//82 78//78 80//80
f 82//82 76//76 78//78
f 82//82 74//74 76//76
f 82//82 72//72 74//74
f 82//82 113//113 72//72
f 82//82 112//112 113//113
f 82//82 70//70 112//112
f 82//82 68//68 70//70
f 82//82 66//66 68//68
f 82//82 63//63 66//66
f 82//82 61//61 63//63
f 82//82 59//59 61//61
f 82//82 57//57 59//59
f 82//82 55//55 57//57
f 82//82 53//53 55//55
f 82//82 51//51 53//53
f 82//82 49//49 51//51
f 82//82 47//47 49//49
f 82//82 45//45 47//47
f 82//82 43//43 45//45
f 82//82 41//41 43//43
f 82//82 39//39 41//41
f 82//82 37//37 39//39
f 82//82 35//35 37//37
f 82//82 33//33 35//35
f 82//82 31//31 33//33
f 82//82 29//29 31//31
f 82//82 27//27 29//29
f 82//82 25//25 27//27
f 82//82 23//23 25//25
f 82//82 21//21 23//23
f 82//82 19//19 21//21
f 82//82 17//17 19//19
f 82//82 15//15 17//17
f 82//82 11//11 15//15
f 82//82 14//14 11//11
f 82//82 109//109 14//14
f 82//82 107//107 109//109
f 82//82 105//105 107//107
f 82//82 103//103 105//105
f 82//82 101//101 103//103
f 82//82 99//99 101//101
f 82//82 97//97 99//99
f 82//82 95//95 97//97
f 82//82 93//93 95//95
f 82//82 91//91 93//93
f 82//82 89//89 91//91
f 82//82 87//87 89//89
f 83//83 87//87 82//82
f 87//87 83//83 85//85
f 73//73 113//113 114//114
f 113//113 73//73 72//72
f 77//77 81//81 79//79
f 75//75 81//81 77//77
f 71//71 81//81 75//75
f 73//73 81//81 71//71
f 114//114 81//81 73//73
f 111//111 81//81 114//114
f 69//69 81//81 111//111
f 67//67 81//81 69//69
f 65//65 81//81 67//67
f 64//64 81//81 65//65
f 62//62 81//81 64//64
f 60//60 81//81 62//62
f 58//58 81//81 60//60
f 56//56 81//81 58//58
f 54//54 81//81 56//56
f 52//52 81//81 54//54
f 50//50 81//81 52//52
f 48//48 81//81 50//50
f 46//46 81//81 48//48
f 44//44 81//81 46//46
f 42//42 81//81 44//44
f 40//40 81//81 42//42
f 38//38 81//81 40//40
f 36//36 81//81 38//38
f 34//34 81//81 36//36
f 32//32 81//81 34//34
f 30//30 81//81 32//32
f 28//28 81//81 30//30
f 26//26 81//81 28//28
f 24//24 81//81 26//26
f 22//22 81//81 24//24
f 20//20 81//81 22//22
f 18//18 81//81 20//20
f 16//16 81//81 18//18
f 13//13 81//81 16//16
f 12//12 81//81 13//13
f 110//110 81//81 12//12
f 108//108 81//81 110//110
f 106//106 81//81 108//108
f 104//104 81//81 106//106
f 102//102 81//81 104//104
f 100//100 81//81 102//102
f 98//98 81//81 100//100
f 96//96 81//81 98//98
f 94//94 81//81 96//96
f 92//92 81//81 94//94
f 90//90 81//81 92//92
f 88//88 81//81 90//90
f 88//88 86//86 81//81
f 86//86 88//88 84//84
f 114//114 112//112 111//111
f 112//112 114//114 113//113
f 115//115 4//4 1//1
f 4//4 115//115 116//116
f 6//6 117//117 118//118
f 117//117 6//6 8//8
f 119//119 120//120 121//121
f 122//122 121//121 120//120
f 120//120 121//121 122//122
f 121//121 120//120 119//119
f 123//123 119//119 124//124
f 121//121 124//124 119//119
f 119//119 124//124 121//121
f 124//124 119//119 123//123
f 123//123 124//124 125//125
f 126//126 125//125 124//124
f 124//124 125//125 126//126
f 125//125 124//124 123//123
f 125//125 126//126 127//127
f 128//128 127//127 126//126
f 126//126 127//127 128//128
f 127//127 126//126 125//125
f 127//127 128//128 129//129
f 130//130 129//129 128//128
f 128//128 129//129 130//130
f 129//129 128//128 127//127
f 129//129 130//130 131//131
f 132//132 131//131 130//130
f 130//130 131//131 132//132
f 131//131 130//130 129//129
f 131//131 132//132 133//133
f 134//134 133//133 132//132
f 132//132 133//133 134//134
f 133//133 132//132 131//131
f 133//133 134//134 135//135
f 136//136 135//135 134//134
f 134//134 135//135 136//136
f 135//135 134//134 133//133
f 137//137 135//135 138//138
f 136//136 138//138 135//135
f 135//135 138//138 136//136
f 138//138 135//135 137//137
f 139//139 137//137 140//140
f 138//138 140//140 137//137
f 137//137 140//140 138//138
f 140//140 137//137 139//139
f 141//141 142//142 143//143
f 144//144 143//143 142//142
f 142//142 143//143 144//144
f 143//143 142//142 141//141
f 145//145 146//146 141//141
f 142//142 141//141 146//146
f 146//146 141//141 142//142
f 141//141 146//146 145//145
f 147//147 148//148 145//145
f 146//146 145//145 148//148
f 148//148 145//145 146//146
f 145//145 148//148 147//147
f 149//149 150//150 147//147
f 148//148 147//147 150//150
f 150//150 147//147 148//148
f 147//147 150//150 149//149
f 151//151 152//152 149//149
f 150//150 149//149 152//152
f 152//152 149//149 150//150
f 149//149 152//152 151//151
f 153//153 152//152 154//154
f 151//151 154//154 152//152
f 152//152 154//154 151//151
f 154//154 152//152 153//153
f 155//155 153//153 156//156
f 154//154 156//156 153//153
f 153//153 156//156 154//154
f 156//156 153//153 155//155
f 157//157 155//155 158//158
f 156//156 158//158 155//155
f 155//155 158//158 156//156
f 158//158 155//155 157//157
f 120//120 157//157 122//122
f 158//158 122//122 157//157
f 157//157 122//122 158//158
f 122//122 157//157 120//120
f 143//143 144//144 159//159
f 160//160 159//159 144//144
f 144//144 159//159 160//160
f 159//159 144//144 143//143
f 161//161 139//139 162//162
f 140//140 162//162 139//139
f 139//139 162//162 140//140
f 162//162 139//139 161//161
f 158//158 156//156 163//163
f 164//164 163//163 156//156
f 156//156 163//163 164//164
f 163//163 156//156 158//158
f 156//156 154//154 164//164
f 165//165 164//164 154//154
f 154//154 164//164 165//165
f 164//164 154//154 156//156
f 154//154 151//151 165//165
f 166//166 165//165 151//151
f 151//151 165//165 166//166
f 165//165 151//151 154//154
f 166//166 151//151 167//167
f 149//149 167//167 151//151
f 151//151 167//167 149//149
f 167//167 151//151 166//166
f 167//167 149//149 168//168
f 147//147 168//168 149//149
f 149//149 168//168 147//147
f 168//168 149//149 167//167
f 168//168 147//147 169//169
f 145//145 169//169 147//147
f 147//147 169//169 145//145
f 169//169 147//147 168//168
f 169//169 145//145 170//170
f 141//141 170//170 145//145
f 145//145 170//170 141//141
f 170//170 145//145 169//169
f 170//170 141//141 171//171
f 143//143 171//171 141//141
f 141//141 171//171 143//143
f 171//171 141//141 170//170
f 140//140 138//138 172//172
f 173//173 172//172 138//138
f 138//138 172//172 173//173
f 172//172 138//138 140//140
f 138//138 136//136 173//173
f 174//174 173//173 136//136
f 136//136 173//173 174//174
f 173//173 136//136 138//138
f 134//134 175//175 136//136
f 174//174 136//136 175//175
f 175//175 136//136 174//174
f 136//136 175//175 134//134
f 132//132 176//176 134//134
f 175//175 134//134 176//176
f 176//176 134//134 175//175
f 134//134 176//176 132//132
f 130//130 177//177 132//132
f 176//176 132//132 177//177
f 177//177 132//132 176//176
f 132//132 177//177 130//130
f 128//128 178//178 130//130
f 177//177 130//130 178//178
f 178//178 130//130 177//177
f 130//130 178//178 128//128
f 126//126 179//179 128//128
f 178//178 128//128 179//179
f 179//179 128//128 178//178
f 128//128 179//179 126//126
f 124//124 180//180 126//126
f 179//179 126//126 180//180
f 180//180 126//126 179//179
f 126//126 180//180 124//124
f 124//124 121//121 180//180
f 181//181 180//180 121//121
f 121//121 180//180 181//181
f 180//180 121//121 124//124
f 121//121 122//122 181//181
f 182//182 181//181 122//122
f 122//122 181//181 182//182
f 181//181 122//122 121//121
f 122//122 158//158 182//182
f 163//163 182//182 158//158
f 158//158 182//182 163//163
f 182//182 158//158 122//122
f 171//171 143//143 183//183
f 159//159 183//183 143//143
f 143//143 183//183 159//159
f 183//183 143//143 171//171
f 146//146 148//148 142//142
f 144//144 142//142 148//148
f 150//150 144//144 148//148
f 152//152 144//144 150//150
f 160//160 144//144 152//152
f 184//184 160//160 152//152
f 153//153 184//184 152//152
f 185//185 184//184 153//153
f 155//155 185//185 153//153
f 157//157 185//185 155//155
f 161//161 185//185 157//157
f 139//139 161//161 157//157
f 120//120 139//139 157//157
f 119//119 139//139 120//120
f 137//137 139//139 119//119
f 135//135 137//137 119//119
f 123//123 135//135 119//119
f 133//133 135//135 123//123
f 125//125 133//133 123//123
f 131//131 133//133 125//125
f 127//127 131//131 125//125
f 129//129 131//131 127//127
f 127//127 131//131 129//129
f 125//125 131//131 127//127
f 125//125 133//133 131//131
f 123//123 133//133 125//125
f 123//123 135//135 133//133
f 119//119 135//135 123//123
f 119//119 137//137 135//135
f 119//119 139//139 137//137
f 120//120 139//139 119//119
f 157//157 139//139 120//120
f 157//157 161//161 139//139
f 157//157 185//185 161//161
f 155//155 185//185 157//157
f 153//153 185//185 155//155
f 153//153 184//184 185//185
f 152//152 184//184 153//153
f 152//152 160//160 184//184
f 152//152 144//144 160//160
f 150//150 144//144 152//152
f 148//148 144//144 150//150
f 148//148 142//142 144//144
f 142//142 148//148 146//146
f 160//160 184//184 159//159
f 186//186 159//159 184//184
f 184//184 159//159 186//186
f 159//159 184//184 160//160
f 185//185 161//161 187//187
f 162//162 187//187 161//161
f 161//161 187//187 162//162
f 187//187 161//161 185//185
f 162//162 140//140 188//188
f 172//172 188//188 140//140
f 140//140 188//188 172//172
f 188//188 140//140 162//162
f 169//169 170//170 168//168
f 171//171 168//168 170//170
f 167//167 168//168 171//171
f 166//166 167//167 171//171
f 183//183 166//166 171//171
f 189//189 166//166 183//183
f 165//165 166//166 189//189
f 190//190 165//165 189//189
f 164//164 165//165 190//190
f 163//163 164//164 190//190
f 188//188 163//163 190//190
f 182//182 163//163 188//188
f 172//172 182//182 188//188
f 181//181 182//182 172//172
f 173//173 181//181 172//172
f 174//174 181//181 173//173
f 180//180 181//181 174//174
f 179//179 180//180 174//174
f 175//175 179//179 174//174
f 178//178 179//179 175//175
f 176//176 178//178 175//175
f 177//177 178//178 176//176
f 176//176 178//178 177//177
f 175//175 178//178 176//176
f 175//175 179//179 178//178
f 174//174 179//179 175//175
f 174//174 180//180 179//179
f 174//174 181//181 180//180
f 173//173 181//181 174//174
f 172//172 181//181 173//173
f 172//172 182//182 181//181
f 188//188 182//182 172//172
f 188//188 163//163 182//182
f 190//190 163//163 188//188
f 190//190 164//164 163//163
f 190//190 165//165 164//164
f 189//189 165//165 190//190
f 189//189 166//166 165//165
f 183//183 166//166 189//189
f 171//171 166//166 183//183
f 171//171 167//167 166//166
f 171//171 168//168 167//167
f 170//170 168//168 171//171
f 168//168 170//170 169//169
f 159//159 186//186 183//183
f 189//189 183//183 186//186
f 186//186 183//183 189//189
f 183//183 186//186 159//159
f 184//184 185//185 186//186
f 187//187 186//186 185//185
f 185//185 186//186 187//187
f 186//186 185//185 184//184
f 187//187 162//162 190//190
f 188//188 190//190 162//162
f 162//162 190//190 188//188
f 190//190 162//162 187//187
f 186//186 187//187 189//189
f 190//190 189//189 187//187
f 187//187 189//189 190//190
f 189//189 187//187 186//186
f 191//191 192//192 193//193
f 194//194 193//193 192//192
f 195//195 193//193 194//194
f 196//196 195//195 194//194
f 197//197 196//196 194//194
f 198//198 196//196 197//197
f 199//199 198//198 197//197
f 200//200 198//198 199//199
f 201//201 198//198 200//200
f 202//202 201//201 200//200
f 203//203 201//201 202//202
f 204//204 203//203 202//202
f 205//205 203//203 204//204
f 206//206 205//205 204//204
f 207//207 205//205 206//206
f 208//208 207//207 206//206
f 209//209 208//208 206//206
f 210//210 208//208 209//209
f 211//211 208//208 210//210
f 212//212 211//211 210//210
f 213//213 212//212 210//210
f 214//214 212//212 213//213
f 213//213 212//212 214//214
f 210//210 212//212 213//213
f 210//210 211//211 212//212
f 210//210 208//208 211//211
f 209//209 208//208 210//210
f 206//206 208//208 209//209
f 206//206 207//207 208//208
f 206//206 205//205 207//207
f 204//204 205//205 206//206
f 204//204 203//203 205//205
f 202//202 203//203 204//204
f 202//202 201//201 203//203
f 200//200 201//201 202//202
f 200//200 198//198 201//201
f 199//199 198//198 200//200
f 197//197 198//198 199//199
f 197//197 196//196 198//198
f 194//194 196//196 197//197
f 194//194 195//195 196//196
f 194//194 193//193 195//195
f 192//192 193//193 194//194
f 193//193 192//192 191//191
f 215//215 216//216 204//204
f 206//206 204//204 216//216
f 216//216 204//204 206//206
f 204//204 216//216 215//215
f 217//217 215//215 202//202
f 204//204 202//202 215//215
f 215//215 202//202 204//204
f 202//202 215//215 217//217
f 218//218 217//217 200//200
f 202//202 200//200 217//217
f 217//217 200//200 202//202
f 200//200 217//217 218//218
f 219//219 218//218 199//199
f 200//200 199//199 218//218
f 218//218 199//199 200//200
f 199//199 218//218 219//219
f 220//220 219//219 197//197
f 199//199 197//197 219//219
f 219//219 197//197 199//199
f 197//197 219//219 220//220
f 194//194 221//221 197//197
f 220//220 197//197 221//221
f 221//221 197//197 220//220
f 197//197 221//221 194//194
f 192//192 222//222 194//194
f 221//221 194//194 222//222
f 222//222 194//194 221//221
f 194//194 222//222 192//192
f 191//191 223//223 192//192
f 222//222 192//192 223//223
f 223//223 192//192 222//222
f 192//192 223//223 191//191
f 193//193 224//224 191//191
f 223//223 191//191 224//224
f 224//224 191//191 223//223
f 191//191 224//224 193//193
f 195//195 225//225 193//193
f 224//224 193//193 225//225
f 225//225 193//193 224//224
f 193//193 225//225 195//195
f 196//196 226//226 195//195
f 225//225 195//195 226//226
f 226//226 195//195 225//225
f 195//195 226//226 196//196
f 227//227 226//226 198//198
f 196//196 198//198 226//226
f 226//226 198//198 196//196
f 198//198 226//226 227//227
f 228//228 227//227 201//201
f 198//198 201//201 227//227
f 227//227 201//201 198//198
f 201//201 227//227 228//228
f 229//229 228//228 203//203
f 201//201 203//203 228//228
f 228//228 203//203 201//201
f 203//203 228//228 229//229
f 230//230 229//229 205//205
f 203//203 205//205 229//229
f 229//229 205//205 203//203
f 205//205 229//229 230//230
f 231//231 230//230 207//207
f 205//205 207//207 230//230
f 230//230 207//207 205//205
f 207//207 230//230 231//231
f 232//232 231//231 208//208
f 207//207 208//208 231//231
f 231//231 208//208 207//207
f 208//208 231//231 232//232
f 232//232 208//208 233//233
f 211//211 233//233 208//208
f 208//208 233//233 211//211
f 233//233 208//208 232//232
f 233//233 211//211 234//234
f 212//212 234//234 211//211
f 211//211 234//234 212//212
f 234//234 211//211 233//233
f 234//234 212//212 235//235
f 214//214 235//235 212//212
f 212//212 235//235 214//214
f 235//235 212//212 234//234
f 235//235 214//214 236//236
f 213//213 236//236 214//214
f 214//214 236//236 213//213
f 236//236 214//214 235//235
f 236//236 213//213 237//237
f 210//210 237//237 213//213
f 213//213 237//237 210//210
f 237//237 213//213 236//236
f 237//237 210//210 238//238
f 209//209 238//238 210//210
f 210//210 238//238 209//209
f 238//238 210//210 237//237
f 216//216 238//238 206//206
f 209//209 206//206 238//238
f 238//238 206//206 209//209
f 206//206 238//238 216//216
f 223//223 224//224 222//222
f 221//221 222//222 224//224
f 225//225 221//221 224//224
f 146//146 221//221 225//225
f 142//142 221//221 146//146
f 220//220 221//221 142//142
f 144//144 220//220 142//142
f 160//160 220//220 144//144
f 219//219 220//220 160//160
f 184//184 219//219 160//160
f 218//218 219//219 184//184
f 185//185 218//218 184//184
f 217//217 218//218 185//185
f 161//161 217//217 185//185
f 215//215 217//217 161//161
f 139//139 215//215 161//161
f 137//137 215//215 139//139
f 216//216 215//215 137//137
f 135//135 216//216 137//137
f 238//238 216//216 135//135
f 133//133 238//238 135//135
f 237//237 238//238 133//133
f 131//131 237//237 133//133
f 129//129 237//237 131//131
f 233//233 237//237 129//129
f 234//234 237//237 233//233
f 236//236 237//237 234//234
f 235//235 236//236 234//234
f 226//226 148//148 225//225
f 146//146 225//225 148//148
f 150//150 148//148 226//226
f 152//152 150//150 226//226
f 227//227 152//152 226//226
f 153//153 152//152 227//227
f 228//228 153//153 227//227
f 155//155 153//153 228//228
f 229//229 155//155 228//228
f 157//157 155//155 229//229
f 230//230 157//157 229//229
f 120//120 157//157 230//230
f 119//119 120//120 230//230
f 231//231 119//119 230//230
f 123//123 119//119 231//231
f 232//232 123//123 231//231
f 125//125 123//123 232//232
f 233//233 125//125 232//232
f 127//127 125//125 233//233
f 129//129 127//127 233//233
f 233//233 127//127 129//129
f 233//233 125//125 127//127
f 232//232 125//125 233//233
f 232//232 123//123 125//125
f 231//231 123//123 232//232
f 231//231 119//119 123//123
f 230//230 119//119 231//231
f 230//230 120//120 119//119
f 230//230 157//157 120//120
f 229//229 157//157 230//230
f 229//229 155//155 157//157
f 228//228 155//155 229//229
f 228//228 153//153 155//155
f 227//227 153//153 228//228
f 227//227 152//152 153//153
f 226//226 152//152 227//227
f 226//226 150//150 152//152
f 226//226 148//148 150//150
f 148//148 225//225 146//146
f 225//225 148//148 226//226
f 234//234 236//236 235//235
f 234//234 237//237 236//236
f 233//233 237//237 234//234
f 129//129 237//237 233//233
f 131//131 237//237 129//129
f 133//133 237//237 131//131
f 133//133 238//238 237//237
f 135//135 238//238 133//133
f 135//135 216//216 238//238
f 137//137 216//216 135//135
f 137//137 215//215 216//216
f 139//139 215//215 137//137
f 161//161 215//215 139//139
f 161//161 217//217 215//215
f 185//185 217//217 161//161
f 185//185 218//218 217//217
f 184//184 218//218 185//185
f 184//184 219//219 218//218
f 160//160 219//219 184//184
f 160//160 220//220 219//219
f 144//144 220//220 160//160
f 142//142 220//220 144//144
f 142//142 221//221 220//220
f 146//146 221//221 142//142
f 225//225 221//221 146//146
f 224//224 221//221 225//225
f 224//224 222//222 221//221
f 222//222 224//224 223//223
f 239//239 240//240 241//241
f 241//241 240//240 239//239
f 242//242 243//243 240//240
f 240//240 243//243 242//242
f 244//244 245//245 243//243
f 243//243 245//245 244//244
f 246//246 247//247 245//245
f 245//245 247//247 246//246
f 248//248 249//249 247//247
f 247//247 249//249 248//248
f 250//250 251//251 249//249
f 249//249 251//251 250//250
f 252//252 253//253 251//251
f 251//251 253//253 252//252
f 254//254 255//255 256//256
f 256//256 255//255 254//254
f 257//257 258//258 255//255
f 255//255 258//258 257//257
f 259//259 241//241 258//258
f 258//258 241//241 259//259
f 260//260 261//261 262//262
f 262//262 261//261 260//260
f 263//263 264//264 260//260
f 260//260 264//264 263//263
f 265//265 266//266 263//263
f 263//263 266//266 265//265
f 267//267 268//268 265//265
f 265//265 268//268 267//267
f 269//269 270//270 267//267
f 267//267 270//270 269//269
f 271//271 272//272 269//269
f 269//269 272//272 271//271
f 273//273 274//274 271//271
f 271//271 274//274 273//273
f 275//275 276//276 273//273
f 273//273 276//276 275//275
f 277//277 278//278 275//275
f 275//275 278//278 277//277
f 279//279 280//280 277//277
f 277//277 280//280 279//279
f 281//281 282//282 279//279
f 279//279 282//282 281//281
f 283//283 284//284 253//253
f 253//253 284//284 283//283
f 252//252 283//283 253//253
f 253//253 283//283 252//252
f 250//250 252//252 251//251
f 251//251 252//252 250//250
f 248//248 250//250 249//249
f 249//249 250//250 248//248
f 246//246 248//248 247//247
f 247//247 248//248 246//246
f 244//244 246//246 245//245
f 245//245 246//246 244//244
f 242//242 244//244 243//243
f 243//243 244//244 242//242
f 239//239 242//242 240//240
f 240//240 242//242 239//239
f 259//259 239//239 241//241
f 241//241 239//239 259//259
f 257//257 259//259 258//258
f 258//258 259//259 257//257
f 254//254 257//257 255//255
f 255//255 257//257 254//254
f 285//285 254//254 256//256
f 256//256 254//254 285//285
f 286//286 285//285 287//287
f 256//256 287//287 285//285
f 285//285 287//287 256//256
f 287//287 285//285 286//286
f 288//288 281//281 284//284
f 279//279 284//284 281//281
f 253//253 284//284 279//279
f 277//277 253//253 279//279
f 251//251 253//253 277//277
f 275//275 251//251 277//277
f 249//249 251//251 275//275
f 273//273 249//249 275//275
f 247//247 249//249 273//273
f 271//271 247//247 273//273
f 245//245 247//247 271//271
f 269//269 245//245 271//271
f 243//243 245//245 269//269
f 267//267 243//243 269//269
f 240//240 243//243 267//267
f 265//265 240//240 267//267
f 241//241 240//240 265//265
f 263//263 241//241 265//265
f 258//258 241//241 263//263
f 260//260 258//258 263//263
f 255//255 258//258 260//260
f 262//262 255//255 260//260
f 256//256 255//255 262//262
f 289//289 256//256 262//262
f 287//287 256//256 289//289
f 289//289 256//256 287//287
f 262//262 256//256 289//289
f 262//262 255//255 256//256
f 260//260 255//255 262//262
f 260//260 258//258 255//255
f 263//263 258//258 260//260
f 263//263 241//241 258//258
f 265//265 241//241 263//263
f 265//265 240//240 241//241
f 267//267 240//240 265//265
f 267//267 243//243 240//240
f 269//269 243//243 267//267
f 269//269 245//245 243//243
f 271//271 245//245 269//269
f 271//271 247//247 245//245
f 273//273 247//247 271//271
f 273//273 249//249 247//247
f 275//275 249//249 273//273
f 275//275 251//251 249//249
f 277//277 251//251 275//275
f 277//277 253//253 251//251
f 279//279 253//253 277//277
f 279//279 284//284 253//253
f 281//281 284//284 279//279
f 284//284 281//281 288//288
f 261//261 290//290 262//262
f 289//289 262//262 290//290
f 290//290 262//262 289//289
f 262//262 290//290 261//261
f 264//264 261//261 260//260
f 260//260 261//261 264//264
f 266//266 264//264 263//263
f 263//263 264//264 266//266
f 268//268 266//266 265//265
f 265//265 266//266 268//268
f 270//270 268//268 267//267
f 267//267 268//268 270//270
f 272//272 270//270 269//269
f 269//269 270//270 272//272
f 274//274 272//272 271//271
f 271//271 272//272 274//274
f 276//276 274//274 273//273
f 273//273 274//274 276//276
f 278//278 276//276 275//275
f 275//275 276//276 278//278
f 280//280 278//278 277//277
f 277//277 278//278 280//280
f 282//282 280//280 279//279
f 279//279 280//280 282//282
f 291//291 282//282 281//281
f 281//281 282//282 291//291
f 292//292 291//291 288//288
f 281//281 288//288 291//291
f 291//291 288//288 281//281
f 288//288 291//291 292//292
f 292//292 288//288 283//283
f 284//284 283//283 288//288
f 288//288 283//283 284//284
f 283//283 288//288 292//292
f 252//252 293//293 283//283
f 294//294 283//283 293//293
f 293//293 283//283 294//294
f 283//283 293//293 252//252
f 250//250 295//295 252//252
f 293//293 252//252 295//295
f 295//295 252//252 293//293
f 252//252 295//295 250//250
f 248//248 296//296 250//250
f 295//295 250//250 296//296
f 296//296 250//250 295//295
f 250//250 296//296 248//248
f 246//246 297//297 248//248
f 296//296 248//248 297//297
f 297//297 248//248 296//296
f 248//248 297//297 246//246
f 244//244 298//298 246//246
f 297//297 246//246 298//298
f 298//298 246//246 297//297
f 246//246 298//298 244//244
f 242//242 299//299 244//244
f 298//298 244//244 299//299
f 299//299 244//244 298//298
f 244//244 299//299 242//242
f 239//239 300//300 242//242
f 299//299 242//242 300//300
f 300//300 242//242 299//299
f 242//242 300//300 239//239
f 259//259 301//301 239//239
f 300//300 239//239 301//301
f 301//301 239//239 300//300
f 239//239 301//301 259//259
f 257//257 302//302 259//259
f 301//301 259//259 302//302
f 302//302 259//259 301//301
f 259//259 302//302 257//257
f 254//254 303//303 257//257
f 302//302 257//257 303//303
f 303//303 257//257 302//302
f 257//257 303//303 254//254
f 285//285 304//304 254//254
f 303//303 254//254 304//304
f 304//304 254//254 303//303
f 254//254 304//304 285//285
f 304//304 285//285 305//305
f 286//286 305//305 285//285
f 285//285 305//305 286//286
f 305//305 285//285 304//304
f 305//305 286//286 306//306
f 287//287 306//306 286//286
f 289//289 306//306 287//287
f 290//290 306//306 289//289
f 289//289 306//306 290//290
f 287//287 306//306 289//289
f 286//286 306//306 287//287
f 306//306 286//286 305//305
f 307//307 306//306 261//261
f 290//290 261//261 306//306
f 306//306 261//261 290//290
f 261//261 306//306 307//307
f 264//264 308//308 261//261
f 307//307 261//261 308//308
f 308//308 261//261 307//307
f 261//261 308//308 264//264
f 266//266 309//309 264//264
f 308//308 264//264 309//309
f 309//309 264//264 308//308
f 264//264 309//309 266//266
f 268//268 310//310 266//266
f 309//309 266//266 310//310
f 310//310 266//266 309//309
f 266//266 310//310 268//268
f 270//270 311//311 268//268
f 310//310 268//268 311//311
f 311//311 268//268 310//310
f 268//268 311//311 270//270
f 272//272 312//312 270//270
f 311//311 270//270 312//312
f 312//312 270//270 311//311
f 270//270 312//312 272//272
f 274//274 313//313 272//272
f 312//312 272//272 313//313
f 313//313 272//272 312//312
f 272//272 313//313 274//274
f 276//276 314//314 274//274
f 313//313 274//274 314//314
f 314//314 274//274 313//313
f 274//274 314//314 276//276
f 278//278 315//315 276//276
f 314//314 276//276 315//315
f 315//315 276//276 314//314
f 276//276 315//315 278//278
f 280//280 316//316 278//278
f 315//315 278//278 316//316
f 316//316 278//278 315//315
f 278//278 316//316 280//280
f 282//282 317//317 280//280
f 316//316 280//280 317//317
f 317//317 280//280 316//316
f 280//280 317//317 282//282
f 291//291 318//318 282//282
f 317//317 282//282 318//318
f 318//318 282//282 317//317
f 282//282 318//318 291//291
f 292//292 319//319 291//291
f 318//318 291//291 319//319
f 319//319 291//291 318//318
f 291//291 319//319 292//292
f 283//283 294//294 292//292
f 319//319 292//292 294//294
f 294//294 292//292 319//319
f 292//292 294//294 283//283
f 319//319 294//294 318//318
f 317//317 318//318 294//294
f 293//293 317//317 294//294
f 316//316 317//317 293//293
f 295//295 316//316 293//293
f 315//315 316//316 295//295
f 296//296 315//315 295//295
f 314//314 315//315 296//296
f 297//297 314//314 296//296
f 313//313 314//314 297//297
f 298//298 313//313 297//297
f 312//312 313//313 298//298
f 299//299 312//312 298//298
f 311//311 312//312 299//299
f 300//300 311//311 299//299
f 310//310 311//311 300//300
f 301//301 310//310 300//300
f 309//309 310//310 301//301
f 302//302 309//309 301//301
f 308//308 309//309 302//302
f 303//303 308//308 302//302
f 307//307 308//308 303//303
f 304//304 307//307 303//303
f 306//306 307//307 304//304
f 305//305 306//306 304//304
f 304//304 306//306 305//305
f 304//304 307//307 306//306
f 303//303 307//307 304//304
f 303//303 308//308 307//307
f 302//302 308//308 303//303
f 302//302 309//309 308//308
f 301//301 309//309 302//302
f 301//301 310//310 309//309
f 300//300 310//310 301//301
f 300//300 311//311 310//310
f 299//299 311//311 300//300
f 299//299 312//312 311//311
f 298//298 312//312 299//299
f 298//298 313//313 312//312
f 297//297 313//313 298//298
f 297//297 314//314 313//313
f 296//296 314//314 297//297
f 296//296 315//315 314//314
f 295//295 315//315 296//296
f 295//295 316//316 315//315
f 293//293 316//316 295//295
f 293//293 317//317 316//316
f 294//294 317//317 293//293
f 294//294 318//318 317//317
f 318//318 294//294 319//319
f 320//320 321//321 322//322
f 322//322 321//321 320//320
f 321//321 323//323 324//324
f 324//324 323//323 321//321
f 323//323 325//325 326//326
f 326//326 325//325 323//323
f 325//325 327//327 328//328
f 328//328 327//327 325//325
f 327//327 329//329 330//330
f 330//330 329//329 327//327
f 329//329 331//331 332//332
f 332//332 331//331 329//329
f 331//331 333//333 334//334
f 334//334 333//333 331//331
f 335//335 336//336 337//337
f 337//337 336//336 335//335
f 336//336 338//338 339//339
f 339//339 338//338 336//336
f 338//338 320//320 340//340
f 340//340 320//320 338//338
f 341//341 342//342 343//343
f 343//343 342//342 341//341
f 343//343 344//344 345//345
f 345//345 344//344 343//343
f 345//345 346//346 347//347
f 347//347 346//346 345//345
f 347//347 348//348 349//349
f 349//349 348//348 347//347
f 349//349 350//350 351//351
f 351//351 350//350 349//349
f 351//351 352//352 353//353
f 353//353 352//352 351//351
f 353//353 354//354 355//355
f 355//355 354//354 353//353
f 355//355 356//356 357//357
f 357//357 356//356 355//355
f 357//357 358//358 359//359
f 359//359 358//358 357//357
f 359//359 360//360 361//361
f 361//361 360//360 359//359
f 361//361 362//362 363//363
f 363//363 362//362 361//361
f 333//333 364//364 365//365
f 365//365 364//364 333//333
f 333//333 365//365 334//334
f 334//334 365//365 333//333
f 331//331 334//334 332//332
f 332//332 334//334 331//331
f 329//329 332//332 330//330
f 330//330 332//332 329//329
f 327//327 330//330 328//328
f 328//328 330//330 327//327
f 325//325 328//328 326//326
f 326//326 328//328 325//325
f 323//323 326//326 324//324
f 324//324 326//326 323//323
f 321//321 324//324 322//322
f 322//322 324//324 321//321
f 320//320 322//322 340//340
f 340//340 322//322 320//320
f 338//338 340//340 339//339
f 339//339 340//340 338//338
f 336//336 339//339 337//337
f 337//337 339//339 336//336
f 335//335 337//337 366//366
f 366//366 337//337 335//335
f 366//366 287//287 335//335
f 287//287 366//366 286//286
f 286//286 366//366 287//287
f 335//335 287//287 366//366
f 289//289 335//335 287//287
f 341//341 335//335 289//289
f 341//341 336//336 335//335
f 343//343 336//336 341//341
f 343//343 338//338 336//336
f 345//345 338//338 343//343
f 345//345 320//320 338//338
f 347//347 320//320 345//345
f 347//347 321//321 320//320
f 349//349 321//321 347//347
f 349//349 323//323 321//321
f 351//351 323//323 349//349
f 351//351 325//325 323//323
f 353//353 325//325 351//351
f 353//353 327//327 325//325
f 355//355 327//327 353//353
f 355//355 329//329 327//327
f 357//357 329//329 355//355
f 357//357 331//331 329//329
f 359//359 331//331 357//357
f 359//359 333//333 331//331
f 361//361 333//333 359//359
f 361//361 364//364 333//333
f 363//363 364//364 361//361
f 364//364 363//363 367//367
f 367//367 363//363 364//364
f 361//361 364//364 363//363
f 333//333 364//364 361//361
f 359//359 333//333 361//361
f 331//331 333//333 359//359
f 357//357 331//331 359//359
f 329//329 331//331 357//357
f 355//355 329//329 357//357
f 327//327 329//329 355//355
f 353//353 327//327 355//355
f 325//325 327//327 353//353
f 351//351 325//325 353//353
f 323//323 325//325 351//351
f 349//349 323//323 351//351
f 321//321 323//323 349//349
f 347//347 321//321 349//349
f 320//320 321//321 347//347
f 345//345 320//320 347//347
f 338//338 320//320 345//345
f 343//343 338//338 345//345
f 336//336 338//338 343//343
f 341//341 336//336 343//343
f 335//335 336//336 341//341
f 289//289 335//335 341//341
f 287//287 335//335 289//289
f 290//290 341//341 289//289
f 341//341 290//290 342//342
f 342//342 290//290 341//341
f 289//289 341//341 290//290
f 343//343 342//342 344//344
f 344//344 342//342 343//343
f 345//345 344//344 346//346
f 346//346 344//344 345//345
f 347//347 346//346 348//348
f 348//348 346//346 347//347
f 349//349 348//348 350//350
f 350//350 348//348 349//349
f 351//351 350//350 352//352
f 352//352 350//350 351//351
f 353//353 352//352 354//354
f 354//354 352//352 353//353
f 355//355 354//354 356//356
f 356//356 354//354 355//355
f 357//357 356//356 358//358
f 358//358 356//356 357//357
f 359//359 358//358 360//360
f 360//360 358//358 359//359
f 361//361 360//360 362//362
f 362//362 360//360 361//361
f 363//363 362//362 368//368
f 368//368 362//362 363//363
f 368//368 367//367 363//363
f 367//367 368//368 369//369
f 369//369 368//368 367//367
f 363//363 367//367 368//368
f 367//367 365//365 364//364
f 365//365 367//367 369//369
f 369//369 367//367 365//365
f 364//364 365//365 367//367
f 370//370 365//365 371//371
f 365//365 370//370 334//334
f 334//334 370//370 365//365
f 371//371 365//365 370//370
f 372//372 334//334 370//370
f 334//334 372//372 332//332
f 332//332 372//372 334//334
f 370//370 334//334 372//372
f 373//373 332//332 372//372
f 332//332 373//373 330//330
f 330//330 373//373 332//332
f 372//372 332//332 373//373
f 374//374 330//330 373//373
f 330//330 374//374 328//328
f 328//328 374//374 330//330
f 373//373 330//330 374//374
f 375//375 328//328 374//374
f 328//328 375//375 326//326
f 326//326 375//375 328//328
f 374//374 328//328 375//375
f 376//376 326//326 375//375
f 326//326 376//376 324//324
f 324//324 376//376 326//326
f 375//375 326//326 376//376
f 377//377 324//324 376//376
f 324//324 377//377 322//322
f 322//322 377//377 324//324
f 376//376 324//324 377//377
f 378//378 322//322 377//377
f 322//322 378//378 340//340
f 340//340 378//378 322//322
f 377//377 322//322 378//378
f 379//379 340//340 378//378
f 340//340 379//379 339//339
f 339//339 379//379 340//340
f 378//378 340//340 379//379
f 380//380 339//339 379//379
f 339//339 380//380 337//337
f 337//337 380//380 339//339
f 379//379 339//339 380//380
f 381//381 337//337 380//380
f 337//337 381//381 366//366
f 366//366 381//381 337//337
f 380//380 337//337 381//381
f 366//366 305//305 286//286
f 305//305 366//366 381//381
f 381//381 366//366 305//305
f 286//286 305//305 366//366
f 289//289 306//306 290//290
f 287//287 306//306 289//289
f 286//286 306//306 287//287
f 306//306 286//286 305//305
f 305//305 286//286 306//306
f 287//287 306//306 286//286
f 289//289 306//306 287//287
f 290//290 306//306 289//289
f 306//306 342//342 290//290
f 342//342 306//306 382//382
f 382//382 306//306 342//342
f 290//290 342//342 306//306
f 383//383 342//342 382//382
f 342//342 383//383 344//344
f 344//344 383//383 342//342
f 382//382 342//342 383//383
f 384//384 344//344 383//383
f 344//344 384//384 346//346
f 346//346 384//384 344//344
f 383//383 344//344 384//384
f 385//385 346//346 384//384
f 346//346 385//385 348//348
f 348//348 385//385 346//346
f 384//384 346//346 385//385
f 386//386 348//348 385//385
f 348//348 386//386 350//350
f 350//350 386//386 348//348
f 385//385 348//348 386//386
f 387//387 350//350 386//386
f 350//350 387//387 352//352
f 352//352 387//387 350//350
f 386//386 350//350 387//387
f 388//388 352//352 387//387
f 352//352 388//388 354//354
f 354//354 388//388 352//352
f 387//387 352//352 388//388
f 389//389 354//354 388//388
f 354//354 389//389 356//356
f 356//356 389//389 354//354
f 388//388 354//354 389//389
f 390//390 356//356 389//389
f 356//356 390//390 358//358
f 358//358 390//390 356//356
f 389//389 356//356 390//390
f 391//391 358//358 390//390
f 358//358 391//391 360//360
f 360//360 391//391 358//358
f 390//390 358//358 391//391
f 392//392 360//360 391//391
f 360//360 392//392 362//362
f 362//362 392//392 360//360
f 391//391 360//360 392//392
f 393//393 362//362 392//392
f 362//362 393//393 368//368
f 368//368 393//393 362//362
f 392//392 362//362 393//393
f 394//394 368//368 393//393
f 368//368 394//394 369//369
f 369//369 394//394 368//368
f 393//393 368//368 394//394
f 371//371 369//369 394//394
f 369//369 371//371 365//365
f 365//365 371//371 369//369
f 394//394 369//369 371//371
f 381//381 306//306 305//305
f 381//381 382//382 306//306
f 380//380 382//382 381//381
f 380//380 383//383 382//382
f 379//379 383//383 380//380
f 379//379 384//384 383//383
f 378//378 384//384 379//379
f 378//378 385//385 384//384
f 377//377 385//385 378//378
f 377//377 386//386 385//385
f 376//376 386//386 377//377
f 376//376 387//387 386//386
f 375//375 387//387 376//376
f 375//375 388//388 387//387
f 374//374 388//388 375//375
f 374//374 389//389 388//388
f 373//373 389//389 374//374
f 373//373 390//390 389//389
f 372//372 390//390 373//373
f 372//372 391//391 390//390
f 370//370 391//391 372//372
f 370//370 392//392 391//391
f 371//371 392//392 370//370
f 371//371 393//393 392//392
f 393//393 371//371 394//394
f 394//394 371//371 393//393
f 392//392 393//393 371//371
f 370//370 392//392 371//371
f 391//391 392//392 370//370
f 372//372 391//391 370//370
f 390//390 391//391 372//372
f 373//373 390//390 372//372
f 389//389 390//390 373//373
f 374//374 389//389 373//373
f 388//388 389//389 374//374
f 375//375 388//388 374//374
f 387//387 388//388 375//375
f 376//376 387//387 375//375
f 386//386 387//387 376//376
f 377//377 386//386 376//376
f 385//385 386//386 377//377
f 378//378 385//385 377//377
f 384//384 385//385 378//378
f 379//379 384//384 378//378
f 383//383 384//384 379//379
f 380//380 383//383 379//379
f 382//382 383//383 380//380
f 381//381 382//382 380//380
f 306//306 382//382 381//381
f 305//305 306//306 381//381
f 10//10 118//118 395//395
f 118//118 10//10 6//6
f 9//9 395//395 396//396
f 395//395 9//9 10//10
f 117//117 395//395 118//118
f 395//395 117//117 396//396
f 397//397 398//398 399//399
f 400//400 399//399 398//398
f 401//401 402//402 397//397
f 398//398 397//397 402//402
f 403//403 404//404 401//401
f 402//402 401//401 404//404
f 405//405 404//404 406//406
f 403//403 406//406 404//404
f 407//407 408//408 406//406
f 405//405 406//406 408//408
f 409//409 410//410 407//407
f 408//408 407//407 410//410
f 411//411 410//410 412//412
f 409//409 412//412 410//410
f 413//413 411//411 414//414
f 412//412 414//414 411//411
f 415//415 413//413 416//416
f 414//414 416//416 413//413
f 417//417 415//415 418//418
f 416//416 418//418 415//415
f 419//419 417//417 420//420
f 418//418 420//420 417//417
f 421//421 419//419 422//422
f 420//420 422//422 419//419
f 423//423 421//421 424//424
f 422//422 424//424 421//421
f 425//425 426//426 427//427
f 428//428 427//427 426//426
f 429//429 425//425 430//430
f 427//427 430//430 425//425
f 431//431 429//429 432//432
f 430//430 432//432 429//429
f 431//431 432//432 433//433
f 434//434 433//433 432//432
f 434//434 435//435 433//433
f 436//436 433//433 435//435
f 436//436 435//435 437//437
f 438//438 437//437 435//435
f 437//437 438//438 439//439
f 440//440 439//439 438//438
f 439//439 440//440 441//441
f 442//442 441//441 440//440
f 441//441 442//442 443//443
f 444//444 443//443 442//442
f 443//443 444//444 445//445
f 446//446 445//445 444//444
f 445//445 446//446 447//447
f 448//448 447//447 446//446
f 447//447 448//448 449//449
f 450//450 449//449 448//448
f 450//450 451//451 449//449
f 452//452 449//449 451//451
f 452//452 451//451 453//453
f 454//454 453//453 451//451
f 453//453 454//454 455//455
f 456//456 455//455 454//454
f 455//455 456//456 457//457
f 458//458 457//457 456//456
f 457//457 458//458 459//459
f 460//460 459//459 458//458
f 461//461 459//459 462//462
f 460//460 462//462 459//459
f 463//463 461//461 464//464
f 462//462 464//464 461//461
f 465//465 463//463 466//466
f 464//464 466//466 463//463
f 465//465 466//466 467//467
f 468//468 467//467 466//466
f 469//469 467//467 470//470
f 468//468 470//470 467//467
f 471//471 469//469 472//472
f 470//470 472//472 469//469
f 471//471 472//472 473//473
f 474//474 473//473 472//472
f 475//475 473//473 476//476
f 474//474 476//476 473//473
f 477//477 475//475 478//478
f 476//476 478//478 475//475
f 479//479 477//477 480//480
f 478//478 480//480 477//477
f 479//479 480//480 481//481
f 482//482 481//481 480//480
f 483//483 481//481 484//484
f 482//482 484//484 481//481
f 485//485 486//486 484//484
f 483//483 484//484 486//486
f 487//487 488//488 485//485
f 486//486 485//485 488//488
f 489//489 490//490 487//487
f 488//488 487//487 490//490
f 491//491 492//492 489//489
f 490//490 489//489 492//492
f 493//493 494//494 491//491
f 492//492 491//491 494//494
f 495//495 494//494 496//496
f 493//493 496//496 494//494
f 399//399 400//400 496//496
f 495//495 496//496 400//400
f 497//497 423//423 498//498
f 424//424 498//498 423//423
f 399//399 496//496 397//397
f 493//493 397//397 496//496
f 401//401 397//397 493//493
f 491//491 401//401 493//493
f 403//403 401//401 491//491
f 489//489 403//403 491//491
f 406//406 403//403 489//489
f 487//487 406//406 489//489
f 407//407 406//406 487//487
f 485//485 407//407 487//487
f 409//409 407//407 485//485
f 484//484 409//409 485//485
f 412//412 409//409 484//484
f 482//482 412//412 484//484
f 414//414 412//412 482//482
f 480//480 414//414 482//482
f 416//416 414//414 480//480
f 478//478 416//416 480//480
f 418//418 416//416 478//478
f 476//476 418//418 478//478
f 83//83 418//418 476//476
f 420//420 418//418 83//83
f 86//86 420//420 83//83
f 422//422 420//420 86//86
f 424//424 422//422 86//86
f 498//498 424//424 86//86
f 499//499 498//498 86//86
f 81//81 499//499 86//86
f 474//474 82//82 476//476
f 83//83 476//476 82//82
f 81//81 82//82 474//474
f 472//472 81//81 474//474
f 470//470 81//81 472//472
f 468//468 81//81 470//470
f 466//466 81//81 468//468
f 499//499 81//81 466//466
f 428//428 499//499 466//466
f 464//464 428//428 466//466
f 427//427 428//428 464//464
f 462//462 427//427 464//464
f 430//430 427//427 462//462
f 460//460 430//430 462//462
f 432//432 430//430 460//460
f 458//458 432//432 460//460
f 434//434 432//432 458//458
f 456//456 434//434 458//458
f 435//435 434//434 456//456
f 454//454 435//435 456//456
f 438//438 435//435 454//454
f 451//451 438//438 454//454
f 440//440 438//438 451//451
f 450//450 440//440 451//451
f 442//442 440//440 450//450
f 448//448 442//442 450//450
f 444//444 442//442 448//448
f 446//446 444//444 448//448
f 426//426 500//500 428//428
f 499//499 428//428 500//500
f 471//471 116//116 469//469
f 4//4 469//469 116//116
f 2//2 469//469 4//4
f 7//7 469//469 2//2
f 467//467 469//469 7//7
f 5//5 467//467 7//7
f 423//423 467//467 5//5
f 497//497 467//467 423//423
f 465//465 467//467 497//497
f 500//500 465//465 497//497
f 426//426 465//465 500//500
f 463//463 465//465 426//426
f 425//425 463//463 426//426
f 461//461 463//463 425//425
f 459//459 461//461 425//425
f 429//429 459//459 425//425
f 457//457 459//459 429//429
f 431//431 457//457 429//429
f 455//455 457//457 431//431
f 433//433 455//455 431//431
f 453//453 455//455 433//433
f 436//436 453//453 433//433
f 437//437 453//453 436//436
f 452//452 453//453 437//437
f 449//449 452//452 437//437
f 439//439 449//449 437//437
f 447//447 449//449 439//439
f 441//441 447//447 439//439
f 445//445 447//447 441//441
f 443//443 445//445 441//441
f 495//495 400//400 494//494
f 398//398 494//494 400//400
f 402//402 494//494 398//398
f 492//492 494//494 402//402
f 404//404 492//492 402//402
f 490//490 492//492 404//404
f 405//405 490//490 404//404
f 488//488 490//490 405//405
f 408//408 488//488 405//405
f 486//486 488//488 408//408
f 410//410 486//486 408//408
f 483//483 486//486 410//410
f 411//411 483//483 410//410
f 481//481 483//483 411//411
f 413//413 481//481 411//411
f 479//479 481//481 413//413
f 415//415 479//479 413//413
f 477//477 479//479 415//415
f 417//417 477//477 415//415
f 475//475 477//477 417//417
f 473//473 475//475 417//417
f 419//419 473//473 417//417
f 471//471 473//473 419//419
f 421//421 471//471 419//419
f 116//116 471//471 421//421
f 115//115 116//116 421//421
f 1//1 115//115 421//421
f 423//423 1//1 421//421
f 3//3 1//1 423//423
f 5//5 3//3 423//423
f 500//500 497//497 499//499
f 498//498 499//499 497//497
f 10//10 9//9 395//395
f 396//396 395//395 9//9
f 8//8 117//117 9//9
f 396//396 9//9 117//117
f 8//8 6//6 117//117
f 118//118 117//117 6//6
f 6//6 10//10 118//118
f 395//395 118//118 10//10
f 396//396 117//117 395//395
f 118//118 395//395 117//117
f 3//3 9//9 2//2
f 7//7 2//2 9//9
f 10//10 7//7 9//9
f 6//6 7//7 10//10
f 5//5 8//8 3//3
f 9//9 3//3 8//8
f 6//6 8//8 5//5
f 7//7 6//6 5//5
f 14//14 11//11 12//12
f 13//13 12//12 11//11
f 11//11 15//15 13//13
f 16//16 13//13 15//15
f 15//15 17//17 16//16
f 18//18 16//16 17//17
f 17//17 19//19 18//18
f 20//20 18//18 19//19
f 19//19 21//21 20//20
f 22//22 20//20 21//21
f 21//21 23//23 22//22
f 24//24 22//22 23//23
f 23//23 25//25 24//24
f 26//26 24//24 25//25
f 25//25 27//27 26//26
f 28//28 26//26 27//27
f 27//27 29//29 28//28
f 30//30 28//28 29//29
f 29//29 31//31 30//30
f 32//32 30//30 31//31
f 31//31 33//33 32//32
f 34//34 32//32 33//33
f 33//33 35//35 34//34
f 36//36 34//34 35//35
f 35//35 37//37 36//36
f 38//38 36//36 37//37
f 37//37 39//39 38//38
f 40//40 38//38 39//39
f 39//39 41//41 40//40
f 42//42 40//40 41//41
f 41//41 43//43 42//42
f 44//44 42//42 43//43
f 43//43 45//45 44//44
f 46//46 44//44 45//45
f 45//45 47//47 46//46
f 48//48 46//46 47//47
f 47//47 49//49 48//48
f 50//50 48//48 49//49
f 49//49 51//51 50//50
f 52//52 50//50 51//51
f 51//51 53//53 52//52
f 54//54 52//52 53//53
f 53//53 55//55 54//54
f 56//56 54//54 55//55
f 55//55 57//57 56//56
f 58//58 56//56 57//57
f 57//57 59//59 58//58
f 60//60 58//58 59//59
f 59//59 61//61 60//60
f 62//62 60//60 61//61
f 61//61 63//63 62//62
f 64//64 62//62 63//63
f 66//66 65//65 63//63
f 64//64 63//63 65//65
f 68//68 67//67 66//66
f 65//65 66//66 67//67
f 70//70 69//69 68//68
f 67//67 68//68 69//69
f 74//74 71//71 72//72
f 73//73 72//72 71//71
f 76//76 75//75 74//74
f 71//71 74//74 75//75
f 78//78 77//77 76//76
f 75//75 76//76 77//77
f 80//80 79//79 78//78
f 77//77 78//78 79//79
f 82//82 81//81 80//80
f 79//79 80//80 81//81
f 86//86 83//83 84//84
f 85//85 84//84 83//83
f 85//85 87//87 84//84
f 88//88 84//84 87//87
f 87//87 89//89 88//88
f 90//90 88//88 89//89
f 89//89 91//91 90//90
f 92//92 90//90 91//91
f 91//91 93//93 92//92
f 94//94 92//92 93//93
f 93//93 95//95 94//94
f 96//96 94//94 95//95
f 95//95 97//97 96//96
f 98//98 96//96 97//97
f 97//97 99//99 98//98
f 100//100 98//98 99//99
f 99//99 101//101 100//100
f 102//102 100//100 101//101
f 101//101 103//103 102//102
f 104//104 102//102 103//103
f 103//103 105//105 104//104
f 106//106 104//104 105//105
f 105//105 107//107 106//106
f 108//108 106//106 107//107
f 107//107 109//109 108//108
f 110//110 108//108 109//109
f 109//109 14//14 110//110
f 12//12 110//110 14//14
f 112//112 111//111 70//70
f 69//69 70//70 111//111
f 85//85 83//83 87//87
f 82//82 87//87 83//83
f 89//89 87//87 82//82
f 91//91 89//89 82//82
f 93//93 91//91 82//82
f 95//95 93//93 82//82
f 97//97 95//95 82//82
f 99//99 97//97 82//82
f 101//101 99//99 82//82
f 103//103 101//101 82//82
f 105//105 103//103 82//82
f 107//107 105//105 82//82
f 109//109 107//107 82//82
f 14//14 109//109 82//82
f 11//11 14//14 82//82
f 15//15 11//11 82//82
f 17//17 15//15 82//82
f 19//19 17//17 82//82
f 21//21 19//19 82//82
f 23//23 21//21 82//82
f 25//25 23//23 82//82
f 27//27 25//25 82//82
f 29//29 27//27 82//82
f 31//31 29//29 82//82
f 33//33 31//31 82//82
f 35//35 33//33 82//82
f 37//37 35//35 82//82
f 39//39 37//37 82//82
f 41//41 39//39 82//82
f 43//43 41//41 82//82
f 45//45 43//43 82//82
f 47//47 45//45 82//82
f 49//49 47//47 82//82
f 51//51 49//49 82//82
f 53//53 51//51 82//82
f 55//55 53//53 82//82
f 57//57 55//55 82//82
f 59//59 57//57 82//82
f 61//61 59//59 82//82
f 63//63 61//61 82//82
f 66//66 63//63 82//82
f 68//68 66//66 82//82
f 70//70 68//68 82//82
f 112//112 70//70 82//82
f 113//113 112//112 82//82
f 72//72 113//113 82//82
f 74//74 72//72 82//82
f 76//76 74//74 82//82
f 78//78 76//76 82//82
f 80//80 78//78 82//82
f 72//72 73//73 113//113
f 114//114 113//113 73//73
f 84//84 88//88 86//86
f 81//81 86//86 88//88
f 90//90 81//81 88//88
f 92//92 81//81 90//90
f 94//94 81//81 92//92
f 96//96 81//81 94//94
f 98//98 81//81 96//96
f 100//100 81//81 98//98
f 102//102 81//81 100//100
f 104//104 81//81 102//102
f 106//106 81//81 104//104
f 108//108 81//81 106//106
f 110//110 81//81 108//108
f 12//12 81//81 110//110
f 13//13 81//81 12//12
f 16//16 81//81 13//13
f 18//18 81//81 16//16
f 20//20 81//81 18//18
f 22//22 81//81 20//20
f 24//24 81//81 22//22
f 26//26 81//81 24//24
f 28//28 81//81 26//26
f 30//30 81//81 28//28
f 32//32 81//81 30//30
f 34//34 81//81 32//32
f 36//36 81//81 34//34
f 38//38 81//81 36//36
f 40//40 81//81 38//38
f 42//42 81//81 40//40
f 44//44 81//81 42//42
f 46//46 81//81 44//44
f 48//48 81//81 46//46
f 50//50 81//81 48//48
f 52//52 81//81 50//50
f 54//54 81//81 52//52
f 56//56 81//81 54//54
f 58//58 81//81 56//56
f 60//60 81//81 58//58
f 62//62 81//81 60//60
f 64//64 81//81 62//62
f 65//65 81//81 64//64
f 67//67 81//81 65//65
f 69//69 81//81 67//67
f 111//111 81//81 69//69
f 114//114 81//81 111//111
f 73//73 81//81 114//114
f 71//71 81//81 73//73
f 75//75 81//81 71//71
f 77//77 81//81 75//75
f 79//79 81//81 77//77
f 113//113 114//114 112//112
f 111//111 112//112 114//114
f 116//116 115//115 4//4
f 1//1 4//4 115//115
f 4//4 1//1 2//2
f 3//3 2//2 1//1
f 398//398 399//399 400//400
f 399//399 398//398 397//397
f 402//402 397//397 398//398
f 397//397 402//402 401//401
f 404//404 401//401 402//402
f 401//401 404//404 403//403
f 404//404 406//406 403//403
f 406//406 404//404 405//405
f 408//408 406//406 405//405
f 406//406 408//408 407//407
f 410//410 407//407 408//408
f 407//407 410//410 409//409
f 410//410 412//412 409//409
f 412//412 410//410 411//411
f 411//411 414//414 412//412
f 414//414 411//411 413//413
f 413//413 416//416 414//414
f 416//416 413//413 415//415
f 415//415 418//418 416//416
f 418//418 415//415 417//417
f 417//417 420//420 418//418
f 420//420 417//417 419//419
f 419//419 422//422 420//420
f 422//422 419//419 421//421
f 421//421 424//424 422//422
f 424//424 421//421 423//423
f 426//426 427//427 428//428
f 427//427 426//426 425//425
f 425//425 430//430 427//427
f 430//430 425//425 429//429
f 429//429 432//432 430//430
f 432//432 429//429 431//431
f 432//432 433//433 434//434
f 433//433 432//432 431//431
f 435//435 433//433 436//436
f 433//433 435//435 434//434
f 435//435 437//437 438//438
f 437//437 435//435 436//436
f 438//438 439//439 440//440
f 439//439 438//438 437//437
f 440//440 441//441 442//442
f 441//441 440//440 439//439
f 442//442 443//443 444//444
f 443//443 442//442 441//441
f 444//444 445//445 446//446
f 445//445 444//444 443//443
f 446//446 447//447 448//448
f 447//447 446//446 445//445
f 448//448 449//449 450//450
f 449//449 448//448 447//447
f 451//451 449//449 452//452
f 449//449 451//451 450//450
f 451//451 453//453 454//454
f 453//453 451//451 452//452
f 454//454 455//455 456//456
f 455//455 454//454 453//453
f 456//456 457//457 458//458
f 457//457 456//456 455//455
f 458//458 459//459 460//460
f 459//459 458//458 457//457
f 459//459 462//462 460//460
f 462//462 459//459 461//461
f 461//461 464//464 462//462
f 464//464 461//461 463//463
f 463//463 466//466 464//464
f 466//466 463//463 465//465
f 466//466 467//467 468//468
f 467//467 466//466 465//465
f 467//467 470//470 468//468
f 470//470 467//467 469//469
f 469//469 472//472 470//470
f 472//472 469//469 471//471
f 472//472 473//473 474//474
f 473//473 472//472 471//471
f 473//473 476//476 474//474
f 476//476 473//473 475//475
f 475//475 478//478 476//476
f 478//478 475//475 477//477
f 477//477 480//480 478//478
f 480//480 477//477 479//479
f 480//480 481//481 482//482
f 481//481 480//480 479//479
f 481//481 484//484 482//482
f 484//484 481//481 483//483
f 486//486 484//484 483//483
f 484//484 486//486 485//485
f 488//488 485//485 486//486
f 485//485 488//488 487//487
f 490//490 487//487 488//488
f 487//487 490//490 489//489
f 492//492 489//489 490//490
f 489//489 492//492 491//491
f 494//494 491//491 492//492
f 491//491 494//494 493//493
f 494//494 496//496 493//493
f 496//496 494//494 495//495
f 400//400 496//496 495//495
f 496//496 400//400 399//399
f 423//423 498//498 424//424
f 498//498 423//423 497//497
f 448//448 444//444 446//446
f 448//448 442//442 444//444
f 450//450 442//442 448//448
f 450//450 440//440 442//442
f 451//451 440//440 450//450
f 451//451 438//438 440//440
f 454//454 438//438 451//451
f 454//454 435//435 438//438
f 456//456 435//435 454//454
f 456//456 434//434 435//435
f 458//458 434//434 456//456
f 458//458 432//432 434//434
f 460//460 432//432 458//458
f 460//460 430//430 432//432
f 462//462 430//430 460//460
f 462//462 427//427 430//430
f 464//464 427//427 462//462
f 464//464 428//428 427//427
f 466//466 428//428 464//464
f 466//466 499//499 428//428
f 466//466 81//81 499//499
f 468//468 81//81 466//466
f 470//470 81//81 468//468
f 472//472 81//81 470//470
f 474//474 81//81 472//472
f 474//474 82//82 81//81
f 82//82 476//476 83//83
f 476//476 82//82 474//474
f 86//86 499//499 81//81
f 86//86 498//498 499//499
f 86//86 424//424 498//498
f 86//86 422//422 424//424
f 86//86 420//420 422//422
f 83//83 420//420 86//86
f 83//83 418//418 420//420
f 476//476 418//418 83//83
f 478//478 418//418 476//476
f 478//478 416//416 418//418
f 480//480 416//416 478//478
f 480//480 414//414 416//416
f 482//482 414//414 480//480
f 482//482 412//412 414//414
f 484//484 412//412 482//482
f 484//484 409//409 412//412
f 485//485 409//409 484//484
f 485//485 407//407 409//409
f 487//487 407//407 485//485
f 487//487 406//406 407//407
f 489//489 406//406 487//487
f 489//489 403//403 406//406
f 491//491 403//403 489//489
f 491//491 401//401 403//403
f 493//493 401//401 491//491
f 493//493 397//397 401//401
f 496//496 397//397 493//493
f 397//397 496//496 399//399
f 500//500 428//428 499//499
f 428//428 500//500 426//426
f 423//423 3//3 5//5
f 423//423 1//1 3//3
f 421//421 1//1 423//423
f 421//421 115//115 1//1
f 421//421 116//116 115//115
f 421//421 471//471 116//116
f 419//419 471//471 421//421
f 419//419 473//473 471//471
f 417//417 473//473 419//419
f 417//417 475//475 473//473
f 417//417 477//477 475//475
f 415//415 477//477 417//417
f 415//415 479//479 477//477
f 413//413 479//479 415//415
f 413//413 481//481 479//479
f 411//411 481//481 413//413
f 411//411 483//483 481//481
f 410//410 483//483 411//411
f 410//410 486//486 483//483
f 408//408 486//486 410//410
f 408//408 488//488 486//486
f 405//405 488//488 408//408
f 405//405 490//490 488//488
f 404//404 490//490 405//405
f 404//404 492//492 490//490
f 402//402 492//492 404//404
f 402//402 494//494 492//492
f 398//398 494//494 402//402
f 400//400 494//494 398//398
f 494//494 400//400 495//495
f 441//441 445//445 443//443
f 441//441 447//447 445//445
f 439//439 447//447 441//441
f 439//439 449//449 447//447
f 437//437 449//449 439//439
f 437//437 452//452 449//449
f 437//437 453//453 452//452
f 436//436 453//453 437//437
f 433//433 453//453 436//436
f 433//433 455//455 453//453
f 431//431 455//455 433//433
f 431//431 457//457 455//455
f 429//429 457//457 431//431
f 429//429 459//459 457//457
f 425//425 459//459 429//429
f 425//425 461//461 459//459
f 425//425 463//463 461//461
f 426//426 463//463 425//425
f 426//426 465//465 463//463
f 500//500 465//465 426//426
f 497//497 465//465 500//500
f 497//497 467//467 465//465
f 423//423 467//467 497//497
f 5//5 467//467 423//423
f 7//7 467//467 5//5
f 7//7 469//469 467//467
f 2//2 469//469 7//7
f 4//4 469//469 2//2
f 116//116 469//469 4//4
f 469//469 116//116 471//471
f 497//497 499//499 498//498
f 499//499 497//497 500//500
f 117//117 9//9 396//396
f 9//9 117//117 8//8