# https://github.com/mikedh/trimesh
v -0.01239500 -0.01575600 -0.03342300
v -0.01171100 -0.01575600 -0.02887000
v -0.01239500 -0.01575600 -0.02828300
v -0.01122500 -0.01575600 -0.02828300
v -0.01119000 -0.01575600 -0.02887000
v -0.01057800 -0.01575600 -0.02831000
v -0.01076500 -0.01575600 -0.02888800
v -0.01041700 -0.01575600 -0.02894200
v -0.01008700 -0.01575600 -0.02839200
v -0.01011600 -0.01575600 -0.02903800
v -0.00983300 -0.01575600 -0.02918000
v -0.00970500 -0.01575600 -0.02852100
v -0.00949400 -0.01575600 -0.02946100
v -0.00938500 -0.01575600 -0.02869000
v -0.00925000 -0.01575600 -0.02983500
v -0.00894400 -0.01575600 -0.02907200
v -0.00910200 -0.01575600 -0.03029700
v -0.00905300 -0.01575600 -0.03084800
v -0.00896000 -0.01575600 -0.03263200
v -0.00862700 -0.01575600 -0.03212800
v -0.00861500 -0.01575600 -0.02956200
v -0.00841300 -0.01575600 -0.03152800
v -0.00849600 -0.01575600 -0.02984700
v -0.00841000 -0.01575600 -0.03015800
v -0.00834200 -0.01575600 -0.03085800
v -0.01121100 -0.01575600 -0.03342300
v -0.01171100 -0.01575600 -0.03283600
v -0.01119000 -0.01575600 -0.03283600
v -0.01064200 -0.01575600 -0.03340200
v -0.01076300 -0.01575600 -0.03281800
v -0.01039300 -0.01575600 -0.03276300
v -0.01018400 -0.01575600 -0.03334000
v -0.01006600 -0.01575600 -0.03266000
v -0.00978500 -0.01575600 -0.03321600
v -0.00976800 -0.01575600 -0.03249400
v -0.00939200 -0.01575600 -0.03301200
v -0.00945600 -0.01575600 -0.03221200
v -0.00923300 -0.01575600 -0.03185000
v -0.00909800 -0.01575600 -0.03139900
v -0.00318200 -0.01575600 -0.02828300
v -0.00318200 -0.01575600 -0.03342300
v -0.00249800 -0.01575600 -0.02828300
v -0.00249800 -0.01575600 -0.03281500
v -0.00020300 -0.01575600 -0.03342300
v -0.00020300 -0.01575600 -0.03281500
v 0.00033600 -0.01575600 -0.02828300
v 0.00033600 -0.01575600 -0.03342300
v 0.00101900 -0.01575600 -0.02828300
v 0.00101900 -0.01575600 -0.03281500
v 0.00331500 -0.01575600 -0.03342300
v 0.00331500 -0.01575600 -0.03281500
v -0.09439800 -0.00390100 -0.02671600
v -0.09439800 -0.00390100 0.09152200
v -0.02341400 0.02299000 0.00902200
v -0.02341400 0.02299000 0.03307700
v 0.09478300 -0.00390100 -0.02671600
v 0.01550800 0.02299000 0.00902200
v 0.09478300 -0.00390100 0.09152200
v 0.01550800 0.02299000 0.03307700
v 0.10068500 -0.01572500 0.09757200
v 0.10068500 -0.00390100 -0.03552500
v 0.10068500 -0.00390100 0.09757200
v 0.10068500 -0.01572500 -0.03552500
v 0.07026400 -0.01572500 -0.02836400
v 0.07786500 -0.01572500 -0.02832200
v 0.06954500 -0.01572500 -0.02826100
v 0.07714400 -0.01572500 -0.02840800
v 0.07093200 -0.01572500 -0.02865000
v 0.07646900 -0.01572500 -0.02867800
v 0.07150200 -0.01572500 -0.02909900
v 0.07588900 -0.01572500 -0.02911400
v 0.07193800 -0.01572500 -0.02968000
v 0.07544000 -0.01572500 -0.02968500
v 0.07515500 -0.01572500 -0.03035300
v 0.07220900 -0.01572500 -0.03035400
v 0.07505100 -0.01572500 -0.03107200
v 0.07229500 -0.01572500 -0.03107500
v 0.07513800 -0.01572500 -0.03179300
v 0.07219200 -0.01572500 -0.03179400
v 0.07190700 -0.01572500 -0.03246200
v 0.07540900 -0.01572500 -0.03246700
v 0.07145800 -0.01572500 -0.03303300
v 0.07584400 -0.01572500 -0.03304800
v 0.07087700 -0.01572500 -0.03346800
v 0.07641500 -0.01572500 -0.03349700
v 0.07020300 -0.01572500 -0.03373900
v 0.07708300 -0.01572500 -0.03378200
v 0.06948200 -0.01572500 -0.03382500
v 0.07780200 -0.01572500 -0.03388500
v 0.06168100 -0.01572500 -0.03386300
v 0.08660300 -0.01572500 -0.02835200
v 0.09420400 -0.01572500 -0.02830900
v 0.08588400 -0.01572500 -0.02824900
v 0.09348300 -0.01572500 -0.02839600
v 0.08727100 -0.01572500 -0.02863800
v 0.09280900 -0.01572500 -0.02866600
v 0.08784200 -0.01572500 -0.02908600
v 0.09222800 -0.01572500 -0.02910200
v 0.08827800 -0.01572500 -0.02966700
v 0.09178000 -0.01572500 -0.02967300
v 0.09149400 -0.01572500 -0.03034100
v 0.08854800 -0.01572500 -0.03034100
v 0.09139100 -0.01572500 -0.03106000
v 0.08863500 -0.01572500 -0.03106200
v 0.09147700 -0.01572500 -0.03178100
v 0.08853200 -0.01572500 -0.03178100
v 0.08824600 -0.01572500 -0.03244900
v 0.09174800 -0.01572500 -0.03245500
v 0.08779700 -0.01572500 -0.03302000
v 0.09218400 -0.01572500 -0.03303600
v 0.08721700 -0.01572500 -0.03345600
v 0.09275500 -0.01572500 -0.03348400
v 0.08654200 -0.01572500 -0.03372600
v 0.09342300 -0.01572500 -0.03377000
v 0.08582100 -0.01572500 -0.03381300
v 0.09414200 -0.01572500 -0.03387300
v -0.10188200 -0.01572500 0.09757200
v -0.09439800 -0.01572500 0.09152200
v -0.09439800 -0.01572500 -0.02671600
v 0.09478300 -0.01572500 -0.02671600
v 0.06174400 -0.01572500 -0.02830000
v 0.06102300 -0.01572500 -0.02838600
v 0.06034900 -0.01572500 -0.02865700
v 0.05976700 -0.01572500 -0.02909200
v 0.05931900 -0.01572500 -0.02966300
v 0.05903300 -0.01572500 -0.03033100
v 0.05893000 -0.01572500 -0.03105000
v 0.05901700 -0.01572500 -0.03177100
v 0.05928800 -0.01572500 -0.03244500
v 0.05972300 -0.01572500 -0.03302600
v 0.06029400 -0.01572500 -0.03347500
v 0.06096200 -0.01572500 -0.03376000
v -0.10188200 -0.01572500 -0.03552500
v 0.09478300 -0.01572500 0.09152200
v 0.09492300 -0.01572500 -0.02841200
v 0.09559100 -0.01572500 -0.02869800
v 0.09616200 -0.01572500 -0.02914600
v 0.09659700 -0.01572500 -0.02972700
v 0.09686800 -0.01572500 -0.03040200
v 0.09695500 -0.01572500 -0.03112300
v 0.09685200 -0.01572500 -0.03184100
v 0.09656600 -0.01572500 -0.03250900
v 0.09611800 -0.01572500 -0.03308000
v 0.09553700 -0.01572500 -0.03351600
v 0.09486200 -0.01572500 -0.03378600
v 0.08516300 -0.01572500 -0.02833600
v 0.07858300 -0.01572500 -0.02842400
v 0.08448900 -0.01572500 -0.02860600
v 0.07925100 -0.01572500 -0.02871000
v 0.08390800 -0.01572500 -0.02904200
v 0.07982300 -0.01572500 -0.02915900
v 0.08346000 -0.01572500 -0.02961300
v 0.08025900 -0.01572500 -0.02974000
v 0.08317400 -0.01572500 -0.03028100
v 0.08052900 -0.01572500 -0.03041400
v 0.08307100 -0.01572500 -0.03099900
v 0.08061500 -0.01572500 -0.03113500
v 0.08315800 -0.01572500 -0.03172100
v 0.08051200 -0.01572500 -0.03185400
v 0.08342700 -0.01572500 -0.03239500
v 0.08022700 -0.01572500 -0.03252200
v 0.08386300 -0.01572500 -0.03297600
v 0.07977800 -0.01572500 -0.03309300
v 0.08443500 -0.01572500 -0.03342400
v 0.07919700 -0.01572500 -0.03352800
v 0.08510300 -0.01572500 -0.03371000
v 0.07852300 -0.01572500 -0.03379900
v 0.06882400 -0.01572500 -0.02834800
v 0.06246300 -0.01572500 -0.02840300
v 0.06815000 -0.01572500 -0.02861800
v 0.06313100 -0.01572500 -0.02868800
v 0.06756800 -0.01572500 -0.02905400
v 0.06370100 -0.01572500 -0.02913700
v 0.06712000 -0.01572500 -0.02962500
v 0.06413800 -0.01572500 -0.02971800
v 0.06683400 -0.01572500 -0.03029300
v 0.06440800 -0.01572500 -0.03039200
v 0.06673100 -0.01572500 -0.03101200
v 0.06449400 -0.01572500 -0.03111300
v 0.06681800 -0.01572500 -0.03173300
v 0.06439100 -0.01572500 -0.03183200
v 0.06708900 -0.01572500 -0.03240700
v 0.06410600 -0.01572500 -0.03250000
v 0.06752400 -0.01572500 -0.03298800
v 0.06365700 -0.01572500 -0.03307100
v 0.06809500 -0.01572500 -0.03343700
v 0.06307600 -0.01572500 -0.03350600
v 0.06876300 -0.01572500 -0.03372200
v 0.06240200 -0.01572500 -0.03377700
v -0.10188200 -0.00390100 -0.03552500
v -0.10188200 -0.00390100 0.09757200
v 0.09420400 -0.01424700 -0.02830900
v 0.09348300 -0.01424700 -0.02839600
v 0.09280900 -0.01424700 -0.02866600
v 0.09492300 -0.01424700 -0.02841200
v 0.09222800 -0.01424700 -0.02910200
v 0.09559100 -0.01424700 -0.02869800
v 0.09178000 -0.01424700 -0.02967300
v 0.09616200 -0.01424700 -0.02914600
v 0.09149400 -0.01424700 -0.03034100
v 0.09659700 -0.01424700 -0.02972700
v 0.09139100 -0.01424700 -0.03106000
v 0.09686800 -0.01424700 -0.03040200
v 0.09147700 -0.01424700 -0.03178100
v 0.09695500 -0.01424700 -0.03112300
v 0.09174800 -0.01424700 -0.03245500
v 0.09685200 -0.01424700 -0.03184100
v 0.09218400 -0.01424700 -0.03303600
v 0.09656600 -0.01424700 -0.03250900
v 0.09275500 -0.01424700 -0.03348400
v 0.09611800 -0.01424700 -0.03308000
v 0.09342300 -0.01424700 -0.03377000
v 0.09553700 -0.01424700 -0.03351600
v 0.09414200 -0.01424700 -0.03387300
v 0.09486200 -0.01424700 -0.03378600
v 0.08660300 -0.01424700 -0.02835200
v 0.08588400 -0.01424700 -0.02824900
v 0.08516300 -0.01424700 -0.02833600
v 0.08727100 -0.01424700 -0.02863800
v 0.08448900 -0.01424700 -0.02860600
v 0.08784200 -0.01424700 -0.02908600
v 0.08390800 -0.01424700 -0.02904200
v 0.08827800 -0.01424700 -0.02966700
v 0.08346000 -0.01424700 -0.02961300
v 0.08854800 -0.01424700 -0.03034100
v 0.08317400 -0.01424700 -0.03028100
v 0.08863500 -0.01424700 -0.03106200
v 0.08307100 -0.01424700 -0.03099900
v 0.08853200 -0.01424700 -0.03178100
v 0.08315800 -0.01424700 -0.03172100
v 0.08824600 -0.01424700 -0.03244900
v 0.08342700 -0.01424700 -0.03239500
v 0.08779700 -0.01424700 -0.03302000
v 0.08386300 -0.01424700 -0.03297600
v 0.08721700 -0.01424700 -0.03345600
v 0.08443500 -0.01424700 -0.03342400
v 0.08654200 -0.01424700 -0.03372600
v 0.08510300 -0.01424700 -0.03371000
v 0.08582100 -0.01424700 -0.03381300
v 0.07646900 -0.01424700 -0.02867800
v 0.07588900 -0.01424700 -0.02911400
v 0.07544000 -0.01424700 -0.02968500
v 0.07714400 -0.01424700 -0.02840800
v 0.07515500 -0.01424700 -0.03035300
v 0.07786500 -0.01424700 -0.02832200
v 0.07505100 -0.01424700 -0.03107200
v 0.07858300 -0.01424700 -0.02842400
v 0.07513800 -0.01424700 -0.03179300
v 0.07925100 -0.01424700 -0.02871000
v 0.07540900 -0.01424700 -0.03246700
v 0.07982300 -0.01424700 -0.02915900
v 0.07584400 -0.01424700 -0.03304800
v 0.08025900 -0.01424700 -0.02974000
v 0.07641500 -0.01424700 -0.03349700
v 0.08052900 -0.01424700 -0.03041400
v 0.07708300 -0.01424700 -0.03378200
v 0.08061500 -0.01424700 -0.03113500
v 0.07780200 -0.01424700 -0.03388500
v 0.08051200 -0.01424700 -0.03185400
v 0.07852300 -0.01424700 -0.03379900
v 0.08022700 -0.01424700 -0.03252200
v 0.07919700 -0.01424700 -0.03352800
v 0.07977800 -0.01424700 -0.03309300
v 0.06882400 -0.01424700 -0.02834800
v 0.06815000 -0.01424700 -0.02861800
v 0.06756800 -0.01424700 -0.02905400
v 0.06954500 -0.01424700 -0.02826100
v 0.06712000 -0.01424700 -0.02962500
v 0.07026400 -0.01424700 -0.02836400
v 0.06683400 -0.01424700 -0.03029300
v 0.07093200 -0.01424700 -0.02865000
v 0.06673100 -0.01424700 -0.03101200
v 0.07150200 -0.01424700 -0.02909900
v 0.06681800 -0.01424700 -0.03173300
v 0.07193800 -0.01424700 -0.02968000
v 0.06708900 -0.01424700 -0.03240700
v 0.07220900 -0.01424700 -0.03035400
v 0.06752400 -0.01424700 -0.03298800
v 0.07229500 -0.01424700 -0.03107500
v 0.06809500 -0.01424700 -0.03343700
v 0.07219200 -0.01424700 -0.03179400
v 0.06876300 -0.01424700 -0.03372200
v 0.07190700 -0.01424700 -0.03246200
v 0.06948200 -0.01424700 -0.03382500
v 0.07145800 -0.01424700 -0.03303300
v 0.07020300 -0.01424700 -0.03373900
v 0.07087700 -0.01424700 -0.03346800
v 0.06096200 -0.01424700 -0.03376000
v 0.06168100 -0.01424700 -0.03386300
v 0.06240200 -0.01424700 -0.03377700
v 0.06029400 -0.01424700 -0.03347500
v 0.06307600 -0.01424700 -0.03350600
v 0.05972300 -0.01424700 -0.03302600
v 0.06365700 -0.01424700 -0.03307100
v 0.05928800 -0.01424700 -0.03244500
v 0.06410600 -0.01424700 -0.03250000
v 0.05901700 -0.01424700 -0.03177100
v 0.06439100 -0.01424700 -0.03183200
v 0.05893000 -0.01424700 -0.03105000
v 0.06449400 -0.01424700 -0.03111300
v 0.05903300 -0.01424700 -0.03033100
v 0.06440800 -0.01424700 -0.03039200
v 0.05931900 -0.01424700 -0.02966300
v 0.06413800 -0.01424700 -0.02971800
v 0.05976700 -0.01424700 -0.02909200
v 0.06370100 -0.01424700 -0.02913700
v 0.06034900 -0.01424700 -0.02865700
v 0.06313100 -0.01424700 -0.02868800
v 0.06102300 -0.01424700 -0.02838600
v 0.06246300 -0.01424700 -0.02840300
v 0.06174400 -0.01424700 -0.02830000
v 0.06233500 -0.01629000 -0.03351200
v 0.06294300 -0.01424700 -0.03326800
v 0.06294300 -0.01629000 -0.03326800
v 0.06233500 -0.01424700 -0.03351200
v 0.06346700 -0.01424700 -0.03287600
v 0.06346700 -0.01629000 -0.03287600
v 0.06168400 -0.01629000 -0.03359000
v 0.06168400 -0.01424700 -0.03359000
v 0.06387100 -0.01629000 -0.03236000
v 0.06387100 -0.01424700 -0.03236000
v 0.06103600 -0.01629000 -0.03349800
v 0.06103600 -0.01424700 -0.03349800
v 0.06412900 -0.01629000 -0.03175800
v 0.06412900 -0.01424700 -0.03175800
v 0.06043300 -0.01629000 -0.03324000
v 0.06043300 -0.01424700 -0.03324000
v 0.06422200 -0.01629000 -0.03111000
v 0.06422200 -0.01424700 -0.03111000
v 0.05991900 -0.01629000 -0.03283600
v 0.05991900 -0.01424700 -0.03283600
v 0.06414300 -0.01629000 -0.03046000
v 0.06414300 -0.01424700 -0.03046000
v 0.05952500 -0.01424700 -0.03231100
v 0.05952500 -0.01629000 -0.03231100
v 0.06389900 -0.01629000 -0.02985200
v 0.06389900 -0.01424700 -0.02985200
v 0.05928200 -0.01424700 -0.03170300
v 0.05928200 -0.01629000 -0.03170300
v 0.06350700 -0.01629000 -0.02932800
v 0.06350700 -0.01424700 -0.02932800
v 0.05920400 -0.01424700 -0.03105300
v 0.05920400 -0.01629000 -0.03105300
v 0.06299100 -0.01424700 -0.02892300
v 0.06299100 -0.01629000 -0.02892300
v 0.05929600 -0.01424700 -0.03040500
v 0.05929600 -0.01629000 -0.03040500
v 0.06239000 -0.01424700 -0.02866500
v 0.06239000 -0.01629000 -0.02866500
v 0.05955400 -0.01424700 -0.02980200
v 0.05955400 -0.01629000 -0.02980200
v 0.06174100 -0.01424700 -0.02857300
v 0.06174100 -0.01629000 -0.02857300
v 0.05995900 -0.01424700 -0.02928700
v 0.05995900 -0.01629000 -0.02928700
v 0.06109100 -0.01424700 -0.02865100
v 0.06109100 -0.01629000 -0.02865100
v 0.06048300 -0.01629000 -0.02889400
v 0.06048300 -0.01424700 -0.02889400
v 0.07014400 -0.01424700 -0.03350900
v 0.07014400 -0.01629000 -0.03350900
v 0.07076100 -0.01424700 -0.03326200
v 0.07076100 -0.01629000 -0.03326200
v 0.07129200 -0.01424700 -0.03286300
v 0.07129200 -0.01629000 -0.03286300
v 0.06948500 -0.01424700 -0.03358800
v 0.06948500 -0.01629000 -0.03358800
v 0.07170300 -0.01629000 -0.03234100
v 0.07170300 -0.01424700 -0.03234100
v 0.06882600 -0.01424700 -0.03349400
v 0.06882600 -0.01629000 -0.03349400
v 0.07196400 -0.01629000 -0.03173000
v 0.07196400 -0.01424700 -0.03173000
v 0.06821600 -0.01424700 -0.03323300
v 0.06821600 -0.01629000 -0.03323300
v 0.07205900 -0.01629000 -0.03107200
v 0.07205900 -0.01424700 -0.03107200
v 0.06769300 -0.01424700 -0.03282300
v 0.06769300 -0.01629000 -0.03282300
v 0.07197900 -0.01629000 -0.03041200
v 0.07197900 -0.01424700 -0.03041200
v 0.06729500 -0.01629000 -0.03229100
v 0.06729500 -0.01424700 -0.03229100
v 0.07173200 -0.01629000 -0.02979600
v 0.07173200 -0.01424700 -0.02979600
v 0.06704700 -0.01629000 -0.03167400
v 0.06704700 -0.01424700 -0.03167400
v 0.07133300 -0.01629000 -0.02926400
v 0.07133300 -0.01424700 -0.02926400
v 0.06696900 -0.01629000 -0.03101500
v 0.06696900 -0.01424700 -0.03101500
v 0.07081100 -0.01629000 -0.02885400
v 0.07081100 -0.01424700 -0.02885400
v 0.06706200 -0.01629000 -0.03035700
v 0.06706200 -0.01424700 -0.03035700
v 0.07020000 -0.01629000 -0.02859200
v 0.07020000 -0.01424700 -0.02859200
v 0.06732300 -0.01629000 -0.02974600
v 0.06732300 -0.01424700 -0.02974600
v 0.06954200 -0.01629000 -0.02849800
v 0.06954200 -0.01424700 -0.02849800
v 0.06773400 -0.01629000 -0.02922300
v 0.06773400 -0.01424700 -0.02922300
v 0.06888200 -0.01629000 -0.02857800
v 0.06888200 -0.01424700 -0.02857800
v 0.06826500 -0.01629000 -0.02882500
v 0.06826500 -0.01424700 -0.02882500
v 0.07531500 -0.01629000 -0.03039800
v 0.07558300 -0.01424700 -0.02977000
v 0.07531500 -0.01424700 -0.03039800
v 0.07558300 -0.01629000 -0.02977000
v 0.07521800 -0.01629000 -0.03107400
v 0.07521800 -0.01424700 -0.03107400
v 0.07600500 -0.01424700 -0.02923300
v 0.07600500 -0.01629000 -0.02923300
v 0.07529900 -0.01629000 -0.03175200
v 0.07529900 -0.01424700 -0.03175200
v 0.07655200 -0.01629000 -0.02882400
v 0.07655200 -0.01424700 -0.02882400
v 0.07555400 -0.01629000 -0.03238500
v 0.07555400 -0.01424700 -0.03238500
v 0.07718500 -0.01629000 -0.02857000
v 0.07718500 -0.01424700 -0.02857000
v 0.07596300 -0.01629000 -0.03293200
v 0.07596300 -0.01424700 -0.03293200
v 0.07786300 -0.01629000 -0.02848800
v 0.07786300 -0.01424700 -0.02848800
v 0.07650100 -0.01424700 -0.03335400
v 0.07650100 -0.01629000 -0.03335400
v 0.07853900 -0.01629000 -0.02858500
v 0.07853900 -0.01424700 -0.02858500
v 0.07712800 -0.01424700 -0.03362200
v 0.07712800 -0.01629000 -0.03362200
v 0.07916700 -0.01629000 -0.02885300
v 0.07916700 -0.01424700 -0.02885300
v 0.07780400 -0.01424700 -0.03371900
v 0.07780400 -0.01629000 -0.03371900
v 0.07970300 -0.01629000 -0.02927500
v 0.07970300 -0.01424700 -0.02927500
v 0.07848200 -0.01424700 -0.03363700
v 0.07848200 -0.01629000 -0.03363700
v 0.08011300 -0.01424700 -0.02982100
v 0.08011300 -0.01629000 -0.02982100
v 0.07911600 -0.01424700 -0.03338300
v 0.07911600 -0.01629000 -0.03338300
v 0.08036700 -0.01424700 -0.03045500
v 0.08036700 -0.01629000 -0.03045500
v 0.07966200 -0.01424700 -0.03297400
v 0.07966200 -0.01629000 -0.03297400
v 0.08044900 -0.01424700 -0.03113300
v 0.08044900 -0.01629000 -0.03113300
v 0.08008400 -0.01629000 -0.03243700
v 0.08008400 -0.01424700 -0.03243700
v 0.08035200 -0.01424700 -0.03180900
v 0.08035200 -0.01629000 -0.03180900
v 0.08588200 -0.01424700 -0.02843900
v 0.08655200 -0.01629000 -0.02853500
v 0.08655200 -0.01424700 -0.02853500
v 0.08588200 -0.01629000 -0.02843900
v 0.08521000 -0.01424700 -0.02851900
v 0.08521000 -0.01629000 -0.02851900
v 0.08717400 -0.01629000 -0.02880100
v 0.08717400 -0.01424700 -0.02880100
v 0.08458200 -0.01424700 -0.02877100
v 0.08458200 -0.01629000 -0.02877100
v 0.08770700 -0.01629000 -0.02921900
v 0.08770700 -0.01424700 -0.02921900
v 0.08404000 -0.01424700 -0.02917700
v 0.08404000 -0.01629000 -0.02917700
v 0.08811200 -0.01424700 -0.02976000
v 0.08811200 -0.01629000 -0.02976000
v 0.08362200 -0.01629000 -0.02970900
v 0.08362200 -0.01424700 -0.02970900
v 0.08836400 -0.01424700 -0.03038800
v 0.08836400 -0.01629000 -0.03038800
v 0.08335600 -0.01629000 -0.03033200
v 0.08335600 -0.01424700 -0.03033200
v 0.08844500 -0.01424700 -0.03106000
v 0.08844500 -0.01629000 -0.03106000
v 0.08326000 -0.01629000 -0.03100200
v 0.08326000 -0.01424700 -0.03100200
v 0.08834900 -0.01424700 -0.03173000
v 0.08834900 -0.01629000 -0.03173000
v 0.08334100 -0.01629000 -0.03167400
v 0.08334100 -0.01424700 -0.03167400
v 0.08808300 -0.01629000 -0.03235300
v 0.08808300 -0.01424700 -0.03235300
v 0.08359300 -0.01629000 -0.03230200
v 0.08359300 -0.01424700 -0.03230200
v 0.08766500 -0.01424700 -0.03288500
v 0.08766500 -0.01629000 -0.03288500
v 0.08399900 -0.01629000 -0.03284300
v 0.08399900 -0.01424700 -0.03284300
v 0.08712300 -0.01629000 -0.03329100
v 0.08712300 -0.01424700 -0.03329100
v 0.08453100 -0.01424700 -0.03326100
v 0.08453100 -0.01629000 -0.03326100
v 0.08649500 -0.01629000 -0.03354300
v 0.08649500 -0.01424700 -0.03354300
v 0.08515400 -0.01424700 -0.03352700
v 0.08515400 -0.01629000 -0.03352700
v 0.08582300 -0.01629000 -0.03362300
v 0.08582300 -0.01424700 -0.03362300
v 0.09601900 -0.01629000 -0.02928500
v 0.09642400 -0.01424700 -0.02982500
v 0.09601900 -0.01424700 -0.02928500
v 0.09642400 -0.01629000 -0.02982500
v 0.09549000 -0.01424700 -0.02886900
v 0.09549000 -0.01629000 -0.02886900
v 0.09667500 -0.01424700 -0.03045100
v 0.09667500 -0.01629000 -0.03045100
v 0.09486900 -0.01424700 -0.02860400
v 0.09486900 -0.01629000 -0.02860400
v 0.09675500 -0.01424700 -0.03112000
v 0.09675500 -0.01629000 -0.03112000
v 0.09420200 -0.01424700 -0.02850800
v 0.09420200 -0.01629000 -0.02850800
v 0.09666000 -0.01424700 -0.03178800
v 0.09666000 -0.01629000 -0.03178800
v 0.09353300 -0.01424700 -0.02858900
v 0.09353300 -0.01629000 -0.02858900
v 0.09639500 -0.01424700 -0.03240800
v 0.09639500 -0.01629000 -0.03240800
v 0.09290600 -0.01424700 -0.02884000
v 0.09290600 -0.01629000 -0.02884000
v 0.09597900 -0.01424700 -0.03293800
v 0.09597900 -0.01629000 -0.03293800
v 0.09236700 -0.01424700 -0.02924400
v 0.09236700 -0.01629000 -0.02924400
v 0.09543900 -0.01629000 -0.03334200
v 0.09543900 -0.01424700 -0.03334200
v 0.09195100 -0.01629000 -0.02977400
v 0.09195100 -0.01424700 -0.02977400
v 0.09481300 -0.01629000 -0.03359300
v 0.09481300 -0.01424700 -0.03359300
v 0.09168500 -0.01629000 -0.03039400
v 0.09168500 -0.01424700 -0.03039400
v 0.09414400 -0.01629000 -0.03367400
v 0.09414400 -0.01424700 -0.03367400
v 0.09159000 -0.01629000 -0.03106200
v 0.09159000 -0.01424700 -0.03106200
v 0.09347600 -0.01629000 -0.03357800
v 0.09347600 -0.01424700 -0.03357800
v 0.09167000 -0.01629000 -0.03173100
v 0.09167000 -0.01424700 -0.03173100
v 0.09285600 -0.01629000 -0.03331300
v 0.09285600 -0.01424700 -0.03331300
v 0.09192200 -0.01629000 -0.03235700
v 0.09192200 -0.01424700 -0.03235700
v 0.09232600 -0.01629000 -0.03289700
v 0.09232600 -0.01424700 -0.03289700
v -0.09439800 -0.00981300 -0.02671600
v 0.09478300 -0.00981300 -0.02671600
v -0.09439800 -0.00981300 0.09152200
v 0.09478300 -0.00981300 0.09152200
v 0.10068500 -0.01572500 0.09928400
v -0.10188200 -0.01572500 0.09928400
v 0.10068500 -0.00390100 -0.03854500
v 0.10068500 -0.01572500 -0.03854500
v -0.10188200 -0.00390100 -0.03854500
v -0.10188200 -0.01572500 -0.03854500
v -0.10188200 -0.00390100 0.09928400
v 0.10068500 -0.00390100 0.09928400
v 0.07873800 -0.02659000 -0.09879400
v 0.07873800 -0.02659000 -0.10446900
v 0.01400200 0.04029600 -0.09879400
v 0.01400200 0.04029600 -0.10446900
v 0.01400200 0.04798100 -0.09879400
v 0.01400200 0.04798100 -0.10446900
v -0.02121000 0.04798100 -0.10446900
v -0.02121000 0.04798100 -0.09879400
v -0.02121000 0.04029600 -0.10446900
v -0.02121000 0.04029600 -0.09879400
v -0.08809600 -0.02659000 -0.10446900
v -0.08809600 -0.02659000 -0.09879400
v -0.06807500 -0.04661000 -0.10446900
v -0.06807500 -0.04661000 -0.09879400
v -0.01748600 0.00312600 -0.10446900
v -0.01748600 0.00312600 -0.09879400
v 0.00616100 0.00312600 -0.10446900
v 0.06294900 -0.04661000 -0.10446900
v 0.00616100 0.00312600 -0.09879400
v 0.06294900 -0.04661000 -0.09879400
v 0.01497200 0.01974600 -0.00177200
v 0.01497200 0.02299000 -0.00177200
v 0.01497200 0.01974600 0.02228200
v -0.02394900 0.01974600 -0.09595600
v -0.02394900 0.02299000 0.02228200
v -0.02394900 0.02299000 -0.09595600
v -0.02394900 0.01974600 -0.00177200
v 0.00686800 0.01974600 -0.08416700
v 0.00686800 0.01974600 -0.01322400
v 0.00686800 0.02299000 -0.08416700
v 0.00686800 0.02299000 -0.01322400
v -0.01678000 0.01974600 -0.01322400
v -0.01678000 0.01974600 -0.08416700
v -0.01678000 0.02299000 -0.01322400
v -0.01678000 0.02299000 -0.08416700
v 0.01794700 0.01678400 -0.10446900
v 0.01674500 0.02896600 -0.10446900
v 0.01814800 0.02295400 -0.10446900
v 0.01615600 0.01087600 -0.10446900
v 0.01383300 0.03440900 -0.10446900
v 0.01289800 0.00563300 -0.10446900
v 0.00961300 0.03891400 -0.10446900
v 0.00839200 0.00141200 -0.10446900
v 0.00437000 0.04217300 -0.10446900
v 0.00294900 -0.00149900 -0.10446900
v -0.00153800 0.04396400 -0.10446900
v -0.00306300 -0.00290200 -0.10446900
v -0.00770800 0.04416500 -0.10446900
v -0.00923300 -0.00270100 -0.10446900
v -0.01372000 0.04276200 -0.10446900
v -0.01514100 -0.00091000 -0.10446900
v -0.01916400 0.03985000 -0.10446900
v -0.02038400 0.00234800 -0.10446900
v -0.02366800 0.03563000 -0.10446900
v -0.02460500 0.00685300 -0.10446900
v -0.02692700 0.03038700 -0.10446900
v -0.02751600 0.01229700 -0.10446900
v -0.02871800 0.02447900 -0.10446900
v -0.02891900 0.01830900 -0.10446900
v -0.02394900 0.01974600 0.02228200
v 0.01497200 0.01974600 -0.09595600
v 0.01497200 0.02299000 -0.09595600
v -0.02394900 0.02299000 0.03307700
v 0.01550800 0.02299000 -0.09595600
v 0.09478300 -0.00981300 0.09175100
v -0.09439800 -0.00981300 0.09175100
v -0.01514100 -0.00091000 -0.09595600
v -0.02038400 0.00234800 -0.09595600
v -0.02460500 0.00685300 -0.09595600
v -0.02751600 0.01229700 -0.09595600
v -0.02891900 0.01830900 -0.09595600
v -0.02871800 0.02447900 -0.09595600
v -0.02692700 0.03038700 -0.09595600
v -0.02366800 0.03563000 -0.09595600
v -0.01916400 0.03985000 -0.09595600
v -0.01372000 0.04276200 -0.09595600
v -0.00770800 0.04416500 -0.09595600
v -0.00153800 0.04396400 -0.09595600
v 0.00437000 0.04217300 -0.09595600
v 0.00961300 0.03891400 -0.09595600
v 0.01383300 0.03440900 -0.09595600
v 0.01674500 0.02896600 -0.09595600
v 0.01814800 0.02295400 -0.09595600
v 0.01794700 0.01678400 -0.09595600
v 0.01615600 0.01087600 -0.09595600
v 0.01289800 0.00563300 -0.09595600
v 0.00839200 0.00141200 -0.09595600
v 0.00294900 -0.00149900 -0.09595600
v -0.00306300 -0.00290200 -0.09595600
v -0.00923300 -0.00270100 -0.09595600
vn 0.00000000 -0.00000000 0.00000000
vn 0.00000000 -0.00000000 0.00000000
vn 0.00000000 0.00000000 0.00000000
vn 0.00000000 -0.00000000 0.00000000
vn 0.00000000 0.00000000 0.00000000
vn 0.00000000 0.00000000 0.00000000
vn 0.00000000 0.00000000 0.00000000
vn 0.00000000 0.00000000 0.00000000
vn 0.00000000 -0.00000000 0.00000000
vn 0.00000000 -0.00000000 0.00000000
vn 0.00000000 0.00000000 0.00000000
vn 0.00000000 -0.00000000 0.00000000
vn 0.00000000 0.00000000 0.00000000
vn 0.00000000 -0.00000000 0.00000000
vn 0.00000000 -0.00000000 0.00000000
vn 0.00000000 -0.00000000 0.00000000
vn 0.00000000 0.00000000 0.00000000
vn 0.00000000 0.00000000 0.00000000
vn 0.00000000 -0.00000000 0.00000000
vn 0.00000000 -0.00000000 0.00000000
vn 0.00000000 0.00000000 0.00000000
vn 0.00000000 0.00000000 0.00000000
vn 0.00000000 -0.00000000 0.00000000
vn 0.00000000 0.00000000 0.00000000
vn 0.00000000 0.00000000 0.00000000
vn 0.00000000 0.00000000 0.00000000
vn 0.00000000 0.00000000 0.00000000
vn 0.00000000 -0.00000000 0.00000000
vn 0.00000000 -0.00000000 0.00000000
vn 0.00000000 -0.00000000 0.00000000
vn 0.00000000 0.00000000 0.00000000
vn 0.00000000 0.00000000 0.00000000
vn 0.00000000 -0.00000000 0.00000000
vn 0.00000000 0.00000000 0.00000000
vn 0.00000000 -0.00000000 0.00000000
vn 0.00000000 -0.00000000 0.00000000
vn 0.00000000 -0.00000000 0.00000000
vn 0.00000000 0.00000000 0.00000000
vn 0.00000000 0.00000000 0.00000000
vn 0.00000000 -0.00000000 0.00000000
vn 0.00000000 -0.00000000 0.00000000
vn 0.00000000 0.00000000 0.00000000
vn 0.00000000 0.00000000 0.00000000
vn 0.00000000 -0.00000000 0.00000000
vn 0.00000000 0.00000000 0.00000000
vn 0.00000000 -0.00000000 0.00000000
vn 0.00000000 0.00000000 0.00000000
vn 0.00000000 0.00000000 0.00000000
vn 0.00000000 0.00000000 0.00000000
vn 0.00000000 -0.00000000 0.00000000
vn 0.00000000 0.00000000 0.00000000
vn -0.00000000 1.00000000 -0.00000000
vn 0.00000000 1.00000000 0.00000000
vn 0.80546907 -0.57738207 0.13360214
vn 0.98667199 -0.16272180 -0.00000000
vn 0.00000000 1.00000000 -0.00000000
vn -0.00000000 -0.96026152 0.27910179
vn -0.00000000 1.00000000 -0.00000000
vn 0.00000000 0.00000000 0.00000000
vn 0.66666667 -0.66666667 -0.33333333
vn 0.66666667 0.66666667 -0.33333333
vn 0.66666667 0.66666667 -0.33333333
vn 0.66666667 -0.66666667 -0.33333333
vn -0.18227881 -0.73775399 -0.64999498
vn -0.00756390 -0.73746273 -0.67534548
vn -0.00749337 -0.73776944 -0.67501119
vn 0.16677606 -0.73769892 -0.65420643
vn -0.34465353 -0.73780642 -0.58039266
vn 0.33093769 -0.73797819 -0.58810580
vn -0.48313562 -0.73745998 -0.47194571
vn 0.47234888 -0.73746296 -0.48273690
vn -0.58824794 -0.73766170 -0.33139038
vn 0.58071018 -0.73785648 -0.34401090
vn 0.65032039 -0.73743621 -0.18240402
vn -0.65382777 -0.73791535 -0.16730266
vn 0.67482575 -0.73793427 -0.00795113
vn -0.67518655 -0.73760410 0.00795696
vn 0.65388836 -0.73774996 0.16779454
vn -0.65027127 -0.73760093 0.18191245
vn -0.58071018 -0.73785648 0.34401090
vn 0.58855729 -0.73752846 0.33113757
vn -0.47170501 -0.73769620 0.48301004
vn 0.48301004 -0.73769620 0.47170501
vn -0.33113757 -0.73752846 0.58855729
vn 0.34401090 -0.73785648 0.58071018
vn -0.16730266 -0.73791535 0.65382777
vn 0.18191245 -0.73760093 0.65027127
vn 0.00795696 -0.73760410 0.67518655
vn 0.00795696 -0.73760410 0.67518655
vn 0.00795696 -0.73760410 0.67518655
vn -0.18227881 -0.73775399 -0.64999498
vn -0.00749337 -0.73776944 -0.67501119
vn -0.00749337 -0.73776944 -0.67501119
vn 0.16741858 -0.73759544 -0.65415899
vn -0.34422217 -0.73757242 -0.58094579
vn 0.33093167 -0.73781624 -0.58831236
vn -0.48249617 -0.73769392 -0.47223419
vn 0.47223419 -0.73769392 -0.48249617
vn -0.58831236 -0.73781624 -0.33093167
vn 0.58094579 -0.73757242 -0.34422217
vn 0.64999498 -0.73775399 -0.18227881
vn -0.65415899 -0.73759544 -0.16741858
vn 0.67518655 -0.73760410 -0.00795696
vn -0.67501119 -0.73776944 0.00749337
vn 0.65382777 -0.73791535 0.16730266
vn -0.64999498 -0.73775399 0.18227881
vn -0.58063624 -0.73770339 0.34446373
vn 0.58824794 -0.73766170 0.33139038
vn -0.47234888 -0.73746296 0.48273690
vn 0.48249617 -0.73769392 0.47223419
vn -0.33093769 -0.73797819 0.58810580
vn 0.34422217 -0.73757242 0.58094579
vn -0.16726800 -0.73753360 0.65426723
vn 0.18227881 -0.73775399 0.64999498
vn 0.00755906 -0.73779309 0.67498461
vn 0.00743738 -0.73778942 0.67498997
vn -0.66666667 -0.66666667 -0.33333333
vn 0.30151134 -0.90453403 -0.30151134
vn 0.30151134 -0.90453403 0.30151134
vn -0.30151134 -0.90453403 0.30151134
vn -0.00795696 -0.73760410 -0.67518655
vn 0.16730266 -0.73791535 -0.65382777
vn 0.33094815 -0.73742875 -0.58878872
vn 0.47159111 -0.73792698 -0.48276868
vn 0.58094579 -0.73757242 -0.34422217
vn 0.64999498 -0.73775399 -0.18227881
vn 0.67501119 -0.73776944 -0.00749337
vn 0.65388836 -0.73774996 0.16779454
vn 0.58855729 -0.73752846 0.33113757
vn 0.48301004 -0.73769620 0.47170501
vn 0.34401090 -0.73785648 0.58071018
vn 0.18191245 -0.73760093 0.65027127
vn -0.66666667 -0.66666667 -0.33333333
vn -0.30151134 -0.90453403 -0.30151134
vn -0.18227881 -0.73775399 -0.64999498
vn -0.34422217 -0.73757242 -0.58094579
vn -0.48265215 -0.73782720 -0.47186643
vn -0.58858315 -0.73759046 -0.33095344
vn -0.65399702 -0.73768794 -0.16764368
vn -0.67498461 -0.73779309 0.00755906
vn -0.65000204 -0.73773035 0.18234933
vn -0.58094579 -0.73757242 0.34422217
vn -0.47223419 -0.73769392 0.48249617
vn -0.33074805 -0.73787811 0.58833801
vn -0.16732744 -0.73751363 0.65427454
vn 0.16741858 -0.73759544 -0.65415899
vn -0.18185705 -0.73789545 -0.64995255
vn 0.33093167 -0.73781624 -0.58831236
vn -0.34427418 -0.73760060 -0.58087920
vn 0.47223419 -0.73769392 -0.48249617
vn -0.48257321 -0.73766573 -0.47219950
vn 0.58094579 -0.73757242 -0.34422217
vn -0.58831236 -0.73781624 -0.33093167
vn 0.65000204 -0.73773035 -0.18234933
vn -0.65409825 -0.73776078 -0.16692666
vn 0.67500576 -0.73777316 -0.00761490
vn -0.67518655 -0.73760410 0.00795696
vn 0.65442226 -0.73746072 0.16698264
vn -0.65027127 -0.73760093 0.18191245
vn 0.58837638 -0.73797099 0.33047247
vn -0.58071018 -0.73785648 0.34401090
vn 0.48221531 -0.73779666 0.47236053
vn -0.47170501 -0.73769620 0.48301004
vn 0.34403250 -0.73746972 0.58118848
vn -0.33113757 -0.73752846 0.58855729
vn 0.18234933 -0.73773035 0.65000204
vn -0.16730266 -0.73791535 0.65382777
vn 0.16741858 -0.73759544 -0.65415899
vn -0.18191245 -0.73760093 -0.65027127
vn 0.33074229 -0.73771641 -0.58854399
vn -0.34420075 -0.73795954 -0.58046667
vn 0.47195875 -0.73779374 -0.48261303
vn -0.48297971 -0.73732701 -0.47231290
vn 0.58094579 -0.73757242 -0.34422217
vn -0.58800344 -0.73794933 -0.33118383
vn 0.64999498 -0.73775399 -0.18227881
vn -0.65409825 -0.73776078 -0.16692666
vn 0.67501119 -0.73776944 -0.00749337
vn -0.67518655 -0.73760410 0.00795696
vn 0.65388836 -0.73774996 0.16779454
vn -0.65027127 -0.73760093 0.18191245
vn 0.58855729 -0.73752846 0.33113757
vn -0.58071018 -0.73785648 0.34401090
vn 0.48301004 -0.73769620 0.47170501
vn -0.47170501 -0.73769620 0.48301004
vn 0.34401090 -0.73785648 0.58071018
vn -0.33113757 -0.73752846 0.58855729
vn 0.18191245 -0.73760093 0.65027127
vn -0.16730266 -0.73791535 0.65382777
vn -0.66666667 0.66666667 -0.33333333
vn -0.66666667 0.66666667 -0.33333333
vn -0.00815114 -0.67881547 -0.73426365
vn 0.18202932 -0.67896369 -0.71124794
vn 0.36002618 -0.67877563 -0.64003500
vn -0.19827100 -0.67882862 -0.70702214
vn 0.51358251 -0.67887979 -0.52474302
vn -0.37423952 -0.67898330 -0.63160625
vn 0.63160625 -0.67898330 -0.37423952
vn -0.52510094 -0.67876630 -0.51336664
vn 0.70702214 -0.67882862 -0.19827100
vn -0.63994068 -0.67896793 -0.35983118
vn 0.73412770 -0.67895631 -0.00865157
vn -0.71124886 -0.67888488 -0.18231945
vn 0.71150005 -0.67869128 0.18205995
vn -0.73428146 -0.67879534 0.00822312
vn 0.63969883 -0.67890723 0.36037532
vn -0.70698484 -0.67884876 0.19833508
vn 0.52474302 -0.67887979 0.51358251
vn -0.63160625 -0.67898330 0.37423952
vn 0.37423952 -0.67898330 0.63160625
vn -0.51358251 -0.67887979 0.52474302
vn 0.19827100 -0.67882862 0.70702214
vn -0.35988632 -0.67872297 0.64016948
vn 0.00809067 -0.67879846 0.73428005
vn -0.18189018 -0.67903342 0.71121697
vn -0.19827100 -0.67882862 -0.70702214
vn -0.00815114 -0.67881547 -0.73426365
vn 0.18202932 -0.67896369 -0.71124794
vn -0.37423952 -0.67898330 -0.63160625
vn 0.36002618 -0.67877563 -0.64003500
vn -0.52474302 -0.67887979 -0.51358251
vn 0.51358251 -0.67887979 -0.52474302
vn -0.64003500 -0.67877563 -0.36002618
vn 0.63160625 -0.67898330 -0.37423952
vn -0.71124794 -0.67896369 -0.18202932
vn 0.70698484 -0.67884876 -0.19833508
vn -0.73426365 -0.67881547 0.00815114
vn 0.73426510 -0.67881230 -0.00828342
vn -0.70702214 -0.67882862 0.19827100
vn 0.71127624 -0.67907854 0.18148953
vn -0.63149223 -0.67887172 0.37463416
vn 0.64037123 -0.67864395 0.35967634
vn -0.51338805 -0.67907662 0.52467861
vn 0.52458259 -0.67879229 0.51386197
vn -0.36018965 -0.67863782 0.64008915
vn 0.37392994 -0.67907086 0.63169548
vn -0.18183534 -0.67901640 0.71124725
vn 0.19833508 -0.67884876 0.70698484
vn 0.00822312 -0.67879534 0.73428146
vn 0.36018965 -0.67863782 -0.64008915
vn 0.51338805 -0.67907662 -0.52467861
vn 0.63183287 -0.67874138 -0.37429583
vn 0.18138124 -0.67887553 -0.71149762
vn 0.70677140 -0.67909943 -0.19823758
vn -0.00822107 -0.67907682 -0.73402117
vn 0.73438758 -0.67867519 -0.00865291
vn -0.19788755 -0.67870822 -0.70724513
vn 0.71124938 -0.67883206 0.18251397
vn -0.37432444 -0.67895929 -0.63158174
vn 0.63980579 -0.67902078 0.35997130
vn -0.52478700 -0.67890380 -0.51350583
vn 0.52530511 -0.67887784 0.51301015
vn -0.64003500 -0.67877563 -0.36002618
vn 0.37429583 -0.67874138 0.63183287
vn -0.71149840 -0.67882285 -0.18157524
vn 0.19779101 -0.67895901 0.70703138
vn -0.73412770 -0.67895631 0.00865157
vn 0.00865157 -0.67895631 0.73412770
vn -0.70703138 -0.67895901 0.19779101
vn -0.18205995 -0.67869128 0.71150005
vn -0.63183287 -0.67874138 0.37429583
vn -0.35997130 -0.67902078 0.63980579
vn -0.51301015 -0.67887784 0.52530511
vn 0.18202932 -0.67896369 -0.71124794
vn 0.35972351 -0.67886063 -0.64011502
vn 0.51342085 -0.67879479 -0.52501111
vn -0.00815114 -0.67881547 -0.73426365
vn 0.63160625 -0.67898330 -0.37423952
vn -0.19827100 -0.67882862 -0.70702214
vn 0.70702214 -0.67882862 -0.19827100
vn -0.37494451 -0.67878399 -0.63140233
vn 0.73426365 -0.67881547 -0.00815114
vn -0.52510776 -0.67907917 -0.51294574
vn 0.71124938 -0.67883206 0.18251397
vn -0.63969883 -0.67890723 -0.36037532
vn 0.63980579 -0.67902078 0.35997130
vn -0.71150005 -0.67869128 -0.18205995
vn 0.52530511 -0.67887784 0.51301015
vn -0.73412770 -0.67895631 0.00865157
vn 0.37429583 -0.67874138 0.63183287
vn -0.70703138 -0.67895901 0.19779101
vn 0.19779101 -0.67895901 0.70703138
vn -0.63183287 -0.67874138 0.37429583
vn 0.00865157 -0.67895631 0.73412770
vn -0.51301015 -0.67887784 0.52530511
vn -0.18205995 -0.67869128 0.71150005
vn -0.35997130 -0.67902078 0.63980579
vn 0.19779101 -0.67895901 0.70703138
vn 0.00865157 -0.67895631 0.73412770
vn -0.18205995 -0.67869128 0.71150005
vn 0.37429583 -0.67874138 0.63183287
vn -0.35997130 -0.67902078 0.63980579
vn 0.52530511 -0.67887784 0.51301015
vn -0.51301015 -0.67887784 0.52530511
vn 0.63980579 -0.67902078 0.35997130
vn -0.63183287 -0.67874138 0.37429583
vn 0.71124938 -0.67883206 0.18251397
vn -0.70703138 -0.67895901 0.19779101
vn 0.73426365 -0.67881547 -0.00815114
vn -0.73412770 -0.67895631 0.00865157
vn 0.70702214 -0.67882862 -0.19827100
vn -0.71149840 -0.67882285 -0.18157524
vn 0.63160625 -0.67898330 -0.37423952
vn -0.63992805 -0.67866237 -0.36042957
vn 0.51320487 -0.67868139 -0.52536876
vn -0.52475048 -0.67919259 -0.51316114
vn 0.35966886 -0.67910580 -0.63988564
vn -0.37460625 -0.67865369 -0.63174309
vn 0.18205995 -0.67869128 -0.71150005
vn -0.19779101 -0.67895901 -0.70703138
vn -0.00865157 -0.67895631 -0.73412770
vn 0.18198709 -0.67881328 -0.71140230
vn 0.33081132 -0.73755986 -0.58870139
vn 0.35964704 -0.67899401 -0.64001652
vn 0.16730021 -0.73777202 -0.65399013
vn 0.47188572 -0.73799819 -0.48237178
vn 0.51362388 -0.67862081 -0.52503743
vn -0.00799633 -0.67903095 -0.73406609
vn -0.00735606 -0.73751652 -0.67528902
vn 0.63161587 -0.67912543 -0.37396529
vn 0.58121533 -0.73740573 -0.34412429
vn -0.19776919 -0.67872417 -0.70726293
vn -0.18175745 -0.73787671 -0.65000169
vn 0.70697005 -0.67881805 -0.19849284
vn 0.64992537 -0.73776642 -0.18247666
vn -0.37449199 -0.67886921 -0.63157925
vn -0.34433028 -0.73770634 -0.58071165
vn 0.73437253 -0.67870029 -0.00793148
vn 0.67486548 -0.73790477 -0.00728879
vn -0.52489727 -0.67897227 -0.51330256
vn -0.48277900 -0.73758537 -0.47211466
vn 0.71109088 -0.67898819 0.18255081
vn 0.65406515 -0.73756669 0.16791120
vn -0.58834397 -0.73791598 -0.33065297
vn -0.64024118 -0.67869075 -0.35981953
vn 0.64001652 -0.67899401 0.35964704
vn 0.58870139 -0.73755986 0.33081132
vn -0.65429808 -0.73757865 -0.16694836
vn -0.71136703 -0.67897800 -0.18150987
vn 0.52526393 -0.67874437 0.51322888
vn 0.48276848 -0.73785297 0.47170710
vn -0.67526570 -0.73753849 0.00729444
vn -0.73408413 -0.67901223 0.00792982
vn 0.34460773 -0.73747802 0.58083705
vn 0.37456353 -0.67906378 0.63132760
vn -0.65000169 -0.73787671 0.18175745
vn -0.70726293 -0.67872417 0.19776919
vn 0.18202808 -0.73804819 0.64973121
vn 0.19815507 -0.67857830 0.70729489
vn -0.58063824 -0.73773740 0.34438753
vn -0.63155219 -0.67884276 0.37458556
vn 0.00722234 -0.73751257 0.67529479
vn 0.00785089 -0.67903433 0.73406454
vn -0.47197468 -0.73759116 0.48290701
vn -0.51315836 -0.67896733 0.52504462
vn -0.16694836 -0.73757865 0.65429808
vn -0.18150987 -0.67897800 0.71136703
vn -0.35970779 -0.67872212 0.64027072
vn -0.33058307 -0.73787912 0.58842947
vn -0.00000000 -1.00000000 0.00000000
vn 0.00000000 -1.00000000 -0.00000000
vn 0.00000000 -1.00000000 -0.00000000
vn -0.00000000 -1.00000000 0.00000000
vn 0.00000000 -1.00000000 0.00000000
vn 0.00000000 -1.00000000 -0.00000000
vn -0.00000000 -1.00000000 -0.00000000
vn 0.00000000 -1.00000000 0.00000000
vn -0.00000000 -1.00000000 0.00000000
vn 0.00000000 -1.00000000 -0.00000000
vn 0.00000000 -1.00000000 0.00000000
vn -0.00000000 -1.00000000 -0.00000000
vn 0.00000000 -1.00000000 -0.00000000
vn -0.00000000 -1.00000000 0.00000000
vn -0.00000000 -1.00000000 -0.00000000
vn 0.00000000 -1.00000000 0.00000000
vn 0.00000000 -1.00000000 0.00000000
vn 0.00000000 -1.00000000 -0.00000000
vn 0.00000000 -1.00000000 0.00000000
vn -0.00000000 -1.00000000 -0.00000000
vn -0.00000000 -1.00000000 0.00000000
vn 0.00000000 -1.00000000 0.00000000
vn -0.00000000 -1.00000000 -0.00000000
vn 0.00000000 -1.00000000 0.00000000
vn 0.00000000 -1.00000000 0.00000000
vn 0.00000000 -1.00000000 0.00000000
vn 0.00000000 -1.00000000 0.00000000
vn 0.00000000 -1.00000000 -0.00000000
vn 0.00000000 -1.00000000 0.00000000
vn -0.00000000 -1.00000000 0.00000000
vn 0.00000000 -1.00000000 -0.00000000
vn -0.00000000 -1.00000000 0.00000000
vn 0.00000000 -1.00000000 0.00000000
vn -0.00000000 -1.00000000 -0.00000000
vn -0.00000000 -1.00000000 -0.00000000
vn 0.00000000 -1.00000000 0.00000000
vn -0.00000000 -1.00000000 0.00000000
vn 0.00000000 -1.00000000 -0.00000000
vn 0.00000000 -1.00000000 0.00000000
vn 0.00000000 -1.00000000 0.00000000
vn -0.00000000 -1.00000000 0.00000000
vn 0.00000000 -1.00000000 -0.00000000
vn 0.00000000 -1.00000000 -0.00000000
vn -0.00000000 -1.00000000 0.00000000
vn -0.00000000 -1.00000000 0.00000000
vn 0.00000000 -1.00000000 0.00000000
vn -0.00000000 -1.00000000 0.00000000
vn 0.00000000 -1.00000000 -0.00000000
vn -0.70698654 -0.67897375 0.19790066
vn -0.58079199 -0.73780893 0.34397477
vn -0.65026031 -0.73758363 0.18202177
vn -0.63184104 -0.67878185 0.37420864
vn -0.73416746 -0.67891310 0.00866829
vn -0.67513098 -0.73765481 0.00797125
vn -0.47153760 -0.73781011 0.48299952
vn -0.51298530 -0.67878085 0.52545470
vn -0.71146635 -0.67864270 -0.18237246
vn -0.65369635 -0.73797246 -0.16756409
vn -0.35954619 -0.67901430 0.64005165
vn -0.33073975 -0.73753606 0.58877142
vn -0.63969400 -0.67915448 -0.35991774
vn -0.58870281 -0.73737168 -0.33122803
vn -0.18233938 -0.67893244 0.71119835
vn -0.16768720 -0.73763211 0.65404883
vn -0.52528436 -0.67868782 -0.51328275
vn -0.48270094 -0.73791942 -0.47167227
vn 0.00813612 -0.67876337 0.73431199
vn 0.00747833 -0.73783065 0.67494445
vn -0.34397910 -0.73763004 -0.58101662
vn -0.37403324 -0.67893421 -0.63178119
vn 0.19790066 -0.67897375 0.70698654
vn 0.18202177 -0.73758363 0.65026031
vn -0.18218840 -0.73765323 -0.65013468
vn -0.19811893 -0.67891445 -0.70698236
vn 0.37453869 -0.67868860 0.63174563
vn 0.34417668 -0.73791850 0.58053312
vn -0.00747833 -0.73783065 -0.67494445
vn -0.00813612 -0.67876337 -0.73431199
vn 0.52495976 -0.67908535 0.51308901
vn 0.48300888 -0.73745273 0.47208675
vn 0.16752674 -0.73756619 -0.65416428
vn 0.18213259 -0.67898862 -0.71119771
vn 0.58822357 -0.73784989 0.33101444
vn 0.63999636 -0.67874698 0.36014884
vn 0.33074555 -0.73770812 -0.58855255
vn 0.35971903 -0.67886769 -0.64011005
vn 0.65416428 -0.73756619 0.16752674
vn 0.71119771 -0.67898862 0.18213259
vn 0.47183063 -0.73770395 -0.48287550
vn 0.51315746 -0.67887125 -0.52516973
vn 0.67494445 -0.73783065 -0.00747833
vn 0.73431199 -0.67876337 -0.00813612
vn 0.63184104 -0.67878185 -0.37420864
vn 0.58079199 -0.73780893 -0.34397477
vn 0.65026031 -0.73758363 -0.18202177
vn 0.70698654 -0.67897375 -0.19790066
vn 0.00804384 -0.73757999 0.67521186
vn 0.19812297 -0.67887430 0.70701979
vn 0.18216901 -0.73770036 0.65008663
vn 0.00874546 -0.67897686 0.73410758
vn -0.16701719 -0.73785925 0.65396406
vn -0.18172186 -0.67873902 0.71154094
vn 0.37405003 -0.67896276 0.63174057
vn 0.34402557 -0.73759653 0.58103164
vn -0.33094342 -0.73764062 0.58852593
vn -0.35986885 -0.67892519 0.63996484
vn 0.52508013 -0.67873781 0.51342560
vn 0.48258954 -0.73786068 0.47187812
vn -0.47184144 -0.73771441 0.48284894
vn -0.51318368 -0.67886233 0.52515564
vn 0.58860931 -0.73760469 0.33087521
vn 0.63999362 -0.67895581 0.35975989
vn -0.63180084 -0.67880902 0.37422723
vn -0.58080491 -0.73777702 0.34402141
vn 0.65402922 -0.73768181 0.16754496
vn 0.71127216 -0.67889010 0.18220909
vn -0.70702402 -0.67893409 0.19790286
vn -0.65021332 -0.73763017 0.18200100
vn 0.67502377 -0.73775738 -0.00754638
vn 0.73425352 -0.67882574 -0.00820854
vn -0.73425352 -0.67882574 0.00820854
vn -0.67502377 -0.73775738 0.00754638
vn 0.65021332 -0.73763017 -0.18200100
vn 0.70702402 -0.67893409 -0.19790286
vn -0.71127216 -0.67889010 -0.18220909
vn -0.65402922 -0.73768181 -0.16754496
vn 0.63180084 -0.67880902 -0.37422723
vn 0.58080491 -0.73777702 -0.34402141
vn -0.63987885 -0.67883390 -0.36019384
vn -0.58827715 -0.73774780 -0.33114676
vn 0.47184144 -0.73771441 -0.48284894
vn 0.51318368 -0.67886233 -0.52515564
vn -0.52486780 -0.67895364 -0.51335733
vn -0.48272349 -0.73760724 -0.47213726
vn 0.35986885 -0.67892519 -0.63996484
vn 0.33094342 -0.73764062 -0.58852593
vn -0.34402141 -0.73777702 -0.58080491
vn -0.37422723 -0.67880902 -0.63180084
vn 0.18172186 -0.67873902 -0.71154094
vn 0.18172186 0.67873902 -0.71154094
vn -0.18207670 -0.73760480 -0.65022091
vn -0.19797165 -0.67895571 -0.70698399
vn -0.00882273 -0.67895524 -0.73412666
vn -0.00811435 -0.73760536 -0.67518330
vn 0.52504249 -0.67896616 0.51316209
vn 0.58837383 -0.73774490 0.33098141
vn 0.48290326 -0.73759253 0.47197637
vn 0.63997902 -0.67883637 0.36001118
vn 0.34404328 -0.73785156 0.58069725
vn 0.37432610 -0.67874557 0.63181044
vn 0.65404501 -0.73776272 0.16712658
vn 0.71144420 -0.67882120 0.18179366
vn 0.18217117 -0.73752978 0.65027955
vn 0.19803439 -0.67901965 0.70690501
vn 0.67528668 -0.73751708 -0.00751353
vn 0.73406464 -0.67903048 -0.00816752
vn 0.00757796 -0.73789820 0.67486948
vn 0.00824601 -0.67870587 0.73436390
vn 0.65009170 -0.73780309 -0.18173439
vn 0.70722076 -0.67878683 -0.19770493
vn -0.16749453 -0.73751793 0.65422694
vn -0.18207392 -0.67902975 0.71117345
vn 0.58092547 -0.73767020 -0.34404691
vn 0.63175036 -0.67889999 -0.37414740
vn -0.33071547 -0.73777564 0.58848482
vn -0.35975166 -0.67881020 0.64015268
vn 0.47171718 -0.73784694 -0.48276784
vn 0.51323153 -0.67874950 -0.52525472
vn -0.47201401 -0.73773938 0.48264209
vn -0.51340585 -0.67884107 0.52496594
vn 0.35957619 -0.67895856 -0.64009393
vn 0.33070913 -0.73760146 -0.58870668
vn -0.63138354 -0.67904043 0.37451159
vn -0.58084569 -0.73750541 0.34453455
vn 0.18228289 -0.67897297 -0.71117413
vn 0.16765671 -0.73758455 -0.65411028
vn -0.70721072 -0.67864652 0.19822184
vn -0.64979412 -0.73796797 0.18212873
vn -0.00816828 -0.67872760 -0.73434469
vn -0.00750704 -0.73787267 -0.67489820
vn -0.73406464 -0.67903048 0.00816752
vn -0.67528668 -0.73751708 0.00751353
vn -0.19818593 -0.67893792 -0.70694104
vn -0.18226352 -0.73762568 -0.65014488
vn -0.71144580 -0.67867959 -0.18231538
vn -0.65375374 -0.73792910 -0.16753119
vn -0.37414740 -0.67889999 -0.63175036
vn -0.34404691 -0.73767020 -0.58092547
vn -0.63973222 -0.67910031 -0.35995202
vn -0.58863736 -0.73743519 -0.33120296
vn -0.52525472 -0.67874950 -0.51323153
vn -0.48276784 -0.73784694 -0.47171718
vn 0.57735027 -0.57735027 0.57735027
vn -0.57735027 -0.57735027 0.57735027
vn 0.57735027 -0.57735027 -0.57735027
vn -0.57735027 -0.57735027 -0.57735027
vn 0.57735027 -0.57735027 0.57735027
vn -0.57735027 -0.57735027 0.57735027
vn 0.57735027 0.57735027 -0.57735027
vn 0.57735027 -0.57735027 -0.57735027
vn -0.57735027 0.57735027 -0.57735027
vn -0.57735027 -0.57735027 -0.57735027
vn -0.57735027 0.57735027 0.57735027
vn 0.57735027 0.57735027 0.57735027
vn -0.00000000 0.00000000 0.00000000
vn 0.00000000 -0.00000000 0.00000000
vn 0.00000000 -0.00000000 -0.00000000
vn -0.00000000 0.00000000 0.00000000
vn 0.00000000 -0.00000000 -0.00000000
vn 0.00000000 0.00000000 0.00000000
vn 0.00000000 -0.00000000 0.00000000
vn -0.00000000 0.00000000 0.00000000
vn 0.00000000 -0.00000000 0.00000000
vn 0.00000000 0.00000000 0.00000000
vn -0.00000000 -0.00000000 0.00000000
vn 0.00000000 0.00000000 -0.00000000
vn -0.00000000 0.00000000 0.00000000
vn 0.00000000 -0.00000000 0.00000000
vn 0.00000000 1.00000000 0.00000000
vn -0.00000000 1.00000000 -0.00000000
vn 0.00000000 1.00000000 0.00000000
vn -0.00000000 -0.00000000 0.00000000
vn -0.00000000 1.00000000 0.00000000
vn 0.00000000 0.00000000 -0.00000000
vn 0.00000000 -0.99510749 0.09879823
vn -0.00000000 -1.00000000 0.00000000
vn -0.00000000 -1.00000000 0.00000000
vn -0.30151134 -0.30151134 0.90453403
vn -1.00000000 0.00000000 0.00000000
vn -0.31622777 -0.00000000 0.94868330
vn -0.52097618 -0.84979960 0.08015276
vn 0.00000000 -1.00000000 0.00000000
vn -0.00000000 -0.94868330 0.31622777
vn -0.00000000 -0.00000000 -0.00000000
vn 0.00000000 0.00000000 1.00000000
vn -0.00000000 -0.94868330 0.31622777
vn 0.00000000 -1.00000000 -0.00000000
vn 0.00000000 0.00000000 1.00000000
vn -0.00000000 0.00000000 0.00000000
vn 0.72446552 -0.11948280 -0.67887670
vn 0.68713648 0.25884285 -0.67885479
vn 0.73070903 0.07209711 -0.67887136
vn 0.66886961 -0.30285973 -0.67888838
vn 0.59671594 0.42780438 -0.67890610
vn 0.56769623 -0.46570788 -0.67884988
vn 0.46574120 0.56765287 -0.67886328
vn 0.42777234 -0.59675654 -0.67889061
vn 0.30291115 0.66886071 -0.67887421
vn 0.25878898 -0.68714224 -0.67886951
vn 0.11948280 0.72446552 -0.67887670
vn 0.07209711 -0.73070903 -0.67887136
vn -0.07209711 0.73070903 -0.67887136
vn -0.11948280 -0.72446552 -0.67887670
vn -0.25881404 0.68713956 -0.67886266
vn -0.30285973 -0.66886961 -0.67888838
vn -0.42782502 0.59672308 -0.67888682
vn -0.46566976 -0.56771386 -0.67886129
vn -0.56767051 0.46570307 -0.67887469
vn -0.59676367 -0.42779297 -0.67887134
vn -0.66886071 0.30291115 -0.67887421
vn -0.68714531 -0.25876017 -0.67887738
vn -0.72446552 0.11948280 -0.67887670
vn -0.73070903 -0.07209711 -0.67887136
vn 0.51970166 -0.85434781 0.00000000
vn 0.00000000 -0.31622777 0.94868330
vn -0.00000000 -0.31622777 0.94868330
vn 0.00000000 -0.00000000 0.00000000
vn 0.00000000 -1.00000000 0.00000000
vn 0.00000000 0.00000000 0.00000000
vn 0.00000000 -0.00000000 0.00000000
vn -0.30285973 -0.66886961 0.67888838
vn -0.46566976 -0.56771386 0.67886129
vn -0.59676367 -0.42779297 0.67887134
vn -0.68714531 -0.25876017 0.67887738
vn -0.73070903 -0.07209711 0.67887136
vn -0.72446552 0.11948280 0.67887670
vn -0.66886071 0.30291115 0.67887421
vn -0.56767051 0.46570307 0.67887469
vn -0.42782502 0.59672308 0.67888682
vn -0.25881404 0.68713956 0.67886266
vn -0.07209711 0.73070903 0.67887136
vn 0.11948280 0.72446552 0.67887670
vn 0.30291115 0.66886071 0.67887421
vn 0.46574120 0.56765287 0.67886328
vn 0.59671594 0.42780438 0.67890610
vn 0.68713648 0.25884285 0.67885479
vn 0.73070903 0.07209711 0.67887136
vn 0.72446552 -0.11948280 0.67887670
vn 0.66886961 -0.30285973 0.67888838
vn 0.56769623 -0.46570788 0.67884988
vn 0.42777234 -0.59675654 0.67889061
vn 0.25878898 -0.68714224 0.67886951
vn 0.07209711 -0.73070903 0.67887136
vn -0.11948280 -0.72446552 0.67887670
f 1//1 2//2 3//3
f 4//4 3//3 2//2
f 5//5 4//4 2//2
f 6//6 4//4 5//5
f 7//7 6//6 5//5
f 8//8 6//6 7//7
f 9//9 6//6 8//8
f 10//10 9//9 8//8
f 11//11 9//9 10//10
f 12//12 9//9 11//11
f 13//13 12//12 11//11
f 14//14 12//12 13//13
f 15//15 14//14 13//13
f 16//16 14//14 15//15
f 17//17 16//16 15//15
f 18//18 16//16 17//17
f 19//19 16//16 18//18
f 20//20 16//16 19//19
f 21//21 16//16 20//20
f 22//22 21//21 20//20
f 23//23 21//21 22//22
f 24//24 23//23 22//22
f 25//25 24//24 22//22
f 26//26 27//27 1//1
f 2//2 1//1 27//27
f 28//28 27//27 26//26
f 29//29 28//28 26//26
f 30//30 28//28 29//29
f 31//31 30//30 29//29
f 32//32 31//31 29//29
f 33//33 31//31 32//32
f 34//34 33//33 32//32
f 35//35 33//33 34//34
f 36//36 35//35 34//34
f 37//37 35//35 36//36
f 38//38 37//37 36//36
f 19//19 38//38 36//36
f 39//39 38//38 19//19
f 18//18 39//39 19//19
f 19//19 39//39 18//18
f 19//19 38//38 39//39
f 36//36 38//38 19//19
f 36//36 37//37 38//38
f 36//36 35//35 37//37
f 34//34 35//35 36//36
f 34//34 33//33 35//35
f 32//32 33//33 34//34
f 32//32 31//31 33//33
f 29//29 31//31 32//32
f 29//29 30//30 31//31
f 29//29 28//28 30//30
f 26//26 28//28 29//29
f 26//26 27//27 28//28
f 27//27 1//1 2//2
f 1//1 27//27 26//26
f 22//22 24//24 25//25
f 22//22 23//23 24//24
f 22//22 21//21 23//23
f 20//20 21//21 22//22
f 20//20 16//16 21//21
f 19//19 16//16 20//20
f 18//18 16//16 19//19
f 17//17 16//16 18//18
f 15//15 16//16 17//17
f 15//15 14//14 16//16
f 13//13 14//14 15//15
f 13//13 12//12 14//14
f 11//11 12//12 13//13
f 11//11 9//9 12//12
f 10//10 9//9 11//11
f 8//8 9//9 10//10
f 8//8 6//6 9//9
f 7//7 6//6 8//8
f 5//5 6//6 7//7
f 5//5 4//4 6//6
f 2//2 4//4 5//5
f 2//2 3//3 4//4
f 3//3 2//2 1//1
f 40//40 41//41 42//42
f 43//43 42//42 41//41
f 44//44 43//43 41//41
f 45//45 43//43 44//44
f 44//44 43//43 45//45
f 41//41 43//43 44//44
f 41//41 42//42 43//43
f 42//42 41//41 40//40
f 46//46 47//47 48//48
f 49//49 48//48 47//47
f 50//50 49//49 47//47
f 51//51 49//49 50//50
f 50//50 49//49 51//51
f 47//47 49//49 50//50
f 47//47 48//48 49//49
f 48//48 47//47 46//46
f 52//52 53//53 54//54
f 55//55 54//54 53//53
f 56//56 57//57 58//58
f 59//59 58//58 57//57
f 60//60 61//61 62//62
f 61//61 60//60 63//63
f 64//64 65//65 66//66
f 64//64 67//67 65//65
f 68//68 67//67 64//64
f 68//68 69//69 67//67
f 70//70 69//69 68//68
f 70//70 71//71 69//69
f 72//72 71//71 70//70
f 72//72 73//73 71//71
f 72//72 74//74 73//73
f 75//75 74//74 72//72
f 75//75 76//76 74//74
f 77//77 76//76 75//75
f 77//77 78//78 76//76
f 79//79 78//78 77//77
f 80//80 78//78 79//79
f 80//80 81//81 78//78
f 82//82 81//81 80//80
f 82//82 83//83 81//81
f 84//84 83//83 82//82
f 84//84 85//85 83//83
f 86//86 85//85 84//84
f 86//86 87//87 85//85
f 88//88 87//87 86//86
f 88//88 89//89 87//87
f 89//89 88//88 90//90
f 91//91 92//92 93//93
f 91//91 94//94 92//92
f 95//95 94//94 91//91
f 95//95 96//96 94//94
f 97//97 96//96 95//95
f 97//97 98//98 96//96
f 99//99 98//98 97//97
f 99//99 100//100 98//98
f 99//99 101//101 100//100
f 102//102 101//101 99//99
f 102//102 103//103 101//101
f 104//104 103//103 102//102
f 104//104 105//105 103//103
f 106//106 105//105 104//104
f 107//107 105//105 106//106
f 107//107 108//108 105//105
f 109//109 108//108 107//107
f 109//109 110//110 108//108
f 111//111 110//110 109//109
f 111//111 112//112 110//110
f 113//113 112//112 111//111
f 113//113 114//114 112//112
f 115//115 114//114 113//113
f 114//114 115//115 116//116
f 117//117 118//118 60//60
f 117//117 119//119 118//118
f 119//119 93//93 120//120
f 119//119 66//66 93//93
f 119//119 121//121 66//66
f 119//119 122//122 121//121
f 119//119 123//123 122//122
f 119//119 124//124 123//123
f 119//119 125//125 124//124
f 119//119 126//126 125//125
f 119//119 127//127 126//126
f 119//119 128//128 127//127
f 119//119 129//129 128//128
f 119//119 130//130 129//129
f 119//119 131//131 130//130
f 119//119 132//132 131//131
f 119//119 90//90 132//132
f 90//90 133//133 89//89
f 119//119 133//133 90//90
f 133//133 119//119 117//117
f 134//134 60//60 118//118
f 120//120 60//60 134//134
f 92//92 120//120 93//93
f 135//135 120//120 92//92
f 135//135 60//60 120//120
f 136//136 60//60 135//135
f 137//137 60//60 136//136
f 138//138 60//60 137//137
f 139//139 60//60 138//138
f 140//140 60//60 139//139
f 133//133 116//116 89//89
f 140//140 63//63 60//60
f 141//141 63//63 140//140
f 142//142 63//63 141//141
f 143//143 63//63 142//142
f 144//144 63//63 143//143
f 145//145 63//63 144//144
f 116//116 63//63 145//145
f 63//63 116//116 133//133
f 65//65 93//93 66//66
f 65//65 146//146 93//93
f 147//147 146//146 65//65
f 147//147 148//148 146//146
f 149//149 148//148 147//147
f 149//149 150//150 148//148
f 151//151 150//150 149//149
f 151//151 152//152 150//150
f 153//153 152//152 151//151
f 153//153 154//154 152//152
f 155//155 154//154 153//153
f 155//155 156//156 154//154
f 157//157 156//156 155//155
f 157//157 158//158 156//156
f 159//159 158//158 157//157
f 159//159 160//160 158//158
f 161//161 160//160 159//159
f 161//161 162//162 160//160
f 163//163 162//162 161//161
f 163//163 164//164 162//162
f 165//165 164//164 163//163
f 165//165 166//166 164//164
f 167//167 166//166 165//165
f 167//167 115//115 166//166
f 167//167 116//116 115//115
f 116//116 167//167 89//89
f 121//121 168//168 66//66
f 169//169 168//168 121//121
f 169//169 170//170 168//168
f 171//171 170//170 169//169
f 171//171 172//172 170//170
f 173//173 172//172 171//171
f 173//173 174//174 172//172
f 175//175 174//174 173//173
f 175//175 176//176 174//174
f 177//177 176//176 175//175
f 177//177 178//178 176//176
f 179//179 178//178 177//177
f 179//179 180//180 178//178
f 181//181 180//180 179//179
f 181//181 182//182 180//180
f 183//183 182//182 181//181
f 183//183 184//184 182//182
f 185//185 184//184 183//183
f 185//185 186//186 184//184
f 187//187 186//186 185//185
f 187//187 188//188 186//186
f 189//189 188//188 187//187
f 189//189 88//88 188//188
f 88//88 189//189 90//90
f 190//190 117//117 191//191
f 117//117 190//190 133//133
f 94//94 192//192 92//92
f 192//192 94//94 193//193
f 96//96 193//193 94//94
f 193//193 96//96 194//194
f 92//92 195//195 135//135
f 195//195 92//92 192//192
f 98//98 194//194 96//96
f 194//194 98//98 196//196
f 135//135 197//197 136//136
f 197//197 135//135 195//195
f 98//98 198//198 196//196
f 198//198 98//98 100//100
f 136//136 199//199 137//137
f 199//199 136//136 197//197
f 100//100 200//200 198//198
f 200//200 100//100 101//101
f 138//138 199//199 201//201
f 199//199 138//138 137//137
f 101//101 202//202 200//200
f 202//202 101//101 103//103
f 139//139 201//201 203//203
f 201//201 139//139 138//138
f 103//103 204//204 202//202
f 204//204 103//103 105//105
f 205//205 139//139 203//203
f 139//139 205//205 140//140
f 105//105 206//206 204//204
f 206//206 105//105 108//108
f 141//141 205//205 207//207
f 205//205 141//141 140//140
f 108//108 208//208 206//206
f 208//208 108//108 110//110
f 142//142 207//207 209//209
f 207//207 142//142 141//141
f 208//208 112//112 210//210
f 112//112 208//208 110//110
f 143//143 209//209 211//211
f 209//209 143//143 142//142
f 210//210 114//114 212//212
f 114//114 210//210 112//112
f 213//213 143//143 211//211
f 143//143 213//213 144//144
f 212//212 116//116 214//214
f 116//116 212//212 114//114
f 215//215 144//144 213//213
f 144//144 215//215 145//145
f 214//214 145//145 215//215
f 145//145 214//214 116//116
f 93//93 216//216 91//91
f 216//216 93//93 217//217
f 146//146 217//217 93//93
f 217//217 146//146 218//218
f 91//91 219//219 95//95
f 219//219 91//91 216//216
f 148//148 218//218 146//146
f 218//218 148//148 220//220
f 95//95 221//221 97//97
f 221//221 95//95 219//219
f 150//150 220//220 148//148
f 220//220 150//150 222//222
f 99//99 221//221 223//223
f 221//221 99//99 97//97
f 150//150 224//224 222//222
f 224//224 150//150 152//152
f 102//102 223//223 225//225
f 223//223 102//102 99//99
f 152//152 226//226 224//224
f 226//226 152//152 154//154
f 104//104 225//225 227//227
f 225//225 104//104 102//102
f 154//154 228//228 226//226
f 228//228 154//154 156//156
f 106//106 227//227 229//229
f 227//227 106//106 104//104
f 156//156 230//230 228//228
f 230//230 156//156 158//158
f 107//107 229//229 231//231
f 229//229 107//107 106//106
f 158//158 232//232 230//230
f 232//232 158//158 160//160
f 109//109 231//231 233//233
f 231//231 109//109 107//107
f 232//232 162//162 234//234
f 162//162 232//232 160//160
f 235//235 109//109 233//233
f 109//109 235//235 111//111
f 234//234 164//164 236//236
f 164//164 234//234 162//162
f 237//237 111//111 235//235
f 111//111 237//237 113//113
f 236//236 166//166 238//238
f 166//166 236//236 164//164
f 239//239 113//113 237//237
f 113//113 239//239 115//115
f 238//238 115//115 239//239
f 115//115 238//238 166//166
f 71//71 240//240 69//69
f 240//240 71//71 241//241
f 71//71 242//242 241//241
f 242//242 71//71 73//73
f 69//69 243//243 67//67
f 243//243 69//69 240//240
f 73//73 244//244 242//242
f 244//244 73//73 74//74
f 67//67 245//245 65//65
f 245//245 67//67 243//243
f 74//74 246//246 244//244
f 246//246 74//74 76//76
f 65//65 247//247 147//147
f 247//247 65//65 245//245
f 76//76 248//248 246//246
f 248//248 76//76 78//78
f 147//147 249//249 149//149
f 249//249 147//147 247//247
f 78//78 250//250 248//248
f 250//250 78//78 81//81
f 149//149 251//251 151//151
f 251//251 149//149 249//249
f 81//81 252//252 250//250
f 252//252 81//81 83//83
f 153//153 251//251 253//253
f 251//251 153//153 151//151
f 252//252 85//85 254//254
f 85//85 252//252 83//83
f 155//155 253//253 255//255
f 253//253 155//155 153//153
f 254//254 87//87 256//256
f 87//87 254//254 85//85
f 257//257 155//155 255//255
f 155//155 257//257 157//157
f 256//256 89//89 258//258
f 89//89 256//256 87//87
f 159//159 257//257 259//259
f 257//257 159//159 157//157
f 258//258 167//167 260//260
f 167//167 258//258 89//89
f 161//161 259//259 261//261
f 259//259 161//161 159//159
f 260//260 165//165 262//262
f 165//165 260//260 167//167
f 163//163 261//261 263//263
f 261//261 163//163 161//161
f 262//262 163//163 263//263
f 163//163 262//262 165//165
f 170//170 264//264 168//168
f 264//264 170//170 265//265
f 172//172 265//265 170//170
f 265//265 172//172 266//266
f 168//168 267//267 66//66
f 267//267 168//168 264//264
f 172//172 268//268 266//266
f 268//268 172//172 174//174
f 66//66 269//269 64//64
f 269//269 66//66 267//267
f 174//174 270//270 268//268
f 270//270 174//174 176//176
f 64//64 271//271 68//68
f 271//271 64//64 269//269
f 176//176 272//272 270//270
f 272//272 176//176 178//178
f 68//68 273//273 70//70
f 273//273 68//68 271//271
f 178//178 274//274 272//272
f 274//274 178//178 180//180
f 72//72 273//273 275//275
f 273//273 72//72 70//70
f 180//180 276//276 274//274
f 276//276 180//180 182//182
f 75//75 275//275 277//277
f 275//275 75//75 72//72
f 276//276 184//184 278//278
f 184//184 276//276 182//182
f 77//77 277//277 279//279
f 277//277 77//77 75//75
f 278//278 186//186 280//280
f 186//186 278//278 184//184
f 79//79 279//279 281//281
f 279//279 79//79 77//77
f 280//280 188//188 282//282
f 188//188 280//280 186//186
f 80//80 281//281 283//283
f 281//281 80//80 79//79
f 282//282 88//88 284//284
f 88//88 282//282 188//188
f 82//82 283//283 285//285
f 283//283 82//82 80//80
f 284//284 86//86 286//286
f 86//86 284//284 88//88
f 287//287 82//82 285//285
f 82//82 287//287 84//84
f 286//286 84//84 287//287
f 84//84 286//286 86//86
f 288//288 90//90 289//289
f 90//90 288//288 132//132
f 289//289 189//189 290//290
f 189//189 289//289 90//90
f 291//291 132//132 288//288
f 132//132 291//291 131//131
f 290//290 187//187 292//292
f 187//187 290//290 189//189
f 293//293 131//131 291//291
f 131//131 293//293 130//130
f 292//292 185//185 294//294
f 185//185 292//292 187//187
f 129//129 293//293 295//295
f 293//293 129//129 130//130
f 185//185 296//296 294//294
f 296//296 185//185 183//183
f 128//128 295//295 297//297
f 295//295 128//128 129//129
f 183//183 298//298 296//296
f 298//298 183//183 181//181
f 127//127 297//297 299//299
f 297//297 127//127 128//128
f 181//181 300//300 298//298
f 300//300 181//181 179//179
f 126//126 299//299 301//301
f 299//299 126//126 127//127
f 300//300 177//177 302//302
f 177//177 300//300 179//179
f 125//125 301//301 303//303
f 301//301 125//125 126//126
f 177//177 304//304 302//302
f 304//304 177//177 175//175
f 124//124 303//303 305//305
f 303//303 124//124 125//125
f 175//175 306//306 304//304
f 306//306 175//175 173//173
f 124//124 307//307 123//123
f 307//307 124//124 305//305
f 171//171 306//306 173//173
f 306//306 171//171 308//308
f 123//123 309//309 122//122
f 309//309 123//123 307//307
f 169//169 308//308 171//171
f 308//308 169//169 310//310
f 122//122 311//311 121//121
f 311//311 122//122 309//309
f 121//121 310//310 169//169
f 310//310 121//121 311//311
f 312//312 313//313 314//314
f 313//313 312//312 315//315
f 314//314 316//316 317//317
f 316//316 314//314 313//313
f 318//318 315//315 312//312
f 315//315 318//318 319//319
f 320//320 316//316 321//321
f 316//316 320//320 317//317
f 322//322 319//319 318//318
f 319//319 322//322 323//323
f 324//324 321//321 325//325
f 321//321 324//324 320//320
f 326//326 323//323 322//322
f 323//323 326//326 327//327
f 328//328 325//325 329//329
f 325//325 328//328 324//324
f 330//330 327//327 326//326
f 327//327 330//330 331//331
f 332//332 329//329 333//333
f 329//329 332//332 328//328
f 330//330 334//334 331//331
f 334//334 330//330 335//335
f 336//336 333//333 337//337
f 333//333 336//336 332//332
f 335//335 338//338 334//334
f 338//338 335//335 339//339
f 340//340 337//337 341//341
f 337//337 340//340 336//336
f 339//339 342//342 338//338
f 342//342 339//339 343//343
f 344//344 340//340 341//341
f 340//340 344//344 345//345
f 343//343 346//346 342//342
f 346//346 343//343 347//347
f 348//348 345//345 344//344
f 345//345 348//348 349//349
f 347//347 350//350 346//346
f 350//350 347//347 351//351
f 352//352 349//349 348//348
f 349//349 352//352 353//353
f 351//351 354//354 350//350
f 354//354 351//351 355//355
f 356//356 353//353 352//352
f 353//353 356//356 357//357
f 354//354 358//358 359//359
f 358//358 354//354 355//355
f 359//359 357//357 356//356
f 357//357 359//359 358//358
f 360//360 361//361 362//362
f 363//363 362//362 361//361
f 361//361 362//362 363//363
f 362//362 361//361 360//360
f 362//362 363//363 364//364
f 365//365 364//364 363//363
f 363//363 364//364 365//365
f 364//364 363//363 362//362
f 366//366 367//367 360//360
f 361//361 360//360 367//367
f 367//367 360//360 361//361
f 360//360 367//367 366//366
f 368//368 369//369 365//365
f 364//364 365//365 369//369
f 369//369 365//365 364//364
f 365//365 369//369 368//368
f 370//370 371//371 366//366
f 367//367 366//366 371//371
f 371//371 366//366 367//367
f 366//366 371//371 370//370
f 368//368 372//372 369//369
f 373//373 369//369 372//372
f 372//372 369//369 373//373
f 369//369 372//372 368//368
f 374//374 375//375 370//370
f 371//371 370//370 375//375
f 375//375 370//370 371//371
f 370//370 375//375 374//374
f 372//372 376//376 373//373
f 377//377 373//373 376//376
f 376//376 373//373 377//377
f 373//373 376//376 372//372
f 378//378 379//379 374//374
f 375//375 374//374 379//379
f 379//379 374//374 375//375
f 374//374 379//379 378//378
f 376//376 380//380 377//377
f 381//381 377//377 380//380
f 380//380 377//377 381//381
f 377//377 380//380 376//376
f 382//382 379//379 383//383
f 378//378 383//383 379//379
f 379//379 383//383 378//378
f 383//383 379//379 382//382
f 380//380 384//384 381//381
f 385//385 381//381 384//384
f 384//384 381//381 385//385
f 381//381 384//384 380//380
f 386//386 382//382 387//387
f 383//383 387//387 382//382
f 382//382 387//387 383//383
f 387//387 382//382 386//386
f 384//384 388//388 385//385
f 389//389 385//385 388//388
f 388//388 385//385 389//389
f 385//385 388//388 384//384
f 390//390 386//386 391//391
f 387//387 391//391 386//386
f 386//386 391//391 387//387
f 391//391 386//386 390//390
f 392//392 393//393 388//388
f 389//389 388//388 393//393
f 393//393 388//388 389//389
f 388//388 393//393 392//392
f 390//390 391//391 394//394
f 395//395 394//394 391//391
f 391//391 394//394 395//395
f 394//394 391//391 390//390
f 396//396 397//397 392//392
f 393//393 392//392 397//397
f 397//397 392//392 393//393
f 392//392 397//397 396//396
f 398//398 394//394 399//399
f 395//395 399//399 394//394
f 394//394 399//399 395//395
f 399//399 394//394 398//398
f 400//400 401//401 396//396
f 397//397 396//396 401//401
f 401//401 396//396 397//397
f 396//396 401//401 400//400
f 402//402 398//398 403//403
f 399//399 403//403 398//398
f 398//398 403//403 399//399
f 403//403 398//398 402//402
f 404//404 405//405 400//400
f 401//401 400//400 405//405
f 405//405 400//400 401//401
f 400//400 405//405 404//404
f 402//402 403//403 406//406
f 407//407 406//406 403//403
f 403//403 406//406 407//407
f 406//406 403//403 402//402
f 406//406 407//407 404//404
f 405//405 404//404 407//407
f 407//407 404//404 405//405
f 404//404 407//407 406//406
f 408//408 409//409 410//410
f 409//409 408//408 411//411
f 412//412 410//410 413//413
f 410//410 412//412 408//408
f 411//411 414//414 409//409
f 414//414 411//411 415//415
f 416//416 413//413 417//417
f 413//413 416//416 412//412
f 414//414 418//418 419//419
f 418//418 414//414 415//415
f 420//420 417//417 421//421
f 417//417 420//420 416//416
f 419//419 422//422 423//423
f 422//422 419//419 418//418
f 424//424 421//421 425//425
f 421//421 424//424 420//420
f 423//423 426//426 427//427
f 426//426 423//423 422//422
f 424//424 428//428 429//429
f 428//428 424//424 425//425
f 427//427 430//430 431//431
f 430//430 427//427 426//426
f 429//429 432//432 433//433
f 432//432 429//429 428//428
f 431//431 434//434 435//435
f 434//434 431//431 430//430
f 433//433 436//436 437//437
f 436//436 433//433 432//432
f 435//435 438//438 439//439
f 438//438 435//435 434//434
f 437//437 440//440 441//441
f 440//440 437//437 436//436
f 438//438 442//442 439//439
f 442//442 438//438 443//443
f 441//441 444//444 445//445
f 444//444 441//441 440//440
f 443//443 446//446 442//442
f 446//446 443//443 447//447
f 445//445 448//448 449//449
f 448//448 445//445 444//444
f 447//447 450//450 446//446
f 450//450 447//447 451//451
f 452//452 448//448 453//453
f 448//448 452//452 449//449
f 451//451 454//454 450//450
f 454//454 451//451 455//455
f 455//455 453//453 454//454
f 453//453 455//455 452//452
f 456//456 457//457 458//458
f 457//457 456//456 459//459
f 460//460 459//459 456//456
f 459//459 460//460 461//461
f 458//458 462//462 463//463
f 462//462 458//458 457//457
f 464//464 461//461 460//460
f 461//461 464//464 465//465
f 463//463 466//466 467//467
f 466//466 463//463 462//462
f 468//468 465//465 464//464
f 465//465 468//468 469//469
f 466//466 470//470 467//467
f 470//470 466//466 471//471
f 472//472 468//468 473//473
f 468//468 472//472 469//469
f 471//471 474//474 470//470
f 474//474 471//471 475//475
f 476//476 473//473 477//477
f 473//473 476//476 472//472
f 475//475 478//478 474//474
f 478//478 475//475 479//479
f 480//480 477//477 481//481
f 477//477 480//480 476//476
f 479//479 482//482 478//478
f 482//482 479//479 483//483
f 484//484 481//481 485//485
f 481//481 484//484 480//480
f 482//482 486//486 487//487
f 486//486 482//482 483//483
f 488//488 485//485 489//489
f 485//485 488//488 484//484
f 486//486 490//490 487//487
f 490//490 486//486 491//491
f 492//492 489//489 493//493
f 489//489 492//492 488//488
f 494//494 490//490 491//491
f 490//490 494//494 495//495
f 492//492 496//496 497//497
f 496//496 492//492 493//493
f 498//498 495//495 494//494
f 495//495 498//498 499//499
f 497//497 500//500 501//501
f 500//500 497//497 496//496
f 502//502 499//499 498//498
f 499//499 502//502 503//503
f 501//501 503//503 502//502
f 503//503 501//501 500//500
f 504//504 505//505 506//506
f 505//505 504//504 507//507
f 508//508 504//504 506//506
f 504//504 508//508 509//509
f 507//507 510//510 505//505
f 510//510 507//507 511//511
f 512//512 509//509 508//508
f 509//509 512//512 513//513
f 511//511 514//514 510//510
f 514//514 511//511 515//515
f 516//516 513//513 512//512
f 513//513 516//516 517//517
f 515//515 518//518 514//514
f 518//518 515//515 519//519
f 520//520 517//517 516//516
f 517//517 520//520 521//521
f 519//519 522//522 518//518
f 522//522 519//519 523//523
f 524//524 521//521 520//520
f 521//521 524//524 525//525
f 523//523 526//526 522//522
f 526//526 523//523 527//527
f 528//528 525//525 524//524
f 525//525 528//528 529//529
f 530//530 526//526 527//527
f 526//526 530//530 531//531
f 532//532 528//528 533//533
f 528//528 532//532 529//529
f 534//534 531//531 530//530
f 531//531 534//534 535//535
f 536//536 533//533 537//537
f 533//533 536//536 532//532
f 538//538 535//535 534//534
f 535//535 538//538 539//539
f 540//540 537//537 541//541
f 537//537 540//540 536//536
f 542//542 539//539 538//538
f 539//539 542//542 543//543
f 544//544 541//541 545//545
f 541//541 544//544 540//540
f 546//546 543//543 542//542
f 543//543 546//546 547//547
f 548//548 545//545 549//549
f 545//545 548//548 544//544
f 550//550 547//547 546//546
f 547//547 550//550 551//551
f 550//550 549//549 551//551
f 549//549 550//550 548//548
f 552//552 120//120 553//553
f 120//120 552//552 119//119
f 118//118 552//552 554//554
f 552//552 118//118 119//119
f 553//553 134//134 555//555
f 134//134 553//553 120//120
f 134//134 554//554 555//555
f 554//554 134//134 118//118
f 56//56 52//52 57//57
f 54//54 57//57 52//52
f 59//59 55//55 58//58
f 53//53 58//58 55//55
f 193//193 195//195 192//192
f 193//193 516//516 195//195
f 193//193 520//520 516//516
f 194//194 520//520 193//193
f 194//194 524//524 520//520
f 196//196 524//524 194//194
f 196//196 528//528 524//524
f 198//198 528//528 196//196
f 198//198 533//533 528//528
f 200//200 533//533 198//198
f 200//200 537//537 533//533
f 202//202 537//537 200//200
f 202//202 541//541 537//537
f 202//202 545//545 541//541
f 204//204 545//545 202//202
f 204//204 549//549 545//545
f 206//206 549//549 204//204
f 206//206 551//551 549//549
f 208//208 551//551 206//206
f 208//208 547//547 551//551
f 210//210 547//547 208//208
f 210//210 543//543 547//547
f 210//210 539//539 543//543
f 539//539 210//210 212//212
f 512//512 195//195 516//516
f 512//512 197//197 195//195
f 508//508 197//197 512//512
f 508//508 199//199 197//197
f 506//506 199//199 508//508
f 506//506 201//201 199//199
f 505//505 201//201 506//506
f 505//505 203//203 201//201
f 510//510 203//203 505//505
f 514//514 203//203 510//510
f 514//514 205//205 203//203
f 518//518 205//205 514//514
f 518//518 207//207 205//205
f 522//522 207//207 518//518
f 522//522 209//209 207//207
f 526//526 209//209 522//522
f 526//526 211//211 209//209
f 531//531 211//211 526//526
f 531//531 213//213 211//211
f 535//535 213//213 531//531
f 539//539 213//213 535//535
f 212//212 213//213 539//539
f 212//212 215//215 213//213
f 215//215 212//212 214//214
f 218//218 216//216 217//217
f 218//218 456//456 216//216
f 218//218 460//460 456//456
f 220//220 460//460 218//218
f 220//220 464//464 460//460
f 222//222 464//464 220//220
f 222//222 468//468 464//464
f 224//224 468//468 222//222
f 224//224 473//473 468//468
f 226//226 473//473 224//224
f 226//226 477//477 473//473
f 228//228 477//477 226//226
f 228//228 481//481 477//477
f 228//228 485//485 481//481
f 230//230 485//485 228//228
f 230//230 489//489 485//485
f 232//232 489//489 230//230
f 232//232 493//493 489//489
f 234//234 493//493 232//232
f 234//234 496//496 493//493
f 236//236 496//496 234//234
f 236//236 500//500 496//496
f 236//236 503//503 500//500
f 503//503 236//236 238//238
f 458//458 216//216 456//456
f 458//458 219//219 216//216
f 463//463 219//219 458//458
f 463//463 221//221 219//219
f 467//467 221//221 463//463
f 467//467 223//223 221//221
f 470//470 223//223 467//467
f 470//470 225//225 223//223
f 474//474 225//225 470//470
f 478//478 225//225 474//474
f 478//478 227//227 225//225
f 482//482 227//227 478//478
f 482//482 229//229 227//227
f 487//487 229//229 482//482
f 487//487 231//231 229//229
f 490//490 231//231 487//487
f 490//490 233//233 231//231
f 495//495 233//233 490//490
f 495//495 235//235 233//233
f 499//499 235//235 495//495
f 503//503 235//235 499//499
f 238//238 235//235 503//503
f 238//238 237//237 235//235
f 237//237 238//238 239//239
f 264//264 269//269 267//267
f 264//264 401//401 269//269
f 264//264 405//405 401//401
f 265//265 405//405 264//264
f 265//265 407//407 405//405
f 266//266 407//407 265//265
f 266//266 403//403 407//407
f 268//268 403//403 266//266
f 268//268 399//399 403//403
f 270//270 399//399 268//268
f 270//270 395//395 399//399
f 272//272 395//395 270//270
f 272//272 391//391 395//395
f 272//272 387//387 391//391
f 274//274 387//387 272//272
f 274//274 383//383 387//387
f 276//276 383//383 274//274
f 276//276 378//378 383//383
f 278//278 378//378 276//276
f 278//278 374//374 378//378
f 280//280 374//374 278//278
f 280//280 370//370 374//374
f 280//280 366//366 370//370
f 366//366 280//280 282//282
f 397//397 269//269 401//401
f 397//397 271//271 269//269
f 393//393 271//271 397//397
f 393//393 273//273 271//271
f 389//389 273//273 393//393
f 389//389 275//275 273//273
f 385//385 275//275 389//389
f 385//385 277//277 275//275
f 381//381 277//277 385//385
f 377//377 277//277 381//381
f 377//377 279//279 277//277
f 373//373 279//279 377//377
f 373//373 281//281 279//279
f 369//369 281//281 373//373
f 369//369 283//283 281//281
f 364//364 283//283 369//369
f 364//364 285//285 283//283
f 362//362 285//285 364//364
f 362//362 287//287 285//285
f 360//360 287//287 362//362
f 366//366 287//287 360//360
f 282//282 287//287 366//366
f 282//282 286//286 287//287
f 286//286 282//282 284//284
f 309//309 310//310 311//311
f 309//309 352//352 310//310
f 309//309 356//356 352//352
f 307//307 356//356 309//309
f 307//307 359//359 356//356
f 305//305 359//359 307//307
f 305//305 354//354 359//359
f 303//303 354//354 305//305
f 303//303 350//350 354//354
f 301//301 350//350 303//303
f 301//301 346//346 350//350
f 299//299 346//346 301//301
f 299//299 342//342 346//346
f 299//299 338//338 342//342
f 297//297 338//338 299//299
f 297//297 334//334 338//338
f 295//295 334//334 297//297
f 295//295 331//331 334//334
f 293//293 331//331 295//295
f 293//293 327//327 331//331
f 291//291 327//327 293//293
f 291//291 323//323 327//327
f 291//291 319//319 323//323
f 319//319 291//291 288//288
f 348//348 310//310 352//352
f 348//348 308//308 310//310
f 344//344 308//308 348//348
f 344//344 306//306 308//308
f 341//341 306//306 344//344
f 341//341 304//304 306//306
f 337//337 304//304 341//341
f 337//337 302//302 304//304
f 333//333 302//302 337//337
f 329//329 302//302 333//333
f 329//329 300//300 302//302
f 325//325 300//300 329//329
f 325//325 298//298 300//300
f 321//321 298//298 325//325
f 321//321 296//296 298//298
f 316//316 296//296 321//321
f 316//316 294//294 296//296
f 313//313 294//294 316//316
f 313//313 292//292 294//294
f 315//315 292//292 313//313
f 319//319 292//292 315//315
f 288//288 292//292 319//319
f 288//288 290//290 292//292
f 290//290 288//288 289//289
f 243//243 247//247 245//245
f 243//243 427//427 247//247
f 243//243 423//423 427//427
f 240//240 423//423 243//243
f 240//240 419//419 423//423
f 241//241 419//419 240//240
f 241//241 414//414 419//419
f 242//242 414//414 241//241
f 242//242 409//409 414//414
f 244//244 409//409 242//242
f 244//244 410//410 409//409
f 246//246 410//410 244//244
f 246//246 413//413 410//410
f 246//246 417//417 413//413
f 248//248 417//417 246//246
f 248//248 421//421 417//417
f 250//250 421//421 248//248
f 250//250 425//425 421//421
f 252//252 425//425 250//250
f 252//252 428//428 425//425
f 254//254 428//428 252//252
f 254//254 432//432 428//428
f 432//432 256//256 436//436
f 256//256 432//432 254//254
f 431//431 247//247 427//427
f 431//431 249//249 247//247
f 435//435 249//249 431//431
f 435//435 251//251 249//249
f 439//439 251//251 435//435
f 439//439 253//253 251//251
f 442//442 253//253 439//439
f 442//442 255//255 253//253
f 446//446 255//255 442//442
f 450//450 255//255 446//446
f 450//450 257//257 255//255
f 454//454 257//257 450//450
f 454//454 259//259 257//257
f 453//453 259//259 454//454
f 453//453 261//261 259//259
f 448//448 261//261 453//453
f 448//448 263//263 261//261
f 444//444 263//263 448//448
f 444//444 262//262 263//263
f 440//440 262//262 444//444
f 440//440 260//260 262//262
f 436//436 260//260 440//440
f 256//256 260//260 436//436
f 260//260 256//256 258//258
f 117//117 556//556 557//557
f 556//556 117//117 60//60
f 63//63 558//558 61//61
f 558//558 63//63 559//559
f 560//560 133//133 190//190
f 133//133 560//560 561//561
f 558//558 190//190 61//61
f 190//190 558//558 560//560
f 62//62 562//562 563//563
f 562//562 62//62 191//191
f 563//563 60//60 62//62
f 60//60 563//563 556//556
f 357//357 349//349 353//353
f 358//358 349//349 357//357
f 358//358 345//345 349//349
f 355//355 345//345 358//358
f 355//355 340//340 345//345
f 351//351 340//340 355//355
f 351//351 336//336 340//340
f 347//347 336//336 351//351
f 347//347 332//332 336//336
f 343//343 332//332 347//347
f 343//343 328//328 332//332
f 339//339 328//328 343//343
f 339//339 324//324 328//328
f 335//335 324//324 339//339
f 335//335 320//320 324//324
f 330//330 320//320 335//335
f 330//330 317//317 320//320
f 326//326 317//317 330//330
f 326//326 314//314 317//317
f 322//322 314//314 326//326
f 322//322 312//312 314//314
f 312//312 322//322 318//318
f 404//404 396//396 400//400
f 406//406 396//396 404//404
f 406//406 392//392 396//396
f 402//402 392//392 406//406
f 402//402 388//388 392//392
f 398//398 388//388 402//402
f 398//398 384//384 388//388
f 394//394 384//384 398//398
f 394//394 380//380 384//384
f 390//390 380//380 394//394
f 390//390 376//376 380//380
f 386//386 376//376 390//390
f 386//386 372//372 376//376
f 382//382 372//372 386//386
f 382//382 368//368 372//372
f 379//379 368//368 382//382
f 379//379 365//365 368//368
f 375//375 365//365 379//379
f 375//375 363//363 365//365
f 371//371 363//363 375//375
f 371//371 361//361 363//363
f 361//361 371//371 367//367
f 422//422 430//430 426//426
f 418//418 430//430 422//422
f 418//418 434//434 430//430
f 415//415 434//434 418//418
f 415//415 438//438 434//434
f 411//411 438//438 415//415
f 411//411 443//443 438//438
f 408//408 443//443 411//411
f 408//408 447//447 443//443
f 412//412 447//447 408//408
f 412//412 451//451 447//447
f 416//416 451//451 412//412
f 416//416 455//455 451//451
f 420//420 455//455 416//416
f 420//420 452//452 455//455
f 424//424 452//452 420//420
f 424//424 449//449 452//452
f 429//429 449//449 424//424
f 429//429 445//445 449//449
f 433//433 445//445 429//429
f 433//433 441//441 445//445
f 441//441 433//433 437//437
f 461//461 457//457 459//459
f 465//465 457//457 461//461
f 465//465 462//462 457//457
f 469//469 462//462 465//465
f 469//469 466//466 462//462
f 472//472 466//466 469//469
f 472//472 471//471 466//466
f 476//476 471//471 472//472
f 476//476 475//475 471//471
f 480//480 475//475 476//476
f 480//480 479//479 475//475
f 484//484 479//479 480//480
f 484//484 483//483 479//479
f 488//488 483//483 484//484
f 488//488 486//486 483//483
f 492//492 486//486 488//488
f 492//492 491//491 486//486
f 497//497 491//491 492//492
f 497//497 494//494 491//491
f 501//501 494//494 497//497
f 501//501 498//498 494//494
f 498//498 501//501 502//502
f 521//521 513//513 517//517
f 525//525 513//513 521//521
f 525//525 509//509 513//513
f 529//529 509//509 525//525
f 529//529 504//504 509//509
f 532//532 504//504 529//529
f 532//532 507//507 504//504
f 536//536 507//507 532//532
f 536//536 511//511 507//507
f 540//540 511//511 536//536
f 540//540 515//515 511//511
f 544//544 515//515 540//540
f 544//544 519//519 515//515
f 548//548 519//519 544//544
f 548//548 523//523 519//519
f 550//550 523//523 548//548
f 550//550 527//527 523//523
f 546//546 527//527 550//550
f 546//546 530//530 527//527
f 542//542 530//530 546//546
f 542//542 534//534 530//530
f 534//534 542//542 538//538
f 62//62 58//58 191//191
f 62//62 56//56 58//58
f 56//56 190//190 52//52
f 56//56 61//61 190//190
f 61//61 56//56 62//62
f 53//53 191//191 58//58
f 52//52 191//191 53//53
f 191//191 52//52 190//190
f 564//564 565//565 566//566
f 567//567 566//566 565//565
f 566//566 567//567 568//568
f 569//569 568//568 567//567
f 569//569 570//570 568//568
f 571//571 568//568 570//570
f 572//572 573//573 570//570
f 571//571 570//570 573//573
f 574//574 575//575 572//572
f 573//573 572//572 575//575
f 576//576 577//577 574//574
f 575//575 574//574 577//577
f 576//576 578//578 577//577
f 579//579 577//577 578//578
f 580//580 581//581 582//582
f 583//583 582//582 581//581
f 583//583 581//581 564//564
f 565//565 564//564 581//581
f 571//571 573//573 568//568
f 579//579 568//568 573//573
f 582//582 568//568 579//579
f 566//566 568//568 582//582
f 583//583 566//566 582//582
f 564//564 566//566 583//583
f 575//575 577//577 573//573
f 579//579 573//573 577//577
f 57//57 584//584 585//585
f 57//57 54//54 59//59
f 55//55 59//59 54//54
f 586//586 584//584 59//59
f 57//57 59//59 584//584
f 587//587 588//588 589//589
f 588//588 587//587 590//590
f 591//591 592//592 593//593
f 594//594 593//593 592//592
f 595//595 596//596 597//597
f 598//598 597//597 596//596
f 599//599 600//600 601//601
f 602//602 600//600 599//599
f 602//602 603//603 600//600
f 604//604 603//603 602//602
f 604//604 605//605 603//603
f 606//606 605//605 604//604
f 606//606 607//607 605//605
f 608//608 607//607 606//606
f 608//608 609//609 607//607
f 610//610 609//609 608//608
f 610//610 611//611 609//609
f 612//612 611//611 610//610
f 612//612 613//613 611//611
f 614//614 613//613 612//612
f 614//614 615//615 613//613
f 616//616 615//615 614//614
f 616//616 617//617 615//615
f 618//618 617//617 616//616
f 618//618 619//619 617//617
f 620//620 619//619 618//618
f 620//620 621//621 619//619
f 621//621 620//620 622//622
f 565//565 566//566 567//567
f 566//566 565//565 564//564
f 567//567 568//568 569//569
f 568//568 567//567 566//566
f 570//570 568//568 571//571
f 568//568 570//570 569//569
f 573//573 570//570 571//571
f 570//570 573//573 572//572
f 575//575 572//572 573//573
f 572//572 575//575 574//574
f 577//577 574//574 575//575
f 574//574 577//577 576//576
f 578//578 577//577 579//579
f 577//577 578//578 576//576
f 581//581 582//582 583//583
f 582//582 581//581 580//580
f 581//581 564//564 565//565
f 564//564 581//581 583//583
f 577//577 573//573 579//579
f 573//573 577//577 575//575
f 583//583 566//566 564//564
f 582//582 566//566 583//583
f 582//582 568//568 566//566
f 579//579 568//568 582//582
f 573//573 568//568 579//579
f 568//568 573//573 571//571
f 580//580 579//579 582//582
f 579//579 580//580 578//578
f 590//590 57//57 54//54
f 57//57 590//590 584//584
f 590//590 586//586 623//623
f 586//586 590//590 584//584
f 623//623 54//54 55//55
f 54//54 623//623 590//590
f 588//588 590//590 623//623
f 552//552 555//555 554//554
f 555//555 552//552 553//553
f 559//559 560//560 558//558
f 560//560 559//559 561//561
f 52//52 57//57 54//54
f 57//57 52//52 56//56
f 55//55 58//58 53//53
f 58//58 55//55 59//59
f 53//53 54//54 55//55
f 54//54 53//53 52//52
f 585//585 584//584 57//57
f 54//54 59//59 55//55
f 59//59 54//54 57//57
f 584//584 59//59 57//57
f 59//59 584//584 586//586
f 57//57 58//58 59//59
f 58//58 57//57 56//56
f 624//624 585//585 625//625
f 585//585 624//624 584//584
f 588//588 55//55 626//626
f 588//588 54//54 55//55
f 54//54 585//585 57//57
f 54//54 597//597 585//585
f 54//54 598//598 597//597
f 598//598 589//589 593//593
f 54//54 589//589 598//598
f 589//589 54//54 588//588
f 594//594 585//585 597//597
f 593//593 585//585 594//594
f 593//593 625//625 585//585
f 625//625 593//593 589//589
f 625//625 57//57 585//585
f 57//57 625//625 627//627
f 63//63 190//190 61//61
f 190//190 63//63 133//133
f 60//60 191//191 62//62
f 191//191 60//60 117//117
f 597//597 592//592 594//594
f 592//592 597//597 595//595
f 592//592 593//593 594//594
f 593//593 592//592 591//591
f 596//596 597//597 598//598
f 597//597 596//596 595//595
f 596//596 593//593 591//591
f 593//593 596//596 598//598
f 552//552 628//628 553//553
f 628//628 552//552 629//629
f 553//553 628//628 552//552
f 629//629 552//552 628//628
f 616//616 630//630 631//631
f 630//630 616//616 614//614
f 616//616 632//632 618//618
f 632//632 616//616 631//631
f 618//618 633//633 620//620
f 633//633 618//618 632//632
f 620//620 634//634 622//622
f 634//634 620//620 633//633
f 622//622 635//635 621//621
f 635//635 622//622 634//634
f 621//621 636//636 619//619
f 636//636 621//621 635//635
f 619//619 637//637 617//617
f 637//637 619//619 636//636
f 615//615 637//637 638//638
f 637//637 615//615 617//617
f 613//613 638//638 639//639
f 638//638 613//613 615//615
f 611//611 639//639 640//640
f 639//639 611//611 613//613
f 609//609 640//640 641//641
f 640//640 609//609 611//611
f 607//607 641//641 642//642
f 641//641 607//607 609//609
f 605//605 642//642 643//643
f 642//642 605//605 607//607
f 644//644 605//605 643//643
f 605//605 644//644 603//603
f 645//645 603//603 644//644
f 603//603 645//645 600//600
f 646//646 600//600 645//645
f 600//600 646//646 601//601
f 647//647 601//601 646//646
f 601//601 647//647 599//599
f 648//648 599//599 647//647
f 599//599 648//648 602//602
f 649//649 602//602 648//648
f 602//602 649//649 604//604
f 606//606 649//649 650//650
f 649//649 606//606 604//604
f 608//608 650//650 651//651
f 650//650 608//608 606//606
f 610//610 651//651 652//652
f 651//651 610//610 608//608
f 612//612 652//652 653//653
f 652//652 612//612 610//610
f 614//614 653//653 630//630
f 653//653 614//614 612//612
f 645//645 647//647 646//646
f 645//645 648//648 647//647
f 645//645 625//625 648//648
f 644//644 625//625 645//645
f 643//643 625//625 644//644
f 642//642 625//625 643//643
f 641//641 625//625 642//642
f 640//640 625//625 641//641
f 639//639 625//625 640//640
f 638//638 625//625 639//639
f 637//637 625//625 638//638
f 637//637 589//589 625//625
f 589//589 632//632 587//587
f 637//637 632//632 589//589
f 636//636 632//632 637//637
f 636//636 633//633 632//632
f 635//635 633//633 636//636
f 633//633 635//635 634//634
f 624//624 648//648 625//625
f 624//624 649//649 648//648
f 624//624 650//650 649//649
f 624//624 651//651 650//650
f 624//624 652//652 651//651
f 624//624 653//653 652//652
f 624//624 630//630 653//653
f 624//624 631//631 630//630
f 587//587 631//631 624//624
f 631//631 587//587 632//632
f 117//117 562//562 191//191
f 562//562 117//117 557//557
f 562//562 556//556 563//563
f 556//556 562//562 557//557
f 590//590 595//595 584//584
f 590//590 596//596 595//595
f 596//596 587//587 591//591
f 587//587 596//596 590//590
f 592//592 584//584 595//595
f 591//591 584//584 592//592
f 591//591 624//624 584//584
f 624//624 591//591 587//587
f 584//584 624//624 585//585
f 625//625 585//585 624//624
f 589//589 593//593 625//625
f 585//585 625//625 593//593
f 594//594 585//585 593//593
f 597//597 585//585 594//594
f 588//588 54//54 589//589
f 598//598 589//589 54//54
f 593//593 589//589 598//598
f 597//597 598//598 54//54
f 585//585 597//597 54//54
f 57//57 585//585 54//54
f 55//55 54//54 588//588
f 626//626 55//55 588//588
f 561//561 63//63 133//133
f 63//63 561//561 559//559
f 598//598 596//596 593//593
f 591//591 593//593 596//596