# https://github.com/mikedh/trimesh
v 0.00347500 0.01085100 0.11836100
v 0.00024500 0.01127600 0.14878500
v 0.00347500 0.01085100 0.14878500
v 0.00024500 0.01127600 0.11836100
v 0.00648600 0.00960400 0.11836100
v 0.00648600 0.00960400 0.14878500
v 0.00907100 0.00762000 0.11836100
v 0.00907100 0.00762000 0.14878500
v 0.01105400 0.00503500 0.11836100
v 0.01105400 0.00503500 0.14878500
v 0.01230100 0.00202500 0.14878500
v 0.01230100 0.00202500 0.11836100
v 0.01272600 -0.00120500 0.14878500
v 0.01272600 -0.00120500 0.11836100
v 0.01230100 -0.00443600 0.14878500
v 0.01230100 -0.00443600 0.11836100
v 0.01105400 -0.00744600 0.14878500
v 0.01105400 -0.00744600 0.11836100
v 0.00907100 -0.01003100 0.14878500
v 0.00907100 -0.01003100 0.11836100
v 0.00648600 -0.01201400 0.11836100
v 0.00648600 -0.01201400 0.14878500
v 0.00347500 -0.01326100 0.11836100
v 0.00347500 -0.01326100 0.14878500
v 0.00024500 -0.01368700 0.11836100
v 0.00024500 -0.01368700 0.14878500
v -0.00298500 -0.01326100 0.11836100
v -0.00298500 -0.01326100 0.14878500
v -0.00298500 0.01085100 0.14878500
v -0.00298500 0.01085100 0.11836100
v 0.00024500 0.01205600 0.14956400
v 0.00367700 0.01160400 0.14956400
v 0.00687600 0.01027900 0.14956400
v 0.00962200 0.00817200 0.14956400
v 0.01173000 0.00542500 0.14956400
v 0.01305400 0.00222700 0.14956400
v 0.01350600 -0.00120500 0.14956400
v 0.01305400 -0.00463800 0.14956400
v 0.01173000 -0.00783600 0.14956400
v 0.00962200 -0.01058300 0.14956400
v 0.00687600 -0.01269000 0.14956400
v 0.00367700 -0.01401500 0.14956400
v 0.00024500 -0.01446700 0.14956400
v -0.00599600 -0.01201400 0.11836100
v -0.00599600 -0.01201400 0.14878500
v -0.00318700 -0.01401500 0.14956400
v -0.00599600 0.00960400 0.14878500
v -0.00599600 0.00960400 0.11836100
v -0.00318700 0.01160400 0.14956400
v -0.00638600 0.01027900 0.16126700
v -0.00318700 0.01160400 0.16126700
v -0.00638600 0.01027900 0.14956400
v 0.00024500 0.01205600 0.16126700
v 0.00367700 0.01160400 0.16126700
v 0.00687600 0.01027900 0.16126700
v 0.00962200 0.00817200 0.16126700
v 0.01173000 0.00542500 0.16126700
v 0.01305400 0.00222700 0.16126700
v 0.01350600 -0.00120500 0.16126700
v 0.01305400 -0.00463800 0.16126700
v 0.01173000 -0.00783600 0.16126700
v 0.00962200 -0.01058300 0.16126700
v 0.00687600 -0.01269000 0.16126700
v 0.00367700 -0.01401500 0.16126700
v 0.00024500 -0.01446700 0.16126700
v -0.00318700 -0.01401500 0.16126700
v -0.00638600 -0.01269000 0.14956400
v -0.00638600 -0.01269000 0.16126700
v -0.00858100 -0.01003100 0.11836100
v -0.00858100 -0.01003100 0.14878500
v -0.00913200 -0.01058300 0.14956400
v -0.00913200 -0.01058300 0.16126700
v -0.00858100 0.00762000 0.14878500
v -0.00858100 0.00762000 0.11836100
v -0.00913200 0.00817200 0.16126700
v -0.00913200 0.00817200 0.14956400
v -0.01056400 0.00503500 0.16204600
v -0.00858100 0.00762000 0.16204600
v -0.01124000 0.00542500 0.16126700
v -0.00599600 0.00960400 0.16204600
v -0.00298500 0.01085100 0.16204600
v 0.00024500 0.01127600 0.16204600
v 0.00347500 0.01085100 0.16204600
v 0.00648600 0.00960400 0.16204600
v 0.00907100 0.00762000 0.16204600
v 0.01105400 0.00503500 0.16204600
v 0.01230100 0.00202500 0.16204600
v 0.01272600 -0.00120500 0.16204600
v 0.01230100 -0.00443600 0.16204600
v 0.01105400 -0.00744600 0.16204600
v 0.00907100 -0.01003100 0.16204600
v 0.00648600 -0.01201400 0.16204600
v 0.00347500 -0.01326100 0.16204600
v 0.00024500 -0.01368700 0.16204600
v -0.00298500 -0.01326100 0.16204600
v -0.00599600 -0.01201400 0.16204600
v -0.00858100 -0.01003100 0.16204600
v -0.01056400 -0.00744600 0.16204600
v -0.01124000 -0.00783600 0.16126700
v -0.01181100 -0.00443600 0.16204600
v -0.01256500 -0.00463800 0.16126700
v -0.01056400 -0.00744600 0.14878500
v -0.01056400 -0.00744600 0.11836100
v -0.01124000 -0.00783600 0.14956400
v -0.01056400 0.00503500 0.14878500
v -0.01056400 0.00503500 0.11836100
v -0.01124000 0.00542500 0.14956400
v -0.01181100 0.00202500 0.16204600
v -0.01256500 0.00222700 0.16126700
v -0.01223600 -0.00120500 0.16204600
v -0.01301600 -0.00120500 0.16126700
v -0.01181100 -0.00443600 0.14878500
v -0.01181100 -0.00443600 0.11836100
v -0.01256500 -0.00463800 0.14956400
v -0.01181100 0.00202500 0.11836100
v -0.01181100 0.00202500 0.14878500
v -0.01256500 0.00222700 0.14956400
v -0.01223600 -0.00120500 0.14878500
v -0.01223600 -0.00120500 0.11836100
v -0.01301600 -0.00120500 0.14956400
v 0.01230100 -0.00443600 0.09651900
v 0.01272600 -0.00120500 0.09651900
v 0.01230100 0.00202500 0.09651900
v 0.01105400 -0.00744600 0.09651900
v 0.01327200 -0.00469600 0.09290300
v 0.01373200 -0.00120500 0.09290300
v 0.01327200 0.00228500 0.09290300
v 0.01105400 0.00503500 0.09651900
v 0.00907100 -0.01003100 0.09651900
v 0.01192500 -0.00794900 0.09290300
v 0.01583300 -0.00538200 0.08952900
v 0.01638300 -0.00120500 0.08952900
v 0.01583300 0.00297100 0.08952900
v 0.01192500 0.00553800 0.09290300
v 0.00907100 0.00762000 0.09651900
v 0.00648600 -0.01201400 0.09651900
v 0.00978200 -0.01074200 0.09290300
v 0.01422100 -0.00927400 0.08952900
v 0.01945300 -0.00635200 0.08606900
v 0.02013100 -0.00120500 0.08606900
v 0.01945300 0.00394200 0.08606900
v 0.01422100 0.00686400 0.08952900
v 0.00978200 0.00833100 0.09290300
v 0.00648600 0.00960400 0.09651900
v 0.00347500 -0.01326100 0.09651900
v 0.00698800 -0.01288500 0.09290300
v 0.01165600 -0.01261700 0.08952900
v 0.01746700 -0.01114800 0.08606900
v 0.02360300 -0.00746400 0.08219300
v 0.02442700 -0.00120500 0.08219300
v 0.02360300 0.00505400 0.08219300
v 0.01746700 0.00873800 0.08606900
v 0.01165600 0.01020600 0.08952900
v 0.00698800 0.01047500 0.09290300
v 0.00347500 0.01085100 0.09651900
v 0.00024500 -0.01368700 0.09651900
v 0.00373600 -0.01423300 0.09290300
v 0.00831400 -0.01518100 0.08952900
v 0.01430600 -0.01526700 0.08606900
v 0.02118800 -0.01329700 0.08219300
v 0.03470900 -0.01044000 -0.12712600
v 0.03592500 -0.00120500 -0.12712600
v 0.03446600 -0.01037500 -0.12865200
v 0.03567300 -0.00120500 -0.12865200
v 0.02775300 -0.00857600 0.07757300
v 0.02872400 -0.00120500 0.07757300
v 0.03092700 -0.01891900 -0.12865200
v 0.03062500 -0.01874500 -0.13027300
v 0.03412900 -0.01028500 -0.13027300
v 0.03532500 -0.00120500 -0.13027300
v 0.03412900 0.00787400 -0.13027300
v 0.03446600 0.00796400 -0.12865200
v 0.03062500 0.01633500 -0.13027300
v 0.03092700 0.01650900 -0.12865200
v 0.03470900 0.00802900 -0.12712600
v 0.02775300 0.00616600 0.07757300
v 0.02118800 0.01088600 0.08219300
v 0.01430600 0.01285600 0.08606900
v 0.00831400 0.01277100 0.08952900
v 0.00373600 0.01182200 0.09290300
v 0.00024500 0.01127600 0.09651900
v -0.00298500 -0.01326100 0.09651900
v 0.00024500 -0.01469200 0.09290300
v 0.00442200 -0.01679300 0.08952900
v 0.01018800 -0.01842700 0.08606900
v 0.02529600 -0.02625700 -0.12865200
v 0.02505000 -0.02601000 -0.13027300
v 0.01734500 -0.01830500 0.08219300
v 0.03114400 -0.01904500 -0.12712600
v 0.02490900 -0.01544500 0.07757300
v 0.03485600 -0.01047900 -0.12586100
v 0.03607700 -0.00120500 -0.12586100
v 0.03137400 -0.00954600 0.07188000
v 0.03247200 -0.00120500 0.07188000
v 0.02473700 -0.02569700 -0.13182300
v 0.01756300 -0.03120200 -0.13182300
v 0.01778500 -0.03158500 -0.13027300
v 0.03024200 -0.01852400 -0.13182300
v 0.03370200 -0.01017000 -0.13182300
v 0.03488200 -0.00120500 -0.13182300
v 0.03370200 0.00775900 -0.13182300
v 0.03024200 0.01611300 -0.13182300
v 0.02473700 0.02328700 -0.13182300
v 0.02505000 0.02360000 -0.13027300
v 0.01756300 0.02879100 -0.13182300
v 0.01778500 0.02917500 -0.13027300
v 0.02529600 0.02384600 -0.12865200
v 0.03114400 0.01663500 -0.12712600
v 0.03485600 0.00806900 -0.12586100
v 0.03137400 0.00713600 0.07188000
v 0.02490900 0.01303400 0.07757300
v 0.01734500 0.01589400 0.08219300
v 0.01018800 0.01601600 0.08606900
v 0.00442200 0.01438300 0.08952900
v 0.00024500 0.01228200 0.09290300
v -0.00298500 0.01085100 0.09651900
v -0.00599600 -0.01201400 0.09651900
v -0.00324600 -0.01423300 0.09290300
v 0.00024500 -0.01734300 0.08952900
v 0.00921000 -0.03466200 -0.13182300
v 0.00932400 -0.03509000 -0.13027300
v 0.00539200 -0.02041400 0.08606900
v 0.01795900 -0.03188700 -0.12865200
v 0.01233600 -0.02214800 0.08219300
v 0.02547400 -0.02643500 -0.12712600
v 0.02038300 -0.02134300 0.07757300
v 0.03127700 -0.01912100 -0.12586100
v 0.02815400 -0.01731900 0.07188000
v 0.03490600 -0.01049300 0.05595400
v 0.03612900 -0.00120500 0.05595400
v 0.03393500 -0.01023200 0.06478300
v 0.03512300 -0.00120500 0.06478300
v 0.02435800 -0.02531900 -0.13313600
v 0.01729600 -0.03073800 -0.13313600
v 0.02977800 -0.01825600 -0.13313600
v 0.03318500 -0.01003100 -0.13313600
v 0.03434700 -0.00120500 -0.13313600
v 0.03318500 0.00762100 -0.13313600
v 0.02977800 0.01584500 -0.13313600
v 0.02435800 0.02290800 -0.13313600
v 0.01729600 0.02832800 -0.13313600
v 0.00907100 0.03173400 -0.13313600
v 0.00921000 0.03225100 -0.13182300
v 0.00907100 -0.03414500 -0.13313600
v 0.00024500 -0.03530700 -0.13313600
v 0.00024500 -0.03584200 -0.13182300
v 0.00024500 0.03289600 -0.13313600
v 0.00024500 0.03343200 -0.13182300
v 0.00932400 0.03267900 -0.13027300
v 0.01795900 0.02947600 -0.12865200
v 0.02547400 0.02402400 -0.12712600
v 0.03127700 0.01671100 -0.12586100
v 0.03490600 0.00808200 0.05595400
v 0.03393500 0.00782200 0.06478300
v 0.02815400 0.01490800 0.07188000
v 0.02038300 0.01893200 0.07757300
v 0.01233600 0.01973700 0.08219300
v 0.00539200 0.01800300 0.08606900
v 0.00024500 0.01493300 0.08952900
v -0.00324600 0.01182200 0.09290300
v -0.00599600 0.00960400 0.09651900
v -0.00858100 -0.01003100 0.09651900
v -0.00649800 -0.01288500 0.09290300
v -0.00858100 -0.03414500 -0.13313600
v -0.00872000 -0.03466200 -0.13182300
v -0.00393200 -0.01679300 0.08952900
v 0.00024500 -0.03628500 -0.13027300
v 0.00024500 -0.02109100 0.08606900
v 0.00941400 -0.03542600 -0.12865200
v 0.00650400 -0.02456400 0.08219300
v 0.01808500 -0.03210500 -0.12712600
v 0.01448400 -0.02586900 0.07757300
v 0.02558200 -0.02654300 -0.12586100
v 0.02303300 -0.02399300 0.07188000
v 0.03132100 -0.01914700 0.05595400
v 0.03045000 -0.01864400 0.06478300
v 0.02391600 -0.02487700 -0.13404500
v 0.01698300 -0.03019700 -0.13404500
v 0.02923700 -0.01794400 -0.13404500
v 0.03258100 -0.00987000 -0.13404500
v 0.03372100 -0.00120500 -0.13404500
v 0.03258100 0.00745900 -0.13404500
v 0.02923700 0.01553300 -0.13404500
v 0.02391600 0.02246600 -0.13404500
v 0.01698300 0.02778600 -0.13404500
v 0.00890900 0.03113000 -0.13404500
v 0.00024500 0.03227100 -0.13404500
v -0.00841900 0.03113000 -0.13404500
v -0.00858100 0.03173400 -0.13313600
v -0.00841900 -0.03354100 -0.13404500
v -0.01649300 -0.03019700 -0.13404500
v -0.01680600 -0.03073800 -0.13313600
v 0.00024500 -0.03468200 -0.13404500
v 0.00890900 -0.03354100 -0.13404500
v -0.01649300 0.02778600 -0.13404500
v -0.01680600 0.02832800 -0.13313600
v -0.00872000 0.03225100 -0.13182300
v 0.00024500 0.03387400 -0.13027300
v 0.00941400 0.03301600 -0.12865200
v 0.01808500 0.02969400 -0.12712600
v 0.02558200 0.02413200 -0.12586100
v 0.03132100 0.01673700 0.05595400
v 0.03045000 0.01623400 0.06478300
v 0.02303300 0.02158300 0.07188000
v 0.01448400 0.02345800 0.07757300
v 0.00650400 0.02215300 0.08219300
v 0.00024500 0.01868100 0.08606900
v -0.00393200 0.01438300 0.08952900
v -0.00649800 0.01047500 0.09290300
v -0.00858100 0.00762000 0.09651900
v -0.01056400 -0.00744600 0.09651900
v -0.02342600 -0.02487700 -0.13404500
v -0.02386900 -0.02531900 -0.13313600
v -0.00929200 -0.01074200 0.09290300
v -0.01707300 -0.03120200 -0.13182300
v -0.00782400 -0.01518100 0.08952900
v -0.00883400 -0.03509000 -0.13027300
v -0.00490200 -0.02041400 0.08606900
v 0.00024500 -0.03663300 -0.12865200
v 0.00024500 -0.02538800 0.08219300
v 0.00948000 -0.03566900 -0.12712600
v 0.00761600 -0.02871400 0.07757300
v 0.01816100 -0.03223700 -0.12586100
v 0.01635900 -0.02911500 0.07188000
v 0.02561900 -0.02657900 0.05595400
v 0.02490800 -0.02586800 0.06478300
v 0.01662700 -0.02957900 -0.13438500
v 0.02341200 -0.02437300 -0.13438500
v 0.02861900 -0.01758700 -0.13438500
v 0.03189200 -0.00968500 -0.13438500
v 0.03300800 -0.00120500 -0.13438500
v 0.03189200 0.00727400 -0.13438500
v 0.02861900 0.01517600 -0.13438500
v 0.02341200 0.02196200 -0.13438500
v 0.01662700 0.02716900 -0.13438500
v 0.00872500 0.03044200 -0.13438500
v 0.00024500 0.03155800 -0.13438500
v -0.00823500 0.03044200 -0.13438500
v -0.01613700 0.02716900 -0.13438500
v -0.02342600 0.02246600 -0.13404500
v -0.02292200 0.02196200 -0.13438500
v -0.02874700 -0.01794400 -0.13404500
v -0.02812900 -0.01758700 -0.13438500
v -0.02292200 -0.02437300 -0.13438500
v -0.01613700 -0.02957900 -0.13438500
v -0.00823500 -0.03285200 -0.13438500
v 0.00024500 -0.03396900 -0.13438500
v 0.00872500 -0.03285200 -0.13438500
v -0.02874700 0.01553300 -0.13404500
v -0.02812900 0.01517600 -0.13438500
v -0.02386900 0.02290800 -0.13313600
v -0.01707300 0.02879100 -0.13182300
v -0.00883400 0.03267900 -0.13027300
v 0.00024500 0.03422300 -0.12865200
v 0.00948000 0.03325900 -0.12712600
v 0.01816100 0.02982600 -0.12586100
v 0.02561900 0.02416800 0.05595400
v 0.02490800 0.02345700 0.06478300
v 0.01635900 0.02670400 0.07188000
v 0.00761600 0.02630300 0.07757300
v 0.00024500 0.02297700 0.08219300
v -0.00490200 0.01800300 0.08606900
v -0.00782400 0.01277100 0.08952900
v -0.00929200 0.00833100 0.09290300
v -0.01056400 0.00503500 0.09651900
v -0.03209100 -0.00987000 -0.13404500
v -0.03140200 -0.00968500 -0.13438500
v -0.01181100 -0.00443600 0.09651900
v -0.02928800 -0.01825600 -0.13313600
v -0.01143500 -0.00794900 0.09290300
v -0.02424700 -0.02569700 -0.13182300
v -0.01116600 -0.01261700 0.08952900
v -0.01729500 -0.03158500 -0.13027300
v -0.00969800 -0.01842700 0.08606900
v -0.00892500 -0.03542600 -0.12865200
v -0.00601400 -0.02456400 0.08219300
v 0.00024500 -0.03688500 -0.12712600
v 0.00024500 -0.02968400 0.07757300
v 0.00951900 -0.03581700 -0.12586100
v 0.00858600 -0.03233400 0.07188000
v 0.01818700 -0.03228200 0.05595400
v 0.01768400 -0.03141100 0.06478300
v -0.03251800 -0.00120500 -0.13438500
v -0.03140200 0.00727400 -0.13438500
v -0.03209100 0.00745900 -0.13404500
v -0.02928800 0.01584500 -0.13313600
v -0.02424700 0.02328700 -0.13182300
v -0.01729500 0.02917500 -0.13027300
v -0.00892500 0.03301600 -0.12865200
v 0.00024500 0.03447400 -0.12712600
v 0.00951900 0.03340600 -0.12586100
v 0.01818700 0.02987100 0.05595400
v 0.01768400 0.02900000 0.06478300
v 0.00858600 0.02992400 0.07188000
v 0.00024500 0.02727400 0.07757300
v -0.00601400 0.02215300 0.08219300
v -0.00969800 0.01601600 0.08606900
v -0.01116600 0.01020600 0.08952900
v -0.01143500 0.00553800 0.09290300
v -0.01181100 0.00202500 0.09651900
v -0.03323100 -0.00120500 -0.13404500
v -0.01223600 -0.00120500 0.09651900
v -0.03269500 -0.01003100 -0.13313600
v -0.01278200 -0.00469600 0.09290300
v -0.02975200 -0.01852400 -0.13182300
v -0.01373100 -0.00927400 0.08952900
v -0.02456000 -0.02601000 -0.13027300
v -0.01381700 -0.01526700 0.08606900
v -0.01746900 -0.03188700 -0.12865200
v -0.01184600 -0.02214800 0.08219300
v -0.00899000 -0.03566900 -0.12712600
v -0.00712600 -0.02871400 0.07757300
v 0.00024500 -0.03703800 -0.12586100
v 0.00024500 -0.03343300 0.07188000
v 0.00953200 -0.03586600 0.05595400
v 0.00927200 -0.03489500 0.06478300
v -0.03269500 0.00762100 -0.13313600
v -0.02975200 0.01611300 -0.13182300
v -0.02456000 0.02360000 -0.13027300
v -0.01746900 0.02947600 -0.12865200
v -0.00899000 0.03325900 -0.12712600
v 0.00024500 0.03462700 -0.12586100
v 0.00953200 0.03345600 0.05595400
v 0.00927200 0.03248400 0.06478300
v 0.00024500 0.03102200 0.07188000
v -0.00712600 0.02630300 0.07757300
v -0.01184600 0.01973700 0.08219300
v -0.01381700 0.01285600 0.08606900
v -0.01373100 0.00686400 0.08952900
v -0.01278200 0.00228500 0.09290300
v -0.03385700 -0.00120500 -0.13313600
v -0.01324200 -0.00120500 0.09290300
v -0.03321200 -0.01017000 -0.13182300
v -0.01534300 -0.00538200 0.08952900
v -0.03013500 -0.01874500 -0.13027300
v -0.01697700 -0.01114800 0.08606900
v -0.02480600 -0.02625700 -0.12865200
v -0.01685500 -0.01830500 0.08219300
v -0.01759500 -0.03210500 -0.12712600
v -0.01399500 -0.02586900 0.07757300
v -0.00902900 -0.03581700 -0.12586100
v -0.00809600 -0.03233400 0.07188000
v 0.00024500 -0.03708900 0.05595400
v 0.00024500 -0.03608400 0.06478300
v -0.03321200 0.00775900 -0.13182300
v -0.03013500 0.01633500 -0.13027300
v -0.02480600 0.02384600 -0.12865200
v -0.01759500 0.02969400 -0.12712600
v -0.00902900 0.03340600 -0.12586100
v 0.00024500 0.03467800 0.05595400
v 0.00024500 0.03367300 0.06478300
v -0.00809600 0.02992400 0.07188000
v -0.01399500 0.02345800 0.07757300
v -0.01685500 0.01589400 0.08219300
v -0.01697700 0.00873800 0.08606900
v -0.01534300 0.00297100 0.08952900
v -0.03439200 -0.00120500 -0.13182300
v -0.01589300 -0.00120500 0.08952900
v -0.03364000 -0.01028500 -0.13027300
v -0.01896300 -0.00635200 0.08606900
v -0.03043700 -0.01891900 -0.12865200
v -0.02069800 -0.01329700 0.08219300
v -0.02498400 -0.02643500 -0.12712600
v -0.01989300 -0.02134300 0.07757300
v -0.01767100 -0.03223700 -0.12586100
v -0.01586900 -0.02911500 0.07188000
v -0.00904200 -0.03586600 0.05595400
v -0.00878200 -0.03489500 0.06478300
v -0.03364000 0.00787400 -0.13027300
v -0.03043700 0.01650900 -0.12865200
v -0.02498400 0.02402400 -0.12712600
v -0.01767100 0.02982600 -0.12586100
v -0.00904200 0.03345600 0.05595400
v -0.00878200 0.03248400 0.06478300
v -0.01586900 0.02670400 0.07188000
v -0.01989300 0.01893200 0.07757300
v -0.02069800 0.01088600 0.08219300
v -0.01896300 0.00394200 0.08606900
v -0.03483500 -0.00120500 -0.13027300
v -0.01964100 -0.00120500 0.08606900
v -0.03397600 -0.01037500 -0.12865200
v -0.02311400 -0.00746400 0.08219300
v -0.03065400 -0.01904500 -0.12712600
v -0.02441900 -0.01544500 0.07757300
v -0.02509200 -0.02654300 -0.12586100
v -0.02254300 -0.02399300 0.07188000
v -0.01769700 -0.03228200 0.05595400
v -0.01719400 -0.03141100 0.06478300
v -0.03397600 0.00796400 -0.12865200
v -0.03065400 0.01663500 -0.12712600
v -0.02509200 0.02413200 -0.12586100
v -0.01769700 0.02987100 0.05595400
v -0.01719400 0.02900000 0.06478300
v -0.02254300 0.02158300 0.07188000
v -0.02441900 0.01303400 0.07757300
v -0.02311400 0.00505400 0.08219300
v -0.03518300 -0.00120500 -0.12865200
v -0.02393800 -0.00120500 0.08219300
v -0.03421900 -0.01044000 -0.12712600
v -0.02726400 -0.00857600 0.07757300
v -0.03078700 -0.01912100 -0.12586100
v -0.02766400 -0.01731900 0.07188000
v -0.02512900 -0.02657900 0.05595400
v -0.02441800 -0.02586800 0.06478300
v -0.03421900 0.00802900 -0.12712600
v -0.03078700 0.01671100 -0.12586100
v -0.02512900 0.02416800 0.05595400
v -0.02441800 0.02345700 0.06478300
v -0.02766400 0.01490800 0.07188000
v -0.02726400 0.00616600 0.07757300
v -0.03543500 -0.00120500 -0.12712600
v -0.02823400 -0.00120500 0.07757300
v -0.03436600 -0.01047900 -0.12586100
v -0.03088400 -0.00954600 0.07188000
v -0.03083100 -0.01914700 0.05595400
v -0.02996100 -0.01864400 0.06478300
v -0.03436600 0.00806900 -0.12586100
v -0.03083100 0.01673700 0.05595400
v -0.02996100 0.01623400 0.06478300
v -0.03088400 0.00713600 0.07188000
v -0.03558700 -0.00120500 -0.12586100
v -0.03198200 -0.00120500 0.07188000
v -0.03441600 -0.01049300 0.05595400
v -0.03344500 -0.01023200 0.06478300
v -0.03441600 0.00808200 0.05595400
v -0.03344500 0.00782200 0.06478300
v -0.03563900 -0.00120500 0.05595400
v -0.03463300 -0.00120500 0.06478300
vn 0.25875715 0.96594241 0.00000000
vn -0.00002074 0.91881012 -0.39469983
vn 0.23776945 0.88754973 -0.39461520
vn 0.00000000 1.00000000 0.00000000
vn 0.50002428 0.86601139 0.00000000
vn 0.45944888 0.79573926 -0.39459570
vn 0.70719286 0.70702069 0.00000000
vn 0.64978240 0.64961897 -0.39468725
vn 0.86604290 0.49996970 0.00000000
vn 0.79566328 0.45938073 -0.39482818
vn 0.88754390 0.23776171 -0.39463300
vn 0.96592721 0.25881387 0.00000000
vn 0.91881092 0.00003964 -0.39469797
vn 1.00000000 0.00002002 0.00000000
vn 0.88753710 -0.23776222 -0.39464797
vn 0.96593239 -0.25879454 0.00000000
vn 0.79566328 -0.45938073 -0.39482818
vn 0.86604290 -0.49996970 0.00000000
vn 0.64971942 -0.64965931 -0.39472453
vn 0.70710678 -0.70710678 0.00000000
vn 0.49991884 -0.86607225 0.00000000
vn 0.45930763 -0.79569198 -0.39485539
vn 0.25890412 -0.96590303 0.00000000
vn 0.23786570 -0.88740153 -0.39489041
vn 0.00000000 -1.00000000 0.00000000
vn -0.00003161 -0.91878403 -0.39476057
vn -0.25890412 -0.96590303 0.00000000
vn -0.23783737 -0.88741783 -0.39487084
vn -0.23775084 0.88756044 -0.39460234
vn -0.25875715 0.96594241 0.00000000
vn -0.00001646 0.92817597 -0.37214159
vn 0.24025289 0.89658081 -0.37205026
vn 0.46411329 0.80385273 -0.37204790
vn 0.65630134 0.65632924 -0.37215652
vn 0.80380598 0.46403409 -0.37224765
vn 0.89659384 0.24017112 -0.37207165
vn 0.92817546 0.00003390 -0.37214286
vn 0.89659909 -0.24017184 -0.37205855
vn 0.80380598 -0.46403409 -0.37224765
vn 0.65630134 -0.65632924 -0.37215652
vn 0.46402926 -0.80379943 -0.37226781
vn 0.24024432 -0.89647779 -0.37230396
vn -0.00002507 -0.92816422 -0.37217090
vn -0.49991884 -0.86607225 0.00000000
vn -0.45930763 -0.79569198 -0.39485539
vn -0.24021827 -0.89647742 -0.37232165
vn -0.45944888 0.79573926 -0.39459570
vn -0.50002428 0.86601139 0.00000000
vn -0.24023578 0.89658057 -0.37206188
vn -0.46411329 0.80385273 0.37204790
vn -0.24025289 0.89658081 0.37205026
vn -0.46411329 0.80385273 -0.37204790
vn 0.00001646 0.92817597 0.37214159
vn 0.24023578 0.89658057 0.37206188
vn 0.46411329 0.80385273 0.37204790
vn 0.65630134 0.65632924 0.37215652
vn 0.80380598 0.46403409 0.37224765
vn 0.89659384 0.24017112 0.37207165
vn 0.92817546 0.00003390 0.37214286
vn 0.89659909 -0.24017184 0.37205855
vn 0.80380598 -0.46403409 0.37224765
vn 0.65630134 -0.65632924 0.37215652
vn 0.46402926 -0.80379943 0.37226781
vn 0.24021827 -0.89647742 0.37232165
vn 0.00002507 -0.92816422 0.37217090
vn -0.24024432 -0.89647779 0.37230396
vn -0.46402926 -0.80379943 -0.37226781
vn -0.46402926 -0.80379943 0.37226781
vn -0.70710678 -0.70710678 0.00000000
vn -0.64971942 -0.64965931 -0.39472453
vn -0.65630134 -0.65632924 -0.37215652
vn -0.65630134 -0.65632924 0.37215652
vn -0.64978240 0.64961897 -0.39468725
vn -0.70719286 0.70702069 0.00000000
vn -0.65630134 0.65632924 0.37215652
vn -0.65630134 0.65632924 -0.37215652
vn -0.35400858 0.20441341 0.91262976
vn -0.28921427 0.28913842 0.91255360
vn -0.80375100 0.46410023 0.37228390
vn -0.20454393 0.35425960 0.91250311
vn -0.10585100 0.39509542 0.91252133
vn 0.00002152 0.40892102 0.91256978
vn 0.10583331 0.39511259 0.91251595
vn 0.20454393 0.35425960 0.91250311
vn 0.28921427 0.28913842 0.91255360
vn 0.35400858 0.20441341 0.91262976
vn 0.39510538 0.10581417 0.91252129
vn 0.40891706 0.00003023 0.91257155
vn 0.39509396 -0.10582480 0.91252500
vn 0.35400858 -0.20441341 0.91262976
vn 0.28920739 -0.28914504 0.91255368
vn 0.20436698 -0.35402534 0.91263366
vn 0.10579386 -0.39480235 0.91265479
vn 0.00003279 -0.40895083 0.91255642
vn -0.10582077 -0.39477622 0.91266297
vn -0.20436698 -0.35402534 0.91263366
vn -0.28920739 -0.28914504 0.91255368
vn -0.35400858 -0.20441341 0.91262976
vn -0.80375100 -0.46410023 0.37228390
vn -0.39485779 -0.10576699 0.91263392
vn -0.89650645 -0.24013099 0.37230806
vn -0.79566328 -0.45938073 -0.39482818
vn -0.86604290 -0.49996970 0.00000000
vn -0.80375100 -0.46410023 -0.37228390
vn -0.79566328 0.45938073 -0.39482818
vn -0.86604290 0.49996970 0.00000000
vn -0.80375100 0.46410023 -0.37228390
vn -0.39485206 0.10577403 0.91263558
vn -0.89650145 0.24014733 0.37230955
vn -0.40890507 0.00000871 0.91257693
vn -0.92814892 0.00001741 0.37220905
vn -0.88743482 -0.23774007 -0.39489125
vn -0.96593239 -0.25879454 0.00000000
vn -0.89650645 -0.24013099 -0.37230806
vn -0.96592721 0.25881387 0.00000000
vn -0.88741620 0.23778374 -0.39490679
vn -0.89650179 0.24017084 -0.37229359
vn -0.91879781 -0.00000962 -0.39472849
vn -1.00000000 0.00002002 0.00000000
vn -0.92815533 -0.00000522 -0.37219308
vn 0.00000000 -0.00000000 0.00000000
vn -0.00000000 -0.00000000 -0.00000000
vn 0.00000000 0.00000000 0.00000000
vn 0.00000000 -0.00000000 0.00000000
vn -0.00000000 0.00000000 0.00000000
vn -0.00000000 -0.00000000 -0.00000000
vn 0.00000000 0.00000000 0.00000000
vn 0.00000000 0.00000000 -0.00000000
vn 0.00000000 -0.00000000 0.00000000
vn 0.00000000 0.00000000 0.00000000
vn -0.00000000 -0.00000000 0.00000000
vn 0.00000000 0.00000000 0.00000000
vn 0.00000000 -0.00000000 -0.00000000
vn 0.00000000 0.00000000 0.00000000
vn 0.00000000 0.00000000 0.00000000
vn -0.00000000 0.00000000 -0.00000000
vn -0.00000000 0.00000000 0.00000000
vn -0.00000000 0.00000000 -0.00000000
vn -0.00000000 -0.00000000 0.00000000
vn 0.00000000 -0.00000000 0.00000000
vn -0.00000000 -0.00000000 -0.00000000
vn 0.00000000 0.00000000 0.00000000
vn 0.00000000 0.00000000 0.00000000
vn -0.00000000 -0.00000000 0.00000000
vn 0.00000000 -0.00000000 0.00000000
vn 0.00000000 0.00000000 -0.00000000
vn 0.00000000 -0.00000000 -0.00000000
vn -0.00000000 0.00000000 -0.00000000
vn 0.00000000 -0.00000000 0.00000000
vn -0.00000000 0.00000000 -0.00000000
vn 0.00000000 0.00000000 0.00000000
vn 0.00000000 0.00000000 0.00000000
vn 0.00000000 0.00000000 0.00000000
vn -0.00000000 0.00000000 0.00000000
vn 0.00000000 0.00000000 0.00000000
vn -0.00000000 0.00000000 0.00000000
vn -0.00000000 0.00000000 -0.00000000
vn 0.00000000 -0.00000000 0.00000000
vn -0.00000000 0.00000000 -0.00000000
vn -0.00000000 0.00000000 -0.00000000
vn 0.00000000 0.00000000 -0.00000000
vn -0.00000000 0.00000000 0.00000000
vn -0.00000000 0.00000000 0.00000000
vn 0.00000000 -0.00000000 -0.00000000
vn 0.00000000 0.00000000 0.00000000
vn -0.00000000 0.00000000 0.00000000
vn 0.00000000 0.00000000 0.00000000
vn 0.00000000 0.00000000 -0.00000000
vn 0.00000000 -0.00000000 -0.00000000
vn 0.00000000 0.00000000 -0.00000000
vn -0.00000000 -0.00000000 0.00000000
vn 0.00000000 -0.00000000 -0.00000000
vn 0.00000000 0.00000000 -0.00000000
vn 0.00000000 0.00000000 0.00000000
vn 0.00000000 0.00000000 -0.00000000
vn 0.00000000 0.00000000 0.00000000
vn -0.00000000 0.00000000 0.00000000
vn 0.00000000 -0.00000000 0.00000000
vn 0.00000000 0.00000000 0.00000000
vn -0.00000000 -0.00000000 0.00000000
vn -0.00000000 -0.00000000 -0.00000000
vn -0.00000000 0.00000000 0.00000000
vn -0.00000000 0.00000000 -0.00000000
vn 0.00000000 0.00000000 -0.00000000
vn 0.00000000 0.00000000 0.00000000
vn 0.00000000 -0.00000000 -0.00000000
vn -0.00000000 0.00000000 0.00000000
vn 0.00000000 -0.00000000 0.00000000
vn 0.00000000 -0.00000000 -0.00000000
vn 0.00000000 0.00000000 -0.00000000
vn -0.00000000 0.00000000 0.00000000
vn 0.00000000 0.00000000 -0.00000000
vn 0.00000000 0.00000000 0.00000000
vn -0.00000000 0.00000000 -0.00000000
vn -0.00000000 0.00000000 -0.00000000
vn -0.00000000 0.00000000 0.00000000
vn 0.00000000 -0.00000000 -0.00000000
vn -0.00000000 0.00000000 0.00000000
vn -0.00000000 0.00000000 0.00000000
vn 0.00000000 0.00000000 -0.00000000
vn 0.00000000 0.00000000 -0.00000000
vn 0.00000000 0.00000000 0.00000000
vn -0.00000000 0.00000000 -0.00000000
vn -0.00000000 -0.00000000 0.00000000
vn -0.00000000 -0.00000000 0.00000000
vn -0.00000000 -0.00000000 -0.00000000
vn 0.00000000 0.00000000 0.00000000
vn -0.00000000 0.00000000 0.00000000
vn -0.00000000 0.00000000 0.00000000
vn -0.00000000 -0.00000000 -0.00000000
vn 0.00000000 -0.00000000 -0.00000000
vn 0.00000000 0.00000000 -0.00000000
vn 0.00000000 0.00000000 0.00000000
vn -0.00000000 -0.00000000 -0.00000000
vn -0.00000000 0.00000000 0.00000000
vn -0.00000000 0.00000000 0.00000000
vn -0.00000000 0.00000000 -0.00000000
vn 0.00000000 -0.00000000 0.00000000
vn 0.00000000 0.00000000 -0.00000000
vn -0.00000000 0.00000000 0.00000000
vn 0.00000000 -0.00000000 -0.00000000
vn -0.00000000 0.00000000 -0.00000000
vn -0.00000000 0.00000000 0.00000000
vn 0.00000000 0.00000000 0.00000000
vn 0.00000000 -0.00000000 0.00000000
vn 0.00000000 0.00000000 0.00000000
vn 0.00000000 -0.00000000 0.00000000
vn 0.00000000 0.00000000 -0.00000000
vn 0.00000000 -0.00000000 -0.00000000
vn -0.00000000 -0.00000000 0.00000000
vn 0.00000000 0.00000000 -0.00000000
vn 0.00000000 0.00000000 0.00000000
vn -0.00000000 0.00000000 0.00000000
vn 0.00000000 -0.00000000 -0.00000000
vn 0.00000000 -0.00000000 -0.00000000
vn 0.00000000 -0.00000000 -0.00000000
vn -0.00000000 0.00000000 0.00000000
vn -0.00000000 -0.00000000 0.00000000
vn 0.00000000 0.00000000 -0.00000000
vn -0.00000000 -0.00000000 0.00000000
vn 0.00000000 0.00000000 -0.00000000
vn 0.00000000 0.00000000 -0.00000000
vn 0.00000000 0.00000000 -0.00000000
vn 0.00000000 -0.00000000 -0.00000000
vn 0.00000000 -0.00000000 -0.00000000
vn -0.00000000 0.00000000 0.00000000
vn 0.00000000 -0.00000000 0.00000000
vn -0.00000000 -0.00000000 0.00000000
vn -0.00000000 -0.00000000 0.00000000
vn 0.00000000 0.00000000 -0.00000000
vn 0.00000000 0.00000000 -0.00000000
vn -0.00000000 -0.00000000 0.00000000
vn 0.00000000 0.00000000 0.00000000
vn -0.00000000 -0.00000000 -0.00000000
vn 0.00000000 0.00000000 0.00000000
vn -0.00000000 0.00000000 0.00000000
vn -0.00000000 -0.00000000 0.00000000
vn -0.00000000 -0.00000000 -0.00000000
vn -0.00000000 -0.00000000 -0.00000000
vn 0.00000000 -0.00000000 -0.00000000
vn -0.00000000 0.00000000 -0.00000000
vn 0.00000000 0.00000000 0.00000000
vn -0.00000000 -0.00000000 -0.00000000
vn -0.00000000 -0.00000000 -0.00000000
vn -0.00000000 0.00000000 0.00000000
vn 0.00000000 -0.00000000 0.00000000
vn 0.00000000 -0.00000000 -0.00000000
vn 0.00000000 -0.00000000 0.00000000
vn 0.00000000 -0.00000000 -0.00000000
vn -0.00000000 -0.00000000 0.00000000
vn 0.00000000 -0.00000000 -0.00000000
vn -0.00000000 0.00000000 -0.00000000
vn -0.00000000 0.00000000 0.00000000
vn 0.00000000 -0.00000000 0.00000000
vn -0.00000000 0.00000000 0.00000000
vn -0.00000000 0.00000000 -0.00000000
vn 0.00000000 0.00000000 0.00000000
vn -0.00000000 0.00000000 0.00000000
vn 0.00000000 0.00000000 -0.00000000
vn -0.00000000 0.00000000 0.00000000
vn -0.00000000 0.00000000 0.00000000
vn 0.00000000 -0.00000000 -0.00000000
vn -0.00000000 -0.00000000 0.00000000
vn 0.00000000 0.00000000 -0.00000000
vn -0.00000000 -0.00000000 0.00000000
vn -0.00000000 -0.00000000 0.00000000
vn 0.00000000 0.00000000 0.00000000
vn -0.00000000 0.00000000 -0.00000000
vn 0.00000000 -0.00000000 0.00000000
vn 0.00000000 0.00000000 0.00000000
vn -0.00000000 -0.00000000 0.00000000
vn 0.00000000 0.00000000 0.00000000
vn -0.00000000 0.00000000 0.00000000
vn -0.00000000 0.00000000 0.00000000
vn 0.00000000 -0.00000000 0.00000000
vn -0.00000000 0.00000000 -0.00000000
vn -0.00000000 0.00000000 -0.00000000
vn 0.00000000 0.00000000 -0.00000000
vn 0.00000000 0.00000000 -0.00000000
vn 0.00000000 -0.00000000 0.00000000
vn 0.00000000 0.00000000 0.00000000
vn 0.00000000 0.00000000 -0.00000000
vn -0.00000000 -0.00000000 -0.00000000
vn -0.00000000 -0.00000000 0.00000000
vn 0.00000000 0.00000000 0.00000000
vn -0.00000000 -0.00000000 -0.00000000
vn 0.00000000 0.00000000 0.00000000
vn 0.00000000 0.00000000 -0.00000000
vn -0.00000000 0.00000000 0.00000000
vn 0.00000000 -0.00000000 0.00000000
vn -0.00000000 -0.00000000 0.00000000
vn 0.00000000 0.00000000 -0.00000000
vn 0.00000000 0.00000000 0.00000000
vn -0.00000000 0.00000000 0.00000000
vn -0.00000000 -0.00000000 -0.00000000
vn -0.00000000 -0.00000000 0.00000000
vn 0.00000000 0.00000000 0.00000000
vn -0.00000000 -0.00000000 0.00000000
vn 0.00000000 0.00000000 0.00000000
vn -0.00000000 0.00000000 -0.00000000
vn -0.00000000 0.00000000 0.00000000
vn 0.00000000 -0.00000000 0.00000000
vn -0.00000000 0.00000000 0.00000000
vn 0.00000000 -0.00000000 0.00000000
vn -0.00000000 -0.00000000 -0.00000000
vn 0.00000000 0.00000000 -0.00000000
vn -0.00000000 0.00000000 0.00000000
vn 0.00000000 -0.00000000 -0.00000000
vn 0.00000000 -0.00000000 0.00000000
vn 0.00000000 -0.00000000 -0.00000000
vn 0.00000000 -0.00000000 0.00000000
vn 0.00000000 0.00000000 0.00000000
vn -0.00000000 -0.00000000 0.00000000
vn -0.00000000 -0.00000000 0.00000000
vn -0.00000000 -0.00000000 0.00000000
vn -0.00000000 -0.00000000 0.00000000
vn -0.00000000 0.00000000 -0.00000000
vn 0.00000000 -0.00000000 0.00000000
vn 0.00000000 -0.00000000 -0.00000000
vn -0.00000000 0.00000000 -0.00000000
vn -0.00000000 0.00000000 -0.00000000
vn -0.00000000 -0.00000000 -0.00000000
vn 0.00000000 0.00000000 0.00000000
vn 0.00000000 0.00000000 0.00000000
vn 0.00000000 0.00000000 -0.00000000
vn 0.00000000 0.00000000 0.00000000
vn -0.00000000 -0.00000000 -0.00000000
vn -0.00000000 0.00000000 0.00000000
vn -0.00000000 0.00000000 -0.00000000
vn 0.00000000 0.00000000 0.00000000
vn 0.00000000 -0.00000000 0.00000000
vn -0.00000000 0.00000000 -0.00000000
vn 0.00000000 -0.00000000 0.00000000
vn -0.00000000 -0.00000000 0.00000000
vn -0.00000000 -0.00000000 0.00000000
vn -0.00000000 -0.00000000 0.00000000
vn -0.00000000 -0.00000000 -0.00000000
vn -0.00000000 0.00000000 0.00000000
vn 0.00000000 0.00000000 0.00000000
vn 0.00000000 0.00000000 0.00000000
vn 0.00000000 0.00000000 0.00000000
vn -0.00000000 0.00000000 0.00000000
vn 0.00000000 -0.00000000 -0.00000000
vn 0.00000000 0.00000000 -0.00000000
vn 0.00000000 -0.00000000 0.00000000
vn 0.00000000 0.00000000 0.00000000
vn -0.00000000 -0.00000000 -0.00000000
vn -0.00000000 -0.00000000 0.00000000
vn 0.00000000 0.00000000 0.00000000
vn 0.00000000 0.00000000 -0.00000000
vn -0.00000000 -0.00000000 -0.00000000
vn -0.00000000 0.00000000 0.00000000
vn -0.00000000 0.00000000 -0.00000000
vn 0.00000000 0.00000000 0.00000000
vn -0.00000000 -0.00000000 -0.00000000
vn 0.00000000 0.00000000 -0.00000000
vn -0.00000000 0.00000000 0.00000000
vn 0.00000000 -0.00000000 0.00000000
vn -0.00000000 -0.00000000 -0.00000000
vn -0.00000000 0.00000000 -0.00000000
vn 0.00000000 0.00000000 0.00000000
vn 0.00000000 -0.00000000 0.00000000
vn -0.00000000 -0.00000000 -0.00000000
vn -0.00000000 0.00000000 -0.00000000
vn 0.00000000 -0.00000000 0.00000000
vn -0.00000000 0.00000000 -0.00000000
vn -0.00000000 0.00000000 0.00000000
vn 0.00000000 0.00000000 0.00000000
vn -0.00000000 0.00000000 -0.00000000
vn 0.00000000 -0.00000000 0.00000000
vn 0.00000000 0.00000000 -0.00000000
vn 0.00000000 0.00000000 -0.00000000
vn -0.00000000 -0.00000000 -0.00000000
vn -0.00000000 -0.00000000 -0.00000000
vn -0.00000000 0.00000000 0.00000000
vn 0.00000000 -0.00000000 -0.00000000
vn 0.00000000 -0.00000000 -0.00000000
vn -0.00000000 0.00000000 0.00000000
vn 0.00000000 -0.00000000 0.00000000
vn 0.00000000 -0.00000000 0.00000000
vn 0.00000000 0.00000000 0.00000000
vn 0.00000000 0.00000000 -0.00000000
vn -0.00000000 0.00000000 -0.00000000
vn 0.00000000 -0.00000000 -0.00000000
vn 0.00000000 0.00000000 0.00000000
vn 0.00000000 -0.00000000 0.00000000
vn -0.00000000 -0.00000000 -0.00000000
vn 0.00000000 0.00000000 -0.00000000
vn 0.00000000 0.00000000 -0.00000000
vn -0.00000000 0.00000000 0.00000000
vn 0.00000000 -0.00000000 -0.00000000
vn -0.00000000 -0.00000000 0.00000000
vn 0.00000000 -0.00000000 -0.00000000
vn 0.00000000 0.00000000 -0.00000000
vn 0.00000000 0.00000000 -0.00000000
vn 0.00000000 -0.00000000 0.00000000
vn 0.00000000 -0.00000000 0.00000000
vn 0.00000000 -0.00000000 0.00000000
vn 0.00000000 0.00000000 -0.00000000
vn 0.00000000 -0.00000000 0.00000000
vn 0.00000000 0.00000000 -0.00000000
vn -0.00000000 0.00000000 -0.00000000
vn -0.00000000 -0.00000000 0.00000000
vn -0.00000000 -0.00000000 -0.00000000
vn 0.00000000 0.00000000 0.00000000
vn 0.00000000 0.00000000 -0.00000000
vn -0.00000000 0.00000000 -0.00000000
vn -0.00000000 0.00000000 0.00000000
vn 0.00000000 -0.00000000 -0.00000000
vn 0.00000000 -0.00000000 0.00000000
vn 0.00000000 -0.00000000 0.00000000
vn 0.00000000 0.00000000 -0.00000000
vn -0.00000000 -0.00000000 -0.00000000
vn 0.00000000 0.00000000 -0.00000000
vn -0.00000000 -0.00000000 -0.00000000
vn 0.00000000 0.00000000 -0.00000000
vn 0.00000000 0.00000000 0.00000000
vn -0.00000000 0.00000000 0.00000000
vn -0.00000000 -0.00000000 -0.00000000
vn -0.00000000 -0.00000000 0.00000000
vn -0.00000000 -0.00000000 0.00000000
vn 0.00000000 0.00000000 -0.00000000
vn -0.00000000 -0.00000000 0.00000000
vn -0.00000000 -0.00000000 0.00000000
vn -0.00000000 0.00000000 -0.00000000
vn -0.00000000 0.00000000 -0.00000000
vn 0.00000000 -0.00000000 0.00000000
vn -0.00000000 0.00000000 -0.00000000
vn 0.00000000 -0.00000000 0.00000000
vn 0.00000000 0.00000000 -0.00000000
vn 0.00000000 0.00000000 0.00000000
vn -0.00000000 0.00000000 0.00000000
vn -0.00000000 0.00000000 0.00000000
vn 0.00000000 -0.00000000 -0.00000000
vn 0.00000000 0.00000000 0.00000000
vn -0.00000000 0.00000000 0.00000000
vn -0.00000000 0.00000000 -0.00000000
vn -0.00000000 -0.00000000 0.00000000
vn 0.00000000 0.00000000 0.00000000
vn 0.00000000 -0.00000000 -0.00000000
vn -0.00000000 -0.00000000 -0.00000000
vn 0.00000000 0.00000000 -0.00000000
vn -0.00000000 -0.00000000 -0.00000000
vn -0.00000000 -0.00000000 0.00000000
vn 0.00000000 0.00000000 0.00000000
vn 0.00000000 0.00000000 -0.00000000
vn 0.00000000 0.00000000 0.00000000
vn 0.00000000 0.00000000 -0.00000000
vn 0.00000000 0.00000000 0.00000000
vn -0.00000000 0.00000000 -0.00000000
vn -0.00000000 0.00000000 -0.00000000
vn 0.00000000 -0.00000000 0.00000000
vn -0.00000000 0.00000000 -0.00000000
vn 0.00000000 0.00000000 -0.00000000
vn 0.00000000 -0.00000000 -0.00000000
vn 0.00000000 0.00000000 0.00000000
vn -0.00000000 0.00000000 0.00000000
vn 0.00000000 0.00000000 0.00000000
vn -0.00000000 0.00000000 -0.00000000
vn -0.00000000 0.00000000 0.00000000
vn 0.00000000 0.00000000 0.00000000
vn -0.00000000 -0.00000000 0.00000000
vn 0.00000000 0.00000000 0.00000000
vn -0.00000000 -0.00000000 0.00000000
vn -0.00000000 -0.00000000 -0.00000000
vn 0.00000000 0.00000000 -0.00000000
vn 0.00000000 0.00000000 -0.00000000
vn -0.00000000 0.00000000 0.00000000
vn 0.00000000 0.00000000 0.00000000
vn 0.00000000 -0.00000000 0.00000000
vn -0.00000000 -0.00000000 0.00000000
vn -0.00000000 0.00000000 0.00000000
vn 0.00000000 -0.00000000 0.00000000
vn -0.00000000 0.00000000 -0.00000000
vn 0.00000000 -0.00000000 -0.00000000
vn -0.00000000 -0.00000000 0.00000000
vn 0.00000000 0.00000000 -0.00000000
vn 0.00000000 0.00000000 -0.00000000
vn -0.00000000 -0.00000000 -0.00000000
vn -0.00000000 -0.00000000 0.00000000
vn -0.00000000 -0.00000000 -0.00000000
vn 0.00000000 0.00000000 -0.00000000
vn 0.00000000 0.00000000 -0.00000000
vn -0.00000000 -0.00000000 0.00000000
vn -0.00000000 -0.00000000 0.00000000
vn -0.00000000 -0.00000000 0.00000000
vn 0.00000000 0.00000000 -0.00000000
vn 0.00000000 -0.00000000 -0.00000000
vn 0.00000000 -0.00000000 0.00000000
vn -0.00000000 -0.00000000 0.00000000
vn 0.00000000 0.00000000 0.00000000
vn 0.00000000 -0.00000000 -0.00000000
vn 0.00000000 0.00000000 0.00000000
vn 0.00000000 0.00000000 -0.00000000
vn 0.00000000 0.00000000 -0.00000000
vn -0.00000000 -0.00000000 0.00000000
vn -0.00000000 0.00000000 -0.00000000
vn 0.00000000 0.00000000 0.00000000
vn -0.00000000 0.00000000 0.00000000
vn 0.00000000 -0.00000000 -0.00000000
vn -0.00000000 -0.00000000 -0.00000000
vn 0.00000000 0.00000000 0.00000000
vn -0.00000000 -0.00000000 0.00000000
vn -0.00000000 -0.00000000 0.00000000
vn 0.00000000 -0.00000000 -0.00000000
vn -0.00000000 0.00000000 -0.00000000
vn -0.00000000 -0.00000000 0.00000000
vn 0.00000000 0.00000000 0.00000000
f 1//1 2//2 3//3
f 2//2 1//1 4//4
f 5//5 3//3 6//6
f 3//3 5//5 1//1
f 7//7 6//6 8//8
f 6//6 7//7 5//5
f 8//8 9//9 7//7
f 9//9 8//8 10//10
f 11//11 9//9 10//10
f 9//9 11//11 12//12
f 13//13 12//12 11//11
f 12//12 13//13 14//14
f 15//15 14//14 13//13
f 14//14 15//15 16//16
f 17//17 16//16 15//15
f 16//16 17//17 18//18
f 19//19 18//18 17//17
f 18//18 19//19 20//20
f 21//21 19//19 22//22
f 19//19 21//21 20//20
f 23//23 22//22 24//24
f 22//22 23//23 21//21
f 25//25 24//24 26//26
f 24//24 25//25 23//23
f 27//27 26//26 28//28
f 26//26 27//27 25//25
f 4//4 29//29 2//2
f 29//29 4//4 30//30
f 3//3 31//31 32//32
f 31//31 3//3 2//2
f 6//6 32//32 33//33
f 32//32 6//6 3//3
f 8//8 33//33 34//34
f 33//33 8//8 6//6
f 10//10 34//34 35//35
f 34//34 10//10 8//8
f 11//11 35//35 36//36
f 35//35 11//11 10//10
f 36//36 13//13 11//11
f 13//13 36//36 37//37
f 37//37 15//15 13//13
f 15//15 37//37 38//38
f 39//39 15//15 38//38
f 15//15 39//39 17//17
f 40//40 17//17 39//39
f 17//17 40//40 19//19
f 41//41 19//19 40//40
f 19//19 41//41 22//22
f 42//42 22//22 41//41
f 22//22 42//42 24//24
f 26//26 42//42 43//43
f 42//42 26//26 24//24
f 44//44 28//28 45//45
f 28//28 44//44 27//27
f 28//28 43//43 46//46
f 43//43 28//28 26//26
f 30//30 47//47 29//29
f 47//47 30//30 48//48
f 2//2 49//49 31//31
f 49//49 2//2 29//29
f 49//49 50//50 51//51
f 50//50 49//49 52//52
f 31//31 51//51 53//53
f 51//51 31//31 49//49
f 32//32 53//53 54//54
f 53//53 32//32 31//31
f 33//33 54//54 55//55
f 54//54 33//33 32//32
f 34//34 55//55 56//56
f 55//55 34//34 33//33
f 56//56 35//35 34//34
f 35//35 56//56 57//57
f 57//57 36//36 35//35
f 36//36 57//57 58//58
f 59//59 36//36 58//58
f 36//36 59//59 37//37
f 60//60 37//37 59//59
f 37//37 60//60 38//38
f 61//61 38//38 60//60
f 38//38 61//61 39//39
f 62//62 39//39 61//61
f 39//39 62//62 40//40
f 41//41 62//62 63//63
f 62//62 41//41 40//40
f 42//42 63//63 64//64
f 63//63 42//42 41//41
f 43//43 64//64 65//65
f 64//64 43//43 42//42
f 46//46 65//65 66//66
f 65//65 46//46 43//43
f 67//67 66//66 68//68
f 66//66 67//67 46//46
f 69//69 45//45 70//70
f 45//45 69//69 44//44
f 71//71 68//68 72//72
f 68//68 71//71 67//67
f 46//46 45//45 28//28
f 45//45 46//46 67//67
f 48//48 73//73 47//47
f 73//73 48//48 74//74
f 47//47 49//49 29//29
f 49//49 47//47 52//52
f 52//52 75//75 50//50
f 75//75 52//52 76//76
f 75//75 77//77 78//78
f 77//77 75//75 79//79
f 50//50 78//78 80//80
f 78//78 50//50 75//75
f 51//51 80//80 81//81
f 80//80 51//51 50//50
f 53//53 81//81 82//82
f 81//81 53//53 51//51
f 54//54 82//82 83//83
f 82//82 54//54 53//53
f 54//54 84//84 55//55
f 84//84 54//54 83//83
f 55//55 85//85 56//56
f 85//85 55//55 84//84
f 56//56 86//86 57//57
f 86//86 56//56 85//85
f 57//57 87//87 58//58
f 87//87 57//57 86//86
f 88//88 58//58 87//87
f 58//58 88//88 59//59
f 89//89 59//59 88//88
f 59//59 89//89 60//60
f 89//89 61//61 60//60
f 61//61 89//89 90//90
f 90//90 62//62 61//61
f 62//62 90//90 91//91
f 91//91 63//63 62//62
f 63//63 91//91 92//92
f 92//92 64//64 63//63
f 64//64 92//92 93//93
f 65//65 93//93 94//94
f 93//93 65//65 64//64
f 66//66 94//94 95//95
f 94//94 66//66 65//65
f 96//96 66//66 95//95
f 66//66 96//96 68//68
f 97//97 68//68 96//96
f 68//68 97//97 72//72
f 98//98 72//72 97//97
f 72//72 98//98 99//99
f 100//100 99//99 98//98
f 99//99 100//100 101//101
f 69//69 102//102 103//103
f 102//102 69//69 70//70
f 71//71 99//99 104//104
f 99//99 71//71 72//72
f 67//67 70//70 45//45
f 70//70 67//67 71//71
f 74//74 105//105 73//73
f 105//105 74//74 106//106
f 73//73 52//52 47//47
f 52//52 73//73 76//76
f 107//107 75//75 76//76
f 75//75 107//107 79//79
f 79//79 108//108 77//77
f 108//108 79//79 109//109
f 87//87 89//89 88//88
f 86//86 89//89 87//87
f 86//86 90//90 89//89
f 86//86 91//91 90//90
f 85//85 91//91 86//86
f 84//84 91//91 85//85
f 84//84 92//92 91//91
f 83//83 92//92 84//84
f 83//83 93//93 92//92
f 83//83 94//94 93//93
f 82//82 94//94 83//83
f 81//81 94//94 82//82
f 81//81 95//95 94//94
f 80//80 95//95 81//81
f 80//80 96//96 95//95
f 78//78 96//96 80//80
f 78//78 97//97 96//96
f 77//77 97//97 78//78
f 77//77 98//98 97//97
f 108//108 98//98 77//77
f 108//108 100//100 98//98
f 100//100 108//108 110//110
f 111//111 100//100 110//110
f 100//100 111//111 101//101
f 103//103 112//112 113//113
f 112//112 103//103 102//102
f 104//104 101//101 114//114
f 101//101 104//104 99//99
f 71//71 102//102 70//70
f 102//102 71//71 104//104
f 115//115 105//105 106//106
f 105//105 115//115 116//116
f 105//105 76//76 73//73
f 76//76 105//105 107//107
f 117//117 79//79 107//107
f 79//79 117//117 109//109
f 111//111 108//108 109//109
f 108//108 111//111 110//110
f 113//113 118//118 119//119
f 118//118 113//113 112//112
f 114//114 111//111 120//120
f 111//111 114//114 101//101
f 104//104 112//112 102//102
f 112//112 104//104 114//114
f 119//119 116//116 115//115
f 116//116 119//119 118//118
f 116//116 107//107 105//105
f 107//107 116//116 117//117
f 120//120 109//109 117//117
f 109//109 120//120 111//111
f 112//112 120//120 118//118
f 120//120 112//112 114//114
f 118//118 117//117 116//116
f 117//117 118//118 120//120
f 16//16 14//14 121//121
f 122//122 121//121 14//14
f 14//14 121//121 122//122
f 121//121 14//14 16//16
f 122//122 14//14 123//123
f 12//12 123//123 14//14
f 14//14 123//123 12//12
f 123//123 14//14 122//122
f 18//18 16//16 124//124
f 121//121 124//124 16//16
f 16//16 124//124 121//121
f 124//124 16//16 18//18
f 125//125 121//121 126//126
f 122//122 126//126 121//121
f 121//121 126//126 122//122
f 126//126 121//121 125//125
f 126//126 122//122 127//127
f 123//123 127//127 122//122
f 122//122 127//127 123//123
f 127//127 122//122 126//126
f 12//12 9//9 123//123
f 128//128 123//123 9//9
f 9//9 123//123 128//128
f 123//123 9//9 12//12
f 20//20 18//18 129//129
f 124//124 129//129 18//18
f 18//18 129//129 124//124
f 129//129 18//18 20//20
f 130//130 124//124 125//125
f 121//121 125//125 124//124
f 124//124 125//125 121//121
f 125//125 124//124 130//130
f 131//131 125//125 132//132
f 126//126 132//132 125//125
f 125//125 132//132 126//126
f 132//132 125//125 131//131
f 126//126 127//127 132//132
f 133//133 132//132 127//127
f 127//127 132//132 133//133
f 132//132 127//127 126//126
f 123//123 128//128 127//127
f 134//134 127//127 128//128
f 128//128 127//127 134//134
f 127//127 128//128 123//123
f 128//128 9//9 135//135
f 7//7 135//135 9//9
f 9//9 135//135 7//7
f 135//135 9//9 128//128
f 129//129 136//136 20//20
f 21//21 20//20 136//136
f 136//136 20//20 21//21
f 20//20 136//136 129//129
f 137//137 129//129 130//130
f 124//124 130//130 129//129
f 129//129 130//130 124//124
f 130//130 129//129 137//137
f 138//138 130//130 131//131
f 125//125 131//131 130//130
f 130//130 131//131 125//125
f 131//131 130//130 138//138
f 131//131 132//132 139//139
f 140//140 139//139 132//132
f 132//132 139//139 140//140
f 139//139 132//132 131//131
f 133//133 141//141 132//132
f 140//140 132//132 141//141
f 141//141 132//132 140//140
f 132//132 141//141 133//133
f 127//127 134//134 133//133
f 142//142 133//133 134//134
f 134//134 133//133 142//142
f 133//133 134//134 127//127
f 128//128 135//135 134//134
f 143//143 134//134 135//135
f 135//135 134//134 143//143
f 134//134 135//135 128//128
f 144//144 135//135 5//5
f 7//7 5//5 135//135
f 135//135 5//5 7//7
f 5//5 135//135 144//144
f 136//136 145//145 21//21
f 23//23 21//21 145//145
f 145//145 21//21 23//23
f 21//21 145//145 136//136
f 137//137 146//146 129//129
f 136//136 129//129 146//146
f 146//146 129//129 136//136
f 129//129 146//146 137//137
f 147//147 137//137 138//138
f 130//130 138//138 137//137
f 137//137 138//138 130//130
f 138//138 137//137 147//147
f 138//138 131//131 148//148
f 139//139 148//148 131//131
f 131//131 148//148 139//139
f 148//148 131//131 138//138
f 139//139 140//140 149//149
f 150//150 149//149 140//140
f 140//140 149//149 150//150
f 149//149 140//140 139//139
f 141//141 151//151 140//140
f 150//150 140//140 151//151
f 151//151 140//140 150//150
f 140//140 151//151 141//141
f 142//142 152//152 133//133
f 141//141 133//133 152//152
f 152//152 133//133 141//141
f 133//133 152//152 142//142
f 134//134 143//143 142//142
f 153//153 142//142 143//143
f 143//143 142//142 153//153
f 142//142 143//143 134//134
f 154//154 143//143 144//144
f 135//135 144//144 143//143
f 143//143 144//144 135//135
f 144//144 143//143 154//154
f 155//155 144//144 1//1
f 5//5 1//1 144//144
f 144//144 1//1 5//5
f 1//1 144//144 155//155
f 145//145 156//156 23//23
f 25//25 23//23 156//156
f 156//156 23//23 25//25
f 23//23 156//156 145//145
f 146//146 157//157 136//136
f 145//145 136//136 157//157
f 157//157 136//136 145//145
f 136//136 157//157 146//146
f 147//147 158//158 137//137
f 146//146 137//137 158//158
f 158//158 137//137 146//146
f 137//137 158//158 147//147
f 147//147 138//138 159//159
f 148//148 159//159 138//138
f 138//138 159//159 148//148
f 159//159 138//138 147//147
f 148//148 139//139 160//160
f 149//149 160//160 139//139
f 139//139 160//160 149//149
f 160//160 139//139 148//148
f 161//161 162//162 163//163
f 164//164 163//163 162//162
f 162//162 163//163 164//164
f 163//163 162//162 161//161
f 165//165 149//149 166//166
f 150//150 166//166 149//149
f 149//149 166//166 150//150
f 166//166 149//149 165//165
f 167//167 163//163 168//168
f 169//169 168//168 163//163
f 163//163 168//168 169//169
f 168//168 163//163 167//167
f 163//163 164//164 169//169
f 170//170 169//169 164//164
f 164//164 169//169 170//170
f 169//169 164//164 163//163
f 170//170 164//164 171//171
f 172//172 171//171 164//164
f 164//164 171//171 172//172
f 171//171 164//164 170//170
f 171//171 172//172 173//173
f 174//174 173//173 172//172
f 172//172 173//173 174//174
f 173//173 172//172 171//171
f 162//162 175//175 164//164
f 172//172 164//164 175//175
f 175//175 164//164 172//172
f 164//164 175//175 162//162
f 150//150 151//151 166//166
f 176//176 166//166 151//151
f 151//151 166//166 176//176
f 166//166 151//151 150//150
f 152//152 177//177 141//141
f 151//151 141//141 177//177
f 177//177 141//141 151//151
f 141//141 177//177 152//152
f 153//153 178//178 142//142
f 152//152 142//142 178//178
f 178//178 142//142 152//152
f 142//142 178//178 153//153
f 179//179 153//153 154//154
f 143//143 154//154 153//153
f 153//153 154//154 143//143
f 154//154 153//153 179//179
f 180//180 154//154 155//155
f 144//144 155//155 154//154
f 154//154 155//155 144//144
f 155//155 154//154 180//180
f 181//181 155//155 4//4
f 1//1 4//4 155//155
f 155//155 4//4 1//1
f 4//4 155//155 181//181
f 156//156 182//182 25//25
f 27//27 25//25 182//182
f 182//182 25//25 27//27
f 25//25 182//182 156//156
f 157//157 183//183 145//145
f 156//156 145//145 183//183
f 183//183 145//145 156//156
f 145//145 183//183 157//157
f 158//158 184//184 146//146
f 157//157 146//146 184//184
f 184//184 146//146 157//157
f 146//146 184//184 158//158
f 158//158 147//147 185//185
f 159//159 185//185 147//147
f 147//147 185//185 159//159
f 185//185 147//147 158//158
f 186//186 167//167 187//187
f 168//168 187//187 167//167
f 167//167 187//187 168//168
f 187//187 167//167 186//186
f 159//159 148//148 188//188
f 160//160 188//188 148//148
f 148//148 188//188 160//160
f 188//188 148//148 159//159
f 189//189 161//161 167//167
f 163//163 167//167 161//161
f 161//161 167//167 163//163
f 167//167 161//161 189//189
f 190//190 160//160 165//165
f 149//149 165//165 160//160
f 160//160 165//165 149//149
f 165//165 160//160 190//190
f 191//191 192//192 161//161
f 162//162 161//161 192//192
f 192//192 161//161 162//162
f 161//161 192//192 191//191
f 193//193 165//165 194//194
f 166//166 194//194 165//165
f 165//165 194//194 166//166
f 194//194 165//165 193//193
f 195//195 196//196 187//187
f 197//197 187//187 196//196
f 196//196 187//187 197//197
f 187//187 196//196 195//195
f 187//187 168//168 195//195
f 198//198 195//195 168//168
f 168//168 195//195 198//198
f 195//195 168//168 187//187
f 168//168 169//169 198//198
f 199//199 198//198 169//169
f 169//169 198//198 199//199
f 198//198 169//169 168//168
f 169//169 170//170 199//199
f 200//200 199//199 170//170
f 170//170 199//199 200//200
f 199//199 170//170 169//169
f 200//200 170//170 201//201
f 171//171 201//201 170//170
f 170//170 201//201 171//171
f 201//201 170//170 200//200
f 201//201 171//171 202//202
f 173//173 202//202 171//171
f 171//171 202//202 173//173
f 202//202 171//171 201//201
f 202//202 173//173 203//203
f 204//204 203//203 173//173
f 173//173 203//203 204//204
f 203//203 173//173 202//202
f 205//205 203//203 206//206
f 204//204 206//206 203//203
f 203//203 206//206 204//204
f 206//206 203//203 205//205
f 173//173 174//174 204//204
f 207//207 204//204 174//174
f 174//174 204//204 207//207
f 204//204 174//174 173//173
f 172//172 175//175 174//174
f 208//208 174//174 175//175
f 175//175 174//174 208//208
f 174//174 175//175 172//172
f 162//162 192//192 175//175
f 209//209 175//175 192//192
f 192//192 175//175 209//209
f 175//175 192//192 162//162
f 194//194 166//166 210//210
f 176//176 210//210 166//166
f 166//166 210//210 176//176
f 210//210 166//166 194//194
f 151//151 177//177 176//176
f 211//211 176//176 177//177
f 177//177 176//176 211//211
f 176//176 177//177 151//151
f 178//178 212//212 152//152
f 177//177 152//152 212//212
f 212//212 152//152 177//177
f 152//152 212//212 178//178
f 179//179 213//213 153//153
f 178//178 153//153 213//213
f 213//213 153//153 178//178
f 153//153 213//213 179//179
f 214//214 179//179 180//180
f 154//154 180//180 179//179
f 179//179 180//180 154//154
f 180//180 179//179 214//214
f 215//215 180//180 181//181
f 155//155 181//181 180//180
f 180//180 181//181 155//155
f 181//181 180//180 215//215
f 216//216 181//181 30//30
f 4//4 30//30 181//181
f 181//181 30//30 4//4
f 30//30 181//181 216//216
f 182//182 217//217 27//27
f 44//44 27//27 217//217
f 217//217 27//27 44//44
f 27//27 217//217 182//182
f 183//183 218//218 156//156
f 182//182 156//156 218//218
f 218//218 156//156 182//182
f 156//156 218//218 183//183
f 184//184 219//219 157//157
f 183//183 157//157 219//219
f 219//219 157//157 183//183
f 157//157 219//219 184//184
f 196//196 220//220 197//197
f 221//221 197//197 220//220
f 220//220 197//197 221//221
f 197//197 220//220 196//196
f 184//184 158//158 222//222
f 185//185 222//222 158//158
f 158//158 222//222 185//185
f 222//222 158//158 184//184
f 187//187 197//197 186//186
f 223//223 186//186 197//197
f 197//197 186//186 223//223
f 186//186 197//197 187//187
f 185//185 159//159 224//224
f 188//188 224//224 159//159
f 159//159 224//224 188//188
f 224//224 159//159 185//185
f 225//225 189//189 186//186
f 167//167 186//186 189//189
f 189//189 186//186 167//167
f 186//186 189//189 225//225
f 188//188 160//160 226//226
f 190//190 226//226 160//160
f 160//160 226//226 190//190
f 226//226 160//160 188//188
f 227//227 191//191 189//189
f 161//161 189//189 191//191
f 191//191 189//189 161//161
f 189//189 191//191 227//227
f 228//228 190//190 193//193
f 165//165 193//193 190//190
f 190//190 193//193 165//165
f 193//193 190//190 228//228
f 229//229 230//230 191//191
f 192//192 191//191 230//230
f 230//230 191//191 192//192
f 191//191 230//230 229//229
f 231//231 193//193 232//232
f 194//194 232//232 193//193
f 193//193 232//232 194//194
f 232//232 193//193 231//231
f 233//233 234//234 195//195
f 196//196 195//195 234//234
f 234//234 195//195 196//196
f 195//195 234//234 233//233
f 195//195 198//198 233//233
f 235//235 233//233 198//198
f 198//198 233//233 235//235
f 233//233 198//198 195//195
f 198//198 199//199 235//235
f 236//236 235//235 199//199
f 199//199 235//235 236//236
f 235//235 199//199 198//198
f 199//199 200//200 236//236
f 237//237 236//236 200//200
f 200//200 236//236 237//237
f 236//236 200//200 199//199
f 237//237 200//200 238//238
f 201//201 238//238 200//200
f 200//200 238//238 201//201
f 238//238 200//200 237//237
f 238//238 201//201 239//239
f 202//202 239//239 201//201
f 201//201 239//239 202//202
f 239//239 201//201 238//238
f 239//239 202//202 240//240
f 203//203 240//240 202//202
f 202//202 240//240 203//203
f 240//240 202//202 239//239
f 241//241 240//240 205//205
f 203//203 205//205 240//240
f 240//240 205//205 203//203
f 205//205 240//240 241//241
f 242//242 241//241 243//243
f 205//205 243//243 241//241
f 241//241 243//243 205//205
f 243//243 241//241 242//242
f 244//244 245//245 220//220
f 246//246 220//220 245//245
f 245//245 220//220 246//246
f 220//220 245//245 244//244
f 234//234 244//244 196//196
f 220//220 196//196 244//244
f 244//244 196//196 220//220
f 196//196 244//244 234//234
f 247//247 242//242 248//248
f 243//243 248//248 242//242
f 242//242 248//248 243//243
f 248//248 242//242 247//247
f 243//243 205//205 249//249
f 206//206 249//249 205//205
f 205//205 249//249 206//206
f 249//249 205//205 243//243
f 206//206 204//204 250//250
f 207//207 250//250 204//204
f 204//204 250//250 207//207
f 250//250 204//204 206//206
f 174//174 208//208 207//207
f 251//251 207//207 208//208
f 208//208 207//207 251//251
f 207//207 208//208 174//174
f 175//175 209//209 208//208
f 252//252 208//208 209//209
f 209//209 208//208 252//252
f 208//208 209//209 175//175
f 192//192 230//230 209//209
f 253//253 209//209 230//230
f 230//230 209//209 253//253
f 209//209 230//230 192//192
f 232//232 194//194 254//254
f 210//210 254//254 194//194
f 194//194 254//254 210//210
f 254//254 194//194 232//232
f 176//176 211//211 210//210
f 255//255 210//210 211//211
f 211//211 210//210 255//255
f 210//210 211//211 176//176
f 212//212 256//256 177//177
f 211//211 177//177 256//256
f 256//256 177//177 211//211
f 177//177 256//256 212//212
f 213//213 257//257 178//178
f 212//212 178//178 257//257
f 257//257 178//178 212//212
f 178//178 257//257 213//213
f 214//214 258//258 179//179
f 213//213 179//179 258//258
f 258//258 179//179 213//213
f 179//179 258//258 214//214
f 259//259 214//214 215//215
f 180//180 215//215 214//214
f 214//214 215//215 180//180
f 215//215 214//214 259//259
f 260//260 215//215 216//216
f 181//181 216//216 215//215
f 215//215 216//216 181//181
f 216//216 215//215 260//260
f 261//261 216//216 48//48
f 30//30 48//48 216//216
f 216//216 48//48 30//30
f 48//48 216//216 261//261
f 217//217 262//262 44//44
f 69//69 44//44 262//262
f 262//262 44//44 69//69
f 44//44 262//262 217//217
f 218//218 263//263 182//182
f 217//217 182//182 263//263
f 263//263 182//182 217//217
f 182//182 263//263 218//218
f 245//245 264//264 246//246
f 265//265 246//246 264//264
f 264//264 246//246 265//265
f 246//246 264//264 245//245
f 219//219 266//266 183//183
f 218//218 183//183 266//266
f 266//266 183//183 218//218
f 183//183 266//266 219//219
f 220//220 246//246 221//221
f 267//267 221//221 246//246
f 246//246 221//221 267//267
f 221//221 246//246 220//220
f 268//268 219//219 222//222
f 184//184 222//222 219//219
f 219//219 222//222 184//184
f 222//222 219//219 268//268
f 197//197 221//221 223//223
f 269//269 223//223 221//221
f 221//221 223//223 269//269
f 223//223 221//221 197//197
f 222//222 185//185 270//270
f 224//224 270//270 185//185
f 185//185 270//270 224//224
f 270//270 185//185 222//222
f 186//186 223//223 225//225
f 271//271 225//225 223//223
f 223//223 225//225 271//271
f 225//225 223//223 186//186
f 224//224 188//188 272//272
f 226//226 272//272 188//188
f 188//188 272//272 226//226
f 272//272 188//188 224//224
f 273//273 227//227 225//225
f 189//189 225//225 227//227
f 227//227 225//225 189//189
f 225//225 227//227 273//273
f 274//274 226//226 228//228
f 190//190 228//228 226//226
f 226//226 228//228 190//190
f 228//228 226//226 274//274
f 275//275 229//229 227//227
f 191//191 227//227 229//229
f 229//229 227//227 191//191
f 227//227 229//229 275//275
f 276//276 228//228 231//231
f 193//193 231//231 228//228
f 228//228 231//231 193//193
f 231//231 228//228 276//276
f 229//229 231//231 230//230
f 232//232 230//230 231//231
f 231//231 230//230 232//232
f 230//230 231//231 229//229
f 277//277 278//278 233//233
f 234//234 233//233 278//278
f 278//278 233//233 234//234
f 233//233 278//278 277//277
f 233//233 235//235 277//277
f 279//279 277//277 235//235
f 235//235 277//277 279//279
f 277//277 235//235 233//233
f 235//235 236//236 279//279
f 280//280 279//279 236//236
f 236//236 279//279 280//280
f 279//279 236//236 235//235
f 236//236 237//237 280//280
f 281//281 280//280 237//237
f 237//237 280//280 281//281
f 280//280 237//237 236//236
f 281//281 237//237 282//282
f 238//238 282//282 237//237
f 237//237 282//282 238//238
f 282//282 237//237 281//281
f 282//282 238//238 283//283
f 239//239 283//283 238//238
f 238//238 283//283 239//239
f 283//283 238//238 282//282
f 283//283 239//239 284//284
f 240//240 284//284 239//239
f 239//239 284//284 240//240
f 284//284 239//239 283//283
f 285//285 284//284 241//241
f 240//240 241//241 284//284
f 284//284 241//241 240//240
f 241//241 284//284 285//285
f 286//286 285//285 242//242
f 241//241 242//242 285//285
f 285//285 242//242 241//241
f 242//242 285//285 286//286
f 287//287 286//286 247//247
f 242//242 247//247 286//286
f 286//286 247//247 242//242
f 247//247 286//286 287//287
f 288//288 287//287 289//289
f 247//247 289//289 287//287
f 287//287 289//289 247//247
f 289//289 287//287 288//288
f 290//290 291//291 264//264
f 292//292 264//264 291//291
f 291//291 264//264 292//292
f 264//264 291//291 290//290
f 293//293 290//290 245//245
f 264//264 245//245 290//290
f 290//290 245//245 264//264
f 245//245 290//290 293//293
f 294//294 293//293 244//244
f 245//245 244//244 293//293
f 293//293 244//244 245//245
f 244//244 293//293 294//294
f 278//278 294//294 234//234
f 244//244 234//234 294//294
f 294//294 234//234 244//244
f 234//234 294//294 278//278
f 295//295 288//288 296//296
f 289//289 296//296 288//288
f 288//288 296//296 289//289
f 296//296 288//288 295//295
f 289//289 247//247 297//297
f 248//248 297//297 247//247
f 247//247 297//297 248//248
f 297//297 247//247 289//289
f 248//248 243//243 298//298
f 249//249 298//298 243//243
f 243//243 298//298 249//249
f 298//298 243//243 248//248
f 249//249 206//206 299//299
f 250//250 299//299 206//206
f 206//206 299//299 250//250
f 299//299 206//206 249//249
f 250//250 207//207 300//300
f 251//251 300//300 207//207
f 207//207 300//300 251//251
f 300//300 207//207 250//250
f 208//208 252//252 251//251
f 301//301 251//251 252//252
f 252//252 251//251 301//301
f 251//251 252//252 208//208
f 209//209 253//253 252//252
f 302//302 252//252 253//253
f 253//253 252//252 302//302
f 252//252 253//253 209//209
f 230//230 232//232 253//253
f 254//254 253//253 232//232
f 232//232 253//253 254//254
f 253//253 232//232 230//230
f 210//210 255//255 254//254
f 303//303 254//254 255//255
f 255//255 254//254 303//303
f 254//254 255//255 210//210
f 211//211 256//256 255//255
f 304//304 255//255 256//256
f 256//256 255//255 304//304
f 255//255 256//256 211//211
f 257//257 305//305 212//212
f 256//256 212//212 305//305
f 305//305 212//212 256//256
f 212//212 305//305 257//257
f 258//258 306//306 213//213
f 257//257 213//213 306//306
f 306//306 213//213 257//257
f 213//213 306//306 258//258
f 259//259 307//307 214//214
f 258//258 214//214 307//307
f 307//307 214//214 258//258
f 214//214 307//307 259//259
f 308//308 259//259 260//260
f 215//215 260//260 259//259
f 259//259 260//260 215//215
f 260//260 259//259 308//308
f 309//309 260//260 261//261
f 216//216 261//261 260//260
f 260//260 261//261 216//216
f 261//261 260//260 309//309
f 310//310 261//261 74//74
f 48//48 74//74 261//261
f 261//261 74//74 48//48
f 74//74 261//261 310//310
f 69//69 262//262 103//103
f 311//311 103//103 262//262
f 262//262 103//103 311//311
f 103//103 262//262 69//69
f 291//291 312//312 292//292
f 313//313 292//292 312//312
f 312//312 292//292 313//313
f 292//292 312//312 291//291
f 263//263 314//314 217//217
f 262//262 217//217 314//314
f 314//314 217//217 262//262
f 217//217 314//314 263//263
f 264//264 292//292 265//265
f 315//315 265//265 292//292
f 292//292 265//265 315//315
f 265//265 292//292 264//264
f 266//266 316//316 218//218
f 263//263 218//218 316//316
f 316//316 218//218 263//263
f 218//218 316//316 266//266
f 246//246 265//265 267//267
f 317//317 267//267 265//265
f 265//265 267//267 317//317
f 267//267 265//265 246//246
f 318//318 266//266 268//268
f 219//219 268//268 266//266
f 266//266 268//268 219//219
f 268//268 266//266 318//318
f 221//221 267//267 269//269
f 319//319 269//269 267//267
f 267//267 269//269 319//319
f 269//269 267//267 221//221
f 320//320 268//268 270//270
f 222//222 270//270 268//268
f 268//268 270//270 222//222
f 270//270 268//268 320//320
f 223//223 269//269 271//271
f 321//321 271//271 269//269
f 269//269 271//271 321//321
f 271//271 269//269 223//223
f 272//272 322//322 224//224
f 270//270 224//224 322//322
f 322//322 224//224 270//270
f 224//224 322//322 272//272
f 225//225 271//271 273//273
f 323//323 273//273 271//271
f 271//271 273//273 323//323
f 273//273 271//271 225//225
f 274//274 324//324 226//226
f 272//272 226//226 324//324
f 324//324 226//226 272//272
f 226//226 324//324 274//274
f 325//325 275//275 273//273
f 227//227 273//273 275//275
f 275//275 273//273 227//227
f 273//273 275//275 325//325
f 326//326 274//274 276//276
f 228//228 276//276 274//274
f 274//274 276//276 228//228
f 276//276 274//274 326//326
f 275//275 276//276 229//229
f 231//231 229//229 276//276
f 276//276 229//229 231//231
f 229//229 276//276 275//275
f 327//327 278//278 328//328
f 277//277 328//328 278//278
f 278//278 328//328 277//277
f 328//328 278//278 327//327
f 328//328 277//277 329//329
f 279//279 329//329 277//277
f 277//277 329//329 279//279
f 329//329 277//277 328//328
f 329//329 279//279 330//330
f 280//280 330//330 279//279
f 279//279 330//330 280//280
f 330//330 279//279 329//329
f 330//330 280//280 331//331
f 281//281 331//331 280//280
f 280//280 331//331 281//281
f 331//331 280//280 330//330
f 332//332 331//331 282//282
f 281//281 282//282 331//331
f 331//331 282//282 281//281
f 282//282 331//331 332//332
f 333//333 332//332 283//283
f 282//282 283//283 332//332
f 332//332 283//283 282//282
f 283//283 332//332 333//333
f 334//334 333//333 284//284
f 283//283 284//284 333//333
f 333//333 284//284 283//283
f 284//284 333//333 334//334
f 335//335 334//334 285//285
f 284//284 285//285 334//334
f 334//334 285//285 284//284
f 285//285 334//334 335//335
f 336//336 335//335 286//286
f 285//285 286//286 335//335
f 335//335 286//286 285//285
f 286//286 335//335 336//336
f 287//287 337//337 286//286
f 336//336 286//286 337//337
f 337//337 286//286 336//336
f 286//286 337//337 287//287
f 288//288 338//338 287//287
f 337//337 287//287 338//338
f 338//338 287//287 337//337
f 287//287 338//338 288//288
f 295//295 339//339 288//288
f 338//338 288//288 339//339
f 339//339 288//288 338//338
f 288//288 339//339 295//295
f 340//340 341//341 295//295
f 339//339 295//295 341//341
f 341//341 295//295 339//339
f 295//295 341//341 340//340
f 342//342 312//312 343//343
f 344//344 343//343 312//312
f 312//312 343//343 344//344
f 343//343 312//312 342//342
f 312//312 291//291 344//344
f 345//345 344//344 291//291
f 291//291 344//344 345//345
f 344//344 291//291 312//312
f 291//291 290//290 345//345
f 346//346 345//345 290//290
f 290//290 345//345 346//346
f 345//345 290//290 291//291
f 290//290 293//293 346//346
f 347//347 346//346 293//293
f 293//293 346//346 347//347
f 346//346 293//293 290//290
f 347//347 293//293 348//348
f 294//294 348//348 293//293
f 293//293 348//348 294//294
f 348//348 293//293 347//347
f 348//348 294//294 327//327
f 278//278 327//327 294//294
f 294//294 327//327 278//278
f 327//327 294//294 348//348
f 349//349 350//350 340//340
f 341//341 340//340 350//350
f 350//350 340//340 341//341
f 340//340 350//350 349//349
f 340//340 295//295 351//351
f 296//296 351//351 295//295
f 295//295 351//351 296//296
f 351//351 295//295 340//340
f 296//296 289//289 352//352
f 297//297 352//352 289//289
f 289//289 352//352 297//297
f 352//352 289//289 296//296
f 297//297 248//248 353//353
f 298//298 353//353 248//248
f 248//248 353//353 298//298
f 353//353 248//248 297//297
f 298//298 249//249 354//354
f 299//299 354//354 249//249
f 249//249 354//354 299//299
f 354//354 249//249 298//298
f 299//299 250//250 355//355
f 300//300 355//355 250//250
f 250//250 355//355 300//300
f 355//355 250//250 299//299
f 300//300 251//251 356//356
f 301//301 356//356 251//251
f 251//251 356//356 301//301
f 356//356 251//251 300//300
f 252//252 302//302 301//301
f 357//357 301//301 302//302
f 302//302 301//301 357//357
f 301//301 302//302 252//252
f 254//254 303//303 253//253
f 302//302 253//253 303//303
f 303//303 253//253 302//302
f 253//253 303//303 254//254
f 255//255 304//304 303//303
f 358//358 303//303 304//304
f 304//304 303//303 358//358
f 303//303 304//304 255//255
f 359//359 304//304 305//305
f 256//256 305//305 304//304
f 304//304 305//305 256//256
f 305//305 304//304 359//359
f 360//360 305//305 306//306
f 257//257 306//306 305//305
f 305//305 306//306 257//257
f 306//306 305//305 360//360
f 307//307 361//361 258//258
f 306//306 258//258 361//361
f 361//361 258//258 306//306
f 258//258 361//361 307//307
f 362//362 307//307 308//308
f 259//259 308//308 307//307
f 307//307 308//308 259//259
f 308//308 307//307 362//362
f 363//363 308//308 309//309
f 260//260 309//309 308//308
f 308//308 309//309 260//260
f 309//309 308//308 363//363
f 364//364 309//309 310//310
f 261//261 310//310 309//309
f 309//309 310//310 261//261
f 310//310 309//309 364//364
f 106//106 365//365 74//74
f 310//310 74//74 365//365
f 365//365 74//74 310//310
f 74//74 365//365 106//106
f 366//366 342//342 367//367
f 343//343 367//367 342//342
f 342//342 367//367 343//343
f 367//367 342//342 366//366
f 103//103 311//311 113//113
f 368//368 113//113 311//311
f 311//311 113//113 368//368
f 113//113 311//311 103//103
f 313//313 312//312 369//369
f 342//342 369//369 312//312
f 312//312 369//369 342//342
f 369//369 312//312 313//313
f 314//314 370//370 262//262
f 311//311 262//262 370//370
f 370//370 262//262 311//311
f 262//262 370//370 314//314
f 292//292 313//313 315//315
f 371//371 315//315 313//313
f 313//313 315//315 371//371
f 315//315 313//313 292//292
f 316//316 372//372 263//263
f 314//314 263//263 372//372
f 372//372 263//263 314//314
f 263//263 372//372 316//316
f 265//265 315//315 317//317
f 373//373 317//317 315//315
f 315//315 317//317 373//373
f 317//317 315//315 265//265
f 374//374 316//316 318//318
f 266//266 318//318 316//316
f 316//316 318//318 266//266
f 318//318 316//316 374//374
f 267//267 317//317 319//319
f 375//375 319//319 317//317
f 317//317 319//319 375//375
f 319//319 317//317 267//267
f 376//376 318//318 320//320
f 268//268 320//320 318//318
f 318//318 320//320 268//268
f 320//320 318//318 376//376
f 269//269 319//319 321//321
f 377//377 321//321 319//319
f 319//319 321//321 377//377
f 321//321 319//319 269//269
f 322//322 378//378 270//270
f 320//320 270//270 378//378
f 378//378 270//270 320//320
f 270//270 378//378 322//322
f 271//271 321//321 323//323
f 379//379 323//323 321//321
f 321//321 323//323 379//379
f 323//323 321//321 271//271
f 324//324 380//380 272//272
f 322//322 272//272 380//380
f 380//380 272//272 322//322
f 272//272 380//380 324//324
f 273//273 323//323 325//325
f 381//381 325//325 323//323
f 323//323 325//325 381//381
f 325//325 323//323 273//273
f 326//326 382//382 274//274
f 324//324 274//274 382//382
f 382//382 274//274 324//324
f 274//274 382//382 326//326
f 325//325 326//326 275//275
f 276//276 275//275 326//326
f 326//326 275//275 276//276
f 275//275 326//326 325//325
f 383//383 367//367 384//384
f 343//343 384//384 367//367
f 350//350 384//384 343//343
f 344//344 350//350 343//343
f 341//341 350//350 344//344
f 345//345 341//341 344//344
f 339//339 341//341 345//345
f 346//346 339//339 345//345
f 338//338 339//339 346//346
f 347//347 338//338 346//346
f 337//337 338//338 347//347
f 348//348 337//337 347//347
f 336//336 337//337 348//348
f 327//327 336//336 348//348
f 335//335 336//336 327//327
f 328//328 335//335 327//327
f 334//334 335//335 328//328
f 329//329 334//334 328//328
f 333//333 334//334 329//329
f 330//330 333//333 329//329
f 332//332 333//333 330//330
f 331//331 332//332 330//330
f 330//330 332//332 331//331
f 330//330 333//333 332//332
f 329//329 333//333 330//330
f 329//329 334//334 333//333
f 328//328 334//334 329//329
f 328//328 335//335 334//334
f 327//327 335//335 328//328
f 327//327 336//336 335//335
f 348//348 336//336 327//327
f 348//348 337//337 336//336
f 347//347 337//337 348//348
f 347//347 338//338 337//337
f 346//346 338//338 347//347
f 346//346 339//339 338//338
f 345//345 339//339 346//346
f 345//345 341//341 339//339
f 344//344 341//341 345//345
f 344//344 350//350 341//341
f 343//343 350//350 344//344
f 343//343 384//384 350//350
f 367//367 384//384 343//343
f 384//384 367//367 383//383
f 385//385 384//384 349//349
f 350//350 349//349 384//384
f 384//384 349//349 350//350
f 349//349 384//384 385//385
f 349//349 340//340 386//386
f 351//351 386//386 340//340
f 340//340 386//386 351//351
f 386//386 340//340 349//349
f 351//351 296//296 387//387
f 352//352 387//387 296//296
f 296//296 387//387 352//352
f 387//387 296//296 351//351
f 352//352 297//297 388//388
f 353//353 388//388 297//297
f 297//297 388//388 353//353
f 388//388 297//297 352//352
f 353//353 298//298 389//389
f 354//354 389//389 298//298
f 298//298 389//389 354//354
f 389//389 298//298 353//353
f 354//354 299//299 390//390
f 355//355 390//390 299//299
f 299//299 390//390 355//355
f 390//390 299//299 354//354
f 355//355 300//300 391//391
f 356//356 391//391 300//300
f 300//300 391//391 356//356
f 391//391 300//300 355//355
f 356//356 301//301 392//392
f 357//357 392//392 301//301
f 301//301 392//392 357//357
f 392//392 301//301 356//356
f 303//303 358//358 302//302
f 357//357 302//302 358//358
f 358//358 302//302 357//357
f 302//302 358//358 303//303
f 393//393 358//358 359//359
f 304//304 359//359 358//358
f 358//358 359//359 304//304
f 359//359 358//358 393//393
f 394//394 359//359 360//360
f 305//305 360//360 359//359
f 359//359 360//360 305//305
f 360//360 359//359 394//394
f 395//395 360//360 361//361
f 306//306 361//361 360//360
f 360//360 361//361 306//306
f 361//361 360//360 395//395
f 396//396 361//361 362//362
f 307//307 362//362 361//361
f 361//361 362//362 307//307
f 362//362 361//361 396//396
f 397//397 362//362 363//363
f 308//308 363//363 362//362
f 362//362 363//363 308//308
f 363//363 362//362 397//397
f 398//398 363//363 364//364
f 309//309 364//364 363//363
f 363//363 364//364 309//309
f 364//364 363//363 398//398
f 365//365 399//399 310//310
f 364//364 310//310 399//399
f 399//399 310//310 364//364
f 310//310 399//399 365//365
f 400//400 365//365 115//115
f 106//106 115//115 365//365
f 365//365 115//115 106//106
f 115//115 365//365 400//400
f 401//401 366//366 383//383
f 367//367 383//383 366//366
f 366//366 383//383 367//367
f 383//383 366//366 401//401
f 113//113 368//368 119//119
f 402//402 119//119 368//368
f 368//368 119//119 402//402
f 119//119 368//368 113//113
f 369//369 342//342 403//403
f 366//366 403//403 342//342
f 342//342 403//403 366//366
f 403//403 342//342 369//369
f 370//370 404//404 311//311
f 368//368 311//311 404//404
f 404//404 311//311 368//368
f 311//311 404//404 370//370
f 371//371 313//313 405//405
f 369//369 405//405 313//313
f 313//313 405//405 369//369
f 405//405 313//313 371//371
f 372//372 406//406 314//314
f 370//370 314//314 406//406
f 406//406 314//314 370//370
f 314//314 406//406 372//372
f 315//315 371//371 373//373
f 407//407 373//373 371//371
f 371//371 373//373 407//407
f 373//373 371//371 315//315
f 408//408 372//372 374//374
f 316//316 374//374 372//372
f 372//372 374//374 316//316
f 374//374 372//372 408//408
f 317//317 373//373 375//375
f 409//409 375//375 373//373
f 373//373 375//375 409//409
f 375//375 373//373 317//317
f 410//410 374//374 376//376
f 318//318 376//376 374//374
f 374//374 376//376 318//318
f 376//376 374//374 410//410
f 319//319 375//375 377//377
f 411//411 377//377 375//375
f 375//375 377//377 411//411
f 377//377 375//375 319//319
f 378//378 412//412 320//320
f 376//376 320//320 412//412
f 412//412 320//320 376//376
f 320//320 412//412 378//378
f 321//321 377//377 379//379
f 413//413 379//379 377//377
f 377//377 379//379 413//413
f 379//379 377//377 321//321
f 380//380 414//414 322//322
f 378//378 322//322 414//414
f 414//414 322//322 378//378
f 322//322 414//414 380//380
f 323//323 379//379 381//381
f 415//415 381//381 379//379
f 379//379 381//381 415//415
f 381//381 379//379 323//323
f 382//382 416//416 324//324
f 380//380 324//324 416//416
f 416//416 324//324 380//380
f 324//324 416//416 382//382
f 325//325 381//381 326//326
f 382//382 326//326 381//381
f 381//381 326//326 382//382
f 326//326 381//381 325//325
f 401//401 383//383 385//385
f 384//384 385//385 383//383
f 383//383 385//385 384//384
f 385//385 383//383 401//401
f 385//385 349//349 417//417
f 386//386 417//417 349//349
f 349//349 417//417 386//386
f 417//417 349//349 385//385
f 386//386 351//351 418//418
f 387//387 418//418 351//351
f 351//351 418//418 387//387
f 418//418 351//351 386//386
f 387//387 352//352 419//419
f 388//388 419//419 352//352
f 352//352 419//419 388//388
f 419//419 352//352 387//387
f 388//388 353//353 420//420
f 389//389 420//420 353//353
f 353//353 420//420 389//389
f 420//420 353//353 388//388
f 389//389 354//354 421//421
f 390//390 421//421 354//354
f 354//354 421//421 390//390
f 421//421 354//354 389//389
f 390//390 355//355 422//422
f 391//391 422//422 355//355
f 355//355 422//422 391//391
f 422//422 355//355 390//390
f 391//391 356//356 423//423
f 392//392 423//423 356//356
f 356//356 423//423 392//392
f 423//423 356//356 391//391
f 392//392 357//357 393//393
f 358//358 393//393 357//357
f 357//357 393//393 358//358
f 393//393 357//357 392//392
f 424//424 393//393 394//394
f 359//359 394//394 393//393
f 393//393 394//394 359//359
f 394//394 393//393 424//424
f 425//425 394//394 395//395
f 360//360 395//395 394//394
f 394//394 395//395 360//360
f 395//395 394//394 425//425
f 426//426 395//395 396//396
f 361//361 396//396 395//395
f 395//395 396//396 361//361
f 396//396 395//395 426//426
f 427//427 396//396 397//397
f 362//362 397//397 396//396
f 396//396 397//397 362//362
f 397//397 396//396 427//427
f 428//428 397//397 398//398
f 363//363 398//398 397//397
f 397//397 398//398 363//363
f 398//398 397//397 428//428
f 399//399 429//429 364//364
f 398//398 364//364 429//429
f 429//429 364//364 398//398
f 364//364 429//429 399//399
f 400//400 430//430 365//365
f 399//399 365//365 430//430
f 430//430 365//365 399//399
f 365//365 430//430 400//400
f 119//119 402//402 115//115
f 400//400 115//115 402//402
f 402//402 115//115 400//400
f 115//115 402//402 119//119
f 403//403 366//366 431//431
f 401//401 431//431 366//366
f 366//366 431//431 401//401
f 431//431 366//366 403//403
f 404//404 432//432 368//368
f 402//402 368//368 432//432
f 432//432 368//368 402//402
f 368//368 432//432 404//404
f 405//405 369//369 433//433
f 403//403 433//433 369//369
f 369//369 433//433 403//403
f 433//433 369//369 405//405
f 406//406 434//434 370//370
f 404//404 370//370 434//434
f 434//434 370//370 404//404
f 370//370 434//434 406//406
f 407//407 371//371 435//435
f 405//405 435//435 371//371
f 371//371 435//435 405//405
f 435//435 371//371 407//407
f 436//436 406//406 408//408
f 372//372 408//408 406//406
f 406//406 408//408 372//372
f 408//408 406//406 436//436
f 373//373 407//407 409//409
f 437//437 409//409 407//407
f 407//407 409//409 437//437
f 409//409 407//407 373//373
f 438//438 408//408 410//410
f 374//374 410//410 408//408
f 408//408 410//410 374//374
f 410//410 408//408 438//438
f 375//375 409//409 411//411
f 439//439 411//411 409//409
f 409//409 411//411 439//439
f 411//411 409//409 375//375
f 412//412 440//440 376//376
f 410//410 376//376 440//440
f 440//440 376//376 410//410
f 376//376 440//440 412//412
f 377//377 411//411 413//413
f 441//441 413//413 411//411
f 411//411 413//413 441//441
f 413//413 411//411 377//377
f 414//414 442//442 378//378
f 412//412 378//378 442//442
f 442//442 378//378 412//412
f 378//378 442//442 414//414
f 379//379 413//413 415//415
f 443//443 415//415 413//413
f 413//413 415//415 443//443
f 415//415 413//413 379//379
f 416//416 444//444 380//380
f 414//414 380//380 444//444
f 444//444 380//380 414//414
f 380//380 444//444 416//416
f 381//381 415//415 382//382
f 416//416 382//382 415//415
f 415//415 382//382 416//416
f 382//382 415//415 381//381
f 431//431 401//401 417//417
f 385//385 417//417 401//401
f 401//401 417//417 385//385
f 417//417 401//401 431//431
f 417//417 386//386 445//445
f 418//418 445//445 386//386
f 386//386 445//445 418//418
f 445//445 386//386 417//417
f 418//418 387//387 446//446
f 419//419 446//446 387//387
f 387//387 446//446 419//419
f 446//446 387//387 418//418
f 419//419 388//388 447//447
f 420//420 447//447 388//388
f 388//388 447//447 420//420
f 447//447 388//388 419//419
f 420//420 389//389 448//448
f 421//421 448//448 389//389
f 389//389 448//448 421//421
f 448//448 389//389 420//420
f 421//421 390//390 449//449
f 422//422 449//449 390//390
f 390//390 449//449 422//422
f 449//449 390//390 421//421
f 422//422 391//391 450//450
f 423//423 450//450 391//391
f 391//391 450//450 423//423
f 450//450 391//391 422//422
f 423//423 392//392 424//424
f 393//393 424//424 392//392
f 392//392 424//424 393//393
f 424//424 392//392 423//423
f 451//451 424//424 425//425
f 394//394 425//425 424//424
f 424//424 425//425 394//394
f 425//425 424//424 451//451
f 452//452 425//425 426//426
f 395//395 426//426 425//425
f 425//425 426//426 395//395
f 426//426 425//425 452//452
f 453//453 426//426 427//427
f 396//396 427//427 426//426
f 426//426 427//427 396//396
f 427//427 426//426 453//453
f 454//454 427//427 428//428
f 397//397 428//428 427//427
f 427//427 428//428 397//397
f 428//428 427//427 454//454
f 455//455 428//428 429//429
f 398//398 429//429 428//428
f 428//428 429//429 398//398
f 429//429 428//428 455//455
f 430//430 456//456 399//399
f 429//429 399//399 456//456
f 456//456 399//399 429//429
f 399//399 456//456 430//430
f 402//402 432//432 400//400
f 430//430 400//400 432//432
f 432//432 400//400 430//430
f 400//400 432//432 402//402
f 433//433 403//403 457//457
f 431//431 457//457 403//403
f 403//403 457//457 431//431
f 457//457 403//403 433//433
f 434//434 458//458 404//404
f 432//432 404//404 458//458
f 458//458 404//404 432//432
f 404//404 458//458 434//434
f 435//435 405//405 459//459
f 433//433 459//459 405//405
f 405//405 459//459 433//433
f 459//459 405//405 435//435
f 460//460 434//434 436//436
f 406//406 436//436 434//434
f 434//434 436//436 406//406
f 436//436 434//434 460//460
f 437//437 407//407 461//461
f 435//435 461//461 407//407
f 407//407 461//461 435//435
f 461//461 407//407 437//437
f 462//462 436//436 438//438
f 408//408 438//438 436//436
f 436//436 438//438 408//408
f 438//438 436//436 462//462
f 409//409 437//437 439//439
f 463//463 439//439 437//437
f 437//437 439//439 463//463
f 439//439 437//437 409//409
f 464//464 438//438 440//440
f 410//410 440//440 438//438
f 438//438 440//440 410//410
f 440//440 438//438 464//464
f 411//411 439//439 441//441
f 465//465 441//441 439//439
f 439//439 441//441 465//465
f 441//441 439//439 411//411
f 442//442 466//466 412//412
f 440//440 412//412 466//466
f 466//466 412//412 440//440
f 412//412 466//466 442//442
f 413//413 441//441 443//443
f 467//467 443//443 441//441
f 441//441 443//443 467//467
f 443//443 441//441 413//413
f 444//444 468//468 414//414
f 442//442 414//414 468//468
f 468//468 414//414 442//442
f 414//414 468//468 444//444
f 415//415 443//443 416//416
f 444//444 416//416 443//443
f 443//443 416//416 444//444
f 416//416 443//443 415//415
f 457//457 431//431 445//445
f 417//417 445//445 431//431
f 431//431 445//445 417//417
f 445//445 431//431 457//457
f 445//445 418//418 469//469
f 446//446 469//469 418//418
f 418//418 469//469 446//446
f 469//469 418//418 445//445
f 446//446 419//419 470//470
f 447//447 470//470 419//419
f 419//419 470//470 447//447
f 470//470 419//419 446//446
f 447//447 420//420 471//471
f 448//448 471//471 420//420
f 420//420 471//471 448//448
f 471//471 420//420 447//447
f 448//448 421//421 472//472
f 449//449 472//472 421//421
f 421//421 472//472 449//449
f 472//472 421//421 448//448
f 449//449 422//422 473//473
f 450//450 473//473 422//422
f 422//422 473//473 450//450
f 473//473 422//422 449//449
f 450//450 423//423 451//451
f 424//424 451//451 423//423
f 423//423 451//451 424//424
f 451//451 423//423 450//450
f 474//474 451//451 452//452
f 425//425 452//452 451//451
f 451//451 452//452 425//425
f 452//452 451//451 474//474
f 475//475 452//452 453//453
f 426//426 453//453 452//452
f 452//452 453//453 426//426
f 453//453 452//452 475//475
f 476//476 453//453 454//454
f 427//427 454//454 453//453
f 453//453 454//454 427//427
f 454//454 453//453 476//476
f 477//477 454//454 455//455
f 428//428 455//455 454//454
f 454//454 455//455 428//428
f 455//455 454//454 477//477
f 478//478 455//455 456//456
f 429//429 456//456 455//455
f 455//455 456//456 429//429
f 456//456 455//455 478//478
f 432//432 458//458 430//430
f 456//456 430//430 458//458
f 458//458 430//430 456//456
f 430//430 458//458 432//432
f 459//459 433//433 479//479
f 457//457 479//479 433//433
f 433//433 479//479 457//457
f 479//479 433//433 459//459
f 480//480 458//458 460//460
f 434//434 460//460 458//458
f 458//458 460//460 434//434
f 460//460 458//458 480//480
f 461//461 435//435 481//481
f 459//459 481//481 435//435
f 435//435 481//481 459//459
f 481//481 435//435 461//461
f 482//482 460//460 462//462
f 436//436 462//462 460//460
f 460//460 462//462 436//436
f 462//462 460//460 482//482
f 463//463 437//437 483//483
f 461//461 483//483 437//437
f 437//437 483//483 461//461
f 483//483 437//437 463//463
f 484//484 462//462 464//464
f 438//438 464//464 462//462
f 462//462 464//464 438//438
f 464//464 462//462 484//484
f 439//439 463//463 465//465
f 485//485 465//465 463//463
f 463//463 465//465 485//485
f 465//465 463//463 439//439
f 466//466 486//486 440//440
f 464//464 440//440 486//486
f 486//486 440//440 464//464
f 440//440 486//486 466//466
f 441//441 465//465 467//467
f 487//487 467//467 465//465
f 465//465 467//467 487//487
f 467//467 465//465 441//441
f 468//468 488//488 442//442
f 466//466 442//442 488//488
f 488//488 442//442 466//466
f 442//442 488//488 468//468
f 443//443 467//467 444//444
f 468//468 444//444 467//467
f 467//467 444//444 468//468
f 444//444 467//467 443//443
f 479//479 457//457 469//469
f 445//445 469//469 457//457
f 457//457 469//469 445//445
f 469//469 457//457 479//479
f 469//469 446//446 489//489
f 470//470 489//489 446//446
f 446//446 489//489 470//470
f 489//489 446//446 469//469
f 470//470 447//447 490//490
f 471//471 490//490 447//447
f 447//447 490//490 471//471
f 490//490 447//447 470//470
f 471//471 448//448 491//491
f 472//472 491//491 448//448
f 448//448 491//491 472//472
f 491//491 448//448 471//471
f 472//472 449//449 492//492
f 473//473 492//492 449//449
f 449//449 492//492 473//473
f 492//492 449//449 472//472
f 473//473 450//450 474//474
f 451//451 474//474 450//450
f 450//450 474//474 451//451
f 474//474 450//450 473//473
f 493//493 474//474 475//475
f 452//452 475//475 474//474
f 474//474 475//475 452//452
f 475//475 474//474 493//493
f 494//494 475//475 476//476
f 453//453 476//476 475//475
f 475//475 476//476 453//453
f 476//476 475//475 494//494
f 495//495 476//476 477//477
f 454//454 477//477 476//476
f 476//476 477//477 454//454
f 477//477 476//476 495//495
f 496//496 477//477 478//478
f 455//455 478//478 477//477
f 477//477 478//478 455//455
f 478//478 477//477 496//496
f 480//480 478//478 458//458
f 456//456 458//458 478//478
f 478//478 458//458 456//456
f 458//458 478//478 480//480
f 481//481 459//459 497//497
f 479//479 497//497 459//459
f 459//459 497//497 479//479
f 497//497 459//459 481//481
f 498//498 480//480 482//482
f 460//460 482//482 480//480
f 480//480 482//482 460//460
f 482//482 480//480 498//498
f 483//483 461//461 499//499
f 481//481 499//499 461//461
f 461//461 499//499 481//481
f 499//499 461//461 483//483
f 484//484 500//500 462//462
f 482//482 462//462 500//500
f 500//500 462//462 482//482
f 462//462 500//500 484//484
f 485//485 463//463 501//501
f 483//483 501//501 463//463
f 463//463 501//501 483//483
f 501//501 463//463 485//485
f 486//486 502//502 464//464
f 484//484 464//464 502//502
f 502//502 464//464 484//484
f 464//464 502//502 486//486
f 465//465 485//485 487//487
f 503//503 487//487 485//485
f 485//485 487//487 503//503
f 487//487 485//485 465//465
f 488//488 504//504 466//466
f 486//486 466//466 504//504
f 504//504 466//466 486//486
f 466//466 504//504 488//488
f 467//467 487//487 468//468
f 488//488 468//468 487//487
f 487//487 468//468 488//488
f 468//468 487//487 467//467
f 479//479 469//469 497//497
f 489//489 497//497 469//469
f 469//469 497//497 489//489
f 497//497 469//469 479//479
f 489//489 470//470 505//505
f 490//490 505//505 470//470
f 470//470 505//505 490//490
f 505//505 470//470 489//489
f 490//490 471//471 506//506
f 491//491 506//506 471//471
f 471//471 506//506 491//491
f 506//506 471//471 490//490
f 491//491 472//472 507//507
f 492//492 507//507 472//472
f 472//472 507//507 492//492
f 507//507 472//472 491//491
f 492//492 473//473 493//493
f 474//474 493//493 473//473
f 473//473 493//493 474//474
f 493//493 473//473 492//492
f 508//508 493//493 494//494
f 475//475 494//494 493//493
f 493//493 494//494 475//475
f 494//494 493//493 508//508
f 495//495 509//509 476//476
f 494//494 476//476 509//509
f 509//509 476//476 494//494
f 476//476 509//509 495//495
f 496//496 510//510 477//477
f 495//495 477//477 510//510
f 510//510 477//477 495//495
f 477//477 510//510 496//496
f 498//498 496//496 480//480
f 478//478 480//480 496//496
f 496//496 480//480 478//478
f 480//480 496//496 498//498
f 499//499 481//481 511//511
f 497//497 511//511 481//481
f 481//481 511//511 497//497
f 511//511 481//481 499//499
f 500//500 512//512 482//482
f 498//498 482//482 512//512
f 512//512 482//482 498//498
f 482//482 512//512 500//500
f 501//501 483//483 513//513
f 499//499 513//513 483//483
f 483//483 513//513 499//499
f 513//513 483//483 501//501
f 502//502 514//514 484//484
f 500//500 484//484 514//514
f 514//514 484//484 500//500
f 484//484 514//514 502//502
f 503//503 485//485 515//515
f 501//501 515//515 485//485
f 485//485 515//515 501//501
f 515//515 485//485 503//503
f 504//504 516//516 486//486
f 502//502 486//486 516//516
f 516//516 486//486 502//502
f 486//486 516//516 504//504
f 487//487 503//503 488//488
f 504//504 488//488 503//503
f 503//503 488//488 504//504
f 488//488 503//503 487//487
f 511//511 497//497 505//505
f 489//489 505//505 497//497
f 497//497 505//505 489//489
f 505//505 497//497 511//511
f 505//505 490//490 517//517
f 506//506 517//517 490//490
f 490//490 517//517 506//506
f 517//517 490//490 505//505
f 506//506 491//491 518//518
f 507//507 518//518 491//491
f 491//491 518//518 507//507
f 518//518 491//491 506//506
f 507//507 492//492 508//508
f 493//493 508//508 492//492
f 492//492 508//508 493//493
f 508//508 492//492 507//507
f 509//509 519//519 494//494
f 508//508 494//494 519//519
f 519//519 494//494 508//508
f 494//494 519//519 509//509
f 510//510 520//520 495//495
f 509//509 495//495 520//520
f 520//520 495//495 509//509
f 495//495 520//520 510//510
f 498//498 512//512 496//496
f 510//510 496//496 512//512
f 512//512 496//496 510//510
f 496//496 512//512 498//498
f 513//513 499//499 521//521
f 511//511 521//521 499//499
f 499//499 521//521 511//511
f 521//521 499//499 513//513
f 514//514 522//522 500//500
f 512//512 500//500 522//522
f 522//522 500//500 512//512
f 500//500 522//522 514//514
f 515//515 501//501 523//523
f 513//513 523//523 501//501
f 501//501 523//523 513//513
f 523//523 501//501 515//515
f 516//516 524//524 502//502
f 514//514 502//502 524//524
f 524//524 502//502 514//514
f 502//502 524//524 516//516
f 503//503 515//515 504//504
f 516//516 504//504 515//515
f 515//515 504//504 516//516
f 504//504 515//515 503//503
f 521//521 511//511 517//517
f 505//505 517//517 511//511
f 511//511 517//517 505//505
f 517//517 511//511 521//521
f 517//517 506//506 525//525
f 518//518 525//525 506//506
f 506//506 525//525 518//518
f 525//525 506//506 517//517
f 519//519 518//518 508//508
f 507//507 508//508 518//518
f 518//518 508//508 507//507
f 508//508 518//518 519//519
f 520//520 526//526 509//509
f 519//519 509//509 526//526
f 526//526 509//509 519//519
f 509//509 526//526 520//520
f 522//522 520//520 512//512
f 510//510 512//512 520//520
f 520//520 512//512 510//510
f 512//512 520//520 522//522
f 523//523 513//513 527//527
f 521//521 527//527 513//513
f 513//513 527//527 521//521
f 527//527 513//513 523//523
f 524//524 528//528 514//514
f 522//522 514//514 528//528
f 528//528 514//514 522//522
f 514//514 528//528 524//524
f 515//515 523//523 516//516
f 524//524 516//516 523//523
f 523//523 516//516 524//524
f 516//516 523//523 515//515
f 521//521 517//517 527//527
f 525//525 527//527 517//517
f 517//517 527//527 525//525
f 527//527 517//517 521//521
f 526//526 525//525 519//519
f 518//518 519//519 525//525
f 525//525 519//519 518//518
f 519//519 525//525 526//526
f 522//522 528//528 520//520
f 526//526 520//520 528//528
f 528//528 520//520 526//526
f 520//520 528//528 522//522
f 523//523 527//527 524//524
f 528//528 524//524 527//527
f 527//527 524//524 528//528
f 524//524 527//527 523//523
f 528//528 527//527 526//526
f 525//525 526//526 527//527
f 527//527 526//526 525//525
f 526//526 527//527 528//528