# https://github.com/mikedh/trimesh
v 0.01991400 0.00712400 0.00950100
v 0.01481700 0.00572800 0.00679500
v 0.01481700 0.00572800 0.00950100
v 0.01991400 0.00712400 0.00679500
v 0.01584500 0.00170500 0.00679500
v 0.02101100 0.00317900 0.00679500
v 0.01584500 0.00170500 0.00950100
v 0.02101100 0.00317900 0.00950100
v 0.01959800 0.01090200 0.01064300
v 0.01959800 0.01090200 0.00793700
v 0.02332700 -0.00239000 0.00547500
v 0.02332700 -0.00239000 0.00818100
v 0.02029100 0.01625800 0.01123400
v 0.09170400 0.01820100 0.00578700
v 0.08852900 0.02904200 0.00833000
v 0.09116000 0.02409500 0.00696600
v 0.09170400 0.01820100 0.00714100
v 0.09116000 0.02409500 0.00831900
v 0.08852900 0.02904200 0.00968300
v 0.02029100 0.01625800 0.00852800
v 0.08620400 0.03196600 0.00915500
v 0.02568500 -0.00476600 0.00506100
v 0.02568500 -0.00476600 0.00776700
v 0.09089200 0.01505000 0.00544200
v 0.09089200 0.01505000 0.00679500
v 0.02331400 0.01984400 0.01153100
v 0.02331400 0.01984400 0.00882400
v 0.08220200 0.03293400 0.00950100
v 0.08620400 0.03196600 0.01050800
v 0.08744700 0.01190700 0.00544200
v 0.03015400 -0.00624000 0.00476500
v 0.03015400 -0.00624000 0.00747100
v 0.08220200 0.03293400 0.01085400
v 0.08744700 0.01190700 0.00679500
v -0.01596600 0.01316400 0.00950100
v -0.01225400 0.00940200 0.00679500
v -0.01225400 0.00940200 0.00950100
v -0.01596600 0.01316400 0.00679500
v -0.00924900 0.01226700 0.00679500
v -0.01306300 0.01605100 0.00679500
v -0.00924900 0.01226700 0.00950100
v -0.01306300 0.01605100 0.00950100
v -0.01910600 0.01104000 0.01064300
v -0.01910600 0.01104000 0.00793700
v -0.00933900 0.02079700 0.00547500
v -0.00933900 0.02079700 0.00818100
v -0.02411600 0.00902300 0.01123400
v -0.06075700 0.07035000 0.00578700
v -0.06865800 0.06227600 0.00833000
v -0.06563100 0.06699200 0.00696600
v -0.06075700 0.07035000 0.00714100
v -0.06563100 0.06699200 0.00831900
v -0.06865800 0.06227600 0.00968300
v -0.02411600 0.00902300 0.00852800
v -0.07007000 0.05881700 0.00915500
v -0.00842100 0.02401500 0.00506100
v -0.00842100 0.02401500 0.00776700
v -0.05761100 0.07118400 0.00544200
v -0.05761100 0.07118400 0.00679500
v -0.02872300 0.00990500 0.01153100
v -0.02872300 0.00990500 0.00882400
v -0.06895500 0.05485400 0.00950100
v -0.07007000 0.05881700 0.01050800
v -0.05318500 0.06971700 0.00544200
v -0.00932200 0.02863400 0.00476500
v -0.00932200 0.02863400 0.00747100
v -0.06895500 0.05485400 0.01085400
v -0.05318500 0.06971700 0.00679500
v -0.00324800 -0.02102800 0.00950100
v -0.00184600 -0.01593300 0.00679500
v -0.00184600 -0.01593300 0.00950100
v -0.00324800 -0.02102800 0.00679500
v -0.00583000 -0.01476300 0.00679500
v -0.00720000 -0.01995800 0.00679500
v -0.00583000 -0.01476300 0.00950100
v -0.00720000 -0.01995800 0.00950100
v 0.00016200 -0.02268600 0.01064300
v 0.00016200 -0.02268600 0.00793700
v -0.01317200 -0.01910500 0.00547500
v -0.01317200 -0.01910500 0.00818100
v 0.00441300 -0.02601600 0.01123400
v -0.03037800 -0.08841100 0.00578700
v -0.01943500 -0.09121700 0.00833000
v -0.02503200 -0.09095300 0.00696600
v -0.03037800 -0.08841100 0.00714100
v -0.02503200 -0.09095300 0.00831900
v -0.01943500 -0.09121700 0.00968300
v 0.00441300 -0.02601600 0.00852800
v -0.01573300 -0.09071000 0.00915500
v -0.01641800 -0.01991900 0.00506100
v -0.01641800 -0.01991900 0.00776700
v -0.03267200 -0.08610400 0.00544200
v -0.03267200 -0.08610400 0.00679500
v 0.00595300 -0.03044600 0.01153100
v 0.00595300 -0.03044600 0.00882400
v -0.01285800 -0.08776300 0.00950100
v -0.01573300 -0.09071000 0.01050800
v -0.03361500 -0.08153700 0.00544200
v -0.01996700 -0.02300900 0.00476500
v -0.01996700 -0.02300900 0.00747100
v -0.01285800 -0.08776300 0.01085400
v -0.03361500 -0.08153700 0.00679500
v -0.00278100 0.00501200 0.01356000
v 0.00026300 -0.00026100 0.01356000
v -0.00125900 0.00542000 0.01356000
v -0.00501000 0.00278400 0.01356000
v -0.00541800 -0.00178300 0.01356000
v -0.00582600 -0.00026100 0.01356000
v -0.00785500 0.01380100 0.01085400
v -0.01379900 0.00785800 0.01085400
v -0.01597400 -0.00026100 0.01085400
v -0.01488600 -0.00432000 0.01085400
v -0.00379600 0.01488900 0.01085400
v -0.01379900 0.00785800 0.00950100
v -0.00785500 0.01380100 0.00950100
v -0.01597400 -0.00026100 0.00950100
v -0.01488600 -0.00432000 0.00950100
v -0.00379600 0.01488900 0.00950100
v -0.01379900 0.00785800 0.00679500
v -0.00785500 0.01380100 0.00679500
v -0.01597400 -0.00026100 0.00679500
v -0.01488600 -0.00432000 0.00679500
v -0.00379600 0.01488900 0.00679500
v -0.01236100 -0.00364400 -0.05138900
v -0.01326800 -0.00026100 -0.04665300
v -0.01326800 -0.00026100 -0.05138900
v -0.01236100 -0.00364400 -0.04665300
v -0.01379900 0.00785800 0.00341200
v -0.00785500 0.01380100 0.00341200
v -0.01597400 -0.00026100 0.00341200
v -0.01488600 -0.00432000 0.00341200
v -0.00379600 0.01488900 0.00341200
v -0.00311900 -0.00026100 -0.04124000
v -0.00289300 -0.00110600 -0.04124000
v -0.01145500 0.00650500 -0.04665300
v -0.01145500 0.00650500 -0.05138900
v 0.00026300 -0.00026100 -0.05138900
v -0.00650200 0.01145700 -0.05138900
v -0.00311900 0.01236400 -0.05138900
v -0.00650200 0.01145700 -0.04665300
v -0.00311900 0.01236400 -0.04665300
v -0.00852500 0.00481300 -0.00064700
v -0.00481100 0.00852800 -0.00064700
v -0.00988500 -0.00026100 -0.00064700
v -0.00920500 -0.00279800 -0.00064700
v -0.00227400 0.00920800 -0.00064700
v -0.00289300 -0.00110600 -0.00064700
v -0.00311900 -0.00026100 -0.00064700
v -0.00266600 0.00143100 -0.04124000
v -0.00142800 0.00266900 -0.04124000
v -0.00058200 0.00289500 -0.04124000
v -0.00142800 0.00266900 -0.00064700
v -0.00058200 0.00289500 -0.00064700
v -0.00266600 0.00143100 -0.00064700
v 0.00553700 0.00278400 0.01356000
v 0.00594400 0.00126100 0.01356000
v 0.00330800 0.00501200 0.01356000
v 0.00026300 0.00582800 0.01356000
v 0.01432500 0.00785800 0.01085400
v 0.00838200 0.01380100 0.01085400
v 0.00026300 0.01597600 0.01085400
v 0.01541300 0.00379800 0.01085400
v 0.00838200 0.01380100 0.00950100
v 0.01432500 0.00785800 0.00950100
v 0.00026300 0.01597600 0.00950100
v 0.01541300 0.00379800 0.00950100
v 0.00838200 0.01380100 0.00679500
v 0.01432500 0.00785800 0.00679500
v 0.00026300 0.01597600 0.00679500
v 0.01541300 0.00379800 0.00679500
v 0.00026300 0.01327000 -0.04665300
v 0.00026300 0.01327000 -0.05138900
v 0.00838200 0.01380100 0.00341200
v 0.01432500 0.00785800 0.00341200
v 0.00026300 0.01597600 0.00341200
v 0.01541300 0.00379800 0.00341200
v 0.00026300 0.00312200 -0.04124000
v 0.00702900 0.01145700 -0.04665300
v 0.00702900 0.01145700 -0.05138900
v 0.01198200 0.00650500 -0.05138900
v 0.01288800 0.00312200 -0.05138900
v 0.01198200 0.00650500 -0.04665300
v 0.01288800 0.00312200 -0.04665300
v 0.00533700 0.00852800 -0.00064700
v 0.00905200 0.00481300 -0.00064700
v 0.00026300 0.00988700 -0.00064700
v 0.00973200 0.00227600 -0.00064700
v 0.00026300 0.00312200 -0.00064700
v 0.00195500 0.00266900 -0.04124000
v 0.00319300 0.00143100 -0.04124000
v 0.00341900 0.00058500 -0.04124000
v 0.00319300 0.00143100 -0.00064700
v 0.00341900 0.00058500 -0.00064700
v 0.00195500 0.00266900 -0.00064700
v 0.00330800 -0.00553400 0.01356000
v 0.00178600 -0.00594200 0.01356000
v 0.00553700 -0.00330500 0.01356000
v 0.00635200 -0.00026100 0.01356000
v 0.00838200 -0.01432300 0.01085400
v 0.01432500 -0.00837900 0.01085400
v 0.01650100 -0.00026100 0.01085400
v 0.00432300 -0.01541000 0.01085400
v 0.01432500 -0.00837900 0.00950100
v 0.00838200 -0.01432300 0.00950100
v 0.01650100 -0.00026100 0.00950100
v 0.00432300 -0.01541000 0.00950100
v 0.01432500 -0.00837900 0.00679500
v 0.00838200 -0.01432300 0.00679500
v 0.01650100 -0.00026100 0.00679500
v 0.00432300 -0.01541000 0.00679500
v 0.01379400 -0.00026100 -0.04665300
v 0.01379400 -0.00026100 -0.05138900
v 0.01432500 -0.00837900 0.00341200
v 0.00838200 -0.01432300 0.00341200
v 0.01650100 -0.00026100 0.00341200
v 0.00432300 -0.01541000 0.00341200
v 0.00364600 -0.00026100 -0.04124000
v 0.01198200 -0.00702600 -0.04665300
v 0.01198200 -0.00702600 -0.05138900
v 0.00702900 -0.01197900 -0.05138900
v 0.00364600 -0.01288500 -0.05138900
v 0.00702900 -0.01197900 -0.04665300
v 0.00364600 -0.01288500 -0.04665300
v 0.00905200 -0.00533500 -0.00064700
v 0.00533700 -0.00904900 -0.00064700
v 0.01041200 -0.00026100 -0.00064700
v 0.00280000 -0.00972900 -0.00064700
v 0.00364600 -0.00026100 -0.00064700
v 0.00319300 -0.00195200 -0.04124000
v 0.00195500 -0.00319000 -0.04124000
v 0.00110900 -0.00341700 -0.04124000
v 0.00195500 -0.00319000 -0.00064700
v 0.00110900 -0.00341700 -0.00064700
v 0.00319300 -0.00195200 -0.00064700
v -0.00501000 -0.00330500 0.01356000
v -0.00278100 -0.00553400 0.01356000
v 0.00026300 -0.00635000 0.01356000
v -0.01379900 -0.00837900 0.01085400
v -0.00785500 -0.01432300 0.01085400
v 0.00026300 -0.01649800 0.01085400
v -0.00785500 -0.01432300 0.00950100
v -0.01379900 -0.00837900 0.00950100
v 0.00026300 -0.01649800 0.00950100
v -0.00785500 -0.01432300 0.00679500
v -0.01379900 -0.00837900 0.00679500
v 0.00026300 -0.01649800 0.00679500
v 0.00026300 -0.01379200 -0.04665300
v 0.00026300 -0.01379200 -0.05138900
v -0.00785500 -0.01432300 0.00341200
v -0.01379900 -0.00837900 0.00341200
v 0.00026300 -0.01649800 0.00341200
v 0.00026300 -0.00364400 -0.04124000
v -0.00650200 -0.01197900 -0.04665300
v -0.00650200 -0.01197900 -0.05138900
v -0.01145500 -0.00702600 -0.05138900
v -0.01145500 -0.00702600 -0.04665300
v -0.00481100 -0.00904900 -0.00064700
v -0.00852500 -0.00533500 -0.00064700
v 0.00026300 -0.01040900 -0.00064700
v 0.00026300 -0.00364400 -0.00064700
v -0.00142800 -0.00319000 -0.04124000
v -0.00266600 -0.00195200 -0.04124000
v -0.00266600 -0.00195200 -0.00064700
v -0.00142800 -0.00319000 -0.00064700
vn -0.82437381 0.13069356 0.55075131
vn -0.18577081 0.67827639 -0.71093624
vn -0.18577081 0.67827639 0.71093624
vn -0.09308812 0.48066532 -0.87194923
vn 0.19573592 -0.68600528 -0.70077400
vn -0.66072010 -0.51990892 -0.54142743
vn 0.19573592 -0.68600528 0.70077400
vn 0.01646285 -0.46129948 0.88709175
vn -0.66607140 -0.07693170 0.74190997
vn -0.77526267 0.09726171 -0.62410572
vn -0.63715250 -0.31691054 -0.70256985
vn -0.59840420 -0.49443382 0.63043445
vn -0.67964411 0.23887063 0.69355945
vn 0.67168357 0.04239411 -0.73962418
vn 0.54089162 0.52184623 -0.65963078
vn 0.64175842 0.33152155 -0.69154869
vn 0.80677455 -0.14052137 0.57390641
vn 0.78411560 0.11102331 0.61060344
vn 0.68537707 0.27979485 0.67228945
vn -0.71147257 0.36413277 -0.60101091
vn 0.38515938 0.72371725 -0.57261296
vn -0.42152240 -0.57157952 -0.70399980
vn -0.37495373 -0.69908472 0.60884338
vn 0.61019574 -0.32496573 -0.72253612
vn 0.69663059 -0.45174335 0.55734528
vn -0.38627237 0.60534327 0.69595487
vn -0.40545921 0.70123690 -0.58640398
vn -0.01341045 0.81200565 -0.58349549
vn 0.45367706 0.56735534 0.68722998
vn 0.35867735 -0.59678520 -0.71777293
vn -0.02088257 -0.71541861 -0.69838395
vn 0.01156843 -0.80841327 0.58850162
vn 0.04029591 0.69199134 0.72078029
vn 0.39960485 -0.69920987 0.59280817
vn 0.28938456 -0.78281946 0.55086321
vn -0.50059258 -0.49393930 -0.71093674
vn -0.50059258 -0.49393930 0.71093674
vn -0.37358998 -0.31645024 -0.87194597
vn 0.50244727 0.50643073 -0.70076719
vn 0.77676120 -0.32176699 -0.54139453
vn 0.50244727 0.50643073 0.70076719
vn 0.39431477 0.23998137 0.88708782
vn 0.39302812 -0.54320544 0.74192772
vn 0.29455646 -0.72369149 -0.62410505
vn 0.58817621 -0.40059693 -0.70254597
vn 0.72400179 -0.27988759 0.63046359
vn 0.12425818 -0.70961622 0.69354504
vn -0.36561382 0.56502554 -0.73964361
vn -0.71980796 0.21631623 -0.65960882
vn -0.60317297 0.39752061 -0.69149095
vn -0.27222131 0.77235520 0.57390156
vn -0.48048620 0.62948061 0.61064489
vn -0.57943323 0.46073415 0.67229545
vn 0.03060149 -0.79866441 -0.60099809
vn -0.81961677 -0.01840388 -0.57261649
vn 0.70472140 -0.08795555 -0.70401105
vn 0.79314525 0.01505336 0.60884646
vn -0.01512872 0.69119200 -0.72251280
vn 0.05314049 0.82857950 0.55734379
vn -0.33891317 -0.63306676 0.69596289
vn -0.41315305 -0.69672520 -0.58641160
vn -0.70151657 -0.40912968 -0.58351299
vn -0.71682498 0.11788275 0.68721584
vn 0.34496828 0.60478385 -0.71779759
vn 0.63415104 0.33185951 -0.69837077
vn 0.69936990 0.40565941 0.58849145
vn -0.62313646 -0.30354092 0.72080778
vn 0.41427204 0.69060538 0.59282618
vn 0.53315927 0.64182263 0.55118500
vn 0.67806161 -0.18658339 -0.71092833
vn 0.67806161 -0.18658339 0.71092833
vn 0.46086035 -0.16517486 -0.87196617
vn -0.68980774 0.18191273 -0.70076603
vn -0.10966660 0.83389961 -0.54091097
vn -0.68980774 0.18191273 0.70076603
vn -0.40502523 0.22132233 0.88711385
vn 0.27396423 0.61197237 0.74191200
vn 0.47949681 0.61688464 -0.62412832
vn 0.05288527 0.70969448 -0.70252181
vn -0.11954195 0.76696813 0.63045190
vn 0.55238252 0.46243592 0.69356079
vn -0.30658256 -0.59919031 -0.73957968
vn 0.17253356 -0.73156509 -0.65957918
vn -0.04264811 -0.72105098 -0.69156823
vn -0.53280056 -0.62187456 0.57392996
vn -0.30492349 -0.73088966 0.61059149
vn -0.10928517 -0.73215975 0.67230859
vn 0.67634201 0.42584854 -0.60101123
vn 0.42573554 -0.70060874 -0.57262261
vn -0.27623901 0.65428320 -0.70399255
vn -0.40965302 0.67933846 0.60883796
vn -0.59101476 -0.35866342 -0.72253865
vn -0.74415086 -0.36823027 0.55735623
vn 0.71771703 0.02307229 0.69595254
vn 0.80996641 -0.00938987 -0.58640109
vn 0.70506085 -0.40300237 -0.58350517
vn 0.25630462 -0.67971836 0.68723423
vn -0.69625183 -0.00366414 -0.71778824
vn -0.60448508 0.38321914 -0.69838448
vn -0.70101463 0.40279596 0.58850141
vn 0.57443564 -0.38791249 0.72079650
vn -0.80522368 0.01344276 0.59281879
vn -0.07552343 0.13083030 0.98852397
vn 0.00000000 0.00000000 1.00000000
vn -0.03476323 0.12968050 0.99094626
vn -0.13083011 0.07555552 0.98852155
vn -0.12969259 -0.03476648 0.99094456
vn -0.15108622 -0.00001065 0.98852059
vn -0.41258905 0.71462424 0.56487385
vn -0.71463217 0.41260704 0.56485068
vn -0.82519006 -0.00005870 0.56485516
vn -0.76852444 -0.20590777 0.60578229
vn -0.20591487 0.76855096 0.60574622
vn -0.86601815 0.50001257 0.00000000
vn -0.50000281 0.86602378 0.00000000
vn -1.00000000 -0.00007286 0.00000000
vn -0.96593212 -0.25879556 0.00000000
vn -0.25879556 0.96593212 0.00000000
vn -0.86601815 0.50001257 0.00000000
vn -0.50000281 0.86602378 0.00000000
vn -1.00000000 -0.00007286 0.00000000
vn -0.96593212 -0.25879556 0.00000000
vn -0.25879556 0.96593212 0.00000000
vn -0.68298258 -0.18303730 -0.70712950
vn -0.87713693 -0.00005836 0.48024036
vn -0.75717461 -0.00005220 -0.65321253
vn -0.83185518 -0.22293326 0.50824967
vn -0.77674460 0.44847587 -0.44219590
vn -0.44847124 0.77675188 -0.44218781
vn -0.89692628 -0.00006290 -0.44218009
vn -0.85526170 -0.22915203 -0.46477604
vn -0.22914351 0.85528098 -0.46474476
vn -0.83135511 0.00010612 0.55574155
vn -0.83185737 -0.22284503 0.50828478
vn -0.75960218 0.43860613 0.48023867
vn -0.65570771 0.37862052 -0.65321811
vn 0.00000000 0.00000000 -1.00000000
vn -0.37858592 0.65569625 -0.65324967
vn -0.18304906 0.68302648 -0.70708406
vn -0.43858537 0.75961104 0.48024362
vn -0.22293870 0.83187549 0.50821403
vn -0.28807548 0.16633633 -0.94305076
vn -0.16639307 0.28811051 -0.94303005
vn -0.33268852 -0.00001622 -0.94303677
vn -0.28732795 -0.07701340 -0.95473116
vn -0.07696878 0.28737277 -0.95472127
vn -0.68293521 -0.18295050 -0.70719771
vn -0.63783008 0.00008180 -0.77017711
vn -0.71996482 0.41557706 0.55582944
vn -0.41536439 0.72003967 0.55589145
vn -0.22286737 0.83193882 0.50814165
vn -0.31859709 0.55230814 -0.77035811
vn -0.18301515 0.68317499 -0.70694935
vn -0.55229380 0.31879185 -0.77028781
vn 0.13087583 0.07553333 0.98851719
vn 0.12966249 0.03470443 0.99095067
vn 0.07553114 0.13083822 0.98852233
vn -0.00000508 0.15108077 0.98852142
vn 0.71462575 0.41260626 0.56485938
vn 0.41257550 0.71464534 0.56485706
vn 0.00003390 0.82517813 0.56487259
vn 0.76851836 0.20596743 0.60576971
vn 0.49997614 0.86603918 0.00000000
vn 0.86601815 0.50001257 0.00000000
vn 0.00004207 1.00000000 0.00000000
vn 0.96591034 0.25887682 0.00000000
vn 0.49997614 0.86603918 0.00000000
vn 0.86601815 0.50001257 0.00000000
vn 0.00004207 1.00000000 0.00000000
vn 0.96591034 0.25887682 0.00000000
vn 0.00002709 0.87713903 0.48023653
vn 0.00002424 0.75715843 -0.65323129
vn 0.44844234 0.77677128 -0.44218305
vn 0.77675111 0.44847542 -0.44218493
vn 0.00003632 0.89692051 -0.44219180
vn 0.85525224 0.22922036 -0.46475977
vn -0.00033639 0.83127897 0.55585534
vn 0.43853392 0.75964497 0.48023694
vn 0.37854623 0.65573192 -0.65323686
vn 0.65574339 0.37858083 -0.65320530
vn 0.68303653 0.18292376 -0.70710678
vn 0.75963650 0.43855986 0.48022665
vn 0.83190402 0.22279085 0.50823217
vn 0.16632373 0.28813261 -0.94303553
vn 0.28810632 0.16634595 -0.94303965
vn 0.00003110 0.33266726 -0.94304427
vn 0.28732795 0.07701340 -0.95473116
vn -0.00027024 0.63766009 -0.77031781
vn 0.41556549 0.71997718 0.55582208
vn 0.72003809 0.41535520 0.55590035
vn 0.83195986 0.22274097 0.50816262
vn 0.55230814 0.31859709 -0.77035811
vn 0.68316991 0.18290536 -0.70698267
vn 0.31879185 0.55229380 -0.77028781
vn 0.07554357 -0.13083537 0.98852176
vn 0.03475761 -0.12970210 0.99094363
vn 0.13086240 -0.07552788 0.98851938
vn 0.15107620 0.00001509 0.98852212
vn 0.41257822 -0.71465385 0.56484430
vn 0.71462620 -0.41258940 0.56487112
vn 0.82519167 -0.00000000 0.56485282
vn 0.20588426 -0.76853465 0.60577732
vn 0.86602378 -0.50000281 0.00000000
vn 0.49997613 -0.86603918 0.00000000
vn 1.00000000 -0.00000000 0.00000000
vn 0.25876581 -0.96594009 0.00000000
vn 0.86602378 -0.50000281 0.00000000
vn 0.49997613 -0.86603918 0.00000000
vn 1.00000000 -0.00000000 0.00000000
vn 0.25876581 -0.96594009 0.00000000
vn 0.87713342 -0.00001563 0.48024677
vn 0.75714442 -0.00001398 -0.65324752
vn 0.77676162 -0.44846405 -0.44217800
vn 0.44843183 -0.77677478 -0.44218756
vn 0.89692994 -0.00000000 -0.44217267
vn 0.22912740 -0.85526659 -0.46477919
vn 0.83128385 0.00016425 0.55584812
vn 0.75964514 -0.43853517 0.48023553
vn 0.65574594 -0.37855432 -0.65321811
vn 0.37854369 -0.65575549 -0.65321468
vn 0.18300992 -0.68298131 -0.70713782
vn 0.43852177 -0.75965394 0.48023384
vn 0.22290926 -0.83186482 0.50824441
vn 0.28810944 -0.16636238 -0.94303579
vn 0.16629924 -0.28809213 -0.94305222
vn 0.33269985 -0.00000055 -0.94303277
vn 0.07701086 -0.28731846 -0.95473422
vn 0.63768299 0.00012871 -0.77029889
vn 0.71993992 -0.41563048 0.55582175
vn 0.41578692 -0.71988732 0.55577287
vn 0.22319054 -0.83180264 0.50822274
vn 0.31898655 -0.55227938 -0.77021754
vn 0.18324993 -0.68294909 -0.70710678
vn 0.55228995 -0.31884401 -0.77026898
vn -0.13083537 -0.07554357 0.98852176
vn -0.07554586 -0.13082719 0.98852267
vn -0.00000713 -0.15108355 0.98852100
vn -0.71466598 -0.41254718 0.56485163
vn -0.41258615 -0.71463781 0.56485881
vn 0.00002149 -0.82518847 0.56485750
vn -0.49998947 -0.86603148 0.00000000
vn -0.86606021 -0.49993970 0.00000000
vn 0.00002667 -1.00000000 0.00000000
vn -0.49998947 -0.86603148 0.00000000
vn -0.86606021 -0.49993970 0.00000000
vn 0.00002667 -1.00000000 0.00000000
vn 0.00004272 -0.87714669 0.48022254
vn 0.00003821 -0.75717757 -0.65320910
vn -0.44845238 -0.77676250 -0.44218828
vn -0.77679018 -0.44840539 -0.44218731
vn 0.00002302 -0.89692551 -0.44218166
vn -0.00004268 -0.83124438 0.55590716
vn -0.43858857 -0.75961250 0.48023839
vn -0.37859401 -0.65571026 -0.65323091
vn -0.65573638 -0.37856495 -0.65322154
vn -0.75963626 -0.43854767 0.48023816
vn -0.16635122 -0.28808286 -0.94304588
vn -0.28810165 -0.16634443 -0.94304134
vn 0.00000835 -0.33268727 -0.94303721
vn -0.00004719 -0.63759806 -0.77036921
vn -0.41585792 -0.71984496 0.55577462
vn -0.71988471 -0.41578847 0.55577510
vn -0.55227938 -0.31898655 -0.77021754
vn -0.31903882 -0.55227550 -0.77019868
f 1//1 2//2 3//3
f 2//2 1//1 4//4
f 5//5 4//4 6//6
f 4//4 5//5 2//2
f 1//1 7//7 8//8
f 7//7 1//1 3//3
f 9//9 1//1 8//8
f 4//4 9//9 10//10
f 9//9 4//4 1//1
f 11//11 4//4 10//10
f 4//4 11//11 6//6
f 7//7 6//6 8//8
f 6//6 7//7 5//5
f 12//12 9//9 8//8
f 12//12 13//13 9//9
f 14//14 15//15 16//16
f 17//17 18//18 19//19
f 10//10 13//13 20//20
f 13//13 10//10 9//9
f 14//14 21//21 15//15
f 18//18 15//15 19//19
f 15//15 18//18 16//16
f 22//22 10//10 20//20
f 22//22 11//11 10//10
f 11//11 8//8 6//6
f 8//8 11//11 12//12
f 23//23 13//13 12//12
f 14//14 24//24 21//21
f 17//17 19//19 25//25
f 17//17 16//16 18//18
f 16//16 17//17 14//14
f 23//23 26//26 13//13
f 20//20 26//26 27//27
f 26//26 20//20 13//13
f 24//24 28//28 21//21
f 19//19 21//21 29//29
f 21//21 19//19 15//15
f 25//25 19//19 29//29
f 30//30 27//27 28//28
f 31//31 20//20 27//27
f 31//31 22//22 20//20
f 22//22 12//12 11//11
f 12//12 22//22 23//23
f 24//24 30//30 28//28
f 25//25 14//14 17//17
f 14//14 25//25 24//24
f 32//32 26//26 23//23
f 28//28 26//26 33//33
f 26//26 28//28 27//27
f 29//29 28//28 33//33
f 28//28 29//29 21//21
f 25//25 29//29 34//34
f 30//30 31//31 27//27
f 22//22 32//32 23//23
f 32//32 22//22 31//31
f 34//34 24//24 25//25
f 24//24 34//34 30//30
f 33//33 26//26 32//32
f 34//34 29//29 33//33
f 32//32 30//30 34//34
f 30//30 32//32 31//31
f 34//34 33//33 32//32
f 35//35 36//36 37//37
f 36//36 35//35 38//38
f 39//39 38//38 40//40
f 38//38 39//39 36//36
f 35//35 41//41 42//42
f 41//41 35//35 37//37
f 43//43 35//35 42//42
f 38//38 43//43 44//44
f 43//43 38//38 35//35
f 45//45 38//38 44//44
f 38//38 45//45 40//40
f 41//41 40//40 42//42
f 40//40 41//41 39//39
f 46//46 43//43 42//42
f 46//46 47//47 43//43
f 48//48 49//49 50//50
f 51//51 52//52 53//53
f 44//44 47//47 54//54
f 47//47 44//44 43//43
f 48//48 55//55 49//49
f 52//52 49//49 53//53
f 49//49 52//52 50//50
f 56//56 44//44 54//54
f 56//56 45//45 44//44
f 45//45 42//42 40//40
f 42//42 45//45 46//46
f 57//57 47//47 46//46
f 48//48 58//58 55//55
f 51//51 53//53 59//59
f 51//51 50//50 52//52
f 50//50 51//51 48//48
f 57//57 60//60 47//47
f 54//54 60//60 61//61
f 60//60 54//54 47//47
f 58//58 62//62 55//55
f 53//53 55//55 63//63
f 55//55 53//53 49//49
f 59//59 53//53 63//63
f 64//64 61//61 62//62
f 65//65 54//54 61//61
f 65//65 56//56 54//54
f 56//56 46//46 45//45
f 46//46 56//56 57//57
f 58//58 64//64 62//62
f 59//59 48//48 51//51
f 48//48 59//59 58//58
f 66//66 60//60 57//57
f 62//62 60//60 67//67
f 60//60 62//62 61//61
f 63//63 62//62 67//67
f 62//62 63//63 55//55
f 59//59 63//63 68//68
f 64//64 65//65 61//61
f 56//56 66//66 57//57
f 66//66 56//56 65//65
f 68//68 58//58 59//59
f 58//58 68//68 64//64
f 67//67 60//60 66//66
f 68//68 63//63 67//67
f 66//66 64//64 68//68
f 64//64 66//66 65//65
f 68//68 67//67 66//66
f 69//69 70//70 71//71
f 70//70 69//69 72//72
f 73//73 72//72 74//74
f 72//72 73//73 70//70
f 69//69 75//75 76//76
f 75//75 69//69 71//71
f 77//77 69//69 76//76
f 72//72 77//77 78//78
f 77//77 72//72 69//69
f 79//79 72//72 78//78
f 72//72 79//79 74//74
f 75//75 74//74 76//76
f 74//74 75//75 73//73
f 80//80 77//77 76//76
f 80//80 81//81 77//77
f 82//82 83//83 84//84
f 85//85 86//86 87//87
f 78//78 81//81 88//88
f 81//81 78//78 77//77
f 82//82 89//89 83//83
f 86//86 83//83 87//87
f 83//83 86//86 84//84
f 90//90 78//78 88//88
f 90//90 79//79 78//78
f 79//79 76//76 74//74
f 76//76 79//79 80//80
f 91//91 81//81 80//80
f 82//82 92//92 89//89
f 85//85 87//87 93//93
f 85//85 84//84 86//86
f 84//84 85//85 82//82
f 91//91 94//94 81//81
f 88//88 94//94 95//95
f 94//94 88//88 81//81
f 92//92 96//96 89//89
f 87//87 89//89 97//97
f 89//89 87//87 83//83
f 93//93 87//87 97//97
f 98//98 95//95 96//96
f 99//99 88//88 95//95
f 99//99 90//90 88//88
f 90//90 80//80 79//79
f 80//80 90//90 91//91
f 92//92 98//98 96//96
f 93//93 82//82 85//85
f 82//82 93//93 92//92
f 100//100 94//94 91//91
f 96//96 94//94 101//101
f 94//94 96//96 95//95
f 97//97 96//96 101//101
f 96//96 97//97 89//89
f 93//93 97//97 102//102
f 98//98 99//99 95//95
f 90//90 100//100 91//91
f 100//100 90//90 99//99
f 102//102 92//92 93//93
f 92//92 102//102 98//98
f 101//101 94//94 100//100
f 102//102 97//97 101//101
f 100//100 98//98 102//102
f 98//98 100//100 99//99
f 102//102 101//101 100//100
f 103//103 104//104 105//105
f 106//106 104//104 103//103
f 106//106 107//107 104//104
f 107//107 106//106 108//108
f 109//109 106//106 103//103
f 106//106 109//109 110//110
f 110//110 108//108 106//106
f 108//108 110//110 111//111
f 108//108 112//112 107//107
f 112//112 108//108 111//111
f 113//113 103//103 105//105
f 103//103 113//113 109//109
f 114//114 109//109 115//115
f 109//109 114//114 110//110
f 114//114 111//111 110//110
f 111//111 114//114 116//116
f 116//116 112//112 111//111
f 112//112 116//116 117//117
f 118//118 109//109 113//113
f 109//109 118//118 115//115
f 119//119 115//115 120//120
f 115//115 119//119 114//114
f 121//121 114//114 119//119
f 114//114 121//121 116//116
f 122//122 116//116 121//121
f 116//116 122//122 117//117
f 123//123 115//115 118//118
f 115//115 123//123 120//120
f 124//124 125//125 126//126
f 125//125 124//124 127//127
f 128//128 120//120 129//129
f 120//120 128//128 119//119
f 130//130 119//119 128//128
f 119//119 130//130 121//121
f 130//130 122//122 121//121
f 122//122 130//130 131//131
f 132//132 120//120 123//123
f 120//120 132//132 129//129
f 133//133 127//127 134//134
f 127//127 133//133 125//125
f 126//126 135//135 136//136
f 135//135 126//126 125//125
f 137//137 138//138 139//139
f 137//137 136//136 138//138
f 124//124 136//136 137//137
f 136//136 124//124 126//126
f 139//139 140//140 141//141
f 140//140 139//139 138//138
f 142//142 129//129 143//143
f 129//129 142//142 128//128
f 144//144 128//128 142//142
f 128//128 144//144 130//130
f 131//131 144//144 145//145
f 144//144 131//131 130//130
f 143//143 132//132 146//146
f 132//132 143//143 129//129
f 133//133 147//147 148//148
f 147//147 133//133 134//134
f 135//135 133//133 149//149
f 133//133 135//135 125//125
f 136//136 140//140 138//138
f 140//140 136//136 135//135
f 141//141 150//150 151//151
f 150//150 141//141 140//140
f 148//148 142//142 143//143
f 147//147 142//142 148//148
f 145//145 142//142 147//147
f 142//142 145//145 144//144
f 152//152 146//146 153//153
f 154//154 146//146 152//152
f 148//148 146//146 154//154
f 146//146 148//148 143//143
f 133//133 154//154 149//149
f 154//154 133//133 148//148
f 140//140 149//149 150//150
f 149//149 140//140 135//135
f 153//153 150//150 152//152
f 150//150 153//153 151//151
f 150//150 154//154 152//152
f 154//154 150//150 149//149
f 155//155 104//104 156//156
f 157//157 104//104 155//155
f 157//157 105//105 104//104
f 105//105 157//157 158//158
f 159//159 157//157 155//155
f 157//157 159//159 160//160
f 160//160 158//158 157//157
f 158//158 160//160 161//161
f 158//158 113//113 105//105
f 113//113 158//158 161//161
f 162//162 155//155 156//156
f 155//155 162//162 159//159
f 163//163 159//159 164//164
f 159//159 163//163 160//160
f 163//163 161//161 160//160
f 161//161 163//163 165//165
f 165//165 113//113 161//161
f 113//113 165//165 118//118
f 166//166 159//159 162//162
f 159//159 166//166 164//164
f 167//167 164//164 168//168
f 164//164 167//167 163//163
f 169//169 163//163 167//167
f 163//163 169//169 165//165
f 123//123 165//165 169//169
f 165//165 123//123 118//118
f 170//170 164//164 166//166
f 164//164 170//170 168//168
f 139//139 171//171 172//172
f 171//171 139//139 141//141
f 173//173 168//168 174//174
f 168//168 173//173 167//167
f 175//175 167//167 173//173
f 167//167 175//175 169//169
f 175//175 123//123 169//169
f 123//123 175//175 132//132
f 176//176 168//168 170//170
f 168//168 176//176 174//174
f 177//177 141//141 151//151
f 141//141 177//177 171//171
f 172//172 178//178 179//179
f 178//178 172//172 171//171
f 137//137 180//180 181//181
f 137//137 179//179 180//180
f 139//139 179//179 137//137
f 179//179 139//139 172//172
f 181//181 182//182 183//183
f 182//182 181//181 180//180
f 184//184 174//174 185//185
f 174//174 184//184 173//173
f 186//186 173//173 184//184
f 173//173 186//186 175//175
f 132//132 186//186 146//146
f 186//186 132//132 175//175
f 185//185 176//176 187//187
f 176//176 185//185 174//174
f 177//177 153//153 188//188
f 153//153 177//177 151//151
f 178//178 177//177 189//189
f 177//177 178//178 171//171
f 179//179 182//182 180//180
f 182//182 179//179 178//178
f 183//183 190//190 191//191
f 190//190 183//183 182//182
f 188//188 184//184 185//185
f 153//153 184//184 188//188
f 146//146 184//184 153//153
f 184//184 146//146 186//186
f 192//192 187//187 193//193
f 194//194 187//187 192//192
f 188//188 187//187 194//194
f 187//187 188//188 185//185
f 177//177 194//194 189//189
f 194//194 177//177 188//188
f 182//182 189//189 190//190
f 189//189 182//182 178//178
f 193//193 190//190 192//192
f 190//190 193//193 191//191
f 190//190 194//194 192//192
f 194//194 190//190 189//189
f 195//195 104//104 196//196
f 197//197 104//104 195//195
f 197//197 156//156 104//104
f 156//156 197//197 198//198
f 199//199 197//197 195//195
f 197//197 199//199 200//200
f 200//200 198//198 197//197
f 198//198 200//200 201//201
f 198//198 162//162 156//156
f 162//162 198//198 201//201
f 202//202 195//195 196//196
f 195//195 202//202 199//199
f 203//203 199//199 204//204
f 199//199 203//203 200//200
f 203//203 201//201 200//200
f 201//201 203//203 205//205
f 205//205 162//162 201//201
f 162//162 205//205 166//166
f 206//206 199//199 202//202
f 199//199 206//206 204//204
f 207//207 204//204 208//208
f 204//204 207//207 203//203
f 209//209 203//203 207//207
f 203//203 209//209 205//205
f 170//170 205//205 209//209
f 205//205 170//170 166//166
f 210//210 204//204 206//206
f 204//204 210//210 208//208
f 181//181 211//211 212//212
f 211//211 181//181 183//183
f 213//213 208//208 214//214
f 208//208 213//213 207//207
f 215//215 207//207 213//213
f 207//207 215//215 209//209
f 215//215 170//170 209//209
f 170//170 215//215 176//176
f 216//216 208//208 210//210
f 208//208 216//216 214//214
f 217//217 183//183 191//191
f 183//183 217//217 211//211
f 212//212 218//218 219//219
f 218//218 212//212 211//211
f 137//137 220//220 221//221
f 137//137 219//219 220//220
f 181//181 219//219 137//137
f 219//219 181//181 212//212
f 221//221 222//222 223//223
f 222//222 221//221 220//220
f 224//224 214//214 225//225
f 214//214 224//224 213//213
f 226//226 213//213 224//224
f 213//213 226//226 215//215
f 176//176 226//226 187//187
f 226//226 176//176 215//215
f 225//225 216//216 227//227
f 216//216 225//225 214//214
f 217//217 193//193 228//228
f 193//193 217//217 191//191
f 218//218 217//217 229//229
f 217//217 218//218 211//211
f 219//219 222//222 220//220
f 222//222 219//219 218//218
f 223//223 230//230 231//231
f 230//230 223//223 222//222
f 228//228 224//224 225//225
f 193//193 224//224 228//228
f 187//187 224//224 193//193
f 224//224 187//187 226//226
f 232//232 227//227 233//233
f 234//234 227//227 232//232
f 228//228 227//227 234//234
f 227//227 228//228 225//225
f 217//217 234//234 229//229
f 234//234 217//217 228//228
f 222//222 229//229 230//230
f 229//229 222//222 218//218
f 233//233 230//230 232//232
f 230//230 233//233 231//231
f 230//230 234//234 232//232
f 234//234 230//230 229//229
f 235//235 104//104 107//107
f 236//236 104//104 235//235
f 236//236 196//196 104//104
f 196//196 236//236 237//237
f 238//238 236//236 235//235
f 236//236 238//238 239//239
f 239//239 237//237 236//236
f 237//237 239//239 240//240
f 237//237 202//202 196//196
f 202//202 237//237 240//240
f 112//112 235//235 107//107
f 235//235 112//112 238//238
f 241//241 238//238 242//242
f 238//238 241//241 239//239
f 241//241 240//240 239//239
f 240//240 241//241 243//243
f 243//243 202//202 240//240
f 202//202 243//243 206//206
f 117//117 238//238 112//112
f 238//238 117//117 242//242
f 244//244 242//242 245//245
f 242//242 244//244 241//241
f 246//246 241//241 244//244
f 241//241 246//246 243//243
f 210//210 243//243 246//246
f 243//243 210//210 206//206
f 122//122 242//242 117//117
f 242//242 122//122 245//245
f 221//221 247//247 248//248
f 247//247 221//221 223//223
f 249//249 245//245 250//250
f 245//245 249//249 244//244
f 251//251 244//244 249//249
f 244//244 251//251 246//246
f 251//251 210//210 246//246
f 210//210 251//251 216//216
f 131//131 245//245 122//122
f 245//245 131//131 250//250
f 252//252 223//223 231//231
f 223//223 252//252 247//247
f 248//248 253//253 254//254
f 253//253 248//248 247//247
f 137//137 255//255 124//124
f 137//137 254//254 255//255
f 221//221 254//254 137//137
f 254//254 221//221 248//248
f 124//124 256//256 127//127
f 256//256 124//124 255//255
f 257//257 250//250 258//258
f 250//250 257//257 249//249
f 259//259 249//249 257//257
f 249//249 259//259 251//251
f 216//216 259//259 227//227
f 259//259 216//216 251//251
f 258//258 131//131 145//145
f 131//131 258//258 250//250
f 252//252 233//233 260//260
f 233//233 252//252 231//231
f 253//253 252//252 261//261
f 252//252 253//253 247//247
f 254//254 256//256 255//255
f 256//256 254//254 253//253
f 127//127 262//262 134//134
f 262//262 127//127 256//256
f 260//260 257//257 258//258
f 233//233 257//257 260//260
f 227//227 257//257 233//233
f 257//257 227//227 259//259
f 263//263 145//145 147//147
f 264//264 145//145 263//263
f 260//260 145//145 264//264
f 145//145 260//260 258//258
f 252//252 264//264 261//261
f 264//264 252//252 260//260
f 256//256 261//261 262//262
f 261//261 256//256 253//253
f 147//147 262//262 263//263
f 262//262 147//147 134//134
f 262//262 264//264 263//263
f 264//264 262//262 261//261