# https://github.com/mikedh/trimesh
v 0.00001500 -0.00005800 -0.13148700
v 0.01435100 -0.00005800 -0.10110600
v 0.01386300 -0.00376900 -0.10110600
v 0.01243100 -0.00722600 -0.10110600
v 0.01015200 -0.01019500 -0.10110600
v 0.00718300 -0.01247400 -0.10110600
v 0.00372600 -0.01390600 -0.10110600
v 0.00001500 -0.01439400 -0.10110600
v -0.00369500 -0.01390600 -0.10110600
v -0.00715300 -0.01247400 -0.10110600
v -0.01012100 -0.01019500 -0.10110600
v -0.01240000 -0.00722600 -0.10110600
v -0.01383200 -0.00376900 -0.10110600
v -0.01432100 -0.00005800 -0.10110600
v -0.01383200 0.00365200 -0.10110600
v -0.01240000 0.00711000 -0.10110600
v -0.01012100 0.01007900 -0.10110600
v -0.00715300 0.01235700 -0.10110600
v -0.00369500 0.01378900 -0.10110600
v 0.00001500 0.01427800 -0.10110600
v 0.00372600 0.01378900 -0.10110600
v 0.00718300 0.01235700 -0.10110600
v 0.01015200 0.01007900 -0.10110600
v 0.01243100 0.00711000 -0.10110600
v 0.01386300 0.00365200 -0.10110600
v 0.01386300 -0.00376900 0.11196600
v 0.01435100 -0.00005800 0.11196600
v 0.01243100 -0.00722600 0.11196600
v 0.01015200 -0.01019500 0.11196600
v 0.00718300 -0.01247400 0.11196600
v 0.00372600 -0.01390600 0.11196600
v 0.00001500 -0.01439400 0.11196600
v -0.00369500 -0.01390600 0.11196600
v -0.00715300 -0.01247400 0.11196600
v -0.01012100 -0.01019500 0.11196600
v -0.01240000 -0.00722600 0.11196600
v -0.01383200 -0.00376900 0.11196600
v -0.01432100 -0.00005800 0.11196600
v -0.01383200 0.00365200 0.11196600
v -0.01240000 0.00711000 0.11196600
v -0.01012100 0.01007900 0.11196600
v -0.00715300 0.01235700 0.11196600
v -0.00369500 0.01378900 0.11196600
v 0.00001500 0.01427800 0.11196600
v 0.00372600 0.01378900 0.11196600
v 0.00718300 0.01235700 0.11196600
v 0.01015200 0.01007900 0.11196600
v 0.01243100 0.00711000 0.11196600
v 0.01386300 0.00365200 0.11196600
v 0.00447900 -0.00005800 0.11196600
v 0.00432700 0.00109700 0.11196600
v 0.00388200 0.00217400 0.11196600
v 0.00317300 0.00309800 0.11196600
v 0.00224700 0.00380800 0.11196600
v 0.00117100 0.00425400 0.11196600
v 0.00001500 0.00440600 0.11196600
v -0.00114000 0.00425400 0.11196600
v -0.00221700 0.00380800 0.11196600
v -0.00314100 0.00309800 0.11196600
v -0.00385000 0.00217400 0.11196600
v -0.00429600 0.00109700 0.11196600
v -0.00444900 -0.00005800 0.11196600
v 0.00432700 -0.00121400 0.11196600
v 0.00388200 -0.00229100 0.11196600
v 0.00317300 -0.00321500 0.11196600
v 0.00224700 -0.00392500 0.11196600
v 0.00117100 -0.00437000 0.11196600
v 0.00001500 -0.00452300 0.11196600
v -0.00114000 -0.00437000 0.11196600
v -0.00221700 -0.00392500 0.11196600
v -0.00314100 -0.00321500 0.11196600
v -0.00385000 -0.00229100 0.11196600
v -0.00429600 -0.00121400 0.11196600
v -0.00385000 0.00217400 0.12532300
v -0.00429600 0.00109700 0.12532300
v -0.00314100 0.00309800 0.12532300
v -0.00221700 0.00380800 0.12532300
v -0.00114000 0.00425400 0.12532300
v 0.00001500 0.00440600 0.12532300
v 0.00117100 0.00425400 0.12532300
v 0.00224700 0.00380800 0.12532300
v 0.00317300 0.00309800 0.12532300
v 0.00388200 0.00217400 0.12532300
v 0.00432700 0.00109700 0.12532300
v 0.00447900 -0.00005800 0.12532300
v 0.00432700 -0.00121400 0.12532300
v 0.00388200 -0.00229100 0.12532300
v 0.00317300 -0.00321500 0.12532300
v 0.00224700 -0.00392500 0.12532300
v 0.00117100 -0.00437000 0.12532300
v 0.00001500 -0.00452300 0.12532300
v -0.00114000 -0.00437000 0.12532300
v -0.00221700 -0.00392500 0.12532300
v -0.00314100 -0.00321500 0.12532300
v -0.00385000 -0.00229100 0.12532300
v -0.00429600 -0.00121400 0.12532300
v -0.00444900 -0.00005800 0.12532300
v 0.01386300 0.00365200 0.13375200
v 0.01386300 -0.00376900 0.13375200
v 0.01435100 -0.00005800 0.13375200
v 0.01243100 0.00711000 0.13375200
v 0.01243100 -0.00722600 0.13375200
v 0.01015200 0.01007900 0.13375200
v 0.01015200 -0.01019500 0.13375200
v 0.00718300 -0.01247400 0.13375200
v 0.00718300 0.01235700 0.13375200
v 0.00372600 0.01378900 0.13375200
v 0.00372600 -0.01390600 0.13375200
v 0.00001500 0.01427800 0.13375200
v 0.00001500 -0.01439400 0.13375200
v -0.00369500 -0.01390600 0.13375200
v -0.00369500 0.01378900 0.13375200
v -0.00715300 -0.01247400 0.13375200
v -0.00715300 0.01235700 0.13375200
v -0.01012100 0.01007900 0.13375200
v -0.01012100 -0.01019500 0.13375200
v -0.01240000 -0.00722600 0.13375200
v -0.01240000 0.00711000 0.13375200
v -0.01383200 -0.00376900 0.13375200
v -0.01383200 0.00365200 0.13375200
v -0.01432100 -0.00005800 0.13375200
v 0.01243100 -0.00722600 0.12532300
v 0.01015200 -0.01019500 0.12532300
v 0.01386300 -0.00376900 0.12532300
v 0.01435100 -0.00005800 0.12532300
v 0.01386300 0.00365200 0.12532300
v 0.01243100 0.00711000 0.12532300
v 0.01015200 0.01007900 0.12532300
v 0.00718300 0.01235700 0.12532300
v 0.00372600 0.01378900 0.12532300
v 0.00001500 0.01427800 0.12532300
v -0.00369500 0.01378900 0.12532300
v -0.00715300 0.01235700 0.12532300
v -0.01012100 0.01007900 0.12532300
v -0.01240000 0.00711000 0.12532300
v -0.01383200 0.00365200 0.12532300
v -0.01432100 -0.00005800 0.12532300
v -0.01383200 -0.00376900 0.12532300
v -0.01240000 -0.00722600 0.12532300
v -0.01012100 -0.01019500 0.12532300
v -0.00715300 -0.01247400 0.12532300
v -0.00369500 -0.01390600 0.12532300
v 0.00001500 -0.01439400 0.12532300
v 0.00372600 -0.01390600 0.12532300
v 0.00718300 -0.01247400 0.12532300
vn -0.00001009 0.00000784 -1.00000000
vn 0.97663850 0.00001675 -0.21488891
vn 0.94337641 -0.25271112 -0.21489076
vn 0.84574881 -0.48839646 -0.21489030
vn 0.69058777 -0.69058777 -0.21488852
vn 0.48839646 -0.84574881 -0.21489030
vn 0.25271112 -0.94337641 -0.21489076
vn -0.00001675 -0.97663850 -0.21488891
vn -0.25267890 -0.94338535 -0.21488940
vn -0.48842204 -0.84573498 -0.21488659
vn -0.69064358 -0.69053404 -0.21488182
vn -0.84575064 -0.48839814 -0.21487931
vn -0.94334521 -0.25283485 -0.21488221
vn -0.97664013 0.00001678 -0.21488149
vn -0.94335414 0.25280266 -0.21488084
vn -0.84577549 0.48835574 -0.21487788
vn -0.69057199 0.69060655 -0.21487885
vn -0.48833515 0.84578720 -0.21487857
vn -0.25280266 0.94335414 -0.21488084
vn -0.00001678 0.97664013 -0.21488149
vn 0.25283485 0.94334521 -0.21488221
vn 0.48830958 0.84580102 -0.21488228
vn 0.69051618 0.69066027 -0.21488555
vn 0.84577366 0.48835406 -0.21488887
vn 0.94338535 0.25267890 -0.21488940
vn 0.70926311 -0.18999583 0.67885744
vn 0.73422935 0.00001279 0.67890151
vn 0.63586151 -0.36719392 0.67885843
vn 0.51917326 -0.51917326 0.67890961
vn 0.36719392 -0.63586151 0.67885843
vn 0.18999583 -0.70926311 0.67885744
vn -0.00001279 -0.73422935 0.67890151
vn -0.18996855 -0.70925690 0.67887156
vn -0.36722577 -0.63587225 0.67883114
vn -0.51920453 -0.51912006 0.67892637
vn -0.63586151 -0.36719392 0.67885843
vn -0.70921357 -0.19008324 0.67888473
vn -0.73427981 0.00001282 0.67884694
vn -0.70920736 0.19005598 0.67889885
vn -0.63588871 0.36716628 0.67884790
vn -0.51916378 0.51918937 0.67890454
vn -0.36714827 0.63589369 0.67885297
vn -0.19005598 0.70920736 0.67889885
vn -0.00001282 0.73427981 0.67884694
vn 0.19008324 0.70921357 0.67888473
vn 0.36711644 0.63588294 0.67888026
vn 0.51913250 0.51924256 0.67888778
vn 0.63588871 0.36716628 0.67884790
vn 0.70925690 0.18996855 0.67887156
vn 0.67515638 0.00003778 0.73767463
vn 0.65231074 0.17446165 0.73760005
vn 0.58472794 0.33724779 0.73780564
vn 0.47726585 0.47743937 0.73774586
vn 0.33756743 0.58477004 0.73762608
vn 0.17474868 0.65206522 0.73774918
vn -0.00003778 0.67515638 0.73767463
vn -0.17469313 0.65214036 0.73769592
vn -0.33768596 0.58449211 0.73779209
vn -0.47761269 0.47728763 0.73761958
vn -0.58468496 0.33753196 0.73770975
vn -0.65217454 0.17499972 0.73759302
vn -0.67493150 0.00003800 0.73788039
vn 0.65230622 -0.17442133 0.73761358
vn 0.58472794 -0.33724779 0.73780564
vn 0.47726585 -0.47743937 0.73774586
vn 0.33728307 -0.58481310 0.73772201
vn 0.17482344 -0.65226998 0.73755043
vn -0.00003800 -0.67493150 0.73788039
vn -0.17476826 -0.65234498 0.73749717
vn -0.33740182 -0.58453513 0.73788800
vn -0.47761269 -0.47728763 0.73761958
vn -0.58468496 -0.33753196 0.73770975
vn -0.65217003 -0.17495914 0.73760664
vn -0.85405781 0.49303784 -0.16582805
vn -0.95255895 0.25560266 -0.16522328
vn -0.69760949 0.69713469 -0.16536089
vn -0.49329262 0.85382775 -0.16625453
vn -0.25517419 0.95258120 -0.16575639
vn -0.00005518 0.98618525 -0.16564613
vn 0.25526533 0.95250874 -0.16603226
vn 0.49305928 0.85412949 -0.16539456
vn 0.69716766 0.69742113 -0.16601511
vn 0.85418074 0.49265744 -0.16632469
vn 0.95276281 0.25481809 -0.16525970
vn 0.98618525 0.00005518 -0.16564613
vn 0.95276572 -0.25476174 -0.16532981
vn 0.85418074 -0.49265744 -0.16632469
vn 0.69716766 -0.69742113 -0.16601511
vn 0.49267872 -0.85425270 -0.16589157
vn 0.25533716 -0.95266840 -0.16500258
vn -0.00005552 -0.98600567 -0.16671176
vn -0.25524653 -0.95274046 -0.16472654
vn -0.49291219 -0.85395061 -0.16675113
vn -0.69760949 -0.69713469 -0.16536089
vn -0.85405781 -0.49303784 -0.16582805
vn -0.95256192 -0.25554596 -0.16529384
vn -0.98600567 0.00005552 -0.16671176
vn 0.70925690 0.18996855 0.67887156
vn 0.70926311 -0.18999583 0.67885744
vn 0.73422935 0.00001279 0.67890151
vn 0.63588871 0.36716628 0.67884790
vn 0.63586151 -0.36719392 0.67885843
vn 0.51913250 0.51924256 0.67888778
vn 0.51917326 -0.51917326 0.67890961
vn 0.36719392 -0.63586151 0.67885843
vn 0.36711644 0.63588294 0.67888026
vn 0.19008324 0.70921357 0.67888473
vn 0.18999583 -0.70926311 0.67885744
vn -0.00001282 0.73427981 0.67884694
vn -0.00001279 -0.73422935 0.67890151
vn -0.18996855 -0.70925690 0.67887156
vn -0.19005598 0.70920736 0.67889885
vn -0.36722577 -0.63587225 0.67883114
vn -0.36714827 0.63589369 0.67885297
vn -0.51916378 0.51918937 0.67890454
vn -0.51920453 -0.51912006 0.67892637
vn -0.63586151 -0.36719392 0.67885843
vn -0.63588871 0.36716628 0.67884790
vn -0.70921357 -0.19008324 0.67888473
vn -0.70920736 0.19005598 0.67889885
vn -0.73427981 0.00001282 0.67884694
vn 0.63586151 -0.36719392 -0.67885843
vn 0.51917326 -0.51917326 -0.67890961
vn 0.70926311 -0.18999583 -0.67885744
vn 0.73422935 0.00001279 -0.67890151
vn 0.70925690 0.18996855 -0.67887156
vn 0.63588871 0.36716628 -0.67884790
vn 0.51913250 0.51924256 -0.67888778
vn 0.36711644 0.63588294 -0.67888026
vn 0.19008324 0.70921357 -0.67888473
vn -0.00001282 0.73427981 -0.67884694
vn -0.19005598 0.70920736 -0.67889885
vn -0.36714827 0.63589369 -0.67885297
vn -0.51916378 0.51918937 -0.67890454
vn -0.63588871 0.36716628 -0.67884790
vn -0.70920736 0.19005598 -0.67889885
vn -0.73427981 0.00001282 -0.67884694
vn -0.70921357 -0.19008324 -0.67888473
vn -0.63586151 -0.36719392 -0.67885843
vn -0.51920453 -0.51912006 -0.67892637
vn -0.36722577 -0.63587225 -0.67883114
vn -0.18996855 -0.70925690 -0.67887156
vn -0.00001279 -0.73422935 -0.67890151
vn 0.18999583 -0.70926311 -0.67885744
vn 0.36719392 -0.63586151 -0.67885843
f 1//1 2//2 3//3
f 1//1 3//3 4//4
f 1//1 4//4 5//5
f 6//6 1//1 5//5
f 7//7 1//1 6//6
f 8//8 1//1 7//7
f 9//9 1//1 8//8
f 10//10 1//1 9//9
f 11//11 1//1 10//10
f 1//1 11//11 12//12
f 1//1 12//12 13//13
f 1//1 13//13 14//14
f 15//15 1//1 14//14
f 16//16 1//1 15//15
f 17//17 1//1 16//16
f 18//18 1//1 17//17
f 19//19 1//1 18//18
f 20//20 1//1 19//19
f 21//21 1//1 20//20
f 22//22 1//1 21//21
f 23//23 1//1 22//22
f 23//23 24//24 1//1
f 24//24 25//25 1//1
f 25//25 2//2 1//1
f 26//26 2//2 27//27
f 2//2 26//26 3//3
f 28//28 3//3 26//26
f 3//3 28//28 4//4
f 29//29 4//4 28//28
f 4//4 29//29 5//5
f 6//6 29//29 30//30
f 29//29 6//6 5//5
f 7//7 30//30 31//31
f 30//30 7//7 6//6
f 8//8 31//31 32//32
f 31//31 8//8 7//7
f 9//9 32//32 33//33
f 32//32 9//9 8//8
f 10//10 33//33 34//34
f 33//33 10//10 9//9
f 11//11 34//34 35//35
f 34//34 11//11 10//10
f 11//11 36//36 12//12
f 36//36 11//11 35//35
f 12//12 37//37 13//13
f 37//37 12//12 36//36
f 13//13 38//38 14//14
f 38//38 13//13 37//37
f 14//14 39//39 15//15
f 39//39 14//14 38//38
f 15//15 40//40 16//16
f 40//40 15//15 39//39
f 16//16 41//41 17//17
f 41//41 16//16 40//40
f 18//18 41//41 42//42
f 41//41 18//18 17//17
f 19//19 42//42 43//43
f 42//42 19//19 18//18
f 20//20 43//43 44//44
f 43//43 20//20 19//19
f 21//21 44//44 45//45
f 44//44 21//21 20//20
f 22//22 45//45 46//46
f 45//45 22//22 21//21
f 23//23 46//46 47//47
f 46//46 23//23 22//22
f 48//48 23//23 47//47
f 23//23 48//48 24//24
f 49//49 24//24 48//48
f 24//24 49//49 25//25
f 27//27 25//25 49//49
f 25//25 27//27 2//2
f 49//49 26//26 27//27
f 48//48 26//26 49//49
f 48//48 28//28 26//26
f 47//47 28//28 48//48
f 47//47 29//29 28//28
f 46//46 29//29 47//47
f 46//46 30//30 29//29
f 46//46 50//50 30//30
f 46//46 51//51 50//50
f 46//46 52//52 51//51
f 45//45 52//52 46//46
f 45//45 53//53 52//52
f 45//45 54//54 53//53
f 45//45 55//55 54//54
f 44//44 55//55 45//45
f 44//44 56//56 55//55
f 44//44 57//57 56//56
f 44//44 58//58 57//57
f 44//44 59//59 58//58
f 43//43 59//59 44//44
f 43//43 60//60 59//59
f 43//43 61//61 60//60
f 43//43 62//62 61//61
f 62//62 43//43 42//42
f 63//63 30//30 50//50
f 64//64 30//30 63//63
f 64//64 31//31 30//30
f 65//65 31//31 64//64
f 66//66 31//31 65//65
f 67//67 31//31 66//66
f 67//67 32//32 31//31
f 68//68 32//32 67//67
f 69//69 32//32 68//68
f 70//70 32//32 69//69
f 71//71 32//32 70//70
f 71//71 33//33 32//32
f 72//72 33//33 71//71
f 73//73 33//33 72//72
f 62//62 33//33 73//73
f 42//42 33//33 62//62
f 42//42 34//34 33//33
f 41//41 34//34 42//42
f 41//41 35//35 34//34
f 40//40 35//35 41//41
f 40//40 36//36 35//35
f 39//39 36//36 40//40
f 39//39 37//37 36//36
f 37//37 39//39 38//38
f 61//61 74//74 60//60
f 74//74 61//61 75//75
f 60//60 76//76 59//59
f 76//76 60//60 74//74
f 58//58 76//76 77//77
f 76//76 58//58 59//59
f 57//57 77//77 78//78
f 77//77 57//57 58//58
f 56//56 78//78 79//79
f 78//78 56//56 57//57
f 55//55 79//79 80//80
f 79//79 55//55 56//56
f 54//54 80//80 81//81
f 80//80 54//54 55//55
f 53//53 81//81 82//82
f 81//81 53//53 54//54
f 83//83 53//53 82//82
f 53//53 83//83 52//52
f 84//84 52//52 83//83
f 52//52 84//84 51//51
f 85//85 51//51 84//84
f 51//51 85//85 50//50
f 86//86 50//50 85//85
f 50//50 86//86 63//63
f 87//87 63//63 86//86
f 63//63 87//87 64//64
f 88//88 64//64 87//87
f 64//64 88//88 65//65
f 66//66 88//88 89//89
f 88//88 66//66 65//65
f 67//67 89//89 90//90
f 89//89 67//67 66//66
f 68//68 90//90 91//91
f 90//90 68//68 67//67
f 69//69 91//91 92//92
f 91//91 69//69 68//68
f 70//70 92//92 93//93
f 92//92 70//70 69//69
f 71//71 93//93 94//94
f 93//93 71//71 70//70
f 71//71 95//95 72//72
f 95//95 71//71 94//94
f 72//72 96//96 73//73
f 96//96 72//72 95//95
f 73//73 97//97 62//62
f 97//97 73//73 96//96
f 62//62 75//75 61//61
f 75//75 62//62 97//97
f 84//84 86//86 85//85
f 84//84 87//87 86//86
f 83//83 87//87 84//84
f 82//82 87//87 83//83
f 82//82 88//88 87//87
f 82//82 89//89 88//88
f 81//81 89//89 82//82
f 80//80 89//89 81//81
f 80//80 90//90 89//89
f 79//79 90//90 80//80
f 79//79 91//91 90//90
f 79//79 92//92 91//91
f 78//78 92//92 79//79
f 77//77 92//92 78//78
f 77//77 93//93 92//92
f 76//76 93//93 77//77
f 76//76 94//94 93//93
f 76//76 95//95 94//94
f 74//74 95//95 76//76
f 75//75 95//95 74//74
f 75//75 96//96 95//95
f 96//96 75//75 97//97
f 98//98 99//99 100//100
f 101//101 99//99 98//98
f 101//101 102//102 99//99
f 103//103 102//102 101//101
f 103//103 104//104 102//102
f 103//103 105//105 104//104
f 106//106 105//105 103//103
f 107//107 105//105 106//106
f 107//107 108//108 105//105
f 109//109 108//108 107//107
f 109//109 110//110 108//108
f 109//109 111//111 110//110
f 112//112 111//111 109//109
f 112//112 113//113 111//111
f 114//114 113//113 112//112
f 115//115 113//113 114//114
f 115//115 116//116 113//113
f 115//115 117//117 116//116
f 118//118 117//117 115//115
f 118//118 119//119 117//117
f 120//120 119//119 118//118
f 119//119 120//120 121//121
f 104//104 122//122 102//102
f 122//122 104//104 123//123
f 102//102 124//124 99//99
f 124//124 102//102 122//122
f 99//99 125//125 100//100
f 125//125 99//99 124//124
f 100//100 126//126 98//98
f 126//126 100//100 125//125
f 98//98 127//127 101//101
f 127//127 98//98 126//126
f 101//101 128//128 103//103
f 128//128 101//101 127//127
f 128//128 106//106 103//103
f 106//106 128//128 129//129
f 129//129 107//107 106//106
f 107//107 129//129 130//130
f 130//130 109//109 107//107
f 109//109 130//130 131//131
f 131//131 112//112 109//109
f 112//112 131//131 132//132
f 132//132 114//114 112//112
f 114//114 132//132 133//133
f 133//133 115//115 114//114
f 115//115 133//133 134//134
f 135//135 115//115 134//134
f 115//115 135//135 118//118
f 136//136 118//118 135//135
f 118//118 136//136 120//120
f 137//137 120//120 136//136
f 120//120 137//137 121//121
f 138//138 121//121 137//137
f 121//121 138//138 119//119
f 139//139 119//119 138//138
f 119//119 139//139 117//117
f 140//140 117//117 139//139
f 117//117 140//140 116//116
f 140//140 113//113 116//116
f 113//113 140//140 141//141
f 141//141 111//111 113//113
f 111//111 141//141 142//142
f 142//142 110//110 111//111
f 110//110 142//142 143//143
f 143//143 108//108 110//110
f 108//108 143//143 144//144
f 144//144 105//105 108//108
f 105//105 144//144 145//145
f 145//145 104//104 105//105
f 104//104 145//145 123//123
f 124//124 126//126 125//125
f 124//124 127//127 126//126
f 122//122 127//127 124//124
f 122//122 128//128 127//127
f 123//123 128//128 122//122
f 145//145 128//128 123//123
f 145//145 129//129 128//128
f 145//145 85//85 129//129
f 145//145 86//86 85//85
f 145//145 87//87 86//86
f 144//144 87//87 145//145
f 144//144 88//88 87//87
f 144//144 89//89 88//88
f 144//144 90//90 89//89
f 143//143 90//90 144//144
f 143//143 91//91 90//90
f 143//143 92//92 91//91
f 143//143 93//93 92//92
f 143//143 94//94 93//93
f 142//142 94//94 143//143
f 142//142 95//95 94//94
f 142//142 96//96 95//95
f 142//142 97//97 96//96
f 97//97 142//142 141//141
f 84//84 129//129 85//85
f 83//83 129//129 84//84
f 83//83 130//130 129//129
f 82//82 130//130 83//83
f 81//81 130//130 82//82
f 80//80 130//130 81//81
f 80//80 131//131 130//130
f 79//79 131//131 80//80
f 78//78 131//131 79//79
f 77//77 131//131 78//78
f 76//76 131//131 77//77
f 76//76 132//132 131//131
f 74//74 132//132 76//76
f 75//75 132//132 74//74
f 97//97 132//132 75//75
f 141//141 132//132 97//97
f 141//141 133//133 132//132
f 140//140 133//133 141//141
f 140//140 134//134 133//133
f 139//139 134//134 140//140
f 139//139 135//135 134//134
f 138//138 135//135 139//139
f 138//138 136//136 135//135
f 136//136 138//138 137//137