# https://github.com/mikedh/trimesh
v 0.07942800 -0.00389700 0.09113300
v 0.07910300 -0.00385500 0.09239000
v 0.07942800 -0.00389700 0.09239000
v 0.07910300 -0.00385500 0.09113300
v 0.07973100 -0.00402300 0.09113300
v 0.07973100 -0.00402300 0.09239000
v 0.07999100 -0.00422300 0.09113300
v 0.07999100 -0.00422300 0.09239000
v 0.08019100 -0.00448300 0.09239000
v 0.08019100 -0.00448300 0.09113300
v 0.08031600 -0.00478600 0.09239000
v 0.08031600 -0.00478600 0.09113300
v 0.08035900 -0.00511100 0.09239000
v 0.08035900 -0.00511100 0.09113300
v 0.08031600 -0.00543600 0.09239000
v 0.08031600 -0.00543600 0.09113300
v 0.08019100 -0.00573900 0.09239000
v 0.08019100 -0.00573900 0.09113300
v 0.07999100 -0.00599900 0.09239000
v 0.07999100 -0.00599900 0.09113300
v 0.07973100 -0.00619900 0.09113300
v 0.07973100 -0.00619900 0.09239000
v 0.07942800 -0.00632400 0.09113300
v 0.07942800 -0.00632400 0.09239000
v 0.07910300 -0.00636700 0.09113300
v 0.07910300 -0.00636700 0.09239000
v 0.07064200 -0.00636700 0.09113300
v 0.07064200 -0.00636700 0.09239000
v 0.07031700 -0.00632400 0.09113300
v 0.07031700 -0.00632400 0.09239000
v 0.07001400 -0.00619900 0.09113300
v 0.07001400 -0.00619900 0.09239000
v 0.06975400 -0.00599900 0.09113300
v 0.06975400 -0.00599900 0.09239000
v 0.06955400 -0.00573900 0.09239000
v 0.06955400 -0.00573900 0.09113300
v 0.06942900 -0.00543600 0.09239000
v 0.06942900 -0.00543600 0.09113300
v 0.06938600 -0.00511100 0.09239000
v 0.06938600 -0.00511100 0.09113300
v 0.06942900 -0.00478600 0.09239000
v 0.06942900 -0.00478600 0.09113300
v 0.06955400 -0.00448300 0.09239000
v 0.06955400 -0.00448300 0.09113300
v 0.06975400 -0.00422300 0.09239000
v 0.06975400 -0.00422300 0.09113300
v 0.07001400 -0.00402300 0.09113300
v 0.07001400 -0.00402300 0.09239000
v 0.07031700 -0.00389700 0.09113300
v 0.07031700 -0.00389700 0.09239000
v 0.07064200 -0.00385500 0.09113300
v 0.07064200 -0.00385500 0.09239000
v 0.11369000 -0.00237200 -0.06261700
v 0.08987700 -0.00764000 -0.06229800
v 0.11369000 -0.00764000 -0.06261700
v 0.08150300 -0.00978100 -0.06218600
v 0.08987700 -0.00978100 -0.06229800
v 0.07312800 -0.00978100 -0.06207300
v 0.06475300 -0.00978100 -0.06196100
v 0.05637800 -0.00764000 -0.06184900
v -0.02630900 -0.00237200 -0.06074100
v -0.02630900 -0.00278600 -0.06074100
v -0.02630900 -0.00764000 -0.06074100
v 0.05637800 -0.00978100 -0.06184900
v -0.11232800 -0.00237200 -0.05958900
v -0.11232800 -0.00764000 -0.05958900
v -0.11207400 -0.00237200 0.09111300
v 0.11501200 -0.00237200 0.09113300
v -0.11143800 -0.00237200 0.09113300
v 0.11563500 -0.00237200 0.09109200
v -0.11270000 -0.00237200 0.09100800
v 0.11624700 -0.00237200 0.09096800
v -0.11330700 -0.00237200 0.09082100
v 0.11683800 -0.00237200 0.09076500
v -0.11388400 -0.00237200 0.09055400
v 0.11739600 -0.00237200 0.09048400
v -0.11442000 -0.00237200 0.09021300
v 0.11791200 -0.00237200 0.09013200
v -0.11490600 -0.00237200 0.08980300
v 0.11837700 -0.00237200 0.08971500
v -0.11533200 -0.00237200 0.08933100
v 0.11878200 -0.00237200 0.08924000
v -0.11569300 -0.00237200 0.08880800
v 0.11912100 -0.00237200 0.08871500
v -0.11598000 -0.00237200 0.08824100
v 0.11938700 -0.00237200 0.08815000
v -0.11618800 -0.00237200 0.08764000
v 0.11957600 -0.00237200 0.08755500
v -0.11631500 -0.00237200 0.08701800
v 0.11968500 -0.00237200 0.08694000
v -0.11635800 -0.00237200 0.08638300
v 0.11971100 -0.00237200 0.08631600
v -0.10299800 -0.00237200 0.08050400
v -0.10299800 -0.00237200 -0.05202400
v -0.11635800 -0.00237200 -0.05577500
v 0.10591900 -0.00237200 -0.05202400
v 0.10591900 -0.00237200 0.08050400
v 0.11971100 -0.00237200 -0.05577500
v -0.11629100 -0.00237200 -0.05627900
v 0.11977000 -0.00237200 -0.05663500
v -0.11616400 -0.00237200 -0.05677000
v -0.11597600 -0.00237200 -0.05724200
v 0.11970500 -0.00237200 -0.05749400
v -0.11573100 -0.00237200 -0.05768600
v -0.11543300 -0.00237200 -0.05809800
v 0.11951900 -0.00237200 -0.05833600
v -0.11508700 -0.00237200 -0.05846900
v -0.11469800 -0.00237200 -0.05879400
v -0.11427100 -0.00237200 -0.05906900
v 0.11921400 -0.00237200 -0.05914100
v -0.11381300 -0.00237200 -0.05928800
v -0.11333200 -0.00237200 -0.05945000
v -0.11283400 -0.00237200 -0.05955000
v 0.11879600 -0.00237200 -0.05989500
v 0.11827400 -0.00237200 -0.06058100
v 0.11766000 -0.00237200 -0.06118600
v 0.11696600 -0.00237200 -0.06169600
v 0.11620500 -0.00237200 -0.06210100
v 0.11539500 -0.00237200 -0.06239300
v 0.11455000 -0.00237200 -0.06256700
v 0.11971100 -0.00764000 -0.05577500
v 0.11971100 -0.00764000 0.08631600
v -0.10299800 -0.00764000 -0.05202400
v -0.10299800 -0.00500600 0.08050400
v -0.10299800 -0.00500600 -0.05202400
v -0.10299800 -0.00764000 0.08050400
v 0.10591900 -0.00764000 0.08050400
v 0.10591900 -0.00500600 0.08050400
v 0.10591900 -0.00500600 -0.05202400
v 0.10591900 -0.00764000 -0.05202400
v -0.02630900 0.00057800 -0.07922200
v 0.03155900 -0.00040900 -0.07922200
v 0.03155900 0.00057800 -0.07922200
v -0.02630900 -0.00040900 -0.07922200
v 0.03155900 0.01474000 -0.07184600
v 0.03155900 0.01474000 -0.07042800
v 0.03155900 0.01480700 -0.07113700
v 0.03155900 0.01454100 -0.07252900
v 0.03155900 0.01454100 -0.06974500
v 0.03155900 0.01442400 -0.07086200
v 0.03155900 0.01439800 -0.07146100
v 0.03155900 0.01426800 -0.07204600
v 0.03155900 0.01421600 -0.07316300
v 0.03155900 0.01403600 -0.07259900
v 0.03155900 0.01377900 -0.07372400
v 0.03155900 0.01371100 -0.07310300
v 0.03155900 0.01330200 -0.07354200
v 0.03155900 0.01324300 -0.07419300
v 0.03155900 0.01282300 -0.07390200
v 0.03155900 0.01262900 -0.07455300
v 0.03155900 0.01228700 -0.07417200
v 0.03155900 0.01434300 -0.07026800
v 0.03155900 0.01421600 -0.06911100
v 0.03155900 0.01416000 -0.06969700
v 0.03155900 0.01387900 -0.06916700
v 0.03155900 0.01377900 -0.06855000
v 0.03155900 0.01350900 -0.06869500
v 0.03155900 0.01324300 -0.06808100
v 0.03155900 0.01306100 -0.06829600
v 0.03155900 0.01262900 -0.06772100
v 0.03155900 -0.00237200 -0.06074100
v 0.03155900 -0.00278600 -0.06098800
v 0.03155900 -0.00278600 -0.06074100
v 0.09940700 0.00423800 0.07521700
v 0.09884000 0.00503600 0.07506000
v -0.09740000 0.00503600 0.07506000
v -0.09740000 0.00503600 -0.04707500
v -0.09784900 0.00425300 0.07523700
v 0.09884000 0.00503600 -0.04707500
v 0.07811700 0.00503600 -0.03726300
v 0.07811700 0.00503600 -0.04393100
v -0.06996900 0.00503600 -0.04393100
v -0.06996900 0.00503600 -0.03726300
v -0.09784000 0.00424300 -0.04714700
v 0.09998600 0.00346300 0.07543300
v 0.09939600 0.00422500 -0.04712100
v -0.09830700 0.00349000 0.07546900
v -0.09829400 0.00346700 -0.04728600
v 0.10057600 0.00271400 0.07570600
v 0.09997000 0.00343500 -0.04723900
v -0.09877300 0.00275000 0.07575600
v -0.09876000 0.00271300 -0.04749300
v 0.10117300 0.00199400 0.07603600
v 0.10055900 0.00267000 -0.04742900
v -0.10255800 -0.00200200 -0.05131800
v 0.10536300 -0.00202000 -0.05129200
v 0.10535200 -0.00198400 0.07978900
v -0.10254900 -0.00196900 0.07980900
v -0.09924500 0.00203800 0.07609600
v -0.09923500 0.00198600 -0.04776500
v 0.10177500 0.00130700 0.07642200
v 0.10116000 0.00193500 -0.04768900
v -0.10210400 -0.00157600 -0.05065500
v 0.10477300 -0.00154700 0.07911400
v -0.10209100 -0.00151900 0.07915000
v 0.10478900 -0.00160800 -0.05060800
v -0.09972100 0.00135500 0.07648700
v 0.10418300 -0.00106200 0.07848100
v 0.10238000 0.00065500 0.07686100
v -0.09971500 0.00129000 -0.04810100
v 0.10176800 0.00123400 -0.04801700
v -0.10162500 -0.00102500 0.07853000
v -0.10163800 -0.00109700 -0.05003700
v 0.10420000 -0.00114000 -0.04997300
v -0.10019900 0.00070400 0.07692800
v 0.10298400 0.00004100 0.07735200
v -0.10067700 0.00008900 0.07741700
v -0.10019900 0.00063000 -0.04849900
v 0.10358600 -0.00053200 0.07789300
v 0.10359900 -0.00061800 -0.04939400
v 0.10238000 0.00057300 -0.04841300
v -0.10115300 -0.00048800 0.07795200
v -0.10116300 -0.00056700 -0.04947000
v 0.10299100 -0.00004600 -0.04887300
v -0.10068300 0.00001000 -0.04895600
v 0.06230200 -0.01728900 -0.08053900
v 0.06233600 0.01637800 -0.08053900
v 0.06233600 -0.01677200 -0.08053900
v 0.06230200 0.01689400 -0.08053900
v 0.06220100 -0.01779600 -0.08053900
v 0.06220100 0.01740200 -0.08053900
v 0.06203500 -0.01828600 -0.08053900
v 0.06203500 0.01789200 -0.08053900
v 0.06180600 -0.01875100 -0.08053900
v 0.06180600 0.01835600 -0.08053900
v 0.06151900 -0.01918100 -0.08053900
v 0.06151900 0.01878600 -0.08053900
v 0.06117800 -0.01957000 -0.08053900
v 0.06117800 0.01917500 -0.08053900
v 0.06078800 -0.01991100 -0.08053900
v 0.06078800 0.01951600 -0.08053900
v 0.06035800 -0.02019900 -0.08053900
v 0.06035800 0.01980400 -0.08053900
v 0.05989400 -0.02042700 -0.08053900
v 0.05989400 0.02003300 -0.08053900
v 0.05940400 -0.02059400 -0.08053900
v 0.05940400 0.02019900 -0.08053900
v 0.05889700 -0.02069500 -0.08053900
v 0.05889700 0.02030000 -0.08053900
v 0.05838000 -0.02072900 -0.08053900
v 0.05838000 0.02033400 -0.08053900
v -0.05808600 -0.02072900 -0.08053900
v -0.05808600 0.02033400 -0.08053900
v -0.05860300 -0.02069500 -0.08053900
v -0.05860300 0.02030000 -0.08053900
v -0.05911000 -0.02059400 -0.08053900
v -0.05911000 0.02019900 -0.08053900
v -0.05960100 -0.02042700 -0.08053900
v -0.05960100 0.02003300 -0.08053900
v -0.06006400 -0.02019900 -0.08053900
v -0.06006400 0.01980400 -0.08053900
v -0.06049500 0.01951600 -0.08053900
v -0.06049500 -0.01991100 -0.08053900
v -0.06088400 -0.01957000 -0.08053900
v -0.06088400 0.01917500 -0.08053900
v -0.06122500 -0.01918100 -0.08053900
v -0.06122500 0.01878600 -0.08053900
v -0.06151300 -0.01875100 -0.08053900
v -0.06151300 0.01835600 -0.08053900
v -0.06174100 -0.01828600 -0.08053900
v -0.06174100 0.01789200 -0.08053900
v -0.06190800 -0.01779600 -0.08053900
v -0.06190800 0.01740200 -0.08053900
v -0.06200900 -0.01728900 -0.08053900
v -0.06200900 0.01689400 -0.08053900
v -0.06204200 -0.01677200 -0.08053900
v -0.06204200 0.01637800 -0.08053900
v -0.05595200 -0.01211300 -0.07922200
v -0.05595200 0.01267000 -0.07988100
v -0.05595200 0.01267000 -0.07922200
v -0.05595200 -0.01211300 -0.07988100
v -0.05590500 0.01299300 -0.07988100
v -0.05590500 0.01299300 -0.07922200
v -0.05582100 0.01330800 -0.07988100
v -0.05582100 0.01330800 -0.07922200
v -0.05570100 0.01361200 -0.07988100
v -0.05570100 0.01361200 -0.07922200
v -0.05554700 0.01389900 -0.07988100
v -0.05554700 0.01389900 -0.07922200
v -0.05536000 0.01416700 -0.07988100
v -0.05536000 0.01416700 -0.07922200
v -0.05514300 0.01441000 -0.07988100
v -0.05514300 0.01441000 -0.07922200
v -0.05489900 0.01462700 -0.07922200
v -0.05489900 0.01462700 -0.07988100
v -0.05463200 0.01481400 -0.07922200
v -0.05463200 0.01481400 -0.07988100
v -0.05434500 0.01496900 -0.07922200
v -0.05434500 0.01496900 -0.07988100
v -0.05404100 0.01508900 -0.07922200
v -0.05404100 0.01508900 -0.07988100
v -0.05372600 0.01517300 -0.07922200
v -0.05372600 0.01517300 -0.07988100
v -0.05340300 0.01521900 -0.07922200
v -0.05340300 0.01521900 -0.07988100
v -0.06996900 0.00026200 -0.03726300
v -0.06996900 0.00026200 -0.04393100
v 0.07811700 0.00026200 -0.04393100
v 0.07811700 0.00026200 -0.03726300
v -0.11283400 -0.00764000 -0.05955000
v -0.11333200 -0.00764000 -0.05945000
v -0.11381300 -0.00764000 -0.05928800
v -0.11427100 -0.00764000 -0.05906900
v -0.11469800 -0.00764000 -0.05879400
v -0.11508700 -0.00764000 -0.05846900
v -0.11543300 -0.00764000 -0.05809800
v -0.11635800 -0.00764000 -0.05577500
v -0.11629100 -0.00764000 -0.05627900
v -0.11573100 -0.00764000 -0.05768600
v -0.11616400 -0.00764000 -0.05677000
v -0.11597600 -0.00764000 -0.05724200
v 0.11455000 -0.00764000 -0.06256700
v 0.11539500 -0.00764000 -0.06239300
v 0.11620500 -0.00764000 -0.06210100
v 0.11696600 -0.00764000 -0.06169600
v 0.11977000 -0.00764000 -0.05663500
v 0.11766000 -0.00764000 -0.06118600
v 0.11970500 -0.00764000 -0.05749400
v 0.11827400 -0.00764000 -0.06058100
v 0.11951900 -0.00764000 -0.05833600
v 0.11879600 -0.00764000 -0.05989500
v 0.11921400 -0.00764000 -0.05914100
v 0.11501200 -0.00764000 0.09113300
v 0.11563500 -0.00764000 0.09109200
v 0.11968500 -0.00764000 0.08694000
v 0.11624700 -0.00764000 0.09096800
v 0.11957600 -0.00764000 0.08755500
v 0.11683800 -0.00764000 0.09076500
v 0.11938700 -0.00764000 0.08815000
v 0.11739600 -0.00764000 0.09048400
v 0.11912100 -0.00764000 0.08871500
v 0.11791200 -0.00764000 0.09013200
v 0.11878200 -0.00764000 0.08924000
v 0.11837700 -0.00764000 0.08971500
v -0.02630900 0.01262900 -0.06772100
v -0.02630900 0.01324300 -0.06808100
v -0.02630900 0.01377900 -0.06855000
v -0.02630900 0.01421600 -0.06911100
v -0.02630900 0.01454100 -0.06974500
v -0.02630900 0.01474000 -0.07042800
v -0.02630900 0.01480700 -0.07113700
v -0.02630900 0.01474000 -0.07184600
v -0.02630900 0.01454100 -0.07252900
v -0.02630900 0.01421600 -0.07316300
v -0.02630900 0.01377900 -0.07372400
v -0.02630900 0.01324300 -0.07419300
v -0.02630900 0.01262900 -0.07455300
v -0.02630900 0.01228700 -0.07417200
v -0.02630900 0.01282300 -0.07390200
v -0.02630900 0.01330200 -0.07354200
v -0.02630900 0.01371100 -0.07310300
v -0.02630900 0.01403600 -0.07259900
v -0.02630900 0.01426800 -0.07204600
v -0.02630900 0.01439800 -0.07146100
v -0.02630900 0.01442400 -0.07086200
v -0.02630900 0.01434300 -0.07026800
v -0.02630900 0.01416000 -0.06969700
v -0.02630900 0.01387900 -0.06916700
v -0.02630900 0.01350900 -0.06869500
v -0.02630900 0.01306100 -0.06829600
v -0.02630900 -0.00278600 -0.06098800
v -0.06174100 0.01789200 -0.07922200
v -0.06190800 0.01740200 -0.07922200
v -0.06151300 0.01835600 -0.07922200
v -0.06122500 0.01878600 -0.07922200
v -0.06088400 0.01917500 -0.07922200
v -0.06049500 0.01951600 -0.07922200
v -0.06006400 0.01980400 -0.07922200
v -0.05960100 0.02003300 -0.07922200
v -0.05911000 0.02019900 -0.07922200
v -0.05860300 0.02030000 -0.07922200
v -0.05808600 0.02033400 -0.07922200
v 0.05838000 0.02033400 -0.07922200
v 0.05889700 0.02030000 -0.07922200
v 0.05940400 0.02019900 -0.07922200
v 0.05989400 0.02003300 -0.07922200
v 0.06035800 0.01980400 -0.07922200
v 0.06078800 0.01951600 -0.07922200
v 0.06117800 0.01917500 -0.07922200
v 0.06151900 0.01878600 -0.07922200
v 0.06180600 0.01835600 -0.07922200
v 0.06203500 0.01789200 -0.07922200
v 0.06220100 0.01740200 -0.07922200
v 0.06230200 0.01689400 -0.07922200
v 0.06233600 0.01637800 -0.07922200
v 0.06233600 -0.01677200 -0.07922200
v 0.06230200 -0.01728900 -0.07922200
v 0.06220100 -0.01779600 -0.07922200
v 0.06203500 -0.01828600 -0.07922200
v 0.06180600 -0.01875100 -0.07922200
v 0.06151900 -0.01918100 -0.07922200
v 0.06117800 -0.01957000 -0.07922200
v 0.06078800 -0.01991100 -0.07922200
v 0.06035800 -0.02019900 -0.07922200
v 0.05989400 -0.02042700 -0.07922200
v 0.05940400 -0.02059400 -0.07922200
v 0.05889700 -0.02069500 -0.07922200
v 0.05838000 -0.02072900 -0.07922200
v -0.05808600 -0.02072900 -0.07922200
v -0.05860300 -0.02069500 -0.07922200
v -0.05911000 -0.02059400 -0.07922200
v -0.05960100 -0.02042700 -0.07922200
v -0.06006400 -0.02019900 -0.07922200
v -0.06049500 -0.01991100 -0.07922200
v -0.06088400 -0.01957000 -0.07922200
v -0.06122500 -0.01918100 -0.07922200
v -0.06151300 -0.01875100 -0.07922200
v -0.06174100 -0.01828600 -0.07922200
v -0.06190800 -0.01779600 -0.07922200
v -0.06200900 -0.01728900 -0.07922200
v -0.06200900 0.01689400 -0.07922200
v 0.05690300 0.01267000 -0.07922200
v 0.05688100 0.01300300 -0.07922200
v 0.05681600 0.01333000 -0.07922200
v 0.05670900 0.01364600 -0.07922200
v 0.05656200 0.01394500 -0.07922200
v 0.05637600 0.01422200 -0.07922200
v 0.05615700 0.01447300 -0.07922200
v 0.05590600 0.01469200 -0.07922200
v 0.05562900 0.01487800 -0.07922200
v 0.05533000 0.01502500 -0.07922200
v 0.05501400 0.01513200 -0.07922200
v 0.05468700 0.01519700 -0.07922200
v 0.05435400 0.01521900 -0.07922200
v 0.05690300 -0.01211300 -0.07922200
v 0.05688100 -0.01244500 -0.07922200
v 0.05681600 -0.01277200 -0.07922200
v 0.05670900 -0.01308800 -0.07922200
v 0.05656200 -0.01338700 -0.07922200
v 0.05637600 -0.01366400 -0.07922200
v 0.05615700 -0.01391500 -0.07922200
v 0.05590600 -0.01413500 -0.07922200
v 0.05562900 -0.01432000 -0.07922200
v 0.05533000 -0.01446800 -0.07922200
v 0.05501400 -0.01457500 -0.07922200
v 0.05468700 -0.01464000 -0.07922200
v 0.05435400 -0.01466100 -0.07922200
v -0.05340300 -0.01466100 -0.07922200
v -0.05593000 -0.01244500 -0.07922200
v -0.05373600 -0.01464000 -0.07922200
v -0.05406300 -0.01457500 -0.07922200
v -0.05437800 -0.01446800 -0.07922200
v -0.05467700 -0.01432000 -0.07922200
v -0.05495500 -0.01413500 -0.07922200
v -0.05520500 -0.01391500 -0.07922200
v -0.05542500 -0.01366400 -0.07922200
v -0.05561000 -0.01338700 -0.07922200
v -0.05575800 -0.01308800 -0.07922200
v -0.05586500 -0.01277200 -0.07922200
v -0.06204200 0.01637800 -0.07922200
v -0.06204200 -0.01677200 -0.07922200
v -0.11635800 -0.00764000 0.08638300
v -0.11631500 -0.00764000 0.08701800
v -0.11618800 -0.00764000 0.08764000
v -0.11598000 -0.00764000 0.08824100
v -0.11569300 -0.00764000 0.08880800
v -0.11533200 -0.00764000 0.08933100
v -0.11490600 -0.00764000 0.08980300
v -0.11442000 -0.00764000 0.09021300
v -0.11388400 -0.00764000 0.09055400
v -0.11330700 -0.00764000 0.09082100
v -0.11270000 -0.00764000 0.09100800
v -0.11207400 -0.00764000 0.09111300
v -0.11143800 -0.00764000 0.09113300
v -0.05340300 -0.01466100 -0.07988100
v -0.05373600 -0.01464000 -0.07988100
v -0.05406300 -0.01457500 -0.07988100
v -0.05437800 -0.01446800 -0.07988100
v -0.05467700 -0.01432000 -0.07988100
v -0.05495500 -0.01413500 -0.07988100
v -0.05520500 -0.01391500 -0.07988100
v -0.05542500 -0.01366400 -0.07988100
v -0.05561000 -0.01338700 -0.07988100
v -0.05575800 -0.01308800 -0.07988100
v -0.05586500 -0.01277200 -0.07988100
v -0.05593000 -0.01244500 -0.07988100
v 0.05435400 0.01521900 -0.07988100
v 0.05468700 0.01519700 -0.07988100
v 0.05501400 0.01513200 -0.07988100
v 0.05533000 0.01502500 -0.07988100
v 0.05562900 0.01487800 -0.07988100
v 0.05590600 0.01469200 -0.07988100
v 0.05615700 0.01447300 -0.07988100
v 0.05637600 0.01422200 -0.07988100
v 0.05656200 0.01394500 -0.07988100
v 0.05670900 0.01364600 -0.07988100
v 0.05681600 0.01333000 -0.07988100
v 0.05688100 0.01300300 -0.07988100
v 0.05690300 0.01267000 -0.07988100
v 0.05690300 -0.01211300 -0.07988100
v 0.05688100 -0.01244500 -0.07988100
v 0.05681600 -0.01277200 -0.07988100
v 0.05670900 -0.01308800 -0.07988100
v 0.05656200 -0.01338700 -0.07988100
v 0.05637600 -0.01366400 -0.07988100
v 0.05615700 -0.01391500 -0.07988100
v 0.05590600 -0.01413500 -0.07988100
v 0.05562900 -0.01432000 -0.07988100
v 0.05533000 -0.01446800 -0.07988100
v 0.05501400 -0.01457500 -0.07988100
v 0.05468700 -0.01464000 -0.07988100
v 0.05435400 -0.01466100 -0.07988100
v 0.03155900 0.00057800 -0.07988100
v -0.02630900 0.00057800 -0.07988100
v -0.02630900 -0.00040900 -0.07988100
v 0.03155900 -0.00040900 -0.07988100
v 0.08152100 -0.00764000 -0.06078600
v 0.08989600 -0.00978100 -0.06089900
v 0.08989600 -0.00764000 -0.06089900
v 0.08152100 -0.00978100 -0.06078600
v 0.07314600 -0.00764000 -0.06067400
v 0.07314600 -0.00978100 -0.06067400
v 0.06477200 -0.00764000 -0.06056200
v 0.06477200 -0.00978100 -0.06056200
v 0.05639700 -0.00764000 -0.06045000
v 0.05639700 -0.00978100 -0.06045000
v -0.10299800 -0.00500600 -0.02815300
v 0.10591900 -0.00500600 0.05799000
v 0.10591900 -0.00500600 -0.02815300
v -0.10299800 -0.00500600 0.05799000
v 0.11550600 -0.00764000 0.09113300
v 0.11550600 -0.00764000 0.09220300
v -0.11143800 -0.00764000 0.09220300
vn 0.17428364 0.65172879 0.73815635
vn 0.04629904 0.71951196 0.69293502
vn 0.18977971 0.70967592 0.67848636
vn 0.04443997 0.69062110 0.72185011
vn 0.33833259 0.58426331 0.73767706
vn 0.36793994 0.63539196 0.67889415
vn 0.47761143 0.47761143 0.73741077
vn 0.51903492 0.51903492 0.67912113
vn 0.63614174 0.36717861 0.67860412
vn 0.58441666 0.33732308 0.73801782
vn 0.70911900 0.18970986 0.67908793
vn 0.65245679 0.17455108 0.73744970
vn 0.73437701 -0.00000000 0.67874178
vn 0.67495815 0.00000000 0.73785601
vn 0.70911900 -0.18970986 0.67908793
vn 0.65245679 -0.17455108 0.73744970
vn 0.63614174 -0.36717861 0.67860412
vn 0.58441666 -0.33732308 0.73801782
vn 0.51903492 -0.51903492 0.67912113
vn 0.47761143 -0.47761143 0.73741077
vn 0.33732308 -0.58441666 0.73801782
vn 0.36717861 -0.63614174 0.67860412
vn 0.17455108 -0.65245679 0.73744970
vn 0.18970986 -0.70911900 0.67908793
vn 0.04546030 -0.69018485 0.72220373
vn 0.04740792 -0.71975401 0.69260858
vn -0.04546030 -0.69018485 0.72220373
vn -0.04740792 -0.71975401 0.69260858
vn -0.17455108 -0.65245679 0.73744970
vn -0.18970986 -0.70911900 0.67908793
vn -0.33732308 -0.58441666 0.73801782
vn -0.36717861 -0.63614174 0.67860412
vn -0.47761143 -0.47761143 0.73741077
vn -0.51903492 -0.51903492 0.67912113
vn -0.63614174 -0.36717861 0.67860412
vn -0.58441666 -0.33732308 0.73801782
vn -0.70911900 -0.18970986 0.67908793
vn -0.65245679 -0.17455108 0.73744970
vn -0.73437701 0.00000000 0.67874178
vn -0.67495815 -0.00000000 0.73785601
vn -0.70911900 0.18970986 0.67908793
vn -0.65245679 0.17455108 0.73744970
vn -0.63614174 0.36717861 0.67860412
vn -0.58441666 0.33732308 0.73801782
vn -0.51903492 0.51903492 0.67912113
vn -0.47761143 0.47761143 0.73741077
vn -0.33833259 0.58426331 0.73767706
vn -0.36793994 0.63539196 0.67889415
vn -0.17428364 0.65172879 0.73815635
vn -0.18977971 0.70967592 0.67848636
vn -0.04443997 0.69062110 0.72185011
vn -0.04629904 0.71951196 0.69293502
vn -0.00037159 -0.99991579 -0.01297188
vn 0.70708323 -0.70706513 -0.00960299
vn 0.00000000 -1.00000000 -0.00000000
vn -0.00000000 -1.00000000 -0.00000000
vn 0.70699514 -0.70715322 -0.00960179
vn 0.00000000 -1.00000000 0.00000000
vn 0.00000000 -1.00000000 -0.00000000
vn -0.70700081 -0.70714755 0.00960187
vn -0.00000000 0.00000000 -0.00000000
vn 0.00000000 -0.00000000 0.00000000
vn 0.00000000 -1.00000000 0.00000000
vn -0.70708838 -0.70705997 0.00960306
vn -0.00024806 -0.99998097 -0.00616422
vn 0.00000000 -1.00000000 0.00000000
vn -0.09864972 -0.00000000 0.99512222
vn -0.00000000 0.00000000 1.00000000
vn -0.01571744 -0.00000000 0.99987647
vn 0.00233291 -0.99991160 0.01309022
vn -0.23042600 0.00000000 0.97308985
vn -0.00000000 0.00000000 -0.00000000
vn -0.35799653 -0.00000000 0.93372292
vn -0.00047847 -0.99999935 -0.00103668
vn -0.47942771 0.00000000 0.87758138
vn 0.00000000 -0.00000000 0.00000000
vn -0.59212549 0.00000000 0.80584577
vn -0.00000000 -0.00000000 -0.00000000
vn -0.69518615 -0.00000000 0.71882976
vn -0.00000000 -0.00000000 -0.00000000
vn -0.78432772 0.00000000 0.62034669
vn -0.00000000 -0.00000000 -0.00000000
vn -0.85957316 0.00000000 0.51101269
vn 0.00000000 0.00000000 0.00000000
vn -0.92071779 0.00000000 0.39022911
vn -0.00000000 0.00000000 -0.00000000
vn -0.96448772 0.00000000 0.26412769
vn 0.00000000 -0.00000000 0.00000000
vn -0.99096683 -0.00000000 0.13410719
vn -0.00000000 0.00000000 -0.00000000
vn -0.99942861 0.00000000 0.03380022
vn -0.00000000 0.00000000 0.00000000
vn 0.52263658 0.69312405 -0.49641723
vn 0.52788480 0.68501552 0.50208703
vn -1.00000000 -0.00000000 -0.00000000
vn -0.53029379 0.67168350 0.51732945
vn -0.52430682 0.68032701 -0.51211084
vn 0.00000000 -0.00000000 0.00000000
vn 0.00000000 0.00000000 0.00000000
vn -0.00000000 0.00000000 -0.00000000
vn -0.00000000 -0.00000000 -0.00000000
vn 0.01222258 0.99991335 0.00488903
vn -0.00000000 0.00000000 0.00000000
vn 0.00000000 -0.00000000 0.00000000
vn -0.00000000 0.00000000 -0.00000000
vn -0.00000000 0.00000000 0.00000000
vn 0.00000000 0.00000000 0.00000000
vn 0.00000000 -0.00000000 0.00000000
vn 0.00000000 -0.00000000 0.00000000
vn 0.00000000 0.00000000 -0.00000000
vn -0.00000000 0.00000000 -0.00000000
vn -0.00000000 0.00000000 -0.00000000
vn 0.00021295 0.99999553 0.00298125
vn 0.00000000 0.00000000 -0.00000000
vn 0.00000000 0.00000000 -0.00000000
vn -0.00000000 0.00000000 0.00000000
vn 0.00000000 -0.00000000 -0.00000000
vn -0.00000000 -0.00000000 0.00000000
vn -0.00110619 -0.99999694 -0.00221238
vn -0.00040541 0.99999992 0.00000000
vn -0.00000000 -1.00000000 -0.00000000
vn 0.00000000 -1.00000000 -0.00000000
vn 0.00000000 -1.00000000 0.00000000
vn 0.70710678 0.00000000 -0.70710678
vn 0.70710678 0.00000000 0.70710678
vn -0.00000000 -1.00000000 0.00000000
vn -0.00000000 -1.00000000 -0.00000000
vn -0.70710678 0.00000000 -0.70710678
vn -0.70710678 0.00000000 0.70710678
vn 0.00000000 -1.00000000 -0.00000000
vn -0.57735027 0.57735027 0.57735027
vn 0.57735027 -0.57735027 0.57735027
vn 0.57735027 0.57735027 0.57735027
vn -0.57735027 -0.57735027 0.57735027
vn -0.00000000 0.00000000 -0.00000000
vn -0.00000000 -0.00000000 -0.00000000
vn -0.00000000 0.00000000 0.00000000
vn -0.00000000 -0.00000000 0.00000000
vn 0.00000000 0.00000000 0.00000000
vn 0.00000000 -0.00000000 0.00000000
vn 0.00000000 0.00000000 -0.00000000
vn -0.00000000 -0.00000000 -0.00000000
vn 0.00000000 -0.00000000 0.00000000
vn 0.00000000 -0.00000000 0.00000000
vn -0.00000000 0.00000000 -0.00000000
vn 0.00000000 0.00000000 -0.00000000
vn 0.00000000 0.00000000 -0.00000000
vn -0.00000000 -0.00000000 0.00000000
vn 0.00000000 -0.00000000 0.00000000
vn 0.00000000 0.00000000 -0.00000000
vn -0.00000000 -0.00000000 0.00000000
vn -0.00000000 -0.00000000 0.00000000
vn 0.00000000 0.00000000 0.00000000
vn 0.00000000 0.00000000 0.00000000
vn 0.00000000 -0.00000000 -0.00000000
vn 0.00000000 -0.00000000 -0.00000000
vn 0.00000000 -0.00000000 -0.00000000
vn 0.00000000 0.00000000 0.00000000
vn -0.00000000 0.00000000 0.00000000
vn -0.00000000 -0.00000000 -0.00000000
vn -0.00000000 0.00000000 0.00000000
vn 0.00000000 -0.00000000 0.00000000
vn 0.00000000 0.00000000 -0.00000000
vn 0.53758190 0.55395967 0.63571565
vn 0.35790441 0.75977994 0.54280648
vn -0.39630477 0.75280020 0.52558004
vn -0.40162720 0.71240062 -0.57548324
vn -0.57643537 0.51525390 0.63422053
vn 0.36607959 0.71574241 -0.59472560
vn -0.30151134 0.90453403 -0.30151134
vn -0.30151134 0.90453403 0.30151134
vn 0.30151134 0.90453403 0.30151134
vn 0.30151134 0.90453403 -0.30151134
vn -0.59815335 0.44123870 -0.66897009
vn 0.51627943 0.60333892 0.60781387
vn 0.56303482 0.47938757 -0.67318597
vn -0.55907157 0.56374383 0.60797358
vn -0.57717501 0.50400539 -0.64253216
vn 0.49545944 0.65008425 0.57611666
vn 0.53744943 0.54389170 -0.64446096
vn -0.54087559 0.61030384 0.57877700
vn -0.55550270 0.56319050 -0.61174603
vn 0.47418285 0.69413779 0.54159334
vn 0.51153226 0.60441930 -0.61074713
vn -0.36358085 0.89299458 -0.26527278
vn 0.29741489 0.92355833 -0.24204215
vn 0.31434495 0.91134507 0.26577699
vn -0.37870952 0.88004842 0.28652028
vn -0.52278667 0.65350768 0.54737721
vn -0.53437282 0.61821619 -0.57641516
vn 0.45268170 0.73461090 0.50539698
vn 0.48627086 0.66019117 -0.57244062
vn -0.39302900 0.86497502 -0.31200389
vn 0.34024450 0.88918070 0.30592705
vn -0.40347871 0.85514721 0.32546609
vn 0.32875395 0.89865743 -0.29040604
vn -0.50472460 0.69373182 0.51379883
vn 0.36431408 0.86433980 0.34668713
vn 0.43170239 0.77169249 0.46703720
vn -0.51219654 0.66980988 -0.53759596
vn 0.46068550 0.71241914 -0.52936550
vn -0.42561356 0.82830279 0.36437286
vn -0.41950622 0.83390656 -0.35862847
vn 0.35723858 0.87052574 -0.33847532
vn -0.48585160 0.73166471 0.47813699
vn 0.40974219 0.80586770 0.42742086
vn -0.46647405 0.76675341 0.44101153
vn -0.48985010 0.71724539 -0.49558645
vn 0.38737510 0.83667306 0.38719340
vn 0.38392669 0.83777195 -0.38825051
vn 0.43561268 0.75893783 -0.48399894
vn -0.44655122 0.79868005 0.40336360
vn -0.44419417 0.79865720 -0.40600273
vn 0.41000762 0.80065364 -0.43686096
vn -0.46786697 0.75986541 -0.45133696
vn 0.71505962 -0.09432377 -0.69267074
vn 0.71397398 0.02349692 -0.69977786
vn 0.71396177 -0.02345117 -0.69979185
vn 0.71501964 0.09422745 -0.69272513
vn 0.69661133 -0.18653645 -0.69277472
vn 0.69668426 0.18641517 -0.69273402
vn 0.66651031 -0.27562885 -0.69267073
vn 0.66647429 0.27594720 -0.69257864
vn 0.62481030 -0.36029696 -0.69267466
vn 0.62457980 0.36051944 -0.69276678
vn 0.57238608 -0.43888063 -0.69264563
vn 0.57238608 0.43888063 -0.69264563
vn 0.50979772 -0.51044681 -0.69249573
vn 0.50979772 0.51044681 -0.69249573
vn 0.43879472 -0.57207573 -0.69295639
vn 0.43879472 0.57207573 -0.69295639
vn 0.36065262 -0.62490244 -0.69240640
vn 0.36110457 0.62443403 -0.69259341
vn 0.27583752 -0.66611983 -0.69296323
vn 0.27594720 0.66647429 -0.69257864
vn 0.18722281 -0.69662344 -0.69257736
vn 0.18653645 0.69661133 -0.69277472
vn 0.09432377 -0.71505962 -0.69267074
vn 0.09432377 0.71505962 -0.69267074
vn 0.02345117 -0.71396177 -0.69979185
vn 0.02345117 0.71396177 -0.69979185
vn -0.02345117 -0.71396177 -0.69979185
vn -0.02345117 0.71396177 -0.69979185
vn -0.09432377 -0.71505962 -0.69267074
vn -0.09432377 0.71505962 -0.69267074
vn -0.18698945 -0.69661942 -0.69264444
vn -0.18630423 0.69660703 -0.69284153
vn -0.27597357 -0.66622926 -0.69280384
vn -0.27608486 0.66658260 -0.69241952
vn -0.36048446 -0.62476909 -0.69261428
vn -0.36093680 0.62430001 -0.69280165
vn -0.43899968 0.57222510 -0.69270320
vn -0.43899968 -0.57222510 -0.69270320
vn -0.51002922 -0.51002922 -0.69263294
vn -0.51002922 0.51002922 -0.69263294
vn -0.57190113 -0.43923899 -0.69281903
vn -0.57190113 0.43923899 -0.69281903
vn -0.62513223 -0.36043050 -0.69231463
vn -0.62490244 0.36065262 -0.69240640
vn -0.66615553 -0.27552009 -0.69305518
vn -0.66611983 0.27583752 -0.69296323
vn -0.69662344 -0.18722281 -0.69257736
vn -0.69669646 0.18710155 -0.69253668
vn -0.71534787 -0.09366096 -0.69246303
vn -0.71530841 0.09356339 -0.69251698
vn -0.71377601 -0.02275693 -0.70000423
vn -0.71378792 0.02280132 -0.69999064
vn 0.71400973 0.02363104 -0.69973686
vn 0.72076427 -0.05216483 0.69121466
vn 0.68829222 -0.04981468 0.72372116
vn 0.71400973 0.02363104 0.69973686
vn 0.70499393 -0.14478159 0.69427793
vn 0.67937803 -0.13952096 0.72040225
vn 0.68348515 -0.22519705 0.69435894
vn 0.65880810 -0.21706637 0.72031526
vn 0.65295582 -0.30280346 0.69423250
vn 0.62914641 -0.29176202 0.72045105
vn 0.61330262 -0.37673988 0.69420960
vn 0.59089921 -0.36297790 0.72047566
vn 0.56482896 -0.44664215 0.69388691
vn 0.54367819 -0.42991704 0.72082270
vn 0.50830595 -0.50934387 0.69440182
vn 0.49001563 -0.49101621 0.72026923
vn 0.43012470 -0.54409980 0.72038055
vn 0.44631594 -0.56458142 0.69429813
vn 0.36435390 -0.59018623 0.72036550
vn 0.37805369 -0.61237737 0.69431215
vn 0.29247355 -0.62845519 0.72076577
vn 0.30380422 -0.65280208 0.69393980
vn 0.21706637 -0.65880810 0.72031526
vn 0.22519705 -0.68348515 0.69435894
vn 0.13841716 -0.67922904 0.72075558
vn 0.14377554 -0.70552321 0.69394927
vn 0.04879715 -0.68873899 0.72336536
vn 0.05104965 -0.72053151 0.69154051
vn 0.57735027 0.57735027 -0.57735027
vn 0.57735027 0.57735027 0.57735027
vn -0.57735027 0.57735027 0.57735027
vn -0.57735027 0.57735027 -0.57735027
vn -0.00000000 -1.00000000 -0.00000000
vn 0.00000000 -1.00000000 0.00000000
vn 0.00000000 -1.00000000 0.00000000
vn -0.00000000 -1.00000000 -0.00000000
vn -0.00000000 -1.00000000 -0.00000000
vn -0.00000000 -1.00000000 -0.00000000
vn 0.00000000 -1.00000000 0.00000000
vn -0.46271845 -0.88650529 0.00000000
vn -0.00000000 -1.00000000 -0.00000000
vn 0.00000000 -1.00000000 -0.00000000
vn 0.00000000 -1.00000000 0.00000000
vn -0.00000000 -1.00000000 -0.00000000
vn 0.00000000 -1.00000000 0.00000000
vn 0.00000000 -1.00000000 0.00000000
vn 0.00000000 -1.00000000 0.00000000
vn -0.00000000 -1.00000000 0.00000000
vn -0.00000000 -1.00000000 0.00000000
vn 0.00000000 -1.00000000 -0.00000000
vn 0.00000000 -1.00000000 0.00000000
vn -0.00000000 -1.00000000 0.00000000
vn 0.00000000 -1.00000000 -0.00000000
vn -0.00000000 -1.00000000 0.00000000
vn -0.00000000 -1.00000000 0.00000000
vn 0.00000000 -0.89058934 0.45480835
vn -0.00000000 -1.00000000 -0.00000000
vn 0.00000000 -1.00000000 0.00000000
vn -0.00000000 -1.00000000 0.00000000
vn -0.00000000 -1.00000000 -0.00000000
vn 0.00000000 -1.00000000 0.00000000
vn 0.00000000 -1.00000000 0.00000000
vn -0.00000000 -1.00000000 -0.00000000
vn -0.00000000 -1.00000000 -0.00000000
vn 0.00000000 -1.00000000 0.00000000
vn 0.00000000 -1.00000000 0.00000000
vn 0.00000000 -1.00000000 0.00000000
vn 0.00000000 0.00000000 0.00000000
vn -0.00000000 -0.00000000 -0.00000000
vn -0.00000000 0.00000000 0.00000000
vn 0.00000000 -0.00000000 -0.00000000
vn -0.00000000 -0.00000000 -0.00000000
vn 0.00000000 0.00000000 0.00000000
vn 0.00000000 0.00000000 -0.00000000
vn 0.00000000 -0.00000000 0.00000000
vn 0.00000000 0.00000000 -0.00000000
vn -0.00000000 0.00000000 -0.00000000
vn -0.00000000 -0.00000000 0.00000000
vn 0.00000000 0.00000000 -0.00000000
vn -0.00000000 -0.00000000 0.00000000
vn -0.00000000 0.00000000 -0.00000000
vn 0.00000000 0.00000000 -0.00000000
vn 0.00000000 -0.00000000 0.00000000
vn -0.00000000 -0.00000000 0.00000000
vn -0.00000000 0.00000000 -0.00000000
vn 0.00000000 0.00000000 0.00000000
vn 0.00000000 -0.00000000 0.00000000
vn -0.00000000 0.00000000 -0.00000000
vn -0.00000000 0.00000000 -0.00000000
vn 0.00000000 -0.00000000 -0.00000000
vn 0.00000000 0.00000000 0.00000000
vn 0.00000000 0.00000000 0.00000000
vn -0.00000000 -0.00000000 -0.00000000
vn 0.00000000 0.00000000 0.00000000
vn -0.66611983 0.27583752 0.69296323
vn -0.69669646 0.18710155 0.69253668
vn -0.62490244 0.36065262 0.69240640
vn -0.57190113 0.43923899 0.69281903
vn -0.51002922 0.51002922 0.69263294
vn -0.43899968 0.57222510 0.69270320
vn -0.36093680 0.62430001 0.69280165
vn -0.27608486 0.66658260 0.69241952
vn -0.18630423 0.69660703 0.69284153
vn -0.09432377 0.71505962 0.69267074
vn -0.02345117 0.71396177 0.69979185
vn 0.02345117 0.71396177 0.69979185
vn 0.09432377 0.71505962 0.69267074
vn 0.18653645 0.69661133 0.69277472
vn 0.27594720 0.66647429 0.69257864
vn 0.36110457 0.62443403 0.69259341
vn 0.43879472 0.57207573 0.69295639
vn 0.50979772 0.51044681 0.69249573
vn 0.57238608 0.43888063 0.69264563
vn 0.62457980 0.36051944 0.69276678
vn 0.66647429 0.27594720 0.69257864
vn 0.69668426 0.18641517 0.69273402
vn 0.71501964 0.09422745 0.69272513
vn 0.71397398 0.02349692 0.69977786
vn 0.71396177 -0.02345117 0.69979185
vn 0.71505962 -0.09432377 0.69267074
vn 0.69661133 -0.18653645 0.69277472
vn 0.66651031 -0.27562885 0.69267073
vn 0.62481030 -0.36029696 0.69267466
vn 0.57238608 -0.43888063 0.69264563
vn 0.50979772 -0.51044681 0.69249573
vn 0.43879472 -0.57207573 0.69295639
vn 0.36065262 -0.62490244 0.69240640
vn 0.27583752 -0.66611983 0.69296323
vn 0.18722281 -0.69662344 0.69257736
vn 0.09432377 -0.71505962 0.69267074
vn 0.02345117 -0.71396177 0.69979185
vn -0.02345117 -0.71396177 0.69979185
vn -0.09432377 -0.71505962 0.69267074
vn -0.18698945 -0.69661942 0.69264444
vn -0.27597357 -0.66622926 0.69280384
vn -0.36048446 -0.62476909 0.69261428
vn -0.43899968 -0.57222510 0.69270320
vn -0.51002922 -0.51002922 0.69263294
vn -0.57190113 -0.43923899 0.69281903
vn -0.62513223 -0.36043050 0.69231463
vn -0.66615553 -0.27552009 0.69305518
vn -0.69662344 -0.18722281 0.69257736
vn -0.71534787 -0.09366096 0.69246303
vn -0.71530841 0.09356339 0.69251698
vn -0.69914704 -0.02306980 0.71460563
vn -0.68590203 -0.09043675 0.72205235
vn -0.66834163 -0.17876293 0.72205491
vn -0.63941382 -0.26411554 0.72207544
vn -0.59852702 -0.34598537 0.72253687
vn -0.54932729 -0.42140398 0.72156650
vn -0.48871005 -0.48871005 0.72272054
vn -0.42140398 -0.54932729 0.72156650
vn -0.34598537 -0.59852702 0.72253687
vn -0.26411554 -0.63941382 0.72207544
vn -0.17876293 -0.66834163 0.72205491
vn -0.09043675 -0.68590203 0.72205235
vn -0.02306980 -0.69914704 0.71460563
vn -0.69912153 0.02313829 0.71462837
vn -0.68591703 0.09050786 0.72202919
vn -0.66834163 0.17876293 0.72205491
vn -0.63941382 0.26411554 0.72207544
vn -0.59852702 0.34598537 0.72253687
vn -0.54932729 0.42140398 0.72156650
vn -0.48945692 0.48835317 0.72245630
vn -0.42098720 0.54891742 0.72212149
vn -0.34636125 0.59904073 0.72193081
vn -0.26484946 0.63875459 0.72239002
vn -0.17876293 0.66834163 0.72205491
vn -0.08936385 0.68567436 0.72240208
vn -0.02203539 0.69953093 0.71426250
vn 0.02203539 0.69953093 0.71426250
vn 0.68591703 0.09050786 0.72202919
vn 0.08936385 0.68567436 0.72240208
vn 0.17905462 0.66814173 0.72216762
vn 0.26520250 0.63873563 0.72227725
vn 0.34596427 0.59950410 0.72173648
vn 0.42080305 0.54849776 0.72254758
vn 0.48975514 0.48878672 0.72196083
vn 0.54891742 0.42098720 0.72212149
vn 0.59904073 0.34636125 0.72193081
vn 0.63875459 0.26484946 0.72239002
vn 0.66834163 0.17876293 0.72205491
vn -0.71378792 0.02280132 0.69999064
vn -0.71377601 -0.02275693 0.70000423
vn -0.71414830 -0.69957764 0.02415217
vn -0.71502909 -0.69236551 0.09676463
vn -0.69572130 -0.69258358 0.19052524
vn -0.66449225 -0.69219440 0.28163268
vn -0.62038047 -0.69217381 0.36881363
vn -0.56562625 -0.69276793 0.44736959
vn -0.50175319 -0.69214996 0.51881805
vn -0.42726915 -0.69232537 0.58148659
vn -0.34590053 -0.69242870 0.63316295
vn -0.25833913 -0.69228449 0.67379751
vn -0.16623608 -0.69248805 0.70201558
vn -0.07119009 -0.69226313 0.71812515
vn -0.01116897 -0.70358618 0.71052217
vn 0.02248179 0.71370211 0.70008847
vn 0.09324301 0.71543855 0.69242575
vn 0.18670728 0.69669764 0.69264190
vn 0.27662006 0.66623463 0.69254080
vn 0.36032488 0.62438888 0.69304004
vn 0.43924435 0.57253517 0.69229175
vn 0.51039788 0.50938864 0.69283275
vn 0.57230548 0.43892446 0.69268445
vn 0.62423843 0.36093039 0.69286047
vn 0.66646005 0.27633710 0.69243686
vn 0.69669106 0.18634562 0.69274590
vn 0.71496163 0.09434034 0.69276964
vn -0.02355960 -0.71399069 0.69975870
vn -0.09427220 -0.71499133 0.69274826
vn -0.18634562 -0.69669106 0.69274590
vn -0.27533417 -0.66657369 0.69272694
vn -0.36113728 -0.62473862 0.69230161
vn -0.43869166 -0.57186290 0.69319727
vn -0.51036873 -0.51036873 0.69213259
vn -0.57186290 -0.43869166 0.69319727
vn -0.62473862 -0.36113728 0.69230161
vn -0.66657369 -0.27533417 0.69272694
vn -0.69669106 -0.18634562 0.69274590
vn -0.71499133 -0.09427220 0.69274826
vn -0.71399069 -0.02355960 0.69975870
vn -0.71400973 0.02363104 0.69973686
vn -0.71496163 0.09434034 0.69276964
vn -0.69669106 0.18634562 0.69274590
vn -0.66657369 0.27533417 0.69272694
vn -0.62473862 0.36113728 0.69230161
vn -0.57186290 0.43869166 0.69319727
vn -0.51077934 0.50962752 0.69237580
vn -0.43892446 0.57230548 0.69268445
vn -0.36093039 0.62423843 0.69286047
vn -0.27633710 0.66646005 0.69243686
vn -0.18634562 0.69669106 0.69274590
vn -0.09324301 0.71543855 0.69242575
vn -0.02248179 0.71370211 0.70008847
vn 0.30151134 0.30151134 0.90453403
vn -0.30151134 0.30151134 0.90453403
vn -0.30151134 -0.30151134 0.90453403
vn 0.30151134 -0.30151134 0.90453403
vn 0.00949741 -0.70712022 0.70702956
vn 0.58511452 -0.57734561 0.56948490
vn 0.30554909 -0.90454441 0.29738724
vn 0.00949777 -0.70709335 0.70705643
vn 0.00945596 -0.70710660 0.70704373
vn 0.00945595 -0.70710696 0.70704337
vn 0.00945595 -0.70710696 0.70704337
vn 0.00945596 -0.70710660 0.70704373
vn -0.29745687 -0.90450967 0.30558413
vn -0.56951213 -0.57736121 0.58507262
vn 0.00000000 -0.00000000 0.00000000
vn 0.00000000 -0.00000000 0.00000000
vn 0.00000000 0.00000000 0.00000000
vn 0.00000000 0.00000000 0.00000000
vn 0.00000000 0.00000000 0.00000000
vn 0.00000000 -0.00000000 0.00000000
vn 0.00000000 0.00000000 0.00000000
f 1//1 2//2 3//3
f 2//2 1//1 4//4
f 5//5 3//3 6//6
f 3//3 5//5 1//1
f 7//7 6//6 8//8
f 6//6 7//7 5//5
f 9//9 7//7 8//8
f 7//7 9//9 10//10
f 11//11 10//10 9//9
f 10//10 11//11 12//12
f 13//13 12//12 11//11
f 12//12 13//13 14//14
f 15//15 14//14 13//13
f 14//14 15//15 16//16
f 17//17 16//16 15//15
f 16//16 17//17 18//18
f 19//19 18//18 17//17
f 18//18 19//19 20//20
f 21//21 19//19 22//22
f 19//19 21//21 20//20
f 23//23 22//22 24//24
f 22//22 23//23 21//21
f 25//25 24//24 26//26
f 24//24 25//25 23//23
f 27//27 26//26 28//28
f 26//26 27//27 25//25
f 29//29 28//28 30//30
f 28//28 29//29 27//27
f 31//31 30//30 32//32
f 30//30 31//31 29//29
f 33//33 32//32 34//34
f 32//32 33//33 31//31
f 33//33 35//35 36//36
f 35//35 33//33 34//34
f 36//36 37//37 38//38
f 37//37 36//36 35//35
f 38//38 39//39 40//40
f 39//39 38//38 37//37
f 40//40 41//41 42//42
f 41//41 40//40 39//39
f 42//42 43//43 44//44
f 43//43 42//42 41//41
f 44//44 45//45 46//46
f 45//45 44//44 43//43
f 47//47 45//45 48//48
f 45//45 47//47 46//46
f 49//49 48//48 50//50
f 48//48 49//49 47//47
f 51//51 50//50 52//52
f 50//50 51//51 49//49
f 4//4 52//52 2//2
f 52//52 4//4 51//51
f 11//11 15//15 13//13
f 9//9 15//15 11//11
f 9//9 17//17 15//15
f 8//8 17//17 9//9
f 8//8 19//19 17//17
f 6//6 19//19 8//8
f 6//6 22//22 19//19
f 3//3 22//22 6//6
f 3//3 24//24 22//22
f 2//2 24//24 3//3
f 2//2 26//26 24//24
f 52//52 26//26 2//2
f 52//52 28//28 26//26
f 50//50 28//28 52//52
f 50//50 30//30 28//28
f 48//48 30//30 50//50
f 48//48 32//32 30//30
f 45//45 32//32 48//48
f 45//45 34//34 32//32
f 43//43 34//34 45//45
f 43//43 35//35 34//34
f 41//41 35//35 43//43
f 41//41 37//37 35//35
f 37//37 41//41 39//39
f 53//53 54//54 55//55
f 54//54 56//56 57//57
f 54//54 58//58 56//56
f 53//53 58//58 54//54
f 53//53 59//59 58//58
f 53//53 60//60 59//59
f 61//61 60//60 53//53
f 62//62 60//60 61//61
f 60//60 62//62 63//63
f 59//59 60//60 64//64
f 61//61 63//63 62//62
f 65//65 63//63 61//61
f 63//63 65//65 66//66
f 67//67 68//68 69//69
f 67//67 70//70 68//68
f 71//71 70//70 67//67
f 71//71 72//72 70//70
f 73//73 72//72 71//71
f 73//73 74//74 72//72
f 75//75 74//74 73//73
f 75//75 76//76 74//74
f 77//77 76//76 75//75
f 77//77 78//78 76//76
f 79//79 78//78 77//77
f 79//79 80//80 78//78
f 81//81 80//80 79//79
f 81//81 82//82 80//80
f 83//83 82//82 81//81
f 83//83 84//84 82//82
f 85//85 84//84 83//83
f 85//85 86//86 84//84
f 87//87 86//86 85//85
f 87//87 88//88 86//86
f 89//89 88//88 87//87
f 89//89 90//90 88//88
f 91//91 90//90 89//89
f 91//91 92//92 90//90
f 91//91 93//93 92//92
f 91//91 94//94 93//93
f 94//94 95//95 96//96
f 95//95 94//94 91//91
f 97//97 92//92 93//93
f 96//96 92//92 97//97
f 96//96 98//98 92//92
f 95//95 98//98 96//96
f 99//99 98//98 95//95
f 99//99 100//100 98//98
f 101//101 100//100 99//99
f 102//102 100//100 101//101
f 102//102 103//103 100//100
f 104//104 103//103 102//102
f 105//105 103//103 104//104
f 105//105 106//106 103//103
f 107//107 106//106 105//105
f 108//108 106//106 107//107
f 109//109 106//106 108//108
f 109//109 110//110 106//106
f 111//111 110//110 109//109
f 112//112 110//110 111//111
f 113//113 110//110 112//112
f 65//65 110//110 113//113
f 65//65 114//114 110//110
f 65//65 115//115 114//114
f 61//61 115//115 65//65
f 61//61 116//116 115//115
f 61//61 117//117 116//116
f 61//61 118//118 117//117
f 61//61 119//119 118//118
f 61//61 120//120 119//119
f 120//120 61//61 53//53
f 121//121 92//92 98//98
f 92//92 121//121 122//122
f 123//123 124//124 125//125
f 124//124 123//123 126//126
f 124//124 127//127 128//128
f 127//127 124//124 126//126
f 129//129 124//124 128//128
f 124//124 129//129 125//125
f 123//123 129//129 130//130
f 129//129 123//123 125//125
f 127//127 129//129 128//128
f 129//129 127//127 130//130
f 131//131 132//132 133//133
f 132//132 131//131 134//134
f 135//135 136//136 137//137
f 138//138 136//136 135//135
f 138//138 139//139 136//136
f 138//138 140//140 139//139
f 138//138 141//141 140//140
f 138//138 142//142 141//141
f 143//143 142//142 138//138
f 143//143 144//144 142//142
f 145//145 144//144 143//143
f 145//145 146//146 144//144
f 145//145 147//147 146//146
f 148//148 147//147 145//145
f 148//148 149//149 147//147
f 150//150 149//149 148//148
f 149//149 150//150 151//151
f 152//152 139//139 140//140
f 152//152 153//153 139//139
f 154//154 153//153 152//152
f 155//155 153//153 154//154
f 155//155 156//156 153//153
f 157//157 156//156 155//155
f 157//157 158//158 156//156
f 159//159 158//158 157//157
f 159//159 160//160 158//158
f 159//159 161//161 160//160
f 162//162 161//161 159//159
f 161//161 162//162 163//163
f 133//133 151//151 150//150
f 151//151 133//133 132//132
f 129//129 97//97 96//96
f 97//97 129//129 128//128
f 94//94 129//129 96//96
f 129//129 94//94 125//125
f 124//124 97//97 128//128
f 97//97 124//124 93//93
f 124//124 94//94 93//93
f 94//94 124//124 125//125
f 164//164 165//165 166//166
f 167//167 168//168 166//166
f 164//164 166//166 168//168
f 169//169 165//165 164//164
f 165//165 170//170 166//166
f 165//165 171//171 170//170
f 171//171 167//167 172//172
f 171//171 169//169 167//167
f 169//169 171//171 165//165
f 173//173 166//166 170//170
f 172//172 166//166 173//173
f 166//166 172//172 167//167
f 167//167 174//174 168//168
f 175//175 164//164 168//168
f 169//169 164//164 176//176
f 169//169 174//174 167//167
f 168//168 174//174 177//177
f 175//175 168//168 177//177
f 164//164 175//175 176//176
f 176//176 174//174 169//169
f 174//174 178//178 177//177
f 179//179 175//175 177//177
f 176//176 175//175 180//180
f 176//176 178//178 174//174
f 177//177 178//178 181//181
f 179//179 177//177 181//181
f 175//175 179//179 180//180
f 180//180 178//178 176//176
f 178//178 182//182 181//181
f 183//183 179//179 181//181
f 180//180 179//179 184//184
f 180//180 182//182 178//178
f 185//185 96//96 94//94
f 97//97 96//96 186//186
f 97//97 187//187 93//93
f 93//93 188//188 94//94
f 181//181 182//182 189//189
f 183//183 181//181 189//189
f 179//179 183//183 184//184
f 184//184 182//182 180//180
f 188//188 185//185 94//94
f 186//186 96//96 185//185
f 97//97 186//186 187//187
f 93//93 187//187 188//188
f 182//182 190//190 189//189
f 191//191 183//183 189//189
f 184//184 183//183 192//192
f 184//184 190//190 182//182
f 188//188 193//193 185//185
f 188//188 194//194 195//195
f 193//193 186//186 185//185
f 187//187 186//186 196//196
f 188//188 187//187 194//194
f 191//191 189//189 197//197
f 189//189 190//190 197//197
f 183//183 191//191 192//192
f 192//192 190//190 184//184
f 188//188 195//195 193//193
f 195//195 194//194 198//198
f 196//196 186//186 193//193
f 187//187 196//196 194//194
f 199//199 191//191 197//197
f 190//190 200//200 197//197
f 192//192 191//191 201//201
f 192//192 200//200 190//190
f 195//195 198//198 202//202
f 203//203 193//193 195//195
f 194//194 204//204 198//198
f 203//203 196//196 193//193
f 194//194 196//196 204//204
f 199//199 197//197 205//205
f 206//206 205//205 207//207
f 191//191 199//199 201//201
f 200//200 205//205 197//197
f 205//205 200//200 208//208
f 201//201 200//200 192//192
f 202//202 198//198 209//209
f 202//202 203//203 195//195
f 198//198 204//204 210//210
f 204//204 196//196 203//203
f 209//209 206//206 207//207
f 206//206 199//199 205//205
f 205//205 208//208 207//207
f 201//201 199//199 211//211
f 201//201 208//208 200//200
f 209//209 207//207 212//212
f 202//202 209//209 212//212
f 198//198 210//210 209//209
f 213//213 203//203 202//202
f 210//210 204//204 203//203
f 209//209 214//214 206//206
f 199//199 206//206 211//211
f 208//208 215//215 207//207
f 211//211 208//208 201//201
f 207//207 215//215 212//212
f 212//212 213//213 202//202
f 209//209 210//210 214//214
f 210//210 203//203 213//213
f 211//211 206//206 214//214
f 211//211 215//215 208//208
f 215//215 213//213 212//212
f 210//210 213//213 214//214
f 214//214 215//215 211//211
f 214//214 213//213 215//215
f 216//216 217//217 218//218
f 216//216 219//219 217//217
f 220//220 219//219 216//216
f 220//220 221//221 219//219
f 222//222 221//221 220//220
f 222//222 223//223 221//221
f 224//224 223//223 222//222
f 224//224 225//225 223//223
f 226//226 225//225 224//224
f 226//226 227//227 225//225
f 228//228 227//227 226//226
f 228//228 229//229 227//227
f 230//230 229//229 228//228
f 230//230 231//231 229//229
f 232//232 231//231 230//230
f 232//232 233//233 231//231
f 234//234 233//233 232//232
f 234//234 235//235 233//233
f 236//236 235//235 234//234
f 236//236 237//237 235//235
f 238//238 237//237 236//236
f 238//238 239//239 237//237
f 240//240 239//239 238//238
f 240//240 241//241 239//239
f 242//242 241//241 240//240
f 242//242 243//243 241//241
f 244//244 243//243 242//242
f 244//244 245//245 243//243
f 246//246 245//245 244//244
f 246//246 247//247 245//245
f 248//248 247//247 246//246
f 248//248 249//249 247//247
f 250//250 249//249 248//248
f 250//250 251//251 249//249
f 250//250 252//252 251//251
f 253//253 252//252 250//250
f 254//254 252//252 253//253
f 254//254 255//255 252//252
f 256//256 255//255 254//254
f 256//256 257//257 255//255
f 258//258 257//257 256//256
f 258//258 259//259 257//257
f 260//260 259//259 258//258
f 260//260 261//261 259//259
f 262//262 261//261 260//260
f 262//262 263//263 261//261
f 264//264 263//263 262//262
f 264//264 265//265 263//263
f 266//266 265//265 264//264
f 265//265 266//266 267//267
f 268//268 269//269 270//270
f 269//269 268//268 271//271
f 270//270 272//272 273//273
f 272//272 270//270 269//269
f 273//273 274//274 275//275
f 274//274 273//273 272//272
f 275//275 276//276 277//277
f 276//276 275//275 274//274
f 277//277 278//278 279//279
f 278//278 277//277 276//276
f 279//279 280//280 281//281
f 280//280 279//279 278//278
f 281//281 282//282 283//283
f 282//282 281//281 280//280
f 282//282 284//284 283//283
f 284//284 282//282 285//285
f 285//285 286//286 284//284
f 286//286 285//285 287//287
f 287//287 288//288 286//286
f 288//288 287//287 289//289
f 289//289 290//290 288//288
f 290//290 289//289 291//291
f 291//291 292//292 290//290
f 292//292 291//291 293//293
f 293//293 294//294 292//292
f 294//294 293//293 295//295
f 296//296 172//172 173//173
f 172//172 296//296 297//297
f 172//172 298//298 171//171
f 298//298 172//172 297//297
f 298//298 170//170 171//171
f 170//170 298//298 299//299
f 296//296 170//170 299//299
f 170//170 296//296 173//173
f 298//298 296//296 299//299
f 296//296 298//298 297//297
f 113//113 300//300 65//65
f 66//66 65//65 300//300
f 300//300 65//65 66//66
f 65//65 300//300 113//113
f 112//112 301//301 113//113
f 300//300 113//113 301//301
f 301//301 113//113 300//300
f 113//113 301//301 112//112
f 111//111 302//302 112//112
f 301//301 112//112 302//302
f 302//302 112//112 301//301
f 112//112 302//302 111//111
f 109//109 303//303 111//111
f 302//302 111//111 303//303
f 303//303 111//111 302//302
f 111//111 303//303 109//109
f 108//108 304//304 109//109
f 303//303 109//109 304//304
f 304//304 109//109 303//303
f 109//109 304//304 108//108
f 107//107 305//305 108//108
f 304//304 108//108 305//305
f 305//305 108//108 304//304
f 108//108 305//305 107//107
f 306//306 305//305 105//105
f 107//107 105//105 305//305
f 305//305 105//105 107//107
f 105//105 305//305 306//306
f 307//307 308//308 95//95
f 99//99 95//95 308//308
f 308//308 95//95 99//99
f 95//95 308//308 307//307
f 306//306 309//309 105//105
f 104//104 105//105 309//309
f 309//309 105//105 104//104
f 105//105 309//309 306//306
f 308//308 310//310 99//99
f 101//101 99//99 310//310
f 310//310 99//99 101//101
f 99//99 310//310 308//308
f 309//309 311//311 104//104
f 102//102 104//104 311//311
f 311//311 104//104 102//102
f 104//104 311//311 309//309
f 311//311 310//310 102//102
f 101//101 102//102 310//310
f 310//310 102//102 101//101
f 102//102 310//310 311//311
f 53//53 55//55 120//120
f 312//312 120//120 55//55
f 55//55 120//120 312//312
f 120//120 55//55 53//53
f 120//120 312//312 119//119
f 313//313 119//119 312//312
f 312//312 119//119 313//313
f 119//119 312//312 120//120
f 119//119 313//313 118//118
f 314//314 118//118 313//313
f 313//313 118//118 314//314
f 118//118 313//313 119//119
f 118//118 314//314 117//117
f 315//315 117//117 314//314
f 314//314 117//117 315//315
f 117//117 314//314 118//118
f 316//316 121//121 100//100
f 98//98 100//100 121//121
f 121//121 100//100 98//98
f 100//100 121//121 316//316
f 117//117 315//315 116//116
f 317//317 116//116 315//315
f 315//315 116//116 317//317
f 116//116 315//315 117//117
f 316//316 100//100 318//318
f 103//103 318//318 100//100
f 100//100 318//318 103//103
f 318//318 100//100 316//316
f 116//116 317//317 115//115
f 319//319 115//115 317//317
f 317//317 115//115 319//319
f 115//115 317//317 116//116
f 318//318 320//320 103//103
f 106//106 103//103 320//320
f 320//320 103//103 106//106
f 103//103 320//320 318//318
f 319//319 321//321 115//115
f 114//114 115//115 321//321
f 321//321 115//115 114//114
f 115//115 321//321 319//319
f 320//320 322//322 106//106
f 110//110 106//106 322//322
f 322//322 106//106 110//110
f 106//106 322//322 320//320
f 322//322 321//321 110//110
f 114//114 110//110 321//321
f 321//321 110//110 114//114
f 110//110 321//321 322//322
f 64//64 60//60 59//59
f 63//63 62//62 60//60
f 61//61 60//60 62//62
f 53//53 60//60 61//61
f 59//59 60//60 53//53
f 58//58 59//59 53//53
f 54//54 58//58 53//53
f 56//56 58//58 54//54
f 57//57 56//56 54//54
f 55//55 54//54 53//53
f 66//66 65//65 63//63
f 61//61 63//63 65//65
f 62//62 63//63 61//61
f 53//53 61//61 120//120
f 119//119 120//120 61//61
f 118//118 119//119 61//61
f 117//117 118//118 61//61
f 116//116 117//117 61//61
f 115//115 116//116 61//61
f 65//65 115//115 61//61
f 114//114 115//115 65//65
f 110//110 114//114 65//65
f 113//113 110//110 65//65
f 112//112 110//110 113//113
f 111//111 110//110 112//112
f 109//109 110//110 111//111
f 106//106 110//110 109//109
f 108//108 106//106 109//109
f 107//107 106//106 108//108
f 105//105 106//106 107//107
f 103//103 106//106 105//105
f 104//104 103//103 105//105
f 102//102 103//103 104//104
f 100//100 103//103 102//102
f 101//101 100//100 102//102
f 99//99 100//100 101//101
f 98//98 100//100 99//99
f 95//95 98//98 99//99
f 96//96 98//98 95//95
f 92//92 98//98 96//96
f 97//97 92//92 96//96
f 93//93 92//92 97//97
f 91//91 94//94 95//95
f 96//96 95//95 94//94
f 93//93 94//94 91//91
f 92//92 93//93 91//91
f 90//90 92//92 91//91
f 89//89 90//90 91//91
f 88//88 90//90 89//89
f 87//87 88//88 89//89
f 86//86 88//88 87//87
f 85//85 86//86 87//87
f 84//84 86//86 85//85
f 83//83 84//84 85//85
f 82//82 84//84 83//83
f 81//81 82//82 83//83
f 80//80 82//82 81//81
f 79//79 80//80 81//81
f 78//78 80//80 79//79
f 77//77 78//78 79//79
f 76//76 78//78 77//77
f 75//75 76//76 77//77
f 74//74 76//76 75//75
f 73//73 74//74 75//75
f 72//72 74//74 73//73
f 71//71 72//72 73//73
f 70//70 72//72 71//71
f 67//67 70//70 71//71
f 68//68 70//70 67//67
f 69//69 68//68 67//67
f 122//122 121//121 92//92
f 98//98 92//92 121//121
f 323//323 68//68 324//324
f 70//70 324//324 68//68
f 68//68 324//324 70//70
f 324//324 68//68 323//323
f 122//122 325//325 92//92
f 90//90 92//92 325//325
f 325//325 92//92 90//90
f 92//92 325//325 122//122
f 324//324 70//70 326//326
f 72//72 326//326 70//70
f 70//70 326//326 72//72
f 326//326 70//70 324//324
f 325//325 327//327 90//90
f 88//88 90//90 327//327
f 327//327 90//90 88//88
f 90//90 327//327 325//325
f 326//326 72//72 328//328
f 74//74 328//328 72//72
f 72//72 328//328 74//74
f 328//328 72//72 326//326
f 327//327 329//329 88//88
f 86//86 88//88 329//329
f 329//329 88//88 86//86
f 88//88 329//329 327//327
f 328//328 74//74 330//330
f 76//76 330//330 74//74
f 74//74 330//330 76//76
f 330//330 74//74 328//328
f 329//329 331//331 86//86
f 84//84 86//86 331//331
f 331//331 86//86 84//84
f 86//86 331//331 329//329
f 330//330 76//76 332//332
f 78//78 332//332 76//76
f 76//76 332//332 78//78
f 332//332 76//76 330//330
f 331//331 333//333 84//84
f 82//82 84//84 333//333
f 333//333 84//84 82//82
f 84//84 333//333 331//331
f 332//332 78//78 334//334
f 80//80 334//334 78//78
f 78//78 334//334 80//80
f 334//334 78//78 332//332
f 334//334 333//333 80//80
f 82//82 80//80 333//333
f 333//333 80//80 82//82
f 80//80 333//333 334//334
f 335//335 61//61 160//160
f 161//161 160//160 61//61
f 336//336 335//335 158//158
f 160//160 158//158 335//335
f 337//337 336//336 156//156
f 158//158 156//156 336//336
f 153//153 338//338 156//156
f 337//337 156//156 338//338
f 139//139 339//339 153//153
f 338//338 153//153 339//339
f 136//136 340//340 139//139
f 339//339 139//139 340//340
f 137//137 341//341 136//136
f 340//340 136//136 341//341
f 135//135 342//342 137//137
f 341//341 137//137 342//342
f 138//138 343//343 135//135
f 342//342 135//135 343//343
f 143//143 344//344 138//138
f 343//343 138//138 344//344
f 145//145 345//345 143//143
f 344//344 143//143 345//345
f 346//346 345//345 148//148
f 145//145 148//148 345//345
f 347//347 346//346 150//150
f 148//148 150//150 346//346
f 131//131 347//347 133//133
f 150//150 133//133 347//347
f 348//348 134//134 151//151
f 132//132 151//151 134//134
f 349//349 348//348 149//149
f 151//151 149//149 348//348
f 350//350 349//349 147//147
f 149//149 147//147 349//349
f 350//350 147//147 351//351
f 146//146 351//351 147//147
f 351//351 146//146 352//352
f 144//144 352//352 146//146
f 352//352 144//144 353//353
f 142//142 353//353 144//144
f 353//353 142//142 354//354
f 141//141 354//354 142//142
f 354//354 141//141 355//355
f 140//140 355//355 141//141
f 355//355 140//140 356//356
f 152//152 356//356 140//140
f 356//356 152//152 357//357
f 154//154 357//357 152//152
f 357//357 154//154 358//358
f 155//155 358//358 154//154
f 358//358 155//155 359//359
f 157//157 359//359 155//155
f 360//360 359//359 159//159
f 157//157 159//159 359//359
f 361//361 360//360 162//162
f 159//159 162//162 360//360
f 134//134 348//348 131//131
f 347//347 131//131 348//348
f 349//349 347//347 348//348
f 346//346 347//347 349//349
f 350//350 346//346 349//349
f 345//345 346//346 350//350
f 351//351 345//345 350//350
f 352//352 345//345 351//351
f 344//344 345//345 352//352
f 353//353 344//344 352//352
f 343//343 344//344 353//353
f 354//354 343//343 353//353
f 355//355 343//343 354//354
f 361//361 62//62 360//360
f 61//61 360//360 62//62
f 335//335 360//360 61//61
f 336//336 360//360 335//335
f 359//359 360//360 336//336
f 337//337 359//359 336//336
f 358//358 359//359 337//337
f 338//338 358//358 337//337
f 357//357 358//358 338//338
f 356//356 357//357 338//338
f 339//339 356//356 338//338
f 355//355 356//356 339//339
f 343//343 355//355 339//339
f 342//342 343//343 339//339
f 340//340 342//342 339//339
f 341//341 342//342 340//340
f 163//163 162//162 161//161
f 159//159 161//161 162//162
f 160//160 161//161 159//159
f 158//158 160//160 159//159
f 157//157 158//158 159//159
f 156//156 158//158 157//157
f 155//155 156//156 157//157
f 153//153 156//156 155//155
f 154//154 153//153 155//155
f 152//152 153//153 154//154
f 139//139 153//153 152//152
f 140//140 139//139 152//152
f 151//151 150//150 149//149
f 148//148 149//149 150//150
f 147//147 149//149 148//148
f 145//145 147//147 148//148
f 146//146 147//147 145//145
f 144//144 146//146 145//145
f 143//143 144//144 145//145
f 142//142 144//144 143//143
f 138//138 142//142 143//143
f 141//141 142//142 138//138
f 140//140 141//141 138//138
f 139//139 140//140 138//138
f 136//136 139//139 138//138
f 135//135 136//136 138//138
f 137//137 136//136 135//135
f 132//132 133//133 151//151
f 150//150 151//151 133//133
f 263//263 362//362 261//261
f 362//362 263//263 363//363
f 261//261 364//364 259//259
f 364//364 261//261 362//362
f 259//259 365//365 257//257
f 365//365 259//259 364//364
f 257//257 366//366 255//255
f 366//366 257//257 365//365
f 252//252 366//366 367//367
f 366//366 252//252 255//255
f 251//251 367//367 368//368
f 367//367 251//251 252//252
f 249//249 368//368 369//369
f 368//368 249//249 251//251
f 247//247 369//369 370//370
f 369//369 247//247 249//249
f 245//245 370//370 371//371
f 370//370 245//245 247//247
f 243//243 371//371 372//372
f 371//371 243//243 245//245
f 241//241 372//372 373//373
f 372//372 241//241 243//243
f 239//239 373//373 374//374
f 373//373 239//239 241//241
f 237//237 374//374 375//375
f 374//374 237//237 239//239
f 235//235 375//375 376//376
f 375//375 235//235 237//237
f 233//233 376//376 377//377
f 376//376 233//233 235//235
f 231//231 377//377 378//378
f 377//377 231//231 233//233
f 229//229 378//378 379//379
f 378//378 229//229 231//231
f 380//380 229//229 379//379
f 229//229 380//380 227//227
f 381//381 227//227 380//380
f 227//227 381//381 225//225
f 382//382 225//225 381//381
f 225//225 382//382 223//223
f 383//383 223//223 382//382
f 223//223 383//383 221//221
f 384//384 221//221 383//383
f 221//221 384//384 219//219
f 385//385 219//219 384//384
f 219//219 385//385 217//217
f 386//386 217//217 385//385
f 217//217 386//386 218//218
f 387//387 218//218 386//386
f 218//218 387//387 216//216
f 388//388 216//216 387//387
f 216//216 388//388 220//220
f 389//389 220//220 388//388
f 220//220 389//389 222//222
f 390//390 222//222 389//389
f 222//222 390//390 224//224
f 391//391 224//224 390//390
f 224//224 391//391 226//226
f 392//392 226//226 391//391
f 226//226 392//392 228//228
f 230//230 392//392 393//393
f 392//392 230//230 228//228
f 232//232 393//393 394//394
f 393//393 232//232 230//230
f 234//234 394//394 395//395
f 394//394 234//234 232//232
f 236//236 395//395 396//396
f 395//395 236//236 234//234
f 238//238 396//396 397//397
f 396//396 238//238 236//236
f 240//240 397//397 398//398
f 397//397 240//240 238//238
f 242//242 398//398 399//399
f 398//398 242//242 240//240
f 244//244 399//399 400//400
f 399//399 244//244 242//242
f 246//246 400//400 401//401
f 400//400 246//246 244//244
f 248//248 401//401 402//402
f 401//401 248//248 246//246
f 250//250 402//402 403//403
f 402//402 250//250 248//248
f 253//253 403//403 404//404
f 403//403 253//253 250//250
f 254//254 404//404 405//405
f 404//404 254//254 253//253
f 254//254 406//406 256//256
f 406//406 254//254 405//405
f 256//256 407//407 258//258
f 407//407 256//256 406//406
f 258//258 408//408 260//260
f 408//408 258//258 407//407
f 260//260 409//409 262//262
f 409//409 260//260 408//408
f 262//262 410//410 264//264
f 410//410 262//262 409//409
f 265//265 363//363 263//263
f 363//363 265//265 411//411
f 384//384 386//386 385//385
f 384//384 387//387 386//386
f 383//383 387//387 384//384
f 383//383 388//388 387//387
f 382//382 388//388 383//383
f 382//382 389//389 388//388
f 381//381 389//389 382//382
f 381//381 390//390 389//389
f 380//380 390//390 381//381
f 380//380 391//391 390//390
f 379//379 391//391 380//380
f 379//379 392//392 391//391
f 378//378 392//392 379//379
f 378//378 393//393 392//392
f 377//377 393//393 378//378
f 377//377 394//394 393//393
f 376//376 394//394 377//377
f 376//376 395//395 394//394
f 375//375 395//395 376//376
f 375//375 396//396 395//395
f 374//374 396//396 375//375
f 374//374 397//397 396//396
f 373//373 397//397 374//374
f 373//373 398//398 397//397
f 373//373 412//412 398//398
f 373//373 413//413 412//412
f 373//373 414//414 413//413
f 373//373 415//415 414//414
f 373//373 416//416 415//415
f 373//373 417//417 416//416
f 373//373 418//418 417//417
f 373//373 419//419 418//418
f 373//373 420//420 419//419
f 373//373 421//421 420//420
f 373//373 422//422 421//421
f 373//373 423//423 422//422
f 373//373 424//424 423//423
f 373//373 294//294 424//424
f 270//270 372//372 268//268
f 273//273 372//372 270//270
f 275//275 372//372 273//273
f 277//277 372//372 275//275
f 279//279 372//372 277//277
f 281//281 372//372 279//279
f 283//283 372//372 281//281
f 284//284 372//372 283//283
f 286//286 372//372 284//284
f 288//288 372//372 286//286
f 290//290 372//372 288//288
f 292//292 372//372 290//290
f 294//294 372//372 292//292
f 372//372 294//294 373//373
f 425//425 398//398 412//412
f 426//426 398//398 425//425
f 427//427 398//398 426//426
f 428//428 398//398 427//427
f 429//429 398//398 428//428
f 430//430 398//398 429//429
f 431//431 398//398 430//430
f 432//432 398//398 431//431
f 433//433 398//398 432//432
f 434//434 398//398 433//433
f 435//435 398//398 434//434
f 436//436 398//398 435//435
f 437//437 398//398 436//436
f 438//438 398//398 437//437
f 372//372 439//439 268//268
f 438//438 399//399 398//398
f 440//440 399//399 438//438
f 441//441 399//399 440//440
f 442//442 399//399 441//441
f 443//443 399//399 442//442
f 444//444 399//399 443//443
f 445//445 399//399 444//444
f 446//446 399//399 445//445
f 447//447 399//399 446//446
f 448//448 399//399 447//447
f 449//449 399//399 448//448
f 439//439 399//399 449//449
f 372//372 399//399 439//439
f 371//371 399//399 372//372
f 371//371 400//400 399//399
f 370//370 400//400 371//371
f 370//370 401//401 400//400
f 369//369 401//401 370//370
f 369//369 402//402 401//401
f 368//368 402//402 369//369
f 368//368 403//403 402//402
f 367//367 403//403 368//368
f 367//367 404//404 403//403
f 366//366 404//404 367//367
f 366//366 405//405 404//404
f 365//365 405//405 366//366
f 365//365 406//406 405//405
f 364//364 406//406 365//365
f 364//364 407//407 406//406
f 362//362 407//407 364//364
f 362//362 408//408 407//407
f 363//363 408//408 362//362
f 363//363 409//409 408//408
f 411//411 409//409 363//363
f 411//411 410//410 409//409
f 450//450 410//410 411//411
f 410//410 450//450 451//451
f 264//264 451//451 266//266
f 451//451 264//264 410//410
f 267//267 411//411 265//265
f 411//411 267//267 450//450
f 266//266 450//450 267//267
f 450//450 266//266 451//451
f 307//307 91//91 95//95
f 91//91 307//307 452//452
f 452//452 89//89 91//91
f 89//89 452//452 453//453
f 453//453 87//87 89//89
f 87//87 453//453 454//454
f 454//454 85//85 87//87
f 85//85 454//454 455//455
f 455//455 83//83 85//85
f 83//83 455//455 456//456
f 456//456 81//81 83//83
f 81//81 456//456 457//457
f 457//457 79//79 81//81
f 79//79 457//457 458//458
f 79//79 459//459 77//77
f 459//459 79//79 458//458
f 77//77 460//460 75//75
f 460//460 77//77 459//459
f 75//75 461//461 73//73
f 461//461 75//75 460//460
f 73//73 462//462 71//71
f 462//462 73//73 461//461
f 71//71 463//463 67//67
f 463//463 71//71 462//462
f 67//67 464//464 69//69
f 464//464 67//67 463//463
f 68//68 14//14 323//323
f 68//68 12//12 14//14
f 68//68 10//10 12//12
f 68//68 7//7 10//10
f 68//68 5//5 7//7
f 68//68 1//1 5//5
f 68//68 4//4 1//1
f 68//68 51//51 4//4
f 42//42 69//69 40//40
f 44//44 69//69 42//42
f 46//46 69//69 44//44
f 47//47 69//69 46//46
f 49//49 69//69 47//47
f 51//51 69//69 49//49
f 69//69 51//51 68//68
f 16//16 323//323 14//14
f 18//18 323//323 16//16
f 20//20 323//323 18//18
f 21//21 323//323 20//20
f 23//23 323//323 21//21
f 25//25 323//323 23//23
f 27//27 323//323 25//25
f 69//69 38//38 40//40
f 69//69 36//36 38//38
f 69//69 33//33 36//36
f 69//69 31//31 33//33
f 69//69 29//29 31//31
f 69//69 27//27 29//29
f 69//69 323//323 27//27
f 323//323 69//69 464//464
f 465//465 440//440 438//438
f 440//440 465//465 466//466
f 466//466 441//441 440//440
f 441//441 466//466 467//467
f 467//467 442//442 441//441
f 442//442 467//467 468//468
f 468//468 443//443 442//442
f 443//443 468//468 469//469
f 469//469 444//444 443//443
f 444//444 469//469 470//470
f 470//470 445//445 444//444
f 445//445 470//470 471//471
f 445//445 472//472 446//446
f 472//472 445//445 471//471
f 446//446 473//473 447//447
f 473//473 446//446 472//472
f 447//447 474//474 448//448
f 474//474 447//447 473//473
f 448//448 475//475 449//449
f 475//475 448//448 474//474
f 449//449 476//476 439//439
f 476//476 449//449 475//475
f 439//439 271//271 268//268
f 271//271 439//439 476//476
f 295//295 424//424 294//294
f 424//424 295//295 477//477
f 477//477 423//423 424//424
f 423//423 477//477 478//478
f 478//478 422//422 423//423
f 422//422 478//478 479//479
f 479//479 421//421 422//422
f 421//421 479//479 480//480
f 480//480 420//420 421//421
f 420//420 480//480 481//481
f 481//481 419//419 420//420
f 419//419 481//481 482//482
f 482//482 418//418 419//419
f 418//418 482//482 483//483
f 484//484 418//418 483//483
f 418//418 484//484 417//417
f 485//485 417//417 484//484
f 417//417 485//485 416//416
f 486//486 416//416 485//485
f 416//416 486//486 415//415
f 487//487 415//415 486//486
f 415//415 487//487 414//414
f 488//488 414//414 487//487
f 414//414 488//488 413//413
f 489//489 413//413 488//488
f 413//413 489//489 412//412
f 490//490 412//412 489//489
f 412//412 490//490 425//425
f 491//491 425//425 490//490
f 425//425 491//491 426//426
f 492//492 426//426 491//491
f 426//426 492//492 427//427
f 493//493 427//427 492//492
f 427//427 493//493 428//428
f 494//494 428//428 493//493
f 428//428 494//494 429//429
f 495//495 429//429 494//494
f 429//429 495//495 430//430
f 496//496 430//430 495//495
f 430//430 496//496 431//431
f 496//496 432//432 431//431
f 432//432 496//496 497//497
f 497//497 433//433 432//432
f 433//433 497//497 498//498
f 498//498 434//434 433//433
f 434//434 498//498 499//499
f 499//499 435//435 434//434
f 435//435 499//499 500//500
f 500//500 436//436 435//435
f 436//436 500//500 501//501
f 501//501 437//437 436//436
f 437//437 501//501 502//502
f 502//502 438//438 437//437
f 438//438 502//502 465//465
f 488//488 490//490 489//489
f 488//488 491//491 490//490
f 488//488 492//492 491//491
f 487//487 492//492 488//488
f 486//486 492//492 487//487
f 486//486 493//493 492//492
f 485//485 493//493 486//486
f 485//485 494//494 493//493
f 484//484 494//494 485//485
f 484//484 495//495 494//494
f 483//483 495//495 484//484
f 483//483 496//496 495//495
f 482//482 496//496 483//483
f 482//482 497//497 496//496
f 481//481 497//497 482//482
f 481//481 498//498 497//497
f 480//480 498//498 481//481
f 480//480 499//499 498//498
f 479//479 499//499 480//480
f 479//479 500//500 499//499
f 478//478 500//500 479//479
f 478//478 501//501 500//500
f 477//477 501//501 478//478
f 477//477 502//502 501//501
f 477//477 503//503 502//502
f 477//477 504//504 503//503
f 504//504 295//295 505//505
f 295//295 504//504 477//477
f 506//506 502//502 503//503
f 505//505 502//502 506//506
f 505//505 465//465 502//502
f 295//295 465//465 505//505
f 293//293 465//465 295//295
f 293//293 466//466 465//465
f 291//291 466//466 293//293
f 291//291 467//467 466//466
f 289//289 467//467 291//291
f 289//289 468//468 467//467
f 287//287 468//468 289//289
f 287//287 469//469 468//468
f 285//285 469//469 287//287
f 285//285 470//470 469//469
f 282//282 470//470 285//285
f 282//282 471//471 470//470
f 280//280 471//471 282//282
f 280//280 472//472 471//471
f 278//278 472//472 280//280
f 278//278 473//473 472//472
f 276//276 473//473 278//278
f 276//276 474//474 473//473
f 274//274 474//474 276//276
f 274//274 475//475 474//474
f 272//272 475//475 274//274
f 272//272 476//476 475//475
f 269//269 476//476 272//272
f 476//476 269//269 271//271
f 132//132 503//503 133//133
f 503//503 132//132 506//506
f 505//505 132//132 134//134
f 132//132 505//505 506//506
f 503//503 131//131 133//133
f 131//131 503//503 504//504
f 505//505 131//131 504//504
f 131//131 505//505 134//134
f 507//507 508//508 509//509
f 508//508 507//507 510//510
f 56//56 508//508 510//510
f 508//508 56//56 57//57
f 511//511 510//510 507//507
f 510//510 511//511 512//512
f 58//58 510//510 512//512
f 510//510 58//58 56//56
f 513//513 512//512 511//511
f 512//512 513//513 514//514
f 64//64 515//515 60//60
f 515//515 64//64 516//516
f 515//515 514//514 513//513
f 514//514 515//515 516//516
f 59//59 512//512 514//514
f 512//512 59//59 58//58
f 64//64 514//514 516//516
f 514//514 64//64 59//59
f 517//517 518//518 519//519
f 518//518 517//517 520//520
f 519//519 518//518 517//517
f 520//520 517//517 518//518
f 521//521 323//323 522//522
f 464//464 522//522 323//323
f 523//523 522//522 464//464
f 464//464 522//522 523//523
f 323//323 522//522 464//464
f 522//522 323//323 521//521
f 126//126 123//123 124//124
f 125//125 124//124 123//123
f 126//126 124//124 127//127
f 128//128 127//127 124//124
f 125//125 129//129 124//124
f 128//128 124//124 129//129
f 125//125 123//123 129//129
f 130//130 129//129 123//123
f 130//130 127//127 129//129
f 128//128 129//129 127//127
f 61//61 160//160 161//161
f 160//160 61//61 335//335
f 335//335 158//158 160//160
f 158//158 335//335 336//336
f 336//336 156//156 158//158
f 156//156 336//336 337//337
f 338//338 156//156 337//337
f 156//156 338//338 153//153
f 339//339 153//153 338//338
f 153//153 339//339 139//139
f 340//340 139//139 339//339
f 139//139 340//340 136//136
f 341//341 136//136 340//340
f 136//136 341//341 137//137
f 342//342 137//137 341//341
f 137//137 342//342 135//135
f 343//343 135//135 342//342
f 135//135 343//343 138//138
f 344//344 138//138 343//343
f 138//138 344//344 143//143
f 345//345 143//143 344//344
f 143//143 345//345 145//145
f 345//345 148//148 145//145
f 148//148 345//345 346//346
f 346//346 150//150 148//148
f 150//150 346//346 347//347
f 347//347 133//133 150//150
f 133//133 347//347 131//131
f 134//134 151//151 132//132
f 151//151 134//134 348//348
f 348//348 149//149 151//151
f 149//149 348//348 349//349
f 349//349 147//147 149//149
f 147//147 349//349 350//350
f 147//147 351//351 146//146
f 351//351 147//147 350//350
f 146//146 352//352 144//144
f 352//352 146//146 351//351
f 144//144 353//353 142//142
f 353//353 144//144 352//352
f 142//142 354//354 141//141
f 354//354 142//142 353//353
f 141//141 355//355 140//140
f 355//355 141//141 354//354
f 140//140 356//356 152//152
f 356//356 140//140 355//355
f 152//152 357//357 154//154
f 357//357 152//152 356//356
f 154//154 358//358 155//155
f 358//358 154//154 357//357
f 155//155 359//359 157//157
f 359//359 155//155 358//358
f 359//359 159//159 157//157
f 159//159 359//359 360//360
f 360//360 162//162 159//159
f 162//162 360//360 361//361
f 340//340 342//342 341//341
f 339//339 342//342 340//340
f 339//339 343//343 342//342
f 339//339 355//355 343//343
f 339//339 356//356 355//355
f 338//338 356//356 339//339
f 338//338 357//357 356//356
f 338//338 358//358 357//357
f 337//337 358//358 338//338
f 337//337 359//359 358//358
f 336//336 359//359 337//337
f 336//336 360//360 359//359
f 335//335 360//360 336//336
f 61//61 360//360 335//335
f 62//62 360//360 61//61
f 360//360 62//62 361//361
f 354//354 343//343 355//355
f 353//353 343//343 354//354
f 353//353 344//344 343//343
f 352//352 344//344 353//353
f 352//352 345//345 344//344
f 351//351 345//345 352//352
f 350//350 345//345 351//351
f 350//350 346//346 345//345
f 349//349 346//346 350//350
f 349//349 347//347 346//346
f 348//348 347//347 349//349
f 348//348 131//131 347//347
f 131//131 348//348 134//134
f 361//361 162//162 62//62
f 163//163 62//62 162//162
f 162//162 62//62 163//163
f 62//62 162//162 361//361
f 61//61 62//62 161//161
f 163//163 161//161 62//62
f 62//62 161//161 163//163
f 161//161 62//62 61//61
f 508//508 54//54 509//509
f 54//54 508//508 57//57
f 513//513 321//321 515//515
f 513//513 319//319 321//321
f 511//511 319//319 513//513
f 507//507 319//319 511//511
f 509//509 319//319 507//507
f 509//509 317//317 319//319
f 509//509 315//315 317//317
f 509//509 314//314 315//315
f 54//54 314//314 509//509
f 54//54 313//313 314//314
f 54//54 312//312 313//313
f 312//312 54//54 55//55
f 463//463 323//323 464//464
f 463//463 324//324 323//323
f 462//462 324//324 463//463
f 462//462 326//326 324//324
f 461//461 326//326 462//462
f 461//461 328//328 326//326
f 460//460 328//328 461//461
f 460//460 330//330 328//328
f 459//459 330//330 460//460
f 459//459 332//332 330//330
f 458//458 332//332 459//459
f 458//458 334//334 332//332
f 457//457 334//334 458//458
f 457//457 333//333 334//334
f 456//456 333//333 457//457
f 456//456 331//331 333//333
f 455//455 331//331 456//456
f 455//455 329//329 331//331
f 454//454 329//329 455//455
f 454//454 327//327 329//329
f 453//453 327//327 454//454
f 453//453 325//325 327//327
f 452//452 325//325 453//453
f 452//452 122//122 325//325
f 452//452 126//126 122//122
f 452//452 123//123 126//126
f 123//123 307//307 130//130
f 307//307 123//123 452//452
f 127//127 122//122 126//126
f 130//130 122//122 127//127
f 130//130 121//121 122//122
f 307//307 121//121 130//130
f 308//308 121//121 307//307
f 308//308 316//316 121//121
f 310//310 316//316 308//308
f 311//311 316//316 310//310
f 311//311 318//318 316//316
f 309//309 318//318 311//311
f 306//306 318//318 309//309
f 306//306 320//320 318//318
f 305//305 320//320 306//306
f 304//304 320//320 305//305
f 303//303 320//320 304//304
f 303//303 322//322 320//320
f 302//302 322//322 303//303
f 301//301 322//322 302//302
f 300//300 322//322 301//301
f 66//66 322//322 300//300
f 66//66 321//321 322//322
f 66//66 515//515 321//321
f 63//63 515//515 66//66
f 515//515 63//63 60//60