# https://github.com/mikedh/trimesh
v 0.07049700 0.09868400 0.01167600
v 0.07155500 0.06049900 0.01160600
v 0.07155500 0.09974300 0.01160600
v 0.07049700 0.06049900 0.01167600
v -0.07028200 0.09868400 0.01167600
v -0.07134000 0.09974300 0.01160600
v -0.07028200 0.06049900 0.01167600
v 0.07259500 0.06049900 0.01139900
v 0.07259500 0.10078300 0.01139900
v 0.07155500 0.05258300 0.01160600
v 0.07049700 0.05258300 0.01167600
v -0.07238000 0.10078300 0.01139900
v -0.07134000 0.06049900 0.01160600
v -0.07028200 0.05258300 0.01167600
v 0.07155500 -0.10420400 0.01160600
v 0.07049700 -0.10314600 0.01167600
v 0.07359900 0.06049900 0.01105900
v 0.07359900 0.10178600 0.01105900
v 0.07259500 0.05258300 0.01139900
v -0.07338400 0.10178600 0.01105900
v -0.07238000 0.06049900 0.01139900
v -0.07134000 0.05258300 0.01160600
v -0.07028200 -0.10314600 0.01167600
v -0.07134000 -0.10420400 0.01160600
v 0.07259500 -0.10524400 0.01139900
v 0.07455000 0.06049900 0.01059000
v 0.07455000 0.10273700 0.01059000
v 0.07359900 0.05258300 0.01105900
v -0.07433400 0.10273700 0.01059000
v -0.07338400 0.06049900 0.01105900
v -0.07238000 0.05258300 0.01139900
v -0.07238000 -0.10524400 0.01139900
v 0.07359900 -0.10624800 0.01105900
v 0.07543100 0.06049900 0.01000100
v 0.07543100 0.10361800 0.01000100
v 0.07455000 0.05258300 0.01059000
v -0.07521600 0.10361800 0.01000100
v -0.07433400 0.06049900 0.01059000
v -0.07338400 0.05258300 0.01105900
v -0.07338400 -0.10624800 0.01105900
v 0.07455000 -0.10719900 0.01059000
v 0.07622900 0.06049900 0.00930200
v 0.07622900 0.10441500 0.00930200
v 0.07543100 0.05258300 0.01000100
v -0.07601300 0.10441500 0.00930200
v -0.07521600 0.06049900 0.01000100
v -0.07433400 0.05258300 0.01059000
v -0.07433400 -0.10719900 0.01059000
v 0.07543100 -0.10808000 0.01000100
v 0.07692800 0.10511500 0.00850400
v 0.07692800 0.06049900 0.00850400
v 0.07622900 0.05258300 0.00930200
v -0.07671200 0.10511500 0.00850400
v -0.07601300 0.06049900 0.00930200
v -0.07521600 0.05258300 0.01000100
v -0.07521600 -0.10808000 0.01000100
v 0.07622900 -0.10887700 0.00930200
v 0.07751700 0.10570300 0.00762300
v 0.07751700 0.06049900 0.00762300
v 0.07692800 0.05258300 0.00850400
v -0.07730100 0.10570300 0.00762300
v -0.07671200 0.06049900 0.00850400
v -0.07601300 0.05258300 0.00930200
v -0.07601300 -0.10887700 0.00930200
v 0.07692800 -0.10957600 0.00850400
v 0.07798600 0.10617300 0.00667200
v 0.07798600 0.06049900 0.00667200
v 0.07751700 0.05258300 0.00762300
v -0.07777000 0.10617300 0.00667200
v -0.07730100 0.06049900 0.00762300
v -0.07671200 0.05258300 0.00850400
v -0.07671200 -0.10957600 0.00850400
v 0.07751700 -0.11016500 0.00762300
v 0.07832600 0.10651400 0.00566800
v 0.07832600 0.06049900 0.00566800
v 0.07798600 0.05258300 0.00667200
v 0.07853300 0.06049900 0.00462800
v 0.07860300 0.10679000 0.00357000
v 0.07853300 0.10672000 0.00462800
v 0.07860300 0.06049900 0.00357000
v 0.07860300 0.05258300 0.00357000
v 0.07860300 0.06049900 -0.02611800
v 0.07860300 0.05258300 -0.02611800
v 0.07860300 0.10679000 -0.02611800
v -0.07838700 0.10679000 0.00357000
v -0.07838700 0.10679000 -0.02611800
v -0.07831800 0.10672000 0.00462800
v -0.07838700 0.06049900 -0.02611800
v -0.07838700 0.06049900 0.00357000
v -0.07811100 0.10651400 0.00566800
v -0.07777000 0.06049900 0.00667200
v -0.07730100 0.05258300 0.00762300
v -0.07730100 -0.11016500 0.00762300
v 0.07798600 -0.11063400 0.00667200
v 0.07832600 0.05258300 0.00566800
v 0.07853300 0.05258300 0.00462800
v 0.07860300 -0.11125100 0.00357000
v 0.07860300 -0.11125100 -0.02611800
v -0.07838700 -0.11125100 -0.02611800
v -0.07838700 0.05258300 -0.02611800
v -0.07838700 0.05258300 0.00357000
v -0.07831800 0.06049900 0.00462800
v -0.07811100 0.06049900 0.00566800
v -0.07777000 0.05258300 0.00667200
v -0.07838700 -0.11125100 0.00357000
v -0.07777000 -0.11063400 0.00667200
v 0.07832600 -0.11097500 0.00566800
v 0.07853300 -0.11118200 0.00462800
v -0.07831800 0.05258300 0.00462800
v -0.07811100 0.05258300 0.00566800
v -0.07831800 -0.11118200 0.00462800
v -0.07811100 -0.11097500 0.00566800
vn 0.02478424 0.02475103 0.99938638
vn 0.13089189 0.00000000 0.99139665
vn 0.08206125 0.08206341 0.99324294
vn 0.03302713 0.00000000 0.99945446
vn -0.02478424 0.02475103 0.99938638
vn -0.08206125 0.08206341 0.99324294
vn -0.03302713 0.00000000 0.99945446
vn 0.25852725 0.00000000 0.96600397
vn 0.14773455 0.14789355 0.97790695
vn 0.13089189 0.00000000 0.99139665
vn 0.03302713 0.00000000 0.99945446
vn -0.14773455 0.14789355 0.97790695
vn -0.13089189 0.00000000 0.99139665
vn -0.03302713 0.00000000 0.99945446
vn 0.08206624 -0.08206624 0.99324230
vn 0.02477930 -0.02477930 0.99938580
vn 0.38235560 0.00000000 0.92401526
vn 0.21495441 0.21494268 0.95267741
vn 0.25852725 0.00000000 0.96600397
vn -0.21514201 0.21491526 0.95264125
vn -0.25852725 0.00000000 0.96600397
vn -0.13089189 0.00000000 0.99139665
vn -0.02477930 -0.02477930 0.99938580
vn -0.08206624 -0.08206624 0.99324230
vn 0.14775651 -0.14775651 0.97792435
vn 0.50012053 0.00000000 0.86595581
vn 0.28331424 0.28331424 0.91622381
vn 0.38235560 0.00000000 0.92401526
vn -0.28310189 0.28338238 0.91626838
vn -0.38254847 0.00000000 0.92393542
vn -0.25852725 0.00000000 0.96600397
vn -0.14775651 -0.14775651 0.97792435
vn 0.21492848 -0.21492848 0.95268646
vn 0.60863301 0.00000000 0.79345186
vn 0.35232681 0.35262667 0.86690268
vn 0.50012053 0.00000000 0.86595581
vn -0.35257059 0.35254492 0.86683681
vn -0.50007439 0.00000000 0.86598245
vn -0.38254847 0.00000000 0.92393542
vn -0.21511608 -0.21490106 0.95265031
vn 0.28331424 -0.28331424 0.91622381
vn 0.70710678 0.00000000 0.70710678
vn 0.42268823 0.42232759 0.80185664
vn 0.60863301 0.00000000 0.79345186
vn -0.42271897 0.42239410 0.80180540
vn -0.60867169 0.00000000 0.79342219
vn -0.50007439 0.00000000 0.86598245
vn -0.28310189 -0.28338238 0.91626838
vn 0.35232681 -0.35262667 0.86690268
vn 0.49153281 0.49191847 0.71861792
vn 0.79345186 0.00000000 0.60863301
vn 0.70710678 0.00000000 0.70710678
vn -0.49153281 0.49191847 0.71861792
vn -0.70732650 0.00000000 0.70688700
vn -0.60867169 0.00000000 0.79342219
vn -0.35257059 -0.35254492 0.86683681
vn 0.42265942 -0.42262366 0.80171582
vn 0.55776916 0.55736972 0.61500614
vn 0.86595581 0.00000000 0.50012053
vn 0.79345186 0.00000000 0.60863301
vn -0.55776916 0.55736972 0.61500614
vn -0.79345186 0.00000000 0.60863301
vn -0.70732650 0.00000000 0.70688700
vn -0.42269016 -0.42269016 0.80166456
vn 0.49164345 -0.49164345 0.71873043
vn 0.61708819 0.61686487 0.48854877
vn 0.92401526 0.00000000 0.38235560
vn 0.86595581 0.00000000 0.50012053
vn -0.61681471 0.61690527 0.48884302
vn -0.86595581 0.00000000 0.50012053
vn -0.79345186 0.00000000 0.60863301
vn -0.49164345 -0.49164345 0.71873043
vn 0.55763990 -0.55763990 0.61487843
vn 0.66468604 0.66508973 0.34036468
vn 0.96600397 0.00000000 0.25852725
vn 0.92401526 0.00000000 0.38235560
vn 0.99139665 0.00000000 0.13089189
vn 0.70636857 0.70636857 0.04568245
vn 0.69619853 0.69604072 0.17559874
vn 0.99945446 0.00000000 0.03302713
vn 0.99945446 0.00000000 0.03302713
vn 1.00000000 0.00000000 0.00000000
vn 1.00000000 0.00000000 0.00000000
vn 0.57735027 0.57735027 -0.57735027
vn -0.70628130 0.70647629 0.04536482
vn -0.57735027 0.57735027 -0.57735027
vn -0.69636259 0.69596171 0.17526105
vn -0.70710678 0.00000000 -0.70710678
vn -0.99946989 0.00000000 0.03255683
vn -0.66469002 0.66497276 0.34058540
vn -0.92384439 0.00000000 0.38276826
vn -0.86595581 0.00000000 0.50012053
vn -0.55763990 -0.55763990 0.61487843
vn 0.61719888 -0.61688500 0.48838350
vn 0.96600397 0.00000000 0.25852725
vn 0.99139665 0.00000000 0.13089189
vn 0.70647629 -0.70628130 0.04536482
vn 0.57735027 -0.57735027 -0.57735027
vn -0.57735027 -0.57735027 -0.57735027
vn -0.70710678 0.00000000 -0.70710678
vn -0.99946989 0.00000000 0.03255683
vn -0.99145813 0.00000000 0.13042537
vn -0.96588840 0.00000000 0.25895868
vn -0.92384439 0.00000000 0.38276826
vn -0.70638898 -0.70638898 0.04504687
vn -0.61692544 -0.61692544 0.48867780
vn 0.66474336 -0.66486431 0.34069301
vn 0.69600591 -0.69624899 0.17553663
vn -0.99145813 0.00000000 0.13042537
vn -0.96588840 0.00000000 0.25895868
vn -0.69616996 -0.69616996 0.17519923
vn -0.66474727 -0.66474727 0.34091368
f 1//1 2//2 3//3
f 2//2 1//1 4//4
f 3//3 5//5 1//1
f 5//5 3//3 6//6
f 5//5 4//4 1//1
f 4//4 5//5 7//7
f 3//3 8//8 9//9
f 8//8 3//3 2//2
f 4//4 10//10 2//2
f 10//10 4//4 11//11
f 9//9 6//6 3//3
f 6//6 9//9 12//12
f 6//6 7//7 5//5
f 7//7 6//6 13//13
f 7//7 11//11 4//4
f 11//11 7//7 14//14
f 11//11 15//15 10//10
f 15//15 11//11 16//16
f 9//9 17//17 18//18
f 17//17 9//9 8//8
f 2//2 19//19 8//8
f 19//19 2//2 10//10
f 18//18 12//12 9//9
f 12//12 18//18 20//20
f 12//12 13//13 6//6
f 13//13 12//12 21//21
f 7//7 22//22 14//14
f 22//22 7//7 13//13
f 14//14 16//16 11//11
f 16//16 14//14 23//23
f 23//23 15//15 16//16
f 15//15 23//23 24//24
f 10//10 25//25 19//19
f 25//25 10//10 15//15
f 18//18 26//26 27//27
f 26//26 18//18 17//17
f 8//8 28//28 17//17
f 28//28 8//8 19//19
f 27//27 20//20 18//18
f 20//20 27//27 29//29
f 20//20 21//21 12//12
f 21//21 20//20 30//30
f 21//21 22//22 13//13
f 22//22 21//21 31//31
f 22//22 23//23 14//14
f 23//23 22//22 24//24
f 24//24 25//25 15//15
f 25//25 24//24 32//32
f 19//19 33//33 28//28
f 33//33 19//19 25//25
f 27//27 34//34 35//35
f 34//34 27//27 26//26
f 17//17 36//36 26//26
f 36//36 17//17 28//28
f 35//35 29//29 27//27
f 29//29 35//35 37//37
f 29//29 30//30 20//20
f 30//30 29//29 38//38
f 30//30 31//31 21//21
f 31//31 30//30 39//39
f 31//31 24//24 22//22
f 24//24 31//31 32//32
f 32//32 33//33 25//25
f 33//33 32//32 40//40
f 28//28 41//41 36//36
f 41//41 28//28 33//33
f 35//35 42//42 43//43
f 42//42 35//35 34//34
f 26//26 44//44 34//34
f 44//44 26//26 36//36
f 43//43 37//37 35//35
f 37//37 43//43 45//45
f 29//29 46//46 38//38
f 46//46 29//29 37//37
f 30//30 47//47 39//39
f 47//47 30//30 38//38
f 39//39 32//32 31//31
f 32//32 39//39 40//40
f 40//40 41//41 33//33
f 41//41 40//40 48//48
f 36//36 49//49 44//44
f 49//49 36//36 41//41
f 42//42 50//50 43//43
f 50//50 42//42 51//51
f 34//34 52//52 42//42
f 52//52 34//34 44//44
f 50//50 45//45 43//43
f 45//45 50//50 53//53
f 45//45 46//46 37//37
f 46//46 45//45 54//54
f 46//46 47//47 38//38
f 47//47 46//46 55//55
f 47//47 40//40 39//39
f 40//40 47//47 48//48
f 48//48 49//49 41//41
f 49//49 48//48 56//56
f 44//44 57//57 52//52
f 57//57 44//44 49//49
f 51//51 58//58 50//50
f 58//58 51//51 59//59
f 52//52 51//51 42//42
f 51//51 52//52 60//60
f 58//58 53//53 50//50
f 53//53 58//58 61//61
f 62//62 45//45 53//53
f 45//45 62//62 54//54
f 54//54 55//55 46//46
f 55//55 54//54 63//63
f 47//47 56//56 48//48
f 56//56 47//47 55//55
f 56//56 57//57 49//49
f 57//57 56//56 64//64
f 57//57 60//60 52//52
f 60//60 57//57 65//65
f 59//59 66//66 58//58
f 66//66 59//59 67//67
f 60//60 59//59 51//51
f 59//59 60//60 68//68
f 66//66 61//61 58//58
f 61//61 66//66 69//69
f 70//70 53//53 61//61
f 53//53 70//70 62//62
f 71//71 54//54 62//62
f 54//54 71//71 63//63
f 63//63 56//56 55//55
f 56//56 63//63 64//64
f 72//72 57//57 64//64
f 57//57 72//72 65//65
f 65//65 68//68 60//60
f 68//68 65//65 73//73
f 67//67 74//74 66//66
f 74//74 67//67 75//75
f 68//68 67//67 59//59
f 67//67 68//68 76//76
f 77//77 78//78 79//79
f 78//78 77//77 80//80
f 81//81 82//82 80//80
f 82//82 81//81 83//83
f 80//80 84//84 78//78
f 84//84 80//80 82//82
f 84//84 85//85 78//78
f 85//85 84//84 86//86
f 78//78 87//87 79//79
f 87//87 78//78 85//85
f 88//88 85//85 86//86
f 85//85 88//88 89//89
f 74//74 69//69 66//66
f 69//69 74//74 90//90
f 91//91 61//61 69//69
f 61//61 91//91 70//70
f 92//92 62//62 70//70
f 62//62 92//92 71//71
f 71//71 64//64 63//63
f 64//64 71//71 72//72
f 93//93 65//65 72//72
f 65//65 93//93 73//73
f 73//73 76//76 68//68
f 76//76 73//73 94//94
f 75//75 79//79 74//74
f 79//79 75//75 77//77
f 76//76 75//75 67//67
f 75//75 76//76 95//95
f 96//96 80//80 77//77
f 80//80 96//96 81//81
f 97//97 83//83 81//81
f 83//83 97//97 98//98
f 98//98 82//82 83//83
f 98//98 84//84 82//82
f 99//99 84//84 98//98
f 100//100 84//84 99//99
f 88//88 84//84 100//100
f 84//84 88//88 86//86
f 100//100 89//89 88//88
f 89//89 100//100 101//101
f 79//79 90//90 74//74
f 90//90 79//79 87//87
f 89//89 87//87 85//85
f 87//87 89//89 102//102
f 103//103 69//69 90//90
f 69//69 103//103 91//91
f 104//104 70//70 91//91
f 70//70 104//104 92//92
f 92//92 72//72 71//71
f 72//72 92//92 93//93
f 99//99 97//97 105//105
f 97//97 99//99 98//98
f 106//106 73//73 93//93
f 73//73 106//106 94//94
f 94//94 95//95 76//76
f 95//95 94//94 107//107
f 95//95 77//77 75//75
f 77//77 95//95 96//96
f 108//108 81//81 96//96
f 81//81 108//108 97//97
f 99//99 101//101 100//100
f 101//101 99//99 105//105
f 101//101 102//102 89//89
f 102//102 101//101 109//109
f 102//102 90//90 87//87
f 90//90 102//102 103//103
f 110//110 91//91 103//103
f 91//91 110//110 104//104
f 104//104 93//93 92//92
f 93//93 104//104 106//106
f 105//105 108//108 111//111
f 108//108 105//105 97//97
f 112//112 94//94 106//106
f 94//94 112//112 107//107
f 107//107 96//96 95//95
f 96//96 107//107 108//108
f 101//101 111//111 109//109
f 111//111 101//101 105//105
f 109//109 103//103 102//102
f 103//103 109//109 110//110
f 110//110 106//106 104//104
f 106//106 110//110 112//112
f 111//111 107//107 112//112
f 107//107 111//111 108//108
f 109//109 112//112 110//110
f 112//112 109//109 111//111