# https://github.com/mikedh/trimesh
v 0.03277000 0.00595800 0.04092500
v 0.03277000 0.00464200 0.04092500
v 0.03277000 0.00530000 0.04083800
v 0.03277000 0.00657200 0.04117900
v 0.03277000 0.00402900 0.04117900
v 0.03277000 0.00709900 0.04158300
v 0.03277000 0.00350200 0.04158300
v 0.03277000 0.00750200 0.04211000
v 0.03277000 0.00309800 0.04211000
v 0.03277000 0.00775700 0.04272300
v 0.03277000 0.00284400 0.04272300
v 0.03277000 0.00784300 0.04338100
v 0.03277000 0.00275800 0.04338100
v 0.03277000 0.00775700 0.04404000
v 0.03277000 0.00284400 0.04404000
v 0.03277000 0.00750200 0.04465300
v 0.03277000 0.00309800 0.04465300
v 0.03277000 0.00709900 0.04518000
v 0.03277000 0.00350200 0.04518000
v 0.03277000 0.00657200 0.04558400
v 0.03277000 0.00402900 0.04558400
v 0.03277000 0.00595800 0.04583800
v 0.03277000 0.00464200 0.04583800
v 0.03277000 0.00530000 0.04592400
v 0.03527500 0.00511200 0.04310300
v 0.03527500 0.00500700 0.04321200
v 0.03527500 0.00506000 0.04314200
v 0.03527500 0.00497300 0.04329400
v 0.03527500 0.00496100 0.04338100
v 0.03527500 0.00497300 0.04346900
v 0.03527500 0.00500700 0.04355100
v 0.03527500 0.00506000 0.04362100
v 0.03527500 0.00511200 0.04366100
v 0.03527500 0.00559400 0.04321200
v 0.03527500 0.00548900 0.04310300
v 0.03527500 0.00554000 0.04314200
v 0.03527500 0.00562800 0.04329400
v 0.03527500 0.00563900 0.04338100
v 0.03527500 0.00562800 0.04346900
v 0.03527500 0.00559400 0.04355100
v 0.03527500 0.00554000 0.04362100
v 0.03527500 0.00548900 0.04366100
v 0.03508700 0.00685300 0.04182900
v 0.03527500 0.00630700 0.04163800
v 0.03508700 0.00639800 0.04148000
v 0.03527500 0.00672400 0.04195800
v 0.03508700 0.00720200 0.04228400
v 0.03527500 0.00704400 0.04237500
v 0.03527500 0.00582100 0.04143700
v 0.03508700 0.00586900 0.04126100
v 0.03508700 0.00742100 0.04281300
v 0.03527500 0.00724500 0.04286000
v 0.03527500 0.00530000 0.04136900
v 0.03508700 0.00530000 0.04118600
v 0.03527500 0.00731300 0.04338100
v 0.03508700 0.00749600 0.04338100
v 0.03527500 0.00478000 0.04143700
v 0.03508700 0.00473200 0.04126100
v 0.03527500 0.00724500 0.04390300
v 0.03508700 0.00742100 0.04395000
v 0.03508700 0.00420300 0.04148000
v 0.03527500 0.00429400 0.04163800
v 0.03527500 0.00704400 0.04438800
v 0.03508700 0.00720200 0.04447900
v 0.03508700 0.00374800 0.04182900
v 0.03527500 0.00387700 0.04195800
v 0.03527500 0.00672400 0.04480500
v 0.03508700 0.00685300 0.04493400
v 0.03508700 0.00339900 0.04228400
v 0.03527500 0.00355700 0.04237500
v 0.03527500 0.00630700 0.04512500
v 0.03508700 0.00639800 0.04528300
v 0.03508700 0.00318000 0.04281300
v 0.03527500 0.00335600 0.04286000
v 0.03527500 0.00582100 0.04532600
v 0.03508700 0.00586900 0.04550200
v 0.03508700 0.00310500 0.04338100
v 0.03527500 0.00328700 0.04338100
v 0.03508700 0.00530000 0.04557700
v 0.03527500 0.00530000 0.04539400
v 0.03508700 0.00318000 0.04395000
v 0.03527500 0.00335600 0.04390300
v 0.03527500 0.00478000 0.04532600
v 0.03508700 0.00473200 0.04550200
v 0.03527500 0.00355700 0.04438800
v 0.03508700 0.00339900 0.04447900
v 0.03508700 0.00420300 0.04528300
v 0.03527500 0.00429400 0.04512500
v 0.03527500 0.00387700 0.04480500
v 0.03508700 0.00374800 0.04493400
v 0.03527500 0.00717400 0.04288000
v 0.03527500 0.00548900 0.04244000
v 0.03527500 0.00698000 0.04241200
v 0.03527500 0.00724000 0.04338100
v 0.03527500 0.00717400 0.04388300
v 0.03527500 0.00548900 0.04432400
v 0.03527500 0.00362100 0.04435100
v 0.03527500 0.00511200 0.04432400
v 0.03527500 0.00698000 0.04435100
v 0.03527500 0.00667200 0.04475300
v 0.03527500 0.00392900 0.04475300
v 0.03527500 0.00433100 0.04506100
v 0.03527500 0.00627000 0.04506100
v 0.03527500 0.00580200 0.04525500
v 0.03527500 0.00479800 0.04525500
v 0.03527500 0.00530000 0.04532100
v 0.03527500 0.00580200 0.04150800
v 0.03527500 0.00479800 0.04150800
v 0.03527500 0.00530000 0.04144200
v 0.03527500 0.00627000 0.04170200
v 0.03527500 0.00433100 0.04170200
v 0.03527500 0.00667200 0.04201000
v 0.03527500 0.00392900 0.04201000
v 0.03527500 0.00362100 0.04241200
v 0.03527500 0.00511200 0.04244000
v 0.03527500 0.00342700 0.04288000
v 0.03527500 0.00336100 0.04338100
v 0.03527500 0.00342700 0.04388300
v 0.03471000 0.00750200 0.04465300
v 0.03471000 0.00775700 0.04404000
v 0.03508700 0.00726400 0.04451500
v 0.03508700 0.00749100 0.04396900
v 0.03471000 0.00709900 0.04518000
v 0.03471000 0.00784300 0.04338100
v 0.03508700 0.00690400 0.04498500
v 0.03508700 0.00756800 0.04338100
v 0.03471000 0.00657200 0.04558400
v 0.03471000 0.00775700 0.04272300
v 0.03508700 0.00643400 0.04534600
v 0.03508700 0.00749100 0.04279400
v 0.03471000 0.00595800 0.04583800
v 0.03471000 0.00750200 0.04211000
v 0.03508700 0.00588700 0.04557200
v 0.03508700 0.00726400 0.04224800
v 0.03471000 0.00530000 0.04592400
v 0.03471000 0.00709900 0.04158300
v 0.03508700 0.00530000 0.04564900
v 0.03508700 0.00690400 0.04177800
v 0.03471000 0.00464200 0.04583800
v 0.03471000 0.00657200 0.04117900
v 0.03508700 0.00471400 0.04557200
v 0.03508700 0.00643400 0.04141700
v 0.03471000 0.00402900 0.04558400
v 0.03471000 0.00595800 0.04092500
v 0.03508700 0.00416700 0.04534600
v 0.03508700 0.00588700 0.04119100
v 0.03471000 0.00350200 0.04518000
v 0.03471000 0.00530000 0.04083800
v 0.03508700 0.00369700 0.04498500
v 0.03508700 0.00530000 0.04111400
v 0.03471000 0.00309800 0.04465300
v 0.03471000 0.00464200 0.04092500
v 0.03508700 0.00333700 0.04451500
v 0.03508700 0.00471400 0.04119100
v 0.03471000 0.00284400 0.04404000
v 0.03471000 0.00402900 0.04117900
v 0.03508700 0.00311000 0.04396900
v 0.03508700 0.00416700 0.04141700
v 0.03471000 0.00275800 0.04338100
v 0.03471000 0.00350200 0.04158300
v 0.03508700 0.00303300 0.04338100
v 0.03508700 0.00369700 0.04177800
v 0.03471000 0.00284400 0.04272300
v 0.03471000 0.00309800 0.04211000
v 0.03508700 0.00311000 0.04279400
v 0.03508700 0.00333700 0.04224800
v 0.03586000 0.00548900 0.04432400
v 0.03586000 0.00548900 0.04244000
v 0.03962700 0.00548900 0.04149800
v 0.03925000 0.00548900 0.04442300
v 0.03962700 0.00548900 0.04526500
v 0.03924500 0.00548900 0.04230500
v 0.03923700 0.00548900 0.04227100
v 0.03922400 0.00548900 0.04223700
v 0.03920700 0.00548900 0.04220600
v 0.03918700 0.00548900 0.04217700
v 0.03916300 0.00548900 0.04215000
v 0.03913600 0.00548900 0.04212600
v 0.03910700 0.00548900 0.04210600
v 0.03907500 0.00548900 0.04208900
v 0.03904200 0.00548900 0.04207600
v 0.03896300 0.00548900 0.04206300
v 0.03889300 0.00548900 0.04207600
v 0.03886000 0.00548900 0.04208900
v 0.03882800 0.00548900 0.04210600
v 0.03879900 0.00548900 0.04212600
v 0.03868500 0.00548900 0.04234000
v 0.03586000 0.00548900 0.04149800
v 0.03868500 0.00548900 0.04442300
v 0.03869900 0.00548900 0.04227100
v 0.03871100 0.00548900 0.04223700
v 0.03872800 0.00548900 0.04220600
v 0.03874900 0.00548900 0.04217700
v 0.03877200 0.00548900 0.04215000
v 0.03923700 0.00548900 0.04449200
v 0.03922400 0.00548900 0.04452500
v 0.03920700 0.00548900 0.04455700
v 0.03918700 0.00548900 0.04458600
v 0.03916300 0.00548900 0.04461300
v 0.03913600 0.00548900 0.04463700
v 0.03910700 0.00548900 0.04465700
v 0.03907500 0.00548900 0.04467400
v 0.03904200 0.00548900 0.04468700
v 0.03896300 0.00548900 0.04470000
v 0.03889300 0.00548900 0.04468700
v 0.03886000 0.00548900 0.04467400
v 0.03882800 0.00548900 0.04465700
v 0.03879900 0.00548900 0.04463700
v 0.03869900 0.00548900 0.04449200
v 0.03871100 0.00548900 0.04452500
v 0.03872800 0.00548900 0.04455700
v 0.03874900 0.00548900 0.04458600
v 0.03877200 0.00548900 0.04461300
v 0.03586000 0.00548900 0.04526500
v 0.03586000 0.00511200 0.04432400
v 0.03586000 0.00511200 0.04244000
v 0.03962700 0.00511200 0.04526500
v 0.03925000 0.00511200 0.04442300
v 0.03962700 0.00511200 0.04149800
v 0.03923700 0.00511200 0.04449200
v 0.03922400 0.00511200 0.04452500
v 0.03920700 0.00511200 0.04455700
v 0.03918700 0.00511200 0.04458600
v 0.03916300 0.00511200 0.04461300
v 0.03913600 0.00511200 0.04463700
v 0.03910700 0.00511200 0.04465700
v 0.03907500 0.00511200 0.04467400
v 0.03904200 0.00511200 0.04468700
v 0.03896300 0.00511200 0.04470000
v 0.03889300 0.00511200 0.04468700
v 0.03886000 0.00511200 0.04467400
v 0.03882800 0.00511200 0.04465700
v 0.03879900 0.00511200 0.04463700
v 0.03868500 0.00511200 0.04442300
v 0.03586000 0.00511200 0.04526500
v 0.03868500 0.00511200 0.04234000
v 0.03869900 0.00511200 0.04449200
v 0.03871100 0.00511200 0.04452500
v 0.03872800 0.00511200 0.04455700
v 0.03874900 0.00511200 0.04458600
v 0.03877200 0.00511200 0.04461300
v 0.03924500 0.00511200 0.04230500
v 0.03923700 0.00511200 0.04227100
v 0.03922400 0.00511200 0.04223700
v 0.03920700 0.00511200 0.04220600
v 0.03918700 0.00511200 0.04217700
v 0.03916300 0.00511200 0.04215000
v 0.03913600 0.00511200 0.04212600
v 0.03910700 0.00511200 0.04210600
v 0.03907500 0.00511200 0.04208900
v 0.03904200 0.00511200 0.04207600
v 0.03896300 0.00511200 0.04206300
v 0.03889300 0.00511200 0.04207600
v 0.03886000 0.00511200 0.04208900
v 0.03882800 0.00511200 0.04210600
v 0.03879900 0.00511200 0.04212600
v 0.03869900 0.00511200 0.04227100
v 0.03871100 0.00511200 0.04223700
v 0.03872800 0.00511200 0.04220600
v 0.03874900 0.00511200 0.04217700
v 0.03877200 0.00511200 0.04215000
v 0.03586000 0.00511200 0.04149800
v 0.03659400 -0.06748000 0.04734200
v -0.03875400 -0.06748000 -0.07415700
v -0.03875400 -0.06748000 0.04734200
v 0.03659400 -0.06748000 -0.08640100
v -0.03875400 -0.06748000 -0.08640100
v -0.03875400 -0.06740700 0.04844800
v 0.03659400 -0.06740700 0.04844800
v -0.03875400 -0.06719100 0.04953500
v 0.03659400 -0.06719100 0.04953500
v -0.03875400 -0.06683400 0.05058500
v 0.03659400 -0.06683400 0.05058500
v -0.03875400 -0.06499700 0.05333500
v 0.03659400 -0.06416300 0.05406600
v 0.03659400 -0.06499700 0.05333500
v -0.03875400 -0.06416300 0.05406600
v 0.03659400 -0.06324100 0.05468300
v -0.03875400 -0.06324100 0.05468300
v 0.03659400 -0.06224700 0.05517300
v -0.03875400 -0.06224700 0.05517300
v 0.03659400 -0.06119700 0.05552900
v -0.03875400 -0.06119700 0.05552900
v 0.03659400 -0.06010900 0.05574600
v -0.03875400 -0.06010900 0.05574600
v 0.03659400 -0.05900300 0.05581800
v -0.03875400 -0.05900300 0.05581800
v 0.03659400 0.05778700 0.05581800
v -0.03875400 0.05778700 0.05581800
v 0.03659400 0.05889300 0.05574600
v -0.03875400 0.05889300 0.05574600
v 0.03659400 0.05998000 0.05552900
v -0.03875400 0.05998000 0.05552900
v 0.03659400 0.06103000 0.05517300
v -0.03875400 0.06103000 0.05517300
v 0.03659400 0.06202500 0.05468300
v -0.03875400 0.06202500 0.05468300
v 0.03659400 0.06294700 0.05406600
v -0.03875400 0.06294700 0.05406600
v 0.03659400 0.06378000 0.05333500
v -0.03875400 0.06378000 0.05333500
v -0.03875400 0.06451100 0.05250200
v 0.03659400 0.06451100 0.05250200
v -0.03875400 0.06512800 0.05158000
v 0.03659400 0.06512800 0.05158000
v -0.03875400 0.06561800 0.05058500
v 0.03659400 0.06561800 0.05058500
v -0.03875400 0.06597400 0.04953500
v 0.03659400 0.06597400 0.04953500
v -0.03875400 0.06619100 0.04844800
v 0.03659400 0.06619100 0.04844800
v -0.03875400 0.06626300 0.04734200
v 0.03659400 0.06626300 0.04734200
v -0.03875400 0.06626300 -0.07415700
v -0.03875400 0.06626300 -0.08640100
v 0.03659400 0.06626300 -0.08640100
v 0.03659400 0.07474000 -0.08640100
v -0.03875400 0.07474000 -0.08640100
v -0.03875400 0.07474000 0.05581800
v 0.03659400 0.07474000 0.05581800
v -0.03875400 0.07466700 0.05692500
v 0.03659400 0.07466700 0.05692500
v -0.03875400 0.07445100 0.05801200
v 0.03659400 0.07445100 0.05801200
v -0.03875400 0.07409400 0.05906200
v 0.03659400 0.07409400 0.05906200
v -0.03875400 0.07360400 0.06005600
v 0.03659400 0.07360400 0.06005600
v -0.03875400 0.07298800 0.06097800
v 0.03659400 0.07298800 0.06097800
v -0.03875400 0.07225700 0.06181200
v 0.03659400 0.07225700 0.06181200
v 0.03659400 0.07142300 0.06254300
v -0.03875400 0.07142300 0.06254300
v 0.03659400 0.07050100 0.06315900
v -0.03875400 0.07050100 0.06315900
v 0.03659400 0.06950700 0.06365000
v -0.03875400 0.06950700 0.06365000
v 0.03659400 0.06845700 0.06400600
v -0.03875400 0.06845700 0.06400600
v 0.03659400 0.06737000 0.06422200
v -0.03875400 0.06737000 0.06422200
v 0.03659400 0.06626300 0.06429500
v -0.03875400 0.06626300 0.06429500
v 0.03659400 -0.06748000 0.06429500
v -0.03875400 -0.06748000 0.06429500
v 0.03659400 -0.06858600 0.06422200
v -0.03875400 -0.06858600 0.06422200
v 0.03659400 -0.06967300 0.06400600
v -0.03875400 -0.06967300 0.06400600
v 0.03659400 -0.07072300 0.06365000
v -0.03875400 -0.07072300 0.06365000
v 0.03659400 -0.07171800 0.06315900
v -0.03875400 -0.07171800 0.06315900
v 0.03659400 -0.07264000 0.06254300
v -0.03875400 -0.07264000 0.06254300
v 0.03659400 -0.07347300 0.06181200
v -0.03875400 -0.07347300 0.06181200
v -0.03875400 -0.07420500 0.06097800
v 0.03659400 -0.07420500 0.06097800
v -0.03875400 -0.07482100 0.06005600
v 0.03659400 -0.07482100 0.06005600
v -0.03875400 -0.07531100 0.05906200
v 0.03659400 -0.07531100 0.05906200
v -0.03875400 -0.07566700 0.05801200
v 0.03659400 -0.07566700 0.05801200
v -0.03875400 -0.07588400 0.05692500
v 0.03659400 -0.07588400 0.05692500
v -0.03875400 -0.07595600 0.05581800
v 0.03659400 -0.07595600 0.05581800
v -0.03875400 -0.07595600 -0.08640100
v 0.03659400 -0.07595600 -0.08640100
v -0.03875400 -0.06634400 0.05158000
v 0.03659400 -0.06634400 0.05158000
v 0.03659400 -0.06572800 0.05250200
v -0.03875400 -0.06572800 0.05250200
v 0.03471000 0.06626300 -0.07415700
v 0.03471000 -0.06748000 -0.07415700
v 0.03094300 0.05889300 0.05574600
v 0.03471000 0.05778700 0.05581800
v 0.03471000 0.05889300 0.05574600
v 0.03094300 0.05778700 0.05581800
v 0.03094300 0.05998000 0.05552900
v 0.03471000 0.05998000 0.05552900
v 0.03094300 0.06103000 0.05517300
v 0.03471000 0.06103000 0.05517300
v 0.03094300 0.06202500 0.05468300
v 0.03471000 0.06202500 0.05468300
v 0.03094300 0.06294700 0.05406600
v 0.03471000 0.06294700 0.05406600
v 0.03094300 0.06378000 0.05333500
v 0.03471000 0.06378000 0.05333500
v 0.03471000 0.06451100 0.05250200
v 0.03094300 0.06451100 0.05250200
v 0.03471000 0.06512800 0.05158000
v 0.03094300 0.06512800 0.05158000
v 0.03471000 0.06561800 0.05058500
v 0.03094300 0.06561800 0.05058500
v 0.03471000 0.06597400 0.04953500
v 0.03094300 0.06597400 0.04953500
v 0.03471000 0.06619100 0.04844800
v 0.03094300 0.06619100 0.04844800
v 0.03471000 0.06626300 0.04734200
v 0.03094300 0.06626300 0.04734200
v 0.03094300 0.06626300 -0.07415700
v 0.03094300 -0.00023100 -0.07415700
v 0.03471000 -0.00023100 -0.07415700
v 0.03471000 -0.00023100 0.05581800
v 0.03094300 -0.00023100 0.05581800
v 0.03094300 -0.06748000 -0.07415700
v 0.03471000 -0.06748000 0.04734200
v 0.03094300 -0.06748000 0.04734200
v 0.03471000 -0.06740700 0.04844800
v 0.03094300 -0.06740700 0.04844800
v 0.03094300 -0.06572800 0.05250200
v 0.03471000 -0.06499700 0.05333500
v 0.03094300 -0.06499700 0.05333500
v 0.03471000 -0.06572800 0.05250200
v 0.03094300 -0.06416300 0.05406600
v 0.03471000 -0.06416300 0.05406600
v 0.03094300 -0.06324100 0.05468300
v 0.03471000 -0.06324100 0.05468300
v 0.03094300 -0.06224700 0.05517300
v 0.03471000 -0.06224700 0.05517300
v 0.03094300 -0.06119700 0.05552900
v 0.03471000 -0.06119700 0.05552900
v 0.03094300 -0.06010900 0.05574600
v 0.03471000 -0.06010900 0.05574600
v 0.03094300 -0.05900300 0.05581800
v 0.03471000 -0.05900300 0.05581800
v 0.03094300 -0.00098500 0.05581800
v 0.03471000 -0.00098500 0.05581800
v 0.03471000 -0.00098500 -0.07415700
v 0.03094300 -0.00098500 -0.07415700
v 0.03471000 -0.06719100 0.04953500
v 0.03094300 -0.06719100 0.04953500
v 0.03094300 -0.06634400 0.05158000
v 0.03471000 -0.06634400 0.05158000
v 0.03471000 -0.06683400 0.05058500
v 0.03094300 -0.06683400 0.05058500
vn 0.67897861 0.19005019 -0.70913255
vn 0.67891926 -0.19026867 -0.70913079
vn 0.67875976 -0.00000000 -0.73436039
vn 0.67887448 0.36683767 -0.63604997
vn 0.67893383 -0.36699344 -0.63589675
vn 0.67865743 0.51964862 -0.51902736
vn 0.67878057 -0.51925761 -0.51925761
vn 0.67920055 0.63564724 -0.36693216
vn 0.67893383 -0.63589675 -0.36699344
vn 0.67862217 0.70940576 -0.19030349
vn 0.67876540 -0.70941013 -0.18977567
vn 0.67908765 0.73405719 -0.00007157
vn 0.67908765 -0.73405719 -0.00007157
vn 0.67860210 0.70944222 0.19023912
vn 0.67874532 -0.70944655 0.18971130
vn 0.67920055 0.63564724 0.36693216
vn 0.67893383 -0.63589675 0.36699344
vn 0.67865743 0.51964862 0.51902736
vn 0.67878057 -0.51925761 0.51925761
vn 0.67887448 0.36683767 0.63604997
vn 0.67893383 -0.36699344 0.63589675
vn 0.67882472 0.18955717 0.70941178
vn 0.67876540 -0.18977567 0.70941013
vn 0.67906755 0.00000000 0.73407578
vn 1.00000000 0.00000000 0.00000000
vn 1.00000000 0.00000000 0.00000000
vn 1.00000000 0.00000000 0.00000000
vn 1.00000000 0.00000000 0.00000000
vn 1.00000000 0.00000000 0.00000000
vn 1.00000000 0.00000000 0.00000000
vn 1.00000000 0.00000000 0.00000000
vn 1.00000000 0.00000000 0.00000000
vn 1.00000000 0.00000000 0.00000000
vn 1.00000000 0.00000000 0.00000000
vn 1.00000000 0.00000000 0.00000000
vn 1.00000000 0.00000000 0.00000000
vn 1.00000000 0.00000000 0.00000000
vn 1.00000000 0.00000000 0.00000000
vn 1.00000000 0.00000000 0.00000000
vn 1.00000000 0.00000000 0.00000000
vn 1.00000000 0.00000000 0.00000000
vn 1.00000000 0.00000000 0.00000000
vn 0.69636786 0.50751668 -0.50744322
vn 0.69623669 0.35872632 -0.62174746
vn 0.69625746 0.35867962 -0.62175113
vn 0.69636886 0.50752399 -0.50743454
vn 0.69623764 0.62170108 -0.35880484
vn 0.69614534 0.62170763 -0.35897254
vn 0.69633362 0.18504853 -0.69345261
vn 0.69658589 0.18556217 -0.69306189
vn 0.69617237 0.69347290 -0.18557847
vn 0.69587894 0.69377010 -0.18556815
vn 0.69732162 0.00026678 -0.71675832
vn 0.69731894 0.00021426 -0.71676094
vn 0.69728706 0.71679180 -0.00051901
vn 0.69727755 0.71680111 -0.00043123
vn 0.69652475 -0.18543664 -0.69315693
vn 0.69638874 -0.18597236 -0.69315006
vn 0.69610891 0.69346741 0.18583686
vn 0.69593809 0.69362172 0.18590073
vn 0.69625746 -0.35867962 -0.62175113
vn 0.69623669 -0.35872632 -0.62174746
vn 0.69614534 0.62170763 0.35897254
vn 0.69623764 0.62170108 0.35880484
vn 0.69636786 -0.50751668 -0.50744322
vn 0.69636886 -0.50752399 -0.50743454
vn 0.69636886 0.50752399 0.50743454
vn 0.69636786 0.50751668 0.50744322
vn 0.69623764 -0.62170108 -0.35880484
vn 0.69614534 -0.62170763 -0.35897254
vn 0.69623669 0.35872632 0.62174746
vn 0.69625746 0.35867962 0.62175113
vn 0.69593805 -0.69360167 -0.18597566
vn 0.69581971 -0.69366778 -0.18617181
vn 0.69652740 0.18535018 0.69317739
vn 0.69638858 0.18589769 0.69317025
vn 0.69560954 -0.71842003 -0.00016846
vn 0.69560455 -0.71842486 -0.00019996
vn 0.69712119 -0.00008199 0.71695330
vn 0.69751369 -0.00009398 0.71657145
vn 0.69588059 -0.69365327 0.18599824
vn 0.69587868 -0.69360860 0.18617188
vn 0.69652475 -0.18543664 0.69315693
vn 0.69638874 -0.18597236 0.69315006
vn 0.69614534 -0.62170763 0.35897254
vn 0.69623764 -0.62170108 0.35880484
vn 0.69625746 -0.35867962 0.62175113
vn 0.69623669 -0.35872632 0.62174746
vn 0.69636886 -0.50752399 0.50743454
vn 0.69636786 -0.50751668 0.50744322
vn 1.00000000 0.00000000 0.00000000
vn 0.81649658 0.40824829 -0.40824829
vn 1.00000000 0.00000000 0.00000000
vn 1.00000000 0.00000000 0.00000000
vn 1.00000000 0.00000000 0.00000000
vn 0.81649658 0.40824829 0.40824829
vn 1.00000000 0.00000000 0.00000000
vn 0.81649658 -0.40824829 0.40824829
vn 1.00000000 0.00000000 0.00000000
vn 1.00000000 0.00000000 0.00000000
vn 1.00000000 0.00000000 0.00000000
vn 1.00000000 0.00000000 0.00000000
vn 1.00000000 0.00000000 0.00000000
vn 1.00000000 0.00000000 0.00000000
vn 1.00000000 0.00000000 0.00000000
vn 1.00000000 0.00000000 0.00000000
vn 1.00000000 0.00000000 0.00000000
vn 1.00000000 0.00000000 0.00000000
vn 1.00000000 0.00000000 0.00000000
vn 1.00000000 0.00000000 0.00000000
vn 1.00000000 0.00000000 0.00000000
vn 1.00000000 0.00000000 0.00000000
vn 1.00000000 0.00000000 0.00000000
vn 1.00000000 0.00000000 0.00000000
vn 0.81649658 -0.40824829 -0.40824829
vn 1.00000000 0.00000000 0.00000000
vn 1.00000000 0.00000000 0.00000000
vn 1.00000000 0.00000000 0.00000000
vn 0.30283543 0.82533058 0.47657123
vn 0.30273667 0.92056356 0.24680607
vn 0.58951398 0.69945618 0.40402267
vn 0.58967413 0.78007283 0.20921474
vn 0.30313156 0.67423134 0.67344143
vn 0.30268193 0.95309163 -0.00004178
vn 0.59008410 0.57125239 0.57050106
vn 0.58940274 0.80783935 0.00003140
vn 0.30276415 0.47628463 0.82552215
vn 0.30271544 0.92052728 -0.24696740
vn 0.58955746 0.40374156 0.69958185
vn 0.58971790 0.77997324 -0.20946253
vn 0.30272499 0.24603176 0.92077465
vn 0.30277714 0.82540158 -0.47648529
vn 0.58975478 0.20849629 0.78020420
vn 0.58962012 0.69952075 -0.40375590
vn 0.30270077 -0.00007629 0.95308564
vn 0.30305372 0.67418714 -0.67352071
vn 0.58940272 -0.00021821 0.80783933
vn 0.59022695 0.57103008 -0.57057585
vn 0.30290165 -0.24622978 0.92066361
vn 0.30276415 0.47628463 -0.82552215
vn 0.58999022 -0.20822090 0.78009974
vn 0.58955746 0.40374156 -0.69958185
vn 0.30277979 -0.47651513 0.82538338
vn 0.30281151 0.24664861 -0.92058115
vn 0.58966196 -0.40383628 0.69943908
vn 0.58994032 0.20872482 -0.78000280
vn 0.30320409 -0.67385203 0.67378833
vn 0.30315701 -0.00002444 -0.95294062
vn 0.59022695 -0.57103008 0.57057585
vn 0.59071397 -0.00009346 -0.80688103
vn 0.30325033 -0.82525688 0.47643501
vn 0.30294243 -0.24690008 -0.92047066
vn 0.59061262 -0.69869516 0.40373483
vn 0.59026138 -0.20855414 -0.77980554
vn 0.30275025 -0.92070896 0.24624640
vn 0.30277979 -0.47651513 -0.82538338
vn 0.58997013 -0.77991546 0.20896680
vn 0.58966196 -0.40383628 -0.69943908
vn 0.30268430 -0.95309086 -0.00014305
vn 0.30316394 -0.67382922 -0.67382922
vn 0.58939834 -0.80784253 -0.00021149
vn 0.59030059 -0.57091543 -0.57061440
vn 0.30291682 -0.92061299 -0.24640034
vn 0.30332757 -0.82532396 -0.47626961
vn 0.58966971 -0.78005344 -0.20929947
vn 0.59047106 -0.69899713 -0.40341906
vn -0.30151134 0.90453403 0.30151134
vn -0.30151134 0.90453403 -0.30151134
vn 0.57735027 0.57735027 -0.57735027
vn -0.68170206 0.72892564 -0.06284674
vn 0.57735027 0.57735027 0.57735027
vn -0.67483153 0.73371716 0.07912988
vn -0.66086548 0.72250404 0.20308797
vn -0.62718976 0.72277232 0.29022952
vn -0.59173242 0.71877985 0.36497709
vn -0.54504017 0.72119332 0.42756450
vn -0.49029820 0.72056599 0.49029820
vn -0.42756450 0.72119332 0.54504017
vn -0.36021316 0.72032187 0.59277557
vn -0.29041310 0.72004812 0.63023086
vn -0.18126444 0.73173545 0.65704371
vn 0.00681094 0.74807098 0.66358377
vn 0.18871998 0.72928971 0.65766350
vn 0.29041310 0.72004812 0.63023086
vn 0.36021316 0.72032187 0.59277557
vn 0.42756450 0.72119332 0.54504017
vn 0.67970252 0.73030478 0.06825989
vn -0.57735027 0.57735027 -0.57735027
vn 0.67970252 0.73030478 -0.06825989
vn 0.66577726 0.72308965 0.18407066
vn 0.62797710 0.72581685 0.28077509
vn 0.58515082 0.72145541 0.37027100
vn 0.54878095 0.71608399 0.43135041
vn 0.49360254 0.72302804 0.48330837
vn -0.65773381 0.72898079 -0.18966615
vn -0.63023086 0.72004812 -0.29041310
vn -0.59277557 0.72032187 -0.36021316
vn -0.54504017 0.72119332 -0.42756450
vn -0.49029820 0.72056599 -0.49029820
vn -0.42756450 0.72119332 -0.54504017
vn -0.36021316 0.72032187 -0.59277557
vn -0.29041310 0.72004812 -0.63023086
vn -0.18126444 0.73173545 -0.65704371
vn 0.00681094 0.74807098 -0.66358377
vn 0.18871998 0.72928971 -0.65766350
vn 0.29041310 0.72004812 -0.63023086
vn 0.36021316 0.72032187 -0.59277557
vn 0.42756450 0.72119332 -0.54504017
vn 0.66377500 0.72420179 -0.18690777
vn 0.63107647 0.72314255 -0.28072646
vn 0.58621957 0.72300732 -0.36552295
vn 0.54878095 0.71608399 -0.43135041
vn 0.49360254 0.72302804 -0.48330837
vn -0.57735027 0.57735027 0.57735027
vn -0.30151134 -0.90453403 0.30151134
vn -0.30151134 -0.90453403 -0.30151134
vn 0.57735027 -0.57735027 0.57735027
vn -0.68170206 -0.72892564 -0.06284674
vn 0.57735027 -0.57735027 -0.57735027
vn -0.65773381 -0.72898079 -0.18966615
vn -0.63023086 -0.72004812 -0.29041310
vn -0.59277557 -0.72032187 -0.36021316
vn -0.54504017 -0.72119332 -0.42756450
vn -0.49029820 -0.72056599 -0.49029820
vn -0.42756450 -0.72119332 -0.54504017
vn -0.36021316 -0.72032187 -0.59277557
vn -0.29041310 -0.72004812 -0.63023086
vn -0.18126444 -0.73173545 -0.65704371
vn 0.00681094 -0.74807098 -0.66358377
vn 0.18871998 -0.72928971 -0.65766350
vn 0.29041310 -0.72004812 -0.63023086
vn 0.36021316 -0.72032187 -0.59277557
vn 0.42756450 -0.72119332 -0.54504017
vn 0.67970252 -0.73030478 -0.06825989
vn -0.57735027 -0.57735027 0.57735027
vn 0.67970252 -0.73030478 0.06825989
vn 0.66377500 -0.72420179 -0.18690777
vn 0.63107647 -0.72314255 -0.28072646
vn 0.58621957 -0.72300732 -0.36552295
vn 0.54878095 -0.71608399 -0.43135041
vn 0.49360254 -0.72302804 -0.48330837
vn -0.67483153 -0.73371716 0.07912988
vn -0.66086548 -0.72250404 0.20308797
vn -0.62718976 -0.72277232 0.29022952
vn -0.59173242 -0.71877985 0.36497709
vn -0.54504017 -0.72119332 0.42756450
vn -0.49029820 -0.72056599 0.49029820
vn -0.42756450 -0.72119332 0.54504017
vn -0.36021316 -0.72032187 0.59277557
vn -0.29041310 -0.72004812 0.63023086
vn -0.18126444 -0.73173545 0.65704371
vn 0.00681094 -0.74807098 0.66358377
vn 0.18871998 -0.72928971 0.65766350
vn 0.29041310 -0.72004812 0.63023086
vn 0.36021316 -0.72032187 0.59277557
vn 0.42756450 -0.72119332 0.54504017
vn 0.66577726 -0.72308965 0.18407066
vn 0.62797710 -0.72581685 0.28077509
vn 0.58515082 -0.72145541 0.37027100
vn 0.54878095 -0.71608399 0.43135041
vn 0.49360254 -0.72302804 0.48330837
vn -0.57735027 -0.57735027 -0.57735027
vn 0.71459849 0.69915504 -0.02304831
vn -0.40824829 0.81649658 -0.40824829
vn -0.89452430 0.44677662 -0.01472841
vn 0.57735027 0.57735027 -0.57735027
vn -0.57735027 0.57735027 -0.57735027
vn -0.89480624 0.44262747 -0.05833278
vn 0.72205234 0.68590767 -0.09039408
vn -0.89481403 0.43120990 -0.11561088
vn 0.72220818 0.66808092 -0.17911793
vn -0.89480399 0.41247968 -0.17084009
vn 0.72200698 0.63922709 -0.26475393
vn -0.89480971 0.31559232 -0.31578008
vn 0.72201456 0.42130763 -0.54881222
vn 0.72212205 0.48900672 -0.48929764
vn -0.89480436 0.27186353 -0.35414033
vn 0.72222841 0.34599292 -0.59889484
vn -0.89481505 0.22332541 -0.38656408
vn 0.72215342 0.26454995 -0.63914612
vn -0.89481128 0.17074060 -0.41250505
vn 0.72202551 0.17911868 -0.66827813
vn -0.89480491 0.11558424 -0.43123597
vn 0.72224044 0.09030263 -0.68572165
vn -0.89481565 0.05828785 -0.44261436
vn 0.71449516 0.02273701 -0.69927083
vn -0.89452167 0.01452747 -0.44678847
vn 0.71449516 -0.02273701 -0.69927083
vn -0.89452167 -0.01452747 -0.44678847
vn 0.72226107 -0.09036032 -0.68569232
vn -0.89481669 -0.05832663 -0.44260715
vn 0.72200489 -0.17918321 -0.66828311
vn -0.89480388 -0.11562281 -0.43122776
vn 0.72210681 -0.26444115 -0.63924380
vn -0.89480895 -0.17066016 -0.41254339
vn 0.72227503 -0.34584919 -0.59892163
vn -0.89481740 -0.22324600 -0.38660451
vn 0.72208409 -0.42142661 -0.54862936
vn -0.89480782 -0.27196461 -0.35405398
vn 0.72205252 -0.48920352 -0.48920352
vn -0.89480625 -0.31569113 -0.31569113
vn -0.89480782 -0.35405398 -0.27196461
vn 0.72208409 -0.54862936 -0.42142661
vn -0.89481740 -0.38660451 -0.22324600
vn 0.72227503 -0.59892163 -0.34584919
vn -0.89480895 -0.41254339 -0.17066016
vn 0.72210681 -0.63924380 -0.26444115
vn -0.89480388 -0.43122776 -0.11562281
vn 0.72200489 -0.66828311 -0.17918321
vn -0.89481669 -0.44260715 -0.05832663
vn 0.72226107 -0.68569232 -0.09036032
vn -0.89452167 -0.44678847 -0.01452747
vn 0.02069910 -0.99925766 -0.03249118
vn -0.80178373 -0.53452248 -0.26726124
vn -0.57735027 -0.57735027 -0.57735027
vn 0.57735027 -0.57735027 -0.57735027
vn 0.57735027 0.57735027 -0.57735027
vn -0.57735027 0.57735027 -0.57735027
vn -0.69977210 0.71397901 0.02351578
vn 0.69977210 0.71397901 0.02351578
vn -0.69274186 0.71500608 0.09420730
vn 0.69274186 0.71500608 0.09420730
vn -0.69260449 0.69671157 0.18679404
vn 0.69260449 0.69671157 0.18679404
vn -0.69274712 0.66623729 0.27609656
vn 0.69274712 0.66623729 0.27609656
vn -0.69266667 0.62466305 0.36056755
vn 0.69266667 0.62466305 0.36056755
vn -0.69270227 0.57225447 0.43896285
vn 0.69270227 0.57225447 0.43896285
vn -0.69261978 0.51003815 0.51003815
vn 0.69261978 0.51003815 0.51003815
vn 0.69270227 0.43896285 0.57225447
vn -0.69270227 0.43896285 0.57225447
vn 0.69275395 0.36077827 0.62444455
vn -0.69275395 0.36077827 0.62444455
vn 0.69256774 0.27614754 0.66640263
vn -0.69256774 0.27614754 0.66640263
vn 0.69269660 0.18647367 0.69670581
vn -0.69269660 0.18647367 0.69670581
vn 0.69274186 0.09420730 0.71500608
vn -0.69274186 0.09420730 0.71500608
vn 0.69977210 0.02351578 0.71397901
vn -0.69977210 0.02351578 0.71397901
vn 0.69976555 -0.02353718 0.71398471
vn -0.69976555 -0.02353718 0.71398471
vn 0.69274827 -0.09422772 0.71499719
vn -0.69274827 -0.09422772 0.71499719
vn 0.69269660 -0.18647367 0.69670581
vn -0.69269660 -0.18647367 0.69670581
vn 0.69261078 -0.27599872 0.66641954
vn -0.69261078 -0.27599872 0.66641954
vn 0.69271089 -0.36067433 0.62455236
vn -0.69271089 -0.36067433 0.62455236
vn 0.69263811 -0.43917052 0.57217279
vn -0.69263811 -0.43917052 0.57217279
vn 0.69275705 -0.50992378 0.50996608
vn -0.69275705 -0.50992378 0.50996608
vn -0.69262917 -0.57216139 0.43919948
vn 0.69262917 -0.57216139 0.43919948
vn -0.69266667 -0.62466305 0.36056755
vn 0.69266667 -0.62466305 0.36056755
vn -0.69265499 -0.66643686 0.27584591
vn 0.69265499 -0.66643686 0.27584591
vn -0.69279207 -0.69653466 0.18675815
vn 0.69279207 -0.69653466 0.18675815
vn -0.69254939 -0.71519001 0.09422621
vn 0.69254939 -0.71519001 0.09422621
vn -0.69987125 -0.71389242 0.02319151
vn 0.69987125 -0.71389242 0.02319151
vn -0.57735027 -0.57735027 -0.57735027
vn 0.57735027 -0.57735027 -0.57735027
vn -0.89481299 0.38669580 -0.22310552
vn 0.72218738 0.59913047 -0.34567046
vn 0.72217172 0.54871469 -0.42116529
vn -0.89481220 0.35414890 -0.27182656
vn 0.40824829 0.40824829 -0.81649658
vn 0.40824829 -0.40824829 -0.81649658
vn -0.69255571 0.09424636 0.71518124
vn 0.69986480 0.02321262 0.71389806
vn 0.69255571 0.09424636 0.71518124
vn -0.69986480 0.02321262 0.71389806
vn -0.69279207 0.18675815 0.69653466
vn 0.69279207 0.18675815 0.69653466
vn -0.69269800 0.27569727 0.66645367
vn 0.69269800 0.27569727 0.66645367
vn -0.69254284 0.36073659 0.62470275
vn 0.69254284 0.36073659 0.62470275
vn -0.69271896 0.43933761 0.57194659
vn 0.69271896 0.43933761 0.57194659
vn -0.69274810 0.50995101 0.50995101
vn 0.69274810 0.50995101 0.50995101
vn 0.69271896 0.57194659 0.43933761
vn -0.69271896 0.57194659 0.43933761
vn 0.69254284 0.62470275 0.36073659
vn -0.69254284 0.62470275 0.36073659
vn 0.69269800 0.66645367 0.27569727
vn -0.69269800 0.66645367 0.27569727
vn 0.69279207 0.69653466 0.18675815
vn -0.69279207 0.69653466 0.18675815
vn 0.69255571 0.71518124 0.09424636
vn -0.69255571 0.71518124 0.09424636
vn 0.69986480 0.71389806 0.02321262
vn -0.69986480 0.71389806 0.02321262
vn -0.57735027 0.57735027 -0.57735027
vn -0.57735027 -0.57735027 -0.57735027
vn 0.57735027 -0.57735027 -0.57735027
vn 0.57735027 -0.57735027 0.57735027
vn -0.57735027 -0.57735027 0.57735027
vn -0.57735027 -0.57735027 -0.57735027
vn 0.69976555 -0.71398471 0.02353718
vn -0.69976555 -0.71398471 0.02353718
vn 0.69274827 -0.71499719 0.09422772
vn -0.69274827 -0.71499719 0.09422772
vn -0.69263811 -0.57217279 0.43917052
vn 0.69268394 -0.50984291 0.51014623
vn -0.69268394 -0.50984291 0.51014623
vn 0.69263811 -0.57217279 0.43917052
vn -0.69278314 -0.43912997 0.57202831
vn 0.69278314 -0.43912997 0.57202831
vn -0.69258583 -0.36084045 0.62459510
vn 0.69258583 -0.36084045 0.62459510
vn -0.69265499 -0.27584591 0.66643686
vn 0.69265499 -0.27584591 0.66643686
vn -0.69277303 -0.18670143 0.69656881
vn 0.69277303 -0.18670143 0.69656881
vn -0.69257474 -0.09418088 0.71517144
vn 0.69257474 -0.09418088 0.71517144
vn -0.69986480 -0.02321262 0.71389806
vn 0.69986480 -0.02321262 0.71389806
vn -0.57735027 0.57735027 0.57735027
vn 0.57735027 0.57735027 0.57735027
vn 0.57735027 0.57735027 -0.57735027
vn -0.57735027 0.57735027 -0.57735027
vn 0.69260449 -0.69671157 0.18679404
vn -0.69260449 -0.69671157 0.18679404
vn -0.69262367 -0.62477067 0.36046367
vn 0.69262367 -0.62477067 0.36046367
vn 0.69279014 -0.66625413 0.27594794
vn -0.69279014 -0.66625413 0.27594794
f 1//1 2//2 3//3
f 4//4 2//2 1//1
f 4//4 5//5 2//2
f 6//6 5//5 4//4
f 6//6 7//7 5//5
f 8//8 7//7 6//6
f 8//8 9//9 7//7
f 10//10 9//9 8//8
f 10//10 11//11 9//9
f 12//12 11//11 10//10
f 12//12 13//13 11//11
f 14//14 13//13 12//12
f 14//14 15//15 13//13
f 16//16 15//15 14//14
f 16//16 17//17 15//15
f 18//18 17//17 16//16
f 18//18 19//19 17//17
f 20//20 19//19 18//18
f 20//20 21//21 19//19
f 22//22 21//21 20//20
f 22//22 23//23 21//21
f 23//23 22//22 24//24
f 25//25 26//26 27//27
f 25//25 28//28 26//26
f 25//25 29//29 28//28
f 25//25 30//30 29//29
f 25//25 31//31 30//30
f 25//25 32//32 31//31
f 32//32 25//25 33//33
f 34//34 35//35 36//36
f 37//37 35//35 34//34
f 38//38 35//35 37//37
f 39//39 35//35 38//38
f 40//40 35//35 39//39
f 41//41 35//35 40//40
f 35//35 41//41 42//42
f 43//43 44//44 45//45
f 44//44 43//43 46//46
f 47//47 46//46 43//43
f 46//46 47//47 48//48
f 45//45 49//49 50//50
f 49//49 45//45 44//44
f 51//51 48//48 47//47
f 48//48 51//51 52//52
f 53//53 50//50 49//49
f 50//50 53//53 54//54
f 51//51 55//55 52//52
f 55//55 51//51 56//56
f 57//57 54//54 53//53
f 54//54 57//57 58//58
f 56//56 59//59 55//55
f 59//59 56//56 60//60
f 57//57 61//61 58//58
f 61//61 57//57 62//62
f 60//60 63//63 59//59
f 63//63 60//60 64//64
f 62//62 65//65 61//61
f 65//65 62//62 66//66
f 64//64 67//67 63//63
f 67//67 64//64 68//68
f 66//66 69//69 65//65
f 69//69 66//66 70//70
f 68//68 71//71 67//67
f 71//71 68//68 72//72
f 70//70 73//73 69//69
f 73//73 70//70 74//74
f 72//72 75//75 71//71
f 75//75 72//72 76//76
f 77//77 74//74 78//78
f 74//74 77//77 73//73
f 79//79 75//75 76//76
f 75//75 79//79 80//80
f 81//81 78//78 82//82
f 78//78 81//81 77//77
f 79//79 83//83 80//80
f 83//83 79//79 84//84
f 85//85 81//81 82//82
f 81//81 85//85 86//86
f 83//83 87//87 88//88
f 87//87 83//83 84//84
f 89//89 86//86 85//85
f 86//86 89//89 90//90
f 88//88 90//90 89//89
f 90//90 88//88 87//87
f 91//91 92//92 93//93
f 91//91 35//35 92//92
f 91//91 36//36 35//35
f 91//91 34//34 36//36
f 91//91 37//37 34//34
f 94//94 37//37 91//91
f 94//94 38//38 37//37
f 94//94 39//39 38//38
f 94//94 40//40 39//39
f 94//94 41//41 40//40
f 94//94 42//42 41//41
f 95//95 42//42 94//94
f 95//95 96//96 42//42
f 96//96 97//97 98//98
f 99//99 96//96 95//95
f 99//99 97//97 96//96
f 100//100 97//97 99//99
f 100//100 101//101 97//97
f 100//100 102//102 101//101
f 103//103 102//102 100//100
f 104//104 102//102 103//103
f 104//104 105//105 102//102
f 105//105 104//104 106//106
f 107//107 108//108 109//109
f 110//110 108//108 107//107
f 110//110 111//111 108//108
f 112//112 111//111 110//110
f 112//112 113//113 111//111
f 112//112 114//114 113//113
f 93//93 114//114 112//112
f 92//92 114//114 93//93
f 115//115 114//114 92//92
f 115//115 116//116 114//114
f 25//25 116//116 115//115
f 27//27 116//116 25//25
f 26//26 116//116 27//27
f 28//28 116//116 26//26
f 29//29 116//116 28//28
f 29//29 117//117 116//116
f 30//30 117//117 29//29
f 31//31 117//117 30//30
f 32//32 117//117 31//31
f 33//33 117//117 32//32
f 33//33 118//118 117//117
f 98//98 118//118 33//33
f 118//118 98//98 97//97
f 14//14 119//119 120//120
f 119//119 14//14 16//16
f 120//120 121//121 122//122
f 121//121 120//120 119//119
f 16//16 123//123 119//119
f 123//123 16//16 18//18
f 12//12 120//120 124//124
f 120//120 12//12 14//14
f 119//119 125//125 121//121
f 125//125 119//119 123//123
f 124//124 122//122 126//126
f 122//122 124//124 120//120
f 20//20 123//123 18//18
f 123//123 20//20 127//127
f 10//10 124//124 128//128
f 124//124 10//10 12//12
f 127//127 125//125 123//123
f 125//125 127//127 129//129
f 128//128 126//126 130//130
f 126//126 128//128 124//124
f 22//22 127//127 20//20
f 127//127 22//22 131//131
f 8//8 128//128 132//132
f 128//128 8//8 10//10
f 131//131 129//129 127//127
f 129//129 131//131 133//133
f 132//132 130//130 134//134
f 130//130 132//132 128//128
f 24//24 131//131 22//22
f 131//131 24//24 135//135
f 6//6 132//132 136//136
f 132//132 6//6 8//8
f 131//131 137//137 133//133
f 137//137 131//131 135//135
f 136//136 134//134 138//138
f 134//134 136//136 132//132
f 23//23 135//135 24//24
f 135//135 23//23 139//139
f 140//140 6//6 136//136
f 6//6 140//140 4//4
f 135//135 141//141 137//137
f 141//141 135//135 139//139
f 138//138 140//140 136//136
f 140//140 138//138 142//142
f 21//21 139//139 23//23
f 139//139 21//21 143//143
f 144//144 4//4 140//140
f 4//4 144//144 1//1
f 139//139 145//145 141//141
f 145//145 139//139 143//143
f 142//142 144//144 140//140
f 144//144 142//142 146//146
f 19//19 143//143 21//21
f 143//143 19//19 147//147
f 148//148 1//1 144//144
f 1//1 148//148 3//3
f 143//143 149//149 145//145
f 149//149 143//143 147//147
f 146//146 148//148 144//144
f 148//148 146//146 150//150
f 19//19 151//151 147//147
f 151//151 19//19 17//17
f 152//152 3//3 148//148
f 3//3 152//152 2//2
f 147//147 153//153 149//149
f 153//153 147//147 151//151
f 154//154 148//148 150//150
f 148//148 154//154 152//152
f 17//17 155//155 151//151
f 155//155 17//17 15//15
f 156//156 2//2 152//152
f 2//2 156//156 5//5
f 151//151 157//157 153//153
f 157//157 151//151 155//155
f 158//158 152//152 154//154
f 152//152 158//158 156//156
f 15//15 159//159 155//155
f 159//159 15//15 13//13
f 160//160 5//5 156//156
f 5//5 160//160 7//7
f 155//155 161//161 157//157
f 161//161 155//155 159//159
f 162//162 156//156 158//158
f 156//156 162//162 160//160
f 13//13 163//163 159//159
f 163//163 13//13 11//11
f 9//9 160//160 164//164
f 160//160 9//9 7//7
f 159//159 165//165 161//161
f 165//165 159//159 163//163
f 164//164 162//162 166//166
f 162//162 164//164 160//160
f 11//11 164//164 163//163
f 164//164 11//11 9//9
f 163//163 166//166 165//165
f 166//166 163//163 164//164
f 92//92 167//167 168//168
f 167//167 92//92 96//96
f 169//169 170//170 171//171
f 169//169 172//172 170//170
f 169//169 173//173 172//172
f 169//169 174//174 173//173
f 169//169 175//175 174//174
f 169//169 176//176 175//175
f 169//169 177//177 176//176
f 169//169 178//178 177//177
f 169//169 179//179 178//178
f 169//169 180//180 179//179
f 169//169 181//181 180//180
f 169//169 182//182 181//181
f 169//169 183//183 182//182
f 169//169 184//184 183//183
f 169//169 185//185 184//184
f 169//169 186//186 185//185
f 187//187 188//188 189//189
f 190//190 188//188 187//187
f 191//191 188//188 190//190
f 192//192 188//188 191//191
f 193//193 188//188 192//192
f 194//194 188//188 193//193
f 186//186 188//188 194//194
f 188//188 186//186 169//169
f 195//195 171//171 170//170
f 196//196 171//171 195//195
f 197//197 171//171 196//196
f 198//198 171//171 197//197
f 199//199 171//171 198//198
f 200//200 171//171 199//199
f 201//201 171//171 200//200
f 202//202 171//171 201//201
f 203//203 171//171 202//202
f 204//204 171//171 203//203
f 205//205 171//171 204//204
f 206//206 171//171 205//205
f 207//207 171//171 206//206
f 208//208 171//171 207//207
f 188//188 209//209 189//189
f 188//188 210//210 209//209
f 188//188 211//211 210//210
f 188//188 212//212 211//211
f 188//188 213//213 212//212
f 168//168 213//213 188//188
f 168//168 208//208 213//213
f 168//168 171//171 208//208
f 167//167 171//171 168//168
f 171//171 167//167 214//214
f 98//98 167//167 96//96
f 167//167 98//98 215//215
f 98//98 216//216 215//215
f 216//216 98//98 115//115
f 217//217 218//218 219//219
f 217//217 220//220 218//218
f 217//217 221//221 220//220
f 217//217 222//222 221//221
f 217//217 223//223 222//222
f 217//217 224//224 223//223
f 217//217 225//225 224//224
f 217//217 226//226 225//225
f 217//217 227//227 226//226
f 217//217 228//228 227//227
f 217//217 229//229 228//228
f 217//217 230//230 229//229
f 217//217 231//231 230//230
f 217//217 232//232 231//231
f 217//217 233//233 232//232
f 234//234 235//235 236//236
f 237//237 235//235 234//234
f 238//238 235//235 237//237
f 239//239 235//235 238//238
f 240//240 235//235 239//239
f 241//241 235//235 240//240
f 233//233 235//235 241//241
f 235//235 233//233 217//217
f 242//242 219//219 218//218
f 243//243 219//219 242//242
f 244//244 219//219 243//243
f 245//245 219//219 244//244
f 246//246 219//219 245//245
f 247//247 219//219 246//246
f 248//248 219//219 247//247
f 249//249 219//219 248//248
f 250//250 219//219 249//249
f 251//251 219//219 250//250
f 252//252 219//219 251//251
f 253//253 219//219 252//252
f 254//254 219//219 253//253
f 255//255 219//219 254//254
f 256//256 219//219 255//255
f 235//235 257//257 236//236
f 235//235 258//258 257//257
f 235//235 259//259 258//258
f 235//235 260//260 259//259
f 235//235 261//261 260//260
f 215//215 261//261 235//235
f 215//215 256//256 261//261
f 215//215 219//219 256//256
f 216//216 219//219 215//215
f 219//219 216//216 262//262
f 216//216 92//92 168//168
f 92//92 216//216 115//115
f 98//98 92//92 115//115
f 92//92 98//98 96//96
f 252//252 181//181 182//182
f 181//181 252//252 251//251
f 253//253 182//182 183//183
f 182//182 253//253 252//252
f 251//251 180//180 181//181
f 180//180 251//251 250//250
f 254//254 183//183 184//184
f 183//183 254//254 253//253
f 250//250 179//179 180//180
f 179//179 250//250 249//249
f 255//255 184//184 185//185
f 184//184 255//255 254//254
f 249//249 178//178 179//179
f 178//178 249//249 248//248
f 256//256 185//185 186//186
f 185//185 256//256 255//255
f 248//248 177//177 178//178
f 177//177 248//248 247//247
f 261//261 186//186 194//194
f 186//186 261//261 256//256
f 246//246 177//177 247//247
f 177//177 246//246 176//176
f 193//193 261//261 194//194
f 261//261 193//193 260//260
f 245//245 176//176 246//246
f 176//176 245//245 175//175
f 192//192 260//260 193//193
f 260//260 192//192 259//259
f 244//244 175//175 245//245
f 175//175 244//244 174//174
f 191//191 259//259 192//192
f 259//259 191//191 258//258
f 243//243 174//174 244//244
f 174//174 243//243 173//173
f 190//190 258//258 191//191
f 258//258 190//190 257//257
f 242//242 173//173 243//243
f 173//173 242//242 172//172
f 187//187 257//257 190//190
f 257//257 187//187 236//236
f 218//218 172//172 242//242
f 172//172 218//218 170//170
f 189//189 236//236 187//187
f 236//236 189//189 234//234
f 220//220 170//170 218//218
f 170//170 220//220 195//195
f 209//209 234//234 189//189
f 234//234 209//209 237//237
f 221//221 195//195 220//220
f 195//195 221//221 196//196
f 210//210 237//237 209//209
f 237//237 210//210 238//238
f 222//222 196//196 221//221
f 196//196 222//222 197//197
f 211//211 238//238 210//210
f 238//238 211//211 239//239
f 223//223 197//197 222//222
f 197//197 223//223 198//198
f 212//212 239//239 211//211
f 239//239 212//212 240//240
f 224//224 198//198 223//223
f 198//198 224//224 199//199
f 213//213 240//240 212//212
f 240//240 213//213 241//241
f 224//224 200//200 199//199
f 200//200 224//224 225//225
f 233//233 213//213 208//208
f 213//213 233//233 241//241
f 225//225 201//201 200//200
f 201//201 225//225 226//226
f 232//232 208//208 207//207
f 208//208 232//232 233//233
f 226//226 202//202 201//201
f 202//202 226//226 227//227
f 231//231 207//207 206//206
f 207//207 231//231 232//232
f 227//227 203//203 202//202
f 203//203 227//227 228//228
f 230//230 206//206 205//205
f 206//206 230//230 231//231
f 228//228 204//204 203//203
f 204//204 228//228 229//229
f 229//229 205//205 204//204
f 205//205 229//229 230//230
f 263//263 264//264 265//265
f 266//266 264//264 263//263
f 264//264 266//266 267//267
f 263//263 268//268 269//269
f 268//268 263//263 265//265
f 269//269 270//270 271//271
f 270//270 269//269 268//268
f 271//271 272//272 273//273
f 272//272 271//271 270//270
f 274//274 275//275 276//276
f 275//275 274//274 277//277
f 277//277 278//278 275//275
f 278//278 277//277 279//279
f 279//279 280//280 278//278
f 280//280 279//279 281//281
f 281//281 282//282 280//280
f 282//282 281//281 283//283
f 283//283 284//284 282//282
f 284//284 283//283 285//285
f 285//285 286//286 284//284
f 286//286 285//285 287//287
f 287//287 288//288 286//286
f 288//288 287//287 289//289
f 289//289 290//290 288//288
f 290//290 289//289 291//291
f 291//291 292//292 290//290
f 292//292 291//291 293//293
f 293//293 294//294 292//292
f 294//294 293//293 295//295
f 295//295 296//296 294//294
f 296//296 295//295 297//297
f 297//297 298//298 296//296
f 298//298 297//297 299//299
f 299//299 300//300 298//298
f 300//300 299//299 301//301
f 302//302 300//300 301//301
f 300//300 302//302 303//303
f 304//304 303//303 302//302
f 303//303 304//304 305//305
f 306//306 305//305 304//304
f 305//305 306//306 307//307
f 308//308 307//307 306//306
f 307//307 308//308 309//309
f 310//310 309//309 308//308
f 309//309 310//310 311//311
f 312//312 311//311 310//310
f 311//311 312//312 313//313
f 314//314 313//313 312//312
f 315//315 313//313 314//314
f 313//313 315//315 316//316
f 315//315 317//317 316//316
f 317//317 315//315 318//318
f 317//317 319//319 320//320
f 319//319 317//317 318//318
f 320//320 321//321 322//322
f 321//321 320//320 319//319
f 322//322 323//323 324//324
f 323//323 322//322 321//321
f 324//324 325//325 326//326
f 325//325 324//324 323//323
f 326//326 327//327 328//328
f 327//327 326//326 325//325
f 328//328 329//329 330//330
f 329//329 328//328 327//327
f 330//330 331//331 332//332
f 331//331 330//330 329//329
f 331//331 333//333 332//332
f 333//333 331//331 334//334
f 334//334 335//335 333//333
f 335//335 334//334 336//336
f 336//336 337//337 335//335
f 337//337 336//336 338//338
f 338//338 339//339 337//337
f 339//339 338//338 340//340
f 340//340 341//341 339//339
f 341//341 340//340 342//342
f 342//342 343//343 341//341
f 343//343 342//342 344//344
f 344//344 345//345 343//343
f 345//345 344//344 346//346
f 346//346 347//347 345//345
f 347//347 346//346 348//348
f 348//348 349//349 347//347
f 349//349 348//348 350//350
f 350//350 351//351 349//349
f 351//351 350//350 352//352
f 352//352 353//353 351//351
f 353//353 352//352 354//354
f 354//354 355//355 353//353
f 355//355 354//354 356//356
f 356//356 357//357 355//355
f 357//357 356//356 358//358
f 359//359 357//357 358//358
f 357//357 359//359 360//360
f 361//361 360//360 359//359
f 360//360 361//361 362//362
f 363//363 362//362 361//361
f 362//362 363//363 364//364
f 365//365 364//364 363//363
f 364//364 365//365 366//366
f 367//367 366//366 365//365
f 366//366 367//367 368//368
f 369//369 368//368 367//367
f 368//368 369//369 370//370
f 371//371 370//370 369//369
f 370//370 371//371 372//372
f 371//371 266//266 372//372
f 266//266 371//371 267//267
f 273//273 373//373 374//374
f 373//373 273//273 272//272
f 322//322 317//317 320//320
f 324//324 317//317 322//322
f 326//326 317//317 324//324
f 328//328 317//317 326//326
f 330//330 317//317 328//328
f 332//332 317//317 330//330
f 333//333 317//317 332//332
f 335//335 317//317 333//333
f 337//337 317//317 335//335
f 339//339 317//317 337//337
f 341//341 317//317 339//339
f 341//341 316//316 317//317
f 343//343 316//316 341//341
f 343//343 313//313 316//316
f 343//343 311//311 313//313
f 343//343 309//309 311//311
f 343//343 307//307 309//309
f 343//343 305//305 307//307
f 343//343 303//303 305//305
f 343//343 300//300 303//303
f 343//343 298//298 300//300
f 343//343 296//296 298//298
f 343//343 294//294 296//296
f 343//343 292//292 294//294
f 343//343 290//290 292//292
f 343//343 288//288 290//290
f 343//343 286//286 288//288
f 343//343 284//284 286//286
f 345//345 284//284 343//343
f 345//345 282//282 284//284
f 345//345 280//280 282//282
f 345//345 278//278 280//280
f 345//345 275//275 278//278
f 345//345 276//276 275//275
f 345//345 375//375 276//276
f 345//345 374//374 375//375
f 345//345 273//273 374//374
f 345//345 271//271 273//273
f 345//345 269//269 271//271
f 345//345 263//263 269//269
f 347//347 263//263 345//345
f 347//347 266//266 263//263
f 349//349 266//266 347//347
f 351//351 266//266 349//349
f 353//353 266//266 351//351
f 355//355 266//266 353//353
f 357//357 266//266 355//355
f 360//360 266//266 357//357
f 362//362 266//266 360//360
f 364//364 266//266 362//362
f 366//366 266//266 364//364
f 368//368 266//266 366//366
f 370//370 266//266 368//368
f 266//266 370//370 372//372
f 375//375 274//274 276//276
f 274//274 375//375 376//376
f 267//267 265//265 264//264
f 267//267 348//348 265//265
f 267//267 350//350 348//348
f 267//267 352//352 350//350
f 267//267 354//354 352//352
f 267//267 356//356 354//354
f 267//267 358//358 356//356
f 267//267 359//359 358//358
f 267//267 361//361 359//359
f 267//267 363//363 361//361
f 267//267 365//365 363//363
f 267//267 367//367 365//365
f 371//371 367//367 267//267
f 367//367 371//371 369//369
f 318//318 321//321 319//319
f 318//318 323//323 321//321
f 318//318 325//325 323//323
f 318//318 327//327 325//325
f 318//318 329//329 327//327
f 318//318 331//331 329//329
f 318//318 334//334 331//331
f 318//318 336//336 334//334
f 318//318 338//338 336//336
f 318//318 340//340 338//338
f 318//318 342//342 340//340
f 315//315 342//342 318//318
f 314//314 342//342 315//315
f 312//312 342//342 314//314
f 312//312 344//344 342//342
f 310//310 344//344 312//312
f 308//308 344//344 310//310
f 306//306 344//344 308//308
f 304//304 344//344 306//306
f 302//302 344//344 304//304
f 301//301 344//344 302//302
f 299//299 344//344 301//301
f 297//297 344//344 299//299
f 295//295 344//344 297//297
f 293//293 344//344 295//295
f 291//291 344//344 293//293
f 289//289 344//344 291//291
f 287//287 344//344 289//289
f 285//285 344//344 287//287
f 285//285 346//346 344//344
f 283//283 346//346 285//285
f 281//281 346//346 283//283
f 279//279 346//346 281//281
f 277//277 346//346 279//279
f 274//274 346//346 277//277
f 376//376 346//346 274//274
f 373//373 346//346 376//376
f 272//272 346//346 373//373
f 270//270 346//346 272//272
f 268//268 346//346 270//270
f 265//265 346//346 268//268
f 346//346 265//265 348//348
f 374//374 376//376 375//375
f 376//376 374//374 373//373
f 314//314 310//310 312//312
f 314//314 308//308 310//310
f 314//314 306//306 308//308
f 314//314 304//304 306//306
f 314//314 302//302 304//304
f 314//314 301//301 302//302
f 314//314 299//299 301//301
f 314//314 297//297 299//299
f 314//314 295//295 297//297
f 314//314 293//293 295//295
f 314//314 291//291 293//293
f 314//314 289//289 291//291
f 314//314 287//287 289//289
f 314//314 285//285 287//287
f 314//314 283//283 285//285
f 314//314 281//281 283//283
f 314//314 279//279 281//281
f 314//314 277//277 279//279
f 314//314 274//274 277//277
f 314//314 376//376 274//274
f 314//314 373//373 376//376
f 314//314 272//272 373//373
f 314//314 270//270 272//272
f 314//314 268//268 270//270
f 264//264 268//268 314//314
f 268//268 264//264 265//265
f 264//264 377//377 378//378
f 377//377 264//264 314//314
f 379//379 380//380 381//381
f 380//380 379//379 382//382
f 383//383 381//381 384//384
f 381//381 383//383 379//379
f 385//385 384//384 386//386
f 384//384 385//385 383//383
f 387//387 386//386 388//388
f 386//386 387//387 385//385
f 389//389 388//388 390//390
f 388//388 389//389 387//387
f 391//391 390//390 392//392
f 390//390 391//391 389//389
f 393//393 391//391 392//392
f 391//391 393//393 394//394
f 395//395 394//394 393//393
f 394//394 395//395 396//396
f 397//397 396//396 395//395
f 396//396 397//397 398//398
f 399//399 398//398 397//397
f 398//398 399//399 400//400
f 401//401 400//400 399//399
f 400//400 401//401 402//402
f 403//403 402//402 401//401
f 402//402 403//403 404//404
f 377//377 404//404 403//403
f 404//404 377//377 405//405
f 406//406 377//377 407//407
f 377//377 406//406 405//405
f 382//382 408//408 380//380
f 408//408 382//382 409//409
f 401//401 377//377 403//403
f 399//399 377//377 401//401
f 397//397 377//377 399//399
f 395//395 377//377 397//397
f 393//393 377//377 395//395
f 392//392 377//377 393//393
f 390//390 377//377 392//392
f 388//388 377//377 390//390
f 386//386 377//377 388//388
f 384//384 377//377 386//386
f 381//381 377//377 384//384
f 380//380 377//377 381//381
f 408//408 377//377 380//380
f 377//377 408//408 407//407
f 410//410 411//411 412//412
f 411//411 410//410 378//378
f 412//412 413//413 414//414
f 413//413 412//412 411//411
f 415//415 416//416 417//417
f 416//416 415//415 418//418
f 419//419 416//416 420//420
f 416//416 419//419 417//417
f 421//421 420//420 422//422
f 420//420 421//421 419//419
f 423//423 422//422 424//424
f 422//422 423//423 421//421
f 425//425 424//424 426//426
f 424//424 425//425 423//423
f 427//427 426//426 428//428
f 426//426 427//427 425//425
f 429//429 428//428 430//430
f 428//428 429//429 427//427
f 431//431 430//430 432//432
f 430//430 431//431 429//429
f 410//410 433//433 378//378
f 433//433 410//410 434//434
f 414//414 435//435 436//436
f 435//435 414//414 413//413
f 437//437 418//418 415//415
f 418//418 437//437 438//438
f 430//430 433//433 432//432
f 428//428 433//433 430//430
f 426//426 433//433 428//428
f 424//424 433//433 426//426
f 422//422 433//433 424//424
f 420//420 433//433 422//422
f 416//416 433//433 420//420
f 418//418 433//433 416//416
f 438//438 433//433 418//418
f 439//439 433//433 438//438
f 435//435 433//433 439//439
f 413//413 433//433 435//435
f 411//411 433//433 413//413
f 433//433 411//411 378//378
f 436//436 439//439 440//440
f 439//439 436//436 435//435
f 440//440 438//438 437//437
f 438//438 440//440 439//439
f 433//433 431//431 432//432
f 431//431 433//433 434//434
f 434//434 429//429 431//431
f 434//434 427//427 429//429
f 434//434 425//425 427//427
f 434//434 423//423 425//425
f 434//434 421//421 423//423
f 434//434 419//419 421//421
f 434//434 417//417 419//419
f 434//434 415//415 417//417
f 434//434 437//437 415//415
f 434//434 440//440 437//437
f 434//434 436//436 440//440
f 434//434 414//414 436//436
f 410//410 414//414 434//434
f 414//414 410//410 412//412
f 406//406 408//408 409//409
f 408//408 406//406 407//407
f 405//405 402//402 404//404
f 405//405 400//400 402//402
f 405//405 398//398 400//400
f 405//405 396//396 398//398
f 405//405 394//394 396//396
f 405//405 391//391 394//394
f 405//405 389//389 391//391
f 405//405 387//387 389//389
f 405//405 385//385 387//387
f 405//405 383//383 385//385
f 405//405 379//379 383//383
f 405//405 382//382 379//379
f 406//406 382//382 405//405
f 382//382 406//406 409//409
f 235//235 167//167 215//215
f 167//167 235//235 214//214
f 216//216 188//188 262//262
f 188//188 216//216 168//168
f 235//235 171//171 214//214
f 171//171 235//235 217//217
f 219//219 188//188 169//169
f 188//188 219//219 262//262
f 171//171 219//219 169//169
f 219//219 171//171 217//217