# https://github.com/mikedh/trimesh
v 0.04059500 0.00803000 -0.02604400
v 0.04082100 0.00803000 -0.02604400
v 0.04059500 0.00803000 -0.02603900
v 0.04082100 0.00803000 -0.02603900
v -0.04020600 0.00803200 -0.02604400
v -0.03998100 0.00803200 -0.02603900
v -0.04020600 0.00803200 -0.02603900
v -0.03998100 0.00803200 -0.02604400
v 0.04177000 -0.01674300 -0.02655000
v 0.04184300 -0.01675200 -0.02542400
v 0.04177000 -0.01674300 -0.02542400
v 0.04184300 -0.01675200 -0.02655000
v 0.04170200 -0.01671500 -0.02655000
v 0.04170200 -0.01671500 -0.02542400
v 0.04164400 -0.01667000 -0.02655000
v 0.04164400 -0.01667000 -0.02542400
v 0.04160000 -0.01661200 -0.02542400
v 0.04160000 -0.01661200 -0.02655000
v 0.04157100 -0.01654400 -0.02542400
v 0.04157100 -0.01654400 -0.02655000
v 0.04156200 -0.01647100 -0.02542400
v 0.04156200 -0.01647100 -0.02655000
v 0.04157100 -0.01639800 -0.02542400
v 0.04157100 -0.01639800 -0.02655000
v 0.04160000 -0.01633000 -0.02542400
v 0.04160000 -0.01633000 -0.02655000
v 0.04164400 -0.01627200 -0.02542400
v 0.04164400 -0.01627200 -0.02655000
v 0.04170200 -0.01622700 -0.02655000
v 0.04170200 -0.01622700 -0.02542400
v 0.04177000 -0.01619900 -0.02655000
v 0.04177000 -0.01619900 -0.02542400
v 0.04184300 -0.01618900 -0.02655000
v 0.04184300 -0.01618900 -0.02542400
v 0.04191600 -0.01619900 -0.02655000
v 0.04191600 -0.01619900 -0.02542400
v 0.04198400 -0.01622700 -0.02655000
v 0.04198400 -0.01622700 -0.02542400
v 0.04204200 -0.01627200 -0.02655000
v 0.04204200 -0.01627200 -0.02542400
v 0.04208700 -0.01633000 -0.02542400
v 0.04208700 -0.01633000 -0.02655000
v 0.04211500 -0.01639800 -0.02542400
v 0.04211500 -0.01639800 -0.02655000
v 0.04212500 -0.01647100 -0.02542400
v 0.04212500 -0.01647100 -0.02655000
v 0.04211500 -0.01654400 -0.02542400
v 0.04211500 -0.01654400 -0.02655000
v 0.04208700 -0.01661200 -0.02542400
v 0.04208700 -0.01661200 -0.02655000
v 0.04204200 -0.01667000 -0.02542400
v 0.04204200 -0.01667000 -0.02655000
v 0.04198400 -0.01671500 -0.02655000
v 0.04198400 -0.01671500 -0.02542400
v 0.04191600 -0.01674300 -0.02655000
v 0.04191600 -0.01674300 -0.02542400
v 0.03997600 0.00858900 -0.02655000
v 0.04004900 0.00859900 -0.02542400
v 0.03997600 0.00858900 -0.02542400
v 0.04004900 0.00859900 -0.02655000
v 0.03990300 0.00859900 -0.02655000
v 0.03990300 0.00859900 -0.02542400
v 0.03983500 0.00862700 -0.02655000
v 0.03983500 0.00862700 -0.02542400
v 0.03977700 0.00867200 -0.02655000
v 0.03977700 0.00867200 -0.02542400
v 0.03973200 0.00873000 -0.02542400
v 0.03973200 0.00873000 -0.02655000
v 0.03970400 0.00894400 -0.02655000
v 0.03973200 0.00901200 -0.02542400
v 0.03973200 0.00901200 -0.02655000
v 0.03970400 0.00894400 -0.02542400
v 0.03977700 0.00907000 -0.02542400
v 0.03977700 0.00907000 -0.02655000
v 0.03983500 0.00911500 -0.02655000
v 0.03983500 0.00911500 -0.02542400
v 0.03990300 0.00914300 -0.02655000
v 0.03990300 0.00914300 -0.02542400
v 0.03997600 0.00915200 -0.02655000
v 0.03997600 0.00915200 -0.02542400
v 0.04004900 0.00914300 -0.02655000
v 0.04004900 0.00914300 -0.02542400
v 0.04011700 0.00911500 -0.02655000
v 0.04011700 0.00911500 -0.02542400
v 0.04017500 0.00907000 -0.02655000
v 0.04017500 0.00907000 -0.02542400
v 0.04022000 0.00901200 -0.02542400
v 0.04022000 0.00901200 -0.02655000
v 0.04024800 0.00894400 -0.02542400
v 0.04024800 0.00894400 -0.02655000
v 0.04025700 0.00887100 -0.02542400
v 0.04025700 0.00887100 -0.02655000
v 0.04024800 0.00879800 -0.02542400
v 0.04024800 0.00879800 -0.02655000
v 0.04022000 0.00873000 -0.02542400
v 0.04022000 0.00873000 -0.02655000
v 0.04017500 0.00867200 -0.02542400
v 0.04017500 0.00867200 -0.02655000
v 0.04011700 0.00862700 -0.02655000
v 0.04011700 0.00862700 -0.02542400
v 0.03970400 0.00879800 -0.02542400
v 0.03970400 0.00879800 -0.02655000
v 0.03969500 0.00887100 -0.02655000
v 0.03969500 0.00887100 -0.02542400
v -0.04122900 -0.01675000 -0.02655000
v -0.04115600 -0.01674000 -0.02655000
v -0.04122900 -0.01675000 -0.02542400
v -0.04115600 -0.01674000 -0.02542400
v -0.04108800 -0.01671200 -0.02655000
v -0.04108800 -0.01671200 -0.02542400
v -0.04103000 -0.01666700 -0.02655000
v -0.04103000 -0.01666700 -0.02542400
v -0.04098500 -0.01660900 -0.02542400
v -0.04098500 -0.01660900 -0.02655000
v -0.04095700 -0.01654100 -0.02542400
v -0.04095700 -0.01654100 -0.02655000
v -0.04094800 -0.01646800 -0.02542400
v -0.04094800 -0.01646800 -0.02655000
v -0.04095700 -0.01639500 -0.02542400
v -0.04095700 -0.01639500 -0.02655000
v -0.04098500 -0.01632800 -0.02542400
v -0.04098500 -0.01632800 -0.02655000
v -0.04103000 -0.01626900 -0.02542400
v -0.04103000 -0.01626900 -0.02655000
v -0.04108800 -0.01622400 -0.02655000
v -0.04108800 -0.01622400 -0.02542400
v -0.04115600 -0.01619600 -0.02655000
v -0.04115600 -0.01619600 -0.02542400
v -0.04122900 -0.01618700 -0.02655000
v -0.04122900 -0.01618700 -0.02542400
v -0.04130200 -0.01619600 -0.02655000
v -0.04130200 -0.01619600 -0.02542400
v -0.04137000 -0.01622500 -0.02655000
v -0.04137000 -0.01622500 -0.02542400
v -0.04142800 -0.01626900 -0.02655000
v -0.04142800 -0.01626900 -0.02542400
v -0.04147300 -0.01632800 -0.02655000
v -0.04147300 -0.01632800 -0.02542400
v -0.04150100 -0.01639500 -0.02655000
v -0.04150100 -0.01639500 -0.02542400
v -0.04151100 -0.01646800 -0.02655000
v -0.04151100 -0.01646800 -0.02542400
v -0.04150100 -0.01654100 -0.02655000
v -0.04150100 -0.01654100 -0.02542400
v -0.04147300 -0.01660900 -0.02655000
v -0.04147300 -0.01660900 -0.02542400
v -0.04142800 -0.01666700 -0.02655000
v -0.04142800 -0.01666700 -0.02542400
v -0.04137000 -0.01671200 -0.02655000
v -0.04137000 -0.01671200 -0.02542400
v -0.04130200 -0.01674000 -0.02655000
v -0.04130200 -0.01674000 -0.02542400
v -0.03943500 0.00860200 -0.02655000
v -0.03936200 0.00859200 -0.02655000
v -0.03943500 0.00860200 -0.02542400
v -0.03936200 0.00859200 -0.02542400
v -0.03928900 0.00860200 -0.02655000
v -0.03928900 0.00860200 -0.02542400
v -0.03922100 0.00863000 -0.02655000
v -0.03922100 0.00863000 -0.02542400
v -0.03916300 0.00867400 -0.02655000
v -0.03916300 0.00867400 -0.02542400
v -0.03911800 0.00873300 -0.02542400
v -0.03911800 0.00873300 -0.02655000
v -0.03909000 0.00894600 -0.02542400
v -0.03909000 0.00894600 -0.02655000
v -0.03911800 0.00901400 -0.02542400
v -0.03911800 0.00901400 -0.02655000
v -0.03916300 0.00907200 -0.02542400
v -0.03916300 0.00907200 -0.02655000
v -0.03922100 0.00911700 -0.02655000
v -0.03922100 0.00911700 -0.02542400
v -0.03928900 0.00914500 -0.02655000
v -0.03928900 0.00914500 -0.02542400
v -0.03936200 0.00915500 -0.02655000
v -0.03936200 0.00915500 -0.02542400
v -0.03943500 0.00914500 -0.02655000
v -0.03943500 0.00914500 -0.02542400
v -0.03950300 0.00911700 -0.02655000
v -0.03950300 0.00911700 -0.02542400
v -0.03956100 0.00907200 -0.02655000
v -0.03956100 0.00907200 -0.02542400
v -0.03960600 0.00901400 -0.02655000
v -0.03960600 0.00901400 -0.02542400
v -0.03963400 0.00894600 -0.02655000
v -0.03963400 0.00894600 -0.02542400
v -0.03964300 0.00887300 -0.02655000
v -0.03964300 0.00887300 -0.02542400
v -0.03963400 0.00880100 -0.02655000
v -0.03963400 0.00880100 -0.02542400
v -0.03960600 0.00873300 -0.02655000
v -0.03960600 0.00873300 -0.02542400
v -0.03956100 0.00867400 -0.02655000
v -0.03956100 0.00867400 -0.02542400
v -0.03950300 0.00863000 -0.02655000
v -0.03950300 0.00863000 -0.02542400
v -0.03909000 0.00880100 -0.02542400
v -0.03909000 0.00880100 -0.02655000
v -0.03908000 0.00887400 -0.02655000
v -0.03908000 0.00887400 -0.02542400
v -0.03973000 0.01340800 0.01512400
v -0.03973000 0.01305200 0.01967700
v -0.03973000 0.01471200 0.01913800
v -0.03973000 0.01174800 0.01566300
v 0.04034400 0.01340800 0.01512400
v 0.04034400 0.01471200 0.01913800
v 0.04034400 0.01174800 0.01566300
v 0.04034400 0.01305200 0.01967700
v -0.03973000 0.00879100 0.00656300
v 0.04034400 0.01045100 0.00602400
v 0.04034400 0.00879100 0.00656300
v -0.03973000 0.01045100 0.00602400
v -0.03973000 0.01175600 0.01003800
v 0.04034400 0.01175600 0.01003800
v 0.04034400 0.01009600 0.01057800
v -0.03973000 0.01009600 0.01057800
v -0.03973000 0.01027000 0.01111300
v 0.04034400 0.01193000 0.01057400
v 0.04034400 0.01027000 0.01111300
v -0.03973000 0.01193000 0.01057400
v -0.03973000 0.01323400 0.01458800
v 0.04034400 0.01323400 0.01458800
v 0.04034400 0.01157400 0.01512800
v -0.03973000 0.01157400 0.01512800
v 0.04191400 -0.01259800 -0.00298200
v -0.04129900 -0.01259800 -0.00168400
v 0.04191400 -0.01259800 -0.00168400
v -0.04129900 -0.01259800 -0.00298200
v 0.04230600 -0.01725800 -0.00266400
v -0.04169200 -0.01725800 -0.00266400
v -0.04169200 -0.01725800 -0.00136700
v 0.04230600 -0.01725800 -0.00136700
v -0.04125200 -0.01203500 -0.00302000
v -0.04090700 -0.00793800 -0.00200200
v -0.04090700 -0.00793800 -0.00330000
v -0.04125200 -0.01203500 -0.00172300
v 0.04186600 -0.01203500 -0.00302000
v 0.04152100 -0.00793800 -0.00330000
v 0.04186600 -0.01203500 -0.00172300
v 0.04152100 -0.00793800 -0.00200200
v 0.04108200 -0.00271500 -0.00235800
v 0.04073700 0.00138200 -0.00393500
v 0.04073700 0.00138200 -0.00263700
v 0.04108200 -0.00271500 -0.00365600
v -0.04012200 0.00138200 -0.00393500
v -0.04046700 -0.00271500 -0.00365600
v -0.04012200 0.00138200 -0.00263700
v -0.04046700 -0.00271500 -0.00235800
v -0.04086000 -0.00737500 -0.00333800
v -0.04051500 -0.00327800 -0.00232000
v -0.04051500 -0.00327800 -0.00361800
v -0.04086000 -0.00737500 -0.00204000
v 0.04147400 -0.00737500 -0.00333800
v 0.04112900 -0.00327800 -0.00361800
v 0.04147400 -0.00737500 -0.00204000
v 0.04112900 -0.00327800 -0.00232000
v 0.04068900 0.00194500 -0.00267600
v 0.04034400 0.00604200 -0.00425300
v 0.04034400 0.00604200 -0.00295500
v 0.04068900 0.00194500 -0.00397400
v -0.03973000 0.00604200 -0.00425300
v -0.04007500 0.00194500 -0.00397400
v -0.03973000 0.00604200 -0.00295500
v -0.04007500 0.00194500 -0.00267600
v -0.03864400 0.00423100 -0.00432300
v -0.03852200 0.00567900 -0.00464800
v -0.03852200 0.00569500 -0.00442500
v -0.03864400 0.00421600 -0.00454800
v -0.03852200 0.00569500 -0.00442300
v 0.03925800 0.00423100 -0.00432300
v 0.03913600 0.00569500 -0.00442300
v 0.03913600 0.00569500 -0.00442500
v 0.03913600 0.00567900 -0.00464800
v 0.03925800 0.00421600 -0.00454800
v 0.04080900 -0.01423400 -0.00328700
v -0.04019400 -0.01423400 -0.00306100
v 0.04080900 -0.01423400 -0.00306100
v -0.04019400 -0.01423400 -0.00328700
v -0.04032600 -0.01592300 -0.00465100
v 0.04094000 -0.01592300 -0.00296200
v -0.04032600 -0.01592300 -0.00296200
v 0.04094100 -0.01592300 -0.00465100
v 0.04093100 -0.01569800 -0.00296200
v -0.04031700 -0.01569800 -0.00296200
v -0.04031700 -0.01569800 -0.00465100
v -0.04031700 -0.01569800 -0.00318700
v 0.04093100 -0.01569800 -0.00465100
v 0.04093100 -0.01569800 -0.00318700
v 0.03925900 0.00422800 -0.00432300
v 0.03913600 0.00567600 -0.00464800
v 0.03913600 0.00569200 -0.00442500
v 0.03925900 0.00421300 -0.00454800
v 0.04141700 -0.01720400 -0.02626900
v 0.04129600 -0.01711900 -0.02604400
v 0.04141700 -0.01720400 -0.02604400
v 0.04129600 -0.01711900 -0.02626900
v 0.04119200 -0.01701400 -0.02626900
v 0.04119200 -0.01701400 -0.02604400
v 0.04110800 -0.01689300 -0.02626900
v 0.04110800 -0.01689300 -0.02604400
v 0.04104600 -0.01675900 -0.02626900
v 0.04104600 -0.01675900 -0.02604400
v 0.04100800 -0.01661600 -0.02626900
v 0.04100800 -0.01661600 -0.02604400
v 0.04169300 -0.01730600 -0.02626900
v 0.04155000 -0.01726700 -0.02604400
v 0.04169300 -0.01730600 -0.02604400
v 0.04155000 -0.01726700 -0.02626900
v 0.04184000 -0.01731900 -0.02626900
v 0.04184000 -0.01731900 -0.02604400
v 0.04093100 -0.01570100 -0.02626900
v 0.04093100 -0.01570100 -0.02604400
v 0.04093100 -0.01570100 -0.00465100
v 0.04094000 -0.01592600 -0.02604400
v 0.04094100 -0.01592600 -0.00465100
v 0.04093100 -0.01570100 -0.00296200
v 0.04093100 -0.01570100 -0.00318700
v 0.04094100 -0.01592600 -0.00296200
v 0.04239000 -0.01557800 -0.00296200
v 0.04240900 -0.01580300 -0.00296200
v 0.04240900 -0.01580300 -0.02604400
v 0.04080800 -0.01423700 -0.00306100
v 0.04080800 -0.01423700 -0.00328700
v 0.03913600 0.00569200 -0.00465000
v 0.03913100 0.00605900 -0.00467500
v 0.03913100 0.00605900 -0.00445000
v 0.04059500 0.00605800 -0.00466700
v 0.04059500 0.00605800 -0.00444100
v 0.04239000 -0.01557800 -0.00318700
v 0.04059500 0.00574400 -0.00442000
v 0.04239000 -0.01557800 -0.02604400
v 0.04253100 -0.01726100 -0.02604400
v 0.04261400 -0.01555900 -0.02626900
v 0.04275500 -0.01724200 -0.02626900
v 0.04275500 -0.01724200 -0.02604400
v 0.04261400 -0.01555900 -0.02604400
v 0.04239000 -0.01557800 -0.00149800
v 0.04252800 -0.01722400 -0.00138500
v 0.04253100 -0.01726100 -0.00138500
v 0.04059500 0.00574400 -0.00464600
v 0.04059500 0.00574400 -0.00295600
v 0.04275200 -0.01720500 -0.00138500
v 0.04275500 -0.01724200 -0.00138500
v 0.04261400 -0.01555900 -0.00318700
v 0.04082000 0.00574400 -0.00295600
v 0.04261400 -0.01555900 -0.00149800
v 0.04082000 0.00574400 -0.00464400
v 0.03913100 0.00596600 -0.00465100
v 0.04081400 0.00574100 -0.00467500
v 0.03913100 0.00574200 -0.00467500
v 0.04081400 0.00596500 -0.00465100
v 0.04081500 0.00802700 -0.02606300
v 0.03913200 0.00825100 -0.02603900
v 0.03913200 0.00802700 -0.02606300
v 0.04081500 0.00825100 -0.02603900
v 0.04059500 0.00732000 -0.00348300
v 0.04082000 0.00732000 -0.00348300
v 0.04059500 0.00574400 -0.00465200
v 0.04082000 0.00574400 -0.00465300
v 0.04059600 0.00971500 -0.02604400
v 0.04082100 0.00971500 -0.02588800
v 0.04059600 0.00971500 -0.02588800
v 0.04082100 0.00971500 -0.02604400
v 0.03937700 0.00947000 -0.02626900
v 0.03949000 0.00956500 -0.02604400
v 0.03937700 0.00947000 -0.02604400
v 0.03949000 0.00956500 -0.02626900
v 0.03928200 0.00935700 -0.02604400
v 0.03928200 0.00935700 -0.02626900
v 0.03920800 0.00922900 -0.02604400
v 0.03920800 0.00922900 -0.02626900
v 0.03915800 0.00909000 -0.02604400
v 0.03915800 0.00909000 -0.02626900
v 0.03913200 0.00894400 -0.02604400
v 0.03913200 0.00894400 -0.02626900
v 0.03975700 0.00968900 -0.02626900
v 0.03990300 0.00971500 -0.02604400
v 0.03975700 0.00968900 -0.02604400
v 0.03990300 0.00971500 -0.02626900
v 0.03961800 0.00963900 -0.02626900
v 0.03961800 0.00963900 -0.02604400
v 0.03913200 0.00802600 -0.02604400
v 0.03913200 0.00802600 -0.02626900
v 0.04082100 0.00802600 -0.02626900
v 0.04082100 0.00971500 -0.02626900
v 0.04082100 0.00802600 -0.02604400
v 0.04059500 0.01465900 0.01910800
v 0.04082000 0.01465900 0.01911200
v 0.04059500 0.01465900 0.01911200
v 0.04082000 0.01465900 0.01910800
v 0.04059500 0.00732000 -0.00348000
v 0.04082000 0.00732000 -0.00348000
v 0.04059500 0.01311400 0.01961400
v 0.04082000 0.01311400 0.01961400
v 0.04059500 0.00577800 -0.00296400
v 0.04082000 0.00577800 -0.00296400
v -0.03864400 0.00421500 -0.00454800
v -0.03864400 0.00423000 -0.00432300
v -0.03852200 0.00569400 -0.00442500
v -0.04068200 -0.01711600 -0.02626900
v -0.04080300 -0.01720200 -0.02626900
v -0.04068200 -0.01711600 -0.02604400
v -0.04080300 -0.01720200 -0.02604400
v -0.04057800 -0.01701200 -0.02626900
v -0.04057800 -0.01701200 -0.02604400
v -0.04049300 -0.01689000 -0.02626900
v -0.04049300 -0.01689000 -0.02604400
v -0.04043100 -0.01675600 -0.02626900
v -0.04043100 -0.01675600 -0.02604400
v -0.04039400 -0.01661300 -0.02626900
v -0.04039400 -0.01661300 -0.02604400
v -0.04093600 -0.01726400 -0.02626900
v -0.04107900 -0.01730300 -0.02626900
v -0.04093600 -0.01726400 -0.02604400
v -0.04107900 -0.01730300 -0.02604400
v -0.04122600 -0.01731700 -0.02626900
v -0.04122600 -0.01731700 -0.02604400
v -0.04031700 -0.01569800 -0.02626900
v -0.04031700 -0.01569800 -0.02604400
v -0.04032600 -0.01592300 -0.02604400
v -0.04179400 -0.01580000 -0.00296200
v -0.04177600 -0.01557600 -0.00296200
v -0.04179400 -0.01580000 -0.02604400
v -0.03852200 0.00569400 -0.00465000
v -0.03851700 0.00606100 -0.00467500
v -0.03851700 0.00606100 -0.00445000
v -0.03998100 0.00606100 -0.00466700
v -0.03998100 0.00606100 -0.00444100
v -0.04177600 -0.01557600 -0.00318700
v -0.03998100 0.00574700 -0.00442000
v -0.04177600 -0.01557600 -0.02604400
v -0.04191700 -0.01725900 -0.02604400
v -0.04214100 -0.01724000 -0.02626900
v -0.04200000 -0.01555700 -0.02626900
v -0.04214100 -0.01724000 -0.02604400
v -0.04200000 -0.01555700 -0.02604400
v -0.04191700 -0.01725900 -0.00138500
v -0.04191400 -0.01722200 -0.00138500
v -0.04177600 -0.01557600 -0.00149800
v -0.03998100 0.00574700 -0.00464600
v -0.03998100 0.00574700 -0.00295600
v -0.04214100 -0.01724000 -0.00138500
v -0.04213800 -0.01720300 -0.00138500
v -0.04200000 -0.01555700 -0.00318700
v -0.04200000 -0.01555700 -0.00149800
v -0.04020600 0.00574700 -0.00295600
v -0.04020600 0.00574700 -0.00464400
v -0.04020000 0.00596800 -0.00465100
v -0.03851700 0.00596800 -0.00465100
v -0.04020000 0.00574400 -0.00467500
v -0.03851700 0.00574400 -0.00467500
v -0.04020100 0.00825400 -0.02603900
v -0.04020100 0.00803000 -0.02606300
v -0.03851800 0.00825400 -0.02603900
v -0.03851700 0.00803000 -0.02606300
v -0.04020600 0.00732300 -0.00348300
v -0.03998100 0.00732300 -0.00348300
v -0.04020600 0.00574700 -0.00465300
v -0.03998100 0.00574700 -0.00465200
v -0.04020700 0.00971700 -0.02604400
v -0.03998200 0.00971700 -0.02604400
v -0.04020700 0.00971700 -0.02588800
v -0.03998200 0.00971700 -0.02588800
v -0.03887600 0.00956800 -0.02626900
v -0.03876300 0.00947300 -0.02626900
v -0.03887600 0.00956800 -0.02604400
v -0.03876300 0.00947300 -0.02604400
v -0.03866800 0.00935900 -0.02626900
v -0.03866800 0.00935900 -0.02604400
v -0.03859400 0.00923100 -0.02626900
v -0.03859400 0.00923100 -0.02604400
v -0.03854300 0.00909300 -0.02626900
v -0.03854300 0.00909300 -0.02604400
v -0.03851800 0.00894700 -0.02626900
v -0.03851800 0.00894700 -0.02604400
v -0.03928800 0.00971800 -0.02626900
v -0.03914300 0.00969200 -0.02626900
v -0.03928800 0.00971800 -0.02604400
v -0.03914300 0.00969200 -0.02604400
v -0.03900400 0.00964100 -0.02626900
v -0.03900400 0.00964100 -0.02604400
v -0.03851700 0.00802900 -0.02604400
v -0.03851700 0.00802900 -0.02626900
v -0.04020700 0.00971700 -0.02626900
v -0.04020600 0.00802800 -0.02626900
v -0.04020600 0.00802800 -0.02604400
v -0.04020600 0.01466200 0.01910800
v -0.03998100 0.01466200 0.01910800
v -0.04020600 0.01466200 0.01911200
v -0.03998100 0.01466200 0.01911200
v -0.04020600 0.00732300 -0.00348000
v -0.03998100 0.00732300 -0.00348000
v -0.04020600 0.01311600 0.01961400
v -0.03998100 0.01311600 0.01961400
v -0.03998100 0.00578000 -0.00296400
v -0.04020600 0.00578000 -0.00296400
vn 0.00000000 -0.00000000 0.00000000
vn 0.00000000 0.00000000 0.00000000
vn 0.00000000 0.00000000 0.00000000
vn -0.00000000 -0.00000000 0.00000000
vn -0.00000000 -0.00000000 -0.00000000
vn 0.00000000 -0.00000000 0.00000000
vn 0.00000000 0.00000000 0.00000000
vn 0.00000000 0.00000000 -0.00000000
vn 0.00000000 0.00000000 -0.00000000
vn 0.00000000 0.00000000 -0.00000000
vn -0.00000000 -0.00000000 0.00000000
vn 0.00000000 -0.00000000 0.00000000
vn -0.00000000 -0.00000000 0.00000000
vn 0.00000000 0.00000000 0.00000000
vn 0.00000000 0.00000000 -0.00000000
vn -0.00000000 -0.00000000 0.00000000
vn 0.00000000 0.00000000 0.00000000
vn 0.00000000 -0.00000000 -0.00000000
vn -0.00000000 -0.00000000 -0.00000000
vn 0.00000000 0.00000000 0.00000000
vn 0.00000000 0.00000000 0.00000000
vn 0.00000000 -0.00000000 -0.00000000
vn 0.00000000 -0.00000000 -0.00000000
vn -0.00000000 0.00000000 0.00000000
vn -0.00000000 0.00000000 -0.00000000
vn 0.00000000 -0.00000000 0.00000000
vn 0.00000000 -0.00000000 -0.00000000
vn -0.00000000 0.00000000 0.00000000
vn 0.00000000 -0.00000000 -0.00000000
vn -0.00000000 0.00000000 0.00000000
vn -0.00000000 0.00000000 0.00000000
vn 0.00000000 -0.00000000 0.00000000
vn 0.00000000 -0.00000000 0.00000000
vn 0.00000000 0.00000000 -0.00000000
vn -0.00000000 -0.00000000 -0.00000000
vn 0.00000000 0.00000000 -0.00000000
vn 0.00000000 0.00000000 -0.00000000
vn -0.00000000 -0.00000000 -0.00000000
vn -0.00000000 -0.00000000 -0.00000000
vn 0.00000000 0.00000000 0.00000000
vn -0.00000000 -0.00000000 0.00000000
vn 0.00000000 0.00000000 0.00000000
vn 0.00000000 0.00000000 0.00000000
vn -0.00000000 -0.00000000 0.00000000
vn -0.00000000 0.00000000 0.00000000
vn -0.00000000 -0.00000000 0.00000000
vn -0.00000000 0.00000000 -0.00000000
vn 0.00000000 -0.00000000 0.00000000
vn 0.00000000 -0.00000000 0.00000000
vn -0.00000000 0.00000000 0.00000000
vn -0.00000000 0.00000000 0.00000000
vn 0.00000000 -0.00000000 0.00000000
vn -0.00000000 0.00000000 0.00000000
vn 0.00000000 -0.00000000 0.00000000
vn -0.00000000 0.00000000 0.00000000
vn 0.00000000 -0.00000000 0.00000000
vn 0.00000000 -0.00000000 0.00000000
vn -0.00000000 -0.00000000 -0.00000000
vn -0.00000000 0.00000000 -0.00000000
vn 0.00000000 -0.00000000 -0.00000000
vn 0.00000000 0.00000000 -0.00000000
vn -0.00000000 -0.00000000 0.00000000
vn -0.00000000 -0.00000000 0.00000000
vn 0.00000000 0.00000000 0.00000000
vn 0.00000000 0.00000000 0.00000000
vn 0.00000000 0.00000000 -0.00000000
vn -0.00000000 -0.00000000 0.00000000
vn 0.00000000 0.00000000 -0.00000000
vn -0.00000000 0.00000000 -0.00000000
vn 0.00000000 -0.00000000 0.00000000
vn 0.00000000 0.00000000 0.00000000
vn 0.00000000 -0.00000000 -0.00000000
vn 0.00000000 -0.00000000 -0.00000000
vn 0.00000000 0.00000000 0.00000000
vn 0.00000000 -0.00000000 -0.00000000
vn -0.00000000 0.00000000 0.00000000
vn -0.00000000 -0.00000000 0.00000000
vn 0.00000000 0.00000000 0.00000000
vn -0.00000000 -0.00000000 0.00000000
vn 0.00000000 0.00000000 0.00000000
vn 0.00000000 0.00000000 0.00000000
vn 0.00000000 -0.00000000 -0.00000000
vn 0.00000000 0.00000000 -0.00000000
vn -0.00000000 -0.00000000 -0.00000000
vn -0.00000000 0.00000000 -0.00000000
vn 0.00000000 0.00000000 0.00000000
vn 0.00000000 0.00000000 0.00000000
vn -0.00000000 -0.00000000 0.00000000
vn 0.00000000 0.00000000 0.00000000
vn -0.00000000 -0.00000000 0.00000000
vn -0.00000000 -0.00000000 -0.00000000
vn -0.00000000 0.00000000 0.00000000
vn 0.00000000 -0.00000000 -0.00000000
vn -0.00000000 0.00000000 -0.00000000
vn -0.00000000 0.00000000 -0.00000000
vn 0.00000000 -0.00000000 -0.00000000
vn 0.00000000 0.00000000 0.00000000
vn -0.00000000 0.00000000 -0.00000000
vn -0.00000000 0.00000000 0.00000000
vn 0.00000000 -0.00000000 -0.00000000
vn 0.00000000 0.00000000 0.00000000
vn -0.00000000 -0.00000000 0.00000000
vn 0.00000000 -0.00000000 0.00000000
vn 0.00000000 0.00000000 -0.00000000
vn 0.00000000 -0.00000000 0.00000000
vn 0.00000000 0.00000000 -0.00000000
vn -0.00000000 0.00000000 -0.00000000
vn 0.00000000 -0.00000000 -0.00000000
vn -0.00000000 0.00000000 -0.00000000
vn 0.00000000 -0.00000000 0.00000000
vn 0.00000000 -0.00000000 0.00000000
vn -0.00000000 0.00000000 0.00000000
vn 0.00000000 -0.00000000 0.00000000
vn -0.00000000 0.00000000 0.00000000
vn -0.00000000 0.00000000 -0.00000000
vn 0.00000000 -0.00000000 0.00000000
vn 0.00000000 -0.00000000 0.00000000
vn 0.00000000 0.00000000 -0.00000000
vn 0.00000000 0.00000000 -0.00000000
vn -0.00000000 -0.00000000 0.00000000
vn 0.00000000 0.00000000 0.00000000
vn 0.00000000 -0.00000000 -0.00000000
vn 0.00000000 0.00000000 0.00000000
vn 0.00000000 -0.00000000 -0.00000000
vn 0.00000000 0.00000000 0.00000000
vn -0.00000000 -0.00000000 0.00000000
vn 0.00000000 0.00000000 0.00000000
vn -0.00000000 -0.00000000 0.00000000
vn -0.00000000 -0.00000000 0.00000000
vn 0.00000000 0.00000000 -0.00000000
vn -0.00000000 0.00000000 -0.00000000
vn 0.00000000 -0.00000000 0.00000000
vn -0.00000000 0.00000000 0.00000000
vn 0.00000000 -0.00000000 0.00000000
vn 0.00000000 -0.00000000 0.00000000
vn -0.00000000 0.00000000 -0.00000000
vn -0.00000000 0.00000000 -0.00000000
vn 0.00000000 -0.00000000 -0.00000000
vn 0.00000000 0.00000000 0.00000000
vn -0.00000000 -0.00000000 -0.00000000
vn 0.00000000 0.00000000 -0.00000000
vn 0.00000000 -0.00000000 0.00000000
vn -0.00000000 0.00000000 0.00000000
vn 0.00000000 -0.00000000 -0.00000000
vn 0.00000000 0.00000000 0.00000000
vn -0.00000000 -0.00000000 0.00000000
vn -0.00000000 -0.00000000 -0.00000000
vn 0.00000000 0.00000000 -0.00000000
vn -0.00000000 -0.00000000 -0.00000000
vn 0.00000000 0.00000000 -0.00000000
vn 0.00000000 0.00000000 -0.00000000
vn -0.00000000 -0.00000000 0.00000000
vn -0.00000000 0.00000000 0.00000000
vn 0.00000000 -0.00000000 -0.00000000
vn 0.00000000 0.00000000 -0.00000000
vn -0.00000000 0.00000000 0.00000000
vn 0.00000000 0.00000000 0.00000000
vn 0.00000000 -0.00000000 0.00000000
vn 0.00000000 0.00000000 0.00000000
vn -0.00000000 0.00000000 -0.00000000
vn -0.00000000 0.00000000 0.00000000
vn 0.00000000 -0.00000000 0.00000000
vn -0.00000000 0.00000000 -0.00000000
vn 0.00000000 -0.00000000 0.00000000
vn -0.00000000 0.00000000 0.00000000
vn 0.00000000 0.00000000 -0.00000000
vn -0.00000000 -0.00000000 -0.00000000
vn 0.00000000 0.00000000 0.00000000
vn -0.00000000 -0.00000000 0.00000000
vn 0.00000000 0.00000000 -0.00000000
vn -0.00000000 -0.00000000 0.00000000
vn 0.00000000 0.00000000 -0.00000000
vn -0.00000000 0.00000000 -0.00000000
vn 0.00000000 -0.00000000 0.00000000
vn -0.00000000 -0.00000000 0.00000000
vn 0.00000000 0.00000000 0.00000000
vn 0.00000000 -0.00000000 0.00000000
vn -0.00000000 0.00000000 -0.00000000
vn -0.00000000 0.00000000 -0.00000000
vn 0.00000000 -0.00000000 0.00000000
vn 0.00000000 -0.00000000 0.00000000
vn -0.00000000 0.00000000 -0.00000000
vn 0.00000000 -0.00000000 -0.00000000
vn -0.00000000 0.00000000 0.00000000
vn -0.00000000 0.00000000 0.00000000
vn 0.00000000 -0.00000000 -0.00000000
vn 0.00000000 -0.00000000 -0.00000000
vn -0.00000000 0.00000000 0.00000000
vn -0.00000000 -0.00000000 0.00000000
vn 0.00000000 0.00000000 -0.00000000
vn 0.00000000 0.00000000 -0.00000000
vn -0.00000000 -0.00000000 0.00000000
vn -0.00000000 -0.00000000 0.00000000
vn 0.00000000 0.00000000 -0.00000000
vn 0.00000000 0.00000000 -0.00000000
vn -0.00000000 -0.00000000 0.00000000
vn 0.00000000 -0.00000000 -0.00000000
vn -0.00000000 0.00000000 0.00000000
vn -0.00000000 -0.00000000 0.00000000
vn 0.00000000 0.00000000 0.00000000
vn -0.57735808 0.37077053 -0.72745231
vn -0.57735808 -0.37077053 0.72745231
vn -0.57734246 0.72746215 0.37077554
vn -0.57734246 -0.72746215 -0.37077554
vn 0.57735808 0.37077053 -0.72745231
vn 0.57734246 0.72746215 0.37077554
vn 0.57734246 -0.72746215 -0.37077554
vn 0.57735808 -0.37077053 0.72745231
vn -0.57733446 -0.72749538 -0.37072279
vn 0.57736993 0.37068476 -0.72748661
vn 0.57733446 -0.72749538 -0.37072279
vn -0.57736993 0.37068476 -0.72748661
vn -0.57735926 0.72759429 0.37048998
vn 0.57735926 0.72759429 0.37048998
vn 0.57733743 -0.37052363 0.72759449
vn -0.57733743 -0.37052363 0.72759449
vn -0.57734631 -0.72744616 -0.37080093
vn 0.57735808 0.37077053 -0.72745231
vn 0.57734631 -0.72744616 -0.37080093
vn -0.57735808 0.37077053 -0.72745231
vn -0.57737111 0.72754508 0.37056815
vn 0.57737111 0.72754508 0.37056815
vn 0.57732558 -0.37060939 0.72756021
vn -0.57732558 -0.37060939 0.72756021
vn 0.54768786 0.57932923 -0.60366850
vn -0.55332478 0.61707675 0.55950689
vn 0.55339613 0.61702202 0.55949669
vn -0.54762029 0.57937911 -0.60368192
vn 0.60759400 -0.57103705 -0.55203824
vn -0.60766009 -0.57097501 -0.55202967
vn -0.59916099 -0.53746509 0.59341166
vn 0.59909814 -0.53752142 0.59342408
vn -0.60762758 -0.57103553 -0.55200285
vn -0.55337022 0.61706347 0.55947660
vn -0.54765627 0.57932000 -0.60370601
vn -0.59911945 -0.53747965 0.59344040
vn 0.60762758 -0.57103553 -0.55200285
vn 0.54765627 0.57932000 -0.60370601
vn 0.59911945 -0.53747965 0.59344040
vn 0.55337022 0.61706347 0.55947660
vn 0.59911945 -0.53747965 0.59344040
vn 0.54766568 0.57939068 -0.60362964
vn 0.55337022 0.61706347 0.55947660
vn 0.60761198 -0.57097863 -0.55207888
vn -0.54766568 0.57939068 -0.60362964
vn -0.60761198 -0.57097863 -0.55207888
vn -0.55337022 0.61706347 0.55947660
vn -0.59911945 -0.53747965 0.59344040
vn -0.60762758 -0.57103553 -0.55200285
vn -0.55338121 0.61712732 0.55939531
vn -0.54765627 0.57932000 -0.60370601
vn -0.59910470 -0.53741690 0.59351211
vn 0.60762758 -0.57103553 -0.55200285
vn 0.54765627 0.57932000 -0.60370601
vn 0.59910470 -0.53741690 0.59351211
vn 0.55338121 0.61712732 0.55939531
vn 0.59911945 -0.53747965 0.59344040
vn 0.54766568 0.57939068 -0.60362964
vn 0.55337022 0.61706347 0.55947660
vn 0.60761198 -0.57097863 -0.55207888
vn -0.54766568 0.57939068 -0.60362964
vn -0.60761198 -0.57097863 -0.55207888
vn -0.55337022 0.61706347 0.55947660
vn -0.59911945 -0.53747965 0.59344040
vn -0.00062460 -0.67806909 0.73499791
vn -0.00000150 0.63640035 -0.77135892
vn -0.44763465 0.89369159 -0.03063606
vn 0.00000000 -0.77066989 -0.63723459
vn -0.55551573 0.61654469 0.55792017
vn 0.60255380 -0.51532687 0.60939899
vn 0.00000000 0.71419670 0.69994505
vn 0.43138553 0.90154230 -0.03358568
vn 0.55089748 0.55628134 -0.62214391
vn 0.60310628 -0.59218981 -0.53439128
vn 0.00000000 0.66220964 -0.74931862
vn 0.58532965 0.55411369 0.59190137
vn 0.00000000 0.71394649 0.70020026
vn 0.57675567 0.51308349 -0.63568721
vn 0.57405613 -0.59747744 -0.55989308
vn -0.57391727 -0.59776458 0.55972893
vn 0.57405613 -0.59747744 0.55989308
vn -0.57358919 -0.59944157 -0.55826987
vn -0.41033452 0.42049304 0.80920405
vn 0.66651027 0.32208535 0.67232811
vn 0.57963771 0.55691573 -0.59486552
vn 0.44784761 0.79615381 -0.40690493
vn -0.57965602 0.55467360 -0.59693894
vn -0.69242369 0.64291511 -0.32742877
vn -0.00000000 -0.00000000 -0.00000000
vn 0.00000000 0.00000000 0.00000000
vn -0.00000000 0.00000000 0.00000000
vn -0.61022108 -0.10490251 -0.78525518
vn -0.00000000 -0.00000000 0.00000000
vn 0.00000000 0.00000000 -0.00000000
vn 0.00000000 0.00000000 0.00000000
vn -0.00000000 -0.00000000 0.00000000
vn -0.00000000 0.00000000 0.00000000
vn -0.00000000 -0.00000000 0.00000000
vn 0.00000000 0.00000000 -0.00000000
vn -0.00000000 -0.00000000 0.00000000
vn 0.00000000 0.00000000 0.00000000
vn -0.00000000 0.00000000 0.00000000
vn -0.00000000 -0.00000000 -0.00000000
vn 0.00000000 0.00000000 0.00000000
vn 0.00000000 -0.00000000 0.00000000
vn 0.00000000 0.00000000 0.00000000
vn 0.00000000 0.00000000 0.00000000
vn 0.00000000 0.00000000 -0.00000000
vn 0.00000000 0.00000000 0.00000000
vn -0.00000000 -0.00000000 0.00000000
vn 0.00000000 0.00000000 0.00000000
vn -0.00760489 -0.00077048 0.99997079
vn 0.00000000 0.00000000 0.00000000
vn 0.00000000 0.00000000 -0.00000000
vn -0.00000000 -0.00000000 0.00000000
vn 0.00000000 -0.00000000 -0.00000000
vn 0.00000000 -0.00000000 -0.00000000
vn -0.00000000 -0.00000000 -0.00000000
vn -0.00000000 0.00000000 0.00000000
vn 0.00000000 -0.00000000 0.00000000
vn -0.00000000 0.00000000 -0.00000000
vn 0.00000000 0.00000000 0.00000000
vn -0.00000000 -0.00000000 0.00000000
vn 0.61184375 0.10495759 0.78398414
vn -0.00000000 0.00000000 0.00000000
vn -0.00000000 -0.00000000 -0.00000000
vn 0.00000000 -0.00000000 -0.00000000
vn -0.00000000 0.00000000 0.00000000
vn -0.00000000 0.00000000 -0.00000000
vn -0.00000000 -0.00000000 -0.00000000
vn 0.00363718 -0.00313589 -0.99998847
vn 0.00810291 -0.05436794 -0.99848809
vn -0.00000000 -0.00000000 -0.00000000
vn 0.00000000 0.00000000 0.00000000
vn -0.00905180 0.05431079 0.99848305
vn -0.00000000 0.00000000 0.00000000
vn -0.00000000 -0.00000000 0.00000000
vn -0.00000000 -0.00000000 0.00000000
vn 0.00000000 0.00000000 -0.00000000
vn 0.00000000 -0.00000000 0.00000000
vn -0.00000000 -0.00000000 -0.00000000
vn -0.00000000 -0.00000000 -0.00000000
vn 0.00000000 -0.00000000 0.00000000
vn 0.00000000 -0.00000000 0.00000000
vn 0.00000000 0.00000000 0.00000000
vn 0.00000000 0.00000000 0.00000000
vn 0.00000000 0.00000000 -0.00000000
vn -0.00000000 0.00000000 -0.00000000
vn 0.00000000 0.00000000 -0.00000000
vn 0.00000000 -0.00000000 0.00000000
vn -0.00000000 -0.00000000 0.00000000
vn 0.00000000 0.00000000 -0.00000000
vn 0.00000000 0.00000000 -0.00000000
vn -0.00000000 0.00000000 0.00000000
vn 0.00000000 -0.00000000 0.00000000
vn 0.00000000 0.00000000 0.00000000
vn 0.00000000 -0.00000000 -0.00000000
vn 0.00000000 0.00000000 0.00000000
vn -0.00000000 -0.00000000 -0.00000000
vn 0.00000000 -0.00000000 0.00000000
vn 0.00000000 0.00000000 0.00000000
vn 0.00000000 -0.00000000 -0.00000000
vn 0.00000000 0.00000000 -0.00000000
vn 0.00000000 -0.00000000 -0.00000000
vn 0.00000000 -0.00000000 -0.00000000
vn 0.00000000 0.00000000 0.00000000
vn -0.00000000 0.00000000 -0.00000000
vn 0.00000000 -0.00000000 0.00000000
vn 0.00000000 0.00000000 -0.00000000
vn -0.00000000 0.00000000 0.00000000
vn 0.00000000 -0.00000000 0.00000000
vn 0.00000000 0.00000000 0.00000000
vn 0.00000000 -0.00000000 0.00000000
vn -0.00000000 -0.00000000 -0.00000000
vn -0.00000000 0.00000000 0.00000000
vn -0.00000000 0.00000000 -0.00000000
vn -0.00000000 0.00000000 -0.00000000
vn 0.00000000 -0.00000000 0.00000000
vn 0.00000000 -0.00000000 0.00000000
vn 0.00000000 -0.00000000 -0.00000000
vn -0.00000000 0.00000000 -0.00000000
vn -0.00000000 -0.00000000 -0.00000000
vn 0.00000000 -0.00000000 -0.00000000
vn 0.00000000 0.00000000 0.00000000
vn 0.00000000 0.00000000 0.00000000
vn -0.00000000 0.00000000 -0.00000000
vn 0.00000000 0.00000000 -0.00000000
vn -0.00000000 -0.00000000 -0.00000000
vn 0.00000000 0.00000000 0.00000000
vn 0.00000000 -0.00000000 0.00000000
vn -0.00000000 -0.00000000 0.00000000
vn 0.00000000 0.00000000 -0.00000000
vn -0.00000000 0.00000000 -0.00000000
vn 0.00000000 -0.00000000 0.00000000
vn 0.00000000 -0.00000000 0.00000000
vn -0.00000000 0.00000000 -0.00000000
vn -0.37604236 0.09467959 0.92175263
vn -0.00000000 0.00000000 0.00000000
vn -0.00000000 0.00000000 0.00000000
vn -0.00000000 0.00000000 -0.00000000
vn 0.00000000 -0.00000000 -0.00000000
vn 0.00000000 -0.00000000 -0.00000000
vn -0.00000000 0.00000000 0.00000000
vn 0.00000000 0.00000000 -0.00000000
vn 0.00000000 -0.00000000 -0.00000000
vn 0.00000000 -0.00000000 0.00000000
vn 0.00000000 0.00000000 -0.00000000
vn 0.00000000 -0.00000000 0.00000000
vn 0.00000000 0.00000000 -0.00000000
vn -0.00000000 0.00000000 0.00000000
vn 0.00000000 0.00000000 -0.00000000
vn 0.00000000 -0.00000000 0.00000000
vn 0.00000000 0.00000000 0.00000000
vn -0.00000000 0.00000000 -0.00000000
vn 0.00000000 -0.00000000 -0.00000000
vn 0.00000000 0.00000000 -0.00000000
vn -0.00000000 -0.00000000 0.00000000
vn 0.00000000 -0.00000000 0.00000000
vn -0.02722908 0.00145464 -0.99962816
vn 0.00000000 -0.00000000 0.00000000
vn 0.00000000 0.00000000 0.00000000
vn -0.00000000 0.00000000 0.00000000
vn -0.00000000 -0.00000000 0.00000000
vn 0.36951608 -0.09421801 -0.92443541
vn 0.00000000 -0.00000000 -0.00000000
vn -0.00000000 0.00000000 -0.00000000
vn 0.00000000 0.00000000 0.00000000
vn -0.00000000 -0.00000000 0.00000000
vn 0.00000000 -0.00000000 -0.00000000
vn 0.00000000 -0.00000000 -0.00000000
vn 0.02136536 0.01328602 0.99968345
vn -0.00100350 0.06502697 0.99788300
vn -0.00000000 -0.00000000 0.00000000
vn 0.00000000 0.00000000 -0.00000000
vn -0.00513211 -0.06443037 -0.99790901
vn -0.00000000 -0.00000000 -0.00000000
vn -0.00000000 -0.00000000 -0.00000000
vn 0.00000000 -0.00000000 -0.00000000
vn -0.00000000 0.00000000 -0.00000000
vn -0.00000000 0.00000000 0.00000000
vn 0.00000000 0.00000000 0.00000000
vn 0.00000000 0.00000000 0.00000000
vn -0.00000000 0.00000000 0.00000000
vn 0.00000000 0.00000000 0.00000000
vn -0.00000000 0.00000000 0.00000000
vn 0.00000000 -0.00000000 -0.00000000
vn -0.00000000 -0.00000000 -0.00000000
vn 0.00000000 -0.00000000 0.00000000
vn -0.00000000 0.00000000 -0.00000000
vn -0.00000000 0.00000000 -0.00000000
vn -0.00000000 0.00000000 0.00000000
vn 0.00000000 0.00000000 -0.00000000
vn 0.00000000 -0.00000000 0.00000000
vn 0.00000000 -0.00000000 0.00000000
vn 0.00000000 -0.00000000 -0.00000000
vn 0.00000000 0.00000000 -0.00000000
vn 0.00000000 -0.00000000 0.00000000
vn 0.00000000 0.00000000 0.00000000
vn 0.00000000 -0.00000000 0.00000000
vn -0.00000000 0.00000000 -0.00000000
vn 0.00000000 0.00194174 0.99999811
vn -0.00000000 -0.00000000 -0.00000000
vn 0.00000000 0.00000000 0.00000000
vn 0.00000000 0.00000000 -0.00000000
vn 0.00000000 0.00000000 0.00000000
vn -0.00000000 -0.00000000 0.00000000
vn 0.00000000 0.00000000 0.00000000
vn -0.00000000 -0.00000000 0.00000000
vn 0.00000000 0.00000000 -0.00000000
vn -0.00000000 0.00000000 -0.00000000
vn 0.00000000 -0.00000000 -0.00000000
vn 0.00000000 0.00000000 -0.00000000
vn -0.00000000 0.00000000 0.00000000
vn 0.00000000 0.00000000 0.00000000
vn 0.00000000 0.00000000 -0.00000000
vn 0.00000000 0.00000000 -0.00000000
vn -0.00000000 -0.00000000 -0.00000000
vn -0.00047421 -0.00767732 -0.99997042
vn 0.00000000 0.00000000 -0.00000000
vn 0.00000000 0.00000000 -0.00000000
vn 0.00000000 0.00000000 0.00000000
vn -0.00000000 0.00000000 0.00000000
vn -0.00000000 0.00000000 0.00000000
vn -0.00000000 -0.00000000 0.00000000
vn 0.00000000 -0.00000000 0.00000000
vn 0.00000000 -0.00000000 0.00000000
vn -0.00000000 0.00000000 -0.00000000
vn -0.00000000 -0.00000000 0.00000000
vn 0.00000000 -0.00000000 0.00000000
vn -0.00000000 0.00000000 -0.00000000
vn -0.00000000 -0.00000000 0.00000000
vn -0.00000000 0.00000000 -0.00000000
vn 0.00000000 0.00000000 -0.00000000
vn 0.00000000 -0.00000000 0.00000000
vn 0.00000000 0.00000000 -0.00000000
vn -0.00000000 -0.00000000 0.00000000
f 1//1 2//2 3//3
f 4//4 3//3 2//2
f 5//5 6//6 7//7
f 6//6 5//5 8//8
f 9//9 10//10 11//11
f 10//10 9//9 12//12
f 13//13 11//11 14//14
f 11//11 13//13 9//9
f 15//15 14//14 16//16
f 14//14 15//15 13//13
f 15//15 17//17 18//18
f 17//17 15//15 16//16
f 18//18 19//19 20//20
f 19//19 18//18 17//17
f 20//20 21//21 22//22
f 21//21 20//20 19//19
f 22//22 23//23 24//24
f 23//23 22//22 21//21
f 24//24 25//25 26//26
f 25//25 24//24 23//23
f 26//26 27//27 28//28
f 27//27 26//26 25//25
f 29//29 27//27 30//30
f 27//27 29//29 28//28
f 31//31 30//30 32//32
f 30//30 31//31 29//29
f 33//33 32//32 34//34
f 32//32 33//33 31//31
f 35//35 34//34 36//36
f 34//34 35//35 33//33
f 37//37 36//36 38//38
f 36//36 37//37 35//35
f 39//39 38//38 40//40
f 38//38 39//39 37//37
f 41//41 39//39 40//40
f 39//39 41//41 42//42
f 43//43 42//42 41//41
f 42//42 43//43 44//44
f 45//45 44//44 43//43
f 44//44 45//45 46//46
f 47//47 46//46 45//45
f 46//46 47//47 48//48
f 49//49 48//48 47//47
f 48//48 49//49 50//50
f 51//51 50//50 49//49
f 50//50 51//51 52//52
f 53//53 51//51 54//54
f 51//51 53//53 52//52
f 24//24 20//20 22//22
f 24//24 18//18 20//20
f 26//26 18//18 24//24
f 26//26 15//15 18//18
f 28//28 15//15 26//26
f 28//28 13//13 15//15
f 29//29 13//13 28//28
f 29//29 9//9 13//13
f 31//31 9//9 29//29
f 31//31 12//12 9//9
f 33//33 12//12 31//31
f 33//33 55//55 12//12
f 35//35 55//55 33//33
f 35//35 53//53 55//55
f 37//37 53//53 35//35
f 37//37 52//52 53//53
f 39//39 52//52 37//37
f 39//39 50//50 52//52
f 42//42 50//50 39//39
f 42//42 48//48 50//50
f 44//44 48//48 42//42
f 48//48 44//44 46//46
f 12//12 56//56 10//10
f 56//56 12//12 55//55
f 19//19 23//23 21//21
f 17//17 23//23 19//19
f 17//17 25//25 23//23
f 16//16 25//25 17//17
f 16//16 27//27 25//25
f 14//14 27//27 16//16
f 14//14 30//30 27//27
f 11//11 30//30 14//14
f 11//11 32//32 30//30
f 10//10 32//32 11//11
f 10//10 34//34 32//32
f 56//56 34//34 10//10
f 56//56 36//36 34//34
f 54//54 36//36 56//56
f 54//54 38//38 36//36
f 51//51 38//38 54//54
f 51//51 40//40 38//38
f 49//49 40//40 51//51
f 49//49 41//41 40//40
f 47//47 41//41 49//49
f 47//47 43//43 41//41
f 43//43 47//47 45//45
f 55//55 54//54 56//56
f 54//54 55//55 53//53
f 57//57 58//58 59//59
f 58//58 57//57 60//60
f 61//61 59//59 62//62
f 59//59 61//61 57//57
f 63//63 62//62 64//64
f 62//62 63//63 61//61
f 65//65 64//64 66//66
f 64//64 65//65 63//63
f 65//65 67//67 68//68
f 67//67 65//65 66//66
f 69//69 70//70 71//71
f 70//70 69//69 72//72
f 71//71 73//73 74//74
f 73//73 71//71 70//70
f 75//75 73//73 76//76
f 73//73 75//75 74//74
f 77//77 76//76 78//78
f 76//76 77//77 75//75
f 79//79 78//78 80//80
f 78//78 79//79 77//77
f 81//81 80//80 82//82
f 80//80 81//81 79//79
f 83//83 82//82 84//84
f 82//82 83//83 81//81
f 85//85 84//84 86//86
f 84//84 85//85 83//83
f 87//87 85//85 86//86
f 85//85 87//87 88//88
f 89//89 88//88 87//87
f 88//88 89//89 90//90
f 91//91 90//90 89//89
f 90//90 91//91 92//92
f 93//93 92//92 91//91
f 92//92 93//93 94//94
f 95//95 94//94 93//93
f 94//94 95//95 96//96
f 97//97 96//96 95//95
f 96//96 97//97 98//98
f 99//99 97//97 100//100
f 97//97 99//99 98//98
f 60//60 100//100 58//58
f 100//100 60//60 99//99
f 68//68 101//101 102//102
f 101//101 68//68 67//67
f 69//69 102//102 103//103
f 69//69 68//68 102//102
f 71//71 68//68 69//69
f 71//71 65//65 68//68
f 74//74 65//65 71//71
f 74//74 63//63 65//65
f 75//75 63//63 74//74
f 75//75 61//61 63//63
f 77//77 61//61 75//75
f 77//77 57//57 61//61
f 79//79 57//57 77//77
f 79//79 60//60 57//57
f 81//81 60//60 79//79
f 81//81 99//99 60//60
f 83//83 99//99 81//81
f 83//83 98//98 99//99
f 85//85 98//98 83//83
f 85//85 96//96 98//98
f 88//88 96//96 85//85
f 88//88 94//94 96//96
f 90//90 94//94 88//88
f 94//94 90//90 92//92
f 103//103 72//72 69//69
f 72//72 103//103 104//104
f 101//101 72//72 104//104
f 67//67 72//72 101//101
f 67//67 70//70 72//72
f 66//66 70//70 67//67
f 66//66 73//73 70//70
f 64//64 73//73 66//66
f 64//64 76//76 73//73
f 62//62 76//76 64//64
f 62//62 78//78 76//76
f 59//59 78//78 62//62
f 59//59 80//80 78//78
f 58//58 80//80 59//59
f 58//58 82//82 80//80
f 100//100 82//82 58//58
f 100//100 84//84 82//82
f 97//97 84//84 100//100
f 97//97 86//86 84//84
f 95//95 86//86 97//97
f 95//95 87//87 86//86
f 93//93 87//87 95//95
f 93//93 89//89 87//87
f 89//89 93//93 91//91
f 102//102 104//104 103//103
f 104//104 102//102 101//101
f 105//105 106//106 107//107
f 108//108 107//107 106//106
f 106//106 109//109 108//108
f 110//110 108//108 109//109
f 109//109 111//111 110//110
f 112//112 110//110 111//111
f 112//112 111//111 113//113
f 114//114 113//113 111//111
f 113//113 114//114 115//115
f 116//116 115//115 114//114
f 115//115 116//116 117//117
f 118//118 117//117 116//116
f 117//117 118//118 119//119
f 120//120 119//119 118//118
f 119//119 120//120 121//121
f 122//122 121//121 120//120
f 121//121 122//122 123//123
f 124//124 123//123 122//122
f 124//124 125//125 123//123
f 126//126 123//123 125//125
f 125//125 127//127 126//126
f 128//128 126//126 127//127
f 127//127 129//129 128//128
f 130//130 128//128 129//129
f 129//129 131//131 130//130
f 132//132 130//130 131//131
f 131//131 133//133 132//132
f 134//134 132//132 133//133
f 133//133 135//135 134//134
f 136//136 134//134 135//135
f 137//137 138//138 135//135
f 136//136 135//135 138//138
f 139//139 140//140 137//137
f 138//138 137//137 140//140
f 141//141 142//142 139//139
f 140//140 139//139 142//142
f 143//143 144//144 141//141
f 142//142 141//141 144//144
f 145//145 146//146 143//143
f 144//144 143//143 146//146
f 147//147 148//148 145//145
f 146//146 145//145 148//148
f 147//147 149//149 148//148
f 150//150 148//148 149//149
f 141//141 139//139 143//143
f 137//137 143//143 139//139
f 145//145 143//143 137//137
f 135//135 145//145 137//137
f 147//147 145//145 135//135
f 133//133 147//147 135//135
f 149//149 147//147 133//133
f 131//131 149//149 133//133
f 151//151 149//149 131//131
f 129//129 151//151 131//131
f 105//105 151//151 129//129
f 127//127 105//105 129//129
f 106//106 105//105 127//127
f 125//125 106//106 127//127
f 109//109 106//106 125//125
f 124//124 109//109 125//125
f 111//111 109//109 124//124
f 122//122 111//111 124//124
f 114//114 111//111 122//122
f 120//120 114//114 122//122
f 116//116 114//114 120//120
f 118//118 116//116 120//120
f 151//151 105//105 152//152
f 107//107 152//152 105//105
f 142//142 144//144 140//140
f 138//138 140//140 144//144
f 146//146 138//138 144//144
f 136//136 138//138 146//146
f 148//148 136//136 146//146
f 134//134 136//136 148//148
f 150//150 134//134 148//148
f 132//132 134//134 150//150
f 152//152 132//132 150//150
f 130//130 132//132 152//152
f 107//107 130//130 152//152
f 128//128 130//130 107//107
f 108//108 128//128 107//107
f 126//126 128//128 108//108
f 110//110 126//126 108//108
f 123//123 126//126 110//110
f 112//112 123//123 110//110
f 121//121 123//123 112//112
f 113//113 121//121 112//112
f 119//119 121//121 113//113
f 115//115 119//119 113//113
f 117//117 119//119 115//115
f 149//149 151//151 150//150
f 152//152 150//150 151//151
f 153//153 154//154 155//155
f 156//156 155//155 154//154
f 154//154 157//157 156//156
f 158//158 156//156 157//157
f 157//157 159//159 158//158
f 160//160 158//158 159//159
f 159//159 161//161 160//160
f 162//162 160//160 161//161
f 162//162 161//161 163//163
f 164//164 163//163 161//161
f 165//165 166//166 167//167
f 168//168 167//167 166//166
f 167//167 168//168 169//169
f 170//170 169//169 168//168
f 170//170 171//171 169//169
f 172//172 169//169 171//171
f 171//171 173//173 172//172
f 174//174 172//172 173//173
f 173//173 175//175 174//174
f 176//176 174//174 175//175
f 175//175 177//177 176//176
f 178//178 176//176 177//177
f 177//177 179//179 178//178
f 180//180 178//178 179//179
f 179//179 181//181 180//180
f 182//182 180//180 181//181
f 183//183 184//184 181//181
f 182//182 181//181 184//184
f 185//185 186//186 183//183
f 184//184 183//183 186//186
f 187//187 188//188 185//185
f 186//186 185//185 188//188
f 189//189 190//190 187//187
f 188//188 187//187 190//190
f 191//191 192//192 189//189
f 190//190 189//189 192//192
f 193//193 194//194 191//191
f 192//192 191//191 194//194
f 193//193 195//195 194//194
f 196//196 194//194 195//195
f 195//195 153//153 196//196
f 155//155 196//196 153//153
f 163//163 164//164 197//197
f 198//198 197//197 164//164
f 187//187 185//185 189//189
f 183//183 189//189 185//185
f 191//191 189//189 183//183
f 181//181 191//191 183//183
f 193//193 191//191 181//181
f 179//179 193//193 181//181
f 195//195 193//193 179//179
f 177//177 195//195 179//179
f 153//153 195//195 177//177
f 175//175 153//153 177//177
f 154//154 153//153 175//175
f 173//173 154//154 175//175
f 157//157 154//154 173//173
f 171//171 157//157 173//173
f 159//159 157//157 171//171
f 170//170 159//159 171//171
f 161//161 159//159 170//170
f 168//168 161//161 170//170
f 164//164 161//161 168//168
f 166//166 164//164 168//168
f 198//198 164//164 166//166
f 199//199 198//198 166//166
f 200//200 199//199 165//165
f 166//166 165//165 199//199
f 188//188 190//190 186//186
f 184//184 186//186 190//190
f 192//192 184//184 190//190
f 182//182 184//184 192//192
f 194//194 182//182 192//192
f 180//180 182//182 194//194
f 196//196 180//180 194//194
f 178//178 180//180 196//196
f 155//155 178//178 196//196
f 176//176 178//178 155//155
f 156//156 176//176 155//155
f 174//174 176//176 156//156
f 158//158 174//174 156//156
f 172//172 174//174 158//158
f 160//160 172//172 158//158
f 169//169 172//172 160//160
f 162//162 169//169 160//160
f 167//167 169//169 162//162
f 163//163 167//167 162//162
f 165//165 167//167 163//163
f 197//197 165//165 163//163
f 200//200 165//165 197//197
f 197//197 198//198 200//200
f 199//199 200//200 198//198
f 201//201 202//202 203//203
f 202//202 201//201 204//204
f 205//205 203//203 206//206
f 203//203 205//205 201//201
f 204//204 205//205 207//207
f 205//205 204//204 201//201
f 204//204 208//208 202//202
f 208//208 204//204 207//207
f 203//203 208//208 206//206
f 208//208 203//203 202//202
f 208//208 205//205 206//206
f 205//205 208//208 207//207
f 209//209 210//210 211//211
f 210//210 209//209 212//212
f 210//210 213//213 214//214
f 213//213 210//210 212//212
f 215//215 210//210 214//214
f 210//210 215//215 211//211
f 209//209 215//215 216//216
f 215//215 209//209 211//211
f 212//212 216//216 213//213
f 216//216 212//212 209//209
f 213//213 215//215 214//214
f 215//215 213//213 216//216
f 217//217 218//218 219//219
f 218//218 217//217 220//220
f 218//218 221//221 222//222
f 221//221 218//218 220//220
f 223//223 218//218 222//222
f 218//218 223//223 219//219
f 217//217 223//223 224//224
f 223//223 217//217 219//219
f 220//220 224//224 221//221
f 224//224 220//220 217//217
f 221//221 223//223 222//222
f 223//223 221//221 224//224
f 225//225 226//226 227//227
f 226//226 225//225 228//228
f 229//229 228//228 225//225
f 228//228 229//229 230//230
f 230//230 226//226 228//228
f 226//226 230//230 231//231
f 226//226 232//232 227//227
f 232//232 226//226 231//231
f 232//232 225//225 227//227
f 225//225 232//232 229//229
f 230//230 232//232 231//231
f 232//232 230//230 229//229
f 233//233 234//234 235//235
f 234//234 233//233 236//236
f 237//237 235//235 238//238
f 235//235 237//237 233//233
f 233//233 239//239 236//236
f 239//239 233//233 237//237
f 234//234 239//239 240//240
f 239//239 234//234 236//236
f 238//238 234//234 240//240
f 234//234 238//238 235//235
f 239//239 238//238 240//240
f 238//238 239//239 237//237
f 241//241 242//242 243//243
f 242//242 241//241 244//244
f 244//244 245//245 242//242
f 245//245 244//244 246//246
f 242//242 247//247 243//243
f 247//247 242//242 245//245
f 247//247 241//241 243//243
f 241//241 247//247 248//248
f 246//246 241//241 248//248
f 241//241 246//246 244//244
f 246//246 247//247 245//245
f 247//247 246//246 248//248
f 249//249 250//250 251//251
f 250//250 249//249 252//252
f 253//253 251//251 254//254
f 251//251 253//253 249//249
f 249//249 255//255 252//252
f 255//255 249//249 253//253
f 250//250 255//255 256//256
f 255//255 250//250 252//252
f 254//254 250//250 256//256
f 250//250 254//254 251//251
f 255//255 254//254 256//256
f 254//254 255//255 253//253
f 257//257 258//258 259//259
f 258//258 257//257 260//260
f 260//260 261//261 258//258
f 261//261 260//260 262//262
f 258//258 263//263 259//259
f 263//263 258//258 261//261
f 263//263 257//257 259//259
f 257//257 263//263 264//264
f 262//262 257//257 264//264
f 257//257 262//262 260//260
f 262//262 263//263 261//261
f 263//263 262//262 264//264
f 265//265 266//266 267//267
f 266//266 265//265 268//268
f 269//269 270//270 271//271
f 270//270 269//269 265//265
f 272//272 269//269 271//271
f 272//272 267//267 269//269
f 273//273 267//267 272//272
f 267//267 273//273 266//266
f 266//266 269//269 267//267
f 266//266 265//265 269//269
f 265//265 266//266 268//268
f 268//268 270//270 265//265
f 270//270 268//268 274//274
f 270//270 273//273 272//272
f 273//273 270//270 274//274
f 274//274 266//266 273//273
f 266//266 274//274 268//268
f 275//275 276//276 277//277
f 276//276 275//275 278//278
f 279//279 280//280 281//281
f 280//280 279//279 282//282
f 276//276 283//283 277//277
f 283//283 276//276 284//284
f 284//284 285//285 286//286
f 281//281 285//285 284//284
f 285//285 281//281 279//279
f 282//282 285//285 287//287
f 285//285 282//282 279//279
f 288//288 278//278 275//275
f 278//278 288//288 286//286
f 287//287 280//280 288//288
f 280//280 287//287 282//282
f 283//283 288//288 280//280
f 283//283 275//275 277//277
f 275//275 283//283 288//288
f 284//284 280//280 283//283
f 280//280 284//284 281//281
f 284//284 278//278 276//276
f 278//278 284//284 286//286
f 287//287 286//286 288//288
f 286//286 287//287 285//285
f 275//275 283//283 277//277
f 283//283 275//275 288//288
f 288//288 284//284 283//283
f 284//284 288//288 286//286
f 289//289 290//290 291//291
f 290//290 289//289 292//292
f 292//292 289//289 290//290
f 291//291 290//290 289//289
f 290//290 289//289 291//291
f 289//289 290//290 292//292
f 292//292 290//290 289//289
f 291//291 289//289 290//290
f 293//293 294//294 295//295
f 294//294 293//293 296//296
f 296//296 293//293 294//294
f 295//295 294//294 293//293
f 294//294 297//297 298//298
f 297//297 294//294 296//296
f 296//296 294//294 297//297
f 298//298 297//297 294//294
f 298//298 299//299 300//300
f 299//299 298//298 297//297
f 297//297 298//298 299//299
f 300//300 299//299 298//298
f 300//300 301//301 302//302
f 301//301 300//300 299//299
f 299//299 300//300 301//301
f 302//302 301//301 300//300
f 302//302 303//303 304//304
f 303//303 302//302 301//301
f 301//301 302//302 303//303
f 304//304 303//303 302//302
f 305//305 306//306 307//307
f 306//306 305//305 308//308
f 308//308 305//305 306//306
f 307//307 306//306 305//305
f 308//308 295//295 306//306
f 295//295 308//308 293//293
f 293//293 308//308 295//295
f 306//306 295//295 308//308
f 309//309 307//307 310//310
f 307//307 309//309 305//305
f 305//305 309//309 307//307
f 310//310 307//307 309//309
f 304//304 311//311 312//312
f 311//311 304//304 303//303
f 303//303 304//304 311//311
f 312//312 311//311 304//304
f 313//313 314//314 312//312
f 314//314 313//313 315//315
f 315//315 313//313 314//314
f 312//312 314//314 313//313
f 316//316 313//313 317//317
f 318//318 313//313 316//316
f 313//313 318//318 315//315
f 315//315 318//318 313//313
f 316//316 313//313 318//318
f 317//317 313//313 316//316
f 319//319 318//318 316//316
f 318//318 319//319 320//320
f 320//320 319//319 318//318
f 316//316 318//318 319//319
f 320//320 315//315 318//318
f 321//321 315//315 320//320
f 315//315 321//321 314//314
f 314//314 321//321 315//315
f 320//320 315//315 321//321
f 318//318 315//315 320//320
f 317//317 322//322 323//323
f 322//322 317//317 316//316
f 316//316 317//317 322//322
f 323//323 322//322 317//317
f 316//316 323//323 322//322
f 323//323 316//316 317//317
f 317//317 316//316 323//323
f 322//322 323//323 316//316
f 289//289 322//322 292//292
f 290//290 324//324 291//291
f 292//292 324//324 290//290
f 292//292 323//323 324//324
f 323//323 292//292 322//322
f 322//322 292//292 323//323
f 324//324 323//323 292//292
f 290//290 324//324 292//292
f 291//291 324//324 290//290
f 292//292 322//322 289//289
f 291//291 325//325 326//326
f 325//325 291//291 324//324
f 324//324 291//291 325//325
f 326//326 325//325 291//291
f 326//326 327//327 328//328
f 327//327 326//326 325//325
f 325//325 326//326 327//327
f 328//328 327//327 326//326
f 317//317 319//319 316//316
f 319//319 317//317 329//329
f 329//329 317//317 319//319
f 316//316 319//319 317//317
f 326//326 289//289 291//291
f 328//328 289//289 326//326
f 330//330 289//289 328//328
f 330//330 322//322 289//289
f 330//330 316//316 322//322
f 316//316 330//330 319//319
f 319//319 330//330 316//316
f 322//322 316//316 330//330
f 289//289 322//322 330//330
f 328//328 289//289 330//330
f 326//326 289//289 328//328
f 291//291 289//289 326//326
f 314//314 331//331 312//312
f 331//331 314//314 321//321
f 321//321 314//314 331//331
f 312//312 331//331 314//314
f 312//312 302//302 304//304
f 312//312 300//300 302//302
f 312//312 298//298 300//300
f 312//312 294//294 298//298
f 312//312 295//295 294//294
f 312//312 306//306 295//295
f 312//312 307//307 306//306
f 312//312 310//310 307//307
f 331//331 310//310 312//312
f 321//321 310//310 331//331
f 310//310 321//321 332//332
f 332//332 321//321 310//310
f 331//331 310//310 321//321
f 312//312 310//310 331//331
f 307//307 310//310 312//312
f 306//306 307//307 312//312
f 295//295 306//306 312//312
f 294//294 295//295 312//312
f 298//298 294//294 312//312
f 300//300 298//298 312//312
f 302//302 300//300 312//312
f 304//304 302//302 312//312
f 301//301 311//311 303//303
f 299//299 311//311 301//301
f 297//297 311//311 299//299
f 296//296 311//311 297//297
f 293//293 311//311 296//296
f 308//308 311//311 293//293
f 305//305 311//311 308//308
f 309//309 311//311 305//305
f 309//309 333//333 311//311
f 333//333 309//309 334//334
f 334//334 309//309 333//333
f 311//311 333//333 309//309
f 305//305 311//311 309//309
f 308//308 311//311 305//305
f 293//293 311//311 308//308
f 296//296 311//311 293//293
f 297//297 311//311 296//296
f 299//299 311//311 297//297
f 301//301 311//311 299//299
f 303//303 311//311 301//301
f 335//335 310//310 332//332
f 334//334 310//310 335//335
f 310//310 334//334 309//309
f 309//309 334//334 310//310
f 335//335 310//310 334//334
f 332//332 310//310 335//335
f 312//312 336//336 331//331
f 311//311 336//336 312//312
f 336//336 311//311 333//333
f 333//333 311//311 336//336
f 312//312 336//336 311//311
f 331//331 336//336 312//312
f 331//331 319//319 329//329
f 321//321 319//319 331//331
f 319//319 321//321 320//320
f 320//320 321//321 319//319
f 331//331 319//319 321//321
f 329//329 319//319 331//331
f 313//313 329//329 317//317
f 312//312 329//329 313//313
f 329//329 312//312 331//331
f 331//331 312//312 329//329
f 313//313 329//329 312//312
f 317//317 329//329 313//313
f 337//337 320//320 319//319
f 338//338 320//320 337//337
f 338//338 321//321 320//320
f 339//339 321//321 338//338
f 321//321 339//339 332//332
f 332//332 339//339 321//321
f 338//338 321//321 339//339
f 320//320 321//321 338//338
f 337//337 320//320 338//338
f 319//319 320//320 337//337
f 323//323 340//340 324//324
f 317//317 340//340 323//323
f 340//340 317//317 329//329
f 340//340 325//325 324//324
f 325//325 340//340 327//327
f 327//327 340//340 325//325
f 324//324 325//325 340//340
f 329//329 317//317 340//340
f 323//323 340//340 317//317
f 324//324 340//340 323//323
f 337//337 330//330 341//341
f 330//330 337//337 319//319
f 319//319 337//337 330//330
f 341//341 330//330 337//337
f 329//329 330//330 340//340
f 330//330 329//329 319//319
f 319//319 329//329 330//330
f 340//340 330//330 329//329
f 340//340 328//328 327//327
f 328//328 340//340 330//330
f 330//330 340//340 328//328
f 327//327 328//328 340//340
f 319//319 340//340 330//330
f 340//340 319//319 329//329
f 329//329 319//319 340//340
f 330//330 340//340 319//319
f 342//342 339//339 338//338
f 339//339 342//342 343//343
f 343//343 342//342 339//339
f 338//338 339//339 342//342
f 335//335 339//339 343//343
f 339//339 335//335 332//332
f 332//332 335//335 339//339
f 343//343 339//339 335//335
f 336//336 321//321 331//331
f 336//336 332//332 321//321
f 332//332 336//336 335//335
f 335//335 336//336 332//332
f 321//321 332//332 336//336
f 331//331 321//321 336//336
f 334//334 336//336 333//333
f 336//336 334//334 335//335
f 335//335 334//334 336//336
f 333//333 336//336 334//334
f 331//331 344//344 329//329
f 344//344 331//331 336//336
f 336//336 331//331 344//344
f 329//329 344//344 331//331
f 345//345 337//337 341//341
f 337//337 345//345 346//346
f 346//346 345//345 337//337
f 341//341 337//337 345//345
f 346//346 338//338 337//337
f 338//338 346//346 342//342
f 342//342 346//346 338//338
f 337//337 338//338 346//346
f 329//329 347//347 340//340
f 347//347 329//329 344//344
f 344//344 329//329 347//347
f 340//340 347//347 329//329
f 348//348 349//349 350//350
f 349//349 348//348 351//351
f 351//351 348//348 349//349
f 350//350 349//349 348//348
f 352//352 353//353 354//354
f 353//353 352//352 355//355
f 355//355 352//352 353//353
f 354//354 353//353 352//352
f 356//356 345//345 341//341
f 345//345 356//356 357//357
f 357//357 356//356 345//345
f 341//341 345//345 356//356
f 345//345 330//330 341//341
f 347//347 330//330 345//345
f 330//330 347//347 340//340
f 340//340 347//347 330//330
f 345//345 330//330 347//347
f 341//341 330//330 345//345
f 336//336 342//342 344//344
f 335//335 342//342 336//336
f 342//342 335//335 343//343
f 347//347 346//346 345//345
f 344//344 346//346 347//347
f 346//346 344//344 342//342
f 342//342 344//344 346//346
f 347//347 346//346 344//344
f 345//345 346//346 347//347
f 343//343 335//335 342//342
f 336//336 342//342 335//335
f 344//344 342//342 336//336
f 347//347 358//358 340//340
f 358//358 347//347 359//359
f 359//359 347//347 358//358
f 340//340 358//358 347//347
f 360//360 361//361 362//362
f 361//361 360//360 363//363
f 363//363 360//360 361//361
f 362//362 361//361 360//360
f 356//356 361//361 357//357
f 361//361 356//356 362//362
f 362//362 356//356 361//361
f 357//357 361//361 356//356
f 364//364 365//365 366//366
f 365//365 364//364 367//367
f 367//367 364//364 365//365
f 366//366 365//365 364//364
f 368//368 364//364 366//366
f 364//364 368//368 369//369
f 369//369 368//368 364//364
f 366//366 364//364 368//368
f 370//370 369//369 368//368
f 369//369 370//370 371//371
f 371//371 370//370 369//369
f 368//368 369//369 370//370
f 372//372 371//371 370//370
f 371//371 372//372 373//373
f 373//373 372//372 371//371
f 370//370 371//371 372//372
f 374//374 373//373 372//372
f 373//373 374//374 375//375
f 375//375 374//374 373//373
f 372//372 373//373 374//374
f 376//376 377//377 378//378
f 377//377 376//376 379//379
f 379//379 376//376 377//377
f 378//378 377//377 376//376
f 380//380 378//378 381//381
f 378//378 380//380 376//376
f 376//376 380//380 378//378
f 381//381 378//378 380//380
f 367//367 381//381 365//365
f 381//381 367//367 380//380
f 380//380 367//367 381//381
f 365//365 381//381 367//367
f 353//353 382//382 354//354
f 348//348 382//382 353//353
f 382//382 348//348 350//350
f 350//350 348//348 382//382
f 353//353 382//382 348//348
f 354//354 382//382 353//353
f 349//349 382//382 350//350
f 352//352 382//382 349//349
f 382//382 352//352 354//354
f 354//354 352//352 382//382
f 349//349 382//382 352//352
f 350//350 382//382 349//349
f 374//374 354//354 375//375
f 354//354 374//374 382//382
f 375//375 354//354 383//383
f 383//383 354//354 375//375
f 382//382 374//374 354//354
f 375//375 354//354 374//374
f 383//383 373//373 375//375
f 383//383 371//371 373//373
f 383//383 369//369 371//371
f 383//383 364//364 369//369
f 383//383 367//367 364//364
f 383//383 380//380 367//367
f 383//383 376//376 380//380
f 383//383 379//379 376//376
f 384//384 379//379 383//383
f 379//379 384//384 385//385
f 385//385 384//384 379//379
f 383//383 379//379 384//384
f 376//376 379//379 383//383
f 380//380 376//376 383//383
f 367//367 380//380 383//383
f 364//364 367//367 383//383
f 369//369 364//364 383//383
f 371//371 369//369 383//383
f 373//373 371//371 383//383
f 375//375 373//373 383//383
f 377//377 363//363 360//360
f 379//379 363//363 377//377
f 363//363 379//379 385//385
f 385//385 379//379 363//363
f 377//377 363//363 379//379
f 360//360 363//363 377//377
f 360//360 2//2 1//1
f 2//2 360//360 363//363
f 363//363 360//360 2//2
f 1//1 2//2 360//360
f 2//2 361//361 363//363
f 4//4 361//361 2//2
f 4//4 357//357 361//361
f 359//359 357//357 4//4
f 347//347 357//357 359//359
f 357//357 347//347 345//345
f 345//345 347//347 357//357
f 359//359 357//357 347//347
f 4//4 357//357 359//359
f 361//361 357//357 4//4
f 2//2 361//361 4//4
f 363//363 361//361 2//2
f 377//377 360//360 1//1
f 372//372 382//382 374//374
f 370//370 382//382 372//372
f 368//368 382//382 370//370
f 366//366 382//382 368//368
f 365//365 382//382 366//366
f 381//381 382//382 365//365
f 378//378 382//382 381//381
f 377//377 382//382 378//378
f 1//1 382//382 377//377
f 1//1 386//386 382//382
f 386//386 1//1 2//2
f 2//2 1//1 386//386
f 382//382 386//386 1//1
f 377//377 382//382 1//1
f 378//378 382//382 377//377
f 381//381 382//382 378//378
f 365//365 382//382 381//381
f 366//366 382//382 365//365
f 368//368 382//382 366//366
f 370//370 382//382 368//368
f 372//372 382//382 370//370
f 374//374 382//382 372//372
f 1//1 360//360 377//377
f 386//386 354//354 382//382
f 384//384 354//354 386//386
f 354//354 384//384 383//383
f 383//383 384//384 354//354
f 386//386 354//354 384//384
f 382//382 354//354 386//386
f 385//385 2//2 363//363
f 384//384 2//2 385//385
f 2//2 384//384 386//386
f 386//386 384//384 2//2
f 385//385 2//2 384//384
f 363//363 2//2 385//385
f 12//12 9//9 10//10
f 11//11 10//10 9//9
f 9//9 13//13 11//11
f 14//14 11//11 13//13
f 13//13 15//15 14//14
f 16//16 14//14 15//15
f 16//16 15//15 17//17
f 18//18 17//17 15//15
f 17//17 18//18 19//19
f 20//20 19//19 18//18
f 19//19 20//20 21//21
f 22//22 21//21 20//20
f 21//21 22//22 23//23
f 24//24 23//23 22//22
f 23//23 24//24 25//25
f 26//26 25//25 24//24
f 25//25 26//26 27//27
f 28//28 27//27 26//26
f 28//28 29//29 27//27
f 30//30 27//27 29//29
f 29//29 31//31 30//30
f 32//32 30//30 31//31
f 31//31 33//33 32//32
f 34//34 32//32 33//33
f 33//33 35//35 34//34
f 36//36 34//34 35//35
f 35//35 37//37 36//36
f 38//38 36//36 37//37
f 37//37 39//39 38//38
f 40//40 38//38 39//39
f 42//42 41//41 39//39
f 40//40 39//39 41//41
f 44//44 43//43 42//42
f 41//41 42//42 43//43
f 46//46 45//45 44//44
f 43//43 44//44 45//45
f 48//48 47//47 46//46
f 45//45 46//46 47//47
f 50//50 49//49 48//48
f 47//47 48//48 49//49
f 52//52 51//51 50//50
f 49//49 50//50 51//51
f 52//52 53//53 51//51
f 54//54 51//51 53//53
f 46//46 44//44 48//48
f 42//42 48//48 44//44
f 50//50 48//48 42//42
f 39//39 50//50 42//42
f 52//52 50//50 39//39
f 37//37 52//52 39//39
f 53//53 52//52 37//37
f 35//35 53//53 37//37
f 55//55 53//53 35//35
f 33//33 55//55 35//35
f 12//12 55//55 33//33
f 31//31 12//12 33//33
f 9//9 12//12 31//31
f 29//29 9//9 31//31
f 13//13 9//9 29//29
f 28//28 13//13 29//29
f 15//15 13//13 28//28
f 26//26 15//15 28//28
f 18//18 15//15 26//26
f 24//24 18//18 26//26
f 20//20 18//18 24//24
f 22//22 20//20 24//24
f 55//55 12//12 56//56
f 10//10 56//56 12//12
f 45//45 47//47 43//43
f 41//41 43//43 47//47
f 49//49 41//41 47//47
f 40//40 41//41 49//49
f 51//51 40//40 49//49
f 38//38 40//40 51//51
f 54//54 38//38 51//51
f 36//36 38//38 54//54
f 56//56 36//36 54//54
f 34//34 36//36 56//56
f 10//10 34//34 56//56
f 32//32 34//34 10//10
f 11//11 32//32 10//10
f 30//30 32//32 11//11
f 14//14 30//30 11//11
f 27//27 30//30 14//14
f 16//16 27//27 14//14
f 25//25 27//27 16//16
f 17//17 25//25 16//16
f 23//23 25//25 17//17
f 19//19 23//23 17//17
f 21//21 23//23 19//19
f 53//53 55//55 54//54
f 56//56 54//54 55//55
f 60//60 57//57 58//58
f 59//59 58//58 57//57
f 57//57 61//61 59//59
f 62//62 59//59 61//61
f 61//61 63//63 62//62
f 64//64 62//62 63//63
f 63//63 65//65 64//64
f 66//66 64//64 65//65
f 66//66 65//65 67//67
f 68//68 67//67 65//65
f 72//72 69//69 70//70
f 71//71 70//70 69//69
f 70//70 71//71 73//73
f 74//74 73//73 71//71
f 74//74 75//75 73//73
f 76//76 73//73 75//75
f 75//75 77//77 76//76
f 78//78 76//76 77//77
f 77//77 79//79 78//78
f 80//80 78//78 79//79
f 79//79 81//81 80//80
f 82//82 80//80 81//81
f 81//81 83//83 82//82
f 84//84 82//82 83//83
f 83//83 85//85 84//84
f 86//86 84//84 85//85
f 88//88 87//87 85//85
f 86//86 85//85 87//87
f 90//90 89//89 88//88
f 87//87 88//88 89//89
f 92//92 91//91 90//90
f 89//89 90//90 91//91
f 94//94 93//93 92//92
f 91//91 92//92 93//93
f 96//96 95//95 94//94
f 93//93 94//94 95//95
f 98//98 97//97 96//96
f 95//95 96//96 97//97
f 98//98 99//99 97//97
f 100//100 97//97 99//99
f 99//99 60//60 100//100
f 58//58 100//100 60//60
f 67//67 68//68 101//101
f 102//102 101//101 68//68
f 92//92 90//90 94//94
f 88//88 94//94 90//90
f 96//96 94//94 88//88
f 85//85 96//96 88//88
f 98//98 96//96 85//85
f 83//83 98//98 85//85
f 99//99 98//98 83//83
f 81//81 99//99 83//83
f 60//60 99//99 81//81
f 79//79 60//60 81//81
f 57//57 60//60 79//79
f 77//77 57//57 79//79
f 61//61 57//57 77//77
f 75//75 61//61 77//77
f 63//63 61//61 75//75
f 74//74 63//63 75//75
f 65//65 63//63 74//74
f 71//71 65//65 74//74
f 68//68 65//65 71//71
f 69//69 68//68 71//71
f 102//102 68//68 69//69
f 103//103 102//102 69//69
f 104//104 103//103 72//72
f 69//69 72//72 103//103
f 91//91 93//93 89//89
f 87//87 89//89 93//93
f 95//95 87//87 93//93
f 86//86 87//87 95//95
f 97//97 86//86 95//95
f 84//84 86//86 97//97
f 100//100 84//84 97//97
f 82//82 84//84 100//100
f 58//58 82//82 100//100
f 80//80 82//82 58//58
f 59//59 80//80 58//58
f 78//78 80//80 59//59
f 62//62 78//78 59//59
f 76//76 78//78 62//62
f 64//64 76//76 62//62
f 73//73 76//76 64//64
f 66//66 73//73 64//64
f 70//70 73//73 66//66
f 67//67 70//70 66//66
f 72//72 70//70 67//67
f 101//101 72//72 67//67
f 104//104 72//72 101//101
f 101//101 102//102 104//104
f 103//103 104//104 102//102
f 387//387 388//388 389//389
f 388//388 387//387 390//390
f 390//390 387//387 388//388
f 389//389 388//388 387//387
f 391//391 390//390 387//387
f 390//390 391//391 392//392
f 392//392 391//391 390//390
f 387//387 390//390 391//391
f 388//388 393//393 389//389
f 393//393 388//388 394//394
f 394//394 388//388 393//393
f 389//389 393//393 388//388
f 393//393 387//387 389//389
f 393//393 391//391 387//387
f 391//391 393//393 395//395
f 395//395 393//393 391//391
f 387//387 391//391 393//393
f 389//389 387//387 393//393
f 396//396 391//391 395//395
f 391//391 396//396 392//392
f 392//392 396//396 391//391
f 395//395 391//391 396//396
f 390//390 394//394 388//388
f 392//392 394//394 390//390
f 394//394 392//392 396//396
f 396//396 392//392 394//394
f 390//390 394//394 392//392
f 388//388 394//394 390//390
f 394//394 395//395 393//393
f 395//395 394//394 396//396
f 396//396 394//394 395//395
f 393//393 395//395 394//394
f 2//2 3//3 4//4
f 3//3 2//2 1//1
f 397//397 398//398 266//266
f 399//399 266//266 398//398
f 398//398 266//266 399//399
f 266//266 398//398 397//397
f 397//397 266//266 398//398
f 399//399 398//398 266//266
f 266//266 398//398 399//399
f 398//398 266//266 397//397
f 400//400 401//401 402//402
f 403//403 402//402 401//401
f 401//401 402//402 403//403
f 402//402 401//401 400//400
f 400//400 402//402 404//404
f 405//405 404//404 402//402
f 402//402 404//404 405//405
f 404//404 402//402 400//400
f 404//404 405//405 406//406
f 407//407 406//406 405//405
f 405//405 406//406 407//407
f 406//406 405//405 404//404
f 406//406 407//407 408//408
f 409//409 408//408 407//407
f 407//407 408//408 409//409
f 408//408 407//407 406//406
f 408//408 409//409 410//410
f 411//411 410//410 409//409
f 409//409 410//410 411//411
f 410//410 409//409 408//408
f 412//412 413//413 414//414
f 415//415 414//414 413//413
f 413//413 414//414 415//415
f 414//414 413//413 412//412
f 401//401 412//412 403//403
f 414//414 403//403 412//412
f 412//412 403//403 414//414
f 403//403 412//412 401//401
f 413//413 416//416 415//415
f 417//417 415//415 416//416
f 416//416 415//415 417//417
f 415//415 416//416 413//413
f 410//410 411//411 418//418
f 419//419 418//418 411//411
f 411//411 418//418 419//419
f 418//418 411//411 410//410
f 279//279 285//285 420//420
f 419//419 420//420 285//285
f 285//285 420//420 419//419
f 420//420 285//285 279//279
f 279//279 281//281 285//285
f 284//284 285//285 281//281
f 286//286 285//285 284//284
f 284//284 285//285 286//286
f 281//281 285//285 284//284
f 285//285 281//281 279//279
f 421//421 422//422 281//281
f 284//284 281//281 422//422
f 422//422 281//281 284//284
f 281//281 422//422 421//421
f 420//420 423//423 279//279
f 421//421 279//279 423//423
f 281//281 279//279 421//421
f 421//421 279//279 281//281
f 423//423 279//279 421//421
f 279//279 423//423 420//420
f 284//284 286//286 276//276
f 278//278 276//276 286//286
f 286//286 276//276 278//278
f 276//276 286//286 284//284
f 286//286 284//284 278//278
f 276//276 278//278 284//284
f 284//284 278//278 276//276
f 278//278 284//284 286//286
f 276//276 397//397 278//278
f 424//424 278//278 397//397
f 266//266 424//424 397//397
f 399//399 424//424 266//266
f 397//397 276//276 398//398
f 398//398 276//276 397//397
f 266//266 424//424 399//399
f 397//397 424//424 266//266
f 397//397 278//278 424//424
f 278//278 397//397 276//276
f 424//424 399//399 425//425
f 426//426 425//425 399//399
f 399//399 425//425 426//426
f 425//425 399//399 424//424
f 425//425 426//426 427//427
f 428//428 427//427 426//426
f 426//426 427//427 428//428
f 427//427 426//426 425//425
f 429//429 286//286 422//422
f 284//284 422//422 286//286
f 286//286 422//422 284//284
f 422//422 286//286 429//429
f 422//422 430//430 284//284
f 276//276 284//284 430//430
f 398//398 276//276 430//430
f 428//428 398//398 430//430
f 426//426 398//398 428//428
f 399//399 398//398 426//426
f 426//426 398//398 399//399
f 428//428 398//398 426//426
f 430//430 398//398 428//428
f 430//430 276//276 398//398
f 430//430 284//284 276//276
f 284//284 430//430 422//422
f 423//423 420//420 431//431
f 419//419 431//431 420//420
f 420//420 431//431 419//419
f 431//431 420//420 423//423
f 432//432 423//423 417//417
f 431//431 417//417 423//423
f 419//419 417//417 431//431
f 415//415 417//417 419//419
f 414//414 415//415 419//419
f 403//403 414//414 419//419
f 402//402 403//403 419//419
f 405//405 402//402 419//419
f 407//407 405//405 419//419
f 409//409 407//407 419//419
f 411//411 409//409 419//419
f 419//419 409//409 411//411
f 419//419 407//407 409//409
f 419//419 405//405 407//407
f 419//419 402//402 405//405
f 419//419 403//403 402//402
f 419//419 414//414 403//403
f 419//419 415//415 414//414
f 419//419 417//417 415//415
f 431//431 417//417 419//419
f 423//423 417//417 431//431
f 417//417 423//423 432//432
f 433//433 416//416 434//434
f 418//418 434//434 416//416
f 413//413 418//418 416//416
f 412//412 418//418 413//413
f 401//401 418//418 412//412
f 400//400 418//418 401//401
f 404//404 418//418 400//400
f 406//406 418//418 404//404
f 408//408 418//418 406//406
f 410//410 418//418 408//408
f 408//408 418//418 410//410
f 406//406 418//418 408//408
f 404//404 418//418 406//406
f 400//400 418//418 404//404
f 401//401 418//418 400//400
f 412//412 418//418 401//401
f 413//413 418//418 412//412
f 416//416 418//418 413//413
f 416//416 434//434 418//418
f 434//434 416//416 433//433
f 416//416 433//433 417//417
f 435//435 417//417 433//433
f 432//432 417//417 435//435
f 435//435 417//417 432//432
f 433//433 417//417 435//435
f 417//417 433//433 416//416
f 434//434 418//418 436//436
f 419//419 436//436 418//418
f 431//431 436//436 419//419
f 419//419 436//436 431//431
f 418//418 436//436 419//419
f 436//436 418//418 434//434
f 421//421 423//423 422//422
f 431//431 422//422 423//423
f 429//429 422//422 431//431
f 431//431 422//422 429//429
f 423//423 422//422 431//431
f 422//422 423//423 421//421
f 431//431 419//419 429//429
f 285//285 429//429 419//419
f 286//286 429//429 285//285
f 285//285 429//429 286//286
f 419//419 429//429 285//285
f 429//429 419//419 431//431
f 432//432 437//437 423//423
f 438//438 423//423 437//437
f 421//421 423//423 438//438
f 439//439 421//421 438//438
f 422//422 421//421 439//439
f 439//439 421//421 422//422
f 438//438 421//421 439//439
f 438//438 423//423 421//421
f 437//437 423//423 438//438
f 423//423 437//437 432//432
f 427//427 440//440 425//425
f 424//424 425//425 440//440
f 429//429 286//286 440//440
f 278//278 440//440 286//286
f 424//424 440//440 278//278
f 278//278 440//440 424//424
f 286//286 440//440 278//278
f 440//440 286//286 429//429
f 440//440 425//425 424//424
f 425//425 440//440 427//427
f 422//422 439//439 430//430
f 441//441 430//430 439//439
f 439//439 430//430 441//441
f 430//430 439//439 422//422
f 422//422 429//429 430//430
f 440//440 430//430 429//429
f 429//429 430//430 440//440
f 430//430 429//429 422//422
f 430//430 440//440 428//428
f 427//427 428//428 440//440
f 440//440 428//428 427//427
f 428//428 440//440 430//430
f 429//429 422//422 440//440
f 430//430 440//440 422//422
f 422//422 440//440 430//430
f 440//440 422//422 429//429
f 442//442 443//443 437//437
f 438//438 437//437 443//443
f 443//443 437//437 438//438
f 437//437 443//443 442//442
f 432//432 435//435 437//437
f 442//442 437//437 435//435
f 435//435 437//437 442//442
f 437//437 435//435 432//432
f 435//435 436//436 432//432
f 423//423 432//432 436//436
f 431//431 423//423 436//436
f 436//436 423//423 431//431
f 436//436 432//432 423//423
f 432//432 436//436 435//435
f 435//435 433//433 436//436
f 434//434 436//436 433//433
f 433//433 436//436 434//434
f 436//436 433//433 435//435
f 436//436 431//431 444//444
f 429//429 444//444 431//431
f 431//431 444//444 429//429
f 444//444 431//431 436//436
f 445//445 446//446 439//439
f 441//441 439//439 446//446
f 446//446 439//439 441//441
f 439//439 446//446 445//445
f 443//443 445//445 438//438
f 439//439 438//438 445//445
f 445//445 438//438 439//439
f 438//438 445//445 443//443
f 444//444 429//429 447//447
f 440//440 447//447 429//429
f 429//429 447//447 440//440
f 447//447 429//429 444//444
f 448//448 449//449 450//450
f 451//451 450//450 449//449
f 449//449 450//450 451//451
f 450//450 449//449 448//448
f 452//452 453//453 454//454
f 455//455 454//454 453//453
f 453//453 454//454 455//455
f 454//454 453//453 452//452
f 456//456 457//457 446//446
f 441//441 446//446 457//457
f 457//457 446//446 441//441
f 446//446 457//457 456//456
f 440//440 447//447 430//430
f 446//446 430//430 447//447
f 441//441 430//430 446//446
f 446//446 430//430 441//441
f 447//447 430//430 446//446
f 430//430 447//447 440//440
f 443//443 444//444 445//445
f 447//447 445//445 444//444
f 446//446 445//445 447//447
f 442//442 435//435 443//443
f 436//436 443//443 435//435
f 444//444 443//443 436//436
f 436//436 443//443 444//444
f 435//435 443//443 436//436
f 443//443 435//435 442//442
f 447//447 445//445 446//446
f 444//444 445//445 447//447
f 445//445 444//444 443//443
f 458//458 447//447 459//459
f 440//440 459//459 447//447
f 447//447 459//459 440//440
f 459//459 447//447 458//458
f 460//460 461//461 462//462
f 463//463 462//462 461//461
f 461//461 462//462 463//463
f 462//462 461//461 460//460
f 463//463 457//457 462//462
f 456//456 462//462 457//457
f 457//457 462//462 456//456
f 462//462 457//457 463//463
f 464//464 465//465 466//466
f 467//467 466//466 465//465
f 465//465 466//466 467//467
f 466//466 465//465 464//464
f 468//468 469//469 465//465
f 467//467 465//465 469//469
f 469//469 465//465 467//467
f 465//465 469//469 468//468
f 470//470 471//471 468//468
f 469//469 468//468 471//471
f 471//471 468//468 469//469
f 468//468 471//471 470//470
f 472//472 473//473 470//470
f 471//471 470//470 473//473
f 473//473 470//470 471//471
f 470//470 473//473 472//472
f 474//474 475//475 472//472
f 473//473 472//472 475//475
f 475//475 472//472 473//473
f 472//472 475//475 474//474
f 476//476 477//477 478//478
f 479//479 478//478 477//477
f 477//477 478//478 479//479
f 478//478 477//477 476//476
f 477//477 480//480 479//479
f 481//481 479//479 480//480
f 480//480 479//479 481//481
f 479//479 480//480 477//477
f 480//480 464//464 481//481
f 466//466 481//481 464//464
f 464//464 481//481 466//466
f 481//481 464//464 480//480
f 451//451 449//449 482//482
f 454//454 482//482 449//449
f 455//455 482//482 454//454
f 454//454 482//482 455//455
f 449//449 482//482 454//454
f 482//482 449//449 451//451
f 455//455 453//453 482//482
f 450//450 482//482 453//453
f 451//451 482//482 450//450
f 450//450 482//482 451//451
f 453//453 482//482 450//450
f 482//482 453//453 455//455
f 483//483 455//455 474//474
f 482//482 475//475 455//455
f 474//474 455//455 475//475
f 475//475 455//455 474//474
f 455//455 475//475 482//482
f 474//474 455//455 483//483
f 484//484 485//485 476//476
f 483//483 476//476 485//485
f 477//477 476//476 483//483
f 480//480 477//477 483//483
f 464//464 480//480 483//483
f 465//465 464//464 483//483
f 468//468 465//465 483//483
f 470//470 468//468 483//483
f 472//472 470//470 483//483
f 474//474 472//472 483//483
f 483//483 472//472 474//474
f 483//483 470//470 472//472
f 483//483 468//468 470//470
f 483//483 465//465 468//468
f 483//483 464//464 465//465
f 483//483 480//480 464//464
f 483//483 477//477 480//480
f 483//483 476//476 477//477
f 485//485 476//476 483//483
f 476//476 485//485 484//484
f 484//484 476//476 460//460
f 478//478 460//460 476//476
f 461//461 460//460 478//478
f 478//478 460//460 461//461
f 476//476 460//460 478//478
f 460//460 476//476 484//484
f 460//460 461//461 5//5
f 8//8 5//5 461//461
f 461//461 5//5 8//8
f 5//5 461//461 460//460
f 446//446 447//447 456//456
f 458//458 456//456 447//447
f 7//7 456//456 458//458
f 462//462 456//456 7//7
f 5//5 462//462 7//7
f 460//460 462//462 5//5
f 5//5 462//462 460//460
f 7//7 462//462 5//5
f 7//7 456//456 462//462
f 458//458 456//456 7//7
f 447//447 456//456 458//458
f 456//456 447//447 446//446
f 5//5 8//8 486//486
f 482//482 486//486 8//8
f 478//478 482//482 8//8
f 479//479 482//482 478//478
f 481//481 482//482 479//479
f 466//466 482//482 481//481
f 467//467 482//482 466//466
f 469//469 482//482 467//467
f 471//471 482//482 469//469
f 473//473 482//482 471//471
f 475//475 482//482 473//473
f 8//8 461//461 478//478
f 478//478 461//461 8//8
f 473//473 482//482 475//475
f 471//471 482//482 473//473
f 469//469 482//482 471//471
f 467//467 482//482 469//469
f 466//466 482//482 467//467
f 481//481 482//482 466//466
f 479//479 482//482 481//481
f 478//478 482//482 479//479
f 8//8 482//482 478//478
f 8//8 486//486 482//482
f 486//486 8//8 5//5
f 483//483 485//485 455//455
f 486//486 455//455 485//485
f 482//482 455//455 486//486
f 486//486 455//455 482//482
f 485//485 455//455 486//486
f 455//455 485//485 483//483
f 486//486 485//485 5//5
f 484//484 5//5 485//485
f 460//460 5//5 484//484
f 484//484 5//5 460//460
f 485//485 5//5 484//484
f 5//5 485//485 486//486
f 106//106 107//107 108//108
f 107//107 106//106 105//105
f 109//109 108//108 110//110
f 108//108 109//109 106//106
f 111//111 110//110 112//112
f 110//110 111//111 109//109
f 111//111 113//113 114//114
f 113//113 111//111 112//112
f 114//114 115//115 116//116
f 115//115 114//114 113//113
f 116//116 117//117 118//118
f 117//117 116//116 115//115
f 118//118 119//119 120//120
f 119//119 118//118 117//117
f 120//120 121//121 122//122
f 121//121 120//120 119//119
f 122//122 123//123 124//124
f 123//123 122//122 121//121
f 125//125 123//123 126//126
f 123//123 125//125 124//124
f 127//127 126//126 128//128
f 126//126 127//127 125//125
f 129//129 128//128 130//130
f 128//128 129//129 127//127
f 131//131 130//130 132//132
f 130//130 131//131 129//129
f 133//133 132//132 134//134
f 132//132 133//133 131//131
f 135//135 134//134 136//136
f 134//134 135//135 133//133
f 138//138 135//135 136//136
f 135//135 138//138 137//137
f 140//140 137//137 138//138
f 137//137 140//140 139//139
f 142//142 139//139 140//140
f 139//139 142//142 141//141
f 144//144 141//141 142//142
f 141//141 144//144 143//143
f 146//146 143//143 144//144
f 143//143 146//146 145//145
f 148//148 145//145 146//146
f 145//145 148//148 147//147
f 149//149 148//148 150//150
f 148//148 149//149 147//147
f 120//120 116//116 118//118
f 120//120 114//114 116//116
f 122//122 114//114 120//120
f 122//122 111//111 114//114
f 124//124 111//111 122//122
f 124//124 109//109 111//111
f 125//125 109//109 124//124
f 125//125 106//106 109//109
f 127//127 106//106 125//125
f 127//127 105//105 106//106
f 129//129 105//105 127//127
f 129//129 151//151 105//105
f 131//131 151//151 129//129
f 131//131 149//149 151//151
f 133//133 149//149 131//131
f 133//133 147//147 149//149
f 135//135 147//147 133//133
f 135//135 145//145 147//147
f 137//137 145//145 135//135
f 137//137 143//143 145//145
f 139//139 143//143 137//137
f 143//143 139//139 141//141
f 105//105 152//152 107//107
f 152//152 105//105 151//151
f 115//115 119//119 117//117
f 113//113 119//119 115//115
f 113//113 121//121 119//119
f 112//112 121//121 113//113
f 112//112 123//123 121//121
f 110//110 123//123 112//112
f 110//110 126//126 123//123
f 108//108 126//126 110//110
f 108//108 128//128 126//126
f 107//107 128//128 108//108
f 107//107 130//130 128//128
f 152//152 130//130 107//107
f 152//152 132//132 130//130
f 150//150 132//132 152//152
f 150//150 134//134 132//132
f 148//148 134//134 150//150
f 148//148 136//136 134//134
f 146//146 136//136 148//148
f 146//146 138//138 136//136
f 144//144 138//138 146//146
f 144//144 140//140 138//138
f 140//140 144//144 142//142
f 151//151 150//150 152//152
f 150//150 151//151 149//149
f 154//154 155//155 156//156
f 155//155 154//154 153//153
f 157//157 156//156 158//158
f 156//156 157//157 154//154
f 159//159 158//158 160//160
f 158//158 159//159 157//157
f 161//161 160//160 162//162
f 160//160 161//161 159//159
f 161//161 163//163 164//164
f 163//163 161//161 162//162
f 166//166 167//167 168//168
f 167//167 166//166 165//165
f 168//168 169//169 170//170
f 169//169 168//168 167//167
f 171//171 169//169 172//172
f 169//169 171//171 170//170
f 173//173 172//172 174//174
f 172//172 173//173 171//171
f 175//175 174//174 176//176
f 174//174 175//175 173//173
f 177//177 176//176 178//178
f 176//176 177//177 175//175
f 179//179 178//178 180//180
f 178//178 179//179 177//177
f 181//181 180//180 182//182
f 180//180 181//181 179//179
f 184//184 181//181 182//182
f 181//181 184//184 183//183
f 186//186 183//183 184//184
f 183//183 186//186 185//185
f 188//188 185//185 186//186
f 185//185 188//188 187//187
f 190//190 187//187 188//188
f 187//187 190//190 189//189
f 192//192 189//189 190//190
f 189//189 192//192 191//191
f 194//194 191//191 192//192
f 191//191 194//194 193//193
f 195//195 194//194 196//196
f 194//194 195//195 193//193
f 153//153 196//196 155//155
f 196//196 153//153 195//195
f 164//164 197//197 198//198
f 197//197 164//164 163//163
f 166//166 198//198 199//199
f 166//166 164//164 198//198
f 168//168 164//164 166//166
f 168//168 161//161 164//164
f 170//170 161//161 168//168
f 170//170 159//159 161//161
f 171//171 159//159 170//170
f 171//171 157//157 159//159
f 173//173 157//157 171//171
f 173//173 154//154 157//157
f 175//175 154//154 173//173
f 175//175 153//153 154//154
f 177//177 153//153 175//175
f 177//177 195//195 153//153
f 179//179 195//195 177//177
f 179//179 193//193 195//195
f 181//181 193//193 179//179
f 181//181 191//191 193//193
f 183//183 191//191 181//181
f 183//183 189//189 191//191
f 185//185 189//189 183//183
f 189//189 185//185 187//187
f 199//199 165//165 166//166
f 165//165 199//199 200//200
f 197//197 165//165 200//200
f 163//163 165//165 197//197
f 163//163 167//167 165//165
f 162//162 167//167 163//163
f 162//162 169//169 167//167
f 160//160 169//169 162//162
f 160//160 172//172 169//169
f 158//158 172//172 160//160
f 158//158 174//174 172//172
f 156//156 174//174 158//158
f 156//156 176//176 174//174
f 155//155 176//176 156//156
f 155//155 178//178 176//176
f 196//196 178//178 155//155
f 196//196 180//180 178//178
f 194//194 180//180 196//196
f 194//194 182//182 180//180
f 192//192 182//182 194//194
f 192//192 184//184 182//182
f 190//190 184//184 192//192
f 190//190 186//186 184//184
f 186//186 190//190 188//188
f 198//198 200//200 199//199
f 200//200 198//198 197//197
f 487//487 488//488 489//489
f 490//490 489//489 488//488
f 488//488 489//489 490//490
f 489//489 488//488 487//487
f 491//491 492//492 487//487
f 488//488 487//487 492//492
f 492//492 487//487 488//488
f 487//487 492//492 491//491
f 493//493 489//489 494//494
f 490//490 494//494 489//489
f 489//489 494//494 490//490
f 494//494 489//489 493//493
f 495//495 494//494 492//492
f 488//488 492//492 494//494
f 490//490 488//488 494//494
f 494//494 488//488 490//490
f 494//494 492//492 488//488
f 492//492 494//494 495//495
f 491//491 496//496 492//492
f 495//495 492//492 496//496
f 496//496 492//492 495//495
f 492//492 496//496 491//491
f 496//496 491//491 493//493
f 487//487 493//493 491//491
f 489//489 493//493 487//487
f 487//487 493//493 489//489
f 491//491 493//493 487//487
f 493//493 491//491 496//496
f 496//496 493//493 495//495
f 494//494 495//495 493//493
f 493//493 495//495 494//494
f 495//495 493//493 496//496
f 8//8 5//5 6//6
f 7//7 6//6 5//5