# https://github.com/mikedh/trimesh
v 0.02293500 0.01018000 0.01910700
v 0.01920300 0.00956400 0.02140600
v 0.02293500 0.00637000 0.01808600
v 0.01920300 0.00575400 0.02038500
v 0.01498400 0.00537900 0.02178200
v 0.01498400 0.00919000 0.02280300
v 0.01037100 0.00525500 0.02224800
v 0.01037100 0.00906500 0.02326800
v 0.00530200 0.00541800 0.02163800
v 0.00530200 0.00922800 0.02265800
v 0.00256000 0.00570600 0.02056400
v 0.00256000 0.00951600 0.02158500
v 0.00281800 0.00576000 0.02036300
v 0.00281800 0.00957000 0.02138400
v 0.00578100 0.01047200 0.01801600
v 0.00578100 0.00666200 0.01699500
v 0.00789700 0.01147400 0.01427800
v 0.00789700 0.00766400 0.01325700
v 0.00916500 0.01257500 0.01017000
v 0.00916500 0.00876500 0.00914900
v 0.00958800 0.01377500 0.00569200
v 0.00958800 0.00996400 0.00467100
v 0.00924000 0.01491900 0.00142200
v 0.00924000 0.01110800 0.00040100
v 0.00819200 0.01597500 -0.00252200
v 0.00819200 0.01216500 -0.00354300
v 0.00644600 0.01694500 -0.00614200
v 0.00644600 0.01313500 -0.00716300
v 0.00400100 0.01782800 -0.00943700
v 0.00400100 0.01401800 -0.01045800
v 0.00189500 0.01452100 -0.01233600
v 0.00189500 0.01833200 -0.01131500
v 0.00296200 0.01847200 -0.01184000
v 0.00296200 0.01466200 -0.01286100
v 0.00661900 0.01873300 -0.01281400
v 0.00661900 0.01492300 -0.01383500
v 0.01063800 0.01882000 -0.01313900
v 0.01063800 0.01501000 -0.01416000
v 0.01506900 0.01870300 -0.01270300
v 0.01506900 0.01489300 -0.01372400
v 0.01912000 0.01835200 -0.01139300
v 0.01912000 0.01454200 -0.01241300
v 0.02279400 0.01776700 -0.00920900
v 0.02279400 0.01395700 -0.01023000
v 0.02609300 0.01694800 -0.00615200
v 0.02609300 0.01313800 -0.00717300
v 0.02956000 0.01762900 -0.00869300
v 0.02956000 0.01381900 -0.00971400
v 0.02586400 0.01858900 -0.01227700
v 0.02586400 0.01477900 -0.01329800
v 0.02135400 0.01549400 -0.01596500
v 0.02135400 0.01930400 -0.01494400
v 0.01615100 0.01593800 -0.01762100
v 0.01615100 0.01974800 -0.01660000
v 0.01037100 0.01989600 -0.01715300
v 0.01037100 0.01608500 -0.01817300
v 0.00490500 0.01977100 -0.01668900
v 0.00490500 0.01596100 -0.01771000
v 0.00005000 0.01939900 -0.01529800
v 0.00005000 0.01558800 -0.01631800
v -0.00218800 0.01907100 -0.01407600
v -0.00218800 0.01526100 -0.01509700
v -0.00388500 0.01931900 -0.01500200
v -0.00388500 0.01550900 -0.01602300
v -0.00874000 0.01969200 -0.01639300
v -0.00874000 0.01588200 -0.01741400
v -0.01420300 0.01981600 -0.01685700
v -0.01420300 0.01600600 -0.01787800
v -0.01998300 0.01966900 -0.01630500
v -0.01998300 0.01585800 -0.01732600
v -0.02518800 0.01922500 -0.01464900
v -0.02518800 0.01541400 -0.01566900
v -0.02969900 0.01851000 -0.01198100
v -0.02969900 0.01470000 -0.01300200
v -0.03339300 0.01755000 -0.00839800
v -0.03339300 0.01374000 -0.00941900
v -0.02992500 0.01686900 -0.00585700
v -0.02992500 0.01305900 -0.00687800
v -0.02662900 0.01768800 -0.00891400
v -0.02662900 0.01387800 -0.00993500
v -0.02295500 0.01827300 -0.01109700
v -0.02295500 0.01446300 -0.01211800
v -0.01890200 0.01862400 -0.01240700
v -0.01890200 0.01481400 -0.01342800
v -0.01447300 0.01874100 -0.01284400
v -0.01447300 0.01493100 -0.01386500
v -0.01045400 0.01865400 -0.01251900
v -0.01045400 0.01484400 -0.01354000
v -0.00679400 0.01839300 -0.01154500
v -0.00679400 0.01458300 -0.01256600
v -0.00615500 0.01830900 -0.01123000
v -0.00615500 0.01449900 -0.01225100
v -0.00783300 0.01409700 -0.01075300
v -0.00783300 0.01790700 -0.00973200
v -0.01027900 0.01702500 -0.00643700
v -0.01027900 0.01321400 -0.00745800
v -0.01202500 0.01605400 -0.00281800
v -0.01202500 0.01224400 -0.00383800
v -0.01307500 0.01499800 0.00112700
v -0.01307500 0.01118800 0.00010600
v -0.01342300 0.01385400 0.00539700
v -0.01342300 0.01004400 0.00437600
v -0.01300000 0.01265400 0.00987400
v -0.01300000 0.00884400 0.00885400
v -0.01173000 0.01155300 0.01398300
v -0.01173000 0.00774300 0.01296200
v -0.00961400 0.01055100 0.01772100
v -0.00961400 0.00674100 0.01670000
v -0.00665300 0.00964900 0.02108900
v -0.00665300 0.00583900 0.02006800
v -0.00588600 0.00949000 0.02168200
v -0.00588600 0.00568000 0.02066100
v -0.00913700 0.00533900 0.02193300
v -0.00913700 0.00914900 0.02295400
v -0.01420300 0.00517600 0.02254300
v -0.01420300 0.00898600 0.02356400
v -0.01881800 0.00530000 0.02207700
v -0.01881800 0.00911000 0.02309800
v -0.02303600 0.00567500 0.02068000
v -0.02303600 0.00948500 0.02170100
v -0.02676800 0.00629100 0.01838200
v -0.02676800 0.01010100 0.01940300
v -0.02992500 0.01095100 0.01623000
v -0.02992500 0.00714100 0.01520900
v -0.03339300 0.00645200 0.01777900
v -0.03339300 0.01026200 0.01880000
v -0.02977600 0.00925200 0.02257100
v -0.02977600 0.00544100 0.02155000
v -0.02526300 0.00849400 0.02539700
v -0.02526300 0.00468400 0.02437600
v -0.02000300 0.00802200 0.02716200
v -0.02000300 0.00421200 0.02614100
v -0.01414300 0.00786400 0.02775000
v -0.01414300 0.00405400 0.02672900
v -0.00926100 0.00797100 0.02735200
v -0.00926100 0.00416000 0.02633100
v -0.00480600 0.00829000 0.02615900
v -0.00480600 0.00448000 0.02513800
v -0.00161700 0.00871300 0.02458300
v -0.00161700 0.00490200 0.02356200
v 0.00097400 0.00837000 0.02586300
v 0.00097400 0.00456000 0.02484200
v 0.00542800 0.00805000 0.02705700
v 0.00542800 0.00424000 0.02603600
v 0.01031100 0.00794300 0.02745500
v 0.01031100 0.00413300 0.02643400
v 0.01616800 0.00810100 0.02686700
v 0.01616800 0.00429100 0.02584600
v 0.02142800 0.00857400 0.02510200
v 0.02142800 0.00476300 0.02408100
v 0.02594300 0.00933100 0.02227600
v 0.02594300 0.00552100 0.02125500
v 0.02956000 0.01034100 0.01850500
v 0.02956000 0.00653100 0.01748400
v -0.00210900 0.01767000 -0.00884600
v -0.00327600 0.01742800 -0.00794200
v -0.00568700 0.01668800 -0.00518300
v -0.00741200 0.01586300 -0.00210300
v -0.00844500 0.01495200 0.00129900
v -0.00879100 0.01395400 0.00502100
v -0.00817300 0.01264600 0.00990400
v -0.00632400 0.01147500 0.01427500
v -0.00335300 0.01048500 0.01797000
v -0.00171100 0.01016800 0.01915000
v -0.00055900 0.01734900 -0.00764700
v 0.00185400 0.01660900 -0.00488800
v 0.00357700 0.01578400 -0.00180800
v 0.00461200 0.01487300 0.00159400
v 0.00495600 0.01387500 0.00531600
v 0.00434000 0.01256700 0.01020000
v 0.00248900 0.01139600 0.01457000
v -0.00048000 0.01040500 0.01826600
v 0.02609300 0.01103000 0.01593500
v 0.02609300 0.00722000 0.01491400
v -0.00210900 0.01386000 -0.00986700
v -0.00055900 0.01353900 -0.00866800
v 0.00185400 0.01279900 -0.00590900
v 0.00357700 0.01197400 -0.00282900
v 0.00461200 0.01106300 0.00057300
v 0.00495600 0.01006500 0.00429600
v 0.00434000 0.00875600 0.00917900
v 0.00248900 0.00758600 0.01354900
v -0.00048000 0.00659500 0.01724500
v -0.00171100 0.00635800 0.01812900
v -0.00327600 0.01361800 -0.00896300
v -0.00568700 0.01287800 -0.00620400
v -0.00741200 0.01205300 -0.00312400
v -0.00844500 0.01114200 0.00027800
v -0.00879100 0.01014400 0.00400000
v -0.00817300 0.00883600 0.00888300
v -0.00632400 0.00766500 0.01325400
v -0.00335300 0.00667400 0.01695000
v 0.02660400 -0.00634300 0.02042300
v 0.02287100 -0.00572700 0.02272100
v 0.02660400 -0.01015300 0.02144400
v 0.02287100 -0.00953700 0.02374200
v 0.01865400 -0.00916300 0.02513900
v 0.01865400 -0.00535300 0.02411800
v 0.01403900 -0.00903800 0.02560500
v 0.01403900 -0.00522800 0.02458400
v 0.00897300 -0.00920200 0.02499500
v 0.00897300 -0.00539100 0.02397400
v 0.00622800 -0.00948900 0.02392100
v 0.00622800 -0.00567900 0.02290000
v 0.00648900 -0.00954300 0.02372000
v 0.00648900 -0.00573300 0.02269900
v 0.00944900 -0.00663600 0.01933100
v 0.00944900 -0.01044600 0.02035200
v 0.01156600 -0.00763700 0.01559300
v 0.01156600 -0.01144700 0.01661400
v 0.01283500 -0.00873800 0.01148500
v 0.01283500 -0.01254800 0.01250600
v 0.01325900 -0.00993800 0.00700700
v 0.01325900 -0.01374800 0.00802800
v 0.01291000 -0.01108200 0.00273800
v 0.01291000 -0.01489200 0.00375900
v 0.01186100 -0.01213900 -0.00120700
v 0.01186100 -0.01594900 -0.00018600
v 0.01011400 -0.01310900 -0.00482700
v 0.01011400 -0.01691900 -0.00380600
v 0.00766900 -0.01399100 -0.00812200
v 0.00766900 -0.01780200 -0.00710100
v 0.00556500 -0.01830500 -0.00897900
v 0.00556500 -0.01449500 -0.01000000
v 0.00663000 -0.01463500 -0.01052500
v 0.00663000 -0.01844500 -0.00950400
v 0.01028900 -0.01489700 -0.01149900
v 0.01028900 -0.01870700 -0.01047800
v 0.01430800 -0.01498400 -0.01182400
v 0.01430800 -0.01879400 -0.01080300
v 0.01873700 -0.01486600 -0.01138700
v 0.01873700 -0.01867700 -0.01036600
v 0.02279000 -0.01451500 -0.01007700
v 0.02279000 -0.01832500 -0.00905600
v 0.02646500 -0.01393000 -0.00789400
v 0.02646500 -0.01774000 -0.00687300
v 0.02976100 -0.01311100 -0.00483700
v 0.02976100 -0.01692100 -0.00381600
v 0.03322800 -0.01379200 -0.00737800
v 0.03322800 -0.01760200 -0.00635700
v 0.02953400 -0.01475200 -0.01096100
v 0.02953400 -0.01856300 -0.00994000
v 0.02502400 -0.01927700 -0.01260800
v 0.02502400 -0.01546700 -0.01362800
v 0.01981900 -0.01972100 -0.01426400
v 0.01981900 -0.01591100 -0.01528500
v 0.01403900 -0.01605900 -0.01583700
v 0.01403900 -0.01986900 -0.01481600
v 0.00857500 -0.01593500 -0.01537300
v 0.00857500 -0.01974500 -0.01435300
v 0.00372100 -0.01556200 -0.01398200
v 0.00372100 -0.01937200 -0.01296100
v 0.00148200 -0.01523400 -0.01276000
v 0.00148200 -0.01904500 -0.01173900
v -0.00021500 -0.01548300 -0.01368700
v -0.00021500 -0.01929300 -0.01266600
v -0.00506900 -0.01585500 -0.01507800
v -0.00506900 -0.01966600 -0.01405700
v -0.01053500 -0.01598000 -0.01554200
v -0.01053500 -0.01979000 -0.01452100
v -0.01631500 -0.01583200 -0.01499000
v -0.01631500 -0.01964200 -0.01396900
v -0.02151800 -0.01538800 -0.01333300
v -0.02151800 -0.01919800 -0.01231200
v -0.02602900 -0.01467300 -0.01066600
v -0.02602900 -0.01848300 -0.00964500
v -0.02972400 -0.01371300 -0.00708200
v -0.02972400 -0.01752300 -0.00606100
v -0.02625700 -0.01303200 -0.00454200
v -0.02625700 -0.01684200 -0.00352100
v -0.02295900 -0.01385100 -0.00759900
v -0.02295900 -0.01766100 -0.00657800
v -0.01928400 -0.01443600 -0.00978200
v -0.01928400 -0.01824600 -0.00876100
v -0.01523400 -0.01478700 -0.01109200
v -0.01523400 -0.01859700 -0.01007100
v -0.01080200 -0.01490400 -0.01152900
v -0.01080200 -0.01871500 -0.01050800
v -0.00678400 -0.01481700 -0.01120400
v -0.00678400 -0.01862800 -0.01018300
v -0.00312600 -0.01455600 -0.01022900
v -0.00312600 -0.01836600 -0.00920900
v -0.00248700 -0.01447200 -0.00991500
v -0.00248700 -0.01828200 -0.00889400
v -0.00416500 -0.01788100 -0.00739600
v -0.00416500 -0.01407100 -0.00841700
v -0.00661100 -0.01318800 -0.00512200
v -0.00661100 -0.01699800 -0.00410100
v -0.00835700 -0.01221800 -0.00150200
v -0.00835700 -0.01602800 -0.00048100
v -0.00940400 -0.01116100 0.00244200
v -0.00940400 -0.01497100 0.00346300
v -0.00975300 -0.01001700 0.00671200
v -0.00975300 -0.01382700 0.00773300
v -0.00933000 -0.00881700 0.01119000
v -0.00933000 -0.01262700 0.01221100
v -0.00806200 -0.00771600 0.01529800
v -0.00806200 -0.01152600 0.01631900
v -0.00594600 -0.00671500 0.01903600
v -0.00594600 -0.01052500 0.02005700
v -0.00298300 -0.00581200 0.02240400
v -0.00298300 -0.00962200 0.02342500
v -0.00221600 -0.00565300 0.02299700
v -0.00221600 -0.00946300 0.02401800
v -0.00546700 -0.00912200 0.02529000
v -0.00546700 -0.00531200 0.02426900
v -0.01053500 -0.00895900 0.02590000
v -0.01053500 -0.00514900 0.02487900
v -0.01514800 -0.00908400 0.02543500
v -0.01514800 -0.00527400 0.02441400
v -0.01936800 -0.00945800 0.02403800
v -0.01936800 -0.00564800 0.02301700
v -0.02310000 -0.01007400 0.02173900
v -0.02310000 -0.00626400 0.02071800
v -0.02625700 -0.00711400 0.01754500
v -0.02625700 -0.01092400 0.01856600
v -0.02972400 -0.01023500 0.02113600
v -0.02972400 -0.00642500 0.02011500
v -0.02610800 -0.00541500 0.02388700
v -0.02610800 -0.00922500 0.02490800
v -0.02159300 -0.00465800 0.02671200
v -0.02159300 -0.00846800 0.02773300
v -0.01633200 -0.00418500 0.02847700
v -0.01633200 -0.00799500 0.02949800
v -0.01047500 -0.00402700 0.02906500
v -0.01047500 -0.00783700 0.03008600
v -0.00559300 -0.00413400 0.02866800
v -0.00559300 -0.00794400 0.02968900
v -0.00113800 -0.00445400 0.02747400
v -0.00113800 -0.00826400 0.02849500
v 0.00205100 -0.00487600 0.02589900
v 0.00205100 -0.00868600 0.02692000
v 0.00464200 -0.00453300 0.02717900
v 0.00464200 -0.00834300 0.02820000
v 0.00909700 -0.00421300 0.02837200
v 0.00909700 -0.00802300 0.02939300
v 0.01397900 -0.00410600 0.02877000
v 0.01397900 -0.00791600 0.02979100
v 0.01983800 -0.00426400 0.02818200
v 0.01983800 -0.00807400 0.02920300
v 0.02509900 -0.00473700 0.02641700
v 0.02509900 -0.00854700 0.02743800
v 0.02961300 -0.00549400 0.02359100
v 0.02961300 -0.00930400 0.02461200
v 0.03322800 -0.00650500 0.01982000
v 0.03322800 -0.01031500 0.02084100
v 0.00156200 -0.01383300 -0.00753100
v 0.00039400 -0.01359100 -0.00662700
v -0.00201900 -0.01285200 -0.00386800
v -0.00374200 -0.01202600 -0.00078800
v -0.00477600 -0.01111500 0.00261400
v -0.00512100 -0.01011700 0.00633700
v -0.00450500 -0.00880900 0.01122000
v -0.00265400 -0.00763800 0.01559000
v 0.00031500 -0.00664800 0.01928600
v 0.00195700 -0.00633200 0.02046500
v 0.00311100 -0.01351200 -0.00633200
v 0.00552300 -0.01277300 -0.00357300
v 0.00724800 -0.01194700 -0.00049200
v 0.00828000 -0.01103600 0.00290900
v 0.00862600 -0.01003800 0.00663200
v 0.00800900 -0.00873000 0.01151500
v 0.00616000 -0.00755900 0.01588500
v 0.00318800 -0.00656900 0.01958100
v 0.02976100 -0.00719300 0.01725000
v 0.02976100 -0.01100300 0.01827100
v 0.00156200 -0.01764300 -0.00651000
v 0.00311100 -0.01732200 -0.00531100
v 0.00552300 -0.01658300 -0.00255200
v 0.00724800 -0.01575700 0.00052900
v 0.00828000 -0.01484600 0.00393000
v 0.00862600 -0.01384800 0.00765300
v 0.00800900 -0.01254000 0.01253600
v 0.00616000 -0.01136900 0.01690600
v 0.00318800 -0.01037900 0.02060200
v 0.00195700 -0.01014200 0.02148600
v 0.00039400 -0.01740100 -0.00560600
v -0.00201900 -0.01666200 -0.00284700
v -0.00374200 -0.01583600 0.00023300
v -0.00477600 -0.01492500 0.00363500
v -0.00512100 -0.01392800 0.00735700
v -0.00450500 -0.01261900 0.01224100
v -0.00265400 -0.01144800 0.01661100
v 0.00031500 -0.01045800 0.02030700
v 0.05421500 0.01432600 -0.03266600
v -0.02153100 0.01457500 -0.02363800
v -0.04446400 0.01490400 -0.01051300
v 0.04600200 0.00168900 -0.04946200
v 0.05312300 0.00033100 -0.05218400
v -0.05056200 0.01457500 -0.02363800
v -0.07601100 0.00033100 0.01216800
v -0.08075400 0.00033100 0.04071400
v 0.05386000 0.01231600 0.00860500
v 0.07294500 -0.00159400 -0.02850100
v 0.07378500 -0.00220600 -0.03013300
v 0.06473000 0.00033100 -0.05218400
v 0.06794100 0.00732800 -0.04242500
v -0.07256400 0.00192300 -0.02220400
v -0.07601100 0.00033100 -0.02363800
v -0.06372200 -0.01081700 0.01216800
v -0.05211000 0.00033100 0.04071400
v 0.07030500 0.00033100 0.00618500
v 0.08166800 0.00033100 0.04071400
v 0.07378500 -0.00220600 0.00567300
v 0.07650800 -0.00132900 -0.03775300
v 0.07451200 -0.00324000 -0.04502800
v 0.07256200 0.00033100 -0.05218400
v 0.07349600 -0.00137800 -0.04875900
v 0.05312300 -0.01391400 -0.02363800
v -0.05056200 0.00033100 -0.05218400
v -0.07442100 0.00245100 -0.04390800
v -0.07300300 0.00337700 -0.04608000
v -0.07767000 0.00033100 -0.03893000
v 0.00977000 0.00033100 0.04071400
v 0.05389700 0.00033100 0.04071400
v 0.07112400 -0.00358700 0.00744900
v 0.05948600 -0.00962700 0.01521700
v 0.07451600 -0.00292100 -0.04181500
v 0.07019600 -0.00423900 -0.02900500
v -0.06818800 0.00229900 -0.04824000
v -0.07039900 0.00033100 -0.05218400
v -0.07256400 -0.00113500 -0.02402800
v -0.07164800 -0.00263900 -0.04859200
v -0.03049800 -0.01901800 -0.02877800
v -0.07327700 -0.00183600 -0.04597900
v -0.00167000 -0.01214300 0.00877400
v 0.02835000 -0.01391400 -0.02363800
v -0.04909000 -0.00108900 -0.05046700
v 0.04143200 0.00033100 0.04071400
v 0.03857600 0.00033100 0.04073900
v 0.04154100 0.00033100 0.05294700
v 0.03868100 0.00033100 0.05256000
v 0.03554700 0.00033100 0.06352800
v 0.03817900 0.00033100 0.06471000
v 0.02943400 0.00033100 0.07316000
v 0.03162300 0.00033100 0.07503900
v 0.02084100 0.00033100 0.08066500
v 0.02241000 0.00033100 0.08308700
v 0.01047500 0.00033100 0.08542900
v 0.01129200 0.00033100 0.08819600
v -0.00081500 0.00033100 0.08706100
v -0.04306200 0.00033100 0.04071400
v -0.04317000 0.00033100 0.05294700
v -0.04020700 0.00033100 0.04073900
v -0.04031000 0.00033100 0.05256000
v -0.03717600 0.00033100 0.06352800
v -0.03980800 0.00033100 0.06471000
v -0.03106300 0.00033100 0.07316000
v -0.03325100 0.00033100 0.07503900
v -0.02247200 0.00033100 0.08066500
v -0.02403800 0.00033100 0.08308700
v -0.01210400 0.00033100 0.08542900
v -0.01292300 0.00033100 0.08819600
v -0.00081500 0.00033100 0.08994600
v 0.08166800 0.00033100 -0.05218400
v -0.07910800 0.00033100 -0.05218400
v 0.08580700 -0.00351000 0.04172400
v 0.08580700 0.00187600 0.04071400
v 0.08580700 0.00187600 0.04172400
v 0.08580700 -0.00351000 0.04071400
v -0.08803600 0.00187600 0.04172400
v -0.08803600 0.00187600 0.04071400
v -0.08803600 -0.00351000 0.04172400
v -0.08803600 -0.00351000 0.04071400
vn -0.00000000 -0.00000000 -0.00000000
vn -0.00000000 -0.00000000 -0.00000000
vn 0.00000000 -0.00000000 -0.00000000
vn 0.00000000 0.00000000 0.00000000
vn -0.00000000 0.00000000 0.00000000
vn 0.00000000 -0.00000000 0.00000000
vn -0.00000000 -0.00000000 -0.00000000
vn 0.00000000 0.00000000 0.00000000
vn -0.00000000 0.00000000 0.00000000
vn 0.00000000 -0.00000000 -0.00000000
vn -0.00000000 -0.00000000 -0.00000000
vn 0.00000000 0.00000000 0.00000000
vn 0.00000000 -0.00000000 0.00000000
vn -0.00000000 -0.00000000 -0.00000000
vn 0.00000000 0.00000000 0.00000000
vn -0.00000000 0.00000000 0.00000000
vn 0.00000000 -0.00000000 0.00000000
vn -0.00000000 0.00000000 -0.00000000
vn -0.00000000 0.00000000 -0.00000000
vn -0.00000000 -0.00000000 0.00000000
vn 0.00000000 0.00000000 0.00000000
vn 0.00000000 0.00000000 0.00000000
vn -0.00000000 0.00000000 0.00000000
vn 0.00000000 -0.00000000 -0.00000000
vn 0.00000000 0.00000000 -0.00000000
vn -0.00000000 0.00000000 0.00000000
vn -0.00000000 -0.00000000 0.00000000
vn 0.00000000 -0.00000000 0.00000000
vn 0.00000000 -0.00000000 -0.00000000
vn 0.00000000 0.00000000 0.00000000
vn -0.00000000 0.00000000 -0.00000000
vn 0.00000000 -0.00000000 -0.00000000
vn 0.00000000 0.00000000 0.00000000
vn 0.00000000 -0.00000000 -0.00000000
vn -0.00000000 -0.00000000 -0.00000000
vn 0.00000000 -0.00000000 -0.00000000
vn 0.00000000 -0.00000000 -0.00000000
vn 0.00000000 0.00000000 0.00000000
vn 0.00000000 -0.00000000 -0.00000000
vn 0.00000000 -0.00000000 -0.00000000
vn -0.00000000 0.00000000 0.00000000
vn -0.00000000 -0.00000000 -0.00000000
vn -0.00000000 -0.00000000 -0.00000000
vn 0.00000000 0.00000000 0.00000000
vn 0.00000000 -0.00000000 -0.00000000
vn -0.00000000 0.00000000 -0.00000000
vn -0.00000000 0.00000000 -0.00000000
vn 0.00000000 0.00000000 0.00000000
vn 0.00000000 0.00000000 0.00000000
vn -0.00000000 0.00000000 0.00000000
vn -0.00000000 -0.00000000 -0.00000000
vn -0.00000000 0.00000000 0.00000000
vn -0.00000000 0.00000000 0.00000000
vn 0.00000000 -0.00000000 -0.00000000
vn 0.00000000 0.00000000 0.00000000
vn -0.00000000 -0.00000000 -0.00000000
vn 0.00000000 -0.00000000 -0.00000000
vn -0.00000000 0.00000000 0.00000000
vn 0.00000000 -0.00000000 0.00000000
vn -0.00000000 -0.00000000 -0.00000000
vn -0.00000000 -0.00000000 -0.00000000
vn 0.00000000 -0.00000000 -0.00000000
vn -0.00000000 0.00000000 0.00000000
vn 0.00000000 -0.00000000 -0.00000000
vn -0.00000000 0.00000000 0.00000000
vn 0.00000000 -0.00000000 -0.00000000
vn 0.00000000 -0.00000000 -0.00000000
vn -0.00000000 0.00000000 0.00000000
vn 0.00000000 0.00000000 0.00000000
vn 0.00000000 0.00000000 0.00000000
vn -0.00000000 -0.00000000 -0.00000000
vn 0.00000000 0.00000000 0.00000000
vn 0.00000000 0.00000000 0.00000000
vn -0.00000000 0.00000000 0.00000000
vn -0.00000000 0.00000000 0.00000000
vn 0.00000000 -0.00000000 -0.00000000
vn 0.00000000 -0.00000000 -0.00000000
vn 0.00000000 0.00000000 0.00000000
vn 0.00000000 0.00000000 0.00000000
vn -0.00000000 -0.00000000 -0.00000000
vn 0.00000000 -0.00000000 -0.00000000
vn 0.00000000 0.00000000 -0.00000000
vn -0.00000000 0.00000000 0.00000000
vn -0.00000000 -0.00000000 -0.00000000
vn 0.00000000 0.00000000 0.00000000
vn -0.00000000 -0.00000000 -0.00000000
vn -0.00000000 0.00000000 0.00000000
vn 0.00000000 0.00000000 -0.00000000
vn 0.00000000 0.00000000 -0.00000000
vn -0.00000000 -0.00000000 0.00000000
vn -0.00000000 0.00000000 0.00000000
vn 0.00000000 0.00000000 -0.00000000
vn 0.00000000 0.00000000 0.00000000
vn 0.00000000 -0.00000000 0.00000000
vn -0.00000000 0.00000000 -0.00000000
vn -0.00000000 0.00000000 0.00000000
vn 0.00000000 -0.00000000 -0.00000000
vn -0.00000000 -0.00000000 -0.00000000
vn -0.00000000 0.00000000 -0.00000000
vn 0.00000000 -0.00000000 -0.00000000
vn -0.00000000 -0.00000000 -0.00000000
vn 0.00000000 -0.00000000 -0.00000000
vn -0.00000000 0.00000000 0.00000000
vn -0.00000000 0.00000000 0.00000000
vn -0.00000000 0.00000000 0.00000000
vn 0.00000000 -0.00000000 -0.00000000
vn 0.00000000 -0.00000000 -0.00000000
vn -0.00000000 -0.00000000 0.00000000
vn -0.00000000 -0.00000000 0.00000000
vn 0.00000000 0.00000000 -0.00000000
vn -0.00000000 0.00000000 0.00000000
vn -0.00000000 0.00000000 -0.00000000
vn 0.00000000 0.00000000 0.00000000
vn -0.00000000 0.00000000 -0.00000000
vn -0.00000000 -0.00000000 -0.00000000
vn 0.00000000 0.00000000 0.00000000
vn 0.00000000 0.00000000 -0.00000000
vn 0.00000000 -0.00000000 0.00000000
vn -0.00000000 0.00000000 -0.00000000
vn 0.00000000 -0.00000000 -0.00000000
vn 0.00000000 0.00000000 -0.00000000
vn -0.00000000 0.00000000 0.00000000
vn 0.00000000 0.00000000 -0.00000000
vn -0.00000000 0.00000000 -0.00000000
vn -0.00000000 -0.00000000 -0.00000000
vn -0.00000000 0.00000000 0.00000000
vn -0.00000000 0.00000000 0.00000000
vn 0.00000000 0.00000000 -0.00000000
vn 0.00000000 0.00000000 0.00000000
vn 0.00000000 0.00000000 -0.00000000
vn 0.00000000 -0.00000000 -0.00000000
vn 0.00000000 -0.00000000 -0.00000000
vn 0.00000000 0.00000000 -0.00000000
vn -0.00000000 0.00000000 0.00000000
vn -0.00000000 0.00000000 -0.00000000
vn 0.00000000 0.00000000 0.00000000
vn 0.00000000 -0.00000000 0.00000000
vn 0.00000000 -0.00000000 -0.00000000
vn -0.00000000 -0.00000000 -0.00000000
vn -0.00000000 0.00000000 0.00000000
vn -0.00000000 -0.00000000 -0.00000000
vn 0.00000000 0.00000000 0.00000000
vn -0.00000000 0.00000000 0.00000000
vn -0.00000000 -0.00000000 -0.00000000
vn 0.00000000 -0.00000000 -0.00000000
vn 0.00000000 0.00000000 0.00000000
vn 0.00000000 0.00000000 0.00000000
vn -0.00000000 -0.00000000 -0.00000000
vn -0.00000000 0.00000000 0.00000000
vn -0.00000000 0.00000000 -0.00000000
vn 0.00000000 -0.00000000 -0.00000000
vn 0.00000000 -0.00000000 0.00000000
vn 0.00000000 -0.00000000 0.00000000
vn -0.00000000 -0.00000000 0.00000000
vn 0.00000000 0.00000000 -0.00000000
vn 0.00000000 0.00000000 -0.00000000
vn 0.00000000 0.00000000 0.00000000
vn 0.00000000 0.00000000 -0.00000000
vn 0.00000000 -0.00000000 0.00000000
vn 0.00000000 0.00000000 0.00000000
vn 0.00000000 -0.00000000 -0.00000000
vn -0.00000000 0.00000000 -0.00000000
vn 0.00000000 -0.00000000 0.00000000
vn 0.00000000 0.00000000 0.00000000
vn 0.00000000 0.00000000 0.00000000
vn 0.00000000 -0.00000000 -0.00000000
vn -0.00000000 0.00000000 0.00000000
vn 0.00000000 0.00000000 -0.00000000
vn -0.00000000 -0.00000000 -0.00000000
vn 0.00000000 -0.00000000 -0.00000000
vn 0.00000000 0.00000000 -0.00000000
vn -0.00000000 0.00000000 -0.00000000
vn 0.00000000 0.00000000 0.00000000
vn 0.00000000 0.00000000 -0.00000000
vn -0.00000000 -0.00000000 -0.00000000
vn 0.00000000 -0.00000000 -0.00000000
vn -0.00000000 0.00000000 0.00000000
vn 0.00000000 -0.00000000 -0.00000000
vn -0.00000000 -0.00000000 0.00000000
vn -0.00000000 0.00000000 0.00000000
vn -0.00000000 0.00000000 0.00000000
vn 0.00000000 -0.00000000 0.00000000
vn 0.00000000 -0.00000000 0.00000000
vn -0.00000000 0.00000000 0.00000000
vn 0.00000000 -0.00000000 -0.00000000
vn -0.00000000 -0.00000000 -0.00000000
vn -0.00000000 -0.00000000 0.00000000
vn 0.00000000 0.00000000 0.00000000
vn 0.00000000 -0.00000000 -0.00000000
vn -0.00000000 0.00000000 0.00000000
vn 0.00000000 -0.00000000 -0.00000000
vn 0.00000000 0.00000000 -0.00000000
vn 0.00000000 0.00000000 0.00000000
vn -0.00000000 -0.00000000 -0.00000000
vn -0.00000000 -0.00000000 -0.00000000
vn 0.00000000 0.00000000 0.00000000
vn 0.00000000 0.00000000 0.00000000
vn -0.00000000 -0.00000000 0.00000000
vn 0.00000000 -0.00000000 0.00000000
vn 0.00000000 -0.00000000 0.00000000
vn 0.00000000 -0.00000000 -0.00000000
vn 0.00000000 -0.00000000 0.00000000
vn -0.00000000 -0.00000000 -0.00000000
vn 0.00000000 0.00000000 0.00000000
vn 0.00000000 -0.00000000 0.00000000
vn -0.00000000 -0.00000000 -0.00000000
vn -0.00000000 -0.00000000 -0.00000000
vn -0.00000000 0.00000000 0.00000000
vn -0.00000000 -0.00000000 -0.00000000
vn 0.00000000 0.00000000 0.00000000
vn 0.00000000 0.00000000 0.00000000
vn -0.00000000 -0.00000000 -0.00000000
vn 0.00000000 0.00000000 -0.00000000
vn -0.00000000 0.00000000 0.00000000
vn 0.00000000 0.00000000 -0.00000000
vn -0.00000000 0.00000000 0.00000000
vn -0.00000000 0.00000000 -0.00000000
vn -0.00000000 0.00000000 -0.00000000
vn 0.00000000 -0.00000000 0.00000000
vn -0.00000000 -0.00000000 0.00000000
vn -0.00000000 -0.00000000 0.00000000
vn -0.00000000 0.00000000 0.00000000
vn 0.00000000 0.00000000 -0.00000000
vn -0.00000000 0.00000000 -0.00000000
vn -0.00000000 -0.00000000 0.00000000
vn 0.00000000 -0.00000000 0.00000000
vn -0.00000000 0.00000000 -0.00000000
vn 0.00000000 0.00000000 -0.00000000
vn -0.00000000 -0.00000000 0.00000000
vn 0.00000000 0.00000000 -0.00000000
vn 0.00000000 -0.00000000 0.00000000
vn -0.00000000 -0.00000000 0.00000000
vn 0.00000000 0.00000000 0.00000000
vn 0.00000000 0.00000000 -0.00000000
vn -0.00000000 0.00000000 0.00000000
vn 0.00000000 -0.00000000 0.00000000
vn 0.00000000 -0.00000000 0.00000000
vn -0.00000000 0.00000000 0.00000000
vn -0.00000000 0.00000000 -0.00000000
vn 0.00000000 -0.00000000 0.00000000
vn -0.00000000 0.00000000 -0.00000000
vn 0.00000000 0.00000000 0.00000000
vn -0.00000000 -0.00000000 -0.00000000
vn 0.00000000 0.00000000 -0.00000000
vn -0.00000000 -0.00000000 0.00000000
vn -0.00000000 -0.00000000 0.00000000
vn 0.00000000 0.00000000 -0.00000000
vn 0.00000000 0.00000000 -0.00000000
vn -0.00000000 -0.00000000 0.00000000
vn 0.00000000 0.00000000 0.00000000
vn 0.00000000 0.00000000 -0.00000000
vn -0.00000000 0.00000000 -0.00000000
vn -0.00000000 0.00000000 -0.00000000
vn 0.00000000 -0.00000000 0.00000000
vn 0.00000000 -0.00000000 0.00000000
vn -0.00000000 -0.00000000 -0.00000000
vn 0.00000000 0.00000000 0.00000000
vn -0.00000000 0.00000000 0.00000000
vn 0.00000000 -0.00000000 0.00000000
vn -0.00000000 0.00000000 0.00000000
vn -0.00000000 0.00000000 -0.00000000
vn -0.00000000 0.00000000 -0.00000000
vn -0.00000000 0.00000000 -0.00000000
vn -0.00000000 -0.00000000 -0.00000000
vn -0.00000000 -0.00000000 0.00000000
vn 0.00000000 0.00000000 -0.00000000
vn 0.00000000 -0.00000000 0.00000000
vn -0.00000000 0.00000000 -0.00000000
vn 0.00000000 0.00000000 -0.00000000
vn -0.00000000 0.00000000 -0.00000000
vn -0.00000000 -0.00000000 -0.00000000
vn 0.00000000 -0.00000000 0.00000000
vn 0.00000000 0.00000000 -0.00000000
vn -0.00000000 -0.00000000 0.00000000
vn -0.00000000 0.00000000 -0.00000000
vn 0.00000000 0.00000000 -0.00000000
vn -0.00000000 -0.00000000 0.00000000
vn 0.00000000 0.00000000 -0.00000000
vn 0.00000000 -0.00000000 0.00000000
vn 0.00000000 -0.00000000 0.00000000
vn 0.00000000 -0.00000000 -0.00000000
vn 0.00000000 0.00000000 -0.00000000
vn -0.00000000 -0.00000000 0.00000000
vn -0.00000000 -0.00000000 0.00000000
vn -0.00000000 0.00000000 0.00000000
vn 0.00000000 0.00000000 -0.00000000
vn -0.00000000 0.00000000 -0.00000000
vn 0.00000000 0.00000000 -0.00000000
vn 0.00000000 0.00000000 0.00000000
vn -0.00000000 -0.00000000 -0.00000000
vn -0.00000000 -0.00000000 -0.00000000
vn 0.00000000 0.00000000 0.00000000
vn 0.00000000 -0.00000000 0.00000000
vn 0.00000000 -0.00000000 0.00000000
vn -0.00000000 -0.00000000 0.00000000
vn -0.00000000 0.00000000 0.00000000
vn 0.00000000 0.00000000 0.00000000
vn 0.00000000 0.00000000 -0.00000000
vn 0.00000000 0.00000000 -0.00000000
vn -0.00000000 -0.00000000 0.00000000
vn -0.00000000 0.00000000 0.00000000
vn -0.00000000 -0.00000000 0.00000000
vn -0.00000000 0.00000000 0.00000000
vn -0.00000000 0.00000000 -0.00000000
vn -0.00000000 0.00000000 -0.00000000
vn 0.00000000 0.00000000 0.00000000
vn 0.00000000 -0.00000000 0.00000000
vn -0.00000000 0.00000000 -0.00000000
vn 0.00000000 0.00000000 -0.00000000
vn -0.00000000 -0.00000000 0.00000000
vn 0.00000000 0.00000000 -0.00000000
vn -0.00000000 0.00000000 -0.00000000
vn 0.00000000 0.00000000 0.00000000
vn -0.00000000 0.00000000 -0.00000000
vn 0.00000000 -0.00000000 0.00000000
vn -0.00000000 -0.00000000 -0.00000000
vn 0.00000000 0.00000000 0.00000000
vn -0.00000000 -0.00000000 -0.00000000
vn 0.00000000 0.00000000 0.00000000
vn 0.00000000 -0.00000000 0.00000000
vn 0.00000000 -0.00000000 0.00000000
vn -0.00000000 0.00000000 -0.00000000
vn -0.00000000 0.00000000 -0.00000000
vn -0.00000000 0.00000000 0.00000000
vn -0.00000000 0.00000000 0.00000000
vn 0.00000000 -0.00000000 -0.00000000
vn -0.00000000 0.00000000 -0.00000000
vn 0.00000000 -0.00000000 0.00000000
vn -0.00000000 -0.00000000 0.00000000
vn 0.00000000 -0.00000000 -0.00000000
vn -0.00000000 -0.00000000 -0.00000000
vn -0.00000000 -0.00000000 0.00000000
vn -0.00000000 -0.00000000 0.00000000
vn 0.00000000 -0.00000000 -0.00000000
vn 0.00000000 0.00000000 -0.00000000
vn -0.00000000 -0.00000000 0.00000000
vn 0.00000000 -0.00000000 0.00000000
vn -0.00000000 0.00000000 -0.00000000
vn -0.00000000 0.00000000 0.00000000
vn -0.00000000 0.00000000 -0.00000000
vn 0.00000000 0.00000000 -0.00000000
vn 0.00000000 -0.00000000 0.00000000
vn -0.00000000 0.00000000 0.00000000
vn -0.00000000 -0.00000000 -0.00000000
vn -0.00000000 0.00000000 -0.00000000
vn 0.00000000 0.00000000 -0.00000000
vn 0.00000000 -0.00000000 0.00000000
vn -0.00000000 0.00000000 -0.00000000
vn 0.00000000 -0.00000000 0.00000000
vn 0.00000000 0.00000000 0.00000000
vn -0.00000000 0.00000000 -0.00000000
vn 0.00000000 0.00000000 0.00000000
vn 0.00000000 0.00000000 0.00000000
vn 0.00000000 0.00000000 -0.00000000
vn 0.00000000 -0.00000000 0.00000000
vn 0.00000000 -0.00000000 -0.00000000
vn 0.00000000 0.00000000 0.00000000
vn -0.00000000 -0.00000000 0.00000000
vn 0.00000000 -0.00000000 -0.00000000
vn -0.00000000 -0.00000000 0.00000000
vn 0.00000000 0.00000000 0.00000000
vn -0.00000000 -0.00000000 -0.00000000
vn 0.00000000 -0.00000000 -0.00000000
vn 0.00000000 -0.00000000 0.00000000
vn -0.00000000 -0.00000000 0.00000000
vn -0.00000000 -0.00000000 0.00000000
vn -0.00000000 0.00000000 -0.00000000
vn -0.00000000 -0.00000000 0.00000000
vn -0.00000000 0.00000000 -0.00000000
vn 0.00000000 0.00000000 0.00000000
vn 0.00000000 0.00000000 -0.00000000
vn -0.00000000 -0.00000000 0.00000000
vn 0.00000000 0.00000000 0.00000000
vn -0.00000000 -0.00000000 0.00000000
vn -0.00000000 -0.00000000 0.00000000
vn 0.00000000 0.00000000 -0.00000000
vn 0.00000000 -0.00000000 0.00000000
vn 0.00000000 -0.00000000 0.00000000
vn 0.00000000 0.00000000 -0.00000000
vn -0.00000000 -0.00000000 -0.00000000
vn 0.00000000 0.00000000 0.00000000
vn 0.00000000 0.00000000 -0.00000000
vn -0.00000000 -0.00000000 0.00000000
vn 0.00000000 -0.00000000 0.00000000
vn 0.23317043 0.94960413 -0.20948398
vn -0.00307810 0.97060218 -0.24066975
vn -0.16093664 0.98116716 0.10681944
vn -0.03325068 0.85685931 -0.51447694
vn -0.02535892 -0.06921846 -0.99727916
vn -0.22740226 0.96761757 -0.10956480
vn -0.98533878 0.13966281 -0.09798867
vn -0.70610817 0.03607506 0.70718445
vn 0.24688550 0.96096269 0.12489302
vn 0.61567941 0.78770429 0.02146640
vn 0.97432695 -0.11908196 0.19106667
vn 0.00000997 -0.07950661 -0.99683434
vn 0.35026320 0.92144963 -0.16806626
vn -0.17200574 0.83835091 -0.51728307
vn -0.99975916 -0.01526097 0.01577105
vn -0.32467419 -0.93848068 0.11764643
vn -0.01495669 0.04414303 0.99891325
vn 0.57754524 0.81107561 -0.09272457
vn 0.74785406 0.01297402 0.66373638
vn 0.98989122 -0.10276082 -0.09775265
vn 0.94100341 -0.09141441 0.32581589
vn 0.27496523 -0.94150105 -0.19485863
vn 0.00001018 -0.07950513 -0.99683446
vn 0.09316927 -0.88050896 -0.46478324
vn 0.18307320 -0.97384966 -0.13454010
vn 0.02217178 0.10840805 -0.99385920
vn 0.45326609 0.67413880 0.58316955
vn -0.26022347 0.94243810 -0.20998611
vn -0.99258531 -0.05635862 0.10769448
vn -0.00000550 0.00754274 0.99997155
vn 0.00000000 0.00754702 0.99997152
vn 0.45146148 -0.89212318 -0.01728476
vn 0.20458247 -0.96579168 0.15935010
vn 0.51093668 -0.85546910 0.08435837
vn 0.50406199 -0.86225178 0.04943062
vn 0.00001446 0.89478653 -0.44649420
vn 0.00002875 0.11376113 -0.99350813
vn -0.39569463 -0.91695099 -0.05125081
vn -0.21085853 -0.92210751 -0.32443248
vn -0.04183670 -0.95851243 -0.28196384
vn -0.85901549 -0.15929708 -0.48653553
vn 0.00705433 -0.96474597 0.26308828
vn 0.03897580 -0.97678511 -0.21064601
vn -0.59682683 -0.78980010 -0.14146921
vn 0.00000000 0.00000000 0.00000000
vn 0.00000000 -0.00000000 0.00000000
vn 0.00000000 0.00000000 0.00000000
vn 0.00000000 -0.00000000 0.00000000
vn 0.00000000 -0.00000000 0.00000000
vn 0.00000000 0.00000000 0.00000000
vn 0.00000000 0.00000000 0.00000000
vn 0.00000000 0.00000000 0.00000000
vn 0.00000000 -0.00000000 0.00000000
vn 0.00000000 -0.00000000 0.00000000
vn 0.00000000 -0.00000000 0.00000000
vn 0.00000000 0.00000000 0.00000000
vn 0.00000000 0.00000000 0.00000000
vn 0.00000000 0.00000000 0.00000000
vn 0.00000000 -0.00000000 0.00000000
vn 0.00000000 -0.00000000 0.00000000
vn 0.00000000 0.00000000 0.00000000
vn 0.00000000 0.00000000 0.00000000
vn 0.00000000 -0.00000000 0.00000000
vn 0.00000000 0.00000000 0.00000000
vn 0.00000000 -0.00000000 0.00000000
vn 0.00000000 0.00000000 0.00000000
vn 0.00000000 -0.00000000 0.00000000
vn 0.00000000 0.00000000 0.00000000
vn 0.00000000 -0.00000000 0.00000000
vn 0.00000000 -0.00000000 0.00000000
vn 0.80696634 -0.00344296 -0.59058739
vn -0.76518381 0.00415499 -0.64379847
vn 0.57735027 -0.57735027 0.57735027
vn 0.70710678 0.70710678 -0.00000000
vn 0.57735027 0.57735027 0.57735027
vn 0.70710678 -0.70710678 0.00000000
vn -0.57735027 0.57735027 0.57735027
vn -0.70710678 0.70710678 0.00000000
vn -0.57735027 -0.57735027 0.57735027
vn -0.70710678 -0.70710678 -0.00000000
f 1//1 2//2 3//3
f 4//4 3//3 2//2
f 4//4 2//2 5//5
f 6//6 5//5 2//2
f 5//5 6//6 7//7
f 8//8 7//7 6//6
f 7//7 8//8 9//9
f 10//10 9//9 8//8
f 9//9 10//10 11//11
f 12//12 11//11 10//10
f 13//13 11//11 14//14
f 12//12 14//14 11//11
f 15//15 16//16 14//14
f 13//13 14//14 16//16
f 17//17 18//18 15//15
f 16//16 15//15 18//18
f 19//19 20//20 17//17
f 18//18 17//17 20//20
f 21//21 22//22 19//19
f 20//20 19//19 22//22
f 23//23 24//24 21//21
f 22//22 21//21 24//24
f 25//25 26//26 23//23
f 24//24 23//23 26//26
f 27//27 28//28 25//25
f 26//26 25//25 28//28
f 29//29 30//30 27//27
f 28//28 27//27 30//30
f 30//30 29//29 31//31
f 32//32 31//31 29//29
f 33//33 34//34 32//32
f 31//31 32//32 34//34
f 35//35 36//36 33//33
f 34//34 33//33 36//36
f 37//37 38//38 35//35
f 36//36 35//35 38//38
f 39//39 40//40 37//37
f 38//38 37//37 40//40
f 41//41 42//42 39//39
f 40//40 39//39 42//42
f 43//43 44//44 41//41
f 42//42 41//41 44//44
f 45//45 46//46 43//43
f 44//44 43//43 46//46
f 47//47 48//48 45//45
f 46//46 45//45 48//48
f 49//49 50//50 47//47
f 48//48 47//47 50//50
f 50//50 49//49 51//51
f 52//52 51//51 49//49
f 51//51 52//52 53//53
f 54//54 53//53 52//52
f 54//54 55//55 53//53
f 56//56 53//53 55//55
f 55//55 57//57 56//56
f 58//58 56//56 57//57
f 57//57 59//59 58//58
f 60//60 58//58 59//59
f 59//59 61//61 60//60
f 62//62 60//60 61//61
f 61//61 63//63 62//62
f 64//64 62//62 63//63
f 63//63 65//65 64//64
f 66//66 64//64 65//65
f 65//65 67//67 66//66
f 68//68 66//66 67//67
f 67//67 69//69 68//68
f 70//70 68//68 69//69
f 69//69 71//71 70//70
f 72//72 70//70 71//71
f 71//71 73//73 72//72
f 74//74 72//72 73//73
f 73//73 75//75 74//74
f 76//76 74//74 75//75
f 77//77 78//78 75//75
f 76//76 75//75 78//78
f 79//79 80//80 77//77
f 78//78 77//77 80//80
f 81//81 82//82 79//79
f 80//80 79//79 82//82
f 83//83 84//84 81//81
f 82//82 81//81 84//84
f 85//85 86//86 83//83
f 84//84 83//83 86//86
f 87//87 88//88 85//85
f 86//86 85//85 88//88
f 89//89 90//90 87//87
f 88//88 87//87 90//90
f 91//91 92//92 89//89
f 90//90 89//89 92//92
f 92//92 91//91 93//93
f 94//94 93//93 91//91
f 94//94 95//95 93//93
f 96//96 93//93 95//95
f 95//95 97//97 96//96
f 98//98 96//96 97//97
f 97//97 99//99 98//98
f 100//100 98//98 99//99
f 99//99 101//101 100//100
f 102//102 100//100 101//101
f 101//101 103//103 102//102
f 104//104 102//102 103//103
f 103//103 105//105 104//104
f 106//106 104//104 105//105
f 105//105 107//107 106//106
f 108//108 106//106 107//107
f 107//107 109//109 108//108
f 110//110 108//108 109//109
f 111//111 112//112 109//109
f 110//110 109//109 112//112
f 112//112 111//111 113//113
f 114//114 113//113 111//111
f 113//113 114//114 115//115
f 116//116 115//115 114//114
f 115//115 116//116 117//117
f 118//118 117//117 116//116
f 117//117 118//118 119//119
f 120//120 119//119 118//118
f 119//119 120//120 121//121
f 122//122 121//121 120//120
f 123//123 124//124 122//122
f 121//121 122//122 124//124
f 124//124 123//123 125//125
f 126//126 125//125 123//123
f 126//126 127//127 125//125
f 128//128 125//125 127//127
f 129//129 130//130 127//127
f 128//128 127//127 130//130
f 131//131 132//132 129//129
f 130//130 129//129 132//132
f 133//133 134//134 131//131
f 132//132 131//131 134//134
f 135//135 136//136 133//133
f 134//134 133//133 136//136
f 137//137 138//138 135//135
f 136//136 135//135 138//138
f 139//139 140//140 137//137
f 138//138 137//137 140//140
f 141//141 142//142 139//139
f 140//140 139//139 142//142
f 143//143 144//144 141//141
f 142//142 141//141 144//144
f 145//145 146//146 143//143
f 144//144 143//143 146//146
f 147//147 148//148 145//145
f 146//146 145//145 148//148
f 149//149 150//150 147//147
f 148//148 147//147 150//150
f 151//151 152//152 149//149
f 150//150 149//149 152//152
f 153//153 154//154 151//151
f 152//152 151//151 154//154
f 37//37 35//35 85//85
f 87//87 85//85 35//35
f 33//33 87//87 35//35
f 89//89 87//87 33//33
f 32//32 89//89 33//33
f 91//91 89//89 32//32
f 29//29 91//91 32//32
f 94//94 91//91 29//29
f 155//155 94//94 29//29
f 95//95 94//94 155//155
f 156//156 95//95 155//155
f 157//157 95//95 156//156
f 97//97 95//95 157//157
f 158//158 97//97 157//157
f 99//99 97//97 158//158
f 159//159 99//99 158//158
f 101//101 99//99 159//159
f 160//160 101//101 159//159
f 161//161 101//101 160//160
f 103//103 101//101 161//161
f 105//105 103//103 161//161
f 162//162 105//105 161//161
f 107//107 105//105 162//162
f 163//163 107//107 162//162
f 109//109 107//107 163//163
f 164//164 109//109 163//163
f 29//29 27//27 155//155
f 165//165 155//155 27//27
f 166//166 165//165 27//27
f 25//25 166//166 27//27
f 167//167 166//166 25//25
f 23//23 167//167 25//25
f 168//168 167//167 23//23
f 21//21 168//168 23//23
f 169//169 168//168 21//21
f 170//170 169//169 21//21
f 19//19 170//170 21//21
f 17//17 170//170 19//19
f 171//171 170//170 17//17
f 15//15 171//171 17//17
f 172//172 171//171 15//15
f 14//14 172//172 15//15
f 164//164 172//172 14//14
f 109//109 164//164 14//14
f 111//111 109//109 14//14
f 12//12 111//111 14//14
f 10//10 111//111 12//12
f 114//114 111//111 10//10
f 8//8 114//114 10//10
f 116//116 114//114 8//8
f 123//123 122//122 126//126
f 127//127 126//126 122//122
f 120//120 127//127 122//122
f 118//118 127//127 120//120
f 129//129 127//127 118//118
f 116//116 129//129 118//118
f 139//139 129//129 116//116
f 137//137 129//129 139//139
f 131//131 129//129 137//137
f 135//135 131//131 137//137
f 133//133 131//131 135//135
f 173//173 153//153 1//1
f 151//151 1//1 153//153
f 2//2 1//1 151//151
f 6//6 2//2 151//151
f 149//149 6//6 151//151
f 8//8 6//6 149//149
f 116//116 8//8 149//149
f 139//139 116//116 149//149
f 141//141 139//139 149//149
f 147//147 141//141 149//149
f 143//143 141//141 147//147
f 145//145 143//143 147//147
f 67//67 65//65 69//69
f 63//63 69//69 65//65
f 71//71 69//69 63//63
f 61//61 71//71 63//63
f 73//73 71//71 61//61
f 85//85 73//73 61//61
f 37//37 85//85 61//61
f 83//83 73//73 85//85
f 81//81 73//73 83//83
f 75//75 73//73 81//81
f 79//79 75//75 81//81
f 77//77 75//75 79//79
f 55//55 54//54 57//57
f 59//59 57//57 54//54
f 52//52 59//59 54//54
f 61//61 59//59 52//52
f 49//49 61//61 52//52
f 37//37 61//61 49//49
f 39//39 37//37 49//49
f 41//41 39//39 49//49
f 47//47 41//41 49//49
f 43//43 41//41 47//47
f 45//45 43//43 47//47
f 173//173 1//1 174//174
f 3//3 174//174 1//1
f 56//56 58//58 53//53
f 60//60 53//53 58//58
f 51//51 53//53 60//60
f 62//62 51//51 60//60
f 50//50 51//51 62//62
f 38//38 50//50 62//62
f 40//40 50//50 38//38
f 42//42 50//50 40//40
f 48//48 50//50 42//42
f 44//44 48//48 42//42
f 46//46 48//48 44//44
f 174//174 3//3 154//154
f 152//152 154//154 3//3
f 4//4 152//152 3//3
f 5//5 152//152 4//4
f 150//150 152//152 5//5
f 7//7 150//150 5//5
f 115//115 150//150 7//7
f 140//140 150//150 115//115
f 142//142 150//150 140//140
f 148//148 150//150 142//142
f 144//144 148//148 142//142
f 146//146 148//148 144//144
f 124//124 125//125 121//121
f 128//128 121//121 125//125
f 119//119 121//121 128//128
f 117//117 119//119 128//128
f 130//130 117//117 128//128
f 115//115 117//117 130//130
f 140//140 115//115 130//130
f 138//138 140//140 130//130
f 132//132 138//138 130//130
f 136//136 138//138 132//132
f 134//134 136//136 132//132
f 30//30 175//175 28//28
f 176//176 28//28 175//175
f 177//177 28//28 176//176
f 26//26 28//28 177//177
f 178//178 26//26 177//177
f 24//24 26//26 178//178
f 179//179 24//24 178//178
f 22//22 24//24 179//179
f 180//180 22//22 179//179
f 181//181 22//22 180//180
f 20//20 22//22 181//181
f 18//18 20//20 181//181
f 182//182 18//18 181//181
f 16//16 18//18 182//182
f 183//183 16//16 182//182
f 13//13 16//16 183//183
f 184//184 13//13 183//183
f 110//110 13//13 184//184
f 112//112 13//13 110//110
f 11//11 13//13 112//112
f 9//9 11//11 112//112
f 113//113 9//9 112//112
f 7//7 9//9 113//113
f 115//115 7//7 113//113
f 38//38 86//86 36//36
f 88//88 36//36 86//86
f 34//34 36//36 88//88
f 90//90 34//34 88//88
f 31//31 34//34 90//90
f 92//92 31//31 90//90
f 30//30 31//31 92//92
f 93//93 30//30 92//92
f 175//175 30//30 93//93
f 96//96 175//175 93//93
f 185//185 175//175 96//96
f 186//186 185//185 96//96
f 98//98 186//186 96//96
f 187//187 186//186 98//98
f 100//100 187//187 98//98
f 188//188 187//187 100//100
f 102//102 188//188 100//100
f 189//189 188//188 102//102
f 190//190 189//189 102//102
f 104//104 190//190 102//102
f 106//106 190//190 104//104
f 191//191 190//190 106//106
f 108//108 191//191 106//106
f 192//192 191//191 108//108
f 110//110 192//192 108//108
f 184//184 192//192 110//110
f 68//68 70//70 66//66
f 64//64 66//66 70//70
f 72//72 64//64 70//70
f 62//62 64//64 72//72
f 74//74 62//62 72//72
f 86//86 62//62 74//74
f 38//38 62//62 86//86
f 84//84 86//86 74//74
f 82//82 84//84 74//74
f 76//76 82//82 74//74
f 80//80 82//82 76//76
f 78//78 80//80 76//76
f 153//153 173//173 154//154
f 174//174 154//154 173//173
f 165//165 166//166 176//176
f 177//177 176//176 166//166
f 166//166 167//167 177//177
f 178//178 177//177 167//167
f 165//165 176//176 155//155
f 175//175 155//155 176//176
f 167//167 168//168 178//178
f 179//179 178//178 168//168
f 155//155 175//175 156//156
f 185//185 156//156 175//175
f 168//168 169//169 179//179
f 180//180 179//179 169//169
f 156//156 185//185 157//157
f 186//186 157//157 185//185
f 169//169 170//170 180//180
f 181//181 180//180 170//170
f 157//157 186//186 158//158
f 187//187 158//158 186//186
f 170//170 171//171 181//181
f 182//182 181//181 171//171
f 158//158 187//187 159//159
f 188//188 159//159 187//187
f 171//171 172//172 182//182
f 183//183 182//182 172//172
f 159//159 188//188 160//160
f 189//189 160//160 188//188
f 183//183 172//172 184//184
f 164//164 184//184 172//172
f 160//160 189//189 161//161
f 190//190 161//161 189//189
f 184//184 164//164 192//192
f 163//163 192//192 164//164
f 161//161 190//190 162//162
f 191//191 162//162 190//190
f 162//162 191//191 163//163
f 192//192 163//163 191//191
f 193//193 194//194 195//195
f 196//196 195//195 194//194
f 196//196 194//194 197//197
f 198//198 197//197 194//194
f 197//197 198//198 199//199
f 200//200 199//199 198//198
f 199//199 200//200 201//201
f 202//202 201//201 200//200
f 201//201 202//202 203//203
f 204//204 203//203 202//202
f 205//205 203//203 206//206
f 204//204 206//206 203//203
f 207//207 208//208 206//206
f 205//205 206//206 208//208
f 209//209 210//210 207//207
f 208//208 207//207 210//210
f 211//211 212//212 209//209
f 210//210 209//209 212//212
f 213//213 214//214 211//211
f 212//212 211//211 214//214
f 215//215 216//216 213//213
f 214//214 213//213 216//216
f 217//217 218//218 215//215
f 216//216 215//215 218//218
f 219//219 220//220 217//217
f 218//218 217//217 220//220
f 221//221 222//222 219//219
f 220//220 219//219 222//222
f 222//222 221//221 223//223
f 224//224 223//223 221//221
f 225//225 226//226 224//224
f 223//223 224//224 226//226
f 227//227 228//228 225//225
f 226//226 225//225 228//228
f 229//229 230//230 227//227
f 228//228 227//227 230//230
f 231//231 232//232 229//229
f 230//230 229//229 232//232
f 233//233 234//234 231//231
f 232//232 231//231 234//234
f 235//235 236//236 233//233
f 234//234 233//233 236//236
f 237//237 238//238 235//235
f 236//236 235//235 238//238
f 239//239 240//240 237//237
f 238//238 237//237 240//240
f 241//241 242//242 239//239
f 240//240 239//239 242//242
f 242//242 241//241 243//243
f 244//244 243//243 241//241
f 243//243 244//244 245//245
f 246//246 245//245 244//244
f 246//246 247//247 245//245
f 248//248 245//245 247//247
f 247//247 249//249 248//248
f 250//250 248//248 249//249
f 249//249 251//251 250//250
f 252//252 250//250 251//251
f 251//251 253//253 252//252
f 254//254 252//252 253//253
f 253//253 255//255 254//254
f 256//256 254//254 255//255
f 255//255 257//257 256//256
f 258//258 256//256 257//257
f 257//257 259//259 258//258
f 260//260 258//258 259//259
f 259//259 261//261 260//260
f 262//262 260//260 261//261
f 261//261 263//263 262//262
f 264//264 262//262 263//263
f 263//263 265//265 264//264
f 266//266 264//264 265//265
f 265//265 267//267 266//266
f 268//268 266//266 267//267
f 269//269 270//270 267//267
f 268//268 267//267 270//270
f 271//271 272//272 269//269
f 270//270 269//269 272//272
f 273//273 274//274 271//271
f 272//272 271//271 274//274
f 275//275 276//276 273//273
f 274//274 273//273 276//276
f 277//277 278//278 275//275
f 276//276 275//275 278//278
f 279//279 280//280 277//277
f 278//278 277//277 280//280
f 281//281 282//282 279//279
f 280//280 279//279 282//282
f 283//283 284//284 281//281
f 282//282 281//281 284//284
f 284//284 283//283 285//285
f 286//286 285//285 283//283
f 286//286 287//287 285//285
f 288//288 285//285 287//287
f 287//287 289//289 288//288
f 290//290 288//288 289//289
f 289//289 291//291 290//290
f 292//292 290//290 291//291
f 291//291 293//293 292//292
f 294//294 292//292 293//293
f 293//293 295//295 294//294
f 296//296 294//294 295//295
f 295//295 297//297 296//296
f 298//298 296//296 297//297
f 297//297 299//299 298//298
f 300//300 298//298 299//299
f 299//299 301//301 300//300
f 302//302 300//300 301//301
f 303//303 304//304 301//301
f 302//302 301//301 304//304
f 304//304 303//303 305//305
f 306//306 305//305 303//303
f 305//305 306//306 307//307
f 308//308 307//307 306//306
f 307//307 308//308 309//309
f 310//310 309//309 308//308
f 309//309 310//310 311//311
f 312//312 311//311 310//310
f 311//311 312//312 313//313
f 314//314 313//313 312//312
f 315//315 316//316 314//314
f 313//313 314//314 316//316
f 316//316 315//315 317//317
f 318//318 317//317 315//315
f 318//318 319//319 317//317
f 320//320 317//317 319//319
f 321//321 322//322 319//319
f 320//320 319//319 322//322
f 323//323 324//324 321//321
f 322//322 321//321 324//324
f 325//325 326//326 323//323
f 324//324 323//323 326//326
f 327//327 328//328 325//325
f 326//326 325//325 328//328
f 329//329 330//330 327//327
f 328//328 327//327 330//330
f 331//331 332//332 329//329
f 330//330 329//329 332//332
f 333//333 334//334 331//331
f 332//332 331//331 334//334
f 335//335 336//336 333//333
f 334//334 333//333 336//336
f 337//337 338//338 335//335
f 336//336 335//335 338//338
f 339//339 340//340 337//337
f 338//338 337//337 340//340
f 341//341 342//342 339//339
f 340//340 339//339 342//342
f 343//343 344//344 341//341
f 342//342 341//341 344//344
f 345//345 346//346 343//343
f 344//344 343//343 346//346
f 229//229 227//227 277//277
f 279//279 277//277 227//227
f 225//225 279//279 227//227
f 281//281 279//279 225//225
f 224//224 281//281 225//225
f 283//283 281//281 224//224
f 221//221 283//283 224//224
f 286//286 283//283 221//221
f 347//347 286//286 221//221
f 287//287 286//286 347//347
f 348//348 287//287 347//347
f 349//349 287//287 348//348
f 289//289 287//287 349//349
f 350//350 289//289 349//349
f 291//291 289//289 350//350
f 351//351 291//291 350//350
f 293//293 291//291 351//351
f 352//352 293//293 351//351
f 353//353 293//293 352//352
f 295//295 293//293 353//353
f 297//297 295//295 353//353
f 354//354 297//297 353//353
f 299//299 297//297 354//354
f 355//355 299//299 354//354
f 301//301 299//299 355//355
f 356//356 301//301 355//355
f 221//221 219//219 347//347
f 357//357 347//347 219//219
f 358//358 357//357 219//219
f 217//217 358//358 219//219
f 359//359 358//358 217//217
f 215//215 359//359 217//217
f 360//360 359//359 215//215
f 213//213 360//360 215//215
f 361//361 360//360 213//213
f 362//362 361//361 213//213
f 211//211 362//362 213//213
f 209//209 362//362 211//211
f 363//363 362//362 209//209
f 207//207 363//363 209//209
f 364//364 363//363 207//207
f 206//206 364//364 207//207
f 356//356 364//364 206//206
f 301//301 356//356 206//206
f 303//303 301//301 206//206
f 204//204 303//303 206//206
f 202//202 303//303 204//204
f 306//306 303//303 202//202
f 200//200 306//306 202//202
f 308//308 306//306 200//200
f 315//315 314//314 318//318
f 319//319 318//318 314//314
f 312//312 319//319 314//314
f 310//310 319//319 312//312
f 321//321 319//319 310//310
f 308//308 321//321 310//310
f 331//331 321//321 308//308
f 329//329 321//321 331//331
f 323//323 321//321 329//329
f 327//327 323//323 329//329
f 325//325 323//323 327//327
f 365//365 345//345 193//193
f 343//343 193//193 345//345
f 194//194 193//193 343//343
f 198//198 194//194 343//343
f 341//341 198//198 343//343
f 200//200 198//198 341//341
f 308//308 200//200 341//341
f 331//331 308//308 341//341
f 333//333 331//331 341//341
f 339//339 333//333 341//341
f 335//335 333//333 339//339
f 337//337 335//335 339//339
f 259//259 257//257 261//261
f 255//255 261//261 257//257
f 263//263 261//261 255//255
f 253//253 263//263 255//255
f 265//265 263//263 253//253
f 277//277 265//265 253//253
f 229//229 277//277 253//253
f 275//275 265//265 277//277
f 273//273 265//265 275//275
f 267//267 265//265 273//273
f 271//271 267//267 273//273
f 269//269 267//267 271//271
f 247//247 246//246 249//249
f 251//251 249//249 246//246
f 244//244 251//251 246//246
f 253//253 251//251 244//244
f 241//241 253//253 244//244
f 229//229 253//253 241//241
f 231//231 229//229 241//241
f 233//233 231//231 241//241
f 239//239 233//233 241//241
f 235//235 233//233 239//239
f 237//237 235//235 239//239
f 365//365 193//193 366//366
f 195//195 366//366 193//193
f 248//248 250//250 245//245
f 252//252 245//245 250//250
f 243//243 245//245 252//252
f 254//254 243//243 252//252
f 242//242 243//243 254//254
f 230//230 242//242 254//254
f 232//232 242//242 230//230
f 234//234 242//242 232//232
f 240//240 242//242 234//234
f 236//236 240//240 234//234
f 238//238 240//240 236//236
f 366//366 195//195 346//346
f 344//344 346//346 195//195
f 196//196 344//344 195//195
f 197//197 344//344 196//196
f 342//342 344//344 197//197
f 199//199 342//342 197//197
f 307//307 342//342 199//199
f 332//332 342//342 307//307
f 334//334 342//342 332//332
f 340//340 342//342 334//334
f 336//336 340//340 334//334
f 338//338 340//340 336//336
f 316//316 317//317 313//313
f 320//320 313//313 317//317
f 311//311 313//313 320//320
f 309//309 311//311 320//320
f 322//322 309//309 320//320
f 307//307 309//309 322//322
f 332//332 307//307 322//322
f 330//330 332//332 322//322
f 324//324 330//330 322//322
f 328//328 330//330 324//324
f 326//326 328//328 324//324
f 222//222 367//367 220//220
f 368//368 220//220 367//367
f 369//369 220//220 368//368
f 218//218 220//220 369//369
f 370//370 218//218 369//369
f 216//216 218//218 370//370
f 371//371 216//216 370//370
f 214//214 216//216 371//371
f 372//372 214//214 371//371
f 373//373 214//214 372//372
f 212//212 214//214 373//373
f 210//210 212//212 373//373
f 374//374 210//210 373//373
f 208//208 210//210 374//374
f 375//375 208//208 374//374
f 205//205 208//208 375//375
f 376//376 205//205 375//375
f 302//302 205//205 376//376
f 304//304 205//205 302//302
f 203//203 205//205 304//304
f 201//201 203//203 304//304
f 305//305 201//201 304//304
f 199//199 201//201 305//305
f 307//307 199//199 305//305
f 230//230 278//278 228//228
f 280//280 228//228 278//278
f 226//226 228//228 280//280
f 282//282 226//226 280//280
f 223//223 226//226 282//282
f 284//284 223//223 282//282
f 222//222 223//223 284//284
f 285//285 222//222 284//284
f 367//367 222//222 285//285
f 288//288 367//367 285//285
f 377//377 367//367 288//288
f 378//378 377//377 288//288
f 290//290 378//378 288//288
f 379//379 378//378 290//290
f 292//292 379//379 290//290
f 380//380 379//379 292//292
f 294//294 380//380 292//292
f 381//381 380//380 294//294
f 382//382 381//381 294//294
f 296//296 382//382 294//294
f 298//298 382//382 296//296
f 383//383 382//382 298//298
f 300//300 383//383 298//298
f 384//384 383//383 300//300
f 302//302 384//384 300//300
f 376//376 384//384 302//302
f 260//260 262//262 258//258
f 256//256 258//258 262//262
f 264//264 256//256 262//262
f 254//254 256//256 264//264
f 266//266 254//254 264//264
f 278//278 254//254 266//266
f 230//230 254//254 278//278
f 276//276 278//278 266//266
f 274//274 276//276 266//266
f 268//268 274//274 266//266
f 272//272 274//274 268//268
f 270//270 272//272 268//268
f 345//345 365//365 346//346
f 366//366 346//346 365//365
f 357//357 358//358 368//368
f 369//369 368//368 358//358
f 358//358 359//359 369//369
f 370//370 369//369 359//359
f 357//357 368//368 347//347
f 367//367 347//347 368//368
f 359//359 360//360 370//370
f 371//371 370//370 360//360
f 347//347 367//367 348//348
f 377//377 348//348 367//367
f 360//360 361//361 371//371
f 372//372 371//371 361//361
f 348//348 377//377 349//349
f 378//378 349//349 377//377
f 361//361 362//362 372//372
f 373//373 372//372 362//362
f 349//349 378//378 350//350
f 379//379 350//350 378//378
f 362//362 363//363 373//373
f 374//374 373//373 363//363
f 350//350 379//379 351//351
f 380//380 351//351 379//379
f 363//363 364//364 374//374
f 375//375 374//374 364//364
f 351//351 380//380 352//352
f 381//381 352//352 380//380
f 375//375 364//364 376//376
f 356//356 376//376 364//364
f 352//352 381//381 353//353
f 382//382 353//353 381//381
f 376//376 356//356 384//384
f 355//355 384//384 356//356
f 353//353 382//382 354//354
f 383//383 354//354 382//382
f 354//354 383//383 355//355
f 384//384 355//355 383//383
f 385//385 386//386 387//387
f 388//388 385//385 389//389
f 385//385 388//388 386//386
f 386//386 390//390 387//387
f 387//387 391//391 392//392
f 385//385 387//387 393//393
f 385//385 394//394 395//395
f 394//394 385//385 393//393
f 396//396 385//385 397//397
f 385//385 396//396 389//389
f 388//388 390//390 386//386
f 390//390 388//388 389//389
f 390//390 398//398 387//387
f 398//398 390//390 399//399
f 399//399 387//387 398//398
f 387//387 399//399 391//391
f 400//400 392//392 391//391
f 387//387 392//392 401//401
f 393//393 387//387 401//401
f 402//402 403//403 404//404
f 403//403 402//402 393//393
f 394//394 404//404 395//395
f 394//394 402//402 404//404
f 402//402 394//394 393//393
f 397//397 395//395 405//405
f 395//395 397//397 385//385
f 406//406 407//407 408//408
f 406//406 396//396 407//407
f 406//406 389//389 396//396
f 389//389 406//406 409//409
f 389//389 410//410 390//390
f 411//411 390//390 412//412
f 411//411 399//399 390//390
f 399//399 411//411 413//413
f 400//400 391//391 399//399
f 401//401 400//400 414//414
f 400//400 401//401 392//392
f 393//393 414//414 415//415
f 414//414 393//393 401//401
f 403//403 393//393 415//415
f 403//403 416//416 404//404
f 416//416 403//403 417//417
f 416//416 395//395 404//404
f 395//395 416//416 417//417
f 395//395 418//418 405//405
f 395//395 406//406 418//418
f 419//419 406//406 395//395
f 406//406 419//419 409//409
f 389//389 409//409 410//410
f 410//410 420//420 390//390
f 420//420 410//410 421//421
f 390//390 420//420 412//412
f 422//422 423//423 424//424
f 422//422 425//425 423//423
f 399//399 425//425 422//422
f 425//425 399//399 413//413
f 400//400 422//422 424//424
f 422//422 400//400 399//399
f 414//414 400//400 426//426
f 415//415 417//417 403//403
f 417//417 415//415 414//414
f 417//417 419//419 395//395
f 419//419 417//417 409//409
f 409//409 427//427 410//410
f 424//424 410//410 428//428
f 424//424 421//421 410//410
f 421//421 424//424 423//423
f 426//426 400//400 424//424
f 417//417 414//414 426//426
f 417//417 427//427 409//409
f 428//428 427//427 424//424
f 427//427 428//428 410//410
f 417//417 426//426 424//424
f 417//417 424//424 427//427
f 429//429 430//430 431//431
f 432//432 431//431 430//430
f 433//433 431//431 432//432
f 434//434 431//431 433//433
f 435//435 434//434 433//433
f 436//436 434//434 435//435
f 437//437 436//436 435//435
f 438//438 436//436 437//437
f 439//439 438//438 437//437
f 440//440 438//438 439//439
f 441//441 440//440 439//439
f 442//442 443//443 444//444
f 445//445 444//444 443//443
f 446//446 445//445 443//443
f 447//447 446//446 443//443
f 448//448 446//446 447//447
f 449//449 448//448 447//447
f 450//450 448//448 449//449
f 451//451 450//450 449//449
f 452//452 450//450 451//451
f 453//453 452//452 451//451
f 441//441 452//452 453//453
f 440//440 441//441 453//453
f 454//454 440//440 453//453
f 453//453 440//440 454//454
f 453//453 441//441 440//440
f 453//453 452//452 441//441
f 451//451 452//452 453//453
f 451//451 450//450 452//452
f 449//449 450//450 451//451
f 449//449 448//448 450//450
f 447//447 448//448 449//449
f 447//447 446//446 448//448
f 443//443 446//446 447//447
f 443//443 445//445 446//446
f 443//443 444//444 445//445
f 444//444 443//443 442//442
f 439//439 440//440 441//441
f 439//439 438//438 440//440
f 437//437 438//438 439//439
f 437//437 436//436 438//438
f 435//435 436//436 437//437
f 435//435 434//434 436//436
f 433//433 434//434 435//435
f 433//433 431//431 434//434
f 432//432 431//431 433//433
f 430//430 431//431 432//432
f 431//431 430//430 429//429
f 407//407 397//397 455//455
f 397//397 407//407 396//396
f 408//408 455//455 406//406
f 455//455 408//408 407//407
f 455//455 397//397 405//405
f 418//418 455//455 405//405
f 455//455 418//418 406//406
f 413//413 423//423 425//425
f 423//423 413//413 456//456
f 421//421 423//423 456//456
f 412//412 413//413 411//411
f 413//413 412//412 456//456
f 421//421 412//412 420//420
f 412//412 421//421 456//456
f 457//457 458//458 459//459
f 458//458 457//457 460//460
f 458//458 461//461 459//459
f 461//461 458//458 462//462
f 461//461 457//457 459//459
f 457//457 461//461 463//463
f 464//464 457//457 463//463
f 457//457 464//464 460//460
f 464//464 461//461 462//462
f 461//461 464//464 463//463
f 462//462 464//464 458//458
f 460//460 458//458 464//464
f 464//464 458//458 460//460
f 458//458 464//464 462//462
f 2//2 3//3 4//4
f 3//3 2//2 1//1
f 2//2 5//5 6//6
f 5//5 2//2 4//4
f 6//6 7//7 8//8
f 7//7 6//6 5//5
f 8//8 9//9 10//10
f 9//9 8//8 7//7
f 10//10 11//11 12//12
f 11//11 10//10 9//9
f 11//11 14//14 12//12
f 14//14 11//11 13//13
f 16//16 14//14 13//13
f 14//14 16//16 15//15
f 18//18 15//15 16//16
f 15//15 18//18 17//17
f 20//20 17//17 18//18
f 17//17 20//20 19//19
f 22//22 19//19 20//20
f 19//19 22//22 21//21
f 24//24 21//21 22//22
f 21//21 24//24 23//23
f 26//26 23//23 24//24
f 23//23 26//26 25//25
f 28//28 25//25 26//26
f 25//25 28//28 27//27
f 30//30 27//27 28//28
f 27//27 30//30 29//29
f 29//29 31//31 32//32
f 31//31 29//29 30//30
f 34//34 32//32 31//31
f 32//32 34//34 33//33
f 36//36 33//33 34//34
f 33//33 36//36 35//35
f 38//38 35//35 36//36
f 35//35 38//38 37//37
f 40//40 37//37 38//38
f 37//37 40//40 39//39
f 42//42 39//39 40//40
f 39//39 42//42 41//41
f 44//44 41//41 42//42
f 41//41 44//44 43//43
f 46//46 43//43 44//44
f 43//43 46//46 45//45
f 48//48 45//45 46//46
f 45//45 48//48 47//47
f 50//50 47//47 48//48
f 47//47 50//50 49//49
f 49//49 51//51 52//52
f 51//51 49//49 50//50
f 52//52 53//53 54//54
f 53//53 52//52 51//51
f 55//55 53//53 56//56
f 53//53 55//55 54//54
f 57//57 56//56 58//58
f 56//56 57//57 55//55
f 59//59 58//58 60//60
f 58//58 59//59 57//57
f 61//61 60//60 62//62
f 60//60 61//61 59//59
f 63//63 62//62 64//64
f 62//62 63//63 61//61
f 65//65 64//64 66//66
f 64//64 65//65 63//63
f 67//67 66//66 68//68
f 66//66 67//67 65//65
f 69//69 68//68 70//70
f 68//68 69//69 67//67
f 71//71 70//70 72//72
f 70//70 71//71 69//69
f 73//73 72//72 74//74
f 72//72 73//73 71//71
f 75//75 74//74 76//76
f 74//74 75//75 73//73
f 78//78 75//75 76//76
f 75//75 78//78 77//77
f 80//80 77//77 78//78
f 77//77 80//80 79//79
f 82//82 79//79 80//80
f 79//79 82//82 81//81
f 84//84 81//81 82//82
f 81//81 84//84 83//83
f 86//86 83//83 84//84
f 83//83 86//86 85//85
f 88//88 85//85 86//86
f 85//85 88//88 87//87
f 90//90 87//87 88//88
f 87//87 90//90 89//89
f 92//92 89//89 90//90
f 89//89 92//92 91//91
f 91//91 93//93 94//94
f 93//93 91//91 92//92
f 95//95 93//93 96//96
f 93//93 95//95 94//94
f 97//97 96//96 98//98
f 96//96 97//97 95//95
f 99//99 98//98 100//100
f 98//98 99//99 97//97
f 101//101 100//100 102//102
f 100//100 101//101 99//99
f 103//103 102//102 104//104
f 102//102 103//103 101//101
f 105//105 104//104 106//106
f 104//104 105//105 103//103
f 107//107 106//106 108//108
f 106//106 107//107 105//105
f 109//109 108//108 110//110
f 108//108 109//109 107//107
f 112//112 109//109 110//110
f 109//109 112//112 111//111
f 111//111 113//113 114//114
f 113//113 111//111 112//112
f 114//114 115//115 116//116
f 115//115 114//114 113//113
f 116//116 117//117 118//118
f 117//117 116//116 115//115
f 118//118 119//119 120//120
f 119//119 118//118 117//117
f 120//120 121//121 122//122
f 121//121 120//120 119//119
f 124//124 122//122 121//121
f 122//122 124//124 123//123
f 123//123 125//125 126//126
f 125//125 123//123 124//124
f 127//127 125//125 128//128
f 125//125 127//127 126//126
f 130//130 127//127 128//128
f 127//127 130//130 129//129
f 132//132 129//129 130//130
f 129//129 132//132 131//131
f 134//134 131//131 132//132
f 131//131 134//134 133//133
f 136//136 133//133 134//134
f 133//133 136//136 135//135
f 138//138 135//135 136//136
f 135//135 138//138 137//137
f 140//140 137//137 138//138
f 137//137 140//140 139//139
f 142//142 139//139 140//140
f 139//139 142//142 141//141
f 144//144 141//141 142//142
f 141//141 144//144 143//143
f 146//146 143//143 144//144
f 143//143 146//146 145//145
f 148//148 145//145 146//146
f 145//145 148//148 147//147
f 150//150 147//147 148//148
f 147//147 150//150 149//149
f 152//152 149//149 150//150
f 149//149 152//152 151//151
f 154//154 151//151 152//152
f 151//151 154//154 153//153
f 47//47 43//43 45//45
f 47//47 41//41 43//43
f 49//49 41//41 47//47
f 49//49 39//39 41//41
f 49//49 37//37 39//39
f 49//49 61//61 37//37
f 52//52 61//61 49//49
f 52//52 59//59 61//61
f 54//54 59//59 52//52
f 54//54 57//57 59//59
f 57//57 54//54 55//55
f 79//79 75//75 77//77
f 81//81 75//75 79//79
f 81//81 73//73 75//75
f 83//83 73//73 81//81
f 85//85 73//73 83//83
f 61//61 85//85 37//37
f 61//61 73//73 85//85
f 61//61 71//71 73//73
f 63//63 71//71 61//61
f 63//63 69//69 71//71
f 65//65 69//69 63//63
f 69//69 65//65 67//67
f 147//147 143//143 145//145
f 147//147 141//141 143//143
f 149//149 141//141 147//147
f 149//149 139//139 141//141
f 149//149 116//116 139//139
f 149//149 8//8 116//116
f 149//149 6//6 8//8
f 151//151 6//6 149//149
f 151//151 2//2 6//6
f 151//151 1//1 2//2
f 153//153 1//1 151//151
f 1//1 153//153 173//173
f 135//135 131//131 133//133
f 137//137 131//131 135//135
f 137//137 129//129 131//131
f 139//139 129//129 137//137
f 116//116 129//129 139//139
f 118//118 129//129 116//116
f 118//118 127//127 129//129
f 120//120 127//127 118//118
f 122//122 127//127 120//120
f 122//122 126//126 127//127
f 126//126 122//122 123//123
f 8//8 114//114 116//116
f 10//10 114//114 8//8
f 10//10 111//111 114//114
f 12//12 111//111 10//10
f 14//14 111//111 12//12
f 14//14 109//109 111//111
f 14//14 164//164 109//109
f 14//14 172//172 164//164
f 15//15 172//172 14//14
f 15//15 171//171 172//172
f 17//17 171//171 15//15
f 17//17 170//170 171//171
f 19//19 170//170 17//17
f 21//21 170//170 19//19
f 21//21 169//169 170//170
f 21//21 168//168 169//169
f 23//23 168//168 21//21
f 23//23 167//167 168//168
f 25//25 167//167 23//23
f 25//25 166//166 167//167
f 27//27 166//166 25//25
f 27//27 165//165 166//166
f 27//27 155//155 165//165
f 155//155 27//27 29//29
f 163//163 109//109 164//164
f 163//163 107//107 109//109
f 162//162 107//107 163//163
f 162//162 105//105 107//107
f 161//161 105//105 162//162
f 161//161 103//103 105//105
f 161//161 101//101 103//103
f 160//160 101//101 161//161
f 159//159 101//101 160//160
f 159//159 99//99 101//101
f 158//158 99//99 159//159
f 158//158 97//97 99//99
f 157//157 97//97 158//158
f 157//157 95//95 97//97
f 156//156 95//95 157//157
f 155//155 95//95 156//156
f 155//155 94//94 95//95
f 29//29 94//94 155//155
f 29//29 91//91 94//94
f 32//32 91//91 29//29
f 32//32 89//89 91//91
f 33//33 89//89 32//32
f 33//33 87//87 89//89
f 35//35 87//87 33//33
f 35//35 85//85 87//87
f 85//85 35//35 37//37
f 1//1 174//174 3//3
f 174//174 1//1 173//173
f 76//76 80//80 78//78
f 76//76 82//82 80//80
f 74//74 82//82 76//76
f 74//74 84//84 82//82
f 74//74 86//86 84//84
f 86//86 62//62 38//38
f 74//74 62//62 86//86
f 72//72 62//62 74//74
f 72//72 64//64 62//62
f 70//70 64//64 72//72
f 70//70 66//66 64//64
f 66//66 70//70 68//68
f 110//110 192//192 184//184
f 108//108 192//192 110//110
f 108//108 191//191 192//192
f 106//106 191//191 108//108
f 106//106 190//190 191//191
f 104//104 190//190 106//106
f 102//102 190//190 104//104
f 102//102 189//189 190//190
f 102//102 188//188 189//189
f 100//100 188//188 102//102
f 100//100 187//187 188//188
f 98//98 187//187 100//100
f 98//98 186//186 187//187
f 96//96 186//186 98//98
f 96//96 185//185 186//186
f 96//96 175//175 185//185
f 93//93 175//175 96//96
f 93//93 30//30 175//175
f 92//92 30//30 93//93
f 92//92 31//31 30//30
f 90//90 31//31 92//92
f 90//90 34//34 31//31
f 88//88 34//34 90//90
f 88//88 36//36 34//34
f 86//86 36//36 88//88
f 36//36 86//86 38//38
f 113//113 7//7 115//115
f 113//113 9//9 7//7
f 112//112 9//9 113//113
f 112//112 11//11 9//9
f 112//112 13//13 11//11
f 110//110 13//13 112//112
f 184//184 13//13 110//110
f 183//183 13//13 184//184
f 183//183 16//16 13//13
f 182//182 16//16 183//183
f 182//182 18//18 16//16
f 181//181 18//18 182//182
f 181//181 20//20 18//18
f 181//181 22//22 20//20
f 180//180 22//22 181//181
f 179//179 22//22 180//180
f 179//179 24//24 22//22
f 178//178 24//24 179//179
f 178//178 26//26 24//24
f 177//177 26//26 178//178
f 177//177 28//28 26//26
f 176//176 28//28 177//177
f 175//175 28//28 176//176
f 28//28 175//175 30//30
f 132//132 136//136 134//134
f 132//132 138//138 136//136
f 130//130 138//138 132//132
f 130//130 140//140 138//138
f 130//130 115//115 140//140
f 130//130 117//117 115//115
f 128//128 117//117 130//130
f 128//128 119//119 117//117
f 128//128 121//121 119//119
f 125//125 121//121 128//128
f 121//121 125//125 124//124
f 144//144 148//148 146//146
f 142//142 148//148 144//144
f 142//142 150//150 148//148
f 140//140 150//150 142//142
f 115//115 150//150 140//140
f 7//7 150//150 115//115
f 5//5 150//150 7//7
f 5//5 152//152 150//150
f 4//4 152//152 5//5
f 3//3 152//152 4//4
f 3//3 154//154 152//152
f 154//154 3//3 174//174
f 44//44 48//48 46//46
f 42//42 48//48 44//44
f 42//42 50//50 48//48
f 40//40 50//50 42//42
f 38//38 50//50 40//40
f 62//62 50//50 38//38
f 62//62 51//51 50//50
f 60//60 51//51 62//62
f 60//60 53//53 51//51
f 58//58 53//53 60//60
f 53//53 58//58 56//56
f 173//173 154//154 174//174
f 154//154 173//173 153//153
f 166//166 176//176 177//177
f 176//176 166//166 165//165
f 167//167 177//177 178//178
f 177//177 167//167 166//166
f 176//176 155//155 175//175
f 155//155 176//176 165//165
f 168//168 178//178 179//179
f 178//178 168//168 167//167
f 175//175 156//156 185//185
f 156//156 175//175 155//155
f 169//169 179//179 180//180
f 179//179 169//169 168//168
f 185//185 157//157 186//186
f 157//157 185//185 156//156
f 170//170 180//180 181//181
f 180//180 170//170 169//169
f 186//186 158//158 187//187
f 158//158 186//186 157//157
f 171//171 181//181 182//182
f 181//181 171//171 170//170
f 187//187 159//159 188//188
f 159//159 187//187 158//158
f 172//172 182//182 183//183
f 182//182 172//172 171//171
f 188//188 160//160 189//189
f 160//160 188//188 159//159
f 172//172 184//184 164//164
f 184//184 172//172 183//183
f 189//189 161//161 190//190
f 161//161 189//189 160//160
f 164//164 192//192 163//163
f 192//192 164//164 184//184
f 190//190 162//162 191//191
f 162//162 190//190 161//161
f 191//191 163//163 192//192
f 163//163 191//191 162//162
f 194//194 195//195 196//196
f 195//195 194//194 193//193
f 194//194 197//197 198//198
f 197//197 194//194 196//196
f 198//198 199//199 200//200
f 199//199 198//198 197//197
f 200//200 201//201 202//202
f 201//201 200//200 199//199
f 202//202 203//203 204//204
f 203//203 202//202 201//201
f 203//203 206//206 204//204
f 206//206 203//203 205//205
f 208//208 206//206 205//205
f 206//206 208//208 207//207
f 210//210 207//207 208//208
f 207//207 210//210 209//209
f 212//212 209//209 210//210
f 209//209 212//212 211//211
f 214//214 211//211 212//212
f 211//211 214//214 213//213
f 216//216 213//213 214//214
f 213//213 216//216 215//215
f 218//218 215//215 216//216
f 215//215 218//218 217//217
f 220//220 217//217 218//218
f 217//217 220//220 219//219
f 222//222 219//219 220//220
f 219//219 222//222 221//221
f 221//221 223//223 224//224
f 223//223 221//221 222//222
f 226//226 224//224 223//223
f 224//224 226//226 225//225
f 228//228 225//225 226//226
f 225//225 228//228 227//227
f 230//230 227//227 228//228
f 227//227 230//230 229//229
f 232//232 229//229 230//230
f 229//229 232//232 231//231
f 234//234 231//231 232//232
f 231//231 234//234 233//233
f 236//236 233//233 234//234
f 233//233 236//236 235//235
f 238//238 235//235 236//236
f 235//235 238//238 237//237
f 240//240 237//237 238//238
f 237//237 240//240 239//239
f 242//242 239//239 240//240
f 239//239 242//242 241//241
f 241//241 243//243 244//244
f 243//243 241//241 242//242
f 244//244 245//245 246//246
f 245//245 244//244 243//243
f 247//247 245//245 248//248
f 245//245 247//247 246//246
f 249//249 248//248 250//250
f 248//248 249//249 247//247
f 251//251 250//250 252//252
f 250//250 251//251 249//249
f 253//253 252//252 254//254
f 252//252 253//253 251//251
f 255//255 254//254 256//256
f 254//254 255//255 253//253
f 257//257 256//256 258//258
f 256//256 257//257 255//255
f 259//259 258//258 260//260
f 258//258 259//259 257//257
f 261//261 260//260 262//262
f 260//260 261//261 259//259
f 263//263 262//262 264//264
f 262//262 263//263 261//261
f 265//265 264//264 266//266
f 264//264 265//265 263//263
f 267//267 266//266 268//268
f 266//266 267//267 265//265
f 270//270 267//267 268//268
f 267//267 270//270 269//269
f 272//272 269//269 270//270
f 269//269 272//272 271//271
f 274//274 271//271 272//272
f 271//271 274//274 273//273
f 276//276 273//273 274//274
f 273//273 276//276 275//275
f 278//278 275//275 276//276
f 275//275 278//278 277//277
f 280//280 277//277 278//278
f 277//277 280//280 279//279
f 282//282 279//279 280//280
f 279//279 282//282 281//281
f 284//284 281//281 282//282
f 281//281 284//284 283//283
f 283//283 285//285 286//286
f 285//285 283//283 284//284
f 287//287 285//285 288//288
f 285//285 287//287 286//286
f 289//289 288//288 290//290
f 288//288 289//289 287//287
f 291//291 290//290 292//292
f 290//290 291//291 289//289
f 293//293 292//292 294//294
f 292//292 293//293 291//291
f 295//295 294//294 296//296
f 294//294 295//295 293//293
f 297//297 296//296 298//298
f 296//296 297//297 295//295
f 299//299 298//298 300//300
f 298//298 299//299 297//297
f 301//301 300//300 302//302
f 300//300 301//301 299//299
f 304//304 301//301 302//302
f 301//301 304//304 303//303
f 303//303 305//305 306//306
f 305//305 303//303 304//304
f 306//306 307//307 308//308
f 307//307 306//306 305//305
f 308//308 309//309 310//310
f 309//309 308//308 307//307
f 310//310 311//311 312//312
f 311//311 310//310 309//309
f 312//312 313//313 314//314
f 313//313 312//312 311//311
f 316//316 314//314 313//313
f 314//314 316//316 315//315
f 315//315 317//317 318//318
f 317//317 315//315 316//316
f 319//319 317//317 320//320
f 317//317 319//319 318//318
f 322//322 319//319 320//320
f 319//319 322//322 321//321
f 324//324 321//321 322//322
f 321//321 324//324 323//323
f 326//326 323//323 324//324
f 323//323 326//326 325//325
f 328//328 325//325 326//326
f 325//325 328//328 327//327
f 330//330 327//327 328//328
f 327//327 330//330 329//329
f 332//332 329//329 330//330
f 329//329 332//332 331//331
f 334//334 331//331 332//332
f 331//331 334//334 333//333
f 336//336 333//333 334//334
f 333//333 336//336 335//335
f 338//338 335//335 336//336
f 335//335 338//338 337//337
f 340//340 337//337 338//338
f 337//337 340//340 339//339
f 342//342 339//339 340//340
f 339//339 342//342 341//341
f 344//344 341//341 342//342
f 341//341 344//344 343//343
f 346//346 343//343 344//344
f 343//343 346//346 345//345
f 239//239 235//235 237//237
f 239//239 233//233 235//235
f 241//241 233//233 239//239
f 241//241 231//231 233//233
f 241//241 229//229 231//231
f 241//241 253//253 229//229
f 244//244 253//253 241//241
f 244//244 251//251 253//253
f 246//246 251//251 244//244
f 246//246 249//249 251//251
f 249//249 246//246 247//247
f 271//271 267//267 269//269
f 273//273 267//267 271//271
f 273//273 265//265 267//267
f 275//275 265//265 273//273
f 277//277 265//265 275//275
f 253//253 277//277 229//229
f 253//253 265//265 277//277
f 253//253 263//263 265//265
f 255//255 263//263 253//253
f 255//255 261//261 263//263
f 257//257 261//261 255//255
f 261//261 257//257 259//259
f 339//339 335//335 337//337
f 339//339 333//333 335//335
f 341//341 333//333 339//339
f 341//341 331//331 333//333
f 341//341 308//308 331//331
f 341//341 200//200 308//308
f 341//341 198//198 200//200
f 343//343 198//198 341//341
f 343//343 194//194 198//198
f 343//343 193//193 194//194
f 345//345 193//193 343//343
f 193//193 345//345 365//365
f 327//327 323//323 325//325
f 329//329 323//323 327//327
f 329//329 321//321 323//323
f 331//331 321//321 329//329
f 308//308 321//321 331//331
f 310//310 321//321 308//308
f 310//310 319//319 321//321
f 312//312 319//319 310//310
f 314//314 319//319 312//312
f 314//314 318//318 319//319
f 318//318 314//314 315//315
f 200//200 306//306 308//308
f 202//202 306//306 200//200
f 202//202 303//303 306//306
f 204//204 303//303 202//202
f 206//206 303//303 204//204
f 206//206 301//301 303//303
f 206//206 356//356 301//301
f 206//206 364//364 356//356
f 207//207 364//364 206//206
f 207//207 363//363 364//364
f 209//209 363//363 207//207
f 209//209 362//362 363//363
f 211//211 362//362 209//209
f 213//213 362//362 211//211
f 213//213 361//361 362//362
f 213//213 360//360 361//361
f 215//215 360//360 213//213
f 215//215 359//359 360//360
f 217//217 359//359 215//215
f 217//217 358//358 359//359
f 219//219 358//358 217//217
f 219//219 357//357 358//358
f 219//219 347//347 357//357
f 347//347 219//219 221//221
f 355//355 301//301 356//356
f 355//355 299//299 301//301
f 354//354 299//299 355//355
f 354//354 297//297 299//299
f 353//353 297//297 354//354
f 353//353 295//295 297//297
f 353//353 293//293 295//295
f 352//352 293//293 353//353
f 351//351 293//293 352//352
f 351//351 291//291 293//293
f 350//350 291//291 351//351
f 350//350 289//289 291//291
f 349//349 289//289 350//350
f 349//349 287//287 289//289
f 348//348 287//287 349//349
f 347//347 287//287 348//348
f 347//347 286//286 287//287
f 221//221 286//286 347//347
f 221//221 283//283 286//286
f 224//224 283//283 221//221
f 224//224 281//281 283//283
f 225//225 281//281 224//224
f 225//225 279//279 281//281
f 227//227 279//279 225//225
f 227//227 277//277 279//279
f 277//277 227//227 229//229
f 193//193 366//366 195//195
f 366//366 193//193 365//365
f 268//268 272//272 270//270
f 268//268 274//274 272//272
f 266//266 274//274 268//268
f 266//266 276//276 274//274
f 266//266 278//278 276//276
f 278//278 254//254 230//230
f 266//266 254//254 278//278
f 264//264 254//254 266//266
f 264//264 256//256 254//254
f 262//262 256//256 264//264
f 262//262 258//258 256//256
f 258//258 262//262 260//260
f 302//302 384//384 376//376
f 300//300 384//384 302//302
f 300//300 383//383 384//384
f 298//298 383//383 300//300
f 298//298 382//382 383//383
f 296//296 382//382 298//298
f 294//294 382//382 296//296
f 294//294 381//381 382//382
f 294//294 380//380 381//381
f 292//292 380//380 294//294
f 292//292 379//379 380//380
f 290//290 379//379 292//292
f 290//290 378//378 379//379
f 288//288 378//378 290//290
f 288//288 377//377 378//378
f 288//288 367//367 377//377
f 285//285 367//367 288//288
f 285//285 222//222 367//367
f 284//284 222//222 285//285
f 284//284 223//223 222//222
f 282//282 223//223 284//284
f 282//282 226//226 223//223
f 280//280 226//226 282//282
f 280//280 228//228 226//226
f 278//278 228//228 280//280
f 228//228 278//278 230//230
f 305//305 199//199 307//307
f 305//305 201//201 199//199
f 304//304 201//201 305//305
f 304//304 203//203 201//201
f 304//304 205//205 203//203
f 302//302 205//205 304//304
f 376//376 205//205 302//302
f 375//375 205//205 376//376
f 375//375 208//208 205//205
f 374//374 208//208 375//375
f 374//374 210//210 208//208
f 373//373 210//210 374//374
f 373//373 212//212 210//210
f 373//373 214//214 212//212
f 372//372 214//214 373//373
f 371//371 214//214 372//372
f 371//371 216//216 214//214
f 370//370 216//216 371//371
f 370//370 218//218 216//216
f 369//369 218//218 370//370
f 369//369 220//220 218//218
f 368//368 220//220 369//369
f 367//367 220//220 368//368
f 220//220 367//367 222//222
f 324//324 328//328 326//326
f 324//324 330//330 328//328
f 322//322 330//330 324//324
f 322//322 332//332 330//330
f 322//322 307//307 332//332
f 322//322 309//309 307//307
f 320//320 309//309 322//322
f 320//320 311//311 309//309
f 320//320 313//313 311//311
f 317//317 313//313 320//320
f 313//313 317//317 316//316
f 336//336 340//340 338//338
f 334//334 340//340 336//336
f 334//334 342//342 340//340
f 332//332 342//342 334//334
f 307//307 342//342 332//332
f 199//199 342//342 307//307
f 197//197 342//342 199//199
f 197//197 344//344 342//342
f 196//196 344//344 197//197
f 195//195 344//344 196//196
f 195//195 346//346 344//344
f 346//346 195//195 366//366
f 236//236 240//240 238//238
f 234//234 240//240 236//236
f 234//234 242//242 240//240
f 232//232 242//242 234//234
f 230//230 242//242 232//232
f 254//254 242//242 230//230
f 254//254 243//243 242//242
f 252//252 243//243 254//254
f 252//252 245//245 243//243
f 250//250 245//245 252//252
f 245//245 250//250 248//248
f 365//365 346//346 366//366
f 346//346 365//365 345//345
f 358//358 368//368 369//369
f 368//368 358//358 357//357
f 359//359 369//369 370//370
f 369//369 359//359 358//358
f 368//368 347//347 367//367
f 347//347 368//368 357//357
f 360//360 370//370 371//371
f 370//370 360//360 359//359
f 367//367 348//348 377//377
f 348//348 367//367 347//347
f 361//361 371//371 372//372
f 371//371 361//361 360//360
f 377//377 349//349 378//378
f 349//349 377//377 348//348
f 362//362 372//372 373//373
f 372//372 362//362 361//361
f 378//378 350//350 379//379
f 350//350 378//378 349//349
f 363//363 373//373 374//374
f 373//373 363//363 362//362
f 379//379 351//351 380//380
f 351//351 379//379 350//350
f 364//364 374//374 375//375
f 374//374 364//364 363//363
f 380//380 352//352 381//381
f 352//352 380//380 351//351
f 364//364 376//376 356//356
f 376//376 364//364 375//375
f 381//381 353//353 382//382
f 353//353 381//381 352//352
f 356//356 384//384 355//355
f 384//384 356//356 376//376
f 382//382 354//354 383//383
f 354//354 382//382 353//353
f 383//383 355//355 384//384
f 355//355 383//383 354//354