# https://github.com/mikedh/trimesh
v -0.08302800 0.04811400 0.02990600
v -0.08669600 0.04740800 0.02990600
v -0.08311500 0.04506400 0.02867200
v -0.00480200 0.05344100 0.02990600
v -0.08302200 0.04811200 0.02990600
v -0.07955800 0.04573000 0.02867200
v 0.01614500 0.05249500 0.02990600
v -0.00414500 0.05075700 0.02867200
v 0.03690800 0.04965300 0.02990600
v 0.01605700 0.04986500 0.02867200
v 0.06091100 0.04493100 0.02990600
v 0.03607900 0.04718200 0.02867200
v 0.08451100 0.03834800 0.02990600
v 0.05935200 0.04272600 0.02867200
v 0.08945300 0.03602700 0.02990600
v 0.08223300 0.03651300 0.02867200
v 0.09337400 0.03240200 0.02990600
v 0.08702400 0.03432300 0.02867200
v 0.09603700 0.02777300 0.02990600
v 0.09082600 0.03090100 0.02867200
v 0.09720100 0.02244200 0.02990600
v 0.09340800 0.02653200 0.02867200
v 0.09747700 0.02003300 0.02990600
v 0.09453700 0.02149800 0.02867200
v 0.09767500 0.01761900 0.02990600
v 0.09480500 0.01922700 0.02867200
v 0.08451100 -0.02693200 0.02990600
v 0.08223300 -0.02509700 0.02867200
v 0.06091100 -0.03351500 0.02990600
v 0.05935200 -0.03131000 0.02867200
v 0.03690800 -0.03823700 0.02990600
v 0.03607900 -0.03576600 0.02867200
v 0.01614500 -0.04107900 0.02990600
v 0.01605700 -0.03844900 0.02867200
v -0.00480200 -0.04202500 0.02990600
v -0.00414500 -0.03934100 0.02867200
v -0.08302800 -0.03669700 0.02990600
v -0.07955800 -0.03431400 0.02867200
v -0.08669600 -0.03599200 0.02990600
v -0.08311500 -0.03364800 0.02867200
v -0.09000000 -0.03438400 0.02990600
v -0.08631800 -0.03213000 0.02867200
v -0.09277900 -0.03198000 0.02990600
v -0.08901200 -0.02986100 0.02867200
v -0.09487200 -0.02888600 0.02990600
v -0.09104100 -0.02694100 0.02867200
v -0.09717200 -0.02221700 0.02990600
v -0.08631800 0.04354600 0.02867200
v 0.09499500 0.01695000 0.02867200
v 0.08945300 -0.02461100 0.02990600
v 0.08702400 -0.02290700 0.02867200
v -0.09327200 -0.02064800 0.02867200
v -0.09000000 0.04580000 0.02990600
v -0.08503700 0.04296900 0.02743800
v -0.08186400 0.04446300 0.02743800
v -0.07834300 0.04511900 0.02743800
v -0.00379900 0.05007000 0.02743800
v 0.01617200 0.04919100 0.02743800
v 0.03596600 0.04654900 0.02743800
v 0.05901200 0.04216100 0.02743800
v 0.08167100 0.03604300 0.02743800
v 0.08641600 0.03388600 0.02743800
v 0.09018100 0.03051700 0.02743800
v 0.09273800 0.02621400 0.02743800
v 0.09385600 0.02125800 0.02743800
v 0.09779300 0.01520100 0.02990600
v 0.09412100 0.01902100 0.02743800
v 0.09337400 -0.02098600 0.02990600
v 0.09082600 -0.01948500 0.02867200
v 0.08641600 -0.02247000 0.02743800
v 0.08167100 -0.02462700 0.02743800
v 0.05901200 -0.03074600 0.02743800
v 0.03596600 -0.03513400 0.02743800
v 0.01617200 -0.03777500 0.02743800
v -0.00379900 -0.03865400 0.02743800
v -0.07834300 -0.03370300 0.02743800
v -0.08186400 -0.03304800 0.02743800
v -0.08503700 -0.03155300 0.02743800
v -0.08770500 -0.02931800 0.02743800
v -0.09882600 -0.01537600 0.02990600
v -0.08971400 -0.02644300 0.02743800
v -0.08901200 0.04127700 0.02867200
v -0.08770500 0.04073500 0.02743800
v 0.09511000 0.01466800 0.02867200
v 0.09431000 0.01677800 0.02743800
v 0.09603700 -0.01635700 0.02990600
v 0.09340800 -0.01511600 0.02867200
v 0.09018100 -0.01910100 0.02743800
v -0.09487600 -0.01419100 0.02867200
v -0.09192300 -0.02024500 0.02743800
v -0.09277900 0.04339600 0.02990600
v -0.09104100 0.03835700 0.02867200
v -0.09487200 0.04030200 0.02990600
v -0.09327200 0.03206400 0.02867200
v -0.09717200 0.03363300 0.02990600
v -0.09487600 0.02560700 0.02867200
v -0.09882600 0.02679200 0.02990600
v -0.09584400 0.01903200 0.02867200
v -0.09982500 0.01982500 0.02990600
v -0.09616900 0.01238200 0.02867200
v -0.10016100 0.01277900 0.02990600
v -0.09616900 -0.00096600 0.02867200
v -0.10016100 -0.00136300 0.02990600
v -0.09584400 -0.00761600 0.02867200
v -0.09982500 -0.00841000 0.02990600
v -0.08689200 0.04056600 0.02620400
v -0.08423800 0.04279000 0.02620400
v -0.08108200 0.04427700 0.02620400
v -0.07757800 0.04493000 0.02620400
v -0.00349100 0.04985700 0.02620400
v 0.01635900 0.04898200 0.02620400
v 0.03603300 0.04635300 0.02620400
v 0.05896100 0.04198700 0.02620400
v 0.08150300 0.03589700 0.02620400
v 0.08622300 0.03375100 0.02620400
v 0.08996900 0.03039800 0.02620400
v 0.09251300 0.02611600 0.02620400
v 0.09362500 0.02118300 0.02620400
v 0.09783200 0.01277900 0.02990600
v 0.09388900 0.01895700 0.02620400
v 0.09720200 -0.01102300 0.02990600
v 0.09453700 -0.01008200 0.02867200
v 0.09273800 -0.01479900 0.02743800
v 0.08996900 -0.01898200 0.02620400
v 0.08622300 -0.02233500 0.02620400
v 0.08150300 -0.02448100 0.02620400
v 0.05896100 -0.03057100 0.02620400
v 0.03603300 -0.03493700 0.02620400
v 0.01635900 -0.03756600 0.02620400
v -0.00349100 -0.03844100 0.02620400
v -0.07757800 -0.03351400 0.02620400
v -0.08108200 -0.03286200 0.02620400
v -0.08423800 -0.03137400 0.02620400
v -0.08689200 -0.02915100 0.02620400
v -0.08889100 -0.02628900 0.02620400
v -0.08971400 0.03785900 0.02743800
v -0.08889100 0.03770500 0.02620400
v 0.09514900 0.01238200 0.02867200
v 0.09442300 0.01453100 0.02743800
v 0.09407700 0.01672500 0.02620400
v 0.09747700 -0.00861700 0.02990600
v 0.09480500 -0.00781100 0.02867200
v 0.09385600 -0.00984200 0.02743800
v 0.09251300 -0.01470000 0.02620400
v -0.09351100 -0.01388800 0.02743800
v -0.09108900 -0.02012100 0.02620400
v -0.09192300 0.03166100 0.02743800
v -0.09351100 0.02530400 0.02743800
v -0.09447000 0.01882900 0.02743800
v -0.09479200 0.01228000 0.02743800
v -0.09479200 -0.00086400 0.02743800
v -0.09447000 -0.00741300 0.02743800
v -0.08146200 0.03642200 0.01204800
v -0.07955800 0.03917000 0.01204800
v -0.07702900 0.04130400 0.01204800
v -0.07402200 0.04273200 0.01204800
v -0.07068300 0.04335800 0.01204800
v -0.00075900 0.04808800 0.01204800
v 0.01798800 0.04724800 0.01204800
v 0.03656700 0.04472500 0.01204800
v 0.05841300 0.04053300 0.01204800
v 0.07989200 0.03468800 0.01204800
v 0.08438900 0.03262700 0.01204800
v 0.08795800 0.02940800 0.01204800
v 0.09038200 0.02529800 0.01204800
v 0.09144100 0.02056300 0.01204800
v 0.09169200 0.01842600 0.01204800
v 0.09783200 0.00570800 0.02990600
v 0.09767500 -0.00620400 0.02990600
v 0.09499500 -0.00553400 0.02867200
v 0.09779300 -0.00378500 0.02990600
v 0.09511000 -0.00325200 0.02867200
v 0.09783200 -0.00136300 0.02990600
v 0.09514900 -0.00096600 0.02867200
v 0.09514900 0.00570800 0.02867200
v 0.09783200 -0.00135500 0.02990600
v 0.09412100 -0.00760500 0.02743800
v 0.09362500 -0.00976700 0.02620400
v 0.09038200 -0.01388200 0.01204800
v 0.08795800 -0.01799300 0.01204800
v 0.08438900 -0.02121100 0.01204800
v 0.07989200 -0.02327200 0.01204800
v 0.05841300 -0.02911700 0.01204800
v 0.03656700 -0.03330800 0.01204800
v 0.01798800 -0.03583200 0.01204800
v -0.00075900 -0.03667200 0.01204800
v -0.07068300 -0.03194200 0.01204800
v -0.07402200 -0.03131600 0.01204800
v -0.07702900 -0.02988800 0.01204800
v -0.07955800 -0.02775400 0.01204800
v -0.08146200 -0.02500600 0.01204800
v -0.09108900 0.03153700 0.02620400
v -0.08355600 0.03050200 0.01204800
v 0.09187200 0.01628400 0.01204800
v 0.09446200 0.01228000 0.02743800
v 0.09419000 0.01448800 0.02620400
v 0.09431000 -0.00536200 0.02743800
v 0.09388900 -0.00754100 0.02620400
v 0.09144100 -0.00914700 0.01204800
v -0.09266900 -0.01379400 0.02620400
v -0.08355600 -0.01908600 0.01204800
v -0.09266900 0.02520900 0.02620400
v -0.09362300 0.01876600 0.02620400
v -0.09394300 0.01224800 0.02620400
v -0.09394300 -0.00083300 0.02620400
v -0.09362300 -0.00735000 0.02620400
v -0.07602200 0.02946600 -0.00210700
v -0.07403200 0.03514000 -0.00210700
v -0.07222200 0.03777200 -0.00210700
v -0.06981800 0.03981800 -0.00210700
v -0.06696000 0.04118600 -0.00210700
v -0.06378700 0.04178600 -0.00210700
v 0.00197400 0.04631800 -0.00210700
v 0.01961700 0.04551300 -0.00210700
v 0.03710100 0.04309500 -0.00210700
v 0.05786500 0.03907800 -0.00210700
v 0.07828000 0.03347800 -0.00210700
v 0.08255500 0.03150300 -0.00210700
v 0.08594700 0.02841900 -0.00210700
v 0.08825100 0.02448000 -0.00210700
v 0.08925800 0.01994200 -0.00210700
v 0.08949700 0.01789500 -0.00210700
v 0.09442300 -0.00311500 0.02743800
v 0.09446200 -0.00086400 0.02743800
v 0.09446200 0.00570800 0.02743800
v 0.09407700 -0.00530900 0.02620400
v 0.09169200 -0.00701000 0.01204800
v 0.08925800 -0.00852700 -0.00210700
v 0.08825100 -0.01306400 -0.00210700
v 0.08594700 -0.01700300 -0.00210700
v 0.08255500 -0.02008700 -0.00210700
v 0.07828000 -0.02206100 -0.00210700
v 0.05786500 -0.02766300 -0.00210700
v 0.03710100 -0.03168000 -0.00210700
v 0.01961700 -0.03409700 -0.00210700
v 0.00197400 -0.03490200 -0.00210700
v -0.06378700 -0.03037000 -0.00210700
v -0.06696000 -0.02977000 -0.00210700
v -0.06981800 -0.02840200 -0.00210700
v -0.07222200 -0.02635600 -0.00210700
v -0.07403200 -0.02372400 -0.00210700
v -0.08506100 0.02442800 0.01204800
v -0.07745300 0.02364600 -0.00210700
v 0.08966700 0.01584200 -0.00210700
v 0.09198000 0.01413700 0.01204800
v 0.09422800 0.01224800 0.02620400
v 0.09419000 -0.00307200 0.02620400
v 0.09187200 -0.00486800 0.01204800
v 0.08949700 -0.00647900 -0.00210700
v -0.08506100 -0.01301200 0.01204800
v -0.07602200 -0.01805100 -0.00210700
v -0.08597100 0.01824200 0.01204800
v -0.08627600 0.01198700 0.01204800
v -0.08627600 -0.00057100 0.01204800
v -0.08597100 -0.00682700 0.01204800
v -0.06984500 0.02286500 -0.01626200
v -0.06848800 0.02843100 -0.01626200
v -0.06660200 0.03385800 -0.01626200
v -0.06488600 0.03637500 -0.01626200
v -0.06260700 0.03833200 -0.01626200
v -0.05989800 0.03964000 -0.01626200
v -0.05689000 0.04021400 -0.01626200
v 0.00470700 0.04454900 -0.01626200
v 0.02124700 0.04377900 -0.01626200
v 0.03763500 0.04146700 -0.01626200
v 0.05731700 0.03762500 -0.01626200
v 0.07666900 0.03226800 -0.01626200
v 0.08072000 0.03037900 -0.01626200
v 0.08393600 0.02742900 -0.01626200
v 0.08612000 0.02366200 -0.01626200
v 0.08707500 0.01932200 -0.01626200
v 0.08730100 0.01736400 -0.01626200
v 0.08746200 0.01540100 -0.01626200
v 0.08977000 0.01378400 -0.00210700
v 0.09422800 -0.00083300 0.02620400
v 0.09422800 0.00570800 0.02620400
v 0.09198000 -0.00272100 0.01204800
v 0.08966700 -0.00442600 -0.00210700
v 0.08730100 -0.00594800 -0.01626200
v 0.08707500 -0.00790600 -0.01626200
v 0.08612000 -0.01224600 -0.01626200
v 0.08393600 -0.01601300 -0.01626200
v 0.08072000 -0.01896300 -0.01626200
v 0.07666900 -0.02085200 -0.01626200
v 0.05731700 -0.02620900 -0.01626200
v 0.03763500 -0.03005100 -0.01626200
v 0.02124700 -0.03236400 -0.01626200
v 0.00470700 -0.03313300 -0.01626200
v -0.05689000 -0.02879800 -0.01626200
v -0.05989800 -0.02822400 -0.01626200
v -0.06260700 -0.02691600 -0.01626200
v -0.06488600 -0.02495900 -0.01626200
v -0.06660200 -0.02244200 -0.01626200
v -0.07831800 0.01771900 -0.00210700
v -0.07066400 0.01719600 -0.01626200
v 0.08756000 0.01343300 -0.01626200
v 0.09201500 0.01198700 0.01204800
v 0.09201500 -0.00057100 0.01204800
v 0.08977000 -0.00236800 -0.00210700
v 0.08746200 -0.00398500 -0.01626200
v -0.07745300 -0.01223000 -0.00210700
v -0.06848800 -0.01701600 -0.01626200
v -0.07860800 0.01172400 -0.00210700
v -0.07860800 -0.00030800 -0.00210700
v -0.07831800 -0.00630300 -0.00210700
v -0.06915800 0.01697900 -0.01884200
v -0.06834900 0.02254100 -0.01884200
v -0.06701000 0.02800300 -0.01884200
v -0.06514700 0.03332700 -0.01884200
v -0.06345200 0.03579800 -0.01884200
v -0.06120200 0.03771700 -0.01884200
v -0.05852700 0.03900100 -0.01884200
v -0.05555700 0.03956400 -0.01884200
v 0.00509500 0.04381700 -0.01884200
v 0.02138300 0.04306200 -0.01884200
v 0.03752300 0.04079300 -0.01884200
v 0.05696000 0.03702300 -0.01884200
v 0.07606900 0.03176700 -0.01884200
v 0.08007000 0.02991400 -0.01884200
v 0.08324600 0.02702000 -0.01884200
v 0.08540200 0.02332400 -0.01884200
v 0.08634500 0.01906600 -0.01884200
v 0.08656800 0.01714500 -0.01884200
v 0.08672800 0.01521800 -0.01884200
v 0.08980400 0.01172400 -0.00210700
v 0.09201500 0.00570800 0.01204800
v 0.08980400 -0.00030800 -0.00210700
v 0.08756000 -0.00201700 -0.01626200
v 0.08672800 -0.00380200 -0.01884200
v 0.08656800 -0.00572900 -0.01884200
v 0.08634500 -0.00765000 -0.01884200
v 0.08540200 -0.01190800 -0.01884200
v 0.08324600 -0.01560400 -0.01884200
v 0.08007000 -0.01849800 -0.01884200
v 0.07606900 -0.02035200 -0.01884200
v 0.05696000 -0.02560700 -0.01884200
v 0.03752300 -0.02937700 -0.01884200
v 0.02138300 -0.03164600 -0.01884200
v 0.00509500 -0.03240100 -0.01884200
v -0.05555700 -0.02814800 -0.01884200
v -0.05852700 -0.02758500 -0.01884200
v -0.06120200 -0.02630100 -0.01884200
v -0.06345200 -0.02438200 -0.01884200
v -0.06514700 -0.02191100 -0.01884200
v -0.07093900 0.01146200 -0.01626200
v -0.06942900 0.01135400 -0.01884200
v 0.08682400 0.01328700 -0.01884200
v 0.08759200 0.01146200 -0.01626200
v 0.08980400 0.00570800 -0.00210700
v 0.08759200 -0.00004600 -0.01626200
v 0.08682400 -0.00187100 -0.01884200
v -0.06984500 -0.01144900 -0.01626200
v -0.06701000 -0.01658700 -0.01884200
v -0.07093900 -0.00004600 -0.01626200
v -0.07066400 -0.00578000 -0.01626200
v -0.06693800 0.01108700 -0.02142300
v -0.06667300 0.01644700 -0.02142300
v -0.06588400 0.02174700 -0.02142300
v -0.06457600 0.02695100 -0.02142300
v -0.06275900 0.03202400 -0.02142300
v -0.06110500 0.03437800 -0.02142300
v -0.05890900 0.03620700 -0.02142300
v -0.05629900 0.03743000 -0.02142300
v -0.05340000 0.03796700 -0.02142300
v 0.00544400 0.04201900 -0.02142300
v 0.02125300 0.04129900 -0.02142300
v 0.03691700 0.03913700 -0.02142300
v 0.05588400 0.03554600 -0.02142300
v 0.07453200 0.03053800 -0.02142300
v 0.07843600 0.02877200 -0.02142300
v 0.08153500 0.02601500 -0.02142300
v 0.08363800 0.02249300 -0.02142300
v 0.08455900 0.01843600 -0.02142300
v 0.08477700 0.01660500 -0.02142300
v 0.08493300 0.01476900 -0.02142300
v 0.08502600 0.01293000 -0.02142300
v 0.08685600 0.01135400 -0.01884200
v 0.08759200 0.00570800 -0.01626200
v 0.08685600 0.00006200 -0.01884200
v 0.08502600 -0.00151400 -0.02142300
v 0.08493300 -0.00335300 -0.02142300
v 0.08477700 -0.00518900 -0.02142300
v 0.08455900 -0.00702000 -0.02142300
v 0.08363800 -0.01107700 -0.02142300
v 0.08153500 -0.01459900 -0.02142300
v 0.07843600 -0.01735600 -0.02142300
v 0.07453200 -0.01912200 -0.02142300
v 0.05588400 -0.02413000 -0.02142300
v 0.03691700 -0.02772100 -0.02142300
v 0.02125300 -0.02988300 -0.02142300
v 0.00544400 -0.03060300 -0.02142300
v -0.05340000 -0.02655100 -0.02142300
v -0.05629900 -0.02601400 -0.02142300
v -0.05890900 -0.02479100 -0.02142300
v -0.06110500 -0.02296200 -0.02142300
v -0.06275900 -0.02060800 -0.02142300
v -0.06942900 0.00006200 -0.01884200
v -0.06693800 0.00032800 -0.02142300
v 0.08505700 0.01108700 -0.02142300
v 0.08685600 0.00570800 -0.01884200
v 0.08505700 0.00032800 -0.02142300
v -0.06834900 -0.01112500 -0.01884200
v -0.06457600 -0.01553500 -0.02142300
v -0.06915800 -0.00556300 -0.01884200
v -0.05937500 0.00125300 -0.02400300
v -0.05937500 0.01016300 -0.02400300
v -0.05913100 0.01460200 -0.02400300
v -0.05840400 0.01899100 -0.02400300
v -0.05720100 0.02330100 -0.02400300
v -0.05552800 0.02750200 -0.02400300
v -0.05400700 0.02945100 -0.02400300
v -0.05198600 0.03096600 -0.02400300
v -0.04958300 0.03197900 -0.02400300
v -0.04691600 0.03242400 -0.02400300
v 0.00611200 0.03578000 -0.02400300
v 0.02038000 0.03518400 -0.02400300
v 0.03451300 0.03339300 -0.02400300
v 0.05196900 0.03041900 -0.02400300
v 0.06913000 0.02627100 -0.02400300
v 0.07272300 0.02480900 -0.02400300
v 0.07557500 0.02252500 -0.02400300
v 0.07751200 0.01960900 -0.02400300
v 0.07835900 0.01624800 -0.02400300
v 0.07855900 0.01473300 -0.02400300
v 0.07870300 0.01321200 -0.02400300
v 0.07878800 0.01168900 -0.02400300
v 0.08505700 0.00570800 -0.02142300
v 0.07881700 0.00125300 -0.02400300
v 0.07878800 -0.00027300 -0.02400300
v 0.07870300 -0.00179600 -0.02400300
v 0.07855900 -0.00331700 -0.02400300
v 0.07835900 -0.00483200 -0.02400300
v 0.07751200 -0.00819300 -0.02400300
v 0.07557500 -0.01110900 -0.02400300
v 0.07272300 -0.01339300 -0.02400300
v 0.06913000 -0.01485500 -0.02400300
v 0.05196900 -0.01900300 -0.02400300
v 0.03451300 -0.02197700 -0.02400300
v 0.02038000 -0.02376800 -0.02400300
v 0.00611200 -0.02436400 -0.02400300
v -0.04691600 -0.02100800 -0.02400300
v -0.04958300 -0.02056300 -0.02400300
v -0.05198600 -0.01955000 -0.02400300
v -0.05400700 -0.01803500 -0.02400300
v -0.05552800 -0.01608600 -0.02400300
v -0.06667300 -0.00503100 -0.02142300
v -0.05913100 -0.00318600 -0.02400300
v 0.07881700 0.01016300 -0.02400300
v 0.07881700 0.00570800 -0.02400300
v -0.06588400 -0.01033100 -0.02142300
v -0.05720100 -0.01188500 -0.02400300
v -0.05840400 -0.00757500 -0.02400300
v -0.00292900 -0.05473400 -0.01492500
v -0.00292900 -0.05438100 -0.02753800
v 0.05535400 -0.05473400 -0.01492500
v -0.06121100 -0.05473400 -0.01492500
v -0.10899200 -0.05008300 0.02990600
v -0.10899200 -0.05010000 0.02978600
v 0.10313500 -0.05010000 0.02978600
v -0.10899200 -0.05260000 0.02728600
v 0.10313500 -0.05224700 0.02813900
v -0.10899200 -0.05224700 0.02813900
v 0.10313500 -0.05260000 0.02728600
v 0.10313500 -0.05168500 0.02887100
v -0.10899200 -0.05168500 0.02887100
v -0.10899200 -0.05095300 0.02943200
v 0.10313500 -0.05095300 0.02943200
v 0.10313500 -0.04918500 0.02990600
v 0.10313500 0.05874000 0.02990600
v -0.10899200 0.05874000 0.02990600
v 0.05718400 -0.05473400 -0.01516500
v -0.06304100 -0.05473400 -0.01516500
v -0.09838600 -0.05438100 -0.02753800
v 0.09252900 -0.05438100 -0.02753800
v 0.10313500 0.05874000 -0.02753800
v -0.10899200 0.05874000 -0.02753800
v 0.03983400 -0.05385000 0.00074200
v -0.04569100 -0.05473400 0.00074200
v 0.03983400 -0.05473400 0.00074200
v -0.04752100 -0.05385000 0.00050100
v -0.04752100 -0.05473400 0.00050100
v -0.04922600 -0.05473400 -0.00020500
v 0.04166400 -0.05473400 0.00050100
v 0.04336900 -0.05473400 -0.00020500
v -0.05069100 -0.05473400 -0.00132900
v 0.04483400 -0.05473400 -0.00132900
v -0.05181500 -0.05473400 -0.00279300
v 0.04595800 -0.05473400 -0.00279300
v -0.05691700 -0.05473400 -0.01163000
v 0.05106000 -0.05473400 -0.01163000
v -0.05804100 -0.05473400 -0.01309500
v 0.05218400 -0.05473400 -0.01309500
v -0.05950600 -0.05473400 -0.01421800
v 0.05364900 -0.05473400 -0.01421800
v -0.05181500 -0.05385000 -0.00279300
v -0.05691700 -0.05389100 -0.01163000
v -0.10899200 -0.05271900 0.02648000
v -0.10899200 -0.05438100 -0.02753800
v 0.10313500 -0.05271900 0.02648000
v 0.10313500 -0.05438100 -0.02753800
v 0.09252900 -0.05400000 -0.01516500
v 0.05718400 -0.05400000 -0.01516500
v 0.05535400 -0.05399300 -0.01492500
v 0.05364900 -0.05397100 -0.01421800
v 0.05218400 -0.05393600 -0.01309500
v -0.07778300 -0.05367400 -0.00456000
v -0.07890700 -0.05371900 -0.00602500
v -0.07890700 -0.05385000 -0.00602500
v -0.08037200 -0.05375300 -0.00714800
v -0.08037200 -0.05385000 -0.00714800
v -0.08207700 -0.05377500 -0.00785400
v -0.05804100 -0.05393600 -0.01309500
v -0.05950600 -0.05397100 -0.01421800
v -0.06121100 -0.05399300 -0.01492500
v -0.06304100 -0.05400000 -0.01516500
v -0.09838600 -0.05400000 -0.01516500
v 0.06070000 -0.05385000 0.01488200
v 0.07192700 -0.05367400 -0.00456000
v 0.06070000 -0.05307600 0.01488200
v 0.07192700 -0.05385000 -0.00456000
v 0.07451500 -0.05375300 -0.00714800
v 0.07622000 -0.05385000 -0.00785400
v 0.07622000 -0.05377500 -0.00785400
v 0.07451500 -0.05385000 -0.00714800
v 0.07805000 -0.05385000 -0.00809500
v 0.07805000 -0.05378300 -0.00809500
v 0.09252900 -0.05385000 -0.00809500
v 0.09252900 -0.05378300 -0.00809500
v 0.09252900 -0.05385000 -0.01028100
v 0.04336900 -0.05385000 -0.00020500
v 0.04483400 -0.05385000 -0.00132900
v 0.04166400 -0.05385000 0.00050100
v -0.04569100 -0.05385000 0.00074200
v -0.04922600 -0.05385000 -0.00020500
v -0.05069100 -0.05385000 -0.00132900
v -0.05613800 -0.05385000 -0.01028100
v -0.08390700 -0.05385000 -0.00809500
v -0.08207700 -0.05385000 -0.00785400
v -0.07778300 -0.05385000 -0.00456000
v -0.06655700 -0.05307600 0.01488200
v -0.06655700 -0.05385000 0.01488200
v -0.06543300 -0.05303000 0.01634600
v -0.06543300 -0.05385000 0.01634600
v -0.06396900 -0.05385000 0.01747000
v -0.06396900 -0.05299600 0.01747000
v -0.06226300 -0.05385000 0.01817700
v -0.06226300 -0.05297400 0.01817700
v -0.06043300 -0.05385000 0.01841700
v -0.06043300 -0.05296700 0.01841700
v 0.05457600 -0.05385000 0.01841700
v 0.05457600 -0.05296700 0.01841700
v 0.05640600 -0.05385000 0.01817700
v 0.05640600 -0.05297400 0.01817700
v 0.05811200 -0.05385000 0.01747000
v 0.05811200 -0.05299600 0.01747000
v 0.05028100 -0.05385000 -0.01028100
v 0.05106000 -0.05389100 -0.01163000
v -0.09838600 -0.05378300 -0.00809500
v -0.09838600 -0.05385000 -0.01028100
v 0.05957600 -0.05303000 0.01634600
v 0.07305000 -0.05371900 -0.00602500
v -0.08390700 -0.05378300 -0.00809500
v -0.09838600 -0.05385000 -0.00809500
v 0.05957600 -0.05385000 0.01634600
v 0.04595800 -0.05385000 -0.00279300
v 0.07305000 -0.05385000 -0.00602500
v 0.07796100 0.00598900 -0.02400300
v 0.07796100 0.00335800 -0.02400300
v 0.07813400 0.00467400 -0.02400300
v 0.07745400 0.00721400 -0.02400300
v 0.07745400 0.00213300 -0.02400300
v 0.07664600 0.00826700 -0.02400300
v 0.07664600 0.00108000 -0.02400300
v 0.07614600 0.00467400 -0.02400300
v 0.07604100 0.00547400 -0.02400300
v 0.07573200 0.00622000 -0.02400300
v 0.07559400 0.00907400 -0.02400300
v 0.07524000 0.00686100 -0.02400300
v 0.07459900 0.00735200 -0.02400300
v 0.07436800 0.00958200 -0.02400300
v 0.07385400 0.00766100 -0.02400300
v 0.07305300 0.00975500 -0.02400300
v 0.07305300 0.00776700 -0.02400300
v 0.07225200 0.00766100 -0.02400300
v 0.07173800 0.00958200 -0.02400300
v 0.07150600 0.00735200 -0.02400300
v 0.07086600 0.00686100 -0.02400300
v 0.07051200 0.00907400 -0.02400300
v 0.07037400 0.00622000 -0.02400300
v 0.07006500 0.00547400 -0.02400300
v 0.06996000 0.00467400 -0.02400300
v 0.06945900 0.00826700 -0.02400300
v 0.07604100 0.00387300 -0.02400300
v 0.07573200 0.00312700 -0.02400300
v 0.07559400 0.00027300 -0.02400300
v 0.07524000 0.00248600 -0.02400300
v 0.07459900 0.00199500 -0.02400300
v 0.07436800 -0.00023500 -0.02400300
v 0.07385400 0.00168600 -0.02400300
v 0.07305300 0.00158000 -0.02400300
v 0.07305300 -0.00040800 -0.02400300
v 0.07225200 0.00168600 -0.02400300
v 0.07173800 -0.00023500 -0.02400300
v 0.07150600 0.00199500 -0.02400300
v 0.07086600 0.00248600 -0.02400300
v 0.07051200 0.00027300 -0.02400300
v 0.07037400 0.00312700 -0.02400300
v 0.07006500 0.00387300 -0.02400300
v 0.06945900 0.00108000 -0.02400300
v 0.06865200 0.00721400 -0.02400300
v 0.06865200 0.00213300 -0.02400300
v 0.06814400 0.00598900 -0.02400300
v 0.06814400 0.00335800 -0.02400300
v 0.06797100 0.00467400 -0.02400300
v 0.07578400 0.00540500 -0.02400300
v 0.07578400 0.00394200 -0.02400300
v 0.07588100 0.00467400 -0.02400300
v 0.07550200 0.00608800 -0.02400300
v 0.07550200 0.00326000 -0.02400300
v 0.07505300 0.00667300 -0.02400300
v 0.07505300 0.00267400 -0.02400300
v 0.07446700 0.00712300 -0.02400300
v 0.07446700 0.00222400 -0.02400300
v 0.07378500 0.00740500 -0.02400300
v 0.07378500 0.00194200 -0.02400300
v 0.07305300 0.00750200 -0.02400300
v 0.07305300 0.00184600 -0.02400300
v 0.07232100 0.00740500 -0.02400300
v 0.07232100 0.00194200 -0.02400300
v 0.07163900 0.00712300 -0.02400300
v 0.07163900 0.00222400 -0.02400300
v 0.07105300 0.00667300 -0.02400300
v 0.07105300 0.00267400 -0.02400300
v 0.07060400 0.00608800 -0.02400300
v 0.07060400 0.00326000 -0.02400300
v 0.07032100 0.00540500 -0.02400300
v 0.07032100 0.00394200 -0.02400300
v 0.07022500 0.00467400 -0.02400300
v 0.09085200 -0.00100200 0.01564500
v 0.09283200 -0.00090800 0.01729500
v 0.09147000 -0.00072900 0.01753400
v 0.09251300 -0.00123700 0.01525900
v 0.08997200 -0.00117600 0.01295300
v 0.09205000 -0.00148900 0.01229300
v 0.08850600 -0.00126200 0.00846200
v 0.09124300 -0.00170200 0.00713000
v 0.09117300 0.00105200 0.00668200
v 0.08838600 0.00131100 0.00807100
v 0.09248000 0.01069900 0.01504300
v 0.08993900 0.01054100 0.01274100
v 0.09082000 0.01046800 0.01543800
v 0.09201500 0.01084100 0.01207000
v 0.09280000 0.01044600 0.01709000
v 0.09143900 0.01026800 0.01733600
v 0.09153700 0.00806700 0.01765800
v 0.09285300 0.00816900 0.01743200
v 0.09159800 0.00477800 0.01787500
v 0.09288900 0.00477800 0.01765900
v 0.09287200 0.00137900 0.01755400
v 0.09155600 0.00148300 0.01777700
v 0.09113500 0.00457000 0.00643800
v 0.08832600 0.00458700 0.00785600
v 0.08847200 0.01045600 0.00825000
v 0.09120800 0.01086300 0.00690300
v 0.08836700 0.00786900 0.00795300
v 0.09115300 0.00809400 0.00655400
v 0.08785900 0.00059600 0.01329700
v 0.08977500 0.00045000 0.01347200
v 0.08805500 0.00060800 0.01389800
v 0.08950000 0.00043400 0.01263200
v 0.08921400 0.00465900 0.01171500
v 0.09003700 0.00470800 0.01423500
v 0.08947700 0.00891700 0.01247800
v 0.08975100 0.00893300 0.01331800
v 0.08783600 0.00877000 0.01314900
v 0.08803200 0.00878100 0.01375000
v 0.08999300 0.00043700 0.01413900
v 0.09049800 0.00063100 0.01454600
v 0.09016200 0.00063200 0.01465600
v 0.09032900 0.00043500 0.01402900
v 0.08981700 0.00031400 0.01360200
v 0.09015300 0.00031200 0.01349300
v 0.08963800 0.00026500 0.01305500
v 0.08997400 0.00026400 0.01294500
v 0.08945900 0.00029300 0.01250600
v 0.08979500 0.00029200 0.01239600
v 0.08928300 0.00039500 0.01196500
v 0.08961900 0.00039400 0.01185600
v 0.08911200 0.00057100 0.01144200
v 0.08944800 0.00057000 0.01133200
v 0.08895100 0.00081800 0.01094400
v 0.08928700 0.00081700 0.01083500
v 0.08880000 0.00113000 0.01048200
v 0.08913700 0.00112900 0.01037200
v 0.08866500 0.00150300 0.01006200
v 0.08900000 0.00150200 0.00995200
v 0.08888100 0.00193000 0.00958200
v 0.08854500 0.00193100 0.00969200
v 0.08878000 0.00240400 0.00926800
v 0.08844400 0.00240500 0.00937800
v 0.08869900 0.00291800 0.00901600
v 0.08836300 0.00291900 0.00912500
v 0.08864000 0.00346200 0.00882900
v 0.08830400 0.00346300 0.00893900
v 0.08860300 0.00402700 0.00871200
v 0.08826700 0.00402800 0.00882100
v 0.08859000 0.00460300 0.00866600
v 0.08825400 0.00460400 0.00877500
v 0.08826400 0.00518100 0.00880100
v 0.08860000 0.00518000 0.00869100
v 0.08829800 0.00575000 0.00889800
v 0.08863300 0.00574900 0.00878800
v 0.08835400 0.00630000 0.00906400
v 0.08869000 0.00629900 0.00895500
v 0.08843200 0.00682300 0.00929800
v 0.08876700 0.00682200 0.00918800
v 0.08853000 0.00731000 0.00959500
v 0.08886600 0.00730900 0.00948500
v 0.08864700 0.00775100 0.00994900
v 0.08898300 0.00775000 0.00983900
v 0.08911700 0.00813900 0.01024500
v 0.08878100 0.00814000 0.01035500
v 0.08926500 0.00846900 0.01069600
v 0.08892900 0.00847000 0.01080600
v 0.08942500 0.00873400 0.01118400
v 0.08908900 0.00873500 0.01129400
v 0.08959500 0.00892900 0.01170100
v 0.08925800 0.00893100 0.01181100
v 0.08977000 0.00905200 0.01223800
v 0.08943400 0.00905300 0.01234800
v 0.09047500 0.00879500 0.01439900
v 0.08996900 0.00897200 0.01398500
v 0.09013900 0.00879600 0.01450800
v 0.09030400 0.00897000 0.01387500
v 0.09063700 0.00854800 0.01489600
v 0.09030100 0.00854900 0.01500600
v 0.09078700 0.00823600 0.01535800
v 0.09045100 0.00823700 0.01546800
v 0.09092300 0.00786300 0.01577800
v 0.09058700 0.00786400 0.01588800
v 0.09070600 0.00743600 0.01625800
v 0.09104200 0.00743500 0.01614900
v 0.09080700 0.00696200 0.01657200
v 0.09114300 0.00696000 0.01646200
v 0.09088800 0.00644800 0.01682400
v 0.09122400 0.00644700 0.01671500
v 0.09094700 0.00590400 0.01701100
v 0.09128300 0.00590300 0.01690100
v 0.09098400 0.00533900 0.01712800
v 0.09132000 0.00533800 0.01701900
v 0.09099700 0.00476300 0.01717500
v 0.09133300 0.00476200 0.01706500
v 0.09132300 0.00418500 0.01704000
v 0.09098700 0.00418600 0.01714900
v 0.09129000 0.00361600 0.01694200
v 0.09095400 0.00361700 0.01705200
v 0.09123300 0.00306600 0.01677600
v 0.09089800 0.00306700 0.01688600
v 0.09115600 0.00254300 0.01654200
v 0.09082000 0.00254300 0.01665200
v 0.09105700 0.00205600 0.01624600
v 0.09072100 0.00205700 0.01635600
v 0.09094000 0.00161500 0.01589200
v 0.09060400 0.00161600 0.01600100
v 0.09047100 0.00122700 0.01559500
v 0.09080600 0.00122600 0.01548500
v 0.09032200 0.00089700 0.01514400
v 0.09065800 0.00089600 0.01503400
v 0.08994900 0.00910100 0.01278500
v 0.08961300 0.00910200 0.01289500
v 0.08979200 0.00907400 0.01344400
v 0.09012800 0.00907300 0.01333400
vn 0.01199031 -0.18521115 0.98262560
vn 0.05621902 -0.14619456 0.98765711
vn 0.18177730 -0.54532403 0.81827790
vn 0.00366890 -0.20574603 0.97859854
vn -0.10597831 -0.38211340 0.91801849
vn 0.08497508 -0.64474761 0.75965766
vn -0.01874905 -0.21086320 0.97733576
vn 0.00922341 -0.67180828 0.74066765
vn -0.03607358 -0.21453633 0.97604962
vn -0.05957723 -0.68085619 0.72999000
vn -0.05238208 -0.21435858 0.97534943
vn -0.11098972 -0.68367904 0.72129346
vn -0.07820012 -0.19700304 0.97727915
vn -0.15745865 -0.68162757 0.71455625
vn -0.10814112 -0.15169174 0.98249433
vn -0.23564931 -0.65348514 0.71932369
vn -0.14065129 -0.11046660 0.98387720
vn -0.35958486 -0.55018680 0.75365324
vn -0.16751543 -0.06646279 0.98362659
vn -0.49344127 -0.40400819 0.77025522
vn -0.19731516 -0.03416629 0.97974455
vn -0.59374271 -0.23490092 0.76960454
vn -0.20676362 -0.02085140 0.97816871
vn -0.65355048 -0.11164240 0.74860387
vn -0.20874727 -0.01407196 0.97786837
vn -0.66809765 -0.06731680 0.74102225
vn -0.07830977 0.19853879 0.97695953
vn -0.23581410 0.65279215 0.71989868
vn -0.05217227 0.21541121 0.97512874
vn -0.15742936 0.68147691 0.71470638
vn -0.03587172 0.21514784 0.97592245
vn -0.11071991 0.68373202 0.72128470
vn -0.01861302 0.21111873 0.97728319
vn -0.05927572 0.68074986 0.73011370
vn 0.00390368 0.20566337 0.97861501
vn 0.00957166 0.67175829 0.74070856
vn 0.03026377 0.18989151 0.98133853
vn 0.08502078 0.64474308 0.75965639
vn 0.05613667 0.14521447 0.98780637
vn 0.18206631 0.54555105 0.81806229
vn 0.07932505 0.11284451 0.99044114
vn 0.28115633 0.42925661 0.85830640
vn 0.09781090 0.08459454 0.99160314
vn 0.35557051 0.31949854 0.87834520
vn 0.11394903 0.05734731 0.99183008
vn 0.41440696 0.21003592 0.88552345
vn 0.13249305 0.03955658 0.99039430
vn 0.28096684 -0.42894961 0.85852191
vn -0.67247907 -0.04507298 0.73874240
vn -0.10865112 0.15311825 0.98221675
vn -0.35933875 0.54949268 0.75427678
vn 0.45714476 0.13688655 0.87879505
vn 0.07968448 -0.11368896 0.99031571
vn 0.44151843 -0.69192400 0.57122907
vn 0.26691260 -0.83852634 0.47500657
vn 0.11396428 -0.91888322 0.37771122
vn 0.01082040 -0.94133037 0.33731299
vn -0.08310151 -0.94413134 0.31892028
vn -0.15142372 -0.93882714 0.30931287
vn -0.21222288 -0.92882520 0.30371894
vn -0.31801571 -0.89580382 0.31048595
vn -0.50929410 -0.78975622 0.34191319
vn -0.71828858 -0.59319412 0.36356878
vn -0.86530155 -0.34291880 0.36559532
vn -0.92274915 -0.15734404 0.35181935
vn -0.21041108 -0.00722210 0.97758632
vn -0.93330764 -0.09418251 0.34650615
vn -0.14164950 0.11127184 0.98364323
vn -0.49318191 0.40326235 0.77081197
vn -0.50916297 0.78954143 0.34260386
vn -0.31799904 0.89563666 0.31098486
vn -0.21219385 0.92869654 0.30413237
vn -0.15125008 0.93875177 0.30962642
vn -0.08300437 0.94409327 0.31905826
vn 0.01086472 0.94133207 0.33730681
vn 0.11387821 0.91898497 0.37748958
vn 0.26691689 0.83889425 0.47435410
vn 0.44166511 0.69233490 0.57061749
vn 0.57334811 0.52384675 0.62996549
vn 0.13827889 0.02726421 0.99001799
vn 0.66826003 0.34181343 0.66075118
vn 0.35542907 -0.31917944 0.87851845
vn 0.57302300 -0.52340396 0.63062900
vn -0.67548902 -0.02274377 0.73701920
vn -0.93674645 -0.06274457 0.34433880
vn -0.16850075 0.06648779 0.98345659
vn -0.59367011 0.23417594 0.76988144
vn -0.71814278 0.59291100 0.36431786
vn 0.47205008 0.09283345 0.87667022
vn 0.71658172 0.21539561 0.66341192
vn 0.09836153 -0.08513287 0.99150260
vn 0.41411238 -0.20983878 0.88570798
vn 0.11454674 -0.05765067 0.99174364
vn 0.45692267 -0.13670433 0.87893891
vn 0.13309681 -0.03959583 0.99031177
vn 0.47191989 -0.09265183 0.87675952
vn 0.13870890 -0.02721038 0.98995931
vn 0.48229621 -0.04692281 0.87475060
vn 0.14268647 -0.01405499 0.98966814
vn 0.48945392 -0.01191217 0.87194779
vn 0.14678097 -0.00365472 0.98916227
vn 0.48946256 0.01201139 0.87194159
vn 0.14672539 0.00371040 0.98917031
vn 0.48233916 0.04712115 0.87471626
vn 0.14245628 0.01416040 0.98969980
vn 0.65414382 -0.60322304 0.45630891
vn 0.49415539 -0.78045204 0.38302097
vn 0.29013344 -0.91451909 0.28191741
vn 0.12067545 -0.97346489 0.19443133
vn 0.01037779 -0.98871747 0.14943251
vn -0.08819212 -0.98729460 0.13217988
vn -0.15904571 -0.97914211 0.12643253
vn -0.22254450 -0.96667515 0.12654287
vn -0.33525408 -0.93216169 0.13667218
vn -0.53975376 -0.82737027 0.15532003
vn -0.76090682 -0.62578747 0.17149591
vn -0.91456136 -0.36354572 0.17723439
vn -0.97056523 -0.16618765 0.17431234
vn -0.21253836 -0.00189274 0.97715089
vn -0.97998472 -0.09927653 0.17255178
vn -0.19783158 0.03396294 0.97964748
vn -0.65341841 0.11124877 0.74877773
vn -0.86515734 0.34270738 0.36613443
vn -0.76083257 0.62576869 0.17189343
vn -0.53975819 0.82729040 0.15572955
vn -0.33511689 0.93214906 0.13709414
vn -0.22262198 0.96655057 0.12735557
vn -0.15887710 0.97905555 0.12731180
vn -0.08838820 0.98723449 0.13249751
vn 0.00997691 0.98874722 0.14926283
vn 0.12070671 0.97350108 0.19423065
vn 0.29006060 0.91460326 0.28171923
vn 0.49426647 0.78047684 0.38282705
vn 0.65433939 0.60345646 0.45571950
vn 0.76844561 0.39786515 0.50119324
vn 0.66804810 -0.34153218 0.66111082
vn 0.76829599 -0.39781706 0.50146072
vn -0.67807923 -0.00584088 0.73496561
vn -0.93895478 -0.03150159 0.34259534
vn -0.98292164 -0.06611031 0.17173957
vn -0.20704173 0.02074749 0.97811209
vn -0.66805192 0.06727237 0.74106752
vn -0.92269376 0.15722525 0.35201769
vn -0.91447807 0.36355777 0.17763899
vn 0.73353843 0.14464532 0.66407763
vn 0.82012093 0.24790539 0.51569815
vn 0.71639071 -0.21526862 0.66365938
vn 0.73335753 -0.14456190 0.66429556
vn 0.74443033 -0.07254614 0.66374735
vn 0.74950680 -0.01822220 0.66174580
vn 0.74953541 0.01824816 0.66171269
vn 0.74451181 0.07263484 0.66364625
vn 0.79312558 -0.40696948 0.45313094
vn 0.67377832 -0.61489606 0.40978728
vn 0.50732037 -0.79120715 0.34149273
vn 0.29785490 -0.92148617 0.24929038
vn 0.12375040 -0.97785457 0.16877876
vn 0.01164355 -0.99189098 0.12655718
vn -0.08899983 -0.98980044 0.11123902
vn -0.16076531 -0.98120601 0.10672060
vn -0.22428632 -0.96849279 0.10824680
vn -0.33842660 -0.93353669 0.11822301
vn -0.54419410 -0.82781286 0.13630355
vn -0.76537096 -0.62528213 0.15241241
vn -0.91815738 -0.36287778 0.15908093
vn -0.97356890 -0.16553219 0.15736163
vn -0.98276161 -0.09896842 0.15615654
vn -0.21387661 0.00000000 0.97686068
vn -0.20887439 0.01408018 0.97784111
vn -0.67245112 0.04495486 0.73877504
vn -0.21053768 0.00718812 0.97755932
vn -0.67541055 0.02277324 0.73709020
vn -0.21259184 0.00184821 0.97713934
vn -0.67807938 0.00575747 0.73496613
vn -0.67939923 0.00000000 0.73376882
vn -0.41785530 0.00000000 0.90851359
vn -0.93325224 0.09421421 0.34664671
vn -0.97052088 0.16628755 0.17446396
vn -0.91811353 0.36299705 0.15906188
vn -0.76532208 0.62534436 0.15240255
vn -0.54420104 0.82781096 0.13628734
vn -0.33814196 0.93363967 0.11822429
vn -0.22442859 0.96845770 0.10826581
vn -0.16056808 0.98123550 0.10674636
vn -0.08945048 0.98976623 0.11118195
vn 0.01090119 0.99192320 0.12637060
vn 0.12416801 0.97777362 0.16894095
vn 0.29777814 0.92152567 0.24923605
vn 0.50729385 0.79122809 0.34148360
vn 0.67377532 0.61486619 0.40983703
vn 0.79309456 0.40699268 0.45316440
vn 0.81999579 -0.24787060 0.51591382
vn 0.84603794 -0.25391496 0.46877180
vn -0.98560860 -0.06616008 0.15555878
vn -0.93991863 -0.00797894 0.34130530
vn -0.98473584 -0.03322540 0.17085489
vn -0.93673596 0.06265989 0.34438275
vn -0.97997523 0.09926998 0.17260943
vn -0.97355185 0.16565739 0.15733541
vn 0.83750773 0.16613004 0.52055895
vn 0.84605238 0.25384397 0.46878419
vn 0.83739737 -0.16614605 0.52073135
vn 0.84822352 -0.08340140 0.52303066
vn 0.85217102 -0.02090054 0.52284578
vn 0.85218172 0.02087797 0.52282925
vn 0.84826157 0.08337456 0.52297322
vn 0.84652196 -0.25201095 0.46892541
vn 0.79420999 -0.40439602 0.45353539
vn 0.67586739 -0.61201829 0.41065421
vn 0.50995975 -0.78900303 0.34265913
vn 0.29987302 -0.92057368 0.25024044
vn 0.12508176 -0.97757939 0.16939032
vn 0.01191415 -0.99187511 0.12665628
vn -0.09059098 -0.98967484 0.11107201
vn -0.16272829 -0.98089587 0.10659643
vn -0.22599656 -0.96809502 0.10824782
vn -0.34081917 -0.93264162 0.11841408
vn -0.54709726 -0.82585959 0.13653028
vn -0.76772226 -0.62235907 0.15255070
vn -0.91911589 -0.36044370 0.15907961
vn -0.97377635 -0.16437192 0.15729426
vn -0.98285965 -0.09804225 0.15612377
vn -0.93894211 0.03146003 0.34263388
vn -0.93989126 0.00800166 0.34138012
vn -0.94015980 0.00000000 0.34073384
vn -0.98291142 0.06615286 0.17178167
vn -0.98275805 0.09897914 0.15617218
vn -0.97375297 0.16449085 0.15731472
vn -0.91904107 0.36063690 0.15907401
vn -0.76768854 0.62240164 0.15254672
vn -0.54708952 0.82586018 0.13655776
vn -0.34044418 0.93277675 0.11842840
vn -0.22619468 0.96804473 0.10828377
vn -0.16248268 0.98093188 0.10663966
vn -0.09105908 0.98964085 0.11099204
vn 0.01109422 0.99191302 0.12643370
vn 0.12555298 0.97748639 0.16957831
vn 0.29980250 0.92061326 0.25017930
vn 0.50992343 0.78903006 0.34265094
vn 0.67588305 0.61197454 0.41069364
vn 0.79417368 0.40447084 0.45353225
vn 0.86405124 -0.17027699 0.47373116
vn 0.86426047 -0.16898341 0.47381267
vn -0.98565523 -0.06544472 0.15556590
vn -0.98736982 -0.03287198 0.15498474
vn -0.98531089 -0.00832236 0.17056724
vn -0.98473829 0.03311985 0.17086129
vn -0.98560187 0.06618092 0.15559257
vn -0.98286264 0.09801486 0.15612210
vn 0.86406066 0.17020209 0.47374089
vn 0.84653962 0.25193086 0.46893657
vn 0.87515146 -0.08554925 0.47622604
vn 0.87893627 -0.02143411 0.47645735
vn 0.87893768 0.02139345 0.47645658
vn 0.87516065 0.08548794 0.47622017
vn 0.85473848 -0.16652775 0.49162043
vn 0.83568721 -0.24781296 0.49011797
vn 0.78112675 -0.39790628 0.48115652
vn 0.66296653 -0.59947990 0.44844090
vn 0.49998526 -0.77255259 0.39137864
vn 0.29463100 -0.90424748 0.30907779
vn 0.12415988 -0.96402566 0.23502946
vn 0.01065311 -0.97969584 0.20020634
vn -0.09189167 -0.97807755 0.18686955
vn -0.16302211 -0.96971358 0.18187733
vn -0.22574401 -0.95739968 0.18007082
vn -0.34079241 -0.92137028 0.18691533
vn -0.54440688 -0.81274265 0.20753443
vn -0.75948331 -0.61104391 0.22318253
vn -0.90737707 -0.35449712 0.22582880
vn -0.96187485 -0.16162704 0.22062066
vn -0.97116017 -0.09608838 0.21820848
vn -0.97408405 -0.06442627 0.21681680
vn -0.98737521 -0.03283510 0.15495824
vn -0.98531498 0.00840237 0.17053970
vn -0.98537452 0.00000000 0.17040260
vn -0.98737456 0.03287117 0.15495473
vn -0.98565548 0.06547883 0.15555000
vn -0.97120729 0.09613275 0.21797913
vn -0.96198030 0.16154881 0.22021782
vn -0.90760078 0.35448756 0.22494309
vn -0.75973806 0.61120047 0.22188298
vn -0.54445137 0.81305073 0.20620674
vn -0.34062232 0.92170615 0.18556457
vn -0.22574053 0.95758072 0.17910995
vn -0.16280401 0.96990201 0.18106613
vn -0.09214306 0.97814820 0.18637528
vn 0.01035093 0.97969196 0.20024117
vn 0.12463729 0.96377987 0.23578361
vn 0.29470431 0.90398409 0.30977756
vn 0.49991132 0.77211048 0.39234435
vn 0.66264628 0.59914589 0.44935967
vn 0.78072816 0.39772366 0.48195376
vn 0.87518477 -0.08488706 0.47628333
vn 0.86671868 -0.08379275 0.49170876
vn -0.97592615 -0.03233871 0.21569040
vn -0.98795401 -0.00804622 0.15453843
vn -0.98795867 0.00805787 0.15450807
vn -0.98737243 0.03284591 0.15497366
vn -0.97412014 0.06433484 0.21668176
vn 0.86427656 0.16890886 0.47380990
vn 0.83530153 0.24777569 0.49079381
vn 0.87890869 -0.02126439 0.47651583
vn 0.87890967 0.02122454 0.47651581
vn 0.87519620 0.08479846 0.47627809
vn 0.79162919 -0.07695731 0.60613595
vn 0.77699436 -0.15226344 0.61081552
vn 0.75466556 -0.22518552 0.61625593
vn 0.69935118 -0.35807331 0.61862059
vn 0.58846584 -0.53524374 0.60598853
vn 0.44396628 -0.69059389 0.57094134
vn 0.26483671 -0.81893944 0.50911660
vn 0.11438340 -0.88732085 0.44674170
vn 0.00931448 -0.90437961 0.42662720
vn -0.08533291 -0.90461631 0.41759745
vn -0.15081130 -0.89881743 0.41156188
vn -0.20960760 -0.89095162 0.40282735
vn -0.31679867 -0.85829103 0.40370176
vn -0.50083458 -0.74987896 0.43225717
vn -0.69425651 -0.56108398 0.45076897
vn -0.83181923 -0.32683036 0.44861865
vn -0.88566098 -0.15017792 0.43937595
vn -0.89590413 -0.08948298 0.43514203
vn -0.89969495 -0.06003470 0.43237118
vn -0.98795984 -0.00814636 0.15449595
vn -0.98800987 0.00000000 0.15439072
vn -0.98795737 0.00814685 0.15451170
vn -0.97593324 0.03237598 0.21565273
vn -0.89976984 0.05985222 0.43224061
vn -0.89600339 0.08944681 0.43494505
vn -0.88602710 0.14962488 0.43882613
vn -0.83253413 0.32631666 0.44766545
vn -0.69488107 0.56132406 0.44950595
vn -0.50075331 0.75075700 0.43082485
vn -0.31672837 0.85898459 0.40227927
vn -0.20905399 0.89153240 0.40182883
vn -0.15024902 0.89920076 0.41092971
vn -0.08495681 0.90471024 0.41747063
vn 0.00980900 0.90432767 0.42672619
vn 0.11463738 0.88693630 0.44743968
vn 0.26515714 0.81820337 0.51013228
vn 0.44387151 0.68989136 0.57186362
vn 0.58797811 0.53493766 0.60673178
vn 0.69882922 0.35788801 0.61931728
vn 0.87087918 -0.02101436 0.49104770
vn 0.79681100 -0.01929903 0.60392034
vn -0.90223855 -0.03008771 0.43018640
vn -0.97659094 -0.00800885 0.21495577
vn -0.98801436 0.00000000 0.15436198
vn -0.97660057 0.00798393 0.21491299
vn -0.90226784 0.03008593 0.43012507
vn 0.85449337 0.16648481 0.49206086
vn 0.75403871 0.22536780 0.61695622
vn 0.87085211 0.02102503 0.49109526
vn 0.86658051 0.08383495 0.49194504
vn 0.53773927 -0.01302719 0.84301054
vn 0.53375876 -0.05220987 0.84402353
vn 0.51920741 -0.10302565 0.84841581
vn 0.49814190 -0.15085924 0.85387126
vn 0.45914924 -0.23789451 0.85591365
vn 0.37968593 -0.35400355 0.85470467
vn 0.28501300 -0.46051520 0.84065055
vn 0.16970835 -0.56240979 0.80925540
vn 0.07450013 -0.62259464 0.77899014
vn 0.00555717 -0.63266380 0.77440664
vn -0.05867240 -0.63359512 0.77143682
vn -0.10341823 -0.63171527 0.76827110
vn -0.14449429 -0.63479215 0.75905226
vn -0.21827402 -0.61941110 0.75411295
vn -0.34121089 -0.53439475 0.77330290
vn -0.47268942 -0.39365797 0.78841494
vn -0.57345919 -0.22880285 0.78663449
vn -0.61066579 -0.10523026 0.78486552
vn -0.61832707 -0.06292141 0.78339807
vn -0.62281816 -0.04211585 0.78123223
vn -0.62610087 -0.02101798 0.77945875
vn -0.90326536 -0.00757120 0.42901558
vn -0.97666535 0.00000000 0.21476685
vn -0.90326294 0.00752054 0.42902157
vn -0.62615082 0.02093874 0.77942076
vn -0.62288342 0.04198695 0.78118714
vn -0.61835997 0.06282048 0.78338020
vn -0.61105237 0.10438594 0.78467737
vn -0.57410941 0.22782513 0.78644396
vn -0.47315846 0.39338565 0.78826950
vn -0.34131054 0.53497729 0.77285601
vn -0.21921846 0.62017674 0.75320918
vn -0.14340449 0.63656414 0.75777387
vn -0.10230580 0.63274607 0.76757146
vn -0.05782714 0.63401211 0.77115801
vn 0.00671899 0.63250989 0.77452314
vn 0.07433311 0.62217074 0.77934470
vn 0.16991684 0.56204466 0.80946530
vn 0.28508343 0.46073876 0.84050415
vn 0.37978918 0.35442639 0.85448354
vn 0.45925625 0.23784636 0.85586962
vn 0.79674055 0.01947389 0.60400766
vn 0.53767461 0.01332283 0.84304716
vn -0.62697320 -0.00525400 0.77902310
vn -0.90333878 0.00000000 0.42892778
vn -0.62699614 0.00520740 0.77900496
vn 0.77653786 0.15253933 0.61132700
vn 0.49772083 0.15109028 0.85407594
vn 0.79139268 0.07729596 0.60640165
vn 0.16593188 0.00429152 0.98612788
vn 0.16577691 -0.00412112 0.98615467
vn 0.16521099 -0.01692231 0.98611306
vn 0.15836232 -0.03358556 0.98680970
vn 0.14917301 -0.04860877 0.98761561
vn 0.13813988 -0.07753848 0.98737286
vn 0.10951985 -0.11419957 0.98740258
vn 0.07943518 -0.14806727 0.98578199
vn 0.04468626 -0.18525658 0.98167364
vn 0.01916217 -0.20281590 0.97902938
vn 0.00121919 -0.20115544 0.97955858
vn -0.01750336 -0.20174199 0.97928229
vn -0.03058389 -0.20182203 0.97894458
vn -0.04254466 -0.20899190 0.97699147
vn -0.06377754 -0.21477785 0.97457832
vn -0.10206196 -0.18870698 0.97671543
vn -0.14613978 -0.13759933 0.97964769
vn -0.18423660 -0.07987713 0.97963081
vn -0.19166721 -0.03537680 0.98082219
vn -0.19201666 -0.02120840 0.98116248
vn -0.19428638 -0.01413965 0.98084294
vn -0.19583280 -0.00694246 0.98061272
vn -0.62650909 0.00000000 0.77941411
vn -0.19564497 0.00167230 0.98067336
vn -0.19568975 0.00689226 0.98064164
vn -0.19399779 0.01405745 0.98090124
vn -0.19156977 0.02112541 0.98125162
vn -0.19078179 0.03467195 0.98101996
vn -0.18216494 0.07804059 0.98016611
vn -0.14366677 0.13453006 0.98043945
vn -0.10045901 0.18507957 0.97757534
vn -0.06467759 0.20980503 0.97560169
vn -0.04249339 0.20604530 0.97761938
vn -0.03008349 0.20020960 0.97929112
vn -0.01690551 0.20096652 0.97945223
vn 0.00203751 0.20118011 0.97955215
vn 0.01869316 0.20404967 0.97878205
vn 0.04515126 0.18654448 0.98140844
vn 0.08038361 0.14989211 0.98542926
vn 0.11089216 0.11581677 0.98706099
vn 0.14014122 0.07835807 0.98702606
vn 0.53350060 0.05269600 0.84415652
vn 0.16584518 0.01728818 0.98600025
vn -0.19568281 -0.00170738 0.98066575
vn -0.38209016 0.00000000 0.92412505
vn 0.51882620 0.10346046 0.84859608
vn 0.15091238 0.04931217 0.98731645
vn 0.15962224 0.03405322 0.98659065
vn 0.00000000 -0.99990214 -0.01398939
vn 0.00000000 -0.69714486 -0.71693030
vn 0.17468305 -0.74366024 0.64533346
vn -0.17468306 -0.74366028 0.64533342
vn -0.58511328 -0.53169422 0.61232647
vn -0.83724864 -0.43229514 0.33486658
vn 0.67885513 -0.19023164 0.70920211
vn -0.68052813 -0.70627779 0.19507217
vn 0.67881296 -0.63594175 0.36713901
vn -0.67881296 -0.63594175 0.36713901
vn 0.68052813 -0.70627779 0.19507217
vn 0.67884190 -0.51899420 0.51944076
vn -0.67884190 -0.51899420 0.51944076
vn -0.67900462 -0.36709505 0.63576249
vn 0.67900462 -0.36709505 0.63576249
vn 0.69283066 -0.04685754 0.71957629
vn 0.57735027 0.57735027 0.57735027
vn -0.57735027 0.57735027 0.57735027
vn 0.04710150 -0.73188796 0.67979516
vn -0.04710150 -0.73188796 0.67979516
vn -0.00583833 -0.71565763 -0.69842685
vn 0.00583260 -0.71565381 -0.69843082
vn 0.57735027 0.57735027 -0.57735027
vn -0.57735027 0.57735027 -0.57735027
vn 0.04525695 -0.72213320 0.69027201
vn -0.04718676 -0.69267365 0.71970593
vn 0.04718676 -0.69267365 0.71970593
vn -0.17471657 -0.73768113 0.65215081
vn -0.19000803 -0.67889068 0.70922803
vn -0.36707447 -0.67886827 0.63591997
vn 0.19000803 -0.67889068 0.70922803
vn 0.36707447 -0.67886827 0.63591997
vn -0.51909620 -0.67889651 0.51926743
vn 0.51909620 -0.67889651 0.51926743
vn -0.59966488 -0.69264828 0.40079970
vn 0.59966488 -0.69264828 0.40079970
vn -0.57519385 -0.72212214 0.38430672
vn 0.57519385 -0.72212214 0.38430672
vn -0.47723435 -0.73776614 0.47743952
vn 0.47723435 -0.73776614 0.47743952
vn -0.33759129 -0.73759495 0.58479553
vn 0.33759129 -0.73759495 0.58479553
vn -0.57509701 -0.72216070 0.38437918
vn -0.59529333 -0.68637012 0.41775820
vn -0.69430798 -0.71685070 0.06372995
vn -0.57574762 -0.58697648 -0.56918652
vn 0.69430823 -0.71685035 0.06373112
vn 0.57575009 -0.58697128 -0.56918938
vn 0.00513420 -0.99940674 0.03405610
vn 0.04645351 -0.68186110 0.73000514
vn 0.18792831 -0.66763389 0.72038041
vn 0.36339133 -0.66890485 0.64846977
vn 0.51491714 -0.67064327 0.53394564
vn -0.59527933 -0.68627957 0.41792687
vn -0.51504684 -0.67058705 0.53389115
vn -0.47723435 -0.73776614 0.47743952
vn -0.36333910 -0.66902401 0.64837611
vn -0.33741188 -0.73765547 0.58482274
vn -0.18786924 -0.66781517 0.72022778
vn -0.51491714 -0.67064327 0.53394564
vn -0.36339133 -0.66890485 0.64846977
vn -0.18792267 -0.66763462 0.72038121
vn -0.04640453 -0.68215283 0.72973566
vn -0.00518578 -0.99940682 0.03404571
vn 0.59963997 -0.69265765 0.40082076
vn 0.59531609 -0.68633226 0.41778795
vn 0.56957322 -0.71585261 0.40390765
vn 0.57531216 -0.72206173 0.38424313
vn 0.36333910 -0.66902401 0.64837611
vn 0.17471657 -0.73768113 0.65215081
vn 0.18781125 -0.66783135 0.72022790
vn 0.33741188 -0.73765547 0.58482274
vn 0.04525695 -0.72213320 0.69027201
vn 0.04643565 -0.68142410 0.73041422
vn 0.57735027 -0.57735027 0.57735027
vn 0.29389476 -0.89813050 0.32708940
vn 0.00497962 -0.99972255 0.02302248
vn 0.33750916 -0.73770744 0.58470103
vn 0.47732920 -0.73767428 0.47748664
vn 0.17471657 -0.73768113 0.65215081
vn -0.04525695 -0.72213320 0.69027201
vn -0.33750916 -0.73770744 0.58470103
vn -0.47732920 -0.73767428 0.47748664
vn -0.60949791 -0.70681285 0.35906531
vn -0.04525695 -0.72213320 0.69027201
vn -0.17471657 -0.73768113 0.65215081
vn -0.57518946 -0.72211649 0.38432391
vn -0.56957666 -0.71585732 0.40389446
vn -0.59965102 -0.69265349 0.40081141
vn -0.47096859 -0.73012926 0.49507559
vn -0.51915961 -0.67893049 0.51915961
vn -0.36727426 -0.67886449 0.63580863
vn -0.33216067 -0.72844192 0.59920086
vn -0.18994194 -0.67880517 0.70932757
vn -0.17151817 -0.72781963 0.66397297
vn -0.04698983 -0.69273160 0.71966304
vn -0.04432739 -0.71135654 0.70143208
vn 0.04698983 -0.69273160 0.71966304
vn 0.04432739 -0.71135654 0.70143208
vn 0.18994194 -0.67880517 0.70932757
vn 0.17151817 -0.72781963 0.66397297
vn 0.36727426 -0.67886449 0.63580863
vn 0.33216067 -0.72844192 0.59920086
vn 0.60949791 -0.70681285 0.35906531
vn 0.59529333 -0.68637012 0.41775820
vn -0.29388232 -0.89813062 0.32710024
vn -0.00498170 -0.99972250 0.02302404
vn 0.47096859 -0.73012926 0.49507559
vn 0.51518933 -0.67054394 0.53380781
vn -0.04652044 -0.68062241 0.73115593
vn -0.57735027 -0.57735027 0.57735027
vn 0.51915961 -0.67893049 0.51915961
vn 0.57509701 -0.72216070 0.38437918
vn 0.47729677 -0.73781813 0.47729677
vn 0.00000000 0.00000000 1.00000000
vn 0.00000000 0.00000000 1.00000000
vn 0.00000000 0.00000000 1.00000000
vn 0.00000000 0.00000000 1.00000000
vn 0.00000000 0.00000000 1.00000000
vn 0.00000000 0.00000000 1.00000000
vn 0.00000000 0.00000000 1.00000000
vn 0.00000000 0.00000000 1.00000000
vn 0.00000000 0.00000000 1.00000000
vn 0.00000000 0.00000000 1.00000000
vn 0.00000000 0.00000000 1.00000000
vn 0.00000000 0.00000000 1.00000000
vn 0.00000000 0.00000000 1.00000000
vn 0.00000000 0.00000000 1.00000000
vn 0.00000000 0.00000000 1.00000000
vn 0.00000000 0.00000000 1.00000000
vn 0.00000000 0.00000000 1.00000000
vn 0.00000000 0.00000000 1.00000000
vn 0.00000000 0.00000000 1.00000000
vn 0.00000000 0.00000000 1.00000000
vn 0.00000000 0.00000000 1.00000000
vn 0.00000000 0.00000000 1.00000000
vn 0.00000000 0.00000000 1.00000000
vn 0.00000000 0.00000000 1.00000000
vn 0.00000000 0.00000000 1.00000000
vn 0.00000000 0.00000000 1.00000000
vn 0.00000000 0.00000000 1.00000000
vn 0.00000000 0.00000000 1.00000000
vn 0.00000000 0.00000000 1.00000000
vn 0.00000000 0.00000000 1.00000000
vn 0.00000000 0.00000000 1.00000000
vn 0.00000000 0.00000000 1.00000000
vn 0.00000000 0.00000000 1.00000000
vn 0.00000000 0.00000000 1.00000000
vn 0.00000000 0.00000000 1.00000000
vn 0.00000000 0.00000000 1.00000000
vn 0.00000000 0.00000000 1.00000000
vn 0.00000000 0.00000000 1.00000000
vn 0.00000000 0.00000000 1.00000000
vn 0.00000000 0.00000000 1.00000000
vn 0.00000000 0.00000000 1.00000000
vn 0.00000000 0.00000000 1.00000000
vn 0.00000000 0.00000000 1.00000000
vn 0.00000000 0.00000000 1.00000000
vn 0.00000000 0.00000000 1.00000000
vn 0.00000000 0.00000000 1.00000000
vn 0.00000000 0.00000000 1.00000000
vn 0.00000000 0.00000000 1.00000000
vn 0.00000000 0.00000000 1.00000000
vn 0.00000000 0.00000000 1.00000000
vn 0.00000000 0.00000000 1.00000000
vn 0.00000000 0.00000000 1.00000000
vn 0.00000000 0.00000000 1.00000000
vn 0.00000000 0.00000000 1.00000000
vn 0.00000000 0.00000000 1.00000000
vn 0.00000000 0.00000000 1.00000000
vn 0.00000000 0.00000000 1.00000000
vn 0.00000000 0.00000000 1.00000000
vn 0.00000000 0.00000000 1.00000000
vn 0.00000000 0.00000000 1.00000000
vn 0.00000000 0.00000000 1.00000000
vn 0.00000000 0.00000000 1.00000000
vn 0.00000000 0.00000000 1.00000000
vn 0.00000000 0.00000000 1.00000000
vn 0.00000000 0.00000000 1.00000000
vn 0.00000000 0.00000000 1.00000000
vn 0.00000000 0.00000000 1.00000000
vn 0.00000000 0.00000000 1.00000000
vn 0.00000000 0.00000000 1.00000000
vn 0.00000000 0.00000000 1.00000000
vn 0.00000000 0.00000000 1.00000000
vn 0.00000000 0.00000000 1.00000000
vn -0.69286733 -0.65836283 0.29409734
vn 0.02813217 -0.71661191 0.69690455
vn -0.46508572 -0.52460574 0.71308070
vn -0.10782605 -0.98483697 0.13590324
vn -0.70704933 -0.65817997 0.25861241
vn -0.12365604 -0.98912878 0.07958288
vn -0.77563773 -0.57871139 -0.25195086
vn -0.39741695 -0.70917155 -0.58235339
vn -0.45160834 -0.11199142 -0.88515977
vn -0.91751462 -0.07097396 -0.39131779
vn -0.11360250 0.98844950 0.10030984
vn -0.71147786 0.66223902 0.23502921
vn -0.69614228 0.66519024 0.27001457
vn -0.12900820 0.99067800 0.04374902
vn 0.02388498 0.74169321 0.67031387
vn -0.46790343 0.54752306 0.69374699
vn -0.50950021 0.07377350 0.85730217
vn 0.15992875 0.11119769 0.98084549
vn -0.50489727 0.01407585 0.86306467
vn 0.16499106 0.01820021 0.98612712
vn 0.16090087 -0.07473681 0.98413684
vn -0.50894335 -0.04562822 0.85958986
vn -0.45074574 -0.01742253 -0.89248234
vn -0.91740263 -0.00982395 -0.39783904
vn -0.77889970 0.56479324 -0.27262401
vn -0.40107483 0.68563608 -0.60748839
vn -0.91795775 0.05139826 -0.39333419
vn -0.45227522 0.07730816 -0.88852157
vn -0.85677378 -0.46956304 -0.21318828
vn 0.68571437 -0.64147706 0.34395201
vn -0.56104909 -0.45159539 0.69374745
vn 0.35744262 -0.66072119 -0.66006233
vn -0.07994726 -0.01798945 -0.99663675
vn 0.52370616 0.01667254 0.85173581
vn 0.35426314 0.63822648 -0.68349439
vn 0.68191703 0.65741672 0.32061257
vn -0.85946083 0.45657458 -0.22992769
vn -0.56367534 0.47325577 0.67697791
vn -0.59859954 -0.69128379 0.40472869
vn 0.12126527 -0.91690171 0.38024464
vn -0.57065993 -0.65973602 0.48897405
vn 0.08074721 -0.96101465 0.26444420
vn -0.62901867 -0.70917557 0.31844233
vn 0.04116239 -0.98882275 0.14330118
vn -0.65815137 -0.71743382 0.22831006
vn 0.00268390 -0.99984696 0.01728760
vn -0.68695696 -0.71333227 0.13873429
vn -0.03768194 -0.99361614 -0.10633455
vn -0.71276140 -0.69962882 0.04990698
vn -0.07713171 -0.97050780 -0.22839727
vn -0.74345527 -0.66784855 -0.03539170
vn -0.11631873 -0.93044210 -0.34748735
vn -0.76747109 -0.63029591 -0.11711191
vn -0.15207952 -0.87468278 -0.46021935
vn -0.79377494 -0.57724223 -0.19160570
vn -0.18661596 -0.80457799 -0.56376301
vn -0.81519250 -0.51729437 -0.26051433
vn -0.21852944 -0.71971669 -0.65897859
vn -0.24513572 -0.62308851 -0.74274436
vn -0.83503658 -0.44730941 -0.32035637
vn -0.26796897 -0.51561973 -0.81383593
vn -0.85135453 -0.36994217 -0.37193853
vn -0.28431983 -0.39975396 -0.87141207
vn -0.86404753 -0.28644945 -0.41396687
vn -0.29938827 -0.27576505 -0.91341135
vn -0.87437031 -0.19692040 -0.44350751
vn -0.30599919 -0.14828993 -0.94041193
vn -0.87963579 -0.10518364 -0.46387204
vn -0.30902155 -0.01755527 -0.95089300
vn -0.88181920 -0.01047279 -0.47147134
vn -0.88088233 0.08339214 -0.46593141
vn -0.30900724 0.11226483 -0.94441047
vn -0.87557171 0.17607372 -0.44985800
vn -0.30154266 0.24121132 -0.92243651
vn -0.86559374 0.26659036 -0.42388330
vn -0.28665362 0.36649611 -0.88516118
vn -0.85368679 0.35073221 -0.38497504
vn -0.27162800 0.48365845 -0.83204130
vn -0.83771512 0.43018152 -0.33641824
vn -0.24859390 0.59444554 -0.76474543
vn -0.81836357 0.50259926 -0.27870245
vn -0.22210767 0.69410970 -0.68474806
vn -0.19181294 0.78201424 -0.59301056
vn -0.79644013 0.56609736 -0.21264264
vn -0.15819040 0.85668358 -0.49098781
vn -0.77262225 0.61944850 -0.13906261
vn -0.12161937 0.91702728 -0.37982851
vn -0.74623301 0.66304845 -0.05918653
vn -0.08104612 0.96108197 -0.26410790
vn -0.71830617 0.69528966 0.02466847
vn -0.04308224 0.98889378 -0.14224280
vn -0.68988464 0.71501861 0.11317049
vn 0.11623572 0.93040146 0.34762392
vn -0.60074908 0.70392179 0.37893886
vn -0.57481214 0.67272401 0.46586845
vn 0.07969907 0.97069136 0.22672966
vn 0.15294789 0.87471052 0.45987874
vn -0.54820854 0.63286697 0.54676027
vn 0.18702479 0.80434251 0.56396353
vn -0.52368047 0.58220417 0.62193012
vn 0.21758352 0.71980757 0.65919229
vn -0.50094186 0.52173310 0.69054458
vn -0.48291186 0.45142470 0.75034117
vn 0.24364812 0.62315884 0.74317471
vn -0.46486898 0.37359263 0.80269881
vn 0.26887341 0.51488829 0.81400070
vn -0.45300591 0.29049265 0.84285210
vn 0.28430350 0.40005738 0.87127815
vn -0.44268249 0.20075982 0.87391516
vn 0.29937020 0.27578909 0.91341002
vn -0.43737262 0.10958433 0.89257855
vn 0.30597404 0.14906977 0.94029681
vn -0.43462234 0.01522513 0.90048410
vn 0.31112961 0.01811107 0.95019490
vn 0.30672414 -0.11344628 0.94501336
vn -0.43705835 -0.08008899 0.89586034
vn 0.30084315 -0.24137322 0.92262255
vn -0.44119677 -0.17210768 0.88075215
vn 0.28923603 -0.36569914 0.88465058
vn -0.45001354 -0.26178407 0.85378973
vn 0.27224147 -0.48372129 0.83180424
vn -0.46256543 -0.34713075 0.81580234
vn 0.24892407 -0.59411947 0.76489141
vn -0.47970871 -0.42617552 0.76697717
vn 0.22091062 -0.69442225 0.68481839
vn -0.49952042 -0.49879902 0.70829294
vn -0.51971265 -0.56310076 0.64250782
vn 0.19206536 -0.78247626 0.59231901
vn -0.54495594 -0.61529755 0.56958928
vn 0.15816864 -0.85672548 0.49092172
vn -0.00299607 0.99982913 -0.01824098
vn -0.65854506 0.72514176 0.20121588
vn -0.63289185 0.71670960 0.29287414
vn 0.03798077 0.99353528 0.10698185
f 1//1 2//2 3//3
f 4//4 5//5 6//6
f 7//7 4//4 8//8
f 9//9 7//7 10//10
f 11//11 9//9 12//12
f 13//13 11//11 14//14
f 15//15 13//13 16//16
f 17//17 15//15 18//18
f 19//19 17//17 20//20
f 21//21 19//19 22//22
f 23//23 21//21 24//24
f 25//25 23//23 26//26
f 27//27 28//28 29//29
f 29//29 30//30 31//31
f 31//31 32//32 33//33
f 33//33 34//34 35//35
f 36//36 37//37 35//35
f 38//38 39//39 37//37
f 40//40 41//41 39//39
f 42//42 43//43 41//41
f 44//44 45//45 43//43
f 46//46 47//47 45//45
f 3//3 2//2 48//48
f 1//1 6//6 5//5
f 6//6 1//1 3//3
f 8//8 4//4 6//6
f 7//7 8//8 10//10
f 9//9 10//10 12//12
f 11//11 12//12 14//14
f 13//13 14//14 16//16
f 15//15 16//16 18//18
f 17//17 18//18 20//20
f 19//19 20//20 22//22
f 21//21 22//22 24//24
f 23//23 24//24 26//26
f 25//25 26//26 49//49
f 50//50 51//51 27//27
f 51//51 28//28 27//27
f 28//28 30//30 29//29
f 30//30 32//32 31//31
f 32//32 34//34 33//33
f 34//34 36//36 35//35
f 36//36 38//38 37//37
f 38//38 40//40 39//39
f 40//40 42//42 41//41
f 42//42 44//44 43//43
f 44//44 46//46 45//45
f 46//46 52//52 47//47
f 48//48 2//2 53//53
f 3//3 48//48 54//54
f 3//3 55//55 6//6
f 8//8 6//6 56//56
f 8//8 57//57 10//10
f 12//12 10//10 58//58
f 12//12 59//59 14//14
f 14//14 60//60 16//16
f 16//16 61//61 18//18
f 18//18 62//62 20//20
f 20//20 63//63 22//22
f 22//22 64//64 24//24
f 24//24 65//65 26//26
f 66//66 25//25 49//49
f 26//26 67//67 49//49
f 68//68 69//69 50//50
f 69//69 51//51 50//50
f 51//51 70//70 28//28
f 28//28 71//71 30//30
f 30//30 72//72 32//32
f 32//32 73//73 34//34
f 34//34 74//74 36//36
f 36//36 75//75 38//38
f 38//38 76//76 40//40
f 40//40 77//77 42//42
f 78//78 44//44 42//42
f 79//79 46//46 44//44
f 52//52 80//80 47//47
f 81//81 52//52 46//46
f 48//48 53//53 82//82
f 54//54 48//48 83//83
f 3//3 54//54 55//55
f 6//6 55//55 56//56
f 8//8 56//56 57//57
f 10//10 57//57 58//58
f 12//12 58//58 59//59
f 14//14 59//59 60//60
f 16//16 60//60 61//61
f 18//18 61//61 62//62
f 20//20 62//62 63//63
f 63//63 64//64 22//22
f 64//64 65//65 24//24
f 65//65 67//67 26//26
f 66//66 49//49 84//84
f 67//67 85//85 49//49
f 86//86 87//87 68//68
f 87//87 69//69 68//68
f 69//69 88//88 51//51
f 51//51 88//88 70//70
f 28//28 70//70 71//71
f 30//30 71//71 72//72
f 32//32 72//72 73//73
f 34//34 73//73 74//74
f 36//36 74//74 75//75
f 38//38 75//75 76//76
f 40//40 76//76 77//77
f 42//42 77//77 78//78
f 78//78 79//79 44//44
f 79//79 81//81 46//46
f 52//52 89//89 80//80
f 81//81 90//90 52//52
f 82//82 53//53 91//91
f 92//92 91//91 93//93
f 94//94 93//93 95//95
f 96//96 95//95 97//97
f 98//98 97//97 99//99
f 100//100 99//99 101//101
f 102//102 101//101 103//103
f 104//104 103//103 105//105
f 89//89 105//105 80//80
f 48//48 82//82 83//83
f 83//83 106//106 54//54
f 55//55 54//54 107//107
f 55//55 108//108 56//56
f 57//57 56//56 109//109
f 57//57 110//110 58//58
f 59//59 58//58 111//111
f 59//59 112//112 60//60
f 60//60 113//113 61//61
f 61//61 114//114 62//62
f 62//62 115//115 63//63
f 63//63 116//116 64//64
f 64//64 117//117 65//65
f 65//65 118//118 67//67
f 119//119 66//66 84//84
f 49//49 85//85 84//84
f 67//67 120//120 85//85
f 121//121 122//122 86//86
f 86//86 122//122 87//87
f 123//123 69//69 87//87
f 123//123 88//88 69//69
f 88//88 124//124 70//70
f 70//70 125//125 71//71
f 71//71 126//126 72//72
f 72//72 127//127 73//73
f 73//73 128//128 74//74
f 74//74 129//129 75//75
f 75//75 130//130 76//76
f 76//76 131//131 77//77
f 77//77 132//132 78//78
f 78//78 133//133 79//79
f 81//81 79//79 134//134
f 90//90 89//89 52//52
f 90//90 81//81 135//135
f 82//82 91//91 92//92
f 92//92 93//93 94//94
f 94//94 95//95 96//96
f 96//96 97//97 98//98
f 98//98 99//99 100//100
f 100//100 101//101 102//102
f 104//104 102//102 103//103
f 89//89 104//104 105//105
f 83//83 82//82 136//136
f 83//83 137//137 106//106
f 54//54 106//106 107//107
f 55//55 107//107 108//108
f 56//56 108//108 109//109
f 57//57 109//109 110//110
f 58//58 110//110 111//111
f 59//59 111//111 112//112
f 60//60 112//112 113//113
f 61//61 113//113 114//114
f 62//62 114//114 115//115
f 63//63 115//115 116//116
f 116//116 117//117 64//64
f 117//117 118//118 65//65
f 118//118 120//120 67//67
f 119//119 84//84 138//138
f 85//85 139//139 84//84
f 120//120 140//140 85//85
f 141//141 142//142 121//121
f 121//121 142//142 122//122
f 143//143 87//87 122//122
f 143//143 123//123 87//87
f 144//144 88//88 123//123
f 144//144 124//124 88//88
f 70//70 124//124 125//125
f 71//71 125//125 126//126
f 72//72 126//126 127//127
f 73//73 127//127 128//128
f 74//74 128//128 129//129
f 75//75 129//129 130//130
f 76//76 130//130 131//131
f 77//77 131//131 132//132
f 78//78 132//132 133//133
f 79//79 133//133 134//134
f 135//135 81//81 134//134
f 90//90 145//145 89//89
f 146//146 90//90 135//135
f 82//82 92//92 136//136
f 92//92 94//94 147//147
f 94//94 96//96 148//148
f 149//149 96//96 98//98
f 150//150 98//98 100//100
f 151//151 100//100 102//102
f 152//152 102//102 104//104
f 145//145 104//104 89//89
f 83//83 136//136 137//137
f 106//106 137//137 153//153
f 106//106 154//154 107//107
f 108//108 107//107 155//155
f 108//108 156//156 109//109
f 110//110 109//109 157//157
f 110//110 158//158 111//111
f 112//112 111//111 159//159
f 112//112 160//160 113//113
f 113//113 161//161 114//114
f 114//114 162//162 115//115
f 115//115 163//163 116//116
f 116//116 164//164 117//117
f 117//117 165//165 118//118
f 118//118 166//166 120//120
f 120//120 167//167 140//140
f 119//119 138//138 168//168
f 84//84 139//139 138//138
f 85//85 140//140 139//139
f 169//169 170//170 141//141
f 171//171 172//172 169//169
f 173//173 174//174 171//171
f 168//168 175//175 176//176
f 141//141 170//170 142//142
f 177//177 122//122 142//142
f 177//177 143//143 122//122
f 178//178 123//123 143//143
f 178//178 144//144 123//123
f 179//179 124//124 144//144
f 124//124 180//180 125//125
f 125//125 181//181 126//126
f 126//126 182//182 127//127
f 127//127 183//183 128//128
f 128//128 184//184 129//129
f 129//129 185//185 130//130
f 130//130 186//186 131//131
f 131//131 187//187 132//132
f 132//132 188//188 133//133
f 133//133 189//189 134//134
f 135//135 134//134 190//190
f 145//145 90//90 146//146
f 146//146 135//135 191//191
f 136//136 92//92 147//147
f 147//147 94//94 148//148
f 148//148 96//96 149//149
f 149//149 98//98 150//150
f 150//150 100//100 151//151
f 152//152 151//151 102//102
f 145//145 152//152 104//104
f 136//136 192//192 137//137
f 137//137 193//193 153//153
f 106//106 153//153 154//154
f 107//107 154//154 155//155
f 108//108 155//155 156//156
f 109//109 156//156 157//157
f 110//110 157//157 158//158
f 111//111 158//158 159//159
f 112//112 159//159 160//160
f 113//113 160//160 161//161
f 114//114 161//161 162//162
f 115//115 162//162 163//163
f 116//116 163//163 164//164
f 164//164 165//165 117//117
f 165//165 166//166 118//118
f 166//166 167//167 120//120
f 167//167 194//194 140//140
f 168//168 138//138 175//175
f 139//139 195//195 138//138
f 140//140 196//196 139//139
f 169//169 172//172 170//170
f 171//171 174//174 172//172
f 175//175 173//173 176//176
f 173//173 175//175 174//174
f 197//197 142//142 170//170
f 197//197 177//177 142//142
f 198//198 143//143 177//177
f 198//198 178//178 143//143
f 199//199 144//144 178//178
f 199//199 179//179 144//144
f 179//179 180//180 124//124
f 125//125 180//180 181//181
f 126//126 181//181 182//182
f 127//127 182//182 183//183
f 128//128 183//183 184//184
f 129//129 184//184 185//185
f 130//130 185//185 186//186
f 131//131 186//186 187//187
f 132//132 187//187 188//188
f 133//133 188//188 189//189
f 134//134 189//189 190//190
f 191//191 135//135 190//190
f 200//200 145//145 146//146
f 201//201 146//146 191//191
f 136//136 147//147 192//192
f 147//147 148//148 202//202
f 148//148 149//149 203//203
f 149//149 150//150 204//204
f 150//150 151//151 205//205
f 151//151 152//152 206//206
f 152//152 145//145 200//200
f 137//137 192//192 193//193
f 153//153 193//193 207//207
f 154//154 153//153 208//208
f 154//154 209//209 155//155
f 156//156 155//155 210//210
f 156//156 211//211 157//157
f 158//158 157//157 212//212
f 158//158 213//213 159//159
f 160//160 159//159 214//214
f 160//160 215//215 161//161
f 161//161 216//216 162//162
f 162//162 217//217 163//163
f 163//163 218//218 164//164
f 164//164 219//219 165//165
f 165//165 220//220 166//166
f 166//166 221//221 167//167
f 167//167 222//222 194//194
f 140//140 194//194 196//196
f 138//138 195//195 175//175
f 139//139 196//196 195//195
f 223//223 170//170 172//172
f 224//224 172//172 174//174
f 225//225 174//174 175//175
f 223//223 197//197 170//170
f 226//226 177//177 197//197
f 226//226 198//198 177//177
f 227//227 178//178 198//198
f 227//227 199//199 178//178
f 228//228 179//179 199//199
f 229//229 180//180 179//179
f 180//180 230//230 181//181
f 181//181 231//231 182//182
f 182//182 232//232 183//183
f 183//183 233//233 184//184
f 184//184 234//234 185//185
f 185//185 235//235 186//186
f 186//186 236//236 187//187
f 187//187 237//237 188//188
f 188//188 238//238 189//189
f 189//189 239//239 190//190
f 191//191 190//190 240//240
f 200//200 146//146 201//201
f 201//201 191//191 241//241
f 147//147 202//202 192//192
f 148//148 203//203 202//202
f 149//149 204//204 203//203
f 150//150 205//205 204//204
f 205//205 151//151 206//206
f 206//206 152//152 200//200
f 192//192 242//242 193//193
f 193//193 243//243 207//207
f 153//153 207//207 208//208
f 154//154 208//208 209//209
f 155//155 209//209 210//210
f 156//156 210//210 211//211
f 157//157 211//211 212//212
f 158//158 212//212 213//213
f 159//159 213//213 214//214
f 160//160 214//214 215//215
f 161//161 215//215 216//216
f 162//162 216//216 217//217
f 163//163 217//217 218//218
f 164//164 218//218 219//219
f 219//219 220//220 165//165
f 220//220 221//221 166//166
f 221//221 222//222 167//167
f 222//222 244//244 194//194
f 194//194 244//244 245//245
f 194//194 245//245 196//196
f 195//195 225//225 175//175
f 196//196 246//246 195//195
f 224//224 223//223 172//172
f 225//225 224//224 174//174
f 247//247 197//197 223//223
f 247//247 226//226 197//197
f 248//248 198//198 226//226
f 248//248 227//227 198//198
f 249//249 199//199 227//227
f 249//249 228//228 199//199
f 228//228 229//229 179//179
f 229//229 230//230 180//180
f 181//181 230//230 231//231
f 182//182 231//231 232//232
f 183//183 232//232 233//233
f 184//184 233//233 234//234
f 185//185 234//234 235//235
f 186//186 235//235 236//236
f 187//187 236//236 237//237
f 188//188 237//237 238//238
f 189//189 238//238 239//239
f 190//190 239//239 240//240
f 241//241 191//191 240//240
f 250//250 200//200 201//201
f 251//251 201//201 241//241
f 192//192 202//202 242//242
f 202//202 203//203 252//252
f 203//203 204//204 253//253
f 204//204 205//205 254//254
f 205//205 206//206 255//255
f 206//206 200//200 250//250
f 193//193 242//242 243//243
f 207//207 243//243 256//256
f 208//208 207//207 257//257
f 209//209 208//208 258//258
f 209//209 259//259 210//210
f 210//210 260//260 211//211
f 211//211 261//261 212//212
f 213//213 212//212 262//262
f 213//213 263//263 214//214
f 214//214 264//264 215//215
f 215//215 265//265 216//216
f 216//216 266//266 217//217
f 217//217 267//267 218//218
f 218//218 268//268 219//219
f 219//219 269//269 220//220
f 220//220 270//270 221//221
f 221//221 271//271 222//222
f 222//222 272//272 244//244
f 244//244 273//273 274//274
f 244//244 274//274 245//245
f 196//196 245//245 246//246
f 195//195 246//246 225//225
f 275//275 223//223 224//224
f 276//276 224//224 225//225
f 275//275 247//247 223//223
f 277//277 226//226 247//247
f 277//277 248//248 226//226
f 278//278 227//227 248//248
f 278//278 249//249 227//227
f 279//279 228//228 249//249
f 280//280 229//229 228//228
f 281//281 230//230 229//229
f 230//230 282//282 231//231
f 231//231 283//283 232//232
f 232//232 284//284 233//233
f 233//233 285//285 234//234
f 234//234 286//286 235//235
f 235//235 287//287 236//236
f 236//236 288//288 237//237
f 237//237 289//289 238//238
f 238//238 290//290 239//239
f 240//240 239//239 291//291
f 241//241 240//240 292//292
f 250//250 201//201 251//251
f 251//251 241//241 293//293
f 202//202 252//252 242//242
f 203//203 253//253 252//252
f 204//204 254//254 253//253
f 254//254 205//205 255//255
f 255//255 206//206 250//250
f 242//242 294//294 243//243
f 243//243 295//295 256//256
f 207//207 256//256 257//257
f 208//208 257//257 258//258
f 209//209 258//258 259//259
f 210//210 259//259 260//260
f 211//211 260//260 261//261
f 212//212 261//261 262//262
f 213//213 262//262 263//263
f 214//214 263//263 264//264
f 215//215 264//264 265//265
f 216//216 265//265 266//266
f 217//217 266//266 267//267
f 218//218 267//267 268//268
f 219//219 268//268 269//269
f 269//269 270//270 220//220
f 270//270 271//271 221//221
f 271//271 272//272 222//222
f 272//272 273//273 244//244
f 273//273 296//296 274//274
f 245//245 274//274 297//297
f 245//245 297//297 246//246
f 246//246 276//276 225//225
f 276//276 275//275 224//224
f 298//298 247//247 275//275
f 298//298 277//277 247//247
f 299//299 248//248 277//277
f 299//299 278//278 248//248
f 300//300 249//249 278//278
f 300//300 279//279 249//249
f 279//279 280//280 228//228
f 280//280 281//281 229//229
f 281//281 282//282 230//230
f 231//231 282//282 283//283
f 232//232 283//283 284//284
f 233//233 284//284 285//285
f 234//234 285//285 286//286
f 235//235 286//286 287//287
f 236//236 287//287 288//288
f 237//237 288//288 289//289
f 238//238 289//289 290//290
f 239//239 290//290 291//291
f 240//240 291//291 292//292
f 293//293 241//241 292//292
f 301//301 250//250 251//251
f 302//302 251//251 293//293
f 242//242 252//252 294//294
f 252//252 253//253 303//303
f 253//253 254//254 304//304
f 254//254 255//255 305//305
f 255//255 250//250 301//301
f 243//243 294//294 295//295
f 256//256 295//295 306//306
f 257//257 256//256 307//307
f 258//258 257//257 308//308
f 259//259 258//258 309//309
f 259//259 310//310 260//260
f 260//260 311//311 261//261
f 261//261 312//312 262//262
f 263//263 262//262 313//313
f 263//263 314//314 264//264
f 264//264 315//315 265//265
f 265//265 316//316 266//266
f 266//266 317//317 267//267
f 267//267 318//318 268//268
f 268//268 319//319 269//269
f 269//269 320//320 270//270
f 270//270 321//321 271//271
f 271//271 322//322 272//272
f 272//272 323//323 273//273
f 273//273 324//324 296//296
f 274//274 296//296 325//325
f 274//274 325//325 297//297
f 326//326 246//246 297//297
f 246//246 326//326 276//276
f 298//298 276//276 326//326
f 276//276 298//298 275//275
f 327//327 277//277 298//298
f 327//327 299//299 277//277
f 328//328 278//278 299//299
f 328//328 300//300 278//278
f 329//329 279//279 300//300
f 330//330 280//280 279//279
f 331//331 281//281 280//280
f 332//332 282//282 281//281
f 282//282 333//333 283//283
f 283//283 334//334 284//284
f 284//284 335//335 285//285
f 285//285 336//336 286//286
f 286//286 337//337 287//287
f 287//287 338//338 288//288
f 288//288 339//339 289//289
f 289//289 340//340 290//290
f 290//290 341//341 291//291
f 291//291 342//342 292//292
f 293//293 292//292 343//343
f 301//301 251//251 302//302
f 302//302 293//293 344//344
f 252//252 303//303 294//294
f 253//253 304//304 303//303
f 304//304 254//254 305//305
f 305//305 255//255 301//301
f 294//294 345//345 295//295
f 295//295 346//346 306//306
f 256//256 306//306 307//307
f 257//257 307//307 308//308
f 258//258 308//308 309//309
f 259//259 309//309 310//310
f 260//260 310//310 311//311
f 261//261 311//311 312//312
f 262//262 312//312 313//313
f 263//263 313//313 314//314
f 264//264 314//314 315//315
f 265//265 315//315 316//316
f 266//266 316//316 317//317
f 267//267 317//317 318//318
f 268//268 318//318 319//319
f 269//269 319//319 320//320
f 320//320 321//321 270//270
f 321//321 322//322 271//271
f 322//322 323//323 272//272
f 323//323 324//324 273//273
f 324//324 347//347 296//296
f 296//296 347//347 348//348
f 296//296 348//348 325//325
f 349//349 297//297 325//325
f 297//297 349//349 326//326
f 327//327 326//326 349//349
f 326//326 327//327 298//298
f 350//350 299//299 327//327
f 350//350 328//328 299//299
f 351//351 300//300 328//328
f 351//351 329//329 300//300
f 329//329 330//330 279//279
f 330//330 331//331 280//280
f 331//331 332//332 281//281
f 332//332 333//333 282//282
f 283//283 333//333 334//334
f 284//284 334//334 335//335
f 285//285 335//335 336//336
f 286//286 336//336 337//337
f 287//287 337//337 338//338
f 288//288 338//338 339//339
f 289//289 339//339 340//340
f 290//290 340//340 341//341
f 291//291 341//341 342//342
f 292//292 342//342 343//343
f 344//344 293//293 343//343
f 352//352 301//301 302//302
f 353//353 302//302 344//344
f 294//294 303//303 345//345
f 303//303 304//304 354//354
f 304//304 305//305 355//355
f 305//305 301//301 352//352
f 295//295 345//345 346//346
f 356//356 306//306 346//346
f 357//357 307//307 306//306
f 358//358 308//308 307//307
f 359//359 309//309 308//308
f 360//360 310//310 309//309
f 361//361 311//311 310//310
f 312//312 311//311 362//362
f 312//312 363//363 313//313
f 314//314 313//313 364//364
f 314//314 365//365 315//315
f 315//315 366//366 316//316
f 316//316 367//367 317//317
f 317//317 368//368 318//318
f 318//318 369//369 319//319
f 320//320 319//319 370//370
f 321//321 320//320 371//371
f 321//321 372//372 322//322
f 322//322 373//373 323//323
f 323//323 374//374 324//324
f 324//324 375//375 347//347
f 347//347 376//376 377//377
f 347//347 377//377 348//348
f 378//378 325//325 348//348
f 325//325 378//378 349//349
f 350//350 349//349 378//378
f 349//349 350//350 327//327
f 379//379 328//328 350//350
f 379//379 351//351 328//328
f 380//380 329//329 351//351
f 381//381 330//330 329//329
f 382//382 331//331 330//330
f 383//383 332//332 331//331
f 332//332 384//384 333//333
f 333//333 385//385 334//334
f 334//334 386//386 335//335
f 335//335 387//387 336//336
f 336//336 388//388 337//337
f 337//337 389//389 338//338
f 338//338 390//390 339//339
f 339//339 391//391 340//340
f 340//340 392//392 341//341
f 393//393 342//342 341//341
f 394//394 343//343 342//342
f 395//395 344//344 343//343
f 352//352 302//302 353//353
f 396//396 353//353 344//344
f 303//303 354//354 345//345
f 354//354 304//304 355//355
f 355//355 305//305 352//352
f 345//345 397//397 346//346
f 356//356 346//346 398//398
f 357//357 306//306 356//356
f 358//358 307//307 357//357
f 359//359 308//308 358//358
f 360//360 309//309 359//359
f 361//361 310//310 360//360
f 362//362 311//311 361//361
f 363//363 312//312 362//362
f 313//313 363//363 364//364
f 314//314 364//364 365//365
f 315//315 365//365 366//366
f 316//316 366//366 367//367
f 317//317 367//367 368//368
f 318//318 368//368 369//369
f 319//319 369//369 370//370
f 320//320 370//370 371//371
f 321//321 371//371 372//372
f 372//372 373//373 322//322
f 373//373 374//374 323//323
f 374//374 375//375 324//324
f 375//375 376//376 347//347
f 376//376 399//399 377//377
f 400//400 348//348 377//377
f 348//348 400//400 378//378
f 379//379 378//378 400//400
f 378//378 379//379 350//350
f 401//401 351//351 379//379
f 401//401 380//380 351//351
f 380//380 381//381 329//329
f 381//381 382//382 330//330
f 382//382 383//383 331//331
f 383//383 384//384 332//332
f 384//384 385//385 333//333
f 385//385 386//386 334//334
f 335//335 386//386 387//387
f 336//336 387//387 388//388
f 337//337 388//388 389//389
f 338//338 389//389 390//390
f 339//339 390//390 391//391
f 340//340 391//391 392//392
f 341//341 392//392 393//393
f 393//393 394//394 342//342
f 394//394 395//395 343//343
f 395//395 396//396 344//344
f 402//402 352//352 353//353
f 396//396 403//403 353//353
f 345//345 354//354 397//397
f 354//354 355//355 404//404
f 355//355 352//352 402//402
f 398//398 346//346 397//397
f 405//405 356//356 398//398
f 406//406 357//357 356//356
f 407//407 358//358 357//357
f 408//408 359//359 358//358
f 409//409 360//360 359//359
f 410//410 361//361 360//360
f 411//411 362//362 361//361
f 412//412 363//363 362//362
f 413//413 364//364 363//363
f 365//365 364//364 414//414
f 366//366 365//365 415//415
f 367//367 366//366 416//416
f 368//368 367//367 417//417
f 369//369 368//368 418//418
f 370//370 369//369 419//419
f 371//371 370//370 420//420
f 372//372 371//371 421//421
f 373//373 372//372 422//422
f 374//374 373//373 423//423
f 375//375 374//374 424//424
f 376//376 375//375 425//425
f 399//399 376//376 426//426
f 399//399 400//400 377//377
f 400//400 399//399 427//427
f 401//401 400//400 427//427
f 400//400 401//401 379//379
f 401//401 428//428 380//380
f 380//380 429//429 381//381
f 381//381 430//430 382//382
f 382//382 431//431 383//383
f 383//383 432//432 384//384
f 384//384 433//433 385//385
f 385//385 434//434 386//386
f 386//386 435//435 387//387
f 387//387 436//436 388//388
f 388//388 437//437 389//389
f 389//389 438//438 390//390
f 390//390 439//439 391//391
f 440//440 392//392 391//391
f 441//441 393//393 392//392
f 442//442 394//394 393//393
f 443//443 395//395 394//394
f 444//444 396//396 395//395
f 403//403 402//402 353//353
f 445//445 403//403 396//396
f 397//397 354//354 404//404
f 404//404 355//355 402//402
f 446//446 398//398 397//397
f 447//447 405//405 398//398
f 406//406 356//356 405//405
f 407//407 357//357 406//406
f 408//408 358//358 407//407
f 409//409 359//359 408//408
f 410//410 360//360 409//409
f 411//411 361//361 410//410
f 412//412 362//362 411//411
f 413//413 363//363 412//412
f 414//414 364//364 413//413
f 415//415 365//365 414//414
f 366//366 415//415 416//416
f 367//367 416//416 417//417
f 368//368 417//417 418//418
f 369//369 418//418 419//419
f 370//370 419//419 420//420
f 371//371 420//420 421//421
f 372//372 421//421 422//422
f 373//373 422//422 423//423
f 374//374 423//423 424//424
f 375//375 424//424 425//425
f 376//376 425//425 426//426
f 399//399 426//426 448//448
f 448//448 427//427 399//399
f 427//427 448//448 449//449
f 449//449 401//401 427//427
f 401//401 449//449 428//428
f 380//380 428//428 429//429
f 381//381 429//429 430//430
f 382//382 430//430 431//431
f 383//383 431//431 432//432
f 384//384 432//432 433//433
f 385//385 433//433 434//434
f 386//386 434//434 435//435
f 387//387 435//435 436//436
f 436//436 437//437 388//388
f 437//437 438//438 389//389
f 438//438 439//439 390//390
f 439//439 440//440 391//391
f 440//440 441//441 392//392
f 441//441 442//442 393//393
f 442//442 443//443 394//394
f 443//443 444//444 395//395
f 444//444 445//445 396//396
f 403//403 450//450 402//402
f 445//445 451//451 403//403
f 446//446 397//397 404//404
f 450//450 404//404 402//402
f 447//447 398//398 446//446
f 448//448 428//428 449//449
f 426//426 428//428 448//448
f 426//426 429//429 428//428
f 425//425 429//429 426//426
f 425//425 430//430 429//429
f 424//424 430//430 425//425
f 424//424 431//431 430//430
f 423//423 431//431 424//424
f 423//423 432//432 431//431
f 422//422 432//432 423//423
f 422//422 433//433 432//432
f 421//421 433//433 422//422
f 421//421 434//434 433//433
f 420//420 434//434 421//421
f 420//420 435//435 434//434
f 419//419 435//435 420//420
f 419//419 436//436 435//435
f 418//418 436//436 419//419
f 418//418 437//437 436//436
f 417//417 437//437 418//418
f 417//417 438//438 437//437
f 416//416 438//438 417//417
f 416//416 439//439 438//438
f 415//415 439//439 416//416
f 415//415 440//440 439//439
f 414//414 440//440 415//415
f 414//414 441//441 440//440
f 414//414 442//442 441//441
f 413//413 442//442 414//414
f 412//412 442//442 413//413
f 412//412 443//443 442//442
f 411//411 443//443 412//412
f 411//411 444//444 443//443
f 410//410 444//444 411//411
f 410//410 445//445 444//444
f 409//409 445//445 410//410
f 409//409 451//451 445//445
f 408//408 451//451 409//409
f 408//408 452//452 451//451
f 407//407 452//452 408//408
f 407//407 447//447 452//452
f 406//406 447//447 407//407
f 447//447 406//406 405//405
f 451//451 450//450 403//403
f 450//450 446//446 404//404
f 452//452 447//447 446//446
f 451//451 452//452 450//450
f 452//452 446//446 450//450
f 453//453 454//454 455//455
f 456//456 454//454 453//453
f 457//457 458//458 459//459
f 460//460 461//461 462//462
f 461//461 460//460 463//463
f 462//462 464//464 465//465
f 464//464 462//462 461//461
f 466//466 464//464 467//467
f 464//464 466//466 465//465
f 459//459 466//466 467//467
f 466//466 459//459 458//458
f 468//468 457//457 459//459
f 168//168 176//176 173//173
f 469//469 119//119 468//468
f 469//469 66//66 119//119
f 469//469 25//25 66//66
f 469//469 23//23 25//25
f 469//469 21//21 23//23
f 469//469 19//19 21//21
f 469//469 17//17 19//19
f 469//469 15//15 17//17
f 469//469 13//13 15//15
f 469//469 11//11 13//13
f 469//469 9//9 11//11
f 469//469 7//7 9//9
f 469//469 4//4 7//7
f 4//4 1//1 5//5
f 101//101 470//470 103//103
f 99//99 470//470 101//101
f 97//97 470//470 99//99
f 95//95 470//470 97//97
f 93//93 470//470 95//95
f 91//91 470//470 93//93
f 53//53 470//470 91//91
f 2//2 470//470 53//53
f 1//1 470//470 2//2
f 4//4 470//470 1//1
f 470//470 4//4 469//469
f 168//168 468//468 119//119
f 173//173 468//468 168//168
f 171//171 468//468 173//173
f 169//169 468//468 171//171
f 141//141 468//468 169//169
f 121//121 468//468 141//141
f 86//86 468//468 121//121
f 68//68 468//468 86//86
f 50//50 468//468 68//68
f 27//27 468//468 50//50
f 29//29 468//468 27//27
f 31//31 468//468 29//29
f 33//33 468//468 31//31
f 35//35 468//468 33//33
f 470//470 105//105 103//103
f 35//35 457//457 468//468
f 37//37 457//457 35//35
f 39//39 457//457 37//37
f 41//41 457//457 39//39
f 43//43 457//457 41//41
f 45//45 457//457 43//43
f 47//47 457//457 45//45
f 80//80 457//457 47//47
f 105//105 457//457 80//80
f 457//457 105//105 470//470
f 455//455 454//454 471//471
f 456//456 472//472 454//454
f 472//472 473//473 454//454
f 471//471 454//454 474//474
f 475//475 470//470 469//469
f 470//470 475//475 476//476
f 477//477 478//478 479//479
f 478//478 480//480 481//481
f 480//480 482//482 481//481
f 481//481 479//479 478//478
f 481//481 483//483 479//479
f 482//482 483//483 481//481
f 482//482 484//484 483//483
f 485//485 484//484 482//482
f 485//485 486//486 484//484
f 487//487 486//486 485//485
f 487//487 488//488 486//486
f 489//489 488//488 487//487
f 489//489 490//490 488//488
f 491//491 490//490 489//489
f 491//491 492//492 490//490
f 493//493 492//492 491//491
f 493//493 494//494 492//492
f 456//456 494//494 493//493
f 453//453 494//494 456//456
f 494//494 453//453 455//455
f 489//489 495//495 496//496
f 495//495 489//489 487//487
f 476//476 457//457 470//470
f 476//476 458//458 457//457
f 476//476 466//466 458//458
f 476//476 465//465 466//466
f 476//476 462//462 465//465
f 476//476 460//460 462//462
f 476//476 497//497 460//460
f 497//497 476//476 498//498
f 497//497 463//463 460//460
f 463//463 497//497 499//499
f 468//468 475//475 469//469
f 459//459 475//475 468//468
f 467//467 475//475 459//459
f 464//464 475//475 467//467
f 461//461 475//475 464//464
f 463//463 475//475 461//461
f 499//499 475//475 463//463
f 475//475 499//499 500//500
f 471//471 474//474 501//501
f 501//501 502//502 471//471
f 503//503 471//471 502//502
f 471//471 503//503 455//455
f 504//504 455//455 503//503
f 455//455 504//504 494//494
f 505//505 494//494 504//504
f 494//494 505//505 492//492
f 506//506 507//507 508//508
f 507//507 509//509 510//510
f 509//509 511//511 510//510
f 491//491 496//496 512//512
f 496//496 491//491 489//489
f 513//513 491//491 512//512
f 491//491 513//513 493//493
f 514//514 493//493 513//513
f 493//493 514//514 456//456
f 515//515 456//456 514//514
f 456//456 515//515 472//472
f 515//515 516//516 472//472
f 516//516 473//473 472//472
f 474//474 475//475 500//500
f 454//454 475//475 474//474
f 473//473 475//475 454//454
f 498//498 475//475 473//473
f 475//475 498//498 476//476
f 517//517 518//518 519//519
f 518//518 517//517 520//520
f 521//521 522//522 523//523
f 522//522 521//521 524//524
f 523//523 525//525 526//526
f 525//525 523//523 522//522
f 526//526 527//527 528//528
f 527//527 526//526 525//525
f 528//528 527//527 529//529
f 530//530 486//486 531//531
f 486//486 530//530 484//484
f 532//532 484//484 530//530
f 484//484 532//532 483//483
f 477//477 483//483 532//532
f 483//483 477//477 479//479
f 477//477 533//533 478//478
f 533//533 480//480 478//478
f 480//480 534//534 482//482
f 535//535 482//482 534//534
f 482//482 535//535 485//485
f 487//487 535//535 495//495
f 535//535 487//487 485//485
f 536//536 496//496 495//495
f 511//511 537//537 538//538
f 510//510 511//511 538//538
f 507//507 510//510 508//508
f 506//506 508//508 539//539
f 539//539 540//540 506//506
f 540//540 539//539 541//541
f 541//541 542//542 540//540
f 542//542 541//541 543//543
f 542//542 544//544 545//545
f 544//544 542//542 543//543
f 545//545 546//546 547//547
f 546//546 545//545 544//544
f 547//547 548//548 549//549
f 548//548 547//547 546//546
f 549//549 550//550 551//551
f 550//550 549//549 548//548
f 551//551 552//552 553//553
f 552//552 551//551 550//550
f 553//553 554//554 555//555
f 554//554 553//553 552//552
f 556//556 557//557 529//529
f 497//497 549//549 499//499
f 497//497 547//547 549//549
f 497//497 545//545 547//547
f 497//497 542//542 545//545
f 497//497 540//540 542//542
f 497//497 506//506 540//540
f 497//497 507//507 506//506
f 497//497 509//509 507//507
f 497//497 511//511 509//509
f 497//497 558//558 511//511
f 497//497 559//559 558//558
f 559//559 496//496 536//536
f 559//559 512//512 496//496
f 559//559 513//513 512//512
f 559//559 514//514 513//513
f 559//559 516//516 514//514
f 497//497 516//516 559//559
f 498//498 516//516 497//497
f 516//516 498//498 473//473
f 551//551 499//499 549//549
f 553//553 499//499 551//551
f 555//555 499//499 553//553
f 560//560 499//499 555//555
f 519//519 499//499 560//560
f 518//518 499//499 519//519
f 561//561 499//499 518//518
f 521//521 499//499 561//561
f 523//523 499//499 521//521
f 526//526 499//499 523//523
f 528//528 499//499 526//526
f 529//529 499//499 528//528
f 505//505 529//529 557//557
f 504//504 529//529 505//505
f 503//503 529//529 504//504
f 502//502 529//529 503//503
f 501//501 529//529 502//502
f 501//501 499//499 529//529
f 474//474 499//499 501//501
f 499//499 474//474 500//500
f 511//511 558//558 562//562
f 514//514 516//516 515//515
f 511//511 562//562 537//537
f 563//563 559//559 537//537
f 546//546 550//550 548//548
f 546//546 552//552 550//550
f 544//544 552//552 546//546
f 544//544 554//554 552//552
f 543//543 554//554 544//544
f 543//543 564//564 554//554
f 541//541 564//564 543//543
f 541//541 517//517 564//564
f 541//541 533//533 517//517
f 541//541 480//480 533//533
f 541//541 534//534 480//480
f 541//541 535//535 534//534
f 541//541 495//495 535//535
f 539//539 495//495 541//541
f 508//508 495//495 539//539
f 510//510 495//495 508//508
f 538//538 495//495 510//510
f 559//559 538//538 537//537
f 538//538 536//536 495//495
f 536//536 538//538 559//559
f 477//477 517//517 533//533
f 532//532 517//517 477//477
f 530//530 517//517 532//532
f 531//531 517//517 530//530
f 565//565 517//517 531//531
f 565//565 520//520 517//517
f 565//565 566//566 520//520
f 565//565 524//524 566//566
f 565//565 522//522 524//524
f 556//556 522//522 565//565
f 556//556 525//525 522//522
f 556//556 527//527 525//525
f 527//527 556//556 529//529
f 558//558 559//559 563//563
f 558//558 537//537 562//562
f 537//537 558//558 563//563
f 565//565 557//557 556//556
f 486//486 565//565 531//531
f 565//565 486//486 488//488
f 488//488 557//557 565//565
f 557//557 488//488 490//490
f 490//490 505//505 557//557
f 505//505 490//490 492//492
f 520//520 561//561 518//518
f 561//561 520//520 566//566
f 561//561 524//524 521//521
f 524//524 561//561 566//566
f 564//564 519//519 560//560
f 519//519 564//564 517//517
f 555//555 564//564 560//560
f 564//564 555//555 554//554
f 567//567 568//568 569//569
f 570//570 568//568 567//567
f 570//570 571//571 568//568
f 572//572 571//571 570//570
f 572//572 573//573 571//571
f 572//572 574//574 573//573
f 572//572 575//575 574//574
f 572//572 576//576 575//575
f 577//577 576//576 572//572
f 577//577 578//578 576//576
f 577//577 579//579 578//578
f 580//580 579//579 577//577
f 580//580 581//581 579//579
f 582//582 581//581 580//580
f 582//582 583//583 581//581
f 582//582 584//584 583//583
f 585//585 584//584 582//582
f 585//585 586//586 584//584
f 585//585 587//587 586//586
f 588//588 587//587 585//585
f 588//588 589//589 587//587
f 588//588 590//590 589//589
f 588//588 591//591 590//590
f 591//591 588//588 592//592
f 593//593 573//573 574//574
f 594//594 573//573 593//593
f 594//594 595//595 573//573
f 596//596 595//595 594//594
f 597//597 595//595 596//596
f 597//597 598//598 595//595
f 599//599 598//598 597//597
f 600//600 598//598 599//599
f 600//600 601//601 598//598
f 602//602 601//601 600//600
f 602//602 603//603 601//601
f 604//604 603//603 602//602
f 605//605 603//603 604//604
f 605//605 606//606 603//603
f 607//607 606//606 605//605
f 608//608 606//606 607//607
f 591//591 606//606 608//608
f 592//592 606//606 591//591
f 592//592 609//609 606//606
f 610//610 609//609 592//592
f 610//610 611//611 609//609
f 612//612 611//611 610//610
f 612//612 613//613 611//611
f 613//613 612//612 614//614
f 615//615 616//616 617//617
f 618//618 616//616 615//615
f 618//618 619//619 616//616
f 620//620 619//619 618//618
f 620//620 621//621 619//619
f 622//622 621//621 620//620
f 622//622 623//623 621//621
f 624//624 623//623 622//622
f 624//624 625//625 623//623
f 626//626 625//625 624//624
f 626//626 627//627 625//625
f 628//628 627//627 626//626
f 628//628 629//629 627//627
f 630//630 629//629 628//628
f 630//630 631//631 629//629
f 632//632 631//631 630//630
f 632//632 633//633 631//631
f 634//634 633//633 632//632
f 634//634 635//635 633//633
f 636//636 635//635 634//634
f 636//636 637//637 635//635
f 637//637 636//636 638//638
f 639//639 640//640 641//641
f 640//640 639//639 642//642
f 643//643 642//642 639//639
f 642//642 643//643 644//644
f 645//645 644//644 643//643
f 644//644 645//645 646//646
f 645//645 647//647 646//646
f 647//647 645//645 648//648
f 649//649 650//650 651//651
f 650//650 649//649 652//652
f 653//653 651//651 654//654
f 651//651 653//653 649//649
f 653//653 655//655 656//656
f 655//655 653//653 654//654
f 656//656 657//657 658//658
f 657//657 656//656 655//655
f 657//657 659//659 658//658
f 659//659 657//657 660//660
f 660//660 640//640 659//659
f 640//640 660//660 641//641
f 648//648 661//661 647//647
f 661//661 648//648 662//662
f 652//652 663//663 650//650
f 663//663 652//652 664//664
f 663//663 651//651 650//650
f 663//663 654//654 651//651
f 663//663 655//655 654//654
f 665//665 655//655 663//663
f 665//665 657//657 655//655
f 662//662 657//657 665//665
f 662//662 660//660 657//657
f 648//648 660//660 662//662
f 648//648 641//641 660//660
f 648//648 639//639 641//641
f 648//648 643//643 639//639
f 643//643 648//648 645//645
f 661//661 665//665 666//666
f 665//665 661//661 662//662
f 666//666 663//663 664//664
f 663//663 666//666 665//665
f 667//667 668//668 669//669
f 668//668 667//667 670//670
f 670//670 667//667 671//671
f 672//672 669//669 668//668
f 672//672 673//673 674//674
f 672//672 671//671 673//673
f 668//668 671//671 672//672
f 671//671 668//668 670//670
f 671//671 669//669 672//672
f 669//669 671//671 667//667
f 673//673 671//671 675//675
f 674//674 675//675 676//676
f 675//675 674//674 673//673
f 672//672 674//674 676//676
f 675//675 672//672 676//676
f 672//672 675//675 671//671
f 677//677 678//678 679//679
f 678//678 677//677 680//680
f 681//681 680//680 677//677
f 680//680 681//681 682//682
f 683//683 682//682 681//681
f 682//682 683//683 684//684
f 685//685 684//684 683//683
f 684//684 685//685 686//686
f 687//687 686//686 685//685
f 686//686 687//687 688//688
f 689//689 688//688 687//687
f 688//688 689//689 690//690
f 691//691 690//690 689//689
f 690//690 691//691 692//692
f 693//693 692//692 691//691
f 692//692 693//693 694//694
f 695//695 694//694 693//693
f 694//694 695//695 696//696
f 695//695 697//697 696//696
f 697//697 695//695 698//698
f 698//698 699//699 697//697
f 699//699 698//698 700//700
f 700//700 701//701 699//699
f 701//701 700//700 702//702
f 702//702 703//703 701//701
f 703//703 702//702 704//704
f 704//704 705//705 703//703
f 705//705 704//704 706//706
f 706//706 707//707 705//705
f 707//707 706//706 708//708
f 707//707 709//709 710//710
f 709//709 707//707 708//708
f 710//710 711//711 712//712
f 711//711 710//710 709//709
f 712//712 713//713 714//714
f 713//713 712//712 711//711
f 714//714 715//715 716//716
f 715//715 714//714 713//713
f 716//716 717//717 718//718
f 717//717 716//716 715//715
f 718//718 719//719 720//720
f 719//719 718//718 717//717
f 721//721 719//719 722//722
f 719//719 721//721 720//720
f 723//723 722//722 724//724
f 722//722 723//723 721//721
f 725//725 724//724 726//726
f 724//724 725//725 723//723
f 727//727 726//726 728//728
f 726//726 727//727 725//725
f 729//729 728//728 730//730
f 728//728 729//729 727//727
f 731//731 732//732 733//733
f 732//732 731//731 734//734
f 735//735 733//733 736//736
f 733//733 735//735 731//731
f 737//737 736//736 738//738
f 736//736 737//737 735//735
f 739//739 738//738 740//740
f 738//738 739//739 737//737
f 739//739 741//741 742//742
f 741//741 739//739 740//740
f 742//742 743//743 744//744
f 743//743 742//742 741//741
f 744//744 745//745 746//746
f 745//745 744//744 743//743
f 746//746 747//747 748//748
f 747//747 746//746 745//745
f 748//748 749//749 750//750
f 749//749 748//748 747//747
f 750//750 751//751 752//752
f 751//751 750//750 749//749
f 751//751 753//753 752//752
f 753//753 751//751 754//754
f 754//754 755//755 753//753
f 755//755 754//754 756//756
f 756//756 757//757 755//755
f 757//757 756//756 758//758
f 758//758 759//759 757//757
f 759//759 758//758 760//760
f 760//760 761//761 759//759
f 761//761 760//760 762//762
f 762//762 763//763 761//761
f 763//763 762//762 764//764
f 765//765 763//763 764//764
f 763//763 765//765 766//766
f 767//767 766//766 765//765
f 766//766 767//767 768//768
f 679//679 768//768 767//767
f 768//768 679//679 678//678
f 769//769 730//730 770//770
f 730//730 769//769 729//729
f 734//734 771//771 732//732
f 771//771 734//734 772//772
f 730//730 771//771 770//770
f 730//730 732//732 771//771
f 728//728 732//732 730//730
f 728//728 733//733 732//732
f 726//726 733//733 728//728
f 726//726 736//736 733//733
f 724//724 736//736 726//726
f 724//724 738//738 736//736
f 722//722 738//738 724//724
f 722//722 740//740 738//738
f 719//719 740//740 722//722
f 719//719 741//741 740//740
f 717//717 741//741 719//719
f 717//717 743//743 741//741
f 715//715 743//743 717//717
f 715//715 745//745 743//743
f 713//713 745//745 715//715
f 713//713 747//747 745//745
f 711//711 747//747 713//713
f 711//711 749//749 747//747
f 709//709 749//749 711//711
f 709//709 751//751 749//749
f 708//708 751//751 709//709
f 708//708 754//754 751//751
f 706//706 754//754 708//708
f 706//706 756//756 754//754
f 704//704 756//756 706//706
f 704//704 758//758 756//756
f 702//702 758//758 704//704
f 702//702 760//760 758//758
f 700//700 760//760 702//702
f 700//700 762//762 760//760
f 698//698 762//762 700//700
f 698//698 764//764 762//762
f 695//695 764//764 698//698
f 695//695 765//765 764//764
f 693//693 765//765 695//695
f 693//693 767//767 765//765
f 691//691 767//767 693//693
f 691//691 679//679 767//767
f 689//689 679//679 691//691
f 689//689 677//677 679//679
f 687//687 677//677 689//689
f 687//687 681//681 677//677
f 685//685 681//681 687//687
f 681//681 685//685 683//683
f 772//772 770//770 771//771
f 770//770 772//772 769//769