# https://github.com/mikedh/trimesh
v 0.05863300 -0.02371700 -0.02370500
v 0.05847400 -0.02333300 -0.02370500
v 0.05863300 -0.02371700 -0.01756300
v 0.05847400 -0.02333300 -0.01756300
v 0.05863300 -0.02294900 -0.02370500
v 0.05863300 -0.02294900 -0.01756300
v 0.05901700 -0.02279000 -0.02370500
v 0.05901700 -0.02279000 -0.01756300
v 0.05940100 -0.02294900 -0.02370500
v 0.05940100 -0.02294900 -0.01756300
v 0.05956000 -0.02333300 -0.02370500
v 0.05956000 -0.02333300 -0.01756300
v 0.05940100 -0.02371700 -0.02370500
v 0.05940100 -0.02371700 -0.01756300
v 0.05901700 -0.02387600 -0.02370500
v 0.05901700 -0.02387600 -0.01756300
v 0.05499700 -0.02333300 -0.02415400
v 0.05513400 -0.02437400 -0.02415400
v 0.05513400 -0.02229300 -0.02415400
v 0.05553500 -0.02132300 -0.02415400
v 0.05553500 -0.02534300 -0.02415400
v 0.05617400 -0.02049100 -0.02415400
v 0.05617400 -0.02617600 -0.02415400
v 0.05700700 -0.01985200 -0.02415400
v 0.05700700 -0.02681400 -0.02415400
v 0.05797600 -0.01945100 -0.02415400
v 0.05797600 -0.02721600 -0.02415400
v 0.05901700 -0.01931400 -0.02415400
v 0.05901700 -0.02735300 -0.02415400
v 0.06005700 -0.02721600 -0.02415400
v 0.06005700 -0.01945100 -0.02415400
v 0.06102600 -0.01985200 -0.02415400
v 0.06102600 -0.02681400 -0.02415400
v 0.06185900 -0.02049100 -0.02415400
v 0.06185900 -0.02617500 -0.02415400
v 0.06249800 -0.02132300 -0.02415400
v 0.06249800 -0.02534300 -0.02415400
v 0.06289900 -0.02229300 -0.02415400
v 0.06289900 -0.02437400 -0.02415400
v 0.06303600 -0.02333300 -0.02415400
v 0.06102600 -0.01985200 -0.02370500
v 0.06185900 -0.02049100 -0.02370500
v 0.06249800 -0.02132300 -0.02370500
v 0.06289900 -0.02229300 -0.02370500
v 0.06303600 -0.02333300 -0.02370500
v 0.06289900 -0.02437400 -0.02370500
v 0.06249800 -0.02534300 -0.02370500
v 0.06185900 -0.02617500 -0.02370500
v 0.06102600 -0.02681400 -0.02370500
v 0.06005700 -0.02721600 -0.02370500
v 0.05901700 -0.02735300 -0.02370500
v 0.05797600 -0.02721600 -0.02370500
v 0.05700700 -0.02681400 -0.02370500
v 0.05617400 -0.02617600 -0.02370500
v 0.05553500 -0.02534300 -0.02370500
v 0.05513400 -0.02437400 -0.02370500
v 0.05499700 -0.02333300 -0.02370500
v 0.05513400 -0.02229300 -0.02370500
v 0.05553500 -0.02132300 -0.02370500
v 0.05617400 -0.02049100 -0.02370500
v 0.05700700 -0.01985200 -0.02370500
v 0.05797600 -0.01945100 -0.02370500
v 0.05901700 -0.01931400 -0.02370500
v 0.06005700 -0.01945100 -0.02370500
v 0.05863300 0.02498400 -0.02370500
v 0.05847400 0.02536800 -0.02370500
v 0.05863300 0.02498400 -0.01756300
v 0.05847400 0.02536800 -0.01756300
v 0.05863300 0.02575200 -0.02370500
v 0.05863300 0.02575200 -0.01756300
v 0.05901700 0.02591100 -0.02370500
v 0.05901700 0.02591100 -0.01756300
v 0.05940100 0.02575200 -0.02370500
v 0.05940100 0.02575200 -0.01756300
v 0.05956000 0.02536800 -0.02370500
v 0.05956000 0.02536800 -0.01756300
v 0.05940100 0.02498400 -0.02370500
v 0.05940100 0.02498400 -0.01756300
v 0.05901700 0.02482500 -0.02370500
v 0.05901700 0.02482500 -0.01756300
v 0.05499700 0.02536800 -0.02415400
v 0.05513400 0.02432800 -0.02415400
v 0.05513400 0.02640800 -0.02415400
v 0.05553500 0.02737800 -0.02415400
v 0.05553500 0.02335800 -0.02415400
v 0.05617400 0.02821000 -0.02415400
v 0.05617400 0.02252600 -0.02415400
v 0.05700700 0.02884900 -0.02415400
v 0.05700700 0.02188700 -0.02415400
v 0.05797600 0.02925100 -0.02415400
v 0.05797600 0.02148500 -0.02415400
v 0.05901700 0.02938800 -0.02415400
v 0.05901700 0.02134800 -0.02415400
v 0.06005700 0.02148500 -0.02415400
v 0.06005700 0.02925100 -0.02415400
v 0.06102600 0.02884900 -0.02415400
v 0.06102600 0.02188700 -0.02415400
v 0.06185900 0.02821000 -0.02415400
v 0.06185900 0.02252600 -0.02415400
v 0.06249800 0.02737800 -0.02415400
v 0.06249800 0.02335800 -0.02415400
v 0.06289900 0.02640800 -0.02415400
v 0.06289900 0.02432800 -0.02415400
v 0.06303600 0.02536800 -0.02415400
v 0.06102600 0.02884900 -0.02370500
v 0.06185900 0.02821000 -0.02370500
v 0.06249800 0.02737800 -0.02370500
v 0.06289900 0.02640800 -0.02370500
v 0.06303600 0.02536800 -0.02370500
v 0.06289900 0.02432800 -0.02370500
v 0.06249800 0.02335800 -0.02370500
v 0.06185900 0.02252600 -0.02370500
v 0.06102600 0.02188700 -0.02370500
v 0.06005700 0.02148500 -0.02370500
v 0.05901700 0.02134800 -0.02370500
v 0.05797600 0.02148500 -0.02370500
v 0.05700700 0.02188700 -0.02370500
v 0.05617400 0.02252600 -0.02370500
v 0.05553500 0.02335800 -0.02370500
v 0.05513400 0.02432800 -0.02370500
v 0.05499700 0.02536800 -0.02370500
v 0.05513400 0.02640800 -0.02370500
v 0.05553500 0.02737800 -0.02370500
v 0.05617400 0.02821000 -0.02370500
v 0.05700700 0.02884900 -0.02370500
v 0.05797600 0.02925100 -0.02370500
v 0.05901700 0.02938800 -0.02370500
v 0.06005700 0.02925100 -0.02370500
v -0.05688300 0.02498400 -0.02370500
v -0.05704200 0.02536800 -0.02370500
v -0.05688300 0.02498400 -0.01756300
v -0.05704200 0.02536800 -0.01756300
v -0.05688300 0.02575200 -0.02370500
v -0.05688300 0.02575200 -0.01756300
v -0.05649900 0.02591100 -0.02370500
v -0.05649900 0.02591100 -0.01756300
v -0.05611500 0.02575200 -0.02370500
v -0.05611500 0.02575200 -0.01756300
v -0.05595600 0.02536800 -0.02370500
v -0.05595600 0.02536800 -0.01756300
v -0.05611500 0.02498400 -0.02370500
v -0.05611500 0.02498400 -0.01756300
v -0.05649900 0.02482500 -0.02370500
v -0.05649900 0.02482500 -0.01756300
v -0.06051900 0.02536800 -0.02415400
v -0.06038200 0.02432800 -0.02415400
v -0.06038200 0.02640800 -0.02415400
v -0.05998000 0.02737800 -0.02415400
v -0.05998000 0.02335800 -0.02415400
v -0.05934100 0.02821000 -0.02415400
v -0.05934100 0.02252600 -0.02415400
v -0.05850900 0.02884900 -0.02415400
v -0.05850900 0.02188700 -0.02415400
v -0.05753900 0.02925100 -0.02415400
v -0.05753900 0.02148500 -0.02415400
v -0.05649900 0.02938800 -0.02415400
v -0.05649900 0.02134800 -0.02415400
v -0.05545900 0.02148500 -0.02415400
v -0.05545900 0.02925100 -0.02415400
v -0.05448900 0.02884900 -0.02415400
v -0.05448900 0.02188700 -0.02415400
v -0.05365700 0.02821000 -0.02415400
v -0.05365700 0.02252600 -0.02415400
v -0.05301800 0.02737800 -0.02415400
v -0.05301800 0.02335800 -0.02415400
v -0.05261600 0.02640800 -0.02415400
v -0.05261600 0.02432800 -0.02415400
v -0.05247900 0.02536800 -0.02415400
v -0.05448900 0.02884900 -0.02370500
v -0.05365700 0.02821000 -0.02370500
v -0.05301800 0.02737800 -0.02370500
v -0.05261600 0.02640800 -0.02370500
v -0.05247900 0.02536800 -0.02370500
v -0.05261600 0.02432800 -0.02370500
v -0.05301800 0.02335800 -0.02370500
v -0.05365700 0.02252600 -0.02370500
v -0.05448900 0.02188700 -0.02370500
v -0.05545900 0.02148500 -0.02370500
v -0.05649900 0.02134800 -0.02370500
v -0.05753900 0.02148500 -0.02370500
v -0.05850900 0.02188700 -0.02370500
v -0.05934100 0.02252600 -0.02370500
v -0.05998000 0.02335800 -0.02370500
v -0.06038200 0.02432800 -0.02370500
v -0.06051900 0.02536800 -0.02370500
v -0.06038200 0.02640800 -0.02370500
v -0.05998000 0.02737800 -0.02370500
v -0.05934100 0.02821000 -0.02370500
v -0.05850900 0.02884900 -0.02370500
v -0.05753900 0.02925100 -0.02370500
v -0.05649900 0.02938800 -0.02370500
v -0.05545900 0.02925100 -0.02370500
v -0.05688300 -0.02371700 -0.02370500
v -0.05704200 -0.02333300 -0.02370500
v -0.05688300 -0.02371700 -0.01756300
v -0.05704200 -0.02333300 -0.01756300
v -0.05688300 -0.02294900 -0.02370500
v -0.05688300 -0.02294900 -0.01756300
v -0.05649900 -0.02279000 -0.02370500
v -0.05649900 -0.02279000 -0.01756300
v -0.05611500 -0.02294900 -0.02370500
v -0.05611500 -0.02294900 -0.01756300
v -0.05595600 -0.02333300 -0.02370500
v -0.05595600 -0.02333300 -0.01756300
v -0.05611500 -0.02371700 -0.02370500
v -0.05611500 -0.02371700 -0.01756300
v -0.05649900 -0.02387600 -0.02370500
v -0.05649900 -0.02387600 -0.01756300
v -0.06051900 -0.02333300 -0.02415400
v -0.06038200 -0.02437400 -0.02415400
v -0.06038200 -0.02229300 -0.02415400
v -0.05998000 -0.02132300 -0.02415400
v -0.05998000 -0.02534300 -0.02415400
v -0.05934100 -0.02049100 -0.02415400
v -0.05934100 -0.02617600 -0.02415400
v -0.05850900 -0.01985200 -0.02415400
v -0.05850900 -0.02681400 -0.02415400
v -0.05753900 -0.01945100 -0.02415400
v -0.05753900 -0.02721600 -0.02415400
v -0.05649900 -0.01931400 -0.02415400
v -0.05649900 -0.02735300 -0.02415400
v -0.05545900 -0.02721600 -0.02415400
v -0.05545900 -0.01945100 -0.02415400
v -0.05448900 -0.01985200 -0.02415400
v -0.05448900 -0.02681400 -0.02415400
v -0.05365700 -0.02049100 -0.02415400
v -0.05365700 -0.02617500 -0.02415400
v -0.05301800 -0.02132300 -0.02415400
v -0.05301800 -0.02534300 -0.02415400
v -0.05261600 -0.02229300 -0.02415400
v -0.05261600 -0.02437400 -0.02415400
v -0.05247900 -0.02333300 -0.02415400
v -0.05448900 -0.01985200 -0.02370500
v -0.05365700 -0.02049100 -0.02370500
v -0.05301800 -0.02132300 -0.02370500
v -0.05261600 -0.02229300 -0.02370500
v -0.05247900 -0.02333300 -0.02370500
v -0.05261600 -0.02437400 -0.02370500
v -0.05301800 -0.02534300 -0.02370500
v -0.05365700 -0.02617500 -0.02370500
v -0.05448900 -0.02681400 -0.02370500
v -0.05545900 -0.02721600 -0.02370500
v -0.05649900 -0.02735300 -0.02370500
v -0.05753900 -0.02721600 -0.02370500
v -0.05850900 -0.02681400 -0.02370500
v -0.05934100 -0.02617600 -0.02370500
v -0.05998000 -0.02534300 -0.02370500
v -0.06038200 -0.02437400 -0.02370500
v -0.06051900 -0.02333300 -0.02370500
v -0.06038200 -0.02229300 -0.02370500
v -0.05998000 -0.02132300 -0.02370500
v -0.05934100 -0.02049100 -0.02370500
v -0.05850900 -0.01985200 -0.02370500
v -0.05753900 -0.01945100 -0.02370500
v -0.05649900 -0.01931400 -0.02370500
v -0.05545900 -0.01945100 -0.02370500
v -0.04292700 -0.03356900 -0.00717900
v -0.00032800 0.02098500 -0.00717900
v -0.00032800 -0.03356900 -0.00717900
v -0.04292700 0.02098500 -0.00717900
v 0.00134200 0.02265400 -0.00673100
v -0.04459600 0.02265400 -0.00673100
v 0.00134200 -0.03523900 -0.00673100
v -0.04459600 -0.03523900 -0.00673100
v -0.04459600 0.02387700 -0.00550900
v 0.00134200 0.02387700 -0.00550900
v -0.04292700 0.02432400 -0.00383900
v -0.00032800 0.02432400 -0.00383900
v 0.00256500 0.02265400 -0.00550900
v 0.00301200 -0.03356900 -0.00383900
v 0.00301200 0.02098500 -0.00383900
v 0.00256500 -0.03523900 -0.00550900
v -0.04459600 -0.03646100 -0.00550900
v 0.00134200 -0.03646100 -0.00550900
v -0.04581900 -0.03523900 -0.00550900
v -0.04581900 0.02265400 -0.00550900
v -0.04626600 -0.03356900 -0.00383900
v -0.04626600 0.02098500 -0.00383900
v -0.04459600 0.02387700 0.00360900
v -0.04292700 0.02432400 0.00193900
v -0.00032800 0.02432400 0.00193900
v 0.00134200 0.02387700 0.00360900
v 0.00301200 -0.03356900 0.00193900
v 0.00301200 0.02098500 0.00193900
v 0.00256500 0.02265400 0.00360900
v 0.00256500 -0.03523900 0.00360900
v -0.00032800 -0.03690900 -0.00383900
v -0.04292700 -0.03690900 -0.00383900
v -0.04581900 0.02265400 0.00360900
v -0.04626600 0.02098500 0.00193900
v -0.04626600 -0.03356900 0.00193900
v -0.04581900 -0.03523900 0.00360900
v 0.00134200 0.02265400 0.00483200
v 0.00134200 -0.03646100 0.00360900
v -0.00032800 -0.03690900 0.00193900
v -0.04292700 -0.03690900 0.00193900
v -0.04459600 -0.03646100 0.00360900
v -0.04459600 0.02265400 0.00483200
v 0.00134200 -0.03523900 0.00483200
v -0.04459600 -0.03523900 0.00483200
v -0.04292700 0.02098500 0.00527900
v -0.00032800 0.02098500 0.00527900
v -0.00032800 -0.03356900 0.00527900
v -0.04292700 -0.03356900 0.00527900
v 0.00537100 -0.03356900 -0.00717900
v 0.04797000 0.02098500 -0.00717900
v 0.04797000 -0.03356900 -0.00717900
v 0.00537100 0.02098500 -0.00717900
v 0.04964000 0.02265400 -0.00673100
v 0.00370100 0.02265400 -0.00673100
v 0.04964000 -0.03523900 -0.00673100
v 0.00370100 -0.03523900 -0.00673100
v 0.00370100 0.02387700 -0.00550900
v 0.04964000 0.02387700 -0.00550900
v 0.00537100 0.02432400 -0.00383900
v 0.04797000 0.02432400 -0.00383900
v 0.05086200 0.02265400 -0.00550900
v 0.05131000 -0.03356900 -0.00383900
v 0.05131000 0.02098500 -0.00383900
v 0.05086200 -0.03523900 -0.00550900
v 0.00370100 -0.03646100 -0.00550900
v 0.04964000 -0.03646100 -0.00550900
v 0.00247800 -0.03523900 -0.00550900
v 0.00247800 0.02265400 -0.00550900
v 0.00203100 -0.03356900 -0.00383900
v 0.00203100 0.02098500 -0.00383900
v 0.00370100 0.02387700 0.00360900
v 0.00537100 0.02432400 0.00193900
v 0.04797000 0.02432400 0.00193900
v 0.04964000 0.02387700 0.00360900
v 0.05131000 -0.03356900 0.00193900
v 0.05131000 0.02098500 0.00193900
v 0.05086200 0.02265400 0.00360900
v 0.05086200 -0.03523900 0.00360900
v 0.04797000 -0.03690900 -0.00383900
v 0.00537100 -0.03690900 -0.00383900
v 0.00247800 0.02265400 0.00360900
v 0.00203100 0.02098500 0.00193900
v 0.00203100 -0.03356900 0.00193900
v 0.00247800 -0.03523900 0.00360900
v 0.04964000 0.02265400 0.00483200
v 0.04964000 -0.03646100 0.00360900
v 0.04797000 -0.03690900 0.00193900
v 0.00537100 -0.03690900 0.00193900
v 0.00370100 -0.03646100 0.00360900
v 0.00370100 0.02265400 0.00483200
v 0.04964000 -0.03523900 0.00483200
v 0.00370100 -0.03523900 0.00483200
v 0.00537100 0.02098500 0.00527900
v 0.04797000 0.02098500 0.00527900
v 0.04797000 -0.03356900 0.00527900
v 0.00537100 -0.03356900 0.00527900
v -0.04292700 0.01370600 0.02723300
v -0.00032800 0.01229600 0.00655100
v -0.00032800 0.01370600 0.02723300
v -0.04292700 0.01229600 0.00655100
v 0.00134200 0.01270000 0.00588700
v -0.04459600 0.01270000 0.00588700
v 0.00134200 0.01419600 0.02783600
v -0.04459600 0.01419600 0.02783600
v -0.04459600 0.01388800 0.00534100
v 0.00134200 0.01388800 0.00534100
v -0.04292700 0.01554200 0.00505800
v -0.00032800 0.01554200 0.00505800
v 0.00256500 0.01391900 0.00580400
v 0.00301200 0.01703800 0.02700600
v 0.00301200 0.01562800 0.00632400
v 0.00256500 0.01541600 0.02775300
v -0.04459600 0.01544700 0.02821600
v 0.00134200 0.01544700 0.02821600
v -0.04581900 0.01541600 0.02775300
v -0.04581900 0.01391900 0.00580400
v -0.04626600 0.01703800 0.02700600
v -0.04626600 0.01562800 0.00632400
v -0.04459600 0.02298400 0.00472100
v -0.04292700 0.02130700 0.00466500
v -0.00032800 0.02130700 0.00466500
v 0.00134200 0.02298400 0.00472100
v 0.00301200 0.02280300 0.02661300
v 0.00301200 0.02139300 0.00593100
v 0.00256500 0.02301600 0.00518400
v 0.00256500 0.02451200 0.02713300
v -0.00032800 0.01712500 0.02827200
v -0.04292700 0.01712500 0.02827200
v -0.04581900 0.02301600 0.00518400
v -0.04626600 0.02139300 0.00593100
v -0.04626600 0.02280300 0.02661300
v -0.04581900 0.02451200 0.02713300
v 0.00134200 0.02423600 0.00510100
v 0.00134200 0.02454400 0.02759600
v -0.00032800 0.02289000 0.02787900
v -0.04292700 0.02289000 0.02787900
v -0.04459600 0.02454400 0.02759600
v -0.04459600 0.02423600 0.00510100
v 0.00134200 0.02573200 0.02704900
v -0.04459600 0.02573200 0.02704900
v -0.04292700 0.02472500 0.00570400
v -0.00032800 0.02472500 0.00570400
v -0.00032800 0.02613500 0.02638600
v -0.04292700 0.02613500 0.02638600
v 0.00537100 0.01370600 0.02723300
v 0.04797000 0.01229600 0.00655100
v 0.04797000 0.01370600 0.02723300
v 0.00537100 0.01229600 0.00655100
v 0.04964000 0.01270000 0.00588700
v 0.00370100 0.01270000 0.00588700
v 0.04964000 0.01419600 0.02783600
v 0.00370100 0.01419600 0.02783600
v 0.00370100 0.01388800 0.00534100
v 0.04964000 0.01388800 0.00534100
v 0.00537100 0.01554200 0.00505800
v 0.04797000 0.01554200 0.00505800
v 0.05086200 0.01391900 0.00580400
v 0.05131000 0.01703800 0.02700600
v 0.05131000 0.01562800 0.00632400
v 0.05086200 0.01541600 0.02775300
v 0.00370100 0.01544700 0.02821600
v 0.04964000 0.01544700 0.02821600
v 0.00247800 0.01541600 0.02775300
v 0.00247800 0.01391900 0.00580400
v 0.00203100 0.01703800 0.02700600
v 0.00203100 0.01562800 0.00632400
v 0.00370100 0.02298400 0.00472100
v 0.00537100 0.02130700 0.00466500
v 0.04797000 0.02130700 0.00466500
v 0.04964000 0.02298400 0.00472100
v 0.05131000 0.02280300 0.02661300
v 0.05131000 0.02139300 0.00593100
v 0.05086200 0.02301600 0.00518400
v 0.05086200 0.02451200 0.02713300
v 0.04797000 0.01712500 0.02827200
v 0.00537100 0.01712500 0.02827200
v 0.00247800 0.02301600 0.00518400
v 0.00203100 0.02139300 0.00593100
v 0.00203100 0.02280300 0.02661300
v 0.00247800 0.02451200 0.02713300
v 0.04964000 0.02423600 0.00510100
v 0.04964000 0.02454400 0.02759600
v 0.04797000 0.02289000 0.02787900
v 0.00537100 0.02289000 0.02787900
v 0.00370100 0.02454400 0.02759600
v 0.00370100 0.02423600 0.00510100
v 0.04964000 0.02573200 0.02704900
v 0.00370100 0.02573200 0.02704900
v 0.00537100 0.02472500 0.00570400
v 0.04797000 0.02472500 0.00570400
v 0.04797000 0.02613500 0.02638600
v 0.00537100 0.02613500 0.02638600
v -0.04621800 -0.02797300 0.01062400
v -0.04621800 0.02417900 -0.00764600
v -0.04621800 0.02417900 0.01062400
v -0.04621800 -0.02797300 -0.00764600
v -0.04634500 0.02430600 0.01126300
v -0.04634500 -0.02861200 0.01126300
v 0.05175200 0.02417900 0.01062400
v 0.05175200 0.02417900 -0.00764600
v 0.05175200 -0.02797300 -0.00764600
v 0.05187900 0.02430600 0.01126300
v -0.04634500 -0.02861200 -0.00777400
v -0.04670700 0.02466800 0.01180500
v -0.04670700 -0.02915300 0.01180500
v 0.05175200 -0.02797300 0.01062400
v 0.05187900 -0.02861200 -0.00777400
v 0.05187900 -0.02861200 0.01126300
v 0.05224100 0.02466800 0.01180500
v -0.04724800 0.02521000 0.01216700
v -0.04724800 -0.02861200 0.01216700
v -0.04670700 -0.02915300 -0.00813600
v -0.06265000 -0.02797300 0.01062400
v -0.06252300 0.03064600 0.01126300
v -0.06265000 0.03000700 0.01062400
v -0.06252300 -0.02861200 0.01126300
v 0.05224100 -0.02915300 -0.00813600
v 0.05224100 -0.02915300 0.01180500
v 0.05278200 0.02521000 0.01216700
v 0.05342100 -0.02797300 0.01229400
v 0.05342100 0.02584900 0.01229400
v 0.05278200 -0.02861200 0.01216700
v -0.04788700 0.02584900 0.01229400
v -0.04788700 -0.02797300 0.01229400
v -0.06098000 -0.02797300 0.01229400
v -0.06161900 -0.02861200 0.01216700
v -0.06161900 0.03064600 0.01216700
v -0.06098000 0.03000700 0.01229400
v -0.06216100 -0.02915300 0.01180500
v -0.04724800 -0.02951500 0.01126300
v -0.04724800 -0.02951500 -0.00867700
v -0.06265000 0.03000700 -0.01567400
v -0.06265000 -0.02797300 -0.01567400
v -0.06252300 -0.02861200 -0.01631300
v -0.06216100 0.03118800 0.01180500
v -0.06252300 0.03064600 -0.01631300
v -0.04788700 -0.02964200 0.01062400
v -0.04788700 -0.02964200 -0.00931600
v 0.05278200 -0.02951500 -0.00867700
v 0.05342100 -0.02964200 -0.00931600
v -0.06098000 -0.02964200 0.01062400
v -0.06161900 -0.02951500 0.01126300
v 0.05342100 -0.02964200 0.01062400
v 0.05278200 -0.02951500 0.01126300
v 0.06715300 -0.02861200 0.01216700
v 0.06651400 -0.02797300 0.01229400
v 0.06651400 0.03000700 0.01229400
v 0.06715300 0.03064600 0.01216700
v -0.06098000 -0.02964200 -0.01567400
v -0.06161900 -0.02951500 -0.01631300
v -0.06216100 -0.02915300 -0.01685400
v -0.06216100 0.03118800 -0.01685400
v -0.06098000 0.03167700 -0.01567400
v -0.06161900 0.03155000 0.01126300
v -0.06098000 0.03167700 0.01062400
v -0.06161900 0.03155000 -0.01631300
v 0.06651400 -0.02964200 0.01062400
v 0.06651400 -0.02964200 -0.01567400
v 0.06715300 -0.02951500 0.01126300
v 0.06769500 -0.02915300 0.01180500
v 0.06769500 0.03118800 0.01180500
v 0.06715300 0.03155000 0.01126300
v 0.06651400 0.03167700 0.01062400
v 0.06651400 0.03167700 -0.01567400
v 0.06715300 -0.02951500 -0.01631300
v 0.06715300 0.03155000 -0.01631300
v -0.06161900 -0.02861200 -0.01721600
v -0.06098000 0.03000700 -0.01734400
v -0.06098000 -0.02797300 -0.01734400
v -0.06161900 0.03064600 -0.01721600
v 0.06769500 -0.02915300 -0.01685400
v 0.06769500 0.03118800 -0.01685400
v 0.06715300 0.03064600 -0.01721600
v 0.06651400 0.03000700 -0.01734300
v 0.06651400 -0.02797300 -0.01734400
v 0.06715300 -0.02861200 -0.01721600
v 0.06805700 -0.02861200 0.01126300
v 0.06805700 0.03064600 0.01126300
v 0.06805700 -0.02861200 -0.01631300
v 0.06805700 0.03064600 -0.01631300
vn 0.00000000 0.00000000 -0.00000000
vn 0.00000000 -0.00000000 0.00000000
vn -0.00000000 -0.00000000 0.00000000
vn -0.00000000 0.00000000 -0.00000000
vn -0.00000000 0.00000000 -0.00000000
vn 0.00000000 -0.00000000 0.00000000
vn -0.00000000 0.00000000 -0.00000000
vn 0.00000000 -0.00000000 0.00000000
vn 0.00000000 0.00000000 -0.00000000
vn -0.00000000 -0.00000000 0.00000000
vn 0.00000000 -0.00000000 -0.00000000
vn 0.00000000 0.00000000 -0.00000000
vn -0.00000000 0.00000000 0.00000000
vn 0.00000000 -0.00000000 -0.00000000
vn 0.00000000 0.00000000 0.00000000
vn 0.00000000 0.00000000 0.00000000
vn 0.00000000 -0.00000000 -0.00000000
vn 0.00000000 0.00000000 -0.00000000
vn -0.00000000 0.00000000 0.00000000
vn 0.00000000 -0.00000000 0.00000000
vn -0.00000000 -0.00000000 0.00000000
vn -0.00000000 0.00000000 -0.00000000
vn 0.00000000 0.00000000 -0.00000000
vn 0.00000000 0.00000000 0.00000000
vn 0.00000000 -0.00000000 0.00000000
vn 0.00000000 0.00000000 0.00000000
vn 0.00000000 0.00000000 -0.00000000
vn 0.00000000 -0.00000000 0.00000000
vn 0.00000000 -0.00000000 0.00000000
vn 0.00000000 -0.00000000 0.00000000
vn 0.00000000 0.00000000 -0.00000000
vn -0.00000000 0.00000000 -0.00000000
vn -0.00000000 0.00000000 0.00000000
vn -0.00000000 -0.00000000 0.00000000
vn -0.00000000 0.00000000 0.00000000
vn 0.00000000 0.00000000 -0.00000000
vn -0.00000000 0.00000000 -0.00000000
vn -0.00000000 -0.00000000 0.00000000
vn 0.00000000 -0.00000000 -0.00000000
vn 0.00000000 0.00000000 0.00000000
vn 0.00000000 0.00000000 0.00000000
vn 0.00000000 0.00000000 -0.00000000
vn -0.00000000 -0.00000000 -0.00000000
vn 0.00000000 0.00000000 -0.00000000
vn 0.00000000 -0.00000000 0.00000000
vn -0.00000000 0.00000000 0.00000000
vn 0.00000000 0.00000000 0.00000000
vn 0.00000000 -0.00000000 0.00000000
vn 0.00000000 -0.00000000 0.00000000
vn -0.00000000 -0.00000000 -0.00000000
vn 0.00000000 0.00000000 -0.00000000
vn -0.00000000 -0.00000000 -0.00000000
vn 0.00000000 0.00000000 -0.00000000
vn 0.00000000 0.00000000 0.00000000
vn 0.00000000 0.00000000 -0.00000000
vn -0.00000000 -0.00000000 -0.00000000
vn -0.00000000 0.00000000 0.00000000
vn 0.00000000 -0.00000000 0.00000000
vn -0.00000000 0.00000000 -0.00000000
vn 0.00000000 -0.00000000 0.00000000
vn 0.00000000 0.00000000 0.00000000
vn 0.00000000 -0.00000000 -0.00000000
vn -0.00000000 0.00000000 0.00000000
vn -0.00000000 0.00000000 -0.00000000
vn 0.00000000 -0.00000000 -0.00000000
vn 0.00000000 -0.00000000 0.00000000
vn 0.00000000 0.00000000 0.00000000
vn -0.00000000 0.00000000 -0.00000000
vn -0.00000000 0.00000000 0.00000000
vn 0.00000000 -0.00000000 0.00000000
vn -0.00000000 0.00000000 0.00000000
vn 0.00000000 -0.00000000 0.00000000
vn 0.00000000 0.00000000 0.00000000
vn -0.00000000 -0.00000000 0.00000000
vn -0.00000000 -0.00000000 -0.00000000
vn 0.00000000 0.00000000 -0.00000000
vn -0.00000000 0.00000000 0.00000000
vn 0.00000000 -0.00000000 0.00000000
vn 0.00000000 0.00000000 0.00000000
vn -0.00000000 0.00000000 0.00000000
vn 0.00000000 -0.00000000 -0.00000000
vn 0.00000000 0.00000000 0.00000000
vn -0.00000000 0.00000000 0.00000000
vn 0.00000000 -0.00000000 -0.00000000
vn -0.00000000 -0.00000000 0.00000000
vn 0.00000000 -0.00000000 -0.00000000
vn -0.00000000 -0.00000000 -0.00000000
vn -0.00000000 0.00000000 0.00000000
vn -0.00000000 -0.00000000 0.00000000
vn 0.00000000 -0.00000000 0.00000000
vn -0.00000000 -0.00000000 -0.00000000
vn -0.00000000 0.00000000 0.00000000
vn 0.00000000 0.00000000 0.00000000
vn 0.00000000 -0.00000000 0.00000000
vn 0.00000000 0.00000000 0.00000000
vn -0.00000000 -0.00000000 -0.00000000
vn -0.00000000 0.00000000 -0.00000000
vn 0.00000000 0.00000000 0.00000000
vn -0.00000000 0.00000000 0.00000000
vn 0.00000000 0.00000000 -0.00000000
vn -0.00000000 0.00000000 0.00000000
vn -0.00000000 -0.00000000 0.00000000
vn 0.00000000 -0.00000000 -0.00000000
vn 0.00000000 -0.00000000 0.00000000
vn 0.00000000 0.00000000 0.00000000
vn -0.00000000 -0.00000000 -0.00000000
vn -0.00000000 -0.00000000 0.00000000
vn 0.00000000 0.00000000 -0.00000000
vn -0.00000000 0.00000000 0.00000000
vn -0.00000000 0.00000000 0.00000000
vn 0.00000000 0.00000000 0.00000000
vn 0.00000000 -0.00000000 -0.00000000
vn 0.00000000 -0.00000000 -0.00000000
vn -0.00000000 0.00000000 -0.00000000
vn 0.00000000 -0.00000000 -0.00000000
vn 0.00000000 0.00000000 0.00000000
vn 0.00000000 0.00000000 -0.00000000
vn 0.00000000 0.00000000 0.00000000
vn 0.00000000 0.00000000 -0.00000000
vn -0.00000000 -0.00000000 -0.00000000
vn -0.00000000 0.00000000 0.00000000
vn 0.00000000 -0.00000000 -0.00000000
vn -0.00000000 0.00000000 -0.00000000
vn -0.00000000 0.00000000 0.00000000
vn 0.00000000 -0.00000000 0.00000000
vn -0.00000000 0.00000000 -0.00000000
vn 0.00000000 -0.00000000 -0.00000000
vn -0.00000000 -0.00000000 0.00000000
vn 0.00000000 -0.00000000 -0.00000000
vn 0.00000000 -0.00000000 -0.00000000
vn 0.00000000 0.00000000 0.00000000
vn -0.00000000 0.00000000 -0.00000000
vn -0.00000000 0.00000000 0.00000000
vn 0.00000000 -0.00000000 0.00000000
vn -0.00000000 0.00000000 0.00000000
vn 0.00000000 -0.00000000 0.00000000
vn 0.00000000 0.00000000 0.00000000
vn -0.00000000 -0.00000000 0.00000000
vn -0.00000000 -0.00000000 -0.00000000
vn 0.00000000 0.00000000 -0.00000000
vn -0.00000000 0.00000000 0.00000000
vn 0.00000000 -0.00000000 0.00000000
vn 0.00000000 0.00000000 0.00000000
vn -0.00000000 0.00000000 0.00000000
vn 0.00000000 -0.00000000 -0.00000000
vn 0.00000000 0.00000000 -0.00000000
vn -0.00000000 0.00000000 0.00000000
vn 0.00000000 0.00000000 0.00000000
vn 0.00000000 0.00000000 0.00000000
vn 0.00000000 -0.00000000 -0.00000000
vn 0.00000000 0.00000000 -0.00000000
vn 0.00000000 0.00000000 -0.00000000
vn 0.00000000 0.00000000 -0.00000000
vn -0.00000000 -0.00000000 0.00000000
vn -0.00000000 -0.00000000 0.00000000
vn -0.00000000 0.00000000 0.00000000
vn 0.00000000 0.00000000 0.00000000
vn -0.00000000 0.00000000 -0.00000000
vn 0.00000000 0.00000000 -0.00000000
vn 0.00000000 -0.00000000 0.00000000
vn 0.00000000 0.00000000 0.00000000
vn 0.00000000 0.00000000 0.00000000
vn -0.00000000 0.00000000 0.00000000
vn -0.00000000 0.00000000 -0.00000000
vn -0.00000000 0.00000000 -0.00000000
vn -0.00000000 -0.00000000 0.00000000
vn 0.00000000 -0.00000000 0.00000000
vn 0.00000000 0.00000000 -0.00000000
vn 0.00000000 0.00000000 0.00000000
vn -0.00000000 -0.00000000 -0.00000000
vn -0.00000000 0.00000000 0.00000000
vn 0.00000000 0.00000000 -0.00000000
vn 0.00000000 -0.00000000 0.00000000
vn -0.00000000 0.00000000 -0.00000000
vn 0.00000000 0.00000000 0.00000000
vn 0.00000000 0.00000000 0.00000000
vn 0.00000000 0.00000000 -0.00000000
vn 0.00000000 0.00000000 -0.00000000
vn 0.00000000 -0.00000000 0.00000000
vn 0.00000000 0.00000000 -0.00000000
vn 0.00000000 0.00000000 -0.00000000
vn 0.00000000 -0.00000000 0.00000000
vn 0.00000000 0.00000000 -0.00000000
vn -0.00000000 -0.00000000 -0.00000000
vn -0.00000000 0.00000000 0.00000000
vn 0.00000000 -0.00000000 0.00000000
vn 0.00000000 0.00000000 -0.00000000
vn -0.00000000 0.00000000 0.00000000
vn 0.00000000 0.00000000 0.00000000
vn 0.00000000 0.00000000 0.00000000
vn 0.00000000 0.00000000 -0.00000000
vn 0.00000000 -0.00000000 0.00000000
vn 0.00000000 0.00000000 -0.00000000
vn 0.00000000 -0.00000000 -0.00000000
vn -0.00000000 -0.00000000 0.00000000
vn -0.00000000 0.00000000 -0.00000000
vn -0.00000000 0.00000000 -0.00000000
vn 0.00000000 -0.00000000 0.00000000
vn -0.00000000 0.00000000 -0.00000000
vn 0.00000000 -0.00000000 0.00000000
vn 0.00000000 0.00000000 -0.00000000
vn -0.00000000 -0.00000000 0.00000000
vn 0.00000000 -0.00000000 -0.00000000
vn 0.00000000 0.00000000 -0.00000000
vn -0.00000000 0.00000000 0.00000000
vn 0.00000000 -0.00000000 -0.00000000
vn 0.00000000 0.00000000 0.00000000
vn 0.00000000 0.00000000 0.00000000
vn 0.00000000 -0.00000000 -0.00000000
vn 0.00000000 0.00000000 0.00000000
vn -0.00000000 0.00000000 0.00000000
vn 0.00000000 -0.00000000 0.00000000
vn -0.00000000 -0.00000000 0.00000000
vn -0.00000000 0.00000000 -0.00000000
vn 0.00000000 0.00000000 -0.00000000
vn 0.00000000 0.00000000 0.00000000
vn -0.00000000 0.00000000 0.00000000
vn -0.00000000 0.00000000 -0.00000000
vn -0.00000000 -0.00000000 -0.00000000
vn -0.00000000 -0.00000000 0.00000000
vn 0.00000000 -0.00000000 0.00000000
vn -0.00000000 0.00000000 -0.00000000
vn 0.00000000 0.00000000 -0.00000000
vn 0.00000000 0.00000000 0.00000000
vn 0.00000000 0.00000000 0.00000000
vn -0.00000000 -0.00000000 0.00000000
vn -0.00000000 0.00000000 0.00000000
vn 0.00000000 0.00000000 -0.00000000
vn -0.00000000 0.00000000 -0.00000000
vn -0.00000000 -0.00000000 0.00000000
vn 0.00000000 -0.00000000 0.00000000
vn 0.00000000 0.00000000 -0.00000000
vn 0.00000000 0.00000000 0.00000000
vn 0.00000000 0.00000000 -0.00000000
vn -0.00000000 -0.00000000 -0.00000000
vn 0.00000000 0.00000000 0.00000000
vn -0.00000000 -0.00000000 0.00000000
vn -0.00000000 0.00000000 -0.00000000
vn 0.00000000 0.00000000 0.00000000
vn 0.00000000 0.00000000 0.00000000
vn 0.00000000 0.00000000 -0.00000000
vn 0.00000000 -0.00000000 0.00000000
vn 0.00000000 0.00000000 0.00000000
vn 0.00000000 0.00000000 0.00000000
vn -0.00000000 -0.00000000 -0.00000000
vn 0.00000000 -0.00000000 0.00000000
vn 0.00000000 0.00000000 -0.00000000
vn -0.00000000 -0.00000000 -0.00000000
vn -0.00000000 0.00000000 0.00000000
vn 0.00000000 -0.00000000 0.00000000
vn -0.00000000 0.00000000 -0.00000000
vn 0.00000000 -0.00000000 0.00000000
vn -0.00000000 0.00000000 0.00000000
vn 0.00000000 -0.00000000 -0.00000000
vn 0.00000000 -0.00000000 0.00000000
vn 0.00000000 0.00000000 0.00000000
vn -0.00000000 0.00000000 0.00000000
vn 0.00000000 0.00000000 -0.00000000
vn -0.00000000 -0.00000000 -0.00000000
vn 0.00000000 -0.00000000 0.00000000
vn 0.00000000 0.00000000 0.00000000
vn -0.00000000 -0.00000000 -0.00000000
vn -0.00000000 -0.00000000 0.00000000
vn 0.00000000 0.00000000 0.00000000
vn 0.00000000 0.00000000 -0.00000000
vn 0.00000000 -0.00000000 0.00000000
vn -0.00000000 0.00000000 -0.00000000
vn 0.00000000 0.00000000 -0.00000000
vn -0.00000000 -0.00000000 0.00000000
vn 0.00000000 -0.00000000 0.00000000
vn 0.00000000 0.00000000 -0.00000000
vn 0.00000000 0.00000000 -0.00000000
vn -0.00000000 0.00000000 -0.00000000
vn 0.00000000 -0.00000000 0.00000000
vn -0.00000000 0.00000000 -0.00000000
vn 0.00000000 0.00000000 0.00000000
vn 0.00000000 0.00000000 0.00000000
vn -0.00000000 0.00000000 -0.00000000
vn 0.00000000 -0.00000000 -0.00000000
vn 0.00000000 -0.00000000 -0.00000000
vn -0.00000000 0.00000000 0.00000000
vn 0.00000000 0.00000000 0.00000000
vn -0.00000000 -0.00000000 -0.00000000
vn 0.00000000 0.00000000 0.00000000
vn -0.00000000 0.00000000 -0.00000000
vn 0.00000000 -0.00000000 0.00000000
vn -0.00000000 0.00000000 0.00000000
vn 0.00000000 -0.00000000 -0.00000000
vn 0.00000000 -0.00000000 -0.00000000
vn 0.00000000 -0.00000000 0.00000000
vn -0.00000000 -0.00000000 -0.00000000
vn -0.00000000 -0.00000000 0.00000000
vn 0.00000000 -0.00000000 -0.00000000
vn -0.00000000 0.00000000 -0.00000000
vn 0.00000000 -0.00000000 0.00000000
vn 0.00000000 0.00000000 -0.00000000
vn 0.00000000 -0.00000000 0.00000000
vn -0.00000000 0.00000000 0.00000000
vn -0.00000000 -0.00000000 0.00000000
vn 0.00000000 0.00000000 -0.00000000
vn 0.00000000 -0.00000000 -0.00000000
vn 0.00000000 0.00000000 0.00000000
vn -0.00000000 0.00000000 -0.00000000
vn -0.00000000 0.00000000 0.00000000
vn 0.00000000 0.00000000 0.00000000
vn 0.00000000 0.00000000 -0.00000000
vn -0.00000000 -0.00000000 -0.00000000
vn -0.00000000 -0.00000000 -0.00000000
vn 0.00000000 0.00000000 -0.00000000
vn -0.00000000 -0.00000000 -0.00000000
vn -0.00000000 0.00000000 0.00000000
vn 0.00000000 -0.00000000 -0.00000000
vn 0.00000000 -0.00000000 -0.00000000
vn -0.00000000 0.00000000 0.00000000
vn -0.00000000 0.00000000 -0.00000000
vn -0.00000000 -0.00000000 0.00000000
vn -0.00000000 -0.00000000 0.00000000
vn -0.00000000 0.00000000 0.00000000
vn 0.00000000 0.00000000 -0.00000000
vn 0.00000000 -0.00000000 -0.00000000
vn 0.00000000 0.00000000 0.00000000
vn -0.00000000 -0.00000000 -0.00000000
vn -0.00000000 0.00000000 -0.00000000
vn 0.00000000 0.00000000 0.00000000
vn 0.00000000 0.00000000 0.00000000
vn -0.00000000 0.00000000 -0.00000000
vn -0.00000000 -0.00000000 -0.00000000
vn 0.00000000 -0.00000000 -0.00000000
vn 0.00000000 0.00000000 0.00000000
vn 0.00000000 0.00000000 0.00000000
vn -0.00000000 0.00000000 -0.00000000
vn 0.00000000 -0.00000000 0.00000000
vn -0.00000000 -0.00000000 -0.00000000
vn 0.00000000 -0.00000000 0.00000000
vn 0.00000000 0.00000000 0.00000000
vn 0.00000000 -0.00000000 -0.00000000
vn 0.00000000 0.00000000 -0.00000000
vn 0.00000000 -0.00000000 0.00000000
vn -0.00000000 0.00000000 -0.00000000
vn -0.00000000 0.00000000 0.00000000
vn 0.00000000 -0.00000000 -0.00000000
vn 0.00000000 0.00000000 -0.00000000
vn -0.00000000 -0.00000000 0.00000000
vn 0.00000000 0.00000000 -0.00000000
vn -0.00000000 -0.00000000 0.00000000
vn -0.00000000 0.00000000 0.00000000
vn -0.00000000 -0.00000000 0.00000000
vn 0.00000000 0.00000000 -0.00000000
vn -0.00000000 0.00000000 0.00000000
vn 0.00000000 -0.00000000 0.00000000
vn -0.00000000 0.00000000 -0.00000000
vn 0.00000000 -0.00000000 0.00000000
vn 0.00000000 0.00000000 -0.00000000
vn -0.00000000 -0.00000000 -0.00000000
vn 0.00000000 -0.00000000 0.00000000
vn -0.00000000 0.00000000 0.00000000
vn 0.00000000 0.00000000 0.00000000
vn 0.00000000 -0.00000000 -0.00000000
vn -0.00000000 0.00000000 -0.00000000
vn 0.00000000 -0.00000000 0.00000000
vn -0.00000000 -0.00000000 -0.00000000
vn 0.00000000 0.00000000 0.00000000
vn -0.00000000 -0.00000000 -0.00000000
vn 0.00000000 -0.00000000 0.00000000
vn 0.00000000 -0.00000000 0.00000000
vn 0.00000000 -0.00000000 -0.00000000
vn -0.00000000 0.00000000 -0.00000000
vn 0.00000000 0.00000000 0.00000000
vn 0.00000000 0.00000000 -0.00000000
vn -0.00000000 -0.00000000 0.00000000
vn -0.00000000 -0.00000000 0.00000000
vn -0.00000000 -0.00000000 0.00000000
vn 0.00000000 0.00000000 -0.00000000
vn 0.00000000 0.00000000 0.00000000
vn -0.00000000 -0.00000000 0.00000000
vn 0.00000000 0.00000000 -0.00000000
vn -0.00000000 -0.00000000 0.00000000
vn 0.00000000 0.00000000 -0.00000000
vn 0.00000000 0.00000000 0.00000000
vn 0.00000000 0.00000000 -0.00000000
vn -0.00000000 -0.00000000 0.00000000
vn -0.00000000 0.00000000 -0.00000000
vn -0.00000000 0.00000000 0.00000000
vn -0.00000000 0.00000000 0.00000000
vn -0.00000000 0.00000000 -0.00000000
vn -0.00000000 0.00000000 -0.00000000
vn -0.00000000 0.00000000 0.00000000
vn 0.00000000 0.00000000 -0.00000000
vn 0.00000000 -0.00000000 0.00000000
vn 0.00000000 -0.00000000 -0.00000000
vn 0.00000000 0.00000000 -0.00000000
vn 0.00000000 -0.00000000 0.00000000
vn 0.00000000 0.00000000 0.00000000
vn -0.00000000 0.00000000 -0.00000000
vn -0.00000000 0.00000000 0.00000000
vn 0.00000000 -0.00000000 -0.00000000
vn 0.00000000 -0.00000000 0.00000000
vn 0.00000000 0.00000000 -0.00000000
vn -0.00000000 0.00000000 0.00000000
vn -0.00000000 -0.00000000 -0.00000000
vn 0.00000000 0.00000000 -0.00000000
vn -0.00000000 0.00000000 0.00000000
vn 0.00000000 -0.00000000 0.00000000
vn -0.00000000 -0.00000000 -0.00000000
vn 0.00000000 -0.00000000 0.00000000
vn 0.00000000 0.00000000 -0.00000000
vn -0.00000000 0.00000000 -0.00000000
vn 0.00000000 -0.00000000 0.00000000
vn -0.00000000 -0.00000000 -0.00000000
vn -0.00000000 -0.00000000 -0.00000000
vn -0.00000000 -0.00000000 -0.00000000
vn -0.00000000 0.00000000 0.00000000
vn -0.00000000 0.00000000 -0.00000000
vn 0.00000000 -0.00000000 0.00000000
vn -0.00000000 0.00000000 0.00000000
vn 0.00000000 -0.00000000 0.00000000
vn -0.00000000 0.00000000 0.00000000
vn -0.00000000 -0.00000000 -0.00000000
vn -0.00000000 -0.00000000 -0.00000000
vn -0.00000000 -0.00000000 0.00000000
vn 0.00000000 0.00000000 -0.00000000
vn 0.00000000 0.00000000 -0.00000000
vn 0.00000000 0.00000000 -0.00000000
vn 0.00000000 0.00000000 0.00000000
vn 0.00000000 0.00000000 -0.00000000
vn 0.00000000 -0.00000000 0.00000000
vn 0.00000000 0.00000000 -0.00000000
vn 0.00000000 -0.00000000 -0.00000000
vn -0.00000000 -0.00000000 0.00000000
vn 0.00000000 0.00000000 -0.00000000
vn 0.00000000 -0.00000000 0.00000000
vn -0.00000000 0.00000000 -0.00000000
vn -0.00000000 0.00000000 0.00000000
vn -0.00000000 0.00000000 -0.00000000
vn -0.00000000 0.00000000 0.00000000
vn 0.00000000 0.00000000 0.00000000
vn 0.00000000 0.00000000 0.00000000
vn 0.00000000 -0.00000000 0.00000000
vn -0.00000000 0.00000000 -0.00000000
vn 0.00000000 0.00000000 0.00000000
vn 0.00000000 0.00000000 0.00000000
vn -0.00000000 0.00000000 -0.00000000
vn -0.00000000 -0.00000000 0.00000000
vn 0.00000000 -0.00000000 0.00000000
vn 0.00000000 -0.00000000 0.00000000
vn 0.00000000 0.00000000 -0.00000000
vn -0.00000000 0.00000000 0.00000000
vn -0.00000000 -0.00000000 -0.00000000
vn 0.00000000 0.00000000 0.00000000
vn 0.00000000 0.00000000 0.00000000
vn -0.00000000 -0.00000000 -0.00000000
vn 0.00000000 -0.00000000 0.00000000
vn 0.00000000 0.00000000 -0.00000000
vn -0.00000000 -0.00000000 -0.00000000
vn 0.00000000 0.00000000 -0.00000000
vn 0.00000000 0.00000000 -0.00000000
vn -0.00000000 0.00000000 -0.00000000
vn -0.00000000 -0.00000000 0.00000000
vn -0.00000000 0.00000000 -0.00000000
vn -0.00000000 -0.00000000 0.00000000
vn 0.00000000 -0.00000000 0.00000000
vn -0.00000000 0.00000000 0.00000000
vn 0.00000000 -0.00000000 0.00000000
vn -0.00000000 -0.00000000 0.00000000
vn -0.00000000 0.00000000 -0.00000000
vn 0.00000000 0.00000000 0.00000000
vn -0.00000000 0.00000000 0.00000000
vn -0.00000000 0.00000000 -0.00000000
vn 0.00000000 0.00000000 -0.00000000
vn -0.00000000 0.00000000 0.00000000
vn 0.00000000 -0.00000000 0.00000000
vn 0.00000000 -0.00000000 -0.00000000
vn 0.00000000 -0.00000000 0.00000000
vn 0.00000000 -0.00000000 -0.00000000
vn 0.00000000 -0.00000000 -0.00000000
vn 0.00000000 0.00000000 -0.00000000
vn -0.00000000 0.00000000 0.00000000
vn -0.00000000 -0.00000000 0.00000000
vn 0.00000000 0.00000000 -0.00000000
vn -0.00000000 -0.00000000 -0.00000000
vn 0.00000000 0.00000000 -0.00000000
vn 0.00000000 -0.00000000 0.00000000
vn -0.00000000 -0.00000000 -0.00000000
vn -0.00000000 0.00000000 0.00000000
vn -0.00000000 0.00000000 0.00000000
vn 0.00000000 -0.00000000 -0.00000000
vn -0.00000000 -0.00000000 0.00000000
vn -0.00000000 0.00000000 -0.00000000
vn 0.00000000 0.00000000 0.00000000
vn -0.00000000 0.00000000 -0.00000000
vn 0.00000000 -0.00000000 -0.00000000
vn 0.00000000 -0.00000000 0.00000000
vn -0.00000000 0.00000000 0.00000000
vn 0.00000000 -0.00000000 0.00000000
vn 0.00000000 0.00000000 -0.00000000
vn -0.00000000 0.00000000 -0.00000000
vn 0.00000000 -0.00000000 0.00000000
vn -0.00000000 -0.00000000 -0.00000000
vn 0.00000000 0.00000000 0.00000000
vn -0.00000000 -0.00000000 -0.00000000
vn -0.00000000 0.00000000 -0.00000000
vn 0.00000000 -0.00000000 0.00000000
vn -0.00000000 -0.00000000 -0.00000000
vn 0.00000000 0.00000000 0.00000000
vn 0.00000000 0.00000000 0.00000000
vn 0.00000000 -0.00000000 -0.00000000
vn -0.00000000 -0.00000000 -0.00000000
vn -0.00000000 0.00000000 0.00000000
vn 0.00000000 -0.00000000 0.00000000
vn -0.00000000 -0.00000000 0.00000000
vn 0.00000000 0.00000000 0.00000000
vn 0.00000000 0.00000000 -0.00000000
vn 0.00000000 -0.00000000 0.00000000
vn -0.00000000 -0.00000000 -0.00000000
vn 0.00000000 -0.00000000 -0.00000000
vn 0.00000000 0.00000000 0.00000000
vn -0.00000000 -0.00000000 -0.00000000
vn 0.00000000 0.00000000 -0.00000000
vn 0.00000000 -0.00000000 -0.00000000
vn -0.00000000 0.00000000 -0.00000000
vn -0.00000000 0.00000000 0.00000000
vn -0.00000000 -0.00000000 0.00000000
vn 0.00000000 0.00000000 0.00000000
vn 0.00000000 -0.00000000 0.00000000
vn -0.00000000 -0.00000000 -0.00000000
vn -0.00000000 -0.00000000 -0.00000000
vn 0.00000000 -0.00000000 0.00000000
vn 0.00000000 0.00000000 0.00000000
vn -0.00000000 0.00000000 0.00000000
vn 0.00000000 0.00000000 -0.00000000
vn 0.00000000 -0.00000000 -0.00000000
vn -0.00000000 -0.00000000 0.00000000
vn -0.00000000 0.00000000 -0.00000000
vn 0.00000000 0.00000000 0.00000000
vn 0.00000000 -0.00000000 -0.00000000
vn -0.00000000 -0.00000000 0.00000000
f 1//1 2//2 3//3
f 4//4 3//3 2//2
f 2//2 3//3 4//4
f 3//3 2//2 1//1
f 2//2 5//5 4//4
f 6//6 4//4 5//5
f 5//5 4//4 6//6
f 4//4 5//5 2//2
f 5//5 7//7 6//6
f 8//8 6//6 7//7
f 7//7 6//6 8//8
f 6//6 7//7 5//5
f 7//7 9//9 8//8
f 10//10 8//8 9//9
f 9//9 8//8 10//10
f 8//8 9//9 7//7
f 11//11 12//12 9//9
f 10//10 9//9 12//12
f 12//12 9//9 10//10
f 9//9 12//12 11//11
f 13//13 14//14 11//11
f 12//12 11//11 14//14
f 14//14 11//11 12//12
f 11//11 14//14 13//13
f 13//13 15//15 14//14
f 16//16 14//14 15//15
f 15//15 14//14 16//16
f 14//14 15//15 13//13
f 15//15 1//1 16//16
f 3//3 16//16 1//1
f 1//1 16//16 3//3
f 16//16 1//1 15//15
f 4//4 6//6 3//3
f 16//16 3//3 6//6
f 8//8 16//16 6//6
f 14//14 16//16 8//8
f 10//10 14//14 8//8
f 12//12 14//14 10//10
f 10//10 14//14 12//12
f 8//8 14//14 10//10
f 8//8 16//16 14//14
f 6//6 16//16 8//8
f 6//6 3//3 16//16
f 3//3 6//6 4//4
f 17//17 18//18 19//19
f 20//20 19//19 18//18
f 21//21 20//20 18//18
f 22//22 20//20 21//21
f 23//23 22//22 21//21
f 24//24 22//22 23//23
f 25//25 24//24 23//23
f 26//26 24//24 25//25
f 27//27 26//26 25//25
f 28//28 26//26 27//27
f 29//29 28//28 27//27
f 30//30 28//28 29//29
f 31//31 28//28 30//30
f 32//32 31//31 30//30
f 33//33 32//32 30//30
f 34//34 32//32 33//33
f 35//35 34//34 33//33
f 36//36 34//34 35//35
f 37//37 36//36 35//35
f 38//38 36//36 37//37
f 39//39 38//38 37//37
f 40//40 38//38 39//39
f 39//39 38//38 40//40
f 37//37 38//38 39//39
f 37//37 36//36 38//38
f 35//35 36//36 37//37
f 35//35 34//34 36//36
f 33//33 34//34 35//35
f 33//33 32//32 34//34
f 30//30 32//32 33//33
f 30//30 31//31 32//32
f 30//30 28//28 31//31
f 29//29 28//28 30//30
f 27//27 28//28 29//29
f 27//27 26//26 28//28
f 25//25 26//26 27//27
f 25//25 24//24 26//26
f 23//23 24//24 25//25
f 23//23 22//22 24//24
f 21//21 22//22 23//23
f 21//21 20//20 22//22
f 18//18 20//20 21//21
f 18//18 19//19 20//20
f 19//19 18//18 17//17
f 32//32 34//34 41//41
f 42//42 41//41 34//34
f 34//34 41//41 42//42
f 41//41 34//34 32//32
f 36//36 43//43 34//34
f 42//42 34//34 43//43
f 43//43 34//34 42//42
f 34//34 43//43 36//36
f 38//38 44//44 36//36
f 43//43 36//36 44//44
f 44//44 36//36 43//43
f 36//36 44//44 38//38
f 40//40 45//45 38//38
f 44//44 38//38 45//45
f 45//45 38//38 44//44
f 38//38 45//45 40//40
f 39//39 46//46 40//40
f 45//45 40//40 46//46
f 46//46 40//40 45//45
f 40//40 46//46 39//39
f 37//37 47//47 39//39
f 46//46 39//39 47//47
f 47//47 39//39 46//46
f 39//39 47//47 37//37
f 35//35 48//48 37//37
f 47//47 37//37 48//48
f 48//48 37//37 47//47
f 37//37 48//48 35//35
f 33//33 49//49 35//35
f 48//48 35//35 49//49
f 49//49 35//35 48//48
f 35//35 49//49 33//33
f 30//30 50//50 33//33
f 49//49 33//33 50//50
f 50//50 33//33 49//49
f 33//33 50//50 30//30
f 29//29 51//51 30//30
f 50//50 30//30 51//51
f 51//51 30//30 50//50
f 30//30 51//51 29//29
f 29//29 27//27 51//51
f 52//52 51//51 27//27
f 27//27 51//51 52//52
f 51//51 27//27 29//29
f 25//25 53//53 27//27
f 52//52 27//27 53//53
f 53//53 27//27 52//52
f 27//27 53//53 25//25
f 23//23 54//54 25//25
f 53//53 25//25 54//54
f 54//54 25//25 53//53
f 25//25 54//54 23//23
f 54//54 23//23 55//55
f 21//21 55//55 23//23
f 23//23 55//55 21//21
f 55//55 23//23 54//54
f 55//55 21//21 56//56
f 18//18 56//56 21//21
f 21//21 56//56 18//18
f 56//56 21//21 55//55
f 56//56 18//18 57//57
f 17//17 57//57 18//18
f 18//18 57//57 17//17
f 57//57 18//18 56//56
f 57//57 17//17 58//58
f 19//19 58//58 17//17
f 17//17 58//58 19//19
f 58//58 17//17 57//57
f 58//58 19//19 59//59
f 20//20 59//59 19//19
f 19//19 59//59 20//20
f 59//59 19//19 58//58
f 59//59 20//20 60//60
f 22//22 60//60 20//20
f 20//20 60//60 22//22
f 60//60 20//20 59//59
f 22//22 24//24 60//60
f 61//61 60//60 24//24
f 24//24 60//60 61//61
f 60//60 24//24 22//22
f 24//24 26//26 61//61
f 62//62 61//61 26//26
f 26//26 61//61 62//62
f 61//61 26//26 24//24
f 26//26 28//28 62//62
f 63//63 62//62 28//28
f 28//28 62//62 63//63
f 62//62 28//28 26//26
f 28//28 31//31 63//63
f 64//64 63//63 31//31
f 31//31 63//63 64//64
f 63//63 31//31 28//28
f 31//31 32//32 64//64
f 41//41 64//64 32//32
f 32//32 64//64 41//41
f 64//64 32//32 31//31
f 52//52 2//2 51//51
f 1//1 51//51 2//2
f 15//15 51//51 1//1
f 50//50 51//51 15//15
f 13//13 50//50 15//15
f 11//11 50//50 13//13
f 64//64 50//50 11//11
f 41//41 50//50 64//64
f 49//49 50//50 41//41
f 42//42 49//49 41//41
f 48//48 49//49 42//42
f 43//43 48//48 42//42
f 47//47 48//48 43//43
f 44//44 47//47 43//43
f 46//46 47//47 44//44
f 45//45 46//46 44//44
f 57//57 58//58 56//56
f 59//59 56//56 58//58
f 55//55 56//56 59//59
f 60//60 55//55 59//59
f 54//54 55//55 60//60
f 61//61 54//54 60//60
f 53//53 54//54 61//61
f 62//62 53//53 61//61
f 52//52 53//53 62//62
f 2//2 52//52 62//62
f 63//63 2//2 62//62
f 5//5 2//2 63//63
f 7//7 5//5 63//63
f 9//9 7//7 63//63
f 64//64 9//9 63//63
f 11//11 9//9 64//64
f 64//64 9//9 11//11
f 63//63 9//9 64//64
f 63//63 7//7 9//9
f 63//63 5//5 7//7
f 63//63 2//2 5//5
f 62//62 2//2 63//63
f 62//62 52//52 2//2
f 62//62 53//53 52//52
f 61//61 53//53 62//62
f 61//61 54//54 53//53
f 60//60 54//54 61//61
f 60//60 55//55 54//54
f 59//59 55//55 60//60
f 59//59 56//56 55//55
f 58//58 56//56 59//59
f 56//56 58//58 57//57
f 44//44 46//46 45//45
f 44//44 47//47 46//46
f 43//43 47//47 44//44
f 43//43 48//48 47//47
f 42//42 48//48 43//43
f 42//42 49//49 48//48
f 41//41 49//49 42//42
f 41//41 50//50 49//49
f 64//64 50//50 41//41
f 11//11 50//50 64//64
f 13//13 50//50 11//11
f 15//15 50//50 13//13
f 15//15 51//51 50//50
f 1//1 51//51 15//15
f 2//2 51//51 1//1
f 51//51 2//2 52//52
f 65//65 66//66 67//67
f 68//68 67//67 66//66
f 66//66 67//67 68//68
f 67//67 66//66 65//65
f 66//66 69//69 68//68
f 70//70 68//68 69//69
f 69//69 68//68 70//70
f 68//68 69//69 66//66
f 69//69 71//71 70//70
f 72//72 70//70 71//71
f 71//71 70//70 72//72
f 70//70 71//71 69//69
f 71//71 73//73 72//72
f 74//74 72//72 73//73
f 73//73 72//72 74//74
f 72//72 73//73 71//71
f 75//75 76//76 73//73
f 74//74 73//73 76//76
f 76//76 73//73 74//74
f 73//73 76//76 75//75
f 77//77 78//78 75//75
f 76//76 75//75 78//78
f 78//78 75//75 76//76
f 75//75 78//78 77//77
f 77//77 79//79 78//78
f 80//80 78//78 79//79
f 79//79 78//78 80//80
f 78//78 79//79 77//77
f 79//79 65//65 80//80
f 67//67 80//80 65//65
f 65//65 80//80 67//67
f 80//80 65//65 79//79
f 68//68 70//70 67//67
f 80//80 67//67 70//70
f 72//72 80//80 70//70
f 78//78 80//80 72//72
f 74//74 78//78 72//72
f 76//76 78//78 74//74
f 74//74 78//78 76//76
f 72//72 78//78 74//74
f 72//72 80//80 78//78
f 70//70 80//80 72//72
f 70//70 67//67 80//80
f 67//67 70//70 68//68
f 81//81 82//82 83//83
f 84//84 83//83 82//82
f 85//85 84//84 82//82
f 86//86 84//84 85//85
f 87//87 86//86 85//85
f 88//88 86//86 87//87
f 89//89 88//88 87//87
f 90//90 88//88 89//89
f 91//91 90//90 89//89
f 92//92 90//90 91//91
f 93//93 92//92 91//91
f 94//94 92//92 93//93
f 95//95 92//92 94//94
f 96//96 95//95 94//94
f 97//97 96//96 94//94
f 98//98 96//96 97//97
f 99//99 98//98 97//97
f 100//100 98//98 99//99
f 101//101 100//100 99//99
f 102//102 100//100 101//101
f 103//103 102//102 101//101
f 104//104 102//102 103//103
f 103//103 102//102 104//104
f 101//101 102//102 103//103
f 101//101 100//100 102//102
f 99//99 100//100 101//101
f 99//99 98//98 100//100
f 97//97 98//98 99//99
f 97//97 96//96 98//98
f 94//94 96//96 97//97
f 94//94 95//95 96//96
f 94//94 92//92 95//95
f 93//93 92//92 94//94
f 91//91 92//92 93//93
f 91//91 90//90 92//92
f 89//89 90//90 91//91
f 89//89 88//88 90//90
f 87//87 88//88 89//89
f 87//87 86//86 88//88
f 85//85 86//86 87//87
f 85//85 84//84 86//86
f 82//82 84//84 85//85
f 82//82 83//83 84//84
f 83//83 82//82 81//81
f 96//96 98//98 105//105
f 106//106 105//105 98//98
f 98//98 105//105 106//106
f 105//105 98//98 96//96
f 100//100 107//107 98//98
f 106//106 98//98 107//107
f 107//107 98//98 106//106
f 98//98 107//107 100//100
f 102//102 108//108 100//100
f 107//107 100//100 108//108
f 108//108 100//100 107//107
f 100//100 108//108 102//102
f 104//104 109//109 102//102
f 108//108 102//102 109//109
f 109//109 102//102 108//108
f 102//102 109//109 104//104
f 103//103 110//110 104//104
f 109//109 104//104 110//110
f 110//110 104//104 109//109
f 104//104 110//110 103//103
f 101//101 111//111 103//103
f 110//110 103//103 111//111
f 111//111 103//103 110//110
f 103//103 111//111 101//101
f 99//99 112//112 101//101
f 111//111 101//101 112//112
f 112//112 101//101 111//111
f 101//101 112//112 99//99
f 97//97 113//113 99//99
f 112//112 99//99 113//113
f 113//113 99//99 112//112
f 99//99 113//113 97//97
f 94//94 114//114 97//97
f 113//113 97//97 114//114
f 114//114 97//97 113//113
f 97//97 114//114 94//94
f 93//93 115//115 94//94
f 114//114 94//94 115//115
f 115//115 94//94 114//114
f 94//94 115//115 93//93
f 93//93 91//91 115//115
f 116//116 115//115 91//91
f 91//91 115//115 116//116
f 115//115 91//91 93//93
f 89//89 117//117 91//91
f 116//116 91//91 117//117
f 117//117 91//91 116//116
f 91//91 117//117 89//89
f 87//87 118//118 89//89
f 117//117 89//89 118//118
f 118//118 89//89 117//117
f 89//89 118//118 87//87
f 118//118 87//87 119//119
f 85//85 119//119 87//87
f 87//87 119//119 85//85
f 119//119 87//87 118//118
f 119//119 85//85 120//120
f 82//82 120//120 85//85
f 85//85 120//120 82//82
f 120//120 85//85 119//119
f 120//120 82//82 121//121
f 81//81 121//121 82//82
f 82//82 121//121 81//81
f 121//121 82//82 120//120
f 121//121 81//81 122//122
f 83//83 122//122 81//81
f 81//81 122//122 83//83
f 122//122 81//81 121//121
f 122//122 83//83 123//123
f 84//84 123//123 83//83
f 83//83 123//123 84//84
f 123//123 83//83 122//122
f 123//123 84//84 124//124
f 86//86 124//124 84//84
f 84//84 124//124 86//86
f 124//124 84//84 123//123
f 86//86 88//88 124//124
f 125//125 124//124 88//88
f 88//88 124//124 125//125
f 124//124 88//88 86//86
f 88//88 90//90 125//125
f 126//126 125//125 90//90
f 90//90 125//125 126//126
f 125//125 90//90 88//88
f 90//90 92//92 126//126
f 127//127 126//126 92//92
f 92//92 126//126 127//127
f 126//126 92//92 90//90
f 92//92 95//95 127//127
f 128//128 127//127 95//95
f 95//95 127//127 128//128
f 127//127 95//95 92//92
f 95//95 96//96 128//128
f 105//105 128//128 96//96
f 96//96 128//128 105//105
f 128//128 96//96 95//95
f 116//116 66//66 115//115
f 65//65 115//115 66//66
f 79//79 115//115 65//65
f 114//114 115//115 79//79
f 77//77 114//114 79//79
f 75//75 114//114 77//77
f 128//128 114//114 75//75
f 105//105 114//114 128//128
f 113//113 114//114 105//105
f 106//106 113//113 105//105
f 112//112 113//113 106//106
f 107//107 112//112 106//106
f 111//111 112//112 107//107
f 108//108 111//111 107//107
f 110//110 111//111 108//108
f 109//109 110//110 108//108
f 121//121 122//122 120//120
f 123//123 120//120 122//122
f 119//119 120//120 123//123
f 124//124 119//119 123//123
f 118//118 119//119 124//124
f 125//125 118//118 124//124
f 117//117 118//118 125//125
f 126//126 117//117 125//125
f 116//116 117//117 126//126
f 66//66 116//116 126//126
f 127//127 66//66 126//126
f 69//69 66//66 127//127
f 71//71 69//69 127//127
f 73//73 71//71 127//127
f 128//128 73//73 127//127
f 75//75 73//73 128//128
f 128//128 73//73 75//75
f 127//127 73//73 128//128
f 127//127 71//71 73//73
f 127//127 69//69 71//71
f 127//127 66//66 69//69
f 126//126 66//66 127//127
f 126//126 116//116 66//66
f 126//126 117//117 116//116
f 125//125 117//117 126//126
f 125//125 118//118 117//117
f 124//124 118//118 125//125
f 124//124 119//119 118//118
f 123//123 119//119 124//124
f 123//123 120//120 119//119
f 122//122 120//120 123//123
f 120//120 122//122 121//121
f 108//108 110//110 109//109
f 108//108 111//111 110//110
f 107//107 111//111 108//108
f 107//107 112//112 111//111
f 106//106 112//112 107//107
f 106//106 113//113 112//112
f 105//105 113//113 106//106
f 105//105 114//114 113//113
f 128//128 114//114 105//105
f 75//75 114//114 128//128
f 77//77 114//114 75//75
f 79//79 114//114 77//77
f 79//79 115//115 114//114
f 65//65 115//115 79//79
f 66//66 115//115 65//65
f 115//115 66//66 116//116
f 129//129 130//130 131//131
f 132//132 131//131 130//130
f 130//130 131//131 132//132
f 131//131 130//130 129//129
f 130//130 133//133 132//132
f 134//134 132//132 133//133
f 133//133 132//132 134//134
f 132//132 133//133 130//130
f 133//133 135//135 134//134
f 136//136 134//134 135//135
f 135//135 134//134 136//136
f 134//134 135//135 133//133
f 135//135 137//137 136//136
f 138//138 136//136 137//137
f 137//137 136//136 138//138
f 136//136 137//137 135//135
f 139//139 140//140 137//137
f 138//138 137//137 140//140
f 140//140 137//137 138//138
f 137//137 140//140 139//139
f 141//141 142//142 139//139
f 140//140 139//139 142//142
f 142//142 139//139 140//140
f 139//139 142//142 141//141
f 141//141 143//143 142//142
f 144//144 142//142 143//143
f 143//143 142//142 144//144
f 142//142 143//143 141//141
f 143//143 129//129 144//144
f 131//131 144//144 129//129
f 129//129 144//144 131//131
f 144//144 129//129 143//143
f 132//132 134//134 131//131
f 144//144 131//131 134//134
f 136//136 144//144 134//134
f 142//142 144//144 136//136
f 138//138 142//142 136//136
f 140//140 142//142 138//138
f 138//138 142//142 140//140
f 136//136 142//142 138//138
f 136//136 144//144 142//142
f 134//134 144//144 136//136
f 134//134 131//131 144//144
f 131//131 134//134 132//132
f 145//145 146//146 147//147
f 148//148 147//147 146//146
f 149//149 148//148 146//146
f 150//150 148//148 149//149
f 151//151 150//150 149//149
f 152//152 150//150 151//151
f 153//153 152//152 151//151
f 154//154 152//152 153//153
f 155//155 154//154 153//153
f 156//156 154//154 155//155
f 157//157 156//156 155//155
f 158//158 156//156 157//157
f 159//159 156//156 158//158
f 160//160 159//159 158//158
f 161//161 160//160 158//158
f 162//162 160//160 161//161
f 163//163 162//162 161//161
f 164//164 162//162 163//163
f 165//165 164//164 163//163
f 166//166 164//164 165//165
f 167//167 166//166 165//165
f 168//168 166//166 167//167
f 167//167 166//166 168//168
f 165//165 166//166 167//167
f 165//165 164//164 166//166
f 163//163 164//164 165//165
f 163//163 162//162 164//164
f 161//161 162//162 163//163
f 161//161 160//160 162//162
f 158//158 160//160 161//161
f 158//158 159//159 160//160
f 158//158 156//156 159//159
f 157//157 156//156 158//158
f 155//155 156//156 157//157
f 155//155 154//154 156//156
f 153//153 154//154 155//155
f 153//153 152//152 154//154
f 151//151 152//152 153//153
f 151//151 150//150 152//152
f 149//149 150//150 151//151
f 149//149 148//148 150//150
f 146//146 148//148 149//149
f 146//146 147//147 148//148
f 147//147 146//146 145//145
f 160//160 162//162 169//169
f 170//170 169//169 162//162
f 162//162 169//169 170//170
f 169//169 162//162 160//160
f 164//164 171//171 162//162
f 170//170 162//162 171//171
f 171//171 162//162 170//170
f 162//162 171//171 164//164
f 166//166 172//172 164//164
f 171//171 164//164 172//172
f 172//172 164//164 171//171
f 164//164 172//172 166//166
f 168//168 173//173 166//166
f 172//172 166//166 173//173
f 173//173 166//166 172//172
f 166//166 173//173 168//168
f 167//167 174//174 168//168
f 173//173 168//168 174//174
f 174//174 168//168 173//173
f 168//168 174//174 167//167
f 165//165 175//175 167//167
f 174//174 167//167 175//175
f 175//175 167//167 174//174
f 167//167 175//175 165//165
f 163//163 176//176 165//165
f 175//175 165//165 176//176
f 176//176 165//165 175//175
f 165//165 176//176 163//163
f 161//161 177//177 163//163
f 176//176 163//163 177//177
f 177//177 163//163 176//176
f 163//163 177//177 161//161
f 158//158 178//178 161//161
f 177//177 161//161 178//178
f 178//178 161//161 177//177
f 161//161 178//178 158//158
f 157//157 179//179 158//158
f 178//178 158//158 179//179
f 179//179 158//158 178//178
f 158//158 179//179 157//157
f 157//157 155//155 179//179
f 180//180 179//179 155//155
f 155//155 179//179 180//180
f 179//179 155//155 157//157
f 153//153 181//181 155//155
f 180//180 155//155 181//181
f 181//181 155//155 180//180
f 155//155 181//181 153//153
f 151//151 182//182 153//153
f 181//181 153//153 182//182
f 182//182 153//153 181//181
f 153//153 182//182 151//151
f 182//182 151//151 183//183
f 149//149 183//183 151//151
f 151//151 183//183 149//149
f 183//183 151//151 182//182
f 183//183 149//149 184//184
f 146//146 184//184 149//149
f 149//149 184//184 146//146
f 184//184 149//149 183//183
f 184//184 146//146 185//185
f 145//145 185//185 146//146
f 146//146 185//185 145//145
f 185//185 146//146 184//184
f 185//185 145//145 186//186
f 147//147 186//186 145//145
f 145//145 186//186 147//147
f 186//186 145//145 185//185
f 186//186 147//147 187//187
f 148//148 187//187 147//147
f 147//147 187//187 148//148
f 187//187 147//147 186//186
f 187//187 148//148 188//188
f 150//150 188//188 148//148
f 148//148 188//188 150//150
f 188//188 148//148 187//187
f 150//150 152//152 188//188
f 189//189 188//188 152//152
f 152//152 188//188 189//189
f 188//188 152//152 150//150
f 152//152 154//154 189//189
f 190//190 189//189 154//154
f 154//154 189//189 190//190
f 189//189 154//154 152//152
f 154//154 156//156 190//190
f 191//191 190//190 156//156
f 156//156 190//190 191//191
f 190//190 156//156 154//154
f 156//156 159//159 191//191
f 192//192 191//191 159//159
f 159//159 191//191 192//192
f 191//191 159//159 156//156
f 159//159 160//160 192//192
f 169//169 192//192 160//160
f 160//160 192//192 169//169
f 192//192 160//160 159//159
f 180//180 130//130 179//179
f 129//129 179//179 130//130
f 143//143 179//179 129//129
f 178//178 179//179 143//143
f 141//141 178//178 143//143
f 139//139 178//178 141//141
f 192//192 178//178 139//139
f 169//169 178//178 192//192
f 177//177 178//178 169//169
f 170//170 177//177 169//169
f 176//176 177//177 170//170
f 171//171 176//176 170//170
f 175//175 176//176 171//171
f 172//172 175//175 171//171
f 174//174 175//175 172//172
f 173//173 174//174 172//172
f 185//185 186//186 184//184
f 187//187 184//184 186//186
f 183//183 184//184 187//187
f 188//188 183//183 187//187
f 182//182 183//183 188//188
f 189//189 182//182 188//188
f 181//181 182//182 189//189
f 190//190 181//181 189//189
f 180//180 181//181 190//190
f 130//130 180//180 190//190
f 191//191 130//130 190//190
f 133//133 130//130 191//191
f 135//135 133//133 191//191
f 137//137 135//135 191//191
f 192//192 137//137 191//191
f 139//139 137//137 192//192
f 192//192 137//137 139//139
f 191//191 137//137 192//192
f 191//191 135//135 137//137
f 191//191 133//133 135//135
f 191//191 130//130 133//133
f 190//190 130//130 191//191
f 190//190 180//180 130//130
f 190//190 181//181 180//180
f 189//189 181//181 190//190
f 189//189 182//182 181//181
f 188//188 182//182 189//189
f 188//188 183//183 182//182
f 187//187 183//183 188//188
f 187//187 184//184 183//183
f 186//186 184//184 187//187
f 184//184 186//186 185//185
f 172//172 174//174 173//173
f 172//172 175//175 174//174
f 171//171 175//175 172//172
f 171//171 176//176 175//175
f 170//170 176//176 171//171
f 170//170 177//177 176//176
f 169//169 177//177 170//170
f 169//169 178//178 177//177
f 192//192 178//178 169//169
f 139//139 178//178 192//192
f 141//141 178//178 139//139
f 143//143 178//178 141//141
f 143//143 179//179 178//178
f 129//129 179//179 143//143
f 130//130 179//179 129//129
f 179//179 130//130 180//180
f 193//193 194//194 195//195
f 196//196 195//195 194//194
f 194//194 195//195 196//196
f 195//195 194//194 193//193
f 194//194 197//197 196//196
f 198//198 196//196 197//197
f 197//197 196//196 198//198
f 196//196 197//197 194//194
f 197//197 199//199 198//198
f 200//200 198//198 199//199
f 199//199 198//198 200//200
f 198//198 199//199 197//197
f 199//199 201//201 200//200
f 202//202 200//200 201//201
f 201//201 200//200 202//202
f 200//200 201//201 199//199
f 203//203 204//204 201//201
f 202//202 201//201 204//204
f 204//204 201//201 202//202
f 201//201 204//204 203//203
f 205//205 206//206 203//203
f 204//204 203//203 206//206
f 206//206 203//203 204//204
f 203//203 206//206 205//205
f 205//205 207//207 206//206
f 208//208 206//206 207//207
f 207//207 206//206 208//208
f 206//206 207//207 205//205
f 207//207 193//193 208//208
f 195//195 208//208 193//193
f 193//193 208//208 195//195
f 208//208 193//193 207//207
f 196//196 198//198 195//195
f 208//208 195//195 198//198
f 200//200 208//208 198//198
f 206//206 208//208 200//200
f 202//202 206//206 200//200
f 204//204 206//206 202//202
f 202//202 206//206 204//204
f 200//200 206//206 202//202
f 200//200 208//208 206//206
f 198//198 208//208 200//200
f 198//198 195//195 208//208
f 195//195 198//198 196//196
f 209//209 210//210 211//211
f 212//212 211//211 210//210
f 213//213 212//212 210//210
f 214//214 212//212 213//213
f 215//215 214//214 213//213
f 216//216 214//214 215//215
f 217//217 216//216 215//215
f 218//218 216//216 217//217
f 219//219 218//218 217//217
f 220//220 218//218 219//219
f 221//221 220//220 219//219
f 222//222 220//220 221//221
f 223//223 220//220 222//222
f 224//224 223//223 222//222
f 225//225 224//224 222//222
f 226//226 224//224 225//225
f 227//227 226//226 225//225
f 228//228 226//226 227//227
f 229//229 228//228 227//227
f 230//230 228//228 229//229
f 231//231 230//230 229//229
f 232//232 230//230 231//231
f 231//231 230//230 232//232
f 229//229 230//230 231//231
f 229//229 228//228 230//230
f 227//227 228//228 229//229
f 227//227 226//226 228//228
f 225//225 226//226 227//227
f 225//225 224//224 226//226
f 222//222 224//224 225//225
f 222//222 223//223 224//224
f 222//222 220//220 223//223
f 221//221 220//220 222//222
f 219//219 220//220 221//221
f 219//219 218//218 220//220
f 217//217 218//218 219//219
f 217//217 216//216 218//218
f 215//215 216//216 217//217
f 215//215 214//214 216//216
f 213//213 214//214 215//215
f 213//213 212//212 214//214
f 210//210 212//212 213//213
f 210//210 211//211 212//212
f 211//211 210//210 209//209
f 224//224 226//226 233//233
f 234//234 233//233 226//226
f 226//226 233//233 234//234
f 233//233 226//226 224//224
f 228//228 235//235 226//226
f 234//234 226//226 235//235
f 235//235 226//226 234//234
f 226//226 235//235 228//228
f 230//230 236//236 228//228
f 235//235 228//228 236//236
f 236//236 228//228 235//235
f 228//228 236//236 230//230
f 232//232 237//237 230//230
f 236//236 230//230 237//237
f 237//237 230//230 236//236
f 230//230 237//237 232//232
f 231//231 238//238 232//232
f 237//237 232//232 238//238
f 238//238 232//232 237//237
f 232//232 238//238 231//231
f 229//229 239//239 231//231
f 238//238 231//231 239//239
f 239//239 231//231 238//238
f 231//231 239//239 229//229
f 227//227 240//240 229//229
f 239//239 229//229 240//240
f 240//240 229//229 239//239
f 229//229 240//240 227//227
f 225//225 241//241 227//227
f 240//240 227//227 241//241
f 241//241 227//227 240//240
f 227//227 241//241 225//225
f 222//222 242//242 225//225
f 241//241 225//225 242//242
f 242//242 225//225 241//241
f 225//225 242//242 222//222
f 221//221 243//243 222//222
f 242//242 222//222 243//243
f 243//243 222//222 242//242
f 222//222 243//243 221//221
f 221//221 219//219 243//243
f 244//244 243//243 219//219
f 219//219 243//243 244//244
f 243//243 219//219 221//221
f 217//217 245//245 219//219
f 244//244 219//219 245//245
f 245//245 219//219 244//244
f 219//219 245//245 217//217
f 215//215 246//246 217//217
f 245//245 217//217 246//246
f 246//246 217//217 245//245
f 217//217 246//246 215//215
f 246//246 215//215 247//247
f 213//213 247//247 215//215
f 215//215 247//247 213//213
f 247//247 215//215 246//246
f 247//247 213//213 248//248
f 210//210 248//248 213//213
f 213//213 248//248 210//210
f 248//248 213//213 247//247
f 248//248 210//210 249//249
f 209//209 249//249 210//210
f 210//210 249//249 209//209
f 249//249 210//210 248//248
f 249//249 209//209 250//250
f 211//211 250//250 209//209
f 209//209 250//250 211//211
f 250//250 209//209 249//249
f 250//250 211//211 251//251
f 212//212 251//251 211//211
f 211//211 251//251 212//212
f 251//251 211//211 250//250
f 251//251 212//212 252//252
f 214//214 252//252 212//212
f 212//212 252//252 214//214
f 252//252 212//212 251//251
f 214//214 216//216 252//252
f 253//253 252//252 216//216
f 216//216 252//252 253//253
f 252//252 216//216 214//214
f 216//216 218//218 253//253
f 254//254 253//253 218//218
f 218//218 253//253 254//254
f 253//253 218//218 216//216
f 218//218 220//220 254//254
f 255//255 254//254 220//220
f 220//220 254//254 255//255
f 254//254 220//220 218//218
f 220//220 223//223 255//255
f 256//256 255//255 223//223
f 223//223 255//255 256//256
f 255//255 223//223 220//220
f 223//223 224//224 256//256
f 233//233 256//256 224//224
f 224//224 256//256 233//233
f 256//256 224//224 223//223
f 244//244 194//194 243//243
f 193//193 243//243 194//194
f 207//207 243//243 193//193
f 242//242 243//243 207//207
f 205//205 242//242 207//207
f 203//203 242//242 205//205
f 256//256 242//242 203//203
f 233//233 242//242 256//256
f 241//241 242//242 233//233
f 234//234 241//241 233//233
f 240//240 241//241 234//234
f 235//235 240//240 234//234
f 239//239 240//240 235//235
f 236//236 239//239 235//235
f 238//238 239//239 236//236
f 237//237 238//238 236//236
f 249//249 250//250 248//248
f 251//251 248//248 250//250
f 247//247 248//248 251//251
f 252//252 247//247 251//251
f 246//246 247//247 252//252
f 253//253 246//246 252//252
f 245//245 246//246 253//253
f 254//254 245//245 253//253
f 244//244 245//245 254//254
f 194//194 244//244 254//254
f 255//255 194//194 254//254
f 197//197 194//194 255//255
f 199//199 197//197 255//255
f 201//201 199//199 255//255
f 256//256 201//201 255//255
f 203//203 201//201 256//256
f 256//256 201//201 203//203
f 255//255 201//201 256//256
f 255//255 199//199 201//201
f 255//255 197//197 199//199
f 255//255 194//194 197//197
f 254//254 194//194 255//255
f 254//254 244//244 194//194
f 254//254 245//245 244//244
f 253//253 245//245 254//254
f 253//253 246//246 245//245
f 252//252 246//246 253//253
f 252//252 247//247 246//246
f 251//251 247//247 252//252
f 251//251 248//248 247//247
f 250//250 248//248 251//251
f 248//248 250//250 249//249
f 236//236 238//238 237//237
f 236//236 239//239 238//238
f 235//235 239//239 236//236
f 235//235 240//240 239//239
f 234//234 240//240 235//235
f 234//234 241//241 240//240
f 233//233 241//241 234//234
f 233//233 242//242 241//241
f 256//256 242//242 233//233
f 203//203 242//242 256//256
f 205//205 242//242 203//203
f 207//207 242//242 205//205
f 207//207 243//243 242//242
f 193//193 243//243 207//207
f 194//194 243//243 193//193
f 243//243 194//194 244//244
f 257//257 258//258 259//259
f 258//258 257//257 260//260
f 260//260 261//261 258//258
f 261//261 260//260 262//262
f 259//259 261//261 263//263
f 261//261 259//259 258//258
f 263//263 257//257 259//259
f 257//257 263//263 264//264
f 264//264 260//260 257//257
f 260//260 264//264 262//262
f 261//261 265//265 266//266
f 265//265 261//261 262//262
f 266//266 267//267 268//268
f 267//267 266//266 265//265
f 266//266 269//269 261//261
f 270//270 269//269 271//271
f 269//269 270//270 272//272
f 272//272 261//261 269//269
f 261//261 272//272 263//263
f 273//273 263//263 274//274
f 263//263 273//273 264//264
f 262//262 275//275 276//276
f 275//275 262//262 264//264
f 276//276 277//277 278//278
f 277//277 276//276 275//275
f 265//265 262//262 276//276
f 267//267 279//279 280//280
f 279//279 267//267 265//265
f 268//268 280//280 281//281
f 280//280 268//268 267//267
f 282//282 268//268 281//281
f 268//268 282//282 266//266
f 283//283 271//271 284//284
f 271//271 283//283 270//270
f 284//284 269//269 285//285
f 269//269 284//284 271//271
f 285//285 266//266 282//282
f 266//266 285//285 269//269
f 286//286 270//270 283//283
f 270//270 286//286 272//272
f 272//272 274//274 263//263
f 273//273 287//287 288//288
f 287//287 273//273 274//274
f 275//275 264//264 273//273
f 278//278 289//289 276//276
f 289//289 278//278 290//290
f 275//275 291//291 277//277
f 291//291 275//275 292//292
f 277//277 290//290 278//278
f 290//290 277//277 291//291
f 276//276 279//279 265//265
f 279//279 276//276 289//289
f 281//281 279//279 282//282
f 279//279 281//281 280//280
f 285//285 283//283 284//284
f 283//283 285//285 286//286
f 282//282 293//293 285//285
f 294//294 272//272 286//286
f 272//272 294//294 274//274
f 287//287 294//294 295//295
f 294//294 287//287 274//274
f 288//288 295//295 296//296
f 295//295 288//288 287//287
f 297//297 288//288 296//296
f 288//288 297//297 273//273
f 273//273 292//292 275//275
f 292//292 273//273 297//297
f 291//291 289//289 290//290
f 289//289 291//291 292//292
f 279//279 289//289 298//298
f 279//279 293//293 282//282
f 293//293 279//279 298//298
f 293//293 286//286 285//285
f 286//286 293//293 299//299
f 286//286 299//299 294//294
f 296//296 294//294 297//297
f 294//294 296//296 295//295
f 292//292 297//297 300//300
f 292//292 298//298 289//289
f 298//298 292//292 300//300
f 293//293 301//301 302//302
f 301//301 293//293 298//298
f 302//302 299//299 293//293
f 299//299 302//302 303//303
f 299//299 297//297 294//294
f 297//297 299//299 300//300
f 298//298 304//304 301//301
f 304//304 298//298 300//300
f 301//301 303//303 302//302
f 303//303 301//301 304//304
f 304//304 299//299 303//303
f 299//299 304//304 300//300
f 260//260 257//257 258//258
f 259//259 258//258 257//257
f 262//262 260//260 261//261
f 258//258 261//261 260//260
f 258//258 259//259 261//261
f 263//263 261//261 259//259
f 264//264 263//263 257//257
f 259//259 257//257 263//263
f 262//262 264//264 260//260
f 257//257 260//260 264//264
f 262//262 261//261 265//265
f 266//266 265//265 261//261
f 265//265 266//266 267//267
f 268//268 267//267 266//266
f 261//261 269//269 266//266
f 272//272 270//270 269//269
f 271//271 269//269 270//270
f 263//263 272//272 261//261
f 269//269 261//261 272//272
f 264//264 273//273 263//263
f 274//274 263//263 273//273
f 264//264 262//262 275//275
f 276//276 275//275 262//262
f 275//275 276//276 277//277
f 278//278 277//277 276//276
f 276//276 262//262 265//265
f 265//265 267//267 279//279
f 280//280 279//279 267//267
f 267//267 268//268 280//280
f 281//281 280//280 268//268
f 266//266 282//282 268//268
f 281//281 268//268 282//282
f 270//270 283//283 271//271
f 284//284 271//271 283//283
f 271//271 284//284 269//269
f 285//285 269//269 284//284
f 269//269 285//285 266//266
f 282//282 266//266 285//285
f 272//272 286//286 270//270
f 283//283 270//270 286//286
f 263//263 274//274 272//272
f 274//274 273//273 287//287
f 288//288 287//287 273//273
f 273//273 264//264 275//275
f 290//290 278//278 289//289
f 276//276 289//289 278//278
f 292//292 275//275 291//291
f 277//277 291//291 275//275
f 291//291 277//277 290//290
f 278//278 290//290 277//277
f 289//289 276//276 279//279
f 265//265 279//279 276//276
f 280//280 281//281 279//279
f 282//282 279//279 281//281
f 286//286 285//285 283//283
f 284//284 283//283 285//285
f 285//285 293//293 282//282
f 274//274 294//294 272//272
f 286//286 272//272 294//294
f 274//274 287//287 294//294
f 295//295 294//294 287//287
f 287//287 288//288 295//295
f 296//296 295//295 288//288
f 273//273 297//297 288//288
f 296//296 288//288 297//297
f 297//297 273//273 292//292
f 275//275 292//292 273//273
f 292//292 291//291 289//289
f 290//290 289//289 291//291
f 298//298 289//289 279//279
f 298//298 279//279 293//293
f 282//282 293//293 279//279
f 299//299 293//293 286//286
f 285//285 286//286 293//293
f 294//294 299//299 286//286
f 295//295 296//296 294//294
f 297//297 294//294 296//296
f 300//300 297//297 292//292
f 300//300 292//292 298//298
f 289//289 298//298 292//292
f 298//298 293//293 301//301
f 302//302 301//301 293//293
f 303//303 302//302 299//299
f 293//293 299//299 302//302
f 300//300 299//299 297//297
f 294//294 297//297 299//299
f 300//300 298//298 304//304
f 301//301 304//304 298//298
f 304//304 301//301 303//303
f 302//302 303//303 301//301
f 300//300 304//304 299//299
f 303//303 299//299 304//304
f 305//305 306//306 307//307
f 306//306 305//305 308//308
f 308//308 309//309 306//306
f 309//309 308//308 310//310
f 307//307 309//309 311//311
f 309//309 307//307 306//306
f 311//311 305//305 307//307
f 305//305 311//311 312//312
f 312//312 308//308 305//305
f 308//308 312//312 310//310
f 309//309 313//313 314//314
f 313//313 309//309 310//310
f 314//314 315//315 316//316
f 315//315 314//314 313//313
f 314//314 317//317 309//309
f 318//318 317//317 319//319
f 317//317 318//318 320//320
f 320//320 309//309 317//317
f 309//309 320//320 311//311
f 321//321 311//311 322//322
f 311//311 321//321 312//312
f 310//310 323//323 324//324
f 323//323 310//310 312//312
f 324//324 325//325 326//326
f 325//325 324//324 323//323
f 313//313 310//310 324//324
f 315//315 327//327 328//328
f 327//327 315//315 313//313
f 316//316 328//328 329//329
f 328//328 316//316 315//315
f 330//330 316//316 329//329
f 316//316 330//330 314//314
f 331//331 319//319 332//332
f 319//319 331//331 318//318
f 332//332 317//317 333//333
f 317//317 332//332 319//319
f 333//333 314//314 330//330
f 314//314 333//333 317//317
f 334//334 318//318 331//331
f 318//318 334//334 320//320
f 320//320 322//322 311//311
f 321//321 335//335 336//336
f 335//335 321//321 322//322
f 323//323 312//312 321//321
f 326//326 337//337 324//324
f 337//337 326//326 338//338
f 323//323 339//339 325//325
f 339//339 323//323 340//340
f 325//325 338//338 326//326
f 338//338 325//325 339//339
f 324//324 327//327 313//313
f 327//327 324//324 337//337
f 329//329 327//327 330//330
f 327//327 329//329 328//328
f 333//333 331//331 332//332
f 331//331 333//333 334//334
f 330//330 341//341 333//333
f 342//342 320//320 334//334
f 320//320 342//342 322//322
f 335//335 342//342 343//343
f 342//342 335//335 322//322
f 336//336 343//343 344//344
f 343//343 336//336 335//335
f 345//345 336//336 344//344
f 336//336 345//345 321//321
f 321//321 340//340 323//323
f 340//340 321//321 345//345
f 339//339 337//337 338//338
f 337//337 339//339 340//340
f 327//327 337//337 346//346
f 327//327 341//341 330//330
f 341//341 327//327 346//346
f 341//341 334//334 333//333
f 334//334 341//341 347//347
f 334//334 347//347 342//342
f 344//344 342//342 345//345
f 342//342 344//344 343//343
f 340//340 345//345 348//348
f 340//340 346//346 337//337
f 346//346 340//340 348//348
f 341//341 349//349 350//350
f 349//349 341//341 346//346
f 350//350 347//347 341//341
f 347//347 350//350 351//351
f 347//347 345//345 342//342
f 345//345 347//347 348//348
f 346//346 352//352 349//349
f 352//352 346//346 348//348
f 349//349 351//351 350//350
f 351//351 349//349 352//352
f 352//352 347//347 351//351
f 347//347 352//352 348//348
f 308//308 305//305 306//306
f 307//307 306//306 305//305
f 310//310 308//308 309//309
f 306//306 309//309 308//308
f 306//306 307//307 309//309
f 311//311 309//309 307//307
f 312//312 311//311 305//305
f 307//307 305//305 311//311
f 310//310 312//312 308//308
f 305//305 308//308 312//312
f 310//310 309//309 313//313
f 314//314 313//313 309//309
f 313//313 314//314 315//315
f 316//316 315//315 314//314
f 309//309 317//317 314//314
f 320//320 318//318 317//317
f 319//319 317//317 318//318
f 311//311 320//320 309//309
f 317//317 309//309 320//320
f 312//312 321//321 311//311
f 322//322 311//311 321//321
f 312//312 310//310 323//323
f 324//324 323//323 310//310
f 323//323 324//324 325//325
f 326//326 325//325 324//324
f 324//324 310//310 313//313
f 313//313 315//315 327//327
f 328//328 327//327 315//315
f 315//315 316//316 328//328
f 329//329 328//328 316//316
f 314//314 330//330 316//316
f 329//329 316//316 330//330
f 318//318 331//331 319//319
f 332//332 319//319 331//331
f 319//319 332//332 317//317
f 333//333 317//317 332//332
f 317//317 333//333 314//314
f 330//330 314//314 333//333
f 320//320 334//334 318//318
f 331//331 318//318 334//334
f 311//311 322//322 320//320
f 322//322 321//321 335//335
f 336//336 335//335 321//321
f 321//321 312//312 323//323
f 338//338 326//326 337//337
f 324//324 337//337 326//326
f 340//340 323//323 339//339
f 325//325 339//339 323//323
f 339//339 325//325 338//338
f 326//326 338//338 325//325
f 337//337 324//324 327//327
f 313//313 327//327 324//324
f 328//328 329//329 327//327
f 330//330 327//327 329//329
f 334//334 333//333 331//331
f 332//332 331//331 333//333
f 333//333 341//341 330//330
f 322//322 342//342 320//320
f 334//334 320//320 342//342
f 322//322 335//335 342//342
f 343//343 342//342 335//335
f 335//335 336//336 343//343
f 344//344 343//343 336//336
f 321//321 345//345 336//336
f 344//344 336//336 345//345
f 345//345 321//321 340//340
f 323//323 340//340 321//321
f 340//340 339//339 337//337
f 338//338 337//337 339//339
f 346//346 337//337 327//327
f 346//346 327//327 341//341
f 330//330 341//341 327//327
f 347//347 341//341 334//334
f 333//333 334//334 341//341
f 342//342 347//347 334//334
f 343//343 344//344 342//342
f 345//345 342//342 344//344
f 348//348 345//345 340//340
f 348//348 340//340 346//346
f 337//337 346//346 340//340
f 346//346 341//341 349//349
f 350//350 349//349 341//341
f 351//351 350//350 347//347
f 341//341 347//347 350//350
f 348//348 347//347 345//345
f 342//342 345//345 347//347
f 348//348 346//346 352//352
f 349//349 352//352 346//346
f 352//352 349//349 351//351
f 350//350 351//351 349//349
f 348//348 352//352 347//347
f 351//351 347//347 352//352
f 353//353 354//354 355//355
f 354//354 353//353 356//356
f 356//356 357//357 354//354
f 357//357 356//356 358//358
f 355//355 357//357 359//359
f 357//357 355//355 354//354
f 359//359 353//353 355//355
f 353//353 359//359 360//360
f 360//360 356//356 353//353
f 356//356 360//360 358//358
f 357//357 361//361 362//362
f 361//361 357//357 358//358
f 362//362 363//363 364//364
f 363//363 362//362 361//361
f 362//362 365//365 357//357
f 366//366 365//365 367//367
f 365//365 366//366 368//368
f 368//368 357//357 365//365
f 357//357 368//368 359//359
f 369//369 359//359 370//370
f 359//359 369//369 360//360
f 358//358 371//371 372//372
f 371//371 358//358 360//360
f 372//372 373//373 374//374
f 373//373 372//372 371//371
f 361//361 358//358 372//372
f 363//363 375//375 376//376
f 375//375 363//363 361//361
f 364//364 376//376 377//377
f 376//376 364//364 363//363
f 378//378 364//364 377//377
f 364//364 378//378 362//362
f 379//379 367//367 380//380
f 367//367 379//379 366//366
f 380//380 365//365 381//381
f 365//365 380//380 367//367
f 381//381 362//362 378//378
f 362//362 381//381 365//365
f 382//382 366//366 379//379
f 366//366 382//382 368//368
f 368//368 370//370 359//359
f 369//369 383//383 384//384
f 383//383 369//369 370//370
f 371//371 360//360 369//369
f 374//374 385//385 372//372
f 385//385 374//374 386//386
f 371//371 387//387 373//373
f 387//387 371//371 388//388
f 373//373 386//386 374//374
f 386//386 373//373 387//387
f 372//372 375//375 361//361
f 375//375 372//372 385//385
f 377//377 375//375 378//378
f 375//375 377//377 376//376
f 381//381 379//379 380//380
f 379//379 381//381 382//382
f 378//378 389//389 381//381
f 390//390 368//368 382//382
f 368//368 390//390 370//370
f 383//383 390//390 391//391
f 390//390 383//383 370//370
f 384//384 391//391 392//392
f 391//391 384//384 383//383
f 393//393 384//384 392//392
f 384//384 393//393 369//369
f 369//369 388//388 371//371
f 388//388 369//369 393//393
f 387//387 385//385 386//386
f 385//385 387//387 388//388
f 375//375 385//385 394//394
f 375//375 389//389 378//378
f 389//389 375//375 394//394
f 389//389 382//382 381//381
f 382//382 389//389 395//395
f 382//382 395//395 390//390
f 392//392 390//390 393//393
f 390//390 392//392 391//391
f 388//388 393//393 396//396
f 388//388 394//394 385//385
f 394//394 388//388 396//396
f 389//389 397//397 398//398
f 397//397 389//389 394//394
f 398//398 395//395 389//389
f 395//395 398//398 399//399
f 395//395 393//393 390//390
f 393//393 395//395 396//396
f 394//394 400//400 397//397
f 400//400 394//394 396//396
f 397//397 399//399 398//398
f 399//399 397//397 400//400
f 400//400 395//395 399//399
f 395//395 400//400 396//396
f 356//356 353//353 354//354
f 355//355 354//354 353//353
f 358//358 356//356 357//357
f 354//354 357//357 356//356
f 354//354 355//355 357//357
f 359//359 357//357 355//355
f 360//360 359//359 353//353
f 355//355 353//353 359//359
f 358//358 360//360 356//356
f 353//353 356//356 360//360
f 358//358 357//357 361//361
f 362//362 361//361 357//357
f 361//361 362//362 363//363
f 364//364 363//363 362//362
f 357//357 365//365 362//362
f 368//368 366//366 365//365
f 367//367 365//365 366//366
f 359//359 368//368 357//357
f 365//365 357//357 368//368
f 360//360 369//369 359//359
f 370//370 359//359 369//369
f 360//360 358//358 371//371
f 372//372 371//371 358//358
f 371//371 372//372 373//373
f 374//374 373//373 372//372
f 372//372 358//358 361//361
f 361//361 363//363 375//375
f 376//376 375//375 363//363
f 363//363 364//364 376//376
f 377//377 376//376 364//364
f 362//362 378//378 364//364
f 377//377 364//364 378//378
f 366//366 379//379 367//367
f 380//380 367//367 379//379
f 367//367 380//380 365//365
f 381//381 365//365 380//380
f 365//365 381//381 362//362
f 378//378 362//362 381//381
f 368//368 382//382 366//366
f 379//379 366//366 382//382
f 359//359 370//370 368//368
f 370//370 369//369 383//383
f 384//384 383//383 369//369
f 369//369 360//360 371//371
f 386//386 374//374 385//385
f 372//372 385//385 374//374
f 388//388 371//371 387//387
f 373//373 387//387 371//371
f 387//387 373//373 386//386
f 374//374 386//386 373//373
f 385//385 372//372 375//375
f 361//361 375//375 372//372
f 376//376 377//377 375//375
f 378//378 375//375 377//377
f 382//382 381//381 379//379
f 380//380 379//379 381//381
f 381//381 389//389 378//378
f 370//370 390//390 368//368
f 382//382 368//368 390//390
f 370//370 383//383 390//390
f 391//391 390//390 383//383
f 383//383 384//384 391//391
f 392//392 391//391 384//384
f 369//369 393//393 384//384
f 392//392 384//384 393//393
f 393//393 369//369 388//388
f 371//371 388//388 369//369
f 388//388 387//387 385//385
f 386//386 385//385 387//387
f 394//394 385//385 375//375
f 394//394 375//375 389//389
f 378//378 389//389 375//375
f 395//395 389//389 382//382
f 381//381 382//382 389//389
f 390//390 395//395 382//382
f 391//391 392//392 390//390
f 393//393 390//390 392//392
f 396//396 393//393 388//388
f 396//396 388//388 394//394
f 385//385 394//394 388//388
f 394//394 389//389 397//397
f 398//398 397//397 389//389
f 399//399 398//398 395//395
f 389//389 395//395 398//398
f 396//396 395//395 393//393
f 390//390 393//393 395//395
f 396//396 394//394 400//400
f 397//397 400//400 394//394
f 400//400 397//397 399//399
f 398//398 399//399 397//397
f 396//396 400//400 395//395
f 399//399 395//395 400//400
f 401//401 402//402 403//403
f 402//402 401//401 404//404
f 404//404 405//405 402//402
f 405//405 404//404 406//406
f 403//403 405//405 407//407
f 405//405 403//403 402//402
f 407//407 401//401 403//403
f 401//401 407//407 408//408
f 408//408 404//404 401//401
f 404//404 408//408 406//406
f 405//405 409//409 410//410
f 409//409 405//405 406//406
f 410//410 411//411 412//412
f 411//411 410//410 409//409
f 410//410 413//413 405//405
f 414//414 413//413 415//415
f 413//413 414//414 416//416
f 416//416 405//405 413//413
f 405//405 416//416 407//407
f 417//417 407//407 418//418
f 407//407 417//417 408//408
f 406//406 419//419 420//420
f 419//419 406//406 408//408
f 420//420 421//421 422//422
f 421//421 420//420 419//419
f 409//409 406//406 420//420
f 411//411 423//423 424//424
f 423//423 411//411 409//409
f 412//412 424//424 425//425
f 424//424 412//412 411//411
f 426//426 412//412 425//425
f 412//412 426//426 410//410
f 427//427 415//415 428//428
f 415//415 427//427 414//414
f 428//428 413//413 429//429
f 413//413 428//428 415//415
f 429//429 410//410 426//426
f 410//410 429//429 413//413
f 430//430 414//414 427//427
f 414//414 430//430 416//416
f 416//416 418//418 407//407
f 417//417 431//431 432//432
f 431//431 417//417 418//418
f 419//419 408//408 417//417
f 422//422 433//433 420//420
f 433//433 422//422 434//434
f 419//419 435//435 421//421
f 435//435 419//419 436//436
f 421//421 434//434 422//422
f 434//434 421//421 435//435
f 420//420 423//423 409//409
f 423//423 420//420 433//433
f 425//425 423//423 426//426
f 423//423 425//425 424//424
f 429//429 427//427 428//428
f 427//427 429//429 430//430
f 426//426 437//437 429//429
f 438//438 416//416 430//430
f 416//416 438//438 418//418
f 431//431 438//438 439//439
f 438//438 431//431 418//418
f 432//432 439//439 440//440
f 439//439 432//432 431//431
f 441//441 432//432 440//440
f 432//432 441//441 417//417
f 417//417 436//436 419//419
f 436//436 417//417 441//441
f 435//435 433//433 434//434
f 433//433 435//435 436//436
f 423//423 433//433 442//442
f 423//423 437//437 426//426
f 437//437 423//423 442//442
f 437//437 430//430 429//429
f 430//430 437//437 443//443
f 430//430 443//443 438//438
f 440//440 438//438 441//441
f 438//438 440//440 439//439
f 436//436 441//441 444//444
f 436//436 442//442 433//433
f 442//442 436//436 444//444
f 437//437 445//445 446//446
f 445//445 437//437 442//442
f 446//446 443//443 437//437
f 443//443 446//446 447//447
f 443//443 441//441 438//438
f 441//441 443//443 444//444
f 442//442 448//448 445//445
f 448//448 442//442 444//444
f 445//445 447//447 446//446
f 447//447 445//445 448//448
f 448//448 443//443 447//447
f 443//443 448//448 444//444
f 404//404 401//401 402//402
f 403//403 402//402 401//401
f 406//406 404//404 405//405
f 402//402 405//405 404//404
f 402//402 403//403 405//405
f 407//407 405//405 403//403
f 408//408 407//407 401//401
f 403//403 401//401 407//407
f 406//406 408//408 404//404
f 401//401 404//404 408//408
f 406//406 405//405 409//409
f 410//410 409//409 405//405
f 409//409 410//410 411//411
f 412//412 411//411 410//410
f 405//405 413//413 410//410
f 416//416 414//414 413//413
f 415//415 413//413 414//414
f 407//407 416//416 405//405
f 413//413 405//405 416//416
f 408//408 417//417 407//407
f 418//418 407//407 417//417
f 408//408 406//406 419//419
f 420//420 419//419 406//406
f 419//419 420//420 421//421
f 422//422 421//421 420//420
f 420//420 406//406 409//409
f 409//409 411//411 423//423
f 424//424 423//423 411//411
f 411//411 412//412 424//424
f 425//425 424//424 412//412
f 410//410 426//426 412//412
f 425//425 412//412 426//426
f 414//414 427//427 415//415
f 428//428 415//415 427//427
f 415//415 428//428 413//413
f 429//429 413//413 428//428
f 413//413 429//429 410//410
f 426//426 410//410 429//429
f 416//416 430//430 414//414
f 427//427 414//414 430//430
f 407//407 418//418 416//416
f 418//418 417//417 431//431
f 432//432 431//431 417//417
f 417//417 408//408 419//419
f 434//434 422//422 433//433
f 420//420 433//433 422//422
f 436//436 419//419 435//435
f 421//421 435//435 419//419
f 435//435 421//421 434//434
f 422//422 434//434 421//421
f 433//433 420//420 423//423
f 409//409 423//423 420//420
f 424//424 425//425 423//423
f 426//426 423//423 425//425
f 430//430 429//429 427//427
f 428//428 427//427 429//429
f 429//429 437//437 426//426
f 418//418 438//438 416//416
f 430//430 416//416 438//438
f 418//418 431//431 438//438
f 439//439 438//438 431//431
f 431//431 432//432 439//439
f 440//440 439//439 432//432
f 417//417 441//441 432//432
f 440//440 432//432 441//441
f 441//441 417//417 436//436
f 419//419 436//436 417//417
f 436//436 435//435 433//433
f 434//434 433//433 435//435
f 442//442 433//433 423//423
f 442//442 423//423 437//437
f 426//426 437//437 423//423
f 443//443 437//437 430//430
f 429//429 430//430 437//437
f 438//438 443//443 430//430
f 439//439 440//440 438//438
f 441//441 438//438 440//440
f 444//444 441//441 436//436
f 444//444 436//436 442//442
f 433//433 442//442 436//436
f 442//442 437//437 445//445
f 446//446 445//445 437//437
f 447//447 446//446 443//443
f 437//437 443//443 446//446
f 444//444 443//443 441//441
f 438//438 441//441 443//443
f 444//444 442//442 448//448
f 445//445 448//448 442//442
f 448//448 445//445 447//447
f 446//446 447//447 445//445
f 444//444 448//448 443//443
f 447//447 443//443 448//448
f 449//449 450//450 451//451
f 450//450 449//449 452//452
f 453//453 449//449 451//451
f 449//449 453//453 454//454
f 450//450 455//455 451//451
f 455//455 450//450 456//456
f 450//450 457//457 456//456
f 457//457 450//450 452//452
f 451//451 458//458 453//453
f 458//458 451//451 455//455
f 454//454 452//452 449//449
f 452//452 454//454 459//459
f 460//460 454//454 453//453
f 454//454 460//460 461//461
f 457//457 455//455 456//456
f 455//455 457//457 462//462
f 452//452 463//463 457//457
f 463//463 452//452 459//459
f 462//462 458//458 455//455
f 458//458 462//462 464//464
f 453//453 465//465 460//460
f 465//465 453//453 458//458
f 466//466 461//461 460//460
f 461//461 466//466 467//467
f 461//461 459//459 454//454
f 459//459 461//461 468//468
f 469//469 470//470 471//471
f 470//470 469//469 472//472
f 463//463 462//462 457//457
f 462//462 463//463 464//464
f 459//459 473//473 463//463
f 473//473 459//459 468//468
f 464//464 465//465 458//458
f 465//465 464//464 474//474
f 475//475 460//460 465//465
f 460//460 475//475 466//466
f 475//475 476//476 477//477
f 476//476 475//475 478//478
f 477//477 466//466 475//475
f 466//466 477//477 479//479
f 479//479 467//467 466//466
f 467//467 479//479 480//480
f 481//481 467//467 480//480
f 467//467 481//481 482//482
f 483//483 481//481 484//484
f 481//481 483//483 482//482
f 482//482 461//461 467//467
f 461//461 482//482 485//485
f 486//486 468//468 461//461
f 468//468 486//486 487//487
f 488//488 469//469 471//471
f 469//469 488//488 489//489
f 490//490 469//469 489//489
f 469//469 490//490 472//472
f 472//472 491//491 470//470
f 491//491 472//472 485//485
f 492//492 471//471 470//470
f 471//471 492//492 488//488
f 493//493 487//487 486//486
f 487//487 493//493 494//494
f 494//494 495//495 487//487
f 495//495 494//494 496//496
f 497//497 486//486 498//498
f 486//486 497//497 493//493
f 473//473 464//464 463//463
f 464//464 473//473 474//474
f 495//495 499//499 500//500
f 499//499 495//495 496//496
f 487//487 473//473 468//468
f 473//473 487//487 495//495
f 465//465 478//478 475//475
f 478//478 465//465 474//474
f 476//476 501//501 502//502
f 501//501 476//476 478//478
f 503//503 477//477 502//502
f 503//503 479//479 477//477
f 484//484 479//479 503//503
f 484//484 480//480 479//479
f 480//480 484//484 481//481
f 502//502 477//477 476//476
f 504//504 484//484 503//503
f 484//484 504//504 483//483
f 491//491 482//482 483//483
f 482//482 491//491 485//485
f 498//498 461//461 485//485
f 461//461 498//498 486//486
f 498//498 505//505 497//497
f 505//505 498//498 506//506
f 492//492 489//489 488//488
f 489//489 492//492 490//490
f 507//507 472//472 490//490
f 472//472 507//507 485//485
f 492//492 491//491 508//508
f 491//491 492//492 470//470
f 509//509 510//510 511//511
f 510//510 509//509 512//512
f 497//497 494//494 493//493
f 494//494 505//505 496//496
f 505//505 494//494 497//497
f 496//496 513//513 499//499
f 496//496 514//514 513//513
f 514//514 496//496 505//505
f 499//499 515//515 500//500
f 515//515 499//499 513//513
f 473//473 500//500 474//474
f 500//500 473//473 495//495
f 478//478 516//516 501//501
f 516//516 478//478 474//474
f 503//503 501//501 504//504
f 501//501 503//503 502//502
f 517//517 483//483 504//504
f 483//483 517//517 491//491
f 518//518 511//511 510//510
f 511//511 518//518 519//519
f 519//519 509//509 511//511
f 509//509 519//519 520//520
f 485//485 506//506 498//498
f 506//506 485//485 507//507
f 506//506 514//514 505//505
f 514//514 506//506 521//521
f 508//508 490//490 492//492
f 490//490 508//508 507//507
f 512//512 491//491 510//510
f 491//491 512//512 508//508
f 520//520 512//512 509//509
f 512//512 520//520 522//522
f 523//523 524//524 525//525
f 524//524 523//523 526//526
f 514//514 515//515 513//513
f 515//515 514//514 521//521
f 500//500 516//516 474//474
f 516//516 500//500 515//515
f 504//504 516//516 517//517
f 516//516 504//504 501//501
f 518//518 491//491 517//517
f 491//491 518//518 510//510
f 518//518 520//520 519//519
f 520//520 518//518 522//522
f 507//507 521//521 506//506
f 521//521 507//507 527//527
f 507//507 526//526 523//523
f 526//526 507//507 508//508
f 522//522 508//508 512//512
f 508//508 522//522 528//528
f 524//524 529//529 530//530
f 529//529 524//524 526//526
f 525//525 530//530 531//531
f 530//530 525//525 524//524
f 532//532 525//525 531//531
f 525//525 532//532 523//523
f 521//521 516//516 515//515
f 516//516 521//521 527//527
f 517//517 533//533 534//534
f 533//533 517//517 516//516
f 517//517 522//522 518//518
f 522//522 517//517 528//528
f 527//527 523//523 532//532
f 523//523 527//527 507//507
f 526//526 528//528 529//529
f 528//528 526//526 508//508
f 531//531 529//529 532//532
f 529//529 531//531 530//530
f 516//516 535//535 533//533
f 535//535 516//516 527//527
f 534//534 535//535 536//536
f 535//535 534//534 533//533
f 517//517 536//536 528//528
f 536//536 517//517 534//534
f 532//532 528//528 527//527
f 528//528 532//532 529//529
f 535//535 528//528 536//536
f 528//528 535//535 527//527
f 452//452 449//449 450//450
f 451//451 450//450 449//449
f 454//454 453//453 449//449
f 451//451 449//449 453//453
f 456//456 450//450 455//455
f 451//451 455//455 450//450
f 452//452 450//450 457//457
f 456//456 457//457 450//450
f 455//455 451//451 458//458
f 453//453 458//458 451//451
f 459//459 454//454 452//452
f 449//449 452//452 454//454
f 461//461 460//460 454//454
f 453//453 454//454 460//460
f 462//462 457//457 455//455
f 456//456 455//455 457//457
f 459//459 452//452 463//463
f 457//457 463//463 452//452
f 464//464 462//462 458//458
f 455//455 458//458 462//462
f 458//458 453//453 465//465
f 460//460 465//465 453//453
f 467//467 466//466 461//461
f 460//460 461//461 466//466
f 468//468 461//461 459//459
f 454//454 459//459 461//461
f 472//472 469//469 470//470
f 471//471 470//470 469//469
f 464//464 463//463 462//462
f 457//457 462//462 463//463
f 468//468 459//459 473//473
f 463//463 473//473 459//459
f 474//474 464//464 465//465
f 458//458 465//465 464//464
f 466//466 475//475 460//460
f 465//465 460//460 475//475
f 478//478 475//475 476//476
f 477//477 476//476 475//475
f 479//479 477//477 466//466
f 475//475 466//466 477//477
f 480//480 479//479 467//467
f 466//466 467//467 479//479
f 482//482 481//481 467//467
f 480//480 467//467 481//481
f 482//482 483//483 481//481
f 484//484 481//481 483//483
f 485//485 482//482 461//461
f 467//467 461//461 482//482
f 487//487 486//486 468//468
f 461//461 468//468 486//486
f 489//489 488//488 469//469
f 471//471 469//469 488//488
f 472//472 490//490 469//469
f 489//489 469//469 490//490
f 485//485 472//472 491//491
f 470//470 491//491 472//472
f 488//488 492//492 471//471
f 470//470 471//471 492//492
f 494//494 493//493 487//487
f 486//486 487//487 493//493
f 496//496 494//494 495//495
f 487//487 495//495 494//494
f 493//493 497//497 486//486
f 498//498 486//486 497//497
f 474//474 473//473 464//464
f 463//463 464//464 473//473
f 496//496 495//495 499//499
f 500//500 499//499 495//495
f 495//495 487//487 473//473
f 468//468 473//473 487//487
f 474//474 465//465 478//478
f 475//475 478//478 465//465
f 478//478 476//476 501//501
f 502//502 501//501 476//476
f 476//476 477//477 502//502
f 481//481 484//484 480//480
f 479//479 480//480 484//484
f 503//503 479//479 484//484
f 477//477 479//479 503//503
f 502//502 477//477 503//503
f 483//483 504//504 484//484
f 503//503 484//484 504//504
f 485//485 491//491 482//482
f 483//483 482//482 491//491
f 486//486 498//498 461//461
f 485//485 461//461 498//498
f 506//506 498//498 505//505
f 497//497 505//505 498//498
f 490//490 492//492 489//489
f 488//488 489//489 492//492
f 485//485 507//507 472//472
f 490//490 472//472 507//507
f 470//470 492//492 491//491
f 508//508 491//491 492//492
f 512//512 509//509 510//510
f 511//511 510//510 509//509
f 505//505 496//496 514//514
f 513//513 514//514 496//496
f 499//499 513//513 496//496
f 497//497 494//494 505//505
f 496//496 505//505 494//494
f 493//493 494//494 497//497
f 513//513 499//499 515//515
f 500//500 515//515 499//499
f 495//495 473//473 500//500
f 474//474 500//500 473//473
f 474//474 478//478 516//516
f 501//501 516//516 478//478
f 502//502 503//503 501//501
f 504//504 501//501 503//503
f 491//491 517//517 483//483
f 504//504 483//483 517//517
f 519//519 518//518 511//511
f 510//510 511//511 518//518
f 520//520 519//519 509//509
f 511//511 509//509 519//519
f 507//507 485//485 506//506
f 498//498 506//506 485//485
f 521//521 506//506 514//514
f 505//505 514//514 506//506
f 507//507 508//508 490//490
f 492//492 490//490 508//508
f 508//508 512//512 491//491
f 510//510 491//491 512//512
f 522//522 520//520 512//512
f 509//509 512//512 520//520
f 526//526 523//523 524//524
f 525//525 524//524 523//523
f 521//521 514//514 515//515
f 513//513 515//515 514//514
f 515//515 500//500 516//516
f 474//474 516//516 500//500
f 501//501 504//504 516//516
f 517//517 516//516 504//504
f 510//510 518//518 491//491
f 517//517 491//491 518//518
f 522//522 518//518 520//520
f 519//519 520//520 518//518
f 527//527 507//507 521//521
f 506//506 521//521 507//507
f 508//508 507//507 526//526
f 523//523 526//526 507//507
f 528//528 522//522 508//508
f 512//512 508//508 522//522
f 526//526 524//524 529//529
f 530//530 529//529 524//524
f 524//524 525//525 530//530
f 531//531 530//530 525//525
f 523//523 532//532 525//525
f 531//531 525//525 532//532
f 527//527 521//521 516//516
f 515//515 516//516 521//521
f 516//516 517//517 533//533
f 534//534 533//533 517//517
f 528//528 517//517 522//522
f 518//518 522//522 517//517
f 507//507 527//527 523//523
f 532//532 523//523 527//527
f 508//508 526//526 528//528
f 529//529 528//528 526//526
f 530//530 531//531 529//529
f 532//532 529//529 531//531
f 527//527 516//516 535//535
f 533//533 535//535 516//516
f 533//533 534//534 535//535
f 536//536 535//535 534//534
f 534//534 517//517 536//536
f 528//528 536//536 517//517
f 529//529 532//532 528//528
f 527//527 528//528 532//532
f 527//527 535//535 528//528
f 536//536 528//528 535//535