# https://github.com/mikedh/trimesh
v -0.00526500 -0.01667600 0.00360500
v -0.00363800 -0.01559100 0.00360500
v -0.00363800 -0.01667600 0.00360500
v -0.00526500 -0.01559100 0.00360500
v -0.00363800 -0.01667600 -0.02056000
v -0.00526500 -0.01667600 -0.02056000
v -0.00526500 -0.01559100 -0.02056000
v -0.00363800 -0.01559100 -0.02056000
v -0.00526500 -0.01721800 -0.02170500
v -0.00363800 -0.01559100 -0.02170500
v -0.00363800 -0.01721800 -0.02170500
v -0.00526500 -0.01559100 -0.02170500
v -0.00526500 -0.01559100 0.00479700
v -0.00526500 -0.01721800 0.00479700
v -0.00363800 -0.01721800 0.00479700
v -0.00363800 -0.01559100 0.00479700
v 0.00450000 -0.01667600 0.00390000
v 0.00612800 -0.01559100 0.00390000
v 0.00612800 -0.01667600 0.00390000
v 0.00450000 -0.01559100 0.00390000
v 0.00612800 -0.01667600 -0.02062000
v 0.00450000 -0.01667600 -0.02062000
v 0.00450000 -0.01559100 -0.02062000
v 0.00612800 -0.01559100 -0.02062000
v 0.00450000 -0.01559100 -0.02170500
v 0.00450000 -0.01721800 -0.02170500
v 0.00450000 -0.01559100 0.00479700
v 0.00450000 -0.01721800 0.00479700
v 0.00612800 -0.01721800 0.00479700
v 0.00612800 -0.01559100 0.00479700
v 0.00612800 -0.01559100 -0.02170500
v 0.00612800 -0.01721800 -0.02170500
v 0.00346800 -0.01559100 0.03346000
v 0.00509600 -0.01667600 0.03346000
v 0.00509600 -0.01559100 0.03346000
v 0.00346800 -0.01667600 0.03346000
v 0.00346800 -0.01667600 0.04268300
v 0.00509600 -0.01667600 0.04268300
v 0.00509600 -0.01559100 0.04268300
v 0.00346800 -0.01559100 0.04268300
v 0.00509600 -0.01559100 0.04376800
v 0.00509600 -0.01721800 0.04376800
v 0.00509600 -0.01559100 0.03237500
v 0.00509600 -0.01721800 0.03237500
v 0.00346800 -0.01721800 0.03237500
v 0.00346800 -0.01559100 0.03237500
v 0.00346800 -0.01559100 0.04376800
v 0.00346800 -0.01721800 0.04376800
v -0.00466900 -0.01559100 0.03346000
v -0.00304100 -0.01667600 0.03346000
v -0.00304100 -0.01559100 0.03346000
v -0.00466900 -0.01667600 0.03346000
v -0.00466900 -0.01667600 0.04268300
v -0.00304100 -0.01667600 0.04268300
v -0.00304100 -0.01559100 0.04268300
v -0.00466900 -0.01559100 0.04268300
v -0.00304100 -0.01559100 0.04376800
v -0.00304100 -0.01721800 0.04376800
v -0.00304100 -0.01559100 0.03237500
v -0.00304100 -0.01721800 0.03237500
v -0.00466900 -0.01721800 0.03237500
v -0.00466900 -0.01559100 0.03237500
v -0.00466900 -0.01559100 0.04376800
v -0.00466900 -0.01721800 0.04376800
v -0.00045100 -0.01559100 -0.00139300
v 0.00117700 -0.01559100 0.02157600
v -0.00045100 -0.01559100 0.02157600
v 0.00117700 -0.01559100 -0.00139300
v -0.00045100 -0.01559100 -0.01248200
v 0.00117700 -0.01559100 -0.01248200
v 0.00117700 -0.01559100 -0.04859200
v -0.00045100 -0.01559100 -0.04859200
v -0.00045100 -0.01559100 0.02320400
v 0.00117700 -0.01559100 0.05195700
v -0.00045100 -0.01559100 0.05195700
v 0.00117700 -0.01559100 0.02320400
v -0.04320000 -0.01559100 0.02320400
v 0.04229800 -0.01559100 0.02320400
v -0.04320000 -0.01559100 0.02157600
v 0.04229800 -0.01559100 0.02157600
v -0.04529000 -0.01559100 -0.04859200
v -0.04304900 -0.01559100 -0.05401700
v -0.04304900 -0.01559100 -0.04859200
v -0.04529000 -0.01559100 -0.05401700
v 0.04214600 -0.01559100 -0.04606200
v 0.04214600 -0.01559100 -0.04859200
v 0.04229800 -0.01559100 -0.04606200
v -0.04529000 -0.01559100 0.05448700
v -0.04320000 -0.01559100 0.05195700
v 0.04438800 -0.01559100 0.05448700
v -0.04320000 -0.01559100 -0.00139300
v -0.04320000 -0.01559100 -0.01248200
v -0.04320000 -0.01559100 -0.04606200
v -0.04304900 -0.01559100 -0.04606200
v 0.04229800 -0.01559100 0.05195700
v 0.04229800 -0.01559100 -0.00139300
v 0.04229800 -0.01559100 -0.01248200
v 0.04438800 -0.01559100 -0.04859200
v 0.04214600 -0.01559100 -0.05401700
v 0.04438800 -0.01559100 -0.05401700
v 0.04438800 0.01696000 -0.05401700
v -0.04529000 0.01696000 0.05448700
v 0.04438800 0.01696000 0.05448700
v -0.04529000 0.01696000 -0.05401700
v -0.04304900 -0.01396300 -0.05401700
v -0.04304900 -0.01396300 -0.04859200
v 0.04214600 -0.01396300 -0.04859200
v 0.04214600 -0.01396300 -0.05401700
vn -0.90453403 0.30151134 -0.30151134
vn 0.30151134 -0.90453403 -0.30151134
vn 0.90453403 0.30151134 -0.30151134
vn -0.30151134 -0.90453403 -0.30151134
vn 0.90453403 0.30151134 0.30151134
vn -0.90453403 0.30151134 0.30151134
vn -0.30151134 -0.90453403 0.30151134
vn 0.30151134 -0.90453403 0.30151134
vn -0.57735027 -0.57735027 -0.57735027
vn 0.30151134 -0.90453403 -0.30151134
vn 0.57735027 -0.57735027 -0.57735027
vn -0.30151134 -0.90453403 -0.30151134
vn -0.30151134 -0.90453403 0.30151134
vn -0.57735027 -0.57735027 0.57735027
vn 0.57735027 -0.57735027 0.57735027
vn 0.30151134 -0.90453403 0.30151134
vn -0.90453403 0.30151134 -0.30151134
vn 0.30151134 -0.90453403 -0.30151134
vn 0.90453403 0.30151134 -0.30151134
vn -0.30151134 -0.90453403 -0.30151134
vn 0.90453403 0.30151134 0.30151134
vn -0.90453403 0.30151134 0.30151134
vn -0.30151134 -0.90453403 0.30151134
vn 0.30151134 -0.90453403 0.30151134
vn -0.30151134 -0.90453403 -0.30151134
vn -0.57735027 -0.57735027 -0.57735027
vn -0.30151134 -0.90453403 0.30151134
vn -0.57735027 -0.57735027 0.57735027
vn 0.57735027 -0.57735027 0.57735027
vn 0.30151134 -0.90453403 0.30151134
vn 0.30151134 -0.90453403 -0.30151134
vn 0.57735027 -0.57735027 -0.57735027
vn -0.23570226 -0.94280904 0.23570226
vn 0.90453403 0.30151134 0.30151134
vn 0.23570226 -0.94280904 0.23570226
vn -0.90453403 0.30151134 0.30151134
vn -0.90453403 0.30151134 -0.30151134
vn 0.90453403 0.30151134 -0.30151134
vn 0.23570226 -0.94280904 -0.23570226
vn -0.23570226 -0.94280904 -0.23570226
vn 0.23570226 -0.94280904 0.23570226
vn 0.57735027 -0.57735027 0.57735027
vn 0.23570226 -0.94280904 -0.23570226
vn 0.57735027 -0.57735027 -0.57735027
vn -0.57735027 -0.57735027 -0.57735027
vn -0.23570226 -0.94280904 -0.23570226
vn -0.23570226 -0.94280904 0.23570226
vn -0.57735027 -0.57735027 0.57735027
vn -0.23570226 -0.94280904 0.23570226
vn 0.90453403 0.30151134 0.30151134
vn 0.23570226 -0.94280904 0.23570226
vn -0.90453403 0.30151134 0.30151134
vn -0.90453403 0.30151134 -0.30151134
vn 0.90453403 0.30151134 -0.30151134
vn 0.23570226 -0.94280904 -0.23570226
vn -0.23570226 -0.94280904 -0.23570226
vn 0.23570226 -0.94280904 0.23570226
vn 0.57735027 -0.57735027 0.57735027
vn 0.23570226 -0.94280904 -0.23570226
vn 0.57735027 -0.57735027 -0.57735027
vn -0.57735027 -0.57735027 -0.57735027
vn -0.23570226 -0.94280904 -0.23570226
vn -0.23570226 -0.94280904 0.23570226
vn -0.57735027 -0.57735027 0.57735027
vn 0.00000000 -1.00000000 0.00000000
vn 0.00000000 -1.00000000 0.00000000
vn 0.00000000 -1.00000000 0.00000000
vn 0.00000000 -1.00000000 0.00000000
vn 0.00000000 -1.00000000 0.00000000
vn 0.00000000 -1.00000000 0.00000000
vn 0.00000000 -0.70710678 -0.70710678
vn 0.00000000 -0.70710678 -0.70710678
vn 0.00000000 -1.00000000 0.00000000
vn 0.00000000 -1.00000000 0.00000000
vn 0.00000000 -1.00000000 0.00000000
vn 0.00000000 -1.00000000 0.00000000
vn 0.00000000 -1.00000000 0.00000000
vn 0.00000000 -1.00000000 0.00000000
vn 0.00000000 -1.00000000 0.00000000
vn 0.00000000 -1.00000000 0.00000000
vn -0.70710678 -0.70710678 0.00000000
vn 0.57735027 -0.57735027 -0.57735027
vn 0.30151134 -0.90453403 -0.30151134
vn -0.57735027 -0.57735027 -0.57735027
vn 0.00000000 -1.00000000 0.00000000
vn -0.30151134 -0.90453403 -0.30151134
vn 0.00000000 -1.00000000 0.00000000
vn -0.57735027 -0.57735027 0.57735027
vn 0.00000000 -1.00000000 0.00000000
vn 0.57735027 -0.57735027 0.57735027
vn 0.00000000 -1.00000000 0.00000000
vn 0.00000000 -1.00000000 0.00000000
vn 0.00000000 -1.00000000 0.00000000
vn 0.00000000 -1.00000000 0.00000000
vn 0.00000000 -1.00000000 0.00000000
vn 0.00000000 -1.00000000 0.00000000
vn 0.00000000 -1.00000000 0.00000000
vn 0.70710678 -0.70710678 0.00000000
vn -0.57735027 -0.57735027 -0.57735027
vn 0.57735027 -0.57735027 -0.57735027
vn 0.57735027 0.57735027 -0.57735027
vn -0.57735027 0.57735027 0.57735027
vn 0.57735027 0.57735027 0.57735027
vn -0.57735027 0.57735027 -0.57735027
vn 0.30151134 -0.30151134 -0.90453403
vn 0.57735027 -0.57735027 -0.57735027
vn -0.57735027 -0.57735027 -0.57735027
vn -0.30151134 -0.30151134 -0.90453403
f 1//1 2//2 3//3
f 2//2 1//1 4//4
f 5//5 1//1 3//3
f 1//1 5//5 6//6
f 7//7 5//5 8//8
f 5//5 7//7 6//6
f 9//9 10//10 11//11
f 10//10 9//9 12//12
f 1//1 13//13 4//4
f 1//1 14//14 13//13
f 14//14 1//1 9//9
f 12//12 6//6 7//7
f 6//6 9//9 1//1
f 9//9 6//6 12//12
f 13//13 15//15 16//16
f 15//15 13//13 14//14
f 16//16 3//3 2//2
f 3//3 15//15 5//5
f 15//15 3//3 16//16
f 5//5 10//10 8//8
f 5//5 11//11 10//10
f 11//11 5//5 15//15
f 9//9 15//15 14//14
f 15//15 9//9 11//11
f 17//17 18//18 19//19
f 18//18 17//17 20//20
f 21//21 17//17 19//19
f 17//17 21//21 22//22
f 23//23 21//21 24//24
f 21//21 23//23 22//22
f 25//25 22//22 23//23
f 22//22 26//26 17//17
f 26//26 22//22 25//25
f 17//17 27//27 20//20
f 17//17 28//28 27//27
f 28//28 17//17 26//26
f 27//27 29//29 30//30
f 29//29 27//27 28//28
f 30//30 19//19 18//18
f 19//19 29//29 21//21
f 29//29 19//19 30//30
f 21//21 31//31 24//24
f 21//21 32//32 31//31
f 32//32 21//21 29//29
f 26//26 31//31 32//32
f 31//31 26//26 25//25
f 26//26 29//29 28//28
f 29//29 26//26 32//32
f 33//33 34//34 35//35
f 34//34 33//33 36//36
f 34//34 37//37 38//38
f 37//37 34//34 36//36
f 37//37 39//39 38//38
f 39//39 37//37 40//40
f 41//41 38//38 39//39
f 38//38 42//42 34//34
f 42//42 38//38 41//41
f 34//34 43//43 35//35
f 34//34 44//44 43//43
f 44//44 34//34 42//42
f 45//45 43//43 44//44
f 43//43 45//45 46//46
f 46//46 36//36 33//33
f 36//36 45//45 37//37
f 45//45 36//36 46//46
f 37//37 47//47 40//40
f 37//37 48//48 47//47
f 48//48 37//37 45//45
f 47//47 42//42 41//41
f 42//42 47//47 48//48
f 45//45 42//42 48//48
f 42//42 45//45 44//44
f 49//49 50//50 51//51
f 50//50 49//49 52//52
f 50//50 53//53 54//54
f 53//53 50//50 52//52
f 53//53 55//55 54//54
f 55//55 53//53 56//56
f 57//57 54//54 55//55
f 54//54 58//58 50//50
f 58//58 54//54 57//57
f 50//50 59//59 51//51
f 50//50 60//60 59//59
f 60//60 50//50 58//58
f 61//61 59//59 60//60
f 59//59 61//61 62//62
f 62//62 52//52 49//49
f 52//52 61//61 53//53
f 61//61 52//52 62//62
f 53//53 63//63 56//56
f 53//53 64//64 63//63
f 64//64 53//53 61//61
f 63//63 58//58 57//57
f 58//58 63//63 64//64
f 61//61 58//58 64//64
f 58//58 61//61 60//60
f 62//62 51//51 49//49
f 51//51 62//62 59//59
f 56//56 57//57 63//63
f 57//57 56//56 55//55
f 46//46 35//35 33//33
f 35//35 46//46 43//43
f 40//40 41//41 47//47
f 41//41 40//40 39//39
f 65//65 66//66 67//67
f 65//65 68//68 66//66
f 69//69 68//68 65//65
f 69//69 70//70 68//68
f 69//69 71//71 70//70
f 71//71 69//69 72//72
f 73//73 74//74 75//75
f 74//74 73//73 76//76
f 77//77 76//76 73//73
f 77//77 78//78 76//76
f 79//79 78//78 77//77
f 67//67 78//78 79//79
f 66//66 78//78 67//67
f 78//78 66//66 80//80
f 81//81 82//82 83//83
f 82//82 81//81 84//84
f 85//85 86//86 87//87
f 88//88 89//89 90//90
f 88//88 77//77 89//89
f 88//88 79//79 77//77
f 88//88 91//91 79//79
f 88//88 92//92 91//91
f 88//88 93//93 92//92
f 81//81 93//93 88//88
f 81//81 94//94 93//93
f 94//94 81//81 83//83
f 75//75 90//90 89//89
f 74//74 90//90 75//75
f 95//95 90//90 74//74
f 78//78 90//90 95//95
f 80//80 90//90 78//78
f 96//96 90//90 80//80
f 97//97 90//90 96//96
f 87//87 90//90 97//97
f 87//87 98//98 90//90
f 98//98 87//87 86//86
f 99//99 98//98 86//86
f 98//98 99//99 100//100
f 101//101 102//102 103//103
f 102//102 101//101 104//104
f 90//90 101//101 103//103
f 98//98 101//101 90//90
f 101//101 98//98 100//100
f 84//84 102//102 104//104
f 81//81 102//102 84//84
f 102//102 81//81 88//88
f 103//103 88//88 90//90
f 88//88 103//103 102//102
f 70//70 23//23 97//97
f 70//70 25//25 23//23
f 25//25 85//85 31//31
f 71//71 25//25 70//70
f 71//71 85//85 25//25
f 85//85 71//71 86//86
f 24//24 97//97 23//23
f 31//31 97//97 24//24
f 85//85 97//97 31//31
f 97//97 85//85 87//87
f 92//92 7//7 69//69
f 92//92 12//12 7//7
f 12//12 93//93 10//10
f 93//93 12//12 92//92
f 8//8 69//69 7//7
f 10//10 69//69 8//8
f 94//94 10//10 93//93
f 83//83 10//10 94//94
f 10//10 72//72 69//69
f 72//72 10//10 83//83
f 83//83 105//105 106//106
f 105//105 83//83 82//82
f 71//71 107//107 86//86
f 72//72 107//107 71//71
f 83//83 107//107 72//72
f 107//107 83//83 106//106
f 99//99 107//107 108//108
f 107//107 99//99 86//86
f 106//106 108//108 107//107
f 108//108 106//106 105//105
f 89//89 63//63 75//75
f 89//89 56//56 63//63
f 56//56 49//49 55//55
f 89//89 49//49 56//56
f 89//89 62//62 49//49
f 62//62 77//77 59//59
f 77//77 62//62 89//89
f 57//57 75//75 63//63
f 55//55 75//75 57//57
f 49//49 75//75 55//55
f 51//51 75//75 49//49
f 59//59 75//75 51//51
f 59//59 73//73 75//75
f 73//73 59//59 77//77
f 74//74 47//47 95//95
f 74//74 40//40 47//47
f 40//40 33//33 39//39
f 74//74 33//33 40//40
f 74//74 46//46 33//33
f 46//46 76//76 43//43
f 76//76 46//46 74//74
f 41//41 95//95 47//47
f 39//39 95//95 41//41
f 33//33 95//95 39//39
f 35//35 95//95 33//33
f 43//43 95//95 35//35
f 76//76 95//95 43//43
f 95//95 76//76 78//78
f 79//79 13//13 67//67
f 79//79 4//4 13//13
f 4//4 91//91 2//2
f 91//91 4//4 79//79
f 16//16 67//67 13//13
f 2//2 67//67 16//16
f 2//2 65//65 67//67
f 65//65 2//2 91//91
f 66//66 27//27 80//80
f 66//66 20//20 27//27
f 20//20 68//68 18//18
f 68//68 20//20 66//66
f 30//30 80//80 27//27
f 18//18 80//80 30//30
f 68//68 80//80 18//18
f 80//80 68//68 96//96
f 82//82 84//84 105//105
f 99//99 101//101 100//100
f 108//108 101//101 99//99
f 105//105 101//101 108//108
f 105//105 104//104 101//101
f 104//104 105//105 84//84
f 92//92 65//65 91//91
f 65//65 92//92 69//69
f 70//70 96//96 68//68
f 96//96 70//70 97//97