# https://github.com/mikedh/trimesh
v 0.00778700 -0.01505300 0.01019500
v 0.01061700 -0.01274000 0.09785000
v 0.00778700 -0.01505300 0.09785000
v 0.01061700 -0.01274000 0.01019500
v 0.01275200 -0.00977300 0.01019500
v 0.01275200 -0.00977300 0.09785000
v 0.00445500 -0.01655500 0.01019500
v 0.00445500 -0.01655500 0.09785000
v 0.01404600 -0.00635500 0.01019500
v 0.01404600 -0.00635500 0.09785000
v 0.00084800 -0.01714300 0.01019500
v 0.00084800 -0.01714300 0.09785000
v 0.01441100 -0.00271900 0.01019500
v 0.01441100 -0.00271900 0.09785000
v -0.00278800 -0.01677800 0.01019500
v -0.00278800 -0.01677800 0.09785000
v 0.01382300 0.00088900 0.01019500
v 0.01382300 0.00088900 0.09785000
v -0.00620700 -0.01548400 0.01019500
v -0.00620700 -0.01548400 0.09785000
v 0.01232100 0.00422000 0.01019500
v 0.01232100 0.00422000 0.09785000
v -0.00917300 -0.01334900 0.01019500
v -0.00917300 -0.01334900 0.09785000
v 0.01000800 0.00705100 0.01019500
v 0.01000800 0.00705100 0.09785000
v -0.01148600 -0.01051900 0.09785000
v -0.01148600 -0.01051900 0.01019500
v 0.00704100 0.00918500 0.09785000
v 0.00704100 0.00918500 0.01019500
v -0.01298800 -0.00718700 0.09785000
v -0.01298800 -0.00718700 0.01019500
v 0.00362300 0.01047900 0.09785000
v 0.00362300 0.01047900 0.01019500
v -0.01357600 -0.00358000 0.09785000
v -0.01357600 -0.00358000 0.01019500
v -0.00001300 0.01084400 0.09785000
v -0.00001300 0.01084400 0.01019500
v -0.01321100 0.00005700 0.09785000
v -0.01321100 0.00005700 0.01019500
v -0.00362100 0.01025600 0.09785000
v -0.00362100 0.01025600 0.01019500
v -0.01191700 0.00347400 0.09785000
v -0.01191700 0.00347400 0.01019500
v -0.00695300 0.00875400 0.09785000
v -0.00695300 0.00875400 0.01019500
v -0.00978200 0.00644100 0.09785000
v -0.00978200 0.00644100 0.01019500
v 0.00438200 0.01027800 -0.09207000
v 0.00077300 0.01084700 -0.00441400
v 0.00438200 0.01027800 -0.00441400
v 0.00077300 0.01084700 -0.09207000
v 0.00772300 0.00879400 -0.09207000
v 0.00772300 0.00879400 -0.00441400
v -0.00286200 0.01046100 -0.00441400
v -0.00286200 0.01046100 -0.09207000
v 0.01056500 0.00649600 -0.09207000
v 0.01056500 0.00649600 -0.00441400
v -0.00627300 0.00914900 -0.00441400
v -0.00627300 0.00914900 -0.09207000
v 0.01271600 0.00354200 -0.00441400
v 0.01271600 0.00354200 -0.09207000
v -0.00922900 0.00699800 -0.00441400
v -0.00922900 0.00699800 -0.09207000
v 0.01402800 0.00013100 -0.00441400
v 0.01402800 0.00013100 -0.09207000
v -0.01152600 0.00415600 -0.09207000
v -0.01152600 0.00415600 -0.00441400
v 0.01441400 -0.00350400 -0.00441400
v 0.01441400 -0.00350400 -0.09207000
v -0.01301000 0.00081500 -0.09207000
v -0.01301000 0.00081500 -0.00441400
v 0.01384500 -0.00711400 -0.00441400
v 0.01384500 -0.00711400 -0.09207000
v -0.01357800 -0.00279500 -0.09207000
v -0.01357800 -0.00279500 -0.00441400
v 0.01236100 -0.01045500 -0.00441400
v 0.01236100 -0.01045500 -0.09207000
v -0.01319400 -0.00642900 -0.09207000
v -0.01319400 -0.00642900 -0.00441400
v 0.01006300 -0.01329700 -0.00441400
v 0.01006300 -0.01329700 -0.09207000
v -0.01188100 -0.00984000 -0.09207000
v -0.01188100 -0.00984000 -0.00441400
v 0.00710800 -0.01544700 -0.09207000
v 0.00710800 -0.01544700 -0.00441400
v -0.00973000 -0.01279500 -0.09207000
v -0.00973000 -0.01279500 -0.00441400
v 0.00369800 -0.01676000 -0.09207000
v 0.00369800 -0.01676000 -0.00441400
v -0.00688700 -0.01509300 -0.00441400
v -0.00688700 -0.01509300 -0.09207000
v 0.00006300 -0.01714500 -0.09207000
v 0.00006300 -0.01714500 -0.00441400
v -0.00354800 -0.01657600 -0.00441400
v -0.00354800 -0.01657600 -0.09207000
v -0.00337400 0.02156300 -0.01902400
v 0.00271300 0.02156300 0.00045500
v -0.00337400 0.02156300 0.00045500
v 0.00271300 0.02156300 -0.01902400
v 0.01741800 0.02582400 -0.01902400
v 0.01741800 0.02156300 -0.01902400
v -0.01606100 0.02156300 -0.01902400
v -0.01606100 0.02582400 -0.01902400
v 0.01741800 0.02156300 0.01993400
v 0.01741800 0.02582400 0.01993400
v 0.00271300 0.02156300 0.00532500
v 0.00271300 0.02156300 0.01993400
v -0.00337400 0.02156300 0.00532500
v -0.00337400 0.02156300 0.01993400
v -0.01606100 0.02156300 0.01993400
v -0.01606100 0.02582400 0.01993400
v -0.02175100 0.02582400 -0.02145800
v -0.02175100 0.03069400 0.02236900
v -0.02175100 0.03069400 -0.02145800
v -0.02175100 0.02582400 0.02236900
v -0.01606100 0.02582400 0.02236900
v -0.01606100 0.02582400 -0.02145800
v 0.01741800 0.02582400 -0.02145800
v 0.02207700 0.03069400 -0.02145800
v 0.02207700 0.02582400 -0.02145800
v 0.02207700 0.02582400 0.02236900
v 0.01741800 0.02582400 0.02236900
v 0.02207700 0.03069400 0.02236900
v -0.00991200 -0.01347900 -0.00441400
v -0.01223400 -0.01045400 0.01019500
v -0.01223400 -0.01045400 -0.00441400
v -0.00991200 -0.01347900 0.01019500
v -0.00688700 -0.01580100 0.01019500
v -0.00688700 -0.01580100 -0.00441400
v -0.01369400 -0.00693000 0.01019500
v -0.01369400 -0.00693000 -0.00441400
v -0.00336400 -0.01726100 0.01019500
v -0.00336400 -0.01726100 -0.00441400
v -0.01419200 -0.00314900 0.01019500
v -0.01419200 -0.00314900 -0.00441400
v 0.00041700 -0.01775900 0.01019500
v 0.00041700 -0.01775900 -0.00441400
v -0.01369400 0.00063100 0.01019500
v -0.01369400 0.00063100 -0.00441400
v 0.00419900 -0.01726100 0.01019500
v 0.00419900 -0.01726100 -0.00441400
v -0.01223400 0.00415500 0.01019500
v -0.01223400 0.00415500 -0.00441400
v 0.00772200 -0.01580100 0.01019500
v 0.00772200 -0.01580100 -0.00441400
v -0.00991200 0.00718100 0.01019500
v -0.00991200 0.00718100 -0.00441400
v 0.01074800 -0.01347900 0.01019500
v 0.01074800 -0.01347900 -0.00441400
v -0.00688700 0.00950300 -0.00441400
v -0.00688700 0.00950300 0.01019500
v 0.01307000 -0.01045400 -0.00441400
v 0.01307000 -0.01045400 0.01019500
v -0.00336400 0.01096200 -0.00441400
v -0.00336400 0.01096200 0.01019500
v 0.01452900 -0.00693000 -0.00441400
v 0.01452900 -0.00693000 0.01019500
v 0.00041700 0.01146000 -0.00441400
v 0.00041700 0.01146000 0.01019500
v 0.01502600 -0.00314900 -0.00441400
v 0.01502600 -0.00314900 0.01019500
v 0.00419900 0.01096200 -0.00441400
v 0.00419900 0.01096200 0.01019500
v 0.01452900 0.00063100 -0.00441400
v 0.01452900 0.00063100 0.01019500
v 0.00772200 0.00950300 -0.00441400
v 0.00772200 0.00950300 0.01019500
v 0.01307000 0.00415500 -0.00441400
v 0.01307000 0.00415500 0.01019500
v 0.01074800 0.00718100 -0.00441400
v 0.01074800 0.00718100 0.01019500
v 0.00271300 0.01171400 0.00532500
v -0.00337400 0.01171400 0.00532500
v 0.00271300 0.01171400 0.00045500
v -0.00337400 0.01171400 0.00045500
vn 0.35539133 -0.57403121 0.73768907
vn 0.53490677 -0.50300079 0.67887035
vn 0.38650398 -0.62428464 0.67888391
vn 0.49182697 -0.46249060 0.73770500
vn 0.59478234 -0.31941403 0.73770499
vn 0.64688012 -0.34739193 0.67887036
vn 0.19469862 -0.64642980 0.73771333
vn 0.21175729 -0.70306724 0.67886325
vn 0.65719108 -0.15455607 0.73770747
vn 0.71476009 -0.16809497 0.67886825
vn 0.02077276 -0.67482919 0.73768154
vn 0.02259085 -0.73389207 0.67889033
vn 0.67483546 0.02075809 0.73767622
vn 0.73388838 0.02257457 0.67889486
vn -0.15452718 -0.65721102 0.73769576
vn -0.16805824 -0.71475925 0.67887822
vn 0.64640333 0.19471478 0.73773226
vn 0.70307425 0.21178565 0.67884713
vn -0.31941671 -0.59474240 0.73773603
vn -0.34742386 -0.64689071 0.67884392
vn 0.57407407 0.35539378 0.73765454
vn 0.62427323 0.38647073 0.67891333
vn -0.46254437 -0.49180539 0.73768568
vn -0.50303311 -0.53485549 0.67888681
vn 0.46244278 0.49180025 0.73775280
vn 0.50301347 0.53494651 0.67882964
vn -0.62428464 -0.38650398 0.67888391
vn -0.57403121 -0.35539133 0.73768907
vn 0.34731008 0.64690005 0.67889324
vn 0.31936186 0.59484366 0.73767813
vn -0.70306724 -0.21175729 0.67886325
vn -0.64642980 -0.19469862 0.73771333
vn 0.16809497 0.71476009 0.67886825
vn 0.15455607 0.65719108 0.73770747
vn -0.73388916 -0.02260080 0.67889315
vn -0.67483252 -0.02078209 0.73767824
vn -0.02257457 0.73388838 0.67889486
vn -0.02075809 0.67483546 0.73767622
vn -0.71476576 0.16812254 0.67885545
vn -0.65716972 0.15457517 0.73772249
vn -0.21174303 0.70307591 0.67885872
vn -0.19468272 0.64642851 0.73771866
vn -0.64685515 0.34741890 0.67888034
vn -0.59477814 0.31944890 0.73769327
vn -0.38656671 0.62426519 0.67886608
vn -0.35542898 0.57398098 0.73771002
vn -0.53493831 0.50294318 0.67888818
vn -0.49188369 0.46246369 0.73768406
vn 0.20797784 0.70416672 -0.67889207
vn 0.01707123 0.67486387 -0.73774476
vn 0.19124105 0.64749966 -0.73767950
vn 0.01856851 0.73405465 -0.67883649
vn 0.38315313 0.62637414 -0.67885869
vn 0.35228214 0.57590662 -0.73771869
vn -0.15819163 0.65638784 -0.73765195
vn -0.17202330 0.71377985 -0.67891554
vn 0.53213464 0.50588056 -0.67890912
vn 0.48933802 0.46519542 -0.73765949
vn -0.32255859 0.59307904 -0.73770808
vn -0.35081485 0.64503299 -0.67886773
vn 0.59298971 0.32263374 -0.73774702
vn 0.64500342 0.35093336 -0.67883456
vn -0.46512000 0.48931221 -0.73772416
vn -0.50588659 0.53219918 -0.67885403
vn 0.65638784 0.15819163 -0.73765195
vn 0.71377985 0.17202330 -0.67891554
vn -0.62639761 0.38307591 -0.67888061
vn -0.57596809 0.35223553 -0.73769295
vn 0.67486986 -0.01705700 -0.73773961
vn 0.73405099 -0.01855277 -0.67884088
vn -0.70422784 0.20787610 -0.67885984
vn -0.64748992 0.19112803 -0.73771734
vn 0.64749834 -0.19122566 -0.73768465
vn 0.70417505 -0.20796399 -0.67888768
vn -0.73397392 0.01864081 -0.67892180
vn -0.67497155 0.01714232 -0.73764460
vn 0.57590662 -0.35228214 -0.73771869
vn 0.62637414 -0.38315313 -0.67885869
vn -0.71387357 -0.17194769 -0.67883615
vn -0.65630940 -0.15808246 -0.73774516
vn 0.46506708 -0.48939032 -0.73770572
vn 0.50580392 -0.53225772 -0.67886974
vn -0.64495205 -0.35094482 -0.67887745
vn -0.59302283 -0.32268801 -0.73769666
vn 0.35089063 -0.64494688 -0.67891036
vn 0.32267174 -0.59307975 -0.73765802
vn -0.53215486 -0.50590533 -0.67887481
vn -0.48930359 -0.46516778 -0.73769976
vn 0.17206639 -0.71383077 -0.67885108
vn 0.15819905 -0.65630101 -0.73772762
vn -0.35223450 -0.57595807 -0.73770127
vn -0.38308335 -0.62640073 -0.67887353
vn -0.01863622 -0.73401891 -0.67887328
vn -0.01713548 -0.67490947 -0.73770156
vn -0.19120228 -0.64750322 -0.73768643
vn -0.20793956 -0.70418372 -0.67888617
vn 0.00000000 -0.70710678 -0.70710678
vn 0.23570226 -0.94280904 -0.23570226
vn -0.23570226 -0.94280904 -0.23570226
vn 0.00000000 -0.70710678 -0.70710678
vn 0.23570226 -0.94280904 -0.23570226
vn 0.57735027 -0.57735027 -0.57735027
vn -0.57735027 -0.57735027 -0.57735027
vn -0.23570226 -0.94280904 -0.23570226
vn 0.57735027 -0.57735027 0.57735027
vn 0.23570226 -0.94280904 0.23570226
vn 0.23570226 -0.94280904 0.23570226
vn 0.00000000 -0.70710678 0.70710678
vn -0.23570226 -0.94280904 0.23570226
vn 0.00000000 -0.70710678 0.70710678
vn -0.57735027 -0.57735027 0.57735027
vn -0.23570226 -0.94280904 0.23570226
vn -0.57735027 -0.57735027 -0.57735027
vn -0.57735027 0.57735027 0.57735027
vn -0.57735027 0.57735027 -0.57735027
vn -0.57735027 -0.57735027 0.57735027
vn 0.00000000 -0.70710678 0.70710678
vn 0.00000000 -0.70710678 -0.70710678
vn 0.00000000 -0.70710678 -0.70710678
vn 0.57735027 0.57735027 -0.57735027
vn 0.57735027 -0.57735027 -0.57735027
vn 0.57735027 -0.57735027 0.57735027
vn 0.00000000 -0.70710678 0.70710678
vn 0.57735027 0.57735027 0.57735027
vn -0.51917285 -0.51917285 -0.67891023
vn -0.63584532 -0.36721116 0.67886427
vn -0.63584532 -0.36721116 -0.67886427
vn -0.51917285 -0.51917285 0.67891023
vn -0.36723829 -0.63581862 0.67887460
vn -0.36723829 -0.63581862 -0.67887460
vn -0.70922428 -0.19008667 0.67887258
vn -0.70922428 -0.19008667 -0.67887258
vn -0.19012473 -0.70922397 0.67886224
vn -0.19012473 -0.70922397 -0.67886224
vn -0.73426866 0.00001257 0.67885900
vn -0.73426866 0.00001257 -0.67885900
vn -0.00001257 -0.73426214 0.67886605
vn -0.00001257 -0.73426214 -0.67886605
vn -0.70921787 0.19009797 0.67887611
vn -0.70921787 0.19009797 -0.67887611
vn 0.19011344 -0.70923037 0.67885872
vn 0.19011344 -0.70923037 -0.67885872
vn -0.63586146 0.36715280 0.67888071
vn -0.63586146 0.36715280 -0.67888071
vn 0.36717993 -0.63583476 0.67889105
vn 0.36717993 -0.63583476 -0.67889105
vn -0.51922504 0.51914216 0.67889379
vn -0.51922504 0.51914216 -0.67889379
vn 0.51914216 -0.51922504 0.67889379
vn 0.51914216 -0.51922504 -0.67889379
vn -0.36717280 0.63588308 -0.67884965
vn -0.36717280 0.63588308 0.67884965
vn 0.63590976 -0.36714568 -0.67883932
vn 0.63590976 -0.36714568 0.67883932
vn -0.19003285 0.70922471 -0.67888720
vn -0.19003285 0.70922471 0.67888720
vn 0.70927362 -0.18990901 -0.67887075
vn 0.70927362 -0.18990901 0.67887075
vn -0.00001257 0.73426214 -0.67886605
vn -0.00001257 0.73426214 0.67886605
vn 0.73421913 0.00001255 -0.67891256
vn 0.73421913 0.00001255 0.67891256
vn 0.19002155 0.70923111 -0.67888367
vn 0.19002155 0.70923111 0.67888367
vn 0.70926723 0.18992029 -0.67887427
vn 0.70926723 0.18992029 0.67887427
vn 0.36711444 0.63589922 -0.67886609
vn 0.36711444 0.63589922 0.67886609
vn 0.63592590 0.36708732 -0.67885576
vn 0.63592590 0.36708732 0.67885576
vn 0.51919435 0.51919435 -0.67887734
vn 0.51919435 0.51919435 0.67887734
vn 0.57735027 -0.57735027 0.57735027
vn -0.57735027 -0.57735027 0.57735027
vn 0.57735027 -0.57735027 -0.57735027
vn -0.57735027 -0.57735027 -0.57735027
f 1//1 2//2 3//3
f 2//2 1//1 4//4
f 2//2 5//5 6//6
f 5//5 2//2 4//4
f 7//7 3//3 8//8
f 3//3 7//7 1//1
f 6//6 9//9 10//10
f 9//9 6//6 5//5
f 11//11 8//8 12//12
f 8//8 11//11 7//7
f 10//10 13//13 14//14
f 13//13 10//10 9//9
f 15//15 12//12 16//16
f 12//12 15//15 11//11
f 14//14 17//17 18//18
f 17//17 14//14 13//13
f 19//19 16//16 20//20
f 16//16 19//19 15//15
f 18//18 21//21 22//22
f 21//21 18//18 17//17
f 23//23 20//20 24//24
f 20//20 23//23 19//19
f 22//22 25//25 26//26
f 25//25 22//22 21//21
f 23//23 27//27 28//28
f 27//27 23//23 24//24
f 25//25 29//29 26//26
f 29//29 25//25 30//30
f 28//28 31//31 32//32
f 31//31 28//28 27//27
f 30//30 33//33 29//29
f 33//33 30//30 34//34
f 32//32 35//35 36//36
f 35//35 32//32 31//31
f 34//34 37//37 33//33
f 37//37 34//34 38//38
f 36//36 39//39 40//40
f 39//39 36//36 35//35
f 38//38 41//41 37//37
f 41//41 38//38 42//42
f 40//40 43//43 44//44
f 43//43 40//40 39//39
f 42//42 45//45 41//41
f 45//45 42//42 46//46
f 44//44 47//47 48//48
f 47//47 44//44 43//43
f 46//46 47//47 45//45
f 47//47 46//46 48//48
f 49//49 50//50 51//51
f 50//50 49//49 52//52
f 53//53 51//51 54//54
f 51//51 53//53 49//49
f 52//52 55//55 50//50
f 55//55 52//52 56//56
f 57//57 54//54 58//58
f 54//54 57//57 53//53
f 56//56 59//59 55//55
f 59//59 56//56 60//60
f 61//61 57//57 58//58
f 57//57 61//61 62//62
f 60//60 63//63 59//59
f 63//63 60//60 64//64
f 65//65 62//62 61//61
f 62//62 65//65 66//66
f 67//67 63//63 64//64
f 63//63 67//67 68//68
f 69//69 66//66 65//65
f 66//66 69//69 70//70
f 71//71 68//68 67//67
f 68//68 71//71 72//72
f 73//73 70//70 69//69
f 70//70 73//73 74//74
f 75//75 72//72 71//71
f 72//72 75//75 76//76
f 77//77 74//74 73//73
f 74//74 77//77 78//78
f 79//79 76//76 75//75
f 76//76 79//79 80//80
f 81//81 78//78 77//77
f 78//78 81//81 82//82
f 83//83 80//80 79//79
f 80//80 83//83 84//84
f 85//85 81//81 86//86
f 81//81 85//85 82//82
f 87//87 84//84 83//83
f 84//84 87//87 88//88
f 89//89 86//86 90//90
f 86//86 89//89 85//85
f 87//87 91//91 88//88
f 91//91 87//87 92//92
f 93//93 90//90 94//94
f 90//90 93//93 89//89
f 92//92 95//95 91//91
f 95//95 92//92 96//96
f 96//96 94//94 95//95
f 94//94 96//96 93//93
f 97//97 98//98 99//99
f 98//98 97//97 100//100
f 100//100 101//101 102//102
f 97//97 101//101 100//100
f 103//103 101//101 97//97
f 101//101 103//103 104//104
f 105//105 101//101 106//106
f 101//101 105//105 102//102
f 107//107 105//105 108//108
f 98//98 105//105 107//107
f 100//100 105//105 98//98
f 105//105 100//100 102//102
f 109//109 108//108 110//110
f 108//108 109//109 107//107
f 111//111 109//109 110//110
f 111//111 99//99 109//109
f 103//103 99//99 111//111
f 99//99 103//103 97//97
f 103//103 112//112 104//104
f 112//112 103//103 111//111
f 106//106 108//108 105//105
f 106//106 110//110 108//108
f 112//112 110//110 106//106
f 110//110 112//112 111//111
f 113//113 114//114 115//115
f 114//114 113//113 116//116
f 116//116 112//112 117//117
f 116//116 104//104 112//112
f 113//113 104//104 116//116
f 104//104 113//113 118//118
f 118//118 101//101 104//104
f 101//101 118//118 119//119
f 119//119 120//120 121//121
f 118//118 120//120 119//119
f 113//113 120//120 118//118
f 120//120 113//113 115//115
f 106//106 122//122 123//123
f 101//101 122//122 106//106
f 119//119 122//122 101//101
f 122//122 119//119 121//121
f 122//122 120//120 124//124
f 120//120 122//122 121//121
f 125//125 126//126 127//127
f 126//126 125//125 128//128
f 125//125 129//129 128//128
f 129//129 125//125 130//130
f 127//127 131//131 132//132
f 131//131 127//127 126//126
f 130//130 133//133 129//129
f 133//133 130//130 134//134
f 132//132 135//135 136//136
f 135//135 132//132 131//131
f 134//134 137//137 133//133
f 137//137 134//134 138//138
f 136//136 139//139 140//140
f 139//139 136//136 135//135
f 138//138 141//141 137//137
f 141//141 138//138 142//142
f 140//140 143//143 144//144
f 143//143 140//140 139//139
f 142//142 145//145 141//141
f 145//145 142//142 146//146
f 144//144 147//147 148//148
f 147//147 144//144 143//143
f 146//146 149//149 145//145
f 149//149 146//146 150//150
f 151//151 147//147 152//152
f 147//147 151//151 148//148
f 149//149 153//153 154//154
f 153//153 149//149 150//150
f 155//155 152//152 156//156
f 152//152 155//155 151//151
f 154//154 157//157 158//158
f 157//157 154//154 153//153
f 159//159 156//156 160//160
f 156//156 159//159 155//155
f 158//158 161//161 162//162
f 161//161 158//158 157//157
f 163//163 160//160 164//164
f 160//160 163//163 159//159
f 162//162 165//165 166//166
f 165//165 162//162 161//161
f 167//167 164//164 168//168
f 164//164 167//167 163//163
f 166//166 169//169 170//170
f 169//169 166//166 165//165
f 171//171 168//168 172//172
f 168//168 171//171 167//167
f 170//170 171//171 172//172
f 171//171 170//170 169//169
f 109//109 173//173 107//107
f 173//173 109//109 174//174
f 173//173 98//98 107//107
f 98//98 173//173 175//175
f 176//176 109//109 99//99
f 109//109 176//176 174//174
f 176//176 98//98 175//175
f 98//98 176//176 99//99
f 157//157 165//165 161//161
f 157//157 69//69 165//165
f 157//157 73//73 69//69
f 153//153 73//73 157//157
f 153//153 77//77 73//73
f 150//150 77//77 153//153
f 150//150 81//81 77//77
f 146//146 81//81 150//150
f 146//146 86//86 81//81
f 142//142 86//86 146//146
f 142//142 90//90 86//86
f 138//138 90//90 142//142
f 138//138 94//94 90//90
f 134//134 94//94 138//138
f 134//134 95//95 94//94
f 130//130 95//95 134//134
f 130//130 91//91 95//95
f 130//130 88//88 91//91
f 125//125 88//88 130//130
f 125//125 84//84 88//88
f 127//127 84//84 125//125
f 127//127 80//80 84//84
f 80//80 132//132 76//76
f 132//132 80//80 127//127
f 65//65 165//165 69//69
f 65//65 169//169 165//165
f 61//61 169//169 65//65
f 61//61 171//171 169//169
f 58//58 171//171 61//61
f 54//54 171//171 58//58
f 54//54 167//167 171//171
f 51//51 167//167 54//54
f 51//51 163//163 167//167
f 50//50 163//163 51//51
f 50//50 159//159 163//163
f 55//55 159//159 50//50
f 55//55 155//155 159//159
f 59//59 155//155 55//55
f 59//59 151//151 155//155
f 63//63 151//151 59//59
f 63//63 148//148 151//151
f 68//68 148//148 63//63
f 68//68 144//144 148//148
f 72//72 144//144 68//68
f 72//72 140//140 144//144
f 76//76 140//140 72//72
f 132//132 140//140 76//76
f 140//140 132//132 136//136
f 166//166 158//158 162//162
f 166//166 13//13 158//158
f 166//166 17//17 13//13
f 170//170 17//17 166//166
f 170//170 21//21 17//17
f 172//172 21//21 170//170
f 172//172 25//25 21//21
f 168//168 25//25 172//172
f 168//168 30//30 25//25
f 164//164 30//30 168//168
f 164//164 34//34 30//30
f 160//160 34//34 164//164
f 160//160 38//38 34//34
f 156//156 38//38 160//160
f 156//156 42//42 38//38
f 152//152 42//42 156//156
f 152//152 46//46 42//42
f 152//152 48//48 46//46
f 147//147 48//48 152//152
f 147//147 44//44 48//48
f 143//143 44//44 147//147
f 143//143 40//40 44//44
f 40//40 139//139 36//36
f 139//139 40//40 143//143
f 9//9 158//158 13//13
f 9//9 154//154 158//158
f 5//5 154//154 9//9
f 5//5 149//149 154//154
f 4//4 149//149 5//5
f 1//1 149//149 4//4
f 1//1 145//145 149//149
f 7//7 145//145 1//1
f 7//7 141//141 145//145
f 11//11 141//141 7//7
f 11//11 137//137 141//141
f 15//15 137//137 11//11
f 15//15 133//133 137//137
f 19//19 133//133 15//15
f 19//19 129//129 133//133
f 23//23 129//129 19//19
f 23//23 128//128 129//129
f 28//28 128//128 23//23
f 28//28 126//126 128//128
f 32//32 126//126 28//28
f 32//32 131//131 126//126
f 36//36 131//131 32//32
f 139//139 131//131 36//36
f 131//131 139//139 135//135
f 104//104 106//106 112//112
f 106//106 104//104 101//101
f 112//112 123//123 117//117
f 123//123 112//112 106//106
f 120//120 114//114 124//124
f 114//114 120//120 115//115
f 124//124 123//123 122//122
f 124//124 117//117 123//123
f 114//114 117//117 124//124
f 117//117 114//114 116//116
f 99//99 107//107 109//109
f 107//107 99//99 98//98
f 176//176 173//173 174//174
f 173//173 176//176 175//175
f 18//18 10//10 14//14
f 18//18 6//6 10//10
f 22//22 6//6 18//18
f 22//22 2//2 6//6
f 26//26 2//2 22//22
f 26//26 3//3 2//2
f 29//29 3//3 26//26
f 29//29 8//8 3//3
f 33//33 8//8 29//29
f 33//33 12//12 8//8
f 37//37 12//12 33//33
f 37//37 16//16 12//12
f 41//41 16//16 37//37
f 41//41 20//20 16//16
f 45//45 20//20 41//41
f 45//45 24//24 20//20
f 47//47 24//24 45//45
f 47//47 27//27 24//24
f 43//43 27//27 47//47
f 43//43 31//31 27//27
f 39//39 31//31 43//43
f 31//31 39//39 35//35
f 74//74 66//66 70//70
f 74//74 62//62 66//66
f 78//78 62//62 74//74
f 78//78 57//57 62//62
f 82//82 57//57 78//78
f 82//82 53//53 57//57
f 85//85 53//53 82//82
f 85//85 49//49 53//53
f 89//89 49//49 85//85
f 89//89 52//52 49//49
f 93//93 52//52 89//89
f 93//93 56//56 52//52
f 96//96 56//56 93//93
f 96//96 60//60 56//56
f 92//92 60//60 96//96
f 92//92 64//64 60//60
f 87//87 64//64 92//92
f 87//87 67//67 64//64
f 83//83 67//67 87//87
f 83//83 71//71 67//67
f 79//79 71//71 83//83
f 71//71 79//79 75//75