# https://github.com/mikedh/trimesh
v 0.07299700 0.00578900 0.10522600
v 0.07299700 0.00578900 -0.10526000
v -0.07577600 0.00578900 0.10522600
v -0.07577600 0.00578900 -0.10526000
v -0.07577600 -0.00578300 -0.10526000
v -0.07577600 -0.00578300 0.10522600
v 0.07299700 -0.00578300 -0.10526000
v 0.07299700 -0.00578300 0.10522600
v -0.07261700 0.00289600 -0.10526000
v -0.07261700 0.00000300 -0.10526000
v -0.07261700 -0.00289000 -0.10526000
v 0.07299700 0.00000300 -0.05081600
v 0.06991100 0.00000300 -0.05081600
v 0.07299700 -0.00396000 -0.05081600
v 0.06991100 -0.00396000 -0.05081600
v 0.07299700 -0.00396000 0.05078200
v 0.06991100 -0.00396000 0.05078200
v 0.07299700 0.00000300 -0.10526000
v 0.06991100 0.00000300 0.05078200
v 0.07299700 0.00000300 0.05078200
v 0.06991100 0.00396600 -0.05081600
v 0.06991100 0.00396600 0.05078200
v 0.07299700 0.00396600 -0.05081600
v 0.07299700 0.00396600 0.05078200
v 0.07299700 0.00000300 0.10522600
v -0.07274500 0.00000300 0.10522600
v -0.07268100 -0.00289000 0.10522600
v -0.07274500 0.00289600 0.10522600
vn 0.57735027 0.57735027 0.57735027
vn 0.57735027 0.57735027 -0.57735027
vn -0.57735027 0.57735027 0.57735027
vn -0.57735027 0.57735027 -0.57735027
vn -0.57735027 -0.57735027 -0.57735027
vn -0.57735027 -0.57735027 0.57735027
vn 0.57735027 -0.57735027 -0.57735027
vn 0.57735027 -0.57735027 0.57735027
vn 0.00000000 0.00000000 -1.00000000
vn 0.00000000 0.00000000 -1.00000000
vn 0.00000000 0.00000000 -1.00000000
vn 0.70710678 0.00000000 0.70710678
vn 0.70710678 0.00000000 0.70710678
vn 0.90453403 0.30151134 0.30151134
vn 0.57735027 0.57735027 0.57735027
vn 0.90453403 0.30151134 -0.30151134
vn 0.57735027 0.57735027 -0.57735027
vn 0.70710678 0.00000000 -0.70710678
vn 0.70710678 0.00000000 -0.70710678
vn 0.70710678 0.00000000 -0.70710678
vn 0.57735027 -0.57735027 0.57735027
vn 0.57735027 -0.57735027 -0.57735027
vn 0.90453403 -0.30151134 0.30151134
vn 0.90453403 -0.30151134 -0.30151134
vn 0.70710678 0.00000000 0.70710678
vn 0.00000000 0.00000000 1.00000000
vn 0.00000000 0.00000000 1.00000000
vn 0.00000000 0.00000000 1.00000000
f 1//1 2//2 3//3
f 4//4 3//3 2//2
f 5//5 6//6 4//4
f 3//3 4//4 6//6
f 7//7 8//8 5//5
f 6//6 5//5 8//8
f 4//4 9//9 5//5
f 10//10 5//5 9//9
f 11//11 5//5 10//10
f 12//12 13//13 14//14
f 15//15 14//14 13//13
f 16//16 14//14 17//17
f 15//15 17//17 14//14
f 10//10 18//18 11//11
f 7//7 11//11 18//18
f 5//5 11//11 7//7
f 19//19 20//20 17//17
f 16//16 17//17 20//20
f 15//15 13//13 17//17
f 21//21 17//17 13//13
f 19//19 17//17 21//21
f 19//19 21//21 22//22
f 23//23 24//24 21//21
f 22//22 21//21 24//24
f 23//23 21//21 12//12
f 13//13 12//12 21//21
f 4//4 2//2 9//9
f 18//18 9//9 2//2
f 10//10 9//9 18//18
f 18//18 12//12 7//7
f 14//14 7//7 12//12
f 7//7 14//14 8//8
f 16//16 8//8 14//14
f 25//25 8//8 16//16
f 16//16 20//20 25//25
f 22//22 24//24 19//19
f 20//20 19//19 24//24
f 25//25 26//26 8//8
f 27//27 8//8 26//26
f 6//6 8//8 27//27
f 20//20 24//24 25//25
f 18//18 2//2 12//12
f 23//23 12//12 2//2
f 1//1 23//23 2//2
f 24//24 23//23 1//1
f 25//25 24//24 1//1
f 3//3 6//6 28//28
f 26//26 28//28 6//6
f 27//27 26//26 6//6
f 1//1 3//3 25//25
f 28//28 25//25 3//3
f 26//26 25//25 28//28