# https://github.com/mikedh/trimesh
v -0.04881000 -0.04652100 -0.01579500
v -0.03504100 -0.04368500 -0.01579500
v -0.03504100 -0.04652100 -0.01579500
v -0.04881000 -0.04368500 -0.01579500
v -0.03504100 -0.04652100 -0.00728500
v -0.03504100 -0.04368500 -0.00728500
v -0.04881000 -0.04368500 -0.00728500
v -0.04881000 -0.04652100 -0.00728500
v -0.03138000 -0.04652100 -0.01591900
v -0.01761000 -0.04368500 -0.01591900
v -0.01761000 -0.04652100 -0.01591900
v -0.03138000 -0.04368500 -0.01591900
v -0.01761000 -0.04652100 -0.00740900
v -0.01761000 -0.04368500 -0.00740900
v -0.03138000 -0.04368500 -0.00740900
v -0.03138000 -0.04652100 -0.00740900
v 0.05931600 0.01921400 -0.00960300
v 0.06332900 0.03907100 -0.01361500
v 0.06332900 0.01921400 -0.01361500
v 0.05931600 0.03907100 -0.00960300
v 0.05006300 -0.02403900 0.01283400
v 0.02568000 -0.02403900 0.01850800
v 0.05006300 -0.02403900 0.01850800
v 0.02568000 -0.02403900 0.01283400
v 0.05006300 -0.02092300 0.01850800
v 0.05006300 -0.02092300 0.01283400
v 0.02568000 -0.02092300 0.01283400
v 0.02568000 -0.02092300 0.01850800
v 0.02568000 -0.01814900 0.01850800
v 0.05006300 -0.01814900 0.01850800
v 0.05006300 -0.01814900 0.01283400
v 0.02568000 -0.01814900 0.01283400
v 0.05006300 -0.01503400 0.01850800
v 0.05006300 -0.01503400 0.01283400
v 0.02568000 -0.01503400 0.01283400
v 0.02568000 -0.01503400 0.01850800
v 0.02568000 -0.01226000 0.01850800
v 0.05006300 -0.01226000 0.01850800
v 0.05006300 -0.01226000 0.01283400
v 0.02568000 -0.01226000 0.01283400
v 0.05006300 -0.00988100 0.01850800
v 0.05006300 -0.00988100 0.01283400
v 0.02568000 -0.00988100 0.01283400
v 0.02568000 -0.00988100 0.01850800
v 0.02568000 -0.00710700 0.01850800
v 0.05006300 -0.00710700 0.01850800
v 0.05006300 -0.00710700 0.01283400
v 0.02568000 -0.00710700 0.01283400
v 0.05006300 -0.00417600 0.01850800
v 0.05006300 -0.00417600 0.01283400
v 0.02568000 -0.00417600 0.01283400
v 0.02568000 -0.00417600 0.01850800
v 0.02568000 -0.00140200 0.01850800
v 0.05006300 -0.00140200 0.01850800
v 0.05006300 -0.00140200 0.01283400
v 0.02568000 -0.00140200 0.01283400
v 0.05006300 0.00040400 0.01850800
v 0.05006300 0.00040400 0.01283400
v 0.02568000 0.00040400 0.01283400
v 0.02568000 0.00040400 0.01850800
v 0.02568000 0.00317800 0.01850800
v 0.05006300 0.00317800 0.01850800
v 0.05006300 0.00317800 0.01283400
v 0.02568000 0.00317800 0.01283400
v 0.05006300 0.00532700 0.01850800
v 0.05006300 0.00532700 0.01283400
v 0.02568000 0.00532700 0.01283400
v 0.02568000 0.00532700 0.01850800
v 0.02568000 0.00810100 0.01850800
v 0.05006300 0.00810100 0.01850800
v 0.05006300 0.00810100 0.01283400
v 0.02568000 0.00810100 0.01283400
v 0.05006300 0.01021300 0.01850800
v 0.05006300 0.01021300 0.01283400
v 0.02568000 0.01021300 0.01283400
v 0.02568000 0.01021300 0.01850800
v 0.02568000 0.01298700 0.01850800
v 0.05006300 0.01298700 0.01850800
v 0.05006300 0.01298700 0.01283400
v 0.02568000 0.01298700 0.01283400
v 0.05006300 0.01585400 0.01850800
v 0.05006300 0.01585400 0.01283400
v 0.02568000 0.01585400 0.01283400
v 0.02568000 0.01585400 0.01850800
v 0.02568000 0.01862800 0.01850800
v 0.05006300 0.01862800 0.01850800
v 0.02568000 0.02612100 0.01283400
v 0.05006300 0.02612100 0.01850800
v 0.02568000 0.02612100 0.01850800
v 0.05006300 0.02612100 0.01283400
v 0.05006300 0.01862800 0.01283400
v 0.02568000 0.01862800 0.01283400
v 0.02568000 0.02426800 0.01850800
v 0.02568000 0.02426800 0.01283400
v 0.05006300 0.02426800 0.01283400
v 0.05006300 0.02426800 0.01850800
v 0.05006300 0.02149500 0.01850800
v 0.05006300 0.02149500 0.01283400
v 0.02568000 0.02149500 0.01283400
v 0.02568000 0.02149500 0.01850800
v 0.02568000 0.03624800 0.01283400
v 0.05006300 0.03624800 0.01850800
v 0.02568000 0.03624800 0.01850800
v 0.05006300 0.03624800 0.01283400
v 0.05006300 0.03380400 0.01283400
v 0.05006300 0.03380400 0.01850800
v 0.02568000 0.03380400 0.01850800
v 0.02568000 0.03380400 0.01283400
v 0.02568000 0.03123300 0.01283400
v 0.05006300 0.03123300 0.01850800
v 0.02568000 0.03123300 0.01850800
v 0.05006300 0.03123300 0.01283400
v 0.05006300 0.02889500 0.01283400
v 0.05006300 0.02889500 0.01850800
v 0.02568000 0.02889500 0.01850800
v 0.02568000 0.02889500 0.01283400
v 0.06511000 0.04709000 -0.00417500
v 0.05006300 -0.04368500 -0.00417500
v 0.06511000 -0.04368500 -0.00417500
v 0.02568000 -0.04368500 -0.00417500
v -0.07105200 0.04709000 -0.00417500
v -0.07105200 -0.04368500 -0.00417500
v -0.05091100 0.01021300 0.00148700
v 0.02568000 -0.04368500 0.00148700
v 0.02568000 0.01021300 0.00148700
v -0.05091100 -0.04368500 0.00148700
v -0.05091100 -0.02681300 0.01850800
v -0.05091100 0.01021300 0.01850800
v -0.05091100 -0.04368500 0.01850800
v 0.02568000 -0.02681300 0.01850800
v 0.02568000 -0.04368500 0.01850800
v 0.02904000 -0.04368500 -0.01786300
v 0.03471300 -0.04368500 -0.00651600
v 0.02904000 -0.04368500 -0.00651600
v 0.03471300 -0.04368500 -0.01786300
v 0.03838800 -0.04368500 -0.01790900
v 0.04406200 -0.04368500 -0.00656200
v 0.03838800 -0.04368500 -0.00656200
v 0.04406200 -0.04368500 -0.01790900
v -0.05091100 -0.02681300 0.03269100
v 0.02568000 -0.04368500 0.03269100
v 0.02568000 -0.02681300 0.03269100
v -0.05091100 -0.04368500 0.03269100
v -0.07105200 -0.04368500 0.01850800
v 0.02568000 0.04709000 0.01850800
v -0.07105200 0.04709000 0.01850800
v 0.05006300 -0.02681300 0.01850800
v 0.05006300 0.04709000 0.01850800
v 0.06511000 -0.04368500 0.01850800
v 0.06511000 0.04709000 0.01850800
v 0.05006300 -0.04368500 0.01850800
v 0.05006300 -0.04368500 0.00148700
v -0.05602400 -0.04084800 -0.01389100
v -0.05318700 -0.04368500 -0.01389100
v -0.05318700 -0.04084800 -0.01389100
v -0.05602400 -0.04368500 -0.01389100
v -0.05602400 -0.04368500 -0.00930100
v -0.05602400 -0.04084800 -0.00930100
v -0.05318700 -0.04084800 -0.00930100
v -0.05318700 -0.04368500 -0.00930100
v -0.07105200 -0.04368500 -0.01183300
v -0.07105200 0.04709000 -0.01183300
v -0.05600500 0.04709000 -0.02688000
v 0.05006300 0.04709000 -0.02688000
v 0.06511000 0.04709000 -0.01183300
v -0.05600500 -0.04368500 -0.02688000
v 0.02568000 -0.04368500 -0.02688000
v 0.05006300 -0.04368500 -0.02688000
v 0.06511000 -0.04368500 -0.01183300
v 0.05329900 0.01921400 -0.02364400
v 0.05329900 0.03907100 -0.02364400
v 0.04928700 0.03907100 -0.01963300
v 0.04928700 0.01921400 -0.01963300
vn -0.57735027 -0.57735027 -0.57735027
vn 0.30151134 -0.90453403 -0.30151134
vn 0.57735027 -0.57735027 -0.57735027
vn -0.30151134 -0.90453403 -0.30151134
vn 0.57735027 -0.57735027 0.57735027
vn 0.30151134 -0.90453403 0.30151134
vn -0.30151134 -0.90453403 0.30151134
vn -0.57735027 -0.57735027 0.57735027
vn -0.57735027 -0.57735027 -0.57735027
vn 0.30151134 -0.90453403 -0.30151134
vn 0.57735027 -0.57735027 -0.57735027
vn -0.30151134 -0.90453403 -0.30151134
vn 0.57735027 -0.57735027 0.57735027
vn 0.30151134 -0.90453403 0.30151134
vn -0.30151134 -0.90453403 0.30151134
vn -0.57735027 -0.57735027 0.57735027
vn 0.00007122 0.57735420 -0.81649380
vn 0.42653534 -0.30144894 -0.85275796
vn 0.42654508 0.30148072 -0.85274185
vn 0.00007122 -0.57735420 -0.81649380
vn -0.57735027 0.57735027 0.57735027
vn -0.81649658 0.40824829 0.40824829
vn -0.30151134 0.30151134 0.90453403
vn -0.94280904 0.23570226 0.23570226
vn -0.23570226 -0.23570226 0.94280904
vn -0.57735027 -0.57735027 0.57735027
vn -0.94280904 -0.23570226 0.23570226
vn -0.66666667 -0.33333333 0.66666667
vn -0.66666667 0.33333333 0.66666667
vn -0.23570226 0.23570226 0.94280904
vn -0.57735027 0.57735027 0.57735027
vn -0.94280904 0.23570226 0.23570226
vn -0.23570226 -0.23570226 0.94280904
vn -0.57735027 -0.57735027 0.57735027
vn -0.94280904 -0.23570226 0.23570226
vn -0.66666667 -0.33333333 0.66666667
vn -0.66666667 0.33333333 0.66666667
vn -0.23570226 0.23570226 0.94280904
vn -0.57735027 0.57735027 0.57735027
vn -0.94280904 0.23570226 0.23570226
vn -0.23570226 -0.23570226 0.94280904
vn -0.57735027 -0.57735027 0.57735027
vn -0.94280904 -0.23570226 0.23570226
vn -0.66666667 -0.33333333 0.66666667
vn -0.66666667 0.33333333 0.66666667
vn -0.23570226 0.23570226 0.94280904
vn -0.57735027 0.57735027 0.57735027
vn -0.94280904 0.23570226 0.23570226
vn -0.23570226 -0.23570226 0.94280904
vn -0.57735027 -0.57735027 0.57735027
vn -0.94280904 -0.23570226 0.23570226
vn -0.66666667 -0.33333333 0.66666667
vn -0.66666667 0.33333333 0.66666667
vn -0.23570226 0.23570226 0.94280904
vn -0.57735027 0.57735027 0.57735027
vn -0.94280904 0.23570226 0.23570226
vn -0.23570226 -0.23570226 0.94280904
vn -0.57735027 -0.57735027 0.57735027
vn -0.94280904 -0.23570226 0.23570226
vn -0.66666667 -0.33333333 0.66666667
vn -0.66666667 0.33333333 0.66666667
vn -0.23570226 0.23570226 0.94280904
vn -0.57735027 0.57735027 0.57735027
vn -0.94280904 0.23570226 0.23570226
vn -0.23570226 -0.23570226 0.94280904
vn -0.57735027 -0.57735027 0.57735027
vn -0.94280904 -0.23570226 0.23570226
vn -0.66666667 -0.33333333 0.66666667
vn -0.66666667 0.33333333 0.66666667
vn -0.23570226 0.23570226 0.94280904
vn -0.57735027 0.57735027 0.57735027
vn -0.94280904 0.23570226 0.23570226
vn -0.23570226 -0.23570226 0.94280904
vn -0.57735027 -0.57735027 0.57735027
vn -0.53452248 -0.80178373 0.26726124
vn -0.21821789 -0.43643578 0.87287156
vn 0.40824829 0.40824829 0.81649658
vn -0.23570226 0.23570226 0.94280904
vn -0.57735027 0.57735027 0.57735027
vn 0.57735027 0.57735027 0.57735027
vn -0.23570226 -0.23570226 0.94280904
vn -0.57735027 -0.57735027 0.57735027
vn 0.57735027 -0.57735027 0.57735027
vn 0.40824829 -0.40824829 0.81649658
vn 0.40824829 0.40824829 0.81649658
vn -0.23570226 0.23570226 0.94280904
vn 0.57735027 -0.57735027 0.57735027
vn -0.30151134 -0.30151134 0.90453403
vn 0.57735027 -0.57735027 0.57735027
vn -0.57735027 -0.57735027 0.57735027
vn -0.57735027 0.57735027 0.57735027
vn 0.57735027 0.57735027 0.57735027
vn 0.40824829 0.40824829 0.81649658
vn 0.57735027 0.57735027 0.57735027
vn -0.57735027 0.57735027 0.57735027
vn -0.23570226 0.23570226 0.94280904
vn -0.23570226 -0.23570226 0.94280904
vn -0.57735027 -0.57735027 0.57735027
vn 0.57735027 -0.57735027 0.57735027
vn 0.40824829 -0.40824829 0.81649658
vn 0.57735027 -0.57735027 0.57735027
vn -0.30151134 -0.30151134 0.90453403
vn 0.57735027 -0.57735027 0.57735027
vn -0.57735027 -0.57735027 0.57735027
vn -0.57735027 0.57735027 0.57735027
vn -0.30151134 0.30151134 0.90453403
vn 0.57735027 0.57735027 0.57735027
vn 0.57735027 0.57735027 0.57735027
vn 0.57735027 -0.57735027 0.57735027
vn -0.30151134 -0.30151134 0.90453403
vn 0.57735027 -0.57735027 0.57735027
vn -0.57735027 -0.57735027 0.57735027
vn -0.57735027 0.57735027 0.57735027
vn -0.30151134 0.30151134 0.90453403
vn 0.57735027 0.57735027 0.57735027
vn 0.57735027 0.57735027 0.57735027
vn 0.89442719 -0.00000000 0.44721360
vn 0.00000000 -0.89442719 0.44721360
vn 0.66666667 -0.66666667 0.33333333
vn 0.00000000 -0.89442719 0.44721360
vn 0.00000000 -0.00000000 1.00000000
vn -0.00000000 -0.89442719 0.44721360
vn 0.57735027 -0.57735027 0.57735027
vn -0.30151134 -0.90453403 0.30151134
vn -0.57735027 -0.57735027 0.57735027
vn 0.30151134 -0.90453403 0.30151134
vn 0.81649658 0.40824829 0.40824829
vn 0.23570226 -0.23570226 0.94280904
vn 0.57735027 -0.57735027 0.57735027
vn -0.53452248 0.26726124 0.80178373
vn -0.57735027 -0.57735027 0.57735027
vn 0.00000000 -1.00000000 0.00000000
vn 0.00000000 -1.00000000 0.00000000
vn 0.00000000 -1.00000000 0.00000000
vn 0.00000000 -1.00000000 0.00000000
vn 0.00000000 -1.00000000 0.00000000
vn 0.00000000 -1.00000000 0.00000000
vn 0.00000000 -1.00000000 0.00000000
vn 0.00000000 -1.00000000 0.00000000
vn 0.00000000 0.70710678 0.70710678
vn 0.00000000 0.00000000 1.00000000
vn 0.00000000 0.70710678 0.70710678
vn 0.00000000 0.00000000 1.00000000
vn 0.00000000 -0.70710678 0.70710678
vn 0.00000000 0.00000000 1.00000000
vn -0.00000000 0.00000000 1.00000000
vn 0.00000000 0.00000000 1.00000000
vn 0.00000000 0.00000000 1.00000000
vn 0.57735027 -0.57735027 0.57735027
vn 0.70710678 -0.00000000 0.70710678
vn 0.00000000 -0.70710678 0.70710678
vn 0.00000000 -1.00000000 0.00000000
vn 0.57735027 -0.57735027 0.57735027
vn -0.30151134 -0.90453403 0.30151134
vn -0.57735027 -0.57735027 0.57735027
vn 0.30151134 -0.90453403 0.30151134
vn 0.30151134 -0.90453403 -0.30151134
vn 0.57735027 -0.57735027 -0.57735027
vn -0.57735027 -0.57735027 -0.57735027
vn -0.30151134 -0.90453403 -0.30151134
vn 0.00000000 -1.00000000 0.00000000
vn -0.00000000 -0.00000000 -0.00000000
vn 0.00000000 0.00000000 0.00000000
vn 0.70710678 -0.00000000 -0.70710678
vn 0.92388497 0.00002929 -0.38267031
vn 0.00000000 -1.00000000 -0.00000000
vn 0.00000000 -1.00000000 0.00000000
vn 0.39223227 -0.83205029 -0.39223227
vn 0.71728325 -0.63026293 -0.29710837
vn 0.85279188 0.30155016 -0.42639596
vn 0.85279703 -0.30154432 -0.42638978
vn 0.81649936 -0.57734634 0.00007124
vn 0.81649936 0.57734634 0.00007124
f 1//1 2//2 3//3
f 2//2 1//1 4//4
f 5//5 2//2 6//6
f 2//2 5//5 3//3
f 1//1 7//7 4//4
f 7//7 1//1 8//8
f 7//7 5//5 6//6
f 5//5 7//7 8//8
f 9//9 10//10 11//11
f 10//10 9//9 12//12
f 13//13 10//10 14//14
f 10//10 13//13 11//11
f 9//9 15//15 12//12
f 15//15 9//9 16//16
f 15//15 13//13 14//14
f 13//13 15//15 16//16
f 17//17 18//18 19//19
f 18//18 17//17 20//20
f 21//21 22//22 23//23
f 22//22 21//21 24//24
f 21//21 25//25 26//26
f 25//25 21//21 23//23
f 27//27 21//21 26//26
f 21//21 27//27 24//24
f 27//27 25//25 28//28
f 25//25 27//27 26//26
f 29//29 25//25 30//30
f 25//25 29//29 28//28
f 31//31 29//29 30//30
f 29//29 31//31 32//32
f 31//31 33//33 34//34
f 33//33 31//31 30//30
f 35//35 31//31 34//34
f 31//31 35//35 32//32
f 35//35 33//33 36//36
f 33//33 35//35 34//34
f 37//37 33//33 38//38
f 33//33 37//37 36//36
f 39//39 37//37 38//38
f 37//37 39//39 40//40
f 39//39 41//41 42//42
f 41//41 39//39 38//38
f 43//43 39//39 42//42
f 39//39 43//43 40//40
f 43//43 41//41 44//44
f 41//41 43//43 42//42
f 45//45 41//41 46//46
f 41//41 45//45 44//44
f 47//47 45//45 46//46
f 45//45 47//47 48//48
f 47//47 49//49 50//50
f 49//49 47//47 46//46
f 51//51 47//47 50//50
f 47//47 51//51 48//48
f 51//51 49//49 52//52
f 49//49 51//51 50//50
f 53//53 49//49 54//54
f 49//49 53//53 52//52
f 55//55 53//53 54//54
f 53//53 55//55 56//56
f 55//55 57//57 58//58
f 57//57 55//55 54//54
f 59//59 55//55 58//58
f 55//55 59//59 56//56
f 59//59 57//57 60//60
f 57//57 59//59 58//58
f 61//61 57//57 62//62
f 57//57 61//61 60//60
f 63//63 61//61 62//62
f 61//61 63//63 64//64
f 63//63 65//65 66//66
f 65//65 63//63 62//62
f 67//67 63//63 66//66
f 63//63 67//67 64//64
f 67//67 65//65 68//68
f 65//65 67//67 66//66
f 69//69 65//65 70//70
f 65//65 69//69 68//68
f 71//71 69//69 70//70
f 69//69 71//71 72//72
f 71//71 73//73 74//74
f 73//73 71//71 70//70
f 75//75 71//71 74//74
f 71//71 75//75 72//72
f 75//75 73//73 76//76
f 73//73 75//75 74//74
f 77//77 73//73 78//78
f 73//73 77//77 76//76
f 79//79 77//77 78//78
f 77//77 79//79 80//80
f 79//79 81//81 82//82
f 81//81 79//79 78//78
f 83//83 79//79 82//82
f 79//79 83//83 80//80
f 77//77 83//83 84//84
f 83//83 77//77 80//80
f 83//83 81//81 84//84
f 81//81 83//83 82//82
f 85//85 81//81 86//86
f 81//81 85//85 84//84
f 87//87 88//88 89//89
f 88//88 87//87 90//90
f 91//91 85//85 86//86
f 85//85 91//91 92//92
f 93//93 87//87 89//89
f 87//87 93//93 94//94
f 87//87 95//95 90//90
f 95//95 87//87 94//94
f 95//95 88//88 90//90
f 88//88 95//95 96//96
f 91//91 97//97 98//98
f 97//97 91//91 86//86
f 99//99 91//91 98//98
f 91//91 99//99 92//92
f 85//85 99//99 100//100
f 99//99 85//85 92//92
f 95//95 93//93 96//96
f 93//93 95//95 94//94
f 99//99 97//97 100//100
f 97//97 99//99 98//98
f 93//93 97//97 96//96
f 97//97 93//93 100//100
f 101//101 102//102 103//103
f 102//102 101//101 104//104
f 105//105 102//102 104//104
f 102//102 105//105 106//106
f 105//105 107//107 106//106
f 107//107 105//105 108//108
f 107//107 101//101 103//103
f 101//101 107//107 108//108
f 101//101 105//105 104//104
f 105//105 101//101 108//108
f 109//109 110//110 111//111
f 110//110 109//109 112//112
f 113//113 110//110 112//112
f 110//110 113//113 114//114
f 113//113 115//115 114//114
f 115//115 113//113 116//116
f 115//115 109//109 111//111
f 109//109 115//115 116//116
f 109//109 113//113 112//112
f 113//113 109//109 116//116
f 117//117 118//118 119//119
f 117//117 120//120 118//118
f 121//121 120//120 117//117
f 120//120 121//121 122//122
f 123//123 124//124 125//125
f 124//124 123//123 126//126
f 127//127 123//123 128//128
f 129//129 123//123 127//127
f 123//123 129//129 126//126
f 64//64 68//68 67//67
f 68//68 64//64 61//61
f 56//56 60//60 59//59
f 60//60 56//56 53//53
f 48//48 52//52 51//51
f 52//52 48//48 45//45
f 40//40 44//44 43//43
f 44//44 40//40 37//37
f 32//32 36//36 35//35
f 36//36 32//32 29//29
f 24//24 28//28 27//27
f 28//28 24//24 22//22
f 72//72 76//76 75//75
f 76//76 72//72 69//69
f 125//125 72//72 75//75
f 72//72 67//67 69//69
f 125//125 67//67 72//72
f 125//125 64//64 67//67
f 64//64 59//59 61//61
f 125//125 59//59 64//64
f 125//125 56//56 59//59
f 56//56 51//51 53//53
f 125//125 51//51 56//56
f 125//125 48//48 51//51
f 48//48 43//43 45//45
f 125//125 43//43 48//48
f 125//125 40//40 43//43
f 40//40 35//35 37//37
f 125//125 35//35 40//40
f 125//125 32//32 35//35
f 32//32 27//27 29//29
f 125//125 27//27 32//32
f 125//125 24//24 27//27
f 24//24 130//130 22//22
f 124//124 24//24 125//125
f 124//124 130//130 24//24
f 130//130 124//124 131//131
f 69//69 67//67 68//68
f 61//61 59//59 60//60
f 53//53 51//51 52//52
f 45//45 43//43 44//44
f 37//37 35//35 36//36
f 29//29 27//27 28//28
f 128//128 75//75 76//76
f 123//123 75//75 128//128
f 75//75 123//123 125//125
f 132//132 133//133 134//134
f 133//133 132//132 135//135
f 136//136 137//137 138//138
f 137//137 136//136 139//139
f 140//140 141//141 142//142
f 141//141 140//140 143//143
f 130//130 140//140 142//142
f 140//140 130//130 127//127
f 144//144 126//126 129//129
f 122//122 126//126 144//144
f 122//122 124//124 126//126
f 124//124 122//122 120//120
f 76//76 68//68 69//69
f 76//76 61//61 68//68
f 76//76 60//60 61//61
f 76//76 53//53 60//60
f 76//76 52//52 53//53
f 76//76 45//45 52//52
f 76//76 44//44 45//45
f 76//76 37//37 44//44
f 76//76 36//36 37//37
f 76//76 29//29 36//36
f 76//76 28//28 29//29
f 76//76 22//22 28//28
f 76//76 130//130 22//22
f 128//128 130//130 76//76
f 130//130 128//128 127//127
f 145//145 107//107 103//103
f 145//145 111//111 107//107
f 145//145 115//115 111//111
f 145//145 89//89 115//115
f 145//145 93//93 89//89
f 145//145 100//100 93//93
f 145//145 85//85 100//100
f 145//145 84//84 85//85
f 145//145 77//77 84//84
f 145//145 76//76 77//77
f 145//145 128//128 76//76
f 128//128 129//129 127//127
f 146//146 128//128 145//145
f 146//146 129//129 128//128
f 129//129 146//146 144//144
f 22//22 147//147 23//23
f 147//147 22//22 130//130
f 29//29 25//25 30//30
f 25//25 29//29 28//28
f 37//37 33//33 38//38
f 33//33 37//37 36//36
f 45//45 41//41 46//46
f 41//41 45//45 44//44
f 53//53 49//49 54//54
f 49//49 53//53 52//52
f 61//61 57//57 62//62
f 57//57 61//61 60//60
f 69//69 65//65 70//70
f 65//65 69//69 68//68
f 77//77 73//73 78//78
f 73//73 77//77 76//76
f 85//85 81//81 86//86
f 81//81 85//85 84//84
f 93//93 97//97 96//96
f 97//97 93//93 100//100
f 115//115 88//88 114//114
f 88//88 115//115 89//89
f 107//107 110//110 106//106
f 110//110 107//107 111//111
f 148//148 149//149 150//150
f 102//102 149//149 148//148
f 106//106 149//149 102//102
f 110//110 149//149 106//106
f 114//114 149//149 110//110
f 88//88 149//149 114//114
f 96//96 149//149 88//88
f 97//97 149//149 96//96
f 86//86 149//149 97//97
f 81//81 149//149 86//86
f 78//78 149//149 81//81
f 73//73 149//149 78//78
f 70//70 149//149 73//73
f 65//65 149//149 70//70
f 62//62 149//149 65//65
f 57//57 149//149 62//62
f 54//54 149//149 57//57
f 49//49 149//149 54//54
f 46//46 149//149 49//49
f 41//41 149//149 46//46
f 38//38 149//149 41//41
f 33//33 149//149 38//38
f 30//30 149//149 33//33
f 25//25 149//149 30//30
f 23//23 149//149 25//25
f 147//147 149//149 23//23
f 149//149 147//147 151//151
f 152//152 149//149 151//151
f 118//118 149//149 152//152
f 149//149 118//118 119//119
f 149//149 117//117 150//150
f 117//117 149//149 119//119
f 150//150 145//145 148//148
f 150//150 146//146 145//145
f 117//117 146//146 150//150
f 146//146 117//117 121//121
f 122//122 146//146 121//121
f 146//146 122//122 144//144
f 153//153 154//154 155//155
f 154//154 153//153 156//156
f 157//157 153//153 158//158
f 153//153 157//157 156//156
f 157//157 159//159 160//160
f 159//159 157//157 158//158
f 154//154 159//159 155//155
f 159//159 154//154 160//160
f 153//153 159//159 158//158
f 159//159 153//153 155//155
f 122//122 161//161 121//121
f 162//162 121//121 161//161
f 163//163 164//164 162//162
f 165//165 162//162 164//164
f 121//121 162//162 165//165
f 117//117 121//121 165//165
f 161//161 166//166 162//162
f 163//163 162//162 166//166
f 163//163 166//166 164//164
f 167//167 164//164 166//166
f 168//168 164//164 167//167
f 130//130 151//151 147//147
f 151//151 130//130 131//131
f 135//135 138//138 133//133
f 138//138 135//135 136//136
f 120//120 152//152 124//124
f 120//120 118//118 152//152
f 120//120 134//134 118//118
f 120//120 132//132 134//134
f 132//132 136//136 135//135
f 136//136 167//167 139//139
f 132//132 167//167 136//136
f 167//167 132//132 120//120
f 133//133 118//118 134//134
f 138//138 118//118 133//133
f 137//137 118//118 138//138
f 139//139 118//118 137//137
f 139//139 168//168 118//118
f 168//168 139//139 167//167
f 124//124 151//151 131//131
f 151//151 124//124 152//152
f 145//145 102//102 148//148
f 102//102 145//145 103//103
f 121//121 117//117 146//146
f 150//150 146//146 117//117
f 145//145 146//146 150//150
f 148//148 145//145 150//150
f 144//144 122//122 146//146
f 121//121 146//146 122//122
f 161//161 121//121 162//162
f 121//121 161//161 122//122
f 165//165 121//121 117//117
f 165//165 162//162 121//121
f 164//164 162//162 165//165
f 162//162 164//164 163//163
f 166//166 162//162 163//163
f 162//162 166//166 161//161
f 167//167 164//164 168//168
f 166//166 164//164 167//167
f 164//164 166//166 163//163
f 1//1 5//5 8//8
f 5//5 1//1 3//3
f 9//9 13//13 16//16
f 13//13 9//9 11//11
f 119//119 165//165 117//117
f 165//165 119//119 169//169
f 118//118 169//169 119//119
f 169//169 118//118 168//168
f 169//169 19//19 165//165
f 169//169 170//170 19//19
f 170//170 168//168 171//171
f 168//168 170//170 169//169
f 18//18 165//165 19//19
f 171//171 165//165 18//18
f 171//171 164//164 165//165
f 164//164 171//171 168//168
f 172//172 18//18 20//20
f 18//18 172//172 171//171
f 172//172 170//170 171//171
f 170//170 172//172 173//173
f 19//19 173//173 17//17
f 173//173 19//19 170//170
f 173//173 20//20 17//17
f 20//20 173//173 172//172
f 2//2 15//15 6//6
f 15//15 2//2 12//12
f 122//122 7//7 120//120
f 122//122 157//157 7//7
f 161//161 157//157 122//122
f 161//161 156//156 157//157
f 156//156 4//4 154//154
f 161//161 4//4 156//156
f 4//4 12//12 2//2
f 12//12 166//166 10//10
f 4//4 166//166 12//12
f 166//166 4//4 161//161
f 6//6 120//120 7//7
f 15//15 120//120 6//6
f 14//14 120//120 15//15
f 10//10 120//120 14//14
f 166//166 120//120 10//10
f 120//120 166//166 167//167
f 160//160 7//7 157//157
f 154//154 7//7 160//160
f 7//7 154//154 4//4