# https://github.com/mikedh/trimesh
v 0.01804100 0.01128700 0.01338200
v 0.01868000 0.01128700 0.01369300
v 0.01804100 0.01128700 0.01369300
v 0.01868000 0.01128700 0.01338200
v 0.01740200 0.01128700 0.01338200
v 0.01740200 0.01128700 0.01369300
v -0.01897100 0.01165500 0.01338200
v -0.01833300 0.01165500 0.01369300
v -0.01897100 0.01165500 0.01369300
v -0.01833300 0.01165500 0.01338200
v -0.01961000 0.01165500 0.01338200
v -0.01961000 0.01165500 0.01369300
v -0.02699700 -0.00909700 -0.01179000
v -0.02699700 -0.00826700 -0.01175300
v -0.02699700 -0.00826700 -0.01179000
v -0.02699700 -0.00909700 -0.01175300
v 0.02801800 -0.00826700 -0.01285900
v 0.02801800 -0.00771400 -0.02288600
v 0.02801800 -0.00771400 -0.01285900
v 0.02801800 -0.00826700 -0.02288600
v 0.04377600 -0.00826700 -0.02288600
v 0.04377600 -0.00771400 -0.02288600
v 0.04377600 -0.00771400 -0.01285900
v 0.04377600 -0.00826700 -0.01285900
v -0.00814000 0.00387400 0.01271400
v -0.00814000 0.00507700 0.01271400
v -0.00814000 0.00627900 0.01271400
v 0.02887200 0.00350600 0.01271400
v 0.02887200 0.00470800 0.01271400
v 0.02887200 0.00591100 0.01271400
v 0.04488200 -0.00826700 0.01271400
v 0.04488200 0.01827300 0.01271400
v 0.02802900 0.00124100 0.01271400
v 0.02649100 -0.00067700 0.01271400
v 0.02443700 -0.00215600 0.01271400
v 0.02202300 -0.00316000 0.01271400
v 0.01939300 -0.00366700 0.01271400
v 0.01804100 -0.00366700 0.01271400
v 0.01668900 -0.00366700 0.01271400
v 0.00721000 0.00350600 0.01271400
v 0.00721000 0.00591100 0.01271400
v 0.00805300 0.00124100 0.01271400
v 0.00959100 -0.00067700 0.01271400
v 0.01164500 -0.00215600 0.01271400
v 0.01405900 -0.00316000 0.01271400
v -0.00898300 0.00160900 0.01271400
v -0.01052100 -0.00030900 0.01271400
v -0.01257500 -0.00178800 0.01271400
v -0.01498900 -0.00279100 0.01271400
v -0.01762000 -0.00329900 0.01271400
v -0.01897100 -0.00329900 0.01271400
v -0.02032300 -0.00329900 0.01271400
v -0.02980300 0.00387400 0.01271400
v -0.04579700 -0.00826700 0.01271400
v -0.02980300 0.00627900 0.01271400
v -0.02896000 0.00160900 0.01271400
v -0.02742200 -0.00030900 0.01271400
v -0.02536800 -0.00178800 0.01271400
v -0.02295300 -0.00279100 0.01271400
v 0.02802900 0.00817600 0.01271400
v 0.02649100 0.01009400 0.01271400
v 0.02443700 0.01157300 0.01271400
v 0.02202300 0.01257600 0.01271400
v 0.01939300 0.01308400 0.01271400
v 0.01804100 0.01308400 0.01271400
v 0.01668900 0.01308400 0.01271400
v 0.00805300 0.00817600 0.01271400
v 0.00959100 0.01009400 0.01271400
v 0.01164500 0.01157300 0.01271400
v 0.01405900 0.01257600 0.01271400
v -0.00898300 0.00854400 0.01271400
v -0.01052100 0.01046200 0.01271400
v -0.01257500 0.01194100 0.01271400
v -0.01498900 0.01294500 0.01271400
v -0.01762000 0.01345200 0.01271400
v -0.01897100 0.01345200 0.01271400
v -0.02032300 0.01345200 0.01271400
v -0.02896000 0.00854400 0.01271400
v -0.02742200 0.01046200 0.01271400
v -0.04579700 0.01827300 0.01271400
v -0.02295300 0.01294500 0.01271400
v -0.02536800 0.01194100 0.01271400
v 0.00721000 0.00470800 0.01271400
v -0.02980300 0.00507700 0.01271400
v -0.04579700 0.01827300 0.01105500
v 0.04488200 0.01827300 0.01105500
v 0.04488200 -0.00826700 0.01105500
v -0.04579700 -0.00826700 0.01105500
v 0.01987900 0.00470800 0.00754600
v 0.01987900 0.00488300 0.00754600
v 0.01804100 0.00470800 0.00746100
v 0.01975400 0.00521900 0.00754600
v 0.01951200 0.00552100 0.00754600
v 0.01917000 0.00576800 0.00754600
v 0.01875100 0.00594200 0.00754600
v 0.01828300 0.00603200 0.00754600
v 0.01804100 0.00603200 0.00754600
v 0.02166100 0.00505200 0.00800700
v 0.02166100 0.00470800 0.00800700
v 0.02141500 0.00571500 0.00800700
v 0.02093800 0.00630900 0.00800700
v 0.02026400 0.00679400 0.00800700
v 0.01943800 0.00713700 0.00800700
v 0.01851800 0.00731500 0.00800700
v 0.01804100 0.00731500 0.00800700
v 0.02331100 0.00520800 0.00882300
v 0.02331100 0.00470800 0.00882300
v 0.02295200 0.00617300 0.00882300
v 0.02225800 0.00703800 0.00882300
v 0.02127700 0.00774500 0.00882300
v 0.02007500 0.00824400 0.00882300
v 0.01873500 0.00850300 0.00882300
v 0.01804100 0.00850300 0.00882300
v 0.02475900 0.00534500 0.00995900
v 0.02475900 0.00470800 0.00995900
v 0.02430100 0.00657500 0.00995900
v 0.02341600 0.00767800 0.00995900
v 0.02216600 0.00857900 0.00995900
v 0.02063400 0.00921500 0.00995900
v 0.01892500 0.00954500 0.00995900
v 0.01804100 0.00954500 0.00995900
v 0.02594200 0.00545700 0.01136800
v 0.02594200 0.00470800 0.01136800
v 0.02540400 0.00690400 0.01136800
v 0.02436400 0.00820200 0.01136800
v 0.02289200 0.00926100 0.01136800
v 0.02109100 0.01001000 0.01136800
v 0.01908100 0.01039700 0.01136800
v 0.01804100 0.01039700 0.01136800
v 0.02681200 0.00554000 0.01299000
v 0.02681200 0.00470800 0.01299000
v 0.02621400 0.00714600 0.01299000
v 0.02506000 0.00858600 0.01299000
v 0.02342600 0.00976200 0.01299000
v 0.02142600 0.01059300 0.01299000
v 0.01919600 0.01102400 0.01299000
v 0.01804100 0.01102400 0.01299000
v 0.01939300 0.01308400 0.01299000
v 0.01804100 0.01308400 0.01299000
v 0.02202300 0.01257600 0.01299000
v 0.02443700 0.01157300 0.01299000
v 0.02649100 0.01009400 0.01299000
v 0.02802900 0.00817600 0.01299000
v 0.02887200 0.00470800 0.01299000
v 0.02887200 0.00591100 0.01299000
v 0.01987900 0.00453400 0.00754600
v 0.01975400 0.00419800 0.00754600
v 0.01951200 0.00389600 0.00754600
v 0.01917000 0.00364900 0.00754600
v 0.01875100 0.00347500 0.00754600
v 0.01828300 0.00338500 0.00754600
v 0.01804100 0.00338500 0.00754600
v 0.02166100 0.00436500 0.00800700
v 0.02141500 0.00370200 0.00800700
v 0.02093800 0.00310800 0.00800700
v 0.02026400 0.00262300 0.00800700
v 0.01943800 0.00227900 0.00800700
v 0.01851800 0.00210200 0.00800700
v 0.01804100 0.00210200 0.00800700
v 0.02331100 0.00420900 0.00882300
v 0.02295200 0.00324400 0.00882300
v 0.02225800 0.00237900 0.00882300
v 0.02127700 0.00167200 0.00882300
v 0.02007500 0.00117300 0.00882300
v 0.01873500 0.00091400 0.00882300
v 0.01804100 0.00091400 0.00882300
v 0.02475900 0.00407200 0.00995900
v 0.02430100 0.00284200 0.00995900
v 0.02341600 0.00173900 0.00995900
v 0.02216600 0.00083800 0.00995900
v 0.02063400 0.00020100 0.00995900
v 0.01892500 -0.00012800 0.00995900
v 0.01804100 -0.00012800 0.00995900
v 0.02594200 0.00395900 0.01136800
v 0.02540400 0.00251300 0.01136800
v 0.02436400 0.00121500 0.01136800
v 0.02289200 0.00015600 0.01136800
v 0.02109100 -0.00059300 0.01136800
v 0.01908100 -0.00098100 0.01136800
v 0.01804100 -0.00098100 0.01136800
v 0.02681200 0.00387700 0.01299000
v 0.02621400 0.00227100 0.01299000
v 0.02506000 0.00083100 0.01299000
v 0.02342600 -0.00034500 0.01299000
v 0.02142600 -0.00117600 0.01299000
v 0.01919600 -0.00160700 0.01299000
v 0.01804100 -0.00160700 0.01299000
v 0.01939300 -0.00366700 0.01299000
v 0.01804100 -0.00366700 0.01299000
v 0.02202300 -0.00316000 0.01299000
v 0.02443700 -0.00215600 0.01299000
v 0.02649100 -0.00067700 0.01299000
v 0.02802900 0.00124100 0.01299000
v 0.02887200 0.00350600 0.01299000
v 0.01620300 0.00488300 0.00754600
v 0.01620300 0.00470800 0.00754600
v 0.01632800 0.00521900 0.00754600
v 0.01657000 0.00552100 0.00754600
v 0.01691200 0.00576800 0.00754600
v 0.01733100 0.00594200 0.00754600
v 0.01779900 0.00603200 0.00754600
v 0.01442100 0.00505200 0.00800700
v 0.01442100 0.00470800 0.00800700
v 0.01466700 0.00571500 0.00800700
v 0.01514400 0.00630900 0.00800700
v 0.01581800 0.00679400 0.00800700
v 0.01664400 0.00713700 0.00800700
v 0.01756400 0.00731500 0.00800700
v 0.01277100 0.00520800 0.00882300
v 0.01277100 0.00470800 0.00882300
v 0.01313000 0.00617300 0.00882300
v 0.01382400 0.00703800 0.00882300
v 0.01480500 0.00774500 0.00882300
v 0.01600700 0.00824400 0.00882300
v 0.01734700 0.00850300 0.00882300
v 0.01132300 0.00534500 0.00995900
v 0.01132300 0.00470800 0.00995900
v 0.01178100 0.00657500 0.00995900
v 0.01266600 0.00767800 0.00995900
v 0.01391600 0.00857900 0.00995900
v 0.01544800 0.00921500 0.00995900
v 0.01715700 0.00954500 0.00995900
v 0.01014000 0.00470800 0.01136800
v 0.01014000 0.00545700 0.01136800
v 0.01067800 0.00690400 0.01136800
v 0.01171800 0.00820200 0.01136800
v 0.01319000 0.00926100 0.01136800
v 0.01499100 0.01001000 0.01136800
v 0.01700100 0.01039700 0.01136800
v 0.00927000 0.00470800 0.01299000
v 0.00927000 0.00554000 0.01299000
v 0.00986800 0.00714600 0.01299000
v 0.01102200 0.00858600 0.01299000
v 0.01265600 0.00976200 0.01299000
v 0.01465600 0.01059300 0.01299000
v 0.01688600 0.01102400 0.01299000
v 0.01668900 0.01308400 0.01299000
v 0.01405900 0.01257600 0.01299000
v 0.01164500 0.01157300 0.01299000
v 0.00959100 0.01009400 0.01299000
v 0.00805300 0.00817600 0.01299000
v 0.00721000 0.00470800 0.01299000
v 0.00721000 0.00591100 0.01299000
v 0.01620300 0.00453400 0.00754600
v 0.01632800 0.00419800 0.00754600
v 0.01657000 0.00389600 0.00754600
v 0.01691200 0.00364900 0.00754600
v 0.01733100 0.00347500 0.00754600
v 0.01779900 0.00338500 0.00754600
v 0.01442100 0.00436500 0.00800700
v 0.01466700 0.00370200 0.00800700
v 0.01514400 0.00310800 0.00800700
v 0.01581800 0.00262300 0.00800700
v 0.01664400 0.00227900 0.00800700
v 0.01756400 0.00210200 0.00800700
v 0.01277100 0.00420900 0.00882300
v 0.01313000 0.00324400 0.00882300
v 0.01382400 0.00237900 0.00882300
v 0.01480500 0.00167200 0.00882300
v 0.01600700 0.00117300 0.00882300
v 0.01734700 0.00091400 0.00882300
v 0.01132300 0.00407200 0.00995900
v 0.01178100 0.00284200 0.00995900
v 0.01266600 0.00173900 0.00995900
v 0.01391600 0.00083800 0.00995900
v 0.01544800 0.00020100 0.00995900
v 0.01715700 -0.00012800 0.00995900
v 0.01014000 0.00395900 0.01136800
v 0.01067800 0.00251300 0.01136800
v 0.01171800 0.00121500 0.01136800
v 0.01319000 0.00015600 0.01136800
v 0.01499100 -0.00059300 0.01136800
v 0.01700100 -0.00098100 0.01136800
v 0.00927000 0.00387700 0.01299000
v 0.00986800 0.00227100 0.01299000
v 0.01102200 0.00083100 0.01299000
v 0.01265600 -0.00034500 0.01299000
v 0.01465600 -0.00117600 0.01299000
v 0.01688600 -0.00160700 0.01299000
v 0.01668900 -0.00366700 0.01299000
v 0.01405900 -0.00316000 0.01299000
v 0.01164500 -0.00215600 0.01299000
v 0.00959100 -0.00067700 0.01299000
v 0.00805300 0.00124100 0.01299000
v 0.00721000 0.00350600 0.01299000
v -0.01713300 0.00507700 0.00754600
v -0.01713300 0.00525100 0.00754600
v -0.01897100 0.00507700 0.00746100
v -0.01725800 0.00558800 0.00754600
v -0.01750000 0.00589000 0.00754600
v -0.01784200 0.00613600 0.00754600
v -0.01826200 0.00631000 0.00754600
v -0.01872900 0.00640000 0.00754600
v -0.01897100 0.00640000 0.00754600
v -0.01535100 0.00542000 0.00800700
v -0.01535100 0.00507700 0.00800700
v -0.01559800 0.00608300 0.00800700
v -0.01607400 0.00667700 0.00800700
v -0.01674800 0.00716300 0.00800700
v -0.01757400 0.00750600 0.00800700
v -0.01849500 0.00768300 0.00800700
v -0.01897100 0.00768300 0.00800700
v -0.01370100 0.00557600 0.00882300
v -0.01370100 0.00507700 0.00882300
v -0.01406000 0.00654100 0.00882300
v -0.01475400 0.00740700 0.00882300
v -0.01573500 0.00811300 0.00882300
v -0.01693700 0.00861300 0.00882300
v -0.01827700 0.00887100 0.00882300
v -0.01897100 0.00887100 0.00882300
v -0.01225400 0.00571400 0.00995900
v -0.01225400 0.00507700 0.00995900
v -0.01271200 0.00694400 0.00995900
v -0.01359600 0.00804700 0.00995900
v -0.01484700 0.00894700 0.00995900
v -0.01637800 0.00958400 0.00995900
v -0.01808700 0.00991400 0.00995900
v -0.01897100 0.00991400 0.00995900
v -0.01107000 0.00582600 0.01136800
v -0.01107000 0.00507700 0.01136800
v -0.01160800 0.00727300 0.01136800
v -0.01264900 0.00857000 0.01136800
v -0.01412000 0.00962900 0.01136800
v -0.01592100 0.01037800 0.01136800
v -0.01793100 0.01076600 0.01136800
v -0.01897100 0.01076600 0.01136800
v -0.01020000 0.00590800 0.01299000
v -0.01020000 0.00507700 0.01299000
v -0.01079800 0.00751400 0.01299000
v -0.01195300 0.00895400 0.01299000
v -0.01358600 0.01013000 0.01299000
v -0.01558600 0.01096200 0.01299000
v -0.01781700 0.01139200 0.01299000
v -0.01897100 0.01139200 0.01299000
v -0.01762000 0.01345200 0.01299000
v -0.01897100 0.01345200 0.01299000
v -0.01498900 0.01294500 0.01299000
v -0.01257500 0.01194100 0.01299000
v -0.01052100 0.01046200 0.01299000
v -0.00898300 0.00854400 0.01299000
v -0.00814000 0.00507700 0.01299000
v -0.00814000 0.00627900 0.01299000
v -0.01713300 0.00490200 0.00754600
v -0.01725800 0.00456600 0.00754600
v -0.01750000 0.00426400 0.00754600
v -0.01784200 0.00401800 0.00754600
v -0.01826200 0.00384300 0.00754600
v -0.01872900 0.00375300 0.00754600
v -0.01897100 0.00375300 0.00754600
v -0.01535100 0.00473400 0.00800700
v -0.01559800 0.00407100 0.00800700
v -0.01607400 0.00347600 0.00800700
v -0.01674800 0.00299100 0.00800700
v -0.01757400 0.00264800 0.00800700
v -0.01849500 0.00247000 0.00800700
v -0.01897100 0.00247000 0.00800700
v -0.01370100 0.00457700 0.00882300
v -0.01406000 0.00361200 0.00882300
v -0.01475400 0.00274700 0.00882300
v -0.01573500 0.00204000 0.00882300
v -0.01693700 0.00154100 0.00882300
v -0.01827700 0.00128200 0.00882300
v -0.01897100 0.00128200 0.00882300
v -0.01225400 0.00444000 0.00995900
v -0.01271200 0.00321000 0.00995900
v -0.01359600 0.00210700 0.00995900
v -0.01484700 0.00120700 0.00995900
v -0.01637800 0.00057000 0.00995900
v -0.01808700 0.00024000 0.00995900
v -0.01897100 0.00024000 0.00995900
v -0.01107000 0.00432800 0.01136800
v -0.01160800 0.00288100 0.01136800
v -0.01264900 0.00158400 0.01136800
v -0.01412000 0.00052500 0.01136800
v -0.01592100 -0.00022400 0.01136800
v -0.01793100 -0.00061200 0.01136800
v -0.01897100 -0.00061200 0.01136800
v -0.01020000 0.00424500 0.01299000
v -0.01079800 0.00263900 0.01299000
v -0.01195300 0.00119900 0.01299000
v -0.01358600 0.00002300 0.01299000
v -0.01558600 -0.00080800 0.01299000
v -0.01781700 -0.00123800 0.01299000
v -0.01897100 -0.00123800 0.01299000
v -0.01762000 -0.00329900 0.01299000
v -0.01897100 -0.00329900 0.01299000
v -0.01498900 -0.00279100 0.01299000
v -0.01257500 -0.00178800 0.01299000
v -0.01052100 -0.00030900 0.01299000
v -0.00898300 0.00160900 0.01299000
v -0.00814000 0.00387500 0.01299000
v -0.00814000 0.00387500 0.01271400
v -0.02081000 0.00525100 0.00754600
v -0.02081000 0.00507700 0.00754600
v -0.02068400 0.00558800 0.00754600
v -0.02044200 0.00589000 0.00754600
v -0.02010000 0.00613600 0.00754600
v -0.01968100 0.00631000 0.00754600
v -0.01921300 0.00640000 0.00754600
v -0.02259200 0.00542000 0.00800700
v -0.02259200 0.00507700 0.00800700
v -0.02234500 0.00608300 0.00800700
v -0.02186800 0.00667700 0.00800700
v -0.02119400 0.00716300 0.00800700
v -0.02036900 0.00750600 0.00800700
v -0.01944800 0.00768300 0.00800700
v -0.02424100 0.00557600 0.00882300
v -0.02424100 0.00507700 0.00882300
v -0.02388200 0.00654100 0.00882300
v -0.02318800 0.00740700 0.00882300
v -0.02220700 0.00811300 0.00882300
v -0.02100500 0.00861300 0.00882300
v -0.01966500 0.00887100 0.00882300
v -0.02568900 0.00571400 0.00995900
v -0.02568900 0.00507700 0.00995900
v -0.02523100 0.00694400 0.00995900
v -0.02434700 0.00804700 0.00995900
v -0.02309600 0.00894700 0.00995900
v -0.02156400 0.00958400 0.00995900
v -0.01985600 0.00991400 0.00995900
v -0.02687300 0.00507700 0.01136800
v -0.02687300 0.00582600 0.01136800
v -0.02633400 0.00727300 0.01136800
v -0.02529400 0.00857000 0.01136800
v -0.02382300 0.00962900 0.01136800
v -0.02202100 0.01037800 0.01136800
v -0.02001200 0.01076600 0.01136800
v -0.02774200 0.00507700 0.01299000
v -0.02774200 0.00590800 0.01299000
v -0.02714500 0.00751400 0.01299000
v -0.02599000 0.00895400 0.01299000
v -0.02435700 0.01013000 0.01299000
v -0.02235700 0.01096200 0.01299000
v -0.02012600 0.01139200 0.01299000
v -0.02032300 0.01345200 0.01299000
v -0.02295300 0.01294500 0.01299000
v -0.02536800 0.01194100 0.01299000
v -0.02742200 0.01046200 0.01299000
v -0.02896000 0.00854400 0.01299000
v -0.02980300 0.00507700 0.01299000
v -0.02980300 0.00627900 0.01299000
v -0.02081000 0.00490200 0.00754600
v -0.02068400 0.00456600 0.00754600
v -0.02044200 0.00426400 0.00754600
v -0.02010000 0.00401800 0.00754600
v -0.01968100 0.00384300 0.00754600
v -0.01921300 0.00375300 0.00754600
v -0.02259200 0.00473400 0.00800700
v -0.02234500 0.00407100 0.00800700
v -0.02186800 0.00347600 0.00800700
v -0.02119400 0.00299100 0.00800700
v -0.02036900 0.00264800 0.00800700
v -0.01944800 0.00247000 0.00800700
v -0.02424100 0.00457700 0.00882300
v -0.02388200 0.00361200 0.00882300
v -0.02318800 0.00274700 0.00882300
v -0.02220700 0.00204000 0.00882300
v -0.02100500 0.00154100 0.00882300
v -0.01966500 0.00128200 0.00882300
v -0.02568900 0.00444000 0.00995900
v -0.02523100 0.00321000 0.00995900
v -0.02434700 0.00210700 0.00995900
v -0.02309600 0.00120700 0.00995900
v -0.02156400 0.00057000 0.00995900
v -0.01985600 0.00024000 0.00995900
v -0.02687300 0.00432800 0.01136800
v -0.02633400 0.00288100 0.01136800
v -0.02529400 0.00158400 0.01136800
v -0.02382300 0.00052500 0.01136800
v -0.02202100 -0.00022400 0.01136800
v -0.02001200 -0.00061200 0.01136800
v -0.02774200 0.00424500 0.01299000
v -0.02714500 0.00263900 0.01299000
v -0.02599000 0.00119900 0.01299000
v -0.02435700 0.00002300 0.01299000
v -0.02235700 -0.00080800 0.01299000
v -0.02012600 -0.00123800 0.01299000
v -0.02032300 -0.00329900 0.01299000
v -0.02295300 -0.00279100 0.01299000
v -0.02536800 -0.00178800 0.01299000
v -0.02742200 -0.00030900 0.01299000
v -0.02896000 0.00160900 0.01299000
v -0.02980300 0.00387500 0.01299000
v -0.02980300 0.00387500 0.01271400
v 0.01804100 0.00721600 0.01439600
v 0.01830100 0.00801700 0.01439600
v 0.01846200 0.00752200 0.01439600
v 0.01804100 0.00801700 0.01439600
v 0.01804100 0.00801700 0.01474800
v 0.01830100 0.00801700 0.01474800
v 0.01846200 0.00752200 0.01474800
v 0.01804100 0.00721600 0.01474800
v 0.01804100 0.01128700 0.01299000
v 0.01804100 0.01128700 0.01439500
v 0.01979900 0.01128700 0.01374400
v 0.01914700 0.01128700 0.01439500
v 0.02135900 0.01128700 0.01299000
v 0.01979900 0.01253100 0.01374400
v 0.02135900 0.01253100 0.01299000
v 0.01914700 0.00714000 0.01474800
v 0.01914700 0.00825900 0.01474800
v 0.01914700 0.00824600 0.01474800
v 0.01804100 0.00714000 0.01474800
v 0.01804100 0.00825900 0.01474800
v 0.01914700 0.00741600 0.01579900
v 0.01804100 0.00741600 0.01579900
v 0.01914700 0.01253100 0.01439500
v 0.01804100 0.01128700 0.01579900
v 0.01914700 0.01128700 0.01579900
v 0.01804100 0.01253100 0.01439500
v 0.01804100 0.01253100 0.01299000
v 0.01914700 0.01180500 0.01555400
v 0.01914700 0.01224300 0.01512500
v 0.01804100 0.01180500 0.01555400
v 0.01804100 0.01224300 0.01512500
v 0.01778100 0.00801700 0.01439600
v 0.01762000 0.00752200 0.01439600
v 0.01778100 0.00801700 0.01474800
v 0.01762000 0.00752200 0.01474800
v 0.01472400 0.01128700 0.01299000
v 0.01628300 0.01128700 0.01374400
v 0.01693500 0.01128700 0.01439500
v 0.01628300 0.01253100 0.01374400
v 0.01472400 0.01253100 0.01299000
v 0.01693500 0.00825900 0.01474800
v 0.01693500 0.00714000 0.01474800
v 0.01693500 0.00824600 0.01474800
v 0.01693500 0.00741600 0.01579900
v 0.01693500 0.01253100 0.01439500
v 0.01693500 0.01128700 0.01579900
v 0.01693500 0.01180500 0.01555400
v 0.01693500 0.01224300 0.01512500
v -0.01897100 0.00758500 0.01439600
v -0.01871100 0.00838500 0.01439600
v -0.01855100 0.00789000 0.01439600
v -0.01897100 0.00838500 0.01439600
v -0.01897100 0.00838500 0.01474800
v -0.01871100 0.00838500 0.01474800
v -0.01855100 0.00789000 0.01474800
v -0.01897100 0.00758500 0.01474800
v -0.01897100 0.01165500 0.01299000
v -0.01897100 0.01165500 0.01439500
v -0.01721300 0.01165500 0.01374400
v -0.01786500 0.01165500 0.01439500
v -0.01565400 0.01165500 0.01299000
v -0.01721300 0.01289900 0.01374400
v -0.01565400 0.01289900 0.01299000
v -0.01786500 0.00750800 0.01474800
v -0.01786500 0.00862700 0.01474800
v -0.01786500 0.00861400 0.01474800
v -0.01897100 0.00750800 0.01474800
v -0.01897100 0.00862700 0.01474800
v -0.01786500 0.00778500 0.01579900
v -0.01897100 0.00778500 0.01579900
v -0.01786500 0.01289900 0.01439500
v -0.01897100 0.01165500 0.01579900
v -0.01786500 0.01165500 0.01579900
v -0.01897100 0.01289900 0.01439500
v -0.01897100 0.01289900 0.01299000
v -0.01786500 0.01217300 0.01555400
v -0.01786500 0.01261100 0.01512500
v -0.01897100 0.01217300 0.01555400
v -0.01897100 0.01261100 0.01512500
v -0.01923100 0.00838500 0.01439600
v -0.01939200 0.00789000 0.01439600
v -0.01923100 0.00838500 0.01474800
v -0.01939200 0.00789000 0.01474800
v -0.02228900 0.01165500 0.01299000
v -0.02072900 0.01165500 0.01374400
v -0.02007700 0.01165500 0.01439500
v -0.02072900 0.01289900 0.01374400
v -0.02228900 0.01289900 0.01299000
v -0.02007700 0.00862700 0.01474800
v -0.02007700 0.00750800 0.01474800
v -0.02007700 0.00861400 0.01474800
v -0.02007700 0.00778500 0.01579900
v -0.02007700 0.01289900 0.01439500
v -0.02007700 0.01165500 0.01579900
v -0.02007700 0.01217300 0.01555400
v -0.02007700 0.01261100 0.01512500
v 0.04543500 -0.00882000 0.01271400
v 0.04543500 0.01827300 0.01271400
v -0.04579700 -0.00882000 0.01271400
v -0.04579700 -0.00882000 0.01105500
v 0.04543500 -0.00882000 0.01105500
v 0.04543500 0.01827300 0.01105500
v 0.02580600 -0.00826700 0.00993300
v 0.02801800 -0.00826700 -0.00007200
v 0.02801800 -0.00826700 0.00991100
v 0.02801800 -0.00826700 -0.00117800
v 0.04377600 -0.00826700 -0.00007200
v 0.02580600 -0.00826700 -0.01169600
v 0.02801800 -0.00826700 -0.01175300
v 0.00783600 -0.00826700 -0.01175300
v 0.00783600 -0.00826700 -0.00007200
v 0.01004800 -0.00826700 0.00993300
v 0.00783600 -0.00826700 0.01004600
v 0.00783600 -0.00826700 -0.00117800
v -0.00819800 -0.00826700 -0.00117800
v 0.01004800 -0.00826700 -0.01169600
v 0.01792700 -0.00826700 -0.01169600
v -0.00819800 -0.00826700 0.01004600
v -0.02699700 -0.00826700 0.00994900
v -0.04469100 -0.00826700 0.00987600
v -0.04469100 -0.00826700 -0.00007200
v -0.04469100 -0.00826700 -0.00117800
v -0.02920900 -0.00826700 -0.00007200
v -0.04469100 -0.00826700 -0.01161500
v -0.02920900 -0.00826700 -0.01161500
v -0.01041000 -0.00826700 -0.01179000
v -0.01870400 -0.00826700 -0.01179000
v -0.04469100 -0.00826700 -0.01276800
v -0.04469100 -0.00826700 -0.02288600
v -0.02699700 -0.00826700 -0.02288600
v -0.02920900 -0.00826700 -0.02288600
v -0.01041000 -0.00826700 -0.02288600
v -0.00819800 -0.00826700 -0.02288600
v 0.00783600 -0.00826700 -0.02288600
v 0.01004800 -0.00826700 -0.02288600
v 0.02580600 -0.00826700 -0.02288600
v -0.04579700 -0.00826700 -0.02405500
v 0.01792700 -0.00826700 0.00993300
v 0.04377600 -0.00826700 0.00991100
v 0.04377600 -0.00826700 -0.00117800
v 0.04377600 -0.00826700 -0.01175300
v -0.02920900 -0.00826700 -0.01276800
v 0.01004800 -0.00826700 -0.01281700
v 0.02580600 -0.00826700 -0.01281700
v 0.04488200 -0.00826700 -0.02405500
v -0.01870400 -0.00826700 0.00994900
v -0.01041000 -0.00826700 0.00994900
v -0.00819800 -0.00826700 -0.00007200
v -0.00819800 -0.00826700 -0.01175300
v -0.02920900 -0.00826700 0.00987600
v -0.02920900 -0.00826700 -0.00117800
v -0.00819800 -0.00826700 -0.01285900
v -0.01041000 -0.00826700 -0.01282700
v -0.02699700 -0.00826700 -0.01282700
v 0.00783600 -0.00826700 -0.01285900
v -0.04579700 0.01827300 -0.02847900
v -0.04579700 -0.00384400 -0.02847900
v -0.04579700 -0.00384400 -0.02405500
v 0.04488200 -0.00384400 -0.02405500
v 0.04488200 0.01827300 -0.02847900
v 0.04488200 -0.00384400 -0.02847900
v 0.00783600 -0.00909700 0.01004600
v -0.00819800 -0.00909700 0.01004600
v 0.00783600 -0.00909700 -0.00007200
v -0.00819800 -0.00909700 -0.00007200
v -0.02478600 -0.00882000 -0.00957900
v -0.02091500 -0.00882000 0.00773800
v -0.02478600 -0.00882000 0.00773800
v -0.02091500 -0.00882000 -0.00957900
v -0.02091500 -0.00909700 -0.00957900
v -0.02478600 -0.00909700 -0.00957900
v -0.01649200 -0.00882000 -0.00957900
v -0.01262200 -0.00882000 0.00773800
v -0.01649200 -0.00882000 0.00773800
v -0.01262200 -0.00882000 -0.00957900
v -0.01262200 -0.00909700 -0.00957900
v -0.01649200 -0.00909700 -0.00957900
v -0.02091500 -0.00909700 0.00773800
v -0.02478600 -0.00909700 0.00773800
v -0.02478600 -0.00909700 -0.01179000
v -0.02091500 -0.00909700 -0.01179000
v -0.01870400 -0.00909700 -0.01179000
v -0.01262200 -0.00909700 0.00773800
v -0.01649200 -0.00909700 0.00773800
v -0.01649200 -0.00909700 -0.01179000
v -0.01262200 -0.00909700 -0.01179000
v -0.01870400 -0.00909700 0.00994900
v -0.02091500 -0.00909700 0.00994900
v -0.02478600 -0.00909700 0.00994900
v -0.02699700 -0.00909700 0.00994900
v -0.01041000 -0.00909700 -0.01179000
v -0.01041000 -0.00909700 0.00994900
v -0.01262200 -0.00909700 0.00994900
v -0.01649200 -0.00909700 0.00994900
v -0.02920900 -0.00909700 0.00987600
v -0.04469100 -0.00909700 0.00987600
v -0.02920900 -0.00909700 -0.00007200
v -0.04469100 -0.00909700 -0.00007200
v -0.02920900 -0.00909700 -0.01276800
v -0.04469100 -0.00909700 -0.01276800
v -0.02920900 -0.00909700 -0.02288600
v -0.04469100 -0.00909700 -0.02288600
v -0.02920900 -0.00909700 -0.00117800
v -0.04469100 -0.00909700 -0.00117800
v -0.02920900 -0.00909700 -0.01161500
v -0.04469100 -0.00909700 -0.01161500
v -0.00819800 -0.00909700 -0.01175300
v 0.00783600 -0.00909700 -0.01175300
v -0.00819800 -0.00909700 -0.00117800
v 0.00783600 -0.00909700 -0.00117800
v 0.02013900 -0.00882000 -0.00948400
v 0.02359500 -0.00882000 0.00772100
v 0.02013900 -0.00882000 0.00772100
v 0.02359500 -0.00882000 -0.00948400
v 0.02359500 -0.00909700 -0.00948400
v 0.02013900 -0.00909700 -0.00948400
v 0.01226000 -0.00882000 -0.00948400
v 0.01571600 -0.00882000 0.00772100
v 0.01226000 -0.00882000 0.00772100
v 0.01571600 -0.00882000 -0.00948400
v 0.01571600 -0.00909700 -0.00948400
v 0.01226000 -0.00909700 -0.00948400
v 0.02359500 -0.00909700 0.00772100
v 0.02013900 -0.00909700 0.00772100
v 0.02013900 -0.00909700 -0.01169600
v 0.02359500 -0.00909700 -0.01169600
v 0.02580600 -0.00909700 -0.01169600
v 0.01792700 -0.00909700 -0.01169600
v 0.01571600 -0.00909700 0.00772100
v 0.01226000 -0.00909700 0.00772100
v 0.01226000 -0.00909700 -0.01169600
v 0.01571600 -0.00909700 -0.01169600
v 0.01004800 -0.00909700 -0.01169600
v 0.02580600 -0.00909700 0.00993300
v 0.02359500 -0.00909700 0.00993300
v 0.02013900 -0.00909700 0.00993300
v 0.01792700 -0.00909700 0.00993300
v 0.01571600 -0.00909700 0.00993300
v 0.01226000 -0.00909700 0.00993300
v 0.01004800 -0.00909700 0.00993300
v 0.04377600 -0.00909700 0.00991100
v 0.04377600 -0.00909700 -0.00007200
v 0.02801800 -0.00909700 -0.00007200
v 0.02801800 -0.00909700 0.00991100
v 0.04377600 -0.00909700 -0.00117800
v 0.02801800 -0.00909700 -0.00117800
v 0.04377600 -0.00909700 -0.01175300
v 0.02801800 -0.00909700 -0.01175300
v 0.00783600 -0.00909700 -0.01285900
v -0.00819800 -0.00909700 -0.01285900
v 0.00783600 -0.00909700 -0.02288600
v -0.00819800 -0.00909700 -0.02288600
v -0.01041000 0.01136100 -0.01282700
v -0.02699700 0.01136100 -0.01282700
v -0.01041000 0.01136100 -0.02288600
v -0.02699700 0.01136100 -0.02288600
v 0.02580600 0.01163800 -0.01281700
v 0.01004800 0.01163800 -0.01281700
v 0.02580600 0.01163800 -0.02288600
v 0.01004800 0.01163800 -0.02288600
v 0.02801800 -0.00909700 -0.02288600
v 0.04377600 -0.00909700 -0.02288600
v 0.02801800 -0.00909700 -0.01285900
v 0.04377600 -0.00909700 -0.01285900
vn 0.00000000 -1.00000000 0.00000000
vn 0.00000000 -1.00000000 0.00000000
vn 0.00000000 -1.00000000 0.00000000
vn 0.00000000 -1.00000000 0.00000000
vn 0.00000000 -1.00000000 0.00000000
vn 0.00000000 -1.00000000 0.00000000
vn 0.00000000 -1.00000000 0.00000000
vn 0.00000000 -1.00000000 0.00000000
vn 0.00000000 -1.00000000 0.00000000
vn 0.00000000 -1.00000000 0.00000000
vn 0.00000000 -1.00000000 0.00000000
vn 0.00000000 -1.00000000 0.00000000
vn -0.57735027 -0.57735027 -0.57735027
vn -0.70710678 -0.70710678 0.00000000
vn -0.30151134 -0.90453403 -0.30151134
vn -0.70710678 -0.70710678 0.00000000
vn 0.00000000 -1.00000000 -0.00000000
vn 0.70710678 0.00000000 0.70710678
vn 0.70710678 0.00000000 -0.70710678
vn -0.00000000 -1.00000000 -0.00000000
vn 0.00000000 -1.00000000 0.00000000
vn -0.70710678 0.00000000 0.70710678
vn -0.70710678 0.00000000 -0.70710678
vn 0.00000000 -1.00000000 0.00000000
vn 0.00000000 0.00000000 -0.00000000
vn 1.00000000 0.00000000 0.00000000
vn 0.98417314 0.17720956 0.00000000
vn 0.98417314 -0.17720956 0.00000000
vn 1.00000000 0.00000000 0.00000000
vn 0.98417314 0.17720956 -0.00000000
vn -0.30151134 0.30151134 0.90453403
vn -0.70710678 0.00000000 0.70710678
vn 0.86975406 -0.49348544 0.00000000
vn 0.68854932 -0.72518951 0.00000000
vn 0.48739392 -0.87318221 -0.00000000
vn 0.28814746 -0.95758605 0.00000000
vn 0.09507594 -0.99547002 0.00000000
vn 0.00000000 -1.00000000 0.00000000
vn -0.09507594 -0.99547002 -0.00000000
vn -0.98417314 -0.17720956 0.00000000
vn -0.98417314 0.17720956 0.00000000
vn -0.86975406 -0.49348544 -0.00000000
vn -0.68854932 -0.72518951 0.00000000
vn -0.48739392 -0.87318221 0.00000000
vn -0.28814746 -0.95758605 0.00000000
vn 0.86978965 -0.49342270 0.00000000
vn 0.68854932 -0.72518951 -0.00000000
vn 0.48723970 -0.87326827 -0.00000000
vn 0.28811998 -0.95759432 0.00000000
vn 0.09522317 -0.99545595 0.00000000
vn 0.00000000 -1.00000000 0.00000000
vn -0.09525840 -0.99545258 -0.00000000
vn 0.00000000 0.00000000 0.00000000
vn -0.81649658 0.40824829 0.40824829
vn -0.98417314 0.17720956 0.00000000
vn -0.86978965 -0.49342270 -0.00000000
vn -0.68854932 -0.72518951 -0.00000000
vn -0.48717564 -0.87330401 0.00000000
vn -0.28808361 -0.95760526 -0.00000000
vn 0.86975406 0.49348544 -0.00000000
vn 0.68854932 0.72518951 -0.00000000
vn 0.48723970 0.87326827 -0.00000000
vn 0.28815386 0.95758412 0.00000000
vn 0.09525840 0.99545258 0.00000000
vn 0.00000000 1.00000000 -0.00000000
vn -0.09525840 0.99545258 0.00000000
vn -0.86975406 0.49348544 0.00000000
vn -0.68854932 0.72518951 -0.00000000
vn -0.48723970 0.87326827 0.00000000
vn -0.28815386 0.95758412 0.00000000
vn 0.86975406 0.49348544 -0.00000000
vn 0.68854932 0.72518951 -0.00000000
vn 0.48739392 0.87318221 0.00000000
vn 0.28811364 0.95759623 0.00000000
vn 0.09504078 0.99547338 -0.00000000
vn 0.00000000 1.00000000 -0.00000000
vn -0.09507594 0.99547002 0.00000000
vn -0.86975406 0.49348544 -0.00000000
vn -0.68854932 0.72518951 -0.00000000
vn -0.70710678 -0.70710678 -0.00000000
vn -0.28807716 0.95760720 0.00000000
vn -0.48732981 0.87321799 0.00000000
vn -1.00000000 0.00000000 0.00000000
vn -1.00000000 0.00000000 0.00000000
vn 0.00000000 -1.00000000 0.00000000
vn -0.00000000 -0.00000000 -1.00000000
vn 0.00000000 0.00000000 -1.00000000
vn -0.94868330 0.00000000 -0.31622777
vn -0.14912231 0.00000000 0.98881876
vn -0.15768891 -0.02974065 0.98704088
vn -0.00000000 0.00002402 1.00000000
vn -0.14482364 -0.08598582 0.98571423
vn -0.12177381 -0.13377413 0.98350171
vn -0.09146645 -0.17083150 0.98104561
vn -0.05639301 -0.19563167 0.97905469
vn -0.01899407 -0.20792960 0.97795936
vn 0.00000000 -0.20310681 0.97915659
vn -0.35277507 -0.06495962 0.93345059
vn -0.34872591 0.00000000 0.93722475
vn -0.32452814 -0.18832417 0.92693878
vn -0.27290363 -0.29347627 0.91618518
vn -0.20503020 -0.37426585 0.90437143
vn -0.12688791 -0.42849097 0.89459206
vn -0.04299174 -0.45560506 0.88914326
vn 0.00000000 -0.45591801 0.89002178
vn -0.53224847 -0.09726086 0.84098269
vn -0.53309595 0.00000000 0.84605479
vn -0.48642841 -0.27965584 0.82775601
vn -0.40494167 -0.43092886 0.80642580
vn -0.30064565 -0.54338351 0.78380263
vn -0.18416788 -0.61636891 0.76561842
vn -0.06206073 -0.65206170 0.75562160
vn 0.00000000 -0.65576419 0.75496578
vn -0.68964661 -0.12520097 0.71324068
vn -0.69527554 0.00000000 0.71874329
vn -0.62441154 -0.35663599 0.69492518
vn -0.51238736 -0.54179581 0.66627058
vn -0.37494445 -0.67388212 0.63663141
vn -0.22707227 -0.75597867 0.61394987
vn -0.07590751 -0.79516507 0.60162327
vn 0.00000000 -0.80026378 0.59964813
vn -0.81805222 -0.14747102 0.55591623
vn -0.82793852 0.00000000 0.56081888
vn -0.73402361 -0.41670887 0.53624906
vn -0.59382999 -0.62541286 0.50618643
vn -0.42858632 -0.76765251 0.47646972
vn -0.25690840 -0.85292240 0.45444631
vn -0.08537226 -0.89244675 0.44300155
vn 0.00000000 -0.89766182 0.44068498
vn -0.46081263 -0.08100249 0.88379314
vn -0.51348142 0.00000000 0.85810071
vn -0.42153360 -0.23367651 0.87618760
vn -0.34948494 -0.36013708 0.86496333
vn -0.25744619 -0.45208085 0.85401661
vn -0.15636724 -0.50981524 0.84595372
vn -0.05240008 -0.53681160 0.84207336
vn 0.00000000 -0.56543856 0.82479042
vn 0.06928485 0.72402841 0.68628163
vn 0.00000000 0.70710678 0.70710678
vn 0.20993316 0.69764348 0.68499755
vn 0.35627991 0.63855211 0.68214063
vn 0.50616213 0.53309684 0.67794370
vn 0.64331806 0.36500904 0.67298608
vn 0.70710678 0.00000000 0.70710678
vn 0.73122338 0.13166360 0.66931088
vn -0.15769084 0.02973989 0.98704060
vn -0.14482909 0.08598758 0.98571328
vn -0.12178163 0.13378060 0.98349987
vn -0.09148163 0.17077886 0.98105336
vn -0.05634644 0.19560005 0.97906368
vn -0.01899644 0.20795098 0.97795477
vn 0.00000000 0.20313047 0.97915168
vn -0.35277507 0.06495962 0.93345059
vn -0.32452814 0.18832417 0.92693878
vn -0.27290363 0.29347627 0.91618518
vn -0.20517371 0.37418873 0.90437080
vn -0.12694091 0.42855964 0.89455164
vn -0.04276662 0.45558639 0.88916368
vn 0.00000000 0.45591801 0.89002178
vn -0.53224847 0.09726086 0.84098269
vn -0.48642841 0.27965584 0.82775601
vn -0.40494167 0.43092886 0.80642580
vn -0.30067469 0.54329947 0.78384974
vn -0.18419465 0.61625329 0.76570505
vn -0.06195373 0.65208162 0.75561319
vn 0.00000000 0.65576419 0.75496578
vn -0.68962184 0.12516772 0.71327047
vn -0.62439065 0.35664853 0.69493751
vn -0.51238736 0.54179581 0.66627058
vn -0.37512043 0.67374501 0.63667286
vn -0.22700376 0.75606804 0.61386514
vn -0.07581056 0.79508312 0.60174379
vn 0.00000000 0.80010798 0.59985600
vn -0.81805031 0.14760429 0.55588368
vn -0.73400322 0.41677630 0.53622457
vn -0.59382999 0.62541286 0.50618643
vn -0.42863650 0.76764715 0.47643322
vn -0.25704131 0.85293746 0.45434287
vn -0.08551268 0.89241670 0.44303500
vn 0.00000000 0.89766556 0.44067737
vn -0.46082788 0.08100007 0.88378541
vn -0.42153360 0.23367651 0.87618760
vn -0.34948494 0.36013708 0.86496333
vn -0.25744619 0.45208085 0.85401661
vn -0.15644113 0.50983806 0.84592631
vn -0.05242326 0.53702871 0.84193347
vn 0.00000000 0.56565978 0.82463872
vn 0.06914867 -0.72400471 0.68632037
vn 0.00000000 -0.70710678 0.70710678
vn 0.20994901 -0.69771305 0.68492183
vn 0.35637594 -0.63845919 0.68217743
vn 0.50616213 -0.53309684 0.67794370
vn 0.64331806 -0.36500904 0.67298608
vn 0.73122338 -0.13166360 0.66931088
vn 0.15768891 -0.02974065 0.98704088
vn 0.14912231 0.00000000 0.98881876
vn 0.14482364 -0.08598582 0.98571423
vn 0.12177381 -0.13377413 0.98350171
vn 0.09146645 -0.17083150 0.98104561
vn 0.05639301 -0.19563167 0.97905469
vn 0.01899407 -0.20792960 0.97795936
vn 0.35277507 -0.06495962 0.93345059
vn 0.34872591 0.00000000 0.93722475
vn 0.32452814 -0.18832417 0.92693878
vn 0.27290363 -0.29347627 0.91618518
vn 0.20503020 -0.37426585 0.90437143
vn 0.12688791 -0.42849097 0.89459206
vn 0.04299174 -0.45560506 0.88914326
vn 0.53224847 -0.09726086 0.84098269
vn 0.53309595 0.00000000 0.84605479
vn 0.48642841 -0.27965584 0.82775601
vn 0.40494167 -0.43092886 0.80642580
vn 0.30064565 -0.54338351 0.78380263
vn 0.18416788 -0.61636891 0.76561842
vn 0.06206073 -0.65206170 0.75562160
vn 0.68964661 -0.12520097 0.71324068
vn 0.69527554 0.00000000 0.71874329
vn 0.62441154 -0.35663599 0.69492518
vn 0.51238736 -0.54179581 0.66627058
vn 0.37494445 -0.67388212 0.63663141
vn 0.22707227 -0.75597867 0.61394987
vn 0.07590751 -0.79516507 0.60162327
vn 0.82793852 0.00000000 0.56081888
vn 0.81805222 -0.14747102 0.55591623
vn 0.73402361 -0.41670887 0.53624906
vn 0.59382999 -0.62541286 0.50618643
vn 0.42858632 -0.76765251 0.47646972
vn 0.25690840 -0.85292240 0.45444631
vn 0.08537226 -0.89244675 0.44300155
vn 0.51348142 0.00000000 0.85810071
vn 0.46081263 -0.08100249 0.88379314
vn 0.42153360 -0.23367651 0.87618760
vn 0.34948494 -0.36013708 0.86496333
vn 0.25744619 -0.45208085 0.85401661
vn 0.15636724 -0.50981524 0.84595372
vn 0.05240008 -0.53681160 0.84207336
vn -0.06928485 0.72402841 0.68628163
vn -0.20993316 0.69764348 0.68499755
vn -0.35627991 0.63855211 0.68214063
vn -0.50616213 0.53309684 0.67794370
vn -0.64331806 0.36500904 0.67298608
vn -0.70710678 0.00000000 0.70710678
vn -0.73122338 0.13166360 0.66931088
vn 0.15769084 0.02973989 0.98704060
vn 0.14482909 0.08598758 0.98571328
vn 0.12178163 0.13378060 0.98349987
vn 0.09148163 0.17077886 0.98105336
vn 0.05634644 0.19560005 0.97906368
vn 0.01899644 0.20795098 0.97795477
vn 0.35277507 0.06495962 0.93345059
vn 0.32452814 0.18832417 0.92693878
vn 0.27290363 0.29347627 0.91618518
vn 0.20517371 0.37418873 0.90437080
vn 0.12694091 0.42855964 0.89455164
vn 0.04276662 0.45558639 0.88916368
vn 0.53224847 0.09726086 0.84098269
vn 0.48642841 0.27965584 0.82775601
vn 0.40494167 0.43092886 0.80642580
vn 0.30067469 0.54329947 0.78384974
vn 0.18419465 0.61625329 0.76570505
vn 0.06195373 0.65208162 0.75561319
vn 0.68962184 0.12516772 0.71327047
vn 0.62439065 0.35664853 0.69493751
vn 0.51238736 0.54179581 0.66627058
vn 0.37512043 0.67374501 0.63667286
vn 0.22700376 0.75606804 0.61386514
vn 0.07581056 0.79508312 0.60174379
vn 0.81805031 0.14760429 0.55588368
vn 0.73400322 0.41677630 0.53622457
vn 0.59382999 0.62541286 0.50618643
vn 0.42863650 0.76764715 0.47643322
vn 0.25704131 0.85293746 0.45434287
vn 0.08551268 0.89241670 0.44303500
vn 0.46082788 0.08100007 0.88378541
vn 0.42153360 0.23367651 0.87618760
vn 0.34948494 0.36013708 0.86496333
vn 0.25744619 0.45208085 0.85401661
vn 0.15644113 0.50983806 0.84592631
vn 0.05242326 0.53702871 0.84193347
vn -0.06914867 -0.72400471 0.68632037
vn -0.20994901 -0.69771305 0.68492183
vn -0.35637594 -0.63845919 0.68217743
vn -0.50616213 -0.53309684 0.67794370
vn -0.64331806 -0.36500904 0.67298608
vn -0.73122338 -0.13166360 0.66931088
vn -0.14912231 0.00000000 0.98881876
vn -0.15771506 -0.02969996 0.98703793
vn -0.00000425 -0.00001773 1.00000000
vn -0.14495247 -0.08595278 0.98569818
vn -0.12172362 -0.13393083 0.98348660
vn -0.09122619 -0.17086192 0.98106268
vn -0.05627533 -0.19558141 0.97907150
vn -0.01904817 -0.20797016 0.97794968
vn 0.00000000 -0.20313047 0.97915168
vn -0.35272970 -0.06514761 0.93345463
vn -0.34872591 0.00000000 0.93722475
vn -0.32443486 -0.18830353 0.92697562
vn -0.27312140 -0.29325575 0.91619090
vn -0.20523220 -0.37421117 0.90434824
vn -0.12661621 -0.42851582 0.89461865
vn -0.04270900 -0.45557082 0.88917443
vn 0.00000000 -0.45591801 0.89002178
vn -0.53237191 -0.09725686 0.84090502
vn -0.53323787 0.00000000 0.84596535
vn -0.48648847 -0.27949427 0.82777529
vn -0.40486018 -0.43095869 0.80645077
vn -0.30078442 -0.54337669 0.78375411
vn -0.18414078 -0.61644742 0.76556173
vn -0.06187856 -0.65194841 0.75573429
vn 0.00000000 -0.65558379 0.75512244
vn -0.68957772 -0.12520871 0.71330593
vn -0.69524657 0.00000000 0.71877132
vn -0.62439622 -0.35642047 0.69504951
vn -0.51231307 -0.54214074 0.66604710
vn -0.37503407 -0.67385743 0.63660475
vn -0.22724056 -0.75600138 0.61385963
vn -0.07595641 -0.79505577 0.60176153
vn 0.00000000 -0.80012048 0.59983932
vn -0.81796864 -0.14748531 0.55603542
vn -0.82782181 0.00000000 0.56099113
vn -0.73392916 -0.41698642 0.53616258
vn -0.59374184 -0.62569319 0.50594334
vn -0.42875523 -0.76751486 0.47653951
vn -0.25712954 -0.85283198 0.45449094
vn -0.08546802 -0.89251463 0.44284632
vn 0.00000000 -0.89778000 0.44044417
vn -0.46085019 -0.08098244 0.88377539
vn -0.51348142 0.00000000 0.85810071
vn -0.42149131 -0.23378045 0.87618022
vn -0.34952580 -0.36023971 0.86490408
vn -0.25753971 -0.45198895 0.85403705
vn -0.15640744 -0.50955027 0.84610592
vn -0.05227618 -0.53713611 0.84187410
vn 0.00000000 -0.56565978 0.82463872
vn 0.06912243 0.72400013 0.68632783
vn 0.00000000 0.70710678 0.70710678
vn 0.20992638 0.69772715 0.68491440
vn 0.35637594 0.63845919 0.68217743
vn 0.50616213 0.53309684 0.67794370
vn 0.64331806 0.36500904 0.67298608
vn 0.70710678 0.00000000 0.70710678
vn 0.73122338 0.13166360 0.66931088
vn -0.15772802 0.02978579 0.98703327
vn -0.14488710 0.08597942 0.98570547
vn -0.12168868 0.13392330 0.98349195
vn -0.09135442 0.17073736 0.98107243
vn -0.05651540 0.19559877 0.97905420
vn -0.01904579 0.20794878 0.97795427
vn 0.00000000 0.20310681 0.97915659
vn -0.35271896 0.06512153 0.93346051
vn -0.32446702 0.18820287 0.92698481
vn -0.27314001 0.29324988 0.91618723
vn -0.20499161 0.37425038 0.90438658
vn -0.12686088 0.42843700 0.89462174
vn -0.04293378 0.45558940 0.88915409
vn 0.00000000 0.45591801 0.89002178
vn -0.53238048 0.09729363 0.84089534
vn -0.48643814 0.27963883 0.82775604
vn -0.40491767 0.43097223 0.80641467
vn -0.30080366 0.54347528 0.78367836
vn -0.18416788 0.61636891 0.76561842
vn -0.06206106 0.65205657 0.75562600
vn 0.00000000 0.65576419 0.75496578
vn -0.68959811 0.12519666 0.71328833
vn -0.62444988 0.35643377 0.69499448
vn -0.51231333 0.54218601 0.66601004
vn -0.37511561 0.67389004 0.63652218
vn -0.22725616 0.75607159 0.61376737
vn -0.07597163 0.79519046 0.60158162
vn 0.00000000 0.80026378 0.59964813
vn -0.81794842 0.14745030 0.55607445
vn -0.73388032 0.41692956 0.53627364
vn -0.59368695 0.62560946 0.50611126
vn -0.42871020 0.76741101 0.47674722
vn -0.25706950 0.85282796 0.45453245
vn -0.08546802 0.89251463 0.44284632
vn 0.00000000 0.89778000 0.44044417
vn -0.46081263 0.08100249 0.88379314
vn -0.42139584 0.23375306 0.87623345
vn -0.34941037 0.36014459 0.86499033
vn -0.25739086 0.45184650 0.85415729
vn -0.15631438 0.50964517 0.84606596
vn -0.05227618 0.53713611 0.84187410
vn 0.00000000 0.56565978 0.82463872
vn 0.06925856 -0.72402383 0.68628911
vn 0.00000000 -0.70710678 0.70710678
vn 0.20991049 -0.69765761 0.68499011
vn 0.35627991 -0.63855211 0.68214063
vn 0.50616213 -0.53309684 0.67794370
vn 0.64335590 -0.36496916 0.67297154
vn 0.73122017 -0.13160856 0.66932522
vn 0.98418592 -0.17713857 0.00000000
vn 0.15771012 -0.02989242 0.98703291
vn 0.14910990 0.00000000 0.98882063
vn 0.14477064 -0.08611459 0.98571078
vn 0.12172362 -0.13393083 0.98348660
vn 0.09128239 -0.17078320 0.98107116
vn 0.05632600 -0.19558451 0.97906797
vn 0.01899644 -0.20795098 0.97795477
vn 0.35284930 -0.06516830 0.93340799
vn 0.34883882 0.00000000 0.93718274
vn 0.32443075 -0.18849697 0.92693774
vn 0.27299015 -0.29338146 0.91618977
vn 0.20529188 -0.37417910 0.90434797
vn 0.12673029 -0.42851646 0.89460219
vn 0.04272335 -0.45558279 0.88916761
vn 0.53231167 -0.09724839 0.84094413
vn 0.53319787 0.00000000 0.84599056
vn 0.48644146 -0.27947624 0.82780900
vn 0.40478526 -0.43093519 0.80650094
vn 0.30072162 -0.54334632 0.78379927
vn 0.18415577 -0.61646313 0.76554546
vn 0.06186462 -0.65195506 0.75572969
vn 0.68947210 -0.12518862 0.71341154
vn 0.69512598 0.00000000 0.71888794
vn 0.62437795 -0.35646114 0.69504506
vn 0.51230682 -0.54205890 0.66611851
vn 0.37493670 -0.67385213 0.63666771
vn 0.22720470 -0.75599493 0.61388084
vn 0.07600890 -0.79503567 0.60178146
vn 0.82795612 0.00000000 0.56079289
vn 0.81810206 -0.14772510 0.55577541
vn 0.73395574 -0.41696832 0.53614027
vn 0.59382382 -0.62556782 0.50600215
vn 0.42867988 -0.76756383 0.47652841
vn 0.25708852 -0.85282006 0.45453650
vn 0.08549572 -0.89250675 0.44285683
vn 0.51368688 0.00000000 0.85797773
vn 0.46101726 -0.08100529 0.88368616
vn 0.42138784 -0.23350422 0.87630364
vn 0.34952580 -0.36023971 0.86490408
vn 0.25751073 -0.45198649 0.85404709
vn 0.15641969 -0.50948728 0.84614159
vn 0.05227618 -0.53713611 0.84187410
vn -0.06914867 0.72400471 0.68632037
vn -0.20989361 0.69771456 0.68493728
vn -0.35633602 0.63849782 0.68216213
vn -0.50616213 0.53309684 0.67794370
vn -0.64331806 0.36500904 0.67298608
vn -0.70710678 0.00000000 0.70710678
vn -0.73122338 0.13166360 0.66931088
vn 0.15772306 0.02997891 0.98702822
vn 0.14470502 0.08614141 0.98571807
vn 0.12168868 0.13392330 0.98349195
vn 0.09141072 0.17065836 0.98108094
vn 0.05656650 0.19560179 0.97905065
vn 0.01899407 0.20792960 0.97795936
vn 0.35283854 0.06514220 0.93341387
vn 0.32446294 0.18839627 0.92694695
vn 0.27300882 0.29337554 0.91618610
vn 0.20505129 0.37421832 0.90438632
vn 0.12697493 0.42843769 0.89460523
vn 0.04294823 0.45560145 0.88914721
vn 0.53232022 0.09728515 0.84093447
vn 0.48639103 0.27962077 0.82778982
vn 0.40484282 0.43094871 0.80646482
vn 0.30074074 0.54344490 0.78372358
vn 0.18418292 0.61638465 0.76560212
vn 0.06204708 0.65206328 0.75562136
vn 0.68949248 0.12517659 0.71339396
vn 0.62443156 0.35647443 0.69499008
vn 0.51230709 0.54210416 0.66608147
vn 0.37501819 0.67388471 0.63658523
vn 0.22722029 0.75606514 0.61378859
vn 0.07602414 0.79517035 0.60160157
vn 0.81808182 0.14769001 0.55581454
vn 0.73390693 0.41691156 0.53625122
vn 0.59376893 0.62548408 0.50617006
vn 0.42863487 0.76745997 0.47673614
vn 0.25702851 0.85281605 0.45457797
vn 0.08549572 0.89250675 0.44285683
vn 0.46097966 0.08102534 0.88370394
vn 0.42129246 0.23347694 0.87635677
vn 0.34941037 0.36014459 0.86499033
vn 0.25736190 0.45184404 0.85416732
vn 0.15632663 0.50958223 0.84610161
vn 0.05227618 0.53713611 0.84187410
vn -0.06928485 -0.72402841 0.68628163
vn -0.20987780 -0.69764498 0.68501299
vn -0.35624001 -0.63859070 0.68212534
vn -0.50616213 -0.53309684 0.67794370
vn -0.64335590 -0.36496916 0.67297154
vn -0.73122017 -0.13160856 0.66932522
vn -0.98418592 -0.17713857 0.00000000
vn 0.00000000 -0.80322989 -0.59566915
vn 0.47200951 0.64987102 -0.59571360
vn 0.76396568 -0.24801794 -0.59568745
vn 0.00000000 0.70710678 -0.70710678
vn 0.00000000 0.70710678 -0.70710678
vn 0.29406897 0.40487934 -0.86579222
vn 0.47586482 -0.15448732 -0.86584430
vn 0.00000000 -0.50025049 -0.86588074
vn 0.00000000 -1.00000000 0.00000000
vn 0.00000000 -0.74692516 -0.66490811
vn 0.38518254 -0.74655502 0.54248504
vn 0.84859166 -0.52097621 -0.09206512
vn 0.41832458 -0.27552821 0.86549913
vn 0.38518254 0.74655502 0.54248504
vn 0.41832458 0.27552821 0.86549913
vn 0.56503450 -0.65331445 -0.50390102
vn 0.72039632 -0.04022304 -0.69239530
vn 1.00000000 0.00000000 0.00000000
vn 0.00000000 -0.79183173 -0.61073931
vn 0.00000000 -0.05799481 -0.99831688
vn 0.59207032 -0.49218645 0.63812635
vn 0.00000000 -0.61073931 0.79183173
vn 0.48333927 0.80067314 0.35398540
vn 0.00000000 0.21910451 0.97570140
vn 0.66095536 0.16442155 0.73219093
vn 0.00000000 0.98240112 0.18678340
vn 0.00000000 1.00000000 0.00000000
vn 0.67161463 0.42346906 0.60795374
vn 0.66305791 0.62376927 0.41384308
vn 0.00000000 0.57155984 0.82056039
vn 0.00000000 0.83328327 0.55284627
vn -0.47200951 0.64987102 -0.59571360
vn -0.76396568 -0.24801794 -0.59568745
vn -0.29406897 0.40487934 -0.86579222
vn -0.47586482 -0.15448732 -0.86584430
vn -0.41852432 -0.27567031 0.86535731
vn -0.38527077 -0.74652412 0.54246490
vn -0.84859166 -0.52097621 -0.09206512
vn -0.38527077 0.74652412 0.54246490
vn -0.41852432 0.27567031 0.86535731
vn -0.72039632 -0.04022304 -0.69239530
vn -0.56503450 -0.65331445 -0.50390102
vn -1.00000000 0.00000000 0.00000000
vn -0.59207032 -0.49218645 0.63812635
vn -0.48333927 0.80067314 0.35398540
vn -0.66095536 0.16442155 0.73219093
vn -0.67161463 0.42346906 0.60795374
vn -0.66305791 0.62376927 0.41384308
vn 0.00045388 -0.80313526 -0.59579657
vn 0.47265454 0.64950975 -0.59559614
vn 0.76362213 -0.24885794 -0.59577761
vn 0.00000000 0.70710678 -0.70710678
vn 0.00000000 0.70710678 -0.70710678
vn 0.29420056 0.40428286 -0.86602621
vn 0.47598574 -0.15511969 -0.86566475
vn 0.00028296 -0.50068931 -0.86562702
vn 0.00000000 -1.00000000 0.00000000
vn 0.00000000 -0.74692516 -0.66490811
vn 0.38527077 -0.74652412 0.54246490
vn 0.84859166 -0.52097621 -0.09206512
vn 0.41852432 -0.27567031 0.86535731
vn 0.38527077 0.74652412 0.54246490
vn 0.41852432 0.27567031 0.86535731
vn 0.56499591 -0.65355953 -0.50362642
vn 0.72039632 -0.04022304 -0.69239530
vn 1.00000000 0.00000000 0.00000000
vn 0.00000000 -0.79210340 -0.61038693
vn 0.00000000 -0.05799481 -0.99831688
vn 0.59212560 -0.49187768 0.63831311
vn 0.00000000 -0.61038693 0.79210340
vn 0.48333927 0.80067314 0.35398540
vn 0.00000000 0.21910451 0.97570140
vn 0.66095536 0.16442155 0.73219093
vn 0.00000000 0.98240112 0.18678340
vn 0.00000000 1.00000000 0.00000000
vn 0.67161463 0.42346906 0.60795374
vn 0.66305791 0.62376927 0.41384308
vn 0.00000000 0.57155984 0.82056039
vn 0.00000000 0.83328327 0.55284627
vn -0.47200951 0.64987102 -0.59571360
vn -0.76384298 -0.24863516 -0.59558749
vn -0.29406897 0.40487934 -0.86579222
vn -0.47541659 -0.15475076 -0.86604346
vn -0.41832458 -0.27552821 0.86549913
vn -0.38518254 -0.74655502 0.54248504
vn -0.84859166 -0.52097621 -0.09206512
vn -0.38518254 0.74655502 0.54248504
vn -0.41832458 0.27552821 0.86549913
vn -0.72039632 -0.04022304 -0.69239530
vn -0.56499591 -0.65355953 -0.50362642
vn -1.00000000 0.00000000 0.00000000
vn -0.59212560 -0.49187768 0.63831311
vn -0.48333927 0.80067314 0.35398540
vn -0.66095536 0.16442155 0.73219093
vn -0.67161463 0.42346906 0.60795374
vn -0.66305791 0.62376927 0.41384308
vn 0.57735027 -0.57735027 0.57735027
vn 0.57735027 0.57735027 0.57735027
vn -0.57735027 -0.57735027 0.57735027
vn -0.57735027 -0.57735027 -0.57735027
vn 0.57735027 -0.57735027 -0.57735027
vn 0.57735027 0.57735027 -0.57735027
vn 0.30151134 -0.90453403 0.30151134
vn -0.30151134 -0.90453403 -0.30151134
vn -0.30151134 -0.90453403 0.30151134
vn -0.30151134 -0.90453403 0.30151134
vn 0.30151134 -0.90453403 -0.30151134
vn 0.30151134 -0.90453403 -0.30151134
vn -0.30151134 -0.90453403 -0.30151134
vn 0.57735027 -0.57735027 -0.57735027
vn 0.30151134 -0.90453403 -0.30151134
vn -0.30151134 -0.90453403 0.30151134
vn 0.30151134 -0.90453403 0.30151134
vn 0.30151134 -0.90453403 0.30151134
vn -0.30151134 -0.90453403 0.30151134
vn -0.30151134 -0.90453403 -0.30151134
vn 0.00000000 0.00000000 -1.00000000
vn -0.30151134 -0.90453403 0.30151134
vn -0.30151134 -0.90453403 0.30151134
vn -0.30151134 -0.90453403 0.30151134
vn -0.30151134 -0.90453403 -0.30151134
vn -0.30151134 -0.90453403 0.30151134
vn 0.30151134 -0.90453403 -0.30151134
vn -0.30151134 -0.90453403 -0.30151134
vn 0.30151134 -0.90453403 -0.30151134
vn 0.30151134 -0.90453403 -0.30151134
vn 0.00000000 0.00000000 -1.00000000
vn -0.30151134 -0.90453403 0.30151134
vn -0.30151134 -0.90453403 -0.30151134
vn 0.57735027 -0.57735027 0.57735027
vn 0.57735027 -0.57735027 -0.57735027
vn -0.57735027 -0.57735027 0.57735027
vn -0.57735027 -0.57735027 -0.57735027
vn 0.57735027 -0.57735027 -0.57735027
vn 0.30151134 -0.90453403 0.30151134
vn -0.57735027 -0.57735027 0.57735027
vn -0.57735027 -0.57735027 -0.57735027
vn 0.00000000 -0.70710678 0.70710678
vn 0.30151134 -0.90453403 0.30151134
vn 0.30151134 -0.90453403 0.30151134
vn 0.30151134 -0.90453403 -0.30151134
vn 0.30151134 -0.90453403 0.30151134
vn 0.30151134 -0.90453403 -0.30151134
vn -0.30151134 -0.90453403 -0.30151134
vn 0.57735027 -0.57735027 -0.57735027
vn 0.00000000 -0.70710678 0.70710678
vn 0.30151134 -0.90453403 0.30151134
vn -0.30151134 -0.90453403 -0.30151134
vn -0.30151134 -0.90453403 -0.30151134
vn 0.30151134 -0.90453403 0.30151134
vn 0.30151134 -0.90453403 0.30151134
vn -0.30151134 -0.90453403 0.30151134
vn -0.30151134 -0.90453403 -0.30151134
vn 0.30151134 -0.90453403 -0.30151134
vn 0.30151134 -0.90453403 0.30151134
vn -1.00000000 0.00000000 0.00000000
vn -0.70710678 -0.70710678 0.00000000
vn -0.90453403 -0.30151134 -0.30151134
vn 0.90453403 -0.30151134 -0.30151134
vn 1.00000000 0.00000000 0.00000000
vn 0.70710678 -0.70710678 0.00000000
vn 0.57735027 -0.57735027 0.57735027
vn -0.57735027 -0.57735027 0.57735027
vn 0.57735027 -0.57735027 -0.57735027
vn -0.57735027 -0.57735027 -0.57735027
vn 0.57735027 -0.57735027 0.57735027
vn -0.57735027 -0.57735027 -0.57735027
vn 0.57735027 -0.57735027 -0.57735027
vn -0.57735027 -0.57735027 0.57735027
vn -0.30151134 -0.90453403 0.30151134
vn 0.30151134 -0.90453403 0.30151134
vn 0.57735027 -0.57735027 0.57735027
vn -0.57735027 -0.57735027 -0.57735027
vn 0.57735027 -0.57735027 -0.57735027
vn -0.57735027 -0.57735027 0.57735027
vn -0.30151134 -0.90453403 0.30151134
vn 0.30151134 -0.90453403 0.30151134
vn -0.30151134 -0.90453403 -0.30151134
vn 0.30151134 -0.90453403 -0.30151134
vn 0.00000000 -0.70710678 -0.70710678
vn 0.00000000 -0.70710678 -0.70710678
vn 0.00000000 -0.70710678 -0.70710678
vn -0.30151134 -0.90453403 -0.30151134
vn 0.30151134 -0.90453403 -0.30151134
vn 0.00000000 -0.70710678 -0.70710678
vn 0.00000000 -0.70710678 -0.70710678
vn 0.00000000 -0.70710678 0.70710678
vn 0.00000000 -0.70710678 0.70710678
vn 0.00000000 -0.70710678 0.70710678
vn -0.57735027 -0.57735027 0.57735027
vn 0.57735027 -0.57735027 -0.57735027
vn 0.57735027 -0.57735027 0.57735027
vn 0.00000000 -0.70710678 0.70710678
vn 0.00000000 -0.70710678 0.70710678
vn 0.57735027 -0.57735027 0.57735027
vn -0.57735027 -0.57735027 0.57735027
vn 0.57735027 -0.57735027 -0.57735027
vn -0.57735027 -0.57735027 -0.57735027
vn 0.57735027 -0.57735027 0.57735027
vn -0.57735027 -0.57735027 0.57735027
vn 0.57735027 -0.57735027 -0.57735027
vn -0.57735027 -0.57735027 -0.57735027
vn 0.57735027 -0.57735027 0.57735027
vn -0.57735027 -0.57735027 0.57735027
vn 0.57735027 -0.57735027 -0.57735027
vn -0.57735027 -0.57735027 -0.57735027
vn -0.57735027 -0.57735027 -0.57735027
vn 0.57735027 -0.57735027 -0.57735027
vn -0.57735027 -0.57735027 0.57735027
vn 0.57735027 -0.57735027 0.57735027
vn 0.57735027 -0.57735027 0.57735027
vn -0.57735027 -0.57735027 -0.57735027
vn 0.57735027 -0.57735027 -0.57735027
vn -0.57735027 -0.57735027 0.57735027
vn -0.30151134 -0.90453403 0.30151134
vn 0.30151134 -0.90453403 0.30151134
vn 0.57735027 -0.57735027 0.57735027
vn -0.57735027 -0.57735027 -0.57735027
vn 0.57735027 -0.57735027 -0.57735027
vn -0.57735027 -0.57735027 0.57735027
vn -0.30151134 -0.90453403 0.30151134
vn 0.30151134 -0.90453403 0.30151134
vn -0.30151134 -0.90453403 -0.30151134
vn 0.30151134 -0.90453403 -0.30151134
vn 0.00000000 -0.70710678 -0.70710678
vn 0.00000000 -0.70710678 -0.70710678
vn 0.57735027 -0.57735027 -0.57735027
vn 0.00000000 -0.70710678 -0.70710678
vn -0.30151134 -0.90453403 -0.30151134
vn 0.30151134 -0.90453403 -0.30151134
vn 0.00000000 -0.70710678 -0.70710678
vn 0.00000000 -0.70710678 -0.70710678
vn -0.57735027 -0.57735027 -0.57735027
vn 0.57735027 -0.57735027 0.57735027
vn 0.00000000 -0.70710678 0.70710678
vn 0.00000000 -0.70710678 0.70710678
vn 0.00000000 -0.70710678 0.70710678
vn 0.00000000 -0.70710678 0.70710678
vn 0.00000000 -0.70710678 0.70710678
vn -0.57735027 -0.57735027 0.57735027
vn 0.57735027 -0.57735027 0.57735027
vn 0.57735027 -0.57735027 -0.57735027
vn -0.57735027 -0.57735027 -0.57735027
vn -0.57735027 -0.57735027 0.57735027
vn 0.57735027 -0.57735027 0.57735027
vn -0.57735027 -0.57735027 0.57735027
vn 0.57735027 -0.57735027 -0.57735027
vn -0.57735027 -0.57735027 -0.57735027
vn 0.57735027 -0.57735027 0.57735027
vn -0.57735027 -0.57735027 0.57735027
vn 0.57735027 -0.57735027 -0.57735027
vn -0.57735027 -0.57735027 -0.57735027
vn -0.57735027 -0.57735027 -0.57735027
vn 0.57735027 -0.57735027 -0.57735027
vn -0.57735027 -0.57735027 0.57735027
vn 0.57735027 -0.57735027 0.57735027
vn -0.57735027 -0.57735027 -0.57735027
vn 0.57735027 -0.57735027 -0.57735027
vn -0.57735027 -0.57735027 0.57735027
vn 0.57735027 -0.57735027 0.57735027
vn -0.57735027 -0.57735027 -0.57735027
vn 0.57735027 -0.57735027 -0.57735027
vn -0.57735027 -0.57735027 0.57735027
vn 0.57735027 -0.57735027 0.57735027
f 1//1 2//2 3//3
f 2//2 1//1 4//4
f 5//5 1//1 6//6
f 3//3 6//6 1//1
f 7//7 8//8 9//9
f 8//8 7//7 10//10
f 11//11 7//7 12//12
f 9//9 12//12 7//7
f 13//13 14//14 15//15
f 14//14 13//13 16//16
f 17//17 18//18 19//19
f 18//18 17//17 20//20
f 18//18 21//21 22//22
f 21//21 18//18 20//20
f 17//17 23//23 24//24
f 23//23 17//17 19//19
f 21//21 23//23 22//22
f 23//23 21//21 24//24
f 25//25 26//26 27//27
f 28//28 29//29 30//30
f 31//31 28//28 32//32
f 31//31 33//33 28//28
f 31//31 34//34 33//33
f 31//31 35//35 34//34
f 31//31 36//36 35//35
f 31//31 37//37 36//36
f 31//31 38//38 37//37
f 31//31 39//39 38//38
f 40//40 25//25 41//41
f 42//42 25//25 40//40
f 43//43 25//25 42//42
f 44//44 25//25 43//43
f 45//45 25//25 44//44
f 45//45 46//46 25//25
f 45//45 47//47 46//46
f 39//39 47//47 45//45
f 31//31 47//47 39//39
f 31//31 48//48 47//47
f 31//31 49//49 48//48
f 31//31 50//50 49//49
f 31//31 51//51 50//50
f 31//31 52//52 51//51
f 53//53 54//54 55//55
f 56//56 54//54 53//53
f 57//57 54//54 56//56
f 58//58 54//54 57//57
f 59//59 54//54 58//58
f 52//52 54//54 59//59
f 54//54 52//52 31//31
f 30//30 32//32 28//28
f 60//60 32//32 30//30
f 61//61 32//32 60//60
f 62//62 32//32 61//61
f 63//63 32//32 62//62
f 64//64 32//32 63//63
f 65//65 32//32 64//64
f 66//66 32//32 65//65
f 25//25 67//67 41//41
f 25//25 68//68 67//67
f 25//25 69//69 68//68
f 25//25 70//70 69//69
f 27//27 70//70 25//25
f 71//71 70//70 27//27
f 71//71 66//66 70//70
f 71//71 32//32 66//66
f 72//72 32//32 71//71
f 73//73 32//32 72//72
f 74//74 32//32 73//73
f 75//75 32//32 74//74
f 76//76 32//32 75//75
f 77//77 32//32 76//76
f 54//54 78//78 55//55
f 54//54 79//79 78//78
f 77//77 80//80 32//32
f 81//81 80//80 77//77
f 82//82 80//80 81//81
f 79//79 80//80 82//82
f 80//80 79//79 54//54
f 83//83 40//40 41//41
f 84//84 53//53 55//55
f 85//85 32//32 80//80
f 32//32 85//85 86//86
f 87//87 54//54 31//31
f 54//54 87//87 88//88
f 87//87 32//32 86//86
f 32//32 87//87 31//31
f 89//89 90//90 91//91
f 90//90 92//92 91//91
f 92//92 93//93 91//91
f 93//93 94//94 91//91
f 94//94 95//95 91//91
f 95//95 96//96 91//91
f 96//96 97//97 91//91
f 98//98 89//89 99//99
f 89//89 98//98 90//90
f 100//100 90//90 98//98
f 90//90 100//100 92//92
f 101//101 92//92 100//100
f 92//92 101//101 93//93
f 102//102 93//93 101//101
f 93//93 102//102 94//94
f 103//103 94//94 102//102
f 94//94 103//103 95//95
f 104//104 95//95 103//103
f 95//95 104//104 96//96
f 104//104 97//97 96//96
f 97//97 104//104 105//105
f 106//106 99//99 107//107
f 99//99 106//106 98//98
f 108//108 98//98 106//106
f 98//98 108//108 100//100
f 109//109 100//100 108//108
f 100//100 109//109 101//101
f 110//110 101//101 109//109
f 101//101 110//110 102//102
f 111//111 102//102 110//110
f 102//102 111//111 103//103
f 112//112 103//103 111//111
f 103//103 112//112 104//104
f 112//112 105//105 104//104
f 105//105 112//112 113//113
f 114//114 107//107 115//115
f 107//107 114//114 106//106
f 116//116 106//106 114//114
f 106//106 116//116 108//108
f 117//117 108//108 116//116
f 108//108 117//117 109//109
f 118//118 109//109 117//117
f 109//109 118//118 110//110
f 119//119 110//110 118//118
f 110//110 119//119 111//111
f 112//112 119//119 120//120
f 119//119 112//112 111//111
f 113//113 120//120 121//121
f 120//120 113//113 112//112
f 115//115 122//122 114//114
f 122//122 115//115 123//123
f 116//116 122//122 124//124
f 122//122 116//116 114//114
f 117//117 124//124 125//125
f 124//124 117//117 116//116
f 118//118 125//125 126//126
f 125//125 118//118 117//117
f 119//119 126//126 127//127
f 126//126 119//119 118//118
f 120//120 127//127 128//128
f 127//127 120//120 119//119
f 121//121 128//128 129//129
f 128//128 121//121 120//120
f 123//123 130//130 122//122
f 130//130 123//123 131//131
f 124//124 130//130 132//132
f 130//130 124//124 122//122
f 125//125 132//132 133//133
f 132//132 125//125 124//124
f 126//126 133//133 134//134
f 133//133 126//126 125//125
f 127//127 134//134 135//135
f 134//134 127//127 126//126
f 128//128 135//135 136//136
f 135//135 128//128 127//127
f 129//129 136//136 137//137
f 136//136 129//129 128//128
f 138//138 65//65 139//139
f 65//65 138//138 64//64
f 63//63 138//138 140//140
f 138//138 63//63 64//64
f 62//62 140//140 141//141
f 140//140 62//62 63//63
f 61//61 141//141 142//142
f 141//141 61//61 62//62
f 143//143 61//61 142//142
f 61//61 143//143 60//60
f 143//143 144//144 145//145
f 143//143 131//131 144//144
f 143//143 130//130 131//131
f 142//142 130//130 143//143
f 142//142 132//132 130//130
f 142//142 133//133 132//132
f 141//141 133//133 142//142
f 141//141 134//134 133//133
f 140//140 134//134 141//141
f 140//140 135//135 134//134
f 138//138 135//135 140//140
f 138//138 136//136 135//135
f 139//139 136//136 138//138
f 136//136 139//139 137//137
f 145//145 60//60 143//143
f 60//60 145//145 30//30
f 145//145 29//29 30//30
f 29//29 145//145 144//144
f 91//91 146//146 89//89
f 91//91 147//147 146//146
f 91//91 148//148 147//147
f 91//91 149//149 148//148
f 91//91 150//150 149//149
f 91//91 151//151 150//150
f 91//91 152//152 151//151
f 146//146 153//153 89//89
f 99//99 89//89 153//153
f 147//147 154//154 146//146
f 153//153 146//146 154//154
f 148//148 155//155 147//147
f 154//154 147//147 155//155
f 149//149 156//156 148//148
f 155//155 148//148 156//156
f 150//150 157//157 149//149
f 156//156 149//149 157//157
f 151//151 158//158 150//150
f 157//157 150//150 158//158
f 159//159 158//158 152//152
f 151//151 152//152 158//158
f 153//153 160//160 99//99
f 107//107 99//99 160//160
f 154//154 161//161 153//153
f 160//160 153//153 161//161
f 155//155 162//162 154//154
f 161//161 154//154 162//162
f 156//156 163//163 155//155
f 162//162 155//155 163//163
f 157//157 164//164 156//156
f 163//163 156//156 164//164
f 158//158 165//165 157//157
f 164//164 157//157 165//165
f 166//166 165//165 159//159
f 158//158 159//159 165//165
f 160//160 167//167 107//107
f 115//115 107//107 167//167
f 161//161 168//168 160//160
f 167//167 160//160 168//168
f 162//162 169//169 161//161
f 168//168 161//161 169//169
f 163//163 170//170 162//162
f 169//169 162//162 170//170
f 164//164 171//171 163//163
f 170//170 163//163 171//171
f 164//164 165//165 171//171
f 172//172 171//171 165//165
f 165//165 166//166 172//172
f 173//173 172//172 166//166
f 123//123 115//115 174//174
f 167//167 174//174 115//115
f 167//167 168//168 174//174
f 175//175 174//174 168//168
f 168//168 169//169 175//175
f 176//176 175//175 169//169
f 169//169 170//170 176//176
f 177//177 176//176 170//170
f 170//170 171//171 177//177
f 178//178 177//177 171//171
f 171//171 172//172 178//178
f 179//179 178//178 172//172
f 172//172 173//173 179//179
f 180//180 179//179 173//173
f 131//131 123//123 181//181
f 174//174 181//181 123//123
f 174//174 175//175 181//181
f 182//182 181//181 175//175
f 175//175 176//176 182//182
f 183//183 182//182 176//176
f 176//176 177//177 183//183
f 184//184 183//183 177//177
f 177//177 178//178 184//184
f 185//185 184//184 178//178
f 178//178 179//179 185//185
f 186//186 185//185 179//179
f 179//179 180//180 186//186
f 187//187 186//186 180//180
f 37//37 188//188 38//38
f 189//189 38//38 188//188
f 37//37 36//36 188//188
f 190//190 188//188 36//36
f 36//36 35//35 190//190
f 191//191 190//190 35//35
f 35//35 34//34 191//191
f 192//192 191//191 34//34
f 33//33 193//193 34//34
f 192//192 34//34 193//193
f 187//187 189//189 186//186
f 188//188 186//186 189//189
f 185//185 186//186 188//188
f 190//190 185//185 188//188
f 184//184 185//185 190//190
f 191//191 184//184 190//190
f 183//183 184//184 191//191
f 192//192 183//183 191//191
f 182//182 183//183 192//192
f 181//181 182//182 192//192
f 193//193 181//181 192//192
f 131//131 181//181 193//193
f 144//144 131//131 193//193
f 194//194 144//144 193//193
f 28//28 194//194 33//33
f 193//193 33//33 194//194
f 144//144 194//194 29//29
f 28//28 29//29 194//194
f 91//91 195//195 196//196
f 91//91 197//197 195//195
f 91//91 198//198 197//197
f 91//91 199//199 198//198
f 91//91 200//200 199//199
f 91//91 201//201 200//200
f 91//91 97//97 201//201
f 195//195 202//202 196//196
f 203//203 196//196 202//202
f 197//197 204//204 195//195
f 202//202 195//195 204//204
f 198//198 205//205 197//197
f 204//204 197//197 205//205
f 199//199 206//206 198//198
f 205//205 198//198 206//206
f 200//200 207//207 199//199
f 206//206 199//199 207//207
f 201//201 208//208 200//200
f 207//207 200//200 208//208
f 105//105 208//208 97//97
f 201//201 97//97 208//208
f 202//202 209//209 203//203
f 210//210 203//203 209//209
f 204//204 211//211 202//202
f 209//209 202//202 211//211
f 205//205 212//212 204//204
f 211//211 204//204 212//212
f 206//206 213//213 205//205
f 212//212 205//205 213//213
f 207//207 214//214 206//206
f 213//213 206//206 214//214
f 208//208 215//215 207//207
f 214//214 207//207 215//215
f 113//113 215//215 105//105
f 208//208 105//105 215//215
f 209//209 216//216 210//210
f 217//217 210//210 216//216
f 211//211 218//218 209//209
f 216//216 209//209 218//218
f 212//212 219//219 211//211
f 218//218 211//211 219//219
f 213//213 220//220 212//212
f 219//219 212//212 220//220
f 214//214 221//221 213//213
f 220//220 213//213 221//221
f 214//214 215//215 221//221
f 222//222 221//221 215//215
f 215//215 113//113 222//222
f 121//121 222//222 113//113
f 223//223 217//217 224//224
f 216//216 224//224 217//217
f 216//216 218//218 224//224
f 225//225 224//224 218//218
f 218//218 219//219 225//225
f 226//226 225//225 219//219
f 219//219 220//220 226//226
f 227//227 226//226 220//220
f 220//220 221//221 227//227
f 228//228 227//227 221//221
f 221//221 222//222 228//228
f 229//229 228//228 222//222
f 222//222 121//121 229//229
f 129//129 229//229 121//121
f 230//230 223//223 231//231
f 224//224 231//231 223//223
f 224//224 225//225 231//231
f 232//232 231//231 225//225
f 225//225 226//226 232//232
f 233//233 232//232 226//226
f 226//226 227//227 233//233
f 234//234 233//233 227//227
f 227//227 228//228 234//234
f 235//235 234//234 228//228
f 228//228 229//229 235//235
f 236//236 235//235 229//229
f 229//229 129//129 236//236
f 137//137 236//236 129//129
f 66//66 237//237 65//65
f 139//139 65//65 237//237
f 66//66 70//70 237//237
f 238//238 237//237 70//70
f 70//70 69//69 238//238
f 239//239 238//238 69//69
f 69//69 68//68 239//239
f 240//240 239//239 68//68
f 67//67 241//241 68//68
f 240//240 68//68 241//241
f 137//137 139//139 236//236
f 237//237 236//236 139//139
f 235//235 236//236 237//237
f 238//238 235//235 237//237
f 234//234 235//235 238//238
f 239//239 234//234 238//238
f 233//233 234//234 239//239
f 240//240 233//233 239//239
f 232//232 233//233 240//240
f 231//231 232//232 240//240
f 241//241 231//231 240//240
f 230//230 231//231 241//241
f 242//242 230//230 241//241
f 243//243 242//242 241//241
f 41//41 243//243 67//67
f 241//241 67//67 243//243
f 242//242 243//243 83//83
f 41//41 83//83 243//243
f 196//196 244//244 91//91
f 244//244 245//245 91//91
f 245//245 246//246 91//91
f 246//246 247//247 91//91
f 247//247 248//248 91//91
f 248//248 249//249 91//91
f 249//249 152//152 91//91
f 250//250 196//196 203//203
f 196//196 250//250 244//244
f 251//251 244//244 250//250
f 244//244 251//251 245//245
f 252//252 245//245 251//251
f 245//245 252//252 246//246
f 253//253 246//246 252//252
f 246//246 253//253 247//247
f 254//254 247//247 253//253
f 247//247 254//254 248//248
f 255//255 248//248 254//254
f 248//248 255//255 249//249
f 255//255 152//152 249//249
f 152//152 255//255 159//159
f 256//256 203//203 210//210
f 203//203 256//256 250//250
f 257//257 250//250 256//256
f 250//250 257//257 251//251
f 258//258 251//251 257//257
f 251//251 258//258 252//252
f 259//259 252//252 258//258
f 252//252 259//259 253//253
f 260//260 253//253 259//259
f 253//253 260//260 254//254
f 261//261 254//254 260//260
f 254//254 261//261 255//255
f 261//261 159//159 255//255
f 159//159 261//261 166//166
f 262//262 210//210 217//217
f 210//210 262//262 256//256
f 263//263 256//256 262//262
f 256//256 263//263 257//257
f 264//264 257//257 263//263
f 257//257 264//264 258//258
f 265//265 258//258 264//264
f 258//258 265//265 259//259
f 266//266 259//259 265//265
f 259//259 266//266 260//260
f 261//261 266//266 267//267
f 266//266 261//261 260//260
f 166//166 267//267 173//173
f 267//267 166//166 261//261
f 217//217 268//268 262//262
f 268//268 217//217 223//223
f 263//263 268//268 269//269
f 268//268 263//263 262//262
f 264//264 269//269 270//270
f 269//269 264//264 263//263
f 265//265 270//270 271//271
f 270//270 265//265 264//264
f 266//266 271//271 272//272
f 271//271 266//266 265//265
f 267//267 272//272 273//273
f 272//272 267//267 266//266
f 173//173 273//273 180//180
f 273//273 173//173 267//267
f 223//223 274//274 268//268
f 274//274 223//223 230//230
f 269//269 274//274 275//275
f 274//274 269//269 268//268
f 270//270 275//275 276//276
f 275//275 270//270 269//269
f 271//271 276//276 277//277
f 276//276 271//271 270//270
f 272//272 277//277 278//278
f 277//277 272//272 271//271
f 273//273 278//278 279//279
f 278//278 273//273 272//272
f 180//180 279//279 187//187
f 279//279 180//180 273//273
f 280//280 38//38 189//189
f 38//38 280//280 39//39
f 45//45 280//280 281//281
f 280//280 45//45 39//39
f 44//44 281//281 282//282
f 281//281 44//44 45//45
f 43//43 282//282 283//283
f 282//282 43//43 44//44
f 284//284 43//43 283//283
f 43//43 284//284 42//42
f 284//284 242//242 285//285
f 284//284 230//230 242//242
f 284//284 274//274 230//230
f 283//283 274//274 284//284
f 283//283 275//275 274//274
f 283//283 276//276 275//275
f 282//282 276//276 283//283
f 282//282 277//277 276//276
f 281//281 277//277 282//282
f 281//281 278//278 277//277
f 280//280 278//278 281//281
f 280//280 279//279 278//278
f 189//189 279//279 280//280
f 279//279 189//189 187//187
f 285//285 42//42 284//284
f 42//42 285//285 40//40
f 285//285 83//83 40//40
f 83//83 285//285 242//242
f 286//286 287//287 288//288
f 287//287 289//289 288//288
f 289//289 290//290 288//288
f 290//290 291//291 288//288
f 291//291 292//292 288//288
f 292//292 293//293 288//288
f 293//293 294//294 288//288
f 295//295 286//286 296//296
f 286//286 295//295 287//287
f 297//297 287//287 295//295
f 287//287 297//297 289//289
f 298//298 289//289 297//297
f 289//289 298//298 290//290
f 299//299 290//290 298//298
f 290//290 299//299 291//291
f 300//300 291//291 299//299
f 291//291 300//300 292//292
f 301//301 292//292 300//300
f 292//292 301//301 293//293
f 301//301 294//294 293//293
f 294//294 301//301 302//302
f 303//303 296//296 304//304
f 296//296 303//303 295//295
f 305//305 295//295 303//303
f 295//295 305//305 297//297
f 306//306 297//297 305//305
f 297//297 306//306 298//298
f 307//307 298//298 306//306
f 298//298 307//307 299//299
f 308//308 299//299 307//307
f 299//299 308//308 300//300
f 309//309 300//300 308//308
f 300//300 309//309 301//301
f 309//309 302//302 301//301
f 302//302 309//309 310//310
f 311//311 304//304 312//312
f 304//304 311//311 303//303
f 313//313 303//303 311//311
f 303//303 313//313 305//305
f 314//314 305//305 313//313
f 305//305 314//314 306//306
f 315//315 306//306 314//314
f 306//306 315//315 307//307
f 316//316 307//307 315//315
f 307//307 316//316 308//308
f 309//309 316//316 317//317
f 316//316 309//309 308//308
f 310//310 317//317 318//318
f 317//317 310//310 309//309
f 312//312 319//319 311//311
f 319//319 312//312 320//320
f 313//313 319//319 321//321
f 319//319 313//313 311//311
f 314//314 321//321 322//322
f 321//321 314//314 313//313
f 315//315 322//322 323//323
f 322//322 315//315 314//314
f 316//316 323//323 324//324
f 323//323 316//316 315//315
f 317//317 324//324 325//325
f 324//324 317//317 316//316
f 318//318 325//325 326//326
f 325//325 318//318 317//317
f 320//320 327//327 319//319
f 327//327 320//320 328//328
f 321//321 327//327 329//329
f 327//327 321//321 319//319
f 322//322 329//329 330//330
f 329//329 322//322 321//321
f 323//323 330//330 331//331
f 330//330 323//323 322//322
f 324//324 331//331 332//332
f 331//331 324//324 323//323
f 325//325 332//332 333//333
f 332//332 325//325 324//324
f 326//326 333//333 334//334
f 333//333 326//326 325//325
f 335//335 76//76 336//336
f 76//76 335//335 75//75
f 74//74 335//335 337//337
f 335//335 74//74 75//75
f 73//73 337//337 338//338
f 337//337 73//73 74//74
f 72//72 338//338 339//339
f 338//338 72//72 73//73
f 340//340 72//72 339//339
f 72//72 340//340 71//71
f 340//340 341//341 342//342
f 340//340 328//328 341//341
f 340//340 327//327 328//328
f 339//339 327//327 340//340
f 339//339 329//329 327//327
f 339//339 330//330 329//329
f 338//338 330//330 339//339
f 338//338 331//331 330//330
f 337//337 331//331 338//338
f 337//337 332//332 331//331
f 335//335 332//332 337//337
f 335//335 333//333 332//332
f 336//336 333//333 335//335
f 333//333 336//336 334//334
f 342//342 71//71 340//340
f 71//71 342//342 27//27
f 342//342 26//26 27//27
f 26//26 342//342 341//341
f 288//288 343//343 286//286
f 288//288 344//344 343//343
f 288//288 345//345 344//344
f 288//288 346//346 345//345
f 288//288 347//347 346//346
f 288//288 348//348 347//347
f 288//288 349//349 348//348
f 343//343 350//350 286//286
f 296//296 286//286 350//350
f 344//344 351//351 343//343
f 350//350 343//343 351//351
f 345//345 352//352 344//344
f 351//351 344//344 352//352
f 346//346 353//353 345//345
f 352//352 345//345 353//353
f 347//347 354//354 346//346
f 353//353 346//346 354//354
f 348//348 355//355 347//347
f 354//354 347//347 355//355
f 356//356 355//355 349//349
f 348//348 349//349 355//355
f 350//350 357//357 296//296
f 304//304 296//296 357//357
f 351//351 358//358 350//350
f 357//357 350//350 358//358
f 352//352 359//359 351//351
f 358//358 351//351 359//359
f 353//353 360//360 352//352
f 359//359 352//352 360//360
f 354//354 361//361 353//353
f 360//360 353//353 361//361
f 355//355 362//362 354//354
f 361//361 354//354 362//362
f 363//363 362//362 356//356
f 355//355 356//356 362//362
f 357//357 364//364 304//304
f 312//312 304//304 364//364
f 358//358 365//365 357//357
f 364//364 357//357 365//365
f 359//359 366//366 358//358
f 365//365 358//358 366//366
f 360//360 367//367 359//359
f 366//366 359//359 367//367
f 361//361 368//368 360//360
f 367//367 360//360 368//368
f 361//361 362//362 368//368
f 369//369 368//368 362//362
f 362//362 363//363 369//369
f 370//370 369//369 363//363
f 320//320 312//312 371//371
f 364//364 371//371 312//312
f 364//364 365//365 371//371
f 372//372 371//371 365//365
f 365//365 366//366 372//372
f 373//373 372//372 366//366
f 366//366 367//367 373//373
f 374//374 373//373 367//367
f 367//367 368//368 374//374
f 375//375 374//374 368//368
f 368//368 369//369 375//375
f 376//376 375//375 369//369
f 369//369 370//370 376//376
f 377//377 376//376 370//370
f 328//328 320//320 378//378
f 371//371 378//378 320//320
f 371//371 372//372 378//378
f 379//379 378//378 372//372
f 372//372 373//373 379//379
f 380//380 379//379 373//373
f 373//373 374//374 380//380
f 381//381 380//380 374//374
f 374//374 375//375 381//381
f 382//382 381//381 375//375
f 375//375 376//376 382//382
f 383//383 382//382 376//376
f 376//376 377//377 383//383
f 384//384 383//383 377//377
f 50//50 385//385 51//51
f 386//386 51//51 385//385
f 50//50 49//49 385//385
f 387//387 385//385 49//49
f 49//49 48//48 387//387
f 388//388 387//387 48//48
f 48//48 47//47 388//388
f 389//389 388//388 47//47
f 46//46 390//390 47//47
f 389//389 47//47 390//390
f 384//384 386//386 383//383
f 385//385 383//383 386//386
f 382//382 383//383 385//385
f 387//387 382//382 385//385
f 381//381 382//382 387//387
f 388//388 381//381 387//387
f 380//380 381//381 388//388
f 389//389 380//380 388//388
f 379//379 380//380 389//389
f 378//378 379//379 389//389
f 390//390 378//378 389//389
f 328//328 378//378 390//390
f 341//341 328//328 390//390
f 391//391 341//341 390//390
f 392//392 391//391 46//46
f 390//390 46//46 391//391
f 341//341 391//391 26//26
f 392//392 26//26 391//391
f 288//288 393//393 394//394
f 288//288 395//395 393//393
f 288//288 396//396 395//395
f 288//288 397//397 396//396
f 288//288 398//398 397//397
f 288//288 399//399 398//398
f 288//288 294//294 399//399
f 393//393 400//400 394//394
f 401//401 394//394 400//400
f 395//395 402//402 393//393
f 400//400 393//393 402//402
f 396//396 403//403 395//395
f 402//402 395//395 403//403
f 397//397 404//404 396//396
f 403//403 396//396 404//404
f 398//398 405//405 397//397
f 404//404 397//397 405//405
f 399//399 406//406 398//398
f 405//405 398//398 406//406
f 302//302 406//406 294//294
f 399//399 294//294 406//406
f 400//400 407//407 401//401
f 408//408 401//401 407//407
f 402//402 409//409 400//400
f 407//407 400//400 409//409
f 403//403 410//410 402//402
f 409//409 402//402 410//410
f 404//404 411//411 403//403
f 410//410 403//403 411//411
f 405//405 412//412 404//404
f 411//411 404//404 412//412
f 406//406 413//413 405//405
f 412//412 405//405 413//413
f 310//310 413//413 302//302
f 406//406 302//302 413//413
f 407//407 414//414 408//408
f 415//415 408//408 414//414
f 409//409 416//416 407//407
f 414//414 407//407 416//416
f 410//410 417//417 409//409
f 416//416 409//409 417//417
f 411//411 418//418 410//410
f 417//417 410//410 418//418
f 412//412 419//419 411//411
f 418//418 411//411 419//419
f 412//412 413//413 419//419
f 420//420 419//419 413//413
f 413//413 310//310 420//420
f 318//318 420//420 310//310
f 421//421 415//415 422//422
f 414//414 422//422 415//415
f 414//414 416//416 422//422
f 423//423 422//422 416//416
f 416//416 417//417 423//423
f 424//424 423//423 417//417
f 417//417 418//418 424//424
f 425//425 424//424 418//418
f 418//418 419//419 425//425
f 426//426 425//425 419//419
f 419//419 420//420 426//426
f 427//427 426//426 420//420
f 420//420 318//318 427//427
f 326//326 427//427 318//318
f 428//428 421//421 429//429
f 422//422 429//429 421//421
f 422//422 423//423 429//429
f 430//430 429//429 423//423
f 423//423 424//424 430//430
f 431//431 430//430 424//424
f 424//424 425//425 431//431
f 432//432 431//431 425//425
f 425//425 426//426 432//432
f 433//433 432//432 426//426
f 426//426 427//427 433//433
f 434//434 433//433 427//427
f 427//427 326//326 434//434
f 334//334 434//434 326//326
f 77//77 435//435 76//76
f 336//336 76//76 435//435
f 77//77 81//81 435//435
f 436//436 435//435 81//81
f 81//81 82//82 436//436
f 437//437 436//436 82//82
f 82//82 79//79 437//437
f 438//438 437//437 79//79
f 78//78 439//439 79//79
f 438//438 79//79 439//439
f 334//334 336//336 434//434
f 435//435 434//434 336//336
f 433//433 434//434 435//435
f 436//436 433//433 435//435
f 432//432 433//433 436//436
f 437//437 432//432 436//436
f 431//431 432//432 437//437
f 438//438 431//431 437//437
f 430//430 431//431 438//438
f 429//429 430//430 438//438
f 439//439 429//429 438//438
f 428//428 429//429 439//439
f 440//440 428//428 439//439
f 441//441 440//440 439//439
f 55//55 441//441 78//78
f 439//439 78//78 441//441
f 440//440 441//441 84//84
f 55//55 84//84 441//441
f 394//394 442//442 288//288
f 442//442 443//443 288//288
f 443//443 444//444 288//288
f 444//444 445//445 288//288
f 445//445 446//446 288//288
f 446//446 447//447 288//288
f 447//447 349//349 288//288
f 448//448 394//394 401//401
f 394//394 448//448 442//442
f 449//449 442//442 448//448
f 442//442 449//449 443//443
f 450//450 443//443 449//449
f 443//443 450//450 444//444
f 451//451 444//444 450//450
f 444//444 451//451 445//445
f 452//452 445//445 451//451
f 445//445 452//452 446//446
f 453//453 446//446 452//452
f 446//446 453//453 447//447
f 453//453 349//349 447//447
f 349//349 453//453 356//356
f 454//454 401//401 408//408
f 401//401 454//454 448//448
f 455//455 448//448 454//454
f 448//448 455//455 449//449
f 456//456 449//449 455//455
f 449//449 456//456 450//450
f 457//457 450//450 456//456
f 450//450 457//457 451//451
f 458//458 451//451 457//457
f 451//451 458//458 452//452
f 459//459 452//452 458//458
f 452//452 459//459 453//453
f 459//459 356//356 453//453
f 356//356 459//459 363//363
f 460//460 408//408 415//415
f 408//408 460//460 454//454
f 461//461 454//454 460//460
f 454//454 461//461 455//455
f 462//462 455//455 461//461
f 455//455 462//462 456//456
f 463//463 456//456 462//462
f 456//456 463//463 457//457
f 464//464 457//457 463//463
f 457//457 464//464 458//458
f 459//459 464//464 465//465
f 464//464 459//459 458//458
f 363//363 465//465 370//370
f 465//465 363//363 459//459
f 415//415 466//466 460//460
f 466//466 415//415 421//421
f 461//461 466//466 467//467
f 466//466 461//461 460//460
f 462//462 467//467 468//468
f 467//467 462//462 461//461
f 463//463 468//468 469//469
f 468//468 463//463 462//462
f 464//464 469//469 470//470
f 469//469 464//464 463//463
f 465//465 470//470 471//471
f 470//470 465//465 464//464
f 370//370 471//471 377//377
f 471//471 370//370 465//465
f 421//421 472//472 466//466
f 472//472 421//421 428//428
f 467//467 472//472 473//473
f 472//472 467//467 466//466
f 468//468 473//473 474//474
f 473//473 468//468 467//467
f 469//469 474//474 475//475
f 474//474 469//469 468//468
f 470//470 475//475 476//476
f 475//475 470//470 469//469
f 471//471 476//476 477//477
f 476//476 471//471 470//470
f 377//377 477//477 384//384
f 477//477 377//377 471//471
f 478//478 51//51 386//386
f 51//51 478//478 52//52
f 59//59 478//478 479//479
f 478//478 59//59 52//52
f 58//58 479//479 480//480
f 479//479 58//58 59//59
f 57//57 480//480 481//481
f 480//480 57//57 58//58
f 482//482 57//57 481//481
f 57//57 482//482 56//56
f 482//482 440//440 483//483
f 482//482 428//428 440//440
f 482//482 472//472 428//428
f 481//481 472//472 482//482
f 481//481 473//473 472//472
f 481//481 474//474 473//473
f 480//480 474//474 481//481
f 480//480 475//475 474//474
f 479//479 475//475 480//480
f 479//479 476//476 475//475
f 478//478 476//476 479//479
f 478//478 477//477 476//476
f 386//386 477//477 478//478
f 477//477 386//386 384//384
f 483//483 56//56 482//482
f 56//56 483//483 484//484
f 483//483 84//84 484//484
f 84//84 483//483 440//440
f 485//485 486//486 487//487
f 486//486 485//485 488//488
f 486//486 489//489 490//490
f 489//489 486//486 488//488
f 491//491 486//486 490//490
f 486//486 491//491 487//487
f 485//485 491//491 492//492
f 491//491 485//485 487//487
f 1//1 493//493 4//4
f 494//494 495//495 496//496
f 3//3 495//495 494//494
f 2//2 495//495 3//3
f 4//4 495//495 2//2
f 493//493 495//495 4//4
f 495//495 493//493 497//497
f 498//498 497//497 499//499
f 497//497 498//498 495//495
f 500//500 501//501 502//502
f 500//500 491//491 501//501
f 503//503 491//491 500//500
f 491//491 503//503 492//492
f 490//490 501//501 491//491
f 489//489 501//501 490//490
f 501//501 489//489 504//504
f 503//503 505//505 506//506
f 505//505 503//503 500//500
f 507//507 495//495 498//498
f 495//495 507//507 496//496
f 504//504 496//496 501//501
f 496//496 504//504 494//494
f 508//508 505//505 509//509
f 505//505 508//508 506//506
f 498//498 510//510 507//507
f 499//499 510//510 498//498
f 510//510 499//499 511//511
f 512//512 507//507 513//513
f 509//509 507//507 512//512
f 509//509 496//496 507//507
f 509//509 501//501 496//496
f 509//509 502//502 501//501
f 505//505 502//502 509//509
f 502//502 505//505 500//500
f 514//514 509//509 512//512
f 509//509 514//514 508//508
f 507//507 515//515 513//513
f 515//515 507//507 510//510
f 515//515 512//512 513//513
f 512//512 515//515 514//514
f 488//488 485//485 516//516
f 517//517 516//516 485//485
f 488//488 516//516 489//489
f 518//518 489//489 516//516
f 517//517 519//519 516//516
f 518//518 516//516 519//519
f 517//517 485//485 519//519
f 492//492 519//519 485//485
f 520//520 493//493 521//521
f 5//5 521//521 493//493
f 6//6 521//521 5//5
f 3//3 521//521 6//6
f 494//494 521//521 3//3
f 522//522 521//521 494//494
f 5//5 493//493 1//1
f 521//521 523//523 520//520
f 524//524 520//520 523//523
f 504//504 489//489 525//525
f 518//518 525//525 489//489
f 519//519 525//525 518//518
f 492//492 503//503 519//519
f 526//526 519//519 503//503
f 525//525 519//519 526//526
f 527//527 525//525 526//526
f 526//526 503//503 528//528
f 506//506 528//528 503//503
f 522//522 529//529 521//521
f 523//523 521//521 529//529
f 494//494 504//504 522//522
f 525//525 522//522 504//504
f 506//506 508//508 528//528
f 530//530 528//528 508//508
f 511//511 524//524 510//510
f 523//523 510//510 524//524
f 529//529 510//510 523//523
f 526//526 528//528 527//527
f 530//530 527//527 528//528
f 525//525 527//527 530//530
f 522//522 525//525 530//530
f 529//529 522//522 530//530
f 531//531 529//529 530//530
f 532//532 529//529 531//531
f 508//508 514//514 530//530
f 531//531 530//530 514//514
f 510//510 529//529 515//515
f 532//532 515//515 529//529
f 514//514 515//515 531//531
f 532//532 531//531 515//515
f 533//533 534//534 535//535
f 534//534 533//533 536//536
f 534//534 537//537 538//538
f 537//537 534//534 536//536
f 539//539 534//534 538//538
f 534//534 539//539 535//535
f 533//533 539//539 540//540
f 539//539 533//533 535//535
f 7//7 541//541 10//10
f 542//542 543//543 544//544
f 9//9 543//543 542//542
f 8//8 543//543 9//9
f 10//10 543//543 8//8
f 541//541 543//543 10//10
f 543//543 541//541 545//545
f 546//546 545//545 547//547
f 545//545 546//546 543//543
f 548//548 549//549 550//550
f 548//548 539//539 549//549
f 551//551 539//539 548//548
f 539//539 551//551 540//540
f 538//538 549//549 539//539
f 537//537 549//549 538//538
f 549//549 537//537 552//552
f 551//551 553//553 554//554
f 553//553 551//551 548//548
f 555//555 543//543 546//546
f 543//543 555//555 544//544
f 552//552 544//544 549//549
f 544//544 552//552 542//542
f 556//556 553//553 557//557
f 553//553 556//556 554//554
f 546//546 558//558 555//555
f 547//547 558//558 546//546
f 558//558 547//547 559//559
f 560//560 555//555 561//561
f 557//557 555//555 560//560
f 557//557 544//544 555//555
f 557//557 549//549 544//544
f 557//557 550//550 549//549
f 553//553 550//550 557//557
f 550//550 553//553 548//548
f 562//562 557//557 560//560
f 557//557 562//562 556//556
f 555//555 563//563 561//561
f 563//563 555//555 558//558
f 563//563 560//560 561//561
f 560//560 563//563 562//562
f 536//536 533//533 564//564
f 565//565 564//564 533//533
f 536//536 564//564 537//537
f 566//566 537//537 564//564
f 565//565 567//567 564//564
f 566//566 564//564 567//567
f 565//565 533//533 567//567
f 540//540 567//567 533//533
f 568//568 541//541 569//569
f 11//11 569//569 541//541
f 12//12 569//569 11//11
f 9//9 569//569 12//12
f 542//542 569//569 9//9
f 570//570 569//569 542//542
f 11//11 541//541 7//7
f 569//569 571//571 568//568
f 572//572 568//568 571//571
f 552//552 537//537 573//573
f 566//566 573//573 537//537
f 567//567 573//573 566//566
f 540//540 551//551 567//567
f 574//574 567//567 551//551
f 573//573 567//567 574//574
f 575//575 573//573 574//574
f 574//574 551//551 576//576
f 554//554 576//576 551//551
f 570//570 577//577 569//569
f 571//571 569//569 577//577
f 542//542 552//552 570//570
f 573//573 570//570 552//552
f 554//554 556//556 576//576
f 578//578 576//576 556//556
f 559//559 572//572 558//558
f 571//571 558//558 572//572
f 577//577 558//558 571//571
f 574//574 576//576 575//575
f 578//578 575//575 576//576
f 573//573 575//575 578//578
f 570//570 573//573 578//578
f 577//577 570//570 578//578
f 579//579 577//577 578//578
f 580//580 577//577 579//579
f 556//556 562//562 578//578
f 579//579 578//578 562//562
f 558//558 577//577 563//563
f 580//580 563//563 577//577
f 562//562 563//563 579//579
f 580//580 579//579 563//563
f 32//32 581//581 582//582
f 31//31 581//581 32//32
f 54//54 581//581 31//31
f 581//581 54//54 583//583
f 584//584 581//581 583//583
f 581//581 584//584 585//585
f 581//581 586//586 582//582
f 586//586 581//581 585//585
f 586//586 32//32 582//582
f 32//32 586//586 86//86
f 584//584 54//54 88//88
f 54//54 584//584 583//583
f 587//587 588//588 589//589
f 588//588 590//590 591//591
f 587//587 590//590 588//588
f 592//592 590//590 587//587
f 592//592 593//593 590//590
f 593//593 592//592 594//594
f 595//595 596//596 597//597
f 598//598 595//595 599//599
f 598//598 596//596 595//595
f 598//598 600//600 596//596
f 600//600 592//592 601//601
f 600//600 594//594 592//592
f 594//594 600//600 598//598
f 88//88 602//602 87//87
f 88//88 603//603 602//602
f 88//88 604//604 603//603
f 88//88 605//605 604//604
f 605//605 606//606 607//607
f 88//88 606//606 605//605
f 88//88 608//608 606//606
f 608//608 14//14 609//609
f 608//608 15//15 14//14
f 15//15 610//610 611//611
f 15//15 612//612 610//610
f 608//608 612//612 15//15
f 88//88 612//612 608//608
f 88//88 613//613 612//612
f 613//613 614//614 615//615
f 613//613 616//616 614//614
f 613//613 617//617 616//616
f 613//613 618//618 617//617
f 613//613 619//619 618//618
f 619//619 20//20 620//620
f 619//619 21//21 20//20
f 619//619 621//621 21//21
f 613//613 621//621 619//619
f 621//621 613//613 88//88
f 597//597 87//87 602//602
f 596//596 87//87 597//597
f 622//622 87//87 596//596
f 587//587 87//87 622//622
f 589//589 87//87 587//587
f 623//623 87//87 589//589
f 591//591 87//87 623//623
f 624//624 591//591 590//590
f 624//624 87//87 591//591
f 625//625 87//87 624//624
f 612//612 625//625 610//610
f 626//626 625//625 612//612
f 627//627 625//625 626//626
f 628//628 625//625 627//627
f 17//17 625//625 628//628
f 24//24 625//625 17//17
f 24//24 87//87 625//625
f 21//21 87//87 24//24
f 21//21 629//629 87//87
f 629//629 21//21 621//621
f 630//630 602//602 603//603
f 631//631 602//602 630//630
f 631//631 632//632 602//602
f 632//632 599//599 595//595
f 631//631 599//599 632//632
f 631//631 633//633 599//599
f 633//633 593//593 594//594
f 593//593 610//610 625//625
f 633//633 610//610 593//593
f 610//610 633//633 631//631
f 634//634 603//603 604//604
f 607//607 603//603 634//634
f 635//635 607//607 606//606
f 635//635 603//603 607//607
f 609//609 603//603 635//635
f 603//603 609//609 14//14
f 620//620 17//17 628//628
f 17//17 620//620 20//20
f 616//616 636//636 637//637
f 636//636 616//616 617//617
f 626//626 638//638 627//627
f 615//615 638//638 626//626
f 638//638 615//615 614//614
f 637//637 627//627 638//638
f 636//636 627//627 637//637
f 639//639 627//627 636//636
f 618//618 627//627 639//639
f 627//627 618//618 619//619
f 585//585 87//87 586//586
f 584//584 87//87 585//585
f 87//87 584//584 88//88
f 586//586 87//87 86//86
f 640//640 80//80 85//85
f 641//641 80//80 640//640
f 642//642 80//80 641//641
f 621//621 80//80 642//642
f 88//88 80//80 621//621
f 80//80 88//88 54//54
f 621//621 643//643 629//629
f 643//643 621//621 642//642
f 86//86 643//643 644//644
f 87//87 643//643 86//86
f 643//643 87//87 629//629
f 644//644 643//643 645//645
f 641//641 643//643 642//642
f 643//643 641//641 645//645
f 602//602 646//646 597//597
f 646//646 602//602 647//647
f 646//646 595//595 597//597
f 595//595 646//646 648//648
f 649//649 595//595 648//648
f 595//595 649//649 632//632
f 649//649 602//602 632//632
f 602//602 649//649 647//647
f 649//649 646//646 647//647
f 646//646 649//649 648//648
f 650//650 651//651 652//652
f 651//651 650//650 653//653
f 650//650 654//654 653//653
f 654//654 650//650 655//655
f 656//656 657//657 658//658
f 657//657 656//656 659//659
f 656//656 660//660 659//659
f 660//660 656//656 661//661
f 654//654 651//651 653//653
f 651//651 654//654 662//662
f 663//663 651//651 662//662
f 651//651 663//663 652//652
f 663//663 650//650 652//652
f 650//650 663//663 655//655
f 664//664 654//654 655//655
f 654//654 664//664 665//665
f 665//665 611//611 666//666
f 664//664 611//611 665//665
f 13//13 611//611 664//664
f 611//611 13//13 15//15
f 660//660 657//657 659//659
f 657//657 660//660 667//667
f 668//668 657//657 667//667
f 657//657 668//668 658//658
f 668//668 656//656 658//658
f 656//656 668//668 661//661
f 669//669 660//660 661//661
f 660//660 669//669 670//670
f 662//662 671//671 672//672
f 654//654 671//671 662//662
f 665//665 671//671 654//654
f 671//671 665//665 666//666
f 663//663 672//672 673//673
f 672//672 663//663 662//662
f 674//674 663//663 673//673
f 674//674 655//655 663//663
f 16//16 655//655 674//674
f 13//13 655//655 16//16
f 655//655 13//13 664//664
f 16//16 603//603 14//14
f 603//603 16//16 674//674
f 670//670 610//610 675//675
f 669//669 610//610 670//670
f 666//666 610//610 669//669
f 610//610 666//666 611//611
f 667//667 676//676 677//677
f 660//660 676//676 667//667
f 670//670 676//676 660//660
f 676//676 670//670 675//675
f 668//668 677//677 678//678
f 677//677 668//668 667//667
f 671//671 668//668 678//678
f 671//671 661//661 668//668
f 666//666 661//661 671//671
f 661//661 666//666 669//669
f 630//630 672//672 671//671
f 630//630 673//673 672//672
f 603//603 673//673 630//630
f 673//673 603//603 674//674
f 676//676 610//610 631//631
f 610//610 676//676 675//675
f 631//631 677//677 676//676
f 631//631 678//678 677//677
f 630//630 678//678 631//631
f 678//678 630//630 671//671
f 604//604 679//679 634//634
f 679//679 604//604 680//680
f 679//679 607//607 634//634
f 607//607 679//679 681//681
f 682//682 607//607 681//681
f 607//607 682//682 605//605
f 682//682 604//604 605//605
f 604//604 682//682 680//680
f 682//682 679//679 680//680
f 679//679 682//682 681//681
f 612//612 683//683 626//626
f 683//683 612//612 684//684
f 683//683 615//615 626//626
f 615//615 683//683 685//685
f 686//686 615//615 685//685
f 615//615 686//686 613//613
f 686//686 612//612 613//613
f 612//612 686//686 684//684
f 686//686 683//683 684//684
f 683//683 686//686 685//685
f 606//606 687//687 635//635
f 687//687 606//606 688//688
f 687//687 609//609 635//635
f 609//609 687//687 689//689
f 690//690 609//609 689//689
f 609//609 690//690 608//608
f 690//690 606//606 608//608
f 606//606 690//690 688//688
f 690//690 687//687 688//688
f 687//687 690//690 689//689
f 691//691 594//594 692//692
f 594//594 691//691 633//633
f 691//691 599//599 633//633
f 599//599 691//691 693//693
f 599//599 694//694 598//598
f 694//694 599//599 693//693
f 694//694 594//594 598//598
f 594//594 694//694 692//692
f 691//691 694//694 693//693
f 694//694 691//691 692//692
f 695//695 696//696 697//697
f 696//696 695//695 698//698
f 695//695 699//699 698//698
f 699//699 695//695 700//700
f 701//701 702//702 703//703
f 702//702 701//701 704//704
f 701//701 705//705 704//704
f 705//705 701//701 706//706
f 699//699 696//696 698//698
f 696//696 699//699 707//707
f 708//708 696//696 707//707
f 696//696 708//708 697//697
f 708//708 695//695 697//697
f 695//695 708//708 700//700
f 709//709 699//699 700//700
f 699//699 709//709 710//710
f 710//710 592//592 711//711
f 709//709 592//592 710//710
f 712//712 592//592 709//709
f 592//592 712//712 601//601
f 705//705 702//702 704//704
f 702//702 705//705 713//713
f 714//714 702//702 713//713
f 702//702 714//714 703//703
f 714//714 701//701 703//703
f 701//701 714//714 706//706
f 715//715 705//705 706//706
f 705//705 715//715 716//716
f 716//716 601//601 712//712
f 715//715 601//601 716//716
f 717//717 601//601 715//715
f 601//601 717//717 600//600
f 707//707 718//718 719//719
f 699//699 718//718 707//707
f 710//710 718//718 699//699
f 718//718 710//710 711//711
f 708//708 719//719 720//720
f 719//719 708//708 707//707
f 721//721 708//708 720//720
f 721//721 700//700 708//708
f 712//712 700//700 721//721
f 700//700 712//712 709//709
f 718//718 592//592 587//587
f 592//592 718//718 711//711
f 713//713 721//721 722//722
f 705//705 721//721 713//713
f 716//716 721//721 705//705
f 721//721 716//716 712//712
f 714//714 722//722 723//723
f 722//722 714//714 713//713
f 724//724 714//714 723//723
f 724//724 706//706 714//714
f 717//717 706//706 724//724
f 706//706 717//717 715//715
f 717//717 596//596 600//600
f 596//596 717//717 724//724
f 587//587 719//719 718//718
f 587//587 720//720 719//719
f 622//622 720//720 587//587
f 720//720 622//622 721//721
f 622//622 722//722 721//721
f 622//622 723//723 722//722
f 596//596 723//723 622//622
f 723//723 596//596 724//724
f 725//725 591//591 623//623
f 591//591 725//725 726//726
f 727//727 591//591 726//726
f 591//591 727//727 588//588
f 727//727 589//589 588//588
f 589//589 727//727 728//728
f 589//589 725//725 623//623
f 725//725 589//589 728//728
f 727//727 725//725 728//728
f 725//725 727//727 726//726
f 590//590 729//729 624//624
f 729//729 590//590 730//730
f 729//729 625//625 624//624
f 625//625 729//729 731//731
f 732//732 625//625 731//731
f 625//625 732//732 593//593
f 732//732 590//590 593//593
f 590//590 732//732 730//730
f 732//732 729//729 730//730
f 729//729 732//732 731//731
f 636//636 733//733 639//639
f 733//733 636//636 734//734
f 733//733 618//618 639//639
f 618//618 733//733 735//735
f 736//736 618//618 735//735
f 618//618 736//736 617//617
f 736//736 636//636 617//617
f 636//636 736//736 734//734
f 736//736 733//733 734//734
f 733//733 736//736 735//735
f 638//638 737//737 637//637
f 737//737 638//638 738//738
f 616//616 737//737 739//739
f 737//737 616//616 637//637
f 740//740 616//616 739//739
f 616//616 740//740 614//614
f 638//638 740//740 738//738
f 740//740 638//638 614//614
f 740//740 737//737 738//738
f 737//737 740//740 739//739
f 627//627 741//741 628//628
f 741//741 627//627 742//742
f 620//620 741//741 743//743
f 741//741 620//620 628//628
f 744//744 620//620 743//743
f 620//620 744//744 619//619
f 627//627 744//744 742//742
f 744//744 627//627 619//619
f 744//744 741//741 742//742
f 741//741 744//744 743//743
f 745//745 21//21 746//746
f 21//21 745//745 20//20
f 745//745 17//17 20//20
f 17//17 745//745 747//747
f 17//17 748//748 24//24
f 748//748 17//17 747//747
f 748//748 21//21 24//24
f 21//21 748//748 746//746
f 745//745 748//748 747//747
f 748//748 745//745 746//746
f 55//55 53//53 84//84
f 41//41 40//40 83//83
f 54//54 79//79 80//80
f 82//82 80//80 79//79
f 81//81 80//80 82//82
f 77//77 80//80 81//81
f 32//32 80//80 77//77
f 78//78 79//79 54//54
f 55//55 78//78 54//54
f 76//76 32//32 77//77
f 75//75 32//32 76//76
f 74//74 32//32 75//75
f 73//73 32//32 74//74
f 72//72 32//32 73//73
f 71//71 32//32 72//72
f 66//66 32//32 71//71
f 70//70 66//66 71//71
f 27//27 70//70 71//71
f 25//25 70//70 27//27
f 69//69 70//70 25//25
f 68//68 69//69 25//25
f 67//67 68//68 25//25
f 41//41 67//67 25//25
f 65//65 32//32 66//66
f 64//64 32//32 65//65
f 63//63 32//32 64//64
f 62//62 32//32 63//63
f 61//61 32//32 62//62
f 60//60 32//32 61//61
f 30//30 32//32 60//60
f 28//28 32//32 30//30
f 31//31 52//52 54//54
f 59//59 54//54 52//52
f 58//58 54//54 59//59
f 57//57 54//54 58//58
f 56//56 54//54 57//57
f 53//53 54//54 56//56
f 55//55 54//54 53//53
f 51//51 52//52 31//31
f 50//50 51//51 31//31
f 49//49 50//50 31//31
f 48//48 49//49 31//31
f 47//47 48//48 31//31
f 39//39 47//47 31//31
f 45//45 47//47 39//39
f 46//46 47//47 45//45
f 25//25 46//46 45//45
f 44//44 25//25 45//45
f 43//43 25//25 44//44
f 42//42 25//25 43//43
f 40//40 25//25 42//42
f 41//41 25//25 40//40
f 38//38 39//39 31//31
f 37//37 38//38 31//31
f 36//36 37//37 31//31
f 35//35 36//36 31//31
f 34//34 35//35 31//31
f 33//33 34//34 31//31
f 28//28 33//33 31//31
f 32//32 28//28 31//31
f 30//30 29//29 28//28
f 27//27 26//26 25//25