# https://github.com/mikedh/trimesh
v 0.02755000 0.00042100 0.01787300
v 0.02631700 -0.01929600 0.01787300
v 0.02808200 -0.00955700 0.01787300
v 0.02240900 -0.02793700 0.01787300
v 0.01670400 -0.03471900 0.01787300
v 0.00970400 -0.03904300 0.01787300
v 0.00202800 -0.04052800 0.01787300
v -0.00135800 -0.03987300 0.01787300
v -0.00564900 -0.03904300 0.01787300
v -0.01264800 -0.03471900 0.01787300
v -0.01835300 -0.02793700 0.01787300
v -0.02226100 -0.01929600 0.01787300
v -0.02349500 0.00042100 0.01787300
v -0.02402700 -0.00955700 0.01787300
v 0.00202800 -0.06344900 0.01787300
v -0.00135800 -0.06344900 0.01787300
v 0.01931100 -0.07276000 0.01787300
v -0.01921300 -0.07276000 0.01787300
v -0.05416000 0.09271300 0.01788000
v -0.05416000 0.08244900 0.01788000
v -0.04550200 0.09271300 0.01788000
v -0.05125500 0.08244900 0.01788000
v -0.04840700 0.08244900 0.01788000
v -0.05125500 0.05115000 0.01788000
v -0.04550200 0.08244900 0.01788000
v -0.04840700 0.05115000 0.01788000
v -0.03824000 0.09271300 0.01788000
v -0.03824000 0.07816800 0.01788000
v -0.03537900 0.09271300 0.01788000
v -0.03824000 0.06796200 0.01788000
v -0.03824000 0.05115000 0.01788000
v -0.03537900 0.05115000 0.01788000
v -0.04135200 0.07816800 0.01788000
v -0.04135200 0.06796200 0.01788000
v -0.04420000 0.09271300 0.01788000
v -0.04420000 0.05115000 0.01788000
v -0.04135200 0.09271300 0.01788000
v -0.04135200 0.05115000 0.01788000
v -0.03349300 0.05115000 0.01788000
v -0.03063900 0.08383800 0.01788000
v -0.03349300 0.09271300 0.01788000
v -0.02586100 0.09271300 0.01788000
v -0.02586100 0.08383800 0.01788000
v -0.03063900 0.07723300 0.01788000
v -0.03063900 0.06875600 0.01788000
v -0.02620600 0.07723300 0.01788000
v -0.02620600 0.06875600 0.01788000
v -0.02572200 0.05115000 0.01788000
v -0.03063900 0.06056200 0.01788000
v -0.02572200 0.06056200 0.01788000
v -0.01392100 0.09271300 0.01788000
v -0.01392100 0.07816800 0.01788000
v -0.01106000 0.09271300 0.01788000
v -0.01392100 0.06796200 0.01788000
v -0.01392100 0.05115000 0.01788000
v -0.01106000 0.05115000 0.01788000
v -0.01703300 0.07816800 0.01788000
v -0.01703300 0.06796200 0.01788000
v -0.01988100 0.09271300 0.01788000
v -0.01988100 0.05115000 0.01788000
v -0.01703300 0.09271300 0.01788000
v -0.01703300 0.05115000 0.01788000
v -0.00952600 0.07190300 0.01788000
v -0.00948700 0.06841200 0.01788000
v -0.00944800 0.07671000 0.01788000
v -0.00936700 0.06522600 0.01788000
v -0.00921200 0.08095400 0.01788000
v -0.00916900 0.06234500 0.01788000
v -0.00881900 0.08463400 0.01788000
v -0.00889100 0.05976800 0.01788000
v -0.00854900 0.05750700 0.01788000
v -0.00826900 0.08775100 0.01788000
v -0.00816000 0.05557200 0.01788000
v -0.00757800 0.09023200 0.01788000
v -0.00772100 0.05396300 0.01788000
v -0.00723500 0.05268100 0.01788000
v -0.00676500 0.09200400 0.01788000
v -0.00669000 0.05170100 0.01788000
v -0.00667800 0.07184600 0.01788000
v -0.00664600 0.07479600 0.01788000
v -0.00654800 0.07729600 0.01788000
v -0.00582700 0.09306700 0.01788000
v -0.00638400 0.07934700 0.01788000
v -0.00615600 0.08094700 0.01788000
v -0.00587400 0.08215000 0.01788000
v -0.00554900 0.08300900 0.01788000
v -0.00476700 0.09342100 0.01788000
v -0.00518300 0.08352500 0.01788000
v -0.00477300 0.08369700 0.01788000
v -0.00434700 0.08352800 0.01788000
v -0.00368200 0.09307300 0.01788000
v -0.00396700 0.08302000 0.01788000
v -0.00363500 0.08217400 0.01788000
v -0.00273000 0.09202800 0.01788000
v -0.00334900 0.08098900 0.01788000
v -0.00311900 0.07943800 0.01788000
v -0.00295500 0.07749100 0.01788000
v -0.00285700 0.07515000 0.01788000
v -0.00282400 0.07241300 0.01788000
v -0.00607800 0.05100100 0.01788000
v -0.00664600 0.06892000 0.01788000
v -0.00654800 0.06643800 0.01788000
v -0.00638600 0.06439800 0.01788000
v -0.00615900 0.06280200 0.01788000
v -0.00587700 0.06159900 0.01788000
v -0.00465400 0.05044100 0.01788000
v -0.00554700 0.06073900 0.01788000
v -0.00517100 0.06022400 0.01788000
v -0.00474800 0.06005200 0.01788000
v -0.00431500 0.06022000 0.01788000
v -0.00391800 0.05060300 0.01788000
v -0.00393400 0.06072500 0.01788000
v -0.00360400 0.06156700 0.01788000
v -0.00324600 0.05108900 0.01788000
v -0.00332700 0.06274500 0.01788000
v -0.00310700 0.06435900 0.01788000
v -0.00263700 0.05190000 0.01788000
v -0.00295000 0.06650900 0.01788000
v -0.00285600 0.06919300 0.01788000
v -0.00190900 0.09028700 0.01788000
v -0.00209100 0.05303500 0.01788000
v -0.00160800 0.05446100 0.01788000
v -0.00122100 0.08785000 0.01788000
v -0.00118400 0.05614600 0.01788000
v -0.00067600 0.08478600 0.01788000
v -0.00082200 0.05809000 0.01788000
v -0.00052000 0.06029300 0.01788000
v -0.00028700 0.08116300 0.01788000
v -0.00028200 0.06278900 0.01788000
v -0.00005400 0.07698200 0.01788000
v -0.00011200 0.06561200 0.01788000
v -0.00001000 0.06876400 0.01788000
v 0.00002400 0.07224300 0.01788000
v 0.00155800 0.09271300 0.01788000
v 0.00155800 0.05115000 0.01788000
v 0.00440600 0.09271300 0.01788000
v 0.00440600 0.06138400 0.01788000
v 0.00885200 0.05115000 0.01788000
v 0.00885200 0.06138400 0.01788000
v 0.01423700 0.07869100 0.01788000
v 0.01566000 0.06855700 0.01788000
v 0.01609800 0.09271300 0.01788000
v 0.01924400 0.09271300 0.01788000
v 0.00921600 0.09271300 0.01788000
v 0.01280600 0.06855700 0.01788000
v 0.01238000 0.09271300 0.01788000
v 0.01280600 0.05115000 0.01788000
v 0.01566000 0.05115000 0.01788000
v 0.02446300 0.05115000 0.01788000
v 0.02733600 0.08429200 0.01788000
v 0.02446300 0.09271300 0.01788000
v 0.02979400 0.09271300 0.01788000
v 0.02859300 0.08429200 0.01788000
v 0.02914500 0.08403700 0.01788000
v 0.02950200 0.08327200 0.01788000
v 0.02969800 0.08205200 0.01788000
v 0.02976300 0.08043600 0.01788000
v 0.02733600 0.07641100 0.01788000
v 0.02733600 0.06850100 0.01788000
v 0.02857500 0.07641100 0.01788000
v 0.02878200 0.06850100 0.01788000
v 0.02914000 0.07666900 0.01788000
v 0.02941800 0.06822000 0.01788000
v 0.02950200 0.07744500 0.01788000
v 0.02982900 0.06738100 0.01788000
v 0.02969800 0.07871000 0.01788000
v 0.03042200 0.09252600 0.01788000
v 0.03005300 0.06608000 0.01788000
v 0.03012800 0.06441800 0.01788000
v 0.03097200 0.09196800 0.01788000
v 0.03105200 0.07326300 0.01788000
v 0.03144500 0.09103800 0.01788000
v 0.03162700 0.07446800 0.01788000
v 0.03184100 0.08973600 0.01788000
v 0.03204500 0.07604200 0.01788000
v 0.03215300 0.08815800 0.01788000
v 0.03226800 0.07742600 0.01788000
v 0.03237600 0.08640400 0.01788000
v 0.03242700 0.07894100 0.01788000
v 0.03251000 0.08447300 0.01788000
v 0.03255400 0.08236400 0.01788000
v 0.02937900 0.05115000 0.01788000
v 0.02733600 0.06008000 0.01788000
v 0.02878800 0.06008000 0.01788000
v 0.02941600 0.06037400 0.01788000
v 0.03065600 0.05171600 0.01788000
v 0.02982600 0.06125700 0.01788000
v 0.03005200 0.06263500 0.01788000
v 0.03128800 0.05226900 0.01788000
v 0.03191400 0.07180000 0.01788000
v 0.03173700 0.05307700 0.01788000
v 0.03225400 0.05484900 0.01788000
v 0.03224700 0.07077800 0.01788000
v 0.03251300 0.06956400 0.01788000
v 0.03264900 0.05716000 0.01788000
v 0.03271800 0.06816800 0.01788000
v 0.03289900 0.05990300 0.01788000
v 0.03286500 0.06660400 0.01788000
v 0.03298200 0.06297200 0.01788000
v 0.03458500 0.09271300 0.01788000
v 0.03458500 0.05115000 0.01788000
v 0.03744000 0.09271300 0.01788000
v 0.03744000 0.05115000 0.01788000
v 0.03948900 0.05115000 0.01788000
v 0.04236300 0.08429200 0.01788000
v 0.03948900 0.09271300 0.01788000
v 0.04482100 0.09271300 0.01788000
v 0.04362000 0.08429200 0.01788000
v 0.04417100 0.08403700 0.01788000
v 0.04452800 0.08327200 0.01788000
v 0.04472400 0.08205200 0.01788000
v 0.04479000 0.08043600 0.01788000
v 0.04236300 0.07641100 0.01788000
v 0.04236300 0.06850100 0.01788000
v 0.04360100 0.07641100 0.01788000
v 0.04380900 0.06850100 0.01788000
v 0.04416600 0.07666900 0.01788000
v 0.04444400 0.06822000 0.01788000
v 0.04452800 0.07744500 0.01788000
v 0.04485500 0.06738100 0.01788000
v 0.04472400 0.07871000 0.01788000
v 0.04544900 0.09252600 0.01788000
v 0.04508000 0.06608000 0.01788000
v 0.04515400 0.06441800 0.01788000
v 0.04599900 0.09196800 0.01788000
v 0.04607900 0.07326300 0.01788000
v 0.04647200 0.09103800 0.01788000
v 0.04665400 0.07446800 0.01788000
v 0.04686700 0.08973600 0.01788000
v 0.04707200 0.07604200 0.01788000
v 0.04718000 0.08815800 0.01788000
v 0.04729500 0.07742600 0.01788000
v 0.04740300 0.08640400 0.01788000
v 0.04745400 0.07894100 0.01788000
v 0.04753700 0.08447300 0.01788000
v 0.04758100 0.08236400 0.01788000
v 0.04440600 0.05115000 0.01788000
v 0.04236300 0.06008000 0.01788000
v 0.04381500 0.06008000 0.01788000
v 0.04444200 0.06037400 0.01788000
v 0.04568200 0.05171600 0.01788000
v 0.04485200 0.06125700 0.01788000
v 0.04507900 0.06263500 0.01788000
v 0.04631400 0.05226900 0.01788000
v 0.04694000 0.07180000 0.01788000
v 0.04676400 0.05307700 0.01788000
v 0.04728100 0.05484900 0.01788000
v 0.04727300 0.07077800 0.01788000
v 0.04754000 0.06956400 0.01788000
v 0.04767500 0.05716000 0.01788000
v 0.04774500 0.06816800 0.01788000
v 0.04792500 0.05990300 0.01788000
v 0.04789100 0.06660400 0.01788000
v 0.04800900 0.06297200 0.01788000
v 0.04949900 0.09271300 0.01788000
v 0.04949900 0.05115000 0.01788000
v 0.05234700 0.09271300 0.01788000
v 0.05234700 0.06138400 0.01788000
v 0.05679200 0.05115000 0.01788000
v 0.05679200 0.06138400 0.01788000
v 0.05808100 0.05115000 0.01788000
v 0.06093500 0.08383800 0.01788000
v 0.05808100 0.09271300 0.01788000
v 0.06571300 0.09271300 0.01788000
v 0.06571300 0.08383800 0.01788000
v 0.06093500 0.07723300 0.01788000
v 0.06093500 0.06875600 0.01788000
v 0.06536800 0.07723300 0.01788000
v 0.06536800 0.06875600 0.01788000
v 0.06585200 0.05115000 0.01788000
v 0.06093500 0.06056200 0.01788000
v 0.06585200 0.06056200 0.01788000
v -0.06611500 -0.11264100 0.00750400
v -0.06611500 -0.12403100 0.00750400
v -0.06588300 -0.11264100 0.00750400
v -0.06178100 -0.12403100 0.00750400
v -0.06178100 -0.11264100 0.00750400
v -0.06611500 -0.12567000 -0.02172800
v -0.06394800 -0.12532100 -0.01550100
v -0.06178100 -0.12567000 -0.02172800
v -0.06843200 -0.11264100 0.01358200
v 0.07617700 -0.11264100 0.01481600
v -0.06588300 -0.11264100 0.01481600
v 0.07515900 -0.11264100 0.01250300
v -0.07100200 -0.11264100 0.01162300
v 0.07431800 -0.11264100 0.01012200
v -0.07311800 -0.11264100 0.00919900
v 0.07365900 -0.11264100 0.00768800
v -0.07469400 -0.11264100 0.00640800
v 0.07318600 -0.11264100 0.00521200
v -0.07566700 -0.11264100 0.00336500
v 0.07290100 -0.11264100 0.00270900
v 0.07280600 -0.11264100 0.00019200
v -0.07599500 -0.11264100 0.00019200
v 0.07290100 -0.11264100 -0.00232500
v -0.07566700 -0.11264100 -0.00298100
v 0.07318600 -0.11264100 -0.00482800
v -0.07469400 -0.11264100 -0.00602400
v 0.07365900 -0.11264100 -0.00730400
v -0.07311800 -0.11264100 -0.00881500
v 0.07431800 -0.11264100 -0.00973900
v -0.07100200 -0.11264100 -0.01123900
v 0.07515900 -0.11264100 -0.01211900
v -0.06843200 -0.11264100 -0.01319800
v -0.06588300 -0.11264100 -0.01443200
v 0.07617700 -0.11264100 -0.01443200
v 0.07617700 0.11381500 -0.01443200
v 0.07515900 0.11381500 -0.01211900
v 0.07431800 0.11381500 -0.00973900
v 0.07365900 0.11381500 -0.00730400
v 0.07318600 0.11381500 -0.00482800
v 0.07290100 0.11381500 -0.00232500
v 0.07280600 0.11381500 0.00019200
v 0.07290100 0.11381500 0.00270900
v 0.07318600 0.11381500 0.00521200
v 0.07365900 0.11381500 0.00768800
v 0.07431800 0.11381500 0.01012200
v 0.07515900 0.11381500 0.01250300
v 0.07617700 0.11381500 0.01481600
v -0.06843200 0.11381500 0.01358200
v -0.06588300 0.11381500 0.01481600
v -0.06873100 0.11381500 0.01335400
v -0.07014900 0.11381500 0.01227300
v -0.07065000 0.11381500 0.01189100
v -0.07100200 0.11381500 0.01162300
v -0.07204400 0.11381500 0.01042900
v -0.07311800 0.11381500 0.00919900
v -0.07407500 0.11381500 0.00750400
v -0.07469400 0.11381500 0.00640800
v -0.07481200 0.11381500 0.00604100
v -0.07527900 0.11381500 0.00457900
v -0.07566700 0.11381500 0.00336500
v -0.07569200 0.11381500 0.00311700
v -0.07584400 0.11381500 0.00165400
v -0.07599500 0.11381500 0.00019200
v -0.07584400 0.11381500 -0.00127000
v -0.07569200 0.11381500 -0.00273300
v -0.07566700 0.11381500 -0.00298100
v -0.07527900 0.11381500 -0.00419500
v -0.07481200 0.11381500 -0.00565800
v -0.07469400 0.11381500 -0.00602400
v -0.07407500 0.11381500 -0.00712000
v -0.07324900 0.11381500 -0.00858200
v -0.07311800 0.11381500 -0.00881500
v -0.07204400 0.11381500 -0.01004500
v -0.07100200 0.11381500 -0.01123900
v -0.07065000 0.11381500 -0.01150700
v -0.06873100 0.11381500 -0.01297000
v -0.06843200 0.11381500 -0.01319800
v -0.06588300 0.11381500 -0.01443200
v 0.01598100 0.02493800 0.01787300
v 0.01598100 0.01725000 0.01787300
v 0.01648700 0.02109400 0.01787300
v 0.01449700 0.02852100 0.01787300
v 0.01449700 0.01366800 0.01787300
v 0.01213700 0.03159700 0.01787300
v 0.01213700 0.01059100 0.01787300
v 0.00906100 0.03395700 0.01787300
v 0.00906100 0.00823100 0.01787300
v 0.00547900 0.03544100 0.01787300
v 0.00547900 0.00674700 0.01787300
v 0.00163400 0.03594700 0.01787300
v 0.00163400 0.00624100 0.01787300
v -0.00221000 0.03544100 0.01787300
v -0.00221000 0.00674700 0.01787300
v -0.00579200 0.03395700 0.01787300
v -0.00579200 0.00823100 0.01787300
v -0.00886800 0.03159700 0.01787300
v -0.00886800 0.01059100 0.01787300
v -0.01122900 0.02852100 0.01787300
v -0.01122900 0.01366800 0.01787300
v -0.01271200 0.02493800 0.01787300
v -0.01271200 0.01725000 0.01787300
v -0.01321900 0.02109400 0.01787300
v -0.06843200 -0.12070600 0.01358200
v -0.06588300 -0.12070600 0.01481600
v -0.07100200 -0.12070600 0.01162300
v -0.07311800 -0.12070600 0.00919900
v -0.07469400 -0.12070600 0.00640800
v -0.07566700 -0.12070600 0.00336500
v -0.07599500 -0.12070600 0.00019200
v -0.07566700 -0.12070600 -0.00298100
v -0.07469400 -0.12070600 -0.00602400
v -0.07311800 -0.12070600 -0.00881500
v -0.07100200 -0.12070600 -0.01123900
v -0.06843200 -0.12070600 -0.01319800
v -0.06588300 -0.12070600 -0.01443200
v -0.06843200 0.12188000 -0.01319800
v -0.06588300 0.12188000 -0.01443200
v -0.07100200 0.12188000 -0.01123900
v -0.07311800 0.12188000 -0.00881500
v -0.07469400 0.12188000 -0.00602400
v -0.07566700 0.12188000 -0.00298100
v -0.07599500 0.12188000 0.00019200
v -0.07566700 0.12188000 0.00336500
v -0.07469400 0.12188000 0.00640800
v -0.07311800 0.12188000 0.00919900
v -0.07100200 0.12188000 0.01162300
v -0.06843200 0.12188000 0.01358200
v -0.06588300 0.12188000 0.01481600
v 0.07929900 -0.12070600 0.01481600
v 0.07929900 0.12188000 0.01481600
v 0.07929900 -0.12070600 0.01787300
v 0.07929900 0.12188000 0.01787300
v -0.06661300 0.12188000 0.01787300
v -0.06661300 -0.12070600 0.01787300
v -0.07010000 0.12188000 0.01618400
v -0.07010000 -0.12070600 0.01618400
v -0.07316900 0.12188000 0.01384500
v -0.07316900 -0.12070600 0.01384500
v -0.07569700 -0.12070600 0.01094900
v -0.07569700 0.12188000 0.01094900
v -0.07758000 -0.12070600 0.00761600
v -0.07758000 0.12188000 0.00761600
v -0.07874100 -0.12070600 0.00398100
v -0.07874100 0.12188000 0.00398100
v -0.07913300 -0.12070600 0.00019200
v -0.07913300 0.12188000 0.00019200
v -0.07874100 -0.12070600 -0.00359700
v -0.07874100 0.12188000 -0.00359700
v -0.07758000 -0.12070600 -0.00723200
v -0.07758000 0.12188000 -0.00723200
v -0.07569700 -0.12070600 -0.01056500
v -0.07569700 0.12188000 -0.01056500
v -0.07316900 -0.12070600 -0.01346100
v -0.07316900 0.12188000 -0.01346100
v 0.07929900 0.12188000 -0.01443200
v 0.07929900 -0.12070600 -0.01443200
v -0.07010000 0.12188000 -0.01580000
v -0.07010000 -0.12070600 -0.01580000
v -0.06661300 -0.12070600 -0.01748900
v 0.07929900 -0.12070600 -0.01748900
v 0.07929900 0.12188000 -0.01748900
v -0.06661300 0.12188000 -0.01748900
vn 0.00000000 0.00000000 1.00000000
vn 0.00000000 0.00000000 1.00000000
vn 0.00000000 0.00000000 1.00000000
vn 0.00000000 0.00000000 1.00000000
vn 0.00000000 0.00000000 1.00000000
vn 0.00000000 0.00000000 1.00000000
vn 0.00000000 0.00000000 1.00000000
vn 0.00000000 0.00000000 1.00000000
vn 0.00000000 0.00000000 1.00000000
vn 0.00000000 0.00000000 1.00000000
vn 0.00000000 0.00000000 1.00000000
vn 0.00000000 0.00000000 1.00000000
vn 0.00000000 0.00000000 1.00000000
vn 0.00000000 0.00000000 1.00000000
vn 0.00000000 0.00000000 1.00000000
vn 0.00000000 0.00000000 1.00000000
vn 0.00000000 0.00000000 1.00000000
vn 0.00000000 0.00000000 1.00000000
vn 0.00000000 0.00000000 0.00000000
vn 0.00000000 0.00000000 0.00000000
vn 0.00000000 0.00000000 0.00000000
vn 0.00000000 0.00000000 0.00000000
vn 0.00000000 0.00000000 -0.00000000
vn 0.00000000 0.00000000 -0.00000000
vn 0.00000000 0.00000000 0.00000000
vn 0.00000000 0.00000000 0.00000000
vn 0.00000000 0.00000000 0.00000000
vn 0.00000000 0.00000000 0.00000000
vn 0.00000000 0.00000000 -0.00000000
vn 0.00000000 0.00000000 -0.00000000
vn 0.00000000 0.00000000 0.00000000
vn 0.00000000 0.00000000 0.00000000
vn 0.00000000 0.00000000 0.00000000
vn 0.00000000 0.00000000 -0.00000000
vn 0.00000000 0.00000000 0.00000000
vn 0.00000000 0.00000000 -0.00000000
vn 0.00000000 0.00000000 -0.00000000
vn 0.00000000 0.00000000 0.00000000
vn 0.00000000 0.00000000 0.00000000
vn 0.00000000 0.00000000 0.00000000
vn 0.00000000 0.00000000 -0.00000000
vn 0.00000000 0.00000000 -0.00000000
vn 0.00000000 0.00000000 -0.00000000
vn 0.00000000 0.00000000 0.00000000
vn 0.00000000 0.00000000 -0.00000000
vn 0.00000000 0.00000000 -0.00000000
vn 0.00000000 0.00000000 0.00000000
vn 0.00000000 0.00000000 0.00000000
vn 0.00000000 0.00000000 -0.00000000
vn 0.00000000 0.00000000 -0.00000000
vn 0.00000000 0.00000000 -0.00000000
vn 0.00000000 0.00000000 0.00000000
vn 0.00000000 0.00000000 0.00000000
vn 0.00000000 0.00000000 -0.00000000
vn 0.00000000 0.00000000 0.00000000
vn 0.00000000 0.00000000 0.00000000
vn 0.00000000 0.00000000 0.00000000
vn 0.00000000 0.00000000 -0.00000000
vn 0.00000000 0.00000000 0.00000000
vn 0.00000000 0.00000000 -0.00000000
vn 0.00000000 0.00000000 -0.00000000
vn 0.00000000 0.00000000 0.00000000
vn 0.00000000 0.00000000 -0.00000000
vn 0.00000000 0.00000000 0.00000000
vn 0.00000000 0.00000000 0.00000000
vn 0.00000000 0.00000000 0.00000000
vn 0.00000000 0.00000000 0.00000000
vn 0.00000000 0.00000000 -0.00000000
vn 0.00000000 0.00000000 -0.00000000
vn 0.00000000 0.00000000 -0.00000000
vn 0.00000000 0.00000000 0.00000000
vn 0.00000000 0.00000000 -0.00000000
vn 0.00000000 0.00000000 0.00000000
vn 0.00000000 0.00000000 0.00000000
vn 0.00000000 0.00000000 -0.00000000
vn 0.00000000 0.00000000 -0.00000000
vn 0.00000000 0.00000000 0.00000000
vn 0.00000000 0.00000000 -0.00000000
vn 0.00000000 0.00000000 0.00000000
vn 0.00000000 0.00000000 -0.00000000
vn 0.00000000 0.00000000 0.00000000
vn 0.00000000 0.00000000 -0.00000000
vn 0.00000000 0.00000000 -0.00000000
vn 0.00000000 0.00000000 0.00000000
vn 0.00000000 0.00000000 -0.00000000
vn 0.00000000 0.00000000 -0.00000000
vn 0.00000000 0.00000000 0.00000000
vn 0.00000000 0.00000000 0.00000000
vn 0.00000000 0.00000000 0.00000000
vn 0.00000000 0.00000000 0.00000000
vn 0.00000000 0.00000000 -0.00000000
vn 0.00000000 0.00000000 -0.00000000
vn 0.00000000 0.00000000 -0.00000000
vn 0.00000000 0.00000000 -0.00000000
vn 0.00000000 0.00000000 -0.00000000
vn 0.00000000 0.00000000 0.00000000
vn 0.00000000 0.00000000 -0.00000000
vn 0.00000000 0.00000000 -0.00000000
vn 0.00000000 0.00000000 -0.00000000
vn 0.00000000 0.00000000 0.00000000
vn 0.00000000 0.00000000 0.00000000
vn 0.00000000 0.00000000 -0.00000000
vn 0.00000000 0.00000000 -0.00000000
vn 0.00000000 0.00000000 0.00000000
vn 0.00000000 0.00000000 0.00000000
vn 0.00000000 0.00000000 0.00000000
vn 0.00000000 0.00000000 -0.00000000
vn 0.00000000 0.00000000 -0.00000000
vn 0.00000000 0.00000000 0.00000000
vn 0.00000000 0.00000000 0.00000000
vn 0.00000000 0.00000000 0.00000000
vn 0.00000000 0.00000000 -0.00000000
vn 0.00000000 0.00000000 -0.00000000
vn 0.00000000 0.00000000 -0.00000000
vn 0.00000000 0.00000000 -0.00000000
vn 0.00000000 0.00000000 -0.00000000
vn 0.00000000 0.00000000 1.00000000
vn 0.00000000 0.00000000 -0.00000000
vn 0.00000000 0.00000000 -0.00000000
vn 0.00000000 0.00000000 -0.00000000
vn 0.00000000 0.00000000 -0.00000000
vn 0.00000000 0.00000000 -0.00000000
vn 0.00000000 0.00000000 0.00000000
vn 0.00000000 0.00000000 -0.00000000
vn 0.00000000 0.00000000 0.00000000
vn 0.00000000 0.00000000 0.00000000
vn 0.00000000 0.00000000 0.00000000
vn 0.00000000 0.00000000 -0.00000000
vn 0.00000000 0.00000000 -0.00000000
vn 0.00000000 0.00000000 0.00000000
vn 0.00000000 0.00000000 -0.00000000
vn 0.00000000 0.00000000 -0.00000000
vn 0.00000000 0.00000000 0.00000000
vn 0.00000000 0.00000000 0.00000000
vn 0.00000000 0.00000000 -0.00000000
vn 0.00000000 0.00000000 -0.00000000
vn 0.00000000 0.00000000 0.00000000
vn 0.00000000 0.00000000 0.00000000
vn 0.00000000 0.00000000 0.00000000
vn 0.00000000 0.00000000 0.00000000
vn 0.00000000 0.00000000 -0.00000000
vn 0.00000000 0.00000000 -0.00000000
vn 0.00000000 0.00000000 0.00000000
vn 0.00000000 0.00000000 -0.00000000
vn 0.00000000 0.00000000 -0.00000000
vn 0.00000000 0.00000000 0.00000000
vn 0.00000000 0.00000000 0.00000000
vn 0.00000000 0.00000000 0.00000000
vn 0.00000000 0.00000000 -0.00000000
vn 0.00000000 0.00000000 -0.00000000
vn 0.00000000 0.00000000 0.00000000
vn 0.00000000 0.00000000 0.00000000
vn 0.00000000 0.00000000 -0.00000000
vn 0.00000000 0.00000000 -0.00000000
vn 0.00000000 0.00000000 -0.00000000
vn 0.00000000 0.00000000 -0.00000000
vn 0.00000000 0.00000000 0.00000000
vn 0.00000000 0.00000000 0.00000000
vn 0.00000000 0.00000000 -0.00000000
vn 0.00000000 0.00000000 -0.00000000
vn 0.00000000 0.00000000 -0.00000000
vn 0.00000000 0.00000000 0.00000000
vn 0.00000000 0.00000000 0.00000000
vn 0.00000000 0.00000000 -0.00000000
vn 0.00000000 0.00000000 -0.00000000
vn 0.00000000 0.00000000 0.00000000
vn 0.00000000 0.00000000 -0.00000000
vn 0.00000000 0.00000000 0.00000000
vn 0.00000000 0.00000000 -0.00000000
vn 0.00000000 0.00000000 -0.00000000
vn 0.00000000 0.00000000 -0.00000000
vn 0.00000000 0.00000000 -0.00000000
vn 0.00000000 0.00000000 -0.00000000
vn 0.00000000 0.00000000 0.00000000
vn 0.00000000 0.00000000 -0.00000000
vn 0.00000000 0.00000000 0.00000000
vn 0.00000000 0.00000000 0.00000000
vn 0.00000000 0.00000000 -0.00000000
vn 0.00000000 0.00000000 0.00000000
vn 0.00000000 0.00000000 -0.00000000
vn 0.00000000 0.00000000 -0.00000000
vn 0.00000000 0.00000000 -0.00000000
vn 0.00000000 0.00000000 0.00000000
vn 0.00000000 0.00000000 0.00000000
vn 0.00000000 0.00000000 0.00000000
vn 0.00000000 0.00000000 0.00000000
vn 0.00000000 0.00000000 0.00000000
vn 0.00000000 0.00000000 0.00000000
vn 0.00000000 0.00000000 -0.00000000
vn 0.00000000 0.00000000 0.00000000
vn 0.00000000 0.00000000 0.00000000
vn 0.00000000 0.00000000 -0.00000000
vn 0.00000000 0.00000000 0.00000000
vn 0.00000000 0.00000000 0.00000000
vn 0.00000000 0.00000000 -0.00000000
vn 0.00000000 0.00000000 0.00000000
vn 0.00000000 0.00000000 0.00000000
vn 0.00000000 0.00000000 0.00000000
vn 0.00000000 0.00000000 0.00000000
vn 0.00000000 0.00000000 0.00000000
vn 0.00000000 0.00000000 -0.00000000
vn 0.00000000 0.00000000 -0.00000000
vn 0.00000000 0.00000000 0.00000000
vn 0.00000000 0.00000000 -0.00000000
vn 0.00000000 0.00000000 -0.00000000
vn 0.00000000 0.00000000 0.00000000
vn 0.00000000 0.00000000 1.00000000
vn 0.00000000 0.00000000 -0.00000000
vn 0.00000000 0.00000000 -0.00000000
vn 0.00000000 0.00000000 -0.00000000
vn 0.00000000 0.00000000 -0.00000000
vn 0.00000000 0.00000000 0.00000000
vn 0.00000000 0.00000000 0.00000000
vn 0.00000000 0.00000000 -0.00000000
vn 0.00000000 0.00000000 -0.00000000
vn 0.00000000 0.00000000 -0.00000000
vn 0.00000000 0.00000000 -0.00000000
vn 0.00000000 0.00000000 0.00000000
vn 0.00000000 0.00000000 -0.00000000
vn 0.00000000 0.00000000 -1.00000000
vn 0.00000000 0.00000000 0.00000000
vn 0.00000000 0.00000000 0.00000000
vn 0.00000000 0.00000000 -0.00000000
vn 0.00000000 0.00000000 0.00000000
vn 0.00000000 0.00000000 0.00000000
vn 0.00000000 0.00000000 0.00000000
vn 0.00000000 0.00000000 -0.00000000
vn 0.00000000 0.00000000 0.00000000
vn 0.00000000 0.00000000 -0.00000000
vn 0.00000000 0.00000000 -0.00000000
vn 0.00000000 0.00000000 0.00000000
vn 0.00000000 0.00000000 0.00000000
vn 0.00000000 0.00000000 -0.00000000
vn 0.00000000 0.00000000 0.00000000
vn 0.00000000 0.00000000 -0.00000000
vn 0.00000000 0.00000000 0.00000000
vn 0.00000000 0.00000000 -0.00000000
vn 0.00000000 0.00000000 0.00000000
vn 0.00000000 0.00000000 0.00000000
vn 0.00000000 0.00000000 0.00000000
vn 0.00000000 0.00000000 -0.00000000
vn 0.00000000 0.00000000 0.00000000
vn 0.00000000 0.00000000 0.00000000
vn 0.00000000 0.00000000 -0.00000000
vn 0.00000000 0.00000000 0.00000000
vn 0.00000000 0.00000000 0.00000000
vn 0.00000000 0.00000000 -0.00000000
vn 0.00000000 0.00000000 0.00000000
vn 0.00000000 0.00000000 0.00000000
vn 0.00000000 0.00000000 0.00000000
vn 0.00000000 0.00000000 -0.00000000
vn 0.00000000 0.00000000 -0.00000000
vn 0.00000000 0.00000000 0.00000000
vn 0.00000000 0.00000000 0.00000000
vn 0.00000000 0.00000000 0.00000000
vn 0.00000000 0.00000000 -0.00000000
vn 0.00000000 0.00000000 -0.00000000
vn 0.00000000 0.00000000 0.00000000
vn 0.00000000 0.00000000 -0.00000000
vn 0.00000000 0.00000000 0.00000000
vn 0.00000000 0.00000000 0.00000000
vn 0.00000000 0.00000000 0.00000000
vn 0.00000000 0.00000000 -0.00000000
vn 0.00000000 0.00000000 -0.00000000
vn 0.00000000 0.00000000 0.00000000
vn 0.00000000 0.00000000 -0.00000000
vn 0.00000000 0.00000000 0.00000000
vn 0.00000000 0.00000000 0.00000000
vn 0.00000000 0.00000000 -0.00000000
vn 0.00000000 0.00000000 -0.00000000
vn 0.00000000 0.00000000 -0.00000000
vn 0.00000000 0.00000000 -0.00000000
vn 0.00000000 0.00000000 0.00000000
vn 0.00000000 0.00000000 -0.00000000
vn 0.00000000 0.00000000 -0.00000000
vn 0.00000000 0.00000000 -0.00000000
vn 0.00000000 0.00000000 0.00000000
vn -0.00000000 -0.00000000 0.00000000
vn -0.00000000 0.00000000 -0.00000000
vn 0.00000000 -0.00000000 0.00000000
vn 0.38133882 -0.68526504 -0.62047766
vn 0.25425498 -0.20446871 -0.94527613
vn 0.16790867 -0.66008625 -0.73218360
vn 0.64938829 -0.71565202 -0.25717122
vn 0.49770804 -0.68511838 -0.53188299
vn 0.66684743 -0.71565796 -0.20772142
vn 0.59475082 -0.68493043 -0.42088212
vn 0.68053798 -0.71571820 -0.15689334
vn 0.66779570 -0.68483167 -0.29164103
vn 0.69046607 -0.71568776 -0.10510768
vn 0.71344280 -0.68463106 -0.14926377
vn 0.69639691 -0.71571828 -0.05271330
vn 0.69841256 -0.71569540 -0.00000000
vn 0.72884463 -0.68467912 0.00000000
vn 0.69639691 -0.71571828 0.05271330
vn 0.71344280 -0.68463106 0.14926377
vn 0.69046607 -0.71568776 0.10510768
vn 0.66779570 -0.68483167 0.29164103
vn 0.68055801 -0.71570627 0.15686083
vn 0.59475082 -0.68493043 0.42088212
vn 0.66681797 -0.71568507 0.20772260
vn 0.49770804 -0.68511838 0.53188299
vn 0.64938578 -0.71563684 0.25721979
vn 0.38133882 -0.68526504 0.62047766
vn 0.16790867 -0.66008625 0.73218360
vn 0.25425498 -0.20446871 0.94527613
vn 0.25425498 0.20446871 0.94527613
vn 0.64938578 0.71563684 0.25721979
vn 0.66681797 0.71568507 0.20772260
vn 0.68055801 0.71570627 0.15686083
vn 0.69046607 0.71568776 0.10510768
vn 0.69639691 0.71571828 0.05271330
vn 0.69841256 0.71569540 0.00000000
vn 0.69639691 0.71571828 -0.05271330
vn 0.69046607 0.71568776 -0.10510768
vn 0.68053798 0.71571820 -0.15689334
vn 0.66684743 0.71565796 -0.20772142
vn 0.64938829 0.71565202 -0.25717122
vn 0.25425498 0.20446871 -0.94527613
vn 0.38140408 0.68524606 -0.62045851
vn 0.16790867 0.66008625 -0.73218360
vn 0.42871786 0.70712213 -0.56229822
vn 0.42872765 0.70709469 -0.56232527
vn 0.42842453 0.70723211 -0.56238348
vn 0.49765816 0.68507533 -0.53198511
vn 0.53267349 0.70713824 -0.46498867
vn 0.59474425 0.68491378 -0.42091851
vn 0.61570499 0.70712620 -0.34767787
vn 0.66777041 0.68483221 -0.29169766
vn 0.00000000 1.00000000 0.00000000
vn 0.67354359 0.70708113 -0.21534928
vn 0.71370269 0.68451541 -0.14855008
vn 0.70291275 0.70765278 -0.07170216
vn 0.70343012 0.70701676 -0.07289281
vn 0.72883171 0.68469288 0.00000770
vn 0.70340651 0.70704603 0.07283678
vn 0.70307014 0.70746807 0.07198132
vn 0.71387398 0.68437822 0.14835900
vn 0.67355435 0.70712566 0.21516931
vn 0.67365189 0.70675550 0.21607823
vn 0.66721705 0.68506705 0.29241162
vn 0.00000000 1.00000000 0.00000000
vn 0.61581631 0.70733692 0.34705153
vn 0.59527273 0.68472173 0.42048368
vn 0.53267349 0.70713824 0.46498867
vn 0.49764147 0.68504453 0.53204037
vn 0.42848093 0.70718093 0.56240486
vn 0.42872588 0.70711945 0.56229548
vn 0.38140408 0.68524606 0.62045851
vn 0.16790867 0.66008625 0.73218360
vn 0.00000000 0.00000000 1.00000000
vn 0.00000000 0.00000000 1.00000000
vn 0.00000000 0.00000000 1.00000000
vn 0.00000000 0.00000000 1.00000000
vn 0.00000000 0.00000000 1.00000000
vn 0.00000000 0.00000000 1.00000000
vn 0.00000000 0.00000000 1.00000000
vn 0.00000000 0.00000000 1.00000000
vn 0.00000000 0.00000000 1.00000000
vn 0.00000000 0.00000000 1.00000000
vn 0.00000000 0.00000000 1.00000000
vn 0.00000000 0.00000000 1.00000000
vn 0.00000000 0.00000000 1.00000000
vn 0.00000000 0.00000000 1.00000000
vn 0.00000000 0.00000000 1.00000000
vn 0.00000000 0.00000000 1.00000000
vn 0.00000000 0.00000000 1.00000000
vn 0.00000000 0.00000000 1.00000000
vn 0.00000000 0.00000000 1.00000000
vn 0.00000000 0.00000000 1.00000000
vn 0.00000000 0.00000000 1.00000000
vn 0.00000000 0.00000000 1.00000000
vn 0.00000000 0.00000000 1.00000000
vn 0.00000000 0.00000000 1.00000000
vn 0.35766885 -0.73033601 -0.58196418
vn 0.14499892 -0.76104748 -0.63228320
vn 0.46660528 -0.73050196 -0.49864457
vn 0.55726250 -0.73071482 -0.39435309
vn 0.62551367 -0.73082677 -0.27317554
vn 0.66785919 -0.73105436 -0.13972694
vn 0.68237766 -0.73099981 -0.00000000
vn 0.66785919 -0.73105436 0.13972694
vn 0.62551367 -0.73082677 0.27317554
vn 0.55726250 -0.73071482 0.39435309
vn 0.46660528 -0.73050196 0.49864457
vn 0.35766885 -0.73033601 0.58196418
vn 0.14499892 -0.76104748 0.63228320
vn 0.35767196 0.73034039 0.58195677
vn 0.14499892 0.76104748 0.63228320
vn 0.46659785 0.73051114 0.49863806
vn 0.55725436 0.73072915 0.39433804
vn 0.62550404 0.73082935 0.27319072
vn 0.66786232 0.73105227 0.13972296
vn 0.68237671 0.73100070 -0.00000073
vn 0.66786350 0.73105113 -0.13972325
vn 0.62551434 0.73082420 -0.27318089
vn 0.55725565 0.73071886 -0.39435529
vn 0.46660652 0.73050601 -0.49863747
vn 0.35766868 0.73033716 -0.58196285
vn 0.14499892 0.76104748 -0.63228320
vn 0.57735027 -0.57735027 -0.57735027
vn 0.57735027 0.57735027 -0.57735027
vn 0.57735027 -0.57735027 0.57735027
vn 0.57735027 0.57735027 0.57735027
vn -0.16798945 0.66006616 0.73218318
vn -0.16798945 -0.66006616 0.73218318
vn -0.38136571 0.68529509 0.62042794
vn -0.38136571 -0.68529509 0.62042794
vn -0.49769480 0.68510989 0.53190631
vn -0.49769480 -0.68510989 0.53190631
vn -0.59468873 -0.68495365 0.42093208
vn -0.59468873 0.68495365 0.42093208
vn -0.66786002 -0.68477509 0.29162659
vn -0.66786002 0.68477509 0.29162659
vn -0.71342127 -0.68467381 0.14917056
vn -0.71342127 0.68467381 0.14917056
vn -0.72886127 -0.68466141 0.00000000
vn -0.72886127 0.68466141 -0.00000000
vn -0.71342127 -0.68467381 -0.14917056
vn -0.71342127 0.68467381 -0.14917056
vn -0.66786002 -0.68477509 -0.29162659
vn -0.66786002 0.68477509 -0.29162659
vn -0.59468873 -0.68495365 -0.42093208
vn -0.59468873 0.68495365 -0.42093208
vn -0.49769480 -0.68510989 -0.53190631
vn -0.49769480 0.68510989 -0.53190631
vn 0.57735027 0.57735027 0.57735027
vn 0.57735027 -0.57735027 0.57735027
vn -0.38136571 0.68529509 -0.62042794
vn -0.38136571 -0.68529509 -0.62042794
vn -0.16798945 -0.66006616 -0.73218318
vn 0.57735027 -0.57735027 -0.57735027
vn 0.57735027 0.57735027 -0.57735027
vn -0.16798945 0.66006616 -0.73218318
f 1//1 2//2 3//3
f 1//1 4//4 2//2
f 1//1 5//5 4//4
f 1//1 6//6 5//5
f 1//1 7//7 6//6
f 1//1 8//8 7//7
f 1//1 9//9 8//8
f 1//1 10//10 9//9
f 1//1 11//11 10//10
f 1//1 12//12 11//11
f 13//13 12//12 1//1
f 12//12 13//13 14//14
f 8//8 15//15 7//7
f 15//15 8//8 16//16
f 16//16 17//17 15//15
f 17//17 16//16 18//18
f 19//19 20//20 21//21
f 22//22 21//21 20//20
f 23//23 21//21 22//22
f 24//24 23//23 22//22
f 25//25 21//21 23//23
f 23//23 24//24 26//26
f 26//26 24//24 23//23
f 23//23 21//21 25//25
f 22//22 23//23 24//24
f 22//22 21//21 23//23
f 20//20 21//21 22//22
f 21//21 20//20 19//19
f 27//27 28//28 29//29
f 30//30 29//29 28//28
f 31//31 29//29 30//30
f 32//32 29//29 31//31
f 33//33 34//34 28//28
f 30//30 28//28 34//34
f 35//35 36//36 37//37
f 38//38 37//37 36//36
f 33//33 37//37 38//38
f 34//34 33//33 38//38
f 38//38 33//33 34//34
f 38//38 37//37 33//33
f 36//36 37//37 38//38
f 37//37 36//36 35//35
f 34//34 28//28 30//30
f 28//28 34//34 33//33
f 31//31 29//29 32//32
f 30//30 29//29 31//31
f 28//28 29//29 30//30
f 29//29 28//28 27//27
f 39//39 40//40 41//41
f 42//42 41//41 40//40
f 43//43 42//42 40//40
f 44//44 45//45 46//46
f 47//47 46//46 45//45
f 48//48 49//49 39//39
f 40//40 39//39 49//49
f 44//44 40//40 49//49
f 45//45 44//44 49//49
f 50//50 49//49 48//48
f 48//48 49//49 50//50
f 49//49 44//44 45//45
f 49//49 40//40 44//44
f 49//49 39//39 40//40
f 39//39 49//49 48//48
f 45//45 46//46 47//47
f 46//46 45//45 44//44
f 40//40 42//42 43//43
f 40//40 41//41 42//42
f 41//41 40//40 39//39
f 51//51 52//52 53//53
f 54//54 53//53 52//52
f 55//55 53//53 54//54
f 56//56 53//53 55//55
f 57//57 58//58 52//52
f 54//54 52//52 58//58
f 59//59 60//60 61//61
f 62//62 61//61 60//60
f 57//57 61//61 62//62
f 58//58 57//57 62//62
f 62//62 57//57 58//58
f 62//62 61//61 57//57
f 60//60 61//61 62//62
f 61//61 60//60 59//59
f 58//58 52//52 54//54
f 52//52 58//58 57//57
f 55//55 53//53 56//56
f 54//54 53//53 55//55
f 52//52 53//53 54//54
f 53//53 52//52 51//51
f 63//63 64//64 65//65
f 66//66 65//65 64//64
f 67//67 65//65 66//66
f 68//68 67//67 66//66
f 69//69 67//67 68//68
f 70//70 69//69 68//68
f 71//71 69//69 70//70
f 72//72 69//69 71//71
f 73//73 72//72 71//71
f 74//74 72//72 73//73
f 75//75 74//74 73//73
f 76//76 74//74 75//75
f 77//77 74//74 76//76
f 78//78 77//77 76//76
f 79//79 77//77 78//78
f 80//80 77//77 79//79
f 81//81 77//77 80//80
f 82//82 77//77 81//81
f 83//83 82//82 81//81
f 84//84 82//82 83//83
f 85//85 82//82 84//84
f 86//86 82//82 85//85
f 87//87 82//82 86//86
f 88//88 87//87 86//86
f 89//89 87//87 88//88
f 90//90 87//87 89//89
f 91//91 87//87 90//90
f 92//92 91//91 90//90
f 93//93 91//91 92//92
f 94//94 91//91 93//93
f 95//95 94//94 93//93
f 96//96 94//94 95//95
f 97//97 94//94 96//96
f 98//98 94//94 97//97
f 99//99 94//94 98//98
f 100//100 101//101 78//78
f 79//79 78//78 101//101
f 102//102 101//101 100//100
f 103//103 102//102 100//100
f 104//104 103//103 100//100
f 105//105 104//104 100//100
f 106//106 105//105 100//100
f 107//107 105//105 106//106
f 108//108 107//107 106//106
f 109//109 108//108 106//106
f 110//110 109//109 106//106
f 111//111 110//110 106//106
f 112//112 110//110 111//111
f 113//113 112//112 111//111
f 114//114 113//113 111//111
f 115//115 113//113 114//114
f 116//116 115//115 114//114
f 117//117 116//116 114//114
f 118//118 116//116 117//117
f 119//119 118//118 117//117
f 99//99 119//119 117//117
f 94//94 99//99 117//117
f 120//120 94//94 117//117
f 121//121 120//120 117//117
f 122//122 120//120 121//121
f 123//123 120//120 122//122
f 124//124 123//123 122//122
f 125//125 123//123 124//124
f 126//126 125//125 124//124
f 127//127 125//125 126//126
f 128//128 125//125 127//127
f 129//129 128//128 127//127
f 130//130 128//128 129//129
f 131//131 130//130 129//129
f 132//132 130//130 131//131
f 133//133 130//130 132//132
f 132//132 130//130 133//133
f 131//131 130//130 132//132
f 129//129 130//130 131//131
f 129//129 128//128 130//130
f 127//127 128//128 129//129
f 127//127 125//125 128//128
f 126//126 125//125 127//127
f 124//124 125//125 126//126
f 124//124 123//123 125//125
f 122//122 123//123 124//124
f 122//122 120//120 123//123
f 121//121 120//120 122//122
f 117//117 120//120 121//121
f 117//117 94//94 120//120
f 117//117 99//99 94//94
f 117//117 119//119 99//99
f 117//117 118//118 119//119
f 117//117 116//116 118//118
f 114//114 116//116 117//117
f 114//114 115//115 116//116
f 114//114 113//113 115//115
f 111//111 113//113 114//114
f 111//111 112//112 113//113
f 111//111 110//110 112//112
f 106//106 110//110 111//111
f 106//106 109//109 110//110
f 106//106 108//108 109//109
f 106//106 107//107 108//108
f 106//106 105//105 107//107
f 100//100 105//105 106//106
f 100//100 104//104 105//105
f 100//100 103//103 104//104
f 100//100 102//102 103//103
f 100//100 101//101 102//102
f 101//101 78//78 79//79
f 78//78 101//101 100//100
f 98//98 94//94 99//99
f 97//97 94//94 98//98
f 96//96 94//94 97//97
f 95//95 94//94 96//96
f 93//93 94//94 95//95
f 93//93 91//91 94//94
f 92//92 91//91 93//93
f 90//90 91//91 92//92
f 90//90 87//87 91//91
f 89//89 87//87 90//90
f 88//88 87//87 89//89
f 86//86 87//87 88//88
f 86//86 82//82 87//87
f 85//85 82//82 86//86
f 84//84 82//82 85//85
f 83//83 82//82 84//84
f 81//81 82//82 83//83
f 81//81 77//77 82//82
f 80//80 77//77 81//81
f 79//79 77//77 80//80
f 78//78 77//77 79//79
f 76//76 77//77 78//78
f 76//76 74//74 77//77
f 75//75 74//74 76//76
f 73//73 74//74 75//75
f 73//73 72//72 74//74
f 71//71 72//72 73//73
f 71//71 69//69 72//72
f 70//70 69//69 71//71
f 68//68 69//69 70//70
f 68//68 67//67 69//69
f 66//66 67//67 68//68
f 66//66 65//65 67//67
f 64//64 65//65 66//66
f 65//65 64//64 63//63
f 134//134 135//135 136//136
f 137//137 136//136 135//135
f 138//138 137//137 135//135
f 139//139 137//137 138//138
f 138//138 137//137 139//139
f 135//135 137//137 138//138
f 135//135 136//136 137//137
f 136//136 135//135 134//134
f 140//140 141//141 142//142
f 143//143 142//142 141//141
f 144//144 145//145 146//146
f 140//140 146//146 145//145
f 147//147 140//140 145//145
f 148//148 140//140 147//147
f 141//141 140//140 148//148
f 148//148 140//140 141//141
f 147//147 140//140 148//148
f 145//145 140//140 147//147
f 145//145 146//146 140//140
f 146//146 145//145 144//144
f 141//141 142//142 143//143
f 142//142 141//141 140//140
f 149//149 150//150 151//151
f 152//152 151//151 150//150
f 153//153 152//152 150//150
f 154//154 152//152 153//153
f 155//155 152//152 154//154
f 156//156 152//152 155//155
f 157//157 152//152 156//156
f 158//158 159//159 160//160
f 161//161 160//160 159//159
f 162//162 160//160 161//161
f 163//163 162//162 161//161
f 164//164 162//162 163//163
f 165//165 164//164 163//163
f 166//166 164//164 165//165
f 157//157 166//166 165//165
f 152//152 157//157 165//165
f 167//167 152//152 165//165
f 168//168 167//167 165//165
f 169//169 167//167 168//168
f 170//170 171//171 172//172
f 173//173 172//172 171//171
f 174//174 172//172 173//173
f 175//175 174//174 173//173
f 176//176 174//174 175//175
f 177//177 176//176 175//175
f 178//178 176//176 177//177
f 179//179 178//178 177//177
f 180//180 178//178 179//179
f 181//181 180//180 179//179
f 182//182 183//183 149//149
f 150//150 149//149 183//183
f 158//158 150//150 183//183
f 159//159 158//158 183//183
f 184//184 183//183 182//182
f 185//185 184//184 182//182
f 186//186 185//185 182//182
f 187//187 185//185 186//186
f 188//188 187//187 186//186
f 169//169 188//188 186//186
f 167//167 169//169 186//186
f 170//170 167//167 186//186
f 171//171 170//170 186//186
f 189//189 171//171 186//186
f 190//190 171//171 189//189
f 191//191 190//190 189//189
f 192//192 190//190 191//191
f 193//193 190//190 192//192
f 194//194 193//193 192//192
f 195//195 194//194 192//192
f 196//196 194//194 195//195
f 197//197 196//196 195//195
f 198//198 196//196 197//197
f 199//199 198//198 197//197
f 197//197 198//198 199//199
f 197//197 196//196 198//198
f 195//195 196//196 197//197
f 195//195 194//194 196//196
f 192//192 194//194 195//195
f 192//192 193//193 194//194
f 192//192 190//190 193//193
f 191//191 190//190 192//192
f 189//189 190//190 191//191
f 189//189 171//171 190//190
f 186//186 171//171 189//189
f 186//186 170//170 171//171
f 186//186 167//167 170//170
f 186//186 169//169 167//167
f 186//186 188//188 169//169
f 186//186 187//187 188//188
f 186//186 185//185 187//187
f 182//182 185//185 186//186
f 182//182 184//184 185//185
f 182//182 183//183 184//184
f 183//183 158//158 159//159
f 183//183 150//150 158//158
f 183//183 149//149 150//150
f 149//149 183//183 182//182
f 179//179 180//180 181//181
f 179//179 178//178 180//180
f 177//177 178//178 179//179
f 177//177 176//176 178//178
f 175//175 176//176 177//177
f 175//175 174//174 176//176
f 173//173 174//174 175//175
f 173//173 172//172 174//174
f 171//171 172//172 173//173
f 172//172 171//171 170//170
f 168//168 167//167 169//169
f 165//165 167//167 168//168
f 165//165 152//152 167//167
f 165//165 157//157 152//152
f 165//165 166//166 157//157
f 165//165 164//164 166//166
f 163//163 164//164 165//165
f 163//163 162//162 164//164
f 161//161 162//162 163//163
f 161//161 160//160 162//162
f 159//159 160//160 161//161
f 160//160 159//159 158//158
f 156//156 152//152 157//157
f 155//155 152//152 156//156
f 154//154 152//152 155//155
f 153//153 152//152 154//154
f 150//150 152//152 153//153
f 150//150 151//151 152//152
f 151//151 150//150 149//149
f 200//200 201//201 202//202
f 203//203 202//202 201//201
f 201//201 202//202 203//203
f 202//202 201//201 200//200
f 204//204 205//205 206//206
f 207//207 206//206 205//205
f 208//208 207//207 205//205
f 209//209 207//207 208//208
f 210//210 207//207 209//209
f 211//211 207//207 210//210
f 212//212 207//207 211//211
f 213//213 214//214 215//215
f 216//216 215//215 214//214
f 217//217 215//215 216//216
f 218//218 217//217 216//216
f 219//219 217//217 218//218
f 220//220 219//219 218//218
f 221//221 219//219 220//220
f 212//212 221//221 220//220
f 207//207 212//212 220//220
f 222//222 207//207 220//220
f 223//223 222//222 220//220
f 224//224 222//222 223//223
f 225//225 226//226 227//227
f 228//228 227//227 226//226
f 229//229 227//227 228//228
f 230//230 229//229 228//228
f 231//231 229//229 230//230
f 232//232 231//231 230//230
f 233//233 231//231 232//232
f 234//234 233//233 232//232
f 235//235 233//233 234//234
f 236//236 235//235 234//234
f 237//237 238//238 204//204
f 205//205 204//204 238//238
f 213//213 205//205 238//238
f 214//214 213//213 238//238
f 239//239 238//238 237//237
f 240//240 239//239 237//237
f 241//241 240//240 237//237
f 242//242 240//240 241//241
f 243//243 242//242 241//241
f 224//224 243//243 241//241
f 222//222 224//224 241//241
f 225//225 222//222 241//241
f 226//226 225//225 241//241
f 244//244 226//226 241//241
f 245//245 226//226 244//244
f 246//246 245//245 244//244
f 247//247 245//245 246//246
f 248//248 245//245 247//247
f 249//249 248//248 247//247
f 250//250 249//249 247//247
f 251//251 249//249 250//250
f 252//252 251//251 250//250
f 253//253 251//251 252//252
f 254//254 253//253 252//252
f 252//252 253//253 254//254
f 252//252 251//251 253//253
f 250//250 251//251 252//252
f 250//250 249//249 251//251
f 247//247 249//249 250//250
f 247//247 248//248 249//249
f 247//247 245//245 248//248
f 246//246 245//245 247//247
f 244//244 245//245 246//246
f 244//244 226//226 245//245
f 241//241 226//226 244//244
f 241//241 225//225 226//226
f 241//241 222//222 225//225
f 241//241 224//224 222//222
f 241//241 243//243 224//224
f 241//241 242//242 243//243
f 241//241 240//240 242//242
f 237//237 240//240 241//241
f 237//237 239//239 240//240
f 237//237 238//238 239//239
f 238//238 213//213 214//214
f 238//238 205//205 213//213
f 238//238 204//204 205//205
f 204//204 238//238 237//237
f 234//234 235//235 236//236
f 234//234 233//233 235//235
f 232//232 233//233 234//234
f 232//232 231//231 233//233
f 230//230 231//231 232//232
f 230//230 229//229 231//231
f 228//228 229//229 230//230
f 228//228 227//227 229//229
f 226//226 227//227 228//228
f 227//227 226//226 225//225
f 223//223 222//222 224//224
f 220//220 222//222 223//223
f 220//220 207//207 222//222
f 220//220 212//212 207//207
f 220//220 221//221 212//212
f 220//220 219//219 221//221
f 218//218 219//219 220//220
f 218//218 217//217 219//219
f 216//216 217//217 218//218
f 216//216 215//215 217//217
f 214//214 215//215 216//216
f 215//215 214//214 213//213
f 211//211 207//207 212//212
f 210//210 207//207 211//211
f 209//209 207//207 210//210
f 208//208 207//207 209//209
f 205//205 207//207 208//208
f 205//205 206//206 207//207
f 206//206 205//205 204//204
f 255//255 256//256 257//257
f 258//258 257//257 256//256
f 259//259 258//258 256//256
f 260//260 258//258 259//259
f 259//259 258//258 260//260
f 256//256 258//258 259//259
f 256//256 257//257 258//258
f 257//257 256//256 255//255
f 261//261 262//262 263//263
f 264//264 263//263 262//262
f 265//265 264//264 262//262
f 266//266 267//267 268//268
f 269//269 268//268 267//267
f 270//270 271//271 261//261
f 262//262 261//261 271//271
f 266//266 262//262 271//271
f 267//267 266//266 271//271
f 272//272 271//271 270//270
f 270//270 271//271 272//272
f 271//271 266//266 267//267
f 271//271 262//262 266//266
f 271//271 261//261 262//262
f 261//261 271//271 270//270
f 267//267 268//268 269//269
f 268//268 267//267 266//266
f 262//262 264//264 265//265
f 262//262 263//263 264//264
f 263//263 262//262 261//261
f 273//273 274//274 275//275
f 276//276 275//275 274//274
f 277//277 275//275 276//276
f 276//276 275//275 277//277
f 274//274 275//275 276//276
f 275//275 274//274 273//273
f 278//278 279//279 274//274
f 280//280 276//276 279//279
f 274//274 279//279 276//276
f 276//276 279//279 274//274
f 279//279 276//276 280//280
f 274//274 279//279 278//278
f 281//281 282//282 283//283
f 281//281 284//284 282//282
f 285//285 284//284 281//281
f 285//285 286//286 284//284
f 287//287 286//286 285//285
f 287//287 288//288 286//286
f 289//289 288//288 287//287
f 289//289 290//290 288//288
f 291//291 290//290 289//289
f 291//291 292//292 290//290
f 291//291 293//293 292//292
f 294//294 293//293 291//291
f 294//294 295//295 293//293
f 296//296 295//295 294//294
f 296//296 297//297 295//295
f 298//298 297//297 296//296
f 298//298 299//299 297//297
f 300//300 299//299 298//298
f 300//300 301//301 299//299
f 302//302 301//301 300//300
f 302//302 303//303 301//301
f 304//304 303//303 302//302
f 305//305 303//303 304//304
f 303//303 305//305 306//306
f 303//303 307//307 308//308
f 307//307 303//303 306//306
f 301//301 308//308 309//309
f 308//308 301//301 303//303
f 299//299 309//309 310//310
f 309//309 299//299 301//301
f 297//297 310//310 311//311
f 310//310 297//297 299//299
f 295//295 311//311 312//312
f 311//311 295//295 297//297
f 293//293 312//312 313//313
f 312//312 293//293 295//295
f 292//292 313//313 314//314
f 313//313 292//292 293//293
f 315//315 292//292 314//314
f 292//292 315//315 290//290
f 288//288 315//315 316//316
f 315//315 288//288 290//290
f 317//317 288//288 316//316
f 288//288 317//317 286//286
f 318//318 286//286 317//317
f 286//286 318//318 284//284
f 319//319 284//284 318//318
f 284//284 319//319 282//282
f 319//319 320//320 321//321
f 319//319 322//322 320//320
f 318//318 322//322 319//319
f 318//318 323//323 322//322
f 318//318 324//324 323//323
f 318//318 325//325 324//324
f 318//318 326//326 325//325
f 317//317 326//326 318//318
f 317//317 327//327 326//326
f 316//316 327//327 317//317
f 316//316 328//328 327//327
f 316//316 329//329 328//328
f 316//316 330//330 329//329
f 315//315 330//330 316//316
f 315//315 331//331 330//330
f 315//315 332//332 331//331
f 315//315 333//333 332//332
f 314//314 333//333 315//315
f 314//314 334//334 333//333
f 313//313 334//334 314//314
f 313//313 335//335 334//334
f 313//313 336//336 335//335
f 312//312 336//336 313//313
f 312//312 337//337 336//336
f 312//312 338//338 337//337
f 312//312 339//339 338//338
f 311//311 339//339 312//312
f 311//311 340//340 339//339
f 311//311 341//341 340//340
f 311//311 342//342 341//341
f 310//310 342//342 311//311
f 310//310 343//343 342//342
f 310//310 344//344 343//343
f 309//309 344//344 310//310
f 309//309 345//345 344//344
f 309//309 346//346 345//345
f 309//309 347//347 346//346
f 308//308 347//347 309//309
f 308//308 348//348 347//347
f 308//308 349//349 348//348
f 307//307 349//349 308//308
f 349//349 307//307 350//350
f 351//351 352//352 353//353
f 354//354 352//352 351//351
f 354//354 355//355 352//352
f 356//356 355//355 354//354
f 356//356 357//357 355//355
f 358//358 357//357 356//356
f 358//358 359//359 357//357
f 360//360 359//359 358//358
f 360//360 361//361 359//359
f 362//362 361//361 360//360
f 362//362 363//363 361//361
f 364//364 363//363 362//362
f 364//364 365//365 363//363
f 366//366 365//365 364//364
f 366//366 367//367 365//365
f 368//368 367//367 366//366
f 368//368 369//369 367//367
f 370//370 369//369 368//368
f 370//370 371//371 369//369
f 372//372 371//371 370//370
f 372//372 373//373 371//371
f 373//373 372//372 374//374
f 375//375 283//283 376//376
f 283//283 375//375 281//281
f 377//377 281//281 375//375
f 281//281 377//377 285//285
f 377//377 287//287 285//285
f 287//287 377//377 378//378
f 378//378 289//289 287//287
f 289//289 378//378 379//379
f 379//379 291//291 289//289
f 291//291 379//379 380//380
f 380//380 294//294 291//291
f 294//294 380//380 381//381
f 381//381 296//296 294//294
f 296//296 381//381 382//382
f 382//382 298//298 296//296
f 298//298 382//382 383//383
f 383//383 300//300 298//298
f 300//300 383//383 384//384
f 384//384 302//302 300//300
f 302//302 384//384 385//385
f 302//302 386//386 304//304
f 386//386 302//302 385//385
f 304//304 387//387 305//305
f 387//387 304//304 386//386
f 388//388 350//350 389//389
f 350//350 388//388 349//349
f 388//388 348//348 349//349
f 388//388 347//347 348//348
f 390//390 347//347 388//388
f 347//347 390//390 346//346
f 391//391 345//345 390//390
f 345//345 391//391 344//344
f 390//390 345//345 346//346
f 392//392 343//343 391//391
f 341//341 343//343 392//392
f 343//343 341//341 342//342
f 391//391 343//343 344//344
f 393//393 339//339 392//392
f 339//339 393//393 338//338
f 340//340 392//392 339//339
f 392//392 340//340 341//341
f 335//335 393//393 394//394
f 336//336 393//393 335//335
f 337//337 393//393 336//336
f 393//393 337//337 338//338
f 332//332 394//394 395//395
f 333//333 394//394 332//332
f 334//334 394//394 333//333
f 394//394 334//334 335//335
f 396//396 331//331 395//395
f 329//329 331//331 396//396
f 331//331 329//329 330//330
f 395//395 331//331 332//332
f 327//327 396//396 397//397
f 328//328 396//396 327//327
f 396//396 328//328 329//329
f 398//398 326//326 397//397
f 326//326 398//398 325//325
f 397//397 326//326 327//327
f 322//322 399//399 320//320
f 323//323 399//399 322//322
f 324//324 399//399 323//323
f 325//325 399//399 324//324
f 399//399 325//325 398//398
f 320//320 400//400 321//321
f 400//400 320//320 399//399
f 401//401 282//282 402//402
f 376//376 282//282 401//401
f 282//282 376//376 283//283
f 319//319 402//402 282//282
f 321//321 402//402 319//319
f 402//402 321//321 400//400
f 403//403 402//402 404//404
f 402//402 403//403 401//401
f 9//9 16//16 8//8
f 10//10 16//16 9//9
f 11//11 16//16 10//10
f 11//11 18//18 16//16
f 18//18 11//11 12//12
f 5//5 17//17 4//4
f 6//6 17//17 5//5
f 7//7 17//17 6//6
f 17//17 7//7 15//15
f 404//404 3//3 403//403
f 404//404 1//1 3//3
f 404//404 353//353 1//1
f 404//404 351//351 353//353
f 404//404 354//354 351//351
f 404//404 356//356 354//354
f 404//404 358//358 356//356
f 404//404 360//360 358//358
f 404//404 362//362 360//360
f 404//404 364//364 362//362
f 404//404 366//366 364//364
f 404//404 368//368 366//366
f 372//372 13//13 374//374
f 370//370 13//13 372//372
f 13//13 405//405 14//14
f 370//370 405//405 13//13
f 368//368 405//405 370//370
f 405//405 368//368 404//404
f 2//2 403//403 3//3
f 4//4 403//403 2//2
f 17//17 403//403 4//4
f 18//18 403//403 17//17
f 14//14 18//18 12//12
f 405//405 18//18 14//14
f 18//18 406//406 403//403
f 406//406 18//18 405//405
f 352//352 1//1 353//353
f 355//355 1//1 352//352
f 357//357 1//1 355//355
f 359//359 1//1 357//357
f 361//361 1//1 359//359
f 363//363 1//1 361//361
f 365//365 1//1 363//363
f 365//365 13//13 1//1
f 367//367 13//13 365//365
f 369//369 13//13 367//367
f 371//371 13//13 369//369
f 373//373 13//13 371//371
f 13//13 373//373 374//374
f 407//407 406//406 405//405
f 406//406 407//407 408//408
f 409//409 408//408 407//407
f 408//408 409//409 410//410
f 411//411 409//409 412//412
f 409//409 411//411 410//410
f 413//413 412//412 414//414
f 412//412 413//413 411//411
f 415//415 414//414 416//416
f 414//414 415//415 413//413
f 417//417 416//416 418//418
f 416//416 417//417 415//415
f 419//419 418//418 420//420
f 418//418 419//419 417//417
f 421//421 420//420 422//422
f 420//420 421//421 419//419
f 423//423 422//422 424//424
f 422//422 423//423 421//421
f 425//425 424//424 426//426
f 424//424 425//425 423//423
f 427//427 307//307 428//428
f 389//389 307//307 427//427
f 307//307 389//389 350//350
f 306//306 428//428 307//307
f 305//305 428//428 306//306
f 428//428 305//305 387//387
f 425//425 429//429 430//430
f 429//429 425//425 426//426
f 410//410 376//376 408//408
f 410//410 375//375 376//376
f 410//410 377//377 375//375
f 411//411 377//377 410//410
f 411//411 378//378 377//377
f 413//413 378//378 411//411
f 413//413 379//379 378//378
f 415//415 379//379 413//413
f 415//415 380//380 379//379
f 417//417 380//380 415//415
f 417//417 381//381 380//380
f 417//417 382//382 381//381
f 419//419 382//382 417//417
f 419//419 383//383 382//382
f 421//421 383//383 419//419
f 421//421 384//384 383//383
f 423//423 384//384 421//421
f 423//423 385//385 384//384
f 423//423 386//386 385//385
f 425//425 386//386 423//423
f 425//425 387//387 386//386
f 430//430 387//387 425//425
f 430//430 428//428 387//387
f 431//431 428//428 430//430
f 428//428 431//431 432//432
f 408//408 403//403 406//406
f 376//376 403//403 408//408
f 403//403 376//376 401//401
f 428//428 433//433 427//427
f 433//433 428//428 432//432
f 404//404 407//407 405//405
f 402//402 407//407 404//404
f 400//400 407//407 402//402
f 400//400 409//409 407//407
f 399//399 409//409 400//400
f 398//398 409//409 399//399
f 398//398 412//412 409//409
f 397//397 412//412 398//398
f 397//397 414//414 412//412
f 396//396 414//414 397//397
f 396//396 416//416 414//414
f 395//395 416//416 396//396
f 394//394 416//416 395//395
f 394//394 418//418 416//416
f 393//393 418//418 394//394
f 393//393 420//420 418//418
f 392//392 420//420 393//393
f 392//392 422//422 420//420
f 391//391 422//422 392//392
f 391//391 424//424 422//422
f 390//390 424//424 391//391
f 388//388 424//424 390//390
f 388//388 426//426 424//424
f 389//389 426//426 388//388
f 389//389 429//429 426//426
f 427//427 429//429 389//389
f 433//433 429//429 427//427
f 429//429 433//433 434//434
f 430//430 434//434 431//431
f 434//434 430//430 429//429
f 431//431 433//433 432//432
f 433//433 431//431 434//434