# https://github.com/mikedh/trimesh
v -0.08617000 -0.02927000 0.01177800
v -0.08465700 -0.02927000 0.01732600
v -0.08617000 -0.02927000 0.01732600
v -0.08465700 -0.02927000 0.01177800
v 0.02202200 -0.03280100 -0.00214800
v 0.02093100 -0.02927000 0.00614100
v 0.02202200 -0.02927000 -0.00214800
v 0.02093100 -0.03280100 0.00614100
v 0.02522200 -0.03280100 -0.00987400
v 0.02522200 -0.02927000 -0.00987400
v 0.02202200 -0.02927000 0.01443200
v 0.02202200 -0.03280100 0.01443200
v 0.03031200 -0.03280100 -0.01650800
v 0.03031200 -0.02927000 -0.01650800
v 0.02522200 -0.02927000 0.02215600
v 0.02522200 -0.03280100 0.02215600
v 0.03694600 -0.02927000 -0.02159800
v 0.03694600 -0.03280100 -0.02159800
v 0.03031200 -0.02927000 0.02879100
v 0.03031200 -0.03280100 0.02879100
v 0.04467100 -0.02927000 -0.02479800
v 0.04467100 -0.03280100 -0.02479800
v 0.03694600 -0.03280100 0.03388100
v 0.03694600 -0.02927000 0.03388100
v 0.05296100 -0.02927000 -0.02588900
v 0.05296100 -0.03280100 -0.02588900
v 0.04467100 -0.03280100 0.03708000
v 0.04467100 -0.02927000 0.03708000
v 0.06125100 -0.02927000 -0.02479800
v 0.06125100 -0.03280100 -0.02479800
v 0.05296100 -0.03280100 0.03817200
v 0.05296100 -0.02927000 0.03817200
v 0.06897700 -0.02927000 -0.02159800
v 0.06897700 -0.03280100 -0.02159800
v 0.06125100 -0.03280100 0.03708000
v 0.06125100 -0.02927000 0.03708000
v 0.07561100 -0.02927000 -0.01650800
v 0.07561100 -0.03280100 -0.01650800
v 0.06897700 -0.03280100 0.03388100
v 0.06897700 -0.02927000 0.03388100
v 0.08070000 -0.03280100 -0.00987400
v 0.08070000 -0.02927000 -0.00987400
v 0.07561100 -0.03280100 0.02879100
v 0.07561100 -0.02927000 0.02879100
v 0.08390100 -0.03280100 -0.00214800
v 0.08390100 -0.02927000 -0.00214800
v 0.08070000 -0.02927000 0.02215600
v 0.08070000 -0.03280100 0.02215600
v 0.08499200 -0.03280100 0.00614100
v 0.08499200 -0.02927000 0.00614100
v 0.08390100 -0.02927000 0.01443200
v 0.08390100 -0.03280100 0.01443200
v 0.02531000 -0.03280100 -0.07479800
v 0.02422000 -0.02927000 -0.06650800
v 0.02531000 -0.02927000 -0.07479800
v 0.02422000 -0.03280100 -0.06650800
v 0.02851000 -0.03280100 -0.08252300
v 0.02851000 -0.02927000 -0.08252300
v 0.02531000 -0.02927000 -0.05821800
v 0.02531000 -0.03280100 -0.05821800
v 0.03360100 -0.03280100 -0.08915700
v 0.03360100 -0.02927000 -0.08915700
v 0.02851000 -0.02927000 -0.05049300
v 0.02851000 -0.03280100 -0.05049300
v 0.04023500 -0.02927000 -0.09424700
v 0.04023500 -0.03280100 -0.09424700
v 0.03360100 -0.02927000 -0.04385900
v 0.03360100 -0.03280100 -0.04385900
v 0.04796000 -0.02927000 -0.09744700
v 0.04796000 -0.03280100 -0.09744700
v 0.04023500 -0.03280100 -0.03876900
v 0.04023500 -0.02927000 -0.03876900
v 0.05625000 -0.02927000 -0.09853900
v 0.05625000 -0.03280100 -0.09853900
v 0.04796000 -0.03280100 -0.03556900
v 0.04796000 -0.02927000 -0.03556900
v 0.06454000 -0.02927000 -0.09744700
v 0.06454000 -0.03280100 -0.09744700
v 0.05625000 -0.03280100 -0.03447700
v 0.05625000 -0.02927000 -0.03447700
v 0.07226600 -0.02927000 -0.09424700
v 0.07226600 -0.03280100 -0.09424700
v 0.06454000 -0.03280100 -0.03556900
v 0.06454000 -0.02927000 -0.03556900
v 0.07889900 -0.02927000 -0.08915700
v 0.07889900 -0.03280100 -0.08915700
v 0.07226600 -0.03280100 -0.03876900
v 0.07226600 -0.02927000 -0.03876900
v 0.08398900 -0.03280100 -0.08252300
v 0.08398900 -0.02927000 -0.08252300
v 0.07889900 -0.03280100 -0.04385900
v 0.07889900 -0.02927000 -0.04385900
v 0.08718900 -0.03280100 -0.07479800
v 0.08718900 -0.02927000 -0.07479800
v 0.08398900 -0.02927000 -0.05049300
v 0.08398900 -0.03280100 -0.05049300
v 0.08828100 -0.03280100 -0.06650800
v 0.08828100 -0.02927000 -0.06650800
v 0.08718900 -0.02927000 -0.05821800
v 0.08718900 -0.03280100 -0.05821800
v -0.14099400 -0.03658400 -0.01602700
v -0.11577300 -0.02927000 -0.01602700
v -0.11577300 -0.03658400 -0.01602700
v -0.14099400 -0.02927000 -0.01602700
v -0.14099400 -0.02927000 -0.00846100
v -0.14099400 -0.03658400 -0.00846100
v -0.05406100 -0.02927000 -0.04796700
v -0.00866400 -0.02649600 -0.04796700
v -0.00866400 -0.02927000 -0.04796700
v -0.05406100 -0.02649600 -0.04796700
v -0.00866400 -0.02927000 -0.05603700
v -0.00866400 -0.02649600 -0.05603700
v -0.05406100 -0.02649600 -0.05603700
v -0.16291100 -0.02927000 0.04405600
v -0.16291100 0.02722500 0.04405600
v 0.10266600 -0.02927000 0.04405600
v 0.08839100 0.01511400 0.04405600
v 0.08821900 0.01642000 0.04405600
v 0.08889500 0.01389800 0.04405600
v 0.08969600 0.01285300 0.04405600
v 0.09074100 0.01205100 0.04405600
v 0.09195800 0.01154700 0.04405600
v 0.09326400 0.01137600 0.04405600
v 0.09456900 0.01154700 0.04405600
v 0.09578600 0.01205100 0.04405600
v 0.09683000 0.01285300 0.04405600
v 0.09763200 0.01389800 0.04405600
v 0.09813600 0.01511400 0.04405600
v 0.09830800 0.01642000 0.04405600
v 0.10266600 0.02722500 0.04405600
v 0.09074100 0.02078800 0.04405600
v 0.08969600 0.01998700 0.04405600
v 0.08889500 0.01894200 0.04405600
v 0.08839100 0.01772500 0.04405600
v 0.09195800 0.02129200 0.04405600
v 0.09326400 0.02146400 0.04405600
v 0.09456900 0.02129200 0.04405600
v 0.09578600 0.02078800 0.04405600
v 0.09683000 0.01998700 0.04405600
v 0.09763200 0.01894200 0.04405600
v 0.09813600 0.01772500 0.04405600
v 0.10266600 -0.02927000 -0.10323400
v 0.10266600 0.02722500 -0.10323400
v -0.16291100 0.02722500 -0.10323400
v -0.16291100 -0.02927000 -0.10323400
v -0.11577300 -0.02927000 -0.00846100
v 0.00604400 -0.02927000 0.01177800
v 0.00604400 -0.02927000 0.02842300
v -0.14099400 -0.02927000 0.02842300
v -0.05406100 -0.02927000 -0.05603700
v -0.14099400 -0.02927000 0.01177800
v 0.09456900 0.02129200 0.09878600
v 0.09578600 0.02078800 0.09878600
v 0.09683000 0.01998700 0.09878600
v 0.09763200 0.01894200 0.09878600
v 0.09813600 0.01772500 0.09878600
v 0.09830800 0.01642000 0.09878600
v 0.09813600 0.01511400 0.09878600
v 0.09763200 0.01389800 0.09878600
v 0.09683000 0.01285300 0.09878600
v 0.09578600 0.01205100 0.09878600
v 0.09456900 0.01154700 0.09878600
v 0.09326400 0.01137600 0.09878600
v 0.09195800 0.01154700 0.09878600
v 0.09074100 0.01205100 0.09878600
v 0.08969600 0.01285300 0.09878600
v 0.08889500 0.01389800 0.09878600
v 0.08839100 0.01511400 0.09878600
v 0.08821900 0.01642000 0.09878600
v 0.08839100 0.01772500 0.09878600
v 0.08889500 0.01894200 0.09878600
v 0.08969600 0.01998700 0.09878600
v 0.09074100 0.02078800 0.09878600
v 0.09326400 0.02146400 0.09878600
v 0.08933000 0.01642000 0.09878600
v 0.08946400 0.01540200 0.09878600
v 0.08985800 0.01445300 0.09878600
v 0.09048200 0.01363900 0.09878600
v 0.09129700 0.01301400 0.09878600
v 0.09224600 0.01262100 0.09878600
v 0.09326400 0.01248700 0.09878600
v 0.09428200 0.01262100 0.09878600
v 0.09523000 0.01301400 0.09878600
v 0.09604500 0.01363900 0.09878600
v 0.09666900 0.01445300 0.09878600
v 0.09706300 0.01540200 0.09878600
v 0.09719600 0.01642000 0.09878600
v 0.08946400 0.01743800 0.09878600
v 0.08985800 0.01838600 0.09878600
v 0.09048200 0.01920100 0.09878600
v 0.09129700 0.01982600 0.09878600
v 0.09195800 0.02129200 0.09878600
v 0.09224600 0.02021900 0.09878600
v 0.09326400 0.02035300 0.09878600
v 0.09428200 0.02021900 0.09878600
v 0.09523000 0.01982600 0.09878600
v 0.09604500 0.01920100 0.09878600
v 0.09666900 0.01838600 0.09878600
v 0.09706300 0.01743800 0.09878600
v 0.09604500 0.01363900 0.14014800
v 0.09666900 0.01445300 0.14014800
v 0.09523000 0.01301400 0.14014800
v 0.09428200 0.01262100 0.14014800
v 0.09326400 0.01248700 0.14014800
v 0.09224600 0.01262100 0.14014800
v 0.09129700 0.01301400 0.14014800
v 0.09048200 0.01363900 0.14014800
v 0.08985800 0.01445300 0.14014800
v 0.08946400 0.01540200 0.14014800
v 0.08933000 0.01642000 0.14014800
v 0.08946400 0.01743800 0.14014800
v 0.08985800 0.01838600 0.14014800
v 0.09048200 0.01920100 0.14014800
v 0.09129700 0.01982600 0.14014800
v 0.09224600 0.02021900 0.14014800
v 0.09326400 0.02035300 0.14014800
v 0.09428200 0.02021900 0.14014800
v 0.09523000 0.01982600 0.14014800
v 0.09604500 0.01920100 0.14014800
v 0.09666900 0.01838600 0.14014800
v 0.09706300 0.01743800 0.14014800
v 0.09706300 0.01540200 0.14014800
v 0.09065200 0.01642000 0.14014800
v 0.09074100 0.01574400 0.14014800
v 0.09100200 0.01511400 0.14014800
v 0.09141700 0.01457300 0.14014800
v 0.09195800 0.01415800 0.14014800
v 0.09258800 0.01389700 0.14014800
v 0.09326400 0.01380800 0.14014800
v 0.09393900 0.01389700 0.14014800
v 0.09456900 0.01415800 0.14014800
v 0.09511000 0.01457300 0.14014800
v 0.09552500 0.01511400 0.14014800
v 0.09578600 0.01574400 0.14014800
v 0.09587400 0.01642000 0.14014800
v 0.09074100 0.01709600 0.14014800
v 0.09100200 0.01772500 0.14014800
v 0.09141700 0.01826600 0.14014800
v 0.09195800 0.01868100 0.14014800
v 0.09258800 0.01894200 0.14014800
v 0.09326400 0.01903100 0.14014800
v 0.09393900 0.01894200 0.14014800
v 0.09456900 0.01868100 0.14014800
v 0.09511000 0.01826600 0.14014800
v 0.09552500 0.01772500 0.14014800
v 0.09578600 0.01709600 0.14014800
v 0.09719600 0.01642000 0.14014800
v 0.09141700 0.01457300 0.17495300
v 0.09100200 0.01511400 0.17495300
v 0.09074100 0.01574400 0.17495300
v 0.09195800 0.01415800 0.17495300
v 0.09065200 0.01642000 0.17495300
v 0.09258800 0.01389700 0.17495300
v 0.09074100 0.01709600 0.17495300
v 0.09326400 0.01380800 0.17495300
v 0.09100200 0.01772500 0.17495300
v 0.09393900 0.01389700 0.17495300
v 0.09141700 0.01826600 0.17495300
v 0.09456900 0.01415800 0.17495300
v 0.09195800 0.01868100 0.17495300
v 0.09511000 0.01457300 0.17495300
v 0.09258800 0.01894200 0.17495300
v 0.09552500 0.01511400 0.17495300
v 0.09326400 0.01903100 0.17495300
v 0.09578600 0.01574400 0.17495300
v 0.09393900 0.01894200 0.17495300
v 0.09587400 0.01642000 0.17495300
v 0.09456900 0.01868100 0.17495300
v 0.09578600 0.01709600 0.17495300
v 0.09511000 0.01826600 0.17495300
v 0.09552500 0.01772500 0.17495300
v 0.05296100 -0.03280100 -0.02207900
v 0.06026500 -0.03280100 -0.02111800
v 0.06707200 -0.03280100 -0.01829800
v 0.07291600 -0.03280100 -0.01381400
v 0.07740200 -0.03280100 -0.00796900
v 0.08022000 -0.03280100 -0.00116300
v 0.08118200 -0.03280100 0.00614100
v 0.08022000 -0.03280100 0.01344500
v 0.07740200 -0.03280100 0.02025200
v 0.07291600 -0.03280100 0.02609600
v 0.06707200 -0.03280100 0.03058100
v 0.06026500 -0.03280100 0.03340100
v 0.05296100 -0.03280100 0.03436200
v 0.04565700 -0.03280100 -0.02111800
v 0.03885100 -0.03280100 -0.01829800
v 0.03300700 -0.03280100 -0.01381400
v 0.02852100 -0.03280100 -0.00796900
v 0.02570300 -0.03280100 -0.00116300
v 0.02474000 -0.03280100 0.00614100
v 0.02570300 -0.03280100 0.01344500
v 0.02852100 -0.03280100 0.02025200
v 0.03300700 -0.03280100 0.02609600
v 0.03885100 -0.03280100 0.03058100
v 0.04565700 -0.03280100 0.03340100
v 0.05625000 -0.03280100 -0.09453700
v 0.06350400 -0.03280100 -0.09358200
v 0.07026400 -0.03280100 -0.09078200
v 0.07606900 -0.03280100 -0.08632700
v 0.08052400 -0.03280100 -0.08052200
v 0.08332300 -0.03280100 -0.07376200
v 0.08427900 -0.03280100 -0.06650800
v 0.08332300 -0.03280100 -0.05925400
v 0.08052400 -0.03280100 -0.05249400
v 0.07606900 -0.03280100 -0.04668900
v 0.07026400 -0.03280100 -0.04223400
v 0.06350400 -0.03280100 -0.03943400
v 0.05625000 -0.03280100 -0.03847900
v 0.04899600 -0.03280100 -0.09358200
v 0.04223500 -0.03280100 -0.09078200
v 0.03643100 -0.03280100 -0.08632700
v 0.03197700 -0.03280100 -0.08052200
v 0.02917600 -0.03280100 -0.07376200
v 0.02822100 -0.03280100 -0.06650800
v 0.02917600 -0.03280100 -0.05925400
v 0.03197700 -0.03280100 -0.05249400
v 0.03643100 -0.03280100 -0.04668900
v 0.04223500 -0.03280100 -0.04223400
v 0.04899600 -0.03280100 -0.03943400
v -0.04480600 -0.02397400 0.01177800
v 0.00604400 -0.02397400 0.01177800
v -0.08465700 -0.02397400 0.01177800
v -0.08465700 -0.02397400 0.01732600
v -0.08617000 -0.02397400 0.01732600
v -0.08617000 -0.02397400 0.01177800
v -0.13238400 -0.02397400 0.01177800
v -0.14099400 -0.02397400 0.01177800
v -0.14099400 -0.02397400 0.02842300
v 0.00604400 -0.02397400 0.02842300
v -0.04480600 -0.02397400 0.02337900
v -0.01589900 -0.02397400 0.01630500
v -0.00219500 -0.02397400 0.01972600
v -0.13238400 -0.02397400 0.02312700
v -0.12978100 -0.02397400 0.01285900
v -0.12846600 -0.02397400 0.01799600
v -0.12432500 -0.02397400 0.01424500
v -0.12978100 -0.02397400 0.02312700
v -0.12609500 -0.02397400 0.02571100
v -0.07058300 -0.02397400 0.02041700
v -0.07058300 -0.02397400 0.01367400
v -0.06246600 -0.02397400 0.01442700
v -0.11372500 -0.02397400 0.02504600
v -0.11009700 -0.02397400 0.01536200
v -0.09677800 -0.02397400 0.02199700
v -0.07666300 -0.02397400 0.02041700
v -0.06246600 -0.02397400 0.02041700
v -0.11577300 -0.03658400 -0.00846100
v 0.09606300 0.01402700 0.17495300
v 0.09533200 0.01336200 0.17495300
v 0.09445400 0.01291000 0.17495300
v 0.09349000 0.01270000 0.17495300
v 0.09250300 0.01274700 0.17495300
v 0.09156200 0.01304800 0.17495300
v 0.09073100 0.01358100 0.17495300
v 0.09028500 0.01891300 0.17495300
v 0.09006700 0.01431200 0.17495300
v 0.08975200 0.01808200 0.17495300
v 0.08961500 0.01519000 0.17495300
v 0.08945100 0.01714100 0.17495300
v 0.08940500 0.01615500 0.17495300
v 0.09689700 0.01579800 0.17495300
v 0.09673400 0.01775000 0.17495300
v 0.09694500 0.01678500 0.17495300
v 0.09659700 0.01485700 0.17495300
v 0.09628200 0.01862700 0.17495300
v 0.09561700 0.01935800 0.17495300
v 0.09478700 0.01989200 0.17495300
v 0.09384600 0.02019300 0.17495300
v 0.09285900 0.02024000 0.17495300
v 0.09189500 0.02003000 0.17495300
v 0.09101700 0.01957700 0.17495300
v 0.09478700 0.01989200 0.17999800
v 0.09561700 0.01935800 0.17999800
v 0.09628200 0.01862700 0.17999800
v 0.09673400 0.01775000 0.17999800
v 0.09694500 0.01678500 0.17999800
v 0.09689700 0.01579800 0.17999800
v 0.09659700 0.01485700 0.17999800
v 0.09606300 0.01402700 0.17999800
v 0.09533200 0.01336200 0.17999800
v 0.09445400 0.01291000 0.17999800
v 0.09349000 0.01270000 0.17999800
v 0.09250300 0.01274700 0.17999800
v 0.09156200 0.01304800 0.17999800
v 0.09073100 0.01358100 0.17999800
v 0.09006700 0.01431200 0.17999800
v 0.08961500 0.01519000 0.17999800
v 0.08940500 0.01615500 0.17999800
v 0.08945100 0.01714100 0.17999800
v 0.08975200 0.01808200 0.17999800
v 0.09028500 0.01891300 0.17999800
v 0.09101700 0.01957700 0.17999800
v 0.09189500 0.02003000 0.17999800
v 0.09285900 0.02024000 0.17999800
v 0.09384600 0.02019300 0.17999800
v 0.06861400 -0.03280100 0.01959300
v 0.06939700 -0.03280100 0.01969600
v 0.07012700 -0.03280100 0.01999900
v 0.07075400 -0.03280100 0.02047900
v 0.07123500 -0.03280100 0.02110600
v 0.07153700 -0.03280100 0.02183600
v 0.07164000 -0.03280100 0.02262000
v 0.07153700 -0.03280100 0.02340200
v 0.07123500 -0.03280100 0.02413300
v 0.07075400 -0.03280100 0.02475900
v 0.07012700 -0.03280100 0.02524100
v 0.06939700 -0.03280100 0.02554300
v 0.06861400 -0.03280100 0.02564600
v 0.06783100 -0.03280100 0.01969600
v 0.06710000 -0.03280100 0.01999900
v 0.06647400 -0.03280100 0.02047900
v 0.06599300 -0.03280100 0.02110600
v 0.06569100 -0.03280100 0.02183600
v 0.06558700 -0.03280100 0.02262000
v 0.06569100 -0.03280100 0.02340200
v 0.06599300 -0.03280100 0.02413300
v 0.06647400 -0.03280100 0.02475900
v 0.06710000 -0.03280100 0.02524100
v 0.06783100 -0.03280100 0.02554300
v 0.07368800 -0.03280100 -0.05511700
v 0.07440600 -0.03280100 -0.05502300
v 0.07507500 -0.03280100 -0.05474500
v 0.07565000 -0.03280100 -0.05430500
v 0.07609100 -0.03280100 -0.05373000
v 0.07636900 -0.03280100 -0.05306100
v 0.07646200 -0.03280100 -0.05234300
v 0.07636900 -0.03280100 -0.05162500
v 0.07609100 -0.03280100 -0.05095600
v 0.07565000 -0.03280100 -0.05038100
v 0.07507500 -0.03280100 -0.04994000
v 0.07440600 -0.03280100 -0.04966300
v 0.07368800 -0.03280100 -0.04956900
v 0.07297000 -0.03280100 -0.05502300
v 0.07230100 -0.03280100 -0.05474500
v 0.07172700 -0.03280100 -0.05430500
v 0.07128600 -0.03280100 -0.05373000
v 0.07100900 -0.03280100 -0.05306100
v 0.07091400 -0.03280100 -0.05234300
v 0.07100900 -0.03280100 -0.05162500
v 0.07128600 -0.03280100 -0.05095600
v 0.07172700 -0.03280100 -0.05038100
v 0.07230100 -0.03280100 -0.04994000
v 0.07297000 -0.03280100 -0.04966300
v 0.07636900 -0.03683600 -0.05306100
v 0.07646200 -0.03683600 -0.05234300
v 0.07609100 -0.03683600 -0.05373000
v 0.07565000 -0.03683600 -0.05430500
v 0.07507500 -0.03683600 -0.05474500
v 0.07440600 -0.03683600 -0.05502300
v 0.07368800 -0.03683600 -0.05511700
v 0.07297000 -0.03683600 -0.05502300
v 0.07230100 -0.03683600 -0.05474500
v 0.07172700 -0.03683600 -0.05430500
v 0.07128600 -0.03683600 -0.05373000
v 0.07100900 -0.03683600 -0.05306100
v 0.07091400 -0.03683600 -0.05234300
v 0.07100900 -0.03683600 -0.05162500
v 0.07128600 -0.03683600 -0.05095600
v 0.07172700 -0.03683600 -0.05038100
v 0.07230100 -0.03683600 -0.04994000
v 0.07297000 -0.03683600 -0.04966300
v 0.07368800 -0.03683600 -0.04956900
v 0.07440600 -0.03683600 -0.04966300
v 0.07507500 -0.03683600 -0.04994000
v 0.07565000 -0.03683600 -0.05038100
v 0.07609100 -0.03683600 -0.05095600
v 0.07636900 -0.03683600 -0.05162500
v 0.07153700 -0.03683600 0.02183600
v 0.07164000 -0.03683600 0.02262000
v 0.07123500 -0.03683600 0.02110600
v 0.07075400 -0.03683600 0.02047900
v 0.07012700 -0.03683600 0.01999900
v 0.06939700 -0.03683600 0.01969600
v 0.06861400 -0.03683600 0.01959300
v 0.06783100 -0.03683600 0.01969600
v 0.06710000 -0.03683600 0.01999900
v 0.06647400 -0.03683600 0.02047900
v 0.06599300 -0.03683600 0.02110600
v 0.06569100 -0.03683600 0.02183600
v 0.06558700 -0.03683600 0.02262000
v 0.06569100 -0.03683600 0.02340200
v 0.06599300 -0.03683600 0.02413300
v 0.06647400 -0.03683600 0.02475900
v 0.06710000 -0.03683600 0.02524100
v 0.06783100 -0.03683600 0.02554300
v 0.06861400 -0.03683600 0.02564600
v 0.06939700 -0.03683600 0.02554300
v 0.07012700 -0.03683600 0.02524100
v 0.07075400 -0.03683600 0.02475900
v 0.07123500 -0.03683600 0.02413300
v 0.07153700 -0.03683600 0.02340200
vn 0.00000000 -0.00000000 -0.00000000
vn 0.00000000 0.00000000 -0.00000000
vn 0.00000000 -0.00000000 0.00000000
vn 0.00000000 -0.00000000 -0.00000000
vn 0.00000000 -0.00000000 0.00000000
vn 0.00000000 -0.00000000 0.00000000
vn -0.00000000 -0.00000000 0.00000000
vn 0.00000000 0.00000000 0.00000000
vn 0.00000000 0.00000000 -0.00000000
vn 0.00000000 0.00000000 0.00000000
vn 0.00000000 -0.00000000 -0.00000000
vn -0.00000000 -0.00000000 0.00000000
vn -0.00000000 -0.00000000 -0.00000000
vn 0.00000000 0.00000000 -0.00000000
vn -0.00000000 0.00000000 0.00000000
vn 0.00000000 0.00000000 0.00000000
vn 0.00000000 0.00000000 0.00000000
vn -0.00000000 -0.00000000 -0.00000000
vn -0.00000000 0.00000000 0.00000000
vn 0.00000000 -0.00000000 0.00000000
vn -0.00000000 0.00000000 -0.00000000
vn 0.00000000 -0.00000000 0.00000000
vn 0.00000000 0.00000000 0.00000000
vn 0.00000000 0.00000000 -0.00000000
vn -0.00000000 -0.00000000 0.00000000
vn 0.00000000 -0.00000000 0.00000000
vn 0.00000000 -0.00000000 -0.00000000
vn -0.00000000 0.00000000 0.00000000
vn 0.00000000 0.00000000 -0.00000000
vn 0.00000000 0.00000000 0.00000000
vn 0.00000000 0.00000000 -0.00000000
vn -0.00000000 0.00000000 -0.00000000
vn 0.00000000 -0.00000000 -0.00000000
vn -0.00000000 0.00000000 0.00000000
vn -0.00000000 0.00000000 -0.00000000
vn 0.00000000 -0.00000000 0.00000000
vn 0.00000000 -0.00000000 -0.00000000
vn -0.00000000 0.00000000 0.00000000
vn 0.00000000 0.00000000 0.00000000
vn -0.00000000 -0.00000000 -0.00000000
vn 0.00000000 0.00000000 -0.00000000
vn 0.00000000 -0.00000000 0.00000000
vn 0.00000000 -0.00000000 0.00000000
vn -0.00000000 -0.00000000 -0.00000000
vn 0.00000000 0.00000000 -0.00000000
vn -0.00000000 0.00000000 0.00000000
vn -0.00000000 0.00000000 0.00000000
vn 0.00000000 0.00000000 -0.00000000
vn -0.00000000 -0.00000000 -0.00000000
vn 0.00000000 -0.00000000 0.00000000
vn 0.00000000 0.00000000 0.00000000
vn -0.00000000 0.00000000 -0.00000000
vn -0.00000000 -0.00000000 0.00000000
vn 0.00000000 0.00000000 -0.00000000
vn 0.00000000 0.00000000 0.00000000
vn -0.00000000 -0.00000000 0.00000000
vn 0.00000000 0.00000000 0.00000000
vn -0.00000000 -0.00000000 -0.00000000
vn -0.00000000 0.00000000 0.00000000
vn 0.00000000 0.00000000 -0.00000000
vn 0.00000000 -0.00000000 0.00000000
vn 0.00000000 0.00000000 0.00000000
vn 0.00000000 0.00000000 -0.00000000
vn -0.00000000 -0.00000000 0.00000000
vn 0.00099734 0.99999597 0.00265956
vn -0.00000000 -0.00000000 -0.00000000
vn -0.00000000 0.00000000 0.00000000
vn 0.00000000 0.00000000 -0.00000000
vn -0.00000000 -0.00000000 -0.00000000
vn 0.00000000 -0.00000000 0.00000000
vn -0.00000000 -0.00000000 -0.00000000
vn -0.00000000 -0.00000000 0.00000000
vn 0.00000000 0.00000000 0.00000000
vn -0.00000000 0.00000000 0.00000000
vn -0.00000000 -0.00000000 0.00000000
vn 0.00000000 -0.00000000 -0.00000000
vn 0.00000000 0.00000000 0.00000000
vn 0.00000000 0.00000000 0.00000000
vn 0.00000000 0.00000000 -0.00000000
vn 0.00000000 -0.00000000 -0.00000000
vn -0.00000000 0.00000000 0.00000000
vn 0.00000000 0.00000000 -0.00000000
vn 0.00000000 0.00000000 0.00000000
vn -0.00000000 0.00000000 -0.00000000
vn 0.00000000 -0.00000000 -0.00000000
vn -0.00000000 0.00000000 0.00000000
vn -0.00000000 0.00000000 -0.00000000
vn 0.00000000 0.00000000 0.00000000
vn -0.00000000 -0.00000000 0.00000000
vn 0.00000000 -0.00000000 -0.00000000
vn 0.00000000 -0.00000000 0.00000000
vn -0.00000000 -0.00000000 -0.00000000
vn 0.00000000 -0.00000000 0.00000000
vn -0.00000000 -0.00000000 0.00000000
vn -0.00000000 0.00000000 -0.00000000
vn 0.00000000 0.00000000 0.00000000
vn 0.00000000 0.00000000 0.00000000
vn -0.00000000 -0.00000000 0.00000000
vn 0.00000000 0.00000000 0.00000000
vn 0.00000000 -0.00000000 -0.00000000
vn -0.00000000 -0.00000000 -0.00000000
vn 0.00215972 0.99999352 -0.00287962
vn -0.00000000 0.00000000 0.00000000
vn 0.00217863 -0.99999229 0.00326795
vn -0.00000000 0.00000000 0.00000000
vn 0.00000000 0.00000000 -0.00000000
vn -0.00000000 -0.00000000 -0.00000000
vn -0.00000000 -0.00000000 -0.00000000
vn 0.00000000 0.00000000 0.00000000
vn 0.00000000 0.00000000 0.00000000
vn 0.00000000 0.00000000 0.00000000
vn 0.00000000 0.00000000 -0.00000000
vn 0.00000000 -0.00000000 0.00000000
vn 0.00000000 -0.00000000 -0.00000000
vn -0.00000000 0.00000000 0.00000000
vn 0.00000000 -0.00000000 -0.00000000
vn 0.00000000 0.00000000 -0.00000000
vn -0.00000000 0.00000000 0.00000000
vn -0.00000000 -0.00000000 0.00000000
vn 0.00000000 -0.00000000 -0.00000000
vn 0.00000000 0.00000000 -0.00000000
vn 0.00000000 -0.00000000 0.00000000
vn 0.00000000 -0.00000000 -0.00000000
vn -0.00000000 0.00000000 0.00000000
vn 0.00000000 -0.00000000 0.00000000
vn -0.00000000 0.00000000 -0.00000000
vn 0.00000000 -0.00000000 -0.00000000
vn 0.00000000 -0.00000000 0.00000000
vn -0.00000000 -0.00000000 0.00000000
vn -0.00000000 -0.00000000 -0.00000000
vn 0.00000000 -0.00000000 0.00000000
vn -0.00000000 0.00000000 -0.00000000
vn 0.00000000 -0.00000000 -0.00000000
vn 0.00000000 -0.00000000 -0.00000000
vn -0.00000000 0.00000000 0.00000000
vn -0.00000000 -0.00000000 0.00000000
vn 0.00000000 0.00000000 -0.00000000
vn 0.00000000 0.00000000 -0.00000000
vn 0.00000000 -0.00000000 -0.00000000
vn -0.00000000 -0.00000000 0.00000000
vn 0.00000000 0.00000000 0.00000000
vn -0.00000000 -0.00000000 0.00000000
vn 0.00000000 0.00000000 -0.00000000
vn 0.00000000 -0.00000000 0.00000000
vn -0.00000000 0.00000000 -0.00000000
vn -0.00000000 -0.00000000 -0.00000000
vn -0.00000000 0.00000000 0.00000000
vn 0.00419586 -0.99861483 0.05244826
vn 0.00433756 0.99851962 -0.05421949
vn 0.00000000 -0.99999812 -0.00193923
vn -0.00000000 -0.00000000 0.00000000
vn -0.00000000 -0.00000000 0.00000000
vn -0.00000000 -0.00000000 0.00000000
vn 0.00000000 0.00000000 -0.00000000
vn 0.00000000 0.00000000 0.00000000
vn -0.00000000 -0.00000000 0.00000000
vn 0.00000000 0.00000000 -0.00000000
vn -0.00000000 0.00000000 -0.00000000
vn -0.00000000 0.00000000 -0.00000000
vn 0.00000000 -0.00000000 0.00000000
vn -0.00000000 0.00000000 -0.00000000
vn 0.00000000 -0.00000000 0.00000000
vn -0.00000000 0.00000000 -0.00000000
vn 0.00000000 0.00000000 -0.00000000
vn -0.00000000 -0.00000000 -0.00000000
vn -0.00000000 -0.00000000 0.00000000
vn 0.00000000 0.00000000 -0.00000000
vn -0.00000000 -0.00000000 0.00000000
vn 0.00000000 -0.00000000 0.00000000
vn -0.00000000 0.00000000 0.00000000
vn -0.00000000 0.00000000 -0.00000000
vn 0.00000000 -0.00000000 0.00000000
vn -0.00000000 0.00000000 0.00000000
vn 0.00000000 0.00000000 0.00000000
vn -0.00000000 0.00000000 0.00000000
vn -0.00000000 -0.00000000 -0.00000000
vn 0.00000000 0.00000000 0.00000000
vn -0.00000000 -0.00000000 -0.00000000
vn -0.00000000 -0.00000000 0.00000000
vn 0.00000000 0.00000000 -0.00000000
vn 0.00000000 -0.00000000 -0.00000000
vn -0.00000000 0.00000000 0.00000000
vn 0.00000000 0.00000000 -0.00000000
vn -0.00000000 0.00000000 0.00000000
vn 0.00000000 -0.00000000 0.00000000
vn 0.00000000 -0.00000000 -0.00000000
vn 0.00000000 0.00000000 0.00000000
vn 0.00000000 -0.00000000 -0.00000000
vn -0.00000000 0.00000000 -0.00000000
vn 0.00000000 -0.00000000 -0.00000000
vn 0.00000000 -0.00000000 0.00000000
vn 0.00000000 -0.00000000 0.00000000
vn -0.00000000 0.00000000 -0.00000000
vn -0.00000000 0.00000000 -0.00000000
vn 0.00000000 0.00000000 -0.00000000
vn -0.00000000 0.00000000 -0.00000000
vn 0.00000000 0.00000000 0.00000000
vn -0.00000000 -0.00000000 0.00000000
vn -0.00000000 0.00000000 -0.00000000
vn 0.00000000 -0.00000000 0.00000000
vn -0.00000000 0.00000000 0.00000000
vn 0.00000000 -0.00000000 0.00000000
vn 0.00000000 -0.00000000 -0.00000000
vn -0.00000000 -0.00000000 -0.00000000
vn -0.00000000 -0.00000000 0.00000000
vn 0.00000000 0.00000000 0.00000000
vn 0.00000000 0.00000000 -0.00000000
vn -0.00000000 -0.00000000 0.00000000
vn 0.00000000 0.00000000 -0.00000000
vn -0.00000000 -0.00000000 0.00000000
vn -0.00000000 0.00000000 -0.00000000
vn 0.00000000 -0.00000000 0.00000000
vn -0.00000000 0.00000000 0.00000000
vn -0.00000000 0.00000000 -0.00000000
vn 0.00000000 -0.00000000 -0.00000000
vn 0.00000000 0.00000000 0.00000000
vn -0.00000000 -0.00000000 0.00000000
vn 0.00000000 0.00000000 -0.00000000
vn -0.00000000 -0.00000000 -0.00000000
vn 0.00000000 0.00000000 -0.00000000
vn 0.00000000 -0.00000000 -0.00000000
vn -0.00000000 0.00000000 0.00000000
vn 0.00000000 0.00000000 -0.00000000
vn 0.00000000 0.00000000 0.00000000
vn -0.00000000 -0.00000000 0.00000000
vn 0.00000000 0.00000000 0.00000000
vn -0.00000000 -0.00000000 -0.00000000
vn 0.00000000 0.00000000 0.00000000
vn -0.00000000 0.00000000 -0.00000000
vn 0.00000000 -0.00000000 0.00000000
vn -0.00000000 0.00000000 -0.00000000
vn 0.00000000 -0.00000000 0.00000000
vn -0.00000000 0.00000000 -0.00000000
vn 0.00000000 -0.00000000 0.00000000
vn -0.00000000 0.00000000 0.00000000
vn 0.00000000 -0.00000000 0.00000000
vn -0.00000000 -0.00000000 0.00000000
vn -0.00000000 0.00000000 0.00000000
vn 0.00000000 -0.00000000 0.00000000
vn -0.00000000 0.00000000 -0.00000000
vn 0.00000000 0.00000000 -0.00000000
vn -0.00000000 -0.00000000 0.00000000
vn 0.00000000 0.00000000 -0.00000000
vn -0.00000000 -0.00000000 -0.00000000
vn -0.00000000 0.00000000 0.00000000
vn -0.00000000 0.00000000 0.00000000
vn -0.00000000 -0.00000000 0.00000000
vn -0.00000000 -0.00000000 -0.00000000
vn 0.00000000 0.00000000 -0.00000000
vn -0.00000000 -0.00000000 0.00000000
vn 0.00000000 0.00000000 -0.00000000
vn 0.00000000 -0.00000000 -0.00000000
vn -0.00000000 -0.00000000 -0.00000000
vn -0.00000000 0.00000000 0.00000000
vn 0.00000000 -0.00000000 -0.00000000
vn 0.00000000 0.00000000 0.00000000
vn -0.00000000 0.00000000 0.00000000
vn 0.00000000 -0.00000000 -0.00000000
vn 0.00000000 -0.00000000 0.00000000
vn -0.00000000 0.00000000 0.00000000
vn -0.00000000 0.00000000 0.00000000
vn 0.00000000 -0.00000000 -0.00000000
vn 0.00000000 -0.00000000 0.00000000
vn -0.00000000 -0.00000000 0.00000000
vn -0.00000000 0.00000000 0.00000000
vn 0.00000000 0.00000000 0.00000000
vn -0.00000000 -0.00000000 0.00000000
vn -0.00000000 -0.00000000 -0.00000000
vn 0.00000000 -0.00000000 0.00000000
vn 0.00000000 0.00000000 0.00000000
vn 0.00000000 -0.00000000 -0.00000000
vn 0.00000000 -0.00000000 0.00000000
vn 0.00000000 -0.00000000 0.00000000
vn 0.00000000 -0.00000000 0.00000000
vn 0.00000000 0.00000000 0.00000000
vn 0.00000000 0.00000000 0.00000000
vn 0.00000000 0.00000000 0.00000000
vn 0.00000000 0.00000000 0.00000000
vn 0.00000000 0.00000000 0.00000000
vn 0.00000000 0.00000000 0.00000000
vn 0.00000000 -0.00000000 0.00000000
vn 0.00000000 0.00000000 0.00000000
vn 0.00000000 0.00000000 0.00000000
vn 0.00000000 -0.00000000 0.00000000
vn 0.00000000 0.00000000 0.00000000
vn 0.00000000 -0.00000000 0.00000000
vn 0.00000000 0.00000000 0.00000000
vn 0.00000000 -0.00000000 0.00000000
vn 0.00000000 0.00000000 0.00000000
vn 0.00000000 -0.00000000 0.00000000
vn 0.00000000 -0.00000000 0.00000000
vn 0.00000000 -0.00000000 0.00000000
vn 0.00000000 0.00000000 0.00000000
vn 0.00000000 -0.00000000 0.00000000
vn 0.00000000 -0.00000000 0.00000000
vn 0.00000000 0.00000000 0.00000000
vn 0.00000000 -0.00000000 0.00000000
vn 0.00000000 0.00000000 0.00000000
vn 0.00000000 0.00000000 0.00000000
vn 0.00000000 0.00000000 0.00000000
vn 0.00000000 0.00000000 0.00000000
vn 0.00000000 0.00000000 0.00000000
vn 0.00000000 0.00000000 0.00000000
vn 0.00000000 0.00000000 0.00000000
vn 0.00000000 -0.00000000 0.00000000
vn 0.00000000 0.00000000 0.00000000
vn 0.00000000 0.00000000 0.00000000
vn 0.00000000 0.00000000 0.00000000
vn 0.00000000 -0.00000000 0.00000000
vn 0.00000000 0.00000000 0.00000000
vn 0.00000000 -0.00000000 0.00000000
vn 0.00000000 -0.00000000 0.00000000
vn 0.00000000 0.00000000 0.00000000
vn 0.00000000 0.00000000 0.00000000
vn 0.00000000 0.00000000 0.00000000
vn 0.00000000 -0.00000000 0.00000000
vn 0.00000000 -0.00000000 0.00000000
vn 0.00000000 -0.00000000 0.00000000
vn 0.00000000 0.00000000 0.00000000
vn 0.00000000 0.00000000 0.00000000
vn 0.00000000 -0.00000000 -0.00000000
vn 0.00000000 0.00000000 -0.00000000
vn 0.00000000 0.00000000 0.00000000
vn 0.00000000 0.00000000 0.00000000
vn 0.00000000 0.00000000 -0.00000000
vn 0.00000000 0.00000000 0.00000000
vn 0.00000000 0.00000000 -0.00000000
vn -0.00000000 -0.00000000 0.00000000
vn -0.00000000 0.00000000 -0.00000000
vn 0.00000000 0.00000000 0.00000000
vn 0.00000000 -0.00000000 0.00000000
vn 0.00000000 -0.00000000 0.00000000
vn 0.00000000 -0.00000000 0.00000000
vn 0.00000000 -0.00000000 0.00000000
vn 0.00000000 -0.00000000 0.00000000
vn 0.00000000 -0.00000000 0.00000000
vn 0.00000000 0.00000000 0.00000000
vn 0.00000000 -0.00000000 0.00000000
vn 0.00000000 -0.00000000 0.00000000
vn 0.00000000 -0.00000000 0.00000000
vn 0.00000000 0.00000000 0.00000000
vn 0.00000000 0.00000000 0.00000000
vn 0.00000000 0.00000000 0.00000000
vn 0.00000000 -0.00000000 0.00000000
vn 0.00000000 0.00000000 0.00000000
vn 0.00000000 0.00000000 0.00000000
vn 0.00000000 -0.00000000 0.00000000
vn -0.00000000 -0.00000000 -0.00000000
vn -0.00000000 0.00000000 -0.00000000
vn 0.00000000 -0.00000000 -0.00000000
vn 0.00000000 0.00000000 0.00000000
vn 0.00000000 -0.00000000 0.00000000
vn 0.00000000 0.00000000 0.00000000
vn -0.00000000 -0.00000000 -0.00000000
vn 0.00000000 -0.00000000 0.00000000
vn 0.00000000 0.00000000 -0.00000000
vn -0.00000000 0.00000000 0.00000000
vn 0.00000000 -0.00000000 -0.00000000
vn -0.00000000 0.00000000 -0.00000000
vn 0.00000000 0.00000000 0.00000000
vn 0.00000000 0.00000000 -0.00000000
vn 0.00000000 0.00000000 0.00000000
vn -0.00000000 -0.00000000 0.00000000
vn 0.00000000 -0.00000000 -0.00000000
vn -0.00000000 -0.00000000 0.00000000
vn 0.00000000 0.00000000 0.00000000
vn -0.00000000 -0.00000000 0.00000000
vn 0.00000000 0.00000000 -0.00000000
vn -0.00000000 -0.00000000 0.00000000
vn -0.00000000 0.00000000 -0.00000000
vn 0.00000000 -0.00000000 -0.00000000
vn 0.00000000 0.00000000 -0.00000000
vn -0.00000000 -0.00000000 0.00000000
vn 0.00000000 0.00000000 0.00000000
vn -0.00000000 -0.00000000 0.00000000
vn 0.00000000 0.00000000 -0.00000000
vn 0.00000000 -0.00000000 0.00000000
vn -0.00000000 0.00000000 0.00000000
vn 0.00000000 0.00000000 -0.00000000
vn 0.00000000 -0.00000000 0.00000000
vn -0.00000000 0.00000000 -0.00000000
vn 0.00000000 -0.00000000 0.00000000
vn 0.00000000 0.00000000 -0.00000000
vn -0.00000000 -0.00000000 0.00000000
vn 0.00000000 0.00000000 -0.00000000
vn -0.00000000 -0.00000000 -0.00000000
vn 0.00000000 -0.00000000 0.00000000
vn -0.00000000 -0.00000000 -0.00000000
vn 0.00000000 0.00000000 0.00000000
vn 0.00000000 -0.00000000 0.00000000
vn -0.00000000 0.00000000 0.00000000
vn 0.00000000 0.00000000 -0.00000000
vn 0.00000000 -0.00000000 0.00000000
vn -0.00000000 0.00000000 -0.00000000
vn -0.00000000 -0.00000000 0.00000000
vn -0.00000000 0.00000000 -0.00000000
vn -0.00000000 -0.00000000 0.00000000
vn -0.00000000 -0.00000000 0.00000000
vn 0.00000000 0.00000000 0.00000000
vn -0.00000000 -0.00000000 -0.00000000
vn -0.00000000 -0.00000000 0.00000000
vn 0.00000000 0.00000000 -0.00000000
vn 0.00000000 -0.00000000 0.00000000
vn 0.00000000 0.00000000 0.00000000
vn -0.00000000 -0.00000000 -0.00000000
vn -0.00000000 0.00000000 0.00000000
vn -0.00000000 -0.00000000 -0.00000000
vn 0.00000000 0.00000000 -0.00000000
vn -0.00000000 0.00000000 -0.00000000
vn 0.00000000 -0.00000000 0.00000000
vn -0.00000000 0.00000000 0.00000000
vn -0.00000000 -0.00000000 0.00000000
vn -0.00000000 -0.00000000 0.00000000
vn 0.00000000 0.00000000 0.00000000
vn 0.00000000 -0.00000000 0.00000000
vn 0.00000000 -0.00000000 0.00000000
vn -0.00000000 -0.00000000 0.00000000
vn 0.00000000 -0.00000000 -0.00000000
vn -0.00000000 0.00000000 0.00000000
vn -0.00000000 -0.00000000 0.00000000
vn 0.00011860 -0.99999954 -0.00094877
vn -0.00047348 0.99999944 0.00094697
vn 0.00000000 -0.00000000 -0.00000000
vn 0.00000000 0.00000000 0.00000000
vn 0.00000000 0.00000000 -0.00000000
vn -0.00000000 0.00000000 0.00000000
vn 0.00000000 -0.00000000 0.00000000
vn -0.00000000 -0.00000000 0.00000000
vn 0.00000000 -0.00000000 -0.00000000
vn -0.00000000 -0.00000000 0.00000000
vn -0.00000000 0.00000000 -0.00000000
vn 0.00000000 0.00000000 -0.00000000
vn 0.00000000 0.00000000 0.00000000
vn 0.00000000 0.00000000 0.00000000
vn 0.00000000 -0.00000000 -0.00000000
vn 0.00000000 -0.00000000 0.00000000
vn 0.00000000 0.00000000 0.00000000
vn -0.00000000 -0.00000000 -0.00000000
vn 0.00000000 0.00000000 0.00000000
vn -0.00000000 0.00000000 0.00000000
vn -0.00000000 0.00000000 0.00000000
vn 0.00000000 -0.00000000 -0.00000000
vn -0.00000000 -0.00000000 0.00000000
vn -0.00000000 0.00000000 0.00000000
vn 0.00000000 -0.00000000 -0.00000000
vn 0.00000000 -0.00000000 -0.00000000
vn -0.00000000 0.00000000 0.00000000
vn 0.00000000 -0.00000000 -0.00000000
vn -0.00000000 -0.00000000 0.00000000
vn 0.00000000 0.00000000 0.00000000
vn -0.00000000 0.00000000 -0.00000000
vn 0.00000000 -0.00000000 -0.00000000
vn 0.00000000 0.00000000 0.00000000
vn 0.00000000 -0.00000000 -0.00000000
vn -0.00000000 0.00000000 -0.00000000
vn 0.00000000 -0.00000000 0.00000000
vn -0.00000000 -0.00000000 0.00000000
vn 0.00000000 -0.00000000 -0.00000000
vn 0.00000000 -0.00000000 -0.00000000
vn -0.00000000 0.00000000 0.00000000
vn 0.00000000 -0.00000000 -0.00000000
vn -0.00000000 0.00000000 0.00000000
vn 0.00000000 -0.00000000 0.00000000
vn -0.00000000 0.00000000 -0.00000000
vn 0.00000000 0.00000000 0.00000000
vn 0.00000000 0.00000000 0.00000000
vn -0.00000000 0.00000000 -0.00000000
vn 0.00000000 0.00000000 0.00000000
vn -0.00000000 0.00000000 0.00000000
vn 0.00000000 -0.00000000 0.00000000
vn -0.00000000 0.00000000 0.00000000
vn 0.00000000 -0.00000000 -0.00000000
vn -0.00000000 -0.00000000 0.00000000
vn 0.00000000 0.00000000 0.00000000
vn 0.00000000 0.00000000 0.00000000
vn 0.00000000 -0.00000000 -0.00000000
vn 0.00000000 0.00000000 0.00000000
vn 0.00000000 -0.00000000 0.00000000
vn -0.00000000 -0.00000000 -0.00000000
vn -0.00000000 -0.00000000 -0.00000000
vn 0.00000000 -0.00000000 0.00000000
vn 0.00000000 0.00000000 0.00000000
vn 0.00000000 -0.00000000 -0.00000000
vn -0.00000000 0.00000000 0.00000000
vn -0.00000000 0.00000000 -0.00000000
vn -0.00000000 0.00000000 0.00000000
vn -0.00000000 0.00000000 0.00000000
vn -0.00000000 0.00000000 0.00000000
vn 0.00000000 -0.00000000 0.00000000
vn -0.00000000 0.00000000 0.00000000
vn -0.00000000 0.00000000 -0.00000000
f 1//1 2//2 3//3
f 2//2 1//1 4//4
f 5//5 6//6 7//7
f 6//6 5//5 8//8
f 9//9 7//7 10//10
f 7//7 9//9 5//5
f 8//8 11//11 6//6
f 11//11 8//8 12//12
f 13//13 10//10 14//14
f 10//10 13//13 9//9
f 12//12 15//15 11//11
f 15//15 12//12 16//16
f 13//13 17//17 18//18
f 17//17 13//13 14//14
f 16//16 19//19 15//15
f 19//19 16//16 20//20
f 18//18 21//21 22//22
f 21//21 18//18 17//17
f 19//19 23//23 24//24
f 23//23 19//19 20//20
f 22//22 25//25 26//26
f 25//25 22//22 21//21
f 24//24 27//27 28//28
f 27//27 24//24 23//23
f 26//26 29//29 30//30
f 29//29 26//26 25//25
f 28//28 31//31 32//32
f 31//31 28//28 27//27
f 30//30 33//33 34//34
f 33//33 30//30 29//29
f 32//32 35//35 36//36
f 35//35 32//32 31//31
f 34//34 37//37 38//38
f 37//37 34//34 33//33
f 36//36 39//39 40//40
f 39//39 36//36 35//35
f 41//41 37//37 42//42
f 37//37 41//41 38//38
f 40//40 43//43 44//44
f 43//43 40//40 39//39
f 45//45 42//42 46//46
f 42//42 45//45 41//41
f 43//43 47//47 44//44
f 47//47 43//43 48//48
f 49//49 46//46 50//50
f 46//46 49//49 45//45
f 48//48 51//51 47//47
f 51//51 48//48 52//52
f 52//52 50//50 51//51
f 50//50 52//52 49//49
f 53//53 54//54 55//55
f 54//54 53//53 56//56
f 57//57 55//55 58//58
f 55//55 57//57 53//53
f 56//56 59//59 54//54
f 59//59 56//56 60//60
f 61//61 58//58 62//62
f 58//58 61//61 57//57
f 60//60 63//63 59//59
f 63//63 60//60 64//64
f 61//61 65//65 66//66
f 65//65 61//61 62//62
f 64//64 67//67 63//63
f 67//67 64//64 68//68
f 66//66 69//69 70//70
f 69//69 66//66 65//65
f 67//67 71//71 72//72
f 71//71 67//67 68//68
f 70//70 73//73 74//74
f 73//73 70//70 69//69
f 72//72 75//75 76//76
f 75//75 72//72 71//71
f 74//74 77//77 78//78
f 77//77 74//74 73//73
f 76//76 79//79 80//80
f 79//79 76//76 75//75
f 78//78 81//81 82//82
f 81//81 78//78 77//77
f 80//80 83//83 84//84
f 83//83 80//80 79//79
f 82//82 85//85 86//86
f 85//85 82//82 81//81
f 84//84 87//87 88//88
f 87//87 84//84 83//83
f 89//89 85//85 90//90
f 85//85 89//89 86//86
f 88//88 91//91 92//92
f 91//91 88//88 87//87
f 93//93 90//90 94//94
f 90//90 93//93 89//89
f 91//91 95//95 92//92
f 95//95 91//91 96//96
f 97//97 94//94 98//98
f 94//94 97//97 93//93
f 96//96 99//99 95//95
f 99//99 96//96 100//100
f 100//100 98//98 99//99
f 98//98 100//100 97//97
f 101//101 102//102 103//103
f 102//102 101//101 104//104
f 101//101 105//105 104//104
f 105//105 101//101 106//106
f 107//107 108//108 109//109
f 108//108 107//107 110//110
f 111//111 108//108 112//112
f 108//108 111//111 109//109
f 113//113 108//108 110//110
f 108//108 113//113 112//112
f 114//114 115//115 116//116
f 117//117 116//116 115//115
f 118//118 117//117 115//115
f 119//119 116//116 117//117
f 120//120 116//116 119//119
f 121//121 116//116 120//120
f 122//122 116//116 121//121
f 123//123 116//116 122//122
f 124//124 116//116 123//123
f 125//125 116//116 124//124
f 126//126 116//116 125//125
f 127//127 116//116 126//126
f 128//128 116//116 127//127
f 129//129 116//116 128//128
f 130//130 131//131 115//115
f 132//132 115//115 131//131
f 133//133 115//115 132//132
f 134//134 115//115 133//133
f 118//118 115//115 134//134
f 135//135 131//131 130//130
f 136//136 135//135 130//130
f 137//137 136//136 130//130
f 138//138 137//137 130//130
f 139//139 138//138 130//130
f 140//140 139//139 130//130
f 141//141 140//140 130//130
f 129//129 141//141 130//130
f 116//116 129//129 130//130
f 142//142 116//116 143//143
f 130//130 143//143 116//116
f 144//144 143//143 115//115
f 130//130 115//115 143//143
f 114//114 145//145 115//115
f 144//144 115//115 145//145
f 59//59 111//111 63//63
f 109//109 63//63 111//111
f 67//67 63//63 109//109
f 107//107 67//67 109//109
f 14//14 102//102 10//10
f 146//146 10//10 102//102
f 7//7 10//10 146//146
f 105//105 7//7 146//146
f 6//6 147//147 11//11
f 148//148 11//11 147//147
f 15//15 11//11 148//148
f 19//19 15//15 148//148
f 149//149 19//19 148//148
f 145//145 73//73 142//142
f 77//77 142//142 73//73
f 81//81 142//142 77//77
f 85//85 142//142 81//81
f 90//90 142//142 85//85
f 94//94 142//142 90//90
f 98//98 142//142 94//94
f 116//116 142//142 98//98
f 99//99 116//116 98//98
f 95//95 116//116 99//99
f 92//92 116//116 95//95
f 88//88 116//116 92//92
f 46//46 116//116 88//88
f 42//42 46//46 88//88
f 84//84 42//42 88//88
f 37//37 42//42 84//84
f 80//80 37//37 84//84
f 33//33 37//37 80//80
f 29//29 33//33 80//80
f 25//25 29//29 80//80
f 50//50 116//116 46//46
f 51//51 116//116 50//50
f 47//47 116//116 51//51
f 44//44 116//116 47//47
f 40//40 116//116 44//44
f 36//36 116//116 40//40
f 32//32 116//116 36//36
f 114//114 104//104 145//145
f 150//150 145//145 104//104
f 69//69 145//145 150//150
f 73//73 145//145 69//69
f 65//65 69//69 150//150
f 62//62 65//65 150//150
f 58//58 62//62 150//150
f 55//55 58//58 150//150
f 54//54 55//55 150//150
f 59//59 54//54 150//150
f 111//111 59//59 150//150
f 107//107 150//150 104//104
f 67//67 107//107 104//104
f 72//72 67//67 104//104
f 76//76 72//72 104//104
f 80//80 76//76 104//104
f 25//25 80//80 104//104
f 21//21 25//25 104//104
f 17//17 21//21 104//104
f 14//14 17//17 104//104
f 102//102 14//14 104//104
f 105//105 104//104 114//114
f 151//151 105//105 114//114
f 7//7 105//105 151//151
f 6//6 7//7 151//151
f 147//147 6//6 151//151
f 4//4 147//147 151//151
f 1//1 4//4 151//151
f 149//149 151//151 114//114
f 19//19 149//149 114//114
f 24//24 19//19 114//114
f 28//28 24//24 114//114
f 32//32 28//28 114//114
f 116//116 32//32 114//114
f 144//144 145//145 143//143
f 142//142 143//143 145//145
f 137//137 138//138 152//152
f 153//153 152//152 138//138
f 138//138 139//139 153//153
f 154//154 153//153 139//139
f 140//140 155//155 139//139
f 154//154 139//139 155//155
f 141//141 156//156 140//140
f 155//155 140//140 156//156
f 129//129 157//157 141//141
f 156//156 141//141 157//157
f 128//128 158//158 129//129
f 157//157 129//129 158//158
f 127//127 159//159 128//128
f 158//158 128//128 159//159
f 126//126 160//160 127//127
f 159//159 127//127 160//160
f 126//126 125//125 160//160
f 161//161 160//160 125//125
f 125//125 124//124 161//161
f 162//162 161//161 124//124
f 124//124 123//123 162//162
f 163//163 162//162 123//123
f 123//123 122//122 163//163
f 164//164 163//163 122//122
f 122//122 121//121 164//164
f 165//165 164//164 121//121
f 121//121 120//120 165//165
f 166//166 165//165 120//120
f 166//166 120//120 167//167
f 119//119 167//167 120//120
f 167//167 119//119 168//168
f 117//117 168//168 119//119
f 168//168 117//117 169//169
f 118//118 169//169 117//117
f 169//169 118//118 170//170
f 134//134 170//170 118//118
f 170//170 134//134 171//171
f 133//133 171//171 134//134
f 171//171 133//133 172//172
f 132//132 172//172 133//133
f 132//132 131//131 172//172
f 173//173 172//172 131//131
f 136//136 137//137 174//174
f 152//152 174//174 137//137
f 169//169 170//170 168//168
f 167//167 168//168 170//170
f 171//171 167//167 170//170
f 166//166 167//167 171//171
f 175//175 166//166 171//171
f 176//176 166//166 175//175
f 177//177 166//166 176//176
f 165//165 166//166 177//177
f 178//178 165//165 177//177
f 179//179 165//165 178//178
f 164//164 165//165 179//179
f 180//180 164//164 179//179
f 163//163 164//164 180//180
f 181//181 163//163 180//180
f 162//162 163//163 181//181
f 182//182 162//162 181//181
f 183//183 162//162 182//182
f 161//161 162//162 183//183
f 184//184 161//161 183//183
f 160//160 161//161 184//184
f 185//185 160//160 184//184
f 186//186 160//160 185//185
f 159//159 160//160 186//186
f 187//187 159//159 186//186
f 171//171 172//172 175//175
f 188//188 175//175 172//172
f 189//189 188//188 172//172
f 173//173 189//189 172//172
f 190//190 189//189 173//173
f 191//191 190//190 173//173
f 192//192 191//191 173//173
f 193//193 191//191 192//192
f 174//174 193//193 192//192
f 194//194 193//193 174//174
f 195//195 194//194 174//174
f 152//152 195//195 174//174
f 196//196 195//195 152//152
f 153//153 196//196 152//152
f 197//197 196//196 153//153
f 154//154 197//197 153//153
f 198//198 197//197 154//154
f 199//199 198//198 154//154
f 155//155 199//199 154//154
f 187//187 199//199 155//155
f 159//159 187//187 155//155
f 158//158 159//159 155//155
f 156//156 158//158 155//155
f 157//157 158//158 156//156
f 131//131 135//135 173//173
f 192//192 173//173 135//135
f 135//135 136//136 192//192
f 174//174 192//192 136//136
f 184//184 200//200 185//185
f 201//201 185//185 200//200
f 184//184 183//183 200//200
f 202//202 200//200 183//183
f 183//183 182//182 202//202
f 203//203 202//202 182//182
f 182//182 181//181 203//203
f 204//204 203//203 181//181
f 181//181 180//180 204//204
f 205//205 204//204 180//180
f 180//180 179//179 205//205
f 206//206 205//205 179//179
f 179//179 178//178 206//206
f 207//207 206//206 178//178
f 207//207 178//178 208//208
f 177//177 208//208 178//178
f 208//208 177//177 209//209
f 176//176 209//209 177//177
f 209//209 176//176 210//210
f 175//175 210//210 176//176
f 210//210 175//175 211//211
f 188//188 211//211 175//175
f 211//211 188//188 212//212
f 189//189 212//212 188//188
f 212//212 189//189 213//213
f 190//190 213//213 189//189
f 190//190 191//191 213//213
f 214//214 213//213 191//191
f 191//191 193//193 214//214
f 215//215 214//214 193//193
f 193//193 194//194 215//215
f 216//216 215//215 194//194
f 194//194 195//195 216//216
f 217//217 216//216 195//195
f 195//195 196//196 217//217
f 218//218 217//217 196//196
f 196//196 197//197 218//218
f 219//219 218//218 197//197
f 198//198 220//220 197//197
f 219//219 197//197 220//220
f 199//199 221//221 198//198
f 220//220 198//198 221//221
f 185//185 201//201 186//186
f 222//222 186//186 201//201
f 210//210 211//211 209//209
f 208//208 209//209 211//211
f 212//212 208//208 211//211
f 207//207 208//208 212//212
f 213//213 207//207 212//212
f 223//223 207//207 213//213
f 224//224 207//207 223//223
f 206//206 207//207 224//224
f 225//225 206//206 224//224
f 226//226 206//206 225//225
f 205//205 206//206 226//226
f 227//227 205//205 226//226
f 228//228 205//205 227//227
f 204//204 205//205 228//228
f 229//229 204//204 228//228
f 203//203 204//204 229//229
f 230//230 203//203 229//229
f 231//231 203//203 230//230
f 202//202 203//203 231//231
f 232//232 202//202 231//231
f 233//233 202//202 232//232
f 200//200 202//202 233//233
f 234//234 200//200 233//233
f 235//235 200//200 234//234
f 214//214 236//236 213//213
f 223//223 213//213 236//236
f 237//237 236//236 214//214
f 238//238 237//237 214//214
f 215//215 238//238 214//214
f 239//239 238//238 215//215
f 240//240 239//239 215//215
f 216//216 240//240 215//215
f 241//241 240//240 216//216
f 217//217 241//241 216//216
f 242//242 241//241 217//217
f 243//243 242//242 217//217
f 218//218 243//243 217//217
f 244//244 243//243 218//218
f 245//245 244//244 218//218
f 219//219 245//245 218//218
f 246//246 245//245 219//219
f 235//235 246//246 219//219
f 200//200 235//235 219//219
f 201//201 200//200 219//219
f 220//220 201//201 219//219
f 221//221 201//201 220//220
f 222//222 201//201 221//221
f 247//247 222//222 221//221
f 187//187 247//247 199//199
f 221//221 199//199 247//247
f 186//186 222//222 187//187
f 247//247 187//187 222//222
f 248//248 226//226 249//249
f 225//225 249//249 226//226
f 249//249 225//225 250//250
f 224//224 250//250 225//225
f 227//227 226//226 251//251
f 248//248 251//251 226//226
f 250//250 224//224 252//252
f 223//223 252//252 224//224
f 228//228 227//227 253//253
f 251//251 253//253 227//227
f 252//252 223//223 254//254
f 236//236 254//254 223//223
f 229//229 228//228 255//255
f 253//253 255//255 228//228
f 254//254 236//236 256//256
f 237//237 256//256 236//236
f 230//230 229//229 257//257
f 255//255 257//257 229//229
f 256//256 237//237 258//258
f 238//238 258//258 237//237
f 231//231 230//230 259//259
f 257//257 259//259 230//230
f 238//238 239//239 258//258
f 260//260 258//258 239//239
f 232//232 231//231 261//261
f 259//259 261//261 231//231
f 239//239 240//240 260//260
f 262//262 260//260 240//240
f 232//232 261//261 233//233
f 263//263 233//233 261//261
f 240//240 241//241 262//262
f 264//264 262//262 241//241
f 233//233 263//263 234//234
f 265//265 234//234 263//263
f 241//241 242//242 264//264
f 266//266 264//264 242//242
f 234//234 265//265 235//235
f 267//267 235//235 265//265
f 242//242 243//243 266//266
f 268//268 266//266 243//243
f 235//235 267//267 246//246
f 269//269 246//246 267//267
f 243//243 244//244 268//268
f 270//270 268//268 244//244
f 246//246 269//269 245//245
f 271//271 245//245 269//269
f 245//245 271//271 244//244
f 270//270 244//244 271//271
f 26//26 22//22 30//30
f 34//34 30//30 22//22
f 272//272 34//34 22//22
f 273//273 34//34 272//272
f 38//38 34//34 273//273
f 274//274 38//38 273//273
f 275//275 38//38 274//274
f 41//41 38//38 275//275
f 276//276 41//41 275//275
f 45//45 41//41 276//276
f 277//277 45//45 276//276
f 49//49 45//45 277//277
f 278//278 49//49 277//277
f 52//52 49//49 278//278
f 279//279 52//52 278//278
f 280//280 52//52 279//279
f 48//48 52//52 280//280
f 281//281 48//48 280//280
f 43//43 48//48 281//281
f 282//282 43//43 281//281
f 39//39 43//43 282//282
f 283//283 39//39 282//282
f 284//284 39//39 283//283
f 35//35 39//39 284//284
f 22//22 18//18 272//272
f 285//285 272//272 18//18
f 13//13 285//285 18//18
f 286//286 285//285 13//13
f 287//287 286//286 13//13
f 9//9 287//287 13//13
f 288//288 287//287 9//9
f 5//5 288//288 9//9
f 289//289 288//288 5//5
f 8//8 289//289 5//5
f 290//290 289//289 8//8
f 291//291 290//290 8//8
f 12//12 291//291 8//8
f 292//292 291//291 12//12
f 16//16 292//292 12//12
f 293//293 292//292 16//16
f 20//20 293//293 16//16
f 294//294 293//293 20//20
f 23//23 294//294 20//20
f 295//295 294//294 23//23
f 284//284 295//295 23//23
f 27//27 284//284 23//23
f 35//35 284//284 27//27
f 31//31 35//35 27//27
f 8//8 5//5 6//6
f 7//7 6//6 5//5
f 5//5 9//9 7//7
f 10//10 7//7 9//9
f 12//12 8//8 11//11
f 6//6 11//11 8//8
f 9//9 13//13 10//10
f 14//14 10//10 13//13
f 16//16 12//12 15//15
f 11//11 15//15 12//12
f 14//14 13//13 17//17
f 18//18 17//17 13//13
f 20//20 16//16 19//19
f 15//15 19//19 16//16
f 17//17 18//18 21//21
f 22//22 21//21 18//18
f 20//20 19//19 23//23
f 24//24 23//23 19//19
f 21//21 22//22 25//25
f 26//26 25//25 22//22
f 23//23 24//24 27//27
f 28//28 27//27 24//24
f 25//25 26//26 29//29
f 30//30 29//29 26//26
f 27//27 28//28 31//31
f 32//32 31//31 28//28
f 29//29 30//30 33//33
f 34//34 33//33 30//30
f 31//31 32//32 35//35
f 36//36 35//35 32//32
f 33//33 34//34 37//37
f 38//38 37//37 34//34
f 35//35 36//36 39//39
f 40//40 39//39 36//36
f 38//38 41//41 37//37
f 42//42 37//37 41//41
f 39//39 40//40 43//43
f 44//44 43//43 40//40
f 41//41 45//45 42//42
f 46//46 42//42 45//45
f 48//48 43//43 47//47
f 44//44 47//47 43//43
f 45//45 49//49 46//46
f 50//50 46//46 49//49
f 52//52 48//48 51//51
f 47//47 51//51 48//48
f 49//49 52//52 50//50
f 51//51 50//50 52//52
f 74//74 70//70 78//78
f 82//82 78//78 70//70
f 296//296 82//82 70//70
f 297//297 82//82 296//296
f 86//86 82//82 297//297
f 298//298 86//86 297//297
f 299//299 86//86 298//298
f 89//89 86//86 299//299
f 300//300 89//89 299//299
f 93//93 89//89 300//300
f 301//301 93//93 300//300
f 97//97 93//93 301//301
f 302//302 97//97 301//301
f 100//100 97//97 302//302
f 303//303 100//100 302//302
f 304//304 100//100 303//303
f 96//96 100//100 304//304
f 305//305 96//96 304//304
f 91//91 96//96 305//305
f 306//306 91//91 305//305
f 87//87 91//91 306//306
f 307//307 87//87 306//306
f 308//308 87//87 307//307
f 83//83 87//87 308//308
f 70//70 66//66 296//296
f 309//309 296//296 66//66
f 61//61 309//309 66//66
f 310//310 309//309 61//61
f 311//311 310//310 61//61
f 57//57 311//311 61//61
f 312//312 311//311 57//57
f 53//53 312//312 57//57
f 313//313 312//312 53//53
f 56//56 313//313 53//53
f 314//314 313//313 56//56
f 315//315 314//314 56//56
f 60//60 315//315 56//56
f 316//316 315//315 60//60
f 64//64 316//316 60//60
f 317//317 316//316 64//64
f 68//68 317//317 64//64
f 318//318 317//317 68//68
f 71//71 318//318 68//68
f 319//319 318//318 71//71
f 308//308 319//319 71//71
f 75//75 308//308 71//71
f 83//83 308//308 75//75
f 79//79 83//83 75//75
f 56//56 53//53 54//54
f 55//55 54//54 53//53
f 53//53 57//57 55//55
f 58//58 55//55 57//57
f 60//60 56//56 59//59
f 54//54 59//59 56//56
f 57//57 61//61 58//58
f 62//62 58//58 61//61
f 64//64 60//60 63//63
f 59//59 63//63 60//60
f 62//62 61//61 65//65
f 66//66 65//65 61//61
f 68//68 64//64 67//67
f 63//63 67//67 64//64
f 65//65 66//66 69//69
f 70//70 69//69 66//66
f 68//68 67//67 71//71
f 72//72 71//71 67//67
f 69//69 70//70 73//73
f 74//74 73//73 70//70
f 71//71 72//72 75//75
f 76//76 75//75 72//72
f 73//73 74//74 77//77
f 78//78 77//77 74//74
f 75//75 76//76 79//79
f 80//80 79//79 76//76
f 77//77 78//78 81//81
f 82//82 81//81 78//78
f 79//79 80//80 83//83
f 84//84 83//83 80//80
f 81//81 82//82 85//85
f 86//86 85//85 82//82
f 83//83 84//84 87//87
f 88//88 87//87 84//84
f 86//86 89//89 85//85
f 90//90 85//85 89//89
f 87//87 88//88 91//91
f 92//92 91//91 88//88
f 89//89 93//93 90//90
f 94//94 90//90 93//93
f 96//96 91//91 95//95
f 92//92 95//95 91//91
f 93//93 97//97 94//94
f 98//98 94//94 97//97
f 100//100 96//96 99//99
f 95//95 99//99 96//96
f 97//97 100//100 98//98
f 99//99 98//98 100//100
f 320//320 147//147 321//321
f 322//322 147//147 320//320
f 147//147 322//322 4//4
f 2//2 322//322 323//323
f 322//322 2//2 4//4
f 324//324 2//2 323//323
f 2//2 324//324 3//3
f 1//1 324//324 325//325
f 324//324 1//1 3//3
f 326//326 1//1 325//325
f 327//327 1//1 326//326
f 1//1 327//327 151//151
f 149//149 327//327 328//328
f 327//327 149//149 151//151
f 149//149 329//329 148//148
f 329//329 149//149 328//328
f 147//147 329//329 321//321
f 329//329 147//147 148//148
f 330//330 320//320 331//331
f 331//331 321//321 332//332
f 321//321 331//331 320//320
f 333//333 326//326 334//334
f 335//335 334//334 336//336
f 334//334 335//335 337//337
f 338//338 335//335 336//336
f 339//339 340//340 341//341
f 342//342 336//336 343//343
f 344//344 324//324 345//345
f 343//343 324//324 344//344
f 334//334 343//343 336//336
f 334//334 324//324 343//343
f 326//326 324//324 334//334
f 324//324 326//326 325//325
f 323//323 345//345 324//324
f 323//323 340//340 345//345
f 340//340 323//323 322//322
f 322//322 341//341 340//340
f 341//341 320//320 346//346
f 320//320 341//341 322//322
f 330//330 331//331 332//332
f 339//339 341//341 346//346
f 345//345 340//340 339//339
f 333//333 334//334 337//337
f 342//342 344//344 330//330
f 344//344 342//342 343//343
f 338//338 336//336 342//342
f 328//328 338//338 329//329
f 328//328 333//333 338//338
f 327//327 333//333 328//328
f 333//333 327//327 326//326
f 342//342 329//329 338//338
f 330//330 329//329 342//342
f 332//332 329//329 330//330
f 329//329 332//332 321//321
f 337//337 338//338 333//333
f 338//338 337//337 335//335
f 345//345 330//330 344//344
f 339//339 330//330 345//345
f 346//346 330//330 339//339
f 330//330 346//346 320//320
f 4//4 322//322 147//147
f 320//320 147//147 322//322
f 321//321 147//147 320//320
f 4//4 2//2 322//322
f 323//323 322//322 2//2
f 3//3 324//324 2//2
f 323//323 2//2 324//324
f 3//3 1//1 324//324
f 325//325 324//324 1//1
f 151//151 327//327 1//1
f 326//326 1//1 327//327
f 325//325 1//1 326//326
f 151//151 149//149 327//327
f 328//328 327//327 149//149
f 328//328 149//149 329//329
f 148//148 329//329 149//149
f 148//148 147//147 329//329
f 321//321 329//329 147//147
f 320//320 331//331 321//321
f 332//332 321//321 331//331
f 331//331 320//320 330//330
f 322//322 341//341 320//320
f 346//346 320//320 341//341
f 340//340 341//341 322//322
f 322//322 323//323 340//340
f 345//345 340//340 323//323
f 324//324 345//345 323//323
f 325//325 326//326 324//324
f 334//334 324//324 326//326
f 343//343 324//324 334//334
f 336//336 343//343 334//334
f 344//344 324//324 343//343
f 345//345 324//324 344//344
f 343//343 336//336 342//342
f 341//341 340//340 339//339
f 336//336 335//335 338//338
f 337//337 335//335 334//334
f 336//336 334//334 335//335
f 334//334 326//326 333//333
f 320//320 346//346 330//330
f 339//339 330//330 346//346
f 345//345 330//330 339//339
f 344//344 330//330 345//345
f 335//335 337//337 338//338
f 333//333 338//338 337//337
f 321//321 332//332 329//329
f 330//330 329//329 332//332
f 342//342 329//329 330//330
f 338//338 329//329 342//342
f 326//326 327//327 333//333
f 328//328 333//333 327//327
f 338//338 333//333 328//328
f 329//329 338//338 328//328
f 342//342 336//336 338//338
f 343//343 342//342 344//344
f 330//330 344//344 342//342
f 337//337 334//334 333//333
f 339//339 340//340 345//345
f 346//346 341//341 339//339
f 332//332 331//331 330//330
f 4//4 1//1 2//2
f 3//3 2//2 1//1
f 106//106 105//105 347//347
f 146//146 347//347 105//105
f 103//103 347//347 102//102
f 146//146 102//102 347//347
f 103//103 101//101 347//347
f 106//106 347//347 101//101
f 104//104 101//101 102//102
f 103//103 102//102 101//101
f 106//106 101//101 105//105
f 104//104 105//105 101//101
f 110//110 107//107 108//108
f 109//109 108//108 107//107
f 109//109 111//111 108//108
f 112//112 108//108 111//111
f 112//112 113//113 108//108
f 110//110 108//108 113//113
f 150//150 107//107 113//113
f 110//110 113//113 107//107
f 150//150 113//113 111//111
f 112//112 111//111 113//113
f 348//348 265//265 267//267
f 348//348 263//263 265//265
f 349//349 263//263 348//348
f 349//349 261//261 263//263
f 349//349 259//259 261//261
f 350//350 259//259 349//349
f 350//350 257//257 259//259
f 351//351 257//257 350//350
f 351//351 255//255 257//257
f 351//351 253//253 255//255
f 352//352 253//253 351//351
f 352//352 251//251 253//253
f 353//353 251//251 352//352
f 353//353 248//248 251//251
f 353//353 249//249 248//248
f 353//353 250//250 249//249
f 354//354 250//250 353//353
f 354//354 252//252 250//250
f 354//354 355//355 252//252
f 356//356 355//355 354//354
f 356//356 357//357 355//355
f 358//358 357//357 356//356
f 358//358 359//359 357//357
f 359//359 358//358 360//360
f 361//361 362//362 363//363
f 364//364 362//362 361//361
f 364//364 365//365 362//362
f 348//348 365//365 364//364
f 267//267 365//365 348//348
f 269//269 365//365 267//267
f 269//269 366//366 365//365
f 271//271 366//366 269//269
f 270//270 366//366 271//271
f 270//270 367//367 366//366
f 268//268 367//367 270//270
f 266//266 367//367 268//268
f 266//266 368//368 367//367
f 264//264 368//368 266//266
f 264//264 369//369 368//368
f 262//262 369//369 264//264
f 260//260 369//369 262//262
f 260//260 370//370 369//369
f 258//258 370//370 260//260
f 258//258 371//371 370//370
f 256//256 371//371 258//258
f 254//254 371//371 256//256
f 252//252 371//371 254//254
f 371//371 252//252 355//355
f 355//355 252//252 371//371
f 254//254 371//371 252//252
f 256//256 371//371 254//254
f 258//258 371//371 256//256
f 370//370 371//371 258//258
f 260//260 370//370 258//258
f 369//369 370//370 260//260
f 262//262 369//369 260//260
f 264//264 369//369 262//262
f 368//368 369//369 264//264
f 266//266 368//368 264//264
f 367//367 368//368 266//266
f 268//268 367//367 266//266
f 270//270 367//367 268//268
f 366//366 367//367 270//270
f 271//271 366//366 270//270
f 269//269 366//366 271//271
f 365//365 366//366 269//269
f 267//267 365//365 269//269
f 348//348 365//365 267//267
f 364//364 365//365 348//348
f 362//362 365//365 364//364
f 361//361 362//362 364//364
f 363//363 362//362 361//361
f 360//360 358//358 359//359
f 357//357 359//359 358//358
f 356//356 357//357 358//358
f 355//355 357//357 356//356
f 354//354 355//355 356//356
f 252//252 355//355 354//354
f 250//250 252//252 354//354
f 353//353 250//250 354//354
f 249//249 250//250 353//353
f 248//248 249//249 353//353
f 251//251 248//248 353//353
f 352//352 251//251 353//353
f 253//253 251//251 352//352
f 351//351 253//253 352//352
f 255//255 253//253 351//351
f 257//257 255//255 351//351
f 350//350 257//257 351//351
f 259//259 257//257 350//350
f 349//349 259//259 350//350
f 261//261 259//259 349//349
f 263//263 261//261 349//349
f 348//348 263//263 349//349
f 265//265 263//263 348//348
f 267//267 265//265 348//348
f 367//367 366//366 372//372
f 373//373 372//372 366//366
f 365//365 374//374 366//366
f 373//373 366//366 374//374
f 362//362 375//375 365//365
f 374//374 365//365 375//375
f 363//363 376//376 362//362
f 375//375 362//362 376//376
f 361//361 377//377 363//363
f 376//376 363//363 377//377
f 364//364 378//378 361//361
f 377//377 361//361 378//378
f 348//348 379//379 364//364
f 378//378 364//364 379//379
f 348//348 349//349 379//379
f 380//380 379//379 349//349
f 349//349 350//350 380//380
f 381//381 380//380 350//350
f 350//350 351//351 381//381
f 382//382 381//381 351//351
f 351//351 352//352 382//382
f 383//383 382//382 352//352
f 352//352 353//353 383//383
f 384//384 383//383 353//353
f 353//353 354//354 384//384
f 385//385 384//384 354//354
f 385//385 354//354 386//386
f 356//356 386//386 354//354
f 386//386 356//356 387//387
f 358//358 387//387 356//356
f 387//387 358//358 388//388
f 360//360 388//388 358//358
f 388//388 360//360 389//389
f 359//359 389//389 360//360
f 389//389 359//359 390//390
f 357//357 390//390 359//359
f 390//390 357//357 391//391
f 355//355 391//391 357//357
f 355//355 371//371 391//391
f 392//392 391//391 371//371
f 371//371 370//370 392//392
f 393//393 392//392 370//370
f 370//370 369//369 393//393
f 394//394 393//393 369//369
f 369//369 368//368 394//394
f 395//395 394//394 368//368
f 368//368 367//367 395//395
f 372//372 395//395 367//367
f 388//388 389//389 387//387
f 390//390 387//387 389//389
f 386//386 387//387 390//390
f 391//391 386//386 390//390
f 385//385 386//386 391//391
f 392//392 385//385 391//391
f 384//384 385//385 392//392
f 393//393 384//384 392//392
f 383//383 384//384 393//393
f 394//394 383//383 393//393
f 382//382 383//383 394//394
f 395//395 382//382 394//394
f 381//381 382//382 395//395
f 372//372 381//381 395//395
f 380//380 381//381 372//372
f 373//373 380//380 372//372
f 379//379 380//380 373//373
f 374//374 379//379 373//373
f 378//378 379//379 374//374
f 375//375 378//378 374//374
f 377//377 378//378 375//375
f 376//376 377//377 375//375
f 272//272 285//285 273//273
f 274//274 273//273 285//285
f 286//286 274//274 285//285
f 275//275 274//274 286//286
f 287//287 275//275 286//286
f 288//288 275//275 287//287
f 276//276 275//275 288//288
f 289//289 276//276 288//288
f 277//277 276//276 289//289
f 278//278 277//277 289//289
f 290//290 278//278 289//289
f 291//291 278//278 290//290
f 279//279 278//278 291//291
f 280//280 279//279 291//291
f 396//396 280//280 291//291
f 397//397 280//280 396//396
f 398//398 280//280 397//397
f 399//399 280//280 398//398
f 400//400 280//280 399//399
f 401//401 280//280 400//400
f 281//281 280//280 401//401
f 402//402 281//281 401//401
f 403//403 281//281 402//402
f 404//404 281//281 403//403
f 405//405 281//281 404//404
f 406//406 281//281 405//405
f 407//407 281//281 406//406
f 408//408 281//281 407//407
f 291//291 292//292 396//396
f 409//409 396//396 292//292
f 410//410 409//409 292//292
f 411//411 410//410 292//292
f 293//293 411//411 292//292
f 412//412 411//411 293//293
f 413//413 412//412 293//293
f 414//414 413//413 293//293
f 415//415 414//414 293//293
f 416//416 415//415 293//293
f 417//417 416//416 293//293
f 418//418 417//417 293//293
f 419//419 418//418 293//293
f 408//408 419//419 293//293
f 281//281 408//408 293//293
f 282//282 281//281 293//293
f 294//294 282//282 293//293
f 283//283 282//282 294//294
f 295//295 283//283 294//294
f 284//284 283//283 295//295
f 420//420 421//421 303//303
f 304//304 303//303 421//421
f 422//422 304//304 421//421
f 423//423 304//304 422//422
f 424//424 304//304 423//423
f 425//425 304//304 424//424
f 426//426 304//304 425//425
f 305//305 304//304 426//426
f 427//427 305//305 426//426
f 428//428 305//305 427//427
f 429//429 305//305 428//428
f 430//430 305//305 429//429
f 431//431 305//305 430//430
f 432//432 305//305 431//431
f 317//317 305//305 432//432
f 318//318 305//305 317//317
f 306//306 305//305 318//318
f 319//319 306//306 318//318
f 307//307 306//306 319//319
f 308//308 307//307 319//319
f 296//296 309//309 297//297
f 298//298 297//297 309//309
f 310//310 298//298 309//309
f 299//299 298//298 310//310
f 311//311 299//299 310//310
f 312//312 299//299 311//311
f 300//300 299//299 312//312
f 301//301 300//300 312//312
f 313//313 301//301 312//312
f 302//302 301//301 313//313
f 314//314 302//302 313//313
f 315//315 302//302 314//314
f 303//303 302//302 315//315
f 316//316 303//303 315//315
f 420//420 303//303 316//316
f 433//433 420//420 316//316
f 434//434 433//433 316//316
f 435//435 434//434 316//316
f 436//436 435//435 316//316
f 437//437 436//436 316//316
f 438//438 437//437 316//316
f 317//317 438//438 316//316
f 439//439 438//438 317//317
f 440//440 439//439 317//317
f 441//441 440//440 317//317
f 442//442 441//441 317//317
f 443//443 442//442 317//317
f 432//432 443//443 317//317
f 444//444 445//445 425//425
f 426//426 425//425 445//445
f 446//446 444//444 424//424
f 425//425 424//424 444//444
f 447//447 446//446 423//423
f 424//424 423//423 446//446
f 422//422 448//448 423//423
f 447//447 423//423 448//448
f 421//421 449//449 422//422
f 448//448 422//422 449//449
f 420//420 450//450 421//421
f 449//449 421//421 450//450
f 433//433 451//451 420//420
f 450//450 420//420 451//451
f 434//434 452//452 433//433
f 451//451 433//433 452//452
f 435//435 453//453 434//434
f 452//452 434//434 453//453
f 454//454 453//453 436//436
f 435//435 436//436 453//453
f 455//455 454//454 437//437
f 436//436 437//437 454//454
f 456//456 455//455 438//438
f 437//437 438//438 455//455
f 457//457 456//456 439//439
f 438//438 439//439 456//456
f 458//458 457//457 440//440
f 439//439 440//440 457//457
f 459//459 458//458 441//441
f 440//440 441//441 458//458
f 459//459 441//441 460//460
f 442//442 460//460 441//441
f 460//460 442//442 461//461
f 443//443 461//461 442//442
f 461//461 443//443 462//462
f 432//432 462//462 443//443
f 462//462 432//432 463//463
f 431//431 463//463 432//432
f 463//463 431//431 464//464
f 430//430 464//464 431//431
f 464//464 430//430 465//465
f 429//429 465//465 430//430
f 466//466 465//465 428//428
f 429//429 428//428 465//465
f 467//467 466//466 427//427
f 428//428 427//427 466//466
f 445//445 467//467 426//426
f 427//427 426//426 467//467
f 450//450 451//451 449//449
f 448//448 449//449 451//451
f 452//452 448//448 451//451
f 447//447 448//448 452//452
f 453//453 447//447 452//452
f 446//446 447//447 453//453
f 454//454 446//446 453//453
f 444//444 446//446 454//454
f 455//455 444//444 454//454
f 445//445 444//444 455//455
f 456//456 445//445 455//455
f 467//467 445//445 456//456
f 457//457 467//467 456//456
f 466//466 467//467 457//457
f 458//458 466//466 457//457
f 465//465 466//466 458//458
f 459//459 465//465 458//458
f 464//464 465//465 459//459
f 460//460 464//464 459//459
f 463//463 464//464 460//460
f 461//461 463//463 460//460
f 462//462 463//463 461//461
f 468//468 469//469 401//401
f 402//402 401//401 469//469
f 470//470 468//468 400//400
f 401//401 400//400 468//468
f 471//471 470//470 399//399
f 400//400 399//399 470//470
f 398//398 472//472 399//399
f 471//471 399//399 472//472
f 397//397 473//473 398//398
f 472//472 398//398 473//473
f 396//396 474//474 397//397
f 473//473 397//397 474//474
f 409//409 475//475 396//396
f 474//474 396//396 475//475
f 410//410 476//476 409//409
f 475//475 409//409 476//476
f 411//411 477//477 410//410
f 476//476 410//410 477//477
f 478//478 477//477 412//412
f 411//411 412//412 477//477
f 479//479 478//478 413//413
f 412//412 413//413 478//478
f 480//480 479//479 414//414
f 413//413 414//414 479//479
f 481//481 480//480 415//415
f 414//414 415//415 480//480
f 482//482 481//481 416//416
f 415//415 416//416 481//481
f 483//483 482//482 417//417
f 416//416 417//417 482//482
f 483//483 417//417 484//484
f 418//418 484//484 417//417
f 484//484 418//418 485//485
f 419//419 485//485 418//418
f 485//485 419//419 486//486
f 408//408 486//486 419//419
f 486//486 408//408 487//487
f 407//407 487//487 408//408
f 487//487 407//407 488//488
f 406//406 488//488 407//407
f 488//488 406//406 489//489
f 405//405 489//489 406//406
f 490//490 489//489 404//404
f 405//405 404//404 489//489
f 491//491 490//490 403//403
f 404//404 403//403 490//490
f 469//469 491//491 402//402
f 403//403 402//402 491//491
f 474//474 475//475 473//473
f 472//472 473//473 475//475
f 476//476 472//472 475//475
f 471//471 472//472 476//476
f 477//477 471//471 476//476
f 470//470 471//471 477//477
f 478//478 470//470 477//477
f 468//468 470//470 478//478
f 479//479 468//468 478//478
f 469//469 468//468 479//479
f 480//480 469//469 479//479
f 491//491 469//469 480//480
f 481//481 491//491 480//480
f 490//490 491//491 481//481
f 482//482 490//490 481//481
f 489//489 490//490 482//482
f 483//483 489//489 482//482
f 488//488 489//489 483//483
f 484//484 488//488 483//483
f 487//487 488//488 484//484
f 485//485 487//487 484//484
f 486//486 487//487 485//485
f 147//147 4//4 148//148
f 2//2 148//148 4//4
f 3//3 148//148 2//2
f 1//1 151//151 3//3
f 149//149 3//3 151//151
f 148//148 3//3 149//149
f 149//149 3//3 148//148
f 151//151 3//3 149//149
f 3//3 151//151 1//1
f 2//2 148//148 3//3
f 4//4 148//148 2//2
f 148//148 4//4 147//147
f 130//130 129//129 116//116
f 130//130 141//141 129//129
f 130//130 140//140 141//141
f 130//130 139//139 140//140
f 130//130 138//138 139//139
f 130//130 137//137 138//138
f 130//130 136//136 137//137
f 130//130 135//135 136//136
f 130//130 131//131 135//135
f 134//134 115//115 118//118
f 133//133 115//115 134//134
f 132//132 115//115 133//133
f 131//131 115//115 132//132
f 115//115 131//131 130//130
f 128//128 116//116 129//129
f 127//127 116//116 128//128
f 126//126 116//116 127//127
f 125//125 116//116 126//126
f 124//124 116//116 125//125
f 123//123 116//116 124//124
f 122//122 116//116 123//123
f 121//121 116//116 122//122
f 120//120 116//116 121//121
f 119//119 116//116 120//120
f 117//117 116//116 119//119
f 115//115 117//117 118//118
f 115//115 116//116 117//117
f 116//116 115//115 114//114
f 116//116 143//143 130//130
f 143//143 116//116 142//142
f 143//143 115//115 130//130
f 115//115 143//143 144//144
f 145//145 115//115 144//144
f 115//115 145//145 114//114
f 114//114 32//32 116//116
f 114//114 28//28 32//32
f 114//114 24//24 28//28
f 114//114 19//19 24//24
f 114//114 149//149 19//19
f 114//114 151//151 149//149
f 151//151 4//4 1//1
f 151//151 147//147 4//4
f 151//151 6//6 147//147
f 151//151 7//7 6//6
f 151//151 105//105 7//7
f 114//114 105//105 151//151
f 114//114 104//104 105//105
f 104//104 14//14 102//102
f 104//104 17//17 14//14
f 104//104 21//21 17//17
f 104//104 25//25 21//21
f 104//104 80//80 25//25
f 104//104 76//76 80//80
f 104//104 72//72 76//76
f 104//104 67//67 72//72
f 104//104 107//107 67//67
f 104//104 150//150 107//107
f 150//150 59//59 111//111
f 150//150 54//54 59//59
f 150//150 55//55 54//54
f 150//150 58//58 55//55
f 150//150 62//62 58//58
f 150//150 65//65 62//62
f 150//150 69//69 65//65
f 69//69 145//145 73//73
f 150//150 145//145 69//69
f 104//104 145//145 150//150
f 145//145 104//104 114//114
f 36//36 116//116 32//32
f 40//40 116//116 36//36
f 44//44 116//116 40//40
f 47//47 116//116 44//44
f 51//51 116//116 47//47
f 50//50 116//116 51//51
f 46//46 116//116 50//50
f 80//80 29//29 25//25
f 80//80 33//33 29//29
f 80//80 37//37 33//33
f 84//84 37//37 80//80
f 84//84 42//42 37//37
f 88//88 42//42 84//84
f 88//88 46//46 42//42
f 88//88 116//116 46//46
f 92//92 116//116 88//88
f 95//95 116//116 92//92
f 99//99 116//116 95//95
f 98//98 116//116 99//99
f 98//98 142//142 116//116
f 94//94 142//142 98//98
f 90//90 142//142 94//94
f 85//85 142//142 90//90
f 81//81 142//142 85//85
f 77//77 142//142 81//81
f 73//73 142//142 77//77
f 142//142 73//73 145//145
f 148//148 19//19 149//149
f 148//148 15//15 19//19
f 148//148 11//11 15//15
f 147//147 11//11 148//148
f 11//11 147//147 6//6
f 146//146 7//7 105//105
f 146//146 10//10 7//7
f 102//102 10//10 146//146
f 10//10 102//102 14//14
f 109//109 67//67 107//107
f 109//109 63//63 67//67
f 111//111 63//63 109//109
f 63//63 111//111 59//59
f 145//145 143//143 142//142
f 143//143 145//145 144//144
f 138//138 152//152 153//153
f 152//152 138//138 137//137
f 139//139 153//153 154//154
f 153//153 139//139 138//138
f 155//155 139//139 154//154
f 139//139 155//155 140//140
f 156//156 140//140 155//155
f 140//140 156//156 141//141
f 157//157 141//141 156//156
f 141//141 157//157 129//129
f 158//158 129//129 157//157
f 129//129 158//158 128//128
f 159//159 128//128 158//158
f 128//128 159//159 127//127
f 160//160 127//127 159//159
f 127//127 160//160 126//126
f 125//125 160//160 161//161
f 160//160 125//125 126//126
f 124//124 161//161 162//162
f 161//161 124//124 125//125
f 123//123 162//162 163//163
f 162//162 123//123 124//124
f 122//122 163//163 164//164
f 163//163 122//122 123//123
f 121//121 164//164 165//165
f 164//164 121//121 122//122
f 120//120 165//165 166//166
f 165//165 120//120 121//121
f 120//120 167//167 119//119
f 167//167 120//120 166//166
f 119//119 168//168 117//117
f 168//168 119//119 167//167
f 117//117 169//169 118//118
f 169//169 117//117 168//168
f 118//118 170//170 134//134
f 170//170 118//118 169//169
f 134//134 171//171 133//133
f 171//171 134//134 170//170
f 133//133 172//172 132//132
f 172//172 133//133 171//171
f 131//131 172//172 173//173
f 172//172 131//131 132//132
f 137//137 174//174 152//152
f 174//174 137//137 136//136
f 156//156 158//158 157//157
f 155//155 158//158 156//156
f 155//155 159//159 158//158
f 155//155 187//187 159//159
f 155//155 199//199 187//187
f 154//154 199//199 155//155
f 154//154 198//198 199//199
f 154//154 197//197 198//198
f 153//153 197//197 154//154
f 153//153 196//196 197//197
f 152//152 196//196 153//153
f 152//152 195//195 196//196
f 174//174 195//195 152//152
f 174//174 194//194 195//195
f 174//174 193//193 194//194
f 192//192 193//193 174//174
f 192//192 191//191 193//193
f 173//173 191//191 192//192
f 173//173 190//190 191//191
f 173//173 189//189 190//190
f 172//172 189//189 173//173
f 172//172 188//188 189//189
f 172//172 175//175 188//188
f 175//175 172//172 171//171
f 186//186 159//159 187//187
f 186//186 160//160 159//159
f 185//185 160//160 186//186
f 184//184 160//160 185//185
f 184//184 161//161 160//160
f 183//183 161//161 184//184
f 183//183 162//162 161//161
f 182//182 162//162 183//183
f 181//181 162//162 182//182
f 181//181 163//163 162//162
f 180//180 163//163 181//181
f 180//180 164//164 163//163
f 179//179 164//164 180//180
f 179//179 165//165 164//164
f 178//178 165//165 179//179
f 177//177 165//165 178//178
f 177//177 166//166 165//165
f 176//176 166//166 177//177
f 175//175 166//166 176//176
f 171//171 166//166 175//175
f 171//171 167//167 166//166
f 170//170 167//167 171//171
f 170//170 168//168 167//167
f 168//168 170//170 169//169
f 135//135 173//173 192//192
f 173//173 135//135 131//131
f 136//136 192//192 174//174
f 192//192 136//136 135//135
f 200//200 185//185 201//201
f 185//185 200//200 184//184
f 183//183 200//200 202//202
f 200//200 183//183 184//184
f 182//182 202//202 203//203
f 202//202 182//182 183//183
f 181//181 203//203 204//204
f 203//203 181//181 182//182
f 180//180 204//204 205//205
f 204//204 180//180 181//181
f 179//179 205//205 206//206
f 205//205 179//179 180//180
f 178//178 206//206 207//207
f 206//206 178//178 179//179
f 178//178 208//208 177//177
f 208//208 178//178 207//207
f 177//177 209//209 176//176
f 209//209 177//177 208//208
f 176//176 210//210 175//175
f 210//210 176//176 209//209
f 175//175 211//211 188//188
f 211//211 175//175 210//210
f 188//188 212//212 189//189
f 212//212 188//188 211//211
f 189//189 213//213 190//190
f 213//213 189//189 212//212
f 191//191 213//213 214//214
f 213//213 191//191 190//190
f 193//193 214//214 215//215
f 214//214 193//193 191//191
f 194//194 215//215 216//216
f 215//215 194//194 193//193
f 195//195 216//216 217//217
f 216//216 195//195 194//194
f 196//196 217//217 218//218
f 217//217 196//196 195//195
f 197//197 218//218 219//219
f 218//218 197//197 196//196
f 220//220 197//197 219//219
f 197//197 220//220 198//198
f 221//221 198//198 220//220
f 198//198 221//221 199//199
f 201//201 186//186 222//222
f 186//186 201//201 185//185
f 221//221 222//222 247//247
f 221//221 201//201 222//222
f 220//220 201//201 221//221
f 219//219 201//201 220//220
f 219//219 200//200 201//201
f 219//219 235//235 200//200
f 219//219 246//246 235//235
f 219//219 245//245 246//246
f 218//218 245//245 219//219
f 218//218 244//244 245//245
f 218//218 243//243 244//244
f 217//217 243//243 218//218
f 217//217 242//242 243//243
f 217//217 241//241 242//242
f 216//216 241//241 217//217
f 216//216 240//240 241//241
f 215//215 240//240 216//216
f 215//215 239//239 240//240
f 215//215 238//238 239//239
f 214//214 238//238 215//215
f 214//214 237//237 238//238
f 214//214 236//236 237//237
f 236//236 213//213 223//223
f 213//213 236//236 214//214
f 234//234 200//200 235//235
f 233//233 200//200 234//234
f 233//233 202//202 200//200
f 232//232 202//202 233//233
f 231//231 202//202 232//232
f 231//231 203//203 202//202
f 230//230 203//203 231//231
f 229//229 203//203 230//230
f 229//229 204//204 203//203
f 228//228 204//204 229//229
f 228//228 205//205 204//204
f 227//227 205//205 228//228
f 226//226 205//205 227//227
f 226//226 206//206 205//205
f 225//225 206//206 226//226
f 224//224 206//206 225//225
f 224//224 207//207 206//206
f 223//223 207//207 224//224
f 213//213 207//207 223//223
f 212//212 207//207 213//213
f 212//212 208//208 207//207
f 211//211 208//208 212//212
f 211//211 209//209 208//208
f 209//209 211//211 210//210
f 247//247 199//199 221//221
f 199//199 247//247 187//187
f 222//222 187//187 247//247
f 187//187 222//222 186//186
f 226//226 249//249 225//225
f 249//249 226//226 248//248
f 225//225 250//250 224//224
f 250//250 225//225 249//249
f 226//226 251//251 248//248
f 251//251 226//226 227//227
f 224//224 252//252 223//223
f 252//252 224//224 250//250
f 227//227 253//253 251//251
f 253//253 227//227 228//228
f 223//223 254//254 236//236
f 254//254 223//223 252//252
f 228//228 255//255 253//253
f 255//255 228//228 229//229
f 236//236 256//256 237//237
f 256//256 236//236 254//254
f 229//229 257//257 255//255
f 257//257 229//229 230//230
f 237//237 258//258 238//238
f 258//258 237//237 256//256
f 230//230 259//259 257//257
f 259//259 230//230 231//231
f 239//239 258//258 260//260
f 258//258 239//239 238//238
f 231//231 261//261 259//259
f 261//261 231//231 232//232
f 240//240 260//260 262//262
f 260//260 240//240 239//239
f 261//261 233//233 263//263
f 233//233 261//261 232//232
f 241//241 262//262 264//264
f 262//262 241//241 240//240
f 263//263 234//234 265//265
f 234//234 263//263 233//233
f 242//242 264//264 266//266
f 264//264 242//242 241//241
f 265//265 235//235 267//267
f 235//235 265//265 234//234
f 243//243 266//266 268//268
f 266//266 243//243 242//242
f 267//267 246//246 269//269
f 246//246 267//267 235//235
f 244//244 268//268 270//270
f 268//268 244//244 243//243
f 269//269 245//245 271//271
f 245//245 269//269 246//246
f 271//271 244//244 270//270
f 244//244 271//271 245//245
f 27//27 35//35 31//31
f 27//27 284//284 35//35
f 23//23 284//284 27//27
f 23//23 295//295 284//284
f 23//23 294//294 295//295
f 20//20 294//294 23//23
f 20//20 293//293 294//294
f 16//16 293//293 20//20
f 16//16 292//292 293//293
f 12//12 292//292 16//16
f 12//12 291//291 292//292
f 8//8 291//291 12//12
f 8//8 290//290 291//291
f 8//8 289//289 290//290
f 5//5 289//289 8//8
f 5//5 288//288 289//289
f 9//9 288//288 5//5
f 9//9 287//287 288//288
f 13//13 287//287 9//9
f 13//13 286//286 287//287
f 13//13 285//285 286//286
f 18//18 285//285 13//13
f 18//18 272//272 285//285
f 272//272 18//18 22//22
f 284//284 39//39 35//35
f 283//283 39//39 284//284
f 282//282 39//39 283//283
f 282//282 43//43 39//39
f 281//281 43//43 282//282
f 281//281 48//48 43//43
f 280//280 48//48 281//281
f 280//280 52//52 48//48
f 279//279 52//52 280//280
f 278//278 52//52 279//279
f 278//278 49//49 52//52
f 277//277 49//49 278//278
f 277//277 45//45 49//49
f 276//276 45//45 277//277
f 276//276 41//41 45//45
f 275//275 41//41 276//276
f 275//275 38//38 41//41
f 274//274 38//38 275//275
f 273//273 38//38 274//274
f 273//273 34//34 38//38
f 272//272 34//34 273//273
f 22//22 34//34 272//272
f 22//22 30//30 34//34
f 30//30 22//22 26//26
f 75//75 83//83 79//79
f 75//75 308//308 83//83
f 71//71 308//308 75//75
f 71//71 319//319 308//308
f 71//71 318//318 319//319
f 68//68 318//318 71//71
f 68//68 317//317 318//318
f 64//64 317//317 68//68
f 64//64 316//316 317//317
f 60//60 316//316 64//64
f 60//60 315//315 316//316
f 56//56 315//315 60//60
f 56//56 314//314 315//315
f 56//56 313//313 314//314
f 53//53 313//313 56//56
f 53//53 312//312 313//313
f 57//57 312//312 53//53
f 57//57 311//311 312//312
f 61//61 311//311 57//57
f 61//61 310//310 311//311
f 61//61 309//309 310//310
f 66//66 309//309 61//61
f 66//66 296//296 309//309
f 296//296 66//66 70//70
f 308//308 87//87 83//83
f 307//307 87//87 308//308
f 306//306 87//87 307//307
f 306//306 91//91 87//87
f 305//305 91//91 306//306
f 305//305 96//96 91//91
f 304//304 96//96 305//305
f 304//304 100//100 96//96
f 303//303 100//100 304//304
f 302//302 100//100 303//303
f 302//302 97//97 100//100
f 301//301 97//97 302//302
f 301//301 93//93 97//97
f 300//300 93//93 301//301
f 300//300 89//89 93//93
f 299//299 89//89 300//300
f 299//299 86//86 89//89
f 298//298 86//86 299//299
f 297//297 86//86 298//298
f 297//297 82//82 86//86
f 296//296 82//82 297//297
f 70//70 82//82 296//296
f 70//70 78//78 82//82
f 78//78 70//70 74//74
f 105//105 347//347 146//146
f 347//347 105//105 106//106
f 347//347 102//102 146//146
f 102//102 347//347 103//103
f 101//101 347//347 106//106
f 347//347 101//101 103//103
f 107//107 113//113 110//110
f 113//113 107//107 150//150
f 113//113 111//111 112//112
f 111//111 113//113 150//150
f 366//366 372//372 373//373
f 372//372 366//366 367//367
f 374//374 366//366 373//373
f 366//366 374//374 365//365
f 375//375 365//365 374//374
f 365//365 375//375 362//362
f 376//376 362//362 375//375
f 362//362 376//376 363//363
f 377//377 363//363 376//376
f 363//363 377//377 361//361
f 378//378 361//361 377//377
f 361//361 378//378 364//364
f 379//379 364//364 378//378
f 364//364 379//379 348//348
f 349//349 379//379 380//380
f 379//379 349//349 348//348
f 350//350 380//380 381//381
f 380//380 350//350 349//349
f 351//351 381//381 382//382
f 381//381 351//351 350//350
f 352//352 382//382 383//383
f 382//382 352//352 351//351
f 353//353 383//383 384//384
f 383//383 353//353 352//352
f 354//354 384//384 385//385
f 384//384 354//354 353//353
f 354//354 386//386 356//356
f 386//386 354//354 385//385
f 356//356 387//387 358//358
f 387//387 356//356 386//386
f 358//358 388//388 360//360
f 388//388 358//358 387//387
f 360//360 389//389 359//359
f 389//389 360//360 388//388
f 359//359 390//390 357//357
f 390//390 359//359 389//389
f 357//357 391//391 355//355
f 391//391 357//357 390//390
f 371//371 391//391 392//392
f 391//391 371//371 355//355
f 370//370 392//392 393//393
f 392//392 370//370 371//371
f 369//369 393//393 394//394
f 393//393 369//369 370//370
f 368//368 394//394 395//395
f 394//394 368//368 369//369
f 367//367 395//395 372//372
f 395//395 367//367 368//368
f 375//375 377//377 376//376
f 375//375 378//378 377//377
f 374//374 378//378 375//375
f 374//374 379//379 378//378
f 373//373 379//379 374//374
f 373//373 380//380 379//379
f 372//372 380//380 373//373
f 372//372 381//381 380//380
f 395//395 381//381 372//372
f 395//395 382//382 381//381
f 394//394 382//382 395//395
f 394//394 383//383 382//382
f 393//393 383//383 394//394
f 393//393 384//384 383//383
f 392//392 384//384 393//393
f 392//392 385//385 384//384
f 391//391 385//385 392//392
f 391//391 386//386 385//385
f 390//390 386//386 391//391
f 390//390 387//387 386//386
f 389//389 387//387 390//390
f 387//387 389//389 388//388
f 295//295 283//283 284//284
f 294//294 283//283 295//295
f 294//294 282//282 283//283
f 293//293 282//282 294//294
f 293//293 281//281 282//282
f 293//293 408//408 281//281
f 293//293 419//419 408//408
f 293//293 418//418 419//419
f 293//293 417//417 418//418
f 293//293 416//416 417//417
f 293//293 415//415 416//416
f 293//293 414//414 415//415
f 293//293 413//413 414//414
f 293//293 412//412 413//413
f 293//293 411//411 412//412
f 292//292 411//411 293//293
f 292//292 410//410 411//411
f 292//292 409//409 410//410
f 292//292 396//396 409//409
f 396//396 292//292 291//291
f 407//407 281//281 408//408
f 406//406 281//281 407//407
f 405//405 281//281 406//406
f 404//404 281//281 405//405
f 403//403 281//281 404//404
f 402//402 281//281 403//403
f 401//401 281//281 402//402
f 401//401 280//280 281//281
f 400//400 280//280 401//401
f 399//399 280//280 400//400
f 398//398 280//280 399//399
f 397//397 280//280 398//398
f 396//396 280//280 397//397
f 291//291 280//280 396//396
f 291//291 279//279 280//280
f 291//291 278//278 279//279
f 290//290 278//278 291//291
f 289//289 278//278 290//290
f 289//289 277//277 278//278
f 289//289 276//276 277//277
f 288//288 276//276 289//289
f 288//288 275//275 276//276
f 287//287 275//275 288//288
f 286//286 275//275 287//287
f 286//286 274//274 275//275
f 285//285 274//274 286//286
f 285//285 273//273 274//274
f 273//273 285//285 272//272
f 317//317 443//443 432//432
f 317//317 442//442 443//443
f 317//317 441//441 442//442
f 317//317 440//440 441//441
f 317//317 439//439 440//440
f 317//317 438//438 439//439
f 316//316 438//438 317//317
f 316//316 437//437 438//438
f 316//316 436//436 437//437
f 316//316 435//435 436//436
f 316//316 434//434 435//435
f 316//316 433//433 434//434
f 316//316 420//420 433//433
f 316//316 303//303 420//420
f 315//315 303//303 316//316
f 315//315 302//302 303//303
f 314//314 302//302 315//315
f 313//313 302//302 314//314
f 313//313 301//301 302//302
f 312//312 301//301 313//313
f 312//312 300//300 301//301
f 312//312 299//299 300//300
f 311//311 299//299 312//312
f 310//310 299//299 311//311
f 310//310 298//298 299//299
f 309//309 298//298 310//310
f 309//309 297//297 298//298
f 297//297 309//309 296//296
f 319//319 307//307 308//308
f 319//319 306//306 307//307
f 318//318 306//306 319//319
f 318//318 305//305 306//306
f 317//317 305//305 318//318
f 432//432 305//305 317//317
f 431//431 305//305 432//432
f 430//430 305//305 431//431
f 429//429 305//305 430//430
f 428//428 305//305 429//429
f 427//427 305//305 428//428
f 426//426 305//305 427//427
f 426//426 304//304 305//305
f 425//425 304//304 426//426
f 424//424 304//304 425//425
f 423//423 304//304 424//424
f 422//422 304//304 423//423
f 421//421 304//304 422//422
f 421//421 303//303 304//304
f 303//303 421//421 420//420
f 445//445 425//425 426//426
f 425//425 445//445 444//444
f 444//444 424//424 425//425
f 424//424 444//444 446//446
f 446//446 423//423 424//424
f 423//423 446//446 447//447
f 448//448 423//423 447//447
f 423//423 448//448 422//422
f 449//449 422//422 448//448
f 422//422 449//449 421//421
f 450//450 421//421 449//449
f 421//421 450//450 420//420
f 451//451 420//420 450//450
f 420//420 451//451 433//433
f 452//452 433//433 451//451
f 433//433 452//452 434//434
f 453//453 434//434 452//452
f 434//434 453//453 435//435
f 453//453 436//436 435//435
f 436//436 453//453 454//454
f 454//454 437//437 436//436
f 437//437 454//454 455//455
f 455//455 438//438 437//437
f 438//438 455//455 456//456
f 456//456 439//439 438//438
f 439//439 456//456 457//457
f 457//457 440//440 439//439
f 440//440 457//457 458//458
f 458//458 441//441 440//440
f 441//441 458//458 459//459
f 441//441 460//460 442//442
f 460//460 441//441 459//459
f 442//442 461//461 443//443
f 461//461 442//442 460//460
f 443//443 462//462 432//432
f 462//462 443//443 461//461
f 432//432 463//463 431//431
f 463//463 432//432 462//462
f 431//431 464//464 430//430
f 464//464 431//431 463//463
f 430//430 465//465 429//429
f 465//465 430//430 464//464
f 465//465 428//428 429//429
f 428//428 465//465 466//466
f 466//466 427//427 428//428
f 427//427 466//466 467//467
f 467//467 426//426 427//427
f 426//426 467//467 445//445
f 461//461 463//463 462//462
f 460//460 463//463 461//461
f 460//460 464//464 463//463
f 459//459 464//464 460//460
f 459//459 465//465 464//464
f 458//458 465//465 459//459
f 458//458 466//466 465//465
f 457//457 466//466 458//458
f 457//457 467//467 466//466
f 456//456 467//467 457//457
f 456//456 445//445 467//467
f 455//455 445//445 456//456
f 455//455 444//444 445//445
f 454//454 444//444 455//455
f 454//454 446//446 444//444
f 453//453 446//446 454//454
f 453//453 447//447 446//446
f 452//452 447//447 453//453
f 452//452 448//448 447//447
f 451//451 448//448 452//452
f 451//451 449//449 448//448
f 449//449 451//451 450//450
f 469//469 401//401 402//402
f 401//401 469//469 468//468
f 468//468 400//400 401//401
f 400//400 468//468 470//470
f 470//470 399//399 400//400
f 399//399 470//470 471//471
f 472//472 399//399 471//471
f 399//399 472//472 398//398
f 473//473 398//398 472//472
f 398//398 473//473 397//397
f 474//474 397//397 473//473
f 397//397 474//474 396//396
f 475//475 396//396 474//474
f 396//396 475//475 409//409
f 476//476 409//409 475//475
f 409//409 476//476 410//410
f 477//477 410//410 476//476
f 410//410 477//477 411//411
f 477//477 412//412 411//411
f 412//412 477//477 478//478
f 478//478 413//413 412//412
f 413//413 478//478 479//479
f 479//479 414//414 413//413
f 414//414 479//479 480//480
f 480//480 415//415 414//414
f 415//415 480//480 481//481
f 481//481 416//416 415//415
f 416//416 481//481 482//482
f 482//482 417//417 416//416
f 417//417 482//482 483//483
f 417//417 484//484 418//418
f 484//484 417//417 483//483
f 418//418 485//485 419//419
f 485//485 418//418 484//484
f 419//419 486//486 408//408
f 486//486 419//419 485//485
f 408//408 487//487 407//407
f 487//487 408//408 486//486
f 407//407 488//488 406//406
f 488//488 407//407 487//487
f 406//406 489//489 405//405
f 489//489 406//406 488//488
f 489//489 404//404 405//405
f 404//404 489//489 490//490
f 490//490 403//403 404//404
f 403//403 490//490 491//491
f 491//491 402//402 403//403
f 402//402 491//491 469//469
f 485//485 487//487 486//486
f 484//484 487//487 485//485
f 484//484 488//488 487//487
f 483//483 488//488 484//484
f 483//483 489//489 488//488
f 482//482 489//489 483//483
f 482//482 490//490 489//489
f 481//481 490//490 482//482
f 481//481 491//491 490//490
f 480//480 491//491 481//481
f 480//480 469//469 491//491
f 479//479 469//469 480//480
f 479//479 468//468 469//469
f 478//478 468//468 479//479
f 478//478 470//470 468//468
f 477//477 470//470 478//478
f 477//477 471//471 470//470
f 476//476 471//471 477//477
f 476//476 472//472 471//471
f 475//475 472//472 476//476
f 475//475 473//473 472//472
f 473//473 475//475 474//474