# https://github.com/mikedh/trimesh
v 0.02149100 0.00509000 -0.04005700
v 0.09977700 -0.00003900 -0.03382300
v 0.09977700 0.00509000 -0.03382300
v 0.02149100 -0.00003900 -0.04005700
v 0.01213800 -0.00003900 0.07740300
v 0.09042400 -0.00003900 0.08363600
v 0.09042400 0.00509000 0.08363600
v 0.01213800 0.00509000 0.07740300
v 0.09162400 -0.02229300 0.08263500
v 0.09214000 -0.01178500 0.07616100
v 0.09162400 -0.01178500 0.08263500
v 0.09214000 -0.02229300 0.07616100
v 0.09257500 -0.02229300 0.07147500
v 0.09309900 -0.01161700 0.06489800
v 0.09257500 -0.01161700 0.07147500
v 0.09309900 -0.02229300 0.06489800
v 0.09918800 -0.02229300 -0.01600800
v 0.09968100 -0.01225300 -0.02219400
v 0.09918800 -0.01225300 -0.01600800
v 0.09968100 -0.02229300 -0.02219400
v 0.09192400 -0.02229300 0.06480400
v 0.09192400 -0.01161700 0.06480400
v 0.09140000 -0.01161700 0.07138100
v 0.09140000 -0.02229300 0.07138100
v 0.09102600 -0.02229300 0.07607300
v 0.09102600 -0.01178500 0.07607300
v 0.09051100 -0.01178500 0.08254600
v 0.09051100 -0.02229300 0.08254600
v 0.09885600 -0.02229300 -0.02225900
v 0.09885600 -0.01225300 -0.02225900
v 0.09836400 -0.01225300 -0.01607400
v 0.09836400 -0.02229300 -0.01607400
v 0.09342000 -0.02229300 0.04601200
v 0.09722700 -0.01106200 -0.00180100
v 0.09342000 -0.01106200 0.04601200
v 0.09722700 -0.02229300 -0.00180100
v -0.11536400 -0.02229300 -0.04036700
v -0.12227200 0.02161700 0.09161200
v -0.11536400 0.02161700 -0.04036700
v -0.12227200 -0.02229300 0.09161200
v 0.10029800 0.02161700 -0.04036700
v 0.08900500 0.02161700 0.10145700
v 0.08900500 -0.02229300 0.10145700
v 0.10029800 -0.02229300 -0.04036700
v -0.09923200 0.00050000 0.09268600
v -0.02631100 -0.02229300 0.09608400
v -0.02631100 -0.00078600 0.09608400
v -0.09923200 -0.02229300 0.09268600
v 0.10938500 0.03031200 -0.04036700
v 0.10938500 -0.03136500 -0.04036700
v -0.12325800 0.03031200 -0.04036700
v -0.12325800 -0.03136500 -0.04036700
v 0.10938500 0.03031200 -0.08605600
v 0.10938500 -0.03136500 -0.08605600
v -0.12325800 0.03031200 -0.08605600
v -0.12325800 -0.03136500 -0.08605600
vn 0.52969978 -0.57735006 0.62135743
vn 0.87774970 0.30151110 0.37235268
vn 0.87774950 -0.30151108 0.37235316
vn 0.52969978 0.57735006 0.62135743
vn 0.62135420 0.57734981 -0.52970384
vn 0.92560515 0.30152533 -0.22877407
vn 0.92561143 -0.30151422 -0.22876330
vn 0.62135420 -0.57734981 -0.52970384
vn 0.52957956 -0.57733665 0.62147235
vn 0.62122978 0.57731324 -0.52988960
vn 0.52957956 0.57733665 0.62147235
vn 0.62122978 -0.57731324 -0.52988960
vn 0.52957992 -0.57733311 0.62147533
vn 0.62145686 0.57736743 -0.52956418
vn 0.52957992 0.57733311 0.62147533
vn 0.62145686 -0.57736743 -0.52956418
vn 0.52954412 -0.57732932 0.62150936
vn 0.62117901 0.57730282 -0.52996046
vn 0.52954412 0.57732932 0.62150936
vn 0.62117901 -0.57730282 -0.52996046
vn 0.55414930 -0.80171910 -0.22397554
vn 0.95834078 0.23657936 -0.16004109
vn 0.92109448 0.23576834 0.30983584
vn 0.51152279 -0.80183641 0.30887345
vn 0.55387888 -0.80189990 -0.22399717
vn 0.95894145 0.23398856 -0.16025181
vn 0.92110708 0.23577387 0.30979418
vn 0.51153763 -0.80184510 0.30882630
vn 0.55382860 -0.80192665 -0.22402574
vn 0.95850068 0.23582061 -0.16020329
vn 0.92109190 0.23581964 0.30980448
vn 0.51150395 -0.80186617 0.30882738
vn 0.70487473 -0.70710839 0.05611897
vn 0.99684422 -0.00000871 0.07938259
vn 0.99684520 0.00000607 0.07937037
vn 0.70487061 -0.70711105 0.05613716
vn -0.30452256 -0.31509126 0.89887903
vn -0.60533044 0.57705120 0.54825813
vn -0.30452256 0.31509126 0.89887903
vn -0.60533302 -0.57705044 0.54825607
vn 0.29553003 0.28146957 0.91292764
vn 0.53902964 0.57910060 0.61162859
vn 0.53902701 -0.57910053 0.61163099
vn 0.29552957 -0.28146837 0.91292816
vn -0.04655352 0.00000720 0.99891580
vn -0.03291269 -0.70710626 0.70634092
vn -0.04654638 0.00001026 0.99891613
vn -0.03292011 -0.70710496 0.70634187
vn 0.57735027 0.57735027 0.57735027
vn 0.57735027 -0.57735027 0.57735027
vn -0.57735027 0.57735027 0.57735027
vn -0.57735027 -0.57735027 0.57735027
vn 0.57735027 0.57735027 -0.57735027
vn 0.57735027 -0.57735027 -0.57735027
vn -0.57735027 0.57735027 -0.57735027
vn -0.57735027 -0.57735027 -0.57735027
f 1//1 2//2 3//3
f 2//2 1//1 4//4
f 2//2 5//5 6//6
f 5//5 2//2 4//4
f 5//5 7//7 6//6
f 7//7 5//5 8//8
f 8//8 3//3 7//7
f 3//3 8//8 1//1
f 5//5 1//1 8//8
f 1//1 5//5 4//4
f 9//9 10//10 11//11
f 10//10 9//9 12//12
f 13//13 14//14 15//15
f 14//14 13//13 16//16
f 17//17 18//18 19//19
f 18//18 17//17 20//20
f 21//21 14//14 16//16
f 14//14 21//21 22//22
f 14//14 23//23 15//15
f 23//23 14//14 22//22
f 23//23 13//13 15//15
f 13//13 23//23 24//24
f 25//25 10//10 12//12
f 10//10 25//25 26//26
f 10//10 27//27 11//11
f 27//27 10//10 26//26
f 27//27 9//9 11//11
f 9//9 27//27 28//28
f 29//29 18//18 20//20
f 18//18 29//29 30//30
f 18//18 31//31 19//19
f 31//31 18//18 30//30
f 31//31 17//17 19//19
f 17//17 31//31 32//32
f 28//28 26//26 27//27
f 26//26 28//28 25//25
f 28//28 12//12 9//9
f 12//12 28//28 25//25
f 24//24 22//22 23//23
f 22//22 24//24 21//21
f 24//24 16//16 13//13
f 16//16 24//24 21//21
f 33//33 34//34 35//35
f 34//34 33//33 36//36
f 32//32 30//30 31//31
f 30//30 32//32 29//29
f 32//32 20//20 17//17
f 20//20 32//32 29//29
f 37//37 38//38 39//39
f 38//38 37//37 40//40
f 41//41 38//38 42//42
f 38//38 41//41 39//39
f 36//36 31//31 34//34
f 31//31 36//36 32//32
f 42//42 7//7 41//41
f 42//42 6//6 7//7
f 6//6 35//35 2//2
f 6//6 23//23 35//35
f 6//6 27//27 23//23
f 42//42 27//27 6//6
f 43//43 27//27 42//42
f 27//27 43//43 28//28
f 3//3 41//41 7//7
f 2//2 41//41 3//3
f 34//34 2//2 35//35
f 31//31 2//2 34//34
f 30//30 2//2 31//31
f 29//29 2//2 30//30
f 2//2 44//44 41//41
f 44//44 2//2 29//29
f 22//22 35//35 23//23
f 21//21 35//35 22//22
f 35//35 21//21 33//33
f 26//26 23//23 27//27
f 25//25 23//23 26//26
f 23//23 25//25 24//24
f 45//45 46//46 47//47
f 46//46 45//45 48//48
f 48//48 43//43 46//46
f 40//40 43//43 48//48
f 40//40 28//28 43//43
f 40//40 25//25 28//28
f 40//40 24//24 25//25
f 40//40 21//21 24//24
f 40//40 33//33 21//21
f 40//40 36//36 33//33
f 40//40 32//32 36//36
f 40//40 29//29 32//32
f 37//37 29//29 40//40
f 29//29 37//37 44//44
f 42//42 47//47 43//43
f 42//42 45//45 47//47
f 38//38 45//45 42//42
f 38//38 48//48 45//45
f 48//48 38//38 40//40
f 43//43 47//47 46//46
f 49//49 41//41 50//50
f 49//49 39//39 41//41
f 39//39 51//51 37//37
f 51//51 39//39 49//49
f 44//44 50//50 41//41
f 37//37 50//50 44//44
f 37//37 52//52 50//50
f 52//52 37//37 51//51
f 50//50 53//53 49//49
f 53//53 50//50 54//54
f 53//53 51//51 49//49
f 51//51 53//53 55//55
f 56//56 51//51 55//55
f 51//51 56//56 52//52
f 56//56 50//50 52//52
f 50//50 56//56 54//54
f 56//56 53//53 54//54
f 53//53 56//56 55//55