# https://github.com/mikedh/trimesh
v -0.03805400 -0.06857800 0.03131100
v -0.03901100 -0.06785600 0.03146600
v -0.03833800 -0.06828500 0.03151100
v -0.04046700 -0.06921800 0.02692200
v -0.04371900 -0.06695600 0.02708100
v -0.03923000 -0.06983300 0.02733900
v -0.04232500 -0.06780900 0.02723900
v -0.04074800 -0.06862300 0.02771400
v -0.03891300 -0.06909900 0.02918000
v -0.04032000 -0.06808800 0.02931000
v -0.03843000 -0.06864000 0.03070100
v -0.04005200 -0.06761900 0.03057100
v -0.04011800 -0.06746500 0.03078500
v -0.03814000 -0.06874100 0.03088100
v -0.04092900 -0.06685900 0.03090600
v -0.04185600 -0.06619200 0.03099500
v -0.04172200 -0.06599300 0.03155500
v -0.03868600 -0.06532200 0.03681700
v -0.03842800 -0.06525600 0.03728000
v -0.03780000 -0.06559800 0.03743500
v -0.03853700 -0.06484000 0.03794900
v -0.03658400 -0.06588700 0.03845800
v -0.03890900 -0.06449000 0.03814300
v -0.03994500 -0.06363300 0.03846000
v -0.03721900 -0.06535600 0.03866300
v -0.04117900 -0.06275100 0.03856500
v -0.04446300 -0.06685100 0.02631600
v -0.04537000 -0.06621600 0.02636700
v -0.04318800 -0.06767000 0.02638600
v -0.04619500 -0.06558400 0.02652100
v -0.04182200 -0.06847800 0.02659600
v -0.04693800 -0.06495400 0.02677900
v -0.04759800 -0.06432600 0.02713900
v -0.04487300 -0.06611900 0.02720300
v -0.04816600 -0.06371300 0.02759000
v -0.04583800 -0.06528400 0.02757000
v -0.04661300 -0.06445000 0.02818200
v -0.04863300 -0.06312700 0.02812200
v -0.04899700 -0.06256800 0.02873300
v -0.04719800 -0.06361700 0.02903800
v -0.04926000 -0.06203600 0.02942500
v -0.04752800 -0.06294600 0.02991300
v -0.04941700 -0.06154100 0.03018100
v -0.04768100 -0.06234400 0.03088400
v -0.04946700 -0.06109300 0.03098700
v -0.04765800 -0.06181100 0.03195000
v -0.04940800 -0.06069300 0.03184300
v -0.04924100 -0.06033900 0.03274700
v -0.04745800 -0.06134700 0.03311200
v -0.04896700 -0.06004200 0.03368200
v -0.04708800 -0.06097900 0.03430900
v -0.04860200 -0.05983400 0.03456300
v -0.04657700 -0.06077000 0.03538300
v -0.04814600 -0.05971300 0.03539200
v -0.04592400 -0.06071900 0.03633300
v -0.04759900 -0.05968000 0.03616800
v -0.04697600 -0.05973400 0.03687500
v -0.04512900 -0.06082600 0.03715900
v -0.04629200 -0.05987100 0.03750000
v -0.04428700 -0.06107400 0.03777500
v -0.04554600 -0.06009300 0.03804100
v -0.04334800 -0.06147800 0.03821400
v -0.04473800 -0.06039900 0.03849800
v -0.04231200 -0.06203700 0.03847700
v -0.04386300 -0.06079900 0.03886200
v -0.03912500 -0.06380400 0.03919700
v -0.04291500 -0.06130100 0.03912200
v -0.04189200 -0.06190600 0.03927800
v -0.04079600 -0.06261400 0.03933000
v 0.04096200 0.06064800 -0.03359200
v 0.04138000 0.06042600 -0.03347900
v 0.04347900 0.06440200 -0.03552300
v 0.04390100 0.06418600 -0.03541400
v 0.04178400 0.06026900 -0.03325800
v 0.04431700 0.06404700 -0.03520200
v 0.04055900 0.06092000 -0.03358900
v 0.04307900 0.06468000 -0.03552400
v 0.04214600 0.06018700 -0.03294400
v 0.04470000 0.06399600 -0.03490300
v 0.04244700 0.06122300 -0.03053800
v 0.04587200 0.06645000 -0.03316600
v 0.04588700 0.06635400 -0.03317800
v 0.04215200 0.06153700 -0.03031200
v 0.04593200 0.06717500 -0.03321200
v 0.04019700 0.06122300 -0.03347100
v 0.04273000 0.06500200 -0.03541500
v 0.04179100 0.06184100 -0.03019300
v 0.04596900 0.06807300 -0.03340000
v 0.04502200 0.06403500 -0.03453700
v 0.04244300 0.06018700 -0.03255800
v 0.04265500 0.06092000 -0.03085700
v 0.04583800 0.06566700 -0.03329900
v 0.03990200 0.06153700 -0.03324400
v 0.04245600 0.06534600 -0.03520400
v 0.04138700 0.06211300 -0.03019100
v 0.04581300 0.06871400 -0.03358600
v 0.04265200 0.06026900 -0.03212600
v 0.04504000 0.06404400 -0.03450700
v 0.04532200 0.06425100 -0.03417500
v 0.04276200 0.06064800 -0.03124600
v 0.04572400 0.06506600 -0.03351900
v 0.04576900 0.06541100 -0.03335500
v 0.03969400 0.06184100 -0.03292600
v 0.04227400 0.06568800 -0.03490500
v 0.04096900 0.06233500 -0.03030400
v 0.04514800 0.06856800 -0.03351000
v 0.03958800 0.06233500 -0.03210400
v 0.04276200 0.06042600 -0.03167900
v 0.04462300 0.06777200 -0.03337400
v 0.04548600 0.06725400 -0.03325900
v 0.02079400 0.04381400 -0.02177900
v 0.03305700 0.03643800 -0.02013600
v 0.04553400 0.06456100 -0.03380600
v 0.03958700 0.06211300 -0.03253700
v 0.04226800 0.06571100 -0.03487800
v 0.04225700 0.06609500 -0.03458600
v 0.04056500 0.06249200 -0.03052500
v 0.04434500 0.06813000 -0.03342500
v 0.04236000 0.06647000 -0.03423100
v 0.04020300 0.06257300 -0.03083900
v 0.04364300 0.06770400 -0.03347900
v 0.04373100 0.06773800 -0.03345300
v 0.03969700 0.06249200 -0.03165700
v 0.04265900 0.06691000 -0.03392900
v 0.04308900 0.06732000 -0.03366700
v 0.03990700 0.06257300 -0.03122500
v 0.04290800 0.06713200 -0.03373900
v 0.03263500 0.03583200 -0.02186500
v 0.04438500 0.06753500 -0.03337900
v 0.04538600 0.06693200 -0.03324500
v 0.02079000 0.04295600 -0.02345200
v -0.01620800 -0.03201600 0.00866600
v -0.01322500 -0.02997000 0.00866600
v 0.02927900 0.03583200 -0.02623800
v 0.03068000 0.03551700 -0.02502300
v -0.01888300 -0.03307100 0.00866600
v 0.02771900 0.03643800 -0.02709300
v -0.02106700 -0.03306200 0.00866600
v 0.02610400 0.03729700 -0.02752900
v -0.02261100 -0.03198900 0.00866600
v 0.02454500 0.03834700 -0.02751800
v -0.02341000 -0.02992500 0.00866600
v 0.02314800 0.03952000 -0.02705900
v -0.02341000 -0.02701300 0.00866600
v 0.02200900 0.04073300 -0.02618500
v -0.02261100 -0.02344800 0.00866600
v 0.02120400 0.04190500 -0.02495500
v -0.02106700 -0.01947600 0.00866600
v -0.01888300 -0.01536600 0.00866600
v -0.01620800 -0.01139900 0.00866600
v 0.02121500 0.04442100 -0.02005000
v -0.01322500 -0.00784400 0.00866600
v 0.02202600 0.04473500 -0.01838300
v 0.02317100 0.04473500 -0.01689100
v -0.01013700 -0.00494500 0.00866600
v -0.00715300 -0.00289800 0.00866600
v 0.02457100 0.04442100 -0.01567700
v -0.00447900 -0.00184400 0.00866600
v 0.02613200 0.04381400 -0.01482200
v -0.00229500 -0.00185300 0.00866600
v 0.02774700 0.04295600 -0.01438600
v -0.00075100 -0.00292600 0.00866600
v 0.02930600 0.04190500 -0.01439700
v 0.00004900 -0.00498900 0.00866600
v 0.03070200 0.04073300 -0.01485500
v 0.00004900 -0.00790200 0.00866600
v 0.03184200 0.03952000 -0.01573000
v -0.00075100 -0.01146600 0.00866600
v 0.03264600 0.03834700 -0.01696000
v 0.02178800 0.02059300 -0.00973500
v -0.00229500 -0.01543800 0.00866600
v 0.03306000 0.03729700 -0.01846300
v 0.02168700 0.02046400 -0.00964200
v 0.02158200 0.02037200 -0.00951600
v 0.02148000 0.02032200 -0.00936600
v 0.02138900 0.02031800 -0.00920200
v 0.02187800 0.02074900 -0.00978800
v 0.02195100 0.02092200 -0.00979900
v 0.02200200 0.02110000 -0.00976600
v 0.02202800 0.02127100 -0.00969200
v 0.02202600 0.02142200 -0.00958100
v 0.02199800 0.02154500 -0.00944200
v 0.02194400 0.02163100 -0.00928300
v 0.02186900 0.02167300 -0.00911600
v 0.02147000 0.02139800 -0.00858300
v 0.02138000 0.02124200 -0.00853000
v 0.02130700 0.02106900 -0.00851900
v 0.02125600 0.02089100 -0.00855200
v 0.02123000 0.02072000 -0.00862600
v 0.02123200 0.02056800 -0.00873700
v 0.02126000 0.02044500 -0.00887600
v 0.02131400 0.02036000 -0.00903500
v 0.02157100 0.02152700 -0.00867600
v 0.02167600 0.02161900 -0.00880200
v 0.02177700 0.02166900 -0.00895200
v -0.00447900 -0.01954800 0.00866600
v 0.03182400 0.03551700 -0.02353200
v -0.01013700 -0.02707000 0.00866600
v -0.00715300 -0.02351600 0.00866600
v 0.03361400 0.05432200 -0.02130400
v 0.03679600 0.05829300 -0.02462300
v 0.03501300 0.05357900 -0.02092600
v 0.03793800 0.05768700 -0.02431500
v 0.03930400 0.06102600 -0.02769300
v 0.04011200 0.06059700 -0.02747500
v 0.02997700 0.04938400 -0.01796100
v 0.03153700 0.04855500 -0.01753900
v 0.03852400 0.06133000 -0.02812000
v 0.03569200 0.05872200 -0.02522800
v 0.03226300 0.05484700 -0.02204400
v 0.02846900 0.04997000 -0.01878700
v 0.03636300 0.05266900 -0.02093600
v 0.03904000 0.05694300 -0.02432300
v 0.04089100 0.06007200 -0.02748000
v 0.03304300 0.04754000 -0.01755000
v 0.03782300 0.06148700 -0.02872800
v 0.03470200 0.05894400 -0.02608700
v 0.03105000 0.05512000 -0.02309600
v 0.02711700 0.05027300 -0.01996000
v 0.03757200 0.05165400 -0.02133300
v 0.04002700 0.05611400 -0.02464700
v 0.04159000 0.05948600 -0.02771000
v 0.03439200 0.04640700 -0.01799300
v 0.03725100 0.06148700 -0.02947300
v 0.03389200 0.05894400 -0.02714100
v 0.03005800 0.05512000 -0.02438800
v 0.02601100 0.05027300 -0.02140100
v 0.03855900 0.05060300 -0.02209000
v 0.04083300 0.05525600 -0.02526500
v 0.04215900 0.05887900 -0.02814700
v 0.03549200 0.04523500 -0.01883700
v 0.03684600 0.06133000 -0.03030700
v 0.03331900 0.05872200 -0.02832000
v 0.02935600 0.05484700 -0.02583200
v 0.02522800 0.04997000 -0.02301100
v 0.03925600 0.04958800 -0.02315500
v 0.04140200 0.05442700 -0.02613500
v 0.04256100 0.05829300 -0.02876200
v 0.03626900 0.04410300 -0.02002600
v 0.03791700 0.05307700 -0.03330000
v 0.03902100 0.05264900 -0.03269500
v 0.04009800 0.05733800 -0.03382800
v 0.04087800 0.05703500 -0.03340100
v 0.03677500 0.05368400 -0.03360900
v 0.03929000 0.05776700 -0.03404600
v 0.03567300 0.05442700 -0.03360100
v 0.03851100 0.05829300 -0.03404100
v 0.03468600 0.05525600 -0.03327600
v 0.03781200 0.05887900 -0.03381200
v 0.03388000 0.05611400 -0.03265800
v 0.03724300 0.05948600 -0.03337400
v 0.03331100 0.05694300 -0.03178800
v 0.03684100 0.06007200 -0.03275900
v 0.03663500 0.06102600 -0.03117100
v 0.03302100 0.05829300 -0.02954300
v 0.02899100 0.05432200 -0.02732900
v 0.02482100 0.04938400 -0.02468100
v 0.04157800 0.05687800 -0.03279400
v 0.03961400 0.04867700 -0.02445700
v 0.04169500 0.05368400 -0.02719800
v 0.04276800 0.05776700 -0.02951300
v 0.03666900 0.04308800 -0.02147800
v 0.04001100 0.05242600 -0.03183700
v 0.03498800 0.04793400 -0.03193000
v 0.03634000 0.04740900 -0.03119000
v 0.03359000 0.04867700 -0.03230900
v 0.03224000 0.04958800 -0.03229900
v 0.03103000 0.05060300 -0.03190200
v 0.03004300 0.05165400 -0.03114500
v 0.02934700 0.05266900 -0.03007900
v 0.02898800 0.05357900 -0.02877800
v 0.03301800 0.05768700 -0.03072600
v 0.03663300 0.06059700 -0.03200800
v 0.02481700 0.04855500 -0.02629700
v 0.04215100 0.05687800 -0.03204800
v 0.03961100 0.04793400 -0.02590600
v 0.04169200 0.05307700 -0.02838100
v 0.04276700 0.05733800 -0.03035000
v 0.03666600 0.04225900 -0.02309400
v 0.04082100 0.05242600 -0.03078200
v 0.03755300 0.04713700 -0.03013800
v 0.03151000 0.04225900 -0.02981300
v 0.03301700 0.04167300 -0.02898800
v 0.02995000 0.04308800 -0.03023500
v 0.02844400 0.04410300 -0.03022400
v 0.02709500 0.04523500 -0.02978100
v 0.02599400 0.04640700 -0.02893700
v 0.02521700 0.04754000 -0.02774800
v 0.04255600 0.05703500 -0.03121400
v 0.04139400 0.05264900 -0.02960300
v 0.03854400 0.04713700 -0.02884700
v 0.03924600 0.04740900 -0.02740300
v 0.03625900 0.04167300 -0.02476400
v 0.03437000 0.04136900 -0.02781500
v 0.03547600 0.04136900 -0.02637400
v -0.03508900 -0.04750100 0.03215500
v -0.03347500 -0.04835900 0.03259100
v -0.01447300 -0.02001800 0.01801100
v -0.01282100 -0.01755400 0.01674400
v -0.03191600 -0.04941000 0.03258000
v -0.03511800 -0.05401900 0.01944800
v -0.03350300 -0.05487700 0.01988400
v -0.03667700 -0.05296800 0.01945900
v -0.03807300 -0.05179600 0.01991700
v -0.03921300 -0.05058300 0.02079100
v -0.04001700 -0.04941000 0.02202200
v -0.04043100 -0.04835900 0.02352500
v -0.04042700 -0.04750100 0.02519800
v -0.04000600 -0.04689500 0.02692700
v -0.03919500 -0.04658000 0.02859400
v -0.03805100 -0.04658000 0.03008500
v -0.03665000 -0.04689500 0.03130000
v -0.04425800 -0.05922800 0.04140000
v -0.04067100 -0.05416900 0.03734300
v -0.03995900 -0.05372900 0.03706500
v -0.03712100 -0.05352300 0.03662100
v -0.01475400 -0.01522100 0.01876100
v -0.01490300 -0.01573400 0.01757000
v -0.01268100 -0.01707000 0.01786800
v -0.01045900 -0.01840600 0.01816600
v -0.01031100 -0.01789400 0.01935600
v -0.01249300 -0.01642200 0.01937200
v -0.03051900 -0.05058300 0.03212100
v -0.03981500 -0.06190100 0.04199600
v -0.03622800 -0.05684200 0.03793800
v -0.03611100 -0.05604400 0.03758000
v -0.02938000 -0.05179600 0.03124700
v -0.03194200 -0.05548400 0.02073900
v -0.03785900 -0.06354200 0.04135400
v -0.03626400 -0.06524100 0.04013000
v -0.03513800 -0.06688200 0.03840700
v -0.02857500 -0.05296800 0.03001700
v -0.03985200 -0.07040400 0.02541900
v -0.03789100 -0.07084400 0.02711900
v -0.03054200 -0.05579800 0.02195400
v -0.04203700 -0.06955500 0.02422200
v -0.04429800 -0.06835400 0.02361100
v -0.04648000 -0.06688200 0.02362700
v -0.04843500 -0.06524100 0.02426800
v -0.05003000 -0.06354200 0.02549200
v -0.05115600 -0.06190100 0.02721500
v -0.05173700 -0.06043000 0.02931900
v -0.05173100 -0.05922800 0.03166100
v -0.05114100 -0.05837900 0.03408100
v -0.05000600 -0.05793900 0.03641500
v -0.04840400 -0.05793900 0.03850300
v -0.04644300 -0.05837900 0.04020400
v -0.04199700 -0.06043000 0.04201100
v -0.03455800 -0.06835400 0.03630300
v -0.02816100 -0.05401900 0.02851400
v -0.03628900 -0.07084400 0.02920700
v -0.02939700 -0.05579800 0.02344500
v -0.03515400 -0.07040400 0.03154100
v -0.03456300 -0.06955500 0.03396100
v -0.02816500 -0.05487700 0.02684100
v -0.02858600 -0.05548400 0.02511200
v 0.02262400 0.02119000 -0.00925400
v 0.02259600 0.02131300 -0.00911400
v 0.02262600 0.02103800 -0.00936400
v 0.02228400 0.02023200 -0.00931400
v 0.02238500 0.02036000 -0.00940700
v 0.02218000 0.02013900 -0.00918900
v 0.02207800 0.02008900 -0.00903800
v 0.02198700 0.02008500 -0.00887400
v 0.02191100 0.02012800 -0.00870700
v 0.02185800 0.02021300 -0.00854800
v 0.02182900 0.02033600 -0.00840900
v 0.02182800 0.02048800 -0.00829900
v 0.02185400 0.02065900 -0.00822400
v 0.02190500 0.02083700 -0.00819100
v 0.02197800 0.02101000 -0.00820200
v 0.02206800 0.02116600 -0.00825600
v 0.02216900 0.02129400 -0.00834900
v 0.02227400 0.02138700 -0.00847400
v 0.02237500 0.02143700 -0.00862500
v 0.02246700 0.02144100 -0.00878900
v 0.02254200 0.02139900 -0.00895600
v 0.02260000 0.02086700 -0.00943900
v 0.02247500 0.02051600 -0.00946100
v 0.02254900 0.02068900 -0.00947200
v -0.01224600 -0.01813200 0.01692000
v -0.01210500 -0.01764800 0.01804500
v -0.01249400 -0.01781000 0.01681300
v -0.01235400 -0.01732600 0.01793700
v -0.01209300 -0.01849900 0.01705900
v -0.01195200 -0.01801500 0.01818400
v -0.01204500 -0.01888500 0.01722000
v -0.01190500 -0.01840100 0.01834400
v -0.01210700 -0.01926500 0.01739100
v -0.01196700 -0.01878100 0.01851600
v -0.01227400 -0.01961200 0.01756100
v -0.01213400 -0.01912800 0.01868600
v -0.01253500 -0.01990300 0.01771900
v -0.01239400 -0.01941800 0.01884300
v -0.01287100 -0.02011700 0.01785300
v -0.01273100 -0.01963300 0.01897800
v -0.01326100 -0.02024100 0.01795500
v -0.01312000 -0.01975700 0.01908000
v -0.01367600 -0.02026600 0.01801800
v -0.01353600 -0.01978200 0.01914300
v -0.01480100 -0.01976200 0.01794200
v -0.01504900 -0.01944000 0.01783400
v -0.01466000 -0.01927800 0.01906600
v -0.01490900 -0.01895600 0.01895900
v -0.01520200 -0.01907300 0.01769500
v -0.01506200 -0.01858900 0.01882000
v -0.01524900 -0.01868700 0.01753500
v -0.01510900 -0.01820200 0.01865900
v -0.01518800 -0.01830700 0.01736300
v -0.01504700 -0.01782300 0.01848800
v -0.01502000 -0.01796000 0.01719300
v -0.01488000 -0.01747600 0.01831800
v -0.01476000 -0.01766900 0.01703500
v -0.01461900 -0.01718500 0.01816000
v -0.01442400 -0.01745500 0.01690100
v -0.01428300 -0.01697100 0.01802500
v -0.01403400 -0.01733100 0.01679900
v -0.01389400 -0.01684700 0.01792300
v -0.01361900 -0.01730600 0.01673600
v -0.01347800 -0.01682200 0.01786100
v -0.01320500 -0.01738300 0.01671700
v -0.01306400 -0.01689800 0.01784200
v -0.01409000 -0.02019000 0.01803700
v -0.01394900 -0.01970500 0.01916100
v -0.01433300 -0.01953400 0.01913500
vn 0.00000000 0.00000000 -0.00000000
vn 0.00000000 0.00000000 -0.00000000
vn -0.00000000 -0.00000000 0.00000000
vn -0.00000000 0.00000000 0.00000000
vn -0.00000000 -0.00000000 0.00000000
vn 0.00000000 0.00000000 -0.00000000
vn 0.00000000 0.00000000 -0.00000000
vn 0.00000000 0.00000000 -0.00000000
vn 0.00000000 0.00000000 0.00000000
vn -0.00000000 0.00000000 0.00000000
vn 0.00000000 0.00000000 -0.00000000
vn 0.00000000 0.00000000 -0.00000000
vn 0.00000000 0.00000000 -0.00000000
vn -0.00000000 -0.00000000 0.00000000
vn -0.00000000 -0.00000000 0.00000000
vn 0.00000000 0.00000000 -0.00000000
vn -0.00000000 -0.00000000 0.00000000
vn 0.00000000 0.00000000 -0.00000000
vn 0.00000000 0.00000000 -0.00000000
vn -0.00000000 -0.00000000 0.00000000
vn -0.00000000 -0.00000000 0.00000000
vn -0.00000000 0.00000000 0.00000000
vn 0.00000000 0.00000000 -0.00000000
vn -0.00000000 -0.00000000 0.00000000
vn 0.00000000 0.00000000 -0.00000000
vn 0.00000000 0.00000000 0.00000000
vn -0.00000000 -0.00000000 0.00000000
vn 0.00000000 0.00000000 -0.00000000
vn -0.00000000 -0.00000000 0.00000000
vn -0.00000000 -0.00000000 0.00000000
vn 0.00000000 0.00000000 -0.00000000
vn 0.00000000 0.00000000 -0.00000000
vn 0.00000000 0.00000000 -0.00000000
vn 0.00000000 0.00000000 -0.00000000
vn 0.00000000 0.00000000 -0.00000000
vn -0.00000000 -0.00000000 0.00000000
vn 0.00000000 0.00000000 -0.00000000
vn -0.00000000 -0.00000000 0.00000000
vn -0.00000000 -0.00000000 0.00000000
vn -0.00000000 -0.00000000 0.00000000
vn 0.00000000 0.00000000 -0.00000000
vn -0.00000000 -0.00000000 0.00000000
vn -0.00000000 -0.00000000 -0.00000000
vn -0.00000000 -0.00000000 0.00000000
vn 0.00000000 -0.00000000 0.00000000
vn 0.00000000 0.00000000 -0.00000000
vn 0.00000000 0.00000000 -0.00000000
vn -0.00000000 -0.00000000 0.00000000
vn 0.00000000 0.00000000 -0.00000000
vn 0.00000000 0.00000000 -0.00000000
vn 0.00000000 0.00000000 -0.00000000
vn 0.00000000 0.00000000 -0.00000000
vn -0.00000000 -0.00000000 0.00000000
vn 0.00000000 0.00000000 -0.00000000
vn -0.00000000 -0.00000000 0.00000000
vn 0.00000000 0.00000000 -0.00000000
vn -0.00000000 -0.00000000 -0.00000000
vn -0.00000000 -0.00000000 0.00000000
vn -0.00000000 -0.00000000 0.00000000
vn 0.00000000 0.00000000 -0.00000000
vn 0.00000000 0.00000000 -0.00000000
vn 0.00000000 0.00000000 -0.00000000
vn -0.00000000 -0.00000000 0.00000000
vn -0.00000000 -0.00000000 0.00000000
vn -0.00000000 -0.00000000 0.00000000
vn -0.00000000 -0.00000000 0.00000000
vn 0.00000000 0.00000000 -0.00000000
vn 0.00000000 0.00000000 -0.00000000
vn -0.00000000 -0.00000000 -0.00000000
vn 0.00000000 0.00000000 0.00000000
vn -0.00000000 -0.00000000 -0.00000000
vn -0.00000000 -0.00000000 -0.00000000
vn -0.00000000 0.00000000 0.00000000
vn 0.00000000 0.00000000 0.00000000
vn 0.00000000 0.00000000 -0.00000000
vn -0.00000000 -0.00000000 -0.00000000
vn -0.00000000 -0.00000000 0.00000000
vn -0.00000000 0.00000000 0.00000000
vn -0.00000000 -0.00000000 0.00000000
vn 0.00000000 0.00000000 0.00000000
vn 0.00000000 0.00000000 0.00000000
vn -0.00000000 -0.00000000 -0.00000000
vn 0.00000000 0.00000000 0.00000000
vn -0.00000000 0.00000000 -0.00000000
vn -0.00000000 -0.00000000 0.00000000
vn 0.00000000 0.00000000 -0.00000000
vn 0.00000000 0.00000000 0.00000000
vn -0.00000000 -0.00000000 -0.00000000
vn 0.00000000 0.00000000 -0.00000000
vn 0.00000000 -0.00000000 -0.00000000
vn -0.00000000 -0.00000000 -0.00000000
vn -0.00000000 0.00000000 -0.00000000
vn 0.00000000 0.00000000 -0.00000000
vn 0.00000000 -0.00000000 0.00000000
vn -0.00000000 -0.00000000 -0.00000000
vn 0.00000000 0.00000000 0.00000000
vn -0.00000000 0.00000000 0.00000000
vn 0.00000000 -0.00000000 -0.00000000
vn 0.00000000 -0.00000000 -0.00000000
vn 0.00000000 -0.00000000 0.00000000
vn -0.00000000 0.00000000 -0.00000000
vn 0.00000000 -0.00000000 0.00000000
vn 0.00000000 0.00000000 -0.00000000
vn -0.00000000 0.00000000 -0.00000000
vn 0.00000000 0.00000000 0.00000000
vn -0.00000000 -0.00000000 -0.00000000
vn -0.00000000 -0.00000000 -0.00000000
vn -0.00000000 0.00000000 -0.00000000
vn 0.00000000 -0.00000000 -0.00000000
vn -0.00000000 0.00000000 0.00000000
vn 0.00000000 -0.00000000 0.00000000
vn 0.00000000 -0.00000000 0.00000000
vn 0.00000000 -0.00000000 0.00000000
vn 0.00000000 -0.00000000 -0.00000000
vn 0.00000000 0.00000000 -0.00000000
vn -0.00000000 -0.00000000 0.00000000
vn 0.00000000 0.00000000 0.00000000
vn 0.00000000 -0.00000000 -0.00000000
vn 0.00000000 0.00000000 0.00000000
vn 0.00000000 0.00000000 -0.00000000
vn 0.00000000 -0.00000000 -0.00000000
vn -0.00000000 0.00000000 0.00000000
vn -0.00000000 0.00000000 0.00000000
vn 0.00000000 0.00000000 -0.00000000
vn 0.00000000 -0.00000000 -0.00000000
vn -0.00000000 -0.00000000 0.00000000
vn -0.00000000 0.00000000 0.00000000
vn 0.00000000 0.00000000 -0.00000000
vn 0.00000000 -0.00000000 -0.00000000
vn 0.00000000 -0.00000000 -0.00000000
vn -0.00000000 0.00000000 -0.00000000
vn 0.00000000 -0.00000000 -0.00000000
vn 0.00000000 0.00000000 0.00000000
vn -0.00000000 0.00000000 0.00000000
vn 0.00000000 -0.00000000 -0.00000000
vn 0.00000000 -0.00000000 -0.00000000
vn -0.00000000 0.00000000 0.00000000
vn 0.00000000 -0.00000000 -0.00000000
vn -0.00000000 -0.00000000 -0.00000000
vn 0.00000000 0.00000000 0.00000000
vn -0.00000000 -0.00000000 -0.00000000
vn -0.00000000 -0.00000000 -0.00000000
vn 0.00000000 0.00000000 0.00000000
vn 0.00000000 -0.00000000 0.00000000
vn 0.00000000 0.00000000 0.00000000
vn -0.00000000 0.00000000 -0.00000000
vn 0.00000000 -0.00000000 0.00000000
vn -0.00000000 0.00000000 -0.00000000
vn 0.00000000 -0.00000000 0.00000000
vn -0.00000000 0.00000000 0.00000000
vn 0.00000000 -0.00000000 -0.00000000
vn 0.00000000 -0.00000000 -0.00000000
vn -0.00000000 0.00000000 0.00000000
vn 0.00000000 -0.00000000 0.00000000
vn -0.00000000 0.00000000 0.00000000
vn -0.00000000 0.00000000 0.00000000
vn 0.00000000 -0.00000000 -0.00000000
vn 0.00000000 -0.00000000 -0.00000000
vn -0.00000000 0.00000000 -0.00000000
vn 0.00000000 -0.00000000 -0.00000000
vn -0.00000000 0.00000000 0.00000000
vn -0.00000000 -0.00000000 -0.00000000
vn 0.00000000 0.00000000 0.00000000
vn 0.00000000 0.00000000 0.00000000
vn -0.00000000 -0.00000000 -0.00000000
vn -0.00000000 0.00000000 -0.00000000
vn 0.00000000 -0.00000000 0.00000000
vn -0.83081711 0.32263568 -0.45348555
vn 0.00000000 -0.00000000 0.00000000
vn -0.82873362 0.32734705 -0.45392124
vn 0.00000000 -0.00000000 0.00000000
vn 0.00000000 -0.00000000 0.00000000
vn 0.83034135 -0.32745255 0.45089697
vn 0.82928925 -0.31843723 0.45921354
vn -0.00000000 0.00000000 -0.00000000
vn -0.00000000 0.00000000 -0.00000000
vn 0.00000000 -0.00000000 0.00000000
vn 0.00000000 -0.00000000 0.00000000
vn -0.00000000 0.00000000 -0.00000000
vn -0.00000000 0.00000000 -0.00000000
vn -0.00000000 0.00000000 -0.00000000
vn 0.00000000 -0.00000000 0.00000000
vn -0.00000000 0.00000000 -0.00000000
vn -0.00000000 0.00000000 -0.00000000
vn -0.83322488 0.32988469 -0.44374812
vn 0.83353076 -0.33062583 0.44262064
vn 0.00000000 -0.00000000 0.00000000
vn -0.00000000 0.00000000 -0.00000000
vn -0.00000000 0.00000000 -0.00000000
vn 0.00000000 -0.00000000 0.00000000
vn -0.00000000 0.00000000 -0.00000000
vn 0.00000000 -0.00000000 0.00000000
vn -0.00000000 0.00000000 -0.00000000
vn 0.00000000 -0.00000000 0.00000000
vn 0.00000000 -0.00000000 0.00000000
vn -0.00000000 0.00000000 0.00000000
vn 0.00000000 -0.00000000 -0.00000000
vn -0.00000000 0.00000000 0.00000000
vn 0.00000000 -0.00000000 -0.00000000
vn -0.00000000 0.00000000 0.00000000
vn 0.00000000 -0.00000000 -0.00000000
vn -0.00000000 -0.00000000 -0.00000000
vn -0.00000000 0.00000000 0.00000000
vn 0.00000000 0.00000000 0.00000000
vn -0.00000000 -0.00000000 -0.00000000
vn 0.00000000 0.00000000 0.00000000
vn 0.00000000 -0.00000000 -0.00000000
vn -0.00000000 -0.00000000 -0.00000000
vn -0.00000000 0.00000000 0.00000000
vn 0.00000000 -0.00000000 -0.00000000
vn 0.00000000 0.00000000 0.00000000
vn -0.00000000 -0.00000000 -0.00000000
vn 0.00000000 0.00000000 0.00000000
vn -0.00000000 -0.00000000 -0.00000000
vn 0.00000000 -0.00000000 0.00000000
vn 0.00000000 -0.00000000 -0.00000000
vn 0.00000000 0.00000000 0.00000000
vn -0.00000000 0.00000000 0.00000000
vn -0.00000000 -0.00000000 -0.00000000
vn 0.00000000 0.00000000 0.00000000
vn -0.00000000 -0.00000000 -0.00000000
vn -0.00000000 -0.00000000 0.00000000
vn -0.00000000 -0.00000000 -0.00000000
vn 0.00000000 0.00000000 -0.00000000
vn -0.00000000 0.00000000 0.00000000
vn -0.00000000 0.00000000 0.00000000
vn 0.00000000 -0.00000000 -0.00000000
vn -0.00000000 0.00000000 -0.00000000
vn -0.00000000 -0.00000000 -0.00000000
vn 0.00000000 0.00000000 0.00000000
vn 0.00000000 -0.00000000 0.00000000
vn 0.00000000 -0.00000000 -0.00000000
vn 0.00000000 -0.00000000 0.00000000
vn 0.00000000 -0.00000000 -0.00000000
vn 0.00000000 -0.00000000 0.00000000
vn 0.00000000 -0.00000000 0.00000000
vn -0.00000000 0.00000000 -0.00000000
vn 0.00000000 0.00000000 0.00000000
vn 0.00000000 -0.00000000 0.00000000
vn -0.00000000 0.00000000 0.00000000
vn 0.00000000 -0.00000000 -0.00000000
vn 0.00000000 0.00000000 0.00000000
vn -0.00000000 0.00000000 -0.00000000
vn 0.00000000 -0.00000000 -0.00000000
vn -0.00000000 0.00000000 -0.00000000
vn 0.00000000 -0.00000000 0.00000000
vn -0.00000000 -0.00000000 0.00000000
vn -0.00000000 0.00000000 -0.00000000
vn 0.00000000 -0.00000000 0.00000000
vn 0.00000000 0.00000000 0.00000000
vn 0.00000000 -0.00000000 0.00000000
vn -0.00000000 0.00000000 -0.00000000
vn 0.00000000 -0.00000000 0.00000000
vn -0.00000000 0.00000000 0.00000000
vn -0.00000000 0.00000000 0.00000000
vn -0.00000000 0.00000000 -0.00000000
vn 0.00000000 0.00000000 0.00000000
vn 0.00000000 -0.00000000 -0.00000000
vn 0.00000000 -0.00000000 0.00000000
vn -0.00000000 0.00000000 -0.00000000
vn 0.00000000 -0.00000000 0.00000000
vn 0.00000000 -0.00000000 0.00000000
vn 0.00000000 0.00000000 -0.00000000
vn -0.00000000 0.00000000 0.00000000
vn -0.00000000 0.00000000 0.00000000
vn -0.00000000 0.00000000 -0.00000000
vn -0.00000000 0.00000000 0.00000000
vn 0.00000000 0.00000000 0.00000000
vn -0.00000000 0.00000000 -0.00000000
vn -0.00000000 0.00000000 -0.00000000
vn 0.00000000 0.00000000 0.00000000
vn 0.00000000 -0.00000000 -0.00000000
vn -0.00000000 0.00000000 0.00000000
vn 0.00000000 -0.00000000 -0.00000000
vn -0.00000000 0.00000000 0.00000000
vn 0.00000000 0.00000000 0.00000000
vn -0.00000000 0.00000000 0.00000000
vn 0.00000000 0.00000000 0.00000000
vn -0.00000000 -0.00000000 -0.00000000
vn -0.00000000 0.00000000 0.00000000
vn -0.00000000 0.00000000 -0.00000000
vn -0.00000000 0.00000000 0.00000000
vn 0.00000000 -0.00000000 -0.00000000
vn 0.00000000 -0.00000000 -0.00000000
vn 0.00000000 -0.00000000 0.00000000
vn 0.00000000 -0.00000000 -0.00000000
vn 0.00000000 -0.00000000 0.00000000
vn -0.00000000 0.00000000 -0.00000000
vn 0.00000000 -0.00000000 0.00000000
vn -0.00000000 -0.00000000 -0.00000000
vn 0.00000000 -0.00000000 -0.00000000
vn 0.00000000 -0.00000000 -0.00000000
vn 0.00000000 0.00000000 0.00000000
vn -0.00000000 0.00000000 0.00000000
vn -0.00000000 0.00000000 0.00000000
vn 0.00000000 -0.00000000 -0.00000000
vn 0.00000000 0.00000000 0.00000000
vn 0.00000000 0.00000000 0.00000000
vn -0.00000000 0.00000000 -0.00000000
vn -0.00000000 -0.00000000 -0.00000000
vn 0.00000000 0.00000000 0.00000000
vn 0.00000000 -0.00000000 -0.00000000
vn -0.00000000 -0.00000000 -0.00000000
vn 0.00000000 -0.00000000 0.00000000
vn -0.00000000 0.00000000 -0.00000000
vn 0.00000000 -0.00000000 0.00000000
vn 0.00000000 -0.00000000 0.00000000
vn -0.00000000 0.00000000 -0.00000000
vn 0.00000000 -0.00000000 -0.00000000
vn -0.00000000 0.00000000 -0.00000000
vn 0.00000000 -0.00000000 -0.00000000
vn -0.00000000 0.00000000 0.00000000
vn -0.00000000 -0.00000000 -0.00000000
vn 0.00000000 -0.00000000 -0.00000000
vn -0.00000000 0.00000000 -0.00000000
vn 0.00000000 0.00000000 0.00000000
vn 0.00000000 -0.00000000 0.00000000
vn -0.00000000 0.00000000 0.00000000
vn 0.00000000 0.00000000 0.00000000
vn -0.00000000 -0.00000000 0.00000000
vn -0.00000000 -0.00000000 -0.00000000
vn 0.00000000 0.00000000 0.00000000
vn 0.00000000 0.00000000 0.00000000
vn -0.00000000 0.00000000 0.00000000
vn 0.00000000 -0.00000000 -0.00000000
vn 0.00000000 0.00000000 0.00000000
vn -0.00000000 -0.00000000 -0.00000000
vn -0.00000000 0.00000000 0.00000000
vn -0.00000000 -0.00000000 -0.00000000
vn 0.00000000 0.00000000 0.00000000
vn -0.00000000 0.00000000 -0.00000000
vn 0.00000000 0.00000000 0.00000000
vn 0.00000000 0.00000000 -0.00000000
vn 0.00000000 -0.00000000 -0.00000000
vn -0.00000000 0.00000000 0.00000000
vn 0.00000000 -0.00000000 -0.00000000
vn -0.00000000 -0.00000000 -0.00000000
vn -0.00000000 -0.00000000 0.00000000
vn 0.00000000 -0.00000000 0.00000000
vn 0.00000000 0.00000000 0.00000000
vn -0.00000000 0.00000000 -0.00000000
vn 0.00000000 0.00000000 -0.00000000
vn -0.00000000 0.00000000 0.00000000
vn 0.00000000 -0.00000000 0.00000000
vn 0.00000000 -0.00000000 -0.00000000
vn -0.00000000 -0.00000000 0.00000000
vn 0.00000000 0.00000000 -0.00000000
vn -0.00000000 -0.00000000 -0.00000000
vn 0.00000000 -0.00000000 0.00000000
vn -0.00000000 0.00000000 -0.00000000
vn 0.00000000 0.00000000 0.00000000
vn 0.00000000 -0.00000000 -0.00000000
vn 0.00000000 0.00000000 -0.00000000
vn 0.00000000 0.00000000 -0.00000000
vn 0.00000000 -0.00000000 0.00000000
vn -0.00000000 0.00000000 -0.00000000
vn 0.00000000 0.00000000 -0.00000000
vn -0.00000000 0.00000000 -0.00000000
vn 0.00000000 -0.00000000 0.00000000
vn 0.00000000 0.00000000 0.00000000
vn -0.00000000 0.00000000 0.00000000
vn -0.00000000 0.00000000 -0.00000000
vn 0.00000000 -0.00000000 0.00000000
vn -0.00000000 0.00000000 -0.00000000
vn 0.00000000 0.00000000 0.00000000
vn -0.00000000 0.00000000 -0.00000000
vn -0.00000000 -0.00000000 0.00000000
vn 0.00000000 -0.00000000 0.00000000
vn 0.00000000 0.00000000 -0.00000000
vn 0.00000000 -0.00000000 -0.00000000
vn -0.00000000 0.00000000 -0.00000000
vn 0.00000000 -0.00000000 0.00000000
vn -0.00000000 -0.00000000 -0.00000000
vn 0.00000000 0.00000000 0.00000000
vn 0.00000000 -0.00000000 0.00000000
vn -0.00000000 0.00000000 -0.00000000
vn 0.00000000 0.00000000 0.00000000
vn -0.00000000 0.00000000 0.00000000
vn 0.00000000 -0.00000000 0.00000000
vn -0.00000000 0.00000000 -0.00000000
vn 0.00000000 0.00000000 -0.00000000
vn -0.00000000 -0.00000000 0.00000000
vn -0.00000000 -0.00000000 -0.00000000
vn 0.00000000 0.00000000 -0.00000000
vn -0.00000000 -0.00000000 -0.00000000
vn -0.00000000 0.00000000 0.00000000
vn -0.00000000 -0.00000000 -0.00000000
vn -0.00000000 -0.00000000 -0.00000000
vn 0.00000000 0.00000000 0.00000000
vn 0.00000000 0.00000000 0.00000000
vn 0.00000000 0.00000000 0.00000000
vn -0.00000000 -0.00000000 -0.00000000
vn -0.00000000 0.00000000 -0.00000000
vn 0.00000000 -0.00000000 -0.00000000
vn 0.00000000 0.00000000 0.00000000
vn 0.00000000 -0.00000000 -0.00000000
vn 0.00000000 -0.00000000 0.00000000
vn -0.00000000 0.00000000 -0.00000000
vn 0.00000000 0.00000000 -0.00000000
vn -0.00000000 -0.00000000 -0.00000000
vn 0.00000000 0.00000000 0.00000000
vn -0.00000000 -0.00000000 -0.00000000
vn -0.00000000 -0.00000000 0.00000000
vn 0.00000000 0.00000000 0.00000000
vn 0.00000000 0.00000000 0.00000000
vn -0.00000000 0.00000000 0.00000000
vn -0.00000000 -0.00000000 -0.00000000
vn 0.00000000 -0.00000000 -0.00000000
vn -0.00000000 0.00000000 0.00000000
vn 0.00000000 -0.00000000 -0.00000000
vn 0.00000000 -0.00000000 -0.00000000
vn -0.00000000 -0.00000000 -0.00000000
vn -0.00000000 0.00000000 -0.00000000
vn 0.00000000 -0.00000000 0.00000000
vn 0.00000000 -0.00000000 -0.00000000
vn -0.00000000 0.00000000 0.00000000
vn -0.00000000 0.00000000 0.00000000
vn -0.00000000 0.00000000 0.00000000
vn 0.00000000 0.00000000 0.00000000
vn 0.00000000 0.00000000 0.00000000
vn -0.00000000 -0.00000000 -0.00000000
vn -0.00000000 0.00000000 -0.00000000
vn -0.00000000 -0.00000000 -0.00000000
vn 0.00000000 0.00000000 -0.00000000
vn 0.00000000 0.00000000 0.00000000
f 1//1 2//2 3//3
f 4//4 5//5 6//6
f 7//7 6//6 5//5
f 8//8 6//6 7//7
f 9//9 6//6 8//8
f 10//10 9//9 8//8
f 11//11 9//9 10//10
f 12//12 11//11 10//10
f 13//13 11//11 12//12
f 14//14 11//11 13//13
f 15//15 14//14 13//13
f 1//1 14//14 15//15
f 16//16 1//1 15//15
f 17//17 1//1 16//16
f 2//2 1//1 17//17
f 18//18 19//19 20//20
f 21//21 20//20 19//19
f 22//22 20//20 21//21
f 23//23 22//22 21//21
f 24//24 22//22 23//23
f 25//25 22//22 24//24
f 26//26 25//25 24//24
f 27//27 28//28 29//29
f 30//30 29//29 28//28
f 31//31 29//29 30//30
f 32//32 31//31 30//30
f 4//4 31//31 32//32
f 33//33 4//4 32//32
f 5//5 4//4 33//33
f 34//34 5//5 33//33
f 35//35 34//34 33//33
f 36//36 34//34 35//35
f 37//37 36//36 35//35
f 38//38 37//37 35//35
f 39//39 37//37 38//38
f 40//40 37//37 39//39
f 41//41 40//40 39//39
f 42//42 40//40 41//41
f 43//43 42//42 41//41
f 44//44 42//42 43//43
f 45//45 44//44 43//43
f 46//46 44//44 45//45
f 47//47 46//46 45//45
f 48//48 46//46 47//47
f 49//49 46//46 48//48
f 50//50 49//49 48//48
f 51//51 49//49 50//50
f 52//52 51//51 50//50
f 53//53 51//51 52//52
f 54//54 53//53 52//52
f 55//55 53//53 54//54
f 56//56 55//55 54//54
f 57//57 55//55 56//56
f 58//58 55//55 57//57
f 59//59 58//58 57//57
f 60//60 58//58 59//59
f 61//61 60//60 59//59
f 62//62 60//60 61//61
f 63//63 62//62 61//61
f 64//64 62//62 63//63
f 26//26 64//64 63//63
f 65//65 26//26 63//63
f 25//25 26//26 65//65
f 66//66 25//25 65//65
f 67//67 66//66 65//65
f 68//68 66//66 67//67
f 69//69 66//66 68//68
f 68//68 66//66 69//69
f 67//67 66//66 68//68
f 65//65 66//66 67//67
f 65//65 25//25 66//66
f 65//65 26//26 25//25
f 63//63 26//26 65//65
f 63//63 64//64 26//26
f 63//63 62//62 64//64
f 61//61 62//62 63//63
f 61//61 60//60 62//62
f 59//59 60//60 61//61
f 59//59 58//58 60//60
f 57//57 58//58 59//59
f 57//57 55//55 58//58
f 56//56 55//55 57//57
f 54//54 55//55 56//56
f 54//54 53//53 55//55
f 52//52 53//53 54//54
f 52//52 51//51 53//53
f 50//50 51//51 52//52
f 50//50 49//49 51//51
f 48//48 49//49 50//50
f 48//48 46//46 49//49
f 47//47 46//46 48//48
f 45//45 46//46 47//47
f 45//45 44//44 46//46
f 43//43 44//44 45//45
f 43//43 42//42 44//44
f 41//41 42//42 43//43
f 41//41 40//40 42//42
f 39//39 40//40 41//41
f 39//39 37//37 40//40
f 38//38 37//37 39//39
f 35//35 37//37 38//38
f 35//35 36//36 37//37
f 35//35 34//34 36//36
f 33//33 34//34 35//35
f 33//33 5//5 34//34
f 33//33 4//4 5//5
f 32//32 4//4 33//33
f 32//32 31//31 4//4
f 30//30 31//31 32//32
f 30//30 29//29 31//31
f 28//28 29//29 30//30
f 29//29 28//28 27//27
f 24//24 25//25 26//26
f 24//24 22//22 25//25
f 23//23 22//22 24//24
f 21//21 22//22 23//23
f 21//21 20//20 22//22
f 19//19 20//20 21//21
f 20//20 19//19 18//18
f 17//17 1//1 2//2
f 16//16 1//1 17//17
f 15//15 1//1 16//16
f 15//15 14//14 1//1
f 13//13 14//14 15//15
f 13//13 11//11 14//14
f 12//12 11//11 13//13
f 10//10 11//11 12//12
f 10//10 9//9 11//11
f 8//8 9//9 10//10
f 8//8 6//6 9//9
f 7//7 6//6 8//8
f 5//5 6//6 7//7
f 6//6 5//5 4//4
f 3//3 2//2 1//1
f 70//70 71//71 72//72
f 73//73 72//72 71//71
f 71//71 72//72 73//73
f 72//72 71//71 70//70
f 71//71 74//74 73//73
f 75//75 73//73 74//74
f 74//74 73//73 75//75
f 73//73 74//74 71//71
f 76//76 70//70 77//77
f 72//72 77//77 70//70
f 70//70 77//77 72//72
f 77//77 70//70 76//76
f 74//74 78//78 75//75
f 79//79 75//75 78//78
f 78//78 75//75 79//79
f 75//75 78//78 74//74
f 80//80 81//81 82//82
f 83//83 84//84 80//80
f 81//81 80//80 84//84
f 84//84 80//80 81//81
f 80//80 84//84 83//83
f 82//82 81//81 80//80
f 85//85 76//76 86//86
f 77//77 86//86 76//76
f 76//76 86//86 77//77
f 86//86 76//76 85//85
f 87//87 88//88 83//83
f 84//84 83//83 88//88
f 88//88 83//83 84//84
f 83//83 88//88 87//87
f 79//79 78//78 89//89
f 90//90 89//89 78//78
f 78//78 89//89 90//90
f 89//89 78//78 79//79
f 91//91 80//80 92//92
f 82//82 92//92 80//80
f 80//80 92//92 82//82
f 92//92 80//80 91//91
f 93//93 85//85 94//94
f 86//86 94//94 85//85
f 85//85 94//94 86//86
f 94//94 85//85 93//93
f 95//95 96//96 87//87
f 88//88 87//87 96//96
f 96//96 87//87 88//88
f 87//87 96//96 95//95
f 90//90 97//97 89//89
f 98//98 89//89 97//97
f 99//99 98//98 97//97
f 97//97 98//98 99//99
f 97//97 89//89 98//98
f 89//89 97//97 90//90
f 100//100 91//91 101//101
f 102//102 101//101 91//91
f 92//92 102//102 91//91
f 91//91 102//102 92//92
f 91//91 101//101 102//102
f 101//101 91//91 100//100
f 93//93 94//94 103//103
f 104//104 103//103 94//94
f 94//94 103//103 104//104
f 103//103 94//94 93//93
f 105//105 106//106 95//95
f 96//96 95//95 106//106
f 106//106 95//95 96//96
f 95//95 106//106 105//105
f 107//107 108//108 109//109
f 110//110 109//109 108//108
f 108//108 109//109 110//110
f 109//109 108//108 107//107
f 111//111 112//112 107//107
f 108//108 107//107 112//112
f 112//112 107//107 108//108
f 107//107 112//112 111//111
f 97//97 108//108 99//99
f 113//113 99//99 108//108
f 108//108 99//99 113//113
f 99//99 108//108 97//97
f 108//108 100//100 113//113
f 101//101 113//113 100//100
f 100//100 113//113 101//101
f 113//113 100//100 108//108
f 103//103 104//104 114//114
f 115//115 114//114 104//104
f 116//116 114//114 115//115
f 115//115 114//114 116//116
f 104//104 114//114 115//115
f 114//114 104//104 103//103
f 117//117 118//118 105//105
f 106//106 105//105 118//118
f 118//118 105//105 106//106
f 105//105 118//118 117//117
f 107//107 108//108 119//119
f 113//113 119//119 108//108
f 108//108 119//119 113//113
f 119//119 108//108 107//107
f 114//114 116//116 107//107
f 119//119 107//107 116//116
f 116//116 107//107 119//119
f 107//107 116//116 114//114
f 120//120 121//121 117//117
f 122//122 117//117 121//121
f 118//118 117//117 122//122
f 122//122 117//117 118//118
f 121//121 117//117 122//122
f 117//117 121//121 120//120
f 107//107 119//119 123//123
f 124//124 123//123 119//119
f 119//119 123//123 124//124
f 123//123 119//119 107//107
f 125//125 121//121 126//126
f 120//120 126//126 121//121
f 121//121 126//126 120//120
f 126//126 121//121 125//125
f 123//123 124//124 126//126
f 127//127 126//126 124//124
f 125//125 126//126 127//127
f 127//127 126//126 125//125
f 124//124 126//126 127//127
f 126//126 124//124 123//123
f 128//128 112//112 97//97
f 108//108 97//97 112//112
f 114//114 129//129 97//97
f 130//130 97//97 129//129
f 129//129 97//97 130//130
f 97//97 129//129 114//114
f 131//131 114//114 128//128
f 97//97 128//128 114//114
f 114//114 128//128 97//97
f 128//128 114//114 131//131
f 131//131 114//114 111//111
f 107//107 111//111 114//114
f 132//132 133//133 134//134
f 135//135 134//134 133//133
f 133//133 134//134 135//135
f 134//134 133//133 132//132
f 136//136 132//132 137//137
f 134//134 137//137 132//132
f 132//132 137//137 134//134
f 137//137 132//132 136//136
f 138//138 136//136 139//139
f 137//137 139//139 136//136
f 136//136 139//139 137//137
f 139//139 136//136 138//138
f 140//140 138//138 141//141
f 139//139 141//141 138//138
f 138//138 141//141 139//139
f 141//141 138//138 140//140
f 142//142 140//140 143//143
f 141//141 143//143 140//140
f 140//140 143//143 141//141
f 143//143 140//140 142//142
f 144//144 142//142 145//145
f 143//143 145//145 142//142
f 142//142 145//145 143//143
f 145//145 142//142 144//144
f 144//144 145//145 146//146
f 147//147 146//146 145//145
f 145//145 146//146 147//147
f 146//146 145//145 144//144
f 146//146 147//147 148//148
f 131//131 148//148 147//147
f 147//147 148//148 131//131
f 148//148 147//147 146//146
f 148//148 131//131 149//149
f 111//111 149//149 131//131
f 131//131 149//149 111//111
f 149//149 131//131 148//148
f 149//149 111//111 150//150
f 151//151 150//150 111//111
f 111//111 150//150 151//151
f 150//150 111//111 149//149
f 150//150 151//151 152//152
f 153//153 152//152 151//151
f 151//151 152//152 153//153
f 152//152 151//151 150//150
f 153//153 154//154 152//152
f 155//155 152//152 154//154
f 154//154 152//152 155//155
f 152//152 154//154 153//153
f 155//155 154//154 156//156
f 157//157 156//156 154//154
f 154//154 156//156 157//157
f 156//156 154//154 155//155
f 156//156 157//157 158//158
f 159//159 158//158 157//157
f 157//157 158//158 159//159
f 158//158 157//157 156//156
f 158//158 159//159 160//160
f 161//161 160//160 159//159
f 159//159 160//160 161//161
f 160//160 159//159 158//158
f 160//160 161//161 162//162
f 163//163 162//162 161//161
f 161//161 162//162 163//163
f 162//162 161//161 160//160
f 162//162 163//163 164//164
f 165//165 164//164 163//163
f 163//163 164//164 165//165
f 164//164 163//163 162//162
f 166//166 164//164 167//167
f 165//165 167//167 164//164
f 164//164 167//167 165//165
f 167//167 164//164 166//166
f 168//168 166//166 169//169
f 167//167 169//169 166//166
f 166//166 169//169 167//167
f 169//169 166//166 168//168
f 168//168 170//170 171//171
f 172//172 171//171 170//170
f 173//173 170//170 168//168
f 174//174 173//173 168//168
f 175//175 174//174 168//168
f 176//176 175//175 168//168
f 177//177 172//172 170//170
f 178//178 172//172 177//177
f 179//179 172//172 178//178
f 180//180 172//172 179//179
f 181//181 172//172 180//180
f 182//182 172//172 181//181
f 183//183 172//172 182//182
f 184//184 172//172 183//183
f 169//169 185//185 168//168
f 186//186 168//168 185//185
f 187//187 168//168 186//186
f 188//188 168//168 187//187
f 189//189 168//168 188//188
f 190//190 168//168 189//189
f 191//191 168//168 190//190
f 192//192 168//168 191//191
f 176//176 168//168 192//192
f 193//193 185//185 169//169
f 194//194 193//193 169//169
f 195//195 194//194 169//169
f 184//184 195//195 169//169
f 172//172 184//184 169//169
f 169//169 184//184 172//172
f 169//169 195//195 184//184
f 169//169 194//194 195//195
f 169//169 193//193 194//194
f 169//169 185//185 193//193
f 192//192 168//168 176//176
f 191//191 168//168 192//192
f 190//190 168//168 191//191
f 189//189 168//168 190//190
f 188//188 168//168 189//189
f 187//187 168//168 188//188
f 186//186 168//168 187//187
f 185//185 168//168 186//186
f 168//168 185//185 169//169
f 183//183 172//172 184//184
f 182//182 172//172 183//183
f 181//181 172//172 182//182
f 180//180 172//172 181//181
f 179//179 172//172 180//180
f 178//178 172//172 179//179
f 177//177 172//172 178//178
f 170//170 172//172 177//177
f 168//168 175//175 176//176
f 168//168 174//174 175//175
f 168//168 173//173 174//174
f 168//168 170//170 173//173
f 170//170 171//171 172//172
f 171//171 170//170 168//168
f 196//196 171//171 112//112
f 172//172 112//112 171//171
f 171//171 112//112 172//172
f 112//112 171//171 196//196
f 135//135 133//133 197//197
f 198//198 197//197 133//133
f 133//133 197//197 198//198
f 197//197 133//133 135//135
f 142//142 144//144 140//140
f 146//146 140//140 144//144
f 148//148 140//140 146//146
f 138//138 140//140 148//148
f 149//149 138//138 148//148
f 136//136 138//138 149//149
f 150//150 136//136 149//149
f 132//132 136//136 150//150
f 152//152 132//132 150//150
f 133//133 132//132 152//152
f 155//155 133//133 152//152
f 198//198 133//133 155//155
f 156//156 198//198 155//155
f 199//199 198//198 156//156
f 196//196 199//199 156//156
f 158//158 196//196 156//156
f 160//160 196//196 158//158
f 171//171 196//196 160//160
f 162//162 171//171 160//160
f 168//168 171//171 162//162
f 164//164 168//168 162//162
f 166//166 168//168 164//164
f 164//164 168//168 166//166
f 162//162 168//168 164//164
f 162//162 171//171 168//168
f 160//160 171//171 162//162
f 160//160 196//196 171//171
f 158//158 196//196 160//160
f 156//156 196//196 158//158
f 156//156 199//199 196//196
f 156//156 198//198 199//199
f 155//155 198//198 156//156
f 155//155 133//133 198//198
f 152//152 133//133 155//155
f 152//152 132//132 133//133
f 150//150 132//132 152//152
f 150//150 136//136 132//132
f 149//149 136//136 150//150
f 149//149 138//138 136//136
f 148//148 138//138 149//149
f 148//148 140//140 138//138
f 146//146 140//140 148//148
f 144//144 140//140 146//146
f 140//140 144//144 142//142
f 199//199 196//196 128//128
f 112//112 128//128 196//196
f 196//196 128//128 112//112
f 128//128 196//196 199//199
f 198//198 199//199 197//197
f 128//128 197//197 199//199
f 199//199 197//197 128//128
f 197//197 199//199 198//198
f 200//200 201//201 202//202
f 203//203 202//202 201//201
f 201//201 202//202 203//203
f 202//202 201//201 200//200
f 201//201 204//204 203//203
f 205//205 203//203 204//204
f 204//204 203//203 205//205
f 203//203 204//204 201//201
f 105//105 95//95 204//204
f 205//205 204//204 95//95
f 95//95 204//204 205//205
f 204//204 95//95 105//105
f 206//206 200//200 207//207
f 202//202 207//207 200//200
f 200//200 207//207 202//202
f 207//207 200//200 206//206
f 208//208 204//204 209//209
f 201//201 209//209 204//204
f 204//204 209//209 201//201
f 209//209 204//204 208//208
f 210//210 209//209 200//200
f 201//201 200//200 209//209
f 209//209 200//200 201//201
f 200//200 209//209 210//210
f 117//117 105//105 208//208
f 204//204 208//208 105//105
f 105//105 208//208 204//204
f 208//208 105//105 117//117
f 211//211 210//210 206//206
f 200//200 206//206 210//210
f 210//210 206//206 200//200
f 206//206 210//210 211//211
f 202//202 203//203 212//212
f 213//213 212//212 203//203
f 203//203 212//212 213//213
f 212//212 203//203 202//202
f 203//203 205//205 213//213
f 214//214 213//213 205//205
f 205//205 213//213 214//214
f 213//213 205//205 203//203
f 87//87 214//214 95//95
f 205//205 95//95 214//214
f 214//214 95//95 205//205
f 95//95 214//214 87//87
f 207//207 202//202 215//215
f 212//212 215//215 202//202
f 202//202 215//215 212//212
f 215//215 202//202 207//207
f 159//159 206//206 161//161
f 207//207 161//161 206//206
f 206//206 161//161 207//207
f 161//161 206//206 159//159
f 216//216 208//208 217//217
f 209//209 217//217 208//208
f 208//208 217//217 209//209
f 217//217 208//208 216//216
f 217//217 209//209 218//218
f 210//210 218//218 209//209
f 209//209 218//218 210//210
f 218//218 209//209 217//217
f 120//120 117//117 216//216
f 208//208 216//216 117//117
f 117//117 216//216 208//208
f 216//216 117//117 120//120
f 218//218 210//210 219//219
f 211//211 219//219 210//210
f 210//210 219//219 211//211
f 219//219 210//210 218//218
f 157//157 211//211 159//159
f 206//206 159//159 211//211
f 211//211 159//159 206//206
f 159//159 211//211 157//157
f 212//212 213//213 220//220
f 221//221 220//220 213//213
f 213//213 220//220 221//221
f 220//220 213//213 212//212
f 213//213 214//214 221//221
f 222//222 221//221 214//214
f 214//214 221//221 222//222
f 221//221 214//214 213//213
f 222//222 214//214 83//83
f 87//87 83//83 214//214
f 214//214 83//83 87//87
f 83//83 214//214 222//222
f 215//215 212//212 223//223
f 220//220 223//223 212//212
f 212//212 223//223 220//220
f 223//223 212//212 215//215
f 161//161 207//207 163//163
f 215//215 163//163 207//207
f 207//207 163//163 215//215
f 163//163 207//207 161//161
f 224//224 216//216 225//225
f 217//217 225//225 216//216
f 216//216 225//225 217//217
f 225//225 216//216 224//224
f 225//225 217//217 226//226
f 218//218 226//226 217//217
f 217//217 226//226 218//218
f 226//226 217//217 225//225
f 126//126 120//120 224//224
f 216//216 224//224 120//120
f 120//120 224//224 216//216
f 224//224 120//120 126//126
f 226//226 218//218 227//227
f 219//219 227//227 218//218
f 218//218 227//227 219//219
f 227//227 218//218 226//226
f 219//219 211//211 154//154
f 157//157 154//154 211//211
f 211//211 154//154 157//157
f 154//154 211//211 219//219
f 220//220 221//221 228//228
f 229//229 228//228 221//221
f 221//221 228//228 229//229
f 228//228 221//221 220//220
f 229//229 221//221 230//230
f 222//222 230//230 221//221
f 221//221 230//230 222//222
f 230//230 221//221 229//229
f 230//230 222//222 80//80
f 83//83 80//80 222//222
f 222//222 80//80 83//83
f 80//80 222//222 230//230
f 223//223 220//220 231//231
f 228//228 231//231 220//220
f 220//220 231//231 228//228
f 231//231 220//220 223//223
f 163//163 215//215 165//165
f 223//223 165//165 215//215
f 215//215 165//165 223//223
f 165//165 215//215 163//163
f 232//232 224//224 233//233
f 225//225 233//233 224//224
f 224//224 233//233 225//225
f 233//233 224//224 232//232
f 233//233 225//225 234//234
f 226//226 234//234 225//225
f 225//225 234//234 226//226
f 234//234 225//225 233//233
f 123//123 126//126 232//232
f 224//224 232//232 126//126
f 126//126 232//232 224//224
f 232//232 126//126 123//123
f 234//234 226//226 235//235
f 227//227 235//235 226//226
f 226//226 235//235 227//227
f 235//235 226//226 234//234
f 227//227 219//219 153//153
f 154//154 153//153 219//219
f 219//219 153//153 154//154
f 153//153 219//219 227//227
f 236//236 228//228 237//237
f 229//229 237//237 228//228
f 228//228 237//237 229//229
f 237//237 228//228 236//236
f 237//237 229//229 238//238
f 230//230 238//238 229//229
f 229//229 238//238 230//230
f 238//238 229//229 237//237
f 238//238 230//230 91//91
f 80//80 91//91 230//230
f 230//230 91//91 80//80
f 91//91 230//230 238//238
f 239//239 231//231 236//236
f 228//228 236//236 231//231
f 231//231 236//236 228//228
f 236//236 231//231 239//239
f 165//165 223//223 167//167
f 231//231 167//167 223//223
f 223//223 167//167 231//231
f 167//167 223//223 165//165
f 240//240 241//241 242//242
f 243//243 242//242 241//241
f 241//241 242//242 243//243
f 242//242 241//241 240//240
f 244//244 240//240 245//245
f 242//242 245//245 240//240
f 240//240 245//245 242//242
f 245//245 240//240 244//244
f 246//246 244//244 247//247
f 245//245 247//247 244//244
f 244//244 247//247 245//245
f 247//247 244//244 246//246
f 248//248 246//246 249//249
f 247//247 249//249 246//246
f 246//246 249//249 247//247
f 249//249 246//246 248//248
f 250//250 248//248 251//251
f 249//249 251//251 248//248
f 248//248 251//251 249//249
f 251//251 248//248 250//250
f 252//252 250//250 253//253
f 251//251 253//253 250//250
f 250//250 253//253 251//251
f 253//253 250//250 252//252
f 254//254 232//232 255//255
f 233//233 255//255 232//232
f 232//232 255//255 233//233
f 255//255 232//232 254//254
f 256//256 255//255 234//234
f 233//233 234//234 255//255
f 255//255 234//234 233//233
f 234//234 255//255 256//256
f 107//107 123//123 254//254
f 232//232 254//254 123//123
f 123//123 254//254 232//232
f 254//254 123//123 107//107
f 257//257 256//256 235//235
f 234//234 235//235 256//256
f 256//256 235//235 234//234
f 235//235 256//256 257//257
f 151//151 235//235 153//153
f 227//227 153//153 235//235
f 235//235 153//153 227//227
f 153//153 235//235 151//151
f 242//242 243//243 71//71
f 74//74 71//71 243//243
f 243//243 71//71 74//74
f 71//71 243//243 242//242
f 245//245 242//242 70//70
f 71//71 70//70 242//242
f 242//242 70//70 71//71
f 70//70 242//242 245//245
f 247//247 245//245 76//76
f 70//70 76//76 245//245
f 245//245 76//76 70//70
f 76//76 245//245 247//247
f 249//249 247//247 85//85
f 76//76 85//85 247//247
f 247//247 85//85 76//76
f 85//85 247//247 249//249
f 251//251 249//249 93//93
f 85//85 93//93 249//249
f 249//249 93//93 85//85
f 93//93 249//249 251//251
f 253//253 251//251 103//103
f 93//93 103//103 251//251
f 251//251 103//103 93//93
f 103//103 251//251 253//253
f 243//243 258//258 74//74
f 78//78 74//74 258//258
f 258//258 74//74 78//78
f 74//74 258//258 243//243
f 259//259 236//236 260//260
f 237//237 260//260 236//236
f 236//236 260//260 237//237
f 260//260 236//236 259//259
f 260//260 237//237 261//261
f 238//238 261//261 237//237
f 237//237 261//261 238//238
f 261//261 237//237 260//260
f 261//261 238//238 100//100
f 91//91 100//100 238//238
f 238//238 100//100 91//91
f 100//100 238//238 261//261
f 262//262 239//239 259//259
f 236//236 259//259 239//239
f 239//239 259//259 236//236
f 259//259 239//239 262//262
f 169//169 167//167 239//239
f 231//231 239//239 167//167
f 167//167 239//239 231//231
f 239//239 167//167 169//169
f 241//241 263//263 243//243
f 258//258 243//243 263//263
f 263//263 243//243 258//258
f 243//243 263//263 241//241
f 264//264 265//265 240//240
f 241//241 240//240 265//265
f 265//265 240//240 241//241
f 240//240 265//265 264//264
f 266//266 264//264 244//244
f 240//240 244//244 264//264
f 264//264 244//244 240//240
f 244//244 264//264 266//266
f 267//267 266//266 246//246
f 244//244 246//246 266//266
f 266//266 246//246 244//244
f 246//246 266//266 267//267
f 268//268 267//267 248//248
f 246//246 248//248 267//267
f 267//267 248//248 246//246
f 248//248 267//267 268//268
f 269//269 268//268 250//250
f 248//248 250//250 268//268
f 268//268 250//250 248//248
f 250//250 268//268 269//269
f 270//270 269//269 252//252
f 250//250 252//252 269//269
f 269//269 252//252 250//250
f 252//252 269//269 270//270
f 270//270 252//252 271//271
f 272//272 271//271 252//252
f 252//252 271//271 272//272
f 271//271 252//252 270//270
f 271//271 272//272 256//256
f 255//255 256//256 272//272
f 272//272 256//256 255//255
f 256//256 272//272 271//271
f 273//273 254//254 272//272
f 255//255 272//272 254//254
f 254//254 272//272 255//255
f 272//272 254//254 273//273
f 252//252 253//253 272//272
f 273//273 272//272 253//253
f 253//253 272//272 273//273
f 272//272 253//253 252//252
f 114//114 107//107 273//273
f 254//254 273//273 107//107
f 107//107 273//273 254//254
f 273//273 107//107 114//114
f 103//103 114//114 253//253
f 273//273 253//253 114//114
f 114//114 253//253 273//273
f 253//253 114//114 103//103
f 274//274 271//271 257//257
f 256//256 257//257 271//271
f 271//271 257//257 256//256
f 257//257 271//271 274//274
f 111//111 107//107 257//257
f 256//256 257//257 107//107
f 255//255 256//256 107//107
f 254//254 255//255 107//107
f 107//107 255//255 254//254
f 107//107 256//256 255//255
f 107//107 257//257 256//256
f 257//257 107//107 111//111
f 111//111 257//257 151//151
f 235//235 151//151 257//257
f 257//257 151//151 235//235
f 151//151 257//257 111//111
f 70//70 76//76 71//71
f 85//85 71//71 76//76
f 74//74 71//71 85//85
f 93//93 74//74 85//85
f 78//78 74//74 93//93
f 103//103 78//78 93//93
f 90//90 78//78 103//103
f 114//114 90//90 103//103
f 97//97 90//90 114//114
f 114//114 90//90 97//97
f 103//103 90//90 114//114
f 103//103 78//78 90//90
f 93//93 78//78 103//103
f 93//93 74//74 78//78
f 85//85 74//74 93//93
f 85//85 71//71 74//74
f 76//76 71//71 85//85
f 71//71 76//76 70//70
f 275//275 90//90 258//258
f 78//78 258//258 90//90
f 90//90 258//258 78//78
f 258//258 90//90 275//275
f 276//276 259//259 277//277
f 260//260 277//277 259//259
f 259//259 277//277 260//260
f 277//277 259//259 276//276
f 277//277 260//260 278//278
f 261//261 278//278 260//260
f 260//260 278//278 261//261
f 278//278 260//260 277//277
f 278//278 261//261 108//108
f 100//100 108//108 261//261
f 261//261 108//108 100//100
f 108//108 261//261 278//278
f 279//279 262//262 276//276
f 259//259 276//276 262//262
f 262//262 276//276 259//259
f 276//276 262//262 279//279
f 172//172 169//169 262//262
f 239//239 262//262 169//169
f 169//169 262//262 239//239
f 262//262 169//169 172//172
f 263//263 280//280 258//258
f 275//275 258//258 280//280
f 280//280 258//258 275//275
f 258//258 280//280 263//263
f 265//265 281//281 241//241
f 263//263 241//241 281//281
f 281//281 241//241 263//263
f 241//241 281//281 265//265
f 282//282 283//283 264//264
f 265//265 264//264 283//283
f 283//283 264//264 265//265
f 264//264 283//283 282//282
f 284//284 282//282 266//266
f 264//264 266//266 282//282
f 282//282 266//266 264//264
f 266//266 282//282 284//284
f 285//285 284//284 267//267
f 266//266 267//267 284//284
f 284//284 267//267 266//266
f 267//267 284//284 285//285
f 286//286 285//285 268//268
f 267//267 268//268 285//285
f 285//285 268//268 267//267
f 268//268 285//285 286//286
f 287//287 286//286 269//269
f 268//268 269//269 286//286
f 286//286 269//269 268//268
f 269//269 286//286 287//287
f 287//287 269//269 288//288
f 270//270 288//288 269//269
f 269//269 288//288 270//270
f 288//288 269//269 287//287
f 288//288 270//270 274//274
f 271//271 274//274 270//270
f 270//270 274//274 271//271
f 274//274 270//270 288//288
f 131//131 274//274 114//114
f 271//271 114//114 274//274
f 272//272 114//114 271//271
f 273//273 114//114 272//272
f 272//272 114//114 273//273
f 271//271 114//114 272//272
f 274//274 114//114 271//271
f 114//114 274//274 131//131
f 131//131 274//274 111//111
f 257//257 111//111 274//274
f 274//274 111//111 257//257
f 111//111 274//274 131//131
f 289//289 278//278 97//97
f 108//108 97//97 278//278
f 278//278 97//97 108//108
f 97//97 278//278 289//289
f 275//275 289//289 90//90
f 97//97 90//90 289//289
f 289//289 90//90 97//97
f 90//90 289//289 275//275
f 280//280 290//290 275//275
f 289//289 275//275 290//290
f 290//290 275//275 289//289
f 275//275 290//290 280//280
f 290//290 277//277 289//289
f 278//278 289//289 277//277
f 277//277 289//289 278//278
f 289//289 277//277 290//290
f 291//291 292//292 280//280
f 290//290 280//280 292//292
f 292//292 280//280 290//290
f 280//280 292//292 291//291
f 292//292 276//276 290//290
f 277//277 290//290 276//276
f 276//276 290//290 277//277
f 290//290 276//276 292//292
f 293//293 279//279 292//292
f 276//276 292//292 279//279
f 279//279 292//292 276//276
f 292//292 279//279 293//293
f 112//112 279//279 108//108
f 276//276 108//108 279//279
f 277//277 108//108 276//276
f 278//278 108//108 277//277
f 277//277 108//108 278//278
f 276//276 108//108 277//277
f 279//279 108//108 276//276
f 108//108 279//279 112//112
f 112//112 172//172 279//279
f 262//262 279//279 172//172
f 172//172 279//279 262//262
f 279//279 172//172 112//112
f 281//281 291//291 263//263
f 280//280 263//263 291//291
f 291//291 263//263 280//280
f 263//263 291//291 281//281
f 283//283 294//294 265//265
f 281//281 265//265 294//294
f 294//294 265//265 281//281
f 265//265 294//294 283//283
f 137//137 134//134 282//282
f 283//283 282//282 134//134
f 134//134 282//282 283//283
f 282//282 134//134 137//137
f 139//139 137//137 284//284
f 282//282 284//284 137//137
f 137//137 284//284 282//282
f 284//284 137//137 139//139
f 141//141 139//139 285//285
f 284//284 285//285 139//139
f 139//139 285//285 284//284
f 285//285 139//139 141//141
f 143//143 141//141 286//286
f 285//285 286//286 141//141
f 141//141 286//286 285//285
f 286//286 141//141 143//143
f 145//145 143//143 287//287
f 286//286 287//287 143//143
f 143//143 287//287 286//286
f 287//287 143//143 145//145
f 145//145 287//287 147//147
f 288//288 147//147 287//287
f 287//287 147//147 288//288
f 147//147 287//287 145//145
f 147//147 288//288 131//131
f 274//274 131//131 288//288
f 288//288 131//131 274//274
f 131//131 288//288 147//147
f 295//295 293//293 291//291
f 292//292 291//291 293//293
f 293//293 291//291 292//292
f 291//291 293//293 295//295
f 128//128 97//97 293//293
f 292//292 293//293 97//97
f 290//290 292//292 97//97
f 289//289 290//290 97//97
f 97//97 290//290 289//289
f 97//97 292//292 290//290
f 97//97 293//293 292//292
f 293//293 97//97 128//128
f 128//128 112//112 293//293
f 279//279 293//293 112//112
f 112//112 293//293 279//279
f 293//293 112//112 128//128
f 295//295 291//291 294//294
f 281//281 294//294 291//291
f 291//291 294//294 281//281
f 294//294 291//291 295//295
f 134//134 135//135 283//283
f 294//294 283//283 135//135
f 135//135 283//283 294//294
f 283//283 135//135 134//134
f 139//139 141//141 137//137
f 143//143 137//137 141//141
f 134//134 137//137 143//143
f 145//145 134//134 143//143
f 135//135 134//134 145//145
f 147//147 135//135 145//145
f 197//197 135//135 147//147
f 131//131 197//197 147//147
f 128//128 197//197 131//131
f 131//131 197//197 128//128
f 147//147 197//197 131//131
f 147//147 135//135 197//197
f 145//145 135//135 147//147
f 145//145 134//134 135//135
f 143//143 134//134 145//145
f 143//143 137//137 134//134
f 141//141 137//137 143//143
f 137//137 141//141 139//139
f 197//197 128//128 295//295
f 293//293 295//295 128//128
f 128//128 295//295 293//293
f 295//295 128//128 197//197
f 135//135 197//197 294//294
f 295//295 294//294 197//197
f 197//197 294//294 295//295
f 294//294 197//197 135//135
f 296//296 158//158 297//297
f 298//298 297//297 158//158
f 299//299 298//298 158//158
f 160//160 299//299 158//158
f 158//158 299//299 160//160
f 158//158 298//298 299//299
f 158//158 297//297 298//298
f 297//297 158//158 296//296
f 297//297 298//298 300//300
f 162//162 300//300 298//298
f 299//299 162//162 298//298
f 160//160 162//162 299//299
f 299//299 162//162 160//160
f 298//298 162//162 299//299
f 298//298 300//300 162//162
f 300//300 298//298 297//297
f 301//301 302//302 138//138
f 136//136 138//138 302//302
f 302//302 138//138 136//136
f 138//138 302//302 301//301
f 303//303 301//301 140//140
f 138//138 140//140 301//301
f 301//301 140//140 138//138
f 140//140 301//301 303//303
f 304//304 303//303 142//142
f 140//140 142//142 303//303
f 303//303 142//142 140//140
f 142//142 303//303 304//304
f 305//305 304//304 144//144
f 142//142 144//144 304//304
f 304//304 144//144 142//142
f 144//144 304//304 305//305
f 305//305 144//144 306//306
f 146//146 306//306 144//144
f 144//144 306//306 146//146
f 306//306 144//144 305//305
f 306//306 146//146 307//307
f 148//148 307//307 146//146
f 146//146 307//307 148//148
f 307//307 146//146 306//306
f 307//307 148//148 308//308
f 149//149 308//308 148//148
f 148//148 308//308 149//149
f 308//308 148//148 307//307
f 308//308 149//149 309//309
f 150//150 309//309 149//149
f 149//149 309//309 150//150
f 309//309 149//149 308//308
f 309//309 150//150 310//310
f 152//152 310//310 150//150
f 150//150 310//310 152//152
f 310//310 150//150 309//309
f 152//152 155//155 310//310
f 311//311 310//310 155//155
f 155//155 310//310 311//311
f 310//310 155//155 152//152
f 311//311 155//155 312//312
f 156//156 312//312 155//155
f 155//155 312//312 156//156
f 312//312 155//155 311//311
f 312//312 156//156 296//296
f 158//158 296//296 156//156
f 156//156 296//296 158//158
f 296//296 156//156 312//312
f 313//313 314//314 315//315
f 315//315 314//314 313//313
f 315//315 296//296 316//316
f 297//297 316//316 296//296
f 296//296 316//316 297//297
f 316//316 296//296 315//315
f 313//313 314//314 317//317
f 318//318 317//317 314//314
f 314//314 317//317 318//318
f 317//317 314//314 313//313
f 318//318 319//319 317//317
f 320//320 317//317 319//319
f 321//321 317//317 320//320
f 322//322 317//317 321//321
f 321//321 317//317 322//322
f 320//320 317//317 321//321
f 319//319 317//317 320//320
f 317//317 319//319 318//318
f 300//300 162//162 323//323
f 164//164 323//323 162//162
f 162//162 323//323 164//164
f 323//323 162//162 300//300
f 324//324 321//321 325//325
f 320//320 325//325 321//321
f 321//321 325//325 320//320
f 325//325 321//321 324//324
f 325//325 324//324 326//326
f 326//326 324//324 325//325
f 314//314 315//315 318//318
f 316//316 318//318 315//315
f 326//326 318//318 316//316
f 325//325 320//320 326//326
f 319//319 326//326 320//320
f 318//318 326//326 319//319
f 319//319 326//326 318//318
f 320//320 326//326 319//319
f 326//326 320//320 325//325
f 316//316 318//318 326//326
f 315//315 318//318 316//316
f 318//318 315//315 314//314
f 316//316 297//297 326//326
f 300//300 326//326 297//297
f 297//297 326//326 300//300
f 326//326 297//297 316//316
f 323//323 164//164 327//327
f 166//166 327//327 164//164
f 164//164 327//327 166//166
f 327//327 164//164 323//323
f 302//302 328//328 136//136
f 132//132 136//136 328//328
f 328//328 136//136 132//132
f 136//136 328//328 302//302
f 329//329 323//323 330//330
f 327//327 330//330 323//323
f 323//323 330//330 327//327
f 330//330 323//323 329//329
f 331//331 330//330 332//332
f 327//327 332//332 330//330
f 330//330 332//332 327//327
f 332//332 330//330 331//331
f 333//333 334//334 328//328
f 335//335 328//328 334//334
f 334//334 328//328 335//335
f 328//328 334//334 333//333
f 336//336 333//333 302//302
f 328//328 302//302 333//333
f 333//333 302//302 328//328
f 302//302 333//333 336//336
f 337//337 336//336 301//301
f 302//302 301//301 336//336
f 336//336 301//301 302//302
f 301//301 336//336 337//337
f 338//338 337//337 303//303
f 301//301 303//303 337//337
f 337//337 303//303 301//301
f 303//303 337//337 338//338
f 339//339 338//338 304//304
f 303//303 304//304 338//338
f 338//338 304//304 303//303
f 304//304 338//338 339//339
f 340//340 339//339 305//305
f 304//304 305//305 339//339
f 339//339 305//305 304//304
f 305//305 339//339 340//340
f 341//341 340//340 306//306
f 305//305 306//306 340//340
f 340//340 306//306 305//305
f 306//306 340//340 341//341
f 341//341 306//306 342//342
f 307//307 342//342 306//306
f 306//306 342//342 307//307
f 342//342 306//306 341//341
f 342//342 307//307 343//343
f 308//308 343//343 307//307
f 307//307 343//343 308//308
f 343//343 307//307 342//342
f 343//343 308//308 344//344
f 309//309 344//344 308//308
f 308//308 344//344 309//309
f 344//344 308//308 343//343
f 309//309 310//310 344//344
f 345//345 344//344 310//310
f 310//310 344//344 345//345
f 344//344 310//310 309//309
f 310//310 311//311 345//345
f 346//346 345//345 311//311
f 311//311 345//345 346//346
f 345//345 311//311 310//310
f 311//311 312//312 346//346
f 347//347 346//346 312//312
f 312//312 346//346 347//347
f 346//346 312//312 311//311
f 347//347 312//312 313//313
f 314//314 313//313 312//312
f 315//315 314//314 312//312
f 296//296 315//315 312//312
f 312//312 315//315 296//296
f 312//312 314//314 315//315
f 312//312 313//313 314//314
f 313//313 312//312 347//347
f 313//313 315//315 348//348
f 316//316 348//348 315//315
f 315//315 348//348 316//316
f 348//348 315//315 313//313
f 313//313 317//317 348//348
f 322//322 348//348 317//317
f 317//317 348//348 322//322
f 348//348 317//317 313//313
f 348//348 316//316 324//324
f 326//326 324//324 316//316
f 316//316 324//324 326//326
f 324//324 316//316 348//348
f 348//348 322//322 324//324
f 321//321 324//324 322//322
f 322//322 324//324 321//321
f 324//324 322//322 348//348
f 324//324 325//325 329//329
f 323//323 329//329 325//325
f 326//326 323//323 325//325
f 300//300 323//323 326//326
f 326//326 323//323 300//300
f 325//325 323//323 326//326
f 325//325 329//329 323//323
f 329//329 325//325 324//324
f 349//349 331//331 350//350
f 332//332 350//350 331//331
f 331//331 350//350 332//332
f 350//350 331//331 349//349
f 332//332 327//327 168//168
f 166//166 168//168 327//327
f 327//327 168//168 166//166
f 168//168 327//327 332//332
f 334//334 351//351 335//335
f 352//352 335//335 351//351
f 351//351 335//335 352//352
f 335//335 351//351 334//334
f 328//328 335//335 132//132
f 133//133 132//132 335//335
f 335//335 132//132 133//133
f 132//132 335//335 328//328
f 337//337 338//338 336//336
f 339//339 336//336 338//338
f 333//333 336//336 339//339
f 340//340 333//333 339//339
f 29//29 333//333 340//340
f 334//334 333//333 29//29
f 27//27 29//29 340//340
f 31//31 334//334 29//29
f 4//4 334//334 31//31
f 6//6 334//334 4//4
f 351//351 334//334 6//6
f 9//9 351//351 6//6
f 11//11 351//351 9//9
f 353//353 351//351 11//11
f 14//14 353//353 11//11
f 1//1 353//353 14//14
f 3//3 353//353 1//1
f 55//55 58//58 18//18
f 19//19 18//18 58//58
f 60//60 19//19 58//58
f 21//21 19//19 60//60
f 62//62 21//21 60//60
f 23//23 21//21 62//62
f 24//24 23//23 62//62
f 64//64 24//24 62//62
f 26//26 24//24 64//64
f 2//2 17//17 3//3
f 353//353 3//3 17//17
f 354//354 353//353 17//17
f 46//46 354//354 17//17
f 49//49 354//354 46//46
f 51//51 354//354 49//49
f 349//349 354//354 51//51
f 53//53 349//349 51//51
f 55//55 349//349 53//53
f 18//18 349//349 55//55
f 331//331 349//349 18//18
f 20//20 331//331 18//18
f 22//22 331//331 20//20
f 330//330 331//331 22//22
f 25//25 330//330 22//22
f 66//66 330//330 25//25
f 69//69 330//330 66//66
f 341//341 28//28 340//340
f 27//27 340//340 28//28
f 30//30 28//28 341//341
f 32//32 30//30 341//341
f 33//33 32//32 341//341
f 35//35 33//33 341//341
f 342//342 35//35 341//341
f 38//38 35//35 342//342
f 39//39 38//38 342//342
f 41//41 39//39 342//342
f 343//343 41//41 342//342
f 43//43 41//41 343//343
f 45//45 43//43 343//343
f 47//47 45//45 343//343
f 344//344 47//47 343//343
f 48//48 47//47 344//344
f 50//50 48//48 344//344
f 52//52 50//50 344//344
f 345//345 52//52 344//344
f 54//54 52//52 345//345
f 56//56 54//54 345//345
f 57//57 56//56 345//345
f 346//346 57//57 345//345
f 59//59 57//57 346//346
f 61//61 59//59 346//346
f 63//63 61//61 346//346
f 65//65 63//63 346//346
f 347//347 65//65 346//346
f 67//67 65//65 347//347
f 68//68 67//67 347//347
f 69//69 68//68 347//347
f 330//330 69//69 347//347
f 329//329 330//330 347//347
f 313//313 329//329 347//347
f 324//324 329//329 313//313
f 348//348 324//324 313//313
f 5//5 34//34 7//7
f 36//36 7//7 34//34
f 8//8 7//7 36//36
f 37//37 8//8 36//36
f 10//10 8//8 37//37
f 40//40 10//10 37//37
f 42//42 10//10 40//40
f 12//12 10//10 42//42
f 44//44 12//12 42//42
f 13//13 12//12 44//44
f 15//15 13//13 44//44
f 16//16 15//15 44//44
f 46//46 16//16 44//44
f 17//17 16//16 46//46
f 46//46 16//16 17//17
f 44//44 16//16 46//46
f 44//44 15//15 16//16
f 44//44 13//13 15//15
f 44//44 12//12 13//13
f 42//42 12//12 44//44
f 42//42 10//10 12//12
f 40//40 10//10 42//42
f 37//37 10//10 40//40
f 37//37 8//8 10//10
f 36//36 8//8 37//37
f 36//36 7//7 8//8
f 34//34 7//7 36//36
f 7//7 34//34 5//5
f 313//313 324//324 348//348
f 313//313 329//329 324//324
f 347//347 329//329 313//313
f 347//347 330//330 329//329
f 347//347 69//69 330//330
f 347//347 68//68 69//69
f 347//347 67//67 68//68
f 347//347 65//65 67//67
f 346//346 65//65 347//347
f 346//346 63//63 65//65
f 346//346 61//61 63//63
f 346//346 59//59 61//61
f 346//346 57//57 59//59
f 345//345 57//57 346//346
f 345//345 56//56 57//57
f 345//345 54//54 56//56
f 345//345 52//52 54//54
f 344//344 52//52 345//345
f 344//344 50//50 52//52
f 344//344 48//48 50//50
f 344//344 47//47 48//48
f 343//343 47//47 344//344
f 343//343 45//45 47//47
f 343//343 43//43 45//45
f 343//343 41//41 43//43
f 342//342 41//41 343//343
f 342//342 39//39 41//41
f 342//342 38//38 39//39
f 342//342 35//35 38//38
f 341//341 35//35 342//342
f 341//341 33//33 35//35
f 341//341 32//32 33//33
f 341//341 30//30 32//32
f 341//341 28//28 30//30
f 28//28 340//340 27//27
f 340//340 28//28 341//341
f 66//66 330//330 69//69
f 25//25 330//330 66//66
f 22//22 330//330 25//25
f 22//22 331//331 330//330
f 20//20 331//331 22//22
f 18//18 331//331 20//20
f 18//18 349//349 331//331
f 55//55 349//349 18//18
f 53//53 349//349 55//55
f 51//51 349//349 53//53
f 51//51 354//354 349//349
f 49//49 354//354 51//51
f 46//46 354//354 49//49
f 17//17 354//354 46//46
f 17//17 353//353 354//354
f 17//17 3//3 353//353
f 3//3 17//17 2//2
f 64//64 24//24 26//26
f 62//62 24//24 64//64
f 62//62 23//23 24//24
f 62//62 21//21 23//23
f 60//60 21//21 62//62
f 60//60 19//19 21//21
f 58//58 19//19 60//60
f 58//58 18//18 19//19
f 18//18 58//58 55//55
f 1//1 353//353 3//3
f 14//14 353//353 1//1
f 11//11 353//353 14//14
f 11//11 351//351 353//353
f 9//9 351//351 11//11
f 6//6 351//351 9//9
f 6//6 334//334 351//351
f 4//4 334//334 6//6
f 31//31 334//334 4//4
f 29//29 334//334 31//31
f 340//340 29//29 27//27
f 29//29 333//333 334//334
f 340//340 333//333 29//29
f 339//339 333//333 340//340
f 339//339 336//336 333//333
f 338//338 336//336 339//339
f 336//336 338//338 337//337
f 354//354 349//349 355//355
f 350//350 355//355 349//349
f 349//349 355//355 350//350
f 355//355 349//349 354//354
f 350//350 332//332 171//171
f 168//168 171//171 332//332
f 332//332 171//171 168//168
f 171//171 332//332 350//350
f 351//351 353//353 352//352
f 356//356 352//352 353//353
f 353//353 352//352 356//356
f 352//352 353//353 351//351
f 198//198 133//133 352//352
f 335//335 352//352 133//133
f 133//133 352//352 335//335
f 352//352 133//133 198//198
f 353//353 354//354 356//356
f 355//355 356//356 354//354
f 354//354 356//356 355//355
f 356//356 354//354 353//353
f 355//355 350//350 196//196
f 171//171 196//196 350//350
f 350//350 196//196 171//171
f 196//196 350//350 355//355
f 352//352 356//356 198//198
f 199//199 198//198 356//356
f 356//356 198//198 199//199
f 198//198 356//356 352//352
f 356//356 355//355 199//199
f 196//196 199//199 355//355
f 355//355 199//199 196//196
f 199//199 355//355 356//356
f 96//96 106//106 88//88
f 88//88 106//106 96//96
f 118//118 84//84 106//106
f 88//88 106//106 84//84
f 84//84 106//106 88//88
f 106//106 84//84 118//118
f 129//129 109//109 118//118
f 84//84 118//118 109//109
f 110//110 84//84 109//109
f 81//81 84//84 110//110
f 81//81 129//129 122//122
f 118//118 122//122 129//129
f 130//130 129//129 81//81
f 110//110 130//130 81//81
f 81//81 130//130 110//110
f 81//81 129//129 130//130
f 129//129 122//122 118//118
f 122//122 129//129 81//81
f 110//110 84//84 81//81
f 109//109 84//84 110//110
f 109//109 118//118 84//84
f 118//118 109//109 129//129
f 127//127 102//102 125//125
f 121//121 125//125 102//102
f 122//122 121//121 102//102
f 81//81 122//122 102//102
f 92//92 81//81 102//102
f 82//82 81//81 92//92
f 92//92 81//81 82//82
f 102//102 81//81 92//92
f 102//102 122//122 81//81
f 102//102 121//121 122//122
f 102//102 125//125 121//121
f 125//125 102//102 127//127
f 119//119 113//113 124//124
f 127//127 124//124 113//113
f 102//102 127//127 113//113
f 101//101 102//102 113//113
f 113//113 102//102 101//101
f 113//113 127//127 102//102
f 113//113 124//124 127//127
f 124//124 113//113 119//119
f 116//116 115//115 119//119
f 98//98 119//119 115//115
f 113//113 119//119 98//98
f 99//99 113//113 98//98
f 98//98 113//113 99//99
f 98//98 119//119 113//113
f 115//115 119//119 98//98
f 119//119 115//115 116//116
f 77//77 72//72 86//86
f 73//73 86//86 72//72
f 94//94 86//86 73//73
f 75//75 94//94 73//73
f 104//104 94//94 75//75
f 79//79 104//104 75//75
f 115//115 104//104 79//79
f 89//89 115//115 79//79
f 98//98 115//115 89//89
f 89//89 115//115 98//98
f 79//79 115//115 89//89
f 79//79 104//104 115//115
f 75//75 104//104 79//79
f 75//75 94//94 104//104
f 73//73 94//94 75//75
f 73//73 86//86 94//94
f 72//72 86//86 73//73
f 86//86 72//72 77//77
f 181//181 357//357 182//182
f 358//358 182//182 357//357
f 357//357 182//182 358//358
f 182//182 357//357 181//181
f 181//181 180//180 357//357
f 359//359 357//357 180//180
f 180//180 357//357 359//359
f 357//357 180//180 181//181
f 173//173 360//360 170//170
f 361//361 170//170 360//360
f 360//360 170//170 361//361
f 170//170 360//360 173//173
f 173//173 174//174 360//360
f 362//362 360//360 174//174
f 174//174 360//360 362//362
f 360//360 174//174 173//173
f 174//174 175//175 362//362
f 363//363 362//362 175//175
f 175//175 362//362 363//363
f 362//362 175//175 174//174
f 175//175 176//176 363//363
f 364//364 363//363 176//176
f 176//176 363//363 364//364
f 363//363 176//176 175//175
f 176//176 192//192 364//364
f 365//365 364//364 192//192
f 192//192 364//364 365//365
f 364//364 192//192 176//176
f 192//192 191//191 365//365
f 366//366 365//365 191//191
f 191//191 365//365 366//366
f 365//365 191//191 192//192
f 191//191 190//190 366//366
f 367//367 366//366 190//190
f 190//190 366//366 367//367
f 366//366 190//190 191//191
f 189//189 368//368 190//190
f 367//367 190//190 368//368
f 368//368 190//190 367//367
f 190//190 368//368 189//189
f 189//189 188//188 368//368
f 369//369 368//368 188//188
f 188//188 368//368 369//369
f 368//368 188//188 189//189
f 188//188 187//187 369//369
f 370//370 369//369 187//187
f 187//187 369//369 370//370
f 369//369 187//187 188//188
f 187//187 186//186 370//370
f 371//371 370//370 186//186
f 186//186 370//370 371//371
f 370//370 186//186 187//187
f 186//186 185//185 371//371
f 372//372 371//371 185//185
f 185//185 371//371 372//372
f 371//371 185//185 186//186
f 185//185 193//193 372//372
f 373//373 372//372 193//193
f 193//193 372//372 373//373
f 372//372 193//193 185//185
f 194//194 374//374 193//193
f 373//373 193//193 374//374
f 374//374 193//193 373//373
f 193//193 374//374 194//194
f 195//195 375//375 194//194
f 374//374 194//194 375//375
f 375//375 194//194 374//374
f 194//194 375//375 195//195
f 184//184 376//376 195//195
f 375//375 195//195 376//376
f 376//376 195//195 375//375
f 195//195 376//376 184//184
f 183//183 377//377 184//184
f 376//376 184//184 377//377
f 377//377 184//184 376//376
f 184//184 377//377 183//183
f 182//182 358//358 183//183
f 377//377 183//183 358//358
f 358//358 183//183 377//377
f 183//183 358//358 182//182
f 179//179 378//378 180//180
f 359//359 180//180 378//378
f 378//378 180//180 359//359
f 180//180 378//378 179//179
f 170//170 361//361 177//177
f 379//379 177//177 361//361
f 361//361 177//177 379//379
f 177//177 361//361 170//170
f 364//364 365//365 363//363
f 362//362 363//363 365//365
f 366//366 362//362 365//365
f 360//360 362//362 366//366
f 367//367 360//360 366//366
f 361//361 360//360 367//367
f 368//368 361//361 367//367
f 379//379 361//361 368//368
f 369//369 379//379 368//368
f 380//380 379//379 369//369
f 370//370 380//380 369//369
f 378//378 380//380 370//370
f 371//371 378//378 370//370
f 359//359 378//378 371//371
f 372//372 359//359 371//371
f 357//357 359//359 372//372
f 373//373 357//357 372//372
f 358//358 357//357 373//373
f 374//374 358//358 373//373
f 377//377 358//358 374//374
f 375//375 377//377 374//374
f 376//376 377//377 375//375
f 375//375 377//377 376//376
f 374//374 377//377 375//375
f 374//374 358//358 377//377
f 373//373 358//358 374//374
f 373//373 357//357 358//358
f 372//372 357//357 373//373
f 372//372 359//359 357//357
f 371//371 359//359 372//372
f 371//371 378//378 359//359
f 370//370 378//378 371//371
f 370//370 380//380 378//378
f 369//369 380//380 370//370
f 369//369 379//379 380//380
f 368//368 379//379 369//369
f 368//368 361//361 379//379
f 367//367 361//361 368//368
f 367//367 360//360 361//361
f 366//366 360//360 367//367
f 366//366 362//362 360//360
f 365//365 362//362 366//366
f 365//365 363//363 362//362
f 363//363 365//365 364//364
f 178//178 380//380 179//179
f 378//378 179//179 380//380
f 380//380 179//179 378//378
f 179//179 380//380 178//178
f 177//177 379//379 178//178
f 380//380 178//178 379//379
f 379//379 178//178 380//380
f 178//178 379//379 177//177
f 381//381 382//382 383//383
f 384//384 383//383 382//382
f 382//382 383//383 384//384
f 383//383 382//382 381//381
f 385//385 386//386 381//381
f 382//382 381//381 386//386
f 386//386 381//381 382//382
f 381//381 386//386 385//385
f 387//387 388//388 385//385
f 386//386 385//385 388//388
f 388//388 385//385 386//386
f 385//385 388//388 387//387
f 389//389 390//390 387//387
f 388//388 387//387 390//390
f 390//390 387//387 388//388
f 387//387 390//390 389//389
f 391//391 392//392 389//389
f 390//390 389//389 392//392
f 392//392 389//389 390//390
f 389//389 392//392 391//391
f 393//393 394//394 391//391
f 392//392 391//391 394//394
f 394//394 391//391 392//392
f 391//391 394//394 393//393
f 393//393 395//395 394//394
f 396//396 394//394 395//395
f 395//395 394//394 396//396
f 394//394 395//395 393//393
f 395//395 397//397 396//396
f 398//398 396//396 397//397
f 397//397 396//396 398//398
f 396//396 397//397 395//395
f 397//397 399//399 398//398
f 400//400 398//398 399//399
f 399//399 398//398 400//400
f 398//398 399//399 397//397
f 401//401 402//402 403//403
f 404//404 403//403 402//402
f 402//402 403//403 404//404
f 403//403 402//402 401//401
f 402//402 405//405 404//404
f 406//406 404//404 405//405
f 405//405 404//404 406//406
f 404//404 405//405 402//402
f 405//405 407//407 406//406
f 408//408 406//406 407//407
f 407//407 406//406 408//408
f 406//406 407//407 405//405
f 407//407 409//409 408//408
f 410//410 408//408 409//409
f 409//409 408//408 410//410
f 408//408 409//409 407//407
f 409//409 411//411 410//410
f 412//412 410//410 411//411
f 411//411 410//410 412//412
f 410//410 411//411 409//409
f 411//411 413//413 412//412
f 414//414 412//412 413//413
f 413//413 412//412 414//414
f 412//412 413//413 411//411
f 415//415 416//416 413//413
f 414//414 413//413 416//416
f 416//416 413//413 414//414
f 413//413 416//416 415//415
f 417//417 418//418 415//415
f 416//416 415//415 418//418
f 418//418 415//415 416//416
f 415//415 418//418 417//417
f 419//419 420//420 417//417
f 418//418 417//417 420//420
f 420//420 417//417 418//418
f 417//417 420//420 419//419
f 421//421 422//422 419//419
f 420//420 419//419 422//422
f 422//422 419//419 420//420
f 419//419 422//422 421//421
f 421//421 299//299 422//422
f 319//319 422//422 299//299
f 299//299 422//422 319//319
f 422//422 299//299 421//421
f 299//299 383//383 319//319
f 384//384 319//319 383//383
f 383//383 319//319 384//384
f 319//319 383//383 299//299
f 399//399 423//423 400//400
f 424//424 400//400 423//423
f 423//423 400//400 424//424
f 400//400 423//423 399//399
f 407//407 405//405 409//409
f 402//402 409//409 405//405
f 411//411 409//409 402//402
f 401//401 411//411 402//402
f 413//413 411//411 401//401
f 298//298 413//413 401//401
f 415//415 413//413 298//298
f 423//423 415//415 298//298
f 417//417 415//415 423//423
f 399//399 417//417 423//423
f 419//419 417//417 399//399
f 397//397 419//419 399//399
f 421//421 419//419 397//397
f 395//395 421//421 397//397
f 299//299 421//421 395//395
f 393//393 299//299 395//395
f 383//383 299//299 393//393
f 391//391 383//383 393//393
f 381//381 383//383 391//391
f 389//389 381//381 391//391
f 385//385 381//381 389//389
f 387//387 385//385 389//389
f 389//389 385//385 387//387
f 389//389 381//381 385//385
f 391//391 381//381 389//389
f 391//391 383//383 381//381
f 393//393 383//383 391//391
f 393//393 299//299 383//383
f 395//395 299//299 393//393
f 395//395 421//421 299//299
f 397//397 421//421 395//395
f 397//397 419//419 421//421
f 399//399 419//419 397//397
f 399//399 417//417 419//419
f 423//423 417//417 399//399
f 423//423 415//415 417//417
f 298//298 415//415 423//423
f 298//298 413//413 415//415
f 401//401 413//413 298//298
f 401//401 411//411 413//413
f 402//402 411//411 401//401
f 402//402 409//409 411//411
f 405//405 409//409 402//402
f 409//409 405//405 407//407
f 401//401 403//403 298//298
f 425//425 298//298 403//403
f 403//403 298//298 425//425
f 298//298 403//403 401//401
f 408//408 410//410 406//406
f 404//404 406//406 410//410
f 412//412 404//404 410//410
f 403//403 404//404 412//412
f 414//414 403//403 412//412
f 425//425 403//403 414//414
f 416//416 425//425 414//414
f 424//424 425//425 416//416
f 418//418 424//424 416//416
f 400//400 424//424 418//418
f 420//420 400//400 418//418
f 398//398 400//400 420//420
f 422//422 398//398 420//420
f 396//396 398//398 422//422
f 319//319 396//396 422//422
f 394//394 396//396 319//319
f 384//384 394//394 319//319
f 392//392 394//394 384//384
f 382//382 392//392 384//384
f 390//390 392//392 382//382
f 386//386 390//390 382//382
f 388//388 390//390 386//386
f 386//386 390//390 388//388
f 382//382 390//390 386//386
f 382//382 392//392 390//390
f 384//384 392//392 382//382
f 384//384 394//394 392//392
f 319//319 394//394 384//384
f 319//319 396//396 394//394
f 422//422 396//396 319//319
f 422//422 398//398 396//396
f 420//420 398//398 422//422
f 420//420 400//400 398//398
f 418//418 400//400 420//420
f 418//418 424//424 400//400
f 416//416 424//424 418//418
f 416//416 425//425 424//424
f 414//414 425//425 416//416
f 414//414 403//403 425//425
f 412//412 403//403 414//414
f 412//412 404//404 403//403
f 410//410 404//404 412//412
f 410//410 406//406 404//404
f 406//406 410//410 408//408
f 298//298 425//425 423//423
f 424//424 423//423 425//425
f 425//425 423//423 424//424
f 423//423 425//425 298//298
f 112//112 97//97 108//108
f 97//97 112//112 128//128
f 114//114 111//111 107//107
f 111//111 114//114 131//131