# https://github.com/mikedh/trimesh
v -0.08998900 0.04176300 0.02974800
v 0.00024000 -0.04846500 0.02974800
v 0.00024000 0.04176300 0.02974800
v -0.08998900 -0.04846500 0.02974800
v -0.03735500 -0.04376600 0.01846900
v 0.00024000 0.03142500 0.01846900
v 0.00024000 -0.04376600 0.01846900
v -0.03735500 0.03142500 0.01846900
v -0.07965000 -0.04376600 0.01846900
v -0.03735500 -0.04376600 0.02692800
v -0.07965000 -0.04376600 0.02692800
v 0.00024000 0.04176300 0.02692800
v -0.08998900 0.04176300 0.02692800
v -0.08998900 -0.04846500 0.02692800
v 0.00024000 -0.04846500 0.02692800
v 0.00024000 -0.04376600 0.02692800
v -0.07965000 0.03706400 0.02692800
v -0.07965000 0.03706400 0.01846900
v 0.00024000 0.03706400 0.01846900
v 0.00024000 0.03706400 0.02692800
v -0.07495100 0.03424400 -0.07332500
v 0.00024000 0.03424400 -0.06674600
v -0.07495100 0.03424400 -0.06674600
v 0.00024000 0.03424400 -0.07332500
v -0.07495100 0.03612400 -0.06674600
v -0.07495100 0.03612400 -0.07332500
v 0.00024000 0.03612400 -0.07332500
v 0.00024000 0.03612400 -0.06674600
v -0.07683000 0.03142500 -0.07332500
v -0.07871000 0.03142500 -0.06674600
v -0.07683000 0.03142500 -0.06674600
v -0.07871000 0.03142500 -0.07332500
v -0.07871000 -0.03812700 -0.07332500
v -0.07683000 -0.03812700 -0.07332500
v -0.07871000 -0.03812700 -0.06674600
v -0.07683000 -0.03812700 -0.06674600
v -0.08153000 -0.04470600 -0.08585800
v -0.08153000 -0.03812700 0.02692800
v -0.08153000 -0.03812700 -0.08585800
v -0.08153000 -0.04470600 0.02692800
v -0.07495100 -0.04470600 0.02692800
v -0.07495100 -0.04470600 -0.08585800
v -0.07495100 -0.03812700 -0.08585800
v -0.07495100 -0.03812700 0.02692800
v -0.08153000 0.03142500 -0.08585800
v -0.08153000 0.03800400 0.02692800
v -0.08153000 0.03800400 -0.08585800
v -0.08153000 0.03142500 0.02692800
v -0.07495100 0.03142500 0.02692800
v -0.07495100 0.03142500 -0.08585800
v -0.07495100 0.03800400 -0.08585800
v -0.07495100 0.03800400 0.02692800
v 0.09046900 -0.04846500 0.02974800
v 0.09046900 0.04176300 0.02974800
v 0.03783600 0.03142500 0.01846900
v 0.03783600 -0.04376600 0.01846900
v 0.08013000 -0.04376600 0.01846900
v 0.03783600 -0.04376600 0.02692800
v 0.08013000 -0.04376600 0.02692800
v 0.09046900 0.04176300 0.02692800
v 0.09046900 -0.04846500 0.02692800
v 0.08013000 0.03706400 0.02692800
v 0.08013000 0.03706400 0.01846900
v 0.07543100 0.03424400 -0.07332500
v 0.07543100 0.03424400 -0.06674600
v 0.07543100 0.03612400 -0.06674600
v 0.07543100 0.03612400 -0.07332500
v 0.07919000 0.03142500 -0.07332500
v 0.07731100 0.03142500 -0.07332500
v 0.07919000 0.03142500 -0.06674600
v 0.07731100 0.03142500 -0.06674600
v 0.07919000 -0.03812700 -0.07332500
v 0.07731100 -0.03812700 -0.07332500
v 0.07919000 -0.03812700 -0.06674600
v 0.07731100 -0.03812700 -0.06674600
v 0.08201000 -0.04470600 0.02692800
v 0.08201000 -0.04470600 -0.08585800
v 0.08201000 -0.03812700 0.02692800
v 0.08201000 -0.03812700 -0.08585800
v 0.07543100 -0.04470600 -0.08585800
v 0.07543100 -0.04470600 0.02692800
v 0.07543100 -0.03812700 -0.08585800
v 0.07543100 -0.03812700 0.02692800
v 0.08201000 0.03142500 0.02692800
v 0.08201000 0.03142500 -0.08585800
v 0.08201000 0.03800400 0.02692800
v 0.08201000 0.03800400 -0.08585800
v 0.07543100 0.03142500 -0.08585800
v 0.07543100 0.03142500 0.02692800
v 0.07543100 0.03800400 -0.08585800
v 0.07543100 0.03800400 0.02692800
vn -0.57735027 0.57735027 0.57735027
vn 0.00000000 -0.70710678 0.70710678
vn 0.00000000 0.70710678 0.70710678
vn -0.57735027 -0.57735027 0.57735027
vn 0.00000000 -0.70710678 -0.70710678
vn 0.00000000 0.00000000 -1.00000000
vn 0.00000000 -0.70710678 -0.70710678
vn 0.00000000 0.00000000 -1.00000000
vn -0.57735027 -0.57735027 -0.57735027
vn 0.00000000 -0.70710678 -0.70710678
vn -0.30151134 -0.30151134 -0.90453403
vn 0.00000000 0.70710678 -0.70710678
vn -0.57735027 0.57735027 -0.57735027
vn -0.57735027 -0.57735027 -0.57735027
vn 0.00000000 -0.70710678 -0.70710678
vn 0.00000000 -0.70710678 -0.70710678
vn -0.30151134 0.30151134 -0.90453403
vn -0.57735027 0.57735027 -0.57735027
vn 0.00000000 0.70710678 -0.70710678
vn 0.00000000 0.70710678 -0.70710678
vn -0.57735027 -0.57735027 -0.57735027
vn 0.00000000 -0.70710678 0.70710678
vn -0.57735027 -0.57735027 0.57735027
vn 0.00000000 -0.70710678 -0.70710678
vn -0.57735027 0.57735027 0.57735027
vn -0.57735027 0.57735027 -0.57735027
vn 0.00000000 0.70710678 -0.70710678
vn 0.00000000 0.70710678 0.70710678
vn 0.57735027 0.57735027 -0.57735027
vn -0.57735027 0.57735027 0.57735027
vn 0.57735027 0.57735027 0.57735027
vn -0.57735027 0.57735027 -0.57735027
vn -0.57735027 -0.57735027 -0.57735027
vn 0.57735027 -0.57735027 -0.57735027
vn -0.57735027 -0.57735027 0.57735027
vn 0.57735027 -0.57735027 0.57735027
vn -0.57735027 -0.57735027 -0.57735027
vn -0.70710678 0.70710678 0.00000000
vn -0.57735027 0.57735027 -0.57735027
vn -0.70710678 -0.70710678 0.00000000
vn 0.70710678 -0.70710678 0.00000000
vn 0.57735027 -0.57735027 -0.57735027
vn 0.57735027 0.57735027 -0.57735027
vn 0.70710678 0.70710678 0.00000000
vn -0.57735027 -0.57735027 -0.57735027
vn -0.70710678 0.70710678 0.00000000
vn -0.57735027 0.57735027 -0.57735027
vn -0.70710678 -0.70710678 0.00000000
vn 0.70710678 -0.70710678 0.00000000
vn 0.57735027 -0.57735027 -0.57735027
vn 0.57735027 0.57735027 -0.57735027
vn 0.70710678 0.70710678 0.00000000
vn 0.57735027 -0.57735027 0.57735027
vn 0.57735027 0.57735027 0.57735027
vn 0.00000000 0.00000000 -1.00000000
vn 0.00000000 -0.70710678 -0.70710678
vn 0.57735027 -0.57735027 -0.57735027
vn 0.00000000 -0.70710678 -0.70710678
vn 0.30151134 -0.30151134 -0.90453403
vn 0.57735027 0.57735027 -0.57735027
vn 0.57735027 -0.57735027 -0.57735027
vn 0.30151134 0.30151134 -0.90453403
vn 0.57735027 0.57735027 -0.57735027
vn 0.57735027 -0.57735027 -0.57735027
vn 0.57735027 -0.57735027 0.57735027
vn 0.57735027 0.57735027 0.57735027
vn 0.57735027 0.57735027 -0.57735027
vn 0.57735027 0.57735027 -0.57735027
vn -0.57735027 0.57735027 -0.57735027
vn 0.57735027 0.57735027 0.57735027
vn -0.57735027 0.57735027 0.57735027
vn 0.57735027 -0.57735027 -0.57735027
vn -0.57735027 -0.57735027 -0.57735027
vn 0.57735027 -0.57735027 0.57735027
vn -0.57735027 -0.57735027 0.57735027
vn 0.70710678 -0.70710678 0.00000000
vn 0.57735027 -0.57735027 -0.57735027
vn 0.70710678 0.70710678 0.00000000
vn 0.57735027 0.57735027 -0.57735027
vn -0.57735027 -0.57735027 -0.57735027
vn -0.70710678 -0.70710678 0.00000000
vn -0.57735027 0.57735027 -0.57735027
vn -0.70710678 0.70710678 0.00000000
vn 0.70710678 -0.70710678 0.00000000
vn 0.57735027 -0.57735027 -0.57735027
vn 0.70710678 0.70710678 0.00000000
vn 0.57735027 0.57735027 -0.57735027
vn -0.57735027 -0.57735027 -0.57735027
vn -0.70710678 -0.70710678 0.00000000
vn -0.57735027 0.57735027 -0.57735027
vn -0.70710678 0.70710678 0.00000000
f 1//1 2//2 3//3
f 2//2 1//1 4//4
f 5//5 6//6 7//7
f 6//6 5//5 8//8
f 9//9 10//10 11//11
f 10//10 9//9 5//5
f 12//12 1//1 3//3
f 1//1 12//12 13//13
f 14//14 1//1 13//13
f 1//1 14//14 4//4
f 14//14 2//2 4//4
f 2//2 14//14 15//15
f 5//5 16//16 10//10
f 16//16 5//5 7//7
f 9//9 17//17 18//18
f 17//17 9//9 11//11
f 5//5 9//9 8//8
f 8//8 19//19 6//6
f 8//8 18//18 19//19
f 18//18 8//8 9//9
f 15//15 10//10 16//16
f 15//15 11//11 10//10
f 11//11 14//14 17//17
f 14//14 11//11 15//15
f 17//17 12//12 20//20
f 17//17 13//13 12//12
f 13//13 17//17 14//14
f 19//19 17//17 20//20
f 17//17 19//19 18//18
f 21//21 22//22 23//23
f 22//22 21//21 24//24
f 21//21 25//25 26//26
f 25//25 21//21 23//23
f 21//21 27//27 24//24
f 27//27 21//21 26//26
f 25//25 22//22 28//28
f 22//22 25//25 23//23
f 27//27 25//25 28//28
f 25//25 27//27 26//26
f 29//29 30//30 31//31
f 30//30 29//29 32//32
f 33//33 29//29 34//34
f 29//29 33//33 32//32
f 33//33 30//30 32//32
f 30//30 33//33 35//35
f 30//30 36//36 31//31
f 36//36 30//30 35//35
f 36//36 29//29 31//31
f 29//29 36//36 34//34
f 33//33 36//36 35//35
f 36//36 33//33 34//34
f 37//37 38//38 39//39
f 38//38 37//37 40//40
f 37//37 41//41 40//40
f 41//41 37//37 42//42
f 41//41 43//43 44//44
f 43//43 41//41 42//42
f 43//43 38//38 44//44
f 38//38 43//43 39//39
f 37//37 43//43 42//42
f 43//43 37//37 39//39
f 45//45 46//46 47//47
f 46//46 45//45 48//48
f 45//45 49//49 48//48
f 49//49 45//45 50//50
f 49//49 51//51 52//52
f 51//51 49//49 50//50
f 51//51 46//46 52//52
f 46//46 51//51 47//47
f 45//45 51//51 50//50
f 51//51 45//45 47//47
f 53//53 54//54 2//2
f 3//3 2//2 54//54
f 55//55 56//56 6//6
f 7//7 6//6 56//56
f 56//56 57//57 58//58
f 59//59 58//58 57//57
f 60//60 12//12 54//54
f 3//3 54//54 12//12
f 53//53 61//61 54//54
f 60//60 54//54 61//61
f 15//15 61//61 2//2
f 53//53 2//2 61//61
f 7//7 56//56 16//16
f 58//58 16//16 56//56
f 59//59 57//57 62//62
f 63//63 62//62 57//57
f 57//57 55//55 63//63
f 19//19 63//63 55//55
f 6//6 19//19 55//55
f 55//55 57//57 56//56
f 61//61 62//62 60//60
f 12//12 60//60 62//62
f 20//20 12//12 62//62
f 15//15 59//59 61//61
f 62//62 61//61 59//59
f 58//58 59//59 15//15
f 16//16 58//58 15//15
f 63//63 19//19 62//62
f 20//20 62//62 19//19
f 24//24 64//64 22//22
f 65//65 22//22 64//64
f 65//65 64//64 66//66
f 67//67 66//66 64//64
f 67//67 64//64 27//27
f 24//24 27//27 64//64
f 65//65 66//66 22//22
f 28//28 22//22 66//66
f 67//67 27//27 66//66
f 28//28 66//66 27//27
f 68//68 69//69 70//70
f 71//71 70//70 69//69
f 68//68 72//72 69//69
f 73//73 69//69 72//72
f 74//74 72//72 70//70
f 68//68 70//70 72//72
f 74//74 70//70 75//75
f 71//71 75//75 70//70
f 73//73 75//75 69//69
f 71//71 69//69 75//75
f 73//73 72//72 75//75
f 74//74 75//75 72//72
f 76//76 77//77 78//78
f 79//79 78//78 77//77
f 80//80 77//77 81//81
f 76//76 81//81 77//77
f 80//80 81//81 82//82
f 83//83 82//82 81//81
f 79//79 82//82 78//78
f 83//83 78//78 82//82
f 79//79 77//77 82//82
f 80//80 82//82 77//77
f 84//84 85//85 86//86
f 87//87 86//86 85//85
f 88//88 85//85 89//89
f 84//84 89//89 85//85
f 88//88 89//89 90//90
f 91//91 90//90 89//89
f 87//87 90//90 86//86
f 91//91 86//86 90//90
f 87//87 85//85 90//90
f 88//88 90//90 85//85