# https://github.com/mikedh/trimesh
v 0.06329800 -0.01619700 0.03757300
v 0.06553100 -0.00968400 0.04650000
v 0.06553100 -0.00968400 0.03757300
v 0.06329800 -0.01619700 0.04650000
v 0.06908300 -0.00444100 0.08174300
v 0.08539400 -0.00444100 0.08628300
v 0.08539400 -0.00444100 0.08174300
v 0.06908300 -0.00444100 0.08628300
v 0.05909100 0.02609800 -0.02652800
v 0.05909100 0.02609800 -0.02678500
v 0.05909100 0.02611500 -0.02665700
v 0.05909100 0.02604800 -0.02640800
v 0.05909100 0.02604800 -0.02690500
v 0.05909100 0.02596900 -0.02630500
v 0.05909100 0.02596900 -0.02700800
v 0.05909100 0.02586600 -0.02622600
v 0.05909100 0.02586600 -0.02708700
v 0.05909100 0.02574600 -0.02617600
v 0.05909100 0.02574600 -0.02713700
v 0.05909100 0.02561700 -0.02615900
v 0.05909100 0.02561700 -0.02715400
v 0.05909100 0.02548800 -0.02617600
v 0.05909100 0.02548800 -0.02713700
v 0.05909100 0.02536800 -0.02622600
v 0.05909100 0.02536800 -0.02708700
v 0.05909100 0.02526500 -0.02630500
v 0.05909100 0.02526500 -0.02700800
v 0.05909100 0.02518600 -0.02640800
v 0.05909100 0.02518600 -0.02690500
v 0.05909100 0.02513600 -0.02652800
v 0.05909100 0.02513600 -0.02678500
v 0.05909100 0.02512000 -0.02665700
v -0.08299300 -0.01896000 -0.01163700
v -0.07542000 -0.02277000 -0.00019500
v -0.08299300 -0.01896000 -0.00019500
v -0.07542000 -0.02277000 -0.01163700
v -0.06119800 -0.02847400 -0.00019500
v -0.06119800 -0.02847400 -0.01163700
v -0.04654300 -0.03295300 -0.00019500
v -0.04654300 -0.03295300 -0.01163700
v -0.03156300 -0.03617600 -0.00019500
v -0.03156300 -0.03617600 -0.01163700
v 0.04443700 -0.03295300 -0.01163700
v 0.04808300 -0.03183800 -0.00019500
v 0.04443700 -0.03295300 -0.00019500
v 0.04808300 -0.03183800 -0.01163700
v -0.01636300 -0.03811800 -0.00019500
v -0.01636300 -0.03811800 -0.01163700
v 0.02945600 -0.03617600 -0.01163700
v 0.02945600 -0.03617600 -0.00019500
v -0.00105300 -0.03876800 -0.00019500
v -0.00105300 -0.03876800 -0.01163700
v 0.01425600 -0.03811800 -0.01163700
v 0.01425600 -0.03811800 -0.00019500
v 0.05909100 0.02609800 -0.02404000
v 0.05909100 0.02609800 -0.02429800
v 0.05909100 0.02611500 -0.02416900
v 0.05909100 0.02604800 -0.02392000
v 0.05909100 0.02604800 -0.02441800
v 0.05909100 0.02596900 -0.02381700
v 0.05909100 0.02596900 -0.02452100
v 0.05909100 0.02586600 -0.02373800
v 0.05909100 0.02586600 -0.02460000
v 0.05909100 0.02574600 -0.02368900
v 0.05909100 0.02574600 -0.02465000
v 0.05909100 0.02561700 -0.02367200
v 0.05909100 0.02561700 -0.02466700
v 0.05909100 0.02548800 -0.02368900
v 0.05909100 0.02548800 -0.02465000
v 0.05909100 0.02536800 -0.02373800
v 0.05909100 0.02536800 -0.02460000
v 0.05909100 0.02526500 -0.02381700
v 0.05909100 0.02526500 -0.02452100
v 0.05909100 0.02518600 -0.02392000
v 0.05909100 0.02518600 -0.02441800
v 0.05909100 0.02513600 -0.02404000
v 0.05909100 0.02513600 -0.02429800
v 0.05909100 0.02512000 -0.02416900
v 0.05805800 -0.02381700 0.08550400
v 0.05934800 -0.02005200 0.00192600
v 0.05934800 -0.02005200 0.08550400
v 0.05805800 -0.02381700 0.00192600
v 0.05859400 0.02753500 -0.05118900
v 0.05909100 0.02753500 -0.04074100
v 0.05859400 0.02753500 -0.04074100
v 0.05909100 0.02753500 -0.05118900
v 0.05909100 0.02305800 -0.05118900
v 0.05859400 0.02305800 -0.05118900
v 0.05859400 0.02305800 -0.04074100
v 0.05909100 0.02305800 -0.04074100
v 0.05909100 0.02305800 -0.06561600
v 0.05859400 0.02305800 -0.05516800
v 0.05909100 0.02305800 -0.05516800
v 0.05859400 0.02305800 -0.06561600
v 0.05909100 0.02753500 -0.05516800
v 0.05859400 0.02753500 -0.05516800
v 0.05859400 0.02753500 -0.06561600
v 0.05909100 0.02753500 -0.06561600
v 0.05859400 0.02305800 -0.06959600
v 0.05909100 0.02753500 -0.06959600
v 0.05909100 0.02305800 -0.06959600
v 0.05859400 0.02753500 -0.06959600
v 0.05859400 0.02753500 -0.08004300
v 0.05909100 0.02753500 -0.08004300
v 0.05909100 0.02305800 -0.08004300
v 0.05859400 0.02305800 -0.08004300
v 0.05859400 0.02305800 -0.08402300
v 0.05909100 0.02753500 -0.08402300
v 0.05909100 0.02305800 -0.08402300
v 0.05859400 0.02753500 -0.08402300
v 0.05859400 0.02753500 -0.09447000
v 0.05909100 0.02753500 -0.09447000
v 0.05909100 0.02305800 -0.09447000
v 0.05859400 0.02305800 -0.09447000
v 0.01019200 -0.03199900 0.08935300
v 0.01019200 -0.02951100 0.09084500
v 0.01019200 -0.02951100 0.08935300
v 0.01019200 -0.03199900 0.09084500
v -0.02042800 -0.03199900 0.09084500
v -0.02042800 -0.03199900 0.08935300
v -0.02042800 -0.02951100 0.08935300
v -0.02042800 -0.02951100 0.09084500
v -0.04679000 -0.02801900 0.09084500
v -0.04679000 -0.02553100 0.08935300
v -0.04679000 -0.02553100 0.09084500
v -0.04679000 -0.02801900 0.08935300
v 0.03655400 -0.02553100 0.09084500
v 0.03655400 -0.02553100 0.08935300
v 0.03655400 -0.02801900 0.08935300
v 0.03655400 -0.02801900 0.09084500
v -0.05470300 -0.02403900 0.09084500
v -0.05470300 -0.02155100 0.08935300
v -0.05470300 -0.02155100 0.09084500
v -0.05470300 -0.02403900 0.08935300
v 0.04628700 -0.02155100 0.09084500
v 0.04628700 -0.02155100 0.08935300
v 0.04628700 -0.02403900 0.08935300
v 0.04628700 -0.02403900 0.09084500
v -0.05470300 -0.02005900 0.09084500
v -0.05470300 -0.01757200 0.08935300
v -0.05470300 -0.01757200 0.09084500
v -0.05470300 -0.02005900 0.08935300
v 0.04628700 -0.01757200 0.09084500
v 0.04628700 -0.01757200 0.08935300
v 0.04628700 -0.02005900 0.08935300
v 0.04628700 -0.02005900 0.09084500
v -0.05470300 -0.01607900 0.09084500
v -0.05470300 -0.01359200 0.08935300
v -0.05470300 -0.01359200 0.09084500
v -0.05470300 -0.01607900 0.08935300
v 0.04628700 -0.01359200 0.09084500
v 0.04628700 -0.01359200 0.08935300
v 0.04628700 -0.01607900 0.08935300
v 0.04628700 -0.01607900 0.09084500
v 0.04628700 -0.01209900 0.08935300
v 0.04628700 -0.00961200 0.09084500
v 0.04628700 -0.00961200 0.08935300
v 0.04628700 -0.01209900 0.09084500
v -0.05470300 -0.01209900 0.09084500
v -0.05470300 -0.01209900 0.08935300
v -0.05470300 -0.00961200 0.08935300
v -0.05470300 -0.00961200 0.09084500
v 0.04628700 -0.00811900 0.08935300
v -0.05470300 -0.00811900 0.09084500
v 0.04628700 -0.00811900 0.09084500
v -0.05470300 -0.00811900 0.08935300
v -0.05470300 -0.00563200 0.08935300
v -0.05470300 -0.00563200 0.09084500
v 0.04628700 -0.00563200 0.09084500
v 0.04628700 -0.00563200 0.08935300
v 0.04628700 -0.00214900 0.08935300
v -0.05470300 -0.00214900 0.09084500
v 0.04628700 -0.00214900 0.09084500
v -0.05470300 -0.00214900 0.08935300
v -0.05470300 0.00033800 0.08935300
v -0.05470300 0.00033800 0.09084500
v 0.04628700 0.00033800 0.09084500
v 0.04628700 0.00033800 0.08935300
v -0.05470300 0.00431800 0.08935300
v 0.04628700 0.00431800 0.09084500
v -0.05470300 0.00431800 0.09084500
v 0.04628700 0.00431800 0.08935300
v 0.04628700 0.00183100 0.08935300
v 0.04628700 0.00183100 0.09084500
v -0.05470300 0.00183100 0.09084500
v -0.05470300 0.00183100 0.08935300
v -0.05470300 0.00581000 0.09084500
v -0.05470300 0.00829800 0.08935300
v -0.05470300 0.00829800 0.09084500
v -0.05470300 0.00581000 0.08935300
v 0.04628700 0.00829800 0.09084500
v 0.04628700 0.00829800 0.08935300
v 0.04628700 0.00581000 0.08935300
v 0.04628700 0.00581000 0.09084500
v 0.04628700 0.00979000 0.08935300
v 0.04628700 0.01227800 0.09084500
v 0.04628700 0.01227800 0.08935300
v 0.04628700 0.00979000 0.09084500
v -0.05470300 0.00979000 0.09084500
v -0.05470300 0.00979000 0.08935300
v -0.05470300 0.01227800 0.08935300
v -0.05470300 0.01227800 0.09084500
v -0.05470300 0.01625800 0.08935300
v 0.04628700 0.01625800 0.09084500
v -0.05470300 0.01625800 0.09084500
v 0.04628700 0.01625800 0.08935300
v 0.04628700 0.01377000 0.08935300
v 0.04628700 0.01377000 0.09084500
v -0.05470300 0.01377000 0.09084500
v -0.05470300 0.01377000 0.08935300
v 0.03655400 0.01775000 0.08935300
v -0.04679000 0.01775000 0.09084500
v 0.03655400 0.01775000 0.09084500
v -0.04679000 0.01775000 0.08935300
v -0.04679000 0.02023800 0.08935300
v -0.04679000 0.02023800 0.09084500
v 0.03655400 0.02023800 0.09084500
v 0.03655400 0.02023800 0.08935300
v -0.02042800 0.02421700 0.08935300
v 0.01019200 0.02421700 0.09084500
v -0.02042800 0.02421700 0.09084500
v 0.01019200 0.02421700 0.08935300
v 0.01019200 0.02173000 0.08935300
v 0.01019200 0.02173000 0.09084500
v -0.02042800 0.02173000 0.09084500
v -0.02042800 0.02173000 0.08935300
v 0.05759900 0.02434400 -0.01673500
v 0.05909100 0.02136900 -0.01673500
v 0.05909100 0.02434400 -0.01673500
v 0.05759900 0.02136900 -0.01673500
v 0.05759900 0.02136900 0.05148600
v 0.05909100 0.02136900 0.05148600
v 0.05909100 0.02434400 0.05148600
v 0.05759900 0.02434400 0.05148600
v 0.05759900 0.03029300 -0.01673500
v 0.05909100 0.02731900 -0.01673500
v 0.05909100 0.03029300 -0.01673500
v 0.05759900 0.02731900 -0.01673500
v 0.05759900 0.02731900 0.05148600
v 0.05909100 0.02731900 0.05148600
v 0.05909100 0.03029300 0.05148600
v 0.05759900 0.03029300 0.05148600
v 0.06539900 0.03745200 0.05502600
v 0.05909100 0.03745200 0.05502600
v 0.05909100 0.03149100 0.05502600
v 0.05909100 0.03149100 -0.10019000
v 0.06539900 0.03745200 -0.10019000
v 0.05909100 0.03745200 -0.10019000
v 0.06041100 -0.02462400 0.00192600
v 0.06170200 -0.02085900 0.00192600
v 0.06170200 -0.02085900 0.08550400
v 0.06041100 -0.02462400 0.08550400
v 0.05281500 -0.03039200 0.09084500
v 0.05909100 -0.02847400 -0.00467200
v 0.05909100 -0.02847400 0.09084500
v 0.05267800 -0.03043400 -0.10019000
v 0.05909100 -0.02847400 -0.10019000
v 0.06732800 -0.00444100 0.09084500
v 0.06732800 -0.00444100 -0.00467200
v 0.05281500 -0.00444100 0.09084500
v 0.08700200 -0.00444100 0.08011000
v 0.08700200 -0.00145600 0.07911500
v 0.08700200 -0.00145600 0.08011000
v 0.08700200 -0.00444100 0.07911500
v -0.03156300 -0.03617600 -0.10019000
v -0.01636300 -0.03811800 -0.10019000
v -0.00105300 -0.03876800 -0.10019000
v -0.04654300 -0.03295300 -0.10019000
v 0.03467400 0.04391900 -0.09720000
v -0.07328100 0.04391900 -0.09123000
v 0.03467400 0.04391900 -0.09123000
v -0.07328100 0.04391900 -0.09720000
v 0.03467400 0.04391900 0.03164900
v -0.07328100 0.04391900 0.03761900
v 0.03467400 0.04391900 0.03761900
v -0.07328100 0.04391900 0.03164900
v 0.04350900 0.04391900 0.04054600
v 0.04064400 0.04391900 0.03761900
v -0.08285300 0.04391900 0.04054600
v 0.04064400 0.04391900 0.03164900
v -0.07925100 0.04391900 0.03164900
v 0.04064400 0.04391900 -0.09123000
v 0.04064400 0.04391900 -0.09720000
v -0.07925100 0.04391900 -0.09720000
v 0.04350900 0.04391900 -0.10019000
v -0.07925100 0.04391900 0.03761900
v -0.07925100 0.04391900 -0.09123000
v -0.08285300 0.04391900 -0.10019000
v 0.04576400 0.03745200 0.04308600
v -0.08285300 0.03745200 0.04308600
v 0.04576400 0.03745200 -0.10019000
v 0.01425600 -0.03811800 -0.10019000
v -0.06119800 -0.02847400 -0.10019000
v -0.08285300 0.03745200 -0.10019000
v -0.08285300 0.03745200 0.05502600
v -0.08285300 0.01014900 -0.10019000
v -0.08285300 0.01014900 0.05502600
v 0.02945600 -0.03617600 -0.10019000
v -0.07542000 -0.02277000 -0.10019000
v 0.05909100 0.01959200 0.05502600
v 0.04443700 0.02407100 0.05502600
v 0.02945600 0.02729400 0.05502600
v 0.01425600 0.02923700 0.05502600
v -0.00105300 0.02988600 0.05502600
v -0.01636300 0.02923700 0.05502600
v -0.03156300 0.02729400 0.05502600
v -0.04654300 0.02407100 0.05502600
v -0.06119800 0.01959200 0.05502600
v -0.07542000 0.01388800 0.05502600
v 0.05909100 0.01959200 -0.10019000
v 0.04443700 -0.03295300 -0.10019000
v 0.04443700 -0.03295300 0.09084500
v 0.02945600 -0.03617600 0.09084500
v 0.01425600 -0.03811800 0.09084500
v -0.00105300 -0.03876800 0.09084500
v -0.01636300 -0.03811800 0.09084500
v -0.03156300 -0.03617600 0.09084500
v -0.04654300 -0.03295300 0.09084500
v -0.06119800 -0.02847400 0.09084500
v -0.07542000 -0.02277000 0.09084500
v -0.08910900 -0.01588300 0.09084500
v -0.08910900 -0.01588300 -0.10019000
v -0.08910900 0.00700100 0.09084500
v -0.08910900 0.00700100 -0.10019000
v -0.07542000 0.01388800 0.09084500
v -0.07542000 0.01388800 -0.10019000
v -0.06119800 0.01959200 0.09084500
v -0.04654300 0.02407100 0.09084500
v -0.03156300 0.02729400 0.09084500
v -0.01636300 0.02923700 0.09084500
v -0.00105300 0.02988600 0.09084500
v 0.01425600 0.02923700 0.09084500
v 0.02945600 0.02729400 0.09084500
v 0.04443700 0.02407100 0.09084500
v 0.05909100 0.01959200 0.09084500
v 0.07331300 0.01388800 0.09084500
v 0.07331300 0.01388800 -0.10019000
v 0.08700200 0.00700100 -0.10019000
v 0.08700200 0.00700100 0.09084500
v 0.08700200 -0.00444100 0.09084500
v 0.08700200 -0.00444100 0.08094000
v 0.08700200 -0.00145600 0.08094000
v 0.08700200 -0.00145600 0.08193500
v 0.08700200 -0.00444100 0.08193500
v 0.08700200 -0.00444100 -0.00467200
v 0.08700200 -0.00444100 -0.10019000
v 0.07331300 -0.02277000 -0.10019000
v 0.08700200 -0.01588300 -0.00467200
v 0.07331300 -0.02277000 -0.00467200
v 0.08700200 -0.01588300 -0.10019000
v 0.07889500 -0.00444100 0.04059900
v 0.07971500 -0.00444100 0.04557400
v 0.07889500 -0.00444100 0.04557400
v 0.07971500 -0.00444100 0.04059900
v 0.07840800 -0.00444100 0.07985200
v 0.07794000 -0.00444100 0.07979100
v 0.07750600 -0.00444100 0.07961000
v 0.07713200 -0.00444100 0.07932400
v 0.07684600 -0.00444100 0.07895000
v 0.07666500 -0.00444100 0.07851500
v 0.07716800 -0.00444100 0.07838000
v 0.07623100 -0.00444100 0.07827500
v 0.07964800 -0.00444100 0.07838000
v 0.07623100 -0.00444100 0.07777700
v 0.07716800 -0.00444100 0.07771600
v 0.07845600 -0.00444100 0.07777700
v 0.07666500 -0.00444100 0.07758100
v 0.07684600 -0.00444100 0.07714600
v 0.07713200 -0.00444100 0.07677300
v 0.07623100 -0.00444100 0.07635700
v 0.07750600 -0.00444100 0.07648600
v 0.07623100 -0.00444100 0.07586000
v 0.07623100 -0.00444100 0.07362000
v 0.08021300 -0.00444100 0.07430100
v 0.07623100 -0.00444100 0.07312200
v 0.08021300 -0.00444100 0.07312200
v 0.07623100 -0.00444100 0.04308600
v 0.08021300 -0.00444100 0.04059900
v 0.07887500 -0.00444100 0.07979100
v 0.07930900 -0.00444100 0.07961000
v 0.07968300 -0.00444100 0.07932400
v 0.07997000 -0.00444100 0.07895000
v 0.08015100 -0.00444100 0.07851500
v 0.08021300 -0.00444100 0.07804800
v 0.08015100 -0.00444100 0.07758100
v 0.07997000 -0.00444100 0.07714600
v 0.07968300 -0.00444100 0.07677300
v 0.07930900 -0.00444100 0.07648600
v 0.07887500 -0.00444100 0.07630600
v 0.08021300 -0.00444100 0.07479800
v 0.07840800 -0.00444100 0.07624400
v 0.08021300 -0.00444100 0.07362000
v 0.08021300 -0.00444100 0.04557400
v 0.07807500 -0.00444100 0.07928800
v 0.07874000 -0.00444100 0.07928800
v 0.07840800 -0.00444100 0.07933200
v 0.07776700 -0.00444100 0.07916000
v 0.07905100 -0.00444100 0.07916000
v 0.07750000 -0.00444100 0.07895600
v 0.07931500 -0.00444100 0.07895600
v 0.07729500 -0.00444100 0.07869000
v 0.07952000 -0.00444100 0.07869000
v 0.07845600 -0.00444100 0.07827500
v 0.07969100 -0.00444100 0.07804800
v 0.07964800 -0.00444100 0.07771600
v 0.07729500 -0.00444100 0.07740700
v 0.07952000 -0.00444100 0.07740700
v 0.07750000 -0.00444100 0.07714100
v 0.07931500 -0.00444100 0.07714100
v 0.07776700 -0.00444100 0.07693700
v 0.07905100 -0.00444100 0.07693700
v 0.07807500 -0.00444100 0.07680900
v 0.07874000 -0.00444100 0.07680900
v 0.07840800 -0.00444100 0.07676500
v 0.07794000 -0.00444100 0.07630600
v 0.04064400 0.04491400 0.03164900
v 0.03467400 0.04491400 0.03164900
v 0.04064400 0.04491400 0.03761900
v 0.03467400 0.04491400 0.03761900
v -0.07328100 0.04491400 0.03164900
v -0.07328100 0.04491400 0.03761900
v -0.07925100 0.04491400 0.03761900
v -0.07925100 0.04491400 0.03164900
v -0.07925100 0.04491400 -0.09123000
v -0.07925100 0.04491400 -0.09720000
v -0.07328100 0.04491400 -0.09720000
v -0.07328100 0.04491400 -0.09123000
v 0.04064400 0.04491400 -0.09720000
v 0.03467400 0.04491400 -0.09720000
v 0.04064400 0.04491400 -0.09123000
v 0.03467400 0.04491400 -0.09123000
v 0.04443700 0.02407100 -0.10019000
v 0.02945600 0.02729400 -0.10019000
v 0.01425600 0.02923700 -0.10019000
v -0.00105300 0.02988600 -0.10019000
v -0.01636300 0.02923700 -0.10019000
v -0.03156300 0.02729400 -0.10019000
v -0.04654300 0.02407100 -0.10019000
v -0.06119800 0.01959200 -0.10019000
v 0.06732800 -0.00444100 -0.10019000
vn 0.00000000 -0.00000000 0.00000000
vn 0.00000000 -0.00000000 0.00000000
vn 0.00000000 0.00000000 0.00000000
vn 0.00000000 0.00000000 0.00000000
vn 0.00000000 0.00000000 0.00000000
vn 0.00000000 0.00000000 0.00000000
vn 0.00000000 -0.00000000 0.00000000
vn 0.00000000 -0.00000000 0.00000000
vn 1.00000000 0.00000000 0.00000000
vn 1.00000000 0.00000000 0.00000000
vn 1.00000000 0.00000000 0.00000000
vn 1.00000000 0.00000000 0.00000000
vn 1.00000000 0.00000000 0.00000000
vn 1.00000000 0.00000000 0.00000000
vn 1.00000000 0.00000000 0.00000000
vn 1.00000000 0.00000000 0.00000000
vn 1.00000000 0.00000000 0.00000000
vn 1.00000000 0.00000000 0.00000000
vn 1.00000000 0.00000000 0.00000000
vn 1.00000000 0.00000000 0.00000000
vn 1.00000000 0.00000000 0.00000000
vn 1.00000000 0.00000000 0.00000000
vn 1.00000000 0.00000000 0.00000000
vn 1.00000000 0.00000000 0.00000000
vn 1.00000000 0.00000000 0.00000000
vn 1.00000000 0.00000000 0.00000000
vn 1.00000000 0.00000000 0.00000000
vn 1.00000000 0.00000000 0.00000000
vn 1.00000000 0.00000000 0.00000000
vn 1.00000000 0.00000000 0.00000000
vn 1.00000000 0.00000000 0.00000000
vn 1.00000000 0.00000000 0.00000000
vn -0.44943109 -0.89331500 -0.00000006
vn -0.41120646 -0.91154223 0.00000000
vn -0.44943112 -0.89331499 0.00000000
vn -0.41120649 -0.91154222 -0.00000005
vn -0.33256341 -0.94308090 0.00000000
vn -0.33256341 -0.94308090 0.00000000
vn -0.25153717 -0.96784764 0.00000000
vn -0.25153717 -0.96784764 0.00000000
vn -0.16868836 -0.98566944 0.00000000
vn -0.16868836 -0.98566944 0.00000000
vn 0.25161245 -0.96782807 0.00000000
vn 0.29234386 -0.95631327 -0.00000303
vn 0.25161065 -0.96782854 -0.00000275
vn 0.29149338 -0.95657284 0.00004277
vn -0.08465114 -0.99641065 0.00000000
vn -0.08465114 -0.99641065 0.00000000
vn 0.16868160 -0.98567059 0.00000000
vn 0.16868160 -0.98567059 0.00000000
vn 0.00000138 -1.00000000 0.00000000
vn 0.00000138 -1.00000000 0.00000000
vn 0.08465252 -0.99641053 0.00000000
vn 0.08465252 -0.99641053 0.00000000
vn 1.00000000 0.00000000 0.00000000
vn 1.00000000 0.00000000 0.00000000
vn 1.00000000 0.00000000 0.00000000
vn 1.00000000 0.00000000 0.00000000
vn 1.00000000 0.00000000 0.00000000
vn 1.00000000 0.00000000 0.00000000
vn 1.00000000 0.00000000 0.00000000
vn 1.00000000 0.00000000 0.00000000
vn 1.00000000 0.00000000 0.00000000
vn 1.00000000 0.00000000 0.00000000
vn 1.00000000 0.00000000 0.00000000
vn 1.00000000 0.00000000 0.00000000
vn 1.00000000 0.00000000 0.00000000
vn 1.00000000 0.00000000 0.00000000
vn 1.00000000 0.00000000 0.00000000
vn 1.00000000 0.00000000 0.00000000
vn 1.00000000 0.00000000 0.00000000
vn 1.00000000 0.00000000 0.00000000
vn 1.00000000 0.00000000 0.00000000
vn 1.00000000 0.00000000 0.00000000
vn 1.00000000 0.00000000 0.00000000
vn 1.00000000 0.00000000 0.00000000
vn 1.00000000 0.00000000 0.00000000
vn 1.00000000 0.00000000 0.00000000
vn 0.73336180 0.35892733 -0.57736613
vn 0.35898286 -0.73335419 0.57734127
vn 0.35898286 -0.73335419 -0.57734127
vn 0.73336180 0.35892733 0.57736613
vn 0.57735027 -0.57735027 0.57735027
vn 0.90453403 -0.30151134 -0.30151134
vn 0.57735027 -0.57735027 -0.57735027
vn 0.90453403 -0.30151134 0.30151134
vn 0.57735027 0.57735027 0.57735027
vn 0.57735027 0.57735027 0.57735027
vn 0.57735027 0.57735027 -0.57735027
vn 0.90453403 0.30151134 -0.30151134
vn 0.57735027 0.57735027 0.57735027
vn 0.57735027 0.57735027 -0.57735027
vn 0.57735027 0.57735027 -0.57735027
vn 0.57735027 0.57735027 0.57735027
vn 0.90453403 -0.30151134 -0.30151134
vn 0.57735027 -0.57735027 -0.57735027
vn 0.57735027 -0.57735027 0.57735027
vn 0.90453403 -0.30151134 0.30151134
vn 0.57735027 0.57735027 -0.57735027
vn 0.90453403 -0.30151134 -0.30151134
vn 0.57735027 0.57735027 -0.57735027
vn 0.57735027 -0.57735027 -0.57735027
vn 0.57735027 -0.57735027 0.57735027
vn 0.90453403 -0.30151134 0.30151134
vn 0.57735027 0.57735027 0.57735027
vn 0.57735027 0.57735027 0.57735027
vn 0.57735027 0.57735027 -0.57735027
vn 0.90453403 -0.30151134 -0.30151134
vn 0.57735027 0.57735027 -0.57735027
vn 0.57735027 -0.57735027 -0.57735027
vn 0.57735027 -0.57735027 0.57735027
vn 0.90453403 -0.30151134 0.30151134
vn 0.90453403 0.30151134 0.30151134
vn 0.57735027 0.57735027 0.57735027
vn -0.57735027 0.57735027 0.57735027
vn -0.30151134 -0.30151134 0.90453403
vn -0.57735027 -0.57735027 0.57735027
vn -0.30151134 0.30151134 0.90453403
vn 0.30151134 0.30151134 0.90453403
vn 0.57735027 0.57735027 0.57735027
vn 0.57735027 -0.57735027 0.57735027
vn 0.30151134 -0.30151134 0.90453403
vn 0.30151134 0.30151134 0.90453403
vn 0.57735027 -0.57735027 0.57735027
vn 0.30151134 -0.30151134 0.90453403
vn 0.57735027 0.57735027 0.57735027
vn -0.30151134 -0.30151134 0.90453403
vn -0.57735027 -0.57735027 0.57735027
vn -0.57735027 0.57735027 0.57735027
vn -0.30151134 0.30151134 0.90453403
vn 0.30151134 0.30151134 0.90453403
vn 0.57735027 -0.57735027 0.57735027
vn 0.57735027 -0.57735027 0.57735027
vn 0.57735027 0.57735027 0.57735027
vn -0.30151134 -0.30151134 0.90453403
vn -0.57735027 -0.57735027 0.57735027
vn -0.57735027 0.57735027 0.57735027
vn -0.30151134 0.30151134 0.90453403
vn 0.57735027 0.57735027 0.57735027
vn 0.57735027 -0.57735027 0.57735027
vn 0.57735027 -0.57735027 0.57735027
vn 0.57735027 0.57735027 0.57735027
vn -0.30151134 -0.30151134 0.90453403
vn -0.57735027 -0.57735027 0.57735027
vn -0.57735027 0.57735027 0.57735027
vn -0.30151134 0.30151134 0.90453403
vn 0.57735027 0.57735027 0.57735027
vn 0.57735027 -0.57735027 0.57735027
vn 0.57735027 -0.57735027 0.57735027
vn 0.57735027 0.57735027 0.57735027
vn -0.30151134 -0.30151134 0.90453403
vn -0.57735027 -0.57735027 0.57735027
vn -0.57735027 0.57735027 0.57735027
vn -0.30151134 0.30151134 0.90453403
vn -0.57735027 0.57735027 0.57735027
vn -0.30151134 -0.30151134 0.90453403
vn -0.57735027 -0.57735027 0.57735027
vn -0.30151134 0.30151134 0.90453403
vn 0.57735027 0.57735027 0.57735027
vn 0.57735027 0.57735027 0.57735027
vn 0.57735027 -0.57735027 0.57735027
vn 0.57735027 -0.57735027 0.57735027
vn -0.57735027 0.57735027 0.57735027
vn 0.57735027 0.57735027 0.57735027
vn -0.30151134 0.30151134 0.90453403
vn 0.57735027 0.57735027 0.57735027
vn 0.57735027 -0.57735027 0.57735027
vn 0.57735027 -0.57735027 0.57735027
vn -0.30151134 -0.30151134 0.90453403
vn -0.57735027 -0.57735027 0.57735027
vn -0.57735027 0.57735027 0.57735027
vn 0.57735027 0.57735027 0.57735027
vn -0.30151134 0.30151134 0.90453403
vn 0.57735027 0.57735027 0.57735027
vn 0.57735027 -0.57735027 0.57735027
vn 0.57735027 -0.57735027 0.57735027
vn -0.30151134 -0.30151134 0.90453403
vn -0.57735027 -0.57735027 0.57735027
vn 0.57735027 -0.57735027 0.57735027
vn -0.30151134 -0.30151134 0.90453403
vn 0.57735027 -0.57735027 0.57735027
vn -0.57735027 -0.57735027 0.57735027
vn -0.57735027 0.57735027 0.57735027
vn -0.30151134 0.30151134 0.90453403
vn 0.57735027 0.57735027 0.57735027
vn 0.57735027 0.57735027 0.57735027
vn 0.57735027 0.57735027 0.57735027
vn 0.57735027 -0.57735027 0.57735027
vn 0.57735027 -0.57735027 0.57735027
vn 0.57735027 0.57735027 0.57735027
vn -0.30151134 -0.30151134 0.90453403
vn -0.57735027 -0.57735027 0.57735027
vn -0.57735027 0.57735027 0.57735027
vn -0.30151134 0.30151134 0.90453403
vn -0.57735027 0.57735027 0.57735027
vn -0.30151134 -0.30151134 0.90453403
vn -0.57735027 -0.57735027 0.57735027
vn -0.30151134 0.30151134 0.90453403
vn 0.57735027 0.57735027 0.57735027
vn 0.57735027 0.57735027 0.57735027
vn 0.57735027 -0.57735027 0.57735027
vn 0.57735027 -0.57735027 0.57735027
vn 0.57735027 -0.57735027 0.57735027
vn -0.30151134 -0.30151134 0.90453403
vn 0.30151134 -0.30151134 0.90453403
vn -0.57735027 -0.57735027 0.57735027
vn -0.57735027 0.57735027 0.57735027
vn -0.30151134 0.30151134 0.90453403
vn 0.57735027 0.57735027 0.57735027
vn 0.57735027 0.57735027 0.57735027
vn -0.57735027 0.57735027 0.57735027
vn 0.30151134 0.30151134 0.90453403
vn -0.30151134 0.30151134 0.90453403
vn 0.57735027 0.57735027 0.57735027
vn 0.57735027 -0.57735027 0.57735027
vn 0.30151134 -0.30151134 0.90453403
vn -0.30151134 -0.30151134 0.90453403
vn -0.57735027 -0.57735027 0.57735027
vn 0.57735027 -0.57735027 0.57735027
vn -0.30151134 -0.30151134 0.90453403
vn 0.30151134 -0.30151134 0.90453403
vn -0.57735027 -0.57735027 0.57735027
vn -0.57735027 0.57735027 0.57735027
vn -0.30151134 0.30151134 0.90453403
vn 0.30151134 0.30151134 0.90453403
vn 0.57735027 0.57735027 0.57735027
vn 0.57735027 -0.57735027 0.57735027
vn 0.90453403 0.30151134 0.30151134
vn 0.90453403 -0.30151134 0.30151134
vn 0.57735027 0.57735027 0.57735027
vn 0.57735027 0.57735027 -0.57735027
vn 0.90453403 0.30151134 -0.30151134
vn 0.90453403 -0.30151134 -0.30151134
vn 0.57735027 -0.57735027 -0.57735027
vn 0.57735027 -0.57735027 0.57735027
vn 0.90453403 0.30151134 0.30151134
vn 0.90453403 -0.30151134 0.30151134
vn 0.57735027 0.57735027 0.57735027
vn 0.57735027 0.57735027 -0.57735027
vn 0.90453403 0.30151134 -0.30151134
vn 0.90453403 -0.30151134 -0.30151134
vn 0.57735027 -0.57735027 -0.57735027
vn 0.77833767 0.30958047 0.54621461
vn 0.00000000 0.00000000 1.00000000
vn 0.88389916 -0.38085043 0.27143181
vn 0.88389916 -0.38085043 -0.27143181
vn 0.77833767 0.30958047 -0.54621461
vn 0.00000000 0.70710678 -0.70710678
vn 0.95345039 -0.00812465 0.30144044
vn 0.75794593 -0.57859148 0.30124717
vn 0.75796139 -0.57860625 -0.30117990
vn 0.95345287 -0.00812133 -0.30143268
vn 0.20668290 -0.67621861 0.70711426
vn 0.62781197 -0.76897585 0.12053328
vn 0.54666270 -0.56536887 0.61767137
vn 0.20668565 -0.67622166 -0.70711054
vn 0.47996951 -0.65824099 -0.57995523
vn 0.29289697 -0.40999104 0.86378163
vn 0.54484733 -0.76268407 0.34850308
vn 0.00000000 0.00000000 1.00000000
vn 0.70710678 -0.70710678 0.00000000
vn 1.00000000 0.00000000 0.00000000
vn 1.00000000 0.00000000 0.00000000
vn 0.70710678 -0.70710678 0.00000000
vn -0.12084924 -0.70613880 -0.69768436
vn -0.06064269 -0.71381218 -0.69770669
vn 0.00000099 -0.71640694 -0.69768267
vn -0.18019833 -0.69335489 -0.69770163
vn -0.57735027 0.57735027 -0.57735027
vn 0.30151134 0.90453403 0.30151134
vn -0.30151134 0.90453403 0.30151134
vn 0.57735027 0.57735027 -0.57735027
vn -0.57735027 0.57735027 -0.57735027
vn 0.30151134 0.90453403 0.30151134
vn -0.30151134 0.90453403 0.30151134
vn 0.57735027 0.57735027 -0.57735027
vn 0.47336815 0.75327847 0.45661159
vn 0.30151134 0.90453403 0.30151134
vn -0.59962533 0.66128014 0.45073056
vn 0.30151134 0.90453403 -0.30151134
vn -0.30151134 0.90453403 -0.30151134
vn 0.30151134 0.90453403 0.30151134
vn 0.30151134 0.90453403 -0.30151134
vn -0.30151134 0.90453403 -0.30151134
vn 0.46455771 0.65397807 -0.59707522
vn -0.30151134 0.90453403 0.30151134
vn -0.30151134 0.90453403 0.30151134
vn -0.57735027 0.57735027 -0.57735027
vn 0.19762937 0.95935807 0.20143167
vn -0.41860321 0.75042938 0.51149496
vn 0.29247996 0.41173675 -0.86309230
vn 0.06064365 -0.71381181 -0.69770700
vn -0.23824897 -0.67562470 -0.69768810
vn -0.70710678 0.00000000 -0.70710678
vn -0.57735027 0.57735027 0.57735027
vn -0.45371435 0.27961172 -0.84614453
vn -0.43586973 -0.70716291 0.55672094
vn 0.12084414 -0.70613818 -0.69768586
vn -0.29458443 -0.65301917 -0.69770049
vn 0.65254151 0.69435269 0.30342037
vn -0.00000000 -0.00000000 1.00000000
vn -0.00000000 -0.00000000 1.00000000
vn 0.00000000 0.00000000 1.00000000
vn -0.00000000 0.00000000 1.00000000
vn 0.00000000 -0.00000000 1.00000000
vn -0.00000000 0.00000000 1.00000000
vn 0.00000000 -0.00000000 1.00000000
vn 0.00000000 -0.00000000 1.00000000
vn -0.19676433 0.39103983 0.89909491
vn 0.36469012 -0.00952025 -0.93108028
vn 0.18020685 -0.69335808 -0.69769625
vn 0.18021172 -0.69335817 0.69769491
vn 0.12084414 -0.70613818 0.69768586
vn 0.06064365 -0.71381181 0.69770700
vn 0.00000099 -0.71640694 0.69768267
vn -0.06064269 -0.71381218 0.69770669
vn -0.12084924 -0.70613880 0.69768436
vn -0.18019833 -0.69335489 0.69770163
vn -0.23824897 -0.67562470 0.69768810
vn -0.29458440 -0.65301916 0.69770051
vn -0.67724406 -0.41739984 0.60590251
vn -0.67724406 -0.41739987 -0.60590249
vn -0.67724403 0.41739986 0.60590253
vn -0.67725608 0.41737289 -0.60590765
vn -0.29458443 0.65301917 0.69770049
vn 0.09028225 -0.22510621 -0.97014242
vn -0.23824897 0.67562470 0.69768810
vn -0.18019833 0.69335489 0.69770163
vn -0.12087093 0.70612808 0.69769145
vn -0.06064369 0.71382601 0.69769246
vn 0.00000099 0.71639302 0.69769695
vn 0.06064465 0.71382563 0.69769276
vn 0.12086583 0.70612747 0.69769295
vn 0.18020106 0.69335779 0.69769804
vn 0.23825474 0.67562051 0.69769019
vn 0.29458443 0.65301917 0.69770049
vn 0.29458443 0.65301917 -0.69770049
vn 0.67724406 0.41739988 -0.60590249
vn 0.67724406 0.41739988 0.60590249
vn 0.57735027 -0.57735027 0.57735027
vn 0.70710678 -0.70710678 0.00000000
vn 1.00000000 0.00000000 0.00000000
vn 1.00000000 0.00000000 0.00000000
vn 0.70710678 -0.70710678 0.00000000
vn 0.80178373 -0.53452248 0.26726124
vn 0.66666667 -0.33333333 -0.66666667
vn 0.29458443 -0.65301917 -0.69770049
vn 0.67724406 -0.41739988 0.60590249
vn 0.29458443 -0.65301917 0.69770049
vn 0.67724406 -0.41739988 -0.60590249
vn 0.00000000 -1.00000000 0.00000000
vn 0.00000000 -1.00000000 0.00000000
vn 0.00000000 -1.00000000 0.00000000
vn 0.00000000 -1.00000000 0.00000000
vn 0.00000000 -1.00000000 0.00000000
vn 0.00000000 -1.00000000 0.00000000
vn 0.00000000 -1.00000000 0.00000000
vn 0.00000000 -1.00000000 0.00000000
vn 0.00000000 -1.00000000 0.00000000
vn 0.00000000 -1.00000000 0.00000000
vn 0.00000000 -1.00000000 0.00000000
vn 0.00000000 -1.00000000 0.00000000
vn 0.00000000 -1.00000000 0.00000000
vn 0.00000000 -1.00000000 0.00000000
vn 0.00000000 -1.00000000 0.00000000
vn 0.00000000 -1.00000000 0.00000000
vn 0.00000000 -1.00000000 0.00000000
vn 0.00000000 -1.00000000 0.00000000
vn 0.00000000 -1.00000000 0.00000000
vn 0.00000000 -1.00000000 0.00000000
vn 0.00000000 -1.00000000 0.00000000
vn 0.00000000 -1.00000000 0.00000000
vn 0.00000000 -1.00000000 0.00000000
vn 0.00000000 -1.00000000 0.00000000
vn 0.00000000 -1.00000000 0.00000000
vn 0.00000000 -1.00000000 0.00000000
vn 0.00000000 -1.00000000 0.00000000
vn 0.00000000 -1.00000000 0.00000000
vn 0.00000000 -1.00000000 0.00000000
vn 0.00000000 -1.00000000 0.00000000
vn 0.00000000 -1.00000000 0.00000000
vn 0.00000000 -1.00000000 0.00000000
vn 0.00000000 -1.00000000 0.00000000
vn 0.00000000 -1.00000000 0.00000000
vn 0.00000000 -1.00000000 0.00000000
vn 0.00000000 -1.00000000 0.00000000
vn 0.00000000 -1.00000000 0.00000000
vn 0.00000000 -1.00000000 0.00000000
vn 0.00000000 -1.00000000 0.00000000
vn 0.00000000 -1.00000000 0.00000000
vn 0.00000000 -1.00000000 0.00000000
vn 0.00000000 -1.00000000 0.00000000
vn 0.00000000 -1.00000000 0.00000000
vn 0.00000000 -1.00000000 0.00000000
vn 0.00000000 -1.00000000 0.00000000
vn 0.00000000 -1.00000000 0.00000000
vn 0.00000000 -1.00000000 0.00000000
vn 0.00000000 -1.00000000 0.00000000
vn 0.00000000 -1.00000000 0.00000000
vn 0.00000000 -1.00000000 0.00000000
vn 0.00000000 -1.00000000 0.00000000
vn 0.00000000 -1.00000000 0.00000000
vn 0.00000000 -1.00000000 0.00000000
vn 0.00000000 -1.00000000 0.00000000
vn 0.00000000 -1.00000000 0.00000000
vn 0.00000000 -1.00000000 0.00000000
vn 0.00000000 -1.00000000 0.00000000
vn 0.00000000 -1.00000000 0.00000000
vn 0.00000000 -1.00000000 0.00000000
vn 0.00000000 -1.00000000 0.00000000
vn 0.00000000 -1.00000000 0.00000000
vn 0.00000000 -1.00000000 0.00000000
vn 0.00000000 -1.00000000 0.00000000
vn 0.00000000 -1.00000000 0.00000000
vn 0.00000000 -1.00000000 0.00000000
vn 0.57735027 0.57735027 -0.57735027
vn -0.57735027 0.57735027 -0.57735027
vn 0.57735027 0.57735027 0.57735027
vn -0.57735027 0.57735027 0.57735027
vn 0.57735027 0.57735027 -0.57735027
vn 0.57735027 0.57735027 0.57735027
vn -0.57735027 0.57735027 0.57735027
vn -0.57735027 0.57735027 -0.57735027
vn -0.57735027 0.57735027 0.57735027
vn -0.57735027 0.57735027 -0.57735027
vn 0.57735027 0.57735027 -0.57735027
vn 0.57735027 0.57735027 0.57735027
vn 0.57735027 0.57735027 -0.57735027
vn -0.57735027 0.57735027 -0.57735027
vn 0.57735027 0.57735027 0.57735027
vn -0.57735027 0.57735027 0.57735027
vn -0.11241124 -0.43252359 -0.89458764
vn -0.07539675 -0.44048605 -0.89458782
vn -0.03783045 -0.44528808 -0.89458783
vn -0.00000062 -0.44689247 -0.89458768
vn 0.03782983 -0.44528812 -0.89458784
vn 0.07539975 -0.44048543 -0.89458787
vn 0.11241015 -0.43252414 -0.89458752
vn 0.14861988 -0.42145517 -0.89458799
vn 0.21905895 -0.30664770 -0.92627230
f 1//1 2//2 3//3
f 2//2 1//1 4//4
f 3//3 2//2 1//1
f 4//4 1//1 2//2
f 5//5 6//6 7//7
f 6//6 5//5 8//8
f 7//7 6//6 5//5
f 8//8 5//5 6//6
f 9//9 10//10 11//11
f 12//12 10//10 9//9
f 12//12 13//13 10//10
f 14//14 13//13 12//12
f 14//14 15//15 13//13
f 16//16 15//15 14//14
f 16//16 17//17 15//15
f 18//18 17//17 16//16
f 18//18 19//19 17//17
f 20//20 19//19 18//18
f 20//20 21//21 19//19
f 22//22 21//21 20//20
f 22//22 23//23 21//21
f 24//24 23//23 22//22
f 24//24 25//25 23//23
f 26//26 25//25 24//24
f 26//26 27//27 25//25
f 28//28 27//27 26//26
f 28//28 29//29 27//27
f 30//30 29//29 28//28
f 30//30 31//31 29//29
f 31//31 30//30 32//32
f 33//33 34//34 35//35
f 34//34 33//33 36//36
f 36//36 37//37 34//34
f 37//37 36//36 38//38
f 38//38 39//39 37//37
f 39//39 38//38 40//40
f 40//40 41//41 39//39
f 41//41 40//40 42//42
f 43//43 44//44 45//45
f 44//44 43//43 46//46
f 42//42 47//47 41//41
f 47//47 42//42 48//48
f 49//49 45//45 50//50
f 45//45 49//49 43//43
f 48//48 51//51 47//47
f 51//51 48//48 52//52
f 53//53 50//50 54//54
f 50//50 53//53 49//49
f 52//52 54//54 51//51
f 54//54 52//52 53//53
f 55//55 56//56 57//57
f 58//58 56//56 55//55
f 58//58 59//59 56//56
f 60//60 59//59 58//58
f 60//60 61//61 59//59
f 62//62 61//61 60//60
f 62//62 63//63 61//61
f 64//64 63//63 62//62
f 64//64 65//65 63//63
f 66//66 65//65 64//64
f 66//66 67//67 65//65
f 68//68 67//67 66//66
f 68//68 69//69 67//67
f 70//70 69//69 68//68
f 70//70 71//71 69//69
f 72//72 71//71 70//70
f 72//72 73//73 71//71
f 74//74 73//73 72//72
f 74//74 75//75 73//73
f 76//76 75//75 74//74
f 76//76 77//77 75//75
f 77//77 76//76 78//78
f 79//79 80//80 81//81
f 80//80 79//79 82//82
f 83//83 84//84 85//85
f 84//84 83//83 86//86
f 83//83 87//87 86//86
f 87//87 83//83 88//88
f 87//87 89//89 90//90
f 89//89 87//87 88//88
f 89//89 84//84 90//90
f 84//84 89//89 85//85
f 89//89 83//83 85//85
f 83//83 89//89 88//88
f 91//91 92//92 93//93
f 92//92 91//91 94//94
f 92//92 95//95 93//93
f 95//95 92//92 96//96
f 97//97 95//95 96//96
f 95//95 97//97 98//98
f 97//97 91//91 98//98
f 91//91 97//97 94//94
f 92//92 97//97 96//96
f 97//97 92//92 94//94
f 99//99 100//100 101//101
f 100//100 99//99 102//102
f 103//103 100//100 102//102
f 100//100 103//103 104//104
f 103//103 105//105 104//104
f 105//105 103//103 106//106
f 105//105 99//99 101//101
f 99//99 105//105 106//106
f 99//99 103//103 102//102
f 103//103 99//99 106//106
f 107//107 108//108 109//109
f 108//108 107//107 110//110
f 111//111 108//108 110//110
f 108//108 111//111 112//112
f 111//111 113//113 112//112
f 113//113 111//111 114//114
f 113//113 107//107 109//109
f 107//107 113//113 114//114
f 107//107 111//111 110//110
f 111//111 107//107 114//114
f 115//115 116//116 117//117
f 116//116 115//115 118//118
f 115//115 119//119 118//118
f 119//119 115//115 120//120
f 119//119 121//121 122//122
f 121//121 119//119 120//120
f 121//121 116//116 122//122
f 116//116 121//121 117//117
f 121//121 115//115 117//117
f 115//115 121//121 120//120
f 123//123 124//124 125//125
f 124//124 123//123 126//126
f 124//124 127//127 125//125
f 127//127 124//124 128//128
f 129//129 127//127 128//128
f 127//127 129//129 130//130
f 129//129 123//123 130//130
f 123//123 129//129 126//126
f 124//124 129//129 128//128
f 129//129 124//124 126//126
f 131//131 132//132 133//133
f 132//132 131//131 134//134
f 132//132 135//135 133//133
f 135//135 132//132 136//136
f 137//137 135//135 136//136
f 135//135 137//137 138//138
f 137//137 131//131 138//138
f 131//131 137//137 134//134
f 132//132 137//137 136//136
f 137//137 132//132 134//134
f 139//139 140//140 141//141
f 140//140 139//139 142//142
f 140//140 143//143 141//141
f 143//143 140//140 144//144
f 145//145 143//143 144//144
f 143//143 145//145 146//146
f 145//145 139//139 146//146
f 139//139 145//145 142//142
f 140//140 145//145 144//144
f 145//145 140//140 142//142
f 147//147 148//148 149//149
f 148//148 147//147 150//150
f 148//148 151//151 149//149
f 151//151 148//148 152//152
f 153//153 151//151 152//152
f 151//151 153//153 154//154
f 153//153 147//147 154//154
f 147//147 153//153 150//150
f 148//148 153//153 152//152
f 153//153 148//148 150//150
f 155//155 156//156 157//157
f 156//156 155//155 158//158
f 155//155 159//159 158//158
f 159//159 155//155 160//160
f 159//159 161//161 162//162
f 161//161 159//159 160//160
f 161//161 156//156 162//162
f 156//156 161//161 157//157
f 161//161 155//155 157//157
f 155//155 161//161 160//160
f 163//163 164//164 165//165
f 164//164 163//163 166//166
f 164//164 167//167 168//168
f 167//167 164//164 166//166
f 167//167 169//169 168//168
f 169//169 167//167 170//170
f 163//163 169//169 170//170
f 169//169 163//163 165//165
f 167//167 163//163 170//170
f 163//163 167//167 166//166
f 171//171 172//172 173//173
f 172//172 171//171 174//174
f 172//172 175//175 176//176
f 175//175 172//172 174//174
f 175//175 177//177 176//176
f 177//177 175//175 178//178
f 171//171 177//177 178//178
f 177//177 171//171 173//173
f 175//175 171//171 178//178
f 171//171 175//175 174//174
f 179//179 180//180 181//181
f 180//180 179//179 182//182
f 183//183 180//180 182//182
f 180//180 183//183 184//184
f 183//183 185//185 184//184
f 185//185 183//183 186//186
f 185//185 179//179 181//181
f 179//179 185//185 186//186
f 179//179 183//183 182//182
f 183//183 179//179 186//186
f 187//187 188//188 189//189
f 188//188 187//187 190//190
f 188//188 191//191 189//189
f 191//191 188//188 192//192
f 193//193 191//191 192//192
f 191//191 193//193 194//194
f 193//193 187//187 194//194
f 187//187 193//193 190//190
f 188//188 193//193 192//192
f 193//193 188//188 190//190
f 195//195 196//196 197//197
f 196//196 195//195 198//198
f 195//195 199//199 198//198
f 199//199 195//195 200//200
f 199//199 201//201 202//202
f 201//201 199//199 200//200
f 201//201 196//196 202//202
f 196//196 201//201 197//197
f 201//201 195//195 197//197
f 195//195 201//201 200//200
f 203//203 204//204 205//205
f 204//204 203//203 206//206
f 207//207 204//204 206//206
f 204//204 207//207 208//208
f 207//207 209//209 208//208
f 209//209 207//207 210//210
f 209//209 203//203 205//205
f 203//203 209//209 210//210
f 203//203 207//207 206//206
f 207//207 203//203 210//210
f 211//211 212//212 213//213
f 212//212 211//211 214//214
f 212//212 215//215 216//216
f 215//215 212//212 214//214
f 215//215 217//217 216//216
f 217//217 215//215 218//218
f 211//211 217//217 218//218
f 217//217 211//211 213//213
f 215//215 211//211 218//218
f 211//211 215//215 214//214
f 219//219 220//220 221//221
f 220//220 219//219 222//222
f 223//223 220//220 222//222
f 220//220 223//223 224//224
f 223//223 225//225 224//224
f 225//225 223//223 226//226
f 225//225 219//219 221//221
f 219//219 225//225 226//226
f 219//219 223//223 222//222
f 223//223 219//219 226//226
f 227//227 228//228 229//229
f 228//228 227//227 230//230
f 228//228 231//231 232//232
f 231//231 228//228 230//230
f 231//231 233//233 232//232
f 233//233 231//231 234//234
f 227//227 233//233 234//234
f 233//233 227//227 229//229
f 231//231 227//227 234//234
f 227//227 231//231 230//230
f 235//235 236//236 237//237
f 236//236 235//235 238//238
f 236//236 239//239 240//240
f 239//239 236//236 238//238
f 239//239 241//241 240//240
f 241//241 239//239 242//242
f 235//235 241//241 242//242
f 241//241 235//235 237//237
f 239//239 235//235 242//242
f 235//235 239//239 238//238
f 243//243 244//244 245//245
f 246//246 243//243 245//245
f 243//243 246//246 247//247
f 247//247 246//246 248//248
f 80//80 249//249 250//250
f 249//249 80//80 82//82
f 80//80 251//251 81//81
f 251//251 80//80 250//250
f 249//249 79//79 252//252
f 79//79 249//249 82//82
f 252//252 81//81 251//251
f 81//81 252//252 79//79
f 253//253 254//254 255//255
f 256//256 254//254 253//253
f 254//254 256//256 257//257
f 258//258 251//251 259//259
f 258//258 252//252 251//251
f 252//252 255//255 249//249
f 255//255 252//252 258//258
f 250//250 259//259 251//251
f 249//249 259//259 250//250
f 249//249 254//254 259//259
f 254//254 249//249 255//255
f 260//260 255//255 258//258
f 255//255 260//260 253//253
f 261//261 262//262 263//263
f 262//262 261//261 264//264
f 265//265 48//48 42//42
f 48//48 265//265 266//266
f 266//266 52//52 48//48
f 52//52 266//266 267//267
f 268//268 42//42 40//40
f 42//42 268//268 265//265
f 269//269 270//270 271//271
f 270//270 269//269 272//272
f 273//273 274//274 275//275
f 274//274 273//273 276//276
f 277//277 278//278 279//279
f 277//277 280//280 278//278
f 280//280 276//276 273//273
f 280//280 281//281 276//276
f 280//280 282//282 281//281
f 277//277 282//282 280//280
f 277//277 283//283 282//282
f 283//283 272//272 269//269
f 283//283 284//284 272//272
f 283//283 285//285 284//284
f 285//285 283//283 277//277
f 275//275 279//279 278//278
f 274//274 279//279 275//275
f 286//286 279//279 274//274
f 281//281 279//279 286//286
f 271//271 281//281 282//282
f 270//270 281//281 271//271
f 270//270 279//279 281//281
f 287//287 279//279 270//270
f 284//284 279//279 287//287
f 284//284 288//288 279//279
f 288//288 284//284 285//285
f 279//279 289//289 277//277
f 289//289 279//279 290//290
f 289//289 285//285 277//277
f 285//285 289//289 291//291
f 267//267 53//53 52//52
f 53//53 267//267 292//292
f 293//293 40//40 38//38
f 40//40 293//293 268//268
f 294//294 279//279 288//288
f 294//294 290//290 279//279
f 294//294 295//295 290//290
f 296//296 295//295 294//294
f 295//295 296//296 297//297
f 243//243 295//295 244//244
f 243//243 289//289 295//295
f 243//243 248//248 289//289
f 248//248 243//243 247//247
f 295//295 289//289 290//290
f 289//289 248//248 291//291
f 292//292 49//49 53//53
f 49//49 292//292 298//298
f 299//299 38//38 36//36
f 38//38 299//299 293//293
f 244//244 300//300 245//245
f 244//244 301//301 300//300
f 244//244 302//302 301//301
f 244//244 303//303 302//302
f 244//244 304//304 303//303
f 244//244 305//305 304//304
f 295//295 305//305 244//244
f 295//295 306//306 305//305
f 295//295 307//307 306//306
f 295//295 308//308 307//307
f 295//295 309//309 308//308
f 309//309 295//295 297//297
f 56//56 11//11 57//57
f 56//56 9//9 11//11
f 59//59 9//9 56//56
f 59//59 12//12 9//9
f 61//61 12//12 59//59
f 61//61 14//14 12//12
f 63//63 14//14 61//61
f 63//63 16//16 14//14
f 65//65 16//16 63//63
f 65//65 18//18 16//16
f 67//67 18//18 65//65
f 67//67 20//20 18//18
f 69//69 20//20 67//67
f 69//69 22//22 20//20
f 71//71 22//22 69//69
f 71//71 24//24 22//22
f 73//73 24//24 71//71
f 73//73 26//26 24//24
f 75//75 26//26 73//73
f 75//75 28//28 26//26
f 77//77 28//28 75//75
f 77//77 30//30 28//28
f 78//78 30//30 77//77
f 30//30 78//78 32//32
f 105//105 108//108 104//104
f 108//108 105//105 109//109
f 91//91 100//100 98//98
f 100//100 91//91 101//101
f 87//87 95//95 86//86
f 95//95 87//87 93//93
f 236//236 84//84 237//237
f 57//57 84//84 236//236
f 11//11 84//84 57//57
f 10//10 84//84 11//11
f 13//13 84//84 10//10
f 15//15 84//84 13//13
f 17//17 84//84 15//15
f 19//19 84//84 17//17
f 21//21 84//84 19//19
f 23//23 84//84 21//21
f 25//25 84//84 23//23
f 27//27 84//84 25//25
f 29//29 84//84 27//27
f 31//31 84//84 29//29
f 229//229 32//32 233//233
f 31//31 90//90 84//84
f 32//32 90//90 31//31
f 229//229 90//90 32//32
f 90//90 93//93 87//87
f 90//90 91//91 93//93
f 90//90 101//101 91//91
f 90//90 105//105 101//101
f 90//90 109//109 105//105
f 90//90 113//113 109//109
f 90//90 228//228 113//113
f 228//228 90//90 229//229
f 245//245 241//241 246//246
f 245//245 240//240 241//241
f 240//240 57//57 236//236
f 240//240 55//55 57//57
f 240//240 58//58 55//55
f 240//240 60//60 58//58
f 240//240 62//62 60//60
f 240//240 64//64 62//62
f 240//240 66//66 64//64
f 240//240 68//68 66//66
f 240//240 70//70 68//68
f 240//240 72//72 70//70
f 240//240 74//74 72//72
f 240//240 76//76 74//74
f 240//240 78//78 76//76
f 78//78 233//233 32//32
f 240//240 233//233 78//78
f 245//245 233//233 240//240
f 245//245 232//232 233//233
f 232//232 300//300 228//228
f 300//300 232//232 245//245
f 237//237 246//246 241//241
f 84//84 246//246 237//237
f 86//86 246//246 84//84
f 95//95 246//246 86//86
f 98//98 246//246 95//95
f 100//100 246//246 98//98
f 104//104 246//246 100//100
f 108//108 246//246 104//104
f 112//112 246//246 108//108
f 113//113 246//246 112//112
f 300//300 113//113 228//228
f 113//113 310//310 246//246
f 310//310 113//113 300//300
f 298//298 43//43 49//49
f 43//43 298//298 311//311
f 50//50 312//312 313//313
f 312//312 50//50 45//45
f 54//54 313//313 314//314
f 313//313 54//54 50//50
f 51//51 314//314 315//315
f 314//314 51//51 54//54
f 47//47 315//315 316//316
f 315//315 47//47 51//51
f 41//41 316//316 317//317
f 316//316 41//41 47//47
f 39//39 317//317 318//318
f 317//317 39//39 41//41
f 37//37 318//318 319//319
f 318//318 37//37 39//39
f 34//34 319//319 320//320
f 319//319 34//34 37//37
f 321//321 35//35 320//320
f 321//321 33//33 35//35
f 322//322 33//33 321//321
f 322//322 36//36 33//33
f 36//36 322//322 299//299
f 320//320 35//35 34//34
f 322//322 323//323 324//324
f 323//323 322//322 321//321
f 309//309 323//323 325//325
f 326//326 323//323 309//309
f 296//296 323//323 326//326
f 323//323 296//296 324//324
f 308//308 325//325 327//327
f 325//325 308//308 309//309
f 307//307 327//327 328//328
f 327//327 307//307 308//308
f 306//306 328//328 329//329
f 328//328 306//306 307//307
f 305//305 329//329 330//330
f 329//329 305//305 306//306
f 304//304 330//330 331//331
f 330//330 304//304 305//305
f 303//303 331//331 332//332
f 331//331 303//303 304//304
f 302//302 332//332 333//333
f 332//332 302//302 303//303
f 334//334 302//302 333//333
f 302//302 334//334 301//301
f 300//300 334//334 335//335
f 334//334 300//300 301//301
f 336//336 300//300 335//335
f 337//337 300//300 336//336
f 300//300 337//337 310//310
f 43//43 311//311 46//46
f 45//45 253//253 312//312
f 44//44 253//253 45//45
f 46//46 253//253 44//44
f 311//311 253//253 46//46
f 253//253 311//311 256//256
f 338//338 336//336 339//339
f 336//336 338//338 337//337
f 331//331 220//220 332//332
f 330//330 220//220 331//331
f 330//330 221//221 220//220
f 221//221 329//329 225//225
f 329//329 221//221 330//330
f 333//333 217//217 334//334
f 332//332 217//217 333//333
f 220//220 217//217 332//332
f 224//224 217//217 220//220
f 225//225 217//217 224//224
f 328//328 225//225 329//329
f 225//225 216//216 217//217
f 328//328 216//216 225//225
f 216//216 205//205 212//212
f 328//328 205//205 216//216
f 205//205 202//202 209//209
f 205//205 199//199 202//202
f 205//205 189//189 199//199
f 205//205 187//187 189//189
f 205//205 181//181 187//187
f 205//205 185//185 181//181
f 205//205 176//176 185//185
f 205//205 172//172 176//176
f 205//205 168//168 172//172
f 205//205 164//164 168//168
f 205//205 162//162 164//164
f 205//205 159//159 162//162
f 205//205 149//149 159//159
f 205//205 147//147 149//149
f 205//205 141//141 147//147
f 205//205 139//139 141//141
f 205//205 133//133 139//139
f 205//205 131//131 133//133
f 205//205 327//327 131//131
f 327//327 205//205 328//328
f 139//139 135//135 146//146
f 135//135 139//139 133//133
f 147//147 143//143 154//154
f 143//143 147//147 141//141
f 159//159 151//151 158//158
f 151//151 159//159 149//149
f 164//164 156//156 165//165
f 156//156 164//164 162//162
f 172//172 169//169 173//173
f 169//169 172//172 168//168
f 185//185 177//177 184//184
f 177//177 185//185 176//176
f 187//187 180//180 194//194
f 180//180 187//187 181//181
f 199//199 191//191 198//198
f 191//191 199//199 189//189
f 209//209 196//196 208//208
f 196//196 209//209 202//202
f 336//336 340//340 339//339
f 336//336 258//258 340//340
f 335//335 258//258 336//336
f 335//335 260//260 258//258
f 260//260 204//204 253//253
f 335//335 204//204 260//260
f 334//334 204//204 335//335
f 217//217 204//204 334//334
f 213//213 204//204 217//217
f 212//212 204//204 213//213
f 204//204 212//212 205//205
f 208//208 253//253 204//204
f 196//196 253//253 208//208
f 198//198 253//253 196//196
f 191//191 253//253 198//198
f 194//194 253//253 191//191
f 180//180 253//253 194//194
f 184//184 253//253 180//180
f 177//177 253//253 184//184
f 173//173 253//253 177//177
f 169//169 253//253 173//173
f 165//165 253//253 169//169
f 156//156 253//253 165//165
f 158//158 253//253 156//156
f 151//151 253//253 158//158
f 154//154 253//253 151//151
f 143//143 253//253 154//154
f 146//146 253//253 143//143
f 135//135 253//253 146//146
f 138//138 253//253 135//135
f 138//138 312//312 253//253
f 138//138 127//127 312//312
f 138//138 125//125 127//127
f 125//125 131//131 123//123
f 131//131 125//125 138//138
f 130//130 312//312 127//127
f 130//130 313//313 312//312
f 130//130 314//314 313//313
f 130//130 116//116 314//314
f 130//130 122//122 116//116
f 122//122 317//317 119//119
f 122//122 318//318 317//317
f 123//123 122//122 130//130
f 123//123 318//318 122//122
f 131//131 318//318 123//123
f 131//131 319//319 318//318
f 327//327 319//319 131//131
f 325//325 319//319 327//327
f 325//325 320//320 319//319
f 323//323 320//320 325//325
f 320//320 323//323 321//321
f 118//118 314//314 116//116
f 118//118 315//315 314//314
f 118//118 316//316 315//315
f 119//119 316//316 118//118
f 316//316 119//119 317//317
f 341//341 263//263 342//342
f 263//263 341//341 261//261
f 339//339 343//343 338//338
f 340//340 343//343 339//339
f 343//343 340//340 344//344
f 342//342 338//338 343//343
f 263//263 338//338 342//342
f 262//262 338//338 263//263
f 264//264 338//338 262//262
f 345//345 338//338 264//264
f 338//338 345//345 346//346
f 347//347 348//348 349//349
f 348//348 347//347 350//350
f 257//257 349//349 254//254
f 349//349 257//257 347//347
f 351//351 352//352 353//353
f 352//352 351//351 354//354
f 258//258 344//344 340//340
f 258//258 341//341 344//344
f 258//258 261//261 341//341
f 258//258 355//355 261//261
f 258//258 356//356 355//355
f 258//258 357//357 356//356
f 258//258 358//358 357//357
f 258//258 359//359 358//358
f 258//258 360//360 359//359
f 361//361 362//362 363//363
f 360//360 362//362 361//361
f 258//258 362//362 360//360
f 258//258 364//364 362//362
f 364//364 365//365 366//366
f 364//364 367//367 365//365
f 364//364 368//368 367//367
f 364//364 369//369 368//368
f 369//369 370//370 371//371
f 364//364 370//370 369//369
f 258//258 370//370 364//364
f 258//258 372//372 370//370
f 372//372 373//373 374//374
f 258//258 373//373 372//372
f 258//258 375//375 373//373
f 375//375 353//353 376//376
f 258//258 353//353 375//375
f 258//258 377//377 353//353
f 351//351 378//378 354//354
f 351//351 259//259 378//378
f 377//377 259//259 351//351
f 259//259 377//377 258//258
f 379//379 261//261 355//355
f 380//380 261//261 379//379
f 381//381 261//261 380//380
f 381//381 264//264 261//261
f 382//382 264//264 381//381
f 383//383 264//264 382//382
f 384//384 264//264 383//383
f 385//385 264//264 384//384
f 386//386 264//264 385//385
f 387//387 264//264 386//386
f 388//388 264//264 387//387
f 389//389 264//264 388//388
f 390//390 389//389 391//391
f 390//390 264//264 389//389
f 374//374 264//264 390//390
f 392//392 374//374 373//373
f 392//392 264//264 374//374
f 376//376 264//264 392//392
f 353//353 264//264 376//376
f 352//352 264//264 353//353
f 393//393 264//264 352//352
f 378//378 264//264 393//393
f 378//378 345//345 264//264
f 345//345 378//378 259//259
f 394//394 395//395 396//396
f 397//397 395//395 394//394
f 397//397 398//398 395//395
f 399//399 398//398 397//397
f 399//399 400//400 398//398
f 401//401 400//400 399//399
f 401//401 402//402 400//400
f 361//361 402//402 401//401
f 402//402 361//361 363//363
f 403//403 363//363 362//362
f 403//403 404//404 363//363
f 366//366 404//404 403//403
f 366//366 405//405 404//404
f 365//365 405//405 366//366
f 406//406 405//405 365//365
f 406//406 407//407 405//405
f 408//408 407//407 406//406
f 408//408 409//409 407//407
f 410//410 409//409 408//408
f 410//410 411//411 409//409
f 412//412 411//411 410//410
f 412//412 413//413 411//411
f 413//413 412//412 414//414
f 370//370 415//415 371//371
f 370//370 391//391 415//415
f 391//391 370//370 390//390
f 348//348 346//346 345//345
f 346//346 348//348 350//350
f 345//345 349//349 348//348
f 259//259 349//349 345//345
f 349//349 259//259 254//254
f 273//273 416//416 280//280
f 416//416 273//273 417//417
f 278//278 416//416 418//418
f 416//416 278//278 280//280
f 419//419 278//278 418//418
f 278//278 419//419 275//275
f 273//273 419//419 417//417
f 419//419 273//273 275//275
f 416//416 419//419 418//418
f 419//419 416//416 417//417
f 274//274 420//420 421//421
f 420//420 274//274 276//276
f 422//422 274//274 421//421
f 274//274 422//422 286//286
f 281//281 422//422 423//423
f 422//422 281//281 286//286
f 281//281 420//420 276//276
f 420//420 281//281 423//423
f 420//420 422//422 421//421
f 422//422 420//420 423//423
f 284//284 424//424 425//425
f 424//424 284//284 287//287
f 284//284 426//426 272//272
f 426//426 284//284 425//425
f 270//270 426//426 427//427
f 426//426 270//270 272//272
f 424//424 270//270 427//427
f 270//270 424//424 287//287
f 426//426 424//424 427//427
f 424//424 426//426 425//425
f 269//269 428//428 283//283
f 428//428 269//269 429//429
f 282//282 428//428 430//430
f 428//428 282//282 283//283
f 431//431 282//282 430//430
f 282//282 431//431 271//271
f 269//269 431//431 429//429
f 431//431 269//269 271//271
f 428//428 431//431 430//430
f 431//431 428//428 429//429
f 344//344 342//342 343//343
f 342//342 344//344 341//341
f 294//294 285//285 291//291
f 285//285 294//294 288//288
f 432//432 300//300 301//301
f 300//300 432//432 310//310
f 433//433 301//301 302//302
f 301//301 433//433 432//432
f 434//434 302//302 303//303
f 302//302 434//434 433//433
f 435//435 303//303 304//304
f 303//303 435//435 434//434
f 436//436 304//304 305//305
f 304//304 436//436 435//435
f 437//437 305//305 306//306
f 305//305 437//437 436//436
f 438//438 306//306 307//307
f 306//306 438//438 437//437
f 439//439 307//307 308//308
f 307//307 439//439 438//438
f 326//326 308//308 309//309
f 308//308 326//326 439//439
f 310//310 248//248 246//246
f 310//310 291//291 248//248
f 432//432 291//291 310//310
f 433//433 291//291 432//432
f 434//434 291//291 433//433
f 435//435 291//291 434//434
f 436//436 291//291 435//435
f 437//437 291//291 436//436
f 437//437 294//294 291//291
f 438//438 294//294 437//437
f 439//439 294//294 438//438
f 326//326 294//294 439//439
f 294//294 326//326 296//296
f 296//296 309//309 297//297
f 309//309 296//296 326//326
f 440//440 345//345 259//259
f 345//345 440//440 346//346
f 254//254 440//440 259//259
f 440//440 254//254 257//257
f 346//346 337//337 338//338
f 440//440 337//337 346//346
f 257//257 337//337 440//440
f 257//257 310//310 337//337
f 256//256 310//310 257//257
f 311//311 310//310 256//256
f 311//311 432//432 310//310
f 311//311 433//433 432//432
f 298//298 433//433 311//311
f 298//298 434//434 433//433
f 292//292 434//434 298//298
f 267//267 434//434 292//292
f 267//267 435//435 434//434
f 266//266 435//435 267//267
f 266//266 436//436 435//435
f 265//265 436//436 266//266
f 265//265 437//437 436//436
f 268//268 437//437 265//265
f 268//268 438//438 437//437
f 268//268 439//439 438//438
f 293//293 439//439 268//268
f 293//293 326//326 439//439
f 299//299 326//326 293//293
f 299//299 296//296 326//326
f 322//322 296//296 299//299
f 296//296 322//322 324//324
f 347//347 346//346 350//350
f 347//347 440//440 346//346
f 440//440 347//347 257//257
f 353//353 377//377 351//351
f 354//354 393//393 352//352
f 393//393 354//354 378//378
f 372//372 390//390 370//370
f 390//390 372//372 374//374
f 375//375 392//392 373//373
f 392//392 375//375 376//376
f 364//364 403//403 362//362
f 403//403 364//364 366//366
f 367//367 406//406 365//365
f 368//368 406//406 367//367
f 368//368 408//408 406//406
f 368//368 410//410 408//408
f 368//368 412//412 410//410
f 369//369 412//412 368//368
f 369//369 414//414 412//412
f 414//414 369//369 371//371
f 356//356 379//379 355//355
f 357//357 379//379 356//356
f 357//357 380//380 379//379
f 357//357 396//396 380//380
f 358//358 396//396 357//357
f 358//358 394//394 396//396
f 358//358 397//397 394//394
f 358//358 399//399 397//397
f 359//359 399//399 358//358
f 359//359 401//401 399//399
f 360//360 401//401 359//359
f 401//401 360//360 361//361
f 396//396 381//381 380//380
f 395//395 381//381 396//396
f 398//398 381//381 395//395
f 400//400 381//381 398//398
f 400//400 382//382 381//381
f 402//402 382//382 400//400
f 402//402 383//383 382//382
f 363//363 383//383 402//402
f 404//404 383//383 363//363
f 404//404 384//384 383//383
f 405//405 384//384 404//404
f 405//405 385//385 384//384
f 407//407 385//385 405//405
f 407//407 386//386 385//385
f 409//409 386//386 407//407
f 411//411 386//386 409//409
f 413//413 386//386 411//411
f 413//413 387//387 386//386
f 414//414 387//387 413//413
f 371//371 387//387 414//414
f 371//371 388//388 387//387
f 415//415 388//388 371//371
f 415//415 389//389 388//388
f 389//389 415//415 391//391