# https://github.com/mikedh/trimesh
v 0.08821800 -0.03771400 -0.02389400
v 0.08821800 0.03106900 -0.02389400
v 0.09505900 -0.00332200 -0.02389400
v 0.06873700 -0.06687000 -0.02389400
v 0.06873700 0.06022600 -0.02389400
v 0.03958100 -0.08635200 -0.02389400
v 0.03958100 0.07970700 -0.02389400
v 0.00518900 0.08654800 -0.02389400
v 0.00518900 -0.09319300 -0.02389400
v -0.02920300 -0.08635200 -0.02389400
v -0.02920300 0.07970700 -0.02389400
v -0.05835900 -0.06687000 -0.02389400
v -0.05835900 0.06022600 -0.02389400
v -0.07784000 -0.03771400 -0.02389400
v -0.07784000 0.03106900 -0.02389400
v -0.08468100 -0.00332200 -0.02389400
v 0.00518900 0.11650500 0.02104100
v -0.04066700 0.10738400 -0.02389400
v -0.04066700 0.10738400 0.02104100
v 0.00518900 0.11650500 -0.02389400
v -0.07954200 0.08140900 0.02104100
v -0.07954200 0.08140900 -0.02389400
v -0.10551700 0.04253300 -0.02389400
v -0.10551700 0.04253300 0.02104100
v -0.11463800 -0.00332200 -0.02389400
v -0.11463800 -0.00332200 0.02104100
v -0.10551700 -0.04917800 -0.02389400
v -0.10551700 -0.04917800 0.02104100
v -0.07954200 -0.08805300 -0.02389400
v -0.07954200 -0.08805300 0.02104100
v -0.04066700 -0.11402800 0.02104100
v -0.04066700 -0.11402800 -0.02389400
v 0.00518900 -0.12314900 -0.02389400
v 0.00518900 -0.12314900 0.02104100
v 0.05104400 -0.11402800 0.02104100
v 0.05104400 -0.11402800 -0.02389400
v 0.08992000 -0.08805300 0.02104100
v 0.08992000 -0.08805300 -0.02389400
v 0.11589500 -0.04917800 0.02104100
v 0.11589500 -0.04917800 -0.02389400
v 0.08992000 0.08140900 0.02104100
v 0.05104400 0.10738400 -0.02389400
v 0.05104400 0.10738400 0.02104100
v 0.08992000 0.08140900 -0.02389400
v 0.12501600 -0.00332200 0.02104100
v 0.12501600 -0.00332200 -0.02389400
v 0.11589500 0.04253300 0.02104100
v 0.02765700 -0.00332200 0.02104100
v 0.02594700 0.00527500 0.02104100
v 0.02107600 0.01256400 0.02104100
v 0.01378700 0.01743500 0.02104100
v 0.00518900 0.01914500 0.02104100
v -0.00340900 0.01743500 0.02104100
v -0.01069800 0.01256400 0.02104100
v -0.01556800 0.00527500 0.02104100
v -0.01727900 -0.00332200 0.02104100
v 0.02594700 -0.01192000 0.02104100
v 0.02107600 -0.01920900 0.02104100
v 0.01378700 -0.02407900 0.02104100
v 0.00518900 -0.02579000 0.02104100
v -0.00340900 -0.02407900 0.02104100
v -0.01069800 -0.01920900 0.02104100
v -0.01556800 -0.01192000 0.02104100
v 0.11589500 0.04253300 -0.02389400
v -0.01069800 0.01256400 0.03602000
v -0.00340900 0.01743500 0.03602000
v 0.00518900 0.01914500 0.03602000
v 0.01378700 0.01743500 0.03602000
v 0.02107600 0.01256400 0.03602000
v 0.02594700 0.00527500 0.03602000
v 0.02765700 -0.00332200 0.03602000
v 0.02594700 -0.01192000 0.03602000
v 0.02107600 -0.01920900 0.03602000
v 0.01378700 -0.02407900 0.03602000
v 0.00518900 -0.02579000 0.03602000
v -0.00340900 -0.02407900 0.03602000
v -0.01069800 -0.01920900 0.03602000
v -0.01556800 -0.01192000 0.03602000
v -0.01556800 0.00527500 0.03602000
v -0.01727900 -0.00332200 0.03602000
v -0.11996100 0.08508400 -0.02389400
v -0.12644700 0.08133900 0.02104100
v -0.11996100 0.08508400 0.02104100
v -0.12644700 0.08133900 -0.02389400
v -0.11089700 0.03942700 -0.02389400
v -0.11089700 0.03942700 0.02104100
vn 0.00000000 0.00000000 -1.00000000
vn 0.00000000 0.00000000 -1.00000000
vn 0.00000000 0.00000000 -1.00000000
vn 0.00000000 0.00000000 -1.00000000
vn 0.00000000 0.00000000 -1.00000000
vn 0.00000000 0.00000000 -1.00000000
vn 0.00000000 0.00000000 -1.00000000
vn 0.00000000 0.00000000 -1.00000000
vn 0.00000000 0.00000000 -1.00000000
vn 0.00000000 0.00000000 -1.00000000
vn 0.00000000 0.00000000 -1.00000000
vn 0.00000000 0.00000000 -1.00000000
vn 0.00000000 0.00000000 -1.00000000
vn 0.00000000 0.00000000 -1.00000000
vn 0.00000000 0.00000000 -1.00000000
vn 0.00000000 0.00000000 -1.00000000
vn 0.00000156 0.74620179 0.66571982
vn -0.28555427 0.68940335 -0.66571900
vn -0.28555427 0.68940335 0.66571900
vn 0.00000156 0.74620179 -0.66571982
vn -0.52764978 0.52764351 0.66571618
vn -0.52764978 0.52764351 -0.66571618
vn -0.12574804 0.07091642 -0.98952428
vn -0.12574804 0.07091642 0.98952428
vn -0.74620179 0.00000156 -0.66571982
vn -0.74620179 0.00000156 0.66571982
vn -0.68940335 -0.28555427 -0.66571900
vn -0.68940335 -0.28555427 0.66571900
vn -0.52764591 -0.52764591 -0.66571735
vn -0.52764591 -0.52764591 0.66571735
vn -0.28555427 -0.68940335 0.66571900
vn -0.28555427 -0.68940335 -0.66571900
vn 0.00000156 -0.74620179 -0.66571982
vn 0.00000156 -0.74620179 0.66571982
vn 0.28555107 -0.68940315 0.66572057
vn 0.28555107 -0.68940315 -0.66572057
vn 0.52764351 -0.52764978 0.66571618
vn 0.52764351 -0.52764978 -0.66571618
vn 0.68940335 -0.28555427 0.66571900
vn 0.68940335 -0.28555427 -0.66571900
vn 0.52764738 0.52764738 0.66571502
vn 0.28555107 0.68940315 -0.66572057
vn 0.28555107 0.68940315 0.66572057
vn 0.52764738 0.52764738 -0.66571502
vn 0.74620179 0.00000156 0.66571982
vn 0.74620179 0.00000156 -0.66571982
vn 0.68940315 0.28555107 0.66572057
vn 0.65714607 0.00000731 0.75376325
vn 0.60710359 0.25149035 0.75377572
vn 0.46468145 0.46468145 0.75375215
vn 0.25148238 0.60710345 0.75377849
vn -0.00000000 0.65714925 0.75376048
vn -0.25148238 0.60710345 0.75377849
vn -0.46469391 0.46464983 0.75376396
vn -0.60712871 0.25150682 0.75374999
vn -0.65711412 0.00000732 0.75379110
vn 0.60710345 -0.25148238 0.75377849
vn 0.46464983 -0.46469391 0.75376396
vn 0.25149885 -0.60712858 0.75375276
vn 0.00000000 -0.65711730 0.75378833
vn -0.25149885 -0.60712858 0.75375276
vn -0.46466230 -0.46466230 0.75377576
vn -0.60712858 -0.25149885 0.75375276
vn 0.68940315 0.28555107 -0.66572057
vn -0.52766824 0.52761820 0.66572161
vn -0.28557389 0.68940374 0.66571017
vn 0.00000000 0.74619776 0.66572434
vn 0.28557389 0.68940374 0.66571017
vn 0.52763736 0.52763736 0.66573090
vn 0.68939877 0.28558082 0.66571235
vn 0.74619971 0.00000830 0.66572216
vn 0.68940374 -0.28557389 0.66571017
vn 0.52761820 -0.52766824 0.66572161
vn 0.28557285 -0.68938462 0.66573042
vn -0.00000000 -0.74621732 0.66570242
vn -0.28557285 -0.68938462 0.66573042
vn -0.52764909 -0.52764909 0.66571231
vn -0.68938462 -0.28557285 0.66573042
vn -0.68937964 0.28557978 0.66573261
vn -0.74621926 0.00000831 0.66570024
vn 0.28996718 0.77046277 -0.56772014
vn -0.76181153 0.27458703 0.58672408
vn 0.28996718 0.77046277 0.56772014
vn -0.76181153 0.27458703 -0.58672408
vn -0.27886133 -0.77360277 -0.56901240
vn -0.27886133 -0.77360277 0.56901240
f 1//1 2//2 3//3
f 4//4 2//2 1//1
f 4//4 5//5 2//2
f 6//6 5//5 4//4
f 6//6 7//7 5//5
f 6//6 8//8 7//7
f 9//9 8//8 6//6
f 10//10 8//8 9//9
f 10//10 11//11 8//8
f 12//12 11//11 10//10
f 12//12 13//13 11//11
f 14//14 13//13 12//12
f 14//14 15//15 13//13
f 15//15 14//14 16//16
f 17//17 18//18 19//19
f 18//18 17//17 20//20
f 18//18 21//21 19//19
f 21//21 18//18 22//22
f 23//23 21//21 22//22
f 21//21 23//23 24//24
f 25//25 24//24 23//23
f 24//24 25//25 26//26
f 27//27 26//26 25//25
f 26//26 27//27 28//28
f 29//29 28//28 27//27
f 28//28 29//29 30//30
f 29//29 31//31 30//30
f 31//31 29//29 32//32
f 31//31 33//33 34//34
f 33//33 31//31 32//32
f 33//33 35//35 34//34
f 35//35 33//33 36//36
f 36//36 37//37 35//35
f 37//37 36//36 38//38
f 39//39 38//38 40//40
f 38//38 39//39 37//37
f 41//41 42//42 43//43
f 42//42 41//41 44//44
f 42//42 17//17 43//43
f 17//17 42//42 20//20
f 45//45 40//40 46//46
f 40//40 45//45 39//39
f 47//47 39//39 45//45
f 41//41 39//39 47//47
f 41//41 37//37 39//39
f 43//43 37//37 41//41
f 43//43 35//35 37//37
f 43//43 48//48 35//35
f 43//43 49//49 48//48
f 43//43 50//50 49//49
f 43//43 51//51 50//50
f 17//17 51//51 43//43
f 17//17 52//52 51//51
f 17//17 53//53 52//52
f 17//17 54//54 53//53
f 17//17 55//55 54//54
f 17//17 56//56 55//55
f 56//56 17//17 19//19
f 57//57 35//35 48//48
f 58//58 35//35 57//57
f 59//59 35//35 58//58
f 59//59 34//34 35//35
f 60//60 34//34 59//59
f 61//61 34//34 60//60
f 62//62 34//34 61//61
f 63//63 34//34 62//62
f 56//56 34//34 63//63
f 19//19 34//34 56//56
f 19//19 31//31 34//34
f 21//21 31//31 19//19
f 21//21 30//30 31//31
f 24//24 30//30 21//21
f 24//24 28//28 30//30
f 28//28 24//24 26//26
f 41//41 64//64 44//44
f 64//64 41//41 47//47
f 40//40 64//64 46//46
f 40//40 3//3 64//64
f 38//38 3//3 40//40
f 38//38 1//1 3//3
f 38//38 4//4 1//1
f 36//36 4//4 38//38
f 36//36 6//6 4//4
f 33//33 6//6 36//36
f 33//33 9//9 6//6
f 33//33 10//10 9//9
f 32//32 10//10 33//33
f 32//32 12//12 10//10
f 32//32 14//14 12//12
f 29//29 14//14 32//32
f 29//29 16//16 14//14
f 16//16 29//29 27//27
f 3//3 44//44 64//64
f 2//2 44//44 3//3
f 5//5 44//44 2//2
f 5//5 42//42 44//44
f 7//7 42//42 5//5
f 8//8 42//42 7//7
f 8//8 20//20 42//42
f 11//11 20//20 8//8
f 11//11 18//18 20//20
f 13//13 18//18 11//11
f 15//15 18//18 13//13
f 15//15 22//22 18//18
f 16//16 22//22 15//15
f 27//27 22//22 16//16
f 27//27 23//23 22//22
f 23//23 27//27 25//25
f 45//45 64//64 47//47
f 64//64 45//45 46//46
f 53//53 65//65 66//66
f 65//65 53//53 54//54
f 67//67 53//53 66//66
f 53//53 67//67 52//52
f 51//51 67//67 68//68
f 67//67 51//51 52//52
f 50//50 68//68 69//69
f 68//68 50//50 51//51
f 70//70 50//50 69//69
f 50//50 70//70 49//49
f 71//71 49//49 70//70
f 49//49 71//71 48//48
f 72//72 48//48 71//71
f 48//48 72//72 57//57
f 73//73 57//57 72//72
f 57//57 73//73 58//58
f 59//59 73//73 74//74
f 73//73 59//59 58//58
f 60//60 74//74 75//75
f 74//74 60//60 59//59
f 61//61 75//75 76//76
f 75//75 61//61 60//60
f 62//62 76//76 77//77
f 76//76 62//62 61//61
f 62//62 78//78 63//63
f 78//78 62//62 77//77
f 54//54 79//79 65//65
f 79//79 54//54 55//55
f 70//70 72//72 71//71
f 69//69 72//72 70//70
f 69//69 73//73 72//72
f 69//69 74//74 73//73
f 68//68 74//74 69//69
f 68//68 75//75 74//74
f 67//67 75//75 68//68
f 66//66 75//75 67//67
f 66//66 76//76 75//75
f 65//65 76//76 66//66
f 65//65 77//77 76//76
f 65//65 78//78 77//77
f 79//79 78//78 65//65
f 78//78 79//79 80//80
f 63//63 80//80 56//56
f 80//80 63//63 78//78
f 56//56 79//79 55//55
f 79//79 56//56 80//80
f 81//81 82//82 83//83
f 82//82 81//81 84//84
f 85//85 82//82 84//84
f 82//82 85//85 86//86
f 82//82 24//24 83//83
f 24//24 82//82 86//86
f 24//24 81//81 83//83
f 81//81 24//24 23//23
f 23//23 84//84 81//81
f 84//84 23//23 85//85
f 85//85 24//24 86//86
f 24//24 85//85 23//23