# https://github.com/mikedh/trimesh
v -0.05597000 -0.08067900 0.01672300
v -0.05222900 -0.08442100 0.01672300
v -0.05222900 -0.08067900 0.01672300
v -0.05597000 -0.08442100 0.01672300
v -0.05550300 -0.08395300 0.01195200
v -0.05222900 -0.08442100 0.01195200
v -0.05269600 -0.08395300 0.01195200
v -0.05597000 -0.08442100 0.01195200
v -0.05597000 -0.08067900 0.01195200
v -0.05550300 -0.08114700 0.01195200
v -0.05269600 -0.08114700 0.01195200
v -0.05222900 -0.08067900 0.01195200
v -0.05269600 -0.08395300 0.01274700
v -0.05550300 -0.08395300 0.01274700
v -0.05550300 -0.08114700 0.01274700
v -0.05269600 -0.08114700 0.01274700
v -0.05222900 -0.08442100 0.01274700
v -0.05597000 -0.08442100 0.01274700
v -0.05597000 -0.08067900 0.01274700
v -0.05222900 -0.08067900 0.01274700
v 0.05253500 -0.08067900 0.01672300
v 0.05627700 -0.08442100 0.01672300
v 0.05627700 -0.08067900 0.01672300
v 0.05253500 -0.08442100 0.01672300
v 0.05300300 -0.08395300 0.01195200
v 0.05627700 -0.08442100 0.01195200
v 0.05580900 -0.08395300 0.01195200
v 0.05253500 -0.08442100 0.01195200
v 0.05253500 -0.08067900 0.01195200
v 0.05300300 -0.08114700 0.01195200
v 0.05580900 -0.08114700 0.01195200
v 0.05627700 -0.08067900 0.01195200
v 0.05580900 -0.08395300 0.01274700
v 0.05300300 -0.08395300 0.01274700
v 0.05300300 -0.08114700 0.01274700
v 0.05580900 -0.08114700 0.01274700
v 0.05627700 -0.08442100 0.01274700
v 0.05253500 -0.08442100 0.01274700
v 0.05253500 -0.08067900 0.01274700
v 0.05627700 -0.08067900 0.01274700
v -0.05222900 0.06150100 0.02776000
v -0.05550300 0.06196800 0.02776000
v -0.05269600 0.06196800 0.02776000
v -0.05597000 0.06150100 0.02776000
v -0.05222900 0.06524200 0.02776000
v -0.05269600 0.06477400 0.02776000
v -0.05550300 0.06477400 0.02776000
v -0.05597000 0.06524200 0.02776000
v -0.05550300 0.06196800 0.02697500
v -0.05269600 0.06196800 0.02697500
v -0.05269600 0.06477400 0.02697500
v -0.05550300 0.06477400 0.02697500
v -0.05222900 0.06150100 0.02697500
v -0.05597000 0.06150100 0.02697500
v -0.05222900 0.06524200 0.02697500
v -0.05597000 0.06524200 0.02697500
v -0.05597000 0.06524200 0.03168900
v -0.05222900 0.06150100 0.03168900
v -0.05222900 0.06524200 0.03168900
v -0.05597000 0.06150100 0.03168900
v 0.05253500 0.06150100 0.02776000
v 0.05253500 0.06524200 0.02776000
v 0.05300300 0.06196800 0.02776000
v 0.05300300 0.06477400 0.02776000
v 0.05580900 0.06477400 0.02776000
v 0.05627700 0.06524200 0.02776000
v 0.05627700 0.06150100 0.02776000
v 0.05580900 0.06196800 0.02776000
v 0.05300300 0.06477400 0.02697500
v 0.05300300 0.06196800 0.02697500
v 0.05580900 0.06477400 0.02697500
v 0.05580900 0.06196800 0.02697500
v 0.05253500 0.06150100 0.02697500
v 0.05253500 0.06524200 0.02697500
v 0.05627700 0.06524200 0.02697500
v 0.05627700 0.06150100 0.02697500
v 0.05253500 0.06150100 0.03168900
v 0.05627700 0.06150100 0.03168900
v 0.05253500 0.06524200 0.03168900
v 0.05627700 0.06524200 0.03168900
v -0.05597000 0.03811600 -0.01882200
v -0.05597000 0.03811600 -0.01508100
v -0.05597000 0.03811600 -0.01788700
v -0.05597000 -0.07974400 -0.01882200
v -0.05597000 -0.07974400 -0.01508100
v 0.05627700 0.03811600 -0.01508100
v 0.05627700 0.03811600 -0.01882200
v 0.05627700 0.03811600 -0.01788700
v 0.05627700 -0.07974400 -0.01508100
v 0.05627700 -0.07974400 -0.01882200
v -0.05503500 -0.08067900 -0.01508100
v -0.05503500 -0.08067900 -0.01882200
v 0.05534100 -0.08067900 -0.01882200
v 0.05534100 -0.08067900 -0.01508100
v 0.05627700 0.05682300 -0.01882200
v 0.05627700 0.05682300 -0.01788700
v 0.05627700 0.06056500 -0.01414500
v 0.05627700 0.06056500 -0.01788700
v 0.05627700 0.03811600 -0.01414500
v 0.05534100 0.06150100 -0.01788700
v -0.05503500 0.06150100 -0.01414500
v 0.05534100 0.06150100 -0.01414500
v -0.05503500 0.06150100 -0.01788700
v -0.05597000 0.05682300 -0.01788700
v -0.05597000 0.05682300 -0.01882200
v -0.05597000 0.06056500 -0.01414500
v -0.05597000 0.06056500 -0.01788700
v -0.05597000 0.03811600 -0.01414500
v -0.05597000 -0.08442100 -0.03893300
v -0.05222900 -0.08442100 -0.03893300
v -0.05222900 -0.08067900 -0.03893300
v -0.05597000 -0.08067900 -0.03893300
v -0.05456700 -0.08301700 -0.04688400
v -0.05363200 -0.08301700 -0.04688400
v -0.05363200 -0.08208200 -0.04688400
v -0.05456700 -0.08208200 -0.04688400
v 0.05253500 -0.08442100 -0.03893300
v 0.05627700 -0.08442100 -0.03893300
v 0.05627700 -0.08067900 -0.03893300
v 0.05253500 -0.08067900 -0.03893300
v 0.05393800 -0.08301700 -0.04688400
v 0.05487400 -0.08301700 -0.04688400
v 0.05487400 -0.08208200 -0.04688400
v 0.05393800 -0.08208200 -0.04688400
v -0.05597000 0.06150100 -0.03902700
v -0.05597000 0.06524200 -0.03902700
v -0.05222900 0.06150100 -0.03902700
v -0.05222900 0.06524200 -0.03902700
v -0.05456700 0.06290400 -0.04688400
v -0.05456700 0.06383900 -0.04688400
v -0.05363200 0.06290400 -0.04688400
v -0.05363200 0.06383900 -0.04688400
v 0.05253500 0.06150100 -0.03902700
v 0.05627700 0.06150100 -0.03902700
v 0.05253500 0.06524200 -0.03902700
v 0.05627700 0.06524200 -0.03902700
v 0.05393800 0.06290400 -0.04688400
v 0.05487400 0.06290400 -0.04688400
v 0.05393800 0.06383900 -0.04688400
v 0.05487400 0.06383900 -0.04688400
v -0.05597000 0.03811600 0.00175600
v -0.05597000 -0.07974400 0.00175600
v -0.05503500 -0.07974400 0.00269200
v -0.05503500 0.03811600 0.00269200
v 0.05627700 0.03811600 0.00175600
v 0.05627700 -0.07974400 0.00175600
v 0.05534100 -0.07974400 0.00269200
v 0.05534100 0.03811600 0.00269200
v 0.04785800 0.03811600 0.00344000
v 0.05459300 0.03886400 0.00269200
v 0.05459300 0.03811600 0.00344000
v 0.04785800 0.03886400 0.00269200
v 0.04785800 0.03811600 0.00662000
v 0.05141300 0.03811600 0.00662000
v 0.04785800 0.04169500 0.01017500
v 0.05534100 0.06056500 0.00269200
v 0.05384500 0.05906800 0.00269200
v 0.05384500 0.06056500 0.00418800
v 0.05141300 0.06056500 0.00662000
v 0.04785800 0.05698600 0.01017500
v 0.04785800 0.06056500 0.00662000
v 0.04785800 0.05906800 0.00269200
v 0.04785800 0.06056500 0.00418800
v -0.05428700 0.03811600 0.00344000
v -0.04755200 0.03886400 0.00269200
v -0.04755200 0.03811600 0.00344000
v -0.05428700 0.03886400 0.00269200
v -0.05110600 0.03811600 0.00662000
v -0.04755200 0.03811600 0.00662000
v -0.04755200 0.04169500 0.01017500
v -0.05110600 0.06056500 0.00662000
v -0.04755200 0.05698600 0.01017500
v -0.05353800 0.06056500 0.00418800
v -0.05503500 0.06056500 0.00269200
v -0.04755200 0.06056500 0.00662000
v -0.05353800 0.05906800 0.00269200
v -0.04755200 0.06056500 0.00418800
v -0.04755200 0.05906800 0.00269200
v 0.05253500 -0.08067900 0.00924000
v 0.05253500 -0.08442100 -0.01882200
v 0.05253500 -0.08067900 -0.01882200
v 0.05253500 -0.08442100 0.00924000
v 0.04393600 -0.08067900 0.01094800
v 0.04393600 -0.08442100 0.01094800
v 0.03526600 -0.08067900 0.01235100
v 0.03526600 -0.08442100 0.01235100
v 0.02653800 -0.08067900 0.01344400
v 0.02653800 -0.08442100 0.01344400
v 0.01776700 -0.08067900 0.01422600
v 0.01776700 -0.08442100 0.01422600
v 0.00896700 -0.08067900 0.01469500
v 0.00896700 -0.08442100 0.01469500
v 0.00015300 -0.08067900 0.01485200
v 0.00015300 -0.08442100 0.01485200
v -0.00866100 -0.08067900 0.01469500
v -0.00866100 -0.08442100 0.01469500
v -0.01746100 -0.08067900 0.01422600
v -0.01746100 -0.08442100 0.01422600
v -0.02623200 -0.08067900 0.01344400
v -0.02623200 -0.08442100 0.01344400
v -0.03496000 -0.08067900 0.01235100
v -0.03496000 -0.08442100 0.01235100
v -0.04363000 -0.08442100 0.01094800
v -0.04363000 -0.08067900 0.01094800
v -0.05222900 -0.08442100 0.00924000
v -0.05222900 -0.08442100 -0.01882200
v -0.05222900 -0.08067900 -0.01882200
v -0.05222900 -0.08067900 0.00924000
v -0.05222900 0.06524200 -0.01882200
v -0.05222900 0.06150100 0.02373800
v -0.05222900 0.06524200 0.02373800
v -0.05222900 0.06150100 -0.01882200
v -0.04363000 0.06150100 0.02559000
v -0.04363000 0.06524200 0.02559000
v -0.03496000 0.06150100 0.02710800
v -0.03496000 0.06524200 0.02710800
v -0.02623200 0.06150100 0.02829300
v -0.02623200 0.06524200 0.02829300
v -0.01746100 0.06150100 0.02914000
v -0.01746100 0.06524200 0.02914000
v -0.00866100 0.06150100 0.02964800
v -0.00866100 0.06524200 0.02964800
v 0.00015300 0.06150100 0.02981800
v 0.00015300 0.06524200 0.02981800
v 0.00896700 0.06150100 0.02964800
v 0.00896700 0.06524200 0.02964800
v 0.01776700 0.06150100 0.02914000
v 0.01776700 0.06524200 0.02914000
v 0.02653800 0.06150100 0.02829300
v 0.02653800 0.06524200 0.02829300
v 0.03526600 0.06150100 0.02710800
v 0.03526600 0.06524200 0.02710800
v 0.04393600 0.06150100 0.02559000
v 0.04393600 0.06524200 0.02559000
v 0.05253500 0.06524200 0.02373800
v 0.05253500 0.06524200 -0.01882200
v 0.05253500 0.06150100 -0.01882200
v 0.05253500 0.06150100 0.02373800
v -0.05503500 -0.08067900 0.00175600
v 0.05534100 -0.08067900 0.00175600
v 0.05627700 0.06056500 0.00175600
v -0.05503500 0.06150100 0.00175600
v 0.05534100 0.06150100 0.00175600
v -0.05597000 0.06056500 0.00175600
vn -0.57735027 0.57735027 0.57735027
vn 0.57735027 -0.57735027 0.57735027
vn 0.57735027 0.57735027 0.57735027
vn -0.57735027 -0.57735027 0.57735027
vn -0.30151134 -0.30151134 0.90453403
vn 0.57735027 -0.57735027 0.57735027
vn 0.30151134 -0.30151134 0.90453403
vn -0.57735027 -0.57735027 0.57735027
vn -0.57735027 0.57735027 0.57735027
vn -0.30151134 0.30151134 0.90453403
vn 0.30151134 0.30151134 0.90453403
vn 0.57735027 0.57735027 0.57735027
vn 0.30151134 -0.30151134 -0.90453403
vn -0.30151134 -0.30151134 -0.90453403
vn -0.30151134 0.30151134 -0.90453403
vn 0.30151134 0.30151134 -0.90453403
vn 0.57735027 -0.57735027 -0.57735027
vn -0.57735027 -0.57735027 -0.57735027
vn -0.57735027 0.57735027 -0.57735027
vn 0.57735027 0.57735027 -0.57735027
vn -0.57735027 0.57735027 0.57735027
vn 0.57735027 -0.57735027 0.57735027
vn 0.57735027 0.57735027 0.57735027
vn -0.57735027 -0.57735027 0.57735027
vn -0.30151134 -0.30151134 0.90453403
vn 0.57735027 -0.57735027 0.57735027
vn 0.30151134 -0.30151134 0.90453403
vn -0.57735027 -0.57735027 0.57735027
vn -0.57735027 0.57735027 0.57735027
vn -0.30151134 0.30151134 0.90453403
vn 0.30151134 0.30151134 0.90453403
vn 0.57735027 0.57735027 0.57735027
vn 0.30151134 -0.30151134 -0.90453403
vn -0.30151134 -0.30151134 -0.90453403
vn -0.30151134 0.30151134 -0.90453403
vn 0.30151134 0.30151134 -0.90453403
vn 0.57735027 -0.57735027 -0.57735027
vn -0.57735027 -0.57735027 -0.57735027
vn -0.57735027 0.57735027 -0.57735027
vn 0.57735027 0.57735027 -0.57735027
vn 0.57735027 -0.57735027 -0.57735027
vn -0.30151134 -0.30151134 -0.90453403
vn 0.30151134 -0.30151134 -0.90453403
vn -0.57735027 -0.57735027 -0.57735027
vn 0.57735027 0.57735027 -0.57735027
vn 0.30151134 0.30151134 -0.90453403
vn -0.30151134 0.30151134 -0.90453403
vn -0.57735027 0.57735027 -0.57735027
vn -0.30151134 -0.30151134 0.90453403
vn 0.30151134 -0.30151134 0.90453403
vn 0.30151134 0.30151134 0.90453403
vn -0.30151134 0.30151134 0.90453403
vn 0.57735027 -0.57735027 0.57735027
vn -0.57735027 -0.57735027 0.57735027
vn 0.57735027 0.57735027 0.57735027
vn -0.57735027 0.57735027 0.57735027
vn -0.57735027 0.57735027 0.57735027
vn 0.57735027 -0.57735027 0.57735027
vn 0.57735027 0.57735027 0.57735027
vn -0.57735027 -0.57735027 0.57735027
vn -0.57735027 -0.57735027 -0.57735027
vn -0.57735027 0.57735027 -0.57735027
vn -0.30151134 -0.30151134 -0.90453403
vn -0.30151134 0.30151134 -0.90453403
vn 0.30151134 0.30151134 -0.90453403
vn 0.57735027 0.57735027 -0.57735027
vn 0.57735027 -0.57735027 -0.57735027
vn 0.30151134 -0.30151134 -0.90453403
vn -0.30151134 0.30151134 0.90453403
vn -0.30151134 -0.30151134 0.90453403
vn 0.30151134 0.30151134 0.90453403
vn 0.30151134 -0.30151134 0.90453403
vn -0.57735027 -0.57735027 0.57735027
vn -0.57735027 0.57735027 0.57735027
vn 0.57735027 0.57735027 0.57735027
vn 0.57735027 -0.57735027 0.57735027
vn -0.57735027 -0.57735027 0.57735027
vn 0.57735027 -0.57735027 0.57735027
vn -0.57735027 0.57735027 0.57735027
vn 0.57735027 0.57735027 0.57735027
vn -1.00000000 0.00000000 0.00000000
vn -1.00000000 0.00000000 0.00000000
vn -1.00000000 0.00000000 0.00000000
vn -0.92387953 -0.38268343 0.00000000
vn -0.92387953 -0.38268343 0.00000000
vn 1.00000000 0.00000000 0.00000000
vn 1.00000000 0.00000000 0.00000000
vn 1.00000000 0.00000000 0.00000000
vn 0.92377723 -0.38293031 0.00000000
vn 0.92377723 -0.38293031 0.00000000
vn -0.38268343 -0.92387953 0.00000000
vn -0.38268343 -0.92387953 0.00000000
vn 0.38243652 -0.92398177 0.00000000
vn 0.38243652 -0.92398177 0.00000000
vn 1.00000000 0.00000000 0.00000000
vn 1.00000000 0.00000000 0.00000000
vn 0.92387953 0.38268343 0.00000000
vn 0.92387953 0.38268343 0.00000000
vn 1.00000000 0.00000000 0.00000000
vn 0.38268343 0.92387953 0.00000000
vn -0.38293031 0.92377723 0.00000000
vn 0.38268343 0.92387953 0.00000000
vn -0.38293031 0.92377723 0.00000000
vn -1.00000000 0.00000000 0.00000000
vn -1.00000000 0.00000000 0.00000000
vn -0.92398177 0.38243652 0.00000000
vn -0.92398177 0.38243652 0.00000000
vn -1.00000000 0.00000000 0.00000000
vn -0.70233512 -0.70235712 -0.11584411
vn 0.70233512 -0.70235712 -0.11584411
vn 0.70234921 0.70234921 -0.11580658
vn -0.70234921 0.70234921 -0.11580658
vn -0.52645796 -0.52640922 -0.66763414
vn 0.52645796 -0.52640922 -0.66763414
vn 0.52645302 0.52645302 -0.66760350
vn -0.52645302 0.52645302 -0.66760350
vn -0.70233512 -0.70235712 -0.11584411
vn 0.70233512 -0.70235712 -0.11584411
vn 0.70234921 0.70234921 -0.11580658
vn -0.70234921 0.70234921 -0.11580658
vn -0.52645796 -0.52640922 -0.66763414
vn 0.52645796 -0.52640922 -0.66763414
vn 0.52645302 0.52645302 -0.66760350
vn -0.52645302 0.52645302 -0.66760350
vn -0.70224492 -0.70224492 -0.11706466
vn -0.70224492 0.70224492 -0.11706466
vn 0.70224492 -0.70224492 -0.11706466
vn 0.70224492 0.70224492 -0.11706466
vn -0.52580042 -0.52580042 -0.66863132
vn -0.52580042 0.52580042 -0.66863132
vn 0.52580042 -0.52580042 -0.66863132
vn 0.52580042 0.52580042 -0.66863132
vn -0.70224492 -0.70224492 -0.11706466
vn 0.70224492 -0.70224492 -0.11706466
vn -0.70224492 0.70224492 -0.11706466
vn 0.70224492 0.70224492 -0.11706466
vn -0.52580042 -0.52580042 -0.66863132
vn 0.52580042 -0.52580042 -0.66863132
vn -0.52580042 0.52580042 -0.66863132
vn 0.52580042 0.52580042 -0.66863132
vn -0.92398177 0.00000000 0.38243652
vn -0.87565150 -0.34161608 0.34136915
vn -0.34177268 -0.34177268 0.87543296
vn -0.41983415 -0.09302123 0.90282132
vn 0.92387953 0.00000000 0.38268343
vn 0.87550581 -0.34180279 0.34155588
vn 0.34155588 -0.34180279 0.87550581
vn 0.41961447 -0.09301302 0.90292429
vn 0.00000000 -0.92387953 -0.38268343
vn -0.24183624 -0.68611779 -0.68611779
vn 0.53527448 -0.82789237 0.16755730
vn 0.00000000 -0.70710678 -0.70710678
vn 0.00000000 -0.92323452 0.38423693
vn 0.41552504 -0.70587386 0.57365586
vn 0.30036782 -0.29870405 0.90584494
vn 0.37897740 0.39579475 0.83649426
vn -0.24184153 0.68588757 -0.68634606
vn 0.53531232 0.82790168 0.16739031
vn 0.41552504 0.70587386 0.57365586
vn 0.30036782 0.29870405 0.90584494
vn 0.00000000 0.92323452 0.38423693
vn 0.00000000 0.70687049 -0.70734300
vn 0.00000000 0.92381559 -0.38283777
vn -0.53525218 -0.82789134 0.16763362
vn 0.00000000 -0.70710678 -0.70710678
vn 0.00000000 -0.92387953 -0.38268343
vn 0.24183624 -0.68611779 -0.68611779
vn -0.41548295 -0.70589629 0.57365874
vn 0.00000000 -0.92323452 0.38423693
vn -0.30043016 -0.29869685 0.90582665
vn -0.41553050 0.70588601 0.57363695
vn -0.30043016 0.29869685 0.90582665
vn -0.53521503 0.82795695 0.16742810
vn -0.37916121 0.39573432 0.83643955
vn 0.00000000 0.92323452 0.38423693
vn 0.24174942 0.68590380 -0.68636229
vn 0.00000000 0.92381559 -0.38283777
vn 0.00000000 0.70687049 -0.70734300
vn 0.62498095 0.58836778 0.51305182
vn 0.57735027 -0.57735027 -0.57735027
vn 0.57735027 0.57735027 -0.57735027
vn 0.62498095 -0.58836778 0.51305182
vn 0.12608132 0.70311755 0.69980655
vn 0.12608132 -0.70311755 0.69980655
vn 0.10099296 0.70309452 0.70388815
vn 0.10099296 -0.70309452 0.70388815
vn 0.07576423 0.70311597 0.70702738
vn 0.07576423 -0.70311597 0.70702738
vn 0.05050345 0.70311386 0.70928154
vn 0.05050345 -0.70311386 0.70928154
vn 0.02525681 0.70314089 0.71060185
vn 0.02525681 -0.70314089 0.71060185
vn 0.00000000 0.70312008 0.71107113
vn 0.00000000 -0.70312008 0.71107113
vn -0.02525681 0.70314089 0.71060185
vn -0.02525681 -0.70314089 0.71060185
vn -0.05050345 0.70311386 0.70928154
vn -0.05050345 -0.70311386 0.70928154
vn -0.07576423 0.70311597 0.70702738
vn -0.07576423 -0.70311597 0.70702738
vn -0.10099296 0.70309452 0.70388815
vn -0.10099296 -0.70309452 0.70388815
vn -0.12608132 -0.70311755 0.69980655
vn -0.12608132 0.70311755 0.69980655
vn -0.62498095 -0.58836778 0.51305182
vn -0.57735027 -0.57735027 -0.57735027
vn -0.57735027 0.57735027 -0.57735027
vn -0.62498095 0.58836778 0.51305182
vn -0.57735027 0.57735027 -0.57735027
vn -0.62853274 -0.58933327 0.50757550
vn -0.62853274 0.58933327 0.50757550
vn -0.57735027 -0.57735027 -0.57735027
vn -0.13626599 -0.70276606 0.69824884
vn -0.13626599 0.70276606 0.69824884
vn -0.10921569 -0.70281266 0.70294118
vn -0.10921569 0.70281266 0.70294118
vn -0.08206073 -0.70278038 0.70665817
vn -0.08206073 0.70278038 0.70665817
vn -0.05469987 -0.70278801 0.70929327
vn -0.05469987 0.70278801 0.70929327
vn -0.02736280 -0.70281339 0.71084781
vn -0.02736280 0.70281339 0.71084781
vn 0.00000000 -0.70279204 0.71139535
vn -0.00000000 0.70279204 0.71139535
vn 0.02736280 -0.70281339 0.71084781
vn 0.02736280 0.70281339 0.71084781
vn 0.05469987 -0.70278801 0.70929327
vn 0.05469987 0.70278801 0.70929327
vn 0.08206073 -0.70278038 0.70665817
vn 0.08206073 0.70278038 0.70665817
vn 0.10921569 -0.70281266 0.70294118
vn 0.10921569 0.70281266 0.70294118
vn 0.13626599 -0.70276606 0.69824884
vn 0.13626599 0.70276606 0.69824884
vn 0.62853274 0.58933327 0.50757550
vn 0.57735027 0.57735027 -0.57735027
vn 0.57735027 -0.57735027 -0.57735027
vn 0.62853274 -0.58933327 0.50757550
vn -0.34161608 -0.87565150 0.34136915
vn 0.34139924 -0.87572434 0.34139924
vn 0.87557868 0.34158598 0.34158598
vn -0.34180279 0.87550581 0.34155588
vn 0.34158598 0.87557868 0.34158598
vn -0.87572434 0.34139924 0.34139924
f 1//1 2//2 3//3
f 2//2 1//1 4//4
f 5//5 6//6 7//7
f 6//6 5//5 8//8
f 9//9 5//5 10//10
f 5//5 9//9 8//8
f 11//11 6//6 12//12
f 6//6 11//11 7//7
f 5//5 13//13 14//14
f 13//13 5//5 7//7
f 5//5 15//15 10//10
f 15//15 5//5 14//14
f 12//12 10//10 11//11
f 10//10 12//12 9//9
f 13//13 11//11 16//16
f 11//11 13//13 7//7
f 17//17 14//14 13//13
f 14//14 17//17 18//18
f 18//18 15//15 14//14
f 15//15 18//18 19//19
f 11//11 15//15 16//16
f 15//15 11//11 10//10
f 13//13 20//20 17//17
f 20//20 13//13 16//16
f 15//15 20//20 16//16
f 20//20 15//15 19//19
f 21//21 22//22 23//23
f 22//22 21//21 24//24
f 25//25 26//26 27//27
f 26//26 25//25 28//28
f 29//29 25//25 30//30
f 25//25 29//29 28//28
f 31//31 26//26 32//32
f 26//26 31//31 27//27
f 25//25 33//33 34//34
f 33//33 25//25 27//27
f 25//25 35//35 30//30
f 35//35 25//25 34//34
f 32//32 30//30 31//31
f 30//30 32//32 29//29
f 33//33 31//31 36//36
f 31//31 33//33 27//27
f 37//37 34//34 33//33
f 34//34 37//37 38//38
f 38//38 35//35 34//34
f 35//35 38//38 39//39
f 31//31 35//35 36//36
f 35//35 31//31 30//30
f 33//33 40//40 37//37
f 40//40 33//33 36//36
f 35//35 40//40 36//36
f 40//40 35//35 39//39
f 41//41 42//42 43//43
f 42//42 41//41 44//44
f 43//43 45//45 41//41
f 45//45 43//43 46//46
f 44//44 47//47 42//42
f 47//47 44//44 48//48
f 49//49 43//43 42//42
f 43//43 49//49 50//50
f 47//47 45//45 46//46
f 45//45 47//47 48//48
f 43//43 51//51 46//46
f 51//51 43//43 50//50
f 49//49 47//47 52//52
f 47//47 49//49 42//42
f 49//49 53//53 50//50
f 53//53 49//49 54//54
f 51//51 53//53 55//55
f 53//53 51//51 50//50
f 51//51 47//47 46//46
f 47//47 51//51 52//52
f 56//56 49//49 52//52
f 49//49 56//56 54//54
f 55//55 52//52 51//51
f 52//52 55//55 56//56
f 57//57 58//58 59//59
f 58//58 57//57 60//60
f 61//61 62//62 63//63
f 64//64 63//63 62//62
f 65//65 64//64 66//66
f 62//62 66//66 64//64
f 67//67 61//61 68//68
f 63//63 68//68 61//61
f 69//69 70//70 64//64
f 63//63 64//64 70//70
f 67//67 68//68 66//66
f 65//65 66//66 68//68
f 69//69 64//64 71//71
f 65//65 71//71 64//64
f 63//63 70//70 68//68
f 72//72 68//68 70//70
f 73//73 70//70 74//74
f 69//69 74//74 70//70
f 69//69 71//71 74//74
f 75//75 74//74 71//71
f 72//72 71//71 68//68
f 65//65 68//68 71//71
f 73//73 76//76 70//70
f 72//72 70//70 76//76
f 76//76 75//75 72//72
f 71//71 72//72 75//75
f 77//77 78//78 79//79
f 80//80 79//79 78//78
f 81//81 82//82 83//83
f 84//84 82//82 81//81
f 82//82 84//84 85//85
f 86//86 87//87 88//88
f 89//89 87//87 86//86
f 87//87 89//89 90//90
f 84//84 91//91 85//85
f 91//91 84//84 92//92
f 93//93 89//89 94//94
f 89//89 93//93 90//90
f 88//88 95//95 96//96
f 95//95 88//88 87//87
f 97//97 96//96 98//98
f 99//99 96//96 97//97
f 86//86 96//96 99//99
f 96//96 86//86 88//88
f 100//100 101//101 102//102
f 101//101 100//100 103//103
f 92//92 94//94 91//91
f 94//94 92//92 93//93
f 81//81 104//104 105//105
f 104//104 81//81 83//83
f 104//104 106//106 107//107
f 83//83 106//106 104//104
f 82//82 106//106 83//83
f 106//106 82//82 108//108
f 107//107 101//101 103//103
f 101//101 107//107 106//106
f 102//102 98//98 100//100
f 98//98 102//102 97//97
f 109//109 6//6 8//8
f 6//6 109//109 110//110
f 6//6 111//111 12//12
f 111//111 6//6 110//110
f 111//111 9//9 12//12
f 9//9 111//111 112//112
f 109//109 9//9 112//112
f 9//9 109//109 8//8
f 113//113 110//110 109//109
f 110//110 113//113 114//114
f 111//111 114//114 115//115
f 114//114 111//111 110//110
f 115//115 112//112 111//111
f 112//112 115//115 116//116
f 113//113 112//112 116//116
f 112//112 113//113 109//109
f 113//113 115//115 114//114
f 115//115 113//113 116//116
f 18//18 2//2 4//4
f 2//2 18//18 17//17
f 18//18 1//1 19//19
f 1//1 18//18 4//4
f 2//2 20//20 3//3
f 20//20 2//2 17//17
f 20//20 1//1 3//3
f 1//1 20//20 19//19
f 117//117 26//26 28//28
f 26//26 117//117 118//118
f 26//26 119//119 32//32
f 119//119 26//26 118//118
f 119//119 29//29 32//32
f 29//29 119//119 120//120
f 117//117 29//29 120//120
f 29//29 117//117 28//28
f 121//121 118//118 117//117
f 118//118 121//121 122//122
f 119//119 122//122 123//123
f 122//122 119//119 118//118
f 123//123 120//120 119//119
f 120//120 123//123 124//124
f 121//121 120//120 124//124
f 120//120 121//121 117//117
f 121//121 123//123 122//122
f 123//123 121//121 124//124
f 38//38 22//22 24//24
f 22//22 38//38 37//37
f 38//38 21//21 39//39
f 21//21 38//38 24//24
f 22//22 40//40 23//23
f 40//40 22//22 37//37
f 40//40 21//21 23//23
f 21//21 40//40 39//39
f 125//125 56//56 126//126
f 56//56 125//125 54//54
f 125//125 53//53 54//54
f 53//53 125//125 127//127
f 55//55 127//127 128//128
f 127//127 55//55 53//53
f 128//128 56//56 55//55
f 56//56 128//128 126//126
f 129//129 126//126 130//130
f 126//126 129//129 125//125
f 129//129 127//127 125//125
f 127//127 129//129 131//131
f 128//128 131//131 132//132
f 131//131 128//128 127//127
f 132//132 126//126 128//128
f 126//126 132//132 130//130
f 129//129 132//132 131//131
f 132//132 129//129 130//130
f 44//44 57//57 48//48
f 57//57 44//44 60//60
f 45//45 57//57 59//59
f 57//57 45//45 48//48
f 44//44 58//58 60//60
f 58//58 44//44 41//41
f 58//58 45//45 59//59
f 45//45 58//58 41//41
f 73//73 133//133 76//76
f 134//134 76//76 133//133
f 135//135 133//133 74//74
f 73//73 74//74 133//133
f 74//74 75//75 135//135
f 136//136 135//135 75//75
f 134//134 136//136 76//76
f 75//75 76//76 136//136
f 133//133 137//137 134//134
f 138//138 134//134 137//137
f 139//139 137//137 135//135
f 133//133 135//135 137//137
f 135//135 136//136 139//139
f 140//140 139//139 136//136
f 138//138 140//140 134//134
f 136//136 134//134 140//140
f 138//138 137//137 140//140
f 139//139 140//140 137//137
f 77//77 61//61 78//78
f 67//67 78//78 61//61
f 67//67 66//66 78//78
f 80//80 78//78 66//66
f 62//62 61//61 79//79
f 77//77 79//79 61//61
f 62//62 79//79 66//66
f 80//80 66//66 79//79
f 82//82 141//141 108//108
f 85//85 141//141 82//82
f 141//141 85//85 142//142
f 141//141 143//143 144//144
f 143//143 141//141 142//142
f 145//145 86//86 99//99
f 146//146 86//86 145//145
f 86//86 146//146 89//89
f 145//145 147//147 146//146
f 147//147 145//145 148//148
f 144//144 147//147 148//148
f 147//147 144//144 143//143
f 149//149 150//150 151//151
f 150//150 149//149 152//152
f 151//151 150//150 148//148
f 153//153 151//151 154//154
f 151//151 153//153 149//149
f 154//154 155//155 153//153
f 156//156 157//157 158//158
f 156//156 151//151 148//148
f 158//158 151//151 156//156
f 159//159 151//151 158//158
f 159//159 154//154 151//151
f 160//160 154//154 159//159
f 154//154 160//160 155//155
f 159//159 161//161 160//160
f 162//162 158//158 157//157
f 158//158 162//162 163//163
f 159//159 163//163 161//161
f 163//163 159//159 158//158
f 164//164 165//165 166//166
f 165//165 164//164 167//167
f 168//168 166//166 169//169
f 166//166 168//168 164//164
f 164//164 144//144 167//167
f 170//170 168//168 169//169
f 171//171 170//170 172//172
f 171//171 168//168 170//170
f 173//173 168//168 171//171
f 173//173 164//164 168//168
f 174//174 164//164 173//173
f 164//164 174//174 144//144
f 175//175 171//171 172//172
f 176//176 174//174 173//173
f 177//177 171//171 175//175
f 171//171 177//177 173//173
f 176//176 177//177 178//178
f 177//177 176//176 173//173
f 178//178 163//163 162//162
f 163//163 178//178 177//177
f 163//163 175//175 161//161
f 175//175 163//163 177//177
f 175//175 160//160 161//161
f 160//160 175//175 172//172
f 172//172 155//155 160//160
f 155//155 172//172 170//170
f 170//170 153//153 155//155
f 153//153 170//170 169//169
f 165//165 149//149 166//166
f 149//149 165//165 152//152
f 166//166 153//153 169//169
f 153//153 166//166 149//149
f 179//179 180//180 181//181
f 180//180 179//179 182//182
f 183//183 182//182 179//179
f 182//182 183//183 184//184
f 185//185 184//184 183//183
f 184//184 185//185 186//186
f 187//187 186//186 185//185
f 186//186 187//187 188//188
f 189//189 188//188 187//187
f 188//188 189//189 190//190
f 191//191 190//190 189//189
f 190//190 191//191 192//192
f 193//193 192//192 191//191
f 192//192 193//193 194//194
f 195//195 194//194 193//193
f 194//194 195//195 196//196
f 197//197 196//196 195//195
f 196//196 197//197 198//198
f 199//199 198//198 197//197
f 198//198 199//199 200//200
f 201//201 200//200 199//199
f 200//200 201//201 202//202
f 201//201 203//203 202//202
f 203//203 201//201 204//204
f 196//196 192//192 194//194
f 198//198 192//192 196//196
f 198//198 190//190 192//192
f 200//200 190//190 198//198
f 200//200 188//188 190//190
f 202//202 188//188 200//200
f 202//202 186//186 188//188
f 203//203 186//186 202//202
f 203//203 184//184 186//186
f 205//205 184//184 203//203
f 205//205 182//182 184//184
f 206//206 182//182 205//205
f 182//182 206//206 180//180
f 206//206 181//181 180//180
f 181//181 206//206 207//207
f 191//191 195//195 193//193
f 191//191 197//197 195//195
f 189//189 197//197 191//191
f 187//187 197//197 189//189
f 187//187 199//199 197//197
f 185//185 199//199 187//187
f 185//185 201//201 199//199
f 183//183 201//201 185//185
f 183//183 204//204 201//201
f 179//179 204//204 183//183
f 179//179 208//208 204//204
f 181//181 208//208 179//179
f 208//208 181//181 207//207
f 204//204 205//205 203//203
f 205//205 204//204 208//208
f 207//207 205//205 208//208
f 205//205 207//207 206//206
f 209//209 210//210 211//211
f 210//210 209//209 212//212
f 211//211 213//213 214//214
f 213//213 211//211 210//210
f 214//214 215//215 216//216
f 215//215 214//214 213//213
f 216//216 217//217 218//218
f 217//217 216//216 215//215
f 218//218 219//219 220//220
f 219//219 218//218 217//217
f 220//220 221//221 222//222
f 221//221 220//220 219//219
f 222//222 223//223 224//224
f 223//223 222//222 221//221
f 224//224 225//225 226//226
f 225//225 224//224 223//223
f 226//226 227//227 228//228
f 227//227 226//226 225//225
f 228//228 229//229 230//230
f 229//229 228//228 227//227
f 230//230 231//231 232//232
f 231//231 230//230 229//229
f 232//232 233//233 234//234
f 233//233 232//232 231//231
f 226//226 222//222 224//224
f 228//228 222//222 226//226
f 228//228 220//220 222//222
f 228//228 218//218 220//220
f 230//230 218//218 228//228
f 232//232 218//218 230//230
f 232//232 216//216 218//218
f 234//234 216//216 232//232
f 234//234 214//214 216//216
f 234//234 211//211 214//214
f 235//235 211//211 234//234
f 236//236 211//211 235//235
f 211//211 236//236 209//209
f 237//237 209//209 236//236
f 209//209 237//237 212//212
f 221//221 225//225 223//223
f 219//219 225//225 221//221
f 219//219 227//227 225//225
f 217//217 227//227 219//219
f 217//217 229//229 227//227
f 215//215 229//229 217//217
f 215//215 231//231 229//229
f 213//213 231//231 215//215
f 213//213 233//233 231//231
f 210//210 233//233 213//213
f 210//210 238//238 233//233
f 212//212 238//238 210//210
f 238//238 212//212 237//237
f 234//234 238//238 235//235
f 238//238 234//234 233//233
f 238//238 236//236 235//235
f 236//236 238//238 237//237
f 85//85 239//239 142//142
f 239//239 85//85 91//91
f 143//143 142//142 239//239
f 94//94 146//146 240//240
f 146//146 94//94 89//89
f 146//146 147//147 240//240
f 156//156 145//145 241//241
f 145//145 156//156 148//148
f 145//145 97//97 241//241
f 97//97 145//145 99//99
f 174//174 148//148 156//156
f 148//148 174//174 144//144
f 102//102 242//242 243//243
f 242//242 102//102 101//101
f 242//242 156//156 243//243
f 156//156 242//242 174//174
f 91//91 240//240 239//239
f 240//240 91//91 94//94
f 143//143 240//240 147//147
f 240//240 143//143 239//239
f 244//244 144//144 174//174
f 144//144 244//244 141//141
f 108//108 244//244 106//106
f 244//244 108//108 141//141
f 106//106 242//242 101//101
f 242//242 106//106 244//244
f 242//242 244//244 174//174
f 243//243 156//156 241//241
f 243//243 97//97 102//102
f 97//97 243//243 241//241