# https://github.com/mikedh/trimesh
v 0.01734500 -0.00431100 -0.02902800
v 0.02054800 -0.00431100 -0.02682600
v 0.01734500 -0.00431100 -0.02682600
v 0.02054800 -0.00431100 -0.02902800
v 0.01734500 0.00469600 -0.02682600
v 0.02054800 0.00469600 -0.02682600
v 0.02054800 0.00469600 -0.02902800
v 0.01734500 0.00469600 -0.02902800
v 0.01734500 -0.00431100 -0.04493900
v 0.02054800 -0.00431100 -0.04273800
v 0.01734500 -0.00431100 -0.04273800
v 0.02054800 -0.00431100 -0.04493900
v 0.01734500 0.00469600 -0.04273800
v 0.02054800 0.00469600 -0.04273800
v 0.02054800 0.00469600 -0.04493900
v 0.01734500 0.00469600 -0.04493900
v 0.01877400 -0.00353900 0.01196100
v 0.02197400 -0.00322500 0.01177100
v 0.02197600 -0.00353900 0.01190100
v 0.01877200 -0.00322500 0.01183100
v 0.01877800 -0.00380800 0.01216800
v 0.02198000 -0.00380800 0.01210800
v 0.02198500 -0.00401500 0.01237700
v 0.01878300 -0.00401500 0.01243700
v 0.02199100 -0.00414500 0.01269100
v 0.01878900 -0.00414500 0.01275100
v 0.02199700 -0.00418900 0.01302700
v 0.01879600 -0.00418900 0.01308800
v 0.02200400 -0.00414500 0.01336400
v 0.01880200 -0.00414500 0.01342400
v 0.02201000 -0.00401500 0.01367800
v 0.01880800 -0.00401500 0.01373800
v 0.02201500 -0.00380800 0.01394700
v 0.01881300 -0.00380800 0.01400700
v 0.01881700 -0.00353900 0.01421400
v 0.02201900 -0.00353900 0.01415400
v 0.01881900 -0.00322500 0.01434400
v 0.02202100 -0.00322500 0.01428400
v 0.01882000 -0.00288800 0.01438800
v 0.02202200 -0.00288800 0.01432800
v 0.02202100 -0.00255100 0.01428400
v 0.01881900 -0.00255100 0.01434400
v 0.02201900 -0.00223800 0.01415400
v 0.01881700 -0.00223800 0.01421400
v 0.02201500 -0.00196800 0.01394700
v 0.01881300 -0.00196800 0.01400700
v 0.01880800 -0.00176100 0.01373800
v 0.02201000 -0.00176100 0.01367800
v 0.01880200 -0.00163200 0.01342400
v 0.02200400 -0.00163200 0.01336400
v 0.01879600 -0.00158700 0.01308800
v 0.02199700 -0.00158700 0.01302700
v 0.01878900 -0.00163200 0.01275100
v 0.02199100 -0.00163200 0.01269100
v 0.01878300 -0.00176100 0.01243700
v 0.02198500 -0.00176100 0.01237700
v 0.01877800 -0.00196800 0.01216800
v 0.02198000 -0.00196800 0.01210800
v 0.02197600 -0.00223800 0.01190100
v 0.01877400 -0.00223800 0.01196100
v 0.02197400 -0.00255100 0.01177100
v 0.01877200 -0.00255100 0.01183100
v 0.02197300 -0.00288800 0.01172600
v 0.01877100 -0.00288800 0.01178700
v 0.02199700 0.00361700 0.01302700
v 0.01878900 0.00357200 0.01275100
v 0.01879600 0.00361700 0.01308800
v 0.02199100 0.00357200 0.01269100
v 0.01878300 0.00344200 0.01243700
v 0.02198500 0.00344200 0.01237700
v 0.01877800 0.00323600 0.01216800
v 0.02198000 0.00323600 0.01210800
v 0.02197600 0.00296600 0.01190100
v 0.01877400 0.00296600 0.01196100
v 0.02197400 0.00265200 0.01177100
v 0.01877200 0.00265200 0.01183100
v 0.02197300 0.00231600 0.01172600
v 0.01877100 0.00231600 0.01178700
v 0.01877200 0.00197900 0.01183100
v 0.02197400 0.00197900 0.01177100
v 0.01877400 0.00166500 0.01196100
v 0.02197600 0.00166500 0.01190100
v 0.01877800 0.00139600 0.01216800
v 0.02198000 0.00139600 0.01210800
v 0.02198500 0.00118900 0.01237700
v 0.01878300 0.00118900 0.01243700
v 0.02199100 0.00105900 0.01269100
v 0.01878900 0.00105900 0.01275100
v 0.02199700 0.00101500 0.01302700
v 0.01879600 0.00101500 0.01308800
v 0.02200400 0.00105900 0.01336400
v 0.01880200 0.00105900 0.01342400
v 0.02201000 0.00118900 0.01367800
v 0.01880800 0.00118900 0.01373800
v 0.02201500 0.00139600 0.01394700
v 0.01881300 0.00139600 0.01400700
v 0.01881700 0.00166500 0.01421400
v 0.02201900 0.00166500 0.01415400
v 0.01881900 0.00197900 0.01434400
v 0.02202100 0.00197900 0.01428400
v 0.01882000 0.00231600 0.01438800
v 0.02202200 0.00231600 0.01432800
v 0.02202100 0.00265200 0.01428400
v 0.01881900 0.00265200 0.01434400
v 0.02201900 0.00296600 0.01415400
v 0.01881700 0.00296600 0.01421400
v 0.02201500 0.00323600 0.01394700
v 0.01881300 0.00323600 0.01400700
v 0.01880800 0.00344200 0.01373800
v 0.02201000 0.00344200 0.01367800
v 0.01880200 0.00357200 0.01342400
v 0.02200400 0.00357200 0.01336400
v 0.01894600 -0.02777500 -0.02449500
v 0.01734500 -0.02757200 -0.02449500
v 0.01894600 -0.02757200 -0.02449500
v 0.01654500 -0.02777500 -0.02449500
v 0.01734500 -0.02561800 -0.02449500
v 0.01654500 -0.03237600 -0.02449500
v 0.01894600 -0.03021900 -0.02449500
v -0.02508600 0.03247100 -0.02449500
v 0.01654500 0.03167100 -0.02449500
v 0.01654500 0.03247100 -0.02449500
v -0.02508600 0.03167100 -0.02449500
v 0.01654500 0.03247100 -0.02129200
v -0.02508600 0.03247100 -0.02129200
v 0.01654500 -0.02597100 0.06347000
v 0.01750700 -0.00523600 0.06347000
v 0.01734500 -0.02597100 0.06347000
v 0.01654500 -0.00035200 0.06347000
v 0.01718400 0.00463800 0.05870900
v 0.01814600 0.00466800 0.06347000
v 0.01718400 0.00463800 0.06347000
v 0.01814600 0.00466800 0.05870900
v 0.01654500 0.02523600 0.06347000
v 0.01654500 0.02523600 0.05870900
v 0.01750700 0.02526600 0.06347000
v 0.01750700 0.02526600 0.05870900
v 0.01814600 -0.00035200 0.06347000
v 0.01654500 0.02526600 0.06347000
v 0.01974700 -0.00035200 0.06343900
v 0.01654500 -0.00035200 -0.02129200
v 0.01814600 -0.00035200 -0.02132200
v 0.01654500 -0.00529800 -0.02129200
v 0.01814600 -0.00529800 0.06347000
v 0.01654500 0.00466800 -0.02129200
v 0.01814500 -0.00523600 -0.02129200
v 0.01654500 -0.00529800 -0.01648900
v 0.01814500 -0.00523600 -0.01648900
v 0.01734500 -0.02597100 -0.02129200
v 0.01734500 -0.02597100 -0.01648900
v 0.01814600 0.02526600 -0.02129200
v 0.01734500 0.02526600 -0.01648900
v 0.01814600 0.02526600 -0.01648900
v 0.01734500 0.02526600 -0.02129200
v 0.01734500 0.00490700 -0.02129200
v 0.01734500 0.00490700 -0.01648900
v 0.01734500 0.02686700 -0.05651800
v 0.01894600 0.03167100 -0.05651800
v 0.01894600 0.02686700 -0.05651800
v 0.01654500 0.02686700 -0.05651800
v 0.01654500 0.03167100 -0.05651800
v 0.01654500 -0.03237600 -0.05651800
v 0.01504400 -0.03181900 -0.04050600
v 0.01654500 -0.03237600 -0.04050600
v 0.01504400 -0.03181900 -0.05651800
v 0.01504400 -0.03181900 -0.02449500
v 0.01654500 0.03167100 -0.04050600
v 0.01734500 -0.03237600 -0.06462400
v 0.01734500 -0.02757200 -0.05651800
v 0.01734500 -0.02757200 -0.06462400
v 0.01734500 -0.03237600 -0.05651800
v 0.01894600 -0.02757200 -0.05651800
v 0.01894600 -0.03237600 -0.05651800
v -0.02508600 0.03167100 -0.02129200
v 0.01654500 0.03167100 -0.02129200
v 0.01654500 -0.03237600 0.06507100
v 0.01504400 -0.03181900 0.06507100
v 0.01654500 -0.02777500 0.06507100
v -0.02508600 0.03247100 0.06507100
v 0.01654500 0.03167100 0.06507100
v 0.01654500 0.03247100 0.06507100
v -0.02508600 0.03167100 0.06507100
v 0.01894500 -0.02590900 -0.01648900
v 0.01894600 0.00490700 -0.01648900
v 0.01894600 0.02526600 -0.01648900
v 0.01894600 0.00490700 -0.02129200
v 0.01894600 0.02526600 -0.02129200
v 0.01894600 -0.02757200 -0.06462400
v 0.01750700 -0.00523600 0.05870900
v 0.01734500 -0.02597100 0.05870900
v 0.01734500 -0.03077500 0.06347000
v 0.01734500 -0.03077500 -0.02129200
v 0.01894500 -0.02590900 -0.02129200
v 0.01814600 -0.00529800 -0.02129200
v 0.01974700 -0.00529800 0.06343900
v 0.01814600 -0.00529800 -0.02132200
v 0.01654500 -0.02597100 -0.02129200
v 0.01974700 0.00466800 0.06343900
v 0.01814600 0.00466800 -0.02132200
v 0.01814600 0.02526600 0.06347000
v 0.01654500 0.02526600 -0.02129200
v 0.01894600 -0.03237600 -0.06462400
v 0.01894600 -0.02757200 -0.04050600
v 0.01734500 -0.02757200 -0.04050600
v 0.01734500 0.02686700 -0.02449500
v 0.01734500 0.02686700 -0.04050600
v 0.01894600 0.02686700 -0.02449500
v 0.01894600 0.02686700 -0.04050600
v 0.01894600 0.03167100 -0.04050600
v 0.01894600 0.03167100 -0.02449500
v 0.01814600 0.03007000 -0.02129200
v 0.01734500 0.03007000 0.06347000
v 0.01814600 0.03007000 0.06347000
v 0.01734500 0.03007000 -0.02129200
v 0.01814600 -0.02597100 0.06347000
v 0.01814600 -0.03077500 0.06347000
v 0.01814600 -0.03077500 -0.02129200
v 0.01654500 -0.03077500 -0.02129200
v 0.01654500 0.03007000 -0.02129200
v 0.01894600 -0.03237600 -0.04050600
v 0.01894600 -0.03237600 -0.02449500
v 0.01734500 0.03167100 -0.02129200
v 0.01734500 0.03167100 0.06347000
v 0.01814600 0.03167100 0.06347000
v -0.02508600 -0.03237600 0.06827300
v 0.01654500 -0.03317600 0.06827300
v 0.01654500 -0.03237600 0.06827300
v -0.02508600 -0.03317600 0.06827300
v 0.01974700 -0.03237600 0.06827300
v 0.01974700 0.03167100 0.06587100
v 0.01974700 0.03167100 0.06827300
v 0.01974700 -0.03237600 0.06587100
v 0.01814600 -0.03237600 0.06587100
v 0.01814600 0.03167100 0.06587100
v 0.01814600 -0.03237600 0.06347000
v 0.01814600 -0.03237600 -0.02129200
v 0.01654500 -0.03237600 -0.02129200
v 0.01654500 -0.03317600 -0.02129200
v 0.01654500 -0.03317600 -0.02449500
v 0.01894600 0.03167100 -0.06462400
v 0.01894600 0.02686700 -0.06462400
v 0.01654500 -0.03237600 -0.06462400
v 0.01654500 0.02686700 -0.06462400
v -0.02508600 0.03167100 -0.06462400
v -0.02508600 0.03167100 0.06827300
v 0.01654500 0.03167100 0.06827300
v -0.02508600 -0.03237600 0.06507100
v -0.02508600 -0.03237600 -0.02129200
v -0.02508600 -0.03317600 -0.02129200
v -0.02508600 -0.03317600 -0.02449500
v -0.02508600 -0.03237600 -0.02449500
v -0.02508600 -0.02253700 -0.06331700
v 0.01654500 -0.01816200 -0.06224200
v 0.01654500 -0.02253700 -0.06331700
v -0.02508600 -0.01816200 -0.06224200
v 0.01654500 -0.01373600 -0.06140300
v -0.02508600 -0.01373600 -0.06140300
v 0.01654500 -0.00927200 -0.06080200
v -0.02508600 -0.00927200 -0.06080200
v 0.01654500 -0.00478200 -0.06044100
v -0.02508600 -0.00478200 -0.06044100
v 0.01654500 -0.00027900 -0.06032100
v -0.02508600 -0.00027900 -0.06032100
v 0.01654500 0.00422400 -0.06044100
v -0.02508600 0.00422400 -0.06044100
v 0.01654500 0.00871500 -0.06080200
v -0.02508600 0.00871500 -0.06080200
v 0.01654500 0.01317900 -0.06140300
v -0.02508600 0.01317900 -0.06140300
v 0.01654500 0.01760500 -0.06224200
v -0.02508600 0.01760500 -0.06224200
v 0.01654500 0.02198000 -0.06331700
v -0.02508600 0.02198000 -0.06331700
v 0.01654500 0.02629100 -0.06462400
v -0.02508600 0.02629100 -0.06462400
v -0.02508600 -0.03237600 -0.06462400
v 0.01654500 -0.02684800 -0.06462400
v -0.02508600 -0.02684800 -0.06462400
v 0.01654500 -0.03317600 0.06507100
v -0.02508600 -0.03317600 0.06507100
v 0.01654500 0.03247100 0.06827300
v -0.02508600 0.03247100 0.06827300
vn 0.90453403 -0.30151134 -0.30151134
vn 0.57735027 -0.57735027 0.57735027
vn 0.90453403 -0.30151134 0.30151134
vn 0.57735027 -0.57735027 -0.57735027
vn 0.90453403 0.30151134 0.30151134
vn 0.57735027 0.57735027 0.57735027
vn 0.57735027 0.57735027 -0.57735027
vn 0.90453403 0.30151134 -0.30151134
vn 0.90453403 -0.30151134 -0.30151134
vn 0.57735027 -0.57735027 0.57735027
vn 0.90453403 -0.30151134 0.30151134
vn 0.57735027 -0.57735027 -0.57735027
vn 0.90453403 0.30151134 0.30151134
vn 0.57735027 0.57735027 0.57735027
vn 0.57735027 0.57735027 -0.57735027
vn 0.90453403 0.30151134 -0.30151134
vn 0.72690716 -0.33789714 -0.59785576
vn 0.66583440 -0.19066769 -0.72132543
vn 0.66622010 -0.36822077 -0.64850925
vn 0.72507694 -0.17496195 -0.66607188
vn 0.72813484 -0.47782847 -0.49142610
vn 0.66930993 -0.51894959 -0.53171001
vn 0.67146121 -0.63599768 -0.38032460
vn 0.73164965 -0.58397913 -0.35164921
vn 0.67491657 -0.70951680 -0.20266608
vn 0.76660083 -0.61354931 -0.18942125
vn 0.67482109 -0.73786415 -0.01315220
vn 0.73722909 -0.67550204 -0.01379369
vn 0.68236261 -0.70938123 0.17652063
vn 0.74716846 -0.64488374 0.16082369
vn 0.68583165 -0.63554446 0.35456759
vn 0.74391155 -0.58461064 0.32376845
vn 0.68879181 -0.51915376 0.50600911
vn 0.74634231 -0.47754299 0.46360095
vn 0.74863833 -0.33778130 0.57047738
vn 0.69084762 -0.36714234 0.62284514
vn 0.75022253 -0.17377744 0.63794009
vn 0.69178520 -0.18952220 0.69678876
vn 0.74992245 -0.00001368 0.66152575
vn 0.69285142 -0.00002448 0.72108038
vn 0.69167995 0.19003580 0.69675336
vn 0.75032328 0.17416528 0.63771579
vn 0.69125465 0.36668151 0.62266499
vn 0.74829416 0.33774215 0.57095191
vn 0.68859721 0.51882652 0.50660924
vn 0.74654309 0.47697594 0.46386137
vn 0.74427272 0.58469851 0.32277821
vn 0.68553897 0.63627031 0.35383105
vn 0.74235552 0.65031601 0.16123699
vn 0.68303800 0.70876068 0.17640121
vn 0.73804211 0.67461272 -0.01383901
vn 0.67430792 0.73833328 -0.01314495
vn 0.73727877 0.64844281 -0.18958359
vn 0.67559494 0.70889663 -0.20257605
vn 0.73190662 0.58423082 -0.35069511
vn 0.67119616 0.63672342 -0.37957739
vn 0.72837580 0.47719272 -0.49168669
vn 0.66909239 0.51862328 -0.53230186
vn 0.66663218 0.36776507 -0.64834434
vn 0.72654400 0.33795370 -0.59826509
vn 0.66573081 0.19118226 -0.72128485
vn 0.72526593 0.17520385 -0.66580248
vn 0.66447608 -0.00002439 -0.74730954
vn 0.72462077 0.00002037 -0.68914783
vn 0.67430792 0.73833328 -0.01314495
vn 0.73771121 0.64771481 -0.19038827
vn 0.73803970 0.67461539 -0.01383761
vn 0.67529544 0.70888805 -0.20360205
vn 0.73128743 0.58474548 -0.35112878
vn 0.67171845 0.63623734 -0.37946853
vn 0.72867201 0.47753463 -0.49091524
vn 0.66886007 0.51938812 -0.53184790
vn 0.66651132 0.36745784 -0.64864273
vn 0.72667898 0.33754681 -0.59833085
vn 0.66588860 0.19088195 -0.72121873
vn 0.72507734 0.17501243 -0.66605818
vn 0.66443507 0.00011870 -0.74734598
vn 0.72466793 0.00014733 -0.68909823
vn 0.72507900 -0.17495856 -0.66607052
vn 0.66583440 -0.19066769 -0.72132543
vn 0.72690691 -0.33789928 -0.59785485
vn 0.66622010 -0.36822077 -0.64850925
vn 0.72813618 -0.47782675 -0.49142579
vn 0.66930993 -0.51894959 -0.53171001
vn 0.67146121 -0.63599768 -0.38032460
vn 0.73164471 -0.58398471 -0.35165021
vn 0.67491657 -0.70951680 -0.20266608
vn 0.75969977 -0.62208337 -0.18938990
vn 0.67482109 -0.73786415 -0.01315220
vn 0.73733518 -0.67538627 -0.01379213
vn 0.68236261 -0.70938123 0.17652063
vn 0.74677398 -0.64533652 0.16083965
vn 0.68583165 -0.63554446 0.35456759
vn 0.74391397 -0.58460784 0.32376795
vn 0.68879181 -0.51915376 0.50600911
vn 0.74634143 -0.47754415 0.46360118
vn 0.74863843 -0.33777991 0.57047807
vn 0.69084762 -0.36714234 0.62284514
vn 0.75022125 -0.17377971 0.63794098
vn 0.69178520 -0.18952220 0.69678876
vn 0.74996760 0.00011700 0.66147455
vn 0.69281290 0.00011620 0.72111738
vn 0.69183424 0.18973499 0.69668216
vn 0.75014590 0.17397429 0.63797655
vn 0.69114283 0.36637879 0.62296724
vn 0.74843199 0.33733928 0.57100943
vn 0.68834779 0.51959118 0.50616432
vn 0.74681238 0.47731402 0.46307947
vn 0.74366850 0.58521396 0.32323643
vn 0.68605858 0.63578151 0.35370256
vn 0.74274924 0.64967013 0.16202560
vn 0.68277569 0.70875447 0.17743857
vn 1.00000000 0.00000000 -0.00000000
vn 0.70710678 0.70710678 0.00000000
vn 0.70710678 0.70710678 0.00000000
vn 1.00000000 0.00000000 -0.00003940
vn 0.74812933 0.00000000 0.66355295
vn 0.89324352 -0.28347417 -0.34893898
vn 0.96614903 0.00000000 0.25798459
vn -1.00000000 -0.00000000 -0.00000000
vn 0.80178373 0.53452248 0.26726124
vn 1.00000000 0.00000000 0.00000000
vn -0.70710678 0.70710678 0.00000000
vn 0.70710678 -0.00000000 -0.70710678
vn -0.70710678 0.00000000 -0.70710678
vn 0.57735027 0.57735027 -0.57735027
vn 0.24252822 -0.00189484 -0.97014250
vn 0.53481403 0.26532191 -0.80223328
vn 0.66666667 -0.33333333 -0.66666667
vn -0.55912626 -0.59502466 -0.57734173
vn 0.90191922 0.01372143 -0.43168675
vn -0.22824417 -0.24289847 -0.94281755
vn 0.59501586 -0.55911799 -0.57735881
vn 0.39981977 0.39948798 -0.82495667
vn -0.59501586 0.55911799 -0.57735881
vn 0.39533764 0.42072008 -0.81651869
vn 0.55912626 0.59502466 -0.57734173
vn 0.70608056 0.21179695 0.67571613
vn 0.57735027 -0.57735027 -0.57735027
vn 0.67928778 0.33335243 0.65379222
vn 0.66633143 0.33535123 -0.66598948
vn 0.65402399 0.33331237 -0.67908430
vn 0.69582762 -0.01407911 -0.71807082
vn 0.58125664 -0.56994567 0.58077763
vn 0.90508747 0.30354464 -0.29778738
vn 0.56187123 0.59357198 -0.57617099
vn -0.59925697 0.55457604 0.57735301
vn 0.55467044 0.59924759 0.57727206
vn 0.01326307 -0.01274224 -0.99983085
vn -0.56915393 0.57007232 0.59252119
vn 0.26726124 0.53452248 -0.80178373
vn -0.40824829 -0.81649658 0.40824829
vn 0.66666667 0.33333333 0.66666667
vn -0.31622777 0.00000000 -0.94868330
vn -0.57735027 -0.57735027 -0.57735027
vn -0.57735027 -0.57735027 0.57735027
vn 0.30151134 -0.30151134 -0.90453403
vn 0.66666667 0.66666667 -0.33333333
vn 0.66666667 -0.66666667 -0.33333333
vn 0.80178373 -0.26726124 -0.53452248
vn 0.23570226 0.94280904 -0.23570226
vn 0.58897875 -0.76822967 -0.25085297
vn 0.34790423 0.93753008 0.00000000
vn 0.78535435 -0.61904648 0.00000000
vn 0.34790423 0.93753008 0.00000000
vn 0.24601103 0.66294894 -0.70709071
vn 0.00000000 1.00000000 0.00000000
vn -0.40824829 -0.81649658 -0.40824829
vn -0.00000000 0.89442719 -0.44721360
vn -0.57735027 0.57735027 -0.57735027
vn -0.21821789 -0.87287156 -0.43643578
vn 0.66666667 0.66666667 -0.33333333
vn 0.66666667 -0.66666667 -0.33333333
vn -0.57735027 0.57735027 -0.57735027
vn 0.57735027 0.57735027 -0.57735027
vn 0.00000000 0.00000000 -1.00000000
vn 0.00000000 0.00000000 -1.00000000
vn 0.00000000 0.00000000 -1.00000000
vn 0.00000000 -0.00000000 -0.00000000
vn 0.00000000 0.00000000 -0.00000000
vn 0.00000000 0.00000000 0.00000000
vn 0.00000000 1.00000000 0.00000000
vn 0.59927571 -0.55456118 0.57734784
vn 0.57735027 -0.57735027 0.57735027
vn 0.57735027 0.57735027 0.57735027
vn 0.57735027 -0.57735027 -0.57735027
vn 0.57735027 0.57735027 -0.57735027
vn 0.57735027 0.57735027 -0.57735027
vn 0.99996948 -0.00781264 0.00000000
vn 0.44860406 0.89373061 0.00000000
vn 0.57735027 0.57735027 -0.57735027
vn 0.30151134 0.30151134 -0.90453403
vn 0.59927761 -0.55455744 -0.57734944
vn 0.81700177 -0.39985661 -0.41547901
vn 0.58827189 -0.57737529 0.56619252
vn 0.57240057 -0.57637143 -0.58322686
vn 0.80178373 0.26726124 -0.53452248
vn 0.58827198 0.57737537 0.56619233
vn 0.56638414 0.57735849 -0.58810388
vn 0.90453403 -0.30151134 -0.30151134
vn 0.90453403 -0.30151134 -0.30151134
vn 0.57735027 -0.57735027 -0.57735027
vn 0.70710678 0.70710678 0.00000000
vn 0.70710678 0.70710678 0.00000000
vn 0.30151134 -0.30151134 0.90453403
vn 0.70710678 -0.70710678 0.00000000
vn 0.57735027 -0.57735027 0.57735027
vn 0.70710678 -0.70710678 0.00000000
vn 0.70710678 0.70710678 0.00000000
vn 0.57735027 0.57735027 0.57735027
vn 0.57735027 0.57735027 -0.57735027
vn 0.57735027 0.57735027 -0.57735027
vn 0.90453403 0.30151134 -0.30151134
vn 0.30151134 0.30151134 -0.90453403
vn 0.70710678 0.00000000 -0.70710678
vn 0.90453403 0.30151134 -0.30151134
vn 0.57735027 0.57735027 -0.57735027
vn 0.70710678 0.00000000 -0.70710678
vn 0.70710678 0.00000000 -0.70710678
vn 0.70710678 -0.70710678 0.00000000
vn 0.57735027 -0.57735027 0.57735027
vn 0.57735027 0.57735027 -0.57735027
vn 0.30151134 0.90453403 -0.30151134
vn 0.57735027 0.57735027 -0.57735027
vn -0.40824829 -0.40824829 0.81649658
vn 0.00000000 -0.00000000 1.00000000
vn 0.00000000 0.00000000 1.00000000
vn 0.00000000 0.00000000 1.00000000
vn 0.57735027 -0.57735027 0.57735027
vn 0.57735027 0.57735027 -0.57735027
vn 0.57735027 0.57735027 0.57735027
vn 0.57735027 -0.57735027 -0.57735027
vn 0.30151134 -0.90453403 -0.30151134
vn 0.30151134 0.90453403 -0.30151134
vn 0.70710678 -0.70710678 0.00000000
vn 0.57735027 -0.57735027 -0.57735027
vn 0.70710678 -0.70710678 0.00000000
vn 0.57735027 -0.57735027 0.57735027
vn 0.57735027 -0.57735027 -0.57735027
vn 0.57735027 0.57735027 -0.57735027
vn 0.57735027 -0.57735027 -0.57735027
vn 0.40824829 -0.81649658 -0.40824829
vn 0.30151134 -0.30151134 -0.90453403
vn -0.57735027 0.57735027 -0.57735027
vn -0.57735027 0.57735027 0.57735027
vn 0.00000000 0.00000000 1.00000000
vn -0.70710678 -0.70710678 -0.00000000
vn -0.90453403 -0.30151134 0.30151134
vn -0.57735027 -0.57735027 0.57735027
vn -0.57735027 -0.57735027 -0.57735027
vn -0.90453403 -0.30151134 -0.30151134
vn -0.71316866 0.18539220 -0.67603269
vn 0.71318849 0.14896158 -0.68496177
vn 0.71316866 0.18539220 -0.67603269
vn -0.71318849 0.14896158 -0.68496177
vn 0.71317806 0.11208304 -0.69196419
vn -0.71317806 0.11208304 -0.69196419
vn 0.71318820 0.07488062 -0.69696161
vn -0.71318820 0.07488062 -0.69696161
vn 0.71318661 0.03743905 -0.69997370
vn -0.71318661 0.03743905 -0.69997370
vn 0.71315224 -0.00000000 -0.70100919
vn -0.71315224 0.00000000 -0.70100919
vn 0.71318458 -0.03743294 -0.69997610
vn -0.71318458 -0.03743294 -0.69997610
vn 0.71319023 -0.07487420 -0.69696022
vn -0.71319023 -0.07487420 -0.69696022
vn 0.71317806 -0.11208304 -0.69196419
vn -0.71317806 -0.11208304 -0.69196419
vn 0.71318849 -0.14896158 -0.68496177
vn -0.71318849 -0.14896158 -0.68496177
vn 0.71316866 -0.18539220 -0.67603269
vn -0.71316866 -0.18539220 -0.67603269
vn 0.67553978 -0.10813147 -0.72935149
vn -0.67553978 -0.10813147 -0.72935149
vn -0.57735027 -0.57735027 -0.57735027
vn 0.67553978 0.10813147 -0.72935149
vn -0.67553978 0.10813147 -0.72935149
vn 0.00000000 0.00000000 -0.00000000
vn 0.00000000 -0.00000000 0.00000000
vn 0.00000000 -0.00000000 0.00000000
vn 0.00000000 0.00000000 -0.00000000
f 1//1 2//2 3//3
f 2//2 1//1 4//4
f 5//5 2//2 6//6
f 2//2 5//5 3//3
f 7//7 5//5 6//6
f 5//5 7//7 8//8
f 1//1 7//7 4//4
f 7//7 1//1 8//8
f 2//2 7//7 6//6
f 7//7 2//2 4//4
f 9//9 10//10 11//11
f 10//10 9//9 12//12
f 13//13 10//10 14//14
f 10//10 13//13 11//11
f 15//15 13//13 14//14
f 13//13 15//15 16//16
f 9//9 15//15 12//12
f 15//15 9//9 16//16
f 10//10 15//15 14//14
f 15//15 10//10 12//12
f 17//17 18//18 19//19
f 18//18 17//17 20//20
f 21//21 19//19 22//22
f 19//19 21//21 17//17
f 21//21 23//23 24//24
f 23//23 21//21 22//22
f 24//24 25//25 26//26
f 25//25 24//24 23//23
f 26//26 27//27 28//28
f 27//27 26//26 25//25
f 28//28 29//29 30//30
f 29//29 28//28 27//27
f 30//30 31//31 32//32
f 31//31 30//30 29//29
f 32//32 33//33 34//34
f 33//33 32//32 31//31
f 35//35 33//33 36//36
f 33//33 35//35 34//34
f 37//37 36//36 38//38
f 36//36 37//37 35//35
f 39//39 38//38 40//40
f 38//38 39//39 37//37
f 41//41 39//39 40//40
f 39//39 41//41 42//42
f 43//43 42//42 41//41
f 42//42 43//43 44//44
f 45//45 44//44 43//43
f 44//44 45//45 46//46
f 45//45 47//47 46//46
f 47//47 45//45 48//48
f 48//48 49//49 47//47
f 49//49 48//48 50//50
f 50//50 51//51 49//49
f 51//51 50//50 52//52
f 52//52 53//53 51//51
f 53//53 52//52 54//54
f 54//54 55//55 53//53
f 55//55 54//54 56//56
f 56//56 57//57 55//55
f 57//57 56//56 58//58
f 59//59 57//57 58//58
f 57//57 59//59 60//60
f 61//61 60//60 59//59
f 60//60 61//61 62//62
f 63//63 62//62 61//61
f 62//62 63//63 64//64
f 20//20 63//63 18//18
f 63//63 20//20 64//64
f 50//50 54//54 52//52
f 48//48 54//54 50//50
f 48//48 56//56 54//54
f 45//45 56//56 48//48
f 45//45 58//58 56//56
f 43//43 58//58 45//45
f 43//43 59//59 58//58
f 41//41 59//59 43//43
f 41//41 61//61 59//59
f 40//40 61//61 41//41
f 40//40 63//63 61//61
f 38//38 63//63 40//40
f 38//38 18//18 63//63
f 36//36 18//18 38//38
f 36//36 19//19 18//18
f 33//33 19//19 36//36
f 33//33 22//22 19//19
f 33//33 23//23 22//22
f 31//31 23//23 33//33
f 29//29 23//23 31//31
f 29//29 25//25 23//23
f 25//25 29//29 27//27
f 65//65 66//66 67//67
f 66//66 65//65 68//68
f 68//68 69//69 66//66
f 69//69 68//68 70//70
f 70//70 71//71 69//69
f 71//71 70//70 72//72
f 73//73 71//71 72//72
f 71//71 73//73 74//74
f 75//75 74//74 73//73
f 74//74 75//75 76//76
f 77//77 76//76 75//75
f 76//76 77//77 78//78
f 79//79 77//77 80//80
f 77//77 79//79 78//78
f 81//81 80//80 82//82
f 80//80 81//81 79//79
f 83//83 82//82 84//84
f 82//82 83//83 81//81
f 83//83 85//85 86//86
f 85//85 83//83 84//84
f 86//86 87//87 88//88
f 87//87 86//86 85//85
f 88//88 89//89 90//90
f 89//89 88//88 87//87
f 90//90 91//91 92//92
f 91//91 90//90 89//89
f 92//92 93//93 94//94
f 93//93 92//92 91//91
f 94//94 95//95 96//96
f 95//95 94//94 93//93
f 97//97 95//95 98//98
f 95//95 97//97 96//96
f 99//99 98//98 100//100
f 98//98 99//99 97//97
f 101//101 100//100 102//102
f 100//100 101//101 99//99
f 103//103 101//101 102//102
f 101//101 103//103 104//104
f 105//105 104//104 103//103
f 104//104 105//105 106//106
f 107//107 106//106 105//105
f 106//106 107//107 108//108
f 107//107 109//109 108//108
f 109//109 107//107 110//110
f 110//110 111//111 109//109
f 111//111 110//110 112//112
f 112//112 67//67 111//111
f 67//67 112//112 65//65
f 112//112 68//68 65//65
f 110//110 68//68 112//112
f 110//110 70//70 68//68
f 107//107 70//70 110//110
f 107//107 72//72 70//70
f 105//105 72//72 107//107
f 105//105 73//73 72//72
f 103//103 73//73 105//105
f 103//103 75//75 73//73
f 102//102 75//75 103//103
f 102//102 77//77 75//75
f 100//100 77//77 102//102
f 100//100 80//80 77//77
f 98//98 80//80 100//100
f 98//98 82//82 80//80
f 95//95 82//82 98//98
f 95//95 84//84 82//82
f 95//95 85//85 84//84
f 93//93 85//85 95//95
f 91//91 85//85 93//93
f 91//91 87//87 85//85
f 87//87 91//91 89//89
f 113//113 114//114 115//115
f 114//114 116//116 117//117
f 116//116 114//114 113//113
f 118//118 113//113 119//119
f 113//113 118//118 116//116
f 120//120 121//121 122//122
f 121//121 120//120 123//123
f 120//120 124//124 125//125
f 124//124 120//120 122//122
f 126//126 127//127 128//128
f 127//127 126//126 129//129
f 130//130 131//131 132//132
f 131//131 130//130 133//133
f 130//130 134//134 135//135
f 134//134 130//130 132//132
f 132//132 136//136 131//131
f 136//136 132//132 134//134
f 137//137 134//134 136//136
f 134//134 137//137 135//135
f 138//138 132//132 131//131
f 129//129 132//132 138//138
f 132//132 129//129 134//134
f 136//136 134//134 139//139
f 140//140 141//141 138//138
f 141//141 140//140 142//142
f 143//143 138//138 141//141
f 138//138 143//143 144//144
f 129//129 141//141 138//138
f 141//141 131//131 145//145
f 131//131 141//141 138//138
f 146//146 147//147 148//148
f 147//147 146//146 143//143
f 149//149 147//147 143//143
f 147//147 149//149 150//150
f 151//151 152//152 153//153
f 152//152 151//151 154//154
f 155//155 152//152 154//154
f 152//152 155//155 156//156
f 157//157 158//158 159//159
f 160//160 158//158 157//157
f 158//158 160//160 161//161
f 162//162 163//163 164//164
f 163//163 162//162 165//165
f 164//164 166//166 118//118
f 166//166 164//164 163//163
f 121//121 161//161 167//167
f 121//121 160//160 161//161
f 116//116 160//160 121//121
f 118//118 160//160 116//116
f 164//164 160//160 118//118
f 160//160 164//164 162//162
f 118//118 166//166 116//116
f 168//168 169//169 170//170
f 169//169 168//168 171//171
f 171//171 172//172 173//173
f 172//172 171//171 169//169
f 174//174 124//124 175//175
f 124//124 174//174 125//125
f 176//176 177//177 178//178
f 179//179 180//180 181//181
f 180//180 179//179 182//182
f 130//130 137//137 133//133
f 137//137 130//130 135//135
f 148//148 150//150 183//183
f 150//150 148//148 147//147
f 153//153 184//184 185//185
f 152//152 184//184 153//153
f 184//184 152//152 156//156
f 155//155 184//184 156//156
f 184//184 155//155 186//186
f 184//184 187//187 185//185
f 187//187 184//184 186//186
f 188//188 169//169 172//172
f 169//169 188//188 170//170
f 187//187 153//153 185//185
f 153//153 187//187 151//151
f 131//131 137//137 136//136
f 137//137 131//131 133//133
f 128//128 189//189 127//127
f 189//189 128//128 190//190
f 128//128 150//150 190//190
f 128//128 149//149 150//150
f 191//191 149//149 128//128
f 149//149 191//191 192//192
f 149//149 183//183 150//150
f 183//183 149//149 193//193
f 148//148 194//194 146//146
f 183//183 194//194 148//148
f 194//194 183//183 193//193
f 144//144 194//194 195//195
f 143//143 194//194 144//144
f 194//194 143//143 196//196
f 140//140 51//51 142//142
f 140//140 49//49 51//51
f 140//140 47//47 49//49
f 140//140 46//46 47//47
f 140//140 44//44 46//46
f 140//140 42//42 44//44
f 140//140 39//39 42//42
f 140//140 37//37 39//39
f 140//140 35//35 37//37
f 140//140 34//34 35//35
f 140//140 32//32 34//34
f 140//140 30//30 32//32
f 140//140 28//28 30//30
f 28//28 140//140 195//195
f 53//53 142//142 51//51
f 55//55 142//142 53//53
f 57//57 142//142 55//55
f 60//60 142//142 57//57
f 62//62 142//142 60//60
f 64//64 142//142 62//62
f 20//20 142//142 64//64
f 17//17 142//142 20//20
f 21//21 142//142 17//17
f 24//24 142//142 21//21
f 26//26 142//142 24//24
f 28//28 142//142 26//26
f 194//194 28//28 195//195
f 194//194 142//142 28//28
f 142//142 194//194 196//196
f 190//190 126//126 128//128
f 150//150 126//126 190//190
f 149//149 126//126 150//150
f 126//126 149//149 197//197
f 198//198 67//67 199//199
f 198//198 111//111 67//67
f 198//198 109//109 111//111
f 198//198 108//108 109//109
f 198//198 106//106 108//108
f 198//198 104//104 106//106
f 198//198 101//101 104//104
f 198//198 99//99 101//101
f 198//198 97//97 99//99
f 198//198 96//96 97//97
f 198//198 94//94 96//96
f 198//198 92//92 94//94
f 198//198 90//90 92//92
f 90//90 198//198 140//140
f 66//66 199//199 67//67
f 69//69 199//199 66//66
f 71//71 199//199 69//69
f 74//74 199//199 71//71
f 76//76 199//199 74//74
f 78//78 199//199 76//76
f 79//79 199//199 78//78
f 81//81 199//199 79//79
f 83//83 199//199 81//81
f 86//86 199//199 83//83
f 88//88 199//199 86//86
f 90//90 199//199 88//88
f 90//90 142//142 199//199
f 142//142 90//90 140//140
f 198//198 145//145 131//131
f 145//145 198//198 199//199
f 139//139 200//200 136//136
f 139//139 152//152 200//200
f 201//201 152//152 139//139
f 152//152 201//201 154//154
f 200//200 152//152 153//153
f 186//186 151//151 187//187
f 155//155 151//151 186//186
f 151//151 155//155 154//154
f 173//173 188//188 172//172
f 188//188 173//173 202//202
f 168//168 188//188 202//202
f 188//188 168//168 170//170
f 113//113 114//114 116//116
f 117//117 116//116 114//114
f 115//115 114//114 113//113
f 203//203 114//114 115//115
f 114//114 203//203 204//204
f 172//172 204//204 203//203
f 204//204 172//172 169//169
f 205//205 5//5 206//206
f 205//205 3//3 5//5
f 3//3 117//117 1//1
f 117//117 3//3 205//205
f 8//8 206//206 5//5
f 1//1 206//206 8//8
f 117//117 206//206 1//1
f 114//114 206//206 117//117
f 206//206 114//114 204//204
f 206//206 207//207 205//205
f 207//207 206//206 208//208
f 207//207 209//209 210//210
f 209//209 207//207 208//208
f 210//210 205//205 207//207
f 205//205 210//210 121//121
f 211//211 212//212 213//213
f 212//212 211//211 214//214
f 200//200 211//211 213//213
f 153//153 211//211 200//200
f 211//211 153//153 151//151
f 131//131 136//136 200//200
f 131//131 140//140 198//198
f 140//140 131//131 138//138
f 138//138 195//195 140//140
f 195//195 138//138 144//144
f 215//215 138//138 144//144
f 215//215 127//127 138//138
f 127//127 215//215 128//128
f 138//138 127//127 129//129
f 191//191 215//215 216//216
f 215//215 191//191 128//128
f 217//217 191//191 216//216
f 191//191 217//217 192//192
f 116//116 118//118 113//113
f 119//119 113//113 118//118
f 218//218 149//149 192//192
f 149//149 218//218 197//197
f 149//149 194//194 193//193
f 149//149 146//146 194//194
f 197//197 146//146 149//149
f 146//146 197//197 143//143
f 143//143 142//142 196//196
f 142//142 143//143 141//141
f 129//129 143//143 141//141
f 126//126 143//143 129//129
f 143//143 126//126 197//197
f 141//141 199//199 142//142
f 199//199 141//141 145//145
f 134//134 201//201 139//139
f 134//134 145//145 201//201
f 129//129 145//145 134//134
f 145//145 129//129 141//141
f 154//154 211//211 151//151
f 154//154 214//214 211//211
f 201//201 214//214 154//154
f 214//214 201//201 219//219
f 121//121 117//117 205//205
f 117//117 121//121 116//116
f 208//208 158//158 209//209
f 158//158 208//208 159//159
f 220//220 172//172 203//203
f 172//172 220//220 173//173
f 168//168 173//173 171//171
f 173//173 168//168 202//202
f 119//119 118//118 221//221
f 113//113 203//203 115//115
f 119//119 203//203 113//113
f 221//221 203//203 119//119
f 203//203 221//221 220//220
f 206//206 13//13 157//157
f 206//206 11//11 13//13
f 11//11 204//204 9//9
f 204//204 11//11 206//206
f 16//16 157//157 13//13
f 9//9 157//157 16//16
f 204//204 157//157 9//9
f 157//157 204//204 169//169
f 157//157 208//208 206//206
f 208//208 157//157 159//159
f 158//158 167//167 209//209
f 167//167 158//158 161//161
f 209//209 121//121 210//210
f 121//121 209//209 167//167
f 212//212 222//222 223//223
f 222//222 212//212 214//214
f 212//212 224//224 213//213
f 224//224 212//212 223//223
f 219//219 222//222 214//214
f 222//222 219//219 175//175
f 225//225 226//226 227//227
f 226//226 225//225 228//228
f 229//229 230//230 231//231
f 230//230 229//229 232//232
f 233//233 230//230 232//232
f 230//230 233//233 234//234
f 234//234 213//213 224//224
f 234//234 200//200 213//213
f 234//234 131//131 200//200
f 234//234 138//138 131//131
f 234//234 144//144 138//138
f 234//234 215//215 144//144
f 234//234 216//216 215//215
f 233//233 216//216 234//234
f 216//216 233//233 235//235
f 235//235 217//217 216//216
f 217//217 235//235 236//236
f 236//236 192//192 217//217
f 237//237 192//192 236//236
f 192//192 237//237 218//218
f 175//175 122//122 124//124
f 175//175 121//121 122//122
f 219//219 121//121 175//175
f 201//201 121//121 219//219
f 145//145 121//121 201//201
f 141//141 121//121 145//145
f 143//143 121//121 141//141
f 197//197 121//121 143//143
f 197//197 116//116 121//121
f 218//218 116//116 197//197
f 237//237 116//116 218//218
f 237//237 118//118 116//116
f 238//238 118//118 237//237
f 118//118 238//238 239//239
f 159//159 240//240 158//158
f 240//240 159//159 241//241
f 162//162 220//220 164//164
f 171//171 220//220 162//162
f 220//220 171//171 173//173
f 242//242 171//171 162//162
f 171//171 242//242 168//168
f 164//164 221//221 118//118
f 221//221 164//164 220//220
f 171//171 157//157 169//169
f 162//162 157//157 171//171
f 157//157 162//162 160//160
f 160//160 159//159 157//157
f 243//243 159//159 160//160
f 159//159 243//243 241//241
f 158//158 240//240 161//161
f 167//167 123//123 121//121
f 161//161 123//123 167//167
f 240//240 123//123 161//161
f 123//123 240//240 244//244
f 123//123 120//120 121//121
f 122//122 121//121 120//120
f 122//122 120//120 124//124
f 125//125 124//124 120//120
f 231//231 245//245 246//246
f 230//230 245//245 231//231
f 234//234 245//245 230//230
f 234//234 182//182 245//245
f 224//224 182//182 234//234
f 223//223 182//182 224//224
f 222//222 182//182 223//223
f 175//175 182//182 222//222
f 182//182 175//175 174//174
f 246//246 229//229 231//231
f 246//246 227//227 229//229
f 245//245 227//227 246//246
f 227//227 245//245 225//225
f 225//225 229//229 227//227
f 225//225 233//233 229//229
f 247//247 233//233 225//225
f 247//247 235//235 233//233
f 248//248 235//235 247//247
f 237//237 235//235 248//248
f 235//235 237//237 236//236
f 229//229 233//233 232//232
f 248//248 238//238 237//237
f 238//238 248//248 249//249
f 250//250 238//238 249//249
f 238//238 250//250 239//239
f 250//250 118//118 239//239
f 118//118 250//250 251//251
f 252//252 253//253 254//254
f 253//253 252//252 255//255
f 255//255 256//256 253//253
f 256//256 255//255 257//257
f 257//257 258//258 256//256
f 258//258 257//257 259//259
f 259//259 260//260 258//258
f 260//260 259//259 261//261
f 261//261 262//262 260//260
f 262//262 261//261 263//263
f 263//263 264//264 262//262
f 264//264 263//263 265//265
f 265//265 266//266 264//264
f 266//266 265//265 267//267
f 267//267 268//268 266//266
f 268//268 267//267 269//269
f 269//269 270//270 268//268
f 270//270 269//269 271//271
f 271//271 272//272 270//270
f 272//272 271//271 273//273
f 273//273 274//274 272//272
f 274//274 273//273 275//275
f 274//274 275//275 243//243
f 243//243 240//240 241//241
f 275//275 240//240 243//243
f 240//240 275//275 244//244
f 251//251 164//164 118//118
f 251//251 162//162 164//164
f 276//276 162//162 251//251
f 162//162 276//276 242//242
f 160//160 274//274 243//243
f 160//160 272//272 274//274
f 160//160 270//270 272//272
f 160//160 268//268 270//270
f 160//160 266//266 268//268
f 160//160 264//264 266//266
f 160//160 262//262 264//264
f 160//160 260//260 262//262
f 160//160 258//258 260//260
f 162//162 258//258 160//160
f 162//162 256//256 258//258
f 162//162 253//253 256//256
f 162//162 254//254 253//253
f 162//162 277//277 254//254
f 277//277 162//162 242//242
f 278//278 254//254 277//277
f 254//254 278//278 252//252
f 250//250 248//248 251//251
f 248//248 250//250 249//249
f 244//244 174//174 123//123
f 244//244 182//182 174//174
f 244//244 245//245 182//182
f 275//275 245//245 244//244
f 273//273 245//245 275//275
f 271//271 245//245 273//273
f 269//269 245//245 271//271
f 267//267 245//245 269//269
f 265//265 245//245 267//267
f 263//263 245//245 265//265
f 261//261 245//245 263//263
f 259//259 245//245 261//261
f 257//257 245//245 259//259
f 255//255 245//245 257//257
f 252//252 245//245 255//255
f 278//278 245//245 252//252
f 276//276 245//245 278//278
f 251//251 245//245 276//276
f 248//248 245//245 251//251
f 247//247 245//245 248//248
f 245//245 247//247 225//225
f 123//123 125//125 120//120
f 125//125 123//123 174//174
f 276//276 277//277 242//242
f 277//277 276//276 278//278
f 279//279 280//280 226//226
f 228//228 226//226 280//280
f 280//280 226//226 228//228
f 226//226 280//280 279//279
f 247//247 280//280 176//176
f 279//279 176//176 280//280
f 280//280 176//176 279//279
f 176//176 280//280 247//247
f 182//182 179//179 180//180
f 181//181 180//180 179//179
f 181//181 179//179 281//281
f 282//282 281//281 179//179
f 179//179 281//281 282//282
f 281//281 179//179 181//181
f 282//282 245//245 281//281
f 246//246 281//281 245//245
f 245//245 281//281 246//246
f 281//281 245//245 282//282