# https://github.com/mikedh/trimesh
v -0.03015500 -0.08876300 -0.05674100
v -0.02319500 -0.08876400 -0.01621500
v -0.03015500 -0.08876400 -0.01621500
v -0.02319500 -0.08876300 -0.05674100
v 0.02681900 -0.09191100 0.09565500
v 0.02681900 -0.09191100 0.09712600
v 0.02681900 -0.06978300 0.09565500
v 0.02681900 -0.06978300 0.09712600
v 0.02681900 -0.06978300 0.09639000
v -0.03849500 0.07720200 0.08070400
v -0.03849500 0.07974700 0.08036500
v 0.03862300 0.07720200 0.08070400
v 0.03862300 0.07974700 0.08036500
v -0.03849500 0.08211800 0.07937900
v 0.03862300 0.08211800 0.07937900
v -0.03849500 0.08415300 0.07781300
v 0.03862300 0.08415300 0.07781300
v -0.03849500 0.08571300 0.07577400
v 0.03862300 0.08571300 0.07577400
v -0.03849500 0.08669300 0.07340000
v 0.03862300 0.08669300 0.07340000
v -0.03849500 0.07973400 -0.08122400
v -0.03849500 0.07718900 -0.08155500
v 0.03862300 0.07973400 -0.08122400
v 0.03862300 0.07718900 -0.08155500
v -0.03849500 0.08702500 0.07085400
v 0.03862300 0.08702500 0.07085400
v -0.03849500 0.08210900 -0.08024400
v 0.03862300 0.08210900 -0.08024400
v -0.03849500 0.08703800 -0.07173200
v 0.03862300 0.08703800 -0.07173200
v -0.03849500 0.08414700 -0.07868400
v 0.03862300 0.08414700 -0.07868400
v -0.03849500 0.08670000 -0.07427800
v 0.03862300 0.08670000 -0.07427800
v -0.03849500 0.08571300 -0.07664900
v 0.03862300 0.08571300 -0.07664900
v -0.03849500 -0.07893200 -0.08155500
v -0.03849500 -0.08147800 -0.08121700
v 0.03862300 -0.07893200 -0.08155500
v 0.03862300 -0.08147800 -0.08121700
v -0.03849500 -0.08146500 0.08037200
v -0.03849500 -0.07891900 0.08070400
v 0.03862300 -0.08146500 0.08037200
v 0.03862300 -0.07891900 0.08070400
v -0.03849500 -0.08384900 -0.08023100
v 0.03862300 -0.08384900 -0.08023100
v -0.03849500 -0.08383900 0.07939300
v 0.03862300 -0.08383900 0.07939300
v -0.03849500 -0.08588400 -0.07866500
v 0.03862300 -0.08588400 -0.07866500
v -0.03849500 -0.08587800 0.07783200
v 0.03862300 -0.08587800 0.07783200
v -0.03849500 -0.08744400 -0.07662600
v 0.03862300 -0.08744400 -0.07662600
v -0.03849500 -0.08744400 0.07579700
v 0.03862300 -0.08744400 0.07579700
v -0.03849500 -0.08842300 -0.07425200
v 0.03862300 -0.08842300 -0.07425200
v -0.03849500 -0.08843000 0.07342500
v 0.03862300 -0.08843000 0.07342500
v -0.03849500 -0.08875500 -0.07170600
v 0.03862300 -0.08875500 -0.07170600
v -0.03849500 -0.08876900 0.07088000
v 0.03862300 -0.08876900 0.07088000
v 0.03028300 -0.08876900 0.04047500
v 0.03028300 -0.08876900 0.04853200
v 0.03028300 -0.08876400 0.05538400
v -0.03015500 -0.08876900 0.04853200
v 0.03028300 -0.08876700 0.06344200
v -0.03015500 -0.08876900 0.06344200
v -0.03015500 -0.08876900 0.04047500
v -0.03015500 -0.08876400 0.05538400
v -0.03849500 0.07718900 0.08070400
v 0.03862300 0.07718900 0.08070400
v -0.03015500 -0.08837800 0.06344200
v 0.03028300 -0.08837700 0.06344200
v 0.03028300 -0.08837400 0.05538400
v -0.03015500 -0.08837400 0.05538400
v 0.03028300 -0.08837100 0.04853200
v 0.03028300 -0.08837100 0.04047500
v -0.03015500 -0.08837100 0.04047500
v -0.03015500 -0.08837100 0.04853200
v 0.03862300 0.09018400 -0.08470300
v 0.04019700 0.09018400 0.08385100
v 0.03862300 0.09018400 0.08385100
v 0.04019700 0.09018400 -0.08470300
v 0.04019700 -0.09191100 -0.08470300
v 0.03862300 -0.09191100 -0.08470300
v 0.03862300 -0.09191100 0.08385100
v 0.04019700 -0.09191100 0.08385100
v -0.02970300 0.06796500 0.09525300
v -0.03241500 0.06790200 0.09502900
v -0.02894800 0.06815000 0.09703000
v -0.02664800 0.06805500 0.09639000
v -0.03499400 0.06721300 0.09219800
v -0.03593200 0.06657300 0.09097600
v -0.03561000 0.06761900 0.09369900
v -0.03468800 0.06733600 0.09243300
v -0.03255000 0.06770200 0.09407400
v -0.03284500 0.06765200 0.09384700
v -0.03250800 0.06809700 0.09584100
v -0.03228100 0.06810300 0.09598500
v -0.03522900 0.06771100 0.09411400
v -0.03677500 0.06733600 0.09243300
v -0.03687000 0.06593500 0.08975300
v -0.03737600 0.06699400 0.09177900
v -0.03704200 0.06571800 0.08933800
v -0.03759300 0.06687000 0.09154300
v -0.03874600 0.06571800 0.08933800
v -0.03921100 0.06489900 0.08844800
v -0.03741100 0.06489900 0.08844800
v -0.03805000 0.06348200 0.08690600
v -0.03955600 0.06348200 0.08690600
v -0.03806800 0.06335400 0.08676700
v -0.03958700 0.06335400 0.08676700
v -0.03829500 0.06063300 0.08504000
v -0.03997300 0.06063300 0.08504000
v -0.03831400 0.06040500 0.08489500
v -0.03997900 0.06040500 0.08489500
v -0.03845200 0.05707300 0.08385100
v -0.04002600 0.05707300 0.08385100
v -0.02664800 0.06805500 0.09565500
v -0.02664800 0.06805500 0.09712600
v -0.03845200 0.09018400 0.08385100
v -0.03805000 0.09018400 0.08690600
v -0.03687000 0.09018400 0.08975300
v -0.03499400 0.09018400 0.09219800
v -0.03255000 0.09018400 0.09407400
v -0.02970300 0.09018400 0.09525300
v -0.02664800 0.09018400 0.09712600
v -0.02664800 0.09018400 0.09565500
v -0.02894800 0.09018400 0.09703000
v -0.03228100 0.09018400 0.09598500
v -0.03522900 0.09018400 0.09411400
v -0.03759300 0.09018400 0.09154300
v -0.03921100 0.09018400 0.08844800
v -0.03997300 0.09018400 0.08504000
v -0.04002600 0.09018400 0.08385100
v 0.02681900 0.06805500 0.09565500
v 0.02681900 0.06805500 0.09639000
v 0.02681900 0.06805500 0.09712600
v 0.02987400 0.06796500 0.09525300
v 0.02911900 0.06815000 0.09703000
v 0.03258600 0.06790200 0.09502900
v 0.03694600 0.06733600 0.09243300
v 0.03632200 0.06642400 0.09069000
v 0.03540000 0.06771100 0.09411400
v 0.03486000 0.06733600 0.09243300
v 0.03501300 0.06776600 0.09435900
v 0.03272100 0.06770200 0.09407400
v 0.03267900 0.06810000 0.09584100
v 0.03245200 0.06810300 0.09598500
v 0.02681900 0.09018400 0.09712600
v 0.02681900 0.09018400 0.09565500
v 0.03294000 0.06766400 0.09390600
v 0.03516600 0.06721300 0.09219800
v 0.03704100 0.06593500 0.08975300
v 0.03776400 0.06687000 0.09154300
v 0.03540000 0.09018400 0.09411400
v 0.03776400 0.09018400 0.09154300
v 0.03245200 0.09018400 0.09598500
v 0.02911900 0.09018400 0.09703000
v 0.02987400 0.09018400 0.09525300
v 0.03272100 0.09018400 0.09407400
v 0.03516600 0.09018400 0.09219800
v 0.03704100 0.09018400 0.08975300
v 0.03891700 0.06571800 0.08933800
v 0.03721300 0.06571800 0.08933800
v 0.03758200 0.06489900 0.08844800
v 0.03938200 0.06489900 0.08844800
v 0.03938200 0.09018400 0.08844800
v 0.03822100 0.09018400 0.08690600
v 0.04014400 0.09018400 0.08504000
v 0.03822100 0.06348200 0.08690600
v 0.03972700 0.06348200 0.08690600
v 0.03975800 0.06335400 0.08676700
v 0.04014400 0.06063300 0.08504000
v 0.04015000 0.06040500 0.08489500
v 0.04019700 0.05707300 0.08385100
v 0.03862300 0.05707300 0.08385100
v 0.03848500 0.06040500 0.08489500
v 0.03823900 0.06335400 0.08676700
v 0.02911900 -0.06987700 0.09703000
v 0.02987400 -0.06969300 0.09525300
v 0.03258600 -0.06963000 0.09502900
v 0.03776400 -0.06859800 0.09154300
v 0.03721300 -0.06744500 0.08933800
v 0.03891700 -0.06744500 0.08933800
v 0.03578100 -0.06934600 0.09369900
v 0.03610300 -0.06830100 0.09097600
v 0.03694600 -0.06906300 0.09243300
v 0.03540000 -0.06943900 0.09411400
v 0.03486000 -0.06906300 0.09243300
v 0.03267900 -0.06982400 0.09584100
v 0.03245200 -0.06983100 0.09598500
v 0.03272100 -0.06943000 0.09407400
v 0.03301600 -0.06937900 0.09384700
v 0.03516600 -0.06894000 0.09219800
v 0.03754700 -0.06872100 0.09177900
v 0.03704100 -0.06766200 0.08975300
v 0.03758200 -0.06662700 0.08844800
v 0.03938200 -0.06662700 0.08844800
v 0.03972700 -0.06520900 0.08690600
v 0.03822100 -0.06520900 0.08690600
v 0.03975800 -0.06508100 0.08676700
v 0.03823900 -0.06508100 0.08676700
v 0.03846600 -0.06236000 0.08504000
v 0.04014400 -0.06236000 0.08504000
v 0.03848500 -0.06213300 0.08489500
v 0.04015000 -0.06213300 0.08489500
v 0.03862300 -0.05880000 0.08385100
v 0.04019700 -0.05880000 0.08385100
v 0.04014400 -0.09191100 0.08504000
v 0.03938200 -0.09191100 0.08844800
v 0.03776400 -0.09191100 0.09154300
v 0.03540000 -0.09191100 0.09411400
v 0.03245200 -0.09191100 0.09598500
v 0.02911900 -0.09191100 0.09703000
v 0.02987400 -0.09191100 0.09525300
v 0.03272100 -0.09191100 0.09407400
v 0.03516600 -0.09191100 0.09219800
v 0.03704100 -0.09191100 0.08975300
v 0.03822100 -0.09191100 0.08690600
v -0.02894800 -0.06987700 0.09703000
v -0.02970300 -0.06969300 0.09525300
v -0.02664800 -0.06978300 0.09639000
v -0.02664800 -0.06978300 0.09712600
v -0.02664800 -0.06978300 0.09565500
v -0.03241500 -0.06963000 0.09502900
v -0.03522900 -0.06943900 0.09411400
v -0.03615100 -0.06815200 0.09069000
v -0.03499400 -0.06894000 0.09219800
v -0.03468800 -0.06906300 0.09243300
v -0.03250800 -0.06982800 0.09584100
v -0.03276900 -0.06939200 0.09390600
v -0.03255000 -0.06943000 0.09407400
v -0.02664800 -0.09191100 0.09565500
v -0.02664800 -0.09191100 0.09712600
v -0.03228100 -0.06983100 0.09598500
v -0.03484100 -0.06949400 0.09435900
v -0.03677500 -0.06906300 0.09243300
v -0.03759300 -0.06859800 0.09154300
v -0.03687000 -0.06766200 0.08975300
v -0.03687000 -0.09191100 0.08975300
v -0.03499400 -0.09191100 0.09219800
v -0.03255000 -0.09191100 0.09407400
v -0.02970300 -0.09191100 0.09525300
v -0.02894800 -0.09191100 0.09703000
v -0.03228100 -0.09191100 0.09598500
v -0.03522900 -0.09191100 0.09411400
v -0.03704200 -0.06744500 0.08933800
v -0.03874600 -0.06744500 0.08933800
v -0.03759300 -0.09191100 0.09154300
v -0.03921100 -0.06662700 0.08844800
v -0.03741100 -0.06662700 0.08844800
v -0.03805000 -0.09191100 0.08690600
v -0.03805000 -0.06520900 0.08690600
v -0.03921100 -0.09191100 0.08844800
v -0.03997300 -0.09191100 0.08504000
v -0.03845200 -0.09191100 0.08385100
v -0.04002600 -0.09191100 0.08385100
v -0.03955600 -0.06520900 0.08690600
v -0.03831400 -0.06213300 0.08489500
v -0.03845200 -0.05880000 0.08385100
v -0.03806800 -0.06508100 0.08676700
v -0.03997900 -0.06213300 0.08489500
v -0.04002600 -0.05880000 0.08385100
v -0.03997300 -0.06236000 0.08504000
v -0.03958700 -0.06508100 0.08676700
v -0.02970300 -0.06969300 -0.09610500
v -0.03241500 -0.06963000 -0.09588100
v -0.02894800 -0.06987700 -0.09788100
v -0.02664800 -0.06978300 -0.09724200
v -0.03499400 -0.06894000 -0.09305000
v -0.03593200 -0.06830100 -0.09182700
v -0.03561000 -0.06934600 -0.09455100
v -0.03468800 -0.06906300 -0.09328400
v -0.03255000 -0.06943000 -0.09492500
v -0.03284500 -0.06937900 -0.09469900
v -0.03250800 -0.06982400 -0.09669300
v -0.03228100 -0.06983100 -0.09683700
v -0.03522900 -0.06943900 -0.09496600
v -0.03677500 -0.06906300 -0.09328400
v -0.03687000 -0.06766200 -0.09060500
v -0.03737600 -0.06872100 -0.09263100
v -0.03704200 -0.06744500 -0.09019000
v -0.03759300 -0.06859800 -0.09239500
v -0.03874600 -0.06744500 -0.09019000
v -0.03921100 -0.06662700 -0.08930000
v -0.03741100 -0.06662700 -0.08930000
v -0.03805000 -0.06520900 -0.08775800
v -0.03955600 -0.06520900 -0.08775800
v -0.03806800 -0.06508100 -0.08761900
v -0.03958700 -0.06508100 -0.08761900
v -0.03829500 -0.06236000 -0.08589200
v -0.03997300 -0.06236000 -0.08589200
v -0.03831400 -0.06213300 -0.08574800
v -0.03997900 -0.06213300 -0.08574800
v -0.03845200 -0.05880000 -0.08470300
v -0.04002600 -0.05880000 -0.08470300
v -0.02664800 -0.06978300 -0.09650700
v -0.02664800 -0.06978300 -0.09797800
v -0.03845200 -0.09191100 -0.08470300
v -0.03805000 -0.09191100 -0.08775800
v -0.03687000 -0.09191100 -0.09060500
v -0.03499400 -0.09191100 -0.09305000
v -0.03255000 -0.09191100 -0.09492500
v -0.02970300 -0.09191100 -0.09610500
v -0.02664800 -0.09191100 -0.09650700
v -0.02664800 -0.09191100 -0.09797800
v -0.02894800 -0.09191100 -0.09788100
v -0.03228100 -0.09191100 -0.09683700
v -0.03522900 -0.09191100 -0.09496600
v -0.03759300 -0.09191100 -0.09239500
v -0.03921100 -0.09191100 -0.08930000
v -0.03997300 -0.09191100 -0.08589200
v -0.04002600 -0.09191100 -0.08470300
v 0.02681900 -0.06978300 -0.09650700
v 0.02681900 -0.06978300 -0.09724200
v 0.02681900 -0.06978300 -0.09797800
v 0.02987400 -0.06969300 -0.09610500
v 0.02911900 -0.06987700 -0.09788100
v 0.03258600 -0.06963000 -0.09588100
v 0.03694600 -0.06906300 -0.09328400
v 0.03632200 -0.06815200 -0.09154200
v 0.03540000 -0.06943900 -0.09496600
v 0.03486000 -0.06906300 -0.09328400
v 0.03501300 -0.06949400 -0.09521200
v 0.03272100 -0.06943000 -0.09492500
v 0.03267900 -0.06982800 -0.09669300
v 0.03245200 -0.06983100 -0.09683700
v 0.02681900 -0.09191100 -0.09797800
v 0.02681900 -0.09191100 -0.09650700
v 0.03294000 -0.06939200 -0.09475800
v 0.03516600 -0.06894000 -0.09305000
v 0.03704100 -0.06766200 -0.09060500
v 0.03776400 -0.06859800 -0.09239500
v 0.03540000 -0.09191100 -0.09496600
v 0.03776400 -0.09191100 -0.09239500
v 0.03245200 -0.09191100 -0.09683700
v 0.02911900 -0.09191100 -0.09788100
v 0.02987400 -0.09191100 -0.09610500
v 0.03272100 -0.09191100 -0.09492500
v 0.03516600 -0.09191100 -0.09305000
v 0.03704100 -0.09191100 -0.09060500
v 0.03891700 -0.06744500 -0.09019000
v 0.03721300 -0.06744500 -0.09019000
v 0.03758200 -0.06662700 -0.08930000
v 0.03938200 -0.06662700 -0.08930000
v 0.03938200 -0.09191100 -0.08930000
v 0.03822100 -0.09191100 -0.08775800
v 0.04014400 -0.09191100 -0.08589200
v 0.03822100 -0.06520900 -0.08775800
v 0.03972700 -0.06520900 -0.08775800
v 0.04014400 -0.06236000 -0.08589200
v 0.03975800 -0.06508100 -0.08761900
v 0.04015000 -0.06213300 -0.08574800
v 0.04019700 -0.05880000 -0.08470300
v 0.03862300 -0.05880000 -0.08470300
v 0.03848500 -0.06213300 -0.08574800
v 0.03823900 -0.06508100 -0.08761900
v 0.02987400 0.06796500 -0.09610500
v 0.03258600 0.06790200 -0.09588100
v 0.02911900 0.06815000 -0.09788100
v 0.02681900 0.06805500 -0.09724200
v 0.03516600 0.06721300 -0.09305000
v 0.03610300 0.06657300 -0.09182700
v 0.03578100 0.06761900 -0.09455100
v 0.03486000 0.06733600 -0.09328400
v 0.03272100 0.06770200 -0.09492500
v 0.03301600 0.06765200 -0.09469900
v 0.03267900 0.06809700 -0.09669300
v 0.03245200 0.06810300 -0.09683700
v 0.03540000 0.06771100 -0.09496600
v 0.03694600 0.06733600 -0.09328400
v 0.03704100 0.06593500 -0.09060500
v 0.03754700 0.06699400 -0.09263100
v 0.03721300 0.06571800 -0.09019000
v 0.03776400 0.06687000 -0.09239500
v 0.03891700 0.06571800 -0.09019000
v 0.03938200 0.06489900 -0.08930000
v 0.03758200 0.06489900 -0.08930000
v 0.03822100 0.06348200 -0.08775800
v 0.03972700 0.06348200 -0.08775800
v 0.03823900 0.06335400 -0.08761900
v 0.03975800 0.06335400 -0.08761900
v 0.03846600 0.06063300 -0.08589200
v 0.04014400 0.06063300 -0.08589200
v 0.03848500 0.06040500 -0.08574800
v 0.04015000 0.06040500 -0.08574800
v 0.03862300 0.05707300 -0.08470300
v 0.04019700 0.05707300 -0.08470300
v 0.02681900 0.06805500 -0.09650700
v 0.02681900 0.06805500 -0.09797800
v 0.03822100 0.09018400 -0.08775800
v 0.03704100 0.09018400 -0.09060500
v 0.03516600 0.09018400 -0.09305000
v 0.03272100 0.09018400 -0.09492500
v 0.02987400 0.09018400 -0.09610500
v 0.02681900 0.09018400 -0.09797800
v 0.02681900 0.09018400 -0.09650700
v 0.02911900 0.09018400 -0.09788100
v 0.03245200 0.09018400 -0.09683700
v 0.03540000 0.09018400 -0.09496600
v 0.03776400 0.09018400 -0.09239500
v 0.03938200 0.09018400 -0.08930000
v 0.04014400 0.09018400 -0.08589200
v -0.02664800 0.06805500 -0.09650700
v -0.02664800 0.06805500 -0.09724200
v -0.02664800 0.06805500 -0.09797800
v -0.02970300 0.06796500 -0.09610500
v -0.02894800 0.06815000 -0.09788100
v -0.03241500 0.06790200 -0.09588100
v -0.03677500 0.06733600 -0.09328400
v -0.03615100 0.06642400 -0.09154200
v -0.03522900 0.06771100 -0.09496600
v -0.03468800 0.06733600 -0.09328400
v -0.03484100 0.06776600 -0.09521200
v -0.03255000 0.06770200 -0.09492500
v -0.03250800 0.06810000 -0.09669300
v -0.03228100 0.06810300 -0.09683700
v -0.02664800 0.09018400 -0.09797800
v -0.02664800 0.09018400 -0.09650700
v -0.03276900 0.06766400 -0.09475800
v -0.03499400 0.06721300 -0.09305000
v -0.03687000 0.06593500 -0.09060500
v -0.03759300 0.06687000 -0.09239500
v -0.03522900 0.09018400 -0.09496600
v -0.03759300 0.09018400 -0.09239500
v -0.03228100 0.09018400 -0.09683700
v -0.02894800 0.09018400 -0.09788100
v -0.02970300 0.09018400 -0.09610500
v -0.03255000 0.09018400 -0.09492500
v -0.03499400 0.09018400 -0.09305000
v -0.03687000 0.09018400 -0.09060500
v -0.03874600 0.06571800 -0.09019000
v -0.03704200 0.06571800 -0.09019000
v -0.03741100 0.06489900 -0.08930000
v -0.03921100 0.06489900 -0.08930000
v -0.03921100 0.09018400 -0.08930000
v -0.03845200 0.09018400 -0.08470300
v -0.04002600 0.09018400 -0.08470300
v -0.03805000 0.09018400 -0.08775800
v -0.03997300 0.09018400 -0.08589200
v -0.03805000 0.06348200 -0.08775800
v -0.03955600 0.06348200 -0.08775800
v -0.03958700 0.06335400 -0.08761900
v -0.03997300 0.06063300 -0.08589200
v -0.03997900 0.06040500 -0.08574800
v -0.04002600 0.05707300 -0.08470300
v -0.03845200 0.05707300 -0.08470300
v -0.03831400 0.06040500 -0.08574800
v -0.03806800 0.06335400 -0.08761900
vn 0.00000000 -0.00000000 -0.00000000
vn -0.00000000 0.00000000 0.00000000
vn -0.00000000 0.00000000 -0.00000000
vn 0.00000000 0.00000000 0.00000000
vn 0.00000000 0.00000000 -0.00000000
vn -0.00000000 -0.00000000 0.00000000
vn -0.00000000 -0.00000000 0.00000000
vn 0.00000000 -0.00000000 -0.00000000
vn 0.00000000 0.00000000 0.00000000
vn 0.00000000 0.00000000 0.00000000
vn 0.00000000 0.00000000 -0.00000000
vn 0.00000000 -0.00000000 -0.00000000
vn 0.00000000 -0.00000000 -0.00000000
vn 0.00000000 -0.00000000 -0.00000000
vn 0.00000000 0.00000000 0.00000000
vn 0.00000000 0.00000000 0.00000000
vn 0.00000000 -0.00000000 -0.00000000
vn 0.00000000 -0.00000000 -0.00000000
vn 0.00000000 0.00000000 0.00000000
vn 0.00000000 -0.00000000 -0.00000000
vn 0.00000000 0.00000000 0.00000000
vn 0.00000000 0.00000000 -0.00000000
vn 0.00000000 -0.00000000 0.00000000
vn 0.00000000 -0.00000000 0.00000000
vn 0.00000000 0.00000000 -0.00000000
vn 0.00000000 -0.00000000 -0.00000000
vn 0.00000000 0.00000000 0.00000000
vn 0.00000000 -0.00000000 0.00000000
vn 0.00000000 0.00000000 -0.00000000
vn 0.00000000 0.00000000 -0.00000000
vn 0.00000000 -0.00000000 0.00000000
vn 0.00000000 0.00000000 -0.00000000
vn 0.00000000 -0.00000000 0.00000000
vn 0.00000000 -0.00000000 0.00000000
vn 0.00000000 0.00000000 -0.00000000
vn 0.00000000 0.00000000 -0.00000000
vn 0.00000000 -0.00000000 0.00000000
vn 0.00000000 0.00000000 0.00000000
vn 0.00000000 0.00000000 -0.00000000
vn 0.00000000 -0.00000000 -0.00000000
vn 0.00000000 0.00000000 0.00000000
vn 0.00000000 -0.00000000 -0.00000000
vn 0.00000000 -0.00000000 0.00000000
vn 0.00000000 0.00000000 -0.00000000
vn 0.00000000 0.00000000 -0.00000000
vn 0.00000000 -0.00000000 -0.00000000
vn 0.00000000 0.00000000 0.00000000
vn 0.00000000 0.00000000 -0.00000000
vn 0.00000000 -0.00000000 0.00000000
vn 0.00000000 0.00000000 0.00000000
vn 0.00000000 -0.00000000 -0.00000000
vn 0.00000000 -0.00000000 0.00000000
vn 0.00000000 0.00000000 -0.00000000
vn 0.00000000 -0.00000000 -0.00000000
vn 0.00000000 0.00000000 0.00000000
vn 0.00000000 0.00000000 -0.00000000
vn 0.00000000 -0.00000000 0.00000000
vn 0.00000000 0.00000000 0.00000000
vn 0.00000000 -0.00000000 -0.00000000
vn 0.00000000 0.00000000 0.00000000
vn 0.00000000 -0.00000000 0.00000000
vn -0.00000000 -0.00000000 -0.00000000
vn 0.00000000 0.00000000 0.00000000
vn 0.00000000 -0.00000000 0.00000000
vn 0.00000000 -0.00000000 -0.00000000
vn -0.00000000 0.00000000 -0.00000000
vn 0.00000000 0.00000000 -0.00000000
vn 0.00000000 -0.00000000 -0.00000000
vn 0.00000000 -0.00000000 0.00000000
vn -0.00000000 0.00000000 0.00000000
vn 0.00000000 -0.00000000 -0.00000000
vn -0.00000000 0.00000000 0.00000000
vn -0.00000000 0.00000000 0.00000000
vn 0.00000000 0.00000000 0.00000000
vn 0.00000000 0.00000000 -0.00000000
vn 0.00000000 0.00000000 -0.00000000
vn 0.00000000 -0.00000000 0.00000000
vn -0.00000000 0.00000000 0.00000000
vn -0.00000000 0.00000000 -0.00000000
vn -0.00000000 0.00000000 0.00000000
vn 0.00000000 0.00000000 0.00000000
vn 0.00000000 0.00000000 -0.00000000
vn -0.00000000 0.00000000 -0.00000000
vn -0.00000000 -0.00000000 0.00000000
vn 0.00000000 -0.00000000 -0.00000000
vn -0.00000000 0.00000000 0.00000000
vn 0.00000000 0.00000000 -0.00000000
vn -0.00000000 0.00000000 0.00000000
vn -0.00000000 -0.00000000 -0.00000000
vn 0.00000000 0.00000000 -0.00000000
vn -0.00000000 -0.00000000 0.00000000
vn 0.00000000 -0.00000000 0.00000000
vn -0.00000000 -0.00000000 0.00000000
vn 0.00000000 0.00000000 -0.00000000
vn -0.00000000 0.00000000 0.00000000
vn 0.00000000 0.00000000 -0.00000000
vn -0.00000000 -0.00000000 0.00000000
vn 0.59926167 -0.69587268 -0.39578613
vn 0.00000000 -0.00000000 -0.00000000
vn 0.00000000 0.00000000 0.00000000
vn -0.00000000 -0.00000000 0.00000000
vn -0.00000000 -0.00000000 0.00000000
vn 0.00000000 0.00000000 -0.00000000
vn -0.60005438 0.69480027 0.39646857
vn 0.00000000 0.00000000 -0.00000000
vn 0.00000000 -0.00000000 -0.00000000
vn 0.00000000 0.00000000 -0.00000000
vn -0.00000000 0.00000000 0.00000000
vn -0.00000000 -0.00000000 0.00000000
vn 0.00000000 -0.00000000 -0.00000000
vn -0.82982506 -0.30419406 0.46782084
vn -0.00000000 -0.00000000 0.00000000
vn 0.00000000 0.00000000 -0.00000000
vn 0.82611807 0.31014433 -0.47046724
vn -0.00000000 -0.00000000 0.00000000
vn 0.00000000 -0.00000000 0.00000000
vn 0.00000000 0.00000000 -0.00000000
vn -0.00000000 -0.00000000 -0.00000000
vn -0.00000000 -0.00000000 0.00000000
vn -0.00000000 0.00000000 -0.00000000
vn -0.00000000 0.00000000 0.00000000
vn 0.00000000 -0.00000000 -0.00000000
vn -0.00000000 0.00000000 -0.00000000
vn 0.00000000 -0.00000000 0.00000000
vn 0.00000000 -0.00000000 -0.00000000
vn -0.00000000 -0.00000000 0.00000000
vn -0.00000000 0.00000000 0.00000000
vn -0.00000000 -0.00000000 0.00000000
vn 0.00000000 0.00000000 -0.00000000
vn -0.00000000 -0.00000000 0.00000000
vn -0.00000000 0.00000000 -0.00000000
vn 0.00000000 -0.00000000 0.00000000
vn -0.00000000 -0.00000000 0.00000000
vn 0.00000000 0.00000000 -0.00000000
vn -0.00000000 -0.00000000 0.00000000
vn -0.00000000 -0.00000000 0.00000000
vn 0.00000000 -0.00000000 -0.00000000
vn 0.00000000 0.00000000 -0.00000000
vn -0.00000000 0.00000000 0.00000000
vn 0.00000000 -0.00000000 0.00000000
vn -0.00000000 0.00000000 0.00000000
vn -0.00000000 -0.00000000 -0.00000000
vn -0.00000000 0.00000000 -0.00000000
vn -0.00000000 0.00000000 0.00000000
vn 0.00000000 -0.00000000 0.00000000
vn 0.00000000 -0.00000000 0.00000000
vn 0.00000000 0.00000000 0.00000000
vn 0.00000000 -0.00000000 0.00000000
vn 0.00000000 -0.00000000 0.00000000
vn -0.00000000 0.00000000 -0.00000000
vn 0.00000000 0.00000000 0.00000000
vn 0.00000000 -0.00000000 0.00000000
vn -0.00000000 0.00000000 -0.00000000
vn 0.00000000 -0.00000000 0.00000000
vn 0.00000000 0.00000000 -0.00000000
vn -0.00000000 0.00000000 0.00000000
vn -0.00000000 0.00000000 -0.00000000
vn -0.00000000 0.00000000 -0.00000000
vn -0.00000000 -0.00000000 -0.00000000
vn 0.00000000 0.00000000 0.00000000
vn 0.00000000 0.00000000 0.00000000
vn -0.00000000 0.00000000 0.00000000
vn -0.00000000 -0.00000000 -0.00000000
vn 0.00000000 -0.00000000 0.00000000
vn -0.00000000 -0.00000000 -0.00000000
vn 0.00000000 0.00000000 0.00000000
vn 0.00000000 -0.00000000 0.00000000
vn -0.00000000 0.00000000 -0.00000000
vn -0.00000000 -0.00000000 0.00000000
vn 0.00000000 0.00000000 0.00000000
vn 0.00000000 -0.00000000 0.00000000
vn 0.00000000 0.00000000 -0.00000000
vn 0.00000000 -0.00000000 0.00000000
vn 0.00000000 -0.00000000 0.00000000
vn -0.00000000 0.00000000 -0.00000000
vn 0.82858528 -0.30763432 0.46776871
vn -0.82913319 0.30690998 -0.46727338
vn -0.00000000 -0.00000000 0.00000000
vn -0.00000000 0.00000000 -0.00000000
vn -0.00000000 -0.00000000 0.00000000
vn 0.00000000 0.00000000 -0.00000000
vn -0.00000000 -0.00000000 0.00000000
vn -0.00000000 -0.00000000 0.00000000
vn 0.00000000 -0.00000000 0.00000000
vn 0.00000000 0.00000000 0.00000000
vn 0.00000000 0.00000000 0.00000000
vn -0.00000000 0.00000000 -0.00000000
vn 0.00000000 -0.00000000 -0.00000000
vn -0.00000000 -0.00000000 -0.00000000
vn 0.00000000 -0.00000000 0.00000000
vn 0.67291099 0.30183823 0.67534027
vn 0.00000000 -0.00000000 0.00000000
vn -0.00000000 0.00000000 -0.00000000
vn -0.00000000 -0.00000000 -0.00000000
vn -0.00000000 -0.00000000 -0.00000000
vn -0.00000000 -0.00000000 -0.00000000
vn -0.00000000 -0.00000000 -0.00000000
vn 0.00000000 0.00000000 0.00000000
vn -0.67454035 -0.30958784 -0.67018705
vn 0.00000000 -0.00000000 0.00000000
vn 0.00000000 0.00000000 0.00000000
vn -0.00000000 -0.00000000 -0.00000000
vn 0.00000000 0.00000000 0.00000000
vn -0.00000000 -0.00000000 -0.00000000
vn 0.00000000 -0.00000000 0.00000000
vn 0.00000000 0.00000000 0.00000000
vn 0.00000000 -0.00000000 -0.00000000
vn -0.00000000 0.00000000 0.00000000
vn 0.00000000 -0.00000000 -0.00000000
vn 0.00000000 -0.00000000 -0.00000000
vn -0.00000000 0.00000000 -0.00000000
vn -0.00000000 0.00000000 -0.00000000
vn -0.00000000 -0.00000000 -0.00000000
vn 0.00000000 -0.00000000 0.00000000
vn 0.00000000 0.00000000 0.00000000
vn -0.00000000 0.00000000 -0.00000000
vn 0.00000000 0.00000000 0.00000000
vn -0.00000000 0.00000000 -0.00000000
vn -0.00000000 -0.00000000 -0.00000000
vn -0.00000000 -0.00000000 -0.00000000
vn 0.00000000 -0.00000000 0.00000000
vn -0.00000000 0.00000000 0.00000000
vn -0.00000000 -0.00000000 0.00000000
vn -0.00000000 0.00000000 -0.00000000
vn -0.00000000 0.00000000 0.00000000
vn 0.00000000 -0.00000000 -0.00000000
vn 0.00000000 0.00000000 0.00000000
vn 0.00000000 0.00000000 -0.00000000
vn -0.00000000 0.00000000 -0.00000000
vn -0.00000000 0.00000000 0.00000000
vn 0.00000000 -0.00000000 -0.00000000
vn -0.00000000 -0.00000000 0.00000000
vn 0.00000000 -0.00000000 -0.00000000
vn -0.00000000 -0.00000000 0.00000000
vn 0.00000000 0.00000000 -0.00000000
vn 0.00000000 -0.00000000 -0.00000000
vn -0.00000000 -0.00000000 0.00000000
vn 0.00000000 -0.00000000 -0.00000000
vn -0.00000000 0.00000000 0.00000000
vn 0.00000000 -0.00000000 -0.00000000
vn -0.00000000 0.00000000 0.00000000
vn 0.00000000 -0.00000000 -0.00000000
vn 0.00000000 -0.00000000 -0.00000000
vn -0.00000000 0.00000000 0.00000000
vn 0.00000000 0.00000000 -0.00000000
vn -0.00000000 0.00000000 0.00000000
vn 0.00000000 0.00000000 -0.00000000
vn 0.00000000 -0.00000000 0.00000000
vn 0.00000000 -0.00000000 -0.00000000
vn -0.00000000 0.00000000 0.00000000
vn -0.00000000 0.00000000 0.00000000
vn -0.00000000 0.00000000 0.00000000
vn 0.00000000 -0.00000000 -0.00000000
vn -0.00000000 -0.00000000 0.00000000
vn -0.73411844 0.40997884 0.54128317
vn 0.00000000 -0.00000000 -0.00000000
vn 0.00000000 -0.00000000 -0.00000000
vn 0.00000000 0.00000000 -0.00000000
vn 0.00000000 -0.00000000 -0.00000000
vn 0.00000000 0.00000000 -0.00000000
vn 0.00000000 -0.00000000 0.00000000
vn 0.00000000 0.00000000 -0.00000000
vn 0.73405367 -0.41010346 -0.54127660
vn -0.00000000 -0.00000000 -0.00000000
vn -0.00000000 0.00000000 0.00000000
vn -0.00000000 0.00000000 0.00000000
vn -0.00000000 0.00000000 0.00000000
vn -0.00000000 -0.00000000 0.00000000
vn -0.00000000 0.00000000 0.00000000
vn 0.00000000 -0.00000000 0.00000000
vn 0.00000000 0.00000000 0.00000000
vn 0.00000000 -0.00000000 0.00000000
vn -0.00000000 -0.00000000 0.00000000
vn 0.00000000 -0.00000000 0.00000000
vn 0.00000000 -0.00000000 0.00000000
vn 0.56326303 0.82627756 0.00039611
vn -0.00000000 -0.00000000 -0.00000000
vn -0.00000000 0.00000000 -0.00000000
vn -0.00000000 -0.00000000 -0.00000000
vn 0.00000000 0.00000000 0.00000000
vn 0.00000000 0.00000000 0.00000000
vn -0.00000000 0.00000000 -0.00000000
vn -0.00000000 0.00000000 -0.00000000
vn 0.00000000 -0.00000000 0.00000000
vn -0.55892787 -0.82921144 0.00283392
vn 0.00000000 0.00000000 0.00000000
vn -0.00000000 -0.00000000 -0.00000000
vn -0.00000000 0.00000000 -0.00000000
vn -0.00000000 0.00000000 -0.00000000
vn 0.73422088 -0.40999189 0.54113432
vn 0.00000000 0.00000000 -0.00000000
vn 0.00000000 -0.00000000 0.00000000
vn -0.73420287 0.40995614 -0.54118584
vn -0.00000000 0.00000000 -0.00000000
vn -0.00000000 0.00000000 -0.00000000
vn -0.00000000 -0.00000000 -0.00000000
vn 0.00000000 0.00000000 0.00000000
vn 0.00000000 0.00000000 0.00000000
vn 0.00000000 -0.00000000 0.00000000
vn 0.00000000 0.00000000 0.00000000
vn -0.00000000 -0.00000000 0.00000000
vn -0.00000000 -0.00000000 -0.00000000
vn 0.00000000 0.00000000 -0.00000000
vn 0.00000000 0.00000000 0.00000000
vn -0.00000000 0.00000000 -0.00000000
vn -0.00000000 -0.00000000 -0.00000000
vn -0.00000000 0.00000000 -0.00000000
vn 0.00000000 0.00000000 0.00000000
vn -0.00000000 -0.00000000 -0.00000000
vn 0.00000000 0.00000000 0.00000000
vn -0.00000000 -0.00000000 0.00000000
vn 0.00000000 0.00000000 0.00000000
vn -0.00000000 -0.00000000 -0.00000000
vn -0.00000000 0.00000000 -0.00000000
vn 0.00000000 0.00000000 0.00000000
vn 0.00000000 0.00000000 0.00000000
vn -0.00000000 0.00000000 -0.00000000
vn -0.00000000 -0.00000000 -0.00000000
vn 0.00000000 0.00000000 0.00000000
vn -0.00000000 -0.00000000 0.00000000
vn -0.00000000 0.00000000 0.00000000
vn -0.00000000 -0.00000000 -0.00000000
vn -0.00000000 -0.00000000 0.00000000
vn 0.00000000 0.00000000 -0.00000000
vn -0.00000000 -0.00000000 0.00000000
vn -0.00000000 -0.00000000 0.00000000
vn 0.00000000 -0.00000000 -0.00000000
vn 0.00000000 -0.00000000 -0.00000000
vn -0.00000000 0.00000000 0.00000000
vn 0.00000000 0.00000000 -0.00000000
vn -0.00000000 -0.00000000 0.00000000
vn 0.00000000 -0.00000000 -0.00000000
vn 0.00000000 0.00000000 -0.00000000
vn -0.00000000 -0.00000000 -0.00000000
vn 0.00000000 0.00000000 -0.00000000
vn -0.00000000 0.00000000 0.00000000
vn 0.00000000 0.00000000 -0.00000000
vn -0.00000000 0.00000000 -0.00000000
vn -0.00000000 -0.00000000 0.00000000
vn -0.00000000 0.00000000 0.00000000
vn 0.00000000 0.00000000 0.00000000
vn 0.00000000 -0.00000000 0.00000000
vn 0.00000000 0.00000000 -0.00000000
vn -0.00000000 0.00000000 0.00000000
vn 0.00000000 0.00000000 -0.00000000
vn -0.00000000 -0.00000000 0.00000000
vn 0.00000000 0.00000000 -0.00000000
vn -0.00000000 -0.00000000 0.00000000
vn -0.00000000 0.00000000 0.00000000
vn -0.00000000 -0.00000000 0.00000000
vn 0.00000000 0.00000000 -0.00000000
vn -0.00000000 -0.00000000 0.00000000
vn -0.00000000 0.00000000 0.00000000
vn 0.00000000 -0.00000000 -0.00000000
vn 0.00000000 0.00000000 -0.00000000
vn 0.00000000 0.00000000 -0.00000000
vn -0.00000000 -0.00000000 0.00000000
vn 0.00000000 -0.00000000 0.00000000
vn 0.00000000 0.00000000 0.00000000
vn -0.00000000 0.00000000 -0.00000000
vn 0.00000000 0.00000000 -0.00000000
vn -0.00000000 0.00000000 0.00000000
vn -0.00000000 -0.00000000 -0.00000000
vn -0.00000000 0.00000000 0.00000000
vn 0.00000000 -0.00000000 0.00000000
vn 0.00000000 0.00000000 -0.00000000
vn -0.00000000 0.00000000 0.00000000
vn -0.47956783 0.57024242 0.66696198
vn -0.66470343 -0.56813861 0.48516788
vn -0.00000000 0.00000000 0.00000000
vn -0.00000000 -0.00000000 -0.00000000
vn 0.00000000 -0.00000000 -0.00000000
vn -0.00000000 -0.00000000 0.00000000
vn 0.00000000 0.00000000 -0.00000000
vn 0.66650904 0.56437264 -0.48708236
vn -0.00000000 0.00000000 0.00000000
vn 0.46816813 -0.58004490 -0.66660822
vn -0.00000000 0.00000000 0.00000000
vn 0.00000000 0.00000000 0.00000000
vn 0.00000000 -0.00000000 -0.00000000
vn -0.00000000 -0.00000000 0.00000000
vn -0.82844317 0.30690348 0.46849991
vn 0.00000000 -0.00000000 -0.00000000
vn -0.00000000 0.00000000 0.00000000
vn 0.82892370 -0.30687813 -0.46766582
vn 0.00000000 0.00000000 -0.00000000
vn 0.00000000 -0.00000000 -0.00000000
vn 0.00000000 -0.00000000 -0.00000000
vn 0.00000000 0.00000000 -0.00000000
vn -0.00000000 -0.00000000 0.00000000
vn 0.00000000 0.00000000 -0.00000000
vn 0.00000000 -0.00000000 -0.00000000
vn -0.00000000 0.00000000 0.00000000
vn -0.00000000 0.00000000 0.00000000
vn -0.00000000 -0.00000000 -0.00000000
vn 0.00000000 -0.00000000 -0.00000000
vn -0.00000000 0.00000000 0.00000000
vn 0.00000000 -0.00000000 0.00000000
vn 0.00000000 0.00000000 0.00000000
vn 0.00000000 -0.00000000 0.00000000
vn 0.00000000 0.00000000 0.00000000
vn -0.00000000 -0.00000000 -0.00000000
vn -0.00000000 0.00000000 0.00000000
vn 0.00000000 0.00000000 -0.00000000
vn 0.00000000 -0.00000000 -0.00000000
vn 0.00000000 -0.00000000 0.00000000
vn -0.00000000 -0.00000000 0.00000000
vn -0.00000000 -0.00000000 0.00000000
vn 0.00000000 -0.00000000 0.00000000
vn -0.00000000 0.00000000 0.00000000
vn 0.00000000 -0.00000000 -0.00000000
vn 0.00000000 -0.00000000 0.00000000
vn 0.00000000 -0.00000000 0.00000000
vn -0.00000000 0.00000000 0.00000000
vn -0.00000000 -0.00000000 -0.00000000
vn 0.00000000 0.00000000 0.00000000
vn -0.00000000 -0.00000000 -0.00000000
vn -0.00000000 0.00000000 -0.00000000
vn 0.00000000 0.00000000 0.00000000
vn -0.00000000 -0.00000000 -0.00000000
vn -0.00000000 0.00000000 -0.00000000
vn 0.00000000 0.00000000 0.00000000
vn -0.00000000 -0.00000000 -0.00000000
vn -0.00000000 0.00000000 -0.00000000
vn -0.00000000 -0.00000000 -0.00000000
vn -0.00000000 -0.00000000 -0.00000000
vn 0.00000000 0.00000000 0.00000000
vn 0.00000000 -0.00000000 0.00000000
vn -0.00000000 0.00000000 0.00000000
vn -0.00000000 -0.00000000 -0.00000000
vn 0.00000000 0.00000000 0.00000000
vn 0.00000000 -0.00000000 0.00000000
vn -0.00000000 0.00000000 0.00000000
vn 0.00000000 -0.00000000 0.00000000
vn -0.00000000 0.00000000 -0.00000000
vn 0.00000000 -0.00000000 0.00000000
vn 0.00000000 0.00000000 0.00000000
vn 0.00000000 -0.00000000 -0.00000000
vn -0.00000000 0.00000000 -0.00000000
vn 0.00000000 -0.00000000 0.00000000
vn -0.00000000 -0.00000000 -0.00000000
vn 0.00000000 0.00000000 -0.00000000
vn 0.00000000 -0.00000000 0.00000000
vn -0.00000000 -0.00000000 -0.00000000
vn -0.00000000 -0.00000000 -0.00000000
vn 0.00000000 0.00000000 0.00000000
vn 0.00000000 0.00000000 0.00000000
vn 0.00000000 -0.00000000 0.00000000
vn 0.00000000 -0.00000000 -0.00000000
vn -0.00000000 0.00000000 0.00000000
vn -0.00000000 0.00000000 0.00000000
vn -0.00000000 -0.00000000 -0.00000000
vn 0.00000000 0.00000000 0.00000000
vn 0.00000000 0.00000000 0.00000000
f 1//1 2//2 3//3
f 2//2 1//1 4//4
f 5//5 6//6 7//7
f 8//8 7//7 6//6
f 9//9 7//7 8//8
f 10//10 11//11 12//12
f 13//13 12//12 11//11
f 11//11 14//14 13//13
f 15//15 13//13 14//14
f 14//14 16//16 15//15
f 17//17 15//15 16//16
f 18//18 19//19 16//16
f 17//17 16//16 19//19
f 20//20 21//21 18//18
f 19//19 18//18 21//21
f 22//22 23//23 24//24
f 25//25 24//24 23//23
f 26//26 27//27 20//20
f 21//21 20//20 27//27
f 28//28 22//22 29//29
f 24//24 29//29 22//22
f 30//30 31//31 26//26
f 27//27 26//26 31//31
f 32//32 28//28 33//33
f 29//29 33//33 28//28
f 34//34 35//35 30//30
f 31//31 30//30 35//35
f 32//32 33//33 36//36
f 37//37 36//36 33//33
f 36//36 37//37 34//34
f 35//35 34//34 37//37
f 38//38 39//39 40//40
f 41//41 40//40 39//39
f 42//42 43//43 44//44
f 45//45 44//44 43//43
f 46//46 47//47 39//39
f 41//41 39//39 47//47
f 42//42 44//44 48//48
f 49//49 48//48 44//44
f 50//50 51//51 46//46
f 47//47 46//46 51//51
f 48//48 49//49 52//52
f 53//53 52//52 49//49
f 50//50 54//54 51//51
f 55//55 51//51 54//54
f 56//56 52//52 57//57
f 53//53 57//57 52//52
f 54//54 58//58 55//55
f 59//59 55//55 58//58
f 60//60 56//56 61//61
f 57//57 61//61 56//56
f 58//58 62//62 59//59
f 63//63 59//59 62//62
f 64//64 60//60 65//65
f 61//61 65//65 60//60
f 4//4 66//66 63//63
f 65//65 63//63 66//66
f 2//2 66//66 4//4
f 3//3 66//66 2//2
f 67//67 65//65 66//66
f 68//68 65//65 67//67
f 69//69 68//68 67//67
f 70//70 65//65 68//68
f 71//71 65//65 70//70
f 64//64 65//65 71//71
f 64//64 1//1 62//62
f 63//63 62//62 1//1
f 4//4 63//63 1//1
f 3//3 1//1 64//64
f 72//72 3//3 64//64
f 66//66 3//3 72//72
f 69//69 72//72 64//64
f 73//73 69//69 64//64
f 68//68 69//69 73//73
f 71//71 73//73 64//64
f 43//43 74//74 45//45
f 75//75 45//45 74//74
f 23//23 38//38 25//25
f 40//40 25//25 38//38
f 76//76 71//71 77//77
f 70//70 77//77 71//71
f 70//70 68//68 77//77
f 78//78 77//77 68//68
f 79//79 78//78 73//73
f 68//68 73//73 78//78
f 71//71 76//76 73//73
f 79//79 73//73 76//76
f 78//78 79//79 77//77
f 76//76 77//77 79//79
f 67//67 66//66 80//80
f 81//81 80//80 66//66
f 72//72 82//82 66//66
f 81//81 66//66 82//82
f 81//81 82//82 80//80
f 83//83 80//80 82//82
f 69//69 83//83 67//67
f 80//80 67//67 83//83
f 4//4 1//1 2//2
f 3//3 2//2 1//1
f 84//84 85//85 86//86
f 85//85 84//84 87//87
f 84//84 88//88 87//87
f 88//88 84//84 89//89
f 90//90 85//85 91//91
f 85//85 90//90 86//86
f 90//90 84//84 86//86
f 84//84 90//90 89//89
f 88//88 90//90 91//91
f 90//90 88//88 89//89
f 88//88 85//85 87//87
f 85//85 88//88 91//91
f 92//92 93//93 94//94
f 95//95 92//92 94//94
f 96//96 97//97 98//98
f 99//99 96//96 98//98
f 100//100 101//101 102//102
f 100//100 93//93 92//92
f 93//93 103//103 94//94
f 100//100 102//102 93//93
f 103//103 93//93 102//102
f 99//99 104//104 101//101
f 102//102 101//101 104//104
f 99//99 98//98 104//104
f 97//97 105//105 98//98
f 106//106 107//107 97//97
f 105//105 97//97 107//107
f 108//108 109//109 106//106
f 107//107 106//106 109//109
f 108//108 110//110 109//109
f 111//111 110//110 112//112
f 108//108 112//112 110//110
f 113//113 114//114 112//112
f 111//111 112//112 114//114
f 115//115 116//116 113//113
f 114//114 113//113 116//116
f 115//115 117//117 116//116
f 118//118 116//116 117//117
f 117//117 119//119 118//118
f 120//120 118//118 119//119
f 119//119 121//121 120//120
f 122//122 120//120 121//121
f 123//123 92//92 95//95
f 95//95 94//94 124//124
f 125//125 121//121 126//126
f 119//119 126//126 121//121
f 117//117 126//126 119//119
f 115//115 126//126 117//117
f 113//113 126//126 115//115
f 126//126 113//113 127//127
f 112//112 127//127 113//113
f 108//108 127//127 112//112
f 106//106 127//127 108//108
f 127//127 106//106 128//128
f 97//97 128//128 106//106
f 96//96 128//128 97//97
f 129//129 128//128 100//100
f 101//101 100//100 128//128
f 99//99 101//101 128//128
f 96//96 99//99 128//128
f 130//130 129//129 92//92
f 100//100 92//92 129//129
f 131//131 132//132 124//124
f 123//123 124//124 132//132
f 95//95 124//124 123//123
f 131//131 124//124 133//133
f 94//94 133//133 124//124
f 133//133 94//94 134//134
f 103//103 134//134 94//94
f 134//134 103//103 135//135
f 102//102 135//135 103//103
f 104//104 135//135 102//102
f 136//136 135//135 109//109
f 107//107 109//109 135//135
f 105//105 107//107 135//135
f 104//104 105//105 135//135
f 98//98 105//105 104//104
f 137//137 136//136 111//111
f 110//110 111//111 136//136
f 109//109 110//110 136//136
f 138//138 137//137 118//118
f 116//116 118//118 137//137
f 111//111 116//116 137//137
f 114//114 116//116 111//111
f 139//139 138//138 122//122
f 120//120 122//122 138//138
f 118//118 120//120 138//138
f 132//132 130//130 123//123
f 92//92 123//123 130//130
f 140//140 123//123 141//141
f 95//95 141//141 123//123
f 142//142 141//141 95//95
f 124//124 142//142 95//95
f 143//143 141//141 144//144
f 145//145 143//143 144//144
f 146//146 147//147 148//148
f 148//148 149//149 150//150
f 151//151 145//145 152//152
f 153//153 152//152 145//145
f 153//153 145//145 144//144
f 144//144 141//141 142//142
f 154//154 142//142 131//131
f 124//124 131//131 142//142
f 139//139 125//125 138//138
f 126//126 138//138 125//125
f 137//137 138//138 126//126
f 127//127 137//137 126//126
f 136//136 137//137 127//127
f 128//128 136//136 127//127
f 135//135 136//136 128//128
f 129//129 135//135 128//128
f 130//130 135//135 129//129
f 134//134 135//135 130//130
f 132//132 134//134 130//130
f 131//131 134//134 132//132
f 133//133 134//134 131//131
f 155//155 132//132 140//140
f 123//123 140//140 132//132
f 143//143 140//140 141//141
f 145//145 151//151 143//143
f 156//156 151//151 152//152
f 149//149 156//156 150//150
f 152//152 150//150 156//156
f 157//157 149//149 148//148
f 147//147 157//157 148//148
f 158//158 147//147 159//159
f 146//146 159//159 147//147
f 160//160 161//161 148//148
f 146//146 148//148 161//161
f 159//159 146//146 161//161
f 160//160 148//148 162//162
f 150//150 162//162 148//148
f 152//152 162//162 150//150
f 153//153 162//162 152//152
f 162//162 153//153 163//163
f 144//144 163//163 153//153
f 163//163 144//144 154//154
f 142//142 154//154 144//144
f 155//155 154//154 140//140
f 141//141 140//140 154//154
f 142//142 141//141 154//154
f 132//132 155//155 131//131
f 154//154 131//131 155//155
f 164//164 155//155 143//143
f 140//140 143//143 155//155
f 151//151 165//165 143//143
f 164//164 143//143 165//165
f 166//166 165//165 157//157
f 149//149 157//157 165//165
f 156//156 149//149 165//165
f 151//151 156//156 165//165
f 166//166 157//157 167//167
f 147//147 167//167 157//157
f 158//158 167//167 147//147
f 168//168 169//169 159//159
f 158//158 159//159 169//169
f 170//170 169//169 171//171
f 168//168 171//171 169//169
f 172//172 171//171 161//161
f 168//168 161//161 171//171
f 159//159 161//161 168//168
f 86//86 85//85 173//173
f 174//174 173//173 85//85
f 172//172 173//173 174//174
f 167//167 173//173 172//172
f 161//161 167//167 172//172
f 166//166 167//167 161//161
f 160//160 166//166 161//161
f 165//165 166//166 160//160
f 164//164 165//165 160//160
f 162//162 164//164 160//160
f 155//155 164//164 162//162
f 154//154 155//155 162//162
f 163//163 154//154 162//162
f 173//173 167//167 175//175
f 170//170 175//175 167//167
f 169//169 170//170 167//167
f 158//158 169//169 167//167
f 175//175 170//170 176//176
f 171//171 176//176 170//170
f 172//172 174//174 171//171
f 177//177 171//171 174//174
f 178//178 177//177 174//174
f 176//176 171//171 177//177
f 174//174 85//85 178//178
f 179//179 178//178 85//85
f 180//180 179//179 85//85
f 180//180 181//181 179//179
f 182//182 179//179 181//181
f 86//86 173//173 181//181
f 182//182 181//181 173//173
f 183//183 182//182 173//173
f 175//175 183//183 173//173
f 177//177 183//183 176//176
f 175//175 176//176 183//183
f 179//179 182//182 178//178
f 177//177 178//178 182//182
f 183//183 177//177 182//182
f 184//184 185//185 186//186
f 184//184 9//9 185//185
f 187//187 188//188 189//189
f 190//190 191//191 192//192
f 193//193 194//194 190//190
f 186//186 195//195 196//196
f 195//195 186//186 197//197
f 184//184 186//186 196//196
f 185//185 197//197 186//186
f 195//195 197//197 198//198
f 198//198 193//193 195//195
f 193//193 198//198 194//194
f 190//190 194//194 199//199
f 190//190 199//199 191//191
f 191//191 200//200 192//192
f 200//200 191//191 201//201
f 201//201 187//187 200//200
f 187//187 201//201 188//188
f 202//202 189//189 188//188
f 189//189 202//202 203//203
f 202//202 204//204 203//203
f 204//204 202//202 205//205
f 205//205 206//206 204//204
f 206//206 205//205 207//207
f 206//206 208//208 209//209
f 208//208 206//206 207//207
f 209//209 210//210 211//211
f 210//210 209//209 208//208
f 211//211 212//212 213//213
f 212//212 211//211 210//210
f 8//8 9//9 184//184
f 9//9 7//7 185//185
f 211//211 214//214 209//209
f 213//213 214//214 211//211
f 214//214 213//213 91//91
f 206//206 203//203 204//204
f 206//206 215//215 203//203
f 209//209 215//215 206//206
f 215//215 209//209 214//214
f 189//189 216//216 187//187
f 203//203 216//216 189//189
f 216//216 203//203 215//215
f 190//190 217//217 193//193
f 192//192 217//217 190//190
f 200//200 217//217 192//192
f 187//187 217//217 200//200
f 217//217 187//187 216//216
f 217//217 195//195 193//193
f 217//217 196//196 195//195
f 196//196 217//217 218//218
f 218//218 184//184 196//196
f 184//184 218//218 219//219
f 7//7 220//220 185//185
f 220//220 7//7 5//5
f 185//185 221//221 197//197
f 221//221 185//185 220//220
f 194//194 222//222 199//199
f 198//198 222//222 194//194
f 197//197 222//222 198//198
f 222//222 197//197 221//221
f 199//199 201//201 191//191
f 222//222 201//201 199//199
f 201//201 222//222 223//223
f 223//223 188//188 201//201
f 223//223 202//202 188//188
f 223//223 205//205 202//202
f 205//205 223//223 224//224
f 224//224 207//207 205//205
f 224//224 208//208 207//207
f 224//224 210//210 208//208
f 224//224 212//212 210//210
f 212//212 224//224 90//90
f 225//225 226//226 227//227
f 219//219 8//8 184//184
f 8//8 219//219 6//6
f 228//228 9//9 8//8
f 227//227 9//9 228//228
f 229//229 9//9 227//227
f 9//9 229//229 7//7
f 225//225 230//230 226//226
f 231//231 232//232 233//233
f 231//231 233//233 234//234
f 235//235 236//236 237//237
f 226//226 230//230 237//237
f 227//227 226//226 229//229
f 229//229 5//5 7//7
f 5//5 229//229 238//238
f 218//218 6//6 219//219
f 218//218 5//5 6//6
f 218//218 220//220 5//5
f 217//217 220//220 218//218
f 217//217 221//221 220//220
f 217//217 222//222 221//221
f 216//216 222//222 217//217
f 216//216 223//223 222//222
f 215//215 223//223 216//216
f 215//215 224//224 223//223
f 214//214 224//224 215//215
f 91//91 224//224 214//214
f 224//224 91//91 90//90
f 228//228 225//225 227//227
f 239//239 8//8 6//6
f 8//8 239//239 228//228
f 225//225 240//240 230//230
f 235//235 230//230 240//240
f 230//230 235//235 237//237
f 241//241 236//236 235//235
f 236//236 241//241 234//234
f 241//241 231//231 234//234
f 231//231 242//242 232//232
f 243//243 232//232 242//242
f 232//232 243//243 244//244
f 245//245 232//232 244//244
f 245//245 233//233 232//232
f 233//233 245//245 246//246
f 236//236 247//247 237//237
f 234//234 247//247 236//236
f 233//233 247//247 234//234
f 247//247 233//233 246//246
f 237//237 248//248 226//226
f 248//248 237//237 247//247
f 226//226 238//238 229//229
f 238//238 226//226 248//248
f 5//5 239//239 6//6
f 239//239 5//5 238//238
f 249//249 228//228 239//239
f 228//228 249//249 225//225
f 250//250 225//225 249//249
f 225//225 250//250 240//240
f 250//250 235//235 240//240
f 250//250 241//241 235//235
f 251//251 241//241 250//250
f 241//241 251//251 231//231
f 243//243 252//252 244//244
f 252//252 243//243 253//253
f 251//251 242//242 231//231
f 251//251 243//243 242//242
f 243//243 251//251 254//254
f 255//255 252//252 253//253
f 252//252 255//255 256//256
f 257//257 256//256 258//258
f 257//257 252//252 256//256
f 257//257 244//244 252//252
f 244//244 257//257 245//245
f 239//239 250//250 249//249
f 238//238 250//250 239//239
f 248//248 250//250 238//238
f 248//248 251//251 250//250
f 247//247 251//251 248//248
f 246//246 251//251 247//247
f 246//246 254//254 251//251
f 245//245 254//254 246//246
f 245//245 259//259 254//254
f 257//257 259//259 245//245
f 257//257 260//260 259//259
f 261//261 260//260 257//257
f 260//260 261//261 262//262
f 254//254 253//253 243//243
f 254//254 255//255 253//253
f 255//255 254//254 259//259
f 263//263 256//256 255//255
f 256//256 263//263 258//258
f 261//261 264//264 265//265
f 261//261 266//266 264//264
f 261//261 258//258 266//266
f 258//258 261//261 257//257
f 267//267 265//265 264//264
f 265//265 267//267 268//268
f 260//260 267//267 269//269
f 260//260 268//268 267//267
f 268//268 260//260 262//262
f 255//255 270//270 263//263
f 259//259 270//270 255//255
f 259//259 269//269 270//270
f 269//269 259//259 260//260
f 263//263 266//266 258//258
f 266//266 263//263 270//270
f 270//270 264//264 266//266
f 269//269 264//264 270//270
f 264//264 269//269 267//267
f 239//239 238//238 228//228
f 229//229 228//228 238//238
f 227//227 228//228 229//229
f 229//229 228//228 227//227
f 238//238 228//228 229//229
f 228//228 238//238 239//239
f 8//8 7//7 9//9
f 6//6 7//7 8//8
f 7//7 6//6 5//5
f 271//271 272//272 273//273
f 274//274 271//271 273//273
f 275//275 276//276 277//277
f 278//278 275//275 277//277
f 279//279 280//280 281//281
f 279//279 272//272 271//271
f 272//272 282//282 273//273
f 279//279 281//281 272//272
f 282//282 272//272 281//281
f 278//278 283//283 280//280
f 281//281 280//280 283//283
f 278//278 277//277 283//283
f 276//276 284//284 277//277
f 285//285 286//286 276//276
f 284//284 276//276 286//286
f 287//287 288//288 285//285
f 286//286 285//285 288//288
f 287//287 289//289 288//288
f 290//290 289//289 291//291
f 287//287 291//291 289//289
f 292//292 293//293 291//291
f 290//290 291//291 293//293
f 294//294 295//295 292//292
f 293//293 292//292 295//295
f 294//294 296//296 295//295
f 297//297 295//295 296//296
f 296//296 298//298 297//297
f 299//299 297//297 298//298
f 298//298 300//300 299//299
f 301//301 299//299 300//300
f 302//302 271//271 274//274
f 274//274 273//273 303//303
f 304//304 300//300 305//305
f 298//298 305//305 300//300
f 296//296 305//305 298//298
f 294//294 305//305 296//296
f 292//292 305//305 294//294
f 305//305 292//292 306//306
f 291//291 306//306 292//292
f 287//287 306//306 291//291
f 285//285 306//306 287//287
f 306//306 285//285 307//307
f 275//275 307//307 285//285
f 276//276 275//275 285//285
f 308//308 307//307 279//279
f 280//280 279//279 307//307
f 278//278 280//280 307//307
f 275//275 278//278 307//307
f 309//309 308//308 271//271
f 279//279 271//271 308//308
f 310//310 302//302 311//311
f 303//303 311//311 302//302
f 274//274 303//303 302//302
f 311//311 303//303 312//312
f 273//273 312//312 303//303
f 312//312 273//273 313//313
f 282//282 313//313 273//273
f 313//313 282//282 314//314
f 281//281 314//314 282//282
f 283//283 314//314 281//281
f 315//315 314//314 288//288
f 286//286 288//288 314//314
f 284//284 286//286 314//314
f 277//277 284//284 314//314
f 283//283 277//277 314//314
f 316//316 315//315 290//290
f 289//289 290//290 315//315
f 288//288 289//289 315//315
f 317//317 316//316 297//297
f 295//295 297//297 316//316
f 290//290 295//295 316//316
f 293//293 295//295 290//290
f 318//318 317//317 301//301
f 299//299 301//301 317//317
f 297//297 299//299 317//317
f 310//310 309//309 302//302
f 271//271 302//302 309//309
f 319//319 302//302 320//320
f 274//274 320//320 302//302
f 321//321 320//320 274//274
f 303//303 321//321 274//274
f 322//322 320//320 323//323
f 324//324 322//322 323//323
f 325//325 326//326 327//327
f 327//327 328//328 329//329
f 330//330 324//324 331//331
f 332//332 331//331 324//324
f 332//332 324//324 323//323
f 323//323 320//320 321//321
f 333//333 321//321 311//311
f 303//303 311//311 321//321
f 318//318 304//304 317//317
f 305//305 317//317 304//304
f 316//316 317//317 305//305
f 306//306 316//316 305//305
f 315//315 316//316 306//306
f 307//307 315//315 306//306
f 314//314 315//315 307//307
f 308//308 314//314 307//307
f 309//309 314//314 308//308
f 313//313 314//314 309//309
f 310//310 313//313 309//309
f 311//311 313//313 310//310
f 312//312 313//313 311//311
f 319//319 334//334 302//302
f 310//310 302//302 334//334
f 322//322 319//319 320//320
f 324//324 330//330 322//322
f 335//335 330//330 331//331
f 328//328 335//335 329//329
f 331//331 329//329 335//335
f 336//336 328//328 327//327
f 326//326 336//336 327//327
f 337//337 326//326 338//338
f 325//325 338//338 326//326
f 339//339 340//340 327//327
f 325//325 327//327 340//340
f 338//338 325//325 340//340
f 339//339 327//327 341//341
f 329//329 341//341 327//327
f 331//331 341//341 329//329
f 332//332 341//341 331//331
f 341//341 332//332 342//342
f 323//323 342//342 332//332
f 342//342 323//323 333//333
f 321//321 333//333 323//323
f 334//334 333//333 319//319
f 321//321 319//319 333//333
f 320//320 319//319 321//321
f 310//310 334//334 311//311
f 333//333 311//311 334//334
f 343//343 334//334 322//322
f 319//319 322//322 334//334
f 330//330 344//344 322//322
f 343//343 322//322 344//344
f 345//345 344//344 336//336
f 328//328 336//336 344//344
f 335//335 328//328 344//344
f 330//330 335//335 344//344
f 346//346 345//345 337//337
f 326//326 337//337 345//345
f 336//336 326//326 345//345
f 347//347 348//348 338//338
f 337//337 338//338 348//348
f 349//349 348//348 350//350
f 347//347 350//350 348//348
f 340//340 351//351 338//338
f 347//347 338//338 351//351
f 350//350 347//347 351//351
f 89//89 88//88 352//352
f 353//353 352//352 88//88
f 351//351 352//352 353//353
f 346//346 352//352 351//351
f 340//340 346//346 351//351
f 345//345 346//346 340//340
f 339//339 345//345 340//340
f 344//344 345//345 339//339
f 343//343 344//344 339//339
f 341//341 343//343 339//339
f 334//334 343//343 341//341
f 333//333 334//334 341//341
f 342//342 333//333 341//341
f 346//346 337//337 352//352
f 348//348 352//352 337//337
f 349//349 352//352 348//348
f 354//354 352//352 349//349
f 354//354 349//349 355//355
f 350//350 355//355 349//349
f 353//353 356//356 351//351
f 357//357 351//351 356//356
f 350//350 351//351 357//357
f 355//355 350//350 357//357
f 353//353 88//88 356//356
f 358//358 356//356 88//88
f 359//359 358//358 88//88
f 359//359 360//360 358//358
f 361//361 358//358 360//360
f 352//352 354//354 89//89
f 362//362 89//89 354//354
f 361//361 89//89 362//362
f 360//360 89//89 361//361
f 357//357 362//362 355//355
f 354//354 355//355 362//362
f 358//358 361//361 356//356
f 357//357 356//356 361//361
f 362//362 357//357 361//361
f 363//363 364//364 365//365
f 366//366 363//363 365//365
f 367//367 368//368 369//369
f 370//370 367//367 369//369
f 371//371 372//372 373//373
f 371//371 364//364 363//363
f 364//364 374//374 365//365
f 371//371 373//373 364//364
f 374//374 364//364 373//373
f 370//370 375//375 372//372
f 373//373 372//372 375//375
f 370//370 369//369 375//375
f 368//368 376//376 369//369
f 377//377 378//378 368//368
f 376//376 368//368 378//378
f 379//379 380//380 377//377
f 378//378 377//377 380//380
f 379//379 381//381 380//380
f 382//382 381//381 383//383
f 379//379 383//383 381//381
f 384//384 385//385 383//383
f 382//382 383//383 385//385
f 386//386 387//387 384//384
f 385//385 384//384 387//387
f 386//386 388//388 387//387
f 389//389 387//387 388//388
f 388//388 390//390 389//389
f 391//391 389//389 390//390
f 390//390 392//392 391//391
f 393//393 391//391 392//392
f 394//394 363//363 366//366
f 366//366 365//365 395//395
f 84//84 392//392 396//396
f 390//390 396//396 392//392
f 388//388 396//396 390//390
f 386//386 396//396 388//388
f 384//384 396//396 386//386
f 396//396 384//384 397//397
f 383//383 397//397 384//384
f 379//379 397//397 383//383
f 377//377 397//397 379//379
f 397//397 377//377 398//398
f 367//367 398//398 377//377
f 368//368 367//367 377//377
f 399//399 398//398 371//371
f 372//372 371//371 398//398
f 370//370 372//372 398//398
f 367//367 370//370 398//398
f 400//400 399//399 363//363
f 371//371 363//363 399//399
f 401//401 402//402 395//395
f 366//366 395//395 402//402
f 366//366 402//402 394//394
f 401//401 395//395 403//403
f 365//365 403//403 395//395
f 403//403 365//365 404//404
f 374//374 404//404 365//365
f 404//404 374//374 405//405
f 373//373 405//405 374//374
f 375//375 405//405 373//373
f 406//406 405//405 380//380
f 378//378 380//380 405//405
f 376//376 378//378 405//405
f 375//375 376//376 405//405
f 369//369 376//376 375//375
f 407//407 406//406 382//382
f 381//381 382//382 406//406
f 380//380 381//381 406//406
f 408//408 407//407 389//389
f 387//387 389//389 407//407
f 382//382 387//387 407//407
f 385//385 387//387 382//382
f 87//87 408//408 393//393
f 391//391 393//393 408//408
f 389//389 391//391 408//408
f 402//402 400//400 394//394
f 363//363 394//394 400//400
f 409//409 394//394 410//410
f 366//366 410//410 394//394
f 411//411 410//410 366//366
f 395//395 411//411 366//366
f 412//412 410//410 413//413
f 414//414 412//412 413//413
f 415//415 416//416 417//417
f 417//417 418//418 419//419
f 420//420 414//414 421//421
f 422//422 421//421 414//414
f 422//422 414//414 413//413
f 413//413 410//410 411//411
f 423//423 411//411 401//401
f 395//395 401//401 411//411
f 87//87 84//84 408//408
f 396//396 408//408 84//84
f 407//407 408//408 396//396
f 397//397 407//407 396//396
f 406//406 407//407 397//397
f 398//398 406//406 397//397
f 405//405 406//406 398//398
f 399//399 405//405 398//398
f 400//400 405//405 399//399
f 404//404 405//405 400//400
f 402//402 404//404 400//400
f 401//401 404//404 402//402
f 403//403 404//404 401//401
f 409//409 424//424 394//394
f 402//402 394//394 424//424
f 412//412 409//409 410//410
f 414//414 420//420 412//412
f 425//425 420//420 421//421
f 418//418 425//425 419//419
f 421//421 419//419 425//425
f 426//426 418//418 417//417
f 416//416 426//426 417//417
f 427//427 416//416 428//428
f 415//415 428//428 416//416
f 429//429 430//430 417//417
f 415//415 417//417 430//430
f 428//428 415//415 430//430
f 429//429 417//417 431//431
f 419//419 431//431 417//417
f 421//421 431//431 419//419
f 422//422 431//431 421//421
f 431//431 422//422 432//432
f 413//413 432//432 422//422
f 432//432 413//413 423//423
f 411//411 423//423 413//413
f 424//424 423//423 409//409
f 410//410 409//409 423//423
f 411//411 410//410 423//423
f 402//402 424//424 401//401
f 423//423 401//401 424//424
f 412//412 433//433 409//409
f 424//424 409//409 433//433
f 420//420 434//434 412//412
f 433//433 412//412 434//434
f 426//426 435//435 418//418
f 434//434 418//418 435//435
f 425//425 418//418 434//434
f 420//420 425//425 434//434
f 435//435 426//426 436//436
f 427//427 436//436 426//426
f 416//416 427//427 426//426
f 437//437 438//438 428//428
f 427//427 428//428 438//438
f 439//439 438//438 440//440
f 437//437 440//440 438//438
f 430//430 441//441 428//428
f 437//437 428//428 441//441
f 440//440 437//437 441//441
f 442//442 443//443 444//444
f 445//445 444//444 443//443
f 441//441 444//444 445//445
f 436//436 444//444 441//441
f 430//430 436//436 441//441
f 435//435 436//436 430//430
f 429//429 435//435 430//430
f 434//434 435//435 429//429
f 433//433 434//434 429//429
f 431//431 433//433 429//429
f 424//424 433//433 431//431
f 423//423 424//424 431//431
f 432//432 423//423 431//431
f 444//444 436//436 446//446
f 439//439 446//446 436//436
f 438//438 439//439 436//436
f 427//427 438//438 436//436
f 446//446 439//439 447//447
f 440//440 447//447 439//439
f 441//441 445//445 440//440
f 447//447 440//440 445//445
f 448//448 447//447 445//445
f 449//449 448//448 445//445
f 445//445 443//443 449//449
f 450//450 449//449 443//443
f 451//451 450//450 443//443
f 451//451 452//452 450//450
f 453//453 450//450 452//452
f 442//442 444//444 452//452
f 453//453 452//452 444//444
f 454//454 453//453 444//444
f 446//446 454//454 444//444
f 448//448 454//454 447//447
f 446//446 447//447 454//454
f 450//450 453//453 449//449
f 448//448 449//449 453//453
f 454//454 448//448 453//453
f 304//304 262//262 261//261
f 262//262 304//304 318//318
f 304//304 443//443 318//318
f 443//443 304//304 442//442
f 125//125 262//262 139//139
f 262//262 125//125 261//261
f 125//125 304//304 261//261
f 304//304 125//125 442//442
f 443//443 125//125 139//139
f 125//125 443//443 442//442
f 443//443 262//262 318//318
f 262//262 443//443 139//139
f 91//91 88//88 85//85
f 87//87 85//85 88//88
f 139//139 443//443 262//262
f 318//318 262//262 443//443
f 11//11 12//12 13//13
f 12//12 11//11 10//10
f 14//14 13//13 15//15
f 13//13 14//14 11//11
f 16//16 15//15 17//17
f 15//15 16//16 14//14
f 19//19 16//16 17//17
f 16//16 19//19 18//18
f 21//21 18//18 19//19
f 18//18 21//21 20//20
f 23//23 24//24 25//25
f 24//24 23//23 22//22
f 27//27 20//20 21//21
f 20//20 27//27 26//26
f 22//22 29//29 24//24
f 29//29 22//22 28//28
f 31//31 26//26 27//27
f 26//26 31//31 30//30
f 28//28 33//33 29//29
f 33//33 28//28 32//32
f 35//35 30//30 31//31
f 30//30 35//35 34//34
f 33//33 36//36 37//37
f 36//36 33//33 32//32
f 37//37 34//34 35//35
f 34//34 37//37 36//36
f 39//39 40//40 41//41
f 40//40 39//39 38//38
f 43//43 44//44 45//45
f 44//44 43//43 42//42
f 47//47 39//39 41//41
f 39//39 47//47 46//46
f 44//44 48//48 49//49
f 48//48 44//44 42//42
f 51//51 46//46 47//47
f 46//46 51//51 50//50
f 49//49 52//52 53//53
f 52//52 49//49 48//48
f 54//54 51//51 55//55
f 51//51 54//54 50//50
f 52//52 57//57 53//53
f 57//57 52//52 56//56
f 58//58 55//55 59//59
f 55//55 58//58 54//54
f 56//56 61//61 57//57
f 61//61 56//56 60//60
f 62//62 59//59 63//63
f 59//59 62//62 58//58
f 60//60 65//65 61//61
f 65//65 60//60 64//64
f 64//64 73//73 71//71
f 73//73 69//69 68//68
f 64//64 69//69 73//73
f 64//64 72//72 69//69
f 72//72 3//3 66//66
f 64//64 3//3 72//72
f 64//64 1//1 3//3
f 1//1 63//63 4//4
f 1//1 62//62 63//63
f 62//62 1//1 64//64
f 71//71 65//65 64//64
f 70//70 65//65 71//71
f 68//68 65//65 70//70
f 67//67 68//68 69//69
f 67//67 65//65 68//68
f 66//66 65//65 67//67
f 2//2 66//66 3//3
f 4//4 66//66 2//2
f 66//66 63//63 65//65
f 63//63 66//66 4//4
f 74//74 45//45 75//75
f 45//45 74//74 43//43
f 38//38 25//25 40//40
f 25//25 38//38 23//23
f 71//71 77//77 70//70
f 77//77 71//71 76//76
f 68//68 77//77 78//78
f 77//77 68//68 70//70
f 78//78 73//73 68//68
f 73//73 78//78 79//79
f 76//76 73//73 79//79
f 73//73 76//76 71//71
f 79//79 77//77 76//76
f 77//77 79//79 78//78
f 66//66 80//80 81//81
f 80//80 66//66 67//67
f 82//82 66//66 81//81
f 66//66 82//82 72//72
f 82//82 80//80 83//83
f 80//80 82//82 81//81
f 83//83 67//67 80//80
f 67//67 83//83 69//69
f 69//69 72//72 83//83
f 82//82 83//83 72//72
f 72//72 83//83 82//82
f 83//83 72//72 69//69
f 87//87 84//84 85//85
f 86//86 85//85 84//84
f 89//89 84//84 88//88
f 87//87 88//88 84//84
f 86//86 90//90 85//85
f 91//91 85//85 90//90
f 89//89 90//90 84//84
f 86//86 84//84 90//90
f 89//89 88//88 90//90
f 91//91 90//90 88//88
f 94//94 93//93 92//92
f 94//94 92//92 95//95
f 98//98 97//97 96//96
f 98//98 96//96 99//99
f 102//102 101//101 100//100
f 92//92 93//93 100//100
f 94//94 103//103 93//93
f 102//102 93//93 103//103
f 93//93 102//102 100//100
f 104//104 101//101 102//102
f 101//101 104//104 99//99
f 104//104 98//98 99//99
f 98//98 105//105 97//97
f 107//107 97//97 105//105
f 97//97 107//107 106//106
f 109//109 106//106 107//107
f 106//106 109//109 108//108
f 109//109 110//110 108//108
f 110//110 112//112 108//108
f 112//112 110//110 111//111
f 114//114 112//112 111//111
f 112//112 114//114 113//113
f 116//116 113//113 114//114
f 113//113 116//116 115//115
f 117//117 116//116 118//118
f 116//116 117//117 115//115
f 119//119 118//118 120//120
f 118//118 119//119 117//117
f 121//121 120//120 122//122
f 120//120 121//121 119//119
f 95//95 92//92 123//123
f 124//124 94//94 95//95
f 115//115 126//126 113//113
f 117//117 126//126 115//115
f 119//119 126//126 117//117
f 121//121 126//126 119//119
f 126//126 121//121 125//125
f 108//108 127//127 106//106
f 112//112 127//127 108//108
f 113//113 127//127 112//112
f 127//127 113//113 126//126
f 97//97 128//128 96//96
f 106//106 128//128 97//97
f 128//128 106//106 127//127
f 128//128 99//99 96//96
f 128//128 101//101 99//99
f 128//128 100//100 101//101
f 100//100 128//128 129//129
f 129//129 92//92 100//100
f 92//92 129//129 130//130
f 123//123 124//124 95//95
f 132//132 124//124 123//123
f 124//124 132//132 131//131
f 124//124 133//133 94//94
f 133//133 124//124 131//131
f 94//94 134//134 103//103
f 134//134 94//94 133//133
f 102//102 135//135 104//104
f 103//103 135//135 102//102
f 135//135 103//103 134//134
f 104//104 105//105 98//98
f 135//135 105//105 104//104
f 135//135 107//107 105//105
f 135//135 109//109 107//107
f 109//109 135//135 136//136
f 136//136 110//110 109//109
f 136//136 111//111 110//110
f 111//111 136//136 137//137
f 111//111 116//116 114//114
f 137//137 116//116 111//111
f 137//137 118//118 116//116
f 118//118 137//137 138//138
f 138//138 120//120 118//118
f 138//138 122//122 120//120
f 122//122 138//138 139//139
f 130//130 123//123 92//92
f 123//123 130//130 132//132
f 95//95 142//142 124//124
f 95//95 141//141 142//142
f 123//123 141//141 95//95
f 141//141 123//123 140//140
f 144//144 141//141 143//143
f 144//144 143//143 145//145
f 148//148 147//147 146//146
f 150//150 149//149 148//148
f 145//145 152//152 153//153
f 152//152 145//145 151//151
f 144//144 145//145 153//153
f 142//142 141//141 144//144
f 142//142 131//131 124//124
f 131//131 142//142 154//154
f 131//131 134//134 133//133
f 132//132 134//134 131//131
f 130//130 134//134 132//132
f 130//130 135//135 134//134
f 129//129 135//135 130//130
f 128//128 135//135 129//129
f 128//128 136//136 135//135
f 127//127 136//136 128//128
f 127//127 137//137 136//136
f 126//126 137//137 127//127
f 126//126 138//138 137//137
f 125//125 138//138 126//126
f 138//138 125//125 139//139
f 132//132 140//140 123//123
f 140//140 132//132 155//155
f 141//141 140//140 143//143
f 143//143 151//151 145//145
f 152//152 151//151 156//156
f 156//156 150//150 152//152
f 150//150 156//156 149//149
f 148//148 149//149 157//157
f 148//148 157//157 147//147
f 147//147 159//159 146//146
f 159//159 147//147 158//158
f 161//161 146//146 159//159
f 161//161 148//148 146//146
f 148//148 161//161 160//160
f 152//152 162//162 153//153
f 150//150 162//162 152//152
f 148//148 162//162 150//150
f 162//162 148//148 160//160
f 153//153 163//163 144//144
f 163//163 153//153 162//162
f 144//144 154//154 142//142
f 154//154 144//144 163//163
f 154//154 141//141 142//142
f 154//154 140//140 141//141
f 140//140 154//154 155//155
f 155//155 131//131 154//154
f 131//131 155//155 132//132
f 155//155 143//143 140//140
f 143//143 155//155 164//164
f 165//165 143//143 164//164
f 143//143 165//165 151//151
f 165//165 156//156 151//151
f 165//165 149//149 156//156
f 165//165 157//157 149//149
f 157//157 165//165 166//166
f 147//147 167//167 158//158
f 157//157 167//167 147//147
f 167//167 157//157 166//166
f 169//169 159//159 158//158
f 159//159 169//169 168//168
f 169//169 171//171 168//168
f 171//171 169//169 170//170
f 168//168 161//161 159//159
f 171//171 161//161 168//168
f 161//161 171//171 172//172
f 162//162 154//154 163//163
f 162//162 155//155 154//154
f 162//162 164//164 155//155
f 160//160 164//164 162//162
f 160//160 165//165 164//164
f 160//160 166//166 165//165
f 161//161 166//166 160//160
f 161//161 167//167 166//166
f 172//172 167//167 161//161
f 172//172 173//173 167//167
f 174//174 173//173 172//172
f 85//85 173//173 174//174
f 173//173 85//85 86//86
f 167//167 169//169 158//158
f 167//167 170//170 169//169
f 167//167 175//175 170//170
f 175//175 167//167 173//173
f 170//170 176//176 171//171
f 176//176 170//170 175//175
f 177//177 171//171 176//176
f 174//174 177//177 178//178
f 174//174 171//171 177//177
f 171//171 174//174 172//172
f 85//85 179//179 180//180
f 85//85 178//178 179//179
f 178//178 85//85 174//174
f 181//181 179//179 182//182
f 179//179 181//181 180//180
f 173//173 183//183 175//175
f 173//173 182//182 183//183
f 173//173 181//181 182//182
f 181//181 173//173 86//86
f 183//183 176//176 175//175
f 176//176 183//183 177//177
f 182//182 177//177 183//183
f 182//182 178//178 177//177
f 178//178 182//182 179//179
f 186//186 185//185 184//184
f 185//185 9//9 184//184
f 189//189 188//188 187//187
f 192//192 191//191 190//190
f 190//190 194//194 193//193
f 197//197 186//186 195//195
f 196//196 195//195 186//186
f 196//196 186//186 184//184
f 186//186 197//197 185//185
f 198//198 197//197 195//195
f 194//194 198//198 193//193
f 195//195 193//193 198//198
f 199//199 194//194 190//190
f 191//191 199//199 190//190
f 201//201 191//191 200//200
f 192//192 200//200 191//191
f 188//188 201//201 187//187
f 200//200 187//187 201//201
f 203//203 202//202 189//189
f 188//188 189//189 202//202
f 205//205 202//202 204//204
f 203//203 204//204 202//202
f 207//207 205//205 206//206
f 204//204 206//206 205//205
f 207//207 206//206 208//208
f 209//209 208//208 206//206
f 208//208 209//209 210//210
f 211//211 210//210 209//209
f 210//210 211//211 212//212
f 213//213 212//212 211//211
f 184//184 9//9 8//8
f 185//185 7//7 9//9
f 91//91 213//213 214//214
f 211//211 214//214 213//213
f 209//209 214//214 211//211
f 214//214 209//209 215//215
f 206//206 215//215 209//209
f 203//203 215//215 206//206
f 204//204 203//203 206//206
f 215//215 203//203 216//216
f 189//189 216//216 203//203
f 187//187 216//216 189//189
f 216//216 187//187 217//217
f 200//200 217//217 187//187
f 192//192 217//217 200//200
f 190//190 217//217 192//192
f 193//193 217//217 190//190
f 218//218 217//217 196//196
f 195//195 196//196 217//217
f 193//193 195//195 217//217
f 219//219 218//218 184//184
f 196//196 184//184 218//218
f 5//5 7//7 220//220
f 185//185 220//220 7//7
f 220//220 185//185 221//221
f 197//197 221//221 185//185
f 221//221 197//197 222//222
f 198//198 222//222 197//197
f 194//194 222//222 198//198
f 199//199 222//222 194//194
f 223//223 222//222 201//201
f 199//199 201//201 222//222
f 191//191 201//201 199//199
f 224//224 223//223 205//205
f 202//202 205//205 223//223
f 188//188 202//202 223//223
f 201//201 188//188 223//223
f 90//90 224//224 212//212
f 210//210 212//212 224//224
f 208//208 210//210 224//224
f 207//207 208//208 224//224
f 205//205 207//207 224//224
f 227//227 226//226 225//225
f 6//6 219//219 8//8
f 184//184 8//8 219//219
f 7//7 229//229 9//9
f 227//227 9//9 229//229
f 228//228 9//9 227//227
f 8//8 9//9 228//228
f 226//226 230//230 225//225
f 233//233 232//232 231//231
f 234//234 233//233 231//231
f 237//237 236//236 235//235
f 237//237 230//230 226//226
f 229//229 226//226 227//227
f 238//238 229//229 5//5
f 7//7 5//5 229//229
f 90//90 91//91 224//224
f 214//214 224//224 91//91
f 215//215 224//224 214//214
f 223//223 224//224 215//215
f 216//216 223//223 215//215
f 222//222 223//223 216//216
f 217//217 222//222 216//216
f 221//221 222//222 217//217
f 220//220 221//221 217//217
f 218//218 220//220 217//217
f 5//5 220//220 218//218
f 6//6 5//5 218//218
f 219//219 6//6 218//218
f 227//227 225//225 228//228
f 228//228 239//239 8//8
f 6//6 8//8 239//239
f 230//230 240//240 225//225
f 237//237 235//235 230//230
f 240//240 230//230 235//235
f 234//234 241//241 236//236
f 235//235 236//236 241//241
f 234//234 231//231 241//241
f 232//232 242//242 231//231
f 244//244 243//243 232//232
f 242//242 232//232 243//243
f 246//246 245//245 233//233
f 232//232 233//233 245//245
f 244//244 232//232 245//245
f 246//246 233//233 247//247
f 234//234 247//247 233//233
f 236//236 247//247 234//234
f 237//237 247//247 236//236
f 247//247 237//237 248//248
f 226//226 248//248 237//237
f 248//248 226//226 238//238
f 229//229 238//238 226//226
f 238//238 5//5 239//239
f 6//6 239//239 5//5
f 225//225 249//249 228//228
f 239//239 228//228 249//249
f 240//240 250//250 225//225
f 249//249 225//225 250//250
f 231//231 251//251 241//241
f 250//250 241//241 251//251
f 235//235 241//241 250//250
f 240//240 235//235 250//250
f 253//253 243//243 252//252
f 244//244 252//252 243//243
f 254//254 251//251 243//243
f 242//242 243//243 251//251
f 231//231 242//242 251//251
f 256//256 255//255 252//252
f 253//253 252//252 255//255
f 245//245 257//257 244//244
f 252//252 244//244 257//257
f 256//256 252//252 257//257
f 258//258 256//256 257//257
f 262//262 261//261 260//260
f 257//257 260//260 261//261
f 259//259 260//260 257//257
f 245//245 259//259 257//257
f 254//254 259//259 245//245
f 246//246 254//254 245//245
f 251//251 254//254 246//246
f 247//247 251//251 246//246
f 248//248 251//251 247//247
f 250//250 251//251 248//248
f 238//238 250//250 248//248
f 239//239 250//250 238//238
f 249//249 250//250 239//239
f 259//259 254//254 255//255
f 253//253 255//255 254//254
f 243//243 253//253 254//254
f 258//258 263//263 256//256
f 255//255 256//256 263//263
f 257//257 261//261 258//258
f 266//266 258//258 261//261
f 264//264 266//266 261//261
f 265//265 264//264 261//261
f 268//268 267//267 265//265
f 264//264 265//265 267//267
f 262//262 260//260 268//268
f 267//267 268//268 260//260
f 269//269 267//267 260//260
f 260//260 259//259 269//269
f 270//270 269//269 259//259
f 255//255 270//270 259//259
f 263//263 270//270 255//255
f 270//270 263//263 266//266
f 258//258 266//266 263//263
f 267//267 269//269 264//264
f 270//270 264//264 269//269
f 266//266 264//264 270//270
f 273//273 272//272 271//271
f 273//273 271//271 274//274
f 277//277 276//276 275//275
f 277//277 275//275 278//278
f 281//281 280//280 279//279
f 271//271 272//272 279//279
f 273//273 282//282 272//272
f 281//281 272//272 282//282
f 272//272 281//281 279//279
f 283//283 280//280 281//281
f 280//280 283//283 278//278
f 283//283 277//277 278//278
f 277//277 284//284 276//276
f 286//286 276//276 284//284
f 276//276 286//286 285//285
f 288//288 285//285 286//286
f 285//285 288//288 287//287
f 288//288 289//289 287//287
f 289//289 291//291 287//287
f 291//291 289//289 290//290
f 293//293 291//291 290//290
f 291//291 293//293 292//292
f 295//295 292//292 293//293
f 292//292 295//295 294//294
f 296//296 295//295 297//297
f 295//295 296//296 294//294
f 298//298 297//297 299//299
f 297//297 298//298 296//296
f 300//300 299//299 301//301
f 299//299 300//300 298//298
f 274//274 271//271 302//302
f 303//303 273//273 274//274
f 294//294 305//305 292//292
f 296//296 305//305 294//294
f 298//298 305//305 296//296
f 300//300 305//305 298//298
f 305//305 300//300 304//304
f 287//287 306//306 285//285
f 291//291 306//306 287//287
f 292//292 306//306 291//291
f 306//306 292//292 305//305
f 285//285 275//275 276//276
f 285//285 307//307 275//275
f 307//307 285//285 306//306
f 307//307 278//278 275//275
f 307//307 280//280 278//278
f 307//307 279//279 280//280
f 279//279 307//307 308//308
f 308//308 271//271 279//279
f 271//271 308//308 309//309
f 302//302 303//303 274//274
f 302//302 311//311 303//303
f 311//311 302//302 310//310
f 303//303 312//312 273//273
f 312//312 303//303 311//311
f 273//273 313//313 282//282
f 313//313 273//273 312//312
f 281//281 314//314 283//283
f 282//282 314//314 281//281
f 314//314 282//282 313//313
f 314//314 277//277 283//283
f 314//314 284//284 277//277
f 314//314 286//286 284//284
f 314//314 288//288 286//286
f 288//288 314//314 315//315
f 315//315 289//289 288//288
f 315//315 290//290 289//289
f 290//290 315//315 316//316
f 290//290 295//295 293//293
f 316//316 295//295 290//290
f 316//316 297//297 295//295
f 297//297 316//316 317//317
f 317//317 299//299 297//297
f 317//317 301//301 299//299
f 301//301 317//317 318//318
f 309//309 302//302 271//271
f 302//302 309//309 310//310
f 274//274 321//321 303//303
f 274//274 320//320 321//321
f 302//302 320//320 274//274
f 320//320 302//302 319//319
f 323//323 320//320 322//322
f 323//323 322//322 324//324
f 327//327 326//326 325//325
f 329//329 328//328 327//327
f 324//324 331//331 332//332
f 331//331 324//324 330//330
f 323//323 324//324 332//332
f 321//321 320//320 323//323
f 321//321 311//311 303//303
f 311//311 321//321 333//333
f 311//311 313//313 312//312
f 310//310 313//313 311//311
f 309//309 313//313 310//310
f 309//309 314//314 313//313
f 308//308 314//314 309//309
f 307//307 314//314 308//308
f 307//307 315//315 314//314
f 306//306 315//315 307//307
f 306//306 316//316 315//315
f 305//305 316//316 306//306
f 305//305 317//317 316//316
f 304//304 317//317 305//305
f 317//317 304//304 318//318
f 334//334 302//302 310//310
f 302//302 334//334 319//319
f 320//320 319//319 322//322
f 322//322 330//330 324//324
f 331//331 330//330 335//335
f 335//335 329//329 331//331
f 329//329 335//335 328//328
f 327//327 328//328 336//336
f 327//327 336//336 326//326
f 326//326 338//338 325//325
f 338//338 326//326 337//337
f 340//340 325//325 338//338
f 340//340 327//327 325//325
f 327//327 340//340 339//339
f 331//331 341//341 332//332
f 329//329 341//341 331//331
f 327//327 341//341 329//329
f 341//341 327//327 339//339
f 332//332 342//342 323//323
f 342//342 332//332 341//341
f 323//323 333//333 321//321
f 333//333 323//323 342//342
f 321//321 319//319 320//320
f 333//333 319//319 321//321
f 319//319 333//333 334//334
f 334//334 311//311 333//333
f 311//311 334//334 310//310
f 334//334 322//322 319//319
f 322//322 334//334 343//343
f 344//344 322//322 343//343
f 322//322 344//344 330//330
f 344//344 335//335 330//330
f 344//344 328//328 335//335
f 344//344 336//336 328//328
f 336//336 344//344 345//345
f 345//345 326//326 336//336
f 345//345 337//337 326//326
f 337//337 345//345 346//346
f 348//348 338//338 337//337
f 338//338 348//348 347//347
f 348//348 350//350 347//347
f 350//350 348//348 349//349
f 351//351 347//347 350//350
f 351//351 338//338 347//347
f 338//338 351//351 340//340
f 341//341 333//333 342//342
f 341//341 334//334 333//333
f 341//341 343//343 334//334
f 339//339 343//343 341//341
f 339//339 344//344 343//343
f 339//339 345//345 344//344
f 340//340 345//345 339//339
f 340//340 346//346 345//345
f 351//351 346//346 340//340
f 351//351 352//352 346//346
f 353//353 352//352 351//351
f 88//88 352//352 353//353
f 352//352 88//88 89//89
f 349//349 352//352 354//354
f 348//348 352//352 349//349
f 337//337 352//352 348//348
f 352//352 337//337 346//346
f 349//349 355//355 350//350
f 355//355 349//349 354//354
f 357//357 350//350 355//355
f 357//357 351//351 350//350
f 356//356 351//351 357//357
f 351//351 356//356 353//353
f 88//88 358//358 359//359
f 88//88 356//356 358//358
f 356//356 88//88 353//353
f 360//360 358//358 361//361
f 358//358 360//360 359//359
f 361//361 89//89 360//360
f 362//362 89//89 361//361
f 354//354 89//89 362//362
f 89//89 354//354 352//352
f 362//362 355//355 354//354
f 355//355 362//362 357//357
f 361//361 357//357 362//362
f 361//361 356//356 357//357
f 356//356 361//361 358//358
f 365//365 364//364 363//363
f 365//365 363//363 366//366
f 369//369 368//368 367//367
f 369//369 367//367 370//370
f 373//373 372//372 371//371
f 363//363 364//364 371//371
f 365//365 374//374 364//364
f 373//373 364//364 374//374
f 364//364 373//373 371//371
f 375//375 372//372 373//373
f 372//372 375//375 370//370
f 375//375 369//369 370//370
f 369//369 376//376 368//368
f 378//378 368//368 376//376
f 368//368 378//378 377//377
f 380//380 377//377 378//378
f 377//377 380//380 379//379
f 380//380 381//381 379//379
f 381//381 383//383 379//379
f 383//383 381//381 382//382
f 385//385 383//383 382//382
f 383//383 385//385 384//384
f 387//387 384//384 385//385
f 384//384 387//387 386//386
f 388//388 387//387 389//389
f 387//387 388//388 386//386
f 390//390 389//389 391//391
f 389//389 390//390 388//388
f 392//392 391//391 393//393
f 391//391 392//392 390//390
f 366//366 363//363 394//394
f 395//395 365//365 366//366
f 386//386 396//396 384//384
f 388//388 396//396 386//386
f 390//390 396//396 388//388
f 392//392 396//396 390//390
f 396//396 392//392 84//84
f 379//379 397//397 377//377
f 383//383 397//397 379//379
f 384//384 397//397 383//383
f 397//397 384//384 396//396
f 377//377 367//367 368//368
f 377//377 398//398 367//367
f 398//398 377//377 397//397
f 398//398 370//370 367//367
f 398//398 372//372 370//370
f 398//398 371//371 372//372
f 371//371 398//398 399//399
f 399//399 363//363 371//371
f 363//363 399//399 400//400
f 394//394 402//402 366//366
f 402//402 395//395 366//366
f 395//395 402//402 401//401
f 395//395 403//403 365//365
f 403//403 395//395 401//401
f 365//365 404//404 374//374
f 404//404 365//365 403//403
f 373//373 405//405 375//375
f 374//374 405//405 373//373
f 405//405 374//374 404//404
f 375//375 376//376 369//369
f 405//405 376//376 375//375
f 405//405 378//378 376//376
f 405//405 380//380 378//378
f 380//380 405//405 406//406
f 406//406 381//381 380//380
f 406//406 382//382 381//381
f 382//382 406//406 407//407
f 382//382 387//387 385//385
f 407//407 387//387 382//382
f 407//407 389//389 387//387
f 389//389 407//407 408//408
f 408//408 391//391 389//389
f 408//408 393//393 391//391
f 393//393 408//408 87//87
f 400//400 394//394 363//363
f 394//394 400//400 402//402
f 366//366 411//411 395//395
f 366//366 410//410 411//411
f 394//394 410//410 366//366
f 410//410 394//394 409//409
f 413//413 410//410 412//412
f 413//413 412//412 414//414
f 417//417 416//416 415//415
f 419//419 418//418 417//417
f 414//414 421//421 422//422
f 421//421 414//414 420//420
f 413//413 414//414 422//422
f 411//411 410//410 413//413
f 411//411 401//401 395//395
f 401//401 411//411 423//423
f 401//401 404//404 403//403
f 402//402 404//404 401//401
f 400//400 404//404 402//402
f 400//400 405//405 404//404
f 399//399 405//405 400//400
f 398//398 405//405 399//399
f 398//398 406//406 405//405
f 397//397 406//406 398//398
f 397//397 407//407 406//406
f 396//396 407//407 397//397
f 396//396 408//408 407//407
f 84//84 408//408 396//396
f 408//408 84//84 87//87
f 424//424 394//394 402//402
f 394//394 424//424 409//409
f 410//410 409//409 412//412
f 412//412 420//420 414//414
f 421//421 420//420 425//425
f 425//425 419//419 421//421
f 419//419 425//425 418//418
f 417//417 418//418 426//426
f 417//417 426//426 416//416
f 416//416 428//428 415//415
f 428//428 416//416 427//427
f 430//430 415//415 428//428
f 430//430 417//417 415//415
f 417//417 430//430 429//429
f 421//421 431//431 422//422
f 419//419 431//431 421//421
f 417//417 431//431 419//419
f 431//431 417//417 429//429
f 422//422 432//432 413//413
f 432//432 422//422 431//431
f 413//413 423//423 411//411
f 423//423 413//413 432//432
f 423//423 410//410 411//411
f 423//423 409//409 410//410
f 409//409 423//423 424//424
f 424//424 401//401 423//423
f 401//401 424//424 402//402
f 433//433 409//409 424//424
f 409//409 433//433 412//412
f 434//434 412//412 433//433
f 412//412 434//434 420//420
f 434//434 425//425 420//420
f 434//434 418//418 425//425
f 435//435 418//418 434//434
f 418//418 435//435 426//426
f 426//426 427//427 416//416
f 426//426 436//436 427//427
f 436//436 426//426 435//435
f 438//438 428//428 427//427
f 428//428 438//438 437//437
f 438//438 440//440 437//437
f 440//440 438//438 439//439
f 441//441 437//437 440//440
f 441//441 428//428 437//437
f 428//428 441//441 430//430
f 431//431 423//423 432//432
f 431//431 424//424 423//423
f 431//431 433//433 424//424
f 429//429 433//433 431//431
f 429//429 434//434 433//433
f 429//429 435//435 434//434
f 430//430 435//435 429//429
f 430//430 436//436 435//435
f 441//441 436//436 430//430
f 441//441 444//444 436//436
f 445//445 444//444 441//441
f 443//443 444//444 445//445
f 444//444 443//443 442//442
f 436//436 438//438 427//427
f 436//436 439//439 438//438
f 436//436 446//446 439//439
f 446//446 436//436 444//444
f 439//439 447//447 440//440
f 447//447 439//439 446//446
f 445//445 448//448 449//449
f 445//445 447//447 448//448
f 445//445 440//440 447//447
f 440//440 445//445 441//441
f 443//443 450//450 451//451
f 443//443 449//449 450//450
f 449//449 443//443 445//445
f 452//452 450//450 453//453
f 450//450 452//452 451//451
f 444//444 454//454 446//446
f 444//444 453//453 454//454
f 444//444 452//452 453//453
f 452//452 444//444 442//442
f 454//454 447//447 446//446
f 447//447 454//454 448//448
f 453//453 448//448 454//454
f 453//453 449//449 448//448
f 449//449 453//453 450//450
f 318//318 304//304 262//262
f 261//261 262//262 304//304
f 442//442 304//304 443//443
f 318//318 443//443 304//304
f 261//261 125//125 262//262
f 139//139 262//262 125//125
f 442//442 125//125 304//304
f 261//261 304//304 125//125
f 442//442 443//443 125//125
f 139//139 125//125 443//443