# https://github.com/mikedh/trimesh
v 0.04570400 0.02925400 0.06595900
v -0.00480000 -0.02577300 0.06595900
v 0.04570400 -0.02577300 0.06595900
v -0.04333100 0.02925400 0.06595900
v -0.04333100 -0.02577300 0.06595900
v -0.04333100 -0.02577300 -0.06679000
v -0.04333100 0.02925400 -0.06679000
v -0.01188100 -0.02577300 0.02948900
v -0.01188100 -0.02577300 0.02670100
v -0.03335400 -0.02577300 0.01814700
v -0.00902500 -0.02577300 0.02670100
v -0.03361400 -0.02577300 0.01813000
v -0.03386800 -0.02577300 0.01807900
v -0.03411400 -0.02577300 0.01799600
v -0.03434800 -0.02577300 0.01788100
v -0.03456400 -0.02577300 0.01773700
v -0.03475900 -0.02577300 0.01756500
v -0.03493000 -0.02577300 0.01737000
v -0.03507500 -0.02577300 0.01715400
v -0.03518900 -0.02577300 0.01692100
v -0.03527300 -0.02577300 0.01667500
v -0.03532400 -0.02577300 0.01642000
v -0.03534100 -0.02577300 0.01616100
v -0.03534100 -0.02577300 -0.00340100
v -0.03532800 -0.02577300 -0.00359000
v -0.03408400 -0.02577300 -0.00483500
v -0.01188100 -0.02577300 -0.01246500
v -0.03389500 -0.02577300 -0.00484700
v -0.03426900 -0.02577300 -0.00479800
v -0.03444800 -0.02577300 -0.00473700
v -0.01188100 -0.02577300 -0.01692500
v -0.03461800 -0.02577300 -0.00465300
v -0.00902500 -0.02577300 -0.01692500
v -0.03477500 -0.02577300 -0.00454800
v -0.03491700 -0.02577300 -0.00442400
v -0.03504200 -0.02577300 -0.00428100
v -0.03514700 -0.02577300 -0.00412400
v -0.03523100 -0.02577300 -0.00395400
v -0.03529100 -0.02577300 -0.00377500
v -0.00902500 -0.02577300 0.02948900
v -0.01820400 -0.02577300 0.01814700
v -0.01792800 -0.02577300 0.01812900
v -0.01765600 -0.02577300 0.01807500
v -0.01739300 -0.02577300 0.01798600
v -0.01714400 -0.02577300 0.01786300
v -0.01691400 -0.02577300 0.01770900
v -0.01670500 -0.02577300 0.01752600
v -0.01652200 -0.02577300 0.01731800
v -0.01636800 -0.02577300 0.01708700
v -0.01624600 -0.02577300 0.01683800
v -0.01615600 -0.02577300 0.01657500
v -0.01610200 -0.02577300 0.01630400
v -0.01608400 -0.02577300 0.01602700
v -0.01608400 -0.02577300 -0.00336900
v -0.01609700 -0.02577300 -0.00356100
v -0.01613500 -0.02577300 -0.00375100
v -0.01756300 -0.02577300 -0.00484700
v -0.01737000 -0.02577300 -0.00483400
v -0.01718000 -0.02577300 -0.00479700
v -0.01699700 -0.02577300 -0.00473400
v -0.01682400 -0.02577300 -0.00464900
v -0.01666300 -0.02577300 -0.00454100
v -0.01651700 -0.02577300 -0.00441400
v -0.01639000 -0.02577300 -0.00426800
v -0.01628200 -0.02577300 -0.00410800
v -0.01619700 -0.02577300 -0.00393400
v -0.00902500 -0.02577300 -0.01246500
v -0.00480000 -0.02577300 -0.06679000
v -0.00031900 -0.02577300 0.02898300
v -0.00031900 -0.02577300 0.02619500
v -0.00031900 -0.02577300 -0.01297200
v 0.00253700 -0.02577300 0.02619500
v -0.00031900 -0.02577300 -0.01743200
v 0.00253700 -0.02577300 -0.01743200
v 0.00253700 -0.02577300 0.02898300
v 0.00253700 -0.02577300 -0.01297200
v 0.04570400 -0.02577300 -0.06679000
v 0.04570400 0.02925400 -0.06679000
v -0.01188100 -0.02773400 0.02670100
v -0.00902500 -0.02773400 0.02670100
v -0.00902500 -0.02773400 -0.01246500
v -0.01188100 -0.02773400 -0.01246500
v -0.01188100 -0.02932600 -0.01692500
v -0.01188100 -0.02932600 0.02948900
v -0.00902500 -0.02932600 0.02948900
v -0.00902500 -0.02932600 -0.01692500
v 0.00253700 -0.02932600 0.02898300
v -0.00031900 -0.02932600 0.02898300
v -0.00031900 -0.02932600 -0.01743200
v 0.00253700 -0.02932600 -0.01743200
v -0.00031900 -0.02773400 0.02619500
v 0.00253700 -0.02773400 0.02619500
v 0.00253700 -0.02773400 -0.01297200
v -0.00031900 -0.02773400 -0.01297200
v -0.03047100 -0.02014100 0.00307000
v -0.03047100 -0.01921700 0.00945100
v -0.03047100 -0.01921700 0.00307000
v -0.03047100 -0.02014100 0.00945100
v -0.02696100 -0.02014100 0.00945100
v -0.02696100 -0.02014100 0.00307000
v -0.02696100 -0.01921700 0.00307000
v -0.02696100 -0.01921700 0.00945100
v -0.02479800 -0.01998800 0.00299900
v -0.02479800 -0.01913500 0.00945100
v -0.02479800 -0.01913500 0.00299900
v -0.02479800 -0.01998800 0.00945100
v -0.02108900 -0.01998800 0.00945100
v -0.02108900 -0.01998800 0.00299900
v -0.02108900 -0.01913500 0.00299900
v -0.02108900 -0.01913500 0.00945100
v -0.01814200 -0.02577300 -0.00138500
v -0.01806400 -0.01825500 -0.00115600
v -0.01814200 -0.01825500 -0.00138500
v -0.01806400 -0.02577300 -0.00115600
v -0.01824900 -0.02577300 -0.00160300
v -0.01824900 -0.01825500 -0.00160300
v -0.01838400 -0.02577300 -0.00180400
v -0.01838400 -0.01825500 -0.00180400
v -0.01854400 -0.02577300 -0.00198600
v -0.01854400 -0.01825500 -0.00198600
v -0.01872600 -0.01825500 -0.00214600
v -0.01872600 -0.02577300 -0.00214600
v -0.01892700 -0.01825500 -0.00228100
v -0.01892700 -0.02577300 -0.00228100
v -0.01914500 -0.01825500 -0.00238800
v -0.01914500 -0.02577300 -0.00238800
v -0.01937400 -0.01825500 -0.00246600
v -0.01937400 -0.02577300 -0.00246600
v -0.01961200 -0.01825500 -0.00251300
v -0.01961200 -0.02577300 -0.00251300
v -0.01985400 -0.01825500 -0.00252900
v -0.01985400 -0.02577300 -0.00252900
v -0.03191600 -0.01825500 -0.00252900
v -0.03191600 -0.02577300 -0.00252900
v -0.03207000 -0.01825500 -0.00251900
v -0.03207000 -0.02577300 -0.00251900
v -0.03222100 -0.01825500 -0.00248900
v -0.03222100 -0.02577300 -0.00248900
v -0.03236700 -0.01825500 -0.00243900
v -0.03236700 -0.02577300 -0.00243900
v -0.03250500 -0.01825500 -0.00237100
v -0.03250500 -0.02577300 -0.00237100
v -0.03263300 -0.01825500 -0.00228600
v -0.03263300 -0.02577300 -0.00228600
v -0.03274900 -0.01825500 -0.00218400
v -0.03274900 -0.02577300 -0.00218400
v -0.03285000 -0.02577300 -0.00206800
v -0.03285000 -0.01825500 -0.00206800
v -0.03293600 -0.02577300 -0.00194000
v -0.03293600 -0.01825500 -0.00194000
v -0.03300400 -0.02577300 -0.00180200
v -0.03300400 -0.01825500 -0.00180200
v -0.03305400 -0.02577300 -0.00165600
v -0.03305400 -0.01825500 -0.00165600
v -0.03308400 -0.02577300 -0.00150500
v -0.03308400 -0.01825500 -0.00150500
v -0.03309400 -0.02577300 -0.00135100
v -0.03309400 -0.01825500 -0.00135100
v -0.03309400 -0.02577300 0.00816600
v -0.03309400 -0.01825500 0.00816600
v -0.03308300 -0.02577300 0.00833400
v -0.03308300 -0.01825500 0.00833400
v -0.03305000 -0.02577300 0.00849900
v -0.03305000 -0.01825500 0.00849900
v -0.03299600 -0.02577300 0.00865800
v -0.03299600 -0.01825500 0.00865800
v -0.03292200 -0.02577300 0.00880800
v -0.03292200 -0.01825500 0.00880800
v -0.03282800 -0.02577300 0.00894800
v -0.03282800 -0.01825500 0.00894800
v -0.03271700 -0.02577300 0.00907500
v -0.03271700 -0.01825500 0.00907500
v -0.03259100 -0.01825500 0.00918600
v -0.03259100 -0.02577300 0.00918600
v -0.03245100 -0.01825500 0.00927900
v -0.03245100 -0.02577300 0.00927900
v -0.03230000 -0.01825500 0.00935300
v -0.03230000 -0.02577300 0.00935300
v -0.03214100 -0.01825500 0.00940700
v -0.03214100 -0.02577300 0.00940700
v -0.03197600 -0.01825500 0.00944000
v -0.03197600 -0.02577300 0.00944000
v -0.03180900 -0.01825500 0.00945100
v -0.03180900 -0.02577300 0.00945100
v -0.02724800 -0.02128000 0.00945100
v -0.02690100 -0.02167200 0.00945100
v -0.02768400 -0.02099200 0.00945100
v -0.02818000 -0.02082600 0.00945100
v -0.02870200 -0.02079500 0.00945100
v -0.02921500 -0.02089900 0.00945100
v -0.02968300 -0.02113300 0.00945100
v -0.03007400 -0.02148000 0.00945100
v -0.03036300 -0.02191600 0.00945100
v -0.03052800 -0.02241300 0.00945100
v -0.01928200 -0.02577300 0.00945100
v -0.01928200 -0.01825500 0.00945100
v -0.02135500 -0.02429200 0.00945100
v -0.02453800 -0.02429200 0.00945100
v -0.02453800 -0.02076800 0.00945100
v -0.02656200 -0.02265200 0.00945100
v -0.02659400 -0.02317400 0.00945100
v -0.02675900 -0.02367000 0.00945100
v -0.02704800 -0.02410700 0.00945100
v -0.02743900 -0.02445400 0.00945100
v -0.02790700 -0.02468800 0.00945100
v -0.02842000 -0.02479200 0.00945100
v -0.02894200 -0.02476100 0.00945100
v -0.03045500 -0.02344700 0.00945100
v -0.03056000 -0.02293500 0.00945100
v -0.03022100 -0.02391500 0.00945100
v -0.02987400 -0.02430700 0.00945100
v -0.02943800 -0.02459500 0.00945100
v -0.02666700 -0.02213900 0.00945100
v -0.02135500 -0.02076800 0.00945100
v -0.01911500 -0.01825500 0.00944000
v -0.01911500 -0.02577300 0.00944000
v -0.01895100 -0.01825500 0.00940800
v -0.01895100 -0.02577300 0.00940800
v -0.01879200 -0.01825500 0.00935300
v -0.01879200 -0.02577300 0.00935300
v -0.01864200 -0.01825500 0.00927900
v -0.01864200 -0.02577300 0.00927900
v -0.01850200 -0.01825500 0.00918600
v -0.01850200 -0.02577300 0.00918600
v -0.01837600 -0.01825500 0.00907600
v -0.01837600 -0.02577300 0.00907600
v -0.01826600 -0.02577300 0.00895000
v -0.01826600 -0.01825500 0.00895000
v -0.01817300 -0.02577300 0.00881100
v -0.01817300 -0.01825500 0.00881100
v -0.01809900 -0.02577300 0.00866000
v -0.01809900 -0.01825500 0.00866000
v -0.01804500 -0.02577300 0.00850200
v -0.01804500 -0.01825500 0.00850200
v -0.01801200 -0.02577300 0.00833700
v -0.01801200 -0.01825500 0.00833700
v -0.01800100 -0.02577300 0.00817000
v -0.01800100 -0.01825500 0.00817000
v -0.01801700 -0.01825500 -0.00091800
v -0.01801700 -0.02577300 -0.00091800
v -0.01800100 -0.01825500 -0.00067600
v -0.01800100 -0.02577300 -0.00067600
v -0.02890300 -0.02151700 0.00788800
v -0.02856100 -0.02147200 0.00945100
v -0.02890300 -0.02151700 0.00945100
v -0.02856100 -0.02147200 0.00788800
v -0.02922200 -0.02164900 0.00788800
v -0.02922200 -0.02164900 0.00945100
v -0.02949600 -0.02185900 0.00788800
v -0.02949600 -0.02185900 0.00945100
v -0.02970600 -0.02213300 0.00945100
v -0.02970600 -0.02213300 0.00788800
v -0.02983800 -0.02245100 0.00945100
v -0.02983800 -0.02245100 0.00788800
v -0.02988300 -0.02279300 0.00945100
v -0.02988300 -0.02279300 0.00788800
v -0.02983800 -0.02313500 0.00945100
v -0.02983800 -0.02313500 0.00788800
v -0.02970600 -0.02345400 0.00945100
v -0.02970600 -0.02345400 0.00788800
v -0.02949600 -0.02372800 0.00945100
v -0.02949600 -0.02372800 0.00788800
v -0.02922200 -0.02393800 0.00788800
v -0.02922200 -0.02393800 0.00945100
v -0.02890300 -0.02407000 0.00788800
v -0.02890300 -0.02407000 0.00945100
v -0.02856100 -0.02411500 0.00788800
v -0.02856100 -0.02411500 0.00945100
v -0.02821900 -0.02407000 0.00788800
v -0.02821900 -0.02407000 0.00945100
v -0.02790000 -0.02393800 0.00788800
v -0.02790000 -0.02393800 0.00945100
v -0.02762600 -0.02372800 0.00788800
v -0.02762600 -0.02372800 0.00945100
v -0.02741600 -0.02345400 0.00945100
v -0.02741600 -0.02345400 0.00788800
v -0.02728400 -0.02313500 0.00945100
v -0.02728400 -0.02313500 0.00788800
v -0.02723900 -0.02279300 0.00945100
v -0.02723900 -0.02279300 0.00788800
v -0.02728400 -0.02245100 0.00945100
v -0.02728400 -0.02245100 0.00788800
v -0.02741600 -0.02213300 0.00945100
v -0.02741600 -0.02213300 0.00788800
v -0.02762600 -0.02185900 0.00945100
v -0.02762600 -0.02185900 0.00788800
v -0.02790000 -0.02164900 0.00788800
v -0.02790000 -0.02164900 0.00945100
v -0.02821900 -0.02151700 0.00788800
v -0.02821900 -0.02151700 0.00945100
v -0.02768400 -0.02099200 0.00788800
v -0.02818000 -0.02082600 0.00788800
v -0.02870200 -0.02079500 0.00788800
v -0.02921500 -0.02089900 0.00788800
v -0.02968300 -0.02113300 0.00788800
v -0.03007400 -0.02148000 0.00788800
v -0.03036300 -0.02191600 0.00788800
v -0.03052800 -0.02241300 0.00788800
v -0.03056000 -0.02293500 0.00788800
v -0.03045500 -0.02344700 0.00788800
v -0.03022100 -0.02391500 0.00788800
v -0.02987400 -0.02430700 0.00788800
v -0.02943800 -0.02459500 0.00788800
v -0.02894200 -0.02476100 0.00788800
v -0.02842000 -0.02479200 0.00788800
v -0.02790700 -0.02468800 0.00788800
v -0.02743900 -0.02445400 0.00788800
v -0.02704800 -0.02410700 0.00788800
v -0.02675900 -0.02367000 0.00788800
v -0.02659400 -0.02317400 0.00788800
v -0.02656200 -0.02265200 0.00788800
v -0.02666700 -0.02213900 0.00788800
v -0.02690100 -0.02167200 0.00788800
v -0.02724800 -0.02128000 0.00788800
v -0.02233700 -0.02186300 0.00831400
v -0.02252200 -0.02172100 0.00928100
v -0.02233700 -0.02186300 0.00928100
v -0.02252200 -0.02172100 0.00831400
v -0.02273800 -0.02163100 0.00928100
v -0.02273800 -0.02163100 0.00831400
v -0.02297000 -0.02160100 0.00928100
v -0.02297000 -0.02160100 0.00831400
v -0.02320200 -0.02163100 0.00928100
v -0.02320200 -0.02163100 0.00831400
v -0.02341800 -0.02172100 0.00928100
v -0.02341800 -0.02172100 0.00831400
v -0.02360300 -0.02186300 0.00928100
v -0.02360300 -0.02186300 0.00831400
v -0.02374500 -0.02204900 0.00831400
v -0.02374500 -0.02204900 0.00928100
v -0.02383500 -0.02226500 0.00831400
v -0.02383500 -0.02226500 0.00928100
v -0.02386500 -0.02249600 0.00831400
v -0.02386500 -0.02249600 0.00928100
v -0.02383500 -0.02272800 0.00831400
v -0.02383500 -0.02272800 0.00928100
v -0.02374500 -0.02294400 0.00831400
v -0.02374500 -0.02294400 0.00928100
v -0.02360300 -0.02312900 0.00831400
v -0.02360300 -0.02312900 0.00928100
v -0.02341700 -0.02327200 0.00928100
v -0.02341700 -0.02327200 0.00831400
v -0.02320200 -0.02336100 0.00928100
v -0.02320200 -0.02336100 0.00831400
v -0.02297000 -0.02339200 0.00928100
v -0.02297000 -0.02339200 0.00831400
v -0.02273800 -0.02336100 0.00928100
v -0.02273800 -0.02336100 0.00831400
v -0.02252200 -0.02327200 0.00928100
v -0.02252200 -0.02327200 0.00831400
v -0.02233700 -0.02312900 0.00928100
v -0.02233700 -0.02312900 0.00831400
v -0.02219400 -0.02294400 0.00831400
v -0.02219400 -0.02294400 0.00928100
v -0.02210500 -0.02272800 0.00831400
v -0.02210500 -0.02272800 0.00928100
v -0.02207500 -0.02249600 0.00831400
v -0.02207500 -0.02249600 0.00928100
v -0.02210500 -0.02226400 0.00831400
v -0.02210500 -0.02226400 0.00928100
v -0.02219400 -0.02204900 0.00831400
v -0.02219400 -0.02204900 0.00928100
v -0.02252900 -0.02249600 0.00831400
v -0.02254400 -0.02261000 0.00831400
v -0.02258800 -0.02271700 0.00831400
v -0.02265800 -0.02280800 0.00831400
v -0.02275000 -0.02287800 0.00831400
v -0.02285600 -0.02292200 0.00831400
v -0.02297000 -0.02293700 0.00831400
v -0.02308400 -0.02292200 0.00831400
v -0.02319000 -0.02287800 0.00831400
v -0.02328100 -0.02280800 0.00831400
v -0.02335100 -0.02271700 0.00831400
v -0.02339500 -0.02261000 0.00831400
v -0.02341000 -0.02249600 0.00831400
v -0.02254400 -0.02238200 0.00831400
v -0.02258800 -0.02227600 0.00831400
v -0.02265800 -0.02218500 0.00831400
v -0.02275000 -0.02211500 0.00831400
v -0.02285600 -0.02207100 0.00831400
v -0.02297000 -0.02205600 0.00831400
v -0.02308400 -0.02207100 0.00831400
v -0.02319000 -0.02211500 0.00831400
v -0.02328100 -0.02218500 0.00831400
v -0.02335100 -0.02227600 0.00831400
v -0.02339500 -0.02238200 0.00831400
v -0.02297000 -0.02205600 0.00743300
v -0.02308400 -0.02207100 0.00743300
v -0.02319000 -0.02211500 0.00743300
v -0.02328100 -0.02218500 0.00743300
v -0.02335100 -0.02227600 0.00743300
v -0.02339500 -0.02238200 0.00743300
v -0.02341000 -0.02249600 0.00743300
v -0.02339500 -0.02261000 0.00743300
v -0.02335100 -0.02271700 0.00743300
v -0.02328100 -0.02280800 0.00743300
v -0.02319000 -0.02287800 0.00743300
v -0.02308400 -0.02292200 0.00743300
v -0.02297000 -0.02293700 0.00743300
v -0.02285600 -0.02292200 0.00743300
v -0.02275000 -0.02287800 0.00743300
v -0.02265800 -0.02280800 0.00743300
v -0.02258800 -0.02271700 0.00743300
v -0.02254400 -0.02261000 0.00743300
v -0.02252900 -0.02249600 0.00743300
v -0.02254400 -0.02238200 0.00743300
v -0.02258800 -0.02227600 0.00743300
v -0.02265800 -0.02218500 0.00743300
v -0.02275000 -0.02211500 0.00743300
v -0.02285600 -0.02207100 0.00743300
v -0.02135500 -0.02076800 0.00928100
v -0.02453800 -0.02076800 0.00928100
v -0.02453800 -0.02429200 0.00928100
v -0.02135500 -0.02429200 0.00928100
vn 0.57735027 0.57735027 0.57735027
vn 0.00000000 -0.70710678 0.70710678
vn 0.57735027 -0.57735027 0.57735027
vn -0.57735027 0.57735027 0.57735027
vn -0.57735027 -0.57735027 0.57735027
vn -0.57735027 -0.57735027 -0.57735027
vn -0.57735027 0.57735027 -0.57735027
vn -0.23570226 -0.94280904 0.23570226
vn -0.23570226 -0.94280904 -0.23570226
vn 0.00000000 -1.00000000 0.00000000
vn 0.23570226 -0.94280904 -0.23570226
vn 0.00000000 -1.00000000 0.00000000
vn 0.00000000 -1.00000000 0.00000000
vn 0.00000000 -1.00000000 0.00000000
vn 0.00000000 -1.00000000 0.00000000
vn 0.00000000 -1.00000000 0.00000000
vn 0.00000000 -1.00000000 0.00000000
vn 0.00000000 -1.00000000 0.00000000
vn 0.00000000 -1.00000000 0.00000000
vn 0.00000000 -1.00000000 0.00000000
vn 0.00000000 -1.00000000 0.00000000
vn 0.00000000 -1.00000000 0.00000000
vn 0.00000000 -1.00000000 0.00000000
vn 0.00000000 -1.00000000 0.00000000
vn 0.00000000 -1.00000000 0.00000000
vn 0.00000000 -1.00000000 0.00000000
vn -0.23570226 -0.94280904 0.23570226
vn 0.00000000 -1.00000000 0.00000000
vn 0.00000000 -1.00000000 0.00000000
vn 0.00000000 -1.00000000 0.00000000
vn -0.23570226 -0.94280904 -0.23570226
vn 0.00000000 -1.00000000 0.00000000
vn 0.23570226 -0.94280904 -0.23570226
vn 0.00000000 -1.00000000 0.00000000
vn 0.00000000 -1.00000000 0.00000000
vn 0.00000000 -1.00000000 0.00000000
vn 0.00000000 -1.00000000 0.00000000
vn 0.00000000 -1.00000000 0.00000000
vn 0.00000000 -1.00000000 0.00000000
vn 0.23570226 -0.94280904 0.23570226
vn 0.00000000 -1.00000000 0.00000000
vn 0.00000000 -1.00000000 0.00000000
vn 0.00000000 -1.00000000 0.00000000
vn 0.00000000 -1.00000000 0.00000000
vn 0.00000000 -1.00000000 0.00000000
vn 0.00000000 -1.00000000 0.00000000
vn 0.00000000 -1.00000000 0.00000000
vn 0.00000000 -1.00000000 0.00000000
vn 0.00000000 -1.00000000 0.00000000
vn 0.00000000 -1.00000000 0.00000000
vn 0.00000000 -1.00000000 0.00000000
vn 0.00000000 -1.00000000 0.00000000
vn 0.00000000 -1.00000000 0.00000000
vn 0.00000000 -1.00000000 0.00000000
vn 0.00000000 -1.00000000 0.00000000
vn 0.00000000 -1.00000000 0.00000000
vn 0.00000000 -1.00000000 0.00000000
vn 0.00000000 -1.00000000 0.00000000
vn 0.00000000 -1.00000000 0.00000000
vn 0.00000000 -1.00000000 0.00000000
vn 0.00000000 -1.00000000 0.00000000
vn 0.00000000 -1.00000000 0.00000000
vn 0.00000000 -1.00000000 0.00000000
vn 0.00000000 -1.00000000 0.00000000
vn 0.00000000 -1.00000000 0.00000000
vn 0.00000000 -1.00000000 0.00000000
vn 0.23570226 -0.94280904 0.23570226
vn 0.00000000 -0.70710678 -0.70710678
vn -0.23570226 -0.94280904 0.23570226
vn -0.23570226 -0.94280904 -0.23570226
vn -0.23570226 -0.94280904 0.23570226
vn 0.23570226 -0.94280904 -0.23570226
vn -0.23570226 -0.94280904 -0.23570226
vn 0.23570226 -0.94280904 -0.23570226
vn 0.23570226 -0.94280904 0.23570226
vn 0.23570226 -0.94280904 0.23570226
vn 0.57735027 -0.57735027 -0.57735027
vn 0.57735027 0.57735027 -0.57735027
vn -0.90453403 0.30151134 -0.30151134
vn 0.90453403 0.30151134 -0.30151134
vn 0.90453403 0.30151134 0.30151134
vn -0.90453403 0.30151134 0.30151134
vn -0.57735027 -0.57735027 -0.57735027
vn -0.57735027 -0.57735027 0.57735027
vn 0.57735027 -0.57735027 0.57735027
vn 0.57735027 -0.57735027 -0.57735027
vn 0.57735027 -0.57735027 0.57735027
vn -0.57735027 -0.57735027 0.57735027
vn -0.57735027 -0.57735027 -0.57735027
vn 0.57735027 -0.57735027 -0.57735027
vn -0.90453403 0.30151134 -0.30151134
vn 0.90453403 0.30151134 -0.30151134
vn 0.90453403 0.30151134 0.30151134
vn -0.90453403 0.30151134 0.30151134
vn -0.57735027 -0.57735027 -0.57735027
vn -0.30151134 0.30151134 -0.90453403
vn -0.57735027 0.57735027 -0.57735027
vn -0.30151134 -0.30151134 -0.90453403
vn 0.30151134 -0.30151134 -0.90453403
vn 0.57735027 -0.57735027 -0.57735027
vn 0.57735027 0.57735027 -0.57735027
vn 0.30151134 0.30151134 -0.90453403
vn -0.57735027 -0.57735027 -0.57735027
vn -0.30151134 0.30151134 -0.90453403
vn -0.57735027 0.57735027 -0.57735027
vn -0.30151134 -0.30151134 -0.90453403
vn 0.30151134 -0.30151134 -0.90453403
vn 0.57735027 -0.57735027 -0.57735027
vn 0.57735027 0.57735027 -0.57735027
vn 0.30151134 0.30151134 -0.90453403
vn -0.63953918 -0.72178893 0.26459473
vn -0.69694458 -0.69241749 0.18661800
vn -0.66618148 -0.69299156 0.27561737
vn -0.66793340 -0.72241105 0.17884979
vn -0.59853985 -0.72262658 0.34577576
vn -0.62490535 -0.69221904 0.36100707
vn -0.54816417 -0.72199055 0.42219154
vn -0.57131528 -0.69280531 0.44002233
vn -0.48935634 -0.72184538 0.48935634
vn -0.50982104 -0.69293940 0.50982104
vn -0.44002233 -0.69280531 0.57131528
vn -0.42219154 -0.72199055 0.54816417
vn -0.36100707 -0.69221904 0.62490535
vn -0.34577576 -0.72262658 0.59853985
vn -0.27561737 -0.69299156 0.66618148
vn -0.26459473 -0.72178893 0.63953918
vn -0.18661800 -0.69241749 0.69694458
vn -0.17884979 -0.72241105 0.66793340
vn -0.09382591 -0.69288836 0.71491427
vn -0.09004603 -0.72190062 0.68611312
vn -0.02357742 -0.69975325 0.71399544
vn -0.02308689 -0.71461130 0.69914068
vn 0.02315361 -0.69988285 0.71388228
vn 0.02268040 -0.71447638 0.69929186
vn 0.09384863 -0.69263728 0.71515456
vn 0.09000077 -0.72217263 0.68583275
vn 0.18761142 -0.69236259 0.69673237
vn 0.17977255 -0.72247065 0.66762115
vn 0.27668297 -0.69300324 0.66572745
vn 0.26562691 -0.72177629 0.63912544
vn 0.35950305 -0.69295172 0.62496038
vn 0.34508485 -0.72183204 0.59989578
vn 0.43889080 -0.69222866 0.57288250
vn 0.42038549 -0.72261613 0.54872759
vn 0.51140701 -0.69243574 0.50891613
vn 0.49014563 -0.72239124 0.48775830
vn 0.54961402 -0.72141397 0.42129125
vn 0.57192227 -0.69333848 0.43839101
vn 0.59839079 -0.72246369 0.34637361
vn 0.62447138 -0.69236900 0.36147015
vn 0.63912544 -0.72177629 0.26562691
vn 0.66572745 -0.69300324 0.27668297
vn 0.66762115 -0.72247065 0.17977255
vn 0.69673237 -0.69236259 0.18761142
vn 0.68583275 -0.72217263 0.09000077
vn 0.71515456 -0.69263728 0.09384863
vn 0.69929186 -0.71447638 0.02268040
vn 0.71388228 -0.69988285 0.02315361
vn 0.69922261 -0.71453821 -0.02286673
vn 0.71393419 -0.69982344 -0.02334785
vn 0.68566191 -0.72225859 -0.09061059
vn 0.71514466 -0.69255800 -0.09450675
vn 0.66818609 -0.72202380 -0.17946861
vn 0.69646960 -0.69277461 -0.18706530
vn 0.63906198 -0.72212845 -0.26482124
vn 0.66630359 -0.69267803 -0.27610991
vn 0.59844518 -0.72237314 -0.34646850
vn 0.62437341 -0.69245242 -0.36147959
vn 0.54906882 -0.72167041 -0.42156286
vn 0.57175658 -0.69310114 -0.43898203
vn 0.49015406 -0.72206215 -0.48823688
vn 0.51095534 -0.69273921 -0.50895679
vn 0.43924857 -0.69214568 -0.57270852
vn 0.42062440 -0.72270632 -0.54842565
vn 0.35899457 -0.69270138 -0.62552993
vn 0.34434105 -0.72210314 -0.59999691
vn 0.27512904 -0.69296197 -0.66641407
vn 0.26410277 -0.72182095 -0.63970638
vn 0.18706530 -0.69277461 -0.69646960
vn 0.17946861 -0.72202380 -0.66818609
vn 0.09464103 -0.69260010 -0.71508613
vn 0.09075068 -0.72221293 -0.68569147
vn 0.02348859 -0.69978041 -0.71397176
vn 0.02300171 -0.71458302 -0.69917239
vn 0.44256171 0.50972507 -0.73778011
vn 0.55946835 0.37828671 -0.73749192
vn 0.29575536 0.60704696 -0.73757898
vn 0.12821245 0.66259412 -0.73792316
vn -0.04747931 0.67378294 -0.73740237
vn -0.21986216 0.63806925 -0.73792158
vn -0.37824469 0.55915808 -0.73774874
vn -0.50993814 0.44289307 -0.73743394
vn -0.60669146 0.29527377 -0.73806428
vn -0.66318778 0.12815252 -0.73740010
vn -0.02300171 -0.71458302 -0.69917239
vn -0.02348859 -0.69978041 -0.71397176
vn 0.30151134 -0.30151134 -0.90453403
vn -0.30151134 -0.30151134 -0.90453403
vn -0.30151134 0.30151134 -0.90453403
vn 0.67328570 0.04743171 -0.73785947
vn 0.66307103 -0.12833727 -0.73747295
vn 0.60695533 -0.29523263 -0.73786375
vn 0.51006645 -0.44253291 -0.73756142
vn 0.37824469 -0.55915808 -0.73774874
vn 0.21986216 -0.63806925 -0.73792158
vn 0.04747931 -0.67378294 -0.73740237
vn -0.12821245 -0.66259412 -0.73792316
vn -0.63810268 -0.22067899 -0.73764880
vn -0.67322597 -0.04755729 -0.73790589
vn -0.55953657 -0.37798390 -0.73759542
vn -0.44256171 -0.50972507 -0.73778011
vn -0.29575536 -0.60704696 -0.73757898
vn 0.63789569 0.22077615 -0.73779874
vn 0.30151134 0.30151134 -0.90453403
vn -0.09289943 -0.69310683 -0.71482349
vn -0.08921461 -0.72166426 -0.68647028
vn -0.18766742 -0.69166265 -0.69741216
vn -0.17945214 -0.72323216 -0.66688243
vn -0.27775868 -0.69328573 -0.66498497
vn -0.26688283 -0.72147093 -0.63894699
vn -0.35968103 -0.69298535 -0.62482067
vn -0.34529011 -0.72179565 -0.59982145
vn -0.43768129 -0.69262918 -0.57332356
vn -0.41972598 -0.72218140 -0.54980371
vn -0.51032678 -0.69219445 -0.51032678
vn -0.48875976 -0.72265330 -0.48875976
vn -0.54942896 -0.72179470 -0.42088032
vn -0.57232642 -0.69298623 -0.43842051
vn -0.59907624 -0.72249013 -0.34513137
vn -0.62523194 -0.69234465 -0.36019982
vn -0.63966847 -0.72159599 -0.26480838
vn -0.66596404 -0.69316999 -0.27569416
vn -0.66778598 -0.72224898 -0.18005078
vn -0.69648178 -0.69256686 -0.18778784
vn -0.68569147 -0.72221293 -0.09075068
vn -0.71508613 -0.69260010 -0.09464103
vn -0.69917239 -0.71458302 -0.02300171
vn -0.71397176 -0.69978041 -0.02348859
vn -0.71491427 -0.69288836 0.09382591
vn -0.68611312 -0.72190062 0.09004603
vn -0.71399544 -0.69975325 0.02357742
vn -0.69914068 -0.71461130 0.02308689
vn 0.17460527 -0.65219821 -0.73766557
vn -0.00000000 -0.73424064 -0.67888930
vn 0.18987904 -0.70924989 -0.67890393
vn -0.00000000 -0.67514751 -0.73768275
vn 0.33730676 -0.58485895 -0.73767483
vn 0.36682214 -0.63603591 -0.67889604
vn 0.47728151 -0.47728151 -0.73783787
vn 0.51927288 -0.51927288 -0.67875722
vn 0.63574051 -0.36712233 -0.67901046
vn 0.58479859 -0.33770480 -0.73754056
vn 0.70924647 -0.19030022 -0.67878956
vn 0.65195941 -0.17492934 -0.73779987
vn 0.73424064 0.00000000 -0.67888930
vn 0.67514751 0.00000000 -0.73768275
vn 0.70924989 0.18987904 -0.67890393
vn 0.65219821 0.17460527 -0.73766557
vn 0.63603591 0.36682214 -0.67889604
vn 0.58485895 0.33730676 -0.73767483
vn 0.51927288 0.51927288 -0.67875722
vn 0.47728151 0.47728151 -0.73783787
vn 0.33730676 0.58485895 -0.73767483
vn 0.36682214 0.63603591 -0.67889604
vn 0.17460527 0.65219821 -0.73766557
vn 0.18987904 0.70924989 -0.67890393
vn -0.00000000 0.67514751 -0.73768275
vn -0.00000000 0.73424064 -0.67888930
vn -0.17460527 0.65219821 -0.73766557
vn -0.18987904 0.70924989 -0.67890393
vn -0.33730676 0.58485895 -0.73767483
vn -0.36682214 0.63603591 -0.67889604
vn -0.47728151 0.47728151 -0.73783787
vn -0.51927288 0.51927288 -0.67875722
vn -0.63603591 0.36682214 -0.67889604
vn -0.58485895 0.33730676 -0.73767483
vn -0.70924989 0.18987904 -0.67890393
vn -0.65219821 0.17460527 -0.73766557
vn -0.73424064 0.00000000 -0.67888930
vn -0.67514751 0.00000000 -0.73768275
vn -0.70924647 -0.19030022 -0.67878956
vn -0.65195941 -0.17492934 -0.73779987
vn -0.63574051 -0.36712233 -0.67901046
vn -0.58479859 -0.33770480 -0.73754056
vn -0.51927288 -0.51927288 -0.67875722
vn -0.47728151 -0.47728151 -0.73783787
vn -0.33730676 -0.58485895 -0.73767483
vn -0.36682214 -0.63603591 -0.67889604
vn -0.17460527 -0.65219821 -0.73766557
vn -0.18987904 -0.70924989 -0.67890393
vn 0.32155191 0.65999518 -0.67897771
vn 0.13952463 0.72105481 -0.67868464
vn -0.05159604 0.73220394 -0.67912830
vn -0.23925958 0.69436315 -0.67868598
vn -0.41142407 0.60820708 -0.67883310
vn -0.55419990 0.48133543 -0.67910137
vn -0.66047057 0.32144780 -0.67856462
vn -0.72068569 0.13926325 -0.67913024
vn -0.73259065 -0.05175087 -0.67869934
vn -0.69389002 -0.23997227 -0.67891822
vn -0.60836771 -0.41097082 -0.67896371
vn -0.48142358 -0.55448464 -0.67880639
vn -0.32155191 -0.65999518 -0.67897771
vn -0.13952463 -0.72105481 -0.67868464
vn 0.05159604 -0.73220394 -0.67912830
vn 0.23925958 -0.69436315 -0.67868598
vn 0.41142407 -0.60820708 -0.67883310
vn 0.55452956 -0.48110903 -0.67899268
vn 0.66040143 -0.32122966 -0.67873519
vn 0.72070013 -0.13949137 -0.67906810
vn 0.73256415 0.05160777 -0.67873883
vn 0.69394487 0.24017481 -0.67879053
vn 0.60812413 0.41118551 -0.67905193
vn 0.48142358 0.55448464 -0.67880639
vn 0.51891891 0.51932688 -0.67898657
vn 0.33834823 0.58452113 -0.73746561
vn 0.47730190 0.47767715 -0.73756860
vn 0.36774762 0.63531071 -0.67907436
vn 0.17451687 0.65158068 -0.73823200
vn 0.19007236 0.70965905 -0.67842209
vn 0.00000000 0.67573618 -0.73714355
vn -0.00000000 0.73381513 -0.67934922
vn -0.17451687 0.65158068 -0.73823200
vn -0.19007236 0.70965905 -0.67842209
vn -0.33834823 0.58452113 -0.73746561
vn -0.36774762 0.63531071 -0.67907436
vn -0.47779329 0.47655171 -0.73797835
vn -0.52002621 0.51867487 -0.67863769
vn -0.63557354 0.36679666 -0.67934269
vn -0.58525803 0.33775901 -0.73715120
vn -0.70955620 0.19025416 -0.67847871
vn -0.65160305 0.17471511 -0.73816536
vn -0.73386768 0.00020201 -0.67929242
vn -0.67566359 0.00018599 -0.73721006
vn -0.70965905 -0.19007236 -0.67842209
vn -0.65158068 -0.17451687 -0.73823200
vn -0.63531071 -0.36774762 -0.67907436
vn -0.58452113 -0.33834823 -0.73746561
vn -0.51932688 -0.51891891 -0.67898657
vn -0.47767715 -0.47730190 -0.73756860
vn -0.33769662 -0.58442491 -0.73784045
vn -0.36740981 -0.63584719 -0.67875503
vn -0.17536822 -0.65224910 -0.73743956
vn -0.19059276 -0.70887392 -0.67909658
vn -0.00000000 -0.67461666 -0.73816825
vn 0.00000000 -0.73462234 -0.67847625
vn 0.17489013 -0.65260103 -0.73724171
vn 0.18997198 -0.70887881 -0.67926540
vn 0.33769852 -0.58377478 -0.73835406
vn 0.36791993 -0.63601811 -0.67831843
vn 0.47804873 -0.47804873 -0.73684382
vn 0.51871788 -0.51871788 -0.67960542
vn 0.63601811 -0.36791993 -0.67831843
vn 0.58377478 -0.33769852 -0.73835406
vn 0.70967008 -0.18857349 -0.67882871
vn 0.65242951 -0.17336353 -0.73775390
vn 0.73381513 0.00000000 -0.67934922
vn 0.67573618 0.00000000 -0.73714355
vn 0.70966601 0.18919450 -0.67866015
vn 0.65207819 0.17384178 -0.73795194
vn 0.63584719 0.36740981 -0.67875503
vn 0.58442491 0.33769662 -0.73784045
vn 0.67514751 0.00000000 -0.73768275
vn 0.65267124 -0.17396161 -0.73739922
vn 0.58447775 -0.33691671 -0.73815506
vn 0.47585869 -0.47837511 -0.73804862
vn 0.33690920 -0.58579112 -0.73711665
vn 0.17492934 -0.65195941 -0.73779987
vn 0.00000000 -0.67514751 -0.73768275
vn -0.17492934 -0.65195941 -0.73779987
vn -0.33810423 -0.58429819 -0.73775412
vn -0.47761143 -0.47761143 -0.73741077
vn -0.58447775 -0.33691671 -0.73815506
vn -0.65267124 -0.17396161 -0.73739922
vn -0.67514751 0.00000000 -0.73768275
vn 0.65195941 0.17492934 -0.73779987
vn 0.58429819 0.33810423 -0.73775412
vn 0.47585869 0.47837511 -0.73804862
vn 0.33690920 0.58579112 -0.73711665
vn 0.17492934 0.65195941 -0.73779987
vn 0.00000000 0.67514751 -0.73768275
vn -0.17492934 0.65195941 -0.73779987
vn -0.33810423 0.58429819 -0.73775412
vn -0.47761143 0.47761143 -0.73741077
vn -0.58429819 0.33810423 -0.73775412
vn -0.65195941 0.17492934 -0.73779987
vn -0.00000000 0.73424064 -0.67888930
vn -0.19030022 0.70924647 -0.67878956
vn -0.36776786 0.63556168 -0.67882851
vn -0.51903492 0.51903492 -0.67912113
vn -0.63556168 0.36776786 -0.67882851
vn -0.70924647 0.19030022 -0.67878956
vn -0.73424064 0.00000000 -0.67888930
vn -0.70925571 -0.18904351 -0.67913098
vn -0.63644318 -0.36687170 -0.67848746
vn -0.51903492 -0.51903492 -0.67912113
vn -0.36776786 -0.63556168 -0.67882851
vn -0.19030022 -0.70924647 -0.67878956
vn -0.00000000 -0.73424064 -0.67888930
vn 0.19030022 -0.70924647 -0.67878956
vn 0.36583977 -0.63609330 -0.67937220
vn 0.51801853 -0.52075790 -0.67857793
vn 0.63644318 -0.36687170 -0.67848746
vn 0.70925571 -0.18904351 -0.67913098
vn 0.73424064 0.00000000 -0.67888930
vn 0.70924647 0.19030022 -0.67878956
vn 0.63556168 0.36776786 -0.67882851
vn 0.51801853 0.52075790 -0.67857793
vn 0.36583977 0.63609330 -0.67937220
vn 0.19030022 0.70924647 -0.67878956
vn 0.57735027 0.57735027 -0.57735027
vn -0.57735027 0.57735027 -0.57735027
vn -0.57735027 -0.57735027 -0.57735027
vn 0.57735027 -0.57735027 -0.57735027
f 1//1 2//2 3//3
f 4//4 2//2 1//1
f 2//2 4//4 5//5
f 6//6 4//4 7//7
f 4//4 6//6 5//5
f 5//5 8//8 2//2
f 5//5 9//9 8//8
f 9//9 10//10 11//11
f 5//5 10//10 9//9
f 5//5 12//12 10//10
f 5//5 13//13 12//12
f 5//5 14//14 13//13
f 5//5 15//15 14//14
f 5//5 16//16 15//15
f 5//5 17//17 16//16
f 5//5 18//18 17//17
f 5//5 19//19 18//18
f 5//5 20//20 19//19
f 5//5 21//21 20//20
f 5//5 22//22 21//21
f 5//5 23//23 22//22
f 5//5 24//24 23//23
f 5//5 25//25 24//24
f 26//26 27//27 28//28
f 29//29 27//27 26//26
f 30//30 27//27 29//29
f 30//30 31//31 27//27
f 32//32 31//31 30//30
f 31//31 6//6 33//33
f 32//32 6//6 31//31
f 34//34 6//6 32//32
f 35//35 6//6 34//34
f 36//36 6//6 35//35
f 37//37 6//6 36//36
f 38//38 6//6 37//37
f 39//39 6//6 38//38
f 25//25 6//6 39//39
f 6//6 25//25 5//5
f 40//40 2//2 8//8
f 11//11 2//2 40//40
f 41//41 11//11 10//10
f 42//42 11//11 41//41
f 43//43 11//11 42//42
f 44//44 11//11 43//43
f 45//45 11//11 44//44
f 46//46 11//11 45//45
f 47//47 11//11 46//46
f 48//48 11//11 47//47
f 49//49 11//11 48//48
f 50//50 11//11 49//49
f 51//51 11//11 50//50
f 52//52 11//11 51//51
f 53//53 11//11 52//52
f 54//54 11//11 53//53
f 55//55 11//11 54//54
f 56//56 11//11 55//55
f 27//27 57//57 28//28
f 27//27 58//58 57//57
f 27//27 59//59 58//58
f 27//27 60//60 59//59
f 27//27 61//61 60//60
f 27//27 62//62 61//61
f 27//27 63//63 62//62
f 27//27 64//64 63//63
f 27//27 65//65 64//64
f 27//27 66//66 65//65
f 27//27 56//56 66//66
f 27//27 11//11 56//56
f 27//27 2//2 11//11
f 67//67 2//2 27//27
f 33//33 2//2 67//67
f 33//33 68//68 2//2
f 68//68 33//33 6//6
f 2//2 69//69 3//3
f 2//2 70//70 69//69
f 70//70 71//71 72//72
f 2//2 71//71 70//70
f 2//2 73//73 71//71
f 73//73 68//68 74//74
f 68//68 73//73 2//2
f 75//75 3//3 69//69
f 72//72 3//3 75//75
f 71//71 3//3 72//72
f 76//76 3//3 71//71
f 74//74 3//3 76//76
f 68//68 3//3 74//74
f 3//3 68//68 77//77
f 3//3 78//78 1//1
f 78//78 3//3 77//77
f 78//78 4//4 1//1
f 4//4 78//78 7//7
f 68//68 78//78 77//77
f 6//6 78//78 68//68
f 78//78 6//6 7//7
f 79//79 11//11 80//80
f 11//11 79//79 9//9
f 81//81 79//79 80//80
f 79//79 81//81 82//82
f 27//27 81//81 67//67
f 81//81 27//27 82//82
f 9//9 40//40 8//8
f 40//40 9//9 11//11
f 31//31 67//67 27//27
f 67//67 31//31 33//33
f 31//31 82//82 27//27
f 82//82 83//83 79//79
f 83//83 82//82 31//31
f 79//79 8//8 9//9
f 79//79 84//84 8//8
f 84//84 79//79 83//83
f 8//8 85//85 40//40
f 85//85 8//8 84//84
f 40//40 80//80 11//11
f 80//80 85//85 81//81
f 85//85 80//80 40//40
f 81//81 33//33 67//67
f 81//81 86//86 33//33
f 86//86 81//81 85//85
f 83//83 33//33 86//86
f 33//33 83//83 31//31
f 83//83 85//85 84//84
f 85//85 83//83 86//86
f 69//69 87//87 75//75
f 87//87 69//69 88//88
f 89//89 87//87 88//88
f 87//87 89//89 90//90
f 89//89 74//74 90//90
f 74//74 89//89 73//73
f 91//91 72//72 92//92
f 72//72 91//91 70//70
f 70//70 75//75 69//69
f 75//75 70//70 72//72
f 73//73 76//76 71//71
f 76//76 73//73 74//74
f 75//75 92//92 72//72
f 92//92 87//87 93//93
f 87//87 92//92 75//75
f 93//93 74//74 76//76
f 93//93 90//90 74//74
f 90//90 93//93 87//87
f 93//93 91//91 92//92
f 91//91 93//93 94//94
f 73//73 94//94 71//71
f 94//94 89//89 91//91
f 89//89 94//94 73//73
f 91//91 69//69 70//70
f 91//91 88//88 69//69
f 88//88 91//91 89//89
f 71//71 93//93 76//76
f 93//93 71//71 94//94
f 95//95 96//96 97//97
f 96//96 95//95 98//98
f 95//95 99//99 98//98
f 99//99 95//95 100//100
f 99//99 101//101 102//102
f 101//101 99//99 100//100
f 101//101 96//96 102//102
f 96//96 101//101 97//97
f 95//95 101//101 100//100
f 101//101 95//95 97//97
f 103//103 104//104 105//105
f 104//104 103//103 106//106
f 103//103 107//107 106//106
f 107//107 103//103 108//108
f 107//107 109//109 110//110
f 109//109 107//107 108//108
f 109//109 104//104 110//110
f 104//104 109//109 105//105
f 103//103 109//109 108//108
f 109//109 103//103 105//105
f 111//111 112//112 113//113
f 112//112 111//111 114//114
f 115//115 113//113 116//116
f 113//113 115//115 111//111
f 117//117 116//116 118//118
f 116//116 117//117 115//115
f 119//119 118//118 120//120
f 118//118 119//119 117//117
f 121//121 119//119 120//120
f 119//119 121//121 122//122
f 123//123 122//122 121//121
f 122//122 123//123 124//124
f 125//125 124//124 123//123
f 124//124 125//125 126//126
f 127//127 126//126 125//125
f 126//126 127//127 128//128
f 129//129 128//128 127//127
f 128//128 129//129 130//130
f 131//131 130//130 129//129
f 130//130 131//131 132//132
f 133//133 132//132 131//131
f 132//132 133//133 134//134
f 135//135 134//134 133//133
f 134//134 135//135 136//136
f 137//137 136//136 135//135
f 136//136 137//137 138//138
f 139//139 138//138 137//137
f 138//138 139//139 140//140
f 141//141 140//140 139//139
f 140//140 141//141 142//142
f 143//143 142//142 141//141
f 142//142 143//143 144//144
f 145//145 144//144 143//143
f 144//144 145//145 146//146
f 147//147 145//145 148//148
f 145//145 147//147 146//146
f 149//149 148//148 150//150
f 148//148 149//149 147//147
f 151//151 150//150 152//152
f 150//150 151//151 149//149
f 153//153 152//152 154//154
f 152//152 153//153 151//151
f 155//155 154//154 156//156
f 154//154 155//155 153//153
f 157//157 156//156 158//158
f 156//156 157//157 155//155
f 159//159 158//158 160//160
f 158//158 159//159 157//157
f 161//161 160//160 162//162
f 160//160 161//161 159//159
f 163//163 162//162 164//164
f 162//162 163//163 161//161
f 165//165 164//164 166//166
f 164//164 165//165 163//163
f 167//167 166//166 168//168
f 166//166 167//167 165//165
f 169//169 168//168 170//170
f 168//168 169//169 167//167
f 171//171 170//170 172//172
f 170//170 171//171 169//169
f 171//171 173//173 174//174
f 173//173 171//171 172//172
f 174//174 175//175 176//176
f 175//175 174//174 173//173
f 176//176 177//177 178//178
f 177//177 176//176 175//175
f 178//178 179//179 180//180
f 179//179 178//178 177//177
f 180//180 181//181 182//182
f 181//181 180//180 179//179
f 182//182 183//183 184//184
f 183//183 182//182 181//181
f 185//185 99//99 186//186
f 187//187 99//99 185//185
f 188//188 99//99 187//187
f 189//189 99//99 188//188
f 190//190 99//99 189//189
f 190//190 98//98 99//99
f 191//191 98//98 190//190
f 192//192 98//98 191//191
f 193//193 98//98 192//192
f 98//98 194//194 96//96
f 194//194 98//98 193//193
f 195//195 107//107 196//196
f 195//195 197//197 107//107
f 195//195 198//198 197//197
f 198//198 106//106 199//199
f 106//106 200//200 104//104
f 198//198 200//200 106//106
f 198//198 201//201 200//200
f 198//198 202//202 201//201
f 195//195 202//202 198//198
f 195//195 203//203 202//202
f 195//195 204//204 203//203
f 195//195 205//205 204//204
f 195//195 206//206 205//205
f 195//195 207//207 206//206
f 208//208 184//184 209//209
f 210//210 184//184 208//208
f 211//211 184//184 210//210
f 212//212 184//184 211//211
f 207//207 184//184 212//212
f 184//184 207//207 195//195
f 110//110 196//196 107//107
f 104//104 196//196 110//110
f 213//213 104//104 200//200
f 186//186 104//104 213//213
f 99//99 104//104 186//186
f 102//102 104//104 99//99
f 102//102 196//196 104//104
f 96//96 196//196 102//102
f 209//209 96//96 194//194
f 184//184 96//96 209//209
f 96//96 183//183 196//196
f 183//183 96//96 184//184
f 214//214 107//107 197//197
f 199//199 107//107 214//214
f 107//107 199//199 106//106
f 195//195 215//215 216//216
f 215//215 195//195 196//196
f 216//216 217//217 218//218
f 217//217 216//216 215//215
f 218//218 219//219 220//220
f 219//219 218//218 217//217
f 220//220 221//221 222//222
f 221//221 220//220 219//219
f 222//222 223//223 224//224
f 223//223 222//222 221//221
f 224//224 225//225 226//226
f 225//225 224//224 223//223
f 227//227 225//225 228//228
f 225//225 227//227 226//226
f 229//229 228//228 230//230
f 228//228 229//229 227//227
f 231//231 230//230 232//232
f 230//230 231//231 229//229
f 233//233 232//232 234//234
f 232//232 233//233 231//231
f 235//235 234//234 236//236
f 234//234 235//235 233//233
f 237//237 236//236 238//238
f 236//236 237//237 235//235
f 114//114 239//239 112//112
f 239//239 114//114 240//240
f 183//183 215//215 196//196
f 181//181 215//215 183//183
f 181//181 217//217 215//215
f 179//179 217//217 181//181
f 179//179 219//219 217//217
f 177//177 219//219 179//179
f 177//177 221//221 219//219
f 175//175 221//221 177//177
f 175//175 223//223 221//221
f 173//173 223//223 175//175
f 173//173 225//225 223//223
f 172//172 225//225 173//173
f 172//172 228//228 225//225
f 170//170 228//228 172//172
f 170//170 230//230 228//228
f 168//168 230//230 170//170
f 168//168 232//232 230//230
f 166//166 232//232 168//168
f 166//166 234//234 232//232
f 164//164 234//234 166//166
f 164//164 236//236 234//234
f 162//162 236//236 164//164
f 162//162 238//238 236//236
f 160//160 238//238 162//162
f 160//160 241//241 238//238
f 160//160 239//239 241//241
f 160//160 112//112 239//239
f 158//158 112//112 160//160
f 158//158 113//113 112//112
f 156//156 113//113 158//158
f 156//156 116//116 113//113
f 154//154 116//116 156//156
f 152//152 116//116 154//154
f 152//152 118//118 116//116
f 150//150 118//118 152//152
f 150//150 120//120 118//118
f 148//148 120//120 150//150
f 148//148 121//121 120//120
f 145//145 121//121 148//148
f 145//145 123//123 121//121
f 143//143 123//123 145//145
f 141//141 123//123 143//143
f 141//141 125//125 123//123
f 139//139 125//125 141//141
f 139//139 127//127 125//125
f 137//137 127//127 139//139
f 137//137 129//129 127//127
f 135//135 129//129 137//137
f 133//133 129//129 135//135
f 129//129 133//133 131//131
f 242//242 238//238 241//241
f 238//238 242//242 237//237
f 240//240 241//241 239//239
f 241//241 240//240 242//242
f 12//12 41//41 10//10
f 12//12 42//42 41//41
f 13//13 42//42 12//12
f 13//13 43//43 42//42
f 14//14 43//43 13//13
f 14//14 44//44 43//43
f 15//15 44//44 14//14
f 15//15 45//45 44//44
f 16//16 45//45 15//15
f 16//16 46//46 45//45
f 17//17 46//46 16//16
f 17//17 47//47 46//46
f 18//18 47//47 17//17
f 18//18 48//48 47//47
f 19//19 48//48 18//18
f 19//19 49//49 48//48
f 20//20 49//49 19//19
f 20//20 50//50 49//49
f 21//21 50//50 20//20
f 21//21 51//51 50//50
f 22//22 51//51 21//21
f 22//22 52//52 51//51
f 23//23 52//52 22//22
f 23//23 53//53 52//52
f 23//23 184//184 53//53
f 23//23 182//182 184//184
f 23//23 180//180 182//182
f 23//23 178//178 180//180
f 23//23 176//176 178//178
f 23//23 174//174 176//176
f 23//23 171//171 174//174
f 23//23 169//169 171//171
f 23//23 167//167 169//169
f 23//23 165//165 167//167
f 23//23 163//163 165//165
f 23//23 161//161 163//163
f 23//23 159//159 161//161
f 23//23 157//157 159//159
f 23//23 155//155 157//157
f 134//134 54//54 132//132
f 24//24 155//155 23//23
f 24//24 153//153 155//155
f 24//24 151//151 153//153
f 24//24 149//149 151//151
f 24//24 147//147 149//149
f 24//24 146//146 147//147
f 24//24 144//144 146//146
f 24//24 142//142 144//144
f 24//24 140//140 142//142
f 24//24 138//138 140//140
f 24//24 136//136 138//138
f 24//24 134//134 136//136
f 24//24 54//54 134//134
f 24//24 55//55 54//54
f 25//25 55//55 24//24
f 25//25 56//56 55//55
f 39//39 56//56 25//25
f 39//39 66//66 56//56
f 38//38 66//66 39//39
f 38//38 65//65 66//66
f 37//37 65//65 38//38
f 37//37 64//64 65//65
f 36//36 64//64 37//37
f 36//36 63//63 64//64
f 35//35 63//63 36//36
f 35//35 62//62 63//63
f 34//34 62//62 35//35
f 34//34 61//61 62//62
f 32//32 61//61 34//34
f 32//32 60//60 61//61
f 30//30 60//60 32//32
f 30//30 59//59 60//60
f 29//29 59//59 30//30
f 29//29 58//58 59//59
f 26//26 58//58 29//29
f 26//26 57//57 58//58
f 57//57 26//26 28//28
f 195//195 53//53 184//184
f 216//216 53//53 195//195
f 218//218 53//53 216//216
f 220//220 53//53 218//218
f 222//222 53//53 220//220
f 224//224 53//53 222//222
f 226//226 53//53 224//224
f 227//227 53//53 226//226
f 229//229 53//53 227//227
f 231//231 53//53 229//229
f 233//233 53//53 231//231
f 235//235 53//53 233//233
f 237//237 53//53 235//235
f 242//242 53//53 237//237
f 240//240 53//53 242//242
f 240//240 54//54 53//53
f 114//114 54//54 240//240
f 111//111 54//54 114//114
f 115//115 54//54 111//111
f 117//117 54//54 115//115
f 119//119 54//54 117//117
f 122//122 54//54 119//119
f 124//124 54//54 122//122
f 126//126 54//54 124//124
f 128//128 54//54 126//126
f 130//130 54//54 128//128
f 54//54 130//130 132//132
f 243//243 244//244 245//245
f 244//244 243//243 246//246
f 247//247 245//245 248//248
f 245//245 247//247 243//243
f 249//249 248//248 250//250
f 248//248 249//249 247//247
f 251//251 249//249 250//250
f 249//249 251//251 252//252
f 253//253 252//252 251//251
f 252//252 253//253 254//254
f 255//255 254//254 253//253
f 254//254 255//255 256//256
f 257//257 256//256 255//255
f 256//256 257//257 258//258
f 259//259 258//258 257//257
f 258//258 259//259 260//260
f 261//261 260//260 259//259
f 260//260 261//261 262//262
f 263//263 261//261 264//264
f 261//261 263//263 262//262
f 265//265 264//264 266//266
f 264//264 265//265 263//263
f 267//267 266//266 268//268
f 266//266 267//267 265//265
f 269//269 268//268 270//270
f 268//268 269//269 267//267
f 271//271 270//270 272//272
f 270//270 271//271 269//269
f 273//273 272//272 274//274
f 272//272 273//273 271//271
f 273//273 275//275 276//276
f 275//275 273//273 274//274
f 276//276 277//277 278//278
f 277//277 276//276 275//275
f 278//278 279//279 280//280
f 279//279 278//278 277//277
f 280//280 281//281 282//282
f 281//281 280//280 279//279
f 282//282 283//283 284//284
f 283//283 282//282 281//281
f 284//284 285//285 286//286
f 285//285 284//284 283//283
f 287//287 285//285 288//288
f 285//285 287//287 286//286
f 289//289 288//288 290//290
f 288//288 289//289 287//287
f 246//246 290//290 244//244
f 290//290 246//246 289//289
f 277//277 281//281 279//279
f 275//275 281//281 277//277
f 275//275 283//283 281//281
f 274//274 283//283 275//275
f 274//274 285//285 283//283
f 272//272 285//285 274//274
f 272//272 288//288 285//285
f 270//270 288//288 272//272
f 270//270 290//290 288//288
f 268//268 290//290 270//270
f 268//268 244//244 290//290
f 266//266 244//244 268//268
f 266//266 245//245 244//244
f 264//264 245//245 266//266
f 264//264 248//248 245//245
f 261//261 248//248 264//264
f 261//261 250//250 248//248
f 259//259 250//250 261//261
f 259//259 251//251 250//250
f 257//257 251//251 259//259
f 257//257 253//253 251//251
f 253//253 257//257 255//255
f 291//291 188//188 187//187
f 188//188 291//291 292//292
f 292//292 189//189 188//188
f 189//189 292//292 293//293
f 293//293 190//190 189//189
f 190//190 293//293 294//294
f 294//294 191//191 190//190
f 191//191 294//294 295//295
f 295//295 192//192 191//191
f 192//192 295//295 296//296
f 297//297 192//192 296//296
f 192//192 297//297 193//193
f 298//298 193//193 297//297
f 193//193 298//298 194//194
f 299//299 194//194 298//298
f 194//194 299//299 209//209
f 300//300 209//209 299//299
f 209//209 300//300 208//208
f 301//301 208//208 300//300
f 208//208 301//301 210//210
f 302//302 210//210 301//301
f 210//210 302//302 211//211
f 302//302 212//212 211//211
f 212//212 302//302 303//303
f 303//303 207//207 212//212
f 207//207 303//303 304//304
f 304//304 206//206 207//207
f 206//206 304//304 305//305
f 305//305 205//205 206//206
f 205//205 305//305 306//306
f 306//306 204//204 205//205
f 204//204 306//306 307//307
f 307//307 203//203 204//204
f 203//203 307//307 308//308
f 203//203 309//309 202//202
f 309//309 203//203 308//308
f 202//202 310//310 201//201
f 310//310 202//202 309//309
f 201//201 311//311 200//200
f 311//311 201//201 310//310
f 200//200 312//312 213//213
f 312//312 200//200 311//311
f 213//213 313//313 186//186
f 313//313 213//213 312//312
f 186//186 314//314 185//185
f 314//314 186//186 313//313
f 314//314 187//187 185//185
f 187//187 314//314 291//291
f 308//308 278//278 280//280
f 308//308 276//276 278//278
f 307//307 276//276 308//308
f 307//307 273//273 276//276
f 307//307 271//271 273//273
f 306//306 271//271 307//307
f 306//306 269//269 271//271
f 305//305 269//269 306//306
f 305//305 267//267 269//269
f 305//305 265//265 267//267
f 304//304 265//265 305//305
f 304//304 263//263 265//265
f 303//303 263//263 304//304
f 303//303 262//262 263//263
f 303//303 260//260 262//262
f 303//303 258//258 260//260
f 302//302 258//258 303//303
f 302//302 256//256 258//258
f 302//302 296//296 256//256
f 301//301 296//296 302//302
f 301//301 297//297 296//296
f 300//300 297//297 301//301
f 300//300 298//298 297//297
f 298//298 300//300 299//299
f 310//310 312//312 311//311
f 309//309 312//312 310//310
f 309//309 313//313 312//312
f 308//308 313//313 309//309
f 280//280 313//313 308//308
f 280//280 314//314 313//313
f 282//282 314//314 280//280
f 284//284 314//314 282//282
f 286//286 314//314 284//284
f 286//286 291//291 314//314
f 287//287 291//291 286//286
f 287//287 292//292 291//291
f 289//289 292//292 287//287
f 246//246 292//292 289//289
f 246//246 293//293 292//292
f 243//243 293//293 246//246
f 243//243 294//294 293//293
f 247//247 294//294 243//243
f 249//249 294//294 247//247
f 249//249 295//295 294//294
f 252//252 295//295 249//249
f 254//254 295//295 252//252
f 256//256 295//295 254//254
f 295//295 256//256 296//296
f 315//315 316//316 317//317
f 316//316 315//315 318//318
f 318//318 319//319 316//316
f 319//319 318//318 320//320
f 320//320 321//321 319//319
f 321//321 320//320 322//322
f 322//322 323//323 321//321
f 323//323 322//322 324//324
f 324//324 325//325 323//323
f 325//325 324//324 326//326
f 326//326 327//327 325//325
f 327//327 326//326 328//328
f 329//329 327//327 328//328
f 327//327 329//329 330//330
f 331//331 330//330 329//329
f 330//330 331//331 332//332
f 333//333 332//332 331//331
f 332//332 333//333 334//334
f 335//335 334//334 333//333
f 334//334 335//335 336//336
f 337//337 336//336 335//335
f 336//336 337//337 338//338
f 339//339 338//338 337//337
f 338//338 339//339 340//340
f 339//339 341//341 340//340
f 341//341 339//339 342//342
f 342//342 343//343 341//341
f 343//343 342//342 344//344
f 344//344 345//345 343//343
f 345//345 344//344 346//346
f 346//346 347//347 345//345
f 347//347 346//346 348//348
f 348//348 349//349 347//347
f 349//349 348//348 350//350
f 350//350 351//351 349//349
f 351//351 350//350 352//352
f 351//351 353//353 354//354
f 353//353 351//351 352//352
f 354//354 355//355 356//356
f 355//355 354//354 353//353
f 356//356 357//357 358//358
f 357//357 356//356 355//355
f 358//358 359//359 360//360
f 359//359 358//358 357//357
f 360//360 361//361 362//362
f 361//361 360//360 359//359
f 362//362 315//315 317//317
f 315//315 362//362 361//361
f 355//355 359//359 357//357
f 353//353 359//359 355//355
f 353//353 361//361 359//359
f 352//352 361//361 353//353
f 352//352 315//315 361//361
f 350//350 315//315 352//352
f 350//350 318//318 315//315
f 350//350 363//363 318//318
f 350//350 364//364 363//363
f 350//350 365//365 364//364
f 350//350 366//366 365//365
f 348//348 366//366 350//350
f 348//348 367//367 366//366
f 348//348 368//368 367//367
f 346//346 368//368 348//348
f 346//346 369//369 368//368
f 346//346 370//370 369//369
f 346//346 371//371 370//370
f 344//344 371//371 346//346
f 344//344 372//372 371//371
f 344//344 373//373 372//372
f 344//344 374//374 373//373
f 374//374 342//342 375//375
f 342//342 374//374 344//344
f 376//376 318//318 363//363
f 377//377 318//318 376//376
f 378//378 318//318 377//377
f 378//378 320//320 318//318
f 379//379 320//320 378//378
f 380//380 320//320 379//379
f 381//381 320//320 380//380
f 381//381 322//322 320//320
f 382//382 322//322 381//381
f 383//383 322//322 382//382
f 383//383 324//324 322//322
f 384//384 324//324 383//383
f 385//385 324//324 384//384
f 386//386 324//324 385//385
f 386//386 326//326 324//324
f 375//375 326//326 386//386
f 342//342 326//326 375//375
f 339//339 326//326 342//342
f 339//339 328//328 326//326
f 337//337 328//328 339//339
f 337//337 329//329 328//328
f 335//335 329//329 337//337
f 335//335 331//331 329//329
f 331//331 335//335 333//333
f 387//387 382//382 381//381
f 382//382 387//387 388//388
f 388//388 383//383 382//382
f 383//383 388//388 389//389
f 389//389 384//384 383//383
f 384//384 389//389 390//390
f 391//391 384//384 390//390
f 384//384 391//391 385//385
f 392//392 385//385 391//391
f 385//385 392//392 386//386
f 393//393 386//386 392//392
f 386//386 393//393 375//375
f 394//394 375//375 393//393
f 375//375 394//394 374//374
f 395//395 374//374 394//394
f 374//374 395//395 373//373
f 396//396 373//373 395//395
f 373//373 396//396 372//372
f 396//396 371//371 372//372
f 371//371 396//396 397//397
f 397//397 370//370 371//371
f 370//370 397//397 398//398
f 398//398 369//369 370//370
f 369//369 398//398 399//399
f 399//399 368//368 369//369
f 368//368 399//399 400//400
f 400//400 367//367 368//368
f 367//367 400//400 401//401
f 401//401 366//366 367//367
f 366//366 401//401 402//402
f 366//366 403//403 365//365
f 403//403 366//366 402//402
f 365//365 404//404 364//364
f 404//404 365//365 403//403
f 364//364 405//405 363//363
f 405//405 364//364 404//404
f 363//363 406//406 376//376
f 406//406 363//363 405//405
f 376//376 407//407 377//377
f 407//407 376//376 406//406
f 377//377 408//408 378//378
f 408//408 377//377 407//407
f 408//408 379//379 378//378
f 379//379 408//408 409//409
f 409//409 380//380 379//379
f 380//380 409//409 410//410
f 410//410 381//381 380//380
f 381//381 410//410 387//387
f 404//404 406//406 405//405
f 403//403 406//406 404//404
f 403//403 407//407 406//406
f 402//402 407//407 403//403
f 402//402 408//408 407//407
f 401//401 408//408 402//402
f 401//401 409//409 408//408
f 400//400 409//409 401//401
f 400//400 410//410 409//409
f 399//399 410//410 400//400
f 399//399 387//387 410//410
f 398//398 387//387 399//399
f 398//398 388//388 387//387
f 397//397 388//388 398//398
f 397//397 389//389 388//388
f 396//396 389//389 397//397
f 396//396 390//390 389//389
f 395//395 390//390 396//396
f 395//395 391//391 390//390
f 394//394 391//391 395//395
f 394//394 392//392 391//391
f 392//392 394//394 393//393
f 411//411 199//199 214//214
f 199//199 411//411 412//412
f 413//413 199//199 412//412
f 199//199 413//413 198//198
f 413//413 197//197 198//198
f 197//197 413//413 414//414
f 197//197 411//411 214//214
f 411//411 197//197 414//414
f 414//414 358//358 411//411
f 414//414 356//356 358//358
f 414//414 354//354 356//356
f 414//414 351//351 354//354
f 414//414 349//349 351//351
f 414//414 347//347 349//349
f 414//414 345//345 347//347
f 414//414 343//343 345//345
f 414//414 341//341 343//343
f 336//336 413//413 334//334
f 338//338 413//413 336//336
f 340//340 413//413 338//338
f 341//341 413//413 340//340
f 413//413 341//341 414//414
f 360//360 411//411 358//358
f 362//362 411//411 360//360
f 317//317 411//411 362//362
f 316//316 411//411 317//317
f 319//319 411//411 316//316
f 321//321 411//411 319//319
f 323//323 411//411 321//321
f 325//325 411//411 323//323
f 413//413 332//332 334//334
f 325//325 412//412 411//411
f 327//327 412//412 325//325
f 330//330 412//412 327//327
f 332//332 412//412 330//330
f 412//412 332//332 413//413