# https://github.com/mikedh/trimesh
v 0.02770500 -0.02946500 -0.04382600
v 0.03049000 -0.02965100 -0.04250300
v 0.02775300 -0.02965100 -0.04240900
v 0.03044100 -0.02946500 -0.04392000
v 0.02765900 -0.02891800 -0.04514600
v 0.03039600 -0.02891800 -0.04524000
v 0.03053900 -0.02946500 -0.04108700
v 0.02780200 -0.02946500 -0.04099300
v 0.02762100 -0.02804700 -0.04627900
v 0.03035700 -0.02804700 -0.04637300
v 0.03058400 -0.02891800 -0.03976700
v 0.02784800 -0.02891800 -0.03967300
v 0.03032700 -0.02691300 -0.04724300
v 0.02759100 -0.02691300 -0.04714900
v 0.03062300 -0.02804700 -0.03863300
v 0.02788700 -0.02804700 -0.03853900
v 0.03030800 -0.02559200 -0.04779000
v 0.02757200 -0.02559200 -0.04769600
v 0.02791600 -0.02691300 -0.03766900
v 0.03065300 -0.02691300 -0.03776300
v 0.03030200 -0.02417500 -0.04797700
v 0.02756500 -0.02417500 -0.04788200
v 0.02793500 -0.02559200 -0.03712300
v 0.03067200 -0.02559200 -0.03721700
v 0.02757200 -0.02275800 -0.04769600
v 0.03030800 -0.02275800 -0.04779000
v 0.02794200 -0.02417500 -0.03693600
v 0.03067800 -0.02417500 -0.03703000
v 0.02759100 -0.02143700 -0.04714900
v 0.03032700 -0.02143700 -0.04724300
v 0.03067200 -0.02275800 -0.03721700
v 0.02793500 -0.02275800 -0.03712300
v 0.02762100 -0.02030300 -0.04627900
v 0.03035700 -0.02030300 -0.04637300
v 0.03065300 -0.02143700 -0.03776300
v 0.02791600 -0.02143700 -0.03766900
v 0.03039600 -0.01943200 -0.04524000
v 0.02765900 -0.01943200 -0.04514600
v 0.03062300 -0.02030300 -0.03863300
v 0.02788700 -0.02030300 -0.03853900
v 0.03044100 -0.01888500 -0.04392000
v 0.02770500 -0.01888500 -0.04382600
v 0.02784800 -0.01943200 -0.03967300
v 0.03058400 -0.01943200 -0.03976700
v 0.03049000 -0.01869900 -0.04250300
v 0.02775300 -0.01869900 -0.04240900
v 0.02780200 -0.01888500 -0.04099300
v 0.03053900 -0.01888500 -0.04108700
v -0.02710700 -0.02303300 -0.03785600
v -0.02982500 -0.02435400 -0.03721500
v -0.02708800 -0.02435400 -0.03730900
v -0.02984300 -0.02303300 -0.03776200
v -0.02981800 -0.02577100 -0.03702900
v -0.02708200 -0.02577100 -0.03712300
v -0.02713700 -0.02189900 -0.03872600
v -0.02987300 -0.02189900 -0.03863200
v -0.02708800 -0.02718800 -0.03730900
v -0.02982500 -0.02718800 -0.03721500
v -0.02991200 -0.02102800 -0.03976500
v -0.02717600 -0.02102800 -0.03985900
v -0.02710700 -0.02850900 -0.03785600
v -0.02984300 -0.02850900 -0.03776200
v -0.02995800 -0.02048100 -0.04108500
v -0.02722100 -0.02048100 -0.04117900
v -0.02713700 -0.02964300 -0.03872600
v -0.02987300 -0.02964300 -0.03863200
v -0.03000600 -0.02029500 -0.04250200
v -0.02727000 -0.02029500 -0.04259600
v -0.02991200 -0.03051400 -0.03976500
v -0.02717600 -0.03051400 -0.03985900
v -0.03005500 -0.02048100 -0.04391800
v -0.02731800 -0.02048100 -0.04401200
v -0.02995800 -0.03106100 -0.04108500
v -0.02722100 -0.03106100 -0.04117900
v -0.03010000 -0.02102800 -0.04523800
v -0.02736400 -0.02102800 -0.04533200
v -0.03000600 -0.03124700 -0.04250200
v -0.02727000 -0.03124700 -0.04259600
v -0.03013900 -0.02189900 -0.04637200
v -0.02740300 -0.02189900 -0.04646600
v -0.03005500 -0.03106100 -0.04391800
v -0.02731800 -0.03106100 -0.04401200
v -0.02743300 -0.02303300 -0.04733600
v -0.03016900 -0.02303300 -0.04724200
v -0.03010000 -0.03051400 -0.04523800
v -0.02736400 -0.03051400 -0.04533200
v -0.02745100 -0.02435400 -0.04788200
v -0.03018800 -0.02435400 -0.04778800
v -0.03013900 -0.02964300 -0.04637200
v -0.02740300 -0.02964300 -0.04646600
v -0.02745800 -0.02577100 -0.04806900
v -0.03019400 -0.02577100 -0.04797500
v -0.02743300 -0.02850900 -0.04733600
v -0.03016900 -0.02850900 -0.04724200
v -0.03018800 -0.02718800 -0.04778800
v -0.02745100 -0.02718800 -0.04788200
v -0.03046300 0.02653500 0.04339100
v -0.03038000 0.02704500 0.03974000
v -0.03038000 0.02704500 0.04339100
v -0.03046300 0.02653500 0.03974000
v -0.03023900 0.02754100 0.03974000
v -0.03023900 0.02754100 0.04339100
v -0.03004400 0.02801900 0.03974000
v -0.03004400 0.02801900 0.04339100
v -0.02979500 0.02847100 0.03974000
v -0.02979500 0.02847100 0.04339100
v -0.02949700 0.02889300 0.03974000
v -0.02949700 0.02889300 0.04339100
v -0.02915400 0.02927800 0.03974000
v -0.02915400 0.02927800 0.04339100
v -0.02876800 0.02962200 0.04339100
v -0.02876800 0.02962200 0.03974000
v -0.02834700 0.02992000 0.04339100
v -0.02834700 0.02992000 0.03974000
v -0.02789500 0.03016800 0.04339100
v -0.02789500 0.03016800 0.03974000
v -0.02741700 0.03036400 0.04339100
v -0.02741700 0.03036400 0.03974000
v -0.02692000 0.03050400 0.04339100
v -0.02692000 0.03050400 0.03974000
v -0.02641100 0.03058800 0.04339100
v -0.02641100 0.03058800 0.03974000
v 0.02627200 0.03058800 0.04339100
v 0.02627200 0.03058800 0.03974000
v 0.02678200 0.03050400 0.04339100
v 0.02678200 0.03050400 0.03974000
v 0.02727800 0.03036400 0.04339100
v 0.02727800 0.03036400 0.03974000
v 0.02775600 0.03016800 0.04339100
v 0.02775600 0.03016800 0.03974000
v 0.02820800 0.02992000 0.04339100
v 0.02820800 0.02992000 0.03974000
v 0.02863000 0.02962200 0.04339100
v 0.02863000 0.02962200 0.03974000
v 0.02901500 0.02927800 0.04339100
v 0.02901500 0.02927800 0.03974000
v 0.02935900 0.02889300 0.03974000
v 0.02935900 0.02889300 0.04339100
v 0.02965700 0.02847100 0.03974000
v 0.02965700 0.02847100 0.04339100
v 0.02990500 0.02801900 0.03974000
v 0.02990500 0.02801900 0.04339100
v 0.03010100 0.02754100 0.03974000
v 0.03010100 0.02754100 0.04339100
v 0.03024100 0.02704500 0.03974000
v 0.03024100 0.02704500 0.04339100
v 0.03032500 0.02653500 0.03974000
v 0.03032500 0.02653500 0.04339100
v 0.03032500 -0.02614800 0.03974000
v 0.03024100 -0.02665700 0.03974000
v 0.03010100 -0.02715400 0.03974000
v 0.02990500 -0.02763200 0.03974000
v 0.02965700 -0.02808400 0.03974000
v 0.02935900 -0.02850600 0.03974000
v 0.02901500 -0.02889100 0.03974000
v 0.02863000 -0.02923400 0.03974000
v 0.02820800 -0.02953200 0.03974000
v 0.02775600 -0.02978100 0.03974000
v 0.02727800 -0.02997700 0.03974000
v 0.02678200 -0.03011700 0.03974000
v 0.02627200 -0.03020000 0.03974000
v -0.02641100 -0.03020000 0.03974000
v -0.02692000 -0.03011700 0.03974000
v -0.02741700 -0.02997700 0.03974000
v -0.02789500 -0.02978100 0.03974000
v -0.02834700 -0.02953200 0.03974000
v -0.02876800 -0.02923400 0.03974000
v -0.02915400 -0.02889100 0.03974000
v -0.02949700 -0.02850600 0.03974000
v -0.02979500 -0.02808400 0.03974000
v -0.03004400 -0.02763200 0.03974000
v -0.03023900 -0.02715400 0.03974000
v -0.03038000 -0.02665700 0.03974000
v -0.03046300 -0.02614800 0.03974000
v -0.02737600 -0.02399600 -0.04788200
v -0.02745100 -0.02353700 -0.04788200
v -0.02725000 -0.02444400 -0.04788200
v -0.02707300 -0.02487400 -0.04788200
v -0.02684900 -0.02528200 -0.04788200
v -0.02658100 -0.02566100 -0.04788200
v -0.02627100 -0.02600800 -0.04788200
v -0.02592400 -0.02631800 -0.04788200
v -0.02554500 -0.02658700 -0.04788200
v -0.02513700 -0.02681000 -0.04788200
v -0.02470700 -0.02698700 -0.04788200
v -0.02425900 -0.02711300 -0.04788200
v -0.02380000 -0.02718800 -0.04788200
v 0.02366200 -0.02718800 -0.04788200
v 0.02412100 -0.02711300 -0.04788200
v 0.02456800 -0.02698700 -0.04788200
v 0.02499800 -0.02681000 -0.04788200
v 0.02540600 -0.02658700 -0.04788200
v 0.02578600 -0.02631800 -0.04788200
v 0.02613300 -0.02600800 -0.04788200
v 0.02644200 -0.02566100 -0.04788200
v 0.02671100 -0.02528200 -0.04788200
v 0.02693500 -0.02487400 -0.04788200
v 0.02711100 -0.02444400 -0.04788200
v 0.02723800 -0.02399600 -0.04788200
v 0.02731300 -0.02353700 -0.04788200
v 0.02731300 0.02392500 -0.04788200
v 0.02723800 0.02438400 -0.04788200
v 0.02711100 0.02483100 -0.04788200
v 0.02693500 0.02526100 -0.04788200
v 0.02671100 0.02566900 -0.04788200
v 0.02644200 0.02604900 -0.04788200
v 0.02613300 0.02639600 -0.04788200
v 0.02578600 0.02670500 -0.04788200
v 0.02540600 0.02697400 -0.04788200
v 0.02499800 0.02719800 -0.04788200
v 0.02456800 0.02737400 -0.04788200
v 0.02412100 0.02750100 -0.04788200
v 0.02366200 0.02757600 -0.04788200
v -0.02380000 0.02757600 -0.04788200
v -0.02425900 0.02750100 -0.04788200
v -0.02470700 0.02737400 -0.04788200
v -0.02513700 0.02719800 -0.04788200
v -0.02554500 0.02697400 -0.04788200
v -0.02592400 0.02670500 -0.04788200
v -0.02627100 0.02639600 -0.04788200
v -0.02658100 0.02604900 -0.04788200
v -0.02684900 0.02566900 -0.04788200
v -0.02707300 0.02526100 -0.04788200
v -0.02725000 0.02483100 -0.04788200
v -0.02737600 0.02438400 -0.04788200
v -0.02745100 0.02392500 -0.04788200
v 0.03271300 0.02673000 0.04339100
v 0.03257700 -0.02717700 0.04339100
v 0.03271300 -0.02634200 0.04339100
v 0.03257700 0.02756400 0.04339100
v 0.03236200 0.02832200 0.04339100
v 0.03236200 -0.02793400 0.04339100
v 0.03206400 0.02905000 0.04339100
v 0.03206400 -0.02866300 0.04339100
v 0.03168500 -0.02935300 0.04339100
v 0.03168500 0.02974000 0.04339100
v 0.03123100 -0.02999500 0.04339100
v 0.03123100 0.03038200 0.04339100
v 0.03070700 0.03097000 0.04339100
v 0.03070700 -0.03058200 0.04339100
v 0.03011900 -0.03110600 0.04339100
v 0.03011900 0.03149400 0.04339100
v 0.02947700 -0.03156100 0.04339100
v 0.02947700 0.03194800 0.04339100
v 0.02878700 0.03232700 0.04339100
v 0.02878700 -0.03194000 0.04339100
v 0.02805900 0.03262500 0.04339100
v 0.02805900 -0.03223800 0.04339100
v 0.02730100 -0.03245200 0.04339100
v 0.02730100 0.03284000 0.04339100
v 0.02646700 0.03297600 0.04339100
v 0.02646700 -0.03258900 0.04339100
v -0.02660500 -0.03258900 0.04339100
v -0.02660500 0.03297600 0.04339100
v -0.02744000 -0.03245200 0.04339100
v -0.02744000 0.03284000 0.04339100
v -0.02819700 0.03262500 0.04339100
v -0.02819700 -0.03223800 0.04339100
v -0.02892600 -0.03194000 0.04339100
v -0.02892600 0.03232700 0.04339100
v -0.02961600 0.03194800 0.04339100
v -0.02961600 -0.03156100 0.04339100
v -0.03025800 0.03149400 0.04339100
v -0.03025800 -0.03110600 0.04339100
v -0.03084500 -0.03058200 0.04339100
v -0.03084500 0.03097000 0.04339100
v -0.03136900 0.03038200 0.04339100
v -0.03136900 -0.02999500 0.04339100
v -0.03182400 0.02974000 0.04339100
v -0.03182400 -0.02935300 0.04339100
v -0.03220300 -0.02866300 0.04339100
v -0.03220300 0.02905000 0.04339100
v -0.03250100 0.02832200 0.04339100
v -0.03250100 -0.02793400 0.04339100
v -0.03271500 0.02756400 0.04339100
v -0.03271500 -0.02717700 0.04339100
v -0.03285200 0.02673000 0.04339100
v -0.03285200 -0.02634200 0.04339100
v -0.03250100 0.02832200 0.03974000
v -0.03220300 0.02905000 0.03974000
v -0.03271500 0.02756400 0.03974000
v -0.03285200 0.02673000 0.03974000
v -0.03285200 -0.02634200 0.03974000
v -0.03271500 -0.02717700 0.03974000
v -0.03250100 -0.02793400 0.03974000
v -0.03220300 -0.02866300 0.03974000
v -0.03182400 -0.02935300 0.03974000
v -0.03136900 -0.02999500 0.03974000
v -0.03084500 -0.03058200 0.03974000
v -0.03025800 -0.03110600 0.03974000
v -0.02961600 -0.03156100 0.03974000
v -0.02892600 -0.03194000 0.03974000
v -0.02819700 -0.03223800 0.03974000
v -0.02744000 -0.03245200 0.03974000
v -0.02660500 -0.03258900 0.03974000
v 0.02646700 -0.03258900 0.03974000
v 0.02730100 -0.03245200 0.03974000
v 0.02805900 -0.03223800 0.03974000
v 0.02878700 -0.03194000 0.03974000
v 0.02947700 -0.03156100 0.03974000
v 0.03011900 -0.03110600 0.03974000
v 0.03070700 -0.03058200 0.03974000
v 0.03123100 -0.02999500 0.03974000
v 0.03168500 -0.02935300 0.03974000
v 0.03206400 -0.02866300 0.03974000
v 0.03236200 -0.02793400 0.03974000
v 0.03257700 -0.02717700 0.03974000
v 0.03271300 -0.02634200 0.03974000
v 0.03271300 0.02673000 0.03974000
v 0.03257700 0.02756400 0.03974000
v 0.03236200 0.02832200 0.03974000
v 0.03206400 0.02905000 0.03974000
v 0.03168500 0.02974000 0.03974000
v 0.03123100 0.03038200 0.03974000
v 0.03070700 0.03097000 0.03974000
v 0.03011900 0.03149400 0.03974000
v 0.02947700 0.03194800 0.03974000
v 0.02878700 0.03232700 0.03974000
v 0.02805900 0.03262500 0.03974000
v 0.02730100 0.03284000 0.03974000
v 0.02646700 0.03297600 0.03974000
v -0.02660500 0.03297600 0.03974000
v -0.02744000 0.03284000 0.03974000
v -0.02819700 0.03262500 0.03974000
v -0.02892600 0.03232700 0.03974000
v -0.02961600 0.03194800 0.03974000
v -0.03025800 0.03149400 0.03974000
v -0.03084500 0.03097000 0.03974000
v -0.03136900 0.03038200 0.03974000
v -0.03182400 0.02974000 0.03974000
vn -0.68441594 -0.70983790 -0.16644811
vn 0.67852109 -0.73420737 -0.02342347
vn -0.67958385 -0.73322750 0.02330717
vn 0.67145766 -0.70973862 -0.21310958
vn -0.69146626 -0.63534876 -0.34381152
vn 0.66582565 -0.63580047 -0.39042793
vn 0.68518653 -0.70908360 0.16649286
vn -0.67217416 -0.70902079 0.21324029
vn -0.69635528 -0.51902395 -0.49568484
vn 0.66074988 -0.51899318 -0.54226900
vn 0.69104519 -0.63588307 0.34367028
vn -0.66583761 -0.63584468 0.39033553
vn 0.65665074 -0.36715718 -0.65879086
vn -0.70024155 -0.36732703 -0.61215409
vn 0.69632596 -0.51920772 0.49553356
vn -0.66049852 -0.51947762 0.54211135
vn 0.65406884 -0.19029373 -0.73210808
vn -0.70275623 -0.19023593 -0.68552460
vn -0.65665135 -0.36706920 0.65883928
vn 0.70021671 -0.36712999 0.61230068
vn 0.65320098 0.00001515 -0.75718457
vn -0.70397626 0.00002067 -0.71022350
vn -0.65426544 -0.18979094 0.73206293
vn 0.70298546 -0.18989641 0.68538369
vn -0.70278406 0.19021864 -0.68550087
vn 0.65408222 0.19026980 -0.73210235
vn -0.65307131 0.00002065 0.75729642
vn 0.70355240 0.00001515 0.71064338
vn -0.70025098 0.36730502 -0.61215650
vn 0.65663767 0.36716547 -0.65879927
vn 0.70299840 0.18987246 0.68537705
vn -0.65429483 0.18977361 0.73204115
vn -0.69631760 0.51904234 -0.49571852
vn 0.66074071 0.51899929 -0.54227433
vn 0.70020426 0.36713827 0.61230996
vn -0.65666059 0.36704719 0.65884234
vn 0.66581919 0.63581316 -0.39041827
vn -0.69137588 0.63543209 -0.34383930
vn 0.69631717 0.51921382 0.49553951
vn -0.66045862 0.51949599 0.54214236
vn 0.67168905 0.70954285 -0.21303231
vn -0.68468997 0.70960008 -0.16633512
vn -0.66574542 0.63592800 0.39035704
vn 0.69103808 0.63589577 0.34366108
vn 0.67852109 0.73420737 -0.02342347
vn -0.67958385 0.73322750 0.02330717
vn -0.67245504 0.70878263 0.21314641
vn 0.68541188 0.70888761 0.16639987
vn 0.70027312 0.36729884 0.61213489
vn -0.65420566 0.18992716 0.73208102
vn 0.70283661 0.18991309 0.68553171
vn -0.65647977 0.36747315 0.65878509
vn -0.65323016 0.00000336 0.75715940
vn 0.70368252 -0.00000336 0.71051454
vn 0.69636552 0.51907746 0.49561443
vn -0.66074988 0.51899318 0.54226900
vn 0.70283486 -0.18990087 0.68553688
vn -0.65420776 -0.18993939 0.73207598
vn -0.66581744 0.63578708 0.39046374
vn 0.69098364 0.63586096 0.34383491
vn 0.70025845 -0.36731585 0.61214146
vn -0.65649486 -0.36745614 0.65877954
vn -0.67244968 0.70880302 0.21309553
vn 0.68507066 0.70918730 0.16652794
vn 0.69637430 -0.51907135 0.49560848
vn -0.66074071 -0.51899929 0.54227433
vn -0.67753820 0.73512244 0.02317299
vn 0.67760379 0.73505980 -0.02324200
vn -0.66580654 -0.63579240 0.39047365
vn 0.69099383 -0.63585564 0.34382428
vn -0.68518466 0.70908040 -0.16651418
vn 0.67235170 0.70887595 -0.21316209
vn -0.67234347 -0.70889309 0.21313105
vn 0.68517423 -0.70909728 0.16648522
vn -0.69104519 0.63588307 -0.34367028
vn 0.66584305 0.63585112 -0.39031575
vn -0.67753820 -0.73512244 0.02317299
vn 0.67760379 -0.73505980 -0.02324200
vn -0.69632711 0.51920842 -0.49553120
vn 0.66070045 0.51914057 -0.54218814
vn -0.68508109 -0.70917043 -0.16655690
vn 0.67245792 -0.70878587 -0.21312657
vn 0.65642829 0.36727039 -0.65894943
vn -0.70019209 0.36715227 -0.61231548
vn -0.69103499 -0.63588840 -0.34368092
vn 0.66585395 -0.63584579 -0.39030583
vn 0.65434393 0.18992697 -0.73195749
vn -0.70297409 0.18988089 -0.68539965
vn -0.69631832 -0.51921453 -0.49553715
vn 0.66070962 -0.51913447 -0.54218281
vn 0.65308867 -0.00000335 -0.75728144
vn -0.70353890 0.00000335 -0.71065675
vn 0.65641322 -0.36728739 -0.65895498
vn -0.70020675 -0.36713527 -0.61230891
vn -0.70297584 -0.18989313 -0.68539447
vn 0.65434184 -0.18991473 -0.73196254
vn 0.98701441 -0.16063176 0.00000000
vn 0.02103709 0.00259340 -0.99977533
vn 0.97608276 -0.21739927 0.00000000
vn -0.96299384 0.00224563 -0.26951403
vn 0.02179866 -0.00152960 -0.99976121
vn 0.94534207 -0.32608031 0.00000000
vn 0.02169278 -0.00562634 -0.99974885
vn 0.90242480 -0.43084740 0.00000000
vn 0.02068584 -0.00964669 -0.99973948
vn 0.84768738 -0.53049610 0.00000000
vn 0.01893955 -0.01320124 -0.99973347
vn 0.78300790 -0.62201176 0.00000000
vn 0.01639109 -0.01638265 -0.99973143
vn 0.70716248 -0.70705108 0.00000000
vn 0.62251115 -0.78261093 0.00000000
vn 0.01322872 -0.01892320 -0.99973342
vn 0.53025001 -0.84784133 0.00000000
vn 0.00960204 -0.02070853 -0.99973944
vn 0.43088953 -0.90240469 0.00000000
vn 0.00566027 -0.02167815 -0.99974898
vn 0.32579659 -0.94543989 0.00000000
vn 0.00146668 -0.02181083 -0.99976104
vn 0.21731735 -0.97610100 0.00000000
vn -0.00250647 -0.02101933 -0.99977593
vn 0.08168653 -0.99665807 0.00000000
vn -0.00832128 -0.01900530 -0.99978475
vn -0.08152955 -0.99667093 0.00000000
vn 0.00830338 -0.01899825 -0.99978504
vn -0.21742036 -0.97607806 0.00000000
vn 0.00256977 -0.02103503 -0.99977544
vn -0.32604527 -0.94535416 0.00000000
vn -0.00151794 -0.02179908 -0.99976122
vn -0.43088953 -0.90240469 0.00000000
vn -0.00564829 -0.02168336 -0.99974893
vn -0.52977584 -0.84813770 0.00000000
vn -0.00958223 -0.02071953 -0.99973941
vn -0.62257779 -0.78255792 0.00000000
vn -0.01325332 -0.01890023 -0.99973353
vn -0.70710678 -0.70710678 0.00000000
vn -0.01638565 -0.01638565 -0.99973147
vn -0.01890023 -0.01325332 -0.99973353
vn -0.78255792 -0.62257779 0.00000000
vn -0.02071953 -0.00958223 -0.99973941
vn -0.84813770 -0.52977584 0.00000000
vn -0.02168336 -0.00564829 -0.99974893
vn -0.90240469 -0.43088953 0.00000000
vn -0.02179908 -0.00151794 -0.99976122
vn -0.94535416 -0.32604527 0.00000000
vn -0.02103503 0.00256977 -0.99977544
vn -0.97607806 -0.21742036 0.00000000
vn 0.96236859 0.00225683 -0.27173813
vn -0.98670587 -0.16251626 0.00000000
vn 0.98671863 -0.08225337 -0.14007403
vn 0.96997108 -0.21675127 -0.11034035
vn 0.93897499 -0.32425942 -0.11481202
vn 0.89616239 -0.42845211 -0.11541995
vn 0.84214283 -0.52642662 -0.11692075
vn 0.77693626 -0.61831722 -0.11854896
vn 0.70162296 -0.70263383 -0.11845215
vn 0.61782682 -0.77746719 -0.11762138
vn 0.52719499 -0.84180982 -0.11585195
vn 0.42916526 -0.89568037 -0.11650687
vn 0.32451586 -0.93892596 -0.11448798
vn 0.21590377 -0.96996290 -0.11206038
vn 0.08115769 -0.98701007 -0.13865262
vn -0.08131252 -0.98696903 -0.13885394
vn -0.21580535 -0.97004585 -0.11153072
vn -0.32426237 -0.93897332 -0.11481734
vn -0.42915849 -0.89568431 -0.11650154
vn -0.52763039 -0.84143980 -0.11655575
vn -0.61787022 -0.77765888 -0.11611658
vn -0.70152993 -0.70243268 -0.12018357
vn -0.77746551 -0.61782634 -0.11763498
vn -0.84180615 -0.52720025 -0.11585462
vn -0.89594401 -0.42830981 -0.11762244
vn -0.93921715 -0.32436509 -0.11250969
vn -0.96971154 -0.21668801 -0.11272018
vn -0.98696903 -0.08131252 -0.13885394
vn -0.68868191 -0.15203138 -0.70894547
vn -0.70945034 -0.05658806 -0.70247990
vn -0.66647271 -0.22952189 -0.70931927
vn -0.63495700 -0.30343293 -0.71046328
vn -0.59658895 -0.37275070 -0.71073099
vn -0.55025220 -0.43786450 -0.71098326
vn -0.49709021 -0.49709262 -0.71119636
vn -0.43823286 -0.54971975 -0.71116817
vn -0.37291566 -0.59694836 -0.71034257
vn -0.30275471 -0.63505921 -0.71066123
vn -0.22951905 -0.66647175 -0.70932109
vn -0.15203138 -0.68868191 -0.70894547
vn -0.05658806 -0.70945034 -0.70247990
vn 0.05658760 -0.70945005 -0.70248022
vn 0.15224342 -0.68869670 -0.70888560
vn 0.22969239 -0.66634304 -0.70938590
vn 0.30276112 -0.63505832 -0.71065929
vn 0.37247289 -0.59707287 -0.71047022
vn 0.43797152 -0.55009651 -0.71103781
vn 0.49760923 -0.49681270 -0.71102897
vn 0.54993419 -0.43768149 -0.71134190
vn 0.59642272 -0.37336990 -0.71054546
vn 0.63545661 -0.30289263 -0.71024711
vn 0.66604917 -0.22941683 -0.70975096
vn 0.68873596 -0.15278312 -0.70873133
vn 0.70945034 -0.05658806 -0.70247990
vn 0.70945062 0.05658850 -0.70247958
vn 0.68875115 0.15299545 -0.70867076
vn 0.66591969 0.22959363 -0.70981528
vn 0.63545661 0.30289263 -0.71024711
vn 0.59654235 0.37293106 -0.71067549
vn 0.55031267 0.43742405 -0.71120754
vn 0.49733368 0.49733368 -0.71085752
vn 0.43742405 0.55031267 -0.71120754
vn 0.37293106 0.59654235 -0.71067549
vn 0.30289263 0.63545661 -0.71024711
vn 0.22959363 0.66591969 -0.70981528
vn 0.15299545 0.68875115 -0.70867076
vn 0.05658850 0.70945062 -0.70247958
vn -0.05659030 0.70945175 -0.70247829
vn -0.15277892 0.68873691 -0.70873131
vn -0.22941933 0.66604712 -0.70975207
vn -0.30289173 0.63545748 -0.71024671
vn -0.37336792 0.59642207 -0.71054705
vn -0.43768480 0.54993207 -0.71134150
vn -0.49681466 0.49761177 -0.71102582
vn -0.55063013 0.43760699 -0.71084920
vn -0.59670787 0.37231235 -0.71086091
vn -0.63495700 0.30343293 -0.71046328
vn -0.66634422 0.22969769 -0.70938308
vn -0.68869731 0.15224221 -0.70888527
vn -0.70945062 0.05658850 -0.70247958
vn 0.72203653 0.05848483 0.68937855
vn 0.70241734 -0.15640505 0.69436831
vn 0.72202282 -0.05841459 0.68939885
vn 0.70237472 0.15633787 0.69442655
vn 0.67990668 0.23475327 0.69470699
vn 0.67984038 -0.23467930 0.69479686
vn 0.64926612 0.30996361 0.69453298
vn 0.64938612 -0.30982914 0.69448080
vn 0.60993953 -0.38146954 0.69458964
vn 0.60993953 0.38146954 0.69458964
vn 0.56293089 -0.44794469 0.69458935
vn 0.56305085 0.44765152 0.69468112
vn 0.50882650 0.50882650 0.69439988
vn 0.50854878 -0.50897895 0.69449159
vn 0.44787581 -0.56273340 0.69479377
vn 0.44765152 0.56305085 0.69468112
vn 0.38184360 -0.60983365 0.69447706
vn 0.38146954 0.60993953 0.69458964
vn 0.30996361 0.64926612 0.69453298
vn 0.30996361 -0.64926612 0.69453298
vn 0.23475327 0.67990668 0.69470699
vn 0.23437970 -0.68017096 0.69457442
vn 0.15626465 -0.70213461 0.69468579
vn 0.15633787 0.70237472 0.69442655
vn 0.05848483 0.72203653 0.68937855
vn 0.05891605 -0.72212044 0.68925392
vn -0.05884530 -0.72210670 0.68927436
vn -0.05841459 0.72202282 0.68939885
vn -0.15633088 -0.70217753 0.69462751
vn -0.15640505 0.70241734 0.69436831
vn -0.23467930 0.67984038 0.69479686
vn -0.23430536 -0.68010497 0.69466411
vn -0.30982914 -0.64938612 0.69448080
vn -0.30982914 0.64938612 0.69448080
vn -0.38146954 0.60993953 0.69458964
vn -0.38184360 -0.60983365 0.69447706
vn -0.44794469 0.56293089 0.69458935
vn -0.44816892 -0.56261336 0.69470197
vn -0.50870128 -0.50870128 0.69458333
vn -0.50897895 0.50854878 0.69449159
vn -0.56273340 0.44787581 0.69479377
vn -0.56261336 -0.44816892 0.69470197
vn -0.60983365 0.38184360 0.69447706
vn -0.60983365 -0.38184360 0.69447706
vn -0.64938612 -0.30982914 0.69448080
vn -0.64926612 0.30996361 0.69453298
vn -0.68017096 0.23437970 0.69457442
vn -0.68010497 -0.23430536 0.69466411
vn -0.70213461 0.15626465 0.69468579
vn -0.70217753 -0.15633088 0.69462751
vn -0.72212044 0.05891605 0.68925392
vn -0.72210670 -0.05884530 0.68927436
vn -0.68017096 0.23437970 -0.69457442
vn -0.64926612 0.30996361 -0.69453298
vn -0.70213461 0.15626465 -0.69468579
vn -0.72212044 0.05891605 -0.68925392
vn -0.72210670 -0.05884530 -0.68927436
vn -0.70217753 -0.15633088 -0.69462751
vn -0.68010497 -0.23430536 -0.69466411
vn -0.64938612 -0.30982914 -0.69448080
vn -0.60983365 -0.38184360 -0.69447706
vn -0.56261336 -0.44816892 -0.69470197
vn -0.50870128 -0.50870128 -0.69458333
vn -0.44816892 -0.56261336 -0.69470197
vn -0.38184360 -0.60983365 -0.69447706
vn -0.30982914 -0.64938612 -0.69448080
vn -0.23430536 -0.68010497 -0.69466411
vn -0.15633088 -0.70217753 -0.69462751
vn -0.05884530 -0.72210670 -0.68927436
vn 0.05891605 -0.72212044 -0.68925392
vn 0.15626465 -0.70213461 -0.69468579
vn 0.23437970 -0.68017096 -0.69457442
vn 0.30996361 -0.64926612 -0.69453298
vn 0.38184360 -0.60983365 -0.69447706
vn 0.44787581 -0.56273340 -0.69479377
vn 0.50854878 -0.50897895 -0.69449159
vn 0.56293089 -0.44794469 -0.69458935
vn 0.60993953 -0.38146954 -0.69458964
vn 0.64938612 -0.30982914 -0.69448080
vn 0.67984038 -0.23467930 -0.69479686
vn 0.70241734 -0.15640505 -0.69436831
vn 0.72202282 -0.05841459 -0.68939885
vn 0.72203653 0.05848483 -0.68937855
vn 0.70237472 0.15633787 -0.69442655
vn 0.67990668 0.23475327 -0.69470699
vn 0.64926612 0.30996361 -0.69453298
vn 0.60993953 0.38146954 -0.69458964
vn 0.56305085 0.44765152 -0.69468112
vn 0.50882650 0.50882650 -0.69439988
vn 0.44765152 0.56305085 -0.69468112
vn 0.38146954 0.60993953 -0.69458964
vn 0.30996361 0.64926612 -0.69453298
vn 0.23475327 0.67990668 -0.69470699
vn 0.15633787 0.70237472 -0.69442655
vn 0.05848483 0.72203653 -0.68937855
vn -0.05841459 0.72202282 -0.68939885
vn -0.15640505 0.70241734 -0.69436831
vn -0.23467930 0.67984038 -0.69479686
vn -0.30982914 0.64938612 -0.69448080
vn -0.38146954 0.60993953 -0.69458964
vn -0.44794469 0.56293089 -0.69458935
vn -0.50897895 0.50854878 -0.69449159
vn -0.56273340 0.44787581 -0.69479377
vn -0.60983365 0.38184360 -0.69447706
f 1//1 2//2 3//3
f 2//2 1//1 4//4
f 5//5 4//4 1//1
f 4//4 5//5 6//6
f 3//3 7//7 8//8
f 7//7 3//3 2//2
f 9//9 6//6 5//5
f 6//6 9//9 10//10
f 8//8 11//11 12//12
f 11//11 8//8 7//7
f 9//9 13//13 10//10
f 13//13 9//9 14//14
f 12//12 15//15 16//16
f 15//15 12//12 11//11
f 14//14 17//17 13//13
f 17//17 14//14 18//18
f 19//19 15//15 20//20
f 15//15 19//19 16//16
f 18//18 21//21 17//17
f 21//21 18//18 22//22
f 23//23 20//20 24//24
f 20//20 23//23 19//19
f 21//21 25//25 26//26
f 25//25 21//21 22//22
f 27//27 24//24 28//28
f 24//24 27//27 23//23
f 26//26 29//29 30//30
f 29//29 26//26 25//25
f 31//31 27//27 28//28
f 27//27 31//31 32//32
f 30//30 33//33 34//34
f 33//33 30//30 29//29
f 35//35 32//32 31//31
f 32//32 35//35 36//36
f 37//37 33//33 38//38
f 33//33 37//37 34//34
f 39//39 36//36 35//35
f 36//36 39//39 40//40
f 41//41 38//38 42//42
f 38//38 41//41 37//37
f 39//39 43//43 40//40
f 43//43 39//39 44//44
f 45//45 42//42 46//46
f 42//42 45//45 41//41
f 44//44 47//47 43//43
f 47//47 44//44 48//48
f 48//48 46//46 47//47
f 46//46 48//48 45//45
f 49//49 50//50 51//51
f 50//50 49//49 52//52
f 51//51 53//53 54//54
f 53//53 51//51 50//50
f 55//55 52//52 49//49
f 52//52 55//55 56//56
f 53//53 57//57 54//54
f 57//57 53//53 58//58
f 55//55 59//59 56//56
f 59//59 55//55 60//60
f 58//58 61//61 57//57
f 61//61 58//58 62//62
f 60//60 63//63 59//59
f 63//63 60//60 64//64
f 62//62 65//65 61//61
f 65//65 62//62 66//66
f 64//64 67//67 63//63
f 67//67 64//64 68//68
f 69//69 65//65 66//66
f 65//65 69//69 70//70
f 68//68 71//71 67//67
f 71//71 68//68 72//72
f 73//73 70//70 69//69
f 70//70 73//73 74//74
f 72//72 75//75 71//71
f 75//75 72//72 76//76
f 77//77 74//74 73//73
f 74//74 77//77 78//78
f 76//76 79//79 75//75
f 79//79 76//76 80//80
f 81//81 78//78 77//77
f 78//78 81//81 82//82
f 83//83 79//79 80//80
f 79//79 83//83 84//84
f 85//85 82//82 81//81
f 82//82 85//85 86//86
f 87//87 84//84 83//83
f 84//84 87//87 88//88
f 89//89 86//86 85//85
f 86//86 89//89 90//90
f 91//91 88//88 87//87
f 88//88 91//91 92//92
f 89//89 93//93 90//90
f 93//93 89//89 94//94
f 95//95 91//91 96//96
f 91//91 95//95 92//92
f 94//94 96//96 93//93
f 96//96 94//94 95//95
f 71//71 63//63 67//67
f 71//71 59//59 63//63
f 75//75 59//59 71//71
f 75//75 56//56 59//59
f 79//79 56//56 75//75
f 79//79 52//52 56//56
f 84//84 52//52 79//79
f 84//84 50//50 52//52
f 88//88 50//50 84//84
f 88//88 53//53 50//50
f 92//92 53//53 88//88
f 92//92 58//58 53//53
f 95//95 58//58 92//92
f 95//95 62//62 58//58
f 94//94 62//62 95//95
f 94//94 66//66 62//62
f 89//89 66//66 94//94
f 89//89 69//69 66//66
f 85//85 69//69 89//89
f 85//85 73//73 69//69
f 81//81 73//73 85//85
f 73//73 81//81 77//77
f 97//97 98//98 99//99
f 98//98 97//97 100//100
f 99//99 101//101 102//102
f 101//101 99//99 98//98
f 102//102 103//103 104//104
f 103//103 102//102 101//101
f 104//104 105//105 106//106
f 105//105 104//104 103//103
f 106//106 107//107 108//108
f 107//107 106//106 105//105
f 108//108 109//109 110//110
f 109//109 108//108 107//107
f 109//109 111//111 110//110
f 111//111 109//109 112//112
f 112//112 113//113 111//111
f 113//113 112//112 114//114
f 114//114 115//115 113//113
f 115//115 114//114 116//116
f 116//116 117//117 115//115
f 117//117 116//116 118//118
f 118//118 119//119 117//117
f 119//119 118//118 120//120
f 120//120 121//121 119//119
f 121//121 120//120 122//122
f 122//122 123//123 121//121
f 123//123 122//122 124//124
f 124//124 125//125 123//123
f 125//125 124//124 126//126
f 126//126 127//127 125//125
f 127//127 126//126 128//128
f 128//128 129//129 127//127
f 129//129 128//128 130//130
f 130//130 131//131 129//129
f 131//131 130//130 132//132
f 132//132 133//133 131//131
f 133//133 132//132 134//134
f 134//134 135//135 133//133
f 135//135 134//134 136//136
f 137//137 135//135 136//136
f 135//135 137//137 138//138
f 139//139 138//138 137//137
f 138//138 139//139 140//140
f 141//141 140//140 139//139
f 140//140 141//141 142//142
f 143//143 142//142 141//141
f 142//142 143//143 144//144
f 145//145 144//144 143//143
f 144//144 145//145 146//146
f 147//147 146//146 145//145
f 146//146 147//147 148//148
f 145//145 149//149 147//147
f 145//145 150//150 149//149
f 143//143 150//150 145//145
f 143//143 151//151 150//150
f 141//141 151//151 143//143
f 141//141 152//152 151//151
f 139//139 152//152 141//141
f 139//139 153//153 152//152
f 137//137 153//153 139//139
f 137//137 154//154 153//153
f 136//136 154//154 137//137
f 136//136 155//155 154//154
f 134//134 155//155 136//136
f 134//134 156//156 155//155
f 132//132 156//156 134//134
f 132//132 157//157 156//156
f 130//130 157//157 132//132
f 130//130 158//158 157//157
f 128//128 158//158 130//130
f 128//128 159//159 158//158
f 126//126 159//159 128//128
f 126//126 160//160 159//159
f 124//124 160//160 126//126
f 124//124 161//161 160//160
f 122//122 161//161 124//124
f 122//122 162//162 161//161
f 120//120 162//162 122//122
f 120//120 163//163 162//162
f 118//118 163//163 120//120
f 118//118 164//164 163//163
f 118//118 165//165 164//164
f 116//116 165//165 118//118
f 116//116 166//166 165//165
f 114//114 166//166 116//116
f 114//114 167//167 166//166
f 112//112 167//167 114//114
f 109//109 167//167 112//112
f 109//109 168//168 167//167
f 107//107 168//168 109//109
f 107//107 169//169 168//168
f 105//105 169//169 107//107
f 105//105 170//170 169//169
f 103//103 170//170 105//105
f 103//103 171//171 170//170
f 101//101 171//171 103//103
f 101//101 172//172 171//171
f 98//98 172//172 101//101
f 98//98 173//173 172//172
f 100//100 173//173 98//98
f 173//173 100//100 174//174
f 175//175 174//174 176//176
f 174//174 175//175 173//173
f 177//177 173//173 175//175
f 173//173 177//177 172//172
f 178//178 172//172 177//177
f 172//172 178//178 171//171
f 179//179 171//171 178//178
f 171//171 179//179 170//170
f 180//180 170//170 179//179
f 170//170 180//180 169//169
f 181//181 169//169 180//180
f 169//169 181//181 168//168
f 181//181 167//167 168//168
f 167//167 181//181 182//182
f 182//182 166//166 167//167
f 166//166 182//182 183//183
f 183//183 165//165 166//166
f 165//165 183//183 184//184
f 184//184 164//164 165//165
f 164//164 184//184 185//185
f 185//185 163//163 164//164
f 163//163 185//185 186//186
f 186//186 162//162 163//163
f 162//162 186//186 187//187
f 187//187 161//161 162//162
f 161//161 187//187 188//188
f 188//188 160//160 161//161
f 160//160 188//188 189//189
f 189//189 159//159 160//160
f 159//159 189//189 190//190
f 190//190 158//158 159//159
f 158//158 190//190 191//191
f 191//191 157//157 158//158
f 157//157 191//191 192//192
f 192//192 156//156 157//157
f 156//156 192//192 193//193
f 193//193 155//155 156//156
f 155//155 193//193 194//194
f 154//154 194//194 195//195
f 194//194 154//154 155//155
f 153//153 195//195 196//196
f 195//195 153//153 154//154
f 152//152 196//196 197//197
f 196//196 152//152 153//153
f 151//151 197//197 198//198
f 197//197 151//151 152//152
f 150//150 198//198 199//199
f 198//198 150//150 151//151
f 149//149 199//199 200//200
f 199//199 149//149 150//150
f 147//147 200//200 201//201
f 200//200 147//147 149//149
f 147//147 202//202 145//145
f 202//202 147//147 201//201
f 145//145 203//203 143//143
f 203//203 145//145 202//202
f 143//143 204//204 141//141
f 204//204 143//143 203//203
f 141//141 205//205 139//139
f 205//205 141//141 204//204
f 139//139 206//206 137//137
f 206//206 139//139 205//205
f 137//137 207//207 136//136
f 207//207 137//137 206//206
f 207//207 134//134 136//136
f 134//134 207//207 208//208
f 208//208 132//132 134//134
f 132//132 208//208 209//209
f 209//209 130//130 132//132
f 130//130 209//209 210//210
f 210//210 128//128 130//130
f 128//128 210//210 211//211
f 211//211 126//126 128//128
f 126//126 211//211 212//212
f 212//212 124//124 126//126
f 124//124 212//212 213//213
f 213//213 122//122 124//124
f 122//122 213//213 214//214
f 214//214 120//120 122//122
f 120//120 214//214 215//215
f 215//215 118//118 120//120
f 118//118 215//215 216//216
f 216//216 116//116 118//118
f 116//116 216//216 217//217
f 217//217 114//114 116//116
f 114//114 217//217 218//218
f 218//218 112//112 114//114
f 112//112 218//218 219//219
f 219//219 109//109 112//112
f 109//109 219//219 220//220
f 220//220 107//107 109//109
f 107//107 220//220 221//221
f 221//221 105//105 107//107
f 105//105 221//221 222//222
f 222//222 103//103 105//105
f 103//103 222//222 223//223
f 223//223 101//101 103//103
f 101//101 223//223 224//224
f 224//224 98//98 101//101
f 98//98 224//224 225//225
f 225//225 100//100 98//98
f 100//100 225//225 226//226
f 176//176 100//100 226//226
f 100//100 176//176 174//174
f 199//199 201//201 200//200
f 199//199 202//202 201//201
f 198//198 202//202 199//199
f 198//198 203//203 202//202
f 197//197 203//203 198//198
f 197//197 204//204 203//203
f 196//196 204//204 197//197
f 196//196 205//205 204//204
f 195//195 205//205 196//196
f 195//195 206//206 205//205
f 195//195 207//207 206//206
f 194//194 207//207 195//195
f 194//194 208//208 207//207
f 193//193 208//208 194//194
f 192//192 208//208 193//193
f 192//192 209//209 208//208
f 191//191 209//209 192//192
f 191//191 210//210 209//209
f 190//190 210//210 191//191
f 190//190 211//211 210//210
f 189//189 211//211 190//190
f 189//189 212//212 211//211
f 188//188 212//212 189//189
f 188//188 213//213 212//212
f 188//188 214//214 213//213
f 187//187 214//214 188//188
f 187//187 215//215 214//214
f 186//186 215//215 187//187
f 186//186 216//216 215//215
f 185//185 216//216 186//186
f 184//184 216//216 185//185
f 184//184 217//217 216//216
f 183//183 217//217 184//184
f 183//183 218//218 217//217
f 182//182 218//218 183//183
f 182//182 219//219 218//218
f 181//181 219//219 182//182
f 181//181 220//220 219//219
f 180//180 220//220 181//181
f 180//180 221//221 220//220
f 179//179 221//221 180//180
f 179//179 222//222 221//221
f 178//178 222//222 179//179
f 178//178 223//223 222//222
f 177//177 223//223 178//178
f 177//177 224//224 223//223
f 175//175 224//224 177//177
f 175//175 225//225 224//224
f 175//175 226//226 225//225
f 226//226 175//175 176//176
f 227//227 228//228 229//229
f 230//230 228//228 227//227
f 231//231 228//228 230//230
f 231//231 232//232 228//228
f 233//233 232//232 231//231
f 233//233 234//234 232//232
f 233//233 235//235 234//234
f 236//236 235//235 233//233
f 236//236 237//237 235//235
f 238//238 237//237 236//236
f 239//239 237//237 238//238
f 239//239 240//240 237//237
f 239//239 241//241 240//240
f 242//242 241//241 239//239
f 242//242 243//243 241//241
f 244//244 243//243 242//242
f 245//245 243//243 244//244
f 245//245 246//246 243//243
f 247//247 246//246 245//245
f 247//247 248//248 246//246
f 247//247 249//249 248//248
f 250//250 249//249 247//247
f 251//251 249//249 250//250
f 251//251 252//252 249//249
f 251//251 253//253 252//252
f 254//254 253//253 251//251
f 254//254 255//255 253//253
f 256//256 255//255 254//254
f 257//257 255//255 256//256
f 257//257 258//258 255//255
f 257//257 259//259 258//258
f 260//260 259//259 257//257
f 261//261 259//259 260//260
f 261//261 262//262 259//259
f 263//263 262//262 261//261
f 263//263 264//264 262//262
f 263//263 265//265 264//264
f 266//266 265//265 263//263
f 267//267 265//265 266//266
f 267//267 268//268 265//265
f 269//269 268//268 267//267
f 269//269 270//270 268//268
f 269//269 271//271 270//270
f 272//272 271//271 269//269
f 273//273 271//271 272//272
f 273//273 274//274 271//271
f 275//275 274//274 273//273
f 275//275 276//276 274//274
f 277//277 276//276 275//275
f 276//276 277//277 278//278
f 279//279 272//272 280//280
f 272//272 279//279 273//273
f 281//281 273//273 279//279
f 273//273 281//281 275//275
f 282//282 275//275 281//281
f 275//275 282//282 277//277
f 283//283 277//277 282//282
f 277//277 283//283 278//278
f 284//284 278//278 283//283
f 278//278 284//284 276//276
f 285//285 276//276 284//284
f 276//276 285//285 274//274
f 286//286 274//274 285//285
f 274//274 286//286 271//271
f 287//287 271//271 286//286
f 271//271 287//287 270//270
f 288//288 270//270 287//287
f 270//270 288//288 268//268
f 289//289 268//268 288//288
f 268//268 289//289 265//265
f 289//289 264//264 265//265
f 264//264 289//289 290//290
f 290//290 262//262 264//264
f 262//262 290//290 291//291
f 291//291 259//259 262//262
f 259//259 291//291 292//292
f 292//292 258//258 259//259
f 258//258 292//292 293//293
f 293//293 255//255 258//258
f 255//255 293//293 294//294
f 294//294 253//253 255//255
f 253//253 294//294 295//295
f 295//295 252//252 253//253
f 252//252 295//295 296//296
f 296//296 249//249 252//252
f 249//249 296//296 297//297
f 297//297 248//248 249//249
f 248//248 297//297 298//298
f 298//298 246//246 248//248
f 246//246 298//298 299//299
f 299//299 243//243 246//246
f 243//243 299//299 300//300
f 300//300 241//241 243//243
f 241//241 300//300 301//301
f 301//301 240//240 241//241
f 240//240 301//301 302//302
f 240//240 303//303 237//237
f 303//303 240//240 302//302
f 237//237 304//304 235//235
f 304//304 237//237 303//303
f 235//235 305//305 234//234
f 305//305 235//235 304//304
f 234//234 306//306 232//232
f 306//306 234//234 305//305
f 232//232 307//307 228//228
f 307//307 232//232 306//306
f 228//228 308//308 229//229
f 308//308 228//228 307//307
f 229//229 309//309 227//227
f 309//309 229//229 308//308
f 227//227 310//310 230//230
f 310//310 227//227 309//309
f 230//230 311//311 231//231
f 311//311 230//230 310//310
f 231//231 312//312 233//233
f 312//312 231//231 311//311
f 233//233 313//313 236//236
f 313//313 233//233 312//312
f 236//236 314//314 238//238
f 314//314 236//236 313//313
f 238//238 315//315 239//239
f 315//315 238//238 314//314
f 315//315 242//242 239//239
f 242//242 315//315 316//316
f 316//316 244//244 242//242
f 244//244 316//316 317//317
f 317//317 245//245 244//244
f 245//245 317//317 318//318
f 318//318 247//247 245//245
f 247//247 318//318 319//319
f 319//319 250//250 247//247
f 250//250 319//319 320//320
f 320//320 251//251 250//250
f 251//251 320//320 321//321
f 321//321 254//254 251//251
f 254//254 321//321 322//322
f 322//322 256//256 254//254
f 256//256 322//322 323//323
f 323//323 257//257 256//256
f 257//257 323//323 324//324
f 324//324 260//260 257//257
f 260//260 324//324 325//325
f 325//325 261//261 260//260
f 261//261 325//325 326//326
f 326//326 263//263 261//261
f 263//263 326//326 327//327
f 327//327 266//266 263//263
f 266//266 327//327 328//328
f 329//329 266//266 328//328
f 266//266 329//329 267//267
f 330//330 267//267 329//329
f 267//267 330//330 269//269
f 280//280 269//269 330//330
f 269//269 280//280 272//272
f 302//302 150//150 149//149
f 301//301 150//150 302//302
f 301//301 151//151 150//150
f 301//301 152//152 151//151
f 301//301 153//153 152//152
f 300//300 153//153 301//301
f 300//300 154//154 153//153
f 300//300 155//155 154//154
f 299//299 155//155 300//300
f 299//299 156//156 155//155
f 299//299 157//157 156//156
f 298//298 157//157 299//299
f 298//298 158//158 157//157
f 297//297 158//158 298//298
f 297//297 159//159 158//158
f 297//297 160//160 159//159
f 296//296 160//160 297//297
f 296//296 161//161 160//160
f 296//296 162//162 161//161
f 295//295 162//162 296//296
f 295//295 163//163 162//162
f 295//295 164//164 163//163
f 294//294 164//164 295//295
f 294//294 165//165 164//164
f 293//293 165//165 294//294
f 293//293 166//166 165//165
f 293//293 167//167 166//166
f 292//292 167//167 293//293
f 292//292 168//168 167//167
f 292//292 169//169 168//168
f 291//291 169//169 292//292
f 291//291 170//170 169//169
f 291//291 171//171 170//170
f 291//291 172//172 171//171
f 290//290 172//172 291//291
f 290//290 173//173 172//172
f 290//290 174//174 173//173
f 174//174 289//289 100//100
f 289//289 174//174 290//290
f 307//307 309//309 308//308
f 307//307 310//310 309//309
f 307//307 311//311 310//310
f 306//306 311//311 307//307
f 306//306 312//312 311//311
f 305//305 312//312 306//306
f 304//304 312//312 305//305
f 304//304 313//313 312//312
f 303//303 313//313 304//304
f 303//303 314//314 313//313
f 303//303 315//315 314//314
f 302//302 315//315 303//303
f 149//149 315//315 302//302
f 147//147 315//315 149//149
f 145//145 315//315 147//147
f 145//145 316//316 315//315
f 143//143 316//316 145//145
f 141//141 316//316 143//143
f 139//139 316//316 141//141
f 139//139 317//317 316//316
f 137//137 317//317 139//139
f 136//136 317//317 137//137
f 136//136 318//318 317//317
f 134//134 318//318 136//136
f 132//132 318//318 134//134
f 132//132 319//319 318//318
f 130//130 319//319 132//132
f 130//130 320//320 319//319
f 128//128 320//320 130//130
f 126//126 320//320 128//128
f 126//126 321//321 320//320
f 124//124 321//321 126//126
f 122//122 321//321 124//124
f 122//122 322//322 321//321
f 120//120 322//322 122//122
f 118//118 322//322 120//120
f 118//118 323//323 322//322
f 116//116 323//323 118//118
f 116//116 324//324 323//323
f 114//114 324//324 116//116
f 112//112 324//324 114//114
f 112//112 325//325 324//324
f 109//109 325//325 112//112
f 107//107 325//325 109//109
f 107//107 326//326 325//325
f 105//105 326//326 107//107
f 103//103 326//326 105//105
f 101//101 326//326 103//103
f 101//101 327//327 326//326
f 98//98 327//327 101//101
f 100//100 327//327 98//98
f 100//100 328//328 327//327
f 289//289 328//328 100//100
f 289//289 329//329 328//328
f 288//288 329//329 289//289
f 288//288 330//330 329//329
f 287//287 330//330 288//288
f 286//286 330//330 287//287
f 286//286 280//280 330//330
f 286//286 279//279 280//280
f 285//285 279//279 286//286
f 285//285 281//281 279//279
f 284//284 281//281 285//285
f 284//284 282//282 281//281
f 282//282 284//284 283//283
f 42//42 47//47 46//46
f 42//42 43//43 47//47
f 38//38 43//43 42//42
f 38//38 40//40 43//43
f 33//33 40//40 38//38
f 33//33 36//36 40//40
f 29//29 36//36 33//33
f 29//29 32//32 36//36
f 25//25 32//32 29//29
f 25//25 27//27 32//32
f 22//22 27//27 25//25
f 22//22 23//23 27//27
f 18//18 23//23 22//22
f 18//18 19//19 23//23
f 14//14 19//19 18//18
f 14//14 16//16 19//19
f 9//9 16//16 14//14
f 9//9 12//12 16//16
f 5//5 12//12 9//9
f 5//5 8//8 12//12
f 1//1 8//8 5//5
f 8//8 1//1 3//3
f 48//48 41//41 45//45
f 44//44 41//41 48//48
f 44//44 37//37 41//41
f 39//39 37//37 44//44
f 39//39 34//34 37//37
f 35//35 34//34 39//39
f 35//35 30//30 34//34
f 31//31 30//30 35//35
f 31//31 26//26 30//30
f 28//28 26//26 31//31
f 28//28 21//21 26//26
f 24//24 21//21 28//28
f 24//24 17//17 21//21
f 20//20 17//17 24//24
f 20//20 13//13 17//17
f 15//15 13//13 20//20
f 15//15 10//10 13//13
f 11//11 10//10 15//15
f 11//11 6//6 10//10
f 7//7 6//6 11//11
f 7//7 4//4 6//6
f 4//4 7//7 2//2
f 64//64 72//72 68//68
f 60//60 72//72 64//64
f 60//60 76//76 72//72
f 55//55 76//76 60//60
f 55//55 80//80 76//76
f 49//49 80//80 55//55
f 49//49 83//83 80//80
f 51//51 83//83 49//49
f 51//51 87//87 83//83
f 54//54 87//87 51//51
f 54//54 91//91 87//87
f 57//57 91//91 54//54
f 57//57 96//96 91//91
f 61//61 96//96 57//57
f 61//61 93//93 96//96
f 65//65 93//93 61//61
f 65//65 90//90 93//93
f 70//70 90//90 65//65
f 70//70 86//86 90//90
f 74//74 86//86 70//70
f 74//74 82//82 86//86
f 82//82 74//74 78//78