# https://github.com/mikedh/trimesh
v -0.00001200 0.00004700 0.04740400
v -0.00116400 -0.00194600 -0.01294000
v -0.00001200 -0.00225400 -0.01294000
v -0.00200600 -0.00110400 -0.01294000
v 0.00113700 -0.00194600 -0.01294000
v -0.00231300 0.00004700 -0.01294000
v 0.00198000 -0.00110400 -0.01294000
v -0.00200600 0.00119700 -0.01294000
v 0.00228900 0.00004700 -0.01294000
v -0.00116400 0.00203900 -0.01294000
v 0.00198000 0.00119700 -0.01294000
v -0.00001200 0.00234800 -0.01294000
v 0.00113700 0.00203900 -0.01294000
v -0.00001200 0.00004700 0.05746600
v -0.00265800 0.00462800 0.04442800
v -0.00459400 0.00269100 0.04442800
v -0.00434600 0.00755200 -0.00781500
v -0.01061500 0.00616800 -0.00205500
v -0.00613400 0.01064900 -0.00205500
v -0.00751900 0.00438000 -0.00781500
v -0.00530300 0.00004700 0.04442800
v -0.00001200 0.00533600 0.04442800
v -0.00532900 0.00925400 0.02626600
v -0.00922100 0.00536300 0.02626600
v -0.00001200 0.00871400 -0.00781500
v -0.00001200 0.01228900 -0.00205500
v -0.01225500 0.00004700 -0.00205500
v -0.00867900 0.00004700 -0.00781500
v -0.01142100 0.00663300 0.00898500
v -0.00659900 0.01145500 0.00898500
v -0.01064500 0.00004700 0.02626600
v -0.00459400 -0.00259800 0.04442800
v 0.00263200 0.00462800 0.04442800
v -0.00001200 0.01067900 0.02626600
v -0.00001200 0.01321900 0.00898500
v 0.00432000 0.00755200 -0.00781500
v 0.00610800 0.01064900 -0.00205500
v -0.00751900 -0.00428700 -0.00781500
v -0.01061500 -0.00607500 -0.00205500
v -0.01318600 0.00004700 0.00898500
v -0.00922100 -0.00527000 0.02626600
v -0.00265800 -0.00453400 0.04442800
v 0.00456800 0.00269100 0.04442800
v 0.00530300 0.00925400 0.02626600
v 0.00657300 0.01145500 0.00898500
v 0.01058900 0.00616800 -0.00205500
v 0.00749300 0.00438000 -0.00781500
v -0.00613400 -0.01055500 -0.00205500
v -0.00434600 -0.00745900 -0.00781500
v -0.01142100 -0.00654000 0.00898500
v -0.00532900 -0.00916100 0.02626600
v -0.00001200 -0.00524300 0.04442800
v 0.00527700 0.00004700 0.04442800
v 0.00919500 0.00536300 0.02626600
v 0.01139500 0.00663300 0.00898500
v 0.01222900 0.00004700 -0.00205500
v 0.00865400 0.00004700 -0.00781500
v -0.00001200 -0.01219600 -0.00205500
v -0.00001200 -0.00862000 -0.00781500
v -0.00659900 -0.01136200 0.00898500
v -0.00001200 -0.01058600 0.02626600
v 0.00263200 -0.00453400 0.04442800
v 0.00456800 -0.00259800 0.04442800
v 0.01061900 0.00004700 0.02626600
v 0.01316000 0.00004700 0.00898500
v 0.00749300 -0.00428700 -0.00781500
v 0.01058900 -0.00607500 -0.00205500
v 0.00610800 -0.01055500 -0.00205500
v 0.00432000 -0.00745900 -0.00781500
v -0.00001200 -0.01312600 0.00898500
v 0.00530300 -0.00916100 0.02626600
v 0.00919500 -0.00527000 0.02626600
v 0.01139500 -0.00654000 0.00898500
v 0.00657300 -0.01136200 0.00898500
v 0.00862100 -0.00858700 -0.00630600
v 0.00689400 -0.01031300 -0.00772500
v 0.01034700 -0.01031300 -0.00772500
v 0.01034700 -0.00686000 -0.00772500
v 0.00689400 -0.00686000 -0.00772500
v 0.01034700 -0.01031300 -0.02697400
v 0.00689400 -0.01031300 -0.02697400
v 0.00965700 -0.00686000 -0.02559300
v 0.00965700 0.00695300 -0.02179400
v 0.00965700 -0.00686000 -0.02179400
v 0.00965700 0.00695300 -0.02559300
v 0.00689400 0.00695300 -0.02559300
v 0.00689400 -0.00686000 -0.02559300
v 0.01034700 -0.00686000 -0.02697400
v 0.00689400 0.00695300 -0.00867100
v 0.00689400 0.00695300 -0.01294000
v 0.00689400 -0.00686000 -0.00867100
v 0.00689400 -0.00686000 -0.02697400
v 0.00965700 0.00695300 -0.00867100
v 0.00965700 -0.00686000 -0.00867100
v 0.00896600 0.00660800 -0.02179400
v 0.00862800 0.00695300 -0.02179400
v 0.00896600 0.00384500 -0.02179400
v 0.00896600 0.00315500 -0.02179400
v 0.00862100 0.00350000 -0.02179400
v 0.00896600 0.00039200 -0.02179400
v 0.00896600 -0.00029900 -0.02179400
v 0.00862100 0.00004700 -0.02179400
v 0.00896600 -0.00306100 -0.02179400
v 0.00896600 -0.00375200 -0.02179400
v 0.00862100 -0.00340700 -0.02179400
v 0.00896600 -0.00651500 -0.02179400
v 0.00882400 -0.00686000 -0.02179400
v 0.00896600 0.00315500 -0.01247000
v 0.00862100 0.00350000 -0.01247000
v 0.00896600 0.00039200 -0.01247000
v 0.00862100 0.00004700 -0.01247000
v 0.00896600 -0.00029900 -0.01247000
v 0.00896600 -0.00306100 -0.01247000
v 0.00862100 -0.00340700 -0.01247000
v 0.00896600 -0.00375200 -0.01247000
v 0.00896600 -0.00651500 -0.01247000
v 0.00882400 -0.00686000 -0.01247000
v 0.00965700 -0.00686000 -0.01247000
v 0.00965700 0.00695300 -0.01247000
v 0.00862800 0.00695300 -0.01247000
v 0.00896600 0.00660800 -0.01247000
v 0.00896600 0.00384500 -0.01247000
v 0.00862100 0.00868000 -0.00630600
v 0.01034700 0.00695300 -0.00772500
v 0.01034700 0.01040600 -0.00772500
v 0.00689400 0.01040600 -0.00772500
v 0.00689400 0.00695300 -0.00772500
v 0.01034700 0.01040600 -0.02697400
v 0.01034700 0.00695300 -0.02697400
v 0.00689400 0.00971600 -0.02559300
v -0.00691900 0.00971600 -0.02179400
v 0.00689400 0.00971600 -0.02179400
v -0.00691900 0.00971600 -0.02559300
v -0.00691900 0.00695300 -0.02559300
v 0.00689400 0.01040600 -0.02697400
v -0.00691900 0.00695300 -0.00867100
v -0.00691900 0.00695300 -0.01294000
v 0.00689400 0.00695300 -0.02697400
v -0.00691900 0.00971600 -0.00867100
v 0.00689400 0.00971600 -0.00867100
v -0.00657400 0.00902500 -0.02179400
v -0.00691900 0.00868800 -0.02179400
v -0.00381200 0.00902500 -0.02179400
v -0.00312100 0.00902500 -0.02179400
v -0.00346600 0.00868000 -0.02179400
v -0.00035800 0.00902500 -0.02179400
v 0.00033200 0.00902500 -0.02179400
v -0.00001200 0.00868000 -0.02179400
v 0.00309500 0.00902500 -0.02179400
v 0.00378600 0.00902500 -0.02179400
v 0.00344100 0.00868000 -0.02179400
v 0.00654800 0.00902500 -0.02179400
v 0.00689400 0.00888300 -0.02179400
v -0.00312100 0.00902500 -0.01247000
v -0.00346600 0.00868000 -0.01247000
v -0.00035800 0.00902500 -0.01247000
v -0.00001200 0.00868000 -0.01247000
v 0.00033200 0.00902500 -0.01247000
v 0.00309500 0.00902500 -0.01247000
v 0.00344100 0.00868000 -0.01247000
v 0.00378600 0.00902500 -0.01247000
v 0.00654800 0.00902500 -0.01247000
v 0.00689400 0.00888300 -0.01247000
v 0.00689400 0.00971600 -0.01247000
v -0.00691900 0.00971600 -0.01247000
v -0.00691900 0.00868800 -0.01247000
v -0.00657400 0.00902500 -0.01247000
v -0.00381200 0.00902500 -0.01247000
v -0.00864600 -0.00858700 -0.00630600
v -0.01037300 -0.00686000 -0.00772500
v -0.01037300 -0.01031300 -0.00772500
v -0.00691900 -0.01031300 -0.00772500
v -0.00691900 -0.00686000 -0.00772500
v -0.01037300 -0.01031300 -0.02697400
v -0.01037300 -0.00686000 -0.02697400
v -0.00691900 -0.00962300 -0.02559300
v 0.00689400 -0.00962300 -0.02179400
v -0.00691900 -0.00962300 -0.02179400
v 0.00689400 -0.00962300 -0.02559300
v -0.00691900 -0.00686000 -0.02559300
v -0.00691900 -0.01031300 -0.02697400
v 0.00689400 -0.00686000 -0.01294000
v -0.00691900 -0.00686000 -0.00867100
v -0.00691900 -0.00686000 -0.02697400
v 0.00689400 -0.00962300 -0.00867100
v -0.00691900 -0.00962300 -0.00867100
v 0.00654800 -0.00893200 -0.02179400
v 0.00689400 -0.00859400 -0.02179400
v 0.00378600 -0.00893200 -0.02179400
v 0.00309500 -0.00893200 -0.02179400
v 0.00344100 -0.00858700 -0.02179400
v 0.00033200 -0.00893200 -0.02179400
v -0.00035800 -0.00893200 -0.02179400
v -0.00001200 -0.00858700 -0.02179400
v -0.00312100 -0.00893200 -0.02179400
v -0.00381200 -0.00893200 -0.02179400
v -0.00346600 -0.00858700 -0.02179400
v -0.00657400 -0.00893200 -0.02179400
v -0.00691900 -0.00879000 -0.02179400
v 0.00309500 -0.00893200 -0.01247000
v 0.00344100 -0.00858700 -0.01247000
v 0.00033200 -0.00893200 -0.01247000
v -0.00001200 -0.00858700 -0.01247000
v -0.00035800 -0.00893200 -0.01247000
v -0.00312100 -0.00893200 -0.01247000
v -0.00346600 -0.00858700 -0.01247000
v -0.00381200 -0.00893200 -0.01247000
v -0.00657400 -0.00893200 -0.01247000
v -0.00691900 -0.00879000 -0.01247000
v -0.00691900 -0.00962300 -0.01247000
v 0.00689400 -0.00962300 -0.01247000
v 0.00689400 -0.00859400 -0.01247000
v 0.00654800 -0.00893200 -0.01247000
v 0.00378600 -0.00893200 -0.01247000
v -0.00864600 0.00868000 -0.00630600
v -0.00691900 0.01040600 -0.00772500
v -0.01037300 0.01040600 -0.00772500
v -0.01037300 0.00695300 -0.00772500
v -0.00691900 0.00695300 -0.00772500
v -0.01037300 0.01040600 -0.02697400
v -0.00691900 0.01040600 -0.02697400
v -0.00968300 0.00695300 -0.02559300
v -0.00968300 -0.00686000 -0.02179400
v -0.00968300 0.00695300 -0.02179400
v -0.00968300 -0.00686000 -0.02559300
v -0.01037300 0.00695300 -0.02697400
v -0.00691900 -0.00686000 -0.01294000
v -0.00691900 0.00695300 -0.02697400
v -0.00968300 -0.00686000 -0.00867100
v -0.00968300 0.00695300 -0.00867100
v -0.00899200 -0.00651500 -0.02179400
v -0.00865400 -0.00686000 -0.02179400
v -0.00899200 -0.00375200 -0.02179400
v -0.00899200 -0.00306100 -0.02179400
v -0.00864600 -0.00340700 -0.02179400
v -0.00899200 -0.00029900 -0.02179400
v -0.00899200 0.00039200 -0.02179400
v -0.00864600 0.00004700 -0.02179400
v -0.00899200 0.00315500 -0.02179400
v -0.00899200 0.00384500 -0.02179400
v -0.00864600 0.00350000 -0.02179400
v -0.00899200 0.00660800 -0.02179400
v -0.00885000 0.00695300 -0.02179400
v -0.00899200 -0.00306100 -0.01247000
v -0.00864600 -0.00340700 -0.01247000
v -0.00899200 -0.00029900 -0.01247000
v -0.00864600 0.00004700 -0.01247000
v -0.00899200 0.00039200 -0.01247000
v -0.00899200 0.00315500 -0.01247000
v -0.00864600 0.00350000 -0.01247000
v -0.00899200 0.00384500 -0.01247000
v -0.00899200 0.00660800 -0.01247000
v -0.00885000 0.00695300 -0.01247000
v -0.00968300 0.00695300 -0.01247000
v -0.00968300 -0.00686000 -0.01247000
v -0.00865400 -0.00686000 -0.01247000
v -0.00899200 -0.00651500 -0.01247000
v -0.00899200 -0.00375200 -0.01247000
v -0.00001200 0.00004700 -0.01294000
vn 0.00001253 0.00000552 1.00000000
vn -0.49940331 -0.86553058 0.03812003
vn 0.00032343 -0.99927374 0.03810369
vn -0.86567963 -0.49914445 0.03812608
vn 0.49942261 -0.86552054 0.03809524
vn -0.99927378 0.00010751 0.03810369
vn 0.86512934 -0.50009980 0.03809745
vn -0.86562737 0.49923571 0.03811783
vn 0.99927378 0.00010811 0.03810369
vn -0.49975306 0.86532932 0.03810572
vn 0.86507667 0.50019153 0.03808917
vn 0.00032434 0.99927374 0.03810369
vn 0.49977315 0.86531881 0.03808091
vn 0.00006529 0.00001657 1.00000000
vn -0.47249849 0.81843075 0.32698056
vn -0.81843474 0.47249941 0.32696925
vn -0.42483001 0.73575554 -0.52743080
vn -0.82518502 0.47643113 -0.30345189
vn -0.47641114 0.82518999 -0.30346977
vn -0.73578386 0.42481379 -0.52740435
vn -0.94502364 0.00003173 0.32700201
vn 0.00010450 0.94504560 0.32693852
vn -0.48861467 0.84636184 0.21196070
vn -0.84632833 0.48866796 0.21197167
vn 0.00010368 0.84962763 -0.52738304
vn 0.00006233 0.95285262 -0.30343348
vn -0.95284206 0.00002573 -0.30346666
vn -0.84958547 0.00002692 -0.52745098
vn -0.86561949 0.49978062 0.03036825
vn -0.49971124 0.86565878 0.03039013
vn -0.97727522 0.00002567 0.21197438
vn -0.81840196 -0.47254031 0.32699217
vn 0.47254018 0.81841844 0.32695111
vn 0.00004028 0.97727531 0.21197398
vn 0.00003524 0.99953847 0.03037853
vn 0.42484066 0.73578144 -0.52738609
vn 0.47642279 0.82517970 -0.30347947
vn -0.73579459 -0.42478096 -0.52741582
vn -0.82517358 -0.47645688 -0.30344258
vn -0.99953916 0.00002934 0.03035583
vn -0.84633725 -0.48864674 0.21198497
vn -0.47251509 -0.81841787 0.32698882
vn 0.81845023 0.47249190 0.32694133
vn 0.48865140 0.84633740 0.21197362
vn 0.49974667 0.86563906 0.03036907
vn 0.82518502 0.47643113 -0.30345189
vn 0.73578005 0.42486920 -0.52736504
vn -0.47641377 -0.82519791 -0.30344410
vn -0.42474328 -0.73583060 -0.52739594
vn -0.86561954 -0.49978128 0.03035590
vn -0.48861335 -0.84635630 0.21198587
vn 0.00008679 -0.94503139 0.32697961
vn 0.94504387 0.00003173 0.32694356
vn 0.84633437 0.48866258 0.21195994
vn 0.86561949 0.49978062 0.03036825
vn 0.95284880 0.00002573 -0.30344548
vn 0.84965156 0.00002695 -0.52734450
vn 0.00002560 -0.95284211 -0.30346649
vn 0.00008284 -0.84959939 -0.52742855
vn -0.49971108 -0.86566092 0.03033174
vn 0.00005871 -0.97727267 0.21198617
vn 0.47258897 -0.81838752 0.32695799
vn 0.81841477 -0.47255316 0.32694154
vn 0.97727522 0.00002567 0.21197438
vn 0.99953916 0.00002934 0.03035583
vn 0.73578988 -0.42484834 -0.52736812
vn 0.82517102 -0.47645902 -0.30344619
vn 0.47645553 -0.82515998 -0.30348168
vn 0.42477889 -0.73583655 -0.52735896
vn 0.00002811 -0.99953886 0.03036552
vn 0.48864406 -0.84634293 0.21196848
vn 0.84633725 -0.48864674 0.21198497
vn 0.86561954 -0.49978128 0.03035590
vn 0.49975183 -0.86563615 0.03036708
vn 0.00012327 -0.00012327 0.99999998
vn -0.64147141 -0.64144644 0.42078605
vn 0.64147235 -0.64147235 0.42074512
vn 0.64144644 0.64147141 0.42078605
vn -0.64144551 0.64144551 0.42082696
vn 0.70710678 -0.70710678 0.00000000
vn -0.70710678 -0.70710678 0.00000000
vn 0.30151134 0.90453403 -0.30151134
vn 0.70710678 0.00000000 0.70710678
vn 0.57735027 0.57735027 0.57735027
vn 0.70710678 0.00000000 -0.70710678
vn -0.48507125 -0.72760688 -0.48507125
vn -0.72760688 0.48507125 -0.48507125
vn 0.70710678 0.70710678 0.00000000
vn -0.48507125 -0.72760688 0.48507125
vn -0.89442719 0.00000000 0.44721360
vn -0.72760688 0.48507125 0.48507125
vn -0.70710678 0.70710678 0.00000000
vn 0.70710678 0.00000000 0.70710678
vn 0.30151134 0.90453403 0.30151134
vn 0.55197084 0.22532707 0.80284239
vn 0.63723227 0.62430291 0.45186382
vn 0.54913285 -0.22745828 0.80418645
vn 0.54913285 0.22745828 0.80418645
vn 0.81649658 -0.00000000 0.57735027
vn 0.54913285 -0.22745828 0.80418645
vn 0.54953459 0.22715896 0.80399660
vn 0.81644252 -0.00059077 0.57742641
vn 0.54953459 -0.22715896 0.80399660
vn 0.54913285 0.22745828 0.80418645
vn 0.81644252 0.00059077 0.57742641
vn 0.64497080 -0.12754261 0.75348892
vn 0.68860396 0.46122578 0.55954925
vn 0.54913285 0.22745828 -0.80418645
vn 0.81649658 0.00000000 -0.57735027
vn 0.54913285 -0.22745828 -0.80418645
vn 0.81644252 -0.00059077 -0.57742641
vn 0.54953459 0.22715896 -0.80399660
vn 0.54953459 -0.22715896 -0.80399660
vn 0.81644252 0.00059077 -0.57742641
vn 0.54913285 0.22745828 -0.80418645
vn 0.64497080 -0.12754261 -0.75348892
vn 0.68860396 0.46122578 -0.55954925
vn 0.57735027 0.57735027 -0.57735027
vn 0.70710678 0.00000000 -0.70710678
vn 0.63723227 0.62430291 -0.45186382
vn 0.55197084 0.22532707 -0.80284239
vn 0.54913285 -0.22745828 -0.80418645
vn 0.00012327 0.00012327 0.99999998
vn 0.64144644 -0.64147141 0.42078605
vn 0.64147235 0.64147235 0.42074512
vn -0.64147141 0.64144644 0.42078605
vn -0.64144551 -0.64144551 0.42082696
vn 0.70710678 0.70710678 0.00000000
vn 0.70710678 -0.70710678 0.00000000
vn -0.90453403 0.30151134 -0.30151134
vn 0.00000000 0.70710678 0.70710678
vn -0.57735027 0.57735027 0.57735027
vn 0.00000000 0.70710678 -0.70710678
vn 0.72760688 -0.48507125 -0.48507125
vn -0.70710678 0.70710678 0.00000000
vn 0.72760688 -0.48507125 0.48507125
vn 0.00000000 -0.89442719 0.44721360
vn -0.70710678 -0.70710678 0.00000000
vn 0.00000000 0.70710678 0.70710678
vn -0.90453403 0.30151134 0.30151134
vn -0.22501685 0.55237963 0.80264822
vn -0.62312139 0.63791359 0.45253285
vn 0.22715896 0.54953459 0.80399660
vn -0.22745828 0.54913285 0.80418645
vn -0.00059077 0.81644252 0.57742641
vn 0.22715896 0.54953459 0.80399660
vn -0.22775792 0.54872962 0.80437686
vn -0.00118333 0.81649588 0.57735005
vn 0.22715896 0.54953459 0.80399660
vn -0.22745828 0.54913285 0.80418645
vn -0.00059077 0.81644252 0.57742641
vn 0.12724248 0.64517794 0.75336232
vn -0.46156128 0.68834708 0.55958867
vn -0.22745828 0.54913285 -0.80418645
vn -0.00059077 0.81644252 -0.57742641
vn 0.22715896 0.54953459 -0.80399660
vn -0.00118333 0.81649588 -0.57735005
vn -0.22775792 0.54872962 -0.80437686
vn 0.22715896 0.54953459 -0.80399660
vn -0.00059077 0.81644252 -0.57742641
vn -0.22745828 0.54913285 -0.80418645
vn 0.12724248 0.64517794 -0.75336232
vn -0.46156128 0.68834708 -0.55958867
vn -0.57735027 0.57735027 -0.57735027
vn 0.00000000 0.70710678 -0.70710678
vn -0.62312139 0.63791359 -0.45253285
vn -0.22501685 0.55237963 -0.80264822
vn 0.22715896 0.54953459 -0.80399660
vn 0.00000000 -0.00012328 0.99999999
vn -0.64144551 0.64144551 0.42082696
vn -0.64147141 -0.64144644 0.42078605
vn 0.64147141 -0.64144644 0.42078605
vn 0.64144551 0.64144551 0.42082696
vn -0.70710678 -0.70710678 0.00000000
vn -0.70710678 0.70710678 0.00000000
vn 0.90453403 -0.30151134 -0.30151134
vn 0.00000000 -0.70710678 0.70710678
vn 0.57735027 -0.57735027 0.57735027
vn 0.00000000 -0.70710678 -0.70710678
vn 0.48507125 0.72760688 -0.48507125
vn 0.70710678 -0.70710678 0.00000000
vn 0.00000000 0.89442719 0.44721360
vn 0.48507125 0.72760688 0.48507125
vn 0.70710678 0.70710678 0.00000000
vn 0.00000000 -0.70710678 0.70710678
vn 0.90453403 -0.30151134 0.30151134
vn 0.22502404 -0.55237017 0.80265271
vn 0.62314876 -0.63789784 0.45251737
vn -0.22745828 -0.54913285 0.80418645
vn 0.22715896 -0.54953459 0.80399660
vn -0.00059077 -0.81644252 0.57742641
vn -0.22775792 -0.54872962 0.80437686
vn 0.22715896 -0.54953459 0.80399660
vn -0.00118333 -0.81649588 0.57735005
vn -0.22745828 -0.54913285 0.80418645
vn 0.22715896 -0.54953459 0.80399660
vn -0.00059077 -0.81644252 0.57742641
vn -0.12754261 -0.64497080 0.75348892
vn 0.46122578 -0.68860396 0.55954925
vn 0.22715896 -0.54953459 -0.80399660
vn -0.00059077 -0.81644252 -0.57742641
vn -0.22775792 -0.54872962 -0.80437686
vn -0.00118333 -0.81649588 -0.57735005
vn 0.22715896 -0.54953459 -0.80399660
vn -0.22745828 -0.54913285 -0.80418645
vn -0.00059077 -0.81644252 -0.57742641
vn 0.22715896 -0.54953459 -0.80399660
vn -0.12754261 -0.64497080 -0.75348892
vn 0.46122578 -0.68860396 -0.55954925
vn 0.57735027 -0.57735027 -0.57735027
vn 0.00000000 -0.70710678 -0.70710678
vn 0.62314876 -0.63789784 -0.45251737
vn 0.22502404 -0.55237017 -0.80265271
vn -0.22745828 -0.54913285 -0.80418645
vn 0.00000000 0.00012328 0.99999999
vn 0.64147141 0.64144644 0.42078605
vn -0.64147141 0.64144644 0.42078605
vn -0.64144551 -0.64144551 0.42082696
vn 0.64144551 -0.64144551 0.42082696
vn -0.70710678 0.70710678 0.00000000
vn 0.70710678 0.70710678 0.00000000
vn -0.30151134 -0.90453403 -0.30151134
vn -0.70710678 0.00000000 0.70710678
vn -0.57735027 -0.57735027 0.57735027
vn -0.70710678 0.00000000 -0.70710678
vn -0.70710678 -0.70710678 0.00000000
vn 0.89442719 0.00000000 0.44721360
vn 0.70710678 -0.70710678 0.00000000
vn -0.70710678 0.00000000 0.70710678
vn -0.30151134 -0.90453403 0.30151134
vn -0.55197084 -0.22532707 0.80284239
vn -0.63723227 -0.62430291 0.45186382
vn -0.54873079 0.22775705 0.80437631
vn -0.54913285 -0.22745828 0.80418645
vn -0.81655015 0.00059085 0.57727421
vn -0.54913285 0.22745828 0.80418645
vn -0.54873079 -0.22775705 0.80437631
vn -0.81655015 -0.00059085 0.57727421
vn -0.54873079 0.22775705 0.80437631
vn -0.54873079 -0.22775705 0.80437631
vn -0.81660407 -0.00000000 0.57719822
vn -0.64497080 0.12754261 0.75348892
vn -0.68860396 -0.46122578 0.55954925
vn -0.54913285 -0.22745828 -0.80418645
vn -0.81655015 0.00059085 -0.57727421
vn -0.54913285 0.22745828 -0.80418645
vn -0.81655015 -0.00059085 -0.57727421
vn -0.54873079 -0.22775705 -0.80437631
vn -0.54873079 0.22775705 -0.80437631
vn -0.81660407 -0.00000000 -0.57719822
vn -0.54873079 -0.22775705 -0.80437631
vn -0.64497080 0.12754261 -0.75348892
vn -0.68860396 -0.46122578 -0.55954925
vn -0.57735027 -0.57735027 -0.57735027
vn -0.70710678 0.00000000 -0.70710678
vn -0.63723227 -0.62430291 -0.45186382
vn -0.55197084 -0.22532707 -0.80284239
vn -0.54873079 0.22775705 -0.80437631
vn 0.00000000 0.00000000 1.00000000
f 1//1 2//2 3//3
f 1//1 4//4 2//2
f 1//1 3//3 5//5
f 6//6 4//4 1//1
f 1//1 5//5 7//7
f 8//8 6//6 1//1
f 1//1 7//7 9//9
f 10//10 8//8 1//1
f 11//11 1//1 9//9
f 1//1 12//12 10//10
f 13//13 1//1 11//11
f 1//1 13//13 12//12
f 14//14 15//15 16//16
f 17//17 18//18 19//19
f 18//18 17//17 20//20
f 16//16 21//21 14//14
f 14//14 22//22 15//15
f 23//23 16//16 15//15
f 16//16 23//23 24//24
f 25//25 19//19 26//26
f 19//19 25//25 17//17
f 20//20 27//27 18//18
f 27//27 20//20 28//28
f 19//19 29//29 30//30
f 29//29 19//19 18//18
f 24//24 21//21 16//16
f 21//21 24//24 31//31
f 14//14 21//21 32//32
f 14//14 33//33 22//22
f 34//34 15//15 22//22
f 15//15 34//34 23//23
f 29//29 23//23 30//30
f 23//23 29//29 24//24
f 26//26 30//30 35//35
f 30//30 26//26 19//19
f 36//36 26//26 37//37
f 26//26 36//36 25//25
f 38//38 27//27 28//28
f 27//27 38//38 39//39
f 27//27 29//29 18//18
f 29//29 27//27 40//40
f 29//29 31//31 24//24
f 31//31 29//29 40//40
f 31//31 32//32 21//21
f 32//32 31//31 41//41
f 14//14 32//32 42//42
f 33//33 14//14 43//43
f 44//44 22//22 33//33
f 22//22 44//44 34//34
f 35//35 23//23 34//34
f 23//23 35//35 30//30
f 37//37 35//35 45//45
f 35//35 37//37 26//26
f 46//46 36//36 37//37
f 36//36 46//46 47//47
f 38//38 48//48 39//39
f 48//48 38//38 49//49
f 39//39 40//40 27//27
f 40//40 39//39 50//50
f 40//40 41//41 31//31
f 41//41 40//40 50//50
f 41//41 42//42 32//32
f 42//42 41//41 51//51
f 14//14 42//42 52//52
f 43//43 14//14 53//53
f 33//33 54//54 44//44
f 54//54 33//33 43//43
f 45//45 34//34 44//44
f 34//34 45//45 35//35
f 55//55 37//37 45//45
f 37//37 55//55 46//46
f 56//56 47//47 46//46
f 47//47 56//56 57//57
f 49//49 58//58 48//48
f 58//58 49//49 59//59
f 48//48 50//50 39//39
f 50//50 48//48 60//60
f 50//50 51//51 41//41
f 51//51 50//50 60//60
f 51//51 52//52 42//42
f 52//52 51//51 61//61
f 14//14 52//52 62//62
f 14//14 63//63 53//53
f 53//53 54//54 43//43
f 54//54 53//53 64//64
f 44//44 55//55 45//45
f 55//55 44//44 54//54
f 55//55 56//56 46//46
f 56//56 55//55 65//65
f 56//56 66//66 57//57
f 66//66 56//56 67//67
f 59//59 68//68 58//58
f 68//68 59//59 69//69
f 48//48 70//70 60//60
f 70//70 48//48 58//58
f 60//60 61//61 51//51
f 61//61 60//60 70//70
f 61//61 62//62 52//52
f 62//62 61//61 71//71
f 14//14 62//62 63//63
f 63//63 64//64 53//53
f 64//64 63//63 72//72
f 64//64 55//55 54//54
f 55//55 64//64 65//65
f 65//65 67//67 56//56
f 67//67 65//65 73//73
f 67//67 69//69 66//66
f 69//69 67//67 68//68
f 58//58 74//74 70//70
f 74//74 58//58 68//68
f 70//70 71//71 61//61
f 71//71 70//70 74//74
f 62//62 72//72 63//63
f 72//72 62//62 71//71
f 72//72 65//65 64//64
f 65//65 72//72 73//73
f 73//73 68//68 67//67
f 68//68 73//73 74//74
f 71//71 73//73 72//72
f 73//73 71//71 74//74
f 75//75 76//76 77//77
f 78//78 75//75 77//77
f 79//79 76//76 75//75
f 80//80 76//76 81//81
f 76//76 80//80 77//77
f 82//82 83//83 84//84
f 83//83 82//82 85//85
f 82//82 86//86 85//85
f 86//86 82//82 87//87
f 80//80 78//78 77//77
f 78//78 80//80 88//88
f 79//79 75//75 78//78
f 89//89 90//90 91//91
f 91//91 76//76 79//79
f 90//90 76//76 91//91
f 86//86 76//76 90//90
f 87//87 76//76 86//86
f 92//92 76//76 87//87
f 76//76 92//92 81//81
f 91//91 93//93 89//89
f 93//93 91//91 94//94
f 95//95 83//83 96//96
f 97//97 83//83 95//95
f 98//98 97//97 99//99
f 98//98 83//83 97//97
f 100//100 83//83 98//98
f 101//101 100//100 102//102
f 101//101 83//83 100//100
f 103//103 83//83 101//101
f 104//104 103//103 105//105
f 104//104 83//83 103//103
f 106//106 83//83 104//104
f 106//106 84//84 83//83
f 84//84 106//106 107//107
f 108//108 99//99 109//109
f 99//99 108//108 98//98
f 100//100 108//108 110//110
f 108//108 100//100 98//98
f 100//100 111//111 102//102
f 111//111 100//100 110//110
f 112//112 102//102 111//111
f 102//102 112//112 101//101
f 103//103 112//112 113//113
f 112//112 103//103 101//101
f 103//103 114//114 105//105
f 114//114 103//103 113//113
f 115//115 105//105 114//114
f 105//105 115//115 104//104
f 106//106 115//115 116//116
f 115//115 106//106 104//104
f 107//107 116//116 117//117
f 116//116 107//107 106//106
f 79//79 94//94 91//91
f 94//94 84//84 118//118
f 94//94 82//82 84//84
f 94//94 78//78 82//82
f 78//78 94//94 79//79
f 118//118 107//107 117//117
f 107//107 118//118 84//84
f 82//82 92//92 87//87
f 82//82 88//88 92//92
f 88//88 82//82 78//78
f 118//118 93//93 94//94
f 93//93 118//118 119//119
f 95//95 120//120 121//121
f 120//120 95//95 96//96
f 97//97 121//121 122//122
f 121//121 97//97 95//95
f 97//97 109//109 99//99
f 109//109 97//97 122//122
f 119//119 121//121 120//120
f 119//119 122//122 121//121
f 122//122 108//108 109//109
f 119//119 108//108 122//122
f 119//119 110//110 108//108
f 110//110 112//112 111//111
f 119//119 112//112 110//110
f 119//119 113//113 112//112
f 113//113 115//115 114//114
f 119//119 115//115 113//113
f 119//119 116//116 115//115
f 118//118 116//116 119//119
f 116//116 118//118 117//117
f 123//123 124//124 125//125
f 126//126 123//123 125//125
f 127//127 124//124 123//123
f 128//128 124//124 129//129
f 124//124 128//128 125//125
f 130//130 131//131 132//132
f 131//131 130//130 133//133
f 130//130 134//134 133//133
f 134//134 130//130 86//86
f 128//128 126//126 125//125
f 126//126 128//128 135//135
f 127//127 123//123 126//126
f 136//136 137//137 89//89
f 89//89 124//124 127//127
f 137//137 124//124 89//89
f 134//134 124//124 137//137
f 86//86 124//124 134//134
f 138//138 124//124 86//86
f 124//124 138//138 129//129
f 89//89 139//139 136//136
f 139//139 89//89 140//140
f 141//141 131//131 142//142
f 143//143 131//131 141//141
f 144//144 143//143 145//145
f 144//144 131//131 143//143
f 146//146 131//131 144//144
f 147//147 146//146 148//148
f 147//147 131//131 146//146
f 149//149 131//131 147//147
f 150//150 149//149 151//151
f 150//150 131//131 149//149
f 152//152 131//131 150//150
f 152//152 132//132 131//131
f 132//132 152//152 153//153
f 154//154 145//145 155//155
f 145//145 154//154 144//144
f 146//146 154//154 156//156
f 154//154 146//146 144//144
f 146//146 157//157 148//148
f 157//157 146//146 156//156
f 158//158 148//148 157//157
f 148//148 158//158 147//147
f 149//149 158//158 159//159
f 158//158 149//149 147//147
f 149//149 160//160 151//151
f 160//160 149//149 159//159
f 161//161 151//151 160//160
f 151//151 161//161 150//150
f 152//152 161//161 162//162
f 161//161 152//152 150//150
f 153//153 162//162 163//163
f 162//162 153//153 152//152
f 127//127 140//140 89//89
f 140//140 132//132 164//164
f 140//140 130//130 132//132
f 140//140 126//126 130//130
f 126//126 140//140 127//127
f 164//164 153//153 163//163
f 153//153 164//164 132//132
f 130//130 138//138 86//86
f 130//130 135//135 138//138
f 135//135 130//130 126//126
f 164//164 139//139 140//140
f 139//139 164//164 165//165
f 141//141 166//166 167//167
f 166//166 141//141 142//142
f 143//143 167//167 168//168
f 167//167 143//143 141//141
f 143//143 155//155 145//145
f 155//155 143//143 168//168
f 165//165 167//167 166//166
f 165//165 168//168 167//167
f 168//168 154//154 155//155
f 165//165 154//154 168//168
f 165//165 156//156 154//154
f 156//156 158//158 157//157
f 165//165 158//158 156//156
f 165//165 159//159 158//158
f 159//159 161//161 160//160
f 165//165 161//161 159//159
f 165//165 162//162 161//161
f 164//164 162//162 165//165
f 162//162 164//164 163//163
f 169//169 170//170 171//171
f 172//172 169//169 171//171
f 173//173 170//170 169//169
f 174//174 170//170 175//175
f 170//170 174//174 171//171
f 176//176 177//177 178//178
f 177//177 176//176 179//179
f 176//176 87//87 179//179
f 87//87 176//176 180//180
f 174//174 172//172 171//171
f 172//172 174//174 181//181
f 173//173 169//169 172//172
f 91//91 182//182 183//183
f 183//183 170//170 173//173
f 182//182 170//170 183//183
f 87//87 170//170 182//182
f 180//180 170//170 87//87
f 184//184 170//170 180//180
f 170//170 184//184 175//175
f 183//183 185//185 91//91
f 185//185 183//183 186//186
f 187//187 177//177 188//188
f 189//189 177//177 187//187
f 190//190 189//189 191//191
f 190//190 177//177 189//189
f 192//192 177//177 190//190
f 193//193 192//192 194//194
f 193//193 177//177 192//192
f 195//195 177//177 193//193
f 196//196 195//195 197//197
f 196//196 177//177 195//195
f 198//198 177//177 196//196
f 198//198 178//178 177//177
f 178//178 198//198 199//199
f 200//200 191//191 201//201
f 191//191 200//200 190//190
f 192//192 200//200 202//202
f 200//200 192//192 190//190
f 192//192 203//203 194//194
f 203//203 192//192 202//202
f 204//204 194//194 203//203
f 194//194 204//204 193//193
f 195//195 204//204 205//205
f 204//204 195//195 193//193
f 195//195 206//206 197//197
f 206//206 195//195 205//205
f 207//207 197//197 206//206
f 197//197 207//207 196//196
f 198//198 207//207 208//208
f 207//207 198//198 196//196
f 199//199 208//208 209//209
f 208//208 199//199 198//198
f 173//173 186//186 183//183
f 186//186 178//178 210//210
f 186//186 176//176 178//178
f 186//186 172//172 176//176
f 172//172 186//186 173//173
f 210//210 199//199 209//209
f 199//199 210//210 178//178
f 176//176 184//184 180//180
f 176//176 181//181 184//184
f 181//181 176//176 172//172
f 210//210 185//185 186//186
f 185//185 210//210 211//211
f 187//187 212//212 213//213
f 212//212 187//187 188//188
f 189//189 213//213 214//214
f 213//213 189//189 187//187
f 189//189 201//201 191//191
f 201//201 189//189 214//214
f 211//211 213//213 212//212
f 211//211 214//214 213//213
f 214//214 200//200 201//201
f 211//211 200//200 214//214
f 211//211 202//202 200//200
f 202//202 204//204 203//203
f 211//211 204//204 202//202
f 211//211 205//205 204//204
f 205//205 207//207 206//206
f 211//211 207//207 205//205
f 211//211 208//208 207//207
f 210//210 208//208 211//211
f 208//208 210//210 209//209
f 215//215 216//216 217//217
f 218//218 215//215 217//217
f 219//219 216//216 215//215
f 220//220 216//216 221//221
f 216//216 220//220 217//217
f 222//222 223//223 224//224
f 223//223 222//222 225//225
f 222//222 180//180 225//225
f 180//180 222//222 134//134
f 220//220 218//218 217//217
f 218//218 220//220 226//226
f 219//219 215//215 218//218
f 183//183 227//227 136//136
f 136//136 216//216 219//219
f 227//227 216//216 136//136
f 180//180 216//216 227//227
f 134//134 216//216 180//180
f 228//228 216//216 134//134
f 216//216 228//228 221//221
f 136//136 229//229 183//183
f 229//229 136//136 230//230
f 231//231 223//223 232//232
f 233//233 223//223 231//231
f 234//234 233//233 235//235
f 234//234 223//223 233//233
f 236//236 223//223 234//234
f 237//237 236//236 238//238
f 237//237 223//223 236//236
f 239//239 223//223 237//237
f 240//240 239//239 241//241
f 240//240 223//223 239//239
f 242//242 223//223 240//240
f 242//242 224//224 223//223
f 224//224 242//242 243//243
f 244//244 235//235 245//245
f 235//235 244//244 234//234
f 236//236 244//244 246//246
f 244//244 236//236 234//234
f 236//236 247//247 238//238
f 247//247 236//236 246//246
f 248//248 238//238 247//247
f 238//238 248//248 237//237
f 239//239 248//248 249//249
f 248//248 239//239 237//237
f 239//239 250//250 241//241
f 250//250 239//239 249//249
f 251//251 241//241 250//250
f 241//241 251//251 240//240
f 242//242 251//251 252//252
f 251//251 242//242 240//240
f 243//243 252//252 253//253
f 252//252 243//243 242//242
f 219//219 230//230 136//136
f 230//230 224//224 254//254
f 230//230 222//222 224//224
f 230//230 218//218 222//222
f 218//218 230//230 219//219
f 254//254 243//243 253//253
f 243//243 254//254 224//224
f 222//222 228//228 134//134
f 222//222 226//226 228//228
f 226//226 222//222 218//218
f 254//254 229//229 230//230
f 229//229 254//254 255//255
f 231//231 256//256 257//257
f 256//256 231//231 232//232
f 233//233 257//257 258//258
f 257//257 233//233 231//231
f 233//233 245//245 235//235
f 245//245 233//233 258//258
f 255//255 257//257 256//256
f 255//255 258//258 257//257
f 258//258 244//244 245//245
f 255//255 244//244 258//258
f 255//255 246//246 244//244
f 246//246 248//248 247//247
f 255//255 248//248 246//246
f 255//255 249//249 248//248
f 249//249 251//251 250//250
f 255//255 251//251 249//249
f 255//255 252//252 251//251
f 254//254 252//252 255//255
f 252//252 254//254 253//253
f 90//90 259//259 182//182
f 137//137 259//259 90//90
f 182//182 259//259 227//227
f 227//227 259//259 137//137