# https://github.com/mikedh/trimesh
v 0.06803800 -0.02570200 -0.01386500
v 0.06165000 -0.03246200 -0.01001500
v 0.06443200 -0.03359300 -0.01386500
v 0.06536100 -0.02433900 -0.01001500
v 0.07064900 -0.02703500 -0.01777100
v 0.06714900 -0.03469400 -0.01777100
v 0.07319400 -0.02833700 -0.02173000
v 0.06980000 -0.03576600 -0.02173000
v 0.08490200 -0.03437300 -0.04228100
v 0.07972100 -0.03974800 -0.03807500
v 0.08202700 -0.04066600 -0.04228100
v 0.08269900 -0.03323000 -0.03807500
v 0.08703500 -0.03548100 -0.04653200
v 0.08426100 -0.04155200 -0.04653200
v 0.08909500 -0.03655700 -0.05082700
v 0.08642300 -0.04240600 -0.05082700
v 0.09108400 -0.03759800 -0.05516400
v 0.08851200 -0.04322800 -0.05516400
v 0.09299900 -0.03860500 -0.05954200
v 0.09052700 -0.04401700 -0.05954200
v 0.09649000 -0.04659500 -0.05954200
v 0.09885200 -0.04142500 -0.05954200
v 0.07404300 -0.03812500 0.00622400
v 0.07775500 -0.03000100 0.00622400
v 0.07567300 -0.02960900 -0.02574200
v 0.07238400 -0.03680800 -0.02574200
v 0.07808400 -0.03084800 -0.02980400
v 0.08042600 -0.03205600 -0.03391500
v 0.07734500 -0.03879900 -0.03391500
v 0.07489900 -0.03781900 -0.02980400
v 0.07773800 -0.02999400 0.00620100
v 0.00674700 0.00244100 0.00621200
v 0.00674700 0.00244100 0.00622400
v -0.00459900 0.00762500 0.00621400
v -0.00459900 0.00762500 0.00622400
v -0.00113200 0.00604100 0.00622400
v -0.06533400 0.03537400 0.00622400
v 0.05181100 -0.02796700 -0.00914700
v 0.05552200 -0.01984300 -0.00914700
v 0.01236900 -0.00994700 -0.00725200
v 0.02223800 -0.01445600 -0.00748900
v 0.01608100 -0.00182300 -0.00725200
v 0.02595000 -0.00633200 -0.00748900
v 0.00249900 -0.00543700 -0.00717300
v 0.00595900 0.00213600 -0.00717300
v 0.00674700 0.00244100 -0.00717700
v -0.00488500 -0.00206300 -0.00723200
v -0.00488500 -0.00206300 -0.00027100
v 0.00674700 0.00244100 -0.00027200
v -0.01623100 0.00312000 -0.00027200
v -0.00459900 0.00762500 -0.00027200
v -0.01623100 0.00312000 -0.00746500
v -0.00459900 0.00762500 -0.00727500
v -0.01724000 0.00358100 -0.00748900
v -0.01352900 0.01170500 -0.00748900
v -0.01864800 0.00422400 -0.00754500
v -0.01493600 0.01234800 -0.00754500
v -0.02710500 0.00808800 -0.00788400
v -0.02339300 0.01621200 -0.00788400
v -0.03696300 0.01259200 -0.00843600
v -0.03325100 0.02071600 -0.00843600
v -0.04681300 0.01709200 -0.00914700
v -0.04310100 0.02521600 -0.00914700
v -0.05662900 0.02157800 -0.01001300
v -0.05291800 0.02970100 -0.01001300
v -0.05665200 0.02158800 -0.01001500
v -0.05294100 0.02971100 -0.01001500
v -0.06904500 0.02725000 0.00622400
v 0.04196100 -0.02346700 -0.00843600
v 0.04567200 -0.01534300 -0.00843600
v 0.03581400 -0.01083900 -0.00788400
v 0.03210300 -0.01896300 -0.00788400
v 0.08183300 0.04109500 0.00622400
v 0.08470400 0.03262900 0.00621200
v 0.08505200 0.03276400 0.00621200
v -0.08284300 -0.03225100 0.00622400
v -0.07256800 -0.02827300 -0.01286000
v -0.08606800 -0.02392300 0.00622400
v -0.07579300 -0.01994400 -0.01286000
v -0.07578200 -0.01994000 -0.01285900
v -0.07255700 -0.02826900 -0.01286000
v -0.06352500 -0.01519400 -0.01186600
v -0.06030000 -0.02352200 -0.01186700
v -0.05125600 -0.01044300 -0.01105300
v -0.05849200 -0.02282200 -0.01174700
v -0.04803100 -0.01877100 -0.01105400
v -0.03897800 -0.00568800 -0.01042100
v -0.03575300 -0.01401700 -0.01042200
v -0.02669300 -0.00093100 -0.00997000
v -0.02346800 -0.00926000 -0.00997000
v -0.01440300 0.00382800 -0.00969800
v -0.01117900 -0.00450100 -0.00969900
v -0.00211200 0.00858800 -0.00960800
v 0.00111300 0.00025900 -0.00960900
v 0.01018000 0.01334800 -0.00969800
v 0.01340500 0.00501900 -0.00969900
v 0.02247000 0.01810700 -0.00997000
v 0.02569500 0.00977800 -0.00997000
v 0.03475500 0.02286400 -0.01042100
v 0.03798000 0.01453600 -0.01042200
v 0.04703300 0.02761900 -0.01105300
v 0.05025800 0.01929000 -0.01105400
v 0.05930100 0.03237000 -0.01186600
v 0.06252600 0.02404100 -0.01186700
v 0.07155900 0.03711600 -0.01285900
v 0.07427700 0.03009700 -0.01285900
v 0.07478300 0.02879100 -0.01286000
v 0.07361700 0.03180200 -0.01285900
v 0.07466100 0.02910500 -0.01286000
v -0.00488500 -0.00206300 -0.00027200
v -0.00488500 -0.00206300 0.00622400
v -0.01623100 0.00312000 0.00622400
v -0.10780300 -0.03408200 -0.05953800
v -0.10575000 -0.03938100 -0.05954100
v -0.10180700 -0.03157700 -0.05954200
v -0.09963200 -0.03719500 -0.05954100
v -0.09806300 -0.03669000 -0.05603600
v -0.10152300 -0.03144800 -0.05887800
v -0.09778200 -0.03660000 -0.05540800
v -0.10152300 -0.03144800 -0.05887400
v -0.10003900 -0.03077100 -0.05540800
v -0.09585500 -0.03597700 -0.05131200
v -0.09819600 -0.02993400 -0.05131300
v -0.09385400 -0.03532700 -0.04725800
v -0.09627800 -0.02906600 -0.04725800
v -0.09177700 -0.03464900 -0.04324600
v -0.09428600 -0.02816800 -0.04324600
v -0.08962600 -0.03394400 -0.03927800
v -0.09222200 -0.02724100 -0.03927800
v -0.08740100 -0.03321200 -0.03535500
v -0.09008500 -0.02628400 -0.03535500
v -0.08510500 -0.03245400 -0.03148000
v -0.08787600 -0.02529700 -0.03148000
v -0.08273700 -0.03166900 -0.02765300
v -0.08559700 -0.02428200 -0.02765300
v -0.08029800 -0.03085800 -0.02387600
v -0.08324800 -0.02324000 -0.02387600
v -0.07779000 -0.03002200 -0.02015000
v -0.08083100 -0.02216800 -0.02015000
v -0.07521300 -0.02916000 -0.01647800
v -0.07834600 -0.02107000 -0.01647800
v -0.08606800 -0.02392300 0.00622800
v 0.10679200 0.04292900 -0.05953800
v 0.10473900 0.04822900 -0.05954100
v 0.10079600 0.04042400 -0.05954200
v 0.09862100 0.04604200 -0.05954100
v 0.09705200 0.04553700 -0.05603600
v 0.10051200 0.04029500 -0.05887800
v 0.09677100 0.04544700 -0.05540800
v 0.10051200 0.04029500 -0.05887400
v 0.09902800 0.03961800 -0.05540800
v 0.09484500 0.04482400 -0.05131200
v 0.09718500 0.03878100 -0.05131300
v 0.09284300 0.04417400 -0.04725800
v 0.09526800 0.03791300 -0.04725800
v 0.09076600 0.04349600 -0.04324600
v 0.09327600 0.03701500 -0.04324600
v 0.08861500 0.04279100 -0.03927800
v 0.09121100 0.03608700 -0.03927800
v 0.08639100 0.04205900 -0.03535500
v 0.08907400 0.03513000 -0.03535500
v 0.08409400 0.04130000 -0.03148000
v 0.08686600 0.03414400 -0.03148000
v 0.08172600 0.04051500 -0.02765300
v 0.08458700 0.03312900 -0.02765300
v 0.07928700 0.03970400 -0.02387600
v 0.08223800 0.03208600 -0.02387600
v 0.07677900 0.03886800 -0.02015000
v 0.07982000 0.03101500 -0.02015000
v 0.07420200 0.03800600 -0.01647800
v 0.07733500 0.02991600 -0.01647800
v 0.08183200 0.04109800 0.00622400
v 0.07155800 0.03711900 -0.01286000
v 0.08505800 0.03277000 0.00622800
v 0.08505700 0.03277000 0.00622400
v 0.12708000 0.05022900 0.01190700
v 0.12652500 0.05140400 0.00622400
v 0.12652500 0.05627600 0.01190700
v 0.12708000 0.04535700 0.00622400
v 0.13570300 -0.04376500 0.01190700
v 0.13530600 -0.04431200 0.00622400
v 0.13482400 -0.03906200 0.00622400
v 0.13619700 -0.04913700 0.01190700
v -0.08460200 0.05268900 0.00622400
v -0.09242200 0.05317400 0.01190700
v -0.08460200 0.05756100 0.01190700
v -0.09242200 0.04830200 0.00622400
v -0.13473100 -0.04540000 0.00622400
v -0.13485400 -0.04495400 0.01190700
v -0.13458400 -0.04014300 0.00622400
v -0.13500000 -0.05021200 0.01190700
v -0.05932800 0.02295100 -0.01386500
v -0.05572300 0.03084200 -0.01386500
v -0.06194000 0.02428400 -0.01777100
v -0.05844000 0.03194300 -0.01777100
v -0.06448500 0.02558700 -0.02173000
v -0.06109100 0.03301500 -0.02173000
v -0.07619300 0.03162200 -0.04228100
v -0.07101200 0.03699800 -0.03807500
v -0.07331800 0.03791500 -0.04228100
v -0.07399000 0.03048000 -0.03807500
v -0.07832500 0.03273100 -0.04653200
v -0.07555200 0.03880100 -0.04653200
v -0.08038600 0.03380600 -0.05082700
v -0.07771400 0.03965500 -0.05082700
v -0.08237500 0.03484700 -0.05516400
v -0.07980200 0.04047700 -0.05516400
v -0.08429000 0.03585400 -0.05954200
v -0.08181700 0.04126600 -0.05954200
v -0.08778100 0.04384400 -0.05954200
v -0.09014300 0.03867400 -0.05954200
v -0.06696300 0.02685800 -0.02574200
v -0.06367400 0.03405700 -0.02574200
v -0.06937400 0.02809700 -0.02980400
v -0.07171700 0.02930500 -0.03391500
v -0.06863600 0.03604800 -0.03391500
v -0.06619000 0.03506800 -0.02980400
v 0.12711800 0.04980800 0.01190700
v 0.12711800 0.04493600 0.00622400
v -0.13275200 0.03054700 0.01190700
v -0.13275200 0.02567500 0.00622400
v -0.09309900 0.05279400 0.01190700
v -0.09309900 0.04792200 0.00622400
v -0.13664200 -0.05909600 0.01190700
v 0.13801200 0.05881100 0.01190700
v 0.13801200 -0.05909600 0.01190700
v -0.13664200 0.05881100 0.01190700
v -0.13468100 -0.04541200 0.00622400
v -0.13468100 -0.05028300 0.01190700
v -0.13393400 -0.04548300 0.00622400
v -0.13393400 -0.05035400 0.01190700
v -0.13301000 -0.04548300 0.00622400
v -0.13301000 -0.05035400 0.01190700
v -0.13045000 -0.04555400 0.00622400
v -0.13045000 -0.05042600 0.01190700
v -0.12806800 -0.04558900 0.00622400
v -0.12806800 -0.05046100 0.01190700
v -0.12707200 -0.04530500 0.00622400
v -0.12707200 -0.05017700 0.01190700
v -0.12657400 -0.04523400 0.00622400
v -0.12657400 -0.05010600 0.01190700
v -0.11813400 -0.04541900 0.00622400
v -0.11877500 -0.04574000 0.00622400
v -0.11813400 -0.05029100 0.01190700
v -0.11877500 -0.05061200 0.01190700
v -0.11749200 -0.04497800 0.00622400
v -0.11749200 -0.04984900 0.01190700
v -0.11636900 -0.04477700 0.00622400
v -0.11636900 -0.04964900 0.01190700
v -0.11380200 -0.04469700 0.00622400
v -0.11380200 -0.04956900 0.01190700
v -0.11115500 -0.04445600 0.00622400
v -0.11115500 -0.04932800 0.01190700
v -0.10987100 -0.04417600 0.00622400
v -0.10987100 -0.04904700 0.01190700
v -0.10918900 -0.04389500 0.00622400
v -0.10918900 -0.04876600 0.01190700
v -0.10854700 -0.04389500 0.00622400
v -0.10854700 -0.04876600 0.01190700
v -0.10790600 -0.04373400 0.00622400
v -0.10790600 -0.04860600 0.01190700
v -0.10726400 -0.04373400 0.00622400
v -0.10726400 -0.04860600 0.01190700
v -0.10569900 -0.04409600 0.00622400
v -0.10569900 -0.04896700 0.01190700
v -0.10221000 -0.04461700 0.00622400
v -0.10221000 -0.04948800 0.01190700
v -0.10068600 -0.04505800 0.00622400
v -0.10068600 -0.04993000 0.01190700
v -0.10028500 -0.04505800 0.00622400
v -0.10028500 -0.04993000 0.01190700
v -0.09996400 -0.04481800 0.00622400
v -0.09996400 -0.04968900 0.01190700
v -0.09916200 -0.04465700 0.00622400
v -0.09916200 -0.04952900 0.01190700
v -0.09856000 -0.04437600 0.00622400
v -0.09856000 -0.04924800 0.01190700
v -0.09783800 -0.04425600 0.00622400
v -0.09783800 -0.04912800 0.01190700
v -0.09646800 -0.04385600 0.00622400
v -0.09646800 -0.04872700 0.01190700
v -0.09469000 -0.04405000 0.00622400
v -0.09469000 -0.04892100 0.01190700
v -0.09339600 -0.04421100 0.00622400
v -0.09339600 -0.04908300 0.01190700
v -0.09245900 -0.04417900 0.00622400
v -0.09245900 -0.04905100 0.01190700
v -0.09064800 -0.04392000 0.00622400
v -0.09064800 -0.04879200 0.01190700
v -0.08984000 -0.04379100 0.00622400
v -0.08984000 -0.04866200 0.01190700
v -0.08937600 -0.04385200 0.00622400
v -0.08937600 -0.04872300 0.01190700
v -0.08910000 -0.04365000 0.00622400
v -0.08910000 -0.04852200 0.01190700
v -0.08887600 -0.04365000 0.00622400
v -0.08887600 -0.04852200 0.01190700
v -0.08736700 -0.04353900 0.00622400
v -0.08736700 -0.04841000 0.01190700
v -0.08613800 -0.04353900 0.00622400
v -0.08613800 -0.04841000 0.01190700
v -0.08502100 -0.04330900 0.00622400
v -0.08502100 -0.04818000 0.01190700
v -0.08397900 -0.04308500 0.00622400
v -0.08397900 -0.04795700 0.01190700
v -0.08289900 -0.04297300 0.00622400
v -0.08289900 -0.04784500 0.01190700
v -0.08088900 -0.04256400 0.00622400
v -0.08088900 -0.04743500 0.01190700
v -0.07865500 -0.04230300 0.00622400
v -0.07865500 -0.04717500 0.01190700
v -0.07660800 -0.04226600 0.00622400
v -0.07660800 -0.04713800 0.01190700
v -0.07452300 -0.04226600 0.00622400
v -0.07452300 -0.04713800 0.01190700
v -0.07247500 -0.04211700 0.00622400
v -0.07247500 -0.04698900 0.01190700
v -0.07147000 -0.04208000 0.00622400
v -0.07147000 -0.04695200 0.01190700
v -0.07050200 -0.04185700 0.00622400
v -0.07050200 -0.04672800 0.01190700
v -0.06867900 -0.04172800 0.00622400
v -0.06867900 -0.04659900 0.01190700
v -0.06446400 -0.04150000 0.00622400
v -0.06446400 -0.04637100 0.01190700
v -0.06022600 -0.04072900 0.00622400
v -0.06022600 -0.04560100 0.01190700
v -0.05712200 -0.03905000 0.00622400
v -0.05712200 -0.04392100 0.01190700
v -0.04997400 -0.03922900 0.00622400
v -0.04997400 -0.04410000 0.01190700
v -0.04121900 -0.03726300 0.00622400
v -0.04121900 -0.04213500 0.01190700
v -0.02606200 -0.03591300 0.00622400
v -0.02606200 -0.04078500 0.01190700
v -0.01109000 -0.03464800 0.00622400
v -0.01109000 -0.03952000 0.01190700
v -0.00434100 -0.03380500 0.00622400
v -0.00434100 -0.03867600 0.01190700
v 0.00198500 -0.03422600 0.00622400
v 0.00198500 -0.03909800 0.01190700
v 0.01548100 -0.03675700 0.00622400
v 0.01548100 -0.04162800 0.01190700
v 0.02844900 -0.03883300 0.00622400
v 0.02844900 -0.04370500 0.01190700
v 0.03606900 -0.04391300 0.00622400
v 0.03606900 -0.04878400 0.01190700
v 0.04296300 -0.04699700 0.00622400
v 0.04296300 -0.05186900 0.01190700
v 0.04967600 -0.05044400 0.00622400
v 0.04967600 -0.05531600 0.01190700
v 0.05656400 -0.05184000 0.00622400
v 0.05656400 -0.05671200 0.01190700
v 0.05729100 -0.05238000 0.00622400
v 0.05729100 -0.05725100 0.01190700
v 0.05762100 -0.05259000 0.00622400
v 0.05762100 -0.05746200 0.01190700
v 0.05777100 -0.05785200 0.01190700
v 0.05777100 -0.05298100 0.00622400
v 0.05816200 -0.05322100 0.00622400
v 0.05816200 -0.05809200 0.01190700
v 0.05870200 -0.05325100 0.00622400
v 0.05870200 -0.05812200 0.01190700
v 0.05978300 -0.05331100 0.00622400
v 0.05978300 -0.05818200 0.01190700
v 0.06020400 -0.05325100 0.00622400
v 0.06020400 -0.05812200 0.01190700
v 0.06056400 -0.05310000 0.00622400
v 0.06056400 -0.05797200 0.01190700
v 0.06122500 -0.05256000 0.00622400
v 0.06122500 -0.05743200 0.01190700
v 0.06137500 -0.05710100 0.01190700
v 0.06137500 -0.05223000 0.00622400
v 0.06170500 -0.05204900 0.00622400
v 0.06170500 -0.05692100 0.01190700
v 0.06226800 -0.05184000 0.00622400
v 0.06226800 -0.05671200 0.01190700
v 0.06416900 -0.05096300 0.00622400
v 0.06416900 -0.05583400 0.01190700
v 0.06811800 -0.04803800 0.00622400
v 0.06811800 -0.05290900 0.01190700
v 0.07250500 -0.04789200 0.00622400
v 0.07250500 -0.05276300 0.01190700
v 0.09071200 -0.04792500 0.00622400
v 0.09071200 -0.05279600 0.01190700
v 0.09220500 -0.04800000 0.00622400
v 0.09220500 -0.05287100 0.01190700
v 0.09332600 -0.04755100 0.00622400
v 0.09332600 -0.05242300 0.01190700
v 0.09631300 -0.04717800 0.00622400
v 0.09631300 -0.05205000 0.01190700
v 0.10198900 -0.04680500 0.00622400
v 0.10198900 -0.05167600 0.01190700
v 0.10818800 -0.04643100 0.00622400
v 0.10818800 -0.05130300 0.01190700
v 0.11341500 -0.04650600 0.00622400
v 0.11341500 -0.05137800 0.01190700
v 0.11983800 -0.04546100 0.00622400
v 0.11983800 -0.05033200 0.01190700
v 0.12536500 -0.04553500 0.00622400
v 0.12536500 -0.05040700 0.01190700
v 0.13044300 -0.04456400 0.00622400
v 0.13044300 -0.04943600 0.01190700
v 0.10299800 0.05145200 0.00622400
v 0.10299800 0.05632300 0.01190700
v 0.08975400 0.05145200 0.00622400
v 0.08975400 0.05632300 0.01190700
v 0.07941100 0.05183000 0.00622400
v 0.07941100 0.05670200 0.01190700
v 0.07222100 0.05132500 0.00622400
v 0.07222100 0.05619700 0.01190700
v 0.06515700 0.05183000 0.00622400
v 0.06515700 0.05670200 0.01190700
v 0.05203900 0.05208200 0.00622400
v 0.05203900 0.05695400 0.01190700
v 0.02528400 0.05272600 0.00622400
v 0.02528400 0.05759800 0.01190700
v 0.02136200 0.05310000 0.00622400
v 0.02136200 0.05797100 0.01190700
v 0.01772100 0.05254000 0.00622400
v 0.01772100 0.05741100 0.01190700
v 0.01090500 0.05244600 0.00622400
v 0.01090500 0.05731800 0.01190700
v 0.00381000 0.05263300 0.00622400
v 0.00381000 0.05750500 0.01190700
v -0.00440600 0.05216600 0.00622400
v -0.00440600 0.05703800 0.01190700
v -0.01915800 0.05142000 0.00622400
v -0.01915800 0.05629100 0.01190700
v -0.02270600 0.05113900 0.00622400
v -0.02270600 0.05601100 0.01190700
v -0.02429300 0.05113900 0.00622400
v -0.02429300 0.05601100 0.01190700
v -0.02606800 0.05057900 0.00622400
v -0.02606800 0.05545100 0.01190700
v -0.02980200 0.05011200 0.00622400
v -0.02980200 0.05498400 0.01190700
v -0.03293200 0.04988900 0.00622400
v -0.03293200 0.05476000 0.01190700
v -0.03796600 0.04957100 0.00622400
v -0.03796600 0.05444200 0.01190700
v -0.04262900 0.04962400 0.00622400
v -0.04262900 0.05449500 0.01190700
v -0.05201900 0.04886500 0.00622400
v -0.05201900 0.05373600 0.01190700
v -0.05280800 0.04885600 0.00622400
v -0.05280800 0.05372800 0.01190700
v -0.05307600 0.04885600 0.00622400
v -0.05307600 0.05372800 0.01190700
v -0.05336200 0.04882100 0.00622400
v -0.05336200 0.05369300 0.01190700
v -0.05405500 0.04872100 0.00622400
v -0.05405500 0.05359300 0.01190700
v -0.05461900 0.04871700 0.00622400
v -0.05461900 0.05358900 0.01190700
v -0.06130000 0.04867000 0.00622400
v -0.06130000 0.05354200 0.01190700
v -0.06518400 0.04861800 0.00622400
v -0.06518400 0.05349000 0.01190700
v -0.06707300 0.04898500 0.00622400
v -0.06707300 0.05385700 0.01190700
v -0.06843800 0.04956300 0.00622400
v -0.06843800 0.05443400 0.01190700
v -0.06943500 0.04956300 0.00622400
v -0.06943500 0.05443400 0.01190700
v -0.07148200 0.05003500 0.00622400
v -0.07148200 0.05490700 0.01190700
v -0.07342400 0.05019300 0.00622400
v -0.07342400 0.05506400 0.01190700
v -0.07730800 0.05077000 0.00622400
v -0.07730800 0.05564100 0.01190700
v -0.07914400 0.05082200 0.00622400
v -0.07914400 0.05569400 0.01190700
v -0.08113900 0.05113700 0.00622400
v -0.08113900 0.05600900 0.01190700
v -0.08318600 0.05150500 0.00622400
v -0.08318600 0.05637600 0.01190700
v -0.08413000 0.05181900 0.00622400
v -0.08413000 0.05669100 0.01190700
v -0.08449800 0.05213400 0.00622400
v -0.08449800 0.05700600 0.01190700
v -0.12582800 -0.04555400 0.00622400
v -0.12582800 -0.05042600 0.01190700
v -0.12213000 -0.04566100 0.00622400
v -0.12213000 -0.05053200 0.01190700
v -0.12518800 -0.04566100 0.00622400
v -0.12422800 -0.04566100 0.00622400
v -0.12518800 -0.05053200 0.01190700
v -0.12422800 -0.05053200 0.01190700
vn 0.00000000 0.00000000 0.00000000
vn -0.00000000 0.00000000 -0.00000000
vn 0.00000000 -0.00000000 0.00000000
vn 0.00000000 0.00000000 -0.00000000
vn 0.00000000 -0.00000000 0.00000000
vn -0.00000000 -0.00000000 0.00000000
vn 0.00000000 0.00000000 -0.00000000
vn 0.00000000 0.00000000 0.00000000
vn -0.00000000 -0.00000000 -0.00000000
vn 0.00000000 0.00000000 0.00000000
vn 0.00000000 0.00000000 0.00000000
vn 0.00000000 0.00000000 -0.00000000
vn 0.00000000 0.00000000 -0.00000000
vn 0.00000000 -0.00000000 0.00000000
vn 0.00000000 0.00000000 -0.00000000
vn 0.00000000 0.00000000 0.00000000
vn -0.00000000 -0.00000000 0.00000000
vn 0.00000000 -0.00000000 0.00000000
vn 0.00000000 0.00000000 -0.00000000
vn 0.00000000 0.00000000 -0.00000000
vn -0.00000000 -0.00000000 -0.00000000
vn -0.00000000 0.00000000 -0.00000000
vn -0.00000000 0.00000000 0.00000000
vn 0.41819010 0.90835762 0.00186470
vn -0.00000000 -0.00000000 -0.00000000
vn 0.00000000 0.00000000 0.00000000
vn -0.00000000 -0.00000000 0.00000000
vn 0.00000000 0.00000000 -0.00000000
vn -0.00000000 -0.00000000 0.00000000
vn -0.00000000 -0.00000000 0.00000000
vn -0.25380082 -0.96019703 0.11664818
vn 0.11986237 -0.17705592 0.97687472
vn -0.02928519 -0.06392934 0.99752465
vn 0.41594227 0.90939102 0.00000000
vn 0.23567258 -0.97179337 -0.00872202
vn 0.00000000 0.00000000 -1.00000000
vn -0.41554146 -0.90957409 0.00052767
vn -0.00000000 -0.00000000 -0.00000000
vn -0.00000000 -0.00000000 -0.00000000
vn 0.00000000 0.00000000 0.00000000
vn 0.00000000 0.00000000 -0.00000000
vn 0.00000000 0.00000000 0.00000000
vn -0.00000000 0.00000000 0.00000000
vn -0.00000000 -0.00000000 0.00000000
vn 0.00000000 0.00000000 0.00000000
vn -0.00000000 -0.00000000 -0.00000000
vn -0.00000000 0.00000000 0.00000000
vn -0.00000000 -0.00000000 0.00000000
vn -0.00000000 -0.00000000 -0.00000000
vn -0.00000000 0.00000000 0.00000000
vn -0.00000000 -0.00000000 0.00000000
vn 0.00000000 0.00000000 -0.00000000
vn -0.00000000 -0.00000000 0.00000000
vn 0.00000000 0.00000000 0.00000000
vn 0.00000000 0.00000000 0.00000000
vn 0.00000000 0.00000000 0.00000000
vn 0.00000000 0.00000000 -0.00000000
vn -0.00000000 -0.00000000 -0.00000000
vn 0.00000000 0.00000000 0.00000000
vn -0.00000000 -0.00000000 0.00000000
vn -0.00000000 -0.00000000 -0.00000000
vn 0.00000000 0.00000000 0.00000000
vn -0.00000000 -0.00000000 -0.00000000
vn 0.38154323 0.90728348 0.17680910
vn 0.00000000 -0.00000000 -0.00000000
vn -0.38082434 -0.90844690 -0.17232833
vn 0.00000000 0.00000000 0.00000000
vn -0.00000000 -0.00000000 0.00000000
vn 0.00000000 0.00000000 0.00000000
vn -0.00000000 0.00000000 -0.00000000
vn -0.00000000 -0.00000000 0.00000000
vn -0.00000000 -0.00000000 -0.00000000
vn -0.36130409 0.93244179 -0.00341341
vn -0.08753325 0.22604392 -0.97017631
vn -0.00000000 -0.00000000 0.00000000
vn -0.99699173 -0.07648878 0.01252834
vn -0.33192483 0.92023297 0.20735764
vn 0.32059498 0.94717338 0.00902479
vn 0.28718867 -0.88462494 0.36737090
vn 0.00000000 0.00000000 -0.00000000
vn 0.33378327 -0.91809670 -0.21374559
vn 0.00000000 -0.00000000 0.00000000
vn 0.00000000 0.00000000 -0.00000000
vn 0.00000000 0.00000000 -0.00000000
vn -0.00000000 0.00000000 0.00000000
vn 0.00000000 -0.00000000 -0.00000000
vn -0.00000000 0.00000000 -0.00000000
vn 0.00000000 0.00000000 -0.00000000
vn -0.00000000 -0.00000000 0.00000000
vn -0.00000000 0.00000000 0.00000000
vn -0.00000000 0.00000000 0.00000000
vn -0.00000000 0.00000000 -0.00000000
vn -0.00000000 0.00000000 -0.00000000
vn -0.00000000 0.00000000 0.00000000
vn 0.00000000 -0.00000000 -0.00000000
vn -0.00000000 0.00000000 0.00000000
vn -0.00000000 0.00000000 0.00000000
vn -0.00000000 0.00000000 -0.00000000
vn -0.00000000 0.00000000 -0.00000000
vn -0.00000000 0.00000000 0.00000000
vn 0.00000000 0.00000000 0.00000000
vn 0.00000000 -0.00000000 -0.00000000
vn 0.00000000 -0.00000000 -0.00000000
vn 0.00000000 -0.00000000 0.00000000
vn 0.00000000 0.00000000 -0.00000000
vn 0.00096399 0.00038158 0.99999946
vn 0.57401210 0.22715750 -0.78670806
vn -0.00004014 -0.00002007 -1.00000000
vn -0.57625923 -0.22343385 0.78613142
vn 0.00000000 -0.00000000 0.00000000
vn -0.00000000 0.00000000 0.00000000
vn 0.00000000 -0.00000000 -0.00000000
vn 0.00000000 -0.00000000 -0.00000000
vn 0.00000000 0.00000000 -0.00000000
vn -0.00000000 0.00000000 -0.00000000
vn -0.00000000 0.00000000 0.00000000
vn -0.00000000 -0.00000000 0.00000000
vn 0.39056718 -0.92057309 -0.00156630
vn 0.00000000 -0.00000000 -0.00000000
vn -0.38410314 0.92329019 -0.00009017
vn 0.00000000 0.00000000 -0.00000000
vn 0.00000000 -0.00000000 -0.00000000
vn -0.00000000 0.00000000 -0.00000000
vn 0.00000000 -0.00000000 -0.00000000
vn 0.00000000 -0.00000000 0.00000000
vn 0.00000000 -0.00000000 0.00000000
vn 0.00000000 -0.00000000 -0.00000000
vn 0.00000000 -0.00000000 -0.00000000
vn -0.00000000 0.00000000 -0.00000000
vn 0.00000000 -0.00000000 -0.00000000
vn 0.00000000 -0.00000000 -0.00000000
vn 0.00000000 -0.00000000 -0.00000000
vn 0.00000000 -0.00000000 -0.00000000
vn 0.00000000 -0.00000000 0.00000000
vn 0.00000000 -0.00000000 0.00000000
vn 0.00000000 -0.00000000 -0.00000000
vn -0.00000000 -0.00000000 0.00000000
vn 0.00000000 -0.00000000 0.00000000
vn 0.00000000 0.00000000 -0.00000000
vn 0.00000000 0.00000000 0.00000000
vn -0.00000000 0.00000000 -0.00000000
vn 0.00000000 0.00000000 0.00000000
vn 0.00000000 0.00000000 0.00000000
vn 0.00000000 -0.00000000 -0.00000000
vn 0.00000000 -0.00000000 -0.00000000
vn 0.00000000 0.00000000 0.00000000
vn 0.00000000 0.00000000 0.00000000
vn -0.39056718 0.92057309 -0.00156630
vn -0.00000000 0.00000000 -0.00000000
vn 0.38526295 -0.92280652 -0.00076754
vn 0.00000000 -0.00000000 0.00000000
vn -0.00000000 0.00000000 0.00000000
vn -0.00000000 0.00000000 -0.00000000
vn -0.00000000 0.00000000 -0.00000000
vn 0.00000000 -0.00000000 -0.00000000
vn -0.00000000 0.00000000 -0.00000000
vn -0.00000000 0.00000000 0.00000000
vn -0.00000000 0.00000000 -0.00000000
vn 0.00000000 -0.00000000 -0.00000000
vn -0.00000000 0.00000000 -0.00000000
vn 0.00000000 -0.00000000 0.00000000
vn -0.00000000 0.00000000 0.00000000
vn 0.00000000 -0.00000000 -0.00000000
vn -0.00000000 0.00000000 0.00000000
vn 0.00000000 -0.00000000 -0.00000000
vn -0.00000000 0.00000000 -0.00000000
vn -0.00000000 0.00000000 0.00000000
vn -0.00000000 0.00000000 0.00000000
vn -0.00000000 0.00000000 -0.00000000
vn -0.00000000 0.00000000 -0.00000000
vn -0.00000000 0.00000000 0.00000000
vn 0.93338373 0.27892785 -0.22581865
vn -0.00000000 -0.00000000 0.00000000
vn 0.00000000 0.00000000 0.00000000
vn -0.90780082 -0.35307242 0.22635710
vn 0.00000000 0.00000000 -0.00000000
vn 0.00000000 -0.00000000 0.00000000
vn -0.00000000 0.00000000 -0.00000000
vn 0.00000000 0.00000000 -0.00000000
vn 0.00000000 0.00000000 -0.00000000
vn 0.00000000 0.00000000 -0.00000000
vn -0.00000000 -0.00000000 0.00000000
vn 0.00000000 -0.00000000 -0.00000000
vn 0.00000000 0.00000000 0.00000000
vn -0.00001385 0.00001385 1.00000000
vn -0.00000000 -0.00000000 0.00000000
vn 0.00000000 -0.00000000 0.00000000
vn -0.00000000 -0.00000000 -0.00000000
vn -0.00000000 0.00000000 -0.00000000
vn -0.00000000 0.00000000 0.00000000
vn 0.00000000 0.00000000 0.00000000
vn -0.00000000 -0.00000000 -0.00000000
vn 0.00000000 0.00000000 0.00000000
vn -0.00000000 0.00000000 -0.00000000
vn 0.00000000 0.00000000 -0.00000000
vn 0.00000000 0.00000000 0.00000000
vn 0.00000000 0.00000000 0.00000000
vn -0.00000000 -0.00000000 0.00000000
vn -0.00000000 -0.00000000 -0.00000000
vn -0.00000000 -0.00000000 -0.00000000
vn 0.00000000 0.00000000 -0.00000000
vn 0.00000000 0.00000000 -0.00000000
vn 0.00000000 0.00000000 0.00000000
vn -0.00000000 -0.00000000 0.00000000
vn -0.00000000 -0.00000000 0.00000000
vn -0.00000000 0.00000000 0.00000000
vn 0.00000000 -0.00000000 -0.00000000
vn -0.00000000 -0.00000000 0.00000000
vn -0.00000000 0.00000000 -0.00000000
vn 0.00000000 0.00000000 -0.00000000
vn 0.00000000 0.00000000 -0.00000000
vn 0.00000000 0.00000000 -0.00000000
vn 0.00000000 0.00000000 0.00000000
vn -0.00000000 -0.00000000 -0.00000000
vn 0.00000000 0.00000000 -0.00000000
vn 0.00000000 0.00000000 0.00000000
vn 0.00000000 0.00000000 0.00000000
vn -0.00000000 -0.00000000 0.00000000
vn 0.00000000 0.00000000 -0.00000000
vn 0.00000000 -0.00000000 0.00000000
vn -0.00000000 0.00000000 -0.00000000
vn 0.00000000 0.00000000 -1.00000000
vn -0.00000000 0.00000000 -0.00000000
vn 0.00000000 0.00000000 0.00000000
vn 0.00000000 0.00000000 0.00000000
vn 0.00000000 0.00000000 0.00000000
vn 0.00000000 0.00000000 0.00000000
vn 0.00000000 0.00000000 0.00000000
vn -0.00000000 -0.00000000 -0.00000000
vn 0.00000000 -0.00000000 -0.00000000
vn -0.00000000 0.00000000 0.00000000
vn -0.00000000 0.00000000 0.00000000
vn 0.00000000 -0.00000000 -0.00000000
vn 0.00000000 0.00000000 0.00000000
vn -0.00000000 -0.00000000 -0.00000000
vn 0.00000000 0.00000000 -0.00000000
vn 0.00000000 -0.00000000 -0.00000000
vn 0.00000000 -0.00000000 0.00000000
vn -0.00000000 0.00000000 0.00000000
vn 0.00000000 0.00000000 0.00000000
vn -0.00000000 -0.00000000 -0.00000000
vn -0.00000000 0.00000000 -0.00000000
vn -0.00000000 0.00000000 0.00000000
vn 0.00000000 -0.00000000 -0.00000000
vn 0.00000000 -0.00000000 -0.00000000
vn 0.00000000 -0.00000000 0.00000000
vn -0.00000000 0.00000000 0.00000000
vn 0.00000000 -0.00000000 -0.00000000
vn -0.00000000 0.00000000 0.00000000
vn -0.00000000 0.00000000 -0.00000000
vn 0.00000000 -0.00000000 -0.00000000
vn 0.00000000 -0.00000000 -0.00000000
vn -0.00000000 0.00000000 0.00000000
vn -0.00000000 0.00000000 -0.00000000
vn 0.00000000 -0.00000000 -0.00000000
vn 0.00000000 0.00000000 0.00000000
vn -0.00000000 -0.00000000 0.00000000
vn 0.00000000 -0.00000000 -0.00000000
vn -0.00000000 0.00000000 0.00000000
vn -0.00000000 0.00000000 0.00000000
vn 0.00000000 -0.00000000 -0.00000000
vn -0.00000000 0.00000000 0.00000000
vn 0.00000000 -0.00000000 -0.00000000
vn -0.00000000 -0.00000000 -0.00000000
vn 0.00000000 0.00000000 0.00000000
vn -0.00000000 -0.00000000 -0.00000000
vn 0.00000000 0.00000000 0.00000000
vn 0.00000000 -0.00000000 -0.00000000
vn -0.00000000 0.00000000 0.00000000
vn 0.00000000 0.00000000 -0.00000000
vn -0.00000000 -0.00000000 -0.00000000
vn 0.00000000 -0.00000000 0.00000000
vn -0.00000000 0.00000000 0.00000000
vn -0.00000000 0.00000000 0.00000000
vn 0.00000000 -0.00000000 -0.00000000
vn 0.00000000 -0.00000000 -0.00000000
vn -0.00000000 0.00000000 0.00000000
vn -0.00000000 0.00000000 0.00000000
vn 0.00000000 -0.00000000 -0.00000000
vn -0.00000000 -0.00000000 0.00000000
vn 0.00000000 0.00000000 0.00000000
vn 0.00000000 0.00000000 0.00000000
vn -0.00000000 -0.00000000 -0.00000000
vn 0.00000000 0.00000000 -0.00000000
vn -0.00000000 -0.00000000 -0.00000000
vn -0.00000000 -0.00000000 -0.00000000
vn 0.00000000 0.00000000 0.00000000
vn 0.00000000 -0.00000000 -0.00000000
vn -0.00000000 0.00000000 0.00000000
vn -0.00000000 -0.00000000 -0.00000000
vn 0.00000000 0.00000000 0.00000000
vn 0.00000000 0.00000000 0.00000000
vn -0.00000000 -0.00000000 -0.00000000
vn -0.00000000 -0.00000000 0.00000000
vn 0.00000000 0.00000000 0.00000000
vn 0.00000000 0.00000000 -0.00000000
vn 0.00000000 -0.00000000 -0.00000000
vn 0.00000000 -0.00000000 0.00000000
vn -0.00000000 0.00000000 0.00000000
vn 0.00000000 -0.00000000 0.00000000
vn -0.00000000 0.00000000 0.00000000
vn 0.00000000 -0.00000000 -0.00000000
vn 0.00000000 0.00000000 -0.00000000
vn -0.00000000 -0.00000000 0.00000000
vn 0.00000000 0.00000000 0.00000000
vn -0.00000000 0.00000000 -0.00000000
vn 0.00000000 -0.00000000 -0.00000000
vn -0.00000000 0.00000000 0.00000000
vn -0.00000000 0.00000000 0.00000000
vn -0.00000000 0.00000000 0.00000000
vn 0.00000000 -0.00000000 -0.00000000
vn -0.00000000 0.00000000 0.00000000
vn 0.00000000 -0.00000000 0.00000000
vn 0.00000000 -0.00000000 -0.00000000
vn -0.00000000 0.00000000 0.00000000
vn -0.00000000 0.00000000 0.00000000
vn 0.00000000 0.00000000 0.00000000
vn 0.00000000 0.00000000 -0.00000000
vn -0.00000000 0.00000000 0.00000000
vn -0.00000000 0.00000000 -0.00000000
vn 0.00000000 -0.00000000 -0.00000000
vn 0.00000000 -0.00000000 -0.00000000
vn -0.00000000 0.00000000 0.00000000
vn 0.00000000 -0.00000000 0.00000000
vn -0.00000000 -0.00000000 0.00000000
vn -0.00000000 0.00000000 0.00000000
vn 0.00000000 -0.00000000 -0.00000000
vn 0.00000000 -0.00000000 -0.00000000
vn -0.00000000 0.00000000 0.00000000
vn 0.00000000 0.00000000 -0.00000000
vn 0.00000000 0.00000000 0.00000000
vn -0.00000000 0.00000000 0.00000000
vn 0.00000000 -0.00000000 0.00000000
vn 0.00000000 -0.00000000 0.00000000
vn -0.00000000 0.00000000 0.00000000
vn -0.00000000 0.00000000 0.00000000
vn 0.00000000 -0.00000000 -0.00000000
vn -0.00000000 0.00000000 -0.00000000
vn 0.00000000 0.00000000 0.00000000
vn -0.00000000 -0.00000000 -0.00000000
vn 0.00000000 0.00000000 0.00000000
vn 0.00000000 0.00000000 0.00000000
vn -0.00000000 -0.00000000 -0.00000000
vn -0.00000000 -0.00000000 -0.00000000
vn 0.00000000 0.00000000 0.00000000
vn 0.00000000 0.00000000 -0.00000000
vn -0.00000000 -0.00000000 -0.00000000
vn 0.00000000 0.00000000 0.00000000
vn -0.00000000 -0.00000000 -0.00000000
vn -0.00000000 0.00000000 0.00000000
vn -0.00000000 -0.00000000 -0.00000000
vn -0.00000000 -0.00000000 -0.00000000
vn 0.00000000 0.00000000 0.00000000
vn -0.00000000 -0.00000000 -0.00000000
vn 0.00000000 0.00000000 0.00000000
vn 0.00000000 0.00000000 0.00000000
vn 0.00000000 0.00000000 0.00000000
vn 0.00000000 0.00000000 0.00000000
vn -0.00000000 -0.00000000 -0.00000000
vn 0.00000000 0.00000000 0.00000000
vn -0.00000000 -0.00000000 -0.00000000
vn 0.00000000 0.00000000 0.00000000
vn -0.00000000 -0.00000000 -0.00000000
vn 0.00000000 -0.00000000 0.00000000
vn -0.00000000 0.00000000 0.00000000
vn -0.00000000 0.00000000 0.00000000
vn 0.00000000 -0.00000000 -0.00000000
vn -0.00000000 0.00000000 0.00000000
vn 0.00000000 -0.00000000 -0.00000000
vn -0.00000000 -0.00000000 -0.00000000
vn 0.00000000 0.00000000 -0.00000000
vn 0.00000000 0.00000000 0.00000000
vn -0.00000000 -0.00000000 0.00000000
vn -0.00000000 0.00000000 0.00000000
vn 0.00000000 -0.00000000 -0.00000000
vn 0.00000000 -0.00000000 -0.00000000
vn -0.00000000 0.00000000 0.00000000
vn 0.00000000 0.00000000 -0.00000000
vn -0.00000000 0.00000000 0.00000000
vn -0.00000000 0.00000000 0.00000000
vn 0.00000000 -0.00000000 0.00000000
vn -0.00000000 0.00000000 -0.00000000
vn 0.00000000 -0.00000000 -0.00000000
vn -0.00000000 -0.00000000 0.00000000
vn 0.00000000 0.00000000 0.00000000
vn 0.00000000 -0.00000000 0.00000000
vn -0.00000000 0.00000000 0.00000000
vn 0.00000000 -0.00000000 -0.00000000
vn -0.00000000 0.00000000 0.00000000
vn -0.00000000 0.00000000 -0.00000000
vn 0.00000000 -0.00000000 -0.00000000
vn -0.00000000 0.00000000 0.00000000
vn 0.00000000 -0.00000000 -0.00000000
vn -0.00000000 0.00000000 0.00000000
vn 0.00000000 -0.00000000 -0.00000000
vn 0.00000000 -0.00000000 0.00000000
vn 0.00000000 0.00000000 0.00000000
vn -0.00000000 -0.00000000 -0.00000000
vn 0.00000000 -0.00000000 0.00000000
vn 0.00000000 -0.00000000 -0.00000000
vn -0.00000000 0.00000000 0.00000000
vn -0.00000000 0.00000000 0.00000000
vn 0.00000000 0.00000000 0.00000000
vn -0.00000000 -0.00000000 0.00000000
vn 0.00000000 0.00000000 -0.00000000
vn 0.00000000 0.00000000 0.00000000
vn -0.00000000 -0.00000000 0.00000000
vn -0.00000000 -0.00000000 0.00000000
vn 0.00000000 0.00000000 -0.00000000
vn 0.00000000 -0.00000000 -0.00000000
vn 0.00000000 0.00000000 -0.00000000
vn -0.00000000 0.00000000 0.00000000
vn 0.00000000 0.00000000 0.00000000
vn 0.00000000 -0.00000000 -0.00000000
vn -0.00000000 -0.00000000 0.00000000
vn 0.00000000 0.00000000 0.00000000
vn -0.00000000 -0.00000000 0.00000000
vn -0.00000000 -0.00000000 0.00000000
vn 0.00000000 0.00000000 -0.00000000
vn -0.00000000 0.00000000 -0.00000000
vn 0.00000000 -0.00000000 0.00000000
vn 0.00000000 0.00000000 -0.00000000
vn -0.00000000 0.00000000 0.00000000
vn -0.00000000 -0.00000000 0.00000000
vn 0.00000000 0.00000000 0.00000000
vn 0.00000000 -0.00000000 -0.00000000
vn -0.00000000 0.00000000 -0.00000000
vn -0.00000000 0.00000000 -0.00000000
vn 0.00000000 -0.00000000 0.00000000
vn 0.00000000 0.00000000 -0.00000000
vn -0.00000000 -0.00000000 0.00000000
vn -0.00000000 -0.00000000 0.00000000
vn 0.00000000 0.00000000 -0.00000000
vn 0.00000000 -0.00000000 -0.00000000
vn -0.00000000 0.00000000 -0.00000000
vn 0.00000000 -0.00000000 -0.00000000
vn -0.00000000 0.00000000 0.00000000
vn 0.00000000 -0.00000000 0.00000000
vn -0.00000000 0.00000000 -0.00000000
vn 0.00000000 0.00000000 -0.00000000
vn -0.00000000 -0.00000000 0.00000000
vn 0.00000000 -0.00000000 0.00000000
vn -0.00000000 0.00000000 -0.00000000
vn -0.00000000 0.00000000 0.00000000
vn 0.00000000 -0.00000000 0.00000000
vn 0.00000000 0.00000000 -0.00000000
vn -0.00000000 -0.00000000 0.00000000
vn -0.00000000 -0.00000000 0.00000000
vn 0.00000000 0.00000000 -0.00000000
vn -0.00000000 0.00000000 -0.00000000
vn 0.00000000 -0.00000000 0.00000000
vn 0.00000000 -0.00000000 0.00000000
vn -0.00000000 0.00000000 -0.00000000
vn -0.00000000 0.00000000 -0.00000000
vn 0.00000000 -0.00000000 0.00000000
vn 0.00000000 -0.00000000 0.00000000
vn -0.00000000 0.00000000 -0.00000000
vn 0.00000000 0.00000000 -0.00000000
vn -0.00000000 -0.00000000 0.00000000
vn 0.00000000 -0.00000000 -0.00000000
vn 0.00000000 0.00000000 -0.00000000
vn -0.00000000 0.00000000 0.00000000
vn 0.00000000 -0.00000000 0.00000000
vn 0.00000000 0.00000000 -0.00000000
vn -0.00000000 -0.00000000 0.00000000
vn 0.00000000 0.00000000 -0.00000000
vn 0.00000000 0.00000000 -0.00000000
vn 0.00000000 -0.00000000 0.00000000
vn -0.00000000 0.00000000 -0.00000000
vn -0.00000000 -0.00000000 -0.00000000
vn 0.00000000 0.00000000 -0.00000000
vn 0.00000000 0.00000000 -0.00000000
vn -0.00000000 -0.00000000 0.00000000
vn -0.00000000 -0.00000000 0.00000000
vn 0.00000000 0.00000000 -0.00000000
vn 0.00000000 0.00000000 -0.00000000
vn -0.00000000 -0.00000000 0.00000000
vn 0.00000000 0.00000000 -0.00000000
vn -0.00000000 -0.00000000 0.00000000
vn -0.00000000 -0.00000000 0.00000000
vn 0.00000000 0.00000000 -0.00000000
vn 0.00000000 -0.00000000 -0.00000000
vn -0.00000000 0.00000000 0.00000000
vn -0.00000000 0.00000000 0.00000000
vn 0.00000000 0.00000000 0.00000000
vn -0.00000000 -0.00000000 0.00000000
vn 0.00000000 0.00000000 0.00000000
vn 0.00000000 0.00000000 0.00000000
vn 0.00000000 0.00000000 -0.00000000
f 1//1 2//2 3//3
f 2//2 1//1 4//4
f 5//5 3//3 6//6
f 3//3 5//5 1//1
f 7//7 6//6 8//8
f 6//6 7//7 5//5
f 9//9 10//10 11//11
f 10//10 9//9 12//12
f 13//13 11//11 14//14
f 11//11 13//13 9//9
f 15//15 14//14 16//16
f 14//14 15//15 13//13
f 17//17 16//16 18//18
f 16//16 17//17 15//15
f 19//19 18//18 20//20
f 18//18 19//19 17//17
f 21//21 19//19 20//20
f 19//19 21//21 22//22
f 23//23 22//22 21//21
f 22//22 23//23 24//24
f 25//25 8//8 26//26
f 8//8 25//25 7//7
f 1//1 24//24 4//4
f 5//5 24//24 1//1
f 7//7 24//24 5//5
f 25//25 24//24 7//7
f 27//27 24//24 25//25
f 28//28 24//24 27//27
f 12//12 24//24 28//28
f 9//9 24//24 12//12
f 13//13 24//24 9//9
f 15//15 24//24 13//13
f 17//17 24//24 15//15
f 17//17 22//22 24//24
f 22//22 17//17 19//19
f 12//12 29//29 10//10
f 29//29 12//12 28//28
f 23//23 3//3 2//2
f 23//23 6//6 3//3
f 23//23 8//8 6//6
f 23//23 26//26 8//8
f 23//23 30//30 26//26
f 23//23 29//29 30//30
f 23//23 10//10 29//29
f 23//23 11//11 10//10
f 23//23 14//14 11//11
f 23//23 16//16 14//14
f 23//23 18//18 16//16
f 21//21 18//18 23//23
f 18//18 21//21 20//20
f 27//27 26//26 30//30
f 26//26 27//27 25//25
f 28//28 30//30 29//29
f 30//30 28//28 27//27
f 24//24 2//2 23//23
f 2//2 24//24 4//4
f 23//23 24//24 31//31
f 31//31 24//24 32//32
f 33//33 32//32 24//24
f 32//32 33//33 34//34
f 35//35 34//34 33//33
f 36//36 35//35 33//33
f 34//34 35//35 37//37
f 38//38 2//2 39//39
f 4//4 39//39 2//2
f 40//40 41//41 42//42
f 43//43 42//42 41//41
f 44//44 40//40 45//45
f 46//46 45//45 40//40
f 42//42 46//46 40//40
f 47//47 44//44 45//45
f 47//47 45//45 48//48
f 49//49 48//48 45//45
f 45//45 46//46 49//49
f 50//50 48//48 51//51
f 49//49 51//51 48//48
f 52//52 50//50 53//53
f 51//51 53//53 50//50
f 54//54 52//52 55//55
f 53//53 55//55 52//52
f 56//56 54//54 57//57
f 55//55 57//57 54//54
f 58//58 56//56 59//59
f 57//57 59//59 56//56
f 60//60 58//58 61//61
f 59//59 61//61 58//58
f 62//62 60//60 63//63
f 61//61 63//63 60//60
f 64//64 62//62 65//65
f 63//63 65//65 62//62
f 66//66 64//64 67//67
f 65//65 67//67 64//64
f 66//66 67//67 68//68
f 37//37 68//68 67//67
f 68//68 37//37 23//23
f 35//35 23//23 37//37
f 36//36 23//23 35//35
f 33//33 23//23 36//36
f 24//24 23//23 33//33
f 23//23 31//31 2//2
f 4//4 2//2 31//31
f 69//69 38//38 70//70
f 39//39 70//70 38//38
f 67//67 65//65 37//37
f 63//63 37//37 65//65
f 61//61 37//37 63//63
f 59//59 37//37 61//61
f 57//57 37//37 59//59
f 55//55 37//37 57//57
f 53//53 37//37 55//55
f 51//51 37//37 53//53
f 34//34 37//37 51//51
f 31//31 34//34 51//51
f 32//32 34//34 31//31
f 4//4 31//31 39//39
f 70//70 39//39 31//31
f 71//71 70//70 31//31
f 43//43 71//71 31//31
f 42//42 43//43 31//31
f 46//46 42//42 31//31
f 49//49 46//46 31//31
f 51//51 49//49 31//31
f 41//41 72//72 43//43
f 71//71 43//43 72//72
f 2//2 38//38 23//23
f 69//69 23//23 38//38
f 72//72 23//23 69//69
f 41//41 23//23 72//72
f 40//40 23//23 41//41
f 44//44 23//23 40//40
f 48//48 23//23 44//44
f 66//66 68//68 64//64
f 62//62 64//64 68//68
f 60//60 62//62 68//68
f 58//58 60//60 68//68
f 56//56 58//58 68//68
f 54//54 56//56 68//68
f 52//52 54//54 68//68
f 50//50 52//52 68//68
f 48//48 50//50 68//68
f 23//23 48//48 68//68
f 44//44 47//47 48//48
f 72//72 69//69 71//71
f 70//70 71//71 69//69
f 33//33 34//34 35//35
f 33//33 34//34 35//35
f 35//35 73//73 32//32
f 74//74 32//32 73//73
f 75//75 74//74 73//73
f 76//76 77//77 78//78
f 79//79 78//78 77//77
f 79//79 77//77 80//80
f 81//81 80//80 77//77
f 80//80 81//81 82//82
f 83//83 82//82 81//81
f 82//82 83//83 84//84
f 85//85 84//84 83//83
f 86//86 84//84 85//85
f 84//84 86//86 87//87
f 88//88 87//87 86//86
f 87//87 88//88 89//89
f 90//90 89//89 88//88
f 89//89 90//90 91//91
f 92//92 91//91 90//90
f 91//91 92//92 93//93
f 94//94 93//93 92//92
f 93//93 94//94 95//95
f 96//96 95//95 94//94
f 95//95 96//96 97//97
f 98//98 97//97 96//96
f 97//97 98//98 99//99
f 100//100 99//99 98//98
f 99//99 100//100 101//101
f 102//102 101//101 100//100
f 101//101 102//102 103//103
f 104//104 103//103 102//102
f 103//103 104//104 105//105
f 106//106 105//105 104//104
f 107//107 106//106 104//104
f 108//108 105//105 106//106
f 109//109 106//106 107//107
f 107//107 75//75 109//109
f 106//106 109//109 75//75
f 108//108 106//106 75//75
f 105//105 108//108 75//75
f 73//73 105//105 75//75
f 35//35 34//34 73//73
f 51//51 34//34 49//49
f 32//32 49//49 34//34
f 35//35 32//32 34//34
f 107//107 104//104 75//75
f 102//102 75//75 104//104
f 100//100 75//75 102//102
f 98//98 75//75 100//100
f 96//96 75//75 98//98
f 94//94 75//75 96//96
f 49//49 75//75 94//94
f 32//32 75//75 49//49
f 74//74 75//75 32//32
f 33//33 74//74 32//32
f 77//77 76//76 81//81
f 83//83 81//81 76//76
f 85//85 83//83 76//76
f 86//86 85//85 76//76
f 88//88 86//86 76//76
f 90//90 88//88 76//76
f 92//92 90//90 76//76
f 94//94 92//92 76//76
f 110//110 94//94 76//76
f 49//49 94//94 110//110
f 111//111 110//110 76//76
f 78//78 112//112 76//76
f 111//111 76//76 112//112
f 79//79 80//80 78//78
f 82//82 78//78 80//80
f 84//84 78//78 82//82
f 87//87 78//78 84//84
f 89//89 78//78 87//87
f 91//91 78//78 89//89
f 93//93 78//78 91//91
f 50//50 78//78 93//93
f 51//51 50//50 93//93
f 112//112 78//78 50//50
f 105//105 73//73 103//103
f 101//101 103//103 73//73
f 99//99 101//101 73//73
f 97//97 99//99 73//73
f 95//95 97//97 73//73
f 93//93 95//95 73//73
f 51//51 93//93 73//73
f 34//34 51//51 73//73
f 50//50 51//51 110//110
f 49//49 110//110 51//51
f 50//50 110//110 112//112
f 111//111 112//112 110//110
f 74//74 32//32 33//33
f 113//113 114//114 115//115
f 116//116 115//115 114//114
f 116//116 117//117 115//115
f 118//118 115//115 117//117
f 117//117 119//119 120//120
f 121//121 120//120 119//119
f 119//119 122//122 121//121
f 123//123 121//121 122//122
f 122//122 124//124 123//123
f 125//125 123//123 124//124
f 124//124 126//126 125//125
f 127//127 125//125 126//126
f 126//126 128//128 127//127
f 129//129 127//127 128//128
f 128//128 130//130 129//129
f 131//131 129//129 130//130
f 130//130 132//132 131//131
f 133//133 131//131 132//132
f 132//132 134//134 133//133
f 135//135 133//133 134//134
f 134//134 136//136 135//135
f 137//137 135//135 136//136
f 136//136 138//138 137//137
f 139//139 137//137 138//138
f 138//138 140//140 139//139
f 141//141 139//139 140//140
f 116//116 114//114 117//117
f 76//76 117//117 114//114
f 119//119 117//117 76//76
f 122//122 119//119 76//76
f 124//124 122//122 76//76
f 126//126 124//124 76//76
f 128//128 126//126 76//76
f 130//130 128//128 76//76
f 132//132 130//130 76//76
f 134//134 132//132 76//76
f 136//136 134//134 76//76
f 138//138 136//136 76//76
f 140//140 138//138 76//76
f 77//77 140//140 76//76
f 76//76 142//142 78//78
f 114//114 113//113 76//76
f 78//78 76//76 113//113
f 115//115 118//118 113//113
f 120//120 113//113 118//118
f 78//78 113//113 120//120
f 121//121 78//78 120//120
f 123//123 78//78 121//121
f 125//125 78//78 123//123
f 127//127 78//78 125//125
f 129//129 78//78 127//127
f 131//131 78//78 129//129
f 133//133 78//78 131//131
f 135//135 78//78 133//133
f 137//137 78//78 135//135
f 139//139 78//78 137//137
f 141//141 78//78 139//139
f 79//79 78//78 141//141
f 140//140 77//77 141//141
f 79//79 141//141 77//77
f 76//76 78//78 77//77
f 79//79 77//77 78//78
f 143//143 144//144 145//145
f 146//146 145//145 144//144
f 146//146 147//147 145//145
f 148//148 145//145 147//147
f 147//147 149//149 150//150
f 151//151 150//150 149//149
f 149//149 152//152 151//151
f 153//153 151//151 152//152
f 152//152 154//154 153//153
f 155//155 153//153 154//154
f 154//154 156//156 155//155
f 157//157 155//155 156//156
f 156//156 158//158 157//157
f 159//159 157//157 158//158
f 158//158 160//160 159//159
f 161//161 159//159 160//160
f 160//160 162//162 161//161
f 163//163 161//161 162//162
f 162//162 164//164 163//163
f 165//165 163//163 164//164
f 164//164 166//166 165//165
f 167//167 165//165 166//166
f 166//166 168//168 167//167
f 169//169 167//167 168//168
f 168//168 170//170 169//169
f 171//171 169//169 170//170
f 146//146 144//144 147//147
f 172//172 147//147 144//144
f 149//149 147//147 172//172
f 152//152 149//149 172//172
f 154//154 152//152 172//172
f 156//156 154//154 172//172
f 158//158 156//156 172//172
f 160//160 158//158 172//172
f 162//162 160//160 172//172
f 164//164 162//162 172//172
f 166//166 164//164 172//172
f 168//168 166//166 172//172
f 170//170 168//168 172//172
f 173//173 170//170 172//172
f 172//172 174//174 175//175
f 144//144 143//143 172//172
f 175//175 172//172 143//143
f 145//145 148//148 143//143
f 150//150 143//143 148//148
f 175//175 143//143 150//150
f 151//151 175//175 150//150
f 153//153 175//175 151//151
f 155//155 175//175 153//153
f 157//157 175//175 155//155
f 159//159 175//175 157//157
f 161//161 175//175 159//159
f 163//163 175//175 161//161
f 165//165 175//175 163//163
f 167//167 175//175 165//165
f 169//169 175//175 167//167
f 171//171 175//175 169//169
f 107//107 175//175 171//171
f 170//170 173//173 171//171
f 107//107 171//171 173//173
f 172//172 175//175 173//173
f 107//107 173//173 175//175
f 176//176 177//177 178//178
f 177//177 176//176 179//179
f 180//180 181//181 182//182
f 181//181 180//180 183//183
f 184//184 185//185 186//186
f 185//185 184//184 187//187
f 188//188 189//189 190//190
f 189//189 188//188 191//191
f 192//192 67//67 193//193
f 67//67 192//192 66//66
f 194//194 193//193 195//195
f 193//193 194//194 192//192
f 196//196 195//195 197//197
f 195//195 196//196 194//194
f 198//198 199//199 200//200
f 199//199 198//198 201//201
f 202//202 200//200 203//203
f 200//200 202//202 198//198
f 204//204 203//203 205//205
f 203//203 204//204 202//202
f 206//206 205//205 207//207
f 205//205 206//206 204//204
f 208//208 207//207 209//209
f 207//207 208//208 206//206
f 210//210 208//208 209//209
f 208//208 210//210 211//211
f 37//37 211//211 210//210
f 211//211 37//37 68//68
f 212//212 197//197 213//213
f 197//197 212//212 196//196
f 192//192 68//68 66//66
f 194//194 68//68 192//192
f 196//196 68//68 194//194
f 212//212 68//68 196//196
f 214//214 68//68 212//212
f 215//215 68//68 214//214
f 201//201 68//68 215//215
f 198//198 68//68 201//201
f 202//202 68//68 198//198
f 204//204 68//68 202//202
f 206//206 68//68 204//204
f 206//206 211//211 68//68
f 211//211 206//206 208//208
f 201//201 216//216 199//199
f 216//216 201//201 215//215
f 37//37 193//193 67//67
f 37//37 195//195 193//193
f 37//37 197//197 195//195
f 37//37 213//213 197//197
f 37//37 217//217 213//213
f 37//37 216//216 217//217
f 37//37 199//199 216//216
f 37//37 200//200 199//199
f 37//37 203//203 200//200
f 37//37 205//205 203//203
f 37//37 207//207 205//205
f 210//210 207//207 37//37
f 207//207 210//210 209//209
f 214//214 213//213 217//217
f 213//213 214//214 212//212
f 215//215 217//217 216//216
f 217//217 215//215 214//214
f 68//68 67//67 37//37
f 67//67 68//68 66//66
f 31//31 24//24 23//23
f 24//24 32//32 33//33
f 32//32 24//24 31//31
f 33//33 35//35 36//36
f 33//33 34//34 35//35
f 34//34 33//33 32//32
f 37//37 35//35 34//34
f 2//2 39//39 4//4
f 39//39 2//2 38//38
f 41//41 42//42 43//43
f 42//42 41//41 40//40
f 40//40 46//46 42//42
f 40//40 45//45 46//46
f 45//45 40//40 44//44
f 45//45 44//44 47//47
f 49//49 46//46 45//45
f 45//45 48//48 49//49
f 48//48 45//45 47//47
f 48//48 51//51 49//49
f 51//51 48//48 50//50
f 50//50 53//53 51//51
f 53//53 50//50 52//52
f 52//52 55//55 53//53
f 55//55 52//52 54//54
f 54//54 57//57 55//55
f 57//57 54//54 56//56
f 56//56 59//59 57//57
f 59//59 56//56 58//58
f 58//58 61//61 59//59
f 61//61 58//58 60//60
f 60//60 63//63 61//61
f 63//63 60//60 62//62
f 62//62 65//65 63//63
f 65//65 62//62 64//64
f 64//64 67//67 65//65
f 67//67 64//64 66//66
f 67//67 68//68 37//37
f 68//68 67//67 66//66
f 33//33 23//23 24//24
f 36//36 23//23 33//33
f 35//35 23//23 36//36
f 37//37 23//23 35//35
f 23//23 37//37 68//68
f 31//31 2//2 4//4
f 2//2 31//31 23//23
f 38//38 70//70 39//39
f 70//70 38//38 69//69
f 31//31 49//49 51//51
f 31//31 46//46 49//49
f 31//31 42//42 46//46
f 31//31 43//43 42//42
f 31//31 71//71 43//43
f 31//31 70//70 71//71
f 31//31 39//39 70//70
f 39//39 31//31 4//4
f 31//31 34//34 32//32
f 51//51 34//34 31//31
f 51//51 37//37 34//34
f 53//53 37//37 51//51
f 55//55 37//37 53//53
f 57//57 37//37 55//55
f 59//59 37//37 57//57
f 61//61 37//37 59//59
f 63//63 37//37 61//61
f 65//65 37//37 63//63
f 37//37 65//65 67//67
f 72//72 43//43 71//71
f 43//43 72//72 41//41
f 48//48 47//47 44//44
f 68//68 48//48 23//23
f 68//68 50//50 48//48
f 68//68 52//52 50//50
f 68//68 54//54 52//52
f 68//68 56//56 54//54
f 68//68 58//58 56//56
f 68//68 60//60 58//58
f 68//68 62//62 60//60
f 68//68 64//64 62//62
f 64//64 68//68 66//66
f 44//44 23//23 48//48
f 40//40 23//23 44//44
f 41//41 23//23 40//40
f 72//72 23//23 41//41
f 69//69 23//23 72//72
f 38//38 23//23 69//69
f 23//23 38//38 2//2
f 69//69 71//71 70//70
f 71//71 69//69 72//72
f 66//66 192//192 67//67
f 193//193 67//67 192//192
f 192//192 194//194 193//193
f 195//195 193//193 194//194
f 194//194 196//196 195//195
f 197//197 195//195 196//196
f 201//201 198//198 199//199
f 200//200 199//199 198//198
f 198//198 202//202 200//200
f 203//203 200//200 202//202
f 202//202 204//204 203//203
f 205//205 203//203 204//204
f 204//204 206//206 205//205
f 207//207 205//205 206//206
f 206//206 208//208 207//207
f 209//209 207//207 208//208
f 211//211 210//210 208//208
f 209//209 208//208 210//210
f 68//68 37//37 211//211
f 210//210 211//211 37//37
f 196//196 212//212 197//197
f 213//213 197//197 212//212
f 208//208 206//206 211//211
f 68//68 211//211 206//206
f 204//204 68//68 206//206
f 202//202 68//68 204//204
f 198//198 68//68 202//202
f 201//201 68//68 198//198
f 215//215 68//68 201//201
f 214//214 68//68 215//215
f 212//212 68//68 214//214
f 196//196 68//68 212//212
f 194//194 68//68 196//196
f 192//192 68//68 194//194
f 66//66 68//68 192//192
f 215//215 201//201 216//216
f 199//199 216//216 201//201
f 209//209 210//210 207//207
f 37//37 207//207 210//210
f 205//205 207//207 37//37
f 203//203 205//205 37//37
f 200//200 203//203 37//37
f 199//199 200//200 37//37
f 216//216 199//199 37//37
f 217//217 216//216 37//37
f 213//213 217//217 37//37
f 197//197 213//213 37//37
f 195//195 197//197 37//37
f 193//193 195//195 37//37
f 67//67 193//193 37//37
f 212//212 214//214 213//213
f 217//217 213//213 214//214
f 214//214 215//215 217//217
f 216//216 217//217 215//215
f 66//66 68//68 67//67
f 37//37 67//67 68//68
f 4//4 1//1 2//2
f 3//3 2//2 1//1
f 1//1 5//5 3//3
f 6//6 3//3 5//5
f 5//5 7//7 6//6
f 8//8 6//6 7//7
f 12//12 9//9 10//10
f 11//11 10//10 9//9
f 9//9 13//13 11//11
f 14//14 11//11 13//13
f 13//13 15//15 14//14
f 16//16 14//14 15//15
f 15//15 17//17 16//16
f 18//18 16//16 17//17
f 17//17 19//19 18//18
f 20//20 18//18 19//19
f 22//22 21//21 19//19
f 20//20 19//19 21//21
f 24//24 23//23 22//22
f 21//21 22//22 23//23
f 7//7 25//25 8//8
f 26//26 8//8 25//25
f 19//19 17//17 22//22
f 24//24 22//22 17//17
f 15//15 24//24 17//17
f 13//13 24//24 15//15
f 9//9 24//24 13//13
f 12//12 24//24 9//9
f 28//28 24//24 12//12
f 27//27 24//24 28//28
f 25//25 24//24 27//27
f 7//7 24//24 25//25
f 5//5 24//24 7//7
f 1//1 24//24 5//5
f 4//4 24//24 1//1
f 28//28 12//12 29//29
f 10//10 29//29 12//12
f 20//20 21//21 18//18
f 23//23 18//18 21//21
f 16//16 18//18 23//23
f 14//14 16//16 23//23
f 11//11 14//14 23//23
f 10//10 11//11 23//23
f 29//29 10//10 23//23
f 30//30 29//29 23//23
f 26//26 30//30 23//23
f 8//8 26//26 23//23
f 6//6 8//8 23//23
f 3//3 6//6 23//23
f 2//2 3//3 23//23
f 25//25 27//27 26//26
f 30//30 26//26 27//27
f 27//27 28//28 30//30
f 29//29 30//30 28//28
f 4//4 24//24 2//2
f 23//23 2//2 24//24
f 35//35 34//34 33//33
f 35//35 34//34 33//33
f 73//73 74//74 75//75
f 73//73 32//32 74//74
f 32//32 73//73 35//35
f 77//77 78//78 79//79
f 78//78 77//77 76//76
f 77//77 80//80 81//81
f 80//80 77//77 79//79
f 81//81 82//82 83//83
f 82//82 81//81 80//80
f 85//85 84//84 86//86
f 83//83 84//84 85//85
f 84//84 83//83 82//82
f 86//86 87//87 88//88
f 87//87 86//86 84//84
f 88//88 89//89 90//90
f 89//89 88//88 87//87
f 90//90 91//91 92//92
f 91//91 90//90 89//89
f 92//92 93//93 94//94
f 93//93 92//92 91//91
f 94//94 95//95 96//96
f 95//95 94//94 93//93
f 96//96 97//97 98//98
f 97//97 96//96 95//95
f 98//98 99//99 100//100
f 99//99 98//98 97//97
f 100//100 101//101 102//102
f 101//101 100//100 99//99
f 102//102 103//103 104//104
f 103//103 102//102 101//101
f 107//107 106//106 109//109
f 106//106 105//105 108//108
f 104//104 106//106 107//107
f 104//104 105//105 106//106
f 105//105 104//104 103//103
f 75//75 105//105 73//73
f 75//75 108//108 105//105
f 75//75 106//106 108//108
f 75//75 109//109 106//106
f 109//109 75//75 107//107
f 73//73 34//34 35//35
f 34//34 32//32 35//35
f 34//34 49//49 32//32
f 49//49 34//34 51//51
f 76//76 110//110 111//111
f 110//110 94//94 49//49
f 76//76 94//94 110//110
f 76//76 92//92 94//94
f 76//76 90//90 92//92
f 76//76 88//88 90//90
f 76//76 86//86 88//88
f 76//76 85//85 86//86
f 76//76 83//83 85//85
f 76//76 81//81 83//83
f 81//81 76//76 77//77
f 32//32 74//74 33//33
f 32//32 75//75 74//74
f 49//49 75//75 32//32
f 94//94 75//75 49//49
f 96//96 75//75 94//94
f 98//98 75//75 96//96
f 100//100 75//75 98//98
f 102//102 75//75 100//100
f 104//104 75//75 102//102
f 75//75 104//104 107//107
f 112//112 76//76 111//111
f 76//76 112//112 78//78
f 73//73 51//51 34//34
f 73//73 93//93 51//51
f 73//73 95//95 93//93
f 73//73 97//97 95//95
f 73//73 99//99 97//97
f 73//73 101//101 99//99
f 73//73 103//103 101//101
f 103//103 73//73 105//105
f 50//50 78//78 112//112
f 93//93 50//50 51//51
f 93//93 78//78 50//50
f 91//91 78//78 93//93
f 89//89 78//78 91//91
f 87//87 78//78 89//89
f 84//84 78//78 87//87
f 82//82 78//78 84//84
f 80//80 78//78 82//82
f 78//78 80//80 79//79
f 51//51 110//110 49//49
f 110//110 51//51 50//50
f 110//110 112//112 111//111
f 112//112 110//110 50//50
f 33//33 32//32 74//74
f 114//114 115//115 116//116
f 115//115 114//114 113//113
f 117//117 115//115 118//118
f 115//115 117//117 116//116
f 119//119 120//120 121//121
f 120//120 119//119 117//117
f 122//122 121//121 123//123
f 121//121 122//122 119//119
f 124//124 123//123 125//125
f 123//123 124//124 122//122
f 126//126 125//125 127//127
f 125//125 126//126 124//124
f 128//128 127//127 129//129
f 127//127 128//128 126//126
f 130//130 129//129 131//131
f 129//129 130//130 128//128
f 132//132 131//131 133//133
f 131//131 132//132 130//130
f 134//134 133//133 135//135
f 133//133 134//134 132//132
f 136//136 135//135 137//137
f 135//135 136//136 134//134
f 138//138 137//137 139//139
f 137//137 138//138 136//136
f 140//140 139//139 141//141
f 139//139 140//140 138//138
f 76//76 140//140 77//77
f 76//76 138//138 140//140
f 76//76 136//136 138//138
f 76//76 134//134 136//136
f 76//76 132//132 134//134
f 76//76 130//130 132//132
f 76//76 128//128 130//130
f 76//76 126//126 128//128
f 76//76 124//124 126//126
f 76//76 122//122 124//124
f 76//76 119//119 122//122
f 76//76 117//117 119//119
f 114//114 117//117 76//76
f 117//117 114//114 116//116
f 78//78 142//142 76//76
f 113//113 76//76 78//78
f 76//76 113//113 114//114
f 141//141 78//78 79//79
f 139//139 78//78 141//141
f 137//137 78//78 139//139
f 135//135 78//78 137//137
f 133//133 78//78 135//135
f 131//131 78//78 133//133
f 129//129 78//78 131//131
f 127//127 78//78 129//129
f 125//125 78//78 127//127
f 123//123 78//78 125//125
f 121//121 78//78 123//123
f 120//120 78//78 121//121
f 120//120 113//113 78//78
f 118//118 113//113 120//120
f 113//113 118//118 115//115
f 77//77 141//141 79//79
f 141//141 77//77 140//140
f 78//78 77//77 79//79
f 77//77 78//78 76//76
f 144//144 145//145 146//146
f 145//145 144//144 143//143
f 147//147 145//145 148//148
f 145//145 147//147 146//146
f 149//149 150//150 151//151
f 150//150 149//149 147//147
f 152//152 151//151 153//153
f 151//151 152//152 149//149
f 154//154 153//153 155//155
f 153//153 154//154 152//152
f 156//156 155//155 157//157
f 155//155 156//156 154//154
f 158//158 157//157 159//159
f 157//157 158//158 156//156
f 160//160 159//159 161//161
f 159//159 160//160 158//158
f 162//162 161//161 163//163
f 161//161 162//162 160//160
f 164//164 163//163 165//165
f 163//163 164//164 162//162
f 166//166 165//165 167//167
f 165//165 166//166 164//164
f 168//168 167//167 169//169
f 167//167 168//168 166//166
f 170//170 169//169 171//171
f 169//169 170//170 168//168
f 172//172 170//170 173//173
f 172//172 168//168 170//170
f 172//172 166//166 168//168
f 172//172 164//164 166//166
f 172//172 162//162 164//164
f 172//172 160//160 162//162
f 172//172 158//158 160//160
f 172//172 156//156 158//158
f 172//172 154//154 156//156
f 172//172 152//152 154//154
f 172//172 149//149 152//152
f 172//172 147//147 149//149
f 144//144 147//147 172//172
f 147//147 144//144 146//146
f 175//175 174//174 172//172
f 143//143 172//172 175//175
f 172//172 143//143 144//144
f 171//171 175//175 107//107
f 169//169 175//175 171//171
f 167//167 175//175 169//169
f 165//165 175//175 167//167
f 163//163 175//175 165//165
f 161//161 175//175 163//163
f 159//159 175//175 161//161
f 157//157 175//175 159//159
f 155//155 175//175 157//157
f 153//153 175//175 155//155
f 151//151 175//175 153//153
f 150//150 175//175 151//151
f 150//150 143//143 175//175
f 148//148 143//143 150//150
f 143//143 148//148 145//145
f 173//173 171//171 107//107
f 171//171 173//173 170//170
f 175//175 173//173 107//107
f 173//173 175//175 172//172
f 218//218 179//179 176//176
f 218//218 219//219 179//179
f 218//218 182//182 219//219
f 182//182 218//218 180//180
f 190//190 220//220 221//221
f 220//220 190//190 189//189
f 185//185 220//220 222//222
f 187//187 220//220 185//185
f 223//223 220//220 187//187
f 220//220 223//223 221//221
f 224//224 225//225 226//226
f 225//225 224//224 227//227
f 226//226 225//225 224//224
f 227//227 224//224 225//225
f 228//228 188//188 229//229
f 191//191 229//229 188//188
f 188//188 229//229 191//191
f 229//229 188//188 228//228
f 230//230 228//228 231//231
f 229//229 231//231 228//228
f 228//228 231//231 229//229
f 231//231 228//228 230//230
f 232//232 230//230 233//233
f 231//231 233//233 230//230
f 230//230 233//233 231//231
f 233//233 230//230 232//232
f 234//234 232//232 235//235
f 233//233 235//235 232//232
f 232//232 235//235 233//233
f 235//235 232//232 234//234
f 236//236 234//234 237//237
f 235//235 237//237 234//234
f 234//234 237//237 235//235
f 237//237 234//234 236//236
f 238//238 236//236 239//239
f 237//237 239//239 236//236
f 236//236 239//239 237//237
f 239//239 236//236 238//238
f 240//240 238//238 241//241
f 239//239 241//241 238//238
f 238//238 241//241 239//239
f 241//241 238//238 240//240
f 242//242 243//243 244//244
f 245//245 244//244 243//243
f 243//243 244//244 245//245
f 244//244 243//243 242//242
f 246//246 242//242 247//247
f 244//244 247//247 242//242
f 242//242 247//247 244//244
f 247//247 242//242 246//246
f 248//248 246//246 249//249
f 247//247 249//249 246//246
f 246//246 249//249 247//247
f 249//249 246//246 248//248
f 250//250 248//248 251//251
f 249//249 251//251 248//248
f 248//248 251//251 249//249
f 251//251 248//248 250//250
f 252//252 250//250 253//253
f 251//251 253//253 250//250
f 250//250 253//253 251//251
f 253//253 250//250 252//252
f 254//254 252//252 255//255
f 253//253 255//255 252//252
f 252//252 255//255 253//253
f 255//255 252//252 254//254
f 256//256 254//254 257//257
f 255//255 257//257 254//254
f 254//254 257//257 255//255
f 257//257 254//254 256//256
f 258//258 256//256 259//259
f 257//257 259//259 256//256
f 256//256 259//259 257//257
f 259//259 256//256 258//258
f 260//260 258//258 261//261
f 259//259 261//261 258//258
f 258//258 261//261 259//259
f 261//261 258//258 260//260
f 262//262 260//260 263//263
f 261//261 263//263 260//260
f 260//260 263//263 261//261
f 263//263 260//260 262//262
f 264//264 262//262 265//265
f 263//263 265//265 262//262
f 262//262 265//265 263//263
f 265//265 262//262 264//264
f 266//266 264//264 267//267
f 265//265 267//267 264//264
f 264//264 267//267 265//265
f 267//267 264//264 266//266
f 268//268 266//266 269//269
f 267//267 269//269 266//266
f 266//266 269//269 267//267
f 269//269 266//266 268//268
f 270//270 268//268 271//271
f 269//269 271//271 268//268
f 268//268 271//271 269//269
f 271//271 268//268 270//270
f 272//272 270//270 273//273
f 271//271 273//273 270//270
f 270//270 273//273 271//271
f 273//273 270//270 272//272
f 274//274 272//272 275//275
f 273//273 275//275 272//272
f 272//272 275//275 273//273
f 275//275 272//272 274//274
f 276//276 274//274 277//277
f 275//275 277//277 274//274
f 274//274 277//277 275//275
f 277//277 274//274 276//276
f 278//278 276//276 279//279
f 277//277 279//279 276//276
f 276//276 279//279 277//277
f 279//279 276//276 278//278
f 280//280 278//278 281//281
f 279//279 281//281 278//278
f 278//278 281//281 279//279
f 281//281 278//278 280//280
f 282//282 280//280 283//283
f 281//281 283//283 280//280
f 280//280 283//283 281//281
f 283//283 280//280 282//282
f 284//284 282//282 285//285
f 283//283 285//285 282//282
f 282//282 285//285 283//283
f 285//285 282//282 284//284
f 286//286 284//284 287//287
f 285//285 287//287 284//284
f 284//284 287//287 285//285
f 287//287 284//284 286//286
f 288//288 286//286 289//289
f 287//287 289//289 286//286
f 286//286 289//289 287//287
f 289//289 286//286 288//288
f 290//290 288//288 291//291
f 289//289 291//291 288//288
f 288//288 291//291 289//289
f 291//291 288//288 290//290
f 292//292 290//290 293//293
f 291//291 293//293 290//290
f 290//290 293//293 291//291
f 293//293 290//290 292//292
f 294//294 292//292 295//295
f 293//293 295//295 292//292
f 292//292 295//295 293//293
f 295//295 292//292 294//294
f 296//296 294//294 297//297
f 295//295 297//297 294//294
f 294//294 297//297 295//295
f 297//297 294//294 296//296
f 298//298 296//296 299//299
f 297//297 299//299 296//296
f 296//296 299//299 297//297
f 299//299 296//296 298//298
f 300//300 298//298 301//301
f 299//299 301//301 298//298
f 298//298 301//301 299//299
f 301//301 298//298 300//300
f 302//302 300//300 303//303
f 301//301 303//303 300//300
f 300//300 303//303 301//301
f 303//303 300//300 302//302
f 304//304 302//302 305//305
f 303//303 305//305 302//302
f 302//302 305//305 303//303
f 305//305 302//302 304//304
f 306//306 304//304 307//307
f 305//305 307//307 304//304
f 304//304 307//307 305//305
f 307//307 304//304 306//306
f 308//308 306//306 309//309
f 307//307 309//309 306//306
f 306//306 309//309 307//307
f 309//309 306//306 308//308
f 310//310 308//308 311//311
f 309//309 311//311 308//308
f 308//308 311//311 309//309
f 311//311 308//308 310//310
f 312//312 310//310 313//313
f 311//311 313//313 310//310
f 310//310 313//313 311//311
f 313//313 310//310 312//312
f 314//314 312//312 315//315
f 313//313 315//315 312//312
f 312//312 315//315 313//313
f 315//315 312//312 314//314
f 316//316 314//314 317//317
f 315//315 317//317 314//314
f 314//314 317//317 315//315
f 317//317 314//314 316//316
f 318//318 316//316 319//319
f 317//317 319//319 316//316
f 316//316 319//319 317//317
f 319//319 316//316 318//318
f 320//320 318//318 321//321
f 319//319 321//321 318//318
f 318//318 321//321 319//319
f 321//321 318//318 320//320
f 322//322 320//320 323//323
f 321//321 323//323 320//320
f 320//320 323//323 321//321
f 323//323 320//320 322//322
f 324//324 322//322 325//325
f 323//323 325//325 322//322
f 322//322 325//325 323//323
f 325//325 322//322 324//324
f 326//326 324//324 327//327
f 325//325 327//327 324//324
f 324//324 327//327 325//325
f 327//327 324//324 326//326
f 328//328 326//326 329//329
f 327//327 329//329 326//326
f 326//326 329//329 327//327
f 329//329 326//326 328//328
f 330//330 328//328 331//331
f 329//329 331//331 328//328
f 328//328 331//331 329//329
f 331//331 328//328 330//330
f 332//332 330//330 333//333
f 331//331 333//333 330//330
f 330//330 333//333 331//331
f 333//333 330//330 332//332
f 334//334 332//332 335//335
f 333//333 335//335 332//332
f 332//332 335//335 333//333
f 335//335 332//332 334//334
f 336//336 334//334 337//337
f 335//335 337//337 334//334
f 334//334 337//337 335//335
f 337//337 334//334 336//336
f 338//338 336//336 339//339
f 337//337 339//339 336//336
f 336//336 339//339 337//337
f 339//339 336//336 338//338
f 340//340 338//338 341//341
f 339//339 341//341 338//338
f 338//338 341//341 339//339
f 341//341 338//338 340//340
f 342//342 340//340 343//343
f 341//341 343//343 340//340
f 340//340 343//343 341//341
f 343//343 340//340 342//342
f 344//344 342//342 345//345
f 343//343 345//345 342//342
f 342//342 345//345 343//343
f 345//345 342//342 344//344
f 346//346 344//344 347//347
f 345//345 347//347 344//344
f 344//344 347//347 345//345
f 347//347 344//344 346//346
f 348//348 346//346 349//349
f 347//347 349//349 346//346
f 346//346 349//349 347//347
f 349//349 346//346 348//348
f 350//350 348//348 351//351
f 349//349 351//351 348//348
f 348//348 351//351 349//349
f 351//351 348//348 350//350
f 352//352 350//350 353//353
f 351//351 353//353 350//350
f 350//350 353//353 351//351
f 353//353 350//350 352//352
f 354//354 352//352 355//355
f 353//353 355//355 352//352
f 352//352 355//355 353//353
f 355//355 352//352 354//354
f 356//356 354//354 357//357
f 355//355 357//357 354//354
f 354//354 357//357 355//355
f 357//357 354//354 356//356
f 358//358 359//359 357//357
f 356//356 357//357 359//359
f 359//359 357//357 356//356
f 357//357 359//359 358//358
f 360//360 359//359 361//361
f 358//358 361//361 359//359
f 359//359 361//361 358//358
f 361//361 359//359 360//360
f 362//362 360//360 363//363
f 361//361 363//363 360//360
f 360//360 363//363 361//361
f 363//363 360//360 362//362
f 364//364 362//362 365//365
f 363//363 365//365 362//362
f 362//362 365//365 363//363
f 365//365 362//362 364//364
f 366//366 364//364 367//367
f 365//365 367//367 364//364
f 364//364 367//367 365//365
f 367//367 364//364 366//366
f 368//368 366//366 369//369
f 367//367 369//369 366//366
f 366//366 369//369 367//367
f 369//369 366//366 368//368
f 370//370 368//368 371//371
f 369//369 371//371 368//368
f 368//368 371//371 369//369
f 371//371 368//368 370//370
f 371//371 372//372 370//370
f 373//373 370//370 372//372
f 372//372 370//370 373//373
f 370//370 372//372 371//371
f 374//374 373//373 375//375
f 372//372 375//375 373//373
f 373//373 375//375 372//372
f 375//375 373//373 374//374
f 376//376 374//374 377//377
f 375//375 377//377 374//374
f 374//374 377//377 375//375
f 377//377 374//374 376//376
f 378//378 376//376 379//379
f 377//377 379//379 376//376
f 376//376 379//379 377//377
f 379//379 376//376 378//378
f 380//380 378//378 381//381
f 379//379 381//381 378//378
f 378//378 381//381 379//379
f 381//381 378//378 380//380
f 382//382 380//380 383//383
f 381//381 383//383 380//380
f 380//380 383//383 381//381
f 383//383 380//380 382//382
f 384//384 382//382 385//385
f 383//383 385//385 382//382
f 382//382 385//385 383//383
f 385//385 382//382 384//384
f 386//386 384//384 387//387
f 385//385 387//387 384//384
f 384//384 387//387 385//385
f 387//387 384//384 386//386
f 388//388 386//386 389//389
f 387//387 389//389 386//386
f 386//386 389//389 387//387
f 389//389 386//386 388//388
f 390//390 388//388 391//391
f 389//389 391//391 388//388
f 388//388 391//391 389//389
f 391//391 388//388 390//390
f 392//392 390//390 393//393
f 391//391 393//393 390//390
f 390//390 393//393 391//391
f 393//393 390//390 392//392
f 394//394 392//392 395//395
f 393//393 395//395 392//392
f 392//392 395//395 393//393
f 395//395 392//392 394//394
f 396//396 394//394 397//397
f 395//395 397//397 394//394
f 394//394 397//397 395//395
f 397//397 394//394 396//396
f 398//398 396//396 399//399
f 397//397 399//399 396//396
f 396//396 399//399 397//397
f 399//399 396//396 398//398
f 400//400 398//398 401//401
f 399//399 401//401 398//398
f 398//398 401//401 399//399
f 401//401 398//398 400//400
f 402//402 400//400 403//403
f 401//401 403//403 400//400
f 400//400 403//403 401//401
f 403//403 400//400 402//402
f 181//181 402//402 183//183
f 403//403 183//183 402//402
f 402//402 183//183 403//403
f 183//183 402//402 181//181
f 404//404 177//177 405//405
f 178//178 405//405 177//177
f 177//177 405//405 178//178
f 405//405 177//177 404//404
f 406//406 404//404 407//407
f 405//405 407//407 404//404
f 404//404 407//407 405//405
f 407//407 404//404 406//406
f 408//408 406//406 409//409
f 407//407 409//409 406//406
f 406//406 409//409 407//407
f 409//409 406//406 408//408
f 410//410 408//408 411//411
f 409//409 411//411 408//408
f 408//408 411//411 409//409
f 411//411 408//408 410//410
f 412//412 410//410 413//413
f 411//411 413//413 410//410
f 410//410 413//413 411//411
f 413//413 410//410 412//412
f 414//414 412//412 415//415
f 413//413 415//415 412//412
f 412//412 415//415 413//413
f 415//415 412//412 414//414
f 416//416 414//414 417//417
f 415//415 417//417 414//414
f 414//414 417//417 415//415
f 417//417 414//414 416//416
f 418//418 416//416 419//419
f 417//417 419//419 416//416
f 416//416 419//419 417//417
f 419//419 416//416 418//418
f 420//420 418//418 421//421
f 419//419 421//421 418//418
f 418//418 421//421 419//419
f 421//421 418//418 420//420
f 422//422 420//420 423//423
f 421//421 423//423 420//420
f 420//420 423//423 421//421
f 423//423 420//420 422//422
f 424//424 422//422 425//425
f 423//423 425//425 422//422
f 422//422 425//425 423//423
f 425//425 422//422 424//424
f 426//426 424//424 427//427
f 425//425 427//427 424//424
f 424//424 427//427 425//425
f 427//427 424//424 426//426
f 428//428 426//426 429//429
f 427//427 429//429 426//426
f 426//426 429//429 427//427
f 429//429 426//426 428//428
f 430//430 428//428 431//431
f 429//429 431//431 428//428
f 428//428 431//431 429//429
f 431//431 428//428 430//430
f 432//432 430//430 433//433
f 431//431 433//433 430//430
f 430//430 433//433 431//431
f 433//433 430//430 432//432
f 434//434 432//432 435//435
f 433//433 435//435 432//432
f 432//432 435//435 433//433
f 435//435 432//432 434//434
f 436//436 434//434 437//437
f 435//435 437//437 434//434
f 434//434 437//437 435//435
f 437//437 434//434 436//436
f 438//438 436//436 439//439
f 437//437 439//439 436//436
f 436//436 439//439 437//437
f 439//439 436//436 438//438
f 440//440 438//438 441//441
f 439//439 441//441 438//438
f 438//438 441//441 439//439
f 441//441 438//438 440//440
f 442//442 440//440 443//443
f 441//441 443//443 440//440
f 440//440 443//443 441//441
f 443//443 440//440 442//442
f 444//444 442//442 445//445
f 443//443 445//445 442//442
f 442//442 445//445 443//443
f 445//445 442//442 444//444
f 446//446 444//444 447//447
f 445//445 447//447 444//444
f 444//444 447//447 445//445
f 447//447 444//444 446//446
f 448//448 446//446 449//449
f 447//447 449//449 446//446
f 446//446 449//449 447//447
f 449//449 446//446 448//448
f 450//450 448//448 451//451
f 449//449 451//451 448//448
f 448//448 451//451 449//449
f 451//451 448//448 450//450
f 452//452 450//450 453//453
f 451//451 453//453 450//450
f 450//450 453//453 451//451
f 453//453 450//450 452//452
f 454//454 452//452 455//455
f 453//453 455//455 452//452
f 452//452 455//455 453//453
f 455//455 452//452 454//454
f 456//456 454//454 457//457
f 455//455 457//457 454//454
f 454//454 457//457 455//455
f 457//457 454//454 456//456
f 458//458 456//456 459//459
f 457//457 459//459 456//456
f 456//456 459//459 457//457
f 459//459 456//456 458//458
f 460//460 458//458 461//461
f 459//459 461//461 458//458
f 458//458 461//461 459//459
f 461//461 458//458 460//460
f 462//462 460//460 463//463
f 461//461 463//463 460//460
f 460//460 463//463 461//461
f 463//463 460//460 462//462
f 464//464 462//462 465//465
f 463//463 465//465 462//462
f 462//462 465//465 463//463
f 465//465 462//462 464//464
f 466//466 464//464 467//467
f 465//465 467//467 464//464
f 464//464 467//467 465//465
f 467//467 464//464 466//466
f 468//468 466//466 469//469
f 467//467 469//469 466//466
f 466//466 469//469 467//467
f 469//469 466//466 468//468
f 470//470 468//468 471//471
f 469//469 471//471 468//468
f 468//468 471//471 469//469
f 471//471 468//468 470//470
f 472//472 470//470 473//473
f 471//471 473//473 470//470
f 470//470 473//473 471//471
f 473//473 470//470 472//472
f 474//474 472//472 475//475
f 473//473 475//475 472//472
f 472//472 475//475 473//473
f 475//475 472//472 474//474
f 476//476 474//474 477//477
f 475//475 477//477 474//474
f 474//474 477//477 475//475
f 477//477 474//474 476//476
f 478//478 476//476 479//479
f 477//477 479//479 476//476
f 476//476 479//479 477//477
f 479//479 476//476 478//478
f 480//480 478//478 481//481
f 479//479 481//481 478//478
f 478//478 481//481 479//479
f 481//481 478//478 480//480
f 480//480 481//481 184//184
f 186//186 184//184 481//481
f 481//481 184//184 186//186
f 184//184 481//481 480//480
f 482//482 240//240 483//483
f 241//241 483//483 240//240
f 240//240 483//483 241//241
f 483//483 240//240 482//482
f 243//243 484//484 245//245
f 485//485 245//245 484//484
f 484//484 245//245 485//485
f 245//245 484//484 243//243
f 228//228 230//230 221//221
f 232//232 221//221 230//230
f 234//234 221//221 232//232
f 223//223 221//221 234//234
f 236//236 223//223 234//234
f 238//238 223//223 236//236
f 240//240 223//223 238//238
f 482//482 223//223 240//240
f 486//486 223//223 482//482
f 487//487 223//223 486//486
f 484//484 223//223 487//487
f 243//243 223//223 484//484
f 242//242 223//223 243//243
f 246//246 223//223 242//242
f 248//248 223//223 246//246
f 250//250 223//223 248//248
f 252//252 223//223 250//250
f 254//254 223//223 252//252
f 256//256 223//223 254//254
f 258//258 223//223 256//256
f 260//260 223//223 258//258
f 262//262 223//223 260//260
f 264//264 223//223 262//262
f 266//266 223//223 264//264
f 268//268 223//223 266//266
f 270//270 223//223 268//268
f 272//272 223//223 270//270
f 274//274 223//223 272//272
f 276//276 223//223 274//274
f 278//278 223//223 276//276
f 280//280 223//223 278//278
f 282//282 223//223 280//280
f 284//284 223//223 282//282
f 286//286 223//223 284//284
f 187//187 223//223 286//286
f 288//288 187//187 286//286
f 184//184 187//187 288//288
f 290//290 184//184 288//288
f 292//292 184//184 290//290
f 294//294 184//184 292//292
f 296//296 184//184 294//294
f 298//298 184//184 296//296
f 300//300 184//184 298//298
f 302//302 184//184 300//300
f 304//304 184//184 302//302
f 480//480 184//184 304//304
f 478//478 480//480 304//304
f 476//476 478//478 304//304
f 306//306 476//476 304//304
f 474//474 476//476 306//306
f 308//308 474//474 306//306
f 472//472 474//474 308//308
f 310//310 472//472 308//308
f 470//470 472//472 310//310
f 312//312 470//470 310//310
f 468//468 470//470 312//312
f 314//314 468//468 312//312
f 316//316 468//468 314//314
f 466//466 468//468 316//316
f 318//318 466//466 316//316
f 464//464 466//466 318//318
f 320//320 464//464 318//318
f 322//322 464//464 320//320
f 462//462 464//464 322//322
f 324//324 462//462 322//322
f 460//460 462//462 324//324
f 458//458 460//460 324//324
f 456//456 458//458 324//324
f 326//326 456//456 324//324
f 454//454 456//456 326//326
f 328//328 454//454 326//326
f 330//330 454//454 328//328
f 452//452 454//454 330//330
f 450//450 452//452 330//330
f 448//448 450//450 330//330
f 446//446 448//448 330//330
f 444//444 446//446 330//330
f 442//442 444//444 330//330
f 332//332 442//442 330//330
f 440//440 442//442 332//332
f 334//334 440//440 332//332
f 438//438 440//440 334//334
f 436//436 438//438 334//334
f 434//434 436//436 334//334
f 432//432 434//434 334//334
f 336//336 432//432 334//334
f 430//430 432//432 336//336
f 428//428 430//430 336//336
f 426//426 428//428 336//336
f 338//338 426//426 336//336
f 424//424 426//426 338//338
f 340//340 424//424 338//338
f 342//342 424//424 340//340
f 422//422 424//424 342//342
f 420//420 422//422 342//342
f 344//344 420//420 342//342
f 418//418 420//420 344//344
f 416//416 418//418 344//344
f 414//414 416//416 344//344
f 346//346 414//414 344//344
f 348//348 414//414 346//346
f 350//350 414//414 348//348
f 352//352 414//414 350//350
f 412//412 414//414 352//352
f 354//354 412//412 352//352
f 356//356 412//412 354//354
f 359//359 412//412 356//356
f 360//360 412//412 359//359
f 362//362 412//412 360//360
f 364//364 412//412 362//362
f 366//366 412//412 364//364
f 368//368 412//412 366//366
f 370//370 412//412 368//368
f 373//373 412//412 370//370
f 374//374 412//412 373//373
f 376//376 412//412 374//374
f 378//378 412//412 376//376
f 380//380 412//412 378//378
f 410//410 412//412 380//380
f 382//382 410//410 380//380
f 408//408 410//410 382//382
f 384//384 408//408 382//382
f 406//406 408//408 384//384
f 404//404 406//406 384//384
f 386//386 404//404 384//384
f 388//388 404//404 386//386
f 390//390 404//404 388//388
f 392//392 404//404 390//390
f 394//394 404//404 392//392
f 177//177 404//404 394//394
f 396//396 177//177 394//394
f 398//398 177//177 396//396
f 400//400 177//177 398//398
f 402//402 177//177 400//400
f 179//179 177//177 402//402
f 219//219 179//179 402//402
f 182//182 219//219 402//402
f 181//181 182//182 402//402
f 402//402 182//182 181//181
f 402//402 219//219 182//182
f 402//402 179//179 219//219
f 402//402 177//177 179//179
f 400//400 177//177 402//402
f 398//398 177//177 400//400
f 396//396 177//177 398//398
f 394//394 177//177 396//396
f 394//394 404//404 177//177
f 392//392 404//404 394//394
f 390//390 404//404 392//392
f 388//388 404//404 390//390
f 386//386 404//404 388//388
f 384//384 404//404 386//386
f 384//384 406//406 404//404
f 384//384 408//408 406//406
f 382//382 408//408 384//384
f 382//382 410//410 408//408
f 380//380 410//410 382//382
f 380//380 412//412 410//410
f 378//378 412//412 380//380
f 376//376 412//412 378//378
f 374//374 412//412 376//376
f 373//373 412//412 374//374
f 370//370 412//412 373//373
f 368//368 412//412 370//370
f 366//366 412//412 368//368
f 364//364 412//412 366//366
f 362//362 412//412 364//364
f 360//360 412//412 362//362
f 359//359 412//412 360//360
f 356//356 412//412 359//359
f 354//354 412//412 356//356
f 352//352 412//412 354//354
f 352//352 414//414 412//412
f 350//350 414//414 352//352
f 348//348 414//414 350//350
f 346//346 414//414 348//348
f 344//344 414//414 346//346
f 344//344 416//416 414//414
f 344//344 418//418 416//416
f 344//344 420//420 418//418
f 342//342 420//420 344//344
f 342//342 422//422 420//420
f 342//342 424//424 422//422
f 340//340 424//424 342//342
f 338//338 424//424 340//340
f 338//338 426//426 424//424
f 336//336 426//426 338//338
f 336//336 428//428 426//426
f 336//336 430//430 428//428
f 336//336 432//432 430//430
f 334//334 432//432 336//336
f 334//334 434//434 432//432
f 334//334 436//436 434//434
f 334//334 438//438 436//436
f 334//334 440//440 438//438
f 332//332 440//440 334//334
f 332//332 442//442 440//440
f 330//330 442//442 332//332
f 330//330 444//444 442//442
f 330//330 446//446 444//444
f 330//330 448//448 446//446
f 330//330 450//450 448//448
f 330//330 452//452 450//450
f 330//330 454//454 452//452
f 328//328 454//454 330//330
f 326//326 454//454 328//328
f 326//326 456//456 454//454
f 324//324 456//456 326//326
f 324//324 458//458 456//456
f 324//324 460//460 458//458
f 324//324 462//462 460//460
f 322//322 462//462 324//324
f 322//322 464//464 462//462
f 320//320 464//464 322//322
f 318//318 464//464 320//320
f 318//318 466//466 464//464
f 316//316 466//466 318//318
f 316//316 468//468 466//466
f 314//314 468//468 316//316
f 312//312 468//468 314//314
f 312//312 470//470 468//468
f 310//310 470//470 312//312
f 310//310 472//472 470//470
f 308//308 472//472 310//310
f 308//308 474//474 472//472
f 306//306 474//474 308//308
f 306//306 476//476 474//474
f 304//304 476//476 306//306
f 304//304 478//478 476//476
f 304//304 480//480 478//478
f 304//304 184//184 480//480
f 302//302 184//184 304//304
f 300//300 184//184 302//302
f 298//298 184//184 300//300
f 296//296 184//184 298//298
f 294//294 184//184 296//296
f 292//292 184//184 294//294
f 290//290 184//184 292//292
f 288//288 184//184 290//290
f 288//288 187//187 184//184
f 286//286 187//187 288//288
f 286//286 223//223 187//187
f 284//284 223//223 286//286
f 282//282 223//223 284//284
f 280//280 223//223 282//282
f 278//278 223//223 280//280
f 276//276 223//223 278//278
f 274//274 223//223 276//276
f 272//272 223//223 274//274
f 270//270 223//223 272//272
f 268//268 223//223 270//270
f 266//266 223//223 268//268
f 264//264 223//223 266//266
f 262//262 223//223 264//264
f 260//260 223//223 262//262
f 258//258 223//223 260//260
f 256//256 223//223 258//258
f 254//254 223//223 256//256
f 252//252 223//223 254//254
f 250//250 223//223 252//252
f 248//248 223//223 250//250
f 246//246 223//223 248//248
f 242//242 223//223 246//246
f 243//243 223//223 242//242
f 484//484 223//223 243//243
f 487//487 223//223 484//484
f 486//486 223//223 487//487
f 482//482 223//223 486//486
f 240//240 223//223 482//482
f 238//238 223//223 240//240
f 236//236 223//223 238//238
f 234//234 223//223 236//236
f 234//234 221//221 223//223
f 232//232 221//221 234//234
f 230//230 221//221 232//232
f 221//221 230//230 228//228
f 486//486 482//482 488//488
f 483//483 488//488 482//482
f 482//482 488//488 483//483
f 488//488 482//482 486//486
f 484//484 487//487 485//485
f 489//489 485//485 487//487
f 487//487 485//485 489//489
f 485//485 487//487 484//484
f 487//487 486//486 489//489
f 488//488 489//489 486//486
f 486//486 489//489 488//488
f 489//489 486//486 487//487
f 180//180 218//218 182//182
f 219//219 182//182 218//218
f 179//179 219//219 218//218
f 176//176 179//179 218//218
f 179//179 176//176 177//177
f 178//178 177//177 176//176
f 183//183 180//180 181//181
f 182//182 181//181 180//180
f 189//189 190//190 220//220
f 221//221 220//220 190//190
f 221//221 223//223 220//220
f 187//187 220//220 223//223
f 185//185 220//220 187//187
f 222//222 220//220 185//185
f 187//187 184//184 185//185
f 186//186 185//185 184//184
f 191//191 188//188 189//189
f 190//190 189//189 188//188