# https://github.com/mikedh/trimesh
v -0.05320400 -0.07766600 0.01344300
v -0.05320400 0.00057200 0.01344300
v -0.04380200 -0.07766600 0.01344300
v -0.04380200 0.00057200 0.01344300
v -0.05320400 0.07880900 0.01344300
v -0.04380200 0.07880900 0.01344300
v 0.05156000 -0.08723600 0.01075700
v -0.05186000 -0.08723600 0.01075700
v 0.05156000 -0.08723600 0.01344300
v -0.05186000 -0.08723600 0.01344300
v -0.05320400 -0.08589300 0.01075700
v -0.05320400 -0.08589300 0.01344300
v -0.05320400 -0.07766600 0.01327500
v -0.05320400 0.00057000 0.01075700
v -0.05320400 -0.07783400 0.01344300
v -0.05320400 -0.07783400 0.01327500
v -0.05186000 -0.08723600 0.01008500
v -0.05320400 -0.08589300 0.01008500
v 0.05156000 -0.08723600 0.01008500
v -0.05320400 0.00057000 0.01008500
v -0.05320400 0.08703500 0.01344300
v -0.05320400 0.08703500 0.01075700
v -0.05186000 0.08837800 0.01344300
v -0.05186000 0.08837800 0.01075700
v -0.05320400 0.07897600 0.01344300
v -0.05320400 0.07897600 0.01327500
v -0.05320400 0.07880900 0.01327500
v 0.05156000 0.08837800 0.01075700
v 0.05156000 0.08837800 0.01344300
v 0.05290300 -0.08589300 0.01075700
v 0.05290300 -0.08589300 0.01344300
v 0.05290300 -0.07783400 0.01344300
v 0.04350100 -0.07766600 0.01344300
v 0.04350100 0.00057200 0.01344300
v 0.05290300 -0.07766600 0.01344300
v 0.05290300 0.00057200 0.01344300
v -0.05186000 0.08837800 0.01008500
v 0.05156000 0.08837800 0.01008500
v -0.05320400 0.08703500 0.01008500
v 0.05290300 -0.08589300 0.01008500
v 0.05290300 0.00057000 0.01008500
v 0.05290300 0.07897600 0.01344300
v 0.05290300 0.08703500 0.01344300
v 0.05290300 0.08703500 0.01075700
v 0.05290300 0.00057000 0.01075700
v 0.05290300 -0.07783400 0.01327500
v 0.05290300 -0.07766600 0.01327500
v 0.04350100 0.07880900 0.01344300
v 0.05290300 0.07880900 0.01344300
v 0.05290300 0.08703500 0.01008500
v 0.05290300 0.07880900 0.01327500
v 0.05290300 0.07897600 0.01327500
v -0.04355000 0.00359400 0.01344300
v -0.04355000 0.07880900 0.01344300
v -0.02638100 0.00359400 0.01344300
v -0.02638100 0.07880900 0.01344300
v -0.00870900 0.00359400 0.01344300
v -0.00870900 0.07880900 0.01344300
v 0.00846000 0.00359400 0.01344300
v 0.00846000 0.07880900 0.01344300
v -0.02612900 -0.07766600 0.01344300
v -0.02612900 -0.00248200 0.01344300
v -0.00896000 -0.07766600 0.01344300
v -0.00896000 -0.00248200 0.01344300
v 0.00871200 -0.07766600 0.01344300
v 0.00871200 -0.00248200 0.01344300
v 0.02588100 -0.07766600 0.01344300
v 0.02588100 -0.00248200 0.01344300
v 0.02588100 0.00057200 0.01327500
v 0.02588100 0.00057200 0.01344300
v 0.02588100 0.00325900 0.01327500
v 0.02588100 0.00325900 0.01344300
v 0.00871200 0.00057200 0.01344300
v 0.00871200 0.00057200 0.01327500
v 0.00871200 0.00325900 0.01344300
v 0.00871200 0.00325900 0.01327500
v 0.00846000 0.00057200 0.01327500
v 0.00846000 0.00057200 0.01344300
v 0.00846000 0.00325900 0.01327500
v 0.00846000 0.00325900 0.01344300
v -0.00870900 0.00057200 0.01344300
v -0.00870900 0.00057200 0.01327500
v -0.00870900 0.00325900 0.01344300
v -0.00870900 0.00325900 0.01327500
v -0.00896000 0.00057200 0.01327500
v -0.00896000 0.00057200 0.01344300
v -0.00896000 0.00325900 0.01327500
v -0.00896000 0.00325900 0.01344300
v -0.02612900 0.00057200 0.01344300
v -0.02612900 0.00057200 0.01327500
v -0.02612900 0.00325900 0.01344300
v -0.02612900 0.00325900 0.01327500
v -0.02638100 0.00057200 0.01327500
v -0.02638100 0.00057200 0.01344300
v -0.02638100 0.00325900 0.01327500
v -0.02638100 0.00325900 0.01344300
v -0.04355000 0.00057200 0.01344300
v -0.04355000 0.00057200 0.01327500
v -0.04355000 0.00325900 0.01344300
v -0.04355000 0.00325900 0.01327500
v -0.04380200 0.00057200 0.01327500
v -0.04380200 0.07880900 0.01327500
v 0.04350100 0.07880900 0.01327500
v 0.04350100 0.00057200 0.01327500
v 0.02604900 0.00057200 0.01344300
v 0.02604900 0.00057200 0.01327500
v 0.02604900 0.00325900 0.01344300
v 0.02604900 0.00325900 0.01327500
v 0.04329100 0.00057200 0.01327500
v 0.04329100 0.00057200 0.01344300
v 0.04329100 0.00325900 0.01327500
v 0.04329100 0.00325900 0.01344300
v 0.04350100 -0.07766600 0.01327500
v -0.04380200 -0.07766600 0.01327500
v -0.04355000 -0.00214600 0.01344300
v -0.04355000 -0.00214600 0.01327500
v -0.02638100 -0.00214600 0.01327500
v -0.02638100 -0.00214600 0.01344300
v -0.02612900 -0.00214600 0.01344300
v -0.02612900 -0.00214600 0.01327500
v -0.00896000 -0.00214600 0.01327500
v -0.00896000 -0.00214600 0.01344300
v -0.00870900 -0.00214600 0.01344300
v -0.00870900 -0.00214600 0.01327500
v 0.00846000 -0.00214600 0.01327500
v 0.00846000 -0.00214600 0.01344300
v 0.00871200 -0.00214600 0.01344300
v 0.00871200 -0.00214600 0.01327500
v 0.02588100 -0.00214600 0.01327500
v 0.02588100 -0.00214600 0.01344300
v -0.02638100 0.00359400 0.01327500
v -0.02638100 0.07880900 0.01327500
v -0.00896000 0.00359400 0.01327500
v -0.00896000 0.07880900 0.01327500
v 0.00846000 0.00359400 0.01327500
v 0.00846000 0.07880900 0.01327500
v 0.02588100 0.00359400 0.01327500
v 0.02588100 0.07880900 0.01327500
v 0.04329100 0.00359400 0.01327500
v 0.04329100 0.07880900 0.01327500
v -0.04355000 0.07880900 0.01327500
v -0.04355000 0.00359400 0.01327500
v -0.02612900 0.07880900 0.01327500
v -0.02612900 0.00359400 0.01327500
v -0.00870900 0.07880900 0.01327500
v -0.00870900 0.00359400 0.01327500
v 0.00871200 0.07880900 0.01327500
v 0.00871200 0.00359400 0.01327500
v 0.02604900 0.07880900 0.01327500
v 0.02604900 0.00359400 0.01327500
v 0.02604900 -0.00214600 0.01344300
v 0.02604900 -0.00214600 0.01327500
v 0.04329100 -0.00214600 0.01327500
v 0.04329100 -0.00214600 0.01344300
v 0.02604900 -0.00248200 0.01327500
v 0.04329100 -0.00248200 0.01327500
v 0.02604900 -0.07766600 0.01327500
v 0.00871200 -0.00248200 0.01327500
v 0.02588100 -0.00248200 0.01327500
v 0.00871200 -0.07766600 0.01327500
v -0.00870900 -0.00248200 0.01327500
v 0.00846000 -0.00248200 0.01327500
v -0.00870900 -0.07766600 0.01327500
v -0.02612900 -0.00248200 0.01327500
v -0.00896000 -0.00248200 0.01327500
v -0.02612900 -0.07766600 0.01327500
v -0.04355000 -0.00248200 0.01327500
v -0.02638100 -0.00248200 0.01327500
v -0.04355000 -0.07766600 0.01327500
v -0.02638100 -0.07766600 0.01327500
v -0.00896000 -0.07766600 0.01327500
v 0.00846000 -0.07766600 0.01327500
v 0.02588100 -0.07766600 0.01327500
v 0.04329100 -0.07766600 0.01327500
v -0.04355000 -0.00248200 0.01344300
v -0.02638100 -0.00248200 0.01344300
v -0.02638100 -0.07766600 0.01344300
v -0.04355000 -0.07766600 0.01344300
v -0.00896000 0.00359400 0.01344300
v -0.02612900 0.00359400 0.01344300
v -0.02612900 0.07880900 0.01344300
v -0.00896000 0.07880900 0.01344300
v -0.00870900 -0.07766600 0.01344300
v -0.00870900 -0.00248200 0.01344300
v 0.00846000 -0.07766600 0.01344300
v 0.00846000 -0.00248200 0.01344300
v 0.02588100 0.00359400 0.01344300
v 0.00871200 0.00359400 0.01344300
v 0.00871200 0.07880900 0.01344300
v 0.02588100 0.07880900 0.01344300
v 0.04329100 0.00359400 0.01344300
v 0.04329100 0.07880900 0.01344300
v 0.02604900 0.07880900 0.01344300
v 0.02604900 0.00359400 0.01344300
v 0.04329100 -0.07766600 0.01344300
v 0.04329100 -0.00248200 0.01344300
v 0.02604900 -0.07766600 0.01344300
v 0.02604900 -0.00248200 0.01344300
v 0.05021700 -0.07766600 0.00286600
v 0.05021700 0.00057000 0.00253000
v 0.05021700 0.00057000 0.00286600
v 0.05021700 -0.07766600 0.00253000
v 0.05021700 0.07880700 0.00253000
v 0.05021700 0.07880700 0.00286600
v -0.05051700 0.07880700 0.00286600
v -0.05051700 0.00057000 0.00253000
v -0.05051700 0.00057000 0.00286600
v -0.05051700 0.07880700 0.00253000
v -0.05051700 -0.07766600 0.00253000
v -0.05051700 -0.07766600 0.00286600
v -0.04363400 -0.08455000 0.00253000
v 0.04333300 -0.08455000 0.00286600
v -0.04363400 -0.08455000 0.00286600
v 0.04333300 -0.08455000 0.00253000
v 0.04333300 0.08569100 0.00253000
v -0.04363400 0.08569100 0.00286600
v 0.04333300 0.08569100 0.00286600
v -0.04363400 0.08569100 0.00253000
v 0.04333300 -0.08522200 0.00874200
v 0.04333300 -0.07766600 0.00874200
v 0.05021700 -0.08522200 0.00874200
v 0.05088800 -0.07766600 0.00874200
v 0.05088800 -0.08455000 0.00874200
v 0.05021700 -0.08522200 -0.06714400
v 0.05088800 -0.08455000 -0.06714400
v 0.04333300 -0.08522200 -0.06714400
v 0.05088800 -0.07766600 -0.06714400
v 0.04333300 -0.07766600 -0.06714400
v 0.05021700 -0.08555700 -0.06714400
v 0.05122400 -0.08455000 -0.06714400
v 0.05122400 -0.07733100 -0.06714400
v 0.04299700 -0.07733100 -0.06714400
v 0.04299700 -0.08555700 -0.06714400
v 0.05021700 -0.08555700 -0.06748000
v 0.05122400 -0.08455000 -0.06748000
v 0.05074400 -0.08716500 -0.06983100
v 0.05021700 -0.08589300 -0.06748000
v 0.05283200 -0.08507700 -0.06983100
v 0.05156000 -0.08455000 -0.06748000
v 0.04139000 -0.08716500 -0.06983100
v 0.04266200 -0.08589300 -0.06748000
v 0.05122400 -0.07733100 -0.06748000
v 0.04299700 -0.07733100 -0.06748000
v 0.04299700 -0.08555700 -0.06748000
v 0.04139000 -0.07572300 -0.06983100
v 0.04266200 -0.07699500 -0.06748000
v 0.05283200 -0.07572300 -0.06983100
v 0.05156000 -0.07699500 -0.06748000
v -0.05118900 -0.07766600 0.00874200
v -0.05051700 -0.08522200 0.00874200
v -0.05118900 -0.08455000 0.00874200
v -0.04363400 -0.07766600 0.00874200
v -0.04363400 -0.08522200 0.00874200
v -0.05118900 -0.08455000 -0.06714400
v -0.05051700 -0.08522200 -0.06714400
v -0.04363400 -0.08522200 -0.06714400
v -0.05118900 -0.07766600 -0.06714400
v -0.04363400 -0.07766600 -0.06714400
v -0.05152500 -0.08455000 -0.06714400
v -0.05051700 -0.08555700 -0.06714400
v -0.04329800 -0.08555700 -0.06714400
v -0.04329800 -0.07733100 -0.06714400
v -0.05152500 -0.07733100 -0.06714400
v -0.05152500 -0.08455000 -0.06748000
v -0.05051700 -0.08555700 -0.06748000
v -0.05051700 -0.08589300 -0.06748000
v -0.05313200 -0.08507700 -0.06983100
v -0.05186000 -0.08455000 -0.06748000
v -0.05104400 -0.08716500 -0.06983100
v -0.04169000 -0.08716500 -0.06983100
v -0.04296200 -0.08589300 -0.06748000
v -0.05152500 -0.07733100 -0.06748000
v -0.04329800 -0.07733100 -0.06748000
v -0.04329800 -0.08555700 -0.06748000
v -0.04169000 -0.07572300 -0.06983100
v -0.04296200 -0.07699500 -0.06748000
v -0.05313200 -0.07572300 -0.06983100
v -0.05186000 -0.07699500 -0.06748000
v -0.04363400 0.08636300 0.00874200
v -0.04363400 0.07880700 0.00874200
v -0.05051700 0.08636300 0.00874200
v -0.05118900 0.07880700 0.00874200
v -0.05118900 0.08569100 0.00874200
v -0.05051700 0.08636300 -0.06714400
v -0.05118900 0.08569100 -0.06714400
v -0.04363400 0.08636300 -0.06714400
v -0.05118900 0.07880700 -0.06714400
v -0.04363400 0.07880700 -0.06714400
v -0.05051700 0.08669900 -0.06714400
v -0.05152500 0.08569100 -0.06714400
v -0.05152500 0.07847100 -0.06714400
v -0.04329800 0.07847100 -0.06714400
v -0.04329800 0.08669900 -0.06714400
v -0.05051700 0.08669900 -0.06748000
v -0.05152500 0.08569100 -0.06748000
v -0.05104400 0.08830500 -0.06983100
v -0.05051700 0.08703500 -0.06748000
v -0.05313200 0.08621800 -0.06983100
v -0.05186000 0.08569100 -0.06748000
v -0.04169000 0.08830500 -0.06983100
v -0.04296200 0.08703500 -0.06748000
v -0.05152500 0.07847100 -0.06748000
v -0.04329800 0.07847100 -0.06748000
v -0.04329800 0.08669900 -0.06748000
v -0.04169000 0.07686400 -0.06983100
v -0.04296200 0.07813500 -0.06748000
v -0.05313200 0.07686400 -0.06983100
v -0.05186000 0.07813500 -0.06748000
v 0.05088800 0.07880700 0.00874200
v 0.05021700 0.08636300 0.00874200
v 0.05088800 0.08569100 0.00874200
v 0.04333300 0.07880700 0.00874200
v 0.04333300 0.08636300 0.00874200
v 0.05088800 0.08569100 -0.06714400
v 0.05021700 0.08636300 -0.06714400
v 0.04333300 0.08636300 -0.06714400
v 0.05088800 0.07880700 -0.06714400
v 0.04333300 0.07880700 -0.06714400
v 0.05122400 0.08569100 -0.06714400
v 0.05021700 0.08669900 -0.06714400
v 0.04299700 0.08669900 -0.06714400
v 0.04299700 0.07847100 -0.06714400
v 0.05122400 0.07847100 -0.06714400
v 0.05122400 0.08569100 -0.06748000
v 0.05021700 0.08669900 -0.06748000
v 0.05021700 0.08703500 -0.06748000
v 0.05283200 0.08621800 -0.06983100
v 0.05156000 0.08569100 -0.06748000
v 0.05074400 0.08830500 -0.06983100
v 0.04139000 0.08830500 -0.06983100
v 0.04266200 0.08703500 -0.06748000
v 0.05122400 0.07847100 -0.06748000
v 0.04299700 0.07847100 -0.06748000
v 0.04299700 0.08669900 -0.06748000
v 0.04139000 0.07686400 -0.06983100
v 0.04266200 0.07813500 -0.06748000
v 0.05283200 0.07686400 -0.06983100
v 0.05156000 0.07813500 -0.06748000
v 0.05055300 -0.07766600 0.00286600
v 0.05055300 -0.07766600 0.00874200
v 0.05055300 0.00057000 0.00286600
v 0.05055300 0.00057000 0.00874200
v 0.04920900 -0.07766600 0.00874200
v 0.04920900 -0.07766600 0.00152300
v 0.04920900 0.00057000 0.00874200
v 0.04920900 0.00057000 0.00152300
v 0.05055300 0.00057000 0.00152300
v 0.05055300 -0.07766600 0.00152300
v 0.04920900 0.07880700 0.00152300
v 0.04920900 0.07880700 0.00874200
v 0.05055300 0.07880700 0.00286600
v 0.05055300 0.07880700 0.00874200
v 0.05055300 0.07880700 0.00152300
v 0.05055300 -0.07766600 0.00253000
v 0.05055300 0.00057000 0.00253000
v 0.05055300 0.07880700 0.00253000
v -0.05085300 0.07880700 0.00286600
v -0.05085300 0.07880700 0.00874200
v -0.05085300 0.00057000 0.00286600
v -0.05085300 0.00057000 0.00874200
v -0.04951000 0.07880700 0.00874200
v -0.04951000 0.07880700 0.00152300
v -0.04951000 0.00057000 0.00874200
v -0.04951000 0.00057000 0.00152300
v -0.05085300 0.00057000 0.00152300
v -0.05085300 0.07880700 0.00152300
v -0.04951000 -0.07766600 0.00152300
v -0.04951000 -0.07766600 0.00874200
v -0.05085300 -0.07766600 0.00286600
v -0.05085300 -0.07766600 0.00874200
v -0.05085300 -0.07766600 0.00152300
v -0.05085300 0.07880700 0.00253000
v -0.05085300 0.00057000 0.00253000
v -0.05085300 -0.07766600 0.00253000
v -0.04363400 -0.08488600 0.00874200
v -0.04363400 -0.08488600 0.00286600
v -0.04363400 -0.08354300 0.00874200
v -0.04363400 -0.08488600 0.00253000
v -0.04363400 -0.08488600 0.00152300
v -0.04363400 -0.08354300 0.00152300
v 0.04333300 -0.08354300 0.00152300
v 0.04333300 -0.08354300 0.00874200
v 0.04333300 -0.08488600 0.00152300
v 0.04333300 -0.08488600 0.00253000
v 0.04333300 -0.08488600 0.00286600
v 0.04333300 -0.08488600 0.00874200
v 0.04333300 0.08602700 0.00874200
v 0.04333300 0.08602700 0.00286600
v 0.04333300 0.08468400 0.00874200
v 0.04333300 0.08602700 0.00253000
v 0.04333300 0.08602700 0.00152300
v 0.04333300 0.08468400 0.00152300
v -0.04363400 0.08468400 0.00152300
v -0.04363400 0.08468400 0.00874200
v -0.04363400 0.08602700 0.00152300
v -0.04363400 0.08602700 0.00253000
v -0.04363400 0.08602700 0.00286600
v -0.04363400 0.08602700 0.00874200
v 0.05088800 -0.08589300 0.00874200
v 0.05088800 -0.08589300 0.01008500
v 0.05156000 -0.08522200 0.00874200
v 0.05156000 -0.08522200 0.01008500
v -0.05118900 -0.08589300 0.00874200
v -0.05118900 -0.08589300 0.01008500
v -0.05186000 -0.08522200 0.01008500
v -0.05186000 -0.08522200 0.00874200
v 0.05156000 0.00057000 0.00874200
v 0.05156000 0.00057000 0.01008500
v -0.05186000 0.00057000 0.01008500
v -0.05186000 0.00057000 0.00874200
v 0.05156000 0.08636300 0.00874200
v 0.05156000 0.08636300 0.01008500
v -0.05186000 0.08636300 0.01008500
v -0.05186000 0.08636300 0.00874200
v -0.05118900 0.08703500 0.00874200
v 0.05088800 0.08703500 0.00874200
v 0.05088800 0.08703500 0.01008500
v -0.05118900 0.08703500 0.01008500
vn 0.00000000 0.00000000 -0.00000000
vn -0.00000000 -0.00000000 0.00000000
vn 0.00000000 -0.00000000 0.00000000
vn -0.00000000 0.00000000 -0.00000000
vn 0.00000000 0.00000000 0.00000000
vn -0.00000000 -0.00000000 -0.00000000
vn 0.00000000 0.00000000 0.00000000
vn -0.00000000 -0.00000000 0.00000000
vn -0.00000000 -0.00000000 -0.00000000
vn -0.00000000 0.00000000 -0.00000000
vn -0.00000000 0.00000000 -0.00000000
vn 0.00000000 0.00000000 0.00000000
vn 0.77983337 -0.00042761 0.62598701
vn -0.76504141 0.64397883 0.00170637
vn 0.00000000 0.00000000 -0.00000000
vn 0.00000000 -0.00000000 -0.00000000
vn 0.00000000 0.00000000 -0.00000000
vn -0.00000000 -0.00000000 0.00000000
vn 0.00000000 -0.00000000 0.00000000
vn -0.00000000 -0.00000000 -0.00000000
vn 0.00000000 0.00000000 0.00000000
vn -0.00000000 0.00000000 -0.00000000
vn -0.00000000 0.00000000 0.00000000
vn -0.00000000 -0.00000000 0.00000000
vn -0.00000000 0.00000000 -0.00000000
vn 0.00000000 -0.00000000 0.00000000
vn -0.00000000 -0.00000000 0.00000000
vn -0.00000000 0.00000000 0.00000000
vn 0.00000000 -0.00000000 -0.00000000
vn 0.00000000 0.00000000 -0.00000000
vn 1.00000000 0.00000000 0.00000000
vn -0.00000000 -0.00000000 0.00000000
vn 0.00000000 0.00000000 -0.00000000
vn -0.00000000 0.00000000 0.00000000
vn -0.00000000 -0.00000000 0.00000000
vn 0.00000000 -0.00000000 -0.00000000
vn 0.00000000 0.00000000 -0.00000000
vn 0.00000000 -0.00000000 0.00000000
vn 0.00000000 0.00000000 0.00000000
vn -0.00000000 -0.00000000 -0.00000000
vn -0.00000000 0.00000000 -0.00000000
vn -0.00000000 -0.00000000 0.00000000
vn -0.00000000 -0.00000000 0.00000000
vn -0.00000000 0.00000000 -0.00000000
vn 0.00000000 -0.00000000 0.00000000
vn 0.99772983 0.04763179 0.04760675
vn -0.99999977 0.00048450 -0.00048450
vn -0.00000000 0.00000000 0.00000000
vn 0.00000000 -0.00000000 -0.00000000
vn 0.00000000 0.00000000 0.00000000
vn 0.00000000 0.00000000 0.00000000
vn -0.00046098 0.00139982 0.99999891
vn 0.00000000 0.00000000 -0.00000000
vn -0.00000000 0.00000000 0.00000000
vn 0.00000000 0.00000000 0.00000000
vn -0.00000000 0.00000000 -0.00000000
vn 0.00000000 0.00000000 -0.00000000
vn -0.00000000 0.00000000 0.00000000
vn 0.00000000 0.00000000 0.00000000
vn -0.00000000 0.00000000 -0.00000000
vn 0.00000000 0.00000000 0.00000000
vn -0.00000000 0.00000000 -0.00000000
vn 0.00000000 0.00000000 -0.00000000
vn -0.00000000 0.00000000 0.00000000
vn 0.00000000 0.00000000 0.00000000
vn -0.00000000 0.00000000 -0.00000000
vn 0.00000000 0.00000000 -0.00000000
vn -0.00000000 0.00000000 0.00000000
vn 0.00188000 0.00000000 -0.99999823
vn -0.00000000 0.00000000 0.00000000
vn 0.00000000 -0.00000000 0.00000000
vn 0.00000000 0.00000000 -0.00000000
vn -0.00000000 0.00000000 -0.00000000
vn 0.00000000 0.00000000 -0.00000000
vn -0.00000000 0.00000000 0.00000000
vn 0.00000000 0.00000000 0.00000000
vn 0.00126880 0.00000000 -0.99999920
vn -0.00000000 0.00000000 0.00000000
vn 0.00000000 -0.00000000 -0.00000000
vn 0.00000000 0.00000000 -0.00000000
vn -0.00000000 0.00000000 -0.00000000
vn 0.00000000 0.00000000 -0.00000000
vn -0.00000000 0.00000000 0.00000000
vn 0.00000000 0.00000000 -0.00000000
vn 0.00187838 0.00000000 0.99999824
vn -0.00000000 0.00000000 0.00000000
vn 0.00000000 -0.00000000 0.00000000
vn 0.00000000 0.00000000 -0.00000000
vn -0.00000000 0.00000000 -0.00000000
vn 0.00000000 0.00000000 -0.00000000
vn -0.00000000 0.00000000 0.00000000
vn 0.00000000 0.00000000 -0.00000000
vn 0.00126880 0.00000000 -0.99999920
vn -0.00000000 0.00000000 0.00000000
vn 0.00000000 -0.00000000 -0.00000000
vn 0.00000000 0.00000000 -0.00000000
vn -0.00000000 0.00000000 -0.00000000
vn 0.00000000 0.00000000 0.00000000
vn -0.00000000 0.00000000 0.00000000
vn 0.00000000 0.00000000 0.00000000
vn 0.00000000 -0.00000000 -0.00000000
vn 0.00000000 0.00000000 -0.00000000
vn 0.09866546 -0.00422852 0.99511168
vn 0.00389968 -0.99954944 -0.02976071
vn -0.00000000 -0.00000000 0.00000000
vn 0.00000000 0.00000000 -0.00000000
vn -0.00000000 -0.00000000 0.00000000
vn 0.00000000 0.00000000 0.00000000
vn 0.00329424 -0.02123483 -0.99976909
vn -0.00000000 0.00000000 -0.00000000
vn 0.00000000 -0.00000000 -0.00000000
vn 0.00000000 0.00000000 -0.00000000
vn -0.05090746 -0.00198410 -0.99870140
vn -0.00056401 0.00001901 0.99999984
vn 0.00000000 0.00000000 0.00000000
vn -0.00000000 0.00000000 0.00000000
vn -0.00035694 0.00000000 -0.99999994
vn 0.00000000 0.00000000 0.00000000
vn 0.00000000 0.00000000 0.00000000
vn -0.00000000 0.00000000 0.00000000
vn -0.00043174 0.00000000 -0.99999991
vn 0.00000000 0.00000000 -0.00000000
vn 0.00000000 0.00000000 0.00000000
vn -0.00000000 0.00000000 0.00000000
vn -0.00035728 0.00000000 -0.99999994
vn 0.00000000 0.00000000 -0.00000000
vn 0.00000000 0.00000000 -0.00000000
vn -0.00000000 0.00000000 -0.00000000
vn -0.00073740 0.00000000 -0.99999973
vn 0.00000000 0.00000000 0.00000000
vn -0.00000000 0.00000000 0.00000000
vn 0.16001409 -0.00031591 -0.98711468
vn -0.00000000 0.00000000 0.00000000
vn 0.29854341 -0.00058939 0.95439587
vn -0.00000000 0.00000000 0.00000000
vn 0.00000000 -0.00000000 -0.00000000
vn -0.00000000 0.00000000 0.00000000
vn 0.00000000 -0.00000000 -0.00000000
vn -0.00000000 -0.00000000 0.00000000
vn 0.00000000 -0.00000000 -0.00000000
vn 0.00202028 0.00000000 -0.99999796
vn -0.00000000 0.00000000 -0.00000000
vn 0.00112757 0.00000000 -0.99999936
vn -0.00000000 0.00000000 0.00000000
vn 0.00444989 0.00000000 0.99999010
vn -0.00000000 0.00000000 0.00000000
vn 0.12768381 0.00000000 0.99181492
vn -0.00000000 0.00000000 -0.00000000
vn 0.27307106 0.01233224 0.96191482
vn -0.00000000 0.00000000 -0.00000000
vn 0.00000000 -0.00000000 -0.00000000
vn -0.00000000 0.00000000 0.00000000
vn -0.00018517 -0.00014402 0.99999997
vn 0.00000000 0.00000000 0.00000000
vn 0.00000000 0.00000000 -0.00000000
vn 0.00044104 -0.00016077 -0.99999989
vn -0.00227527 0.00083723 -0.99999706
vn 0.00000000 0.00000000 0.00000000
vn 0.00120815 -0.00001870 0.99999927
vn -0.00056453 0.00000882 -0.99999984
vn 0.00000000 0.00000000 -0.00000000
vn 0.00063240 -0.00000954 0.99999980
vn -0.00062641 0.00000954 -0.99999980
vn 0.00000000 0.00000000 -0.00000000
vn 0.00123368 -0.00001862 0.99999924
vn -0.00020194 0.00000308 0.99999998
vn 0.00000000 0.00000000 -0.00000000
vn 0.00063187 -0.00000954 0.99999980
vn -0.00012279 0.00000187 -0.99999999
vn -0.00020333 0.00000000 -0.99999998
vn -0.00063658 0.00000000 0.99999980
vn -0.00056038 0.00000000 0.99999984
vn -0.00230946 0.00000000 0.99999733
vn -0.01305358 -0.00456875 0.99990436
vn -0.00000000 0.00000000 -0.00000000
vn -0.00000000 0.00000000 0.00000000
vn 0.00000000 0.00000000 -0.00000000
vn 0.00000000 0.00000000 0.00000000
vn 0.00000000 0.00000000 0.00000000
vn 0.00000000 0.00000000 -0.00000000
vn -0.00000000 0.00000000 0.00000000
vn -0.00000000 0.00000000 -0.00000000
vn 0.00000000 0.00000000 0.00000000
vn -0.00000000 0.00000000 -0.00000000
vn 0.00000000 0.00000000 -0.00000000
vn -0.00000000 0.00000000 0.00000000
vn 0.00000000 0.00000000 0.00000000
vn 0.00000000 0.00000000 -0.00000000
vn -0.00000000 0.00000000 0.00000000
vn -0.00000000 0.00000000 -0.00000000
vn 0.00000000 0.00000000 0.00000000
vn -0.00000000 0.00000000 -0.00000000
vn -0.00000000 -0.00000000 0.00000000
vn 0.00000000 -0.00000000 -0.00000000
vn 0.00000000 0.00000000 0.00000000
vn -0.00000000 0.00000000 0.00000000
vn 0.00000000 -0.00000000 0.00000000
vn -0.00000000 -0.00000000 0.00000000
vn 0.00000000 -0.00000000 -0.00000000
vn 0.00000000 -0.00000000 -0.00000000
vn -0.00000000 0.00000000 0.00000000
vn -0.00000000 0.00000000 0.00000000
vn 0.00000000 -0.00000000 -0.00000000
vn -0.00000000 0.00000000 0.00000000
vn -0.00000000 -0.00000000 -0.00000000
vn 0.00000000 -0.00000000 0.00000000
vn -0.00000000 0.00000000 -0.00000000
vn 0.00000000 0.00000000 0.00000000
vn -0.00000000 -0.00000000 -0.00000000
vn 0.00000000 0.00000000 0.00000000
vn 0.00000000 0.00000000 -0.00000000
vn -0.00000000 0.00000000 0.00000000
vn -0.00000000 -0.00000000 -0.00000000
vn 0.00000000 -0.00000000 0.00000000
vn -0.00000000 -0.00000000 -0.00000000
vn 0.00000000 -0.00000000 0.00000000
vn 0.00000000 0.00000000 -0.00000000
vn 0.00000000 0.00000000 0.00000000
vn 0.00000000 -0.00000000 0.00000000
vn -0.00000000 0.00000000 -0.00000000
vn -0.00000000 0.00000000 0.00000000
vn 0.00000000 -0.00000000 -0.00000000
vn 0.00000000 -0.00000000 0.00000000
vn 0.00000000 -0.00000000 0.00000000
vn -0.00000000 0.00000000 0.00000000
vn -0.00000000 0.00000000 0.00000000
vn -0.00000000 0.00000000 0.00000000
vn 0.00000000 -0.00000000 0.00000000
vn 0.00000000 -0.00000000 -0.00000000
vn -0.00000000 -0.00000000 0.00000000
vn 0.00000000 -0.00000000 -0.00000000
vn 0.00000000 0.00000000 -0.00000000
vn -0.00000000 0.00000000 -0.00000000
vn 0.00000000 0.00000000 -0.00000000
vn 0.00000000 0.00000000 0.00000000
vn -0.00000000 0.00000000 -0.00000000
vn 0.00000000 -0.00000000 0.00000000
vn 0.00000000 -0.00000000 0.00000000
vn 0.00000000 0.00000000 -0.00000000
vn 0.00000000 -0.00000000 0.00000000
vn -0.00000000 0.00000000 -0.00000000
vn -0.00000000 0.00000000 -0.00000000
vn -0.00000000 -0.00000000 -0.00000000
vn 0.00000000 -0.00000000 0.00000000
vn -0.00000000 -0.00000000 -0.00000000
vn 0.00000000 0.00000000 0.00000000
vn 0.00000000 0.00000000 0.00000000
vn -0.00000000 -0.00000000 0.00000000
vn 0.00000000 0.00000000 -0.00000000
vn 0.00000000 0.00000000 0.00000000
vn -0.00000000 -0.00000000 0.00000000
vn -0.00000000 -0.00000000 -0.00000000
vn 0.00000000 0.00000000 0.00000000
vn 0.00000000 0.00000000 -0.00000000
vn -0.00000000 -0.00000000 0.00000000
vn -0.00000000 -0.00000000 -0.00000000
vn -0.00000000 -0.00000000 -0.00000000
vn 0.00000000 0.00000000 -0.00000000
vn -0.00000000 -0.00000000 0.00000000
vn 0.00000000 -0.00000000 0.00000000
vn -0.00000000 0.00000000 -0.00000000
vn 0.00000000 -0.00000000 0.00000000
vn 0.00000000 0.00000000 0.00000000
vn 0.00000000 0.00000000 0.00000000
vn 0.00000000 0.00000000 -0.00000000
vn -0.00000000 0.00000000 -0.00000000
vn 0.00000000 0.00000000 -0.00000000
vn 0.00000000 0.00000000 0.00000000
vn -0.00000000 -0.00000000 0.00000000
vn 0.00000000 -0.00000000 0.00000000
vn -0.00000000 0.00000000 0.00000000
vn -0.00000000 -0.00000000 -0.00000000
vn -0.00000000 0.00000000 0.00000000
vn 0.00000000 -0.00000000 0.00000000
vn -0.00000000 0.00000000 -0.00000000
vn 0.00000000 -0.00000000 -0.00000000
vn 0.00000000 -0.00000000 -0.00000000
vn -0.00000000 0.00000000 -0.00000000
vn -0.00000000 0.00000000 -0.00000000
vn 0.00000000 -0.00000000 0.00000000
vn -0.00000000 0.00000000 0.00000000
vn -0.00000000 0.00000000 0.00000000
vn 0.00000000 -0.00000000 -0.00000000
vn 0.00000000 -0.00000000 0.00000000
vn -0.00000000 0.00000000 0.00000000
vn 0.00000000 -0.00000000 -0.00000000
vn 0.00000000 -0.00000000 0.00000000
vn -0.00000000 0.00000000 0.00000000
vn -0.00000000 -0.00000000 -0.00000000
vn -0.00000000 -0.00000000 0.00000000
vn 0.00000000 0.00000000 -0.00000000
vn 0.00000000 -0.00000000 0.00000000
vn -0.00000000 0.00000000 -0.00000000
vn 0.00000000 0.00000000 0.00000000
vn 0.00000000 0.00000000 -0.00000000
vn -0.00000000 0.00000000 0.00000000
vn 0.00000000 -0.00000000 0.00000000
vn 0.00000000 -0.00000000 0.00000000
vn -0.00000000 0.00000000 -0.00000000
vn -0.00000000 -0.00000000 -0.00000000
vn 0.00000000 0.00000000 -0.00000000
vn -0.00000000 -0.00000000 0.00000000
vn -0.00000000 0.00000000 -0.00000000
vn 0.00000000 -0.00000000 -0.00000000
vn 0.00000000 0.00000000 0.00000000
vn -0.00000000 -0.00000000 0.00000000
vn -0.00000000 -0.00000000 0.00000000
vn 0.00000000 0.00000000 0.00000000
vn -0.00000000 -0.00000000 0.00000000
vn 0.00000000 0.00000000 0.00000000
vn -0.00000000 -0.00000000 -0.00000000
vn 0.00000000 0.00000000 0.00000000
vn -0.00000000 -0.00000000 0.00000000
vn 0.00000000 0.00000000 -0.00000000
vn -0.00000000 -0.00000000 -0.00000000
vn 0.00000000 0.00000000 0.00000000
vn 0.00000000 0.00000000 -0.00000000
vn -0.00000000 -0.00000000 -0.00000000
vn -0.00000000 0.00000000 -0.00000000
vn -0.00000000 -0.00000000 -0.00000000
vn -0.00000000 0.00000000 0.00000000
vn 0.00000000 0.00000000 0.00000000
vn 0.00000000 -0.00000000 0.00000000
vn 0.00000000 -0.00000000 0.00000000
vn 0.00000000 0.00000000 -0.00000000
vn 0.00000000 0.00000000 0.00000000
vn 0.00000000 0.00000000 -0.00000000
vn -0.00000000 0.00000000 0.00000000
vn -0.00000000 -0.00000000 -0.00000000
vn -0.00000000 0.00000000 0.00000000
vn 0.00000000 -0.00000000 -0.00000000
vn -0.00000000 0.00000000 0.00000000
vn -0.00000000 -0.00000000 -0.00000000
vn 0.00000000 -0.00000000 0.00000000
vn 0.00000000 -0.00000000 -0.00000000
vn -0.00000000 0.00000000 -0.00000000
vn -0.00000000 0.00000000 -0.00000000
vn 0.00000000 -0.00000000 -0.00000000
vn -0.00000000 -0.00000000 0.00000000
vn 0.00000000 0.00000000 -0.00000000
vn 0.00000000 0.00000000 -0.00000000
vn -0.00000000 0.00000000 -0.00000000
vn 0.00000000 0.00000000 0.00000000
vn -0.00000000 -0.00000000 -0.00000000
vn -0.00000000 0.00000000 0.00000000
vn 0.00000000 0.00000000 -0.00000000
vn 0.00000000 -0.00000000 0.00000000
vn -0.00000000 0.00000000 0.00000000
vn -0.00000000 0.00000000 0.00000000
vn 0.00000000 0.00000000 -0.00000000
vn 0.00000000 0.00000000 -0.00000000
vn -0.00000000 0.00000000 0.00000000
vn 0.00000000 -0.00000000 -0.00000000
vn 0.00000000 -0.00000000 -0.00000000
vn -0.00000000 -0.00000000 0.00000000
vn -0.00000000 -0.00000000 0.00000000
vn 0.00000000 0.00000000 0.00000000
vn -0.00000000 -0.00000000 -0.00000000
vn 0.00000000 0.00000000 0.00000000
vn -0.00000000 0.00000000 0.00000000
vn -0.00000000 0.00000000 0.00000000
vn 0.00000000 0.00000000 -0.00000000
vn 0.00000000 0.00000000 -0.00000000
vn -0.00000000 -0.00000000 0.00000000
vn 0.00000000 0.00000000 -0.00000000
vn 0.00000000 0.00000000 0.00000000
vn 0.00000000 -0.00000000 0.00000000
vn -0.00000000 0.00000000 -0.00000000
vn -0.00000000 0.00000000 -0.00000000
vn 0.00000000 0.00000000 0.00000000
vn -0.00000000 0.00000000 -0.00000000
vn -0.00000000 0.00000000 -0.00000000
vn -0.00000000 0.00000000 -0.00000000
vn 0.00000000 0.00000000 0.00000000
vn 0.00000000 -0.00000000 -0.00000000
vn -0.00000000 0.00000000 0.00000000
vn 0.00000000 0.00000000 0.00000000
vn -0.00000000 0.00000000 0.00000000
vn -0.00000000 -0.00000000 -0.00000000
vn -0.00000000 -0.00000000 0.00000000
vn -0.00000000 0.00000000 -0.00000000
vn 0.00000000 -0.00000000 -0.00000000
vn -0.00000000 0.00000000 0.00000000
vn 0.00000000 -0.00000000 -0.00000000
vn 0.00000000 -0.00000000 -0.00000000
vn -0.00000000 0.00000000 0.00000000
vn -0.00000000 0.00000000 -0.00000000
vn -0.00000000 -0.00000000 0.00000000
vn -0.00000000 -0.00000000 0.00000000
vn 0.00000000 -0.00000000 0.00000000
vn 0.00000000 0.00000000 -0.00000000
vn 0.00000000 0.00000000 0.00000000
vn 0.00000000 -0.00000000 -0.00000000
vn -0.00000000 0.00000000 -0.00000000
vn 0.00000000 -0.00000000 0.00000000
vn -0.00000000 0.00000000 -0.00000000
vn -0.00000000 0.00000000 -0.00000000
vn 0.00000000 -0.00000000 0.00000000
vn 0.00000000 0.00000000 -0.00000000
vn -0.00000000 -0.00000000 0.00000000
vn 0.00000000 0.00000000 0.00000000
vn -0.00000000 -0.00000000 -0.00000000
vn -0.00000000 -0.00000000 -0.00000000
vn 0.00000000 0.00000000 0.00000000
vn -0.00000000 0.00000000 -0.00000000
vn 0.00000000 0.00000000 0.00000000
vn -0.00000000 0.00000000 -0.00000000
vn 0.00000000 -0.00000000 0.00000000
vn 0.00000000 0.00000000 0.00000000
vn -0.00000000 -0.00000000 -0.00000000
vn 0.00000000 0.00000000 0.00000000
vn -0.00000000 -0.00000000 -0.00000000
vn -0.00000000 0.00000000 -0.00000000
vn 0.00000000 0.00000000 0.00000000
vn 0.00000000 -0.00000000 -0.00000000
vn -0.00000000 0.00000000 0.00000000
vn 0.00000000 -0.00000000 0.00000000
vn 0.00000000 0.00000000 0.00000000
f 1//1 2//2 3//3
f 4//4 3//3 2//2
f 2//2 5//5 4//4
f 6//6 4//4 5//5
f 7//7 8//8 9//9
f 10//10 9//9 8//8
f 8//8 11//11 10//10
f 12//12 10//10 11//11
f 1//1 13//13 2//2
f 14//14 2//2 13//13
f 12//12 11//11 15//15
f 16//16 15//15 11//11
f 14//14 16//16 11//11
f 13//13 16//16 14//14
f 17//17 18//18 8//8
f 11//11 8//8 18//18
f 19//19 17//17 7//7
f 8//8 7//7 17//17
f 11//11 18//18 14//14
f 20//20 14//14 18//18
f 21//21 22//22 23//23
f 24//24 23//23 22//22
f 25//25 26//26 21//21
f 14//14 22//22 2//2
f 27//27 2//2 22//22
f 5//5 2//2 27//27
f 26//26 27//27 22//22
f 21//21 26//26 22//22
f 24//24 28//28 23//23
f 29//29 23//23 28//28
f 7//7 9//9 30//30
f 31//31 30//30 9//9
f 12//12 15//15 10//10
f 32//32 10//10 15//15
f 9//9 10//10 32//32
f 31//31 9//9 32//32
f 33//33 34//34 35//35
f 36//36 35//35 34//34
f 37//37 38//38 24//24
f 28//28 24//24 38//38
f 22//22 39//39 24//24
f 37//37 24//24 39//39
f 14//14 20//20 22//22
f 39//39 22//22 20//20
f 19//19 7//7 40//40
f 30//30 40//40 7//7
f 20//20 18//18 41//41
f 17//17 41//41 18//18
f 19//19 41//41 17//17
f 40//40 41//41 19//19
f 21//21 23//23 25//25
f 42//42 25//25 23//23
f 29//29 42//42 23//23
f 43//43 42//42 29//29
f 44//44 43//43 28//28
f 29//29 28//28 43//43
f 30//30 31//31 45//45
f 46//46 45//45 31//31
f 47//47 45//45 46//46
f 35//35 45//45 47//47
f 36//36 45//45 35//35
f 46//46 31//31 32//32
f 34//34 48//48 36//36
f 49//49 36//36 48//48
f 50//50 44//44 38//38
f 28//28 38//38 44//44
f 39//39 20//20 37//37
f 41//41 37//37 20//20
f 38//38 37//37 41//41
f 50//50 38//38 41//41
f 40//40 30//30 41//41
f 45//45 41//41 30//30
f 45//45 36//36 44//44
f 51//51 44//44 36//36
f 52//52 44//44 51//51
f 42//42 44//44 52//52
f 43//43 44//44 42//42
f 51//51 36//36 49//49
f 41//41 45//45 50//50
f 44//44 50//50 45//45
f 11//11 14//14 8//8
f 22//22 8//8 14//14
f 24//24 8//8 22//22
f 28//28 8//8 24//24
f 7//7 8//8 28//28
f 30//30 7//7 28//28
f 44//44 30//30 28//28
f 45//45 30//30 44//44
f 44//44 30//30 45//45
f 28//28 30//30 44//44
f 28//28 7//7 30//30
f 28//28 8//8 7//7
f 24//24 8//8 28//28
f 22//22 8//8 24//24
f 14//14 8//8 22//22
f 8//8 14//14 11//11
f 53//53 54//54 55//55
f 56//56 55//55 54//54
f 57//57 58//58 59//59
f 60//60 59//59 58//58
f 61//61 62//62 63//63
f 64//64 63//63 62//62
f 65//65 66//66 67//67
f 68//68 67//67 66//66
f 69//69 70//70 71//71
f 72//72 71//71 70//70
f 73//73 74//74 75//75
f 76//76 75//75 74//74
f 77//77 78//78 79//79
f 80//80 79//79 78//78
f 81//81 82//82 83//83
f 84//84 83//83 82//82
f 85//85 86//86 87//87
f 88//88 87//87 86//86
f 89//89 90//90 91//91
f 92//92 91//91 90//90
f 93//93 94//94 95//95
f 96//96 95//95 94//94
f 97//97 98//98 99//99
f 100//100 99//99 98//98
f 101//101 4//4 102//102
f 6//6 102//102 4//4
f 27//27 102//102 5//5
f 6//6 5//5 102//102
f 52//52 26//26 42//42
f 25//25 42//42 26//26
f 103//103 51//51 48//48
f 49//49 48//48 51//51
f 34//34 104//104 48//48
f 103//103 48//48 104//104
f 105//105 106//106 107//107
f 108//108 107//107 106//106
f 109//109 110//110 111//111
f 112//112 111//111 110//110
f 33//33 113//113 34//34
f 104//104 34//34 113//113
f 47//47 113//113 35//35
f 33//33 35//35 113//113
f 16//16 46//46 15//15
f 32//32 15//15 46//46
f 114//114 13//13 3//3
f 1//1 3//3 13//13
f 114//114 3//3 101//101
f 4//4 101//101 3//3
f 115//115 116//116 97//97
f 98//98 97//97 116//116
f 117//117 116//116 118//118
f 115//115 118//118 116//116
f 117//117 118//118 93//93
f 94//94 93//93 118//118
f 119//119 120//120 89//89
f 90//90 89//89 120//120
f 121//121 120//120 122//122
f 119//119 122//122 120//120
f 121//121 122//122 85//85
f 86//86 85//85 122//122
f 123//123 124//124 81//81
f 82//82 81//81 124//124
f 125//125 124//124 126//126
f 123//123 126//126 124//124
f 125//125 126//126 77//77
f 78//78 77//77 126//126
f 127//127 128//128 73//73
f 74//74 73//73 128//128
f 129//129 128//128 130//130
f 127//127 130//130 128//128
f 129//129 130//130 69//69
f 70//70 69//69 130//130
f 101//101 102//102 98//98
f 93//93 95//95 90//90
f 131//131 90//90 95//95
f 132//132 90//90 131//131
f 85//85 87//87 82//82
f 133//133 82//82 87//87
f 134//134 82//82 133//133
f 77//77 79//79 74//74
f 135//135 74//74 79//79
f 136//136 74//74 135//135
f 69//69 71//71 106//106
f 137//137 106//106 71//71
f 138//138 106//106 137//137
f 109//109 111//111 104//104
f 139//139 104//104 111//111
f 140//140 104//104 139//139
f 27//27 26//26 102//102
f 52//52 102//102 26//26
f 141//141 102//102 52//52
f 98//98 102//102 141//141
f 100//100 98//98 141//141
f 142//142 100//100 141//141
f 132//132 141//141 52//52
f 143//143 132//132 52//52
f 90//90 132//132 143//143
f 92//92 90//90 143//143
f 144//144 92//92 143//143
f 134//134 143//143 52//52
f 145//145 134//134 52//52
f 82//82 134//134 145//145
f 84//84 82//82 145//145
f 146//146 84//84 145//145
f 136//136 145//145 52//52
f 147//147 136//136 52//52
f 74//74 136//136 147//147
f 76//76 74//74 147//147
f 148//148 76//76 147//147
f 138//138 147//147 52//52
f 149//149 138//138 52//52
f 106//106 138//138 149//149
f 108//108 106//106 149//149
f 150//150 108//108 149//149
f 140//140 149//149 52//52
f 103//103 140//140 52//52
f 104//104 140//140 103//103
f 51//51 103//103 52//52
f 108//108 150//150 111//111
f 139//139 111//111 150//150
f 76//76 148//148 71//71
f 137//137 71//71 148//148
f 84//84 146//146 79//79
f 135//135 79//79 146//146
f 92//92 144//144 87//87
f 133//133 87//87 144//144
f 100//100 142//142 95//95
f 131//131 95//95 142//142
f 151//151 152//152 105//105
f 106//106 105//105 152//152
f 153//153 152//152 154//154
f 151//151 154//154 152//152
f 153//153 154//154 109//109
f 110//110 109//109 154//154
f 155//155 152//152 156//156
f 153//153 156//156 152//152
f 69//69 106//106 157//157
f 155//155 157//157 106//106
f 152//152 155//155 106//106
f 158//158 128//128 159//159
f 129//129 159//159 128//128
f 77//77 74//74 160//160
f 158//158 160//160 74//74
f 128//128 158//158 74//74
f 161//161 124//124 162//162
f 125//125 162//162 124//124
f 85//85 82//82 163//163
f 161//161 163//163 82//82
f 124//124 161//161 82//82
f 164//164 120//120 165//165
f 121//121 165//165 120//120
f 93//93 90//90 166//166
f 164//164 166//166 90//90
f 120//120 164//164 90//90
f 167//167 116//116 168//168
f 117//117 168//168 116//116
f 101//101 98//98 169//169
f 167//167 169//169 98//98
f 116//116 167//167 98//98
f 16//16 13//13 46//46
f 114//114 46//46 13//13
f 169//169 46//46 114//114
f 101//101 169//169 114//114
f 170//170 46//46 169//169
f 166//166 46//46 170//170
f 168//168 166//166 170//170
f 117//117 166//166 168//168
f 93//93 166//166 117//117
f 171//171 46//46 166//166
f 163//163 46//46 171//171
f 165//165 163//163 171//171
f 121//121 163//163 165//165
f 85//85 163//163 121//121
f 172//172 46//46 163//163
f 160//160 46//46 172//172
f 162//162 160//160 172//172
f 125//125 160//160 162//162
f 77//77 160//160 125//125
f 173//173 46//46 160//160
f 157//157 46//46 173//173
f 159//159 157//157 173//173
f 129//129 157//157 159//159
f 69//69 157//157 129//129
f 174//174 46//46 157//157
f 113//113 46//46 174//174
f 156//156 113//113 174//174
f 153//153 113//113 156//156
f 109//109 113//113 153//153
f 47//47 46//46 113//113
f 113//113 109//109 104//104
f 131//131 142//142 55//55
f 53//53 55//55 142//142
f 53//53 142//142 54//54
f 141//141 54//54 142//142
f 131//131 55//55 132//132
f 56//56 132//132 55//55
f 141//141 132//132 54//54
f 56//56 54//54 132//132
f 167//167 168//168 175//175
f 176//176 175//175 168//168
f 170//170 177//177 168//168
f 176//176 168//168 177//177
f 178//178 169//169 175//175
f 167//167 175//175 169//169
f 170//170 169//169 177//177
f 178//178 177//177 169//169
f 133//133 144//144 179//179
f 180//180 179//179 144//144
f 180//180 144//144 181//181
f 143//143 181//181 144//144
f 133//133 179//179 134//134
f 182//182 134//134 179//179
f 143//143 134//134 181//181
f 182//182 181//181 134//134
f 61//61 166//166 62//62
f 164//164 62//62 166//166
f 171//171 166//166 63//63
f 61//61 63//63 166//166
f 171//171 63//63 165//165
f 64//64 165//165 63//63
f 135//135 146//146 59//59
f 57//57 59//59 146//146
f 57//57 146//146 58//58
f 145//145 58//58 146//146
f 135//135 59//59 136//136
f 60//60 136//136 59//59
f 145//145 136//136 58//58
f 60//60 58//58 136//136
f 183//183 163//163 184//184
f 161//161 184//184 163//163
f 172//172 163//163 185//185
f 183//183 185//185 163//163
f 172//172 185//185 162//162
f 186//186 162//162 185//185
f 137//137 148//148 187//187
f 188//188 187//187 148//148
f 188//188 148//148 189//189
f 147//147 189//189 148//148
f 137//137 187//187 138//138
f 190//190 138//138 187//187
f 147//147 138//138 189//189
f 190//190 189//189 138//138
f 173//173 67//67 159//159
f 68//68 159//159 67//67
f 65//65 160//160 66//66
f 158//158 66//66 160//160
f 173//173 160//160 67//67
f 65//65 67//67 160//160
f 139//139 191//191 140//140
f 192//192 140//140 191//191
f 149//149 140//140 193//193
f 192//192 193//193 140//140
f 139//139 150//150 191//191
f 194//194 191//191 150//150
f 194//194 150//150 193//193
f 149//149 193//193 150//150
f 174//174 195//195 156//156
f 196//196 156//156 195//195
f 197//197 157//157 198//198
f 155//155 198//198 157//157
f 174//174 157//157 195//195
f 197//197 195//195 157//157
f 194//194 193//193 191//191
f 192//192 191//191 193//193
f 197//197 198//198 195//195
f 196//196 195//195 198//198
f 41//41 20//20 45//45
f 14//14 45//45 20//20
f 36//36 45//45 14//14
f 104//104 36//36 14//14
f 34//34 36//36 104//104
f 109//109 106//106 110//110
f 105//105 110//110 106//106
f 69//69 74//74 70//70
f 73//73 70//70 74//74
f 77//77 82//82 78//78
f 81//81 78//78 82//82
f 85//85 90//90 86//86
f 89//89 86//86 90//90
f 93//93 98//98 94//94
f 97//97 94//94 98//98
f 2//2 101//101 14//14
f 104//104 14//14 101//101
f 109//109 104//104 101//101
f 106//106 109//109 101//101
f 69//69 106//106 101//101
f 74//74 69//69 101//101
f 77//77 74//74 101//101
f 82//82 77//77 101//101
f 85//85 82//82 101//101
f 90//90 85//85 101//101
f 93//93 90//90 101//101
f 98//98 93//93 101//101
f 4//4 101//101 2//2
f 2//2 101//101 4//4
f 101//101 93//93 98//98
f 101//101 90//90 93//93
f 101//101 85//85 90//90
f 101//101 82//82 85//85
f 101//101 77//77 82//82
f 101//101 74//74 77//77
f 101//101 69//69 74//74
f 101//101 106//106 69//69
f 101//101 109//109 106//106
f 101//101 104//104 109//109
f 101//101 14//14 104//104
f 14//14 101//101 2//2
f 98//98 94//94 97//97
f 94//94 98//98 93//93
f 90//90 86//86 89//89
f 86//86 90//90 85//85
f 82//82 78//78 81//81
f 78//78 82//82 77//77
f 74//74 70//70 73//73
f 70//70 74//74 69//69
f 106//106 110//110 105//105
f 110//110 106//106 109//109
f 104//104 36//36 34//34
f 14//14 36//36 104//104
f 14//14 45//45 36//36
f 20//20 45//45 14//14
f 45//45 20//20 41//41
f 41//41 20//20 45//45
f 14//14 45//45 20//20
f 36//36 45//45 14//14
f 104//104 36//36 14//14
f 34//34 36//36 104//104
f 109//109 106//106 110//110
f 105//105 110//110 106//106
f 69//69 74//74 70//70
f 73//73 70//70 74//74
f 77//77 82//82 78//78
f 81//81 78//78 82//82
f 85//85 90//90 86//86
f 89//89 86//86 90//90
f 93//93 98//98 94//94
f 97//97 94//94 98//98
f 2//2 101//101 14//14
f 104//104 14//14 101//101
f 109//109 104//104 101//101
f 106//106 109//109 101//101
f 69//69 106//106 101//101
f 74//74 69//69 101//101
f 77//77 74//74 101//101
f 82//82 77//77 101//101
f 85//85 82//82 101//101
f 90//90 85//85 101//101
f 93//93 90//90 101//101
f 98//98 93//93 101//101
f 4//4 101//101 2//2
f 2//2 101//101 4//4
f 101//101 93//93 98//98
f 101//101 90//90 93//93
f 101//101 85//85 90//90
f 101//101 82//82 85//85
f 101//101 77//77 82//82
f 101//101 74//74 77//77
f 101//101 69//69 74//74
f 101//101 106//106 69//69
f 101//101 109//109 106//106
f 101//101 104//104 109//109
f 101//101 14//14 104//104
f 14//14 101//101 2//2
f 98//98 94//94 97//97
f 94//94 98//98 93//93
f 90//90 86//86 89//89
f 86//86 90//90 85//85
f 82//82 78//78 81//81
f 78//78 82//82 77//77
f 74//74 70//70 73//73
f 70//70 74//74 69//69
f 106//106 110//110 105//105
f 110//110 106//106 109//109
f 104//104 36//36 34//34
f 14//14 36//36 104//104
f 14//14 45//45 36//36
f 20//20 45//45 14//14
f 45//45 20//20 41//41
f 41//41 20//20 45//45
f 14//14 45//45 20//20
f 36//36 45//45 14//14
f 104//104 36//36 14//14
f 34//34 36//36 104//104
f 109//109 106//106 110//110
f 105//105 110//110 106//106
f 69//69 74//74 70//70
f 73//73 70//70 74//74
f 77//77 82//82 78//78
f 81//81 78//78 82//82
f 85//85 90//90 86//86
f 89//89 86//86 90//90
f 93//93 98//98 94//94
f 97//97 94//94 98//98
f 2//2 101//101 14//14
f 104//104 14//14 101//101
f 109//109 104//104 101//101
f 106//106 109//109 101//101
f 69//69 106//106 101//101
f 74//74 69//69 101//101
f 77//77 74//74 101//101
f 82//82 77//77 101//101
f 85//85 82//82 101//101
f 90//90 85//85 101//101
f 93//93 90//90 101//101
f 98//98 93//93 101//101
f 4//4 101//101 2//2
f 2//2 101//101 4//4
f 101//101 93//93 98//98
f 101//101 90//90 93//93
f 101//101 85//85 90//90
f 101//101 82//82 85//85
f 101//101 77//77 82//82
f 101//101 74//74 77//77
f 101//101 69//69 74//74
f 101//101 106//106 69//69
f 101//101 109//109 106//106
f 101//101 104//104 109//109
f 101//101 14//14 104//104
f 14//14 101//101 2//2
f 98//98 94//94 97//97
f 94//94 98//98 93//93
f 90//90 86//86 89//89
f 86//86 90//90 85//85
f 82//82 78//78 81//81
f 78//78 82//82 77//77
f 74//74 70//70 73//73
f 70//70 74//74 69//69
f 106//106 110//110 105//105
f 110//110 106//106 109//109
f 104//104 36//36 34//34
f 14//14 36//36 104//104
f 14//14 45//45 36//36
f 20//20 45//45 14//14
f 45//45 20//20 41//41
f 41//41 20//20 45//45
f 14//14 45//45 20//20
f 36//36 45//45 14//14
f 104//104 36//36 14//14
f 34//34 36//36 104//104
f 109//109 106//106 110//110
f 105//105 110//110 106//106
f 69//69 74//74 70//70
f 73//73 70//70 74//74
f 77//77 82//82 78//78
f 81//81 78//78 82//82
f 85//85 90//90 86//86
f 89//89 86//86 90//90
f 93//93 98//98 94//94
f 97//97 94//94 98//98
f 2//2 101//101 14//14
f 104//104 14//14 101//101
f 109//109 104//104 101//101
f 106//106 109//109 101//101
f 69//69 106//106 101//101
f 74//74 69//69 101//101
f 77//77 74//74 101//101
f 82//82 77//77 101//101
f 85//85 82//82 101//101
f 90//90 85//85 101//101
f 93//93 90//90 101//101
f 98//98 93//93 101//101
f 4//4 101//101 2//2
f 2//2 101//101 4//4
f 101//101 93//93 98//98
f 101//101 90//90 93//93
f 101//101 85//85 90//90
f 101//101 82//82 85//85
f 101//101 77//77 82//82
f 101//101 74//74 77//77
f 101//101 69//69 74//74
f 101//101 106//106 69//69
f 101//101 109//109 106//106
f 101//101 104//104 109//109
f 101//101 14//14 104//104
f 14//14 101//101 2//2
f 98//98 94//94 97//97
f 94//94 98//98 93//93
f 90//90 86//86 89//89
f 86//86 90//90 85//85
f 82//82 78//78 81//81
f 78//78 82//82 77//77
f 74//74 70//70 73//73
f 70//70 74//74 69//69
f 106//106 110//110 105//105
f 110//110 106//106 109//109
f 104//104 36//36 34//34
f 14//14 36//36 104//104
f 14//14 45//45 36//36
f 20//20 45//45 14//14
f 45//45 20//20 41//41
f 41//41 20//20 45//45
f 14//14 45//45 20//20
f 36//36 45//45 14//14
f 104//104 36//36 14//14
f 34//34 36//36 104//104
f 109//109 106//106 110//110
f 105//105 110//110 106//106
f 69//69 74//74 70//70
f 73//73 70//70 74//74
f 77//77 82//82 78//78
f 81//81 78//78 82//82
f 85//85 90//90 86//86
f 89//89 86//86 90//90
f 93//93 98//98 94//94
f 97//97 94//94 98//98
f 2//2 101//101 14//14
f 104//104 14//14 101//101
f 109//109 104//104 101//101
f 106//106 109//109 101//101
f 69//69 106//106 101//101
f 74//74 69//69 101//101
f 77//77 74//74 101//101
f 82//82 77//77 101//101
f 85//85 82//82 101//101
f 90//90 85//85 101//101
f 93//93 90//90 101//101
f 98//98 93//93 101//101
f 4//4 101//101 2//2
f 2//2 101//101 4//4
f 101//101 93//93 98//98
f 101//101 90//90 93//93
f 101//101 85//85 90//90
f 101//101 82//82 85//85
f 101//101 77//77 82//82
f 101//101 74//74 77//77
f 101//101 69//69 74//74
f 101//101 106//106 69//69
f 101//101 109//109 106//106
f 101//101 104//104 109//109
f 101//101 14//14 104//104
f 14//14 101//101 2//2
f 98//98 94//94 97//97
f 94//94 98//98 93//93
f 90//90 86//86 89//89
f 86//86 90//90 85//85
f 82//82 78//78 81//81
f 78//78 82//82 77//77
f 74//74 70//70 73//73
f 70//70 74//74 69//69
f 106//106 110//110 105//105
f 110//110 106//106 109//109
f 104//104 36//36 34//34
f 14//14 36//36 104//104
f 14//14 45//45 36//36
f 20//20 45//45 14//14
f 45//45 20//20 41//41
f 41//41 20//20 45//45
f 14//14 45//45 20//20
f 36//36 45//45 14//14
f 104//104 36//36 14//14
f 34//34 36//36 104//104
f 109//109 106//106 110//110
f 105//105 110//110 106//106
f 69//69 74//74 70//70
f 73//73 70//70 74//74
f 77//77 82//82 78//78
f 81//81 78//78 82//82
f 85//85 90//90 86//86
f 89//89 86//86 90//90
f 93//93 98//98 94//94
f 97//97 94//94 98//98
f 2//2 101//101 14//14
f 104//104 14//14 101//101
f 109//109 104//104 101//101
f 106//106 109//109 101//101
f 69//69 106//106 101//101
f 74//74 69//69 101//101
f 77//77 74//74 101//101
f 82//82 77//77 101//101
f 85//85 82//82 101//101
f 90//90 85//85 101//101
f 93//93 90//90 101//101
f 98//98 93//93 101//101
f 4//4 101//101 2//2
f 2//2 101//101 4//4
f 101//101 93//93 98//98
f 101//101 90//90 93//93
f 101//101 85//85 90//90
f 101//101 82//82 85//85
f 101//101 77//77 82//82
f 101//101 74//74 77//77
f 101//101 69//69 74//74
f 101//101 106//106 69//69
f 101//101 109//109 106//106
f 101//101 104//104 109//109
f 101//101 14//14 104//104
f 14//14 101//101 2//2
f 98//98 94//94 97//97
f 94//94 98//98 93//93
f 90//90 86//86 89//89
f 86//86 90//90 85//85
f 82//82 78//78 81//81
f 78//78 82//82 77//77
f 74//74 70//70 73//73
f 70//70 74//74 69//69
f 106//106 110//110 105//105
f 110//110 106//106 109//109
f 104//104 36//36 34//34
f 14//14 36//36 104//104
f 14//14 45//45 36//36
f 20//20 45//45 14//14
f 45//45 20//20 41//41
f 41//41 20//20 45//45
f 14//14 45//45 20//20
f 36//36 45//45 14//14
f 104//104 36//36 14//14
f 34//34 36//36 104//104
f 109//109 106//106 110//110
f 105//105 110//110 106//106
f 69//69 74//74 70//70
f 73//73 70//70 74//74
f 77//77 82//82 78//78
f 81//81 78//78 82//82
f 85//85 90//90 86//86
f 89//89 86//86 90//90
f 93//93 98//98 94//94
f 97//97 94//94 98//98
f 2//2 101//101 14//14
f 104//104 14//14 101//101
f 109//109 104//104 101//101
f 106//106 109//109 101//101
f 69//69 106//106 101//101
f 74//74 69//69 101//101
f 77//77 74//74 101//101
f 82//82 77//77 101//101
f 85//85 82//82 101//101
f 90//90 85//85 101//101
f 93//93 90//90 101//101
f 98//98 93//93 101//101
f 4//4 101//101 2//2
f 2//2 101//101 4//4
f 101//101 93//93 98//98
f 101//101 90//90 93//93
f 101//101 85//85 90//90
f 101//101 82//82 85//85
f 101//101 77//77 82//82
f 101//101 74//74 77//77
f 101//101 69//69 74//74
f 101//101 106//106 69//69
f 101//101 109//109 106//106
f 101//101 104//104 109//109
f 101//101 14//14 104//104
f 14//14 101//101 2//2
f 98//98 94//94 97//97
f 94//94 98//98 93//93
f 90//90 86//86 89//89
f 86//86 90//90 85//85
f 82//82 78//78 81//81
f 78//78 82//82 77//77
f 74//74 70//70 73//73
f 70//70 74//74 69//69
f 106//106 110//110 105//105
f 110//110 106//106 109//109
f 104//104 36//36 34//34
f 14//14 36//36 104//104
f 14//14 45//45 36//36
f 20//20 45//45 14//14
f 45//45 20//20 41//41
f 41//41 20//20 45//45
f 14//14 45//45 20//20
f 36//36 45//45 14//14
f 104//104 36//36 14//14
f 34//34 36//36 104//104
f 109//109 106//106 110//110
f 105//105 110//110 106//106
f 69//69 74//74 70//70
f 73//73 70//70 74//74
f 77//77 82//82 78//78
f 81//81 78//78 82//82
f 85//85 90//90 86//86
f 89//89 86//86 90//90
f 93//93 98//98 94//94
f 97//97 94//94 98//98
f 2//2 101//101 14//14
f 104//104 14//14 101//101
f 109//109 104//104 101//101
f 106//106 109//109 101//101
f 69//69 106//106 101//101
f 74//74 69//69 101//101
f 77//77 74//74 101//101
f 82//82 77//77 101//101
f 85//85 82//82 101//101
f 90//90 85//85 101//101
f 93//93 90//90 101//101
f 98//98 93//93 101//101
f 4//4 101//101 2//2
f 2//2 101//101 4//4
f 101//101 93//93 98//98
f 101//101 90//90 93//93
f 101//101 85//85 90//90
f 101//101 82//82 85//85
f 101//101 77//77 82//82
f 101//101 74//74 77//77
f 101//101 69//69 74//74
f 101//101 106//106 69//69
f 101//101 109//109 106//106
f 101//101 104//104 109//109
f 101//101 14//14 104//104
f 14//14 101//101 2//2
f 98//98 94//94 97//97
f 94//94 98//98 93//93
f 90//90 86//86 89//89
f 86//86 90//90 85//85
f 82//82 78//78 81//81
f 78//78 82//82 77//77
f 74//74 70//70 73//73
f 70//70 74//74 69//69
f 106//106 110//110 105//105
f 110//110 106//106 109//109
f 104//104 36//36 34//34
f 14//14 36//36 104//104
f 14//14 45//45 36//36
f 20//20 45//45 14//14
f 45//45 20//20 41//41
f 151//151 105//105 154//154
f 110//110 154//154 105//105
f 105//105 107//107 110//110
f 112//112 110//110 107//107
f 188//188 189//189 187//187
f 190//190 187//187 189//189
f 127//127 73//73 130//130
f 70//70 130//130 73//73
f 73//73 75//75 70//70
f 72//72 70//70 75//75
f 183//183 184//184 185//185
f 186//186 185//185 184//184
f 123//123 81//81 126//126
f 78//78 126//126 81//81
f 81//81 83//83 78//78
f 80//80 78//78 83//83
f 180//180 181//181 179//179
f 182//182 179//179 181//181
f 119//119 89//89 122//122
f 86//86 122//122 89//89
f 89//89 91//91 86//86
f 88//88 86//86 91//91
f 115//115 97//97 118//118
f 94//94 118//118 97//97
f 97//97 99//99 94//94
f 96//96 94//94 99//99
f 178//178 175//175 177//177
f 176//176 177//177 175//175
f 100//100 95//95 99//99
f 96//96 99//99 95//95
f 95//95 99//99 96//96
f 99//99 95//95 100//100
f 92//92 87//87 91//91
f 88//88 91//91 87//87
f 87//87 91//91 88//88
f 91//91 87//87 92//92
f 164//164 165//165 62//62
f 64//64 62//62 165//165
f 165//165 62//62 64//64
f 62//62 165//165 164//164
f 84//84 79//79 83//83
f 80//80 83//83 79//79
f 79//79 83//83 80//80
f 83//83 79//79 84//84
f 161//161 162//162 184//184
f 186//186 184//184 162//162
f 162//162 184//184 186//186
f 184//184 162//162 161//161
f 158//158 159//159 66//66
f 68//68 66//66 159//159
f 159//159 66//66 68//68
f 66//66 159//159 158//158
f 76//76 71//71 75//75
f 72//72 75//75 71//71
f 71//71 75//75 72//72
f 75//75 71//71 76//76
f 108//108 111//111 107//107
f 112//112 107//107 111//111
f 111//111 107//107 112//112
f 107//107 111//111 108//108
f 155//155 156//156 198//198
f 196//196 198//198 156//156
f 156//156 198//198 196//196
f 198//198 156//156 155//155
f 199//199 200//200 201//201
f 200//200 199//199 202//202
f 201//201 203//203 204//204
f 203//203 201//201 200//200
f 205//205 206//206 207//207
f 206//206 205//205 208//208
f 207//207 209//209 210//210
f 209//209 207//207 206//206
f 211//211 212//212 213//213
f 212//212 211//211 214//214
f 215//215 216//216 217//217
f 216//216 215//215 218//218
f 70//70 71//71 72//72
f 71//71 70//70 69//69
f 74//74 75//75 76//76
f 75//75 74//74 73//73
f 78//78 79//79 80//80
f 79//79 78//78 77//77
f 82//82 83//83 84//84
f 83//83 82//82 81//81
f 86//86 87//87 88//88
f 87//87 86//86 85//85
f 90//90 91//91 92//92
f 91//91 90//90 89//89
f 94//94 95//95 96//96
f 95//95 94//94 93//93
f 98//98 99//99 100//100
f 99//99 98//98 97//97
f 4//4 102//102 6//6
f 102//102 4//4 101//101
f 102//102 5//5 6//6
f 5//5 102//102 27//27
f 26//26 42//42 25//25
f 42//42 26//26 52//52
f 51//51 48//48 49//49
f 48//48 51//51 103//103
f 104//104 48//48 103//103
f 48//48 104//104 34//34
f 106//106 107//107 108//108
f 107//107 106//106 105//105
f 110//110 111//111 112//112
f 111//111 110//110 109//109
f 113//113 34//34 104//104
f 34//34 113//113 33//33
f 113//113 35//35 33//33
f 35//35 113//113 47//47
f 46//46 15//15 32//32
f 15//15 46//46 16//16
f 13//13 3//3 1//1
f 3//3 13//13 114//114
f 3//3 101//101 4//4
f 101//101 3//3 114//114
f 116//116 97//97 98//98
f 97//97 116//116 115//115
f 116//116 118//118 115//115
f 118//118 116//116 117//117
f 118//118 93//93 94//94
f 93//93 118//118 117//117
f 120//120 89//89 90//90
f 89//89 120//120 119//119
f 120//120 122//122 119//119
f 122//122 120//120 121//121
f 122//122 85//85 86//86
f 85//85 122//122 121//121
f 124//124 81//81 82//82
f 81//81 124//124 123//123
f 124//124 126//126 123//123
f 126//126 124//124 125//125
f 126//126 77//77 78//78
f 77//77 126//126 125//125
f 128//128 73//73 74//74
f 73//73 128//128 127//127
f 128//128 130//130 127//127
f 130//130 128//128 129//129
f 130//130 69//69 70//70
f 69//69 130//130 129//129
f 142//142 95//95 131//131
f 95//95 142//142 100//100
f 144//144 87//87 133//133
f 87//87 144//144 92//92
f 146//146 79//79 135//135
f 79//79 146//146 84//84
f 148//148 71//71 137//137
f 71//71 148//148 76//76
f 150//150 111//111 139//139
f 111//111 150//150 108//108
f 52//52 103//103 51//51
f 103//103 140//140 104//104
f 52//52 140//140 103//103
f 52//52 149//149 140//140
f 149//149 108//108 150//150
f 149//149 106//106 108//108
f 149//149 138//138 106//106
f 52//52 138//138 149//149
f 52//52 147//147 138//138
f 147//147 76//76 148//148
f 147//147 74//74 76//76
f 147//147 136//136 74//74
f 52//52 136//136 147//147
f 52//52 145//145 136//136
f 145//145 84//84 146//146
f 145//145 82//82 84//84
f 145//145 134//134 82//82
f 52//52 134//134 145//145
f 52//52 143//143 134//134
f 143//143 92//92 144//144
f 143//143 90//90 92//92
f 143//143 132//132 90//90
f 52//52 132//132 143//143
f 52//52 141//141 132//132
f 141//141 100//100 142//142
f 141//141 98//98 100//100
f 141//141 102//102 98//98
f 52//52 102//102 141//141
f 26//26 102//102 52//52
f 102//102 26//26 27//27
f 139//139 104//104 140//140
f 111//111 104//104 139//139
f 104//104 111//111 109//109
f 137//137 106//106 138//138
f 71//71 106//106 137//137
f 106//106 71//71 69//69
f 135//135 74//74 136//136
f 79//79 74//74 135//135
f 74//74 79//79 77//77
f 133//133 82//82 134//134
f 87//87 82//82 133//133
f 82//82 87//87 85//85
f 131//131 90//90 132//132
f 95//95 90//90 131//131
f 90//90 95//95 93//93
f 98//98 102//102 101//101
f 152//152 105//105 106//106
f 105//105 152//152 151//151
f 152//152 154//154 151//151
f 154//154 152//152 153//153
f 154//154 109//109 110//110
f 109//109 154//154 153//153
f 104//104 109//109 113//113
f 113//113 46//46 47//47
f 153//153 113//113 109//109
f 156//156 113//113 153//153
f 174//174 113//113 156//156
f 174//174 46//46 113//113
f 157//157 46//46 174//174
f 129//129 157//157 69//69
f 159//159 157//157 129//129
f 173//173 157//157 159//159
f 173//173 46//46 157//157
f 160//160 46//46 173//173
f 125//125 160//160 77//77
f 162//162 160//160 125//125
f 172//172 160//160 162//162
f 172//172 46//46 160//160
f 163//163 46//46 172//172
f 121//121 163//163 85//85
f 165//165 163//163 121//121
f 171//171 163//163 165//165
f 171//171 46//46 163//163
f 166//166 46//46 171//171
f 117//117 166//166 93//93
f 168//168 166//166 117//117
f 170//170 166//166 168//168
f 170//170 46//46 166//166
f 169//169 46//46 170//170
f 114//114 169//169 101//101
f 114//114 46//46 169//169
f 13//13 46//46 114//114
f 46//46 13//13 16//16
f 98//98 167//167 116//116
f 98//98 169//169 167//167
f 169//169 98//98 101//101
f 116//116 168//168 117//117
f 168//168 116//116 167//167
f 90//90 164//164 120//120
f 90//90 166//166 164//164
f 166//166 90//90 93//93
f 120//120 165//165 121//121
f 165//165 120//120 164//164
f 82//82 161//161 124//124
f 82//82 163//163 161//161
f 163//163 82//82 85//85
f 124//124 162//162 125//125
f 162//162 124//124 161//161
f 74//74 158//158 128//128
f 74//74 160//160 158//158
f 160//160 74//74 77//77
f 128//128 159//159 129//129
f 159//159 128//128 158//158
f 106//106 155//155 152//152
f 106//106 157//157 155//155
f 157//157 106//106 69//69
f 152//152 156//156 153//153
f 156//156 152//152 155//155
f 142//142 55//55 53//53
f 55//55 142//142 131//131
f 142//142 54//54 141//141
f 54//54 142//142 53//53
f 55//55 132//132 56//56
f 132//132 55//55 131//131
f 132//132 54//54 56//56
f 54//54 132//132 141//141
f 168//168 175//175 176//176
f 175//175 168//168 167//167
f 177//177 168//168 176//176
f 168//168 177//177 170//170
f 169//169 175//175 167//167
f 175//175 169//169 178//178
f 169//169 177//177 178//178
f 177//177 169//169 170//170
f 144//144 179//179 180//180
f 179//179 144//144 133//133
f 144//144 181//181 143//143
f 181//181 144//144 180//180
f 179//179 134//134 182//182
f 134//134 179//179 133//133
f 134//134 181//181 182//182
f 181//181 134//134 143//143
f 166//166 62//62 164//164
f 62//62 166//166 61//61
f 166//166 63//63 61//61
f 63//63 166//166 171//171
f 63//63 165//165 64//64
f 165//165 63//63 171//171
f 146//146 59//59 57//57
f 59//59 146//146 135//135
f 146//146 58//58 145//145
f 58//58 146//146 57//57
f 59//59 136//136 60//60
f 136//136 59//59 135//135
f 136//136 58//58 60//60
f 58//58 136//136 145//145
f 163//163 184//184 161//161
f 184//184 163//163 183//183
f 163//163 185//185 183//183
f 185//185 163//163 172//172
f 185//185 162//162 186//186
f 162//162 185//185 172//172
f 148//148 187//187 188//188
f 187//187 148//148 137//137
f 148//148 189//189 147//147
f 189//189 148//148 188//188
f 187//187 138//138 190//190
f 138//138 187//187 137//137
f 138//138 189//189 190//190
f 189//189 138//138 147//147
f 67//67 159//159 68//68
f 159//159 67//67 173//173
f 160//160 66//66 158//158
f 66//66 160//160 65//65
f 160//160 67//67 65//65
f 67//67 160//160 173//173
f 191//191 140//140 192//192
f 140//140 191//191 139//139
f 140//140 193//193 192//192
f 193//193 140//140 149//149
f 150//150 191//191 194//194
f 191//191 150//150 139//139
f 150//150 193//193 149//149
f 193//193 150//150 194//194
f 195//195 156//156 196//196
f 156//156 195//195 174//174
f 157//157 198//198 155//155
f 198//198 157//157 197//197
f 157//157 195//195 197//197
f 195//195 157//157 174//174
f 219//219 220//220 221//221
f 222//222 221//221 220//220
f 223//223 221//221 222//222
f 222//222 221//221 223//223
f 220//220 221//221 222//222
f 221//221 220//220 219//219
f 224//224 221//221 225//225
f 223//223 225//225 221//221
f 221//221 225//225 223//223
f 225//225 221//221 224//224
f 224//224 226//226 221//221
f 219//219 221//221 226//226
f 226//226 221//221 219//219
f 221//221 226//226 224//224
f 225//225 223//223 227//227
f 222//222 227//227 223//223
f 223//223 227//227 222//222
f 227//227 223//223 225//225
f 228//228 227//227 220//220
f 222//222 220//220 227//227
f 227//227 220//220 222//222
f 220//220 227//227 228//228
f 219//219 226//226 220//220
f 228//228 220//220 226//226
f 226//226 220//220 228//228
f 220//220 226//226 219//219
f 226//226 228//228 224//224
f 227//227 224//224 228//228
f 225//225 224//224 227//227
f 227//227 224//224 225//225
f 228//228 224//224 227//227
f 224//224 228//228 226//226
f 229//229 224//224 230//230
f 225//225 230//230 224//224
f 224//224 230//230 225//225
f 230//230 224//224 229//229
f 225//225 227//227 230//230
f 231//231 228//228 232//232
f 226//226 232//232 228//228
f 227//227 228//228 231//231
f 230//230 227//227 231//231
f 232//232 226//226 233//233
f 229//229 233//233 226//226
f 224//224 229//229 226//226
f 226//226 229//229 224//224
f 226//226 233//233 229//229
f 233//233 226//226 232//232
f 231//231 227//227 230//230
f 231//231 228//228 227//227
f 228//228 232//232 226//226
f 232//232 228//228 231//231
f 230//230 227//227 225//225
f 234//234 229//229 235//235
f 230//230 235//235 229//229
f 229//229 235//235 230//230
f 235//235 229//229 234//234
f 236//236 237//237 238//238
f 239//239 238//238 237//237
f 237//237 238//238 239//239
f 238//238 237//237 236//236
f 236//236 240//240 237//237
f 241//241 237//237 240//240
f 240//240 237//237 241//241
f 237//237 240//240 236//236
f 237//237 234//234 239//239
f 235//235 239//239 234//234
f 234//234 239//239 235//235
f 239//239 234//234 237//237
f 235//235 230//230 242//242
f 231//231 242//242 230//230
f 230//230 242//242 231//231
f 242//242 230//230 235//235
f 243//243 242//242 232//232
f 231//231 232//232 242//242
f 242//242 232//232 231//231
f 232//232 242//242 243//243
f 233//233 244//244 232//232
f 243//243 232//232 244//244
f 244//244 232//232 243//243
f 232//232 244//244 233//233
f 234//234 244//244 229//229
f 233//233 229//229 244//244
f 244//244 229//229 233//233
f 229//229 244//244 234//234
f 244//244 243//243 234//234
f 242//242 234//234 243//243
f 235//235 234//234 242//242
f 242//242 234//234 235//235
f 243//243 234//234 242//242
f 234//234 243//243 244//244
f 240//240 245//245 241//241
f 246//246 241//241 245//245
f 245//245 241//241 246//246
f 241//241 245//245 240//240
f 245//245 240//240 247//247
f 236//236 247//247 240//240
f 238//238 247//247 236//236
f 236//236 247//247 238//238
f 240//240 247//247 236//236
f 247//247 240//240 245//245
f 238//238 239//239 247//247
f 248//248 247//247 239//239
f 239//239 247//247 248//248
f 247//247 239//239 238//238
f 246//246 244//244 241//241
f 237//237 241//241 244//244
f 234//234 237//237 244//244
f 235//235 242//242 239//239
f 248//248 243//243 246//246
f 244//244 246//246 243//243
f 242//242 243//243 248//248
f 239//239 242//242 248//248
f 248//248 242//242 239//239
f 248//248 243//243 242//242
f 243//243 246//246 244//244
f 246//246 243//243 248//248
f 239//239 242//242 235//235
f 244//244 237//237 234//234
f 244//244 241//241 237//237
f 241//241 244//244 246//246
f 245//245 247//247 246//246
f 248//248 246//246 247//247
f 247//247 246//246 248//248
f 246//246 247//247 245//245
f 249//249 250//250 251//251
f 252//252 250//250 249//249
f 250//250 252//252 253//253
f 253//253 252//252 250//250
f 249//249 250//250 252//252
f 251//251 250//250 249//249
f 250//250 254//254 251//251
f 254//254 250//250 255//255
f 255//255 250//250 254//254
f 251//251 254//254 250//250
f 256//256 250//250 253//253
f 250//250 256//256 255//255
f 255//255 256//256 250//250
f 253//253 250//250 256//256
f 251//251 257//257 249//249
f 257//257 251//251 254//254
f 254//254 251//251 257//257
f 249//249 257//257 251//251
f 257//257 252//252 249//249
f 252//252 257//257 258//258
f 258//258 257//257 252//252
f 249//249 252//252 257//257
f 256//256 252//252 258//258
f 252//252 256//256 253//253
f 253//253 256//256 252//252
f 258//258 252//252 256//256
f 257//257 255//255 254//254
f 258//258 255//255 257//257
f 255//255 258//258 256//256
f 256//256 258//258 255//255
f 257//257 255//255 258//258
f 254//254 255//255 257//257
f 255//255 259//259 254//254
f 259//259 255//255 260//260
f 260//260 255//255 259//259
f 254//254 259//259 255//255
f 256//256 260//260 255//255
f 256//256 261//261 260//260
f 261//261 256//256 262//262
f 263//263 257//257 259//259
f 263//263 258//258 257//257
f 258//258 262//262 256//256
f 262//262 258//258 263//263
f 259//259 257//257 254//254
f 254//254 257//257 259//259
f 263//263 258//258 262//262
f 256//256 262//262 258//258
f 257//257 258//258 263//263
f 259//259 257//257 263//263
f 262//262 256//256 261//261
f 260//260 261//261 256//256
f 255//255 260//260 256//256
f 260//260 264//264 259//259
f 264//264 260//260 265//265
f 265//265 260//260 264//264
f 259//259 264//264 260//260
f 266//266 267//267 268//268
f 267//267 266//266 269//269
f 269//269 266//266 267//267
f 268//268 267//267 266//266
f 270//270 266//266 271//271
f 266//266 270//270 269//269
f 269//269 270//270 266//266
f 271//271 266//266 270//270
f 265//265 268//268 264//264
f 268//268 265//265 266//266
f 266//266 265//265 268//268
f 264//264 268//268 265//265
f 259//259 272//272 263//263
f 272//272 259//259 264//264
f 264//264 259//259 272//272
f 263//263 272//272 259//259
f 272//272 262//262 263//263
f 262//262 272//272 273//273
f 273//273 272//272 262//262
f 263//263 262//262 272//272
f 274//274 262//262 273//273
f 262//262 274//274 261//261
f 261//261 274//274 262//262
f 273//273 262//262 274//274
f 274//274 260//260 261//261
f 260//260 274//274 265//265
f 265//265 274//274 260//260
f 261//261 260//260 274//274
f 272//272 265//265 264//264
f 273//273 265//265 272//272
f 265//265 273//273 274//274
f 274//274 273//273 265//265
f 272//272 265//265 273//273
f 264//264 265//265 272//272
f 275//275 271//271 276//276
f 271//271 275//275 270//270
f 270//270 275//275 271//271
f 276//276 271//271 275//275
f 269//269 277//277 267//267
f 270//270 277//277 269//269
f 277//277 270//270 275//275
f 275//275 270//270 277//277
f 269//269 277//277 270//270
f 267//267 277//277 269//269
f 268//268 277//277 278//278
f 277//277 268//268 267//267
f 267//267 268//268 277//277
f 278//278 277//277 268//268
f 278//278 272//272 268//268
f 278//278 273//273 272//272
f 273//273 276//276 274//274
f 276//276 273//273 278//278
f 268//268 272//272 264//264
f 274//274 266//266 265//265
f 274//274 271//271 266//266
f 271//271 274//274 276//276
f 276//276 274//274 271//271
f 266//266 271//271 274//274
f 265//265 266//266 274//274
f 264//264 272//272 268//268
f 278//278 273//273 276//276
f 274//274 276//276 273//273
f 272//272 273//273 278//278
f 268//268 272//272 278//278
f 277//277 276//276 278//278
f 276//276 277//277 275//275
f 275//275 277//277 276//276
f 278//278 276//276 277//277
f 279//279 280//280 281//281
f 282//282 281//281 280//280
f 283//283 281//281 282//282
f 282//282 281//281 283//283
f 280//280 281//281 282//282
f 281//281 280//280 279//279
f 284//284 281//281 285//285
f 283//283 285//285 281//281
f 281//281 285//285 283//283
f 285//285 281//281 284//284
f 284//284 286//286 281//281
f 279//279 281//281 286//286
f 286//286 281//281 279//279
f 281//281 286//286 284//284
f 285//285 283//283 287//287
f 282//282 287//287 283//283
f 283//283 287//287 282//282
f 287//287 283//283 285//285
f 288//288 287//287 280//280
f 282//282 280//280 287//287
f 287//287 280//280 282//282
f 280//280 287//287 288//288
f 279//279 286//286 280//280
f 288//288 280//280 286//286
f 286//286 280//280 288//288
f 280//280 286//286 279//279
f 286//286 288//288 284//284
f 287//287 284//284 288//288
f 285//285 284//284 287//287
f 287//287 284//284 285//285
f 288//288 284//284 287//287
f 284//284 288//288 286//286
f 289//289 284//284 290//290
f 285//285 290//290 284//284
f 284//284 290//290 285//285
f 290//290 284//284 289//289
f 285//285 287//287 290//290
f 291//291 288//288 292//292
f 286//286 292//292 288//288
f 287//287 288//288 291//291
f 290//290 287//287 291//291
f 292//292 286//286 293//293
f 289//289 293//293 286//286
f 284//284 289//289 286//286
f 286//286 289//289 284//284
f 286//286 293//293 289//289
f 293//293 286//286 292//292
f 291//291 287//287 290//290
f 291//291 288//288 287//287
f 288//288 292//292 286//286
f 292//292 288//288 291//291
f 290//290 287//287 285//285
f 294//294 289//289 295//295
f 290//290 295//295 289//289
f 289//289 295//295 290//290
f 295//295 289//289 294//294
f 296//296 297//297 298//298
f 299//299 298//298 297//297
f 297//297 298//298 299//299
f 298//298 297//297 296//296
f 296//296 300//300 297//297
f 301//301 297//297 300//300
f 300//300 297//297 301//301
f 297//297 300//300 296//296
f 297//297 294//294 299//299
f 295//295 299//299 294//294
f 294//294 299//299 295//295
f 299//299 294//294 297//297
f 295//295 290//290 302//302
f 291//291 302//302 290//290
f 290//290 302//302 291//291
f 302//302 290//290 295//295
f 303//303 302//302 292//292
f 291//291 292//292 302//302
f 302//302 292//292 291//291
f 292//292 302//302 303//303
f 293//293 304//304 292//292
f 303//303 292//292 304//304
f 304//304 292//292 303//303
f 292//292 304//304 293//293
f 294//294 304//304 289//289
f 293//293 289//289 304//304
f 304//304 289//289 293//293
f 289//289 304//304 294//294
f 304//304 303//303 294//294
f 302//302 294//294 303//303
f 295//295 294//294 302//302
f 302//302 294//294 295//295
f 303//303 294//294 302//302
f 294//294 303//303 304//304
f 300//300 305//305 301//301
f 306//306 301//301 305//305
f 305//305 301//301 306//306
f 301//301 305//305 300//300
f 305//305 300//300 307//307
f 296//296 307//307 300//300
f 298//298 307//307 296//296
f 296//296 307//307 298//298
f 300//300 307//307 296//296
f 307//307 300//300 305//305
f 298//298 299//299 307//307
f 308//308 307//307 299//299
f 299//299 307//307 308//308
f 307//307 299//299 298//298
f 306//306 304//304 301//301
f 297//297 301//301 304//304
f 294//294 297//297 304//304
f 295//295 302//302 299//299
f 308//308 303//303 306//306
f 304//304 306//306 303//303
f 302//302 303//303 308//308
f 299//299 302//302 308//308
f 308//308 302//302 299//299
f 308//308 303//303 302//302
f 303//303 306//306 304//304
f 306//306 303//303 308//308
f 299//299 302//302 295//295
f 304//304 297//297 294//294
f 304//304 301//301 297//297
f 301//301 304//304 306//306
f 305//305 307//307 306//306
f 308//308 306//306 307//307
f 307//307 306//306 308//308
f 306//306 307//307 305//305
f 309//309 310//310 311//311
f 312//312 310//310 309//309
f 310//310 312//312 313//313
f 313//313 312//312 310//310
f 309//309 310//310 312//312
f 311//311 310//310 309//309
f 310//310 314//314 311//311
f 314//314 310//310 315//315
f 315//315 310//310 314//314
f 311//311 314//314 310//310
f 316//316 310//310 313//313
f 310//310 316//316 315//315
f 315//315 316//316 310//310
f 313//313 310//310 316//316
f 311//311 317//317 309//309
f 317//317 311//311 314//314
f 314//314 311//311 317//317
f 309//309 317//317 311//311
f 317//317 312//312 309//309
f 312//312 317//317 318//318
f 318//318 317//317 312//312
f 309//309 312//312 317//317
f 316//316 312//312 318//318
f 312//312 316//316 313//313
f 313//313 316//316 312//312
f 318//318 312//312 316//316
f 317//317 315//315 314//314
f 318//318 315//315 317//317
f 315//315 318//318 316//316
f 316//316 318//318 315//315
f 317//317 315//315 318//318
f 314//314 315//315 317//317
f 315//315 319//319 314//314
f 319//319 315//315 320//320
f 320//320 315//315 319//319
f 314//314 319//319 315//315
f 316//316 320//320 315//315
f 316//316 321//321 320//320
f 321//321 316//316 322//322
f 323//323 317//317 319//319
f 323//323 318//318 317//317
f 318//318 322//322 316//316
f 322//322 318//318 323//323
f 319//319 317//317 314//314
f 314//314 317//317 319//319
f 323//323 318//318 322//322
f 316//316 322//322 318//318
f 317//317 318//318 323//323
f 319//319 317//317 323//323
f 322//322 316//316 321//321
f 320//320 321//321 316//316
f 315//315 320//320 316//316
f 320//320 324//324 319//319
f 324//324 320//320 325//325
f 325//325 320//320 324//324
f 319//319 324//324 320//320
f 326//326 327//327 328//328
f 327//327 326//326 329//329
f 329//329 326//326 327//327
f 328//328 327//327 326//326
f 330//330 326//326 331//331
f 326//326 330//330 329//329
f 329//329 330//330 326//326
f 331//331 326//326 330//330
f 325//325 328//328 324//324
f 328//328 325//325 326//326
f 326//326 325//325 328//328
f 324//324 328//328 325//325
f 319//319 332//332 323//323
f 332//332 319//319 324//324
f 324//324 319//319 332//332
f 323//323 332//332 319//319
f 332//332 322//322 323//323
f 322//322 332//332 333//333
f 333//333 332//332 322//322
f 323//323 322//322 332//332
f 334//334 322//322 333//333
f 322//322 334//334 321//321
f 321//321 334//334 322//322
f 333//333 322//322 334//334
f 334//334 320//320 321//321
f 320//320 334//334 325//325
f 325//325 334//334 320//320
f 321//321 320//320 334//334
f 332//332 325//325 324//324
f 333//333 325//325 332//332
f 325//325 333//333 334//334
f 334//334 333//333 325//325
f 332//332 325//325 333//333
f 324//324 325//325 332//332
f 335//335 331//331 336//336
f 331//331 335//335 330//330
f 330//330 335//335 331//331
f 336//336 331//331 335//335
f 329//329 337//337 327//327
f 330//330 337//337 329//329
f 337//337 330//330 335//335
f 335//335 330//330 337//337
f 329//329 337//337 330//330
f 327//327 337//337 329//329
f 328//328 337//337 338//338
f 337//337 328//328 327//327
f 327//327 328//328 337//337
f 338//338 337//337 328//328
f 338//338 332//332 328//328
f 338//338 333//333 332//332
f 333//333 336//336 334//334
f 336//336 333//333 338//338
f 328//328 332//332 324//324
f 334//334 326//326 325//325
f 334//334 331//331 326//326
f 331//331 334//334 336//336
f 336//336 334//334 331//331
f 326//326 331//331 334//334
f 325//325 326//326 334//334
f 324//324 332//332 328//328
f 338//338 333//333 336//336
f 334//334 336//336 333//333
f 332//332 333//333 338//338
f 328//328 332//332 338//338
f 337//337 336//336 338//338
f 336//336 337//337 335//335
f 335//335 337//337 336//336
f 338//338 336//336 337//337
f 339//339 340//340 341//341
f 342//342 341//341 340//340
f 340//340 341//341 342//342
f 341//341 340//340 339//339
f 201//201 199//199 341//341
f 339//339 341//341 199//199
f 199//199 341//341 339//339
f 341//341 199//199 201//201
f 343//343 344//344 345//345
f 346//346 345//345 344//344
f 344//344 345//345 346//346
f 345//345 344//344 343//343
f 345//345 342//342 343//343
f 340//340 343//343 342//342
f 342//342 343//343 340//340
f 343//343 342//342 345//345
f 346//346 344//344 347//347
f 348//348 347//347 344//344
f 344//344 347//347 348//348
f 347//347 344//344 346//346
f 346//346 349//349 345//345
f 350//350 345//345 349//349
f 349//349 345//345 350//350
f 345//345 349//349 346//346
f 204//204 201//201 351//351
f 341//341 351//351 201//201
f 201//201 351//351 341//341
f 351//351 201//201 204//204
f 341//341 342//342 351//351
f 352//352 351//351 342//342
f 342//342 351//351 352//352
f 351//351 342//342 341//341
f 350//350 352//352 345//345
f 342//342 345//345 352//352
f 352//352 345//345 342//342
f 345//345 352//352 350//350
f 349//349 346//346 353//353
f 347//347 353//353 346//346
f 346//346 353//353 347//347
f 353//353 346//346 349//349
f 339//339 199//199 340//340
f 348//348 344//344 354//354
f 202//202 354//354 344//344
f 343//343 202//202 344//344
f 199//199 202//202 343//343
f 340//340 199//199 343//343
f 343//343 199//199 340//340
f 343//343 202//202 199//199
f 344//344 202//202 343//343
f 344//344 354//354 202//202
f 354//354 344//344 348//348
f 340//340 199//199 339//339
f 348//348 354//354 347//347
f 355//355 347//347 354//354
f 354//354 347//347 355//355
f 347//347 354//354 348//348
f 353//353 203//203 349//349
f 350//350 349//349 203//203
f 204//204 350//350 203//203
f 351//351 350//350 204//204
f 352//352 350//350 351//351
f 203//203 353//353 356//356
f 356//356 353//353 203//203
f 351//351 350//350 352//352
f 204//204 350//350 351//351
f 203//203 350//350 204//204
f 203//203 349//349 350//350
f 349//349 203//203 353//353
f 347//347 355//355 353//353
f 356//356 353//353 355//355
f 355//355 353//353 356//356
f 353//353 355//355 347//347
f 200//200 355//355 202//202
f 354//354 202//202 355//355
f 355//355 202//202 354//354
f 202//202 355//355 200//200
f 203//203 356//356 200//200
f 355//355 200//200 356//356
f 356//356 200//200 355//355
f 200//200 356//356 203//203
f 202//202 199//199 200//200
f 201//201 200//200 199//199
f 200//200 201//201 203//203
f 204//204 203//203 201//201
f 347//347 200//200 346//346
f 345//345 346//346 200//200
f 201//201 345//345 200//200
f 341//341 345//345 201//201
f 342//342 345//345 341//341
f 200//200 347//347 355//355
f 355//355 347//347 200//200
f 341//341 345//345 342//342
f 201//201 345//345 341//341
f 200//200 345//345 201//201
f 200//200 346//346 345//345
f 346//346 200//200 347//347
f 357//357 358//358 359//359
f 360//360 359//359 358//358
f 358//358 359//359 360//360
f 359//359 358//358 357//357
f 207//207 205//205 359//359
f 357//357 359//359 205//205
f 205//205 359//359 357//357
f 359//359 205//205 207//207
f 361//361 362//362 363//363
f 364//364 363//363 362//362
f 362//362 363//363 364//364
f 363//363 362//362 361//361
f 363//363 360//360 361//361
f 358//358 361//361 360//360
f 360//360 361//361 358//358
f 361//361 360//360 363//363
f 364//364 362//362 365//365
f 366//366 365//365 362//362
f 362//362 365//365 366//366
f 365//365 362//362 364//364
f 364//364 367//367 363//363
f 368//368 363//363 367//367
f 367//367 363//363 368//368
f 363//363 367//367 364//364
f 210//210 207//207 369//369
f 359//359 369//369 207//207
f 207//207 369//369 359//359
f 369//369 207//207 210//210
f 359//359 360//360 369//369
f 370//370 369//369 360//360
f 360//360 369//369 370//370
f 369//369 360//360 359//359
f 368//368 370//370 363//363
f 360//360 363//363 370//370
f 370//370 363//363 360//360
f 363//363 370//370 368//368
f 367//367 364//364 371//371
f 365//365 371//371 364//364
f 364//364 371//371 365//365
f 371//371 364//364 367//367
f 357//357 205//205 358//358
f 366//366 362//362 372//372
f 208//208 372//372 362//362
f 361//361 208//208 362//362
f 205//205 208//208 361//361
f 358//358 205//205 361//361
f 361//361 205//205 358//358
f 361//361 208//208 205//205
f 362//362 208//208 361//361
f 362//362 372//372 208//208
f 372//372 362//362 366//366
f 358//358 205//205 357//357
f 366//366 372//372 365//365
f 373//373 365//365 372//372
f 372//372 365//365 373//373
f 365//365 372//372 366//366
f 371//371 209//209 367//367
f 368//368 367//367 209//209
f 210//210 368//368 209//209
f 369//369 368//368 210//210
f 370//370 368//368 369//369
f 209//209 371//371 374//374
f 374//374 371//371 209//209
f 369//369 368//368 370//370
f 210//210 368//368 369//369
f 209//209 368//368 210//210
f 209//209 367//367 368//368
f 367//367 209//209 371//371
f 365//365 373//373 371//371
f 374//374 371//371 373//373
f 373//373 371//371 374//374
f 371//371 373//373 365//365
f 206//206 373//373 208//208
f 372//372 208//208 373//373
f 373//373 208//208 372//372
f 208//208 373//373 206//206
f 209//209 374//374 206//206
f 373//373 206//206 374//374
f 374//374 206//206 373//373
f 206//206 374//374 209//209
f 208//208 205//205 206//206
f 207//207 206//206 205//205
f 206//206 207//207 209//209
f 210//210 209//209 207//207
f 365//365 206//206 364//364
f 363//363 364//364 206//206
f 207//207 363//363 206//206
f 359//359 363//363 207//207
f 360//360 363//363 359//359
f 206//206 365//365 373//373
f 373//373 365//365 206//206
f 359//359 363//363 360//360
f 207//207 363//363 359//359
f 206//206 363//363 207//207
f 206//206 364//364 363//363
f 364//364 206//206 365//365
f 375//375 376//376 377//377
f 213//213 377//377 376//376
f 211//211 377//377 213//213
f 378//378 379//379 211//211
f 380//380 211//211 379//379
f 377//377 211//211 380//380
f 380//380 211//211 377//377
f 379//379 211//211 380//380
f 211//211 379//379 378//378
f 213//213 377//377 211//211
f 376//376 377//377 213//213
f 377//377 376//376 375//375
f 380//380 381//381 377//377
f 382//382 377//377 381//381
f 381//381 377//377 382//382
f 377//377 381//381 380//380
f 380//380 379//379 381//381
f 383//383 381//381 379//379
f 379//379 381//381 383//383
f 381//381 379//379 380//380
f 383//383 379//379 384//384
f 378//378 384//384 379//379
f 379//379 384//384 378//378
f 384//384 379//379 383//383
f 378//378 211//211 384//384
f 214//214 384//384 211//211
f 211//211 384//384 214//214
f 384//384 211//211 378//378
f 213//213 376//376 212//212
f 385//385 212//212 376//376
f 376//376 212//212 385//385
f 212//212 376//376 213//213
f 385//385 376//376 386//386
f 375//375 386//386 376//376
f 376//376 386//386 375//375
f 386//386 376//376 385//385
f 375//375 377//377 386//386
f 382//382 386//386 377//377
f 377//377 386//386 382//382
f 386//386 377//377 375//375
f 383//383 384//384 381//381
f 214//214 381//381 384//384
f 212//212 381//381 214//214
f 385//385 386//386 212//212
f 382//382 212//212 386//386
f 381//381 212//212 382//382
f 382//382 212//212 381//381
f 386//386 212//212 382//382
f 212//212 386//386 385//385
f 214//214 381//381 212//212
f 384//384 381//381 214//214
f 381//381 384//384 383//383
f 214//214 211//211 212//212
f 213//213 212//212 211//211
f 387//387 388//388 389//389
f 217//217 389//389 388//388
f 215//215 389//389 217//217
f 390//390 391//391 215//215
f 392//392 215//215 391//391
f 389//389 215//215 392//392
f 392//392 215//215 389//389
f 391//391 215//215 392//392
f 215//215 391//391 390//390
f 217//217 389//389 215//215
f 388//388 389//389 217//217
f 389//389 388//388 387//387
f 392//392 393//393 389//389
f 394//394 389//389 393//393
f 393//393 389//389 394//394
f 389//389 393//393 392//392
f 392//392 391//391 393//393
f 395//395 393//393 391//391
f 391//391 393//393 395//395
f 393//393 391//391 392//392
f 395//395 391//391 396//396
f 390//390 396//396 391//391
f 391//391 396//396 390//390
f 396//396 391//391 395//395
f 390//390 215//215 396//396
f 218//218 396//396 215//215
f 215//215 396//396 218//218
f 396//396 215//215 390//390
f 217//217 388//388 216//216
f 397//397 216//216 388//388
f 388//388 216//216 397//397
f 216//216 388//388 217//217
f 397//397 388//388 398//398
f 387//387 398//398 388//388
f 388//388 398//398 387//387
f 398//398 388//388 397//397
f 387//387 389//389 398//398
f 394//394 398//398 389//389
f 389//389 398//398 394//394
f 398//398 389//389 387//387
f 395//395 396//396 393//393
f 218//218 393//393 396//396
f 216//216 393//393 218//218
f 397//397 398//398 216//216
f 394//394 216//216 398//398
f 393//393 216//216 394//394
f 394//394 216//216 393//393
f 398//398 216//216 394//394
f 216//216 398//398 397//397
f 218//218 393//393 216//216
f 396//396 393//393 218//218
f 393//393 396//396 395//395
f 218//218 215//215 216//216
f 217//217 216//216 215//215
f 2//2 3//3 4//4
f 3//3 2//2 1//1
f 5//5 4//4 6//6
f 4//4 5//5 2//2
f 8//8 9//9 10//10
f 9//9 8//8 7//7
f 11//11 10//10 12//12
f 10//10 11//11 8//8
f 14//14 16//16 13//13
f 11//11 16//16 14//14
f 11//11 15//15 16//16
f 15//15 11//11 12//12
f 13//13 2//2 14//14
f 2//2 13//13 1//1
f 18//18 8//8 11//11
f 8//8 18//18 17//17
f 17//17 7//7 8//8
f 7//7 17//17 19//19
f 18//18 14//14 20//20
f 14//14 18//18 11//11
f 22//22 23//23 24//24
f 23//23 22//22 21//21
f 22//22 26//26 21//21
f 22//22 27//27 26//26
f 27//27 2//2 5//5
f 22//22 2//2 27//27
f 2//2 22//22 14//14
f 21//21 26//26 25//25
f 28//28 23//23 29//29
f 23//23 28//28 24//24
f 9//9 30//30 31//31
f 30//30 9//9 7//7
f 32//32 9//9 31//31
f 32//32 10//10 9//9
f 15//15 10//10 32//32
f 10//10 15//15 12//12
f 34//34 35//35 36//36
f 35//35 34//34 33//33
f 38//38 24//24 28//28
f 24//24 38//38 37//37
f 39//39 24//24 37//37
f 24//24 39//39 22//22
f 20//20 22//22 39//39
f 22//22 20//20 14//14
f 7//7 40//40 30//30
f 40//40 7//7 19//19
f 19//19 41//41 40//40
f 17//17 41//41 19//19
f 18//18 41//41 17//17
f 41//41 18//18 20//20
f 29//29 42//42 43//43
f 23//23 42//42 29//29
f 23//23 25//25 42//42
f 25//25 23//23 21//21
f 43//43 28//28 29//29
f 28//28 43//43 44//44
f 32//32 31//31 46//46
f 35//35 45//45 36//36
f 47//47 45//45 35//35
f 46//46 45//45 47//47
f 31//31 45//45 46//46
f 45//45 31//31 30//30
f 48//48 36//36 49//49
f 36//36 48//48 34//34
f 44//44 38//38 28//28
f 38//38 44//44 50//50
f 41//41 38//38 50//50
f 41//41 37//37 38//38
f 20//20 37//37 41//41
f 37//37 20//20 39//39
f 30//30 41//41 45//45
f 41//41 30//30 40//40
f 49//49 36//36 51//51
f 42//42 44//44 43//43
f 52//52 44//44 42//42
f 51//51 44//44 52//52
f 36//36 44//44 51//51
f 44//44 36//36 45//45
f 45//45 50//50 44//44
f 50//50 45//45 41//41
f 54//54 55//55 56//56
f 55//55 54//54 53//53
f 58//58 59//59 60//60
f 59//59 58//58 57//57
f 62//62 63//63 64//64
f 63//63 62//62 61//61
f 66//66 67//67 68//68
f 67//67 66//66 65//65
f 193//193 191//191 192//192
f 191//191 193//193 194//194
f 198//198 195//195 196//196
f 195//195 198//198 197//197
f 189//189 187//187 190//190
f 187//187 189//189 188//188
f 184//184 185//185 186//186
f 185//185 184//184 183//183
f 181//181 179//179 182//182
f 179//179 181//181 180//180
f 175//175 177//177 176//176
f 177//177 175//175 178//178
f 399//399 400//400 401//401
f 402//402 401//401 400//400
f 400//400 401//401 402//402
f 401//401 400//400 399//399
f 399//399 403//403 400//400
f 404//404 400//400 403//403
f 403//403 400//400 404//404
f 400//400 403//403 399//399
f 404//404 403//403 405//405
f 406//406 405//405 403//403
f 403//403 405//405 406//406
f 405//405 403//403 404//404
f 401//401 402//402 407//407
f 408//408 407//407 402//402
f 402//402 407//407 408//408
f 407//407 402//402 401//401
f 405//405 406//406 409//409
f 410//410 409//409 406//406
f 406//406 409//409 410//410
f 409//409 406//406 405//405
f 410//410 406//406 407//407
f 403//403 407//407 406//406
f 399//399 407//407 403//403
f 401//401 407//407 399//399
f 399//399 407//407 401//401
f 403//403 407//407 399//399
f 406//406 407//407 403//403
f 407//407 406//406 410//410
f 407//407 408//408 411//411
f 412//412 411//411 408//408
f 408//408 411//411 412//412
f 411//411 408//408 407//407
f 410//410 407//407 409//409
f 408//408 409//409 407//407
f 407//407 409//409 408//408
f 409//409 407//407 410//410
f 405//405 409//409 404//404
f 408//408 404//404 409//409
f 400//400 404//404 408//408
f 402//402 400//400 408//408
f 408//408 400//400 402//402
f 408//408 404//404 400//400
f 409//409 404//404 408//408
f 404//404 409//409 405//405
f 409//409 410//410 413//413
f 414//414 413//413 410//410
f 410//410 413//413 414//414
f 413//413 410//410 409//409
f 414//414 410//410 415//415
f 407//407 415//415 410//410
f 416//416 415//415 407//407
f 411//411 416//416 407//407
f 407//407 416//416 411//411
f 407//407 415//415 416//416
f 410//410 415//415 407//407
f 415//415 410//410 414//414
f 411//411 412//412 416//416
f 417//417 416//416 412//412
f 412//412 416//416 417//417
f 416//416 412//412 411//411
f 409//409 413//413 408//408
f 418//418 408//408 413//413
f 417//417 408//408 418//418
f 412//412 408//408 417//417
f 417//417 408//408 412//412
f 418//418 408//408 417//417
f 413//413 408//408 418//418
f 408//408 413//413 409//409
f 413//413 414//414 418//418
f 415//415 418//418 414//414
f 414//414 418//418 415//415
f 418//418 414//414 413//413
f 415//415 416//416 418//418
f 417//417 418//418 416//416
f 416//416 418//418 417//417
f 418//418 416//416 415//415
f 105//105 154//154 110//110
f 154//154 105//105 151//151
f 107//107 110//110 112//112
f 110//110 107//107 105//105
f 73//73 130//130 70//70
f 130//130 73//73 127//127
f 75//75 70//70 72//72
f 70//70 75//75 73//73
f 81//81 126//126 78//78
f 126//126 81//81 123//123
f 83//83 78//78 80//80
f 78//78 83//83 81//81
f 89//89 122//122 86//86
f 122//122 89//89 119//119
f 91//91 86//86 88//88
f 86//86 91//91 89//89
f 97//97 118//118 94//94
f 118//118 97//97 115//115
f 99//99 94//94 96//96
f 94//94 99//99 97//97