# https://github.com/mikedh/trimesh
v -0.00249700 -0.03099600 0.00278600
v -0.00249700 -0.03099600 0.00296900
v -0.00248700 -0.03099600 0.00287800
v -0.00252600 -0.03099600 0.00269900
v -0.00252600 -0.03099600 0.00305600
v -0.00257400 -0.03099600 0.00262000
v -0.00257400 -0.03099600 0.00313400
v -0.00263700 -0.03099600 0.00255400
v -0.00263700 -0.03099600 0.00320100
v -0.00271200 -0.03099600 0.00250200
v -0.00271200 -0.03099600 0.00325300
v -0.00279700 -0.03099600 0.00246800
v -0.00279700 -0.03099600 0.00328700
v -0.00298700 -0.03099600 0.00246800
v -0.00298700 -0.03099600 0.00328700
v 0.00065800 -0.03099600 0.00254400
v -0.00038400 -0.03099600 0.00256800
v 0.00065800 -0.03099600 0.00320800
v -0.00062200 -0.03099600 0.00171800
v -0.00055100 -0.03099600 0.00267000
v 0.00206600 -0.03099600 0.00183100
v 0.00140500 -0.03099600 0.00249800
v 0.00206600 -0.03099600 0.00249800
v 0.00065800 -0.03099600 0.00183100
v 0.00140500 -0.03099600 0.00393400
v 0.00065800 -0.03099600 0.00393400
v 0.00000700 -0.03099600 0.00362900
v 0.00046500 -0.03099600 0.00332100
v -0.00102700 -0.03099600 0.00296600
v -0.00121100 -0.03099600 0.00307600
v -0.00179300 -0.03099600 0.00245500
v -0.00063300 -0.03099600 0.00407000
v -0.00015400 -0.03099600 0.00375300
v -0.00179400 -0.03099600 0.00333500
v -0.00182400 -0.03099600 0.00237700
v -0.00184600 -0.03099600 0.00342400
v -0.00186200 -0.03099600 0.00230200
v -0.00190600 -0.03099600 0.00350800
v -0.00190700 -0.03099600 0.00223000
v -0.00195800 -0.03099600 0.00216300
v -0.00197200 -0.03099600 0.00358500
v -0.00201400 -0.03099600 0.00210000
v -0.00204600 -0.03099600 0.00365700
v -0.00207600 -0.03099600 0.00204400
v -0.00212600 -0.03099600 0.00372100
v -0.00214200 -0.03099600 0.00199200
v -0.00221100 -0.03099600 0.00377900
v -0.00221300 -0.03099600 0.00194600
v -0.00228800 -0.03099600 0.00190700
v -0.00230100 -0.03099600 0.00382800
v -0.00236500 -0.03099600 0.00187400
v -0.00239600 -0.03099600 0.00386900
v -0.00244500 -0.03099600 0.00184800
v -0.00249300 -0.03099600 0.00390100
v -0.00259300 -0.03099600 0.00392400
v -0.00269500 -0.03099600 0.00393800
v -0.00279700 -0.03099600 0.00394200
v -0.00374400 -0.03099600 0.00183000
v -0.00374400 -0.03099600 0.00394200
v -0.00252800 -0.03099600 0.00183000
v 0.00360200 -0.03099600 0.00182500
v 0.00293500 -0.03099600 0.00249800
v 0.00360200 -0.03099600 0.00249800
v 0.00219100 -0.03099600 0.00182500
v 0.00293500 -0.03099600 0.00393800
v 0.00219100 -0.03099600 0.00393800
v 0.00206600 -0.03157100 0.00183100
v 0.00065800 -0.03157100 0.00183100
v 0.00065800 -0.03157100 0.00254400
v -0.00062200 -0.03157100 0.00171800
v -0.00179300 -0.03157100 0.00245500
v -0.00182400 -0.03157100 0.00237700
v -0.00186200 -0.03157100 0.00230200
v -0.00190700 -0.03157100 0.00223000
v -0.00195800 -0.03157100 0.00216300
v -0.00201400 -0.03157100 0.00210000
v -0.00207600 -0.03157100 0.00204400
v -0.00214200 -0.03157100 0.00199200
v -0.00221300 -0.03157100 0.00194600
v -0.00228800 -0.03157100 0.00190700
v -0.00236500 -0.03157100 0.00187400
v -0.00244500 -0.03157100 0.00184800
v -0.00252800 -0.03157100 0.00183000
v -0.00374400 -0.03157100 0.00183000
v -0.00374400 -0.03157100 0.00394200
v -0.00279700 -0.03157100 0.00394200
v -0.00269500 -0.03157100 0.00393800
v -0.00259300 -0.03157100 0.00392400
v -0.00249300 -0.03157100 0.00390100
v -0.00239600 -0.03157100 0.00386900
v -0.00230100 -0.03157100 0.00382800
v -0.00221100 -0.03157100 0.00377900
v -0.00212600 -0.03157100 0.00372100
v -0.00204600 -0.03157100 0.00365700
v -0.00197200 -0.03157100 0.00358500
v -0.00190600 -0.03157100 0.00350800
v -0.00184600 -0.03157100 0.00342400
v -0.00179400 -0.03157100 0.00333500
v -0.00063300 -0.03157100 0.00407000
v -0.00015400 -0.03157100 0.00375300
v -0.00121100 -0.03157100 0.00307600
v -0.00102700 -0.03157100 0.00296600
v 0.00000700 -0.03157100 0.00362900
v 0.00046500 -0.03157100 0.00332100
v -0.00055100 -0.03157100 0.00267000
v -0.00038400 -0.03157100 0.00256800
v 0.00065800 -0.03157100 0.00320800
v 0.00065800 -0.03157100 0.00393400
v 0.00140500 -0.03157100 0.00393400
v 0.00140500 -0.03157100 0.00249800
v 0.00206600 -0.03157100 0.00249800
v -0.00298700 -0.03157100 0.00246800
v -0.00279700 -0.03157100 0.00246800
v -0.00271200 -0.03157100 0.00250200
v -0.00263700 -0.03157100 0.00255400
v -0.00257400 -0.03157100 0.00262000
v -0.00252600 -0.03157100 0.00269900
v -0.00249700 -0.03157100 0.00278600
v -0.00248700 -0.03157100 0.00287800
v -0.00298700 -0.03157100 0.00328700
v -0.00279700 -0.03157100 0.00328700
v -0.00271200 -0.03157100 0.00325300
v -0.00263700 -0.03157100 0.00320100
v -0.00257400 -0.03157100 0.00313400
v -0.00252600 -0.03157100 0.00305600
v -0.00249700 -0.03157100 0.00296900
v 0.00219100 -0.03157100 0.00393800
v 0.00293500 -0.03157100 0.00393800
v 0.00293500 -0.03157100 0.00249800
v 0.00360200 -0.03157100 0.00249800
v 0.00360200 -0.03157100 0.00182500
v 0.00219100 -0.03157100 0.00182500
v -0.00022000 -0.03134500 -0.00694900
v -0.00001600 -0.03134500 -0.00613500
v -0.00022000 -0.03134500 -0.00613500
v -0.00001600 -0.03134500 -0.00694900
v -0.00038000 -0.03134500 -0.00696900
v -0.00035700 -0.03134500 -0.00695100
v -0.00036800 -0.03134500 -0.00687200
v -0.00032700 -0.03134500 -0.00702500
v -0.00036300 -0.03134500 -0.00706500
v -0.00027800 -0.03134500 -0.00708800
v -0.00021500 -0.03134500 -0.00713600
v -0.00031700 -0.03134500 -0.00715200
v -0.00014100 -0.03134500 -0.00716700
v -0.00006200 -0.03134500 -0.00717700
v -0.00024700 -0.03134500 -0.00722000
v 0.00023300 -0.03134500 -0.00695100
v 0.00025600 -0.03134500 -0.00696900
v 0.00024300 -0.03134500 -0.00687200
v 0.00020200 -0.03134500 -0.00702500
v 0.00023800 -0.03134500 -0.00706500
v 0.00015400 -0.03134500 -0.00708800
v 0.00009100 -0.03134500 -0.00713600
v 0.00019200 -0.03134500 -0.00715200
v 0.00001700 -0.03134500 -0.00716700
v 0.00012200 -0.03134500 -0.00722000
v -0.00015900 -0.03134500 -0.00726400
v 0.00003500 -0.03134500 -0.00726400
v -0.00006200 -0.03134500 -0.00727900
v 0.00991100 -0.03046800 -0.03757500
v -0.00944100 -0.03102600 -0.03693600
v 0.00991100 -0.03102600 -0.03693600
v -0.00944100 -0.03046800 -0.03757500
v 0.00991100 -0.02987700 -0.03818200
v -0.00944100 -0.02987700 -0.03818200
v -0.00944100 -0.02925400 -0.03875600
v 0.00991100 -0.02925400 -0.03875600
v -0.00944100 -0.02860000 -0.03929700
v 0.00991100 -0.02860000 -0.03929700
v -0.00944100 -0.02791900 -0.03980100
v 0.00991100 -0.02791900 -0.03980100
v -0.00944100 -0.02721200 -0.04026800
v 0.00991100 -0.02721200 -0.04026800
v -0.00944100 -0.02648000 -0.04069600
v 0.00991100 -0.02648000 -0.04069600
v -0.00944100 -0.02572600 -0.04108400
v 0.00991100 -0.02572600 -0.04108400
v -0.00944100 -0.02495300 -0.04143100
v 0.00991100 -0.02495300 -0.04143100
v -0.00944100 -0.02416200 -0.04173500
v 0.00991100 -0.02416200 -0.04173500
v -0.00944100 -0.02335500 -0.04199700
v 0.00991100 -0.02335500 -0.04199700
v -0.00944100 -0.02762100 0.04249900
v 0.00991100 -0.02697500 0.04274200
v 0.00991100 -0.02762100 0.04249900
v -0.00944100 -0.02697500 0.04274200
v -0.00944100 -0.02823800 0.04218900
v 0.00991100 -0.02823800 0.04218900
v -0.00944100 -0.02881900 0.04181600
v 0.00991100 -0.02881900 0.04181600
v -0.00944100 -0.02935700 0.04138400
v 0.00991100 -0.02935700 0.04138400
v -0.00944100 -0.02984700 0.04089800
v 0.00991100 -0.02984700 0.04089800
v -0.00944100 -0.03028300 0.04036300
v 0.00991100 -0.03028300 0.04036300
v 0.00991100 -0.03066100 0.03978600
v -0.00944100 -0.03066100 0.03978600
v 0.00991100 -0.03097600 0.03917200
v -0.00944100 -0.03097600 0.03917200
v 0.00991100 -0.03122500 0.03852800
v -0.00944100 -0.03122500 0.03852800
v 0.00991100 -0.03140400 0.03786100
v -0.00944100 -0.03140400 0.03786100
v -0.00944100 -0.03154900 -0.03626900
v 0.00991100 -0.03154900 -0.03626900
v 0.00991100 -0.03151300 0.03718000
v -0.00944100 -0.03151300 0.03718000
v 0.00991100 -0.03154900 0.03649100
v 0.00206700 -0.03154900 0.03649100
v -0.00241400 -0.03154900 0.03649100
v -0.00944100 -0.03154900 0.03649100
v -0.00042900 -0.03154900 -0.00556700
v 0.00008200 -0.03154900 -0.00556700
v -0.00017400 -0.03154900 -0.00554900
v -0.00068000 -0.03154900 -0.00562000
v 0.00033300 -0.03154900 -0.00562000
v -0.00092100 -0.03154900 -0.00570800
v 0.00057300 -0.03154900 -0.00570800
v -0.00017400 -0.03154900 -0.00575200
v -0.00038200 -0.03154900 -0.00576400
v -0.00058800 -0.03154900 -0.00579900
v -0.00114700 -0.03154900 -0.00582900
v -0.00078800 -0.03154900 -0.00585700
v -0.00098100 -0.03154900 -0.00593700
v -0.00135400 -0.03154900 -0.00598100
v -0.00116400 -0.03154900 -0.00603900
v -0.00153700 -0.03154900 -0.00616000
v -0.00133400 -0.03154900 -0.00616000
v -0.00153700 -0.03154900 -0.03449000
v -0.00133400 -0.03154900 -0.03449000
v -0.00122500 -0.03154900 -0.03471600
v -0.00142100 -0.03154900 -0.03477000
v -0.00107200 -0.03154900 -0.03491600
v -0.00124700 -0.03154900 -0.03501900
v -0.00088200 -0.03154900 -0.03508000
v -0.00066300 -0.03154900 -0.03520300
v -0.00102500 -0.03154900 -0.03522500
v -0.00042400 -0.03154900 -0.03527900
v -0.00017400 -0.03154900 -0.03530400
v -0.00076400 -0.03154900 -0.03538000
v 0.00003500 -0.03154900 -0.00576400
v 0.00024000 -0.03154900 -0.00579900
v 0.00079900 -0.03154900 -0.00582900
v 0.00044100 -0.03154900 -0.00585700
v 0.00063400 -0.03154900 -0.00593700
v 0.00100600 -0.03154900 -0.00598100
v 0.00081600 -0.03154900 -0.00603900
v 0.00098600 -0.03154900 -0.00616000
v 0.00119000 -0.03154900 -0.00616000
v 0.00098600 -0.03154900 -0.03449000
v 0.00119000 -0.03154900 -0.03449000
v 0.00087700 -0.03154900 -0.03471600
v 0.00107300 -0.03154900 -0.03477000
v 0.00072500 -0.03154900 -0.03491600
v 0.00090000 -0.03154900 -0.03501900
v 0.00053500 -0.03154900 -0.03508000
v 0.00031600 -0.03154900 -0.03520300
v 0.00067700 -0.03154900 -0.03522500
v 0.00007600 -0.03154900 -0.03527900
v 0.00041600 -0.03154900 -0.03538000
v -0.00047600 -0.03154900 -0.03547600
v 0.00012800 -0.03154900 -0.03547600
v -0.00017400 -0.03154900 -0.03550800
v 0.00991100 0.03811600 -0.04199700
v -0.00944100 0.03811600 0.04274200
v 0.00991100 0.03811600 0.04274200
v -0.00944100 0.03811600 -0.04199700
v 0.00991100 -0.03028500 0.03580300
v 0.00991100 -0.02639400 0.00710700
v 0.00991100 -0.02639400 0.03580300
v 0.00991100 -0.03028500 0.00382200
v 0.00054600 -0.03134500 -0.00620900
v 0.00070800 -0.03114200 -0.00642000
v 0.00054600 -0.03114200 -0.00620900
v 0.00070800 -0.03134500 -0.00642000
v 0.00081000 -0.03114200 -0.00666600
v 0.00081000 -0.03134500 -0.00666600
v 0.00033600 -0.03114200 -0.00604700
v 0.00033600 -0.03134500 -0.00604700
v 0.00084500 -0.03114200 -0.00692900
v 0.00084500 -0.03134500 -0.00692900
v 0.00009000 -0.03114200 -0.00594600
v 0.00009000 -0.03134500 -0.00594600
v 0.00081000 -0.03114200 -0.00719300
v 0.00081000 -0.03134500 -0.00719300
v -0.00017400 -0.03114200 -0.00591100
v -0.00017400 -0.03134500 -0.00591100
v 0.00070800 -0.03114200 -0.00743900
v 0.00070800 -0.03134500 -0.00743900
v -0.00043700 -0.03114200 -0.00594600
v -0.00043700 -0.03134500 -0.00594600
v 0.00054600 -0.03114200 -0.00765000
v 0.00054600 -0.03134500 -0.00765000
v -0.00068300 -0.03114200 -0.00604700
v -0.00068300 -0.03134500 -0.00604700
v 0.00033600 -0.03134500 -0.00781100
v 0.00033600 -0.03114200 -0.00781100
v -0.00089400 -0.03114200 -0.00620900
v -0.00089400 -0.03134500 -0.00620900
v 0.00009000 -0.03134500 -0.00791300
v 0.00009000 -0.03114200 -0.00791300
v -0.00105600 -0.03134500 -0.00642000
v -0.00105600 -0.03114200 -0.00642000
v -0.00017400 -0.03134500 -0.00794800
v -0.00017400 -0.03114200 -0.00794800
v -0.00115800 -0.03134500 -0.00666600
v -0.00115800 -0.03114200 -0.00666600
v -0.00043700 -0.03134500 -0.00791300
v -0.00043700 -0.03114200 -0.00791300
v -0.00119200 -0.03134500 -0.00692900
v -0.00119200 -0.03114200 -0.00692900
v -0.00068300 -0.03134500 -0.00781100
v -0.00068300 -0.03114200 -0.00781100
v -0.00115800 -0.03134500 -0.00719300
v -0.00115800 -0.03114200 -0.00719300
v -0.00089400 -0.03134500 -0.00765000
v -0.00089400 -0.03114200 -0.00765000
v -0.00105600 -0.03134500 -0.00743900
v -0.00105600 -0.03114200 -0.00743900
v -0.00020800 -0.02177100 -0.02004800
v 0.00010800 -0.02177100 -0.02004800
v -0.00005000 -0.02177100 -0.02002700
v -0.00035600 -0.02177100 -0.02010900
v 0.00025500 -0.02177100 -0.02010900
v -0.00048200 -0.02177100 -0.02020600
v 0.00038200 -0.02177100 -0.02020600
v -0.00057900 -0.02177100 -0.02033300
v 0.00047900 -0.02177100 -0.02033300
v -0.00064000 -0.02177100 -0.02048000
v 0.00054000 -0.02177100 -0.02048000
v -0.00066100 -0.02177100 -0.02063800
v 0.00056100 -0.02177100 -0.02063800
v -0.00064000 -0.02177100 -0.02079600
v 0.00054000 -0.02177100 -0.02079600
v -0.00057900 -0.02177100 -0.02094400
v 0.00047900 -0.02177100 -0.02094400
v -0.00048200 -0.02177100 -0.02107000
v 0.00038200 -0.02177100 -0.02107000
v -0.00035600 -0.02177100 -0.02116700
v 0.00025500 -0.02177100 -0.02116700
v -0.00020800 -0.02177100 -0.02122800
v 0.00010800 -0.02177100 -0.02122800
v -0.00005000 -0.02177100 -0.02124900
v -0.00022800 -0.02706800 -0.01843400
v 0.00008800 -0.02706800 -0.01843400
v -0.00007000 -0.02706800 -0.01841300
v -0.00037600 -0.02706800 -0.01849500
v 0.00023600 -0.02706800 -0.01849500
v -0.00050200 -0.02706800 -0.01859200
v 0.00036200 -0.02706800 -0.01859200
v -0.00059900 -0.02706800 -0.01871800
v 0.00045900 -0.02706800 -0.01871800
v -0.00066000 -0.02706800 -0.01886600
v 0.00052000 -0.02706800 -0.01886600
v -0.00068100 -0.02706800 -0.01902400
v 0.00054100 -0.02706800 -0.01902400
v -0.00066000 -0.02706800 -0.01918200
v 0.00052000 -0.02706800 -0.01918200
v -0.00059900 -0.02706800 -0.01933000
v 0.00045900 -0.02706800 -0.01933000
v -0.00050200 -0.02706800 -0.01945600
v 0.00036200 -0.02706800 -0.01945600
v -0.00037600 -0.02706800 -0.01955300
v 0.00023600 -0.02706800 -0.01955300
v -0.00022800 -0.02706800 -0.01961400
v 0.00008800 -0.02706800 -0.01961400
v -0.00007000 -0.02706800 -0.01963500
v 0.00206700 -0.03154900 0.00643900
v 0.00299500 -0.03154900 0.00572700
v 0.00370700 -0.03154900 0.00479900
v 0.00415500 -0.03154900 0.00371800
v 0.00430800 -0.03154900 0.00255800
v 0.00991100 -0.03154900 0.00255800
v -0.00133400 -0.03154900 0.00688700
v 0.00098600 -0.03154900 0.00688700
v -0.00017400 -0.03154900 0.00703900
v -0.00241400 -0.03154900 0.00643900
v -0.00334300 -0.03154900 0.00572700
v -0.00405500 -0.03154900 0.00479900
v -0.00450200 -0.03154900 0.00371800
v -0.00465500 -0.03154900 0.00255800
v -0.00450200 -0.03154900 0.00139800
v 0.00415500 -0.03154900 0.00139800
v -0.00405500 -0.03154900 0.00031700
v 0.00370700 -0.03154900 0.00031700
v -0.00334300 -0.03154900 -0.00061100
v 0.00299500 -0.03154900 -0.00061100
v -0.00241400 -0.03154900 -0.00132300
v 0.00206700 -0.03154900 -0.00132300
v -0.00133400 -0.03154900 -0.00177100
v 0.00098600 -0.03154900 -0.00177100
v -0.00017400 -0.03154900 -0.00192300
v -0.00944100 -0.03154900 0.00255800
v -0.00944100 0.03535700 -0.03856100
v -0.00944100 -0.02371500 -0.03856100
v -0.00944100 -0.02470300 -0.03813200
v -0.00944100 -0.02564300 -0.03760500
v -0.00944100 -0.02652400 -0.03698700
v -0.00944100 -0.02733900 -0.03628300
v -0.00944100 -0.02807900 -0.03550000
v -0.00944100 -0.02873600 -0.03464700
v -0.00944100 -0.02930400 -0.03373200
v -0.00944100 -0.02977700 -0.03276400
v -0.00944100 -0.03014900 -0.03175400
v -0.00944100 -0.03041800 -0.03071100
v -0.00944100 -0.03058100 -0.02964700
v -0.00944100 -0.03063500 -0.02857100
v -0.00944100 -0.03063500 0.03620500
v -0.00944100 0.03535700 0.04088200
v -0.00944100 -0.02371500 0.04088200
v -0.00944100 -0.02444800 0.04082900
v -0.00944100 -0.02517300 0.04070600
v -0.00944100 -0.02588300 0.04051600
v -0.00944100 -0.02657100 0.04025900
v -0.00944100 -0.02723200 0.03993800
v -0.00944100 -0.02786000 0.03955600
v -0.00944100 -0.02844800 0.03911600
v -0.00944100 -0.02899200 0.03862300
v -0.00944100 -0.02948700 0.03808000
v -0.00944100 -0.02992900 0.03749200
v -0.00944100 -0.03031200 0.03686500
v -0.00180800 -0.03154900 0.02832400
v 0.00145100 -0.03154900 0.03606400
v -0.00180800 -0.03154900 0.03606400
v 0.00145100 -0.03154900 0.02832400
v -0.00944100 -0.02644800 0.00768900
v -0.00944100 -0.03028500 0.00382200
v -0.00944100 -0.03033900 0.03638500
v -0.00944100 -0.02644800 0.03638500
v -0.00944100 -0.02253800 -0.03418700
v -0.00944100 -0.01907500 0.03792200
v -0.00944100 -0.01907500 -0.03418700
v -0.00944100 -0.02253800 0.03792200
v -0.00944100 0.02981300 -0.03418700
v -0.00944100 0.03286900 0.03792200
v -0.00944100 0.03327600 -0.03418700
v -0.00944100 0.02940600 0.03792200
v -0.00944100 0.03327600 -0.03581700
v -0.00944100 0.02981300 -0.03581700
v -0.00944100 -0.01907500 -0.03581700
v -0.00944100 0.02940600 0.03955200
v -0.00944100 -0.02253800 -0.03581700
v -0.00944100 -0.02253800 0.03955200
v -0.00944100 0.03286900 0.03955200
v -0.00944100 -0.01907500 0.03955200
v -0.01025600 -0.01907500 0.03955200
v -0.01025600 -0.01907500 0.03792200
v -0.01025600 -0.02253800 0.03792200
v -0.01025600 -0.02253800 0.03955200
v -0.01025600 0.02940600 0.03792200
v -0.01025600 0.03286900 0.03792200
v -0.01025600 0.02940600 0.03955200
v -0.01025600 0.03286900 0.03955200
v -0.01005200 -0.01907500 -0.03418700
v -0.01005200 -0.02253800 -0.03418700
v -0.01005200 -0.01907500 -0.03581700
v -0.01005200 -0.02253800 -0.03581700
v -0.01005200 0.03327600 -0.03418700
v -0.01005200 0.03327600 -0.03581700
v -0.01005200 0.02981300 -0.03581700
v -0.01005200 0.02981300 -0.03418700
v 0.00024000 -0.03114200 -0.00579900
v 0.00003500 -0.03114200 -0.00576400
v 0.00044100 -0.03114200 -0.00585700
v 0.00063400 -0.03114200 -0.00593700
v 0.00081600 -0.03114200 -0.00603900
v 0.00098600 -0.03114200 -0.00616000
v 0.00098600 -0.03114200 -0.03449000
v 0.00087700 -0.03114200 -0.03471600
v 0.00072500 -0.03114200 -0.03491600
v 0.00053500 -0.03114200 -0.03508000
v 0.00031600 -0.03114200 -0.03520300
v 0.00007600 -0.03114200 -0.03527900
v -0.00017400 -0.03114200 -0.03530400
v -0.00042400 -0.03114200 -0.03527900
v -0.00066300 -0.03114200 -0.03520300
v -0.00088200 -0.03114200 -0.03508000
v -0.00107200 -0.03114200 -0.03491600
v -0.00122500 -0.03114200 -0.03471600
v -0.00133400 -0.03114200 -0.03449000
v -0.00133400 -0.03114200 -0.00616000
v -0.00116400 -0.03114200 -0.00603900
v -0.00098100 -0.03114200 -0.00593700
v -0.00078800 -0.03114200 -0.00585700
v -0.00058800 -0.03114200 -0.00579900
v -0.00038200 -0.03114200 -0.00576400
v -0.00017400 -0.03114200 -0.00575200
v -0.00120200 -0.03114200 -0.00855700
v -0.00120200 -0.03114200 -0.00998300
v -0.00120200 -0.03114200 -0.01018600
v 0.00083500 -0.03114200 -0.00998300
v -0.00120200 -0.03114200 -0.01161200
v -0.00007000 -0.03114200 -0.01841300
v 0.00083500 -0.03114200 -0.01161200
v -0.00022800 -0.03114200 -0.01843400
v -0.00037600 -0.03114200 -0.01849500
v -0.00050200 -0.03114200 -0.01859200
v -0.00059900 -0.03114200 -0.01871800
v -0.00066000 -0.03114200 -0.01886600
v -0.00068100 -0.03114200 -0.01902400
v -0.00022800 -0.03114200 -0.01961400
v -0.00005000 -0.03114200 -0.02002700
v -0.00007000 -0.03114200 -0.01963500
v -0.00037600 -0.03114200 -0.01955300
v -0.00050200 -0.03114200 -0.01945600
v -0.00020800 -0.03114200 -0.02004800
v -0.00059900 -0.03114200 -0.01933000
v -0.00035600 -0.03114200 -0.02010900
v -0.00066000 -0.03114200 -0.01918200
v -0.00048200 -0.03114200 -0.02020600
v -0.00057900 -0.03114200 -0.02033300
v -0.00064000 -0.03114200 -0.02048000
v -0.00066100 -0.03114200 -0.02063800
v -0.00020800 -0.03114200 -0.02122800
v -0.00005000 -0.03114200 -0.02124900
v -0.00035600 -0.03114200 -0.02116700
v -0.00048200 -0.03114200 -0.02107000
v -0.00057900 -0.03114200 -0.02094400
v -0.00064000 -0.03114200 -0.02079600
v 0.00083500 -0.03114200 -0.00855700
v 0.00083500 -0.03114200 -0.01018600
v 0.00008800 -0.03114200 -0.01843400
v 0.00023600 -0.03114200 -0.01849500
v 0.00036200 -0.03114200 -0.01859200
v 0.00045900 -0.03114200 -0.01871800
v 0.00052000 -0.03114200 -0.01886600
v 0.00054100 -0.03114200 -0.01902400
v 0.00008800 -0.03114200 -0.01961400
v 0.00023600 -0.03114200 -0.01955300
v 0.00036200 -0.03114200 -0.01945600
v 0.00045900 -0.03114200 -0.01933000
v 0.00010800 -0.03114200 -0.02004800
v 0.00025500 -0.03114200 -0.02010900
v 0.00052000 -0.03114200 -0.01918200
v 0.00038200 -0.03114200 -0.02020600
v 0.00047900 -0.03114200 -0.02033300
v 0.00054000 -0.03114200 -0.02048000
v 0.00056100 -0.03114200 -0.02063800
v 0.00010800 -0.03114200 -0.02122800
v 0.00025500 -0.03114200 -0.02116700
v 0.00038200 -0.03114200 -0.02107000
v 0.00047900 -0.03114200 -0.02094400
v 0.00054000 -0.03114200 -0.02079600
v -0.00120200 -0.02849300 -0.01161200
v 0.00083500 -0.02849300 -0.01161200
v -0.00120200 -0.02849300 -0.01018600
v -0.00105700 -0.02849300 -0.01033500
v 0.00083500 -0.02849300 -0.01018600
v -0.00105700 -0.02849300 -0.01094600
v 0.00077700 -0.02849300 -0.01094600
v 0.00077700 -0.02849300 -0.01033500
v -0.00105700 -0.03114200 -0.01094600
v -0.00105700 -0.03114200 -0.01033500
v 0.00077700 -0.03114200 -0.01033500
v 0.00077700 -0.03114200 -0.01094600
v -0.00105700 -0.02849300 -0.00870600
v 0.00077700 -0.03114200 -0.00870600
v 0.00077700 -0.02849300 -0.00870600
v -0.00105700 -0.03114200 -0.00870600
v 0.00077700 -0.02849300 -0.00931700
v 0.00077700 -0.03114200 -0.00931700
v -0.00105700 -0.03114200 -0.00931700
v -0.00105700 -0.02849300 -0.00931700
v -0.00120200 -0.02849300 -0.00998300
v 0.00083500 -0.02849300 -0.00998300
v -0.00120200 -0.02849300 -0.00855700
v 0.00083500 -0.02849300 -0.00855700
vn 0.00000000 -0.00000000 0.00000000
vn 0.00000000 -0.00000000 0.00000000
vn -0.00000000 0.00000000 0.00000000
vn 0.00000000 0.00000000 -0.00000000
vn -0.00000000 0.00000000 -0.00000000
vn -0.00000000 0.00000000 0.00000000
vn 0.00000000 -0.00000000 0.00000000
vn 0.00000000 0.00000000 -0.00000000
vn -0.00000000 -0.00000000 -0.00000000
vn -0.00000000 0.00000000 0.00000000
vn 0.00000000 0.00000000 0.00000000
vn 0.00000000 -0.00000000 -0.00000000
vn 0.00000000 0.00000000 0.00000000
vn 0.00000000 0.00000000 0.00000000
vn 0.00000000 0.00000000 0.00000000
vn -0.00000000 0.00000000 0.00000000
vn 0.00000000 0.00000000 -0.00000000
vn -0.00000000 0.00000000 0.00000000
vn 0.00000000 -0.00000000 -0.00000000
vn 0.00000000 0.00000000 -0.00000000
vn 0.00000000 -0.00000000 0.00000000
vn 0.00000000 -0.00000000 0.00000000
vn -0.00000000 0.00000000 0.00000000
vn 0.00000000 -0.00000000 0.00000000
vn -0.00000000 0.00000000 -0.00000000
vn 0.00000000 0.00000000 0.00000000
vn -0.00000000 -0.00000000 -0.00000000
vn -0.00000000 -0.00000000 0.00000000
vn -0.00000000 0.00000000 0.00000000
vn 0.00000000 -0.00000000 0.00000000
vn 0.00000000 -0.00000000 -0.00000000
vn -0.00000000 -0.00000000 -0.00000000
vn 0.00000000 0.00000000 0.00000000
vn -0.00000000 -0.00000000 0.00000000
vn -0.00000000 0.00000000 0.00000000
vn -0.00000000 0.00000000 -0.00000000
vn -0.00000000 -0.00000000 0.00000000
vn -0.00000000 0.00000000 0.00000000
vn 0.00000000 0.00000000 -0.00000000
vn 0.00000000 0.00000000 -0.00000000
vn 0.00000000 0.00000000 0.00000000
vn -0.00000000 -0.00000000 0.00000000
vn 0.00000000 0.00000000 0.00000000
vn -0.00000000 -0.00000000 0.00000000
vn -0.00000000 -0.00000000 0.00000000
vn 0.00000000 -0.00000000 0.00000000
vn -0.00000000 0.00000000 -0.00000000
vn 0.00000000 0.00000000 0.00000000
vn 0.00000000 0.00000000 -0.00000000
vn -0.00000000 -0.00000000 0.00000000
vn -0.00000000 -0.00000000 0.00000000
vn 0.00000000 0.00000000 0.00000000
vn 0.00000000 -0.00000000 -0.00000000
vn -0.00000000 0.00000000 -0.00000000
vn 0.00000000 -0.00000000 0.00000000
vn -0.00000000 -0.00000000 0.00000000
vn -0.00000000 -0.00000000 -0.00000000
vn 0.00000000 -0.00000000 -0.00000000
vn -0.00000000 0.00000000 -0.00000000
vn 0.00000000 -0.00000000 -0.00000000
vn 0.00000000 -0.00000000 0.00000000
vn 0.00000000 0.00000000 -0.00000000
vn 0.00000000 -0.00000000 0.00000000
vn -0.00000000 0.00000000 -0.00000000
vn 0.00000000 -0.00000000 -0.00000000
vn 0.00000000 0.00000000 0.00000000
vn -0.00000000 -0.00000000 0.00000000
vn 0.00000000 0.00000000 0.00000000
vn 0.00000000 0.00000000 -0.00000000
vn -0.00000000 -0.00000000 0.00000000
vn -0.00000000 0.00000000 -0.00000000
vn 0.00000000 0.00000000 -0.00000000
vn 0.00000000 0.00000000 -0.00000000
vn -0.00000000 -0.00000000 0.00000000
vn 0.00000000 -0.00000000 0.00000000
vn 0.00000000 -0.00000000 -0.00000000
vn -0.00000000 -0.00000000 -0.00000000
vn 0.00000000 -0.00000000 -0.00000000
vn -0.00000000 -0.00000000 0.00000000
vn -0.00000000 -0.00000000 0.00000000
vn 0.00000000 0.00000000 -0.00000000
vn -0.00000000 -0.00000000 0.00000000
vn -0.00000000 0.00000000 0.00000000
vn -0.00000000 0.00000000 0.00000000
vn 0.00000000 0.00000000 0.00000000
vn 0.00000000 -0.00000000 0.00000000
vn 0.00000000 0.00000000 -0.00000000
vn -0.00000000 0.00000000 -0.00000000
vn 0.00000000 0.00000000 0.00000000
vn -0.00000000 -0.00000000 -0.00000000
vn 0.00000000 0.00000000 0.00000000
vn 0.00000000 -0.00000000 -0.00000000
vn 0.00000000 0.00000000 0.00000000
vn -0.00000000 0.00000000 -0.00000000
vn 0.00000000 0.00000000 0.00000000
vn 0.00000000 -0.00000000 0.00000000
vn 0.00000000 -0.00000000 0.00000000
vn 0.00000000 -0.00000000 -0.00000000
vn 0.00000000 -0.00000000 0.00000000
vn -0.00000000 0.00000000 -0.00000000
vn 0.00000000 0.00000000 0.00000000
vn 0.00000000 -0.00000000 -0.00000000
vn -0.00000000 0.00000000 0.00000000
vn 0.00000000 0.00000000 -0.00000000
vn -0.00000000 0.00000000 0.00000000
vn -0.00000000 0.00000000 0.00000000
vn 0.00000000 0.00000000 -0.00000000
vn -0.00000000 0.00000000 -0.00000000
vn 0.00000000 0.00000000 0.00000000
vn -0.00000000 -0.00000000 0.00000000
vn 0.00000000 -0.00000000 0.00000000
vn 0.00000000 -0.00000000 -0.00000000
vn -0.00000000 0.00000000 0.00000000
vn 0.00000000 0.00000000 -0.00000000
vn 0.00000000 -0.00000000 0.00000000
vn 0.00000000 -0.00000000 0.00000000
vn -0.00000000 0.00000000 0.00000000
vn 0.00000000 0.00000000 -0.00000000
vn 0.00000000 -0.00000000 -0.00000000
vn 0.00000000 0.00000000 -0.00000000
vn -0.00000000 0.00000000 -0.00000000
vn -0.00000000 0.00000000 -0.00000000
vn 0.00000000 0.00000000 0.00000000
vn -0.00000000 0.00000000 -0.00000000
vn 0.00000000 -0.00000000 0.00000000
vn -0.00000000 0.00000000 -0.00000000
vn -0.00000000 0.00000000 -0.00000000
vn 0.00000000 0.00000000 0.00000000
vn 0.00000000 -0.00000000 0.00000000
vn 0.00000000 0.00000000 -0.00000000
vn 0.00000000 0.00000000 -0.00000000
vn 0.00000000 0.00000000 0.00000000
vn 0.00000000 -1.00000000 0.00000000
vn 0.00000000 -1.00000000 0.00000000
vn 0.00000000 -1.00000000 0.00000000
vn 0.00000000 -1.00000000 0.00000000
vn 0.00000000 -1.00000000 0.00000000
vn 0.00000000 -1.00000000 0.00000000
vn 0.00000000 -1.00000000 0.00000000
vn 0.00000000 -1.00000000 0.00000000
vn 0.00000000 -1.00000000 0.00000000
vn 0.00000000 -1.00000000 0.00000000
vn 0.00000000 -1.00000000 0.00000000
vn 0.00000000 -1.00000000 0.00000000
vn 0.00000000 -1.00000000 0.00000000
vn 0.00000000 -1.00000000 0.00000000
vn 0.00000000 -1.00000000 0.00000000
vn 0.00000000 -1.00000000 0.00000000
vn 0.00000000 -1.00000000 0.00000000
vn 0.00000000 -1.00000000 0.00000000
vn 0.00000000 -1.00000000 0.00000000
vn 0.00000000 -1.00000000 0.00000000
vn 0.00000000 -1.00000000 0.00000000
vn 0.00000000 -1.00000000 0.00000000
vn 0.00000000 -1.00000000 0.00000000
vn 0.00000000 -1.00000000 0.00000000
vn 0.00000000 -1.00000000 0.00000000
vn 0.00000000 -1.00000000 0.00000000
vn 0.00000000 -1.00000000 0.00000000
vn 0.00000000 -1.00000000 0.00000000
vn 1.00000000 -0.00000000 -0.00000000
vn -1.00000000 -0.00000000 -0.00000000
vn 1.00000000 0.00000000 0.00000000
vn -1.00000000 0.00000000 0.00000000
vn 1.00000000 -0.00000000 -0.00000000
vn -1.00000000 0.00000000 0.00000000
vn -1.00000000 -0.00000000 0.00000000
vn 1.00000000 0.00000000 0.00000000
vn -1.00000000 0.00000000 0.00000000
vn 1.00000000 -0.00000000 -0.00000000
vn -1.00000000 -0.00000000 -0.00000000
vn 1.00000000 0.00000000 0.00000000
vn -1.00000000 0.00000000 0.00000000
vn 1.00000000 -0.00000000 -0.00000000
vn -1.00000000 -0.00000000 -0.00000000
vn 1.00000000 0.00000000 0.00000000
vn -1.00000000 -0.00000000 -0.00000000
vn 1.00000000 0.00000000 0.00000000
vn -1.00000000 0.00000000 0.00000000
vn 1.00000000 -0.00000000 -0.00000000
vn -1.00000000 -0.00000000 -0.00000000
vn 1.00000000 0.00000000 0.00000000
vn -0.87417445 0.00000000 -0.48561201
vn 0.87417445 -0.00000000 -0.48561201
vn -1.00000000 0.00000000 -0.00000000
vn 0.87076765 0.00000000 0.49169473
vn 1.00000000 -0.00000000 0.00000000
vn -0.87076765 -0.00000000 0.49169473
vn -1.00000000 0.00000000 -0.00000000
vn 1.00000000 -0.00000000 0.00000000
vn -1.00000000 -0.00000000 0.00000000
vn 1.00000000 0.00000000 -0.00000000
vn -1.00000000 0.00000000 -0.00000000
vn 1.00000000 -0.00000000 0.00000000
vn -1.00000000 0.00000000 0.00000000
vn 1.00000000 0.00000000 0.00000000
vn -1.00000000 -0.00000000 0.00000000
vn 1.00000000 0.00000000 -0.00000000
vn 1.00000000 -0.00000000 0.00000000
vn -1.00000000 0.00000000 -0.00000000
vn 1.00000000 -0.00000000 0.00000000
vn -1.00000000 0.00000000 -0.00000000
vn 1.00000000 0.00000000 -0.00000000
vn -1.00000000 0.00000000 0.00000000
vn 1.00000000 0.00000000 -0.00000000
vn -1.00000000 0.00000000 0.00000000
vn -0.84446872 -0.53560488 0.00000000
vn 0.84446872 -0.53560488 -0.00000000
vn 1.00000000 -0.00000000 -0.00000000
vn -1.00000000 -0.00000000 0.00000000
vn 0.89139448 -0.45322829 0.00000000
vn 0.00000000 -1.00000000 -0.00000000
vn 0.00000000 -1.00000000 -0.00000000
vn -0.89139448 -0.45322829 0.00000000
vn 0.00000000 -1.00000000 0.00000000
vn 0.00000000 -1.00000000 0.00000000
vn 0.00000000 -1.00000000 0.00000000
vn 0.00000000 -1.00000000 0.00000000
vn 0.00000000 -1.00000000 0.00000000
vn 0.00000000 -1.00000000 0.00000000
vn 0.00000000 -1.00000000 0.00000000
vn 0.00009543 -0.72027139 -0.69369238
vn 0.07825311 -0.71976948 -0.68978862
vn 0.15498176 -0.72015266 -0.67628455
vn 0.00000000 -1.00000000 0.00000000
vn 0.22994120 -0.71977243 -0.65502266
vn 0.30215243 -0.72033628 -0.62435531
vn 0.00000000 -1.00000000 0.00000000
vn 0.37086985 -0.71970222 -0.58692782
vn 0.00000000 -1.00000000 0.00000000
vn 0.50080352 -0.82613663 -0.25825201
vn 0.00000000 -1.00000000 0.00000000
vn 0.63260066 -0.76086275 0.14458312
vn 0.58156925 -0.73071736 0.35753229
vn 0.00000000 -1.00000000 0.00000000
vn 0.49657890 -0.73096021 0.46808820
vn 0.00000000 -1.00000000 0.00000000
vn 0.39239547 -0.73032426 0.55915317
vn 0.27199243 -0.73074298 0.62612684
vn 0.00000000 -1.00000000 0.00000000
vn 0.13803385 -0.73126213 0.66798379
vn 0.00000000 -0.73020430 0.68322886
vn 0.00000000 -1.00000000 0.00000000
vn -0.07842128 -0.71989513 -0.68963839
vn -0.15486146 -0.71990407 -0.67657672
vn 0.00000000 -1.00000000 0.00000000
vn -0.22945203 -0.71992725 -0.65502406
vn -0.30275742 -0.72060805 -0.62374833
vn 0.00000000 -1.00000000 0.00000000
vn -0.37170479 -0.71943105 -0.58673207
vn -0.50080352 -0.82613663 -0.25825201
vn 0.00000000 -1.00000000 0.00000000
vn -0.63260066 -0.76086275 0.14458312
vn 0.00000000 -1.00000000 0.00000000
vn -0.58247740 -0.73034064 0.35682298
vn 0.00000000 -1.00000000 0.00000000
vn -0.49702364 -0.73133744 0.46702575
vn 0.00000000 -1.00000000 0.00000000
vn -0.39239547 -0.73032426 0.55915317
vn -0.27155439 -0.73088650 0.62614945
vn 0.00000000 -1.00000000 0.00000000
vn -0.13766285 -0.73111850 0.66821754
vn 0.00000000 -1.00000000 0.00000000
vn 0.00000000 -1.00000000 0.00000000
vn 0.00000000 -1.00000000 0.00000000
vn 0.00000000 -1.00000000 0.00000000
vn 0.57735027 0.57735027 -0.57735027
vn -0.57735027 0.57735027 0.57735027
vn 0.57735027 0.57735027 0.57735027
vn -0.57735027 0.57735027 -0.57735027
vn 1.00000000 0.00000000 0.00000000
vn 1.00000000 0.00000000 0.00000000
vn 1.00000000 0.00000000 0.00000000
vn 1.00000000 0.00000000 0.00000000
vn 0.51959922 -0.67916882 0.51840753
vn 0.58457941 -0.73769073 0.33775627
vn 0.47820263 -0.73735488 0.47710589
vn 0.63575911 -0.67888250 0.36732670
vn 0.65210295 -0.73757402 0.17534625
vn 0.70897160 -0.67898194 0.19063786
vn 0.33703035 -0.73838894 0.58411670
vn 0.36722642 -0.67828882 0.63645034
vn 0.67482291 -0.73797968 0.00016714
vn 0.73447423 -0.67863656 0.00018191
vn 0.17415309 -0.73721407 0.65282932
vn 0.18915730 -0.67928900 0.70907403
vn 0.65208318 -0.73763391 -0.17516777
vn 0.70906437 -0.67893091 -0.19047451
vn -0.00016714 -0.73797968 0.67482291
vn -0.00018191 -0.67863656 0.73447423
vn 0.58457941 -0.73769073 -0.33775627
vn 0.63575911 -0.67888250 -0.36732670
vn -0.17433161 -0.73715423 0.65284924
vn -0.18932071 -0.67934010 0.70898145
vn 0.47720904 -0.73771661 -0.47754135
vn 0.51902465 -0.67886046 -0.51938607
vn -0.33651128 -0.73811097 0.58476693
vn -0.36638675 -0.67852493 0.63668255
vn 0.36707225 -0.67895421 -0.63582949
vn 0.33759876 -0.73760656 -0.58477657
vn -0.47744026 -0.73763243 0.47744026
vn -0.51915851 -0.67893217 0.51915851
vn 0.19047451 -0.67893091 -0.70906437
vn 0.17516777 -0.73763391 -0.65208318
vn -0.63575911 -0.67888250 0.36732670
vn -0.58457941 -0.73769073 0.33775627
vn -0.00018191 -0.67863656 -0.73447423
vn -0.00016714 -0.73797968 -0.67482291
vn -0.70967041 -0.67859705 0.18940422
vn -0.65195207 -0.73802614 0.17399975
vn -0.19063786 -0.67898194 -0.70897160
vn -0.17534625 -0.73757402 -0.65210295
vn -0.73376293 -0.67940557 0.00017672
vn -0.67580811 -0.73707758 0.00016276
vn -0.36623414 -0.67919050 -0.63606039
vn -0.33707924 -0.73732946 -0.58542536
vn -0.70976024 -0.67854749 -0.18924510
vn -0.65193235 -0.73808443 -0.17382631
vn -0.51858299 -0.67862445 -0.52013511
vn -0.47644733 -0.73799392 -0.47787334
vn -0.63575911 -0.67888250 -0.36732670
vn -0.58457941 -0.73769073 -0.33775627
vn 0.18978270 -0.67918250 -0.70900893
vn -0.19069065 -0.67893572 -0.70900167
vn -0.00000000 -0.67861965 -0.73448987
vn 0.36723113 -0.67853133 -0.63618907
vn -0.36648310 -0.67917107 -0.63593773
vn 0.52023052 -0.67880684 -0.51824847
vn -0.51949706 -0.67841404 -0.51949706
vn 0.63593773 -0.67917107 -0.36648310
vn -0.63593773 -0.67917107 -0.36648310
vn 0.70900167 -0.67893572 -0.19069065
vn -0.70900167 -0.67893572 -0.19069065
vn 0.73448987 -0.67861965 0.00000000
vn -0.73448987 -0.67861965 -0.00000000
vn 0.70900893 -0.67918250 0.18978270
vn -0.70900893 -0.67918250 0.18978270
vn 0.63618907 -0.67853133 0.36723113
vn -0.63618907 -0.67853133 0.36723113
vn 0.51898318 -0.67920020 0.51898318
vn -0.51824847 -0.67880684 0.52023052
vn 0.36723113 -0.67853133 0.63618907
vn -0.36648310 -0.67917107 0.63593773
vn 0.18978270 -0.67918250 0.70900893
vn -0.19069065 -0.67893572 0.70900167
vn 0.00000000 -0.67861965 0.73448987
vn 0.18978270 -0.67918250 -0.70900893
vn -0.18978270 -0.67918250 -0.70900893
vn -0.00000000 -0.67861965 -0.73448987
vn 0.36723113 -0.67853133 -0.63618907
vn -0.36723113 -0.67853133 -0.63618907
vn 0.51898318 -0.67920020 -0.51898318
vn -0.51898318 -0.67920020 -0.51898318
vn 0.63618907 -0.67853133 -0.36723113
vn -0.63618907 -0.67853133 -0.36723113
vn 0.70900893 -0.67918250 -0.18978270
vn -0.70900893 -0.67918250 -0.18978270
vn 0.73448987 -0.67861965 -0.00000000
vn -0.73448987 -0.67861965 -0.00000000
vn 0.70900893 -0.67918250 0.18978270
vn -0.70900893 -0.67918250 0.18978270
vn 0.63618907 -0.67853133 0.36723113
vn -0.63618907 -0.67853133 0.36723113
vn 0.51898318 -0.67920020 0.51898318
vn -0.51898318 -0.67920020 0.51898318
vn 0.36723113 -0.67853133 0.63618907
vn -0.36723113 -0.67853133 0.63618907
vn 0.18978270 -0.67918250 0.70900893
vn -0.18978270 -0.67918250 0.70900893
vn 0.00000000 -0.67861965 0.73448987
vn 0.00000000 -1.00000000 0.00000000
vn 0.00000000 -1.00000000 0.00000000
vn 0.00000000 -1.00000000 0.00000000
vn 0.00000000 -1.00000000 0.00000000
vn 0.00000000 -1.00000000 0.00000000
vn 0.70710678 -0.70710678 0.00000000
vn 0.00000000 -1.00000000 0.00000000
vn 0.00000000 -1.00000000 0.00000000
vn 0.00000000 -1.00000000 0.00000000
vn 0.00000000 -1.00000000 0.00000000
vn 0.00000000 -1.00000000 0.00000000
vn 0.00000000 -1.00000000 0.00000000
vn 0.00000000 -1.00000000 0.00000000
vn 0.00000000 -1.00000000 0.00000000
vn 0.00000000 -1.00000000 0.00000000
vn 0.00000000 -1.00000000 0.00000000
vn 0.00000000 -1.00000000 0.00000000
vn 0.00000000 -1.00000000 0.00000000
vn 0.00000000 -1.00000000 0.00000000
vn 0.00000000 -1.00000000 0.00000000
vn 0.00000000 -1.00000000 0.00000000
vn 0.00000000 -1.00000000 0.00000000
vn 0.00000000 -1.00000000 0.00000000
vn 0.00000000 -1.00000000 0.00000000
vn 0.00000000 -1.00000000 0.00000000
vn -0.70710678 -0.70710678 0.00000000
vn -1.00000000 0.00000000 0.00000000
vn -1.00000000 0.00000000 0.00000000
vn -1.00000000 0.00000000 0.00000000
vn -1.00000000 0.00000000 0.00000000
vn -1.00000000 0.00000000 0.00000000
vn -1.00000000 0.00000000 0.00000000
vn -1.00000000 0.00000000 0.00000000
vn -1.00000000 0.00000000 0.00000000
vn -1.00000000 0.00000000 0.00000000
vn -1.00000000 0.00000000 0.00000000
vn -1.00000000 0.00000000 0.00000000
vn -1.00000000 0.00000000 0.00000000
vn -1.00000000 0.00000000 0.00000000
vn -1.00000000 0.00000000 0.00000000
vn -1.00000000 0.00000000 0.00000000
vn -1.00000000 0.00000000 0.00000000
vn -1.00000000 0.00000000 0.00000000
vn -1.00000000 0.00000000 0.00000000
vn -1.00000000 0.00000000 0.00000000
vn -1.00000000 0.00000000 0.00000000
vn -1.00000000 0.00000000 0.00000000
vn -1.00000000 0.00000000 0.00000000
vn -1.00000000 0.00000000 0.00000000
vn -1.00000000 0.00000000 0.00000000
vn -1.00000000 0.00000000 0.00000000
vn -1.00000000 0.00000000 0.00000000
vn -1.00000000 0.00000000 0.00000000
vn -1.00000000 0.00000000 0.00000000
vn 0.00000000 -1.00000000 0.00000000
vn 0.00000000 -1.00000000 0.00000000
vn 0.00000000 -1.00000000 0.00000000
vn 0.00000000 -1.00000000 0.00000000
vn -1.00000000 0.00000000 0.00000000
vn -1.00000000 0.00000000 0.00000000
vn -1.00000000 0.00000000 0.00000000
vn -1.00000000 0.00000000 0.00000000
vn -0.57735027 -0.57735027 0.57735027
vn -0.90453403 0.30151134 -0.30151134
vn -0.90453403 0.30151134 0.30151134
vn -0.57735027 -0.57735027 -0.57735027
vn -0.90453403 -0.30151134 0.30151134
vn -0.90453403 0.30151134 -0.30151134
vn -0.90453403 0.30151134 0.30151134
vn -0.90453403 -0.30151134 -0.30151134
vn -0.90453403 0.30151134 -0.30151134
vn -0.90453403 -0.30151134 -0.30151134
vn -0.90453403 0.30151134 -0.30151134
vn -0.90453403 -0.30151134 0.30151134
vn -0.90453403 -0.30151134 -0.30151134
vn -0.90453403 -0.30151134 0.30151134
vn -0.90453403 0.30151134 0.30151134
vn -0.90453403 0.30151134 0.30151134
vn -0.57735027 0.57735027 0.57735027
vn -0.57735027 0.57735027 -0.57735027
vn -0.57735027 -0.57735027 -0.57735027
vn -0.57735027 -0.57735027 0.57735027
vn -0.57735027 -0.57735027 -0.57735027
vn -0.57735027 0.57735027 -0.57735027
vn -0.57735027 -0.57735027 0.57735027
vn -0.57735027 0.57735027 0.57735027
vn -0.57735027 0.57735027 0.57735027
vn -0.57735027 -0.57735027 0.57735027
vn -0.57735027 0.57735027 -0.57735027
vn -0.57735027 -0.57735027 -0.57735027
vn -0.57735027 0.57735027 0.57735027
vn -0.57735027 0.57735027 -0.57735027
vn -0.57735027 -0.57735027 -0.57735027
vn -0.57735027 -0.57735027 0.57735027
vn -0.16048075 -0.69474237 -0.70112693
vn -0.08126488 -0.69475072 -0.71464499
vn -0.23779305 -0.69472073 -0.67883545
vn -0.31435041 -0.69408642 -0.64763250
vn -0.38469185 -0.69518449 -0.60723200
vn -0.69941481 -0.61703759 -0.36067095
vn -0.73218621 -0.66022679 0.16734375
vn -0.62103262 -0.68526095 0.38044173
vn -0.53135388 -0.68438187 0.49928399
vn -0.41835028 -0.68527543 0.59613809
vn -0.28995716 -0.68477900 0.66858250
vn -0.14708432 -0.68457457 0.71394948
vn 0.00000000 -0.68538153 0.72818415
vn 0.14753802 -0.68444813 0.71397709
vn 0.29031211 -0.68490558 0.66829875
vn 0.41835028 -0.68527543 0.59613809
vn 0.53033695 -0.68471402 0.49990942
vn 0.62069702 -0.68492819 0.38158693
vn 0.73218621 -0.66022679 0.16734375
vn 0.69941481 -0.61703759 -0.36067095
vn 0.38411404 -0.69493090 -0.60788770
vn 0.31348828 -0.69433936 -0.64777925
vn 0.23819863 -0.69486530 -0.67854523
vn 0.16071514 -0.69451046 -0.70130298
vn 0.08106261 -0.69486806 -0.71455387
vn 0.00009899 -0.69439981 -0.71958939
vn 0.30151134 -0.90453403 -0.30151134
vn 0.30151134 -0.90453403 0.30151134
vn 0.30151134 -0.90453403 -0.30151134
vn -0.30151134 -0.90453403 0.30151134
vn 0.30151134 -0.90453403 0.30151134
vn 0.00000000 -0.73799956 -0.67480119
vn -0.30151134 -0.90453403 0.30151134
vn 0.17467021 -0.73733884 -0.65255019
vn 0.33729364 -0.73810344 -0.58432553
vn 0.47768296 -0.73731810 -0.47768296
vn 0.58432553 -0.73810344 -0.33729364
vn 0.65255019 -0.73733884 -0.17467021
vn 0.67480119 -0.73799956 -0.00000000
vn 0.17467021 -0.73733884 0.65255019
vn 0.00000000 -0.73799956 -0.67480119
vn -0.00000000 -0.73799956 0.67480119
vn 0.33729364 -0.73810344 0.58432553
vn 0.47768296 -0.73731810 0.47768296
vn 0.17467021 -0.73733884 -0.65255019
vn 0.58432553 -0.73810344 0.33729364
vn 0.33729364 -0.73810344 -0.58432553
vn 0.65255019 -0.73733884 0.17467021
vn 0.47823673 -0.73777958 -0.47641466
vn 0.58527659 -0.73735223 -0.33728771
vn 0.65203542 -0.73762826 -0.17536921
vn 0.67480119 -0.73799956 -0.00000000
vn 0.17467021 -0.73733884 0.65255019
vn -0.00000000 -0.73799956 0.67480119
vn 0.33729364 -0.73810344 0.58432553
vn 0.47768296 -0.73731810 0.47768296
vn 0.58432553 -0.73810344 0.33729364
vn 0.65255019 -0.73733884 0.17467021
vn -0.30151134 -0.90453403 -0.30151134
vn -0.30151134 -0.90453403 -0.30151134
vn -0.17467021 -0.73733884 -0.65255019
vn -0.33729364 -0.73810344 -0.58432553
vn -0.47768296 -0.73731810 -0.47768296
vn -0.58432553 -0.73810344 -0.33729364
vn -0.65255019 -0.73733884 -0.17467021
vn -0.67480119 -0.73799956 -0.00000000
vn -0.17467021 -0.73733884 0.65255019
vn -0.33729364 -0.73810344 0.58432553
vn -0.47768296 -0.73731810 0.47768296
vn -0.58432553 -0.73810344 0.33729364
vn -0.17536921 -0.73762826 -0.65203542
vn -0.33728771 -0.73735223 -0.58527659
vn -0.65255019 -0.73733884 0.17467021
vn -0.47696935 -0.73824148 -0.47696935
vn -0.58527659 -0.73735223 -0.33728771
vn -0.65203542 -0.73762826 -0.17536921
vn -0.67480119 -0.73799956 0.00000000
vn -0.17536921 -0.73762826 0.65203542
vn -0.33728771 -0.73735223 0.58527659
vn -0.47641466 -0.73777958 0.47823673
vn -0.58432553 -0.73810344 0.33729364
vn -0.65255019 -0.73733884 0.17467021
vn 0.57735027 -0.57735027 0.57735027
vn -0.57735027 -0.57735027 0.57735027
vn 0.57735027 -0.57735027 -0.57735027
vn -0.30151134 -0.90453403 0.30151134
vn -0.57735027 -0.57735027 -0.57735027
vn -0.30151134 -0.90453403 -0.30151134
vn 0.30151134 -0.90453403 -0.30151134
vn 0.30151134 -0.90453403 0.30151134
vn -0.57735027 -0.57735027 -0.57735027
vn -0.57735027 -0.57735027 0.57735027
vn 0.57735027 -0.57735027 0.57735027
vn 0.57735027 -0.57735027 -0.57735027
vn -0.30151134 -0.90453403 0.30151134
vn 0.57735027 -0.57735027 0.57735027
vn 0.30151134 -0.90453403 0.30151134
vn -0.57735027 -0.57735027 0.57735027
vn 0.30151134 -0.90453403 -0.30151134
vn 0.57735027 -0.57735027 -0.57735027
vn -0.57735027 -0.57735027 -0.57735027
vn -0.30151134 -0.90453403 -0.30151134
vn 0.57735027 -0.57735027 0.57735027
vn -0.57735027 -0.57735027 0.57735027
vn 0.57735027 -0.57735027 -0.57735027
vn -0.57735027 -0.57735027 -0.57735027
f 1//1 2//2 3//3
f 4//4 2//2 1//1
f 4//4 5//5 2//2
f 6//6 5//5 4//4
f 6//6 7//7 5//5
f 8//8 7//7 6//6
f 8//8 9//9 7//7
f 10//10 9//9 8//8
f 10//10 11//11 9//9
f 12//12 11//11 10//10
f 12//12 13//13 11//11
f 14//14 13//13 12//12
f 13//13 14//14 15//15
f 16//16 17//17 18//18
f 17//17 19//19 20//20
f 19//19 17//17 16//16
f 21//21 22//22 23//23
f 24//24 22//22 21//21
f 24//24 25//25 22//22
f 16//16 25//25 24//24
f 18//18 25//25 16//16
f 25//25 18//18 26//26
f 20//20 27//27 28//28
f 20//20 29//29 27//27
f 19//19 29//29 20//20
f 19//19 30//30 29//29
f 30//30 19//19 31//31
f 30//30 32//32 33//33
f 31//31 32//32 30//30
f 31//31 34//34 32//32
f 35//35 34//34 31//31
f 35//35 36//36 34//34
f 37//37 36//36 35//35
f 37//37 38//38 36//36
f 39//39 38//38 37//37
f 40//40 38//38 39//39
f 40//40 41//41 38//38
f 42//42 41//41 40//40
f 42//42 43//43 41//41
f 44//44 43//43 42//42
f 44//44 45//45 43//43
f 46//46 45//45 44//44
f 46//46 47//47 45//45
f 48//48 47//47 46//46
f 49//49 47//47 48//48
f 49//49 50//50 47//47
f 51//51 50//50 49//49
f 51//51 52//52 50//50
f 53//53 52//52 51//51
f 3//3 52//52 53//53
f 3//3 54//54 52//52
f 2//2 54//54 3//3
f 5//5 54//54 2//2
f 7//7 54//54 5//5
f 7//7 55//55 54//54
f 9//9 55//55 7//7
f 9//9 56//56 55//55
f 11//11 56//56 9//9
f 13//13 56//56 11//11
f 13//13 57//57 56//56
f 15//15 57//57 13//13
f 58//58 57//57 15//15
f 57//57 58//58 59//59
f 53//53 1//1 3//3
f 53//53 4//4 1//1
f 60//60 4//4 53//53
f 60//60 6//6 4//4
f 60//60 8//8 6//6
f 60//60 10//10 8//8
f 60//60 12//12 10//10
f 60//60 14//14 12//12
f 14//14 58//58 15//15
f 58//58 14//14 60//60
f 61//61 62//62 63//63
f 64//64 62//62 61//61
f 64//64 65//65 62//62
f 65//65 64//64 66//66
f 15//15 14//14 13//13
f 12//12 13//13 14//14
f 11//11 13//13 12//12
f 10//10 11//11 12//12
f 9//9 11//11 10//10
f 8//8 9//9 10//10
f 7//7 9//9 8//8
f 6//6 7//7 8//8
f 5//5 7//7 6//6
f 4//4 5//5 6//6
f 2//2 5//5 4//4
f 1//1 2//2 4//4
f 3//3 2//2 1//1
f 60//60 14//14 58//58
f 15//15 58//58 14//14
f 12//12 14//14 60//60
f 10//10 12//12 60//60
f 8//8 10//10 60//60
f 6//6 8//8 60//60
f 4//4 6//6 60//60
f 53//53 4//4 60//60
f 1//1 4//4 53//53
f 3//3 1//1 53//53
f 59//59 58//58 57//57
f 15//15 57//57 58//58
f 13//13 57//57 15//15
f 56//56 57//57 13//13
f 11//11 56//56 13//13
f 9//9 56//56 11//11
f 55//55 56//56 9//9
f 7//7 55//55 9//9
f 54//54 55//55 7//7
f 5//5 54//54 7//7
f 2//2 54//54 5//5
f 3//3 54//54 2//2
f 52//52 54//54 3//3
f 53//53 52//52 3//3
f 51//51 52//52 53//53
f 50//50 52//52 51//51
f 49//49 50//50 51//51
f 47//47 50//50 49//49
f 48//48 47//47 49//49
f 46//46 47//47 48//48
f 45//45 47//47 46//46
f 44//44 45//45 46//46
f 43//43 45//45 44//44
f 42//42 43//43 44//44
f 41//41 43//43 42//42
f 40//40 41//41 42//42
f 38//38 41//41 40//40
f 39//39 38//38 40//40
f 37//37 38//38 39//39
f 36//36 38//38 37//37
f 35//35 36//36 37//37
f 34//34 36//36 35//35
f 31//31 34//34 35//35
f 32//32 34//34 31//31
f 30//30 32//32 31//31
f 33//33 32//32 30//30
f 31//31 19//19 30//30
f 29//29 30//30 19//19
f 20//20 29//29 19//19
f 27//27 29//29 20//20
f 28//28 27//27 20//20
f 26//26 18//18 25//25
f 16//16 25//25 18//18
f 24//24 25//25 16//16
f 22//22 25//25 24//24
f 21//21 22//22 24//24
f 23//23 22//22 21//21
f 16//16 17//17 19//19
f 20//20 19//19 17//17
f 18//18 17//17 16//16
f 66//66 64//64 65//65
f 62//62 65//65 64//64
f 61//61 62//62 64//64
f 63//63 62//62 61//61
f 21//21 24//24 67//67
f 68//68 67//67 24//24
f 68//68 24//24 69//69
f 16//16 69//69 24//24
f 19//19 70//70 16//16
f 69//69 16//16 70//70
f 19//19 31//31 70//70
f 71//71 70//70 31//31
f 35//35 72//72 31//31
f 71//71 31//31 72//72
f 37//37 73//73 35//35
f 72//72 35//35 73//73
f 39//39 74//74 37//37
f 73//73 37//37 74//74
f 75//75 74//74 40//40
f 39//39 40//40 74//74
f 76//76 75//75 42//42
f 40//40 42//42 75//75
f 42//42 44//44 76//76
f 77//77 76//76 44//44
f 44//44 46//46 77//77
f 78//78 77//77 46//46
f 46//46 48//48 78//78
f 79//79 78//78 48//48
f 48//48 49//49 79//79
f 80//80 79//79 49//49
f 49//49 51//51 80//80
f 81//81 80//80 51//51
f 51//51 53//53 81//81
f 82//82 81//81 53//53
f 60//60 83//83 53//53
f 82//82 53//53 83//83
f 60//60 58//58 83//83
f 84//84 83//83 58//58
f 58//58 59//59 84//84
f 85//85 84//84 59//59
f 59//59 57//57 85//85
f 86//86 85//85 57//57
f 57//57 56//56 86//86
f 87//87 86//86 56//56
f 56//56 55//55 87//87
f 88//88 87//87 55//55
f 55//55 54//54 88//88
f 89//89 88//88 54//54
f 52//52 90//90 54//54
f 89//89 54//54 90//90
f 52//52 50//50 90//90
f 91//91 90//90 50//50
f 50//50 47//47 91//91
f 92//92 91//91 47//47
f 47//47 45//45 92//92
f 93//93 92//92 45//45
f 43//43 94//94 45//45
f 93//93 45//45 94//94
f 43//43 41//41 94//94
f 95//95 94//94 41//41
f 38//38 96//96 41//41
f 95//95 41//41 96//96
f 36//36 97//97 38//38
f 96//96 38//38 97//97
f 34//34 98//98 36//36
f 97//97 36//36 98//98
f 32//32 99//99 34//34
f 98//98 34//34 99//99
f 32//32 33//33 99//99
f 100//100 99//99 33//33
f 33//33 30//30 100//100
f 101//101 100//100 30//30
f 30//30 29//29 101//101
f 102//102 101//101 29//29
f 27//27 103//103 29//29
f 102//102 29//29 103//103
f 27//27 28//28 103//103
f 104//104 103//103 28//28
f 20//20 105//105 28//28
f 104//104 28//28 105//105
f 20//20 17//17 105//105
f 106//106 105//105 17//17
f 17//17 18//18 106//106
f 107//107 106//106 18//18
f 107//107 18//18 108//108
f 26//26 108//108 18//18
f 26//26 25//25 108//108
f 109//109 108//108 25//25
f 22//22 110//110 25//25
f 109//109 25//25 110//110
f 22//22 23//23 110//110
f 111//111 110//110 23//23
f 21//21 67//67 23//23
f 111//111 23//23 67//67
f 85//85 112//112 84//84
f 83//83 84//84 112//112
f 113//113 83//83 112//112
f 114//114 83//83 113//113
f 115//115 83//83 114//114
f 116//116 83//83 115//115
f 117//117 83//83 116//116
f 82//82 83//83 117//117
f 118//118 82//82 117//117
f 119//119 82//82 118//118
f 105//105 106//106 70//70
f 69//69 70//70 106//106
f 107//107 69//69 106//106
f 71//71 101//101 70//70
f 102//102 70//70 101//101
f 105//105 70//70 102//102
f 103//103 105//105 102//102
f 104//104 105//105 103//103
f 86//86 120//120 85//85
f 112//112 85//85 120//120
f 121//121 120//120 86//86
f 122//122 121//121 86//86
f 87//87 122//122 86//86
f 123//123 122//122 87//87
f 88//88 123//123 87//87
f 124//124 123//123 88//88
f 89//89 124//124 88//88
f 125//125 124//124 89//89
f 126//126 125//125 89//89
f 119//119 126//126 89//89
f 90//90 119//119 89//89
f 82//82 119//119 90//90
f 81//81 82//82 90//90
f 91//91 81//81 90//90
f 80//80 81//81 91//91
f 92//92 80//80 91//91
f 79//79 80//80 92//92
f 78//78 79//79 92//92
f 93//93 78//78 92//92
f 77//77 78//78 93//93
f 94//94 77//77 93//93
f 76//76 77//77 94//94
f 95//95 76//76 94//94
f 75//75 76//76 95//95
f 96//96 75//75 95//95
f 74//74 75//75 96//96
f 73//73 74//74 96//96
f 97//97 73//73 96//96
f 72//72 73//73 97//97
f 98//98 72//72 97//97
f 71//71 72//72 98//98
f 99//99 71//71 98//98
f 101//101 71//71 99//99
f 100//100 101//101 99//99
f 68//68 69//69 67//67
f 107//107 67//67 69//69
f 110//110 67//67 107//107
f 108//108 110//110 107//107
f 111//111 67//67 110//110
f 110//110 108//108 109//109
f 119//119 3//3 126//126
f 2//2 126//126 3//3
f 126//126 2//2 125//125
f 5//5 125//125 2//2
f 118//118 1//1 119//119
f 3//3 119//119 1//1
f 125//125 5//5 124//124
f 7//7 124//124 5//5
f 117//117 4//4 118//118
f 1//1 118//118 4//4
f 124//124 7//7 123//123
f 9//9 123//123 7//7
f 116//116 6//6 117//117
f 4//4 117//117 6//6
f 9//9 11//11 123//123
f 122//122 123//123 11//11
f 115//115 8//8 116//116
f 6//6 116//116 8//8
f 11//11 13//13 122//122
f 121//121 122//122 13//13
f 10//10 8//8 114//114
f 115//115 114//114 8//8
f 13//13 15//15 121//121
f 120//120 121//121 15//15
f 12//12 10//10 113//113
f 114//114 113//113 10//10
f 14//14 112//112 15//15
f 120//120 15//15 112//112
f 14//14 12//12 112//112
f 113//113 112//112 12//12
f 66//66 65//65 127//127
f 128//128 127//127 65//65
f 129//129 128//128 62//62
f 65//65 62//62 128//128
f 62//62 63//63 129//129
f 130//130 129//129 63//63
f 61//61 131//131 63//63
f 130//130 63//63 131//131
f 61//61 64//64 131//131
f 132//132 131//131 64//64
f 132//132 64//64 127//127
f 66//66 127//127 64//64
f 127//127 129//129 132//132
f 131//131 132//132 129//129
f 130//130 131//131 129//129
f 129//129 127//127 128//128
f 133//133 134//134 135//135
f 134//134 133//133 136//136
f 137//137 138//138 139//139
f 137//137 140//140 138//138
f 141//141 140//140 137//137
f 141//141 142//142 140//140
f 141//141 143//143 142//142
f 144//144 143//143 141//141
f 144//144 145//145 143//143
f 144//144 146//146 145//145
f 146//146 144//144 147//147
f 148//148 149//149 150//150
f 151//151 149//149 148//148
f 151//151 152//152 149//149
f 153//153 152//152 151//151
f 154//154 152//152 153//153
f 154//154 155//155 152//152
f 156//156 155//155 154//154
f 146//146 155//155 156//156
f 147//147 155//155 146//146
f 147//147 157//157 155//155
f 158//158 157//157 147//147
f 158//158 159//159 157//157
f 159//159 158//158 160//160
f 161//161 162//162 163//163
f 162//162 161//161 164//164
f 165//165 164//164 161//161
f 164//164 165//165 166//166
f 167//167 165//165 168//168
f 165//165 167//167 166//166
f 169//169 168//168 170//170
f 168//168 169//169 167//167
f 171//171 170//170 172//172
f 170//170 171//171 169//169
f 173//173 172//172 174//174
f 172//172 173//173 171//171
f 175//175 174//174 176//176
f 174//174 175//175 173//173
f 177//177 176//176 178//178
f 176//176 177//177 175//175
f 179//179 178//178 180//180
f 178//178 179//179 177//177
f 181//181 180//180 182//182
f 180//180 181//181 179//179
f 183//183 182//182 184//184
f 182//182 183//183 181//181
f 185//185 186//186 187//187
f 186//186 185//185 188//188
f 189//189 187//187 190//190
f 187//187 189//189 185//185
f 191//191 190//190 192//192
f 190//190 191//191 189//189
f 193//193 192//192 194//194
f 192//192 193//193 191//191
f 195//195 194//194 196//196
f 194//194 195//195 193//193
f 196//196 197//197 195//195
f 197//197 196//196 198//198
f 199//199 197//197 198//198
f 197//197 199//199 200//200
f 201//201 200//200 199//199
f 200//200 201//201 202//202
f 203//203 202//202 201//201
f 202//202 203//203 204//204
f 205//205 204//204 203//203
f 204//204 205//205 206//206
f 163//163 207//207 208//208
f 207//207 163//163 162//162
f 209//209 206//206 205//205
f 206//206 209//209 210//210
f 211//211 210//210 209//209
f 212//212 210//210 211//211
f 213//213 210//210 212//212
f 210//210 213//213 214//214
f 215//215 216//216 217//217
f 218//218 216//216 215//215
f 218//218 219//219 216//216
f 220//220 219//219 218//218
f 220//220 221//221 219//219
f 220//220 222//222 221//221
f 220//220 223//223 222//222
f 220//220 224//224 223//223
f 225//225 224//224 220//220
f 225//225 226//226 224//224
f 225//225 227//227 226//226
f 228//228 227//227 225//225
f 228//228 229//229 227//227
f 230//230 229//229 228//228
f 230//230 231//231 229//229
f 232//232 231//231 230//230
f 232//232 233//233 231//231
f 232//232 234//234 233//233
f 235//235 234//234 232//232
f 235//235 236//236 234//234
f 237//237 236//236 235//235
f 237//237 238//238 236//236
f 237//237 239//239 238//238
f 240//240 239//239 237//237
f 240//240 241//241 239//239
f 240//240 242//242 241//241
f 242//242 240//240 243//243
f 244//244 221//221 222//222
f 245//245 221//221 244//244
f 245//245 246//246 221//221
f 247//247 246//246 245//245
f 248//248 246//246 247//247
f 248//248 249//249 246//246
f 250//250 249//249 248//248
f 251//251 249//249 250//250
f 251//251 252//252 249//249
f 253//253 252//252 251//251
f 253//253 254//254 252//252
f 255//255 254//254 253//253
f 255//255 256//256 254//254
f 257//257 256//256 255//255
f 257//257 258//258 256//256
f 259//259 258//258 257//257
f 260//260 258//258 259//259
f 260//260 261//261 258//258
f 262//262 261//261 260//260
f 242//242 261//261 262//262
f 243//243 261//261 242//242
f 243//243 263//263 261//261
f 264//264 263//263 243//243
f 264//264 265//265 263//263
f 265//265 264//264 266//266
f 267//267 268//268 269//269
f 268//268 267//267 270//270
f 271//271 272//272 273//273
f 272//272 271//271 274//274
f 275//275 276//276 277//277
f 276//276 275//275 278//278
f 278//278 279//279 276//276
f 279//279 278//278 280//280
f 281//281 275//275 277//277
f 275//275 281//281 282//282
f 280//280 283//283 279//279
f 283//283 280//280 284//284
f 285//285 282//282 281//281
f 282//282 285//285 286//286
f 284//284 287//287 283//283
f 287//287 284//284 288//288
f 289//289 286//286 285//285
f 286//286 289//289 290//290
f 288//288 291//291 287//287
f 291//291 288//288 292//292
f 293//293 290//290 289//289
f 290//290 293//293 294//294
f 292//292 295//295 291//291
f 295//295 292//292 296//296
f 297//297 294//294 293//293
f 294//294 297//297 298//298
f 299//299 295//295 296//296
f 295//295 299//299 300//300
f 301//301 298//298 297//297
f 298//298 301//301 302//302
f 303//303 300//300 299//299
f 300//300 303//303 304//304
f 305//305 301//301 306//306
f 301//301 305//305 302//302
f 307//307 304//304 303//303
f 304//304 307//307 308//308
f 309//309 306//306 310//310
f 306//306 309//309 305//305
f 311//311 308//308 307//307
f 308//308 311//311 312//312
f 313//313 310//310 314//314
f 310//310 313//313 309//309
f 315//315 312//312 311//311
f 312//312 315//315 316//316
f 317//317 314//314 318//318
f 314//314 317//317 313//313
f 319//319 316//316 315//315
f 316//316 319//319 320//320
f 321//321 318//318 322//322
f 318//318 321//321 317//317
f 319//319 322//322 320//320
f 322//322 319//319 321//321
f 323//323 324//324 325//325
f 326//326 324//324 323//323
f 326//326 327//327 324//324
f 328//328 327//327 326//326
f 328//328 329//329 327//327
f 330//330 329//329 328//328
f 330//330 331//331 329//329
f 332//332 331//331 330//330
f 332//332 333//333 331//331
f 334//334 333//333 332//332
f 334//334 335//335 333//333
f 336//336 335//335 334//334
f 336//336 337//337 335//335
f 338//338 337//337 336//336
f 338//338 339//339 337//337
f 340//340 339//339 338//338
f 340//340 341//341 339//339
f 342//342 341//341 340//340
f 342//342 343//343 341//341
f 344//344 343//343 342//342
f 344//344 345//345 343//343
f 345//345 344//344 346//346
f 347//347 348//348 349//349
f 350//350 348//348 347//347
f 350//350 351//351 348//348
f 352//352 351//351 350//350
f 352//352 353//353 351//351
f 354//354 353//353 352//352
f 354//354 355//355 353//353
f 356//356 355//355 354//354
f 356//356 357//357 355//355
f 358//358 357//357 356//356
f 358//358 359//359 357//357
f 360//360 359//359 358//358
f 360//360 361//361 359//359
f 362//362 361//361 360//360
f 362//362 363//363 361//361
f 364//364 363//363 362//362
f 364//364 365//365 363//363
f 366//366 365//365 364//364
f 366//366 367//367 365//365
f 368//368 367//367 366//366
f 368//368 369//369 367//367
f 369//369 368//368 370//370
f 164//164 161//161 162//162
f 163//163 162//162 161//161
f 166//166 165//165 164//164
f 161//161 164//164 165//165
f 166//166 167//167 165//165
f 168//168 165//165 167//167
f 167//167 169//169 168//168
f 170//170 168//168 169//169
f 169//169 171//171 170//170
f 172//172 170//170 171//171
f 171//171 173//173 172//172
f 174//174 172//172 173//173
f 173//173 175//175 174//174
f 176//176 174//174 175//175
f 175//175 177//177 176//176
f 178//178 176//176 177//177
f 177//177 179//179 178//178
f 180//180 178//178 179//179
f 179//179 181//181 180//180
f 182//182 180//180 181//181
f 181//181 183//183 182//182
f 184//184 182//182 183//183
f 183//183 267//267 184//184
f 267//267 183//183 270//270
f 268//268 186//186 269//269
f 186//186 268//268 188//188
f 188//188 185//185 186//186
f 187//187 186//186 185//185
f 185//185 189//189 187//187
f 190//190 187//187 189//189
f 189//189 191//191 190//190
f 192//192 190//190 191//191
f 191//191 193//193 192//192
f 194//194 192//192 193//193
f 193//193 195//195 194//194
f 196//196 194//194 195//195
f 198//198 196//196 197//197
f 195//195 197//197 196//196
f 200//200 199//199 197//197
f 198//198 197//197 199//199
f 202//202 201//201 200//200
f 199//199 200//200 201//201
f 204//204 203//203 202//202
f 201//201 202//202 203//203
f 206//206 205//205 204//204
f 203//203 204//204 205//205
f 162//162 163//163 207//207
f 208//208 207//207 163//163
f 210//210 209//209 206//206
f 205//205 206//206 209//209
f 371//371 211//211 212//212
f 372//372 211//211 371//371
f 373//373 211//211 372//372
f 374//374 211//211 373//373
f 375//375 211//211 374//374
f 211//211 375//375 376//376
f 269//269 184//184 267//267
f 269//269 182//182 184//184
f 269//269 180//180 182//182
f 269//269 178//178 180//180
f 269//269 273//273 178//178
f 186//186 273//273 269//269
f 187//187 273//273 186//186
f 190//190 273//273 187//187
f 192//192 273//273 190//190
f 194//194 273//273 192//192
f 196//196 273//273 194//194
f 198//198 273//273 196//196
f 198//198 271//271 273//273
f 271//271 161//161 274//274
f 198//198 161//161 271//271
f 199//199 161//161 198//198
f 201//201 161//161 199//199
f 201//201 163//163 161//161
f 203//203 163//163 201//201
f 205//205 163//163 203//203
f 209//209 163//163 205//205
f 211//211 163//163 209//209
f 376//376 163//163 211//211
f 163//163 376//376 208//208
f 272//272 178//178 273//273
f 272//272 176//176 178//178
f 272//272 174//174 176//176
f 272//272 172//172 174//174
f 272//272 170//170 172//172
f 272//272 168//168 170//170
f 272//272 165//165 168//168
f 274//274 165//165 272//272
f 165//165 274//274 161//161
f 377//377 378//378 379//379
f 380//380 378//378 377//377
f 380//380 371//371 378//378
f 381//381 371//371 380//380
f 381//381 372//372 371//371
f 382//382 372//372 381//381
f 382//382 373//373 372//372
f 383//383 373//373 382//382
f 383//383 374//374 373//373
f 384//384 374//374 383//383
f 384//384 375//375 374//374
f 385//385 375//375 384//384
f 385//385 386//386 375//375
f 387//387 386//386 385//385
f 387//387 388//388 386//386
f 389//389 388//388 387//387
f 389//389 390//390 388//388
f 391//391 390//390 389//389
f 391//391 392//392 390//390
f 393//393 392//392 391//391
f 393//393 394//394 392//392
f 394//394 393//393 395//395
f 396//396 385//385 384//384
f 396//396 387//387 385//385
f 396//396 389//389 387//387
f 396//396 391//391 389//389
f 393//393 217//217 395//395
f 391//391 217//217 393//393
f 396//396 217//217 391//391
f 396//396 215//215 217//217
f 396//396 218//218 215//215
f 396//396 220//220 218//218
f 396//396 225//225 220//220
f 396//396 228//228 225//225
f 396//396 230//230 228//228
f 396//396 232//232 230//230
f 264//264 207//207 266//266
f 243//243 207//207 264//264
f 240//240 207//207 243//243
f 237//237 207//207 240//240
f 235//235 207//207 237//237
f 232//232 207//207 235//235
f 207//207 232//232 396//396
f 386//386 376//376 375//375
f 388//388 376//376 386//386
f 390//390 376//376 388//388
f 392//392 376//376 390//390
f 217//217 394//394 395//395
f 217//217 392//392 394//394
f 217//217 376//376 392//392
f 216//216 376//376 217//217
f 219//219 376//376 216//216
f 221//221 376//376 219//219
f 246//246 376//376 221//221
f 249//249 376//376 246//246
f 252//252 376//376 249//249
f 254//254 376//376 252//252
f 254//254 208//208 376//376
f 256//256 208//208 254//254
f 258//258 208//208 256//256
f 261//261 208//208 258//258
f 263//263 208//208 261//261
f 265//265 208//208 263//263
f 266//266 208//208 265//265
f 208//208 266//266 207//207
f 270//270 397//397 268//268
f 183//183 397//397 270//270
f 183//183 398//398 397//397
f 181//181 398//398 183//183
f 181//181 399//399 398//398
f 179//179 399//399 181//181
f 179//179 400//400 399//399
f 177//177 400//400 179//179
f 175//175 400//400 177//177
f 175//175 401//401 400//400
f 173//173 401//401 175//175
f 173//173 402//402 401//401
f 171//171 402//402 173//173
f 171//171 403//403 402//402
f 169//169 403//403 171//171
f 169//169 404//404 403//403
f 167//167 404//404 169//169
f 167//167 405//405 404//404
f 167//167 406//406 405//405
f 166//166 406//406 167//167
f 166//166 407//407 406//406
f 166//166 408//408 407//407
f 164//164 408//408 166//166
f 164//164 409//409 408//408
f 164//164 410//410 409//409
f 410//410 200//200 411//411
f 410//410 202//202 200//200
f 162//162 410//410 164//164
f 162//162 202//202 410//410
f 162//162 204//204 202//202
f 162//162 206//206 204//204
f 162//162 210//210 206//206
f 207//207 210//210 162//162
f 396//396 210//210 207//207
f 210//210 396//396 214//214
f 412//412 268//268 397//397
f 413//413 268//268 412//412
f 413//413 188//188 268//268
f 414//414 188//188 413//413
f 415//415 188//188 414//414
f 416//416 188//188 415//415
f 417//417 188//188 416//416
f 418//418 188//188 417//417
f 418//418 185//185 188//188
f 419//419 185//185 418//418
f 419//419 189//189 185//185
f 420//420 189//189 419//419
f 420//420 191//191 189//189
f 421//421 191//191 420//420
f 421//421 193//193 191//191
f 422//422 193//193 421//421
f 422//422 195//195 193//193
f 423//423 195//195 422//422
f 423//423 197//197 195//195
f 424//424 197//197 423//423
f 411//411 197//197 424//424
f 197//197 411//411 200//200
f 214//214 213//213 210//210
f 212//212 210//210 213//213
f 211//211 210//210 212//212
f 209//209 210//210 211//211
f 214//214 380//380 213//213
f 214//214 381//381 380//380
f 214//214 382//382 381//381
f 214//214 383//383 382//382
f 396//396 383//383 214//214
f 383//383 396//396 384//384
f 425//425 426//426 427//427
f 426//426 425//425 428//428
f 313//313 139//139 309//309
f 313//313 137//137 139//139
f 313//313 141//141 137//137
f 313//313 144//144 141//141
f 317//317 144//144 313//313
f 317//317 147//147 144//144
f 317//317 158//158 147//147
f 317//317 160//160 158//158
f 160//160 317//317 321//321
f 294//294 286//286 290//290
f 298//298 286//286 294//294
f 298//298 282//282 286//286
f 298//298 135//135 282//282
f 302//302 135//135 298//298
f 305//305 135//135 302//302
f 309//309 135//135 305//305
f 139//139 135//135 309//309
f 139//139 133//133 135//135
f 133//133 138//138 136//136
f 138//138 133//133 139//139
f 134//134 282//282 135//135
f 134//134 275//275 282//282
f 134//134 278//278 275//275
f 134//134 280//280 278//278
f 134//134 150//150 280//280
f 136//136 150//150 134//134
f 136//136 148//148 150//150
f 138//138 148//148 136//136
f 140//140 148//148 138//138
f 140//140 151//151 148//148
f 142//142 151//151 140//140
f 142//142 153//153 151//151
f 143//143 153//153 142//142
f 143//143 154//154 153//153
f 145//145 154//154 143//143
f 145//145 156//156 154//154
f 156//156 145//145 146//146
f 150//150 284//284 280//280
f 149//149 284//284 150//150
f 152//152 284//284 149//149
f 155//155 284//284 152//152
f 155//155 288//288 284//284
f 157//157 288//288 155//155
f 159//159 288//288 157//157
f 160//160 288//288 159//159
f 321//321 288//288 160//160
f 321//321 292//292 288//288
f 319//319 292//292 321//321
f 319//319 296//296 292//292
f 315//315 296//296 319//319
f 315//315 299//299 296//296
f 311//311 299//299 315//315
f 311//311 303//303 299//299
f 303//303 311//311 307//307
f 398//398 414//414 413//413
f 399//399 414//414 398//398
f 399//399 415//415 414//414
f 400//400 415//415 399//399
f 400//400 416//416 415//415
f 400//400 429//429 416//416
f 401//401 429//429 400//400
f 402//402 429//429 401//401
f 403//403 429//429 402//402
f 404//404 429//429 403//403
f 405//405 429//429 404//404
f 406//406 429//429 405//405
f 407//407 429//429 406//406
f 407//407 430//430 429//429
f 430//430 408//408 431//431
f 408//408 430//430 407//407
f 432//432 416//416 429//429
f 432//432 417//417 416//416
f 432//432 418//418 417//417
f 432//432 419//419 418//418
f 432//432 420//420 419//419
f 432//432 421//421 420//420
f 432//432 422//422 421//421
f 432//432 423//423 422//422
f 432//432 424//424 423//423
f 431//431 424//424 432//432
f 409//409 431//431 408//408
f 410//410 431//431 409//409
f 431//431 411//411 424//424
f 411//411 431//431 410//410
f 433//433 434//434 435//435
f 434//434 433//433 436//436
f 437//437 438//438 439//439
f 438//438 437//437 440//440
f 397//397 441//441 412//412
f 397//397 442//442 441//441
f 442//442 440//440 437//437
f 440//440 443//443 444//444
f 442//442 443//443 440//440
f 397//397 443//443 442//442
f 397//397 445//445 443//443
f 445//445 436//436 433//433
f 445//445 446//446 436//436
f 445//445 398//398 446//446
f 398//398 445//445 397//397
f 439//439 412//412 441//441
f 438//438 412//412 439//439
f 447//447 412//412 438//438
f 444//444 412//412 447//447
f 435//435 444//444 443//443
f 434//434 444//444 435//435
f 434//434 412//412 444//444
f 448//448 412//412 434//434
f 446//446 412//412 448//448
f 446//446 413//413 412//412
f 413//413 446//446 398//398
f 430//430 432//432 429//429
f 432//432 430//430 431//431
f 434//434 449//449 448//448
f 449//449 434//434 450//450
f 451//451 434//434 436//436
f 434//434 451//451 450//450
f 451//451 449//449 450//450
f 449//449 451//451 452//452
f 449//449 446//446 448//448
f 446//446 449//449 452//452
f 451//451 446//446 452//452
f 446//446 451//451 436//436
f 453//453 438//438 440//440
f 438//438 453//453 454//454
f 453//453 444//444 455//455
f 444//444 453//453 440//440
f 453//453 456//456 454//454
f 456//456 453//453 455//455
f 438//438 456//456 447//447
f 456//456 438//438 454//454
f 456//456 444//444 447//447
f 444//444 456//456 455//455
f 457//457 433//433 435//435
f 433//433 457//457 458//458
f 443//443 457//457 435//435
f 457//457 443//443 459//459
f 460//460 457//457 459//459
f 457//457 460//460 458//458
f 460//460 433//433 458//458
f 433//433 460//460 445//445
f 460//460 443//443 445//445
f 443//443 460//460 459//459
f 441//441 461//461 439//439
f 461//461 441//441 462//462
f 463//463 441//441 442//442
f 441//441 463//463 462//462
f 463//463 461//461 462//462
f 461//461 463//463 464//464
f 461//461 437//437 439//439
f 437//437 461//461 464//464
f 463//463 437//437 464//464
f 437//437 463//463 442//442
f 244//244 465//465 245//245
f 465//465 244//244 466//466
f 245//245 467//467 247//247
f 467//467 245//245 465//465
f 247//247 468//468 248//248
f 468//468 247//247 467//467
f 248//248 469//469 250//250
f 469//469 248//248 468//468
f 250//250 470//470 251//251
f 470//470 250//250 469//469
f 253//253 470//470 471//471
f 470//470 253//253 251//251
f 255//255 471//471 472//472
f 471//471 255//255 253//253
f 257//257 472//472 473//473
f 472//472 257//257 255//255
f 474//474 257//257 473//473
f 257//257 474//474 259//259
f 475//475 259//259 474//474
f 259//259 475//475 260//260
f 476//476 260//260 475//475
f 260//260 476//476 262//262
f 477//477 262//262 476//476
f 262//262 477//477 242//242
f 478//478 242//242 477//477
f 242//242 478//478 241//241
f 479//479 241//241 478//478
f 241//241 479//479 239//239
f 480//480 239//239 479//479
f 239//239 480//480 238//238
f 481//481 238//238 480//480
f 238//238 481//481 236//236
f 234//234 481//481 482//482
f 481//481 234//234 236//236
f 233//233 482//482 483//483
f 482//482 233//233 234//234
f 231//231 483//483 484//484
f 483//483 231//231 233//233
f 231//231 485//485 229//229
f 485//485 231//231 484//484
f 229//229 486//486 227//227
f 486//486 229//229 485//485
f 227//227 487//487 226//226
f 487//487 227//227 486//486
f 226//226 488//488 224//224
f 488//488 226//226 487//487
f 224//224 489//489 223//223
f 489//489 224//224 488//488
f 223//223 490//490 222//222
f 490//490 223//223 489//489
f 222//222 466//466 244//244
f 466//466 222//222 490//490
f 489//489 466//466 490//490
f 488//488 466//466 489//489
f 488//488 465//465 466//466
f 487//487 465//465 488//488
f 487//487 467//467 465//465
f 487//487 289//289 467//467
f 486//486 289//289 487//487
f 486//486 293//293 289//289
f 485//485 293//293 486//486
f 485//485 297//297 293//293
f 484//484 297//297 485//485
f 484//484 301//301 297//297
f 484//484 306//306 301//301
f 484//484 310//310 306//306
f 484//484 314//314 310//310
f 484//484 318//318 314//314
f 312//312 491//491 308//308
f 316//316 491//491 312//312
f 320//320 491//491 316//316
f 322//322 491//491 320//320
f 318//318 491//491 322//322
f 484//484 491//491 318//318
f 484//484 492//492 491//491
f 492//492 493//493 494//494
f 484//484 493//493 492//492
f 484//484 495//495 493//493
f 495//495 496//496 497//497
f 495//495 498//498 496//496
f 495//495 499//499 498//498
f 495//495 500//500 499//499
f 495//495 501//501 500//500
f 495//495 502//502 501//501
f 495//495 503//503 502//502
f 504//504 505//505 506//506
f 507//507 505//505 504//504
f 508//508 505//505 507//507
f 508//508 509//509 505//505
f 510//510 509//509 508//508
f 510//510 511//511 509//509
f 512//512 511//511 510//510
f 512//512 513//513 511//511
f 512//512 514//514 513//513
f 503//503 514//514 512//512
f 503//503 515//515 514//514
f 495//495 515//515 503//503
f 495//495 516//516 515//515
f 517//517 483//483 518//518
f 519//519 483//483 517//517
f 520//520 483//483 519//519
f 521//521 483//483 520//520
f 522//522 483//483 521//521
f 516//516 483//483 522//522
f 495//495 483//483 516//516
f 483//483 495//495 484//484
f 289//289 468//468 467//467
f 285//285 468//468 289//289
f 285//285 469//469 468//468
f 281//281 469//469 285//285
f 281//281 470//470 469//469
f 277//277 470//470 281//281
f 276//276 470//470 277//277
f 279//279 470//470 276//276
f 283//283 470//470 279//279
f 287//287 470//470 283//283
f 491//491 304//304 308//308
f 491//491 300//300 304//304
f 523//523 300//300 491//491
f 523//523 295//295 300//300
f 523//523 291//291 295//295
f 523//523 287//287 291//291
f 523//523 470//470 287//287
f 494//494 470//470 523//523
f 524//524 494//494 493//493
f 524//524 470//470 494//494
f 497//497 470//470 524//524
f 525//525 497//497 496//496
f 526//526 497//497 525//525
f 527//527 497//497 526//526
f 528//528 497//497 527//527
f 529//529 497//497 528//528
f 530//530 497//497 529//529
f 505//505 531//531 506//506
f 505//505 532//532 531//531
f 505//505 533//533 532//532
f 505//505 534//534 533//533
f 535//535 534//534 505//505
f 536//536 534//534 535//535
f 536//536 537//537 534//534
f 538//538 537//537 536//536
f 539//539 537//537 538//538
f 539//539 530//530 537//537
f 540//540 530//530 539//539
f 540//540 497//497 530//530
f 541//541 497//497 540//540
f 483//483 542//542 518//518
f 483//483 543//543 542//542
f 483//483 544//544 543//543
f 483//483 545//545 544//544
f 483//483 546//546 545//545
f 497//497 471//471 470//470
f 541//541 471//471 497//497
f 546//546 471//471 541//541
f 483//483 471//471 546//546
f 483//483 472//472 471//471
f 482//482 472//472 483//483
f 481//481 472//472 482//482
f 481//481 473//473 472//472
f 480//480 473//473 481//481
f 480//480 474//474 473//473
f 479//479 474//474 480//480
f 479//479 475//475 474//474
f 478//478 475//475 479//479
f 478//478 476//476 475//475
f 476//476 478//478 477//477
f 547//547 497//497 548//548
f 497//497 547//547 495//495
f 549//549 550//550 551//551
f 549//549 552//552 550//550
f 552//552 547//547 553//553
f 547//547 552//552 549//549
f 554//554 551//551 550//550
f 553//553 551//551 554//554
f 553//553 548//548 551//551
f 548//548 553//553 547//547
f 493//493 547//547 549//549
f 547//547 493//493 495//495
f 497//497 551//551 548//548
f 551//551 497//497 524//524
f 493//493 551//551 524//524
f 551//551 493//493 549//549
f 555//555 550//550 552//552
f 550//550 555//555 556//556
f 550//550 557//557 554//554
f 557//557 550//550 556//556
f 555//555 553//553 558//558
f 553//553 555//555 552//552
f 555//555 557//557 556//556
f 557//557 555//555 558//558
f 557//557 553//553 554//554
f 553//553 557//557 558//558
f 559//559 560//560 561//561
f 560//560 559//559 562//562
f 560//560 563//563 561//561
f 563//563 560//560 564//564
f 565//565 563//563 564//564
f 563//563 565//565 566//566
f 565//565 559//559 566//566
f 559//559 565//565 562//562
f 565//565 560//560 562//562
f 560//560 565//565 564//564
f 567//567 494//494 568//568
f 494//494 567//567 492//492
f 569//569 559//559 570//570
f 569//569 566//566 559//559
f 566//566 567//567 563//563
f 567//567 566//566 569//569
f 561//561 570//570 559//559
f 563//563 570//570 561//561
f 563//563 568//568 570//570
f 568//568 563//563 567//567
f 491//491 567//567 569//569
f 567//567 491//491 492//492
f 494//494 570//570 568//568
f 570//570 494//494 523//523
f 491//491 570//570 523//523
f 570//570 491//491 569//569
f 545//545 337//337 339//339
f 337//337 545//545 546//546
f 546//546 335//335 337//337
f 335//335 546//546 541//541
f 544//544 339//339 341//341
f 339//339 544//544 545//545
f 541//541 333//333 335//335
f 333//333 541//541 540//540
f 343//343 544//544 341//341
f 544//544 343//343 543//543
f 540//540 331//331 333//333
f 331//331 540//540 539//539
f 345//345 543//543 343//343
f 543//543 345//345 542//542
f 539//539 329//329 331//331
f 329//329 539//539 538//538
f 346//346 542//542 345//345
f 542//542 346//346 518//518
f 536//536 329//329 538//538
f 329//329 536//536 327//327
f 344//344 518//518 346//346
f 518//518 344//344 517//517
f 535//535 327//327 536//536
f 327//327 535//535 324//324
f 342//342 517//517 344//344
f 517//517 342//342 519//519
f 505//505 324//324 535//535
f 324//324 505//505 325//325
f 340//340 519//519 342//342
f 519//519 340//340 520//520
f 509//509 325//325 505//505
f 325//325 509//509 323//323
f 521//521 340//340 338//338
f 340//340 521//521 520//520
f 511//511 323//323 509//509
f 323//323 511//511 326//326
f 522//522 338//338 336//336
f 338//338 522//522 521//521
f 513//513 326//326 511//511
f 326//326 513//513 328//328
f 516//516 336//336 334//334
f 336//336 516//516 522//522
f 513//513 330//330 328//328
f 330//330 513//513 514//514
f 515//515 334//334 332//332
f 334//334 515//515 516//516
f 514//514 332//332 330//330
f 332//332 514//514 515//515
f 503//503 360//360 358//358
f 360//360 503//503 512//512
f 512//512 362//362 360//360
f 362//362 512//512 510//510
f 502//502 358//358 356//356
f 358//358 502//502 503//503
f 510//510 364//364 362//362
f 364//364 510//510 508//508
f 501//501 356//356 354//354
f 356//356 501//501 502//502
f 364//364 507//507 366//366
f 507//507 364//364 508//508
f 500//500 354//354 352//352
f 354//354 500//500 501//501
f 366//366 504//504 368//368
f 504//504 366//366 507//507
f 500//500 350//350 499//499
f 350//350 500//500 352//352
f 368//368 506//506 370//370
f 506//506 368//368 504//504
f 499//499 347//347 498//498
f 347//347 499//499 350//350
f 370//370 531//531 369//369
f 531//531 370//370 506//506
f 498//498 349//349 496//496
f 349//349 498//498 347//347
f 369//369 532//532 367//367
f 532//532 369//369 531//531
f 496//496 348//348 525//525
f 348//348 496//496 349//349
f 367//367 533//533 365//365
f 533//533 367//367 532//532
f 525//525 351//351 526//526
f 351//351 525//525 348//348
f 533//533 363//363 365//365
f 363//363 533//533 534//534
f 526//526 353//353 527//527
f 353//353 526//526 351//351
f 534//534 361//361 363//363
f 361//361 534//534 537//537
f 528//528 353//353 355//355
f 353//353 528//528 527//527
f 537//537 359//359 361//361
f 359//359 537//537 530//530
f 529//529 355//355 357//357
f 355//355 529//529 528//528
f 530//530 357//357 359//359
f 357//357 530//530 529//529
f 24//24 67//67 68//68
f 67//67 24//24 21//21
f 24//24 69//69 16//16
f 69//69 24//24 68//68
f 70//70 16//16 69//69
f 16//16 70//70 19//19
f 31//31 70//70 71//71
f 70//70 31//31 19//19
f 72//72 31//31 71//71
f 31//31 72//72 35//35
f 73//73 35//35 72//72
f 35//35 73//73 37//37
f 74//74 37//37 73//73
f 37//37 74//74 39//39
f 74//74 40//40 39//39
f 40//40 74//74 75//75
f 75//75 42//42 40//40
f 42//42 75//75 76//76
f 44//44 76//76 77//77
f 76//76 44//44 42//42
f 46//46 77//77 78//78
f 77//77 46//46 44//44
f 48//48 78//78 79//79
f 78//78 48//48 46//46
f 49//49 79//79 80//80
f 79//79 49//49 48//48
f 51//51 80//80 81//81
f 80//80 51//51 49//49
f 53//53 81//81 82//82
f 81//81 53//53 51//51
f 83//83 53//53 82//82
f 53//53 83//83 60//60
f 58//58 83//83 84//84
f 83//83 58//58 60//60
f 59//59 84//84 85//85
f 84//84 59//59 58//58
f 57//57 85//85 86//86
f 85//85 57//57 59//59
f 56//56 86//86 87//87
f 86//86 56//56 57//57
f 55//55 87//87 88//88
f 87//87 55//55 56//56
f 54//54 88//88 89//89
f 88//88 54//54 55//55
f 90//90 54//54 89//89
f 54//54 90//90 52//52
f 50//50 90//90 91//91
f 90//90 50//50 52//52
f 47//47 91//91 92//92
f 91//91 47//47 50//50
f 45//45 92//92 93//93
f 92//92 45//45 47//47
f 94//94 45//45 93//93
f 45//45 94//94 43//43
f 41//41 94//94 95//95
f 94//94 41//41 43//43
f 96//96 41//41 95//95
f 41//41 96//96 38//38
f 97//97 38//38 96//96
f 38//38 97//97 36//36
f 98//98 36//36 97//97
f 36//36 98//98 34//34
f 99//99 34//34 98//98
f 34//34 99//99 32//32
f 33//33 99//99 100//100
f 99//99 33//33 32//32
f 30//30 100//100 101//101
f 100//100 30//30 33//33
f 29//29 101//101 102//102
f 101//101 29//29 30//30
f 103//103 29//29 102//102
f 29//29 103//103 27//27
f 28//28 103//103 104//104
f 103//103 28//28 27//27
f 105//105 28//28 104//104
f 28//28 105//105 20//20
f 17//17 105//105 106//106
f 105//105 17//17 20//20
f 18//18 106//106 107//107
f 106//106 18//18 17//17
f 18//18 108//108 26//26
f 108//108 18//18 107//107
f 25//25 108//108 109//109
f 108//108 25//25 26//26
f 110//110 25//25 109//109
f 25//25 110//110 22//22
f 23//23 110//110 111//111
f 110//110 23//23 22//22
f 67//67 23//23 111//111
f 23//23 67//67 21//21
f 109//109 108//108 110//110
f 110//110 67//67 111//111
f 107//107 110//110 108//108
f 107//107 67//67 110//110
f 69//69 67//67 107//107
f 67//67 69//69 68//68
f 99//99 101//101 100//100
f 99//99 71//71 101//101
f 98//98 71//71 99//99
f 98//98 72//72 71//71
f 97//97 72//72 98//98
f 97//97 73//73 72//72
f 96//96 73//73 97//97
f 96//96 74//74 73//73
f 96//96 75//75 74//74
f 95//95 75//75 96//96
f 95//95 76//76 75//75
f 94//94 76//76 95//95
f 94//94 77//77 76//76
f 93//93 77//77 94//94
f 93//93 78//78 77//77
f 92//92 78//78 93//93
f 92//92 79//79 78//78
f 92//92 80//80 79//79
f 91//91 80//80 92//92
f 91//91 81//81 80//80
f 90//90 81//81 91//91
f 90//90 82//82 81//81
f 90//90 119//119 82//82
f 89//89 119//119 90//90
f 89//89 126//126 119//119
f 89//89 125//125 126//126
f 89//89 124//124 125//125
f 88//88 124//124 89//89
f 88//88 123//123 124//124
f 87//87 123//123 88//88
f 87//87 122//122 123//123
f 86//86 122//122 87//87
f 86//86 121//121 122//122
f 86//86 120//120 121//121
f 120//120 85//85 112//112
f 85//85 120//120 86//86
f 103//103 105//105 104//104
f 102//102 105//105 103//103
f 102//102 70//70 105//105
f 101//101 70//70 102//102
f 70//70 101//101 71//71
f 106//106 69//69 107//107
f 106//106 70//70 69//69
f 70//70 106//106 105//105
f 118//118 82//82 119//119
f 117//117 82//82 118//118
f 117//117 83//83 82//82
f 116//116 83//83 117//117
f 115//115 83//83 116//116
f 114//114 83//83 115//115
f 113//113 83//83 114//114
f 112//112 83//83 113//113
f 112//112 84//84 83//83
f 84//84 112//112 85//85
f 3//3 126//126 2//2
f 126//126 3//3 119//119
f 2//2 125//125 5//5
f 125//125 2//2 126//126
f 1//1 119//119 3//3
f 119//119 1//1 118//118
f 5//5 124//124 7//7
f 124//124 5//5 125//125
f 4//4 118//118 1//1
f 118//118 4//4 117//117
f 7//7 123//123 9//9
f 123//123 7//7 124//124
f 6//6 117//117 4//4
f 117//117 6//6 116//116
f 11//11 123//123 122//122
f 123//123 11//11 9//9
f 8//8 116//116 6//6
f 116//116 8//8 115//115
f 13//13 122//122 121//121
f 122//122 13//13 11//11
f 8//8 114//114 115//115
f 114//114 8//8 10//10
f 15//15 121//121 120//120
f 121//121 15//15 13//13
f 10//10 113//113 114//114
f 113//113 10//10 12//12
f 112//112 15//15 120//120
f 15//15 112//112 14//14
f 12//12 112//112 113//113
f 112//112 12//12 14//14
f 65//65 127//127 128//128
f 127//127 65//65 66//66
f 128//128 62//62 65//65
f 62//62 128//128 129//129
f 63//63 129//129 130//130
f 129//129 63//63 62//62
f 131//131 63//63 130//130
f 63//63 131//131 61//61
f 64//64 131//131 132//132
f 131//131 64//64 61//61
f 64//64 127//127 66//66
f 127//127 64//64 132//132
f 128//128 127//127 129//129
f 129//129 131//131 130//130
f 129//129 132//132 131//131
f 132//132 129//129 127//127
f 213//213 427//427 212//212
f 213//213 425//425 427//427
f 425//425 379//379 428//428
f 425//425 377//377 379//379
f 213//213 377//377 425//425
f 377//377 213//213 380//380
f 426//426 212//212 427//427
f 428//428 212//212 426//426
f 378//378 428//428 379//379
f 378//378 212//212 428//428
f 212//212 378//378 371//371