# https://github.com/mikedh/trimesh
v -0.09815800 -0.02761700 -0.04348400
v -0.09869300 0.02697500 -0.04273400
v -0.09815800 0.02697500 -0.04348400
v -0.09869300 -0.02761700 -0.04273400
v -0.09476300 0.02697500 -0.03625200
v -0.09770300 0.02697500 -0.04110100
v -0.09770300 -0.02761700 -0.04110100
v -0.09476300 -0.02761700 -0.03625200
v -0.09158500 0.02697500 -0.03156000
v -0.09158500 -0.02761700 -0.03156000
v -0.08822500 0.02697500 -0.02712100
v -0.08822500 -0.02761700 -0.02712100
v -0.08468200 0.02697500 -0.02293800
v -0.08468200 -0.02761700 -0.02293800
v -0.08095700 0.02697500 -0.01901200
v -0.08095700 -0.02761700 -0.01901200
v -0.07705100 -0.02761700 -0.01534700
v -0.07705100 0.02697500 -0.01534700
v -0.07296400 -0.02761700 -0.01194500
v -0.07296400 0.02697500 -0.01194500
v -0.06869900 -0.02761700 -0.00880700
v -0.06869900 0.02697500 -0.00880700
v -0.05485600 0.02697500 -0.00100500
v -0.04990200 -0.02761700 0.00105500
v -0.04990200 0.02697500 0.00105500
v -0.05485600 -0.02761700 -0.00100500
v -0.04478200 -0.02761700 0.00284600
v -0.04478200 0.02697500 0.00284600
v -0.03950000 -0.02761700 0.00436500
v -0.03950000 0.02697500 0.00436500
v -0.03550100 -0.02761700 0.00528500
v -0.03550100 0.02697500 0.00528500
v -0.00463200 -0.02761700 0.00528500
v -0.00463200 0.02697500 0.00528500
v -0.00463200 0.02697500 0.00328100
v -0.00463200 -0.02761700 0.00328100
v -0.01066600 -0.02761700 0.00335400
v -0.01066600 0.02697500 0.00335400
v -0.01653500 -0.02761700 0.00317400
v -0.01653500 0.02697500 0.00317400
v -0.02223700 -0.02761700 0.00273900
v -0.02223700 0.02697500 0.00273900
v -0.02777400 -0.02761700 0.00205100
v -0.02777400 0.02697500 0.00205100
v -0.03314400 -0.02761700 0.00110900
v -0.03314400 0.02697500 0.00110900
v -0.03834900 -0.02761700 -0.00008700
v -0.03834900 0.02697500 -0.00008700
v -0.04338700 -0.02761700 -0.00153600
v -0.04338700 0.02697500 -0.00153600
v -0.04825900 -0.02761700 -0.00324000
v -0.04825900 0.02697500 -0.00324000
v -0.05296500 -0.02761700 -0.00519700
v -0.05296500 0.02697500 -0.00519700
v -0.05750500 -0.02761700 -0.00740900
v -0.05750500 0.02697500 -0.00740900
v -0.06187900 -0.02761700 -0.00987400
v -0.06187900 0.02697500 -0.00987400
v -0.06608700 -0.02761700 -0.01259300
v -0.06608700 0.02697500 -0.01259300
v -0.07012900 -0.02761700 -0.01556600
v -0.07012900 0.02697500 -0.01556600
v -0.07400500 -0.02761700 -0.01879200
v -0.07400500 0.02697500 -0.01879200
v -0.07771500 -0.02761700 -0.02227300
v -0.07771500 0.02697500 -0.02227300
v -0.08125800 -0.02761700 -0.02600700
v -0.08125800 0.02697500 -0.02600700
v -0.08463600 0.02697500 -0.02999600
v -0.08463600 -0.02761700 -0.02999600
v -0.08784700 0.02697500 -0.03423800
v -0.08784700 -0.02761700 -0.03423800
v -0.09089300 -0.02761700 -0.03873400
v -0.09089300 0.02697500 -0.03873400
v -0.09377200 0.02697500 -0.04348400
v -0.09377200 -0.02761700 -0.04348400
v -0.06425700 -0.02761700 -0.00593800
v -0.06425700 0.02697500 -0.00593800
v -0.05964200 0.02697500 -0.00333600
v -0.05964200 -0.02761700 -0.00333600
v 0.10094900 -0.02761700 -0.04273400
v 0.10041300 -0.02761700 -0.04348400
v 0.10094900 0.02697500 -0.04273400
v 0.10041300 0.02697500 -0.04348400
v 0.09701900 -0.02761700 -0.03625200
v 0.09995900 -0.02761700 -0.04110100
v 0.09701900 0.02697500 -0.03625200
v 0.09995900 0.02697500 -0.04110100
v 0.09384100 -0.02761700 -0.03156000
v 0.09384100 0.02697500 -0.03156000
v 0.09048100 -0.02761700 -0.02712100
v 0.09048100 0.02697500 -0.02712100
v 0.08693800 -0.02761700 -0.02293800
v 0.08693800 0.02697500 -0.02293800
v 0.08321300 -0.02761700 -0.01901200
v 0.08321300 0.02697500 -0.01901200
v 0.07930600 -0.02761700 -0.01534700
v 0.07930600 0.02697500 -0.01534700
v 0.07522000 -0.02761700 -0.01194500
v 0.07522000 0.02697500 -0.01194500
v 0.07095400 -0.02761700 -0.00880700
v 0.07095400 0.02697500 -0.00880700
v 0.05711200 -0.02761700 -0.00100500
v 0.05711200 0.02697500 -0.00100500
v 0.05215700 -0.02761700 0.00105500
v 0.05215700 0.02697500 0.00105500
v 0.04703800 -0.02761700 0.00284600
v 0.04703800 0.02697500 0.00284600
v 0.04175600 -0.02761700 0.00436500
v 0.04175600 0.02697500 0.00436500
v 0.03775700 -0.02761700 0.00528500
v 0.03775700 0.02697500 0.00528500
v 0.00688800 -0.02761700 0.00528500
v 0.00688800 0.02697500 0.00528500
v 0.00688800 -0.02761700 0.00328100
v 0.00688800 0.02697500 0.00328100
v 0.01292200 0.02697500 0.00335400
v 0.01292200 -0.02761700 0.00335400
v 0.01879100 0.02697500 0.00317400
v 0.01879100 -0.02761700 0.00317400
v 0.02449300 0.02697500 0.00273900
v 0.02449300 -0.02761700 0.00273900
v 0.03003000 0.02697500 0.00205100
v 0.03003000 -0.02761700 0.00205100
v 0.03540000 0.02697500 0.00110900
v 0.03540000 -0.02761700 0.00110900
v 0.04060500 0.02697500 -0.00008700
v 0.04060500 -0.02761700 -0.00008700
v 0.04564300 0.02697500 -0.00153600
v 0.04564300 -0.02761700 -0.00153600
v 0.05051500 0.02697500 -0.00324000
v 0.05051500 -0.02761700 -0.00324000
v 0.05522100 0.02697500 -0.00519700
v 0.05522100 -0.02761700 -0.00519700
v 0.05976100 0.02697500 -0.00740900
v 0.05976100 -0.02761700 -0.00740900
v 0.06413500 0.02697500 -0.00987400
v 0.06413500 -0.02761700 -0.00987400
v 0.06834300 0.02697500 -0.01259300
v 0.06834300 -0.02761700 -0.01259300
v 0.07238500 0.02697500 -0.01556600
v 0.07238500 -0.02761700 -0.01556600
v 0.07626100 0.02697500 -0.01879200
v 0.07626100 -0.02761700 -0.01879200
v 0.07997000 0.02697500 -0.02227300
v 0.07997000 -0.02761700 -0.02227300
v 0.08351400 -0.02761700 -0.02600700
v 0.08351400 0.02697500 -0.02600700
v 0.08689200 -0.02761700 -0.02999600
v 0.08689200 0.02697500 -0.02999600
v 0.09010300 -0.02761700 -0.03423800
v 0.09010300 0.02697500 -0.03423800
v 0.09314900 -0.02761700 -0.03873400
v 0.09314900 0.02697500 -0.03873400
v 0.09602800 -0.02761700 -0.04348400
v 0.09602800 0.02697500 -0.04348400
v 0.06651300 -0.02761700 -0.00593800
v 0.06651300 0.02697500 -0.00593800
v 0.06189800 0.02697500 -0.00333600
v 0.06189800 -0.02761700 -0.00333600
v 0.06164600 -0.01409500 -0.00022500
v -0.06106400 -0.01409500 0.00528500
v 0.06312200 -0.01409500 0.00528500
v -0.05958800 -0.01409500 -0.00022500
v 0.06312200 -0.01810100 0.00528500
v 0.06164600 -0.01810100 -0.00022500
v -0.05958800 -0.01810100 -0.00022500
v -0.06106400 -0.01810100 0.00528500
v 0.06164600 0.01745900 -0.00022500
v -0.06106400 0.01745900 0.00528500
v 0.06312200 0.01745900 0.00528500
v -0.05958800 0.01745900 -0.00022500
v 0.06312200 0.01345200 0.00528500
v 0.06164600 0.01345200 -0.00022500
v -0.05958800 0.01345200 -0.00022500
v -0.06106400 0.01345200 0.00528500
v -0.08720700 -0.03665900 0.00528500
v 0.08964400 0.03601600 0.00528500
v 0.08964400 -0.03665900 0.00528500
v -0.08720700 0.03601600 0.00528500
v -0.08868400 0.03749300 0.01079400
v -0.08868400 -0.03813500 0.01079400
v 0.09112000 0.03749300 0.01079400
v 0.09112000 -0.03813500 0.01079400
v 0.08010200 0.02947900 0.01580200
v -0.07858300 0.02939600 0.01672000
v 0.08102000 0.02939600 0.01672000
v -0.07766500 0.02947900 0.01580200
v 0.08010200 0.02947900 0.01379900
v -0.07766500 0.02947900 0.01379900
v -0.07858300 0.02939600 0.01288100
v 0.08102000 0.02739200 0.01872400
v -0.07766500 0.02647400 0.01880700
v 0.08010200 0.02647400 0.01880700
v -0.07858300 0.02739200 0.01872400
v 0.08102000 0.02939600 0.01288100
v -0.07933400 0.02914500 0.01747200
v 0.08177100 0.02914500 0.01747200
v -0.07933400 0.02914500 0.01212900
v -0.08067000 0.02647400 0.01379900
v -0.08058700 0.02739200 0.01672000
v -0.08058700 0.02739200 0.01288100
v -0.08067000 0.02647400 0.01580200
v -0.07766500 -0.02711700 0.01880700
v -0.07858300 -0.02803500 0.01872400
v 0.08010200 -0.02711700 0.01880700
v 0.08102000 -0.02803500 0.01872400
v 0.08177100 0.02814400 0.01847300
v -0.07933400 0.02814400 0.01847300
v 0.08177100 0.02914500 0.01212900
v -0.07991900 0.02872800 0.01805600
v 0.08235600 0.02872800 0.01805600
v 0.08310700 0.02647400 0.01580200
v 0.08302300 0.02739200 0.01288100
v 0.08302300 0.02739200 0.01672000
v 0.08310700 0.02647400 0.01379900
v -0.07766500 0.02647400 0.01079400
v 0.08102000 0.02739200 0.01087700
v 0.08010200 0.02647400 0.01079400
v -0.07858300 0.02739200 0.01087700
v -0.08067000 -0.02711700 0.01379900
v -0.08058700 -0.02803500 0.01288100
v -0.08067000 -0.02711700 0.01580200
v -0.08058700 -0.02803500 0.01672000
v -0.07991900 0.02872800 0.01154500
v -0.08033600 0.02814400 0.01747200
v -0.08033600 0.02814400 0.01212900
v -0.07933400 -0.02878600 0.01847300
v 0.08177100 -0.02878600 0.01847300
v 0.08310700 -0.02711700 0.01580200
v 0.08302300 -0.02803500 0.01672000
v 0.08310700 -0.02711700 0.01379900
v 0.08302300 -0.02803500 0.01288100
v 0.08235600 0.02872800 0.01154500
v 0.08277300 0.02814400 0.01747200
v 0.08277300 0.02814400 0.01212900
v 0.08010200 -0.02711700 0.01079400
v -0.07766500 -0.02711700 0.01079400
v -0.07858300 -0.02803500 0.01087700
v 0.08177100 0.02814400 0.01112800
v -0.07933400 0.02814400 0.01112800
v 0.08102000 -0.02803500 0.01087700
v -0.08033600 -0.02878600 0.01212900
v -0.08033600 -0.02878600 0.01747200
v -0.07991900 -0.02937000 0.01805600
v 0.08235600 -0.02937000 0.01805600
v 0.08277300 -0.02878600 0.01747200
v 0.08277300 -0.02878600 0.01212900
v -0.07933400 -0.02878600 0.01112800
v 0.08177100 -0.02878600 0.01112800
v -0.07991900 -0.02937000 0.01154500
v 0.08235600 -0.02937000 0.01154500
v -0.07766500 -0.03012200 0.01580200
v 0.08102000 -0.03003800 0.01672000
v -0.07858300 -0.03003800 0.01672000
v 0.08010200 -0.03012200 0.01580200
v -0.07933400 -0.02978800 0.01747200
v 0.08177100 -0.02978800 0.01747200
v -0.07933400 -0.02978800 0.01212900
v -0.07766500 -0.03012200 0.01379900
v -0.07858300 -0.03003800 0.01288100
v 0.08010200 -0.03012200 0.01379900
v 0.08102000 -0.03003800 0.01288100
v 0.08177100 -0.02978800 0.01212900
vn -0.36027867 -0.61711669 -0.69954719
vn -0.79811606 0.60176747 -0.02977704
vn -0.36027867 0.61711669 -0.69954719
vn -0.79811451 -0.60176889 -0.02978982
vn -0.59993318 0.70148924 0.38469861
vn 0.00000000 -1.00000000 0.00000000
vn -0.60466370 -0.70710056 0.36659324
vn -0.59992983 -0.70149054 0.38470148
vn -0.57955923 0.70123820 0.41518200
vn -0.57955923 -0.70123820 0.41518200
vn -0.55662935 0.70098879 0.44584581
vn -0.55662935 -0.70098879 0.44584581
vn -0.53111548 0.70081698 0.47620574
vn -0.53111548 -0.70081698 0.47620574
vn -0.50313546 0.70062876 0.50593878
vn -0.50313546 -0.70062876 0.50593878
vn -0.47266011 -0.70048447 0.53470921
vn -0.47266011 0.70048447 0.53470921
vn -0.43998717 -0.70043261 0.56196570
vn -0.43998717 0.70043261 0.56196570
vn -0.40534966 -0.70032363 0.58756997
vn -0.40534966 0.70032363 0.58756997
vn -0.29337299 0.70051056 0.65055149
vn -0.25486435 -0.70068544 0.66639634
vn -0.25486435 0.70068544 0.66639634
vn -0.29337299 -0.70051056 0.65055149
vn -0.21643325 -0.70080667 0.67972543
vn -0.21643325 0.70080667 0.67972543
vn -0.17853937 -0.70109153 0.69035814
vn -0.17853937 0.70109153 0.69035814
vn -0.08245138 -0.68257312 0.72615130
vn -0.08245138 0.68257312 0.72615130
vn 0.57735027 -0.57735027 0.57735027
vn 0.57735027 0.57735027 0.57735027
vn 0.57416204 0.57671679 -0.58115033
vn 0.57416204 -0.57671679 -0.58115033
vn 0.00651747 -0.71195015 -0.70219976
vn 0.00651747 0.71195015 -0.70219976
vn 0.03746499 -0.71226083 -0.70091432
vn 0.03746499 0.71226083 -0.70091432
vn 0.06996869 -0.71248890 -0.69818618
vn 0.06996869 0.71248890 -0.69818618
vn 0.10386853 -0.71278024 -0.69365385
vn 0.10386853 0.71278024 -0.69365385
vn 0.13912584 -0.71302888 -0.68719270
vn 0.13912584 0.71302888 -0.68719270
vn 0.17541351 -0.71325650 -0.67859802
vn 0.17541351 0.71325650 -0.67859802
vn 0.21257378 -0.71350863 -0.66762101
vn 0.21257378 0.71350863 -0.66762101
vn 0.25022425 -0.71365075 -0.65428620
vn 0.25022425 0.71365075 -0.65428620
vn 0.28794597 -0.71383823 -0.63837457
vn 0.28794597 0.71383823 -0.63837457
vn 0.32539766 -0.71389996 -0.62005097
vn 0.32539766 0.71389996 -0.62005097
vn 0.36203989 -0.71397498 -0.59930531
vn 0.36203989 0.71397498 -0.59930531
vn 0.39760552 -0.71397933 -0.57631880
vn 0.39760552 0.71397933 -0.57631880
vn 0.43161653 -0.71391577 -0.55139046
vn 0.43161653 0.71391577 -0.55139046
vn 0.46378362 -0.71385614 -0.52470388
vn 0.46378362 0.71385614 -0.52470388
vn 0.49390651 -0.71370047 -0.49667695
vn 0.49390651 0.71370047 -0.49667695
vn 0.52167210 -0.71352087 -0.46770311
vn 0.52167210 0.71352087 -0.46770311
vn 0.54702440 0.71331558 -0.43811551
vn 0.54702440 -0.71331558 -0.43811551
vn 0.56992015 0.71305993 -0.40833387
vn 0.56992015 -0.71305993 -0.40833387
vn 0.59037948 -0.71284099 -0.37856280
vn 0.59037948 0.71284099 -0.37856280
vn 0.38828654 0.61154313 -0.68938275
vn 0.38828654 -0.61154313 -0.68938275
vn -0.36905868 -0.70040778 0.61092114
vn -0.36905868 0.70040778 0.61092114
vn -0.33168795 0.70040010 0.63199906
vn -0.33168795 -0.70040010 0.63199906
vn 0.79814633 -0.60170904 -0.03014394
vn 0.35994564 -0.61718386 -0.69965936
vn 0.79814788 0.60170763 -0.03013115
vn 0.35994564 0.61718386 -0.69965936
vn 0.59992983 -0.70149054 0.38470148
vn 0.60466370 -0.70710056 0.36659324
vn 0.59993318 0.70148924 0.38469861
vn 0.00000000 0.00000000 0.00000000
vn 0.57955923 -0.70123820 0.41518200
vn 0.57955923 0.70123820 0.41518200
vn 0.55662935 -0.70098879 0.44584581
vn 0.55662935 0.70098879 0.44584581
vn 0.53111548 -0.70081698 0.47620574
vn 0.53111548 0.70081698 0.47620574
vn 0.50311291 -0.70061465 0.50598074
vn 0.50311291 0.70061465 0.50598074
vn 0.47264032 -0.70051187 0.53469080
vn 0.47264032 0.70051187 0.53469080
vn 0.44000505 -0.70040696 0.56198366
vn 0.44000505 0.70040696 0.56198366
vn 0.40533373 -0.70034731 0.58755273
vn 0.40533373 0.70034731 0.58755273
vn 0.29335291 -0.70050266 0.65056906
vn 0.29335291 0.70050266 0.65056906
vn 0.25485566 -0.70070007 0.66638427
vn 0.25485566 0.70070007 0.66638427
vn 0.21645595 -0.70079994 0.67972514
vn 0.21645595 0.70079994 0.67972514
vn 0.17853937 -0.70109153 0.69035814
vn 0.17853937 0.70109153 0.69035814
vn 0.08245138 -0.68257312 0.72615130
vn 0.08245138 0.68257312 0.72615130
vn -0.57735027 -0.57735027 0.57735027
vn -0.57735027 0.57735027 0.57735027
vn -0.57416204 -0.57671679 -0.58115033
vn -0.57416204 0.57671679 -0.58115033
vn -0.00651747 0.71195015 -0.70219976
vn -0.00651747 -0.71195015 -0.70219976
vn -0.03746499 0.71226083 -0.70091432
vn -0.03746499 -0.71226083 -0.70091432
vn -0.06996869 0.71248890 -0.69818618
vn -0.06996869 -0.71248890 -0.69818618
vn -0.10386853 0.71278024 -0.69365385
vn -0.10386853 -0.71278024 -0.69365385
vn -0.13912584 0.71302888 -0.68719270
vn -0.13912584 -0.71302888 -0.68719270
vn -0.17541351 0.71325650 -0.67859802
vn -0.17541351 -0.71325650 -0.67859802
vn -0.21257378 0.71350863 -0.66762101
vn -0.21257378 -0.71350863 -0.66762101
vn -0.25022425 0.71365075 -0.65428620
vn -0.25022425 -0.71365075 -0.65428620
vn -0.28794597 0.71383823 -0.63837457
vn -0.28794597 -0.71383823 -0.63837457
vn -0.32539766 0.71389996 -0.62005097
vn -0.32539766 -0.71389996 -0.62005097
vn -0.36203989 0.71397498 -0.59930531
vn -0.36203989 -0.71397498 -0.59930531
vn -0.39760552 0.71397933 -0.57631880
vn -0.39760552 -0.71397933 -0.57631880
vn -0.43161653 0.71391577 -0.55139046
vn -0.43161653 -0.71391577 -0.55139046
vn -0.46380851 0.71387155 -0.52466092
vn -0.46380851 -0.71387155 -0.52466092
vn -0.49392758 0.71366893 -0.49670132
vn -0.49392758 -0.71366893 -0.49670132
vn -0.52162691 -0.71353700 -0.46772890
vn -0.52162691 0.71353700 -0.46772890
vn -0.54702440 -0.71331558 -0.43811551
vn -0.54702440 0.71331558 -0.43811551
vn -0.56992015 -0.71305993 -0.40833387
vn -0.56992015 0.71305993 -0.40833387
vn -0.59037948 -0.71284099 -0.37856280
vn -0.59037948 0.71284099 -0.37856280
vn -0.38828654 -0.61154313 -0.68938275
vn -0.38828654 0.61154313 -0.68938275
vn 0.36909577 -0.70039644 0.61091172
vn 0.36909577 0.70039644 0.61091172
vn 0.33168795 0.70040010 0.63199906
vn 0.33168795 -0.70040010 0.63199906
vn 0.49047714 0.59237653 -0.63915743
vn -0.65466864 0.56482135 0.50238015
vn 0.65466864 0.56482135 0.50238015
vn -0.49047714 0.59237653 -0.63915743
vn 0.65466864 -0.56482135 0.50238015
vn 0.49047714 -0.59237653 -0.63915743
vn -0.49047714 -0.59237653 -0.63915743
vn -0.65466864 -0.56482135 0.50238015
vn 0.49047714 0.59237653 -0.63915743
vn -0.65466864 0.56482135 0.50238015
vn 0.65466864 0.56482135 0.50238015
vn -0.49047714 0.59237653 -0.63915743
vn 0.65466864 -0.56482135 0.50238015
vn 0.49047714 -0.59237653 -0.63915743
vn -0.49047714 -0.59237653 -0.63915743
vn -0.65466864 -0.56482135 0.50238015
vn -0.49761238 -0.49768281 -0.71041800
vn 0.49768281 0.49761238 -0.71041800
vn 0.49767650 -0.49767650 -0.71037751
vn -0.49761869 0.49761869 -0.71045850
vn -0.63403751 0.63403751 0.44271082
vn -0.63405077 -0.63399517 0.44275246
vn 0.63399517 0.63405077 0.44275246
vn 0.63400843 -0.63400843 0.44279410
vn 0.03382458 0.99885524 0.03382458
vn -0.13280277 0.98223354 0.13259225
vn 0.13280277 0.98223354 0.13259225
vn -0.03382458 0.99885524 0.03382458
vn 0.03382458 0.99885524 -0.03382458
vn -0.03382458 0.99885524 -0.03382458
vn -0.13280277 0.98223354 -0.13259225
vn 0.13280277 0.13259225 0.98223354
vn -0.03382458 0.03382458 0.99885524
vn 0.03382458 0.03382458 0.99885524
vn -0.13280277 0.13259225 0.98223354
vn 0.13280277 0.98223354 -0.13259225
vn -0.27645782 0.92027661 0.27687912
vn 0.27645782 0.92027661 0.27687912
vn -0.27645782 0.92027661 -0.27687912
vn -0.99885524 0.03382458 -0.03382458
vn -0.98225406 0.13262158 0.13262158
vn -0.98225406 0.13262158 -0.13262158
vn -0.99885524 0.03382458 0.03382458
vn -0.03382458 -0.03382458 0.99885524
vn -0.13277339 -0.13277339 0.98221304
vn 0.03382458 -0.03382458 0.99885524
vn 0.13277339 -0.13277339 0.98221304
vn 0.27645782 0.27687912 0.92027661
vn -0.27645782 0.27687912 0.92027661
vn 0.27645782 0.92027661 -0.27687912
vn -0.57731528 0.57736776 0.57736776
vn 0.57731528 0.57736776 0.57736776
vn 0.99882761 0.03423014 0.03423014
vn 0.98233994 0.13230314 -0.13230314
vn 0.98233994 0.13230314 0.13230314
vn 0.99882761 0.03423014 -0.03423014
vn -0.03382458 0.03382458 -0.99885524
vn 0.13280277 0.13259225 -0.98223354
vn 0.03382458 0.03382458 -0.99885524
vn -0.13280277 0.13259225 -0.98223354
vn -0.99885524 -0.03382458 -0.03382458
vn -0.98223354 -0.13280277 -0.13259225
vn -0.99885524 -0.03382458 0.03382458
vn -0.98223354 -0.13280277 0.13259225
vn -0.57731528 0.57736776 -0.57736776
vn -0.92019828 0.27679878 0.27679878
vn -0.92019828 0.27679878 -0.27679878
vn -0.27649235 -0.27689741 0.92026073
vn 0.27649235 -0.27689741 0.92026073
vn 0.99882761 -0.03423014 0.03423014
vn 0.98231954 -0.13248374 0.13227388
vn 0.99882761 -0.03423014 -0.03423014
vn 0.98231954 -0.13248374 -0.13227388
vn 0.57731528 0.57736776 -0.57736776
vn 0.92029327 0.27664082 0.27664082
vn 0.92029327 0.27664082 -0.27664082
vn 0.03382458 -0.03382458 -0.99885524
vn -0.03382458 -0.03382458 -0.99885524
vn -0.13277339 -0.13277339 -0.98221304
vn 0.27645782 0.27687912 -0.92027661
vn -0.27645782 0.27687912 -0.92027661
vn 0.13277339 -0.13277339 -0.98221304
vn -0.92018241 -0.27681702 -0.27683327
vn -0.92018241 -0.27681702 0.27683327
vn -0.57743754 -0.57712328 0.57748992
vn 0.57743754 -0.57712328 0.57748992
vn 0.92027748 -0.27665900 0.27667519
vn 0.92027748 -0.27665900 -0.27667519
vn -0.27649235 -0.27689741 -0.92026073
vn 0.27649235 -0.27689741 -0.92026073
vn -0.57743754 -0.57712328 -0.57748992
vn 0.57743754 -0.57712328 -0.57748992
vn -0.03423014 -0.99882761 0.03423014
vn 0.13248374 -0.98231954 0.13227388
vn -0.13248374 -0.98231954 0.13227388
vn 0.03423014 -0.99882761 0.03423014
vn -0.27673865 -0.92010759 0.27716015
vn 0.27673865 -0.92010759 0.27716015
vn -0.27673865 -0.92010759 -0.27716015
vn -0.03423014 -0.99882761 -0.03423014
vn -0.13248374 -0.98231954 -0.13227388
vn 0.03423014 -0.99882761 -0.03423014
vn 0.13248374 -0.98231954 -0.13227388
vn 0.27673865 -0.92010759 -0.27716015
f 1//1 2//2 3//3
f 2//2 1//1 4//4
f 2//2 5//5 6//6
f 4//4 5//5 2//2
f 7//7 5//5 4//4
f 5//5 7//7 8//8
f 8//8 9//9 5//5
f 9//9 8//8 10//10
f 10//10 11//11 9//9
f 11//11 10//10 12//12
f 12//12 13//13 11//11
f 13//13 12//12 14//14
f 14//14 15//15 13//13
f 15//15 14//14 16//16
f 15//15 17//17 18//18
f 17//17 15//15 16//16
f 18//18 19//19 20//20
f 19//19 18//18 17//17
f 20//20 21//21 22//22
f 21//21 20//20 19//19
f 23//23 24//24 25//25
f 24//24 23//23 26//26
f 25//25 27//27 28//28
f 27//27 25//25 24//24
f 28//28 29//29 30//30
f 29//29 28//28 27//27
f 30//30 31//31 32//32
f 31//31 30//30 29//29
f 32//32 33//33 34//34
f 33//33 32//32 31//31
f 33//33 35//35 34//34
f 35//35 33//33 36//36
f 37//37 35//35 36//36
f 35//35 37//37 38//38
f 39//39 38//38 37//37
f 38//38 39//39 40//40
f 41//41 40//40 39//39
f 40//40 41//41 42//42
f 43//43 42//42 41//41
f 42//42 43//43 44//44
f 45//45 44//44 43//43
f 44//44 45//45 46//46
f 47//47 46//46 45//45
f 46//46 47//47 48//48
f 49//49 48//48 47//47
f 48//48 49//49 50//50
f 51//51 50//50 49//49
f 50//50 51//51 52//52
f 53//53 52//52 51//51
f 52//52 53//53 54//54
f 55//55 54//54 53//53
f 54//54 55//55 56//56
f 57//57 56//56 55//55
f 56//56 57//57 58//58
f 59//59 58//58 57//57
f 58//58 59//59 60//60
f 61//61 60//60 59//59
f 60//60 61//61 62//62
f 63//63 62//62 61//61
f 62//62 63//63 64//64
f 65//65 64//64 63//63
f 64//64 65//65 66//66
f 66//66 67//67 68//68
f 67//67 66//66 65//65
f 67//67 69//69 68//68
f 69//69 67//67 70//70
f 70//70 71//71 69//69
f 71//71 70//70 72//72
f 71//71 73//73 74//74
f 73//73 71//71 72//72
f 73//73 75//75 74//74
f 75//75 73//73 76//76
f 1//1 75//75 76//76
f 75//75 1//1 3//3
f 22//22 77//77 78//78
f 77//77 22//22 21//21
f 34//34 30//30 32//32
f 34//34 38//38 30//30
f 38//38 34//34 35//35
f 40//40 30//30 38//38
f 40//40 28//28 30//30
f 42//42 28//28 40//40
f 44//44 28//28 42//42
f 46//46 28//28 44//44
f 46//46 25//25 28//28
f 48//48 25//25 46//46
f 48//48 23//23 25//25
f 50//50 23//23 48//48
f 52//52 23//23 50//50
f 52//52 79//79 23//23
f 54//54 79//79 52//52
f 54//54 78//78 79//79
f 56//56 78//78 54//54
f 56//56 22//22 78//78
f 58//58 22//22 56//56
f 58//58 20//20 22//22
f 60//60 20//20 58//58
f 60//60 18//18 20//20
f 62//62 18//18 60//60
f 64//64 18//18 62//62
f 64//64 15//15 18//18
f 66//66 15//15 64//64
f 66//66 13//13 15//15
f 68//68 13//13 66//66
f 68//68 11//11 13//13
f 69//69 11//11 68//68
f 69//69 9//9 11//11
f 71//71 9//9 69//69
f 71//71 5//5 9//9
f 74//74 5//5 71//71
f 74//74 6//6 5//5
f 74//74 2//2 6//6
f 75//75 2//2 74//74
f 2//2 75//75 3//3
f 79//79 26//26 23//23
f 26//26 79//79 80//80
f 29//29 39//39 37//37
f 27//27 39//39 29//29
f 27//27 41//41 39//39
f 27//27 43//43 41//41
f 27//27 45//45 43//43
f 24//24 45//45 27//27
f 24//24 47//47 45//45
f 26//26 47//47 24//24
f 26//26 49//49 47//47
f 26//26 51//51 49//49
f 80//80 51//51 26//26
f 80//80 53//53 51//51
f 77//77 53//53 80//80
f 77//77 55//55 53//53
f 21//21 55//55 77//77
f 21//21 57//57 55//55
f 19//19 57//57 21//21
f 19//19 59//59 57//57
f 17//17 59//59 19//19
f 17//17 61//61 59//59
f 17//17 63//63 61//61
f 16//16 63//63 17//17
f 16//16 65//65 63//63
f 14//14 65//65 16//16
f 14//14 67//67 65//65
f 12//12 67//67 14//14
f 12//12 70//70 67//67
f 10//10 70//70 12//12
f 10//10 72//72 70//70
f 8//8 72//72 10//10
f 8//8 73//73 72//72
f 7//7 73//73 8//8
f 4//4 73//73 7//7
f 1//1 73//73 4//4
f 73//73 1//1 76//76
f 29//29 33//33 31//31
f 37//37 33//33 29//29
f 33//33 37//37 36//36
f 78//78 80//80 79//79
f 80//80 78//78 77//77
f 81//81 82//82 83//83
f 84//84 83//83 82//82
f 85//85 86//86 87//87
f 81//81 87//87 86//86
f 83//83 87//87 81//81
f 88//88 87//87 83//83
f 89//89 85//85 90//90
f 87//87 90//90 85//85
f 91//91 89//89 92//92
f 90//90 92//92 89//89
f 93//93 91//91 94//94
f 92//92 94//94 91//91
f 95//95 93//93 96//96
f 94//94 96//96 93//93
f 95//95 96//96 97//97
f 98//98 97//97 96//96
f 97//97 98//98 99//99
f 100//100 99//99 98//98
f 99//99 100//100 101//101
f 102//102 101//101 100//100
f 103//103 104//104 105//105
f 106//106 105//105 104//104
f 105//105 106//106 107//107
f 108//108 107//107 106//106
f 107//107 108//108 109//109
f 110//110 109//109 108//108
f 109//109 110//110 111//111
f 112//112 111//111 110//110
f 111//111 112//112 113//113
f 114//114 113//113 112//112
f 115//115 113//113 116//116
f 114//114 116//116 113//113
f 117//117 118//118 116//116
f 115//115 116//116 118//118
f 119//119 120//120 117//117
f 118//118 117//117 120//120
f 121//121 122//122 119//119
f 120//120 119//119 122//122
f 123//123 124//124 121//121
f 122//122 121//121 124//124
f 125//125 126//126 123//123
f 124//124 123//123 126//126
f 127//127 128//128 125//125
f 126//126 125//125 128//128
f 129//129 130//130 127//127
f 128//128 127//127 130//130
f 131//131 132//132 129//129
f 130//130 129//129 132//132
f 133//133 134//134 131//131
f 132//132 131//131 134//134
f 135//135 136//136 133//133
f 134//134 133//133 136//136
f 137//137 138//138 135//135
f 136//136 135//135 138//138
f 139//139 140//140 137//137
f 138//138 137//137 140//140
f 141//141 142//142 139//139
f 140//140 139//139 142//142
f 143//143 144//144 141//141
f 142//142 141//141 144//144
f 145//145 146//146 143//143
f 144//144 143//143 146//146
f 146//146 145//145 147//147
f 148//148 147//147 145//145
f 149//149 147//147 150//150
f 148//148 150//150 147//147
f 151//151 149//149 152//152
f 150//150 152//152 149//149
f 151//151 152//152 153//153
f 154//154 153//153 152//152
f 155//155 153//153 156//156
f 154//154 156//156 153//153
f 84//84 82//82 156//156
f 155//155 156//156 82//82
f 101//101 102//102 157//157
f 158//158 157//157 102//102
f 84//84 156//156 83//83
f 154//154 83//83 156//156
f 88//88 83//83 154//154
f 87//87 88//88 154//154
f 152//152 87//87 154//154
f 90//90 87//87 152//152
f 150//150 90//90 152//152
f 92//92 90//90 150//150
f 148//148 92//92 150//150
f 94//94 92//92 148//148
f 145//145 94//94 148//148
f 96//96 94//94 145//145
f 143//143 96//96 145//145
f 98//98 96//96 143//143
f 141//141 98//98 143//143
f 139//139 98//98 141//141
f 100//100 98//98 139//139
f 137//137 100//100 139//139
f 102//102 100//100 137//137
f 135//135 102//102 137//137
f 158//158 102//102 135//135
f 133//133 158//158 135//135
f 159//159 158//158 133//133
f 131//131 159//159 133//133
f 104//104 159//159 131//131
f 129//129 104//104 131//131
f 127//127 104//104 129//129
f 106//106 104//104 127//127
f 125//125 106//106 127//127
f 108//108 106//106 125//125
f 123//123 108//108 125//125
f 121//121 108//108 123//123
f 119//119 108//108 121//121
f 110//110 108//108 119//119
f 117//117 110//110 119//119
f 116//116 114//114 117//117
f 110//110 117//117 114//114
f 112//112 110//110 114//114
f 160//160 159//159 103//103
f 104//104 103//103 159//159
f 115//115 118//118 113//113
f 109//109 113//113 118//118
f 111//111 113//113 109//109
f 155//155 82//82 153//153
f 81//81 153//153 82//82
f 86//86 153//153 81//81
f 85//85 153//153 86//86
f 151//151 153//153 85//85
f 89//89 151//151 85//85
f 149//149 151//151 89//89
f 91//91 149//149 89//89
f 147//147 149//149 91//91
f 93//93 147//147 91//91
f 146//146 147//147 93//93
f 95//95 146//146 93//93
f 144//144 146//146 95//95
f 97//97 144//144 95//95
f 142//142 144//144 97//97
f 140//140 142//142 97//97
f 99//99 140//140 97//97
f 138//138 140//140 99//99
f 101//101 138//138 99//99
f 136//136 138//138 101//101
f 157//157 136//136 101//101
f 134//134 136//136 157//157
f 160//160 134//134 157//157
f 132//132 134//134 160//160
f 103//103 132//132 160//160
f 130//130 132//132 103//103
f 128//128 130//130 103//103
f 105//105 128//128 103//103
f 126//126 128//128 105//105
f 107//107 126//126 105//105
f 124//124 126//126 107//107
f 122//122 124//124 107//107
f 120//120 122//122 107//107
f 109//109 120//120 107//107
f 118//118 120//120 109//109
f 157//157 158//158 160//160
f 159//159 160//160 158//158
f 161//161 162//162 163//163
f 162//162 161//161 164//164
f 165//165 161//161 163//163
f 161//161 165//165 166//166
f 167//167 161//161 166//166
f 161//161 167//167 164//164
f 167//167 162//162 164//164
f 162//162 167//167 168//168
f 162//162 165//165 163//163
f 165//165 162//162 168//168
f 167//167 165//165 168//168
f 165//165 167//167 166//166
f 169//169 170//170 171//171
f 170//170 169//169 172//172
f 173//173 169//169 171//171
f 169//169 173//173 174//174
f 175//175 169//169 174//174
f 169//169 175//175 172//172
f 175//175 170//170 172//172
f 170//170 175//175 176//176
f 170//170 173//173 171//171
f 173//173 170//170 176//176
f 175//175 173//173 176//176
f 173//173 175//175 174//174
f 177//177 178//178 179//179
f 178//178 177//177 180//180
f 177//177 181//181 180//180
f 181//181 177//177 182//182
f 178//178 181//181 183//183
f 181//181 178//178 180//180
f 183//183 179//179 178//178
f 179//179 183//183 184//184
f 177//177 184//184 182//182
f 184//184 177//177 179//179
f 181//181 184//184 183//183
f 184//184 181//181 182//182
f 185//185 186//186 187//187
f 186//186 185//185 188//188
f 189//189 188//188 185//185
f 188//188 189//189 190//190
f 190//190 186//186 188//188
f 186//186 190//190 191//191
f 192//192 193//193 194//194
f 193//193 192//192 195//195
f 187//187 189//189 185//185
f 189//189 187//187 196//196
f 187//187 197//197 198//198
f 197//197 187//187 186//186
f 196//196 190//190 189//189
f 190//190 196//196 191//191
f 191//191 197//197 186//186
f 197//197 191//191 199//199
f 200//200 201//201 202//202
f 201//201 200//200 203//203
f 195//195 204//204 193//193
f 204//204 195//195 205//205
f 193//193 206//206 194//194
f 206//206 193//193 204//204
f 194//194 207//207 192//192
f 207//207 194//194 206//206
f 208//208 195//195 192//192
f 195//195 208//208 209//209
f 198//198 196//196 187//187
f 196//196 198//198 210//210
f 198//198 211//211 212//212
f 211//211 198//198 197//197
f 213//213 214//214 215//215
f 214//214 213//213 216//216
f 210//210 191//191 196//196
f 191//191 210//210 199//199
f 217//217 218//218 219//219
f 218//218 217//217 220//220
f 202//202 221//221 200//200
f 221//221 202//202 222//222
f 200//200 223//223 203//203
f 223//223 200//200 221//221
f 223//223 201//201 203//203
f 201//201 223//223 224//224
f 199//199 211//211 197//197
f 211//211 199//199 225//225
f 202//202 226//226 227//227
f 226//226 202//202 201//201
f 195//195 228//228 205//205
f 228//228 195//195 209//209
f 204//204 207//207 206//206
f 207//207 204//204 205//205
f 192//192 229//229 208//208
f 229//229 192//192 207//207
f 212//212 209//209 208//208
f 209//209 212//212 211//211
f 215//215 230//230 213//213
f 230//230 215//215 231//231
f 230//230 216//216 213//213
f 216//216 230//230 232//232
f 232//232 214//214 216//216
f 214//214 232//232 233//233
f 212//212 210//210 198//198
f 210//210 212//212 234//234
f 235//235 214//214 236//236
f 214//214 235//235 215//215
f 237//237 217//217 219//219
f 217//217 237//237 238//238
f 238//238 220//220 217//217
f 220//220 238//238 239//239
f 234//234 199//199 210//210
f 199//199 234//234 225//225
f 220//220 240//240 218//218
f 240//240 220//220 241//241
f 237//237 218//218 242//242
f 218//218 237//237 219//219
f 227//227 222//222 202//202
f 222//222 227//227 243//243
f 221//221 224//224 223//223
f 224//224 221//221 222//222
f 224//224 226//226 201//201
f 226//226 224//224 244//244
f 227//227 211//211 225//225
f 211//211 227//227 226//226
f 209//209 245//245 228//228
f 245//245 209//209 211//211
f 205//205 229//229 207//207
f 229//229 205//205 228//228
f 208//208 246//246 212//212
f 246//246 208//208 229//229
f 235//235 231//231 215//215
f 231//231 235//235 247//247
f 230//230 233//233 232//232
f 233//233 230//230 231//231
f 233//233 236//236 214//214
f 236//236 233//233 248//248
f 212//212 236//236 234//234
f 236//236 212//212 235//235
f 242//242 238//238 237//237
f 238//238 242//242 239//239
f 239//239 241//241 220//220
f 241//241 239//239 249//249
f 241//241 234//234 240//240
f 234//234 241//241 225//225
f 242//242 240//240 250//250
f 240//240 242//242 218//218
f 225//225 243//243 227//227
f 243//243 225//225 251//251
f 243//243 224//224 222//222
f 224//224 243//243 244//244
f 244//244 211//211 226//226
f 211//211 244//244 245//245
f 228//228 246//246 229//229
f 246//246 228//228 245//245
f 212//212 247//247 235//235
f 247//247 212//212 246//246
f 247//247 233//233 231//231
f 233//233 247//247 248//248
f 248//248 234//234 236//236
f 234//234 248//248 252//252
f 250//250 239//239 242//242
f 239//239 250//250 249//249
f 249//249 225//225 241//241
f 225//225 249//249 251//251
f 250//250 234//234 252//252
f 234//234 250//250 240//240
f 243//243 245//245 244//244
f 245//245 243//243 251//251
f 253//253 254//254 255//255
f 254//254 253//253 256//256
f 257//257 246//246 245//245
f 246//246 257//257 258//258
f 246//246 248//248 247//247
f 248//248 246//246 252//252
f 252//252 249//249 250//250
f 249//249 252//252 251//251
f 245//245 259//259 257//257
f 259//259 245//245 251//251
f 255//255 260//260 253//253
f 260//260 255//255 261//261
f 253//253 262//262 256//256
f 262//262 253//253 260//260
f 262//262 254//254 256//256
f 254//254 262//262 263//263
f 255//255 258//258 257//257
f 258//258 255//255 254//254
f 264//264 246//246 258//258
f 246//246 264//264 252//252
f 251//251 264//264 259//259
f 264//264 251//251 252//252
f 257//257 261//261 255//255
f 261//261 257//257 259//259
f 260//260 263//263 262//262
f 263//263 260//260 261//261
f 263//263 258//258 254//254
f 258//258 263//263 264//264
f 261//261 264//264 263//263
f 264//264 261//261 259//259