# https://github.com/mikedh/trimesh
v -0.05982900 0.03801000 0.02277300
v -0.05982900 0.00637400 0.02277300
v -0.05152900 0.03801000 0.01912600
v -0.05152900 0.00637400 0.01912600
v -0.06415300 0.05784000 0.01722200
v -0.00784400 -0.05972600 -0.01562800
v -0.00784400 0.05784000 -0.01562800
v -0.06415300 -0.05972600 0.01722200
v 0.07874300 -0.02448600 -0.00766500
v 0.06389000 -0.02448600 -0.00616500
v 0.07810500 -0.02524200 -0.00667600
v 0.06472600 -0.02524200 -0.00532600
v 0.07874300 -0.03643100 -0.00766500
v 0.07810500 -0.03567500 -0.00667600
v 0.06472600 -0.03567500 -0.00532600
v 0.06389000 -0.03643100 -0.00616500
v 0.07864300 -0.02448600 -0.00879700
v 0.06377100 -0.02448600 -0.00729700
v 0.07864300 -0.03643100 -0.00879700
v 0.06377100 -0.03643100 -0.00729700
v 0.06108300 -0.03637200 -0.00702600
v 0.06120200 -0.03637200 -0.00589300
v 0.04623000 -0.03637200 -0.00552600
v 0.04635000 -0.03637200 -0.00439400
v 0.06054500 -0.03561500 -0.00490500
v 0.04718600 -0.03561500 -0.00355500
v 0.04623000 -0.02442600 -0.00552600
v 0.04635000 -0.02442600 -0.00439400
v 0.06120200 -0.02442600 -0.00589300
v 0.06108300 -0.02442600 -0.00702600
v 0.04718600 -0.02516300 -0.00355500
v 0.06054500 -0.02516300 -0.00490500
v 0.07870300 -0.05080600 -0.00766100
v 0.07870300 -0.03886000 -0.00766100
v 0.07806600 -0.05005000 -0.00667200
v 0.07806600 -0.03961700 -0.00667200
v 0.06385000 -0.05080600 -0.00616100
v 0.06468600 -0.05005000 -0.00532300
v 0.06468600 -0.03961700 -0.00532300
v 0.06385000 -0.03886000 -0.00616100
v 0.07860300 -0.05080600 -0.00879300
v 0.07860300 -0.03886000 -0.00879300
v 0.06375100 -0.05080600 -0.00729400
v 0.06375100 -0.03886000 -0.00729400
v 0.04374200 -0.02434600 -0.00413000
v 0.02886900 -0.02434600 -0.00263100
v 0.04308500 -0.02510300 -0.00314200
v 0.02970600 -0.02510300 -0.00179200
v 0.04374200 -0.03629200 -0.00413000
v 0.04308500 -0.03553600 -0.00314200
v 0.02970600 -0.03553600 -0.00179200
v 0.02886900 -0.03629200 -0.00263100
v 0.04362200 -0.02434600 -0.00526300
v 0.02877000 -0.02434600 -0.00376300
v 0.04362200 -0.03629200 -0.00526300
v 0.02877000 -0.03629200 -0.00376300
v 0.02630100 0.00782700 -0.00351600
v 0.02642100 0.00782700 -0.00238300
v 0.01144900 0.00782700 -0.00201600
v 0.01156800 0.00782700 -0.00088400
v 0.02576400 0.00856400 -0.00139400
v 0.01240400 0.00856400 -0.00004500
v 0.01144900 0.01975300 -0.00201600
v 0.01156800 0.01975300 -0.00088400
v 0.02642100 0.01975300 -0.00238300
v 0.02630100 0.01975300 -0.00351600
v 0.01240400 0.01901600 -0.00004500
v 0.02576400 0.01901600 -0.00139400
v 0.02624100 -0.03635200 -0.00236400
v 0.02624100 -0.02442600 -0.00236400
v 0.02558400 -0.03561500 -0.00137600
v 0.02558400 -0.02516300 -0.00137600
v 0.01136900 -0.03635200 -0.00086500
v 0.01220500 -0.03561500 -0.00002600
v 0.01220500 -0.02516300 -0.00002600
v 0.01136900 -0.02442600 -0.00086500
v 0.02612200 -0.03635200 -0.00349700
v 0.02612200 -0.02442600 -0.00349700
v 0.01126900 -0.03635200 -0.00199700
v 0.01126900 -0.02442600 -0.00199700
v 0.02612200 -0.02151900 -0.00235200
v 0.02546500 -0.02076300 -0.00136400
v 0.01126900 -0.02151900 -0.00085300
v 0.01208600 -0.02076300 -0.00001400
v 0.01126900 -0.00957400 -0.00085300
v 0.01208600 -0.01033000 -0.00001400
v 0.02546500 -0.01033000 -0.00136400
v 0.02612200 -0.00957400 -0.00235200
v 0.02600200 -0.02151900 -0.00348500
v 0.01115000 -0.02151900 -0.00198500
v 0.01115000 -0.00957400 -0.00198500
v 0.02600200 -0.00957400 -0.00348500
v 0.02614200 0.03693500 -0.00235400
v 0.02548500 0.03767100 -0.00136500
v 0.01126900 0.03693500 -0.00085400
v 0.01210600 0.03767100 -0.00001600
v 0.01126900 0.04888000 -0.00085400
v 0.01210600 0.04812400 -0.00001600
v 0.02548500 0.04812400 -0.00136500
v 0.02614200 0.04888000 -0.00235400
v 0.02602200 0.03693500 -0.00348600
v 0.01117000 0.03693500 -0.00198700
v 0.01117000 0.04888000 -0.00198700
v 0.02602200 0.04888000 -0.00348600
v 0.02622100 -0.00688600 -0.00236300
v 0.02622100 0.00504000 -0.00236300
v 0.02558400 -0.00614900 -0.00137500
v 0.02558400 0.00430300 -0.00137500
v 0.01136900 -0.00688600 -0.00086400
v 0.01220500 -0.00614900 -0.00002500
v 0.01220500 0.00430300 -0.00002500
v 0.01136900 0.00504000 -0.00086400
v 0.02612200 -0.00688600 -0.00349600
v 0.02612200 0.00504000 -0.00349600
v 0.01125000 -0.00688600 -0.00199600
v 0.01125000 0.00504000 -0.00199600
v 0.02616200 0.02242100 -0.00235700
v 0.02604200 0.02242100 -0.00348900
v 0.02616200 0.03436600 -0.00235700
v 0.02604200 0.03436600 -0.00348900
v 0.02550500 0.02317700 -0.00136800
v 0.02550500 0.03361000 -0.00136800
v 0.01119000 0.02242100 -0.00199000
v 0.01130900 0.02242100 -0.00085700
v 0.01119000 0.03436600 -0.00199000
v 0.01130900 0.03436600 -0.00085700
v 0.01214500 0.02317700 -0.00001900
v 0.01214500 0.03361000 -0.00001900
v 0.01115000 -0.05078600 -0.00198600
v 0.01126900 -0.05078600 -0.00085300
v 0.01115000 -0.03884100 -0.00198600
v 0.01126900 -0.03884100 -0.00085300
v 0.01210600 -0.05003000 -0.00001500
v 0.01210600 -0.03959700 -0.00001500
v 0.02600200 -0.03884100 -0.00348500
v 0.02612200 -0.03884100 -0.00235300
v 0.02600200 -0.05078600 -0.00348500
v 0.02612200 -0.05078600 -0.00235300
v 0.02546500 -0.03959700 -0.00136400
v 0.02546500 -0.05003000 -0.00136400
v 0.06108300 -0.03892000 -0.00702600
v 0.04623000 -0.03892000 -0.00552700
v 0.06120200 -0.03892000 -0.00589400
v 0.04635000 -0.03892000 -0.00439400
v 0.06054500 -0.03967700 -0.00490500
v 0.04718600 -0.03967700 -0.00355600
v 0.06120200 -0.05086600 -0.00589400
v 0.06108300 -0.05086600 -0.00702600
v 0.04623000 -0.05086600 -0.00552700
v 0.04635000 -0.05086600 -0.00439400
v 0.06054500 -0.05010900 -0.00490500
v 0.04718600 -0.05010900 -0.00355600
v 0.04362200 -0.05076600 -0.00411900
v 0.04350300 -0.05076600 -0.00525200
v 0.04362200 -0.03884100 -0.00411900
v 0.04350300 -0.03884100 -0.00525200
v 0.04296500 -0.05003000 -0.00313100
v 0.04296500 -0.03957700 -0.00313100
v 0.02865000 -0.05076600 -0.00375200
v 0.02877000 -0.05076600 -0.00262000
v 0.02865000 -0.03884100 -0.00375200
v 0.02877000 -0.03884100 -0.00262000
v 0.02960600 -0.05003000 -0.00178100
v 0.02960600 -0.03957700 -0.00178100
v 0.04366200 0.03699400 -0.00412400
v 0.04302500 0.03775100 -0.00313500
v 0.02881000 0.03699400 -0.00262500
v 0.02964600 0.03775100 -0.00178600
v 0.02881000 0.04894000 -0.00262500
v 0.02964600 0.04818400 -0.00178600
v 0.04302500 0.04818400 -0.00313500
v 0.04366200 0.04894000 -0.00412400
v 0.04356300 0.03699400 -0.00525600
v 0.02869000 0.03699400 -0.00375700
v 0.02869000 0.04894000 -0.00375700
v 0.04356300 0.04894000 -0.00525600
v 0.04368200 0.02244100 -0.00412400
v 0.04368200 0.03436600 -0.00412400
v 0.04302500 0.02317700 -0.00313600
v 0.04302500 0.03363000 -0.00313600
v 0.02881000 0.02244100 -0.00262500
v 0.02964600 0.02317700 -0.00178600
v 0.02964600 0.03363000 -0.00178600
v 0.02881000 0.03436600 -0.00262500
v 0.04356300 0.02244100 -0.00525700
v 0.04356300 0.03436600 -0.00525700
v 0.02871000 0.02244100 -0.00375700
v 0.02871000 0.03436600 -0.00375700
v 0.06130200 0.02248000 -0.00704800
v 0.06142100 0.02248000 -0.00591500
v 0.04644900 0.02248000 -0.00554800
v 0.04656900 0.02248000 -0.00441600
v 0.06076400 0.02323700 -0.00492700
v 0.04740500 0.02323700 -0.00357700
v 0.04644900 0.03442600 -0.00554800
v 0.04656900 0.03442600 -0.00441600
v 0.06142100 0.03442600 -0.00591500
v 0.06130200 0.03442600 -0.00704800
v 0.04740500 0.03367000 -0.00357700
v 0.06076400 0.03367000 -0.00492700
v 0.07896200 0.02234100 -0.00768500
v 0.07896200 0.03428700 -0.00768500
v 0.07830500 0.02309800 -0.00669700
v 0.07830500 0.03353000 -0.00669700
v 0.06408900 0.02234100 -0.00618600
v 0.06492500 0.02309800 -0.00534700
v 0.06492500 0.03353000 -0.00534700
v 0.06408900 0.03428700 -0.00618600
v 0.07884200 0.02234100 -0.00881800
v 0.07884200 0.03428700 -0.00881800
v 0.06399000 0.02234100 -0.00731800
v 0.06399000 0.03428700 -0.00731800
v 0.07822500 0.03727300 -0.00875500
v 0.07822500 0.04921900 -0.00875500
v 0.07832400 0.03727300 -0.00762200
v 0.07832400 0.04921900 -0.00762200
v 0.07683100 0.03803000 -0.00654800
v 0.07683100 0.04846200 -0.00654800
v 0.04658900 0.03727300 -0.00442000
v 0.04648900 0.03727300 -0.00555200
v 0.04658900 0.04921900 -0.00442000
v 0.04648900 0.04921900 -0.00555200
v 0.04828100 0.03803000 -0.00366600
v 0.04828100 0.04846200 -0.00366600
v -0.01091600 0.03353000 0.00279500
v -0.01050900 0.03353000 0.00371800
v -0.01479400 0.03353000 0.00449900
v -0.01438800 0.03353000 0.00542200
v -0.01050900 0.04193200 0.00371800
v -0.01091600 0.04193200 0.00279500
v -0.01438800 0.04193200 0.00542200
v -0.06415300 -0.05972600 0.02467200
v -0.06415300 0.05784000 0.02467200
v -0.00784400 0.05784000 -0.00006900
v -0.04241400 0.04294700 0.01512200
v -0.02551300 0.04294700 0.00769700
v -0.01672900 0.04344500 0.00383800
v -0.02551300 -0.04588800 0.00769700
v -0.01009300 0.04344500 0.00092200
v -0.01009300 0.02242100 0.00092200
v -0.00784400 -0.05972600 -0.00006900
v -0.04241400 -0.04588800 0.01512200
v -0.01672900 0.02242100 0.00383800
v -0.01092600 0.03293300 0.00128800
v -0.01037000 0.03293300 0.00255500
v -0.01589500 0.03293300 0.00347200
v -0.01533900 0.03293300 0.00473900
v -0.00672900 0.05784000 -0.01451300
v -0.00672900 0.05929300 -0.01451300
v 0.08491400 0.05784000 -0.01451300
v 0.08491400 0.05929300 -0.01451300
v 0.08491400 0.05784000 -0.01055200
v 0.08491400 0.05929300 -0.01055200
v -0.00672900 0.05929300 -0.00130300
v -0.00672900 0.05784000 -0.00130300
v -0.01617400 0.02242100 0.00510500
v -0.01533900 0.04252900 0.00473900
v -0.01617400 0.04344500 0.00510500
v -0.00953600 0.04344500 0.00218900
v -0.01037000 0.04252900 0.00255500
v -0.00953600 0.02242100 0.00218900
v -0.01533900 0.02333700 0.00473900
v -0.01037000 0.02333700 0.00255500
v -0.00668900 -0.06127800 -0.01447400
v -0.00668900 -0.05972600 -0.01447400
v 0.08487500 -0.06127800 -0.01447400
v 0.08487500 -0.05972600 -0.01447400
v -0.00668900 -0.06127800 -0.00134600
v -0.00668900 -0.05972600 -0.00134600
v 0.08487500 -0.06127800 -0.01058600
v 0.08487500 -0.05972600 -0.01058600
v -0.00885900 0.05784000 -0.00074200
v -0.00885900 0.05784000 -0.01383500
v -0.00885900 0.05929300 -0.00074200
v -0.00885900 0.05929300 -0.01383500
v -0.06312400 0.05929300 0.02309500
v -0.06312400 0.05784000 0.02309500
v -0.06312400 0.05929300 0.01781400
v -0.06312400 0.05784000 0.01781400
v -0.06332300 -0.06127800 0.01770000
v -0.06332300 -0.05972600 0.01770000
v -0.00866000 -0.06127800 -0.01418200
v -0.00866000 -0.05972600 -0.01418200
v -0.06332300 -0.06127800 0.02340000
v -0.06332300 -0.05972600 0.02340000
v -0.00866000 -0.06127800 -0.00061200
v -0.00866000 -0.05972600 -0.00061200
v 0.08602900 -0.05972600 -0.01562800
v 0.08602900 -0.05972600 -0.00954300
v 0.04629000 -0.02171800 -0.00553200
v 0.04629000 -0.00979300 -0.00553200
v 0.06114300 -0.02171800 -0.00703200
v 0.06114300 -0.00979300 -0.00703200
v 0.04656900 -0.00684600 -0.00556000
v 0.04641000 0.00768800 -0.00554400
v 0.04641000 0.01963300 -0.00554400
v 0.04656900 0.00510000 -0.00556000
v 0.06142100 -0.00684600 -0.00705900
v 0.06126200 0.01963300 -0.00704300
v 0.06126200 0.00768800 -0.00704300
v 0.06142100 0.00510000 -0.00705900
v 0.06397000 -0.02179800 -0.00731700
v 0.06393000 -0.00690600 -0.00731300
v 0.06393000 0.00502000 -0.00731300
v 0.06397000 -0.00987200 -0.00731700
v 0.07882200 -0.02179800 -0.00881700
v 0.07878200 0.00502000 -0.00881300
v 0.06401000 0.00746900 -0.00732200
v 0.06401000 0.01939500 -0.00732200
v 0.07888200 0.00746900 -0.00882100
v 0.07878200 -0.00690600 -0.00881300
v 0.07882200 -0.00987200 -0.00881700
v 0.08602900 0.05784000 -0.00954300
v 0.02859100 -0.00949400 -0.00374500
v 0.04376200 0.01981300 -0.00527600
v 0.04376200 0.00788700 -0.00527600
v 0.07888200 0.01939500 -0.00882100
v 0.02859100 -0.02142000 -0.00374500
v 0.04344300 -0.00949400 -0.00524500
v 0.02871000 -0.00676600 -0.00375800
v 0.02871000 0.00517900 -0.00375800
v 0.04356300 -0.00676600 -0.00525700
v 0.04344300 -0.02142000 -0.00524500
v 0.04356300 0.00517900 -0.00525700
v 0.02888900 0.00788700 -0.00377700
v 0.02888900 0.01981300 -0.00377700
v 0.08602900 0.05784000 -0.01562800
v -0.01589500 0.02333700 0.00347200
v -0.01092600 0.02333700 0.00128800
v 0.00832300 0.02256000 -0.00086700
v 0.00832300 0.03402800 -0.00086700
v 0.00842200 0.02256000 0.00026500
v 0.00842200 0.03402800 0.00026500
v 0.00810400 0.02327700 0.00122100
v 0.00810400 0.03331100 0.00122100
v 0.00018000 0.02256000 0.00109800
v 0.00006000 0.02256000 -0.00003400
v 0.00018000 0.03402800 0.00109800
v 0.00006000 0.03402800 -0.00003400
v 0.00067800 0.02327700 0.00197000
v 0.00067800 0.03331100 0.00197000
v 0.00834300 0.00828500 -0.00086900
v 0.00834300 0.01975300 -0.00086900
v 0.00844200 0.00828500 0.00026400
v 0.00844200 0.01975300 0.00026400
v 0.00812400 0.00900200 0.00121900
v 0.00812400 0.01903600 0.00121900
v 0.00020000 0.00828500 0.00109600
v 0.00008000 0.00828500 -0.00003600
v 0.00020000 0.01975300 0.00109600
v 0.00008000 0.01975300 -0.00003600
v 0.00069800 0.00900200 0.00196800
v 0.00069800 0.01903600 0.00196800
v 0.00830300 -0.03655100 -0.00086600
v 0.00830300 -0.02510300 -0.00086600
v 0.00842200 -0.03655100 0.00026600
v 0.00842200 -0.02510300 0.00026600
v 0.00810400 -0.03583400 0.00122100
v 0.00810400 -0.02582000 0.00122100
v 0.00018000 -0.03655100 0.00109900
v 0.00006000 -0.03655100 -0.00003400
v 0.00018000 -0.02510300 0.00109900
v 0.00006000 -0.02510300 -0.00003400
v 0.00067800 -0.03583400 0.00197100
v 0.00067800 -0.02582000 0.00197100
v 0.00830300 0.03711400 -0.00086600
v 0.00830300 0.04856200 -0.00086600
v 0.00842200 0.03711400 0.00026600
v 0.00842200 0.04856200 0.00026600
v 0.00810400 0.03783100 0.00122200
v 0.00810400 0.04784500 0.00122200
v 0.00018000 0.03711400 0.00109900
v 0.00006000 0.03711400 -0.00003300
v 0.00018000 0.04856200 0.00109900
v 0.00006000 0.04856200 -0.00003300
v 0.00067800 0.03783100 0.00197100
v 0.00067800 0.04784500 0.00197100
v 0.00820300 -0.00682600 -0.00085600
v 0.00820300 0.00464200 -0.00085600
v 0.00832300 -0.00682600 0.00027600
v 0.00832300 0.00464200 0.00027600
v 0.00800400 -0.00609000 0.00123100
v 0.00800400 0.00392500 0.00123100
v 0.00008000 -0.00682600 0.00110900
v -0.00003900 -0.00682600 -0.00002400
v 0.00008000 0.00464200 0.00110900
v -0.00003900 0.00464200 -0.00002400
v 0.00057800 -0.00609000 0.00198100
v 0.00057800 0.00392500 0.00198100
v 0.00820300 -0.05056700 -0.00180900
v 0.00820300 -0.03909900 -0.00180900
v 0.00832300 -0.05056700 -0.00067600
v 0.00832300 -0.03909900 -0.00067600
v 0.00798400 -0.04983100 0.00027900
v 0.00798400 -0.03981600 0.00027900
v 0.00006000 -0.05056700 0.00015600
v -0.00005900 -0.05056700 -0.00097600
v 0.00006000 -0.03909900 0.00015600
v -0.00005900 -0.03909900 -0.00097600
v 0.00057800 -0.04983100 0.00102800
v 0.00057800 -0.03981600 0.00102800
v 0.00828300 -0.02136000 -0.00086300
v 0.00828300 -0.00991200 -0.00086300
v 0.00840300 -0.02136000 0.00026900
v 0.00840300 -0.00991200 0.00026900
v 0.00806400 -0.02064300 0.00122500
v 0.00806400 -0.01062900 0.00122500
v 0.00014000 -0.02136000 0.00110200
v 0.00002100 -0.02136000 -0.00003000
v 0.00014000 -0.00991200 0.00110200
v 0.00002100 -0.00991200 -0.00003000
v 0.00063800 -0.02064300 0.00197400
v 0.00063800 -0.01062900 0.00197400
v -0.02849800 -0.04435500 0.00468500
v -0.02690500 -0.04435500 0.00830800
v -0.02849800 0.04143400 0.00468500
v -0.02690500 0.04143400 0.00830800
v -0.04261500 -0.04435500 0.01088700
v -0.04102300 -0.04435500 0.01451000
v -0.04261500 0.04143400 0.01088700
v -0.04102300 0.04143400 0.01451000
v -0.05442000 0.04545600 0.01607300
v -0.02075300 0.04545600 0.00128300
v -0.02075300 -0.04734200 0.00128300
v -0.05442000 -0.04734200 0.01607300
v 0.04386100 0.01981300 -0.00414400
v 0.02900900 0.01981300 -0.00264500
v 0.04322400 0.01907600 -0.00315500
v 0.02984500 0.01907600 -0.00180600
v 0.04386100 0.00788700 -0.00414400
v 0.02900900 0.00788700 -0.00264500
v 0.04322400 0.00862400 -0.00315500
v 0.02984500 0.00862400 -0.00180600
v 0.04724600 -0.02098200 -0.00356100
v 0.04641000 -0.00979300 -0.00440000
v 0.04724600 -0.01052900 -0.00356100
v 0.04641000 -0.02171800 -0.00440000
v 0.06060500 -0.01052900 -0.00491100
v 0.06126200 -0.00979300 -0.00589900
v 0.06060500 -0.02098200 -0.00491100
v 0.06126200 -0.02171800 -0.00589900
v 0.02869000 -0.00949400 -0.00261300
v 0.04290600 -0.01023100 -0.00312400
v 0.02952600 -0.01023100 -0.00177500
v 0.04356300 -0.00949400 -0.00411300
v 0.04290600 -0.02068300 -0.00312400
v 0.04356300 -0.02142000 -0.00411300
v 0.02952600 -0.02068300 -0.00177500
v 0.02869000 -0.02142000 -0.00261300
v 0.06072400 0.00844400 -0.00492200
v 0.04650900 0.00768800 -0.00441100
v 0.04734500 0.00844400 -0.00357300
v 0.06138100 0.00768800 -0.00591100
v 0.04650900 0.01963300 -0.00441100
v 0.04734500 0.01887700 -0.00357300
v 0.06072400 0.01887700 -0.00492200
v 0.06138100 0.01963300 -0.00591100
v -0.01479400 0.04193200 0.00449900
v 0.07824500 -0.00616900 -0.00669200
v 0.06404900 -0.00690600 -0.00618100
v 0.06488600 -0.00616900 -0.00534200
v 0.07890200 -0.00690600 -0.00768000
v 0.06404900 0.00502000 -0.00618100
v 0.06488600 0.00428300 -0.00534200
v 0.07824500 0.00428300 -0.00669200
v 0.07890200 0.00502000 -0.00768000
v 0.07894200 -0.00987200 -0.00768400
v 0.06408900 -0.00987200 -0.00618500
v 0.07828500 -0.01060900 -0.00669600
v 0.06492500 -0.01060900 -0.00534600
v 0.07894200 -0.02179800 -0.00768400
v 0.06408900 -0.02179800 -0.00618500
v 0.07828500 -0.02106100 -0.00669600
v 0.06492500 -0.02106100 -0.00534600
v 0.02883000 -0.00676600 -0.00262500
v 0.02883000 0.00517900 -0.00262500
v 0.04368200 -0.00676600 -0.00412500
v 0.04368200 0.00517900 -0.00412500
v 0.02966600 -0.00601000 -0.00178700
v 0.02966600 0.00442300 -0.00178700
v 0.04302500 -0.00601000 -0.00313600
v 0.04302500 0.00442300 -0.00313600
v 0.04666800 0.00510000 -0.00442700
v 0.06088400 0.00434300 -0.00493800
v 0.04750500 0.00434300 -0.00358900
v 0.06154100 0.00510000 -0.00592700
v 0.06088400 -0.00609000 -0.00493800
v 0.06154100 -0.00684600 -0.00592700
v 0.04750500 -0.00609000 -0.00358900
v 0.04666800 -0.00684600 -0.00442700
v 0.06412900 0.00746900 -0.00618900
v 0.06412900 0.01939500 -0.00618900
v 0.06496500 0.00820500 -0.00535100
v 0.06496500 0.01865800 -0.00535100
v 0.07898100 0.01939500 -0.00768900
v 0.07898100 0.00746900 -0.00768900
v 0.07834400 0.01865800 -0.00670000
v 0.07834400 0.00820500 -0.00670000
vn 0.00000000 -0.00000000 0.00000000
vn -0.00000000 -0.00000000 -0.00000000
vn -0.00000000 0.00000000 -0.00000000
vn -0.00000000 -0.00000000 -0.00000000
vn 0.00000000 -0.00000000 0.00000000
vn 1.00000000 -0.00000000 -0.00000000
vn 1.00000000 0.00000000 0.00000000
vn -0.00000000 0.00000000 -0.00000000
vn 0.00000000 0.00000000 0.00000000
vn -0.00000000 0.00000000 -0.00000000
vn -0.00000000 -0.00000000 -0.00000000
vn 0.00000000 0.00000000 0.00000000
vn -0.00000000 0.00000000 0.00000000
vn -0.00000000 0.00000000 0.00000000
vn -0.00000000 -0.00000000 0.00000000
vn -0.00000000 -0.00000000 -0.00000000
vn -0.00000000 -0.00000000 0.00000000
vn -0.00000000 -0.00000000 0.00000000
vn -0.00000000 0.00000000 -0.00000000
vn 0.15379599 -0.00396335 0.98809467
vn -0.10072115 -0.00112888 -0.99491405
vn -0.00000000 0.00000000 -0.00000000
vn 0.00000000 0.00000000 0.00000000
vn 0.00000000 -0.00000000 0.00000000
vn 0.00000000 -0.00000000 0.00000000
vn -0.00000000 0.00000000 -0.00000000
vn -0.09605565 0.00382902 -0.99536860
vn -0.00000000 -0.00000000 0.00000000
vn -0.00000000 -0.00000000 -0.00000000
vn 0.00000000 0.00000000 0.00000000
vn 0.00000000 -0.00000000 -0.00000000
vn 0.00000000 0.00000000 0.00000000
vn -0.00000000 0.00000000 0.00000000
vn 0.00000000 0.00000000 0.00000000
vn -0.00000000 -0.00000000 0.00000000
vn -0.00000000 -0.00000000 -0.00000000
vn 0.00000000 0.00000000 -0.00000000
vn -0.00000000 0.00000000 0.00000000
vn 0.00000000 0.00000000 0.00000000
vn -0.00000000 -0.00000000 -0.00000000
vn -0.00000000 -0.00000000 -0.00000000
vn 0.00000000 0.00000000 0.00000000
vn -0.00000000 0.00000000 -0.00000000
vn 0.00000000 -0.00000000 0.00000000
vn 0.00000000 -0.00000000 -0.00000000
vn 0.00000000 0.00000000 0.00000000
vn 0.00000000 0.00000000 -0.00000000
vn -0.00000000 -0.00000000 -0.00000000
vn -0.00000000 0.00000000 -0.00000000
vn 0.00000000 -0.00000000 0.00000000
vn -0.00000000 0.00000000 -0.00000000
vn 0.00000000 -0.00000000 0.00000000
vn 0.08832659 0.00412618 0.99608302
vn -0.00000000 -0.00000000 -0.00000000
vn -0.09018595 -0.00546006 -0.99590998
vn 0.00000000 0.00000000 0.00000000
vn -0.00000000 -0.00000000 -0.00000000
vn -0.00000000 -0.00000000 -0.00000000
vn 0.00000000 0.00000000 0.00000000
vn -0.00000000 0.00000000 0.00000000
vn 0.00000000 0.00000000 0.00000000
vn -0.00000000 -0.00000000 0.00000000
vn -0.00000000 0.00000000 -0.00000000
vn -0.00000000 -0.00000000 -0.00000000
vn 0.00000000 -0.00000000 0.00000000
vn -0.00000000 0.00000000 -0.00000000
vn 0.00000000 0.00000000 0.00000000
vn -0.00000000 0.00000000 0.00000000
vn 0.00000000 0.00000000 -0.00000000
vn -0.00000000 -0.00000000 0.00000000
vn 0.00000000 0.00000000 -0.00000000
vn -0.00000000 0.00000000 0.00000000
vn 0.00000000 0.00000000 0.00000000
vn 0.00000000 -0.00000000 0.00000000
vn -0.00000000 0.00000000 0.00000000
vn -0.00000000 -0.00000000 -0.00000000
vn -0.11419067 -0.00014819 -0.99345884
vn 0.11481951 0.00155897 0.99338515
vn -0.00000000 0.00000000 -0.00000000
vn 0.00000000 -0.00000000 0.00000000
vn 0.00000000 -0.00000000 0.00000000
vn 0.00000000 0.00000000 -0.00000000
vn -0.00000000 0.00000000 0.00000000
vn -0.00000000 -0.00000000 0.00000000
vn -0.00000000 -0.00000000 -0.00000000
vn 0.00000000 0.00000000 0.00000000
vn -0.00000000 -0.00000000 -0.00000000
vn -0.00000000 -0.00000000 0.00000000
vn -0.00000000 -0.00000000 0.00000000
vn 0.00000000 0.00000000 0.00000000
vn 0.00000000 0.00000000 -0.00000000
vn 0.00000000 0.00000000 -0.00000000
vn -0.00000000 -0.00000000 0.00000000
vn 0.00000000 -0.00000000 -0.00000000
vn -0.00000000 0.00000000 -0.00000000
vn -0.00000000 0.00000000 0.00000000
vn 0.00000000 0.00000000 0.00000000
vn -0.00000000 -0.00000000 -0.00000000
vn -0.00000000 -0.00000000 -0.00000000
vn 0.00000000 0.00000000 0.00000000
vn 0.00000000 -0.00000000 -0.00000000
vn -0.12432919 0.00580847 -0.99222402
vn 0.00000000 -0.00000000 0.00000000
vn 0.00000000 0.00000000 0.00000000
vn -0.00000000 -0.00000000 0.00000000
vn 0.00000000 0.00000000 0.00000000
vn -0.00000000 0.00000000 -0.00000000
vn 0.00000000 -0.00000000 -0.00000000
vn -0.00000000 0.00000000 -0.00000000
vn 0.00000000 -0.00000000 0.00000000
vn -0.00000000 0.00000000 0.00000000
vn 0.00000000 0.00000000 -0.00000000
vn 0.00000000 0.00000000 0.00000000
vn -0.00000000 -0.00000000 -0.00000000
vn 0.00000000 -0.00000000 0.00000000
vn -0.00000000 -0.00000000 -0.00000000
vn 0.00000000 0.00000000 -0.00000000
vn -0.00000000 -0.00000000 0.00000000
vn -0.00000000 -0.00000000 -0.00000000
vn 0.00000000 0.00000000 -0.00000000
vn -0.00000000 -0.00000000 0.00000000
vn -0.00000000 0.00000000 0.00000000
vn 0.13548097 0.01238307 0.99070256
vn -0.00000000 -0.00000000 0.00000000
vn 0.00000000 -0.00000000 0.00000000
vn 0.00000000 0.00000000 0.00000000
vn 0.00000000 0.00000000 -0.00000000
vn -0.00000000 -0.00000000 -0.00000000
vn -0.99999869 0.00161926 0.00000000
vn 0.00000000 0.00000000 0.00000000
vn 0.99970551 0.00118301 -0.02423842
vn -0.00000000 -0.00000000 -0.00000000
vn 0.00000000 -0.00000000 0.00000000
vn -0.00000000 0.00000000 0.00000000
vn -0.00000000 0.00000000 -0.00000000
vn 0.00000000 -0.00000000 -0.00000000
vn 0.00000000 -0.00000000 0.00000000
vn -0.00000000 -0.00000000 -0.00000000
vn -0.00000000 0.00000000 0.00000000
vn 0.00000000 0.00000000 -0.00000000
vn 0.00000000 0.00000000 0.00000000
vn 0.99999983 -0.00055812 -0.00015918
vn 0.00000000 -0.00000000 0.00000000
vn 0.00000000 0.00000000 -0.00000000
vn -0.00000000 0.00000000 -0.00000000
vn 0.00000000 0.00000000 0.00000000
vn -0.00000000 0.00000000 -0.00000000
vn 0.10483044 -0.00262576 0.99448664
vn -0.99998850 0.00042870 0.00477682
vn -0.00000000 -0.00000000 0.00000000
vn 0.00000000 -0.00000000 0.00000000
vn -0.00000000 0.00000000 0.00000000
vn -0.00000000 0.00000000 0.00000000
vn 0.00000000 -0.00000000 0.00000000
vn 0.00000000 0.00000000 0.00000000
vn -0.00000000 0.00000000 -0.00000000
vn 0.00000000 -0.00000000 0.00000000
vn -0.00000000 -0.00000000 -0.00000000
vn -0.00000000 -0.00000000 -0.00000000
vn -0.00000000 -0.00000000 -0.00000000
vn 0.00000000 -0.00000000 0.00000000
vn 0.00000000 0.00000000 0.00000000
vn -0.00000000 0.00000000 -0.00000000
vn 0.00000000 -0.00000000 -0.00000000
vn -0.00000000 0.00000000 0.00000000
vn -0.00000000 -0.00000000 0.00000000
vn 0.00000000 -0.00000000 -0.00000000
vn -0.00000000 0.00000000 0.00000000
vn 0.00000000 0.00000000 0.00000000
vn 0.00000000 -0.00000000 -0.00000000
vn 0.00000000 -0.00000000 -0.00000000
vn 0.00000000 -0.00000000 0.00000000
vn 0.00000000 -0.00000000 0.00000000
vn 0.00000000 0.00000000 0.00000000
vn -0.00000000 -0.00000000 -0.00000000
vn 0.00000000 0.00000000 0.00000000
vn -0.00000000 -0.00000000 -0.00000000
vn 0.00000000 -0.00000000 0.00000000
vn 0.00000000 -0.00000000 0.00000000
vn -0.00000000 0.00000000 -0.00000000
vn 0.00000000 0.00000000 0.00000000
vn 0.00000000 0.00000000 -0.00000000
vn 0.00000000 -0.00000000 -0.00000000
vn -0.00000000 -0.00000000 0.00000000
vn 0.00000000 -0.00000000 0.00000000
vn -0.00000000 0.00000000 -0.00000000
vn -0.03372771 0.00201028 0.99942904
vn 0.00000000 0.00000000 -0.00000000
vn 0.00000000 -0.00000000 0.00000000
vn 0.00000000 0.00000000 0.00000000
vn 0.00000000 0.00000000 0.00000000
vn -0.00000000 -0.00000000 -0.00000000
vn 0.00000000 -0.00000000 0.00000000
vn -0.00000000 0.00000000 -0.00000000
vn -0.00094254 -0.00029400 0.99999951
vn 0.00000000 0.00000000 0.00000000
vn -0.00000000 -0.00000000 0.00000000
vn 0.00000000 0.00000000 -0.00000000
vn 0.00000000 -0.00000000 -0.00000000
vn -0.00000000 0.00000000 -0.00000000
vn -0.00000000 -0.00000000 0.00000000
vn 0.00000000 -0.00000000 0.00000000
vn -0.00000000 0.00000000 -0.00000000
vn -0.00000000 -0.00000000 -0.00000000
vn 0.00000000 0.00000000 -0.00000000
vn -0.00000000 -0.00000000 0.00000000
vn 0.00000000 0.00000000 -0.00000000
vn 0.00000000 -0.00000000 -0.00000000
vn 0.00000000 -0.00000000 0.00000000
vn -0.00000000 0.00000000 0.00000000
vn -0.00000000 0.00000000 -0.00000000
vn 0.00000000 -0.00000000 0.00000000
vn -0.00000000 0.00000000 -0.00000000
vn 0.00000000 0.00000000 -0.00000000
vn 0.00000000 -0.00000000 0.00000000
vn -0.00000000 0.00000000 0.00000000
vn -0.00000000 0.00000000 -0.00000000
vn 0.00000000 -0.00000000 -0.00000000
vn 0.00000000 -0.00000000 -0.00000000
vn 0.00000000 0.00000000 0.00000000
vn -0.00000000 -0.00000000 -0.00000000
vn -0.00000000 -0.00000000 -0.00000000
vn 0.00000000 -0.00000000 0.00000000
vn 0.00000000 0.00000000 0.00000000
vn -0.40234059 0.00006642 -0.91549006
vn -0.00000000 -0.00000000 0.00000000
vn -0.09256962 -0.00031288 -0.99570617
vn 0.91535890 0.00000000 -0.40263891
vn 0.00000000 -1.00000000 -0.00000000
vn -0.38165459 -0.31651994 -0.86842092
vn 0.64715608 -0.70721645 -0.28466454
vn 0.00000000 0.00000000 0.00000000
vn -0.00000000 -0.00000000 -0.00000000
vn 1.00000000 -0.00000000 0.00000000
vn 0.18510964 0.58706761 0.78809013
vn 0.54045490 0.56603691 0.62250359
vn 0.64745362 -0.70736687 -0.28361228
vn 0.49900329 -0.68841773 0.52638079
vn 0.00000000 -1.00000000 -0.00000000
vn 0.00000000 0.00000000 0.00000000
vn 1.00000000 0.00000000 -0.00000000
vn 0.14051826 -0.70686314 0.69325256
vn 0.91597473 -0.00000000 -0.40123597
vn 0.91570890 -0.00000000 -0.40184227
vn 0.36310130 0.00000072 -0.93174967
vn -0.91570890 0.00000000 0.40184227
vn -0.93181879 -0.00024905 -0.36292380
vn -0.00000000 -0.00000000 -0.00000000
vn 0.00000000 -0.00000000 0.00000000
vn -0.00000000 0.00000000 0.00000000
vn 0.00000000 0.00000000 -0.00000000
vn 0.00000000 0.00000000 -0.00000000
vn 0.00000000 -0.00000000 0.00000000
vn -0.00000000 0.00000000 -0.00000000
vn 0.00000000 0.00000000 0.00000000
vn 0.91597473 -0.00000000 -0.40123597
vn -0.40269662 0.00035237 -0.91533344
vn 0.64790746 -0.70687141 -0.28381108
vn -0.00000000 -1.00000000 0.00000000
vn -0.40234794 -0.00000102 -0.91548683
vn 0.00000000 0.00000000 -0.00000000
vn -0.64762375 -0.70697595 0.28419795
vn 0.64738422 -0.70723754 -0.28409284
vn -0.00000000 0.00000000 -0.00000000
vn 0.00000000 -0.00000000 0.00000000
vn 0.00000000 -0.00000000 0.00000000
vn 0.00000000 0.00000000 -0.00000000
vn -0.00000000 -0.00000000 -0.00000000
vn 0.00000000 0.00000000 0.00000000
vn 0.00000000 0.00000000 0.00000000
vn -0.00000000 -0.00000000 -0.00000000
vn -0.00000000 0.00000000 -0.00000000
vn -0.00000000 -0.00000000 -0.00000000
vn 0.00000000 0.00000000 0.00000000
vn 0.00000000 -0.00000000 0.00000000
vn -0.00000000 -0.00000000 -0.00000000
vn 0.00000000 0.00000000 0.00000000
vn 0.00000000 0.00000000 -0.00000000
vn 0.00000000 0.00000000 0.00000000
vn 0.00000000 0.00000000 0.00000000
vn -0.00000000 -0.00000000 -0.00000000
vn -0.00000000 -0.00000000 -0.00000000
vn 0.00000000 0.00000000 0.00000000
vn -0.00000000 -0.00000000 -0.00000000
vn 0.00000000 -0.00000000 0.00000000
vn 0.00000000 0.00000000 0.00000000
vn -0.00000000 0.00000000 -0.00000000
vn -0.00000000 -0.00000000 0.00000000
vn -0.00000000 -0.00000000 -0.00000000
vn 0.00000000 0.00000000 0.00000000
vn 0.09705847 0.00152249 0.99527752
vn 0.00000000 0.00000000 0.00000000
vn -0.00000000 0.00000000 0.00000000
vn -0.00000000 0.00000000 -0.00000000
vn 0.00000000 -0.00000000 0.00000000
vn -0.00386912 -0.00033757 -0.99999246
vn 0.00000000 0.00000000 0.00000000
vn -0.00000000 -0.00000000 0.00000000
vn -0.10727302 -0.00875698 -0.99419104
vn 0.10825631 0.00655271 0.99410142
vn -0.00000000 0.00000000 -0.00000000
vn -0.00000000 -0.00000000 -0.00000000
vn -0.00000000 -0.00000000 -0.00000000
vn -0.11330510 0.00566525 -0.99354409
vn 0.00000000 0.00000000 0.00000000
vn 0.00000000 0.00000000 0.00000000
vn 0.00000000 -0.00000000 0.00000000
vn 0.00000000 -0.00000000 0.00000000
vn -0.00000000 0.00000000 -0.00000000
vn 0.00000000 0.00000000 0.00000000
vn 0.00000000 0.00000000 0.00000000
vn -0.07973101 -0.00279758 -0.99681249
vn -0.00000000 0.00000000 0.00000000
vn 0.00000000 -0.00000000 0.00000000
vn -0.00000000 0.00000000 -0.00000000
vn 0.00000000 -0.00000000 0.00000000
vn -0.00000000 -0.00000000 -0.00000000
vn -0.00000000 0.00000000 -0.00000000
vn 0.00000000 0.00000000 0.00000000
vn -0.99982612 0.00005590 -0.01864763
vn 0.99999964 -0.00007454 0.00084324
vn 0.00000000 -0.00000000 0.00000000
vn -0.00000000 0.00000000 -0.00000000
vn 0.00000000 0.00000000 0.00000000
vn -0.00000000 0.00000000 -0.00000000
vn 0.00000000 0.00000000 0.00000000
vn 0.00000000 -0.00000000 -0.00000000
vn -0.64738422 -0.70723754 0.28409284
vn 0.64762375 -0.70697595 -0.28419795
vn -0.00000000 -0.00000000 0.00000000
vn 0.00000000 0.00000000 -0.00000000
vn -0.00000000 0.00000000 -0.00000000
vn 0.00000000 -0.00000000 0.00000000
vn 0.00000000 0.00000000 -0.00000000
vn -0.00000000 -0.00000000 -0.00000000
vn -0.00000000 -0.00000000 -0.00000000
vn 0.00000000 0.00000000 -0.00000000
vn 0.00000000 0.00000000 -0.00000000
vn -0.00000000 -0.00000000 0.00000000
vn 0.00000000 -0.00000000 0.00000000
vn -0.00000000 0.00000000 0.00000000
vn 0.00000000 0.00000000 0.00000000
vn -0.00000000 0.00000000 -0.00000000
vn -0.00000000 -0.00000000 -0.00000000
vn 0.00000000 0.00000000 0.00000000
vn 0.00000000 -0.00000000 0.00000000
vn 0.00000000 0.00000000 0.00000000
vn -0.00000000 -0.00000000 0.00000000
vn 0.00000000 0.00000000 -0.00000000
vn 0.00000000 -0.00000000 0.00000000
vn -0.00000000 -0.00000000 0.00000000
vn 0.00000000 0.00000000 -0.00000000
vn -0.00000000 -0.00000000 -0.00000000
vn -0.00000000 -0.00000000 0.00000000
vn 0.00000000 0.00000000 -0.00000000
vn -0.00000000 -0.00000000 0.00000000
vn 0.00000000 0.00000000 0.00000000
vn 0.00000000 0.00000000 0.00000000
vn -0.00000000 -0.00000000 -0.00000000
vn -0.00000000 -0.00000000 -0.00000000
vn 0.00000000 0.00000000 -0.00000000
vn 0.00000000 -0.00000000 -0.00000000
vn -0.00000000 -0.00000000 0.00000000
vn 0.00000000 -0.00000000 0.00000000
vn 0.00000000 0.00000000 0.00000000
vn -0.00000000 -0.00000000 0.00000000
vn 0.00000000 0.00000000 -0.00000000
vn -0.00000000 -0.00000000 0.00000000
vn 0.00000000 -0.00000000 0.00000000
vn 0.00000000 0.00000000 -0.00000000
vn -0.00000000 -0.00000000 -0.00000000
vn -0.00000000 0.00000000 -0.00000000
vn 0.00000000 0.00000000 -0.00000000
vn -0.00000000 -0.00000000 -0.00000000
vn -0.00000000 -0.00000000 0.00000000
vn 0.00000000 -0.00000000 0.00000000
vn 0.00000000 0.00000000 0.00000000
vn 0.00000000 -0.00000000 -0.00000000
vn -0.00000000 0.00000000 0.00000000
vn -0.00000000 0.00000000 0.00000000
vn -0.00000000 -0.00000000 0.00000000
vn -0.00000000 0.00000000 -0.00000000
vn 0.00000000 -0.00000000 -0.00000000
vn 0.00000000 -0.00000000 -0.00000000
vn -0.00000000 0.00000000 0.00000000
vn -0.00000000 0.00000000 -0.00000000
vn 0.00000000 -0.00000000 -0.00000000
vn 0.00000000 -0.00000000 0.00000000
vn 0.00000000 0.00000000 0.00000000
vn 0.00000000 -0.00000000 -0.00000000
vn -0.00000000 0.00000000 0.00000000
vn -0.00000000 -0.00000000 0.00000000
vn 0.00000000 0.00000000 0.00000000
vn -0.00000000 0.00000000 -0.00000000
vn -0.00000000 -0.00000000 -0.00000000
vn -0.00000000 0.00000000 -0.00000000
vn 0.00000000 0.00000000 -0.00000000
vn 0.00000000 -0.00000000 -0.00000000
vn -0.00000000 -0.00000000 0.00000000
vn 0.00000000 -0.00000000 0.00000000
vn -0.00000000 0.00000000 0.00000000
vn 0.00000000 -0.00000000 -0.00000000
vn -0.00000000 0.00000000 0.00000000
vn -0.00000000 -0.00000000 0.00000000
vn 0.00000000 0.00000000 0.00000000
vn 0.00000000 0.00000000 -0.00000000
vn -0.00000000 -0.00000000 -0.00000000
vn 0.00000000 0.00000000 -0.00000000
vn -0.00000000 0.00000000 0.00000000
vn -0.00000000 0.00000000 -0.00000000
vn 0.00000000 -0.00000000 -0.00000000
vn 0.00000000 -0.00000000 0.00000000
vn 0.00000000 0.00000000 0.00000000
vn -0.40219940 -0.00010917 -0.91555209
vn -0.00000000 0.00000000 -0.00000000
vn -0.40219808 0.00007806 -0.91555267
vn 0.00000000 -0.00000000 0.00000000
vn -0.40220493 -0.00001084 -0.91554967
vn -0.00000000 -0.00000000 0.00000000
vn -0.40220515 0.00000909 -0.91554957
vn 0.00000000 0.00000000 -0.00000000
vn -0.78298771 0.58764844 0.20395970
vn 0.62741613 0.61349403 -0.47955612
vn 0.63982410 -0.58489186 -0.49852445
vn -0.79736846 -0.56777195 0.20454475
vn 0.00000000 -0.00000000 -0.00000000
vn -0.00000000 -0.00000000 -0.00000000
vn 0.00000000 0.00000000 0.00000000
vn -0.00000000 0.00000000 0.00000000
vn -0.00000000 -0.00000000 -0.00000000
vn 0.00000000 -0.00000000 0.00000000
vn 0.00000000 0.00000000 -0.00000000
vn 0.00000000 -0.00000000 0.00000000
vn -0.00000000 0.00000000 -0.00000000
vn -0.00000000 0.00000000 0.00000000
vn 0.00000000 -0.00000000 -0.00000000
vn 0.00000000 -0.00000000 0.00000000
vn -0.00000000 0.00000000 0.00000000
vn 0.00000000 -0.00000000 -0.00000000
vn 0.00000000 -0.00000000 0.00000000
vn -0.00000000 0.00000000 -0.00000000
vn 0.00000000 0.00000000 0.00000000
vn 0.00000000 0.00000000 0.00000000
vn -0.00000000 -0.00000000 -0.00000000
vn -0.00000000 -0.00000000 -0.00000000
vn 0.00000000 -0.00000000 0.00000000
vn -0.00000000 0.00000000 -0.00000000
vn 0.00000000 0.00000000 -0.00000000
vn -0.00000000 -0.00000000 -0.00000000
vn -0.00000000 -0.00000000 0.00000000
vn -0.00000000 -0.00000000 0.00000000
vn -0.00000000 0.00000000 -0.00000000
vn 0.00000000 0.00000000 -0.00000000
vn 0.00000000 0.00000000 0.00000000
vn 0.00000000 -0.00000000 -0.00000000
vn -0.00000000 0.00000000 -0.00000000
vn 0.00000000 0.00000000 0.00000000
vn -0.08827146 -0.30117670 -0.94947393
vn -0.00000000 -0.00000000 0.00000000
vn -0.00000000 0.00000000 -0.00000000
vn -0.00000000 0.00000000 -0.00000000
vn -0.00000000 -0.00000000 0.00000000
vn -0.00000000 -0.00000000 0.00000000
vn -0.00000000 -0.00000000 0.00000000
vn 0.00000000 0.00000000 0.00000000
vn -0.00000000 0.00000000 -0.00000000
vn -0.00000000 0.00000000 -0.00000000
vn -0.00000000 -0.00000000 0.00000000
vn 0.00000000 0.00000000 -0.00000000
vn 0.00000000 0.00000000 0.00000000
vn -0.00000000 -0.00000000 -0.00000000
vn 0.00000000 0.00000000 -0.00000000
vn 0.00000000 0.00000000 0.00000000
vn -0.00000000 -0.00000000 0.00000000
vn 0.00000000 -0.00000000 0.00000000
vn -0.00000000 0.00000000 0.00000000
vn 0.00000000 0.00000000 -0.00000000
vn -0.00000000 -0.00000000 0.00000000
vn -0.00000000 0.00000000 -0.00000000
vn 0.00000000 -0.00000000 -0.00000000
vn -0.00000000 -0.00000000 0.00000000
vn -0.00000000 0.00000000 0.00000000
vn -0.00000000 0.00000000 0.00000000
vn -0.00000000 0.00000000 0.00000000
vn 0.00000000 -0.00000000 -0.00000000
vn -0.00000000 -0.00000000 -0.00000000
vn 0.00000000 -0.00000000 0.00000000
vn 0.00000000 -0.00000000 -0.00000000
vn -0.00000000 0.00000000 -0.00000000
vn 0.00000000 0.00000000 -0.00000000
vn 0.00000000 -0.00000000 0.00000000
vn -0.00000000 0.00000000 0.00000000
vn -0.00000000 0.00000000 -0.00000000
vn 0.00000000 -0.00000000 -0.00000000
vn 0.00000000 0.00000000 0.00000000
vn -0.00000000 0.00000000 -0.00000000
vn 0.00000000 -0.00000000 -0.00000000
vn 0.00000000 -0.00000000 0.00000000
f 1//1 2//2 3//3
f 4//4 3//3 2//2
f 2//2 3//3 4//4
f 3//3 2//2 1//1
f 5//5 6//6 7//7
f 6//6 5//5 8//8
f 9//9 10//10 11//11
f 12//12 11//11 10//10
f 13//13 9//9 14//14
f 11//11 14//14 9//9
f 12//12 15//15 11//11
f 14//14 11//11 15//15
f 16//16 15//15 10//10
f 12//12 10//10 15//15
f 17//17 18//18 9//9
f 10//10 9//9 18//18
f 13//13 19//19 9//9
f 17//17 9//9 19//19
f 13//13 14//14 16//16
f 15//15 16//16 14//14
f 20//20 16//16 18//18
f 10//10 18//18 16//16
f 19//19 13//13 20//20
f 16//16 20//20 13//13
f 21//21 22//22 23//23
f 24//24 23//23 22//22
f 22//22 25//25 24//24
f 26//26 24//24 25//25
f 23//23 24//24 27//27
f 28//28 27//27 24//24
f 22//22 21//21 29//29
f 30//30 29//29 21//21
f 24//24 26//26 28//28
f 31//31 28//28 26//26
f 31//31 26//26 32//32
f 25//25 32//32 26//26
f 22//22 29//29 25//25
f 32//32 25//25 29//29
f 30//30 27//27 29//29
f 28//28 29//29 27//27
f 29//29 28//28 32//32
f 31//31 32//32 28//28
f 33//33 34//34 35//35
f 36//36 35//35 34//34
f 33//33 35//35 37//37
f 38//38 37//37 35//35
f 39//39 38//38 36//36
f 35//35 36//36 38//38
f 34//34 40//40 36//36
f 39//39 36//36 40//40
f 33//33 41//41 34//34
f 42//42 34//34 41//41
f 41//41 33//33 43//43
f 37//37 43//43 33//33
f 37//37 38//38 40//40
f 39//39 40//40 38//38
f 42//42 44//44 34//34
f 40//40 34//34 44//44
f 43//43 37//37 44//44
f 40//40 44//44 37//37
f 45//45 46//46 47//47
f 48//48 47//47 46//46
f 49//49 45//45 50//50
f 47//47 50//50 45//45
f 48//48 51//51 47//47
f 50//50 47//47 51//51
f 52//52 51//51 46//46
f 48//48 46//46 51//51
f 53//53 54//54 45//45
f 46//46 45//45 54//54
f 49//49 55//55 45//45
f 53//53 45//45 55//55
f 49//49 50//50 52//52
f 51//51 52//52 50//50
f 56//56 52//52 54//54
f 46//46 54//54 52//52
f 55//55 49//49 56//56
f 52//52 56//56 49//49
f 57//57 58//58 59//59
f 60//60 59//59 58//58
f 58//58 61//61 60//60
f 62//62 60//60 61//61
f 59//59 60//60 63//63
f 64//64 63//63 60//60
f 58//58 57//57 65//65
f 66//66 65//65 57//57
f 60//60 62//62 64//64
f 67//67 64//64 62//62
f 67//67 62//62 68//68
f 61//61 68//68 62//62
f 58//58 65//65 61//61
f 68//68 61//61 65//65
f 66//66 63//63 65//65
f 64//64 65//65 63//63
f 65//65 64//64 68//68
f 67//67 68//68 64//64
f 69//69 70//70 71//71
f 72//72 71//71 70//70
f 69//69 71//71 73//73
f 74//74 73//73 71//71
f 75//75 74//74 72//72
f 71//71 72//72 74//74
f 70//70 76//76 72//72
f 75//75 72//72 76//76
f 69//69 77//77 70//70
f 78//78 70//70 77//77
f 77//77 69//69 79//79
f 73//73 79//79 69//69
f 73//73 74//74 76//76
f 75//75 76//76 74//74
f 78//78 80//80 70//70
f 76//76 70//70 80//80
f 79//79 73//73 80//80
f 76//76 80//80 73//73
f 81//81 82//82 83//83
f 84//84 83//83 82//82
f 83//83 84//84 85//85
f 86//86 85//85 84//84
f 86//86 84//84 87//87
f 82//82 87//87 84//84
f 81//81 88//88 82//82
f 87//87 82//82 88//88
f 89//89 81//81 90//90
f 83//83 90//90 81//81
f 90//90 83//83 91//91
f 85//85 91//91 83//83
f 88//88 85//85 87//87
f 86//86 87//87 85//85
f 81//81 89//89 88//88
f 92//92 88//88 89//89
f 92//92 91//91 88//88
f 85//85 88//88 91//91
f 93//93 94//94 95//95
f 96//96 95//95 94//94
f 95//95 96//96 97//97
f 98//98 97//97 96//96
f 98//98 96//96 99//99
f 94//94 99//99 96//96
f 93//93 100//100 94//94
f 99//99 94//94 100//100
f 101//101 93//93 102//102
f 95//95 102//102 93//93
f 102//102 95//95 103//103
f 97//97 103//103 95//95
f 100//100 97//97 99//99
f 98//98 99//99 97//97
f 93//93 101//101 100//100
f 104//104 100//100 101//101
f 104//104 103//103 100//100
f 97//97 100//100 103//103
f 105//105 106//106 107//107
f 108//108 107//107 106//106
f 105//105 107//107 109//109
f 110//110 109//109 107//107
f 111//111 110//110 108//108
f 107//107 108//108 110//110
f 106//106 112//112 108//108
f 111//111 108//108 112//112
f 105//105 113//113 106//106
f 114//114 106//106 113//113
f 113//113 105//105 115//115
f 109//109 115//115 105//105
f 109//109 110//110 112//112
f 111//111 112//112 110//110
f 114//114 116//116 106//106
f 112//112 106//106 116//116
f 115//115 109//109 116//116
f 112//112 116//116 109//109
f 117//117 118//118 119//119
f 120//120 119//119 118//118
f 117//117 119//119 121//121
f 122//122 121//121 119//119
f 118//118 117//117 123//123
f 124//124 123//123 117//117
f 120//120 125//125 119//119
f 126//126 119//119 125//125
f 117//117 121//121 124//124
f 127//127 124//124 121//121
f 128//128 127//127 122//122
f 121//121 122//122 127//127
f 119//119 126//126 122//122
f 128//128 122//122 126//126
f 123//123 124//124 125//125
f 126//126 125//125 124//124
f 124//124 127//127 126//126
f 128//128 126//126 127//127
f 129//129 130//130 131//131
f 132//132 131//131 130//130
f 130//130 133//133 132//132
f 134//134 132//132 133//133
f 135//135 131//131 136//136
f 132//132 136//136 131//131
f 137//137 138//138 129//129
f 130//130 129//129 138//138
f 136//136 132//132 139//139
f 134//134 139//139 132//132
f 134//134 133//133 139//139
f 140//140 139//139 133//133
f 138//138 140//140 130//130
f 133//133 130//130 140//140
f 138//138 137//137 136//136
f 135//135 136//136 137//137
f 138//138 136//136 140//140
f 139//139 140//140 136//136
f 141//141 142//142 143//143
f 144//144 143//143 142//142
f 143//143 144//144 145//145
f 146//146 145//145 144//144
f 147//147 148//148 143//143
f 141//141 143//143 148//148
f 149//149 150//150 142//142
f 144//144 142//142 150//150
f 147//147 143//143 151//151
f 145//145 151//151 143//143
f 146//146 152//152 145//145
f 151//151 145//145 152//152
f 150//150 152//152 144//144
f 146//146 144//144 152//152
f 148//148 147//147 149//149
f 150//150 149//149 147//147
f 147//147 151//151 150//150
f 152//152 150//150 151//151
f 153//153 154//154 155//155
f 156//156 155//155 154//154
f 153//153 155//155 157//157
f 158//158 157//157 155//155
f 154//154 153//153 159//159
f 160//160 159//159 153//153
f 156//156 161//161 155//155
f 162//162 155//155 161//161
f 153//153 157//157 160//160
f 163//163 160//160 157//157
f 164//164 163//163 158//158
f 157//157 158//158 163//163
f 155//155 162//162 158//158
f 164//164 158//158 162//162
f 159//159 160//160 161//161
f 162//162 161//161 160//160
f 160//160 163//163 162//162
f 164//164 162//162 163//163
f 165//165 166//166 167//167
f 168//168 167//167 166//166
f 166//166 167//167 168//168
f 167//167 166//166 165//165
f 167//167 168//168 169//169
f 170//170 169//169 168//168
f 168//168 169//169 170//170
f 169//169 168//168 167//167
f 170//170 168//168 171//171
f 166//166 171//171 168//168
f 168//168 171//171 166//166
f 171//171 168//168 170//170
f 165//165 172//172 166//166
f 171//171 166//166 172//172
f 172//172 166//166 171//171
f 166//166 172//172 165//165
f 173//173 165//165 174//174
f 167//167 174//174 165//165
f 165//165 174//174 167//167
f 174//174 165//165 173//173
f 174//174 167//167 175//175
f 169//169 175//175 167//167
f 167//167 175//175 169//169
f 175//175 167//167 174//174
f 172//172 169//169 171//171
f 170//170 171//171 169//169
f 169//169 171//171 170//170
f 171//171 169//169 172//172
f 165//165 173//173 172//172
f 176//176 172//172 173//173
f 173//173 172//172 176//176
f 172//172 173//173 165//165
f 176//176 175//175 172//172
f 169//169 172//172 175//175
f 175//175 172//172 169//169
f 172//172 175//175 176//176
f 177//177 178//178 179//179
f 180//180 179//179 178//178
f 178//178 179//179 180//180
f 179//179 178//178 177//177
f 177//177 179//179 181//181
f 182//182 181//181 179//179
f 179//179 181//181 182//182
f 181//181 179//179 177//177
f 183//183 182//182 180//180
f 179//179 180//180 182//182
f 182//182 180//180 179//179
f 180//180 182//182 183//183
f 178//178 184//184 180//180
f 183//183 180//180 184//184
f 184//184 180//180 183//183
f 180//180 184//184 178//178
f 177//177 185//185 178//178
f 186//186 178//178 185//185
f 185//185 178//178 186//186
f 178//178 185//185 177//177
f 185//185 177//177 187//187
f 181//181 187//187 177//177
f 177//177 187//187 181//181
f 187//187 177//177 185//185
f 181//181 182//182 184//184
f 183//183 184//184 182//182
f 182//182 184//184 183//183
f 184//184 182//182 181//181
f 186//186 188//188 178//178
f 184//184 178//178 188//188
f 188//188 178//178 184//184
f 178//178 188//188 186//186
f 187//187 181//181 188//188
f 184//184 188//188 181//181
f 181//181 188//188 184//184
f 188//188 181//181 187//187
f 189//189 190//190 191//191
f 192//192 191//191 190//190
f 190//190 191//191 192//192
f 191//191 190//190 189//189
f 190//190 193//193 192//192
f 194//194 192//192 193//193
f 193//193 192//192 194//194
f 192//192 193//193 190//190
f 191//191 192//192 195//195
f 196//196 195//195 192//192
f 192//192 195//195 196//196
f 195//195 192//192 191//191
f 190//190 189//189 197//197
f 198//198 197//197 189//189
f 189//189 197//197 198//198
f 197//197 189//189 190//190
f 192//192 194//194 196//196
f 199//199 196//196 194//194
f 194//194 196//196 199//199
f 196//196 194//194 192//192
f 199//199 194//194 200//200
f 193//193 200//200 194//194
f 194//194 200//200 193//193
f 200//200 194//194 199//199
f 190//190 197//197 193//193
f 200//200 193//193 197//197
f 197//197 193//193 200//200
f 193//193 197//197 190//190
f 198//198 195//195 197//197
f 196//196 197//197 195//195
f 195//195 197//197 196//196
f 197//197 195//195 198//198
f 197//197 196//196 200//200
f 199//199 200//200 196//196
f 196//196 200//200 199//199
f 200//200 196//196 197//197
f 201//201 202//202 203//203
f 204//204 203//203 202//202
f 202//202 203//203 204//204
f 203//203 202//202 201//201
f 201//201 203//203 205//205
f 206//206 205//205 203//203
f 203//203 205//205 206//206
f 205//205 203//203 201//201
f 207//207 206//206 204//204
f 203//203 204//204 206//206
f 206//206 204//204 203//203
f 204//204 206//206 207//207
f 202//202 208//208 204//204
f 207//207 204//204 208//208
f 208//208 204//204 207//207
f 204//204 208//208 202//202
f 201//201 209//209 202//202
f 210//210 202//202 209//209
f 209//209 202//202 210//210
f 202//202 209//209 201//201
f 209//209 201//201 211//211
f 205//205 211//211 201//201
f 201//201 211//211 205//205
f 211//211 201//201 209//209
f 205//205 206//206 208//208
f 207//207 208//208 206//206
f 206//206 208//208 207//207
f 208//208 206//206 205//205
f 210//210 212//212 202//202
f 208//208 202//202 212//212
f 212//212 202//202 208//208
f 202//202 212//212 210//210
f 211//211 205//205 212//212
f 208//208 212//212 205//205
f 205//205 212//212 208//208
f 212//212 205//205 211//211
f 213//213 214//214 215//215
f 216//216 215//215 214//214
f 214//214 215//215 216//216
f 215//215 214//214 213//213
f 215//215 216//216 217//217
f 218//218 217//217 216//216
f 216//216 217//217 218//218
f 217//217 216//216 215//215
f 215//215 219//219 213//213
f 220//220 213//213 219//219
f 219//219 213//213 220//220
f 213//213 219//219 215//215
f 216//216 214//214 221//221
f 222//222 221//221 214//214
f 214//214 221//221 222//222
f 221//221 214//214 216//216
f 215//215 217//217 219//219
f 223//223 219//219 217//217
f 217//217 219//219 223//223
f 219//219 217//217 215//215
f 223//223 217//217 224//224
f 218//218 224//224 217//217
f 217//217 224//224 218//218
f 224//224 217//217 223//223
f 216//216 221//221 218//218
f 224//224 218//218 221//221
f 221//221 218//218 224//224
f 218//218 221//221 216//216
f 222//222 220//220 221//221
f 219//219 221//221 220//220
f 220//220 221//221 219//219
f 221//221 220//220 222//222
f 221//221 219//219 224//224
f 223//223 224//224 219//219
f 219//219 224//224 223//223
f 224//224 219//219 221//221
f 225//225 226//226 227//227
f 228//228 227//227 226//226
f 226//226 225//225 229//229
f 230//230 229//229 225//225
f 231//231 228//228 229//229
f 226//226 229//229 228//228
f 232//232 1//1 233//233
f 234//234 233//233 1//1
f 235//235 234//234 1//1
f 3//3 235//235 1//1
f 4//4 235//235 3//3
f 236//236 234//234 235//235
f 237//237 234//234 236//236
f 238//238 237//237 236//236
f 239//239 234//234 237//237
f 240//240 234//234 239//239
f 241//241 242//242 232//232
f 2//2 232//232 242//242
f 1//1 232//232 2//2
f 4//4 2//2 242//242
f 235//235 4//4 242//242
f 238//238 242//242 241//241
f 243//243 238//238 241//241
f 237//237 238//238 243//243
f 240//240 243//243 241//241
f 234//234 240//240 241//241
f 244//244 245//245 246//246
f 247//247 246//246 245//245
f 248//248 249//249 250//250
f 251//251 250//250 249//249
f 252//252 250//250 253//253
f 251//251 253//253 250//250
f 251//251 249//249 253//253
f 254//254 253//253 249//249
f 248//248 255//255 249//249
f 254//254 249//249 255//255
f 254//254 255//255 253//253
f 252//252 253//253 255//255
f 256//256 257//257 258//258
f 259//259 258//258 257//257
f 260//260 259//259 257//257
f 245//245 259//259 260//260
f 261//261 262//262 256//256
f 257//257 256//256 262//262
f 247//247 257//257 262//262
f 263//263 262//262 261//261
f 245//245 263//263 261//261
f 259//259 245//245 261//261
f 240//240 261//261 243//243
f 256//256 243//243 261//261
f 261//261 240//240 259//259
f 239//239 259//259 240//240
f 264//264 265//265 266//266
f 267//267 266//266 265//265
f 264//264 268//268 265//265
f 269//269 265//265 268//268
f 264//264 266//266 268//268
f 270//270 268//268 266//266
f 270//270 266//266 271//271
f 267//267 271//271 266//266
f 269//269 268//268 271//271
f 270//270 271//271 268//268
f 272//272 273//273 274//274
f 275//275 274//274 273//273
f 276//276 277//277 274//274
f 272//272 274//274 277//277
f 275//275 278//278 274//274
f 276//276 274//274 278//278
f 279//279 278//278 273//273
f 275//275 273//273 278//278
f 279//279 277//277 278//278
f 276//276 278//278 277//277
f 280//280 281//281 282//282
f 283//283 282//282 281//281
f 280//280 284//284 281//281
f 285//285 281//281 284//284
f 282//282 286//286 280//280
f 284//284 280//280 286//286
f 286//286 282//282 287//287
f 283//283 287//287 282//282
f 285//285 284//284 287//287
f 286//286 287//287 284//284
f 288//288 265//265 6//6
f 241//241 6//6 265//265
f 269//269 241//241 265//265
f 289//289 267//267 288//288
f 265//265 288//288 267//267
f 271//271 267//267 289//289
f 269//269 271//271 289//289
f 241//241 269//269 289//289
f 6//6 283//283 8//8
f 281//281 8//8 283//283
f 232//232 8//8 281//281
f 285//285 232//232 281//281
f 6//6 241//241 283//283
f 287//287 283//283 241//241
f 285//285 287//287 241//241
f 232//232 285//285 241//241
f 30//30 290//290 27//27
f 291//291 27//27 290//290
f 292//292 290//290 30//30
f 21//21 292//292 30//30
f 141//141 292//292 21//21
f 148//148 292//292 141//141
f 293//293 294//294 291//291
f 295//295 291//291 294//294
f 296//296 291//291 295//295
f 297//297 295//295 294//294
f 298//298 294//294 293//293
f 292//292 298//298 293//293
f 299//299 191//191 296//296
f 195//195 296//296 191//191
f 189//189 191//191 299//299
f 300//300 189//189 299//299
f 295//295 297//297 300//300
f 301//301 300//300 297//297
f 189//189 300//300 301//301
f 23//23 142//142 21//21
f 141//141 21//21 142//142
f 92//92 115//115 91//91
f 123//123 91//91 115//115
f 102//102 91//91 123//123
f 103//103 91//91 102//102
f 125//125 102//102 123//123
f 116//116 123//123 115//115
f 113//113 115//115 92//92
f 89//89 113//113 92//92
f 135//135 79//79 131//131
f 80//80 131//131 79//79
f 77//77 79//79 135//135
f 137//137 77//77 135//135
f 114//114 59//59 116//116
f 63//63 116//116 59//59
f 57//57 59//59 114//114
f 113//113 57//57 114//114
f 78//78 57//57 113//113
f 77//77 57//57 78//78
f 131//131 80//80 90//90
f 89//89 90//90 80//80
f 78//78 89//89 80//80
f 113//113 89//89 78//78
f 116//116 63//63 123//123
f 118//118 123//123 63//63
f 66//66 118//118 63//63
f 102//102 125//125 101//101
f 120//120 101//101 125//125
f 42//42 20//20 44//44
f 18//18 44//44 20//20
f 19//19 20//20 42//42
f 41//41 19//19 42//42
f 17//17 302//302 18//18
f 303//303 18//18 302//302
f 304//304 18//18 303//303
f 305//305 303//303 302//302
f 306//306 302//302 17//17
f 19//19 306//306 17//17
f 307//307 308//308 304//304
f 211//211 304//304 308//308
f 212//212 304//304 211//211
f 309//309 211//211 308//308
f 310//310 308//308 307//307
f 311//311 310//310 307//307
f 312//312 310//310 311//311
f 306//306 310//310 312//312
f 241//241 103//103 234//234
f 313//313 234//234 103//103
f 91//91 103//103 241//241
f 104//104 313//313 103//103
f 175//175 313//313 104//104
f 101//101 175//175 104//104
f 120//120 175//175 101//101
f 118//118 175//175 120//120
f 66//66 175//175 118//118
f 57//57 175//175 66//66
f 314//314 175//175 57//57
f 176//176 313//313 175//175
f 222//222 313//313 176//176
f 173//173 222//222 176//176
f 186//186 222//222 173//173
f 185//185 222//222 186//186
f 315//315 222//222 185//185
f 316//316 222//222 315//315
f 27//27 222//222 316//316
f 291//291 222//222 27//27
f 296//296 222//222 291//291
f 195//195 222//222 296//296
f 214//214 313//313 222//222
f 213//213 313//313 214//214
f 210//210 313//313 213//213
f 209//209 313//313 210//210
f 317//317 313//313 209//209
f 310//310 313//313 317//317
f 289//289 129//129 241//241
f 90//90 241//241 129//129
f 91//91 241//241 90//90
f 131//131 90//90 129//129
f 137//137 129//129 289//289
f 159//159 137//137 289//289
f 77//77 137//137 159//159
f 57//57 77//77 159//159
f 318//318 57//57 159//159
f 314//314 57//57 318//318
f 161//161 318//318 159//159
f 154//154 159//159 289//289
f 149//149 154//154 289//289
f 55//55 154//154 149//149
f 316//316 55//55 149//149
f 23//23 316//316 149//149
f 27//27 316//316 23//23
f 142//142 23//23 149//149
f 148//148 149//149 289//289
f 43//43 148//148 289//289
f 292//292 148//148 43//43
f 298//298 292//292 43//43
f 44//44 298//298 43//43
f 41//41 43//43 289//289
f 19//19 41//41 289//289
f 306//306 19//19 289//289
f 310//310 306//306 289//289
f 313//313 310//310 289//289
f 211//211 309//309 209//209
f 317//317 209//209 309//309
f 303//303 305//305 311//311
f 312//312 311//311 305//305
f 198//198 220//220 195//195
f 222//222 195//195 220//220
f 213//213 220//220 198//198
f 212//212 213//213 198//198
f 189//189 212//212 198//198
f 301//301 212//212 189//189
f 298//298 212//212 301//301
f 18//18 212//212 298//298
f 44//44 18//18 298//298
f 304//304 212//212 18//18
f 210//210 213//213 212//212
f 319//319 320//320 314//314
f 174//174 314//314 320//320
f 175//175 314//314 174//174
f 187//187 174//174 320//320
f 188//188 174//174 187//187
f 321//321 187//187 320//320
f 322//322 320//320 319//319
f 323//323 322//322 319//319
f 156//156 56//56 161//161
f 54//54 161//161 56//56
f 55//55 56//56 156//156
f 154//154 55//55 156//156
f 324//324 325//325 321//321
f 326//326 321//321 325//325
f 316//316 325//325 324//324
f 322//322 316//316 324//324
f 53//53 316//316 322//322
f 55//55 316//316 53//53
f 161//161 54//54 318//318
f 323//323 318//318 54//54
f 53//53 323//323 54//54
f 322//322 323//323 53//53
f 321//321 326//326 187//187
f 185//185 187//187 326//326
f 315//315 185//185 326//326
f 174//174 188//188 173//173
f 186//186 173//173 188//188
f 289//289 288//288 313//313
f 327//327 313//313 288//288
f 6//6 7//7 288//288
f 327//327 288//288 7//7
f 8//8 232//232 5//5
f 233//233 5//5 232//232
f 7//7 250//250 327//327
f 313//313 327//327 250//250
f 252//252 313//313 250//250
f 255//255 313//313 252//252
f 234//234 313//313 255//255
f 234//234 248//248 7//7
f 250//250 7//7 248//248
f 255//255 248//248 234//234
f 7//7 273//273 234//234
f 272//272 234//234 273//273
f 277//277 234//234 272//272
f 233//233 234//234 277//277
f 7//7 5//5 273//273
f 279//279 273//273 5//5
f 233//233 279//279 5//5
f 277//277 279//279 233//233
f 246//246 328//328 244//244
f 329//329 244//244 328//328
f 8//8 5//5 6//6
f 7//7 6//6 5//5
f 58//58 59//59 60//60
f 59//59 58//58 57//57
f 61//61 60//60 62//62
f 60//60 61//61 58//58
f 60//60 63//63 64//64
f 63//63 60//60 59//59
f 57//57 65//65 66//66
f 65//65 57//57 58//58
f 62//62 64//64 67//67
f 64//64 62//62 60//60
f 62//62 68//68 61//61
f 68//68 62//62 67//67
f 65//65 61//61 68//68
f 61//61 65//65 58//58
f 63//63 65//65 64//64
f 65//65 63//63 66//66
f 64//64 68//68 67//67
f 68//68 64//64 65//65
f 70//70 71//71 72//72
f 71//71 70//70 69//69
f 71//71 73//73 74//74
f 73//73 71//71 69//69
f 74//74 72//72 71//71
f 72//72 74//74 75//75
f 76//76 72//72 75//75
f 72//72 76//76 70//70
f 77//77 70//70 78//78
f 70//70 77//77 69//69
f 69//69 79//79 73//73
f 79//79 69//69 77//77
f 74//74 76//76 75//75
f 76//76 74//74 73//73
f 80//80 70//70 76//76
f 70//70 80//80 78//78
f 73//73 80//80 76//76
f 80//80 73//73 79//79
f 82//82 83//83 84//84
f 83//83 82//82 81//81
f 84//84 85//85 86//86
f 85//85 84//84 83//83
f 84//84 87//87 82//82
f 87//87 84//84 86//86
f 88//88 82//82 87//87
f 82//82 88//88 81//81
f 81//81 90//90 83//83
f 90//90 81//81 89//89
f 83//83 91//91 85//85
f 91//91 83//83 90//90
f 85//85 87//87 86//86
f 87//87 85//85 88//88
f 89//89 88//88 92//92
f 88//88 89//89 81//81
f 91//91 88//88 85//85
f 88//88 91//91 92//92
f 94//94 95//95 96//96
f 95//95 94//94 93//93
f 96//96 97//97 98//98
f 97//97 96//96 95//95
f 96//96 99//99 94//94
f 99//99 96//96 98//98
f 100//100 94//94 99//99
f 94//94 100//100 93//93
f 93//93 102//102 95//95
f 102//102 93//93 101//101
f 95//95 103//103 97//97
f 103//103 95//95 102//102
f 97//97 99//99 98//98
f 99//99 97//97 100//100
f 101//101 100//100 104//104
f 100//100 101//101 93//93
f 103//103 100//100 97//97
f 100//100 103//103 104//104
f 106//106 107//107 108//108
f 107//107 106//106 105//105
f 107//107 109//109 110//110
f 109//109 107//107 105//105
f 110//110 108//108 107//107
f 108//108 110//110 111//111
f 112//112 108//108 111//111
f 108//108 112//112 106//106
f 113//113 106//106 114//114
f 106//106 113//113 105//105
f 105//105 115//115 109//109
f 115//115 105//105 113//113
f 110//110 112//112 111//111
f 112//112 110//110 109//109
f 116//116 106//106 112//112
f 106//106 116//116 114//114
f 109//109 116//116 112//112
f 116//116 109//109 115//115
f 118//118 119//119 120//120
f 119//119 118//118 117//117
f 119//119 121//121 122//122
f 121//121 119//119 117//117
f 117//117 123//123 124//124
f 123//123 117//117 118//118
f 125//125 119//119 126//126
f 119//119 125//125 120//120
f 121//121 124//124 127//127
f 124//124 121//121 117//117
f 127//127 122//122 121//121
f 122//122 127//127 128//128
f 126//126 122//122 128//128
f 122//122 126//126 119//119
f 124//124 125//125 126//126
f 125//125 124//124 123//123
f 127//127 126//126 128//128
f 126//126 127//127 124//124
f 130//130 131//131 132//132
f 131//131 130//130 129//129
f 133//133 132//132 134//134
f 132//132 133//133 130//130
f 131//131 136//136 132//132
f 136//136 131//131 135//135
f 138//138 129//129 130//130
f 129//129 138//138 137//137
f 132//132 139//139 134//134
f 139//139 132//132 136//136
f 133//133 139//139 140//140
f 139//139 133//133 134//134
f 140//140 130//130 133//133
f 130//130 140//140 138//138
f 137//137 136//136 135//135
f 136//136 137//137 138//138
f 136//136 140//140 139//139
f 140//140 136//136 138//138
f 330//330 331//331 332//332
f 333//333 332//332 331//331
f 331//331 332//332 333//333
f 332//332 331//331 330//330
f 332//332 333//333 334//334
f 335//335 334//334 333//333
f 333//333 334//334 335//335
f 334//334 333//333 332//332
f 332//332 336//336 330//330
f 337//337 330//330 336//336
f 336//336 330//330 337//337
f 330//330 336//336 332//332
f 333//333 331//331 338//338
f 339//339 338//338 331//331
f 331//331 338//338 339//339
f 338//338 331//331 333//333
f 332//332 334//334 336//336
f 340//340 336//336 334//334
f 334//334 336//336 340//340
f 336//336 334//334 332//332
f 340//340 334//334 341//341
f 335//335 341//341 334//334
f 334//334 341//341 335//335
f 341//341 334//334 340//340
f 333//333 338//338 335//335
f 341//341 335//335 338//338
f 338//338 335//335 341//341
f 335//335 338//338 333//333
f 339//339 337//337 338//338
f 336//336 338//338 337//337
f 337//337 338//338 336//336
f 338//338 337//337 339//339
f 338//338 336//336 341//341
f 340//340 341//341 336//336
f 336//336 341//341 340//340
f 341//341 336//336 338//338
f 342//342 343//343 344//344
f 345//345 344//344 343//343
f 343//343 344//344 345//345
f 344//344 343//343 342//342
f 344//344 345//345 346//346
f 347//347 346//346 345//345
f 345//345 346//346 347//347
f 346//346 345//345 344//344
f 344//344 348//348 342//342
f 349//349 342//342 348//348
f 348//348 342//342 349//349
f 342//342 348//348 344//344
f 345//345 343//343 350//350
f 351//351 350//350 343//343
f 343//343 350//350 351//351
f 350//350 343//343 345//345
f 344//344 346//346 348//348
f 352//352 348//348 346//346
f 346//346 348//348 352//352
f 348//348 346//346 344//344
f 352//352 346//346 353//353
f 347//347 353//353 346//346
f 346//346 353//353 347//347
f 353//353 346//346 352//352
f 345//345 350//350 347//347
f 353//353 347//347 350//350
f 350//350 347//347 353//353
f 347//347 350//350 345//345
f 351//351 349//349 350//350
f 348//348 350//350 349//349
f 349//349 350//350 348//348
f 350//350 349//349 351//351
f 350//350 348//348 353//353
f 352//352 353//353 348//348
f 348//348 353//353 352//352
f 353//353 348//348 350//350
f 354//354 355//355 356//356
f 357//357 356//356 355//355
f 355//355 356//356 357//357
f 356//356 355//355 354//354
f 356//356 357//357 358//358
f 359//359 358//358 357//357
f 357//357 358//358 359//359
f 358//358 357//357 356//356
f 356//356 360//360 354//354
f 361//361 354//354 360//360
f 360//360 354//354 361//361
f 354//354 360//360 356//356
f 357//357 355//355 362//362
f 363//363 362//362 355//355
f 355//355 362//362 363//363
f 362//362 355//355 357//357
f 356//356 358//358 360//360
f 364//364 360//360 358//358
f 358//358 360//360 364//364
f 360//360 358//358 356//356
f 364//364 358//358 365//365
f 359//359 365//365 358//358
f 358//358 365//365 359//359
f 365//365 358//358 364//364
f 357//357 362//362 359//359
f 365//365 359//359 362//362
f 362//362 359//359 365//365
f 359//359 362//362 357//357
f 363//363 361//361 362//362
f 360//360 362//362 361//361
f 361//361 362//362 360//360
f 362//362 361//361 363//363
f 362//362 360//360 365//365
f 364//364 365//365 360//360
f 360//360 365//365 364//364
f 365//365 360//360 362//362
f 366//366 367//367 368//368
f 369//369 368//368 367//367
f 367//367 368//368 369//369
f 368//368 367//367 366//366
f 368//368 369//369 370//370
f 371//371 370//370 369//369
f 369//369 370//370 371//371
f 370//370 369//369 368//368
f 368//368 372//372 366//366
f 373//373 366//366 372//372
f 372//372 366//366 373//373
f 366//366 372//372 368//368
f 369//369 367//367 374//374
f 375//375 374//374 367//367
f 367//367 374//374 375//375
f 374//374 367//367 369//369
f 368//368 370//370 372//372
f 376//376 372//372 370//370
f 370//370 372//372 376//376
f 372//372 370//370 368//368
f 376//376 370//370 377//377
f 371//371 377//377 370//370
f 370//370 377//377 371//371
f 377//377 370//370 376//376
f 369//369 374//374 371//371
f 377//377 371//371 374//374
f 374//374 371//371 377//377
f 371//371 374//374 369//369
f 375//375 373//373 374//374
f 372//372 374//374 373//373
f 373//373 374//374 372//372
f 374//374 373//373 375//375
f 374//374 372//372 377//377
f 376//376 377//377 372//372
f 372//372 377//377 376//376
f 377//377 372//372 374//374
f 378//378 379//379 380//380
f 381//381 380//380 379//379
f 379//379 380//380 381//381
f 380//380 379//379 378//378
f 380//380 381//381 382//382
f 383//383 382//382 381//381
f 381//381 382//382 383//383
f 382//382 381//381 380//380
f 380//380 384//384 378//378
f 385//385 378//378 384//384
f 384//384 378//378 385//385
f 378//378 384//384 380//380
f 381//381 379//379 386//386
f 387//387 386//386 379//379
f 379//379 386//386 387//387
f 386//386 379//379 381//381
f 380//380 382//382 384//384
f 388//388 384//384 382//382
f 382//382 384//384 388//388
f 384//384 382//382 380//380
f 388//388 382//382 389//389
f 383//383 389//389 382//382
f 382//382 389//389 383//383
f 389//389 382//382 388//388
f 381//381 386//386 383//383
f 389//389 383//383 386//386
f 386//386 383//383 389//389
f 383//383 386//386 381//381
f 387//387 385//385 386//386
f 384//384 386//386 385//385
f 385//385 386//386 384//384
f 386//386 385//385 387//387
f 386//386 384//384 389//389
f 388//388 389//389 384//384
f 384//384 389//389 388//388
f 389//389 384//384 386//386
f 390//390 391//391 392//392
f 393//393 392//392 391//391
f 391//391 392//392 393//393
f 392//392 391//391 390//390
f 392//392 393//393 394//394
f 395//395 394//394 393//393
f 393//393 394//394 395//395
f 394//394 393//393 392//392
f 392//392 396//396 390//390
f 397//397 390//390 396//396
f 396//396 390//390 397//397
f 390//390 396//396 392//392
f 393//393 391//391 398//398
f 399//399 398//398 391//391
f 391//391 398//398 399//399
f 398//398 391//391 393//393
f 392//392 394//394 396//396
f 400//400 396//396 394//394
f 394//394 396//396 400//400
f 396//396 394//394 392//392
f 400//400 394//394 401//401
f 395//395 401//401 394//394
f 394//394 401//401 395//395
f 401//401 394//394 400//400
f 393//393 398//398 395//395
f 401//401 395//395 398//398
f 398//398 395//395 401//401
f 395//395 398//398 393//393
f 399//399 397//397 398//398
f 396//396 398//398 397//397
f 397//397 398//398 396//396
f 398//398 397//397 399//399
f 398//398 396//396 401//401
f 400//400 401//401 396//396
f 396//396 401//401 400//400
f 401//401 396//396 398//398
f 402//402 403//403 404//404
f 405//405 404//404 403//403
f 403//403 404//404 405//405
f 404//404 403//403 402//402
f 404//404 405//405 406//406
f 407//407 406//406 405//405
f 405//405 406//406 407//407
f 406//406 405//405 404//404
f 404//404 408//408 402//402
f 409//409 402//402 408//408
f 408//408 402//402 409//409
f 402//402 408//408 404//404
f 405//405 403//403 410//410
f 411//411 410//410 403//403
f 403//403 410//410 411//411
f 410//410 403//403 405//405
f 404//404 406//406 408//408
f 412//412 408//408 406//406
f 406//406 408//408 412//412
f 408//408 406//406 404//404
f 412//412 406//406 413//413
f 407//407 413//413 406//406
f 406//406 413//413 407//407
f 413//413 406//406 412//412
f 405//405 410//410 407//407
f 413//413 407//407 410//410
f 410//410 407//407 413//413
f 407//407 410//410 405//405
f 411//411 409//409 410//410
f 408//408 410//410 409//409
f 409//409 410//410 408//408
f 410//410 409//409 411//411
f 410//410 408//408 413//413
f 412//412 413//413 408//408
f 408//408 413//413 412//412
f 413//413 408//408 410//410
f 414//414 415//415 416//416
f 417//417 416//416 415//415
f 415//415 416//416 417//417
f 416//416 415//415 414//414
f 414//414 418//418 415//415
f 419//419 415//415 418//418
f 418//418 415//415 419//419
f 415//415 418//418 414//414
f 416//416 417//417 420//420
f 421//421 420//420 417//417
f 417//417 420//420 421//421
f 420//420 417//417 416//416
f 419//419 418//418 421//421
f 420//420 421//421 418//418
f 418//418 421//421 420//420
f 421//421 418//418 419//419
f 242//242 421//421 235//235
f 236//236 235//235 421//421
f 417//417 236//236 421//421
f 415//415 236//236 417//417
f 238//238 419//419 242//242
f 421//421 242//242 419//419
f 415//415 419//419 238//238
f 236//236 415//415 238//238
f 238//238 415//415 236//236
f 238//238 419//419 415//415
f 419//419 242//242 421//421
f 242//242 419//419 238//238
f 417//417 236//236 415//415
f 421//421 236//236 417//417
f 421//421 235//235 236//236
f 235//235 421//421 242//242
f 249//249 250//250 251//251
f 250//250 249//249 248//248
f 250//250 253//253 251//251
f 253//253 250//250 252//252
f 249//249 253//253 254//254
f 253//253 249//249 251//251
f 255//255 249//249 254//254
f 249//249 255//255 248//248
f 255//255 253//253 252//252
f 253//253 255//255 254//254
f 261//261 245//245 259//259
f 261//261 263//263 245//245
f 261//261 262//262 263//263
f 262//262 257//257 247//247
f 262//262 256//256 257//257
f 256//256 262//262 261//261
f 260//260 259//259 245//245
f 257//257 259//259 260//260
f 257//257 258//258 259//259
f 258//258 257//257 256//256
f 261//261 243//243 256//256
f 243//243 261//261 240//240
f 240//240 259//259 239//239
f 259//259 240//240 261//261
f 236//236 422//422 235//235
f 422//422 236//236 423//423
f 424//424 414//414 423//423
f 424//424 418//418 414//414
f 418//418 425//425 420//420
f 425//425 418//418 424//424
f 416//416 423//423 414//414
f 420//420 423//423 416//416
f 420//420 422//422 423//423
f 422//422 420//420 425//425
f 422//422 242//242 235//235
f 242//242 422//422 425//425
f 238//238 423//423 236//236
f 423//423 238//238 424//424
f 425//425 238//238 242//242
f 238//238 425//425 424//424
f 326//326 426//426 427//427
f 426//426 326//326 315//315
f 427//427 428//428 429//429
f 428//428 427//427 426//426
f 316//316 426//426 315//315
f 426//426 316//316 430//430
f 431//431 326//326 427//427
f 326//326 431//431 325//325
f 426//426 432//432 428//428
f 432//432 426//426 430//430
f 433//433 428//428 432//432
f 428//428 433//433 429//429
f 433//433 427//427 429//429
f 427//427 433//433 431//431
f 430//430 325//325 431//431
f 325//325 430//430 316//316
f 432//432 431//431 433//433
f 431//431 432//432 430//430
f 434//434 435//435 436//436
f 435//435 434//434 437//437
f 435//435 438//438 436//436
f 438//438 435//435 439//439
f 434//434 438//438 440//440
f 438//438 434//434 436//436
f 440//440 437//437 434//434
f 437//437 440//440 441//441
f 437//437 291//291 435//435
f 291//291 437//437 290//290
f 291//291 439//439 435//435
f 439//439 291//291 293//293
f 439//439 440//440 438//438
f 440//440 439//439 441//441
f 441//441 290//290 437//437
f 290//290 441//441 292//292
f 292//292 439//439 293//293
f 439//439 292//292 441//441
f 10//10 11//11 12//12
f 11//11 10//10 9//9
f 9//9 14//14 11//11
f 14//14 9//9 13//13
f 15//15 11//11 14//14
f 11//11 15//15 12//12
f 15//15 10//10 12//12
f 10//10 15//15 16//16
f 18//18 9//9 10//10
f 9//9 18//18 17//17
f 19//19 9//9 17//17
f 9//9 19//19 13//13
f 14//14 16//16 15//15
f 16//16 14//14 13//13
f 16//16 18//18 10//10
f 18//18 16//16 20//20
f 13//13 20//20 16//16
f 20//20 13//13 19//19
f 22//22 23//23 24//24
f 23//23 22//22 21//21
f 25//25 24//24 26//26
f 24//24 25//25 22//22
f 24//24 27//27 28//28
f 27//27 24//24 23//23
f 21//21 29//29 30//30
f 29//29 21//21 22//22
f 26//26 28//28 31//31
f 28//28 26//26 24//24
f 26//26 32//32 25//25
f 32//32 26//26 31//31
f 29//29 25//25 32//32
f 25//25 29//29 22//22
f 27//27 29//29 28//28
f 29//29 27//27 30//30
f 28//28 32//32 31//31
f 32//32 28//28 29//29
f 442//442 443//443 444//444
f 443//443 442//442 445//445
f 445//445 446//446 443//443
f 446//446 445//445 447//447
f 448//448 443//443 446//446
f 443//443 448//448 444//444
f 448//448 442//442 444//444
f 442//442 448//448 449//449
f 314//314 445//445 442//442
f 445//445 314//314 319//319
f 323//323 445//445 319//319
f 445//445 323//323 447//447
f 446//446 449//449 448//448
f 449//449 446//446 447//447
f 449//449 314//314 442//442
f 314//314 449//449 318//318
f 447//447 318//318 449//449
f 318//318 447//447 323//323
f 265//265 266//266 267//267
f 266//266 265//265 264//264
f 268//268 265//265 269//269
f 265//265 268//268 264//264
f 266//266 268//268 270//270
f 268//268 266//266 264//264
f 266//266 271//271 267//267
f 271//271 266//266 270//270
f 268//268 271//271 270//270
f 271//271 268//268 269//269
f 450//450 451//451 452//452
f 451//451 450//450 453//453
f 452//452 454//454 455//455
f 454//454 452//452 451//451
f 452//452 456//456 450//450
f 456//456 452//452 455//455
f 457//457 450//450 456//456
f 450//450 457//457 453//453
f 453//453 295//295 451//451
f 295//295 453//453 300//300
f 451//451 296//296 454//454
f 296//296 451//451 295//295
f 454//454 456//456 455//455
f 456//456 454//454 457//457
f 300//300 457//457 299//299
f 457//457 300//300 453//453
f 296//296 457//457 454//454
f 457//457 296//296 299//299
f 34//34 35//35 36//36
f 35//35 34//34 33//33
f 35//35 37//37 38//38
f 37//37 35//35 33//33
f 38//38 36//36 35//35
f 36//36 38//38 39//39
f 40//40 36//36 39//39
f 36//36 40//40 34//34
f 41//41 34//34 42//42
f 34//34 41//41 33//33
f 33//33 43//43 37//37
f 43//43 33//33 41//41
f 38//38 40//40 39//39
f 40//40 38//38 37//37
f 44//44 34//34 40//40
f 34//34 44//44 42//42
f 37//37 44//44 40//40
f 44//44 37//37 43//43
f 328//328 247//247 246//246
f 247//247 328//328 262//262
f 328//328 263//263 262//262
f 263//263 328//328 329//329
f 263//263 244//244 245//245
f 244//244 263//263 329//329
f 142//142 143//143 144//144
f 143//143 142//142 141//141
f 144//144 145//145 146//146
f 145//145 144//144 143//143
f 148//148 143//143 141//141
f 143//143 148//148 147//147
f 150//150 142//142 144//144
f 142//142 150//150 149//149
f 143//143 151//151 145//145
f 151//151 143//143 147//147
f 152//152 145//145 151//151
f 145//145 152//152 146//146
f 152//152 144//144 146//146
f 144//144 152//152 150//150
f 147//147 149//149 150//150
f 149//149 147//147 148//148
f 151//151 150//150 152//152
f 150//150 151//151 147//147
f 228//228 458//458 231//231
f 458//458 228//228 227//227
f 458//458 229//229 231//231
f 229//229 458//458 230//230
f 46//46 47//47 48//48
f 47//47 46//46 45//45
f 45//45 50//50 47//47
f 50//50 45//45 49//49
f 51//51 47//47 50//50
f 47//47 51//51 48//48
f 51//51 46//46 48//48
f 46//46 51//51 52//52
f 54//54 45//45 46//46
f 45//45 54//54 53//53
f 55//55 45//45 53//53
f 45//45 55//55 49//49
f 50//50 52//52 51//51
f 52//52 50//50 49//49
f 52//52 54//54 46//46
f 54//54 52//52 56//56
f 49//49 56//56 52//52
f 56//56 49//49 55//55
f 154//154 155//155 156//156
f 155//155 154//154 153//153
f 155//155 157//157 158//158
f 157//157 155//155 153//153
f 153//153 159//159 160//160
f 159//159 153//153 154//154
f 161//161 155//155 162//162
f 155//155 161//161 156//156
f 157//157 160//160 163//163
f 160//160 157//157 153//153
f 163//163 158//158 157//157
f 158//158 163//163 164//164
f 162//162 158//158 164//164
f 158//158 162//162 155//155
f 160//160 161//161 162//162
f 161//161 160//160 159//159
f 163//163 162//162 164//164
f 162//162 163//163 160//160
f 226//226 227//227 228//228
f 227//227 226//226 225//225
f 225//225 229//229 230//230
f 229//229 225//225 226//226
f 228//228 229//229 226//226
f 229//229 228//228 231//231
f 459//459 460//460 461//461
f 460//460 459//459 462//462
f 461//461 463//463 464//464
f 463//463 461//461 460//460
f 461//461 465//465 459//459
f 465//465 461//461 464//464
f 466//466 459//459 465//465
f 459//459 466//466 462//462
f 462//462 303//303 460//460
f 303//303 462//462 311//311
f 460//460 304//304 463//463
f 304//304 460//460 303//303
f 463//463 465//465 464//464
f 465//465 463//463 466//466
f 311//311 466//466 307//307
f 466//466 311//311 462//462
f 304//304 466//466 463//463
f 466//466 304//304 307//307
f 273//273 274//274 275//275
f 274//274 273//273 272//272
f 277//277 274//274 272//272
f 274//274 277//277 276//276
f 278//278 274//274 276//276
f 274//274 278//278 275//275
f 278//278 273//273 275//275
f 273//273 278//278 279//279
f 277//277 278//278 276//276
f 278//278 277//277 279//279
f 305//305 467//467 468//468
f 467//467 305//305 312//312
f 468//468 469//469 470//470
f 469//469 468//468 467//467
f 306//306 467//467 312//312
f 467//467 306//306 471//471
f 472//472 305//305 468//468
f 305//305 472//472 302//302
f 467//467 473//473 469//469
f 473//473 467//467 471//471
f 474//474 469//469 473//473
f 469//469 474//474 470//470
f 474//474 468//468 470//470
f 468//468 474//474 472//472
f 471//471 302//302 472//472
f 302//302 471//471 306//306
f 473//473 472//472 474//474
f 472//472 473//473 471//471
f 281//281 282//282 283//283
f 282//282 281//281 280//280
f 284//284 281//281 285//285
f 281//281 284//284 280//280
f 286//286 280//280 284//284
f 280//280 286//286 282//282
f 282//282 287//287 283//283
f 287//287 282//282 286//286
f 284//284 287//287 286//286
f 287//287 284//284 285//285
f 475//475 321//321 476//476
f 321//321 475//475 320//320
f 477//477 320//320 475//475
f 320//320 477//477 322//322
f 322//322 478//478 324//324
f 478//478 322//322 477//477
f 321//321 478//478 476//476
f 478//478 321//321 324//324
f 479//479 476//476 480//480
f 476//476 479//479 475//475
f 481//481 475//475 479//479
f 475//475 481//481 477//477
f 478//478 481//481 482//482
f 481//481 478//478 477//477
f 476//476 482//482 480//480
f 482//482 476//476 478//478
f 479//479 482//482 481//481
f 482//482 479//479 480//480
f 483//483 484//484 485//485
f 484//484 483//483 486//486
f 486//486 487//487 484//484
f 487//487 486//486 488//488
f 489//489 484//484 487//487
f 484//484 489//489 485//485
f 489//489 483//483 485//485
f 483//483 489//489 490//490
f 297//297 486//486 483//483
f 486//486 297//297 301//301
f 298//298 486//486 301//301
f 486//486 298//298 488//488
f 487//487 490//490 489//489
f 490//490 487//487 488//488
f 490//490 297//297 483//483
f 297//297 490//490 294//294
f 488//488 294//294 490//490
f 294//294 488//488 298//298
f 491//491 309//309 492//492
f 309//309 491//491 308//308
f 493//493 492//492 494//494
f 492//492 493//493 491//491
f 309//309 495//495 492//492
f 495//495 309//309 317//317
f 496//496 308//308 491//491
f 308//308 496//496 310//310
f 492//492 497//497 494//494
f 497//497 492//492 495//495
f 493//493 497//497 498//498
f 497//497 493//493 494//494
f 498//498 491//491 493//493
f 491//491 498//498 496//496
f 310//310 495//495 317//317
f 495//495 310//310 496//496
f 495//495 498//498 497//497
f 498//498 495//495 496//496
f 289//289 269//269 241//241
f 289//289 271//271 269//269
f 289//289 267//267 271//271
f 267//267 288//288 265//265
f 288//288 267//267 289//289
f 265//265 241//241 269//269
f 265//265 6//6 241//241
f 6//6 265//265 288//288
f 241//241 285//285 232//232
f 241//241 287//287 285//285
f 241//241 283//283 287//287
f 283//283 241//241 6//6
f 281//281 232//232 285//285
f 281//281 8//8 232//232
f 283//283 8//8 281//281
f 8//8 283//283 6//6
f 188//188 173//173 186//186
f 173//173 188//188 174//174
f 326//326 185//185 315//315
f 326//326 187//187 185//185
f 187//187 326//326 321//321
f 53//53 323//323 322//322
f 54//54 323//323 53//53
f 54//54 318//318 323//323
f 318//318 54//54 161//161
f 53//53 316//316 55//55
f 322//322 316//316 53//53
f 324//324 316//316 322//322
f 324//324 325//325 316//316
f 325//325 321//321 326//326
f 321//321 325//325 324//324
f 156//156 55//55 154//154
f 156//156 56//56 55//55
f 56//56 161//161 54//54
f 161//161 56//56 156//156
f 319//319 322//322 323//323
f 319//319 320//320 322//322
f 320//320 187//187 321//321
f 187//187 174//174 188//188
f 320//320 174//174 187//187
f 174//174 314//314 175//175
f 320//320 314//314 174//174
f 314//314 320//320 319//319
f 212//212 213//213 210//210
f 18//18 212//212 304//304
f 298//298 18//18 44//44
f 298//298 212//212 18//18
f 301//301 212//212 298//298
f 189//189 212//212 301//301
f 198//198 212//212 189//189
f 198//198 213//213 212//212
f 198//198 220//220 213//213
f 220//220 195//195 222//222
f 195//195 220//220 198//198
f 305//305 311//311 312//312
f 311//311 305//305 303//303
f 309//309 209//209 317//317
f 209//209 309//309 211//211
f 289//289 310//310 313//313
f 289//289 306//306 310//310
f 289//289 19//19 306//306
f 289//289 41//41 19//19
f 289//289 43//43 41//41
f 43//43 298//298 44//44
f 43//43 292//292 298//298
f 43//43 148//148 292//292
f 289//289 148//148 43//43
f 289//289 149//149 148//148
f 149//149 23//23 142//142
f 23//23 316//316 27//27
f 149//149 316//316 23//23
f 149//149 55//55 316//316
f 149//149 154//154 55//55
f 289//289 154//154 149//149
f 289//289 159//159 154//154
f 159//159 318//318 161//161
f 318//318 57//57 314//314
f 159//159 57//57 318//318
f 159//159 77//77 57//57
f 159//159 137//137 77//77
f 289//289 137//137 159//159
f 289//289 129//129 137//137
f 129//129 90//90 131//131
f 90//90 241//241 91//91
f 129//129 241//241 90//90
f 241//241 129//129 289//289
f 317//317 313//313 310//310
f 209//209 313//313 317//317
f 210//210 313//313 209//209
f 213//213 313//313 210//210
f 214//214 313//313 213//213
f 222//222 313//313 214//214
f 296//296 222//222 195//195
f 291//291 222//222 296//296
f 27//27 222//222 291//291
f 316//316 222//222 27//27
f 315//315 222//222 316//316
f 185//185 222//222 315//315
f 186//186 222//222 185//185
f 173//173 222//222 186//186
f 176//176 222//222 173//173
f 176//176 313//313 222//222
f 175//175 313//313 176//176
f 57//57 175//175 314//314
f 66//66 175//175 57//57
f 118//118 175//175 66//66
f 120//120 175//175 118//118
f 101//101 175//175 120//120
f 104//104 175//175 101//101
f 104//104 313//313 175//175
f 103//103 313//313 104//104
f 241//241 103//103 91//91
f 103//103 234//234 313//313
f 234//234 103//103 241//241
f 312//312 310//310 306//306
f 311//311 310//310 312//312
f 307//307 310//310 311//311
f 307//307 308//308 310//310
f 308//308 211//211 309//309
f 211//211 304//304 212//212
f 308//308 304//304 211//211
f 304//304 308//308 307//307
f 17//17 306//306 19//19
f 17//17 302//302 306//306
f 302//302 303//303 305//305
f 303//303 18//18 304//304
f 302//302 18//18 303//303
f 18//18 302//302 17//17
f 42//42 19//19 41//41
f 42//42 20//20 19//19
f 20//20 44//44 18//18
f 44//44 20//20 42//42
f 125//125 101//101 120//120
f 101//101 125//125 102//102
f 63//63 118//118 66//66
f 63//63 123//123 118//118
f 123//123 63//63 116//116
f 78//78 89//89 113//113
f 80//80 89//89 78//78
f 80//80 90//90 89//89
f 90//90 80//80 131//131
f 78//78 57//57 77//77
f 113//113 57//57 78//78
f 114//114 57//57 113//113
f 114//114 59//59 57//57
f 59//59 116//116 63//63
f 116//116 59//59 114//114
f 135//135 77//77 137//137
f 135//135 79//79 77//77
f 79//79 131//131 80//80
f 131//131 79//79 135//135
f 92//92 113//113 89//89
f 92//92 115//115 113//113
f 115//115 123//123 116//116
f 123//123 102//102 125//125
f 102//102 91//91 103//103
f 123//123 91//91 102//102
f 115//115 91//91 123//123
f 91//91 115//115 92//92
f 142//142 21//21 141//141
f 21//21 142//142 23//23
f 301//301 300//300 189//189
f 297//297 300//300 301//301
f 300//300 297//297 295//295
f 299//299 189//189 300//300
f 299//299 191//191 189//189
f 191//191 296//296 195//195
f 296//296 191//191 299//299
f 293//293 298//298 292//292
f 293//293 294//294 298//298
f 294//294 295//295 297//297
f 295//295 291//291 296//296
f 294//294 291//291 295//295
f 291//291 294//294 293//293
f 141//141 292//292 148//148
f 21//21 292//292 141//141
f 30//30 292//292 21//21
f 30//30 290//290 292//292
f 290//290 27//27 291//291
f 27//27 290//290 30//30
f 288//288 313//313 327//327
f 313//313 288//288 289//289
f 7//7 288//288 327//327
f 288//288 7//7 6//6
f 232//232 5//5 233//233
f 5//5 232//232 8//8
f 234//234 248//248 255//255
f 248//248 7//7 250//250
f 7//7 248//248 234//234
f 255//255 313//313 234//234
f 252//252 313//313 255//255
f 250//250 313//313 252//252
f 250//250 327//327 313//313
f 327//327 250//250 7//7
f 233//233 279//279 277//277
f 5//5 279//279 233//233
f 5//5 273//273 279//279
f 273//273 5//5 7//7
f 277//277 234//234 233//233
f 272//272 234//234 277//277
f 273//273 234//234 272//272
f 234//234 273//273 7//7
f 241//241 240//240 234//234
f 241//241 243//243 240//240
f 243//243 238//238 237//237
f 241//241 238//238 243//243
f 241//241 242//242 238//238
f 242//242 4//4 235//235
f 242//242 2//2 4//4
f 2//2 232//232 1//1
f 242//242 232//232 2//2
f 232//232 242//242 241//241
f 239//239 234//234 240//240
f 237//237 234//234 239//239
f 236//236 237//237 238//238
f 236//236 234//234 237//237
f 235//235 234//234 236//236
f 3//3 235//235 4//4
f 1//1 235//235 3//3
f 1//1 234//234 235//235
f 1//1 233//233 234//234
f 233//233 1//1 232//232
f 256//256 237//237 258//258
f 237//237 256//256 243//243
f 237//237 259//259 258//258
f 259//259 237//237 239//239
f 241//241 7//7 234//234
f 7//7 241//241 6//6
f 328//328 244//244 329//329
f 244//244 328//328 246//246
f 245//245 246//246 247//247
f 246//246 245//245 244//244
f 245//245 225//225 260//260
f 245//245 227//227 225//225
f 227//227 247//247 458//458
f 247//247 227//227 245//245
f 230//230 260//260 225//225
f 458//458 260//260 230//230
f 458//458 257//257 260//260
f 257//257 458//458 247//247
f 315//315 326//326 426//426
f 427//427 426//426 326//326
f 426//426 427//427 428//428
f 429//429 428//428 427//427
f 430//430 316//316 426//426
f 315//315 426//426 316//316
f 325//325 431//431 326//326
f 427//427 326//326 431//431
f 430//430 426//426 432//432
f 428//428 432//432 426//426
f 429//429 433//433 428//428
f 432//432 428//428 433//433
f 431//431 433//433 427//427
f 429//429 427//427 433//433
f 316//316 430//430 325//325
f 431//431 325//325 430//430
f 430//430 432//432 431//431
f 433//433 431//431 432//432
f 437//437 434//434 435//435
f 436//436 435//435 434//434
f 439//439 435//435 438//438
f 436//436 438//438 435//435
f 436//436 434//434 438//438
f 440//440 438//438 434//434
f 441//441 440//440 437//437
f 434//434 437//437 440//440
f 290//290 437//437 291//291
f 435//435 291//291 437//437
f 293//293 291//291 439//439
f 435//435 439//439 291//291
f 441//441 439//439 440//440
f 438//438 440//440 439//439
f 292//292 441//441 290//290
f 437//437 290//290 441//441
f 441//441 292//292 439//439
f 293//293 439//439 292//292
f 445//445 442//442 443//443
f 444//444 443//443 442//442
f 447//447 445//445 446//446
f 443//443 446//446 445//445
f 444//444 448//448 443//443
f 446//446 443//443 448//448
f 449//449 448//448 442//442
f 444//444 442//442 448//448
f 319//319 314//314 445//445
f 442//442 445//445 314//314
f 447//447 323//323 445//445
f 319//319 445//445 323//323
f 447//447 446//446 449//449
f 448//448 449//449 446//446
f 318//318 449//449 314//314
f 442//442 314//314 449//449
f 323//323 447//447 318//318
f 449//449 318//318 447//447
f 453//453 450//450 451//451
f 452//452 451//451 450//450
f 451//451 452//452 454//454
f 455//455 454//454 452//452
f 455//455 452//452 456//456
f 450//450 456//456 452//452
f 453//453 457//457 450//450
f 456//456 450//450 457//457
f 300//300 453//453 295//295
f 451//451 295//295 453//453
f 295//295 451//451 296//296
f 454//454 296//296 451//451
f 457//457 454//454 456//456
f 455//455 456//456 454//454
f 453//453 300//300 457//457
f 299//299 457//457 300//300
f 299//299 296//296 457//457
f 454//454 457//457 296//296
f 462//462 459//459 460//460
f 461//461 460//460 459//459
f 460//460 461//461 463//463
f 464//464 463//463 461//461
f 464//464 461//461 465//465
f 459//459 465//465 461//461
f 462//462 466//466 459//459
f 465//465 459//459 466//466
f 311//311 462//462 303//303
f 460//460 303//303 462//462
f 303//303 460//460 304//304
f 463//463 304//304 460//460
f 466//466 463//463 465//465
f 464//464 465//465 463//463
f 462//462 311//311 466//466
f 307//307 466//466 311//311
f 307//307 304//304 466//466
f 463//463 466//466 304//304
f 312//312 305//305 467//467
f 468//468 467//467 305//305
f 467//467 468//468 469//469
f 470//470 469//469 468//468
f 471//471 306//306 467//467
f 312//312 467//467 306//306
f 302//302 472//472 305//305
f 468//468 305//305 472//472
f 471//471 467//467 473//473
f 469//469 473//473 467//467
f 470//470 474//474 469//469
f 473//473 469//469 474//474
f 472//472 474//474 468//468
f 470//470 468//468 474//474
f 306//306 471//471 302//302
f 472//472 302//302 471//471
f 471//471 473//473 472//472
f 474//474 472//472 473//473
f 320//320 475//475 321//321
f 476//476 321//321 475//475
f 322//322 477//477 320//320
f 475//475 320//320 477//477
f 477//477 322//322 478//478
f 324//324 478//478 322//322
f 324//324 321//321 478//478
f 476//476 478//478 321//321
f 475//475 479//479 476//476
f 480//480 476//476 479//479
f 477//477 481//481 475//475
f 479//479 475//475 481//481
f 477//477 478//478 481//481
f 482//482 481//481 478//478
f 478//478 476//476 482//482
f 480//480 482//482 476//476
f 480//480 479//479 482//482
f 481//481 482//482 479//479
f 486//486 483//483 484//484
f 485//485 484//484 483//483
f 488//488 486//486 487//487
f 484//484 487//487 486//486
f 485//485 489//489 484//484
f 487//487 484//484 489//489
f 490//490 489//489 483//483
f 485//485 483//483 489//489
f 301//301 297//297 486//486
f 483//483 486//486 297//297
f 488//488 298//298 486//486
f 301//301 486//486 298//298
f 488//488 487//487 490//490
f 489//489 490//490 487//487
f 294//294 490//490 297//297
f 483//483 297//297 490//490
f 298//298 488//488 294//294
f 490//490 294//294 488//488
f 308//308 491//491 309//309
f 492//492 309//309 491//491
f 491//491 493//493 492//492
f 494//494 492//492 493//493
f 317//317 309//309 495//495
f 492//492 495//495 309//309
f 310//310 496//496 308//308
f 491//491 308//308 496//496
f 495//495 492//492 497//497
f 494//494 497//497 492//492
f 494//494 493//493 497//497
f 498//498 497//497 493//493
f 496//496 498//498 491//491
f 493//493 491//491 498//498
f 496//496 310//310 495//495
f 317//317 495//495 310//310
f 496//496 495//495 498//498
f 497//497 498//498 495//495