# https://github.com/mikedh/trimesh
v 0.02770900 0.01101700 0.00891300
v 0.07485300 0.00717900 -0.02523600
v 0.07575700 0.00808300 -0.02712100
v 0.05764800 -0.01274000 0.04454600
v 0.07711700 0.00944300 -0.02834000
v 0.07495600 0.00728200 -0.01972400
v 0.07556200 0.00788800 -0.01846000
v 0.07446100 0.00678700 -0.02225900
v 0.03632100 0.01945800 0.00891300
v 0.02990000 0.02489800 0.00891300
v 0.03727800 0.01795700 0.00891300
v 0.03482200 0.02119200 0.00891300
v 0.03196000 0.02365300 0.00891300
v 0.02855400 0.02545600 0.00891300
v 0.10800600 0.04033200 0.00899300
v 0.07595100 0.00827700 -0.01792600
v 0.10915100 0.04147700 0.00953900
v 0.07711700 0.00944300 -0.01697400
v 0.02187500 0.01851300 0.00891300
v 0.02918700 0.01004400 0.00891300
v 0.02131300 0.02099200 0.00891300
v 0.03203400 0.00875600 0.00891300
v 0.03844500 0.01542400 0.00891300
v 0.02634200 0.02593500 0.00891300
v 0.02254000 0.02496200 0.00891300
v 0.03890400 0.01250200 0.00891300
v 0.02384300 0.02568400 0.00891300
v 0.02909900 -0.03859800 0.00891300
v 0.08206700 0.01439300 -0.02684600
v 0.08000500 0.01233100 -0.02855900
v 0.09322900 0.00323100 -0.02684600
v 0.09112700 0.00112800 -0.02857100
v 0.08147200 0.01379800 -0.02762900
v 0.08288600 0.01521200 -0.02488600
v 0.09404900 0.00405000 -0.02488600
v 0.09263500 0.00263600 -0.02762900
v 0.08691900 -0.00308000 -0.02712100
v 0.08601500 -0.00398300 -0.02523600
v 0.11674200 0.02984200 -0.05423000
v 0.08562200 -0.00437700 -0.02229500
v 0.08672400 -0.00327400 -0.01846000
v 0.11633800 0.03787500 -0.05423000
v 0.11194700 0.04207600 0.03964400
v 0.05616800 -0.01636500 0.04237500
v 0.11500000 0.04028900 0.03860500
v 0.11678900 0.03842500 0.03609900
v 0.10071900 0.04008400 0.05357000
v 0.11311200 0.04056000 0.04079600
v 0.06600200 -0.01283600 0.03599400
v 0.06031200 -0.01017300 0.04444800
v 0.06440100 -0.01579100 0.03462400
v 0.05997600 -0.01881000 0.03604700
v 0.06505300 -0.01491100 0.03485500
v 0.11766700 0.03962600 0.03351700
v 0.11729400 0.03719600 0.03471100
v 0.11348600 0.04134300 0.03935400
v 0.06388900 -0.01636000 0.03456600
v 0.05854400 -0.01904800 0.03725500
v 0.11823800 0.03787700 0.03338800
v 0.11405200 0.03890000 0.03968300
v 0.11443300 0.04165200 0.03726400
v 0.11680300 0.04040200 0.03457400
v 0.06308700 -0.01710200 0.03462700
v 0.05724200 -0.01859400 0.03903300
v 0.05627800 -0.01740000 0.04121600
v 0.11553100 0.03878100 0.03795300
v 0.11622500 0.04037200 0.03626800
v 0.10064600 0.03920700 0.05349800
v 0.11307500 0.03898900 0.04075900
v 0.11824800 0.03624800 0.03277400
v 0.06218000 -0.00920000 0.04354200
v 0.06186100 -0.01799200 0.03496700
v 0.10955400 0.04188000 0.01015100
v 0.07841100 0.01073700 -0.01645300
v 0.11930800 0.03535100 0.03040100
v 0.08147200 0.01379800 -0.01768500
v 0.09263500 0.00263600 -0.01768500
v 0.11968300 0.03251300 0.02731200
v 0.10975800 0.04208400 0.01087700
v 0.11917100 0.03741200 0.03095600
v 0.11993500 0.03470100 0.02836900
v 0.08000500 0.01233100 -0.01675500
v 0.09116700 0.00116900 -0.01675500
v 0.12017600 0.03351000 0.02666600
v 0.11762500 0.02781300 0.02463100
v -0.11307100 -0.00492300 -0.01889200
v -0.10840500 -0.03313900 -0.05212500
v -0.10676800 0.00663500 0.00891300
v -0.11773600 -0.01053900 -0.01953500
v -0.11989700 0.03746100 0.02259400
v -0.11766400 -0.00492800 -0.01281200
v -0.11765700 0.00345900 -0.01219900
v -0.10674200 -0.00526000 -0.02598900
v -0.10670400 -0.00145000 -0.02865700
v -0.10562500 -0.02591700 -0.05423000
v -0.11531000 -0.03570900 -0.05367300
v -0.12017600 -0.04001500 -0.05217600
v -0.11820600 -0.04208600 -0.05225700
v -0.11808200 -0.04010600 -0.05422400
v -0.11852000 0.03545400 0.02434600
v 0.02879000 -0.04070500 0.00914600
v 0.04744500 -0.04204000 0.02427200
v 0.04808800 -0.04166400 0.02451400
v 0.04720700 -0.04208700 0.02411500
v 0.03047500 -0.04208300 0.01083600
v 0.02978500 -0.04188600 0.01014600
v 0.03599300 0.00847000 0.00891300
v 0.02167000 0.02362100 0.00891300
v 0.05570100 0.04012700 0.02468900
v -0.02339400 -0.03902800 0.02469900
v 0.04721800 -0.04144400 -0.05335100
v 0.02479200 0.01373500 0.00891300
v 0.03061200 -0.04000500 -0.05422400
v 0.03052600 -0.04208500 -0.05226100
v 0.08827900 -0.00172000 -0.02834000
v 0.11764200 0.02779600 -0.05260700
v 0.11694200 0.02882600 -0.05400700
v 0.03466500 0.00832300 0.00891300
v 0.03777200 0.00963200 0.00891300
v 0.04702800 -0.03999400 -0.05423000
v 0.04715800 -0.04208600 -0.05224900
v 0.04799000 -0.04149600 -0.05292100
v 0.08957300 -0.00042500 -0.01645300
v 0.11145800 0.03998700 -0.05423000
v 0.11784600 0.03217400 -0.05423000
v 0.11844100 0.02952700 -0.05321000
v 0.11015100 0.04208600 -0.05220900
v 0.12017000 0.03325200 -0.05212500
v 0.02256800 0.01694400 0.00891300
v 0.02921800 -0.03884300 -0.05289700
v 0.02370800 0.01513900 0.00891300
v 0.02620800 0.01229200 0.00891300
v 0.02964700 -0.04090600 -0.05309400
v 0.08957300 -0.00042500 -0.02886000
v 0.08611800 -0.00388000 -0.01972400
v 0.11775600 0.03947300 -0.05253900
v 0.11667200 0.03846500 -0.05412400
v 0.08711400 -0.00288500 -0.01792600
v 0.11929000 0.03507400 -0.05339600
v 0.11334700 0.04115300 -0.05344000
v 0.11074300 0.04128800 -0.05358900
v 0.11926900 0.03209100 -0.05338400
v 0.08831500 -0.00168400 -0.01695500
v 0.11359600 0.03965600 -0.05423000
v 0.11789700 0.03498900 -0.05423000
v 0.11849200 0.03774600 -0.05321500
v 0.11586500 0.04039400 -0.05316400
v 0.12017200 0.03392700 -0.05226300
v 0.11252700 0.04205700 -0.05212500
v -0.10778600 0.02652200 0.00891300
v -0.09091400 -0.00343800 -0.01747500
v -0.09091400 -0.00580200 -0.02041200
v -0.11351700 -0.01790100 -0.05331300
v 0.00536800 -0.04035100 0.05361400
v -0.09301900 -0.03999400 -0.05423000
v 0.00574100 -0.03911900 0.05379500
v -0.10467200 -0.00707800 -0.05423000
v -0.11559600 0.04126500 0.00891300
v -0.09155600 -0.04092100 -0.05290100
v -0.10657700 -0.00234700 -0.05271200
v -0.11780800 -0.01292600 -0.05251400
v -0.11627400 -0.02224100 -0.05414100
v -0.09289400 -0.04208700 -0.05224700
v -0.11779500 0.02215100 0.02406900
v -0.11807800 0.01787300 0.02300800
v -0.11656300 0.01332700 0.02450100
v -0.11553600 -0.01781500 -0.05423000
v -0.11300500 -0.00579300 -0.02038600
v -0.11771500 -0.00930200 -0.01680200
v -0.11316600 0.02171400 0.00891300
v -0.10675400 -0.00592300 -0.02450500
v -0.11301700 -0.00349200 -0.01751800
v -0.11768500 -0.00680600 -0.01402700
v -0.10603300 -0.03061600 -0.05423000
v -0.11693400 -0.04208600 -0.05225100
v -0.11920400 0.04136500 0.02306000
v -0.11895800 -0.03541100 -0.05338200
v -0.11706500 -0.03999400 -0.05423000
v -0.11769000 -0.00716300 -0.03098900
v -0.11304100 -0.00590300 -0.02457000
v -0.10672000 -0.00357900 -0.01757700
v -0.10675100 -0.00579500 -0.02039100
v -0.11244000 0.00310100 0.00891300
v -0.10731100 0.01990000 0.00891300
v -0.11864900 0.02500600 0.02259400
v -0.11570800 -0.02672800 -0.05414100
v -0.10790900 -0.04117000 -0.05316100
v -0.11793500 0.02658900 0.02421600
v -0.09091400 0.00528400 -0.02593200
v -0.09091400 0.00163100 -0.02860200
v -0.10528400 0.02120600 -0.05423000
v -0.11758800 0.00442300 -0.05259800
v -0.10678400 0.01640800 -0.05306100
v -0.11651800 -0.00444500 0.02436200
v -0.11768000 -0.00885600 0.02307500
v -0.11515900 0.00890600 -0.05423000
v -0.11305400 0.00904500 -0.05304400
v -0.11364900 -0.02791200 0.00891300
v -0.11771300 0.00625500 -0.05212500
v -0.09091400 0.00592200 -0.02454300
v -0.10480800 0.01178600 -0.05423000
v -0.10718000 -0.04209100 0.00891300
v -0.10911100 -0.04028400 0.00891300
v -0.09286300 -0.04208800 0.01086300
v -0.09194500 -0.04179600 0.00994400
v -0.11661700 0.00443700 -0.05385800
v -0.10563200 0.01646600 -0.05411600
v -0.11755800 -0.00000300 0.02306000
v -0.11456100 0.00445200 -0.05423000
v -0.10501200 0.01649800 -0.05423000
v -0.10830200 -0.04159000 0.00891300
v -0.09240800 -0.04200000 0.01040700
v -0.10554300 0.01175900 -0.05406400
v -0.11763000 0.00885100 -0.05273800
v -0.10700200 0.02100400 -0.05307100
v -0.11651200 -0.00888900 0.02443500
v -0.11758600 -0.00443000 0.02308300
v -0.11302300 0.00422400 -0.05317100
v -0.11556900 0.00445200 -0.05423000
v -0.10839600 -0.03314000 0.00891300
v -0.10460300 0.00235500 -0.05423000
v -0.10667600 0.00683700 -0.05249000
v -0.11792100 0.01782200 -0.05286800
v -0.11665300 -0.01778100 0.02456100
v -0.11786600 -0.01289900 0.02283900
v -0.11339400 0.01341800 -0.05338200
v -0.11531600 0.01335900 -0.05423000
v -0.11425300 -0.03409200 0.00891300
v -0.11281100 0.01551500 -0.05212500
v -0.09091400 0.00503500 -0.01904900
v -0.10555300 0.00234800 -0.05393500
v -0.11666600 0.01332300 -0.05400400
v -0.11809300 0.02213000 -0.05306100
v -0.11681900 -0.02222700 0.02460800
v -0.11747300 -0.01329600 0.02389000
v -0.11316600 -0.02172100 0.00891300
v -0.10675400 0.00590700 -0.02457500
v -0.11313100 0.00578300 -0.02036800
v -0.11771400 0.00926100 -0.01674700
v -0.11298200 0.00355700 -0.01756700
v -0.11768700 0.00688200 -0.01409000
v -0.10603300 0.03061000 -0.05423000
v -0.11706500 0.03998700 -0.05423000
v -0.11919600 -0.04138900 0.02305900
v -0.11899600 0.03540000 -0.05335700
v -0.11694000 0.04207900 -0.05225800
v -0.11765000 -0.00587100 -0.03199800
v -0.10670400 -0.00146500 -0.01666500
v -0.11771200 -0.00860700 -0.02955700
v -0.10675900 -0.00618100 -0.02225700
v -0.10717500 -0.03997900 -0.05422200
v -0.10908400 -0.04016000 -0.05242300
v -0.11863400 -0.03100600 -0.05322500
v -0.11387500 -0.02694400 -0.05299600
v -0.10717900 -0.04208600 -0.05225600
v -0.11867600 0.02652700 0.02309900
v -0.11719400 0.03112200 0.02469200
v -0.11616300 -0.02670400 -0.05423000
v -0.11774700 0.01099400 -0.02236200
v -0.11764700 -0.00156500 -0.01177600
v -0.10672400 0.00395200 -0.02740700
v -0.11280300 -0.01552200 0.00891300
v -0.11653400 0.03556400 -0.05423000
v -0.11904700 0.04110600 -0.05307700
v -0.10744600 0.03047700 -0.05338600
v -0.10600200 0.02588100 -0.05419200
v -0.11955000 -0.03534400 0.02309900
v -0.11442900 0.03546800 -0.05233900
v -0.11301500 -0.00528000 -0.02595700
v -0.11304700 -0.00138300 -0.02867000
v -0.11764700 -0.00151500 -0.03354700
v -0.11773500 -0.01072000 -0.02512500
v -0.10673700 -0.00492900 -0.01889400
v -0.10697100 0.01327100 0.00891300
v -0.10650900 -0.03530900 -0.05423000
v -0.11827200 -0.02656800 -0.05323900
v -0.11416300 -0.03132800 -0.05285600
v -0.11910100 0.03097700 0.02301500
v -0.11693600 0.02667400 0.02467200
v -0.11657100 -0.03114000 -0.05423000
v -0.11766300 -0.00429900 -0.03277200
v -0.11772500 -0.00965800 -0.02790000
v -0.11256100 0.00931000 0.00891300
v -0.11303300 -0.00393700 -0.02741700
v -0.11864900 -0.02501300 -0.05212500
v -0.10792000 -0.03515500 -0.05338000
v -0.11552400 -0.03120800 -0.05403400
v -0.11823300 0.03101900 0.02427600
v 0.00664800 -0.04004600 0.05422500
v -0.10778600 -0.02652900 0.00891300
v -0.09091400 0.00376700 -0.01771400
v -0.09091400 0.00580600 -0.02040800
v -0.09155100 0.04090600 -0.05289900
v -0.09301900 0.03998700 -0.05423000
v -0.10467200 0.00707100 -0.05423000
v -0.11558100 -0.04125100 0.00891300
v -0.09289500 0.04208000 -0.05225700
v -0.10659000 0.00200600 -0.05265000
v -0.11627400 0.02223500 -0.05414100
v -0.11351700 0.01789400 -0.05331700
v 0.01937400 -0.04135200 0.05347600
v -0.11779500 -0.02215800 0.02406900
v -0.11654500 -0.01333500 0.02450500
v -0.11807800 -0.01788000 0.02301500
v -0.11780500 0.01294500 -0.05252900
v -0.11553600 0.01780800 -0.05423000
v -0.10731100 -0.01990700 0.00891300
v -0.11769100 0.00721700 -0.03093600
v -0.11309100 0.00590700 -0.02455600
v -0.10671900 0.00354900 -0.01756400
v -0.11864900 -0.02501300 0.02259400
v -0.11244000 -0.00310800 0.00891300
v -0.10675200 0.00579400 -0.02038700
v -0.10790800 0.04116100 -0.05316200
v -0.11570800 0.02672100 -0.05414100
v -0.11793500 -0.02659600 0.02421600
v -0.10675800 0.00615500 -0.02228600
v -0.11766800 0.00576800 -0.03205700
v -0.11771300 0.00861400 -0.02954100
v -0.10670400 0.00131300 -0.01663900
v -0.10717500 0.03997200 -0.05422200
v -0.10908400 0.04015800 -0.05242200
v -0.11616300 0.02669700 -0.05423000
v -0.10718300 0.04207900 -0.05225000
v -0.11863400 0.03100400 -0.05322500
v -0.11386900 0.02693600 -0.05297700
v -0.11867600 -0.02653300 0.02309100
v -0.11721500 -0.03112700 0.02469100
v 0.01927500 -0.03999400 0.05423000
v -0.09091400 0.00175400 -0.01674000
v -0.09091400 0.00615500 -0.02223600
v -0.11695100 -0.04209200 0.00891300
v -0.11581800 0.02225500 -0.05423000
v 0.01997700 -0.04134400 0.05339600
v -0.09264100 0.04147100 -0.05322600
v -0.11644200 0.01777600 -0.05408900
v -0.11367700 0.02232100 -0.05317500
v -0.10551700 0.00705300 -0.05400400
v 0.01934800 -0.04208600 0.05231000
v -0.11760600 -0.01772700 0.02398300
v -0.11833200 -0.02212000 0.02309900
v -0.11766100 0.00429800 -0.03277400
v -0.11299900 0.00395000 -0.02740900
v -0.11772700 0.00968400 -0.02784100
v -0.11256100 -0.00931700 0.00891300
v -0.11864900 0.02500600 -0.05212500
v -0.10790800 0.03515000 -0.05339400
v -0.11552400 0.03120100 -0.05403400
v -0.11823300 -0.03102600 0.02427600
v -0.10840500 0.03313200 -0.05212500
v -0.11989700 -0.03746800 0.02259400
v -0.11774100 0.01053600 -0.01955300
v -0.11303200 0.00496700 -0.01896200
v -0.11765800 -0.00354600 -0.01222600
v -0.10676800 -0.00664200 0.00891300
v -0.11766800 0.00495000 -0.01282700
v -0.10674300 0.00529700 -0.02591300
v -0.10670400 0.00128600 -0.02868200
v -0.10562500 0.02591100 -0.05423000
v -0.12017600 0.04000200 -0.05217600
v -0.11808200 0.04011000 -0.05422300
v -0.11529500 0.03570400 -0.05366300
v -0.11821300 0.04207900 -0.05224900
v -0.11849700 -0.03546300 0.02435600
v -0.10697100 -0.01327700 0.00891300
v -0.11302400 0.00154800 -0.02863100
v -0.11773100 0.01073000 -0.02504200
v -0.11302600 0.00528000 -0.02594100
v -0.10673800 0.00499500 -0.01900400
v -0.11764900 0.00187200 -0.03350700
v -0.10650900 0.03530200 -0.05423000
v -0.11657100 0.03113300 -0.05423000
v -0.11827200 0.02656100 -0.05323500
v -0.11416300 0.03132100 -0.05285600
v -0.11689600 -0.02668400 0.02467600
v -0.11910200 -0.03099300 0.02301500
v -0.11425300 0.03408600 0.00891300
v -0.09091400 -0.00480900 -0.01874200
v -0.11747300 0.01328900 0.02389000
v -0.11281100 -0.01552200 -0.05212500
v -0.11809300 -0.02213700 -0.05306100
v -0.10555300 -0.00235500 -0.05393500
v -0.11666600 -0.01333000 -0.05400400
v 0.00624000 -0.04111500 0.05350700
v -0.11683600 0.02221900 0.02460500
v 0.00542200 -0.03899800 0.05348700
v -0.10839600 0.03313300 0.00891300
v -0.10460300 -0.00236200 -0.05423000
v -0.10667100 -0.00684400 -0.05250900
v -0.11792100 -0.01782900 -0.05286400
v 0.00658200 -0.04208600 0.05230300
v -0.11663600 0.01777500 0.02456500
v -0.11786800 0.01285800 0.02282400
v -0.11339400 -0.01342500 -0.05338600
v -0.11531600 -0.01336500 -0.05423000
v -0.11771300 0.00625500 0.02259400
v -0.09091400 -0.00399200 -0.02737900
v -0.11755500 -0.00000300 -0.05260500
v -0.11661300 -0.00888600 -0.05393500
v -0.10578500 -0.02118100 -0.05415900
v -0.10668400 -0.01187200 -0.05287800
v -0.11739500 0.00885700 0.02379000
v -0.11651200 0.00888200 0.02443500
v -0.10501200 -0.01650500 -0.05423000
v -0.10830200 0.04158300 0.00891300
v -0.09236800 0.04198200 0.01036700
v -0.11658600 -0.00000300 -0.05385800
v -0.11762600 -0.00885800 -0.05276300
v -0.10699600 -0.02101000 -0.05308900
v -0.10554300 -0.01176600 -0.05406400
v -0.11758300 0.00442300 0.02309100
v -0.11301700 -0.00423300 -0.05315700
v -0.11452900 -0.00000300 -0.05423000
v -0.11556900 -0.00445900 -0.05423000
v -0.11364900 0.02790500 0.00891300
v -0.11771300 -0.00626200 -0.05212500
v -0.09091400 -0.00589900 -0.02457000
v -0.10480800 -0.01179200 -0.05423000
v -0.10715500 0.04208600 0.00891300
v -0.10911100 0.04026300 0.00891300
v -0.09195700 0.04179700 0.00995600
v -0.09282900 0.04207500 0.01082800
v -0.11661700 -0.00444400 -0.05385800
v -0.10563200 -0.01647300 -0.05411600
v -0.11310200 -0.00000300 -0.05337000
v -0.11456100 -0.00445900 -0.05423000
v -0.11553800 -0.00000300 -0.05423000
v -0.09091400 -0.00530000 -0.02593800
v -0.09091400 -0.00127000 -0.02869500
v -0.10528400 -0.02121300 -0.05423000
v -0.11758900 -0.00443000 -0.05259000
v -0.10678400 -0.01641500 -0.05306100
v -0.11767300 0.00884900 0.02311600
v -0.11651800 0.00443800 0.02436200
v -0.11306300 -0.00905000 -0.05306200
v -0.11515900 -0.00891300 -0.05423000
v -0.09091400 -0.00120800 -0.01660600
v -0.09091400 -0.00619900 -0.02232200
v -0.11693300 0.04208400 0.00891300
v -0.09264100 -0.04147800 -0.05322600
v -0.10551700 -0.00705900 -0.05400400
v -0.11833200 0.02211300 0.02309900
v -0.11760600 0.01772000 0.02398300
v -0.11367100 -0.02233800 -0.05316100
v -0.11581800 -0.02226200 -0.05423000
v -0.11644200 -0.01778300 -0.05408900
v -0.11775000 -0.01099700 -0.02232500
v -0.11764700 0.00143200 -0.01177000
v -0.11280300 0.01551500 0.00891300
v -0.10672500 -0.00400900 -0.02736200
v -0.11442400 -0.03544700 -0.05232500
v -0.11904100 -0.04109800 -0.05308900
v -0.10600200 -0.02588700 -0.05419200
v -0.10744600 -0.03048300 -0.05338200
v -0.11955500 0.03533600 0.02307600
v -0.11653400 -0.03557100 -0.05423000
v -0.11989700 -0.03746800 -0.05212500
v -0.11308100 -0.00617400 -0.02227500
v -0.11304800 -0.00139800 -0.01665000
v -0.11770400 -0.00825600 -0.01535600
v -0.09113400 0.04067600 0.00913300
v -0.12017600 0.04000900 0.02264500
v -0.10726700 -0.02583100 -0.05316100
v -0.11615600 -0.04119700 -0.05308900
v -0.11880800 0.04074000 0.02419600
v -0.11820100 0.04207900 0.02272300
v -0.11754800 -0.03557100 -0.05423000
v -0.11989700 0.03746100 -0.05212500
v -0.10670000 -0.00000300 0.00891300
v -0.11303700 0.00616000 -0.02226100
v -0.11768400 0.00826600 -0.01538100
v -0.11303900 0.00153700 -0.01668400
v -0.09110200 -0.04061700 0.00910100
v -0.11754800 0.03556400 -0.05423000
v -0.12017600 -0.04000900 0.02264500
v -0.11615400 0.04118900 -0.05308800
v -0.11821000 -0.04208600 0.02272000
v -0.10726100 0.02583600 -0.05317500
v -0.11881200 -0.04073800 0.02419700
v -0.11771300 -0.00626200 0.02259400
v -0.09091400 0.00402800 -0.02736400
v -0.10667900 0.01186800 -0.05289700
v -0.10578500 0.02117400 -0.05415900
v -0.11739500 -0.00886400 0.02379000
v -0.11646900 -0.00000300 0.02436800
v -0.11661300 0.00887900 -0.05393500
v 0.10033000 0.03900700 0.05361700
v 0.09979700 0.04099700 0.05353600
v 0.09927100 0.04003600 0.05422500
v -0.02317400 -0.04195300 0.02332800
v -0.02293700 -0.04208700 0.02275700
v -0.02361700 -0.04069400 0.02442500
v 0.08664300 0.04127000 0.05359500
v 0.08653100 0.04207600 0.05234600
v 0.09933700 0.04207900 0.05231100
v 0.05640100 0.04123700 0.02421100
v 0.05703000 0.04207900 0.02279200
v 0.05680900 0.04194800 0.02332400
v 0.08664300 0.04208500 0.05224200
v 0.08609400 0.04134900 0.05339600
v 0.08319400 0.01552000 -0.02232300
v 0.09435200 0.00435300 -0.02222800
v 0.11985600 0.03165800 0.02579800
v 0.09366900 0.00367000 -0.01942700
v 0.08251100 0.01483700 -0.01942300
v 0.07841100 0.01073700 -0.02886000
v 0.11870600 0.02929000 0.02502500
v 0.06594800 -0.01008500 0.03883300
v 0.06363700 -0.00892500 0.04234600
v 0.06488200 -0.00909500 0.04091500
v 0.08664300 0.03998700 0.05423000
v 0.05647400 -0.01491900 0.04353000
v 0.11176500 0.04209200 0.03946500
v 0.05884600 -0.01131600 0.04477600
vn 0.46778992 0.57885478 -0.66790698
vn -0.10882746 0.96258277 0.24817534
vn -0.21426454 0.85706212 0.46854587
vn 0.83493513 -0.54339823 -0.08718770
vn -0.33186579 0.71900295 0.61065527
vn -0.09957228 0.95504500 -0.27923899
vn -0.14711382 0.88653760 -0.43864405
vn -0.08168876 0.99624317 -0.02874881
vn -0.57338536 -0.46737876 -0.67289399
vn -0.20911694 -0.45991576 -0.86298760
vn -0.68732245 -0.41128050 -0.59869541
vn -0.44869457 -0.49207088 -0.74601570
vn -0.31488613 -0.48332228 -0.81685146
vn -0.11129068 -0.41988769 -0.90072677
vn -0.47821896 0.67421705 -0.56279481
vn -0.23186293 0.80901288 -0.54012753
vn -0.45317580 0.82537793 -0.33672386
vn -0.33366150 0.70707137 -0.62347420
vn 0.42237347 0.11754547 -0.89876789
vn 0.41631578 0.67732832 -0.60655380
vn 0.33647373 -0.00747943 -0.94166315
vn 0.30267451 0.79219161 -0.52992508
vn -0.78599325 -0.30530040 -0.53759304
vn 0.00075925 -0.34193636 -0.93972280
vn 0.17482275 -0.18580330 -0.96690958
vn -0.89537403 -0.00100674 -0.44531375
vn 0.09631954 -0.26364559 -0.95979870
vn -0.57187027 0.24398662 -0.78322087
vn -0.89412240 0.15665663 0.41952810
vn -0.65580561 0.39657854 0.64237408
vn 0.15481406 -0.89392867 0.42062352
vn 0.39617507 -0.65467862 0.64377110
vn -0.78844806 0.26969411 0.55282433
vn -0.96940548 0.09531257 0.22620461
vn 0.09413005 -0.97005228 0.22391541
vn 0.26988946 -0.78712771 0.55460765
vn 0.85719923 -0.21536007 0.46779218
vn 0.96233617 -0.10970153 0.24874620
vn 0.22904732 -0.09432482 -0.96883443
vn 0.99617344 -0.08327932 -0.02651471
vn 0.88637455 -0.14839749 -0.43854115
vn 0.15582158 0.12528998 -0.97980715
vn 0.34195751 0.93514438 0.09257454
vn 0.97540998 -0.18117897 0.12549719
vn 0.73987635 0.34568843 0.57713300
vn 0.80680857 -0.15911031 0.56898493
vn 0.40637161 0.17297963 0.89718458
vn 0.72979623 0.35021020 0.58715440
vn -0.06675320 -0.59895311 0.79799698
vn 0.51798493 -0.85055615 -0.09080667
vn 0.06860769 -0.23883607 0.96863322
vn 0.55539274 0.08843680 0.82687232
vn -0.00227472 -0.37550819 0.92681628
vn 0.85567818 0.49557553 0.14906287
vn 0.73616923 -0.53052515 0.42023556
vn 0.57689076 0.72928258 0.36789123
vn 0.14627846 -0.15652840 0.97678118
vn 0.72973954 0.09108627 0.67763080
vn 0.92538736 0.01037046 0.37888084
vn 0.71733486 -0.25469381 0.64850733
vn 0.23687663 0.95772078 0.16328000
vn 0.45670280 0.87966474 0.13271206
vn 0.24021457 -0.07683473 0.96767421
vn 0.87274194 0.06105084 0.48434935
vn 0.95320894 -0.05006291 0.29813827
vn 0.77465966 -0.25606535 0.57821532
vn 0.77214171 0.55760762 0.30474730
vn 0.52200652 -0.25274759 0.81463357
vn 0.68401943 -0.31512986 0.65788342
vn 0.66293327 -0.36925442 0.65128385
vn 0.34549158 -0.93834743 0.01181815
vn 0.39008102 0.00361858 0.92077343
vn -0.42257991 0.88645787 -0.18872908
vn -0.50134917 0.56783998 -0.65284513
vn 0.83650291 -0.31114803 0.45105409
vn -0.81388585 0.26180037 -0.51870067
vn 0.26275173 -0.81481737 -0.51675350
vn 0.78097904 -0.43955041 0.44369718
vn -0.04484276 0.99737817 -0.05679713
vn 0.84820838 0.50140294 0.17069753
vn 0.98201579 -0.00103647 0.18879596
vn -0.65390600 0.39389524 -0.64595161
vn 0.39468392 -0.65448195 -0.64488602
vn 0.99093799 -0.05720034 0.12153196
vn 0.71284300 -0.64440800 0.27675474
vn 0.36109341 0.75016375 -0.55395479
vn -0.98385759 0.06218664 -0.16780069
vn -0.70888588 -0.01419636 -0.70518031
vn -0.92952792 0.35559143 -0.09763493
vn -0.92639754 -0.06200028 0.37140753
vn -0.93401989 0.17029943 -0.31401424
vn -0.93568064 -0.11227834 -0.33450757
vn -0.74219548 0.56442606 0.36134345
vn -0.76200953 0.15766991 0.62807776
vn -0.07465637 -0.02371603 -0.99692727
vn 0.66060442 -0.11042814 -0.74256813
vn -0.89560227 -0.24828692 -0.36912082
vn -0.33748338 -0.88356438 -0.32468285
vn -0.32180882 -0.32193132 -0.89039278
vn -0.43781764 0.01546849 0.89893072
vn -0.57622948 -0.51532810 -0.63434733
vn 0.33286421 -0.93215777 0.14241946
vn 0.58096165 -0.76564078 0.27618427
vn 0.09935531 -0.99434692 0.03745293
vn -0.03585476 -0.99866766 -0.03711245
vn -0.22204500 -0.94600102 -0.23617387
vn -0.25761986 0.88695182 -0.38333859
vn 0.25380798 -0.10630611 -0.96139509
vn 0.64174375 -0.17956149 0.74560219
vn -0.33398253 0.04953835 0.94127659
vn 0.23125456 -0.72485010 -0.64893271
vn 0.49580229 0.40198047 -0.76979984
vn -0.61292177 0.02359199 -0.78979131
vn -0.36424477 -0.86088319 -0.35525466
vn 0.71965233 -0.33279847 0.60938141
vn 0.75481998 -0.57821370 -0.30970262
vn 0.42818741 -0.31154888 -0.84828818
vn 0.07807294 0.89786969 -0.43328355
vn -0.72834465 0.57528808 -0.37223338
vn 0.15357708 -0.30440656 -0.94008017
vn 0.61471492 -0.76432303 -0.19477133
vn 0.38788631 -0.84707841 -0.36332131
vn 0.56792412 -0.50263485 -0.65178249
vn -0.06131792 0.25958720 -0.96377103
vn 0.29235919 -0.07539568 -0.95333184
vn 0.80491045 -0.35859122 -0.47279119
vn -0.36164446 0.88616257 -0.28970535
vn 0.94070095 -0.28216615 -0.18831886
vn 0.46557646 0.22416239 -0.85614823
vn -0.78134114 0.25009980 -0.57180076
vn 0.49174877 0.32378671 -0.80829779
vn 0.49072780 0.49859551 -0.71455493
vn -0.69955298 -0.40878097 -0.58610898
vn 0.57407879 -0.50422083 0.64513170
vn 0.95529953 -0.10089192 -0.27789141
vn 0.68652512 0.66108696 -0.30273305
vn 0.21901377 0.31686611 -0.92283738
vn 0.80830165 -0.23436020 -0.54011456
vn 0.79624407 0.22841272 -0.56019907
vn 0.26382059 0.77747412 -0.57090515
vn -0.20294933 0.64521869 -0.73654899
vn 0.79116848 -0.24652789 -0.55971102
vn 0.70607214 -0.33586396 -0.62342404
vn 0.10922954 0.27009723 -0.95661716
vn 0.29272862 0.06729355 -0.95382469
vn 0.79082445 0.36082619 -0.49436945
vn 0.37889804 0.79097815 -0.48040592
vn 0.93773639 0.23321065 -0.25741651
vn 0.34454610 0.91495349 -0.21011449
vn -0.70403030 -0.05659414 -0.70791132
vn 0.75263518 0.34943404 -0.55806464
vn 0.74762662 0.61910568 -0.24033851
vn 0.76627003 -0.08200420 -0.63726411
vn -0.45836712 -0.28446321 0.84200966
vn 0.49874116 -0.21701712 -0.83914291
vn -0.31744086 0.14246624 0.93751516
vn -0.12864073 0.00421029 -0.99168233
vn 0.48195707 0.33221812 -0.81077031
vn 0.75908467 -0.41529433 -0.50131934
vn -0.93688673 0.00154881 -0.34962959
vn -0.94791109 0.03552309 -0.31654805
vn -0.08322044 0.00247795 -0.99652808
vn 0.49092665 -0.84861978 -0.19706722
vn -0.70540567 -0.04827170 0.70715818
vn -0.97473939 -0.05259078 0.21706529
vn -0.29342085 -0.02095412 0.95575370
vn 0.37083791 -0.91047898 -0.18304991
vn 0.44998552 0.81656326 -0.36157636
vn -0.93037875 0.31925069 -0.18020649
vn 0.70084540 0.04685739 -0.71177252
vn -0.74505859 0.64387313 0.17411232
vn 0.41588345 0.48932276 -0.76655345
vn -0.93198560 0.23120944 -0.27918638
vn -0.26379988 0.02475834 -0.96425964
vn 0.32573408 -0.89286778 -0.31094121
vn -0.62877123 0.64102581 0.44015071
vn -0.82334650 0.14553319 -0.54856234
vn 0.28022793 -0.30706904 -0.90949487
vn -0.92911229 0.25339317 0.26933671
vn 0.44376415 0.85594188 0.26539945
vn -0.74707136 0.37610113 -0.54811707
vn -0.73831671 0.63217501 -0.23503871
vn 0.69707080 0.00598265 -0.71697734
vn -0.70596645 -0.04327520 -0.70692194
vn -0.99505240 -0.06671950 0.07361549
vn 0.10323611 -0.00727013 -0.99463031
vn -0.53864960 -0.60395300 -0.58744990
vn -0.64565698 -0.04622578 0.76222716
vn 0.74658846 -0.55794019 0.36236504
vn 0.76814899 -0.16471373 0.61872168
vn -0.07050437 -0.00584585 -0.99749434
vn -0.94296086 -0.02634310 -0.33185970
vn -0.91264127 -0.03558074 -0.40720993
vn -0.41651172 0.02211305 0.90886137
vn -0.98011163 0.02073037 0.19736120
vn 0.13951641 0.00824618 -0.99018542
vn 0.87428226 0.03098501 -0.48442797
vn 0.70047846 -0.06055482 -0.71109988
vn -0.99607201 -0.01460396 -0.08733429
vn 0.75180111 -0.63608700 0.17374816
vn -0.11126859 -0.00562111 -0.99377447
vn -0.10328481 -0.99235079 -0.06761768
vn -0.59730226 -0.13786083 -0.79007873
vn 0.02442651 -0.99938810 -0.02503549
vn 0.29226487 -0.90791637 -0.30044818
vn -0.58044905 -0.00267818 -0.81429216
vn -0.44224118 -0.02039428 -0.89666427
vn -0.94019851 -0.00011494 0.34062700
vn 0.30127609 0.01199087 -0.95346155
vn -0.09108764 -0.00604915 -0.99582451
vn -0.41221702 -0.46914516 -0.78101213
vn 0.12120049 -0.98417677 -0.12925375
vn -0.48459921 -0.01892191 -0.87453163
vn -0.93321544 -0.00883872 -0.35920860
vn -0.91049742 -0.04991811 -0.41049072
vn -0.30474381 0.01889746 0.95224687
vn -0.93858996 0.03734345 0.34300780
vn 0.88564705 0.00621794 -0.46431739
vn -0.17497797 0.00773271 -0.98454198
vn -0.70091668 0.06750989 -0.71004100
vn -0.14928428 -0.00109207 -0.98879372
vn -0.94905406 -0.01681522 -0.31466432
vn -0.90774608 -0.03511226 -0.41804806
vn -0.26368300 0.02167133 0.96436592
vn -0.98292040 0.03676580 0.18032130
vn 0.79612710 0.00059587 -0.60512915
vn 0.13959771 0.03615804 -0.98954791
vn 0.69014692 -0.09661393 -0.71719103
vn 0.98680973 0.01310571 -0.16135304
vn 0.73782546 -0.54182235 -0.40254458
vn -0.56286336 0.00118322 -0.82654912
vn -0.50292376 -0.02493674 -0.86397098
vn -0.85796533 -0.07506050 -0.50819426
vn -0.24444956 0.02413439 0.96936162
vn -0.77910656 0.02980588 0.62618254
vn 0.70037891 -0.04740130 -0.71219555
vn -0.74729929 -0.64106754 0.17486046
vn 0.30023428 -0.91345070 -0.27471293
vn -0.93009849 -0.32286570 -0.17514147
vn 0.41929893 -0.50264918 -0.75599749
vn -0.93267075 -0.22698400 -0.28036323
vn -0.25828369 -0.01593628 -0.96593766
vn 0.32740239 0.28216911 -0.90176952
vn -0.62270096 -0.65469824 0.42850172
vn -0.80714731 -0.14213535 -0.57298408
vn 0.31700381 0.89136127 -0.32401182
vn 0.27278480 0.50389360 0.81956067
vn -0.75224775 0.14015490 -0.64380115
vn -0.93324674 0.28392664 0.22008224
vn -0.76807926 0.63957665 -0.03155879
vn -0.37321249 -0.27099111 -0.88728589
vn -0.89868306 -0.26190500 -0.35181605
vn -0.79512015 0.06162240 -0.60331304
vn 0.87724225 -0.05016828 -0.47741929
vn -0.35040201 -0.88929858 -0.29388172
vn -0.95348621 -0.06250305 0.29488544
vn -0.14356271 0.02649553 0.98928648
vn 0.59084088 0.79769820 0.12076686
vn -0.92873278 -0.37057777 -0.01129369
vn -0.93788801 0.04113211 -0.34449125
vn -0.75140479 -0.40182545 0.52338051
vn 0.70060395 -0.03382038 -0.71274840
vn 0.23365600 0.03709063 -0.97161163
vn -0.59234183 0.56372229 -0.57562864
vn -0.83997006 -0.10724071 -0.53193018
vn -0.37493205 -0.02737838 -0.92664793
vn -0.92929536 0.08935141 0.35836638
vn 0.95361020 0.16830104 -0.24960436
vn 0.42714514 0.74872150 0.50691533
vn 0.41633540 0.19887235 0.88719480
vn -0.94006869 0.04599161 0.33786926
vn -0.92949456 0.36099629 0.07564086
vn -0.73440529 0.54046020 -0.41055041
vn -0.70756265 -0.02806330 -0.70609316
vn -0.26153549 0.03110132 -0.96469264
vn -0.79296826 -0.00902841 -0.60919604
vn 0.90824328 -0.06733233 -0.41298971
vn -0.95236116 -0.09329599 0.29035164
vn -0.20980820 -0.01950206 0.97754805
vn -0.32583585 0.92463881 -0.19716506
vn -0.93499450 0.13367183 0.32850741
vn -0.93073556 0.32871098 0.16025110
vn 0.69934283 0.01838257 -0.71454999
vn 0.40713942 0.55607243 0.72458329
vn -0.99024541 -0.00526449 -0.13923476
vn -0.83274541 0.05074379 -0.55132580
vn 0.27861818 0.02477094 -0.96008245
vn -0.61915902 -0.05599426 0.78326672
vn -0.79949019 0.21906928 0.55930680
vn -0.70379671 0.05686510 -0.70812185
vn 0.75184094 -0.39007797 -0.53157725
vn 0.74771896 -0.62320672 -0.22919370
vn 0.76000796 0.41367894 -0.50125606
vn 0.49873622 0.21702334 -0.83914424
vn -0.13092702 -0.00466934 -0.99138101
vn 0.48232931 -0.33154674 -0.81082378
vn 0.48938769 0.84901059 -0.19920016
vn -0.94147813 -0.00177281 -0.33706942
vn -0.10044376 -0.01723477 -0.99479345
vn 0.76586975 0.08161421 -0.63779514
vn 0.10284557 -0.64601608 0.75636368
vn -0.70841625 0.04570229 0.70431365
vn -0.28248446 0.02050458 0.95905270
vn -0.97315447 0.05232672 0.22412560
vn -0.94736396 -0.03535127 -0.31820090
vn 0.08408412 -0.99644825 -0.00455385
vn -0.70577238 0.04297115 -0.70713424
vn -0.92921838 -0.25255623 0.26975647
vn 0.35157020 -0.91224490 0.21025613
vn -0.75002010 -0.37371382 -0.54571773
vn -0.99480232 0.06865627 0.07519744
vn 0.69680191 -0.00629257 -0.71723601
vn -0.74117486 -0.63091980 -0.22934694
vn -0.53788206 0.60407010 -0.58803249
vn 0.11797592 0.02596299 -0.99267699
vn -0.64542689 0.04869302 0.76226840
vn -0.76246436 -0.64640079 -0.02853283
vn -0.93498279 -0.19242613 0.29795867
vn -0.93592244 -0.28283013 0.20989595
vn -0.75252167 -0.12835009 -0.64593915
vn -0.37337394 0.27115968 -0.88716646
vn -0.89878401 0.26315250 -0.35062526
vn -0.59083454 0.79770272 -0.12076800
vn -0.35247258 0.88893329 -0.29250758
vn -0.79418060 -0.06328020 -0.60437802
vn 0.87885198 0.05141187 -0.47431637
vn -0.95228043 0.06505056 0.29821203
vn -0.17790965 -0.00455095 0.98403630
vn 0.15542863 -0.28970477 0.94441150
vn 0.75684990 -0.16152126 -0.63331596
vn 0.74527465 -0.66598287 -0.03213272
vn 0.13171762 -0.98722328 -0.08966974
vn 0.68970332 -0.71029749 -0.14066557
vn 0.28416808 -0.58095223 0.76272079
vn 0.40703480 0.66027892 -0.63115325
vn -0.21173464 -0.00168937 -0.97732573
vn 0.82611153 0.03177169 -0.56261026
vn -0.54758320 -0.01820917 -0.83655309
vn 0.11594481 -0.94795761 0.29653529
vn -0.74218861 0.04219538 0.66886143
vn -0.96307774 0.07083135 0.25973868
vn -0.93430215 -0.13663087 0.32925901
vn 0.42395220 -0.55782415 0.71351016
vn -0.93425334 -0.31897113 0.15946195
vn 0.69914632 -0.01807193 -0.71475018
vn -0.99028098 0.00818525 -0.13884012
vn -0.83115537 -0.05023122 -0.55376672
vn 0.23150629 0.02098120 -0.97260713
vn -0.62614334 0.05147918 0.77800669
vn -0.98402419 -0.05973744 -0.16771354
vn -0.92884353 0.06348210 0.36499276
vn -0.93252175 -0.34700244 -0.09996250
vn 0.42589008 -0.68832337 -0.58722106
vn -0.93574870 0.11432802 -0.33362176
vn -0.70849710 0.01367355 -0.70558125
vn -0.93367990 -0.17150373 -0.31436972
vn -0.74040264 -0.56594979 0.36263585
vn -0.76087654 -0.14400321 0.63271634
vn -0.05027157 -0.00501057 -0.99872302
vn -0.89603660 0.24425165 -0.37075536
vn -0.37127785 0.29031234 -0.88197024
vn 0.64121112 0.12208717 -0.75759027
vn -0.33012487 0.88413037 -0.33065247
vn -0.43792173 0.00534451 0.89899722
vn -0.70716124 0.02857328 -0.70647473
vn 0.41836520 -0.22328190 0.88040658
vn -0.92885443 -0.36268093 0.07544530
vn 0.44880181 -0.71911334 0.53052139
vn -0.73298056 -0.54381198 -0.40866616
vn -0.93988957 -0.05397446 0.33718594
vn -0.25988866 -0.03093355 -0.96514300
vn 0.79110237 0.58106471 0.19110429
vn -0.79405359 0.00883535 -0.60778354
vn 0.90812101 0.06692727 -0.41332430
vn -0.19891216 0.01986694 0.97981593
vn -0.95097061 0.08728236 0.29670977
vn 0.68989993 0.09710058 -0.71736293
vn 0.74199054 0.52099237 -0.42192059
vn -0.77860227 -0.03536117 0.62652062
vn 0.98681325 -0.01326624 -0.16131838
vn -0.85822935 0.07485327 -0.50777886
vn -0.55736518 0.00065455 -0.83026720
vn -0.50605382 0.02316762 -0.86219069
vn -0.25856481 -0.57598316 0.77549187
vn -0.25430759 -0.02533911 0.96679138
vn -0.63264592 0.34976035 0.69096081
vn -0.70090165 -0.06753274 -0.71005366
vn -0.14812093 0.00271944 -0.98896552
vn -0.94855161 0.01659825 -0.31618719
vn -0.90785824 0.03515102 -0.41780118
vn -0.15979471 -0.91909693 0.36017562
vn -0.26656541 -0.02068764 0.96359478
vn -0.98327870 -0.04010282 0.17763658
vn 0.79911809 0.02344851 -0.60071661
vn 0.13277943 0.00410176 -0.99113712
vn -0.99661413 -0.02347132 0.07879961
vn 0.75788451 0.39156862 0.52180943
vn -0.94524342 -0.00051311 -0.32636578
vn -0.51167452 0.00405927 -0.85916978
vn -0.41445562 0.02511208 -0.90972299
vn -0.92769332 0.02497394 -0.37250692
vn -0.79734316 -0.05368781 0.60113352
vn -0.31244482 -0.01855359 0.94975470
vn -0.08939797 0.00554423 -0.99598055
vn -0.41059580 0.46815130 -0.78246114
vn 0.12523318 0.98308080 -0.13367422
vn -0.58592421 -0.00030510 -0.81036580
vn -0.93113021 0.00775137 -0.36460450
vn -0.90904058 0.04920569 -0.41379225
vn -0.48866059 0.01889376 -0.87226937
vn -0.93575341 -0.02567723 0.35171896
vn 0.88647268 -0.02156915 -0.46227800
vn 0.27289412 0.00520369 -0.96203000
vn -0.16759839 0.00309246 -0.98585050
vn 0.70085864 0.06115953 -0.71067340
vn -0.99608512 0.01382855 -0.08731096
vn 0.74610923 0.64112551 0.17966384
vn -0.10929922 0.00517595 -0.99399542
vn -0.10137522 0.99263803 -0.06627826
vn -0.59834857 0.13650547 -0.78952217
vn 0.29292192 0.90749914 -0.30106820
vn 0.02561679 0.99932731 -0.02624306
vn -0.58675960 0.01308759 -0.80965541
vn -0.44351355 0.02034503 -0.89603672
vn 0.86442191 0.00622450 -0.50272858
vn 0.30917366 -0.02896731 -0.95056433
vn -0.16898716 0.00000153 -0.98561825
vn 0.75078897 0.55443827 0.35904614
vn 0.77297990 0.13488195 0.61992655
vn -0.06915381 0.00527110 -0.99759208
vn -0.94353287 0.02760815 -0.33012651
vn -0.91277408 0.03564619 -0.40690640
vn -0.97409190 -0.04196014 0.22222581
vn -0.42692777 -0.01571862 0.90414911
vn 0.86634404 -0.03058180 -0.49851053
vn 0.15708677 -0.01395515 -0.98748620
vn -0.15298471 0.16030746 -0.97513958
vn 0.75132688 0.65940247 -0.02638774
vn 0.13185188 0.98720901 -0.08962956
vn 0.40553613 -0.66123609 -0.63111590
vn -0.54830301 0.01703078 -0.83610631
vn -0.96437662 -0.07326962 0.25418359
vn -0.73820484 -0.04050512 0.67335945
vn 0.82822058 -0.03265722 -0.55944989
vn -0.68976047 -0.71024048 0.14067323
vn -0.24827541 -0.03626723 -0.96801033
vn -0.92948882 0.36869177 -0.01081284
vn -0.93739434 -0.03748294 -0.34624686
vn 0.70060395 0.03382010 -0.71274842
vn -0.74880518 0.40715330 0.52298852
vn 0.95375299 -0.16802574 -0.24924402
vn -0.59255002 -0.57117082 -0.56802144
vn -0.35957342 -0.01800167 -0.93294313
vn -0.83702567 0.11277909 -0.53541470
vn -0.93107522 -0.06923787 0.35819695
vn 0.20833733 -0.02544067 -0.97772610
vn -0.94018478 0.17859135 -0.29009947
vn 0.36295248 0.93098317 -0.03918965
vn 0.39529680 0.18141496 -0.90046047
vn -0.93384947 0.27111187 -0.23328849
vn 0.46353155 0.53754535 -0.70440294
vn -0.84804199 0.17047258 0.50176078
vn -0.90307030 0.05356188 -0.42613983
vn 0.63649065 -0.58575276 -0.50177022
vn -0.49866496 0.39586025 0.77112121
vn -0.22255572 0.85776247 0.46337079
vn -0.27035330 0.04536995 -0.96169156
vn -0.94165406 -0.16860186 -0.29130920
vn -0.70926335 -0.00001360 -0.70494361
vn 0.37975446 -0.92358198 -0.05275302
vn -0.93148852 -0.27839977 -0.23414248
vn 0.39280488 -0.20763613 -0.89587475
vn 0.45773005 -0.53060031 -0.71340487
vn -0.30338757 -0.07634612 -0.94980380
vn -0.84686217 -0.16743018 0.50476886
vn 0.63808576 0.57743309 -0.50933053
vn -0.22168262 -0.86031729 0.45903266
vn -0.90173417 -0.05299028 -0.42903090
vn -0.46732914 -0.41690962 0.77960878
vn -0.99662365 0.02370823 0.07860797
vn 0.75730179 -0.40306897 0.51383792
vn -0.92603528 -0.02402677 -0.37667143
vn -0.41527837 -0.02639465 -0.90931138
vn -0.79073285 0.02530285 0.61163823
vn -0.42282258 -0.00050699 0.90621234
vn -0.50830583 -0.01088976 -0.86110777
vn 0.34870718 -0.25498692 0.90187858
vn 0.29598500 0.52553568 0.79762468
vn 0.74399319 -0.21384948 0.63304228
vn -0.16720582 -0.90169386 0.39873600
vn -0.03182708 -0.99672071 0.07439660
vn -0.33781894 -0.43872136 0.83270759
vn -0.08316187 0.65190679 0.75372518
vn -0.00840296 0.92880039 0.37048512
vn 0.15865530 0.91206378 0.37811130
vn -0.28617434 0.70778024 0.64587258
vn -0.03139417 0.99633042 0.07962473
vn -0.13888945 0.92904719 0.34290091
vn 0.05098259 0.97473192 0.21748211
vn -0.33283385 0.66514214 0.66843666
vn -0.99458791 0.09075946 -0.05057273
vn 0.09136869 -0.99427248 -0.05544360
vn 0.91411404 -0.36963156 0.16663742
vn 0.12549304 -0.93744858 -0.32471782
vn -0.93818413 0.12573814 -0.32249102
vn -0.50364223 0.57070755 0.64856565
vn 0.77918586 -0.56340243 0.27467635
vn -0.05397199 -0.82376520 0.56435620
vn 0.16861491 -0.97643173 0.13472227
vn 0.03942190 -0.94801809 0.31576513
vn -0.13440521 0.26086743 0.95597250
vn 0.93379602 -0.35775061 0.00628474
vn 0.16047553 0.98658478 -0.02996801
vn 0.68751463 -0.71832791 -0.10643614
f 103//103 122//122 40//40
f 472//472 448//448 92//92
f 329//329 301//301 489//489
f 435//435 395//395 436//436
f 38//38 8//8 40//40
f 116//116 117//117 126//126
f 5//5 3//3 115//115
f 5//5 130//130 3//3
f 221//221 231//231 295//295
f 502//502 504//504 501//501
f 15//15 501//501 505//505
f 322//322 314//314 347//347
f 421//421 73//73 461//461
f 44//44 129//129 19//19
f 226//226 283//283 197//197
f 512//512 19//19 21//21
f 508//508 11//11 49//49
f 22//22 52//52 118//118
f 228//228 451//451 277//277
f 65//65 64//64 112//112
f 512//512 21//21 4//4
f 234//234 492//492 224//224
f 73//73 406//406 422//422
f 296//296 203//203 332//332
f 334//334 487//487 488//488
f 15//15 14//14 24//24
f 6//6 28//28 7//7
f 471//471 353//353 241//241
f 107//107 119//119 28//28
f 34//34 502//502 501//501
f 251//251 155//155 187//187
f 419//419 405//405 439//439
f 414//414 426//426 436//436
f 12//12 510//510 13//13
f 495//495 56//56 43//43
f 466//466 497//497 422//422
f 506//506 127//127 130//130
f 34//34 501//501 127//127
f 411//411 433//433 396//396
f 468//468 360//360 264//264
f 499//499 79//79 497//497
f 352//352 259//259 470//470
f 214//214 308//308 305//305
f 513//513 43//43 56//56
f 42//42 145//145 144//144
f 34//34 127//127 29//29
f 440//440 205//205 212//212
f 495//495 513//513 499//499
f 105//105 339//339 391//391
f 400//400 409//409 424//424
f 105//105 121//121 104//104
f 502//502 85//85 504//504
f 400//400 404//404 430//430
f 204//204 491//491 477//477
f 181//181 151//151 378//378
f 2//2 37//37 3//3
f 184//184 193//193 274//274
f 477//477 332//332 202//202
f 477//477 98//98 332//332
f 295//295 231//231 338//338
f 285//285 327//327 311//311
f 153//153 262//262 236//236
f 171//171 93//93 389//389
f 237//237 200//200 317//317
f 300//300 449//449 229//229
f 468//468 264//264 245//245
f 374//374 377//377 415//415
f 446//446 394//394 153//153
f 1//1 132//132 64//64
f 233//233 223//223 165//165
f 158//158 377//377 268//268
f 372//372 348//348 474//474
f 158//158 268//268 476//476
f 503//503 128//128 84//84
f 134//134 506//506 5//5
f 260//260 208//208 448//448
f 226//226 449//449 283//283
f 226//226 300//300 229//229
f 499//499 493//493 488//488
f 30//30 33//33 127//127
f 347//347 387//387 420//420
f 238//238 352//352 470//470
f 415//415 150//150 170//170
f 30//30 36//36 33//33
f 415//415 387//387 150//150
f 265//265 150//150 387//387
f 215//215 150//150 478//478
f 74//74 143//143 18//18
f 419//419 422//422 324//324
f 265//265 478//478 150//150
f 282//282 249//249 161//161
f 419//419 439//439 466//466
f 274//274 193//193 482//482
f 199//199 342//342 318//318
f 294//294 210//210 191//191
f 274//274 482//482 222//222
f 64//64 132//132 112//112
f 365//365 432//432 307//307
f 473//473 151//151 437//437
f 294//294 321//321 314//314
f 509//509 10//10 13//13
f 509//509 71//71 14//14
f 138//138 103//103 41//41
f 138//138 41//41 16//16
f 228//228 198//198 290//290
f 15//15 24//24 461//461
f 292//292 317//317 331//331
f 513//513 127//127 79//79
f 221//221 295//295 294//294
f 343//343 344//344 319//319
f 355//355 248//248 181//181
f 286//286 252//252 203//203
f 111//111 133//133 113//113
f 49//49 11//11 23//23
f 389//389 94//94 160//160
f 20//20 64//64 58//58
f 250//250 438//438 417//417
f 155//155 430//430 404//404
f 171//171 389//389 250//250
f 173//173 195//195 480//480
f 401//401 365//365 355//355
f 298//298 358//358 222//222
f 237//237 317//317 222//222
f 261//261 222//222 358//358
f 33//33 36//36 31//31
f 88//88 222//222 317//317
f 22//22 58//58 52//52
f 88//88 310//310 320//320
f 21//21 473//473 108//108
f 88//88 369//369 310//310
f 15//15 28//28 119//119
f 96//96 178//178 456//456
f 469//469 345//345 312//312
f 469//469 312//312 183//183
f 298//298 94//94 358//358
f 65//65 112//112 131//131
f 22//22 20//20 58//58
f 401//401 432//432 365//365
f 228//228 296//296 451//451
f 74//74 28//28 15//15
f 476//476 268//268 362//362
f 514//514 25//25 27//27
f 311//311 327//327 341//341
f 111//111 114//114 133//133
f 418//418 155//155 404//404
f 197//197 309//309 368//368
f 492//492 303//303 224//224
f 310//310 369//369 230//230
f 173//173 86//86 460//460
f 130//130 2//2 3//3
f 89//89 168//168 458//458
f 28//28 131//131 112//112
f 261//261 189//189 357//357
f 133//133 141//141 113//113
f 290//290 307//307 463//463
f 272//272 180//180 282//282
f 225//225 460//460 169//169
f 265//265 347//347 371//371
f 49//49 53//53 85//85
f 88//88 283//283 274//274
f 154//154 156//156 386//386
f 91//91 480//480 354//354
f 269//269 284//284 249//249
f 347//347 350//350 387//387
f 250//250 152//152 438//438
f 177//177 351//351 267//267
f 414//414 436//436 399//399
f 139//139 142//142 125//125
f 237//237 222//222 357//357
f 192//192 398//398 271//271
f 56//56 45//45 67//67
f 499//499 497//497 494//494
f 8//8 28//28 6//6
f 309//309 470//470 367//367
f 273//273 355//355 181//181
f 292//292 331//331 461//461
f 99//99 177//177 467//467
f 373//373 346//346 185//185
f 116//116 31//31 36//36
f 285//285 311//311 381//381
f 225//225 161//161 304//304
f 305//305 308//308 319//319
f 234//234 375//375 492//492
f 292//292 461//461 230//230
f 244//244 479//479 267//267
f 169//169 168//168 89//89
f 390//390 383//383 446//446
f 389//389 401//401 355//355
f 38//38 122//122 37//37
f 476//476 243//243 361//361
f 376//376 327//327 276//276
f 236//236 365//365 307//307
f 334//334 103//103 64//64
f 244//244 491//491 490//490
f 233//233 165//165 442//442
f 163//163 202//202 255//255
f 492//492 194//194 216//216
f 390//390 381//381 341//341
f 139//139 80//80 81//81
f 428//428 450//450 93//93
f 364//364 492//492 328//328
f 184//184 170//170 150//150
f 52//52 72//72 118//118
f 457//457 177//177 452//452
f 343//343 366//366 218//218
f 8//8 2//2 130//130
f 435//435 180//180 458//458
f 179//179 281//281 416//416
f 88//88 274//274 222//222
f 393//393 241//241 433//433
f 135//135 7//7 41//41
f 300//300 170//170 449//449
f 226//226 196//196 227//227
f 179//179 247//247 281//281
f 194//194 485//485 208//208
f 272//272 161//161 447//447
f 392//392 110//110 385//385
f 18//18 16//16 28//28
f 457//457 475//475 351//351
f 105//105 391//391 491//491
f 377//377 420//420 387//387
f 220//220 286//286 203//203
f 220//220 87//87 286//286
f 250//250 355//355 182//182
f 15//15 12//12 13//13
f 473//473 159//159 438//438
f 105//105 133//133 114//114
f 278//278 245//245 325//325
f 433//433 241//241 396//396
f 192//192 271//271 370//370
f 38//38 2//2 8//8
f 506//506 32//32 30//30
f 156//156 384//384 500//500
f 260//260 354//354 480//480
f 244//244 351//351 475//475
f 153//153 236//236 444//444
f 262//262 394//394 345//345
f 29//29 127//127 33//33
f 488//488 68//68 47//47
f 269//269 249//249 282//282
f 461//461 437//437 330//330
f 260//260 448//448 459//459
f 334//334 4//4 514//514
f 51//51 85//85 53//53
f 366//366 425//425 218//218
f 291//291 230//230 461//461
f 343//343 368//368 344//344
f 380//380 153//153 394//394
f 222//222 338//338 231//231
f 287//287 280//280 177//177
f 21//21 108//108 4//4
f 281//281 284//284 270//270
f 434//434 485//485 110//110
f 500//500 497//497 498//498
f 85//85 77//77 504//504
f 414//414 413//413 426//426
f 392//392 166//166 110//110
f 495//495 43//43 513//513
f 305//305 367//367 259//259
f 168//168 345//345 458//458
f 476//476 263//263 243//243
f 162//162 445//445 186//186
f 147//147 140//140 56//56
f 443//443 379//379 166//166
f 380//380 262//262 153//153
f 472//472 459//459 448//448
f 220//220 454//454 87//87
f 492//492 485//485 194//194
f 343//343 342//342 366//366
f 411//411 448//448 208//208
f 428//428 159//159 397//397
f 340//340 303//303 235//235
f 374//374 268//268 377//377
f 171//171 417//417 93//93
f 217//217 208//208 260//260
f 507//507 126//126 142//142
f 172//172 345//345 86//86
f 214//214 199//199 308//308
f 205//205 101//101 106//106
f 500//500 493//493 494//494
f 51//51 53//53 119//119
f 469//469 248//248 355//355
f 100//100 110//110 465//465
f 96//96 456//456 287//287
f 107//107 72//72 119//119
f 147//147 42//42 144//144
f 82//82 76//76 83//83
f 326//326 315//315 348//348
f 349//349 328//328 375//375
f 91//91 354//354 459//459
f 16//16 41//41 7//7
f 269//269 435//435 284//284
f 278//278 325//325 256//256
f 73//73 422//422 79//79
f 8//8 130//130 28//28
f 104//104 334//334 339//339
f 44//44 131//131 129//129
f 326//326 337//337 315//315
f 172//172 312//312 345//345
f 265//265 350//350 347//347
f 48//48 69//69 60//60
f 49//49 23//23 26//26
f 314//314 420//420 405//405
f 455//455 468//468 245//245
f 266//266 483//483 478//478
f 366//366 370//370 271//271
f 473//473 378//378 151//151
f 158//158 476//476 246//246
f 306//306 299//299 336//336
f 265//265 242//242 266//266
f 175//175 464//464 296//296
f 127//127 140//140 141//141
f 291//291 310//310 230//230
f 187//187 211//211 203//203
f 374//374 415//415 326//326
f 187//187 203//203 252//252
f 134//134 115//115 122//122
f 226//226 197//197 196//196
f 244//244 267//267 351//351
f 383//383 436//436 395//395
f 254//254 198//198 277//277
f 456//456 280//280 287//287
f 513//513 56//56 149//149
f 286//286 87//87 454//454
f 103//103 51//51 57//57
f 227//227 306//306 336//336
f 483//483 215//215 478//478
f 127//127 149//149 140//140
f 183//183 240//240 283//283
f 508//508 85//85 507//507
f 428//428 397//397 450//450
f 389//389 382//382 441//441
f 134//134 32//32 506//506
f 348//348 315//315 323//323
f 333//333 315//315 299//299
f 374//374 362//362 268//268
f 1//1 64//64 20//20
f 217//217 484//484 194//194
f 341//341 327//327 316//316
f 348//348 325//325 245//245
f 414//414 427//427 413//413
f 62//62 67//67 54//54
f 426//426 413//413 425//425
f 435//435 436//436 412//412
f 437//437 320//320 330//330
f 446//446 162//162 445//445
f 238//238 239//239 352//352
f 508//508 78//78 75//75
f 446//446 445//445 167//167
f 356//356 241//241 240//240
f 228//228 220//220 296//296
f 77//77 76//76 505//505
f 314//314 405//405 324//324
f 446//446 167//167 394//394
f 244//244 475//475 97//97
f 513//513 149//149 127//127
f 457//457 452//452 97//97
f 376//376 276//276 253//253
f 287//287 280//280 186//186
f 99//99 467//467 456//456
f 220//220 203//203 296//296
f 179//179 161//161 249//249
f 349//349 364//364 328//328
f 179//179 416//416 408//408
f 99//99 456//456 178//178
f 455//455 176//176 90//90
f 313//313 292//292 230//230
f 509//509 14//14 10//10
f 424//424 409//409 432//432
f 56//56 140//140 149//149
f 333//333 306//306 336//336
f 81//81 80//80 75//75
f 349//349 327//327 376//376
f 496//496 465//465 109//109
f 329//329 489//489 511//511
f 103//103 85//85 51//51
f 94//94 397//397 429//429
f 139//139 148//148 142//142
f 487//487 50//50 71//71
f 83//83 76//76 77//77
f 226//226 336//336 300//300
f 487//487 510//510 69//69
f 96//96 464//464 178//178
f 446//446 383//383 395//395
f 262//262 365//365 236//236
f 421//421 461//461 293//293
f 192//192 206//206 398//398
f 504//504 505//505 501//501
f 508//508 55//55 46//46
f 196//196 219//219 206//206
f 508//508 59//59 55//55
f 139//139 81//81 84//84
f 287//287 186//186 258//258
f 220//220 290//290 454//454
f 508//508 69//69 510//510
f 419//419 324//324 405//405
f 492//492 479//479 490//490
f 503//503 142//142 128//128
f 111//111 122//122 103//103
f 217//217 260//260 480//480
f 161//161 399//399 383//383
f 139//139 84//84 148//148
f 147//147 56//56 61//61
f 16//16 7//7 28//28
f 15//15 119//119 26//26
f 313//313 230//230 369//369
f 456//456 467//467 280//280
f 322//322 347//347 420//420
f 147//147 62//62 54//54
f 265//265 387//387 350//350
f 266//266 359//359 483//483
f 452//452 464//464 98//98
f 462//462 360//360 90//90
f 508//508 49//49 85//85
f 257//257 100//100 288//288
f 364//364 267//267 479//479
f 496//496 176//176 465//465
f 509//509 487//487 71//71
f 451//451 296//296 464//464
f 393//393 379//379 165//165
f 44//44 334//334 65//65
f 15//15 127//127 501//501
f 205//205 159//159 473//473
f 100//100 465//465 176//176
f 213//213 210//210 201//201
f 279//279 288//288 188//188
f 133//133 28//28 130//130
f 405//405 420//420 439//439
f 496//496 386//386 500//500
f 64//64 103//103 58//58
f 233//233 373//373 299//299
f 272//272 447//447 458//458
f 139//139 146//146 80//80
f 228//228 277//277 198//198
f 196//196 206//206 486//486
f 440//440 255//255 187//187
f 434//434 402//402 433//433
f 349//349 376//376 364//364
f 421//421 335//335 406//406
f 315//315 323//323 299//299
f 393//393 433//433 402//402
f 44//44 65//65 131//131
f 298//298 222//222 231//231
f 105//105 106//106 133//133
f 59//59 70//70 75//75
f 147//147 67//67 62//62
f 294//294 201//201 210//210
f 322//322 420//420 314//314
f 440//440 159//159 205//205
f 86//86 345//345 168//168
f 446//446 395//395 167//167
f 276//276 186//186 253//253
f 111//111 121//121 114//114
f 455//455 90//90 468//468
f 174//174 454//454 95//95
f 116//116 122//122 117//117
f 462//462 90//90 176//176
f 187//187 255//255 211//211
f 147//147 136//136 146//146
f 56//56 48//48 60//60
f 372//372 315//315 348//348
f 217//217 480//480 195//195
f 340//340 224//224 303//303
f 384//384 301//301 289//289
f 244//244 452//452 477//477
f 476//476 362//362 263//263
f 272//272 458//458 180//180
f 462//462 176//176 264//264
f 334//334 488//488 301//301
f 253//253 186//186 287//287
f 213//213 207//207 210//210
f 276//276 162//162 186//186
f 209//209 413//413 427//427
f 302//302 304//304 341//341
f 204//204 105//105 491//491
f 447//447 89//89 458//458
f 293//293 461//461 331//331
f 214//214 192//192 199//199
f 56//56 67//67 61//61
f 197//197 343//343 218//218
f 476//476 264//264 246//246
f 154//154 386//386 110//110
f 429//429 397//397 159//159
f 388//388 155//155 157//157
f 213//213 338//338 482//482
f 270//270 412//412 425//425
f 435//435 394//394 395//395
f 488//488 48//48 56//56
f 109//109 110//110 386//386
f 147//147 146//146 137//137
f 503//503 84//84 78//78
f 417//417 159//159 428//428
f 261//261 190//190 481//481
f 474//474 243//243 263//263
f 73//73 17//17 461//461
f 78//78 84//84 81//81
f 415//415 170//170 326//326
f 508//508 66//66 60//60
f 348//348 315//315 325//325
f 408//408 423//423 399//399
f 221//221 382//382 231//231
f 487//487 69//69 68//68
f 313//313 88//88 317//317
f 128//128 142//142 148//148
f 111//111 102//102 121//121
f 453//453 95//95 454//454
f 495//495 488//488 56//56
f 83//83 85//85 123//123
f 213//213 482//482 193//193
f 91//91 459//459 172//172
f 225//225 340//340 235//235
f 304//304 161//161 390//390
f 356//356 396//396 241//241
f 294//294 295//295 201//201
f 278//278 455//455 245//245
f 276//276 381//381 162//162
f 244//244 97//97 452//452
f 393//393 259//259 352//352
f 476//476 361//361 264//264
f 32//32 122//122 116//116
f 254//254 277//277 287//287
f 356//356 92//92 396//396
f 293//293 331//331 200//200
f 374//374 348//348 362//362
f 15//15 11//11 9//9
f 248//248 320//320 437//437
f 508//508 60//60 69//69
f 440//440 212//212 204//204
f 225//225 304//304 340//340
f 167//167 445//445 162//162
f 487//487 514//514 50//50
f 293//293 189//189 481//481
f 363//363 466//466 439//439
f 435//435 412//412 284//284
f 468//468 90//90 360//360
f 343//343 318//318 342//342
f 469//469 355//355 345//345
f 508//508 12//12 9//9
f 333//333 336//336 299//299
f 393//393 165//165 223//223
f 111//111 103//103 102//102
f 410//410 401//401 441//441
f 407//407 398//398 206//206
f 279//279 385//385 110//110
f 256//256 185//185 442//442
f 372//372 348//348 323//323
f 363//363 439//439 246//246
f 223//223 336//336 232//232
f 207//207 193//193 215//215
f 363//363 246//246 264//264
f 49//49 26//26 53//53
f 233//233 346//346 373//373
f 400//400 463//463 409//409
f 431//431 398//398 407//407
f 508//508 510//510 12//12
f 44//44 512//512 334//334
f 147//147 144//144 140//140
f 440//440 163//163 255//255
f 179//179 408//408 161//161
f 127//127 141//141 130//130
f 388//388 382//382 221//221
f 253//253 287//287 177//177
f 135//135 6//6 7//7
f 269//269 282//282 180//180
f 445//445 258//258 186//186
f 410//410 424//424 432//432
f 1//1 28//28 132//132
f 443//443 442//442 165//165
f 101//101 133//133 106//106
f 225//225 195//195 173//173
f 291//291 330//330 310//310
f 133//133 130//130 141//141
f 187//187 252//252 286//286
f 184//184 449//449 170//170
f 426//426 425//425 412//412
f 473//473 438//438 152//152
f 409//409 307//307 432//432
f 453//453 454//454 463//463
f 250//250 182//182 152//152
f 254//254 287//287 186//186
f 305//305 344//344 367//367
f 66//66 45//45 60//60
f 281//281 270//270 271//271
f 429//429 190//190 358//358
f 238//238 470//470 283//283
f 297//297 422//422 335//335
f 434//434 403//403 402//402
f 503//503 507//507 142//142
f 443//443 165//165 379//379
f 73//73 79//79 127//127
f 222//222 482//482 338//338
f 82//82 83//83 123//123
f 372//372 474//474 263//263
f 429//429 159//159 190//190
f 254//254 186//186 444//444
f 265//265 371//371 242//242
f 147//147 61//61 67//67
f 499//499 494//494 493//493
f 29//29 31//31 35//35
f 302//302 316//316 234//234
f 15//15 26//26 23//23
f 376//376 267//267 364//364
f 389//389 441//441 401//401
f 495//495 499//499 488//488
f 113//113 141//141 124//124
f 409//409 463//463 307//307
f 400//400 453//453 463//463
f 232//232 336//336 306//306
f 414//414 423//423 427//427
f 431//431 407//407 423//423
f 389//389 93//93 450//450
f 233//233 336//336 223//223
f 302//302 224//224 340//340
f 158//158 439//439 420//420
f 209//209 218//218 413//413
f 46//46 59//59 67//67
f 46//46 55//55 59//59
f 213//213 201//201 338//338
f 389//389 160//160 382//382
f 349//349 375//375 316//316
f 175//175 332//332 98//98
f 197//197 368//368 343//343
f 244//244 490//490 479//479
f 514//514 108//108 25//25
f 483//483 207//207 215//215
f 333//333 299//299 323//323
f 256//256 325//325 373//373
f 8//8 6//6 40//40
f 167//167 395//395 394//394
f 111//111 122//122 121//121
f 111//111 121//121 122//122
f 42//42 137//137 146//146
f 117//117 120//120 39//39
f 440//440 204//204 163//163
f 278//278 288//288 455//455
f 389//389 450//450 94//94
f 411//411 485//485 434//434
f 59//59 75//75 80//80
f 270//270 284//284 412//412
f 32//32 116//116 36//36
f 173//173 172//172 86//86
f 410//410 432//432 401//401
f 407//407 427//427 423//423
f 290//290 198//198 307//307
f 266//266 242//242 359//359
f 452//452 98//98 477//477
f 237//237 189//189 200//200
f 225//225 169//169 89//89
f 488//488 47//47 48//48
f 487//487 68//68 488//488
f 244//244 477//477 491//491
f 261//261 358//358 190//190
f 125//125 124//124 145//145
f 164//164 385//385 188//188
f 333//333 323//323 315//315
f 181//181 248//248 151//151
f 343//343 319//319 308//308
f 298//298 160//160 94//94
f 431//431 416//416 271//271
f 172//172 459//459 312//312
f 408//408 399//399 161//161
f 474//474 348//348 245//245
f 99//99 464//464 452//452
f 484//484 235//235 216//216
f 104//104 102//102 334//334
f 407//407 206//206 219//219
f 392//392 443//443 166//166
f 364//364 479//479 492//492
f 417//417 428//428 93//93
f 372//372 323//323 315//315
f 104//104 103//103 102//102
f 104//104 102//102 103//103
f 143//143 138//138 18//18
f 390//390 161//161 383//383
f 136//136 54//54 146//146
f 250//250 389//389 355//355
f 349//349 316//316 327//327
f 298//298 231//231 160//160
f 209//209 196//196 197//197
f 279//279 257//257 288//288
f 496//496 500//500 498//498
f 373//373 315//315 299//299
f 101//101 28//28 133//133
f 214//214 206//206 192//192
f 457//457 351//351 177//177
f 326//326 170//170 337//337
f 418//418 157//157 155//155
f 373//373 325//325 315//315
f 207//207 191//191 210//210
f 111//111 117//117 122//122
f 96//96 451//451 464//464
f 287//287 258//258 280//280
f 56//56 60//60 45//45
f 103//103 72//72 52//52
f 455//455 288//288 100//100
f 209//209 427//427 219//219
f 269//269 180//180 435//435
f 225//225 235//235 195//195
f 411//411 396//396 448//448
f 496//496 109//109 386//386
f 488//488 489//489 301//301
f 371//371 294//294 242//242
f 500//500 494//494 497//497
f 363//363 264//264 176//176
f 414//414 399//399 423//423
f 426//426 412//412 436//436
f 490//490 391//391 384//384
f 255//255 202//202 211//211
f 355//355 365//365 262//262
f 73//73 127//127 17//17
f 314//314 321//321 347//347
f 500//500 511//511 493//493
f 490//490 491//491 391//391
f 493//493 489//489 488//488
f 74//74 123//123 143//143
f 65//65 334//334 64//64
f 270//270 425//425 366//366
f 302//302 234//234 224//224
f 484//484 216//216 194//194
f 411//411 208//208 485//485
f 329//329 289//289 301//301
f 413//413 218//218 425//425
f 227//227 486//486 232//232
f 388//388 221//221 294//294
f 300//300 336//336 299//299
f 68//68 69//69 47//47
f 162//162 444//444 186//186
f 166//166 379//379 403//403
f 374//374 326//326 348//348
f 179//179 249//249 284//284
f 217//217 194//194 208//208
f 293//293 481//481 190//190
f 440//440 155//155 335//335
f 164//164 188//188 256//256
f 184//184 215//215 193//193
f 335//335 422//422 406//406
f 84//84 128//128 148//148
f 508//508 75//75 70//70
f 278//278 188//188 288//288
f 164//164 256//256 442//442
f 59//59 146//146 54//54
f 256//256 373//373 185//185
f 164//164 392//392 385//385
f 265//265 266//266 478//478
f 496//496 498//498 176//176
f 407//407 219//219 427//427
f 302//302 340//340 304//304
f 107//107 118//118 72//72
f 305//305 232//232 486//486
f 211//211 202//202 332//332
f 377//377 387//387 415//415
f 388//388 441//441 382//382
f 300//300 337//337 170//170
f 279//279 110//110 257//257
f 388//388 157//157 441//441
f 297//297 324//324 422//422
f 508//508 507//507 78//78
f 440//440 335//335 293//293
f 418//418 404//404 424//424
f 400//400 430//430 453//453
f 285//285 381//381 276//276
f 59//59 80//80 146//146
f 446//446 167//167 162//162
f 260//260 459//459 354//354
f 156//156 500//500 386//386
f 234//234 316//316 375//375
f 302//302 341//341 316//316
f 21//21 19//19 28//28
f 446//446 162//162 381//381
f 466//466 498//498 497//497
f 83//83 77//77 85//85
f 410//410 418//418 424//424
f 295//295 338//338 201//201
f 1//1 20//20 28//28
f 309//309 367//367 344//344
f 174//174 95//95 155//155
f 175//175 98//98 464//464
f 184//184 150//150 215//215
f 174//174 275//275 286//286
f 111//111 113//113 120//120
f 400//400 424//424 404//404
f 174//174 155//155 275//275
f 473//473 461//461 437//437
f 154//154 492//492 384//384
f 294//294 191//191 359//359
f 104//104 121//121 102//102
f 473//473 152//152 378//378
f 225//225 173//173 460//460
f 388//388 294//294 155//155
f 228//228 290//290 220//220
f 79//79 422//422 497//497
f 500//500 384//384 289//289
f 274//274 283//283 449//449
f 139//139 145//145 146//146
f 99//99 178//178 464//464
f 334//334 301//301 339//339
f 111//111 120//120 117//117
f 117//117 39//39 126//126
f 171//171 250//250 417//417
f 135//135 40//40 6//6
f 48//48 47//47 69//69
f 139//139 125//125 145//145
f 15//15 461//461 17//17
f 125//125 39//39 124//124
f 145//145 124//124 144//144
f 38//38 37//37 2//2
f 506//506 130//130 5//5
f 435//435 345//345 394//394
f 116//116 35//35 31//31
f 29//29 33//33 31//31
f 502//502 35//35 116//116
f 462//462 264//264 360//360
f 440//440 293//293 159//159
f 135//135 41//41 103//103
f 135//135 103//103 40//40
f 197//197 470//470 309//309
f 85//85 116//116 126//126
f 342//342 370//370 366//366
f 85//85 126//126 507//507
f 143//143 123//123 85//85
f 333//333 299//299 306//306
f 143//143 85//85 103//103
f 74//74 15//15 82//82
f 15//15 9//9 12//12
f 15//15 505//505 76//76
f 393//393 305//305 259//259
f 175//175 296//296 332//332
f 63//63 72//72 103//103
f 28//28 112//112 132//132
f 455//455 100//100 176//176
f 233//233 442//442 346//346
f 158//158 246//246 439//439
f 293//293 190//190 159//159
f 10//10 15//15 13//13
f 103//103 52//52 58//58
f 164//164 442//442 443//443
f 380//380 394//394 262//262
f 39//39 120//120 124//124
f 153//153 444//444 162//162
f 440//440 187//187 155//155
f 25//25 461//461 27//27
f 506//506 30//30 127//127
f 173//173 91//91 172//172
f 204//204 106//106 105//105
f 22//22 28//28 20//20
f 15//15 23//23 11//11
f 454//454 290//290 463//463
f 154//154 384//384 156//156
f 205//205 106//106 212//212
f 239//239 353//353 471//471
f 483//483 191//191 207//207
f 78//78 81//81 75//75
f 353//353 240//240 241//241
f 94//94 429//429 358//358
f 383//383 399//399 436//436
f 504//504 77//77 505//505
f 22//22 118//118 28//28
f 94//94 450//450 397//397
f 204//204 477//477 202//202
f 138//138 16//16 18//18
f 63//63 57//57 119//119
f 186//186 280//280 258//258
f 184//184 274//274 449//449
f 169//169 86//86 168//168
f 30//30 32//32 36//36
f 197//197 283//283 470//470
f 305//305 223//223 232//232
f 154//154 110//110 492//492
f 278//278 256//256 188//188
f 513//513 79//79 499//499
f 141//141 140//140 144//144
f 71//71 50//50 24//24
f 459//459 183//183 312//312
f 335//335 314//314 324//324
f 371//371 347//347 321//321
f 21//21 28//28 473//473
f 19//19 129//129 28//28
f 251//251 187//187 286//286
f 311//311 341//341 381//381
f 134//134 122//122 32//32
f 88//88 183//183 283//283
f 254//254 444//444 198//198
f 129//129 131//131 28//28
f 509//509 510//510 487//487
f 474//474 245//245 264//264
f 293//293 200//200 189//189
f 384//384 339//339 301//301
f 25//25 473//473 461//461
f 281//281 271//271 416//416
f 361//361 474//474 264//264
f 105//105 104//104 339//339
f 261//261 357//357 222//222
f 421//421 293//293 335//335
f 63//63 119//119 72//72
f 310//310 330//330 320//320
f 251//251 275//275 155//155
f 199//199 192//192 370//370
f 217//217 195//195 484//484
f 473//473 28//28 101//101
f 105//105 114//114 121//121
f 26//26 119//119 53//53
f 484//484 195//195 235//235
f 492//492 110//110 485//485
f 460//460 86//86 169//169
f 334//334 102//102 103//103
f 317//317 200//200 331//331
f 273//273 152//152 182//182
f 472//472 240//240 183//183
f 34//34 35//35 502//502
f 500//500 289//289 511//511
f 279//279 188//188 385//385
f 421//421 406//406 73//73
f 164//164 443//443 392//392
f 410//410 441//441 157//157
f 174//174 286//286 454//454
f 15//15 17//17 127//127
f 251//251 286//286 275//275
f 233//233 299//299 336//336
f 166//166 403//403 110//110
f 198//198 236//236 307//307
f 273//273 182//182 355//355
f 372//372 362//362 348//348
f 285//285 276//276 327//327
f 509//509 13//13 510//510
f 297//297 335//335 324//324
f 259//259 367//367 470//470
f 158//158 420//420 377//377
f 99//99 452//452 177//177
f 502//502 116//116 85//85
f 59//59 54//54 67//67
f 211//211 332//332 203//203
f 143//143 103//103 138//138
f 96//96 277//277 451//451
f 492//492 216//216 303//303
f 469//469 320//320 248//248
f 253//253 177//177 267//267
f 63//63 103//103 57//57
f 372//372 263//263 362//362
f 39//39 142//142 126//126
f 204//204 212//212 106//106
f 393//393 239//239 471//471
f 363//363 176//176 466//466
f 431//431 271//271 398//398
f 196//196 486//486 227//227
f 209//209 197//197 218//218
f 27//27 24//24 50//50
f 514//514 27//27 50//50
f 417//417 438//438 159//159
f 273//273 378//378 152//152
f 125//125 142//142 39//39
f 492//492 375//375 328//328
f 44//44 19//19 512//512
f 483//483 359//359 191//191
f 14//14 71//71 24//24
f 431//431 423//423 408//408
f 214//214 486//486 206//206
f 10//10 14//14 15//15
f 390//390 446//446 381//381
f 209//209 219//219 196//196
f 508//508 70//70 59//59
f 257//257 110//110 100//100
f 435//435 458//458 345//345
f 147//147 54//54 136//136
f 176//176 498//498 466//466
f 227//227 232//232 306//306
f 46//46 67//67 66//66
f 508//508 46//46 66//66
f 261//261 481//481 189//189
f 431//431 408//408 416//416
f 51//51 119//119 57//57
f 508//508 9//9 11//11
f 283//283 240//240 353//353
f 238//238 283//283 353//353
f 337//337 299//299 315//315
f 162//162 186//186 258//258
f 113//113 124//124 120//120
f 162//162 258//258 445//445
f 382//382 160//160 231//231
f 361//361 243//243 474//474
f 410//410 157//157 418//418
f 134//134 5//5 115//115
f 355//355 262//262 345//345
f 216//216 235//235 303//303
f 281//281 247//247 284//284
f 493//493 511//511 489//489
f 403//403 379//379 402//402
f 92//92 448//448 396//396
f 467//467 177//177 280//280
f 329//329 511//511 289//289
f 393//393 402//402 379//379
f 309//309 344//344 368//368
f 204//204 202//202 163//163
f 115//115 37//37 122//122
f 335//335 294//294 314//314
f 34//34 29//29 35//35
f 313//313 369//369 88//88
f 205//205 473//473 101//101
f 393//393 223//223 305//305
f 294//294 359//359 242//242
f 343//343 308//308 318//318
f 38//38 40//40 122//122
f 226//226 229//229 449//449
f 434//434 110//110 403//403
f 472//472 92//92 356//356
f 472//472 183//183 459//459
f 237//237 357//357 189//189
f 25//25 108//108 473//473
f 248//248 437//437 151//151
f 74//74 82//82 123//123
f 214//214 305//305 486//486
f 411//411 434//434 433//433
f 74//74 18//18 28//28
f 291//291 461//461 330//330
f 453//453 430//430 95//95
f 514//514 4//4 108//108
f 469//469 183//183 88//88
f 305//305 319//319 344//344
f 225//225 447//447 161//161
f 66//66 67//67 45//45
f 334//334 514//514 487//487
f 272//272 282//282 161//161
f 376//376 253//253 267//267
f 42//42 146//146 145//145
f 457//457 97//97 475//475
f 419//419 466//466 422//422
f 115//115 3//3 37//37
f 492//492 490//490 384//384
f 334//334 512//512 4//4
f 82//82 15//15 76//76
f 109//109 465//465 110//110
f 442//442 185//185 346//346
f 393//393 471//471 241//241
f 503//503 78//78 507//507
f 472//472 356//356 240//240
f 384//384 391//391 339//339
f 270//270 366//366 271//271
f 304//304 390//390 341//341
f 213//213 193//193 207//207
f 96//96 287//287 277//277
f 226//226 227//227 336//336
f 107//107 28//28 118//118
f 141//141 144//144 124//124
f 199//199 370//370 342//342
f 27//27 461//461 24//24
f 173//173 480//480 91//91
f 469//469 88//88 320//320
f 335//335 155//155 294//294
f 300//300 299//299 337//337
f 155//155 95//95 430//430
f 179//179 284//284 247//247
f 371//371 321//321 294//294
f 313//313 317//317 292//292
f 446//446 153//153 162//162
f 147//147 137//137 42//42
f 273//273 181//181 378//378
f 225//225 89//89 447//447
f 444//444 236//236 198//198
f 393//393 352//352 239//239
f 238//238 353//353 239//239
f 199//199 318//318 308//308