# https://github.com/mikedh/trimesh
v -0.00831800 -0.01839600 0.03267400
v -0.00831800 -0.01910100 0.03000500
v -0.00819900 -0.01839600 0.03255000
v -0.00819900 -0.01907000 0.02999900
v -0.00831800 -0.02038800 0.02177500
v -0.00819900 -0.02035600 0.02177200
v -0.00831800 -0.02081800 0.01346100
v -0.00819900 -0.02078600 0.01346100
v -0.00819900 -0.02035600 0.00515100
v -0.00831800 -0.02038800 0.00514700
v -0.00819900 -0.01907000 -0.00307600
v -0.00831800 -0.01910100 -0.00308200
v -0.00819900 -0.01839600 -0.00562700
v -0.00831800 -0.01839600 -0.00575100
v -0.00840500 -0.01918600 -0.00309900
v -0.00840500 -0.01839600 -0.00609200
v -0.00840500 -0.02047400 0.00513900
v -0.00840500 -0.02090500 0.01346100
v -0.00840500 -0.02047400 0.02178400
v -0.00840500 -0.01918600 0.03002200
v -0.00840500 -0.01839600 0.03301500
v -0.00831800 -0.02053200 -0.00336700
v -0.00831800 -0.01839600 -0.01145200
v -0.00840500 -0.02044600 -0.00335000
v -0.00840500 -0.01839600 -0.01111200
v -0.00653600 -0.01839600 0.03255000
v -0.00653600 -0.01907000 0.02999900
v -0.00653600 -0.02035600 0.02177200
v -0.00653600 -0.02078600 0.01346100
v -0.00653600 -0.02035600 0.00515100
v -0.00653600 -0.01907000 -0.00307600
v -0.00653600 -0.01839600 -0.00562700
v -0.00840500 -0.02175400 0.00501200
v -0.00843700 -0.02163500 0.00502400
v -0.00843700 -0.02033000 -0.00332700
v -0.00843700 -0.01839600 -0.01064700
v -0.00843700 -0.01930300 -0.00312200
v -0.00843700 -0.01839600 -0.00655700
v -0.00843700 -0.02059300 0.00512700
v -0.00843700 -0.02102400 0.01346100
v -0.00843700 -0.02059300 0.02179600
v -0.00843700 -0.01930300 0.03004500
v -0.00843700 -0.01839600 0.03348000
v -0.00840500 -0.02219100 0.01346100
v -0.00843700 -0.02207200 0.01346100
v -0.00819900 -0.01839600 -0.01157700
v -0.00819900 -0.02056300 -0.00337400
v -0.00779200 -0.01839600 -0.01171900
v -0.00736800 -0.02056300 -0.00337400
v -0.00736800 -0.01839600 -0.01176700
v -0.00831800 -0.02184100 0.00500400
v -0.00694300 -0.01839600 -0.01171900
v -0.00653600 -0.02056300 -0.00337400
v -0.00653600 -0.01839600 -0.01157700
v -0.00641700 -0.01839600 0.03267400
v -0.00641700 -0.01910100 0.03000500
v -0.00641700 -0.02038800 0.02177500
v -0.00641700 -0.02081800 0.01346100
v -0.00641700 -0.02038800 0.00514700
v -0.00641700 -0.01910100 -0.00308200
v -0.00641700 -0.01839600 -0.00575100
v -0.00843700 -0.02163500 0.02189900
v -0.00843700 -0.02033000 0.03025000
v -0.00843700 -0.01839600 0.03757000
v -0.00840500 -0.02044600 0.03027300
v -0.00840500 -0.01839600 0.03803500
v -0.00840500 -0.02175400 0.02191000
v -0.00831800 -0.02227900 0.01346100
v -0.00819900 -0.02187300 0.00500100
v -0.00641700 -0.02053200 -0.00336700
v -0.00641700 -0.01839600 -0.01145200
v -0.00641700 -0.02184100 0.00500400
v -0.00633000 -0.02175400 0.00501200
v -0.00633000 -0.02044600 -0.00335000
v -0.00633000 -0.01918600 0.03002200
v -0.00633000 -0.01839600 0.03301500
v -0.00633000 -0.02047400 0.02178400
v -0.00633000 -0.02090500 0.01346100
v -0.00633000 -0.02047400 0.00513900
v -0.00633000 -0.01918600 -0.00309900
v -0.00633000 -0.01839600 -0.00609200
v -0.00633000 -0.01839600 -0.01111200
v -0.00831800 -0.02053200 0.03029000
v -0.00831800 -0.01839600 0.03837500
v -0.00831800 -0.02184100 0.02191900
v -0.00819900 -0.02231000 0.01346100
v -0.00653600 -0.02187300 0.00500100
v -0.00641700 -0.02227900 0.01346100
v -0.00633000 -0.02219100 0.01346100
v -0.00629800 -0.02163500 0.00502400
v -0.00629800 -0.02033000 -0.00332700
v -0.00629800 -0.02207200 0.01346100
v -0.00633000 -0.02175400 0.02191000
v -0.00629800 -0.02163500 0.02189900
v -0.00629800 -0.01930300 0.03004500
v -0.00629800 -0.01839600 0.03348000
v -0.00629800 -0.02059300 0.02179600
v -0.00629800 -0.02102400 0.01346100
v -0.00629800 -0.02059300 0.00512700
v -0.00629800 -0.01930300 -0.00312200
v -0.00629800 -0.01839600 -0.00655700
v -0.00629800 -0.01839600 -0.01064700
v -0.00819900 -0.01839600 0.03850000
v -0.00819900 -0.02056300 0.03029700
v -0.00779200 -0.01839600 0.03864200
v -0.00819900 -0.02187300 0.02192200
v -0.00653600 -0.02231000 0.01346100
v -0.00641700 -0.02184100 0.02191900
v -0.00633000 -0.02044600 0.03027300
v -0.00629800 -0.02033000 0.03025000
v -0.00629800 -0.01839600 0.03757000
v -0.00736800 -0.02056300 0.03029700
v -0.00653600 -0.02187300 0.02192200
v -0.00736800 -0.01839600 0.03869000
v -0.00641700 -0.02053200 0.03029000
v -0.00633000 -0.01839600 0.03803500
v -0.00653600 -0.02056300 0.03029700
v -0.00694300 -0.01839600 0.03864200
v -0.00641700 -0.01839600 0.03837500
v -0.00653600 -0.01839600 0.03850000
v -0.00103200 -0.01839600 0.03267400
v -0.00103200 -0.01910100 0.03000500
v -0.00091300 -0.01839600 0.03255000
v -0.00091300 -0.01907000 0.02999900
v -0.00103200 -0.02038800 0.02177500
v -0.00091300 -0.02035600 0.02177200
v -0.00103200 -0.02081800 0.01346100
v -0.00091300 -0.02078600 0.01346100
v -0.00091300 -0.02035600 0.00515100
v -0.00103200 -0.02038800 0.00514700
v -0.00091300 -0.01907000 -0.00307600
v -0.00103200 -0.01910100 -0.00308200
v -0.00091300 -0.01839600 -0.00562700
v -0.00103200 -0.01839600 -0.00575100
v -0.00111900 -0.01918600 -0.00309900
v -0.00111900 -0.01839600 -0.00609200
v -0.00111900 -0.02047400 0.00513900
v -0.00111900 -0.02090500 0.01346100
v -0.00111900 -0.02047400 0.02178400
v -0.00111900 -0.01918600 0.03002200
v -0.00111900 -0.01839600 0.03301500
v -0.00103200 -0.02053200 -0.00336700
v -0.00103200 -0.01839600 -0.01145200
v -0.00111900 -0.02044600 -0.00335000
v -0.00111900 -0.01839600 -0.01111200
v 0.00075000 -0.01839600 0.03255000
v 0.00075000 -0.01907000 0.02999900
v 0.00075000 -0.02035600 0.02177200
v 0.00075000 -0.02078600 0.01346100
v 0.00075000 -0.02035600 0.00515100
v 0.00075000 -0.01907000 -0.00307600
v 0.00075000 -0.01839600 -0.00562700
v -0.00111900 -0.02175400 0.00501200
v -0.00115100 -0.02163500 0.00502400
v -0.00115100 -0.02033000 -0.00332700
v -0.00115100 -0.01839600 -0.01064700
v -0.00115100 -0.01930300 -0.00312200
v -0.00115100 -0.01839600 -0.00655700
v -0.00115100 -0.02059300 0.00512700
v -0.00115100 -0.02102400 0.01346100
v -0.00115100 -0.02059300 0.02179600
v -0.00115100 -0.01930300 0.03004500
v -0.00115100 -0.01839600 0.03348000
v -0.00111900 -0.02219100 0.01346100
v -0.00115100 -0.02207200 0.01346100
v -0.00091300 -0.01839600 -0.01157700
v -0.00091300 -0.02056300 -0.00337400
v -0.00050600 -0.01839600 -0.01171900
v -0.00008200 -0.02056300 -0.00337400
v -0.00008200 -0.01839600 -0.01176700
v -0.00103200 -0.02184100 0.00500400
v 0.00034300 -0.01839600 -0.01171900
v 0.00075000 -0.02056300 -0.00337400
v 0.00075000 -0.01839600 -0.01157700
v 0.00086900 -0.01839600 0.03267400
v 0.00086900 -0.01910100 0.03000500
v 0.00086900 -0.02038800 0.02177500
v 0.00086900 -0.02081800 0.01346100
v 0.00086900 -0.02038800 0.00514700
v 0.00086900 -0.01910100 -0.00308200
v 0.00086900 -0.01839600 -0.00575100
v -0.00115100 -0.02163500 0.02189900
v -0.00115100 -0.02033000 0.03025000
v -0.00115100 -0.01839600 0.03757000
v -0.00111900 -0.02044600 0.03027300
v -0.00111900 -0.01839600 0.03803500
v -0.00111900 -0.02175400 0.02191000
v -0.00103200 -0.02227900 0.01346100
v -0.00091300 -0.02187300 0.00500100
v 0.00086900 -0.02053200 -0.00336700
v 0.00086900 -0.01839600 -0.01145200
v 0.00086900 -0.02184100 0.00500400
v 0.00095600 -0.02175400 0.00501200
v 0.00095600 -0.02044600 -0.00335000
v 0.00095600 -0.01918600 0.03002200
v 0.00095600 -0.01839600 0.03301500
v 0.00095600 -0.02047400 0.02178400
v 0.00095600 -0.02090500 0.01346100
v 0.00095600 -0.02047400 0.00513900
v 0.00095600 -0.01918600 -0.00309900
v 0.00095600 -0.01839600 -0.00609200
v 0.00095600 -0.01839600 -0.01111200
v -0.00103200 -0.02053200 0.03029000
v -0.00103200 -0.01839600 0.03837500
v -0.00103200 -0.02184100 0.02191900
v -0.00091300 -0.02231000 0.01346100
v 0.00075000 -0.02187300 0.00500100
v 0.00086900 -0.02227900 0.01346100
v 0.00095600 -0.02219100 0.01346100
v 0.00098800 -0.02163500 0.00502400
v 0.00098800 -0.02033000 -0.00332700
v 0.00098800 -0.02207200 0.01346100
v 0.00095600 -0.02175400 0.02191000
v 0.00098800 -0.02163500 0.02189900
v 0.00098800 -0.01930300 0.03004500
v 0.00098800 -0.01839600 0.03348000
v 0.00098800 -0.02059300 0.02179600
v 0.00098800 -0.02102400 0.01346100
v 0.00098800 -0.02059300 0.00512700
v 0.00098800 -0.01930300 -0.00312200
v 0.00098800 -0.01839600 -0.00655700
v 0.00098800 -0.01839600 -0.01064700
v -0.00091300 -0.01839600 0.03850000
v -0.00091300 -0.02056300 0.03029700
v -0.00050600 -0.01839600 0.03864200
v -0.00091300 -0.02187300 0.02192200
v 0.00075000 -0.02231000 0.01346100
v 0.00086900 -0.02184100 0.02191900
v 0.00095600 -0.02044600 0.03027300
v 0.00098800 -0.02033000 0.03025000
v 0.00098800 -0.01839600 0.03757000
v -0.00008200 -0.02056300 0.03029700
v 0.00075000 -0.02187300 0.02192200
v -0.00008200 -0.01839600 0.03869000
v 0.00086900 -0.02053200 0.03029000
v 0.00095600 -0.01839600 0.03803500
v 0.00075000 -0.02056300 0.03029700
v 0.00034300 -0.01839600 0.03864200
v 0.00086900 -0.01839600 0.03837500
v 0.00075000 -0.01839600 0.03850000
v -0.00349400 -0.01839600 0.06000400
v -0.00349400 -0.01491600 0.06000400
v 0.03152200 -0.01839600 0.06000400
v 0.03195700 -0.01491600 0.06000400
v 0.03195700 -0.01796100 0.06000400
v -0.00349400 -0.01839600 -0.05918000
v -0.00349400 -0.01491600 -0.05918000
v 0.03152200 -0.01839600 -0.05918000
v 0.03195700 -0.01796100 -0.05918000
v 0.03195700 -0.01491600 -0.05918000
v -0.03068000 -0.01796100 0.06000400
v -0.03068000 -0.01491600 0.06000400
v -0.03024500 -0.01839600 0.06000400
v -0.00414600 -0.01491600 0.06000400
v -0.00414600 -0.01839600 0.06000400
v -0.00414600 -0.01839600 -0.05918000
v -0.00414600 -0.01491600 -0.05918000
v -0.02589500 -0.01491600 -0.00480800
v -0.03068000 -0.01491600 -0.05918000
v -0.02589500 -0.01491600 0.01433100
v -0.00588600 -0.01491600 0.01433100
v -0.00588600 -0.01491600 -0.00480800
v -0.03068000 -0.01796100 -0.05918000
v -0.03024500 -0.01839600 -0.05918000
v -0.02589500 -0.00969600 0.01433100
v -0.02589500 -0.00969600 -0.00480800
v -0.00588600 -0.00969600 0.01433100
v -0.00588600 -0.00969600 -0.00480800
v 0.03195700 -0.01143600 -0.06483400
v 0.03195700 -0.01143600 -0.05918000
v 0.03195700 -0.01491600 -0.06483400
v -0.03068000 -0.01491600 -0.06483400
v 0.03195700 0.02814700 -0.06483400
v -0.03068000 0.02814700 -0.06483400
v -0.03068000 -0.01143600 -0.06483400
v -0.02990700 -0.01491600 -0.05961500
v -0.02990700 -0.01491600 -0.06048500
v -0.02990700 -0.01491600 -0.06135500
v 0.03118300 -0.01491600 -0.06048500
v -0.02990700 -0.01491600 -0.06222500
v -0.02990700 -0.01491600 -0.06309400
v 0.03118300 -0.01491600 -0.06222500
v -0.02990700 -0.01491600 -0.06396400
v 0.03118300 -0.01491600 -0.06396400
v 0.03118300 -0.01491600 -0.05961500
v 0.03118300 -0.01491600 -0.06135500
v 0.03118300 -0.01491600 -0.06309400
v -0.03068000 -0.01143600 -0.05918000
v -0.02990700 -0.01448100 -0.06396400
v 0.03118300 -0.01448100 -0.06309400
v -0.02990700 -0.01448100 -0.06309400
v 0.03118300 -0.01448100 -0.06396400
v -0.02990700 -0.01448100 -0.06222500
v 0.03118300 -0.01448100 -0.06135500
v -0.02990700 -0.01448100 -0.06135500
v 0.03118300 -0.01448100 -0.06222500
v -0.02990700 -0.01448100 -0.06048500
v 0.03118300 -0.01448100 -0.05961500
v -0.02990700 -0.01448100 -0.05961500
v 0.03118300 -0.01448100 -0.06048500
v 0.02700700 -0.01860500 0.05436300
v 0.02700800 -0.01860500 0.05349000
v 0.02700800 -0.01860500 0.05433900
v 0.02700700 -0.01860500 0.05346500
v 0.02700400 -0.01860500 0.05437700
v 0.02700400 -0.01860500 0.05345100
v 0.02699900 -0.01860500 0.05439100
v 0.02699900 -0.01860500 0.05343800
v 0.02699300 -0.01860500 0.05440300
v 0.02699300 -0.01860500 0.05342500
v 0.02698500 -0.01860500 0.05441500
v 0.02698500 -0.01860500 0.05341400
v 0.02697600 -0.01860500 0.05340300
v 0.02697600 -0.01860500 0.05442600
v 0.02696500 -0.01860500 0.05443500
v 0.02696500 -0.01860500 0.05339400
v 0.02695400 -0.01860500 0.05444300
v 0.02695400 -0.01860500 0.05338600
v 0.02694100 -0.01860500 0.05444900
v 0.02694100 -0.01860500 0.05337900
v 0.02692800 -0.01860500 0.05445400
v 0.02692800 -0.01860500 0.05337500
v 0.02691400 -0.01860500 0.05445600
v 0.02691400 -0.01860500 0.05337200
v 0.02688900 -0.01860500 0.05337100
v 0.02688900 -0.01860500 0.05445800
v 0.02169000 -0.01860500 0.05337100
v 0.02169000 -0.01860500 0.05445800
v 0.02166600 -0.01860500 0.05445600
v 0.02166600 -0.01860500 0.05337200
v 0.02165200 -0.01860500 0.05445400
v 0.02165200 -0.01860500 0.05337500
v 0.02163800 -0.01860500 0.05444900
v 0.02163800 -0.01860500 0.05337900
v 0.02162600 -0.01860500 0.05338600
v 0.02162600 -0.01860500 0.05444300
v 0.02161400 -0.01860500 0.05339400
v 0.02161400 -0.01860500 0.05443500
v 0.02160300 -0.01860500 0.05340300
v 0.02160300 -0.01860500 0.05442600
v 0.02159400 -0.01860500 0.05441500
v 0.02159400 -0.01860500 0.05341400
v 0.02158600 -0.01860500 0.05440300
v 0.02158600 -0.01860500 0.05342500
v 0.02158000 -0.01860500 0.05439100
v 0.02158000 -0.01860500 0.05343800
v 0.02157500 -0.01860500 0.05437700
v 0.02157500 -0.01860500 0.05345100
v 0.02157300 -0.01860500 0.05436300
v 0.02157300 -0.01860500 0.05346500
v 0.02157100 -0.01860500 0.05433900
v 0.02157100 -0.01860500 0.05349000
v 0.02169000 -0.01871400 0.05445800
v 0.02166600 -0.01871400 0.05445600
v 0.02165200 -0.01871400 0.05445400
v 0.02163800 -0.01871400 0.05444900
v 0.02162600 -0.01871400 0.05444300
v 0.02161400 -0.01871400 0.05443500
v 0.02160300 -0.01871400 0.05442600
v 0.02159400 -0.01871400 0.05441500
v 0.02158600 -0.01871400 0.05440300
v 0.02158000 -0.01871400 0.05439100
v 0.02157500 -0.01871400 0.05437700
v 0.02157300 -0.01871400 0.05436300
v 0.02157100 -0.01871400 0.05433900
v 0.02157100 -0.01871400 0.05349000
v 0.02157300 -0.01871400 0.05346500
v 0.02157500 -0.01871400 0.05345100
v 0.02158000 -0.01871400 0.05343800
v 0.02158600 -0.01871400 0.05342500
v 0.02159400 -0.01871400 0.05341400
v 0.02160300 -0.01871400 0.05340300
v 0.02161400 -0.01871400 0.05339400
v 0.02162600 -0.01871400 0.05338600
v 0.02163800 -0.01871400 0.05337900
v 0.02165200 -0.01871400 0.05337500
v 0.02166600 -0.01871400 0.05337200
v 0.02169000 -0.01871400 0.05337100
v 0.02688900 -0.01871400 0.05337100
v 0.02691400 -0.01871400 0.05337200
v 0.02692800 -0.01871400 0.05337500
v 0.02694100 -0.01871400 0.05337900
v 0.02695400 -0.01871400 0.05338600
v 0.02696500 -0.01871400 0.05339400
v 0.02697600 -0.01871400 0.05340300
v 0.02698500 -0.01871400 0.05341400
v 0.02699300 -0.01871400 0.05342500
v 0.02699900 -0.01871400 0.05343800
v 0.02700400 -0.01871400 0.05345100
v 0.02700700 -0.01871400 0.05346500
v 0.02700800 -0.01871400 0.05349000
v 0.02700800 -0.01871400 0.05433900
v 0.02700700 -0.01871400 0.05436300
v 0.02700400 -0.01871400 0.05437700
v 0.02699900 -0.01871400 0.05439100
v 0.02699300 -0.01871400 0.05440300
v 0.02698500 -0.01871400 0.05441500
v 0.02697600 -0.01871400 0.05442600
v 0.02696500 -0.01871400 0.05443500
v 0.02695400 -0.01871400 0.05444300
v 0.02694100 -0.01871400 0.05444900
v 0.02692800 -0.01871400 0.05445400
v 0.02691400 -0.01871400 0.05445600
v 0.02688900 -0.01871400 0.05445800
v 0.02162300 -0.01855100 0.05478100
v 0.02168000 -0.01855100 0.05478400
v 0.02156700 -0.01855100 0.05476900
v 0.02151300 -0.01855100 0.05475100
v 0.02146200 -0.01855100 0.05472600
v 0.02141500 -0.01855100 0.05469400
v 0.02137200 -0.01855100 0.05465700
v 0.02133500 -0.01855100 0.05461400
v 0.02130300 -0.01855100 0.05456700
v 0.02127800 -0.01855100 0.05451600
v 0.02126000 -0.01855100 0.05446200
v 0.02124900 -0.01855100 0.05440600
v 0.02124500 -0.01855100 0.05434900
v 0.02124500 -0.01855100 0.05347900
v 0.02124900 -0.01855100 0.05342300
v 0.02126000 -0.01855100 0.05336700
v 0.02127800 -0.01855100 0.05331300
v 0.02130300 -0.01855100 0.05326200
v 0.02133500 -0.01855100 0.05321500
v 0.02137200 -0.01855100 0.05317200
v 0.02141500 -0.01855100 0.05313400
v 0.02146200 -0.01855100 0.05310300
v 0.02151300 -0.01855100 0.05307700
v 0.02156700 -0.01855100 0.05305900
v 0.02162300 -0.01855100 0.05304800
v 0.02168000 -0.01855100 0.05304400
v 0.02690000 -0.01855100 0.05304400
v 0.02695600 -0.01855100 0.05304800
v 0.02701200 -0.01855100 0.05305900
v 0.02706600 -0.01855100 0.05307700
v 0.02711700 -0.01855100 0.05310300
v 0.02716400 -0.01855100 0.05313400
v 0.02720700 -0.01855100 0.05317200
v 0.02724500 -0.01855100 0.05321500
v 0.02727600 -0.01855100 0.05326200
v 0.02730200 -0.01855100 0.05331300
v 0.02732000 -0.01855100 0.05336700
v 0.02733100 -0.01855100 0.05342300
v 0.02733500 -0.01855100 0.05347900
v 0.02733500 -0.01855100 0.05434900
v 0.02733100 -0.01855100 0.05440600
v 0.02732000 -0.01855100 0.05446200
v 0.02730200 -0.01855100 0.05451600
v 0.02727600 -0.01855100 0.05456700
v 0.02724500 -0.01855100 0.05461400
v 0.02720700 -0.01855100 0.05465700
v 0.02716400 -0.01855100 0.05469400
v 0.02711700 -0.01855100 0.05472600
v 0.02706600 -0.01855100 0.05475100
v 0.02701200 -0.01855100 0.05476900
v 0.02695600 -0.01855100 0.05478100
v 0.02690000 -0.01855100 0.05478400
v 0.02162300 -0.01838800 0.05478100
v 0.02168000 -0.01838800 0.05478400
v 0.02156700 -0.01838800 0.05476900
v 0.02151300 -0.01838800 0.05475100
v 0.02146200 -0.01838800 0.05472600
v 0.02141500 -0.01838800 0.05469400
v 0.02137200 -0.01838800 0.05465700
v 0.02133500 -0.01838800 0.05461400
v 0.02130300 -0.01838800 0.05456700
v 0.02127800 -0.01838800 0.05451600
v 0.02126000 -0.01838800 0.05446200
v 0.02124900 -0.01838800 0.05440600
v 0.02124500 -0.01838800 0.05434900
v 0.02124500 -0.01838800 0.05347900
v 0.02124900 -0.01838800 0.05342300
v 0.02126000 -0.01838800 0.05336700
v 0.02127800 -0.01838800 0.05331300
v 0.02130300 -0.01838800 0.05326200
v 0.02133500 -0.01838800 0.05321500
v 0.02137200 -0.01838800 0.05317200
v 0.02141500 -0.01838800 0.05313400
v 0.02146200 -0.01838800 0.05310300
v 0.02151300 -0.01838800 0.05307700
v 0.02156700 -0.01838800 0.05305900
v 0.02162300 -0.01838800 0.05304800
v 0.02168000 -0.01838800 0.05304400
v 0.02690000 -0.01838800 0.05304400
v 0.02695600 -0.01838800 0.05304800
v 0.02701200 -0.01838800 0.05305900
v 0.02706600 -0.01838800 0.05307700
v 0.02711700 -0.01838800 0.05310300
v 0.02716400 -0.01838800 0.05313400
v 0.02720700 -0.01838800 0.05317200
v 0.02724500 -0.01838800 0.05321500
v 0.02727600 -0.01838800 0.05326200
v 0.02730200 -0.01838800 0.05331300
v 0.02732000 -0.01838800 0.05336700
v 0.02733100 -0.01838800 0.05342300
v 0.02733500 -0.01838800 0.05347900
v 0.02733500 -0.01838800 0.05434900
v 0.02733100 -0.01838800 0.05440600
v 0.02732000 -0.01838800 0.05446200
v 0.02730200 -0.01838800 0.05451600
v 0.02727600 -0.01838800 0.05456700
v 0.02724500 -0.01838800 0.05461400
v 0.02720700 -0.01838800 0.05465700
v 0.02716400 -0.01838800 0.05469400
v 0.02711700 -0.01838800 0.05472600
v 0.02706600 -0.01838800 0.05475100
v 0.02701200 -0.01838800 0.05476900
v 0.02695600 -0.01838800 0.05478100
v 0.02690000 -0.01838800 0.05478400
v 0.03195700 0.02814700 0.05956900
v -0.03068000 0.02814700 0.05956900
v -0.03068000 -0.01491600 0.05956900
v 0.03195700 -0.01491600 0.05956900
vn 0.00000000 -0.00000000 0.00000000
vn 0.00000000 -0.00000000 0.00000000
vn -0.00000000 0.00000000 -0.00000000
vn -0.00000000 0.00000000 -0.00000000
vn -0.00000000 0.00000000 -0.00000000
vn 0.00000000 -0.00000000 0.00000000
vn 0.00000000 -0.00000000 -0.00000000
vn 0.00000000 -0.00000000 0.00000000
vn 0.00000000 -0.00000000 -0.00000000
vn -0.00000000 0.00000000 0.00000000
vn -0.00000000 0.00000000 0.00000000
vn 0.00000000 -0.00000000 -0.00000000
vn -0.00000000 0.00000000 0.00000000
vn 0.00000000 -0.00000000 -0.00000000
vn 0.00000000 0.00000000 0.00000000
vn 0.00000000 -0.00000000 -0.00000000
vn -0.00000000 -0.00000000 -0.00000000
vn 0.00000000 0.00000000 0.00000000
vn 0.00000000 -0.00000000 0.00000000
vn -0.00000000 0.00000000 -0.00000000
vn -0.00000000 0.00000000 -0.00000000
vn 0.00000000 0.00000000 0.00000000
vn -0.00000000 -0.00000000 -0.00000000
vn -0.00000000 -0.00000000 -0.00000000
vn -0.00000000 0.00000000 0.00000000
vn 0.00000000 -0.00000000 0.00000000
vn 0.00000000 0.00000000 -0.00000000
vn -0.00000000 -0.00000000 0.00000000
vn 0.00000000 0.00000000 0.00000000
vn -0.00000000 -0.00000000 -0.00000000
vn 0.00000000 0.00000000 0.00000000
vn 0.00000000 0.00000000 0.00000000
vn -0.00000000 -0.00000000 -0.00000000
vn 0.00000000 0.00000000 0.00000000
vn 0.00000000 -0.00000000 -0.00000000
vn 0.00000000 0.00000000 0.00000000
vn -0.00000000 0.00000000 0.00000000
vn -0.00000000 0.00000000 0.00000000
vn 0.00000000 -0.00000000 -0.00000000
vn -0.00000000 0.00000000 0.00000000
vn 0.00000000 -0.00000000 0.00000000
vn -0.00000000 0.00000000 -0.00000000
vn 0.00000000 -0.00000000 0.00000000
vn 0.00000000 -0.00000000 0.00000000
vn 0.00000000 0.00000000 -0.00000000
vn -0.00000000 -0.00000000 -0.00000000
vn 0.00000000 0.00000000 0.00000000
vn -0.00000000 -0.00000000 -0.00000000
vn 0.00000000 -0.00000000 -0.00000000
vn 0.00000000 0.00000000 0.00000000
vn 0.00000000 0.00000000 0.00000000
vn 0.00000000 -0.00000000 0.00000000
vn -0.00000000 0.00000000 0.00000000
vn 0.00000000 -0.00000000 -0.00000000
vn -0.00000000 -0.00000000 0.00000000
vn -0.00000000 -0.00000000 0.00000000
vn 0.00000000 0.00000000 -0.00000000
vn -0.00000000 -0.00000000 0.00000000
vn 0.00000000 0.00000000 0.00000000
vn -0.00000000 -0.00000000 -0.00000000
vn -0.00000000 -0.00000000 -0.00000000
vn -0.00000000 -0.00000000 -0.00000000
vn -0.00000000 -0.00000000 0.00000000
vn 0.00000000 0.00000000 -0.00000000
vn 0.00000000 0.00000000 -0.00000000
vn -0.00000000 -0.00000000 0.00000000
vn -0.00000000 -0.00000000 0.00000000
vn 0.00000000 0.00000000 -0.00000000
vn -0.00000000 -0.00000000 -0.00000000
vn -0.00000000 -0.00000000 0.00000000
vn 0.00000000 -0.00000000 -0.00000000
vn -0.00000000 0.00000000 0.00000000
vn 0.00000000 -0.00000000 0.00000000
vn -0.00000000 -0.00000000 -0.00000000
vn 0.00000000 0.00000000 -0.00000000
vn 0.00000000 0.00000000 -0.00000000
vn -0.00000000 -0.00000000 0.00000000
vn -0.00000000 0.00000000 0.00000000
vn 0.00000000 -0.00000000 -0.00000000
vn 0.00000000 0.00000000 0.00000000
vn -0.00000000 0.00000000 0.00000000
vn 0.00000000 0.00000000 0.00000000
vn -0.00000000 -0.00000000 0.00000000
vn 0.00000000 0.00000000 -0.00000000
vn -0.00000000 -0.00000000 0.00000000
vn -0.00000000 -0.00000000 0.00000000
vn 0.00000000 0.00000000 -0.00000000
vn -0.00000000 0.00000000 -0.00000000
vn -0.00000000 0.00000000 0.00000000
vn 0.00000000 -0.00000000 -0.00000000
vn 0.00000000 -0.00000000 -0.00000000
vn 0.00000000 -0.00000000 -0.00000000
vn -0.00000000 0.00000000 0.00000000
vn -0.00000000 -0.00000000 -0.00000000
vn -0.00000000 -0.00000000 0.00000000
vn -0.00000000 -0.00000000 0.00000000
vn -0.00000000 -0.00000000 0.00000000
vn 0.00000000 0.00000000 0.00000000
vn -0.00000000 -0.00000000 -0.00000000
vn 0.00000000 0.00000000 0.00000000
vn -0.00000000 -0.00000000 -0.00000000
vn -0.00000000 0.00000000 0.00000000
vn -0.00000000 -0.00000000 0.00000000
vn 0.00000000 0.00000000 -0.00000000
vn -0.00000000 -0.00000000 0.00000000
vn 0.00000000 0.00000000 0.00000000
vn 0.00000000 -0.00000000 0.00000000
vn 0.00000000 -0.00000000 0.00000000
vn -0.00000000 0.00000000 -0.00000000
vn 0.00000000 -0.00000000 0.00000000
vn -0.00000000 0.00000000 -0.00000000
vn 0.00000000 -0.00000000 0.00000000
vn 0.00000000 -0.00000000 0.00000000
vn -0.00000000 0.00000000 -0.00000000
vn 0.00000000 -0.00000000 0.00000000
vn 0.00000000 -0.00000000 0.00000000
vn -0.00000000 0.00000000 -0.00000000
vn 0.00000000 0.00000000 -0.00000000
vn 0.00000000 0.00000000 -0.00000000
vn 0.00000000 -0.00000000 0.00000000
vn 0.00000000 -0.00000000 0.00000000
vn 0.00000000 -0.00000000 0.00000000
vn -0.00000000 0.00000000 -0.00000000
vn -0.00000000 0.00000000 -0.00000000
vn -0.00000000 0.00000000 -0.00000000
vn 0.00000000 -0.00000000 0.00000000
vn 0.00000000 -0.00000000 -0.00000000
vn 0.00000000 -0.00000000 0.00000000
vn 0.00000000 -0.00000000 -0.00000000
vn -0.00000000 0.00000000 0.00000000
vn -0.00000000 0.00000000 0.00000000
vn 0.00000000 -0.00000000 -0.00000000
vn -0.00000000 0.00000000 0.00000000
vn 0.00000000 -0.00000000 -0.00000000
vn -0.00000000 0.00000000 0.00000000
vn 0.00000000 -0.00000000 -0.00000000
vn -0.00000000 -0.00000000 -0.00000000
vn 0.00000000 0.00000000 0.00000000
vn 0.00000000 -0.00000000 0.00000000
vn -0.00000000 0.00000000 -0.00000000
vn -0.00000000 0.00000000 -0.00000000
vn 0.00000000 0.00000000 0.00000000
vn -0.00000000 -0.00000000 -0.00000000
vn -0.00000000 -0.00000000 -0.00000000
vn -0.00000000 0.00000000 0.00000000
vn 0.00000000 -0.00000000 0.00000000
vn 0.00000000 0.00000000 -0.00000000
vn -0.00000000 -0.00000000 0.00000000
vn 0.00000000 0.00000000 0.00000000
vn -0.00000000 -0.00000000 -0.00000000
vn 0.00000000 0.00000000 0.00000000
vn 0.00000000 0.00000000 0.00000000
vn -0.00000000 -0.00000000 -0.00000000
vn 0.00000000 0.00000000 0.00000000
vn 0.00000000 -0.00000000 -0.00000000
vn 0.00000000 0.00000000 0.00000000
vn -0.00000000 0.00000000 0.00000000
vn -0.00000000 0.00000000 0.00000000
vn 0.00000000 -0.00000000 -0.00000000
vn -0.00000000 0.00000000 0.00000000
vn 0.00000000 -0.00000000 0.00000000
vn -0.00000000 0.00000000 -0.00000000
vn 0.00000000 -0.00000000 0.00000000
vn 0.00000000 -0.00000000 0.00000000
vn 0.00000000 0.00000000 -0.00000000
vn -0.00000000 -0.00000000 -0.00000000
vn 0.00000000 0.00000000 0.00000000
vn -0.00000000 -0.00000000 -0.00000000
vn 0.00000000 -0.00000000 -0.00000000
vn 0.00000000 0.00000000 0.00000000
vn 0.00000000 0.00000000 0.00000000
vn -0.00000000 -0.00000000 0.00000000
vn -0.00000000 0.00000000 0.00000000
vn 0.00000000 -0.00000000 -0.00000000
vn -0.00000000 -0.00000000 0.00000000
vn -0.00000000 -0.00000000 0.00000000
vn 0.00000000 0.00000000 -0.00000000
vn -0.00000000 -0.00000000 -0.00000000
vn 0.00000000 0.00000000 0.00000000
vn -0.00000000 -0.00000000 -0.00000000
vn -0.00000000 -0.00000000 -0.00000000
vn -0.00000000 -0.00000000 -0.00000000
vn -0.00000000 -0.00000000 0.00000000
vn 0.00000000 0.00000000 -0.00000000
vn 0.00000000 0.00000000 -0.00000000
vn -0.00000000 -0.00000000 0.00000000
vn -0.00000000 -0.00000000 0.00000000
vn 0.00000000 0.00000000 -0.00000000
vn -0.00000000 -0.00000000 -0.00000000
vn -0.00000000 -0.00000000 0.00000000
vn 0.00000000 -0.00000000 -0.00000000
vn -0.00000000 0.00000000 0.00000000
vn 0.00000000 -0.00000000 0.00000000
vn -0.00000000 -0.00000000 -0.00000000
vn 0.00000000 0.00000000 -0.00000000
vn 0.00000000 0.00000000 -0.00000000
vn -0.00000000 -0.00000000 0.00000000
vn -0.00000000 0.00000000 0.00000000
vn 0.00000000 -0.00000000 -0.00000000
vn 0.00000000 0.00000000 0.00000000
vn -0.00000000 0.00000000 0.00000000
vn 0.00000000 0.00000000 0.00000000
vn -0.00000000 -0.00000000 0.00000000
vn 0.00000000 0.00000000 -0.00000000
vn -0.00000000 -0.00000000 0.00000000
vn -0.00000000 -0.00000000 0.00000000
vn 0.00000000 -0.00000000 -0.00000000
vn -0.00000000 0.00000000 -0.00000000
vn -0.00000000 0.00000000 0.00000000
vn 0.00000000 -0.00000000 -0.00000000
vn 0.00000000 -0.00000000 -0.00000000
vn 0.00000000 -0.00000000 -0.00000000
vn -0.00000000 0.00000000 0.00000000
vn -0.00000000 -0.00000000 -0.00000000
vn -0.00000000 -0.00000000 0.00000000
vn -0.00000000 -0.00000000 0.00000000
vn -0.00000000 -0.00000000 0.00000000
vn 0.00000000 0.00000000 0.00000000
vn -0.00000000 -0.00000000 -0.00000000
vn 0.00000000 0.00000000 0.00000000
vn -0.00000000 -0.00000000 -0.00000000
vn -0.00000000 0.00000000 0.00000000
vn -0.00000000 -0.00000000 0.00000000
vn 0.00000000 0.00000000 -0.00000000
vn 0.00000000 -0.00000000 0.00000000
vn 0.00000000 0.00000000 -0.00000000
vn 0.00000000 -0.00000000 0.00000000
vn 0.00000000 -0.00000000 0.00000000
vn -0.00000000 0.00000000 -0.00000000
vn 0.00000000 -0.00000000 0.00000000
vn -0.00000000 0.00000000 -0.00000000
vn 0.00000000 -0.00000000 0.00000000
vn 0.00000000 -0.00000000 0.00000000
vn -0.00000000 0.00000000 -0.00000000
vn 0.00000000 -0.00000000 0.00000000
vn 0.00000000 -0.00000000 0.00000000
vn -0.00000000 0.00000000 -0.00000000
vn 0.00000000 0.00000000 -0.00000000
vn 0.00000000 0.00000000 -0.00000000
vn 0.00000000 -0.00000000 0.00000000
vn -0.00000000 0.00000000 0.00000000
vn 0.00000000 0.00000000 0.00000000
vn 0.00000000 -0.00000000 -0.00000000
vn 0.00000000 0.00000000 0.00000000
vn -0.00000000 0.00000000 0.00000000
vn 0.00000000 0.00000000 0.00000000
vn -0.00000000 0.00000000 -0.00000000
vn -0.00000000 0.00000000 0.00000000
vn 0.00000000 -0.00000000 0.00000000
vn -0.00000000 -0.00000000 0.00000000
vn 0.00000000 0.00000000 0.00000000
vn -0.00000000 -0.00000000 -0.00000000
vn -0.00000000 -0.00000000 0.00000000
vn 0.00000000 -0.00000000 0.00000000
vn -0.00000000 -0.00000000 0.00000000
vn 0.00000000 0.00000000 0.00000000
vn -0.00000000 -0.00000000 -0.00000000
vn -0.00000000 0.00000000 -0.00000000
vn 0.00000000 0.00000000 0.00000000
vn 0.00000000 -0.00000000 -0.00000000
vn 0.00000000 0.00000000 0.00000000
vn -0.00000000 0.00000000 0.00000000
vn -0.00000000 -0.00000000 0.00000000
vn 0.00000000 0.00000000 -0.00000000
vn -0.00000000 0.00000000 0.00000000
vn 0.00000000 0.00000000 0.00000000
vn -0.00000000 0.00000000 -0.00000000
vn 0.00000000 0.00000000 -0.00000000
vn 0.00000000 0.00000000 -0.00000000
vn -0.00000000 0.00000000 0.00000000
vn -0.00000000 -0.00000000 0.00000000
vn -0.00000000 0.00000000 -0.00000000
vn 0.00000000 -0.00000000 0.00000000
vn 0.00000000 0.00000000 0.00000000
vn 0.00000000 0.00000000 0.00000000
vn 0.00000000 0.00000000 -0.00000000
vn 0.00000000 -0.00000000 -0.00000000
vn 0.00000000 0.00000000 -0.00000000
vn -0.00000000 0.00000000 0.00000000
vn -0.00000000 -0.00000000 -0.00000000
vn 0.00000000 0.00000000 -0.00000000
vn -0.00000000 0.00000000 0.00000000
vn 0.00000000 0.00000000 -0.00000000
vn -0.00000000 0.00000000 0.00000000
vn 0.00000000 -0.00000000 0.00000000
vn 0.00000000 -0.00000000 0.00000000
vn 0.00000000 -0.00000000 0.00000000
vn -0.00000000 0.00000000 0.00000000
vn 0.00000000 -0.00000000 0.00000000
vn -0.00000000 -0.00000000 -0.00000000
vn 0.00000000 0.00000000 0.00000000
vn 0.00000000 0.00000000 -0.00000000
vn 0.00000000 -0.00000000 0.00000000
vn -0.00000000 -0.00000000 -0.00000000
vn -0.00000000 0.00000000 0.00000000
vn 0.00000000 0.00000000 -0.00000000
vn 0.00000000 -0.00000000 0.00000000
vn -0.00000000 -0.00000000 -0.00000000
vn 0.00000000 0.00000000 0.00000000
vn 0.00000000 0.00000000 -0.00000000
vn 0.00000000 -0.00000000 0.00000000
vn 0.00000000 0.99999999 -0.00013053
vn 0.00000000 0.00000000 0.00000000
vn -0.00000000 0.00000000 0.00000000
vn -0.01029279 -0.99994491 -0.00205856
vn 0.00000000 -0.00000000 -0.00000000
vn 0.00000000 0.00000000 0.00000000
vn 0.00000000 -0.00000000 -0.00000000
vn -0.00000000 0.00000000 -0.00000000
vn 0.00000000 0.00000000 -0.00000000
vn 0.00000000 -0.00000000 0.00000000
vn -0.00000000 -0.00000000 0.00000000
vn 0.00000000 -0.00000000 -0.00000000
vn -0.00000000 0.00000000 -0.00000000
vn 0.00000000 0.00000000 0.00000000
vn -0.00000000 0.00000000 0.00000000
vn 0.00000000 -0.00000000 0.00000000
vn -0.00000000 -0.00000000 0.00000000
vn -0.00000000 0.00000000 -0.00000000
vn 0.00000000 -0.00000000 -0.00000000
vn 0.00000000 -0.00000000 0.00000000
vn 0.00000000 -0.00000000 -0.00000000
vn -0.00000000 0.00000000 -0.00000000
vn 0.00000000 -0.00000000 0.00000000
vn 0.00000000 0.00000000 0.00000000
vn 0.00000000 0.00000000 0.00000000
vn 0.00000000 0.00000000 -0.00000000
vn -0.00000000 0.00000000 -0.00000000
vn 0.00000000 -0.00000000 -0.00000000
vn 0.00000000 -0.00000000 0.00000000
vn -0.00000000 -0.00000000 0.00000000
vn -0.00000000 -0.00000000 -0.00000000
vn -0.00000000 0.00000000 0.00000000
vn 0.00000000 0.00000000 0.00000000
vn 0.00000000 0.00000000 0.00000000
vn 0.00000000 -0.00000000 -0.00000000
vn -0.00000000 -0.00000000 0.00000000
vn 0.00000000 -0.00000000 -0.00000000
vn 0.00000000 -0.00000000 0.00000000
vn -0.00000000 -0.00000000 0.00000000
vn 0.00000000 0.00000000 -0.00000000
vn -0.00000000 -0.00000000 -0.00000000
vn 0.00000000 0.00000000 0.00000000
vn -0.00000000 -0.00000000 0.00000000
vn -0.00000000 0.00000000 0.00000000
vn 0.00000000 0.00000000 0.00000000
vn 0.00000000 -0.00000000 -0.00000000
vn -0.00000000 0.00000000 -0.00000000
vn -0.00000000 0.00000000 0.00000000
vn 0.00000000 -0.00000000 0.00000000
vn -0.00000000 -0.00000000 0.00000000
vn -0.00000000 0.00000000 -0.00000000
vn -0.00000000 -0.00000000 0.00000000
vn -0.00000000 -0.00000000 0.00000000
vn 0.00000000 0.00000000 -0.00000000
vn 0.00000000 -0.00000000 0.00000000
vn -0.00000000 0.00000000 0.00000000
vn -0.00000000 -0.00000000 0.00000000
vn 0.00000000 0.00000000 -0.00000000
vn -0.00000000 -0.00000000 0.00000000
vn 0.00000000 0.00000000 -0.00000000
vn -0.00000000 -0.00000000 0.00000000
vn 0.00000000 0.00000000 -0.00000000
vn 0.00000000 -0.00000000 -0.00000000
vn -0.00000000 -0.00000000 0.00000000
vn 0.00000000 0.00000000 0.00000000
vn -0.00000000 -0.00000000 -0.00000000
vn -0.00000000 -0.00000000 -0.00000000
vn 0.00000000 0.00000000 0.00000000
vn 0.00000000 0.00000000 -0.00000000
vn 0.00000000 0.00000000 0.00000000
vn -0.00000000 -0.00000000 -0.00000000
vn 0.00000000 0.00000000 0.00000000
vn 0.00000000 0.00000000 0.00000000
vn -0.00000000 -0.00000000 -0.00000000
vn 0.00000000 0.00000000 0.00000000
vn -0.00000000 -0.00000000 -0.00000000
vn -0.00000000 0.00000000 0.00000000
vn -0.00000000 0.00000000 -0.00000000
vn 0.00000000 -0.00000000 -0.00000000
vn -0.00000000 0.00000000 0.00000000
vn 0.00000000 -0.00000000 -0.00000000
vn -0.00000000 0.00000000 0.00000000
vn -0.00000000 0.00000000 0.00000000
vn 0.00000000 -0.00000000 -0.00000000
vn 0.00000000 0.00000000 -0.00000000
vn -0.00000000 0.00000000 0.00000000
vn -0.00000000 0.00000000 0.00000000
vn -0.00000000 0.00000000 0.00000000
vn 0.00000000 0.00000000 -0.00000000
vn 0.00000000 0.00000000 0.00000000
vn 0.00000000 -0.00000000 0.00000000
vn -0.00000000 0.00000000 -0.00000000
vn 0.00000000 -0.00000000 0.00000000
vn -0.00000000 0.00000000 -0.00000000
vn 0.00000000 -0.00000000 0.00000000
vn -0.00000000 0.00000000 -0.00000000
vn 0.00000000 0.00000000 0.00000000
vn -0.00000000 0.00000000 -0.00000000
vn -0.00000000 0.00000000 -0.00000000
vn 0.00000000 -0.00000000 0.00000000
vn -0.00000000 0.00000000 -0.00000000
vn -0.00000000 0.00000000 0.00000000
vn -0.00000000 0.00000000 -0.00000000
vn 0.00000000 0.00000000 -0.00000000
vn 0.00000000 0.00000000 -0.00000000
vn -0.00000000 -0.00000000 0.00000000
vn -0.00000000 0.00000000 0.00000000
vn 0.00000000 -0.00000000 0.00000000
vn -0.00000000 -0.00000000 0.00000000
vn -0.00000000 -0.00000000 0.00000000
vn 0.00000000 0.00000000 -0.00000000
vn 0.00000000 -0.00000000 -0.00000000
vn 0.00000000 0.00000000 -0.00000000
vn -0.00000000 -0.00000000 0.00000000
vn 0.00000000 0.00000000 -0.00000000
vn 0.00000000 0.00000000 -0.00000000
vn 0.00000000 0.00000000 0.00000000
vn -0.00000000 -0.00000000 -0.00000000
vn 0.00000000 0.00000000 -0.00000000
vn 0.00000000 0.00000000 0.00000000
vn -0.00000000 -0.00000000 -0.00000000
vn -0.00000000 -0.00000000 -0.00000000
vn 0.00000000 0.00000000 0.00000000
vn -0.00000000 0.00000000 -0.00000000
vn -0.00000000 -0.00000000 -0.00000000
vn 0.00000000 0.00000000 0.00000000
vn -0.00000000 -0.00000000 -0.00000000
vn 0.00000000 0.00000000 0.00000000
vn -0.00000000 -0.00000000 -0.00000000
vn 0.00000000 -0.00000000 0.00000000
vn -0.00000000 0.00000000 0.00000000
vn 0.00000000 -0.00000000 -0.00000000
vn 0.00000000 0.00000000 0.00000000
vn 0.00000000 -0.00000000 -0.00000000
vn 0.00000000 -0.00000000 -0.00000000
vn -0.00000000 0.00000000 0.00000000
vn 0.00000000 -0.00000000 -0.00000000
vn 0.00000000 -0.00000000 -0.00000000
vn 0.00000000 -0.00000000 -0.00000000
vn 0.00000000 -0.00000000 -0.00000000
vn 0.00000000 -0.00000000 0.00000000
vn 0.00000000 -0.00000000 0.00000000
vn 0.00000000 0.00000000 0.00000000
vn -0.00000000 0.00000000 -0.00000000
vn -0.00000000 0.00000000 -0.00000000
vn 0.00000000 -0.00000000 0.00000000
vn -0.00000000 0.00000000 -0.00000000
vn 0.00000000 -0.00000000 0.00000000
vn 0.00000000 -0.00000000 0.00000000
vn -0.00000000 0.00000000 -0.00000000
vn 0.00000000 -0.00000000 0.00000000
vn -0.00000000 0.00000000 -0.00000000
vn 0.00000000 -0.00000000 0.00000000
vn 0.00000000 0.00000000 0.00000000
vn 0.00000000 -0.00000000 0.00000000
vn 0.00000000 -0.00000000 0.00000000
vn 0.00000000 -0.00000000 0.00000000
vn -0.00000000 0.00000000 0.00000000
vn 0.00000000 -0.00000000 -0.00000000
vn -0.00000000 -0.00000000 0.00000000
vn 0.00000000 0.00000000 -0.00000000
vn -0.00000000 -0.00000000 0.00000000
vn 0.00000000 0.00000000 -0.00000000
vn -0.00000000 -0.00000000 0.00000000
vn 0.00000000 -0.00000000 -0.00000000
vn -0.00000000 -0.00000000 0.00000000
vn 0.00000000 -0.00000000 0.00000000
vn -0.00000000 0.00000000 0.00000000
vn 0.00000000 -0.00000000 0.00000000
vn 0.00000000 0.00000000 0.00000000
vn 0.00000000 0.00000000 0.00000000
vn -0.00000000 0.00000000 0.00000000
vn 0.00000000 -0.00000000 0.00000000
vn -0.00000000 0.00000000 -0.00000000
vn 0.00000000 -0.00000000 0.00000000
vn 0.00000000 0.00000000 0.00000000
vn -0.00000000 0.00000000 -0.00000000
vn -0.00000000 -0.00000000 -0.00000000
vn 0.00000000 0.00000000 0.00000000
vn 0.00000000 0.00000000 0.00000000
vn 0.00000000 -0.00000000 0.00000000
vn 0.00000000 0.00000000 -0.00000000
vn 0.00000000 0.00000000 0.00000000
vn 0.00000000 -0.00000000 0.00000000
vn -0.00000000 -0.00000000 0.00000000
vn -0.00000000 -0.00000000 0.00000000
vn 0.00000000 0.00000000 -0.00000000
vn 0.00000000 0.00000000 0.00000000
vn -0.00000000 0.00000000 0.00000000
vn 0.00000000 -0.00000000 0.00000000
vn -0.00000000 0.00000000 0.00000000
vn 0.00000000 0.00000000 -0.00000000
vn 0.00000000 0.00000000 -0.00000000
vn 0.00000000 -0.00000000 0.00000000
vn -0.00000000 -0.00000000 -0.00000000
vn 0.00000000 -0.00000000 -0.00000000
vn -0.00000000 -0.00000000 -0.00000000
vn 0.00000000 0.00000000 0.00000000
vn -0.00000000 -0.00000000 -0.00000000
vn 0.00000000 -0.00000000 0.00000000
vn 0.00000000 0.00000000 0.00000000
vn 0.00000000 0.00000000 0.00000000
vn 0.00000000 0.00000000 -0.00000000
vn -0.00000000 -0.00000000 -0.00000000
vn -0.00000000 -0.00000000 -0.00000000
vn 0.00000000 -0.00000000 0.00000000
vn 0.00000000 -0.00000000 -0.00000000
vn 0.00000000 0.00000000 -0.00000000
vn 0.00000000 -0.00000000 0.00000000
vn 0.00000000 -0.00000000 -0.00000000
vn 0.00000000 0.00000000 0.00000000
f 1//1 2//2 3//3
f 4//4 3//3 2//2
f 2//2 5//5 4//4
f 6//6 4//4 5//5
f 5//5 7//7 6//6
f 8//8 6//6 7//7
f 8//8 7//7 9//9
f 10//10 9//9 7//7
f 9//9 10//10 11//11
f 12//12 11//11 10//10
f 11//11 12//12 13//13
f 14//14 13//13 12//12
f 15//15 16//16 12//12
f 14//14 12//12 16//16
f 17//17 15//15 10//10
f 12//12 10//10 15//15
f 18//18 17//17 7//7
f 10//10 7//7 17//17
f 18//18 7//7 19//19
f 5//5 19//19 7//7
f 19//19 5//5 20//20
f 2//2 20//20 5//5
f 20//20 2//2 21//21
f 1//1 21//21 2//2
f 22//22 23//23 24//24
f 25//25 24//24 23//23
f 26//26 3//3 27//27
f 4//4 27//27 3//3
f 27//27 4//4 28//28
f 6//6 28//28 4//4
f 28//28 6//6 29//29
f 8//8 29//29 6//6
f 29//29 8//8 30//30
f 9//9 30//30 8//8
f 30//30 9//9 31//31
f 11//11 31//31 9//9
f 31//31 11//11 32//32
f 13//13 32//32 11//11
f 33//33 24//24 34//34
f 35//35 34//34 24//24
f 24//24 25//25 35//35
f 36//36 35//35 25//25
f 37//37 38//38 15//15
f 16//16 15//15 38//38
f 39//39 37//37 17//17
f 15//15 17//17 37//37
f 40//40 39//39 18//18
f 17//17 18//18 39//39
f 40//40 18//18 41//41
f 19//19 41//41 18//18
f 41//41 19//19 42//42
f 20//20 42//42 19//19
f 42//42 20//20 43//43
f 21//21 43//43 20//20
f 44//44 33//33 45//45
f 34//34 45//45 33//33
f 46//46 47//47 48//48
f 48//48 49//49 50//50
f 51//51 22//22 33//33
f 24//24 33//33 22//22
f 22//22 47//47 23//23
f 46//46 23//23 47//47
f 49//49 52//52 50//50
f 53//53 54//54 52//52
f 55//55 26//26 56//56
f 27//27 56//56 26//26
f 56//56 27//27 57//57
f 28//28 57//57 27//27
f 57//57 28//28 58//58
f 29//29 58//58 28//28
f 58//58 29//29 59//59
f 30//30 59//59 29//29
f 30//30 31//31 59//59
f 60//60 59//59 31//31
f 31//31 32//32 60//60
f 61//61 60//60 32//32
f 62//62 40//40 63//63
f 41//41 63//63 40//40
f 42//42 63//63 41//41
f 64//64 63//63 42//42
f 43//43 64//64 42//42
f 45//45 34//34 62//62
f 35//35 62//62 34//34
f 40//40 62//62 35//35
f 39//39 40//40 35//35
f 37//37 39//39 35//35
f 36//36 37//37 35//35
f 38//38 37//37 36//36
f 65//65 63//63 66//66
f 64//64 66//66 63//63
f 44//44 45//45 67//67
f 62//62 67//67 45//45
f 68//68 51//51 44//44
f 33//33 44//44 51//51
f 47//47 49//49 48//48
f 51//51 69//69 22//22
f 47//47 22//22 69//69
f 49//49 53//53 52//52
f 70//70 71//71 53//53
f 54//54 53//53 71//71
f 72//72 73//73 70//70
f 74//74 70//70 73//73
f 75//75 76//76 56//56
f 55//55 56//56 76//76
f 77//77 75//75 57//57
f 56//56 57//57 75//75
f 78//78 77//77 58//58
f 57//57 58//58 77//77
f 78//78 58//58 79//79
f 59//59 79//79 58//58
f 79//79 59//59 80//80
f 60//60 80//80 59//59
f 80//80 60//60 81//81
f 61//61 81//81 60//60
f 70//70 74//74 71//71
f 82//82 71//71 74//74
f 67//67 62//62 65//65
f 63//63 65//65 62//62
f 83//83 65//65 84//84
f 66//66 84//84 65//65
f 68//68 44//44 85//85
f 67//67 85//85 44//44
f 86//86 69//69 68//68
f 51//51 68//68 69//69
f 87//87 53//53 69//69
f 47//47 69//69 53//53
f 49//49 47//47 53//53
f 72//72 70//70 87//87
f 53//53 87//87 70//70
f 88//88 89//89 72//72
f 73//73 72//72 89//89
f 73//73 90//90 74//74
f 91//91 74//74 90//90
f 89//89 92//92 73//73
f 90//90 73//73 92//92
f 89//89 93//93 92//92
f 94//94 92//92 93//93
f 95//95 96//96 75//75
f 76//76 75//75 96//96
f 97//97 95//95 77//77
f 75//75 77//77 95//95
f 98//98 97//97 78//78
f 77//77 78//78 97//97
f 98//98 78//78 99//99
f 79//79 99//99 78//78
f 99//99 79//79 100//100
f 80//80 100//100 79//79
f 100//100 80//80 101//101
f 81//81 101//101 80//80
f 74//74 91//91 82//82
f 102//102 82//82 91//91
f 85//85 67//67 83//83
f 65//65 83//83 67//67
f 103//103 104//104 84//84
f 83//83 84//84 104//104
f 103//103 105//105 104//104
f 106//106 86//86 85//85
f 68//68 85//85 86//86
f 107//107 87//87 86//86
f 69//69 86//86 87//87
f 107//107 88//88 87//87
f 72//72 87//87 88//88
f 88//88 108//108 89//89
f 93//93 89//89 108//108
f 93//93 109//109 94//94
f 110//110 94//94 109//109
f 92//92 94//94 90//90
f 91//91 90//90 94//94
f 98//98 91//91 94//94
f 99//99 91//91 98//98
f 100//100 91//91 99//99
f 102//102 91//91 100//100
f 101//101 102//102 100//100
f 94//94 110//110 98//98
f 97//97 98//98 110//110
f 95//95 97//97 110//110
f 111//111 95//95 110//110
f 96//96 95//95 111//111
f 104//104 106//106 83//83
f 85//85 83//83 106//106
f 104//104 105//105 112//112
f 113//113 107//107 106//106
f 86//86 106//106 107//107
f 105//105 114//114 112//112
f 113//113 108//108 107//107
f 88//88 107//107 108//108
f 108//108 115//115 93//93
f 109//109 93//93 115//115
f 109//109 116//116 110//110
f 111//111 110//110 116//116
f 104//104 112//112 106//106
f 113//113 106//106 112//112
f 112//112 117//117 113//113
f 114//114 118//118 112//112
f 117//117 115//115 113//113
f 108//108 113//113 115//115
f 115//115 119//119 109//109
f 116//116 109//109 119//119
f 118//118 117//117 112//112
f 120//120 119//119 117//117
f 115//115 117//117 119//119
f 118//118 120//120 117//117
f 121//121 122//122 123//123
f 124//124 123//123 122//122
f 122//122 125//125 124//124
f 126//126 124//124 125//125
f 125//125 127//127 126//126
f 128//128 126//126 127//127
f 128//128 127//127 129//129
f 130//130 129//129 127//127
f 129//129 130//130 131//131
f 132//132 131//131 130//130
f 131//131 132//132 133//133
f 134//134 133//133 132//132
f 135//135 136//136 132//132
f 134//134 132//132 136//136
f 137//137 135//135 130//130
f 132//132 130//130 135//135
f 138//138 137//137 127//127
f 130//130 127//127 137//137
f 138//138 127//127 139//139
f 125//125 139//139 127//127
f 139//139 125//125 140//140
f 122//122 140//140 125//125
f 140//140 122//122 141//141
f 121//121 141//141 122//122
f 142//142 143//143 144//144
f 145//145 144//144 143//143
f 146//146 123//123 147//147
f 124//124 147//147 123//123
f 147//147 124//124 148//148
f 126//126 148//148 124//124
f 148//148 126//126 149//149
f 128//128 149//149 126//126
f 149//149 128//128 150//150
f 129//129 150//150 128//128
f 150//150 129//129 151//151
f 131//131 151//151 129//129
f 151//151 131//131 152//152
f 133//133 152//152 131//131
f 153//153 144//144 154//154
f 155//155 154//154 144//144
f 144//144 145//145 155//155
f 156//156 155//155 145//145
f 157//157 158//158 135//135
f 136//136 135//135 158//158
f 159//159 157//157 137//137
f 135//135 137//137 157//157
f 160//160 159//159 138//138
f 137//137 138//138 159//159
f 160//160 138//138 161//161
f 139//139 161//161 138//138
f 161//161 139//139 162//162
f 140//140 162//162 139//139
f 162//162 140//140 163//163
f 141//141 163//163 140//140
f 164//164 153//153 165//165
f 154//154 165//165 153//153
f 166//166 167//167 168//168
f 168//168 169//169 170//170
f 171//171 142//142 153//153
f 144//144 153//153 142//142
f 142//142 167//167 143//143
f 166//166 143//143 167//167
f 169//169 172//172 170//170
f 173//173 174//174 172//172
f 175//175 146//146 176//176
f 147//147 176//176 146//146
f 176//176 147//147 177//177
f 148//148 177//177 147//147
f 177//177 148//148 178//178
f 149//149 178//178 148//148
f 178//178 149//149 179//179
f 150//150 179//179 149//149
f 150//150 151//151 179//179
f 180//180 179//179 151//151
f 151//151 152//152 180//180
f 181//181 180//180 152//152
f 182//182 160//160 183//183
f 161//161 183//183 160//160
f 162//162 183//183 161//161
f 184//184 183//183 162//162
f 163//163 184//184 162//162
f 165//165 154//154 182//182
f 155//155 182//182 154//154
f 160//160 182//182 155//155
f 159//159 160//160 155//155
f 157//157 159//159 155//155
f 156//156 157//157 155//155
f 158//158 157//157 156//156
f 185//185 183//183 186//186
f 184//184 186//186 183//183
f 164//164 165//165 187//187
f 182//182 187//187 165//165
f 188//188 171//171 164//164
f 153//153 164//164 171//171
f 167//167 169//169 168//168
f 171//171 189//189 142//142
f 167//167 142//142 189//189
f 169//169 173//173 172//172
f 190//190 191//191 173//173
f 174//174 173//173 191//191
f 192//192 193//193 190//190
f 194//194 190//190 193//193
f 195//195 196//196 176//176
f 175//175 176//176 196//196
f 197//197 195//195 177//177
f 176//176 177//177 195//195
f 198//198 197//197 178//178
f 177//177 178//178 197//197
f 198//198 178//178 199//199
f 179//179 199//199 178//178
f 199//199 179//179 200//200
f 180//180 200//200 179//179
f 200//200 180//180 201//201
f 181//181 201//201 180//180
f 190//190 194//194 191//191
f 202//202 191//191 194//194
f 187//187 182//182 185//185
f 183//183 185//185 182//182
f 203//203 185//185 204//204
f 186//186 204//204 185//185
f 188//188 164//164 205//205
f 187//187 205//205 164//164
f 206//206 189//189 188//188
f 171//171 188//188 189//189
f 207//207 173//173 189//189
f 167//167 189//189 173//173
f 169//169 167//167 173//173
f 192//192 190//190 207//207
f 173//173 207//207 190//190
f 208//208 209//209 192//192
f 193//193 192//192 209//209
f 193//193 210//210 194//194
f 211//211 194//194 210//210
f 209//209 212//212 193//193
f 210//210 193//193 212//212
f 209//209 213//213 212//212
f 214//214 212//212 213//213
f 215//215 216//216 195//195
f 196//196 195//195 216//216
f 217//217 215//215 197//197
f 195//195 197//197 215//215
f 218//218 217//217 198//198
f 197//197 198//198 217//217
f 218//218 198//198 219//219
f 199//199 219//219 198//198
f 219//219 199//199 220//220
f 200//200 220//220 199//199
f 220//220 200//200 221//221
f 201//201 221//221 200//200
f 194//194 211//211 202//202
f 222//222 202//202 211//211
f 205//205 187//187 203//203
f 185//185 203//203 187//187
f 223//223 224//224 204//204
f 203//203 204//204 224//224
f 223//223 225//225 224//224
f 226//226 206//206 205//205
f 188//188 205//205 206//206
f 227//227 207//207 206//206
f 189//189 206//206 207//207
f 227//227 208//208 207//207
f 192//192 207//207 208//208
f 208//208 228//228 209//209
f 213//213 209//209 228//228
f 213//213 229//229 214//214
f 230//230 214//214 229//229
f 212//212 214//214 210//210
f 211//211 210//210 214//214
f 218//218 211//211 214//214
f 219//219 211//211 218//218
f 220//220 211//211 219//219
f 222//222 211//211 220//220
f 221//221 222//222 220//220
f 214//214 230//230 218//218
f 217//217 218//218 230//230
f 215//215 217//217 230//230
f 231//231 215//215 230//230
f 216//216 215//215 231//231
f 224//224 226//226 203//203
f 205//205 203//203 226//226
f 224//224 225//225 232//232
f 233//233 227//227 226//226
f 206//206 226//226 227//227
f 225//225 234//234 232//232
f 233//233 228//228 227//227
f 208//208 227//227 228//228
f 228//228 235//235 213//213
f 229//229 213//213 235//235
f 229//229 236//236 230//230
f 231//231 230//230 236//236
f 224//224 232//232 226//226
f 233//233 226//226 232//232
f 232//232 237//237 233//233
f 234//234 238//238 232//232
f 237//237 235//235 233//233
f 228//228 233//233 235//235
f 235//235 239//239 229//229
f 236//236 229//229 239//239
f 238//238 237//237 232//232
f 240//240 239//239 237//237
f 235//235 237//237 239//239
f 238//238 240//240 237//237
f 2//2 3//3 4//4
f 3//3 2//2 1//1
f 5//5 4//4 6//6
f 4//4 5//5 2//2
f 7//7 6//6 8//8
f 6//6 7//7 5//5
f 7//7 9//9 10//10
f 9//9 7//7 8//8
f 10//10 11//11 12//12
f 11//11 10//10 9//9
f 12//12 13//13 14//14
f 13//13 12//12 11//11
f 16//16 12//12 14//14
f 12//12 16//16 15//15
f 15//15 10//10 12//12
f 10//10 15//15 17//17
f 17//17 7//7 10//10
f 7//7 17//17 18//18
f 7//7 19//19 5//5
f 19//19 7//7 18//18
f 5//5 20//20 2//2
f 20//20 5//5 19//19
f 2//2 21//21 1//1
f 21//21 2//2 20//20
f 23//23 24//24 25//25
f 24//24 23//23 22//22
f 3//3 27//27 4//4
f 27//27 3//3 26//26
f 4//4 28//28 6//6
f 28//28 4//4 27//27
f 6//6 29//29 8//8
f 29//29 6//6 28//28
f 8//8 30//30 9//9
f 30//30 8//8 29//29
f 9//9 31//31 11//11
f 31//31 9//9 30//30
f 11//11 32//32 13//13
f 32//32 11//11 31//31
f 24//24 34//34 35//35
f 34//34 24//24 33//33
f 25//25 35//35 36//36
f 35//35 25//25 24//24
f 38//38 15//15 16//16
f 15//15 38//38 37//37
f 37//37 17//17 15//15
f 17//17 37//37 39//39
f 39//39 18//18 17//17
f 18//18 39//39 40//40
f 18//18 41//41 19//19
f 41//41 18//18 40//40
f 19//19 42//42 20//20
f 42//42 19//19 41//41
f 20//20 43//43 21//21
f 43//43 20//20 42//42
f 33//33 45//45 34//34
f 45//45 33//33 44//44
f 48//48 47//47 46//46
f 50//50 49//49 48//48
f 22//22 33//33 24//24
f 33//33 22//22 51//51
f 47//47 23//23 46//46
f 23//23 47//47 22//22
f 50//50 52//52 49//49
f 52//52 54//54 53//53
f 26//26 56//56 27//27
f 56//56 26//26 55//55
f 27//27 57//57 28//28
f 57//57 27//27 56//56
f 28//28 58//58 29//29
f 58//58 28//28 57//57
f 29//29 59//59 30//30
f 59//59 29//29 58//58
f 31//31 59//59 60//60
f 59//59 31//31 30//30
f 32//32 60//60 61//61
f 60//60 32//32 31//31
f 36//36 37//37 38//38
f 35//35 37//37 36//36
f 35//35 39//39 37//37
f 35//35 40//40 39//39
f 35//35 62//62 40//40
f 34//34 62//62 35//35
f 62//62 34//34 45//45
f 42//42 64//64 43//43
f 42//42 63//63 64//64
f 41//41 63//63 42//42
f 40//40 63//63 41//41
f 63//63 40//40 62//62
f 63//63 66//66 64//64
f 66//66 63//63 65//65
f 45//45 67//67 62//62
f 67//67 45//45 44//44
f 51//51 44//44 33//33
f 44//44 51//51 68//68
f 48//48 49//49 47//47
f 69//69 22//22 47//47
f 22//22 69//69 51//51
f 52//52 53//53 49//49
f 71//71 53//53 54//54
f 53//53 71//71 70//70
f 73//73 70//70 74//74
f 70//70 73//73 72//72
f 76//76 56//56 55//55
f 56//56 76//76 75//75
f 75//75 57//57 56//56
f 57//57 75//75 77//77
f 77//77 58//58 57//57
f 58//58 77//77 78//78
f 58//58 79//79 59//59
f 79//79 58//58 78//78
f 59//59 80//80 60//60
f 80//80 59//59 79//79
f 60//60 81//81 61//61
f 81//81 60//60 80//80
f 74//74 71//71 82//82
f 71//71 74//74 70//70
f 62//62 65//65 63//63
f 65//65 62//62 67//67
f 65//65 84//84 66//66
f 84//84 65//65 83//83
f 44//44 85//85 67//67
f 85//85 44//44 68//68
f 69//69 68//68 51//51
f 68//68 69//69 86//86
f 53//53 47//47 49//49
f 53//53 69//69 47//47
f 69//69 53//53 87//87
f 70//70 87//87 53//53
f 87//87 70//70 72//72
f 89//89 72//72 73//73
f 72//72 89//89 88//88
f 90//90 74//74 91//91
f 74//74 90//90 73//73
f 92//92 73//73 90//90
f 73//73 92//92 89//89
f 93//93 92//92 94//94
f 92//92 93//93 89//89
f 96//96 75//75 76//76
f 75//75 96//96 95//95
f 95//95 77//77 75//75
f 77//77 95//95 97//97
f 97//97 78//78 77//77
f 78//78 97//97 98//98
f 78//78 99//99 79//79
f 99//99 78//78 98//98
f 79//79 100//100 80//80
f 100//100 79//79 99//99
f 80//80 101//101 81//81
f 101//101 80//80 100//100
f 91//91 82//82 102//102
f 82//82 91//91 74//74
f 67//67 83//83 65//65
f 83//83 67//67 85//85
f 104//104 84//84 83//83
f 84//84 104//104 103//103
f 104//104 105//105 103//103
f 86//86 85//85 68//68
f 85//85 86//86 106//106
f 87//87 86//86 69//69
f 86//86 87//87 107//107
f 88//88 87//87 72//72
f 87//87 88//88 107//107
f 108//108 89//89 93//93
f 89//89 108//108 88//88
f 109//109 94//94 110//110
f 94//94 109//109 93//93
f 111//111 95//95 96//96
f 110//110 95//95 111//111
f 110//110 97//97 95//95
f 110//110 98//98 97//97
f 98//98 110//110 94//94
f 100//100 102//102 101//101
f 100//100 91//91 102//102
f 99//99 91//91 100//100
f 98//98 91//91 99//99
f 94//94 91//91 98//98
f 94//94 90//90 91//91
f 90//90 94//94 92//92
f 106//106 83//83 85//85
f 83//83 106//106 104//104
f 112//112 105//105 104//104
f 107//107 106//106 86//86
f 106//106 107//107 113//113
f 112//112 114//114 105//105
f 108//108 107//107 88//88
f 107//107 108//108 113//113
f 115//115 93//93 109//109
f 93//93 115//115 108//108
f 116//116 110//110 111//111
f 110//110 116//116 109//109
f 113//113 117//117 112//112
f 112//112 106//106 113//113
f 106//106 112//112 104//104
f 112//112 118//118 114//114
f 115//115 113//113 108//108
f 113//113 115//115 117//117
f 119//119 109//109 116//116
f 109//109 119//119 115//115
f 112//112 117//117 118//118
f 119//119 117//117 115//115
f 117//117 119//119 120//120
f 117//117 120//120 118//118
f 241//241 242//242 243//243
f 244//244 243//243 242//242
f 245//245 243//243 244//244
f 244//244 243//243 245//245
f 242//242 243//243 244//244
f 243//243 242//242 241//241
f 241//241 246//246 242//242
f 247//247 242//242 246//246
f 246//246 242//242 247//247
f 242//242 246//246 241//241
f 248//248 246//246 243//243
f 241//241 243//243 246//246
f 246//246 243//243 241//241
f 243//243 246//246 248//248
f 248//248 243//243 249//249
f 245//245 249//249 243//243
f 243//243 249//249 245//245
f 249//249 243//243 248//248
f 249//249 245//245 250//250
f 244//244 250//250 245//245
f 245//245 250//250 244//244
f 250//250 245//245 249//249
f 247//247 250//250 242//242
f 244//244 242//242 250//250
f 250//250 242//242 244//244
f 242//242 250//250 247//247
f 247//247 246//246 250//250
f 248//248 250//250 246//246
f 249//249 250//250 248//248
f 248//248 250//250 249//249
f 246//246 250//250 248//248
f 250//250 246//246 247//247
f 251//251 252//252 253//253
f 254//254 253//253 252//252
f 255//255 253//253 254//254
f 254//254 253//253 255//255
f 252//252 253//253 254//254
f 253//253 252//252 251//251
f 256//256 255//255 257//257
f 254//254 257//257 255//255
f 255//255 257//257 254//254
f 257//257 255//255 256//256
f 257//257 258//258 259//259
f 252//252 259//259 258//258
f 260//260 252//252 258//258
f 261//261 252//252 260//260
f 254//254 262//262 257//257
f 258//258 257//257 262//262
f 261//261 262//262 254//254
f 252//252 261//261 254//254
f 254//254 261//261 252//252
f 254//254 262//262 261//261
f 262//262 257//257 258//258
f 257//257 262//262 254//254
f 260//260 252//252 261//261
f 258//258 252//252 260//260
f 258//258 259//259 252//252
f 259//259 258//258 257//257
f 263//263 259//259 251//251
f 252//252 251//251 259//259
f 259//259 251//251 252//252
f 251//251 259//259 263//263
f 264//264 263//263 253//253
f 251//251 253//253 263//263
f 263//263 253//253 251//251
f 253//253 263//263 264//264
f 256//256 264//264 255//255
f 253//253 255//255 264//264
f 264//264 255//255 253//253
f 255//255 264//264 256//256
f 259//259 263//263 257//257
f 264//264 257//257 263//263
f 256//256 257//257 264//264
f 264//264 257//257 256//256
f 263//263 257//257 264//264
f 257//257 263//263 259//259
f 260//260 258//258 265//265
f 266//266 265//265 258//258
f 258//258 265//265 266//266
f 265//265 258//258 260//260
f 260//260 265//265 261//261
f 267//267 261//261 265//265
f 265//265 261//261 267//267
f 261//261 265//265 260//260
f 266//266 268//268 265//265
f 267//267 265//265 268//268
f 268//268 265//265 267//267
f 265//265 268//268 266//266
f 266//266 258//258 268//268
f 262//262 268//268 258//258
f 258//258 268//268 262//262
f 268//268 258//258 266//266
f 262//262 261//261 268//268
f 267//267 268//268 261//261
f 261//261 268//268 267//267
f 268//268 261//261 262//262
f 122//122 123//123 124//124
f 123//123 122//122 121//121
f 125//125 124//124 126//126
f 124//124 125//125 122//122
f 127//127 126//126 128//128
f 126//126 127//127 125//125
f 127//127 129//129 130//130
f 129//129 127//127 128//128
f 130//130 131//131 132//132
f 131//131 130//130 129//129
f 132//132 133//133 134//134
f 133//133 132//132 131//131
f 136//136 132//132 134//134
f 132//132 136//136 135//135
f 135//135 130//130 132//132
f 130//130 135//135 137//137
f 137//137 127//127 130//130
f 127//127 137//137 138//138
f 127//127 139//139 125//125
f 139//139 127//127 138//138
f 125//125 140//140 122//122
f 140//140 125//125 139//139
f 122//122 141//141 121//121
f 141//141 122//122 140//140
f 143//143 144//144 145//145
f 144//144 143//143 142//142
f 123//123 147//147 124//124
f 147//147 123//123 146//146
f 124//124 148//148 126//126
f 148//148 124//124 147//147
f 126//126 149//149 128//128
f 149//149 126//126 148//148
f 128//128 150//150 129//129
f 150//150 128//128 149//149
f 129//129 151//151 131//131
f 151//151 129//129 150//150
f 131//131 152//152 133//133
f 152//152 131//131 151//151
f 144//144 154//154 155//155
f 154//154 144//144 153//153
f 145//145 155//155 156//156
f 155//155 145//145 144//144
f 158//158 135//135 136//136
f 135//135 158//158 157//157
f 157//157 137//137 135//135
f 137//137 157//157 159//159
f 159//159 138//138 137//137
f 138//138 159//159 160//160
f 138//138 161//161 139//139
f 161//161 138//138 160//160
f 139//139 162//162 140//140
f 162//162 139//139 161//161
f 140//140 163//163 141//141
f 163//163 140//140 162//162
f 153//153 165//165 154//154
f 165//165 153//153 164//164
f 168//168 167//167 166//166
f 170//170 169//169 168//168
f 142//142 153//153 144//144
f 153//153 142//142 171//171
f 167//167 143//143 166//166
f 143//143 167//167 142//142
f 170//170 172//172 169//169
f 172//172 174//174 173//173
f 146//146 176//176 147//147
f 176//176 146//146 175//175
f 147//147 177//177 148//148
f 177//177 147//147 176//176
f 148//148 178//178 149//149
f 178//178 148//148 177//177
f 149//149 179//179 150//150
f 179//179 149//149 178//178
f 151//151 179//179 180//180
f 179//179 151//151 150//150
f 152//152 180//180 181//181
f 180//180 152//152 151//151
f 156//156 157//157 158//158
f 155//155 157//157 156//156
f 155//155 159//159 157//157
f 155//155 160//160 159//159
f 155//155 182//182 160//160
f 154//154 182//182 155//155
f 182//182 154//154 165//165
f 162//162 184//184 163//163
f 162//162 183//183 184//184
f 161//161 183//183 162//162
f 160//160 183//183 161//161
f 183//183 160//160 182//182
f 183//183 186//186 184//184
f 186//186 183//183 185//185
f 165//165 187//187 182//182
f 187//187 165//165 164//164
f 171//171 164//164 153//153
f 164//164 171//171 188//188
f 168//168 169//169 167//167
f 189//189 142//142 167//167
f 142//142 189//189 171//171
f 172//172 173//173 169//169
f 191//191 173//173 174//174
f 173//173 191//191 190//190
f 193//193 190//190 194//194
f 190//190 193//193 192//192
f 196//196 176//176 175//175
f 176//176 196//196 195//195
f 195//195 177//177 176//176
f 177//177 195//195 197//197
f 197//197 178//178 177//177
f 178//178 197//197 198//198
f 178//178 199//199 179//179
f 199//199 178//178 198//198
f 179//179 200//200 180//180
f 200//200 179//179 199//199
f 180//180 201//201 181//181
f 201//201 180//180 200//200
f 194//194 191//191 202//202
f 191//191 194//194 190//190
f 182//182 185//185 183//183
f 185//185 182//182 187//187
f 185//185 204//204 186//186
f 204//204 185//185 203//203
f 164//164 205//205 187//187
f 205//205 164//164 188//188
f 189//189 188//188 171//171
f 188//188 189//189 206//206
f 173//173 167//167 169//169
f 173//173 189//189 167//167
f 189//189 173//173 207//207
f 190//190 207//207 173//173
f 207//207 190//190 192//192
f 209//209 192//192 193//193
f 192//192 209//209 208//208
f 210//210 194//194 211//211
f 194//194 210//210 193//193
f 212//212 193//193 210//210
f 193//193 212//212 209//209
f 213//213 212//212 214//214
f 212//212 213//213 209//209
f 216//216 195//195 196//196
f 195//195 216//216 215//215
f 215//215 197//197 195//195
f 197//197 215//215 217//217
f 217//217 198//198 197//197
f 198//198 217//217 218//218
f 198//198 219//219 199//199
f 219//219 198//198 218//218
f 199//199 220//220 200//200
f 220//220 199//199 219//219
f 200//200 221//221 201//201
f 221//221 200//200 220//220
f 211//211 202//202 222//222
f 202//202 211//211 194//194
f 187//187 203//203 185//185
f 203//203 187//187 205//205
f 224//224 204//204 203//203
f 204//204 224//224 223//223
f 224//224 225//225 223//223
f 206//206 205//205 188//188
f 205//205 206//206 226//226
f 207//207 206//206 189//189
f 206//206 207//207 227//227
f 208//208 207//207 192//192
f 207//207 208//208 227//227
f 228//228 209//209 213//213
f 209//209 228//228 208//208
f 229//229 214//214 230//230
f 214//214 229//229 213//213
f 231//231 215//215 216//216
f 230//230 215//215 231//231
f 230//230 217//217 215//215
f 230//230 218//218 217//217
f 218//218 230//230 214//214
f 220//220 222//222 221//221
f 220//220 211//211 222//222
f 219//219 211//211 220//220
f 218//218 211//211 219//219
f 214//214 211//211 218//218
f 214//214 210//210 211//211
f 210//210 214//214 212//212
f 226//226 203//203 205//205
f 203//203 226//226 224//224
f 232//232 225//225 224//224
f 227//227 226//226 206//206
f 226//226 227//227 233//233
f 232//232 234//234 225//225
f 228//228 227//227 208//208
f 227//227 228//228 233//233
f 235//235 213//213 229//229
f 213//213 235//235 228//228
f 236//236 230//230 231//231
f 230//230 236//236 229//229
f 233//233 237//237 232//232
f 232//232 226//226 233//233
f 226//226 232//232 224//224
f 232//232 238//238 234//234
f 235//235 233//233 228//228
f 233//233 235//235 237//237
f 239//239 229//229 236//236
f 229//229 239//239 235//235
f 232//232 237//237 238//238
f 239//239 237//237 235//235
f 237//237 239//239 240//240
f 237//237 240//240 238//238
f 250//250 269//269 270//270
f 269//269 250//250 271//271
f 272//272 273//273 269//269
f 272//272 274//274 273//273
f 274//274 272//272 275//275
f 271//271 272//272 269//269
f 259//259 276//276 250//250
f 259//259 277//277 276//276
f 277//277 278//278 279//279
f 259//259 278//278 277//277
f 259//259 280//280 278//278
f 280//280 281//281 282//282
f 259//259 281//281 280//280
f 259//259 283//283 281//281
f 283//283 271//271 284//284
f 283//283 272//272 271//271
f 272//272 283//283 259//259
f 285//285 250//250 276//276
f 279//279 250//250 285//285
f 286//286 279//279 278//278
f 286//286 250//250 279//279
f 282//282 250//250 286//286
f 287//287 282//282 281//281
f 287//287 250//250 282//282
f 284//284 250//250 287//287
f 250//250 284//284 271//271
f 272//272 288//288 275//275
f 288//288 272//272 259//259
f 289//289 290//290 291//291
f 290//290 289//289 292//292
f 293//293 294//294 295//295
f 294//294 293//293 296//296
f 297//297 298//298 299//299
f 298//298 297//297 300//300
f 301//301 302//302 303//303
f 301//301 304//304 302//302
f 305//305 304//304 301//301
f 305//305 306//306 304//304
f 307//307 306//306 305//305
f 307//307 308//308 306//306
f 309//309 308//308 307//307
f 309//309 310//310 308//308
f 311//311 310//310 309//309
f 311//311 312//312 310//310
f 311//311 313//313 312//312
f 314//314 313//313 311//311
f 315//315 313//313 314//314
f 315//315 316//316 313//313
f 317//317 316//316 315//315
f 317//317 318//318 316//316
f 319//319 318//318 317//317
f 319//319 320//320 318//318
f 321//321 320//320 319//319
f 321//321 322//322 320//320
f 323//323 322//322 321//321
f 323//323 324//324 322//322
f 323//323 325//325 324//324
f 326//326 325//325 323//323
f 326//326 327//327 325//325
f 328//328 327//327 326//326
f 329//329 327//327 328//328
f 329//329 330//330 327//327
f 331//331 330//330 329//329
f 331//331 332//332 330//330
f 333//333 332//332 331//331
f 333//333 334//334 332//332
f 333//333 335//335 334//334
f 336//336 335//335 333//333
f 336//336 337//337 335//335
f 338//338 337//337 336//336
f 338//338 339//339 337//337
f 340//340 339//339 338//338
f 341//341 339//339 340//340
f 341//341 342//342 339//339
f 343//343 342//342 341//341
f 343//343 344//344 342//342
f 345//345 344//344 343//343
f 345//345 346//346 344//344
f 347//347 346//346 345//345
f 347//347 348//348 346//346
f 349//349 348//348 347//347
f 349//349 350//350 348//348
f 351//351 350//350 349//349
f 350//350 351//351 352//352
f 328//328 329//329 353//353
f 354//354 353//353 329//329
f 329//329 353//353 354//354
f 353//353 329//329 328//328
f 329//329 331//331 354//354
f 355//355 354//354 331//331
f 331//331 354//354 355//355
f 354//354 331//331 329//329
f 331//331 333//333 355//355
f 356//356 355//355 333//333
f 333//333 355//355 356//356
f 355//355 333//333 331//331
f 333//333 336//336 356//356
f 357//357 356//356 336//336
f 336//336 356//356 357//357
f 356//356 336//336 333//333
f 336//336 338//338 357//357
f 358//358 357//357 338//338
f 338//338 357//357 358//358
f 357//357 338//338 336//336
f 338//338 340//340 358//358
f 359//359 358//358 340//340
f 340//340 358//358 359//359
f 358//358 340//340 338//338
f 341//341 360//360 340//340
f 359//359 340//340 360//360
f 360//360 340//340 359//359
f 340//340 360//360 341//341
f 343//343 361//361 341//341
f 360//360 341//341 361//361
f 361//361 341//341 360//360
f 341//341 361//361 343//343
f 345//345 362//362 343//343
f 361//361 343//343 362//362
f 362//362 343//343 361//361
f 343//343 362//362 345//345
f 347//347 363//363 345//345
f 362//362 345//345 363//363
f 363//363 345//345 362//362
f 345//345 363//363 347//347
f 349//349 364//364 347//347
f 363//363 347//347 364//364
f 364//364 347//347 363//363
f 347//347 364//364 349//349
f 351//351 365//365 349//349
f 364//364 349//349 365//365
f 365//365 349//349 364//364
f 349//349 365//365 351//351
f 352//352 366//366 351//351
f 365//365 351//351 366//366
f 366//366 351//351 365//365
f 351//351 366//366 352//352
f 350//350 367//367 352//352
f 366//366 352//352 367//367
f 367//367 352//352 366//366
f 352//352 367//367 350//350
f 348//348 368//368 350//350
f 367//367 350//350 368//368
f 368//368 350//350 367//367
f 350//350 368//368 348//348
f 346//346 369//369 348//348
f 368//368 348//348 369//369
f 369//369 348//348 368//368
f 348//348 369//369 346//346
f 344//344 370//370 346//346
f 369//369 346//346 370//370
f 370//370 346//346 369//369
f 346//346 370//370 344//344
f 342//342 371//371 344//344
f 370//370 344//344 371//371
f 371//371 344//344 370//370
f 344//344 371//371 342//342
f 339//339 372//372 342//342
f 371//371 342//342 372//372
f 372//372 342//342 371//371
f 342//342 372//372 339//339
f 339//339 337//337 372//372
f 373//373 372//372 337//337
f 337//337 372//372 373//373
f 372//372 337//337 339//339
f 337//337 335//335 373//373
f 374//374 373//373 335//335
f 335//335 373//373 374//374
f 373//373 335//335 337//337
f 335//335 334//334 374//374
f 375//375 374//374 334//334
f 334//334 374//374 375//375
f 374//374 334//334 335//335
f 334//334 332//332 375//375
f 376//376 375//375 332//332
f 332//332 375//375 376//376
f 375//375 332//332 334//334
f 332//332 330//330 376//376
f 377//377 376//376 330//330
f 330//330 376//376 377//377
f 376//376 330//330 332//332
f 330//330 327//327 377//377
f 378//378 377//377 327//327
f 327//327 377//377 378//378
f 377//377 327//327 330//330
f 327//327 325//325 378//378
f 379//379 378//378 325//325
f 325//325 378//378 379//379
f 378//378 325//325 327//327
f 325//325 324//324 379//379
f 380//380 379//379 324//324
f 324//324 379//379 380//380
f 379//379 324//324 325//325
f 324//324 322//322 380//380
f 381//381 380//380 322//322
f 322//322 380//380 381//381
f 380//380 322//322 324//324
f 322//322 320//320 381//381
f 382//382 381//381 320//320
f 320//320 381//381 382//382
f 381//381 320//320 322//322
f 320//320 318//318 382//382
f 383//383 382//382 318//318
f 318//318 382//382 383//383
f 382//382 318//318 320//320
f 318//318 316//316 383//383
f 384//384 383//383 316//316
f 316//316 383//383 384//384
f 383//383 316//316 318//318
f 316//316 313//313 384//384
f 385//385 384//384 313//313
f 313//313 384//384 385//385
f 384//384 313//313 316//316
f 385//385 313//313 386//386
f 312//312 386//386 313//313
f 313//313 386//386 312//312
f 386//386 313//313 385//385
f 386//386 312//312 387//387
f 310//310 387//387 312//312
f 312//312 387//387 310//310
f 387//387 312//312 386//386
f 387//387 310//310 388//388
f 308//308 388//388 310//310
f 310//310 388//388 308//308
f 388//388 310//310 387//387
f 388//388 308//308 389//389
f 306//306 389//389 308//308
f 308//308 389//389 306//306
f 389//389 308//308 388//388
f 389//389 306//306 390//390
f 304//304 390//390 306//306
f 306//306 390//390 304//304
f 390//390 306//306 389//389
f 390//390 304//304 391//391
f 302//302 391//391 304//304
f 304//304 391//391 302//302
f 391//391 304//304 390//390
f 391//391 302//302 392//392
f 303//303 392//392 302//302
f 302//302 392//392 303//303
f 392//392 302//302 391//391
f 392//392 303//303 393//393
f 301//301 393//393 303//303
f 303//303 393//393 301//301
f 393//393 303//303 392//392
f 393//393 301//301 394//394
f 305//305 394//394 301//301
f 301//301 394//394 305//305
f 394//394 301//301 393//393
f 394//394 305//305 395//395
f 307//307 395//395 305//305
f 305//305 395//395 307//307
f 395//395 305//305 394//394
f 395//395 307//307 396//396
f 309//309 396//396 307//307
f 307//307 396//396 309//309
f 396//396 307//307 395//395
f 396//396 309//309 397//397
f 311//311 397//397 309//309
f 309//309 397//397 311//311
f 397//397 309//309 396//396
f 397//397 311//311 398//398
f 314//314 398//398 311//311
f 311//311 398//398 314//314
f 398//398 311//311 397//397
f 314//314 315//315 398//398
f 399//399 398//398 315//315
f 315//315 398//398 399//399
f 398//398 315//315 314//314
f 315//315 317//317 399//399
f 400//400 399//399 317//317
f 317//317 399//399 400//400
f 399//399 317//317 315//315
f 317//317 319//319 400//400
f 401//401 400//400 319//319
f 319//319 400//400 401//401
f 400//400 319//319 317//317
f 319//319 321//321 401//401
f 402//402 401//401 321//321
f 321//321 401//401 402//402
f 401//401 321//321 319//319
f 321//321 323//323 402//402
f 403//403 402//402 323//323
f 323//323 402//402 403//403
f 402//402 323//323 321//321
f 323//323 326//326 403//403
f 404//404 403//403 326//326
f 326//326 403//403 404//404
f 403//403 326//326 323//323
f 326//326 328//328 404//404
f 353//353 404//404 328//328
f 328//328 404//404 353//353
f 404//404 328//328 326//326
f 405//405 406//406 354//354
f 353//353 354//354 406//406
f 406//406 354//354 353//353
f 354//354 406//406 405//405
f 407//407 405//405 355//355
f 354//354 355//355 405//405
f 405//405 355//355 354//354
f 355//355 405//405 407//407
f 408//408 407//407 356//356
f 355//355 356//356 407//407
f 407//407 356//356 355//355
f 356//356 407//407 408//408
f 409//409 408//408 357//357
f 356//356 357//357 408//408
f 408//408 357//357 356//356
f 357//357 408//408 409//409
f 410//410 409//409 358//358
f 357//357 358//358 409//409
f 409//409 358//358 357//357
f 358//358 409//409 410//410
f 411//411 410//410 359//359
f 358//358 359//359 410//410
f 410//410 359//359 358//358
f 359//359 410//410 411//411
f 412//412 411//411 360//360
f 359//359 360//360 411//411
f 411//411 360//360 359//359
f 360//360 411//411 412//412
f 413//413 412//412 361//361
f 360//360 361//361 412//412
f 412//412 361//361 360//360
f 361//361 412//412 413//413
f 414//414 413//413 362//362
f 361//361 362//362 413//413
f 413//413 362//362 361//361
f 362//362 413//413 414//414
f 415//415 414//414 363//363
f 362//362 363//363 414//414
f 414//414 363//363 362//362
f 363//363 414//414 415//415
f 416//416 415//415 364//364
f 363//363 364//364 415//415
f 415//415 364//364 363//363
f 364//364 415//415 416//416
f 417//417 416//416 365//365
f 364//364 365//365 416//416
f 416//416 365//365 364//364
f 365//365 416//416 417//417
f 418//418 417//417 366//366
f 365//365 366//366 417//417
f 417//417 366//366 365//365
f 366//366 417//417 418//418
f 418//418 366//366 419//419
f 367//367 419//419 366//366
f 366//366 419//419 367//367
f 419//419 366//366 418//418
f 419//419 367//367 420//420
f 368//368 420//420 367//367
f 367//367 420//420 368//368
f 420//420 367//367 419//419
f 420//420 368//368 421//421
f 369//369 421//421 368//368
f 368//368 421//421 369//369
f 421//421 368//368 420//420
f 421//421 369//369 422//422
f 370//370 422//422 369//369
f 369//369 422//422 370//370
f 422//422 369//369 421//421
f 422//422 370//370 423//423
f 371//371 423//423 370//370
f 370//370 423//423 371//371
f 423//423 370//370 422//422
f 423//423 371//371 424//424
f 372//372 424//424 371//371
f 371//371 424//424 372//372
f 424//424 371//371 423//423
f 424//424 372//372 425//425
f 373//373 425//425 372//372
f 372//372 425//425 373//373
f 425//425 372//372 424//424
f 425//425 373//373 426//426
f 374//374 426//426 373//373
f 373//373 426//426 374//374
f 426//426 373//373 425//425
f 426//426 374//374 427//427
f 375//375 427//427 374//374
f 374//374 427//427 375//375
f 427//427 374//374 426//426
f 427//427 375//375 428//428
f 376//376 428//428 375//375
f 375//375 428//428 376//376
f 428//428 375//375 427//427
f 428//428 376//376 429//429
f 377//377 429//429 376//376
f 376//376 429//429 377//377
f 429//429 376//376 428//428
f 429//429 377//377 430//430
f 378//378 430//430 377//377
f 377//377 430//430 378//378
f 430//430 377//377 429//429
f 430//430 378//378 431//431
f 379//379 431//431 378//378
f 378//378 431//431 379//379
f 431//431 378//378 430//430
f 379//379 380//380 431//431
f 432//432 431//431 380//380
f 380//380 431//431 432//432
f 431//431 380//380 379//379
f 380//380 381//381 432//432
f 433//433 432//432 381//381
f 381//381 432//432 433//433
f 432//432 381//381 380//380
f 381//381 382//382 433//433
f 434//434 433//433 382//382
f 382//382 433//433 434//434
f 433//433 382//382 381//381
f 382//382 383//383 434//434
f 435//435 434//434 383//383
f 383//383 434//434 435//435
f 434//434 383//383 382//382
f 383//383 384//384 435//435
f 436//436 435//435 384//384
f 384//384 435//435 436//436
f 435//435 384//384 383//383
f 384//384 385//385 436//436
f 437//437 436//436 385//385
f 385//385 436//436 437//437
f 436//436 385//385 384//384
f 385//385 386//386 437//437
f 438//438 437//437 386//386
f 386//386 437//437 438//438
f 437//437 386//386 385//385
f 386//386 387//387 438//438
f 439//439 438//438 387//387
f 387//387 438//438 439//439
f 438//438 387//387 386//386
f 387//387 388//388 439//439
f 440//440 439//439 388//388
f 388//388 439//439 440//440
f 439//439 388//388 387//387
f 388//388 389//389 440//440
f 441//441 440//440 389//389
f 389//389 440//440 441//441
f 440//440 389//389 388//388
f 389//389 390//390 441//441
f 442//442 441//441 390//390
f 390//390 441//441 442//442
f 441//441 390//390 389//389
f 390//390 391//391 442//442
f 443//443 442//442 391//391
f 391//391 442//442 443//443
f 442//442 391//391 390//390
f 391//391 392//392 443//443
f 444//444 443//443 392//392
f 392//392 443//443 444//444
f 443//443 392//392 391//391
f 393//393 445//445 392//392
f 444//444 392//392 445//445
f 445//445 392//392 444//444
f 392//392 445//445 393//393
f 394//394 446//446 393//393
f 445//445 393//393 446//446
f 446//446 393//393 445//445
f 393//393 446//446 394//394
f 395//395 447//447 394//394
f 446//446 394//394 447//447
f 447//447 394//394 446//446
f 394//394 447//447 395//395
f 396//396 448//448 395//395
f 447//447 395//395 448//448
f 448//448 395//395 447//447
f 395//395 448//448 396//396
f 397//397 449//449 396//396
f 448//448 396//396 449//449
f 449//449 396//396 448//448
f 396//396 449//449 397//397
f 398//398 450//450 397//397
f 449//449 397//397 450//450
f 450//450 397//397 449//449
f 397//397 450//450 398//398
f 399//399 451//451 398//398
f 450//450 398//398 451//451
f 451//451 398//398 450//450
f 398//398 451//451 399//399
f 400//400 452//452 399//399
f 451//451 399//399 452//452
f 452//452 399//399 451//451
f 399//399 452//452 400//400
f 401//401 453//453 400//400
f 452//452 400//400 453//453
f 453//453 400//400 452//452
f 400//400 453//453 401//401
f 402//402 454//454 401//401
f 453//453 401//401 454//454
f 454//454 401//401 453//453
f 401//401 454//454 402//402
f 403//403 455//455 402//402
f 454//454 402//402 455//455
f 455//455 402//402 454//454
f 402//402 455//455 403//403
f 404//404 456//456 403//403
f 455//455 403//403 456//456
f 456//456 403//403 455//455
f 403//403 456//456 404//404
f 406//406 456//456 353//353
f 404//404 353//353 456//456
f 456//456 353//353 404//404
f 353//353 456//456 406//406
f 457//457 458//458 405//405
f 406//406 405//405 458//458
f 458//458 405//405 406//406
f 405//405 458//458 457//457
f 459//459 457//457 407//407
f 405//405 407//407 457//457
f 457//457 407//407 405//405
f 407//407 457//457 459//459
f 460//460 459//459 408//408
f 407//407 408//408 459//459
f 459//459 408//408 407//407
f 408//408 459//459 460//460
f 461//461 460//460 409//409
f 408//408 409//409 460//460
f 460//460 409//409 408//408
f 409//409 460//460 461//461
f 462//462 461//461 410//410
f 409//409 410//410 461//461
f 461//461 410//410 409//409
f 410//410 461//461 462//462
f 463//463 462//462 411//411
f 410//410 411//411 462//462
f 462//462 411//411 410//410
f 411//411 462//462 463//463
f 412//412 464//464 411//411
f 463//463 411//411 464//464
f 464//464 411//411 463//463
f 411//411 464//464 412//412
f 413//413 465//465 412//412
f 464//464 412//412 465//465
f 465//465 412//412 464//464
f 412//412 465//465 413//413
f 414//414 466//466 413//413
f 465//465 413//413 466//466
f 466//466 413//413 465//465
f 413//413 466//466 414//414
f 415//415 467//467 414//414
f 466//466 414//414 467//467
f 467//467 414//414 466//466
f 414//414 467//467 415//415
f 416//416 468//468 415//415
f 467//467 415//415 468//468
f 468//468 415//415 467//467
f 415//415 468//468 416//416
f 417//417 469//469 416//416
f 468//468 416//416 469//469
f 469//469 416//416 468//468
f 416//416 469//469 417//417
f 418//418 470//470 417//417
f 469//469 417//417 470//470
f 470//470 417//417 469//469
f 417//417 470//470 418//418
f 419//419 471//471 418//418
f 470//470 418//418 471//471
f 471//471 418//418 470//470
f 418//418 471//471 419//419
f 420//420 472//472 419//419
f 471//471 419//419 472//472
f 472//472 419//419 471//471
f 419//419 472//472 420//420
f 421//421 473//473 420//420
f 472//472 420//420 473//473
f 473//473 420//420 472//472
f 420//420 473//473 421//421
f 422//422 474//474 421//421
f 473//473 421//421 474//474
f 474//474 421//421 473//473
f 421//421 474//474 422//422
f 423//423 475//475 422//422
f 474//474 422//422 475//475
f 475//475 422//422 474//474
f 422//422 475//475 423//423
f 424//424 476//476 423//423
f 475//475 423//423 476//476
f 476//476 423//423 475//475
f 423//423 476//476 424//424
f 477//477 476//476 425//425
f 424//424 425//425 476//476
f 476//476 425//425 424//424
f 425//425 476//476 477//477
f 478//478 477//477 426//426
f 425//425 426//426 477//477
f 477//477 426//426 425//425
f 426//426 477//477 478//478
f 479//479 478//478 427//427
f 426//426 427//427 478//478
f 478//478 427//427 426//426
f 427//427 478//478 479//479
f 480//480 479//479 428//428
f 427//427 428//428 479//479
f 479//479 428//428 427//427
f 428//428 479//479 480//480
f 481//481 480//480 429//429
f 428//428 429//429 480//480
f 480//480 429//429 428//428
f 429//429 480//480 481//481
f 482//482 481//481 430//430
f 429//429 430//430 481//481
f 481//481 430//430 429//429
f 430//430 481//481 482//482
f 483//483 482//482 431//431
f 430//430 431//431 482//482
f 482//482 431//431 430//430
f 431//431 482//482 483//483
f 484//484 483//483 432//432
f 431//431 432//432 483//483
f 483//483 432//432 431//431
f 432//432 483//483 484//484
f 485//485 484//484 433//433
f 432//432 433//433 484//484
f 484//484 433//433 432//432
f 433//433 484//484 485//485
f 486//486 485//485 434//434
f 433//433 434//434 485//485
f 485//485 434//434 433//433
f 434//434 485//485 486//486
f 487//487 486//486 435//435
f 434//434 435//435 486//486
f 486//486 435//435 434//434
f 435//435 486//486 487//487
f 488//488 487//487 436//436
f 435//435 436//436 487//487
f 487//487 436//436 435//435
f 436//436 487//487 488//488
f 489//489 488//488 437//437
f 436//436 437//437 488//488
f 488//488 437//437 436//436
f 437//437 488//488 489//489
f 489//489 437//437 490//490
f 438//438 490//490 437//437
f 437//437 490//490 438//438
f 490//490 437//437 489//489
f 490//490 438//438 491//491
f 439//439 491//491 438//438
f 438//438 491//491 439//439
f 491//491 438//438 490//490
f 491//491 439//439 492//492
f 440//440 492//492 439//439
f 439//439 492//492 440//440
f 492//492 439//439 491//491
f 492//492 440//440 493//493
f 441//441 493//493 440//440
f 440//440 493//493 441//441
f 493//493 440//440 492//492
f 493//493 441//441 494//494
f 442//442 494//494 441//441
f 441//441 494//494 442//442
f 494//494 441//441 493//493
f 494//494 442//442 495//495
f 443//443 495//495 442//442
f 442//442 495//495 443//443
f 495//495 442//442 494//494
f 495//495 443//443 496//496
f 444//444 496//496 443//443
f 443//443 496//496 444//444
f 496//496 443//443 495//495
f 496//496 444//444 497//497
f 445//445 497//497 444//444
f 444//444 497//497 445//445
f 497//497 444//444 496//496
f 497//497 445//445 498//498
f 446//446 498//498 445//445
f 445//445 498//498 446//446
f 498//498 445//445 497//497
f 498//498 446//446 499//499
f 447//447 499//499 446//446
f 446//446 499//499 447//447
f 499//499 446//446 498//498
f 499//499 447//447 500//500
f 448//448 500//500 447//447
f 447//447 500//500 448//448
f 500//500 447//447 499//499
f 500//500 448//448 501//501
f 449//449 501//501 448//448
f 448//448 501//501 449//449
f 501//501 448//448 500//500
f 501//501 449//449 502//502
f 450//450 502//502 449//449
f 449//449 502//502 450//450
f 502//502 449//449 501//501
f 503//503 502//502 451//451
f 450//450 451//451 502//502
f 502//502 451//451 450//450
f 451//451 502//502 503//503
f 504//504 503//503 452//452
f 451//451 452//452 503//503
f 503//503 452//452 451//451
f 452//452 503//503 504//504
f 505//505 504//504 453//453
f 452//452 453//453 504//504
f 504//504 453//453 452//452
f 453//453 504//504 505//505
f 506//506 505//505 454//454
f 453//453 454//454 505//505
f 505//505 454//454 453//453
f 454//454 505//505 506//506
f 507//507 506//506 455//455
f 454//454 455//455 506//506
f 506//506 455//455 454//454
f 455//455 506//506 507//507
f 508//508 507//507 456//456
f 455//455 456//456 507//507
f 507//507 456//456 455//455
f 456//456 507//507 508//508
f 458//458 508//508 406//406
f 456//456 406//406 508//508
f 508//508 406//406 456//456
f 406//406 508//508 458//458
f 469//469 470//470 468//468
f 471//471 468//468 470//470
f 467//467 468//468 471//471
f 472//472 467//467 471//471
f 466//466 467//467 472//472
f 473//473 466//466 472//472
f 465//465 466//466 473//473
f 474//474 465//465 473//473
f 464//464 465//465 474//474
f 475//475 464//464 474//474
f 463//463 464//464 475//475
f 476//476 463//463 475//475
f 462//462 463//463 476//476
f 477//477 462//462 476//476
f 461//461 462//462 477//477
f 478//478 461//461 477//477
f 460//460 461//461 478//478
f 479//479 460//460 478//478
f 459//459 460//460 479//479
f 480//480 459//459 479//479
f 457//457 459//459 480//480
f 481//481 457//457 480//480
f 458//458 457//457 481//481
f 482//482 458//458 481//481
f 508//508 458//458 482//482
f 483//483 508//508 482//482
f 507//507 508//508 483//483
f 484//484 507//507 483//483
f 506//506 507//507 484//484
f 485//485 506//506 484//484
f 505//505 506//506 485//485
f 486//486 505//505 485//485
f 504//504 505//505 486//486
f 487//487 504//504 486//486
f 503//503 504//504 487//487
f 488//488 503//503 487//487
f 502//502 503//503 488//488
f 489//489 502//502 488//488
f 501//501 502//502 489//489
f 490//490 501//501 489//489
f 500//500 501//501 490//490
f 491//491 500//500 490//490
f 499//499 500//500 491//491
f 492//492 499//499 491//491
f 498//498 499//499 492//492
f 493//493 498//498 492//492
f 497//497 498//498 493//493
f 494//494 497//497 493//493
f 496//496 497//497 494//494
f 495//495 496//496 494//494
f 494//494 496//496 495//495
f 494//494 497//497 496//496
f 493//493 497//497 494//494
f 493//493 498//498 497//497
f 492//492 498//498 493//493
f 492//492 499//499 498//498
f 491//491 499//499 492//492
f 491//491 500//500 499//499
f 490//490 500//500 491//491
f 490//490 501//501 500//500
f 489//489 501//501 490//490
f 489//489 502//502 501//501
f 488//488 502//502 489//489
f 488//488 503//503 502//502
f 487//487 503//503 488//488
f 487//487 504//504 503//503
f 486//486 504//504 487//487
f 486//486 505//505 504//504
f 485//485 505//505 486//486
f 485//485 506//506 505//505
f 484//484 506//506 485//485
f 484//484 507//507 506//506
f 483//483 507//507 484//484
f 483//483 508//508 507//507
f 482//482 508//508 483//483
f 482//482 458//458 508//508
f 481//481 458//458 482//482
f 481//481 457//457 458//458
f 480//480 457//457 481//481
f 480//480 459//459 457//457
f 479//479 459//459 480//480
f 479//479 460//460 459//459
f 478//478 460//460 479//479
f 478//478 461//461 460//460
f 477//477 461//461 478//478
f 477//477 462//462 461//461
f 476//476 462//462 477//477
f 476//476 463//463 462//462
f 475//475 463//463 476//476
f 475//475 464//464 463//463
f 474//474 464//464 475//475
f 474//474 465//465 464//464
f 473//473 465//465 474//474
f 473//473 466//466 465//465
f 472//472 466//466 473//473
f 472//472 467//467 466//466
f 471//471 467//467 472//472
f 471//471 468//468 467//467
f 470//470 468//468 471//471
f 468//468 470//470 469//469
f 352//352 351//351 350//350
f 349//349 350//350 351//351
f 348//348 350//350 349//349
f 347//347 348//348 349//349
f 346//346 348//348 347//347
f 345//345 346//346 347//347
f 344//344 346//346 345//345
f 343//343 344//344 345//345
f 342//342 344//344 343//343
f 341//341 342//342 343//343
f 339//339 342//342 341//341
f 340//340 339//339 341//341
f 338//338 339//339 340//340
f 337//337 339//339 338//338
f 336//336 337//337 338//338
f 335//335 337//337 336//336
f 333//333 335//335 336//336
f 334//334 335//335 333//333
f 332//332 334//334 333//333
f 331//331 332//332 333//333
f 330//330 332//332 331//331
f 329//329 330//330 331//331
f 327//327 330//330 329//329
f 328//328 327//327 329//329
f 326//326 327//327 328//328
f 325//325 327//327 326//326
f 323//323 325//325 326//326
f 324//324 325//325 323//323
f 322//322 324//324 323//323
f 321//321 322//322 323//323
f 320//320 322//322 321//321
f 319//319 320//320 321//321
f 318//318 320//320 319//319
f 317//317 318//318 319//319
f 316//316 318//318 317//317
f 315//315 316//316 317//317
f 313//313 316//316 315//315
f 314//314 313//313 315//315
f 311//311 313//313 314//314
f 312//312 313//313 311//311
f 310//310 312//312 311//311
f 309//309 310//310 311//311
f 308//308 310//310 309//309
f 307//307 308//308 309//309
f 306//306 308//308 307//307
f 305//305 306//306 307//307
f 304//304 306//306 305//305
f 301//301 304//304 305//305
f 302//302 304//304 301//301
f 303//303 302//302 301//301
f 273//273 509//509 274//274
f 510//510 274//274 509//509
f 509//509 274//274 510//510
f 274//274 509//509 273//273
f 511//511 510//510 512//512
f 509//509 512//512 510//510
f 510//510 512//512 509//509
f 512//512 510//510 511//511
f 269//269 270//270 273//273
f 250//250 512//512 270//270
f 509//509 270//270 512//512
f 273//273 270//270 509//509
f 509//509 270//270 273//273
f 512//512 270//270 509//509
f 270//270 512//512 250//250
f 273//273 270//270 269//269
f 259//259 288//288 511//511
f 510//510 511//511 288//288
f 275//275 510//510 288//288
f 274//274 510//510 275//275
f 275//275 510//510 274//274
f 288//288 510//510 275//275
f 288//288 511//511 510//510
f 511//511 288//288 259//259
f 250//250 259//259 512//512
f 511//511 512//512 259//259
f 259//259 512//512 511//511
f 512//512 259//259 250//250
f 271//271 250//250 269//269
f 270//270 269//269 250//250
f 269//269 272//272 271//271
f 275//275 272//272 274//274
f 273//273 274//274 272//272
f 269//269 273//273 272//272
f 271//271 284//284 250//250
f 287//287 250//250 284//284
f 282//282 250//250 287//287
f 281//281 282//282 287//287
f 286//286 250//250 282//282
f 279//279 250//250 286//286
f 278//278 279//279 286//286
f 285//285 250//250 279//279
f 276//276 250//250 285//285
f 259//259 283//283 272//272
f 271//271 272//272 283//283
f 284//284 271//271 283//283
f 281//281 283//283 259//259
f 280//280 281//281 259//259
f 282//282 281//281 280//280
f 278//278 280//280 259//259
f 277//277 278//278 259//259
f 279//279 278//278 277//277
f 276//276 277//277 259//259
f 250//250 276//276 259//259
f 259//259 272//272 288//288
f 275//275 288//288 272//272
f 292//292 289//289 290//290
f 291//291 290//290 289//289
f 283//283 281//281 289//289
f 291//291 289//289 281//281
f 281//281 289//289 291//291
f 289//289 281//281 283//283
f 283//283 289//289 284//284
f 292//292 284//284 289//289
f 289//289 284//284 292//292
f 284//284 289//289 283//283
f 291//291 281//281 290//290
f 287//287 290//290 281//281
f 281//281 290//290 287//287
f 290//290 281//281 291//291
f 287//287 284//284 290//290
f 292//292 290//290 284//284
f 284//284 290//290 292//292
f 290//290 284//284 287//287
f 296//296 293//293 294//294
f 295//295 294//294 293//293
f 280//280 278//278 293//293
f 295//295 293//293 278//278
f 278//278 293//293 295//295
f 293//293 278//278 280//280
f 280//280 293//293 282//282
f 296//296 282//282 293//293
f 293//293 282//282 296//296
f 282//282 293//293 280//280
f 295//295 278//278 294//294
f 286//286 294//294 278//278
f 278//278 294//294 286//286
f 294//294 278//278 295//295
f 286//286 282//282 294//294
f 296//296 294//294 282//282
f 282//282 294//294 296//296
f 294//294 282//282 286//286
f 300//300 297//297 298//298
f 299//299 298//298 297//297
f 277//277 276//276 297//297
f 299//299 297//297 276//276
f 276//276 297//297 299//299
f 297//297 276//276 277//277
f 277//277 297//297 279//279
f 300//300 279//279 297//297
f 297//297 279//279 300//300
f 279//279 297//297 277//277
f 299//299 276//276 298//298
f 285//285 298//298 276//276
f 276//276 298//298 285//285
f 298//298 276//276 299//299
f 285//285 279//279 298//298
f 300//300 298//298 279//279
f 279//279 298//298 300//300
f 298//298 279//279 285//285