# https://github.com/mikedh/trimesh
v -0.00834400 0.05870300 -0.00547900
v 0.03478400 -0.00165100 -0.00547900
v 0.03478400 0.05870300 -0.00547900
v -0.00834400 -0.00165100 -0.00547900
v 0.03478400 -0.00172300 -0.00548600
v -0.00834400 -0.00172300 -0.00548600
v 0.03478400 -0.00186400 -0.00552200
v -0.00834400 -0.00186400 -0.00552200
v 0.03478400 -0.00199800 -0.00558000
v -0.00834400 -0.00199800 -0.00558000
v 0.03478400 -0.00212100 -0.00565700
v -0.00834400 -0.00212100 -0.00565700
v 0.03478400 -0.00223100 -0.00575100
v -0.00834400 -0.00223100 -0.00575100
v -0.00834400 -0.00232600 -0.00586200
v 0.03478400 -0.00232600 -0.00586200
v -0.00834400 -0.00240300 -0.00598500
v 0.03478400 -0.00240300 -0.00598500
v -0.00834400 -0.00246000 -0.00611900
v 0.03478400 -0.00246000 -0.00611900
v -0.00834400 -0.00249600 -0.00625900
v 0.03478400 -0.00249600 -0.00625900
v -0.00834400 -0.00250200 -0.00631600
v 0.03478400 -0.00250200 -0.00631600
v 0.03478400 -0.00250400 -0.00629900
v -0.00834400 -0.00250800 -0.00625800
v 0.03478400 -0.00250800 -0.00625800
v -0.00834400 -0.00250400 -0.00629900
v -0.00834400 -0.00254300 -0.00611600
v 0.03478400 -0.00254300 -0.00611600
v -0.00834400 -0.00259900 -0.00598200
v 0.03478400 -0.00259900 -0.00598200
v -0.00834400 -0.00267600 -0.00585700
v 0.03478400 -0.00267600 -0.00585700
v -0.00834400 -0.00277100 -0.00574600
v 0.03478400 -0.00277100 -0.00574600
v 0.03478400 -0.00288200 -0.00565100
v -0.00834400 -0.00288200 -0.00565100
v 0.03478400 -0.00300600 -0.00557500
v -0.00834400 -0.00300600 -0.00557500
v 0.03478400 -0.00314100 -0.00551800
v -0.00834400 -0.00314100 -0.00551800
v 0.03478400 -0.00328300 -0.00548200
v -0.00834400 -0.00328300 -0.00548200
v 0.03478400 -0.00332400 -0.00547900
v -0.00834400 -0.00332400 -0.00547900
v 0.03478400 -0.06371000 -0.00547900
v -0.00834400 -0.06371000 -0.00547900
v -0.00834400 -0.06510400 0.00526900
v 0.03478400 -0.06531200 0.00533900
v 0.03478400 -0.06510400 0.00526900
v -0.00834400 -0.06531200 0.00533900
v -0.00834400 -0.06490600 0.00517100
v 0.03478400 -0.06490600 0.00517100
v -0.00834400 -0.06472300 0.00504900
v 0.03478400 -0.06472300 0.00504900
v -0.00834400 -0.06455700 0.00490400
v 0.03478400 -0.06455700 0.00490400
v 0.03478400 -0.06441200 0.00473800
v -0.00834400 -0.06441200 0.00473800
v 0.03478400 -0.06429000 0.00455500
v -0.00834400 -0.06429000 0.00455500
v 0.03478400 -0.06419300 0.00435700
v -0.00834400 -0.06419300 0.00435700
v 0.03478400 -0.06412200 0.00414900
v -0.00834400 -0.06412200 0.00414900
v 0.03478400 -0.06407900 0.00393300
v -0.00834400 -0.06407900 0.00393300
v 0.03478400 -0.06406400 0.00371300
v -0.00834400 -0.06406400 0.00371300
v 0.03478400 -0.00250400 -0.00926800
v 0.03478400 -0.00250400 -0.00633100
v 0.03478400 -0.00251000 -0.00936300
v 0.03478400 -0.00252900 -0.00945600
v 0.03478400 -0.00255900 -0.00954600
v 0.03478400 -0.00260100 -0.00963200
v 0.03478400 -0.00265400 -0.00971100
v 0.03478400 -0.00271700 -0.00978300
v 0.03478400 -0.00278900 -0.00984600
v 0.03478400 -0.00286800 -0.00989800
v 0.03478400 -0.00295300 -0.00994100
v 0.03478400 -0.00304400 -0.00997100
v 0.03478400 -0.00313700 -0.00999000
v 0.03478400 -0.00323200 -0.00999600
v 0.03478400 -0.06312300 -0.00999600
v 0.03478400 -0.06324600 -0.00998800
v 0.03478400 -0.06336700 -0.00996400
v 0.03478400 -0.06348300 -0.00992400
v 0.03478400 -0.06359400 -0.00987000
v 0.03478400 -0.06369600 -0.00980200
v 0.03478400 -0.06375600 -0.00548200
v 0.03478400 -0.06378900 -0.00972000
v 0.03478400 -0.06380200 -0.00549100
v 0.03478400 -0.06384600 -0.00550600
v 0.03478400 -0.06387000 -0.00962800
v 0.03478400 -0.06388700 -0.00552600
v 0.03478400 -0.06392600 -0.00555200
v 0.03478400 -0.06393800 -0.00952500
v 0.03478400 -0.06396100 -0.00558300
v 0.03478400 -0.06399100 -0.00561700
v 0.03478400 -0.06399300 -0.00941500
v 0.03478400 -0.06401700 -0.00565600
v 0.03478400 -0.06403200 -0.00929800
v 0.03478400 -0.06403700 -0.00569700
v 0.03478400 -0.06405200 -0.00574100
v 0.03478400 -0.06405600 -0.00917800
v 0.03478400 -0.06406100 -0.00578700
v 0.03478400 -0.06406400 -0.00905500
v 0.03478400 -0.06406400 -0.00583300
v 0.03478400 0.05932900 -0.00602800
v 0.03478400 0.05933400 -0.00916400
v 0.03478400 0.05933400 -0.00611000
v 0.03478400 0.05932700 -0.00927200
v 0.03478400 0.05931200 -0.00594700
v 0.03478400 0.05930600 -0.00937900
v 0.03478400 0.05928600 -0.00586900
v 0.03478400 0.05927100 -0.00948200
v 0.03478400 0.05924900 -0.00579500
v 0.03478400 0.05922300 -0.00958000
v 0.03478400 0.05920400 -0.00572600
v 0.03478400 0.05916200 -0.00967000
v 0.03478400 0.05914900 -0.00566400
v 0.03478400 0.05909000 -0.00975200
v 0.03478400 0.05908700 -0.00560900
v 0.03478400 0.05901800 -0.00556300
v 0.03478400 0.05900800 -0.00982400
v 0.03478400 0.05894400 -0.00552700
v 0.03478400 0.05891800 -0.00988500
v 0.03478400 0.05886600 -0.00550000
v 0.03478400 0.05882000 -0.00993300
v 0.03478400 0.05878500 -0.00548400
v 0.03478400 0.05871700 -0.00996800
v 0.03478400 0.05861000 -0.00998900
v 0.03478400 0.05850200 -0.00999600
v 0.03478400 -0.00173300 -0.00999600
v 0.03478400 -0.00183100 -0.00999500
v 0.03478400 -0.00192900 -0.00998100
v 0.03478400 -0.00202400 -0.00995300
v 0.03478400 -0.00211500 -0.00991300
v 0.03478400 -0.00219900 -0.00986100
v 0.03478400 -0.00227500 -0.00979800
v 0.03478400 -0.00234200 -0.00972500
v 0.03478400 -0.00239900 -0.00964400
v 0.03478400 -0.00244400 -0.00955700
v 0.03478400 -0.00247700 -0.00946300
v 0.03478400 -0.00249700 -0.00936600
v -0.00834400 0.05933400 0.00246400
v 0.03478400 0.05935900 0.00284700
v -0.00834400 0.05935900 0.00284700
v 0.03478400 0.05933400 0.00246400
v 0.03478400 0.05943400 0.00322300
v -0.00834400 0.05943400 0.00322300
v 0.03478400 0.05955700 0.00358600
v -0.00834400 0.05955700 0.00358600
v 0.03478400 0.05972700 0.00393000
v -0.00834400 0.05972700 0.00393000
v 0.03478400 0.05994000 0.00424900
v -0.00834400 0.05994000 0.00424900
v 0.03478400 0.06019300 0.00453800
v -0.00834400 0.06019300 0.00453800
v -0.00834400 0.06048200 0.00479100
v 0.03478400 0.06048200 0.00479100
v -0.00834400 0.06080100 0.00500400
v 0.03478400 0.06080100 0.00500400
v -0.00834400 0.06114500 0.00517300
v 0.03478400 0.06114500 0.00517300
v -0.00834400 0.06150800 0.00529700
v 0.03478400 0.06150800 0.00529700
v -0.00834400 0.06188400 0.00537200
v 0.03478400 0.06188400 0.00537200
v -0.00834400 0.06226700 0.00539700
v 0.03478400 0.06226700 0.00539700
v -0.02446000 0.06861700 -0.01772600
v 0.03478400 0.06926300 -0.01759700
v 0.03478400 0.06861700 -0.01772600
v -0.02446000 0.06926300 -0.01759700
v 0.03478400 0.06988800 -0.01738500
v -0.02446000 0.06988800 -0.01738500
v 0.03478400 0.07047900 -0.01709300
v -0.02446000 0.07047900 -0.01709300
v 0.03478400 0.07102700 -0.01672700
v -0.02446000 0.07102700 -0.01672700
v 0.03478400 0.07152300 -0.01629200
v -0.02446000 0.07152300 -0.01629200
v -0.02446000 0.07195800 -0.01579700
v 0.03478400 0.07195800 -0.01579700
v -0.02446000 0.07232400 -0.01524800
v 0.03478400 0.07232400 -0.01524800
v -0.02446000 0.07261600 -0.01465700
v 0.03478400 0.07261600 -0.01465700
v -0.02446000 0.07282800 -0.01403300
v 0.03478400 0.07282800 -0.01403300
v -0.02446000 0.07295600 -0.01338600
v 0.03478400 0.07295600 -0.01338600
v -0.02446000 0.07299900 -0.01272800
v 0.03478400 0.07299900 -0.01272800
v 0.03478400 0.07299900 0.00265700
v -0.02446000 0.07297600 0.00301500
v 0.03478400 0.07297600 0.00301500
v -0.02446000 0.07299900 0.00265700
v -0.02446000 0.07290600 0.00336600
v 0.03478400 0.07290600 0.00336600
v -0.02446000 0.07279100 0.00370600
v 0.03478400 0.07279100 0.00370600
v -0.02446000 0.07263200 0.00402700
v 0.03478400 0.07263200 0.00402700
v -0.02446000 0.07243300 0.00432500
v 0.03478400 0.07243300 0.00432500
v -0.02446000 0.07219700 0.00459400
v 0.03478400 0.07219700 0.00459400
v 0.03478400 0.07192700 0.00483100
v -0.02446000 0.07192700 0.00483100
v 0.03478400 0.07162900 0.00503000
v -0.02446000 0.07162900 0.00503000
v 0.03478400 0.07130800 0.00518800
v -0.02446000 0.07130800 0.00518800
v 0.03478400 0.07096900 0.00530300
v -0.02446000 0.07096900 0.00530300
v 0.03478400 0.07061700 0.00537300
v -0.02446000 0.07061700 0.00537300
v 0.03478400 0.07026000 0.00539700
v -0.02446000 0.07026000 0.00539700
v -0.02446000 -0.07442700 0.00538100
v 0.03478400 -0.07466200 0.00533400
v 0.03478400 -0.07442700 0.00538100
v -0.02446000 -0.07466200 0.00533400
v 0.03478400 -0.07489000 0.00525700
v -0.02446000 -0.07489000 0.00525700
v 0.03478400 -0.07510500 0.00515100
v -0.02446000 -0.07510500 0.00515100
v 0.03478400 -0.07530500 0.00501700
v -0.02446000 -0.07530500 0.00501700
v 0.03478400 -0.07548500 0.00485900
v -0.02446000 -0.07548500 0.00485900
v -0.02446000 -0.07564300 0.00467900
v 0.03478400 -0.07564300 0.00467900
v -0.02446000 -0.07577700 0.00447900
v 0.03478400 -0.07577700 0.00447900
v -0.02446000 -0.07588300 0.00426400
v 0.03478400 -0.07588300 0.00426400
v -0.02446000 -0.07596000 0.00403600
v 0.03478400 -0.07596000 0.00403600
v -0.02446000 -0.07600700 0.00380100
v 0.03478400 -0.07600700 0.00380100
v -0.02446000 -0.07602300 0.00356100
v 0.03478400 -0.07602300 0.00356100
v -0.02446000 -0.07599000 -0.01446700
v 0.03478400 -0.07602300 -0.01397200
v -0.02446000 -0.07602300 -0.01397200
v 0.03478400 -0.07599000 -0.01446700
v -0.02446000 -0.07589300 -0.01495400
v 0.03478400 -0.07589300 -0.01495400
v -0.02446000 -0.07573400 -0.01542500
v 0.03478400 -0.07573400 -0.01542500
v -0.02446000 -0.07551400 -0.01587000
v 0.03478400 -0.07551400 -0.01587000
v -0.02446000 -0.07523800 -0.01628300
v 0.03478400 -0.07523800 -0.01628300
v -0.02446000 -0.07491100 -0.01665700
v 0.03478400 -0.07491100 -0.01665700
v 0.03478400 -0.07453700 -0.01698400
v -0.02446000 -0.07453700 -0.01698400
v 0.03478400 -0.07412400 -0.01726000
v -0.02446000 -0.07412400 -0.01726000
v 0.03478400 -0.07367900 -0.01748000
v -0.02446000 -0.07367900 -0.01748000
v 0.03478400 -0.07320900 -0.01763900
v -0.02446000 -0.07320900 -0.01763900
v 0.03478400 -0.07272100 -0.01773600
v -0.02446000 -0.07272100 -0.01773600
v 0.03478400 -0.07222600 -0.01776900
v -0.02446000 -0.07222600 -0.01776900
v -0.02446000 0.06795900 -0.01776900
v 0.03478400 0.06795900 -0.01776900
v -0.02446000 0.06282800 0.00539700
v -0.01982900 -0.06617500 0.00539700
v -0.01982900 0.06282800 0.00539700
v -0.02446000 0.05573400 0.00539700
v -0.02446000 -0.06617500 0.00539700
v -0.01982900 0.06655700 0.00539700
v -0.01982900 0.06768900 0.02735900
v -0.01982900 0.06768900 0.00539700
v -0.01982900 0.06282800 0.02735900
v -0.01982900 -0.06990500 0.00539700
v -0.01982900 -0.06990500 0.02735900
v -0.01693000 0.06282800 0.02735900
v -0.01559300 0.06768900 0.02585200
v -0.01693000 0.06768900 0.02735900
v -0.01693000 -0.06990500 0.02735900
v -0.01559300 -0.06990500 0.02585200
v -0.01435600 0.06768900 0.02426300
v -0.01435600 -0.06990500 0.02426300
v -0.01322300 0.06768900 0.02259800
v -0.01322300 -0.06990500 0.02259800
v -0.01219900 0.06768900 0.02086300
v -0.01219900 -0.06990500 0.02086300
v -0.01128900 0.06768900 0.01906700
v -0.01128900 -0.06990500 0.01906700
v -0.01049600 0.06768900 0.01721500
v -0.01049600 -0.06990500 0.01721500
v -0.00982300 0.06768900 0.01531700
v -0.00982300 -0.06990500 0.01531700
v -0.00927400 -0.06990500 0.01337900
v -0.00927400 0.06768900 0.01337900
v -0.00884900 0.06768900 0.01141000
v -0.00884900 -0.06990500 0.01141000
v -0.00855200 -0.06990500 0.00941800
v -0.00855200 0.06768900 0.00941800
v -0.00838400 -0.06990500 0.00741100
v -0.00838400 0.06768900 0.00741100
v -0.00834400 0.06768900 0.00539700
v -0.02446000 0.06768900 0.00539700
v -0.00834400 0.05932900 -0.00602800
v -0.00834400 0.05933400 -0.00611000
v -0.00834400 0.05931200 -0.00594700
v -0.00834400 0.05928600 -0.00586900
v -0.00834400 0.05924900 -0.00579500
v -0.00834400 0.05920400 -0.00572600
v -0.00834400 0.05914900 -0.00566400
v -0.00834400 0.05908700 -0.00560900
v -0.00834400 0.05901800 -0.00556300
v -0.00834400 0.05894400 -0.00552700
v -0.00834400 0.05886600 -0.00550000
v -0.00834400 0.05878500 -0.00548400
v -0.00834400 -0.06375600 -0.00548200
v -0.00834400 -0.06405200 -0.00574100
v -0.00834400 -0.06406100 -0.00578700
v -0.00834400 -0.06403700 -0.00569700
v -0.00834400 -0.06401700 -0.00565600
v -0.00834400 -0.06399100 -0.00561700
v -0.00834400 -0.06396100 -0.00558300
v -0.00834400 -0.06392600 -0.00555200
v -0.00834400 -0.06388700 -0.00552600
v -0.00834400 -0.06384600 -0.00550600
v -0.00834400 -0.06380200 -0.00549100
v -0.00834400 -0.06552800 0.00538200
v -0.00834400 -0.06574800 0.00539700
v -0.00834400 -0.06406400 -0.00583300
v 0.03478400 -0.06552800 0.00538200
v 0.03478400 -0.06406400 -0.00999600
v 0.03478400 0.05933400 -0.00999600
v 0.03478400 -0.06574800 0.00539700
v 0.03478400 -0.07418700 0.00539700
v -0.02446000 -0.07418700 0.00539700
v -0.02446000 0.06655700 0.00539700
v -0.02446000 -0.06990500 0.00539700
v -0.00834400 -0.06990500 0.00539700
v -0.00834400 -0.06617500 0.00539700
v -0.00497300 -0.06406400 -0.00905500
v -0.00497300 -0.06406400 -0.00999600
v -0.00497300 -0.06405600 -0.00917800
v -0.00497300 -0.06403200 -0.00929800
v -0.00497300 -0.06399300 -0.00941500
v -0.00497300 -0.06393800 -0.00952500
v -0.00497300 -0.06387000 -0.00962800
v -0.00497300 -0.06378900 -0.00972000
v -0.00497300 -0.06369600 -0.00980200
v -0.00497300 -0.06359400 -0.00987000
v -0.00497300 -0.06348300 -0.00992400
v -0.00497300 -0.06336700 -0.00996400
v -0.00497300 -0.06324600 -0.00998800
v -0.00497300 -0.06312300 -0.00999600
v 0.02080600 0.05933400 -0.00999600
v 0.02080600 0.05850200 -0.00999600
v 0.02080600 0.05861000 -0.00998900
v 0.02080600 0.05871700 -0.00996800
v 0.02080600 0.05882000 -0.00993300
v 0.02080600 0.05891800 -0.00988500
v 0.02080600 0.05900800 -0.00982400
v 0.02080600 0.05909000 -0.00975200
v 0.02080600 0.05916200 -0.00967000
v 0.02080600 0.05922300 -0.00958000
v 0.02080600 0.05927100 -0.00948200
v 0.02080600 0.05930600 -0.00937900
v 0.02080600 0.05932700 -0.00927200
v 0.02080600 0.05933400 -0.00916400
v 0.03186100 -0.00247700 -0.00946300
v 0.03186100 -0.00249700 -0.00936600
v 0.03186100 -0.00244400 -0.00955700
v 0.03186100 -0.00239900 -0.00964400
v 0.03186100 -0.00234200 -0.00972500
v 0.03186100 -0.00227500 -0.00979800
v 0.03186100 -0.00219900 -0.00986100
v 0.03186100 -0.00211500 -0.00991300
v 0.03186100 -0.00202400 -0.00995300
v 0.03186100 -0.00192900 -0.00998100
v 0.03186100 -0.00183100 -0.00999500
v 0.03186100 -0.00173300 -0.00999600
v 0.03186100 -0.00323200 -0.00999600
v 0.03186100 -0.00313700 -0.00999000
v 0.03186100 -0.00304400 -0.00997100
v 0.03186100 -0.00295300 -0.00994100
v 0.03186100 -0.00286800 -0.00989800
v 0.03186100 -0.00278900 -0.00984600
v 0.03186100 -0.00271700 -0.00978300
v 0.03186100 -0.00265400 -0.00971100
v 0.03186100 -0.00260100 -0.00963200
v 0.03186100 -0.00255900 -0.00954600
v 0.03186100 -0.00252900 -0.00945600
v 0.03186100 -0.00251000 -0.00936300
v 0.03186100 -0.00250400 -0.00926800
v 0.03345600 0.06716700 -0.01776900
v 0.03176200 0.06398800 -0.02260700
v 0.03176200 0.06644800 -0.02260700
v 0.03345600 0.06293400 -0.01776900
v 0.02349600 0.06716700 -0.01776900
v 0.02597600 0.06644800 -0.02260700
v 0.02597600 0.06398800 -0.02260700
v 0.02349600 0.06293400 -0.01776900
v 0.02597600 -0.06987600 -0.02260700
v 0.03345600 -0.07093000 -0.01776900
v 0.02349600 -0.07093000 -0.01776900
v 0.03176200 -0.06987600 -0.02260700
v 0.03176200 -0.06741600 -0.02260700
v 0.02597600 -0.06741600 -0.02260700
v 0.03345600 -0.06669700 -0.01776900
v 0.02349600 -0.06669700 -0.01776900
v -0.01266600 -0.06669700 -0.01776900
v -0.01435900 -0.06987600 -0.02260700
v -0.01435900 -0.06741600 -0.02260700
v -0.01266600 -0.07093000 -0.01776900
v -0.02014500 -0.06987600 -0.02260700
v -0.02262500 -0.07093000 -0.01776900
v -0.02014500 -0.06741600 -0.02260700
v -0.02262500 -0.06669700 -0.01776900
v -0.02014500 0.06285600 -0.02260700
v -0.02262500 0.06603600 -0.01776900
v -0.02014500 0.06531600 -0.02260700
v -0.02262500 0.06180200 -0.01776900
v -0.01435900 0.06531600 -0.02260700
v -0.01266600 0.06603600 -0.01776900
v -0.01435900 0.06285600 -0.02260700
v -0.01266600 0.06180200 -0.01776900
vn 0.71402408 0.02131547 0.69979658
vn 0.69636485 -0.03476470 0.71684546
vn 0.70031797 0.02173287 0.71350012
vn 0.71817396 -0.03370753 0.69504674
vn 0.69029640 -0.12486606 0.71267058
vn 0.72472739 -0.11891361 0.67869710
vn 0.68971353 -0.23410888 0.68519214
vn 0.72536885 -0.22255933 0.65138881
vn 0.69053418 -0.33651030 0.64025258
vn 0.72446633 -0.32069688 0.61016560
vn 0.69086045 -0.42782845 0.58281613
vn 0.72410867 -0.40812185 0.55597049
vn 0.69000485 -0.51161352 0.51200089
vn 0.72504798 -0.48679895 0.48716753
vn 0.72419758 -0.55574077 0.40827694
vn 0.69077929 -0.58271669 0.42809489
vn 0.72520783 -0.61048139 0.31841180
vn 0.68985966 -0.64188022 0.33478864
vn 0.72442586 -0.65283772 0.22138220
vn 0.69057106 -0.68495325 0.23227281
vn 0.72399308 -0.67887348 0.12233076
vn 0.69096603 -0.71142914 0.12819718
vn 0.53781435 -0.00515606 0.84304753
vn 0.99835606 -0.00035054 0.05731542
vn 0.70934812 0.70081356 0.07540284
vn 0.72371084 0.68021857 0.11638435
vn 0.69122410 0.71228965 0.12187166
vn 0.70487910 0.70525707 0.07588093
vn 0.72486004 0.65419367 0.21589017
vn 0.69017571 0.68718906 0.22677896
vn 0.72510276 0.61272538 0.31431449
vn 0.68995508 0.64405519 0.33038598
vn 0.72504766 0.55649052 0.40573908
vn 0.69000515 0.58485709 0.42642125
vn 0.72495890 0.48704959 0.48704959
vn 0.69008582 0.51175266 0.51175266
vn 0.68976478 0.42589833 0.58552127
vn 0.72531236 0.40494933 0.55672077
vn 0.69058810 0.33056620 0.64328381
vn 0.72440718 0.31508295 0.61315331
vn 0.69049296 0.23021623 0.68572586
vn 0.72451155 0.21937076 0.65342137
vn 0.68792994 0.11610613 0.71642987
vn 0.72734511 0.10978628 0.67743344
vn 0.69898030 0.02611134 0.71466407
vn 0.71541805 0.02551093 0.69823076
vn 0.69985185 -0.02325495 0.71390937
vn 0.71450864 -0.02277762 0.69925574
vn 0.72260421 0.26416191 0.63879703
vn 0.69297726 0.18574088 0.69662246
vn 0.69223963 0.27578129 0.66689503
vn 0.72180441 0.17830507 0.66873440
vn 0.72183668 0.34615281 0.59927459
vn 0.69294743 0.36062021 0.62432117
vn 0.72202019 0.42035623 0.54953388
vn 0.69277794 0.43814507 0.57278933
vn 0.72258980 0.48880670 0.48880670
vn 0.69225289 0.51028714 0.51028714
vn 0.69277794 0.57278933 0.43814507
vn 0.72202019 0.54953388 0.42035623
vn 0.69250887 0.62541801 0.35956054
vn 0.72231189 0.59954689 0.34468691
vn 0.69314334 0.66605887 0.27553201
vn 0.72162479 0.63970908 0.26463175
vn 0.69251197 0.69665195 0.18735854
vn 0.72230852 0.66784032 0.17960990
vn 0.69294472 0.71469094 0.09510246
vn 0.72183961 0.68601339 0.09128639
vn 0.69952663 0.71419260 0.02431924
vn 0.71484747 0.69887535 0.02379767
vn 0.99941214 0.00014113 -0.03428334
vn 1.00000000 0.00000000 0.00000000
vn 0.69186421 0.71571783 -0.09524651
vn 0.69383189 0.69562879 -0.18627372
vn 0.69249990 0.66778604 -0.27295729
vn 0.69206200 0.62548663 -0.36030078
vn 0.69300051 0.57179299 -0.43909347
vn 0.69243686 0.51016232 -0.51016232
vn 0.69205377 0.43712931 -0.57443846
vn 0.69452852 0.36075470 -0.62248388
vn 0.69063584 0.27722348 -0.66795904
vn 0.69418939 0.18503697 -0.69560219
vn 0.69186421 0.09524651 -0.71571783
vn 0.99987321 0.01591585 0.00050211
vn 0.99986548 -0.01639315 0.00053255
vn 0.69268270 -0.09376758 -0.71512119
vn 0.69210101 -0.18830262 -0.69680580
vn 0.69377817 -0.27541792 -0.66544483
vn 0.69221189 -0.35884014 -0.62616008
vn 0.69227686 -0.43976797 -0.57215110
vn 0.69298168 -0.09286583 0.71494918
vn 0.69317755 -0.50984355 -0.50947467
vn 0.69219923 -0.18615200 0.69728592
vn 0.69328367 -0.27478713 0.66622052
vn 0.69187089 -0.57360576 -0.43851009
vn 0.69232669 -0.35911888 0.62587330
vn 0.69203535 -0.44055058 0.57184112
vn 0.69387110 -0.62363173 -0.36003661
vn 0.69353668 -0.50989515 0.50893399
vn 0.69223854 -0.57210201 0.43989214
vn 0.69149392 -0.66739420 -0.27644373
vn 0.69232669 -0.62587330 0.35911888
vn 0.69338483 -0.69642820 -0.18494656
vn 0.69328367 -0.66622052 0.27478713
vn 0.69219923 -0.69728592 0.18615200
vn 0.69251124 -0.71520965 -0.09435754
vn 0.69298168 -0.71494918 0.09286583
vn 0.99945085 0.00107589 -0.03311863
vn 0.99986474 0.00053545 0.01643796
vn 0.69105610 0.71633242 0.09648487
vn 0.99945472 -0.00106838 -0.03300183
vn 0.99988188 -0.00046794 0.01536275
vn 0.69287503 0.71504217 -0.09294557
vn 0.69441121 0.69458917 0.18798659
vn 0.69236900 0.69716594 -0.18596995
vn 0.69149392 0.66739420 0.27644373
vn 0.69300324 0.66638480 -0.27509599
vn 0.69447871 0.62413023 0.35799551
vn 0.69167588 0.62474354 -0.36232579
vn 0.69086677 0.57477849 0.43855763
vn 0.69332607 0.57012369 -0.44074703
vn 0.69390846 0.50916159 0.50916159
vn 0.69280878 0.50990979 -0.50990979
vn 0.69195201 0.44082068 0.57173380
vn 0.69221189 0.35884014 0.62616008
vn 0.69332607 0.44074703 -0.57012369
vn 0.69390645 0.27576476 0.66516737
vn 0.69167588 0.36232579 -0.62474354
vn 0.69188892 0.18849483 0.69696444
vn 0.69300324 0.27509599 -0.66638480
vn 0.69233084 0.09208181 0.71568076
vn 0.69236900 0.18596995 -0.69716594
vn 0.69287503 0.09294557 -0.71504217
vn 0.99986642 0.01633589 0.00052885
vn 0.99999674 -0.00255503 0.00001304
vn 0.69259244 -0.05480450 -0.71924417
vn 0.69119023 -0.15365729 -0.70614836
vn 0.69304313 -0.24745094 -0.67709619
vn 0.69167970 -0.33620120 -0.63917755
vn 0.69193059 -0.42137979 -0.58623470
vn 0.69211919 -0.49734960 -0.52308164
vn 0.69284420 -0.56165451 -0.45222907
vn 0.69214319 -0.61709342 -0.37434411
vn 0.69172764 -0.66302879 -0.28619171
vn 0.69231294 -0.69536226 -0.19280592
vn 0.69255629 -0.71457305 -0.09874793
vn 0.71451512 -0.69924847 0.02279717
vn 0.69259147 -0.71514644 0.09424771
vn 0.72222229 -0.68573173 0.09037120
vn 0.69984562 -0.71391482 0.02327533
vn 0.69279487 -0.69656392 0.18663862
vn 0.72200186 -0.66831673 0.17907001
vn 0.69252868 -0.66643794 0.27616026
vn 0.72229039 -0.63890757 0.26475216
vn 0.69280317 -0.62442143 0.36072378
vn 0.72199287 -0.59911452 0.34610416
vn 0.69273743 -0.57242092 0.43869026
vn 0.72206408 -0.54911444 0.42082870
vn 0.69248967 -0.51012649 0.51012649
vn 0.72233272 -0.48899665 0.48899665
vn 0.72206408 -0.42082870 0.54911444
vn 0.69273743 -0.43869026 0.57242092
vn 0.72226635 -0.34526071 0.59927152
vn 0.69255084 -0.36011422 0.62505286
vn 0.72172838 -0.26501822 0.63943216
vn 0.69304753 -0.27601272 0.66595953
vn 0.72229055 -0.17981656 0.66780414
vn 0.69252853 -0.18756490 0.69657996
vn 0.72222229 -0.09037120 0.68573173
vn 0.69259147 -0.09424771 0.71514644
vn 0.70753480 -0.02257882 0.70631771
vn 0.69984562 -0.02327533 0.71391482
vn -0.69257651 0.09435288 -0.71514706
vn 0.69278338 0.18682746 -0.69652472
vn 0.69257651 0.09435288 -0.71514706
vn -0.69278338 0.18682746 -0.69652472
vn 0.69257259 0.27622184 -0.66636679
vn -0.69257259 0.27622184 -0.66636679
vn 0.69278097 0.36074435 -0.62443417
vn -0.69278097 0.36074435 -0.62443417
vn 0.69265359 0.43902957 -0.57226221
vn -0.69265359 0.43902957 -0.57226221
vn 0.69279084 0.50966681 -0.51017703
vn -0.69279084 0.50966681 -0.51017703
vn -0.69245493 0.57237866 -0.43919113
vn 0.69245493 0.57237866 -0.43919113
vn -0.69287182 0.62451035 -0.36043787
vn 0.69287182 0.62451035 -0.36043787
vn -0.69262516 0.66625283 -0.27636489
vn 0.69262516 0.66625283 -0.27636489
vn -0.69253839 0.69687295 -0.18643676
vn 0.69253839 0.69687295 -0.18643676
vn -0.69276893 0.71504770 -0.09369100
vn 0.69276893 0.71504770 -0.09369100
vn -0.69983734 0.71392205 -0.02330239
vn 0.69983734 0.71392205 -0.02330239
vn 0.69995854 0.71381605 0.02290623
vn -0.69248498 0.71529767 0.09388180
vn 0.69248498 0.71529767 0.09388180
vn -0.69995854 0.71381605 0.02290623
vn -0.69284977 0.69656721 0.18642240
vn 0.69284977 0.69656721 0.18642240
vn -0.69237110 0.66652636 0.27634197
vn 0.69237110 0.66652636 0.27634197
vn -0.69289661 0.62416912 0.36098088
vn 0.69289661 0.62416912 0.36098088
vn -0.69262755 0.57225880 0.43907510
vn 0.69262755 0.57225880 0.43907510
vn -0.69274805 0.51001649 0.50988559
vn 0.69274805 0.51001649 0.50988559
vn 0.69259987 0.43916473 0.57222353
vn -0.69259987 0.43916473 0.57222353
vn 0.69262635 0.36032864 0.62484559
vn -0.69262635 0.36032864 0.62484559
vn 0.69273769 0.27567093 0.66642331
vn -0.69273769 0.27567093 0.66642331
vn 0.69269439 0.18658295 0.69667875
vn -0.69269439 0.18658295 0.69667875
vn 0.69286396 0.09470062 0.71482258
vn -0.69286396 0.09470062 0.71482258
vn 0.69963134 0.02397636 0.71410162
vn -0.69963134 0.02397636 0.71410162
vn -0.69268584 -0.09491441 0.71496684
vn 0.69295892 -0.18642483 0.69645798
vn 0.69268584 -0.09491441 0.71496684
vn -0.69295892 -0.18642483 0.69645798
vn 0.69252078 -0.27551549 0.66671297
vn -0.69252078 -0.27551549 0.66671297
vn 0.69253176 -0.36105594 0.62453052
vn -0.69253176 -0.36105594 0.62453052
vn 0.69276493 -0.43950578 0.57176168
vn -0.69276493 -0.43950578 0.57176168
vn 0.69277575 -0.50993223 0.50993223
vn -0.69277575 -0.50993223 0.50993223
vn -0.69276493 -0.57176168 0.43950578
vn 0.69276493 -0.57176168 0.43950578
vn -0.69253176 -0.62453052 0.36105594
vn 0.69253176 -0.62453052 0.36105594
vn -0.69252078 -0.66671297 0.27551549
vn 0.69252078 -0.66671297 0.27551549
vn -0.69295892 -0.69645798 0.18642483
vn 0.69295892 -0.69645798 0.18642483
vn -0.69268584 -0.71496684 0.09491441
vn 0.69268584 -0.71496684 0.09491441
vn -0.69969280 -0.71404813 0.02377522
vn 0.69969280 -0.71404813 0.02377522
vn -0.69277107 -0.71492312 -0.09462129
vn 0.69969280 -0.71404813 -0.02377522
vn -0.69969280 -0.71404813 -0.02377522
vn 0.69277107 -0.71492312 -0.09462129
vn -0.69288718 -0.69660983 -0.18612388
vn 0.69288718 -0.69660983 -0.18612388
vn -0.69238949 -0.66669610 -0.27588603
vn 0.69238949 -0.66669610 -0.27588603
vn -0.69277769 -0.62434320 -0.36090809
vn 0.69277769 -0.62434320 -0.36090809
vn -0.69284721 -0.57238766 -0.43856028
vn 0.69284721 -0.57238766 -0.43856028
vn -0.69235523 -0.51021772 -0.51021772
vn 0.69235523 -0.51021772 -0.51021772
vn 0.69284721 -0.43856028 -0.57238766
vn -0.69284721 -0.43856028 -0.57238766
vn 0.69277769 -0.36090809 -0.62434320
vn -0.69277769 -0.36090809 -0.62434320
vn 0.69245898 -0.27607539 -0.66654553
vn -0.69245898 -0.27607539 -0.66654553
vn 0.69277523 -0.18623944 -0.69669028
vn -0.69277523 -0.18623944 -0.69669028
vn 0.69281343 -0.09447561 -0.71490132
vn -0.69281343 -0.09447561 -0.71490132
vn 0.69969280 -0.02377522 -0.71404813
vn -0.69969280 -0.02377522 -0.71404813
vn -0.69983734 0.02330239 -0.71392205
vn 0.69983734 0.02330239 -0.71392205
vn -0.70710678 0.00000000 0.70710678
vn -0.44721360 0.00000000 0.89442719
vn -0.44721360 0.00000000 0.89442719
vn -0.70710678 0.00000000 0.70710678
vn -0.70710678 0.00000000 0.70710678
vn -0.44721360 0.00000000 0.89442719
vn -0.57735027 0.57735027 0.57735027
vn -0.23570226 0.23570226 0.94280904
vn -0.70710678 0.00000000 0.70710678
vn -0.23570226 -0.23570226 0.94280904
vn -0.57735027 -0.57735027 0.57735027
vn 0.41008845 0.00000000 0.91204576
vn 0.54918201 0.69995215 0.45658088
vn 0.31999255 0.62540377 0.71167049
vn 0.31999255 -0.62540377 0.71167049
vn 0.54918201 -0.69995215 0.45658088
vn 0.57727752 0.69997884 0.42045249
vn 0.57727752 -0.69997884 0.42045249
vn 0.60307443 0.69994048 0.38260235
vn 0.60307443 -0.69994048 0.38260235
vn 0.62638894 0.69995329 0.34307767
vn 0.62638894 -0.69995329 0.34307767
vn 0.64716219 0.69993042 0.30212334
vn 0.64716219 -0.69993042 0.30212334
vn 0.66512901 0.69999650 0.26001594
vn 0.66512901 -0.69999650 0.26001594
vn 0.68054461 0.69989837 0.21679783
vn 0.68054461 -0.69989837 0.21679783
vn 0.69290159 -0.70003493 0.17273818
vn 0.69290159 0.70003493 0.17273818
vn 0.70265185 0.69991216 0.12807552
vn 0.70265185 -0.69991216 0.12807552
vn 0.70943981 -0.69992147 0.08249300
vn 0.70943981 0.69992147 0.08249300
vn 0.71317539 -0.70001409 0.03689358
vn 0.71317539 0.70001409 0.03689358
vn 0.23478523 0.23186274 0.94398918
vn -0.70710678 0.00000000 0.70710678
vn 0.72389453 0.68373630 0.09209440
vn 0.53708833 -0.02568149 0.84313498
vn 0.72025916 0.66961438 0.18122731
vn 0.72341619 0.63785771 0.26420931
vn 0.72018673 0.60180857 0.34519201
vn 0.72410176 0.54831342 0.41836471
vn 0.72079950 0.49012656 0.49012656
vn 0.72291697 0.42188675 0.54717695
vn 0.72263435 0.34369295 0.59972890
vn 0.72080166 0.26545370 0.64029626
vn 0.72298566 0.18036482 0.66690350
vn 0.72250513 0.08822608 0.68571314
vn 0.72179962 -0.08914928 0.68633644
vn 0.72264811 -0.66782727 0.17828753
vn 0.72179962 -0.68633644 0.08914928
vn 0.72147315 -0.64013026 0.26402602
vn 0.72250964 -0.59965877 0.34407729
vn 0.72260539 -0.54799611 0.42135699
vn 0.72120007 -0.49029373 0.48936952
vn 0.72282630 -0.42173280 0.54741537
vn 0.72250964 -0.34407729 0.59965877
vn 0.72147315 -0.26402602 0.64013026
vn 0.72264811 -0.17828753 0.66782727
vn 0.72183961 0.09128639 0.68601339
vn 0.70787063 0.02356996 0.70594874
vn 0.53709681 0.02746235 0.84307345
vn 0.69294472 0.09510246 0.71469094
vn 0.90453403 0.30151134 0.30151134
vn 0.90453403 -0.30151134 0.30151134
vn 0.69952663 0.02431924 0.71419260
vn 0.69969280 -0.02377522 0.71404813
vn -0.69969280 -0.02377522 0.71404813
vn -0.70710678 0.00000000 0.70710678
vn -0.70710678 0.00000000 0.70710678
vn 0.23478523 -0.23186274 0.94398918
vn 0.44361574 0.00000000 0.89621709
vn 0.53709644 0.02738817 -0.84307609
vn 0.57735027 0.57735027 0.57735027
vn 0.72230931 -0.68562902 -0.09045497
vn 0.72136392 -0.66935533 -0.17775697
vn 0.72341619 -0.63785771 -0.26420931
vn 0.72083971 -0.60025099 -0.34653839
vn 0.72300529 -0.54883598 -0.41957409
vn 0.72158781 -0.48972336 -0.48936904
vn 0.72256375 -0.42128604 -0.54810556
vn 0.72263435 -0.34369295 -0.59972890
vn 0.72093978 -0.26501939 -0.64032067
vn 0.72275489 -0.18029463 -0.66717256
vn 0.72212339 -0.08993517 -0.68589319
vn 0.53709644 -0.84307609 0.02738817
vn 0.57735027 -0.57735027 0.57735027
vn 0.53709598 0.84307946 0.02729339
vn 0.72191505 0.08919762 -0.68620875
vn 0.72246369 0.17820305 -0.66804931
vn 0.72177629 0.26410334 -0.63975652
vn 0.72321774 0.34647837 -0.59741848
vn 0.72142737 0.42353982 -0.54786547
vn 0.72198679 0.48925202 -0.48925202
vn 0.72142737 0.54786547 -0.42353982
vn 0.72321774 0.59741848 -0.34647837
vn 0.72177629 0.63975652 -0.26410334
vn 0.72246369 0.66804931 -0.17820305
vn 0.72191505 0.68620875 -0.08919762
vn 0.53709598 -0.02729339 -0.84307946
vn 0.72252456 -0.66621000 -0.18472275
vn 0.72226045 -0.68511037 -0.09467643
vn 0.72316132 -0.63412697 -0.27371644
vn 0.72270902 -0.59092425 -0.35846925
vn 0.72194844 -0.53895702 -0.43395367
vn 0.72273511 -0.47622443 -0.50086350
vn 0.72294029 -0.40325517 -0.56101926
vn 0.72321357 -0.32150008 -0.61122813
vn 0.72173315 -0.23759105 -0.65011672
vn 0.72374786 -0.14672398 -0.67428563
vn 0.72222123 -0.05255048 -0.68966291
vn 0.53703093 -0.84355157 0.00430372
vn 0.53709262 0.84310383 0.02659783
vn 0.72301256 0.09113171 -0.68479767
vn 0.72049737 0.17826711 -0.67015251
vn 0.72435481 0.26427648 -0.63676373
vn 0.72013329 0.34790358 -0.60030921
vn 0.72280626 0.41848060 -0.54993190
vn 0.72239002 0.48895432 -0.48895432
vn 0.72177925 0.54894009 -0.42154418
vn 0.72279730 0.59881693 -0.34493816
vn 0.72232161 0.64014528 -0.26165914
vn 0.72088193 0.66947125 -0.17926932
vn 0.72301256 0.68479767 -0.09113171
vn 0.53731687 0.00347191 -0.84337330
vn 0.23833861 0.21592106 -0.94687528
vn 0.46767741 -0.51878795 -0.71563741
vn 0.46614911 0.54396792 -0.69771334
vn 0.22610540 -0.21237059 -0.95067086
vn -0.22156423 0.18847829 -0.95675766
vn -0.41422181 0.55177432 -0.72385453
vn -0.41474471 -0.52588172 -0.74258686
vn -0.21118868 -0.18601164 -0.95958273
vn -0.41474471 -0.52588172 -0.74258686
vn 0.67574220 -0.63469412 -0.37488112
vn -0.66341742 -0.58432754 -0.46737421
vn 0.46767741 -0.51878795 -0.71563741
vn 0.46614911 0.54396792 -0.69771334
vn -0.41422181 0.55177432 -0.72385453
vn 0.69745373 0.63185294 -0.33811263
vn -0.68486692 0.58259649 -0.43765127
vn 0.69746089 0.63191583 -0.33798032
vn 0.46774759 -0.51877928 -0.71559783
vn 0.46621792 0.54395816 -0.69767498
vn 0.67574976 -0.63475868 -0.37475816
vn -0.41474471 -0.52588172 -0.74258686
vn -0.66341742 -0.58432754 -0.46737421
vn -0.41422181 0.55177432 -0.72385453
vn -0.68486692 0.58259649 -0.43765127
vn -0.41474471 -0.52588172 -0.74258686
vn -0.68480329 0.58260443 -0.43774025
vn -0.41422272 0.55169707 -0.72391289
vn -0.66341742 -0.58432754 -0.46737421
vn 0.46622197 0.54388303 -0.69773084
vn 0.69739669 0.63192787 -0.33809026
vn 0.46774759 -0.51877928 -0.71559783
vn 0.67574976 -0.63475868 -0.37475816
f 1//1 2//2 3//3
f 2//2 1//1 4//4
f 4//4 5//5 2//2
f 5//5 4//4 6//6
f 6//6 7//7 5//5
f 7//7 6//6 8//8
f 8//8 9//9 7//7
f 9//9 8//8 10//10
f 10//10 11//11 9//9
f 11//11 10//10 12//12
f 12//12 13//13 11//11
f 13//13 12//12 14//14
f 15//15 13//13 14//14
f 13//13 15//15 16//16
f 17//17 16//16 15//15
f 16//16 17//17 18//18
f 19//19 18//18 17//17
f 18//18 19//19 20//20
f 21//21 20//20 19//19
f 20//20 21//21 22//22
f 23//23 22//22 21//21
f 22//22 23//23 24//24
f 25//25 26//26 27//27
f 26//26 25//25 28//28
f 27//27 29//29 30//30
f 29//29 27//27 26//26
f 30//30 31//31 32//32
f 31//31 30//30 29//29
f 32//32 33//33 34//34
f 33//33 32//32 31//31
f 34//34 35//35 36//36
f 35//35 34//34 33//33
f 35//35 37//37 36//36
f 37//37 35//35 38//38
f 38//38 39//39 37//37
f 39//39 38//38 40//40
f 40//40 41//41 39//39
f 41//41 40//40 42//42
f 42//42 43//43 41//41
f 43//43 42//42 44//44
f 44//44 45//45 43//43
f 45//45 44//44 46//46
f 46//46 47//47 45//45
f 47//47 46//46 48//48
f 49//49 50//50 51//51
f 50//50 49//49 52//52
f 53//53 51//51 54//54
f 51//51 53//53 49//49
f 55//55 54//54 56//56
f 54//54 55//55 53//53
f 57//57 56//56 58//58
f 56//56 57//57 55//55
f 59//59 57//57 58//58
f 57//57 59//59 60//60
f 61//61 60//60 59//59
f 60//60 61//61 62//62
f 63//63 62//62 61//61
f 62//62 63//63 64//64
f 65//65 64//64 63//63
f 64//64 65//65 66//66
f 67//67 66//66 65//65
f 66//66 67//67 68//68
f 69//69 68//68 67//67
f 68//68 69//69 70//70
f 25//25 71//71 72//72
f 27//27 71//71 25//25
f 27//27 73//73 71//71
f 27//27 74//74 73//73
f 30//30 74//74 27//27
f 30//30 75//75 74//74
f 32//32 75//75 30//30
f 32//32 76//76 75//75
f 32//32 77//77 76//76
f 34//34 77//77 32//32
f 34//34 78//78 77//77
f 36//36 78//78 34//34
f 36//36 79//79 78//78
f 36//36 80//80 79//79
f 37//37 80//80 36//36
f 37//37 81//81 80//80
f 39//39 81//81 37//37
f 39//39 82//82 81//81
f 39//39 83//83 82//82
f 41//41 83//83 39//39
f 41//41 84//84 83//83
f 43//43 84//84 41//41
f 45//45 84//84 43//43
f 45//45 85//85 84//84
f 45//45 86//86 85//85
f 45//45 87//87 86//86
f 45//45 88//88 87//87
f 45//45 89//89 88//88
f 45//45 90//90 89//89
f 47//47 90//90 45//45
f 91//91 90//90 47//47
f 91//91 92//92 90//90
f 93//93 92//92 91//91
f 94//94 92//92 93//93
f 94//94 95//95 92//92
f 96//96 95//95 94//94
f 97//97 95//95 96//96
f 97//97 98//98 95//95
f 99//99 98//98 97//97
f 100//100 98//98 99//99
f 100//100 101//101 98//98
f 102//102 101//101 100//100
f 102//102 103//103 101//101
f 104//104 103//103 102//102
f 105//105 103//103 104//104
f 105//105 106//106 103//103
f 107//107 106//106 105//105
f 107//107 108//108 106//106
f 108//108 107//107 109//109
f 110//110 111//111 112//112
f 110//110 113//113 111//111
f 114//114 113//113 110//110
f 114//114 115//115 113//113
f 116//116 115//115 114//114
f 116//116 117//117 115//115
f 118//118 117//117 116//116
f 118//118 119//119 117//117
f 120//120 119//119 118//118
f 120//120 121//121 119//119
f 122//122 121//121 120//120
f 122//122 123//123 121//121
f 124//124 123//123 122//122
f 125//125 123//123 124//124
f 125//125 126//126 123//123
f 127//127 126//126 125//125
f 127//127 128//128 126//126
f 129//129 128//128 127//127
f 129//129 130//130 128//128
f 131//131 130//130 129//129
f 131//131 132//132 130//130
f 3//3 132//132 131//131
f 3//3 133//133 132//132
f 3//3 134//134 133//133
f 2//2 134//134 3//3
f 5//5 134//134 2//2
f 5//5 135//135 134//134
f 5//5 136//136 135//135
f 7//7 136//136 5//5
f 7//7 137//137 136//136
f 9//9 137//137 7//7
f 9//9 138//138 137//137
f 9//9 139//139 138//138
f 11//11 139//139 9//9
f 11//11 140//140 139//139
f 13//13 140//140 11//11
f 13//13 141//141 140//140
f 16//16 141//141 13//13
f 16//16 142//142 141//141
f 16//16 143//143 142//142
f 18//18 143//143 16//16
f 18//18 144//144 143//143
f 20//20 144//144 18//18
f 20//20 145//145 144//144
f 22//22 145//145 20//20
f 22//22 146//146 145//145
f 24//24 146//146 22//22
f 72//72 146//146 24//24
f 146//146 72//72 71//71
f 147//147 148//148 149//149
f 148//148 147//147 150//150
f 149//149 151//151 152//152
f 151//151 149//149 148//148
f 152//152 153//153 154//154
f 153//153 152//152 151//151
f 154//154 155//155 156//156
f 155//155 154//154 153//153
f 156//156 157//157 158//158
f 157//157 156//156 155//155
f 158//158 159//159 160//160
f 159//159 158//158 157//157
f 161//161 159//159 162//162
f 159//159 161//161 160//160
f 163//163 162//162 164//164
f 162//162 163//163 161//161
f 165//165 164//164 166//166
f 164//164 165//165 163//163
f 167//167 166//166 168//168
f 166//166 167//167 165//165
f 169//169 168//168 170//170
f 168//168 169//169 167//167
f 171//171 170//170 172//172
f 170//170 171//171 169//169
f 173//173 174//174 175//175
f 174//174 173//173 176//176
f 176//176 177//177 174//174
f 177//177 176//176 178//178
f 178//178 179//179 177//177
f 179//179 178//178 180//180
f 180//180 181//181 179//179
f 181//181 180//180 182//182
f 182//182 183//183 181//181
f 183//183 182//182 184//184
f 183//183 185//185 186//186
f 185//185 183//183 184//184
f 186//186 187//187 188//188
f 187//187 186//186 185//185
f 188//188 189//189 190//190
f 189//189 188//188 187//187
f 190//190 191//191 192//192
f 191//191 190//190 189//189
f 192//192 193//193 194//194
f 193//193 192//192 191//191
f 194//194 195//195 196//196
f 195//195 194//194 193//193
f 197//197 198//198 199//199
f 198//198 197//197 200//200
f 199//199 201//201 202//202
f 201//201 199//199 198//198
f 202//202 203//203 204//204
f 203//203 202//202 201//201
f 204//204 205//205 206//206
f 205//205 204//204 203//203
f 206//206 207//207 208//208
f 207//207 206//206 205//205
f 208//208 209//209 210//210
f 209//209 208//208 207//207
f 209//209 211//211 210//210
f 211//211 209//209 212//212
f 212//212 213//213 211//211
f 213//213 212//212 214//214
f 214//214 215//215 213//213
f 215//215 214//214 216//216
f 216//216 217//217 215//215
f 217//217 216//216 218//218
f 218//218 219//219 217//217
f 219//219 218//218 220//220
f 220//220 221//221 219//219
f 221//221 220//220 222//222
f 223//223 224//224 225//225
f 224//224 223//223 226//226
f 226//226 227//227 224//224
f 227//227 226//226 228//228
f 228//228 229//229 227//227
f 229//229 228//228 230//230
f 230//230 231//231 229//229
f 231//231 230//230 232//232
f 232//232 233//233 231//231
f 233//233 232//232 234//234
f 235//235 233//233 234//234
f 233//233 235//235 236//236
f 237//237 236//236 235//235
f 236//236 237//237 238//238
f 239//239 238//238 237//237
f 238//238 239//239 240//240
f 241//241 240//240 239//239
f 240//240 241//241 242//242
f 243//243 242//242 241//241
f 242//242 243//243 244//244
f 245//245 244//244 243//243
f 244//244 245//245 246//246
f 247//247 248//248 249//249
f 248//248 247//247 250//250
f 251//251 250//250 247//247
f 250//250 251//251 252//252
f 253//253 252//252 251//251
f 252//252 253//253 254//254
f 255//255 254//254 253//253
f 254//254 255//255 256//256
f 257//257 256//256 255//255
f 256//256 257//257 258//258
f 259//259 258//258 257//257
f 258//258 259//259 260//260
f 259//259 261//261 260//260
f 261//261 259//259 262//262
f 262//262 263//263 261//261
f 263//263 262//262 264//264
f 264//264 265//265 263//263
f 265//265 264//264 266//266
f 266//266 267//267 265//265
f 267//267 266//266 268//268
f 268//268 269//269 267//267
f 269//269 268//268 270//270
f 270//270 271//271 269//269
f 271//271 270//270 272//272
f 273//273 175//175 274//274
f 175//175 273//273 173//173
f 275//275 276//276 277//277
f 278//278 276//276 275//275
f 276//276 278//278 279//279
f 280//280 281//281 282//282
f 277//277 281//281 280//280
f 277//277 283//283 281//281
f 276//276 283//283 277//277
f 284//284 283//283 276//276
f 283//283 284//284 285//285
f 286//286 287//287 288//288
f 289//289 287//287 286//286
f 287//287 289//289 290//290
f 290//290 291//291 287//287
f 291//291 290//290 292//292
f 292//292 293//293 291//291
f 293//293 292//292 294//294
f 294//294 295//295 293//293
f 295//295 294//294 296//296
f 296//296 297//297 295//295
f 297//297 296//296 298//298
f 298//298 299//299 297//297
f 299//299 298//298 300//300
f 300//300 301//301 299//299
f 301//301 300//300 302//302
f 301//301 303//303 304//304
f 303//303 301//301 302//302
f 303//303 305//305 304//304
f 305//305 303//303 306//306
f 305//305 307//307 308//308
f 307//307 305//305 306//306
f 308//308 309//309 310//310
f 309//309 308//308 307//307
f 287//287 281//281 288//288
f 291//291 281//281 287//287
f 293//293 281//281 291//291
f 295//295 281//281 293//293
f 297//297 281//281 295//295
f 299//299 281//281 297//297
f 301//301 281//281 299//299
f 304//304 281//281 301//301
f 305//305 281//281 304//304
f 308//308 281//281 305//305
f 310//310 281//281 308//308
f 311//311 281//281 310//310
f 281//281 311//311 282//282
f 221//221 311//311 172//172
f 221//221 282//282 311//311
f 221//221 312//312 282//282
f 312//312 221//221 222//222
f 172//172 311//311 171//171
f 147//147 313//313 314//314
f 147//147 315//315 313//313
f 147//147 316//316 315//315
f 147//147 317//317 316//316
f 147//147 318//318 317//317
f 147//147 319//319 318//318
f 147//147 320//320 319//319
f 147//147 321//321 320//320
f 147//147 322//322 321//321
f 147//147 323//323 322//322
f 147//147 324//324 323//323
f 149//149 324//324 147//147
f 149//149 1//1 324//324
f 149//149 4//4 1//1
f 152//152 4//4 149//149
f 154//154 4//4 152//152
f 156//156 4//4 154//154
f 158//158 4//4 156//156
f 160//160 4//4 158//158
f 161//161 4//4 160//160
f 163//163 4//4 161//161
f 165//165 4//4 163//163
f 167//167 4//4 165//165
f 169//169 4//4 167//167
f 169//169 6//6 4//4
f 21//21 28//28 23//23
f 21//21 26//26 28//28
f 19//19 26//26 21//21
f 19//19 29//29 26//26
f 17//17 29//29 19//19
f 15//15 29//29 17//17
f 15//15 31//31 29//29
f 14//14 31//31 15//15
f 12//12 31//31 14//14
f 12//12 33//33 31//31
f 10//10 33//33 12//12
f 8//8 33//33 10//10
f 8//8 35//35 33//33
f 6//6 35//35 8//8
f 6//6 38//38 35//35
f 169//169 38//38 6//6
f 169//169 40//40 38//38
f 169//169 42//42 40//40
f 169//169 44//44 42//42
f 169//169 46//46 44//44
f 169//169 48//48 46//46
f 169//169 325//325 48//48
f 326//326 70//70 327//327
f 328//328 70//70 326//326
f 329//329 70//70 328//328
f 330//330 70//70 329//329
f 331//331 70//70 330//330
f 332//332 70//70 331//331
f 333//333 70//70 332//332
f 334//334 70//70 333//333
f 335//335 70//70 334//334
f 325//325 70//70 335//335
f 169//169 70//70 325//325
f 171//171 70//70 169//169
f 171//171 68//68 70//70
f 171//171 66//66 68//68
f 171//171 64//64 66//66
f 171//171 62//62 64//64
f 171//171 60//60 62//62
f 171//171 57//57 60//60
f 171//171 55//55 57//57
f 171//171 53//53 55//55
f 171//171 49//49 53//53
f 171//171 52//52 49//49
f 171//171 336//336 52//52
f 336//336 171//171 337//337
f 327//327 70//70 338//338
f 52//52 339//339 50//50
f 339//339 52//52 336//336
f 69//69 67//67 109//109
f 108//108 109//109 340//340
f 112//112 111//111 341//341
f 199//199 196//196 197//197
f 199//199 194//194 196//196
f 202//202 194//194 199//199
f 202//202 192//192 194//194
f 204//204 192//192 202//202
f 206//206 192//192 204//204
f 206//206 190//190 192//192
f 208//208 190//190 206//206
f 208//208 188//188 190//190
f 210//210 188//188 208//208
f 210//210 186//186 188//188
f 211//211 186//186 210//210
f 213//213 186//186 211//211
f 213//213 183//183 186//186
f 215//215 183//183 213//213
f 215//215 181//181 183//183
f 217//217 181//181 215//215
f 219//219 181//181 217//217
f 219//219 179//179 181//181
f 221//221 179//179 219//219
f 221//221 177//177 179//179
f 221//221 174//174 177//177
f 221//221 175//175 174//174
f 221//221 274//274 175//175
f 172//172 274//274 221//221
f 170//170 274//274 172//172
f 168//168 274//274 170//170
f 166//166 274//274 168//168
f 164//164 274//274 166//166
f 162//162 274//274 164//164
f 159//159 274//274 162//162
f 157//157 274//274 159//159
f 155//155 274//274 157//157
f 153//153 274//274 155//155
f 151//151 274//274 153//153
f 148//148 274//274 151//151
f 150//150 274//274 148//148
f 112//112 274//274 150//150
f 341//341 274//274 112//112
f 134//134 274//274 341//341
f 135//135 274//274 134//134
f 84//84 274//274 135//135
f 85//85 274//274 84//84
f 340//340 274//274 85//85
f 67//67 340//340 109//109
f 65//65 340//340 67//67
f 63//63 340//340 65//65
f 61//61 340//340 63//63
f 59//59 340//340 61//61
f 58//58 340//340 59//59
f 56//56 340//340 58//58
f 54//54 340//340 56//56
f 51//51 340//340 54//54
f 50//50 340//340 51//51
f 339//339 340//340 50//50
f 342//342 340//340 339//339
f 340//340 271//271 274//274
f 342//342 271//271 340//340
f 342//342 269//269 271//271
f 342//342 267//267 269//269
f 342//342 265//265 267//267
f 342//342 263//263 265//265
f 343//343 263//263 342//342
f 225//225 263//263 343//343
f 225//225 261//261 263//263
f 224//224 261//261 225//225
f 227//227 261//261 224//224
f 227//227 260//260 261//261
f 229//229 260//260 227//227
f 229//229 258//258 260//260
f 231//231 258//258 229//229
f 233//233 258//258 231//231
f 233//233 256//256 258//258
f 236//236 256//256 233//233
f 236//236 254//254 256//256
f 238//238 254//254 236//236
f 240//240 254//254 238//238
f 240//240 252//252 254//254
f 242//242 252//252 240//240
f 242//242 250//250 252//252
f 244//244 250//250 242//242
f 246//246 250//250 244//244
f 250//250 246//246 248//248
f 344//344 225//225 343//343
f 225//225 344//344 223//223
f 195//195 198//198 200//200
f 193//193 198//198 195//195
f 193//193 201//201 198//198
f 191//191 201//201 193//193
f 191//191 203//203 201//201
f 191//191 205//205 203//203
f 189//189 205//205 191//191
f 189//189 207//207 205//205
f 187//187 207//207 189//189
f 187//187 209//209 207//207
f 185//185 209//209 187//187
f 185//185 212//212 209//209
f 185//185 214//214 212//212
f 184//184 214//214 185//185
f 184//184 216//216 214//214
f 182//182 216//216 184//184
f 182//182 218//218 216//216
f 182//182 220//220 218//218
f 180//180 220//220 182//182
f 180//180 222//222 220//220
f 178//178 222//222 180//180
f 176//176 222//222 178//178
f 173//173 222//222 176//176
f 273//273 222//222 173//173
f 273//273 312//312 222//222
f 273//273 345//345 312//312
f 273//273 275//275 345//345
f 273//273 278//278 275//275
f 273//273 279//279 278//278
f 273//273 346//346 279//279
f 272//272 346//346 273//273
f 270//270 346//346 272//272
f 268//268 346//346 270//270
f 266//266 346//346 268//268
f 264//264 346//346 266//266
f 264//264 344//344 346//346
f 264//264 223//223 344//344
f 262//262 223//223 264//264
f 262//262 226//226 223//223
f 262//262 228//228 226//226
f 259//259 228//228 262//262
f 259//259 230//230 228//228
f 257//257 230//230 259//259
f 257//257 232//232 230//230
f 257//257 234//234 232//232
f 255//255 234//234 257//257
f 255//255 235//235 234//234
f 253//253 235//235 255//255
f 253//253 237//237 235//235
f 253//253 239//239 237//237
f 251//251 239//239 253//253
f 251//251 241//241 239//239
f 247//247 241//241 251//251
f 247//247 243//243 241//241
f 247//247 245//245 243//243
f 245//245 247//247 249//249
f 279//279 284//284 276//276
f 284//284 279//279 346//346
f 285//285 290//290 289//289
f 285//285 292//292 290//290
f 285//285 294//294 292//292
f 285//285 296//296 294//294
f 285//285 298//298 296//296
f 285//285 300//300 298//298
f 285//285 302//302 300//300
f 285//285 303//303 302//302
f 285//285 306//306 303//303
f 285//285 307//307 306//306
f 285//285 309//309 307//307
f 284//284 309//309 285//285
f 309//309 284//284 347//347
f 310//310 171//171 311//311
f 310//310 337//337 171//171
f 310//310 348//348 337//337
f 310//310 347//347 348//348
f 347//347 310//310 309//309
f 336//336 342//342 339//339
f 342//342 336//336 337//337
f 337//337 343//343 342//342
f 348//348 343//343 337//337
f 347//347 343//343 348//348
f 284//284 343//343 347//347
f 346//346 343//343 284//284
f 343//343 346//346 344//344
f 283//283 289//289 286//286
f 289//289 283//283 285//285
f 281//281 286//286 288//288
f 286//286 281//281 283//283
f 276//276 347//347 348//348
f 347//347 276//276 284//284
f 311//311 337//337 171//171
f 311//311 348//348 337//337
f 282//282 348//348 311//311
f 280//280 348//348 282//282
f 277//277 348//348 280//280
f 348//348 277//277 276//276
f 345//345 277//277 280//280
f 277//277 345//345 275//275
f 312//312 280//280 282//282
f 280//280 312//312 345//345
f 112//112 313//313 110//110
f 313//313 112//112 314//314
f 110//110 315//315 114//114
f 315//315 110//110 313//313
f 114//114 316//316 116//116
f 316//316 114//114 315//315
f 116//116 317//317 118//118
f 317//317 116//116 316//316
f 118//118 318//318 120//120
f 318//318 118//118 317//317
f 120//120 319//319 122//122
f 319//319 120//120 318//318
f 319//319 124//124 122//122
f 124//124 319//319 320//320
f 320//320 125//125 124//124
f 125//125 320//320 321//321
f 321//321 127//127 125//125
f 127//127 321//321 322//322
f 322//322 129//129 127//127
f 129//129 322//322 323//323
f 323//323 131//131 129//129
f 131//131 323//323 324//324
f 324//324 3//3 131//131
f 3//3 324//324 1//1
f 48//48 91//91 47//47
f 91//91 48//48 325//325
f 325//325 93//93 91//91
f 93//93 325//325 335//335
f 335//335 94//94 93//93
f 94//94 335//335 334//334
f 334//334 96//96 94//94
f 96//96 334//334 333//333
f 333//333 97//97 96//96
f 97//97 333//333 332//332
f 332//332 99//99 97//97
f 99//99 332//332 331//331
f 330//330 99//99 331//331
f 99//99 330//330 100//100
f 329//329 100//100 330//330
f 100//100 329//329 102//102
f 328//328 102//102 329//329
f 102//102 328//328 104//104
f 326//326 104//104 328//328
f 104//104 326//326 105//105
f 327//327 105//105 326//326
f 105//105 327//327 107//107
f 338//338 107//107 327//327
f 107//107 338//338 109//109
f 24//24 28//28 25//25
f 28//28 24//24 23//23
f 24//24 25//25 72//72
f 340//340 349//349 108//108
f 349//349 340//340 350//350
f 351//351 108//108 349//349
f 108//108 351//351 106//106
f 352//352 106//106 351//351
f 106//106 352//352 103//103
f 353//353 103//103 352//352
f 103//103 353//353 101//101
f 354//354 101//101 353//353
f 101//101 354//354 98//98
f 355//355 98//98 354//354
f 98//98 355//355 95//95
f 356//356 95//95 355//355
f 95//95 356//356 92//92
f 356//356 90//90 92//92
f 90//90 356//356 357//357
f 357//357 89//89 90//90
f 89//89 357//357 358//358
f 358//358 88//88 89//89
f 88//88 358//358 359//359
f 359//359 87//87 88//88
f 87//87 359//359 360//360
f 360//360 86//86 87//87
f 86//86 360//360 361//361
f 361//361 85//85 86//86
f 85//85 361//361 362//362
f 362//362 340//340 85//85
f 340//340 362//362 350//350
f 361//361 350//350 362//362
f 360//360 350//350 361//361
f 359//359 350//350 360//360
f 358//358 350//350 359//359
f 357//357 350//350 358//358
f 356//356 350//350 357//357
f 355//355 350//350 356//356
f 354//354 350//350 355//355
f 353//353 350//350 354//354
f 352//352 350//350 353//353
f 351//351 350//350 352//352
f 350//350 351//351 349//349
f 363//363 134//134 341//341
f 134//134 363//363 364//364
f 364//364 133//133 134//134
f 133//133 364//364 365//365
f 365//365 132//132 133//133
f 132//132 365//365 366//366
f 366//366 130//130 132//132
f 130//130 366//366 367//367
f 367//367 128//128 130//130
f 128//128 367//367 368//368
f 368//368 126//126 128//128
f 126//126 368//368 369//369
f 369//369 123//123 126//126
f 123//123 369//369 370//370
f 123//123 371//371 121//121
f 371//371 123//123 370//370
f 121//121 372//372 119//119
f 372//372 121//121 371//371
f 119//119 373//373 117//117
f 373//373 119//119 372//372
f 117//117 374//374 115//115
f 374//374 117//117 373//373
f 115//115 375//375 113//113
f 375//375 115//115 374//374
f 113//113 376//376 111//111
f 376//376 113//113 375//375
f 363//363 111//111 376//376
f 111//111 363//363 341//341
f 375//375 363//363 376//376
f 374//374 363//363 375//375
f 373//373 363//363 374//374
f 372//372 363//363 373//373
f 371//371 363//363 372//372
f 370//370 363//363 371//371
f 369//369 363//363 370//370
f 368//368 363//363 369//369
f 367//367 363//363 368//368
f 366//366 363//363 367//367
f 365//365 363//363 366//366
f 363//363 365//365 364//364
f 377//377 146//146 378//378
f 146//146 377//377 145//145
f 379//379 145//145 377//377
f 145//145 379//379 144//144
f 380//380 144//144 379//379
f 144//144 380//380 143//143
f 381//381 143//143 380//380
f 143//143 381//381 142//142
f 382//382 142//142 381//381
f 142//142 382//382 141//141
f 382//382 140//140 141//141
f 140//140 382//382 383//383
f 383//383 139//139 140//140
f 139//139 383//383 384//384
f 384//384 138//138 139//139
f 138//138 384//384 385//385
f 385//385 137//137 138//138
f 137//137 385//385 386//386
f 386//386 136//136 137//137
f 136//136 386//386 387//387
f 387//387 135//135 136//136
f 135//135 387//387 388//388
f 388//388 84//84 135//135
f 84//84 388//388 389//389
f 389//389 83//83 84//84
f 83//83 389//389 390//390
f 390//390 82//82 83//83
f 82//82 390//390 391//391
f 391//391 81//81 82//82
f 81//81 391//391 392//392
f 392//392 80//80 81//81
f 80//80 392//392 393//393
f 393//393 79//79 80//80
f 79//79 393//393 394//394
f 394//394 78//78 79//79
f 78//78 394//394 395//395
f 78//78 396//396 77//77
f 396//396 78//78 395//395
f 77//77 397//397 76//76
f 397//397 77//77 396//396
f 76//76 398//398 75//75
f 398//398 76//76 397//397
f 75//75 399//399 74//74
f 399//399 75//75 398//398
f 74//74 400//400 73//73
f 400//400 74//74 399//399
f 73//73 401//401 71//71
f 401//401 73//73 400//400
f 378//378 71//71 401//401
f 71//71 378//378 146//146
f 400//400 378//378 401//401
f 400//400 377//377 378//378
f 399//399 377//377 400//400
f 399//399 379//379 377//377
f 399//399 380//380 379//379
f 398//398 380//380 399//399
f 398//398 381//381 380//380
f 398//398 382//382 381//381
f 397//397 382//382 398//398
f 397//397 383//383 382//382
f 397//397 384//384 383//383
f 396//396 384//384 397//397
f 396//396 385//385 384//384
f 395//395 385//385 396//396
f 395//395 386//386 385//385
f 394//394 386//386 395//395
f 393//393 386//386 394//394
f 393//393 387//387 386//386
f 392//392 387//387 393//393
f 391//391 387//387 392//392
f 390//390 387//387 391//391
f 390//390 388//388 387//387
f 388//388 390//390 389//389
f 402//402 403//403 404//404
f 403//403 402//402 405//405
f 404//404 406//406 402//402
f 406//406 404//404 407//407
f 408//408 406//406 407//407
f 406//406 408//408 409//409
f 408//408 405//405 409//409
f 405//405 408//408 403//403
f 408//408 404//404 403//403
f 404//404 408//408 407//407
f 410//410 411//411 412//412
f 411//411 410//410 413//413
f 410//410 414//414 413//413
f 414//414 410//410 415//415
f 416//416 413//413 414//414
f 413//413 416//416 411//411
f 410//410 417//417 415//415
f 417//417 410//410 412//412
f 414//414 417//417 416//416
f 417//417 414//414 415//415
f 418//418 419//419 420//420
f 419//419 418//418 421//421
f 422//422 421//421 423//423
f 421//421 422//422 419//419
f 422//422 420//420 419//419
f 420//420 422//422 424//424
f 420//420 425//425 418//418
f 425//425 420//420 424//424
f 422//422 425//425 424//424
f 425//425 422//422 423//423
f 426//426 427//427 428//428
f 427//427 426//426 429//429
f 430//430 427//427 431//431
f 427//427 430//430 428//428
f 426//426 430//430 432//432
f 430//430 426//426 428//428
f 426//426 433//433 429//429
f 433//433 426//426 432//432
f 431//431 432//432 430//430
f 432//432 431//431 433//433
f 271//271 405//405 274//274
f 271//271 409//409 405//405
f 409//409 272//272 406//406
f 272//272 409//409 271//271
f 402//402 274//274 405//405
f 406//406 274//274 402//402
f 406//406 273//273 274//274
f 273//273 406//406 272//272
f 249//249 246//246 245//245
f 246//246 249//249 248//248
f 196//196 200//200 197//197
f 200//200 196//196 195//195
f 109//109 70//70 69//69
f 70//70 109//109 338//338
f 314//314 150//150 147//147
f 150//150 314//314 112//112