# https://github.com/mikedh/trimesh
v 0.04346200 0.02325300 0.00951400
v 0.07017500 -0.02311900 -0.00922800
v 0.07017500 0.02325300 -0.00922800
v 0.04346200 -0.02311900 0.00951400
v -0.06957600 0.02325300 0.00951400
v -0.06957600 -0.02311900 0.00951400
v -0.04780100 0.02325300 -0.00922800
v -0.04780100 -0.02311900 -0.00922800
v 0.04346200 -0.02311900 -0.00922800
v 0.04346200 0.02325300 -0.00922800
vn 0.23008804 0.64518794 0.72855474
vn 0.80074021 -0.54301397 -0.25288525
vn 0.80074021 0.54301397 -0.25288525
vn 0.23008804 -0.64518794 0.72855474
vn -0.78598660 0.54511629 0.29167329
vn -0.78598660 -0.54511629 0.29167329
vn -0.26832249 0.63654090 -0.72306204
vn -0.26832249 -0.63654090 -0.72306204
vn 0.00000000 -0.70710678 -0.70710678
vn 0.00000000 0.70710678 -0.70710678
f 1//1 2//2 3//3
f 2//2 1//1 4//4
f 5//5 4//4 1//1
f 4//4 5//5 6//6
f 6//6 7//7 8//8
f 7//7 6//6 5//5
f 8//8 4//4 6//6
f 9//9 4//4 8//8
f 4//4 9//9 2//2
f 9//9 3//3 2//2
f 3//3 9//9 10//10
f 3//3 5//5 1//1
f 10//10 5//5 3//3
f 5//5 10//10 7//7
f 8//8 10//10 9//9
f 10//10 8//8 7//7