# https://github.com/mikedh/trimesh
v 0.09029800 0.00314600 -0.07960500
v -0.09013900 0.00314600 -0.07960500
v 0.09029800 0.00314600 0.07958700
v -0.09013900 0.00314600 0.07958700
v -0.10915600 -0.00826500 0.09860400
v -0.09964700 -0.00826500 0.08909600
v 0.10931500 -0.00826500 0.09860400
v -0.09964700 -0.00826500 -0.08911400
v -0.10915600 -0.00826500 -0.09862300
v 0.09980700 -0.00826500 -0.08911400
v 0.09980700 -0.00826500 0.08909600
v 0.10931500 -0.00826500 -0.09862300
v -0.10915600 0.00314600 0.09860400
v 0.10931500 0.00314600 0.09860400
v -0.10915600 0.00314600 -0.09862300
v 0.10931500 0.00314600 -0.09862300
vn -0.53926651 0.64682553 0.53926651
vn 0.53927819 0.64683957 0.53923799
vn -0.53926651 0.64682553 -0.53926651
vn 0.53927819 0.64683957 -0.53923799
vn -0.57735027 -0.57735027 0.57735027
vn 0.12627027 -0.98392625 -0.12627331
vn 0.57735027 -0.57735027 0.57735027
vn 0.12627027 -0.98392625 0.12627331
vn -0.57735027 -0.57735027 -0.57735027
vn -0.12626699 -0.98392748 0.12626699
vn -0.12626699 -0.98392748 -0.12626699
vn 0.57735027 -0.57735027 -0.57735027
vn -0.57735027 0.57735027 0.57735027
vn 0.57735027 0.57735027 0.57735027
vn -0.57735027 0.57735027 -0.57735027
vn 0.57735027 0.57735027 -0.57735027
f 1//1 2//2 3//3
f 4//4 3//3 2//2
f 5//5 6//6 7//7
f 5//5 8//8 6//6
f 8//8 9//9 10//10
f 9//9 8//8 5//5
f 11//11 7//7 6//6
f 10//10 7//7 11//11
f 10//10 12//12 7//7
f 12//12 10//10 9//9
f 13//13 7//7 14//14
f 7//7 13//13 5//5
f 9//9 13//13 15//15
f 13//13 9//9 5//5
f 9//9 16//16 12//12
f 16//16 9//9 15//15
f 7//7 16//16 14//14
f 16//16 7//7 12//12
f 14//14 3//3 13//13
f 14//14 1//1 3//3
f 1//1 16//16 15//15
f 16//16 1//1 14//14
f 4//4 13//13 3//3
f 2//2 13//13 4//4
f 2//2 15//15 13//13
f 15//15 2//2 1//1
f 2//2 10//10 1//1
f 10//10 2//2 8//8
f 6//6 2//2 4//4
f 2//2 6//6 8//8
f 10//10 3//3 1//1
f 3//3 10//10 11//11
f 11//11 4//4 3//3
f 4//4 11//11 6//6
f 2//2 3//3 4//4
f 3//3 2//2 1//1