# https://github.com/mikedh/trimesh
v 0.06200700 -0.00875600 0.05885300
v 0.06200700 0.00450700 -0.04186600
v 0.06200700 0.00450700 0.05885300
v 0.06200700 -0.00875600 -0.04186600
v 0.00440400 0.00450700 0.00430300
v -0.05734100 0.00450700 0.05885300
v 0.00440400 0.00450700 -0.00127800
v -0.02243300 0.00450700 -0.00127800
v -0.02243300 0.00450700 0.00430300
v -0.05734100 0.00450700 -0.04186600
v 0.00440400 0.01535400 -0.00127800
v -0.02243300 0.01535400 -0.00127800
v -0.00818300 0.01535400 -0.01050500
v -0.00966700 0.01535400 -0.01054700
v -0.01109300 0.01535400 -0.01097300
v -0.01235600 0.01535400 -0.01175300
v -0.01337800 0.01535400 -0.01283400
v -0.01408600 0.01535400 -0.01414200
v -0.01442800 0.01535400 -0.01558900
v -0.01438700 0.01535400 -0.01707500
v -0.01396100 0.01535400 -0.01850000
v -0.01079300 0.01535400 -0.02149300
v -0.02243300 0.01535400 -0.05459200
v -0.00934600 0.01535400 -0.02183700
v -0.01210200 0.01535400 -0.02078700
v -0.01318200 0.01535400 -0.01976600
v -0.00673600 0.01535400 -0.01084800
v -0.00542700 0.01535400 -0.01155500
v -0.00434700 0.01535400 -0.01257600
v -0.00356700 0.01535400 -0.01384200
v -0.00313800 0.01535400 -0.01526600
v -0.00309600 0.01535400 -0.01675300
v -0.00344200 0.01535400 -0.01819900
v -0.00785700 0.01535400 -0.02179400
v -0.00643600 0.01535400 -0.02136900
v -0.00516800 0.01535400 -0.02058900
v -0.00414700 0.01535400 -0.01950800
v 0.00440400 0.01535400 -0.05459200
v 0.00440400 -0.02262900 -0.05459200
v -0.02243300 -0.02262900 -0.05459200
v -0.02243300 -0.02262900 -0.05677500
v 0.00440400 -0.02262900 -0.05677500
v 0.00440400 0.01711300 -0.05677500
v -0.02243300 0.01711300 -0.05677500
v 0.00440400 0.01711300 0.00430300
v -0.02243300 0.01711300 0.00430300
v -0.00818300 0.01711300 -0.01050500
v -0.00673600 0.01711300 -0.01084800
v -0.00542700 0.01711300 -0.01155500
v -0.00434700 0.01711300 -0.01257600
v -0.00356700 0.01711300 -0.01384200
v -0.00313800 0.01711300 -0.01526600
v -0.00309600 0.01711300 -0.01675300
v -0.00344200 0.01711300 -0.01819900
v -0.00785700 0.01711300 -0.02179400
v -0.00934600 0.01711300 -0.02183700
v -0.00643600 0.01711300 -0.02136900
v -0.00516800 0.01711300 -0.02058900
v -0.00414700 0.01711300 -0.01950800
v -0.00966700 0.01711300 -0.01054700
v -0.01109300 0.01711300 -0.01097300
v -0.01235600 0.01711300 -0.01175300
v -0.01337800 0.01711300 -0.01283400
v -0.01408600 0.01711300 -0.01414200
v -0.01442800 0.01711300 -0.01558900
v -0.01438700 0.01711300 -0.01707500
v -0.01396100 0.01711300 -0.01850000
v -0.01079300 0.01711300 -0.02149300
v -0.01210200 0.01711300 -0.02078700
v -0.01318200 0.01711300 -0.01976600
v -0.05734100 -0.00875600 -0.04186600
v -0.05734100 -0.00875600 0.05885300
vn 0.57735027 -0.57735027 0.57735027
vn 0.57735027 0.57735027 -0.57735027
vn 0.57735027 0.57735027 0.57735027
vn 0.57735027 -0.57735027 -0.57735027
vn 0.30151134 0.90453403 0.30151134
vn -0.57735027 0.57735027 0.57735027
vn 0.30151134 0.90453403 -0.30151134
vn -0.30151134 0.90453403 -0.30151134
vn -0.30151134 0.90453403 0.30151134
vn -0.57735027 0.57735027 -0.57735027
vn 0.90453403 -0.30151134 -0.30151134
vn -0.90453403 -0.30151134 -0.30151134
vn -0.06890577 -0.73760849 -0.67170358
vn 0.10708694 -0.73772498 -0.66655401
vn 0.27631999 -0.73783884 -0.61582555
vn 0.42640277 -0.73750712 -0.52370213
vn 0.54687823 -0.73763056 -0.39601182
vn 0.63059157 -0.73797069 -0.24031966
vn 0.67188091 -0.73744349 -0.06894299
vn 0.66646387 -0.73783419 0.10689538
vn 0.61624455 -0.73761810 0.27597499
vn 0.24039080 -0.73763064 0.63096220
vn -0.90453403 -0.30151134 0.30151134
vn 0.06891542 -0.73775727 0.67153919
vn 0.39547923 -0.73780906 0.54702282
vn 0.52387432 -0.73770777 0.42584380
vn -0.24031244 -0.73778130 -0.63081588
vn -0.39568686 -0.73773751 -0.54696918
vn -0.52381105 -0.73763852 -0.42604156
vn -0.61605865 -0.73743042 -0.27689009
vn -0.66612251 -0.73801226 -0.10779013
vn -0.67135725 -0.73785780 0.06960828
vn -0.63111091 -0.73738208 0.24076271
vn -0.10739062 -0.73769388 0.66653957
vn -0.27598725 -0.73758685 0.61627646
vn -0.42588072 -0.73777961 0.52374313
vn -0.54721723 -0.73782478 0.39518083
vn 0.90453403 -0.30151134 0.30151134
vn 0.57735027 -0.57735027 0.57735027
vn -0.57735027 -0.57735027 0.57735027
vn -0.57735027 -0.57735027 -0.57735027
vn 0.57735027 -0.57735027 -0.57735027
vn 0.57735027 0.57735027 -0.57735027
vn -0.57735027 0.57735027 -0.57735027
vn 0.57735027 0.57735027 0.57735027
vn -0.57735027 0.57735027 0.57735027
vn -0.06890577 0.73760849 -0.67170358
vn -0.24031244 0.73778130 -0.63081588
vn -0.39568686 0.73773751 -0.54696918
vn -0.52381105 0.73763852 -0.42604156
vn -0.61605865 0.73743042 -0.27689009
vn -0.66612251 0.73801226 -0.10779013
vn -0.67135725 0.73785780 0.06960828
vn -0.63111091 0.73738208 0.24076271
vn -0.10739062 0.73769388 0.66653957
vn 0.06891542 0.73775727 0.67153919
vn -0.27598725 0.73758685 0.61627646
vn -0.42588072 0.73777961 0.52374313
vn -0.54721723 0.73782478 0.39518083
vn 0.10708694 0.73772498 -0.66655401
vn 0.27631999 0.73783884 -0.61582555
vn 0.42640277 0.73750712 -0.52370213
vn 0.54687823 0.73763056 -0.39601182
vn 0.63059157 0.73797069 -0.24031966
vn 0.67188091 0.73744349 -0.06894299
vn 0.66646387 0.73783419 0.10689538
vn 0.61624455 0.73761810 0.27597499
vn 0.24039080 0.73763064 0.63096220
vn 0.39547923 0.73780906 0.54702282
vn 0.52387432 0.73770777 0.42584380
vn -0.57735027 -0.57735027 -0.57735027
vn -0.57735027 -0.57735027 0.57735027
f 1//1 2//2 3//3
f 2//2 1//1 4//4
f 3//3 5//5 6//6
f 3//3 7//7 5//5
f 7//7 2//2 8//8
f 2//2 7//7 3//3
f 9//9 6//6 5//5
f 8//8 6//6 9//9
f 8//8 10//10 6//6
f 10//10 8//8 2//2
f 8//8 11//11 7//7
f 11//11 8//8 12//12
f 12//12 13//13 11//11
f 12//12 14//14 13//13
f 12//12 15//15 14//14
f 12//12 16//16 15//15
f 12//12 17//17 16//16
f 12//12 18//18 17//17
f 12//12 19//19 18//18
f 12//12 20//20 19//19
f 12//12 21//21 20//20
f 22//22 23//23 24//24
f 25//25 23//23 22//22
f 26//26 23//23 25//25
f 21//21 23//23 26//26
f 23//23 21//21 12//12
f 27//27 11//11 13//13
f 28//28 11//11 27//27
f 29//29 11//11 28//28
f 30//30 11//11 29//29
f 31//31 11//11 30//30
f 32//32 11//11 31//31
f 33//33 11//11 32//32
f 23//23 34//34 24//24
f 23//23 35//35 34//34
f 23//23 36//36 35//35
f 23//23 37//37 36//36
f 23//23 33//33 37//37
f 33//33 38//38 11//11
f 38//38 33//33 23//23
f 23//23 39//39 38//38
f 39//39 23//23 40//40
f 41//41 39//39 40//40
f 39//39 41//41 42//42
f 41//41 43//43 42//42
f 43//43 41//41 44//44
f 45//45 11//11 43//43
f 5//5 11//11 45//45
f 11//11 5//5 7//7
f 38//38 43//43 11//11
f 39//39 43//43 38//38
f 43//43 39//39 42//42
f 46//46 5//5 45//45
f 5//5 46//46 9//9
f 44//44 23//23 46//46
f 41//41 23//23 44//44
f 23//23 41//41 40//40
f 12//12 46//46 23//23
f 8//8 46//46 12//12
f 46//46 8//8 9//9
f 45//45 47//47 46//46
f 45//45 48//48 47//47
f 45//45 49//49 48//48
f 45//45 50//50 49//49
f 45//45 51//51 50//50
f 45//45 52//52 51//51
f 45//45 53//53 52//52
f 45//45 54//54 53//53
f 55//55 43//43 56//56
f 57//57 43//43 55//55
f 58//58 43//43 57//57
f 59//59 43//43 58//58
f 54//54 43//43 59//59
f 43//43 54//54 45//45
f 60//60 46//46 47//47
f 61//61 46//46 60//60
f 62//62 46//46 61//61
f 63//63 46//46 62//62
f 64//64 46//46 63//63
f 65//65 46//46 64//64
f 66//66 46//46 65//65
f 67//67 46//46 66//66
f 43//43 68//68 56//56
f 43//43 69//69 68//68
f 43//43 70//70 69//69
f 43//43 67//67 70//70
f 67//67 44//44 46//46
f 44//44 67//67 43//43
f 32//32 52//52 53//53
f 52//52 32//32 31//31
f 33//33 53//53 54//54
f 53//53 33//33 32//32
f 31//31 51//51 52//52
f 51//51 31//31 30//30
f 37//37 54//54 59//59
f 54//54 37//37 33//33
f 30//30 50//50 51//51
f 50//50 30//30 29//29
f 36//36 59//59 58//58
f 59//59 36//36 37//37
f 28//28 50//50 29//29
f 50//50 28//28 49//49
f 57//57 36//36 58//58
f 36//36 57//57 35//35
f 27//27 49//49 28//28
f 49//49 27//27 48//48
f 55//55 35//35 57//57
f 35//35 55//55 34//34
f 13//13 48//48 27//27
f 48//48 13//13 47//47
f 56//56 34//34 55//55
f 34//34 56//56 24//24
f 14//14 47//47 13//13
f 47//47 14//14 60//60
f 68//68 24//24 56//56
f 24//24 68//68 22//22
f 15//15 60//60 14//14
f 60//60 15//15 61//61
f 69//69 22//22 68//68
f 22//22 69//69 25//25
f 16//16 61//61 15//15
f 61//61 16//16 62//62
f 70//70 25//25 69//69
f 25//25 70//70 26//26
f 16//16 63//63 62//62
f 63//63 16//16 17//17
f 21//21 70//70 67//67
f 70//70 21//21 26//26
f 17//17 64//64 63//63
f 64//64 17//17 18//18
f 20//20 67//67 66//66
f 67//67 20//20 21//21
f 18//18 65//65 64//64
f 65//65 18//18 19//19
f 19//19 66//66 65//65
f 66//66 19//19 20//20
f 71//71 1//1 72//72
f 1//1 71//71 4//4
f 6//6 1//1 3//3
f 1//1 6//6 72//72
f 71//71 6//6 10//10
f 6//6 71//71 72//72
f 71//71 2//2 4//4
f 2//2 71//71 10//10