# https://github.com/mikedh/trimesh
v 0.06380600 0.07474100 0.01695800
v 0.06380600 0.08013400 -0.03697200
v 0.06380600 0.08013400 0.01156500
v 0.06380600 -0.07626300 0.01695800
v 0.06380600 -0.08165600 0.01156500
v 0.06380600 -0.08165600 -0.03697200
v 0.04627800 0.08013400 0.03448500
v 0.05167100 -0.05469100 0.03448500
v 0.05167100 0.07474100 0.03448500
v 0.04627800 -0.06008400 0.03448500
v -0.05618900 0.08013400 0.03448500
v -0.05618900 -0.06008400 0.03448500
v 0.03307700 -0.07322100 0.03143400
v 0.04458800 -0.08940000 0.02759700
v 0.04458800 -0.07322100 0.02759700
v 0.03307700 -0.08940000 0.03143400
v 0.03009900 -0.07087000 0.03313700
v 0.03009900 -0.07087000 0.02235100
v 0.06245700 -0.07087000 0.02235100
v -0.06697500 -0.08704900 0.03313700
v -0.06697500 -0.09244200 0.02774400
v -0.06158200 -0.09244200 0.03313700
v -0.06158200 0.09092000 0.03313700
v -0.06697500 0.09092000 0.02774400
v -0.06697500 0.08552700 0.03313700
v -0.06697500 0.09092000 -0.03697200
v -0.06697500 -0.09244200 -0.03697200
v 0.03009900 -0.09244200 0.03313700
v 0.06245700 -0.09244200 0.02235100
v 0.06245700 -0.09244200 -0.03697200
v 0.04480200 -0.07322100 0.02823600
v 0.03329000 -0.07322100 0.03207400
v 0.03329000 -0.08940000 0.03207400
v 0.04480200 -0.08940000 0.02823600
v 0.06245700 -0.07087000 0.03313700
v 0.05706400 0.09092000 0.03313700
v 0.04627800 0.08013400 0.03313700
v 0.05167100 0.07474100 0.03313700
v -0.05618900 0.08013400 0.03313700
v -0.05618900 -0.06008400 0.03313700
v 0.06245700 0.08552700 0.03313700
v 0.05167100 -0.05469100 0.03313700
v 0.04627800 -0.06008400 0.03313700
v 0.06245700 0.09092000 0.02774400
v 0.06245700 0.09092000 -0.03697200
v 0.06245700 0.08013400 0.01156500
v 0.06245700 0.08013400 -0.03697200
v 0.06245700 0.07474100 0.01695800
v 0.06245700 -0.07626300 0.01695800
v 0.06245700 -0.08165600 0.01156500
v 0.06245700 -0.08165600 -0.03697200
vn 0.63026247 0.29710858 0.71728356
vn 0.57735027 0.57735027 -0.57735027
vn 0.63026247 0.71728356 0.29710858
vn 0.63026247 -0.29710858 0.71728356
vn 0.63026247 -0.71728356 0.29710858
vn 0.57735027 -0.57735027 -0.57735027
vn 0.29710858 0.71728356 0.63026247
vn 0.71728356 -0.29710858 0.63026247
vn 0.71728356 0.29710858 0.63026247
vn 0.29710858 -0.71728356 0.63026247
vn -0.57735027 0.57735027 0.57735027
vn -0.57735027 -0.57735027 0.57735027
vn 0.73019554 -0.57737493 0.36531175
vn -0.36461084 0.57742433 0.73050672
vn -0.36461084 -0.57742433 0.73050672
vn 0.73019554 0.57737493 0.36531175
vn 0.07737391 -0.24473665 0.96649741
vn 0.00000000 -1.00000000 0.00000000
vn 0.92340852 -0.27845132 0.26416200
vn -0.69984877 -0.14291044 0.69984877
vn -0.69984877 -0.69984877 0.14291044
vn -0.14291044 -0.69984877 0.69984877
vn -0.14291044 0.69984877 0.69984877
vn -0.69984877 0.69984877 0.14291044
vn -0.69984877 0.14291044 0.69984877
vn -0.57735027 0.57735027 -0.57735027
vn -0.57735027 -0.57735027 -0.57735027
vn 0.11847244 -0.67278472 0.73029104
vn 0.65130511 -0.59618303 0.46943312
vn 0.57735027 -0.57735027 -0.57735027
vn 0.00016306 -0.30137897 0.95350443
vn 0.57202664 -0.30127922 0.76289996
vn 0.57201732 0.30131114 0.76289434
vn 0.00016272 0.30132760 0.95352066
vn 0.57735027 -0.57735027 0.57735027
vn 0.14291044 0.69984877 0.69984877
vn 0.22745828 0.54913285 0.80418645
vn 0.54913285 0.22745828 0.80418645
vn -0.30151134 0.30151134 0.90453403
vn -0.30151134 -0.30151134 0.90453403
vn 0.69984877 0.14291044 0.69984877
vn 0.54913285 -0.22745828 0.80418645
vn 0.22745828 -0.54913285 0.80418645
vn 0.69984877 0.69984877 0.14291044
vn 0.57735027 0.57735027 -0.57735027
vn 0.80418645 0.54913285 0.22745828
vn 0.57735027 0.57735027 -0.57735027
vn 0.80418645 0.22745828 0.54913285
vn 0.26120387 -0.36939806 0.89180581
vn 0.80418645 -0.54913285 0.22745828
vn 0.57735027 -0.57735027 -0.57735027
f 1//1 2//2 3//3
f 4//4 2//2 1//1
f 5//5 2//2 4//4
f 2//2 5//5 6//6
f 7//7 8//8 9//9
f 7//7 10//10 8//8
f 11//11 10//10 7//7
f 10//10 11//11 12//12
f 13//13 14//14 15//15
f 14//14 13//13 16//16
f 17//17 18//18 19//19
f 20//20 21//21 22//22
f 23//23 24//24 25//25
f 26//26 25//25 24//24
f 26//26 20//20 25//25
f 27//27 20//20 26//26
f 20//20 27//27 21//21
f 21//21 28//28 22//22
f 21//21 29//29 28//28
f 27//27 29//29 21//21
f 29//29 27//27 30//30
f 19//19 31//31 29//29
f 19//19 32//32 31//31
f 32//32 17//17 33//33
f 17//17 32//32 19//19
f 34//34 29//29 31//31
f 33//33 29//29 34//34
f 33//33 28//28 29//29
f 28//28 33//33 17//17
f 17//17 19//19 35//35
f 36//36 37//37 38//38
f 36//36 39//39 37//37
f 39//39 23//23 40//40
f 23//23 39//39 36//36
f 36//36 35//35 41//41
f 38//38 35//35 36//36
f 42//42 35//35 38//38
f 43//43 35//35 42//42
f 43//43 17//17 35//35
f 40//40 17//17 43//43
f 40//40 28//28 17//17
f 40//40 22//22 28//28
f 23//23 22//22 40//40
f 25//25 22//22 23//23
f 22//22 25//25 20//20
f 36//36 41//41 44//44
f 44//44 23//23 36//36
f 44//44 24//24 23//23
f 45//45 24//24 44//44
f 24//24 45//45 26//26
f 2//2 46//46 3//3
f 46//46 2//2 47//47
f 3//3 48//48 1//1
f 48//48 3//3 46//46
f 48//48 4//4 1//1
f 4//4 48//48 49//49
f 50//50 4//4 49//49
f 4//4 50//50 5//5
f 51//51 5//5 50//50
f 5//5 51//51 6//6
f 30//30 47//47 51//51
f 30//30 45//45 47//47
f 27//27 45//45 30//30
f 45//45 27//27 26//26
f 51//51 2//2 6//6
f 2//2 51//51 47//47
f 41//41 48//48 46//46
f 35//35 48//48 41//41
f 19//19 48//48 35//35
f 19//19 49//49 48//48
f 19//19 50//50 49//49
f 29//29 50//50 19//19
f 29//29 51//51 50//50
f 51//51 29//29 30//30
f 41//41 45//45 44//44
f 46//46 45//45 41//41
f 45//45 46//46 47//47
f 13//13 31//31 32//32
f 31//31 13//13 15//15
f 33//33 13//13 32//32
f 13//13 33//33 16//16
f 14//14 31//31 15//15
f 31//31 14//14 34//34
f 34//34 16//16 33//33
f 16//16 34//34 14//14
f 8//8 38//38 9//9
f 38//38 8//8 42//42
f 9//9 37//37 7//7
f 37//37 9//9 38//38
f 10//10 42//42 8//8
f 42//42 10//10 43//43
f 37//37 11//11 7//7
f 11//11 37//37 39//39
f 40//40 10//10 12//12
f 10//10 40//40 43//43
f 40//40 11//11 39//39
f 11//11 40//40 12//12