# https://github.com/mikedh/trimesh
v 0.00370500 -0.10543500 0.04075900
v -0.00004600 -0.10485300 0.03610100
v -0.00379700 -0.10543500 0.04075900
v -0.00004600 -0.10605200 0.04291300
v -0.00004600 -0.10672400 0.04049400
v -0.01464800 0.04389000 -0.05682700
v -0.01406300 0.04022600 -0.05525600
v -0.01485500 0.04791000 -0.05303800
v -0.01824600 0.04280400 -0.05682700
v -0.01629400 0.03956700 -0.05525600
v -0.01668400 0.04505200 -0.05303800
v -0.01455100 0.04023400 -0.05283700
v -0.01377100 0.03599300 -0.05672000
v -0.01511900 0.04241200 -0.05283700
v 0.00890200 -0.04403200 -0.05490800
v 0.00887700 -0.04082700 -0.05676500
v 0.01016400 -0.03520500 -0.05136500
v 0.00852400 -0.04845900 -0.05583200
v 0.00925000 -0.04395800 -0.05248900
v -0.02430600 0.03889900 -0.05244500
v -0.02511400 0.03508500 -0.05578800
v -0.02481900 0.03913800 -0.05486400
v -0.02269400 0.04410900 -0.05105000
v -0.02430000 0.04072200 -0.05681600
v -0.02514900 0.04301100 -0.05623100
v -0.02625200 0.04034200 -0.05501700
v -0.02502000 0.04541400 -0.05141600
v -0.02787300 0.03675600 -0.05648100
v -0.02652400 0.04057100 -0.05259700
v -0.00899500 -0.04403200 -0.05490800
v -0.00861600 -0.04845900 -0.05583200
v -0.00934200 -0.04395800 -0.05248900
v -0.01025600 -0.03520500 -0.05136500
v -0.00896900 -0.04082700 -0.05676500
v -0.01770100 -0.04723200 -0.05481300
v -0.01846500 -0.05161900 -0.05573700
v -0.01802600 -0.04708800 -0.05239400
v -0.01816900 -0.03932900 -0.05099900
v -0.01703700 -0.04401800 -0.05676500
v -0.02013800 0.03812300 -0.05563300
v -0.02061800 0.03991700 -0.05684700
v -0.02014200 0.04266900 -0.05203200
v -0.01920800 0.03457200 -0.05709700
v -0.01982900 0.03829800 -0.05321300
v -0.02803800 -0.04398500 -0.05472100
v -0.02742000 -0.04079300 -0.05676500
v -0.02607700 -0.03716000 -0.05136500
v -0.02768900 -0.04391900 -0.05230200
v -0.02464200 -0.03736000 -0.05165500
v -0.02854000 -0.04840300 -0.05564500
v -0.02771800 0.04077400 -0.05501700
v -0.02736500 0.04082000 -0.05259700
v -0.02637200 0.04590800 -0.05141600
v -0.02750000 0.04335300 -0.05623100
v 0.01932000 -0.04401800 -0.05676500
v 0.01913700 -0.04723200 -0.05481300
v 0.01895400 -0.03932900 -0.05099900
v 0.01837300 -0.05161900 -0.05573700
v 0.01881200 -0.04708800 -0.05239400
v 0.02645900 -0.04433300 -0.05472100
v 0.02501500 -0.04133500 -0.05676500
v 0.02455000 -0.03736000 -0.05165500
v 0.02674200 -0.04412000 -0.05230200
v 0.02844800 -0.04840300 -0.05564500
v 0.02052600 0.03991700 -0.05684700
v 0.02004600 0.03812300 -0.05563300
v 0.02004900 0.04266900 -0.05203200
v 0.01911500 0.03457200 -0.05709700
v 0.01973700 0.03829800 -0.05321300
v -0.02510700 -0.04133500 -0.05676500
v -0.02655100 -0.04433300 -0.05472100
v -0.02683500 -0.04412000 -0.05230200
v 0.03150100 0.03944900 -0.05628000
v 0.03037200 0.04303800 -0.05239700
v 0.03091400 0.04308500 -0.05481600
v 0.02842500 0.04802900 -0.05259800
v 0.03027700 0.04704000 -0.05638700
v 0.02297200 -0.04547700 -0.05472100
v 0.02246700 -0.04989400 -0.05564500
v 0.02264100 -0.04534900 -0.05230200
v 0.02230800 -0.03849100 -0.05136500
v 0.02318200 -0.04224800 -0.05676500
v 0.01760900 -0.04723200 -0.05481300
v 0.01694500 -0.04401800 -0.05676500
v 0.01807700 -0.03932900 -0.05099900
v 0.01793400 -0.04708800 -0.05239400
v -0.01825500 0.04015400 -0.05684700
v -0.01861800 0.03827500 -0.05563300
v -0.01871000 0.04251700 -0.05203200
v -0.01895600 0.03838500 -0.05321300
v -0.01049000 -0.04434600 -0.05490800
v -0.01129300 -0.04131700 -0.05676500
v -0.01127400 -0.03538600 -0.05179700
v -0.01020100 -0.04413900 -0.05248900
v -0.02090200 -0.04236000 -0.05676500
v -0.02153900 -0.04554900 -0.05472100
v -0.02152300 -0.03853300 -0.05136500
v -0.02185600 -0.04539000 -0.05230200
v -0.02255900 -0.04989400 -0.05564500
v 0.02950300 0.04269200 -0.05239700
v 0.02911800 0.04239200 -0.05481600
v 0.02735400 0.04759700 -0.05259800
v 0.02750000 0.04587500 -0.05638700
v 0.01397100 0.04022600 -0.05525600
v 0.01455600 0.04389000 -0.05682700
v 0.01547700 0.04535200 -0.05303800
v 0.01620200 0.03956700 -0.05525600
v 0.01574100 0.03985500 -0.05283700
v 0.01659200 0.04505200 -0.05303800
v 0.01815400 0.04280400 -0.05682700
v 0.01445900 0.04023400 -0.05283700
v 0.01367800 0.03599300 -0.05672000
v -0.03036900 0.04704000 -0.05638700
v -0.02921000 0.04239200 -0.05481600
v -0.02759200 0.04587500 -0.05638700
v -0.02744700 0.04759700 -0.05259800
v -0.02959500 0.04269200 -0.05239700
v -0.03100600 0.04308500 -0.05481600
v -0.02851700 0.04802900 -0.05259800
v -0.03046400 0.04303800 -0.05239700
v -0.03159300 0.03944900 -0.05628000
v -0.01493400 -0.04659600 -0.05505100
v -0.01527300 -0.04344600 -0.05676500
v -0.01528100 -0.03744200 -0.05137000
v -0.01362900 -0.05088000 -0.05597400
v -0.01462500 -0.04642000 -0.05263100
v -0.01440800 -0.03735400 -0.05137000
v -0.01341400 -0.04644300 -0.05505100
v -0.01375200 -0.04633300 -0.05263100
v -0.01290900 -0.04321000 -0.05676500
v 0.01518000 -0.04344600 -0.05676500
v 0.01484200 -0.04659600 -0.05505100
v 0.01518900 -0.03744200 -0.05137000
v 0.01353700 -0.05088000 -0.05597400
v 0.01453300 -0.04642000 -0.05263100
v 0.01431600 -0.03735400 -0.05137000
v 0.01332200 -0.04644300 -0.05505100
v 0.01281700 -0.04321000 -0.05676500
v 0.01365900 -0.04633300 -0.05263100
v 0.01039800 -0.04434600 -0.05490800
v 0.01010900 -0.04413900 -0.05248900
v 0.01118200 -0.03538600 -0.05179700
v 0.01120100 -0.04131700 -0.05676500
v 0.02740800 0.04335300 -0.05623100
v 0.02762500 0.04077400 -0.05501700
v 0.02627900 0.04590800 -0.05141600
v 0.02727300 0.04082000 -0.05259700
v 0.02778100 0.03675600 -0.05648100
v 0.02732800 -0.04079300 -0.05676500
v 0.02794600 -0.04398500 -0.05472100
v 0.02598500 -0.03716000 -0.05136500
v 0.02759700 -0.04391900 -0.05230200
v -0.02306500 -0.04547700 -0.05472100
v -0.02327500 -0.04224800 -0.05676500
v -0.02240000 -0.03849100 -0.05136500
v -0.02273300 -0.04534900 -0.05230200
v 0.02144600 -0.04554900 -0.05472100
v 0.02081000 -0.04236000 -0.05676500
v 0.02143100 -0.03853300 -0.05136500
v 0.02176400 -0.04539000 -0.05230200
v 0.00886200 -0.08967900 0.04514900
v 0.00548900 -0.09133600 0.04482500
v 0.00836700 -0.08924100 0.04214200
v 0.00792900 -0.08953900 0.04770900
v -0.00802200 -0.08953900 0.04770900
v -0.00895400 -0.08967900 0.04514900
v -0.00558200 -0.09133600 0.04482500
v -0.00846000 -0.08924100 0.04214200
v 0.01852600 0.03827500 -0.05563300
v 0.01816300 0.04015400 -0.05684700
v 0.01861800 0.04251700 -0.05203200
v 0.01886300 0.03838500 -0.05321300
v 0.02330900 0.03857900 -0.05244500
v 0.02303200 0.03832700 -0.05486400
v 0.02173000 0.04400900 -0.05105000
v 0.02197300 0.03922100 -0.05681600
v 0.02616000 0.04034200 -0.05501700
v 0.02643100 0.04057100 -0.05259700
v 0.02492700 0.04541400 -0.05141600
v 0.02505700 0.04301100 -0.05623100
v -0.02312400 0.03832700 -0.05486400
v -0.02340100 0.03857900 -0.05244500
v -0.02182200 0.04400900 -0.05105000
v -0.02206600 0.03922100 -0.05681600
v 0.02420800 0.04072200 -0.05681600
v 0.02472600 0.03913800 -0.05486400
v 0.02260200 0.04410900 -0.05105000
v 0.02502100 0.03508500 -0.05578800
v 0.02421400 0.03889900 -0.05244500
v -0.01922900 -0.04723200 -0.05481300
v -0.01941300 -0.04401800 -0.05676500
v -0.01904700 -0.03932900 -0.05099900
v -0.01890400 -0.04708800 -0.05239400
v 0.01085100 -0.08788400 0.04518600
v -0.01094300 -0.08788400 0.04518600
v -0.00004600 -0.09623400 0.02679900
v -0.00004600 -0.09129800 0.03132900
v -0.00633600 -0.08844100 0.03148700
v 0.00624300 -0.08844100 0.03148700
v -0.02149700 0.03806100 -0.05689100
v -0.03246000 0.04580700 -0.05689100
v -0.03013800 0.04485400 -0.05371000
v -0.00489100 -0.09942300 0.03028100
v -0.00514500 -0.10117600 0.03203100
v -0.00004600 -0.10311500 0.03035200
v -0.00352300 -0.10386000 0.04323800
v -0.00427200 -0.09374200 0.04520300
v -0.00004600 -0.09452000 0.04670700
v -0.02179700 0.04097500 -0.05147900
v -0.03199700 0.05819100 -0.05689100
v -0.02879800 0.07016900 -0.05689100
v -0.02970700 0.05656500 -0.05135800
v -0.02782600 0.05438700 -0.04856000
v -0.00004600 -0.09919400 0.03171500
v 0.00479900 -0.09942300 0.03028100
v 0.00505200 -0.10117600 0.03203100
v -0.00521100 -0.10437800 0.03908400
v -0.00651200 -0.09221200 0.03983700
v -0.00004600 -0.10439000 0.03181700
v -0.00004600 -0.10382300 0.04451500
v -0.00782900 -0.09080000 0.05006100
v -0.01665500 0.04157300 -0.05234900
v -0.01246900 0.04172400 -0.05689100
v -0.02801700 0.07053900 -0.04897400
v -0.01394800 0.07106700 -0.05689100
v -0.02249700 0.05090200 -0.04679600
v -0.02673300 -0.03977500 -0.05327400
v -0.02849600 -0.04055500 -0.05689100
v -0.02979100 -0.02773400 -0.05689100
v -0.01572300 -0.04550300 -0.05689100
v -0.02867600 -0.01833600 -0.05689100
v -0.00861700 -0.02988900 -0.05689100
v -0.00817800 -0.04075300 -0.05689100
v -0.00551500 -0.09607900 0.03136400
v 0.00511900 -0.10294000 0.03979100
v -0.00325600 -0.09999200 0.02679300
v -0.00004600 -0.10078300 0.02606400
v 0.00343000 -0.10386000 0.04323800
v -0.00576600 -0.09129000 0.05353900
v -0.01335900 -0.08734500 0.04888300
v -0.01643400 0.05188300 -0.04819400
v -0.01310700 0.05509100 -0.05067400
v -0.01266200 0.05510900 -0.05689100
v -0.02145300 0.07389500 -0.05689100
v -0.02268100 0.05203800 -0.04491300
v -0.02898900 -0.02643400 -0.05104400
v -0.00874000 -0.03861000 -0.05427600
v -0.01669800 -0.04275700 -0.05138600
v -0.01058500 -0.01800700 -0.05689100
v -0.00004600 -0.08560400 0.03268400
v 0.00542200 -0.09607900 0.03136400
v -0.00775200 -0.09100000 0.03463500
v -0.00479200 -0.09607900 0.02874000
v -0.00482100 -0.09711900 0.02162700
v -0.00004600 -0.10042500 0.02168300
v 0.00316400 -0.09999200 0.02679300
v 0.00418000 -0.09374200 0.04520300
v -0.00004600 -0.09204300 0.05354100
v -0.02136800 0.07434900 -0.04858800
v -0.01421400 0.07145800 -0.04915000
v 0.02870600 0.07016900 -0.05689100
v 0.02140500 0.03806100 -0.05689100
v 0.03236800 0.04580700 -0.05689100
v -0.02713600 0.05637400 -0.04543200
v -0.02828000 -0.02717600 -0.04637800
v -0.03082500 -0.01329800 -0.04772900
v -0.02085700 -0.01492400 -0.05689100
v -0.00938900 -0.02789600 -0.05155300
v 0.00642000 -0.09221200 0.03983700
v -0.01387200 -0.08605100 0.04025200
v -0.00816900 -0.08797300 0.02416600
v 0.00472900 -0.09711900 0.02162700
v -0.00004600 -0.09693500 0.01941300
v 0.00470000 -0.09607900 0.02874000
v 0.00773700 -0.09080000 0.05006100
v 0.00567400 -0.09129000 0.05353900
v -0.00343500 -0.08706000 0.05475800
v -0.00915500 -0.08550000 0.05322300
v -0.01277800 -0.08498500 0.04430100
v 0.03004600 0.04485400 -0.05371000
v 0.03190400 0.05819100 -0.05689100
v -0.01712300 0.05378100 -0.04481600
v -0.01513100 0.07932400 -0.02131700
v 0.01385600 0.07106700 -0.05689100
v 0.02170400 0.04097500 -0.05147900
v -0.02981000 0.05207900 -0.02567700
v -0.02203800 -0.00887400 -0.04774500
v -0.01170100 -0.03029700 -0.04655700
v -0.01922800 -0.03169700 -0.04544100
v -0.01164800 -0.01148500 -0.04807100
v 0.00766000 -0.09100000 0.03463500
v -0.00760100 -0.08564100 0.03259900
v 0.00807700 -0.08797300 0.02416600
v 0.01326700 -0.08734500 0.04888300
v 0.00334300 -0.08706000 0.05475800
v -0.00004600 -0.08680100 0.05445400
v -0.01253500 -0.07769000 0.05515100
v -0.00746300 -0.08014300 0.05779400
v -0.01434800 -0.07679200 0.05783800
v -0.01338900 -0.07969800 0.06124500
v -0.01555800 -0.07816700 0.04599000
v -0.01672100 -0.07725200 0.06017000
v 0.02961500 0.05656500 -0.05135800
v 0.02792500 0.07053900 -0.04897400
v -0.03097000 0.07208800 -0.02144000
v 0.01656300 0.04157300 -0.05234900
v 0.01237700 0.04172400 -0.05689100
v 0.01257000 0.05510900 -0.05689100
v 0.02136100 0.07389500 -0.05689100
v 0.02773400 0.05438700 -0.04856000
v -0.01444400 0.04944900 -0.02575900
v -0.02143900 0.04583300 -0.02667600
v -0.03025800 -0.02492100 -0.04021200
v -0.03245300 -0.00538600 -0.01984900
v -0.01526500 -0.08287600 0.03287900
v -0.00004600 -0.08837100 0.02137600
v 0.00906300 -0.08550000 0.05322300
v -0.00004600 -0.08020700 0.05895300
v -0.01309400 -0.07774400 0.06294800
v -0.01738900 -0.07465600 0.05685100
v -0.01591700 -0.07273000 0.05202000
v -0.01504400 0.08172400 -0.01071200
v -0.00738900 0.07207900 -0.02159200
v 0.01634100 0.05188300 -0.04819400
v 0.01301400 0.05509100 -0.05067400
v 0.02127600 0.07434900 -0.04858800
v 0.01412100 0.07145800 -0.04915000
v 0.02240500 0.05090200 -0.04679600
v -0.02954100 0.05018900 -0.01851900
v -0.02391200 0.00042400 -0.02198100
v -0.01059300 -0.00402800 -0.02087200
v -0.03218700 0.07141400 -0.01019700
v -0.01185600 -0.02685200 -0.04033000
v -0.02010100 -0.02924200 -0.04020600
v 0.00750800 -0.08602500 0.03267400
v 0.01378000 -0.08605100 0.04025200
v -0.01890000 -0.07600700 0.03484000
v -0.01216900 -0.08203200 0.02469500
v -0.00004600 -0.07746400 0.02127800
v 0.01268600 -0.08498500 0.04430100
v 0.00737100 -0.08014300 0.05779400
v 0.01244300 -0.07769000 0.05515100
v 0.01425600 -0.07679200 0.05783800
v 0.01329700 -0.07969800 0.06124500
v 0.00852500 -0.02988900 -0.05689100
v 0.00808600 -0.04075300 -0.05689100
v 0.01563100 -0.04550300 -0.05689100
v 0.00864800 -0.03861000 -0.05427600
v -0.00570500 -0.07759600 0.05851400
v -0.01730100 -0.07824700 0.04136600
v -0.01626500 -0.07272000 0.05893100
v 0.02258800 0.05203800 -0.04491300
v -0.01014200 0.04614200 -0.01839000
v -0.03065900 0.04880000 -0.00337100
v -0.02200300 0.04248700 -0.01653900
v -0.03211000 -0.02395000 -0.01285900
v -0.02492100 0.00297900 -0.01074100
v -0.02650900 0.07582400 0.00523800
v -0.02147400 -0.03186200 -0.01448200
v -0.01608100 -0.07412100 0.02866400
v 0.01207700 -0.08203200 0.02469500
v 0.01300200 -0.07774400 0.06294800
v 0.01546600 -0.07816700 0.04599000
v 0.01662900 -0.07725200 0.06017000
v 0.02840300 -0.04055500 -0.05689100
v 0.02664100 -0.03977500 -0.05327400
v 0.01049300 -0.01800700 -0.05689100
v 0.01660600 -0.04275700 -0.05138600
v -0.00483700 -0.07130600 0.05895400
v -0.01574300 -0.07546900 0.06222000
v -0.01693200 -0.06935300 0.03980400
v -0.01506900 0.08774700 0.00618800
v -0.00004600 0.08864400 0.00832800
v -0.00004600 0.07632000 -0.01180000
v -0.00004600 0.08011200 -0.00560700
v -0.00616700 0.09218700 0.01374300
v 0.02704400 0.05637400 -0.04543200
v 0.01503900 0.07932400 -0.02131700
v 0.01703100 0.05378100 -0.04481600
v -0.03254400 -0.00373000 -0.01022200
v -0.01056900 -0.00191100 -0.01437100
v -0.00844400 -0.02899300 -0.01759300
v -0.02344800 -0.03675000 0.01070100
v 0.01517300 -0.08287600 0.03287900
v 0.00561200 -0.07759600 0.05851400
v 0.01582500 -0.07273000 0.05202000
v 0.01729700 -0.07465600 0.05685100
v 0.02858400 -0.01833600 -0.05689100
v 0.02969800 -0.02773400 -0.05689100
v 0.00929600 -0.02789600 -0.05155300
v 0.01160900 -0.03029700 -0.04655700
v -0.01452700 -0.06948200 0.05167800
v -0.00004600 0.09525700 0.01499800
v 0.01495100 0.08172400 -0.01071200
v -0.01169700 0.08676700 0.02579100
v 0.00729700 0.07207900 -0.02159200
v 0.02971800 0.05207900 -0.02567700
v 0.03087800 0.07208800 -0.02144000
v 0.01435200 0.04944900 -0.02575900
v -0.02580800 0.02230500 -0.00462200
v -0.01014400 0.02253100 -0.01398000
v -0.02198600 0.04206100 -0.00522200
v -0.03084800 -0.00609000 -0.00012400
v -0.03080300 -0.02280400 0.00480000
v -0.02761100 0.00047300 -0.00181200
v -0.02937400 0.05446500 0.02322700
v -0.02498700 0.08171300 0.02143100
v -0.01808600 -0.04407400 0.01064100
v 0.01598900 -0.07412100 0.02866400
v 0.01880800 -0.07600700 0.03484000
v -0.02009300 -0.05664400 0.03591500
v -0.01157600 -0.06840100 0.02058800
v -0.01380300 -0.05617000 0.01161300
v -0.00004600 -0.06859600 0.01205700
v 0.00474400 -0.07130600 0.05895400
v 0.01720900 -0.07824700 0.04136600
v 0.01617300 -0.07272000 0.05893100
v 0.02889600 -0.02643400 -0.05104400
v 0.02818800 -0.02717600 -0.04637800
v 0.02076500 -0.01492400 -0.05689100
v 0.01155600 -0.01148500 -0.04807100
v 0.01913600 -0.03169700 -0.04544100
v -0.01180300 0.00546800 -0.01525300
v -0.00273500 -0.02235400 -0.02174700
v -0.00004600 -0.07117000 0.06005700
v -0.00004600 0.08889700 0.02702000
v 0.00607500 0.09218700 0.01374300
v -0.00004600 0.04639900 -0.02020500
v -0.00004600 0.02267700 -0.02001200
v 0.01005000 0.04614200 -0.01839000
v 0.02134700 0.04583300 -0.02667600
v -0.02469300 0.00661800 -0.00364400
v -0.02472600 -0.03181000 0.03263600
v -0.02806100 -0.02233900 0.02721200
v -0.01537600 0.07261300 0.03961000
v -0.00650000 -0.03586600 -0.01334900
v -0.00004600 -0.05444200 0.00100900
v 0.01565100 -0.07546900 0.06222000
v 0.01684000 -0.06935300 0.03980400
v 0.03073300 -0.01329800 -0.04772900
v 0.02194600 -0.00887400 -0.04774500
v 0.01176400 -0.02685200 -0.04033000
v -0.00487200 -0.00487800 -0.02102100
v 0.00002300 -0.03157900 -0.01742800
v -0.00004600 -0.05908600 0.06070300
v -0.01009400 -0.05841400 0.05715900
v -0.02118800 -0.04026800 0.03397300
v 0.01497600 0.08774700 0.00618800
v 0.03209500 0.07141400 -0.01019700
v 0.02944900 0.05018900 -0.01851900
v -0.02806800 -0.00095400 0.02507900
v -0.01350100 0.05433100 0.05170900
v -0.00004600 0.07367000 0.04428600
v -0.00008100 -0.03712500 -0.01416800
v -0.00004600 -0.04338100 -0.00970400
v 0.01148400 -0.06840100 0.02058800
v 0.01443400 -0.06948200 0.05167800
v 0.03016600 -0.02492100 -0.04021200
v 0.02000800 -0.02924200 -0.04020600
v -0.00004600 0.00500800 -0.01966500
v 0.00478000 -0.00487800 -0.02102100
v 0.00264200 -0.02235400 -0.02174700
v -0.00983200 -0.04332100 0.05445600
v -0.01851200 -0.02344600 0.04242900
v 0.01160500 0.08676700 0.02579100
v 0.02641700 0.07582400 0.00523800
v 0.03056700 0.04880000 -0.00337100
v 0.02191100 0.04248700 -0.01653900
v -0.03010500 0.02232900 0.02103300
v -0.02231200 0.05064000 0.04353900
v -0.00004600 0.05487900 0.05452300
v 0.00831700 -0.02878000 -0.01729600
v 0.02138200 -0.03186200 -0.01448200
v 0.03236000 -0.00538600 -0.01984900
v 0.01050100 -0.00402800 -0.02087200
v 0.01000200 -0.05841400 0.05715900
v -0.00004600 -0.04393000 0.05859900
v 0.01528400 0.07261300 0.03961000
v 0.02489400 0.08171300 0.02143100
v 0.01171100 0.00546800 -0.01525300
v 0.01005200 0.02253100 -0.01398000
v -0.01942600 0.02090000 0.04490500
v 0.01340900 0.05433100 0.05170900
v -0.00004600 0.03901700 0.05424000
v -0.01494600 0.04046500 0.05144000
v 0.00647700 -0.03629400 -0.01394100
v 0.01799400 -0.04407400 0.01064100
v 0.02000100 -0.05664400 0.03591500
v 0.01371100 -0.05617000 0.01161300
v 0.02382000 0.00042400 -0.02198100
v 0.01047600 -0.00191100 -0.01437100
v -0.01262600 -0.02491600 0.05642700
v 0.02928200 0.05446500 0.02322700
v 0.02189400 0.04206100 -0.00522200
v 0.02571600 0.02230500 -0.00462200
v -0.01431700 0.00014500 0.04672300
v 0.03201800 -0.02395000 -0.01285900
v 0.02482900 0.00297900 -0.01074100
v 0.00973900 -0.04332100 0.05445600
v -0.00004600 -0.02517500 0.06012100
v -0.01315800 -0.01172300 0.05271900
v 0.01485400 0.04046500 0.05144000
v 0.02222000 0.05064000 0.04353900
v 0.03245200 -0.00373000 -0.01022200
v 0.02335600 -0.03675000 0.01070100
v 0.02751900 0.00047300 -0.00181200
v -0.00004600 -0.01080900 0.05710200
v -0.00004600 0.00071700 0.05347700
v 0.01933400 0.02090000 0.04490500
v 0.02460100 0.00661800 -0.00364400
v -0.00004600 0.02056900 0.05408900
v 0.02109600 -0.04026800 0.03397300
v 0.03075600 -0.00609000 -0.00012400
v 0.03071100 -0.02280400 0.00480000
v 0.01253400 -0.02491600 0.05642700
v 0.02797600 -0.00095400 0.02507900
v 0.03001300 0.02232900 0.02103300
v 0.02463400 -0.03181000 0.03263600
v 0.01842000 -0.02344600 0.04242900
v 0.02796900 -0.02233900 0.02721200
v 0.01306600 -0.01172300 0.05271900
v 0.01422500 0.00014500 0.04672300
vn 0.84348232 -0.15014240 0.51574686
vn -0.00000000 0.99228443 0.12398230
vn -0.79289919 -0.30723228 0.52623113
vn 0.00001439 -0.94492919 0.32727485
vn 0.00000000 -0.20137418 0.97951439
vn -0.00000000 -0.00000000 0.00000000
vn -0.00000000 -0.00000000 -0.00000000
vn 0.00000000 0.00000000 0.00000000
vn -0.00000000 0.00000000 0.00000000
vn 0.00000000 0.00000000 -0.00000000
vn -0.00000000 -0.00000000 0.00000000
vn 0.00000000 0.00000000 0.00000000
vn -0.00000000 -0.00000000 0.00000000
vn -0.00000000 -0.00000000 -0.00000000
vn 0.00000000 -0.00000000 -0.00000000
vn 0.00000000 0.00000000 0.00000000
vn -0.00000000 0.00000000 0.00000000
vn 0.00000000 -0.00000000 -0.00000000
vn 0.00000000 -0.00000000 -0.00000000
vn 0.00000000 -0.00000000 0.00000000
vn 0.00000000 0.00000000 0.00000000
vn 0.00000000 0.00000000 0.00000000
vn -0.00000000 0.00000000 0.00000000
vn 0.00000000 0.00000000 0.00000000
vn -0.00000000 0.00000000 -0.00000000
vn 0.00000000 0.00000000 -0.00000000
vn 0.00000000 -0.00000000 0.00000000
vn 0.00000000 0.00000000 -0.00000000
vn -0.00000000 0.00000000 0.00000000
vn -0.00000000 -0.00000000 -0.00000000
vn 0.00000000 0.00000000 -0.00000000
vn 0.00000000 0.00000000 0.00000000
vn 0.00000000 0.00000000 0.00000000
vn 0.00000000 0.00000000 0.00000000
vn -0.00000000 -0.00000000 0.00000000
vn 0.00000000 0.00000000 -0.00000000
vn 0.00000000 0.00000000 0.00000000
vn 0.00000000 0.00000000 0.00000000
vn 0.00000000 -0.00000000 0.00000000
vn -0.00000000 0.00000000 0.00000000
vn 0.00000000 0.00000000 0.00000000
vn 0.00000000 0.00000000 -0.00000000
vn -0.00000000 -0.00000000 0.00000000
vn -0.00000000 -0.00000000 0.00000000
vn 0.00000000 -0.00000000 0.00000000
vn 0.00000000 0.00000000 0.00000000
vn -0.00000000 0.00000000 0.00000000
vn 0.00000000 0.00000000 -0.00000000
vn 0.00000000 -0.00000000 0.00000000
vn -0.00000000 0.00000000 0.00000000
vn -0.00000000 0.00000000 0.00000000
vn -0.00000000 0.00000000 0.00000000
vn 0.00000000 -0.00000000 -0.00000000
vn 0.00000000 0.00000000 0.00000000
vn 0.00000000 -0.00000000 0.00000000
vn -0.00000000 0.00000000 -0.00000000
vn 0.00000000 -0.00000000 0.00000000
vn 0.00000000 0.00000000 -0.00000000
vn 0.00000000 -0.00000000 0.00000000
vn 0.00000000 0.00000000 -0.00000000
vn 0.00000000 0.00000000 0.00000000
vn -0.00000000 -0.00000000 0.00000000
vn -0.00000000 -0.00000000 0.00000000
vn 0.00000000 0.00000000 -0.00000000
vn 0.00000000 0.00000000 0.00000000
vn -0.00000000 0.00000000 -0.00000000
vn 0.00000000 -0.00000000 0.00000000
vn 0.00000000 0.00000000 -0.00000000
vn 0.00000000 -0.00000000 0.00000000
vn -0.00000000 0.00000000 -0.00000000
vn -0.00000000 0.00000000 0.00000000
vn 0.00000000 -0.00000000 0.00000000
vn -0.00000000 -0.00000000 -0.00000000
vn 0.00000000 0.00000000 0.00000000
vn 0.00000000 0.00000000 0.00000000
vn 0.00000000 -0.00000000 -0.00000000
vn -0.00000000 0.00000000 0.00000000
vn -0.00000000 -0.00000000 -0.00000000
vn -0.00000000 -0.00000000 0.00000000
vn 0.00000000 -0.00000000 0.00000000
vn 0.00000000 0.00000000 0.00000000
vn -0.00000000 0.00000000 -0.00000000
vn 0.00000000 0.00000000 0.00000000
vn 0.00000000 0.00000000 0.00000000
vn -0.00000000 0.00000000 0.00000000
vn 0.00000000 -0.00000000 -0.00000000
vn -0.00000000 0.00000000 -0.00000000
vn -0.00000000 0.00000000 0.00000000
vn 0.00000000 -0.00000000 0.00000000
vn 0.00000000 -0.00000000 0.00000000
vn -0.00000000 -0.00000000 0.00000000
vn 0.00000000 0.00000000 0.00000000
vn 0.00000000 0.00000000 -0.00000000
vn -0.00000000 -0.00000000 0.00000000
vn 0.00000000 -0.00000000 0.00000000
vn -0.00000000 -0.00000000 -0.00000000
vn 0.00000000 -0.00000000 0.00000000
vn -0.00000000 0.00000000 -0.00000000
vn 0.00000000 0.00000000 -0.00000000
vn -0.00000000 -0.00000000 0.00000000
vn -0.00000000 -0.00000000 0.00000000
vn 0.00000000 0.00000000 -0.00000000
vn 0.00000000 0.00000000 0.00000000
vn -0.00000000 0.00000000 0.00000000
vn -0.00000000 0.00000000 -0.00000000
vn 0.00000000 -0.00000000 -0.00000000
vn -0.00000000 0.00000000 -0.00000000
vn 0.00000000 0.00000000 0.00000000
vn 0.00000000 -0.00000000 0.00000000
vn -0.00000000 -0.00000000 -0.00000000
vn -0.00000000 -0.00000000 0.00000000
vn 0.00000000 0.00000000 -0.00000000
vn 0.00000000 0.00000000 0.00000000
vn 0.00000000 -0.00000000 0.00000000
vn 0.00000000 0.00000000 0.00000000
vn -0.00000000 0.00000000 -0.00000000
vn 0.00000000 0.00000000 0.00000000
vn -0.00000000 -0.00000000 0.00000000
vn -0.00000000 0.00000000 0.00000000
vn 0.00000000 -0.00000000 -0.00000000
vn 0.00000000 0.00000000 0.00000000
vn 0.00000000 0.00000000 -0.00000000
vn 0.00000000 0.00000000 0.00000000
vn -0.00000000 0.00000000 0.00000000
vn -0.00000000 -0.00000000 0.00000000
vn -0.00000000 -0.00000000 0.00000000
vn 0.00000000 0.00000000 -0.00000000
vn -0.00000000 -0.00000000 -0.00000000
vn 0.00000000 -0.00000000 0.00000000
vn -0.00000000 0.00000000 -0.00000000
vn -0.00000000 0.00000000 -0.00000000
vn 0.00000000 -0.00000000 0.00000000
vn 0.00000000 0.00000000 -0.00000000
vn 0.00000000 0.00000000 -0.00000000
vn -0.00000000 -0.00000000 0.00000000
vn -0.00000000 0.00000000 0.00000000
vn 0.00000000 0.00000000 -0.00000000
vn 0.00000000 0.00000000 0.00000000
vn 0.00000000 0.00000000 -0.00000000
vn -0.00000000 0.00000000 -0.00000000
vn 0.00000000 -0.00000000 -0.00000000
vn -0.00000000 -0.00000000 0.00000000
vn 0.00000000 -0.00000000 0.00000000
vn 0.00000000 0.00000000 0.00000000
vn -0.00000000 -0.00000000 -0.00000000
vn -0.00000000 -0.00000000 -0.00000000
vn 0.00000000 -0.00000000 0.00000000
vn -0.00000000 -0.00000000 0.00000000
vn 0.00000000 0.00000000 0.00000000
vn 0.00000000 -0.00000000 0.00000000
vn -0.00000000 -0.00000000 -0.00000000
vn -0.00000000 0.00000000 -0.00000000
vn 0.00000000 0.00000000 0.00000000
vn 0.00000000 0.00000000 0.00000000
vn -0.00000000 0.00000000 0.00000000
vn -0.00000000 -0.00000000 0.00000000
vn 0.00000000 0.00000000 0.00000000
vn 0.00000000 0.00000000 0.00000000
vn 0.00000000 0.00000000 -0.00000000
vn 0.00000000 0.00000000 -0.00000000
vn 0.66890033 -0.74208723 0.04334615
vn 0.79217796 -0.48846862 -0.36585857
vn 0.65671814 -0.72329488 -0.21346147
vn 0.73854608 -0.67273626 0.04444784
vn -0.73847246 -0.67281934 0.04441362
vn -0.66890130 -0.74208779 0.04332149
vn -0.79211603 -0.48873030 -0.36564312
vn -0.65674652 -0.72333062 -0.21325294
vn 0.00000000 0.00000000 -0.00000000
vn 0.00000000 0.00000000 0.00000000
vn -0.00000000 -0.00000000 0.00000000
vn -0.00000000 -0.00000000 0.00000000
vn 0.00000000 0.00000000 0.00000000
vn -0.00000000 -0.00000000 0.00000000
vn 0.00000000 0.00000000 -0.00000000
vn 0.00000000 0.00000000 0.00000000
vn 0.00000000 0.00000000 0.00000000
vn 0.00000000 0.00000000 -0.00000000
vn -0.00000000 -0.00000000 0.00000000
vn 0.00000000 0.00000000 0.00000000
vn -0.00000000 0.00000000 -0.00000000
vn 0.00000000 0.00000000 0.00000000
vn 0.00000000 -0.00000000 0.00000000
vn 0.00000000 0.00000000 0.00000000
vn 0.00000000 0.00000000 0.00000000
vn -0.00000000 -0.00000000 -0.00000000
vn 0.00000000 0.00000000 0.00000000
vn 0.00000000 0.00000000 0.00000000
vn 0.00000000 0.00000000 0.00000000
vn 0.00000000 0.00000000 0.00000000
vn 0.00000000 0.00000000 0.00000000
vn -0.00000000 -0.00000000 0.00000000
vn 0.00000000 0.00000000 0.00000000
vn 0.66988792 -0.74243021 0.00689614
vn -0.66988782 -0.74243024 0.00690295
vn 0.00000000 -0.00000000 0.00000000
vn 0.00000000 0.00000000 0.00000000
vn 0.00000000 0.00000000 -0.00000000
vn -0.00000000 -0.00000000 0.00000000
vn 0.00000000 -0.00000000 -0.00000000
vn 0.00000000 0.00000000 -0.00000000
vn 0.00000000 -0.00000000 -0.00000000
vn -0.96494674 -0.10170730 -0.24193679
vn -0.86739158 -0.31415795 -0.38592309
vn 0.00003940 -0.75432833 -0.65649735
vn -0.52806552 -0.54934189 0.64758806
vn -0.79211603 -0.48873030 -0.36564312
vn 0.00000000 0.00000000 0.00000000
vn 0.00000000 0.00000000 -0.00000000
vn 0.00000000 -0.00000000 0.00000000
vn 0.00000000 -0.00000000 -0.00000000
vn 0.00000000 -0.00000000 0.00000000
vn -0.00000000 0.00000000 0.00000000
vn 0.00000000 -0.00000000 0.00000000
vn 0.96510288 -0.10164071 -0.24134125
vn 0.86756330 -0.31416378 -0.38553214
vn -0.79944343 -0.46314018 0.38261125
vn -0.00000000 -0.00000000 0.00000000
vn 0.00002968 -0.75432833 -0.65649735
vn 0.00003288 -0.58361353 0.81203156
vn 0.00000000 0.00000000 0.00000000
vn 0.00000000 -0.00000000 -0.00000000
vn -0.00000000 -0.00000000 -0.00000000
vn 0.00000000 -0.00000000 -0.00000000
vn 0.00000000 0.00000000 0.00000000
vn 0.00000000 0.00000000 -0.00000000
vn 0.00000000 0.00000000 -0.00000000
vn 0.00000000 0.00000000 -0.00000000
vn -0.00000000 -0.00000000 0.00000000
vn 0.00000000 0.00000000 -0.00000000
vn 0.00000000 0.00000000 0.00000000
vn 0.00000000 0.00000000 0.00000000
vn -0.00000000 0.00000000 -0.00000000
vn -0.96494674 -0.10170730 -0.24193679
vn 0.87062278 -0.36577787 0.32897193
vn -0.00000000 -0.00000000 0.00000000
vn -0.00000000 0.00000000 0.00000000
vn 0.65417428 -0.49059527 0.57564945
vn -0.00000000 0.00000000 -0.00000000
vn 0.00000000 0.00000000 -0.00000000
vn -0.00000000 -0.00000000 0.00000000
vn -0.00000000 0.00000000 0.00000000
vn -0.00000000 -0.00000000 -0.00000000
vn 0.00000000 0.00000000 -0.00000000
vn 0.00000000 0.00000000 0.00000000
vn -0.00000000 -0.00000000 0.00000000
vn 0.00000000 -0.00000000 0.00000000
vn -0.00000000 -0.00000000 -0.00000000
vn 0.00000000 0.00000000 -0.00000000
vn 0.00000000 -0.00000000 0.00000000
vn 0.96510288 -0.10164071 -0.24134125
vn 0.00000000 0.00000000 0.00000000
vn -0.00000000 -0.00000000 0.00000000
vn -0.00000000 0.00000000 0.00000000
vn 0.00000000 0.00000000 0.00000000
vn -0.00000000 0.00000000 -0.00000000
vn 0.79217796 -0.48846862 -0.36585857
vn 0.00000000 0.00000000 0.00000000
vn -0.00000000 0.00000000 0.00000000
vn 0.00000000 0.00000000 -0.00000000
vn -0.00000000 -0.00000000 0.00000000
vn -0.00000000 0.00000000 -0.00000000
vn -0.00000000 -0.00000000 -0.00000000
vn -0.00000000 0.00000000 0.00000000
vn 0.00000000 0.00000000 -0.00000000
vn -0.00000000 0.00000000 0.00000000
vn -0.00000000 -0.00000000 -0.00000000
vn 0.00000000 -0.00000000 -0.00000000
vn 0.00000000 -0.00000000 0.00000000
vn 0.00000000 0.00000000 -0.00000000
vn -0.00000000 0.00000000 0.00000000
vn -0.00000000 0.00000000 0.00000000
vn -0.00000000 -0.00000000 0.00000000
vn -0.00000000 0.00000000 -0.00000000
vn -0.00000000 0.00000000 -0.00000000
vn -0.00000000 -0.00000000 0.00000000
vn -0.00000000 -0.00000000 0.00000000
vn -0.00000000 -0.00000000 -0.00000000
vn -0.00000000 -0.00000000 0.00000000
vn -0.00000000 0.00000000 0.00000000
vn 0.00000000 0.00000000 0.00000000
vn 0.00000000 -0.00000000 0.00000000
vn -0.00000000 0.00000000 -0.00000000
vn 0.00000000 -0.00000000 0.00000000
vn 0.00000000 -0.00000000 0.00000000
vn 0.00000000 -0.00000000 -0.00000000
vn 0.00000000 0.00000000 0.00000000
vn -0.00000000 -0.00000000 0.00000000
vn 0.00000000 -0.00000000 0.00000000
vn 0.00000000 -0.00000000 -0.00000000
vn -0.00000000 -0.00000000 -0.00000000
vn -0.00000000 0.00000000 -0.00000000
vn 0.00000000 0.00000000 -0.00000000
vn 0.00000000 -0.00000000 0.00000000
vn 0.00000000 0.00000000 0.00000000
vn 0.00000000 0.00000000 0.00000000
vn -0.00000000 -0.00000000 0.00000000
vn 0.00000000 0.00000000 0.00000000
vn -0.00000000 -0.00000000 0.00000000
vn -0.57136971 -0.48849974 0.65947302
vn -0.00000000 -0.00000000 0.00000000
vn -0.57592912 -0.47034532 0.66864111
vn 0.00000000 -0.00000000 0.00000000
vn -0.00000000 -0.00000000 -0.00000000
vn 0.00000000 -0.00000000 0.00000000
vn 0.00000000 0.00000000 -0.00000000
vn -0.00000000 -0.00000000 -0.00000000
vn 0.00000000 -0.00000000 0.00000000
vn 0.00000000 0.00000000 -0.00000000
vn 0.00000000 0.00000000 0.00000000
vn 0.00000000 0.00000000 -0.00000000
vn -0.00000000 0.00000000 -0.00000000
vn 0.00000000 -0.00000000 0.00000000
vn -0.00000000 0.00000000 -0.00000000
vn 0.00000000 0.00000000 0.00000000
vn 0.00000000 -0.00000000 0.00000000
vn 0.00000000 -0.00000000 0.00000000
vn -0.00000000 0.00000000 -0.00000000
vn -0.57421432 -0.47731499 0.66516788
vn 0.00000000 0.00000000 0.00000000
vn -0.00000000 -0.00000000 -0.00000000
vn -0.00000000 -0.00000000 0.00000000
vn 0.00000000 -0.00000000 0.00000000
vn 0.00000000 0.00000000 -0.00000000
vn 0.00000000 -0.00000000 0.00000000
vn -0.00000000 0.00000000 0.00000000
vn 0.00000000 0.00000000 0.00000000
vn 0.00000000 0.00000000 0.00000000
vn -0.00000000 0.00000000 -0.00000000
vn 0.00000000 0.00000000 0.00000000
vn 0.00000000 -0.00000000 -0.00000000
vn 0.00000000 0.00000000 0.00000000
vn -0.00000000 0.00000000 0.00000000
vn 0.00000000 -0.00000000 0.00000000
vn 0.00000000 0.00000000 -0.00000000
vn -0.00000000 0.00000000 0.00000000
vn -0.00000000 -0.00000000 0.00000000
vn 0.00000000 -0.00000000 -0.00000000
vn 0.00000000 0.00000000 0.00000000
vn 0.00000000 -0.00000000 0.00000000
vn -0.00000000 -0.00000000 0.00000000
vn -0.00000000 -0.00000000 0.00000000
vn 0.00000000 -0.00000000 0.00000000
vn 0.57136971 -0.48849974 0.65947302
vn -0.00000000 0.00000000 0.00000000
vn -0.00000000 -0.00000000 -0.00000000
vn 0.00000000 0.00000000 -0.00000000
vn 0.00000000 -0.00000000 -0.00000000
vn -0.00000000 -0.00000000 0.00000000
vn 0.00000000 0.00000000 0.00000000
vn 0.00000000 -0.00000000 -0.00000000
vn -0.00000000 -0.00000000 -0.00000000
vn -0.00000000 -0.00000000 -0.00000000
vn -0.00000000 0.00000000 -0.00000000
vn 0.00000000 0.00000000 0.00000000
vn 0.00000000 -0.00000000 -0.00000000
vn 0.00000000 -0.00000000 0.00000000
vn -0.00000000 0.00000000 0.00000000
vn 0.00000000 -0.00000000 -0.00000000
vn -0.00000000 -0.00000000 -0.00000000
vn -0.00000000 0.00000000 0.00000000
vn 0.57421432 -0.47731499 0.66516788
vn 0.00000000 -0.00000000 -0.00000000
vn 0.57592912 -0.47034532 0.66864111
vn -0.00000000 -0.00000000 -0.00000000
vn -0.00000000 0.00000000 -0.00000000
vn 0.00000000 -0.00000000 0.00000000
vn -0.00000000 0.00000000 -0.00000000
vn -0.00000000 0.00000000 0.00000000
vn -0.57883210 -0.45811861 0.67459672
vn 0.00000000 -0.00000000 -0.00000000
vn -0.00000000 0.00000000 -0.00000000
vn -0.00000000 0.00000000 -0.00000000
vn -0.00000000 0.00000000 0.00000000
vn 0.00000000 0.00000000 -0.00000000
vn 0.00000000 0.00000000 0.00000000
vn -0.00000000 0.00000000 0.00000000
vn 0.00000000 -0.00000000 0.00000000
vn 0.00000000 -0.00000000 -0.00000000
vn 0.00000000 -0.00000000 -0.00000000
vn 0.00000000 -0.00000000 0.00000000
vn 0.00000000 0.00000000 0.00000000
vn -0.00000000 -0.00000000 -0.00000000
vn -0.00000000 -0.00000000 -0.00000000
vn 0.00000000 0.00000000 0.00000000
vn -0.00000000 0.00000000 -0.00000000
vn -0.00000000 -0.00000000 -0.00000000
vn 0.00000000 0.00000000 -0.00000000
vn -0.00000000 0.00000000 0.00000000
vn -0.00000000 0.00000000 0.00000000
vn 0.00000000 0.00000000 -0.00000000
vn -0.00000000 0.00000000 -0.00000000
vn 0.00000000 0.00000000 0.00000000
vn -0.00000000 0.00000000 0.00000000
vn -0.00000000 0.00000000 0.00000000
vn 0.00000000 0.00000000 0.00000000
vn 0.00000000 -0.00000000 -0.00000000
vn 0.00000000 0.00000000 -0.00000000
vn -0.00000000 0.00000000 0.00000000
vn 0.00000000 -0.00000000 0.00000000
vn -0.00000000 -0.00000000 0.00000000
vn 0.00000000 0.00000000 0.00000000
vn -0.00000000 -0.00000000 0.00000000
vn 0.00000000 -0.00000000 0.00000000
vn 0.00000000 0.00000000 0.00000000
vn -0.00000000 -0.00000000 0.00000000
vn 0.00000000 0.00000000 -0.00000000
vn 0.00000000 -0.00000000 0.00000000
vn 0.00000000 -0.00000000 -0.00000000
vn -0.00000000 0.00000000 0.00000000
vn 0.00000000 -0.00000000 0.00000000
vn 0.00000000 0.00000000 0.00000000
vn 0.00000000 0.00000000 0.00000000
vn -0.00000000 -0.00000000 0.00000000
vn 0.00000000 -0.00000000 -0.00000000
vn -0.00000000 0.00000000 -0.00000000
vn -0.00000000 0.00000000 -0.00000000
vn 0.00000000 -0.00000000 0.00000000
vn -0.00000000 0.00000000 0.00000000
vn 0.00000000 0.00000000 -0.00000000
vn -0.00000000 0.00000000 0.00000000
vn -0.00000000 -0.00000000 -0.00000000
vn 0.00000000 0.00000000 0.00000000
vn 0.00000000 0.00000000 0.00000000
vn 0.00000000 -0.00000000 0.00000000
vn 0.00000000 0.00000000 0.00000000
vn 0.00000000 -0.00000000 -0.00000000
vn 0.00000000 -0.00000000 0.00000000
vn 0.00000000 0.00000000 -0.00000000
vn -0.00000000 -0.00000000 0.00000000
vn -0.00000000 -0.00000000 -0.00000000
vn -0.00000000 -0.00000000 0.00000000
vn -0.00000000 -0.00000000 -0.00000000
vn 0.00000000 -0.00000000 0.00000000
vn 0.00000000 0.00000000 0.00000000
vn -0.00000000 -0.00000000 -0.00000000
vn -0.00000000 -0.00000000 -0.00000000
vn 0.57883210 -0.45811861 0.67459672
vn 0.00000000 0.00000000 0.00000000
vn 0.00000000 -0.00000000 -0.00000000
vn -0.00000000 -0.00000000 -0.00000000
vn 0.00000000 -0.00000000 -0.00000000
vn -0.00000000 -0.00000000 0.00000000
vn -0.00000000 -0.00000000 -0.00000000
vn -0.00000000 0.00000000 0.00000000
vn 0.00000000 -0.00000000 -0.00000000
vn 0.00000000 0.00000000 0.00000000
vn 0.00000000 0.00000000 -0.00000000
vn 0.00000000 0.00000000 0.00000000
vn -0.00000000 0.00000000 0.00000000
vn -0.00000000 0.00000000 0.00000000
vn -0.00000000 0.00000000 0.00000000
vn 0.00000000 0.00000000 -0.00000000
vn 0.00000000 0.00000000 0.00000000
vn 0.00000000 0.00000000 0.00000000
vn -0.00000000 0.00000000 0.00000000
vn -0.00000000 0.00000000 -0.00000000
vn -0.00000000 0.00000000 -0.00000000
vn 0.00000000 0.00000000 0.00000000
vn 0.00000000 -0.00000000 0.00000000
vn 0.00000000 -0.00000000 -0.00000000
vn 0.00000000 -0.00000000 0.00000000
vn 0.00000000 0.00000000 0.00000000
vn -0.00000000 0.00000000 0.00000000
vn -0.00000000 0.00000000 -0.00000000
vn 0.00000000 0.00000000 -0.00000000
vn 0.00000000 0.00000000 -0.00000000
vn 0.00000000 -0.00000000 0.00000000
vn 0.00000000 -0.00000000 0.00000000
vn -0.00000000 0.00000000 -0.00000000
vn 0.00000000 0.00000000 0.00000000
vn 0.00000000 -0.00000000 -0.00000000
vn 0.00000000 0.00000000 0.00000000
vn 0.00000000 0.00000000 -0.00000000
vn 0.00000000 -0.00000000 0.00000000
vn 0.00000000 0.00000000 0.00000000
vn -0.00000000 0.00000000 0.00000000
vn 0.00000000 0.00000000 0.00000000
vn -0.00000000 0.00000000 -0.00000000
vn -0.00000000 0.00000000 0.00000000
vn -0.00000000 -0.00000000 0.00000000
vn 0.00000000 -0.00000000 0.00000000
vn 0.00000000 -0.00000000 0.00000000
vn 0.00000000 0.00000000 -0.00000000
vn 0.00000000 -0.00000000 0.00000000
vn -0.00000000 0.00000000 -0.00000000
vn 0.00000000 0.00000000 -0.00000000
vn 0.00000000 0.00000000 0.00000000
vn -0.00000000 -0.00000000 -0.00000000
vn -0.00000000 -0.00000000 0.00000000
vn -0.00000000 -0.00000000 0.00000000
vn 0.00000000 0.00000000 0.00000000
vn -0.00000000 -0.00000000 0.00000000
vn 0.00000000 0.00000000 0.00000000
vn -0.00000000 -0.00000000 0.00000000
vn 0.00000000 0.00000000 -0.00000000
vn 0.00000000 0.00000000 0.00000000
vn -0.00000000 -0.00000000 0.00000000
vn 0.00000000 -0.00000000 0.00000000
vn -0.00000000 0.00000000 -0.00000000
vn -0.00000000 -0.00000000 0.00000000
vn -0.00000000 0.00000000 0.00000000
vn -0.00000000 -0.00000000 -0.00000000
vn -0.00000000 0.00000000 -0.00000000
vn -0.00000000 0.00000000 -0.00000000
vn -0.00000000 -0.00000000 0.00000000
vn -0.00000000 0.00000000 0.00000000
vn 0.00000000 -0.00000000 -0.00000000
vn 0.00000000 -0.00000000 -0.00000000
vn 0.00000000 0.00000000 -0.00000000
vn -0.00000000 0.00000000 -0.00000000
vn 0.00000000 0.00000000 0.00000000
vn 0.00000000 0.00000000 -0.00000000
vn -0.00000000 0.00000000 -0.00000000
vn 0.00000000 -0.00000000 -0.00000000
vn 0.00000000 0.00000000 -0.00000000
vn 0.00000000 0.00000000 0.00000000
vn 0.00000000 -0.00000000 0.00000000
vn 0.00000000 0.00000000 0.00000000
vn 0.00000000 -0.00000000 -0.00000000
vn 0.00000000 -0.00000000 0.00000000
vn -0.00000000 -0.00000000 -0.00000000
f 1//1 2//2 3//3
f 4//4 3//3 1//1
f 1//1 3//3 5//5
f 6//6 7//7 8//8
f 8//8 7//7 6//6
f 6//6 9//9 7//7
f 7//7 9//9 6//6
f 10//10 9//9 11//11
f 11//11 9//9 10//10
f 7//7 12//12 8//8
f 8//8 12//12 7//7
f 9//9 10//10 7//7
f 7//7 10//10 9//9
f 7//7 13//13 12//12
f 12//12 13//13 7//7
f 12//12 13//13 14//14
f 14//14 13//13 12//12
f 7//7 10//10 13//13
f 13//13 10//10 7//7
f 10//10 14//14 13//13
f 13//13 14//14 10//10
f 15//15 16//16 17//17
f 17//17 16//16 15//15
f 18//18 15//15 19//19
f 19//19 15//15 18//18
f 19//19 15//15 17//17
f 17//17 15//15 19//19
f 20//20 21//21 22//22
f 22//22 21//21 20//20
f 20//20 22//22 23//23
f 23//23 22//22 20//20
f 22//22 24//24 23//23
f 23//23 24//24 22//22
f 25//25 26//26 27//27
f 27//27 26//26 25//25
f 26//26 28//28 29//29
f 29//29 28//28 26//26
f 26//26 29//29 27//27
f 27//27 29//29 26//26
f 30//30 31//31 32//32
f 32//32 31//31 30//30
f 30//30 32//32 33//33
f 33//33 32//32 30//30
f 34//34 30//30 33//33
f 33//33 30//30 34//34
f 35//35 36//36 37//37
f 37//37 36//36 35//35
f 35//35 37//37 38//38
f 38//38 37//37 35//35
f 39//39 35//35 38//38
f 38//38 35//35 39//39
f 40//40 41//41 42//42
f 42//42 41//41 40//40
f 43//43 40//40 44//44
f 44//44 40//40 43//43
f 44//44 40//40 42//42
f 42//42 40//40 44//44
f 45//45 46//46 47//47
f 47//47 46//46 45//45
f 48//48 47//47 49//49
f 49//49 47//47 48//48
f 50//50 45//45 48//48
f 48//48 45//45 50//50
f 48//48 45//45 47//47
f 47//47 45//45 48//48
f 28//28 51//51 52//52
f 52//52 51//51 28//28
f 52//52 51//51 53//53
f 53//53 51//51 52//52
f 51//51 54//54 53//53
f 53//53 54//54 51//51
f 55//55 56//56 57//57
f 57//57 56//56 55//55
f 56//56 58//58 59//59
f 59//59 58//58 56//56
f 56//56 59//59 57//57
f 57//57 59//59 56//56
f 60//60 61//61 62//62
f 62//62 61//61 60//60
f 63//63 60//60 62//62
f 62//62 60//60 63//63
f 64//64 60//60 63//63
f 63//63 60//60 64//64
f 65//65 66//66 67//67
f 67//67 66//66 65//65
f 66//66 68//68 69//69
f 69//69 68//68 66//66
f 66//66 69//69 67//67
f 67//67 69//69 66//66
f 70//70 71//71 49//49
f 49//49 71//71 70//70
f 71//71 50//50 72//72
f 72//72 50//50 71//71
f 71//71 72//72 49//49
f 49//49 72//72 71//71
f 73//73 74//74 75//75
f 75//75 74//74 73//73
f 75//75 74//74 76//76
f 76//76 74//74 75//75
f 77//77 75//75 76//76
f 76//76 75//75 77//77
f 78//78 79//79 80//80
f 80//80 79//79 78//78
f 78//78 80//80 81//81
f 81//81 80//80 78//78
f 82//82 78//78 81//81
f 81//81 78//78 82//82
f 83//83 84//84 85//85
f 85//85 84//84 83//83
f 86//86 83//83 85//85
f 85//85 83//83 86//86
f 58//58 83//83 86//86
f 86//86 83//83 58//58
f 87//87 88//88 89//89
f 89//89 88//88 87//87
f 88//88 90//90 89//89
f 89//89 90//90 88//88
f 88//88 43//43 90//90
f 90//90 43//43 88//88
f 91//91 92//92 93//93
f 93//93 92//92 91//91
f 31//31 91//91 94//94
f 94//94 91//91 31//31
f 94//94 91//91 93//93
f 93//93 91//91 94//94
f 93//93 33//33 94//94
f 94//94 33//33 93//93
f 95//95 96//96 97//97
f 97//97 96//96 95//95
f 96//96 98//98 97//97
f 97//97 98//98 96//96
f 96//96 99//99 98//98
f 98//98 99//99 96//96
f 14//14 11//11 8//8
f 8//8 11//11 14//14
f 100//100 101//101 102//102
f 102//102 101//101 100//100
f 103//103 101//101 77//77
f 77//77 101//101 103//103
f 101//101 103//103 102//102
f 102//102 103//103 101//101
f 104//104 105//105 106//106
f 106//106 105//105 104//104
f 107//107 108//108 109//109
f 109//109 108//108 107//107
f 105//105 104//104 110//110
f 110//110 104//104 105//105
f 110//110 107//107 109//109
f 109//109 107//107 110//110
f 111//111 104//104 106//106
f 106//106 104//104 111//111
f 107//107 112//112 108//108
f 108//108 112//112 107//107
f 104//104 107//107 110//110
f 110//110 107//107 104//104
f 112//112 104//104 111//111
f 111//111 104//104 112//112
f 104//104 112//112 107//107
f 107//107 112//112 104//104
f 113//113 114//114 115//115
f 115//115 114//114 113//113
f 115//115 114//114 116//116
f 116//116 114//114 115//115
f 114//114 117//117 116//116
f 116//116 117//117 114//114
f 118//118 113//113 119//119
f 119//119 113//113 118//118
f 120//120 118//118 119//119
f 119//119 118//118 120//120
f 120//120 121//121 118//118
f 118//118 121//121 120//120
f 122//122 123//123 124//124
f 124//124 123//123 122//122
f 125//125 122//122 126//126
f 126//126 122//122 125//125
f 126//126 122//122 124//124
f 124//124 122//122 126//126
f 126//126 124//124 127//127
f 127//127 124//124 126//126
f 128//128 125//125 129//129
f 129//129 125//125 128//128
f 126//126 127//127 129//129
f 129//129 127//127 126//126
f 128//128 129//129 127//127
f 127//127 129//129 128//128
f 130//130 128//128 127//127
f 127//127 128//128 130//130
f 131//131 132//132 133//133
f 133//133 132//132 131//131
f 132//132 134//134 135//135
f 135//135 134//134 132//132
f 132//132 135//135 133//133
f 133//133 135//135 132//132
f 135//135 136//136 133//133
f 133//133 136//136 135//135
f 137//137 138//138 136//136
f 136//136 138//138 137//137
f 139//139 136//136 135//135
f 135//135 136//136 139//139
f 139//139 137//137 136//136
f 136//136 137//137 139//139
f 134//134 137//137 139//139
f 139//139 137//137 134//134
f 140//140 18//18 141//141
f 141//141 18//18 140//140
f 141//141 17//17 142//142
f 142//142 17//17 141//141
f 140//140 141//141 142//142
f 142//142 141//141 140//140
f 143//143 140//140 142//142
f 142//142 140//140 143//143
f 144//144 145//145 146//146
f 146//146 145//145 144//144
f 145//145 147//147 146//146
f 146//146 147//147 145//145
f 145//145 148//148 147//147
f 147//147 148//148 145//145
f 149//149 150//150 151//151
f 151//151 150//150 149//149
f 62//62 151//151 152//152
f 152//152 151//151 62//62
f 150//150 152//152 151//151
f 151//151 152//152 150//150
f 150//150 64//64 152//152
f 152//152 64//64 150//150
f 153//153 154//154 155//155
f 155//155 154//154 153//153
f 156//156 153//153 155//155
f 155//155 153//153 156//156
f 99//99 153//153 156//156
f 156//156 153//153 99//99
f 157//157 158//158 159//159
f 159//159 158//158 157//157
f 79//79 157//157 160//160
f 160//160 157//157 79//79
f 160//160 157//157 159//159
f 159//159 157//157 160//160
f 161//161 162//162 163//163
f 164//164 162//162 161//161
f 3//3 2//2 5//5
f 1//1 5//5 2//2
f 4//4 3//3 5//5
f 4//4 5//5 1//1
f 165//165 166//166 167//167
f 166//166 168//168 167//167
f 169//169 170//170 171//171
f 171//171 170//170 169//169
f 172//172 169//169 171//171
f 171//171 169//169 172//172
f 68//68 169//169 172//172
f 172//172 169//169 68//68
f 173//173 174//174 175//175
f 175//175 174//174 173//173
f 174//174 176//176 175//175
f 175//175 176//176 174//174
f 148//148 177//177 178//178
f 178//178 177//177 148//148
f 178//178 177//177 179//179
f 179//179 177//177 178//178
f 177//177 180//180 179//179
f 179//179 180//180 177//177
f 181//181 182//182 183//183
f 183//183 182//182 181//181
f 184//184 181//181 183//183
f 183//183 181//181 184//184
f 185//185 186//186 187//187
f 187//187 186//186 185//185
f 188//188 189//189 186//186
f 186//186 189//189 188//188
f 186//186 189//189 187//187
f 187//187 189//189 186//186
f 190//190 191//191 192//192
f 192//192 191//191 190//190
f 193//193 190//190 192//192
f 192//192 190//190 193//193
f 36//36 190//190 193//193
f 193//193 190//190 36//36
f 194//194 161//161 163//163
f 164//164 161//161 194//194
f 195//195 168//168 166//166
f 165//165 195//195 166//166
f 196//196 197//197 198//198
f 199//199 197//197 196//196
f 200//200 201//201 202//202
f 203//203 204//204 205//205
f 206//206 207//207 208//208
f 200//200 202//202 209//209
f 210//210 201//201 211//211
f 211//211 201//201 200//200
f 202//202 201//201 212//212
f 212//212 201//201 210//210
f 202//202 213//213 209//209
f 214//214 203//203 205//205
f 215//215 205//205 216//216
f 2//2 217//217 3//3
f 206//206 217//217 218//218
f 219//219 204//204 217//217
f 206//206 208//208 220//220
f 208//208 207//207 221//221
f 207//207 206//206 218//218
f 221//221 207//207 165//165
f 222//222 200//200 209//209
f 223//223 200//200 222//222
f 210//210 211//211 224//224
f 211//211 200//200 225//225
f 213//213 202//202 212//212
f 212//212 210//210 224//224
f 213//213 226//226 209//209
f 227//227 228//228 229//229
f 230//230 228//228 227//227
f 231//231 228//228 230//230
f 232//232 230//230 233//233
f 234//234 203//203 214//214
f 214//214 205//205 215//215
f 2//2 219//219 217//217
f 2//2 1//1 235//235
f 217//217 204//204 218//218
f 236//236 196//196 237//237
f 220//220 208//208 238//238
f 208//208 221//221 239//239
f 207//207 218//218 167//167
f 165//165 240//240 221//221
f 222//222 209//209 241//241
f 223//223 222//222 242//242
f 243//243 200//200 223//223
f 211//211 244//244 224//224
f 244//244 211//211 225//225
f 225//225 200//200 243//243
f 209//209 226//226 241//241
f 213//213 212//212 224//224
f 226//226 213//213 245//245
f 227//227 229//229 246//246
f 231//231 229//229 228//228
f 233//233 230//230 247//247
f 230//230 227//227 248//248
f 231//231 230//230 249//249
f 249//249 230//230 232//232
f 233//233 247//247 232//232
f 198//198 250//250 197//197
f 250//250 234//234 214//214
f 214//214 215//215 251//251
f 219//219 2//2 235//235
f 218//218 204//204 252//252
f 204//204 234//234 252//252
f 198//198 234//234 250//250
f 236//236 253//253 196//196
f 237//237 254//254 236//236
f 255//255 254//254 237//237
f 237//237 196//196 256//256
f 238//238 208//208 257//257
f 208//208 239//239 258//258
f 221//221 240//240 239//239
f 167//167 218//218 168//168
f 165//165 195//195 240//240
f 222//222 241//241 242//242
f 223//223 242//242 243//243
f 224//224 244//244 259//259
f 244//244 225//225 259//259
f 225//225 243//243 260//260
f 261//261 262//262 263//263
f 241//241 226//226 245//245
f 264//264 213//213 224//224
f 245//245 213//213 264//264
f 265//265 227//227 246//246
f 246//246 229//229 266//266
f 229//229 231//231 266//266
f 247//247 230//230 248//248
f 227//227 265//265 248//248
f 267//267 231//231 249//249
f 232//232 268//268 249//249
f 232//232 247//247 268//268
f 197//197 250//250 199//199
f 250//250 214//214 251//251
f 216//216 219//219 235//235
f 235//235 238//238 269//269
f 218//218 252//252 270//270
f 252//252 234//234 198//198
f 253//253 198//198 196//196
f 253//253 236//236 271//271
f 272//272 255//255 237//237
f 272//272 237//237 256//256
f 236//236 254//254 271//271
f 273//273 254//254 255//255
f 256//256 196//196 274//274
f 238//238 257//257 269//269
f 257//257 275//275 164//164
f 257//257 208//208 275//275
f 276//276 208//208 258//258
f 239//239 277//277 258//258
f 240//240 278//278 239//239
f 195//195 168//168 279//279
f 218//218 270//270 168//168
f 240//240 195//195 279//279
f 263//263 262//262 280//280
f 281//281 261//261 263//263
f 241//241 282//282 242//242
f 243//243 242//242 260//260
f 224//224 259//259 283//283
f 225//225 260//260 259//259
f 284//284 262//262 261//261
f 280//280 262//262 285//285
f 241//241 245//245 282//282
f 286//286 264//264 224//224
f 245//245 264//264 286//286
f 265//265 246//246 266//266
f 231//231 287//287 266//266
f 248//248 288//288 247//247
f 265//265 289//289 248//248
f 267//267 249//249 290//290
f 231//231 267//267 287//287
f 249//249 268//268 290//290
f 247//247 288//288 268//268
f 250//250 251//251 199//199
f 216//216 235//235 269//269
f 251//251 216//216 291//291
f 270//270 252//252 292//292
f 252//252 198//198 292//292
f 198//198 253//253 271//271
f 273//273 255//255 272//272
f 272//272 256//256 293//293
f 271//271 254//254 273//273
f 256//256 274//274 293//293
f 274//274 196//196 199//199
f 269//269 257//257 162//162
f 294//294 164//164 275//275
f 275//275 208//208 276//276
f 258//258 295//295 276//276
f 277//277 296//296 258//258
f 239//239 278//278 277//277
f 278//278 297//297 298//298
f 298//298 299//299 300//300
f 240//240 297//297 278//278
f 168//168 270//270 279//279
f 240//240 279//279 301//301
f 299//299 302//302 300//300
f 298//298 297//297 299//299
f 263//263 303//303 281//281
f 263//263 280//280 303//303
f 261//261 281//281 304//304
f 242//242 282//282 260//260
f 305//305 224//224 283//283
f 259//259 260//260 283//283
f 262//262 306//306 285//285
f 262//262 307//307 306//306
f 308//308 307//307 262//262
f 309//309 284//284 261//261
f 284//284 308//308 262//262
f 285//285 310//310 280//280
f 282//282 245//245 311//311
f 286//286 224//224 305//305
f 312//312 245//245 286//286
f 313//313 265//265 266//266
f 266//266 287//287 314//314
f 248//248 289//289 288//288
f 289//289 265//265 313//313
f 267//267 290//290 287//287
f 268//268 288//288 290//290
f 251//251 291//291 199//199
f 216//216 269//269 291//291
f 292//292 315//315 270//270
f 198//198 271//271 292//292
f 273//273 272//272 293//293
f 316//316 271//271 273//273
f 274//274 199//199 293//293
f 269//269 162//162 163//163
f 194//194 164//164 294//294
f 294//294 275//275 276//276
f 276//276 295//295 317//317
f 258//258 296//296 295//295
f 277//277 318//318 296//296
f 278//278 298//298 277//277
f 300//300 319//319 298//298
f 240//240 301//301 297//297
f 279//279 270//270 301//301
f 299//299 320//320 302//302
f 299//299 297//297 321//321
f 281//281 303//303 304//304
f 280//280 310//310 303//303
f 309//309 261//261 304//304
f 282//282 311//311 260//260
f 305//305 283//283 322//322
f 260//260 323//323 283//283
f 306//306 324//324 285//285
f 306//306 307//307 325//325
f 325//325 307//307 308//308
f 284//284 309//309 326//326
f 308//308 284//284 327//327
f 285//285 328//328 310//310
f 245//245 312//312 311//311
f 329//329 286//286 305//305
f 312//312 286//286 329//329
f 313//313 266//266 314//314
f 287//287 330//330 314//314
f 330//330 287//287 331//331
f 305//305 322//322 332//332
f 288//288 289//289 333//333
f 289//289 313//313 334//334
f 287//287 290//290 331//331
f 288//288 333//333 290//290
f 199//199 291//291 335//335
f 291//291 269//269 336//336
f 270//270 315//315 337//337
f 292//292 338//338 315//315
f 292//292 271//271 338//338
f 339//339 271//271 316//316
f 316//316 273//273 293//293
f 293//293 199//199 335//335
f 163//163 194//194 340//340
f 336//336 269//269 163//163
f 194//194 294//294 340//340
f 276//276 317//317 294//294
f 317//317 341//341 342//342
f 343//343 341//341 344//344
f 345//345 346//346 347//347
f 347//347 346//346 348//348
f 295//295 341//341 317//317
f 296//296 318//318 295//295
f 277//277 298//298 318//318
f 298//298 319//319 349//349
f 297//297 301//301 321//321
f 270//270 350//350 301//301
f 350//350 270//270 337//337
f 302//302 320//320 351//351
f 321//321 320//320 299//299
f 303//303 310//310 304//304
f 309//309 304//304 326//326
f 260//260 311//311 323//323
f 283//283 323//323 322//322
f 285//285 324//324 328//328
f 324//324 306//306 325//325
f 325//325 308//308 327//327
f 327//327 284//284 326//326
f 310//310 328//328 352//352
f 311//311 312//312 353//353
f 354//354 329//329 305//305
f 312//312 329//329 355//355
f 356//356 313//313 314//314
f 314//314 330//330 357//357
f 330//330 331//331 357//357
f 332//332 354//354 305//305
f 332//332 322//322 358//358
f 333//333 289//289 334//334
f 334//334 313//313 359//359
f 290//290 333//333 331//331
f 359//359 313//313 356//356
f 291//291 336//336 335//335
f 337//337 315//315 360//360
f 315//315 338//338 360//360
f 338//338 271//271 339//339
f 339//339 316//316 293//293
f 293//293 335//335 361//361
f 341//341 362//362 344//344
f 336//336 163//163 340//340
f 340//340 294//294 363//363
f 317//317 342//342 294//294
f 342//342 341//341 343//343
f 364//364 343//343 344//344
f 365//365 347//347 366//366
f 348//348 346//346 345//345
f 367//367 345//345 347//347
f 347//347 348//348 368//368
f 295//295 318//318 341//341
f 298//298 349//349 318//318
f 349//349 319//319 369//369
f 370//370 302//302 351//351
f 319//319 370//370 369//369
f 301//301 350//350 321//321
f 350//350 337//337 371//371
f 320//320 321//321 351//351
f 372//372 322//322 373//373
f 322//322 374//374 375//375
f 372//372 373//373 376//376
f 310//310 377//377 304//304
f 326//326 304//304 378//378
f 311//311 353//353 323//323
f 323//323 374//374 322//322
f 328//328 324//324 352//352
f 379//379 324//324 325//325
f 379//379 325//325 327//327
f 327//327 326//326 378//378
f 310//310 352//352 377//377
f 353//353 312//312 355//355
f 355//355 329//329 354//354
f 356//356 314//314 380//380
f 314//314 357//357 380//380
f 331//331 381//381 357//357
f 354//354 332//332 358//358
f 358//358 322//322 372//372
f 333//333 334//334 359//359
f 333//333 382//382 331//331
f 359//359 356//356 383//383
f 361//361 335//335 384//384
f 384//384 335//335 336//336
f 337//337 360//360 371//371
f 360//360 338//338 339//339
f 339//339 293//293 361//361
f 341//341 385//385 362//362
f 336//336 340//340 363//363
f 363//363 294//294 342//342
f 342//342 343//343 386//386
f 387//387 343//343 364//364
f 366//366 347//347 368//368
f 347//347 365//365 388//388
f 365//365 366//366 389//389
f 367//367 347//347 388//388
f 348//348 345//345 390//390
f 390//390 345//345 367//367
f 348//348 391//391 368//368
f 331//331 382//382 381//381
f 318//318 385//385 341//341
f 349//349 369//369 318//318
f 351//351 369//369 370//370
f 321//321 350//350 371//371
f 351//351 321//321 392//392
f 376//376 373//373 393//393
f 322//322 375//375 373//373
f 374//374 394//394 375//375
f 372//372 376//376 395//395
f 396//396 378//378 394//394
f 377//377 397//397 304//304
f 304//304 398//398 378//378
f 323//323 353//353 374//374
f 352//352 324//324 379//379
f 399//399 379//379 327//327
f 396//396 327//327 378//378
f 374//374 396//396 394//394
f 377//377 352//352 397//397
f 400//400 401//401 353//353
f 353//353 355//355 402//402
f 402//402 355//355 354//354
f 403//403 356//356 380//380
f 383//383 356//356 404//404
f 380//380 357//357 403//403
f 357//357 381//381 405//405
f 406//406 354//354 358//358
f 407//407 358//358 372//372
f 407//407 372//372 395//395
f 382//382 333//333 359//359
f 383//383 408//408 359//359
f 361//361 384//384 409//409
f 384//384 336//336 410//410
f 411//411 412//412 413//413
f 371//371 360//360 412//412
f 339//339 414//414 360//360
f 339//339 361//361 409//409
f 385//385 415//415 362//362
f 416//416 336//336 363//363
f 363//363 342//342 386//386
f 336//336 416//416 410//410
f 387//387 386//386 343//343
f 387//387 364//364 417//417
f 389//389 366//366 418//418
f 366//366 368//368 419//419
f 388//388 365//365 389//389
f 420//420 367//367 388//388
f 391//391 348//348 390//390
f 390//390 367//367 421//421
f 368//368 391//391 422//422
f 423//423 405//405 381//381
f 381//381 382//382 424//424
f 318//318 415//415 385//385
f 369//369 425//425 318//318
f 351//351 392//392 369//369
f 371//371 412//412 411//411
f 392//392 321//321 371//371
f 376//376 393//393 426//426
f 373//373 427//427 393//393
f 375//375 394//394 373//373
f 395//395 376//376 426//426
f 378//378 398//398 394//394
f 304//304 397//397 398//398
f 374//374 353//353 428//428
f 353//353 401//401 429//429
f 352//352 379//379 399//399
f 399//399 327//327 396//396
f 430//430 396//396 374//374
f 352//352 431//431 397//397
f 400//400 423//423 401//401
f 432//432 405//405 423//423
f 402//402 400//400 353//353
f 402//402 354//354 406//406
f 408//408 383//383 433//433
f 383//383 404//404 434//434
f 404//404 356//356 403//403
f 405//405 403//403 357//357
f 406//406 358//358 407//407
f 407//407 395//395 435//435
f 382//382 359//359 436//436
f 411//411 413//413 408//408
f 436//436 359//359 408//408
f 384//384 410//410 409//409
f 413//413 412//412 437//437
f 412//412 360//360 414//414
f 414//414 339//339 409//409
f 364//364 438//438 417//417
f 362//362 415//415 438//438
f 416//416 363//363 386//386
f 410//410 416//416 439//439
f 386//386 387//387 417//417
f 389//389 418//418 440//440
f 366//366 419//419 418//418
f 368//368 422//422 419//419
f 388//388 389//389 440//440
f 367//367 420//420 421//421
f 420//420 388//388 441//441
f 391//391 390//390 421//421
f 422//422 391//391 442//442
f 381//381 443//443 423//423
f 424//424 443//443 381//381
f 424//424 382//382 444//444
f 318//318 425//425 415//415
f 369//369 445//445 425//425
f 392//392 446//446 369//369
f 392//392 371//371 411//411
f 411//411 408//408 447//447
f 447//447 408//408 433//433
f 393//393 427//427 426//426
f 373//373 448//448 427//427
f 394//394 448//448 373//373
f 395//395 426//426 435//435
f 401//401 423//423 429//429
f 394//394 398//398 449//449
f 397//397 450//450 398//398
f 374//374 428//428 430//430
f 428//428 353//353 429//429
f 431//431 352//352 399//399
f 430//430 399//399 396//396
f 397//397 431//431 450//450
f 451//451 405//405 432//432
f 400//400 432//432 423//423
f 400//400 402//402 406//406
f 433//433 383//383 434//434
f 434//434 404//404 403//403
f 451//451 403//403 405//405
f 435//435 406//406 407//407
f 452//452 435//435 453//453
f 382//382 454//454 444//444
f 382//382 436//436 454//454
f 408//408 413//413 437//437
f 455//455 436//436 408//408
f 409//409 410//410 439//439
f 437//437 412//412 414//414
f 456//456 414//414 409//409
f 415//415 417//417 438//438
f 416//416 386//386 439//439
f 386//386 417//417 457//457
f 418//418 419//419 440//440
f 419//419 422//422 458//458
f 422//422 442//442 459//459
f 441//441 388//388 440//440
f 421//421 420//420 441//441
f 442//442 391//391 421//421
f 423//423 443//443 460//460
f 443//443 424//424 461//461
f 424//424 444//444 462//462
f 425//425 445//445 415//415
f 369//369 446//446 445//445
f 446//446 392//392 411//411
f 463//463 411//411 447//447
f 447//447 433//433 464//464
f 427//427 465//465 426//426
f 427//427 448//448 465//465
f 394//394 466//466 448//448
f 435//435 426//426 453//453
f 429//429 423//423 460//460
f 394//394 449//449 466//466
f 467//467 449//449 398//398
f 450//450 467//467 398//398
f 428//428 429//429 430//430
f 431//431 399//399 430//430
f 450//450 431//431 468//468
f 451//451 432//432 400//400
f 469//469 400//400 406//406
f 464//464 433//433 434//434
f 434//434 403//403 451//451
f 470//470 406//406 435//435
f 452//452 453//453 471//471
f 452//452 470//470 435//435
f 444//444 454//454 472//472
f 454//454 436//436 455//455
f 408//408 437//437 455//455
f 409//409 439//439 456//456
f 437//437 414//414 456//456
f 457//457 417//417 415//415
f 386//386 457//457 439//439
f 419//419 458//458 440//440
f 458//458 422//422 459//459
f 459//459 442//442 473//473
f 441//441 440//440 474//474
f 421//421 441//441 475//475
f 442//442 421//421 475//475
f 462//462 444//444 472//472
f 460//460 443//443 461//461
f 424//424 462//462 461//461
f 415//415 445//445 476//476
f 446//446 477//477 445//445
f 446//446 411//411 463//463
f 463//463 447//447 464//464
f 426//426 465//465 478//478
f 448//448 479//479 465//465
f 466//466 479//479 448//448
f 426//426 478//478 453//453
f 429//429 460//460 480//480
f 449//449 467//467 466//466
f 450//450 468//468 467//467
f 430//430 429//429 481//481
f 431//431 430//430 468//468
f 451//451 400//400 469//469
f 482//482 469//469 406//406
f 464//464 434//434 451//451
f 471//471 453//453 483//483
f 470//470 482//482 406//406
f 452//452 471//471 484//484
f 485//485 470//470 452//452
f 442//442 472//472 473//473
f 454//454 486//486 472//472
f 454//454 455//455 486//486
f 437//437 487//487 455//455
f 456//456 439//439 488//488
f 437//437 456//456 489//489
f 415//415 476//476 457//457
f 439//439 457//457 488//488
f 440//440 458//458 474//474
f 458//458 459//459 473//473
f 490//490 441//441 474//474
f 441//441 490//490 475//475
f 472//472 442//442 475//475
f 462//462 472//472 491//491
f 460//460 461//461 480//480
f 461//461 462//462 491//491
f 445//445 477//477 476//476
f 446//446 463//463 477//477
f 492//492 463//463 464//464
f 465//465 479//479 478//478
f 466//466 493//493 479//479
f 483//483 453//453 478//478
f 481//481 429//429 480//480
f 467//467 493//493 466//466
f 468//468 494//494 467//467
f 430//430 481//481 495//495
f 468//468 430//430 494//494
f 482//482 451//451 469//469
f 464//464 451//451 496//496
f 484//484 471//471 483//483
f 485//485 482//482 470//470
f 485//485 452//452 484//484
f 472//472 486//486 473//473
f 486//486 455//455 487//487
f 437//437 489//489 487//487
f 456//456 488//488 489//489
f 457//457 476//476 488//488
f 458//458 497//497 474//474
f 458//458 473//473 497//497
f 490//490 474//474 498//498
f 475//475 490//490 498//498
f 472//472 475//475 491//491
f 461//461 491//491 480//480
f 477//477 499//499 476//476
f 463//463 500//500 477//477
f 463//463 492//492 500//500
f 501//501 464//464 496//496
f 492//492 464//464 501//501
f 502//502 483//483 503//503
f 493//493 478//478 479//479
f 503//503 483//483 478//478
f 481//481 480//480 495//495
f 467//467 494//494 493//493
f 495//495 494//494 430//430
f 496//496 451//451 482//482
f 484//484 483//483 502//502
f 482//482 485//485 484//484
f 473//473 486//486 487//487
f 489//489 488//488 487//487
f 488//488 476//476 499//499
f 474//474 497//497 504//504
f 497//497 473//473 505//505
f 498//498 474//474 504//504
f 491//491 475//475 498//498
f 480//480 491//491 506//506
f 477//477 500//500 499//499
f 492//492 507//507 500//500
f 501//501 496//496 508//508
f 492//492 501//501 507//507
f 509//509 502//502 503//503
f 493//493 503//503 478//478
f 480//480 510//510 495//495
f 494//494 495//495 493//493
f 496//496 482//482 508//508
f 484//484 502//502 509//509
f 482//482 484//484 511//511
f 487//487 505//505 473//473
f 487//487 488//488 512//512
f 488//488 499//499 512//512
f 497//497 513//513 504//504
f 497//497 505//505 514//514
f 498//498 504//504 513//513
f 491//491 498//498 506//506
f 510//510 480//480 506//506
f 499//499 500//500 515//515
f 500//500 507//507 515//515
f 501//501 508//508 507//507
f 509//509 503//503 493//493
f 510//510 516//516 495//495
f 495//495 517//517 493//493
f 482//482 511//511 508//508
f 511//511 484//484 509//509
f 505//505 487//487 518//518
f 487//487 512//512 518//518
f 512//512 499//499 519//519
f 497//497 514//514 513//513
f 514//514 505//505 520//520
f 513//513 506//506 498//498
f 506//506 516//516 510//510
f 499//499 515//515 519//519
f 515//515 507//507 521//521
f 507//507 508//508 521//521
f 517//517 509//509 493//493
f 495//495 516//516 517//517
f 508//508 511//511 509//509
f 505//505 518//518 520//520
f 518//518 512//512 519//519
f 514//514 520//520 513//513
f 513//513 516//516 506//506
f 519//519 515//515 521//521
f 521//521 508//508 522//522
f 516//516 509//509 517//517
f 522//522 508//508 509//509
f 518//518 519//519 520//520
f 513//513 520//520 516//516
f 519//519 521//521 522//522
f 516//516 522//522 509//509
f 520//520 519//519 516//516
f 516//516 519//519 522//522
f 198//198 197//197 196//196
f 196//196 197//197 199//199
f 1//1 4//4 238//238
f 163//163 162//162 161//161
f 161//161 162//162 164//164
f 5//5 2//2 3//3
f 2//2 5//5 1//1
f 5//5 3//3 4//4
f 1//1 5//5 4//4
f 4//4 3//3 206//206
f 167//167 166//166 165//165
f 167//167 168//168 166//166
f 202//202 201//201 200//200
f 205//205 204//204 203//203
f 208//208 207//207 206//206
f 209//209 202//202 200//200
f 211//211 201//201 210//210
f 200//200 201//201 211//211
f 212//212 201//201 202//202
f 210//210 201//201 212//212
f 209//209 213//213 202//202
f 205//205 203//203 214//214
f 216//216 205//205 215//215
f 3//3 217//217 2//2
f 218//218 217//217 206//206
f 217//217 204//204 219//219
f 220//220 208//208 206//206
f 221//221 207//207 208//208
f 218//218 206//206 207//207
f 165//165 207//207 221//221
f 209//209 200//200 222//222
f 222//222 200//200 223//223
f 224//224 211//211 210//210
f 225//225 200//200 211//211
f 212//212 202//202 213//213
f 224//224 210//210 212//212
f 209//209 226//226 213//213
f 229//229 228//228 227//227
f 227//227 228//228 230//230
f 230//230 228//228 231//231
f 233//233 230//230 232//232
f 214//214 203//203 234//234
f 215//215 205//205 214//214
f 217//217 219//219 2//2
f 235//235 1//1 2//2
f 218//218 204//204 217//217
f 237//237 196//196 236//236
f 238//238 208//208 220//220
f 239//239 221//221 208//208
f 167//167 218//218 207//207
f 221//221 240//240 165//165
f 241//241 209//209 222//222
f 242//242 222//222 223//223
f 223//223 200//200 243//243
f 224//224 244//244 211//211
f 225//225 211//211 244//244
f 243//243 200//200 225//225
f 241//241 226//226 209//209
f 224//224 212//212 213//213
f 245//245 213//213 226//226
f 246//246 229//229 227//227
f 228//228 229//229 231//231
f 247//247 230//230 233//233
f 248//248 227//227 230//230
f 249//249 230//230 231//231
f 232//232 230//230 249//249
f 232//232 247//247 233//233
f 197//197 250//250 198//198
f 214//214 234//234 250//250
f 251//251 215//215 214//214
f 235//235 2//2 219//219
f 252//252 204//204 218//218
f 252//252 234//234 204//204
f 250//250 234//234 198//198
f 196//196 253//253 236//236
f 236//236 254//254 237//237
f 237//237 254//254 255//255
f 256//256 196//196 237//237
f 257//257 208//208 238//238
f 258//258 239//239 208//208
f 239//239 240//240 221//221
f 168//168 218//218 167//167
f 240//240 195//195 165//165
f 242//242 241//241 222//222
f 243//243 242//242 223//223
f 259//259 244//244 224//224
f 259//259 225//225 244//244
f 260//260 243//243 225//225
f 263//263 262//262 261//261
f 245//245 226//226 241//241
f 224//224 213//213 264//264
f 264//264 213//213 245//245
f 246//246 227//227 265//265
f 266//266 229//229 246//246
f 266//266 231//231 229//229
f 248//248 230//230 247//247
f 248//248 265//265 227//227
f 249//249 231//231 267//267
f 249//249 268//268 232//232
f 268//268 247//247 232//232
f 199//199 250//250 197//197
f 251//251 214//214 250//250
f 235//235 219//219 216//216
f 269//269 238//238 235//235
f 270//270 252//252 218//218
f 198//198 234//234 252//252
f 196//196 198//198 253//253
f 271//271 236//236 253//253
f 237//237 255//255 272//272
f 256//256 237//237 272//272
f 271//271 254//254 236//236
f 255//255 254//254 273//273
f 274//274 196//196 256//256
f 269//269 257//257 238//238
f 164//164 275//275 257//257
f 275//275 208//208 257//257
f 258//258 208//208 276//276
f 258//258 277//277 239//239
f 239//239 278//278 240//240
f 279//279 168//168 195//195
f 168//168 270//270 218//218
f 279//279 195//195 240//240
f 280//280 262//262 263//263
f 263//263 261//261 281//281
f 242//242 282//282 241//241
f 260//260 242//242 243//243
f 283//283 259//259 224//224
f 259//259 260//260 225//225
f 261//261 262//262 284//284
f 285//285 262//262 280//280
f 282//282 245//245 241//241
f 224//224 264//264 286//286
f 286//286 264//264 245//245
f 266//266 246//246 265//265
f 266//266 287//287 231//231
f 247//247 288//288 248//248
f 248//248 289//289 265//265
f 290//290 249//249 267//267
f 287//287 267//267 231//231
f 290//290 268//268 249//249
f 268//268 288//288 247//247
f 199//199 251//251 250//250
f 269//269 235//235 216//216
f 291//291 216//216 251//251
f 292//292 252//252 270//270
f 292//292 198//198 252//252
f 271//271 253//253 198//198
f 272//272 255//255 273//273
f 293//293 256//256 272//272
f 273//273 254//254 271//271
f 293//293 274//274 256//256
f 199//199 196//196 274//274
f 162//162 257//257 269//269
f 275//275 164//164 294//294
f 276//276 208//208 275//275
f 276//276 295//295 258//258
f 258//258 296//296 277//277
f 277//277 278//278 239//239
f 298//298 297//297 278//278
f 300//300 299//299 298//298
f 278//278 297//297 240//240
f 279//279 270//270 168//168
f 301//301 279//279 240//240
f 300//300 302//302 299//299
f 299//299 297//297 298//298
f 281//281 303//303 263//263
f 303//303 280//280 263//263
f 304//304 281//281 261//261
f 260//260 282//282 242//242
f 283//283 224//224 305//305
f 283//283 260//260 259//259
f 285//285 306//306 262//262
f 306//306 307//307 262//262
f 262//262 307//307 308//308
f 261//261 284//284 309//309
f 262//262 308//308 284//284
f 280//280 310//310 285//285
f 311//311 245//245 282//282
f 305//305 224//224 286//286
f 286//286 245//245 312//312
f 266//266 265//265 313//313
f 314//314 287//287 266//266
f 288//288 289//289 248//248
f 313//313 265//265 289//289
f 287//287 290//290 267//267
f 290//290 288//288 268//268
f 199//199 291//291 251//251
f 291//291 269//269 216//216
f 270//270 315//315 292//292
f 292//292 271//271 198//198
f 293//293 272//272 273//273
f 273//273 271//271 316//316
f 293//293 199//199 274//274
f 163//163 162//162 269//269
f 294//294 164//164 194//194
f 276//276 275//275 294//294
f 317//317 295//295 276//276
f 295//295 296//296 258//258
f 296//296 318//318 277//277
f 277//277 298//298 278//278
f 298//298 319//319 300//300
f 297//297 301//301 240//240
f 301//301 270//270 279//279
f 302//302 320//320 299//299
f 321//321 297//297 299//299
f 304//304 303//303 281//281
f 303//303 310//310 280//280
f 304//304 261//261 309//309
f 260//260 311//311 282//282
f 322//322 283//283 305//305
f 283//283 323//323 260//260
f 285//285 324//324 306//306
f 325//325 307//307 306//306
f 308//308 307//307 325//325
f 326//326 309//309 284//284
f 327//327 284//284 308//308
f 310//310 328//328 285//285
f 311//311 312//312 245//245
f 305//305 286//286 329//329
f 329//329 286//286 312//312
f 314//314 266//266 313//313
f 314//314 330//330 287//287
f 331//331 287//287 330//330
f 332//332 322//322 305//305
f 333//333 289//289 288//288
f 334//334 313//313 289//289
f 331//331 290//290 287//287
f 290//290 333//333 288//288
f 335//335 291//291 199//199
f 336//336 269//269 291//291
f 337//337 315//315 270//270
f 315//315 338//338 292//292
f 338//338 271//271 292//292
f 316//316 271//271 339//339
f 293//293 273//273 316//316
f 335//335 199//199 293//293
f 340//340 194//194 163//163
f 163//163 269//269 336//336
f 340//340 294//294 194//194
f 294//294 317//317 276//276
f 342//342 341//341 317//317
f 344//344 341//341 343//343
f 347//347 346//346 345//345
f 348//348 346//346 347//347
f 317//317 341//341 295//295
f 295//295 318//318 296//296
f 318//318 298//298 277//277
f 349//349 319//319 298//298
f 321//321 301//301 297//297
f 301//301 350//350 270//270
f 337//337 270//270 350//350
f 351//351 320//320 302//302
f 299//299 320//320 321//321
f 304//304 310//310 303//303
f 326//326 304//304 309//309
f 323//323 311//311 260//260
f 322//322 323//323 283//283
f 328//328 324//324 285//285
f 325//325 306//306 324//324
f 327//327 308//308 325//325
f 326//326 284//284 327//327
f 352//352 328//328 310//310
f 353//353 312//312 311//311
f 305//305 329//329 354//354
f 355//355 329//329 312//312
f 314//314 313//313 356//356
f 357//357 330//330 314//314
f 357//357 331//331 330//330
f 305//305 354//354 332//332
f 358//358 322//322 332//332
f 334//334 289//289 333//333
f 359//359 313//313 334//334
f 331//331 333//333 290//290
f 356//356 313//313 359//359
f 335//335 336//336 291//291
f 360//360 315//315 337//337
f 360//360 338//338 315//315
f 339//339 271//271 338//338
f 293//293 316//316 339//339
f 361//361 335//335 293//293
f 344//344 362//362 341//341
f 340//340 163//163 336//336
f 363//363 294//294 340//340
f 294//294 342//342 317//317
f 343//343 341//341 342//342
f 344//344 343//343 364//364
f 366//366 347//347 365//365
f 345//345 346//346 348//348
f 347//347 345//345 367//367
f 368//368 348//348 347//347
f 341//341 318//318 295//295
f 318//318 349//349 298//298
f 369//369 319//319 349//349
f 351//351 302//302 370//370
f 369//369 370//370 319//319
f 321//321 350//350 301//301
f 371//371 337//337 350//350
f 351//351 321//321 320//320
f 373//373 322//322 372//372
f 375//375 374//374 322//322
f 376//376 373//373 372//372
f 304//304 377//377 310//310
f 378//378 304//304 326//326
f 323//323 353//353 311//311
f 322//322 374//374 323//323
f 352//352 324//324 328//328
f 325//325 324//324 379//379
f 327//327 325//325 379//379
f 378//378 326//326 327//327
f 377//377 352//352 310//310
f 355//355 312//312 353//353
f 354//354 329//329 355//355
f 380//380 314//314 356//356
f 380//380 357//357 314//314
f 357//357 381//381 331//331
f 358//358 332//332 354//354
f 372//372 322//322 358//358
f 359//359 334//334 333//333
f 331//331 382//382 333//333
f 383//383 356//356 359//359
f 384//384 335//335 361//361
f 336//336 335//335 384//384
f 371//371 360//360 337//337
f 339//339 338//338 360//360
f 361//361 293//293 339//339
f 362//362 385//385 341//341
f 363//363 340//340 336//336
f 342//342 294//294 363//363
f 386//386 343//343 342//342
f 364//364 343//343 387//387
f 368//368 347//347 366//366
f 388//388 365//365 347//347
f 389//389 366//366 365//365
f 388//388 347//347 367//367
f 390//390 345//345 348//348
f 367//367 345//345 390//390
f 368//368 391//391 348//348
f 381//381 382//382 331//331
f 341//341 385//385 318//318
f 318//318 369//369 349//349
f 370//370 369//369 351//351
f 371//371 350//350 321//321
f 392//392 321//321 351//351
f 393//393 373//373 376//376
f 373//373 375//375 322//322
f 375//375 394//394 374//374
f 395//395 376//376 372//372
f 394//394 378//378 396//396
f 304//304 397//397 377//377
f 378//378 398//398 304//304
f 374//374 353//353 323//323
f 379//379 324//324 352//352
f 327//327 379//379 399//399
f 378//378 327//327 396//396
f 394//394 396//396 374//374
f 397//397 352//352 377//377
f 353//353 401//401 400//400
f 402//402 355//355 353//353
f 354//354 355//355 402//402
f 380//380 356//356 403//403
f 404//404 356//356 383//383
f 403//403 357//357 380//380
f 405//405 381//381 357//357
f 358//358 354//354 406//406
f 372//372 358//358 407//407
f 395//395 372//372 407//407
f 359//359 333//333 382//382
f 359//359 408//408 383//383
f 409//409 384//384 361//361
f 410//410 336//336 384//384
f 413//413 412//412 411//411
f 412//412 360//360 371//371
f 360//360 414//414 339//339
f 409//409 361//361 339//339
f 362//362 415//415 385//385
f 363//363 336//336 416//416
f 386//386 342//342 363//363
f 410//410 416//416 336//336
f 343//343 386//386 387//387
f 417//417 364//364 387//387
f 418//418 366//366 389//389
f 419//419 368//368 366//366
f 389//389 365//365 388//388
f 388//388 367//367 420//420
f 390//390 348//348 391//391
f 421//421 367//367 390//390
f 422//422 391//391 368//368
f 381//381 405//405 423//423
f 424//424 382//382 381//381
f 385//385 415//415 318//318
f 318//318 425//425 369//369
f 369//369 392//392 351//351
f 411//411 412//412 371//371
f 371//371 321//321 392//392
f 426//426 393//393 376//376
f 393//393 427//427 373//373
f 373//373 394//394 375//375
f 426//426 376//376 395//395
f 394//394 398//398 378//378
f 398//398 397//397 304//304
f 428//428 353//353 374//374
f 429//429 401//401 353//353
f 399//399 379//379 352//352
f 396//396 327//327 399//399
f 374//374 396//396 430//430
f 397//397 431//431 352//352
f 401//401 423//423 400//400
f 423//423 405//405 432//432
f 353//353 400//400 402//402
f 406//406 354//354 402//402
f 433//433 383//383 408//408
f 434//434 404//404 383//383
f 403//403 356//356 404//404
f 357//357 403//403 405//405
f 407//407 358//358 406//406
f 435//435 395//395 407//407
f 436//436 359//359 382//382
f 408//408 413//413 411//411
f 408//408 359//359 436//436
f 409//409 410//410 384//384
f 437//437 412//412 413//413
f 414//414 360//360 412//412
f 409//409 339//339 414//414
f 417//417 438//438 364//364
f 438//438 415//415 362//362
f 386//386 363//363 416//416
f 439//439 416//416 410//410
f 417//417 387//387 386//386
f 440//440 418//418 389//389
f 418//418 419//419 366//366
f 419//419 422//422 368//368
f 440//440 389//389 388//388
f 421//421 420//420 367//367
f 441//441 388//388 420//420
f 421//421 390//390 391//391
f 442//442 391//391 422//422
f 423//423 443//443 381//381
f 381//381 443//443 424//424
f 444//444 382//382 424//424
f 415//415 425//425 318//318
f 425//425 445//445 369//369
f 369//369 446//446 392//392
f 411//411 371//371 392//392
f 447//447 408//408 411//411
f 433//433 408//408 447//447
f 426//426 427//427 393//393
f 427//427 448//448 373//373
f 373//373 448//448 394//394
f 435//435 426//426 395//395
f 429//429 423//423 401//401
f 449//449 398//398 394//394
f 398//398 450//450 397//397
f 430//430 428//428 374//374
f 429//429 353//353 428//428
f 399//399 352//352 431//431
f 396//396 399//399 430//430
f 450//450 431//431 397//397
f 432//432 405//405 451//451
f 423//423 432//432 400//400
f 406//406 402//402 400//400
f 434//434 383//383 433//433
f 403//403 404//404 434//434
f 405//405 403//403 451//451
f 407//407 406//406 435//435
f 453//453 435//435 452//452
f 444//444 454//454 382//382
f 454//454 436//436 382//382
f 437//437 413//413 408//408
f 408//408 436//436 455//455
f 439//439 410//410 409//409
f 414//414 412//412 437//437
f 409//409 414//414 456//456
f 438//438 417//417 415//415
f 439//439 386//386 416//416
f 457//457 417//417 386//386
f 440//440 419//419 418//418
f 458//458 422//422 419//419
f 459//459 442//442 422//422
f 440//440 388//388 441//441
f 441//441 420//420 421//421
f 421//421 391//391 442//442
f 460//460 443//443 423//423
f 461//461 424//424 443//443
f 462//462 444//444 424//424
f 415//415 445//445 425//425
f 445//445 446//446 369//369
f 411//411 392//392 446//446
f 447//447 411//411 463//463
f 464//464 433//433 447//447
f 426//426 465//465 427//427
f 465//465 448//448 427//427
f 448//448 466//466 394//394
f 453//453 426//426 435//435
f 460//460 423//423 429//429
f 466//466 449//449 394//394
f 398//398 449//449 467//467
f 398//398 467//467 450//450
f 430//430 429//429 428//428
f 430//430 399//399 431//431
f 468//468 431//431 450//450
f 400//400 432//432 451//451
f 406//406 400//400 469//469
f 434//434 433//433 464//464
f 451//451 403//403 434//434
f 435//435 406//406 470//470
f 471//471 453//453 452//452
f 435//435 470//470 452//452
f 472//472 454//454 444//444
f 455//455 436//436 454//454
f 455//455 437//437 408//408
f 456//456 439//439 409//409
f 456//456 414//414 437//437
f 415//415 417//417 457//457
f 439//439 457//457 386//386
f 440//440 458//458 419//419
f 459//459 422//422 458//458
f 473//473 442//442 459//459
f 474//474 440//440 441//441
f 475//475 441//441 421//421
f 475//475 421//421 442//442
f 472//472 444//444 462//462
f 461//461 443//443 460//460
f 461//461 462//462 424//424
f 476//476 445//445 415//415
f 445//445 477//477 446//446
f 463//463 411//411 446//446
f 464//464 447//447 463//463
f 478//478 465//465 426//426
f 465//465 479//479 448//448
f 448//448 479//479 466//466
f 453//453 478//478 426//426
f 480//480 460//460 429//429
f 466//466 467//467 449//449
f 467//467 468//468 450//450
f 481//481 429//429 430//430
f 468//468 430//430 431//431
f 469//469 400//400 451//451
f 406//406 469//469 482//482
f 451//451 434//434 464//464
f 483//483 453//453 471//471
f 406//406 482//482 470//470
f 484//484 471//471 452//452
f 452//452 470//470 485//485
f 473//473 472//472 442//442
f 472//472 486//486 454//454
f 486//486 455//455 454//454
f 455//455 487//487 437//437
f 488//488 439//439 456//456
f 489//489 456//456 437//437
f 457//457 476//476 415//415
f 488//488 457//457 439//439
f 474//474 458//458 440//440
f 473//473 459//459 458//458
f 474//474 441//441 490//490
f 475//475 490//490 441//441
f 475//475 442//442 472//472
f 491//491 472//472 462//462
f 480//480 461//461 460//460
f 491//491 462//462 461//461
f 476//476 477//477 445//445
f 477//477 463//463 446//446
f 464//464 463//463 492//492
f 478//478 479//479 465//465
f 479//479 493//493 466//466
f 478//478 453//453 483//483
f 480//480 429//429 481//481
f 466//466 493//493 467//467
f 467//467 494//494 468//468
f 495//495 481//481 430//430
f 494//494 430//430 468//468
f 469//469 451//451 482//482
f 496//496 451//451 464//464
f 483//483 471//471 484//484
f 470//470 482//482 485//485
f 484//484 452//452 485//485
f 473//473 486//486 472//472
f 487//487 455//455 486//486
f 487//487 489//489 437//437
f 489//489 488//488 456//456
f 488//488 476//476 457//457
f 474//474 497//497 458//458
f 497//497 473//473 458//458
f 498//498 474//474 490//490
f 498//498 490//490 475//475
f 491//491 475//475 472//472
f 480//480 491//491 461//461
f 476//476 499//499 477//477
f 477//477 500//500 463//463
f 500//500 492//492 463//463
f 496//496 464//464 501//501
f 501//501 464//464 492//492
f 503//503 483//483 502//502
f 479//479 478//478 493//493
f 478//478 483//483 503//503
f 495//495 480//480 481//481
f 493//493 494//494 467//467
f 430//430 494//494 495//495
f 482//482 451//451 496//496
f 502//502 483//483 484//484
f 484//484 485//485 482//482
f 487//487 486//486 473//473
f 487//487 488//488 489//489
f 499//499 476//476 488//488
f 504//504 497//497 474//474
f 505//505 473//473 497//497
f 504//504 474//474 498//498
f 498//498 475//475 491//491
f 506//506 491//491 480//480
f 499//499 500//500 477//477
f 500//500 507//507 492//492
f 508//508 496//496 501//501
f 507//507 501//501 492//492
f 503//503 502//502 509//509
f 478//478 503//503 493//493
f 495//495 510//510 480//480
f 493//493 495//495 494//494
f 508//508 482//482 496//496
f 509//509 502//502 484//484
f 511//511 484//484 482//482
f 473//473 505//505 487//487
f 512//512 488//488 487//487
f 512//512 499//499 488//488
f 504//504 513//513 497//497
f 514//514 505//505 497//497
f 513//513 504//504 498//498
f 506//506 498//498 491//491
f 506//506 480//480 510//510
f 515//515 500//500 499//499
f 515//515 507//507 500//500
f 507//507 508//508 501//501
f 493//493 503//503 509//509
f 495//495 516//516 510//510
f 493//493 517//517 495//495
f 508//508 511//511 482//482
f 509//509 484//484 511//511
f 518//518 487//487 505//505
f 518//518 512//512 487//487
f 519//519 499//499 512//512
f 513//513 514//514 497//497
f 520//520 505//505 514//514
f 498//498 506//506 513//513
f 510//510 516//516 506//506
f 519//519 515//515 499//499
f 521//521 507//507 515//515
f 521//521 508//508 507//507
f 493//493 509//509 517//517
f 517//517 516//516 495//495
f 509//509 511//511 508//508
f 520//520 518//518 505//505
f 519//519 512//512 518//518
f 513//513 520//520 514//514
f 506//506 516//516 513//513
f 521//521 515//515 519//519
f 522//522 508//508 521//521
f 517//517 509//509 516//516
f 509//509 508//508 522//522
f 520//520 519//519 518//518
f 516//516 520//520 513//513
f 522//522 521//521 519//519
f 509//509 522//522 516//516
f 516//516 519//519 520//520
f 522//522 519//519 516//516
f 206//206 217//217 3//3
f 4//4 220//220 206//206
f 238//238 220//220 4//4
f 238//238 4//4 1//1
f 206//206 3//3 4//4
f 164//164 257//257 162//162
f 364//364 362//362 344//344
f 364//364 438//438 362//362
f 319//319 370//370 302//302
f 319//319 302//302 300//300
f 165//165 167//167 207//207
f 235//235 238//238 1//1
f 234//234 203//203 204//204
f 251//251 216//216 215//215
f 204//204 205//205 219//219
f 216//216 219//219 205//205