# https://github.com/mikedh/trimesh
v 0.08517300 0.08760200 0.04725400
v -0.08645900 0.08320200 0.03778300
v -0.08645900 0.08760200 0.04725400
v 0.08517300 0.08320200 0.03778300
v -0.08645900 0.08012400 0.02636200
v 0.08517300 0.08012400 0.02636200
v -0.08645900 0.07904200 0.01458300
v 0.08517300 0.07904200 0.01458300
v -0.08645900 0.07599100 -0.02092700
v 0.08517300 0.07599100 0.01464000
v -0.08645900 0.07599100 0.01464000
v 0.08517300 0.07599100 -0.02092700
v 0.08517300 0.07707300 0.02641900
v -0.08645900 0.07707300 0.02641900
v 0.08517300 0.08015100 0.03784100
v -0.08645900 0.08015100 0.03784100
v 0.08517300 0.08513400 0.04856800
v -0.08645900 0.08513400 0.04856800
v -0.08645900 0.08515300 0.04855800
v 0.08517300 0.08515300 0.04855800
v 0.08517300 0.07904200 -0.02092700
v -0.08645900 0.07904200 -0.02092700
v -0.08645900 -0.14890600 -0.02092700
v 0.08517300 -0.14890600 -0.02092700
v 0.08517300 0.08782700 -0.02092700
v -0.08645900 0.08782700 -0.02092700
v 0.08517300 0.08782700 -0.02388700
v -0.08645900 0.08782700 -0.02388700
v -0.08645900 -0.14890600 -0.02388700
v 0.08517300 -0.14890600 -0.02388700
v -0.08010200 -0.13866800 0.00119700
v -0.07774500 -0.14041300 0.00493000
v -0.07945200 -0.13817600 0.00493000
v -0.07812000 -0.14126500 0.00119700
v -0.07812000 0.07048600 0.00119700
v -0.07945200 0.06739700 0.00493000
v -0.07774500 0.06963400 0.00493000
v -0.08010200 0.06788900 0.00119700
v -0.08082700 0.06434200 0.00119700
v -0.08010200 -0.13499600 0.00493000
v -0.08010200 0.06421700 0.00493000
v -0.08082700 -0.13512100 0.00119700
v -0.08082700 -0.13512100 -0.02092700
v -0.08010200 -0.13866800 -0.02092700
v -0.07812000 -0.14126500 -0.02092700
v -0.07541300 -0.14221500 0.00119700
v -0.07541300 -0.14221500 -0.02092700
v 0.07251800 -0.14221500 -0.02092700
v 0.07251800 -0.14221500 0.00119700
v -0.07541300 0.07143700 -0.02092700
v 0.07251800 0.07143700 0.00119700
v 0.07251800 0.07143700 -0.02092700
v -0.07541300 0.07143700 0.00119700
v -0.07812000 0.07048600 -0.02092700
v -0.08010200 0.06788900 -0.02092700
v -0.08082700 0.06434200 -0.02092700
v 0.07522500 -0.14126500 -0.02092700
v 0.07720700 -0.13866800 0.00119700
v 0.07522500 -0.14126500 0.00119700
v 0.07720700 -0.13866800 -0.02092700
v -0.07531800 -0.14126500 0.00493000
v 0.07242200 -0.14126500 0.00493000
v -0.07671900 -0.13808500 0.00766400
v -0.07767500 -0.13683200 0.00766400
v -0.07531800 0.07048600 0.00493000
v -0.07671900 0.06730600 0.00766400
v -0.07767500 0.06605300 0.00766400
v -0.07812000 0.06387500 0.00766400
v -0.07812000 -0.13465400 0.00766400
v 0.07522500 0.07048600 -0.02092700
v 0.07522500 0.07048600 0.00119700
v 0.07242200 0.07048600 0.00493000
v 0.07720700 0.06788900 -0.02092700
v 0.07720700 0.06788900 0.00119700
v 0.07793200 -0.13512100 -0.02092700
v 0.07793200 0.06434200 -0.02092700
v 0.07793200 -0.13512100 0.00119700
v 0.07655600 -0.13817600 0.00493000
v 0.07484900 -0.14041300 0.00493000
v 0.07216200 -0.13866800 0.00766400
v -0.07505700 -0.13866800 0.00766400
v -0.07541300 -0.13512100 0.00859600
v -0.07505700 0.06788900 0.00766400
v -0.07541300 0.06434200 0.00859600
v -0.07541300 0.06340800 0.00866400
v -0.07541300 -0.13418700 0.00866400
v -0.07526300 0.06414500 0.00866400
v -0.07526300 -0.13492400 0.00866400
v 0.07793200 0.06434200 0.00119700
v 0.07484900 0.06963400 0.00493000
v 0.07216200 0.06788900 0.00766400
v 0.07655600 0.06739700 0.00493000
v 0.07720700 -0.13499600 0.00493000
v 0.07382400 -0.13808500 0.00766400
v 0.07478000 -0.13683200 0.00766400
v 0.07180500 -0.13512100 0.00866400
v -0.07470100 -0.13512100 0.00866400
v -0.07470100 0.06434200 0.00866400
v -0.00144800 -0.03538900 0.00866400
v 0.07720700 0.06421700 0.00493000
v 0.07180500 0.06434200 0.00866400
v 0.07382400 0.06730600 0.00766400
v 0.07478000 0.06605300 0.00766400
v 0.07522500 -0.13465400 0.00766400
v 0.07251800 -0.13512100 0.00859600
v 0.07236700 -0.13492400 0.00866400
v 0.07236700 0.06414500 0.00866400
v 0.07522500 0.06387500 0.00766400
v 0.07251800 0.06434200 0.00859600
v 0.07251800 -0.13418700 0.00866400
v 0.07251800 0.06340800 0.00866400
v -0.07787800 0.06711300 -0.04756000
v -0.07144100 0.06711300 -0.02388700
v -0.07787800 0.06711300 -0.02388700
v -0.07144100 0.06711300 -0.04756000
v -0.07787800 0.07599100 -0.02388700
v -0.07787800 0.07599100 -0.04756000
v -0.07144100 0.07599100 -0.04756000
v -0.07144100 0.07599100 -0.02388700
v -0.07787800 -0.13707000 -0.04756000
v -0.07144100 -0.13707000 -0.02388700
v -0.07787800 -0.13707000 -0.02388700
v -0.07144100 -0.13707000 -0.04756000
v -0.07787800 -0.12819200 -0.02388700
v -0.07787800 -0.12819200 -0.04756000
v -0.07144100 -0.12819200 -0.04756000
v -0.07144100 -0.12819200 -0.02388700
v 0.07015500 0.06711300 -0.04756000
v 0.07659100 0.06711300 -0.02388700
v 0.07015500 0.06711300 -0.02388700
v 0.07659100 0.06711300 -0.04756000
v 0.07015500 0.07599100 -0.02388700
v 0.07015500 0.07599100 -0.04756000
v 0.07659100 0.07599100 -0.04756000
v 0.07659100 0.07599100 -0.02388700
v 0.07015500 -0.13707000 -0.04756000
v 0.07659100 -0.13707000 -0.02388700
v 0.07015500 -0.13707000 -0.02388700
v 0.07659100 -0.13707000 -0.04756000
v 0.07015500 -0.12819200 -0.02388700
v 0.07015500 -0.12819200 -0.04756000
v 0.07659100 -0.12819200 -0.04756000
v 0.07659100 -0.12819200 -0.02388700
v -0.05536000 0.07579400 0.02418500
v -0.02700800 0.07280200 0.02175600
v -0.01842300 0.06844500 0.01823500
v -0.05228600 0.07819700 0.03282600
v -0.05495100 0.07876600 0.03399200
v -0.01614100 0.07280200 0.02175600
v -0.00661500 0.05698200 0.01727700
v -0.00484000 0.04731900 0.00986300
v -0.05522700 0.06130100 0.01414500
v -0.06237000 0.07024900 0.02849200
v -0.06268500 0.07064200 0.02912300
v -0.06563600 0.07876600 0.03399200
v -0.00790600 0.06903100 0.02566600
v -0.00661500 0.06910200 0.02657800
v -0.01121500 0.05408600 0.02105100
v -0.01556200 0.04731900 0.00986300
v -0.06138200 0.05900700 0.01883100
v -0.06563600 0.04731900 0.00986300
v -0.06268500 0.05852100 0.01982300
v -0.05495100 0.06540200 0.03140000
v -0.01614100 0.07876600 0.03399200
v -0.00545600 0.07876600 0.03399200
v -0.03872400 0.04731900 0.00986300
v -0.05524000 0.04731900 0.00986300
v -0.06168900 0.05756200 0.01982900
v -0.05733300 0.05336300 0.01985600
v -0.06134200 0.06973200 0.02951900
v -0.00790600 0.06885400 0.02717500
v -0.02365100 0.06581700 0.03446300
v -0.03444200 0.05489100 0.02238100
v -0.04567800 0.06540200 0.03140000
v -0.01669200 0.07781500 0.03402700
v 0.05833100 0.05821700 0.01069800
v 0.02646500 0.06133800 0.01295900
v 0.01681600 0.06586700 0.01625700
v 0.05487700 0.04924900 0.01061400
v 0.05787200 0.04797500 0.01036600
v 0.01425100 0.06133800 0.01295900
v 0.00354400 0.06975900 0.02708200
v 0.00154900 0.07942200 0.03449600
v 0.05818200 0.07166600 0.02209900
v 0.06621100 0.05549200 0.01717000
v 0.06656500 0.05478100 0.01695300
v 0.06988200 0.04797500 0.01036600
v 0.00499500 0.05853700 0.01761500
v 0.00354400 0.05763800 0.01778100
v 0.00871400 0.06686300 0.03085500
v 0.01360000 0.07942200 0.03449600
v 0.06510000 0.06773400 0.02552700
v 0.06988200 0.07942200 0.03449600
v 0.06656500 0.06690100 0.02625300
v 0.05787200 0.05393800 0.02260300
v 0.01425100 0.04797500 0.01036600
v 0.00224100 0.04797500 0.01036600
v 0.03963300 0.07942200 0.03449600
v 0.05819800 0.07942200 0.03449600
v 0.06544500 0.06714400 0.02718200
v 0.06054900 0.06820500 0.03124400
v 0.06505500 0.05463400 0.01793400
v 0.00499500 0.05712600 0.01817600
v 0.02269200 0.05087200 0.02299600
v 0.03482000 0.06537000 0.03042200
v 0.04745000 0.05393800 0.02260300
v 0.01487100 0.04818800 0.01129300
vn 0.58026332 0.77223406 0.25874512
vn -0.72692061 0.64530403 -0.23488111
vn -0.58026332 0.77223406 0.25874512
vn 0.72692061 0.64530403 -0.23488111
vn -0.72691915 0.67594246 -0.12120371
vn 0.72691915 0.67594246 -0.12120371
vn -0.71755872 0.69576762 -0.03188892
vn 0.71755872 0.69576762 -0.03188892
vn -0.90453403 -0.30151134 0.30151134
vn 0.69694542 -0.71637215 0.03283328
vn -0.69694542 -0.71637215 0.03283328
vn 0.90453403 -0.30151134 0.30151134
vn 0.68831517 -0.71402522 0.12802426
vn -0.68831517 -0.71402522 0.12802426
vn 0.68831332 -0.68167001 0.24809428
vn -0.68831332 -0.68167001 0.24809428
vn 0.57478640 -0.26185296 0.77527648
vn -0.57478640 -0.26185296 0.77527648
vn -0.70656688 0.33108597 0.62541611
vn 0.70656688 0.33108597 0.62541611
vn 0.90453403 0.30151134 0.30151134
vn -0.90453403 0.30151134 0.30151134
vn -0.57735027 -0.57735027 0.57735027
vn 0.57735027 -0.57735027 0.57735027
vn 0.57735027 0.57735027 0.57735027
vn -0.57735027 0.57735027 0.57735027
vn 0.57735027 0.57735027 -0.57735027
vn -0.57735027 0.57735027 -0.57735027
vn -0.57735027 -0.57735027 -0.57735027
vn 0.57735027 -0.57735027 -0.57735027
vn -0.90415565 -0.41450557 0.10338134
vn -0.52220783 -0.72301046 0.45227742
vn -0.82691647 -0.37917138 0.41525680
vn -0.58024823 -0.80599999 0.11694446
vn -0.58038467 0.80590109 0.11694899
vn -0.82691536 0.37918107 0.41525017
vn -0.52223957 0.72297352 0.45229982
vn -0.90415191 0.41451181 0.10338895
vn -0.99025489 0.10058622 0.09632067
vn -0.91314947 -0.09292741 0.39689109
vn -0.91314933 0.09292686 0.39689155
vn -0.99025479 -0.10058668 0.09632116
vn -0.72471222 -0.07330706 -0.68514106
vn -0.68377342 -0.31091098 -0.66014261
vn -0.44765224 -0.61627994 -0.64792477
vn -0.16585342 -0.97845071 0.12299122
vn -0.12450486 -0.73075945 -0.67118489
vn 0.12450486 -0.73075945 -0.67118489
vn 0.16586554 -0.97844615 0.12301123
vn -0.12463003 0.73076835 -0.67115197
vn 0.16599200 0.97841393 0.12309686
vn 0.12463003 0.73076835 -0.67115197
vn -0.16597987 0.97841851 0.12307685
vn -0.44773867 0.61618582 -0.64795457
vn -0.68377342 0.31091098 -0.66014261
vn -0.72471222 0.07330706 -0.68514106
vn 0.44765224 -0.61627994 -0.64792477
vn 0.90413472 -0.41452927 0.10346929
vn 0.58026247 -0.80597872 0.11702037
vn 0.68377342 -0.31091098 -0.66014261
vn -0.14739324 -0.86858664 0.47310937
vn 0.14736894 -0.86858697 0.47311635
vn -0.34090804 -0.45149608 0.82458050
vn -0.54968175 -0.24263847 0.79936009
vn -0.14738564 0.86852707 0.47322109
vn -0.34090804 0.45149608 0.82458050
vn -0.54967967 0.24263340 0.79936306
vn -0.60883975 0.06097113 0.79094670
vn -0.60884462 -0.06096700 0.79094327
vn 0.44773867 0.61618582 -0.64795457
vn 0.58038964 0.80588849 0.11701113
vn 0.14736134 0.86852739 0.47322807
vn 0.68377342 0.31091098 -0.66014261
vn 0.90414821 0.41449384 0.10349334
vn 0.72471222 -0.07330706 -0.68514106
vn 0.72471222 0.07330706 -0.68514106
vn 0.99025489 -0.10058622 0.09632067
vn 0.82683483 -0.37930988 0.41529289
vn 0.52218116 -0.72301799 0.45229617
vn 0.09154647 -0.52822801 0.84415308
vn -0.09152870 -0.52821970 0.84416020
vn -0.21755088 -0.17003288 0.96112457
vn -0.09152870 0.52821970 0.84416020
vn -0.21797074 0.16964202 0.96109851
vn -0.18402477 0.01767651 0.98276265
vn -0.18402477 -0.01767651 0.98276265
vn -0.15147802 0.10513600 0.98285341
vn -0.15143882 -0.10511456 0.98286175
vn 0.99024810 0.10061902 0.09635613
vn 0.52219248 0.72298538 0.45233522
vn 0.09154647 0.52822801 0.84415308
vn 0.82686858 0.37926920 0.41526283
vn 0.91313922 -0.09300464 0.39689658
vn 0.34095691 -0.45152724 0.82454323
vn 0.54971519 -0.24267312 0.79932657
vn 0.02655782 -0.14867382 0.98852960
vn -0.02658934 -0.14868602 0.98852692
vn -0.02658934 0.14868602 0.98852692
vn 0.00000000 0.00000000 1.00000000
vn 0.91314967 0.09304449 0.39686320
vn 0.02655782 0.14867382 0.98852960
vn 0.34095691 0.45152724 0.82454323
vn 0.54972017 0.24268525 0.79931946
vn 0.60882356 -0.06098131 0.79095838
vn 0.21898745 -0.16807065 0.96114346
vn 0.15129972 -0.10502153 0.98289311
vn 0.15120614 0.10497047 0.98291297
vn 0.60883521 0.06097142 0.79095017
vn 0.21797337 0.16901896 0.96120768
vn 0.18407388 -0.01780412 0.98275115
vn 0.18407388 0.01780412 0.98275115
vn -0.70710678 -0.70710678 0.00000000
vn 0.70710678 -0.70710678 0.00000000
vn -0.70710678 -0.70710678 0.00000000
vn 0.70710678 -0.70710678 0.00000000
vn -0.70710678 0.70710678 0.00000000
vn -0.70710678 0.70710678 0.00000000
vn 0.70710678 0.70710678 0.00000000
vn 0.70710678 0.70710678 0.00000000
vn -0.70710678 -0.70710678 0.00000000
vn 0.70710678 -0.70710678 0.00000000
vn -0.70710678 -0.70710678 0.00000000
vn 0.70710678 -0.70710678 0.00000000
vn -0.70710678 0.70710678 0.00000000
vn -0.70710678 0.70710678 0.00000000
vn 0.70710678 0.70710678 0.00000000
vn 0.70710678 0.70710678 0.00000000
vn -0.70710678 -0.70710678 0.00000000
vn 0.70710678 -0.70710678 0.00000000
vn -0.70710678 -0.70710678 0.00000000
vn 0.70710678 -0.70710678 0.00000000
vn -0.70710678 0.70710678 0.00000000
vn -0.70710678 0.70710678 0.00000000
vn 0.70710678 0.70710678 0.00000000
vn 0.70710678 0.70710678 0.00000000
vn -0.70710678 -0.70710678 0.00000000
vn 0.70710678 -0.70710678 0.00000000
vn -0.70710678 -0.70710678 0.00000000
vn 0.70710678 -0.70710678 0.00000000
vn -0.70710678 0.70710678 0.00000000
vn -0.70710678 0.70710678 0.00000000
vn 0.70710678 0.70710678 0.00000000
vn 0.70710678 0.70710678 0.00000000
vn -0.25926258 0.73865502 -0.62223121
vn 0.00396436 0.78169662 -0.62364627
vn 0.18731346 0.51201831 -0.83830240
vn 0.03770219 0.92936364 -0.36723529
vn 0.02771292 0.74979880 0.66108529
vn 0.25299164 0.67206844 -0.69593049
vn 0.98580323 0.15628950 -0.06136444
vn 0.68989113 -0.55121686 -0.46926560
vn -0.27621482 0.48365579 -0.83053143
vn -0.66486743 0.43838371 -0.60479006
vn -0.97900079 -0.20368697 -0.00831084
vn -0.78774292 0.48374681 0.38137923
vn 0.49968776 0.44658466 -0.74220906
vn 0.99972569 -0.02228754 0.00719788
vn 0.35705873 -0.66000599 0.66098499
vn 0.01667679 -0.76596766 -0.64266276
vn -0.62776494 0.54107969 -0.55959267
vn -0.72963088 -0.53496289 -0.42597357
vn -0.99097415 0.00264292 0.13402703
vn -0.20984927 -0.48571388 0.84855483
vn -0.02588555 0.85380259 0.51995296
vn 0.75182586 0.52832480 0.39450068
vn 0.00000795 -0.78876865 -0.61469018
vn 0.00000000 -0.78875845 -0.61470327
vn -0.49946411 -0.51396996 0.69740267
vn -0.23095660 -0.70939756 0.66589350
vn -0.55409415 -0.54373961 0.63033872
vn 0.44049692 -0.50588702 0.74164735
vn 0.05476297 -0.36043607 0.93117499
vn -0.00770461 -0.79571702 0.60561957
vn -0.04460978 -0.42671939 0.90328320
vn -0.06975384 0.07681955 0.99460201
vn 0.23590972 0.41172730 -0.88024271
vn -0.00316698 0.39989910 -0.91655370
vn -0.16369913 0.68154629 -0.71323016
vn -0.03350997 0.11432928 -0.99287758
vn -0.02567690 -0.83324892 -0.55230149
vn -0.23008487 0.50174384 -0.83385495
vn -0.98539804 0.00858218 -0.17005016
vn -0.70430371 0.58448245 0.40291011
vn 0.24997736 0.68332836 -0.68598373
vn 0.62049536 0.49438847 -0.60874095
vn 0.97484349 0.07733416 0.20904448
vn 0.80490316 -0.47316579 -0.35811315
vn -0.45649442 0.61839046 -0.63969218
vn -0.99975351 0.00276286 0.02202927
vn -0.32815758 -0.47692098 0.81538885
vn -0.01513364 0.81932764 0.57312581
vn 0.58293368 0.41816190 -0.69665555
vn 0.74588066 0.53618805 0.39517643
vn 0.99001314 -0.13904442 0.02325141
vn 0.18584583 -0.69898360 0.69056735
vn 0.02253977 -0.72269930 -0.69079497
vn -0.76374564 -0.50932096 -0.39659142
vn 0.00000037 0.79791847 0.60276539
vn 0.00000000 0.79791950 0.60276403
vn 0.45641055 -0.55521475 0.69528843
vn 0.20729246 -0.46136315 0.86265513
vn 0.50941342 -0.48389291 0.71157967
vn -0.40020876 -0.59764388 0.69473358
vn -0.04313911 -0.80710590 0.58882857
vn 0.00712710 -0.37860458 0.92553108
vn 0.03954773 -0.76177177 0.64663726
vn 0.06205848 -0.98101761 0.18372041
f 1//1 2//2 3//3
f 2//2 1//1 4//4
f 4//4 5//5 2//2
f 5//5 4//4 6//6
f 6//6 7//7 5//5
f 7//7 6//6 8//8
f 9//9 10//10 11//11
f 10//10 9//9 12//12
f 11//11 13//13 14//14
f 13//13 11//11 10//10
f 14//14 15//15 16//16
f 15//15 14//14 13//13
f 16//16 17//17 18//18
f 17//17 16//16 15//15
f 19//19 17//17 20//20
f 17//17 19//19 18//18
f 3//3 20//20 1//1
f 20//20 3//3 19//19
f 21//21 7//7 8//8
f 7//7 21//21 22//22
f 22//22 14//14 7//7
f 9//9 14//14 22//22
f 14//14 9//9 11//11
f 2//2 19//19 3//3
f 2//2 18//18 19//19
f 2//2 16//16 18//18
f 5//5 16//16 2//2
f 7//7 16//16 5//5
f 16//16 7//7 14//14
f 12//12 23//23 24//24
f 23//23 12//12 9//9
f 20//20 4//4 1//1
f 17//17 4//4 20//20
f 15//15 4//4 17//17
f 15//15 6//6 4//4
f 15//15 8//8 6//6
f 13//13 8//8 15//15
f 13//13 21//21 8//8
f 10//10 21//21 13//13
f 21//21 10//10 12//12
f 25//25 22//22 21//21
f 22//22 25//25 26//26
f 27//27 26//26 25//25
f 26//26 27//27 28//28
f 28//28 22//22 26//26
f 28//28 9//9 22//22
f 29//29 9//9 28//28
f 9//9 29//29 23//23
f 29//29 24//24 23//23
f 24//24 29//29 30//30
f 21//21 27//27 25//25
f 12//12 27//27 21//21
f 24//24 27//27 12//12
f 27//27 24//24 30//30
f 29//29 27//27 30//30
f 27//27 29//29 28//28
f 31//31 32//32 33//33
f 32//32 31//31 34//34
f 35//35 36//36 37//37
f 36//36 35//35 38//38
f 39//39 40//40 41//41
f 40//40 39//39 42//42
f 38//38 41//41 36//36
f 41//41 38//38 39//39
f 42//42 33//33 40//40
f 33//33 42//42 31//31
f 43//43 31//31 42//42
f 31//31 43//43 44//44
f 44//44 34//34 31//31
f 34//34 44//44 45//45
f 46//46 45//45 47//47
f 45//45 46//46 34//34
f 46//46 48//48 49//49
f 48//48 46//46 47//47
f 50//50 51//51 52//52
f 51//51 50//50 53//53
f 54//54 53//53 50//50
f 53//53 54//54 35//35
f 54//54 38//38 35//35
f 38//38 54//54 55//55
f 55//55 39//39 38//38
f 39//39 55//55 56//56
f 56//56 42//42 39//39
f 42//42 56//56 43//43
f 57//57 58//58 59//59
f 58//58 57//57 60//60
f 49//49 57//57 59//59
f 57//57 49//49 48//48
f 61//61 49//49 62//62
f 49//49 61//61 46//46
f 32//32 46//46 61//61
f 46//46 32//32 34//34
f 63//63 33//33 32//32
f 33//33 63//63 64//64
f 53//53 37//37 65//65
f 37//37 53//53 35//35
f 66//66 36//36 67//67
f 36//36 66//66 37//37
f 68//68 40//40 69//69
f 40//40 68//68 41//41
f 67//67 41//41 68//68
f 41//41 67//67 36//36
f 64//64 40//40 33//33
f 40//40 64//64 69//69
f 70//70 51//51 71//71
f 51//51 70//70 52//52
f 51//51 65//65 72//72
f 65//65 51//51 53//53
f 73//73 71//71 74//74
f 71//71 73//73 70//70
f 45//45 48//48 47//47
f 45//45 57//57 48//48
f 44//44 57//57 45//45
f 44//44 60//60 57//57
f 43//43 60//60 44//44
f 43//43 75//75 60//60
f 56//56 75//75 43//43
f 56//56 76//76 75//75
f 55//55 76//76 56//56
f 55//55 73//73 76//76
f 54//54 73//73 55//55
f 54//54 70//70 73//73
f 50//50 70//70 54//54
f 70//70 50//50 52//52
f 60//60 77//77 58//58
f 77//77 60//60 75//75
f 59//59 78//78 79//79
f 78//78 59//59 58//58
f 79//79 49//49 59//59
f 49//49 79//79 62//62
f 80//80 61//61 62//62
f 61//61 80//80 81//81
f 81//81 32//32 61//61
f 32//32 81//81 63//63
f 63//63 82//82 64//64
f 83//83 37//37 66//66
f 37//37 83//83 65//65
f 84//84 66//66 67//67
f 85//85 69//69 86//86
f 69//69 85//85 68//68
f 87//87 68//68 85//85
f 84//84 68//68 87//87
f 68//68 84//84 67//67
f 88//88 64//64 82//82
f 88//88 69//69 64//64
f 69//69 88//88 86//86
f 76//76 74//74 89//89
f 74//74 76//76 73//73
f 51//51 90//90 71//71
f 90//90 51//51 72//72
f 91//91 65//65 83//83
f 65//65 91//91 72//72
f 74//74 90//90 92//92
f 90//90 74//74 71//71
f 75//75 89//89 77//77
f 89//89 75//75 76//76
f 58//58 93//93 78//78
f 93//93 58//58 77//77
f 78//78 94//94 79//79
f 94//94 78//78 95//95
f 79//79 80//80 62//62
f 80//80 79//79 94//94
f 96//96 81//81 80//80
f 81//81 96//96 97//97
f 97//97 63//63 81//81
f 97//97 82//82 63//63
f 82//82 97//97 88//88
f 98//98 84//84 87//87
f 98//98 66//66 84//84
f 66//66 98//98 83//83
f 99//99 86//86 88//88
f 99//99 85//85 86//86
f 85//85 99//99 87//87
f 89//89 92//92 100//100
f 92//92 89//89 74//74
f 101//101 83//83 98//98
f 83//83 101//101 91//91
f 90//90 91//91 102//102
f 91//91 90//90 72//72
f 92//92 102//102 103//103
f 102//102 92//92 90//90
f 77//77 100//100 93//93
f 100//100 77//77 89//89
f 93//93 95//95 78//78
f 95//95 93//93 104//104
f 94//94 95//95 105//105
f 94//94 96//96 80//80
f 105//105 96//96 94//94
f 96//96 105//105 106//106
f 96//96 88//88 97//97
f 106//106 88//88 96//96
f 88//88 106//106 99//99
f 107//107 87//87 99//99
f 107//107 98//98 87//87
f 98//98 107//107 101//101
f 100//100 103//103 108//108
f 103//103 100//100 92//92
f 109//109 101//101 107//107
f 102//102 101//101 109//109
f 101//101 102//102 91//91
f 109//109 103//103 102//102
f 93//93 108//108 104//104
f 108//108 93//93 100//100
f 95//95 106//106 105//105
f 104//104 106//106 95//95
f 106//106 104//104 110//110
f 110//110 99//99 106//106
f 111//111 99//99 110//110
f 99//99 111//111 107//107
f 108//108 107//107 111//111
f 108//108 109//109 107//107
f 109//109 108//108 103//103
f 104//104 111//111 110//110
f 111//111 104//104 108//108
f 112//112 113//113 114//114
f 113//113 112//112 115//115
f 112//112 116//116 117//117
f 116//116 112//112 114//114
f 113//113 118//118 119//119
f 118//118 113//113 115//115
f 118//118 116//116 119//119
f 116//116 118//118 117//117
f 120//120 121//121 122//122
f 121//121 120//120 123//123
f 120//120 124//124 125//125
f 124//124 120//120 122//122
f 121//121 126//126 127//127
f 126//126 121//121 123//123
f 126//126 124//124 127//127
f 124//124 126//126 125//125
f 128//128 129//129 130//130
f 129//129 128//128 131//131
f 128//128 132//132 133//133
f 132//132 128//128 130//130
f 129//129 134//134 135//135
f 134//134 129//129 131//131
f 134//134 132//132 135//135
f 132//132 134//134 133//133
f 136//136 137//137 138//138
f 137//137 136//136 139//139
f 136//136 140//140 141//141
f 140//140 136//136 138//138
f 137//137 142//142 143//143
f 142//142 137//137 139//139
f 142//142 140//140 143//143
f 140//140 142//142 141//141
f 144//144 145//145 146//146
f 147//147 144//144 148//148
f 144//144 147//147 145//145
f 145//145 149//149 146//146
f 146//146 150//150 151//151
f 144//144 146//146 152//152
f 144//144 153//153 154//154
f 153//153 144//144 152//152
f 155//155 148//148 144//144
f 147//147 149//149 145//145
f 149//149 147//147 148//148
f 149//149 156//156 146//146
f 156//156 149//149 157//157
f 156//156 150//150 146//146
f 150//150 156//156 157//157
f 158//158 151//151 150//150
f 146//146 151//151 159//159
f 152//152 146//146 159//159
f 160//160 161//161 162//162
f 161//161 160//160 152//152
f 153//153 162//162 154//154
f 153//153 160//160 162//162
f 160//160 153//153 152//152
f 155//155 144//144 154//154
f 155//155 163//163 148//148
f 148//148 164//164 149//149
f 149//149 165//165 157//157
f 158//158 150//150 157//157
f 159//159 158//158 166//166
f 158//158 159//159 151//151
f 152//152 166//166 167//167
f 166//166 152//152 159//159
f 161//161 152//152 167//167
f 161//161 168//168 162//162
f 168//168 161//161 169//169
f 168//168 154//154 162//162
f 154//154 168//168 169//169
f 170//170 155//155 154//154
f 155//155 170//170 163//163
f 148//148 163//163 164//164
f 164//164 165//165 149//149
f 171//171 165//165 172//172
f 165//165 171//171 157//157
f 158//158 171//171 172//172
f 171//171 158//158 157//157
f 166//166 158//158 173//173
f 167//167 169//169 161//161
f 169//169 167//167 166//166
f 169//169 170//170 154//154
f 170//170 169//169 163//163
f 163//163 174//174 164//164
f 175//175 165//165 164//164
f 165//165 175//175 172//172
f 173//173 158//158 172//172
f 169//169 166//166 173//173
f 169//169 174//174 163//163
f 175//175 174//174 172//172
f 174//174 175//175 164//164
f 169//169 173//173 172//172
f 169//169 172//172 174//174
f 176//176 177//177 178//178
f 179//179 176//176 180//180
f 176//176 179//179 177//177
f 177//177 181//181 178//178
f 178//178 182//182 183//183
f 176//176 178//178 184//184
f 176//176 185//185 186//186
f 185//185 176//176 184//184
f 187//187 180//180 176//176
f 179//179 181//181 177//177
f 181//181 179//179 180//180
f 181//181 188//188 178//178
f 188//188 181//181 189//189
f 188//188 182//182 178//178
f 182//182 188//188 189//189
f 190//190 183//183 182//182
f 178//178 183//183 191//191
f 184//184 178//178 191//191
f 192//192 193//193 194//194
f 193//193 192//192 184//184
f 185//185 194//194 186//186
f 185//185 192//192 194//194
f 192//192 185//185 184//184
f 187//187 176//176 186//186
f 187//187 195//195 180//180
f 180//180 196//196 181//181
f 181//181 197//197 189//189
f 190//190 182//182 189//189
f 191//191 190//190 198//198
f 190//190 191//191 183//183
f 184//184 198//198 199//199
f 198//198 184//184 191//191
f 193//193 184//184 199//199
f 193//193 200//200 194//194
f 200//200 193//193 201//201
f 200//200 186//186 194//194
f 186//186 200//200 201//201
f 202//202 187//187 186//186
f 187//187 202//202 195//195
f 180//180 195//195 196//196
f 196//196 197//197 181//181
f 203//203 197//197 204//204
f 197//197 203//203 189//189
f 190//190 203//203 204//204
f 203//203 190//190 189//189
f 198//198 190//190 205//205
f 199//199 201//201 193//193
f 201//201 199//199 198//198
f 201//201 202//202 186//186
f 202//202 201//201 195//195
f 195//195 206//206 196//196
f 207//207 197//197 196//196
f 197//197 207//207 204//204
f 205//205 190//190 204//204
f 201//201 198//198 205//205
f 201//201 206//206 195//195
f 207//207 206//206 204//204
f 206//206 207//207 196//196
f 201//201 205//205 204//204
f 201//201 204//204 206//206