# https://github.com/mikedh/trimesh
v 0.06112500 0.00634900 0.04922200
v 0.05803900 0.00634900 0.04892000
v 0.05746000 0.00634900 0.04899700
v 0.05858000 0.00634900 0.04869600
v 0.06079100 0.00634900 0.04841000
v 0.05904500 0.00634900 0.04833900
v 0.05922400 0.00634900 0.04810700
v 0.05940100 0.00634900 0.04787500
v 0.05951500 0.00634900 0.04760400
v 0.06067500 0.00634900 0.04753900
v 0.05962600 0.00634900 0.04733400
v 0.05970300 0.00634900 0.04675300
v 0.06079100 0.00634900 0.04666800
v 0.05962600 0.00634900 0.04617200
v 0.06112500 0.00634900 0.04585600
v 0.05940100 0.00634900 0.04563100
v 0.05904500 0.00634900 0.04516700
v 0.06166100 0.00634900 0.04515900
v 0.05858000 0.00634900 0.04481000
v 0.06235900 0.00634900 0.04462400
v 0.05803900 0.00634900 0.04458600
v 0.05746000 0.00634900 0.04450900
v 0.06317100 0.00634900 0.04428800
v 0.06852800 0.00634900 0.05314800
v 0.06404000 0.00634900 0.05090500
v -0.06833900 0.00634900 0.05314800
v 0.06491200 0.00634900 0.05079000
v 0.06572400 0.00634900 0.05045400
v 0.06642200 0.00634900 0.04991900
v 0.06695500 0.00634900 0.04922200
v 0.06729100 0.00634900 0.04841000
v 0.06740500 0.00634900 0.04753900
v 0.06729100 0.00634900 0.04666800
v 0.06491200 0.00634900 0.04428800
v 0.06404000 0.00634900 0.04269600
v 0.06404000 0.00634900 0.04417300
v 0.06572400 0.00634900 0.04462400
v 0.06642200 0.00634900 0.04515900
v 0.06491200 0.00634900 0.04258100
v 0.06695500 0.00634900 0.04585600
v 0.06572400 0.00634900 0.04224500
v 0.06642200 0.00634900 0.04171000
v 0.06695500 0.00634900 0.04101300
v 0.06729100 0.00634900 0.04020200
v 0.06740500 0.00634900 0.03933100
v 0.06491200 0.00634900 0.03608000
v 0.06852800 0.00634900 -0.03099200
v 0.06404000 0.00634900 0.03596500
v 0.06572400 0.00634900 0.03641600
v 0.06642200 0.00634900 0.03695100
v 0.06695500 0.00634900 0.03764800
v 0.06729100 0.00634900 0.03846000
v 0.06317100 0.00634900 0.05079000
v 0.06235900 0.00634900 0.05045400
v 0.06166100 0.00634900 0.04991900
v 0.05687900 0.00634900 0.04892000
v 0.05633800 0.00634900 0.04869600
v 0.05587300 0.00634900 0.04833900
v 0.05551700 0.00634900 0.04787500
v 0.05529200 0.00634900 0.04733400
v 0.05521500 0.00634900 0.04675300
v 0.05529200 0.00634900 0.04617200
v 0.05551700 0.00634900 0.04563100
v 0.05587300 0.00634900 0.04516700
v 0.05633800 0.00634900 0.04481000
v 0.05687900 0.00634900 0.04458600
v 0.06317100 0.00634900 0.04258100
v 0.06235900 0.00634900 0.04224500
v 0.06166100 0.00634900 0.04171000
v 0.06112500 0.00634900 0.04101300
v 0.06079100 0.00634900 0.04020200
v 0.06067500 0.00634900 0.03933100
v 0.06079100 0.00634900 0.03846000
v 0.06112500 0.00634900 0.03764800
v 0.06166100 0.00634900 0.03695100
v 0.06235900 0.00634900 0.03641600
v 0.06317100 0.00634900 0.03608000
v -0.06833900 0.00634900 -0.03099200
v 0.05725000 0.00634900 -0.03317300
v -0.05706000 0.00634900 -0.03317300
v 0.04590300 0.00634900 -0.03496100
v -0.04571300 0.00634900 -0.03496100
v 0.03449900 0.00634900 -0.03635400
v -0.03430900 0.00634900 -0.03635400
v 0.02305200 0.00634900 -0.03735100
v -0.02286500 0.00634900 -0.03735100
v 0.01158000 0.00634900 -0.03794900
v -0.01139300 0.00634900 -0.03794900
v 0.00009400 0.00634900 -0.03814900
v -0.06833900 -0.00599100 -0.03099200
v -0.06833900 -0.00599100 0.05314800
v -0.06272900 -0.00599100 0.04753900
v 0.06852800 -0.00599100 0.05314800
v -0.06272900 -0.00599100 -0.02538200
v 0.06404000 -0.00599100 -0.02538200
v 0.06404000 -0.00599100 0.04753900
v 0.06852800 -0.00599100 -0.03099200
v -0.05706000 -0.00599100 -0.03317300
v 0.05725000 -0.00599100 -0.03317300
v -0.04571300 -0.00599100 -0.03496100
v 0.04590300 -0.00599100 -0.03496100
v -0.03430900 -0.00599100 -0.03635400
v 0.03449900 -0.00599100 -0.03635400
v 0.02305200 -0.00599100 -0.03735100
v -0.02286500 -0.00599100 -0.03735100
v -0.01139300 -0.00599100 -0.03794900
v 0.01158000 -0.00599100 -0.03794900
v 0.00009400 -0.00599100 -0.03814900
v 0.00319400 0.00117700 -0.01677400
v 0.00319400 -0.00081900 -0.01677400
v 0.00332500 0.00017900 -0.01677200
v 0.00280900 0.00210600 -0.01678100
v 0.00280900 -0.00174900 -0.01678100
v 0.00219700 0.00290500 -0.01679100
v 0.00219700 -0.00254700 -0.01679100
v 0.00139900 0.00351700 -0.01680500
v 0.00139900 -0.00316000 -0.01680500
v 0.00047000 0.00390200 -0.01682100
v 0.00047000 -0.00354500 -0.01682100
v -0.00052800 0.00403400 -0.01683900
v -0.00052800 -0.00367600 -0.01683900
v -0.00152500 0.00390200 -0.01685600
v -0.00152500 -0.00354500 -0.01685600
v -0.00245700 0.00351700 -0.01687200
v -0.00245700 -0.00316000 -0.01687200
v -0.00325500 0.00290500 -0.01688600
v -0.00325500 -0.00254700 -0.01688600
v -0.00386700 0.00210600 -0.01689700
v -0.00386700 -0.00174900 -0.01689700
v -0.00425200 0.00117700 -0.01690300
v -0.00425200 -0.00081900 -0.01690300
v -0.00438300 0.00017900 -0.01690600
v 0.00375800 -0.00081900 -0.04930500
v 0.00375800 0.00117700 -0.04930600
v 0.00389200 0.00017900 -0.04930400
v 0.00337300 0.00210600 -0.04931400
v 0.00337300 -0.00174900 -0.04931100
v 0.00276100 0.00290500 -0.04932500
v 0.00276100 -0.00254700 -0.04932100
v 0.00196300 0.00351700 -0.04933900
v 0.00196300 -0.00316000 -0.04933500
v 0.00103400 0.00390200 -0.04935500
v 0.00103400 -0.00354500 -0.04935100
v 0.00003700 0.00403400 -0.04937300
v 0.00003700 -0.00367600 -0.04936800
v -0.00096100 0.00390200 -0.04939000
v -0.00096100 -0.00354500 -0.04938500
v -0.00189000 0.00351700 -0.04940600
v -0.00189000 -0.00316000 -0.04940100
v -0.00269000 0.00290500 -0.04941900
v -0.00269000 -0.00254700 -0.04941600
v -0.00330000 0.00210600 -0.04942900
v -0.00330000 -0.00174900 -0.04942700
v -0.00368800 0.00117700 -0.04943500
v -0.00368800 -0.00081900 -0.04943400
v -0.00381900 0.00017900 -0.04943700
v 0.02484200 -0.00354500 -0.05275100
v 0.02471600 -0.00354500 -0.04938500
v 0.02484200 -0.00354500 -0.04938500
v 0.02471600 -0.00354500 -0.05275100
v 0.06433100 0.00634900 0.04862200
v 0.06374900 0.00634900 0.04862200
v 0.06404000 0.00634900 0.04866100
v 0.06460100 0.00634900 0.04851000
v 0.06348100 0.00634900 0.04851000
v 0.06483500 0.00634900 0.04833200
v 0.06324800 0.00634900 0.04833200
v 0.06501200 0.00634900 0.04810000
v 0.06306800 0.00634900 0.04810000
v 0.06512600 0.00634900 0.04782900
v 0.06295700 0.00634900 0.04782900
v 0.06516300 0.00634900 0.04753900
v 0.06292000 0.00634900 0.04753900
v 0.06512600 0.00634900 0.04724900
v 0.06295700 0.00634900 0.04724900
v 0.06501200 0.00634900 0.04697800
v 0.06306800 0.00634900 0.04697800
v 0.06483500 0.00634900 0.04674600
v 0.06324800 0.00634900 0.04674600
v 0.06460100 0.00634900 0.04656700
v 0.06348100 0.00634900 0.04656700
v 0.06433100 0.00634900 0.04645500
v 0.06374900 0.00634900 0.04645500
v 0.06404000 0.00634900 0.04641700
v 0.06462100 0.00634900 0.04149800
v 0.06346200 0.00634900 0.04149800
v 0.06404000 0.00634900 0.04157400
v 0.06516300 0.00634900 0.04127400
v 0.06292000 0.00634900 0.04127400
v 0.06562700 0.00634900 0.04091700
v 0.06245600 0.00634900 0.04091700
v 0.06598300 0.00634900 0.04045300
v 0.06209700 0.00634900 0.04045300
v 0.06187400 0.00634900 0.03991100
v 0.06620800 0.00634900 0.03991100
v 0.06628500 0.00634900 0.03933100
v 0.06179700 0.00634900 0.03933100
v 0.06620800 0.00634900 0.03875000
v 0.06187400 0.00634900 0.03875000
v 0.06598300 0.00634900 0.03820900
v 0.06209700 0.00634900 0.03820900
v 0.06562700 0.00634900 0.03774400
v 0.06245600 0.00634900 0.03774400
v 0.06516300 0.00634900 0.03738800
v 0.06292000 0.00634900 0.03738800
v 0.06462100 0.00634900 0.03716300
v 0.06346200 0.00634900 0.03716300
v 0.06404000 0.00634900 0.03708700
v 0.02484200 -0.01476300 -0.05275100
v -0.02676300 -0.01476300 -0.05275100
v 0.02471600 0.00879600 -0.05275100
v -0.02676300 0.00879600 -0.05275100
v -0.02676300 0.00879600 -0.04938500
v 0.02471600 0.00879600 -0.04938500
v 0.02484200 -0.01476300 -0.04938500
v -0.02676300 -0.01476300 -0.04938500
v 0.05955200 0.00634900 0.04731400
v 0.05951500 0.00634900 0.04702400
v 0.05940100 0.00634900 0.04675300
v 0.05922400 0.00634900 0.04652100
v 0.05899100 0.00634900 0.04634200
v 0.05872000 0.00634900 0.04623000
v 0.05842900 0.00634900 0.04619200
v 0.05842900 0.00634900 0.04843600
v 0.05872000 0.00634900 0.04839800
v 0.05899100 0.00634900 0.04828500
v 0.05814100 0.00634900 0.04839800
v 0.05787100 0.00634900 0.04828500
v 0.05763700 0.00634900 0.04810700
v 0.05746000 0.00634900 0.04787500
v 0.05734600 0.00634900 0.04760400
v 0.05730900 0.00634900 0.04731400
v 0.05734600 0.00634900 0.04702400
v 0.05746000 0.00634900 0.04675300
v 0.05763700 0.00634900 0.04652100
v 0.05787100 0.00634900 0.04634200
v 0.05814100 0.00634900 0.04623000
v 0.05842900 0.00634900 0.04787500
v 0.05857500 0.00634900 0.04785600
v 0.05871100 0.00634900 0.04780000
v 0.05882800 0.00634900 0.04771100
v 0.05891700 0.00634900 0.04759400
v 0.05897300 0.00634900 0.04745900
v 0.05899100 0.00634900 0.04731400
v 0.05897300 0.00634900 0.04716900
v 0.05891700 0.00634900 0.04703400
v 0.05882800 0.00634900 0.04691700
v 0.05871100 0.00634900 0.04682800
v 0.05857500 0.00634900 0.04677200
v 0.05842900 0.00634900 0.04675300
v 0.05828700 0.00634900 0.04785600
v 0.05815000 0.00634900 0.04780000
v 0.05803300 0.00634900 0.04771100
v 0.05794500 0.00634900 0.04759400
v 0.05788800 0.00634900 0.04745900
v 0.05787100 0.00634900 0.04731400
v 0.05788800 0.00634900 0.04716900
v 0.05794500 0.00634900 0.04703400
v 0.05803300 0.00634900 0.04691700
v 0.05815000 0.00634900 0.04682800
v 0.05828700 0.00634900 0.04677200
vn 0.00000000 1.00000000 0.00000000
vn 0.00000000 1.00000000 0.00000000
vn 0.00000000 1.00000000 0.00000000
vn 0.00000000 1.00000000 0.00000000
vn 0.00000000 1.00000000 0.00000000
vn 0.00000000 1.00000000 0.00000000
vn 0.00000000 1.00000000 0.00000000
vn 0.00000000 1.00000000 0.00000000
vn 0.00000000 1.00000000 0.00000000
vn 0.00000000 1.00000000 0.00000000
vn 0.00000000 1.00000000 0.00000000
vn 0.00000000 1.00000000 0.00000000
vn 0.00000000 1.00000000 0.00000000
vn 0.00000000 1.00000000 0.00000000
vn 0.00000000 1.00000000 0.00000000
vn 0.00000000 1.00000000 0.00000000
vn 0.00000000 1.00000000 0.00000000
vn 0.00000000 1.00000000 0.00000000
vn 0.00000000 1.00000000 0.00000000
vn 0.00000000 1.00000000 0.00000000
vn 0.00000000 1.00000000 0.00000000
vn 0.00000000 1.00000000 0.00000000
vn 0.00000000 1.00000000 0.00000000
vn 0.57735027 0.57735027 0.57735027
vn 0.00000000 1.00000000 0.00000000
vn -0.57735027 0.57735027 0.57735027
vn 0.00000000 1.00000000 0.00000000
vn 0.00000000 1.00000000 0.00000000
vn 0.00000000 1.00000000 0.00000000
vn 0.00000000 1.00000000 0.00000000
vn 0.00000000 1.00000000 0.00000000
vn 0.00000000 1.00000000 0.00000000
vn 0.00000000 1.00000000 0.00000000
vn 0.00000000 1.00000000 0.00000000
vn 0.00000000 1.00000000 0.00000000
vn 0.00000000 1.00000000 0.00000000
vn 0.00000000 1.00000000 0.00000000
vn 0.00000000 1.00000000 0.00000000
vn 0.00000000 1.00000000 0.00000000
vn 0.00000000 1.00000000 0.00000000
vn 0.00000000 1.00000000 0.00000000
vn 0.00000000 1.00000000 0.00000000
vn 0.00000000 1.00000000 0.00000000
vn 0.00000000 1.00000000 0.00000000
vn 0.00000000 1.00000000 0.00000000
vn 0.00000000 1.00000000 0.00000000
vn 0.62385309 0.58806623 -0.51476736
vn 0.00000000 1.00000000 0.00000000
vn 0.00000000 1.00000000 0.00000000
vn 0.00000000 1.00000000 0.00000000
vn 0.00000000 1.00000000 0.00000000
vn 0.00000000 1.00000000 0.00000000
vn 0.00000000 1.00000000 0.00000000
vn 0.00000000 1.00000000 0.00000000
vn 0.00000000 1.00000000 0.00000000
vn 0.00000000 1.00000000 0.00000000
vn 0.00000000 1.00000000 0.00000000
vn 0.00000000 1.00000000 0.00000000
vn 0.00000000 1.00000000 0.00000000
vn 0.00000000 1.00000000 0.00000000
vn 0.00000000 1.00000000 0.00000000
vn 0.00000000 1.00000000 0.00000000
vn 0.00000000 1.00000000 0.00000000
vn 0.00000000 1.00000000 0.00000000
vn 0.00000000 1.00000000 0.00000000
vn 0.00000000 1.00000000 0.00000000
vn 0.00000000 1.00000000 0.00000000
vn 0.00000000 1.00000000 0.00000000
vn 0.00000000 1.00000000 0.00000000
vn 0.00000000 1.00000000 0.00000000
vn 0.00000000 1.00000000 0.00000000
vn 0.00000000 1.00000000 0.00000000
vn 0.00000000 1.00000000 0.00000000
vn 0.00000000 1.00000000 0.00000000
vn 0.00000000 1.00000000 0.00000000
vn 0.00000000 1.00000000 0.00000000
vn 0.00000000 1.00000000 0.00000000
vn -0.62384939 0.58806524 -0.51477297
vn 0.12284699 0.70321844 -0.70028026
vn -0.12284088 0.70322028 -0.70027949
vn 0.09845032 0.70321800 -0.70412497
vn -0.09845032 0.70321800 -0.70412497
vn 0.07395784 0.70322596 -0.70710925
vn -0.07396559 0.70322848 -0.70710593
vn 0.04935834 0.70321172 -0.70926513
vn -0.04936655 0.70320920 -0.70926706
vn 0.02469774 0.70322608 -0.71053719
vn -0.02469721 0.70322591 -0.71053738
vn 0.00000054 0.70320928 -0.71098292
vn -0.62384939 -0.58806524 -0.51477297
vn -0.57735027 -0.57735027 0.57735027
vn 0.00000000 -1.00000000 0.00000000
vn 0.57735027 -0.57735027 0.57735027
vn 0.00000000 -1.00000000 0.00000000
vn 0.00000000 -1.00000000 0.00000000
vn 0.00000000 -1.00000000 0.00000000
vn 0.62385309 -0.58806623 -0.51476736
vn -0.12284088 -0.70322028 -0.70027949
vn 0.12284699 -0.70321844 -0.70028026
vn -0.09845032 -0.70321800 -0.70412497
vn 0.09845032 -0.70321800 -0.70412497
vn -0.07396559 -0.70322848 -0.70710593
vn 0.07395784 -0.70322596 -0.70710925
vn 0.04935834 -0.70321172 -0.70926513
vn -0.04936655 -0.70320920 -0.70926706
vn -0.02469721 -0.70322591 -0.71053738
vn 0.02469774 -0.70322608 -0.71053719
vn 0.00000054 -0.70320928 -0.71098292
vn 0.69712345 0.19005491 0.69130169
vn 0.69710327 -0.18992703 0.69135718
vn 0.72300697 0.00002134 0.69084074
vn 0.62442472 0.36683940 0.68958149
vn 0.62446624 -0.36695725 0.68948117
vn 0.50751313 0.51909035 0.68773223
vn 0.50746418 -0.51894845 0.68787543
vn 0.35524020 0.63590519 0.68514888
vn 0.35552956 -0.63582517 0.68507305
vn 0.17823487 0.70907225 0.68223814
vn 0.17791178 -0.70925621 0.68213124
vn -0.01194063 0.73448334 0.67852167
vn -0.01194406 -0.73429578 0.67872458
vn -0.20148650 0.70911086 0.67569592
vn -0.20115982 -0.70929525 0.67559971
vn -0.37841379 0.63616521 0.67238147
vn -0.37870097 -0.63608591 0.67229479
vn -0.53120176 0.51910796 0.66959063
vn -0.53117217 -0.51896447 0.66972532
vn -0.64782528 0.36689756 0.66761411
vn -0.64784301 -0.36704010 0.66751853
vn -0.72035483 0.19012297 0.66703986
vn -0.72034852 -0.18995581 0.66709430
vn -0.74770409 -0.00000012 0.66403207
vn 0.72041000 -0.19128437 -0.66664813
vn 0.72125421 0.19054958 -0.66594536
vn 0.74435128 -0.00028211 -0.66778821
vn 0.64753194 0.36648024 -0.66812769
vn 0.64750989 -0.36742393 -0.66763058
vn 0.53101701 0.51884427 -0.66994146
vn 0.53121154 -0.51929010 -0.66944163
vn 0.37865857 0.63565088 -0.67273000
vn 0.37908814 -0.63596315 -0.67219272
vn 0.20228530 0.70898024 -0.67559431
vn 0.20166085 -0.70947015 -0.67526662
vn 0.01192571 0.73408236 -0.67895572
vn 0.01163628 -0.73439515 -0.67862240
vn -0.17856854 0.70891720 -0.68231201
vn -0.17833092 -0.70953127 -0.68173563
vn -0.35486083 0.63564225 -0.68558933
vn -0.35507071 -0.63628894 -0.68488041
vn -0.50812469 0.51887718 -0.68744147
vn -0.50727952 -0.51942450 -0.68765229
vn -0.62361650 0.36670354 -0.69038466
vn -0.62341150 -0.36745933 -0.69016791
vn -0.69768934 0.19070278 -0.69055198
vn -0.69756030 -0.19116310 -0.69055507
vn -0.72169933 -0.00031618 -0.69220660
vn 0.57735027 0.57735027 -0.57735027
vn 0.30151134 0.30151134 0.90453403
vn 0.57735027 0.57735027 0.57735027
vn 0.30151134 0.30151134 -0.90453403
vn 0.00000000 1.00000000 0.00000000
vn 0.00000000 1.00000000 0.00000000
vn 0.00000000 1.00000000 0.00000000
vn 0.00000000 1.00000000 0.00000000
vn 0.00000000 1.00000000 0.00000000
vn 0.00000000 1.00000000 0.00000000
vn 0.00000000 1.00000000 0.00000000
vn 0.00000000 1.00000000 0.00000000
vn 0.00000000 1.00000000 0.00000000
vn 0.00000000 1.00000000 0.00000000
vn 0.00000000 1.00000000 0.00000000
vn 0.00000000 1.00000000 0.00000000
vn 0.00000000 1.00000000 0.00000000
vn 0.00000000 1.00000000 0.00000000
vn 0.00000000 1.00000000 0.00000000
vn 0.00000000 1.00000000 0.00000000
vn 0.00000000 1.00000000 0.00000000
vn 0.00000000 1.00000000 0.00000000
vn 0.00000000 1.00000000 0.00000000
vn 0.00000000 1.00000000 0.00000000
vn 0.00000000 1.00000000 0.00000000
vn 0.00000000 1.00000000 0.00000000
vn 0.00000000 1.00000000 0.00000000
vn 0.00000000 1.00000000 0.00000000
vn 0.00000000 1.00000000 0.00000000
vn 0.00000000 1.00000000 0.00000000
vn 0.00000000 1.00000000 0.00000000
vn 0.00000000 1.00000000 0.00000000
vn 0.00000000 1.00000000 0.00000000
vn 0.00000000 1.00000000 0.00000000
vn 0.00000000 1.00000000 0.00000000
vn 0.00000000 1.00000000 0.00000000
vn 0.00000000 1.00000000 0.00000000
vn 0.00000000 1.00000000 0.00000000
vn 0.00000000 1.00000000 0.00000000
vn 0.00000000 1.00000000 0.00000000
vn 0.00000000 1.00000000 0.00000000
vn 0.00000000 1.00000000 0.00000000
vn 0.00000000 1.00000000 0.00000000
vn 0.00000000 1.00000000 0.00000000
vn 0.00000000 1.00000000 0.00000000
vn 0.00000000 1.00000000 0.00000000
vn 0.00000000 1.00000000 0.00000000
vn 0.00000000 1.00000000 0.00000000
vn 0.00000000 1.00000000 0.00000000
vn 0.00000000 1.00000000 0.00000000
vn 0.00000000 1.00000000 0.00000000
vn 0.00000000 1.00000000 0.00000000
vn 0.57735027 -0.57735027 -0.57735027
vn -0.57735027 -0.57735027 -0.57735027
vn 0.57735027 0.57735027 -0.57735027
vn -0.57735027 0.57735027 -0.57735027
vn -0.57735027 0.57735027 0.57735027
vn 0.57735027 0.57735027 0.57735027
vn 0.57735027 -0.57735027 0.57735027
vn -0.57735027 -0.57735027 0.57735027
vn 0.00000000 1.00000000 0.00000000
vn 0.00000000 1.00000000 0.00000000
vn 0.00000000 1.00000000 0.00000000
vn 0.00000000 1.00000000 0.00000000
vn 0.00000000 1.00000000 0.00000000
vn 0.00000000 1.00000000 0.00000000
vn 0.00000000 1.00000000 0.00000000
vn 0.00000000 1.00000000 0.00000000
vn 0.00000000 1.00000000 0.00000000
vn 0.00000000 1.00000000 0.00000000
vn 0.00000000 1.00000000 0.00000000
vn 0.00000000 1.00000000 0.00000000
vn 0.00000000 1.00000000 0.00000000
vn 0.00000000 1.00000000 0.00000000
vn 0.00000000 1.00000000 0.00000000
vn 0.00000000 1.00000000 0.00000000
vn 0.00000000 1.00000000 0.00000000
vn 0.00000000 1.00000000 0.00000000
vn 0.00000000 1.00000000 0.00000000
vn 0.00000000 1.00000000 0.00000000
vn 0.00000000 1.00000000 0.00000000
vn 0.00000000 1.00000000 0.00000000
vn 0.00000000 1.00000000 0.00000000
vn 0.00000000 1.00000000 0.00000000
vn 0.00000000 1.00000000 0.00000000
vn 0.00000000 1.00000000 0.00000000
vn 0.00000000 1.00000000 0.00000000
vn 0.00000000 1.00000000 0.00000000
vn 0.00000000 1.00000000 0.00000000
vn 0.00000000 1.00000000 0.00000000
vn 0.00000000 1.00000000 0.00000000
vn 0.00000000 1.00000000 0.00000000
vn 0.00000000 1.00000000 0.00000000
vn 0.00000000 1.00000000 0.00000000
vn 0.00000000 1.00000000 0.00000000
vn 0.00000000 1.00000000 0.00000000
vn 0.00000000 1.00000000 0.00000000
vn 0.00000000 1.00000000 0.00000000
vn 0.00000000 1.00000000 0.00000000
vn 0.00000000 1.00000000 0.00000000
vn 0.00000000 1.00000000 0.00000000
vn 0.00000000 1.00000000 0.00000000
vn 0.00000000 1.00000000 0.00000000
vn 0.00000000 1.00000000 0.00000000
vn 0.00000000 1.00000000 0.00000000
f 1//1 2//2 3//3
f 1//1 4//4 2//2
f 5//5 4//4 1//1
f 5//5 6//6 4//4
f 5//5 7//7 6//6
f 5//5 8//8 7//7
f 5//5 9//9 8//8
f 10//10 9//9 5//5
f 10//10 11//11 9//9
f 10//10 12//12 11//11
f 13//13 12//12 10//10
f 13//13 14//14 12//12
f 15//15 14//14 13//13
f 15//15 16//16 14//14
f 15//15 17//17 16//16
f 18//18 17//17 15//15
f 18//18 19//19 17//17
f 20//20 19//19 18//18
f 20//20 21//21 19//19
f 20//20 22//22 21//21
f 22//22 20//20 23//23
f 24//24 25//25 26//26
f 24//24 27//27 25//25
f 24//24 28//28 27//27
f 24//24 29//29 28//28
f 24//24 30//30 29//29
f 24//24 31//31 30//30
f 24//24 32//32 31//31
f 24//24 33//33 32//32
f 34//34 35//35 36//36
f 37//37 35//35 34//34
f 38//38 35//35 37//37
f 38//38 39//39 35//35
f 40//40 39//39 38//38
f 40//40 41//41 39//39
f 33//33 41//41 40//40
f 33//33 42//42 41//41
f 24//24 42//42 33//33
f 24//24 43//43 42//42
f 24//24 44//44 43//43
f 24//24 45//45 44//44
f 46//46 47//47 48//48
f 49//49 47//47 46//46
f 50//50 47//47 49//49
f 51//51 47//47 50//50
f 52//52 47//47 51//51
f 45//45 47//47 52//52
f 47//47 45//45 24//24
f 53//53 26//26 25//25
f 54//54 26//26 53//53
f 55//55 26//26 54//54
f 1//1 26//26 55//55
f 3//3 26//26 1//1
f 56//56 26//26 3//3
f 57//57 26//26 56//56
f 58//58 26//26 57//57
f 59//59 26//26 58//58
f 60//60 26//26 59//59
f 61//61 26//26 60//60
f 62//62 26//26 61//61
f 63//63 26//26 62//62
f 64//64 26//26 63//63
f 65//65 26//26 64//64
f 66//66 26//26 65//65
f 22//22 26//26 66//66
f 36//36 22//22 23//23
f 35//35 22//22 36//36
f 35//35 26//26 22//22
f 67//67 26//26 35//35
f 68//68 26//26 67//67
f 69//69 26//26 68//68
f 70//70 26//26 69//69
f 71//71 26//26 70//70
f 72//72 26//26 71//71
f 73//73 26//26 72//72
f 74//74 26//26 73//73
f 75//75 26//26 74//74
f 76//76 26//26 75//75
f 77//77 26//26 76//76
f 48//48 26//26 77//77
f 47//47 26//26 48//48
f 47//47 78//78 26//26
f 79//79 78//78 47//47
f 79//79 80//80 78//78
f 81//81 80//80 79//79
f 81//81 82//82 80//80
f 83//83 82//82 81//81
f 83//83 84//84 82//82
f 85//85 84//84 83//83
f 85//85 86//86 84//84
f 87//87 86//86 85//85
f 87//87 88//88 86//86
f 88//88 87//87 89//89
f 90//90 26//26 78//78
f 26//26 90//90 91//91
f 91//91 92//92 93//93
f 91//91 94//94 92//92
f 94//94 90//90 95//95
f 90//90 94//94 91//91
f 96//96 93//93 92//92
f 95//95 93//93 96//96
f 95//95 97//97 93//93
f 90//90 97//97 95//95
f 98//98 97//97 90//90
f 98//98 99//99 97//97
f 100//100 99//99 98//98
f 100//100 101//101 99//99
f 102//102 101//101 100//100
f 102//102 103//103 101//101
f 102//102 104//104 103//103
f 105//105 104//104 102//102
f 106//106 104//104 105//105
f 106//106 107//107 104//104
f 107//107 106//106 108//108
f 109//109 110//110 111//111
f 112//112 110//110 109//109
f 112//112 113//113 110//110
f 114//114 113//113 112//112
f 114//114 115//115 113//113
f 116//116 115//115 114//114
f 116//116 117//117 115//115
f 118//118 117//117 116//116
f 118//118 119//119 117//117
f 120//120 119//119 118//118
f 120//120 121//121 119//119
f 122//122 121//121 120//120
f 122//122 123//123 121//121
f 124//124 123//123 122//122
f 124//124 125//125 123//123
f 126//126 125//125 124//124
f 126//126 127//127 125//125
f 128//128 127//127 126//126
f 128//128 129//129 127//127
f 130//130 129//129 128//128
f 130//130 131//131 129//129
f 131//131 130//130 132//132
f 133//133 134//134 135//135
f 133//133 136//136 134//134
f 137//137 136//136 133//133
f 137//137 138//138 136//136
f 139//139 138//138 137//137
f 139//139 140//140 138//138
f 141//141 140//140 139//139
f 141//141 142//142 140//140
f 143//143 142//142 141//141
f 143//143 144//144 142//142
f 145//145 144//144 143//143
f 145//145 146//146 144//144
f 147//147 146//146 145//145
f 147//147 148//148 146//146
f 149//149 148//148 147//147
f 149//149 150//150 148//148
f 151//151 150//150 149//149
f 151//151 152//152 150//150
f 153//153 152//152 151//151
f 153//153 154//154 152//152
f 155//155 154//154 153//153
f 154//154 155//155 156//156
f 157//157 158//158 159//159
f 158//158 157//157 160//160
f 161//161 162//162 163//163
f 164//164 162//162 161//161
f 164//164 165//165 162//162
f 166//166 165//165 164//164
f 166//166 167//167 165//165
f 168//168 167//167 166//166
f 168//168 169//169 167//167
f 170//170 169//169 168//168
f 170//170 171//171 169//169
f 172//172 171//171 170//170
f 172//172 173//173 171//171
f 174//174 173//173 172//172
f 174//174 175//175 173//173
f 176//176 175//175 174//174
f 176//176 177//177 175//175
f 178//178 177//177 176//176
f 178//178 179//179 177//177
f 180//180 179//179 178//178
f 180//180 181//181 179//179
f 182//182 181//181 180//180
f 182//182 183//183 181//181
f 183//183 182//182 184//184
f 185//185 186//186 187//187
f 188//188 186//186 185//185
f 188//188 189//189 186//186
f 190//190 189//189 188//188
f 190//190 191//191 189//189
f 192//192 191//191 190//190
f 192//192 193//193 191//191
f 192//192 194//194 193//193
f 195//195 194//194 192//192
f 196//196 194//194 195//195
f 196//196 197//197 194//194
f 198//198 197//197 196//196
f 198//198 199//199 197//197
f 200//200 199//199 198//198
f 200//200 201//201 199//199
f 202//202 201//201 200//200
f 202//202 203//203 201//201
f 204//204 203//203 202//202
f 204//204 205//205 203//203
f 206//206 205//205 204//204
f 206//206 207//207 205//205
f 207//207 206//206 208//208
f 92//92 95//95 96//96
f 95//95 92//92 94//94
f 26//26 93//93 24//24
f 93//93 26//26 91//91
f 93//93 47//47 24//24
f 47//47 93//93 97//97
f 99//99 47//47 97//97
f 47//47 99//99 79//79
f 101//101 79//79 99//99
f 79//79 101//101 81//81
f 103//103 81//81 101//101
f 81//81 103//103 83//83
f 104//104 83//83 103//103
f 83//83 104//104 85//85
f 107//107 85//85 104//104
f 85//85 107//107 87//87
f 108//108 87//87 107//107
f 87//87 108//108 89//89
f 106//106 89//89 108//108
f 89//89 106//106 88//88
f 105//105 88//88 106//106
f 88//88 105//105 86//86
f 102//102 86//86 105//105
f 86//86 102//102 84//84
f 100//100 84//84 102//102
f 84//84 100//100 82//82
f 98//98 82//82 100//100
f 82//82 98//98 80//80
f 90//90 80//80 98//98
f 80//80 90//90 78//78
f 125//125 147//147 123//123
f 147//147 125//125 149//149
f 123//123 145//145 121//121
f 145//145 123//123 147//147
f 127//127 149//149 125//125
f 149//149 127//127 151//151
f 121//121 143//143 119//119
f 143//143 121//121 145//145
f 153//153 127//127 129//129
f 127//127 153//153 151//151
f 119//119 141//141 117//117
f 141//141 119//119 143//143
f 155//155 129//129 131//131
f 129//129 155//155 153//153
f 117//117 139//139 115//115
f 139//139 117//117 141//141
f 156//156 131//131 132//132
f 131//131 156//156 155//155
f 115//115 137//137 113//113
f 137//137 115//115 139//139
f 154//154 132//132 130//130
f 132//132 154//154 156//156
f 113//113 133//133 110//110
f 133//133 113//113 137//137
f 152//152 130//130 128//128
f 130//130 152//152 154//154
f 110//110 135//135 111//111
f 135//135 110//110 133//133
f 150//150 128//128 126//126
f 128//128 150//150 152//152
f 111//111 134//134 109//109
f 134//134 111//111 135//135
f 148//148 126//126 124//124
f 126//126 148//148 150//150
f 109//109 136//136 112//112
f 136//136 109//109 134//134
f 146//146 124//124 122//122
f 124//124 146//146 148//148
f 112//112 138//138 114//114
f 138//138 112//112 136//136
f 144//144 122//122 120//120
f 122//122 144//144 146//146
f 138//138 116//116 114//114
f 116//116 138//138 140//140
f 142//142 120//120 118//118
f 120//120 142//142 144//144
f 140//140 118//118 116//116
f 118//118 140//140 142//142
f 209//209 160//160 157//157
f 210//210 160//160 209//209
f 210//210 211//211 160//160
f 211//211 210//210 212//212
f 211//211 213//213 214//214
f 213//213 211//211 212//212
f 158//158 211//211 214//214
f 211//211 158//158 160//160
f 215//215 157//157 159//159
f 157//157 215//215 209//209
f 210//210 215//215 216//216
f 215//215 210//210 209//209
f 210//210 213//213 212//212
f 213//213 210//210 216//216
f 214//214 213//213 158//158
f 158//158 215//215 159//159
f 213//213 215//215 158//158
f 215//215 213//213 216//216
f 27//27 53//53 25//25
f 28//28 53//53 27//27
f 28//28 54//54 53//53
f 29//29 54//54 28//28
f 29//29 55//55 54//54
f 30//30 55//55 29//29
f 30//30 1//1 55//55
f 30//30 163//163 1//1
f 30//30 161//161 163//163
f 30//30 164//164 161//161
f 31//31 164//164 30//30
f 31//31 166//166 164//164
f 31//31 168//168 166//166
f 31//31 170//170 168//168
f 32//32 170//170 31//31
f 32//32 172//172 170//170
f 32//32 174//174 172//172
f 32//32 176//176 174//174
f 32//32 178//178 176//176
f 33//33 178//178 32//32
f 33//33 180//180 178//178
f 33//33 182//182 180//180
f 33//33 184//184 182//182
f 184//184 33//33 40//40
f 162//162 1//1 163//163
f 165//165 1//1 162//162
f 165//165 5//5 1//1
f 167//167 5//5 165//165
f 169//169 5//5 167//167
f 171//171 5//5 169//169
f 173//173 5//5 171//171
f 173//173 10//10 5//5
f 175//175 10//10 173//173
f 177//177 10//10 175//175
f 179//179 10//10 177//177
f 179//179 13//13 10//10
f 181//181 13//13 179//179
f 183//183 13//13 181//181
f 184//184 13//13 183//183
f 40//40 13//13 184//184
f 40//40 15//15 13//13
f 38//38 15//15 40//40
f 38//38 18//18 15//15
f 37//37 18//18 38//38
f 37//37 20//20 18//18
f 34//34 20//20 37//37
f 34//34 23//23 20//20
f 23//23 34//34 36//36
f 39//39 67//67 35//35
f 41//41 67//67 39//39
f 41//41 68//68 67//67
f 42//42 68//68 41//41
f 42//42 69//69 68//68
f 42//42 187//187 69//69
f 42//42 185//185 187//187
f 42//42 188//188 185//185
f 43//43 188//188 42//42
f 43//43 190//190 188//188
f 43//43 192//192 190//190
f 44//44 192//192 43//43
f 44//44 195//195 192//192
f 45//45 195//195 44//44
f 45//45 196//196 195//195
f 45//45 198//198 196//196
f 52//52 198//198 45//45
f 52//52 200//200 198//198
f 52//52 202//202 200//200
f 51//51 202//202 52//52
f 51//51 204//204 202//202
f 51//51 206//206 204//204
f 206//206 50//50 208//208
f 50//50 206//206 51//51
f 186//186 69//69 187//187
f 189//189 69//69 186//186
f 189//189 70//70 69//69
f 191//191 70//70 189//189
f 193//193 70//70 191//191
f 193//193 71//71 70//70
f 194//194 71//71 193//193
f 197//197 71//71 194//194
f 197//197 72//72 71//71
f 199//199 72//72 197//197
f 199//199 73//73 72//72
f 201//201 73//73 199//199
f 203//203 73//73 201//201
f 203//203 74//74 73//73
f 205//205 74//74 203//203
f 207//207 74//74 205//205
f 207//207 75//75 74//74
f 208//208 75//75 207//207
f 50//50 75//75 208//208
f 49//49 75//75 50//50
f 49//49 76//76 75//75
f 46//46 76//76 49//49
f 46//46 77//77 76//76
f 77//77 46//46 48//48
f 11//11 217//217 9//9
f 11//11 218//218 217//217
f 12//12 218//218 11//11
f 12//12 219//219 218//218
f 12//12 220//220 219//219
f 12//12 221//221 220//220
f 222//222 14//14 223//223
f 221//221 14//14 222//222
f 14//14 221//221 12//12
f 2//2 56//56 3//3
f 4//4 56//56 2//2
f 4//4 57//57 56//56
f 4//4 224//224 57//57
f 4//4 225//225 224//224
f 6//6 225//225 4//4
f 6//6 226//226 225//225
f 226//226 6//6 7//7
f 227//227 57//57 224//224
f 227//227 58//58 57//57
f 228//228 58//58 227//227
f 229//229 58//58 228//228
f 230//230 58//58 229//229
f 230//230 59//59 58//58
f 231//231 59//59 230//230
f 231//231 60//60 59//59
f 232//232 60//60 231//231
f 233//233 60//60 232//232
f 234//234 60//60 233//233
f 234//234 61//61 60//60
f 235//235 61//61 234//234
f 236//236 61//61 235//235
f 237//237 61//61 236//236
f 237//237 62//62 61//61
f 223//223 62//62 237//237
f 14//14 62//62 223//223
f 16//16 62//62 14//14
f 16//16 63//63 62//62
f 17//17 63//63 16//16
f 17//17 64//64 63//63
f 19//19 64//64 17//17
f 19//19 65//65 64//64
f 21//21 65//65 19//19
f 21//21 66//66 65//65
f 66//66 21//21 22//22
f 225//225 227//227 224//224
f 226//226 227//227 225//225
f 226//226 228//228 227//227
f 7//7 228//228 226//226
f 7//7 229//229 228//228
f 8//8 229//229 7//7
f 8//8 230//230 229//229
f 8//8 238//238 230//230
f 8//8 239//239 238//238
f 8//8 240//240 239//239
f 8//8 241//241 240//240
f 9//9 241//241 8//8
f 9//9 242//242 241//241
f 9//9 243//243 242//242
f 217//217 243//243 9//9
f 217//217 244//244 243//243
f 217//217 245//245 244//244
f 217//217 246//246 245//245
f 218//218 246//246 217//217
f 218//218 247//247 246//246
f 218//218 248//248 247//247
f 218//218 249//249 248//248
f 249//249 219//219 250//250
f 219//219 249//249 218//218
f 251//251 230//230 238//238
f 252//252 230//230 251//251
f 253//253 230//230 252//252
f 253//253 231//231 230//230
f 254//254 231//231 253//253
f 255//255 231//231 254//254
f 256//256 231//231 255//255
f 256//256 232//232 231//231
f 257//257 232//232 256//256
f 258//258 232//232 257//257
f 258//258 233//233 232//232
f 259//259 233//233 258//258
f 260//260 233//233 259//259
f 261//261 233//233 260//260
f 261//261 234//234 233//233
f 250//250 234//234 261//261
f 219//219 234//234 250//250
f 220//220 234//234 219//219
f 220//220 235//235 234//234
f 221//221 235//235 220//220
f 221//221 236//236 235//235
f 222//222 236//236 221//221
f 222//222 237//237 236//236
f 237//237 222//222 223//223
f 239//239 251//251 238//238
f 240//240 251//251 239//239
f 240//240 252//252 251//251
f 241//241 252//252 240//240
f 241//241 253//253 252//252
f 242//242 253//253 241//241
f 242//242 254//254 253//253
f 243//243 254//254 242//242
f 243//243 255//255 254//254
f 244//244 255//255 243//243
f 244//244 256//256 255//255
f 245//245 256//256 244//244
f 245//245 257//257 256//256
f 246//246 257//257 245//245
f 246//246 258//258 257//257
f 247//247 258//258 246//246
f 247//247 259//259 258//258
f 248//248 259//259 247//247
f 248//248 260//260 259//259
f 249//249 260//260 248//248
f 249//249 261//261 260//260
f 261//261 249//249 250//250