# https://github.com/mikedh/trimesh
v -0.16334800 0.02119300 -0.02436800
v -0.16334800 0.02907000 0.00635100
v -0.16334800 0.02907000 -0.02436800
v -0.16334800 -0.04578200 0.00635100
v -0.16334800 -0.05132600 -0.02436800
v -0.16334800 -0.05920200 -0.02436800
v -0.16334800 -0.05920200 0.00635100
v -0.15547200 -0.05920200 -0.02436800
v -0.15606300 -0.05861200 -0.02436800
v -0.15547200 -0.05132600 -0.02436800
v -0.16275800 -0.05861200 -0.02436800
v -0.16275800 -0.05191700 -0.02436800
v -0.15606300 -0.05191700 -0.02436800
v 0.01884600 0.02907000 -0.02436800
v 0.01884600 0.02907000 0.00635100
v -0.15547200 0.02907000 -0.02436800
v 0.02873300 0.02907000 -0.01483500
v 0.02449800 0.02907000 0.00635100
v 0.02873300 0.02907000 0.00635100
v 0.02449800 0.02907000 -0.01483500
v -0.15547200 0.02119300 -0.02436800
v 0.11700600 -0.05920200 -0.02436800
v 0.11624200 -0.05209000 -0.02436800
v 0.11700600 0.11864700 -0.02436800
v 0.11624200 -0.05843800 -0.02436800
v 0.10989200 -0.05843800 -0.02436800
v 0.10912800 -0.05132600 -0.02436800
v 0.10989200 -0.05209000 -0.02436800
v 0.10912800 0.11864700 -0.02436800
v 0.02873300 0.02907000 -0.02436800
v 0.03660900 0.11864700 -0.02436800
v 0.03660900 0.02907000 -0.02436800
v 0.02873300 0.11864700 -0.02436800
v 0.02873300 0.03330500 0.00635100
v 0.02873300 0.03330500 -0.01483500
v 0.03535000 0.11990600 -0.02436800
v 0.03660900 0.12652300 -0.02436800
v 0.02999400 0.11990600 -0.02436800
v 0.02999400 0.12526400 -0.02436800
v 0.03535000 0.12526400 -0.02436800
v 0.02873300 0.12652300 -0.02436800
v 0.10912800 0.12652300 -0.02436800
v 0.11700600 0.12652300 0.00635100
v 0.11700600 0.12652300 -0.02436800
v 0.11700600 0.03189800 0.00635100
v 0.11700600 -0.00553000 0.00635100
v 0.11700600 -0.04578200 0.00635100
v 0.11700600 -0.05920200 0.00635100
v 0.02873300 0.12652300 0.00635100
v 0.03535000 0.12526400 -0.03390200
v 0.03535000 0.11990600 -0.03390200
v 0.02999400 0.11990600 -0.03390200
v 0.02999400 0.12526400 -0.03390200
v -0.16275800 -0.05861200 -0.03390200
v -0.16275800 -0.05191700 -0.03390200
v -0.15606300 -0.05191700 -0.03390200
v -0.15606300 -0.05861200 -0.03390200
v 0.02954000 0.02200100 -0.03390200
v 0.02954000 0.02826200 -0.02436800
v 0.02954000 0.02826200 -0.03390200
v 0.02954000 0.02200100 -0.02436800
v 0.03580200 0.02826200 -0.03390200
v 0.03580200 0.02826200 -0.02436800
v 0.03580200 0.02200100 -0.02436800
v 0.03580200 0.02200100 -0.03390200
v -0.15596500 0.02168700 -0.02436800
v -0.15596500 0.02857600 -0.03390200
v -0.15596500 0.02857600 -0.02436800
v -0.15596500 0.02168700 -0.03390200
v -0.16285500 0.02168700 -0.03390200
v -0.16285500 0.02168700 -0.02436800
v -0.16285500 0.02857600 -0.02436800
v -0.16285500 0.02857600 -0.03390200
v 0.11623600 0.12575500 -0.03390200
v 0.10989800 0.12575500 -0.02436800
v 0.11623600 0.12575500 -0.02436800
v 0.10989800 0.12575500 -0.03390200
v 0.11623600 0.11941500 -0.02436800
v 0.11623600 0.11941500 -0.03390200
v 0.10989800 0.11941500 -0.03390200
v 0.10989800 0.11941500 -0.02436800
v 0.11624200 -0.05209000 -0.03390200
v 0.11624200 -0.05843800 -0.03390200
v 0.10989200 -0.05209000 -0.03390200
v 0.10989200 -0.05843800 -0.03390200
v 0.09935100 0.03189800 0.03554700
v 0.11700600 -0.04578200 0.03554700
v 0.11700600 0.03189800 0.03554700
v 0.09935100 -0.04578200 0.03554700
v 0.11700600 -0.06343700 0.03554700
v -0.16334800 -0.04578200 0.03554700
v -0.16334800 -0.06343700 0.03554700
v 0.10164100 -0.04812500 0.03812900
v 0.11466200 -0.04812500 0.03812900
v 0.09935100 -0.04578200 0.00635100
v 0.03660900 0.02119300 -0.02436800
v 0.02873300 0.02119300 -0.02436800
v 0.01884600 0.02119300 -0.02436800
v -0.15547200 -0.05132600 0.00635100
v 0.10912800 -0.05132600 0.00635100
v 0.02449800 0.03330500 -0.01483500
v 0.10164100 0.02940500 0.03812900
v 0.11466200 0.02940500 0.03812900
v 0.12123900 0.13075800 -0.01483500
v 0.02449800 0.13075800 0.00223800
v 0.12123900 0.13075800 0.00223800
v 0.02449800 0.13075800 -0.01483500
v 0.02449800 0.03330500 0.00223800
v -0.16758300 0.03330500 0.00223800
v -0.16758300 0.03330500 -0.01483500
v 0.09935100 0.03189800 0.00635100
v 0.12123900 -0.06343700 0.00223800
v 0.12123900 -0.06343700 -0.01483500
v -0.16758300 -0.06343700 -0.01483500
v 0.11700600 -0.06343700 0.00635100
v 0.11466200 -0.06109400 0.03812900
v -0.16758300 -0.06343700 0.00223800
v -0.16100500 -0.04812500 0.03812900
v -0.16100500 -0.06109400 0.03812900
v -0.16334800 -0.06343700 0.00635100
vn -0.70710678 0.00000000 -0.70710678
vn -0.48126469 0.48126469 0.73264493
vn -0.57735027 0.57735027 -0.57735027
vn -0.80178373 0.26726124 0.53452248
vn -0.70710678 0.00000000 -0.70710678
vn -0.57735027 -0.57735027 -0.57735027
vn -0.94868330 -0.31622777 0.00000000
vn 0.00000000 -0.70710678 -0.70710678
vn 0.30151134 -0.30151134 -0.90453403
vn 0.00000000 0.31622777 -0.94868330
vn -0.30151134 -0.30151134 -0.90453403
vn -0.30151134 0.30151134 -0.90453403
vn 0.30151134 0.30151134 -0.90453403
vn 0.00000000 0.70710678 -0.70710678
vn 0.00000000 0.70281375 0.71137390
vn 0.00000000 0.70710678 -0.70710678
vn -0.66666667 0.66666667 0.33333333
vn 0.00000000 0.70281375 0.71137390
vn -0.32605518 0.32605518 0.88734212
vn 0.00000000 0.97014250 0.24253563
vn 0.00000000 0.00000000 -1.00000000
vn 0.57735027 -0.57735027 -0.57735027
vn 0.30151134 0.30151134 -0.90453403
vn 0.70710678 0.00000000 -0.70710678
vn 0.30151134 -0.30151134 -0.90453403
vn -0.30151134 -0.30151134 -0.90453403
vn 0.00000000 0.31622777 -0.94868330
vn -0.30151134 0.30151134 -0.90453403
vn 0.00000000 0.00000000 -1.00000000
vn -0.30151134 0.30151134 -0.90453403
vn 0.00000000 0.00000000 -1.00000000
vn 0.00000000 0.00000000 -1.00000000
vn -0.70710678 0.00000000 -0.70710678
vn -0.70710678 0.00000000 0.70710678
vn -0.97014250 0.00000000 0.24253563
vn 0.30151134 -0.30151134 -0.90453403
vn 0.00000000 0.70710678 -0.70710678
vn -0.30151134 -0.30151134 -0.90453403
vn -0.30151134 0.30151134 -0.90453403
vn 0.30151134 0.30151134 -0.90453403
vn -0.57735027 0.57735027 -0.57735027
vn 0.00000000 0.00000000 -1.00000000
vn 0.48134821 0.48125387 0.73259717
vn 0.57735027 0.57735027 -0.57735027
vn 0.70288331 0.00000000 0.71130517
vn 0.92110474 0.00000000 0.38931487
vn 0.77549918 0.17650110 0.60617521
vn 0.92912594 -0.21146605 0.30332671
vn -0.48126469 0.48126469 0.73264493
vn 0.57735027 0.57735027 -0.57735027
vn 0.57735027 -0.57735027 -0.57735027
vn -0.57735027 -0.57735027 -0.57735027
vn -0.57735027 0.57735027 -0.57735027
vn -0.57735027 -0.57735027 -0.57735027
vn -0.57735027 0.57735027 -0.57735027
vn 0.57735027 0.57735027 -0.57735027
vn 0.57735027 -0.57735027 -0.57735027
vn -0.57735027 -0.57735027 -0.57735027
vn -0.30151134 0.30151134 -0.90453403
vn -0.57735027 0.57735027 -0.57735027
vn -0.30151134 -0.30151134 -0.90453403
vn 0.57735027 0.57735027 -0.57735027
vn 0.30151134 0.30151134 -0.90453403
vn 0.30151134 -0.30151134 -0.90453403
vn 0.57735027 -0.57735027 -0.57735027
vn 0.30151134 -0.30151134 -0.90453403
vn 0.57735027 0.57735027 -0.57735027
vn 0.30151134 0.30151134 -0.90453403
vn 0.57735027 -0.57735027 -0.57735027
vn -0.57735027 -0.57735027 -0.57735027
vn -0.30151134 -0.30151134 -0.90453403
vn -0.30151134 0.30151134 -0.90453403
vn -0.57735027 0.57735027 -0.57735027
vn 0.57735027 0.57735027 -0.57735027
vn -0.30151134 0.30151134 -0.90453403
vn 0.30151134 0.30151134 -0.90453403
vn -0.57735027 0.57735027 -0.57735027
vn 0.30151134 -0.30151134 -0.90453403
vn 0.57735027 -0.57735027 -0.57735027
vn -0.57735027 -0.57735027 -0.57735027
vn -0.30151134 -0.30151134 -0.90453403
vn 0.57735027 0.57735027 -0.57735027
vn 0.57735027 -0.57735027 -0.57735027
vn -0.57735027 0.57735027 -0.57735027
vn -0.57735027 -0.57735027 -0.57735027
vn -0.23066106 0.23532594 0.94414892
vn 0.52356725 0.30844594 0.79419043
vn 0.22937348 0.23274080 0.94510292
vn -0.16150829 0.54468279 0.82294334
vn 0.52843821 -0.52842149 0.66447256
vn -0.52844759 0.52844759 0.66444434
vn -0.52844759 -0.52844759 0.66444434
vn -0.09277000 0.29607335 0.95064941
vn 0.31964844 0.22008926 0.92162118
vn 0.00000000 0.44721360 0.89442719
vn 0.00000000 0.00000000 -1.00000000
vn 0.00000000 0.00000000 -1.00000000
vn 0.00000000 0.00000000 -1.00000000
vn 0.00000000 1.00000000 0.00000000
vn 0.00000000 1.00000000 0.00000000
vn -0.40824829 0.40824829 -0.81649658
vn -0.32577930 0.30503848 0.89488512
vn 0.32065291 0.30556773 0.89655456
vn 0.57735027 0.57735027 -0.57735027
vn -0.64931467 0.64931467 0.39595569
vn 0.64931493 0.64933688 0.39591886
vn -0.57735027 0.57735027 -0.57735027
vn -0.57438407 0.57438407 0.58323741
vn -0.64931467 0.64931467 0.39595569
vn -0.57735027 0.57735027 -0.57735027
vn 0.00000000 0.00000000 1.00000000
vn 0.71601235 -0.62907963 0.30263035
vn 0.57735027 -0.57735027 -0.57735027
vn -0.57735027 -0.57735027 -0.57735027
vn 0.55777043 -0.82477325 -0.09295817
vn 0.31908123 -0.31918506 0.89236095
vn -0.71599105 -0.62906028 0.30272097
vn -0.31917470 0.31917470 0.89233123
vn -0.31917470 -0.31917470 0.89233123
vn -0.55771216 -0.82481880 -0.09290367
f 1//1 2//2 3//3
f 1//1 4//4 2//2
f 5//5 4//4 1//1
f 6//6 4//4 5//5
f 4//4 6//6 7//7
f 8//8 9//9 10//10
f 8//8 11//11 9//9
f 11//11 6//6 12//12
f 6//6 11//11 8//8
f 13//13 10//10 9//9
f 12//12 10//10 13//13
f 12//12 5//5 10//10
f 5//5 12//12 6//6
f 14//14 2//2 15//15
f 16//16 2//2 14//14
f 2//2 16//16 3//3
f 17//17 18//18 19//19
f 18//18 17//17 20//20
f 5//5 21//21 10//10
f 21//21 5//5 1//1
f 22//22 23//23 24//24
f 22//22 25//25 23//23
f 22//22 26//26 25//25
f 26//26 27//27 28//28
f 8//8 26//26 22//22
f 8//8 27//27 26//26
f 27//27 8//8 10//10
f 28//28 24//24 23//23
f 27//27 24//24 28//28
f 24//24 27//27 29//29
f 17//17 14//14 20//20
f 14//14 17//17 30//30
f 20//20 15//15 18//18
f 15//15 20//20 14//14
f 30//30 31//31 32//32
f 31//31 30//30 33//33
f 17//17 34//34 35//35
f 34//34 17//17 19//19
f 31//31 36//36 37//37
f 31//31 38//38 36//36
f 38//38 33//33 39//39
f 33//33 38//38 31//31
f 40//40 37//37 36//36
f 39//39 37//37 40//40
f 39//39 41//41 37//37
f 41//41 39//39 33//33
f 31//31 42//42 29//29
f 42//42 31//31 37//37
f 43//43 24//24 44//44
f 45//45 24//24 43//43
f 46//46 24//24 45//45
f 47//47 24//24 46//46
f 48//48 24//24 47//47
f 24//24 48//48 22//22
f 30//30 35//35 33//33
f 35//35 30//30 17//17
f 33//33 49//49 41//41
f 35//35 49//49 33//33
f 49//49 35//35 34//34
f 43//43 37//37 49//49
f 44//44 37//37 43//43
f 37//37 44//44 42//42
f 49//49 37//37 41//41
f 36//36 50//50 40//40
f 50//50 36//36 51//51
f 52//52 36//36 38//38
f 36//36 52//52 51//51
f 50//50 39//39 40//40
f 39//39 50//50 53//53
f 52//52 39//39 53//53
f 39//39 52//52 38//38
f 54//54 12//12 55//55
f 12//12 54//54 11//11
f 56//56 12//12 13//13
f 12//12 56//56 55//55
f 11//11 57//57 9//9
f 57//57 11//11 54//54
f 13//13 57//57 56//56
f 57//57 13//13 9//9
f 58//58 59//59 60//60
f 59//59 58//58 61//61
f 62//62 59//59 63//63
f 59//59 62//62 60//60
f 58//58 64//64 61//61
f 64//64 58//58 65//65
f 64//64 62//62 63//63
f 62//62 64//64 65//65
f 66//66 67//67 68//68
f 67//67 66//66 69//69
f 70//70 66//66 71//71
f 66//66 70//70 69//69
f 67//67 72//72 68//68
f 72//72 67//67 73//73
f 70//70 72//72 73//73
f 72//72 70//70 71//71
f 74//74 75//75 76//76
f 75//75 74//74 77//77
f 78//78 74//74 76//76
f 74//74 78//78 79//79
f 80//80 75//75 77//77
f 75//75 80//80 81//81
f 80//80 78//78 81//81
f 78//78 80//80 79//79
f 25//25 82//82 23//23
f 82//82 25//25 83//83
f 82//82 28//28 23//23
f 28//28 82//82 84//84
f 85//85 28//28 84//84
f 28//28 85//85 26//26
f 85//85 25//25 26//26
f 25//25 85//85 83//83
f 85//85 82//82 83//83
f 82//82 85//85 84//84
f 7//7 8//8 48//48
f 8//8 7//7 6//6
f 48//48 8//8 22//22
f 86//86 87//87 88//88
f 87//87 86//86 89//89
f 89//89 90//90 87//87
f 91//91 90//90 89//89
f 90//90 91//91 92//92
f 87//87 93//93 94//94
f 93//93 87//87 89//89
f 87//87 95//95 89//89
f 95//95 87//87 47//47
f 96//96 64//64 32//32
f 96//96 61//61 64//64
f 61//61 97//97 59//59
f 97//97 61//61 96//96
f 63//63 32//32 64//64
f 59//59 32//32 63//63
f 59//59 30//30 32//32
f 30//30 59//59 97//97
f 98//98 30//30 97//97
f 98//98 14//14 30//30
f 21//21 14//14 98//98
f 14//14 21//21 16//16
f 21//21 66//66 16//16
f 21//21 71//71 66//66
f 71//71 1//1 72//72
f 1//1 71//71 21//21
f 68//68 16//16 66//66
f 72//72 16//16 68//68
f 72//72 3//3 16//16
f 3//3 72//72 1//1
f 27//27 99//99 100//100
f 99//99 27//27 10//10
f 80//80 74//74 79//79
f 74//74 80//80 77//77
f 24//24 78//78 44//44
f 24//24 81//81 78//78
f 81//81 29//29 75//75
f 29//29 81//81 24//24
f 76//76 44//44 78//78
f 75//75 44//44 76//76
f 75//75 42//42 44//44
f 42//42 75//75 29//29
f 101//101 17//17 35//35
f 17//17 101//101 20//20
f 58//58 62//62 65//65
f 62//62 58//58 60//60
f 52//52 50//50 51//51
f 50//50 52//52 53//53
f 70//70 67//67 69//69
f 67//67 70//70 73//73
f 54//54 56//56 57//57
f 56//56 54//54 55//55
f 88//88 102//102 103//103
f 102//102 88//88 86//86
f 104//104 105//105 106//106
f 105//105 104//104 107//107
f 101//101 105//105 107//107
f 105//105 101//101 108//108
f 103//103 87//87 88//88
f 87//87 103//103 94//94
f 101//101 109//109 108//108
f 109//109 101//101 110//110
f 49//49 19//19 34//34
f 105//105 19//19 49//49
f 19//19 105//105 108//108
f 106//106 49//49 43//43
f 49//49 106//106 105//105
f 45//45 47//47 46//46
f 111//111 47//47 45//45
f 47//47 111//111 95//95
f 102//102 94//94 103//103
f 94//94 102//102 93//93
f 89//89 102//102 86//86
f 102//102 89//89 93//93
f 112//112 104//104 106//106
f 104//104 112//112 113//113
f 113//113 101//101 104//104
f 114//114 101//101 113//113
f 101//101 114//114 110//110
f 104//104 101//101 107//107
f 43//43 112//112 106//106
f 45//45 112//112 43//43
f 46//46 112//112 45//45
f 47//47 112//112 46//46
f 48//48 112//112 47//47
f 112//112 48//48 115//115
f 116//116 87//87 94//94
f 87//87 116//116 90//90
f 108//108 18//18 19//19
f 108//108 15//15 18//18
f 108//108 2//2 15//15
f 2//2 108//108 109//109
f 95//95 48//48 47//47
f 4//4 48//48 95//95
f 48//48 4//4 7//7
f 114//114 109//109 110//110
f 109//109 114//114 117//117
f 43//43 111//111 45//45
f 49//49 111//111 43//43
f 49//49 95//95 111//111
f 34//34 95//95 49//49
f 19//19 95//95 34//34
f 18//18 95//95 19//19
f 15//15 95//95 18//18
f 2//2 95//95 15//15
f 95//95 2//2 4//4
f 93//93 116//116 94//94
f 118//118 116//116 93//93
f 116//116 118//118 119//119
f 89//89 118//118 93//93
f 118//118 89//89 91//91
f 120//120 112//112 115//115
f 117//117 112//112 120//120
f 114//114 112//112 117//117
f 112//112 114//114 113//113
f 92//92 116//116 119//119
f 116//116 92//92 90//90
f 87//87 48//48 47//47
f 90//90 48//48 87//87
f 48//48 90//90 115//115
f 120//120 48//48 115//115
f 48//48 120//120 7//7
f 2//2 7//7 4//4
f 2//2 120//120 7//7
f 109//109 120//120 2//2
f 120//120 109//109 117//117
f 89//89 4//4 91//91
f 4//4 89//89 95//95
f 91//91 119//119 118//118
f 119//119 91//91 92//92
f 120//120 90//90 92//92
f 90//90 120//120 115//115
f 7//7 91//91 4//4
f 120//120 91//91 7//7
f 91//91 120//120 92//92
f 87//87 88//88 47//47
f 46//46 47//47 88//88
f 45//45 46//46 88//88
f 88//88 46//46 45//45
f 88//88 47//47 46//46
f 47//47 88//88 87//87
f 45//45 88//88 111//111
f 86//86 111//111 88//88
f 88//88 111//111 86//86
f 111//111 88//88 45//45
f 89//89 86//86 95//95
f 111//111 95//95 86//86
f 86//86 95//95 111//111
f 95//95 86//86 89//89