# https://github.com/mikedh/trimesh
v -0.00196700 0.05257700 0.09428500
v -0.00200800 0.05133600 -0.09275800
v -0.00200800 0.05133600 0.09304400
v -0.00196700 0.05257700 -0.09400000
v -0.00200800 -0.05109800 0.09304400
v -0.00200800 -0.03088200 0.05658300
v -0.00200800 -0.05109800 -0.09275800
v -0.00200800 0.03111900 0.05658300
v -0.00200800 0.03111900 -0.06012900
v -0.00200800 -0.03088200 -0.06012900
v -0.00196700 -0.05234000 0.09428500
v -0.00196700 -0.05234000 -0.09400000
v -0.00184500 0.05380600 0.09551400
v -0.00184500 0.05380600 -0.09522900
v -0.00184500 -0.05356800 0.09551400
v -0.00184500 -0.05356800 -0.09522900
v -0.00164300 0.05500800 0.09671600
v -0.00164300 0.05500800 -0.09643000
v 0.00455700 0.06264500 -0.10406800
v 0.00315900 0.06264500 0.10435300
v 0.00455700 0.06264500 0.10435300
v 0.00315900 0.06264500 -0.10406800
v -0.00164300 -0.05477000 0.09671600
v 0.00455700 -0.06240700 0.10435300
v 0.00315900 -0.06240700 0.10435300
v 0.00455700 -0.06240700 -0.10406800
v -0.00164300 -0.05477000 -0.09643000
v 0.00315900 -0.06240700 -0.10406800
v -0.00136200 0.05616900 0.09787700
v -0.00136200 0.05616900 -0.09759200
v 0.00242800 0.06219700 -0.10362000
v 0.00242800 0.06219700 0.10390500
v -0.00136200 -0.05593100 0.09787700
v 0.00242800 -0.06196000 0.10390500
v -0.00136200 -0.05593100 -0.09759200
v 0.00242800 -0.06196000 -0.10362000
v -0.00100700 0.05727700 0.09898500
v -0.00100700 0.05727700 -0.09870000
v 0.00173100 0.06163100 -0.10305400
v 0.00173100 0.06163100 0.10333900
v -0.00100700 -0.05704000 0.09898500
v 0.00173100 -0.06139400 0.10333900
v -0.00100700 -0.05704000 -0.09870000
v 0.00173100 -0.06139400 -0.10305400
v -0.00058000 0.05832100 0.10002900
v -0.00058000 0.05832100 -0.09974400
v 0.00107400 0.06095300 -0.10237500
v 0.00107400 0.06095300 0.10266100
v -0.00058000 -0.05808300 0.10002900
v 0.00107400 -0.06071500 0.10266100
v -0.00058000 -0.05808300 -0.09974400
v 0.00107400 -0.06071500 -0.10237500
v -0.00008800 0.05928800 0.10099600
v -0.00008800 0.05928800 -0.10071100
v 0.00046600 0.06016900 -0.10159100
v 0.00046600 0.06016900 0.10187700
v -0.00008800 -0.05905100 0.10099600
v 0.00046600 -0.05993100 0.10187700
v -0.00008800 -0.05905100 -0.10071100
v 0.00046600 -0.05993100 -0.10159100
v 0.00320200 0.02939600 -0.05840500
v -0.00200800 0.02939600 0.05485900
v 0.00320200 0.02939600 0.05485900
v -0.00200800 0.02939600 -0.05840500
v 0.00320200 -0.02915800 0.05485900
v -0.00200800 -0.02915800 0.05485900
v -0.00200800 -0.02915800 -0.05840500
v 0.00320200 -0.02915800 -0.05840500
v 0.00320200 0.03111900 0.05658300
v 0.00320200 -0.03088200 0.05658300
v 0.00320200 -0.03088200 -0.06012900
v 0.00320200 0.03111900 -0.06012900
v 0.00063600 0.02907100 -0.05760900
v -0.00334000 -0.02882200 0.05404900
v 0.00072200 -0.02824400 -0.05790200
v -0.00342500 0.02849200 0.05434200
v -0.00313200 -0.02824900 -0.05804100
v -0.00719300 -0.02882700 0.05390900
v -0.00321800 0.02906600 -0.05774800
v -0.00727900 0.02848700 0.05420200
v -0.00000300 0.03534200 -0.06544600
v -0.00401300 0.03534200 0.06189900
v -0.00000300 0.03534200 0.06189900
v -0.00401300 0.03534200 -0.06544600
v -0.00000300 -0.03510400 0.06189900
v -0.00401300 -0.03510400 0.06189900
v -0.00000300 -0.03510400 -0.06544600
v -0.00000300 -0.03212200 0.05891700
v -0.00000300 -0.03212200 -0.06246300
v -0.00000300 0.03235900 -0.06246300
v -0.00000300 0.03235900 0.05891700
v -0.00401300 -0.03510400 -0.06544600
v -0.00401300 -0.03212200 0.05891700
v -0.00401300 0.03235900 0.05891700
v -0.00401300 0.03235900 -0.06246300
v -0.00401300 -0.03212200 -0.06246300
v -0.00163200 -0.00577400 0.07614600
v -0.00063700 -0.00668600 0.07772500
v -0.00163200 -0.00598200 0.07772500
v -0.00063700 -0.00645400 0.07596400
v -0.00063700 -0.00645400 0.07948600
v -0.00163200 -0.00577400 0.07930500
v -0.00248700 -0.00419500 0.08021600
v -0.00163200 -0.00516500 0.08077600
v -0.00248700 -0.00469300 0.07901400
v -0.00248700 -0.00486300 0.07772500
v -0.00248700 -0.00469300 0.07643600
v -0.00248700 -0.00419500 0.07523500
v -0.00163200 -0.00516500 0.07467500
v -0.00063700 -0.00577400 0.07432300
v 0.00441600 -0.00170400 0.07772500
v 0.00441600 -0.00164200 0.07725300
v 0.00455700 0.00011900 0.07772500
v 0.00043100 -0.00692600 0.07772500
v 0.00043100 -0.00668600 0.07590200
v 0.00441600 -0.00164200 0.07819700
v 0.00043100 -0.00668600 0.07954900
v -0.00063700 -0.00577400 0.08112800
v -0.00248700 -0.00340300 0.08124800
v -0.00163200 -0.00419500 0.08203900
v -0.00314200 -0.00293200 0.07948600
v -0.00314200 -0.00237200 0.08021600
v -0.00314200 -0.00328300 0.07863700
v -0.00314200 -0.00340300 0.07772500
v -0.00314200 -0.00328300 0.07681400
v -0.00314200 -0.00293200 0.07596400
v -0.00248700 -0.00340300 0.07420300
v -0.00314200 -0.00237200 0.07523500
v -0.00163200 -0.00419500 0.07341100
v -0.00063700 -0.00469300 0.07291400
v 0.00441600 -0.00146000 0.07681400
v 0.00043100 -0.00598200 0.07420300
v 0.00400400 -0.00328300 0.07681400
v 0.00400400 -0.00340300 0.07772500
v 0.00149900 -0.00645400 0.07596400
v 0.00149900 -0.00668600 0.07772500
v 0.00441600 -0.00146000 0.07863700
v 0.00400400 -0.00328300 0.07863700
v 0.00149900 -0.00645400 0.07948600
v 0.00043100 -0.00598200 0.08124800
v -0.00063700 -0.00469300 0.08253700
v -0.00248700 -0.00237200 0.08203900
v -0.00163200 -0.00293200 0.08300900
v -0.00314200 -0.00164200 0.08077600
v -0.00355400 -0.00146000 0.07863700
v -0.00355400 -0.00117000 0.07901400
v -0.00355400 -0.00164200 0.07819700
v -0.00355400 -0.00170400 0.07772500
v -0.00355400 -0.00164200 0.07725300
v -0.00355400 -0.00146000 0.07681400
v -0.00355400 -0.00117000 0.07643600
v -0.00248700 -0.00237200 0.07341100
v -0.00314200 -0.00164200 0.07467500
v -0.00163200 -0.00293200 0.07244200
v -0.00063700 -0.00328300 0.07183200
v 0.00441600 -0.00117000 0.07643600
v 0.00043100 -0.00486300 0.07274400
v 0.00400400 -0.00293200 0.07596400
v 0.00149900 -0.00577400 0.07432300
v 0.00334800 -0.00469300 0.07643600
v 0.00334800 -0.00486300 0.07772500
v 0.00249400 -0.00577400 0.07614600
v 0.00249400 -0.00598200 0.07772500
v 0.00441600 -0.00117000 0.07901400
v 0.00400400 -0.00293200 0.07948600
v 0.00334800 -0.00469300 0.07901400
v 0.00249400 -0.00577400 0.07930500
v 0.00149900 -0.00577400 0.08112800
v 0.00043100 -0.00486300 0.08270700
v -0.00063700 -0.00328300 0.08361800
v -0.00244700 -0.00118400 0.08258700
v -0.00248700 -0.00117000 0.08253700
v -0.00163200 -0.00146000 0.08361800
v -0.00314200 -0.00118400 0.08096600
v -0.00336500 -0.00118400 0.07998200
v -0.00357900 -0.00118400 0.07847700
v -0.00359100 -0.00118400 0.07807400
v -0.00359500 -0.00118400 0.07772500
v -0.00359100 -0.00118400 0.07737600
v -0.00357900 -0.00118400 0.07697300
v -0.00336500 -0.00118400 0.07546900
v -0.00314200 -0.00118400 0.07448500
v -0.00248700 -0.00117000 0.07291400
v -0.00244700 -0.00118400 0.07286400
v -0.00163200 -0.00146000 0.07183200
v -0.00063700 -0.00164200 0.07115200
v 0.00441600 -0.00079300 0.07614600
v 0.00043100 -0.00340300 0.07162400
v 0.00400400 -0.00237200 0.07523500
v 0.00149900 -0.00469300 0.07291400
v 0.00334800 -0.00419500 0.07523500
v 0.00249400 -0.00516500 0.07467500
v 0.00441600 -0.00079300 0.07930500
v 0.00400400 -0.00237200 0.08021600
v 0.00334800 -0.00419500 0.08021600
v 0.00249400 -0.00516500 0.08077600
v 0.00149900 -0.00469300 0.08253700
v 0.00043100 -0.00340300 0.08382600
v -0.00063700 -0.00164200 0.08429800
v -0.00208400 -0.00118400 0.08306300
v -0.00208400 0.00011900 0.08323500
v -0.00163200 0.00011900 0.08382600
v -0.00208400 -0.00118400 0.07238800
v -0.00208400 0.00011900 0.07221600
v -0.00163200 0.00011900 0.07162400
v -0.00063700 0.00011900 0.07092000
v 0.00441600 -0.00035300 0.07596400
v 0.00043100 -0.00170400 0.07092000
v 0.00400400 -0.00164200 0.07467500
v 0.00149900 -0.00328300 0.07183200
v 0.00334800 -0.00340300 0.07420300
v 0.00249400 -0.00419500 0.07341100
v 0.00441600 -0.00035300 0.07948600
v 0.00400400 -0.00164200 0.08077600
v 0.00334800 -0.00340300 0.08124800
v 0.00249400 -0.00419500 0.08203900
v 0.00149900 -0.00328300 0.08361800
v 0.00043100 -0.00170400 0.08453000
v -0.00063700 0.00011900 0.08453000
v -0.00163200 0.00169800 0.07183200
v -0.00208400 0.00142100 0.07238800
v -0.00244700 0.00142100 0.07286400
v -0.00314200 0.00188000 0.07467500
v -0.00248700 0.00140800 0.07291400
v -0.00314200 0.00142100 0.07448500
v -0.00248700 0.00260900 0.07341100
v -0.00336500 0.00142100 0.07546900
v -0.00355400 0.00140800 0.07643600
v -0.00314200 0.00260900 0.07523500
v -0.00357900 0.00142100 0.07697300
v -0.00355400 0.00169800 0.07681400
v -0.00355400 0.00140800 0.07901400
v -0.00355400 0.00169800 0.07863700
v -0.00357900 0.00142100 0.07847700
v -0.00314200 0.00188000 0.08077600
v -0.00336500 0.00142100 0.07998200
v -0.00314200 0.00260900 0.08021600
v -0.00314200 0.00142100 0.08096600
v -0.00248700 0.00140800 0.08253700
v -0.00248700 0.00260900 0.08203900
v -0.00208400 0.00142100 0.08306300
v -0.00163200 0.00169800 0.08361800
v -0.00244700 0.00142100 0.08258700
v -0.00359100 0.00142100 0.07737600
v -0.00355400 0.00188000 0.07725300
v -0.00314200 0.00316900 0.07596400
v -0.00248700 0.00364100 0.07420300
v -0.00163200 0.00316900 0.07244200
v -0.00063700 0.00188000 0.07115200
v 0.00441600 0.00011900 0.07590200
v 0.00043100 0.00011900 0.07068000
v 0.00400400 -0.00079300 0.07432300
v 0.00149900 -0.00164200 0.07115200
v 0.00334800 -0.00237200 0.07341100
v 0.00249400 -0.00293200 0.07244200
v 0.00441600 0.00011900 0.07954900
v 0.00400400 -0.00079300 0.08112800
v 0.00334800 -0.00237200 0.08203900
v 0.00249400 -0.00293200 0.08300900
v 0.00149900 -0.00164200 0.08429800
v 0.00043100 0.00011900 0.08477000
v -0.00063700 0.00188000 0.08429800
v -0.00163200 0.00316900 0.08300900
v -0.00248700 0.00364100 0.08124800
v -0.00314200 0.00316900 0.07948600
v -0.00359100 0.00142100 0.07807400
v -0.00355400 0.00188000 0.07819700
v -0.00359500 0.00142100 0.07772500
v -0.00355400 0.00194200 0.07772500
v -0.00314200 0.00352100 0.07681400
v -0.00248700 0.00443300 0.07523500
v -0.00163200 0.00443300 0.07341100
v -0.00063700 0.00352100 0.07183200
v 0.00441600 0.00059100 0.07596400
v 0.00043100 0.00194200 0.07092000
v 0.00400400 0.00011900 0.07420300
v 0.00149900 0.00011900 0.07092000
v 0.00334800 -0.00117000 0.07291400
v 0.00249400 -0.00146000 0.07183200
v 0.00441600 0.00059100 0.07948600
v 0.00400400 0.00011900 0.08124800
v 0.00334800 -0.00117000 0.08253700
v 0.00249400 -0.00146000 0.08361800
v 0.00149900 0.00011900 0.08453000
v 0.00043100 0.00194200 0.08453000
v -0.00063700 0.00352100 0.08361800
v -0.00163200 0.00443300 0.08203900
v -0.00248700 0.00443300 0.08021600
v -0.00314200 0.00352100 0.07863700
v -0.00314200 0.00364100 0.07772500
v -0.00248700 0.00493100 0.07643600
v -0.00163200 0.00540300 0.07467500
v -0.00063700 0.00493100 0.07291400
v 0.00441600 0.00103000 0.07614600
v 0.00043100 0.00364100 0.07162400
v 0.00400400 0.00103000 0.07432300
v 0.00149900 0.00188000 0.07115200
v 0.00334800 0.00011900 0.07274400
v 0.00249400 0.00011900 0.07162400
v 0.00441600 0.00103000 0.07930500
v 0.00400400 0.00103000 0.08112800
v 0.00334800 0.00011900 0.08270700
v 0.00249400 0.00011900 0.08382600
v 0.00149900 0.00188000 0.08429800
v 0.00043100 0.00364100 0.08382600
v -0.00063700 0.00493100 0.08253700
v -0.00163200 0.00540300 0.08077600
v -0.00248700 0.00493100 0.07901400
v -0.00248700 0.00510000 0.07772500
v -0.00163200 0.00601200 0.07614600
v -0.00063700 0.00601200 0.07432300
v 0.00441600 0.00140800 0.07643600
v 0.00043100 0.00510000 0.07274400
v 0.00400400 0.00188000 0.07467500
v 0.00149900 0.00352100 0.07183200
v 0.00334800 0.00140800 0.07291400
v 0.00249400 0.00169800 0.07183200
v 0.00441600 0.00140800 0.07901400
v 0.00400400 0.00188000 0.08077600
v 0.00334800 0.00140800 0.08253700
v 0.00249400 0.00169800 0.08361800
v 0.00149900 0.00352100 0.08361800
v 0.00043100 0.00510000 0.08270700
v -0.00063700 0.00601200 0.08112800
v -0.00163200 0.00601200 0.07930500
v -0.00163200 0.00622000 0.07772500
v -0.00063700 0.00669200 0.07596400
v 0.00441600 0.00169800 0.07681400
v 0.00043100 0.00622000 0.07420300
v 0.00400400 0.00260900 0.07523500
v 0.00149900 0.00493100 0.07291400
v 0.00334800 0.00260900 0.07341100
v 0.00249400 0.00316900 0.07244200
v 0.00441600 0.00169800 0.07863700
v 0.00400400 0.00260900 0.08021600
v 0.00334800 0.00260900 0.08203900
v 0.00249400 0.00316900 0.08300900
v 0.00149900 0.00493100 0.08253700
v 0.00043100 0.00622000 0.08124800
v -0.00063700 0.00669200 0.07948600
v -0.00063700 0.00692400 0.07772500
v 0.00441600 0.00188000 0.07725300
v 0.00043100 0.00692400 0.07590200
v 0.00400400 0.00316900 0.07596400
v 0.00149900 0.00601200 0.07432300
v 0.00334800 0.00364100 0.07420300
v 0.00249400 0.00443300 0.07341100
v 0.00441600 0.00188000 0.07819700
v 0.00400400 0.00316900 0.07948600
v 0.00334800 0.00364100 0.08124800
v 0.00249400 0.00443300 0.08203900
v 0.00149900 0.00601200 0.08112800
v 0.00043100 0.00692400 0.07954900
v 0.00441600 0.00194200 0.07772500
v 0.00043100 0.00716400 0.07772500
v 0.00400400 0.00352100 0.07681400
v 0.00149900 0.00669200 0.07596400
v 0.00334800 0.00443300 0.07523500
v 0.00249400 0.00540300 0.07467500
v 0.00400400 0.00352100 0.07863700
v 0.00334800 0.00443300 0.08021600
v 0.00249400 0.00540300 0.08077600
v 0.00149900 0.00669200 0.07948600
v 0.00400400 0.00364100 0.07772500
v 0.00149900 0.00692400 0.07772500
v 0.00334800 0.00493100 0.07643600
v 0.00249400 0.00601200 0.07614600
v 0.00334800 0.00493100 0.07901400
v 0.00249400 0.00601200 0.07930500
v 0.00334800 0.00510000 0.07772500
v 0.00249400 0.00622000 0.07772500
v -0.00163200 -0.00577400 -0.08538000
v -0.00063700 -0.00668600 -0.08380100
v -0.00163200 -0.00598200 -0.08380100
v -0.00063700 -0.00645400 -0.08556200
v -0.00063700 -0.00645400 -0.08203900
v -0.00163200 -0.00577400 -0.08222200
v -0.00248700 -0.00419500 -0.08131000
v -0.00163200 -0.00516500 -0.08075000
v -0.00248700 -0.00469300 -0.08251100
v -0.00248700 -0.00486300 -0.08380100
v -0.00248700 -0.00469300 -0.08509000
v -0.00248700 -0.00419500 -0.08629200
v -0.00163200 -0.00516500 -0.08685100
v -0.00063700 -0.00577400 -0.08720300
v 0.00441600 -0.00170400 -0.08380100
v 0.00441600 -0.00164200 -0.08427300
v 0.00455700 0.00011900 -0.08380100
v 0.00043100 -0.00692600 -0.08380100
v 0.00043100 -0.00668600 -0.08562400
v 0.00441600 -0.00164200 -0.08332900
v 0.00043100 -0.00668600 -0.08197700
v -0.00063700 -0.00577400 -0.08039800
v -0.00248700 -0.00340300 -0.08027800
v -0.00163200 -0.00419500 -0.07948700
v -0.00314200 -0.00293200 -0.08203900
v -0.00314200 -0.00237200 -0.08131000
v -0.00314200 -0.00328300 -0.08288900
v -0.00314200 -0.00340300 -0.08380100
v -0.00314200 -0.00328300 -0.08471200
v -0.00314200 -0.00293200 -0.08556200
v -0.00248700 -0.00340300 -0.08732300
v -0.00314200 -0.00237200 -0.08629200
v -0.00163200 -0.00419500 -0.08811500
v -0.00063700 -0.00469300 -0.08861300
v 0.00441600 -0.00146000 -0.08471200
v 0.00043100 -0.00598200 -0.08732300
v 0.00400400 -0.00328300 -0.08471200
v 0.00400400 -0.00340300 -0.08380100
v 0.00149900 -0.00645400 -0.08556200
v 0.00149900 -0.00668600 -0.08380100
v 0.00441600 -0.00146000 -0.08288900
v 0.00400400 -0.00328300 -0.08288900
v 0.00149900 -0.00645400 -0.08203900
v 0.00043100 -0.00598200 -0.08027800
v -0.00063700 -0.00469300 -0.07898900
v -0.00248700 -0.00237200 -0.07948700
v -0.00163200 -0.00293200 -0.07851700
v -0.00314200 -0.00164200 -0.08075000
v -0.00355400 -0.00146000 -0.08288900
v -0.00355400 -0.00117000 -0.08251100
v -0.00355400 -0.00164200 -0.08332900
v -0.00355400 -0.00170400 -0.08380100
v -0.00355400 -0.00164200 -0.08427300
v -0.00355400 -0.00146000 -0.08471200
v -0.00355400 -0.00117000 -0.08509000
v -0.00248700 -0.00237200 -0.08811500
v -0.00314200 -0.00164200 -0.08685100
v -0.00163200 -0.00293200 -0.08908400
v -0.00063700 -0.00328300 -0.08969400
v 0.00441600 -0.00117000 -0.08509000
v 0.00043100 -0.00486300 -0.08878200
v 0.00400400 -0.00293200 -0.08556200
v 0.00149900 -0.00577400 -0.08720300
v 0.00334800 -0.00469300 -0.08509000
v 0.00334800 -0.00486300 -0.08380100
v 0.00249400 -0.00577400 -0.08538000
v 0.00249400 -0.00598200 -0.08380100
v 0.00441600 -0.00117000 -0.08251100
v 0.00400400 -0.00293200 -0.08203900
v 0.00334800 -0.00469300 -0.08251100
v 0.00249400 -0.00577400 -0.08222200
v 0.00149900 -0.00577400 -0.08039800
v 0.00043100 -0.00486300 -0.07881900
v -0.00063700 -0.00328300 -0.07790800
v -0.00244700 -0.00118400 -0.07893900
v -0.00248700 -0.00117000 -0.07898900
v -0.00163200 -0.00146000 -0.07790800
v -0.00314200 -0.00118400 -0.08056000
v -0.00336500 -0.00118400 -0.08154400
v -0.00357900 -0.00118400 -0.08304900
v -0.00359100 -0.00118400 -0.08345200
v -0.00359500 -0.00118400 -0.08380100
v -0.00359100 -0.00118400 -0.08415000
v -0.00357900 -0.00118400 -0.08455300
v -0.00336500 -0.00118400 -0.08605700
v -0.00314200 -0.00118400 -0.08704100
v -0.00248700 -0.00117000 -0.08861300
v -0.00244700 -0.00118400 -0.08866200
v -0.00163200 -0.00146000 -0.08969400
v -0.00063700 -0.00164200 -0.09037400
v 0.00441600 -0.00079300 -0.08538000
v 0.00043100 -0.00340300 -0.08990200
v 0.00400400 -0.00237200 -0.08629200
v 0.00149900 -0.00469300 -0.08861300
v 0.00334800 -0.00419500 -0.08629200
v 0.00249400 -0.00516500 -0.08685100
v 0.00441600 -0.00079300 -0.08222200
v 0.00400400 -0.00237200 -0.08131000
v 0.00334800 -0.00419500 -0.08131000
v 0.00249400 -0.00516500 -0.08075000
v 0.00149900 -0.00469300 -0.07898900
v 0.00043100 -0.00340300 -0.07770000
v -0.00063700 -0.00164200 -0.07722800
v -0.00208400 -0.00118400 -0.07846300
v -0.00208400 0.00011900 -0.07829100
v -0.00163200 0.00011900 -0.07770000
v -0.00208400 -0.00118400 -0.08913900
v -0.00208400 0.00011900 -0.08931000
v -0.00163200 0.00011900 -0.08990200
v -0.00063700 0.00011900 -0.09060600
v 0.00441600 -0.00035300 -0.08556200
v 0.00043100 -0.00170400 -0.09060600
v 0.00400400 -0.00164200 -0.08685100
v 0.00149900 -0.00328300 -0.08969400
v 0.00334800 -0.00340300 -0.08732300
v 0.00249400 -0.00419500 -0.08811500
v 0.00441600 -0.00035300 -0.08203900
v 0.00400400 -0.00164200 -0.08075000
v 0.00334800 -0.00340300 -0.08027800
v 0.00249400 -0.00419500 -0.07948700
v 0.00149900 -0.00328300 -0.07790800
v 0.00043100 -0.00170400 -0.07699600
v -0.00063700 0.00011900 -0.07699600
v -0.00163200 0.00169800 -0.08969400
v -0.00208400 0.00142100 -0.08913900
v -0.00244700 0.00142100 -0.08866200
v -0.00314200 0.00188000 -0.08685100
v -0.00248700 0.00140800 -0.08861300
v -0.00314200 0.00142100 -0.08704100
v -0.00248700 0.00260900 -0.08811500
v -0.00336500 0.00142100 -0.08605700
v -0.00355400 0.00140800 -0.08509000
v -0.00314200 0.00260900 -0.08629200
v -0.00357900 0.00142100 -0.08455300
v -0.00355400 0.00169800 -0.08471200
v -0.00355400 0.00140800 -0.08251100
v -0.00355400 0.00169800 -0.08288900
v -0.00357900 0.00142100 -0.08304900
v -0.00314200 0.00188000 -0.08075000
v -0.00336500 0.00142100 -0.08154400
v -0.00314200 0.00260900 -0.08131000
v -0.00314200 0.00142100 -0.08056000
v -0.00248700 0.00140800 -0.07898900
v -0.00248700 0.00260900 -0.07948700
v -0.00208400 0.00142100 -0.07846300
v -0.00163200 0.00169800 -0.07790800
v -0.00244700 0.00142100 -0.07893900
v -0.00359100 0.00142100 -0.08415000
v -0.00355400 0.00188000 -0.08427300
v -0.00314200 0.00316900 -0.08556200
v -0.00248700 0.00364100 -0.08732300
v -0.00163200 0.00316900 -0.08908400
v -0.00063700 0.00188000 -0.09037400
v 0.00441600 0.00011900 -0.08562400
v 0.00043100 0.00011900 -0.09084600
v 0.00400400 -0.00079300 -0.08720300
v 0.00149900 -0.00164200 -0.09037400
v 0.00334800 -0.00237200 -0.08811500
v 0.00249400 -0.00293200 -0.08908400
v 0.00441600 0.00011900 -0.08197700
v 0.00400400 -0.00079300 -0.08039800
v 0.00334800 -0.00237200 -0.07948700
v 0.00249400 -0.00293200 -0.07851700
v 0.00149900 -0.00164200 -0.07722800
v 0.00043100 0.00011900 -0.07675600
v -0.00063700 0.00188000 -0.07722800
v -0.00163200 0.00316900 -0.07851700
v -0.00248700 0.00364100 -0.08027800
v -0.00314200 0.00316900 -0.08203900
v -0.00359100 0.00142100 -0.08345200
v -0.00355400 0.00188000 -0.08332900
v -0.00359500 0.00142100 -0.08380100
v -0.00355400 0.00194200 -0.08380100
v -0.00314200 0.00352100 -0.08471200
v -0.00248700 0.00443300 -0.08629200
v -0.00163200 0.00443300 -0.08811500
v -0.00063700 0.00352100 -0.08969400
v 0.00441600 0.00059100 -0.08556200
v 0.00043100 0.00194200 -0.09060600
v 0.00400400 0.00011900 -0.08732300
v 0.00149900 0.00011900 -0.09060600
v 0.00334800 -0.00117000 -0.08861300
v 0.00249400 -0.00146000 -0.08969400
v 0.00441600 0.00059100 -0.08203900
v 0.00400400 0.00011900 -0.08027800
v 0.00334800 -0.00117000 -0.07898900
v 0.00249400 -0.00146000 -0.07790800
v 0.00149900 0.00011900 -0.07699600
v 0.00043100 0.00194200 -0.07699600
v -0.00063700 0.00352100 -0.07790800
v -0.00163200 0.00443300 -0.07948700
v -0.00248700 0.00443300 -0.08131000
v -0.00314200 0.00352100 -0.08288900
v -0.00314200 0.00364100 -0.08380100
v -0.00248700 0.00493100 -0.08509000
v -0.00163200 0.00540300 -0.08685100
v -0.00063700 0.00493100 -0.08861300
v 0.00441600 0.00103000 -0.08538000
v 0.00043100 0.00364100 -0.08990200
v 0.00400400 0.00103000 -0.08720300
v 0.00149900 0.00188000 -0.09037400
v 0.00334800 0.00011900 -0.08878200
v 0.00249400 0.00011900 -0.08990200
v 0.00441600 0.00103000 -0.08222200
v 0.00400400 0.00103000 -0.08039800
v 0.00334800 0.00011900 -0.07881900
v 0.00249400 0.00011900 -0.07770000
v 0.00149900 0.00188000 -0.07722800
v 0.00043100 0.00364100 -0.07770000
v -0.00063700 0.00493100 -0.07898900
v -0.00163200 0.00540300 -0.08075000
v -0.00248700 0.00493100 -0.08251100
v -0.00248700 0.00510000 -0.08380100
v -0.00163200 0.00601200 -0.08538000
v -0.00063700 0.00601200 -0.08720300
v 0.00441600 0.00140800 -0.08509000
v 0.00043100 0.00510000 -0.08878200
v 0.00400400 0.00188000 -0.08685100
v 0.00149900 0.00352100 -0.08969400
v 0.00334800 0.00140800 -0.08861300
v 0.00249400 0.00169800 -0.08969400
v 0.00441600 0.00140800 -0.08251100
v 0.00400400 0.00188000 -0.08075000
v 0.00334800 0.00140800 -0.07898900
v 0.00249400 0.00169800 -0.07790800
v 0.00149900 0.00352100 -0.07790800
v 0.00043100 0.00510000 -0.07881900
v -0.00063700 0.00601200 -0.08039800
v -0.00163200 0.00601200 -0.08222200
v -0.00163200 0.00622000 -0.08380100
v -0.00063700 0.00669200 -0.08556200
v 0.00441600 0.00169800 -0.08471200
v 0.00043100 0.00622000 -0.08732300
v 0.00400400 0.00260900 -0.08629200
v 0.00149900 0.00493100 -0.08861300
v 0.00334800 0.00260900 -0.08811500
v 0.00249400 0.00316900 -0.08908400
v 0.00441600 0.00169800 -0.08288900
v 0.00400400 0.00260900 -0.08131000
v 0.00334800 0.00260900 -0.07948700
v 0.00249400 0.00316900 -0.07851700
v 0.00149900 0.00493100 -0.07898900
v 0.00043100 0.00622000 -0.08027800
v -0.00063700 0.00669200 -0.08203900
v -0.00063700 0.00692400 -0.08380100
v 0.00441600 0.00188000 -0.08427300
v 0.00043100 0.00692400 -0.08562400
v 0.00400400 0.00316900 -0.08556200
v 0.00149900 0.00601200 -0.08720300
v 0.00334800 0.00364100 -0.08732300
v 0.00249400 0.00443300 -0.08811500
v 0.00441600 0.00188000 -0.08332900
v 0.00400400 0.00316900 -0.08203900
v 0.00334800 0.00364100 -0.08027800
v 0.00249400 0.00443300 -0.07948700
v 0.00149900 0.00601200 -0.08039800
v 0.00043100 0.00692400 -0.08197700
v 0.00441600 0.00194200 -0.08380100
v 0.00043100 0.00716400 -0.08380100
v 0.00400400 0.00352100 -0.08471200
v 0.00149900 0.00669200 -0.08556200
v 0.00334800 0.00443300 -0.08629200
v 0.00249400 0.00540300 -0.08685100
v 0.00400400 0.00352100 -0.08288900
v 0.00334800 0.00443300 -0.08131000
v 0.00249400 0.00540300 -0.08075000
v 0.00149900 0.00669200 -0.08203900
v 0.00400400 0.00364100 -0.08380100
v 0.00149900 0.00692400 -0.08380100
v 0.00334800 0.00493100 -0.08509000
v 0.00249400 0.00601200 -0.08538000
v 0.00334800 0.00493100 -0.08251100
v 0.00249400 0.00601200 -0.08222200
v 0.00334800 0.00510000 -0.08380100
v 0.00249400 0.00622000 -0.08380100
vn -0.99829707 0.04124903 0.04124903
vn -0.99984672 0.01238737 -0.01237318
vn -0.99984659 0.01238525 0.01238525
vn -0.99829720 0.04124691 -0.04124782
vn -0.99984672 -0.01237318 0.01238737
vn -0.90453403 0.30151134 -0.30151134
vn -0.99984684 -0.01237529 -0.01237529
vn -0.90453403 -0.30151134 -0.30151134
vn -0.90453403 -0.30151134 0.30151134
vn -0.90453403 0.30151134 0.30151134
vn -0.99829596 -0.04128420 0.04124059
vn -0.99829610 -0.04128209 -0.04123939
vn -0.99437314 0.07490682 0.07490682
vn -0.99436928 0.07489625 -0.07496862
vn -0.99437238 -0.07491047 0.07491324
vn -0.99436852 -0.07489990 -0.07497504
vn -0.98778127 0.11020021 0.11020021
vn -0.98778763 0.11022616 -0.11011722
vn 0.57735027 0.57735027 -0.57735027
vn -0.30653754 0.67306565 0.67306565
vn 0.57735027 0.57735027 0.57735027
vn -0.30653754 0.67306565 -0.67306565
vn -0.98778127 -0.11020021 0.11020021
vn 0.57735027 -0.57735027 0.57735027
vn -0.30633404 -0.67305422 0.67316972
vn 0.57735027 -0.57735027 -0.57735027
vn -0.98778763 -0.11022616 -0.11011722
vn -0.30633404 -0.67305422 -0.67316972
vn -0.97822064 0.14677257 0.14677257
vn -0.97822445 0.14675629 -0.14676344
vn -0.69018576 0.51168526 -0.51168526
vn -0.69018576 0.51168526 0.51168526
vn -0.97823555 -0.14665401 0.14679170
vn -0.68992894 -0.51206663 0.51165009
vn -0.97823936 -0.14663773 -0.14678257
vn -0.68992894 -0.51206663 -0.51165009
vn -0.96478504 0.18599707 0.18599707
vn -0.96478504 0.18599707 -0.18599707
vn -0.77774002 0.44445493 -0.44450004
vn -0.77767266 0.44453641 0.44453641
vn -0.96476698 -0.18613623 0.18595157
vn -0.77774002 -0.44450004 0.44445493
vn -0.96476698 -0.18613623 -0.18595157
vn -0.77780727 -0.44441864 -0.44441864
vn -0.94659149 0.22799622 0.22799622
vn -0.94659149 0.22799622 -0.22799622
vn -0.84141381 0.38228871 -0.38193997
vn -0.84128576 0.38225532 0.38225532
vn -0.94661911 -0.22782497 0.22805273
vn -0.84141381 -0.38193997 0.38228871
vn -0.94661911 -0.22782497 -0.22805273
vn -0.84154191 -0.38197331 -0.38197331
vn -0.92171214 0.27426878 0.27426878
vn -0.92165335 0.27423859 -0.27449644
vn -0.88794013 0.32525219 -0.32522814
vn -0.88796753 0.32520275 0.32520275
vn -0.92167080 -0.27447607 0.27420032
vn -0.88794013 -0.32522814 0.32525219
vn -0.92161205 -0.27444585 -0.27442796
vn -0.88791268 -0.32527763 -0.32527763
vn -0.90453403 0.30151134 -0.30151134
vn -0.57735027 0.57735027 0.57735027
vn -0.90453403 0.30151134 0.30151134
vn -0.57735027 0.57735027 -0.57735027
vn -0.90453403 -0.30151134 0.30151134
vn -0.57735027 -0.57735027 0.57735027
vn -0.57735027 -0.57735027 -0.57735027
vn -0.90453403 -0.30151134 -0.30151134
vn -0.57735027 -0.57735027 -0.57735027
vn -0.57735027 0.57735027 -0.57735027
vn -0.57735027 0.57735027 0.57735027
vn -0.57735027 -0.57735027 0.57735027
vn 0.59698600 0.58106566 -0.55314593
vn 0.55688205 -0.57956989 0.59496313
vn 0.59870933 -0.57359747 -0.55904658
vn 0.55517279 0.57510573 0.60086319
vn -0.55523801 -0.57512686 -0.60078269
vn -0.59705134 -0.58107785 0.55306259
vn -0.55696080 0.57958275 -0.59487689
vn -0.59877262 0.57360860 0.55896737
vn 0.57735027 0.57735027 -0.57735027
vn -0.57735027 0.57735027 0.57735027
vn 0.57735027 0.57735027 0.57735027
vn -0.57735027 0.57735027 -0.57735027
vn 0.57735027 -0.57735027 0.57735027
vn -0.57735027 -0.57735027 0.57735027
vn 0.57735027 -0.57735027 -0.57735027
vn 0.90453403 0.30151134 -0.30151134
vn 0.90453403 0.30151134 0.30151134
vn 0.90453403 -0.30151134 0.30151134
vn 0.90453403 -0.30151134 -0.30151134
vn -0.57735027 -0.57735027 -0.57735027
vn -0.90453403 0.30151134 -0.30151134
vn -0.90453403 -0.30151134 -0.30151134
vn -0.90453403 -0.30151134 0.30151134
vn -0.90453403 0.30151134 0.30151134
vn -0.68786139 -0.70110693 -0.18787169
vn -0.40039017 -0.91634475 -0.00002653
vn -0.68780819 -0.72589248 -0.00002556
vn -0.40036998 -0.88511514 -0.23722368
vn -0.40044856 -0.88511624 0.23708689
vn -0.68780374 -0.70115705 0.18789575
vn -0.85504658 -0.44907820 0.25927614
vn -0.68778972 -0.62861940 0.36301920
vn -0.85503023 -0.50089797 0.13425545
vn -0.85499660 -0.51863360 -0.00002317
vn -0.85500119 -0.50091932 -0.13436073
vn -0.85502109 -0.44910409 -0.25931536
vn -0.68783634 -0.62862347 -0.36292383
vn -0.40027157 -0.79359565 -0.45824514
vn 0.98655896 -0.16340571 -0.00000319
vn 0.98655872 -0.15784562 -0.04226883
vn 1.00000000 0.00000182 -0.00001062
vn 0.00002205 -1.00000000 -0.00003795
vn 0.00000000 -0.96591160 -0.25887215
vn 0.98656039 -0.15784843 0.04221934
vn 0.00002202 -0.96591313 0.25886643
vn -0.40033192 -0.79358206 0.45821597
vn -0.85497875 -0.36668748 0.36681279
vn -0.68793437 -0.51323643 0.51316144
vn -0.94368744 -0.28658277 0.16530074
vn -0.94366124 -0.23406079 0.23392093
vn -0.94371711 -0.31950326 0.08553173
vn -0.94373789 -0.33069443 -0.00001650
vn -0.94371720 -0.31950976 -0.08550646
vn -0.94367141 -0.28660679 -0.16535058
vn -0.85501693 -0.36673898 -0.36667230
vn -0.94367590 -0.23397986 -0.23394279
vn -0.68785334 -0.51322986 -0.51327663
vn -0.40038039 -0.64800237 -0.64791085
vn 0.98656728 -0.14145394 -0.08170541
vn -0.00000000 -0.86602888 -0.49999398
vn 0.94361578 -0.31978916 -0.08558125
vn 0.94363648 -0.33098368 -0.00001651
vn 0.40036998 -0.88511514 -0.23722368
vn 0.40035991 -0.91635798 -0.00000898
vn 0.98656185 -0.14148010 0.08172570
vn 0.94361568 -0.31978270 0.08560655
vn 0.40041826 -0.88513357 0.23707336
vn -0.00000000 -0.86602888 0.49999398
vn -0.40051554 -0.64788960 0.64794010
vn -0.85500218 -0.25932353 0.44913537
vn -0.68772835 -0.36290657 0.62875157
vn -0.94358334 -0.16561817 0.28674224
vn -0.98648446 -0.14188203 0.08196286
vn -0.73609803 0.67091357 0.08963633
vn -0.98650329 -0.15818979 0.04227587
vn -0.98646484 -0.16397290 0.00008625
vn -0.98648881 -0.15822862 -0.04246804
vn -0.98649230 -0.14187151 -0.08188666
vn -0.75245202 0.64929818 -0.11057956
vn -0.85498061 -0.25934939 -0.44916150
vn -0.94362279 -0.16556752 -0.28664162
vn -0.68781361 -0.36303880 -0.62858195
vn -0.40035502 -0.45821657 -0.79357006
vn 0.98656013 -0.11559374 -0.11548680
vn -0.00002170 -0.70715942 -0.70705414
vn 0.94356984 -0.28685758 -0.16549525
vn 0.40027157 -0.79359565 -0.45824514
vn 0.85502036 -0.50088878 -0.13435254
vn 0.85500551 -0.51861892 0.00000000
vn 0.68805297 -0.70093152 -0.18782468
vn 0.68801983 -0.72569188 -0.00002484
vn 0.98657421 -0.11553394 0.11542631
vn 0.94358592 -0.28683348 0.16544535
vn 0.85503904 -0.50088994 0.13422931
vn 0.68801534 -0.70096351 0.18784315
vn 0.40033192 -0.79358206 0.45821597
vn 0.00001962 -0.70700793 0.70720561
vn -0.40019640 -0.45802355 0.79376147
vn -0.63157843 0.61839770 0.46764620
vn -0.41523253 0.83008122 0.37221919
vn -0.68777107 -0.18792826 0.70118038
vn -0.72818960 0.63840661 0.24935298
vn -0.76256057 0.62644153 0.16146946
vn -0.73284185 0.67994726 0.02479004
vn -0.73527453 0.67762908 0.01379077
vn -0.73672716 0.67619009 0.00020671
vn -0.73514147 0.67776705 -0.01410115
vn -0.76270191 0.64664796 -0.01149870
vn -0.74237538 0.65319463 -0.14904888
vn -0.73420616 0.63259104 -0.24651550
vn -0.54217792 0.69808146 -0.46768085
vn -0.61972527 0.61365834 -0.48924843
vn -0.68796641 -0.18786886 -0.70100464
vn -0.40040305 -0.23725589 -0.88509154
vn 0.98654961 -0.08180175 -0.14152153
vn -0.00002404 -0.50001828 -0.86601485
vn 0.94360897 -0.23405445 -0.23413807
vn 0.40041045 -0.64800507 -0.64788957
vn 0.85504014 -0.44907690 -0.25929963
vn 0.68802788 -0.62846623 -0.36283306
vn 0.98654501 -0.08183234 0.14153588
vn 0.94359920 -0.23411701 0.23411488
vn 0.85506567 -0.44905095 0.25926039
vn 0.68798127 -0.62846220 0.36292843
vn 0.40057939 -0.64778658 0.64800362
vn 0.00002196 -0.49983274 0.86612195
vn -0.40041665 -0.23726331 0.88508340
vn -0.88604518 0.04567968 0.46134294
vn -0.93886343 0.00005541 0.34428978
vn -0.68767156 0.00003069 0.72602192
vn -0.88612745 0.04672897 -0.46107976
vn -0.93901585 -0.00003222 -0.34387385
vn -0.68794236 -0.00002182 -0.72576532
vn -0.40038099 -0.00001420 -0.91634877
vn 0.98656055 -0.04222775 -0.15784518
vn -0.00001471 -0.25888335 -0.96590859
vn 0.94360998 -0.16552072 -0.28671082
vn 0.40038557 -0.45819947 -0.79356452
vn 0.85506248 -0.36672799 -0.36657706
vn 0.68800610 -0.51314417 -0.51315754
vn 0.98658770 -0.04219400 0.15768439
vn 0.94358929 -0.16559016 0.28673882
vn 0.85501977 -0.36667451 0.36673015
vn 0.68802821 -0.51310862 0.51316346
vn 0.40020326 -0.45817491 0.79367065
vn 0.00001471 -0.25888335 0.96590859
vn -0.40038099 0.00001420 0.91634877
vn -0.68806744 0.18799465 -0.70087175
vn -0.88616498 -0.04681444 -0.46099895
vn -0.62008106 -0.61431095 -0.48797699
vn -0.94363961 0.16560065 -0.28656710
vn -0.55236893 -0.69226379 -0.46439143
vn -0.73371552 -0.63307919 -0.24672309
vn -0.85496005 0.25915710 -0.44931160
vn -0.74283728 -0.65271188 -0.14886228
vn -0.75343559 -0.64819793 -0.11033701
vn -0.94371497 0.23386826 -0.23389676
vn -0.76054238 -0.64916833 -0.01248036
vn -0.98649621 0.14185072 -0.08187549
vn -0.73827487 -0.66833844 0.09096121
vn -0.98649660 0.14183914 0.08189091
vn -0.73283213 -0.67995842 0.02477151
vn -0.94361892 0.16567007 0.28659511
vn -0.76168645 -0.62777544 0.16041118
vn -0.94370526 0.23393063 0.23387355
vn -0.72811517 -0.63851509 0.24929254
vn -0.43215252 -0.82043034 0.37435045
vn -0.85501971 0.25920139 0.44917250
vn -0.88603624 -0.04584614 0.46134360
vn -0.68787209 0.18789712 0.70108962
vn -0.63116116 -0.61872950 0.46777067
vn -0.73508223 -0.67783152 -0.01409053
vn -0.98649642 0.15817845 -0.04247813
vn -0.94370632 0.28643437 -0.16545008
vn -0.85507942 0.36662511 -0.36664045
vn -0.68795170 0.36286171 -0.62853308
vn -0.40041665 0.23726331 -0.88508340
vn 0.98656120 0.00000000 -0.16339219
vn 0.00000000 0.00000000 -1.00000000
vn 0.94357609 -0.08576995 -0.31985572
vn 0.40041665 -0.23726331 -0.88508340
vn 0.85500821 -0.25921166 -0.44918846
vn 0.68800742 -0.36288614 -0.62845798
vn 0.98655444 0.00004210 0.16343300
vn 0.94357538 -0.08575277 0.31986242
vn 0.85504215 -0.25924392 0.44910524
vn 0.68788028 -0.36297407 0.62854637
vn 0.40034660 -0.23720090 0.88513182
vn 0.00000000 0.00000000 1.00000000
vn -0.40036998 0.23722368 0.88511514
vn -0.68780577 0.36290542 0.62866754
vn -0.85504035 0.36657332 0.36678332
vn -0.94372233 0.28641036 0.16540030
vn -0.73507868 -0.67783562 0.01407828
vn -0.98649809 0.15818133 0.04242857
vn -0.73657964 -0.67635082 -0.00000000
vn -0.98645822 0.16401274 -0.00000319
vn -0.94372510 0.31945778 -0.08561340
vn -0.85505536 0.44904309 -0.25930798
vn -0.68780982 0.51317313 -0.51339166
vn -0.40046566 0.45827380 -0.79348117
vn 0.98655471 0.04231341 -0.15785873
vn 0.00001471 0.25888335 -0.96590859
vn 0.94359633 0.00002312 -0.33109811
vn 0.40038099 0.00001420 -0.91634877
vn 0.85506333 -0.13419685 -0.50085717
vn 0.68815095 -0.18788805 -0.70081834
vn 0.98657473 0.04224991 0.15775061
vn 0.94360055 0.00002196 0.33108610
vn 0.85495721 -0.13430114 0.50101036
vn 0.68805590 -0.18773597 0.70095241
vn 0.40038099 -0.00001420 0.91634877
vn -0.00001471 0.25888335 0.96590859
vn -0.40031251 0.45813402 0.79363916
vn -0.68786040 0.51316155 0.51333545
vn -0.85508084 0.44901723 0.25926875
vn -0.94372503 0.31945121 0.08563876
vn -0.94371821 0.33075057 -0.00001650
vn -0.85500798 0.50093576 -0.13425615
vn -0.68783634 0.62862347 -0.36292383
vn -0.40020975 0.64800449 -0.64801415
vn 0.98655784 0.08171124 -0.14151642
vn -0.00002112 0.50011379 -0.86595970
vn 0.94359023 0.08569991 -0.31983278
vn 0.40042645 0.23727867 -0.88507485
vn 0.85506108 0.00001913 -0.51852729
vn 0.68815106 0.00000750 -0.72556744
vn 0.98655327 0.08174134 0.14153094
vn 0.94360218 0.08567451 0.31980432
vn 0.85494778 -0.00001962 0.51871408
vn 0.68800490 -0.00000751 0.72570604
vn 0.40041665 0.23726331 0.88508340
vn 0.00002318 0.49992824 0.86606683
vn -0.40038436 0.64785454 0.64805622
vn -0.68778972 0.62861940 0.36301920
vn -0.85502669 0.50093684 0.13413290
vn -0.85506834 0.51851532 -0.00000000
vn -0.68786139 0.70110693 -0.18787169
vn -0.40027157 0.79359565 -0.45824514
vn 0.98655395 0.11557650 -0.11555684
vn -0.00002349 0.70705067 -0.70716289
vn 0.94359181 0.16561614 -0.28671554
vn 0.40046413 0.45817571 -0.79353860
vn 0.85508896 0.13416048 -0.50082315
vn 0.68811586 0.18793256 -0.70084087
vn 0.98656804 0.11551662 0.11549637
vn 0.94357109 0.16568562 0.28674357
vn 0.85498035 0.13432556 0.50096432
vn 0.68798861 0.18785954 0.70098535
vn 0.40027658 0.45809788 0.79367814
vn 0.00002555 0.70689907 0.70731443
vn -0.40033192 0.79358206 0.45821597
vn -0.68782376 0.70113891 0.18789015
vn -0.68789809 0.72580729 -0.00002485
vn -0.40036998 0.88511514 -0.23722368
vn 0.98655698 0.14150952 -0.08173355
vn 0.00000000 0.86599101 -0.50005957
vn 0.94361355 0.23407276 -0.23410130
vn 0.40018529 0.64807030 -0.64796344
vn 0.85501661 0.25930021 -0.44912136
vn 0.68812208 0.36278887 -0.62838861
vn 0.98655154 0.14153574 0.08175382
vn 0.94360380 0.23413523 0.23407810
vn 0.85504107 0.25931863 0.44906415
vn 0.68801115 0.36277064 0.62852058
vn 0.40031493 0.64788902 0.64806464
vn 0.00000000 0.86599101 0.50005957
vn -0.40041826 0.88513357 0.23707336
vn -0.40035991 0.91635798 -0.00000898
vn 0.98655484 0.15786239 -0.04229677
vn -0.00000000 0.96591160 -0.25887215
vn 0.94360485 0.28668493 -0.16559480
vn 0.40027157 0.79359565 -0.45824514
vn 0.85507572 0.36659321 -0.36668096
vn 0.68806869 0.51302604 -0.51319174
vn 0.98655651 0.15786519 0.04224728
vn 0.94362092 0.28666083 0.16554496
vn 0.85503380 0.36654014 0.36683174
vn 0.68812126 0.51300862 0.51313866
vn 0.40033192 0.79358206 0.45821597
vn -0.00002202 0.96591313 0.25886643
vn 0.98655896 0.16340571 -0.00000319
vn -0.00002205 1.00000000 -0.00003795
vn 0.94362368 0.31973718 -0.08568829
vn 0.40036998 0.88511514 -0.23722368
vn 0.85507445 0.44901583 -0.25929224
vn 0.68802788 0.62846623 -0.36283306
vn 0.94362359 0.31973064 0.08571367
vn 0.85509996 0.44898992 0.25925300
vn 0.68798127 0.62846220 0.36292843
vn 0.40044856 0.88511624 0.23708689
vn 0.94361677 0.33103986 -0.00001651
vn 0.40039017 0.91634475 -0.00002653
vn 0.85502718 0.50090518 -0.13424795
vn 0.68805297 0.70093152 -0.18782468
vn 0.85502276 0.50095652 0.13408449
vn 0.68803346 0.70095900 0.18779358
vn 0.85506430 0.51852198 0.00005174
vn 0.68810779 0.72560848 0.00002190
vn -0.68784664 -0.70112518 -0.18785761
vn -0.40038229 -0.91634820 -0.00004712
vn -0.68781961 -0.72588166 -0.00001818
vn -0.40036998 -0.88511514 -0.23722368
vn -0.40042663 -0.88509451 0.23720504
vn -0.68790307 -0.70109916 0.18774805
vn -0.85501058 -0.44913090 0.25930358
vn -0.68782320 -0.62860273 0.36298465
vn -0.85497623 -0.50095699 0.13437910
vn -0.85499023 -0.51864411 -0.00003183
vn -0.85500591 -0.50093198 -0.13428344
vn -0.85498739 -0.44909733 -0.25943813
vn -0.68778669 -0.62865640 -0.36296088
vn -0.40031251 -0.79363916 -0.45813402
vn 0.98655896 -0.16340571 -0.00000319
vn 0.98655872 -0.15784562 -0.04226883
vn 1.00000000 0.00000182 -0.00001544
vn 0.00001202 -1.00000000 -0.00004954
vn 0.00000000 -0.96591160 -0.25887215
vn 0.98656199 -0.15784150 0.04220780
vn 0.00001202 -0.96591702 0.25885192
vn -0.40030881 -0.79356062 0.45827328
vn -0.85496629 -0.36668869 0.36684064
vn -0.68793437 -0.51323643 0.51316144
vn -0.94367466 -0.28660207 0.16534024
vn -0.94366556 -0.23397711 0.23398724
vn -0.94372063 -0.31950511 0.08548594
vn -0.94373959 -0.33068957 -0.00002198
vn -0.94372218 -0.31950019 -0.08548727
vn -0.94368103 -0.28661430 -0.16528268
vn -0.85498177 -0.36675207 -0.36674117
vn -0.94365371 -0.23402544 -0.23398667
vn -0.68796549 -0.51316003 -0.51319613
vn -0.40037825 -0.64794956 -0.64796499
vn 0.98656984 -0.14144805 -0.08168479
vn 0.00000000 -0.86608293 -0.49990034
vn 0.94362077 -0.31977958 -0.08556204
vn 0.94363818 -0.33097882 -0.00002200
vn 0.40036998 -0.88511514 -0.23722368
vn 0.40037667 -0.91635065 -0.00002531
vn 0.98656556 -0.14149701 0.08165164
vn 0.94361921 -0.31978453 0.08556071
vn 0.40042101 -0.88510252 0.23718461
vn -0.00000000 -0.86602888 0.49999398
vn -0.40051554 -0.64788960 0.64794010
vn -0.85500218 -0.25932353 0.44913537
vn -0.68772835 -0.36290657 0.62875157
vn -0.94358334 -0.16561817 0.28674224
vn -0.98648813 -0.14189929 0.08188866
vn -0.73625987 0.67073087 0.08967438
vn -0.98650489 -0.15818287 0.04226433
vn -0.98646484 -0.16397290 0.00008625
vn -0.98648881 -0.15822862 -0.04246804
vn -0.98649486 -0.14186562 -0.08186603
vn -0.75243418 0.64932382 -0.11055033
vn -0.85494898 -0.25940199 -0.44919132
vn -0.94363059 -0.16542864 -0.28669612
vn -0.68781361 -0.36303880 -0.62858195
vn -0.40040837 -0.45807173 -0.79362675
vn 0.98656521 -0.11556174 -0.11547541
vn 0.00003920 -0.70714663 -0.70706693
vn 0.94357949 -0.28686507 -0.16542728
vn 0.40031251 -0.79363916 -0.45813402
vn 0.85502506 -0.50090148 -0.13427527
vn 0.85500711 -0.51861627 -0.00002660
vn 0.68803823 -0.70094976 -0.18781061
vn 0.68800877 -0.72570237 -0.00000625
vn 0.98656195 -0.11551010 0.11555494
vn 0.94357309 -0.28685286 0.16548491
vn 0.85499310 -0.50093148 0.13436685
vn 0.68809222 -0.70092904 0.18769012
vn 0.40030881 -0.79356062 0.45827328
vn 0.00001962 -0.70700793 0.70720561
vn -0.40019640 -0.45802355 0.79376147
vn -0.63157843 0.61839770 0.46764620
vn -0.41523253 0.83008122 0.37221919
vn -0.68777107 -0.18792826 0.70118038
vn -0.72818960 0.63840661 0.24935298
vn -0.76255611 0.62642118 0.16156944
vn -0.73283867 0.67995138 0.02477093
vn -0.73527453 0.67762908 0.01379077
vn -0.73672716 0.67619009 0.00020671
vn -0.73514147 0.67776705 -0.01410115
vn -0.76270191 0.64664796 -0.01149870
vn -0.74232694 0.65324694 -0.14906088
vn -0.73421564 0.63259618 -0.24647409
vn -0.54091084 0.69619126 -0.47194618
vn -0.61730903 0.61408437 -0.49176209
vn -0.68784338 -0.18800607 -0.70108859
vn -0.40040305 -0.23725589 -0.88509154
vn 0.98654961 -0.08180175 -0.14152153
vn 0.00003689 -0.49995725 -0.86605008
vn 0.94358925 -0.23409069 -0.23418127
vn 0.40030705 -0.64796321 -0.64799533
vn 0.85500655 -0.44907000 -0.25942231
vn 0.68797825 -0.62849917 -0.36287011
vn 0.98656727 -0.08173366 0.14143775
vn 0.94359861 -0.23405169 0.23418256
vn 0.85502964 -0.44910369 0.25928785
vn 0.68801472 -0.62844551 0.36289390
vn 0.40057939 -0.64778658 0.64800362
vn 0.00002196 -0.49983274 0.86612195
vn -0.40041665 -0.23726331 0.88508340
vn -0.88604517 0.04567968 0.46134295
vn -0.93886343 0.00005541 0.34428978
vn -0.68767156 0.00003069 0.72602192
vn -0.88633073 0.04439668 -0.46091948
vn -0.93904051 0.00007116 -0.34380651
vn -0.68789652 0.00004504 -0.72580878
vn -0.40038099 -0.00001420 -0.91634877
vn 0.98656055 -0.04222775 -0.15784518
vn -0.00001471 -0.25888335 -0.96590859
vn 0.94363339 -0.16539942 -0.28670378
vn 0.40033773 -0.45810160 -0.79364515
vn 0.85502729 -0.36674116 -0.36664596
vn 0.68815655 -0.51309449 -0.51300547
vn 0.98655478 -0.04239321 0.15783687
vn 0.94359356 -0.16555831 0.28674317
vn 0.85500729 -0.36667571 0.36675803
vn 0.68802821 -0.51310862 0.51316346
vn 0.40020326 -0.45817491 0.79367065
vn 0.00001471 -0.25888335 0.96590859
vn -0.40038099 0.00001420 0.91634877
vn -0.68797960 0.18806631 -0.70093876
vn -0.88630986 -0.04458193 -0.46094173
vn -0.61767415 -0.61475846 -0.49045965
vn -0.94366301 0.16547931 -0.28656015
vn -0.55108801 -0.69037443 -0.46870583
vn -0.73371338 -0.63312563 -0.24661023
vn -0.85491967 0.25922710 -0.44934805
vn -0.74283728 -0.65271188 -0.14886228
vn -0.75341769 -0.64822253 -0.11031474
vn -0.94369538 0.23390419 -0.23393987
vn -0.76054238 -0.64916833 -0.01248036
vn -0.98649877 0.14184483 -0.08185485
vn -0.73843159 -0.66816235 0.09098272
vn -0.98650029 0.14185629 0.08181673
vn -0.73282896 -0.67996253 0.02475224
vn -0.94361218 0.16566783 0.28661861
vn -0.76158978 -0.62786204 0.16053118
vn -0.94370463 0.23386552 0.23394121
vn -0.72811517 -0.63851509 0.24929254
vn -0.43215252 -0.82043034 0.37435045
vn -0.85501971 0.25920139 0.44917250
vn -0.88603623 -0.04584614 0.46134361
vn -0.68787209 0.18789712 0.70108962
vn -0.63116116 -0.61872950 0.46777067
vn -0.73508223 -0.67783152 -0.01409053
vn -0.98649642 0.15817845 -0.04247813
vn -0.94371594 0.28644191 -0.16538218
vn -0.85504430 0.36663816 -0.36670930
vn -0.68799002 0.36278740 -0.62853403
vn -0.40041665 0.23726331 -0.88508340
vn 0.98656120 0.00000000 -0.16339219
vn 0.00000000 0.00000000 -1.00000000
vn 0.94360723 -0.08570987 -0.31977995
vn 0.40041665 -0.23726331 -0.88508340
vn 0.85500332 -0.25935731 -0.44911369
vn 0.68801024 -0.36286689 -0.62846601
vn 0.98656351 -0.00000494 0.16337823
vn 0.94357973 -0.08576501 0.31984630
vn 0.85504215 -0.25924392 0.44910524
vn 0.68788028 -0.36297407 0.62854637
vn 0.40034660 -0.23720090 0.88513182
vn 0.00000000 0.00000000 1.00000000
vn -0.40036998 0.23722368 0.88511514
vn -0.68780577 0.36290542 0.62866754
vn -0.85502789 0.36657453 0.36681116
vn -0.94370958 0.28642964 0.16543971
vn -0.73507868 -0.67783562 0.01407828
vn -0.98649970 0.15817440 0.04241701
vn -0.73657964 -0.67635082 -0.00000000
vn -0.98645822 0.16401274 -0.00000319
vn -0.94373009 0.31944821 -0.08559418
vn -0.85502165 0.44903638 -0.25943073
vn -0.68796036 0.51312349 -0.51323954
vn -0.40041779 0.45817593 -0.79356185
vn 0.98655471 0.04231341 -0.15785873
vn 0.00001471 0.25888335 -0.96590859
vn 0.94359633 0.00002312 -0.33109811
vn 0.40038099 0.00001420 -0.91634877
vn 0.85500200 -0.13411509 -0.50098376
vn 0.68804797 -0.18787141 -0.70092390
vn 0.98654975 0.04248281 0.15784424
vn 0.94359211 0.00000483 0.33111015
vn 0.85495721 -0.13430114 0.50101036
vn 0.68805590 -0.18773597 0.70095241
vn 0.40038099 -0.00001420 0.91634877
vn -0.00001471 0.25888335 0.96590859
vn -0.40031251 0.45813402 0.79363916
vn -0.68786040 0.51316155 0.51333545
vn -0.85504486 0.44906989 0.25929620
vn -0.94372855 0.31945311 0.08559288
vn -0.94371991 0.33074573 -0.00002198
vn -0.85501270 0.50094842 -0.13417886
vn -0.68778669 0.62865640 -0.36296088
vn -0.40010631 0.64796266 -0.64811984
vn 0.98655784 0.08171124 -0.14151642
vn -0.00008205 0.50005277 -0.86599493
vn 0.94362133 0.08563988 -0.31975708
vn 0.40042645 0.23727867 -0.88507485
vn 0.85508080 -0.00005574 -0.51849477
vn 0.68811290 -0.00003994 -0.72560364
vn 0.98657548 0.08164366 0.14143245
vn 0.94359809 0.08570954 0.31980700
vn 0.85494778 -0.00001962 0.51871408
vn 0.68800490 -0.00000751 0.72570604
vn 0.40041665 0.23726331 0.88508340
vn 0.00002318 0.49992824 0.86606683
vn -0.40038436 0.64785454 0.64805622
vn -0.68782320 0.62860273 0.36298465
vn -0.85498070 0.50097846 0.13427060
vn -0.85506994 0.51851268 -0.00002644
vn -0.68784664 0.70112518 -0.18785761
vn -0.40031251 0.79363916 -0.45813402
vn 0.98655903 0.11554448 -0.11554543
vn -0.00008442 0.70703776 -0.70717579
vn 0.94361524 0.16549465 -0.28670854
vn 0.40051747 0.45803087 -0.79359529
vn 0.85502991 0.13421762 -0.50090865
vn 0.68801027 0.18800507 -0.70092508
vn 0.98655577 0.11549286 0.11562491
vn 0.94357535 0.16565380 0.28674793
vn 0.85498035 0.13432556 0.50096432
vn 0.68798861 0.18785954 0.70098535
vn 0.40027658 0.45809788 0.79367814
vn 0.00002555 0.70689907 0.70731443
vn -0.40030881 0.79356062 0.45827328
vn -0.68790063 0.70110448 0.18773712
vn -0.68788704 0.72581776 -0.00000624
vn -0.40036998 0.88511514 -0.23722368
vn 0.98655954 0.14150363 -0.08171291
vn -0.00000000 0.86604508 -0.49996591
vn 0.94359388 0.23410881 -0.23414451
vn 0.40018310 0.64801755 -0.64801755
vn 0.85498061 0.25941111 -0.44912586
vn 0.68812208 0.36278887 -0.62838861
vn 0.98655525 0.14155264 0.08167975
vn 0.94360319 0.23407002 0.23414579
vn 0.85504107 0.25931863 0.44906415
vn 0.68801115 0.36277064 0.62852058
vn 0.40031493 0.64788902 0.64806464
vn 0.00000000 0.86599101 0.50005957
vn -0.40042101 0.88510252 0.23718461
vn -0.40037667 0.91635065 -0.00002531
vn 0.98655484 0.15786239 -0.04229677
vn -0.00000000 0.96591160 -0.25887215
vn 0.94361449 0.28669244 -0.16552683
vn 0.40031251 0.79363916 -0.45813402
vn 0.85504056 0.36660633 -0.36674984
vn 0.68818081 0.51295618 -0.51311122
vn 0.98655812 0.15785825 0.04223572
vn 0.94360811 0.28668020 0.16558443
vn 0.85502132 0.36654135 0.36685962
vn 0.68812126 0.51300862 0.51313866
vn 0.40030881 0.79356062 0.45827328
vn -0.00001202 0.96591702 0.25885192
vn 0.98655896 0.16340571 -0.00000319
vn -0.00001202 1.00000000 -0.00004954
vn 0.94362868 0.31972760 -0.08566904
vn 0.40036998 0.88511514 -0.23722368
vn 0.85504083 0.44900900 -0.25941490
vn 0.68797825 0.62849917 -0.36287011
vn 0.94362712 0.31973253 0.08566775
vn 0.85506395 0.44904262 0.25928046
vn 0.68801472 0.62844551 0.36289390
vn 0.40042663 0.88509451 0.23720504
vn 0.94361847 0.33103501 -0.00002200
vn 0.40038229 0.91634820 -0.00004712
vn 0.85503188 0.50091788 -0.13417068
vn 0.68803823 0.70094976 -0.18781061
vn 0.85496892 0.50101524 0.13420831
vn 0.68813285 0.70090101 0.18764583
vn 0.85505795 0.51853245 0.00004313
vn 0.68811920 0.72559766 0.00002926
f 1//1 2//2 3//3
f 2//2 1//1 4//4
f 5//5 6//6 7//7
f 5//5 8//8 6//6
f 8//8 3//3 9//9
f 3//3 8//8 5//5
f 10//10 7//7 6//6
f 9//9 7//7 10//10
f 9//9 2//2 7//7
f 2//2 9//9 3//3
f 11//11 3//3 5//5
f 3//3 11//11 1//1
f 2//2 12//12 7//7
f 12//12 2//2 4//4
f 13//13 4//4 1//1
f 4//4 13//13 14//14
f 5//5 12//12 11//11
f 12//12 5//5 7//7
f 15//15 1//1 11//11
f 1//1 15//15 13//13
f 4//4 16//16 12//12
f 16//16 4//4 14//14
f 17//17 14//14 13//13
f 14//14 17//17 18//18
f 19//19 20//20 21//21
f 20//20 19//19 22//22
f 11//11 16//16 15//15
f 16//16 11//11 12//12
f 23//23 13//13 15//15
f 13//13 23//23 17//17
f 24//24 20//20 25//25
f 20//20 24//24 21//21
f 19//19 24//24 26//26
f 24//24 19//19 21//21
f 14//14 27//27 16//16
f 27//27 14//14 18//18
f 19//19 28//28 22//22
f 28//28 19//19 26//26
f 29//29 18//18 17//17
f 18//18 29//29 30//30
f 20//20 31//31 32//32
f 31//31 20//20 22//22
f 15//15 27//27 23//23
f 27//27 15//15 16//16
f 33//33 17//17 23//23
f 17//17 33//33 29//29
f 25//25 32//32 34//34
f 32//32 25//25 20//20
f 28//28 24//24 25//25
f 24//24 28//28 26//26
f 18//18 35//35 27//27
f 35//35 18//18 30//30
f 22//22 36//36 31//31
f 36//36 22//22 28//28
f 37//37 30//30 29//29
f 30//30 37//37 38//38
f 32//32 39//39 40//40
f 39//39 32//32 31//31
f 23//23 35//35 33//33
f 35//35 23//23 27//27
f 41//41 29//29 33//33
f 29//29 41//41 37//37
f 34//34 40//40 42//42
f 40//40 34//34 32//32
f 36//36 25//25 34//34
f 25//25 36//36 28//28
f 30//30 43//43 35//35
f 43//43 30//30 38//38
f 31//31 44//44 39//39
f 44//44 31//31 36//36
f 45//45 38//38 37//37
f 38//38 45//45 46//46
f 40//40 47//47 48//48
f 47//47 40//40 39//39
f 33//33 43//43 41//41
f 43//43 33//33 35//35
f 49//49 37//37 41//41
f 37//37 49//49 45//45
f 42//42 48//48 50//50
f 48//48 42//42 40//40
f 44//44 34//34 42//42
f 34//34 44//44 36//36
f 38//38 51//51 43//43
f 51//51 38//38 46//46
f 39//39 52//52 47//47
f 52//52 39//39 44//44
f 53//53 46//46 45//45
f 46//46 53//53 54//54
f 48//48 55//55 56//56
f 55//55 48//48 47//47
f 41//41 51//51 49//49
f 51//51 41//41 43//43
f 57//57 45//45 49//49
f 45//45 57//57 53//53
f 50//50 56//56 58//58
f 56//56 50//50 48//48
f 52//52 42//42 50//50
f 42//42 52//52 44//44
f 46//46 59//59 51//51
f 59//59 46//46 54//54
f 47//47 60//60 55//55
f 60//60 47//47 52//52
f 56//56 54//54 53//53
f 54//54 56//56 55//55
f 49//49 59//59 57//57
f 59//59 49//49 51//51
f 58//58 53//53 57//57
f 53//53 58//58 56//56
f 60//60 50//50 58//58
f 50//50 60//60 52//52
f 54//54 60//60 59//59
f 60//60 54//54 55//55
f 57//57 60//60 58//58
f 60//60 57//57 59//59
f 61//61 62//62 63//63
f 62//62 61//61 64//64
f 65//65 62//62 66//66
f 62//62 65//65 63//63
f 67//67 65//65 66//66
f 65//65 67//67 68//68
f 61//61 67//67 64//64
f 67//67 61//61 68//68
f 62//62 67//67 66//66
f 67//67 62//62 64//64
f 69//69 6//6 8//8
f 6//6 69//69 70//70
f 70//70 10//10 6//6
f 10//10 70//70 71//71
f 71//71 9//9 10//10
f 9//9 71//71 72//72
f 9//9 69//69 8//8
f 69//69 9//9 72//72
f 70//70 65//65 71//71
f 70//70 63//63 65//65
f 63//63 69//69 61//61
f 69//69 63//63 70//70
f 68//68 71//71 65//65
f 61//61 71//71 68//68
f 61//61 72//72 71//71
f 72//72 61//61 69//69
f 73//73 74//74 75//75
f 74//74 73//73 76//76
f 77//77 74//74 78//78
f 74//74 77//77 75//75
f 79//79 75//75 77//77
f 75//75 79//79 73//73
f 73//73 80//80 76//76
f 80//80 73//73 79//79
f 78//78 76//76 80//80
f 76//76 78//78 74//74
f 80//80 77//77 78//78
f 77//77 80//80 79//79
f 81//81 82//82 83//83
f 82//82 81//81 84//84
f 85//85 82//82 86//86
f 82//82 85//85 83//83
f 87//87 88//88 85//85
f 87//87 89//89 88//88
f 87//87 90//90 89//89
f 90//90 81//81 91//91
f 81//81 90//90 87//87
f 91//91 85//85 88//88
f 91//91 83//83 85//85
f 83//83 91//91 81//81
f 81//81 92//92 84//84
f 92//92 81//81 87//87
f 86//86 93//93 92//92
f 86//86 94//94 93//93
f 94//94 82//82 95//95
f 82//82 94//94 86//86
f 96//96 92//92 93//93
f 95//95 92//92 96//96
f 95//95 84//84 92//92
f 84//84 95//95 82//82
f 92//92 85//85 86//86
f 85//85 92//92 87//87
f 95//95 91//91 94//94
f 91//91 95//95 90//90
f 89//89 95//95 96//96
f 95//95 89//89 90//90
f 91//91 93//93 94//94
f 93//93 91//91 88//88
f 89//89 93//93 88//88
f 93//93 89//89 96//96
f 97//97 98//98 99//99
f 98//98 97//97 100//100
f 99//99 101//101 102//102
f 101//101 99//99 98//98
f 103//103 102//102 104//104
f 102//102 103//103 105//105
f 106//106 102//102 105//105
f 102//102 106//106 99//99
f 107//107 99//99 106//106
f 99//99 107//107 97//97
f 108//108 97//97 107//107
f 97//97 108//108 109//109
f 109//109 100//100 97//97
f 100//100 109//109 110//110
f 111//111 112//112 113//113
f 100//100 114//114 98//98
f 114//114 100//100 115//115
f 111//111 113//113 116//116
f 98//98 117//117 101//101
f 117//117 98//98 114//114
f 104//104 101//101 118//118
f 101//101 104//104 102//102
f 119//119 104//104 120//120
f 104//104 119//119 103//103
f 119//119 121//121 103//103
f 121//121 119//119 122//122
f 103//103 123//123 105//105
f 123//123 103//103 121//121
f 105//105 124//124 106//106
f 124//124 105//105 123//123
f 124//124 107//107 106//106
f 107//107 124//124 125//125
f 125//125 108//108 107//107
f 108//108 125//125 126//126
f 126//126 127//127 108//108
f 127//127 126//126 128//128
f 127//127 109//109 108//108
f 109//109 127//127 129//129
f 129//129 110//110 109//109
f 110//110 129//129 130//130
f 112//112 131//131 113//113
f 110//110 115//115 100//100
f 115//115 110//110 132//132
f 133//133 111//111 134//134
f 111//111 133//133 112//112
f 114//114 135//135 136//136
f 135//135 114//114 115//115
f 116//116 113//113 137//137
f 111//111 138//138 134//134
f 138//138 111//111 116//116
f 114//114 139//139 117//117
f 139//139 114//114 136//136
f 118//118 117//117 140//140
f 117//117 118//118 101//101
f 120//120 118//118 141//141
f 118//118 120//120 104//104
f 120//120 142//142 119//119
f 142//142 120//120 143//143
f 142//142 122//122 119//119
f 122//122 142//142 144//144
f 122//122 145//145 121//121
f 145//145 122//122 146//146
f 121//121 147//147 123//123
f 147//147 121//121 145//145
f 123//123 148//148 124//124
f 148//148 123//123 147//147
f 148//148 125//125 124//124
f 125//125 148//148 149//149
f 149//149 126//126 125//125
f 126//126 149//149 150//150
f 150//150 128//128 126//126
f 128//128 150//150 151//151
f 128//128 152//152 127//127
f 152//152 128//128 153//153
f 154//154 127//127 152//152
f 127//127 154//154 129//129
f 155//155 129//129 154//154
f 129//129 155//155 130//130
f 131//131 156//156 113//113
f 130//130 132//132 110//110
f 132//132 130//130 157//157
f 158//158 112//112 133//133
f 112//112 158//158 131//131
f 115//115 159//159 135//135
f 159//159 115//115 132//132
f 160//160 134//134 161//161
f 134//134 160//160 133//133
f 136//136 162//162 163//163
f 162//162 136//136 135//135
f 137//137 113//113 164//164
f 116//116 165//165 138//138
f 165//165 116//116 137//137
f 134//134 166//166 161//161
f 166//166 134//134 138//138
f 136//136 167//167 139//139
f 167//167 136//136 163//163
f 117//117 168//168 140//140
f 168//168 117//117 139//139
f 141//141 140//140 169//169
f 140//140 141//141 118//118
f 141//141 143//143 120//120
f 143//143 141//141 170//170
f 142//142 171//171 172//172
f 143//143 171//171 142//142
f 171//171 143//143 173//173
f 142//142 174//174 144//144
f 174//174 142//142 172//172
f 144//144 174//174 175//175
f 175//175 122//122 144//144
f 122//122 175//175 146//146
f 145//145 146//146 176//176
f 176//176 147//147 145//145
f 147//147 176//176 177//177
f 177//177 148//148 147//147
f 148//148 177//177 178//178
f 178//178 149//149 148//148
f 149//149 178//178 179//179
f 179//179 150//150 149//149
f 150//150 179//179 180//180
f 150//150 180//180 151//151
f 128//128 181//181 153//153
f 181//181 128//128 151//151
f 153//153 181//181 182//182
f 182//182 152//152 153//153
f 152//152 182//182 183//183
f 184//184 152//152 183//183
f 185//185 152//152 184//184
f 152//152 185//185 154//154
f 186//186 154//154 185//185
f 154//154 186//186 155//155
f 156//156 187//187 113//113
f 188//188 130//130 155//155
f 130//130 188//188 157//157
f 189//189 131//131 158//158
f 131//131 189//189 156//156
f 132//132 190//190 159//159
f 190//190 132//132 157//157
f 191//191 133//133 160//160
f 133//133 191//191 158//158
f 135//135 192//192 162//162
f 192//192 135//135 159//159
f 163//163 160//160 161//161
f 160//160 163//163 162//162
f 164//164 113//113 193//193
f 137//137 194//194 165//165
f 194//194 137//137 164//164
f 138//138 195//195 166//166
f 195//195 138//138 165//165
f 163//163 166//166 167//167
f 166//166 163//163 161//161
f 139//139 196//196 168//168
f 196//196 139//139 167//167
f 140//140 197//197 169//169
f 197//197 140//140 168//168
f 169//169 170//170 141//141
f 170//170 169//169 198//198
f 170//170 173//173 143//143
f 173//173 170//170 199//199
f 173//173 200//200 171//171
f 173//173 201//201 200//200
f 201//201 173//173 202//202
f 171//171 174//174 172//172
f 200//200 174//174 171//171
f 200//200 175//175 174//174
f 200//200 146//146 175//175
f 200//200 176//176 146//146
f 200//200 177//177 176//176
f 200//200 178//178 177//177
f 200//200 179//179 178//178
f 200//200 180//180 179//179
f 200//200 151//151 180//180
f 200//200 181//181 151//151
f 200//200 182//182 181//181
f 200//200 183//183 182//182
f 200//200 184//184 183//183
f 184//184 200//200 203//203
f 204//204 205//205 203//203
f 203//203 185//185 184//184
f 185//185 203//203 205//205
f 206//206 185//185 205//205
f 185//185 206//206 186//186
f 187//187 207//207 113//113
f 208//208 155//155 186//186
f 155//155 208//208 188//188
f 209//209 156//156 189//189
f 156//156 209//209 187//187
f 210//210 157//157 188//188
f 157//157 210//210 190//190
f 211//211 158//158 191//191
f 158//158 211//211 189//189
f 159//159 212//212 192//192
f 212//212 159//159 190//190
f 162//162 191//191 160//160
f 191//191 162//162 192//192
f 193//193 113//113 213//213
f 164//164 214//214 194//194
f 214//214 164//164 193//193
f 165//165 215//215 195//195
f 215//215 165//165 194//194
f 167//167 195//195 196//196
f 195//195 167//167 166//166
f 168//168 216//216 197//197
f 216//216 168//168 196//196
f 197//197 198//198 169//169
f 198//198 197//197 217//217
f 198//198 199//199 170//170
f 199//199 198//198 218//218
f 199//199 202//202 173//173
f 202//202 199//199 219//219
f 220//220 221//221 222//222
f 220//220 204//204 221//221
f 204//204 220//220 205//205
f 223//223 224//224 225//225
f 224//224 223//223 226//226
f 227//227 223//223 225//225
f 228//228 223//223 227//227
f 223//223 228//228 229//229
f 228//228 230//230 231//231
f 232//232 233//233 234//234
f 235//235 232//232 236//236
f 232//232 235//235 237//237
f 238//238 235//235 236//236
f 239//239 235//235 238//238
f 235//235 239//239 240//240
f 201//201 202//202 241//241
f 241//241 242//242 243//243
f 242//242 241//241 202//202
f 201//201 203//203 200//200
f 201//201 204//204 203//203
f 241//241 204//204 201//201
f 204//204 241//241 221//221
f 244//244 231//231 230//230
f 231//231 244//244 245//245
f 231//231 229//229 228//228
f 229//229 231//231 246//246
f 229//229 226//226 223//223
f 226//226 229//229 247//247
f 226//226 222//222 224//224
f 248//248 222//222 226//226
f 222//222 248//248 220//220
f 249//249 205//205 220//220
f 205//205 249//249 206//206
f 207//207 250//250 113//113
f 251//251 186//186 206//206
f 186//186 251//251 208//208
f 252//252 187//187 209//209
f 187//187 252//252 207//207
f 253//253 188//188 208//208
f 188//188 253//253 210//210
f 254//254 189//189 211//211
f 189//189 254//254 209//209
f 255//255 190//190 210//210
f 190//190 255//255 212//212
f 192//192 211//211 191//191
f 211//211 192//192 212//212
f 213//213 113//113 256//256
f 193//193 257//257 214//214
f 257//257 193//193 213//213
f 194//194 258//258 215//215
f 258//258 194//194 214//214
f 196//196 215//215 216//216
f 215//215 196//196 195//195
f 216//216 217//217 197//197
f 217//217 216//216 259//259
f 217//217 218//218 198//198
f 218//218 217//217 260//260
f 218//218 219//219 199//199
f 219//219 218//218 261//261
f 219//219 242//242 202//202
f 242//242 219//219 262//262
f 243//243 240//240 239//239
f 242//242 240//240 243//243
f 240//240 242//242 263//263
f 240//240 237//237 235//235
f 237//237 240//240 264//264
f 237//237 233//233 232//232
f 233//233 237//237 265//265
f 233//233 266//266 234//234
f 266//266 233//233 267//267
f 238//238 243//243 239//239
f 238//238 241//241 243//243
f 236//236 241//241 238//238
f 232//232 241//241 236//236
f 234//234 241//241 232//232
f 266//266 241//241 234//234
f 268//268 241//241 266//266
f 244//244 241//241 268//268
f 230//230 241//241 244//244
f 228//228 241//241 230//230
f 227//227 241//241 228//228
f 225//225 241//241 227//227
f 224//224 241//241 225//225
f 222//222 241//241 224//224
f 241//241 222//222 221//221
f 268//268 245//245 244//244
f 245//245 268//268 269//269
f 245//245 246//246 231//231
f 246//246 245//245 270//270
f 246//246 247//247 229//229
f 247//247 246//246 271//271
f 272//272 226//226 247//247
f 226//226 272//272 248//248
f 273//273 220//220 248//248
f 220//220 273//273 249//249
f 250//250 274//274 113//113
f 275//275 206//206 249//249
f 206//206 275//275 251//251
f 276//276 207//207 252//252
f 207//207 276//276 250//250
f 277//277 208//208 251//251
f 208//208 277//277 253//253
f 278//278 209//209 254//254
f 209//209 278//278 252//252
f 279//279 210//210 253//253
f 210//210 279//279 255//255
f 254//254 212//212 255//255
f 212//212 254//254 211//211
f 256//256 113//113 280//280
f 256//256 257//257 213//213
f 257//257 256//256 281//281
f 214//214 282//282 258//258
f 282//282 214//214 257//257
f 215//215 259//259 216//216
f 259//259 215//215 258//258
f 259//259 260//260 217//217
f 260//260 259//259 283//283
f 260//260 261//261 218//218
f 261//261 260//260 284//284
f 261//261 262//262 219//219
f 262//262 261//261 285//285
f 262//262 263//263 242//242
f 263//263 262//262 286//286
f 263//263 264//264 240//240
f 264//264 263//263 287//287
f 264//264 265//265 237//237
f 265//265 264//264 288//288
f 265//265 267//267 233//233
f 267//267 265//265 289//289
f 267//267 268//268 266//266
f 268//268 267//267 269//269
f 269//269 270//270 245//245
f 270//270 269//269 290//290
f 270//270 271//271 246//246
f 271//271 270//270 291//291
f 292//292 247//247 271//271
f 247//247 292//292 272//272
f 293//293 248//248 272//272
f 248//248 293//293 273//273
f 113//113 274//274 294//294
f 295//295 249//249 273//273
f 249//249 295//295 275//275
f 276//276 274//274 250//250
f 274//274 276//276 296//296
f 297//297 251//251 275//275
f 251//251 297//297 277//277
f 298//298 252//252 278//278
f 252//252 298//298 276//276
f 299//299 253//253 277//277
f 253//253 299//299 279//279
f 278//278 255//255 279//279
f 255//255 278//278 254//254
f 113//113 300//300 280//280
f 280//280 281//281 256//256
f 281//281 280//280 301//301
f 281//281 282//282 257//257
f 282//282 281//281 302//302
f 258//258 283//283 259//259
f 283//283 258//258 282//282
f 283//283 284//284 260//260
f 284//284 283//283 303//303
f 284//284 285//285 261//261
f 285//285 284//284 304//304
f 285//285 286//286 262//262
f 286//286 285//285 305//305
f 286//286 287//287 263//263
f 287//287 286//286 306//306
f 307//307 264//264 287//287
f 264//264 307//307 288//288
f 288//288 289//289 265//265
f 289//289 288//288 308//308
f 289//289 269//269 267//267
f 269//269 289//289 290//290
f 290//290 291//291 270//270
f 291//291 290//290 309//309
f 310//310 271//271 291//291
f 271//271 310//310 292//292
f 311//311 272//272 292//292
f 272//272 311//311 293//293
f 113//113 294//294 312//312
f 313//313 273//273 293//293
f 273//273 313//313 295//295
f 296//296 294//294 274//274
f 294//294 296//296 314//314
f 315//315 275//275 295//295
f 275//275 315//315 297//297
f 298//298 296//296 276//276
f 296//296 298//298 316//316
f 317//317 277//277 297//297
f 277//277 317//317 299//299
f 298//298 279//279 299//299
f 279//279 298//298 278//278
f 113//113 318//318 300//300
f 300//300 301//301 280//280
f 301//301 300//300 319//319
f 301//301 302//302 281//281
f 302//302 301//301 320//320
f 282//282 303//303 283//283
f 303//303 282//282 302//302
f 303//303 304//304 284//284
f 304//304 303//303 321//321
f 304//304 305//305 285//285
f 305//305 304//304 322//322
f 305//305 306//306 286//286
f 306//306 305//305 323//323
f 324//324 287//287 306//306
f 287//287 324//324 307//307
f 325//325 288//288 307//307
f 288//288 325//325 308//308
f 308//308 290//290 289//289
f 290//290 308//308 309//309
f 326//326 291//291 309//309
f 291//291 326//326 310//310
f 327//327 292//292 310//310
f 292//292 327//327 311//311
f 113//113 312//312 328//328
f 329//329 293//293 311//311
f 293//293 329//329 313//313
f 314//314 312//312 294//294
f 312//312 314//314 330//330
f 331//331 295//295 313//313
f 295//295 331//331 315//315
f 316//316 314//314 296//296
f 314//314 316//316 332//332
f 333//333 297//297 315//315
f 297//297 333//333 317//317
f 316//316 299//299 317//317
f 299//299 316//316 298//298
f 113//113 334//334 318//318
f 318//318 319//319 300//300
f 319//319 318//318 335//335
f 319//319 320//320 301//301
f 320//320 319//319 336//336
f 302//302 321//321 303//303
f 321//321 302//302 320//320
f 321//321 322//322 304//304
f 322//322 321//321 337//337
f 322//322 323//323 305//305
f 323//323 322//322 338//338
f 339//339 306//306 323//323
f 306//306 339//339 324//324
f 340//340 307//307 324//324
f 307//307 340//340 325//325
f 326//326 308//308 325//325
f 308//308 326//326 309//309
f 341//341 310//310 326//326
f 310//310 341//341 327//327
f 113//113 328//328 342//342
f 343//343 311//311 327//327
f 311//311 343//343 329//329
f 330//330 328//328 312//312
f 328//328 330//330 344//344
f 331//331 329//329 345//345
f 329//329 331//331 313//313
f 332//332 330//330 314//314
f 330//330 332//332 346//346
f 347//347 315//315 331//331
f 315//315 347//347 333//333
f 332//332 317//317 333//333
f 317//317 332//332 316//316
f 113//113 348//348 334//334
f 334//334 335//335 318//318
f 335//335 334//334 349//349
f 335//335 336//336 319//319
f 336//336 335//335 350//350
f 320//320 337//337 321//321
f 337//337 320//320 336//336
f 337//337 338//338 322//322
f 338//338 337//337 351//351
f 338//338 339//339 323//323
f 339//339 338//338 352//352
f 353//353 324//324 339//339
f 324//324 353//353 340//340
f 341//341 325//325 340//340
f 325//325 341//341 326//326
f 113//113 342//342 354//354
f 355//355 327//327 341//341
f 327//327 355//355 343//343
f 344//344 342//342 328//328
f 342//342 344//344 356//356
f 345//345 343//343 357//357
f 343//343 345//345 329//329
f 346//346 344//344 330//330
f 344//344 346//346 358//358
f 347//347 345//345 359//359
f 345//345 347//347 331//331
f 346//346 333//333 347//347
f 333//333 346//346 332//332
f 113//113 354//354 348//348
f 348//348 349//349 334//334
f 349//349 348//348 360//360
f 349//349 350//350 335//335
f 350//350 349//349 361//361
f 336//336 351//351 337//337
f 351//351 336//336 350//350
f 351//351 352//352 338//338
f 352//352 351//351 362//362
f 352//352 353//353 339//339
f 353//353 352//352 363//363
f 355//355 340//340 353//353
f 340//340 355//355 341//341
f 356//356 354//354 342//342
f 354//354 356//356 364//364
f 357//357 355//355 365//365
f 355//355 357//357 343//343
f 358//358 356//356 344//344
f 356//356 358//358 366//366
f 359//359 357//357 367//367
f 357//357 359//359 345//345
f 346//346 359//359 358//358
f 359//359 346//346 347//347
f 354//354 360//360 348//348
f 360//360 354//354 364//364
f 360//360 361//361 349//349
f 361//361 360//360 368//368
f 350//350 362//362 351//351
f 362//362 350//350 361//361
f 362//362 363//363 352//352
f 363//363 362//362 369//369
f 365//365 353//353 363//363
f 353//353 365//365 355//355
f 366//366 364//364 356//356
f 364//364 366//366 370//370
f 367//367 365//365 371//371
f 365//365 367//367 357//357
f 358//358 367//367 366//366
f 367//367 358//358 359//359
f 364//364 368//368 360//360
f 368//368 364//364 370//370
f 361//361 369//369 362//362
f 369//369 361//361 368//368
f 371//371 363//363 369//369
f 363//363 371//371 365//365
f 366//366 371//371 370//370
f 371//371 366//366 367//367
f 370//370 369//369 368//368
f 369//369 370//370 371//371
f 372//372 373//373 374//374
f 373//373 372//372 375//375
f 374//374 376//376 377//377
f 376//376 374//374 373//373
f 378//378 377//377 379//379
f 377//377 378//378 380//380
f 381//381 377//377 380//380
f 377//377 381//381 374//374
f 382//382 374//374 381//381
f 374//374 382//382 372//372
f 383//383 372//372 382//382
f 372//372 383//383 384//384
f 384//384 375//375 372//372
f 375//375 384//384 385//385
f 386//386 387//387 388//388
f 375//375 389//389 373//373
f 389//389 375//375 390//390
f 386//386 388//388 391//391
f 373//373 392//392 376//376
f 392//392 373//373 389//389
f 379//379 376//376 393//393
f 376//376 379//379 377//377
f 394//394 379//379 395//395
f 379//379 394//394 378//378
f 394//394 396//396 378//378
f 396//396 394//394 397//397
f 378//378 398//398 380//380
f 398//398 378//378 396//396
f 380//380 399//399 381//381
f 399//399 380//380 398//398
f 399//399 382//382 381//381
f 382//382 399//399 400//400
f 400//400 383//383 382//382
f 383//383 400//400 401//401
f 401//401 402//402 383//383
f 402//402 401//401 403//403
f 402//402 384//384 383//383
f 384//384 402//402 404//404
f 404//404 385//385 384//384
f 385//385 404//404 405//405
f 387//387 406//406 388//388
f 385//385 390//390 375//375
f 390//390 385//385 407//407
f 408//408 386//386 409//409
f 386//386 408//408 387//387
f 389//389 410//410 411//411
f 410//410 389//389 390//390
f 391//391 388//388 412//412
f 386//386 413//413 409//409
f 413//413 386//386 391//391
f 389//389 414//414 392//392
f 414//414 389//389 411//411
f 393//393 392//392 415//415
f 392//392 393//393 376//376
f 395//395 393//393 416//416
f 393//393 395//395 379//379
f 395//395 417//417 394//394
f 417//417 395//395 418//418
f 417//417 397//397 394//394
f 397//397 417//417 419//419
f 397//397 420//420 396//396
f 420//420 397//397 421//421
f 396//396 422//422 398//398
f 422//422 396//396 420//420
f 398//398 423//423 399//399
f 423//423 398//398 422//422
f 423//423 400//400 399//399
f 400//400 423//423 424//424
f 424//424 401//401 400//400
f 401//401 424//424 425//425
f 425//425 403//403 401//401
f 403//403 425//425 426//426
f 403//403 427//427 402//402
f 427//427 403//403 428//428
f 429//429 402//402 427//427
f 402//402 429//429 404//404
f 430//430 404//404 429//429
f 404//404 430//430 405//405
f 406//406 431//431 388//388
f 405//405 407//407 385//385
f 407//407 405//405 432//432
f 433//433 387//387 408//408
f 387//387 433//433 406//406
f 390//390 434//434 410//410
f 434//434 390//390 407//407
f 435//435 409//409 436//436
f 409//409 435//435 408//408
f 411//411 437//437 438//438
f 437//437 411//411 410//410
f 412//412 388//388 439//439
f 391//391 440//440 413//413
f 440//440 391//391 412//412
f 409//409 441//441 436//436
f 441//441 409//409 413//413
f 411//411 442//442 414//414
f 442//442 411//411 438//438
f 392//392 443//443 415//415
f 443//443 392//392 414//414
f 416//416 415//415 444//444
f 415//415 416//416 393//393
f 416//416 418//418 395//395
f 418//418 416//416 445//445
f 417//417 446//446 447//447
f 418//418 446//446 417//417
f 446//446 418//418 448//448
f 417//417 449//449 419//419
f 449//449 417//417 447//447
f 419//419 449//449 450//450
f 450//450 397//397 419//419
f 397//397 450//450 421//421
f 420//420 421//421 451//451
f 451//451 422//422 420//420
f 422//422 451//451 452//452
f 452//452 423//423 422//422
f 423//423 452//452 453//453
f 453//453 424//424 423//423
f 424//424 453//453 454//454
f 454//454 425//425 424//424
f 425//425 454//454 455//455
f 425//425 455//455 426//426
f 403//403 456//456 428//428
f 456//456 403//403 426//426
f 428//428 456//456 457//457
f 457//457 427//427 428//428
f 427//427 457//457 458//458
f 459//459 427//427 458//458
f 460//460 427//427 459//459
f 427//427 460//460 429//429
f 461//461 429//429 460//460
f 429//429 461//461 430//430
f 431//431 462//462 388//388
f 463//463 405//405 430//430
f 405//405 463//463 432//432
f 464//464 406//406 433//433
f 406//406 464//464 431//431
f 407//407 465//465 434//434
f 465//465 407//407 432//432
f 466//466 408//408 435//435
f 408//408 466//466 433//433
f 410//410 467//467 437//437
f 467//467 410//410 434//434
f 438//438 435//435 436//436
f 435//435 438//438 437//437
f 439//439 388//388 468//468
f 412//412 469//469 440//440
f 469//469 412//412 439//439
f 413//413 470//470 441//441
f 470//470 413//413 440//440
f 438//438 441//441 442//442
f 441//441 438//438 436//436
f 414//414 471//471 443//443
f 471//471 414//414 442//442
f 415//415 472//472 444//444
f 472//472 415//415 443//443
f 444//444 445//445 416//416
f 445//445 444//444 473//473
f 445//445 448//448 418//418
f 448//448 445//445 474//474
f 448//448 475//475 446//446
f 448//448 476//476 475//475
f 476//476 448//448 477//477
f 446//446 449//449 447//447
f 475//475 449//449 446//446
f 475//475 450//450 449//449
f 475//475 421//421 450//450
f 475//475 451//451 421//421
f 475//475 452//452 451//451
f 475//475 453//453 452//452
f 475//475 454//454 453//453
f 475//475 455//455 454//454
f 475//475 426//426 455//455
f 475//475 456//456 426//426
f 475//475 457//457 456//456
f 475//475 458//458 457//457
f 475//475 459//459 458//458
f 459//459 475//475 478//478
f 479//479 480//480 478//478
f 478//478 460//460 459//459
f 460//460 478//478 480//480
f 481//481 460//460 480//480
f 460//460 481//481 461//461
f 462//462 482//482 388//388
f 483//483 430//430 461//461
f 430//430 483//483 463//463
f 484//484 431//431 464//464
f 431//431 484//484 462//462
f 485//485 432//432 463//463
f 432//432 485//485 465//465
f 486//486 433//433 466//466
f 433//433 486//486 464//464
f 434//434 487//487 467//467
f 487//487 434//434 465//465
f 437//437 466//466 435//435
f 466//466 437//437 467//467
f 468//468 388//388 488//488
f 439//439 489//489 469//469
f 489//489 439//439 468//468
f 440//440 490//490 470//470
f 490//490 440//440 469//469
f 442//442 470//470 471//471
f 470//470 442//442 441//441
f 443//443 491//491 472//472
f 491//491 443//443 471//471
f 472//472 473//473 444//444
f 473//473 472//472 492//492
f 473//473 474//474 445//445
f 474//474 473//473 493//493
f 474//474 477//477 448//448
f 477//477 474//474 494//494
f 495//495 496//496 497//497
f 495//495 479//479 496//496
f 479//479 495//495 480//480
f 498//498 499//499 500//500
f 499//499 498//498 501//501
f 502//502 498//498 500//500
f 503//503 498//498 502//502
f 498//498 503//503 504//504
f 503//503 505//505 506//506
f 507//507 508//508 509//509
f 510//510 507//507 511//511
f 507//507 510//510 512//512
f 513//513 510//510 511//511
f 514//514 510//510 513//513
f 510//510 514//514 515//515
f 476//476 477//477 516//516
f 516//516 517//517 518//518
f 517//517 516//516 477//477
f 476//476 478//478 475//475
f 476//476 479//479 478//478
f 516//516 479//479 476//476
f 479//479 516//516 496//496
f 519//519 506//506 505//505
f 506//506 519//519 520//520
f 506//506 504//504 503//503
f 504//504 506//506 521//521
f 504//504 501//501 498//498
f 501//501 504//504 522//522
f 501//501 497//497 499//499
f 523//523 497//497 501//501
f 497//497 523//523 495//495
f 524//524 480//480 495//495
f 480//480 524//524 481//481
f 482//482 525//525 388//388
f 526//526 461//461 481//481
f 461//461 526//526 483//483
f 527//527 462//462 484//484
f 462//462 527//527 482//482
f 528//528 463//463 483//483
f 463//463 528//528 485//485
f 529//529 464//464 486//486
f 464//464 529//529 484//484
f 530//530 465//465 485//485
f 465//465 530//530 487//487
f 467//467 486//486 466//466
f 486//486 467//467 487//487
f 488//488 388//388 531//531
f 468//468 532//532 489//489
f 532//532 468//468 488//488
f 469//469 533//533 490//490
f 533//533 469//469 489//489
f 471//471 490//490 491//491
f 490//490 471//471 470//470
f 491//491 492//492 472//472
f 492//492 491//491 534//534
f 492//492 493//493 473//473
f 493//493 492//492 535//535
f 493//493 494//494 474//474
f 494//494 493//493 536//536
f 494//494 517//517 477//477
f 517//517 494//494 537//537
f 518//518 515//515 514//514
f 517//517 515//515 518//518
f 515//515 517//517 538//538
f 515//515 512//512 510//510
f 512//512 515//515 539//539
f 512//512 508//508 507//507
f 508//508 512//512 540//540
f 508//508 541//541 509//509
f 541//541 508//508 542//542
f 513//513 518//518 514//514
f 513//513 516//516 518//518
f 511//511 516//516 513//513
f 507//507 516//516 511//511
f 509//509 516//516 507//507
f 541//541 516//516 509//509
f 543//543 516//516 541//541
f 519//519 516//516 543//543
f 505//505 516//516 519//519
f 503//503 516//516 505//505
f 502//502 516//516 503//503
f 500//500 516//516 502//502
f 499//499 516//516 500//500
f 497//497 516//516 499//499
f 516//516 497//497 496//496
f 543//543 520//520 519//519
f 520//520 543//543 544//544
f 520//520 521//521 506//506
f 521//521 520//520 545//545
f 521//521 522//522 504//504
f 522//522 521//521 546//546
f 547//547 501//501 522//522
f 501//501 547//547 523//523
f 548//548 495//495 523//523
f 495//495 548//548 524//524
f 525//525 549//549 388//388
f 550//550 481//481 524//524
f 481//481 550//550 526//526
f 551//551 482//482 527//527
f 482//482 551//551 525//525
f 552//552 483//483 526//526
f 483//483 552//552 528//528
f 553//553 484//484 529//529
f 484//484 553//553 527//527
f 554//554 485//485 528//528
f 485//485 554//554 530//530
f 529//529 487//487 530//530
f 487//487 529//529 486//486
f 531//531 388//388 555//555
f 531//531 532//532 488//488
f 532//532 531//531 556//556
f 489//489 557//557 533//533
f 557//557 489//489 532//532
f 490//490 534//534 491//491
f 534//534 490//490 533//533
f 534//534 535//535 492//492
f 535//535 534//534 558//558
f 535//535 536//536 493//493
f 536//536 535//535 559//559
f 536//536 537//537 494//494
f 537//537 536//536 560//560
f 537//537 538//538 517//517
f 538//538 537//537 561//561
f 538//538 539//539 515//515
f 539//539 538//538 562//562
f 539//539 540//540 512//512
f 540//540 539//539 563//563
f 540//540 542//542 508//508
f 542//542 540//540 564//564
f 542//542 543//543 541//541
f 543//543 542//542 544//544
f 544//544 545//545 520//520
f 545//545 544//544 565//565
f 545//545 546//546 521//521
f 546//546 545//545 566//566
f 567//567 522//522 546//546
f 522//522 567//567 547//547
f 568//568 523//523 547//547
f 523//523 568//568 548//548
f 388//388 549//549 569//569
f 570//570 524//524 548//548
f 524//524 570//570 550//550
f 551//551 549//549 525//525
f 549//549 551//551 571//571
f 572//572 526//526 550//550
f 526//526 572//572 552//552
f 573//573 527//527 553//553
f 527//527 573//573 551//551
f 574//574 528//528 552//552
f 528//528 574//574 554//554
f 553//553 530//530 554//554
f 530//530 553//553 529//529
f 388//388 575//575 555//555
f 555//555 556//556 531//531
f 556//556 555//555 576//576
f 556//556 557//557 532//532
f 557//557 556//556 577//577
f 533//533 558//558 534//534
f 558//558 533//533 557//557
f 558//558 559//559 535//535
f 559//559 558//558 578//578
f 559//559 560//560 536//536
f 560//560 559//559 579//579
f 560//560 561//561 537//537
f 561//561 560//560 580//580
f 561//561 562//562 538//538
f 562//562 561//561 581//581
f 582//582 539//539 562//562
f 539//539 582//582 563//563
f 563//563 564//564 540//540
f 564//564 563//563 583//583
f 564//564 544//544 542//542
f 544//544 564//564 565//565
f 565//565 566//566 545//545
f 566//566 565//565 584//584
f 585//585 546//546 566//566
f 546//546 585//585 567//567
f 586//586 547//547 567//567
f 547//547 586//586 568//568
f 388//388 569//569 587//587
f 588//588 548//548 568//568
f 548//548 588//588 570//570
f 571//571 569//569 549//549
f 569//569 571//571 589//589
f 590//590 550//550 570//570
f 550//550 590//590 572//572
f 573//573 571//571 551//551
f 571//571 573//573 591//591
f 592//592 552//552 572//572
f 552//552 592//592 574//574
f 573//573 554//554 574//574
f 554//554 573//573 553//553
f 388//388 593//593 575//575
f 575//575 576//576 555//555
f 576//576 575//575 594//594
f 576//576 577//577 556//556
f 577//577 576//576 595//595
f 557//557 578//578 558//558
f 578//578 557//557 577//577
f 578//578 579//579 559//559
f 579//579 578//578 596//596
f 579//579 580//580 560//560
f 580//580 579//579 597//597
f 580//580 581//581 561//561
f 581//581 580//580 598//598
f 599//599 562//562 581//581
f 562//562 599//599 582//582
f 600//600 563//563 582//582
f 563//563 600//600 583//583
f 583//583 565//565 564//564
f 565//565 583//583 584//584
f 601//601 566//566 584//584
f 566//566 601//601 585//585
f 602//602 567//567 585//585
f 567//567 602//602 586//586
f 388//388 587//587 603//603
f 604//604 568//568 586//586
f 568//568 604//604 588//588
f 589//589 587//587 569//569
f 587//587 589//589 605//605
f 606//606 570//570 588//588
f 570//570 606//606 590//590
f 591//591 589//589 571//571
f 589//589 591//591 607//607
f 608//608 572//572 590//590
f 572//572 608//608 592//592
f 591//591 574//574 592//592
f 574//574 591//591 573//573
f 388//388 609//609 593//593
f 593//593 594//594 575//575
f 594//594 593//593 610//610
f 594//594 595//595 576//576
f 595//595 594//594 611//611
f 577//577 596//596 578//578
f 596//596 577//577 595//595
f 596//596 597//597 579//579
f 597//597 596//596 612//612
f 597//597 598//598 580//580
f 598//598 597//597 613//613
f 614//614 581//581 598//598
f 581//581 614//614 599//599
f 615//615 582//582 599//599
f 582//582 615//615 600//600
f 601//601 583//583 600//600
f 583//583 601//601 584//584
f 616//616 585//585 601//601
f 585//585 616//616 602//602
f 388//388 603//603 617//617
f 618//618 586//586 602//602
f 586//586 618//618 604//604
f 605//605 603//603 587//587
f 603//603 605//605 619//619
f 606//606 604//604 620//620
f 604//604 606//606 588//588
f 607//607 605//605 589//589
f 605//605 607//607 621//621
f 622//622 590//590 606//606
f 590//590 622//622 608//608
f 607//607 592//592 608//608
f 592//592 607//607 591//591
f 388//388 623//623 609//609
f 609//609 610//610 593//593
f 610//610 609//609 624//624
f 610//610 611//611 594//594
f 611//611 610//610 625//625
f 595//595 612//612 596//596
f 612//612 595//595 611//611
f 612//612 613//613 597//597
f 613//613 612//612 626//626
f 613//613 614//614 598//598
f 614//614 613//613 627//627
f 628//628 599//599 614//614
f 599//599 628//628 615//615
f 616//616 600//600 615//615
f 600//600 616//616 601//601
f 388//388 617//617 629//629
f 630//630 602//602 616//616
f 602//602 630//630 618//618
f 619//619 617//617 603//603
f 617//617 619//619 631//631
f 620//620 618//618 632//632
f 618//618 620//620 604//604
f 621//621 619//619 605//605
f 619//619 621//621 633//633
f 622//622 620//620 634//634
f 620//620 622//622 606//606
f 621//621 608//608 622//622
f 608//608 621//621 607//607
f 388//388 629//629 623//623
f 623//623 624//624 609//609
f 624//624 623//623 635//635
f 624//624 625//625 610//610
f 625//625 624//624 636//636
f 611//611 626//626 612//612
f 626//626 611//611 625//625
f 626//626 627//627 613//613
f 627//627 626//626 637//637
f 627//627 628//628 614//614
f 628//628 627//627 638//638
f 630//630 615//615 628//628
f 615//615 630//630 616//616
f 631//631 629//629 617//617
f 629//629 631//631 639//639
f 632//632 630//630 640//640
f 630//630 632//632 618//618
f 633//633 631//631 619//619
f 631//631 633//633 641//641
f 634//634 632//632 642//642
f 632//632 634//634 620//620
f 621//621 634//634 633//633
f 634//634 621//621 622//622
f 629//629 635//635 623//623
f 635//635 629//629 639//639
f 635//635 636//636 624//624
f 636//636 635//635 643//643
f 625//625 637//637 626//626
f 637//637 625//625 636//636
f 637//637 638//638 627//627
f 638//638 637//637 644//644
f 640//640 628//628 638//638
f 628//628 640//640 630//630
f 641//641 639//639 631//631
f 639//639 641//641 645//645
f 642//642 640//640 646//646
f 640//640 642//642 632//632
f 633//633 642//642 641//641
f 642//642 633//633 634//634
f 639//639 643//643 635//635
f 643//643 639//639 645//645
f 636//636 644//644 637//637
f 644//644 636//636 643//643
f 646//646 638//638 644//644
f 638//638 646//646 640//640
f 641//641 646//646 645//645
f 646//646 641//641 642//642
f 645//645 644//644 643//643
f 644//644 645//645 646//646