# https://github.com/mikedh/trimesh
v -0.11516900 -0.00686100 -0.07208500
v -0.11434900 -0.00680100 -0.07170000
v -0.11516900 -0.00680100 -0.07170000
v -0.11434900 -0.00686100 -0.07208500
v -0.11434900 -0.00678400 -0.07137500
v -0.11516900 -0.00678400 -0.07137500
v -0.13822300 -0.00864000 -0.06290600
v 0.13720300 -0.00945700 -0.06162200
v -0.13822300 -0.00945700 -0.06162200
v 0.13720300 -0.00864000 -0.06290600
v -0.13822300 -0.00672300 -0.07018100
v 0.13720300 -0.00680100 -0.06866200
v -0.13822300 -0.00680100 -0.06866200
v -0.03523900 -0.00672300 -0.07018100
v 0.03449200 -0.00672300 -0.07018100
v 0.13720300 -0.00672300 -0.07018100
v -0.13822300 -0.00796000 -0.06426600
v 0.13720300 -0.00796000 -0.06426600
v 0.13720300 -0.00703500 -0.06716000
v -0.13822300 -0.00703500 -0.06716000
v -0.13822300 -0.00742300 -0.06568900
v 0.13720300 -0.00742300 -0.06568900
v -0.13822300 -0.00945700 0.10219900
v 0.13720300 -0.01027800 0.10219900
v 0.13720300 -0.00945700 0.10219900
v -0.13822300 -0.01027800 0.10219900
v 0.13720300 -0.01027800 -0.06162200
v -0.13822300 -0.01027800 -0.06162200
v -0.12759700 -0.01027800 0.09301700
v -0.12759700 -0.01027800 -0.04968200
v 0.12671300 -0.01027800 -0.04968200
v 0.12671300 -0.01027800 0.09301700
v -0.12759700 -0.00863700 -0.04968200
v -0.12759700 -0.00863700 0.09301700
v 0.12671300 -0.00863700 0.09301700
v 0.12671300 -0.00863700 -0.04968200
v -0.09438600 -0.00697900 -0.07284200
v -0.09165200 -0.00680100 -0.07170000
v -0.09438600 -0.00680100 -0.07170000
v -0.09165200 -0.00697900 -0.07284200
v -0.09165200 -0.00677800 -0.07125100
v -0.09438600 -0.00677800 -0.07125100
v -0.03523900 -0.00742300 -0.07467400
v -0.12173200 -0.00742300 -0.07467400
v -0.03523900 -0.00703500 -0.07320300
v -0.12173200 -0.00703500 -0.07320300
v -0.12173200 -0.00796000 -0.07609700
v -0.12720100 -0.00796000 -0.07609700
v -0.12720100 -0.00742300 -0.07467400
v -0.03523900 -0.00796000 -0.07609700
v -0.12173200 -0.00680100 -0.07170000
v -0.12720100 -0.00680100 -0.07170000
v -0.12173200 -0.00675700 -0.07085300
v -0.12720100 -0.00675700 -0.07085300
v -0.03523900 -0.00680100 -0.07170000
v -0.12720100 -0.00703500 -0.07320300
v -0.12318800 0.01706800 0.06970300
v 0.12189200 0.01706800 0.06942900
v 0.13283100 0.01023200 0.09704900
v 0.03449200 -0.00945700 -0.07874000
v -0.03523900 -0.00945700 -0.07874000
v 0.03449200 -0.00864000 -0.07745700
v -0.03523900 -0.00864000 -0.07745700
v 0.03449200 -0.00796000 -0.07609700
v 0.03449200 -0.00742300 -0.07467400
v 0.03449200 -0.00703500 -0.07320300
v 0.03449200 -0.00680100 -0.07170000
v -0.13978000 -0.00796000 -0.07609700
v -0.13978000 -0.00742300 -0.07467400
v -0.13978000 -0.00864000 -0.07745700
v -0.13978000 -0.00945700 -0.07874000
v -0.13978000 -0.00945700 -0.06162200
v -0.13978000 -0.00945700 0.10219900
v -0.13978000 -0.00864000 -0.06290600
v -0.13978000 -0.00796000 -0.06426600
v -0.13978000 -0.00742300 -0.06568900
v -0.13978000 -0.00703500 -0.06716000
v -0.13978000 -0.00680100 -0.06866200
v -0.13978000 -0.00672300 -0.07018100
v -0.13978000 -0.00680100 -0.07170000
v -0.13978000 -0.00703500 -0.07320300
v -0.13412600 0.01023200 0.09704900
v 0.12189200 0.01706800 -0.08181300
v 0.13283100 0.01023200 -0.08181300
v -0.12318800 0.01706800 -0.08181300
v -0.13412600 0.01023200 -0.08181300
v -0.03523900 -0.00918400 -0.08181300
v -0.13978000 -0.00918400 -0.08181300
v 0.03449200 -0.00918400 -0.08181300
v 0.13860000 -0.00945700 -0.07874000
v 0.13860000 -0.00864000 -0.07745700
v 0.13860000 -0.00796000 -0.07609700
v 0.13860000 -0.00742300 -0.07467400
v 0.13860000 -0.00703500 -0.07320300
v 0.13860000 -0.00680100 -0.07170000
v 0.13860000 -0.00672300 -0.07018100
v 0.13860000 -0.00680100 -0.06866200
v 0.13860000 -0.00703500 -0.06716000
v 0.13860000 -0.00742300 -0.06568900
v 0.13860000 -0.00796000 -0.06426600
v 0.13860000 -0.00864000 -0.06290600
v 0.13860000 -0.00945700 -0.06162200
v 0.13860000 -0.00945700 0.10219900
v 0.13860000 -0.00918400 -0.08181300
v 0.13860000 -0.00918400 0.10386500
v -0.13978000 -0.00918400 0.10386500
v -0.13978000 0.00202800 0.10386500
v -0.13978000 0.00202800 -0.08181300
v -0.13467300 0.00202800 0.09759500
v -0.13467300 0.00202800 -0.08181300
v 0.13337800 0.00202800 0.09759500
v 0.13337800 0.00202800 -0.08181300
v 0.13860000 0.00202800 -0.08181300
v 0.13860000 0.00202800 0.10386500
v -0.01562000 -0.01029800 -0.05718200
v -0.01461400 -0.01029800 -0.05401000
v -0.01562000 -0.01029800 -0.05328200
v -0.01396500 -0.01029800 -0.05328200
v -0.01444100 -0.01029800 -0.05401000
v -0.01404300 -0.01029800 -0.05401700
v -0.01373700 -0.01029800 -0.05408600
v -0.01362100 -0.01029800 -0.05329800
v -0.01362600 -0.01029800 -0.05415100
v -0.01353000 -0.01029800 -0.05425200
v -0.01333700 -0.01029800 -0.05334600
v -0.01346300 -0.01029800 -0.05438200
v -0.01344000 -0.01029800 -0.05453600
v -0.01461400 -0.01029800 -0.05517600
v -0.01461400 -0.01029800 -0.05591200
v -0.01432600 -0.01029800 -0.05517600
v -0.01398800 -0.01029800 -0.05591200
v -0.01390300 -0.01029800 -0.05514500
v -0.01359600 -0.01029800 -0.05588300
v -0.01375000 -0.01029800 -0.05509800
v -0.01362400 -0.01029800 -0.05501900
v -0.01354000 -0.01029800 -0.05492700
v -0.01327400 -0.01029800 -0.05579400
v -0.01348400 -0.01029800 -0.05481900
v -0.01309600 -0.01029800 -0.05342700
v -0.01300000 -0.01029800 -0.05564800
v -0.01288500 -0.01029800 -0.05353900
v -0.01275400 -0.01029800 -0.05544600
v -0.01267800 -0.01029800 -0.05371500
v -0.01260400 -0.01029800 -0.05525600
v -0.01252500 -0.01029800 -0.05393400
v -0.01249200 -0.01029800 -0.05502500
v -0.01243200 -0.01029800 -0.05420000
v -0.01242300 -0.01029800 -0.05477200
v -0.01240000 -0.01029800 -0.05451300
v -0.01461400 -0.01029800 -0.05718200
v -0.01170400 -0.01029800 -0.05430400
v -0.01170400 -0.01029800 -0.05501400
v -0.01121800 -0.01029800 -0.05421100
v -0.01161800 -0.01029800 -0.05501400
v -0.01123800 -0.01029800 -0.05488700
v -0.01098100 -0.01029800 -0.05482500
v -0.01054400 -0.01029800 -0.05415700
v -0.01074000 -0.01029800 -0.05480400
v -0.01039900 -0.01029800 -0.05482700
v -0.01016900 -0.01029800 -0.05417300
v -0.01015300 -0.01029800 -0.05489700
v -0.00985100 -0.01029800 -0.05421900
v -0.01000400 -0.01029800 -0.05502800
v -0.00995400 -0.01029800 -0.05523400
v -0.00995400 -0.01029800 -0.05524900
v -0.01100200 -0.01029800 -0.05626200
v -0.01098300 -0.01029800 -0.05613700
v -0.01111500 -0.01029800 -0.05538900
v -0.01075800 -0.01029800 -0.05532300
v -0.01092700 -0.01029800 -0.05603800
v -0.01083600 -0.01029800 -0.05596400
v -0.01071100 -0.01029800 -0.05590900
v -0.01037400 -0.01029800 -0.05584500
v -0.00996000 -0.01029800 -0.05580200
v -0.00996000 -0.01029800 -0.05641300
v -0.00996000 -0.01029800 -0.05687100
v -0.00996000 -0.01029800 -0.05718200
v -0.00902400 -0.01029800 -0.05718200
v -0.00958900 -0.01029800 -0.05429600
v -0.00938200 -0.01029800 -0.05440500
v -0.00922500 -0.01029800 -0.05454600
v -0.00911400 -0.01029800 -0.05472200
v -0.00904700 -0.01029800 -0.05493400
v -0.00902400 -0.01029800 -0.05518100
v -0.01196100 -0.01029800 -0.05633900
v -0.01194300 -0.01029800 -0.05653200
v -0.01192500 -0.01029800 -0.05604600
v -0.01189000 -0.01029800 -0.05670600
v -0.01181600 -0.01029800 -0.05581300
v -0.01180200 -0.01029800 -0.05686300
v -0.01164300 -0.01029800 -0.05563000
v -0.01167800 -0.01029800 -0.05700200
v -0.01152800 -0.01029800 -0.05711500
v -0.01140800 -0.01029800 -0.05549000
v -0.01136100 -0.01029800 -0.05719600
v -0.01117700 -0.01029800 -0.05724500
v -0.01097600 -0.01029800 -0.05726100
v -0.01098600 -0.01029800 -0.05641000
v -0.01090800 -0.01029800 -0.05652000
v -0.01064800 -0.01029800 -0.05723100
v -0.01076300 -0.01029800 -0.05659700
v -0.01050100 -0.01029800 -0.05662200
v -0.01036000 -0.01029800 -0.05713800
v -0.01021500 -0.01029800 -0.05656400
v -0.01014800 -0.01029800 -0.05700900
v -0.00721200 -0.01029800 -0.05456600
v -0.00721200 -0.01029800 -0.05509700
v -0.00696500 -0.01029800 -0.05439200
v -0.00692500 -0.01029800 -0.05496400
v -0.00672900 -0.01029800 -0.05426400
v -0.00666400 -0.01029800 -0.05492200
v -0.00648500 -0.01029800 -0.05418600
v -0.00638200 -0.01029800 -0.05496600
v -0.00621500 -0.01029800 -0.05416000
v -0.00629400 -0.01029800 -0.05502400
v -0.00623000 -0.01029800 -0.05510800
v -0.00616600 -0.01029800 -0.05536900
v -0.00599000 -0.01029800 -0.05417700
v -0.00614800 -0.01029800 -0.05572300
v -0.00614800 -0.01029800 -0.05718200
v -0.00520200 -0.01029800 -0.05718200
v -0.00579100 -0.01029800 -0.05422900
v -0.00561800 -0.01029800 -0.05431600
v -0.00547000 -0.01029800 -0.05443700
v -0.00535400 -0.01029800 -0.05459300
v -0.00527000 -0.01029800 -0.05478400
v -0.00522000 -0.01029800 -0.05500900
v -0.00520200 -0.01029800 -0.05526800
v -0.00815700 -0.01029800 -0.05424100
v -0.00815700 -0.01029800 -0.05718200
v -0.00721200 -0.01029800 -0.05424100
v -0.00721200 -0.01029800 -0.05718200
v -0.00429900 -0.01029800 -0.05430400
v -0.00429900 -0.01029800 -0.05501400
v -0.00381300 -0.01029800 -0.05421100
v -0.00421300 -0.01029800 -0.05501400
v -0.00383300 -0.01029800 -0.05488700
v -0.00357600 -0.01029800 -0.05482500
v -0.00313900 -0.01029800 -0.05415700
v -0.00333500 -0.01029800 -0.05480400
v -0.00299400 -0.01029800 -0.05482700
v -0.00276400 -0.01029800 -0.05417300
v -0.00274800 -0.01029800 -0.05489700
v -0.00244600 -0.01029800 -0.05421900
v -0.00259900 -0.01029800 -0.05502800
v -0.00254900 -0.01029800 -0.05523400
v -0.00254900 -0.01029800 -0.05524900
v -0.00359700 -0.01029800 -0.05626200
v -0.00357800 -0.01029800 -0.05613700
v -0.00371000 -0.01029800 -0.05538900
v -0.00335300 -0.01029800 -0.05532300
v -0.00352200 -0.01029800 -0.05603800
v -0.00343100 -0.01029800 -0.05596400
v -0.00330600 -0.01029800 -0.05590900
v -0.00296900 -0.01029800 -0.05584500
v -0.00255500 -0.01029800 -0.05580200
v -0.00255500 -0.01029800 -0.05641300
v -0.00255500 -0.01029800 -0.05687100
v -0.00255500 -0.01029800 -0.05718200
v -0.00162000 -0.01029800 -0.05718200
v -0.00218400 -0.01029800 -0.05429600
v -0.00197700 -0.01029800 -0.05440500
v -0.00182000 -0.01029800 -0.05454600
v -0.00170900 -0.01029800 -0.05472200
v -0.00164200 -0.01029800 -0.05493400
v -0.00162000 -0.01029800 -0.05518100
v -0.00455600 -0.01029800 -0.05633900
v -0.00453800 -0.01029800 -0.05653200
v -0.00452000 -0.01029800 -0.05604600
v -0.00448500 -0.01029800 -0.05670600
v -0.00441200 -0.01029800 -0.05581300
v -0.00439700 -0.01029800 -0.05686300
v -0.00423800 -0.01029800 -0.05563000
v -0.00427300 -0.01029800 -0.05700200
v -0.00412300 -0.01029800 -0.05711500
v -0.00400300 -0.01029800 -0.05549000
v -0.00395600 -0.01029800 -0.05719600
v -0.00377200 -0.01029800 -0.05724500
v -0.00357100 -0.01029800 -0.05726100
v -0.00358100 -0.01029800 -0.05641000
v -0.00350300 -0.01029800 -0.05652000
v -0.00324400 -0.01029800 -0.05723100
v -0.00335900 -0.01029800 -0.05659700
v -0.00309600 -0.01029800 -0.05662200
v -0.00295500 -0.01029800 -0.05713800
v -0.00281000 -0.01029800 -0.05656400
v -0.00274300 -0.01029800 -0.05700900
v -0.00005800 -0.01029800 -0.05423000
v 0.00002800 -0.01029800 -0.05502900
v 0.00023500 -0.01029800 -0.05417700
v 0.00006700 -0.01029800 -0.05492700
v 0.00018400 -0.01029800 -0.05485100
v 0.00035800 -0.01029800 -0.05480400
v 0.00056500 -0.01029800 -0.05416000
v 0.00056800 -0.01029800 -0.05478800
v 0.00088800 -0.01029800 -0.05417600
v 0.00084100 -0.01029800 -0.05481100
v 0.00111100 -0.01029800 -0.05487900
v 0.00119800 -0.01029800 -0.05422600
v 0.00136500 -0.01029800 -0.05498200
v 0.00167100 -0.01029800 -0.05436900
v 0.00158900 -0.01029800 -0.05511300
v 0.00167100 -0.01029800 -0.05511300
v -0.00093600 -0.01029800 -0.05514700
v -0.00088800 -0.01029800 -0.05545000
v -0.00091100 -0.01029800 -0.05494400
v -0.00083600 -0.01029800 -0.05475900
v -0.00074200 -0.01029800 -0.05569900
v -0.00071000 -0.01029800 -0.05459100
v -0.00049700 -0.01029800 -0.05589100
v -0.00053300 -0.01029800 -0.05444100
v -0.00031500 -0.01029800 -0.05431800
v -0.00014700 -0.01029800 -0.05602500
v 0.00017900 -0.01029800 -0.05609100
v 0.00004600 -0.01029800 -0.05512200
v 0.00009900 -0.01029800 -0.05518900
v 0.00043100 -0.01029800 -0.05529900
v 0.00046300 -0.01029800 -0.05614200
v 0.00074200 -0.01029800 -0.05535500
v 0.00076100 -0.01029800 -0.05623600
v 0.00107600 -0.01029800 -0.05542500
v 0.00082000 -0.01029800 -0.05629900
v 0.00084000 -0.01029800 -0.05639100
v 0.00091100 -0.01029800 -0.05719400
v 0.00117300 -0.01029800 -0.05710700
v 0.00140000 -0.01029800 -0.05555000
v 0.00139500 -0.01029800 -0.05698500
v 0.00157400 -0.01029800 -0.05683400
v 0.00162600 -0.01029800 -0.05573000
v 0.00170200 -0.01029800 -0.05666100
v 0.00175900 -0.01029800 -0.05596400
v 0.00177800 -0.01029800 -0.05646700
v 0.00180400 -0.01029800 -0.05625000
v -0.00094900 -0.01029800 -0.05625300
v -0.00094900 -0.01029800 -0.05702800
v -0.00086300 -0.01029800 -0.05625300
v -0.00043500 -0.01029800 -0.05719000
v -0.00069900 -0.01029800 -0.05636100
v -0.00043500 -0.01029800 -0.05648800
v -0.00010300 -0.01029800 -0.05659200
v -0.00009800 -0.01029800 -0.05724500
v 0.00029500 -0.01029800 -0.05663500
v 0.00027700 -0.01029800 -0.05726400
v 0.00061300 -0.01029800 -0.05724600
v 0.00053700 -0.01029800 -0.05662000
v 0.00070600 -0.01029800 -0.05657300
v 0.00080600 -0.01029800 -0.05649700
v 0.00319200 -0.01029800 -0.05571800
v 0.00324300 -0.01029800 -0.05527000
v 0.00315000 -0.01029800 -0.05425300
v 0.00346700 -0.01029800 -0.05417500
v 0.00330400 -0.01029800 -0.05511100
v 0.00338100 -0.01029800 -0.05499000
v 0.00348000 -0.01029800 -0.05489800
v 0.00382600 -0.01029800 -0.05414900
v 0.00358400 -0.01029800 -0.05484300
v 0.00382600 -0.01029800 -0.05480700
v 0.00418900 -0.01029800 -0.05417500
v 0.00408000 -0.01029800 -0.05485100
v 0.00419000 -0.01029800 -0.05491100
v 0.00450900 -0.01029800 -0.05425400
v 0.00428200 -0.01029800 -0.05500300
v 0.00435700 -0.01029800 -0.05512600
v 0.00441300 -0.01029800 -0.05528300
v 0.00446000 -0.01029800 -0.05571800
v 0.00450600 -0.01029800 -0.05717000
v 0.00478100 -0.01029800 -0.05703900
v 0.00478400 -0.01029800 -0.05438500
v 0.00501400 -0.01029800 -0.05685600
v 0.00501600 -0.01029800 -0.05456800
v 0.00519900 -0.01029800 -0.05662800
v 0.00520000 -0.01029800 -0.05479700
v 0.00533100 -0.01029800 -0.05636200
v 0.00533200 -0.01029800 -0.05506400
v 0.00541100 -0.01029800 -0.05605700
v 0.00541100 -0.01029800 -0.05536900
v 0.00543700 -0.01029800 -0.05571300
v 0.00221500 -0.01029800 -0.05571300
v 0.00224100 -0.01029800 -0.05605700
v 0.00224200 -0.01029800 -0.05536700
v 0.00232100 -0.01029800 -0.05636200
v 0.00232100 -0.01029800 -0.05506100
v 0.00245300 -0.01029800 -0.05662800
v 0.00245500 -0.01029800 -0.05479400
v 0.00263800 -0.01029800 -0.05685600
v 0.00264100 -0.01029800 -0.05456600
v 0.00287100 -0.01029800 -0.05703900
v 0.00287500 -0.01029800 -0.05438300
v 0.00314700 -0.01029800 -0.05717000
v 0.00323700 -0.01029800 -0.05613600
v 0.00346500 -0.01029800 -0.05724800
v 0.00329200 -0.01029800 -0.05629500
v 0.00336800 -0.01029800 -0.05642000
v 0.00346000 -0.01029800 -0.05650900
v 0.00356800 -0.01029800 -0.05656900
v 0.00382600 -0.01029800 -0.05727400
v 0.00383400 -0.01029800 -0.05661700
v 0.00418700 -0.01029800 -0.05724800
v 0.00407900 -0.01029800 -0.05657300
v 0.00418700 -0.01029800 -0.05651500
v 0.00427700 -0.01029800 -0.05642800
v 0.00435700 -0.01029800 -0.05630400
v 0.00441400 -0.01029800 -0.05615700
v 0.00705800 -0.01029800 -0.05456600
v 0.00705800 -0.01029800 -0.05509700
v 0.00730500 -0.01029800 -0.05439200
v 0.00734500 -0.01029800 -0.05496400
v 0.00754100 -0.01029800 -0.05426400
v 0.00760600 -0.01029800 -0.05492200
v 0.00778600 -0.01029800 -0.05418600
v 0.00788800 -0.01029800 -0.05496600
v 0.00805500 -0.01029800 -0.05416000
v 0.00797600 -0.01029800 -0.05502400
v 0.00804100 -0.01029800 -0.05510800
v 0.00810400 -0.01029800 -0.05536900
v 0.00828000 -0.01029800 -0.05417700
v 0.00812200 -0.01029800 -0.05572300
v 0.00812200 -0.01029800 -0.05718200
v 0.00906700 -0.01029800 -0.05718200
v 0.00848000 -0.01029800 -0.05422900
v 0.00865300 -0.01029800 -0.05431600
v 0.00879900 -0.01029800 -0.05443700
v 0.00891600 -0.01029800 -0.05459300
v 0.00900000 -0.01029800 -0.05478400
v 0.00905100 -0.01029800 -0.05500900
v 0.00906700 -0.01029800 -0.05526800
v 0.00611300 -0.01029800 -0.05424100
v 0.00611300 -0.01029800 -0.05718200
v 0.00705800 -0.01029800 -0.05424100
v 0.00705800 -0.01029800 -0.05718200
v 0.00993500 -0.01029800 -0.05424100
v 0.00993500 -0.01029800 -0.05718200
v 0.01088000 -0.01029800 -0.05424100
v 0.01088000 -0.01029800 -0.05718200
v 0.00990800 -0.01029800 -0.05310700
v 0.00990800 -0.01029800 -0.05382200
v 0.01090600 -0.01029800 -0.05310700
v 0.01090600 -0.01029800 -0.05382200
v 0.01233100 -0.01029800 -0.05435700
v 0.01253000 -0.01029800 -0.05572300
v 0.01262500 -0.01029800 -0.05424600
v 0.01258100 -0.01029800 -0.05535500
v 0.01264400 -0.01029800 -0.05520300
v 0.01294200 -0.01029800 -0.05418100
v 0.01273300 -0.01029800 -0.05507200
v 0.01284500 -0.01029800 -0.05496800
v 0.01297900 -0.01029800 -0.05489300
v 0.01327200 -0.01029800 -0.05416000
v 0.01313500 -0.01029800 -0.05484800
v 0.01331200 -0.01029800 -0.05483300
v 0.01356100 -0.01029800 -0.05417600
v 0.01361000 -0.01029800 -0.05487100
v 0.01382600 -0.01029800 -0.05422500
v 0.01384600 -0.01029800 -0.05496600
v 0.01430100 -0.01029800 -0.05439500
v 0.01403600 -0.01029800 -0.05508900
v 0.01416800 -0.01029800 -0.05520000
v 0.01430100 -0.01029800 -0.05520000
v 0.01155300 -0.01029800 -0.05572300
v 0.01158500 -0.01029800 -0.05608900
v 0.01158800 -0.01029800 -0.05534000
v 0.01168200 -0.01029800 -0.05640400
v 0.01169100 -0.01029800 -0.05501400
v 0.01183600 -0.01029800 -0.05667000
v 0.01185500 -0.01029800 -0.05474000
v 0.01204300 -0.01029800 -0.05688600
v 0.01207500 -0.01029800 -0.05451800
v 0.01229900 -0.01029800 -0.05705300
v 0.01259700 -0.01029800 -0.05716900
v 0.01258200 -0.01029800 -0.05609700
v 0.01264700 -0.01029800 -0.05624500
v 0.01293200 -0.01029800 -0.05723800
v 0.01273800 -0.01029800 -0.05636800
v 0.01285300 -0.01029800 -0.05646400
v 0.01299000 -0.01029800 -0.05653300
v 0.01330100 -0.01029800 -0.05726100
v 0.01332800 -0.01029800 -0.05658800
v 0.01358100 -0.01029800 -0.05724600
v 0.01364900 -0.01029800 -0.05654700
v 0.01383600 -0.01029800 -0.05719900
v 0.01388500 -0.01029800 -0.05645200
v 0.01430100 -0.01029800 -0.05703300
v 0.01404200 -0.01029800 -0.05634200
v 0.01416800 -0.01029800 -0.05622900
v 0.01430100 -0.01029800 -0.05622900
v -0.00175700 -0.00916800 -0.07827800
v -0.00155600 -0.00882700 -0.07774300
v -0.00175700 -0.00874900 -0.07762000
v -0.00142600 -0.00874900 -0.07762000
v -0.00152200 -0.00882700 -0.07774300
v -0.00144200 -0.00882800 -0.07774400
v -0.00138100 -0.00883500 -0.07775500
v -0.00135800 -0.00875100 -0.07762200
v -0.00135900 -0.00884200 -0.07776600
v -0.00133900 -0.00885300 -0.07778300
v -0.00130100 -0.00875600 -0.07763000
v -0.00132600 -0.00886700 -0.07780500
v -0.00132100 -0.00888300 -0.07783100
v -0.00155600 -0.00895200 -0.07793900
v -0.00155600 -0.00903100 -0.07806300
v -0.00149800 -0.00895200 -0.07793900
v -0.00143100 -0.00903100 -0.07806300
v -0.00141400 -0.00894900 -0.07793400
v -0.00135200 -0.00902800 -0.07805800
v -0.00138400 -0.00894400 -0.07792600
v -0.00135800 -0.00893500 -0.07791300
v -0.00134100 -0.00892600 -0.07789700
v -0.00128800 -0.00901900 -0.07804300
v -0.00133000 -0.00891400 -0.07787900
v -0.00125200 -0.00876400 -0.07764400
v -0.00123400 -0.00900300 -0.07801900
v -0.00121100 -0.00877600 -0.07766300
v -0.00118400 -0.00898100 -0.07798500
v -0.00116900 -0.00879500 -0.07769300
v -0.00115400 -0.00896100 -0.07795300
v -0.00113800 -0.00881900 -0.07773000
v -0.00113100 -0.00893600 -0.07791400
v -0.00112000 -0.00884700 -0.07777400
v -0.00111800 -0.00890900 -0.07787100
v -0.00111300 -0.00888100 -0.07782700
v -0.00155600 -0.00916800 -0.07827800
v -0.00049000 -0.00874900 -0.07762000
v -0.00049000 -0.00901000 -0.07803000
v -0.00028700 -0.00874900 -0.07762000
v -0.00048500 -0.00916600 -0.07827500
v -0.00042500 -0.00915300 -0.07825500
v -0.00037600 -0.00913500 -0.07822600
v -0.00033800 -0.00911200 -0.07819000
v -0.00031000 -0.00908500 -0.07814700
v -0.00029300 -0.00905300 -0.07809700
v -0.00028700 -0.00901600 -0.07803900
v -0.00098200 -0.00874900 -0.07762000
v -0.00098200 -0.00901600 -0.07804000
v -0.00078000 -0.00874900 -0.07762000
v -0.00097700 -0.00905300 -0.07809700
v -0.00096000 -0.00908500 -0.07814700
v -0.00093300 -0.00911200 -0.07819000
v -0.00089400 -0.00913500 -0.07822600
v -0.00084500 -0.00915300 -0.07825500
v -0.00078600 -0.00916600 -0.07827500
v -0.00078000 -0.00901000 -0.07803000
v -0.00077100 -0.00904800 -0.07809000
v -0.00071500 -0.00917400 -0.07828700
v -0.00074600 -0.00907500 -0.07813200
v -0.00072600 -0.00908500 -0.07814700
v -0.00070100 -0.00909100 -0.07815700
v -0.00063500 -0.00917600 -0.07829100
v -0.00063500 -0.00909700 -0.07816600
v -0.00056900 -0.00909100 -0.07815800
v -0.00055500 -0.00917400 -0.07828700
v -0.00054400 -0.00908500 -0.07814800
v -0.00052500 -0.00907600 -0.07813400
v -0.00051000 -0.00906400 -0.07811500
v -0.00049900 -0.00904900 -0.07809200
v -0.00010000 -0.00874900 -0.07762000
v -0.00010000 -0.00916800 -0.07827800
v 0.00010100 -0.00874900 -0.07762000
v 0.00010100 -0.00908700 -0.07815000
v 0.00046300 -0.00916800 -0.07827800
v 0.00046300 -0.00908700 -0.07815000
v 0.00058400 -0.00874900 -0.07762000
v 0.00058400 -0.00916800 -0.07827800
v 0.00078500 -0.00874900 -0.07762000
v 0.00078500 -0.00908700 -0.07815000
v 0.00114700 -0.00916800 -0.07827800
v 0.00114700 -0.00908700 -0.07815000
v -0.12899800 -0.00692300 -0.07245600
v -0.12899100 -0.00693700 -0.07254700
v -0.12898800 -0.00690600 -0.07234400
v -0.12897100 -0.00695000 -0.07262600
v -0.12896100 -0.00689100 -0.07225200
v -0.12893800 -0.00696000 -0.07269600
v -0.12892800 -0.00688200 -0.07219400
v -0.12889100 -0.00697000 -0.07275500
v -0.12888600 -0.00687400 -0.07214300
v -0.12883400 -0.00697700 -0.07280300
v -0.12883600 -0.00686800 -0.07210100
v -0.12883000 -0.00692200 -0.07245100
v -0.12882600 -0.00691200 -0.07238700
v -0.12878100 -0.00686300 -0.07207100
v -0.12881400 -0.00690400 -0.07233100
v -0.12879500 -0.00689600 -0.07228400
v -0.12876800 -0.00689000 -0.07224500
v -0.12870000 -0.00685900 -0.07204700
v -0.12873500 -0.00688600 -0.07221500
v -0.12869700 -0.00688200 -0.07219400
v -0.12860700 -0.00685800 -0.07203900
v -0.12865400 -0.00688000 -0.07218100
v -0.12860600 -0.00688000 -0.07217700
v -0.12852300 -0.00685900 -0.07204600
v -0.12855800 -0.00688000 -0.07218100
v -0.12851500 -0.00688200 -0.07219400
v -0.12844700 -0.00686200 -0.07206700
v -0.12847700 -0.00688500 -0.07221500
v -0.12844400 -0.00689000 -0.07224400
v -0.12838000 -0.00686800 -0.07210100
v -0.12841800 -0.00689600 -0.07228300
v -0.12839900 -0.00690300 -0.07232900
v -0.12838700 -0.00691200 -0.07238500
v -0.12838400 -0.00692200 -0.07244900
v -0.12876700 -0.00698200 -0.07283700
v -0.12882600 -0.00693200 -0.07251500
v -0.12881400 -0.00694100 -0.07257000
v -0.12879400 -0.00694800 -0.07261700
v -0.12876600 -0.00695400 -0.07265600
v -0.12869100 -0.00698600 -0.07285700
v -0.12873300 -0.00695900 -0.07268700
v -0.12869500 -0.00696200 -0.07270900
v -0.12865200 -0.00696400 -0.07272200
v -0.12860500 -0.00698700 -0.07286400
v -0.12860600 -0.00696500 -0.07272600
v -0.12855900 -0.00696400 -0.07272200
v -0.12852100 -0.00698600 -0.07285700
v -0.12851700 -0.00696200 -0.07270900
v -0.12844500 -0.00698200 -0.07283600
v -0.12847900 -0.00695900 -0.07268700
v -0.12844600 -0.00695400 -0.07265700
v -0.12841900 -0.00694800 -0.07261800
v -0.12837900 -0.00697700 -0.07280200
v -0.12839900 -0.00694100 -0.07257000
v -0.12838700 -0.00693200 -0.07251400
v -0.12832200 -0.00687500 -0.07214900
v -0.12832100 -0.00697000 -0.07275500
v -0.12827500 -0.00688400 -0.07220900
v -0.12827500 -0.00696000 -0.07269500
v -0.12824200 -0.00689600 -0.07227900
v -0.12824200 -0.00694900 -0.07262500
v -0.12822200 -0.00690800 -0.07236100
v -0.12822200 -0.00693700 -0.07254400
v -0.12821500 -0.00692300 -0.07245300
v -0.12817200 -0.00698700 -0.07286400
v -0.12805800 -0.00698700 -0.07286400
v -0.12797200 -0.00685800 -0.07203900
v -0.12785600 -0.00685800 -0.07203900
v -0.12778000 -0.00686000 -0.07205300
v -0.12778000 -0.00698400 -0.07285000
v -0.12761700 -0.00686000 -0.07205300
v -0.12761700 -0.00698400 -0.07285000
v -0.12652800 -0.01029100 0.09746700
v -0.12549500 -0.01029100 0.09473300
v -0.12564500 -0.01029100 0.09746700
v -0.12502900 -0.01029100 0.09550000
v -0.12457900 -0.01029100 0.09473300
v -0.12442200 -0.01029100 0.09746700
v -0.12356400 -0.01029100 0.09746700
v -0.12325400 -0.01029100 0.09746700
v -0.12325400 -0.01029100 0.09473300
v -0.12240700 -0.01029100 0.09746700
v -0.12240700 -0.01029100 0.09473300
v -0.12180300 -0.01029100 0.09473300
v -0.12095600 -0.01029100 0.09688300
v -0.12180300 -0.01029100 0.09746700
v -0.11953900 -0.01029100 0.09746700
v -0.11953900 -0.01029100 0.09688300
v -0.12095600 -0.01029100 0.09644900
v -0.12095600 -0.01029100 0.09589100
v -0.11964100 -0.01029100 0.09644900
v -0.11964100 -0.01029100 0.09589100
v -0.11949800 -0.01029100 0.09473300
v -0.12095600 -0.01029100 0.09535200
v -0.11949800 -0.01029100 0.09535200
v -0.11727700 -0.01029100 0.09745100
v -0.11722400 -0.01029100 0.09594000
v -0.11702400 -0.01029100 0.09740000
v -0.11705600 -0.01029100 0.09598800
v -0.11692700 -0.01029100 0.09604800
v -0.11683700 -0.01029100 0.09730400
v -0.11677600 -0.01029100 0.09616600
v -0.11669000 -0.01029100 0.09715100
v -0.11666000 -0.01029100 0.09631600
v -0.11659500 -0.01029100 0.09694900
v -0.11658800 -0.01029100 0.09649600
v -0.11656300 -0.01029100 0.09670800
v -0.11903100 -0.01029100 0.09473300
v -0.11818200 -0.01029100 0.09691500
v -0.11903100 -0.01029100 0.09746700
v -0.11762300 -0.01029100 0.09746700
v -0.11781100 -0.01029100 0.09691500
v -0.11761700 -0.01029100 0.09689800
v -0.11749600 -0.01029100 0.09684400
v -0.11743300 -0.01029100 0.09675800
v -0.11741200 -0.01029100 0.09664100
v -0.11729600 -0.01029100 0.09473300
v -0.11634100 -0.01029100 0.09473300
v -0.11700400 -0.01029100 0.09583900
v -0.11686900 -0.01029100 0.09569500
v -0.11675100 -0.01029100 0.09552500
v -0.11818200 -0.01029100 0.09636000
v -0.11818200 -0.01029100 0.09584300
v -0.11782600 -0.01029100 0.09636000
v -0.11810800 -0.01029100 0.09584300
v -0.11799800 -0.01029100 0.09582700
v -0.11790100 -0.01029100 0.09578000
v -0.11782900 -0.01029100 0.09570300
v -0.11774800 -0.01029100 0.09556800
v -0.11760200 -0.01029100 0.09639600
v -0.11752600 -0.01029100 0.09642600
v -0.11746500 -0.01029100 0.09648300
v -0.11742500 -0.01029100 0.09655700
v -0.11818200 -0.01029100 0.09473300
v -0.11516500 -0.01029100 0.09577500
v -0.11486700 -0.01029100 0.09675800
v -0.11531700 -0.01029100 0.09746700
v -0.11439600 -0.01029100 0.09746700
v -0.11456500 -0.01029100 0.09577500
v -0.11634500 -0.01029100 0.09473300
v -0.11548200 -0.01029100 0.09473300
v -0.11534900 -0.01029100 0.09518400
v -0.11439000 -0.01029100 0.09518400
v -0.11336800 -0.01029100 0.09473300
v -0.11425300 -0.01029100 0.09473300
vn -0.00000000 -0.00000000 0.00000000
vn 0.00000000 0.00000000 -0.00000000
vn 0.00000000 0.00000000 0.00000000
vn 0.00000000 -0.00000000 0.00000000
vn -0.00000010 0.99883291 -0.04829929
vn 0.00000000 -0.99883254 0.04830683
vn 0.00000000 0.00000000 0.00000000
vn 0.00000000 0.00000000 0.00000000
vn 0.00000000 -0.00000000 -0.00000000
vn 0.00000000 -0.00000000 -0.00000000
vn 0.00000000 -0.00000000 -0.00000000
vn 0.00000000 -0.00000000 -0.00000000
vn 0.00000000 -0.00000000 0.00000000
vn 0.00000000 0.00000000 0.00000000
vn 0.00000000 0.00000000 0.00000000
vn 0.00000000 0.00000000 0.00000000
vn 0.00000000 -0.00000000 -0.00000000
vn 0.00000000 0.00000000 0.00000000
vn 0.00000000 0.00000000 -0.00000000
vn 0.00000000 -0.00000000 0.00000000
vn 0.00000000 -0.00000000 0.00000000
vn 0.00000000 0.00000000 -0.00000000
vn -0.00763728 -0.98807845 0.15376163
vn 0.00000000 0.00000000 -0.00000000
vn -0.00000000 -0.00000000 0.00000000
vn 0.00000000 0.00000000 0.00000000
vn -0.00000000 0.00000000 -0.00000000
vn -0.00000000 -0.00000000 0.00000000
vn 0.00000000 0.00000000 0.00000000
vn -0.00000000 -0.00000000 0.00000000
vn -0.00000000 0.00000000 -0.00000000
vn 0.00000000 -0.00000000 -0.00000000
vn 0.00000000 -0.00000000 -0.00000000
vn -0.00000000 0.00000000 -0.00000000
vn -0.00000000 -0.00000000 0.00000000
vn 0.00000000 0.00000000 0.00000000
vn 0.00000000 0.00000000 -0.00000000
vn -0.00000000 0.00000000 -0.00000000
vn 0.00000000 0.00000000 -0.00000000
vn 0.00000000 -0.00000000 0.00000000
vn 0.00000068 0.99865720 -0.05180534
vn 0.00000000 -0.00000000 0.00000000
vn 0.00000000 0.00000000 -0.00000000
vn 0.00000000 -0.00000000 0.00000000
vn 0.00000000 -0.00000000 0.00000000
vn 0.00000000 0.00000000 -0.00000000
vn 0.00000000 -0.00000000 -0.00000000
vn 0.00000000 -0.00000000 0.00000000
vn 0.00000000 -0.00000000 0.00000000
vn 0.00000000 -0.00000000 0.00000000
vn 0.00000000 -0.00000000 -0.00000000
vn 0.00000000 0.00000000 0.00000000
vn -0.00000164 0.99874120 -0.05015980
vn 0.00000000 -0.99871757 0.05062827
vn -0.00000000 0.00000000 0.00000000
vn 0.00000000 0.00000000 -0.00000000
vn 0.00000000 0.00000000 0.00000000
vn 0.00000000 0.00000000 0.00000000
vn 0.00000000 -0.00000000 0.00000000
vn 0.00000000 0.00000000 0.00000000
vn 0.00000000 -0.00000000 0.00000000
vn 0.00000000 -0.00000000 0.00000000
vn 0.00000000 0.00000000 -0.00000000
vn 0.00000000 0.00000000 -0.00000000
vn 0.00000000 -0.00000000 0.00000000
vn 0.00000000 0.00000000 -0.00000000
vn 0.00000000 0.00000000 -0.00000000
vn -0.00000000 0.00000000 -0.00000000
vn -0.00000000 -0.00000000 0.00000000
vn 0.00000000 0.00000000 -0.00000000
vn 0.00000000 0.00000000 -0.00000000
vn -0.00000000 -0.00000000 0.00000000
vn 0.01113045 0.98679225 -0.16160809
vn 0.00000000 -0.00000000 -0.00000000
vn 0.00000000 0.00000000 0.00000000
vn -0.00000000 -0.00000000 -0.00000000
vn -0.00000000 -0.00000000 -0.00000000
vn 0.00000000 -0.00000000 -0.00000000
vn 0.00000000 0.00000000 -0.00000000
vn 0.00000000 0.00000000 -0.00000000
vn -0.00000000 -0.00000000 0.00000000
vn -0.00000000 -0.00000000 -0.00000000
vn -0.00000000 -0.00000000 0.00000000
vn 0.00000000 0.00000000 -0.00000000
vn -0.00000000 0.00000000 -0.00000000
vn -0.00000000 -0.00000000 0.00000000
vn 0.00000000 0.00000000 0.00000000
vn -0.00000000 -0.00000000 -0.00000000
vn 0.00000000 -0.00000000 -0.00000000
vn 0.00000000 -0.00000000 0.00000000
vn -0.00000000 -0.00000000 0.00000000
vn 0.00000000 0.00000000 -0.00000000
vn 0.00000000 0.00000000 0.00000000
vn 0.00000000 -0.00000000 0.00000000
vn -0.00000000 -0.00000000 0.00000000
vn -0.00000000 -0.00000000 0.00000000
vn -0.00000000 0.00000000 0.00000000
vn 0.00000000 -0.00000000 -0.00000000
vn 0.00000000 -0.00000000 -0.00000000
vn -0.00000000 0.00000000 -0.00000000
vn -0.00000000 0.00000000 0.00000000
vn 0.00000000 0.00000000 0.00000000
vn 0.00000000 -0.00000000 0.00000000
vn -0.00000000 0.00000000 0.00000000
vn -0.00000000 0.00000000 0.00000000
vn -0.00000000 0.00000000 -0.00000000
vn -0.00000000 -0.00000000 0.00000000
vn 0.00000000 -0.00000000 0.00000000
vn 0.00000000 -0.00000000 0.00000000
vn 0.00000000 0.00000000 -0.00000000
vn -0.00000000 -0.00000000 -0.00000000
vn -0.00000000 -0.00000000 0.00000000
vn 0.00000000 -0.00000000 0.00000000
vn 0.00000000 0.00000000 -0.00000000
vn 0.00000000 -0.00000000 0.00000000
vn 0.00000000 0.00000000 0.00000000
vn 0.00000000 0.00000000 0.00000000
vn 0.00000000 -0.00000000 0.00000000
vn 0.00000000 0.00000000 0.00000000
vn 0.00000000 0.00000000 0.00000000
vn 0.00000000 -0.00000000 0.00000000
vn 0.00000000 -0.00000000 0.00000000
vn 0.00000000 -0.00000000 0.00000000
vn 0.00000000 0.00000000 0.00000000
vn 0.00000000 -0.00000000 0.00000000
vn 0.00000000 0.00000000 0.00000000
vn 0.00000000 -0.00000000 0.00000000
vn 0.00000000 0.00000000 0.00000000
vn 0.00000000 0.00000000 0.00000000
vn 0.00000000 -0.00000000 0.00000000
vn 0.00000000 -0.00000000 0.00000000
vn 0.00000000 -0.00000000 0.00000000
vn 0.00000000 -0.00000000 0.00000000
vn 0.00000000 -0.00000000 0.00000000
vn 0.00000000 -0.00000000 0.00000000
vn 0.00000000 0.00000000 0.00000000
vn 0.00000000 0.00000000 0.00000000
vn 0.00000000 0.00000000 0.00000000
vn 0.00000000 -0.00000000 0.00000000
vn 0.00000000 -0.00000000 0.00000000
vn 0.00000000 0.00000000 0.00000000
vn 0.00000000 0.00000000 0.00000000
vn 0.00000000 0.00000000 0.00000000
vn 0.00000000 0.00000000 0.00000000
vn 0.00000000 -0.00000000 0.00000000
vn 0.00000000 -0.00000000 0.00000000
vn 0.00000000 0.00000000 0.00000000
vn 0.00000000 0.00000000 0.00000000
vn 0.00000000 0.00000000 0.00000000
vn 0.00000000 0.00000000 0.00000000
vn 0.00000000 0.00000000 0.00000000
vn 0.00000000 -0.00000000 0.00000000
vn 0.00000000 -0.00000000 0.00000000
vn 0.00000000 0.00000000 0.00000000
vn 0.00000000 0.00000000 0.00000000
vn 0.00000000 0.00000000 0.00000000
vn 0.00000000 -0.00000000 0.00000000
vn 0.00000000 -0.00000000 0.00000000
vn 0.00000000 0.00000000 0.00000000
vn 0.00000000 0.00000000 0.00000000
vn 0.00000000 0.00000000 0.00000000
vn 0.00000000 -0.00000000 0.00000000
vn 0.00000000 -0.00000000 0.00000000
vn 0.00000000 1.00000000 0.00000000
vn 0.00000000 -1.00000000 0.00000000
vn 0.00000000 -0.00000000 0.00000000
vn 0.00000000 -0.00000000 0.00000000
vn 0.00000000 0.00000000 0.00000000
vn 0.00000000 -0.00000000 0.00000000
vn 0.00000000 0.00000000 0.00000000
vn 0.00000000 0.00000000 0.00000000
vn 0.00000000 -0.00000000 0.00000000
vn 0.00000000 0.00000000 0.00000000
vn 0.00000000 -0.00000000 0.00000000
vn 0.00000000 -0.00000000 0.00000000
vn 0.00000000 1.00000000 0.00000000
vn 0.00000000 -1.00000000 0.00000000
vn 0.00000000 -0.00000000 0.00000000
vn 0.00000000 -0.00000000 0.00000000
vn 0.00000000 -0.00000000 0.00000000
vn 0.00000000 0.00000000 0.00000000
vn 0.00000000 0.00000000 0.00000000
vn 0.00000000 0.00000000 0.00000000
vn 0.00000000 0.00000000 0.00000000
vn 0.00000000 -0.00000000 0.00000000
vn 0.00000000 0.00000000 0.00000000
vn 0.00000000 0.00000000 0.00000000
vn 0.00000000 0.00000000 0.00000000
vn 0.00000000 -0.00000000 0.00000000
vn 0.00000000 0.00000000 0.00000000
vn 0.00000000 -0.00000000 0.00000000
vn 0.00000000 -0.00000000 0.00000000
vn 0.00000000 -0.00000000 0.00000000
vn 0.00000000 -0.00000000 0.00000000
vn 0.00000000 -0.00000000 0.00000000
vn 0.00000000 0.00000000 0.00000000
vn 0.00000000 -0.00000000 0.00000000
vn 0.00000000 0.00000000 0.00000000
vn 0.00000000 0.00000000 0.00000000
vn 0.00000000 0.00000000 0.00000000
vn 0.00000000 -0.00000000 0.00000000
vn 0.00000000 -0.00000000 0.00000000
vn 0.00000000 0.00000000 0.00000000
vn 0.00000000 0.00000000 0.00000000
vn 0.00000000 0.00000000 0.00000000
vn 0.00000000 0.00000000 0.00000000
vn 0.00000000 -0.00000000 0.00000000
vn 0.00000000 -0.00000000 0.00000000
vn 0.00000000 0.00000000 0.00000000
vn 0.00000000 0.00000000 0.00000000
vn 0.00000000 -0.00000000 0.00000000
vn 0.00000000 0.00000000 0.00000000
vn 0.00000000 0.00000000 0.00000000
vn 0.00000000 -0.00000000 0.00000000
vn 0.00000000 0.00000000 0.00000000
vn 0.00000000 -0.00000000 0.00000000
vn 0.00000000 -0.00000000 0.00000000
vn 0.00000000 0.00000000 0.00000000
vn 0.00000000 0.00000000 0.00000000
vn 0.00000000 -0.00000000 0.00000000
vn 0.00000000 0.00000000 0.00000000
vn 0.00000000 -0.00000000 0.00000000
vn 0.00000000 -0.00000000 0.00000000
vn 0.00000000 -0.00000000 0.00000000
vn 0.00000000 -0.00000000 0.00000000
vn 0.00000000 -0.00000000 0.00000000
vn 0.00000000 0.00000000 0.00000000
vn 0.00000000 0.00000000 0.00000000
vn 0.00000000 0.00000000 0.00000000
vn 0.00000000 0.00000000 0.00000000
vn 0.00000000 0.00000000 0.00000000
vn 0.00000000 0.00000000 0.00000000
vn 0.00000000 0.00000000 0.00000000
vn 0.00000000 0.00000000 0.00000000
vn 0.00000000 0.00000000 0.00000000
vn 0.00000000 0.00000000 0.00000000
vn 0.00000000 0.00000000 0.00000000
vn 0.00000000 -0.00000000 0.00000000
vn 0.00000000 0.00000000 0.00000000
vn 0.00000000 0.00000000 0.00000000
vn 0.00000000 0.00000000 0.00000000
vn 0.00000000 -0.00000000 0.00000000
vn 0.00000000 0.00000000 0.00000000
vn 0.00000000 0.00000000 0.00000000
vn 0.00000000 -0.00000000 0.00000000
vn 0.00000000 -0.00000000 0.00000000
vn 0.00000000 0.00000000 0.00000000
vn 0.00000000 -0.00000000 0.00000000
vn 0.00000000 0.00000000 0.00000000
vn 0.00000000 0.00000000 0.00000000
vn 0.00000000 -0.00000000 0.00000000
vn 0.00000000 0.00000000 0.00000000
vn 0.00000000 -0.00000000 0.00000000
vn 0.00000000 -0.00000000 0.00000000
vn 0.00000000 0.00000000 0.00000000
vn 0.00000000 -0.00000000 0.00000000
vn 0.00000000 -0.00000000 0.00000000
vn 0.00000000 1.00000000 0.00000000
vn 0.00000000 -1.00000000 0.00000000
vn 0.00000000 0.00000000 0.00000000
vn 0.00000000 0.00000000 0.00000000
vn 0.00000000 0.00000000 0.00000000
vn 0.00000000 -0.00000000 0.00000000
vn 0.00000000 -0.00000000 0.00000000
vn 0.00000000 -0.00000000 0.00000000
vn 0.00000000 -0.00000000 0.00000000
vn 0.00000000 -0.00000000 0.00000000
vn 0.00000000 0.00000000 0.00000000
vn 0.00000000 0.00000000 0.00000000
vn 0.00000000 0.00000000 0.00000000
vn 0.00000000 -0.00000000 0.00000000
vn 0.00000000 -0.00000000 0.00000000
vn 0.00000000 0.00000000 0.00000000
vn 0.00000000 0.00000000 0.00000000
vn 0.00000000 -0.00000000 0.00000000
vn 0.00000000 -0.00000000 0.00000000
vn 0.00000000 0.00000000 0.00000000
vn 0.00000000 0.00000000 0.00000000
vn 0.00000000 -0.00000000 0.00000000
vn 0.00000000 0.00000000 0.00000000
vn 0.00000000 0.00000000 0.00000000
vn 0.00000000 0.00000000 0.00000000
vn 0.00000000 -0.00000000 0.00000000
vn 0.00000000 -0.00000000 0.00000000
vn 0.00000000 -0.00000000 0.00000000
vn 0.00000000 -0.00000000 0.00000000
vn 0.00000000 0.00000000 0.00000000
vn 0.00000000 -0.00000000 0.00000000
vn 0.00000000 0.00000000 0.00000000
vn 0.00000000 -0.00000000 0.00000000
vn 0.00000000 -0.00000000 0.00000000
vn 0.00000000 -0.00000000 0.00000000
vn 0.00000000 0.00000000 0.00000000
vn 0.00000000 0.00000000 0.00000000
vn 0.00000000 0.00000000 0.00000000
vn 0.00000000 -0.00000000 0.00000000
vn 0.00000000 -0.00000000 0.00000000
vn 0.00000000 0.00000000 0.00000000
vn 0.00000000 -0.00000000 0.00000000
vn 0.00000000 0.00000000 0.00000000
vn 0.00000000 -0.00000000 0.00000000
vn 0.00000000 -0.00000000 0.00000000
vn 0.00000000 0.00000000 0.00000000
vn 0.00000000 -0.00000000 0.00000000
vn 0.00000000 -0.00000000 0.00000000
vn 0.00000000 0.00000000 0.00000000
vn 0.00000000 0.00000000 0.00000000
vn 0.00000000 0.00000000 0.00000000
vn 0.00000000 -0.00000000 0.00000000
vn 0.00000000 0.00000000 0.00000000
vn 0.00000000 -0.00000000 0.00000000
vn 0.00000000 -0.00000000 0.00000000
vn 0.00000000 0.00000000 0.00000000
vn 0.00000000 0.00000000 0.00000000
vn 0.00000000 -0.00000000 0.00000000
vn 0.00000000 -0.00000000 0.00000000
vn 0.00000000 -0.00000000 0.00000000
vn 0.00000000 0.00000000 0.00000000
vn 0.00000000 -0.00000000 0.00000000
vn 0.00000000 0.00000000 0.00000000
vn 0.00000000 -0.00000000 0.00000000
vn 0.00000000 0.00000000 0.00000000
vn 0.00000000 -0.00000000 0.00000000
vn 0.00000000 -0.00000000 0.00000000
vn 0.00000000 0.00000000 0.00000000
vn 0.00000000 0.00000000 0.00000000
vn 0.00000000 0.00000000 0.00000000
vn 0.00000000 -0.00000000 0.00000000
vn 0.00000000 0.00000000 0.00000000
vn 0.00000000 0.00000000 0.00000000
vn 0.00000000 -0.00000000 0.00000000
vn 0.00000000 0.00000000 0.00000000
vn 0.00000000 -0.00000000 0.00000000
vn 0.00000000 0.00000000 0.00000000
vn 0.00000000 0.00000000 0.00000000
vn 0.00000000 0.00000000 0.00000000
vn 0.00000000 -0.00000000 0.00000000
vn 0.00000000 0.00000000 0.00000000
vn 0.00000000 0.00000000 0.00000000
vn 0.00000000 -0.00000000 0.00000000
vn 0.00000000 -0.00000000 0.00000000
vn 0.00000000 0.00000000 0.00000000
vn 0.00000000 0.00000000 0.00000000
vn 0.00000000 0.00000000 0.00000000
vn 0.00000000 -0.00000000 0.00000000
vn 0.00000000 0.00000000 0.00000000
vn 0.00000000 -0.00000000 0.00000000
vn 0.00000000 -0.00000000 0.00000000
vn 0.00000000 -0.00000000 0.00000000
vn 0.00000000 0.00000000 0.00000000
vn 0.00000000 0.00000000 0.00000000
vn 0.00000000 0.00000000 0.00000000
vn 0.00000000 -0.00000000 0.00000000
vn 0.00000000 0.00000000 0.00000000
vn 0.00000000 -0.00000000 0.00000000
vn 0.00000000 -0.00000000 0.00000000
vn 0.00000000 -0.00000000 0.00000000
vn 0.00000000 -0.00000000 0.00000000
vn 0.00000000 0.00000000 0.00000000
vn 0.00000000 0.00000000 0.00000000
vn 0.00000000 -0.00000000 0.00000000
vn 0.00000000 -0.00000000 0.00000000
vn 0.00000000 0.00000000 0.00000000
vn 0.00000000 -0.00000000 0.00000000
vn 0.00000000 -0.00000000 0.00000000
vn 0.00000000 0.00000000 0.00000000
vn 0.00000000 0.00000000 0.00000000
vn 0.00000000 0.00000000 0.00000000
vn 0.00000000 -0.00000000 0.00000000
vn 0.00000000 -0.00000000 0.00000000
vn 0.00000000 0.00000000 0.00000000
vn 0.00000000 0.00000000 0.00000000
vn 0.00000000 -0.00000000 0.00000000
vn 0.00000000 0.00000000 0.00000000
vn 0.00000000 -0.00000000 0.00000000
vn 0.00000000 0.00000000 0.00000000
vn 0.00000000 0.00000000 0.00000000
vn 0.00000000 0.00000000 0.00000000
vn 0.00000000 -0.00000000 0.00000000
vn 0.00000000 -0.00000000 0.00000000
vn 0.00000000 -0.00000000 0.00000000
vn 0.00000000 0.00000000 0.00000000
vn 0.00000000 -0.00000000 0.00000000
vn 0.00000000 0.00000000 0.00000000
vn 0.00000000 0.00000000 0.00000000
vn 0.00000000 -0.00000000 0.00000000
vn 0.00000000 -0.00000000 0.00000000
vn 0.00000000 0.00000000 0.00000000
vn 0.00000000 0.00000000 0.00000000
vn 0.00000000 0.00000000 0.00000000
vn 0.00000000 -0.00000000 0.00000000
vn 0.00000000 0.00000000 0.00000000
vn 0.00000000 -0.00000000 0.00000000
vn 0.00000000 0.00000000 0.00000000
vn 0.00000000 0.00000000 0.00000000
vn 0.00000000 0.00000000 0.00000000
vn 0.00000000 -0.00000000 0.00000000
vn 0.00000000 -0.00000000 0.00000000
vn 0.00000000 -0.00000000 0.00000000
vn 0.00000000 0.00000000 0.00000000
vn 0.00000000 0.00000000 0.00000000
vn 0.00000000 0.00000000 0.00000000
vn 0.00000000 0.00000000 0.00000000
vn 0.00000000 0.00000000 0.00000000
vn 0.00000000 -0.00000000 0.00000000
vn 0.00000000 -0.00000000 0.00000000
vn 0.00000000 0.00000000 0.00000000
vn 0.00000000 -0.00000000 0.00000000
vn 0.00000000 0.00000000 0.00000000
vn 0.00000000 -0.00000000 0.00000000
vn 0.00000000 0.00000000 0.00000000
vn 0.00000000 -0.00000000 0.00000000
vn 0.00000000 0.00000000 0.00000000
vn 0.00000000 -0.00000000 0.00000000
vn 0.00000000 -0.00000000 0.00000000
vn 0.00000000 0.00000000 0.00000000
vn 0.00000000 0.00000000 0.00000000
vn 0.00000000 0.00000000 0.00000000
vn 0.00000000 0.00000000 0.00000000
vn 0.00000000 0.00000000 0.00000000
vn 0.00000000 -0.00000000 0.00000000
vn 0.00000000 -0.00000000 0.00000000
vn 0.00000000 0.00000000 0.00000000
vn 0.00000000 -0.00000000 0.00000000
vn 0.00000000 -0.00000000 0.00000000
vn 0.00000000 -0.00000000 0.00000000
vn 0.00000000 0.00000000 0.00000000
vn 0.00000000 0.00000000 0.00000000
vn 0.00000000 0.00000000 0.00000000
vn 0.00000000 0.00000000 0.00000000
vn 0.00000000 0.00000000 0.00000000
vn 0.00000000 0.00000000 0.00000000
vn 0.00000000 0.00000000 0.00000000
vn 0.00000000 0.00000000 0.00000000
vn 0.00000000 -0.00000000 0.00000000
vn 0.00000000 0.00000000 0.00000000
vn 0.00000000 0.00000000 0.00000000
vn 0.00000000 -0.00000000 0.00000000
vn 0.00000000 -0.00000000 0.00000000
vn 0.00000000 0.00000000 0.00000000
vn 0.00000000 0.00000000 0.00000000
vn 0.00000000 -0.00000000 0.00000000
vn 0.00000000 -0.00000000 0.00000000
vn 0.00000000 0.00000000 0.00000000
vn 0.00000000 0.00000000 0.00000000
vn 0.00000000 -0.00000000 0.00000000
vn 0.00000000 0.00000000 0.00000000
vn 0.00000000 -0.00000000 0.00000000
vn 0.00000000 0.00000000 0.00000000
vn 0.00000000 0.00000000 0.00000000
vn 0.00000000 -0.00000000 0.00000000
vn 0.00000000 -0.00000000 0.00000000
vn 0.00000000 0.00000000 0.00000000
vn 0.00000000 0.00000000 0.00000000
vn 0.00000000 0.00000000 0.00000000
vn 0.00000000 -0.00000000 0.00000000
vn 0.00000000 0.00000000 0.00000000
vn 0.00000000 0.00000000 0.00000000
vn 0.00000000 -0.00000000 0.00000000
vn 0.00000000 -0.00000000 0.00000000
vn 0.00000000 0.00000000 0.00000000
vn 0.00000000 0.00000000 0.00000000
vn 0.00000000 0.00000000 0.00000000
vn 0.00000000 0.00000000 0.00000000
vn 0.00000000 -0.00000000 0.00000000
vn 0.00000000 -0.00000000 0.00000000
vn 0.00000000 -0.00000000 0.00000000
vn 0.00000000 0.00000000 0.00000000
vn 0.00000000 0.00000000 0.00000000
vn 0.00000000 -0.00000000 0.00000000
vn 0.00000000 -0.00000000 0.00000000
vn 0.00000000 -0.00000000 0.00000000
vn 0.00000000 0.00000000 0.00000000
vn 0.00000000 0.00000000 0.00000000
vn 0.00000000 0.00000000 0.00000000
vn 0.00000000 -0.00000000 0.00000000
vn 0.00000000 0.00000000 0.00000000
vn 0.00000000 0.00000000 0.00000000
vn 0.00000000 -0.00000000 0.00000000
vn 0.00000000 -0.00000000 0.00000000
vn 0.00000000 0.00000000 0.00000000
vn 0.00000000 -0.00000000 0.00000000
vn 0.00000000 0.00000000 0.00000000
vn 0.00000000 0.00000000 0.00000000
vn 0.00000000 0.00000000 0.00000000
vn 0.00000000 -0.00000000 0.00000000
vn 0.00000000 -0.00000000 -0.00000000
vn -0.00000000 0.00000000 -0.00000000
vn 0.00000000 -0.00000000 0.00000000
vn -0.00000000 -0.00000000 0.00000000
vn 0.00000000 0.00000000 -0.00000000
vn 0.00000000 -0.00000000 0.00000000
vn -0.00000000 -0.00000000 0.00000000
vn 0.00000000 0.00000000 -0.00000000
vn -0.00000000 0.00000000 -0.00000000
vn 0.00000000 0.00000000 0.00000000
vn 0.00000000 -0.00000000 0.00000000
vn -0.00000000 0.00000000 -0.00000000
vn 0.99999541 -0.00271001 0.00135501
vn -0.99999999 0.00014479 -0.00003620
vn 0.00000000 0.00000000 -0.00000000
vn 0.00000000 -0.00000000 0.00000000
vn 0.00000000 0.00000000 -0.00000000
vn -0.00000000 -0.00000000 0.00000000
vn 0.00000000 -0.00000000 0.00000000
vn -0.00000000 0.00000000 -0.00000000
vn 0.00000000 0.00000000 -0.00000000
vn -0.00000000 0.00000000 -0.00000000
vn -0.00000000 0.00000000 -0.00000000
vn 0.00000000 0.00000000 0.00000000
vn 0.00000000 -0.00000000 0.00000000
vn 0.00000000 -0.00000000 0.00000000
vn 0.00000000 0.00000000 -0.00000000
vn -0.00000000 0.00000000 -0.00000000
vn -0.00000000 -0.00000000 0.00000000
vn 0.00000000 0.00000000 -0.00000000
vn -0.00000000 0.00000000 0.00000000
vn -0.00000000 0.00000000 -0.00000000
vn 0.00000000 0.00000000 -0.00000000
vn 0.00000000 0.00000000 -0.00000000
vn 1.00000000 0.00000000 0.00000000
vn 0.00000000 -0.00000000 0.00000000
vn -0.00000000 -0.00000000 0.00000000
vn -0.00000000 0.00000000 -0.00000000
vn 0.00000000 0.00000000 -0.00000000
vn -0.00000000 -0.00000000 0.00000000
vn 0.00000000 0.00000000 -0.00000000
vn 0.00000000 -0.00000000 0.00000000
vn -0.00000000 0.00000000 -0.00000000
vn 0.00000000 -0.00000000 0.00000000
vn 0.00000000 -0.00000000 0.00000000
vn 0.00000000 -0.00000000 0.00000000
vn -0.00000000 -0.00000000 0.00000000
vn 0.00000000 0.00000000 -0.00000000
vn 0.00000000 -0.00000000 0.00000000
vn -0.00000000 0.00000000 -0.00000000
vn 0.00000000 -0.00000000 0.00000000
vn 0.00000000 -0.00000000 0.00000000
vn 0.00000000 0.00000000 -0.00000000
vn 0.00000000 0.00000000 -0.00000000
vn 0.00000000 -0.00000000 0.00000000
vn -0.00000000 0.00000000 -0.00000000
vn -0.00000000 -0.00000000 0.00000000
vn 0.00000000 0.00000000 -0.00000000
vn 0.00000000 0.00000000 -0.00000000
vn -0.00000000 0.00000000 -0.00000000
vn -0.00000000 0.00000000 -0.00000000
vn -0.00000000 -0.00000000 0.00000000
vn 0.00000000 -0.00000000 0.00000000
vn 0.00000000 0.00000000 -0.00000000
vn -0.00000000 -0.00000000 0.00000000
vn 0.00000000 -0.00000000 0.00000000
vn -0.00000000 -0.00000000 0.00000000
vn -0.00000000 0.00000000 -0.00000000
vn 0.00000000 -0.00000000 0.00000000
vn 0.00000000 0.00000000 -0.00000000
vn 0.00000000 0.00000000 -0.00000000
vn -0.00000000 -0.00000000 0.00000000
vn 0.00000000 0.00000000 0.00000000
vn 0.00000000 0.00000000 -0.00000000
vn 0.00000000 -0.00000000 0.00000000
vn 0.00000000 0.00000000 -0.00000000
vn 0.00000000 0.00000000 -0.00000000
vn -0.00000000 -0.00000000 0.00000000
vn 0.00000000 0.00000000 -0.00000000
vn 0.00000000 -0.00000000 0.00000000
vn -0.00000000 -0.00000000 0.00000000
vn -0.00000000 -0.00000000 -0.00000000
vn 0.00000000 0.00000000 -0.00000000
vn 0.00000000 -0.00000000 0.00000000
vn -0.00000000 0.00000000 -0.00000000
vn -0.00000000 -0.00000000 0.00000000
vn 0.00000000 0.00000000 -0.00000000
vn 0.00000000 0.00000000 -0.00000000
vn -0.00000000 0.00000000 -0.00000000
vn 0.00000000 -0.00000000 0.00000000
vn 0.00000000 0.00000000 -0.00000000
vn -0.00000000 -0.00000000 0.00000000
vn -0.00000000 -0.00000000 0.00000000
vn -0.00000000 0.00000000 -0.00000000
vn 0.00000000 0.00000000 -0.00000000
vn -0.00000000 0.00000000 -0.00000000
vn -0.00000000 -0.00000000 0.00000000
vn -0.00000000 0.00000000 -0.00000000
vn 0.00000000 0.00000000 -0.00000000
vn -0.00000000 -0.00000000 0.00000000
vn 0.00000000 0.00000000 -0.00000000
vn 0.00000000 0.00000000 -0.00000000
vn -0.00000000 -0.00000000 0.00000000
vn 0.00000000 -0.00000000 0.00000000
vn 0.00000000 -0.00000000 0.00000000
vn -0.00000000 0.00000000 -0.00000000
vn 0.00000000 0.00000000 0.00000000
vn 0.00000000 -0.00000000 0.00000000
vn 0.00000000 -0.00000000 0.00000000
vn 0.00000000 0.00000000 -0.00000000
vn -0.00000000 0.00000000 -0.00000000
vn 0.00000000 0.00000000 -0.00000000
vn -0.00000000 -0.00000000 0.00000000
vn 0.00000000 0.00000000 -0.00000000
vn -0.00000000 -0.00000000 0.00000000
vn -0.00000000 0.00000000 -0.00000000
vn 0.00000000 0.00000000 -0.00000000
vn -0.00000000 0.00000000 -0.00000000
vn 0.00000000 -0.00000000 0.00000000
vn 0.00000000 -0.00000000 0.00000000
vn 0.00000000 0.00000000 0.00000000
vn -0.00000000 0.00000000 -0.00000000
vn -0.00000000 0.00000000 0.00000000
vn 0.00000000 0.00000000 -0.00000000
vn 0.00000000 0.00000000 0.00000000
vn 0.00000000 0.00000000 0.00000000
vn -0.00000000 0.00000000 0.00000000
vn 0.00000000 0.00000000 0.00000000
vn 0.00000000 0.00000000 0.00000000
vn 0.00000000 0.00000000 -0.00000000
vn -0.00000000 0.00000000 -0.00000000
vn 0.00000000 -0.00000000 0.00000000
vn -0.00000000 -0.00000000 0.00000000
vn 0.00000000 0.00000000 -0.00000000
vn -0.00000000 0.00000000 -0.00000000
vn -0.00000000 0.00000000 -0.00000000
vn 0.00000000 0.00000000 0.00000000
vn 0.00000000 0.00000000 0.00000000
vn 0.00000000 0.00000000 -0.00000000
vn -0.00000000 -0.00000000 0.00000000
vn 0.00000000 0.00000000 -0.00000000
vn -0.00000000 0.00000000 -0.00000000
vn 0.00000000 0.00000000 -0.00000000
vn -0.00000000 -0.00000000 0.00000000
vn 0.00000000 0.00000000 -0.00000000
vn 0.00000000 -0.00000000 0.00000000
vn 0.00000000 -0.00000000 0.00000000
vn 0.00000000 0.00000000 -0.00000000
vn 0.00000000 0.00000000 -0.00000000
vn 0.00000000 -0.00000000 0.00000000
vn 0.00000000 -0.00000000 0.00000000
vn 0.00000000 0.00000000 -0.00000000
vn 0.00000000 -0.00000000 0.00000000
vn 0.00000000 0.00000000 0.00000000
vn 0.00000000 0.00000000 0.00000000
vn 0.00000000 0.00000000 0.00000000
vn 0.00000000 0.00000000 0.00000000
vn 0.00000000 0.00000000 0.00000000
vn 0.00000000 0.00000000 0.00000000
vn 0.00000000 -0.00000000 0.00000000
vn 0.00000000 0.00000000 0.00000000
vn 0.00000000 0.00000000 0.00000000
vn 0.00000000 -0.00000000 0.00000000
vn 0.00000000 0.00000000 0.00000000
vn 0.00000000 0.00000000 0.00000000
vn 0.00000000 -0.00000000 0.00000000
vn 0.00000000 0.00000000 0.00000000
vn 0.00000000 0.00000000 0.00000000
vn 0.00000000 -0.00000000 0.00000000
vn 0.00000000 0.00000000 0.00000000
vn 0.00000000 0.00000000 0.00000000
vn 0.00000000 -0.00000000 0.00000000
vn 0.00000000 0.00000000 0.00000000
vn 0.00000000 -0.00000000 0.00000000
vn 0.00000000 -0.00000000 0.00000000
vn 0.00000000 -0.00000000 0.00000000
vn 0.00000000 0.00000000 0.00000000
vn 0.00000000 0.00000000 0.00000000
vn 0.00000000 0.00000000 0.00000000
vn 0.00000000 0.00000000 0.00000000
vn 0.00000000 -0.00000000 0.00000000
vn 0.00000000 0.00000000 0.00000000
vn 0.00000000 0.00000000 0.00000000
vn 0.00000000 0.00000000 0.00000000
vn 0.00000000 -0.00000000 0.00000000
vn 0.00000000 0.00000000 0.00000000
vn 0.00000000 -0.00000000 0.00000000
vn 0.00000000 -0.00000000 0.00000000
vn 0.00000000 0.00000000 0.00000000
vn 0.00000000 0.00000000 0.00000000
vn 0.00000000 0.00000000 0.00000000
vn 0.00000000 0.00000000 0.00000000
vn 0.00000000 -0.00000000 0.00000000
vn 0.00000000 0.00000000 0.00000000
vn 0.00000000 -0.00000000 0.00000000
vn 0.00000000 0.00000000 0.00000000
vn 0.00000000 -0.00000000 0.00000000
vn 0.00000000 0.00000000 0.00000000
vn 0.00000000 -0.00000000 0.00000000
vn 0.00000000 -0.00000000 0.00000000
vn 0.00000000 -0.00000000 0.00000000
vn 0.00000000 -0.00000000 0.00000000
vn 0.00000000 -0.00000000 0.00000000
vn 0.00000000 0.00000000 0.00000000
vn 0.00000000 0.00000000 0.00000000
vn 0.00000000 -0.00000000 0.00000000
vn 0.00000000 -0.00000000 0.00000000
vn 0.00000000 -0.00000000 0.00000000
vn 0.00000000 0.00000000 0.00000000
vn 0.00000000 -0.00000000 0.00000000
vn 0.00000000 0.00000000 0.00000000
vn 0.00000000 0.00000000 0.00000000
vn 0.00000000 -0.00000000 0.00000000
vn 0.00000000 0.00000000 0.00000000
vn 0.00000000 0.00000000 0.00000000
vn 0.00000000 0.00000000 0.00000000
vn 0.00000000 0.00000000 0.00000000
vn 0.00000000 -0.00000000 0.00000000
vn 0.00000000 0.00000000 0.00000000
vn 0.00000000 0.00000000 0.00000000
vn 0.00000000 -0.00000000 0.00000000
vn 0.00000000 0.00000000 0.00000000
vn 0.00000000 0.00000000 0.00000000
vn 0.00000000 0.00000000 0.00000000
vn 0.00000000 0.00000000 0.00000000
f 1//1 2//2 3//3
f 2//2 1//1 4//4
f 3//3 5//5 6//6
f 5//5 3//3 2//2
f 7//7 8//8 9//9
f 8//8 7//7 10//10
f 11//11 12//12 13//13
f 14//14 12//12 11//11
f 15//15 12//12 14//14
f 12//12 15//15 16//16
f 17//17 10//10 7//7
f 10//10 17//17 18//18
f 13//13 19//19 20//20
f 19//19 13//13 12//12
f 21//21 18//18 17//17
f 18//18 21//21 22//22
f 20//20 22//22 21//21
f 22//22 20//20 19//19
f 23//23 24//24 25//25
f 24//24 23//23 26//26
f 24//24 8//8 25//25
f 8//8 24//24 27//27
f 28//28 8//8 27//27
f 8//8 28//28 9//9
f 28//28 23//23 9//9
f 23//23 28//28 26//26
f 26//26 29//29 24//24
f 26//26 30//30 29//29
f 30//30 28//28 31//31
f 28//28 30//30 26//26
f 32//32 24//24 29//29
f 31//31 24//24 32//32
f 31//31 27//27 24//24
f 27//27 31//31 28//28
f 29//29 33//33 34//34
f 33//33 29//29 30//30
f 29//29 35//35 32//32
f 35//35 29//29 34//34
f 33//33 31//31 36//36
f 31//31 33//33 30//30
f 31//31 35//35 36//36
f 35//35 31//31 32//32
f 37//37 38//38 39//39
f 38//38 37//37 40//40
f 39//39 41//41 42//42
f 41//41 39//39 38//38
f 43//43 44//44 45//45
f 46//46 45//45 44//44
f 47//47 48//48 44//44
f 49//49 44//44 48//48
f 50//50 47//47 43//43
f 44//44 43//43 47//47
f 51//51 52//52 53//53
f 54//54 53//53 52//52
f 46//46 40//40 45//45
f 55//55 45//45 40//40
f 38//38 55//55 40//40
f 37//37 4//4 39//39
f 2//2 39//39 4//4
f 51//51 1//1 46//46
f 37//37 46//46 1//1
f 40//40 46//46 37//37
f 4//4 37//37 1//1
f 3//3 1//1 51//51
f 46//46 56//56 51//51
f 52//52 51//51 56//56
f 44//44 49//49 46//46
f 56//56 46//46 49//49
f 57//57 58//58 59//59
f 60//60 61//61 62//62
f 63//63 62//62 61//61
f 62//62 63//63 64//64
f 50//50 64//64 63//63
f 64//64 50//50 65//65
f 43//43 65//65 50//50
f 65//65 43//43 66//66
f 45//45 66//66 43//43
f 66//66 45//45 67//67
f 55//55 67//67 45//45
f 67//67 55//55 15//15
f 14//14 15//15 55//55
f 48//48 68//68 49//49
f 69//69 49//49 68//68
f 63//63 70//70 50//50
f 48//48 50//50 70//70
f 68//68 48//48 70//70
f 47//47 50//50 48//48
f 61//61 71//71 63//63
f 70//70 63//63 71//71
f 9//9 72//72 23//23
f 73//73 23//23 72//72
f 7//7 74//74 9//9
f 72//72 9//9 74//74
f 17//17 75//75 7//7
f 74//74 7//7 75//75
f 21//21 76//76 17//17
f 75//75 17//17 76//76
f 20//20 77//77 21//21
f 76//76 21//21 77//77
f 13//13 78//78 20//20
f 77//77 20//20 78//78
f 11//11 79//79 13//13
f 78//78 13//13 79//79
f 39//39 2//2 42//42
f 5//5 42//42 2//2
f 6//6 42//42 5//5
f 55//55 38//38 14//14
f 41//41 14//14 38//38
f 42//42 14//14 41//41
f 53//53 14//14 42//42
f 54//54 14//14 53//53
f 52//52 80//80 54//54
f 79//79 54//54 80//80
f 11//11 54//54 79//79
f 14//14 54//54 11//11
f 3//3 51//51 6//6
f 53//53 6//6 51//51
f 42//42 6//6 53//53
f 56//56 81//81 52//52
f 80//80 52//52 81//81
f 49//49 69//69 56//56
f 81//81 56//56 69//69
f 57//57 59//59 82//82
f 83//83 84//84 58//58
f 59//59 58//58 84//84
f 85//85 83//83 57//57
f 58//58 57//57 83//83
f 86//86 85//85 82//82
f 57//57 82//82 85//85
f 87//87 88//88 61//61
f 71//71 61//61 88//88
f 89//89 87//87 60//60
f 61//61 60//60 87//87
f 60//60 62//62 90//90
f 91//91 90//90 62//62
f 62//62 64//64 91//91
f 92//92 91//91 64//64
f 64//64 65//65 92//92
f 93//93 92//92 65//65
f 65//65 66//66 93//93
f 94//94 93//93 66//66
f 66//66 67//67 94//94
f 95//95 94//94 67//67
f 95//95 16//16 96//96
f 67//67 15//15 95//95
f 16//16 95//95 15//15
f 16//16 12//12 96//96
f 97//97 96//96 12//12
f 12//12 19//19 97//97
f 98//98 97//97 19//19
f 19//19 22//22 98//98
f 99//99 98//98 22//22
f 22//22 18//18 99//99
f 100//100 99//99 18//18
f 100//100 18//18 101//101
f 10//10 101//101 18//18
f 10//10 8//8 101//101
f 102//102 101//101 8//8
f 102//102 8//8 103//103
f 25//25 103//103 8//8
f 104//104 89//89 90//90
f 60//60 90//90 89//89
f 103//103 25//25 105//105
f 23//23 105//105 25//25
f 73//73 105//105 23//23
f 106//106 105//105 73//73
f 73//73 72//72 106//106
f 74//74 106//106 72//72
f 107//107 106//106 74//74
f 75//75 107//107 74//74
f 76//76 107//107 75//75
f 77//77 107//107 76//76
f 78//78 107//107 77//77
f 79//79 107//107 78//78
f 71//71 88//88 70//70
f 108//108 70//70 88//88
f 68//68 70//70 108//108
f 69//69 68//68 108//108
f 81//81 69//69 108//108
f 80//80 81//81 108//108
f 79//79 80//80 108//108
f 107//107 79//79 108//108
f 109//109 110//110 82//82
f 86//86 82//82 110//110
f 109//109 82//82 111//111
f 59//59 111//111 82//82
f 112//112 111//111 84//84
f 59//59 84//84 111//111
f 108//108 88//88 110//110
f 87//87 110//110 88//88
f 86//86 110//110 87//87
f 85//85 86//86 87//87
f 83//83 85//85 87//87
f 89//89 83//83 87//87
f 104//104 83//83 89//89
f 112//112 83//83 104//104
f 84//84 83//83 112//112
f 113//113 112//112 104//104
f 90//90 91//91 104//104
f 113//113 104//104 91//91
f 92//92 113//113 91//91
f 93//93 113//113 92//92
f 94//94 113//113 93//93
f 95//95 113//113 94//94
f 96//96 113//113 95//95
f 102//102 103//103 101//101
f 105//105 101//101 103//103
f 114//114 101//101 105//105
f 100//100 101//101 114//114
f 99//99 100//100 114//114
f 98//98 99//99 114//114
f 97//97 98//98 114//114
f 96//96 97//97 114//114
f 113//113 96//96 114//114
f 106//106 107//107 105//105
f 114//114 105//105 107//107
f 108//108 110//110 107//107
f 109//109 107//107 110//110
f 111//111 107//107 109//109
f 112//112 113//113 111//111
f 114//114 111//111 113//113
f 107//107 111//111 114//114
f 36//36 33//33 35//35
f 34//34 35//35 33//33
f 26//26 23//23 24//24
f 25//25 24//24 23//23
f 27//27 24//24 8//8
f 25//25 8//8 24//24
f 9//9 28//28 8//8
f 27//27 8//8 28//28
f 26//26 28//28 23//23
f 9//9 23//23 28//28
f 28//28 31//31 27//27
f 24//24 27//27 31//31
f 32//32 24//24 31//31
f 29//29 24//24 32//32
f 26//26 30//30 28//28
f 31//31 28//28 30//30
f 29//29 30//30 26//26
f 24//24 29//29 26//26
f 30//30 29//29 33//33
f 34//34 33//33 29//29
f 34//34 29//29 35//35
f 32//32 35//35 29//29
f 30//30 33//33 31//31
f 36//36 31//31 33//33
f 32//32 31//31 35//35
f 36//36 35//35 31//31
f 10//10 7//7 8//8
f 9//9 8//8 7//7
f 16//16 15//15 12//12
f 14//14 12//12 15//15
f 11//11 12//12 14//14
f 13//13 12//12 11//11
f 18//18 17//17 10//10
f 7//7 10//10 17//17
f 12//12 13//13 19//19
f 20//20 19//19 13//13
f 22//22 21//21 18//18
f 17//17 18//18 21//21
f 19//19 20//20 22//22
f 21//21 22//22 20//20
f 4//4 1//1 2//2
f 3//3 2//2 1//1
f 2//2 3//3 5//5
f 6//6 5//5 3//3
f 40//40 37//37 38//38
f 39//39 38//38 37//37
f 38//38 39//39 41//41
f 42//42 41//41 39//39
f 115//115 116//116 117//117
f 118//118 117//117 116//116
f 119//119 118//118 116//116
f 120//120 118//118 119//119
f 121//121 118//118 120//120
f 122//122 118//118 121//121
f 123//123 122//122 121//121
f 124//124 122//122 123//123
f 125//125 122//122 124//124
f 126//126 125//125 124//124
f 127//127 125//125 126//126
f 128//128 129//129 130//130
f 131//131 130//130 129//129
f 132//132 130//130 131//131
f 133//133 132//132 131//131
f 134//134 132//132 133//133
f 135//135 134//134 133//133
f 136//136 135//135 133//133
f 137//137 136//136 133//133
f 138//138 136//136 137//137
f 127//127 138//138 137//137
f 125//125 127//127 137//137
f 139//139 125//125 137//137
f 140//140 139//139 137//137
f 141//141 139//139 140//140
f 142//142 141//141 140//140
f 143//143 141//141 142//142
f 144//144 143//143 142//142
f 145//145 143//143 144//144
f 146//146 145//145 144//144
f 147//147 145//145 146//146
f 148//148 147//147 146//146
f 149//149 147//147 148//148
f 115//115 150//150 116//116
f 128//128 116//116 150//150
f 129//129 128//128 150//150
f 150//150 128//128 129//129
f 150//150 116//116 128//128
f 116//116 150//150 115//115
f 148//148 147//147 149//149
f 146//146 147//147 148//148
f 146//146 145//145 147//147
f 144//144 145//145 146//146
f 144//144 143//143 145//145
f 142//142 143//143 144//144
f 142//142 141//141 143//143
f 140//140 141//141 142//142
f 140//140 139//139 141//141
f 137//137 139//139 140//140
f 137//137 125//125 139//139
f 137//137 127//127 125//125
f 137//137 138//138 127//127
f 137//137 136//136 138//138
f 133//133 136//136 137//137
f 133//133 135//135 136//136
f 133//133 134//134 135//135
f 133//133 132//132 134//134
f 131//131 132//132 133//133
f 131//131 130//130 132//132
f 129//129 130//130 131//131
f 130//130 129//129 128//128
f 126//126 125//125 127//127
f 124//124 125//125 126//126
f 124//124 122//122 125//125
f 123//123 122//122 124//124
f 121//121 122//122 123//123
f 121//121 118//118 122//122
f 120//120 118//118 121//121
f 119//119 118//118 120//120
f 116//116 118//118 119//119
f 116//116 117//117 118//118
f 117//117 116//116 115//115
f 151//151 152//152 153//153
f 154//154 153//153 152//152
f 155//155 153//153 154//154
f 156//156 153//153 155//155
f 157//157 153//153 156//156
f 158//158 157//157 156//156
f 159//159 157//157 158//158
f 160//160 157//157 159//159
f 161//161 160//160 159//159
f 162//162 160//160 161//161
f 163//163 162//162 161//161
f 164//164 162//162 163//163
f 165//165 162//162 164//164
f 166//166 167//167 168//168
f 169//169 168//168 167//167
f 170//170 169//169 167//167
f 171//171 169//169 170//170
f 172//172 169//169 171//171
f 165//165 169//169 172//172
f 173//173 165//165 172//172
f 174//174 165//165 173//173
f 175//175 165//165 174//174
f 176//176 165//165 175//175
f 177//177 165//165 176//176
f 178//178 165//165 177//177
f 162//162 165//165 178//178
f 179//179 162//162 178//178
f 180//180 179//179 178//178
f 181//181 180//180 178//178
f 182//182 181//181 178//178
f 183//183 182//182 178//178
f 184//184 183//183 178//178
f 185//185 186//186 187//187
f 188//188 187//187 186//186
f 189//189 187//187 188//188
f 190//190 189//189 188//188
f 191//191 189//189 190//190
f 192//192 191//191 190//190
f 193//193 191//191 192//192
f 194//194 191//191 193//193
f 195//195 194//194 193//193
f 168//168 194//194 195//195
f 196//196 168//168 195//195
f 197//197 168//168 196//196
f 166//166 168//168 197//197
f 198//198 166//166 197//197
f 199//199 198//198 197//197
f 200//200 199//199 197//197
f 201//201 199//199 200//200
f 202//202 201//201 200//200
f 203//203 202//202 200//200
f 204//204 202//202 203//203
f 205//205 204//204 203//203
f 175//175 204//204 205//205
f 176//176 175//175 205//205
f 205//205 175//175 176//176
f 205//205 204//204 175//175
f 203//203 204//204 205//205
f 203//203 202//202 204//204
f 200//200 202//202 203//203
f 200//200 201//201 202//202
f 200//200 199//199 201//201
f 197//197 199//199 200//200
f 197//197 198//198 199//199
f 197//197 166//166 198//198
f 197//197 168//168 166//166
f 196//196 168//168 197//197
f 195//195 168//168 196//196
f 195//195 194//194 168//168
f 193//193 194//194 195//195
f 193//193 191//191 194//194
f 192//192 191//191 193//193
f 190//190 191//191 192//192
f 190//190 189//189 191//191
f 188//188 189//189 190//190
f 188//188 187//187 189//189
f 186//186 187//187 188//188
f 187//187 186//186 185//185
f 178//178 183//183 184//184
f 178//178 182//182 183//183
f 178//178 181//181 182//182
f 178//178 180//180 181//181
f 178//178 179//179 180//180
f 178//178 162//162 179//179
f 178//178 165//165 162//162
f 177//177 165//165 178//178
f 176//176 165//165 177//177
f 175//175 165//165 176//176
f 174//174 165//165 175//175
f 173//173 165//165 174//174
f 172//172 165//165 173//173
f 172//172 169//169 165//165
f 171//171 169//169 172//172
f 170//170 169//169 171//171
f 167//167 169//169 170//170
f 167//167 168//168 169//169
f 168//168 167//167 166//166
f 164//164 162//162 165//165
f 163//163 162//162 164//164
f 161//161 162//162 163//163
f 161//161 160//160 162//162
f 159//159 160//160 161//161
f 159//159 157//157 160//160
f 158//158 157//157 159//159
f 156//156 157//157 158//158
f 156//156 153//153 157//157
f 155//155 153//153 156//156
f 154//154 153//153 155//155
f 152//152 153//153 154//154
f 153//153 152//152 151//151
f 206//206 207//207 208//208
f 209//209 208//208 207//207
f 210//210 208//208 209//209
f 211//211 210//210 209//209
f 212//212 210//210 211//211
f 213//213 212//212 211//211
f 214//214 212//212 213//213
f 215//215 214//214 213//213
f 216//216 214//214 215//215
f 217//217 214//214 216//216
f 218//218 214//214 217//217
f 219//219 218//218 217//217
f 220//220 218//218 219//219
f 221//221 218//218 220//220
f 222//222 218//218 221//221
f 223//223 222//222 221//221
f 224//224 223//223 221//221
f 225//225 224//224 221//221
f 226//226 225//225 221//221
f 227//227 226//226 221//221
f 228//228 227//227 221//221
f 229//229 230//230 231//231
f 232//232 231//231 230//230
f 206//206 231//231 232//232
f 207//207 206//206 232//232
f 232//232 206//206 207//207
f 232//232 231//231 206//206
f 230//230 231//231 232//232
f 231//231 230//230 229//229
f 221//221 227//227 228//228
f 221//221 226//226 227//227
f 221//221 225//225 226//226
f 221//221 224//224 225//225
f 221//221 223//223 224//224
f 221//221 222//222 223//223
f 221//221 218//218 222//222
f 220//220 218//218 221//221
f 219//219 218//218 220//220
f 217//217 218//218 219//219
f 217//217 214//214 218//218
f 216//216 214//214 217//217
f 215//215 214//214 216//216
f 213//213 214//214 215//215
f 213//213 212//212 214//214
f 211//211 212//212 213//213
f 211//211 210//210 212//212
f 209//209 210//210 211//211
f 209//209 208//208 210//210
f 207//207 208//208 209//209
f 208//208 207//207 206//206
f 233//233 234//234 235//235
f 236//236 235//235 234//234
f 237//237 235//235 236//236
f 238//238 235//235 237//237
f 239//239 235//235 238//238
f 240//240 239//239 238//238
f 241//241 239//239 240//240
f 242//242 239//239 241//241
f 243//243 242//242 241//241
f 244//244 242//242 243//243
f 245//245 244//244 243//243
f 246//246 244//244 245//245
f 247//247 244//244 246//246
f 248//248 249//249 250//250
f 251//251 250//250 249//249
f 252//252 251//251 249//249
f 253//253 251//251 252//252
f 254//254 251//251 253//253
f 247//247 251//251 254//254
f 255//255 247//247 254//254
f 256//256 247//247 255//255
f 257//257 247//247 256//256
f 258//258 247//247 257//257
f 259//259 247//247 258//258
f 260//260 247//247 259//259
f 244//244 247//247 260//260
f 261//261 244//244 260//260
f 262//262 261//261 260//260
f 263//263 262//262 260//260
f 264//264 263//263 260//260
f 265//265 264//264 260//260
f 266//266 265//265 260//260
f 267//267 268//268 269//269
f 270//270 269//269 268//268
f 271//271 269//269 270//270
f 272//272 271//271 270//270
f 273//273 271//271 272//272
f 274//274 273//273 272//272
f 275//275 273//273 274//274
f 276//276 273//273 275//275
f 277//277 276//276 275//275
f 250//250 276//276 277//277
f 278//278 250//250 277//277
f 279//279 250//250 278//278
f 248//248 250//250 279//279
f 280//280 248//248 279//279
f 281//281 280//280 279//279
f 282//282 281//281 279//279
f 283//283 281//281 282//282
f 284//284 283//283 282//282
f 285//285 284//284 282//282
f 286//286 284//284 285//285
f 287//287 286//286 285//285
f 257//257 286//286 287//287
f 258//258 257//257 287//287
f 287//287 257//257 258//258
f 287//287 286//286 257//257
f 285//285 286//286 287//287
f 285//285 284//284 286//286
f 282//282 284//284 285//285
f 282//282 283//283 284//284
f 282//282 281//281 283//283
f 279//279 281//281 282//282
f 279//279 280//280 281//281
f 279//279 248//248 280//280
f 279//279 250//250 248//248
f 278//278 250//250 279//279
f 277//277 250//250 278//278
f 277//277 276//276 250//250
f 275//275 276//276 277//277
f 275//275 273//273 276//276
f 274//274 273//273 275//275
f 272//272 273//273 274//274
f 272//272 271//271 273//273
f 270//270 271//271 272//272
f 270//270 269//269 271//271
f 268//268 269//269 270//270
f 269//269 268//268 267//267
f 260//260 265//265 266//266
f 260//260 264//264 265//265
f 260//260 263//263 264//264
f 260//260 262//262 263//263
f 260//260 261//261 262//262
f 260//260 244//244 261//261
f 260//260 247//247 244//244
f 259//259 247//247 260//260
f 258//258 247//247 259//259
f 257//257 247//247 258//258
f 256//256 247//247 257//257
f 255//255 247//247 256//256
f 254//254 247//247 255//255
f 254//254 251//251 247//247
f 253//253 251//251 254//254
f 252//252 251//251 253//253
f 249//249 251//251 252//252
f 249//249 250//250 251//251
f 250//250 249//249 248//248
f 246//246 244//244 247//247
f 245//245 244//244 246//246
f 243//243 244//244 245//245
f 243//243 242//242 244//244
f 241//241 242//242 243//243
f 241//241 239//239 242//242
f 240//240 239//239 241//241
f 238//238 239//239 240//240
f 238//238 235//235 239//239
f 237//237 235//235 238//238
f 236//236 235//235 237//237
f 234//234 235//235 236//236
f 235//235 234//234 233//233
f 288//288 289//289 290//290
f 291//291 290//290 289//289
f 292//292 290//290 291//291
f 293//293 290//290 292//292
f 294//294 290//290 293//293
f 295//295 294//294 293//293
f 296//296 294//294 295//295
f 297//297 296//296 295//295
f 298//298 296//296 297//297
f 299//299 296//296 298//298
f 300//300 299//299 298//298
f 301//301 299//299 300//300
f 302//302 301//301 300//300
f 303//303 301//301 302//302
f 304//304 305//305 306//306
f 307//307 306//306 305//305
f 308//308 307//307 305//305
f 309//309 307//307 308//308
f 310//310 309//309 308//308
f 311//311 309//309 310//310
f 312//312 311//311 310//310
f 313//313 312//312 310//310
f 288//288 312//312 313//313
f 289//289 288//288 313//313
f 314//314 289//289 313//313
f 315//315 289//289 314//314
f 316//316 315//315 314//314
f 317//317 316//316 314//314
f 318//318 317//317 314//314
f 319//319 317//317 318//318
f 320//320 319//319 318//318
f 321//321 319//319 320//320
f 322//322 321//321 320//320
f 323//323 321//321 322//322
f 324//324 321//321 323//323
f 325//325 321//321 324//324
f 326//326 321//321 325//325
f 327//327 326//326 325//325
f 328//328 326//326 327//327
f 329//329 326//326 328//328
f 330//330 329//329 328//328
f 331//331 329//329 330//330
f 332//332 331//331 330//330
f 333//333 331//331 332//332
f 334//334 335//335 336//336
f 337//337 336//336 335//335
f 338//338 336//336 337//337
f 339//339 338//338 337//337
f 340//340 339//339 337//337
f 341//341 340//340 337//337
f 342//342 340//340 341//341
f 343//343 342//342 341//341
f 344//344 342//342 343//343
f 345//345 342//342 344//344
f 346//346 345//345 344//344
f 324//324 346//346 344//344
f 347//347 346//346 324//324
f 323//323 347//347 324//324
f 324//324 347//347 323//323
f 324//324 346//346 347//347
f 344//344 346//346 324//324
f 344//344 345//345 346//346
f 344//344 342//342 345//345
f 343//343 342//342 344//344
f 341//341 342//342 343//343
f 341//341 340//340 342//342
f 337//337 340//340 341//341
f 337//337 339//339 340//340
f 337//337 338//338 339//339
f 337//337 336//336 338//338
f 335//335 336//336 337//337
f 336//336 335//335 334//334
f 332//332 331//331 333//333
f 330//330 331//331 332//332
f 330//330 329//329 331//331
f 328//328 329//329 330//330
f 328//328 326//326 329//329
f 327//327 326//326 328//328
f 325//325 326//326 327//327
f 325//325 321//321 326//326
f 324//324 321//321 325//325
f 323//323 321//321 324//324
f 322//322 321//321 323//323
f 320//320 321//321 322//322
f 320//320 319//319 321//321
f 318//318 319//319 320//320
f 318//318 317//317 319//319
f 314//314 317//317 318//318
f 314//314 316//316 317//317
f 314//314 315//315 316//316
f 314//314 289//289 315//315
f 313//313 289//289 314//314
f 313//313 288//288 289//289
f 313//313 312//312 288//288
f 310//310 312//312 313//313
f 310//310 311//311 312//312
f 310//310 309//309 311//311
f 308//308 309//309 310//310
f 308//308 307//307 309//309
f 305//305 307//307 308//308
f 305//305 306//306 307//307
f 306//306 305//305 304//304
f 302//302 301//301 303//303
f 300//300 301//301 302//302
f 300//300 299//299 301//301
f 298//298 299//299 300//300
f 298//298 296//296 299//299
f 297//297 296//296 298//298
f 295//295 296//296 297//297
f 295//295 294//294 296//296
f 293//293 294//294 295//295
f 293//293 290//290 294//294
f 292//292 290//290 293//293
f 291//291 290//290 292//292
f 289//289 290//290 291//291
f 290//290 289//289 288//288
f 348//348 349//349 350//350
f 351//351 350//350 349//349
f 352//352 351//351 349//349
f 353//353 351//351 352//352
f 354//354 351//351 353//353
f 355//355 351//351 354//354
f 356//356 355//355 354//354
f 357//357 355//355 356//356
f 358//358 355//355 357//357
f 359//359 358//358 357//357
f 360//360 358//358 359//359
f 361//361 358//358 360//360
f 362//362 361//361 360//360
f 363//363 361//361 362//362
f 364//364 361//361 363//363
f 365//365 361//361 364//364
f 366//366 361//361 365//365
f 367//367 361//361 366//366
f 368//368 361//361 367//367
f 369//369 368//368 367//367
f 370//370 368//368 369//369
f 371//371 370//370 369//369
f 372//372 370//370 371//371
f 373//373 372//372 371//371
f 374//374 372//372 373//373
f 375//375 374//374 373//373
f 376//376 374//374 375//375
f 377//377 376//376 375//375
f 378//378 379//379 380//380
f 381//381 380//380 379//379
f 382//382 380//380 381//381
f 383//383 382//382 381//381
f 384//384 382//382 383//383
f 385//385 384//384 383//383
f 386//386 384//384 385//385
f 387//387 386//386 385//385
f 388//388 386//386 387//387
f 389//389 388//388 387//387
f 350//350 388//388 389//389
f 348//348 350//350 389//389
f 390//390 348//348 389//389
f 391//391 390//390 389//389
f 392//392 390//390 391//391
f 393//393 392//392 391//391
f 394//394 393//393 391//391
f 395//395 394//394 391//391
f 396//396 395//395 391//391
f 397//397 395//395 396//396
f 398//398 397//397 396//396
f 399//399 397//397 398//398
f 400//400 399//399 398//398
f 401//401 400//400 398//398
f 366//366 401//401 398//398
f 402//402 401//401 366//366
f 403//403 402//402 366//366
f 365//365 403//403 366//366
f 366//366 403//403 365//365
f 366//366 402//402 403//403
f 366//366 401//401 402//402
f 398//398 401//401 366//366
f 398//398 400//400 401//401
f 398//398 399//399 400//400
f 398//398 397//397 399//399
f 396//396 397//397 398//398
f 396//396 395//395 397//397
f 391//391 395//395 396//396
f 391//391 394//394 395//395
f 391//391 393//393 394//394
f 391//391 392//392 393//393
f 391//391 390//390 392//392
f 389//389 390//390 391//391
f 389//389 348//348 390//390
f 389//389 350//350 348//348
f 389//389 388//388 350//350
f 387//387 388//388 389//389
f 387//387 386//386 388//388
f 385//385 386//386 387//387
f 385//385 384//384 386//386
f 383//383 384//384 385//385
f 383//383 382//382 384//384
f 381//381 382//382 383//383
f 381//381 380//380 382//382
f 379//379 380//380 381//381
f 380//380 379//379 378//378
f 375//375 376//376 377//377
f 375//375 374//374 376//376
f 373//373 374//374 375//375
f 373//373 372//372 374//374
f 371//371 372//372 373//373
f 371//371 370//370 372//372
f 369//369 370//370 371//371
f 369//369 368//368 370//370
f 367//367 368//368 369//369
f 367//367 361//361 368//368
f 366//366 361//361 367//367
f 365//365 361//361 366//366
f 364//364 361//361 365//365
f 363//363 361//361 364//364
f 362//362 361//361 363//363
f 360//360 361//361 362//362
f 360//360 358//358 361//361
f 359//359 358//358 360//360
f 357//357 358//358 359//359
f 357//357 355//355 358//358
f 356//356 355//355 357//357
f 354//354 355//355 356//356
f 354//354 351//351 355//355
f 353//353 351//351 354//354
f 352//352 351//351 353//353
f 349//349 351//351 352//352
f 349//349 350//350 351//351
f 350//350 349//349 348//348
f 404//404 405//405 406//406
f 407//407 406//406 405//405
f 408//408 406//406 407//407
f 409//409 408//408 407//407
f 410//410 408//408 409//409
f 411//411 410//410 409//409
f 412//412 410//410 411//411
f 413//413 412//412 411//411
f 414//414 412//412 413//413
f 415//415 412//412 414//414
f 416//416 412//412 415//415
f 417//417 416//416 415//415
f 418//418 416//416 417//417
f 419//419 416//416 418//418
f 420//420 416//416 419//419
f 421//421 420//420 419//419
f 422//422 421//421 419//419
f 423//423 422//422 419//419
f 424//424 423//423 419//419
f 425//425 424//424 419//419
f 426//426 425//425 419//419
f 427//427 428//428 429//429
f 430//430 429//429 428//428
f 404//404 429//429 430//430
f 405//405 404//404 430//430
f 430//430 404//404 405//405
f 430//430 429//429 404//404
f 428//428 429//429 430//430
f 429//429 428//428 427//427
f 419//419 425//425 426//426
f 419//419 424//424 425//425
f 419//419 423//423 424//424
f 419//419 422//422 423//423
f 419//419 421//421 422//422
f 419//419 420//420 421//421
f 419//419 416//416 420//420
f 418//418 416//416 419//419
f 417//417 416//416 418//418
f 415//415 416//416 417//417
f 415//415 412//412 416//416
f 414//414 412//412 415//415
f 413//413 412//412 414//414
f 411//411 412//412 413//413
f 411//411 410//410 412//412
f 409//409 410//410 411//411
f 409//409 408//408 410//410
f 407//407 408//408 409//409
f 407//407 406//406 408//408
f 405//405 406//406 407//407
f 406//406 405//405 404//404
f 431//431 432//432 433//433
f 434//434 433//433 432//432
f 432//432 433//433 434//434
f 433//433 432//432 431//431
f 435//435 436//436 437//437
f 438//438 437//437 436//436
f 436//436 437//437 438//438
f 437//437 436//436 435//435
f 439//439 440//440 441//441
f 442//442 441//441 440//440
f 443//443 441//441 442//442
f 444//444 441//441 443//443
f 445//445 444//444 443//443
f 446//446 444//444 445//445
f 447//447 444//444 446//446
f 448//448 444//444 447//447
f 449//449 448//448 447//447
f 450//450 448//448 449//449
f 451//451 448//448 450//450
f 452//452 451//451 450//450
f 453//453 451//451 452//452
f 454//454 453//453 452//452
f 455//455 453//453 454//454
f 456//456 455//455 454//454
f 457//457 455//455 456//456
f 458//458 455//455 457//457
f 459//459 460//460 461//461
f 462//462 461//461 460//460
f 463//463 461//461 462//462
f 464//464 463//463 462//462
f 465//465 463//463 464//464
f 466//466 465//465 464//464
f 467//467 465//465 466//466
f 468//468 467//467 466//466
f 439//439 467//467 468//468
f 469//469 439//439 468//468
f 440//440 439//439 469//469
f 470//470 440//440 469//469
f 471//471 470//470 469//469
f 472//472 471//471 469//469
f 473//473 471//471 472//472
f 474//474 473//473 472//472
f 475//475 474//474 472//472
f 476//476 475//475 472//472
f 477//477 475//475 476//476
f 478//478 477//477 476//476
f 479//479 477//477 478//478
f 480//480 479//479 478//478
f 481//481 479//479 480//480
f 482//482 481//481 480//480
f 483//483 481//481 482//482
f 484//484 483//483 482//482
f 485//485 484//484 482//482
f 482//482 484//484 485//485
f 482//482 483//483 484//484
f 482//482 481//481 483//483
f 480//480 481//481 482//482
f 480//480 479//479 481//481
f 478//478 479//479 480//480
f 478//478 477//477 479//479
f 476//476 477//477 478//478
f 476//476 475//475 477//477
f 472//472 475//475 476//476
f 472//472 474//474 475//475
f 472//472 473//473 474//474
f 472//472 471//471 473//473
f 469//469 471//471 472//472
f 469//469 470//470 471//471
f 469//469 440//440 470//470
f 469//469 439//439 440//440
f 468//468 439//439 469//469
f 468//468 467//467 439//439
f 466//466 467//467 468//468
f 466//466 465//465 467//467
f 464//464 465//465 466//466
f 464//464 463//463 465//465
f 462//462 463//463 464//464
f 462//462 461//461 463//463
f 460//460 461//461 462//462
f 461//461 460//460 459//459
f 457//457 455//455 458//458
f 456//456 455//455 457//457
f 454//454 455//455 456//456
f 454//454 453//453 455//455
f 452//452 453//453 454//454
f 452//452 451//451 453//453
f 450//450 451//451 452//452
f 450//450 448//448 451//451
f 449//449 448//448 450//450
f 447//447 448//448 449//449
f 447//447 444//444 448//448
f 446//446 444//444 447//447
f 445//445 444//444 446//446
f 443//443 444//444 445//445
f 443//443 441//441 444//444
f 442//442 441//441 443//443
f 440//440 441//441 442//442
f 441//441 440//440 439//439
f 486//486 487//487 488//488
f 489//489 488//488 487//487
f 490//490 489//489 487//487
f 491//491 489//489 490//490
f 492//492 489//489 491//491
f 493//493 489//489 492//492
f 494//494 493//493 492//492
f 495//495 493//493 494//494
f 496//496 493//493 495//495
f 497//497 496//496 495//495
f 498//498 496//496 497//497
f 499//499 500//500 501//501
f 502//502 501//501 500//500
f 503//503 501//501 502//502
f 504//504 503//503 502//502
f 505//505 503//503 504//504
f 506//506 505//505 504//504
f 507//507 506//506 504//504
f 508//508 507//507 504//504
f 509//509 507//507 508//508
f 498//498 509//509 508//508
f 496//496 498//498 508//508
f 510//510 496//496 508//508
f 511//511 510//510 508//508
f 512//512 510//510 511//511
f 513//513 512//512 511//511
f 514//514 512//512 513//513
f 515//515 514//514 513//513
f 516//516 514//514 515//515
f 517//517 516//516 515//515
f 518//518 516//516 517//517
f 519//519 518//518 517//517
f 520//520 518//518 519//519
f 486//486 521//521 487//487
f 499//499 487//487 521//521
f 500//500 499//499 521//521
f 521//521 499//499 500//500
f 521//521 487//487 499//499
f 487//487 521//521 486//486
f 519//519 518//518 520//520
f 517//517 518//518 519//519
f 517//517 516//516 518//518
f 515//515 516//516 517//517
f 515//515 514//514 516//516
f 513//513 514//514 515//515
f 513//513 512//512 514//514
f 511//511 512//512 513//513
f 511//511 510//510 512//512
f 508//508 510//510 511//511
f 508//508 496//496 510//510
f 508//508 498//498 496//496
f 508//508 509//509 498//498
f 508//508 507//507 509//509
f 504//504 507//507 508//508
f 504//504 506//506 507//507
f 504//504 505//505 506//506
f 504//504 503//503 505//505
f 502//502 503//503 504//504
f 502//502 501//501 503//503
f 500//500 501//501 502//502
f 501//501 500//500 499//499
f 497//497 496//496 498//498
f 495//495 496//496 497//497
f 495//495 493//493 496//496
f 494//494 493//493 495//495
f 492//492 493//493 494//494
f 492//492 489//489 493//493
f 491//491 489//489 492//492
f 490//490 489//489 491//491
f 487//487 489//489 490//490
f 487//487 488//488 489//489
f 488//488 487//487 486//486
f 522//522 523//523 524//524
f 525//525 524//524 523//523
f 526//526 524//524 525//525
f 527//527 524//524 526//526
f 528//528 524//524 527//527
f 529//529 524//524 528//528
f 530//530 524//524 529//529
f 531//531 524//524 530//530
f 532//532 533//533 534//534
f 535//535 534//534 533//533
f 536//536 534//534 535//535
f 537//537 534//534 536//536
f 538//538 534//534 537//537
f 539//539 534//534 538//538
f 540//540 534//534 539//539
f 541//541 534//534 540//540
f 542//542 541//541 540//540
f 543//543 542//542 540//540
f 544//544 542//542 543//543
f 545//545 544//544 543//543
f 546//546 545//545 543//543
f 547//547 546//546 543//543
f 548//548 546//546 547//547
f 549//549 548//548 547//547
f 550//550 549//549 547//547
f 551//551 549//549 550//550
f 525//525 551//551 550//550
f 552//552 551//551 525//525
f 553//553 552//552 525//525
f 554//554 553//553 525//525
f 523//523 554//554 525//525
f 525//525 554//554 523//523
f 525//525 553//553 554//554
f 525//525 552//552 553//553
f 525//525 551//551 552//552
f 550//550 551//551 525//525
f 550//550 549//549 551//551
f 547//547 549//549 550//550
f 547//547 548//548 549//549
f 547//547 546//546 548//548
f 543//543 546//546 547//547
f 543//543 545//545 546//546
f 543//543 544//544 545//545
f 543//543 542//542 544//544
f 540//540 542//542 543//543
f 540//540 541//541 542//542
f 540//540 534//534 541//541
f 539//539 534//534 540//540
f 538//538 534//534 539//539
f 537//537 534//534 538//538
f 536//536 534//534 537//537
f 535//535 534//534 536//536
f 533//533 534//534 535//535
f 534//534 533//533 532//532
f 530//530 524//524 531//531
f 529//529 524//524 530//530
f 528//528 524//524 529//529
f 527//527 524//524 528//528
f 526//526 524//524 527//527
f 525//525 524//524 526//526
f 523//523 524//524 525//525
f 524//524 523//523 522//522
f 555//555 556//556 557//557
f 558//558 557//557 556//556
f 559//559 558//558 556//556
f 560//560 558//558 559//559
f 559//559 558//558 560//560
f 556//556 558//558 559//559
f 556//556 557//557 558//558
f 557//557 556//556 555//555
f 561//561 562//562 563//563
f 564//564 563//563 562//562
f 565//565 564//564 562//562
f 566//566 564//564 565//565
f 565//565 564//564 566//566
f 562//562 564//564 565//565
f 562//562 563//563 564//564
f 563//563 562//562 561//561
f 567//567 568//568 569//569
f 570//570 569//569 568//568
f 571//571 569//569 570//570
f 572//572 571//571 570//570
f 573//573 571//571 572//572
f 574//574 573//573 572//572
f 575//575 573//573 574//574
f 576//576 575//575 574//574
f 577//577 575//575 576//576
f 578//578 577//577 576//576
f 579//579 577//577 578//578
f 580//580 577//577 579//579
f 581//581 580//580 579//579
f 582//582 580//580 581//581
f 583//583 580//580 582//582
f 584//584 580//580 583//583
f 585//585 584//584 583//583
f 586//586 584//584 585//585
f 587//587 584//584 586//586
f 588//588 587//587 586//586
f 589//589 587//587 588//588
f 590//590 587//587 589//589
f 591//591 590//590 589//589
f 592//592 590//590 591//591
f 593//593 590//590 592//592
f 594//594 593//593 592//592
f 595//595 593//593 594//594
f 596//596 593//593 595//595
f 597//597 596//596 595//595
f 598//598 596//596 597//597
f 599//599 596//596 598//598
f 600//600 596//596 599//599
f 601//601 602//602 576//576
f 578//578 576//576 602//602
f 603//603 602//602 601//601
f 604//604 603//603 601//601
f 605//605 604//604 601//601
f 606//606 605//605 601//601
f 607//607 605//605 606//606
f 608//608 607//607 606//606
f 609//609 608//608 606//606
f 610//610 609//609 606//606
f 611//611 609//609 610//610
f 612//612 611//611 610//610
f 613//613 612//612 610//610
f 614//614 612//612 613//613
f 615//615 614//614 613//613
f 616//616 614//614 615//615
f 617//617 616//616 615//615
f 618//618 617//617 615//615
f 619//619 618//618 615//615
f 620//620 618//618 619//619
f 621//621 620//620 619//619
f 600//600 621//621 619//619
f 596//596 600//600 619//619
f 622//622 596//596 619//619
f 623//623 622//622 619//619
f 624//624 622//622 623//623
f 625//625 624//624 623//623
f 626//626 624//624 625//625
f 627//627 626//626 625//625
f 628//628 626//626 627//627
f 629//629 628//628 627//627
f 630//630 628//628 629//629
f 629//629 628//628 630//630
f 627//627 628//628 629//629
f 627//627 626//626 628//628
f 625//625 626//626 627//627
f 625//625 624//624 626//626
f 623//623 624//624 625//625
f 623//623 622//622 624//624
f 619//619 622//622 623//623
f 619//619 596//596 622//622
f 619//619 600//600 596//596
f 619//619 621//621 600//600
f 619//619 620//620 621//621
f 619//619 618//618 620//620
f 615//615 618//618 619//619
f 615//615 617//617 618//618
f 615//615 616//616 617//617
f 615//615 614//614 616//616
f 613//613 614//614 615//615
f 613//613 612//612 614//614
f 610//610 612//612 613//613
f 610//610 611//611 612//612
f 610//610 609//609 611//611
f 606//606 609//609 610//610
f 606//606 608//608 609//609
f 606//606 607//607 608//608
f 606//606 605//605 607//607
f 601//601 605//605 606//606
f 601//601 604//604 605//605
f 601//601 603//603 604//604
f 601//601 602//602 603//603
f 602//602 576//576 578//578
f 576//576 602//602 601//601
f 599//599 596//596 600//600
f 598//598 596//596 599//599
f 597//597 596//596 598//598
f 595//595 596//596 597//597
f 595//595 593//593 596//596
f 594//594 593//593 595//595
f 592//592 593//593 594//594
f 592//592 590//590 593//593
f 591//591 590//590 592//592
f 589//589 590//590 591//591
f 589//589 587//587 590//590
f 588//588 587//587 589//589
f 586//586 587//587 588//588
f 586//586 584//584 587//587
f 585//585 584//584 586//586
f 583//583 584//584 585//585
f 583//583 580//580 584//584
f 582//582 580//580 583//583
f 581//581 580//580 582//582
f 579//579 580//580 581//581
f 579//579 577//577 580//580
f 578//578 577//577 579//579
f 576//576 577//577 578//578
f 576//576 575//575 577//577
f 574//574 575//575 576//576
f 574//574 573//573 575//575
f 572//572 573//573 574//574
f 572//572 571//571 573//573
f 570//570 571//571 572//572
f 570//570 569//569 571//571
f 568//568 569//569 570//570
f 569//569 568//568 567//567
f 631//631 632//632 633//633
f 634//634 633//633 632//632
f 632//632 633//633 634//634
f 633//633 632//632 631//631
f 635//635 636//636 637//637
f 638//638 637//637 636//636
f 636//636 637//637 638//638
f 637//637 636//636 635//635
f 639//639 640//640 641//641
f 642//642 641//641 640//640
f 643//643 642//642 640//640
f 644//644 642//642 643//643
f 645//645 644//644 643//643
f 643//643 644//644 645//645
f 643//643 642//642 644//644
f 640//640 642//642 643//643
f 640//640 641//641 642//642
f 641//641 640//640 639//639
f 646//646 647//647 648//648
f 649//649 648//648 647//647
f 647//647 648//648 649//649
f 648//648 647//647 646//646
f 650//650 651//651 652//652
f 653//653 652//652 651//651
f 654//654 653//653 651//651
f 655//655 656//656 657//657
f 658//658 657//657 656//656
f 659//659 660//660 650//650
f 651//651 650//650 660//660
f 655//655 651//651 660//660
f 656//656 655//655 660//660
f 661//661 660//660 659//659
f 659//659 660//660 661//661
f 660//660 655//655 656//656
f 660//660 651//651 655//655
f 660//660 650//650 651//651
f 650//650 660//660 659//659
f 656//656 657//657 658//658
f 657//657 656//656 655//655
f 651//651 653//653 654//654
f 651//651 652//652 653//653
f 652//652 651//651 650//650
f 662//662 663//663 664//664
f 665//665 664//664 663//663
f 666//666 664//664 665//665
f 667//667 664//664 666//666
f 668//668 667//667 666//666
f 669//669 667//667 668//668
f 670//670 669//669 668//668
f 671//671 669//669 670//670
f 672//672 671//671 670//670
f 673//673 671//671 672//672
f 674//674 675//675 676//676
f 677//677 676//676 675//675
f 678//678 677//677 675//675
f 679//679 677//677 678//678
f 662//662 677//677 679//679
f 680//680 662//662 679//679
f 681//681 662//662 680//680
f 682//682 662//662 681//681
f 683//683 662//662 682//682
f 663//663 662//662 683//683
f 684//684 663//663 683//683
f 685//685 663//663 684//684
f 686//686 685//685 684//684
f 687//687 686//686 684//684
f 688//688 689//689 690//690
f 691//691 690//690 689//689
f 692//692 690//690 691//691
f 693//693 690//690 692//692
f 694//694 690//690 693//693
f 695//695 690//690 694//694
f 696//696 690//690 695//695
f 683//683 696//696 695//695
f 697//697 696//696 683//683
f 698//698 697//697 683//683
f 699//699 698//698 683//683
f 682//682 699//699 683//683
f 674//674 700//700 675//675
f 688//688 675//675 700//700
f 689//689 688//688 700//700
f 700//700 688//688 689//689
f 700//700 675//675 688//688
f 675//675 700//700 674//674
f 683//683 699//699 682//682
f 683//683 698//698 699//699
f 683//683 697//697 698//698
f 683//683 696//696 697//697
f 695//695 696//696 683//683
f 695//695 690//690 696//696
f 694//694 690//690 695//695
f 693//693 690//690 694//694
f 692//692 690//690 693//693
f 691//691 690//690 692//692
f 689//689 690//690 691//691
f 690//690 689//689 688//688
f 684//684 686//686 687//687
f 684//684 685//685 686//686
f 684//684 663//663 685//685
f 683//683 663//663 684//684
f 683//683 662//662 663//663
f 682//682 662//662 683//683
f 681//681 662//662 682//682
f 680//680 662//662 681//681
f 679//679 662//662 680//680
f 679//679 677//677 662//662
f 678//678 677//677 679//679
f 675//675 677//677 678//678
f 675//675 676//676 677//677
f 676//676 675//675 674//674
f 672//672 671//671 673//673
f 670//670 671//671 672//672
f 670//670 669//669 671//671
f 668//668 669//669 670//670
f 668//668 667//667 669//669
f 666//666 667//667 668//668
f 666//666 664//664 667//667
f 665//665 664//664 666//666
f 663//663 664//664 665//665
f 664//664 663//663 662//662
f 701//701 702//702 703//703
f 704//704 703//703 702//702
f 705//705 704//704 702//702
f 706//706 707//707 703//703
f 708//708 703//703 707//707
f 701//701 703//703 708//708
f 709//709 701//701 708//708
f 705//705 701//701 709//709
f 704//704 705//705 709//709
f 710//710 704//704 709//709
f 711//711 710//710 709//709
f 709//709 710//710 711//711
f 709//709 704//704 710//710
f 709//709 705//705 704//704
f 709//709 701//701 705//705
f 708//708 701//701 709//709
f 708//708 703//703 701//701
f 707//707 703//703 708//708
f 703//703 707//707 706//706
f 702//702 704//704 705//705
f 702//702 703//703 704//704
f 703//703 702//702 701//701
f 44//44 45//45 46//46
f 45//45 44//44 43//43
f 48//48 44//44 49//49
f 44//44 48//48 47//47
f 47//47 43//43 44//44
f 43//43 47//47 50//50
f 52//52 53//53 54//54
f 53//53 52//52 51//51
f 51//51 1//1 3//3
f 1//1 37//37 4//4
f 37//37 46//46 40//40
f 1//1 46//46 37//37
f 46//46 1//1 51//51
f 4//4 39//39 2//2
f 39//39 4//4 37//37
f 40//40 55//55 38//38
f 40//40 45//45 55//55
f 45//45 40//40 46//46
f 56//56 51//51 52//52
f 51//51 56//56 46//46
f 49//49 46//46 56//56
f 46//46 49//49 44//44
f 59//59 58//58 57//57
f 61//61 62//62 63//63
f 62//62 61//61 60//60
f 63//63 64//64 50//50
f 64//64 63//63 62//62
f 50//50 65//65 43//43
f 65//65 50//50 64//64
f 43//43 66//66 45//45
f 66//66 43//43 65//65
f 45//45 67//67 55//55
f 67//67 45//45 66//66
f 55//55 15//15 14//14
f 15//15 55//55 67//67
f 68//68 49//49 69//69
f 49//49 68//68 48//48
f 48//48 50//50 47//47
f 70//70 48//48 68//68
f 70//70 50//50 48//48
f 50//50 70//70 63//63
f 71//71 63//63 70//70
f 63//63 71//71 61//61
f 72//72 23//23 73//73
f 23//23 72//72 9//9
f 74//74 9//9 72//72
f 9//9 74//74 7//7
f 75//75 7//7 74//74
f 7//7 75//75 17//17
f 76//76 17//17 75//75
f 17//17 76//76 21//21
f 77//77 21//21 76//76
f 21//21 77//77 20//20
f 78//78 20//20 77//77
f 20//20 78//78 13//13
f 79//79 13//13 78//78
f 13//13 79//79 11//11
f 53//53 6//6 42//42
f 51//51 6//6 53//53
f 6//6 51//51 3//3
f 11//11 54//54 14//14
f 79//79 54//54 11//11
f 80//80 54//54 79//79
f 54//54 80//80 52//52
f 53//53 14//14 54//54
f 42//42 14//14 53//53
f 41//41 14//14 42//42
f 38//38 14//14 41//41
f 14//14 38//38 55//55
f 5//5 42//42 6//6
f 2//2 42//42 5//5
f 42//42 2//2 39//39
f 81//81 52//52 80//80
f 52//52 81//81 56//56
f 69//69 56//56 81//81
f 56//56 69//69 49//49
f 82//82 59//59 57//57
f 84//84 58//58 59//59
f 58//58 84//84 83//83
f 83//83 57//57 58//58
f 57//57 83//83 85//85
f 85//85 82//82 57//57
f 82//82 85//85 86//86
f 88//88 61//61 71//71
f 61//61 88//88 87//87
f 87//87 60//60 61//61
f 60//60 87//87 89//89
f 62//62 90//90 91//91
f 90//90 62//62 60//60
f 64//64 91//91 92//92
f 91//91 64//64 62//62
f 65//65 92//92 93//93
f 92//92 65//65 64//64
f 66//66 93//93 94//94
f 93//93 66//66 65//65
f 67//67 94//94 95//95
f 94//94 67//67 66//66
f 15//15 95//95 16//16
f 95//95 15//15 67//67
f 96//96 16//16 95//95
f 12//12 96//96 97//97
f 96//96 12//12 16//16
f 19//19 97//97 98//98
f 97//97 19//19 12//12
f 22//22 98//98 99//99
f 98//98 22//22 19//19
f 18//18 99//99 100//100
f 99//99 18//18 22//22
f 18//18 101//101 10//10
f 101//101 18//18 100//100
f 8//8 101//101 102//102
f 101//101 8//8 10//10
f 8//8 103//103 25//25
f 103//103 8//8 102//102
f 89//89 90//90 60//60
f 90//90 89//89 104//104
f 73//73 105//105 106//106
f 23//23 105//105 73//73
f 25//25 105//105 23//23
f 105//105 25//25 103//103
f 108//108 79//79 107//107
f 108//108 80//80 79//79
f 108//108 81//81 80//80
f 108//108 69//69 81//81
f 108//108 68//68 69//69
f 108//108 70//70 68//68
f 88//88 70//70 108//108
f 70//70 88//88 71//71
f 78//78 107//107 79//79
f 77//77 107//107 78//78
f 76//76 107//107 77//77
f 75//75 107//107 76//76
f 74//74 107//107 75//75
f 74//74 106//106 107//107
f 72//72 106//106 74//74
f 106//106 72//72 73//73
f 110//110 82//82 86//86
f 82//82 110//110 109//109
f 82//82 111//111 59//59
f 111//111 82//82 109//109
f 111//111 84//84 59//59
f 84//84 111//111 112//112
f 104//104 112//112 113//113
f 112//112 83//83 84//84
f 104//104 83//83 112//112
f 89//89 83//83 104//104
f 87//87 83//83 89//89
f 87//87 85//85 83//83
f 87//87 86//86 85//85
f 87//87 110//110 86//86
f 88//88 110//110 87//87
f 110//110 88//88 108//108
f 114//114 96//96 113//113
f 114//114 97//97 96//96
f 114//114 98//98 97//97
f 114//114 99//99 98//98
f 114//114 100//100 99//99
f 114//114 101//101 100//100
f 105//105 101//101 114//114
f 103//103 101//101 105//105
f 101//101 103//103 102//102
f 95//95 113//113 96//96
f 94//94 113//113 95//95
f 93//93 113//113 94//94
f 92//92 113//113 93//93
f 91//91 113//113 92//92
f 91//91 104//104 113//113
f 104//104 91//91 90//90
f 107//107 105//105 114//114
f 105//105 107//107 106//106
f 114//114 111//111 107//107
f 113//113 111//111 114//114
f 111//111 113//113 112//112
f 109//109 107//107 111//111
f 110//110 107//107 109//109
f 107//107 110//110 108//108
f 33//33 35//35 34//34
f 35//35 33//33 36//36