# https://github.com/mikedh/trimesh
v 0.02273500 -0.03309500 -0.01257800
v 0.02273500 -0.03121100 -0.01180900
v 0.02273500 -0.03121100 -0.01257800
v 0.02273500 -0.03309500 -0.01180900
v 0.00034500 -0.03121100 -0.01257800
v 0.00034500 -0.03121100 -0.01180900
v 0.02358600 -0.03394600 -0.01257800
v 0.02358600 -0.03036000 -0.01257800
v 0.00034500 -0.03394600 -0.01257800
v 0.00034500 -0.03309500 -0.01257800
v 0.00034500 -0.03036000 -0.01257800
v -0.02204500 -0.03121100 -0.01257800
v -0.02204500 -0.03121100 -0.01180900
v -0.02204500 -0.03309500 -0.01180900
v -0.02204500 -0.03309500 -0.01257800
v 0.00034500 -0.03309500 -0.01180900
v 0.02358600 -0.03036000 -0.01180900
v 0.02358600 -0.03394600 -0.01180900
v 0.00034500 -0.03036000 -0.01180900
v 0.00034500 -0.03394600 -0.01180900
v -0.02289600 -0.03394600 -0.01257800
v -0.02289600 -0.03036000 -0.01257800
v -0.02289600 -0.03036000 -0.01180900
v -0.02289600 -0.03394600 -0.01180900
v 0.05823000 -0.03036000 0.02078200
v 0.05823000 -0.03113600 0.02000600
v 0.05823000 -0.03036000 -0.02614300
v 0.05823000 -0.03317000 0.02000600
v 0.05823000 -0.03394600 0.02078200
v 0.05823000 -0.03317000 -0.02536700
v 0.05823000 -0.03113600 -0.02536700
v 0.05823000 -0.03394600 -0.02614300
v 0.05733300 -0.03036000 0.02078200
v 0.05733300 -0.03394600 0.02078200
v 0.05733300 -0.03394600 -0.02614300
v 0.05733300 -0.03036000 -0.02614300
v 0.05733300 -0.03113600 -0.02536700
v 0.05733300 -0.03317000 -0.02536700
v 0.05733300 -0.03317000 0.02000600
v 0.05733300 -0.03113600 0.02000600
v -0.05621200 -0.03036000 0.02143500
v -0.05621200 -0.03117100 0.02062300
v -0.05621200 -0.03036000 -0.02549000
v -0.05621200 -0.03313500 0.02062300
v -0.05621200 -0.03394600 0.02143500
v -0.05621200 -0.03313500 -0.02467900
v -0.05621200 -0.03117100 -0.02467900
v -0.05621200 -0.03394600 -0.02549000
v -0.05710900 -0.03036000 -0.02549000
v -0.05710900 -0.03117100 -0.02467900
v -0.05710900 -0.03036000 0.02143500
v -0.05710900 -0.03313500 -0.02467900
v -0.05710900 -0.03394600 -0.02549000
v -0.05710900 -0.03313500 0.02062300
v -0.05710900 -0.03117100 0.02062300
v -0.05710900 -0.03394600 0.02143500
v -0.10590000 -0.02619700 -0.03251200
v -0.09261900 -0.02619700 -0.02892500
v -0.10590000 -0.02619700 -0.02892500
v -0.09261900 -0.02619700 -0.03251200
v -0.09261900 -0.02198200 -0.03251200
v -0.09261900 -0.02198200 -0.02892500
v -0.10590000 -0.02198200 -0.02892500
v -0.10590000 -0.02198200 -0.03251200
v -0.10590000 0.02755900 -0.03251200
v -0.09261900 0.02755900 -0.02892500
v -0.10590000 0.02755900 -0.02892500
v -0.09261900 0.02755900 -0.03251200
v -0.09261900 0.03177300 -0.03251200
v -0.09261900 0.03177300 -0.02892500
v -0.10590000 0.03177300 -0.02892500
v -0.10590000 0.03177300 -0.03251200
v 0.09331000 -0.02619700 -0.03251200
v 0.10659000 -0.02619700 -0.02892500
v 0.09331000 -0.02619700 -0.02892500
v 0.10659000 -0.02619700 -0.03251200
v 0.10659000 -0.02198200 -0.03251200
v 0.10659000 -0.02198200 -0.02892500
v 0.09331000 -0.02198200 -0.02892500
v 0.09331000 -0.02198200 -0.03251200
v 0.09331000 0.02755900 -0.03251200
v 0.10659000 0.02755900 -0.02892500
v 0.09331000 0.02755900 -0.02892500
v 0.10659000 0.02755900 -0.03251200
v 0.10659000 0.03177300 -0.03251200
v 0.10659000 0.03177300 -0.02892500
v 0.09331000 0.03177300 -0.02892500
v 0.09331000 0.03177300 -0.03251200
v -0.01293500 -0.02619700 -0.03251200
v -0.01293500 -0.02198200 -0.02892500
v -0.01293500 -0.02198200 -0.03251200
v -0.01293500 -0.02619700 -0.02892500
v 0.01362600 -0.02619700 -0.02892500
v 0.01362600 -0.02619700 -0.03251200
v 0.01362600 -0.02198200 -0.03251200
v 0.01362600 -0.02198200 -0.02892500
v -0.01293500 0.02755900 -0.03251200
v -0.01293500 0.03177300 -0.02892500
v -0.01293500 0.03177300 -0.03251200
v -0.01293500 0.02755900 -0.02892500
v 0.01362600 0.02755900 -0.02892500
v 0.01362600 0.02755900 -0.03251200
v 0.01362600 0.03177300 -0.03251200
v 0.01362600 0.03177300 -0.02892500
v 0.09108000 -0.03037800 0.02394500
v 0.09112000 -0.03037800 0.02384900
v 0.09112000 -0.03037800 0.02404200
v 0.09121600 -0.03037800 0.02408500
v 0.09121600 -0.03037800 0.02380800
v 0.09269400 -0.03037800 0.02408500
v 0.09181700 -0.03037800 0.02380800
v 0.09209300 -0.03037800 0.02380800
v 0.09181700 -0.03037800 0.02214200
v 0.09269400 -0.03037800 0.02380800
v 0.09279000 -0.03037800 0.02404200
v 0.09279000 -0.03037800 0.02384900
v 0.09283000 -0.03037800 0.02394500
v 0.09108000 -0.03037800 0.02200600
v 0.09112000 -0.03037800 0.02191000
v 0.09112000 -0.03037800 0.02210100
v 0.09121600 -0.03037800 0.02214200
v 0.09121600 -0.03037800 0.02186900
v 0.09269400 -0.03037800 0.02186900
v 0.09209300 -0.03037800 0.02214200
v 0.09269400 -0.03037800 0.02214200
v 0.09279000 -0.03037800 0.02210100
v 0.09279000 -0.03037800 0.02191000
v 0.09283000 -0.03037800 0.02200600
v 0.09347100 -0.03037800 0.02289800
v 0.09357100 -0.03037800 0.02247400
v 0.09358800 -0.03037800 0.02297500
v 0.09357500 -0.03037800 0.02254800
v 0.09359400 -0.03037800 0.02261900
v 0.09372400 -0.03037800 0.02302900
v 0.09363600 -0.03037800 0.02267800
v 0.09370000 -0.03037800 0.02272400
v 0.09386400 -0.03037800 0.02278100
v 0.09387700 -0.03037800 0.02306100
v 0.09404200 -0.03037800 0.02280200
v 0.09419300 -0.03037800 0.02308300
v 0.09419200 -0.03037800 0.02280600
v 0.09433700 -0.03037800 0.02280200
v 0.09451900 -0.03037800 0.02306100
v 0.09450800 -0.03037800 0.02278300
v 0.09466900 -0.03037800 0.02273200
v 0.09468000 -0.03037800 0.02302600
v 0.09477800 -0.03037800 0.02263800
v 0.09482500 -0.03037800 0.02296200
v 0.09480500 -0.03037800 0.02255800
v 0.09480900 -0.03037800 0.02247400
v 0.09482100 -0.03037800 0.02307900
v 0.09482300 -0.03037800 0.02302100
v 0.09483400 -0.03037800 0.02340400
v 0.09504200 -0.03037800 0.02408500
v 0.09509700 -0.03037800 0.02307100
v 0.09514000 -0.03037800 0.02404200
v 0.09511900 -0.03037800 0.02349800
v 0.09517900 -0.03037800 0.02392100
v 0.09518300 -0.03037800 0.02394400
v 0.09518100 -0.03037800 0.02393300
v 0.09329900 -0.03037800 0.02247400
v 0.09331900 -0.03037800 0.02229500
v 0.09331900 -0.03037800 0.02265300
v 0.09337900 -0.03037800 0.02215600
v 0.09337900 -0.03037800 0.02279200
v 0.09347100 -0.03037800 0.02205100
v 0.09358800 -0.03037800 0.02197300
v 0.09357500 -0.03037800 0.02240000
v 0.09359400 -0.03037800 0.02232900
v 0.09372400 -0.03037800 0.02192000
v 0.09363600 -0.03037800 0.02227000
v 0.09370000 -0.03037800 0.02222400
v 0.09386400 -0.03037800 0.02216700
v 0.09387600 -0.03037800 0.02188900
v 0.09404200 -0.03037800 0.02214500
v 0.09419200 -0.03037800 0.02186900
v 0.09419200 -0.03037800 0.02214200
v 0.09433700 -0.03037800 0.02214500
v 0.09441700 -0.03037800 0.02187900
v 0.09450800 -0.03037800 0.02216500
v 0.09464700 -0.03037800 0.02191800
v 0.09466900 -0.03037800 0.02221600
v 0.09485300 -0.03037800 0.02200800
v 0.09477800 -0.03037800 0.02231000
v 0.09480500 -0.03037800 0.02239000
v 0.09487100 -0.03037800 0.02373000
v 0.09494000 -0.03037800 0.02207700
v 0.09488500 -0.03037800 0.02385300
v 0.09491100 -0.03037800 0.02397200
v 0.09495700 -0.03037800 0.02405300
v 0.09500800 -0.03037800 0.02216600
v 0.09510700 -0.03037800 0.02203900
v 0.09510700 -0.03037800 0.02280600
v 0.09515900 -0.03037800 0.02249900
v 0.09522800 -0.03037800 0.02194500
v 0.09521300 -0.03037800 0.02236300
v 0.09528800 -0.03037800 0.02224700
v 0.09536800 -0.03037800 0.02188800
v 0.09539100 -0.03037800 0.02216800
v 0.09552600 -0.03037800 0.02186900
v 0.09552600 -0.03037800 0.02214200
v 0.09685600 -0.03037800 0.02214200
v 0.09685600 -0.03037800 0.02186900
v 0.09692500 -0.03037800 0.02214400
v 0.09710600 -0.03037800 0.02190100
v 0.09700700 -0.03037800 0.02215300
v 0.09708500 -0.03037800 0.02217700
v 0.09714100 -0.03037800 0.02222000
v 0.09722300 -0.03037800 0.02194500
v 0.09720400 -0.03037800 0.02227400
v 0.09726200 -0.03037800 0.02229000
v 0.09732400 -0.03037800 0.02201700
v 0.09735800 -0.03037800 0.02224900
v 0.09735800 -0.03037800 0.02204800
v 0.09739900 -0.03037800 0.02215300
v 0.09738300 -0.03037800 0.02208700
v 0.09701300 -0.03037800 0.02247400
v 0.09703300 -0.03037800 0.02229500
v 0.09703300 -0.03037800 0.02265300
v 0.09709300 -0.03037800 0.02279200
v 0.09709300 -0.03037800 0.02215600
v 0.09718500 -0.03037800 0.02289800
v 0.09718500 -0.03037800 0.02205100
v 0.09730200 -0.03037800 0.02297500
v 0.09728600 -0.03037800 0.02247400
v 0.09729100 -0.03037800 0.02255600
v 0.09731700 -0.03037800 0.02263400
v 0.09743900 -0.03037800 0.02302900
v 0.09736200 -0.03037800 0.02268900
v 0.09742600 -0.03037800 0.02273000
v 0.09758600 -0.03037800 0.02278100
v 0.09759100 -0.03037800 0.02306100
v 0.09776000 -0.03037800 0.02280200
v 0.09790700 -0.03037800 0.02308300
v 0.09790600 -0.03037800 0.02280600
v 0.09802700 -0.03037800 0.02280600
v 0.09817000 -0.03037800 0.02307700
v 0.09818900 -0.03037800 0.02279900
v 0.09844500 -0.03037800 0.02303000
v 0.09834500 -0.03037800 0.02277300
v 0.09844800 -0.03037800 0.02271600
v 0.09856400 -0.03037800 0.02297800
v 0.09853300 -0.03037800 0.02245200
v 0.09863400 -0.03037800 0.02249700
v 0.09866100 -0.03037800 0.02290100
v 0.09871600 -0.03037800 0.02256200
v 0.09872700 -0.03037800 0.02279500
v 0.09874900 -0.03037800 0.02265000
v 0.09730200 -0.03037800 0.02197300
v 0.09729800 -0.03037800 0.02237600
v 0.09764700 -0.03037800 0.02247000
v 0.09743900 -0.03037800 0.02192000
v 0.09758300 -0.03037800 0.02217000
v 0.09801600 -0.03037800 0.02228900
v 0.09799600 -0.03037800 0.02257200
v 0.09822200 -0.03037800 0.02263800
v 0.09844100 -0.03037800 0.02242300
v 0.09759100 -0.03037800 0.02188900
v 0.09774300 -0.03037800 0.02214800
v 0.09790700 -0.03037800 0.02186900
v 0.09790700 -0.03037800 0.02214200
v 0.09986500 -0.03037800 0.02214200
v 0.09986500 -0.03037800 0.02186900
v 0.09993300 -0.03037800 0.02214400
v 0.10011500 -0.03037800 0.02190100
v 0.10001500 -0.03037800 0.02215300
v 0.10009300 -0.03037800 0.02217700
v 0.10015000 -0.03037800 0.02222000
v 0.10023200 -0.03037800 0.02194500
v 0.10021200 -0.03037800 0.02227400
v 0.10027100 -0.03037800 0.02229000
v 0.10033300 -0.03037800 0.02201700
v 0.10036600 -0.03037800 0.02224900
v 0.10036600 -0.03037800 0.02204800
v 0.10039100 -0.03037800 0.02208700
v 0.10040700 -0.03037800 0.02215300
v 0.10184200 -0.03037800 0.02284500
v 0.10184600 -0.03037800 0.02293300
v 0.10180900 -0.03037800 0.02311600
v 0.10185000 -0.03037800 0.02302100
v 0.10002100 -0.03037800 0.02247400
v 0.10004100 -0.03037800 0.02229500
v 0.10004100 -0.03037800 0.02265300
v 0.10010100 -0.03037800 0.02279200
v 0.10010100 -0.03037800 0.02215600
v 0.10019300 -0.03037800 0.02289800
v 0.10019300 -0.03037800 0.02205100
v 0.10030900 -0.03037800 0.02297500
v 0.10029400 -0.03037800 0.02247400
v 0.10029700 -0.03037800 0.02254800
v 0.10031600 -0.03037800 0.02261900
v 0.10044600 -0.03037800 0.02302900
v 0.10035800 -0.03037800 0.02267800
v 0.10042200 -0.03037800 0.02272400
v 0.10058600 -0.03037800 0.02278100
v 0.10059800 -0.03037800 0.02306100
v 0.10076300 -0.03037800 0.02280200
v 0.10091400 -0.03037800 0.02308300
v 0.10091300 -0.03037800 0.02280600
v 0.10105700 -0.03037800 0.02280200
v 0.10125100 -0.03037800 0.02305900
v 0.10122900 -0.03037800 0.02278300
v 0.10138900 -0.03037800 0.02273200
v 0.10141900 -0.03037800 0.02301900
v 0.10149900 -0.03037800 0.02263800
v 0.10156900 -0.03037800 0.02294700
v 0.10152600 -0.03037800 0.02255800
v 0.10153000 -0.03037800 0.02247400
v 0.10155900 -0.03037800 0.02199800
v 0.10164600 -0.03037800 0.02206200
v 0.10157500 -0.03037800 0.02302100
v 0.10159400 -0.03037800 0.02308900
v 0.10163700 -0.03037800 0.02313800
v 0.10171300 -0.03037800 0.02315700
v 0.10171700 -0.03037800 0.02214600
v 0.10180800 -0.03037800 0.02202500
v 0.10191900 -0.03037800 0.02193900
v 0.10185400 -0.03037800 0.02263800
v 0.10190200 -0.03037800 0.02240500
v 0.10201000 -0.03037800 0.02221800
v 0.10204800 -0.03037800 0.02188700
v 0.10209200 -0.03037800 0.02216100
v 0.10219700 -0.03037800 0.02186900
v 0.10219700 -0.03037800 0.02214200
v 0.10346500 -0.03037800 0.02214200
v 0.10346500 -0.03037800 0.02186900
v 0.10353300 -0.03037800 0.02214400
v 0.10371500 -0.03037800 0.02190100
v 0.10361500 -0.03037800 0.02215300
v 0.10369300 -0.03037800 0.02217700
v 0.10375000 -0.03037800 0.02222000
v 0.10383100 -0.03037800 0.02194500
v 0.10381200 -0.03037800 0.02227400
v 0.10387100 -0.03037800 0.02229000
v 0.10393300 -0.03037800 0.02201700
v 0.10396600 -0.03037800 0.02224900
v 0.10396600 -0.03037800 0.02204800
v 0.10400700 -0.03037800 0.02215300
v 0.10399100 -0.03037800 0.02208700
v 0.10031000 -0.03037800 0.02197300
v 0.10029700 -0.03037800 0.02240000
v 0.10031600 -0.03037800 0.02232900
v 0.10044600 -0.03037800 0.02192000
v 0.10035800 -0.03037800 0.02227000
v 0.10042200 -0.03037800 0.02222400
v 0.10058600 -0.03037800 0.02216700
v 0.10059800 -0.03037800 0.02188900
v 0.10076300 -0.03037800 0.02214500
v 0.10091400 -0.03037800 0.02186900
v 0.10091300 -0.03037800 0.02214200
v 0.10105700 -0.03037800 0.02214500
v 0.10113000 -0.03037800 0.02187700
v 0.10122900 -0.03037800 0.02216500
v 0.10135400 -0.03037800 0.02191400
v 0.10138900 -0.03037800 0.02221600
v 0.10149900 -0.03037800 0.02231000
v 0.10152600 -0.03037800 0.02239000
v -0.04613700 -0.03036000 0.00377000
v 0.00034500 -0.03036000 0.00377000
v -0.04613700 -0.03036000 -0.02562900
v 0.00034500 -0.03036000 -0.02562900
v 0.04682700 -0.03036000 0.00377000
v 0.04682700 -0.03036000 -0.02562900
v -0.05110900 0.02343500 0.02320100
v -0.04327600 0.02343500 0.01536800
v -0.00132300 0.02343500 0.02320100
v -0.04327600 0.02343500 0.01327100
v -0.05110900 0.02343500 0.00543800
v -0.00915700 0.02343500 0.01327100
v -0.00915700 0.02343500 0.01536800
v -0.00132300 0.02343500 0.00543800
v 0.00197400 0.02343500 0.02324100
v 0.00984700 0.02343500 0.01536800
v 0.05183900 0.02343500 0.02324100
v 0.00984700 0.02343500 0.01327100
v 0.00197400 0.02343500 0.00539800
v 0.04396600 0.02343500 0.01327100
v 0.04396600 0.02343500 0.01536800
v 0.05183900 0.02343500 0.00539800
v 0.10659000 -0.03036000 -0.02892500
v 0.05346800 -0.03036000 -0.02892500
v 0.10659000 0.03493600 -0.02892500
v -0.05277700 -0.03036000 -0.02892500
v -0.10590000 0.03493600 -0.02892500
v -0.10590000 -0.03036000 -0.02892500
v 0.10358500 -0.03036000 0.00311700
v 0.10358500 -0.03036000 0.02078200
v 0.10358500 -0.03036000 -0.02614300
v -0.10246500 -0.03036000 -0.02549000
v -0.10246500 -0.03036000 0.02143500
v 0.10659000 0.03493600 0.02487000
v 0.10659000 -0.03036000 0.02487000
v 0.05346800 -0.03036000 0.02487000
v -0.05277700 -0.03036000 0.02487000
v 0.00197400 -0.03036000 0.02324100
v -0.05110900 -0.03036000 0.02320100
v -0.05110900 -0.03036000 0.00543800
v 0.00197400 -0.03036000 0.00539800
v -0.00132300 -0.03036000 0.00543800
v 0.05183900 -0.03036000 0.00539800
v 0.05183900 -0.03036000 0.02324100
v -0.00132300 -0.03036000 0.02320100
v -0.10590000 -0.03036000 0.02487000
v -0.10590000 0.03493600 0.02487000
v 0.00984700 0.03493600 0.01327100
v -0.00915700 0.03493600 0.01536800
v 0.00984700 0.03493600 0.01536800
v -0.00915700 0.03493600 0.01327100
v 0.04396600 0.03493600 0.01536800
v 0.04396600 0.03493600 0.01327100
v -0.04327600 0.03493600 0.01327100
v -0.04327600 0.03493600 0.01536800
vn -0.30151134 0.30151134 -0.90453403
vn -0.30151134 -0.30151134 0.90453403
vn -0.30151134 -0.30151134 -0.90453403
vn -0.30151134 0.30151134 0.90453403
vn 0.00000000 -0.70710678 -0.70710678
vn 0.00000000 -0.70710678 0.70710678
vn 0.57735027 -0.57735027 -0.57735027
vn 0.30151134 -0.90453403 -0.30151134
vn 0.00000000 -0.70710678 -0.70710678
vn 0.00000000 0.70710678 -0.70710678
vn 0.00000000 -0.70710678 -0.70710678
vn 0.30151134 -0.30151134 -0.90453403
vn 0.30151134 -0.30151134 0.90453403
vn 0.30151134 0.30151134 0.90453403
vn 0.30151134 0.30151134 -0.90453403
vn 0.00000000 0.70710678 0.70710678
vn 0.30151134 -0.90453403 0.30151134
vn 0.57735027 -0.57735027 0.57735027
vn 0.00000000 -0.70710678 0.70710678
vn 0.00000000 -0.70710678 0.70710678
vn -0.57735027 -0.57735027 -0.57735027
vn -0.30151134 -0.90453403 -0.30151134
vn -0.30151134 -0.90453403 0.30151134
vn -0.57735027 -0.57735027 0.57735027
vn 0.30151134 -0.90453403 0.30151134
vn 0.90453403 -0.30151134 -0.30151134
vn 0.57735027 -0.57735027 -0.57735027
vn 0.90453403 0.30151134 -0.30151134
vn 0.57735027 -0.57735027 0.57735027
vn 0.90453403 0.30151134 0.30151134
vn 0.90453403 -0.30151134 0.30151134
vn 0.57735027 -0.57735027 -0.57735027
vn -0.30151134 -0.90453403 0.30151134
vn -0.57735027 -0.57735027 0.57735027
vn -0.57735027 -0.57735027 -0.57735027
vn -0.30151134 -0.90453403 -0.30151134
vn -0.90453403 -0.30151134 0.30151134
vn -0.90453403 0.30151134 0.30151134
vn -0.90453403 0.30151134 -0.30151134
vn -0.90453403 -0.30151134 -0.30151134
vn 0.30151134 -0.90453403 0.30151134
vn 0.90453403 -0.30151134 -0.30151134
vn 0.30151134 -0.90453403 -0.30151134
vn 0.90453403 0.30151134 -0.30151134
vn 0.57735027 -0.57735027 0.57735027
vn 0.90453403 0.30151134 0.30151134
vn 0.90453403 -0.30151134 0.30151134
vn 0.57735027 -0.57735027 -0.57735027
vn -0.57735027 -0.57735027 -0.57735027
vn -0.90453403 -0.30151134 0.30151134
vn -0.30151134 -0.90453403 0.30151134
vn -0.90453403 0.30151134 0.30151134
vn -0.57735027 -0.57735027 -0.57735027
vn -0.90453403 0.30151134 -0.30151134
vn -0.90453403 -0.30151134 -0.30151134
vn -0.57735027 -0.57735027 0.57735027
vn -0.57735027 -0.57735027 -0.57735027
vn 0.23570226 -0.23570226 -0.94280904
vn -0.80178373 -0.26726124 -0.53452248
vn 0.57735027 -0.57735027 -0.57735027
vn 0.57735027 0.57735027 -0.57735027
vn 0.23570226 0.23570226 -0.94280904
vn -0.80178373 0.26726124 -0.53452248
vn -0.57735027 0.57735027 -0.57735027
vn -0.57735027 -0.57735027 -0.57735027
vn 0.23570226 -0.23570226 -0.94280904
vn -0.80178373 -0.26726124 -0.53452248
vn 0.57735027 -0.57735027 -0.57735027
vn 0.57735027 0.57735027 -0.57735027
vn 0.23570226 0.23570226 -0.94280904
vn -0.80178373 0.26726124 -0.53452248
vn -0.57735027 0.57735027 -0.57735027
vn -0.57735027 -0.57735027 -0.57735027
vn 0.80178373 -0.26726124 -0.53452248
vn -0.23570226 -0.23570226 -0.94280904
vn 0.57735027 -0.57735027 -0.57735027
vn 0.57735027 0.57735027 -0.57735027
vn 0.80178373 0.26726124 -0.53452248
vn -0.40824829 0.40824829 -0.81649658
vn -0.57735027 0.57735027 -0.57735027
vn -0.57735027 -0.57735027 -0.57735027
vn 0.80178373 -0.26726124 -0.53452248
vn -0.40824829 -0.40824829 -0.81649658
vn 0.57735027 -0.57735027 -0.57735027
vn 0.57735027 0.57735027 -0.57735027
vn 0.80178373 0.26726124 -0.53452248
vn -0.23570226 0.23570226 -0.94280904
vn -0.57735027 0.57735027 -0.57735027
vn -0.57735027 -0.57735027 -0.57735027
vn -0.57735027 0.57735027 -0.57735027
vn -0.57735027 0.57735027 -0.57735027
vn -0.30151134 -0.30151134 -0.90453403
vn 0.30151134 -0.30151134 -0.90453403
vn 0.57735027 -0.57735027 -0.57735027
vn 0.57735027 0.57735027 -0.57735027
vn 0.30151134 0.30151134 -0.90453403
vn -0.57735027 -0.57735027 -0.57735027
vn -0.30151134 0.30151134 -0.90453403
vn -0.57735027 0.57735027 -0.57735027
vn -0.57735027 -0.57735027 -0.57735027
vn 0.30151134 -0.30151134 -0.90453403
vn 0.57735027 -0.57735027 -0.57735027
vn 0.57735027 0.57735027 -0.57735027
vn 0.30151134 0.30151134 -0.90453403
vn 0.00000000 0.00000000 0.00000000
vn 0.00000000 0.00000000 0.00000000
vn 0.00000000 0.00000000 0.00000000
vn 0.00000000 0.00000000 0.00000000
vn 0.00000000 0.00000000 0.00000000
vn 0.00000000 -0.00000000 0.00000000
vn 0.00000000 -0.00000000 0.00000000
vn 0.00000000 0.00000000 0.00000000
vn 0.00000000 0.00000000 0.00000000
vn 0.00000000 -0.00000000 0.00000000
vn 0.00000000 0.00000000 0.00000000
vn 0.00000000 0.00000000 0.00000000
vn 0.00000000 0.00000000 0.00000000
vn 0.00000000 0.00000000 0.00000000
vn 0.00000000 0.00000000 0.00000000
vn 0.00000000 -0.00000000 0.00000000
vn 0.00000000 0.00000000 0.00000000
vn 0.00000000 -0.00000000 0.00000000
vn 0.00000000 0.00000000 0.00000000
vn 0.00000000 -0.00000000 0.00000000
vn 0.00000000 0.00000000 0.00000000
vn 0.00000000 -0.00000000 0.00000000
vn 0.00000000 0.00000000 0.00000000
vn 0.00000000 -0.00000000 0.00000000
vn 0.00000000 0.00000000 0.00000000
vn 0.00000000 -0.00000000 0.00000000
vn 0.00000000 -0.00000000 0.00000000
vn 0.00000000 0.00000000 0.00000000
vn 0.00000000 0.00000000 0.00000000
vn 0.00000000 0.00000000 0.00000000
vn 0.00000000 -0.00000000 0.00000000
vn 0.00000000 -0.00000000 0.00000000
vn 0.00000000 -0.00000000 0.00000000
vn 0.00000000 0.00000000 0.00000000
vn 0.00000000 -0.00000000 0.00000000
vn 0.00000000 0.00000000 0.00000000
vn 0.00000000 0.00000000 0.00000000
vn 0.00000000 0.00000000 0.00000000
vn 0.00000000 -0.00000000 0.00000000
vn 0.00000000 0.00000000 0.00000000
vn 0.00000000 0.00000000 0.00000000
vn 0.00000000 0.00000000 0.00000000
vn 0.00000000 -0.00000000 0.00000000
vn 0.00000000 0.00000000 0.00000000
vn 0.00000000 -0.00000000 0.00000000
vn 0.00000000 0.00000000 0.00000000
vn 0.00000000 -0.00000000 0.00000000
vn 0.00000000 -0.00000000 0.00000000
vn 0.00000000 0.00000000 0.00000000
vn 0.00000000 -0.00000000 0.00000000
vn 0.00000000 0.00000000 0.00000000
vn 0.00000000 -0.00000000 0.00000000
vn 0.00000000 -0.00000000 0.00000000
vn 0.00000000 0.00000000 0.00000000
vn 0.00000000 0.00000000 0.00000000
vn 0.00000000 -0.00000000 0.00000000
vn 0.00000000 -0.00000000 0.00000000
vn 0.00000000 0.00000000 0.00000000
vn 0.00000000 0.00000000 0.00000000
vn 0.00000000 -0.00000000 0.00000000
vn 0.00000000 -0.00000000 0.00000000
vn 0.00000000 0.00000000 0.00000000
vn 0.00000000 -0.00000000 0.00000000
vn 0.00000000 0.00000000 0.00000000
vn 0.00000000 -0.00000000 0.00000000
vn 0.00000000 -0.00000000 0.00000000
vn 0.00000000 0.00000000 0.00000000
vn 0.00000000 0.00000000 0.00000000
vn 0.00000000 0.00000000 0.00000000
vn 0.00000000 0.00000000 0.00000000
vn 0.00000000 -0.00000000 0.00000000
vn 0.00000000 0.00000000 0.00000000
vn 0.00000000 -0.00000000 0.00000000
vn 0.00000000 -0.00000000 0.00000000
vn 0.00000000 -0.00000000 0.00000000
vn 0.00000000 0.00000000 0.00000000
vn 0.00000000 0.00000000 0.00000000
vn 0.00000000 0.00000000 0.00000000
vn 0.00000000 -0.00000000 0.00000000
vn 0.00000000 -0.00000000 0.00000000
vn 0.00000000 0.00000000 0.00000000
vn 0.00000000 0.00000000 0.00000000
vn 0.00000000 0.00000000 0.00000000
vn 0.00000000 -0.00000000 0.00000000
vn 0.00000000 -0.00000000 0.00000000
vn 0.00000000 0.00000000 0.00000000
vn 0.00000000 0.00000000 0.00000000
vn 0.00000000 -0.00000000 0.00000000
vn 0.00000000 0.00000000 0.00000000
vn 0.00000000 -0.00000000 0.00000000
vn 0.00000000 0.00000000 0.00000000
vn 0.00000000 -0.00000000 0.00000000
vn 0.00000000 -0.00000000 0.00000000
vn 0.00000000 0.00000000 0.00000000
vn 0.00000000 -0.00000000 0.00000000
vn 0.00000000 -0.00000000 0.00000000
vn 0.00000000 -0.00000000 0.00000000
vn 0.00000000 0.00000000 0.00000000
vn 0.00000000 0.00000000 0.00000000
vn 0.00000000 -0.00000000 0.00000000
vn 0.00000000 -0.00000000 0.00000000
vn 0.00000000 0.00000000 0.00000000
vn 0.00000000 0.00000000 0.00000000
vn 0.00000000 0.00000000 0.00000000
vn 0.00000000 0.00000000 0.00000000
vn 0.00000000 0.00000000 0.00000000
vn 0.00000000 -0.00000000 0.00000000
vn 0.00000000 -0.00000000 0.00000000
vn 0.00000000 -0.00000000 0.00000000
vn 0.00000000 0.00000000 0.00000000
vn 0.00000000 -0.00000000 0.00000000
vn 0.00000000 -0.00000000 0.00000000
vn 0.00000000 -0.00000000 0.00000000
vn 0.00000000 0.00000000 0.00000000
vn 0.00000000 0.00000000 0.00000000
vn 0.00000000 -0.00000000 0.00000000
vn 0.00000000 0.00000000 0.00000000
vn 0.00000000 -0.00000000 0.00000000
vn 0.00000000 -0.00000000 0.00000000
vn 0.00000000 0.00000000 0.00000000
vn 0.00000000 0.00000000 0.00000000
vn 0.00000000 -0.00000000 0.00000000
vn 0.00000000 0.00000000 0.00000000
vn 0.00000000 -0.00000000 0.00000000
vn 0.00000000 -0.00000000 0.00000000
vn 0.00000000 0.00000000 0.00000000
vn 0.00000000 -0.00000000 0.00000000
vn 0.00000000 0.00000000 0.00000000
vn 0.00000000 0.00000000 0.00000000
vn 0.00000000 0.00000000 0.00000000
vn 0.00000000 -0.00000000 0.00000000
vn 0.00000000 -0.00000000 0.00000000
vn 0.00000000 0.00000000 0.00000000
vn 0.00000000 0.00000000 0.00000000
vn 0.00000000 -0.00000000 0.00000000
vn 0.00000000 -0.00000000 0.00000000
vn 0.00000000 0.00000000 0.00000000
vn 0.00000000 -0.00000000 0.00000000
vn 0.00000000 0.00000000 0.00000000
vn 0.00000000 -0.00000000 0.00000000
vn 0.00000000 0.00000000 0.00000000
vn 0.00000000 0.00000000 0.00000000
vn 0.00000000 -0.00000000 0.00000000
vn 0.00000000 -0.00000000 0.00000000
vn 0.00000000 -0.00000000 0.00000000
vn 0.00000000 0.00000000 0.00000000
vn 0.00000000 0.00000000 0.00000000
vn 0.00000000 0.00000000 0.00000000
vn 0.00000000 0.00000000 0.00000000
vn 0.00000000 -0.00000000 0.00000000
vn 0.00000000 0.00000000 0.00000000
vn 0.00000000 0.00000000 0.00000000
vn 0.00000000 0.00000000 0.00000000
vn 0.00000000 0.00000000 0.00000000
vn 0.00000000 0.00000000 0.00000000
vn 0.00000000 0.00000000 0.00000000
vn 0.00000000 -0.00000000 0.00000000
vn 0.00000000 0.00000000 0.00000000
vn 0.00000000 0.00000000 0.00000000
vn 0.00000000 -0.00000000 0.00000000
vn 0.00000000 0.00000000 0.00000000
vn 0.00000000 -0.00000000 0.00000000
vn 0.00000000 -0.00000000 0.00000000
vn 0.00000000 0.00000000 0.00000000
vn 0.00000000 -0.00000000 0.00000000
vn 0.00000000 0.00000000 0.00000000
vn 0.00000000 0.00000000 0.00000000
vn 0.00000000 -0.00000000 0.00000000
vn 0.00000000 0.00000000 0.00000000
vn 0.00000000 0.00000000 0.00000000
vn 0.00000000 0.00000000 0.00000000
vn 0.00000000 -0.00000000 0.00000000
vn 0.00000000 0.00000000 0.00000000
vn 0.00000000 0.00000000 0.00000000
vn 0.00000000 0.00000000 0.00000000
vn 0.00000000 0.00000000 0.00000000
vn 0.00000000 0.00000000 0.00000000
vn 0.00000000 0.00000000 0.00000000
vn 0.00000000 -0.00000000 0.00000000
vn 0.00000000 -0.00000000 0.00000000
vn 0.00000000 0.00000000 0.00000000
vn 0.00000000 -0.00000000 0.00000000
vn 0.00000000 -0.00000000 0.00000000
vn 0.00000000 0.00000000 0.00000000
vn 0.00000000 -1.00000000 0.00000000
vn 0.00000000 1.00000000 0.00000000
vn 0.00000000 0.00000000 0.00000000
vn 0.00000000 0.00000000 0.00000000
vn 0.00000000 0.00000000 0.00000000
vn 0.00000000 -0.00000000 0.00000000
vn 0.00000000 -0.00000000 0.00000000
vn 0.00000000 0.00000000 0.00000000
vn 0.00000000 -0.00000000 0.00000000
vn 0.00000000 0.00000000 0.00000000
vn 0.00000000 0.00000000 0.00000000
vn 0.00000000 0.00000000 0.00000000
vn 0.00000000 0.00000000 0.00000000
vn 0.00000000 -0.00000000 0.00000000
vn 0.00000000 0.00000000 0.00000000
vn 0.00000000 0.00000000 0.00000000
vn 0.00000000 -0.00000000 0.00000000
vn 0.00000000 -0.00000000 0.00000000
vn 0.00000000 -0.00000000 0.00000000
vn 0.00000000 0.00000000 0.00000000
vn 0.00000000 -0.00000000 0.00000000
vn 0.00000000 0.00000000 0.00000000
vn 0.00000000 -0.00000000 0.00000000
vn 0.00000000 -0.00000000 0.00000000
vn 0.00000000 -0.00000000 0.00000000
vn 0.00000000 -0.00000000 0.00000000
vn 0.00000000 -0.00000000 0.00000000
vn 0.00000000 0.00000000 0.00000000
vn 0.00000000 0.00000000 0.00000000
vn 0.00000000 -0.00000000 0.00000000
vn 0.00000000 -0.00000000 0.00000000
vn 0.00000000 -0.00000000 0.00000000
vn 0.00000000 0.00000000 0.00000000
vn 0.00000000 -0.00000000 0.00000000
vn 0.00000000 0.00000000 0.00000000
vn 0.00000000 -0.00000000 0.00000000
vn 0.00000000 0.00000000 0.00000000
vn 0.00000000 0.00000000 0.00000000
vn 0.00000000 -0.00000000 0.00000000
vn 0.00000000 0.00000000 0.00000000
vn 0.00000000 -0.00000000 0.00000000
vn 0.00000000 -0.00000000 0.00000000
vn 0.00000000 -0.00000000 0.00000000
vn 0.00000000 0.00000000 0.00000000
vn 0.00000000 -0.00000000 0.00000000
vn 0.00000000 0.00000000 0.00000000
vn 0.00000000 0.00000000 0.00000000
vn 0.00000000 -0.00000000 0.00000000
vn 0.00000000 0.00000000 0.00000000
vn 0.00000000 -0.00000000 0.00000000
vn 0.00000000 -0.00000000 0.00000000
vn 0.00000000 0.00000000 0.00000000
vn 0.00000000 -0.00000000 0.00000000
vn 0.00000000 0.00000000 0.00000000
vn 0.00000000 0.00000000 0.00000000
vn 0.00000000 -0.00000000 0.00000000
vn 0.00000000 -0.00000000 0.00000000
vn 0.00000000 -0.00000000 0.00000000
vn 0.00000000 -0.00000000 0.00000000
vn 0.00000000 -0.00000000 0.00000000
vn 0.00000000 -0.00000000 0.00000000
vn 0.00000000 -0.00000000 0.00000000
vn 0.00000000 -0.00000000 0.00000000
vn 0.00000000 -0.00000000 0.00000000
vn 0.00000000 0.00000000 0.00000000
vn 0.00000000 0.00000000 0.00000000
vn 0.00000000 0.00000000 0.00000000
vn 0.00000000 -0.00000000 0.00000000
vn 0.00000000 0.00000000 0.00000000
vn 0.00000000 -1.00000000 0.00000000
vn 0.00000000 -1.00000000 0.00000000
vn 0.00000000 -1.00000000 0.00000000
vn 0.00000000 -1.00000000 0.00000000
vn 0.00000000 -1.00000000 0.00000000
vn 0.00000000 -1.00000000 0.00000000
vn 0.57735027 -0.57735027 -0.57735027
vn 0.30151134 -0.90453403 -0.30151134
vn -0.57735027 -0.57735027 -0.57735027
vn 0.30151134 -0.90453403 0.30151134
vn 0.57735027 -0.57735027 0.57735027
vn -0.30151134 -0.90453403 0.30151134
vn -0.30151134 -0.90453403 -0.30151134
vn -0.57735027 -0.57735027 0.57735027
vn 0.57735027 -0.57735027 -0.57735027
vn 0.30151134 -0.90453403 -0.30151134
vn -0.57735027 -0.57735027 -0.57735027
vn 0.30151134 -0.90453403 0.30151134
vn 0.57735027 -0.57735027 0.57735027
vn -0.30151134 -0.90453403 0.30151134
vn -0.30151134 -0.90453403 -0.30151134
vn -0.57735027 -0.57735027 0.57735027
vn 0.57735027 -0.57735027 -0.57735027
vn 0.00000000 -0.70710678 -0.70710678
vn 0.57735027 0.57735027 -0.57735027
vn 0.00000000 -0.70710678 -0.70710678
vn -0.57735027 0.57735027 -0.57735027
vn -0.57735027 -0.57735027 -0.57735027
vn 0.00000000 -1.00000000 0.00000000
vn 0.00000000 -1.00000000 0.00000000
vn 0.00000000 -1.00000000 0.00000000
vn 0.00000000 -1.00000000 0.00000000
vn 0.00000000 -1.00000000 0.00000000
vn 0.57735027 0.57735027 0.57735027
vn 0.57735027 -0.57735027 0.57735027
vn 0.00000000 -0.70710678 0.70710678
vn 0.00000000 -0.70710678 0.70710678
vn 0.30151134 -0.90453403 -0.30151134
vn 0.30151134 -0.90453403 -0.30151134
vn 0.30151134 -0.90453403 0.30151134
vn 0.30151134 -0.90453403 0.30151134
vn -0.30151134 -0.90453403 0.30151134
vn -0.30151134 -0.90453403 0.30151134
vn -0.30151134 -0.90453403 -0.30151134
vn -0.30151134 -0.90453403 -0.30151134
vn -0.57735027 -0.57735027 0.57735027
vn -0.57735027 0.57735027 0.57735027
vn 0.57735027 0.57735027 0.57735027
vn -0.30151134 0.90453403 -0.30151134
vn 0.30151134 0.90453403 -0.30151134
vn -0.57735027 0.57735027 0.57735027
vn -0.30151134 0.90453403 -0.30151134
vn -0.30151134 0.90453403 0.30151134
vn 0.30151134 0.90453403 0.30151134
vn 0.30151134 0.90453403 -0.30151134
f 1//1 2//2 3//3
f 2//2 1//1 4//4
f 5//5 2//2 6//6
f 2//2 5//5 3//3
f 7//7 1//1 8//8
f 9//9 1//1 7//7
f 1//1 9//9 10//10
f 3//3 8//8 1//1
f 5//5 8//8 3//3
f 8//8 5//5 11//11
f 12//12 6//6 13//13
f 6//6 12//12 5//5
f 14//14 12//12 13//13
f 12//12 14//14 15//15
f 10//10 14//14 16//16
f 14//14 10//10 15//15
f 17//17 2//2 18//18
f 19//19 2//2 17//17
f 2//2 19//19 6//6
f 4//4 18//18 2//2
f 16//16 18//18 4//4
f 18//18 16//16 20//20
f 9//9 18//18 20//20
f 18//18 9//9 7//7
f 9//9 15//15 10//10
f 15//15 21//21 12//12
f 21//21 15//15 9//9
f 12//12 11//11 5//5
f 12//12 22//22 11//11
f 22//22 12//12 21//21
f 21//21 23//23 22//22
f 23//23 21//21 24//24
f 19//19 13//13 6//6
f 13//13 23//23 14//14
f 23//23 13//13 19//19
f 14//14 20//20 16//16
f 14//14 24//24 20//20
f 24//24 14//14 23//23
f 21//21 20//20 24//24
f 20//20 21//21 9//9
f 25//25 26//26 27//27
f 25//25 28//28 26//26
f 28//28 29//29 30//30
f 29//29 28//28 25//25
f 31//31 27//27 26//26
f 30//30 27//27 31//31
f 30//30 32//32 27//27
f 32//32 30//30 29//29
f 33//33 29//29 25//25
f 29//29 33//33 34//34
f 35//35 29//29 34//34
f 29//29 35//35 32//32
f 35//35 27//27 32//32
f 27//27 35//35 36//36
f 36//36 37//37 33//33
f 36//36 38//38 37//37
f 38//38 35//35 39//39
f 35//35 38//38 36//36
f 40//40 33//33 37//37
f 39//39 33//33 40//40
f 39//39 34//34 33//33
f 34//34 39//39 35//35
f 41//41 42//42 43//43
f 41//41 44//44 42//42
f 44//44 45//45 46//46
f 45//45 44//44 41//41
f 47//47 43//43 42//42
f 46//46 43//43 47//47
f 46//46 48//48 43//43
f 48//48 46//46 45//45
f 49//49 50//50 51//51
f 49//49 52//52 50//50
f 52//52 53//53 54//54
f 53//53 52//52 49//49
f 55//55 51//51 50//50
f 54//54 51//51 55//55
f 54//54 56//56 51//51
f 56//56 54//54 53//53
f 51//51 45//45 41//41
f 45//45 51//51 56//56
f 53//53 45//45 56//56
f 45//45 53//53 48//48
f 46//46 54//54 44//44
f 54//54 46//46 52//52
f 50//50 46//46 47//47
f 46//46 50//50 52//52
f 50//50 42//42 55//55
f 42//42 50//50 47//47
f 37//37 30//30 31//31
f 30//30 37//37 38//38
f 37//37 26//26 40//40
f 26//26 37//37 31//31
f 30//30 39//39 28//28
f 39//39 30//30 38//38
f 39//39 26//26 28//28
f 26//26 39//39 40//40
f 57//57 58//58 59//59
f 58//58 57//57 60//60
f 58//58 61//61 62//62
f 61//61 58//58 60//60
f 61//61 63//63 62//62
f 63//63 61//61 64//64
f 57//57 63//63 64//64
f 63//63 57//57 59//59
f 57//57 61//61 60//60
f 61//61 57//57 64//64
f 65//65 66//66 67//67
f 66//66 65//65 68//68
f 66//66 69//69 70//70
f 69//69 66//66 68//68
f 69//69 71//71 70//70
f 71//71 69//69 72//72
f 65//65 71//71 72//72
f 71//71 65//65 67//67
f 65//65 69//69 68//68
f 69//69 65//65 72//72
f 73//73 74//74 75//75
f 74//74 73//73 76//76
f 74//74 77//77 78//78
f 77//77 74//74 76//76
f 77//77 79//79 78//78
f 79//79 77//77 80//80
f 73//73 79//79 80//80
f 79//79 73//73 75//75
f 73//73 77//77 76//76
f 77//77 73//73 80//80
f 81//81 82//82 83//83
f 82//82 81//81 84//84
f 82//82 85//85 86//86
f 85//85 82//82 84//84
f 85//85 87//87 86//86
f 87//87 85//85 88//88
f 81//81 87//87 88//88
f 87//87 81//81 83//83
f 81//81 85//85 84//84
f 85//85 81//81 88//88
f 89//89 90//90 91//91
f 90//90 89//89 92//92
f 89//89 93//93 92//92
f 93//93 89//89 94//94
f 93//93 95//95 96//96
f 95//95 93//93 94//94
f 95//95 90//90 96//96
f 90//90 95//95 91//91
f 89//89 95//95 94//94
f 95//95 89//89 91//91
f 97//97 98//98 99//99
f 98//98 97//97 100//100
f 97//97 101//101 100//100
f 101//101 97//97 102//102
f 101//101 103//103 104//104
f 103//103 101//101 102//102
f 103//103 98//98 104//104
f 98//98 103//103 99//99
f 97//97 103//103 102//102
f 103//103 97//97 99//99
f 105//105 106//106 107//107
f 108//108 107//107 106//106
f 109//109 108//108 106//106
f 110//110 108//108 109//109
f 111//111 110//110 109//109
f 112//112 110//110 111//111
f 113//113 112//112 111//111
f 114//114 110//110 112//112
f 115//115 110//110 114//114
f 116//116 115//115 114//114
f 117//117 115//115 116//116
f 118//118 119//119 120//120
f 121//121 120//120 119//119
f 122//122 121//121 119//119
f 113//113 121//121 122//122
f 123//123 113//113 122//122
f 124//124 113//113 123//123
f 112//112 113//113 124//124
f 125//125 124//124 123//123
f 126//126 125//125 123//123
f 127//127 126//126 123//123
f 128//128 126//126 127//127
f 127//127 126//126 128//128
f 123//123 126//126 127//127
f 123//123 125//125 126//126
f 123//123 124//124 125//125
f 124//124 113//113 112//112
f 123//123 113//113 124//124
f 122//122 113//113 123//123
f 122//122 121//121 113//113
f 119//119 121//121 122//122
f 119//119 120//120 121//121
f 120//120 119//119 118//118
f 116//116 115//115 117//117
f 114//114 115//115 116//116
f 114//114 110//110 115//115
f 112//112 110//110 114//114
f 111//111 112//112 113//113
f 111//111 110//110 112//112
f 109//109 110//110 111//111
f 109//109 108//108 110//110
f 106//106 108//108 109//109
f 106//106 107//107 108//108
f 107//107 106//106 105//105
f 129//129 130//130 131//131
f 132//132 131//131 130//130
f 133//133 131//131 132//132
f 134//134 131//131 133//133
f 135//135 134//134 133//133
f 136//136 134//134 135//135
f 137//137 134//134 136//136
f 138//138 134//134 137//137
f 139//139 138//138 137//137
f 140//140 138//138 139//139
f 141//141 140//140 139//139
f 142//142 140//140 141//141
f 143//143 140//140 142//142
f 144//144 143//143 142//142
f 145//145 143//143 144//144
f 146//146 143//143 145//145
f 147//147 146//146 145//145
f 148//148 146//146 147//147
f 149//149 148//148 147//147
f 150//150 148//148 149//149
f 151//151 152//152 153//153
f 148//148 153//153 152//152
f 154//154 155//155 156//156
f 157//157 156//156 155//155
f 158//158 156//156 157//157
f 159//159 156//156 158//158
f 160//160 159//159 158//158
f 161//161 162//162 163//163
f 164//164 163//163 162//162
f 165//165 163//163 164//164
f 166//166 165//165 164//164
f 129//129 165//165 166//166
f 167//167 129//129 166//166
f 130//130 129//129 167//167
f 168//168 130//130 167//167
f 169//169 168//168 167//167
f 170//170 169//169 167//167
f 171//171 169//169 170//170
f 172//172 171//171 170//170
f 173//173 172//172 170//170
f 174//174 173//173 170//170
f 175//175 173//173 174//174
f 176//176 175//175 174//174
f 177//177 175//175 176//176
f 178//178 177//177 176//176
f 179//179 178//178 176//176
f 180//180 178//178 179//179
f 181//181 180//180 179//179
f 182//182 180//180 181//181
f 183//183 182//182 181//181
f 184//184 182//182 183//183
f 185//185 184//184 183//183
f 150//150 185//185 183//183
f 148//148 150//150 183//183
f 153//153 148//148 183//183
f 186//186 153//153 183//183
f 187//187 186//186 183//183
f 188//188 186//186 187//187
f 189//189 188//188 187//187
f 190//190 189//189 187//187
f 191//191 190//190 187//187
f 154//154 190//190 191//191
f 192//192 154//154 191//191
f 155//155 154//154 192//192
f 193//193 155//155 192//192
f 194//194 193//193 192//192
f 195//195 194//194 192//192
f 196//196 194//194 195//195
f 197//197 196//196 195//195
f 198//198 197//197 195//195
f 199//199 197//197 198//198
f 200//200 199//199 198//198
f 201//201 199//199 200//200
f 202//202 201//201 200//200
f 203//203 202//202 200//200
f 204//204 202//202 203//203
f 205//205 204//204 203//203
f 206//206 204//204 205//205
f 207//207 206//206 205//205
f 208//208 207//207 205//205
f 209//209 208//208 205//205
f 210//210 208//208 209//209
f 211//211 210//210 209//209
f 212//212 211//211 209//209
f 213//213 211//211 212//212
f 214//214 213//213 212//212
f 215//215 213//213 214//214
f 216//216 215//215 214//214
f 214//214 215//215 216//216
f 214//214 213//213 215//215
f 212//212 213//213 214//214
f 212//212 211//211 213//213
f 209//209 211//211 212//212
f 209//209 210//210 211//211
f 209//209 208//208 210//210
f 205//205 208//208 209//209
f 205//205 207//207 208//208
f 205//205 206//206 207//207
f 205//205 204//204 206//206
f 203//203 204//204 205//205
f 203//203 202//202 204//204
f 200//200 202//202 203//203
f 200//200 201//201 202//202
f 200//200 199//199 201//201
f 198//198 199//199 200//200
f 198//198 197//197 199//199
f 195//195 197//197 198//198
f 195//195 196//196 197//197
f 195//195 194//194 196//196
f 192//192 194//194 195//195
f 192//192 193//193 194//194
f 192//192 155//155 193//193
f 192//192 154//154 155//155
f 191//191 154//154 192//192
f 191//191 190//190 154//154
f 187//187 190//190 191//191
f 187//187 189//189 190//190
f 187//187 188//188 189//189
f 187//187 186//186 188//188
f 183//183 186//186 187//187
f 183//183 153//153 186//186
f 183//183 148//148 153//153
f 183//183 150//150 148//148
f 183//183 185//185 150//150
f 183//183 184//184 185//185
f 183//183 182//182 184//184
f 181//181 182//182 183//183
f 181//181 180//180 182//182
f 179//179 180//180 181//181
f 179//179 178//178 180//180
f 176//176 178//178 179//179
f 176//176 177//177 178//178
f 176//176 175//175 177//177
f 174//174 175//175 176//176
f 174//174 173//173 175//175
f 170//170 173//173 174//174
f 170//170 172//172 173//173
f 170//170 171//171 172//172
f 170//170 169//169 171//171
f 167//167 169//169 170//170
f 167//167 168//168 169//169
f 167//167 130//130 168//168
f 167//167 129//129 130//130
f 166//166 129//129 167//167
f 166//166 165//165 129//129
f 164//164 165//165 166//166
f 164//164 163//163 165//165
f 162//162 163//163 164//164
f 163//163 162//162 161//161
f 158//158 159//159 160//160
f 158//158 156//156 159//159
f 157//157 156//156 158//158
f 155//155 156//156 157//157
f 156//156 155//155 154//154
f 152//152 153//153 148//148
f 153//153 152//152 151//151
f 149//149 148//148 150//150
f 147//147 148//148 149//149
f 147//147 146//146 148//148
f 145//145 146//146 147//147
f 145//145 143//143 146//146
f 144//144 143//143 145//145
f 142//142 143//143 144//144
f 142//142 140//140 143//143
f 141//141 140//140 142//142
f 139//139 140//140 141//141
f 139//139 138//138 140//140
f 137//137 138//138 139//139
f 137//137 134//134 138//138
f 136//136 134//134 137//137
f 135//135 134//134 136//136
f 133//133 134//134 135//135
f 133//133 131//131 134//134
f 132//132 131//131 133//133
f 130//130 131//131 132//132
f 131//131 130//130 129//129
f 217//217 218//218 219//219
f 220//220 219//219 218//218
f 221//221 220//220 218//218
f 222//222 220//220 221//221
f 223//223 222//222 221//221
f 224//224 222//222 223//223
f 225//225 224//224 223//223
f 226//226 224//224 225//225
f 227//227 224//224 226//226
f 228//228 224//224 227//227
f 229//229 228//228 227//227
f 230//230 228//228 229//229
f 231//231 228//228 230//230
f 232//232 228//228 231//231
f 233//233 232//232 231//231
f 234//234 232//232 233//233
f 235//235 234//234 233//233
f 236//236 234//234 235//235
f 237//237 234//234 236//236
f 238//238 237//237 236//236
f 239//239 237//237 238//238
f 240//240 239//239 238//238
f 241//241 239//239 240//240
f 242//242 239//239 241//241
f 243//243 242//242 241//241
f 244//244 242//242 243//243
f 245//245 242//242 244//244
f 246//246 245//245 244//244
f 247//247 245//245 246//246
f 248//248 247//247 246//246
f 223//223 249//249 225//225
f 250//250 225//225 249//249
f 251//251 250//250 249//249
f 252//252 251//251 249//249
f 253//253 251//251 252//252
f 254//254 251//251 253//253
f 255//255 251//251 254//254
f 256//256 255//255 254//254
f 257//257 256//256 254//254
f 241//241 256//256 257//257
f 243//243 241//241 257//257
f 252//252 258//258 253//253
f 259//259 253//253 258//258
f 260//260 259//259 258//258
f 261//261 259//259 260//260
f 262//262 261//261 260//260
f 263//263 262//262 260//260
f 264//264 262//262 263//263
f 265//265 264//264 263//263
f 266//266 264//264 265//265
f 267//267 266//266 265//265
f 268//268 267//267 265//265
f 269//269 268//268 265//265
f 270//270 268//268 269//269
f 271//271 270//270 269//269
f 272//272 271//271 269//269
f 273//273 271//271 272//272
f 274//274 273//273 272//272
f 275//275 273//273 274//274
f 276//276 273//273 275//275
f 275//275 273//273 276//276
f 274//274 273//273 275//275
f 272//272 273//273 274//274
f 272//272 271//271 273//273
f 269//269 271//271 272//272
f 269//269 270//270 271//271
f 269//269 268//268 270//270
f 265//265 268//268 269//269
f 265//265 267//267 268//268
f 265//265 266//266 267//267
f 265//265 264//264 266//266
f 263//263 264//264 265//265
f 263//263 262//262 264//264
f 260//260 262//262 263//263
f 260//260 261//261 262//262
f 260//260 259//259 261//261
f 258//258 259//259 260//260
f 258//258 253//253 259//259
f 253//253 258//258 252//252
f 257//257 241//241 243//243
f 257//257 256//256 241//241
f 254//254 256//256 257//257
f 254//254 255//255 256//256
f 254//254 251//251 255//255
f 253//253 251//251 254//254
f 252//252 251//251 253//253
f 249//249 251//251 252//252
f 249//249 250//250 251//251
f 249//249 225//225 250//250
f 225//225 249//249 223//223
f 246//246 247//247 248//248
f 246//246 245//245 247//247
f 244//244 245//245 246//246
f 244//244 242//242 245//245
f 243//243 242//242 244//244
f 241//241 242//242 243//243
f 241//241 239//239 242//242
f 240//240 239//239 241//241
f 238//238 239//239 240//240
f 238//238 237//237 239//239
f 236//236 237//237 238//238
f 236//236 234//234 237//237
f 235//235 234//234 236//236
f 233//233 234//234 235//235
f 233//233 232//232 234//234
f 231//231 232//232 233//233
f 231//231 228//228 232//232
f 230//230 228//228 231//231
f 229//229 228//228 230//230
f 227//227 228//228 229//229
f 227//227 224//224 228//228
f 226//226 224//224 227//227
f 225//225 224//224 226//226
f 223//223 224//224 225//225
f 223//223 222//222 224//224
f 221//221 222//222 223//223
f 221//221 220//220 222//222
f 218//218 220//220 221//221
f 218//218 219//219 220//220
f 219//219 218//218 217//217
f 277//277 278//278 279//279
f 280//280 279//279 278//278
f 281//281 282//282 283//283
f 284//284 283//283 282//282
f 285//285 284//284 282//282
f 286//286 284//284 285//285
f 287//287 286//286 285//285
f 288//288 286//286 287//287
f 289//289 288//288 287//287
f 290//290 288//288 289//289
f 291//291 288//288 290//290
f 292//292 288//288 291//291
f 293//293 292//292 291//291
f 294//294 292//292 293//293
f 295//295 292//292 294//294
f 296//296 292//292 295//295
f 297//297 296//296 295//295
f 298//298 296//296 297//297
f 299//299 298//298 297//297
f 300//300 298//298 299//299
f 301//301 298//298 300//300
f 302//302 301//301 300//300
f 303//303 301//301 302//302
f 304//304 301//301 303//303
f 305//305 304//304 303//303
f 306//306 304//304 305//305
f 307//307 306//306 305//305
f 308//308 306//306 307//307
f 309//309 306//306 308//308
f 310//310 306//306 309//309
f 311//311 306//306 310//310
f 312//312 311//311 310//310
f 313//313 312//312 310//310
f 314//314 313//313 310//310
f 315//315 314//314 310//310
f 279//279 314//314 315//315
f 316//316 279//279 315//315
f 317//317 279//279 316//316
f 318//318 279//279 317//317
f 277//277 279//279 318//318
f 319//319 318//318 317//317
f 320//320 319//319 317//317
f 321//321 320//320 317//317
f 322//322 320//320 321//321
f 323//323 322//322 321//321
f 324//324 322//322 323//323
f 325//325 324//324 323//323
f 326//326 325//325 323//323
f 327//327 325//325 326//326
f 328//328 327//327 326//326
f 329//329 327//327 328//328
f 330//330 329//329 328//328
f 331//331 330//330 328//328
f 332//332 331//331 328//328
f 333//333 331//331 332//332
f 334//334 333//333 332//332
f 335//335 334//334 332//332
f 336//336 334//334 335//335
f 337//337 336//336 335//335
f 338//338 336//336 337//337
f 339//339 338//338 337//337
f 287//287 340//340 289//289
f 341//341 289//289 340//340
f 342//342 341//341 340//340
f 343//343 342//342 340//340
f 344//344 342//342 343//343
f 345//345 344//344 343//343
f 346//346 345//345 343//343
f 347//347 346//346 343//343
f 348//348 346//346 347//347
f 349//349 348//348 347//347
f 350//350 348//348 349//349
f 351//351 350//350 349//349
f 352//352 351//351 349//349
f 353//353 351//351 352//352
f 354//354 353//353 352//352
f 355//355 353//353 354//354
f 309//309 355//355 354//354
f 356//356 355//355 309//309
f 357//357 356//356 309//309
f 308//308 357//357 309//309
f 309//309 357//357 308//308
f 309//309 356//356 357//357
f 309//309 355//355 356//356
f 354//354 355//355 309//309
f 354//354 353//353 355//355
f 352//352 353//353 354//354
f 352//352 351//351 353//353
f 349//349 351//351 352//352
f 349//349 350//350 351//351
f 349//349 348//348 350//350
f 347//347 348//348 349//349
f 347//347 346//346 348//348
f 343//343 346//346 347//347
f 343//343 345//345 346//346
f 343//343 344//344 345//345
f 343//343 342//342 344//344
f 340//340 342//342 343//343
f 340//340 341//341 342//342
f 340//340 289//289 341//341
f 289//289 340//340 287//287
f 337//337 338//338 339//339
f 337//337 336//336 338//338
f 335//335 336//336 337//337
f 335//335 334//334 336//336
f 332//332 334//334 335//335
f 332//332 333//333 334//334
f 332//332 331//331 333//333
f 328//328 331//331 332//332
f 328//328 330//330 331//331
f 328//328 329//329 330//330
f 328//328 327//327 329//329
f 326//326 327//327 328//328
f 326//326 325//325 327//327
f 323//323 325//325 326//326
f 323//323 324//324 325//325
f 323//323 322//322 324//324
f 321//321 322//322 323//323
f 321//321 320//320 322//322
f 317//317 320//320 321//321
f 317//317 319//319 320//320
f 317//317 318//318 319//319
f 318//318 279//279 277//277
f 317//317 279//279 318//318
f 316//316 279//279 317//317
f 315//315 279//279 316//316
f 315//315 314//314 279//279
f 310//310 314//314 315//315
f 310//310 313//313 314//314
f 310//310 312//312 313//313
f 310//310 311//311 312//312
f 310//310 306//306 311//311
f 309//309 306//306 310//310
f 308//308 306//306 309//309
f 307//307 306//306 308//308
f 305//305 306//306 307//307
f 305//305 304//304 306//306
f 303//303 304//304 305//305
f 303//303 301//301 304//304
f 302//302 301//301 303//303
f 300//300 301//301 302//302
f 300//300 298//298 301//301
f 299//299 298//298 300//300
f 297//297 298//298 299//299
f 297//297 296//296 298//298
f 295//295 296//296 297//297
f 295//295 292//292 296//296
f 294//294 292//292 295//295
f 293//293 292//292 294//294
f 291//291 292//292 293//293
f 291//291 288//288 292//292
f 290//290 288//288 291//291
f 289//289 288//288 290//290
f 287//287 288//288 289//289
f 287//287 286//286 288//288
f 285//285 286//286 287//287
f 285//285 284//284 286//286
f 282//282 284//284 285//285
f 282//282 283//283 284//284
f 283//283 282//282 281//281
f 278//278 279//279 280//280
f 279//279 278//278 277//277
f 358//358 23//23 359//359
f 358//358 22//22 23//23
f 360//360 22//22 358//358
f 360//360 11//11 22//22
f 11//11 360//360 361//361
f 359//359 23//23 19//19
f 11//11 361//361 8//8
f 19//19 362//362 359//359
f 17//17 362//362 19//19
f 8//8 362//362 17//17
f 8//8 363//363 362//362
f 363//363 8//8 361//361
f 364//364 365//365 366//366
f 364//364 367//367 365//365
f 367//367 368//368 369//369
f 368//368 367//367 364//364
f 370//370 366//366 365//365
f 369//369 366//366 370//370
f 369//369 371//371 366//366
f 371//371 369//369 368//368
f 372//372 373//373 374//374
f 372//372 375//375 373//373
f 375//375 376//376 377//377
f 376//376 375//375 372//372
f 378//378 374//374 373//373
f 377//377 374//374 378//378
f 377//377 379//379 374//374
f 379//379 377//377 376//376
f 380//380 75//75 74//74
f 75//75 83//83 79//79
f 75//75 87//87 83//83
f 75//75 381//381 87//87
f 381//381 75//75 380//380
f 79//79 82//82 78//78
f 82//82 79//79 83//83
f 87//87 382//382 86//86
f 93//93 87//87 381//381
f 96//96 87//87 93//93
f 101//101 87//87 96//96
f 101//101 382//382 87//87
f 104//104 382//382 101//101
f 98//98 382//382 104//104
f 58//58 98//98 383//383
f 62//62 98//98 58//58
f 66//66 98//98 62//62
f 70//70 98//98 66//66
f 70//70 382//382 98//98
f 71//71 382//382 70//70
f 382//382 71//71 384//384
f 63//63 66//66 62//62
f 66//66 63//63 67//67
f 385//385 58//58 383//383
f 58//58 385//385 59//59
f 90//90 101//101 96//96
f 101//101 90//90 100//100
f 381//381 92//92 93//93
f 92//92 100//100 90//90
f 92//92 98//98 100//100
f 92//92 383//383 98//98
f 383//383 92//92 381//381
f 25//25 386//386 387//387
f 27//27 386//386 25//25
f 386//386 27//27 388//388
f 389//389 51//51 390//390
f 51//51 389//389 49//49
f 59//59 62//62 58//58
f 62//62 59//59 63//63
f 391//391 86//86 382//382
f 391//391 82//82 86//86
f 391//391 78//78 82//82
f 391//391 74//74 78//78
f 392//392 74//74 391//391
f 74//74 392//392 380//380
f 393//393 33//33 392//392
f 393//393 36//36 33//33
f 36//36 388//388 27//27
f 36//36 381//381 388//388
f 381//381 36//36 393//393
f 25//25 392//392 33//33
f 387//387 392//392 25//25
f 386//386 392//392 387//387
f 388//388 392//392 386//386
f 388//388 380//380 392//392
f 380//380 388//388 381//381
f 394//394 395//395 393//393
f 394//394 396//396 395//395
f 394//394 397//397 396//396
f 397//397 398//398 399//399
f 398//398 358//358 400//400
f 397//397 358//358 398//398
f 397//397 360//360 358//358
f 360//360 363//363 361//361
f 360//360 383//383 363//363
f 397//397 383//383 360//360
f 383//383 397//397 394//394
f 401//401 393//393 395//395
f 400//400 393//393 401//401
f 359//359 400//400 358//358
f 362//362 400//400 359//359
f 363//363 400//400 362//362
f 400//400 381//381 393//393
f 363//363 381//381 400//400
f 381//381 363//363 383//383
f 402//402 395//395 396//396
f 399//399 395//395 402//402
f 395//395 399//399 398//398
f 403//403 390//390 394//394
f 403//403 389//389 390//390
f 389//389 43//43 49//49
f 389//389 385//385 43//43
f 385//385 389//389 403//403
f 51//51 394//394 390//390
f 41//41 394//394 51//51
f 43//43 394//394 41//41
f 43//43 383//383 394//394
f 383//383 43//43 385//385
f 71//71 404//404 384//384
f 67//67 404//404 71//71
f 63//63 404//404 67//67
f 59//59 404//404 63//63
f 385//385 404//404 59//59
f 404//404 385//385 403//403
f 405//405 406//406 407//407
f 406//406 405//405 408//408
f 391//391 409//409 404//404
f 391//391 410//410 409//409
f 410//410 408//408 405//405
f 410//410 411//411 408//408
f 410//410 382//382 411//411
f 382//382 410//410 391//391
f 407//407 404//404 409//409
f 406//406 404//404 407//407
f 412//412 404//404 406//406
f 411//411 404//404 412//412
f 382//382 404//404 411//411
f 404//404 382//382 384//384
f 391//391 393//393 392//392
f 391//391 394//394 393//393
f 404//404 394//394 391//391
f 394//394 404//404 403//403
f 399//399 366//366 371//371
f 366//366 399//399 402//402
f 396//396 366//366 402//402
f 366//366 396//396 364//364
f 368//368 399//399 371//371
f 399//399 368//368 397//397
f 396//396 368//368 364//364
f 368//368 396//396 397//397
f 395//395 374//374 401//401
f 374//374 395//395 372//372
f 395//395 376//376 372//372
f 376//376 395//395 398//398
f 400//400 374//374 379//379
f 374//374 400//400 401//401
f 376//376 400//400 379//379
f 400//400 376//376 398//398
f 18//18 8//8 17//17
f 8//8 18//18 7//7
f 1//1 16//16 4//4
f 16//16 1//1 10//10
f 53//53 43//43 48//48
f 43//43 53//53 49//49
f 54//54 42//42 44//44
f 42//42 54//54 55//55
f 411//411 369//369 408//408
f 369//369 411//411 367//367
f 369//369 406//406 408//408
f 406//406 369//369 370//370
f 365//365 411//411 412//412
f 411//411 365//365 367//367
f 365//365 406//406 370//370
f 406//406 365//365 412//412
f 377//377 409//409 410//410
f 409//409 377//377 378//378
f 373//373 409//409 378//378
f 409//409 373//373 407//407
f 405//405 377//377 410//410
f 377//377 405//405 375//375
f 373//373 405//405 407//407
f 405//405 373//373 375//375
f 67//67 70//70 66//66
f 70//70 67//67 71//71
f 75//75 78//78 74//74
f 78//78 75//75 79//79
f 83//83 86//86 82//82
f 86//86 83//83 87//87