# https://github.com/mikedh/trimesh
v -0.00251200 0.01435400 0.02583800
v -0.00143500 0.00897100 0.04306300
v 0.02404300 -0.00861300 -0.00861300
v 0.01973700 -0.01650700 -0.00861300
v 0.01291900 -0.02224900 -0.00861300
v -0.01112500 -0.00933000 0.02583800
v -0.00681800 -0.00574200 0.04306300
v -0.00717700 -0.01256000 0.02583800
v 0.00430600 -0.00789500 0.04306300
v 0.01363700 0.00502400 0.02583800
v -0.00717700 0.01256000 0.02583800
v 0.01363700 -0.00502400 0.02583800
v -0.01291900 -0.02224900 -0.00861300
v 0.01112500 -0.00933000 0.02583800
v 0.01901900 -0.00681800 0.00861300
v 0.01471300 0.00000000 0.02583800
v -0.01543100 0.01291900 0.00861300
v -0.01112500 0.00933000 0.02583800
v 0.00358900 -0.01973700 0.00861300
v 0.01112500 0.00933000 0.02583800
v 0.01543100 0.01291900 0.00861300
v -0.01004800 0.01758400 0.00861300
v -0.01579000 -0.02727300 -0.02583800
v 0.00717700 0.01256000 0.02583800
v -0.01363700 -0.00502400 0.02583800
v -0.01363700 0.00502400 0.02583800
v -0.01901900 -0.00681800 0.00861300
v 0.00251200 -0.01435400 0.02583800
v -0.00251200 -0.01435400 0.02583800
v -0.01471300 0.00000000 0.02583800
v 0.00251200 0.01435400 0.02583800
v -0.01901900 0.00681800 0.00861300
v -0.02583800 0.00000000 -0.00861300
v 0.02835000 0.02368400 -0.04306300
v 0.02942600 0.01076600 -0.02583800
v -0.00825400 -0.00323000 0.04306300
v 0.00358900 0.01973700 0.00861300
v 0.03480900 0.01256000 -0.04306300
v -0.00538300 -0.03086200 -0.02583800
v -0.00897100 0.00000000 0.04306300
v -0.00143500 -0.00897100 0.04306300
v 0.01543100 -0.01291900 0.00861300
v -0.03122000 0.00000000 -0.02583800
v -0.00430600 -0.00789500 0.04306300
v -0.02404300 -0.00861300 -0.00861300
v 0.01579000 0.02727300 -0.02583800
v 0.00825400 -0.00323000 0.04306300
v 0.00897100 0.00000000 0.04306300
v -0.00430600 0.00789500 0.04306300
v 0.00143500 -0.00897100 0.04306300
v 0.03696200 0.00000000 -0.04306300
v 0.02404300 -0.02009600 -0.02583800
v -0.00430600 0.02547900 -0.00861300
v 0.00430600 -0.02547900 -0.00861300
v -0.02835000 -0.02368400 -0.04306300
v -0.00825400 0.00323000 0.04306300
v -0.00681800 0.00574200 0.04306300
v -0.02835000 0.02368400 -0.04306300
v 0.00430600 0.02547900 -0.00861300
v 0.01004800 0.01758400 0.00861300
v 0.01830200 -0.03193800 -0.04306300
v -0.02404300 0.02009600 -0.02583800
v 0.01579000 -0.02727300 -0.02583800
v 0.00538300 0.03086200 -0.02583800
v 0.00645900 -0.03624400 -0.04306300
v 0.00681800 -0.00574200 0.04306300
v -0.01004800 -0.01758400 0.00861300
v -0.01830200 0.03193800 -0.04306300
v 0.02835000 -0.02368400 -0.04306300
v 0.01830200 0.03193800 -0.04306300
v -0.03696200 0.00000000 -0.04306300
v -0.00645900 0.03624400 -0.04306300
v 0.02009600 0.00000000 0.00861300
v -0.00645900 -0.03624400 -0.04306300
v 0.01973700 0.01650700 -0.00861300
v -0.00430600 -0.02547900 -0.00861300
v 0.02404300 0.02009600 -0.02583800
v -0.01830200 -0.03193800 -0.04306300
v 0.00430600 0.00789500 0.04306300
v 0.03480900 -0.01256000 -0.04306300
v -0.00538300 0.03086200 -0.02583800
v 0.00717700 -0.01256000 0.02583800
v 0.00143500 0.00897100 0.04306300
v 0.00681800 0.00574200 0.04306300
v 0.00825400 0.00323000 0.04306300
v -0.00358900 0.01973700 0.00861300
v 0.00645900 0.03624400 -0.04306300
v 0.00538300 -0.03086200 -0.02583800
v 0.02404300 0.00861300 -0.00861300
v -0.00358900 -0.01973700 0.00861300
v -0.01579000 0.02727300 -0.02583800
v -0.02942600 0.01076600 -0.02583800
v -0.03480900 0.01256000 -0.04306300
v 0.01004800 -0.01758400 0.00861300
v -0.02404300 -0.02009600 -0.02583800
v -0.01973700 -0.01650700 -0.00861300
v -0.02942600 -0.01076600 -0.02583800
v -0.03480900 -0.01256000 -0.04306300
v 0.01901900 0.00681800 0.00861300
v 0.02942600 -0.01076600 -0.02583800
v 0.02583800 0.00000000 -0.00861300
v -0.01543100 -0.01291900 0.00861300
v 0.03122000 0.00000000 -0.02583800
v 0.01291900 0.02224900 -0.00861300
v -0.01291900 0.02224900 -0.00861300
v -0.02009600 0.00000000 0.00861300
v -0.01973700 0.01650700 -0.00861300
v -0.02404300 0.00861300 -0.00861300
vn -0.17369895 0.93691712 0.30333972
vn -0.11204823 0.62057891 0.77609729
vn 0.89303207 -0.32739261 0.30871963
vn 0.73637436 -0.60199637 0.30879309
vn 0.47920154 -0.82135873 0.30941190
vn -0.72359705 -0.61725412 0.30887646
vn -0.48234429 -0.39924608 0.77970927
vn -0.47954152 -0.82123170 0.30922229
vn 0.32030169 -0.54203265 0.77692177
vn 0.88818472 0.34047361 0.30855409
vn -0.47649504 0.82320731 0.30867816
vn 0.88575890 -0.34364028 0.31199765
vn -0.47986510 -0.82005703 0.31182680
vn 0.72391439 -0.61543217 0.31175505
vn 0.89709053 -0.32074111 0.30389755
vn 0.95039706 0.00350915 0.31101948
vn -0.73051039 0.60927815 0.30843914
vn -0.72391439 0.61543217 0.31175505
vn 0.15489678 -0.93689388 0.31342758
vn 0.72359705 0.61725412 0.30887646
vn 0.73204099 0.60756498 0.30818951
vn -0.47137880 0.82484733 0.31213604
vn -0.47555656 -0.82452431 0.30660336
vn 0.47954152 0.82123170 0.30922229
vn -0.88818472 -0.34047361 0.30855409
vn -0.88575890 0.34364028 0.31199765
vn -0.89455301 -0.32401331 0.30788032
vn 0.17369895 -0.93691712 0.30333972
vn -0.17104299 -0.93629379 0.30675436
vn -0.95039706 -0.00350915 0.31101948
vn 0.17104299 0.93629379 0.30675436
vn -0.89709053 0.32074111 0.30389755
vn -0.95152097 -0.00124033 0.30758138
vn 0.63910382 0.53791617 -0.54972039
vn 0.89366347 0.32028518 0.31429764
vn -0.57915079 -0.22441004 0.78372476
vn 0.15633103 0.93848450 0.30790818
vn 0.78762898 0.28446660 -0.54655224
vn -0.15914413 -0.93998857 0.30181888
vn -0.63298336 -0.00044334 0.77416527
vn -0.11259419 -0.62085619 0.77579645
vn 0.73051039 -0.60927815 0.30843914
vn -0.95068017 -0.00208230 0.31016590
vn -0.31842041 -0.54241051 0.77743121
vn -0.89434931 -0.32632853 0.30602124
vn 0.47555656 0.82452431 0.30660336
vn 0.57888208 -0.22528665 0.78367179
vn 0.63298336 0.00044334 0.77416527
vn -0.32030169 0.54203265 0.77692177
vn 0.11204823 -0.62057891 0.77609729
vn 0.83717805 -0.00063687 -0.54693008
vn 0.73329998 -0.60593235 0.30841064
vn -0.16676618 0.93656709 0.30827118
vn 0.16676618 -0.93656709 0.30827118
vn -0.63910382 -0.53791617 -0.54972039
vn -0.57888208 0.22528665 0.78367179
vn -0.48289359 0.40077326 0.77858498
vn -0.63797289 0.54151937 -0.54749188
vn 0.16592035 0.93512419 0.31307057
vn 0.47075534 0.82628685 0.30925628
vn 0.41515329 -0.72156724 -0.55406540
vn -0.73329998 0.60593235 0.30841064
vn 0.47727517 -0.82368071 0.30620010
vn 0.15914413 0.93998857 0.30181888
vn 0.14295927 -0.82131985 -0.55226474
vn 0.48289359 -0.40077326 0.77858498
vn -0.47075534 -0.82628685 0.30925628
vn -0.41515329 0.72156724 -0.55406540
vn 0.63797289 -0.54151937 -0.54749188
vn 0.40955158 0.72415981 -0.55485140
vn -0.83717805 0.00063687 -0.54693008
vn -0.14295927 0.82131985 -0.55226474
vn 0.95191706 -0.00150780 0.30635215
vn -0.14537106 -0.82172047 -0.55103787
vn 0.73514989 0.60249459 0.31073287
vn -0.16592035 -0.93512419 0.31307057
vn 0.73270333 0.60535039 0.31096098
vn -0.40955158 -0.72415981 -0.55485140
vn 0.31842041 0.54241051 0.77743121
vn 0.78804699 -0.28433468 -0.54601808
vn -0.15903380 0.93877723 0.30562323
vn 0.47649504 -0.82320731 0.30867816
vn 0.11259419 0.62085619 0.77579645
vn 0.48234429 0.39924608 0.77970927
vn 0.57915079 0.22441004 0.78372476
vn -0.15489678 0.93689388 0.31342758
vn 0.14537106 0.82172047 -0.55103787
vn 0.15903380 -0.93877723 0.30562323
vn 0.89434931 0.32632853 0.30602124
vn -0.15633103 -0.93848450 0.30790818
vn -0.47727517 0.82368071 0.30620010
vn -0.89294605 0.32411915 0.31240059
vn -0.78804699 0.28433468 -0.54601808
vn 0.47137880 -0.82484733 0.31213604
vn -0.73270333 -0.60535039 0.31096098
vn -0.73514989 -0.60249459 0.31073287
vn -0.89366347 -0.32028518 0.31429764
vn -0.78762898 -0.28446660 -0.54655224
vn 0.89455301 0.32401331 0.30788032
vn 0.89294605 -0.32411915 0.31240059
vn 0.95152097 0.00124033 0.30758138
vn -0.73204099 -0.60756498 0.30818951
vn 0.95068017 0.00208230 0.31016590
vn 0.47986510 0.82005703 0.31182680
vn -0.47920154 0.82135873 0.30941190
vn -0.95191706 0.00150780 0.30635215
vn -0.73637436 0.60199637 0.30879309
vn -0.89303207 0.32739261 0.30871963
f 86//86 1//1 37//37
f 88//88 54//54 39//39
f 35//35 77//77 75//75
f 4//4 63//63 52//52
f 4//4 52//52 3//3
f 5//5 63//63 4//4
f 99//99 89//89 21//21
f 11//11 57//57 49//49
f 12//12 15//15 16//16
f 104//104 60//60 75//75
f 91//91 81//81 72//72
f 31//31 2//2 83//83
f 37//37 104//104 59//59
f 86//86 37//37 59//59
f 53//53 105//105 22//22
f 105//105 107//107 17//17
f 83//83 49//49 56//56
f 32//32 107//107 108//108
f 23//23 39//39 76//76
f 5//5 54//54 88//88
f 106//106 32//32 108//108
f 13//13 96//96 95//95
f 102//102 45//45 96//96
f 102//102 27//27 45//45
f 13//13 67//67 96//96
f 19//19 54//54 94//94
f 84//84 85//85 10//10
f 5//5 4//4 42//42
f 65//65 61//61 63//63
f 5//5 42//42 94//94
f 42//42 4//4 15//15
f 98//98 97//97 71//71
f 99//99 10//10 73//73
f 24//24 20//20 21//21
f 45//45 43//43 97//97
f 86//86 53//53 22//22
f 31//31 37//37 1//1
f 89//89 75//75 21//21
f 83//83 2//2 49//49
f 86//86 11//11 1//1
f 66//66 50//50 9//9
f 24//24 83//83 79//79
f 8//8 44//44 6//6
f 8//8 102//102 67//67
f 28//28 29//29 90//90
f 96//96 45//45 97//97
f 31//31 1//1 2//2
f 24//24 21//21 60//60
f 11//11 18//18 57//57
f 99//99 73//73 101//101
f 26//26 32//32 30//30
f 100//100 3//3 52//52
f 42//42 15//15 12//12
f 60//60 21//21 75//75
f 76//76 39//39 54//54
f 55//55 23//23 95//95
f 26//26 30//30 40//40
f 35//35 103//103 51//51
f 56//56 57//57 18//18
f 66//66 14//14 47//47
f 28//28 50//50 29//29
f 22//22 105//105 17//17
f 26//26 17//17 32//32
f 31//31 24//24 60//60
f 78//78 39//39 23//23
f 33//33 92//92 43//43
f 92//92 108//108 62//62
f 70//70 72//72 87//87
f 98//98 71//71 55//55
f 33//33 108//108 92//92
f 105//105 91//91 107//107
f 87//87 72//72 81//81
f 53//53 59//59 64//64
f 65//65 88//88 74//74
f 8//8 67//67 29//29
f 53//53 64//64 81//81
f 25//25 27//27 6//6
f 106//106 25//25 30//30
f 53//53 81//81 105//105
f 88//88 39//39 74//74
f 49//49 57//57 56//56
f 50//50 41//41 29//29
f 59//59 46//46 64//64
f 104//104 75//75 77//77
f 36//36 44//44 56//56
f 104//104 77//77 46//46
f 103//103 80//80 51//51
f 106//106 108//108 33//33
f 19//19 76//76 54//54
f 99//99 21//21 20//20
f 67//67 102//102 96//96
f 84//84 20//20 79//79
f 101//101 103//103 89//89
f 35//35 38//38 77//77
f 100//100 69//69 80//80
f 101//101 3//3 100//100
f 66//66 48//48 83//83
f 38//38 80//80 61//61
f 84//84 10//10 20//20
f 55//55 78//78 23//23
f 15//15 73//73 16//16
f 65//65 74//74 61//61
f 66//66 83//83 56//56
f 92//92 62//62 58//58
f 106//106 30//30 32//32
f 70//70 87//87 64//64
f 15//15 3//3 73//73
f 92//92 58//58 93//93
f 65//65 63//63 88//88
f 95//95 96//96 97//97
f 36//36 30//30 25//25
f 66//66 9//9 82//82
f 100//100 52//52 69//69
f 92//92 93//93 43//43
f 61//61 80//80 69//69
f 28//28 82//82 9//9
f 36//36 7//7 44//44
f 66//66 47//47 48//48
f 66//66 82//82 14//14
f 5//5 88//88 63//63
f 66//66 56//56 44//44
f 34//34 77//77 38//38
f 100//100 80//80 103//103
f 78//78 74//74 39//39
f 35//35 89//89 103//103
f 35//35 75//75 89//89
f 71//71 43//43 93//93
f 87//87 81//81 64//64
f 70//70 64//64 46//46
f 50//50 44//44 41//41
f 8//8 41//41 44//44
f 38//38 51//51 80//80
f 70//70 46//46 34//34
f 26//26 40//40 56//56
f 35//35 51//51 38//38
f 68//68 58//58 62//62
f 55//55 74//74 78//78
f 86//86 59//59 53//53
f 28//28 19//19 82//82
f 13//13 90//90 67//67
f 108//108 107//107 62//62
f 12//12 47//47 14//14
f 98//98 95//95 97//97
f 13//13 95//95 23//23
f 71//71 97//97 43//43
f 105//105 81//81 91//91
f 33//33 43//43 45//45
f 86//86 22//22 11//11
f 29//29 67//67 90//90
f 83//83 84//84 79//79
f 106//106 33//33 27//27
f 52//52 61//61 69//69
f 31//31 83//83 24//24
f 36//36 56//56 40//40
f 16//16 10//10 85//85
f 33//33 45//45 27//27
f 98//98 55//55 95//95
f 16//16 85//85 48//48
f 70//70 55//55 58//58
f 91//91 72//72 68//68
f 31//31 60//60 37//37
f 72//72 58//58 68//68
f 11//11 22//22 18//18
f 19//19 90//90 76//76
f 12//12 48//48 47//47
f 55//55 71//71 58//58
f 8//8 6//6 102//102
f 101//101 100//100 103//103
f 13//13 76//76 90//90
f 83//83 48//48 84//84
f 24//24 79//79 20//20
f 6//6 27//27 102//102
f 84//84 48//48 85//85
f 66//66 44//44 50//50
f 22//22 17//17 18//18
f 4//4 3//3 15//15
f 70//70 58//58 72//72
f 6//6 44//44 7//7
f 28//28 90//90 19//19
f 26//26 56//56 18//18
f 42//42 12//12 14//14
f 91//91 68//68 62//62
f 106//106 27//27 25//25
f 19//19 94//94 82//82
f 34//34 46//46 77//77
f 25//25 6//6 7//7
f 73//73 10//10 16//16
f 8//8 29//29 41//41
f 71//71 93//93 58//58
f 5//5 94//94 54//54
f 42//42 14//14 94//94
f 55//55 61//61 74//74
f 94//94 14//14 82//82
f 104//104 46//46 59//59
f 12//12 16//16 48//48
f 37//37 60//60 104//104
f 26//26 18//18 17//17
f 28//28 9//9 50//50
f 36//36 25//25 7//7
f 32//32 17//17 107//107
f 52//52 63//63 61//61
f 49//49 2//2 1//1
f 11//11 49//49 1//1
f 70//70 38//38 61//61
f 99//99 101//101 89//89
f 36//36 40//40 30//30
f 70//70 61//61 55//55
f 70//70 34//34 38//38
f 99//99 20//20 10//10
f 101//101 73//73 3//3
f 91//91 62//62 107//107
f 13//13 23//23 76//76