# https://github.com/mikedh/trimesh
v -0.02325700 0.02479000 0.03857700
v -0.02375100 0.02479000 0.03808200
v -0.02819800 0.02479000 0.03857700
v -0.02375100 0.02479000 -0.05974800
v -0.02325700 0.02479000 -0.06024200
v -0.02770400 0.02479000 -0.05974800
v -0.02770400 0.02479000 0.03808200
v -0.02819800 0.02479000 -0.06024200
v 0.02121100 0.02479000 0.03857700
v 0.02121100 0.02429600 0.03808200
v 0.02121100 0.02479000 -0.06024200
v 0.02121100 0.02034300 0.03808200
v 0.02121100 0.01984900 0.03857700
v 0.02121100 0.02034300 -0.05974800
v 0.02121100 0.02429600 -0.05974800
v 0.02121100 0.01984900 -0.06024200
v 0.02121100 -0.01967900 0.03857700
v 0.02121100 -0.02017300 0.03808200
v 0.02121100 -0.01967900 -0.06024200
v 0.02121100 -0.02412500 0.03808200
v 0.02121100 -0.02461900 0.03857700
v 0.02121100 -0.02412500 -0.05974800
v 0.02121100 -0.02017300 -0.05974800
v 0.02121100 -0.02461900 -0.06024200
v 0.01874100 0.01984900 0.03425300
v 0.01849400 0.01960200 0.03425300
v 0.01874100 -0.01967900 0.03425300
v 0.01775300 0.01960200 0.03425300
v 0.01750600 0.01984900 0.03425300
v 0.01775300 -0.01943100 0.03425300
v 0.01849400 -0.01943100 0.03425300
v 0.01750600 -0.01967900 0.03425300
v 0.01874100 -0.01967900 0.01696000
v 0.01849400 -0.01943100 0.01696000
v 0.01849400 0.01960200 0.01696000
v 0.01775300 -0.01943100 0.01696000
v 0.01750600 -0.01967900 0.01696000
v 0.01750600 0.01984900 0.01696000
v 0.01874100 0.01984900 0.01696000
v 0.01775300 0.01960200 0.01696000
v 0.01874100 0.01984900 0.01387200
v 0.01849400 0.01960200 0.01387200
v 0.01874100 -0.01967900 0.01387200
v 0.01775300 0.01960200 0.01387200
v 0.01750600 0.01984900 0.01387200
v 0.01775300 -0.01943100 0.01387200
v 0.01849400 -0.01943100 0.01387200
v 0.01750600 -0.01967900 0.01387200
v -0.02819800 0.02454300 -0.05999500
v -0.02819800 0.02009600 -0.05999500
v -0.02819800 0.01984900 -0.06024200
v -0.02819800 0.02009600 0.03832900
v -0.02819800 0.02454300 0.03832900
v -0.02819800 0.01984900 0.03857700
v 0.01627000 0.01984900 -0.03677200
v 0.01676500 0.01984900 -0.03726700
v 0.01874100 0.01984900 -0.03677200
v 0.01676500 0.01984900 -0.05974800
v 0.01627000 0.01984900 -0.06024200
v 0.02071700 0.01984900 -0.05974800
v 0.01750600 0.01984900 0.03857700
v 0.01800000 0.01984900 0.03808200
v 0.02071700 0.01984900 0.03808200
v 0.01800000 0.01984900 0.03474700
v 0.01923500 0.01984900 0.03474700
v 0.01923500 0.01984900 0.01646600
v 0.01800000 0.01984900 0.01646600
v 0.01800000 0.01984900 0.01436600
v 0.01923500 0.01984900 0.01436600
v 0.01923500 0.01984900 -0.03726700
v 0.02071700 0.02479000 0.03808200
v 0.01627000 0.02479000 0.03857700
v 0.02071700 0.02479000 -0.05974800
v 0.01676500 0.02479000 -0.05974800
v 0.01676500 0.02479000 0.03808200
v 0.01627000 0.02479000 -0.06024200
v 0.01627000 -0.02461900 0.03857700
v 0.01676500 -0.02461900 0.03808200
v 0.01676500 -0.02461900 -0.05974800
v 0.01627000 -0.02461900 -0.06024200
v 0.02071700 -0.02461900 -0.05974800
v 0.02071700 -0.02461900 0.03808200
v 0.01923500 -0.01967900 0.01436600
v 0.01800000 -0.01967900 0.01436600
v 0.01874100 -0.01967900 -0.03677200
v 0.01923500 -0.01967900 -0.03726700
v 0.01627000 -0.01967900 -0.03677200
v 0.01676500 -0.01967900 -0.03726700
v 0.01676500 -0.01967900 -0.05974800
v 0.01627000 -0.01967900 -0.06024200
v 0.01923500 -0.01967900 0.03474700
v 0.01800000 -0.01967900 0.03474700
v 0.01923500 -0.01967900 0.01646600
v 0.01800000 -0.01967900 0.01646600
v 0.02071700 -0.01967900 0.03808200
v 0.01750600 -0.01967900 0.03857700
v 0.02071700 -0.01967900 -0.05974800
v 0.01800000 -0.01967900 0.03808200
v 0.01627000 0.02231900 0.03857700
v 0.01577600 0.02231900 0.03808200
v -0.02325700 0.02231900 0.03857700
v 0.01627000 0.02231900 -0.03553700
v 0.01577600 0.02231900 -0.03553700
v 0.01577600 0.02231900 -0.03627800
v 0.01627000 0.02231900 -0.03677200
v -0.02276300 0.02231900 -0.03627800
v -0.02276300 0.02231900 0.03808200
v -0.02276300 0.02231900 -0.03553700
v -0.02325700 0.02231900 -0.03553700
v -0.02325700 0.02231900 -0.03677200
v -0.02770400 0.01984900 0.03808200
v -0.02572700 0.01984900 0.03857700
v -0.02770400 0.01984900 -0.05974800
v -0.02375100 0.01984900 -0.05974800
v -0.02622100 0.01984900 0.03808200
v -0.02622100 0.01984900 -0.03553700
v -0.02572700 0.01984900 -0.03553700
v -0.02572700 0.01984900 -0.03677200
v -0.02622100 0.01984900 -0.03726700
v -0.02325700 0.01984900 -0.03677200
v -0.02375100 0.01984900 -0.03726700
v -0.02325700 0.01984900 -0.06024200
v 0.01849400 -0.01943100 -0.03677200
v 0.01651700 -0.01943100 -0.03677200
v 0.01651700 0.01960200 -0.03677200
v 0.01849400 0.01960200 -0.03677200
v 0.01627000 0.02281300 -0.03726700
v 0.01627000 0.02281300 0.03808200
v 0.01627000 0.02281300 -0.03553700
v 0.01627000 0.02034300 -0.03726700
v 0.01627000 0.02429600 -0.05974800
v 0.01627000 0.02034300 -0.05974800
v 0.01627000 0.02429600 0.03808200
v -0.02572700 0.01935500 -0.03627800
v -0.02572700 -0.01918400 -0.03627800
v -0.02572700 -0.01918400 -0.03553700
v -0.02572700 -0.01967900 -0.03677200
v -0.02572700 -0.01918400 0.03808200
v -0.02572700 0.01935500 -0.03553700
v -0.02572700 0.01935500 0.03808200
v -0.02572700 -0.01967900 -0.03553700
v -0.02572700 -0.01967900 0.03857700
v -0.02819800 -0.01967900 -0.06024200
v -0.02819800 -0.02017300 -0.05974800
v -0.02819800 -0.01967900 0.03857700
v -0.02819800 -0.02412500 -0.05974800
v -0.02819800 -0.02461900 -0.06024200
v -0.02819800 -0.02412500 0.03808200
v -0.02819800 -0.02017300 0.03808200
v -0.02819800 -0.02461900 0.03857700
v 0.01627000 -0.02017300 -0.05974800
v 0.01627000 -0.02412500 -0.05974800
v 0.01627000 -0.02412500 0.03808200
v 0.01627000 -0.02017300 -0.03726700
v 0.01627000 -0.02214900 -0.03677200
v 0.01627000 -0.02214900 0.03857700
v 0.01627000 -0.02214900 -0.03553700
v 0.01627000 -0.02264300 -0.03726700
v 0.01627000 -0.02264300 -0.03553700
v 0.01627000 -0.02264300 0.03808200
v -0.02276300 0.01935500 -0.03677200
v -0.02276300 0.02182500 -0.03677200
v -0.02523300 0.01935500 -0.03677200
v 0.01577600 -0.02165500 -0.03677200
v -0.02276300 -0.02165500 -0.03677200
v -0.02325700 -0.02214900 -0.03677200
v -0.02276300 -0.01918400 -0.03677200
v -0.02325700 -0.01967900 -0.03677200
v -0.02523300 -0.01918400 -0.03677200
v 0.01577600 -0.01967900 -0.03677200
v 0.01577600 0.01984900 -0.03677200
v 0.01577600 0.02182500 -0.03677200
v -0.02375100 -0.01967900 -0.03726700
v -0.02375100 -0.01967900 -0.05974800
v -0.02325700 -0.01967900 -0.06024200
v -0.02770400 -0.01967900 -0.05974800
v -0.02622100 -0.01967900 0.03808200
v -0.02622100 -0.01967900 -0.03553700
v -0.02622100 -0.01967900 -0.03726700
v -0.02770400 -0.01967900 0.03808200
v -0.02770400 -0.02461900 0.03808200
v -0.02325700 -0.02461900 0.03857700
v -0.02770400 -0.02461900 -0.05974800
v -0.02375100 -0.02461900 -0.05974800
v -0.02375100 -0.02461900 0.03808200
v -0.02325700 -0.02461900 -0.06024200
v -0.02325700 -0.02214900 0.03857700
v -0.02276300 -0.02214900 0.03808200
v -0.02325700 -0.02214900 -0.03553700
v -0.02276300 -0.02214900 -0.03553700
v -0.02276300 -0.02214900 -0.03627800
v 0.01577600 -0.02214900 -0.03627800
v 0.01577600 -0.02214900 0.03808200
v 0.01577600 -0.02214900 -0.03553700
v -0.02325700 -0.02264300 0.03808200
v -0.02325700 -0.02412500 0.03808200
v -0.02325700 -0.02412500 -0.05974800
v -0.02325700 -0.02017300 -0.03726700
v -0.02325700 -0.02017300 -0.05974800
v -0.02325700 -0.02264300 -0.03553700
v -0.02325700 -0.02264300 -0.03726700
v 0.01923500 0.01490800 -0.03183200
v 0.01874100 0.01490800 0.00893100
v 0.01923500 0.01490800 0.00893100
v 0.01874100 0.01490800 -0.03183200
v 0.01874100 -0.01473800 -0.03183200
v 0.01923500 -0.01473800 -0.03183200
v 0.01923500 -0.01473800 0.00893100
v 0.01874100 -0.01473800 0.00893100
v 0.01923500 0.01466100 0.00868400
v 0.01923500 -0.01449100 0.00868400
v 0.01923500 -0.01449100 -0.03158400
v 0.01923500 0.01466100 -0.03158400
v 0.01874100 -0.01449100 0.00868400
v 0.01874100 -0.01449100 -0.03158400
v 0.01874100 0.01466100 0.00868400
v 0.01874100 0.01466100 -0.03158400
v -0.03042100 -0.02709000 0.03882400
v 0.02343500 -0.02733700 0.03882400
v 0.02343500 -0.02709000 0.03882400
v -0.03042100 -0.02733700 0.03882400
v -0.03042100 -0.02733700 0.04080000
v -0.03042100 -0.02709000 0.04080000
v 0.02343500 -0.02709000 0.04080000
v 0.02343500 -0.02733700 0.04080000
v 0.02392900 0.02750700 0.04129400
v 0.02343500 0.02701300 0.04129400
v 0.02392900 -0.02733700 0.04129400
v -0.03042100 0.02701300 0.04129400
v -0.03091500 0.02750700 0.04129400
v -0.03042100 -0.02684300 0.04129400
v 0.02343500 -0.02684300 0.04129400
v -0.03091500 -0.02733700 0.04129400
v 0.02368200 -0.02733700 0.03832900
v -0.03042100 -0.02684300 0.03832900
v 0.02343500 -0.02684300 0.03832900
v -0.03066800 -0.02733700 0.03832900
v -0.03091500 -0.02733700 0.03832900
v 0.02392900 -0.02733700 0.03832900
v 0.02392900 0.02701300 0.04080000
v 0.02392900 0.02750700 0.03832900
v 0.02392900 -0.02684300 0.04080000
v 0.02392900 -0.02684300 0.03882400
v 0.02392900 0.02701300 0.03882400
v 0.02343500 0.02750700 0.04080000
v 0.02343500 0.02750700 0.03882400
v -0.03042100 0.02750700 0.03882400
v -0.03042100 0.02750700 0.04080000
v -0.03091500 0.02750700 0.03832900
v -0.03091500 0.02726000 0.03832900
v -0.03091500 -0.02684300 0.03882400
v -0.03091500 0.02701300 0.03882400
v -0.03091500 -0.02684300 0.04080000
v -0.03091500 0.02701300 0.04080000
v -0.03042100 0.02701300 0.03832900
v -0.03042100 -0.02684300 0.03857700
v 0.02343500 -0.02684300 0.03857700
v 0.02343500 0.02701300 0.03857700
v 0.02343500 0.02701300 0.03832900
v -0.03042100 0.02701300 0.03857700
v -0.03042100 0.02726000 0.04080000
v -0.03042100 0.02726000 0.03882400
v 0.02343500 0.02726000 0.03882400
v 0.02343500 0.02726000 0.04080000
v -0.03066800 0.02701300 0.04080000
v -0.03066800 0.02701300 0.03882400
v -0.03066800 -0.02684300 0.04080000
v -0.03066800 -0.02684300 0.03882400
v 0.02368200 0.02701300 0.03882400
v 0.02368200 -0.02684300 0.03882400
v 0.02368200 -0.02684300 0.04080000
v 0.02368200 0.02701300 0.04080000
v 0.01923500 -0.01745500 0.01918300
v 0.01874100 0.01762500 0.01918300
v 0.01923500 0.01762500 0.01918300
v 0.01874100 -0.01745500 0.01918300
v 0.01923500 -0.01745500 0.03203000
v 0.01874100 -0.01745500 0.03203000
v 0.01874100 0.01762500 0.03203000
v 0.01923500 0.01762500 0.03203000
v 0.01923500 0.01737800 0.03178300
v 0.01923500 -0.01720800 0.03178300
v 0.01923500 0.01737800 0.01943000
v 0.01923500 -0.01720800 0.01943000
v 0.01874100 0.01737800 0.01943000
v 0.01874100 0.01737800 0.03178300
v 0.01874100 -0.01720800 0.01943000
v 0.01874100 -0.01720800 0.03178300
v 0.01750600 0.01935500 0.01646600
v 0.01800000 -0.01918400 0.01646600
v 0.01800000 0.01935500 0.01646600
v 0.01750600 -0.01918400 0.01646600
v 0.01800000 0.01935500 0.01436600
v 0.01750600 0.01935500 0.01436600
v 0.01800000 -0.01918400 0.01436600
v 0.01750600 -0.01918400 0.01436600
v 0.01800000 0.01910800 0.01621900
v 0.01800000 -0.01893700 0.01621900
v 0.01800000 -0.01893700 0.01461300
v 0.01800000 0.01910800 0.01461300
v 0.01750600 0.01910800 0.01461300
v 0.01750600 -0.01893700 0.01461300
v 0.01750600 -0.01893700 0.01621900
v 0.01750600 0.01910800 0.01621900
v 0.02220000 0.00051300 0.02585400
v 0.02121100 0.00043500 0.02595600
v 0.02220000 0.00043500 0.02595600
v 0.02121100 0.00051300 0.02585400
v 0.02220000 0.00033200 0.02603400
v 0.02121100 0.00033200 0.02603400
v 0.02220000 0.00056200 0.02573500
v 0.02121100 0.00056200 0.02573500
v 0.02220000 0.00021300 0.02608400
v 0.02121100 0.00021300 0.02608400
v 0.02220000 0.00057900 0.02560700
v 0.02121100 0.00057900 0.02560700
v 0.02220000 0.00008500 0.02610100
v 0.02121100 0.00008500 0.02610100
v 0.02220000 0.00056200 0.02547900
v 0.02121100 0.00056200 0.02547900
v 0.02220000 -0.00004300 0.02608400
v 0.02121100 -0.00004300 0.02608400
v 0.02220000 0.00051300 0.02536000
v 0.02121100 0.00051300 0.02536000
v 0.02220000 -0.00016200 0.02603400
v 0.02121100 -0.00016200 0.02603400
v 0.02220000 0.00043500 0.02525700
v 0.02121100 0.00043500 0.02525700
v 0.02220000 -0.00026400 0.02595600
v 0.02121100 -0.00026400 0.02595600
v 0.02121100 0.00033200 0.02517900
v 0.02220000 0.00033200 0.02517900
v 0.02121100 -0.00034300 0.02585400
v 0.02220000 -0.00034300 0.02585400
v 0.02121100 0.00021300 0.02512900
v 0.02220000 0.00021300 0.02512900
v 0.02121100 -0.00039200 0.02573500
v 0.02220000 -0.00039200 0.02573500
v 0.02121100 0.00008500 0.02511300
v 0.02220000 0.00008500 0.02511300
v 0.02121100 -0.00040900 0.02560700
v 0.02220000 -0.00040900 0.02560700
v 0.02121100 -0.00004300 0.02512900
v 0.02220000 -0.00004300 0.02512900
v 0.02121100 -0.00039200 0.02547900
v 0.02220000 -0.00039200 0.02547900
v 0.02121100 -0.00016200 0.02517900
v 0.02220000 -0.00016200 0.02517900
v 0.02121100 -0.00034300 0.02536000
v 0.02220000 -0.00034300 0.02536000
v 0.02121100 -0.00026400 0.02525700
v 0.02220000 -0.00026400 0.02525700
v 0.02343500 -0.00065600 0.02511300
v 0.02318800 -0.00040900 0.02536000
v 0.02343500 -0.00065600 0.02610100
v 0.02318800 -0.00040900 0.02585400
v 0.02318800 0.00057900 0.02585400
v 0.02343500 0.00082600 0.02610100
v 0.02318800 0.00057900 0.02536000
v 0.02343500 0.00082600 0.02511300
v 0.02318800 -0.00115000 0.02461800
v 0.02318800 0.00132000 0.02461800
v 0.02331100 -0.00090300 0.02486500
v 0.02331100 0.00107300 0.02486500
v 0.02331100 0.00107300 0.02634800
v 0.02318800 0.00132000 0.02659500
v 0.02318800 -0.00115000 0.02659500
v 0.02331100 -0.00090300 0.02634800
v 0.02121100 0.00874700 -0.01145000
v 0.02220000 0.00873400 -0.01135500
v 0.02121100 0.00873400 -0.01135500
v 0.02121100 0.00875100 -0.01148300
v 0.02220000 0.00875100 -0.01148300
v 0.02121100 0.00880000 -0.01160200
v 0.02220000 0.00880000 -0.01160200
v 0.02220000 0.00875100 -0.01122700
v 0.02121100 0.00875100 -0.01122700
v 0.02121100 0.00887900 -0.01170400
v 0.02220000 0.00887900 -0.01170400
v 0.02220000 0.00880000 -0.01110800
v 0.02121100 0.00880000 -0.01110800
v 0.02220000 0.00898100 -0.01178300
v 0.02121100 0.00890900 -0.01172800
v 0.02121100 0.00898100 -0.01178300
v 0.02220000 0.00887900 -0.01100600
v 0.02121100 0.00887900 -0.01100600
v 0.02220000 0.00910000 -0.01183200
v 0.02121100 0.00910000 -0.01183200
v 0.02121100 0.00898100 -0.01092700
v 0.02220000 0.00898100 -0.01092700
v 0.02121100 0.00890900 -0.01098200
v 0.02220000 0.00922800 -0.01184900
v 0.02121100 0.00916400 -0.01184100
v 0.02121100 0.00922800 -0.01184900
v 0.02121100 0.00910000 -0.01087800
v 0.02220000 0.00910000 -0.01087800
v 0.02220000 0.00935600 -0.01183200
v 0.02121100 0.00935600 -0.01183200
v 0.02121100 0.00922800 -0.01086100
v 0.02220000 0.00922800 -0.01086100
v 0.02121100 0.00916400 -0.01086900
v 0.02220000 0.00947500 -0.01178300
v 0.02121100 0.00947500 -0.01178300
v 0.02121100 0.00935600 -0.01087800
v 0.02220000 0.00935600 -0.01087800
v 0.02220000 0.00957800 -0.01170400
v 0.02121100 0.00957800 -0.01170400
v 0.02121100 0.00947500 -0.01092700
v 0.02220000 0.00947500 -0.01092700
v 0.02220000 0.00965600 -0.01160200
v 0.02121100 0.00965600 -0.01160200
v 0.02121100 0.00957800 -0.01100600
v 0.02220000 0.00957800 -0.01100600
v 0.02220000 0.00970600 -0.01148300
v 0.02121100 0.00970600 -0.01148300
v 0.02121100 0.00965600 -0.01110800
v 0.02220000 0.00965600 -0.01110800
v 0.02220000 0.00972200 -0.01135500
v 0.02121100 0.00971000 -0.01145000
v 0.02121100 0.00972200 -0.01135500
v 0.02121100 0.00970600 -0.01122700
v 0.02220000 0.00970600 -0.01122700
v 0.02318800 0.00972200 -0.01160200
v 0.02318800 0.00873400 -0.01160200
v 0.02343500 0.00996900 -0.01184900
v 0.02343500 0.00848700 -0.01184900
v 0.02318800 0.00972200 -0.01110800
v 0.02343500 0.00996900 -0.01086100
v 0.02343500 0.00848700 -0.01086100
v 0.02318800 0.00873400 -0.01110800
v 0.02331100 0.01021600 -0.01061400
v 0.02331100 0.01021600 -0.01209600
v 0.02318800 0.01046400 -0.01036700
v 0.02318800 0.01046400 -0.01234300
v 0.02318800 0.00799300 -0.01036700
v 0.02331100 0.00824000 -0.01061400
v 0.02318800 0.00799300 -0.01234300
v 0.02331100 0.00824000 -0.01209600
v -0.03042100 0.02701300 0.04104700
v 0.02343500 0.02701300 0.04104700
v 0.02343500 -0.02684300 0.04104700
v -0.03042100 -0.02684300 0.04104700
v 0.02121100 -0.00707900 -0.02417300
v 0.02170500 0.00724900 -0.02417300
v 0.02170500 -0.00707900 -0.02417300
v 0.02121100 0.00724900 -0.02417300
v 0.02170500 -0.00707900 0.00127300
v 0.02121100 -0.00707900 0.00127300
v 0.02121100 0.00724900 0.00127300
v 0.02170500 0.00724900 0.00127300
v 0.02170500 0.00700200 0.00102600
v 0.02170500 -0.00683200 0.00102600
v 0.02170500 -0.00683200 -0.02392600
v 0.02170500 0.00700200 -0.02392600
v 0.02121100 0.00700200 -0.02392600
v 0.02121100 -0.00683200 -0.02392600
v 0.02121100 0.00700200 0.00102600
v 0.02121100 -0.00683200 0.00102600
v 0.01750600 0.01935500 0.03808200
v 0.01750600 0.01910800 0.03783500
v 0.01750600 0.01935500 0.03474700
v 0.01750600 -0.01893700 0.03783500
v 0.01750600 -0.01918400 0.03808200
v 0.01750600 -0.01893700 0.03499400
v 0.01750600 0.01910800 0.03499400
v 0.01750600 -0.01918400 0.03474700
v 0.02121100 -0.01473800 0.02190100
v 0.02170500 -0.01473800 0.02931200
v 0.02121100 -0.01473800 0.02931200
v 0.02170500 -0.01473800 0.02190100
v 0.02121100 0.01490800 0.02931200
v 0.02170500 0.01490800 0.02931200
v 0.02170500 0.01490800 0.02190100
v 0.02121100 0.01490800 0.02190100
v 0.02170500 0.01441400 0.02881800
v 0.02170500 -0.01424300 0.02881800
v 0.02170500 -0.01424300 0.02239500
v 0.02170500 0.01441400 0.02239500
v 0.02121100 0.01441400 0.02881800
v 0.02121100 -0.01424300 0.02881800
v 0.02121100 0.01441400 0.02239500
v 0.02121100 -0.01424300 0.02239500
v 0.01627000 0.01984900 -0.03553700
v 0.01627000 -0.01967900 -0.03553700
v 0.01627000 0.01984900 0.03857700
v 0.01627000 -0.01967900 0.03857700
v -0.02325700 0.01984900 -0.03553700
v 0.01627000 0.01984900 0.01387200
v -0.02325700 0.01984900 0.03857700
v -0.02325700 0.01984900 0.01387200
v 0.01627000 -0.01967900 0.01387200
v -0.02325700 -0.01967900 -0.03553700
v -0.02325700 -0.01967900 0.01387200
v -0.02325700 -0.01967900 0.03857700
v 0.01874100 0.01219000 0.00621400
v 0.01874100 -0.01202000 0.00621400
v 0.01874100 -0.01202000 -0.02911400
v 0.01874100 0.01219000 -0.02911400
v 0.02121100 0.00890900 -0.01145000
v 0.02121100 0.00916400 -0.01145000
v 0.02121100 0.01219000 -0.02911400
v 0.02121100 0.01219000 0.00621400
v 0.02121100 -0.01202000 0.00621400
v 0.02121100 -0.01202000 -0.02911400
v 0.01874100 0.01490800 0.02931200
v 0.01874100 -0.01473800 0.02931200
v 0.01874100 -0.01473800 0.02190100
v 0.01874100 0.01490800 0.02190100
v 0.02220000 -0.00115000 0.02659500
v 0.02220000 0.00132000 0.02659500
v 0.02220000 0.00132000 0.02461800
v 0.02220000 -0.00115000 0.02461800
v 0.02318800 0.00107300 0.02486500
v 0.02318800 -0.00090300 0.02486500
v 0.02318800 -0.00090300 0.02634800
v 0.02318800 0.00107300 0.02634800
v 0.02331100 -0.00065600 0.02511300
v 0.02331100 0.00082600 0.02511300
v 0.02331100 0.00082600 0.02610100
v 0.02331100 -0.00065600 0.02610100
v 0.02318800 -0.00065600 0.02511300
v 0.02318800 0.00082600 0.02511300
v 0.02318800 0.00082600 0.02610100
v 0.02318800 -0.00065600 0.02610100
v 0.02343500 -0.00090300 0.02486500
v 0.02343500 -0.00090300 0.02634800
v 0.02343500 0.00107300 0.02486500
v 0.02343500 0.00107300 0.02634800
v 0.02343500 -0.00040900 0.02536000
v 0.02343500 0.00057900 0.02536000
v 0.02343500 0.00057900 0.02585400
v 0.02343500 -0.00040900 0.02585400
v 0.02343500 0.00972200 -0.01110800
v 0.02343500 0.00972200 -0.01160200
v 0.02343500 0.00873400 -0.01160200
v 0.02343500 0.00873400 -0.01110800
v 0.02318800 0.00824000 -0.01209600
v 0.02318800 0.01021600 -0.01209600
v 0.02318800 0.00824000 -0.01061400
v 0.02331100 0.00996900 -0.01184900
v 0.02331100 0.00848700 -0.01184900
v 0.02331100 0.00848700 -0.01086100
v 0.02331100 0.00996900 -0.01086100
v 0.02318800 0.01021600 -0.01061400
v 0.02318800 0.00848700 -0.01086100
v 0.02318800 0.00996900 -0.01086100
v 0.02318800 0.00996900 -0.01184900
v 0.02318800 0.00848700 -0.01184900
v 0.02220000 0.00799300 -0.01036700
v 0.02220000 0.01046400 -0.01036700
v 0.02220000 0.00799300 -0.01234300
v 0.02220000 0.01046400 -0.01234300
v 0.02343500 0.01021600 -0.01061400
v 0.02343500 0.01021600 -0.01209600
v 0.02343500 0.00824000 -0.01209600
v 0.02343500 0.00824000 -0.01061400
v -0.02325700 0.02429600 0.03808200
v -0.02325700 0.02281300 0.03808200
v -0.02325700 0.02281300 -0.03726700
v -0.02325700 0.02281300 -0.03553700
v -0.02325700 0.02034300 -0.03726700
v -0.02325700 0.02034300 -0.05974800
v -0.02325700 0.02429600 -0.05974800
v 0.01602300 0.02034300 -0.05974800
v 0.01602300 0.02429600 -0.05974800
v 0.01602300 0.02429600 0.03808200
v 0.01602300 0.02281300 0.03808200
v 0.01602300 0.02281300 -0.03553700
v 0.01602300 0.02281300 -0.03726700
v 0.01602300 0.02034300 -0.03726700
v 0.02071700 0.02503700 -0.05974800
v 0.02071700 0.02503700 0.03808200
v 0.01676500 0.02503700 0.03808200
v 0.01676500 0.02503700 -0.05974800
v -0.02276300 0.02256600 0.03808200
v -0.02276300 0.02256600 -0.03553700
v -0.02276300 0.02256600 -0.03627800
v 0.01577600 0.02256600 -0.03627800
v 0.01577600 0.02256600 -0.03553700
v 0.01577600 0.02256600 0.03808200
v -0.02276300 0.01935500 -0.03701900
v -0.02276300 0.02182500 -0.03701900
v -0.02523300 0.01935500 -0.03701900
v -0.02523300 -0.01918400 -0.03701900
v -0.02276300 -0.01918400 -0.03701900
v -0.02276300 -0.02165500 -0.03701900
v 0.01577600 -0.02165500 -0.03701900
v 0.01577600 -0.01967900 -0.03701900
v 0.01577600 0.01984900 -0.03701900
v 0.01577600 0.02182500 -0.03701900
v 0.01923500 -0.01943100 0.03474700
v 0.01923500 -0.01943100 0.01646600
v 0.01800000 -0.01943100 0.01646600
v 0.01800000 -0.01943100 0.01436600
v 0.01923500 -0.01943100 0.01436600
v 0.01923500 -0.01943100 -0.03726700
v 0.01676500 -0.01943100 -0.03726700
v 0.01676500 -0.01943100 -0.05974800
v 0.02071700 -0.01943100 -0.05974800
v 0.02071700 -0.01943100 0.03808200
v 0.01800000 -0.01943100 0.03808200
v 0.01800000 -0.01943100 0.03474700
v -0.02375100 0.02503700 -0.05974800
v -0.02770400 0.02503700 -0.05974800
v -0.02375100 0.02503700 0.03808200
v -0.02770400 0.02503700 0.03808200
v -0.02844500 0.02454300 0.03832900
v -0.02844500 0.02009600 0.03832900
v -0.02844500 0.02009600 -0.05999500
v -0.02844500 0.02454300 -0.05999500
v -0.02597400 0.01935500 -0.03553700
v -0.02597400 0.01935500 -0.03627800
v -0.02597400 0.01935500 0.03808200
v -0.02597400 -0.01918400 0.03808200
v -0.02597400 -0.01918400 -0.03553700
v -0.02597400 -0.01918400 -0.03627800
v 0.01602300 -0.02264300 0.03808200
v 0.01602300 -0.02412500 0.03808200
v 0.01602300 -0.02412500 -0.05974800
v 0.01602300 -0.02017300 -0.05974800
v 0.01602300 -0.02017300 -0.03726700
v 0.01602300 -0.02264300 -0.03726700
v 0.01602300 -0.02264300 -0.03553700
v -0.02770400 -0.01943100 0.03808200
v -0.02770400 -0.01943100 -0.05974800
v -0.02375100 -0.01943100 -0.05974800
v -0.02375100 -0.01943100 -0.03726700
v -0.02622100 -0.01943100 -0.03726700
v -0.02622100 -0.01943100 -0.03553700
v -0.02622100 -0.01943100 0.03808200
v -0.02844500 -0.02017300 0.03808200
v -0.02844500 -0.02412500 0.03808200
v -0.02844500 -0.02412500 -0.05974800
v -0.02844500 -0.02017300 -0.05974800
v -0.02770400 -0.02486600 -0.05974800
v -0.02375100 -0.02486600 -0.05974800
v -0.02770400 -0.02486600 0.03808200
v -0.02375100 -0.02486600 0.03808200
v 0.01577600 -0.02239600 -0.03553700
v 0.01577600 -0.02239600 -0.03627800
v -0.02276300 -0.02239600 -0.03627800
v -0.02276300 -0.02239600 -0.03553700
v -0.02276300 -0.02239600 0.03808200
v 0.01577600 -0.02239600 0.03808200
v 0.02071700 -0.02486600 0.03808200
v 0.01676500 -0.02486600 0.03808200
v 0.02071700 -0.02486600 -0.05974800
v 0.01676500 -0.02486600 -0.05974800
v 0.02145800 -0.02017300 -0.05974800
v 0.02145800 -0.02017300 0.03808200
v 0.02145800 -0.02412500 -0.05974800
v 0.02145800 -0.02412500 0.03808200
v 0.01676500 0.01960200 -0.05974800
v 0.02071700 0.01960200 -0.05974800
v 0.01676500 0.01960200 -0.03726700
v 0.01923500 0.01960200 -0.03726700
v 0.01923500 0.01960200 0.01436600
v 0.01800000 0.01960200 0.01436600
v 0.01800000 0.01960200 0.01646600
v 0.01923500 0.01960200 0.01646600
v 0.01923500 0.01960200 0.03474700
v 0.01800000 0.01960200 0.03474700
v 0.01800000 0.01960200 0.03808200
v 0.02071700 0.01960200 0.03808200
v 0.02145800 0.02034300 0.03808200
v 0.02145800 0.02034300 -0.05974800
v 0.02145800 0.02429600 0.03808200
v 0.02145800 0.02429600 -0.05974800
vn 0.40824829 0.40824829 -0.81649658
vn 0.30151134 0.90453403 0.30151134
vn -0.40824829 0.40824829 -0.81649658
vn 0.30151134 0.90453403 -0.30151134
vn 0.57735027 0.57735027 -0.57735027
vn -0.30151134 0.90453403 -0.30151134
vn -0.30151134 0.90453403 0.30151134
vn -0.57735027 0.57735027 -0.57735027
vn 0.40824829 0.40824829 -0.81649658
vn 0.90453403 0.30151134 0.30151134
vn 0.57735027 0.57735027 -0.57735027
vn 0.90453403 -0.30151134 0.30151134
vn 0.40824829 -0.40824829 -0.81649658
vn 0.90453403 -0.30151134 -0.30151134
vn 0.90453403 0.30151134 -0.30151134
vn 0.57735027 -0.57735027 -0.57735027
vn 0.40824829 0.40824829 -0.81649658
vn 0.90453403 0.30151134 0.30151134
vn 0.57735027 0.57735027 -0.57735027
vn 0.90453403 -0.30151134 0.30151134
vn 0.40824829 -0.40824829 -0.81649658
vn 0.90453403 -0.30151134 -0.30151134
vn 0.90453403 0.30151134 -0.30151134
vn 0.57735027 -0.57735027 -0.57735027
vn 0.23570226 -0.94280904 0.23570226
vn 0.00000000 0.00000000 1.00000000
vn 0.23570226 0.94280904 0.23570226
vn 0.00000000 0.00000000 1.00000000
vn 0.23570226 -0.94280904 0.23570226
vn 0.00000000 0.00000000 1.00000000
vn 0.00000000 0.00000000 1.00000000
vn 0.23570226 0.94280904 0.23570226
vn 0.23570226 0.94280904 -0.23570226
vn 0.00000000 0.00000000 -1.00000000
vn 0.00000000 0.00000000 -1.00000000
vn 0.00000000 0.00000000 -1.00000000
vn 0.23570226 0.94280904 -0.23570226
vn 0.23570226 -0.94280904 -0.23570226
vn 0.23570226 -0.94280904 -0.23570226
vn 0.00000000 0.00000000 -1.00000000
vn 0.23570226 -0.94280904 0.23570226
vn 0.00000000 0.00000000 1.00000000
vn 0.23570226 0.94280904 0.23570226
vn 0.00000000 0.00000000 1.00000000
vn 0.40824829 -0.81649658 0.40824829
vn 0.00000000 0.00000000 1.00000000
vn 0.00000000 0.00000000 1.00000000
vn 0.40824829 0.81649658 0.40824829
vn -0.90453403 0.30151134 -0.30151134
vn -0.90453403 -0.30151134 -0.30151134
vn -0.57735027 -0.57735027 -0.57735027
vn -0.90453403 -0.30151134 0.30151134
vn -0.90453403 0.30151134 0.30151134
vn -0.70710678 -0.70710678 -0.00000000
vn -0.80178373 -0.53452248 -0.26726124
vn -0.30151134 -0.90453403 0.30151134
vn 0.23570226 -0.94280904 -0.23570226
vn -0.30151134 -0.90453403 -0.30151134
vn -0.57735027 -0.57735027 -0.57735027
vn 0.30151134 -0.90453403 -0.30151134
vn 0.33333333 -0.66666667 0.66666667
vn -0.30151134 -0.90453403 0.30151134
vn 0.30151134 -0.90453403 0.30151134
vn -0.30151134 -0.90453403 -0.30151134
vn -0.57735027 -0.57735027 -0.57735027
vn -0.57735027 -0.57735027 0.57735027
vn -0.30151134 -0.90453403 0.30151134
vn -0.30151134 -0.90453403 -0.30151134
vn -0.57735027 -0.57735027 -0.57735027
vn -0.57735027 -0.57735027 0.57735027
vn 0.30151134 0.90453403 0.30151134
vn -0.40824829 0.40824829 -0.81649658
vn 0.30151134 0.90453403 -0.30151134
vn -0.30151134 0.90453403 -0.30151134
vn -0.30151134 0.90453403 0.30151134
vn -0.57735027 0.57735027 -0.57735027
vn -0.40824829 -0.40824829 -0.81649658
vn -0.30151134 -0.90453403 0.30151134
vn -0.30151134 -0.90453403 -0.30151134
vn -0.57735027 -0.57735027 -0.57735027
vn 0.30151134 -0.90453403 -0.30151134
vn 0.30151134 -0.90453403 0.30151134
vn -0.57735027 0.57735027 -0.57735027
vn -0.30151134 0.90453403 -0.30151134
vn 0.23570226 0.94280904 -0.23570226
vn -0.57735027 0.57735027 0.57735027
vn -0.80178373 0.53452248 -0.26726124
vn -0.30151134 0.90453403 0.30151134
vn -0.30151134 0.90453403 -0.30151134
vn -0.57735027 0.57735027 -0.57735027
vn -0.57735027 0.57735027 -0.57735027
vn -0.30151134 0.90453403 -0.30151134
vn -0.57735027 0.57735027 0.57735027
vn -0.30151134 0.90453403 0.30151134
vn 0.30151134 0.90453403 0.30151134
vn 0.33333333 0.66666667 0.66666667
vn 0.30151134 0.90453403 -0.30151134
vn -0.30151134 0.90453403 0.30151134
vn -0.40824829 0.40824829 0.81649658
vn 0.30151134 0.90453403 0.30151134
vn 0.66666667 0.33333333 0.66666667
vn -0.83205029 0.55470020 0.00000000
vn 0.70710678 0.70710678 0.00000000
vn 0.30151134 0.90453403 -0.30151134
vn -0.94280904 0.23570226 -0.23570226
vn -0.30151134 0.90453403 -0.30151134
vn -0.30151134 0.90453403 0.30151134
vn -0.70710678 0.70710678 0.00000000
vn 0.89442719 0.44721360 0.00000000
vn 0.94280904 0.23570226 -0.23570226
vn 0.00000000 -1.00000000 0.00000000
vn -0.33333333 -0.66666667 0.66666667
vn 0.00000000 -1.00000000 0.00000000
vn 0.00000000 -1.00000000 0.00000000
vn 0.00000000 -1.00000000 0.00000000
vn 0.00000000 -1.00000000 0.00000000
vn 0.00000000 -1.00000000 0.00000000
vn -0.23570226 -0.94280904 -0.23570226
vn 0.00000000 -1.00000000 0.00000000
vn 0.48507125 -0.48507125 -0.72760688
vn 0.00000000 -1.00000000 0.00000000
vn 0.57735027 -0.57735027 -0.57735027
vn 0.00000000 0.00000000 -1.00000000
vn 0.00000000 0.00000000 -1.00000000
vn 0.00000000 0.00000000 -1.00000000
vn 0.00000000 0.00000000 -1.00000000
vn -0.57735027 -0.57735027 0.57735027
vn -0.90453403 -0.30151134 0.30151134
vn 0.00000000 -1.00000000 0.00000000
vn -0.90453403 -0.30151134 0.30151134
vn -0.90453403 0.30151134 -0.30151134
vn -0.90453403 -0.30151134 -0.30151134
vn -0.90453403 0.30151134 0.30151134
vn -0.90453403 0.30151134 -0.30151134
vn -0.90453403 -0.30151134 -0.30151134
vn -0.70710678 -0.70710678 0.00000000
vn -0.23570226 0.94280904 -0.23570226
vn -0.90453403 -0.30151134 0.30151134
vn -0.70710678 0.70710678 0.00000000
vn -0.90453403 0.30151134 0.30151134
vn -0.44721360 0.89442719 0.00000000
vn -0.33333333 0.66666667 0.66666667
vn -0.57735027 0.57735027 -0.57735027
vn -0.90453403 0.30151134 -0.30151134
vn -0.70710678 0.70710678 0.00000000
vn -0.90453403 -0.30151134 -0.30151134
vn -0.57735027 -0.57735027 -0.57735027
vn -0.90453403 -0.30151134 0.30151134
vn -0.90453403 0.30151134 0.30151134
vn -0.40824829 -0.40824829 -0.81649658
vn -0.90453403 0.30151134 -0.30151134
vn -0.90453403 -0.30151134 -0.30151134
vn -0.90453403 -0.30151134 0.30151134
vn -0.90453403 0.30151134 0.30151134
vn -0.94280904 -0.23570226 -0.23570226
vn -0.66666667 -0.33333333 0.66666667
vn -0.70710678 -0.70710678 0.00000000
vn -0.57735027 0.57735027 0.57735027
vn -0.70710678 0.70710678 0.00000000
vn -0.90453403 0.30151134 0.30151134
vn -0.57735027 0.57735027 -0.57735027
vn -0.30151134 0.30151134 -0.90453403
vn -0.30151134 0.30151134 -0.90453403
vn 0.30151134 -0.30151134 -0.90453403
vn -0.30151134 -0.30151134 -0.90453403
vn 0.94280904 -0.23570226 -0.23570226
vn -0.57735027 -0.57735027 -0.57735027
vn 0.48507125 0.48507125 -0.72760688
vn -0.30151134 -0.30151134 -0.90453403
vn 0.70710678 0.00000000 -0.70710678
vn 0.70710678 0.00000000 -0.70710678
vn 0.30151134 0.30151134 -0.90453403
vn 0.30151134 0.90453403 0.30151134
vn 0.30151134 0.90453403 -0.30151134
vn 0.57735027 0.57735027 -0.57735027
vn -0.30151134 0.90453403 -0.30151134
vn 0.30151134 0.90453403 0.30151134
vn 0.70710678 0.70710678 0.00000000
vn 0.57735027 0.57735027 0.57735027
vn -0.30151134 0.90453403 0.30151134
vn -0.30151134 -0.90453403 0.30151134
vn 0.40824829 -0.40824829 -0.81649658
vn -0.30151134 -0.90453403 -0.30151134
vn 0.30151134 -0.90453403 -0.30151134
vn 0.30151134 -0.90453403 0.30151134
vn 0.57735027 -0.57735027 -0.57735027
vn 0.66666667 -0.33333333 0.66666667
vn -0.30151134 -0.90453403 0.30151134
vn 0.70710678 -0.70710678 0.00000000
vn -0.70710678 -0.70710678 0.00000000
vn -0.30151134 -0.90453403 -0.30151134
vn 0.30151134 -0.90453403 -0.30151134
vn 0.30151134 -0.90453403 0.30151134
vn 0.70710678 -0.70710678 0.00000000
vn 1.00000000 0.00000000 0.00000000
vn 1.00000000 0.00000000 0.00000000
vn 1.00000000 0.00000000 0.00000000
vn 1.00000000 0.00000000 0.00000000
vn 1.00000000 0.00000000 0.00000000
vn 1.00000000 0.00000000 0.00000000
vn 1.00000000 0.00000000 0.00000000
vn 0.57735027 0.57735027 -0.57735027
vn 0.90453403 0.30151134 0.30151134
vn 0.57735027 0.57735027 0.57735027
vn 0.90453403 0.30151134 -0.30151134
vn 0.90453403 -0.30151134 -0.30151134
vn 0.57735027 -0.57735027 -0.57735027
vn 0.57735027 -0.57735027 0.57735027
vn 0.90453403 -0.30151134 0.30151134
vn 0.90453403 -0.30151134 -0.30151134
vn 0.90453403 0.30151134 -0.30151134
vn 0.90453403 0.30151134 0.30151134
vn 0.90453403 -0.30151134 0.30151134
vn 0.91754210 0.28116268 -0.28118330
vn 0.91754210 0.28116268 0.28118330
vn 0.91754210 -0.28116268 -0.28118330
vn 0.91754210 -0.28116268 0.28118330
vn 0.57735027 -0.57735027 0.57735027
vn -0.30151134 -0.90453403 0.30151134
vn -0.57735027 -0.57735027 0.57735027
vn 0.30151134 -0.90453403 0.30151134
vn 0.30151134 -0.90453403 -0.30151134
vn 0.57735027 -0.57735027 -0.57735027
vn -0.57735027 -0.57735027 -0.57735027
vn -0.30151134 -0.90453403 -0.30151134
vn 0.57735027 0.57735027 0.57735027
vn -0.30151134 -0.30151134 0.90453403
vn 0.57735027 -0.57735027 0.57735027
vn 0.30151134 -0.30151134 0.90453403
vn -0.57735027 0.57735027 0.57735027
vn 0.30151134 0.30151134 0.90453403
vn -0.30151134 0.30151134 0.90453403
vn -0.57735027 -0.57735027 0.57735027
vn 0.00000000 -0.70710678 -0.70710678
vn 0.30151134 0.30151134 -0.90453403
vn -0.30151134 0.30151134 -0.90453403
vn 0.00000000 -0.70710678 -0.70710678
vn -0.57735027 -0.57735027 -0.57735027
vn 0.57735027 -0.57735027 -0.57735027
vn 0.90453403 -0.30151134 -0.30151134
vn 0.57735027 0.57735027 -0.57735027
vn 0.90453403 0.30151134 -0.30151134
vn 0.90453403 0.30151134 0.30151134
vn 0.90453403 -0.30151134 0.30151134
vn -0.30151134 0.90453403 -0.30151134
vn -0.30151134 0.90453403 0.30151134
vn 0.30151134 0.90453403 0.30151134
vn 0.30151134 0.90453403 -0.30151134
vn -0.57735027 0.57735027 -0.57735027
vn -0.70710678 0.00000000 -0.70710678
vn -0.90453403 0.30151134 0.30151134
vn -0.90453403 -0.30151134 0.30151134
vn -0.90453403 0.30151134 -0.30151134
vn -0.90453403 -0.30151134 -0.30151134
vn 0.30151134 -0.30151134 -0.90453403
vn 0.57735027 0.57735027 -0.57735027
vn -0.57735027 0.57735027 -0.57735027
vn -0.57735027 -0.57735027 -0.57735027
vn -0.30151134 -0.30151134 -0.90453403
vn 0.57735027 -0.57735027 -0.57735027
vn 0.57735027 0.57735027 -0.57735027
vn 0.57735027 0.57735027 0.57735027
vn -0.57735027 0.57735027 0.57735027
vn -0.57735027 0.57735027 -0.57735027
vn -0.57735027 -0.57735027 -0.57735027
vn -0.57735027 -0.57735027 0.57735027
vn -0.57735027 0.57735027 -0.57735027
vn -0.57735027 0.57735027 0.57735027
vn 0.57735027 -0.57735027 0.57735027
vn 0.57735027 0.57735027 0.57735027
vn 0.57735027 0.57735027 -0.57735027
vn 0.57735027 -0.57735027 -0.57735027
vn 0.57735027 -0.57735027 -0.57735027
vn 0.90453403 0.30151134 -0.30151134
vn 0.57735027 0.57735027 -0.57735027
vn 0.90453403 -0.30151134 -0.30151134
vn 0.57735027 -0.57735027 0.57735027
vn 0.90453403 -0.30151134 0.30151134
vn 0.90453403 0.30151134 0.30151134
vn 0.57735027 0.57735027 0.57735027
vn 0.90453403 -0.30151134 -0.30151134
vn 0.90453403 0.30151134 -0.30151134
vn 0.90453403 -0.30151134 0.30151134
vn 0.90453403 0.30151134 0.30151134
vn 0.91754210 -0.28118330 0.28116268
vn 0.91754210 -0.28118330 -0.28116268
vn 0.91754210 0.28118330 0.28116268
vn 0.91754210 0.28118330 -0.28116268
vn 0.90453403 0.30151134 0.30151134
vn 0.57735027 -0.57735027 0.57735027
vn 0.57735027 0.57735027 0.57735027
vn 0.90453403 -0.30151134 0.30151134
vn 0.57735027 0.57735027 -0.57735027
vn 0.90453403 0.30151134 -0.30151134
vn 0.57735027 -0.57735027 -0.57735027
vn 0.90453403 -0.30151134 -0.30151134
vn 0.90453403 -0.30151134 -0.30151134
vn 0.90453403 0.30151134 -0.30151134
vn 0.90453403 0.30151134 0.30151134
vn 0.90453403 -0.30151134 0.30151134
vn 0.57735027 -0.57735027 0.57735027
vn 0.57735027 0.57735027 0.57735027
vn 0.57735027 0.57735027 -0.57735027
vn 0.57735027 -0.57735027 -0.57735027
vn 0.67882907 0.63660544 0.36595712
vn 0.73866924 0.47551631 0.47775726
vn 0.67805108 0.51851072 0.52095429
vn 0.73775347 0.58525879 0.33644014
vn 0.68005368 0.36617420 0.63517199
vn 0.73632048 0.33794089 0.58619800
vn 0.67920751 0.70902801 0.18962181
vn 0.73730953 0.65261925 0.17453590
vn 0.67846973 0.19233884 0.70900253
vn 0.73817592 0.17662450 0.65107611
vn 0.67863965 0.73447139 -0.00000000
vn 0.73797605 0.67482691 0.00000000
vn 0.67863965 -0.00000000 0.73447139
vn 0.73797605 0.00000000 0.67482691
vn 0.67920751 0.70902801 -0.18962181
vn 0.73730953 0.65261925 -0.17453590
vn 0.67846973 -0.19233884 0.70900253
vn 0.73817592 -0.17662450 0.65107611
vn 0.67931368 0.63707479 -0.36423707
vn 0.73718517 0.58658679 -0.33537139
vn 0.67956780 -0.36789221 0.63469909
vn 0.73688781 -0.33900813 0.58486738
vn 0.67756866 0.52004842 -0.52004842
vn 0.73923920 0.47619607 -0.47619607
vn 0.67916847 -0.51740371 0.52059927
vn 0.73735529 -0.47618151 0.47912248
vn 0.73632048 0.33794089 -0.58619800
vn 0.68005368 0.36617420 -0.63517199
vn 0.73849868 -0.58351469 0.33783179
vn 0.67819571 -0.63598209 0.36820833
vn 0.73910696 0.17385820 -0.65076434
vn 0.67768046 0.18980111 -0.71043981
vn 0.73730953 -0.65261925 0.17453590
vn 0.67920751 -0.70902801 0.18962181
vn 0.73611983 -0.00000000 -0.67685124
vn 0.68022586 0.00000000 -0.73300258
vn 0.73797605 -0.67482691 -0.00000000
vn 0.67863965 -0.73447139 0.00000000
vn 0.73910696 -0.17385820 -0.65076434
vn 0.67768046 -0.18980111 -0.71043981
vn 0.73730953 -0.65261925 -0.17453590
vn 0.67920751 -0.70902801 -0.18962181
vn 0.73688781 -0.33900813 -0.58486738
vn 0.67956780 -0.36789221 -0.63469909
vn 0.73792764 -0.58485142 -0.33676639
vn 0.67868082 -0.63646054 -0.36648372
vn 0.73792567 -0.47686994 -0.47755707
vn 0.67868250 -0.51894769 -0.51969545
vn 0.00000000 -0.70710678 -0.70710678
vn -1.00000000 0.00000000 0.00000000
vn -0.00000000 -0.70710678 0.70710678
vn -1.00000000 -0.00000000 0.00000000
vn -1.00000000 0.00000000 0.00000000
vn 0.00000000 0.70710678 0.70710678
vn -1.00000000 0.00000000 0.00000000
vn -0.00000000 0.70710678 -0.70710678
vn -1.00000000 0.00000000 -0.00000000
vn -1.00000000 0.00000000 0.00000000
vn -0.57735027 0.57735027 0.57735027
vn -0.57735027 -0.57735027 0.57735027
vn -0.57735027 -0.57735027 -0.57735027
vn -1.00000000 -0.00000000 -0.00000000
vn -1.00000000 -0.00000000 0.00000000
vn -0.57735027 0.57735027 -0.57735027
vn 0.89436243 -0.44369273 -0.05703163
vn 0.67863342 -0.73447715 -0.00000087
vn 0.89602836 -0.44399594 -0.00087859
vn 0.89597998 -0.42961186 -0.11248791
vn 0.67920751 -0.70902801 -0.18962181
vn 0.89603265 -0.38423689 -0.22245787
vn 0.67819571 -0.63598209 -0.36820833
vn 0.67920751 -0.70902801 0.18962181
vn 0.89591757 -0.42913858 0.11476843
vn 0.89577765 -0.31657145 -0.31203354
vn 0.67980403 -0.51858773 -0.51858773
vn 0.67819571 -0.63598209 0.36820833
vn 0.89603265 -0.38423689 0.22245787
vn 0.67820566 -0.36820255 -0.63597482
vn 0.89453696 -0.27553585 -0.35197105
vn 0.89595406 -0.22125365 -0.38511445
vn 0.67980403 -0.51858773 0.51858773
vn 0.89629360 -0.31357439 0.31357439
vn 0.67920751 -0.18962181 -0.70902801
vn 0.89587843 -0.11629794 -0.42880837
vn 0.89621999 -0.22226833 0.38390951
vn 0.67819571 -0.36820833 0.63598209
vn 1.00000000 0.00000000 0.00000000
vn 0.67864783 0.00000099 -0.73446383
vn 0.89447956 -0.05900234 -0.44319866
vn 0.89589270 0.00170705 -0.44426721
vn 0.89613304 -0.11465609 0.42871851
vn 0.67920751 -0.18962181 0.70902801
vn 0.67920751 0.18962181 -0.70902801
vn 0.89591757 0.11476843 -0.42913858
vn 0.89619738 0.00000000 0.44365555
vn 0.67863965 -0.00000000 0.73447139
vn 1.00000000 0.00000000 0.00000000
vn 0.67868082 0.36648372 -0.63646054
vn 0.89597689 0.22160713 -0.38485801
vn 0.89591757 0.11476843 0.42913858
vn 0.67920751 0.18962181 0.70902801
vn 0.67868250 0.51969545 -0.51894769
vn 0.89597670 0.31425287 -0.31380071
vn 0.89597689 0.22160713 0.38485801
vn 0.67868082 0.36648372 0.63646054
vn 0.67956780 0.63469909 -0.36789221
vn 0.89587771 0.38439528 -0.22280799
vn 0.89597670 0.31425287 0.31380071
vn 0.67868250 0.51969545 0.51894769
vn 0.67768046 0.71043981 -0.18980111
vn 0.89611517 0.42897865 -0.11381965
vn 0.89587771 0.38439528 0.22280799
vn 0.67956780 0.63469909 0.36789221
vn 0.68022384 0.73300445 -0.00000028
vn 0.89440473 0.44388045 -0.05486645
vn 0.89582078 0.44441540 -0.00028783
vn 0.89609305 0.42882637 0.11456526
vn 0.67768046 0.71043981 0.18980111
vn -1.00000000 0.00000000 0.00000000
vn -1.00000000 0.00000000 -0.00000000
vn 0.00000000 0.70710678 -0.70710678
vn -0.00000000 -0.70710678 -0.70710678
vn -1.00000000 -0.00000000 0.00000000
vn -0.00000000 0.70710678 0.70710678
vn 0.00000000 -0.70710678 0.70710678
vn -1.00000000 -0.00000000 0.00000000
vn -0.57735027 -0.57735027 -0.57735027
vn -0.57735027 -0.57735027 0.57735027
vn -1.00000000 0.00000000 -0.00000000
vn -1.00000000 -0.00000000 -0.00000000
vn -1.00000000 0.00000000 0.00000000
vn -0.57735027 0.57735027 -0.57735027
vn -1.00000000 0.00000000 0.00000000
vn -0.57735027 0.57735027 0.57735027
vn 0.57735027 -0.57735027 0.57735027
vn -0.57735027 -0.57735027 0.57735027
vn -0.57735027 0.57735027 0.57735027
vn 0.57735027 0.57735027 0.57735027
vn 0.90453403 -0.30151134 -0.30151134
vn 0.57735027 0.57735027 -0.57735027
vn 0.57735027 -0.57735027 -0.57735027
vn 0.90453403 0.30151134 -0.30151134
vn 0.57735027 -0.57735027 0.57735027
vn 0.90453403 -0.30151134 0.30151134
vn 0.90453403 0.30151134 0.30151134
vn 0.57735027 0.57735027 0.57735027
vn 0.90453403 -0.30151134 -0.30151134
vn 0.90453403 0.30151134 -0.30151134
vn 0.90453403 0.30151134 0.30151134
vn 0.90453403 -0.30151134 0.30151134
vn 0.57735027 -0.57735027 0.57735027
vn 0.57735027 0.57735027 0.57735027
vn 0.57735027 -0.57735027 -0.57735027
vn 0.57735027 0.57735027 -0.57735027
vn 1.00000000 0.00000000 0.00000000
vn 1.00000000 0.00000000 0.00000000
vn 1.00000000 0.00000000 0.00000000
vn 1.00000000 0.00000000 0.00000000
vn 1.00000000 0.00000000 0.00000000
vn 1.00000000 0.00000000 0.00000000
vn 1.00000000 0.00000000 0.00000000
vn 1.00000000 0.00000000 0.00000000
vn 0.42274120 -0.64085106 -0.64078061
vn 0.57735027 -0.57735027 0.57735027
vn 0.42274120 -0.64085106 0.64078061
vn 0.57735027 -0.57735027 -0.57735027
vn 0.42274120 0.64085106 0.64078061
vn 0.57735027 0.57735027 0.57735027
vn 0.57735027 0.57735027 -0.57735027
vn 0.42274120 0.64085106 -0.64078061
vn 0.90453403 -0.30151134 -0.30151134
vn 0.90453403 0.30151134 -0.30151134
vn 0.90453403 0.30151134 0.30151134
vn 0.90453403 -0.30151134 0.30151134
vn 0.57735027 -0.57735027 -0.57735027
vn 0.57735027 0.57735027 -0.57735027
vn 0.57735027 -0.57735027 0.57735027
vn 0.57735027 0.57735027 0.57735027
vn -0.68824720 -0.68824720 0.22941573
vn -0.78446454 0.58834841 0.19611614
vn -0.26726124 -0.53452248 0.80178373
vn -0.48507125 0.48507125 0.72760688
vn 0.68824720 -0.68824720 0.22941573
vn -0.43643578 -0.87287156 0.21821789
vn 0.48507125 -0.48507125 0.72760688
vn 0.69631062 -0.69631062 0.17407766
vn -0.43643578 0.87287156 0.21821789
vn 0.68824720 0.68824720 0.22941573
vn 0.69631062 0.69631062 0.17407766
vn 0.48507125 0.48507125 0.72760688
vn 0.90453403 0.30151134 0.30151134
vn 0.90453403 -0.30151134 0.30151134
vn 0.90453403 -0.30151134 -0.30151134
vn 0.90453403 0.30151134 -0.30151134
vn 1.00000000 0.00000000 0.00000000
vn 1.00000000 0.00000000 0.00000000
vn 0.72673584 0.48568354 -0.48576385
vn 0.72673584 0.48568354 0.48576385
vn 0.72673584 -0.48568354 0.48576385
vn 0.72673584 -0.48568354 -0.48576385
vn 0.90453403 0.30151134 0.30151134
vn 0.90453403 -0.30151134 0.30151134
vn 0.90453403 -0.30151134 -0.30151134
vn 0.90453403 0.30151134 -0.30151134
vn 0.00000000 0.00000000 0.00000000
vn -0.00000000 0.00000000 0.00000000
vn -0.00000000 0.00000000 0.00000000
vn -0.00000000 -0.00000000 0.00000000
vn -0.90453403 -0.30151134 0.30151134
vn -0.90453403 0.30151134 0.30151134
vn -0.90453403 0.30151134 -0.30151134
vn -0.90453403 -0.30151134 -0.30151134
vn -0.72760688 -0.48507125 -0.48507125
vn -0.72760688 0.48507125 -0.48507125
vn -0.72760688 0.48507125 0.48507125
vn -0.72760688 -0.48507125 0.48507125
vn -0.57735027 -0.57735027 -0.57735027
vn -0.57735027 0.57735027 -0.57735027
vn -0.57735027 0.57735027 0.57735027
vn -0.57735027 -0.57735027 0.57735027
vn 0.00000000 0.00000000 0.00000000
vn 0.00000000 -0.00000000 0.00000000
vn 0.00000000 0.00000000 -0.00000000
vn 0.00000000 -0.00000000 -0.00000000
vn 0.00000000 -0.00000000 -0.00000000
vn 0.00000000 0.00000000 0.00000000
vn 0.00000000 0.00000000 0.00000000
vn 0.00000000 0.00000000 0.00000000
vn 0.00000000 0.00000000 -0.00000000
vn 0.00000000 -0.00000000 -0.00000000
vn 0.00000000 -0.00000000 0.00000000
vn 0.00000000 0.00000000 0.00000000
vn -0.90453403 0.30151134 0.30151134
vn -0.90453403 -0.30151134 0.30151134
vn -0.90453403 0.30151134 -0.30151134
vn -0.72760688 0.48507125 -0.48507125
vn -0.72760688 -0.48507125 -0.48507125
vn -0.72760688 -0.48507125 0.48507125
vn -0.72760688 0.48507125 0.48507125
vn -0.90453403 -0.30151134 -0.30151134
vn -0.57735027 -0.57735027 0.57735027
vn -0.57735027 0.57735027 0.57735027
vn -0.57735027 0.57735027 -0.57735027
vn -0.57735027 -0.57735027 -0.57735027
vn -0.00000000 -0.00000000 0.00000000
vn 0.00000000 -0.00000000 0.00000000
vn 0.00000000 0.00000000 0.00000000
vn -0.00000000 0.00000000 0.00000000
vn -0.00000000 0.00000000 -0.00000000
vn -0.00000000 -0.00000000 0.00000000
vn 0.00000000 -0.00000000 -0.00000000
vn -0.00000000 0.00000000 0.00000000
vn 1.00000000 0.00000000 0.00000000
vn 1.00000000 0.00000000 0.00000000
vn 1.00000000 0.00000000 0.00000000
vn 1.00000000 0.00000000 0.00000000
vn 1.00000000 0.00000000 0.00000000
vn 1.00000000 0.00000000 0.00000000
vn 1.00000000 0.00000000 0.00000000
vn -0.57735027 -0.57735027 -0.57735027
vn -0.57735027 0.57735027 -0.57735027
vn -0.57735027 0.57735027 0.57735027
vn -0.57735027 -0.57735027 0.57735027
vn -0.70710678 -0.70710678 0.00000000
vn -0.90453403 -0.30151134 0.30151134
vn -0.57735027 -0.57735027 0.57735027
vn 0.57735027 0.57735027 -0.57735027
vn 0.57735027 0.57735027 0.57735027
vn -0.57735027 0.57735027 0.57735027
vn -0.57735027 0.57735027 -0.57735027
vn -0.57735027 0.57735027 0.57735027
vn -0.70710678 0.70710678 0.00000000
vn -0.57735027 0.57735027 -0.57735027
vn 0.57735027 0.57735027 -0.57735027
vn 0.70710678 0.70710678 0.00000000
vn 0.57735027 0.57735027 0.57735027
vn -0.30151134 0.30151134 -0.90453403
vn -0.57735027 0.57735027 -0.57735027
vn -0.57735027 0.57735027 -0.57735027
vn -0.57735027 -0.57735027 -0.57735027
vn -0.30151134 -0.30151134 -0.90453403
vn -0.57735027 -0.57735027 -0.57735027
vn 0.57735027 -0.57735027 -0.57735027
vn 1.00000000 0.00000000 0.00000000
vn 1.00000000 0.00000000 0.00000000
vn 0.57735027 0.57735027 -0.57735027
vn -0.30151134 0.90453403 -0.30151134
vn -0.30151134 0.90453403 0.30151134
vn -0.57735027 0.57735027 0.57735027
vn -0.57735027 0.57735027 -0.57735027
vn -0.30151134 0.90453403 -0.30151134
vn -0.30151134 0.90453403 0.30151134
vn -0.57735027 0.57735027 0.57735027
vn -0.57735027 0.57735027 -0.57735027
vn 0.57735027 0.57735027 -0.57735027
vn 0.57735027 0.57735027 0.57735027
vn -0.57735027 0.57735027 0.57735027
vn -0.57735027 0.57735027 -0.57735027
vn 0.57735027 0.57735027 -0.57735027
vn -0.57735027 0.57735027 -0.57735027
vn 0.57735027 0.57735027 0.57735027
vn -0.57735027 0.57735027 0.57735027
vn -0.57735027 0.57735027 0.57735027
vn -0.57735027 -0.57735027 0.57735027
vn -0.57735027 -0.57735027 -0.57735027
vn -0.57735027 0.57735027 -0.57735027
vn 0.00000000 1.00000000 0.00000000
vn -0.57735027 0.57735027 -0.57735027
vn -0.57735027 0.57735027 0.57735027
vn -0.57735027 -0.57735027 0.57735027
vn -0.70710678 -0.70710678 0.00000000
vn -0.57735027 -0.57735027 -0.57735027
vn -0.57735027 0.57735027 0.57735027
vn -0.57735027 -0.57735027 0.57735027
vn -0.57735027 -0.57735027 -0.57735027
vn -0.57735027 0.57735027 -0.57735027
vn -0.57735027 0.57735027 0.57735027
vn -0.90453403 0.30151134 0.30151134
vn 0.00000000 1.00000000 0.00000000
vn -0.57735027 0.57735027 0.57735027
vn -0.57735027 0.57735027 -0.57735027
vn 0.57735027 0.57735027 -0.57735027
vn 0.57735027 0.57735027 0.57735027
vn 0.30151134 0.90453403 0.30151134
vn 0.70710678 0.70710678 0.00000000
vn 0.57735027 0.57735027 0.57735027
vn -0.57735027 0.57735027 0.57735027
vn -0.57735027 -0.57735027 0.57735027
vn -0.57735027 -0.57735027 -0.57735027
vn -0.57735027 0.57735027 -0.57735027
vn -0.57735027 -0.57735027 -0.57735027
vn 0.57735027 -0.57735027 -0.57735027
vn -0.57735027 -0.57735027 0.57735027
vn 0.57735027 -0.57735027 0.57735027
vn 0.70710678 -0.70710678 0.00000000
vn 0.57735027 -0.57735027 -0.57735027
vn -0.57735027 -0.57735027 -0.57735027
vn -0.70710678 -0.70710678 0.00000000
vn -0.57735027 -0.57735027 0.57735027
vn 0.57735027 -0.57735027 0.57735027
vn 0.57735027 -0.57735027 0.57735027
vn -0.57735027 -0.57735027 0.57735027
vn 0.57735027 -0.57735027 -0.57735027
vn -0.57735027 -0.57735027 -0.57735027
vn 0.57735027 0.57735027 -0.57735027
vn 0.57735027 0.57735027 0.57735027
vn 0.57735027 -0.57735027 -0.57735027
vn 0.57735027 -0.57735027 0.57735027
vn -0.57735027 -0.57735027 -0.57735027
vn 0.57735027 -0.57735027 -0.57735027
vn -0.57735027 -0.57735027 0.57735027
vn -0.30151134 -0.90453403 0.30151134
vn -0.30151134 -0.90453403 -0.30151134
vn -0.57735027 -0.57735027 -0.57735027
vn -0.57735027 -0.57735027 0.57735027
vn -0.30151134 -0.90453403 0.30151134
vn -0.30151134 -0.90453403 -0.30151134
vn -0.57735027 -0.57735027 -0.57735027
vn -0.57735027 -0.57735027 0.57735027
vn 0.57735027 -0.57735027 0.57735027
vn 0.57735027 -0.57735027 0.57735027
vn 0.57735027 -0.57735027 -0.57735027
vn 0.57735027 0.57735027 0.57735027
vn 0.57735027 0.57735027 -0.57735027
f 1//1 2//2 3//3
f 1//1 4//4 2//2
f 4//4 5//5 6//6
f 5//5 4//4 1//1
f 7//7 3//3 2//2
f 6//6 3//3 7//7
f 6//6 8//8 3//3
f 8//8 6//6 5//5
f 9//9 10//10 11//11
f 9//9 12//12 10//10
f 12//12 13//13 14//14
f 13//13 12//12 9//9
f 15//15 11//11 10//10
f 14//14 11//11 15//15
f 14//14 16//16 11//11
f 16//16 14//14 13//13
f 17//17 18//18 19//19
f 17//17 20//20 18//18
f 20//20 21//21 22//22
f 21//21 20//20 17//17
f 23//23 19//19 18//18
f 22//22 19//19 23//23
f 22//22 24//24 19//19
f 24//24 22//22 21//21
f 25//25 26//26 27//27
f 25//25 28//28 26//26
f 28//28 29//29 30//30
f 29//29 28//28 25//25
f 31//31 27//27 26//26
f 30//30 27//27 31//31
f 30//30 32//32 27//27
f 32//32 30//30 29//29
f 33//33 34//34 35//35
f 33//33 36//36 34//34
f 36//36 37//37 38//38
f 37//37 36//36 33//33
f 35//35 39//39 33//33
f 40//40 39//39 35//35
f 40//40 38//38 39//39
f 38//38 40//40 36//36
f 41//41 42//42 43//43
f 41//41 44//44 42//42
f 44//44 45//45 46//46
f 45//45 44//44 41//41
f 47//47 43//43 42//42
f 46//46 43//43 47//47
f 46//46 48//48 43//43
f 48//48 46//46 45//45
f 8//8 49//49 3//3
f 8//8 50//50 49//49
f 50//50 51//51 52//52
f 51//51 50//50 8//8
f 53//53 3//3 49//49
f 52//52 3//3 53//53
f 52//52 54//54 3//3
f 54//54 52//52 51//51
f 55//55 56//56 57//57
f 55//55 58//58 56//56
f 58//58 59//59 60//60
f 59//59 58//58 55//55
f 61//61 62//62 63//63
f 61//61 64//64 62//62
f 64//64 29//29 25//25
f 29//29 64//64 61//61
f 63//63 13//13 61//61
f 60//60 13//13 63//63
f 60//60 16//16 13//13
f 16//16 60//60 59//59
f 25//25 65//65 64//64
f 39//39 65//65 25//25
f 39//39 66//66 65//65
f 38//38 66//66 39//39
f 38//38 67//67 66//66
f 38//38 68//68 67//67
f 68//68 45//45 41//41
f 45//45 68//68 38//38
f 41//41 69//69 68//68
f 57//57 69//69 41//41
f 57//57 70//70 69//69
f 70//70 57//57 56//56
f 9//9 71//71 72//72
f 9//9 73//73 71//71
f 73//73 11//11 74//74
f 11//11 73//73 9//9
f 75//75 72//72 71//71
f 74//74 72//72 75//75
f 74//74 76//76 72//72
f 76//76 74//74 11//11
f 77//77 78//78 21//21
f 77//77 79//79 78//78
f 79//79 80//80 81//81
f 80//80 79//79 77//77
f 82//82 21//21 78//78
f 81//81 21//21 82//82
f 81//81 24//24 21//21
f 24//24 81//81 80//80
f 83//83 43//43 84//84
f 83//83 85//85 43//43
f 86//86 85//85 83//83
f 86//86 87//87 85//85
f 88//88 87//87 86//86
f 89//89 87//87 88//88
f 89//89 90//90 87//87
f 90//90 89//89 19//19
f 91//91 27//27 92//92
f 91//91 33//33 27//27
f 93//93 33//33 91//91
f 93//93 37//37 33//33
f 94//94 37//37 93//93
f 84//84 37//37 94//94
f 84//84 48//48 37//37
f 48//48 84//84 43//43
f 17//17 95//95 96//96
f 17//17 97//97 95//95
f 97//97 19//19 89//89
f 19//19 97//97 17//17
f 98//98 96//96 95//95
f 92//92 96//96 98//98
f 92//92 32//32 96//96
f 32//32 92//92 27//27
f 99//99 100//100 101//101
f 102//102 100//100 99//99
f 102//102 103//103 100//100
f 102//102 104//104 103//103
f 104//104 105//105 106//106
f 105//105 104//104 102//102
f 107//107 101//101 100//100
f 108//108 101//101 107//107
f 108//108 109//109 101//101
f 106//106 109//109 108//108
f 106//106 110//110 109//109
f 110//110 106//106 105//105
f 54//54 111//111 112//112
f 54//54 113//113 111//111
f 113//113 51//51 114//114
f 51//51 113//113 54//54
f 115//115 112//112 111//111
f 116//116 112//112 115//115
f 116//116 117//117 112//112
f 116//116 118//118 117//117
f 119//119 118//118 116//116
f 119//119 120//120 118//118
f 121//121 120//120 119//119
f 114//114 120//120 121//121
f 114//114 122//122 120//120
f 122//122 114//114 51//51
f 85//85 123//123 57//57
f 85//85 124//124 123//123
f 124//124 87//87 125//125
f 87//87 124//124 85//85
f 126//126 57//57 123//123
f 125//125 57//57 126//126
f 125//125 55//55 57//57
f 55//55 125//125 87//87
f 127//127 128//128 129//129
f 127//127 105//105 128//128
f 130//130 105//105 127//127
f 130//130 55//55 105//105
f 55//55 130//130 59//59
f 76//76 131//131 72//72
f 76//76 132//132 131//131
f 132//132 59//59 130//130
f 59//59 132//132 76//76
f 133//133 72//72 131//131
f 128//128 72//72 133//133
f 102//102 128//128 105//105
f 128//128 99//99 72//72
f 99//99 128//128 102//102
f 118//118 112//112 117//117
f 118//118 134//134 112//112
f 118//118 135//135 134//134
f 136//136 137//137 138//138
f 135//135 137//137 136//136
f 137//137 135//135 118//118
f 139//139 112//112 134//134
f 140//140 112//112 139//139
f 138//138 112//112 140//140
f 141//141 138//138 137//137
f 138//138 142//142 112//112
f 142//142 138//138 141//141
f 143//143 144//144 145//145
f 143//143 146//146 144//144
f 146//146 147//147 148//148
f 147//147 146//146 143//143
f 149//149 145//145 144//144
f 148//148 145//145 149//149
f 148//148 150//150 145//145
f 150//150 148//148 147//147
f 90//90 151//151 87//87
f 90//90 152//152 151//151
f 152//152 80//80 153//153
f 80//80 152//152 90//90
f 154//154 87//87 151//151
f 154//154 155//155 87//87
f 155//155 156//156 157//157
f 158//158 155//155 154//154
f 158//158 156//156 155//155
f 159//159 156//156 158//158
f 160//160 156//156 159//159
f 153//153 156//156 160//160
f 153//153 77//77 156//156
f 77//77 153//153 80//80
f 161//161 120//120 162//162
f 163//163 120//120 161//161
f 163//163 118//118 120//120
f 118//118 163//163 137//137
f 155//155 55//55 87//87
f 155//155 105//105 55//55
f 155//155 164//164 105//105
f 155//155 165//165 164//164
f 166//166 165//165 155//155
f 166//166 167//167 165//165
f 168//168 167//167 166//166
f 168//168 169//169 167//167
f 169//169 137//137 163//163
f 137//137 169//169 168//168
f 170//170 105//105 164//164
f 171//171 105//105 170//170
f 172//172 105//105 171//171
f 162//162 105//105 172//172
f 162//162 110//110 105//105
f 110//110 162//162 120//120
f 168//168 173//173 137//137
f 168//168 174//174 173//173
f 174//174 175//175 176//176
f 175//175 174//174 168//168
f 142//142 177//177 145//145
f 141//141 177//177 142//142
f 141//141 178//178 177//177
f 137//137 178//178 141//141
f 137//137 179//179 178//178
f 179//179 137//137 173//173
f 180//180 145//145 177//177
f 176//176 145//145 180//180
f 176//176 143//143 145//145
f 143//143 176//176 175//175
f 150//150 181//181 182//182
f 150//150 183//183 181//181
f 183//183 147//147 184//184
f 147//147 183//183 150//150
f 185//185 182//182 181//181
f 184//184 182//182 185//185
f 184//184 186//186 182//182
f 186//186 184//184 147//147
f 187//187 188//188 156//156
f 189//189 188//188 187//187
f 189//189 190//190 188//188
f 189//189 191//191 190//190
f 191//191 166//166 192//192
f 166//166 191//191 189//189
f 193//193 156//156 188//188
f 194//194 156//156 193//193
f 194//194 157//157 156//156
f 192//192 157//157 194//194
f 192//192 155//155 157//157
f 155//155 192//192 166//166
f 187//187 166//166 189//189
f 187//187 195//195 166//166
f 187//187 196//196 195//195
f 196//196 182//182 197//197
f 182//182 196//196 187//187
f 168//168 198//198 199//199
f 166//166 198//198 168//168
f 200//200 166//166 195//195
f 166//166 201//201 198//198
f 201//201 166//166 200//200
f 199//199 175//175 168//168
f 197//197 175//175 199//199
f 197//197 186//186 175//175
f 186//186 197//197 182//182
f 202//202 203//203 204//204
f 203//203 202//202 205//205
f 206//206 202//202 207//207
f 202//202 206//206 205//205
f 206//206 208//208 209//209
f 208//208 206//206 207//207
f 203//203 208//208 204//204
f 208//208 203//203 209//209
f 204//204 210//210 202//202
f 204//204 211//211 210//210
f 211//211 208//208 212//212
f 208//208 211//211 204//204
f 213//213 202//202 210//210
f 212//212 202//202 213//213
f 212//212 207//207 202//202
f 207//207 212//212 208//208
f 212//212 214//214 211//211
f 214//214 212//212 215//215
f 214//214 210//210 211//211
f 210//210 214//214 216//216
f 217//217 212//212 213//213
f 212//212 217//217 215//215
f 217//217 210//210 216//216
f 210//210 217//217 213//213
f 218//218 219//219 220//220
f 219//219 218//218 221//221
f 222//222 218//218 223//223
f 218//218 222//222 221//221
f 219//219 224//224 220//220
f 224//224 219//219 225//225
f 222//222 224//224 225//225
f 224//224 222//222 223//223
f 226//226 227//227 228//228
f 226//226 229//229 227//227
f 229//229 230//230 231//231
f 230//230 229//229 226//226
f 232//232 228//228 227//227
f 231//231 228//228 232//232
f 231//231 233//233 228//228
f 233//233 231//231 230//230
f 234//234 235//235 236//236
f 235//235 234//234 237//237
f 233//233 222//222 228//228
f 233//233 221//221 222//222
f 221//221 238//238 219//219
f 238//238 221//221 233//233
f 225//225 228//228 222//222
f 219//219 228//228 225//225
f 237//237 219//219 238//238
f 234//234 219//219 237//237
f 234//234 228//228 219//219
f 228//228 234//234 239//239
f 226//226 240//240 241//241
f 226//226 242//242 240//240
f 242//242 228//228 243//243
f 228//228 242//242 226//226
f 244//244 241//241 240//240
f 243//243 241//241 244//244
f 243//243 239//239 241//241
f 239//239 243//243 228//228
f 226//226 245//245 230//230
f 226//226 246//246 245//245
f 246//246 241//241 247//247
f 241//241 246//246 226//226
f 248//248 230//230 245//245
f 247//247 230//230 248//248
f 247//247 249//249 230//230
f 249//249 247//247 241//241
f 250//250 251//251 252//252
f 251//251 238//238 253//253
f 238//238 251//251 250//250
f 250//250 230//230 249//249
f 252//252 230//230 250//250
f 254//254 230//230 252//252
f 253//253 230//230 254//254
f 253//253 233//233 230//230
f 233//233 253//253 238//238
f 237//237 255//255 235//235
f 238//238 255//255 237//237
f 255//255 238//238 250//250
f 236//236 256//256 257//257
f 256//256 236//236 235//235
f 236//236 258//258 259//259
f 258//258 236//236 257//257
f 234//234 241//241 239//239
f 236//236 241//241 234//234
f 259//259 241//241 236//236
f 255//255 241//241 259//259
f 250//250 241//241 255//255
f 241//241 250//250 249//249
f 256//256 255//255 260//260
f 255//255 256//256 235//235
f 255//255 258//258 260//260
f 258//258 255//255 259//259
f 261//261 247//247 248//248
f 247//247 261//261 262//262
f 247//247 263//263 246//246
f 263//263 247//247 262//262
f 261//261 245//245 264//264
f 245//245 261//261 248//248
f 263//263 245//245 246//246
f 245//245 263//263 264//264
f 252//252 265//265 254//254
f 265//265 252//252 266//266
f 253//253 265//265 267//267
f 265//265 253//253 254//254
f 252//252 268//268 266//266
f 268//268 252//252 251//251
f 268//268 253//253 267//267
f 253//253 268//268 251//251
f 269//269 243//243 244//244
f 243//243 269//269 270//270
f 243//243 271//271 242//242
f 271//271 243//243 270//270
f 269//269 240//240 272//272
f 240//240 269//269 244//244
f 271//271 240//240 242//242
f 240//240 271//271 272//272
f 273//273 274//274 275//275
f 274//274 273//273 276//276
f 276//276 277//277 278//278
f 277//277 276//276 273//273
f 279//279 277//277 280//280
f 277//277 279//279 278//278
f 275//275 279//279 280//280
f 279//279 275//275 274//274
f 280//280 281//281 275//275
f 280//280 282//282 281//281
f 282//282 277//277 273//273
f 277//277 282//282 280//280
f 283//283 275//275 281//281
f 284//284 275//275 283//283
f 284//284 273//273 275//275
f 273//273 284//284 282//282
f 285//285 281//281 286//286
f 281//281 285//285 283//283
f 285//285 284//284 283//283
f 284//284 285//285 287//287
f 282//282 286//286 281//281
f 286//286 282//282 288//288
f 284//284 288//288 282//282
f 288//288 284//284 287//287
f 289//289 290//290 291//291
f 290//290 289//289 292//292
f 293//293 289//289 291//291
f 289//289 293//293 294//294
f 295//295 294//294 293//293
f 294//294 295//295 296//296
f 296//296 290//290 292//292
f 290//290 296//296 295//295
f 291//291 297//297 293//293
f 291//291 298//298 297//297
f 298//298 290//290 299//299
f 290//290 298//298 291//291
f 300//300 293//293 297//297
f 299//299 293//293 300//300
f 299//299 295//295 293//293
f 295//295 299//299 290//290
f 301//301 299//299 300//300
f 299//299 301//301 302//302
f 299//299 303//303 298//298
f 303//303 299//299 302//302
f 301//301 297//297 304//304
f 297//297 301//301 300//300
f 298//298 304//304 297//297
f 304//304 298//298 303//303
f 305//305 306//306 307//307
f 306//306 305//305 308//308
f 306//306 309//309 307//307
f 309//309 306//306 310//310
f 311//311 308//308 305//305
f 308//308 311//311 312//312
f 310//310 313//313 309//309
f 313//313 310//310 314//314
f 315//315 312//312 311//311
f 312//312 315//315 316//316
f 314//314 317//317 313//313
f 317//317 314//314 318//318
f 319//319 316//316 315//315
f 316//316 319//319 320//320
f 318//318 321//321 317//317
f 321//321 318//318 322//322
f 323//323 320//320 319//319
f 320//320 323//323 324//324
f 322//322 325//325 321//321
f 325//325 322//322 326//326
f 327//327 324//324 323//323
f 324//324 327//327 328//328
f 326//326 329//329 325//325
f 329//329 326//326 330//330
f 331//331 327//327 332//332
f 327//327 331//331 328//328
f 333//333 329//329 330//330
f 329//329 333//333 334//334
f 335//335 332//332 336//336
f 332//332 335//335 331//331
f 337//337 334//334 333//333
f 334//334 337//337 338//338
f 339//339 336//336 340//340
f 336//336 339//339 335//335
f 341//341 338//338 337//337
f 338//338 341//341 342//342
f 343//343 340//340 344//344
f 340//340 343//343 339//339
f 345//345 342//342 341//341
f 342//342 345//345 346//346
f 347//347 344//344 348//348
f 344//344 347//347 343//343
f 349//349 346//346 345//345
f 346//346 349//349 350//350
f 351//351 348//348 352//352
f 348//348 351//351 347//347
f 351//351 350//350 349//349
f 350//350 351//351 352//352
f 353//353 354//354 355//355
f 356//356 355//355 354//354
f 356//356 357//357 355//355
f 358//358 355//355 357//357
f 359//359 354//354 360//360
f 353//353 360//360 354//354
f 360//360 358//358 359//359
f 357//357 359//359 358//358
f 361//361 362//362 363//363
f 364//364 363//363 362//362
f 365//365 364//364 366//366
f 362//362 366//366 364//364
f 367//367 361//361 368//368
f 363//363 368//368 361//361
f 367//367 368//368 366//366
f 365//365 366//366 368//368
f 369//369 370//370 371//371
f 372//372 370//370 369//369
f 370//370 372//372 373//373
f 374//374 373//373 372//372
f 373//373 374//374 375//375
f 371//371 376//376 377//377
f 376//376 371//371 370//370
f 378//378 375//375 374//374
f 375//375 378//378 379//379
f 377//377 380//380 381//381
f 380//380 377//377 376//376
f 378//378 382//382 379//379
f 383//383 382//382 378//378
f 382//382 383//383 384//384
f 381//381 385//385 386//386
f 385//385 381//381 380//380
f 384//384 387//387 382//382
f 387//387 384//384 388//388
f 389//389 385//385 390//390
f 389//389 386//386 385//385
f 386//386 389//389 391//391
f 388//388 392//392 387//387
f 393//393 392//392 388//388
f 392//392 393//393 394//394
f 395//395 390//390 396//396
f 390//390 395//395 389//389
f 394//394 397//397 392//392
f 397//397 394//394 398//398
f 399//399 396//396 400//400
f 399//399 395//395 396//396
f 395//395 399//399 401//401
f 398//398 402//402 397//397
f 402//402 398//398 403//403
f 404//404 400//400 405//405
f 400//400 404//404 399//399
f 403//403 406//406 402//402
f 406//406 403//403 407//407
f 408//408 405//405 409//409
f 405//405 408//408 404//404
f 410//410 407//407 411//411
f 407//407 410//410 406//406
f 412//412 409//409 413//413
f 409//409 412//412 408//408
f 414//414 411//411 415//415
f 411//411 414//414 410//410
f 413//413 416//416 412//412
f 416//416 413//413 417//417
f 418//418 419//419 420//420
f 418//418 415//415 419//419
f 415//415 418//418 414//414
f 417//417 421//421 416//416
f 421//421 417//417 422//422
f 422//422 420//420 421//421
f 420//420 422//422 418//418
f 423//423 424//424 425//425
f 426//426 425//425 424//424
f 427//427 423//423 428//428
f 425//425 428//428 423//423
f 429//429 426//426 430//430
f 424//424 430//430 426//426
f 430//430 427//427 429//429
f 428//428 429//429 427//427
f 431//431 432//432 433//433
f 434//434 433//433 432//432
f 435//435 436//436 433//433
f 431//431 433//433 436//436
f 437//437 434//434 438//438
f 432//432 438//438 434//434
f 435//435 437//437 436//436
f 438//438 436//436 437//437
f 439//439 227//227 229//229
f 227//227 439//439 440//440
f 441//441 227//227 440//440
f 227//227 441//441 232//232
f 231//231 439//439 229//229
f 439//439 231//231 442//442
f 441//441 231//231 232//232
f 231//231 441//441 442//442
f 443//443 444//444 445//445
f 444//444 443//443 446//446
f 443//443 447//447 448//448
f 447//447 443//443 445//445
f 449//449 447//447 450//450
f 447//447 449//449 448//448
f 444//444 449//449 450//450
f 449//449 444//444 446//446
f 450//450 451//451 444//444
f 450//450 452//452 451//451
f 452//452 447//447 453//453
f 447//447 452//452 450//450
f 454//454 444//444 451//451
f 453//453 444//444 454//454
f 453//453 445//445 444//444
f 445//445 453//453 447//447
f 455//455 453//453 454//454
f 453//453 455//455 456//456
f 455//455 451//451 457//457
f 451//451 455//455 454//454
f 458//458 451//451 452//452
f 451//451 458//458 457//457
f 459//459 460//460 461//461
f 459//459 462//462 460//460
f 462//462 463//463 464//464
f 463//463 462//462 459//459
f 465//465 461//461 460//460
f 464//464 461//461 465//465
f 464//464 466//466 461//461
f 466//466 464//464 463//463
f 467//467 468//468 469//469
f 468//468 467//467 470//470
f 471//471 468//468 472//472
f 468//468 471//471 469//469
f 473//473 471//471 472//472
f 471//471 473//473 474//474
f 470//470 474//474 473//473
f 474//474 470//470 467//467
f 472//472 475//475 473//473
f 472//472 476//476 475//475
f 476//476 468//468 477//477
f 468//468 476//476 472//472
f 478//478 473//473 475//475
f 477//477 473//473 478//478
f 477//477 470//470 473//473
f 470//470 477//477 468//468
f 476//476 479//479 475//475
f 479//479 476//476 480//480
f 481//481 475//475 479//479
f 475//475 481//481 478//478
f 477//477 480//480 476//476
f 480//480 477//477 482//482
f 481//481 477//477 478//478
f 477//477 481//481 482//482
f 55//55 102//102 105//105
f 102//102 55//55 483//483
f 87//87 483//483 55//55
f 483//483 87//87 484//484
f 485//485 96//96 61//61
f 96//96 485//485 486//486
f 155//155 484//484 87//87
f 484//484 155//155 157//157
f 487//487 110//110 109//109
f 110//110 487//487 120//120
f 485//485 29//29 61//61
f 485//485 39//39 29//29
f 485//485 38//38 39//39
f 485//485 45//45 38//38
f 45//45 485//485 488//488
f 25//25 29//29 39//39
f 488//488 41//41 45//45
f 483//483 41//41 488//488
f 55//55 41//41 483//483
f 41//41 55//55 57//57
f 118//118 487//487 117//117
f 487//487 118//118 120//120
f 9//9 61//61 13//13
f 72//72 61//61 9//9
f 99//99 61//61 72//72
f 99//99 485//485 61//61
f 99//99 489//489 485//485
f 489//489 99//99 101//101
f 96//96 21//21 17//17
f 486//486 21//21 96//96
f 156//156 21//21 486//486
f 21//21 156//156 77//77
f 487//487 488//488 490//490
f 488//488 487//487 483//483
f 484//484 488//488 483//483
f 488//488 484//484 491//491
f 487//487 484//484 483//483
f 484//484 487//487 492//492
f 27//27 33//33 32//32
f 32//32 486//486 96//96
f 33//33 486//486 32//32
f 37//37 486//486 33//33
f 48//48 486//486 37//37
f 486//486 48//48 491//491
f 43//43 491//491 48//48
f 43//43 484//484 491//491
f 85//85 484//484 43//43
f 484//484 85//85 87//87
f 491//491 485//485 488//488
f 485//485 491//491 486//486
f 484//484 486//486 491//491
f 157//157 486//486 484//484
f 486//486 157//157 156//156
f 489//489 109//109 101//101
f 490//490 109//109 489//489
f 109//109 490//490 487//487
f 490//490 485//485 489//489
f 485//485 490//490 488//488
f 490//490 491//491 488//488
f 491//491 490//490 493//493
f 112//112 490//490 489//489
f 117//117 490//490 112//112
f 490//490 117//117 487//487
f 1//1 112//112 101//101
f 3//3 112//112 1//1
f 112//112 3//3 54//54
f 489//489 101//101 112//112
f 494//494 156//156 486//486
f 156//156 494//494 187//187
f 493//493 487//487 490//490
f 487//487 493//493 492//492
f 484//484 493//493 491//491
f 493//493 484//484 492//492
f 491//491 494//494 486//486
f 494//494 491//491 493//493
f 494//494 490//490 489//489
f 490//490 494//494 493//493
f 494//494 142//142 187//187
f 142//142 182//182 187//187
f 145//145 182//182 142//142
f 182//182 145//145 150//150
f 112//112 494//494 489//489
f 494//494 112//112 142//142
f 187//187 493//493 494//494
f 187//187 492//492 493//493
f 492//492 187//187 189//189
f 493//493 142//142 494//494
f 492//492 142//142 493//493
f 142//142 492//492 141//141
f 189//189 168//168 492//492
f 168//168 189//189 166//166
f 168//168 141//141 492//492
f 141//141 168//168 137//137
f 216//216 495//495 217//217
f 216//216 496//496 495//495
f 496//496 214//214 497//497
f 214//214 496//496 216//216
f 498//498 217//217 495//495
f 497//497 217//217 498//498
f 497//497 215//215 217//217
f 215//215 497//497 214//214
f 386//386 499//499 391//391
f 381//381 499//499 386//386
f 377//377 499//499 381//381
f 377//377 369//369 499//499
f 369//369 377//377 371//371
f 499//499 378//378 383//383
f 499//499 374//374 378//378
f 499//499 372//372 374//374
f 372//372 499//499 369//369
f 395//395 500//500 401//401
f 389//389 500//500 395//395
f 391//391 500//500 389//389
f 500//500 391//391 499//499
f 421//421 419//419 420//420
f 416//416 419//419 421//421
f 412//412 419//419 416//416
f 408//408 419//419 412//412
f 404//404 419//419 408//408
f 399//399 419//419 404//404
f 401//401 419//419 399//399
f 419//419 401//401 500//500
f 500//500 388//388 393//393
f 500//500 384//384 388//388
f 499//499 384//384 500//500
f 384//384 499//499 383//383
f 419//419 411//411 415//415
f 419//419 407//407 411//411
f 419//419 403//403 407//407
f 419//419 398//398 403//403
f 419//419 394//394 398//398
f 500//500 394//394 419//419
f 394//394 500//500 393//393
f 501//501 495//495 502//502
f 495//495 501//501 498//498
f 495//495 503//503 502//502
f 503//503 495//495 496//496
f 497//497 501//501 504//504
f 501//501 497//497 498//498
f 497//497 503//503 496//496
f 503//503 497//497 504//504
f 286//286 505//505 285//285
f 286//286 506//506 505//505
f 506//506 287//287 507//507
f 506//506 288//288 287//287
f 288//288 506//506 286//286
f 508//508 285//285 505//505
f 507//507 285//285 508//508
f 285//285 507//507 287//287
f 505//505 469//469 471//471
f 469//469 505//505 506//506
f 507//507 469//469 506//506
f 469//469 507//507 467//467
f 474//474 505//505 471//471
f 505//505 474//474 508//508
f 467//467 508//508 474//474
f 508//508 467//467 507//507
f 311//311 319//319 315//315
f 305//305 319//319 311//311
f 305//305 323//323 319//319
f 307//307 323//323 305//305
f 307//307 327//327 323//323
f 309//309 327//327 307//307
f 309//309 332//332 327//327
f 313//313 332//332 309//309
f 313//313 336//336 332//332
f 317//317 336//336 313//313
f 317//317 340//340 336//336
f 321//321 340//340 317//317
f 321//321 344//344 340//340
f 325//325 344//344 321//321
f 325//325 348//348 344//344
f 329//329 348//348 325//325
f 329//329 352//352 348//348
f 334//334 352//352 329//329
f 334//334 350//350 352//352
f 338//338 350//350 334//334
f 338//338 346//346 350//350
f 346//346 338//338 342//342
f 509//509 366//366 367//367
f 366//366 509//509 510//510
f 511//511 366//366 510//510
f 366//366 511//511 362//362
f 511//511 361//361 362//362
f 361//361 511//511 512//512
f 361//361 509//509 367//367
f 509//509 361//361 512//512
f 510//510 315//315 511//511
f 510//510 311//311 315//315
f 510//510 305//305 311//311
f 510//510 307//307 305//305
f 510//510 309//309 307//307
f 510//510 313//313 309//309
f 510//510 317//317 313//313
f 510//510 321//321 317//317
f 338//338 509//509 342//342
f 334//334 509//509 338//338
f 329//329 509//509 334//334
f 325//325 509//509 329//329
f 321//321 509//509 325//325
f 509//509 321//321 510//510
f 319//319 511//511 315//315
f 323//323 511//511 319//319
f 327//327 511//511 323//323
f 332//332 511//511 327//327
f 336//336 511//511 332//332
f 340//340 511//511 336//336
f 344//344 511//511 340//340
f 509//509 346//346 342//342
f 509//509 350//350 346//346
f 344//344 512//512 511//511
f 348//348 512//512 344//344
f 352//352 512//512 348//348
f 350//350 512//512 352//352
f 512//512 350//350 509//509
f 362//362 513//513 366//366
f 362//362 514//514 513//513
f 514//514 361//361 515//515
f 361//361 514//514 362//362
f 516//516 366//366 513//513
f 515//515 366//366 516//516
f 515//515 367//367 366//366
f 367//367 515//515 361//361
f 517//517 360//360 353//353
f 360//360 517//517 518//518
f 360//360 519//519 358//358
f 519//519 360//360 518//518
f 519//519 355//355 358//358
f 355//355 519//519 520//520
f 517//517 355//355 520//520
f 355//355 517//517 353//353
f 521//521 518//518 517//517
f 518//518 521//521 522//522
f 518//518 523//523 519//519
f 523//523 518//518 522//522
f 523//523 520//520 519//519
f 520//520 523//523 524//524
f 521//521 520//520 524//524
f 520//520 521//521 517//517
f 522//522 359//359 523//523
f 522//522 354//354 359//359
f 354//354 521//521 356//356
f 521//521 354//354 522//522
f 357//357 523//523 359//359
f 356//356 523//523 357//357
f 356//356 524//524 523//523
f 524//524 356//356 521//521
f 525//525 368//368 526//526
f 368//368 525//525 363//363
f 364//364 525//525 527//527
f 525//525 364//364 363//363
f 364//364 528//528 365//365
f 528//528 364//364 527//527
f 368//368 528//528 526//526
f 528//528 368//368 365//365
f 527//527 360//360 528//528
f 527//527 353//353 360//360
f 353//353 525//525 355//355
f 525//525 353//353 527//527
f 358//358 528//528 360//360
f 355//355 528//528 358//358
f 355//355 526//526 528//528
f 526//526 355//355 525//525
f 513//513 363//363 364//364
f 363//363 513//513 514//514
f 363//363 515//515 368//368
f 515//515 363//363 514//514
f 364//364 518//518 365//365
f 364//364 517//517 518//518
f 517//517 363//363 520//520
f 363//363 517//517 364//364
f 519//519 365//365 518//518
f 520//520 365//365 519//519
f 520//520 368//368 365//365
f 368//368 520//520 363//363
f 513//513 365//365 516//516
f 365//365 513//513 364//364
f 515//515 365//365 368//368
f 365//365 515//515 516//516
f 354//354 355//355 356//356
f 355//355 354//354 353//353
f 357//357 355//355 358//358
f 355//355 357//357 356//356
f 354//354 360//360 353//353
f 360//360 354//354 359//359
f 358//358 359//359 357//357
f 359//359 358//358 360//360
f 362//362 363//363 364//364
f 363//363 362//362 361//361
f 364//364 366//366 362//362
f 366//366 364//364 365//365
f 361//361 368//368 363//363
f 368//368 361//361 367//367
f 368//368 366//366 365//365
f 366//366 368//368 367//367
f 359//359 529//529 530//530
f 529//529 359//359 354//354
f 359//359 531//531 357//357
f 531//531 359//359 530//530
f 356//356 531//531 532//532
f 531//531 356//356 357//357
f 529//529 356//356 532//532
f 356//356 529//529 354//354
f 529//529 531//531 530//530
f 531//531 529//529 532//532
f 423//423 533//533 427//427
f 533//533 423//423 534//534
f 423//423 535//535 534//534
f 535//535 423//423 424//424
f 535//535 533//533 534//534
f 533//533 535//535 536//536
f 430//430 533//533 536//536
f 533//533 430//430 427//427
f 535//535 430//430 536//536
f 430//430 535//535 424//424
f 432//432 537//537 438//438
f 537//537 432//432 538//538
f 438//438 539//539 436//436
f 539//539 438//438 537//537
f 432//432 540//540 431//431
f 432//432 541//541 540//540
f 541//541 438//438 542//542
f 438//438 541//541 432//432
f 543//543 431//431 540//540
f 542//542 431//431 543//543
f 542//542 436//436 431//431
f 436//436 542//542 438//438
f 538//538 431//431 544//544
f 431//431 538//538 432//432
f 539//539 431//431 436//436
f 431//431 539//539 544//544
f 428//428 542//542 429//429
f 542//542 428//428 543//543
f 541//541 429//429 542//542
f 429//429 541//541 426//426
f 425//425 543//543 428//428
f 543//543 425//425 540//540
f 543//543 545//545 542//542
f 545//545 543//543 546//546
f 547//547 423//423 546//546
f 547//547 424//424 423//423
f 424//424 548//548 430//430
f 548//548 424//424 547//547
f 427//427 546//546 423//423
f 430//430 546//546 427//427
f 430//430 545//545 546//546
f 545//545 430//430 548//548
f 548//548 542//542 545//545
f 542//542 548//548 541//541
f 541//541 425//425 426//426
f 425//425 541//541 540//540
f 540//540 546//546 543//543
f 546//546 540//540 547//547
f 548//548 540//540 541//541
f 540//540 548//548 547//547
f 549//549 433//433 435//435
f 433//433 549//549 550//550
f 437//437 549//549 435//435
f 549//549 437//437 551//551
f 550//550 418//418 552//552
f 550//550 422//422 418//418
f 550//550 417//417 422//422
f 550//550 413//413 417//417
f 550//550 409//409 413//413
f 550//550 405//405 409//409
f 550//550 400//400 405//405
f 550//550 396//396 400//400
f 376//376 549//549 370//370
f 380//380 549//549 376//376
f 385//385 549//549 380//380
f 390//390 549//549 385//385
f 396//396 549//549 390//390
f 549//549 396//396 550//550
f 414//414 552//552 418//418
f 410//410 552//552 414//414
f 406//406 552//552 410//410
f 402//402 552//552 406//406
f 397//397 552//552 402//402
f 392//392 552//552 397//397
f 387//387 552//552 392//392
f 549//549 373//373 370//370
f 549//549 375//375 373//373
f 387//387 551//551 552//552
f 382//382 551//551 387//387
f 379//379 551//551 382//382
f 375//375 551//551 379//379
f 551//551 375//375 549//549
f 552//552 433//433 550//550
f 433//433 552//552 434//434
f 434//434 551//551 437//437
f 551//551 434//434 552//552
f 432//432 553//553 431//431
f 553//553 432//432 554//554
f 554//554 425//425 553//553
f 554//554 426//426 425//425
f 426//426 555//555 429//429
f 555//555 426//426 554//554
f 428//428 553//553 425//425
f 429//429 553//553 428//428
f 429//429 556//556 553//553
f 556//556 429//429 555//555
f 436//436 553//553 556//556
f 553//553 436//436 431//431
f 554//554 438//438 555//555
f 438//438 554//554 432//432
f 555//555 436//436 556//556
f 436//436 555//555 438//438
f 424//424 425//425 426//426
f 425//425 424//424 423//423
f 423//423 428//428 425//425
f 428//428 423//423 427//427
f 426//426 430//430 424//424
f 430//430 426//426 429//429
f 427//427 429//429 428//428
f 429//429 427//427 430//430
f 432//432 433//433 434//434
f 433//433 432//432 431//431
f 436//436 433//433 431//431
f 433//433 436//436 435//435
f 434//434 438//438 432//432
f 438//438 434//434 437//437
f 437//437 436//436 438//438
f 436//436 437//437 435//435
f 422//422 414//414 418//418
f 417//417 414//414 422//422
f 417//417 410//410 414//414
f 413//413 410//410 417//417
f 413//413 406//406 410//410
f 409//409 406//406 413//413
f 409//409 402//402 406//406
f 405//405 402//402 409//409
f 405//405 397//397 402//402
f 400//400 397//397 405//405
f 400//400 392//392 397//397
f 396//396 392//392 400//400
f 396//396 387//387 392//392
f 390//390 387//387 396//396
f 390//390 382//382 387//387
f 385//385 382//382 390//390
f 385//385 379//379 382//382
f 380//380 379//379 385//385
f 380//380 375//375 379//379
f 376//376 375//375 380//380
f 376//376 373//373 375//375
f 373//373 376//376 370//370
f 434//434 538//538 433//433
f 434//434 537//537 538//538
f 537//537 437//437 539//539
f 437//437 537//537 434//434
f 544//544 433//433 538//538
f 539//539 433//433 544//544
f 539//539 435//435 433//433
f 435//435 539//539 437//437
f 147//147 175//175 186//186
f 175//175 147//147 143//143
f 80//80 19//19 24//24
f 19//19 80//80 90//90
f 59//59 11//11 16//16
f 11//11 59//59 76//76
f 1//1 557//557 5//5
f 1//1 558//558 557//557
f 558//558 559//559 560//560
f 101//101 558//558 1//1
f 101//101 559//559 558//558
f 109//109 559//559 101//101
f 110//110 559//559 109//109
f 110//110 561//561 559//559
f 561//561 120//120 562//562
f 120//120 561//561 110//110
f 563//563 5//5 557//557
f 562//562 5//5 563//563
f 562//562 122//122 5//5
f 122//122 562//562 120//120
f 51//51 5//5 122//122
f 5//5 51//51 8//8
f 504//504 217//217 501//501
f 217//217 504//504 215//215
f 502//502 420//420 501//501
f 502//502 421//421 420//420
f 502//502 416//416 421//421
f 502//502 412//412 416//416
f 502//502 408//408 412//412
f 502//502 404//404 408//408
f 502//502 399//399 404//404
f 502//502 401//401 399//399
f 502//502 395//395 401//401
f 502//502 389//389 395//395
f 502//502 391//391 389//389
f 502//502 386//386 391//391
f 502//502 381//381 386//386
f 502//502 377//377 381//381
f 377//377 449//449 371//371
f 502//502 449//449 377//377
f 502//502 448//448 449//449
f 448//448 503//503 443//443
f 503//503 448//448 502//502
f 419//419 501//501 420//420
f 415//415 501//501 419//419
f 411//411 501//501 415//415
f 407//407 501//501 411//411
f 403//403 501//501 407//407
f 398//398 501//501 403//403
f 394//394 501//501 398//398
f 393//393 501//501 394//394
f 388//388 501//501 393//393
f 384//384 501//501 388//388
f 383//383 501//501 384//384
f 378//378 501//501 383//383
f 374//374 501//501 378//378
f 372//372 501//501 374//374
f 371//371 372//372 369//369
f 446//446 371//371 449//449
f 446//446 372//372 371//371
f 446//446 501//501 372//372
f 443//443 501//501 446//446
f 443//443 504//504 501//501
f 504//504 443//443 503//503
f 214//214 504//504 503//503
f 504//504 214//214 215//215
f 502//502 217//217 216//216
f 217//217 502//502 501//501
f 216//216 503//503 502//502
f 503//503 216//216 214//214
f 268//268 265//265 266//266
f 265//265 268//268 267//267
f 263//263 261//261 264//264
f 261//261 263//263 262//262
f 271//271 269//269 272//272
f 269//269 271//271 270//270
f 218//218 224//224 223//223
f 224//224 218//218 220//220
f 439//439 441//441 440//440
f 441//441 439//439 442//442
f 145//145 112//112 142//142
f 112//112 145//145 54//54
f 99//99 1//1 72//72
f 1//1 99//99 101//101
f 96//96 13//13 17//17
f 13//13 96//96 61//61
f 257//257 21//21 258//258
f 257//257 77//77 21//21
f 77//77 182//182 156//156
f 257//257 182//182 77//77
f 257//257 150//150 182//182
f 150//150 54//54 145//145
f 150//150 3//3 54//54
f 150//150 256//256 3//3
f 256//256 150//150 257//257
f 17//17 258//258 21//21
f 13//13 258//258 17//17
f 9//9 258//258 13//13
f 72//72 258//258 9//9
f 1//1 258//258 72//72
f 3//3 258//258 1//1
f 3//3 260//260 258//258
f 260//260 3//3 256//256
f 156//156 182//182 187//187
f 38//38 289//289 45//45
f 38//38 292//292 289//289
f 292//292 37//37 296//296
f 37//37 292//292 38//38
f 294//294 45//45 289//289
f 296//296 45//45 294//294
f 296//296 48//48 45//45
f 48//48 296//296 37//37
f 61//61 459//459 29//29
f 61//61 463//463 459//459
f 463//463 96//96 466//466
f 96//96 463//463 61//61
f 461//461 29//29 459//459
f 466//466 29//29 461//461
f 466//466 32//32 29//29
f 32//32 466//466 96//96
f 25//25 279//279 39//39
f 25//25 278//278 279//279
f 278//278 27//27 33//33
f 27//27 278//278 25//25
f 274//274 39//39 279//279
f 276//276 39//39 274//274
f 276//276 33//33 39//39
f 33//33 276//276 278//278
f 474//474 286//286 471//471
f 286//286 474//474 285//285
f 286//286 469//469 471//471
f 469//469 286//286 288//288
f 467//467 285//285 474//474
f 285//285 467//467 287//287
f 288//288 467//467 469//469
f 467//467 288//288 287//287
f 41//41 203//203 57//57
f 41//41 209//209 203//203
f 209//209 43//43 206//206
f 43//43 209//209 41//41
f 205//205 57//57 203//203
f 206//206 57//57 205//205
f 206//206 85//85 57//57
f 85//85 206//206 43//43
f 303//303 301//301 304//304
f 301//301 303//303 302//302
f 510//510 509//509 366//366
f 367//367 366//366 509//509
f 362//362 511//511 366//366
f 510//510 366//366 511//511
f 512//512 511//511 361//361
f 362//362 361//361 511//511
f 512//512 361//361 509//509
f 367//367 509//509 361//361
f 509//509 350//350 512//512
f 352//352 512//512 350//350
f 348//348 512//512 352//352
f 344//344 512//512 348//348
f 511//511 512//512 344//344
f 346//346 350//350 509//509
f 342//342 346//346 509//509
f 340//340 511//511 344//344
f 336//336 511//511 340//340
f 332//332 511//511 336//336
f 327//327 511//511 332//332
f 323//323 511//511 327//327
f 319//319 511//511 323//323
f 315//315 511//511 319//319
f 510//510 321//321 509//509
f 325//325 509//509 321//321
f 329//329 509//509 325//325
f 334//334 509//509 329//329
f 338//338 509//509 334//334
f 342//342 509//509 338//338
f 317//317 321//321 510//510
f 313//313 317//317 510//510
f 309//309 313//313 510//510
f 307//307 309//309 510//510
f 305//305 307//307 510//510
f 311//311 305//305 510//510
f 315//315 311//311 510//510
f 511//511 315//315 510//510
f 363//363 525//525 368//368
f 526//526 368//368 525//525
f 363//363 364//364 525//525
f 527//527 525//525 364//364
f 527//527 364//364 528//528
f 365//365 528//528 364//364
f 365//365 368//368 528//528
f 526//526 528//528 368//368
f 525//525 355//355 526//526
f 528//528 526//526 355//355
f 358//358 528//528 355//355
f 360//360 528//528 358//358
f 527//527 353//353 525//525
f 355//355 525//525 353//353
f 360//360 353//353 527//527
f 528//528 360//360 527//527
f 354//354 359//359 529//529
f 530//530 529//529 359//359
f 530//530 359//359 531//531
f 357//357 531//531 359//359
f 357//357 356//356 531//531
f 532//532 531//531 356//356
f 354//354 529//529 356//356
f 532//532 356//356 529//529
f 532//532 529//529 531//531
f 530//530 531//531 529//529
f 534//534 423//423 533//533
f 427//427 533//533 423//423
f 424//424 423//423 535//535
f 534//534 535//535 423//423
f 536//536 535//535 533//533
f 534//534 533//533 535//535
f 427//427 430//430 533//533
f 536//536 533//533 430//430
f 424//424 535//535 430//430
f 536//536 430//430 535//535
f 550//550 549//549 433//433
f 435//435 433//433 549//549
f 551//551 437//437 549//549
f 435//435 549//549 437//437
f 549//549 375//375 551//551
f 379//379 551//551 375//375
f 382//382 551//551 379//379
f 387//387 551//551 382//382
f 552//552 551//551 387//387
f 373//373 375//375 549//549
f 370//370 373//373 549//549
f 392//392 552//552 387//387
f 397//397 552//552 392//392
f 402//402 552//552 397//397
f 406//406 552//552 402//402
f 410//410 552//552 406//406
f 414//414 552//552 410//410
f 418//418 552//552 414//414
f 550//550 396//396 549//549
f 390//390 549//549 396//396
f 385//385 549//549 390//390
f 380//380 549//549 385//385
f 376//376 549//549 380//380
f 370//370 549//549 376//376
f 400//400 396//396 550//550
f 405//405 400//400 550//550
f 409//409 405//405 550//550
f 413//413 409//409 550//550
f 417//417 413//413 550//550
f 422//422 417//417 550//550
f 418//418 422//422 550//550
f 552//552 418//418 550//550
f 434//434 552//552 433//433
f 550//550 433//433 552//552
f 552//552 434//434 551//551
f 437//437 551//551 434//434
f 554//554 432//432 553//553
f 431//431 553//553 432//432
f 555//555 429//429 556//556
f 553//553 556//556 429//429
f 428//428 553//553 429//429
f 425//425 553//553 428//428
f 554//554 426//426 555//555
f 429//429 555//555 426//426
f 425//425 426//426 554//554
f 553//553 425//425 554//554
f 431//431 436//436 553//553
f 556//556 553//553 436//436
f 432//432 554//554 438//438
f 555//555 438//438 554//554
f 438//438 555//555 436//436
f 556//556 436//436 555//555
f 34//34 40//40 35//35
f 40//40 34//34 36//36
f 453//453 458//458 452//452
f 458//458 453//453 456//456
f 458//458 455//455 457//457
f 455//455 458//458 456//456
f 195//195 201//201 200//200
f 201//201 195//195 196//196
f 201//201 199//199 198//198
f 201//201 197//197 199//199
f 197//197 201//201 196//196
f 111//111 116//116 115//115
f 111//111 119//119 116//116
f 113//113 119//119 111//111
f 113//113 121//121 119//119
f 121//121 113//113 114//114
f 462//462 465//465 460//460
f 465//465 462//462 464//464
f 479//479 316//316 481//481
f 479//479 312//312 316//316
f 479//479 308//308 312//312
f 479//479 306//306 308//308
f 479//479 310//310 306//306
f 479//479 314//314 310//310
f 479//479 318//318 314//314
f 479//479 322//322 318//318
f 337//337 480//480 341//341
f 333//333 480//480 337//337
f 330//330 480//480 333//333
f 326//326 480//480 330//330
f 322//322 480//480 326//326
f 480//480 322//322 479//479
f 320//320 481//481 316//316
f 324//324 481//481 320//320
f 328//328 481//481 324//324
f 331//331 481//481 328//328
f 335//335 481//481 331//331
f 339//339 481//481 335//335
f 343//343 481//481 339//339
f 480//480 345//345 341//341
f 480//480 349//349 345//345
f 480//480 351//351 349//349
f 480//480 347//347 351//351
f 480//480 343//343 347//347
f 343//343 482//482 481//481
f 482//482 343//343 480//480
f 558//558 563//563 557//557
f 560//560 563//563 558//558
f 559//559 563//563 560//560
f 561//561 563//563 559//559
f 563//563 561//561 562//562
f 564//564 131//131 132//132
f 131//131 564//564 565//565
f 131//131 566//566 133//133
f 566//566 131//131 565//565
f 566//566 128//128 133//133
f 128//128 566//566 567//567
f 568//568 128//128 567//567
f 128//128 568//568 129//129
f 569//569 129//129 568//568
f 129//129 569//569 127//127
f 569//569 130//130 127//127
f 130//130 569//569 570//570
f 564//564 130//130 570//570
f 130//130 564//564 132//132
f 565//565 569//569 566//566
f 564//564 569//569 565//565
f 569//569 564//564 570//570
f 568//568 566//566 569//569
f 566//566 568//568 567//567
f 71//71 571//571 572//572
f 571//571 71//71 73//73
f 573//573 71//71 572//572
f 71//71 573//573 75//75
f 74//74 573//573 574//574
f 573//573 74//74 75//75
f 74//74 571//571 73//73
f 571//571 74//74 574//574
f 571//571 573//573 572//572
f 573//573 571//571 574//574
f 108//108 575//575 576//576
f 575//575 108//108 107//107
f 106//106 576//576 577//577
f 576//576 106//106 108//108
f 106//106 578//578 104//104
f 578//578 106//106 577//577
f 103//103 578//578 579//579
f 578//578 103//103 104//104
f 100//100 579//579 580//580
f 579//579 100//100 103//103
f 575//575 100//100 580//580
f 100//100 575//575 107//107
f 579//579 575//575 580//580
f 579//579 576//576 575//575
f 578//578 576//576 579//579
f 576//576 578//578 577//577
f 581//581 162//162 582//582
f 162//162 581//581 161//161
f 581//581 163//163 161//161
f 163//163 581//581 583//583
f 584//584 163//163 583//583
f 163//163 584//584 169//169
f 584//584 167//167 169//169
f 167//167 584//584 585//585
f 586//586 167//167 585//585
f 167//167 586//586 165//165
f 586//586 164//164 165//165
f 164//164 586//586 587//587
f 164//164 588//588 170//170
f 588//588 164//164 587//587
f 170//170 589//589 171//171
f 589//589 170//170 588//588
f 171//171 590//590 172//172
f 590//590 171//171 589//589
f 590//590 162//162 172//172
f 162//162 590//590 582//582
f 584//584 581//581 585//585
f 581//581 584//584 583//583
f 587//587 589//589 588//588
f 587//587 590//590 589//589
f 586//586 590//590 587//587
f 585//585 590//590 586//586
f 581//581 590//590 585//585
f 590//590 581//581 582//582
f 93//93 591//591 592//592
f 591//591 93//93 91//91
f 593//593 93//93 592//592
f 93//93 593//593 94//94
f 594//594 94//94 593//593
f 94//94 594//594 84//84
f 84//84 595//595 83//83
f 595//595 84//84 594//594
f 86//86 595//595 596//596
f 595//595 86//86 83//83
f 597//597 86//86 596//596
f 86//86 597//597 88//88
f 89//89 597//597 598//598
f 597//597 89//89 88//88
f 89//89 599//599 97//97
f 599//599 89//89 598//598
f 95//95 599//599 600//600
f 599//599 95//95 97//97
f 601//601 95//95 600//600
f 95//95 601//601 98//98
f 602//602 98//98 601//601
f 98//98 602//602 92//92
f 92//92 591//591 91//91
f 591//591 92//92 602//602
f 600//600 591//591 601//601
f 600//600 592//592 591//591
f 592//592 595//595 593//593
f 600//600 595//595 592//592
f 600//600 596//596 595//595
f 599//599 596//596 600//600
f 599//599 597//597 596//596
f 597//597 599//599 598//598
f 601//601 591//591 602//602
f 593//593 595//595 594//594
f 6//6 603//603 4//4
f 603//603 6//6 604//604
f 2//2 603//603 605//605
f 603//603 2//2 4//4
f 606//606 2//2 605//605
f 2//2 606//606 7//7
f 6//6 606//606 604//604
f 606//606 6//6 7//7
f 603//603 606//606 605//605
f 606//606 603//603 604//604
f 607//607 52//52 53//53
f 52//52 607//607 608//608
f 609//609 52//52 608//608
f 52//52 609//609 50//50
f 609//609 49//49 50//50
f 49//49 609//609 610//610
f 49//49 607//607 53//53
f 607//607 49//49 610//610
f 609//609 607//607 610//610
f 607//607 609//609 608//608
f 134//134 611//611 139//139
f 611//611 134//134 612//612
f 139//139 613//613 140//140
f 613//613 139//139 611//611
f 613//613 138//138 140//140
f 138//138 613//613 614//614
f 615//615 138//138 614//614
f 138//138 615//615 136//136
f 616//616 136//136 615//615
f 136//136 616//616 135//135
f 616//616 134//134 135//135
f 134//134 616//616 612//612
f 612//612 613//613 611//611
f 616//616 613//613 612//612
f 615//615 613//613 616//616
f 613//613 615//615 614//614
f 617//617 153//153 160//160
f 153//153 617//617 618//618
f 619//619 153//153 618//618
f 153//153 619//619 152//152
f 619//619 151//151 152//152
f 151//151 619//619 620//620
f 151//151 621//621 154//154
f 621//621 151//151 620//620
f 621//621 158//158 154//154
f 158//158 621//621 622//622
f 158//158 623//623 159//159
f 623//623 158//158 622//622
f 159//159 617//617 160//160
f 617//617 159//159 623//623
f 620//620 622//622 621//621
f 622//622 617//617 623//623
f 619//619 622//622 620//620
f 619//619 617//617 622//622
f 617//617 619//619 618//618
f 176//176 624//624 625//625
f 624//624 176//176 180//180
f 174//174 625//625 626//626
f 625//625 174//174 176//176
f 627//627 174//174 626//626
f 174//174 627//627 173//173
f 628//628 173//173 627//627
f 173//173 628//628 179//179
f 629//629 179//179 628//628
f 179//179 629//629 178//178
f 177//177 629//629 630//630
f 629//629 177//177 178//178
f 624//624 177//177 630//630
f 177//177 624//624 180//180
f 627//627 626//626 628//628
f 629//629 624//624 630//630
f 628//628 624//624 629//629
f 628//628 625//625 624//624
f 625//625 628//628 626//626
f 631//631 148//148 149//149
f 148//148 631//631 632//632
f 633//633 148//148 632//632
f 148//148 633//633 146//146
f 633//633 144//144 146//146
f 144//144 633//633 634//634
f 144//144 631//631 149//149
f 631//631 144//144 634//634
f 633//633 631//631 634//634
f 631//631 633//633 632//632
f 635//635 184//184 636//636
f 184//184 635//635 183//183
f 635//635 181//181 183//183
f 181//181 635//635 637//637
f 181//181 638//638 185//185
f 638//638 181//181 637//637
f 638//638 184//184 185//185
f 184//184 638//638 636//636
f 635//635 638//638 637//637
f 638//638 635//635 636//636
f 639//639 192//192 194//194
f 192//192 639//639 640//640
f 641//641 192//192 640//640
f 192//192 641//641 191//191
f 641//641 190//190 191//191
f 190//190 641//641 642//642
f 642//642 188//188 190//190
f 188//188 642//642 643//643
f 188//188 644//644 193//193
f 644//644 188//188 643//643
f 644//644 194//194 193//193
f 194//194 644//644 639//639
f 642//642 644//644 643//643
f 642//642 639//639 644//644
f 641//641 639//639 642//642
f 639//639 641//641 640//640
f 78//78 645//645 82//82
f 645//645 78//78 646//646
f 645//645 81//81 82//82
f 81//81 645//645 647//647
f 648//648 81//81 647//647
f 81//81 648//648 79//79
f 648//648 78//78 79//79
f 78//78 648//648 646//646
f 648//648 645//645 646//646
f 645//645 648//648 647//647
f 649//649 18//18 650//650
f 18//18 649//649 23//23
f 22//22 649//649 651//651
f 649//649 22//22 23//23
f 22//22 652//652 20//20
f 652//652 22//22 651//651
f 18//18 652//652 650//650
f 652//652 18//18 20//20
f 652//652 649//649 650//650
f 649//649 652//652 651//651
f 653//653 60//60 654//654
f 60//60 653//653 58//58
f 653//653 56//56 58//58
f 56//56 653//653 655//655
f 56//56 656//656 70//70
f 656//656 56//56 655//655
f 656//656 69//69 70//70
f 69//69 656//656 657//657
f 658//658 69//69 657//657
f 69//69 658//658 68//68
f 658//658 67//67 68//68
f 67//67 658//658 659//659
f 67//67 660//660 66//66
f 660//660 67//67 659//659
f 660//660 65//65 66//66
f 65//65 660//660 661//661
f 662//662 65//65 661//661
f 65//65 662//662 64//64
f 662//662 62//62 64//64
f 62//62 662//662 663//663
f 62//62 664//664 63//63
f 664//664 62//62 663//663
f 664//664 60//60 63//63
f 60//60 664//664 654//654
f 655//655 653//653 656//656
f 659//659 658//658 657//657
f 663//663 662//662 661//661
f 661//661 664//664 663//663
f 660//660 664//664 661//661
f 657//657 660//660 659//659
f 657//657 664//664 660//660
f 656//656 664//664 657//657
f 656//656 654//654 664//664
f 654//654 656//656 653//653
f 14//14 665//665 12//12
f 665//665 14//14 666//666
f 10//10 665//665 667//667
f 665//665 10//10 12//12
f 668//668 10//10 667//667
f 10//10 668//668 15//15
f 14//14 668//668 666//666
f 668//668 14//14 15//15
f 665//665 668//668 667//667
f 668//668 665//665 666//666
f 28//28 31//31 26//26
f 31//31 28//28 30//30
f 44//44 47//47 42//42
f 47//47 44//44 46//46
f 124//124 126//126 123//123
f 126//126 124//124 125//125