# https://github.com/mikedh/trimesh
v 0.04389700 0.06370700 0.02010900
v 0.04110800 0.06525500 0.02726900
v 0.04389700 0.06525500 0.02726900
v 0.04110800 0.06370700 0.02010900
v -0.03983900 0.05923000 -0.00059800
v -0.03705000 0.05707100 -0.00013100
v -0.03705000 0.05923000 -0.00059800
v -0.03983900 0.05707100 -0.00013100
v -0.03983900 0.05871500 0.00747200
v -0.03983900 0.06087400 0.00700500
v -0.03705000 0.05871500 0.00747200
v -0.03705000 0.06087400 0.00700500
v 0.04110800 0.06309600 0.02773500
v 0.04389700 0.06309600 0.02773500
v 0.04389700 0.06154800 0.02057600
v 0.04110800 0.06154800 0.02057600
v -0.03983900 0.06154800 0.02057600
v -0.03705000 0.06309600 0.02773500
v -0.03983900 0.06309600 0.02773500
v -0.03705000 0.06154800 0.02057600
v -0.03705000 0.06525500 0.02726900
v -0.03983900 0.06525500 0.02726900
v -0.03983900 0.06370700 0.02010900
v -0.03705000 0.06370700 0.02010900
v 0.04110800 0.05871500 0.00747200
v 0.04389700 0.06087400 0.00700500
v 0.04389700 0.05871500 0.00747200
v 0.04110800 0.06087400 0.00700500
v 0.04110800 0.05707100 -0.00013100
v 0.04389700 0.05707100 -0.00013100
v 0.04110800 0.05923000 -0.00059800
v 0.04389700 0.05923000 -0.00059800
v -0.07270400 0.01721000 -0.00245700
v 0.07238500 0.02579700 -0.00245700
v 0.07238500 0.01721000 -0.00245700
v -0.07270400 0.02579700 -0.00245700
v -0.07270400 -0.00630300 -0.00245700
v 0.07238500 0.00228300 -0.00245700
v 0.07238500 -0.00630300 -0.00245700
v -0.07270400 0.00228300 -0.00245700
v -0.07270400 -0.01806000 -0.00245700
v 0.07238500 -0.00947400 -0.00245700
v 0.07238500 -0.01806000 -0.00245700
v -0.07270400 -0.00947400 -0.00245700
v -0.07270400 0.00545300 -0.00245700
v 0.07238500 0.01404000 -0.00245700
v 0.07238500 0.00545300 -0.00245700
v -0.07270400 0.01404000 -0.00245700
v -0.07270400 -0.07684400 -0.00245700
v 0.07238500 -0.06825800 -0.00245700
v 0.07238500 -0.07684400 -0.00245700
v -0.07270400 -0.06825800 -0.00245700
v -0.07270400 -0.06825800 -0.00106200
v 0.07238500 -0.07684400 -0.00106200
v 0.07238500 -0.06825800 -0.00106200
v -0.07270400 -0.07684400 -0.00106200
v -0.07270400 -0.05650100 -0.00106200
v 0.07238500 -0.06508700 -0.00106200
v 0.07238500 -0.05650100 -0.00106200
v -0.07270400 -0.06508700 -0.00106200
v -0.07270400 -0.04474400 -0.00106200
v 0.07238500 -0.05333100 -0.00106200
v 0.07238500 -0.04474400 -0.00106200
v -0.07270400 -0.05333100 -0.00106200
v -0.07270400 -0.03298700 -0.00106200
v 0.07238500 -0.04157400 -0.00106200
v 0.07238500 -0.03298700 -0.00106200
v -0.07270400 -0.04157400 -0.00106200
v -0.07270400 -0.02123100 -0.00106200
v 0.07238500 -0.02981700 -0.00106200
v 0.07238500 -0.02123100 -0.00106200
v -0.07270400 -0.02981700 -0.00106200
v -0.07270400 -0.00947400 -0.00106200
v 0.07238500 -0.01806000 -0.00106200
v 0.07238500 -0.00947400 -0.00106200
v -0.07270400 -0.01806000 -0.00106200
v -0.07270400 0.00228300 -0.00106200
v 0.07238500 -0.00630300 -0.00106200
v 0.07238500 0.00228300 -0.00106200
v -0.07270400 -0.00630300 -0.00106200
v -0.07270400 0.01404000 -0.00106200
v 0.07238500 0.00545300 -0.00106200
v 0.07238500 0.01404000 -0.00106200
v -0.07270400 0.00545300 -0.00106200
v -0.07270400 0.02579700 -0.00106200
v 0.07238500 0.01721000 -0.00106200
v 0.07238500 0.02579700 -0.00106200
v -0.07270400 0.01721000 -0.00106200
v -0.07270400 0.03755300 -0.00106200
v 0.07238500 0.02896700 -0.00106200
v 0.07238500 0.03755300 -0.00106200
v -0.07270400 0.02896700 -0.00106200
v -0.07270400 0.04931000 -0.00106200
v 0.07238500 0.04072400 -0.00106200
v 0.07238500 0.04931000 -0.00106200
v -0.07270400 0.04072400 -0.00106200
v 0.07493300 0.05619600 -0.00106200
v 0.07238500 0.05317200 -0.00106200
v 0.07493300 -0.08324200 -0.00106200
v -0.07270400 0.05317200 -0.00106200
v -0.07270400 -0.08017500 -0.00106200
v -0.07529300 0.05619600 -0.00106200
v 0.07238500 -0.08017500 -0.00106200
v -0.07529300 -0.08324200 -0.00106200
v -0.07270400 0.04072400 -0.00245700
v 0.07238500 0.04931000 -0.00245700
v 0.07238500 0.04072400 -0.00245700
v -0.07270400 0.04931000 -0.00245700
v -0.07270400 0.02896700 -0.00245700
v 0.07238500 0.03755300 -0.00245700
v 0.07238500 0.02896700 -0.00245700
v -0.07270400 0.03755300 -0.00245700
v -0.07270400 -0.04157400 -0.00245700
v 0.07238500 -0.03298700 -0.00245700
v 0.07238500 -0.04157400 -0.00245700
v -0.07270400 -0.03298700 -0.00245700
v -0.07270400 -0.02981700 -0.00245700
v 0.07238500 -0.02123100 -0.00245700
v 0.07238500 -0.02981700 -0.00245700
v -0.07270400 -0.02123100 -0.00245700
v -0.07270400 -0.06508700 -0.00245700
v 0.07238500 -0.05650100 -0.00245700
v 0.07238500 -0.06508700 -0.00245700
v -0.07270400 -0.05650100 -0.00245700
v -0.07270400 -0.05333100 -0.00245700
v 0.07238500 -0.04474400 -0.00245700
v 0.07238500 -0.05333100 -0.00245700
v -0.07270400 -0.04474400 -0.00245700
v -0.07270400 0.05317200 -0.00927800
v -0.07270400 -0.08017500 -0.00927800
v 0.07238500 0.05317200 -0.00927800
v 0.07238500 -0.08017500 -0.00927800
v -0.07888200 -0.08017500 -0.00927800
v -0.07888200 0.05317200 -0.00927800
v 0.07949000 -0.08325900 -0.00120500
v 0.07949000 0.05638300 -0.00927800
v 0.07949000 0.05638300 -0.00120500
v 0.07949000 -0.08325900 -0.00927800
v -0.07888200 0.05638300 -0.00120500
v -0.07888200 0.05638300 -0.00927800
v -0.07888200 -0.08325900 -0.00927800
v -0.07888200 -0.08325900 -0.00120500
v 0.08095800 0.05638300 -0.00120500
v 0.08095800 0.05638300 -0.00927800
v 0.08095800 -0.08325900 -0.00120500
v 0.08095800 -0.08325900 -0.00927800
v -0.08049600 -0.08675800 -0.02366600
v 0.08095800 -0.08325900 -0.02366600
v 0.08095800 -0.08675800 -0.02366600
v -0.08049600 -0.08325900 -0.02366600
v -0.08049600 -0.08325900 -0.00927800
v -0.08049600 -0.08325900 -0.00120500
v -0.08049600 0.05638300 -0.00120500
v -0.08049600 0.05638300 -0.00927800
v -0.08049600 0.05638300 -0.02366600
v 0.08095800 0.05638300 -0.02366600
v 0.08095800 0.06001900 -0.02366600
v -0.08049600 0.06001900 -0.02366600
v -0.08049600 0.06001900 0.00246000
v 0.08095800 0.06001900 0.00246000
v 0.07493300 0.05619600 0.00246000
v -0.07529300 0.05619600 0.00246000
v -0.07529300 -0.08324200 0.00246000
v 0.07493300 -0.08324200 0.00246000
v 0.08095800 0.05619600 0.00246000
v 0.08095800 -0.08675800 0.00246000
v -0.08049600 -0.08675800 0.00246000
v -0.08049600 0.05619600 0.00246000
v 0.04389700 0.05921200 0.00246000
v 0.04110800 0.05921200 0.00246000
v -0.03705000 0.05921200 0.00246000
v 0.04110800 0.05700300 0.00246000
v -0.03983900 0.05921200 0.00246000
v -0.03983900 0.05700300 0.00246000
v 0.04389700 0.05700300 0.00246000
v -0.03705000 0.05700300 0.00246000
v 0.08095800 0.06370700 0.02010900
v -0.08049600 0.06370700 0.02010900
v 0.08095800 0.06087400 0.00700500
v -0.08049600 0.06087400 0.00700500
v -0.08049600 0.05871500 0.00747200
v -0.08049600 0.06154800 0.02057600
v 0.08095800 0.06154800 0.02057600
v 0.08095800 0.05871500 0.00747200
v 0.08095800 0.06525500 0.02726900
v -0.08049600 0.06803900 0.04014500
v 0.08095800 0.06803900 0.04014500
v -0.08049600 0.06525500 0.02726900
v -0.08049600 0.06309600 0.02773500
v -0.08049600 0.06588000 0.04061200
v 0.08095800 0.06588000 0.04061200
v 0.08095800 0.06309600 0.02773500
vn 0.40821368 0.57163547 0.71175451
vn -0.26716630 0.67080966 -0.69183565
vn 0.26716630 0.67080966 -0.69183565
vn -0.40821368 0.57163547 0.71175451
vn -0.57731959 0.68636313 0.44227565
vn 0.57738095 -0.44225215 0.68632666
vn 0.57731959 0.68636313 0.44227565
vn -0.57738095 -0.44225215 0.68632666
vn -0.26723944 -0.89664920 -0.35299193
vn -0.26728305 0.67069536 -0.69190137
vn 0.26723944 -0.89664920 -0.35299193
vn 0.26728305 0.67069536 -0.69190137
vn -0.26736065 -0.89657083 -0.35309918
vn 0.26736065 -0.89657083 -0.35309918
vn 0.40827273 -0.22641067 0.88433681
vn -0.40827273 -0.22641067 0.88433681
vn -0.40827273 -0.22641067 0.88433681
vn 0.26736065 -0.89657083 -0.35309918
vn -0.26736065 -0.89657083 -0.35309918
vn 0.40827273 -0.22641067 0.88433681
vn 0.26716630 0.67080966 -0.69183565
vn -0.26716630 0.67080966 -0.69183565
vn -0.40821368 0.57163547 0.71175451
vn 0.40821368 0.57163547 0.71175451
vn -0.40822356 -0.57163669 -0.71174786
vn 0.40827302 0.22641079 -0.88433664
vn 0.26723944 -0.89664920 -0.35299193
vn -0.40827302 0.22641079 -0.88433664
vn -0.57738095 -0.44225215 0.68632666
vn 0.57738095 -0.44225215 0.68632666
vn -0.57731959 0.68636313 0.44227565
vn 0.57731959 0.68636313 0.44227565
vn 0.90453403 -0.30151134 -0.30151134
vn -0.90453403 0.30151134 -0.30151134
vn -0.90453403 -0.30151134 -0.30151134
vn 0.90453403 0.30151134 -0.30151134
vn 0.90453403 -0.30151134 -0.30151134
vn -0.90453403 0.30151134 -0.30151134
vn -0.90453403 -0.30151134 -0.30151134
vn 0.90453403 0.30151134 -0.30151134
vn 0.90453403 -0.30151134 -0.30151134
vn -0.90453403 0.30151134 -0.30151134
vn -0.90453403 -0.30151134 -0.30151134
vn 0.90453403 0.30151134 -0.30151134
vn 0.90453403 -0.30151134 -0.30151134
vn -0.90453403 0.30151134 -0.30151134
vn -0.90453403 -0.30151134 -0.30151134
vn 0.90453403 0.30151134 -0.30151134
vn 0.90453403 -0.30151134 -0.30151134
vn -0.90453403 0.30151134 -0.30151134
vn -0.90453403 -0.30151134 -0.30151134
vn 0.90453403 0.30151134 -0.30151134
vn 0.57735027 0.57735027 0.57735027
vn -0.30151134 -0.30151134 0.90453403
vn -0.30151134 0.30151134 0.90453403
vn 0.57735027 -0.57735027 0.57735027
vn 0.57735027 0.57735027 0.57735027
vn -0.30151134 -0.30151134 0.90453403
vn -0.30151134 0.30151134 0.90453403
vn 0.57735027 -0.57735027 0.57735027
vn 0.57735027 0.57735027 0.57735027
vn -0.30151134 -0.30151134 0.90453403
vn -0.30151134 0.30151134 0.90453403
vn 0.57735027 -0.57735027 0.57735027
vn 0.57735027 0.57735027 0.57735027
vn -0.30151134 -0.30151134 0.90453403
vn -0.30151134 0.30151134 0.90453403
vn 0.57735027 -0.57735027 0.57735027
vn 0.57735027 0.57735027 0.57735027
vn -0.30151134 -0.30151134 0.90453403
vn -0.30151134 0.30151134 0.90453403
vn 0.57735027 -0.57735027 0.57735027
vn 0.57735027 0.57735027 0.57735027
vn -0.30151134 -0.30151134 0.90453403
vn -0.30151134 0.30151134 0.90453403
vn 0.57735027 -0.57735027 0.57735027
vn 0.57735027 0.57735027 0.57735027
vn -0.30151134 -0.30151134 0.90453403
vn -0.30151134 0.30151134 0.90453403
vn 0.57735027 -0.57735027 0.57735027
vn 0.57735027 0.57735027 0.57735027
vn -0.30151134 -0.30151134 0.90453403
vn -0.30151134 0.30151134 0.90453403
vn 0.57735027 -0.57735027 0.57735027
vn 0.57735027 0.57735027 0.57735027
vn -0.30151134 -0.30151134 0.90453403
vn -0.30151134 0.30151134 0.90453403
vn 0.57735027 -0.57735027 0.57735027
vn 0.57735027 0.57735027 0.57735027
vn -0.30151134 -0.30151134 0.90453403
vn -0.30151134 0.30151134 0.90453403
vn 0.57735027 -0.57735027 0.57735027
vn 0.57735027 0.57735027 0.57735027
vn -0.30151134 -0.30151134 0.90453403
vn -0.30151134 0.30151134 0.90453403
vn 0.57735027 -0.57735027 0.57735027
vn -0.57735027 -0.57735027 0.57735027
vn -0.30151134 -0.30151134 0.90453403
vn -0.57735027 0.57735027 0.57735027
vn 0.30151134 -0.30151134 0.90453403
vn 0.30151134 0.30151134 0.90453403
vn 0.57735027 -0.57735027 0.57735027
vn -0.30151134 0.30151134 0.90453403
vn 0.57735027 0.57735027 0.57735027
vn 0.90453403 -0.30151134 -0.30151134
vn -0.90453403 0.30151134 -0.30151134
vn -0.90453403 -0.30151134 -0.30151134
vn 0.90453403 0.30151134 -0.30151134
vn 0.90453403 -0.30151134 -0.30151134
vn -0.90453403 0.30151134 -0.30151134
vn -0.90453403 -0.30151134 -0.30151134
vn 0.90453403 0.30151134 -0.30151134
vn 0.90453403 -0.30151134 -0.30151134
vn -0.90453403 0.30151134 -0.30151134
vn -0.90453403 -0.30151134 -0.30151134
vn 0.90453403 0.30151134 -0.30151134
vn 0.90453403 -0.30151134 -0.30151134
vn -0.90453403 0.30151134 -0.30151134
vn -0.90453403 -0.30151134 -0.30151134
vn 0.90453403 0.30151134 -0.30151134
vn 0.90453403 -0.30151134 -0.30151134
vn -0.90453403 0.30151134 -0.30151134
vn -0.90453403 -0.30151134 -0.30151134
vn 0.90453403 0.30151134 -0.30151134
vn 0.90453403 -0.30151134 -0.30151134
vn -0.90453403 0.30151134 -0.30151134
vn -0.90453403 -0.30151134 -0.30151134
vn 0.90453403 0.30151134 -0.30151134
vn 0.30151134 -0.30151134 -0.90453403
vn 0.30151134 0.30151134 -0.90453403
vn -0.30151134 -0.30151134 -0.90453403
vn -0.30151134 0.30151134 -0.90453403
vn -0.70710678 0.00000000 -0.70710678
vn -0.70710678 0.00000000 -0.70710678
vn 0.57735027 0.57735027 -0.57735027
vn 0.57735027 -0.57735027 -0.57735027
vn 0.57735027 -0.57735027 -0.57735027
vn 0.57735027 0.57735027 -0.57735027
vn -0.57735027 -0.57735027 -0.57735027
vn -0.57735027 -0.57735027 -0.57735027
vn -0.57735027 0.57735027 -0.57735027
vn -0.57735027 0.57735027 -0.57735027
vn 0.90453403 -0.30151134 -0.30151134
vn 0.70710678 -0.70710678 0.00000000
vn 0.90453403 0.30151134 -0.30151134
vn 0.70710678 0.70710678 0.00000000
vn -0.57735027 -0.57735027 -0.57735027
vn 0.57735027 0.57735027 -0.57735027
vn 0.57735027 -0.57735027 -0.57735027
vn -0.57735027 0.57735027 -0.57735027
vn -0.70710678 0.70710678 0.00000000
vn -0.90453403 0.30151134 -0.30151134
vn -0.90453403 -0.30151134 -0.30151134
vn -0.70710678 -0.70710678 0.00000000
vn -0.57735027 -0.57735027 -0.57735027
vn 0.57735027 -0.57735027 -0.57735027
vn 0.57735027 0.57735027 -0.57735027
vn -0.57735027 0.57735027 -0.57735027
vn -0.57735027 0.57735027 0.57735027
vn 0.57735027 0.57735027 0.57735027
vn -0.30151134 -0.30151134 0.90453403
vn 0.30151134 -0.30151134 0.90453403
vn 0.30151134 0.30151134 0.90453403
vn -0.30151134 0.30151134 0.90453403
vn 0.70710678 0.00000000 0.70710678
vn 0.57735027 -0.57735027 0.57735027
vn -0.57735027 -0.57735027 0.57735027
vn -0.70710678 0.00000000 0.70710678
vn 0.00000000 0.00000000 1.00000000
vn 0.00000000 0.00000000 1.00000000
vn 0.00000000 0.00000000 1.00000000
vn 0.00000000 0.00000000 1.00000000
vn 0.00000000 0.00000000 1.00000000
vn 0.00000000 0.00000000 1.00000000
vn 0.00000000 0.00000000 1.00000000
vn 0.00000000 0.00000000 1.00000000
vn 0.57735581 0.68633380 0.44227387
vn -0.57735581 0.68633380 0.44227387
vn 0.57734473 0.44227812 -0.68634039
vn -0.57734473 0.44227812 -0.68634039
vn -0.57735581 -0.68633380 -0.44227387
vn -0.57734473 -0.44227812 0.68634039
vn 0.57734473 -0.44227812 0.68634039
vn 0.57735581 -0.68633380 -0.44227387
vn 0.57736914 0.44241318 -0.68623280
vn -0.57735467 0.68633927 0.44226687
vn 0.57735467 0.68633927 0.44226687
vn -0.57736914 0.44241318 -0.68623280
vn -0.57733225 -0.68625118 -0.44243282
vn -0.57734502 -0.44227607 0.68634146
vn 0.57734502 -0.44227607 0.68634146
vn 0.57733225 -0.68625118 -0.44243282
f 1//1 2//2 3//3
f 2//2 1//1 4//4
f 5//5 6//6 7//7
f 6//6 5//5 8//8
f 5//5 9//9 10//10
f 9//9 5//5 8//8
f 9//9 6//6 11//11
f 6//6 9//9 8//8
f 11//11 7//7 12//12
f 7//7 11//11 6//6
f 7//7 10//10 12//12
f 10//10 7//7 5//5
f 9//9 12//12 11//11
f 12//12 9//9 10//10
f 13//13 3//3 14//14
f 3//3 13//13 2//2
f 14//14 1//1 3//3
f 1//1 14//14 15//15
f 4//4 15//15 1//1
f 15//15 4//4 16//16
f 4//4 13//13 2//2
f 13//13 4//4 16//16
f 16//16 14//14 13//13
f 14//14 16//16 15//15
f 17//17 18//18 19//19
f 18//18 17//17 20//20
f 19//19 21//21 18//18
f 21//21 19//19 22//22
f 23//23 19//19 22//22
f 19//19 23//23 17//17
f 23//23 20//20 24//24
f 20//20 23//23 17//17
f 18//18 24//24 21//21
f 24//24 18//18 20//20
f 24//24 22//22 21//21
f 22//22 24//24 23//23
f 25//25 26//26 27//27
f 26//26 25//25 28//28
f 29//29 27//27 25//25
f 27//27 29//29 30//30
f 31//31 25//25 28//28
f 25//25 31//31 29//29
f 26//26 31//31 28//28
f 31//31 26//26 32//32
f 27//27 32//32 26//26
f 32//32 27//27 30//30
f 31//31 30//30 32//32
f 30//30 31//31 29//29
f 33//33 34//34 35//35
f 34//34 33//33 36//36
f 37//37 38//38 39//39
f 38//38 37//37 40//40
f 41//41 42//42 43//43
f 42//42 41//41 44//44
f 45//45 46//46 47//47
f 46//46 45//45 48//48
f 49//49 50//50 51//51
f 50//50 49//49 52//52
f 53//53 54//54 55//55
f 54//54 53//53 56//56
f 57//57 58//58 59//59
f 58//58 57//57 60//60
f 61//61 62//62 63//63
f 62//62 61//61 64//64
f 65//65 66//66 67//67
f 66//66 65//65 68//68
f 69//69 70//70 71//71
f 70//70 69//69 72//72
f 73//73 74//74 75//75
f 74//74 73//73 76//76
f 77//77 78//78 79//79
f 78//78 77//77 80//80
f 81//81 82//82 83//83
f 82//82 81//81 84//84
f 85//85 86//86 87//87
f 86//86 85//85 88//88
f 89//89 90//90 91//91
f 90//90 89//89 92//92
f 93//93 94//94 95//95
f 94//94 93//93 96//96
f 97//97 98//98 99//99
f 97//97 100//100 98//98
f 100//100 96//96 93//93
f 100//100 89//89 96//96
f 100//100 92//92 89//89
f 100//100 85//85 92//92
f 100//100 88//88 85//85
f 100//100 81//81 88//88
f 100//100 84//84 81//81
f 100//100 77//77 84//84
f 100//100 80//80 77//77
f 100//100 73//73 80//80
f 100//100 76//76 73//73
f 100//100 69//69 76//76
f 100//100 72//72 69//69
f 100//100 65//65 72//72
f 100//100 68//68 65//65
f 100//100 61//61 68//68
f 100//100 64//64 61//61
f 100//100 57//57 64//64
f 100//100 60//60 57//57
f 100//100 53//53 60//60
f 100//100 56//56 53//53
f 100//100 101//101 56//56
f 100//100 102//102 101//101
f 102//102 100//100 97//97
f 95//95 99//99 98//98
f 94//94 99//99 95//95
f 91//91 99//99 94//94
f 90//90 99//99 91//91
f 87//87 99//99 90//90
f 86//86 99//99 87//87
f 83//83 99//99 86//86
f 82//82 99//99 83//83
f 79//79 99//99 82//82
f 78//78 99//99 79//79
f 75//75 99//99 78//78
f 74//74 99//99 75//75
f 71//71 99//99 74//74
f 70//70 99//99 71//71
f 67//67 99//99 70//70
f 66//66 99//99 67//67
f 63//63 99//99 66//66
f 62//62 99//99 63//63
f 59//59 99//99 62//62
f 58//58 99//99 59//59
f 55//55 99//99 58//58
f 54//54 99//99 55//55
f 103//103 99//99 54//54
f 101//101 99//99 103//103
f 101//101 104//104 99//99
f 104//104 101//101 102//102
f 105//105 106//106 107//107
f 106//106 105//105 108//108
f 109//109 110//110 111//111
f 110//110 109//109 112//112
f 113//113 114//114 115//115
f 114//114 113//113 116//116
f 117//117 118//118 119//119
f 118//118 117//117 120//120
f 121//121 122//122 123//123
f 122//122 121//121 124//124
f 125//125 126//126 127//127
f 126//126 125//125 128//128
f 110//110 89//89 91//91
f 89//89 110//110 112//112
f 109//109 90//90 92//92
f 90//90 109//109 111//111
f 34//34 85//85 87//87
f 85//85 34//34 36//36
f 33//33 86//86 88//88
f 86//86 33//33 35//35
f 46//46 81//81 83//83
f 81//81 46//46 48//48
f 45//45 82//82 84//84
f 82//82 45//45 47//47
f 38//38 77//77 79//79
f 77//77 38//38 40//40
f 37//37 78//78 80//80
f 78//78 37//37 39//39
f 42//42 73//73 75//75
f 73//73 42//42 44//44
f 41//41 74//74 76//76
f 74//74 41//41 43//43
f 118//118 69//69 71//71
f 69//69 118//118 120//120
f 117//117 70//70 72//72
f 70//70 117//117 119//119
f 114//114 65//65 67//67
f 65//65 114//114 116//116
f 113//113 66//66 68//68
f 66//66 113//113 115//115
f 126//126 61//61 63//63
f 61//61 126//126 128//128
f 125//125 62//62 64//64
f 62//62 125//125 127//127
f 122//122 57//57 59//59
f 57//57 122//122 124//124
f 121//121 58//58 60//60
f 58//58 121//121 123//123
f 50//50 53//53 55//55
f 53//53 50//50 52//52
f 49//49 54//54 56//56
f 54//54 49//49 51//51
f 106//106 93//93 95//95
f 93//93 106//106 108//108
f 105//105 94//94 96//96
f 94//94 105//105 107//107
f 56//56 101//101 49//49
f 60//60 53//53 121//121
f 64//64 57//57 125//125
f 68//68 61//61 113//113
f 72//72 65//65 117//117
f 76//76 69//69 41//41
f 80//80 73//73 37//37
f 84//84 77//77 45//45
f 88//88 81//81 33//33
f 92//92 85//85 109//109
f 96//96 89//89 105//105
f 93//93 129//129 100//100
f 108//108 129//129 93//93
f 105//105 129//129 108//108
f 89//89 129//129 105//105
f 112//112 129//129 89//89
f 109//109 129//129 112//112
f 36//36 109//109 85//85
f 36//36 129//129 109//109
f 33//33 129//129 36//36
f 48//48 33//33 81//81
f 48//48 129//129 33//33
f 45//45 129//129 48//48
f 40//40 45//45 77//77
f 40//40 129//129 45//45
f 37//37 129//129 40//40
f 44//44 37//37 73//73
f 44//44 129//129 37//37
f 41//41 129//129 44//44
f 120//120 41//41 69//69
f 120//120 129//129 41//41
f 117//117 129//129 120//120
f 116//116 117//117 65//65
f 116//116 129//129 117//117
f 113//113 129//129 116//116
f 128//128 113//113 61//61
f 128//128 129//129 113//113
f 125//125 129//129 128//128
f 124//124 125//125 57//57
f 124//124 129//129 125//125
f 121//121 129//129 124//124
f 52//52 121//121 53//53
f 52//52 129//129 121//121
f 49//49 129//129 52//52
f 49//49 130//130 129//129
f 130//130 49//49 101//101
f 129//129 98//98 100//100
f 98//98 129//129 131//131
f 131//131 106//106 98//98
f 131//131 107//107 106//106
f 107//107 110//110 94//94
f 131//131 110//110 107//107
f 131//131 111//111 110//110
f 111//111 34//34 90//90
f 131//131 34//34 111//111
f 131//131 35//35 34//34
f 35//35 46//46 86//86
f 131//131 46//46 35//35
f 131//131 47//47 46//46
f 47//47 38//38 82//82
f 131//131 38//38 47//47
f 131//131 39//39 38//38
f 39//39 42//42 78//78
f 131//131 42//42 39//39
f 131//131 43//43 42//42
f 43//43 118//118 74//74
f 131//131 118//118 43//43
f 131//131 119//119 118//118
f 119//119 114//114 70//70
f 131//131 114//114 119//119
f 131//131 115//115 114//114
f 115//115 126//126 66//66
f 131//131 126//126 115//115
f 131//131 127//127 126//126
f 127//127 122//122 62//62
f 131//131 122//122 127//127
f 131//131 123//123 122//122
f 123//123 50//50 58//58
f 131//131 50//50 123//123
f 131//131 51//51 50//50
f 132//132 51//51 131//131
f 132//132 54//54 51//51
f 54//54 132//132 103//103
f 98//98 106//106 95//95
f 94//94 110//110 91//91
f 90//90 34//34 87//87
f 86//86 46//46 83//83
f 82//82 38//38 79//79
f 78//78 42//42 75//75
f 74//74 118//118 71//71
f 70//70 114//114 67//67
f 66//66 126//126 63//63
f 62//62 122//122 59//59
f 58//58 50//50 55//55
f 132//132 101//101 103//103
f 101//101 132//132 130//130
f 133//133 129//129 130//130
f 129//129 133//133 134//134
f 135//135 136//136 137//137
f 136//136 135//135 138//138
f 134//134 139//139 140//140
f 133//133 139//139 134//134
f 141//141 139//139 133//133
f 139//139 141//141 142//142
f 138//138 132//132 136//136
f 138//138 130//130 132//132
f 141//141 130//130 138//138
f 130//130 141//141 133//133
f 131//131 136//136 132//132
f 129//129 136//136 131//131
f 134//134 136//136 129//129
f 136//136 134//134 140//140
f 136//136 143//143 137//137
f 143//143 136//136 144//144
f 135//135 143//143 145//145
f 143//143 135//135 137//137
f 146//146 135//135 145//145
f 135//135 146//146 138//138
f 147//147 148//148 149//149
f 148//148 147//147 150//150
f 146//146 141//141 138//138
f 146//146 151//151 141//141
f 148//148 151//151 146//146
f 151//151 148//148 150//150
f 141//141 152//152 142//142
f 152//152 141//141 151//151
f 152//152 139//139 142//142
f 139//139 152//152 153//153
f 154//154 139//139 153//153
f 139//139 154//154 140//140
f 154//154 136//136 140//140
f 154//154 144//144 136//136
f 155//155 144//144 154//154
f 144//144 155//155 156//156
f 155//155 157//157 156//156
f 157//157 155//155 158//158
f 157//157 159//159 160//160
f 159//159 157//157 158//158
f 102//102 161//161 162//162
f 161//161 102//102 97//97
f 99//99 163//163 164//164
f 163//163 99//99 104//104
f 99//99 161//161 97//97
f 161//161 99//99 164//164
f 160//160 143//143 157//157
f 165//165 143//143 160//160
f 165//165 145//145 143//143
f 145//145 166//166 146//146
f 166//166 145//145 165//165
f 144//144 157//157 143//143
f 157//157 144//144 156//156
f 166//166 148//148 146//146
f 148//148 166//166 149//149
f 147//147 166//166 167//167
f 166//166 147//147 149//149
f 151//151 147//147 152//152
f 147//147 151//151 150//150
f 155//155 159//159 158//158
f 154//154 159//159 155//155
f 153//153 159//159 154//154
f 153//153 168//168 159//159
f 152//152 168//168 153//153
f 152//152 167//167 168//168
f 167//167 152//152 147//147
f 160//160 161//161 165//165
f 160//160 169//169 161//161
f 160//160 170//170 169//169
f 170//170 171//171 172//172
f 160//160 171//171 170//170
f 160//160 173//173 171//171
f 173//173 162//162 174//174
f 159//159 173//173 160//160
f 159//159 162//162 173//173
f 162//162 159//159 168//168
f 175//175 161//161 169//169
f 172//172 161//161 175//175
f 176//176 172//172 171//171
f 176//176 161//161 172//172
f 174//174 161//161 176//176
f 161//161 174//174 162//162
f 163//163 102//102 162//162
f 102//102 163//163 104//104
f 161//161 166//166 165//165
f 164//164 166//166 161//161
f 163//163 166//166 164//164
f 163//163 167//167 166//166
f 167//167 163//163 168//168
f 162//162 168//168 163//163
f 177//177 4//4 1//1
f 177//177 24//24 4//4
f 177//177 23//23 24//24
f 177//177 178//178 23//23
f 177//177 12//12 178//178
f 179//179 12//12 177//177
f 26//26 12//12 179//179
f 12//12 26//26 28//28
f 10//10 178//178 12//12
f 178//178 10//10 180//180
f 181//181 10//10 9//9
f 10//10 181//181 180//180
f 180//180 182//182 178//178
f 182//182 180//180 181//181
f 178//178 17//17 23//23
f 17//17 178//178 182//182
f 24//24 16//16 4//4
f 16//16 24//24 20//20
f 1//1 183//183 177//177
f 183//183 1//1 15//15
f 183//183 179//179 177//177
f 179//179 183//183 184//184
f 27//27 179//179 184//184
f 179//179 27//27 26//26
f 11//11 28//28 25//25
f 28//28 11//11 12//12
f 11//11 25//25 27//27
f 182//182 20//20 17//17
f 182//182 16//16 20//20
f 182//182 15//15 16//16
f 182//182 183//183 15//15
f 181//181 183//183 182//182
f 9//9 183//183 181//181
f 11//11 183//183 9//9
f 27//27 183//183 11//11
f 183//183 27//27 184//184
f 185//185 186//186 187//187
f 3//3 186//186 185//185
f 2//2 186//186 3//3
f 21//21 186//186 2//2
f 22//22 186//186 21//21
f 186//186 22//22 188//188
f 189//189 22//22 19//19
f 22//22 189//189 188//188
f 188//188 190//190 186//186
f 190//190 188//188 189//189
f 186//186 191//191 187//187
f 191//191 186//186 190//190
f 191//191 185//185 187//187
f 185//185 191//191 192//192
f 14//14 185//185 192//192
f 185//185 14//14 3//3
f 18//18 2//2 13//13
f 2//2 18//18 21//21
f 189//189 191//191 190//190
f 19//19 191//191 189//189
f 18//18 191//191 19//19
f 13//13 191//191 18//18
f 14//14 191//191 13//13
f 191//191 14//14 192//192