# https://github.com/mikedh/trimesh
v -0.03934500 0.04637600 0.00352200
v 0.03452900 -0.05909500 0.00352200
v 0.04311900 0.04019300 0.00352200
v -0.03934500 -0.05347100 0.00352200
v 0.03756400 0.05437600 0.00452100
v 0.02550000 0.05253000 0.00452100
v 0.03637300 0.05182600 0.00452100
v 0.02107600 0.05542500 0.00452100
v 0.02550000 0.05131100 0.00452100
v 0.04230200 0.05045500 0.00452100
v 0.04246800 0.04915500 0.00452100
v 0.04242600 0.04981100 0.00452100
v 0.04221800 0.04889300 0.00452100
v 0.04209900 0.05108000 0.00452100
v 0.04195100 0.04865100 0.00452100
v 0.04181900 0.05167400 0.00452100
v 0.04166700 0.04842600 0.00452100
v 0.04146600 0.05222800 0.00452100
v 0.04136800 0.04822400 0.00452100
v 0.04105500 0.04804200 0.00452100
v 0.04104800 0.05273400 0.00452100
v 0.04073000 0.04788400 0.00452100
v 0.04056900 0.05318400 0.00452100
v 0.04039500 0.04774700 0.00452100
v 0.04005100 0.04763600 0.00452100
v 0.04003700 0.05357100 0.00452100
v 0.03970000 0.04754900 0.00452100
v 0.03946200 0.05388800 0.00452100
v 0.03934400 0.04748800 0.00452100
v 0.03898400 0.04745100 0.00452100
v 0.03885100 0.05412800 0.00452100
v 0.03862300 0.04744100 0.00452100
v 0.03821500 0.05429400 0.00452100
v 0.03629500 0.05063000 0.00452100
v 0.03620000 0.05063000 0.00452100
v 0.02064000 0.04858600 0.00452100
v 0.00651100 0.05353000 0.00452100
v -0.00436100 0.05423200 0.00452100
v -0.01881700 0.05796500 0.00452100
v -0.00436100 0.05301300 0.00452100
v 0.00643400 0.05233200 0.00452100
v 0.00633800 0.05233200 0.00452100
v -0.01925200 0.05112600 0.00452100
v -0.02324300 0.05499600 0.00452100
v -0.03378900 0.05891900 0.00452100
v -0.03411600 0.05570000 0.00452100
v -0.03442900 0.05892100 0.00452100
v -0.03411600 0.05448000 0.00452100
v -0.02332000 0.05379900 0.00452100
v -0.02341600 0.05379900 0.00452100
v -0.03506300 0.05884200 0.00452100
v -0.03568300 0.05868400 0.00452100
v -0.03590400 0.05218600 0.00452100
v -0.03625500 0.05222600 0.00452100
v -0.03627800 0.05845200 0.00452100
v -0.03660100 0.05229600 0.00452100
v -0.03684000 0.05814600 0.00452100
v -0.03693900 0.05239700 0.00452100
v -0.03726600 0.05253000 0.00452100
v -0.03735900 0.05777500 0.00452100
v -0.03758000 0.05269200 0.00452100
v -0.03782900 0.05734000 0.00452100
v -0.03787800 0.05288200 0.00452100
v -0.03815700 0.05309700 0.00452100
v -0.03824000 0.05685100 0.00452100
v -0.03841500 0.05334000 0.00452100
v -0.03858800 0.05631500 0.00452100
v -0.03865000 0.05360300 0.00452100
v -0.03886000 0.05388600 0.00452100
v -0.03886600 0.05573800 0.00452100
v -0.03904300 0.05419000 0.00452100
v -0.03907000 0.05513200 0.00452100
v -0.03919800 0.05450700 0.00452100
v 0.03629500 0.05063000 0.00429400
v 0.03620000 0.05063000 0.00429400
v -0.02332000 0.05379900 0.00412000
v -0.02341600 0.05379900 0.00412000
v -0.03913400 -0.05347100 0.00452100
v -0.00436100 0.05423200 0.00428700
v -0.00436100 0.05301300 0.00428700
v 0.00643400 0.05233200 0.00428700
v 0.00633800 0.05233200 0.00428700
v -0.04476400 0.06520000 0.00452100
v -0.04463300 0.06186700 0.00452100
v -0.04444900 0.06684000 0.00452100
v -0.04482700 0.06352900 0.00452100
v 0.01446500 -0.06557700 0.00452100
v 0.01257200 -0.06734400 0.00452100
v 0.01446500 -0.06772800 0.00452100
v 0.04272900 0.06834600 0.00452100
v 0.04120400 0.06879400 0.00452100
v 0.03963100 0.06902100 0.00452100
v -0.03310600 0.07487900 0.00452100
v -0.03477800 0.07487200 0.00452100
v -0.03642900 0.07460800 0.00452100
v -0.03802100 0.07409600 0.00452100
v -0.03951600 0.07334800 0.00452100
v 0.04311900 0.04019300 0.00452100
v 0.04417400 0.06768500 0.00452100
v -0.03913400 0.04637600 0.00452100
v 0.04970100 0.06026500 0.00452100
v 0.04991400 0.05710200 0.00452100
v 0.04992100 0.05869200 0.00452100
v 0.04968100 0.05553000 0.00452100
v 0.04925800 0.06179200 0.00452100
v 0.04860200 0.06323800 0.00452100
v 0.04774700 0.06457900 0.00452100
v 0.04670900 0.06578100 0.00452100
v 0.04550900 0.06682500 0.00452100
v 0.03963100 -0.07178200 0.00452100
v 0.03924900 -0.07311300 0.00452100
v 0.03871200 -0.07439000 0.00452100
v 0.03802700 -0.07559400 0.00452100
v 0.03720600 -0.07670900 0.00452100
v 0.03625800 -0.07771900 0.00452100
v 0.03519700 -0.07861000 0.00452100
v 0.03452900 -0.05909500 0.00452100
v 0.03403900 -0.07936900 0.00452100
v 0.03279900 -0.07998700 0.00452100
v 0.03255600 -0.06080700 0.00452100
v 0.03001200 -0.06080700 0.00452100
v 0.02759800 -0.06105500 0.00452100
v 0.03001200 -0.06490300 0.00452100
v 0.02495500 -0.06105500 0.00452100
v 0.02277000 -0.06095000 0.00452100
v 0.02495500 -0.06738500 0.00452100
v 0.01813600 -0.06107100 0.00452100
v 0.01641800 -0.06105700 0.00452100
v 0.01813600 -0.06782500 0.00452100
v 0.01446500 -0.06105700 0.00452100
v 0.01273700 -0.06092300 0.00452100
v 0.01446500 -0.06255600 0.00452100
v 0.01070100 -0.06092300 0.00452100
v 0.00924200 -0.06105700 0.00452100
v 0.01070100 -0.06734400 0.00452100
v 0.00660700 -0.06105700 0.00452100
v 0.00572700 -0.06072200 0.00452100
v 0.00660700 -0.06741000 0.00452100
v 0.00431000 -0.06072200 0.00452100
v 0.00223500 -0.06050100 0.00452100
v 0.00301700 -0.06377200 0.00452100
v -0.00003100 -0.06050100 0.00452100
v -0.01824900 -0.07262600 0.00452100
v -0.01824600 -0.07267700 0.00452100
v -0.01826000 -0.07257600 0.00452100
v -0.01827800 -0.07252800 0.00452100
v -0.01830300 -0.07248400 0.00452100
v -0.01833300 -0.07244300 0.00452100
v -0.01837000 -0.07240700 0.00452100
v -0.02165500 -0.07219400 0.00452100
v -0.02177100 -0.07240600 0.00452100
v -0.02660900 -0.07190900 0.00452100
v -0.02177500 -0.07245500 0.00452100
v -0.02176100 -0.07235800 0.00452100
v -0.02174300 -0.07231200 0.00452100
v -0.02172000 -0.07226800 0.00452100
v -0.02169000 -0.07222900 0.00452100
v -0.02662600 -0.07164000 0.00452100
v -0.02671100 -0.07138400 0.00452100
v -0.02686000 -0.07115900 0.00452100
v -0.02706200 -0.07098000 0.00452100
v -0.02730300 -0.07085900 0.00452100
v -0.02756700 -0.07080500 0.00452100
v -0.03568700 -0.07025400 0.00452100
v -0.03595300 -0.07027000 0.00452100
v -0.03677800 -0.07120100 0.00452100
v -0.03860200 -0.07418400 0.00452100
v -0.03731300 -0.07485300 0.00452100
v -0.03672500 -0.07093900 0.00452100
v -0.03660600 -0.07070100 0.00452100
v -0.03620600 -0.07035400 0.00452100
v -0.03642900 -0.07050100 0.00452100
v -0.03980400 -0.07337000 0.00452100
v -0.04088000 0.07238300 0.00452100
v -0.04090400 -0.07242100 0.00452100
v -0.04188700 -0.07135100 0.00452100
v -0.04208200 0.07121900 0.00452100
v -0.04273800 -0.07017400 0.00452100
v -0.04309100 0.06988700 0.00452100
v -0.04344700 -0.06890700 0.00452100
v -0.04388700 0.06841500 0.00452100
v -0.04400400 -0.06756500 0.00452100
v -0.04440100 -0.06616800 0.00452100
v -0.04463300 -0.06473500 0.00452100
v 0.03255600 -0.06778000 0.00452100
v 0.03149400 -0.08045300 0.00452100
v 0.03014400 -0.08076200 0.00452100
v 0.03001200 -0.06778000 0.00452100
v 0.02876700 -0.08090900 0.00452100
v 0.02738200 -0.08089200 0.00452100
v 0.02715800 -0.06385500 0.00452100
v 0.02701500 -0.06441800 0.00452100
v 0.02699700 -0.06738500 0.00452100
v 0.02277000 -0.06782500 0.00452100
v 0.01641800 -0.06772800 0.00452100
v 0.00924200 -0.06741000 0.00452100
v 0.00431000 -0.06727200 0.00452100
v 0.00223500 -0.06727200 0.00452100
v -0.01824900 -0.07272800 0.00452100
v -0.01826000 -0.07277700 0.00452100
v -0.01827800 -0.07282500 0.00452100
v -0.01830300 -0.07287000 0.00452100
v -0.01833300 -0.07291000 0.00452100
v -0.01837000 -0.07294600 0.00452100
v -0.02165500 -0.07271700 0.00452100
v -0.02177100 -0.07250500 0.00452100
v -0.02176100 -0.07255300 0.00452100
v -0.02174300 -0.07260000 0.00452100
v -0.02172000 -0.07264300 0.00452100
v -0.02169000 -0.07268200 0.00452100
v -0.02666300 -0.07217400 0.00452100
v -0.02678400 -0.07241500 0.00452100
v -0.02696300 -0.07261700 0.00452100
v -0.02718800 -0.07276500 0.00452100
v -0.02744400 -0.07285100 0.00452100
v -0.02771300 -0.07286700 0.00452100
v -0.03310600 -0.07590900 0.00452100
v -0.03454600 -0.07572200 0.00452100
v -0.03583200 -0.07229200 0.00452100
v -0.03595500 -0.07536800 0.00452100
v -0.03609300 -0.07223900 0.00452100
v -0.03633100 -0.07211900 0.00452100
v -0.03653100 -0.07194200 0.00452100
v -0.03667800 -0.07172000 0.00452100
v -0.03676200 -0.07146700 0.00452100
v 0.01381200 -0.06428700 0.00452100
v 0.00223500 -0.06377200 0.00452100
v 0.00335400 -0.06501700 0.00452100
v 0.00238500 -0.06501700 0.00452100
v 0.00335400 -0.06662200 0.00452100
v 0.00300500 -0.06662200 0.00452100
v 0.02550000 0.05131100 0.00429400
v 0.02550000 0.05253000 0.00429400
v 0.03637300 0.05182600 0.00429400
v -0.03411600 0.05448000 0.00412000
v -0.03411600 0.05570000 0.00412000
v -0.02324300 0.05499600 0.00412000
v 0.02183900 -0.06245800 0.00452100
v 0.01908300 -0.06245800 0.00452100
v 0.02183900 -0.06662200 0.00452100
v 0.01940100 -0.06662200 0.00452100
v 0.00651100 0.05353000 0.00428700
v -0.04060700 -0.07960100 -0.00621500
v 0.03016400 -0.08640400 -0.00034000
v -0.04060700 -0.07960100 -0.00034000
v 0.03016400 -0.08640400 -0.00621500
v -0.05137700 -0.06905400 -0.00621500
v -0.05137700 0.05747100 -0.00034000
v -0.05137700 0.05747100 -0.00621500
v -0.05137700 -0.06905400 -0.00034000
v -0.05137700 0.07153500 -0.00034000
v -0.05137700 0.07153500 -0.00621500
v 0.04396700 0.07747000 -0.00621500
v -0.04105200 0.08541800 -0.00034000
v 0.04396700 0.07747000 -0.00034000
v -0.04105200 0.08541800 -0.00621500
v 0.04508500 -0.07482800 -0.00034000
v 0.05700500 0.06242900 -0.00621500
v 0.05700500 0.06242900 -0.00034000
v 0.04508500 -0.07482800 -0.00621500
v 0.05675900 0.06608700 -0.00621500
v 0.05700100 0.06426500 -0.00621500
v 0.05628500 0.06786000 -0.00621500
v 0.05558500 0.06955800 -0.00621500
v 0.05467200 0.07115200 -0.00621500
v 0.05356200 0.07261600 -0.00621500
v 0.05227200 0.07392100 -0.00621500
v 0.05082300 0.07505200 -0.00621500
v 0.04924200 0.07598500 -0.00621500
v 0.04755300 0.07670600 -0.00621500
v 0.04578500 0.07720400 -0.00621500
v 0.04468700 -0.07650800 -0.00621500
v 0.04408500 -0.07812600 -0.00621500
v 0.04328900 -0.07965700 -0.00621500
v 0.04231100 -0.08107900 -0.00621500
v 0.04116500 -0.08237000 -0.00621500
v 0.03986900 -0.08351000 -0.00621500
v 0.03844300 -0.08448200 -0.00621500
v 0.03690800 -0.08527100 -0.00621500
v 0.03528700 -0.08586500 -0.00621500
v 0.03360600 -0.08625600 -0.00621500
v 0.03188900 -0.08643600 -0.00621500
v -0.04200300 -0.07953800 -0.00621500
v -0.04263400 0.08484100 -0.00621500
v -0.04338000 -0.07929000 -0.00621500
v -0.04413900 0.08408300 -0.00621500
v -0.04471100 -0.07886300 -0.00621500
v -0.04554600 0.08315600 -0.00621500
v -0.04597400 -0.07826300 -0.00621500
v -0.04683500 0.08207400 -0.00621500
v -0.04714700 -0.07750100 -0.00621500
v -0.04799100 0.08084700 -0.00621500
v -0.04820900 -0.07659100 -0.00621500
v -0.04899600 0.07949500 -0.00621500
v -0.04914100 -0.07554900 -0.00621500
v -0.04983800 0.07803500 -0.00621500
v -0.04992700 -0.07439200 -0.00621500
v -0.05050400 0.07648900 -0.00621500
v -0.05055300 -0.07314200 -0.00621500
v -0.05098700 0.07487500 -0.00621500
v -0.05100800 -0.07182000 -0.00621500
v -0.05127900 0.07321600 -0.00621500
v -0.05128500 -0.07044900 -0.00621500
v 0.04408500 -0.07812600 0.00553600
v 0.04468700 -0.07650800 0.00553600
v 0.04328900 -0.07965700 0.00553600
v 0.04231100 -0.08107900 0.00553600
v 0.04116500 -0.08237000 0.00553600
v 0.03986900 -0.08351000 0.00553600
v 0.03844300 -0.08448200 0.00553600
v 0.03690800 -0.08527100 0.00553600
v 0.03528700 -0.08586500 0.00553600
v 0.03360600 -0.08625600 0.00553600
v 0.03188900 -0.08643600 0.00553600
v 0.03016400 -0.08640400 0.00553600
v -0.04060700 -0.07960100 0.00553600
v -0.04200300 -0.07953800 0.00553600
v -0.04338000 -0.07929000 0.00553600
v -0.04471100 -0.07886300 0.00553600
v -0.04597400 -0.07826300 0.00553600
v -0.04714700 -0.07750100 0.00553600
v -0.04820900 -0.07659100 0.00553600
v -0.04914100 -0.07554900 0.00553600
v -0.04992700 -0.07439200 0.00553600
v -0.05055300 -0.07314200 0.00553600
v -0.05100800 -0.07182000 0.00553600
v -0.05128500 -0.07044900 0.00553600
v -0.05128500 -0.07044900 -0.00034000
v -0.05137700 -0.06905400 0.00553600
v -0.05137700 0.05747100 0.00553600
v -0.05137700 0.07153500 0.00553600
v -0.05127900 0.07321600 0.00553600
v -0.05098700 0.07487500 0.00553600
v -0.05050400 0.07648900 0.00553600
v -0.04983800 0.07803500 0.00553600
v -0.04899600 0.07949500 0.00553600
v -0.04799100 0.08084700 0.00553600
v -0.04683500 0.08207400 0.00553600
v -0.04554600 0.08315600 0.00553600
v -0.04413900 0.08408300 0.00553600
v -0.04263400 0.08484100 -0.00034000
v -0.04263400 0.08484100 0.00553600
v -0.04105200 0.08541800 0.00553600
v 0.04396700 0.07747000 0.00553600
v 0.04578500 0.07720400 0.00553600
v 0.04755300 0.07670600 0.00553600
v 0.04924200 0.07598500 0.00553600
v 0.05082300 0.07505200 0.00553600
v 0.05227200 0.07392100 0.00553600
v 0.05356200 0.07261600 0.00553600
v 0.05467200 0.07115200 0.00553600
v 0.05558500 0.06955800 0.00553600
v 0.05628500 0.06786000 0.00553600
v 0.05628500 0.06786000 -0.00034000
v 0.05675900 0.06608700 0.00553600
v 0.05700100 0.06426500 0.00553600
v 0.05700500 0.06242900 0.00553600
v 0.04508500 -0.07482800 0.00553600
v -0.04463300 0.06186700 0.00553600
v -0.04463300 -0.06473500 0.00553600
v -0.04482700 0.06352900 0.00553600
v 0.04970100 0.06026500 0.00553600
v 0.04992100 0.05869200 0.00553600
v 0.04925800 0.06179200 0.00553600
v 0.04860200 0.06323800 0.00553600
v 0.04774700 0.06457900 0.00553600
v 0.04670900 0.06578100 0.00553600
v 0.04550900 0.06682500 0.00553600
v 0.04417400 0.06768500 0.00553600
v 0.04272900 0.06834600 0.00553600
v 0.04120400 0.06879400 0.00553600
v 0.03963100 0.06902100 0.00553600
v -0.03310600 0.07487900 0.00553600
v -0.03477800 0.07487200 0.00553600
v -0.03642900 0.07460800 0.00553600
v -0.03802100 0.07409600 0.00553600
v -0.03951600 0.07334800 0.00553600
v -0.04088000 0.07238300 0.00553600
v -0.04208200 0.07121900 0.00553600
v -0.04309100 0.06988700 0.00553600
v -0.04388700 0.06841500 0.00553600
v -0.04444900 0.06684000 0.00553600
v -0.04476400 0.06520000 0.00553600
v 0.04991400 0.05710200 0.00553600
v 0.04968100 0.05553000 0.00553600
v 0.03963100 -0.07178200 0.00553600
v 0.03924900 -0.07311300 0.00553600
v 0.03871200 -0.07439000 0.00553600
v 0.03802700 -0.07559400 0.00553600
v 0.03720600 -0.07670900 0.00553600
v 0.03625800 -0.07771900 0.00553600
v 0.03519700 -0.07861000 0.00553600
v 0.03403900 -0.07936900 0.00553600
v 0.03279900 -0.07998700 0.00553600
v 0.03149400 -0.08045300 0.00553600
v 0.03014400 -0.08076200 0.00553600
v 0.02876700 -0.08090900 0.00553600
v 0.02738200 -0.08089200 0.00553600
v -0.03310600 -0.07590900 0.00553600
v -0.03454600 -0.07572200 0.00553600
v -0.03595500 -0.07536800 0.00553600
v -0.03731300 -0.07485300 0.00553600
v -0.03860200 -0.07418400 0.00553600
v -0.03980400 -0.07337000 0.00553600
v -0.04090400 -0.07242100 0.00553600
v -0.04188700 -0.07135100 0.00553600
v -0.04273800 -0.07017400 0.00553600
v -0.04344700 -0.06890700 0.00553600
v -0.04400400 -0.06756500 0.00553600
v -0.04440100 -0.06616800 0.00553600
vn 0.62152952 -0.58882895 0.51670255
vn -0.52834376 0.62201621 0.57788295
vn -0.62226707 -0.52928562 0.57674988
vn 0.65725562 0.54457893 0.52100752
vn 0.00000000 0.00000000 1.00000000
vn 0.28051118 -0.29926096 0.91200677
vn -0.32034110 -0.28124834 0.90458883
vn 0.00000000 0.00000000 1.00000000
vn 0.32233849 0.30247548 0.89699860
vn 0.00000000 0.00000000 1.00000000
vn 0.00000000 0.00000000 1.00000000
vn 0.00000000 0.00000000 1.00000000
vn 0.00000000 0.00000000 1.00000000
vn 0.00000000 0.00000000 1.00000000
vn 0.00000000 0.00000000 1.00000000
vn 0.00000000 0.00000000 1.00000000
vn 0.00000000 0.00000000 1.00000000
vn 0.00000000 0.00000000 1.00000000
vn 0.00000000 0.00000000 1.00000000
vn 0.00000000 0.00000000 1.00000000
vn 0.00000000 0.00000000 1.00000000
vn 0.00000000 0.00000000 1.00000000
vn 0.00000000 0.00000000 1.00000000
vn 0.00000000 0.00000000 1.00000000
vn 0.00000000 0.00000000 1.00000000
vn 0.00000000 0.00000000 1.00000000
vn 0.00000000 0.00000000 1.00000000
vn 0.00000000 0.00000000 1.00000000
vn 0.00000000 0.00000000 1.00000000
vn 0.00000000 0.00000000 1.00000000
vn 0.00000000 0.00000000 1.00000000
vn 0.00000000 0.00000000 1.00000000
vn 0.00000000 0.00000000 1.00000000
vn -0.30248351 0.32285329 0.89681072
vn 0.02223592 0.69945672 0.71432896
vn 0.00000000 0.00000000 1.00000000
vn -0.32032627 -0.28155226 0.90449953
vn 0.28056842 -0.29926886 0.91198657
vn 0.00000000 0.00000000 1.00000000
vn 0.32234043 0.30247551 0.89699789
vn -0.30247878 0.32254439 0.89692347
vn 0.02223797 0.69945596 0.71432964
vn 0.00000000 0.00000000 1.00000000
vn -0.32038185 -0.28153560 0.90448503
vn 0.00000000 0.00000000 1.00000000
vn 0.28051118 -0.29926096 0.91200677
vn 0.00000000 0.00000000 1.00000000
vn 0.32233849 0.30247548 0.89699860
vn -0.30247906 0.32256196 0.89691705
vn 0.02223592 0.69945672 0.71432896
vn 0.00000000 0.00000000 1.00000000
vn 0.00000000 0.00000000 1.00000000
vn 0.00000000 0.00000000 1.00000000
vn 0.00000000 0.00000000 1.00000000
vn 0.00000000 0.00000000 1.00000000
vn 0.00000000 0.00000000 1.00000000
vn 0.00000000 0.00000000 1.00000000
vn 0.00000000 0.00000000 1.00000000
vn 0.00000000 0.00000000 1.00000000
vn 0.00000000 0.00000000 1.00000000
vn 0.00000000 0.00000000 1.00000000
vn 0.00000000 0.00000000 1.00000000
vn 0.00000000 0.00000000 1.00000000
vn 0.00000000 0.00000000 1.00000000
vn 0.00000000 0.00000000 1.00000000
vn 0.00000000 0.00000000 1.00000000
vn 0.00000000 0.00000000 1.00000000
vn 0.00000000 0.00000000 1.00000000
vn 0.00000000 0.00000000 1.00000000
vn 0.00000000 0.00000000 1.00000000
vn 0.00000000 0.00000000 1.00000000
vn 0.00000000 0.00000000 1.00000000
vn 0.00000000 0.00000000 1.00000000
vn -0.55654666 0.59402550 0.58085241
vn 0.02269057 0.71375820 0.70002455
vn -0.55683358 0.59380419 0.58080371
vn 0.02269057 0.71375820 0.70002455
vn 0.33925926 0.35977685 0.86917419
vn 0.56003606 -0.59736358 0.57403516
vn 0.59363578 0.55705171 0.58076669
vn -0.55685089 0.59379083 0.58080077
vn 0.02269270 0.71375877 0.70002389
vn 0.71875328 -0.08209308 0.69040166
vn 0.69237470 0.04027264 0.72041334
vn 0.69802439 -0.19037043 0.69030504
vn 0.72305330 0.02840053 0.69020818
vn 0.00000000 0.00000000 1.00000000
vn 0.00000000 0.00000000 1.00000000
vn 0.00000000 0.00000000 1.00000000
vn -0.25275302 -0.67687462 0.69134410
vn -0.15379536 -0.70587502 0.69143868
vn -0.07969483 -0.70959245 0.70009092
vn -0.02727889 -0.71585389 0.69771704
vn 0.05882197 -0.72126618 0.69015584
vn 0.16835925 -0.70361774 0.69034574
vn 0.27341625 -0.66984258 0.69032925
vn 0.37181452 -0.62053218 0.69043014
vn -0.32262658 -0.27441811 0.90587349
vn -0.34680991 -0.63384664 0.69134747
vn 0.27914604 -0.35263667 0.89315445
vn -0.70656401 -0.15108595 0.69133229
vn -0.72039633 0.05469275 0.69140280
vn -0.72089824 -0.04857400 0.69133660
vn -0.69478923 0.07882036 0.71488130
vn -0.67771589 -0.25056153 0.69131765
vn -0.63505529 -0.34425510 0.69151516
vn -0.57967133 -0.43155086 0.69119100
vn -0.51178288 -0.50990459 0.69143010
vn -0.43390870 -0.57777885 0.69129938
vn -0.71666631 0.12976982 0.68523659
vn -0.67904336 0.23926994 0.69401009
vn -0.64592896 0.31814960 0.69394280
vn -0.60370513 0.39206724 0.69413500
vn -0.55337108 0.46065395 0.69395849
vn -0.49484121 0.52294777 0.69401571
vn -0.42957459 0.57773655 0.69403613
vn -0.27766791 0.32689752 0.90334852
vn -0.35849308 0.62427630 0.69409063
vn -0.28216743 0.66245933 0.69392303
vn 0.00000000 0.00000000 1.00000000
vn 0.00000000 0.00000000 1.00000000
vn 0.00000000 0.00000000 1.00000000
vn 0.00000000 0.00000000 1.00000000
vn 0.00000000 0.00000000 1.00000000
vn 0.00000000 0.00000000 1.00000000
vn 0.00000000 0.00000000 1.00000000
vn 0.00000000 0.00000000 1.00000000
vn 0.00000000 0.00000000 1.00000000
vn 0.00000000 0.00000000 1.00000000
vn 0.00000000 0.00000000 1.00000000
vn 0.00000000 0.00000000 1.00000000
vn 0.00000000 0.00000000 1.00000000
vn 0.00000000 0.00000000 1.00000000
vn 0.00000000 0.00000000 1.00000000
vn 0.00000000 0.00000000 1.00000000
vn 0.00000000 0.00000000 1.00000000
vn 0.00000000 0.00000000 1.00000000
vn 0.00000000 0.00000000 1.00000000
vn 0.00000000 0.00000000 1.00000000
vn 0.00000000 0.00000000 1.00000000
vn 0.00000000 0.00000000 1.00000000
vn 0.00000000 0.00000000 1.00000000
vn 0.00000000 0.00000000 1.00000000
vn 0.00000000 0.00000000 1.00000000
vn 0.00000000 0.00000000 1.00000000
vn 0.00000000 0.00000000 1.00000000
vn 0.00000000 0.00000000 1.00000000
vn 0.00000000 0.00000000 1.00000000
vn 0.00000000 0.00000000 1.00000000
vn 0.00000000 0.00000000 1.00000000
vn 0.00000000 0.00000000 1.00000000
vn 0.00000000 0.00000000 1.00000000
vn 0.00000000 0.00000000 1.00000000
vn 0.00000000 0.00000000 1.00000000
vn 0.00000000 0.00000000 1.00000000
vn 0.00000000 0.00000000 1.00000000
vn 0.00000000 0.00000000 1.00000000
vn 0.00000000 0.00000000 1.00000000
vn 0.00000000 0.00000000 1.00000000
vn 0.00000000 0.00000000 1.00000000
vn 0.00000000 0.00000000 1.00000000
vn 0.00000000 0.00000000 1.00000000
vn 0.00000000 0.00000000 1.00000000
vn 0.00000000 0.00000000 1.00000000
vn 0.00000000 0.00000000 1.00000000
vn 0.00000000 0.00000000 1.00000000
vn 0.36819616 0.61844394 0.69423243
vn 0.29387378 0.65699280 0.69426124
vn 0.00000000 0.00000000 1.00000000
vn 0.00000000 0.00000000 1.00000000
vn 0.00000000 0.00000000 1.00000000
vn 0.00000000 0.00000000 1.00000000
vn 0.43761769 0.57143626 0.69422717
vn 0.46199948 -0.55689203 0.69023746
vn 0.50089255 0.51677445 0.69429880
vn 0.55764427 0.45513821 0.69417727
vn 0.54162844 -0.47973480 0.69028483
vn 0.60663741 0.38720622 0.69430713
vn 0.60831115 -0.39163162 0.69034935
vn 0.64755669 0.31424058 0.69420688
vn 0.66086296 -0.29451491 0.69030509
vn 0.67970599 0.23673265 0.69423153
vn 0.70259241 0.15614953 0.69424868
vn 0.72195418 0.05806350 0.68950040
vn 0.00000000 0.00000000 1.00000000
vn -0.20171053 0.69106470 0.69407669
vn -0.11874171 0.71011486 0.69400093
vn 0.00000000 0.00000000 1.00000000
vn -0.03385393 0.71917387 0.69400494
vn 0.03375060 0.71400802 0.69932357
vn 0.00000000 0.00000000 1.00000000
vn 0.00000000 0.00000000 1.00000000
vn 0.00000000 0.00000000 1.00000000
vn 0.00000000 0.00000000 1.00000000
vn 0.00000000 0.00000000 1.00000000
vn 0.00000000 0.00000000 1.00000000
vn 0.00000000 0.00000000 1.00000000
vn 0.00000000 0.00000000 1.00000000
vn 0.00000000 0.00000000 1.00000000
vn 0.00000000 0.00000000 1.00000000
vn 0.00000000 0.00000000 1.00000000
vn 0.00000000 0.00000000 1.00000000
vn 0.00000000 0.00000000 1.00000000
vn 0.00000000 0.00000000 1.00000000
vn 0.00000000 0.00000000 1.00000000
vn 0.00000000 0.00000000 1.00000000
vn 0.00000000 0.00000000 1.00000000
vn 0.00000000 0.00000000 1.00000000
vn 0.00000000 0.00000000 1.00000000
vn 0.00000000 0.00000000 1.00000000
vn 0.00000000 0.00000000 1.00000000
vn 0.00000000 0.00000000 1.00000000
vn 0.00000000 0.00000000 1.00000000
vn 0.00000000 0.00000000 1.00000000
vn 0.00000000 0.00000000 1.00000000
vn 0.00000000 0.00000000 1.00000000
vn 0.07512754 0.70833984 0.70186218
vn 0.13427438 0.70716651 0.69418003
vn 0.00000000 0.00000000 1.00000000
vn 0.21565810 0.68666117 0.69425358
vn 0.00000000 0.00000000 1.00000000
vn 0.00000000 0.00000000 1.00000000
vn 0.00000000 0.00000000 1.00000000
vn 0.00000000 0.00000000 1.00000000
vn 0.00000000 0.00000000 1.00000000
vn 0.00000000 0.00000000 1.00000000
vn 0.00000000 0.00000000 1.00000000
vn 0.00000000 0.00000000 1.00000000
vn 0.00000000 0.00000000 1.00000000
vn 0.00000000 0.00000000 1.00000000
vn 0.00000000 0.00000000 1.00000000
vn 0.59363430 0.55705362 0.58076637
vn 0.55998739 -0.59741777 0.57402625
vn -0.61358687 -0.53870792 0.57732567
vn 0.59363430 0.55705362 0.58076637
vn 0.55998739 -0.59741777 0.57402625
vn -0.61332336 -0.53895799 0.57737227
vn 0.00000000 0.00000000 1.00000000
vn 0.00000000 0.00000000 1.00000000
vn 0.00000000 0.00000000 1.00000000
vn 0.00000000 0.00000000 1.00000000
vn -0.61326464 -0.53903179 0.57736576
vn -0.04937692 -0.69956535 -0.71286061
vn -0.05715937 -0.99836507 0.00000000
vn -0.07040712 -0.99751834 0.00000000
vn -0.04090304 -0.71442644 -0.69851400
vn -0.71397956 -0.02351787 -0.69977146
vn -1.00000000 0.00000000 0.00000000
vn -0.70710678 0.00000000 -0.70710678
vn -1.00000000 0.00000000 0.00000000
vn -0.99957615 0.02911225 0.00000000
vn -0.71323944 0.02077281 -0.70061258
vn 0.08480786 0.70780931 -0.70129424
vn -0.12790908 0.99178590 0.00000000
vn 0.11896648 0.99289827 0.00000000
vn -0.09599871 0.74435812 -0.66084434
vn 0.99625022 -0.08651874 0.00000000
vn 0.71618803 -0.03025845 -0.69725112
vn 0.99910869 -0.04221165 0.00000000
vn 0.71361408 -0.11488565 -0.69105443
vn 0.70717308 0.14087988 -0.69286297
vn 0.71951669 0.04836186 -0.69278919
vn 0.68312079 0.23103432 -0.69279805
vn 0.64751673 0.31726284 -0.69286822
vn 0.60133248 0.39780351 -0.69292973
vn 0.54499931 0.47241047 -0.69267893
vn 0.47917576 0.53871750 -0.69294592
vn 0.40594937 0.59599678 -0.69281523
vn 0.32548992 0.64348251 -0.69281063
vn 0.23978515 0.68000103 -0.69289370
vn 0.15026108 0.70524896 -0.69285316
vn 0.68948759 -0.20906420 -0.69346883
vn 0.65847554 -0.29234175 -0.69350289
vn 0.61756019 -0.37099189 -0.69353041
vn 0.56730447 -0.44413428 -0.69347702
vn 0.50829314 -0.51059725 -0.69349011
vn 0.44164008 -0.56920292 -0.69351430
vn 0.36828294 -0.61923880 -0.69347746
vn 0.28918396 -0.65990043 -0.69347247
vn 0.20592344 -0.69033773 -0.69356280
vn 0.11941215 -0.71057548 -0.69341418
vn 0.03093420 -0.71976211 -0.69353124
vn -0.08038165 -0.71698224 -0.69244152
vn -0.28569109 0.66065730 -0.69419921
vn -0.17449750 -0.69996363 -0.69253270
vn -0.36045254 0.62292596 -0.69428900
vn -0.26557532 -0.67081238 -0.69244531
vn -0.43003838 0.57705339 -0.69431720
vn -0.35205751 -0.62968876 -0.69249374
vn -0.49417780 0.52333684 -0.69419511
vn -0.43213900 -0.57764350 -0.69251994
vn -0.55167914 0.46224495 -0.69424760
vn -0.50467127 -0.51551635 -0.69249534
vn -0.60154480 0.39512301 -0.69427780
vn -0.56852014 -0.44418047 -0.69245113
vn -0.64333177 0.32270748 -0.69425076
vn -0.62224944 -0.36501076 -0.69251194
vn -0.67636490 0.24594950 -0.69429055
vn -0.66508822 -0.27953580 -0.69247195
vn -0.70038731 0.16583897 -0.69422983
vn -0.69611281 -0.18922498 -0.69254665
vn -0.71483938 0.08346118 -0.69429021
vn -0.71518206 -0.09539762 -0.69239722
vn 0.65847554 -0.29234175 0.69350289
vn 0.68948759 -0.20906420 0.69346883
vn 0.61756019 -0.37099189 0.69353041
vn 0.56730447 -0.44413428 0.69347702
vn 0.50829314 -0.51059725 0.69349011
vn 0.44164008 -0.56920292 0.69351430
vn 0.36828294 -0.61923880 0.69347746
vn 0.28918396 -0.65990043 0.69347247
vn 0.20592344 -0.69033773 0.69356280
vn 0.11941215 -0.71057548 0.69341418
vn 0.03093420 -0.71976211 0.69353124
vn -0.04090304 -0.71442644 0.69851400
vn -0.04937692 -0.69956535 0.71286061
vn -0.08038165 -0.71698224 0.69244152
vn -0.17449750 -0.69996363 0.69253270
vn -0.26557532 -0.67081238 0.69244531
vn -0.35205751 -0.62968876 0.69249374
vn -0.43213900 -0.57764350 0.69251994
vn -0.50467127 -0.51551635 0.69249534
vn -0.56852014 -0.44418047 0.69245113
vn -0.62224944 -0.36501076 0.69251194
vn -0.66508822 -0.27953580 0.69247195
vn -0.69611281 -0.18922498 0.69254665
vn -0.71518206 -0.09539762 0.69239722
vn -0.99783238 -0.06580687 0.00000000
vn -0.71397956 -0.02351787 0.69977146
vn -0.70710678 0.00000000 0.70710678
vn -0.71323944 0.02077281 0.70061258
vn -0.71483938 0.08346118 0.69429021
vn -0.70038731 0.16583897 0.69422983
vn -0.67636490 0.24594950 0.69429055
vn -0.64333177 0.32270748 0.69425076
vn -0.60154480 0.39512301 0.69427780
vn -0.55167914 0.46224495 0.69424760
vn -0.49417780 0.52333684 0.69419511
vn -0.43003838 0.57705339 0.69431720
vn -0.36045254 0.62292596 0.69428900
vn -0.39691285 0.91785630 0.00000000
vn -0.28569109 0.66065730 0.69419921
vn -0.09599871 0.74435812 0.66084434
vn 0.08480786 0.70780931 0.70129424
vn 0.15026108 0.70524896 0.69285316
vn 0.23978515 0.68000103 0.69289370
vn 0.32548992 0.64348251 0.69281063
vn 0.40594937 0.59599678 0.69281523
vn 0.47917576 0.53871750 0.69294592
vn 0.54499931 0.47241047 0.69267893
vn 0.60133248 0.39780351 0.69292973
vn 0.64751673 0.31726284 0.69286822
vn 0.68312079 0.23103432 0.69279805
vn 0.92452015 0.38113316 0.00000000
vn 0.70717308 0.14087988 0.69286297
vn 0.71951669 0.04836186 0.69278919
vn 0.71618803 -0.03025845 0.69725112
vn 0.71361408 -0.11488565 0.69105443
vn 0.71850254 0.04179239 0.69426760
vn 0.68589787 0.05516365 0.72560394
vn 0.68840289 0.02703951 0.72482434
vn -0.67496859 -0.14432984 0.72359263
vn -0.68867069 -0.04640252 0.72358793
vn -0.64738219 -0.23934671 0.72360863
vn -0.60698842 -0.32904042 0.72339302
vn -0.55351676 -0.41207943 0.72374702
vn -0.48904013 -0.48724531 0.72348584
vn -0.41446492 -0.55188813 0.72362858
vn -0.33131661 -0.60553034 0.72357606
vn -0.24145917 -0.64662960 0.72357974
vn -0.14696472 -0.67452440 0.72347647
vn -0.07811297 -0.69550778 0.71425996
vn -0.02655397 -0.69683052 0.71674411
vn 0.05599430 -0.68659368 0.72488189
vn 0.16035715 -0.67017486 0.72467319
vn 0.26040794 -0.63797352 0.72469131
vn 0.35423174 -0.59118776 0.72458050
vn 0.43989797 -0.53025098 0.72479216
vn 0.51579079 -0.45684970 0.72474010
vn 0.57940445 -0.37302145 0.72466923
vn 0.62937558 -0.28048250 0.72471784
vn 0.66476632 -0.18130004 0.72471790
vn 0.68470567 -0.07820430 0.72461178
vn -0.68832711 0.05225805 0.72351564
vn -0.71008359 0.08055542 0.69949419
vn -0.67212378 0.12170432 0.73036819
vn -0.65385347 0.23039395 0.72069014
vn -0.62184393 0.30628662 0.72076254
vn -0.58152431 0.37766225 0.72055583
vn -0.53276197 0.44349790 0.72074565
vn -0.47649241 0.50355677 0.72068409
vn -0.41367081 0.55634750 0.72066214
vn -0.34527643 0.60126097 0.72060352
vn -0.27163027 0.63772070 0.72078381
vn -0.19426602 0.66555966 0.72061852
vn -0.11433375 0.68375384 0.72069999
vn -0.03259759 0.69248476 0.72069568
vn 0.03300734 0.69828407 0.71505935
vn 0.07401301 0.69783150 0.71242773
vn 0.12935817 0.68127492 0.72050743
vn 0.20780725 0.66166385 0.72042841
vn 0.28318195 0.63308984 0.72042018
vn 0.35477018 0.59589286 0.72045112
vn 0.42165375 0.55059073 0.72045678
vn 0.48272236 0.49802813 0.72037983
vn 0.53722278 0.43847059 0.72051039
vn 0.58464562 0.37316923 0.72037089
vn 0.62389701 0.30275921 0.72047858
vn 0.65491929 0.22809977 0.72045209
vn 0.67700536 0.15046287 0.72043367
f 1//1 2//2 3//3
f 2//2 1//1 4//4
f 5//5 6//6 7//7
f 6//6 8//8 9//9
f 8//8 6//6 5//5
f 10//10 11//11 12//12
f 10//10 13//13 11//11
f 14//14 13//13 10//10
f 14//14 15//15 13//13
f 16//16 15//15 14//14
f 16//16 17//17 15//15
f 18//18 17//17 16//16
f 18//18 19//19 17//17
f 18//18 20//20 19//19
f 21//21 20//20 18//18
f 21//21 22//22 20//20
f 23//23 22//22 21//21
f 23//23 24//24 22//22
f 23//23 25//25 24//24
f 26//26 25//25 23//23
f 26//26 27//27 25//25
f 28//28 27//27 26//26
f 28//28 29//29 27//27
f 28//28 30//30 29//29
f 31//31 30//30 28//28
f 31//31 32//32 30//30
f 33//33 32//32 31//31
f 5//5 32//32 33//33
f 7//7 32//32 5//5
f 34//34 32//32 7//7
f 35//35 32//32 34//34
f 9//9 32//32 35//35
f 9//9 36//36 32//32
f 36//36 9//9 8//8
f 8//8 37//37 36//36
f 8//8 38//38 37//37
f 38//38 39//39 40//40
f 39//39 38//38 8//8
f 41//41 36//36 37//37
f 42//42 36//36 41//41
f 40//40 36//36 42//42
f 40//40 43//43 36//36
f 43//43 40//40 39//39
f 39//39 44//44 43//43
f 45//45 44//44 39//39
f 45//45 46//46 44//44
f 46//46 47//47 48//48
f 47//47 46//46 45//45
f 49//49 43//43 44//44
f 50//50 43//43 49//49
f 48//48 43//43 50//50
f 51//51 48//48 47//47
f 52//52 48//48 51//51
f 48//48 53//53 43//43
f 52//52 53//53 48//48
f 52//52 54//54 53//53
f 55//55 54//54 52//52
f 55//55 56//56 54//54
f 57//57 56//56 55//55
f 57//57 58//58 56//56
f 57//57 59//59 58//58
f 60//60 59//59 57//57
f 60//60 61//61 59//59
f 62//62 61//61 60//60
f 62//62 63//63 61//61
f 62//62 64//64 63//63
f 65//65 64//64 62//62
f 65//65 66//66 64//64
f 67//67 66//66 65//65
f 67//67 68//68 66//66
f 67//67 69//69 68//68
f 70//70 69//69 67//67
f 70//70 71//71 69//69
f 72//72 71//71 70//70
f 71//71 72//72 73//73
f 74//74 35//35 34//34
f 35//35 74//74 75//75
f 76//76 50//50 49//49
f 50//50 76//76 77//77
f 78//78 2//2 4//4
f 40//40 79//79 38//38
f 79//79 40//40 80//80
f 81//81 42//42 41//41
f 42//42 81//81 82//82
f 83//83 84//84 85//85
f 84//84 83//83 86//86
f 87//87 88//88 89//89
f 90//90 12//12 11//11
f 90//90 10//10 12//12
f 90//90 14//14 10//10
f 90//90 16//16 14//14
f 90//90 18//18 16//16
f 91//91 18//18 90//90
f 91//91 21//21 18//18
f 91//91 23//23 21//21
f 91//91 26//26 23//23
f 92//92 26//26 91//91
f 92//92 28//28 26//26
f 92//92 31//31 28//28
f 92//92 33//33 31//31
f 92//92 5//5 33//33
f 92//92 8//8 5//5
f 92//92 39//39 8//8
f 93//93 39//39 92//92
f 93//93 45//45 39//39
f 93//93 47//47 45//45
f 94//94 47//47 93//93
f 94//94 51//51 47//47
f 94//94 52//52 51//51
f 94//94 55//55 52//52
f 95//95 55//55 94//94
f 95//95 57//57 55//55
f 95//95 60//60 57//57
f 95//95 62//62 60//60
f 96//96 62//62 95//95
f 96//96 65//65 62//62
f 96//96 67//67 65//65
f 96//96 70//70 67//67
f 96//96 72//72 70//70
f 96//96 73//73 72//72
f 73//73 96//96 97//97
f 90//90 98//98 99//99
f 11//11 98//98 90//90
f 13//13 98//98 11//11
f 15//15 98//98 13//13
f 17//17 98//98 15//15
f 19//19 98//98 17//17
f 20//20 98//98 19//19
f 22//22 98//98 20//20
f 24//24 98//98 22//22
f 25//25 98//98 24//24
f 27//27 98//98 25//25
f 29//29 98//98 27//27
f 30//30 98//98 29//29
f 32//32 98//98 30//30
f 36//36 98//98 32//32
f 43//43 98//98 36//36
f 53//53 98//98 43//43
f 54//54 98//98 53//53
f 54//54 100//100 98//98
f 56//56 100//100 54//54
f 58//58 100//100 56//56
f 59//59 100//100 58//58
f 61//61 100//100 59//59
f 63//63 100//100 61//61
f 64//64 100//100 63//63
f 66//66 100//100 64//64
f 68//68 100//100 66//66
f 69//69 100//100 68//68
f 71//71 100//100 69//69
f 100//100 73//73 78//78
f 73//73 100//100 71//71
f 101//101 102//102 103//103
f 101//101 104//104 102//102
f 105//105 104//104 101//101
f 106//106 104//104 105//105
f 107//107 104//104 106//106
f 108//108 104//104 107//107
f 109//109 104//104 108//108
f 99//99 104//104 109//109
f 98//98 104//104 99//99
f 98//98 110//110 104//104
f 98//98 111//111 110//110
f 98//98 112//112 111//111
f 98//98 113//113 112//112
f 98//98 114//114 113//113
f 98//98 115//115 114//114
f 98//98 116//116 115//115
f 117//117 116//116 98//98
f 117//117 118//118 116//116
f 117//117 119//119 118//118
f 117//117 120//120 119//119
f 117//117 121//121 120//120
f 121//121 122//122 123//123
f 117//117 122//122 121//121
f 117//117 124//124 122//122
f 124//124 125//125 126//126
f 117//117 125//125 124//124
f 117//117 127//127 125//125
f 127//127 128//128 129//129
f 117//117 128//128 127//127
f 117//117 130//130 128//128
f 130//130 131//131 132//132
f 117//117 131//131 130//130
f 117//117 133//133 131//131
f 133//133 134//134 135//135
f 133//133 136//136 134//134
f 117//117 136//136 133//133
f 136//136 137//137 138//138
f 117//117 137//137 136//136
f 117//117 139//139 137//137
f 139//139 140//140 141//141
f 117//117 140//140 139//139
f 117//117 142//142 140//140
f 142//142 143//143 144//144
f 142//142 145//145 143//143
f 142//142 146//146 145//145
f 142//142 147//147 146//146
f 142//142 148//148 147//147
f 142//142 149//149 148//148
f 142//142 150//150 149//149
f 151//151 152//152 153//153
f 154//154 152//152 151//151
f 155//155 152//152 154//154
f 156//156 152//152 155//155
f 157//157 152//152 156//156
f 150//150 152//152 157//157
f 142//142 152//152 150//150
f 142//142 158//158 152//152
f 142//142 159//159 158//158
f 142//142 160//160 159//159
f 142//142 161//161 160//160
f 142//142 162//162 161//161
f 142//142 163//163 162//162
f 142//142 164//164 163//163
f 142//142 165//165 164//164
f 166//166 167//167 168//168
f 169//169 167//167 166//166
f 170//170 167//167 169//169
f 78//78 142//142 117//117
f 78//78 165//165 142//142
f 78//78 171//171 165//165
f 78//78 172//172 171//171
f 78//78 170//170 172//172
f 78//78 167//167 170//170
f 97//97 78//78 73//73
f 78//78 173//173 167//167
f 97//97 173//173 78//78
f 174//174 173//173 97//97
f 174//174 175//175 173//173
f 174//174 176//176 175//175
f 177//177 176//176 174//174
f 177//177 178//178 176//176
f 179//179 178//178 177//177
f 179//179 180//180 178//178
f 181//181 180//180 179//179
f 181//181 182//182 180//180
f 181//181 183//183 182//182
f 85//85 183//183 181//181
f 84//84 183//183 85//85
f 183//183 84//84 184//184
f 185//185 119//119 120//120
f 185//185 186//186 119//119
f 185//185 187//187 186//186
f 188//188 187//187 185//185
f 188//188 189//189 187//187
f 188//188 190//190 189//189
f 191//191 190//190 188//188
f 192//192 190//190 191//191
f 193//193 190//190 192//192
f 126//126 190//190 193//193
f 125//125 190//190 126//126
f 194//194 190//190 125//125
f 129//129 190//190 194//194
f 195//195 129//129 128//128
f 195//195 190//190 129//129
f 89//89 190//190 195//195
f 88//88 190//190 89//89
f 135//135 190//190 88//88
f 196//196 135//135 134//134
f 196//196 190//190 135//135
f 138//138 190//190 196//196
f 197//197 138//138 137//137
f 197//197 190//190 138//138
f 198//198 190//190 197//197
f 144//144 198//198 142//142
f 144//144 190//190 198//198
f 199//199 190//190 144//144
f 200//200 190//190 199//199
f 201//201 190//190 200//200
f 202//202 190//190 201//201
f 203//203 190//190 202//202
f 204//204 190//190 203//203
f 205//205 190//190 204//204
f 152//152 206//206 153//153
f 152//152 207//207 206//206
f 152//152 208//208 207//207
f 152//152 209//209 208//208
f 152//152 210//210 209//209
f 152//152 205//205 210//210
f 152//152 190//190 205//205
f 211//211 190//190 152//152
f 212//212 190//190 211//211
f 213//213 190//190 212//212
f 214//214 190//190 213//213
f 215//215 190//190 214//214
f 216//216 190//190 215//215
f 216//216 217//217 190//190
f 216//216 218//218 217//217
f 219//219 218//218 216//216
f 219//219 220//220 218//218
f 221//221 220//220 219//219
f 222//222 220//220 221//221
f 223//223 220//220 222//222
f 224//224 220//220 223//223
f 225//225 220//220 224//224
f 225//225 168//168 220//220
f 168//168 225//225 166//166
f 226//226 133//133 135//135
f 141//141 140//140 227//227
f 132//132 226//226 87//87
f 131//131 226//226 132//132
f 226//226 131//131 133//133
f 130//130 195//195 128//128
f 132//132 195//195 130//130
f 87//87 195//195 132//132
f 195//195 87//87 89//89
f 226//226 88//88 87//87
f 88//88 226//226 135//135
f 136//136 196//196 134//134
f 196//196 136//136 138//138
f 140//140 198//198 227//227
f 198//198 140//140 142//142
f 139//139 197//197 137//137
f 139//139 228//228 197//197
f 141//141 228//228 139//139
f 141//141 229//229 228//228
f 229//229 141//141 227//227
f 230//230 197//197 228//228
f 231//231 197//197 230//230
f 231//231 198//198 197//197
f 229//229 198//198 231//231
f 198//198 229//229 227//227
f 75//75 9//9 35//35
f 9//9 75//75 232//232
f 9//9 233//233 6//6
f 233//233 9//9 232//232
f 6//6 234//234 7//7
f 234//234 6//6 233//233
f 74//74 7//7 234//234
f 7//7 74//74 34//34
f 234//234 75//75 74//74
f 233//233 75//75 234//234
f 75//75 233//233 232//232
f 77//77 48//48 50//50
f 48//48 77//77 235//235
f 48//48 236//236 46//46
f 236//236 48//48 235//235
f 236//236 44//44 46//46
f 44//44 236//236 237//237
f 76//76 44//44 237//237
f 44//44 76//76 49//49
f 237//237 77//77 76//76
f 236//236 77//77 237//237
f 77//77 236//236 235//235
f 158//158 211//211 152//152
f 159//159 211//211 158//158
f 159//159 212//212 211//211
f 160//160 212//212 159//159
f 160//160 213//213 212//212
f 161//161 213//213 160//160
f 161//161 214//214 213//213
f 162//162 214//214 161//161
f 162//162 215//215 214//214
f 163//163 215//215 162//162
f 163//163 216//216 215//215
f 164//164 216//216 163//163
f 164//164 219//219 216//216
f 165//165 219//219 164//164
f 165//165 221//221 219//219
f 171//171 221//221 165//165
f 171//171 222//222 221//221
f 172//172 222//222 171//171
f 172//172 223//223 222//222
f 170//170 223//223 172//172
f 170//170 224//224 223//223
f 169//169 224//224 170//170
f 169//169 225//225 224//224
f 225//225 169//169 166//166
f 143//143 199//199 144//144
f 145//145 199//199 143//143
f 145//145 200//200 199//199
f 146//146 200//200 145//145
f 146//146 201//201 200//200
f 147//147 201//201 146//146
f 147//147 202//202 201//201
f 148//148 202//202 147//147
f 148//148 203//203 202//202
f 149//149 203//203 148//148
f 149//149 204//204 203//203
f 150//150 204//204 149//149
f 150//150 205//205 204//204
f 157//157 205//205 150//150
f 157//157 210//210 205//205
f 156//156 210//210 157//157
f 156//156 209//209 210//210
f 155//155 209//209 156//156
f 155//155 208//208 209//209
f 154//154 208//208 155//155
f 154//154 207//207 208//208
f 151//151 207//207 154//154
f 151//151 206//206 207//207
f 206//206 151//151 153//153
f 125//125 238//238 194//194
f 125//125 239//239 238//238
f 239//239 125//125 127//127
f 240//240 194//194 238//238
f 241//241 194//194 240//240
f 127//127 241//241 239//239
f 241//241 129//129 194//194
f 129//129 241//241 127//127
f 121//121 185//185 120//120
f 123//123 185//185 121//121
f 123//123 188//188 185//185
f 122//122 188//188 123//123
f 122//122 191//191 188//188
f 122//122 192//192 191//191
f 124//124 192//192 122//122
f 124//124 193//193 192//192
f 193//193 124//124 126//126
f 238//238 241//241 240//240
f 241//241 238//238 239//239
f 228//228 231//231 230//230
f 231//231 228//228 229//229
f 82//82 40//40 42//42
f 40//40 82//82 80//80
f 38//38 242//242 37//37
f 242//242 38//38 79//79
f 81//81 37//37 242//242
f 37//37 81//81 41//41
f 242//242 82//82 81//81
f 79//79 82//82 242//242
f 82//82 79//79 80//80
f 243//243 244//244 245//245
f 244//244 243//243 246//246
f 247//247 248//248 249//249
f 248//248 247//247 250//250
f 249//249 251//251 252//252
f 251//251 249//249 248//248
f 253//253 254//254 255//255
f 254//254 253//253 256//256
f 257//257 258//258 259//259
f 258//258 257//257 260//260
f 258//258 261//261 262//262
f 258//258 263//263 261//261
f 258//258 264//264 263//263
f 258//258 265//265 264//264
f 258//258 266//266 265//265
f 258//258 267//267 266//266
f 258//258 268//268 267//267
f 258//258 269//269 268//268
f 258//258 270//270 269//269
f 258//258 271//271 270//270
f 260//260 271//271 258//258
f 272//272 271//271 260//260
f 273//273 271//271 272//272
f 273//273 253//253 271//271
f 274//274 253//253 273//273
f 275//275 253//253 274//274
f 276//276 253//253 275//275
f 277//277 253//253 276//276
f 278//278 253//253 277//277
f 279//279 253//253 278//278
f 280//280 253//253 279//279
f 281//281 253//253 280//280
f 282//282 253//253 281//281
f 246//246 253//253 282//282
f 243//243 253//253 246//246
f 243//243 256//256 253//253
f 283//283 256//256 243//243
f 283//283 284//284 256//256
f 285//285 284//284 283//283
f 285//285 286//286 284//284
f 287//287 286//286 285//285
f 287//287 288//288 286//286
f 289//289 288//288 287//287
f 289//289 290//290 288//288
f 291//291 290//290 289//289
f 291//291 292//292 290//290
f 293//293 292//292 291//291
f 293//293 294//294 292//292
f 295//295 294//294 293//293
f 295//295 296//296 294//294
f 297//297 296//296 295//295
f 297//297 298//298 296//296
f 299//299 298//298 297//297
f 299//299 300//300 298//298
f 301//301 300//300 299//299
f 301//301 302//302 300//300
f 303//303 302//302 301//301
f 247//247 302//302 303//303
f 249//249 302//302 247//247
f 302//302 249//249 252//252
f 304//304 272//272 305//305
f 272//272 304//304 273//273
f 306//306 273//273 304//304
f 273//273 306//306 274//274
f 307//307 274//274 306//306
f 274//274 307//307 275//275
f 308//308 275//275 307//307
f 275//275 308//308 276//276
f 277//277 308//308 309//309
f 308//308 277//277 276//276
f 278//278 309//309 310//310
f 309//309 278//278 277//277
f 279//279 310//310 311//311
f 310//310 279//279 278//278
f 280//280 311//311 312//312
f 311//311 280//280 279//279
f 281//281 312//312 313//313
f 312//312 281//281 280//280
f 282//282 313//313 314//314
f 313//313 282//282 281//281
f 244//244 314//314 315//315
f 246//246 314//314 244//244
f 314//314 246//246 282//282
f 245//245 315//315 316//316
f 315//315 245//245 244//244
f 317//317 245//245 316//316
f 283//283 245//245 317//317
f 245//245 283//283 243//243
f 285//285 317//317 318//318
f 317//317 285//285 283//283
f 287//287 318//318 319//319
f 318//318 287//287 285//285
f 289//289 319//319 320//320
f 319//319 289//289 287//287
f 291//291 320//320 321//321
f 320//320 291//291 289//289
f 293//293 321//321 322//322
f 321//321 293//293 291//291
f 293//293 323//323 295//295
f 323//323 293//293 322//322
f 295//295 324//324 297//297
f 324//324 295//295 323//323
f 297//297 325//325 299//299
f 325//325 297//297 324//324
f 299//299 326//326 301//301
f 326//326 299//299 325//325
f 303//303 327//327 328//328
f 301//301 327//327 303//303
f 327//327 301//301 326//326
f 247//247 329//329 250//250
f 303//303 329//329 247//247
f 328//328 329//329 303//303
f 329//329 328//328 327//327
f 250//250 330//330 248//248
f 330//330 250//250 329//329
f 248//248 331//331 251//251
f 331//331 248//248 330//330
f 252//252 332//332 302//302
f 251//251 332//332 252//252
f 332//332 251//251 331//331
f 302//302 333//333 300//300
f 333//333 302//302 332//332
f 300//300 334//334 298//298
f 334//334 300//300 333//333
f 298//298 335//335 296//296
f 335//335 298//298 334//334
f 296//296 336//336 294//294
f 336//336 296//296 335//335
f 294//294 337//337 292//292
f 337//337 294//294 336//336
f 292//292 338//338 290//290
f 338//338 292//292 337//337
f 288//288 338//338 339//339
f 338//338 288//288 290//290
f 286//286 339//339 340//340
f 339//339 286//286 288//288
f 341//341 340//340 342//342
f 284//284 340//340 341//341
f 340//340 284//284 286//286
f 254//254 342//342 343//343
f 254//254 341//341 342//342
f 256//256 341//341 254//254
f 341//341 256//256 284//284
f 255//255 343//343 344//344
f 343//343 255//255 254//254
f 345//345 255//255 344//344
f 271//271 255//255 345//345
f 255//255 271//271 253//253
f 270//270 345//345 346//346
f 345//345 270//270 271//271
f 269//269 346//346 347//347
f 346//346 269//269 270//270
f 268//268 347//347 348//348
f 347//347 268//268 269//269
f 267//267 348//348 349//349
f 348//348 267//267 268//268
f 350//350 267//267 349//349
f 267//267 350//350 266//266
f 351//351 266//266 350//350
f 266//266 351//351 265//265
f 352//352 265//265 351//351
f 265//265 352//352 264//264
f 353//353 264//264 352//352
f 354//354 264//264 353//353
f 264//264 354//354 263//263
f 353//353 263//263 354//354
f 355//355 263//263 353//353
f 263//263 355//355 261//261
f 356//356 261//261 355//355
f 261//261 356//356 262//262
f 357//357 262//262 356//356
f 259//259 262//262 357//357
f 262//262 259//259 258//258
f 358//358 259//259 357//357
f 259//259 358//358 257//257
f 358//358 260//260 257//257
f 305//305 260//260 358//358
f 260//260 305//305 272//272
f 359//359 319//319 360//360
f 361//361 319//319 359//359
f 339//339 319//319 361//361
f 339//339 320//320 319//319
f 338//338 320//320 339//339
f 338//338 321//321 320//320
f 337//337 321//321 338//338
f 337//337 322//322 321//321
f 336//336 322//322 337//337
f 336//336 323//323 322//322
f 335//335 323//323 336//336
f 335//335 324//324 323//323
f 334//334 324//324 335//335
f 334//334 325//325 324//324
f 333//333 325//325 334//334
f 333//333 326//326 325//325
f 332//332 326//326 333//333
f 332//332 327//327 326//326
f 331//331 327//327 332//332
f 330//330 327//327 331//331
f 327//327 330//330 329//329
f 348//348 362//362 363//363
f 348//348 364//364 362//362
f 347//347 364//364 348//348
f 347//347 365//365 364//364
f 347//347 366//366 365//365
f 346//346 366//366 347//347
f 346//346 367//367 366//366
f 345//345 367//367 346//346
f 345//345 368//368 367//367
f 345//345 369//369 368//368
f 344//344 369//369 345//345
f 344//344 370//370 369//369
f 344//344 371//371 370//370
f 344//344 372//372 371//371
f 344//344 373//373 372//372
f 344//344 374//374 373//373
f 343//343 374//374 344//344
f 343//343 375//375 374//374
f 343//343 376//376 375//375
f 343//343 377//377 376//376
f 343//343 378//378 377//377
f 343//343 379//379 378//378
f 342//342 379//379 343//343
f 342//342 380//380 379//379
f 342//342 381//381 380//380
f 340//340 381//381 342//342
f 340//340 382//382 381//381
f 340//340 383//383 382//382
f 340//340 361//361 383//383
f 361//361 340//340 339//339
f 355//355 357//357 356//356
f 353//353 357//357 355//355
f 352//352 357//357 353//353
f 351//351 357//357 352//352
f 350//350 357//357 351//351
f 349//349 357//357 350//350
f 348//348 357//357 349//349
f 363//363 357//357 348//348
f 384//384 357//357 363//363
f 385//385 357//357 384//384
f 385//385 358//358 357//357
f 385//385 305//305 358//358
f 385//385 304//304 305//305
f 385//385 306//306 304//304
f 385//385 307//307 306//306
f 385//385 308//308 307//307
f 385//385 309//309 308//308
f 386//386 309//309 385//385
f 387//387 309//309 386//386
f 388//388 309//309 387//387
f 388//388 310//310 309//309
f 389//389 310//310 388//388
f 390//390 310//310 389//389
f 390//390 311//311 310//310
f 391//391 311//311 390//390
f 391//391 312//312 311//311
f 392//392 312//312 391//391
f 393//393 312//312 392//392
f 393//393 313//313 312//312
f 394//394 313//313 393//393
f 394//394 314//314 313//313
f 395//395 314//314 394//394
f 395//395 315//315 314//314
f 396//396 315//315 395//395
f 397//397 315//315 396//396
f 398//398 315//315 397//397
f 399//399 315//315 398//398
f 400//400 315//315 399//399
f 400//400 316//316 315//315
f 401//401 316//316 400//400
f 402//402 316//316 401//401
f 403//403 316//316 402//402
f 404//404 316//316 403//403
f 405//405 316//316 404//404
f 406//406 316//316 405//405
f 406//406 317//317 316//316
f 407//407 317//317 406//406
f 407//407 318//318 317//317
f 408//408 318//318 407//407
f 409//409 318//318 408//408
f 410//410 318//318 409//409
f 360//360 318//318 410//410
f 318//318 360//360 319//319
f 410//410 184//184 360//360
f 184//184 410//410 183//183
f 409//409 183//183 410//410
f 183//183 409//409 182//182
f 360//360 84//84 359//359
f 84//84 360//360 184//184
f 408//408 182//182 409//409
f 182//182 408//408 180//180
f 359//359 86//86 361//361
f 86//86 359//359 84//84
f 407//407 180//180 408//408
f 180//180 407//407 178//178
f 361//361 83//83 383//383
f 83//83 361//361 86//86
f 406//406 178//178 407//407
f 178//178 406//406 176//176
f 383//383 85//85 382//382
f 85//85 383//383 83//83
f 405//405 176//176 406//406
f 176//176 405//405 175//175
f 382//382 181//181 381//381
f 181//181 382//382 85//85
f 173//173 405//405 404//404
f 405//405 173//173 175//175
f 381//381 179//179 380//380
f 179//179 381//381 181//181
f 167//167 404//404 403//403
f 404//404 167//167 173//173
f 380//380 177//177 379//379
f 177//177 380//380 179//179
f 168//168 403//403 402//402
f 403//403 168//168 167//167
f 177//177 378//378 379//379
f 378//378 177//177 174//174
f 220//220 402//402 401//401
f 402//402 220//220 168//168
f 174//174 377//377 378//378
f 377//377 174//174 97//97
f 218//218 401//401 400//400
f 401//401 218//218 220//220
f 97//97 376//376 377//377
f 376//376 97//97 96//96
f 217//217 400//400 399//399
f 400//400 217//217 218//218
f 96//96 375//375 376//376
f 375//375 96//96 95//95
f 190//190 399//399 398//398
f 399//399 190//190 217//217
f 95//95 374//374 375//375
f 374//374 95//95 94//94
f 189//189 398//398 397//397
f 398//398 189//189 190//190
f 94//94 373//373 374//374
f 373//373 94//94 93//93
f 187//187 397//397 396//396
f 397//397 187//187 189//189
f 93//93 372//372 373//373
f 372//372 93//93 92//92
f 186//186 396//396 395//395
f 396//396 186//186 187//187
f 92//92 371//371 372//372
f 371//371 92//92 91//91
f 119//119 395//395 394//394
f 395//395 119//119 186//186
f 91//91 370//370 371//371
f 370//370 91//91 90//90
f 118//118 394//394 393//393
f 394//394 118//118 119//119
f 90//90 369//369 370//370
f 369//369 90//90 99//99
f 116//116 393//393 392//392
f 393//393 116//116 118//118
f 99//99 368//368 369//369
f 368//368 99//99 109//109
f 115//115 392//392 391//391
f 392//392 115//115 116//116
f 109//109 367//367 368//368
f 367//367 109//109 108//108
f 115//115 390//390 114//114
f 390//390 115//115 391//391
f 107//107 367//367 108//108
f 367//367 107//107 366//366
f 114//114 389//389 113//113
f 389//389 114//114 390//390
f 106//106 366//366 107//107
f 366//366 106//106 365//365
f 113//113 388//388 112//112
f 388//388 113//113 389//389
f 105//105 365//365 106//106
f 365//365 105//105 364//364
f 112//112 387//387 111//111
f 387//387 112//112 388//388
f 101//101 364//364 105//105
f 364//364 101//101 362//362
f 111//111 386//386 110//110
f 386//386 111//111 387//387
f 103//103 362//362 101//101
f 362//362 103//103 363//363
f 110//110 385//385 104//104
f 385//385 110//110 386//386
f 102//102 363//363 103//103
f 363//363 102//102 384//384
f 104//104 384//384 102//102
f 384//384 104//104 385//385
f 78//78 1//1 100//100
f 1//1 78//78 4//4
f 100//100 1//1 98//98
f 98//98 1//1 3//3
f 117//117 2//2 78//78
f 2//2 98//98 3//3
f 98//98 2//2 117//117