# https://github.com/mikedh/trimesh
v -0.02542100 -0.02275600 -0.04569900
v -0.02542100 -0.02275600 -0.04472800
v -0.02541200 -0.02269400 -0.04521300
v -0.02544700 -0.02294000 -0.04427500
v -0.02544700 -0.02294000 -0.04615100
v -0.02548900 -0.02323200 -0.04654000
v -0.02548900 -0.02323200 -0.04388700
v -0.02554400 -0.02361300 -0.04358900
v -0.02554400 -0.02361300 -0.04683700
v -0.02560700 -0.02405600 -0.04340200
v -0.02560700 -0.02405600 -0.04702500
v -0.02567600 -0.02453100 -0.04708900
v -0.02567600 -0.02453100 -0.04333800
v -0.02574400 -0.02500700 -0.04340200
v -0.02574400 -0.02500700 -0.04702500
v -0.02580700 -0.02545000 -0.04358900
v -0.02580700 -0.02545000 -0.04683700
v -0.02586200 -0.02583100 -0.04388700
v -0.02586200 -0.02583100 -0.04654000
v -0.02590400 -0.02612300 -0.04427500
v -0.02590400 -0.02612300 -0.04615100
v -0.02593000 -0.02630700 -0.04569900
v -0.02593000 -0.02630700 -0.04472800
v -0.02593900 -0.02636900 -0.04521300
v 0.03564200 -0.03144800 -0.04521300
v 0.03563300 -0.03151100 -0.04472800
v 0.03563300 -0.03151100 -0.04569900
v 0.03560700 -0.03169500 -0.04615100
v 0.03556500 -0.03198700 -0.04654000
v 0.03551000 -0.03236700 -0.04683700
v 0.03544700 -0.03281000 -0.04702500
v 0.03537900 -0.03328600 -0.04708900
v 0.03531000 -0.03376200 -0.04702500
v 0.03524700 -0.03420500 -0.04683700
v 0.03519200 -0.03458600 -0.04654000
v 0.03515000 -0.03487800 -0.04615100
v 0.03512400 -0.03506100 -0.04569900
v 0.03511500 -0.03512400 -0.04521300
v 0.03512400 -0.03506100 -0.04472800
v 0.03515000 -0.03487800 -0.04427500
v 0.03519200 -0.03458600 -0.04388700
v 0.03524700 -0.03420500 -0.04358900
v 0.03531000 -0.03376200 -0.04340200
v 0.03537900 -0.03328600 -0.04333800
v 0.03544700 -0.03281000 -0.04340200
v 0.03551000 -0.03236700 -0.04358900
v 0.03556500 -0.03198700 -0.04388700
v 0.03560700 -0.03169500 -0.04427500
v -0.02574400 0.02439500 -0.04702500
v 0.03524700 0.03359300 -0.04683700
v 0.03531000 0.03315000 -0.04702500
v -0.02580700 0.02483800 -0.04683700
v 0.03519200 0.03397400 -0.04654000
v -0.02586200 0.02521900 -0.04654000
v -0.02567600 0.02391900 -0.04708900
v 0.03537900 0.03267400 -0.04708900
v -0.02590400 0.02551100 -0.04615100
v 0.03515000 0.03426600 -0.04615100
v -0.02560700 0.02344300 -0.04702500
v 0.03544700 0.03219900 -0.04702500
v -0.02593000 0.02569400 -0.04569900
v 0.03512400 0.03444900 -0.04569900
v -0.02554400 0.02300000 -0.04683700
v 0.03551000 0.03175500 -0.04683700
v -0.02593900 0.02575700 -0.04521300
v 0.03511500 0.03451200 -0.04521300
v -0.02548900 0.02262000 -0.04654000
v 0.03556500 0.03137500 -0.04654000
v -0.02593000 0.02569400 -0.04472800
v 0.03512400 0.03444900 -0.04472800
v -0.02544700 0.02232800 -0.04615100
v 0.03560700 0.03108300 -0.04615100
v -0.02590400 0.02551100 -0.04427500
v 0.03515000 0.03426600 -0.04427500
v -0.02542100 0.02214400 -0.04569900
v 0.03563300 0.03089900 -0.04569900
v -0.02586200 0.02521900 -0.04388700
v 0.03519200 0.03397400 -0.04388700
v -0.02541200 0.02208100 -0.04521300
v 0.03564200 0.03083700 -0.04521300
v -0.02580700 0.02483800 -0.04358900
v 0.03524700 0.03359300 -0.04358900
v -0.02542100 0.02214400 -0.04472800
v 0.03563300 0.03089900 -0.04472800
v -0.02574400 0.02439500 -0.04340200
v 0.03531000 0.03315000 -0.04340200
v -0.02544700 0.02232800 -0.04427500
v 0.03560700 0.03108300 -0.04427500
v -0.02567600 0.02391900 -0.04333800
v 0.03537900 0.03267400 -0.04333800
v -0.02548900 0.02262000 -0.04388700
v 0.03556500 0.03137500 -0.04388700
v -0.02560700 0.02344300 -0.04340200
v 0.03544700 0.03219900 -0.04340200
v 0.03551000 0.03175500 -0.04358900
v -0.02554400 0.02300000 -0.04358900
v 0.03901700 0.03000300 -0.04342500
v 0.03804600 0.03000300 -0.04342500
v 0.03853200 0.03000300 -0.04336100
v 0.03947000 0.03000300 -0.04361300
v 0.03759400 0.03000300 -0.04361300
v 0.03985800 0.03000300 -0.04391100
v 0.03720600 0.03000300 -0.04391100
v 0.04015600 0.03000300 -0.04429900
v 0.03690800 0.03000300 -0.04429900
v 0.04034400 0.03000300 -0.04475200
v 0.03672000 0.03000300 -0.04475200
v 0.04040700 0.03000300 -0.04523700
v 0.03665600 0.03000300 -0.04523700
v 0.04034400 0.03000300 -0.04572200
v 0.03672000 0.03000300 -0.04572200
v 0.04015600 0.03000300 -0.04617500
v 0.03690800 0.03000300 -0.04617500
v 0.03985800 0.03000300 -0.04656300
v 0.03720600 0.03000300 -0.04656300
v 0.03947000 0.03000300 -0.04686100
v 0.03759400 0.03000300 -0.04686100
v 0.03901700 0.03000300 -0.04704800
v 0.03804600 0.03000300 -0.04704800
v 0.03853200 0.03000300 -0.04711200
v 0.03672000 -0.03025100 -0.04475200
v 0.03690800 -0.03025100 -0.04429900
v 0.03720600 -0.03025100 -0.04391100
v 0.03759400 -0.03025100 -0.04361300
v 0.03804600 -0.03025100 -0.04342500
v 0.03853200 -0.03025100 -0.04336100
v 0.03901700 -0.03025100 -0.04342500
v 0.03947000 -0.03025100 -0.04361300
v 0.03985800 -0.03025100 -0.04391100
v 0.04015600 -0.03025100 -0.04429900
v 0.04034400 -0.03025100 -0.04475200
v 0.04040700 -0.03025100 -0.04523700
v 0.04034400 -0.03025100 -0.04572200
v 0.04015600 -0.03025100 -0.04617500
v 0.03985800 -0.03025100 -0.04656300
v 0.03947000 -0.03025100 -0.04686100
v 0.03901700 -0.03025100 -0.04704800
v 0.03853200 -0.03025100 -0.04711200
v 0.03804600 -0.03025100 -0.04704800
v 0.03759400 -0.03025100 -0.04686100
v 0.03720600 -0.03025100 -0.04656300
v 0.03690800 -0.03025100 -0.04617500
v 0.03672000 -0.03025100 -0.04572200
v 0.03665600 -0.03025100 -0.04523700
v 0.03530900 0.03592000 -0.09914100
v 0.03530900 0.03112800 -0.09914100
v 0.04056000 0.03638000 -0.09914100
v 0.04056000 0.03112800 -0.09914100
v 0.03418300 0.03684900 -0.04947300
v 0.04168600 0.03750500 -0.04947300
v 0.03418300 0.03000300 -0.04947300
v 0.04168600 0.03000300 -0.04947300
v 0.03418300 0.03000300 0.01128700
v 0.03418300 0.03684900 0.01128700
v 0.04168600 0.03000300 0.01128700
v 0.04168600 0.03750500 0.01128700
v 0.03530900 -0.03137600 -0.09914100
v 0.04056000 -0.03662800 -0.09914100
v 0.04056000 -0.03137600 -0.09914100
v 0.03530900 -0.03616900 -0.09914100
v 0.03418300 -0.03709700 -0.04947300
v 0.04168600 -0.03775300 -0.04947300
v 0.03418300 -0.03025100 -0.04947300
v 0.04168600 -0.03025100 -0.04947300
v 0.03418300 -0.03709700 0.01128700
v 0.03418300 -0.03025100 0.01128700
v 0.04168600 -0.03025100 0.01128700
v 0.04168600 -0.03775300 0.01128700
v -0.03053700 0.02663300 -0.09914100
v -0.03053700 0.02226100 -0.09914100
v -0.02574500 0.02705300 -0.09914100
v -0.02574500 0.02226100 -0.09914100
v -0.03156400 0.02748100 -0.05742000
v -0.02471800 0.02807900 -0.05742000
v -0.03156400 0.02123300 -0.05742000
v -0.02471800 0.02123300 -0.05742000
v -0.03156400 0.02123300 -0.00638000
v -0.03156400 0.02748100 -0.00638000
v -0.02471800 0.02123300 -0.00638000
v -0.02471800 0.02807900 -0.00638000
v -0.03053700 -0.02262100 -0.09914100
v -0.02574500 -0.02741300 -0.09914100
v -0.02574500 -0.02262100 -0.09914100
v -0.03053700 -0.02699400 -0.09914100
v -0.03156400 -0.02784100 -0.05742000
v -0.02471800 -0.02844000 -0.05742000
v -0.03156400 -0.02159400 -0.05742000
v -0.02471800 -0.02159400 -0.05742000
v -0.03156400 -0.02784100 -0.00638000
v -0.03156400 -0.02159400 -0.00638000
v -0.02471800 -0.02159400 -0.00638000
v -0.02471800 -0.02844000 -0.00638000
v -0.03252800 0.02982000 -0.00638000
v -0.03252800 -0.03006700 -0.00638000
v -0.02379100 0.03072400 -0.00638000
v -0.02379100 -0.03097200 -0.00638000
v -0.02150700 -0.03120900 -0.00370800
v -0.02150700 0.03096100 -0.00370800
v -0.01907500 -0.03146100 -0.00122300
v -0.01907500 0.03121300 -0.00122300
v -0.01650600 0.03147900 0.00106200
v -0.01650600 -0.03172700 0.00106200
v -0.01381300 -0.03200600 0.00313800
v -0.01381300 0.03175800 0.00313800
v -0.01100700 0.03204800 0.00499600
v -0.01100700 -0.03229600 0.00499600
v -0.00810100 -0.03259700 0.00662500
v -0.00810100 0.03234900 0.00662500
v -0.00510800 0.03265900 0.00802000
v -0.00510800 -0.03290700 0.00802000
v -0.00289500 0.03288900 0.00885300
v -0.00289500 -0.03313600 0.00885300
v -0.00179500 -0.03325000 0.00923900
v -0.00179500 0.03300200 0.00923900
v -0.00068700 -0.03336500 0.00959300
v -0.00068700 0.03311700 0.00959300
v 0.00042800 -0.03348000 0.00991300
v 0.00042800 0.03323300 0.00991300
v 0.00154900 -0.03359600 0.01020100
v 0.00154900 0.03334900 0.01020100
v 0.00267600 -0.03371300 0.01045500
v 0.00267600 0.03346600 0.01045500
v 0.00380800 -0.03383000 0.01067500
v 0.00380800 0.03358300 0.01067500
v 0.00494500 -0.03394800 0.01086200
v 0.00494500 0.03370000 0.01086200
v 0.00608500 -0.03406600 0.01101500
v 0.00608500 0.03381900 0.01101500
v 0.00722800 -0.03418400 0.01113400
v 0.00722800 0.03393700 0.01113400
v 0.00837200 -0.03430300 0.01121900
v 0.00837200 0.03405500 0.01121900
v 0.00951900 -0.03442200 0.01127000
v 0.00951900 0.03417400 0.01127000
v 0.01066600 -0.03454100 0.01128700
v 0.01066600 0.03429300 0.01128700
v 0.03376300 -0.03693300 0.01128700
v 0.04168600 -0.03775300 0.02633900
v 0.04168600 0.03750500 0.02131200
v 0.04168600 0.03750500 0.02633900
v 0.04163400 -0.03774800 0.02657900
v 0.04163400 0.03750000 0.02657900
v 0.04156600 -0.03774100 0.02681300
v 0.04156600 0.03749300 0.02681300
v 0.04148000 -0.03773200 0.02704000
v 0.04148000 0.03748400 0.02704000
v 0.04137900 -0.03772100 0.02725600
v 0.04137900 0.03747400 0.02725600
v 0.04126200 -0.03770900 0.02746200
v 0.04126200 0.03746200 0.02746200
v 0.04113100 -0.03769600 0.02765400
v 0.04113100 0.03744800 0.02765400
v 0.04029600 0.03736200 0.02838300
v 0.04048300 0.03738100 0.02827200
v 0.04029600 -0.03760900 0.02838300
v 0.04048300 -0.03762900 0.02827200
v 0.04010300 -0.03758900 0.02847400
v 0.04010300 0.03734200 0.02847400
v 0.03978400 -0.03755600 0.02854900
v 0.03978400 0.03730800 0.02854900
v 0.03914600 -0.03749000 0.02868700
v 0.03914600 0.03724200 0.02868700
v 0.03850600 -0.03742400 0.02881200
v 0.03850600 0.03717600 0.02881200
v 0.03786400 -0.03735700 0.02892500
v 0.03786400 0.03711000 0.02892500
v 0.03722100 -0.03729100 0.02902400
v 0.03722100 0.03704300 0.02902400
v 0.03657700 -0.03722400 0.02911100
v 0.03657700 0.03697600 0.02911100
v 0.03593100 -0.03715700 0.02918500
v 0.03593100 0.03690900 0.02918500
v 0.03528400 -0.03709000 0.02924700
v 0.03528400 0.03684200 0.02924700
v 0.03463700 -0.03702300 0.02929500
v 0.03463700 0.03677500 0.02929500
v 0.03398900 -0.03695600 0.02933100
v 0.03398900 0.03670800 0.02933100
v -0.01683100 -0.03169300 0.03160300
v -0.01683100 0.03144500 0.03160300
v -0.01735200 -0.03163900 0.03164800
v -0.01735200 0.03139100 0.03164800
v -0.01787500 -0.03158500 0.03162500
v -0.01787500 0.03133700 0.03162500
v -0.01839200 -0.03153100 0.03153200
v -0.01839200 0.03128400 0.03153200
v -0.01889700 -0.03147900 0.03137200
v -0.01889700 0.03123100 0.03137200
v -0.01938400 -0.03142900 0.03114700
v -0.01938400 0.03118100 0.03114700
v -0.01984700 -0.03138100 0.03085800
v -0.01984700 0.03113300 0.03085800
v -0.02027900 -0.03133600 0.03051100
v -0.02027900 0.03108800 0.03051100
v -0.02067700 -0.03129500 0.03010900
v -0.02067700 0.03104700 0.03010900
v -0.02103400 -0.03125800 0.02965600
v -0.02103400 0.03101000 0.02965600
v -0.02134600 -0.03122500 0.02916000
v -0.02134600 0.03097800 0.02916000
v -0.02161000 -0.03119800 0.02862500
v -0.02161000 0.03095000 0.02862500
v -0.02182100 -0.03117600 0.02805900
v -0.02182100 0.03092800 0.02805900
v -0.02212400 -0.03114500 0.03242200
v -0.02212400 0.03089700 0.03242200
v -0.02247900 -0.03110800 0.03677900
v -0.02247900 0.03086000 0.03677900
v -0.02288700 -0.03106600 0.04113000
v -0.02288700 0.03081800 0.04113000
v -0.02334600 -0.03101800 0.04547400
v -0.02334600 0.03077100 0.04547400
v -0.02385700 -0.03096500 0.04859500
v -0.02385700 0.03071800 0.04859500
v -0.02441900 -0.03090700 0.05171000
v -0.02441900 0.03066000 0.05171000
v -0.02503300 -0.03084400 0.05481800
v -0.02503300 0.03059600 0.05481800
v -0.02569900 -0.03077500 0.05791900
v -0.02569900 0.03052700 0.05791900
v -0.02641600 -0.03070000 0.06101100
v -0.02641600 0.03045200 0.06101100
v -0.02718500 -0.03062100 0.06409400
v -0.02718500 0.03037300 0.06409400
v -0.02800400 -0.03053600 0.06716700
v -0.02800400 0.03028800 0.06716700
v -0.02868200 -0.03046600 0.06955500
v -0.02868200 0.03021800 0.06955500
v -0.02920400 -0.03041200 0.07059600
v -0.02920400 0.03016400 0.07059600
v -0.02994900 -0.03033500 0.07153500
v -0.02994900 0.03008700 0.07153500
v -0.03088900 -0.03023700 0.07233600
v -0.03088900 0.02998900 0.07233600
v -0.03199100 -0.03012300 0.07296900
v -0.03199100 0.02987500 0.07296900
v -0.03321500 -0.02999600 0.07341300
v -0.03321500 0.02974900 0.07341300
v -0.03451400 -0.02986200 0.07365100
v -0.03451400 0.02961400 0.07365100
v -0.03584300 -0.02972400 0.07367300
v -0.03584300 0.02947600 0.07367300
v -0.03715300 -0.02958900 0.07348100
v -0.03715300 0.02934100 0.07348100
v -0.03839600 -0.02946000 0.07307900
v -0.03839600 0.02921200 0.07307900
v -0.03952700 -0.02934300 0.07248300
v -0.03952700 0.02909500 0.07248300
v -0.04050500 -0.02924100 0.07171500
v -0.04050500 0.02899400 0.07171500
v -0.04129300 -0.02916000 0.07080300
v -0.04129300 0.02891200 0.07080300
v -0.04199200 -0.02908700 0.06986600
v -0.04199200 0.02884000 0.06986600
v -0.04246700 -0.02903800 0.06883100
v -0.04246700 0.02879000 0.06883100
v -0.04270100 -0.02901400 0.06773800
v -0.04270100 0.02876600 0.06773800
v -0.04268500 -0.02901500 0.06662700
v -0.04268500 0.02876800 0.06662700
v -0.04241900 -0.02904300 0.06553900
v -0.04241900 0.02879500 0.06553900
v -0.04191400 -0.02909500 0.06451600
v -0.04191400 0.02884800 0.06451600
v -0.04118800 -0.02917100 0.06359300
v -0.04118800 0.02892300 0.06359300
v -0.04026700 0.02901800 0.06280600
v -0.04026700 -0.02926600 0.06280600
v -0.03918700 0.02913000 0.06218400
v -0.03918700 -0.02937800 0.06218400
v -0.03857800 0.02919300 0.06190900
v -0.03857800 -0.02944100 0.06190900
v -0.03799600 0.02925300 0.06159400
v -0.03799600 -0.02950100 0.06159400
v -0.03744400 0.02931000 0.06124300
v -0.03744400 -0.02955900 0.06124300
v -0.03692500 0.02936400 0.06085700
v -0.03692500 -0.02961200 0.06085700
v -0.03644200 0.02941400 0.06043800
v -0.03644200 -0.02966200 0.06043800
v -0.03599800 -0.02970800 0.05998800
v -0.03599800 0.02946000 0.05998800
v -0.03559600 -0.02975000 0.05951200
v -0.03559600 0.02950200 0.05951200
v -0.03523800 -0.02978700 0.05901000
v -0.03523800 0.02953900 0.05901000
v -0.03492600 -0.02981900 0.05848600
v -0.03492600 0.02957100 0.05848600
v -0.03466200 -0.02984600 0.05794400
v -0.03466200 0.02959900 0.05794400
v -0.03444700 -0.02986900 0.05738500
v -0.03444700 0.02962100 0.05738500
v -0.03428300 -0.02988600 0.05681500
v -0.03428300 0.02963800 0.05681500
v -0.03252800 -0.03006700 0.02686400
v -0.03252800 0.02982000 0.02686400
v 0.04098600 -0.03768100 0.02783300
v 0.04098600 0.03743300 0.02783300
v -0.02152400 -0.03120700 -0.00370800
v 0.04083000 -0.03766400 0.02799700
v 0.04066100 -0.03764700 0.02814300
v -0.02210900 -0.03114600 -0.00435100
v 0.04066100 0.03739900 0.02814300
v 0.04083000 0.03741700 0.02799700
vn -0.57207855 0.79829778 -0.18827319
vn -0.57219442 0.79826311 0.18806794
vn -0.56765889 0.82326385 0.00009214
vn -0.58148304 0.72728024 0.36461064
vn -0.58170051 0.72722803 -0.36436781
vn -0.59735004 0.61297233 -0.51714394
vn -0.59765540 0.61292187 0.51685086
vn -0.61978295 0.46180729 0.63451015
vn -0.62015428 0.46177749 -0.63416892
vn -0.64417538 0.28657644 0.70916290
vn -0.64387906 0.28726303 -0.70915422
vn -0.67188689 0.09683705 -0.73429598
vn -0.67188689 0.09683705 0.73429598
vn -0.69909397 -0.09387550 0.70884061
vn -0.69900230 -0.09461634 -0.70883251
vn -0.72410253 -0.26986764 0.63470227
vn -0.72445072 -0.26973510 -0.63436120
vn -0.74619485 -0.41936224 0.51703826
vn -0.74591621 -0.41949718 -0.51733077
vn -0.76268027 -0.53424569 0.36455500
vn -0.76287642 -0.53413033 -0.36431355
vn -0.77211599 -0.60703079 -0.18801734
vn -0.77221514 -0.60696695 0.18781614
vn -0.77722285 -0.62922543 0.00009226
vn 0.77615386 0.63054356 0.00009370
vn 0.77237079 0.60656737 0.18846589
vn 0.77226877 0.60663385 -0.18866985
vn 0.76287642 0.53413033 -0.36431355
vn 0.74615683 0.41954274 -0.51694668
vn 0.72436637 0.27016037 -0.63427654
vn 0.69900096 0.09461784 -0.70883363
vn 0.67190710 -0.09664639 -0.73430261
vn 0.64392901 -0.28706581 -0.70918873
vn 0.62015107 -0.46177915 -0.63417086
vn 0.59734832 -0.61297164 -0.51714674
vn 0.58144388 -0.72769912 -0.36383650
vn 0.57222311 -0.79821625 -0.18817951
vn 0.56812827 -0.82294001 0.00009373
vn 0.57233649 -0.79818179 0.18798075
vn 0.58122372 -0.72775407 0.36407829
vn 0.59765367 -0.61292119 0.51685366
vn 0.61977973 -0.46180895 0.63451208
vn 0.64422526 -0.28637916 0.70919728
vn 0.67190710 -0.09664639 0.73430261
vn 0.69909264 0.09387699 0.70884173
vn 0.72401833 0.27029350 0.63461711
vn 0.74643565 0.41940751 0.51665381
vn 0.76268241 0.53424144 0.36455676
vn -0.03717321 0.25923166 -0.96509953
vn -0.07144716 0.49824498 -0.86408752
vn -0.03717714 0.25926013 -0.96509173
vn -0.07144383 0.49822176 -0.86410118
vn -0.10078236 0.70281735 -0.70419506
vn -0.10079086 0.70287666 -0.70413465
vn -0.00000886 0.00006073 -1.00000000
vn 0.00003073 -0.00020574 -0.99999998
vn -0.12328751 0.85975964 -0.49559414
vn -0.12328887 0.85976909 -0.49557741
vn 0.03718052 -0.25926157 -0.96509121
vn 0.03713889 -0.25898470 -0.96516715
vn -0.13720340 0.95680368 -0.25632391
vn -0.13720508 0.95681539 -0.25627930
vn 0.07152489 -0.49876506 -0.86378100
vn 0.07147187 -0.49841729 -0.86398610
vn -0.14194567 0.98987444 0.00013272
vn -0.14194567 0.98987444 0.00013271
vn 0.10084338 -0.70324288 -0.70376137
vn 0.10085431 -0.70331913 -0.70368360
vn -0.13721264 0.95686815 0.25607816
vn -0.13721431 0.95687979 0.25603380
vn 0.12322371 -0.85931473 -0.49638102
vn 0.12322067 -0.85929353 -0.49641847
vn -0.12327111 0.85964528 0.49579655
vn -0.12327247 0.85965475 0.49577980
vn 0.13717136 -0.95658028 -0.25717345
vn 0.13721344 -0.95681743 -0.25626721
vn -0.10081013 0.70301105 0.70399771
vn -0.10080173 0.70295244 0.70405744
vn 0.14195365 -0.98987330 0.00013777
vn 0.14195365 -0.98987330 0.00013577
vn -0.07142695 0.49810406 0.86417043
vn -0.07143034 0.49812773 0.86415651
vn 0.13718877 -0.95664542 0.25692176
vn 0.13721509 -0.95688520 0.25601316
vn -0.03704304 0.25832392 0.96534790
vn -0.03704693 0.25835212 0.96534020
vn 0.12320740 -0.85920097 0.49658195
vn 0.12320434 -0.85917967 0.49661956
vn -0.00000886 0.00006073 1.00000000
vn 0.00003073 -0.00020574 0.99999998
vn 0.10086280 -0.70337836 0.70362318
vn 0.10087361 -0.70345370 0.70354631
vn 0.03705030 -0.25835356 0.96533969
vn 0.03700892 -0.25807829 0.96541490
vn 0.07145523 -0.49830130 0.86405438
vn 0.07150811 -0.49864818 0.86384986
vn 0.19039644 0.67883533 0.70917684
vn -0.19060538 0.67872722 0.70922419
vn 0.00009798 0.67883988 0.73428632
vn 0.36747537 0.67889821 0.63565641
vn -0.36768684 0.67897888 0.63544792
vn 0.51913573 0.67896700 0.51913573
vn -0.51913573 0.67896700 0.51913573
vn 0.63565641 0.67889821 0.36747537
vn -0.63565641 0.67889821 0.36747537
vn 0.70955578 0.67862664 0.18972737
vn -0.70917684 0.67883533 0.19039644
vn 0.73392529 0.67923020 0.00000000
vn -0.73431174 0.67881240 0.00000000
vn 0.70955578 0.67862664 -0.18972737
vn -0.70917684 0.67883533 -0.19039644
vn 0.63565641 0.67889821 -0.36747537
vn -0.63565641 0.67889821 -0.36747537
vn 0.51913573 0.67896700 -0.51913573
vn -0.51913573 0.67896700 -0.51913573
vn 0.36696586 0.67870414 -0.63615780
vn -0.36717684 0.67878445 -0.63595034
vn 0.18968170 0.67902948 -0.70918250
vn -0.18988946 0.67892161 -0.70923018
vn 0.00009798 0.67883988 -0.73428632
vn -0.70917684 -0.67883533 0.19039644
vn -0.63565641 -0.67889821 0.36747537
vn -0.51913573 -0.67896700 0.51913573
vn -0.36768684 -0.67897888 0.63544792
vn -0.19060538 -0.67872722 0.70922419
vn 0.00009798 -0.67883988 0.73428632
vn 0.19039644 -0.67883533 0.70917684
vn 0.36747537 -0.67889821 0.63565641
vn 0.51913573 -0.67896700 0.51913573
vn 0.63565641 -0.67889821 0.36747537
vn 0.70955578 -0.67862664 0.18972737
vn 0.73392529 -0.67923020 -0.00000000
vn 0.70955578 -0.67862664 -0.18972737
vn 0.63565641 -0.67889821 -0.36747537
vn 0.51913573 -0.67896700 -0.51913573
vn 0.36696586 -0.67870414 -0.63615780
vn 0.18968170 -0.67902948 -0.70918250
vn 0.00009798 -0.67883988 -0.73428632
vn -0.18988946 -0.67892161 -0.70923018
vn -0.36717684 -0.67878445 -0.63595034
vn -0.51913573 -0.67896700 -0.51913573
vn -0.63565641 -0.67889821 -0.36747537
vn -0.70917684 -0.67883533 -0.19039644
vn -0.73431174 -0.67881240 -0.00000000
vn -0.00000000 0.00000000 0.00000000
vn 0.00000000 -0.00000000 -0.00000000
vn -0.00000000 0.00000000 -0.00000000
vn 0.00000000 0.00000000 0.00000000
vn 0.00000000 -0.00000000 0.00000000
vn 0.00000000 -0.00000000 0.00000000
vn -0.00000000 0.00000000 0.00000000
vn 0.00000000 -0.00000000 0.00000000
vn 0.00000000 -0.00000000 0.00000000
vn -0.00000000 -0.00000000 -0.00000000
vn -0.00000000 0.00000000 -0.00000000
vn 0.00000000 0.00000000 -0.00000000
vn 0.00000000 -0.00000000 0.00000000
vn 0.00000000 0.00000000 0.00000000
vn -0.00000000 0.00000000 -0.00000000
vn -0.00000000 -0.00000000 -0.00000000
vn -0.00000000 0.00000000 0.00000000
vn -0.00000000 -0.00000000 -0.00000000
vn 0.00000000 0.00000000 -0.00000000
vn -0.00000000 -0.00000000 0.00000000
vn 0.00000000 -0.00000000 0.00000000
vn -0.00000000 -0.00000000 0.00000000
vn 0.00000000 0.00000000 0.00000000
vn -0.00000000 0.00000000 -0.00000000
vn 0.00000000 -0.00000000 0.00000000
vn -0.00000000 0.00000000 -0.00000000
vn -0.00000000 0.00000000 0.00000000
vn -0.00000000 -0.00000000 -0.00000000
vn 0.00000000 0.00000000 0.00000000
vn 0.00000000 0.00000000 -0.00000000
vn -0.00000000 -0.00000000 0.00000000
vn 0.00000000 0.00000000 0.00000000
vn 0.00000000 0.00000000 -0.00000000
vn -0.00000000 0.00000000 0.00000000
vn 0.00000000 -0.00000000 0.00000000
vn -0.00000000 -0.00000000 -0.00000000
vn -0.00000000 -0.00000000 -0.00000000
vn 0.00000000 0.00000000 -0.00000000
vn -0.00000000 0.00000000 0.00000000
vn 0.00000000 -0.00000000 0.00000000
vn -0.00000000 0.00000000 0.00000000
vn -0.00000000 0.00000000 -0.00000000
vn 0.00000000 -0.00000000 0.00000000
vn 0.00000000 0.00000000 0.00000000
vn 0.00000000 0.00000000 -0.00000000
vn -0.00000000 0.00000000 0.00000000
vn -0.00000000 -0.00000000 -0.00000000
vn 0.00000000 -0.00000000 0.00000000
vn 0.00000000 0.00000000 0.00000000
vn -0.00000000 0.00000000 -0.00000000
vn 0.00000000 -0.00000000 -0.00000000
vn 0.00000000 0.00000000 0.00000000
vn 0.12190070 0.99254096 0.00163095
vn -0.00000000 -0.00000000 0.00000000
vn -0.00000000 0.00000000 0.00000000
vn 0.00000000 -0.00000000 -0.00000000
vn -0.00000000 0.00000000 0.00000000
vn 0.00000000 0.00000000 -0.00000000
vn 0.00000000 -0.00000000 -0.00000000
vn -0.00000000 -0.00000000 0.00000000
vn 0.00000000 0.00000000 -0.00000000
vn -0.00000000 -0.00000000 0.00000000
vn 0.00000000 -0.00000000 -0.00000000
vn 0.00000000 0.00000000 -0.00000000
vn 0.00000000 -0.00000000 -0.00000000
vn -0.00000000 -0.00000000 0.00000000
vn 0.00000000 -0.00000000 -0.00000000
vn -0.00000000 -0.00000000 0.00000000
vn 0.00000000 -0.00000000 -0.00000000
vn -0.00000000 -0.00000000 0.00000000
vn 0.00000000 -0.00000000 -0.00000000
vn -0.00000000 0.00000000 0.00000000
vn -0.00000000 -0.00000000 0.00000000
vn 0.00000000 -0.00000000 -0.00000000
vn -0.00000000 -0.00000000 -0.00000000
vn 0.00000000 -0.00000000 0.00000000
vn -0.00000000 -0.00000000 -0.00000000
vn -0.00000000 0.00000000 0.00000000
vn 0.00000000 0.00000000 -0.00000000
vn -0.00000000 -0.00000000 0.00000000
vn -0.00000000 -0.00000000 0.00000000
vn 0.00000000 0.00000000 -0.00000000
vn 0.00000000 -0.00000000 -0.00000000
vn -0.00000000 -0.00000000 0.00000000
vn -0.00000000 0.00000000 0.00000000
vn 0.00000000 -0.00000000 -0.00000000
vn -0.00000000 0.00000000 0.00000000
vn -0.00000000 -0.00000000 0.00000000
vn 0.00000000 0.00000000 -0.00000000
vn -0.00000000 0.00000000 0.00000000
vn 0.00000000 0.00000000 0.00000000
vn -0.00000000 0.00000000 -0.00000000
vn 0.00000000 0.00000000 0.00000000
vn 0.00000000 0.00000000 0.00000000
vn -0.00000000 -0.00000000 -0.00000000
vn -0.00000000 -0.00000000 -0.00000000
vn -0.00000000 0.00000000 0.00000000
vn 0.00000000 -0.00000000 -0.00000000
vn -0.00000000 -0.00000000 -0.00000000
vn 0.00000000 0.00000000 0.00000000
vn 0.00000000 0.00000000 0.00000000
vn -0.00000000 0.00000000 -0.00000000
vn 0.00000000 -0.00000000 0.00000000
vn -0.00000000 -0.00000000 -0.00000000
vn -0.00000000 -0.00000000 -0.00000000
vn 0.00000000 -0.00000000 0.00000000
vn 0.00000000 0.00000000 0.00000000
vn -0.00000000 -0.00000000 -0.00000000
vn -0.00000000 0.00000000 -0.00000000
vn 0.20444739 0.86659507 0.45520793
vn 0.00000000 0.00000000 0.00000000
vn -0.37954108 -0.80105353 -0.46288423
vn 0.12972314 0.99061311 0.04309965
vn 0.05638943 -0.99510755 -0.08112459
vn -0.00000000 0.00000000 -0.00000000
vn 0.00000000 -0.00000000 0.00000000
vn -0.00000000 -0.00000000 0.00000000
vn -0.00000000 0.00000000 -0.00000000
vn -0.00000000 -0.00000000 0.00000000
vn -0.00000000 0.00000000 -0.00000000
vn -0.00000000 -0.00000000 -0.00000000
vn 0.00000000 -0.00000000 0.00000000
vn -0.00000000 -0.00000000 0.00000000
vn -0.00000000 0.00000000 -0.00000000
vn -0.00000000 -0.00000000 -0.00000000
vn -0.00000000 0.00000000 0.00000000
vn 0.00000000 0.00000000 0.00000000
vn 0.09424819 -0.99224493 -0.08103872
vn -0.10729079 -0.99343328 -0.03973672
vn 0.11110099 -0.99092626 0.07564204
vn -0.10290458 -0.99465031 0.00902261
vn -0.10250796 0.99470686 -0.00709750
vn -0.10448785 -0.99388440 -0.03572241
vn -0.10132298 0.99444801 0.02840442
vn 0.00000000 0.00000000 0.00000000
vn -0.00000000 0.00000000 -0.00000000
vn -0.00000000 -0.00000000 -0.00000000
vn 0.00000000 -0.00000000 0.00000000
vn -0.00000000 0.00000000 0.00000000
vn 0.00000000 -0.00000000 -0.00000000
vn 0.00000000 0.00000000 -0.00000000
vn -0.00000000 0.00000000 0.00000000
vn -0.00000000 0.00000000 0.00000000
vn 0.00000000 -0.00000000 -0.00000000
vn 0.00000000 -0.00000000 -0.00000000
vn -0.00000000 -0.00000000 0.00000000
vn -0.00000000 -0.00000000 0.00000000
vn 0.00000000 -0.00000000 -0.00000000
vn 0.00000000 -0.00000000 -0.00000000
vn -0.00000000 -0.00000000 0.00000000
vn -0.00000000 0.00000000 -0.00000000
vn 0.00000000 -0.00000000 0.00000000
vn 0.13836541 0.99011572 -0.02293207
vn -0.00000000 -0.00000000 0.00000000
vn 0.08630489 0.99614110 0.01594916
vn 0.00000000 -0.00000000 -0.00000000
vn -0.00000000 0.00000000 0.00000000
vn 0.00000000 0.00000000 -0.00000000
vn -0.00000000 -0.00000000 0.00000000
vn 0.00000000 0.00000000 -0.00000000
vn -0.00000000 0.00000000 -0.00000000
vn 0.00000000 -0.00000000 0.00000000
vn 0.00000000 0.00000000 0.00000000
vn -0.00000000 -0.00000000 -0.00000000
vn -0.00000000 -0.00000000 -0.00000000
vn 0.00000000 -0.00000000 0.00000000
vn -0.00000000 -0.00000000 -0.00000000
vn 0.00000000 0.00000000 0.00000000
vn -0.00000000 0.00000000 -0.00000000
vn 0.00000000 0.00000000 0.00000000
vn -0.00000000 0.00000000 -0.00000000
vn 0.00000000 0.00000000 0.00000000
vn 0.00000000 0.00000000 0.00000000
vn -0.00000000 0.00000000 -0.00000000
vn -0.00000000 0.00000000 -0.00000000
vn 0.00000000 -0.00000000 -0.00000000
vn -0.00000000 0.00000000 -0.00000000
vn 0.00000000 0.00000000 0.00000000
vn 0.00000000 0.00000000 0.00000000
vn 0.00000000 -0.00000000 -0.00000000
vn -0.00000000 0.00000000 -0.00000000
vn 0.00000000 -0.00000000 0.00000000
vn 0.00000000 0.00000000 0.00000000
vn -0.00000000 0.00000000 -0.00000000
vn -0.00000000 -0.00000000 0.00000000
vn -0.00000000 0.00000000 -0.00000000
vn -0.00000000 0.00000000 -0.00000000
vn 0.00000000 -0.00000000 0.00000000
vn 0.00000000 0.00000000 0.00000000
vn -0.00000000 0.00000000 -0.00000000
vn -0.00000000 0.00000000 -0.00000000
vn 0.00000000 0.00000000 0.00000000
vn 0.00000000 0.00000000 0.00000000
vn -0.00000000 -0.00000000 -0.00000000
vn -0.00000000 -0.00000000 -0.00000000
vn 0.00000000 0.00000000 0.00000000
vn -0.00000000 0.00000000 0.00000000
vn 0.00000000 -0.00000000 -0.00000000
vn -0.00000000 -0.00000000 -0.00000000
vn 0.00000000 -0.00000000 -0.00000000
vn -0.00000000 -0.00000000 0.00000000
vn -0.00000000 0.00000000 0.00000000
vn 0.00000000 -0.00000000 -0.00000000
vn -0.00000000 -0.00000000 0.00000000
vn 0.00000000 0.00000000 -0.00000000
vn -0.00000000 0.00000000 0.00000000
vn -0.00000000 -0.00000000 0.00000000
vn 0.00000000 -0.00000000 -0.00000000
vn 0.00000000 0.00000000 -0.00000000
vn -0.00000000 -0.00000000 0.00000000
vn 0.00000000 -0.00000000 -0.00000000
vn -0.00000000 -0.00000000 0.00000000
vn -0.00000000 -0.00000000 0.00000000
vn 0.00000000 0.00000000 -0.00000000
vn 0.00000000 -0.00000000 0.00000000
vn 0.00000000 0.00000000 0.00000000
vn 0.00000000 0.00000000 0.00000000
vn -0.00000000 -0.00000000 -0.00000000
vn -0.00000000 -0.00000000 -0.00000000
vn 0.00000000 0.00000000 0.00000000
vn 0.00000000 0.00000000 -0.00000000
vn 0.00000000 0.00000000 0.00000000
vn 0.00000000 0.00000000 0.00000000
vn -0.00000000 -0.00000000 -0.00000000
vn -0.00000000 0.00000000 -0.00000000
vn 0.00000000 -0.00000000 0.00000000
vn 0.00000000 -0.00000000 0.00000000
vn -0.00000000 0.00000000 -0.00000000
vn -0.00000000 -0.00000000 -0.00000000
vn 0.00000000 0.00000000 0.00000000
vn 0.00000000 0.00000000 0.00000000
vn -0.00000000 -0.00000000 -0.00000000
vn -0.00000000 0.00000000 -0.00000000
vn 0.00000000 -0.00000000 0.00000000
vn -0.00000000 -0.00000000 -0.00000000
vn -0.00000000 0.00000000 -0.00000000
vn 0.00000000 0.00000000 0.00000000
vn 0.00000000 -0.00000000 0.00000000
vn 0.00000000 0.00000000 0.00000000
vn -0.00000000 -0.00000000 -0.00000000
vn -0.00000000 0.00000000 -0.00000000
vn 0.00000000 -0.00000000 0.00000000
vn 0.00000000 -0.00000000 -0.00000000
vn -0.00000000 -0.00000000 0.00000000
vn -0.00000000 -0.00000000 -0.00000000
vn 0.00000000 0.00000000 0.00000000
vn -0.00000000 0.00000000 0.00000000
vn 0.00000000 0.00000000 0.00000000
vn 0.00000000 -0.00000000 0.00000000
vn -0.00000000 -0.00000000 -0.00000000
vn -0.11443980 -0.99341939 -0.00463166
vn -0.00000000 -0.00000000 -0.00000000
vn -0.00000000 0.00000000 -0.00000000
vn 0.00000000 -0.00000000 0.00000000
vn 0.00000000 0.00000000 0.00000000
vn 0.00000000 0.00000000 0.00000000
vn -0.00000000 -0.00000000 0.00000000
vn -0.00000000 -0.00000000 0.00000000
vn 0.07545017 -0.99527443 -0.06112350
vn -0.00000000 -0.00000000 -0.00000000
f 1//1 2//2 3//3
f 1//1 4//4 2//2
f 5//5 4//4 1//1
f 6//6 4//4 5//5
f 6//6 7//7 4//4
f 6//6 8//8 7//7
f 9//9 8//8 6//6
f 9//9 10//10 8//8
f 11//11 10//10 9//9
f 12//12 10//10 11//11
f 12//12 13//13 10//10
f 12//12 14//14 13//13
f 15//15 14//14 12//12
f 15//15 16//16 14//14
f 17//17 16//16 15//15
f 17//17 18//18 16//16
f 19//19 18//18 17//17
f 19//19 20//20 18//18
f 21//21 20//20 19//19
f 22//22 20//20 21//21
f 22//22 23//23 20//20
f 23//23 22//22 24//24
f 25//25 2//2 26//26
f 2//2 25//25 3//3
f 27//27 3//3 25//25
f 3//3 27//27 1//1
f 28//28 1//1 27//27
f 1//1 28//28 5//5
f 29//29 5//5 28//28
f 5//5 29//29 6//6
f 30//30 6//6 29//29
f 6//6 30//30 9//9
f 31//31 9//9 30//30
f 9//9 31//31 11//11
f 32//32 11//11 31//31
f 11//11 32//32 12//12
f 33//33 12//12 32//32
f 12//12 33//33 15//15
f 34//34 15//15 33//33
f 15//15 34//34 17//17
f 35//35 17//17 34//34
f 17//17 35//35 19//19
f 21//21 35//35 36//36
f 35//35 21//21 19//19
f 22//22 36//36 37//37
f 36//36 22//22 21//21
f 24//24 37//37 38//38
f 37//37 24//24 22//22
f 23//23 38//38 39//39
f 38//38 23//23 24//24
f 20//20 39//39 40//40
f 39//39 20//20 23//23
f 18//18 40//40 41//41
f 40//40 18//18 20//20
f 16//16 41//41 42//42
f 41//41 16//16 18//18
f 14//14 42//42 43//43
f 42//42 14//14 16//16
f 13//13 43//43 44//44
f 43//43 13//13 14//14
f 10//10 44//44 45//45
f 44//44 10//10 13//13
f 8//8 45//45 46//46
f 45//45 8//8 10//10
f 7//7 46//46 47//47
f 46//46 7//7 8//8
f 48//48 7//7 47//47
f 7//7 48//48 4//4
f 26//26 4//4 48//48
f 4//4 26//26 2//2
f 26//26 27//27 25//25
f 48//48 27//27 26//26
f 48//48 28//28 27//27
f 47//47 28//28 48//48
f 47//47 29//29 28//28
f 46//46 29//29 47//47
f 46//46 30//30 29//29
f 45//45 30//30 46//46
f 45//45 31//31 30//30
f 44//44 31//31 45//45
f 44//44 32//32 31//31
f 43//43 32//32 44//44
f 43//43 33//33 32//32
f 42//42 33//33 43//43
f 42//42 34//34 33//33
f 41//41 34//34 42//42
f 41//41 35//35 34//34
f 40//40 35//35 41//41
f 40//40 36//36 35//35
f 39//39 36//36 40//40
f 39//39 37//37 36//36
f 37//37 39//39 38//38
f 49//49 50//50 51//51
f 50//50 49//49 52//52
f 52//52 53//53 50//50
f 53//53 52//52 54//54
f 55//55 51//51 56//56
f 51//51 55//55 49//49
f 53//53 57//57 58//58
f 57//57 53//53 54//54
f 59//59 56//56 60//60
f 56//56 59//59 55//55
f 58//58 61//61 62//62
f 61//61 58//58 57//57
f 63//63 60//60 64//64
f 60//60 63//63 59//59
f 62//62 65//65 66//66
f 65//65 62//62 61//61
f 67//67 64//64 68//68
f 64//64 67//67 63//63
f 66//66 69//69 70//70
f 69//69 66//66 65//65
f 71//71 68//68 72//72
f 68//68 71//71 67//67
f 70//70 73//73 74//74
f 73//73 70//70 69//69
f 75//75 72//72 76//76
f 72//72 75//75 71//71
f 74//74 77//77 78//78
f 77//77 74//74 73//73
f 79//79 76//76 80//80
f 76//76 79//79 75//75
f 78//78 81//81 82//82
f 81//81 78//78 77//77
f 83//83 80//80 84//84
f 80//80 83//83 79//79
f 82//82 85//85 86//86
f 85//85 82//82 81//81
f 87//87 84//84 88//88
f 84//84 87//87 83//83
f 86//86 89//89 90//90
f 89//89 86//86 85//85
f 91//91 88//88 92//92
f 88//88 91//91 87//87
f 90//90 93//93 94//94
f 93//93 90//90 89//89
f 95//95 91//91 92//92
f 91//91 95//95 96//96
f 94//94 96//96 95//95
f 96//96 94//94 93//93
f 97//97 98//98 99//99
f 100//100 98//98 97//97
f 100//100 101//101 98//98
f 102//102 101//101 100//100
f 102//102 103//103 101//101
f 104//104 103//103 102//102
f 104//104 105//105 103//103
f 106//106 105//105 104//104
f 106//106 107//107 105//105
f 108//108 107//107 106//106
f 108//108 109//109 107//107
f 110//110 109//109 108//108
f 110//110 111//111 109//109
f 112//112 111//111 110//110
f 112//112 113//113 111//111
f 114//114 113//113 112//112
f 114//114 115//115 113//113
f 116//116 115//115 114//114
f 116//116 117//117 115//115
f 118//118 117//117 116//116
f 118//118 119//119 117//117
f 119//119 118//118 120//120
f 121//121 105//105 107//107
f 105//105 121//121 122//122
f 122//122 103//103 105//105
f 103//103 122//122 123//123
f 103//103 124//124 101//101
f 124//124 103//103 123//123
f 101//101 125//125 98//98
f 125//125 101//101 124//124
f 98//98 126//126 99//99
f 126//126 98//98 125//125
f 99//99 127//127 97//97
f 127//127 99//99 126//126
f 97//97 128//128 100//100
f 128//128 97//97 127//127
f 100//100 129//129 102//102
f 129//129 100//100 128//128
f 129//129 104//104 102//102
f 104//104 129//129 130//130
f 130//130 106//106 104//104
f 106//106 130//130 131//131
f 131//131 108//108 106//106
f 108//108 131//131 132//132
f 132//132 110//110 108//108
f 110//110 132//132 133//133
f 133//133 112//112 110//110
f 112//112 133//133 134//134
f 134//134 114//114 112//112
f 114//114 134//134 135//135
f 136//136 114//114 135//135
f 114//114 136//136 116//116
f 137//137 116//116 136//136
f 116//116 137//137 118//118
f 138//138 118//118 137//137
f 118//118 138//138 120//120
f 139//139 120//120 138//138
f 120//120 139//139 119//119
f 140//140 119//119 139//139
f 119//119 140//140 117//117
f 141//141 117//117 140//140
f 117//117 141//141 115//115
f 141//141 113//113 115//115
f 113//113 141//141 142//142
f 142//142 111//111 113//113
f 111//111 142//142 143//143
f 143//143 109//109 111//111
f 109//109 143//143 144//144
f 144//144 107//107 109//109
f 107//107 144//144 121//121
f 125//125 127//127 126//126
f 124//124 127//127 125//125
f 124//124 128//128 127//127
f 123//123 128//128 124//124
f 123//123 129//129 128//128
f 122//122 129//129 123//123
f 122//122 130//130 129//129
f 121//121 130//130 122//122
f 121//121 131//131 130//130
f 144//144 131//131 121//121
f 144//144 132//132 131//131
f 143//143 132//132 144//144
f 143//143 133//133 132//132
f 142//142 133//133 143//143
f 142//142 134//134 133//133
f 141//141 134//134 142//142
f 141//141 135//135 134//134
f 140//140 135//135 141//141
f 140//140 136//136 135//135
f 139//139 136//136 140//140
f 139//139 137//137 136//136
f 137//137 139//139 138//138
f 145//145 146//146 147//147
f 148//148 147//147 146//146
f 146//146 147//147 148//148
f 147//147 146//146 145//145
f 145//145 147//147 149//149
f 150//150 149//149 147//147
f 147//147 149//149 150//150
f 149//149 147//147 145//145
f 151//151 146//146 149//149
f 145//145 149//149 146//146
f 146//146 149//149 145//145
f 149//149 146//146 151//151
f 148//148 146//146 152//152
f 151//151 152//152 146//146
f 146//146 152//152 151//151
f 152//152 146//146 148//148
f 153//153 151//151 154//154
f 149//149 154//154 151//151
f 151//151 154//154 149//149
f 154//154 151//151 153//153
f 153//153 154//154 155//155
f 156//156 155//155 154//154
f 154//154 155//155 156//156
f 155//155 154//154 153//153
f 149//149 150//150 154//154
f 156//156 154//154 150//150
f 150//150 154//154 156//156
f 154//154 150//150 149//149
f 152//152 150//150 148//148
f 147//147 148//148 150//150
f 150//150 148//148 147//147
f 148//148 150//150 152//152
f 149//149 151//151 150//150
f 152//152 150//150 151//151
f 151//151 150//150 152//152
f 150//150 151//151 149//149
f 152//152 151//151 155//155
f 153//153 155//155 151//151
f 151//151 155//155 153//153
f 155//155 151//151 152//152
f 152//152 155//155 150//150
f 156//156 150//150 155//155
f 155//155 150//150 156//156
f 150//150 155//155 152//152
f 157//157 158//158 159//159
f 158//158 157//157 160//160
f 160//160 157//157 158//158
f 159//159 158//158 157//157
f 158//158 161//161 162//162
f 161//161 158//158 160//160
f 160//160 158//158 161//161
f 162//162 161//161 158//158
f 157//157 161//161 160//160
f 161//161 157//157 163//163
f 163//163 157//157 161//161
f 160//160 161//161 157//157
f 157//157 164//164 163//163
f 164//164 157//157 159//159
f 159//159 157//157 164//164
f 163//163 164//164 157//157
f 163//163 165//165 161//161
f 165//165 163//163 166//166
f 166//166 163//163 165//165
f 161//161 165//165 163//163
f 165//165 167//167 168//168
f 167//167 165//165 166//166
f 166//166 165//165 167//167
f 168//168 167//167 165//165
f 162//162 165//165 168//168
f 165//165 162//162 161//161
f 161//161 162//162 165//165
f 168//168 165//165 162//162
f 162//162 159//159 158//158
f 159//159 162//162 164//164
f 164//164 162//162 159//159
f 158//158 159//159 162//162
f 163//163 162//162 164//164
f 162//162 163//163 161//161
f 161//161 163//163 162//162
f 164//164 162//162 163//163
f 163//163 167//167 166//166
f 167//167 163//163 164//164
f 164//164 163//163 167//167
f 166//166 167//167 163//163
f 167//167 162//162 168//168
f 162//162 167//167 164//164
f 164//164 167//167 162//162
f 168//168 162//162 167//167
f 169//169 170//170 171//171
f 172//172 171//171 170//170
f 170//170 171//171 172//172
f 171//171 170//170 169//169
f 169//169 171//171 173//173
f 174//174 173//173 171//171
f 171//171 173//173 174//174
f 173//173 171//171 169//169
f 175//175 170//170 173//173
f 169//169 173//173 170//170
f 170//170 173//173 169//169
f 173//173 170//170 175//175
f 172//172 170//170 176//176
f 175//175 176//176 170//170
f 170//170 176//176 175//175
f 176//176 170//170 172//172
f 177//177 175//175 178//178
f 173//173 178//178 175//175
f 175//175 178//178 173//173
f 178//178 175//175 177//177
f 177//177 178//178 179//179
f 180//180 179//179 178//178
f 178//178 179//179 180//180
f 179//179 178//178 177//177
f 173//173 174//174 178//178
f 180//180 178//178 174//174
f 174//174 178//178 180//180
f 178//178 174//174 173//173
f 176//176 174//174 172//172
f 171//171 172//172 174//174
f 174//174 172//172 171//171
f 172//172 174//174 176//176
f 173//173 175//175 174//174
f 176//176 174//174 175//175
f 175//175 174//174 176//176
f 174//174 175//175 173//173
f 176//176 175//175 179//179
f 177//177 179//179 175//175
f 175//175 179//179 177//177
f 179//179 175//175 176//176
f 176//176 179//179 174//174
f 180//180 174//174 179//179
f 179//179 174//174 180//180
f 174//174 179//179 176//176
f 181//181 182//182 183//183
f 182//182 181//181 184//184
f 184//184 181//181 182//182
f 183//183 182//182 181//181
f 182//182 185//185 186//186
f 185//185 182//182 184//184
f 184//184 182//182 185//185
f 186//186 185//185 182//182
f 181//181 185//185 184//184
f 185//185 181//181 187//187
f 187//187 181//181 185//185
f 184//184 185//185 181//181
f 181//181 188//188 187//187
f 188//188 181//181 183//183
f 183//183 181//181 188//188
f 187//187 188//188 181//181
f 187//187 189//189 185//185
f 189//189 187//187 190//190
f 190//190 187//187 189//189
f 185//185 189//189 187//187
f 189//189 191//191 192//192
f 191//191 189//189 190//190
f 190//190 189//189 191//191
f 192//192 191//191 189//189
f 186//186 189//189 192//192
f 189//189 186//186 185//185
f 185//185 186//186 189//189
f 192//192 189//189 186//186
f 186//186 183//183 182//182
f 183//183 186//186 188//188
f 188//188 186//186 183//183
f 182//182 183//183 186//186
f 187//187 186//186 188//188
f 186//186 187//187 185//185
f 185//185 187//187 186//186
f 188//188 186//186 187//187
f 187//187 191//191 190//190
f 191//191 187//187 188//188
f 188//188 187//187 191//191
f 190//190 191//191 187//187
f 191//191 186//186 192//192
f 186//186 191//191 188//188
f 188//188 191//191 186//186
f 192//192 186//186 191//191
f 193//193 194//194 195//195
f 196//196 195//195 194//194
f 194//194 195//195 196//196
f 195//195 194//194 193//193
f 197//197 196//196 198//198
f 195//195 198//198 196//196
f 196//196 198//198 195//195
f 198//198 196//196 197//197
f 199//199 197//197 200//200
f 198//198 200//200 197//197
f 197//197 200//200 198//198
f 200//200 197//197 199//199
f 200//200 201//201 199//199
f 202//202 199//199 201//201
f 201//201 199//199 202//202
f 199//199 201//201 200//200
f 202//202 201//201 203//203
f 204//204 203//203 201//201
f 201//201 203//203 204//204
f 203//203 201//201 202//202
f 204//204 205//205 203//203
f 206//206 203//203 205//205
f 205//205 203//203 206//206
f 203//203 205//205 204//204
f 206//206 205//205 207//207
f 208//208 207//207 205//205
f 205//205 207//207 208//208
f 207//207 205//205 206//206
f 208//208 209//209 207//207
f 210//210 207//207 209//209
f 209//209 207//207 210//210
f 207//207 209//209 208//208
f 209//209 211//211 210//210
f 212//212 210//210 211//211
f 211//211 210//210 212//212
f 210//210 211//211 209//209
f 212//212 211//211 213//213
f 214//214 213//213 211//211
f 211//211 213//213 214//214
f 213//213 211//211 212//212
f 213//213 214//214 215//215
f 216//216 215//215 214//214
f 214//214 215//215 216//216
f 215//215 214//214 213//213
f 215//215 216//216 217//217
f 218//218 217//217 216//216
f 216//216 217//217 218//218
f 217//217 216//216 215//215
f 217//217 218//218 219//219
f 220//220 219//219 218//218
f 218//218 219//219 220//220
f 219//219 218//218 217//217
f 219//219 220//220 221//221
f 222//222 221//221 220//220
f 220//220 221//221 222//222
f 221//221 220//220 219//219
f 221//221 222//222 223//223
f 224//224 223//223 222//222
f 222//222 223//223 224//224
f 223//223 222//222 221//221
f 223//223 224//224 225//225
f 226//226 225//225 224//224
f 224//224 225//225 226//226
f 225//225 224//224 223//223
f 225//225 226//226 227//227
f 228//228 227//227 226//226
f 226//226 227//227 228//228
f 227//227 226//226 225//225
f 227//227 228//228 229//229
f 230//230 229//229 228//228
f 228//228 229//229 230//230
f 229//229 228//228 227//227
f 229//229 230//230 231//231
f 232//232 231//231 230//230
f 230//230 231//231 232//232
f 231//231 230//230 229//229
f 231//231 232//232 233//233
f 234//234 233//233 232//232
f 232//232 233//233 234//234
f 233//233 232//232 231//231
f 233//233 234//234 235//235
f 236//236 235//235 234//234
f 234//234 235//235 236//236
f 235//235 234//234 233//233
f 236//236 235//235 156//156
f 237//237 156//156 235//235
f 168//168 156//156 237//237
f 237//237 156//156 168//168
f 235//235 156//156 237//237
f 156//156 235//235 236//236
f 168//168 238//238 156//156
f 239//239 156//156 238//238
f 239//239 238//238 240//240
f 240//240 238//238 239//239
f 238//238 156//156 239//239
f 156//156 238//238 168//168
f 238//238 241//241 240//240
f 242//242 240//240 241//241
f 241//241 240//240 242//242
f 240//240 241//241 238//238
f 241//241 243//243 242//242
f 244//244 242//242 243//243
f 243//243 242//242 244//244
f 242//242 243//243 241//241
f 243//243 245//245 244//244
f 246//246 244//244 245//245
f 245//245 244//244 246//246
f 244//244 245//245 243//243
f 245//245 247//247 246//246
f 248//248 246//246 247//247
f 247//247 246//246 248//248
f 246//246 247//247 245//245
f 247//247 249//249 248//248
f 250//250 248//248 249//249
f 249//249 248//248 250//250
f 248//248 249//249 247//247
f 249//249 251//251 250//250
f 252//252 250//250 251//251
f 251//251 250//250 252//252
f 250//250 251//251 249//249
f 253//253 254//254 255//255
f 256//256 255//255 254//254
f 254//254 255//255 256//256
f 255//255 254//254 253//253
f 257//257 258//258 255//255
f 253//253 255//255 258//258
f 258//258 255//255 253//253
f 255//255 258//258 257//257
f 259//259 260//260 257//257
f 258//258 257//257 260//260
f 260//260 257//257 258//258
f 257//257 260//260 259//259
f 261//261 262//262 259//259
f 260//260 259//259 262//262
f 262//262 259//259 260//260
f 259//259 262//262 261//261
f 263//263 264//264 261//261
f 262//262 261//261 264//264
f 264//264 261//261 262//262
f 261//261 264//264 263//263
f 265//265 266//266 263//263
f 264//264 263//263 266//266
f 266//266 263//263 264//264
f 263//263 266//266 265//265
f 267//267 268//268 265//265
f 266//266 265//265 268//268
f 268//268 265//265 266//266
f 265//265 268//268 267//267
f 269//269 270//270 267//267
f 268//268 267//267 270//270
f 270//270 267//267 268//268
f 267//267 270//270 269//269
f 271//271 272//272 269//269
f 270//270 269//269 272//272
f 272//272 269//269 270//270
f 269//269 272//272 271//271
f 273//273 274//274 271//271
f 272//272 271//271 274//274
f 274//274 271//271 272//272
f 271//271 274//274 273//273
f 275//275 276//276 273//273
f 274//274 273//273 276//276
f 276//276 273//273 274//274
f 273//273 276//276 275//275
f 277//277 278//278 275//275
f 276//276 275//275 278//278
f 278//278 275//275 276//276
f 275//275 278//278 277//277
f 279//279 280//280 277//277
f 278//278 277//277 280//280
f 280//280 277//277 278//278
f 277//277 280//280 279//279
f 281//281 282//282 279//279
f 280//280 279//279 282//282
f 282//282 279//279 280//280
f 279//279 282//282 281//281
f 283//283 284//284 281//281
f 282//282 281//281 284//284
f 284//284 281//281 282//282
f 281//281 284//284 283//283
f 285//285 286//286 283//283
f 284//284 283//283 286//286
f 286//286 283//283 284//284
f 283//283 286//286 285//285
f 287//287 288//288 285//285
f 286//286 285//285 288//288
f 288//288 285//285 286//286
f 285//285 288//288 287//287
f 289//289 290//290 287//287
f 288//288 287//287 290//290
f 290//290 287//287 288//288
f 287//287 290//290 289//289
f 291//291 292//292 289//289
f 290//290 289//289 292//292
f 292//292 289//289 290//290
f 289//289 292//292 291//291
f 293//293 294//294 291//291
f 292//292 291//291 294//294
f 294//294 291//291 292//292
f 291//291 294//294 293//293
f 293//293 295//295 294//294
f 296//296 294//294 295//295
f 295//295 294//294 296//296
f 294//294 295//295 293//293
f 295//295 297//297 296//296
f 298//298 296//296 297//297
f 297//297 296//296 298//298
f 296//296 297//297 295//295
f 297//297 299//299 298//298
f 300//300 298//298 299//299
f 299//299 298//298 300//300
f 298//298 299//299 297//297
f 299//299 301//301 300//300
f 302//302 300//300 301//301
f 301//301 300//300 302//302
f 300//300 301//301 299//299
f 301//301 303//303 302//302
f 304//304 302//302 303//303
f 303//303 302//302 304//304
f 302//302 303//303 301//301
f 303//303 305//305 304//304
f 306//306 304//304 305//305
f 305//305 304//304 306//306
f 304//304 305//305 303//303
f 305//305 307//307 306//306
f 308//308 306//306 307//307
f 307//307 306//306 308//308
f 306//306 307//307 305//305
f 307//307 309//309 308//308
f 310//310 308//308 309//309
f 309//309 308//308 310//310
f 308//308 309//309 307//307
f 309//309 311//311 310//310
f 312//312 310//310 311//311
f 311//311 310//310 312//312
f 310//310 311//311 309//309
f 311//311 313//313 312//312
f 314//314 312//312 313//313
f 313//313 312//312 314//314
f 312//312 313//313 311//311
f 313//313 315//315 314//314
f 316//316 314//314 315//315
f 315//315 314//314 316//316
f 314//314 315//315 313//313
f 315//315 317//317 316//316
f 318//318 316//316 317//317
f 317//317 316//316 318//318
f 316//316 317//317 315//315
f 317//317 319//319 318//318
f 320//320 318//318 319//319
f 319//319 318//318 320//320
f 318//318 319//319 317//317
f 319//319 321//321 320//320
f 322//322 320//320 321//321
f 321//321 320//320 322//322
f 320//320 321//321 319//319
f 321//321 323//323 322//322
f 324//324 322//322 323//323
f 323//323 322//322 324//324
f 322//322 323//323 321//321
f 323//323 325//325 324//324
f 326//326 324//324 325//325
f 325//325 324//324 326//326
f 324//324 325//325 323//323
f 325//325 327//327 326//326
f 328//328 326//326 327//327
f 327//327 326//326 328//328
f 326//326 327//327 325//325
f 327//327 329//329 328//328
f 330//330 328//328 329//329
f 329//329 328//328 330//330
f 328//328 329//329 327//327
f 329//329 331//331 330//330
f 332//332 330//330 331//331
f 331//331 330//330 332//332
f 330//330 331//331 329//329
f 333//333 334//334 331//331
f 332//332 331//331 334//334
f 334//334 331//331 332//332
f 331//331 334//334 333//333
f 335//335 336//336 333//333
f 334//334 333//333 336//336
f 336//336 333//333 334//334
f 333//333 336//336 335//335
f 337//337 338//338 335//335
f 336//336 335//335 338//338
f 338//338 335//335 336//336
f 335//335 338//338 337//337
f 339//339 340//340 337//337
f 338//338 337//337 340//340
f 340//340 337//337 338//338
f 337//337 340//340 339//339
f 341//341 342//342 339//339
f 340//340 339//339 342//342
f 342//342 339//339 340//340
f 339//339 342//342 341//341
f 343//343 344//344 341//341
f 342//342 341//341 344//344
f 344//344 341//341 342//342
f 341//341 344//344 343//343
f 345//345 346//346 343//343
f 344//344 343//343 346//346
f 346//346 343//343 344//344
f 343//343 346//346 345//345
f 347//347 348//348 345//345
f 346//346 345//345 348//348
f 348//348 345//345 346//346
f 345//345 348//348 347//347
f 349//349 350//350 347//347
f 348//348 347//347 350//350
f 350//350 347//347 348//348
f 347//347 350//350 349//349
f 349//349 351//351 350//350
f 352//352 350//350 351//351
f 351//351 350//350 352//352
f 350//350 351//351 349//349
f 351//351 353//353 352//352
f 354//354 352//352 353//353
f 353//353 352//352 354//354
f 352//352 353//353 351//351
f 353//353 355//355 354//354
f 356//356 354//354 355//355
f 355//355 354//354 356//356
f 354//354 355//355 353//353
f 355//355 357//357 356//356
f 358//358 356//356 357//357
f 357//357 356//356 358//358
f 356//356 357//357 355//355
f 359//359 360//360 357//357
f 358//358 357//357 360//360
f 360//360 357//357 358//358
f 357//357 360//360 359//359
f 361//361 362//362 359//359
f 360//360 359//359 362//362
f 362//362 359//359 360//360
f 359//359 362//362 361//361
f 363//363 364//364 361//361
f 362//362 361//361 364//364
f 364//364 361//361 362//362
f 361//361 364//364 363//363
f 365//365 366//366 363//363
f 364//364 363//363 366//366
f 366//366 363//363 364//364
f 363//363 366//366 365//365
f 366//366 365//365 367//367
f 368//368 367//367 365//365
f 365//365 367//367 368//368
f 367//367 365//365 366//366
f 367//367 368//368 369//369
f 370//370 369//369 368//368
f 368//368 369//369 370//370
f 369//369 368//368 367//367
f 369//369 370//370 371//371
f 372//372 371//371 370//370
f 370//370 371//371 372//372
f 371//371 370//370 369//369
f 371//371 372//372 373//373
f 374//374 373//373 372//372
f 372//372 373//373 374//374
f 373//373 372//372 371//371
f 373//373 374//374 375//375
f 376//376 375//375 374//374
f 374//374 375//375 376//376
f 375//375 374//374 373//373
f 375//375 376//376 377//377
f 378//378 377//377 376//376
f 376//376 377//377 378//378
f 377//377 376//376 375//375
f 377//377 378//378 379//379
f 380//380 379//379 378//378
f 378//378 379//379 380//380
f 379//379 378//378 377//377
f 381//381 382//382 380//380
f 379//379 380//380 382//382
f 382//382 380//380 379//379
f 380//380 382//382 381//381
f 383//383 384//384 381//381
f 382//382 381//381 384//384
f 384//384 381//381 382//382
f 381//381 384//384 383//383
f 385//385 386//386 383//383
f 384//384 383//383 386//386
f 386//386 383//383 384//384
f 383//383 386//386 385//385
f 387//387 388//388 385//385
f 386//386 385//385 388//388
f 388//388 385//385 386//386
f 385//385 388//388 387//387
f 389//389 390//390 387//387
f 388//388 387//387 390//390
f 390//390 387//387 388//388
f 387//387 390//390 389//389
f 391//391 392//392 389//389
f 390//390 389//389 392//392
f 392//392 389//389 390//390
f 389//389 392//392 391//391
f 393//393 394//394 391//391
f 392//392 391//391 394//394
f 394//394 391//391 392//392
f 391//391 394//394 393//393
f 395//395 396//396 393//393
f 394//394 393//393 396//396
f 396//396 393//393 394//394
f 393//393 396//396 395//395
f 395//395 194//194 396//396
f 193//193 396//396 194//194
f 194//194 396//396 193//193
f 396//396 194//194 395//395
f 251//251 397//397 252//252
f 398//398 252//252 397//397
f 397//397 252//252 398//398
f 252//252 397//397 251//251
f 196//196 399//399 197//197
f 168//168 237//237 238//238
f 235//235 238//238 237//237
f 400//400 303//303 401//401
f 301//301 401//401 303//303
f 256//256 401//401 301//301
f 255//255 256//256 301//301
f 257//257 255//255 301//301
f 259//259 257//257 301//301
f 261//261 259//259 301//301
f 299//299 261//261 301//301
f 263//263 261//261 299//299
f 265//265 263//263 299//299
f 267//267 265//265 299//299
f 269//269 267//267 299//299
f 271//271 269//269 299//299
f 297//297 271//271 299//299
f 273//273 271//271 297//297
f 275//275 273//273 297//297
f 277//277 275//275 297//297
f 279//279 277//277 297//297
f 295//295 279//279 297//297
f 293//293 279//279 295//295
f 291//291 279//279 293//293
f 289//289 279//279 291//291
f 287//287 279//279 289//289
f 285//285 279//279 287//287
f 283//283 279//279 285//285
f 281//281 279//279 283//283
f 196//196 194//194 402//402
f 395//395 402//402 194//194
f 399//399 402//402 395//395
f 197//197 399//399 395//395
f 199//199 197//197 395//395
f 202//202 199//199 395//395
f 203//203 202//202 395//395
f 206//206 203//203 395//395
f 207//207 206//206 395//395
f 210//210 207//207 395//395
f 212//212 210//210 395//395
f 213//213 212//212 395//395
f 215//215 213//213 395//395
f 217//217 215//215 395//395
f 219//219 217//217 395//395
f 221//221 219//219 395//395
f 223//223 221//221 395//395
f 225//225 223//223 395//395
f 227//227 225//225 395//395
f 229//229 227//227 395//395
f 231//231 229//229 395//395
f 233//233 231//231 395//395
f 235//235 233//233 395//395
f 238//238 235//235 395//395
f 241//241 238//238 395//395
f 243//243 241//241 395//395
f 245//245 243//243 395//395
f 303//303 245//245 395//395
f 393//393 303//303 395//395
f 247//247 245//245 303//303
f 249//249 247//247 303//303
f 251//251 249//249 303//303
f 397//397 251//251 303//303
f 400//400 397//397 303//303
f 305//305 303//303 393//393
f 307//307 305//305 393//393
f 309//309 307//307 393//393
f 311//311 309//309 393//393
f 313//313 311//311 393//393
f 315//315 313//313 393//393
f 317//317 315//315 393//393
f 319//319 317//317 393//393
f 391//391 319//319 393//393
f 389//389 319//319 391//391
f 321//321 319//319 389//389
f 387//387 321//321 389//389
f 385//385 321//321 387//387
f 383//383 321//321 385//385
f 381//381 321//321 383//383
f 380//380 321//321 381//381
f 378//378 321//321 380//380
f 376//376 321//321 378//378
f 323//323 321//321 376//376
f 374//374 323//323 376//376
f 372//372 323//323 374//374
f 370//370 323//323 372//372
f 368//368 323//323 370//370
f 365//365 323//323 368//368
f 363//363 323//323 365//365
f 325//325 323//323 363//363
f 361//361 325//325 363//363
f 359//359 325//325 361//361
f 357//357 325//325 359//359
f 327//327 325//325 357//357
f 355//355 327//327 357//357
f 353//353 327//327 355//355
f 329//329 327//327 353//353
f 351//351 329//329 353//353
f 331//331 329//329 351//351
f 349//349 331//331 351//351
f 333//333 331//331 349//349
f 347//347 333//333 349//349
f 335//335 333//333 347//347
f 345//345 335//335 347//347
f 337//337 335//335 345//345
f 343//343 337//337 345//345
f 339//339 337//337 343//343
f 341//341 339//339 343//343
f 343//343 339//339 341//341
f 343//343 337//337 339//339
f 345//345 337//337 343//343
f 345//345 335//335 337//337
f 347//347 335//335 345//345
f 347//347 333//333 335//335
f 349//349 333//333 347//347
f 349//349 331//331 333//333
f 351//351 331//331 349//349
f 351//351 329//329 331//331
f 353//353 329//329 351//351
f 353//353 327//327 329//329
f 355//355 327//327 353//353
f 357//357 327//327 355//355
f 357//357 325//325 327//327
f 359//359 325//325 357//357
f 361//361 325//325 359//359
f 363//363 325//325 361//361
f 363//363 323//323 325//325
f 365//365 323//323 363//363
f 368//368 323//323 365//365
f 370//370 323//323 368//368
f 372//372 323//323 370//370
f 374//374 323//323 372//372
f 376//376 323//323 374//374
f 376//376 321//321 323//323
f 378//378 321//321 376//376
f 380//380 321//321 378//378
f 381//381 321//321 380//380
f 383//383 321//321 381//381
f 385//385 321//321 383//383
f 387//387 321//321 385//385
f 389//389 321//321 387//387
f 389//389 319//319 321//321
f 391//391 319//319 389//389
f 393//393 319//319 391//391
f 393//393 317//317 319//319
f 393//393 315//315 317//317
f 393//393 313//313 315//315
f 393//393 311//311 313//313
f 393//393 309//309 311//311
f 393//393 307//307 309//309
f 393//393 305//305 307//307
f 393//393 303//303 305//305
f 303//303 397//397 400//400
f 303//303 251//251 397//397
f 303//303 249//249 251//251
f 303//303 247//247 249//249
f 303//303 245//245 247//247
f 395//395 303//303 393//393
f 395//395 245//245 303//303
f 395//395 243//243 245//245
f 395//395 241//241 243//243
f 395//395 238//238 241//241
f 395//395 235//235 238//238
f 395//395 233//233 235//235
f 395//395 231//231 233//233
f 395//395 229//229 231//231
f 395//395 227//227 229//229
f 395//395 225//225 227//227
f 395//395 223//223 225//225
f 395//395 221//221 223//223
f 395//395 219//219 221//221
f 395//395 217//217 219//219
f 395//395 215//215 217//217
f 395//395 213//213 215//215
f 395//395 212//212 213//213
f 395//395 210//210 212//212
f 395//395 207//207 210//210
f 395//395 206//206 207//207
f 395//395 203//203 206//206
f 395//395 202//202 203//203
f 395//395 199//199 202//202
f 395//395 197//197 199//199
f 395//395 399//399 197//197
f 395//395 402//402 399//399
f 194//194 402//402 395//395
f 402//402 194//194 196//196
f 283//283 279//279 281//281
f 285//285 279//279 283//283
f 287//287 279//279 285//285
f 289//289 279//279 287//287
f 291//291 279//279 289//289
f 293//293 279//279 291//291
f 295//295 279//279 293//293
f 297//297 279//279 295//295
f 297//297 277//277 279//279
f 297//297 275//275 277//277
f 297//297 273//273 275//275
f 297//297 271//271 273//273
f 299//299 271//271 297//297
f 299//299 269//269 271//271
f 299//299 267//267 269//269
f 299//299 265//265 267//267
f 299//299 263//263 265//265
f 299//299 261//261 263//263
f 301//301 261//261 299//299
f 301//301 259//259 261//261
f 301//301 257//257 259//259
f 301//301 255//255 257//257
f 301//301 256//256 255//255
f 301//301 401//401 256//256
f 303//303 401//401 301//301
f 401//401 303//303 400//400
f 237//237 238//238 235//235
f 238//238 237//237 168//168
f 197//197 399//399 196//196
f 256//256 254//254 401//401
f 403//403 401//401 254//254
f 254//254 401//401 403//403
f 401//401 254//254 256//256
f 236//236 156//156 239//239
f 195//195 198//198 193//193
f 396//396 193//193 198//198
f 200//200 396//396 198//198
f 201//201 396//396 200//200
f 204//204 396//396 201//201
f 205//205 396//396 204//204
f 208//208 396//396 205//205
f 209//209 396//396 208//208
f 211//211 396//396 209//209
f 214//214 396//396 211//211
f 216//216 396//396 214//214
f 218//218 396//396 216//216
f 220//220 396//396 218//218
f 222//222 396//396 220//220
f 224//224 396//396 222//222
f 226//226 396//396 224//224
f 228//228 396//396 226//226
f 230//230 396//396 228//228
f 232//232 396//396 230//230
f 234//234 396//396 232//232
f 236//236 396//396 234//234
f 239//239 396//396 236//236
f 240//240 396//396 239//239
f 242//242 396//396 240//240
f 244//244 396//396 242//242
f 246//246 396//396 244//244
f 304//304 396//396 246//246
f 394//394 396//396 304//304
f 248//248 304//304 246//246
f 250//250 304//304 248//248
f 252//252 304//304 250//250
f 398//398 304//304 252//252
f 404//404 304//304 398//398
f 306//306 394//394 304//304
f 308//308 394//394 306//306
f 310//310 394//394 308//308
f 312//312 394//394 310//310
f 314//314 394//394 312//312
f 316//316 394//394 314//314
f 318//318 394//394 316//316
f 320//320 394//394 318//318
f 392//392 394//394 320//320
f 390//390 392//392 320//320
f 322//322 390//390 320//320
f 388//388 390//390 322//322
f 386//386 388//388 322//322
f 384//384 386//386 322//322
f 382//382 384//384 322//322
f 379//379 382//382 322//322
f 377//377 379//379 322//322
f 375//375 377//377 322//322
f 324//324 375//375 322//322
f 373//373 375//375 324//324
f 371//371 373//373 324//324
f 369//369 371//371 324//324
f 367//367 369//369 324//324
f 366//366 367//367 324//324
f 364//364 366//366 324//324
f 326//326 364//364 324//324
f 362//362 364//364 326//326
f 360//360 362//362 326//326
f 358//358 360//360 326//326
f 328//328 358//358 326//326
f 356//356 358//358 328//328
f 354//354 356//356 328//328
f 330//330 354//354 328//328
f 352//352 354//354 330//330
f 332//332 352//352 330//330
f 350//350 352//352 332//332
f 334//334 350//350 332//332
f 348//348 350//350 334//334
f 336//336 348//348 334//334
f 346//346 348//348 336//336
f 338//338 346//346 336//336
f 344//344 346//346 338//338
f 340//340 344//344 338//338
f 342//342 344//344 340//340
f 404//404 403//403 304//304
f 302//302 304//304 403//403
f 254//254 302//302 403//403
f 253//253 302//302 254//254
f 258//258 302//302 253//253
f 260//260 302//302 258//258
f 262//262 302//302 260//260
f 300//300 302//302 262//262
f 264//264 300//300 262//262
f 266//266 300//300 264//264
f 268//268 300//300 266//266
f 270//270 300//300 268//268
f 272//272 300//300 270//270
f 298//298 300//300 272//272
f 274//274 298//298 272//272
f 276//276 298//298 274//274
f 278//278 298//298 276//276
f 280//280 298//298 278//278
f 296//296 298//298 280//280
f 294//294 296//296 280//280
f 292//292 294//294 280//280
f 290//290 292//292 280//280
f 288//288 290//290 280//280
f 286//286 288//288 280//280
f 284//284 286//286 280//280
f 282//282 284//284 280//280
f 280//280 284//284 282//282
f 280//280 286//286 284//284
f 280//280 288//288 286//286
f 280//280 290//290 288//288
f 280//280 292//292 290//290
f 280//280 294//294 292//292
f 280//280 296//296 294//294
f 280//280 298//298 296//296
f 278//278 298//298 280//280
f 276//276 298//298 278//278
f 274//274 298//298 276//276
f 272//272 298//298 274//274
f 272//272 300//300 298//298
f 270//270 300//300 272//272
f 268//268 300//300 270//270
f 266//266 300//300 268//268
f 264//264 300//300 266//266
f 262//262 300//300 264//264
f 262//262 302//302 300//300
f 260//260 302//302 262//262
f 258//258 302//302 260//260
f 253//253 302//302 258//258
f 254//254 302//302 253//253
f 403//403 302//302 254//254
f 403//403 304//304 302//302
f 304//304 403//403 404//404
f 340//340 344//344 342//342
f 338//338 344//344 340//340
f 338//338 346//346 344//344
f 336//336 346//346 338//338
f 336//336 348//348 346//346
f 334//334 348//348 336//336
f 334//334 350//350 348//348
f 332//332 350//350 334//334
f 332//332 352//352 350//350
f 330//330 352//352 332//332
f 330//330 354//354 352//352
f 328//328 354//354 330//330
f 328//328 356//356 354//354
f 328//328 358//358 356//356
f 326//326 358//358 328//328
f 326//326 360//360 358//358
f 326//326 362//362 360//360
f 326//326 364//364 362//362
f 324//324 364//364 326//326
f 324//324 366//366 364//364
f 324//324 367//367 366//366
f 324//324 369//369 367//367
f 324//324 371//371 369//369
f 324//324 373//373 371//371
f 324//324 375//375 373//373
f 322//322 375//375 324//324
f 322//322 377//377 375//375
f 322//322 379//379 377//377
f 322//322 382//382 379//379
f 322//322 384//384 382//382
f 322//322 386//386 384//384
f 322//322 388//388 386//386
f 322//322 390//390 388//388
f 320//320 390//390 322//322
f 320//320 392//392 390//390
f 320//320 394//394 392//392
f 318//318 394//394 320//320
f 316//316 394//394 318//318
f 314//314 394//394 316//316
f 312//312 394//394 314//314
f 310//310 394//394 312//312
f 308//308 394//394 310//310
f 306//306 394//394 308//308
f 304//304 394//394 306//306
f 398//398 304//304 404//404
f 252//252 304//304 398//398
f 250//250 304//304 252//252
f 248//248 304//304 250//250
f 246//246 304//304 248//248
f 304//304 396//396 394//394
f 246//246 396//396 304//304
f 244//244 396//396 246//246
f 242//242 396//396 244//244
f 240//240 396//396 242//242
f 239//239 396//396 240//240
f 236//236 396//396 239//239
f 234//234 396//396 236//236
f 232//232 396//396 234//234
f 230//230 396//396 232//232
f 228//228 396//396 230//230
f 226//226 396//396 228//228
f 224//224 396//396 226//226
f 222//222 396//396 224//224
f 220//220 396//396 222//222
f 218//218 396//396 220//220
f 216//216 396//396 218//218
f 214//214 396//396 216//216
f 211//211 396//396 214//214
f 209//209 396//396 211//211
f 208//208 396//396 209//209
f 205//205 396//396 208//208
f 204//204 396//396 205//205
f 201//201 396//396 204//204
f 200//200 396//396 201//201
f 198//198 396//396 200//200
f 198//198 193//193 396//396
f 193//193 198//198 195//195
f 239//239 156//156 236//236
f 397//397 400//400 398//398
f 404//404 398//398 400//400
f 400//400 398//398 404//404
f 398//398 400//400 397//397
f 401//401 403//403 400//400
f 404//404 400//400 403//403
f 403//403 400//400 404//404
f 400//400 403//403 401//401