# https://github.com/mikedh/trimesh
v 0.13359300 0.08006500 -0.01116800
v 0.13375800 0.08006500 -0.01116800
v 0.13359300 0.08116500 -0.01116800
v 0.13269000 0.08006500 -0.01116800
v 0.13252400 0.08135800 -0.01116800
v 0.13252400 0.08006500 -0.01116800
v 0.13269000 0.08114700 -0.01116800
v 0.13275600 0.08135800 -0.01116800
v 0.13306400 0.08046000 -0.01116800
v 0.13306600 0.08006500 -0.01116800
v 0.13313300 0.08025200 -0.01116800
v 0.13321900 0.08006500 -0.01116800
v 0.13319400 0.08044300 -0.01116800
v 0.13350100 0.08135800 -0.01116800
v 0.13375800 0.08135800 -0.01116800
v 0.13165900 0.08018100 -0.01116800
v 0.13167200 0.08047800 -0.01116800
v 0.13167200 0.08070100 -0.01116800
v 0.13167800 0.08038600 -0.01116800
v 0.13169800 0.08031900 -0.01116800
v 0.13174000 0.08025700 -0.01116800
v 0.13174500 0.08011800 -0.01116800
v 0.13180200 0.08020900 -0.01116800
v 0.13182800 0.08007600 -0.01116800
v 0.13187900 0.08018000 -0.01116800
v 0.13191300 0.08005200 -0.01116800
v 0.13196600 0.08016900 -0.01116800
v 0.13200300 0.08004400 -0.01116800
v 0.13204700 0.08018000 -0.01116800
v 0.13207600 0.08005000 -0.01116800
v 0.13210700 0.08021100 -0.01116800
v 0.13213900 0.08006400 -0.01116800
v 0.13214200 0.08025900 -0.01116800
v 0.13215400 0.08031800 -0.01116800
v 0.13219500 0.08008800 -0.01116800
v 0.13215600 0.08055900 -0.01116800
v 0.13221000 0.08052900 -0.01116800
v 0.13224100 0.08012100 -0.01116800
v 0.13225600 0.08049000 -0.01116800
v 0.13227600 0.08016000 -0.01116800
v 0.13229200 0.08043900 -0.01116800
v 0.13230200 0.08020600 -0.01116800
v 0.13231500 0.08037800 -0.01116800
v 0.13231800 0.08025700 -0.01116800
v 0.13232300 0.08031200 -0.01116800
v 0.13151100 0.08045800 -0.01116800
v 0.13151900 0.08081600 -0.01116800
v 0.13151100 0.08067000 -0.01116800
v 0.13153900 0.08087600 -0.01116800
v 0.13150100 0.08017800 -0.01116800
v 0.13156900 0.08092300 -0.01116800
v 0.13161400 0.08096300 -0.01116800
v 0.13162700 0.08006500 -0.01116800
v 0.13148600 0.08012100 -0.01116800
v 0.13146100 0.08006500 -0.01116800
v 0.13164700 0.08011900 -0.01116800
v 0.13168000 0.08099400 -0.01116800
v 0.13168200 0.08078400 -0.01116800
v 0.13171600 0.08083800 -0.01116800
v 0.13176500 0.08101500 -0.01116800
v 0.13179100 0.08087900 -0.01116800
v 0.13187400 0.08102300 -0.01116800
v 0.13189600 0.08089200 -0.01116800
v 0.13198700 0.08101500 -0.01116800
v 0.13199400 0.08088100 -0.01116800
v 0.13206200 0.08085200 -0.01116800
v 0.13208600 0.08099000 -0.01116800
v 0.13210800 0.08079900 -0.01116800
v 0.13214100 0.08071300 -0.01116800
v 0.13216700 0.08095000 -0.01116800
v 0.13222600 0.08089600 -0.01116800
v 0.13226800 0.08082500 -0.01116800
v 0.13229600 0.08073400 -0.01116800
v 0.13167200 0.08053600 -0.01116800
v 0.13167200 0.08065900 -0.01116800
v 0.13177900 0.08050300 -0.01116800
v 0.13178900 0.08063000 -0.01116800
v 0.13193000 0.08047500 -0.01116800
v 0.13195500 0.08060500 -0.01116800
v 0.13207000 0.08044400 -0.01116800
v 0.13209600 0.08058200 -0.01116800
v 0.13210500 0.08042300 -0.01116800
v 0.13213100 0.08039300 -0.01116800
v 0.13214900 0.08035700 -0.01116800
v 0.13135200 0.08087900 -0.01116800
v 0.13123700 0.08100200 -0.01116800
v 0.13123700 0.08087900 -0.01116800
v 0.13135200 0.08100200 -0.01116800
v 0.13089600 0.08006800 -0.01116800
v 0.13098800 0.08020200 -0.01116800
v 0.13091900 0.08020700 -0.01116800
v 0.13101600 0.08005400 -0.01116800
v 0.13104400 0.08021300 -0.01116800
v 0.13107000 0.08024400 -0.01116800
v 0.13107900 0.08033100 -0.01116800
v 0.13107900 0.08100200 -0.01116800
v 0.13107900 0.08087900 -0.01116800
v 0.13107900 0.08132900 -0.01116800
v 0.13109400 0.08006000 -0.01116800
v 0.13115000 0.08008100 -0.01116800
v 0.13119100 0.08011300 -0.01116800
v 0.13121700 0.08015200 -0.01116800
v 0.13123200 0.08022200 -0.01116800
v 0.13123700 0.08034000 -0.01116800
v 0.13123700 0.08123300 -0.01116800
v 0.13091900 0.08100200 -0.01116800
v 0.13091900 0.08087900 -0.01116800
v 0.13085200 0.08087900 -0.01116800
v 0.13073500 0.08100200 -0.01116800
v 0.13073500 0.08087900 -0.01116800
v 0.13085200 0.08100200 -0.01116800
v 0.13039500 0.08006800 -0.01116800
v 0.13048800 0.08020200 -0.01116800
v 0.13041800 0.08020700 -0.01116800
v 0.13051500 0.08005400 -0.01116800
v 0.13054200 0.08021300 -0.01116800
v 0.13056900 0.08024400 -0.01116800
v 0.13057700 0.08033100 -0.01116800
v 0.13057700 0.08100200 -0.01116800
v 0.13057700 0.08087900 -0.01116800
v 0.13057700 0.08132900 -0.01116800
v 0.13059200 0.08006000 -0.01116800
v 0.13064900 0.08008100 -0.01116800
v 0.13068900 0.08011300 -0.01116800
v 0.13071600 0.08015200 -0.01116800
v 0.13073100 0.08022200 -0.01116800
v 0.13073500 0.08034000 -0.01116800
v 0.13073500 0.08123300 -0.01116800
v 0.13041800 0.08100200 -0.01116800
v 0.13041800 0.08087900 -0.01116800
v 0.13010400 0.08006500 -0.01116800
v 0.13010400 0.08089400 -0.01116800
v 0.13010400 0.08057800 -0.01116800
v 0.13010400 0.08135800 -0.01116800
v 0.13026300 0.08006500 -0.01116800
v 0.13026300 0.08135800 -0.01116800
v 0.12950100 0.08006500 -0.01116800
v 0.12950900 0.08078000 -0.01116800
v 0.12950100 0.08065900 -0.01116800
v 0.12953400 0.08086800 -0.01116800
v 0.12957700 0.08093300 -0.01116800
v 0.12964300 0.08098300 -0.01116800
v 0.12965900 0.08006500 -0.01116800
v 0.12965900 0.08065900 -0.01116800
v 0.12967200 0.08076200 -0.01116800
v 0.12971100 0.08083300 -0.01116800
v 0.12972700 0.08101300 -0.01116800
v 0.12977300 0.08087300 -0.01116800
v 0.12982400 0.08102300 -0.01116800
v 0.12985700 0.08088700 -0.01116800
v 0.12990500 0.08101500 -0.01116800
v 0.12992600 0.08087700 -0.01116800
v 0.12997800 0.08099000 -0.01116800
v 0.12999000 0.08085000 -0.01116800
v 0.13004200 0.08080600 -0.01116800
v 0.13004500 0.08095100 -0.01116800
v 0.13007800 0.08075100 -0.01116800
v 0.13009800 0.08067600 -0.01116800
v 0.12851100 0.08021900 -0.01116800
v 0.12845500 0.08034700 -0.01116800
v 0.12847800 0.08028000 -0.01116800
v 0.12855000 0.08016800 -0.01116800
v 0.12859900 0.08012500 -0.01116800
v 0.12861800 0.08036800 -0.01116800
v 0.12865500 0.08008900 -0.01116800
v 0.12866200 0.08028100 -0.01116800
v 0.12871700 0.08022000 -0.01116800
v 0.12871800 0.08006400 -0.01116800
v 0.12878500 0.08018600 -0.01116800
v 0.12878800 0.08005000 -0.01116800
v 0.12886500 0.08017600 -0.01116800
v 0.12886700 0.08004400 -0.01116800
v 0.12892200 0.08018000 -0.01116800
v 0.12896400 0.08005200 -0.01116800
v 0.12897300 0.08019600 -0.01116800
v 0.12901900 0.08022200 -0.01116800
v 0.12905100 0.08007600 -0.01116800
v 0.12906100 0.08025700 -0.01116800
v 0.12909500 0.08030300 -0.01116800
v 0.12912100 0.08035700 -0.01116800
v 0.12912700 0.08011500 -0.01116800
v 0.12914000 0.08042000 -0.01116800
v 0.12914800 0.08049400 -0.01116800
v 0.12919100 0.08089300 -0.01116800
v 0.12919200 0.08017200 -0.01116800
v 0.12924400 0.08082100 -0.01116800
v 0.12924500 0.08024100 -0.01116800
v 0.12928200 0.08073600 -0.01116800
v 0.12928200 0.08032300 -0.01116800
v 0.12930400 0.08063700 -0.01116800
v 0.12930400 0.08041900 -0.01116800
v 0.12931200 0.08052700 -0.01116800
v 0.12845000 0.08049400 -0.01116800
v 0.12845700 0.08064500 -0.01116800
v 0.12845000 0.08053600 -0.01116800
v 0.12847900 0.08074200 -0.01116800
v 0.12851600 0.08082500 -0.01116800
v 0.12856800 0.08089600 -0.01116800
v 0.12861700 0.08062400 -0.01116800
v 0.12914000 0.08062400 -0.01116800
v 0.12863300 0.08095100 -0.01116800
v 0.12863700 0.08072800 -0.01116800
v 0.12867700 0.08080100 -0.01116800
v 0.12870500 0.08099000 -0.01116800
v 0.12871800 0.08084100 -0.01116800
v 0.12876400 0.08087000 -0.01116800
v 0.12878500 0.08101500 -0.01116800
v 0.12881500 0.08088700 -0.01116800
v 0.12887300 0.08089300 -0.01116800
v 0.12887400 0.08102300 -0.01116800
v 0.12896800 0.08101500 -0.01116800
v 0.12897400 0.08087500 -0.01116800
v 0.12901800 0.08085100 -0.01116800
v 0.12905100 0.08099000 -0.01116800
v 0.12905700 0.08082000 -0.01116800
v 0.12909000 0.08078000 -0.01116800
v 0.12911500 0.08073400 -0.01116800
v 0.12912500 0.08095000 -0.01116800
v 0.12737800 0.08006500 -0.01116800
v 0.12724000 0.08100200 -0.01116800
v 0.12708500 0.08100200 -0.01116800
v 0.12740000 0.08046100 -0.01116800
v 0.12745400 0.08028000 -0.01116800
v 0.12754200 0.08006500 -0.01116800
v 0.12750000 0.08046000 -0.01116800
v 0.12764100 0.08100200 -0.01116800
v 0.12769200 0.08062600 -0.01116800
v 0.12772700 0.08078500 -0.01116800
v 0.12780400 0.08100200 -0.01116800
v 0.12791700 0.08006500 -0.01116800
v 0.12795200 0.08045400 -0.01116800
v 0.12800100 0.08026100 -0.01116800
v 0.12808400 0.08006500 -0.01116800
v 0.12805600 0.08046200 -0.01116800
v 0.12820600 0.08100200 -0.01116800
v 0.12836900 0.08100200 -0.01116800
v 0.12625500 0.08006500 -0.01116800
v 0.12625500 0.08082700 -0.01116800
v 0.12625500 0.08067500 -0.01116800
v 0.12625500 0.08135800 -0.01116800
v 0.12642500 0.08006500 -0.01116800
v 0.12642500 0.08135800 -0.01116800
v 0.12558300 0.08082700 -0.01116800
v 0.12558300 0.08067500 -0.01116800
v 0.12558300 0.08006500 -0.01116800
v 0.12541200 0.08135800 -0.01116800
v 0.12541200 0.08006500 -0.01116800
v 0.12558300 0.08135800 -0.01116800
v 0.12434300 0.08038600 -0.01116800
v 0.12433800 0.08065300 -0.01116800
v 0.12433000 0.08054800 -0.01116800
v 0.12436000 0.08074600 -0.01116800
v 0.12438400 0.08026300 -0.01116800
v 0.12439800 0.08082700 -0.01116800
v 0.12445100 0.08017100 -0.01116800
v 0.12445200 0.08089700 -0.01116800
v 0.12449300 0.08054000 -0.01116800
v 0.12449800 0.08045300 -0.01116800
v 0.12451200 0.08037800 -0.01116800
v 0.12453700 0.08031600 -0.01116800
v 0.12454100 0.08010200 -0.01116800
v 0.12457200 0.08026500 -0.01116800
v 0.12461400 0.08022600 -0.01116800
v 0.12465000 0.08005900 -0.01116800
v 0.12466000 0.08019800 -0.01116800
v 0.12471100 0.08018100 -0.01116800
v 0.12476700 0.08004400 -0.01116800
v 0.12476700 0.08017600 -0.01116800
v 0.12482500 0.08018100 -0.01116800
v 0.12486200 0.08005200 -0.01116800
v 0.12487600 0.08019800 -0.01116800
v 0.12492400 0.08022600 -0.01116800
v 0.12494600 0.08007600 -0.01116800
v 0.12496600 0.08026500 -0.01116800
v 0.12500000 0.08031500 -0.01116800
v 0.12502000 0.08011500 -0.01116800
v 0.12502400 0.08037700 -0.01116800
v 0.12503900 0.08044900 -0.01116800
v 0.12504300 0.08053400 -0.01116800
v 0.12508500 0.08017100 -0.01116800
v 0.12506200 0.08091900 -0.01116800
v 0.12512500 0.08084900 -0.01116800
v 0.12513800 0.08024000 -0.01116800
v 0.12517100 0.08076000 -0.01116800
v 0.12517600 0.08032400 -0.01116800
v 0.12519700 0.08065500 -0.01116800
v 0.12520000 0.08042300 -0.01116800
v 0.12520600 0.08053400 -0.01116800
v 0.12449800 0.08062100 -0.01116800
v 0.12451200 0.08069200 -0.01116800
v 0.12451800 0.08095200 -0.01116800
v 0.12453700 0.08075300 -0.01116800
v 0.12457200 0.08080300 -0.01116800
v 0.12459300 0.08099200 -0.01116800
v 0.12461400 0.08084200 -0.01116800
v 0.12466000 0.08087000 -0.01116800
v 0.12467500 0.08101500 -0.01116800
v 0.12471200 0.08088700 -0.01116800
v 0.12476700 0.08089200 -0.01116800
v 0.12476700 0.08102300 -0.01116800
v 0.12482500 0.08088700 -0.01116800
v 0.12485100 0.08101700 -0.01116800
v 0.12487600 0.08087000 -0.01116800
v 0.12492400 0.08084200 -0.01116800
v 0.12492800 0.08099700 -0.01116800
v 0.12496600 0.08080300 -0.01116800
v 0.12499900 0.08096400 -0.01116800
v 0.12500000 0.08075300 -0.01116800
v 0.12502400 0.08069100 -0.01116800
v 0.12503900 0.08061900 -0.01116800
v 0.12414700 0.08006500 -0.01116800
v 0.12398800 0.08135800 -0.01116800
v 0.12398800 0.08006500 -0.01116800
v 0.12414700 0.08135800 -0.01116800
v 0.12374600 0.08006500 -0.01116800
v 0.12358800 0.08135800 -0.01116800
v 0.12358800 0.08006500 -0.01116800
v 0.12374600 0.08135800 -0.01116800
v 0.12273100 0.08018100 -0.01116800
v 0.12274400 0.08047800 -0.01116800
v 0.12274400 0.08070100 -0.01116800
v 0.12275100 0.08038600 -0.01116800
v 0.12277000 0.08031900 -0.01116800
v 0.12281400 0.08025700 -0.01116800
v 0.12281800 0.08011800 -0.01116800
v 0.12287500 0.08020900 -0.01116800
v 0.12290200 0.08007600 -0.01116800
v 0.12295200 0.08018000 -0.01116800
v 0.12298600 0.08005200 -0.01116800
v 0.12303800 0.08016900 -0.01116800
v 0.12307600 0.08004400 -0.01116800
v 0.12312000 0.08018000 -0.01116800
v 0.12314900 0.08005000 -0.01116800
v 0.12317900 0.08021100 -0.01116800
v 0.12321200 0.08006400 -0.01116800
v 0.12321400 0.08025900 -0.01116800
v 0.12322600 0.08031800 -0.01116800
v 0.12326700 0.08008800 -0.01116800
v 0.12322900 0.08055900 -0.01116800
v 0.12328300 0.08052900 -0.01116800
v 0.12331300 0.08012100 -0.01116800
v 0.12332900 0.08049000 -0.01116800
v 0.12335000 0.08016000 -0.01116800
v 0.12336400 0.08043900 -0.01116800
v 0.12337500 0.08020600 -0.01116800
v 0.12338800 0.08037800 -0.01116800
v 0.12339000 0.08025700 -0.01116800
v 0.12339600 0.08031200 -0.01116800
v 0.12258400 0.08045800 -0.01116800
v 0.12259200 0.08081600 -0.01116800
v 0.12258400 0.08067000 -0.01116800
v 0.12261100 0.08087600 -0.01116800
v 0.12257500 0.08017800 -0.01116800
v 0.12264200 0.08092300 -0.01116800
v 0.12268600 0.08096300 -0.01116800
v 0.12269900 0.08006500 -0.01116800
v 0.12255900 0.08012100 -0.01116800
v 0.12253400 0.08006500 -0.01116800
v 0.12272000 0.08011900 -0.01116800
v 0.12275200 0.08099400 -0.01116800
v 0.12275500 0.08078400 -0.01116800
v 0.12278900 0.08083800 -0.01116800
v 0.12283700 0.08101500 -0.01116800
v 0.12286500 0.08087900 -0.01116800
v 0.12294600 0.08102300 -0.01116800
v 0.12296900 0.08089200 -0.01116800
v 0.12305900 0.08101500 -0.01116800
v 0.12306700 0.08088100 -0.01116800
v 0.12313400 0.08085200 -0.01116800
v 0.12315900 0.08099000 -0.01116800
v 0.12318200 0.08079900 -0.01116800
v 0.12321300 0.08071300 -0.01116800
v 0.12323900 0.08095000 -0.01116800
v 0.12329800 0.08089600 -0.01116800
v 0.12334100 0.08082500 -0.01116800
v 0.12336800 0.08073400 -0.01116800
v 0.12274400 0.08053600 -0.01116800
v 0.12274400 0.08065900 -0.01116800
v 0.12285300 0.08050300 -0.01116800
v 0.12286100 0.08063000 -0.01116800
v 0.12300400 0.08047500 -0.01116800
v 0.12302800 0.08060500 -0.01116800
v 0.12314200 0.08044400 -0.01116800
v 0.12316800 0.08058200 -0.01116800
v 0.12317800 0.08042300 -0.01116800
v 0.12320500 0.08039300 -0.01116800
v 0.12322100 0.08035700 -0.01116800
v 0.12218000 0.08006500 -0.01116800
v 0.12219600 0.08086800 -0.01116800
v 0.12218000 0.08057700 -0.01116800
v 0.12233800 0.08006500 -0.01116800
v 0.12219600 0.08100200 -0.01116800
v 0.12233800 0.08100200 -0.01116800
v 0.12157700 0.08006500 -0.01116800
v 0.12158700 0.08079600 -0.01116800
v 0.12157700 0.08064100 -0.01116800
v 0.12160600 0.08085900 -0.01116800
v 0.12163600 0.08091300 -0.01116800
v 0.12168000 0.08095800 -0.01116800
v 0.12173600 0.08006500 -0.01116800
v 0.12173600 0.08063600 -0.01116800
v 0.12174200 0.08072000 -0.01116800
v 0.12174300 0.08099300 -0.01116800
v 0.12175500 0.08078000 -0.01116800
v 0.12178100 0.08082400 -0.01116800
v 0.12181600 0.08101500 -0.01116800
v 0.12182000 0.08085600 -0.01116800
v 0.12187200 0.08087900 -0.01116800
v 0.12189800 0.08102300 -0.01116800
v 0.12193100 0.08088500 -0.01116800
v 0.12199000 0.08101300 -0.01116800
v 0.12202500 0.08087000 -0.01116800
v 0.12207000 0.08098400 -0.01116800
v 0.12210700 0.08082100 -0.01116800
v 0.12213800 0.08093700 -0.01116800
v 0.12213800 0.08078200 -0.01116800
v 0.12216200 0.08072800 -0.01116800
v 0.12217500 0.08065900 -0.01116800
v 0.12074300 0.08068700 -0.01116800
v 0.12073800 0.08089400 -0.01116800
v 0.12073000 0.08060900 -0.01116800
v 0.12076700 0.08075000 -0.01116800
v 0.12078600 0.08094600 -0.01116800
v 0.12080000 0.08080100 -0.01116800
v 0.12083800 0.08084100 -0.01116800
v 0.12084600 0.08098800 -0.01116800
v 0.12088100 0.08087000 -0.01116800
v 0.12091600 0.08101400 -0.01116800
v 0.12093000 0.08088700 -0.01116800
v 0.12098100 0.08089200 -0.01116800
v 0.12099700 0.08102300 -0.01116800
v 0.12103200 0.08088700 -0.01116800
v 0.12107800 0.08087000 -0.01116800
v 0.12110600 0.08100700 -0.01116800
v 0.12112000 0.08084300 -0.01116800
v 0.12115800 0.08080500 -0.01116800
v 0.12118800 0.08075700 -0.01116800
v 0.12120600 0.08096300 -0.01116800
v 0.12121100 0.08069300 -0.01116800
v 0.12122400 0.08062000 -0.01116800
v 0.12127800 0.08018100 -0.01116800
v 0.12122900 0.08053300 -0.01116800
v 0.12128700 0.08088800 -0.01116800
v 0.12134100 0.08027800 -0.01116800
v 0.12134500 0.08078700 -0.01116800
v 0.12137900 0.08039800 -0.01116800
v 0.12138000 0.08066700 -0.01116800
v 0.12139200 0.08053300 -0.01116800
v 0.12058000 0.08006500 -0.01116800
v 0.12072500 0.08052000 -0.01116800
v 0.12058000 0.08135800 -0.01116800
v 0.12072700 0.08006500 -0.01116800
v 0.12072700 0.08018400 -0.01116800
v 0.12073000 0.08043900 -0.01116800
v 0.12074300 0.08036800 -0.01116800
v 0.12076500 0.08030900 -0.01116800
v 0.12077700 0.08012300 -0.01116800
v 0.12079800 0.08026000 -0.01116800
v 0.12083600 0.08022300 -0.01116800
v 0.12083800 0.08008000 -0.01116800
v 0.12087800 0.08019700 -0.01116800
v 0.12090900 0.08005400 -0.01116800
v 0.12092400 0.08018100 -0.01116800
v 0.12097400 0.08017600 -0.01116800
v 0.12098900 0.08004400 -0.01116800
v 0.12102400 0.08018100 -0.01116800
v 0.12107000 0.08019800 -0.01116800
v 0.12109600 0.08006000 -0.01116800
v 0.12111400 0.08022600 -0.01116800
v 0.12115300 0.08026400 -0.01116800
v 0.12118600 0.08031500 -0.01116800
v 0.12119500 0.08010600 -0.01116800
v 0.12120900 0.08037600 -0.01116800
v 0.12122400 0.08044900 -0.01116800
v 0.12073800 0.08135800 -0.01116800
v -0.13284800 0.07405900 0.01006100
v -0.06207000 -0.07321200 0.01006100
v -0.06207000 0.07405900 0.01006100
v -0.13284800 -0.07321200 0.01006100
v -0.00684600 -0.03518400 0.00271500
v -0.03401500 -0.03518400 0.01006100
v -0.00684600 -0.03518400 0.01006100
v -0.03401500 -0.03518400 0.00271500
v -0.03401500 -0.06981500 0.00271500
v -0.03401500 -0.06981500 0.01006100
v -0.00684600 -0.06981500 0.01006100
v -0.00684600 -0.06981500 0.00271500
v 0.04147300 -0.01445000 0.01006100
v 0.04147300 0.02041500 0.00271500
v 0.04147300 0.02041500 0.01006100
v 0.04147300 -0.01445000 0.00271500
v 0.01780200 0.02041500 0.01006100
v 0.01780200 0.02041500 0.00271500
v 0.01780200 -0.01445000 0.01006100
v 0.01780200 -0.01445000 0.00271500
v 0.11100900 0.00184700 0.00271500
v 0.11100900 0.02610000 0.01006100
v 0.11100900 0.02610000 0.00271500
v 0.11100900 0.00184700 0.01006100
v 0.13059800 0.02610000 0.00271500
v 0.13059800 0.02610000 0.01006100
v 0.13059800 0.00184700 0.01006100
v 0.13059800 0.00184700 0.00271500
v -0.00638000 -0.01399300 0.01006100
v -0.00638000 0.02005500 0.00271500
v -0.00638000 0.02005500 0.01006100
v -0.00638000 -0.01399300 0.00271500
v -0.03401500 -0.01399300 0.00271500
v -0.03401500 -0.01399300 0.01006100
v -0.03401500 0.02005500 0.01006100
v -0.03401500 0.02005500 0.00271500
v -0.00626300 0.04289600 0.01006100
v -0.00626300 0.07624500 0.00271500
v -0.00626300 0.07624500 0.01006100
v -0.00626300 0.04289600 0.00271500
v -0.03401500 0.04289600 0.00271500
v -0.03401500 0.04289600 0.01006100
v -0.03401500 0.07624500 0.01006100
v -0.03401500 0.07624500 0.00271500
v 0.04228900 -0.03461600 0.00271500
v 0.01780200 -0.03461600 0.01006100
v 0.04228900 -0.03461600 0.01006100
v 0.01780200 -0.03461600 0.00271500
v 0.04228900 -0.07064700 0.01006100
v 0.04228900 -0.07064700 0.00271500
v 0.01780200 -0.07064700 0.00271500
v 0.01780200 -0.07064700 0.01006100
v 0.09101700 -0.03472600 0.00271500
v 0.06641400 -0.03472600 0.01006100
v 0.09101700 -0.03472600 0.01006100
v 0.06641400 -0.03472600 0.00271500
v 0.06641400 -0.06865800 0.00271500
v 0.06641400 -0.06865800 0.01006100
v 0.09101700 -0.06865800 0.01006100
v 0.09101700 -0.06865800 0.00271500
v 0.04228900 0.07644400 0.00271500
v 0.01780200 0.07644400 0.01006100
v 0.04228900 0.07644400 0.01006100
v 0.01780200 0.07644400 0.00271500
v 0.01780200 0.04193000 0.00271500
v 0.01780200 0.04193000 0.01006100
v 0.04228900 0.04193000 0.01006100
v 0.04228900 0.04193000 0.00271500
v 0.13142300 -0.01192500 0.00271500
v 0.10908500 -0.01192500 0.01006100
v 0.13142300 -0.01192500 0.01006100
v 0.10908500 -0.01192500 0.00271500
v 0.13170600 -0.01192500 0.00271500
v 0.13170600 -0.01192500 0.01006100
v 0.10908500 -0.06731200 0.00271500
v 0.10908500 -0.06731200 0.01006100
v 0.13170600 -0.06731200 0.01006100
v 0.13142300 -0.06731200 0.01006100
v 0.13142300 -0.06731200 0.00271500
v 0.13092300 0.03889300 0.01006100
v 0.13092300 0.07702300 0.00271500
v 0.13092300 0.07702300 0.01006100
v 0.13092300 0.03889300 0.00271500
v 0.10923400 0.07702300 0.01006100
v 0.10923400 0.07702300 0.00271500
v 0.10923400 0.03889300 0.01006100
v 0.10923400 0.03889300 0.00271500
v 0.08810300 0.04102400 0.01006100
v 0.08810300 0.07611700 0.00271500
v 0.08810300 0.07611700 0.01006100
v 0.08810300 0.04102400 0.00271500
v 0.06641400 0.04102400 0.00271500
v 0.06641400 0.04102400 0.01006100
v 0.06641400 0.07611700 0.01006100
v 0.06641400 0.07611700 0.00271500
v 0.08985200 -0.01573600 0.01006100
v 0.08985200 0.01912800 0.00271500
v 0.08985200 0.01912800 0.01006100
v 0.08985200 -0.01573600 0.00271500
v 0.06641400 0.01912800 0.01006100
v 0.06641400 0.01912800 0.00271500
v 0.06641400 -0.01573600 0.01006100
v 0.06641400 -0.01573600 0.00271500
v 0.13886500 0.08442900 0.01006100
v 0.13886500 -0.08499800 0.01006100
v 0.13142300 0.07916000 0.01006100
v -0.04075700 0.07916000 0.01006100
v -0.05432400 0.07963800 0.01006100
v -0.04075700 -0.07353800 0.01006100
v -0.14119400 0.07963800 0.01006100
v -0.15381200 0.08442900 0.01006100
v -0.14119400 -0.07905900 0.01006100
v 0.13142300 -0.07353800 0.01006100
v -0.05432400 -0.07905900 0.01006100
v -0.15381200 -0.08499800 0.01006100
v 0.13886500 0.08442900 -0.01116100
v -0.15381200 0.08442900 -0.01116100
v -0.15381200 -0.08499800 -0.01116100
v 0.13886500 -0.08499800 -0.01116100
v 0.13170600 -0.06731200 0.00271500
v 0.13142300 -0.07353800 0.00271500
v -0.04075700 -0.07353800 0.00271500
v -0.04075700 0.07916000 0.00271500
v 0.13142300 0.07916000 0.00271500
vn 0.00000000 0.00000000 1.00000000
vn 0.00000000 0.00000000 1.00000000
vn 0.00000000 0.00000000 1.00000000
vn 0.00000000 0.00000000 1.00000000
vn 0.00000000 0.00000000 1.00000000
vn 0.00000000 0.00000000 1.00000000
vn 0.00000000 0.00000000 1.00000000
vn 0.00000000 0.00000000 1.00000000
vn 0.00000000 0.00000000 1.00000000
vn 0.00000000 0.00000000 1.00000000
vn 0.00000000 0.00000000 1.00000000
vn 0.00000000 0.00000000 1.00000000
vn 0.00000000 0.00000000 1.00000000
vn 0.00000000 0.00000000 1.00000000
vn 0.00000000 0.00000000 1.00000000
vn 0.00000000 0.00000000 1.00000000
vn 0.00000000 0.00000000 1.00000000
vn 0.00000000 0.00000000 1.00000000
vn 0.00000000 0.00000000 1.00000000
vn 0.00000000 0.00000000 1.00000000
vn 0.00000000 0.00000000 1.00000000
vn 0.00000000 0.00000000 1.00000000
vn 0.00000000 0.00000000 1.00000000
vn 0.00000000 0.00000000 1.00000000
vn 0.00000000 0.00000000 1.00000000
vn 0.00000000 0.00000000 1.00000000
vn 0.00000000 0.00000000 1.00000000
vn 0.00000000 0.00000000 1.00000000
vn 0.00000000 0.00000000 1.00000000
vn 0.00000000 0.00000000 1.00000000
vn 0.00000000 0.00000000 1.00000000
vn 0.00000000 0.00000000 1.00000000
vn 0.00000000 0.00000000 1.00000000
vn 0.00000000 0.00000000 1.00000000
vn 0.00000000 0.00000000 1.00000000
vn 0.00000000 0.00000000 1.00000000
vn 0.00000000 0.00000000 1.00000000
vn 0.00000000 0.00000000 1.00000000
vn 0.00000000 0.00000000 1.00000000
vn 0.00000000 0.00000000 1.00000000
vn 0.00000000 0.00000000 1.00000000
vn 0.00000000 0.00000000 1.00000000
vn 0.00000000 0.00000000 1.00000000
vn 0.00000000 0.00000000 1.00000000
vn 0.00000000 0.00000000 1.00000000
vn 0.00000000 0.00000000 1.00000000
vn 0.00000000 0.00000000 1.00000000
vn 0.00000000 0.00000000 1.00000000
vn 0.00000000 0.00000000 1.00000000
vn 0.00000000 0.00000000 1.00000000
vn 0.00000000 0.00000000 1.00000000
vn 0.00000000 0.00000000 1.00000000
vn 0.00000000 0.00000000 1.00000000
vn 0.00000000 0.00000000 1.00000000
vn 0.00000000 0.00000000 1.00000000
vn 0.00000000 0.00000000 1.00000000
vn 0.00000000 0.00000000 1.00000000
vn 0.00000000 0.00000000 1.00000000
vn 0.00000000 0.00000000 1.00000000
vn 0.00000000 0.00000000 1.00000000
vn 0.00000000 0.00000000 1.00000000
vn 0.00000000 0.00000000 1.00000000
vn 0.00000000 0.00000000 1.00000000
vn 0.00000000 0.00000000 1.00000000
vn 0.00000000 0.00000000 1.00000000
vn 0.00000000 0.00000000 1.00000000
vn 0.00000000 0.00000000 1.00000000
vn 0.00000000 0.00000000 1.00000000
vn 0.00000000 0.00000000 1.00000000
vn 0.00000000 0.00000000 1.00000000
vn 0.00000000 0.00000000 1.00000000
vn 0.00000000 0.00000000 1.00000000
vn 0.00000000 0.00000000 1.00000000
vn 0.00000000 0.00000000 1.00000000
vn 0.00000000 0.00000000 1.00000000
vn 0.00000000 0.00000000 1.00000000
vn 0.00000000 0.00000000 1.00000000
vn 0.00000000 0.00000000 1.00000000
vn 0.00000000 0.00000000 1.00000000
vn 0.00000000 0.00000000 1.00000000
vn 0.00000000 0.00000000 1.00000000
vn 0.00000000 0.00000000 1.00000000
vn 0.00000000 0.00000000 1.00000000
vn 0.00000000 0.00000000 1.00000000
vn 0.00000000 0.00000000 1.00000000
vn 0.00000000 0.00000000 1.00000000
vn 0.00000000 0.00000000 1.00000000
vn 0.00000000 0.00000000 1.00000000
vn 0.00000000 0.00000000 1.00000000
vn 0.00000000 0.00000000 1.00000000
vn 0.00000000 0.00000000 1.00000000
vn 0.00000000 0.00000000 1.00000000
vn 0.00000000 0.00000000 1.00000000
vn 0.00000000 0.00000000 1.00000000
vn 0.00000000 0.00000000 1.00000000
vn 0.00000000 0.00000000 1.00000000
vn 0.00000000 0.00000000 1.00000000
vn 0.00000000 0.00000000 1.00000000
vn 0.00000000 0.00000000 1.00000000
vn 0.00000000 0.00000000 1.00000000
vn 0.00000000 0.00000000 1.00000000
vn 0.00000000 0.00000000 1.00000000
vn 0.00000000 0.00000000 1.00000000
vn 0.00000000 0.00000000 1.00000000
vn 0.00000000 0.00000000 1.00000000
vn 0.00000000 0.00000000 1.00000000
vn 0.00000000 0.00000000 1.00000000
vn 0.00000000 0.00000000 1.00000000
vn 0.00000000 0.00000000 1.00000000
vn 0.00000000 0.00000000 1.00000000
vn 0.00000000 0.00000000 1.00000000
vn 0.00000000 0.00000000 1.00000000
vn 0.00000000 0.00000000 1.00000000
vn 0.00000000 0.00000000 1.00000000
vn 0.00000000 0.00000000 1.00000000
vn 0.00000000 0.00000000 1.00000000
vn 0.00000000 0.00000000 1.00000000
vn 0.00000000 0.00000000 1.00000000
vn 0.00000000 0.00000000 1.00000000
vn 0.00000000 0.00000000 1.00000000
vn 0.00000000 0.00000000 1.00000000
vn 0.00000000 0.00000000 1.00000000
vn 0.00000000 0.00000000 1.00000000
vn 0.00000000 0.00000000 1.00000000
vn 0.00000000 0.00000000 1.00000000
vn 0.00000000 0.00000000 1.00000000
vn 0.00000000 0.00000000 1.00000000
vn 0.00000000 0.00000000 1.00000000
vn 0.00000000 0.00000000 1.00000000
vn 0.00000000 0.00000000 1.00000000
vn 0.00000000 0.00000000 1.00000000
vn 0.00000000 0.00000000 1.00000000
vn 0.00000000 0.00000000 1.00000000
vn 0.00000000 0.00000000 1.00000000
vn 0.00000000 0.00000000 1.00000000
vn 0.00000000 0.00000000 1.00000000
vn 0.00000000 0.00000000 1.00000000
vn 0.00000000 0.00000000 1.00000000
vn 0.00000000 0.00000000 1.00000000
vn 0.00000000 0.00000000 1.00000000
vn 0.00000000 0.00000000 1.00000000
vn 0.00000000 0.00000000 1.00000000
vn 0.00000000 0.00000000 1.00000000
vn 0.00000000 0.00000000 1.00000000
vn 0.00000000 0.00000000 1.00000000
vn 0.00000000 0.00000000 1.00000000
vn 0.00000000 0.00000000 1.00000000
vn 0.00000000 0.00000000 1.00000000
vn 0.00000000 0.00000000 1.00000000
vn 0.00000000 0.00000000 1.00000000
vn 0.00000000 0.00000000 1.00000000
vn 0.00000000 0.00000000 1.00000000
vn 0.00000000 0.00000000 1.00000000
vn 0.00000000 0.00000000 1.00000000
vn 0.00000000 0.00000000 1.00000000
vn 0.00000000 0.00000000 1.00000000
vn 0.00000000 0.00000000 1.00000000
vn 0.00000000 0.00000000 1.00000000
vn 0.00000000 0.00000000 1.00000000
vn 0.00000000 0.00000000 1.00000000
vn 0.00000000 0.00000000 1.00000000
vn 0.00000000 0.00000000 1.00000000
vn 0.00000000 0.00000000 1.00000000
vn 0.00000000 0.00000000 1.00000000
vn 0.00000000 0.00000000 1.00000000
vn 0.00000000 0.00000000 1.00000000
vn 0.00000000 0.00000000 1.00000000
vn 0.00000000 0.00000000 1.00000000
vn 0.00000000 0.00000000 1.00000000
vn 0.00000000 0.00000000 1.00000000
vn 0.00000000 0.00000000 1.00000000
vn 0.00000000 0.00000000 1.00000000
vn 0.00000000 0.00000000 1.00000000
vn 0.00000000 0.00000000 1.00000000
vn 0.00000000 0.00000000 1.00000000
vn 0.00000000 0.00000000 1.00000000
vn 0.00000000 0.00000000 1.00000000
vn 0.00000000 0.00000000 1.00000000
vn 0.00000000 0.00000000 1.00000000
vn 0.00000000 0.00000000 1.00000000
vn 0.00000000 0.00000000 1.00000000
vn 0.00000000 0.00000000 1.00000000
vn 0.00000000 0.00000000 1.00000000
vn 0.00000000 0.00000000 1.00000000
vn 0.00000000 0.00000000 1.00000000
vn 0.00000000 0.00000000 1.00000000
vn 0.00000000 0.00000000 1.00000000
vn 0.00000000 0.00000000 1.00000000
vn 0.00000000 0.00000000 1.00000000
vn 0.00000000 0.00000000 1.00000000
vn 0.00000000 0.00000000 1.00000000
vn 0.00000000 0.00000000 1.00000000
vn 0.00000000 0.00000000 1.00000000
vn 0.00000000 0.00000000 1.00000000
vn 0.00000000 0.00000000 1.00000000
vn 0.00000000 0.00000000 1.00000000
vn 0.00000000 0.00000000 1.00000000
vn 0.00000000 0.00000000 1.00000000
vn 0.00000000 0.00000000 1.00000000
vn 0.00000000 0.00000000 1.00000000
vn 0.00000000 0.00000000 1.00000000
vn 0.00000000 0.00000000 1.00000000
vn 0.00000000 0.00000000 1.00000000
vn 0.00000000 0.00000000 1.00000000
vn 0.00000000 0.00000000 1.00000000
vn 0.00000000 0.00000000 1.00000000
vn 0.00000000 0.00000000 1.00000000
vn 0.00000000 0.00000000 1.00000000
vn 0.00000000 0.00000000 1.00000000
vn 0.00000000 0.00000000 1.00000000
vn 0.00000000 0.00000000 1.00000000
vn 0.00000000 0.00000000 1.00000000
vn 0.00000000 0.00000000 1.00000000
vn 0.00000000 0.00000000 1.00000000
vn 0.00000000 0.00000000 1.00000000
vn 0.00000000 0.00000000 1.00000000
vn 0.00000000 0.00000000 1.00000000
vn 0.00000000 0.00000000 1.00000000
vn 0.00000000 0.00000000 1.00000000
vn 0.00000000 0.00000000 1.00000000
vn 0.00000000 0.00000000 1.00000000
vn 0.00000000 0.00000000 1.00000000
vn 0.00000000 0.00000000 1.00000000
vn 0.00000000 0.00000000 1.00000000
vn 0.00000000 0.00000000 1.00000000
vn 0.00000000 0.00000000 1.00000000
vn 0.00000000 0.00000000 1.00000000
vn 0.00000000 0.00000000 1.00000000
vn 0.00000000 0.00000000 1.00000000
vn 0.00000000 0.00000000 1.00000000
vn 0.00000000 0.00000000 1.00000000
vn 0.00000000 0.00000000 1.00000000
vn 0.00000000 0.00000000 1.00000000
vn 0.00000000 0.00000000 1.00000000
vn 0.00000000 0.00000000 1.00000000
vn 0.00000000 0.00000000 1.00000000
vn 0.00000000 0.00000000 1.00000000
vn 0.00000000 0.00000000 1.00000000
vn 0.00000000 0.00000000 1.00000000
vn 0.00000000 0.00000000 1.00000000
vn 0.00000000 0.00000000 1.00000000
vn 0.00000000 0.00000000 1.00000000
vn 0.00000000 0.00000000 1.00000000
vn 0.00000000 0.00000000 1.00000000
vn 0.00000000 0.00000000 1.00000000
vn 0.00000000 0.00000000 1.00000000
vn 0.00000000 0.00000000 1.00000000
vn 0.00000000 0.00000000 1.00000000
vn 0.00000000 0.00000000 1.00000000
vn 0.00000000 0.00000000 1.00000000
vn 0.00000000 0.00000000 1.00000000
vn 0.00000000 0.00000000 1.00000000
vn 0.00000000 0.00000000 1.00000000
vn 0.00000000 0.00000000 1.00000000
vn 0.00000000 0.00000000 1.00000000
vn 0.00000000 0.00000000 1.00000000
vn 0.00000000 0.00000000 1.00000000
vn 0.00000000 0.00000000 1.00000000
vn 0.00000000 0.00000000 1.00000000
vn 0.00000000 0.00000000 1.00000000
vn 0.00000000 0.00000000 1.00000000
vn 0.00000000 0.00000000 1.00000000
vn 0.00000000 0.00000000 1.00000000
vn 0.00000000 0.00000000 1.00000000
vn 0.00000000 0.00000000 1.00000000
vn 0.00000000 0.00000000 1.00000000
vn 0.00000000 0.00000000 1.00000000
vn 0.00000000 0.00000000 1.00000000
vn 0.00000000 0.00000000 1.00000000
vn 0.00000000 0.00000000 1.00000000
vn 0.00000000 0.00000000 1.00000000
vn 0.00000000 0.00000000 1.00000000
vn 0.00000000 0.00000000 1.00000000
vn 0.00000000 0.00000000 1.00000000
vn 0.00000000 0.00000000 1.00000000
vn 0.00000000 0.00000000 1.00000000
vn 0.00000000 0.00000000 1.00000000
vn 0.00000000 0.00000000 -1.00000000
vn 0.00000000 0.00000000 1.00000000
vn 0.00000000 0.00000000 1.00000000
vn 0.00000000 0.00000000 1.00000000
vn 0.00000000 0.00000000 1.00000000
vn 0.00000000 0.00000000 1.00000000
vn 0.00000000 0.00000000 1.00000000
vn 0.00000000 0.00000000 1.00000000
vn 0.00000000 0.00000000 1.00000000
vn 0.00000000 0.00000000 1.00000000
vn 0.00000000 0.00000000 1.00000000
vn 0.00000000 0.00000000 1.00000000
vn 0.00000000 0.00000000 1.00000000
vn 0.00000000 0.00000000 1.00000000
vn 0.00000000 0.00000000 1.00000000
vn 0.00000000 0.00000000 1.00000000
vn 0.00000000 0.00000000 1.00000000
vn 0.00000000 0.00000000 1.00000000
vn 0.00000000 0.00000000 1.00000000
vn 0.00000000 0.00000000 1.00000000
vn 0.00000000 0.00000000 1.00000000
vn 0.00000000 0.00000000 1.00000000
vn 0.00000000 0.00000000 1.00000000
vn 0.00000000 0.00000000 1.00000000
vn 0.00000000 0.00000000 1.00000000
vn 0.00000000 0.00000000 1.00000000
vn 0.00000000 0.00000000 1.00000000
vn 0.00000000 0.00000000 1.00000000
vn 0.00000000 0.00000000 1.00000000
vn 0.00000000 0.00000000 1.00000000
vn 0.00000000 0.00000000 1.00000000
vn 0.00000000 0.00000000 1.00000000
vn 0.00000000 0.00000000 1.00000000
vn 0.00000000 0.00000000 1.00000000
vn 0.00000000 0.00000000 1.00000000
vn 0.00000000 0.00000000 1.00000000
vn 0.00000000 0.00000000 1.00000000
vn 0.00000000 0.00000000 1.00000000
vn 0.00000000 0.00000000 1.00000000
vn 0.00000000 0.00000000 1.00000000
vn 0.00000000 0.00000000 1.00000000
vn 0.00000000 0.00000000 1.00000000
vn 0.00000000 0.00000000 1.00000000
vn 0.00000000 0.00000000 1.00000000
vn 0.00000000 0.00000000 1.00000000
vn 0.00000000 0.00000000 1.00000000
vn 0.00000000 0.00000000 1.00000000
vn 0.00000000 0.00000000 1.00000000
vn 0.00000000 0.00000000 1.00000000
vn 0.00000000 0.00000000 1.00000000
vn 0.00000000 0.00000000 1.00000000
vn 0.00000000 0.00000000 1.00000000
vn 0.00000000 0.00000000 1.00000000
vn 0.00000000 0.00000000 1.00000000
vn 0.00000000 0.00000000 1.00000000
vn 0.00000000 0.00000000 1.00000000
vn 0.00000000 0.00000000 1.00000000
vn 0.00000000 0.00000000 1.00000000
vn 0.00000000 0.00000000 1.00000000
vn 0.00000000 0.00000000 1.00000000
vn 0.00000000 0.00000000 1.00000000
vn 0.00000000 0.00000000 1.00000000
vn 0.00000000 0.00000000 1.00000000
vn 0.00000000 0.00000000 1.00000000
vn 0.00000000 0.00000000 1.00000000
vn 0.00000000 0.00000000 1.00000000
vn 0.00000000 0.00000000 1.00000000
vn 0.00000000 0.00000000 1.00000000
vn 0.00000000 0.00000000 1.00000000
vn 0.00000000 0.00000000 1.00000000
vn 0.00000000 0.00000000 1.00000000
vn 0.00000000 0.00000000 1.00000000
vn 0.00000000 0.00000000 1.00000000
vn 0.00000000 0.00000000 1.00000000
vn 0.00000000 0.00000000 1.00000000
vn 0.00000000 0.00000000 1.00000000
vn 0.00000000 0.00000000 1.00000000
vn 0.00000000 0.00000000 1.00000000
vn 0.00000000 0.00000000 1.00000000
vn 0.00000000 0.00000000 1.00000000
vn 0.00000000 0.00000000 1.00000000
vn 0.00000000 0.00000000 1.00000000
vn 0.00000000 0.00000000 1.00000000
vn 0.00000000 0.00000000 1.00000000
vn 0.00000000 0.00000000 1.00000000
vn 0.00000000 0.00000000 1.00000000
vn 0.00000000 0.00000000 1.00000000
vn 0.00000000 0.00000000 1.00000000
vn 0.00000000 0.00000000 1.00000000
vn 0.00000000 0.00000000 1.00000000
vn 0.00000000 0.00000000 1.00000000
vn 0.00000000 0.00000000 1.00000000
vn 0.00000000 0.00000000 1.00000000
vn 0.00000000 0.00000000 1.00000000
vn 0.00000000 0.00000000 1.00000000
vn 0.00000000 0.00000000 1.00000000
vn 0.00000000 0.00000000 1.00000000
vn 0.00000000 0.00000000 1.00000000
vn 0.00000000 0.00000000 1.00000000
vn 0.00000000 0.00000000 1.00000000
vn 0.00000000 0.00000000 1.00000000
vn 0.00000000 0.00000000 1.00000000
vn 0.00000000 0.00000000 1.00000000
vn 0.00000000 0.00000000 1.00000000
vn 0.00000000 0.00000000 1.00000000
vn 0.00000000 0.00000000 1.00000000
vn 0.00000000 0.00000000 1.00000000
vn 0.00000000 0.00000000 1.00000000
vn 0.00000000 0.00000000 1.00000000
vn 0.00000000 0.00000000 1.00000000
vn 0.00000000 0.00000000 1.00000000
vn 0.00000000 0.00000000 1.00000000
vn 0.00000000 0.00000000 1.00000000
vn 0.00000000 0.00000000 1.00000000
vn 0.00000000 0.00000000 1.00000000
vn 0.00000000 0.00000000 1.00000000
vn 0.00000000 0.00000000 1.00000000
vn 0.00000000 0.00000000 1.00000000
vn 0.00000000 0.00000000 1.00000000
vn 0.00000000 0.00000000 1.00000000
vn 0.00000000 0.00000000 1.00000000
vn 0.00000000 0.00000000 1.00000000
vn 0.00000000 0.00000000 1.00000000
vn 0.00000000 0.00000000 1.00000000
vn 0.00000000 0.00000000 1.00000000
vn 0.00000000 0.00000000 1.00000000
vn 0.00000000 0.00000000 1.00000000
vn 0.00000000 0.00000000 1.00000000
vn 0.00000000 0.00000000 1.00000000
vn 0.00000000 0.00000000 1.00000000
vn 0.00000000 0.00000000 1.00000000
vn 0.00000000 0.00000000 1.00000000
vn 0.00000000 0.00000000 1.00000000
vn 0.00000000 0.00000000 1.00000000
vn 0.00000000 0.00000000 1.00000000
vn 0.00000000 0.00000000 1.00000000
vn 0.00000000 0.00000000 1.00000000
vn 0.00000000 0.00000000 1.00000000
vn 0.00000000 0.00000000 1.00000000
vn 0.00000000 0.00000000 1.00000000
vn 0.00000000 0.00000000 1.00000000
vn 0.00000000 0.00000000 1.00000000
vn 0.00000000 0.00000000 1.00000000
vn 0.00000000 0.00000000 1.00000000
vn 0.00000000 0.00000000 1.00000000
vn 0.00000000 0.00000000 1.00000000
vn 0.00000000 0.00000000 1.00000000
vn 0.00000000 0.00000000 1.00000000
vn 0.00000000 0.00000000 1.00000000
vn 0.00000000 0.00000000 1.00000000
vn 0.00000000 0.00000000 1.00000000
vn 0.00000000 0.00000000 1.00000000
vn 0.00000000 0.00000000 1.00000000
vn 0.00000000 0.00000000 1.00000000
vn 0.00000000 0.00000000 1.00000000
vn 0.00000000 0.00000000 1.00000000
vn 0.00000000 0.00000000 1.00000000
vn 0.00000000 0.00000000 1.00000000
vn 0.00000000 0.00000000 1.00000000
vn 0.00000000 0.00000000 1.00000000
vn 0.00000000 0.00000000 1.00000000
vn 0.00000000 0.00000000 1.00000000
vn 0.00000000 0.00000000 1.00000000
vn 0.00000000 0.00000000 1.00000000
vn 0.00000000 0.00000000 1.00000000
vn 0.00000000 0.00000000 1.00000000
vn 0.00000000 0.00000000 1.00000000
vn 0.00000000 0.00000000 1.00000000
vn 0.00000000 0.00000000 1.00000000
vn 0.00000000 0.00000000 1.00000000
vn 0.00000000 0.00000000 1.00000000
vn 0.00000000 0.00000000 1.00000000
vn 0.00000000 0.00000000 1.00000000
vn 0.00000000 0.00000000 1.00000000
vn 0.00000000 0.00000000 1.00000000
vn 0.00000000 0.00000000 1.00000000
vn 0.00000000 0.00000000 1.00000000
vn 0.00000000 0.00000000 1.00000000
vn 0.00000000 0.00000000 1.00000000
vn 0.00000000 0.00000000 1.00000000
vn 0.00000000 0.00000000 1.00000000
vn 0.00000000 0.00000000 1.00000000
vn 0.00000000 0.00000000 1.00000000
vn 0.00000000 0.00000000 1.00000000
vn 0.00000000 0.00000000 1.00000000
vn 0.00000000 0.00000000 1.00000000
vn 0.00000000 0.00000000 1.00000000
vn 0.00000000 0.00000000 1.00000000
vn 0.00000000 0.00000000 1.00000000
vn 0.00000000 0.00000000 1.00000000
vn 0.00000000 0.00000000 1.00000000
vn 0.00000000 0.00000000 1.00000000
vn 0.00000000 0.00000000 1.00000000
vn 0.00000000 0.00000000 1.00000000
vn 0.00000000 0.00000000 1.00000000
vn 0.00000000 0.00000000 1.00000000
vn 0.00000000 0.00000000 1.00000000
vn 0.00000000 0.00000000 1.00000000
vn 0.00000000 0.00000000 1.00000000
vn 0.00000000 0.00000000 1.00000000
vn 0.00000000 0.00000000 1.00000000
vn 0.00000000 0.00000000 1.00000000
vn 0.30151134 0.30151134 0.90453403
vn -0.57735027 0.57735027 0.57735027
vn 0.57735027 0.57735027 0.57735027
vn -0.57735027 0.57735027 0.57735027
vn -0.30151134 -0.30151134 0.90453403
vn -0.57735027 -0.57735027 0.57735027
vn 0.57735027 -0.57735027 0.57735027
vn 0.30151134 -0.30151134 0.90453403
vn 0.57735027 -0.57735027 0.57735027
vn 0.30151134 0.30151134 0.90453403
vn 0.57735027 0.57735027 0.57735027
vn 0.30151134 -0.30151134 0.90453403
vn -0.57735027 0.57735027 0.57735027
vn -0.57735027 0.57735027 0.57735027
vn -0.57735027 -0.57735027 0.57735027
vn -0.57735027 -0.57735027 0.57735027
vn -0.30151134 -0.30151134 0.90453403
vn -0.57735027 0.57735027 0.57735027
vn -0.30151134 0.30151134 0.90453403
vn -0.57735027 -0.57735027 0.57735027
vn 0.30151134 0.30151134 0.90453403
vn 0.57735027 0.57735027 0.57735027
vn 0.57735027 -0.57735027 0.57735027
vn 0.30151134 -0.30151134 0.90453403
vn 0.57735027 -0.57735027 0.57735027
vn 0.30151134 0.30151134 0.90453403
vn 0.57735027 0.57735027 0.57735027
vn 0.30151134 -0.30151134 0.90453403
vn -0.57735027 -0.57735027 0.57735027
vn -0.57735027 -0.57735027 0.57735027
vn -0.57735027 0.57735027 0.57735027
vn -0.57735027 0.57735027 0.57735027
vn 0.57735027 -0.57735027 0.57735027
vn 0.30151134 0.30151134 0.90453403
vn 0.57735027 0.57735027 0.57735027
vn 0.30151134 -0.30151134 0.90453403
vn -0.57735027 -0.57735027 0.57735027
vn -0.57735027 -0.57735027 0.57735027
vn -0.57735027 0.57735027 0.57735027
vn -0.30151134 0.30151134 0.90453403
vn 0.30151134 0.30151134 0.90453403
vn -0.57735027 0.57735027 0.57735027
vn 0.57735027 0.57735027 0.57735027
vn -0.57735027 0.57735027 0.57735027
vn 0.57735027 -0.57735027 0.57735027
vn 0.30151134 -0.30151134 0.90453403
vn -0.30151134 -0.30151134 0.90453403
vn -0.57735027 -0.57735027 0.57735027
vn 0.30151134 0.30151134 0.90453403
vn -0.57735027 0.57735027 0.57735027
vn 0.57735027 0.57735027 0.57735027
vn -0.57735027 0.57735027 0.57735027
vn -0.30151134 -0.30151134 0.90453403
vn -0.57735027 -0.57735027 0.57735027
vn 0.57735027 -0.57735027 0.57735027
vn 0.30151134 -0.30151134 0.90453403
vn 0.30151134 0.30151134 0.90453403
vn -0.57735027 0.57735027 0.57735027
vn 0.57735027 0.57735027 0.57735027
vn -0.30151134 0.30151134 0.90453403
vn -0.57735027 -0.57735027 0.57735027
vn -0.57735027 -0.57735027 0.57735027
vn 0.57735027 -0.57735027 0.57735027
vn 0.30151134 -0.30151134 0.90453403
vn -0.26726124 0.53452248 0.80178373
vn -0.57735027 0.57735027 0.57735027
vn -0.26726124 0.53452248 0.80178373
vn -0.23570226 0.23570226 0.94280904
vn 0.57735027 0.57735027 0.57735027
vn 0.23570226 0.23570226 0.94280904
vn -0.23570226 -0.23570226 0.94280904
vn -0.57735027 -0.57735027 0.57735027
vn 0.23570226 -0.23570226 0.94280904
vn -0.26726124 -0.53452248 0.80178373
vn -0.26726124 -0.53452248 0.80178373
vn 0.57735027 -0.57735027 0.57735027
vn 0.30151134 0.30151134 0.90453403
vn 0.57735027 0.57735027 0.57735027
vn 0.30151134 -0.30151134 0.90453403
vn -0.57735027 0.57735027 0.57735027
vn -0.30151134 0.30151134 0.90453403
vn -0.57735027 -0.57735027 0.57735027
vn -0.30151134 -0.30151134 0.90453403
vn 0.57735027 -0.57735027 0.57735027
vn 0.30151134 0.30151134 0.90453403
vn 0.57735027 0.57735027 0.57735027
vn 0.30151134 -0.30151134 0.90453403
vn -0.57735027 -0.57735027 0.57735027
vn -0.57735027 -0.57735027 0.57735027
vn -0.57735027 0.57735027 0.57735027
vn -0.30151134 0.30151134 0.90453403
vn 0.57735027 -0.57735027 0.57735027
vn 0.30151134 0.30151134 0.90453403
vn 0.57735027 0.57735027 0.57735027
vn 0.30151134 -0.30151134 0.90453403
vn -0.57735027 0.57735027 0.57735027
vn -0.57735027 0.57735027 0.57735027
vn -0.57735027 -0.57735027 0.57735027
vn -0.57735027 -0.57735027 0.57735027
vn 0.57735027 0.57735027 0.57735027
vn 0.57735027 -0.57735027 0.57735027
vn -0.30151134 -0.30151134 0.90453403
vn 0.30151134 -0.30151134 0.90453403
vn 0.00000000 0.00000000 1.00000000
vn 0.30151134 0.30151134 0.90453403
vn 0.00000000 0.00000000 1.00000000
vn -0.57735027 0.57735027 0.57735027
vn 0.00000000 0.00000000 1.00000000
vn -0.30151134 0.30151134 0.90453403
vn 0.00000000 0.00000000 1.00000000
vn -0.57735027 -0.57735027 0.57735027
vn 0.57735027 0.57735027 -0.57735027
vn -0.57735027 0.57735027 -0.57735027
vn -0.57735027 -0.57735027 -0.57735027
vn 0.57735027 -0.57735027 -0.57735027
vn 0.57735027 -0.57735027 0.57735027
vn -0.57735027 0.57735027 0.57735027
vn 0.57735027 0.57735027 0.57735027
vn 0.57735027 -0.57735027 0.57735027
vn -0.57735027 -0.57735027 0.57735027
f 1//1 2//2 3//3
f 4//4 5//5 6//6
f 7//7 5//5 4//4
f 7//7 8//8 5//5
f 7//7 9//9 8//8
f 10//10 9//9 7//7
f 10//10 11//11 9//9
f 12//12 11//11 10//10
f 12//12 13//13 11//11
f 12//12 14//14 13//13
f 3//3 14//14 12//12
f 3//3 15//15 14//14
f 15//15 3//3 2//2
f 16//16 17//17 18//18
f 16//16 19//19 17//17
f 16//16 20//20 19//19
f 16//16 21//21 20//20
f 22//22 21//21 16//16
f 22//22 23//23 21//21
f 24//24 23//23 22//22
f 24//24 25//25 23//23
f 26//26 25//25 24//24
f 26//26 27//27 25//25
f 28//28 27//27 26//26
f 28//28 29//29 27//27
f 30//30 29//29 28//28
f 30//30 31//31 29//29
f 32//32 31//31 30//30
f 32//32 33//33 31//31
f 32//32 34//34 33//33
f 35//35 34//34 32//32
f 35//35 36//36 34//34
f 35//35 37//37 36//36
f 38//38 37//37 35//35
f 38//38 39//39 37//37
f 40//40 39//39 38//38
f 40//40 41//41 39//39
f 42//42 41//41 40//40
f 42//42 43//43 41//41
f 44//44 43//43 42//42
f 43//43 44//44 45//45
f 46//46 47//47 48//48
f 46//46 49//49 47//47
f 50//50 49//49 46//46
f 50//50 51//51 49//49
f 50//50 52//52 51//51
f 53//53 54//54 55//55
f 53//53 50//50 54//54
f 53//53 52//52 50//50
f 56//56 52//52 53//53
f 16//16 52//52 56//56
f 18//18 52//52 16//16
f 18//18 57//57 52//52
f 58//58 57//57 18//18
f 59//59 57//57 58//58
f 59//59 60//60 57//57
f 61//61 60//60 59//59
f 61//61 62//62 60//60
f 63//63 62//62 61//61
f 63//63 64//64 62//62
f 65//65 64//64 63//63
f 66//66 64//64 65//65
f 66//66 67//67 64//64
f 68//68 67//67 66//66
f 69//69 67//67 68//68
f 69//69 70//70 67//67
f 69//69 71//71 70//70
f 69//69 72//72 71//71
f 72//72 69//69 73//73
f 74//74 18//18 17//17
f 74//74 75//75 18//18
f 76//76 75//75 74//74
f 76//76 77//77 75//75
f 78//78 77//77 76//76
f 78//78 79//79 77//77
f 80//80 79//79 78//78
f 80//80 81//81 79//79
f 82//82 81//81 80//80
f 83//83 81//81 82//82
f 84//84 81//81 83//83
f 84//84 36//36 81//81
f 36//36 84//84 34//34
f 85//85 86//86 87//87
f 86//86 85//85 88//88
f 89//89 90//90 91//91
f 92//92 90//90 89//89
f 92//92 93//93 90//90
f 92//92 94//94 93//93
f 95//95 96//96 97//97
f 95//95 98//98 96//96
f 99//99 94//94 92//92
f 99//99 95//95 94//94
f 99//99 98//98 95//95
f 100//100 98//98 99//99
f 101//101 98//98 100//100
f 102//102 98//98 101//101
f 103//103 98//98 102//102
f 104//104 98//98 103//103
f 87//87 98//98 104//104
f 86//86 98//98 87//87
f 98//98 86//86 105//105
f 97//97 106//106 107//107
f 106//106 97//97 96//96
f 108//108 109//109 110//110
f 109//109 108//108 111//111
f 112//112 113//113 114//114
f 115//115 113//113 112//112
f 115//115 116//116 113//113
f 115//115 117//117 116//116
f 118//118 119//119 120//120
f 118//118 121//121 119//119
f 122//122 117//117 115//115
f 122//122 118//118 117//117
f 122//122 121//121 118//118
f 123//123 121//121 122//122
f 124//124 121//121 123//123
f 125//125 121//121 124//124
f 126//126 121//121 125//125
f 127//127 121//121 126//126
f 110//110 121//121 127//127
f 109//109 121//121 110//110
f 121//121 109//109 128//128
f 120//120 129//129 130//130
f 129//129 120//120 119//119
f 131//131 132//132 133//133
f 131//131 134//134 132//132
f 135//135 134//134 131//131
f 134//134 135//135 136//136
f 137//137 138//138 139//139
f 137//137 140//140 138//138
f 137//137 141//141 140//140
f 137//137 142//142 141//141
f 143//143 142//142 137//137
f 144//144 142//142 143//143
f 145//145 142//142 144//144
f 146//146 142//142 145//145
f 146//146 147//147 142//142
f 148//148 147//147 146//146
f 148//148 149//149 147//147
f 150//150 149//149 148//148
f 150//150 151//151 149//149
f 152//152 151//151 150//150
f 152//152 153//153 151//151
f 154//154 153//153 152//152
f 155//155 153//153 154//154
f 155//155 156//156 153//153
f 157//157 156//156 155//155
f 158//158 156//156 157//157
f 158//158 132//132 156//156
f 132//132 158//158 133//133
f 159//159 160//160 161//161
f 162//162 160//160 159//159
f 163//163 160//160 162//162
f 163//163 164//164 160//160
f 165//165 164//164 163//163
f 165//165 166//166 164//164
f 165//165 167//167 166//166
f 168//168 167//167 165//165
f 168//168 169//169 167//167
f 170//170 169//169 168//168
f 170//170 171//171 169//169
f 172//172 171//171 170//170
f 172//172 173//173 171//171
f 174//174 173//173 172//172
f 174//174 175//175 173//173
f 174//174 176//176 175//175
f 177//177 176//176 174//174
f 177//177 178//178 176//176
f 177//177 179//179 178//178
f 177//177 180//180 179//179
f 181//181 180//180 177//177
f 181//181 182//182 180//180
f 181//181 183//183 182//182
f 181//181 184//184 183//183
f 185//185 184//184 181//181
f 185//185 186//186 184//184
f 187//187 186//186 185//185
f 187//187 188//188 186//186
f 189//189 188//188 187//187
f 189//189 190//190 188//188
f 191//191 190//190 189//189
f 190//190 191//191 192//192
f 193//193 194//194 195//195
f 193//193 196//196 194//194
f 193//193 197//197 196//196
f 193//193 198//198 197//197
f 193//193 199//199 198//198
f 193//193 200//200 199//199
f 200//200 193//193 183//183
f 199//199 201//201 198//198
f 202//202 201//201 199//199
f 203//203 201//201 202//202
f 203//203 204//204 201//201
f 205//205 204//204 203//203
f 206//206 204//204 205//205
f 206//206 207//207 204//204
f 208//208 207//207 206//206
f 209//209 207//207 208//208
f 209//209 210//210 207//207
f 209//209 211//211 210//210
f 212//212 211//211 209//209
f 213//213 211//211 212//212
f 213//213 214//214 211//211
f 215//215 214//214 213//213
f 216//216 214//214 215//215
f 217//217 214//214 216//216
f 217//217 218//218 214//214
f 200//200 218//218 217//217
f 183//183 218//218 200//200
f 218//218 183//183 184//184
f 219//219 220//220 221//221
f 219//219 222//222 220//220
f 219//219 223//223 222//222
f 224//224 223//223 219//219
f 224//224 225//225 223//223
f 224//224 226//226 225//225
f 227//227 226//226 224//224
f 228//228 226//226 227//227
f 228//228 229//229 226//226
f 230//230 229//229 228//228
f 230//230 231//231 229//229
f 230//230 232//232 231//231
f 233//233 232//232 230//230
f 233//233 234//234 232//232
f 233//233 235//235 234//234
f 235//235 233//233 236//236
f 237//237 238//238 239//239
f 237//237 240//240 238//238
f 241//241 240//240 237//237
f 240//240 241//241 242//242
f 239//239 243//243 244//244
f 243//243 239//239 238//238
f 245//245 246//246 247//247
f 244//244 246//246 245//245
f 243//243 246//246 244//244
f 246//246 243//243 248//248
f 249//249 250//250 251//251
f 249//249 252//252 250//250
f 253//253 252//252 249//249
f 253//253 254//254 252//252
f 255//255 254//254 253//253
f 255//255 256//256 254//254
f 255//255 257//257 256//256
f 255//255 258//258 257//257
f 255//255 259//259 258//258
f 255//255 260//260 259//259
f 261//261 260//260 255//255
f 261//261 262//262 260//260
f 261//261 263//263 262//262
f 264//264 263//263 261//261
f 264//264 265//265 263//263
f 264//264 266//266 265//265
f 267//267 266//266 264//264
f 267//267 268//268 266//266
f 267//267 269//269 268//268
f 270//270 269//269 267//267
f 270//270 271//271 269//269
f 270//270 272//272 271//271
f 273//273 272//272 270//270
f 273//273 274//274 272//272
f 273//273 275//275 274//274
f 276//276 275//275 273//273
f 276//276 277//277 275//275
f 276//276 278//278 277//277
f 276//276 279//279 278//278
f 280//280 279//279 276//276
f 280//280 281//281 279//279
f 280//280 282//282 281//281
f 283//283 282//282 280//280
f 283//283 284//284 282//282
f 285//285 284//284 283//283
f 285//285 286//286 284//284
f 287//287 286//286 285//285
f 286//286 287//287 288//288
f 289//289 256//256 257//257
f 290//290 256//256 289//289
f 290//290 291//291 256//256
f 292//292 291//291 290//290
f 293//293 291//291 292//292
f 293//293 294//294 291//291
f 295//295 294//294 293//293
f 296//296 294//294 295//295
f 296//296 297//297 294//294
f 298//298 297//297 296//296
f 299//299 297//297 298//298
f 299//299 300//300 297//297
f 301//301 300//300 299//299
f 301//301 302//302 300//300
f 303//303 302//302 301//301
f 304//304 302//302 303//303
f 304//304 305//305 302//302
f 306//306 305//305 304//304
f 306//306 307//307 305//305
f 308//308 307//307 306//306
f 309//309 307//307 308//308
f 310//310 307//307 309//309
f 310//310 281//281 307//307
f 281//281 310//310 279//279
f 311//311 312//312 313//313
f 312//312 311//311 314//314
f 315//315 316//316 317//317
f 316//316 315//315 318//318
f 319//319 320//320 321//321
f 319//319 322//322 320//320
f 319//319 323//323 322//322
f 319//319 324//324 323//323
f 325//325 324//324 319//319
f 325//325 326//326 324//324
f 327//327 326//326 325//325
f 327//327 328//328 326//326
f 329//329 328//328 327//327
f 329//329 330//330 328//328
f 331//331 330//330 329//329
f 331//331 332//332 330//330
f 333//333 332//332 331//331
f 333//333 334//334 332//332
f 335//335 334//334 333//333
f 335//335 336//336 334//334
f 335//335 337//337 336//336
f 338//338 337//337 335//335
f 338//338 339//339 337//337
f 338//338 340//340 339//339
f 341//341 340//340 338//338
f 341//341 342//342 340//340
f 343//343 342//342 341//341
f 343//343 344//344 342//342
f 345//345 344//344 343//343
f 345//345 346//346 344//344
f 347//347 346//346 345//345
f 346//346 347//347 348//348
f 349//349 350//350 351//351
f 349//349 352//352 350//350
f 353//353 352//352 349//349
f 353//353 354//354 352//352
f 353//353 355//355 354//354
f 356//356 357//357 358//358
f 356//356 353//353 357//357
f 356//356 355//355 353//353
f 359//359 355//355 356//356
f 319//319 355//355 359//359
f 321//321 355//355 319//319
f 321//321 360//360 355//355
f 361//361 360//360 321//321
f 362//362 360//360 361//361
f 362//362 363//363 360//360
f 364//364 363//363 362//362
f 364//364 365//365 363//363
f 366//366 365//365 364//364
f 366//366 367//367 365//365
f 368//368 367//367 366//366
f 369//369 367//367 368//368
f 369//369 370//370 367//367
f 371//371 370//370 369//369
f 372//372 370//370 371//371
f 372//372 373//373 370//370
f 372//372 374//374 373//373
f 372//372 375//375 374//374
f 375//375 372//372 376//376
f 377//377 321//321 320//320
f 377//377 378//378 321//321
f 379//379 378//378 377//377
f 379//379 380//380 378//378
f 381//381 380//380 379//379
f 381//381 382//382 380//380
f 383//383 382//382 381//381
f 383//383 384//384 382//382
f 385//385 384//384 383//383
f 386//386 384//384 385//385
f 387//387 384//384 386//386
f 387//387 339//339 384//384
f 339//339 387//387 337//337
f 388//388 389//389 390//390
f 391//391 389//389 388//388
f 391//391 392//392 389//389
f 392//392 391//391 393//393
f 394//394 395//395 396//396
f 394//394 397//397 395//395
f 394//394 398//398 397//397
f 394//394 399//399 398//398
f 400//400 399//399 394//394
f 401//401 399//399 400//400
f 402//402 399//399 401//401
f 402//402 403//403 399//399
f 404//404 403//403 402//402
f 405//405 403//403 404//404
f 405//405 406//406 403//403
f 407//407 406//406 405//405
f 408//408 406//406 407//407
f 408//408 409//409 406//406
f 410//410 409//409 408//408
f 410//410 411//411 409//409
f 412//412 411//411 410//410
f 412//412 413//413 411//411
f 414//414 413//413 412//412
f 414//414 415//415 413//413
f 416//416 415//415 414//414
f 417//417 415//415 416//416
f 418//418 415//415 417//417
f 418//418 389//389 415//415
f 389//389 418//418 390//390
f 419//419 420//420 421//421
f 422//422 420//420 419//419
f 422//422 423//423 420//420
f 424//424 423//423 422//422
f 425//425 423//423 424//424
f 425//425 426//426 423//423
f 427//427 426//426 425//425
f 427//427 428//428 426//426
f 429//429 428//428 427//427
f 430//430 428//428 429//429
f 430//430 431//431 428//428
f 432//432 431//431 430//430
f 433//433 431//431 432//432
f 433//433 434//434 431//431
f 435//435 434//434 433//433
f 436//436 434//434 435//435
f 437//437 434//434 436//436
f 437//437 438//438 434//434
f 439//439 438//438 437//437
f 440//440 438//438 439//439
f 441//441 440//440 442//442
f 441//441 438//438 440//440
f 441//441 443//443 438//438
f 444//444 443//443 441//441
f 444//444 445//445 443//443
f 446//446 445//445 444//444
f 446//446 447//447 445//445
f 447//447 446//446 448//448
f 449//449 450//450 451//451
f 452//452 450//450 449//449
f 453//453 450//450 452//452
f 453//453 454//454 450//450
f 453//453 455//455 454//454
f 453//453 456//456 455//455
f 457//457 456//456 453//453
f 457//457 458//458 456//456
f 457//457 459//459 458//458
f 460//460 459//459 457//457
f 460//460 461//461 459//459
f 462//462 461//461 460//460
f 462//462 463//463 461//461
f 462//462 464//464 463//463
f 465//465 464//464 462//462
f 465//465 466//466 464//464
f 465//465 467//467 466//466
f 468//468 467//467 465//465
f 468//468 469//469 467//467
f 468//468 470//470 469//469
f 468//468 471//471 470//470
f 472//472 471//471 468//468
f 472//472 473//473 471//471
f 472//472 474//474 473//473
f 474//474 441//441 442//442
f 441//441 474//474 472//472
f 421//421 451//451 450//450
f 420//420 451//451 421//421
f 451//451 420//420 475//475
f 476//476 477//477 478//478
f 477//477 476//476 479//479
f 480//480 481//481 482//482
f 481//481 480//480 483//483
f 484//484 481//481 483//483
f 481//481 484//484 485//485
f 481//481 486//486 482//482
f 486//486 481//481 485//485
f 486//486 480//480 482//482
f 480//480 486//486 487//487
f 484//484 486//486 485//485
f 486//486 484//484 487//487
f 488//488 489//489 490//490
f 489//489 488//488 491//491
f 489//489 492//492 490//490
f 492//492 489//489 493//493
f 492//492 488//488 490//490
f 488//488 492//492 494//494
f 495//495 488//488 494//494
f 488//488 495//495 491//491
f 495//495 492//492 493//493
f 492//492 495//495 494//494
f 496//496 497//497 498//498
f 497//497 496//496 499//499
f 500//500 497//497 501//501
f 497//497 500//500 498//498
f 502//502 500//500 501//501
f 500//500 502//502 503//503
f 496//496 502//502 499//499
f 502//502 496//496 503//503
f 497//497 502//502 501//501
f 502//502 497//497 499//499
f 504//504 505//505 506//506
f 505//505 504//504 507//507
f 508//508 504//504 509//509
f 504//504 508//508 507//507
f 508//508 510//510 511//511
f 510//510 508//508 509//509
f 505//505 510//510 506//506
f 510//510 505//505 511//511
f 510//510 504//504 506//506
f 504//504 510//510 509//509
f 512//512 513//513 514//514
f 513//513 512//512 515//515
f 516//516 512//512 517//517
f 512//512 516//516 515//515
f 516//516 518//518 519//519
f 518//518 516//516 517//517
f 513//513 518//518 514//514
f 518//518 513//513 519//519
f 518//518 512//512 514//514
f 512//512 518//518 517//517
f 520//520 521//521 522//522
f 521//521 520//520 523//523
f 524//524 520//520 522//522
f 520//520 524//524 525//525
f 526//526 524//524 527//527
f 524//524 526//526 525//525
f 526//526 521//521 523//523
f 521//521 526//526 527//527
f 521//521 524//524 522//522
f 524//524 521//521 527//527
f 528//528 529//529 530//530
f 529//529 528//528 531//531
f 532//532 529//529 531//531
f 529//529 532//532 533//533
f 529//529 534//534 530//530
f 534//534 529//529 533//533
f 534//534 528//528 530//530
f 528//528 534//534 535//535
f 532//532 534//534 533//533
f 534//534 532//532 535//535
f 536//536 537//537 538//538
f 537//537 536//536 539//539
f 540//540 537//537 539//539
f 537//537 540//540 541//541
f 537//537 542//542 538//538
f 542//542 537//537 541//541
f 542//542 536//536 538//538
f 536//536 542//542 543//543
f 540//540 542//542 541//541
f 542//542 540//540 543//543
f 544//544 545//545 546//546
f 545//545 544//544 547//547
f 548//548 546//546 549//549
f 546//546 548//548 544//544
f 550//550 545//545 547//547
f 545//545 550//550 551//551
f 546//546 552//552 549//549
f 546//546 553//553 552//552
f 545//545 553//553 546//546
f 553//553 545//545 551//551
f 550//550 553//553 551//551
f 553//553 550//550 554//554
f 555//555 556//556 557//557
f 556//556 555//555 558//558
f 556//556 559//559 557//557
f 559//559 556//556 560//560
f 559//559 555//555 557//557
f 555//555 559//559 561//561
f 562//562 555//555 561//561
f 555//555 562//562 558//558
f 562//562 559//559 560//560
f 559//559 562//562 561//561
f 563//563 564//564 565//565
f 564//564 563//563 566//566
f 567//567 563//563 568//568
f 563//563 567//567 566//566
f 567//567 569//569 570//570
f 569//569 567//567 568//568
f 564//564 569//569 565//565
f 569//569 564//564 570//570
f 569//569 563//563 565//565
f 563//563 569//569 568//568
f 571//571 572//572 573//573
f 572//572 571//571 574//574
f 572//572 575//575 573//573
f 575//575 572//572 576//576
f 575//575 571//571 573//573
f 571//571 575//575 577//577
f 578//578 571//571 577//577
f 571//571 578//578 574//574
f 578//578 575//575 576//576
f 575//575 578//578 577//577
f 579//579 549//549 580//580
f 579//579 581//581 549//549
f 579//579 582//582 581//581
f 582//582 583//583 584//584
f 579//579 583//583 582//582
f 579//579 585//585 583//583
f 585//585 586//586 587//587
f 586//586 585//585 579//579
f 552//552 580//580 549//549
f 553//553 580//580 552//552
f 588//588 580//580 553//553
f 584//584 580//580 588//588
f 589//589 584//584 583//583
f 589//589 580//580 584//584
f 587//587 580//580 589//589
f 587//587 590//590 580//580
f 590//590 587//587 586//586
f 549//549 581//581 546//546
f 591//591 586//586 579//579
f 586//586 591//591 592//592
f 593//593 586//586 592//592
f 586//586 593//593 590//590
f 593//593 580//580 590//590
f 580//580 593//593 594//594
f 580//580 591//591 579//579
f 591//591 580//580 594//594
f 593//593 591//591 594//594
f 591//591 593//593 592//592
f 554//554 552//552 553//553
f 552//552 554//554 595//595
f 552//552 548//548 549//549
f 548//548 552//552 595//595
f 583//583 478//478 589//589
f 583//583 476//476 478//478
f 476//476 585//585 479//479
f 585//585 476//476 583//583
f 477//477 589//589 478//478
f 479//479 589//589 477//477
f 479//479 587//587 589//589
f 587//587 479//479 585//585
f 544//544 595//595 548//548
f 595//595 544//544 554//554
f 596//596 553//553 554//554
f 553//553 596//596 588//588
f 596//596 584//584 588//588
f 584//584 596//596 597//597
f 584//584 598//598 582//582
f 598//598 584//584 597//597
f 598//598 581//581 582//582
f 581//581 598//598 599//599
f 544//544 581//581 599//599
f 581//581 544//544 546//546
f 547//547 554//554 544//544
f 554//554 547//547 550//550
f 508//508 480//480 507//507
f 480//480 508//508 483//483
f 516//516 505//505 515//515
f 505//505 516//516 511//511
f 543//543 489//489 520//520
f 540//540 489//489 543//543
f 489//489 540//540 493//493
f 550//550 596//596 554//554
f 535//535 550//550 528//528
f 535//535 596//596 550//550
f 532//532 596//596 535//535
f 543//543 532//532 536//536
f 520//520 532//532 543//543
f 525//525 532//532 520//520
f 525//525 596//596 532//532
f 526//526 596//596 525//525
f 515//515 526//526 513//513
f 505//505 526//526 515//515
f 507//507 526//526 505//505
f 480//480 526//526 507//507
f 487//487 526//526 480//480
f 484//484 526//526 487//487
f 484//484 596//596 526//526
f 484//484 597//597 596//596
f 597//597 484//484 598//598
f 574//574 528//528 572//572
f 578//578 528//528 574//574
f 528//528 578//578 531//531
f 566//566 572//572 564//564
f 567//567 572//572 566//566
f 572//572 567//567 576//576
f 491//491 520//520 489//489
f 495//495 520//520 491//491
f 520//520 495//495 523//523
f 558//558 498//498 500//500
f 498//498 562//562 496//496
f 562//562 498//498 558//558
f 599//599 556//556 544//544
f 599//599 560//560 556//556
f 560//560 547//547 562//562
f 547//547 528//528 550//550
f 560//560 528//528 547//547
f 560//560 572//572 528//528
f 560//560 564//564 572//572
f 599//599 564//564 560//560
f 599//599 570//570 564//564
f 570//570 576//576 567//567
f 570//570 578//578 576//576
f 570//570 531//531 578//578
f 570//570 532//532 531//531
f 570//570 536//536 532//532
f 599//599 536//536 570//570
f 599//599 539//539 536//536
f 539//539 493//493 540//540
f 539//539 495//495 493//493
f 539//539 523//523 495//495
f 539//539 526//526 523//523
f 539//539 513//513 526//526
f 599//599 513//513 539//539
f 599//599 519//519 513//513
f 519//519 511//511 516//516
f 519//519 508//508 511//511
f 519//519 483//483 508//508
f 519//519 484//484 483//483
f 519//519 598//598 484//484
f 598//598 519//519 599//599
f 558//558 544//544 556//556
f 500//500 544//544 558//558
f 503//503 544//544 500//500
f 496//496 544//544 503//503
f 496//496 547//547 544//544
f 547//547 496//496 562//562