# https://github.com/mikedh/trimesh
v 0.01956100 -0.02721100 -0.02307000
v 0.01956100 -0.02646900 -0.02307000
v -0.01902600 -0.02721100 -0.02307000
v -0.01902600 -0.02646900 -0.02307000
v 0.01956100 -0.02721100 0.02303200
v -0.01902600 -0.02721100 0.02303200
v -0.01902600 -0.02646900 0.02303200
v -0.01754100 -0.02646900 -0.02158600
v -0.01754100 -0.02646900 0.02154800
v 0.01807700 -0.02646900 0.02154800
v 0.01956100 -0.02646900 0.02303200
v 0.01807700 -0.02646900 -0.02158600
v -0.01754100 -0.02609800 -0.02158600
v -0.01754100 -0.02609800 0.02154800
v 0.01807700 -0.02609800 -0.02158600
v 0.01807700 -0.02609800 0.02154800
v -0.01902800 0.02770000 -0.02307000
v -0.01902800 0.02695800 -0.02307000
v 0.01955800 0.02770000 -0.02307000
v 0.01955800 0.02695800 -0.02307000
v -0.01902800 0.02770000 0.02303200
v 0.01955800 0.02770000 0.02303200
v 0.01955800 0.02695800 0.02303200
v 0.01807400 0.02695800 -0.02158600
v 0.01807400 0.02695800 0.02154800
v -0.01754400 0.02695800 0.02154800
v -0.01902800 0.02695800 0.02303200
v -0.01754400 0.02695800 -0.02158600
v 0.01807400 0.02658700 -0.02158600
v 0.01807400 0.02658700 0.02154800
v -0.01754400 0.02658700 -0.02158600
v -0.01754400 0.02658700 0.02154800
v 0.02697800 -0.02646900 0.02154800
v 0.02697800 -0.02646900 -0.02158600
v 0.02697800 -0.02609800 0.02154800
v 0.02697800 -0.02609800 -0.02158600
v 0.05072400 -0.02646900 -0.02158600
v 0.05072400 -0.02609800 -0.02158600
v 0.05072400 -0.02646900 0.02154800
v 0.05072400 -0.02609800 0.02154800
v 0.02549400 -0.02721100 0.02303200
v 0.02549400 -0.02721100 -0.02307000
v 0.02549400 -0.02646900 0.02303200
v 0.02549400 -0.02646900 -0.02307000
v 0.05220800 -0.02721100 0.02303200
v 0.05220800 -0.02646900 0.02303200
v 0.05220800 -0.02646900 -0.02307000
v 0.05220800 -0.02721100 -0.02307000
v -0.05019400 -0.02646900 0.02154800
v -0.05019400 -0.02646900 -0.02158600
v -0.05019400 -0.02609800 0.02154800
v -0.05019400 -0.02609800 -0.02158600
v -0.02644900 -0.02646900 -0.02158600
v -0.02644900 -0.02609800 -0.02158600
v -0.02644900 -0.02646900 0.02154800
v -0.02644900 -0.02609800 0.02154800
v -0.05167800 -0.02721100 0.02303200
v -0.05167800 -0.02721100 -0.02307000
v -0.05167800 -0.02646900 0.02303200
v -0.05167800 -0.02646900 -0.02307000
v -0.02496500 -0.02721100 0.02303200
v -0.02496500 -0.02646900 0.02303200
v -0.02496500 -0.02646900 -0.02307000
v -0.02496500 -0.02721100 -0.02307000
v 0.05072400 0.02695800 0.02154800
v 0.05072400 0.02695800 -0.02158600
v 0.05072400 0.02658700 0.02154800
v 0.05072400 0.02658700 -0.02158600
v 0.02697800 0.02695800 -0.02158600
v 0.02697800 0.02658700 -0.02158600
v 0.02697800 0.02695800 0.02154800
v 0.02697800 0.02658700 0.02154800
v 0.05220800 0.02770000 0.02303200
v 0.05220800 0.02770000 -0.02307000
v 0.05220800 0.02695800 0.02303200
v 0.05220800 0.02695800 -0.02307000
v 0.02549400 0.02770000 0.02303200
v 0.02549400 0.02695800 0.02303200
v 0.02549400 0.02695800 -0.02307000
v 0.02549400 0.02770000 -0.02307000
v -0.02644900 0.02695800 0.02154800
v -0.02644900 0.02695800 -0.02158600
v -0.02644900 0.02658700 0.02154800
v -0.02644900 0.02658700 -0.02158600
v -0.05019400 0.02695800 -0.02158600
v -0.05019400 0.02658700 -0.02158600
v -0.05019400 0.02695800 0.02154800
v -0.05019400 0.02658700 0.02154800
v -0.02496500 0.02770000 0.02303200
v -0.02496500 0.02770000 -0.02307000
v -0.02496500 0.02695800 0.02303200
v -0.02496500 0.02695800 -0.02307000
v -0.05167800 0.02770000 0.02303200
v -0.05167800 0.02695800 0.02303200
v -0.05167800 0.02695800 -0.02307000
v -0.05167800 0.02770000 -0.02307000
v 0.06037000 -0.02127400 -0.02297400
v 0.05962800 -0.02127400 -0.02297400
v 0.06037000 -0.02127400 0.02303200
v 0.05962800 -0.02127400 0.02303200
v 0.05962800 -0.00123900 0.02303200
v 0.06037000 -0.00123900 0.02303200
v 0.05962800 -0.01979000 0.02154800
v 0.05962800 -0.00272300 0.02154800
v 0.05962800 -0.00272300 -0.02149000
v 0.05962800 -0.00123900 -0.02297400
v 0.05962800 -0.01979000 -0.02149000
v 0.06037000 -0.00123900 -0.02297400
v 0.05925700 -0.00272300 -0.02149000
v 0.05925700 -0.00272300 0.02154800
v 0.05925700 -0.01979000 0.02154800
v 0.05925700 -0.01979000 -0.02149000
v 0.06037000 0.00172900 -0.02297400
v 0.05962800 0.00172900 -0.02297400
v 0.06037000 0.00172900 0.02303200
v 0.05962800 0.00172900 0.02303200
v 0.05962800 0.02176400 0.02303200
v 0.06037000 0.02176400 0.02303200
v 0.05962800 0.00321300 0.02154800
v 0.05962800 0.02028000 0.02154800
v 0.05962800 0.02028000 -0.02149000
v 0.05962800 0.02176400 -0.02297400
v 0.05962800 0.00321300 -0.02149000
v 0.06037000 0.02176400 -0.02297400
v 0.05925700 0.02028000 -0.02149000
v 0.05925700 0.02028000 0.02154800
v 0.05925700 0.00321300 0.02154800
v 0.05925700 0.00321300 -0.02149000
v -0.05984000 0.02176400 -0.02297400
v -0.05909800 0.02176400 -0.02297400
v -0.05984000 0.02176400 0.02303200
v -0.05909800 0.02176400 0.02303200
v -0.05909800 0.00172900 0.02303200
v -0.05984000 0.00172900 0.02303200
v -0.05909800 0.02028000 0.02154800
v -0.05909800 0.00321300 0.02154800
v -0.05909800 0.00321300 -0.02149000
v -0.05909800 0.00172900 -0.02297400
v -0.05909800 0.02028000 -0.02149000
v -0.05984000 0.00172900 -0.02297400
v -0.05872700 0.00321300 -0.02149000
v -0.05872700 0.00321300 0.02154800
v -0.05872700 0.02028000 0.02154800
v -0.05872700 0.02028000 -0.02149000
v -0.05984000 -0.00123900 -0.02297400
v -0.05909800 -0.00123900 -0.02297400
v -0.05984000 -0.00123900 0.02303200
v -0.05909800 -0.00123900 0.02303200
v -0.05909800 -0.02127400 0.02303200
v -0.05984000 -0.02127400 0.02303200
v -0.05909800 -0.00272300 0.02154800
v -0.05909800 -0.01979000 0.02154800
v -0.05909800 -0.01979000 -0.02149000
v -0.05909800 -0.02127400 -0.02297400
v -0.05909800 -0.00272300 -0.02149000
v -0.05984000 -0.02127400 -0.02297400
v -0.05872700 -0.01979000 -0.02149000
v -0.05872700 -0.01979000 0.02154800
v -0.05872700 -0.00272300 0.02154800
v -0.05872700 -0.00272300 -0.02149000
v -0.06058300 -0.02795300 0.02896900
v -0.06058300 -0.02795300 -0.03929900
v -0.06058300 -0.02572700 0.02896900
v -0.06058300 -0.02572700 -0.03929900
v -0.05019400 -0.02795300 -0.03929900
v -0.05019400 -0.02795300 0.02896900
v -0.05019400 -0.02572700 0.02896900
v -0.05019400 -0.02572700 -0.03929900
v -0.05019400 -0.02721100 -0.02307000
v -0.05019400 -0.02646900 -0.02307000
v -0.05019400 -0.02646900 0.02303200
v -0.05019400 -0.02721100 0.02303200
v -0.06058300 -0.01979000 0.02896900
v -0.05835600 -0.02572700 0.02896900
v -0.05835600 -0.01979000 0.02896900
v -0.05835600 -0.02572700 -0.03929900
v -0.05835600 -0.01979000 -0.03929900
v -0.05984000 -0.01979000 -0.02297400
v -0.06058300 -0.01979000 -0.03929900
v -0.05984000 -0.01979000 0.02303200
v -0.05909800 -0.01979000 0.02303200
v -0.05909800 -0.01979000 -0.02297400
v -0.05835600 0.02621600 0.02896900
v -0.05835600 0.02028000 0.02896900
v -0.06058300 0.02621600 0.02896900
v -0.06058300 0.02028000 0.02896900
v -0.06058300 0.02621600 -0.03929900
v -0.05835600 0.02621600 -0.03929900
v -0.06058300 0.02028000 -0.03929900
v -0.05909800 0.02028000 -0.02297400
v -0.05835600 0.02028000 -0.03929900
v -0.05909800 0.02028000 0.02303200
v -0.05984000 0.02028000 0.02303200
v -0.05984000 0.02028000 -0.02297400
v -0.06058300 0.02844200 0.02896900
v -0.06058300 0.02844200 -0.03929900
v -0.05019400 0.02621600 -0.03929900
v -0.05019400 0.02621600 0.02896900
v -0.05019400 0.02844200 0.02896900
v -0.05019400 0.02844200 -0.03929900
v -0.05019400 0.02695800 -0.02307000
v -0.05019400 0.02770000 -0.02307000
v -0.05019400 0.02770000 0.02303200
v -0.05019400 0.02695800 0.02303200
v 0.05888600 -0.02572700 0.02896900
v 0.05888600 -0.01979000 0.02896900
v 0.06111200 -0.02572700 0.02896900
v 0.06111200 -0.01979000 0.02896900
v 0.06111200 -0.02572700 -0.03929900
v 0.05888600 -0.02572700 -0.03929900
v 0.06111200 -0.01979000 -0.03929900
v 0.05962800 -0.01979000 -0.02297400
v 0.05888600 -0.01979000 -0.03929900
v 0.05962800 -0.01979000 0.02303200
v 0.06037000 -0.01979000 0.02303200
v 0.06037000 -0.01979000 -0.02297400
v 0.06111200 0.02844200 0.02896900
v 0.06111200 0.02844200 -0.03929900
v 0.06111200 0.02621600 0.02896900
v 0.06111200 0.02621600 -0.03929900
v 0.05072400 0.02844200 -0.03929900
v 0.05072400 0.02844200 0.02896900
v 0.05072400 0.02621600 0.02896900
v 0.05072400 0.02621600 -0.03929900
v 0.05072400 0.02770000 -0.02307000
v 0.05072400 0.02695800 -0.02307000
v 0.05072400 0.02695800 0.02303200
v 0.05072400 0.02770000 0.02303200
v 0.06111200 0.02028000 0.02896900
v 0.05888600 0.02621600 0.02896900
v 0.05888600 0.02028000 0.02896900
v 0.05888600 0.02621600 -0.03929900
v 0.05888600 0.02028000 -0.03929900
v 0.06037000 0.02028000 -0.02297400
v 0.06111200 0.02028000 -0.03929900
v 0.06037000 0.02028000 0.02303200
v 0.05962800 0.02028000 0.02303200
v 0.05962800 0.02028000 -0.02297400
v 0.06111200 -0.02795300 0.02896900
v 0.06111200 -0.02795300 -0.03929900
v 0.05072400 -0.02572700 -0.03929900
v 0.05072400 -0.02572700 0.02896900
v 0.05072400 -0.02795300 0.02896900
v 0.05072400 -0.02795300 -0.03929900
v 0.05072400 -0.02646900 -0.02307000
v 0.05072400 -0.02721100 -0.02307000
v 0.05072400 -0.02721100 0.02303200
v 0.05072400 -0.02646900 0.02303200
v 0.05072400 -0.02795300 -0.03039500
v 0.05072400 -0.02795300 -0.02158600
v 0.05072400 -0.02572700 -0.03039500
v 0.05072400 -0.02572700 -0.02158600
v 0.05072400 -0.02721100 -0.02158600
v -0.05019400 -0.02795300 -0.03039500
v -0.05019400 -0.02795300 -0.02158600
v -0.05019400 -0.02572700 -0.03039500
v -0.05019400 -0.02572700 -0.02158600
v -0.05019400 -0.02721100 -0.02158600
v -0.05019400 0.02844200 -0.03039500
v -0.05019400 0.02844200 -0.02158600
v -0.05019400 0.02621600 -0.03039500
v -0.05019400 0.02621600 -0.02158600
v -0.05019400 0.02770000 -0.02158600
v 0.05072400 0.02844200 -0.03039500
v 0.05072400 0.02844200 -0.02158600
v 0.05072400 0.02621600 -0.03039500
v 0.05072400 0.02621600 -0.02158600
v 0.05072400 0.02770000 -0.02158600
v 0.05888600 -0.01979000 -0.02149000
v 0.05888600 0.02028000 -0.02149000
v 0.06037000 -0.01979000 -0.02149000
v 0.06037000 0.02028000 -0.02149000
v 0.06111200 0.02028000 -0.02149000
v 0.06111200 -0.01979000 -0.02149000
v 0.06111200 -0.01979000 -0.03039500
v 0.06111200 0.02028000 -0.03039500
v 0.05888600 0.02028000 -0.03039500
v 0.05888600 -0.01979000 -0.03039500
v -0.05835600 0.02028000 -0.02149000
v -0.05835600 -0.01979000 -0.02149000
v -0.05984000 0.02028000 -0.02149000
v -0.05984000 -0.01979000 -0.02149000
v -0.06058300 -0.01979000 -0.02149000
v -0.06058300 0.02028000 -0.02149000
v -0.06058300 0.02028000 -0.03039500
v -0.06058300 -0.01979000 -0.03039500
v -0.05835600 -0.01979000 -0.03039500
v -0.05835600 0.02028000 -0.03039500
v 0.05072400 -0.02572700 0.02154800
v 0.05072400 -0.02795300 0.02154800
v 0.05072400 -0.02721100 0.02154800
v -0.05019400 -0.02795300 0.02154800
v -0.05019400 -0.02721100 0.02154800
v -0.05019400 -0.02572700 0.02154800
v -0.05019400 0.02621600 0.02154800
v -0.05019400 0.02844200 0.02154800
v -0.05019400 0.02770000 0.02154800
v 0.05072400 0.02844200 0.02154800
v 0.05072400 0.02770000 0.02154800
v 0.05072400 0.02621600 0.02154800
v 0.06111200 -0.01979000 0.02154800
v 0.06111200 0.02028000 0.02154800
v 0.06037000 0.02028000 0.02154800
v 0.06037000 -0.01979000 0.02154800
v 0.05888600 0.02028000 0.02154800
v 0.05888600 -0.01979000 0.02154800
v -0.06058300 0.02028000 0.02154800
v -0.06058300 -0.01979000 0.02154800
v -0.05984000 -0.01979000 0.02154800
v -0.05984000 0.02028000 0.02154800
v -0.05835600 -0.01979000 0.02154800
v -0.05835600 0.02028000 0.02154800
v -0.01902800 -0.02721100 -0.02158600
v -0.01754400 -0.02721100 -0.02158600
v -0.01902800 -0.02721100 0.02154800
v -0.01754400 -0.02721100 0.02154800
v -0.01902800 -0.02646900 -0.02158600
v -0.01902800 -0.02646900 0.02154800
v -0.01754400 -0.02646900 -0.02158600
v -0.01754400 -0.02646900 0.02154800
v -0.01754400 -0.02572700 -0.02158600
v -0.01754400 -0.02572700 0.02154800
v -0.02644900 -0.02572700 -0.02158600
v -0.02644900 -0.02572700 0.02154800
v -0.02496500 -0.02646900 -0.02158600
v -0.02496500 -0.02646900 0.02154800
v -0.02496500 -0.02721100 0.02154800
v -0.02496500 -0.02721100 -0.02158600
v -0.02644900 -0.02721100 -0.02158600
v -0.02644900 -0.02721100 0.02154800
v -0.02644900 -0.02795300 0.02154800
v -0.02644900 -0.02795300 -0.02158600
v -0.01754400 -0.02795300 0.02154800
v -0.01754400 -0.02795300 -0.02158600
v 0.02549400 -0.02721100 -0.02158600
v 0.02697800 -0.02721100 -0.02158600
v 0.02549400 -0.02721100 0.02154800
v 0.02697800 -0.02721100 0.02154800
v 0.02549400 -0.02646900 -0.02158600
v 0.02549400 -0.02646900 0.02154800
v 0.02697800 -0.02572700 -0.02158600
v 0.02697800 -0.02572700 0.02154800
v 0.01807400 -0.02572700 -0.02158600
v 0.01807400 -0.02572700 0.02154800
v 0.01807400 -0.02646900 0.02154800
v 0.01807400 -0.02646900 -0.02158600
v 0.01955800 -0.02646900 -0.02158600
v 0.01955800 -0.02646900 0.02154800
v 0.01955800 -0.02721100 0.02154800
v 0.01955800 -0.02721100 -0.02158600
v 0.01807400 -0.02721100 -0.02158600
v 0.01807400 -0.02721100 0.02154800
v 0.01807400 -0.02795300 0.02154800
v 0.01807400 -0.02795300 -0.02158600
v 0.02697800 -0.02795300 0.02154800
v 0.02697800 -0.02795300 -0.02158600
v -0.02496500 0.02770000 -0.02158600
v -0.02644900 0.02770000 -0.02158600
v -0.02496500 0.02770000 0.02154800
v -0.02644900 0.02770000 0.02154800
v -0.02496500 0.02695800 -0.02158600
v -0.02496500 0.02695800 0.02154800
v -0.02644900 0.02621600 -0.02158600
v -0.02644900 0.02621600 0.02154800
v -0.01754400 0.02621600 -0.02158600
v -0.01754400 0.02621600 0.02154800
v -0.01902800 0.02695800 -0.02158600
v -0.01902800 0.02695800 0.02154800
v -0.01902800 0.02770000 0.02154800
v -0.01902800 0.02770000 -0.02158600
v -0.01754400 0.02770000 -0.02158600
v -0.01754400 0.02770000 0.02154800
v -0.01754400 0.02844200 0.02154800
v -0.01754400 0.02844200 -0.02158600
v -0.02644900 0.02844200 0.02154800
v -0.02644900 0.02844200 -0.02158600
v 0.01955800 0.02770000 -0.02158600
v 0.01807400 0.02770000 -0.02158600
v 0.01955800 0.02770000 0.02154800
v 0.01807400 0.02770000 0.02154800
v 0.01955800 0.02695800 -0.02158600
v 0.01955800 0.02695800 0.02154800
v 0.01807400 0.02621600 -0.02158600
v 0.01807400 0.02621600 0.02154800
v 0.02697800 0.02621600 -0.02158600
v 0.02697800 0.02621600 0.02154800
v 0.02549400 0.02695800 -0.02158600
v 0.02549400 0.02695800 0.02154800
v 0.02549400 0.02770000 0.02154800
v 0.02549400 0.02770000 -0.02158600
v 0.02697800 0.02770000 -0.02158600
v 0.02697800 0.02770000 0.02154800
v 0.02697800 0.02844200 0.02154800
v 0.02697800 0.02844200 -0.02158600
v 0.01807400 0.02844200 0.02154800
v 0.01807400 0.02844200 -0.02158600
v 0.05888600 0.00321300 -0.02149000
v 0.05888600 -0.00272300 -0.02149000
v 0.05962800 0.00172900 -0.02149000
v 0.05962800 -0.00123900 -0.02149000
v 0.06037000 0.00172900 -0.02149000
v 0.06037000 -0.00123900 -0.02149000
v 0.06037000 -0.00272300 -0.02149000
v 0.06111200 -0.00272300 -0.02149000
v 0.06037000 0.00321300 -0.02149000
v 0.06111200 0.00321300 -0.02149000
v 0.05888600 -0.00272300 0.02154800
v 0.05888600 0.00321300 0.02154800
v 0.05962800 0.00172900 0.02154800
v 0.06037000 0.00172900 0.02154800
v 0.06037000 0.00321300 0.02154800
v 0.06111200 0.00321300 0.02154800
v 0.06111200 -0.00272300 0.02154800
v 0.06037000 -0.00272300 0.02154800
v 0.06037000 -0.00123900 0.02154800
v 0.05962800 -0.00123900 0.02154800
v -0.05835600 -0.00272300 -0.02149000
v -0.05835600 0.00321300 -0.02149000
v -0.05909800 -0.00123900 -0.02149000
v -0.05909800 0.00172900 -0.02149000
v -0.05984000 -0.00123900 -0.02149000
v -0.05984000 0.00172900 -0.02149000
v -0.05984000 0.00321300 -0.02149000
v -0.06058300 0.00321300 -0.02149000
v -0.05984000 -0.00272300 -0.02149000
v -0.06058300 -0.00272300 -0.02149000
v -0.05835600 0.00321300 0.02154800
v -0.05835600 -0.00272300 0.02154800
v -0.05909800 -0.00123900 0.02154800
v -0.05984000 -0.00123900 0.02154800
v -0.05984000 -0.00272300 0.02154800
v -0.06058300 -0.00272300 0.02154800
v -0.06058300 0.00321300 0.02154800
v -0.05984000 0.00321300 0.02154800
v -0.05984000 0.00172900 0.02154800
v -0.05909800 0.00172900 0.02154800
v 0.05888600 0.02399000 -0.03039500
v -0.05835600 0.02399000 -0.03039500
v 0.05888600 0.02399000 -0.02816900
v -0.05835600 0.02399000 -0.02816900
v -0.05835600 0.02621600 -0.02816900
v -0.05835600 0.02621600 -0.03039500
v 0.05888600 0.02621600 -0.03039500
v 0.05888600 0.02621600 -0.02816900
v -0.05835600 -0.02350100 -0.03039500
v 0.05888600 -0.02350100 -0.03039500
v -0.05835600 -0.02350100 -0.02816900
v 0.05888600 -0.02350100 -0.02816900
v 0.05888600 -0.02572700 -0.02816900
v 0.05888600 -0.02572700 -0.03039500
v -0.05835600 -0.02572700 -0.03039500
v -0.05835600 -0.02572700 -0.02816900
v -0.05613000 -0.02350100 -0.03039500
v -0.05613000 -0.02350100 -0.02816900
v -0.05613000 0.02399000 -0.03039500
v -0.05613000 0.02399000 -0.02816900
v 0.05666000 0.02399000 -0.03039500
v 0.05666000 0.02399000 -0.02816900
v 0.05666000 -0.02350100 -0.03039500
v 0.05666000 -0.02350100 -0.02816900
v -0.05835600 -0.02572700 -0.02594200
v -0.05835600 0.02621600 -0.02594200
v 0.05888600 -0.02572700 -0.02594200
v 0.05888600 0.02621600 -0.02594200
v -0.05316200 -0.02943700 0.03119500
v -0.05316200 -0.02943700 0.02896900
v -0.05316200 0.02992600 0.03119500
v -0.05316200 0.02992600 0.02896900
v 0.05369200 0.02992600 0.02896900
v 0.05369200 0.02992600 0.03119500
v 0.05369200 -0.02943700 0.02896900
v 0.05369200 -0.02943700 0.03119500
v -0.06206700 -0.02943700 0.03119500
v -0.06206700 0.02992600 0.03119500
v -0.06206700 -0.02943700 0.02896900
v -0.06206700 0.02992600 0.02896900
v 0.06259600 0.02992600 0.03119500
v 0.06259600 -0.02943700 0.03119500
v 0.06259600 0.02992600 0.02896900
v 0.06259600 -0.02943700 0.02896900
vn -0.00000000 0.00000000 0.00000000
vn 0.00000000 0.00000000 -0.00000000
vn -0.00000000 -0.00000000 -0.00000000
vn 0.00000000 -0.00000000 0.00000000
vn 0.00000000 -0.00000000 0.00000000
vn 0.00000000 0.00000000 -0.00000000
vn -0.00000000 -0.00000000 0.00000000
vn 0.00000000 0.00000000 0.00000000
vn -0.00000000 -0.00000000 0.00000000
vn -0.00000000 -0.00000000 -0.00000000
vn -0.00000000 -0.00000000 -0.00000000
vn 0.00000000 -0.00000000 -0.00000000
vn -0.00000000 -0.00000000 -0.00000000
vn 0.00000000 0.00000000 -0.00000000
vn -0.00000000 0.00000000 0.00000000
vn 0.00000000 -0.00000000 0.00000000
vn 0.00000000 0.00000000 0.00000000
vn -0.00000000 -0.00000000 -0.00000000
vn 0.00000000 -0.00000000 -0.00000000
vn -0.00000000 0.00000000 0.00000000
vn -0.00000000 -0.00000000 0.00000000
vn -0.00000000 0.00000000 -0.00000000
vn 0.00000000 0.00000000 0.00000000
vn -0.00000000 -0.00000000 0.00000000
vn 0.00000000 0.00000000 0.00000000
vn 0.00000000 0.00000000 -0.00000000
vn 0.00000000 0.00000000 -0.00000000
vn -0.00000000 0.00000000 -0.00000000
vn 0.00000000 0.00000000 -0.00000000
vn -0.00000000 -0.00000000 -0.00000000
vn 0.00000000 -0.00000000 0.00000000
vn -0.00000000 0.00000000 0.00000000
vn -0.00000000 -0.00000000 0.00000000
vn 0.00000000 0.00000000 -0.00000000
vn 0.00000000 -0.00000000 -0.00000000
vn -0.00000000 0.00000000 0.00000000
vn 0.00000000 -0.00000000 -0.00000000
vn -0.00000000 0.00000000 -0.00000000
vn -0.00000000 -0.00000000 -0.00000000
vn 0.00000000 0.00000000 0.00000000
vn 0.00000000 0.00000000 -0.00000000
vn -0.00000000 -0.00000000 -0.00000000
vn -0.00000000 -0.00000000 0.00000000
vn 0.00000000 0.00000000 0.00000000
vn 0.00000000 -0.00000000 0.00000000
vn -0.00000000 -0.00000000 -0.00000000
vn 0.00000000 0.00000000 -0.00000000
vn -0.00000000 0.00000000 0.00000000
vn -0.00000000 -0.00000000 0.00000000
vn 0.00000000 0.00000000 0.00000000
vn 0.00000000 0.00000000 0.00000000
vn -0.00000000 0.00000000 -0.00000000
vn 0.00000000 0.00000000 -0.00000000
vn -0.00000000 0.00000000 0.00000000
vn -0.00000000 -0.00000000 0.00000000
vn 0.00000000 0.00000000 -0.00000000
vn 0.00000000 0.00000000 -0.00000000
vn -0.00000000 -0.00000000 -0.00000000
vn -0.00000000 -0.00000000 0.00000000
vn 0.00000000 -0.00000000 0.00000000
vn 0.00000000 -0.00000000 0.00000000
vn -0.00000000 -0.00000000 -0.00000000
vn 0.00000000 0.00000000 -0.00000000
vn -0.00000000 0.00000000 0.00000000
vn 0.00000000 0.00000000 0.00000000
vn -0.00000000 -0.00000000 0.00000000
vn -0.00000000 0.00000000 -0.00000000
vn 0.00000000 0.00000000 0.00000000
vn -0.00000000 -0.00000000 0.00000000
vn 0.00000000 0.00000000 -0.00000000
vn 0.00000000 0.00000000 -0.00000000
vn -0.00000000 0.00000000 0.00000000
vn -0.00000000 -0.00000000 -0.00000000
vn 0.00000000 0.00000000 -0.00000000
vn 0.00000000 0.00000000 0.00000000
vn -0.00000000 0.00000000 0.00000000
vn -0.00000000 0.00000000 0.00000000
vn 0.00000000 0.00000000 -0.00000000
vn -0.00000000 -0.00000000 -0.00000000
vn 0.00000000 -0.00000000 0.00000000
vn 0.00000000 0.00000000 -0.00000000
vn -0.00000000 -0.00000000 0.00000000
vn -0.00000000 0.00000000 0.00000000
vn 0.00000000 -0.00000000 -0.00000000
vn -0.00000000 0.00000000 -0.00000000
vn 0.00000000 0.00000000 0.00000000
vn 0.00000000 0.00000000 -0.00000000
vn -0.00000000 -0.00000000 -0.00000000
vn -0.00000000 0.00000000 -0.00000000
vn 0.00000000 0.00000000 -0.00000000
vn 0.00000000 0.00000000 0.00000000
vn -0.00000000 -0.00000000 0.00000000
vn -0.00000000 0.00000000 0.00000000
vn 0.00000000 0.00000000 -0.00000000
vn -0.00000000 -0.00000000 -0.00000000
vn 0.00000000 -0.00000000 0.00000000
vn 0.00000000 0.00000000 0.00000000
vn 0.00000000 -0.00000000 -0.00000000
vn -0.00000000 -0.00000000 0.00000000
vn -0.00000000 0.00000000 -0.00000000
vn -0.00000000 0.00000000 0.00000000
vn -0.00000000 -0.00000000 -0.00000000
vn 0.00000000 0.00000000 -0.00000000
vn -0.00000000 0.00000000 0.00000000
vn 0.00000000 -0.00000000 0.00000000
vn 0.00000000 -0.00000000 0.00000000
vn -0.00000000 -0.00000000 -0.00000000
vn 0.00000000 0.00000000 -0.00000000
vn 0.00000000 0.00000000 -0.00000000
vn 0.00000000 -0.00000000 -0.00000000
vn 0.00000000 -0.00000000 0.00000000
vn -0.00000000 0.00000000 0.00000000
vn -0.00000000 0.00000000 -0.00000000
vn 0.00000000 -0.00000000 0.00000000
vn 0.00000000 -0.00000000 -0.00000000
vn -0.00000000 0.00000000 0.00000000
vn 0.00000000 0.00000000 -0.00000000
vn 0.00000000 -0.00000000 0.00000000
vn 0.00000000 0.00000000 -0.00000000
vn -0.00000000 0.00000000 0.00000000
vn 0.00000000 -0.00000000 0.00000000
vn -0.00000000 -0.00000000 -0.00000000
vn -0.00000000 -0.00000000 -0.00000000
vn -0.00000000 0.00000000 0.00000000
vn 0.00000000 0.00000000 -0.00000000
vn 0.00000000 -0.00000000 -0.00000000
vn 0.00000000 -0.00000000 0.00000000
vn -0.00000000 0.00000000 0.00000000
vn -0.00000000 -0.00000000 -0.00000000
vn -0.00000000 0.00000000 0.00000000
vn 0.00000000 0.00000000 -0.00000000
vn 0.00000000 -0.00000000 0.00000000
vn 0.00000000 -0.00000000 -0.00000000
vn 0.00000000 0.00000000 0.00000000
vn -0.00000000 -0.00000000 -0.00000000
vn 0.00000000 -0.00000000 0.00000000
vn -0.00000000 0.00000000 0.00000000
vn 0.00000000 0.00000000 -0.00000000
vn 0.00000000 0.00000000 -0.00000000
vn -0.00000000 -0.00000000 0.00000000
vn 0.00000000 -0.00000000 -0.00000000
vn 0.00000000 0.00000000 -0.00000000
vn 0.00000000 0.00000000 0.00000000
vn 0.00000000 -0.00000000 0.00000000
vn 0.00000000 -0.00000000 0.00000000
vn 0.00000000 0.00000000 -0.00000000
vn -0.00000000 0.00000000 0.00000000
vn 0.00000000 -0.00000000 -0.00000000
vn -0.00000000 -0.00000000 0.00000000
vn -0.00000000 0.00000000 -0.00000000
vn -0.00000000 -0.00000000 -0.00000000
vn 0.00000000 -0.00000000 0.00000000
vn -0.00000000 0.00000000 0.00000000
vn 0.00000000 0.00000000 0.00000000
vn 0.00000000 0.00000000 -0.00000000
vn 0.00000000 -0.00000000 -0.00000000
vn 0.00000000 -0.00000000 -0.00000000
vn 0.00000000 0.00000000 -0.00000000
vn 0.00000000 0.00000000 0.00000000
vn 0.00000000 -0.00000000 0.00000000
vn 0.00000000 -0.00000000 0.00000000
vn -0.00000000 0.00000000 0.00000000
vn -0.00000000 0.00000000 -0.00000000
vn 0.00000000 0.00000000 -0.00000000
vn -0.00000000 -0.00000000 -0.00000000
vn 0.00000000 0.00000000 -0.00000000
vn 0.00000000 0.00000000 0.00000000
vn -0.00000000 0.00000000 0.00000000
vn -0.00000000 0.00000000 0.00000000
vn 0.00000000 0.00000000 -0.00000000
vn -0.00000000 0.00000000 -0.00000000
vn 0.00000000 -0.00000000 0.00000000
vn 0.00000000 -0.00000000 -0.00000000
vn -0.00000000 -0.00000000 -0.00000000
vn 0.00000000 -0.00000000 0.00000000
vn 0.00000000 0.00000000 -0.00000000
vn 0.00000000 -0.00000000 0.00000000
vn -0.00000000 0.00000000 -0.00000000
vn 0.00000000 0.00000000 -0.00000000
vn 0.00000000 -0.00000000 0.00000000
vn 0.00000000 0.00000000 -0.00000000
vn -0.00000000 -0.00000000 0.00000000
vn 0.00000000 0.00000000 0.00000000
vn -0.00000000 -0.00000000 0.00000000
vn 0.00000000 0.00000000 0.00000000
vn -0.00000000 -0.00000000 0.00000000
vn -0.00000000 0.00000000 0.00000000
vn -0.00000000 0.00000000 0.00000000
vn 0.00000000 -0.00000000 0.00000000
vn 0.00000000 0.00000000 -0.00000000
vn 0.00000000 -0.00000000 0.00000000
vn 0.00000000 0.00000000 0.00000000
vn -0.00000000 -0.00000000 -0.00000000
vn 0.00000000 -0.00000000 0.00000000
vn -0.00000000 0.00000000 -0.00000000
vn 0.00000000 0.00000000 -0.00000000
vn -0.00000000 -0.00000000 -0.00000000
vn 0.00000000 0.00000000 -0.00000000
vn 0.00000000 0.00000000 0.00000000
vn -0.00000000 0.00000000 0.00000000
vn -0.00000000 0.00000000 0.00000000
vn 0.00000000 0.00000000 -0.00000000
vn -0.00000000 0.00000000 -0.00000000
vn 0.00000000 -0.00000000 0.00000000
vn 0.00000000 0.00000000 0.00000000
vn 0.00000000 -0.00000000 -0.00000000
vn -0.00000000 -0.00000000 0.00000000
vn 0.00000000 0.00000000 0.00000000
vn 0.00000000 0.00000000 0.00000000
vn 0.00000000 -0.00000000 -0.00000000
vn 0.00000000 -0.00000000 -0.00000000
vn -0.00000000 -0.00000000 -0.00000000
vn 0.00000000 0.00000000 0.00000000
vn 0.00000000 0.00000000 0.00000000
vn 0.00000000 -0.00000000 -0.00000000
vn 0.00000000 0.00000000 0.00000000
vn -0.00000000 -0.00000000 0.00000000
vn 0.00000000 0.00000000 0.00000000
vn 0.00000000 -0.00000000 -0.00000000
vn -0.00000000 0.00000000 -0.00000000
vn 0.00000000 -0.00000000 0.00000000
vn -0.00000000 0.00000000 -0.00000000
vn -0.00000000 0.00000000 0.00000000
vn 0.00000000 0.00000000 -0.00000000
vn 0.00000000 0.00000000 0.00000000
vn -0.00000000 -0.00000000 -0.00000000
vn 0.00000000 0.00000000 -0.00000000
vn -0.00000000 0.00000000 0.00000000
vn -0.00000000 0.00000000 -0.00000000
vn 0.00000000 0.00000000 0.00000000
vn -0.00000000 -0.00000000 0.00000000
vn -0.00000000 -0.00000000 0.00000000
vn 0.00000000 0.00000000 -0.00000000
vn 0.00000000 0.00000000 -0.00000000
vn 0.00000000 -0.00000000 0.00000000
vn -0.00000000 -0.00000000 0.00000000
vn -0.00000000 0.00000000 -0.00000000
vn 0.00000000 -0.00000000 0.00000000
vn 0.00000000 -0.00000000 0.00000000
vn -0.00000000 0.00000000 0.00000000
vn 0.00000000 -0.00000000 0.00000000
vn -0.00000000 0.00000000 -0.00000000
vn -0.00000000 0.00000000 0.00000000
vn 0.00000000 0.00000000 -0.00000000
vn 0.00000000 0.00000000 0.00000000
vn -0.00000000 -0.00000000 -0.00000000
vn 0.00000000 0.00000000 -0.00000000
vn -0.00000000 0.00000000 0.00000000
vn -0.00000000 -0.00000000 0.00000000
vn 0.00000000 0.00000000 -0.00000000
vn 0.00000000 -0.00000000 -0.00000000
vn 0.00000000 0.00000000 0.00000000
vn 0.00000000 -0.00000000 0.00000000
vn -0.00000000 0.00000000 -0.00000000
vn 0.00000000 -0.00000000 0.00000000
vn -0.00000000 0.00000000 0.00000000
vn 0.00000000 -0.00000000 -0.00000000
vn 0.00000000 0.00000000 -0.00000000
vn 0.00000000 0.00000000 0.00000000
vn -0.00000000 -0.00000000 -0.00000000
vn -0.00000000 0.00000000 -0.00000000
vn 0.00000000 -0.00000000 0.00000000
vn 0.00000000 0.00000000 0.00000000
vn 0.00000000 -0.00000000 -0.00000000
vn 0.00000000 0.00000000 0.00000000
vn 0.00000000 -0.00000000 0.00000000
vn -0.00000000 0.00000000 -0.00000000
vn 0.00000000 -0.00000000 -0.00000000
vn 0.00000000 0.00000000 0.00000000
vn -0.00000000 0.00000000 -0.00000000
vn -0.00000000 -0.00000000 -0.00000000
vn 0.00000000 0.00000000 0.00000000
vn -0.00000000 -0.00000000 -0.00000000
vn 0.00000000 -0.00000000 0.00000000
vn -0.00000000 0.00000000 -0.00000000
vn 0.00000000 0.00000000 0.00000000
vn 0.00000000 -0.00000000 -0.00000000
vn -0.00000000 -0.00000000 0.00000000
vn -0.00000000 -0.00000000 0.00000000
vn 0.00000000 -0.00000000 -0.00000000
vn 0.00000000 -0.00000000 -0.00000000
vn -0.00000000 -0.00000000 0.00000000
vn 0.00000000 0.00000000 -0.00000000
vn -0.00000000 0.00000000 0.00000000
vn 0.00000000 -0.00000000 0.00000000
vn -0.00000000 0.00000000 0.00000000
vn -0.00000000 0.00000000 -0.00000000
vn 0.00000000 0.00000000 0.00000000
vn -0.00000000 -0.00000000 0.00000000
vn 0.00000000 0.00000000 -0.00000000
vn -0.00000000 0.00000000 0.00000000
vn -0.00000000 0.00000000 0.00000000
vn 0.00000000 -0.00000000 -0.00000000
vn -0.00000000 0.00000000 -0.00000000
vn 0.00000000 0.00000000 0.00000000
vn -0.00000000 0.00000000 -0.00000000
vn 0.00000000 -0.00000000 0.00000000
vn 0.00000000 -0.00000000 0.00000000
vn 0.00000000 0.00000000 -0.00000000
vn 0.00000000 0.00000000 -0.00000000
vn -0.00000000 0.00000000 -0.00000000
vn 0.00000000 0.00000000 0.00000000
vn -0.00000000 0.00000000 -0.00000000
vn 0.00000000 0.00000000 0.00000000
vn 0.00000000 0.00000000 -0.00000000
vn -0.00000000 -0.00000000 0.00000000
vn 0.00000000 -0.00000000 -0.00000000
vn -0.00000000 0.00000000 0.00000000
vn 0.00000000 0.00000000 -0.00000000
vn -0.00000000 0.00000000 0.00000000
vn -0.00000000 0.00000000 -0.00000000
vn 0.00000000 0.00000000 0.00000000
vn 0.00000000 0.00000000 0.00000000
vn -0.00000000 -0.00000000 0.00000000
vn -0.00000000 -0.00000000 0.00000000
vn 0.00000000 0.00000000 0.00000000
vn -0.00000000 0.00000000 -0.00000000
vn 0.00000000 -0.00000000 0.00000000
vn 0.00000000 -0.00000000 0.00000000
vn -0.00000000 0.00000000 0.00000000
vn -0.00000000 0.00000000 -0.00000000
vn 0.00000000 0.00000000 -0.00000000
vn -0.00000000 0.00000000 0.00000000
vn 0.00000000 0.00000000 0.00000000
vn -0.00000000 -0.00000000 0.00000000
vn 0.00000000 0.00000000 0.00000000
vn -0.00000000 0.00000000 -0.00000000
vn 0.00000000 -0.00000000 0.00000000
vn -0.00000000 0.00000000 0.00000000
vn 0.00000000 -0.00000000 0.00000000
vn -0.00000000 0.00000000 -0.00000000
vn 0.00000000 -0.00000000 -0.00000000
vn -0.00000000 -0.00000000 0.00000000
vn 0.00000000 0.00000000 0.00000000
vn 0.00000000 0.00000000 -0.00000000
vn -0.00000000 -0.00000000 0.00000000
vn -0.00000000 -0.00000000 -0.00000000
vn 0.00000000 0.00000000 0.00000000
vn -0.00000000 0.00000000 0.00000000
vn 0.00000000 -0.00000000 0.00000000
vn -0.00000000 0.00000000 0.00000000
vn 0.00000000 -0.00000000 -0.00000000
vn -0.00000000 -0.00000000 -0.00000000
vn 0.00000000 0.00000000 -0.00000000
vn -0.00000000 -0.00000000 0.00000000
vn 0.00000000 0.00000000 0.00000000
vn -0.00000000 -0.00000000 -0.00000000
vn 0.00000000 0.00000000 0.00000000
vn -0.00000000 0.00000000 0.00000000
vn 0.00000000 -0.00000000 -0.00000000
vn -0.00000000 0.00000000 0.00000000
vn 0.00000000 -0.00000000 -0.00000000
vn -0.00000000 0.00000000 0.00000000
vn 0.00000000 -0.00000000 0.00000000
vn -0.00000000 -0.00000000 -0.00000000
vn 0.00000000 0.00000000 0.00000000
vn -0.00000000 -0.00000000 0.00000000
vn 0.00000000 0.00000000 0.00000000
vn 0.00000000 0.00000000 0.00000000
vn -0.00000000 -0.00000000 0.00000000
vn 0.00000000 -0.00000000 -0.00000000
vn -0.00000000 0.00000000 0.00000000
vn 0.00000000 -0.00000000 -0.00000000
vn -0.00000000 0.00000000 -0.00000000
vn 0.00000000 0.00000000 0.00000000
vn -0.00000000 -0.00000000 0.00000000
vn 0.00000000 0.00000000 0.00000000
vn -0.00000000 -0.00000000 0.00000000
vn 0.00000000 -0.00000000 -0.00000000
vn -0.00000000 0.00000000 0.00000000
vn 0.00000000 -0.00000000 0.00000000
vn -0.00000000 0.00000000 0.00000000
vn 0.00000000 0.00000000 -0.00000000
vn -0.00000000 0.00000000 -0.00000000
vn 0.00000000 0.00000000 0.00000000
vn -0.00000000 0.00000000 0.00000000
vn -0.00000000 -0.00000000 -0.00000000
vn 0.00000000 0.00000000 0.00000000
vn 0.00000000 0.00000000 -0.00000000
vn -0.00000000 -0.00000000 0.00000000
vn 0.00000000 -0.00000000 0.00000000
vn -0.00000000 0.00000000 0.00000000
vn 0.00000000 -0.00000000 0.00000000
vn -0.00000000 0.00000000 -0.00000000
vn 0.00000000 0.00000000 -0.00000000
vn -0.00000000 -0.00000000 -0.00000000
vn 0.00000000 0.00000000 -0.00000000
vn -0.00000000 -0.00000000 0.00000000
vn 0.00000000 -0.00000000 0.00000000
vn -0.00000000 0.00000000 -0.00000000
vn 0.00000000 -0.00000000 0.00000000
vn -0.00000000 0.00000000 -0.00000000
vn 0.00000000 -0.00000000 0.00000000
vn -0.00000000 0.00000000 0.00000000
vn 0.00000000 0.00000000 -0.00000000
vn -0.00000000 -0.00000000 0.00000000
vn -0.00000000 -0.00000000 0.00000000
vn 0.00000000 -0.00000000 -0.00000000
vn 0.00000000 -0.00000000 0.00000000
vn -0.00000000 -0.00000000 0.00000000
vn 0.00000000 0.00000000 0.00000000
vn -0.00000000 0.00000000 -0.00000000
vn 0.00000000 -0.00000000 0.00000000
vn 0.00000000 0.00000000 -0.00000000
vn -0.00000000 -0.00000000 0.00000000
vn -0.00000000 0.00000000 0.00000000
vn -0.00000000 0.00000000 -0.00000000
vn 0.00000000 0.00000000 0.00000000
vn -0.00000000 0.00000000 -0.00000000
vn -0.00000000 -0.00000000 -0.00000000
vn 0.00000000 0.00000000 -0.00000000
vn 0.00000000 -0.00000000 -0.00000000
vn -0.00000000 -0.00000000 0.00000000
vn -0.00000000 0.00000000 -0.00000000
vn 0.00000000 -0.00000000 0.00000000
vn 0.00000000 0.00000000 0.00000000
vn 0.00000000 0.00000000 0.00000000
vn -0.00000000 0.00000000 -0.00000000
vn -0.00000000 0.00000000 0.00000000
vn 0.00000000 0.00000000 0.00000000
vn -0.00000000 -0.00000000 0.00000000
vn 0.00000000 -0.00000000 -0.00000000
vn -0.00000000 -0.00000000 0.00000000
vn -0.00000000 0.00000000 0.00000000
vn 0.00000000 -0.00000000 -0.00000000
vn 0.00000000 0.00000000 -0.00000000
vn 0.00000000 -0.00000000 -0.00000000
vn -0.00000000 -0.00000000 0.00000000
vn 0.00000000 -0.00000000 -0.00000000
vn 0.00000000 0.00000000 -0.00000000
vn -0.00000000 0.00000000 0.00000000
vn -0.00000000 -0.00000000 0.00000000
vn 0.00000000 -0.00000000 0.00000000
vn 0.00000000 0.00000000 0.00000000
vn -0.00000000 0.00000000 0.00000000
vn -0.00000000 -0.00000000 0.00000000
vn 0.00000000 -0.00000000 -0.00000000
vn 0.00000000 0.00000000 0.00000000
vn -0.00000000 0.00000000 -0.00000000
vn -0.00000000 -0.00000000 0.00000000
vn 0.00000000 -0.00000000 -0.00000000
vn 0.00000000 0.00000000 -0.00000000
vn 0.00000000 -0.00000000 0.00000000
vn 0.00000000 0.00000000 0.00000000
vn -0.00000000 0.00000000 -0.00000000
vn -0.00000000 -0.00000000 0.00000000
vn 0.00000000 -0.00000000 -0.00000000
vn 0.00000000 0.00000000 0.00000000
vn 0.00000000 0.00000000 -0.00000000
vn 0.00000000 -0.00000000 -0.00000000
vn -0.00000000 0.00000000 0.00000000
vn -0.00000000 -0.00000000 0.00000000
vn -0.00000000 -0.00000000 -0.00000000
vn 0.00000000 0.00000000 0.00000000
vn 0.00000000 0.00000000 0.00000000
vn -0.00000000 0.00000000 -0.00000000
vn 0.00000000 0.00000000 -0.00000000
vn -0.00000000 0.00000000 0.00000000
vn -0.00000000 -0.00000000 0.00000000
vn 0.00000000 0.00000000 -0.00000000
vn 0.00000000 -0.00000000 0.00000000
vn -0.00000000 -0.00000000 -0.00000000
vn 0.00000000 0.00000000 -0.00000000
vn -0.00000000 0.00000000 0.00000000
vn 0.00000000 0.00000000 0.00000000
vn -0.00000000 -0.00000000 0.00000000
vn -0.00000000 0.00000000 -0.00000000
vn 0.00000000 -0.00000000 -0.00000000
vn 0.00000000 0.00000000 0.00000000
vn -0.00000000 -0.00000000 0.00000000
vn -0.00000000 0.00000000 -0.00000000
vn 0.00000000 -0.00000000 -0.00000000
vn 0.00000000 0.00000000 -0.00000000
vn -0.00000000 0.00000000 0.00000000
vn -0.00000000 -0.00000000 -0.00000000
vn 0.00000000 0.00000000 0.00000000
vn -0.00000000 0.00000000 -0.00000000
vn 0.00000000 0.00000000 0.00000000
vn 0.00000000 -0.00000000 -0.00000000
vn -0.00000000 -0.00000000 0.00000000
f 1//1 2//2 3//3
f 4//4 3//3 2//2
f 2//2 3//3 4//4
f 3//3 2//2 1//1
f 1//1 3//3 5//5
f 6//6 5//5 3//3
f 3//3 5//5 6//6
f 5//5 3//3 1//1
f 4//4 7//7 3//3
f 6//6 3//3 7//7
f 7//7 3//3 6//6
f 3//3 7//7 4//4
f 2//2 8//8 4//4
f 7//7 4//4 8//8
f 9//9 7//7 8//8
f 10//10 7//7 9//9
f 11//11 12//12 2//2
f 8//8 2//2 12//12
f 10//10 12//12 11//11
f 7//7 10//10 11//11
f 11//11 10//10 7//7
f 11//11 12//12 10//10
f 12//12 2//2 8//8
f 2//2 12//12 11//11
f 9//9 7//7 10//10
f 8//8 7//7 9//9
f 8//8 4//4 7//7
f 4//4 8//8 2//2
f 11//11 2//2 5//5
f 1//1 5//5 2//2
f 2//2 5//5 1//1
f 5//5 2//2 11//11
f 11//11 5//5 7//7
f 6//6 7//7 5//5
f 5//5 7//7 6//6
f 7//7 5//5 11//11
f 13//13 14//14 8//8
f 9//9 8//8 14//14
f 14//14 8//8 9//9
f 8//8 14//14 13//13
f 12//12 15//15 8//8
f 13//13 8//8 15//15
f 15//15 8//8 13//13
f 8//8 15//15 12//12
f 16//16 15//15 10//10
f 12//12 10//10 15//15
f 15//15 10//10 12//12
f 10//10 15//15 16//16
f 16//16 10//10 14//14
f 9//9 14//14 10//10
f 10//10 14//14 9//9
f 14//14 10//10 16//16
f 13//13 15//15 14//14
f 16//16 14//14 15//15
f 15//15 14//14 16//16
f 14//14 15//15 13//13
f 17//17 18//18 19//19
f 20//20 19//19 18//18
f 18//18 19//19 20//20
f 19//19 18//18 17//17
f 17//17 19//19 21//21
f 22//22 21//21 19//19
f 19//19 21//21 22//22
f 21//21 19//19 17//17
f 20//20 23//23 19//19
f 22//22 19//19 23//23
f 23//23 19//19 22//22
f 19//19 23//23 20//20
f 18//18 24//24 20//20
f 23//23 20//20 24//24
f 25//25 23//23 24//24
f 26//26 23//23 25//25
f 27//27 28//28 18//18
f 24//24 18//18 28//28
f 26//26 28//28 27//27
f 23//23 26//26 27//27
f 27//27 26//26 23//23
f 27//27 28//28 26//26
f 28//28 18//18 24//24
f 18//18 28//28 27//27
f 25//25 23//23 26//26
f 24//24 23//23 25//25
f 24//24 20//20 23//23
f 20//20 24//24 18//18
f 27//27 18//18 21//21
f 17//17 21//21 18//18
f 18//18 21//21 17//17
f 21//21 18//18 27//27
f 27//27 21//21 23//23
f 22//22 23//23 21//21
f 21//21 23//23 22//22
f 23//23 21//21 27//27
f 29//29 30//30 24//24
f 25//25 24//24 30//30
f 30//30 24//24 25//25
f 24//24 30//30 29//29
f 28//28 31//31 24//24
f 29//29 24//24 31//31
f 31//31 24//24 29//29
f 24//24 31//31 28//28
f 32//32 31//31 26//26
f 28//28 26//26 31//31
f 31//31 26//26 28//28
f 26//26 31//31 32//32
f 32//32 26//26 30//30
f 25//25 30//30 26//26
f 26//26 30//30 25//25
f 30//30 26//26 32//32
f 29//29 31//31 30//30
f 32//32 30//30 31//31
f 31//31 30//30 32//32
f 30//30 31//31 29//29
f 33//33 34//34 35//35
f 36//36 35//35 34//34
f 34//34 35//35 36//36
f 35//35 34//34 33//33
f 34//34 37//37 36//36
f 38//38 36//36 37//37
f 37//37 36//36 38//38
f 36//36 37//37 34//34
f 33//33 35//35 39//39
f 40//40 39//39 35//35
f 35//35 39//39 40//40
f 39//39 35//35 33//33
f 36//36 38//38 35//35
f 40//40 35//35 38//38
f 38//38 35//35 40//40
f 35//35 38//38 36//36
f 37//37 39//39 38//38
f 40//40 38//38 39//39
f 39//39 38//38 40//40
f 38//38 39//39 37//37
f 41//41 42//42 43//43
f 44//44 43//43 42//42
f 42//42 43//43 44//44
f 43//43 42//42 41//41
f 41//41 43//43 45//45
f 46//46 45//45 43//43
f 43//43 45//45 46//46
f 45//45 43//43 41//41
f 47//47 34//34 44//44
f 43//43 44//44 34//34
f 33//33 43//43 34//34
f 39//39 43//43 33//33
f 46//46 37//37 47//47
f 34//34 47//47 37//37
f 39//39 37//37 46//46
f 43//43 39//39 46//46
f 46//46 39//39 43//43
f 46//46 37//37 39//39
f 37//37 47//47 34//34
f 47//47 37//37 46//46
f 33//33 43//43 39//39
f 34//34 43//43 33//33
f 34//34 44//44 43//43
f 44//44 34//34 47//47
f 44//44 42//42 47//47
f 48//48 47//47 42//42
f 42//42 47//47 48//48
f 47//47 42//42 44//44
f 48//48 42//42 45//45
f 41//41 45//45 42//42
f 42//42 45//45 41//41
f 45//45 42//42 48//48
f 48//48 45//45 47//47
f 46//46 47//47 45//45
f 45//45 47//47 46//46
f 47//47 45//45 48//48
f 49//49 50//50 51//51
f 52//52 51//51 50//50
f 50//50 51//51 52//52
f 51//51 50//50 49//49
f 50//50 53//53 52//52
f 54//54 52//52 53//53
f 53//53 52//52 54//54
f 52//52 53//53 50//50
f 49//49 51//51 55//55
f 56//56 55//55 51//51
f 51//51 55//55 56//56
f 55//55 51//51 49//49
f 52//52 54//54 51//51
f 56//56 51//51 54//54
f 54//54 51//51 56//56
f 51//51 54//54 52//52
f 53//53 55//55 54//54
f 56//56 54//54 55//55
f 55//55 54//54 56//56
f 54//54 55//55 53//53
f 57//57 58//58 59//59
f 60//60 59//59 58//58
f 58//58 59//59 60//60
f 59//59 58//58 57//57
f 57//57 59//59 61//61
f 62//62 61//61 59//59
f 59//59 61//61 62//62
f 61//61 59//59 57//57
f 63//63 50//50 60//60
f 59//59 60//60 50//50
f 49//49 59//59 50//50
f 55//55 59//59 49//49
f 62//62 53//53 63//63
f 50//50 63//63 53//53
f 55//55 53//53 62//62
f 59//59 55//55 62//62
f 62//62 55//55 59//59
f 62//62 53//53 55//55
f 53//53 63//63 50//50
f 63//63 53//53 62//62
f 49//49 59//59 55//55
f 50//50 59//59 49//49
f 50//50 60//60 59//59
f 60//60 50//50 63//63
f 60//60 58//58 63//63
f 64//64 63//63 58//58
f 58//58 63//63 64//64
f 63//63 58//58 60//60
f 64//64 58//58 61//61
f 57//57 61//61 58//58
f 58//58 61//61 57//57
f 61//61 58//58 64//64
f 64//64 61//61 63//63
f 62//62 63//63 61//61
f 61//61 63//63 62//62
f 63//63 61//61 64//64
f 65//65 66//66 67//67
f 68//68 67//67 66//66
f 66//66 67//67 68//68
f 67//67 66//66 65//65
f 66//66 69//69 68//68
f 70//70 68//68 69//69
f 69//69 68//68 70//70
f 68//68 69//69 66//66
f 65//65 67//67 71//71
f 72//72 71//71 67//67
f 67//67 71//71 72//72
f 71//71 67//67 65//65
f 68//68 70//70 67//67
f 72//72 67//67 70//70
f 70//70 67//67 72//72
f 67//67 70//70 68//68
f 69//69 71//71 70//70
f 72//72 70//70 71//71
f 71//71 70//70 72//72
f 70//70 71//71 69//69
f 73//73 74//74 75//75
f 76//76 75//75 74//74
f 74//74 75//75 76//76
f 75//75 74//74 73//73
f 73//73 75//75 77//77
f 78//78 77//77 75//75
f 75//75 77//77 78//78
f 77//77 75//75 73//73
f 79//79 66//66 76//76
f 75//75 76//76 66//66
f 65//65 75//75 66//66
f 71//71 75//75 65//65
f 78//78 69//69 79//79
f 66//66 79//79 69//69
f 71//71 69//69 78//78
f 75//75 71//71 78//78
f 78//78 71//71 75//75
f 78//78 69//69 71//71
f 69//69 79//79 66//66
f 79//79 69//69 78//78
f 65//65 75//75 71//71
f 66//66 75//75 65//65
f 66//66 76//76 75//75
f 76//76 66//66 79//79
f 76//76 74//74 79//79
f 80//80 79//79 74//74
f 74//74 79//79 80//80
f 79//79 74//74 76//76
f 80//80 74//74 77//77
f 73//73 77//77 74//74
f 74//74 77//77 73//73
f 77//77 74//74 80//80
f 80//80 77//77 79//79
f 78//78 79//79 77//77
f 77//77 79//79 78//78
f 79//79 77//77 80//80
f 81//81 82//82 83//83
f 84//84 83//83 82//82
f 82//82 83//83 84//84
f 83//83 82//82 81//81
f 82//82 85//85 84//84
f 86//86 84//84 85//85
f 85//85 84//84 86//86
f 84//84 85//85 82//82
f 81//81 83//83 87//87
f 88//88 87//87 83//83
f 83//83 87//87 88//88
f 87//87 83//83 81//81
f 84//84 86//86 83//83
f 88//88 83//83 86//86
f 86//86 83//83 88//88
f 83//83 86//86 84//84
f 85//85 87//87 86//86
f 88//88 86//86 87//87
f 87//87 86//86 88//88
f 86//86 87//87 85//85
f 89//89 90//90 91//91
f 92//92 91//91 90//90
f 90//90 91//91 92//92
f 91//91 90//90 89//89
f 89//89 91//91 93//93
f 94//94 93//93 91//91
f 91//91 93//93 94//94
f 93//93 91//91 89//89
f 95//95 82//82 92//92
f 91//91 92//92 82//82
f 81//81 91//91 82//82
f 87//87 91//91 81//81
f 94//94 85//85 95//95
f 82//82 95//95 85//85
f 87//87 85//85 94//94
f 91//91 87//87 94//94
f 94//94 87//87 91//91
f 94//94 85//85 87//87
f 85//85 95//95 82//82
f 95//95 85//85 94//94
f 81//81 91//91 87//87
f 82//82 91//91 81//81
f 82//82 92//92 91//91
f 92//92 82//82 95//95
f 92//92 90//90 95//95
f 96//96 95//95 90//90
f 90//90 95//95 96//96
f 95//95 90//90 92//92
f 96//96 90//90 93//93
f 89//89 93//93 90//90
f 90//90 93//93 89//89
f 93//93 90//90 96//96
f 96//96 93//93 95//95
f 94//94 95//95 93//93
f 93//93 95//95 94//94
f 95//95 93//93 96//96
f 97//97 98//98 99//99
f 100//100 99//99 98//98
f 98//98 99//99 100//100
f 99//99 98//98 97//97
f 100//100 101//101 99//99
f 102//102 99//99 101//101
f 101//101 99//99 102//102
f 99//99 101//101 100//100
f 98//98 103//103 100//100
f 101//101 100//100 103//103
f 104//104 101//101 103//103
f 105//105 101//101 104//104
f 106//106 107//107 98//98
f 103//103 98//98 107//107
f 105//105 107//107 106//106
f 101//101 105//105 106//106
f 106//106 105//105 101//101
f 106//106 107//107 105//105
f 107//107 98//98 103//103
f 98//98 107//107 106//106
f 104//104 101//101 105//105
f 103//103 101//101 104//104
f 103//103 100//100 101//101
f 100//100 103//103 98//98
f 106//106 98//98 108//108
f 97//97 108//108 98//98
f 98//98 108//108 97//97
f 108//108 98//98 106//106
f 97//97 99//99 108//108
f 102//102 108//108 99//99
f 99//99 108//108 102//102
f 108//108 99//99 97//97
f 106//106 108//108 101//101
f 102//102 101//101 108//108
f 108//108 101//101 102//102
f 101//101 108//108 106//106
f 109//109 105//105 110//110
f 104//104 110//110 105//105
f 105//105 110//110 104//104
f 110//110 105//105 109//109
f 111//111 110//110 103//103
f 104//104 103//103 110//110
f 110//110 103//103 104//104
f 103//103 110//110 111//111
f 109//109 112//112 105//105
f 107//107 105//105 112//112
f 112//112 105//105 107//107
f 105//105 112//112 109//109
f 111//111 112//112 110//110
f 109//109 110//110 112//112
f 112//112 110//110 109//109
f 110//110 112//112 111//111
f 107//107 112//112 103//103
f 111//111 103//103 112//112
f 112//112 103//103 111//111
f 103//103 112//112 107//107
f 113//113 114//114 115//115
f 116//116 115//115 114//114
f 114//114 115//115 116//116
f 115//115 114//114 113//113
f 116//116 117//117 115//115
f 118//118 115//115 117//117
f 117//117 115//115 118//118
f 115//115 117//117 116//116
f 114//114 119//119 116//116
f 117//117 116//116 119//119
f 120//120 117//117 119//119
f 121//121 117//117 120//120
f 122//122 123//123 114//114
f 119//119 114//114 123//123
f 121//121 123//123 122//122
f 117//117 121//121 122//122
f 122//122 121//121 117//117
f 122//122 123//123 121//121
f 123//123 114//114 119//119
f 114//114 123//123 122//122
f 120//120 117//117 121//121
f 119//119 117//117 120//120
f 119//119 116//116 117//117
f 116//116 119//119 114//114
f 122//122 114//114 124//124
f 113//113 124//124 114//114
f 114//114 124//124 113//113
f 124//124 114//114 122//122
f 113//113 115//115 124//124
f 118//118 124//124 115//115
f 115//115 124//124 118//118
f 124//124 115//115 113//113
f 122//122 124//124 117//117
f 118//118 117//117 124//124
f 124//124 117//117 118//118
f 117//117 124//124 122//122
f 125//125 121//121 126//126
f 120//120 126//126 121//121
f 121//121 126//126 120//120
f 126//126 121//121 125//125
f 127//127 126//126 119//119
f 120//120 119//119 126//126
f 126//126 119//119 120//120
f 119//119 126//126 127//127
f 125//125 128//128 121//121
f 123//123 121//121 128//128
f 128//128 121//121 123//123
f 121//121 128//128 125//125
f 127//127 128//128 126//126
f 125//125 126//126 128//128
f 128//128 126//126 125//125
f 126//126 128//128 127//127
f 123//123 128//128 119//119
f 127//127 119//119 128//128
f 128//128 119//119 127//127
f 119//119 128//128 123//123
f 129//129 130//130 131//131
f 132//132 131//131 130//130
f 130//130 131//131 132//132
f 131//131 130//130 129//129
f 132//132 133//133 131//131
f 134//134 131//131 133//133
f 133//133 131//131 134//134
f 131//131 133//133 132//132
f 130//130 135//135 132//132
f 133//133 132//132 135//135
f 136//136 133//133 135//135
f 137//137 133//133 136//136
f 138//138 139//139 130//130
f 135//135 130//130 139//139
f 137//137 139//139 138//138
f 133//133 137//137 138//138
f 138//138 137//137 133//133
f 138//138 139//139 137//137
f 139//139 130//130 135//135
f 130//130 139//139 138//138
f 136//136 133//133 137//137
f 135//135 133//133 136//136
f 135//135 132//132 133//133
f 132//132 135//135 130//130
f 138//138 130//130 140//140
f 129//129 140//140 130//130
f 130//130 140//140 129//129
f 140//140 130//130 138//138
f 129//129 131//131 140//140
f 134//134 140//140 131//131
f 131//131 140//140 134//134
f 140//140 131//131 129//129
f 138//138 140//140 133//133
f 134//134 133//133 140//140
f 140//140 133//133 134//134
f 133//133 140//140 138//138
f 141//141 137//137 142//142
f 136//136 142//142 137//137
f 137//137 142//142 136//136
f 142//142 137//137 141//141
f 143//143 142//142 135//135
f 136//136 135//135 142//142
f 142//142 135//135 136//136
f 135//135 142//142 143//143
f 141//141 144//144 137//137
f 139//139 137//137 144//144
f 144//144 137//137 139//139
f 137//137 144//144 141//141
f 143//143 144//144 142//142
f 141//141 142//142 144//144
f 144//144 142//142 141//141
f 142//142 144//144 143//143
f 139//139 144//144 135//135
f 143//143 135//135 144//144
f 144//144 135//135 143//143
f 135//135 144//144 139//139
f 145//145 146//146 147//147
f 148//148 147//147 146//146
f 146//146 147//147 148//148
f 147//147 146//146 145//145
f 148//148 149//149 147//147
f 150//150 147//147 149//149
f 149//149 147//147 150//150
f 147//147 149//149 148//148
f 146//146 151//151 148//148
f 149//149 148//148 151//151
f 152//152 149//149 151//151
f 153//153 149//149 152//152
f 154//154 155//155 146//146
f 151//151 146//146 155//155
f 153//153 155//155 154//154
f 149//149 153//153 154//154
f 154//154 153//153 149//149
f 154//154 155//155 153//153
f 155//155 146//146 151//151
f 146//146 155//155 154//154
f 152//152 149//149 153//153
f 151//151 149//149 152//152
f 151//151 148//148 149//149
f 148//148 151//151 146//146
f 154//154 146//146 156//156
f 145//145 156//156 146//146
f 146//146 156//156 145//145
f 156//156 146//146 154//154
f 145//145 147//147 156//156
f 150//150 156//156 147//147
f 147//147 156//156 150//150
f 156//156 147//147 145//145
f 154//154 156//156 149//149
f 150//150 149//149 156//156
f 156//156 149//149 150//150
f 149//149 156//156 154//154
f 157//157 153//153 158//158
f 152//152 158//158 153//153
f 153//153 158//158 152//152
f 158//158 153//153 157//157
f 159//159 158//158 151//151
f 152//152 151//151 158//158
f 158//158 151//151 152//152
f 151//151 158//158 159//159
f 157//157 160//160 153//153
f 155//155 153//153 160//160
f 160//160 153//153 155//155
f 153//153 160//160 157//157
f 159//159 160//160 158//158
f 157//157 158//158 160//160
f 160//160 158//158 157//157
f 158//158 160//160 159//159
f 155//155 160//160 151//151
f 159//159 151//151 160//160
f 160//160 151//151 159//159
f 151//151 160//160 155//155
f 161//161 162//162 163//163
f 164//164 163//163 162//162
f 162//162 163//163 164//164
f 163//163 162//162 161//161
f 165//165 162//162 166//166
f 161//161 166//166 162//162
f 162//162 166//166 161//161
f 166//166 162//162 165//165
f 161//161 163//163 166//166
f 167//167 166//166 163//163
f 163//163 166//166 167//167
f 166//166 163//163 161//161
f 164//164 168//168 163//163
f 167//167 163//163 168//168
f 168//168 163//163 167//167
f 163//163 168//168 164//164
f 164//164 162//162 168//168
f 165//165 168//168 162//162
f 162//162 168//168 165//165
f 168//168 162//162 164//164
f 166//166 169//169 165//165
f 168//168 165//165 169//169
f 170//170 168//168 169//169
f 171//171 168//168 170//170
f 167//167 172//172 166//166
f 169//169 166//166 172//172
f 171//171 172//172 167//167
f 168//168 171//171 167//167
f 167//167 171//171 168//168
f 167//167 172//172 171//171
f 172//172 166//166 169//169
f 166//166 172//172 167//167
f 170//170 168//168 171//171
f 169//169 168//168 170//170
f 169//169 165//165 168//168
f 165//165 169//169 166//166
f 170//170 60//60 171//171
f 59//59 171//171 60//60
f 60//60 171//171 59//59
f 171//171 60//60 170//170
f 58//58 60//60 169//169
f 170//170 169//169 60//60
f 60//60 169//169 170//170
f 169//169 60//60 58//58
f 58//58 169//169 57//57
f 172//172 57//57 169//169
f 169//169 57//57 172//172
f 57//57 169//169 58//58
f 59//59 57//57 171//171
f 172//172 171//171 57//57
f 57//57 171//171 172//172
f 171//171 57//57 59//59
f 58//58 57//57 60//60
f 59//59 60//60 57//57
f 57//57 60//60 59//59
f 60//60 57//57 58//58
f 163//163 173//173 174//174
f 175//175 174//174 173//173
f 173//173 174//174 175//175
f 174//174 173//173 163//163
f 176//176 164//164 174//174
f 163//163 174//174 164//164
f 164//164 174//174 163//163
f 174//174 164//164 176//176
f 176//176 174//174 177//177
f 175//175 177//177 174//174
f 174//174 177//177 175//175
f 177//177 174//174 176//176
f 177//177 178//178 179//179
f 173//173 179//179 178//178
f 180//180 173//173 178//178
f 181//181 173//173 180//180
f 175//175 182//182 177//177
f 178//178 177//177 182//182
f 181//181 182//182 175//175
f 173//173 181//181 175//175
f 175//175 181//181 173//173
f 175//175 182//182 181//181
f 182//182 177//177 178//178
f 177//177 182//182 175//175
f 180//180 173//173 181//181
f 178//178 173//173 180//180
f 178//178 179//179 173//173
f 179//179 178//178 177//177
f 163//163 164//164 173//173
f 179//179 173//173 164//164
f 164//164 173//173 179//179
f 173//173 164//164 163//163
f 179//179 164//164 177//177
f 176//176 177//177 164//164
f 164//164 177//177 176//176
f 177//177 164//164 179//179
f 150//150 149//149 180//180
f 181//181 180//180 149//149
f 149//149 180//180 181//181
f 180//180 149//149 150//150
f 156//156 150//150 178//178
f 180//180 178//178 150//150
f 150//150 178//178 180//180
f 178//178 150//150 156//156
f 156//156 178//178 154//154
f 182//182 154//154 178//178
f 178//178 154//154 182//182
f 154//154 178//178 156//156
f 149//149 154//154 181//181
f 182//182 181//181 154//154
f 154//154 181//181 182//182
f 181//181 154//154 149//149
f 156//156 154//154 150//150
f 149//149 150//150 154//154
f 154//154 150//150 149//149
f 150//150 154//154 156//156
f 183//183 184//184 185//185
f 186//186 185//185 184//184
f 184//184 185//185 186//186
f 185//185 184//184 183//183
f 187//187 188//188 185//185
f 183//183 185//185 188//188
f 188//188 185//185 183//183
f 185//185 188//188 187//187
f 187//187 185//185 189//189
f 186//186 189//189 185//185
f 185//185 189//189 186//186
f 189//189 185//185 187//187
f 189//189 190//190 191//191
f 184//184 191//191 190//190
f 192//192 184//184 190//190
f 193//193 184//184 192//192
f 186//186 194//194 189//189
f 190//190 189//189 194//194
f 193//193 194//194 186//186
f 184//184 193//193 186//186
f 186//186 193//193 184//184
f 186//186 194//194 193//193
f 194//194 189//189 190//190
f 189//189 194//194 186//186
f 192//192 184//184 193//193
f 190//190 184//184 192//192
f 190//190 191//191 184//184
f 191//191 190//190 189//189
f 183//183 188//188 184//184
f 191//191 184//184 188//188
f 188//188 184//184 191//191
f 184//184 188//188 183//183
f 191//191 188//188 189//189
f 187//187 189//189 188//188
f 188//188 189//189 187//187
f 189//189 188//188 191//191
f 132//132 131//131 192//192
f 193//193 192//192 131//131
f 131//131 192//192 193//193
f 192//192 131//131 132//132
f 130//130 132//132 190//190
f 192//192 190//190 132//132
f 132//132 190//190 192//192
f 190//190 132//132 130//130
f 130//130 190//190 129//129
f 194//194 129//129 190//190
f 190//190 129//129 194//194
f 129//129 190//190 130//130
f 131//131 129//129 193//193
f 194//194 193//193 129//129
f 129//129 193//193 194//194
f 193//193 129//129 131//131
f 130//130 129//129 132//132
f 131//131 132//132 129//129
f 129//129 132//132 131//131
f 132//132 129//129 130//130
f 185//185 187//187 195//195
f 196//196 195//195 187//187
f 187//187 195//195 196//196
f 195//195 187//187 185//185
f 197//197 187//187 198//198
f 185//185 198//198 187//187
f 187//187 198//198 185//185
f 198//198 187//187 197//197
f 185//185 195//195 198//198
f 199//199 198//198 195//195
f 195//195 198//198 199//199
f 198//198 195//195 185//185
f 196//196 200//200 195//195
f 199//199 195//195 200//200
f 200//200 195//195 199//199
f 195//195 200//200 196//196
f 196//196 187//187 200//200
f 197//197 200//200 187//187
f 187//187 200//200 197//197
f 200//200 187//187 196//196
f 198//198 201//201 197//197
f 200//200 197//197 201//201
f 202//202 200//200 201//201
f 203//203 200//200 202//202
f 199//199 204//204 198//198
f 201//201 198//198 204//204
f 203//203 204//204 199//199
f 200//200 203//203 199//199
f 199//199 203//203 200//200
f 199//199 204//204 203//203
f 204//204 198//198 201//201
f 198//198 204//204 199//199
f 202//202 200//200 203//203
f 201//201 200//200 202//202
f 201//201 197//197 200//200
f 197//197 201//201 198//198
f 202//202 96//96 203//203
f 93//93 203//203 96//96
f 96//96 203//203 93//93
f 203//203 96//96 202//202
f 95//95 96//96 201//201
f 202//202 201//201 96//96
f 96//96 201//201 202//202
f 201//201 96//96 95//95
f 95//95 201//201 94//94
f 204//204 94//94 201//201
f 201//201 94//94 204//204
f 94//94 201//201 95//95
f 93//93 94//94 203//203
f 204//204 203//203 94//94
f 94//94 203//203 204//204
f 203//203 94//94 93//93
f 95//95 94//94 96//96
f 93//93 96//96 94//94
f 94//94 96//96 93//93
f 96//96 94//94 95//95
f 205//205 206//206 207//207
f 208//208 207//207 206//206
f 206//206 207//207 208//208
f 207//207 206//206 205//205
f 209//209 210//210 207//207
f 205//205 207//207 210//210
f 210//210 207//207 205//205
f 207//207 210//210 209//209
f 209//209 207//207 211//211
f 208//208 211//211 207//207
f 207//207 211//211 208//208
f 211//211 207//207 209//209
f 211//211 212//212 213//213
f 206//206 213//213 212//212
f 214//214 206//206 212//212
f 215//215 206//206 214//214
f 208//208 216//216 211//211
f 212//212 211//211 216//216
f 215//215 216//216 208//208
f 206//206 215//215 208//208
f 208//208 215//215 206//206
f 208//208 216//216 215//215
f 216//216 211//211 212//212
f 211//211 216//216 208//208
f 214//214 206//206 215//215
f 212//212 206//206 214//214
f 212//212 213//213 206//206
f 213//213 212//212 211//211
f 205//205 210//210 206//206
f 213//213 206//206 210//210
f 210//210 206//206 213//213
f 206//206 210//210 205//205
f 213//213 210//210 211//211
f 209//209 211//211 210//210
f 210//210 211//211 209//209
f 211//211 210//210 213//213
f 100//100 99//99 214//214
f 215//215 214//214 99//99
f 99//99 214//214 215//215
f 214//214 99//99 100//100
f 98//98 100//100 212//212
f 214//214 212//212 100//100
f 100//100 212//212 214//214
f 212//212 100//100 98//98
f 98//98 212//212 97//97
f 216//216 97//97 212//212
f 212//212 97//97 216//216
f 97//97 212//212 98//98
f 99//99 97//97 215//215
f 216//216 215//215 97//97
f 97//97 215//215 216//216
f 215//215 97//97 99//99
f 98//98 97//97 100//100
f 99//99 100//100 97//97
f 97//97 100//100 99//99
f 100//100 97//97 98//98
f 217//217 218//218 219//219
f 220//220 219//219 218//218
f 218//218 219//219 220//220
f 219//219 218//218 217//217
f 221//221 218//218 222//222
f 217//217 222//222 218//218
f 218//218 222//222 217//217
f 222//222 218//218 221//221
f 217//217 219//219 222//222
f 223//223 222//222 219//219
f 219//219 222//222 223//223
f 222//222 219//219 217//217
f 220//220 224//224 219//219
f 223//223 219//219 224//224
f 224//224 219//219 223//223
f 219//219 224//224 220//220
f 220//220 218//218 224//224
f 221//221 224//224 218//218
f 218//218 224//224 221//221
f 224//224 218//218 220//220
f 222//222 225//225 221//221
f 224//224 221//221 225//225
f 226//226 224//224 225//225
f 227//227 224//224 226//226
f 223//223 228//228 222//222
f 225//225 222//222 228//228
f 227//227 228//228 223//223
f 224//224 227//227 223//223
f 223//223 227//227 224//224
f 223//223 228//228 227//227
f 228//228 222//222 225//225
f 222//222 228//228 223//223
f 226//226 224//224 227//227
f 225//225 224//224 226//226
f 225//225 221//221 224//224
f 221//221 225//225 222//222
f 226//226 76//76 227//227
f 75//75 227//227 76//76
f 76//76 227//227 75//75
f 227//227 76//76 226//226
f 74//74 76//76 225//225
f 226//226 225//225 76//76
f 76//76 225//225 226//226
f 225//225 76//76 74//74
f 74//74 225//225 73//73
f 228//228 73//73 225//225
f 225//225 73//73 228//228
f 73//73 225//225 74//74
f 75//75 73//73 227//227
f 228//228 227//227 73//73
f 73//73 227//227 228//228
f 227//227 73//73 75//75
f 74//74 73//73 76//76
f 75//75 76//76 73//73
f 73//73 76//76 75//75
f 76//76 73//73 74//74
f 219//219 229//229 230//230
f 231//231 230//230 229//229
f 229//229 230//230 231//231
f 230//230 229//229 219//219
f 232//232 220//220 230//230
f 219//219 230//230 220//220
f 220//220 230//230 219//219
f 230//230 220//220 232//232
f 232//232 230//230 233//233
f 231//231 233//233 230//230
f 230//230 233//233 231//231
f 233//233 230//230 232//232
f 233//233 234//234 235//235
f 229//229 235//235 234//234
f 236//236 229//229 234//234
f 237//237 229//229 236//236
f 231//231 238//238 233//233
f 234//234 233//233 238//238
f 237//237 238//238 231//231
f 229//229 237//237 231//231
f 231//231 237//237 229//229
f 231//231 238//238 237//237
f 238//238 233//233 234//234
f 233//233 238//238 231//231
f 236//236 229//229 237//237
f 234//234 229//229 236//236
f 234//234 235//235 229//229
f 235//235 234//234 233//233
f 219//219 220//220 229//229
f 235//235 229//229 220//220
f 220//220 229//229 235//235
f 229//229 220//220 219//219
f 235//235 220//220 233//233
f 232//232 233//233 220//220
f 220//220 233//233 232//232
f 233//233 220//220 235//235
f 118//118 117//117 236//236
f 237//237 236//236 117//117
f 117//117 236//236 237//237
f 236//236 117//117 118//118
f 124//124 118//118 234//234
f 236//236 234//234 118//118
f 118//118 234//234 236//236
f 234//234 118//118 124//124
f 124//124 234//234 122//122
f 238//238 122//122 234//234
f 234//234 122//122 238//238
f 122//122 234//234 124//124
f 117//117 122//122 237//237
f 238//238 237//237 122//122
f 122//122 237//237 238//238
f 237//237 122//122 117//117
f 124//124 122//122 118//118
f 117//117 118//118 122//122
f 122//122 118//118 117//117
f 118//118 122//122 124//124
f 207//207 209//209 239//239
f 240//240 239//239 209//209
f 209//209 239//239 240//240
f 239//239 209//209 207//207
f 241//241 209//209 242//242
f 207//207 242//242 209//209
f 209//209 242//242 207//207
f 242//242 209//209 241//241
f 207//207 239//239 242//242
f 243//243 242//242 239//239
f 239//239 242//242 243//243
f 242//242 239//239 207//207
f 240//240 244//244 239//239
f 243//243 239//239 244//244
f 244//244 239//239 243//243
f 239//239 244//244 240//240
f 240//240 209//209 244//244
f 241//241 244//244 209//209
f 209//209 244//244 241//241
f 244//244 209//209 240//240
f 242//242 245//245 241//241
f 244//244 241//241 245//245
f 246//246 244//244 245//245
f 247//247 244//244 246//246
f 243//243 248//248 242//242
f 245//245 242//242 248//248
f 247//247 248//248 243//243
f 244//244 247//247 243//243
f 243//243 247//247 244//244
f 243//243 248//248 247//247
f 248//248 242//242 245//245
f 242//242 248//248 243//243
f 246//246 244//244 247//247
f 245//245 244//244 246//246
f 245//245 241//241 244//244
f 241//241 245//245 242//242
f 246//246 48//48 247//247
f 45//45 247//247 48//48
f 48//48 247//247 45//45
f 247//247 48//48 246//246
f 47//47 48//48 245//245
f 246//246 245//245 48//48
f 48//48 245//245 246//246
f 245//245 48//48 47//47
f 47//47 245//245 46//46
f 248//248 46//46 245//245
f 245//245 46//46 248//248
f 46//46 245//245 47//47
f 45//45 46//46 247//247
f 248//248 247//247 46//46
f 46//46 247//247 248//248
f 247//247 46//46 45//45
f 47//47 46//46 48//48
f 45//45 48//48 46//46
f 46//46 48//48 45//45
f 48//48 46//46 47//47
f 249//249 250//250 251//251
f 246//246 251//251 250//250
f 245//245 251//251 246//246
f 37//37 251//251 245//245
f 252//252 251//251 37//37
f 246//246 250//250 253//253
f 253//253 250//250 246//246
f 37//37 251//251 252//252
f 245//245 251//251 37//37
f 246//246 251//251 245//245
f 250//250 251//251 246//246
f 251//251 250//250 249//249
f 249//249 254//254 250//250
f 255//255 250//250 254//254
f 254//254 250//250 255//255
f 250//250 254//254 249//249
f 256//256 254//254 251//251
f 249//249 251//251 254//254
f 254//254 251//251 249//249
f 251//251 254//254 256//256
f 256//256 251//251 257//257
f 252//252 257//257 251//251
f 251//251 257//257 252//252
f 257//257 251//251 256//256
f 50//50 257//257 37//37
f 252//252 37//37 257//257
f 257//257 37//37 252//252
f 37//37 257//257 50//50
f 245//245 170//170 37//37
f 50//50 37//37 170//170
f 170//170 37//37 50//50
f 37//37 170//170 245//245
f 169//169 170//170 246//246
f 245//245 246//246 170//170
f 170//170 246//246 245//245
f 246//246 170//170 169//169
f 169//169 246//246 258//258
f 253//253 258//258 246//246
f 246//246 258//258 253//253
f 258//258 246//246 169//169
f 255//255 258//258 250//250
f 253//253 250//250 258//258
f 258//258 250//250 253//253
f 250//250 258//258 255//255
f 50//50 170//170 257//257
f 255//255 254//254 258//258
f 169//169 258//258 254//254
f 256//256 169//169 254//254
f 170//170 169//169 256//256
f 257//257 170//170 256//256
f 256//256 170//170 257//257
f 256//256 169//169 170//170
f 254//254 169//169 256//256
f 254//254 258//258 169//169
f 258//258 254//254 255//255
f 257//257 170//170 50//50
f 259//259 260//260 261//261
f 202//202 261//261 260//260
f 201//201 261//261 202//202
f 85//85 261//261 201//201
f 262//262 261//261 85//85
f 202//202 260//260 263//263
f 263//263 260//260 202//202
f 85//85 261//261 262//262
f 201//201 261//261 85//85
f 202//202 261//261 201//201
f 260//260 261//261 202//202
f 261//261 260//260 259//259
f 259//259 264//264 260//260
f 265//265 260//260 264//264
f 264//264 260//260 265//265
f 260//260 264//264 259//259
f 266//266 264//264 261//261
f 259//259 261//261 264//264
f 264//264 261//261 259//259
f 261//261 264//264 266//266
f 266//266 261//261 267//267
f 262//262 267//267 261//261
f 261//261 267//267 262//262
f 267//267 261//261 266//266
f 66//66 267//267 85//85
f 262//262 85//85 267//267
f 267//267 85//85 262//262
f 85//85 267//267 66//66
f 201//201 226//226 85//85
f 66//66 85//85 226//226
f 226//226 85//85 66//66
f 85//85 226//226 201//201
f 225//225 226//226 202//202
f 201//201 202//202 226//226
f 226//226 202//202 201//201
f 202//202 226//226 225//225
f 225//225 202//202 268//268
f 263//263 268//268 202//202
f 202//202 268//268 263//263
f 268//268 202//202 225//225
f 265//265 268//268 260//260
f 263//263 260//260 268//268
f 268//268 260//260 263//263
f 260//260 268//268 265//265
f 66//66 226//226 267//267
f 265//265 264//264 268//268
f 225//225 268//268 264//264
f 266//266 225//225 264//264
f 226//226 225//225 266//266
f 267//267 226//226 266//266
f 266//266 226//226 267//267
f 266//266 225//225 226//226
f 264//264 225//225 266//266
f 264//264 268//268 225//225
f 268//268 264//264 265//265
f 267//267 226//226 66//66
f 269//269 270//270 107//107
f 121//121 107//107 270//270
f 270//270 107//107 121//121
f 107//107 270//270 269//269
f 212//212 107//107 238//238
f 121//121 238//238 107//107
f 107//107 238//238 121//121
f 238//238 107//107 212//212
f 238//238 234//234 212//212
f 216//216 212//212 234//234
f 234//234 212//212 216//216
f 212//212 234//234 238//238
f 271//271 216//216 272//272
f 234//234 272//272 216//216
f 216//216 272//272 234//234
f 272//272 216//216 271//271
f 272//272 273//273 271//271
f 274//274 271//271 273//273
f 273//273 271//271 274//274
f 271//271 273//273 272//272
f 275//275 274//274 276//276
f 273//273 276//276 274//274
f 274//274 276//276 273//273
f 276//276 274//274 275//275
f 277//277 276//276 270//270
f 238//238 270//270 276//276
f 121//121 270//270 238//238
f 273//273 234//234 276//276
f 238//238 276//276 234//234
f 272//272 234//234 273//273
f 273//273 234//234 272//272
f 234//234 276//276 238//238
f 276//276 234//234 273//273
f 238//238 270//270 121//121
f 276//276 270//270 238//238
f 270//270 276//276 277//277
f 269//269 278//278 270//270
f 277//277 270//270 278//278
f 278//278 270//270 277//277
f 270//270 278//278 269//269
f 275//275 278//278 274//274
f 216//216 274//274 278//278
f 271//271 274//274 216//216
f 269//269 212//212 278//278
f 216//216 278//278 212//212
f 107//107 212//212 269//269
f 269//269 212//212 107//107
f 212//212 278//278 216//216
f 278//278 212//212 269//269
f 216//216 274//274 271//271
f 278//278 274//274 216//216
f 274//274 278//278 275//275
f 278//278 275//275 277//277
f 276//276 277//277 275//275
f 275//275 277//277 276//276
f 277//277 275//275 278//278
f 279//279 280//280 139//139
f 153//153 139//139 280//280
f 280//280 139//139 153//153
f 139//139 280//280 279//279
f 190//190 139//139 182//182
f 153//153 182//182 139//139
f 139//139 182//182 153//153
f 182//182 139//139 190//190
f 182//182 178//178 190//190
f 194//194 190//190 178//178
f 178//178 190//190 194//194
f 190//190 178//178 182//182
f 281//281 194//194 282//282
f 178//178 282//282 194//194
f 194//194 282//282 178//178
f 282//282 194//194 281//281
f 282//282 283//283 281//281
f 284//284 281//281 283//283
f 283//283 281//281 284//284
f 281//281 283//283 282//282
f 285//285 284//284 286//286
f 283//283 286//286 284//284
f 284//284 286//286 283//283
f 286//286 284//284 285//285
f 287//287 286//286 280//280
f 182//182 280//280 286//286
f 153//153 280//280 182//182
f 283//283 178//178 286//286
f 182//182 286//286 178//178
f 282//282 178//178 283//283
f 283//283 178//178 282//282
f 178//178 286//286 182//182
f 286//286 178//178 283//283
f 182//182 280//280 153//153
f 286//286 280//280 182//182
f 280//280 286//286 287//287
f 279//279 288//288 280//280
f 287//287 280//280 288//288
f 288//288 280//280 287//287
f 280//280 288//288 279//279
f 285//285 288//288 284//284
f 194//194 284//284 288//288
f 281//281 284//284 194//194
f 279//279 190//190 288//288
f 194//194 288//288 190//190
f 139//139 190//190 279//279
f 279//279 190//190 139//139
f 190//190 288//288 194//194
f 288//288 190//190 279//279
f 194//194 284//284 281//281
f 288//288 284//284 194//194
f 284//284 288//288 285//285
f 288//288 285//285 287//287
f 286//286 287//287 285//285
f 285//285 287//287 286//286
f 287//287 285//285 288//288
f 39//39 248//248 289//289
f 290//290 243//243 291//291
f 247//247 291//291 243//243
f 242//242 247//247 243//243
f 248//248 247//247 242//242
f 289//289 248//248 242//242
f 242//242 248//248 289//289
f 242//242 247//247 248//248
f 243//243 247//247 242//242
f 243//243 291//291 247//247
f 291//291 243//243 290//290
f 289//289 248//248 39//39
f 290//290 292//292 243//243
f 166//166 243//243 292//292
f 292//292 243//243 166//166
f 243//243 292//292 290//290
f 293//293 292//292 291//291
f 290//290 291//291 292//292
f 292//292 291//291 290//290
f 291//291 292//292 293//293
f 293//293 291//291 172//172
f 247//247 172//172 291//291
f 291//291 172//172 247//247
f 172//172 291//291 293//293
f 171//171 172//172 248//248
f 247//247 248//248 172//172
f 172//172 248//248 247//247
f 248//248 172//172 171//171
f 39//39 49//49 248//248
f 171//171 248//248 49//49
f 49//49 248//248 171//171
f 248//248 49//49 39//39
f 294//294 49//49 289//289
f 39//39 289//289 49//49
f 49//49 289//289 39//39
f 289//289 49//49 294//294
f 294//294 289//289 167//167
f 242//242 167//167 289//289
f 289//289 167//167 242//242
f 167//167 289//289 294//294
f 166//166 167//167 243//243
f 242//242 243//243 167//167
f 167//167 243//243 242//242
f 243//243 167//167 166//166
f 166//166 292//292 167//167
f 172//172 167//167 292//292
f 171//171 167//167 172//172
f 49//49 167//167 171//171
f 294//294 167//167 49//49
f 172//172 292//292 293//293
f 293//293 292//292 172//172
f 49//49 167//167 294//294
f 171//171 167//167 49//49
f 172//172 167//167 171//171
f 292//292 167//167 172//172
f 167//167 292//292 166//166
f 87//87 204//204 295//295
f 296//296 199//199 297//297
f 203//203 297//297 199//199
f 198//198 203//203 199//199
f 204//204 203//203 198//198
f 295//295 204//204 198//198
f 198//198 204//204 295//295
f 198//198 203//203 204//204
f 199//199 203//203 198//198
f 199//199 297//297 203//203
f 297//297 199//199 296//296
f 295//295 204//204 87//87
f 296//296 298//298 199//199
f 222//222 199//199 298//298
f 298//298 199//199 222//222
f 199//199 298//298 296//296
f 299//299 298//298 297//297
f 296//296 297//297 298//298
f 298//298 297//297 296//296
f 297//297 298//298 299//299
f 299//299 297//297 228//228
f 203//203 228//228 297//297
f 297//297 228//228 203//203
f 228//228 297//297 299//299
f 227//227 228//228 204//204
f 203//203 204//204 228//228
f 228//228 204//204 203//203
f 204//204 228//228 227//227
f 87//87 65//65 204//204
f 227//227 204//204 65//65
f 65//65 204//204 227//227
f 204//204 65//65 87//87
f 300//300 65//65 295//295
f 87//87 295//295 65//65
f 65//65 295//295 87//87
f 295//295 65//65 300//300
f 300//300 295//295 223//223
f 198//198 223//223 295//295
f 295//295 223//223 198//198
f 223//223 295//295 300//300
f 222//222 223//223 199//199
f 198//198 199//199 223//223
f 223//223 199//199 198//198
f 199//199 223//223 222//222
f 222//222 298//298 223//223
f 228//228 223//223 298//298
f 227//227 223//223 228//228
f 65//65 223//223 227//227
f 300//300 223//223 65//65
f 228//228 298//298 299//299
f 299//299 298//298 228//228
f 65//65 223//223 300//300
f 227//227 223//223 65//65
f 228//228 223//223 227//227
f 298//298 223//223 228//228
f 223//223 298//298 222//222
f 301//301 208//208 302//302
f 229//229 302//302 208//208
f 208//208 302//302 229//229
f 302//302 208//208 301//301
f 303//303 304//304 302//302
f 301//301 302//302 304//304
f 304//304 302//302 301//301
f 302//302 304//304 303//303
f 215//215 304//304 236//236
f 303//303 236//236 304//304
f 304//304 236//236 303//303
f 236//236 304//304 215//215
f 237//237 214//214 236//236
f 215//215 236//236 214//214
f 214//214 236//236 215//215
f 236//236 214//214 237//237
f 103//103 214//214 120//120
f 237//237 120//120 214//214
f 214//214 120//120 237//237
f 120//120 214//214 103//103
f 305//305 306//306 120//120
f 103//103 120//120 306//306
f 306//306 120//120 103//103
f 120//120 306//306 305//305
f 305//305 120//120 231//231
f 237//237 231//231 120//120
f 236//236 231//231 237//237
f 303//303 302//302 236//236
f 229//229 236//236 302//302
f 231//231 236//236 229//229
f 229//229 236//236 231//231
f 302//302 236//236 229//229
f 236//236 302//302 303//303
f 237//237 231//231 236//236
f 120//120 231//231 237//237
f 231//231 120//120 305//305
f 206//206 231//231 208//208
f 229//229 208//208 231//231
f 231//231 208//208 229//229
f 208//208 231//231 206//206
f 301//301 304//304 208//208
f 215//215 208//208 304//304
f 214//214 208//208 215//215
f 103//103 306//306 214//214
f 206//206 214//214 306//306
f 208//208 214//214 206//206
f 206//206 214//214 208//208
f 306//306 214//214 206//206
f 214//214 306//306 103//103
f 215//215 208//208 214//214
f 304//304 208//208 215//215
f 208//208 304//304 301//301
f 206//206 306//306 231//231
f 305//305 231//231 306//306
f 306//306 231//231 305//305
f 231//231 306//306 206//206
f 307//307 186//186 308//308
f 173//173 308//308 186//186
f 186//186 308//308 173//173
f 308//308 186//186 307//307
f 309//309 310//310 308//308
f 307//307 308//308 310//310
f 310//310 308//308 307//307
f 308//308 310//310 309//309
f 193//193 310//310 180//180
f 309//309 180//180 310//310
f 310//310 180//180 309//309
f 180//180 310//310 193//193
f 181//181 192//192 180//180
f 193//193 180//180 192//192
f 192//192 180//180 193//193
f 180//180 192//192 181//181
f 135//135 192//192 152//152
f 181//181 152//152 192//192
f 192//192 152//152 181//181
f 152//152 192//192 135//135
f 311//311 312//312 152//152
f 135//135 152//152 312//312
f 312//312 152//152 135//135
f 152//152 312//312 311//311
f 311//311 152//152 175//175
f 181//181 175//175 152//152
f 180//180 175//175 181//181
f 309//309 308//308 180//180
f 173//173 180//180 308//308
f 175//175 180//180 173//173
f 173//173 180//180 175//175
f 308//308 180//180 173//173
f 180//180 308//308 309//309
f 181//181 175//175 180//180
f 152//152 175//175 181//181
f 175//175 152//152 311//311
f 184//184 175//175 186//186
f 173//173 186//186 175//175
f 175//175 186//186 173//173
f 186//186 175//175 184//184
f 307//307 310//310 186//186
f 193//193 186//186 310//310
f 192//192 186//186 193//193
f 135//135 312//312 192//192
f 184//184 192//192 312//312
f 186//186 192//192 184//184
f 184//184 192//192 186//186
f 312//312 192//192 184//184
f 192//192 312//312 135//135
f 193//193 186//186 192//192
f 310//310 186//186 193//193
f 186//186 310//310 307//307
f 184//184 312//312 175//175
f 311//311 175//175 312//312
f 312//312 175//175 311//311
f 175//175 312//312 184//184
f 313//313 314//314 315//315
f 316//316 315//315 314//314
f 314//314 315//315 316//316
f 315//315 314//314 313//313
f 313//313 315//315 317//317
f 318//318 317//317 315//315
f 315//315 317//317 318//318
f 317//317 315//315 313//313
f 319//319 317//317 320//320
f 318//318 320//320 317//317
f 317//317 320//320 318//318
f 320//320 317//317 319//319
f 319//319 320//320 321//321
f 322//322 321//321 320//320
f 320//320 321//321 322//322
f 321//321 320//320 319//319
f 323//323 321//321 324//324
f 322//322 324//324 321//321
f 321//321 324//324 322//322
f 324//324 321//321 323//323
f 55//55 53//53 324//324
f 323//323 324//324 53//53
f 53//53 324//324 323//323
f 324//324 53//53 55//55
f 325//325 53//53 326//326
f 55//55 326//326 53//53
f 53//53 326//326 55//55
f 326//326 53//53 325//325
f 327//327 328//328 326//326
f 325//325 326//326 328//328
f 328//328 326//326 325//325
f 326//326 328//328 327//327
f 329//329 328//328 330//330
f 327//327 330//330 328//328
f 328//328 330//330 327//327
f 330//330 328//328 329//329
f 331//331 332//332 330//330
f 329//329 330//330 332//332
f 332//332 330//330 329//329
f 330//330 332//332 331//331
f 331//331 330//330 333//333
f 327//327 333//333 330//330
f 326//326 333//333 327//327
f 315//315 333//333 326//326
f 316//316 333//333 315//315
f 55//55 324//324 326//326
f 322//322 326//326 324//324
f 318//318 326//326 322//322
f 315//315 326//326 318//318
f 320//320 318//318 322//322
f 322//322 318//318 320//320
f 318//318 326//326 315//315
f 322//322 326//326 318//318
f 324//324 326//326 322//322
f 326//326 324//324 55//55
f 315//315 333//333 316//316
f 326//326 333//333 315//315
f 327//327 333//333 326//326
f 330//330 333//333 327//327
f 333//333 330//330 331//331
f 334//334 333//333 314//314
f 316//316 314//314 333//333
f 333//333 314//314 316//316
f 314//314 333//333 334//334
f 323//323 53//53 321//321
f 325//325 321//321 53//53
f 328//328 321//321 325//325
f 317//317 321//321 328//328
f 319//319 321//321 317//317
f 329//329 332//332 328//328
f 334//334 328//328 332//332
f 313//313 328//328 334//334
f 317//317 328//328 313//313
f 314//314 313//313 334//334
f 334//334 313//313 314//314
f 313//313 328//328 317//317
f 334//334 328//328 313//313
f 332//332 328//328 334//334
f 328//328 332//332 329//329
f 317//317 321//321 319//319
f 328//328 321//321 317//317
f 325//325 321//321 328//328
f 53//53 321//321 325//325
f 321//321 53//53 323//323
f 334//334 332//332 333//333
f 331//331 333//333 332//332
f 332//332 333//333 331//331
f 333//333 332//332 334//334
f 335//335 336//336 337//337
f 338//338 337//337 336//336
f 336//336 337//337 338//338
f 337//337 336//336 335//335
f 335//335 337//337 339//339
f 340//340 339//339 337//337
f 337//337 339//339 340//340
f 339//339 337//337 335//335
f 34//34 339//339 33//33
f 340//340 33//33 339//339
f 339//339 33//33 340//340
f 33//33 339//339 34//34
f 34//34 33//33 341//341
f 342//342 341//341 33//33
f 33//33 341//341 342//342
f 341//341 33//33 34//34
f 343//343 341//341 344//344
f 342//342 344//344 341//341
f 341//341 344//344 342//342
f 344//344 341//341 343//343
f 345//345 346//346 344//344
f 343//343 344//344 346//346
f 346//346 344//344 343//343
f 344//344 346//346 345//345
f 347//347 346//346 348//348
f 345//345 348//348 346//346
f 346//346 348//348 345//345
f 348//348 346//346 347//347
f 349//349 350//350 348//348
f 347//347 348//348 350//350
f 350//350 348//348 347//347
f 348//348 350//350 349//349
f 351//351 350//350 352//352
f 349//349 352//352 350//350
f 350//350 352//352 349//349
f 352//352 350//350 351//351
f 353//353 354//354 352//352
f 351//351 352//352 354//354
f 354//354 352//352 351//351
f 352//352 354//354 353//353
f 353//353 352//352 355//355
f 349//349 355//355 352//352
f 348//348 355//355 349//349
f 337//337 355//355 348//348
f 338//338 355//355 337//337
f 345//345 344//344 348//348
f 342//342 348//348 344//344
f 340//340 348//348 342//342
f 337//337 348//348 340//340
f 33//33 340//340 342//342
f 342//342 340//340 33//33
f 340//340 348//348 337//337
f 342//342 348//348 340//340
f 344//344 348//348 342//342
f 348//348 344//344 345//345
f 337//337 355//355 338//338
f 348//348 355//355 337//337
f 349//349 355//355 348//348
f 352//352 355//355 349//349
f 355//355 352//352 353//353
f 356//356 355//355 336//336
f 338//338 336//336 355//355
f 355//355 336//336 338//338
f 336//336 355//355 356//356
f 343//343 346//346 341//341
f 347//347 341//341 346//346
f 350//350 341//341 347//347
f 339//339 341//341 350//350
f 34//34 341//341 339//339
f 351//351 354//354 350//350
f 356//356 350//350 354//354
f 335//335 350//350 356//356
f 339//339 350//350 335//335
f 336//336 335//335 356//356
f 356//356 335//335 336//336
f 335//335 350//350 339//339
f 356//356 350//350 335//335
f 354//354 350//350 356//356
f 350//350 354//354 351//351
f 339//339 341//341 34//34
f 350//350 341//341 339//339
f 347//347 341//341 350//350
f 346//346 341//341 347//347
f 341//341 346//346 343//343
f 356//356 354//354 355//355
f 353//353 355//355 354//354
f 354//354 355//355 353//353
f 355//355 354//354 356//356
f 357//357 358//358 359//359
f 360//360 359//359 358//358
f 358//358 359//359 360//360
f 359//359 358//358 357//357
f 357//357 359//359 361//361
f 362//362 361//361 359//359
f 359//359 361//361 362//362
f 361//361 359//359 357//357
f 82//82 361//361 81//81
f 362//362 81//81 361//361
f 361//361 81//81 362//362
f 81//81 361//361 82//82
f 82//82 81//81 363//363
f 364//364 363//363 81//81
f 81//81 363//363 364//364
f 363//363 81//81 82//82
f 365//365 363//363 366//366
f 364//364 366//366 363//363
f 363//363 366//366 364//364
f 366//366 363//363 365//365
f 26//26 28//28 366//366
f 365//365 366//366 28//28
f 28//28 366//366 365//365
f 366//366 28//28 26//26
f 367//367 28//28 368//368
f 26//26 368//368 28//28
f 28//28 368//368 26//26
f 368//368 28//28 367//367
f 369//369 370//370 368//368
f 367//367 368//368 370//370
f 370//370 368//368 367//367
f 368//368 370//370 369//369
f 371//371 370//370 372//372
f 369//369 372//372 370//370
f 370//370 372//372 369//369
f 372//372 370//370 371//371
f 373//373 374//374 372//372
f 371//371 372//372 374//374
f 374//374 372//372 371//371
f 372//372 374//374 373//373
f 373//373 372//372 375//375
f 369//369 375//375 372//372
f 368//368 375//375 369//369
f 359//359 375//375 368//368
f 360//360 375//375 359//359
f 26//26 366//366 368//368
f 364//364 368//368 366//366
f 362//362 368//368 364//364
f 359//359 368//368 362//362
f 81//81 362//362 364//364
f 364//364 362//362 81//81
f 362//362 368//368 359//359
f 364//364 368//368 362//362
f 366//366 368//368 364//364
f 368//368 366//366 26//26
f 359//359 375//375 360//360
f 368//368 375//375 359//359
f 369//369 375//375 368//368
f 372//372 375//375 369//369
f 375//375 372//372 373//373
f 376//376 375//375 358//358
f 360//360 358//358 375//375
f 375//375 358//358 360//360
f 358//358 375//375 376//376
f 365//365 28//28 363//363
f 367//367 363//363 28//28
f 370//370 363//363 367//367
f 361//361 363//363 370//370
f 82//82 363//363 361//361
f 371//371 374//374 370//370
f 376//376 370//370 374//374
f 357//357 370//370 376//376
f 361//361 370//370 357//357
f 358//358 357//357 376//376
f 376//376 357//357 358//358
f 357//357 370//370 361//361
f 376//376 370//370 357//357
f 374//374 370//370 376//376
f 370//370 374//374 371//371
f 361//361 363//363 82//82
f 370//370 363//363 361//361
f 367//367 363//363 370//370
f 28//28 363//363 367//367
f 363//363 28//28 365//365
f 376//376 374//374 375//375
f 373//373 375//375 374//374
f 374//374 375//375 373//373
f 375//375 374//374 376//376
f 377//377 378//378 379//379
f 380//380 379//379 378//378
f 378//378 379//379 380//380
f 379//379 378//378 377//377
f 377//377 379//379 381//381
f 382//382 381//381 379//379
f 379//379 381//381 382//382
f 381//381 379//379 377//377
f 24//24 381//381 25//25
f 382//382 25//25 381//381
f 381//381 25//25 382//382
f 25//25 381//381 24//24
f 24//24 25//25 383//383
f 384//384 383//383 25//25
f 25//25 383//383 384//384
f 383//383 25//25 24//24
f 385//385 383//383 386//386
f 384//384 386//386 383//383
f 383//383 386//386 384//384
f 386//386 383//383 385//385
f 71//71 69//69 386//386
f 385//385 386//386 69//69
f 69//69 386//386 385//385
f 386//386 69//69 71//71
f 387//387 69//69 388//388
f 71//71 388//388 69//69
f 69//69 388//388 71//71
f 388//388 69//69 387//387
f 389//389 390//390 388//388
f 387//387 388//388 390//390
f 390//390 388//388 387//387
f 388//388 390//390 389//389
f 391//391 390//390 392//392
f 389//389 392//392 390//390
f 390//390 392//392 389//389
f 392//392 390//390 391//391
f 393//393 394//394 392//392
f 391//391 392//392 394//394
f 394//394 392//392 391//391
f 392//392 394//394 393//393
f 393//393 392//392 395//395
f 389//389 395//395 392//392
f 388//388 395//395 389//389
f 379//379 395//395 388//388
f 380//380 395//395 379//379
f 71//71 386//386 388//388
f 384//384 388//388 386//386
f 382//382 388//388 384//384
f 379//379 388//388 382//382
f 25//25 382//382 384//384
f 384//384 382//382 25//25
f 382//382 388//388 379//379
f 384//384 388//388 382//382
f 386//386 388//388 384//384
f 388//388 386//386 71//71
f 379//379 395//395 380//380
f 388//388 395//395 379//379
f 389//389 395//395 388//388
f 392//392 395//395 389//389
f 395//395 392//392 393//393
f 396//396 395//395 378//378
f 380//380 378//378 395//395
f 395//395 378//378 380//380
f 378//378 395//395 396//396
f 385//385 69//69 383//383
f 387//387 383//383 69//69
f 390//390 383//383 387//387
f 381//381 383//383 390//390
f 24//24 383//383 381//381
f 391//391 394//394 390//390
f 396//396 390//390 394//394
f 377//377 390//390 396//396
f 381//381 390//390 377//377
f 378//378 377//377 396//396
f 396//396 377//377 378//378
f 377//377 390//390 381//381
f 396//396 390//390 377//377
f 394//394 390//390 396//396
f 390//390 394//394 391//391
f 381//381 383//383 24//24
f 390//390 383//383 381//381
f 387//387 383//383 390//390
f 69//69 383//383 387//387
f 383//383 69//69 385//385
f 396//396 394//394 395//395
f 393//393 395//395 394//394
f 394//394 395//395 393//393
f 395//395 394//394 396//396
f 397//397 398//398 123//123
f 399//399 123//123 398//398
f 105//105 399//399 398//398
f 105//105 400//400 399//399
f 401//401 399//399 400//400
f 402//402 401//401 400//400
f 403//403 404//404 402//402
f 401//401 402//402 404//404
f 405//405 401//401 404//404
f 406//406 405//405 404//404
f 404//404 405//405 406//406
f 404//404 401//401 405//405
f 404//404 402//402 401//401
f 402//402 404//404 403//403
f 400//400 401//401 402//402
f 400//400 399//399 401//401
f 399//399 400//400 105//105
f 398//398 399//399 105//105
f 398//398 123//123 399//399
f 123//123 398//398 397//397
f 407//407 398//398 408//408
f 397//397 408//408 398//398
f 398//398 408//408 397//397
f 408//408 398//398 407//407
f 397//397 123//123 408//408
f 119//119 408//408 123//123
f 123//123 408//408 119//119
f 408//408 123//123 397//397
f 399//399 409//409 123//123
f 119//119 123//123 409//409
f 409//409 123//123 119//119
f 123//123 409//409 399//399
f 399//399 401//401 409//409
f 410//410 409//409 401//401
f 401//401 409//409 410//410
f 409//409 401//401 399//399
f 410//410 401//401 411//411
f 405//405 411//411 401//401
f 401//401 411//411 405//405
f 411//411 401//401 410//410
f 405//405 406//406 411//411
f 412//412 411//411 406//406
f 406//406 411//411 412//412
f 411//411 406//406 405//405
f 404//404 413//413 406//406
f 412//412 406//406 413//413
f 413//413 406//406 412//412
f 406//406 413//413 404//404
f 404//404 403//403 413//413
f 414//414 413//413 403//403
f 403//403 413//413 414//414
f 413//413 403//403 404//404
f 414//414 403//403 415//415
f 402//402 415//415 403//403
f 403//403 415//415 402//402
f 415//415 403//403 414//414
f 402//402 400//400 415//415
f 416//416 415//415 400//400
f 400//400 415//415 416//416
f 415//415 400//400 402//402
f 105//105 104//104 400//400
f 416//416 400//400 104//104
f 104//104 400//400 416//416
f 400//400 104//104 105//105
f 105//105 398//398 104//104
f 407//407 104//104 398//398
f 398//398 104//104 407//407
f 104//104 398//398 105//105
f 414//414 415//415 413//413
f 410//410 413//413 415//415
f 411//411 413//413 410//410
f 412//412 413//413 411//411
f 104//104 409//409 416//416
f 410//410 416//416 409//409
f 415//415 416//416 410//410
f 407//407 408//408 104//104
f 409//409 104//104 408//408
f 119//119 409//409 408//408
f 408//408 409//409 119//119
f 408//408 104//104 409//409
f 104//104 408//408 407//407
f 410//410 416//416 415//415
f 409//409 416//416 410//410
f 416//416 409//409 104//104
f 411//411 413//413 412//412
f 410//410 413//413 411//411
f 415//415 413//413 410//410
f 413//413 415//415 414//414
f 417//417 418//418 155//155
f 419//419 155//155 418//418
f 137//137 419//419 418//418
f 137//137 420//420 419//419
f 421//421 419//419 420//420
f 422//422 421//421 420//420
f 423//423 424//424 422//422
f 421//421 422//422 424//424
f 425//425 421//421 424//424
f 426//426 425//425 424//424
f 424//424 425//425 426//426
f 424//424 421//421 425//425
f 424//424 422//422 421//421
f 422//422 424//424 423//423
f 420//420 421//421 422//422
f 420//420 419//419 421//421
f 419//419 420//420 137//137
f 418//418 419//419 137//137
f 418//418 155//155 419//419
f 155//155 418//418 417//417
f 427//427 418//418 428//428
f 417//417 428//428 418//418
f 418//418 428//428 417//417
f 428//428 418//418 427//427
f 417//417 155//155 428//428
f 151//151 428//428 155//155
f 155//155 428//428 151//151
f 428//428 155//155 417//417
f 419//419 429//429 155//155
f 151//151 155//155 429//429
f 429//429 155//155 151//151
f 155//155 429//429 419//419
f 419//419 421//421 429//429
f 430//430 429//429 421//421
f 421//421 429//429 430//430
f 429//429 421//421 419//419
f 430//430 421//421 431//431
f 425//425 431//431 421//421
f 421//421 431//431 425//425
f 431//431 421//421 430//430
f 425//425 426//426 431//431
f 432//432 431//431 426//426
f 426//426 431//431 432//432
f 431//431 426//426 425//425
f 424//424 433//433 426//426
f 432//432 426//426 433//433
f 433//433 426//426 432//432
f 426//426 433//433 424//424
f 424//424 423//423 433//433
f 434//434 433//433 423//423
f 423//423 433//433 434//434
f 433//433 423//423 424//424
f 434//434 423//423 435//435
f 422//422 435//435 423//423
f 423//423 435//435 422//422
f 435//435 423//423 434//434
f 422//422 420//420 435//435
f 436//436 435//435 420//420
f 420//420 435//435 436//436
f 435//435 420//420 422//422
f 137//137 136//136 420//420
f 436//436 420//420 136//136
f 136//136 420//420 436//436
f 420//420 136//136 137//137
f 137//137 418//418 136//136
f 427//427 136//136 418//418
f 418//418 136//136 427//427
f 136//136 418//418 137//137
f 434//434 435//435 433//433
f 430//430 433//433 435//435
f 431//431 433//433 430//430
f 432//432 433//433 431//431
f 136//136 429//429 436//436
f 430//430 436//436 429//429
f 435//435 436//436 430//430
f 427//427 428//428 136//136
f 429//429 136//136 428//428
f 151//151 429//429 428//428
f 428//428 429//429 151//151
f 428//428 136//136 429//429
f 136//136 428//428 427//427
f 430//430 436//436 435//435
f 429//429 436//436 430//430
f 436//436 429//429 136//136
f 431//431 433//433 432//432
f 430//430 433//433 431//431
f 435//435 433//433 430//430
f 433//433 435//435 434//434
f 437//437 438//438 439//439
f 440//440 439//439 438//438
f 438//438 439//439 440//440
f 439//439 438//438 437//437
f 440//440 438//438 441//441
f 442//442 441//441 438//438
f 438//438 441//441 442//442
f 441//441 438//438 440//440
f 442//442 438//438 443//443
f 437//437 443//443 438//438
f 438//438 443//443 437//437
f 443//443 438//438 442//442
f 437//437 439//439 443//443
f 444//444 443//443 439//439
f 439//439 443//443 444//444
f 443//443 439//439 437//437
f 440//440 441//441 439//439
f 444//444 439//439 441//441
f 441//441 439//439 444//444
f 439//439 441//441 440//440
f 442//442 443//443 441//441
f 444//444 441//441 443//443
f 443//443 441//441 444//444
f 441//441 443//443 442//442
f 445//445 446//446 447//447
f 448//448 447//447 446//446
f 446//446 447//447 448//448
f 447//447 446//446 445//445
f 448//448 446//446 449//449
f 450//450 449//449 446//446
f 446//446 449//449 450//450
f 449//449 446//446 448//448
f 450//450 446//446 451//451
f 445//445 451//451 446//446
f 446//446 451//451 445//445
f 451//451 446//446 450//450
f 445//445 447//447 451//451
f 452//452 451//451 447//447
f 447//447 451//451 452//452
f 451//451 447//447 445//445
f 448//448 449//449 447//447
f 452//452 447//447 449//449
f 449//449 447//447 452//452
f 447//447 449//449 448//448
f 450//450 451//451 449//449
f 452//452 449//449 451//451
f 451//451 449//449 452//452
f 449//449 451//451 450//450
f 453//453 454//454 455//455
f 456//456 455//455 454//454
f 454//454 455//455 456//456
f 455//455 454//454 453//453
f 447//447 440//440 454//454
f 456//456 454//454 440//440
f 440//440 454//454 456//456
f 454//454 440//440 447//447
f 445//445 447//447 453//453
f 454//454 453//453 447//447
f 447//447 453//453 454//454
f 453//453 447//447 445//445
f 445//445 453//453 438//438
f 455//455 438//438 453//453
f 453//453 438//438 455//455
f 438//438 453//453 445//445
f 438//438 455//455 440//440
f 456//456 440//440 455//455
f 455//455 440//440 456//456
f 440//440 455//455 438//438
f 447//447 445//445 440//440
f 438//438 440//440 445//445
f 445//445 440//440 438//438
f 440//440 445//445 447//447
f 457//457 458//458 459//459
f 460//460 459//459 458//458
f 458//458 459//459 460//460
f 459//459 458//458 457//457
f 439//439 448//448 458//458
f 460//460 458//458 448//448
f 448//448 458//458 460//460
f 458//458 448//448 439//439
f 437//437 439//439 457//457
f 458//458 457//457 439//439
f 439//439 457//457 458//458
f 457//457 439//439 437//437
f 437//437 457//457 446//446
f 459//459 446//446 457//457
f 457//457 446//446 459//459
f 446//446 457//457 437//437
f 446//446 459//459 448//448
f 460//460 448//448 459//459
f 459//459 448//448 460//460
f 448//448 459//459 446//446
f 439//439 437//437 448//448
f 446//446 448//448 437//437
f 437//437 448//448 446//446
f 448//448 437//437 439//439
f 461//461 462//462 463//463
f 464//464 463//463 462//462
f 462//462 463//463 464//464
f 463//463 462//462 461//461
f 449//449 463//463 444//444
f 464//464 444//444 463//463
f 463//463 444//444 464//464
f 444//444 463//463 449//449
f 441//441 444//444 462//462
f 464//464 462//462 444//444
f 444//444 462//462 464//464
f 462//462 444//444 441//441
f 461//461 452//452 462//462
f 441//441 462//462 452//452
f 452//452 462//462 441//441
f 462//462 452//452 461//461
f 449//449 452//452 463//463
f 461//461 463//463 452//452
f 452//452 463//463 461//461
f 463//463 452//452 449//449
f 441//441 452//452 444//444
f 449//449 444//444 452//452
f 452//452 444//444 449//449
f 444//444 452//452 441//441
f 465//465 466//466 467//467
f 468//468 467//467 466//466
f 466//466 467//467 468//468
f 467//467 466//466 465//465
f 468//468 469//469 467//467
f 470//470 467//467 469//469
f 469//469 467//467 470//470
f 467//467 469//469 468//468
f 468//468 466//466 469//469
f 471//471 469//469 466//466
f 466//466 469//469 471//471
f 469//469 466//466 468//468
f 471//471 466//466 472//472
f 465//465 472//472 466//466
f 466//466 472//472 465//465
f 472//472 466//466 471//471
f 465//465 467//467 472//472
f 470//470 472//472 467//467
f 467//467 472//472 470//470
f 472//472 467//467 465//465
f 471//471 472//472 469//469
f 470//470 469//469 472//472
f 472//472 469//469 470//470
f 469//469 472//472 471//471
f 473//473 474//474 465//465
f 467//467 465//465 474//474
f 474//474 465//465 467//467
f 465//465 474//474 473//473
f 473//473 475//475 474//474
f 476//476 474//474 475//475
f 475//475 474//474 476//476
f 474//474 475//475 473//473
f 466//466 475//475 465//465
f 473//473 465//465 475//475
f 475//475 465//465 473//473
f 465//465 475//475 466//466
f 466//466 465//465 468//468
f 467//467 468//468 465//465
f 465//465 468//468 467//467
f 468//468 465//465 466//466
f 476//476 468//468 474//474
f 467//467 474//474 468//468
f 468//468 474//474 467//467
f 474//474 468//468 476//476
f 476//476 475//475 468//468
f 466//466 468//468 475//475
f 475//475 468//468 466//466
f 468//468 475//475 476//476
f 477//477 478//478 470//470
f 472//472 470//470 478//478
f 478//478 470//470 472//472
f 470//470 478//478 477//477
f 477//477 479//479 478//478
f 480//480 478//478 479//479
f 479//479 478//478 480//480
f 478//478 479//479 477//477
f 469//469 479//479 470//470
f 477//477 470//470 479//479
f 479//479 470//470 477//477
f 470//470 479//479 469//469
f 469//469 470//470 471//471
f 472//472 471//471 470//470
f 470//470 471//471 472//472
f 471//471 470//470 469//469
f 480//480 471//471 478//478
f 472//472 478//478 471//471
f 471//471 478//478 472//472
f 478//478 471//471 480//480
f 480//480 479//479 471//471
f 469//469 471//471 479//479
f 479//479 471//471 469//469
f 471//471 479//479 480//480