# https://github.com/mikedh/trimesh
v 0.00776200 -0.01491700 0.05433400
v 0.00776200 -0.01480400 0.05604300
v 0.00776200 -0.01480500 0.05265500
v 0.00776200 -0.01447100 0.05115900
v 0.00776200 -0.01446700 0.05752800
v 0.00776200 -0.01392900 0.04986700
v 0.00776200 -0.01392100 0.05880600
v 0.00776200 -0.01319400 0.04879800
v 0.00776200 -0.01318400 0.05989000
v 0.00776200 -0.01292300 0.05433400
v 0.00776200 -0.01284800 0.05299900
v 0.00776200 -0.01227000 0.04794100
v 0.00776200 -0.01262500 0.05183100
v 0.00776200 -0.01225300 0.05082900
v 0.00776200 -0.01118100 0.04732700
v 0.00776200 -0.01173200 0.04999300
v 0.00776200 -0.01108600 0.04933500
v 0.00776200 -0.00993700 0.04695600
v 0.00776200 -0.01033900 0.04886400
v 0.00776200 -0.00948900 0.04858200
v 0.00776200 -0.00854800 0.04683300
v 0.00776200 -0.00853800 0.04848800
v 0.00776200 -0.00719400 0.04695300
v 0.00776200 -0.00758800 0.04858200
v 0.00776200 -0.00673900 0.04886400
v 0.00776200 -0.00595900 0.04731200
v 0.00776200 -0.00599300 0.04933500
v 0.00776200 -0.00534900 0.04999300
v 0.00776200 -0.00485700 0.04792300
v 0.00776200 -0.00483100 0.05082900
v 0.00776200 -0.00390200 0.04879800
v 0.00776200 -0.00446000 0.05183100
v 0.00776200 -0.00423800 0.05299900
v 0.00776200 -0.00416400 0.05433400
v 0.00776200 -0.01226600 0.06073200
v 0.00776200 -0.01284700 0.05566500
v 0.00776200 -0.01261800 0.05685100
v 0.00776200 -0.01224700 0.05786900
v 0.00776200 -0.01117600 0.06134600
v 0.00776200 -0.01174200 0.05870000
v 0.00776200 -0.01109700 0.05936400
v 0.00776200 -0.00993100 0.06172000
v 0.00776200 -0.01036300 0.05982700
v 0.00776200 -0.00951700 0.06009900
v 0.00776200 -0.00854800 0.06184500
v 0.00776200 -0.00853800 0.06019000
v 0.00776200 -0.00715000 0.06171600
v 0.00776200 -0.00758100 0.06009700
v 0.00776200 -0.00672400 0.05981700
v 0.00776200 -0.00589600 0.06133200
v 0.00776200 -0.00597500 0.05935100
v 0.00776200 -0.00534400 0.05870000
v 0.00776200 -0.00480700 0.06071400
v 0.00776200 -0.00484600 0.05787800
v 0.00776200 -0.00447300 0.05687000
v 0.00776200 -0.00390200 0.05989000
v 0.00776200 -0.00424100 0.05568300
v 0.00776200 -0.00315900 0.04987000
v 0.00776200 -0.00317100 0.05882700
v 0.00776200 -0.00262500 0.05753700
v 0.00776200 -0.00261500 0.05116900
v 0.00776200 -0.00228400 0.05603500
v 0.00776200 -0.00228100 0.05266700
v 0.00776200 -0.00217000 0.05433400
v 0.00624600 -0.00480700 0.06071400
v 0.00624600 -0.00390200 0.05989000
v 0.00624600 -0.00589600 0.06133200
v 0.00624600 -0.00715000 0.06171600
v 0.00624600 -0.00854800 0.06184500
v 0.00624600 -0.00993100 0.06172000
v 0.00624600 -0.01117600 0.06134600
v 0.00624600 -0.01226600 0.06073200
v 0.00624600 -0.01318400 0.05989000
v 0.00624600 -0.01392100 0.05880600
v 0.00624600 -0.01446700 0.05752800
v 0.00624600 -0.01480400 0.05604300
v 0.00624600 -0.01491700 0.05433400
v 0.00624600 -0.01480500 0.05265500
v 0.00624600 -0.01447100 0.05115900
v 0.00624600 -0.01392900 0.04986700
v 0.00624600 -0.01319400 0.04879800
v 0.00624600 -0.01227000 0.04794100
v 0.00624600 -0.01118100 0.04732700
v 0.00624600 -0.00993700 0.04695600
v 0.00624600 -0.00854800 0.04683300
v 0.00624600 -0.00719400 0.04695300
v 0.00624600 -0.00595900 0.04731200
v 0.00624600 -0.00485700 0.04792300
v 0.00624600 -0.00390200 0.04879800
v 0.00624600 -0.00315900 0.04987000
v 0.00624600 -0.00261500 0.05116900
v 0.00624600 -0.00228100 0.05266700
v 0.00624600 -0.00217000 0.05433400
v 0.00624600 -0.00228400 0.05603500
v 0.00624600 -0.00262500 0.05753700
v 0.00624600 -0.00317100 0.05882700
v 0.00624600 -0.01292300 0.05433400
v 0.00624600 -0.01284700 0.05566500
v 0.00624600 -0.01261800 0.05685100
v 0.00624600 -0.01224700 0.05786900
v 0.00624600 -0.01174200 0.05870000
v 0.00624600 -0.01109700 0.05936400
v 0.00624600 -0.01036300 0.05982700
v 0.00624600 -0.00951700 0.06009900
v 0.00624600 -0.00853800 0.06019000
v 0.00624600 -0.00758100 0.06009700
v 0.00624600 -0.00672400 0.05981700
v 0.00624600 -0.00597500 0.05935100
v 0.00624600 -0.00534400 0.05870000
v 0.00624600 -0.00484600 0.05787800
v 0.00624600 -0.00447300 0.05687000
v 0.00624600 -0.00424100 0.05568300
v 0.00624600 -0.00416400 0.05433400
v 0.00624600 -0.01284800 0.05299900
v 0.00624600 -0.01262500 0.05183100
v 0.00624600 -0.01225300 0.05082900
v 0.00624600 -0.01173200 0.04999300
v 0.00624600 -0.01108600 0.04933500
v 0.00624600 -0.01033900 0.04886400
v 0.00624600 -0.00948900 0.04858200
v 0.00624600 -0.00853800 0.04848800
v 0.00624600 -0.00758800 0.04858200
v 0.00624600 -0.00673900 0.04886400
v 0.00624600 -0.00599300 0.04933500
v 0.00624600 -0.00534900 0.04999300
v 0.00624600 -0.00483100 0.05082900
v 0.00624600 -0.00446000 0.05183100
v 0.00624600 -0.00423800 0.05299900
v 0.00776200 -0.00006900 0.04713300
v 0.00776200 -0.00006900 0.06154500
v 0.00776200 0.00172100 0.04713300
v 0.00776200 0.00172100 0.05956100
v 0.00776200 0.00265000 0.06154500
v 0.00776200 0.00809000 0.04713300
v 0.00776200 0.00844800 0.05013300
v 0.00776200 0.01023800 0.04713300
v 0.00776200 0.00844800 0.06154500
v 0.00776200 0.01023800 0.06154500
v 0.00624600 0.01023800 0.04713300
v 0.00624600 0.01023800 0.06154500
v 0.00624600 0.00844800 0.06154500
v 0.00624600 0.00844800 0.05013300
v 0.00624600 0.00265000 0.06154500
v 0.00624600 -0.00006900 0.06154500
v 0.00624600 -0.00006900 0.04713300
v 0.00624600 0.00172100 0.04713300
v 0.00624600 0.00172100 0.05956100
v 0.00624600 0.00809000 0.04713300
v 0.00776200 -0.01840200 -0.04518900
v 0.00776200 -0.01828900 -0.04348100
v 0.00776200 -0.01829000 -0.04686900
v 0.00776200 -0.01795600 -0.04836400
v 0.00776200 -0.01795100 -0.04199500
v 0.00776200 -0.01741400 -0.04965600
v 0.00776200 -0.01740600 -0.04071800
v 0.00776200 -0.01667900 -0.05072600
v 0.00776200 -0.01666900 -0.03963400
v 0.00776200 -0.01640800 -0.04518900
v 0.00776200 -0.01633300 -0.04652400
v 0.00776200 -0.01575400 -0.05158200
v 0.00776200 -0.01611000 -0.04769200
v 0.00776200 -0.01573800 -0.04869400
v 0.00776200 -0.01466600 -0.05219700
v 0.00776200 -0.01521700 -0.04953000
v 0.00776200 -0.01457100 -0.05018900
v 0.00776200 -0.01342200 -0.05256700
v 0.00776200 -0.01382300 -0.05065900
v 0.00776200 -0.01297400 -0.05094100
v 0.00776200 -0.01203300 -0.05269000
v 0.00776200 -0.01202300 -0.05103500
v 0.00776200 -0.01067900 -0.05257000
v 0.00776200 -0.01107300 -0.05094100
v 0.00776200 -0.01022400 -0.05065900
v 0.00776200 -0.00944400 -0.05221100
v 0.00776200 -0.00947800 -0.05018900
v 0.00776200 -0.00883400 -0.04953000
v 0.00776200 -0.00834200 -0.05160000
v 0.00776200 -0.00831500 -0.04869400
v 0.00776200 -0.00738700 -0.05072600
v 0.00776200 -0.00794500 -0.04769200
v 0.00776200 -0.00772300 -0.04652400
v 0.00776200 -0.00764900 -0.04518900
v 0.00776200 -0.01575100 -0.03879000
v 0.00776200 -0.01633100 -0.04385800
v 0.00776200 -0.01610300 -0.04267300
v 0.00776200 -0.01573100 -0.04165400
v 0.00776200 -0.01466100 -0.03817700
v 0.00776200 -0.01522700 -0.04082400
v 0.00776200 -0.01458200 -0.04016000
v 0.00776200 -0.01341600 -0.03780300
v 0.00776200 -0.01384800 -0.03969700
v 0.00776200 -0.01300200 -0.03942400
v 0.00776200 -0.01203300 -0.03767800
v 0.00776200 -0.01202300 -0.03933400
v 0.00776200 -0.01063400 -0.03780700
v 0.00776200 -0.01106600 -0.03942700
v 0.00776200 -0.01020900 -0.03970600
v 0.00776200 -0.00938100 -0.03819100
v 0.00776200 -0.00946000 -0.04017200
v 0.00776200 -0.00882900 -0.04082400
v 0.00776200 -0.00829200 -0.03880900
v 0.00776200 -0.00833100 -0.04164400
v 0.00776200 -0.00795800 -0.04265300
v 0.00776200 -0.00738700 -0.03963400
v 0.00776200 -0.00772600 -0.04383900
v 0.00776200 -0.00664400 -0.04965300
v 0.00776200 -0.00665600 -0.04069600
v 0.00776200 -0.00610900 -0.04198600
v 0.00776200 -0.00610000 -0.04835400
v 0.00776200 -0.00576800 -0.04348800
v 0.00776200 -0.00576600 -0.04685600
v 0.00776200 -0.00565500 -0.04518900
v 0.00624600 -0.00829200 -0.03880900
v 0.00624600 -0.00738700 -0.03963400
v 0.00624600 -0.00938100 -0.03819100
v 0.00624600 -0.01063400 -0.03780700
v 0.00624600 -0.01203300 -0.03767800
v 0.00624600 -0.01341600 -0.03780300
v 0.00624600 -0.01466100 -0.03817700
v 0.00624600 -0.01575100 -0.03879000
v 0.00624600 -0.01666900 -0.03963400
v 0.00624600 -0.01740600 -0.04071800
v 0.00624600 -0.01795100 -0.04199500
v 0.00624600 -0.01828900 -0.04348100
v 0.00624600 -0.01840200 -0.04518900
v 0.00624600 -0.01829000 -0.04686900
v 0.00624600 -0.01795600 -0.04836400
v 0.00624600 -0.01741400 -0.04965600
v 0.00624600 -0.01667900 -0.05072600
v 0.00624600 -0.01575400 -0.05158200
v 0.00624600 -0.01466600 -0.05219700
v 0.00624600 -0.01342200 -0.05256700
v 0.00624600 -0.01203300 -0.05269000
v 0.00624600 -0.01067900 -0.05257000
v 0.00624600 -0.00944400 -0.05221100
v 0.00624600 -0.00834200 -0.05160000
v 0.00624600 -0.00738700 -0.05072600
v 0.00624600 -0.00664400 -0.04965300
v 0.00624600 -0.00610000 -0.04835400
v 0.00624600 -0.00576600 -0.04685600
v 0.00624600 -0.00565500 -0.04518900
v 0.00624600 -0.00576800 -0.04348800
v 0.00624600 -0.00610900 -0.04198600
v 0.00624600 -0.00665600 -0.04069600
v 0.00624600 -0.01640800 -0.04518900
v 0.00624600 -0.01633100 -0.04385800
v 0.00624600 -0.01610300 -0.04267300
v 0.00624600 -0.01573100 -0.04165400
v 0.00624600 -0.01522700 -0.04082400
v 0.00624600 -0.01458200 -0.04016000
v 0.00624600 -0.01384800 -0.03969700
v 0.00624600 -0.01300200 -0.03942400
v 0.00624600 -0.01202300 -0.03933400
v 0.00624600 -0.01106600 -0.03942700
v 0.00624600 -0.01020900 -0.03970600
v 0.00624600 -0.00946000 -0.04017200
v 0.00624600 -0.00882900 -0.04082400
v 0.00624600 -0.00833100 -0.04164400
v 0.00624600 -0.00795800 -0.04265300
v 0.00624600 -0.00772600 -0.04383900
v 0.00624600 -0.00764900 -0.04518900
v 0.00624600 -0.01633300 -0.04652400
v 0.00624600 -0.01611000 -0.04769200
v 0.00624600 -0.01573800 -0.04869400
v 0.00624600 -0.01521700 -0.04953000
v 0.00624600 -0.01457100 -0.05018900
v 0.00624600 -0.01382300 -0.05065900
v 0.00624600 -0.01297400 -0.05094100
v 0.00624600 -0.01202300 -0.05103500
v 0.00624600 -0.01107300 -0.05094100
v 0.00624600 -0.01022400 -0.05065900
v 0.00624600 -0.00947800 -0.05018900
v 0.00624600 -0.00883400 -0.04953000
v 0.00624600 -0.00831500 -0.04869400
v 0.00624600 -0.00794500 -0.04769200
v 0.00624600 -0.00772300 -0.04652400
v 0.00776200 -0.00163800 -0.04545100
v 0.00776200 -0.00163800 -0.04374700
v 0.00776200 0.00478900 -0.04545100
v 0.00776200 0.00478900 -0.04374700
v 0.00776200 -0.00355400 -0.05239000
v 0.00776200 -0.00355400 -0.03797900
v 0.00776200 -0.00163800 -0.05239000
v 0.00776200 -0.00163800 -0.03968200
v 0.00776200 0.00506900 -0.03797900
v 0.00776200 0.00506900 -0.03968200
v 0.00624600 0.00506900 -0.03968200
v 0.00624600 0.00506900 -0.03797900
v 0.00624600 -0.00355400 -0.03797900
v 0.00624600 -0.00355400 -0.05239000
v 0.00624600 -0.00163800 -0.05239000
v 0.00624600 -0.00163800 -0.04545100
v 0.00624600 0.00478900 -0.04545100
v 0.00624600 0.00478900 -0.04374700
v 0.00624600 -0.00163800 -0.04374700
v 0.00624600 -0.00163800 -0.03968200
v 0.00776200 0.00869900 -0.04545100
v 0.00776200 0.00869900 -0.04374700
v 0.00776200 0.01512600 -0.04545100
v 0.00776200 0.01512600 -0.04374700
v 0.00776200 0.00678300 -0.05239000
v 0.00776200 0.00678300 -0.03797900
v 0.00776200 0.00869900 -0.05239000
v 0.00776200 0.00869900 -0.03968200
v 0.00776200 0.01540600 -0.03797900
v 0.00776200 0.01540600 -0.03968200
v 0.00624600 0.01540600 -0.03968200
v 0.00624600 0.01540600 -0.03797900
v 0.00624600 0.00678300 -0.03797900
v 0.00624600 0.00678300 -0.05239000
v 0.00624600 0.00869900 -0.05239000
v 0.00624600 0.00869900 -0.04545100
v 0.00624600 0.01512600 -0.04545100
v 0.00624600 0.01512600 -0.04374700
v 0.00624600 0.00869900 -0.04374700
v 0.00624600 0.00869900 -0.03968200
v 0.00256100 0.00036200 0.07870200
v 0.00091000 0.00074900 0.07963600
v 0.00256100 0.00074900 0.07963600
v 0.00091000 0.00036200 0.07870200
v 0.00256100 -0.00025300 0.07790100
v 0.00091000 -0.00025300 0.07790100
v 0.00091000 -0.00105500 0.07728500
v 0.00256100 -0.00105500 0.07728500
v 0.00091000 -0.00198900 0.07689700
v 0.00256100 -0.00198900 0.07689700
v 0.00091000 -0.00299200 0.07676500
v 0.00256100 -0.00299200 0.07676500
v 0.00091000 -0.00399400 0.07689700
v 0.00256100 -0.00399400 0.07689700
v 0.00091000 -0.00492800 0.07728500
v 0.00256100 -0.00492800 0.07728500
v 0.00091000 -0.00573000 0.07790100
v 0.00256100 -0.00573000 0.07790100
v 0.00256100 -0.00634500 0.07870200
v 0.00091000 -0.00634500 0.07870200
v 0.00256100 -0.00673200 0.07963600
v 0.00091000 -0.00673200 0.07963600
v 0.00256100 -0.00686400 0.08063800
v 0.00091000 -0.00686400 0.08063800
v 0.00256100 -0.00673200 0.08164000
v 0.00091000 -0.00673200 0.08164000
v 0.00256100 -0.00634500 0.08257500
v 0.00091000 -0.00634500 0.08257500
v 0.00256100 -0.00573000 0.08337700
v 0.00091000 -0.00573000 0.08337700
v 0.00091000 -0.00492800 0.08399200
v 0.00256100 -0.00492800 0.08399200
v 0.00091000 -0.00399400 0.08437900
v 0.00256100 -0.00399400 0.08437900
v 0.00091000 -0.00299200 0.08451000
v 0.00256100 -0.00299200 0.08451000
v 0.00091000 -0.00198900 0.08437900
v 0.00256100 -0.00198900 0.08437900
v 0.00091000 -0.00105500 0.08399200
v 0.00256100 -0.00105500 0.08399200
v 0.00091000 -0.00025300 0.08337700
v 0.00256100 -0.00025300 0.08337700
v 0.00256100 0.00036200 0.08257500
v 0.00091000 0.00036200 0.08257500
v 0.00256100 0.00074900 0.08164000
v 0.00091000 0.00074900 0.08164000
v 0.00256100 0.00088100 0.08063800
v 0.00091000 0.00088100 0.08063800
v 0.00277200 0.00079400 -0.07935400
v 0.00091000 0.00010000 -0.07844900
v 0.00277200 0.00010000 -0.07844900
v 0.00091000 0.00079400 -0.07935400
v 0.00277200 0.00123100 -0.08040900
v 0.00091000 0.00123100 -0.08040900
v 0.00277200 0.00138000 -0.08154000
v 0.00091000 0.00138000 -0.08154000
v 0.00277200 0.00123100 -0.08267100
v 0.00091000 0.00123100 -0.08267100
v 0.00277200 0.00079400 -0.08372600
v 0.00091000 0.00079400 -0.08372600
v 0.00277200 0.00010000 -0.08463100
v 0.00091000 0.00010000 -0.08463100
v 0.00091000 -0.00080600 -0.08532600
v 0.00277200 -0.00080600 -0.08532600
v 0.00091000 -0.00186000 -0.08576200
v 0.00277200 -0.00186000 -0.08576200
v 0.00091000 -0.00299200 -0.08591100
v 0.00277200 -0.00299200 -0.08591100
v 0.00091000 -0.00412300 -0.08576200
v 0.00277200 -0.00412300 -0.08576200
v 0.00091000 -0.00517700 -0.08532600
v 0.00277200 -0.00517700 -0.08532600
v 0.00091000 -0.00608300 -0.08463100
v 0.00277200 -0.00608300 -0.08463100
v 0.00277200 -0.00677700 -0.08372600
v 0.00091000 -0.00677700 -0.08372600
v 0.00277200 -0.00721400 -0.08267100
v 0.00091000 -0.00721400 -0.08267100
v 0.00277200 -0.00736300 -0.08154000
v 0.00091000 -0.00736300 -0.08154000
v 0.00277200 -0.00721400 -0.08040900
v 0.00091000 -0.00721400 -0.08040900
v 0.00277200 -0.00677700 -0.07935400
v 0.00091000 -0.00677700 -0.07935400
v 0.00277200 -0.00608300 -0.07844900
v 0.00091000 -0.00608300 -0.07844900
v 0.00091000 -0.00517700 -0.07775400
v 0.00277200 -0.00517700 -0.07775400
v 0.00091000 -0.00412300 -0.07731800
v 0.00277200 -0.00412300 -0.07731800
v 0.00091000 -0.00299200 -0.07716900
v 0.00277200 -0.00299200 -0.07716900
v 0.00091000 -0.00186000 -0.07731800
v 0.00277200 -0.00186000 -0.07731800
v 0.00091000 -0.00080600 -0.07775400
v 0.00277200 -0.00080600 -0.07775400
v 0.00091000 -0.02865700 -0.05966300
v 0.00624600 0.02784300 -0.05966300
v 0.00624600 -0.02865700 -0.05966300
v 0.00091000 0.02784300 -0.05966300
v 0.00091000 0.02784300 0.00471400
v 0.00624600 0.02784300 0.00471400
v 0.00624600 -0.02865700 0.00471400
v 0.00091000 -0.02865700 0.00471400
v 0.00091000 0.02784300 0.06909000
v 0.00624600 -0.02865700 0.06909000
v 0.00624600 0.02784300 0.06909000
v 0.00091000 -0.02865700 0.06909000
v 0.00091000 0.04160900 0.09507500
v 0.00091000 0.04160900 -0.09643900
v 0.00091000 -0.04189700 0.09507500
v 0.00091000 -0.04189700 -0.09643900
v -0.00566100 0.04160900 0.09507500
v -0.00566100 -0.04189700 0.09507500
v -0.00566100 -0.04189700 -0.09643900
v -0.00566100 0.04160900 -0.09643900
vn 0.00000000 -0.00000000 -0.00000000
vn -0.00000000 0.00000000 0.00000000
vn -0.00000000 0.00000000 0.00000000
vn 0.00000000 -0.00000000 -0.00000000
vn -0.00000000 0.00000000 -0.00000000
vn 0.00000000 -0.00000000 -0.00000000
vn 0.00000000 -0.00000000 0.00000000
vn 0.00000000 0.00000000 0.00000000
vn -0.00000000 -0.00000000 0.00000000
vn -0.00000000 -0.00000000 -0.00000000
vn -0.00000000 0.00000000 -0.00000000
vn -0.00000000 0.00000000 0.00000000
vn 0.00000000 -0.00000000 -0.00000000
vn 0.00000000 0.00000000 0.00000000
vn -0.00000000 -0.00000000 0.00000000
vn -0.00000000 0.00000000 0.00000000
vn 0.00000000 0.00000000 0.00000000
vn -0.00000000 -0.00000000 -0.00000000
vn -0.00000000 -0.00000000 0.00000000
vn 0.00000000 -0.00000000 -0.00000000
vn -0.00000000 0.00000000 -0.00000000
vn 0.00000000 -0.00000000 0.00000000
vn 0.00000000 -0.00000000 0.00000000
vn 0.00000000 0.00000000 -0.00000000
vn -0.00000000 -0.00000000 -0.00000000
vn -0.00000000 0.00000000 -0.00000000
vn 0.00000000 0.00000000 -0.00000000
vn -0.00000000 0.00000000 -0.00000000
vn -0.00000000 -0.00000000 0.00000000
vn 0.00000000 0.00000000 0.00000000
vn -0.00000000 0.00000000 -0.00000000
vn 0.00000000 -0.00000000 0.00000000
vn 0.00000000 0.00000000 0.00000000
vn -0.00000000 0.00000000 0.00000000
vn 0.00000000 0.00000000 0.00000000
vn -0.00000000 -0.00000000 -0.00000000
vn 0.00000000 0.00000000 -0.00000000
vn -0.00000000 -0.00000000 0.00000000
vn 0.00000000 0.00000000 -0.00000000
vn -0.00000000 0.00000000 0.00000000
vn -0.00000000 0.00000000 -0.00000000
vn 0.00000000 -0.00000000 0.00000000
vn 0.00000000 -0.00000000 0.00000000
vn -0.00000000 0.00000000 0.00000000
vn -0.00000000 0.00000000 -0.00000000
vn 0.00000000 0.00000000 -0.00000000
vn -0.00000000 0.00000000 0.00000000
vn 0.00000000 0.00000000 0.00000000
vn 0.00000000 0.00000000 0.00000000
vn 0.00000000 -0.00000000 -0.00000000
vn -0.00000000 -0.00000000 -0.00000000
vn 0.00000000 0.00000000 0.00000000
vn 0.00000000 -0.00000000 -0.00000000
vn -0.00000000 -0.00000000 -0.00000000
vn 0.00000000 0.00000000 0.00000000
vn 0.00000000 -0.00000000 -0.00000000
vn 0.00000000 0.00000000 0.00000000
vn -0.00000000 0.00000000 -0.00000000
vn 0.00000000 0.00000000 0.00000000
vn 0.00000000 -0.00000000 -0.00000000
vn -0.00000000 0.00000000 -0.00000000
vn -0.00000000 -0.00000000 0.00000000
vn 0.00000000 -0.00000000 0.00000000
vn 0.00000000 0.00000000 0.00000000
vn -0.00000000 -0.00000000 -0.00000000
vn 0.00000000 0.00000000 0.00000000
vn 0.00000000 -0.00000000 0.00000000
vn -0.00000000 -0.00000000 -0.00000000
vn 0.00000000 -0.00000000 0.00000000
vn 0.00000000 0.00000000 -0.00000000
vn 0.00000000 -0.00000000 0.00000000
vn 0.00000000 0.00000000 -0.00000000
vn 0.00000000 0.00000000 -0.00000000
vn -0.00000000 -0.00000000 0.00000000
vn -0.00000000 -0.00000000 0.00000000
vn 0.00000000 0.00000000 -0.00000000
vn -0.00000000 0.00000000 0.00000000
vn 0.00000000 -0.00000000 -0.00000000
vn 0.00000000 0.00000000 0.00000000
vn 0.00000000 0.00000000 0.00000000
vn -0.00000000 -0.00000000 -0.00000000
vn 0.00000000 -0.00000000 -0.00000000
vn -0.00000000 0.00000000 0.00000000
vn 0.00000000 0.00000000 0.00000000
vn 0.00000000 -0.00000000 0.00000000
vn -0.00000000 0.00000000 -0.00000000
vn -0.00000000 -0.00000000 0.00000000
vn 0.00000000 0.00000000 -0.00000000
vn -0.00000000 -0.00000000 0.00000000
vn -0.00000000 -0.00000000 0.00000000
vn 0.00000000 -0.00000000 0.00000000
vn -0.00000000 0.00000000 -0.00000000
vn 0.00000000 -0.00000000 -0.00000000
vn 0.00000000 -0.00000000 -0.00000000
vn -0.00000000 0.00000000 0.00000000
vn 0.00000000 -0.00000000 -0.00000000
vn 0.00000000 -0.00000000 0.00000000
vn 0.00000000 0.00000000 0.00000000
vn -0.00000000 -0.00000000 0.00000000
vn 0.00000000 0.00000000 0.00000000
vn 0.00000000 0.00000000 -0.00000000
vn 0.00000000 0.00000000 0.00000000
vn -0.00000000 0.00000000 -0.00000000
vn 0.00000000 -0.00000000 0.00000000
vn 0.00000000 -0.00000000 0.00000000
vn -0.00000000 -0.00000000 -0.00000000
vn -0.00000000 -0.00000000 0.00000000
vn 0.00000000 0.00000000 0.00000000
vn -0.00000000 -0.00000000 -0.00000000
vn 0.00000000 0.00000000 0.00000000
vn 0.00000000 0.00000000 -0.00000000
vn -0.00000000 0.00000000 0.00000000
vn 0.00000000 0.00000000 0.00000000
vn -0.00000000 -0.00000000 0.00000000
vn -0.00000000 0.00000000 0.00000000
vn -0.00000000 -0.00000000 0.00000000
vn 0.00000000 -0.00000000 -0.00000000
vn 0.00000000 -0.00000000 -0.00000000
vn 0.00000000 0.00000000 -0.00000000
vn -0.00000000 0.00000000 0.00000000
vn 0.00000000 0.00000000 -0.00000000
vn 0.00000000 -0.00000000 0.00000000
vn 0.00000000 0.00000000 0.00000000
vn 0.00000000 -0.00000000 -0.00000000
vn 0.00000000 0.00000000 -0.00000000
vn -0.00000000 0.00000000 -0.00000000
vn 0.00000000 0.00000000 -0.00000000
vn 0.00000000 0.00000000 0.00000000
vn -0.00000000 0.00000000 0.00000000
vn 0.00000000 -0.00000000 0.00000000
vn 0.00000000 -0.00000000 -0.00000000
vn -0.00000000 0.00000000 0.00000000
vn -0.00000000 0.00000000 -0.00000000
vn 0.00000000 -0.00000000 -0.00000000
vn 0.00000000 -0.00000000 -0.00000000
vn 0.00000000 0.00000000 0.00000000
vn -0.00000000 0.00000000 0.00000000
vn -0.00000000 -0.00000000 0.00000000
vn -0.00000000 -0.00000000 0.00000000
vn 0.00000000 0.00000000 0.00000000
vn 0.00000000 -0.00000000 0.00000000
vn 0.00000000 0.00000000 0.00000000
vn 0.00000000 0.00000000 0.00000000
vn -0.00000000 0.00000000 -0.00000000
vn 0.00000000 -0.00000000 -0.00000000
vn -0.00000000 0.00000000 0.00000000
vn 0.00000000 -0.00000000 -0.00000000
vn -0.00000000 0.00000000 0.00000000
vn 0.00000000 -0.00000000 -0.00000000
vn -0.00000000 -0.00000000 0.00000000
vn -0.00000000 0.00000000 0.00000000
vn 0.00000000 -0.00000000 -0.00000000
vn 0.00000000 0.00000000 0.00000000
vn 0.00000000 -0.00000000 -0.00000000
vn 0.00000000 0.00000000 0.00000000
vn -0.00000000 0.00000000 -0.00000000
vn 0.00000000 -0.00000000 0.00000000
vn -0.00000000 -0.00000000 -0.00000000
vn -0.00000000 -0.00000000 -0.00000000
vn 0.00000000 0.00000000 0.00000000
vn 0.00000000 -0.00000000 -0.00000000
vn 0.00000000 0.00000000 0.00000000
vn 0.00000000 -0.00000000 0.00000000
vn -0.00000000 -0.00000000 -0.00000000
vn 0.00000000 0.00000000 0.00000000
vn 0.00000000 -0.00000000 -0.00000000
vn 0.00000000 0.00000000 0.00000000
vn -0.00000000 -0.00000000 -0.00000000
vn 0.00000000 -0.00000000 0.00000000
vn 0.00000000 0.00000000 -0.00000000
vn 0.00000000 0.00000000 0.00000000
vn 0.00000000 -0.00000000 0.00000000
vn 0.00000000 -0.00000000 0.00000000
vn -0.00000000 -0.00000000 0.00000000
vn -0.00000000 0.00000000 -0.00000000
vn 0.00000000 0.00000000 0.00000000
vn 0.00000000 0.00000000 -0.00000000
vn 0.00000000 -0.00000000 0.00000000
vn -0.00000000 -0.00000000 0.00000000
vn -0.00000000 0.00000000 0.00000000
vn -0.00000000 0.00000000 0.00000000
vn 0.00000000 0.00000000 0.00000000
vn 0.00000000 0.00000000 -0.00000000
vn -0.00000000 0.00000000 -0.00000000
vn 0.00000000 -0.00000000 0.00000000
vn -0.00000000 0.00000000 0.00000000
vn -0.00000000 -0.00000000 0.00000000
vn 0.00000000 -0.00000000 0.00000000
vn 0.00000000 0.00000000 -0.00000000
vn 0.00000000 -0.00000000 0.00000000
vn -0.00000000 -0.00000000 0.00000000
vn 0.00000000 -0.00000000 0.00000000
vn 0.00000000 0.00000000 -0.00000000
vn 0.00000000 0.00000000 0.00000000
vn -0.00000000 0.00000000 -0.00000000
vn -0.00000000 -0.00000000 -0.00000000
vn 0.00000000 0.00000000 0.00000000
vn 0.00000000 -0.00000000 -0.00000000
vn -0.00000000 -0.00000000 -0.00000000
vn 0.00000000 0.00000000 0.00000000
vn 0.00000000 0.00000000 0.00000000
vn 0.00000000 -0.00000000 -0.00000000
vn -0.00000000 0.00000000 0.00000000
vn 0.00000000 0.00000000 -0.00000000
vn 0.00000000 0.00000000 0.00000000
vn -0.00000000 0.00000000 -0.00000000
vn 0.00000000 0.00000000 0.00000000
vn -0.00000000 -0.00000000 -0.00000000
vn -0.00000000 0.00000000 -0.00000000
vn 0.00000000 0.00000000 0.00000000
vn 0.00000000 -0.00000000 0.00000000
vn 0.00000000 0.00000000 0.00000000
vn 0.00000000 -0.00000000 -0.00000000
vn 0.00000000 0.00000000 0.00000000
vn -0.00000000 0.00000000 0.00000000
vn 0.00000000 -0.00000000 -0.00000000
vn -0.00000000 -0.00000000 0.00000000
vn 0.00000000 0.00000000 -0.00000000
vn 0.00000000 0.00000000 -0.00000000
vn -0.00000000 0.00000000 -0.00000000
vn 0.00000000 0.00000000 0.00000000
vn -0.00000000 -0.00000000 0.00000000
vn -0.00000000 0.00000000 0.00000000
vn 0.00000000 0.00000000 -0.00000000
vn -0.00000000 0.00000000 0.00000000
vn 0.00000000 -0.00000000 -0.00000000
vn 0.00000000 0.00000000 -0.00000000
vn -0.00000000 0.00000000 0.00000000
vn -0.00000000 -0.00000000 0.00000000
vn 0.00000000 -0.00000000 -0.00000000
vn -0.00000000 -0.00000000 -0.00000000
vn -0.00000000 0.00000000 0.00000000
vn -0.00000000 0.00000000 -0.00000000
vn -0.00000000 -0.00000000 0.00000000
vn 0.00000000 -0.00000000 0.00000000
vn 0.00000000 0.00000000 0.00000000
vn 0.00000000 0.00000000 -0.00000000
vn -0.00000000 -0.00000000 0.00000000
vn 0.00000000 0.00000000 0.00000000
vn -0.00000000 0.00000000 -0.00000000
vn 0.00000000 0.00000000 0.00000000
vn -0.00000000 -0.00000000 -0.00000000
vn 0.00000000 0.00000000 0.00000000
vn 0.00000000 0.00000000 0.00000000
vn -0.00000000 -0.00000000 0.00000000
vn 0.00000000 -0.00000000 0.00000000
vn -0.00000000 0.00000000 0.00000000
vn 0.00000000 0.00000000 -0.00000000
vn -0.00000000 0.00000000 -0.00000000
vn -0.00000000 -0.00000000 0.00000000
vn 0.00000000 0.00000000 0.00000000
vn -0.00000000 0.00000000 -0.00000000
vn 0.00000000 -0.00000000 -0.00000000
vn 0.00000000 0.00000000 0.00000000
vn -0.00000000 -0.00000000 -0.00000000
vn 0.00000000 0.00000000 0.00000000
vn 0.00000000 0.00000000 -0.00000000
vn -0.00000000 0.00000000 0.00000000
vn 0.00000000 -0.00000000 -0.00000000
vn -0.00000000 0.00000000 0.00000000
vn -0.00000000 -0.00000000 -0.00000000
vn -0.00000000 0.00000000 0.00000000
vn -0.00000000 0.00000000 0.00000000
vn -0.00000000 -0.00000000 -0.00000000
vn 0.00000000 0.00000000 0.00000000
vn -0.00000000 -0.00000000 -0.00000000
vn 0.00000000 -0.00000000 -0.00000000
vn 0.00000000 0.00000000 0.00000000
vn 0.00000000 0.00000000 0.00000000
vn 0.00000000 0.00000000 -0.00000000
vn 0.00000000 0.00000000 0.00000000
vn 0.00000000 -0.00000000 0.00000000
vn -0.00000000 -0.00000000 -0.00000000
vn 0.00000000 0.00000000 -0.00000000
vn 0.00000000 0.00000000 0.00000000
vn -0.00000000 0.00000000 0.00000000
vn -0.00000000 -0.00000000 0.00000000
vn 0.00000000 0.00000000 0.00000000
vn 0.00000000 -0.00000000 -0.00000000
vn -0.00000000 0.00000000 -0.00000000
vn 0.00000000 0.00000000 0.00000000
vn 0.00000000 0.00000000 0.00000000
vn -0.00000000 0.00000000 -0.00000000
vn 0.00000000 0.00000000 0.00000000
vn 0.00000000 -0.00000000 -0.00000000
vn -0.00000000 0.00000000 -0.00000000
vn 0.00000000 -0.00000000 0.00000000
vn 0.00000000 0.00000000 0.00000000
vn -0.00000000 0.00000000 -0.00000000
vn 0.00000000 0.00000000 -0.00000000
vn 0.00000000 -0.00000000 0.00000000
vn -0.00000000 0.00000000 -0.00000000
vn 0.00000000 0.00000000 0.00000000
vn -0.00000000 -0.00000000 0.00000000
vn 0.00000000 0.00000000 -0.00000000
vn -0.00000000 0.00000000 -0.00000000
vn -0.00000000 -0.00000000 0.00000000
vn 0.00000000 0.00000000 0.00000000
vn 0.00000000 -0.00000000 -0.00000000
vn -0.00000000 0.00000000 -0.00000000
vn 0.00000000 0.00000000 0.00000000
vn -0.00000000 0.00000000 0.00000000
vn 0.00000000 0.00000000 -0.00000000
vn 0.00000000 0.00000000 0.00000000
vn 0.00000000 -0.00000000 -0.00000000
vn -0.00000000 0.00000000 -0.00000000
vn 0.00000000 -0.00000000 0.00000000
vn 0.00000000 0.00000000 0.00000000
vn -0.00000000 0.00000000 -0.00000000
vn 0.00000000 0.00000000 -0.00000000
vn 0.00000000 -0.00000000 0.00000000
vn -0.00000000 0.00000000 -0.00000000
vn 0.00000000 0.00000000 0.00000000
vn -0.00000000 -0.00000000 0.00000000
vn 0.00000000 0.00000000 -0.00000000
vn 0.00000000 0.00000000 -0.00000000
vn 0.67885610 0.63582321 -0.36726453
vn 0.73770401 0.65210282 -0.17479906
vn 0.67887119 0.70921950 -0.19010944
vn 0.73772173 0.58458959 -0.33767094
vn 0.67895323 0.51919201 -0.51909746
vn 0.73760771 0.47750283 -0.47741587
vn 0.73763329 0.33803949 -0.58448817
vn 0.67893143 0.36757790 -0.63556164
vn 0.73783010 0.17501905 -0.65190113
vn 0.67876383 0.19041329 -0.70924075
vn 0.73770460 -0.00004358 -0.67512364
vn 0.67887069 -0.00004740 -0.73425785
vn 0.73781448 -0.17506555 -0.65190631
vn 0.67877713 -0.19045589 -0.70921659
vn 0.73763329 -0.33803949 -0.58448817
vn 0.67893143 -0.36757790 -0.63556164
vn 0.73760771 -0.47750283 -0.47741587
vn 0.67895323 -0.51919201 -0.51909746
vn 0.67885610 -0.63582321 -0.36726453
vn 0.73772173 -0.58458959 -0.33767094
vn 0.67887119 -0.70921950 -0.19010944
vn 0.73770401 -0.65210282 -0.17479906
vn 0.67885739 -0.73427014 0.00000000
vn 0.73772021 -0.67510658 0.00000000
vn 0.67891016 -0.70922065 0.18996597
vn 0.73765826 -0.65218415 0.17468865
vn 0.67887920 -0.63598475 0.36694199
vn 0.73769460 -0.58478079 0.33739902
vn 0.67881034 -0.51923816 0.51923816
vn 0.73777547 -0.47732974 0.47732974
vn 0.73764886 -0.33753460 0.58476025
vn 0.67891817 -0.36704426 0.63588413
vn 0.73782267 -0.17444563 0.65206321
vn 0.67877016 -0.18978565 0.70940290
vn 0.73746748 -0.00004328 0.67538265
vn 0.67907277 -0.00004704 0.73407096
vn 0.73783817 0.17439947 0.65205802
vn 0.67875696 0.18974334 0.70942685
vn 0.73764886 0.33753460 0.58476025
vn 0.67891817 0.36704426 0.63588413
vn 0.73777547 0.47732974 0.47732974
vn 0.67881034 0.51923816 0.51923816
vn 0.67887920 0.63598475 0.36694199
vn 0.73769460 0.58478079 0.33739902
vn 0.67891016 0.70922065 0.18996597
vn 0.73765826 0.65218415 0.17468865
vn 0.67885739 0.73427014 0.00000000
vn 0.73772021 0.67510658 -0.00000000
vn 0.67890568 0.63591225 0.36701865
vn 0.73775315 0.47738566 0.47730832
vn 0.67882935 0.51926779 0.51918366
vn 0.73766353 0.58476304 0.33749772
vn 0.67888306 0.70921887 0.19006944
vn 0.73769008 0.65212668 0.17476883
vn 0.67885632 0.73427113 -0.00000000
vn 0.73772147 0.67510520 -0.00000000
vn 0.67888306 0.70921887 -0.19006944
vn 0.73769008 0.65212668 -0.17476883
vn 0.67890568 0.63591225 -0.36701865
vn 0.73766353 0.58476304 -0.33749772
vn 0.67882935 0.51926779 -0.51918366
vn 0.73775315 0.47738566 -0.47730832
vn 0.73774050 0.33736434 -0.58474290
vn 0.67884012 0.36694959 -0.63602209
vn 0.73764653 0.17458911 -0.65222407
vn 0.67892015 0.18985174 -0.70924167
vn 0.73770764 -0.00003862 -0.67512032
vn 0.67886810 -0.00004200 -0.73426024
vn 0.73763270 -0.17463033 -0.65222868
vn 0.67893194 -0.18988949 -0.70922028
vn 0.73774050 -0.33736434 -0.58474290
vn 0.67884012 -0.36694959 -0.63602209
vn 0.73775315 -0.47738566 -0.47730832
vn 0.67882935 -0.51926779 -0.51918366
vn 0.67890568 -0.63591225 -0.36701865
vn 0.73766353 -0.58476304 -0.33749772
vn 0.67888306 -0.70921887 -0.19006944
vn 0.73769008 -0.65212668 -0.17476883
vn 0.67885632 -0.73427113 -0.00000000
vn 0.73772147 -0.67510520 -0.00000000
vn 0.67888306 -0.70921887 0.19006944
vn 0.73769008 -0.65212668 0.17476883
vn 0.67890568 -0.63591225 0.36701865
vn 0.73766353 -0.58476304 0.33749772
vn 0.67882935 -0.51926779 0.51918366
vn 0.73775315 -0.47738566 0.47730832
vn 0.73774050 -0.33736434 0.58474290
vn 0.67884012 -0.36694959 0.63602209
vn 0.73763270 -0.17463033 0.65222868
vn 0.67893194 -0.18988949 0.70922028
vn 0.73770764 -0.00003862 0.67512032
vn 0.67886810 -0.00004200 0.73426024
vn 0.73764653 0.17458911 0.65222407
vn 0.67892015 0.18985174 0.70924167
vn 0.73774050 0.33736434 0.58474290
vn 0.67884012 0.36694959 0.63602209
vn 0.90453403 -0.30151134 -0.30151134
vn 0.57735027 0.57735027 -0.57735027
vn 0.57735027 -0.57735027 -0.57735027
vn 0.90453403 0.30151134 -0.30151134
vn 0.70710678 0.70710678 0.00000000
vn 0.70710678 0.70710678 0.00000000
vn 0.70710678 -0.70710678 0.00000000
vn 0.00000000 -1.00000000 0.00000000
vn 0.90453403 0.30151134 0.30151134
vn 0.57735027 -0.57735027 0.57735027
vn 0.57735027 0.57735027 0.57735027
vn 0.90453403 -0.30151134 0.30151134
vn 0.57735027 0.57735027 0.57735027
vn 0.57735027 0.57735027 -0.57735027
vn 0.57735027 -0.57735027 0.57735027
vn 0.57735027 -0.57735027 -0.57735027
vn -0.57735027 0.57735027 0.57735027
vn -0.57735027 -0.57735027 0.57735027
vn -0.57735027 -0.57735027 -0.57735027
vn -0.57735027 0.57735027 -0.57735027
f 1//1 2//2 3//3
f 4//4 3//3 2//2
f 5//5 4//4 2//2
f 6//6 4//4 5//5
f 7//7 6//6 5//5
f 8//8 6//6 7//7
f 9//9 8//8 7//7
f 10//10 8//8 9//9
f 11//11 8//8 10//10
f 12//12 8//8 11//11
f 13//13 12//12 11//11
f 14//14 12//12 13//13
f 15//15 12//12 14//14
f 16//16 15//15 14//14
f 17//17 15//15 16//16
f 18//18 15//15 17//17
f 19//19 18//18 17//17
f 20//20 18//18 19//19
f 21//21 18//18 20//20
f 22//22 21//21 20//20
f 23//23 21//21 22//22
f 24//24 23//23 22//22
f 25//25 23//23 24//24
f 26//26 23//23 25//25
f 27//27 26//26 25//25
f 28//28 26//26 27//27
f 29//29 26//26 28//28
f 30//30 29//29 28//28
f 31//31 29//29 30//30
f 32//32 31//31 30//30
f 33//33 31//31 32//32
f 34//34 31//31 33//33
f 35//35 36//36 9//9
f 10//10 9//9 36//36
f 37//37 36//36 35//35
f 38//38 37//37 35//35
f 39//39 38//38 35//35
f 40//40 38//38 39//39
f 41//41 40//40 39//39
f 42//42 41//41 39//39
f 43//43 41//41 42//42
f 44//44 43//43 42//42
f 45//45 44//44 42//42
f 46//46 44//44 45//45
f 47//47 46//46 45//45
f 48//48 46//46 47//47
f 49//49 48//48 47//47
f 50//50 49//49 47//47
f 51//51 49//49 50//50
f 52//52 51//51 50//50
f 53//53 52//52 50//50
f 54//54 52//52 53//53
f 55//55 54//54 53//53
f 56//56 55//55 53//53
f 57//57 55//55 56//56
f 34//34 57//57 56//56
f 31//31 34//34 56//56
f 58//58 31//31 56//56
f 59//59 58//58 56//56
f 60//60 58//58 59//59
f 61//61 58//58 60//60
f 62//62 61//61 60//60
f 63//63 61//61 62//62
f 64//64 63//63 62//62
f 62//62 63//63 64//64
f 62//62 61//61 63//63
f 60//60 61//61 62//62
f 60//60 58//58 61//61
f 59//59 58//58 60//60
f 56//56 58//58 59//59
f 56//56 31//31 58//58
f 56//56 34//34 31//31
f 56//56 57//57 34//34
f 56//56 55//55 57//57
f 53//53 55//55 56//56
f 53//53 54//54 55//55
f 53//53 52//52 54//54
f 50//50 52//52 53//53
f 50//50 51//51 52//52
f 50//50 49//49 51//51
f 47//47 49//49 50//50
f 47//47 48//48 49//49
f 47//47 46//46 48//48
f 45//45 46//46 47//47
f 45//45 44//44 46//46
f 42//42 44//44 45//45
f 42//42 43//43 44//44
f 42//42 41//41 43//43
f 39//39 41//41 42//42
f 39//39 40//40 41//41
f 39//39 38//38 40//40
f 35//35 38//38 39//39
f 35//35 37//37 38//38
f 35//35 36//36 37//37
f 36//36 9//9 10//10
f 9//9 36//36 35//35
f 33//33 31//31 34//34
f 32//32 31//31 33//33
f 30//30 31//31 32//32
f 30//30 29//29 31//31
f 28//28 29//29 30//30
f 28//28 26//26 29//29
f 27//27 26//26 28//28
f 25//25 26//26 27//27
f 25//25 23//23 26//26
f 24//24 23//23 25//25
f 22//22 23//23 24//24
f 22//22 21//21 23//23
f 20//20 21//21 22//22
f 20//20 18//18 21//21
f 19//19 18//18 20//20
f 17//17 18//18 19//19
f 17//17 15//15 18//18
f 16//16 15//15 17//17
f 14//14 15//15 16//16
f 14//14 12//12 15//15
f 13//13 12//12 14//14
f 11//11 12//12 13//13
f 11//11 8//8 12//12
f 10//10 8//8 11//11
f 9//9 8//8 10//10
f 7//7 8//8 9//9
f 7//7 6//6 8//8
f 5//5 6//6 7//7
f 5//5 4//4 6//6
f 2//2 4//4 5//5
f 2//2 3//3 4//4
f 3//3 2//2 1//1
f 65//65 66//66 53//53
f 56//56 53//53 66//66
f 66//66 53//53 56//56
f 53//53 66//66 65//65
f 67//67 65//65 50//50
f 53//53 50//50 65//65
f 65//65 50//50 53//53
f 50//50 65//65 67//67
f 68//68 67//67 47//47
f 50//50 47//47 67//67
f 67//67 47//47 50//50
f 47//47 67//67 68//68
f 69//69 68//68 45//45
f 47//47 45//45 68//68
f 68//68 45//45 47//47
f 45//45 68//68 69//69
f 70//70 69//69 42//42
f 45//45 42//42 69//69
f 69//69 42//42 45//45
f 42//42 69//69 70//70
f 71//71 70//70 39//39
f 42//42 39//39 70//70
f 70//70 39//39 42//42
f 39//39 70//70 71//71
f 72//72 71//71 35//35
f 39//39 35//35 71//71
f 71//71 35//35 39//39
f 35//35 71//71 72//72
f 73//73 72//72 9//9
f 35//35 9//9 72//72
f 72//72 9//9 35//35
f 9//9 72//72 73//73
f 7//7 74//74 9//9
f 73//73 9//9 74//74
f 74//74 9//9 73//73
f 9//9 74//74 7//7
f 5//5 75//75 7//7
f 74//74 7//7 75//75
f 75//75 7//7 74//74
f 7//7 75//75 5//5
f 2//2 76//76 5//5
f 75//75 5//5 76//76
f 76//76 5//5 75//75
f 5//5 76//76 2//2
f 1//1 77//77 2//2
f 76//76 2//2 77//77
f 77//77 2//2 76//76
f 2//2 77//77 1//1
f 3//3 78//78 1//1
f 77//77 1//1 78//78
f 78//78 1//1 77//77
f 1//1 78//78 3//3
f 4//4 79//79 3//3
f 78//78 3//3 79//79
f 79//79 3//3 78//78
f 3//3 79//79 4//4
f 6//6 80//80 4//4
f 79//79 4//4 80//80
f 80//80 4//4 79//79
f 4//4 80//80 6//6
f 8//8 81//81 6//6
f 80//80 6//6 81//81
f 81//81 6//6 80//80
f 6//6 81//81 8//8
f 82//82 81//81 12//12
f 8//8 12//12 81//81
f 81//81 12//12 8//8
f 12//12 81//81 82//82
f 83//83 82//82 15//15
f 12//12 15//15 82//82
f 82//82 15//15 12//12
f 15//15 82//82 83//83
f 84//84 83//83 18//18
f 15//15 18//18 83//83
f 83//83 18//18 15//15
f 18//18 83//83 84//84
f 85//85 84//84 21//21
f 18//18 21//21 84//84
f 84//84 21//21 18//18
f 21//21 84//84 85//85
f 86//86 85//85 23//23
f 21//21 23//23 85//85
f 85//85 23//23 21//21
f 23//23 85//85 86//86
f 87//87 86//86 26//26
f 23//23 26//26 86//86
f 86//86 26//26 23//23
f 26//26 86//86 87//87
f 88//88 87//87 29//29
f 26//26 29//29 87//87
f 87//87 29//29 26//26
f 29//29 87//87 88//88
f 89//89 88//88 31//31
f 29//29 31//31 88//88
f 88//88 31//31 29//29
f 31//31 88//88 89//89
f 89//89 31//31 90//90
f 58//58 90//90 31//31
f 31//31 90//90 58//58
f 90//90 31//31 89//89
f 90//90 58//58 91//91
f 61//61 91//91 58//58
f 58//58 91//91 61//61
f 91//91 58//58 90//90
f 91//91 61//61 92//92
f 63//63 92//92 61//61
f 61//61 92//92 63//63
f 92//92 61//61 91//91
f 92//92 63//63 93//93
f 64//64 93//93 63//63
f 63//63 93//93 64//64
f 93//93 63//63 92//92
f 93//93 64//64 94//94
f 62//62 94//94 64//64
f 64//64 94//94 62//62
f 94//94 64//64 93//93
f 94//94 62//62 95//95
f 60//60 95//95 62//62
f 62//62 95//95 60//60
f 95//95 62//62 94//94
f 95//95 60//60 96//96
f 59//59 96//96 60//60
f 60//60 96//96 59//59
f 96//96 60//60 95//95
f 96//96 59//59 66//66
f 56//56 66//66 59//59
f 59//59 66//66 56//56
f 66//66 59//59 96//96
f 97//97 98//98 73//73
f 72//72 73//73 98//98
f 99//99 72//72 98//98
f 100//100 72//72 99//99
f 71//71 72//72 100//100
f 101//101 71//71 100//100
f 102//102 71//71 101//101
f 70//70 71//71 102//102
f 103//103 70//70 102//102
f 104//104 70//70 103//103
f 69//69 70//70 104//104
f 105//105 69//69 104//104
f 68//68 69//69 105//105
f 106//106 68//68 105//105
f 107//107 68//68 106//106
f 67//67 68//68 107//107
f 108//108 67//67 107//107
f 109//109 67//67 108//108
f 65//65 67//67 109//109
f 110//110 65//65 109//109
f 111//111 65//65 110//110
f 66//66 65//65 111//111
f 112//112 66//66 111//111
f 113//113 66//66 112//112
f 77//77 78//78 76//76
f 79//79 76//76 78//78
f 75//75 76//76 79//79
f 80//80 75//75 79//79
f 74//74 75//75 80//80
f 81//81 74//74 80//80
f 73//73 74//74 81//81
f 97//97 73//73 81//81
f 114//114 97//97 81//81
f 82//82 114//114 81//81
f 115//115 114//114 82//82
f 116//116 115//115 82//82
f 83//83 116//116 82//82
f 117//117 116//116 83//83
f 118//118 117//117 83//83
f 84//84 118//118 83//83
f 119//119 118//118 84//84
f 120//120 119//119 84//84
f 85//85 120//120 84//84
f 121//121 120//120 85//85
f 86//86 121//121 85//85
f 122//122 121//121 86//86
f 123//123 122//122 86//86
f 87//87 123//123 86//86
f 124//124 123//123 87//87
f 125//125 124//124 87//87
f 88//88 125//125 87//87
f 126//126 125//125 88//88
f 89//89 126//126 88//88
f 127//127 126//126 89//89
f 128//128 127//127 89//89
f 113//113 128//128 89//89
f 66//66 113//113 89//89
f 96//96 66//66 89//89
f 90//90 96//96 89//89
f 95//95 96//96 90//90
f 91//91 95//95 90//90
f 94//94 95//95 91//91
f 92//92 94//94 91//91
f 93//93 94//94 92//92
f 92//92 94//94 93//93
f 91//91 94//94 92//92
f 91//91 95//95 94//94
f 90//90 95//95 91//91
f 90//90 96//96 95//95
f 89//89 96//96 90//90
f 89//89 66//66 96//96
f 89//89 113//113 66//66
f 89//89 128//128 113//113
f 89//89 127//127 128//128
f 89//89 126//126 127//127
f 88//88 126//126 89//89
f 88//88 125//125 126//126
f 87//87 125//125 88//88
f 87//87 124//124 125//125
f 87//87 123//123 124//124
f 86//86 123//123 87//87
f 86//86 122//122 123//123
f 86//86 121//121 122//122
f 85//85 121//121 86//86
f 85//85 120//120 121//121
f 84//84 120//120 85//85
f 84//84 119//119 120//120
f 84//84 118//118 119//119
f 83//83 118//118 84//84
f 83//83 117//117 118//118
f 83//83 116//116 117//117
f 82//82 116//116 83//83
f 82//82 115//115 116//116
f 82//82 114//114 115//115
f 81//81 114//114 82//82
f 81//81 97//97 114//114
f 81//81 73//73 97//97
f 81//81 74//74 73//73
f 80//80 74//74 81//81
f 80//80 75//75 74//74
f 79//79 75//75 80//80
f 79//79 76//76 75//75
f 78//78 76//76 79//79
f 76//76 78//78 77//77
f 112//112 66//66 113//113
f 111//111 66//66 112//112
f 111//111 65//65 66//66
f 110//110 65//65 111//111
f 109//109 65//65 110//110
f 109//109 67//67 65//65
f 108//108 67//67 109//109
f 107//107 67//67 108//108
f 107//107 68//68 67//67
f 106//106 68//68 107//107
f 105//105 68//68 106//106
f 105//105 69//69 68//68
f 104//104 69//69 105//105
f 104//104 70//70 69//69
f 103//103 70//70 104//104
f 102//102 70//70 103//103
f 102//102 71//71 70//70
f 101//101 71//71 102//102
f 100//100 71//71 101//101
f 100//100 72//72 71//71
f 99//99 72//72 100//100
f 98//98 72//72 99//99
f 98//98 73//73 72//72
f 73//73 98//98 97//97
f 129//129 130//130 131//131
f 132//132 131//131 130//130
f 133//133 132//132 130//130
f 134//134 132//132 133//133
f 135//135 134//134 133//133
f 136//136 134//134 135//135
f 137//137 136//136 135//135
f 138//138 136//136 137//137
f 137//137 136//136 138//138
f 135//135 136//136 137//137
f 135//135 134//134 136//136
f 133//133 134//134 135//135
f 133//133 132//132 134//134
f 130//130 132//132 133//133
f 130//130 131//131 132//132
f 131//131 130//130 129//129
f 139//139 136//136 140//140
f 138//138 140//140 136//136
f 136//136 140//140 138//138
f 140//140 136//136 139//139
f 141//141 140//140 137//137
f 138//138 137//137 140//140
f 140//140 137//137 138//138
f 137//137 140//140 141//141
f 135//135 142//142 137//137
f 141//141 137//137 142//142
f 142//142 137//137 141//141
f 137//137 142//142 135//135
f 142//142 135//135 143//143
f 133//133 143//143 135//135
f 135//135 143//143 133//133
f 143//143 135//135 142//142
f 144//144 143//143 130//130
f 133//133 130//130 143//143
f 143//143 130//130 133//133
f 130//130 143//143 144//144
f 129//129 145//145 130//130
f 144//144 130//130 145//145
f 145//145 130//130 144//144
f 130//130 145//145 129//129
f 146//146 145//145 131//131
f 129//129 131//131 145//145
f 145//145 131//131 129//129
f 131//131 145//145 146//146
f 146//146 131//131 147//147
f 132//132 147//147 131//131
f 131//131 147//147 132//132
f 147//147 131//131 146//146
f 134//134 148//148 132//132
f 147//147 132//132 148//148
f 148//148 132//132 147//147
f 132//132 148//148 134//134
f 139//139 148//148 136//136
f 134//134 136//136 148//148
f 148//148 136//136 134//134
f 136//136 148//148 139//139
f 141//141 142//142 140//140
f 145//145 147//147 144//144
f 143//143 144//144 147//147
f 148//148 143//143 147//147
f 142//142 143//143 148//148
f 139//139 142//142 148//148
f 140//140 142//142 139//139
f 147//147 145//145 146//146
f 146//146 145//145 147//147
f 139//139 142//142 140//140
f 148//148 142//142 139//139
f 148//148 143//143 142//142
f 147//147 143//143 148//148
f 147//147 144//144 143//143
f 144//144 147//147 145//145
f 140//140 142//142 141//141
f 114//114 11//11 97//97
f 10//10 97//97 11//11
f 11//11 97//97 10//10
f 97//97 11//11 114//114
f 97//97 10//10 98//98
f 36//36 98//98 10//10
f 10//10 98//98 36//36
f 98//98 10//10 97//97
f 115//115 13//13 114//114
f 11//11 114//114 13//13
f 13//13 114//114 11//11
f 114//114 13//13 115//115
f 98//98 36//36 99//99
f 37//37 99//99 36//36
f 36//36 99//99 37//37
f 99//99 36//36 98//98
f 116//116 14//14 115//115
f 13//13 115//115 14//14
f 14//14 115//115 13//13
f 115//115 14//14 116//116
f 99//99 37//37 100//100
f 38//38 100//100 37//37
f 37//37 100//100 38//38
f 100//100 37//37 99//99
f 117//117 16//16 116//116
f 14//14 116//116 16//16
f 16//16 116//116 14//14
f 116//116 16//16 117//117
f 100//100 38//38 101//101
f 40//40 101//101 38//38
f 38//38 101//101 40//40
f 101//101 38//38 100//100
f 118//118 17//17 117//117
f 16//16 117//117 17//17
f 17//17 117//117 16//16
f 117//117 17//17 118//118
f 101//101 40//40 102//102
f 41//41 102//102 40//40
f 40//40 102//102 41//41
f 102//102 40//40 101//101
f 118//118 119//119 17//17
f 19//19 17//17 119//119
f 119//119 17//17 19//19
f 17//17 119//119 118//118
f 103//103 102//102 43//43
f 41//41 43//43 102//102
f 102//102 43//43 41//41
f 43//43 102//102 103//103
f 119//119 120//120 19//19
f 20//20 19//19 120//120
f 120//120 19//19 20//20
f 19//19 120//120 119//119
f 104//104 103//103 44//44
f 43//43 44//44 103//103
f 103//103 44//44 43//43
f 44//44 103//103 104//104
f 120//120 121//121 20//20
f 22//22 20//20 121//121
f 121//121 20//20 22//22
f 20//20 121//121 120//120
f 105//105 104//104 46//46
f 44//44 46//46 104//104
f 104//104 46//46 44//44
f 46//46 104//104 105//105
f 121//121 122//122 22//22
f 24//24 22//22 122//122
f 122//122 22//22 24//24
f 22//22 122//122 121//121
f 106//106 105//105 48//48
f 46//46 48//48 105//105
f 105//105 48//48 46//46
f 48//48 105//105 106//106
f 122//122 123//123 24//24
f 25//25 24//24 123//123
f 123//123 24//24 25//25
f 24//24 123//123 122//122
f 107//107 106//106 49//49
f 48//48 49//49 106//106
f 106//106 49//49 48//48
f 49//49 106//106 107//107
f 123//123 124//124 25//25
f 27//27 25//25 124//124
f 124//124 25//25 27//27
f 25//25 124//124 123//123
f 108//108 107//107 51//51
f 49//49 51//51 107//107
f 107//107 51//51 49//49
f 51//51 107//107 108//108
f 27//27 124//124 28//28
f 125//125 28//28 124//124
f 124//124 28//28 125//125
f 28//28 124//124 27//27
f 52//52 109//109 51//51
f 108//108 51//51 109//109
f 109//109 51//51 108//108
f 51//51 109//109 52//52
f 28//28 125//125 30//30
f 126//126 30//30 125//125
f 125//125 30//30 126//126
f 30//30 125//125 28//28
f 54//54 110//110 52//52
f 109//109 52//52 110//110
f 110//110 52//52 109//109
f 52//52 110//110 54//54
f 30//30 126//126 32//32
f 127//127 32//32 126//126
f 126//126 32//32 127//127
f 32//32 126//126 30//30
f 55//55 111//111 54//54
f 110//110 54//54 111//111
f 111//111 54//54 110//110
f 54//54 111//111 55//55
f 32//32 127//127 33//33
f 128//128 33//33 127//127
f 127//127 33//33 128//128
f 33//33 127//127 32//32
f 57//57 112//112 55//55
f 111//111 55//55 112//112
f 112//112 55//55 111//111
f 55//55 112//112 57//57
f 33//33 128//128 34//34
f 113//113 34//34 128//128
f 128//128 34//34 113//113
f 34//34 128//128 33//33
f 34//34 113//113 57//57
f 112//112 57//57 113//113
f 113//113 57//57 112//112
f 57//57 113//113 34//34
f 149//149 150//150 151//151
f 152//152 151//151 150//150
f 153//153 152//152 150//150
f 154//154 152//152 153//153
f 155//155 154//154 153//153
f 156//156 154//154 155//155
f 157//157 156//156 155//155
f 158//158 156//156 157//157
f 159//159 156//156 158//158
f 160//160 156//156 159//159
f 161//161 160//160 159//159
f 162//162 160//160 161//161
f 163//163 160//160 162//162
f 164//164 163//163 162//162
f 165//165 163//163 164//164
f 166//166 163//163 165//165
f 167//167 166//166 165//165
f 168//168 166//166 167//167
f 169//169 166//166 168//168
f 170//170 169//169 168//168
f 171//171 169//169 170//170
f 172//172 171//171 170//170
f 173//173 171//171 172//172
f 174//174 171//171 173//173
f 175//175 174//174 173//173
f 176//176 174//174 175//175
f 177//177 174//174 176//176
f 178//178 177//177 176//176
f 179//179 177//177 178//178
f 180//180 179//179 178//178
f 181//181 179//179 180//180
f 182//182 179//179 181//181
f 183//183 184//184 157//157
f 158//158 157//157 184//184
f 185//185 184//184 183//183
f 186//186 185//185 183//183
f 187//187 186//186 183//183
f 188//188 186//186 187//187
f 189//189 188//188 187//187
f 190//190 189//189 187//187
f 191//191 189//189 190//190
f 192//192 191//191 190//190
f 193//193 192//192 190//190
f 194//194 192//192 193//193
f 195//195 194//194 193//193
f 196//196 194//194 195//195
f 197//197 196//196 195//195
f 198//198 197//197 195//195
f 199//199 197//197 198//198
f 200//200 199//199 198//198
f 201//201 200//200 198//198
f 202//202 200//200 201//201
f 203//203 202//202 201//201
f 204//204 203//203 201//201
f 205//205 203//203 204//204
f 182//182 205//205 204//204
f 179//179 182//182 204//204
f 206//206 179//179 204//204
f 207//207 206//206 204//204
f 208//208 206//206 207//207
f 209//209 206//206 208//208
f 210//210 209//209 208//208
f 211//211 209//209 210//210
f 212//212 211//211 210//210
f 210//210 211//211 212//212
f 210//210 209//209 211//211
f 208//208 209//209 210//210
f 208//208 206//206 209//209
f 207//207 206//206 208//208
f 204//204 206//206 207//207
f 204//204 179//179 206//206
f 204//204 182//182 179//179
f 204//204 205//205 182//182
f 204//204 203//203 205//205
f 201//201 203//203 204//204
f 201//201 202//202 203//203
f 201//201 200//200 202//202
f 198//198 200//200 201//201
f 198//198 199//199 200//200
f 198//198 197//197 199//199
f 195//195 197//197 198//198
f 195//195 196//196 197//197
f 195//195 194//194 196//196
f 193//193 194//194 195//195
f 193//193 192//192 194//194
f 190//190 192//192 193//193
f 190//190 191//191 192//192
f 190//190 189//189 191//191
f 187//187 189//189 190//190
f 187//187 188//188 189//189
f 187//187 186//186 188//188
f 183//183 186//186 187//187
f 183//183 185//185 186//186
f 183//183 184//184 185//185
f 184//184 157//157 158//158
f 157//157 184//184 183//183
f 181//181 179//179 182//182
f 180//180 179//179 181//181
f 178//178 179//179 180//180
f 178//178 177//177 179//179
f 176//176 177//177 178//178
f 176//176 174//174 177//177
f 175//175 174//174 176//176
f 173//173 174//174 175//175
f 173//173 171//171 174//174
f 172//172 171//171 173//173
f 170//170 171//171 172//172
f 170//170 169//169 171//171
f 168//168 169//169 170//170
f 168//168 166//166 169//169
f 167//167 166//166 168//168
f 165//165 166//166 167//167
f 165//165 163//163 166//166
f 164//164 163//163 165//165
f 162//162 163//163 164//164
f 162//162 160//160 163//163
f 161//161 160//160 162//162
f 159//159 160//160 161//161
f 159//159 156//156 160//160
f 158//158 156//156 159//159
f 157//157 156//156 158//158
f 155//155 156//156 157//157
f 155//155 154//154 156//156
f 153//153 154//154 155//155
f 153//153 152//152 154//154
f 150//150 152//152 153//153
f 150//150 151//151 152//152
f 151//151 150//150 149//149
f 213//213 214//214 201//201
f 204//204 201//201 214//214
f 214//214 201//201 204//204
f 201//201 214//214 213//213
f 215//215 213//213 198//198
f 201//201 198//198 213//213
f 213//213 198//198 201//201
f 198//198 213//213 215//215
f 216//216 215//215 195//195
f 198//198 195//195 215//215
f 215//215 195//195 198//198
f 195//195 215//215 216//216
f 217//217 216//216 193//193
f 195//195 193//193 216//216
f 216//216 193//193 195//195
f 193//193 216//216 217//217
f 218//218 217//217 190//190
f 193//193 190//190 217//217
f 217//217 190//190 193//193
f 190//190 217//217 218//218
f 219//219 218//218 187//187
f 190//190 187//187 218//218
f 218//218 187//187 190//190
f 187//187 218//218 219//219
f 220//220 219//219 183//183
f 187//187 183//183 219//219
f 219//219 183//183 187//187
f 183//183 219//219 220//220
f 221//221 220//220 157//157
f 183//183 157//157 220//220
f 220//220 157//157 183//183
f 157//157 220//220 221//221
f 155//155 222//222 157//157
f 221//221 157//157 222//222
f 222//222 157//157 221//221
f 157//157 222//222 155//155
f 153//153 223//223 155//155
f 222//222 155//155 223//223
f 223//223 155//155 222//222
f 155//155 223//223 153//153
f 150//150 224//224 153//153
f 223//223 153//153 224//224
f 224//224 153//153 223//223
f 153//153 224//224 150//150
f 149//149 225//225 150//150
f 224//224 150//150 225//225
f 225//225 150//150 224//224
f 150//150 225//225 149//149
f 151//151 226//226 149//149
f 225//225 149//149 226//226
f 226//226 149//149 225//225
f 149//149 226//226 151//151
f 152//152 227//227 151//151
f 226//226 151//151 227//227
f 227//227 151//151 226//226
f 151//151 227//227 152//152
f 154//154 228//228 152//152
f 227//227 152//152 228//228
f 228//228 152//152 227//227
f 152//152 228//228 154//154
f 156//156 229//229 154//154
f 228//228 154//154 229//229
f 229//229 154//154 228//228
f 154//154 229//229 156//156
f 230//230 229//229 160//160
f 156//156 160//160 229//229
f 229//229 160//160 156//156
f 160//160 229//229 230//230
f 231//231 230//230 163//163
f 160//160 163//163 230//230
f 230//230 163//163 160//160
f 163//163 230//230 231//231
f 232//232 231//231 166//166
f 163//163 166//166 231//231
f 231//231 166//166 163//163
f 166//166 231//231 232//232
f 233//233 232//232 169//169
f 166//166 169//169 232//232
f 232//232 169//169 166//166
f 169//169 232//232 233//233
f 234//234 233//233 171//171
f 169//169 171//171 233//233
f 233//233 171//171 169//169
f 171//171 233//233 234//234
f 235//235 234//234 174//174
f 171//171 174//174 234//234
f 234//234 174//174 171//171
f 174//174 234//234 235//235
f 236//236 235//235 177//177
f 174//174 177//177 235//235
f 235//235 177//177 174//174
f 177//177 235//235 236//236
f 237//237 236//236 179//179
f 177//177 179//179 236//236
f 236//236 179//179 177//177
f 179//179 236//236 237//237
f 237//237 179//179 238//238
f 206//206 238//238 179//179
f 179//179 238//238 206//206
f 238//238 179//179 237//237
f 238//238 206//206 239//239
f 209//209 239//239 206//206
f 206//206 239//239 209//209
f 239//239 206//206 238//238
f 239//239 209//209 240//240
f 211//211 240//240 209//209
f 209//209 240//240 211//211
f 240//240 209//209 239//239
f 240//240 211//211 241//241
f 212//212 241//241 211//211
f 211//211 241//241 212//212
f 241//241 211//211 240//240
f 241//241 212//212 242//242
f 210//210 242//242 212//212
f 212//212 242//242 210//210
f 242//242 212//212 241//241
f 242//242 210//210 243//243
f 208//208 243//243 210//210
f 210//210 243//243 208//208
f 243//243 210//210 242//242
f 243//243 208//208 244//244
f 207//207 244//244 208//208
f 208//208 244//244 207//207
f 244//244 208//208 243//243
f 244//244 207//207 214//214
f 204//204 214//214 207//207
f 207//207 214//214 204//204
f 214//214 207//207 244//244
f 245//245 246//246 221//221
f 220//220 221//221 246//246
f 247//247 220//220 246//246
f 248//248 220//220 247//247
f 219//219 220//220 248//248
f 249//249 219//219 248//248
f 250//250 219//219 249//249
f 218//218 219//219 250//250
f 251//251 218//218 250//250
f 252//252 218//218 251//251
f 217//217 218//218 252//252
f 253//253 217//217 252//252
f 216//216 217//217 253//253
f 254//254 216//216 253//253
f 255//255 216//216 254//254
f 215//215 216//216 255//255
f 256//256 215//215 255//255
f 257//257 215//215 256//256
f 213//213 215//215 257//257
f 258//258 213//213 257//257
f 259//259 213//213 258//258
f 214//214 213//213 259//259
f 260//260 214//214 259//259
f 261//261 214//214 260//260
f 225//225 226//226 224//224
f 227//227 224//224 226//226
f 223//223 224//224 227//227
f 228//228 223//223 227//227
f 222//222 223//223 228//228
f 229//229 222//222 228//228
f 221//221 222//222 229//229
f 245//245 221//221 229//229
f 262//262 245//245 229//229
f 230//230 262//262 229//229
f 263//263 262//262 230//230
f 264//264 263//263 230//230
f 231//231 264//264 230//230
f 265//265 264//264 231//231
f 266//266 265//265 231//231
f 232//232 266//266 231//231
f 267//267 266//266 232//232
f 268//268 267//267 232//232
f 233//233 268//268 232//232
f 269//269 268//268 233//233
f 234//234 269//269 233//233
f 270//270 269//269 234//234
f 271//271 270//270 234//234
f 235//235 271//271 234//234
f 272//272 271//271 235//235
f 273//273 272//272 235//235
f 236//236 273//273 235//235
f 274//274 273//273 236//236
f 237//237 274//274 236//236
f 275//275 274//274 237//237
f 276//276 275//275 237//237
f 261//261 276//276 237//237
f 214//214 261//261 237//237
f 244//244 214//214 237//237
f 238//238 244//244 237//237
f 243//243 244//244 238//238
f 239//239 243//243 238//238
f 242//242 243//243 239//239
f 240//240 242//242 239//239
f 241//241 242//242 240//240
f 240//240 242//242 241//241
f 239//239 242//242 240//240
f 239//239 243//243 242//242
f 238//238 243//243 239//239
f 238//238 244//244 243//243
f 237//237 244//244 238//238
f 237//237 214//214 244//244
f 237//237 261//261 214//214
f 237//237 276//276 261//261
f 237//237 275//275 276//276
f 237//237 274//274 275//275
f 236//236 274//274 237//237
f 236//236 273//273 274//274
f 235//235 273//273 236//236
f 235//235 272//272 273//273
f 235//235 271//271 272//272
f 234//234 271//271 235//235
f 234//234 270//270 271//271
f 234//234 269//269 270//270
f 233//233 269//269 234//234
f 233//233 268//268 269//269
f 232//232 268//268 233//233
f 232//232 267//267 268//268
f 232//232 266//266 267//267
f 231//231 266//266 232//232
f 231//231 265//265 266//266
f 231//231 264//264 265//265
f 230//230 264//264 231//231
f 230//230 263//263 264//264
f 230//230 262//262 263//263
f 229//229 262//262 230//230
f 229//229 245//245 262//262
f 229//229 221//221 245//245
f 229//229 222//222 221//221
f 228//228 222//222 229//229
f 228//228 223//223 222//222
f 227//227 223//223 228//228
f 227//227 224//224 223//223
f 226//226 224//224 227//227
f 224//224 226//226 225//225
f 260//260 214//214 261//261
f 259//259 214//214 260//260
f 259//259 213//213 214//214
f 258//258 213//213 259//259
f 257//257 213//213 258//258
f 257//257 215//215 213//213
f 256//256 215//215 257//257
f 255//255 215//215 256//256
f 255//255 216//216 215//215
f 254//254 216//216 255//255
f 253//253 216//216 254//254
f 253//253 217//217 216//216
f 252//252 217//217 253//253
f 252//252 218//218 217//217
f 251//251 218//218 252//252
f 250//250 218//218 251//251
f 250//250 219//219 218//218
f 249//249 219//219 250//250
f 248//248 219//219 249//249
f 248//248 220//220 219//219
f 247//247 220//220 248//248
f 246//246 220//220 247//247
f 246//246 221//221 220//220
f 221//221 246//246 245//245
f 277//277 278//278 279//279
f 280//280 279//279 278//278
f 281//281 282//282 283//283
f 284//284 283//283 282//282
f 285//285 284//284 282//282
f 277//277 283//283 284//284
f 278//278 277//277 284//284
f 286//286 284//284 285//285
f 285//285 284//284 286//286
f 284//284 277//277 278//278
f 284//284 283//283 277//277
f 282//282 284//284 285//285
f 282//282 283//283 284//284
f 283//283 282//282 281//281
f 278//278 279//279 280//280
f 279//279 278//278 277//277
f 287//287 286//286 288//288
f 285//285 288//288 286//286
f 286//286 288//288 285//285
f 288//288 286//286 287//287
f 289//289 288//288 282//282
f 285//285 282//282 288//288
f 288//288 282//282 285//285
f 282//282 288//288 289//289
f 281//281 290//290 282//282
f 289//289 282//282 290//290
f 290//290 282//282 289//289
f 282//282 290//290 281//281
f 291//291 290//290 283//283
f 281//281 283//283 290//290
f 290//290 283//283 281//281
f 283//283 290//290 291//291
f 291//291 283//283 292//292
f 277//277 292//292 283//283
f 283//283 292//292 277//277
f 292//292 283//283 291//291
f 293//293 292//292 279//279
f 277//277 279//279 292//292
f 292//292 279//279 277//277
f 279//279 292//292 293//293
f 293//293 279//279 294//294
f 280//280 294//294 279//279
f 279//279 294//294 280//280
f 294//294 279//279 293//293
f 295//295 294//294 278//278
f 280//280 278//278 294//294
f 294//294 278//278 280//280
f 278//278 294//294 295//295
f 295//295 278//278 296//296
f 284//284 296//296 278//278
f 278//278 296//296 284//284
f 296//296 278//278 295//295
f 287//287 296//296 286//286
f 284//284 286//286 296//296
f 296//296 286//286 284//284
f 286//286 296//296 287//287
f 290//290 296//296 289//289
f 288//288 289//289 296//296
f 287//287 288//288 296//296
f 295//295 292//292 294//294
f 293//293 294//294 292//292
f 290//290 291//291 296//296
f 295//295 296//296 291//291
f 292//292 295//295 291//291
f 291//291 295//295 292//292
f 291//291 296//296 295//295
f 296//296 291//291 290//290
f 292//292 294//294 293//293
f 294//294 292//292 295//295
f 296//296 288//288 287//287
f 296//296 289//289 288//288
f 289//289 296//296 290//290
f 297//297 298//298 299//299
f 300//300 299//299 298//298
f 301//301 302//302 303//303
f 304//304 303//303 302//302
f 305//305 304//304 302//302
f 297//297 303//303 304//304
f 298//298 297//297 304//304
f 306//306 304//304 305//305
f 305//305 304//304 306//306
f 304//304 297//297 298//298
f 304//304 303//303 297//297
f 302//302 304//304 305//305
f 302//302 303//303 304//304
f 303//303 302//302 301//301
f 298//298 299//299 300//300
f 299//299 298//298 297//297
f 307//307 306//306 308//308
f 305//305 308//308 306//306
f 306//306 308//308 305//305
f 308//308 306//306 307//307
f 309//309 308//308 302//302
f 305//305 302//302 308//308
f 308//308 302//302 305//305
f 302//302 308//308 309//309
f 301//301 310//310 302//302
f 309//309 302//302 310//310
f 310//310 302//302 309//309
f 302//302 310//310 301//301
f 311//311 310//310 303//303
f 301//301 303//303 310//310
f 310//310 303//303 301//301
f 303//303 310//310 311//311
f 311//311 303//303 312//312
f 297//297 312//312 303//303
f 303//303 312//312 297//297
f 312//312 303//303 311//311
f 313//313 312//312 299//299
f 297//297 299//299 312//312
f 312//312 299//299 297//297
f 299//299 312//312 313//313
f 313//313 299//299 314//314
f 300//300 314//314 299//299
f 299//299 314//314 300//300
f 314//314 299//299 313//313
f 315//315 314//314 298//298
f 300//300 298//298 314//314
f 314//314 298//298 300//300
f 298//298 314//314 315//315
f 315//315 298//298 316//316
f 304//304 316//316 298//298
f 298//298 316//316 304//304
f 316//316 298//298 315//315
f 307//307 316//316 306//306
f 304//304 306//306 316//316
f 316//316 306//306 304//304
f 306//306 316//316 307//307
f 310//310 316//316 309//309
f 308//308 309//309 316//316
f 307//307 308//308 316//316
f 315//315 312//312 314//314
f 313//313 314//314 312//312
f 310//310 311//311 316//316
f 315//315 316//316 311//311
f 312//312 315//315 311//311
f 311//311 315//315 312//312
f 311//311 316//316 315//315
f 316//316 311//311 310//310
f 312//312 314//314 313//313
f 314//314 312//312 315//315
f 316//316 308//308 307//307
f 316//316 309//309 308//308
f 309//309 316//316 310//310
f 262//262 159//159 245//245
f 158//158 245//245 159//159
f 159//159 245//245 158//158
f 245//245 159//159 262//262
f 245//245 158//158 246//246
f 184//184 246//246 158//158
f 158//158 246//246 184//184
f 246//246 158//158 245//245
f 263//263 161//161 262//262
f 159//159 262//262 161//161
f 161//161 262//262 159//159
f 262//262 161//161 263//263
f 246//246 184//184 247//247
f 185//185 247//247 184//184
f 184//184 247//247 185//185
f 247//247 184//184 246//246
f 264//264 162//162 263//263
f 161//161 263//263 162//162
f 162//162 263//263 161//161
f 263//263 162//162 264//264
f 247//247 185//185 248//248
f 186//186 248//248 185//185
f 185//185 248//248 186//186
f 248//248 185//185 247//247
f 265//265 164//164 264//264
f 162//162 264//264 164//164
f 164//164 264//264 162//162
f 264//264 164//164 265//265
f 248//248 186//186 249//249
f 188//188 249//249 186//186
f 186//186 249//249 188//188
f 249//249 186//186 248//248
f 266//266 165//165 265//265
f 164//164 265//265 165//165
f 165//165 265//265 164//164
f 265//265 165//165 266//266
f 249//249 188//188 250//250
f 189//189 250//250 188//188
f 188//188 250//250 189//189
f 250//250 188//188 249//249
f 266//266 267//267 165//165
f 167//167 165//165 267//267
f 267//267 165//165 167//167
f 165//165 267//267 266//266
f 251//251 250//250 191//191
f 189//189 191//191 250//250
f 250//250 191//191 189//189
f 191//191 250//250 251//251
f 267//267 268//268 167//167
f 168//168 167//167 268//268
f 268//268 167//167 168//168
f 167//167 268//268 267//267
f 252//252 251//251 192//192
f 191//191 192//192 251//251
f 251//251 192//192 191//191
f 192//192 251//251 252//252
f 268//268 269//269 168//168
f 170//170 168//168 269//269
f 269//269 168//168 170//170
f 168//168 269//269 268//268
f 253//253 252//252 194//194
f 192//192 194//194 252//252
f 252//252 194//194 192//192
f 194//194 252//252 253//253
f 269//269 270//270 170//170
f 172//172 170//170 270//270
f 270//270 170//170 172//172
f 170//170 270//270 269//269
f 254//254 253//253 196//196
f 194//194 196//196 253//253
f 253//253 196//196 194//194
f 196//196 253//253 254//254
f 270//270 271//271 172//172
f 173//173 172//172 271//271
f 271//271 172//172 173//173
f 172//172 271//271 270//270
f 255//255 254//254 197//197
f 196//196 197//197 254//254
f 254//254 197//197 196//196
f 197//197 254//254 255//255
f 271//271 272//272 173//173
f 175//175 173//173 272//272
f 272//272 173//173 175//175
f 173//173 272//272 271//271
f 256//256 255//255 199//199
f 197//197 199//199 255//255
f 255//255 199//199 197//197
f 199//199 255//255 256//256
f 175//175 272//272 176//176
f 273//273 176//176 272//272
f 272//272 176//176 273//273
f 176//176 272//272 175//175
f 200//200 257//257 199//199
f 256//256 199//199 257//257
f 257//257 199//199 256//256
f 199//199 257//257 200//200
f 176//176 273//273 178//178
f 274//274 178//178 273//273
f 273//273 178//178 274//274
f 178//178 273//273 176//176
f 202//202 258//258 200//200
f 257//257 200//200 258//258
f 258//258 200//200 257//257
f 200//200 258//258 202//202
f 178//178 274//274 180//180
f 275//275 180//180 274//274
f 274//274 180//180 275//275
f 180//180 274//274 178//178
f 203//203 259//259 202//202
f 258//258 202//202 259//259
f 259//259 202//202 258//258
f 202//202 259//259 203//203
f 180//180 275//275 181//181
f 276//276 181//181 275//275
f 275//275 181//181 276//276
f 181//181 275//275 180//180
f 205//205 260//260 203//203
f 259//259 203//203 260//260
f 260//260 203//203 259//259
f 203//203 260//260 205//205
f 181//181 276//276 182//182
f 261//261 182//182 276//276
f 276//276 182//182 261//261
f 182//182 276//276 181//181
f 182//182 261//261 205//205
f 260//260 205//205 261//261
f 261//261 205//205 260//260
f 205//205 261//261 182//182
f 317//317 318//318 319//319
f 318//318 317//317 320//320
f 321//321 320//320 317//317
f 320//320 321//321 322//322
f 323//323 321//321 324//324
f 321//321 323//323 322//322
f 325//325 324//324 326//326
f 324//324 325//325 323//323
f 327//327 326//326 328//328
f 326//326 327//327 325//325
f 329//329 328//328 330//330
f 328//328 329//329 327//327
f 331//331 330//330 332//332
f 330//330 331//331 329//329
f 333//333 332//332 334//334
f 332//332 333//333 331//331
f 333//333 335//335 336//336
f 335//335 333//333 334//334
f 336//336 337//337 338//338
f 337//337 336//336 335//335
f 338//338 339//339 340//340
f 339//339 338//338 337//337
f 340//340 341//341 342//342
f 341//341 340//340 339//339
f 342//342 343//343 344//344
f 343//343 342//342 341//341
f 344//344 345//345 346//346
f 345//345 344//344 343//343
f 347//347 345//345 348//348
f 345//345 347//347 346//346
f 349//349 348//348 350//350
f 348//348 349//349 347//347
f 351//351 350//350 352//352
f 350//350 351//351 349//349
f 353//353 352//352 354//354
f 352//352 353//353 351//351
f 355//355 354//354 356//356
f 354//354 355//355 353//353
f 357//357 356//356 358//358
f 356//356 357//357 355//355
f 359//359 357//357 358//358
f 357//357 359//359 360//360
f 361//361 360//360 359//359
f 360//360 361//361 362//362
f 363//363 362//362 361//361
f 362//362 363//363 364//364
f 319//319 364//364 363//363
f 364//364 319//319 318//318
f 361//361 319//319 363//363
f 359//359 319//319 361//361
f 359//359 317//317 319//319
f 358//358 317//317 359//359
f 358//358 321//321 317//317
f 358//358 324//324 321//321
f 356//356 324//324 358//358
f 356//356 326//326 324//324
f 354//354 326//326 356//356
f 352//352 326//326 354//354
f 352//352 328//328 326//326
f 350//350 328//328 352//352
f 350//350 330//330 328//328
f 350//350 332//332 330//330
f 348//348 332//332 350//350
f 348//348 334//334 332//332
f 345//345 334//334 348//348
f 343//343 334//334 345//345
f 343//343 335//335 334//334
f 341//341 335//335 343//343
f 341//341 337//337 335//335
f 337//337 341//341 339//339
f 365//365 366//366 367//367
f 366//366 365//365 368//368
f 369//369 368//368 365//365
f 368//368 369//369 370//370
f 371//371 370//370 369//369
f 370//370 371//371 372//372
f 373//373 372//372 371//371
f 372//372 373//373 374//374
f 375//375 374//374 373//373
f 374//374 375//375 376//376
f 377//377 376//376 375//375
f 376//376 377//377 378//378
f 379//379 377//377 380//380
f 377//377 379//379 378//378
f 381//381 380//380 382//382
f 380//380 381//381 379//379
f 383//383 382//382 384//384
f 382//382 383//383 381//381
f 385//385 384//384 386//386
f 384//384 385//385 383//383
f 387//387 386//386 388//388
f 386//386 387//387 385//385
f 389//389 388//388 390//390
f 388//388 389//389 387//387
f 389//389 391//391 392//392
f 391//391 389//389 390//390
f 392//392 393//393 394//394
f 393//393 392//392 391//391
f 394//394 395//395 396//396
f 395//395 394//394 393//393
f 396//396 397//397 398//398
f 397//397 396//396 395//395
f 398//398 399//399 400//400
f 399//399 398//398 397//397
f 400//400 401//401 402//402
f 401//401 400//400 399//399
f 403//403 401//401 404//404
f 401//401 403//403 402//402
f 405//405 404//404 406//406
f 404//404 405//405 403//403
f 407//407 406//406 408//408
f 406//406 407//407 405//405
f 409//409 408//408 410//410
f 408//408 409//409 407//407
f 411//411 410//410 412//412
f 410//410 411//411 409//409
f 366//366 412//412 367//367
f 412//412 366//366 411//411
f 369//369 373//373 371//371
f 369//369 375//375 373//373
f 365//365 375//375 369//369
f 367//367 375//375 365//365
f 367//367 377//377 375//375
f 367//367 380//380 377//377
f 412//412 380//380 367//367
f 410//410 380//380 412//412
f 410//410 382//382 380//380
f 408//408 382//382 410//410
f 408//408 384//384 382//382
f 408//408 386//386 384//384
f 406//406 386//386 408//408
f 404//404 386//386 406//406
f 404//404 388//388 386//386
f 401//401 388//388 404//404
f 401//401 390//390 388//388
f 401//401 391//391 390//390
f 399//399 391//391 401//401
f 397//397 391//391 399//399
f 397//397 393//393 391//391
f 393//393 397//397 395//395
f 413//413 414//414 415//415
f 414//414 413//413 416//416
f 414//414 417//417 418//418
f 417//417 414//414 416//416
f 413//413 419//419 420//420
f 419//419 413//413 415//415
f 421//421 422//422 423//423
f 422//422 421//421 424//424
f 418//418 421//421 423//423
f 421//421 418//418 417//417
f 419//419 414//414 418//418
f 414//414 419//419 415//415
f 420//420 422//422 424//424
f 422//422 420//420 419//419
f 422//422 418//418 423//423
f 418//418 422//422 419//419
f 416//416 370//370 372//372
f 416//416 368//368 370//370
f 416//416 366//366 368//368
f 416//416 411//411 366//366
f 416//416 409//409 411//411
f 416//416 407//407 409//409
f 416//416 405//405 407//407
f 416//416 403//403 405//405
f 398//398 413//413 396//396
f 400//400 413//413 398//398
f 402//402 413//413 400//400
f 403//403 413//413 402//402
f 413//413 403//403 416//416
f 425//425 421//421 426//426
f 425//425 364//364 421//421
f 425//425 362//362 364//364
f 425//425 360//360 362//362
f 425//425 357//357 360//360
f 425//425 355//355 357//357
f 425//425 353//353 355//355
f 425//425 351//351 353//353
f 425//425 349//349 351//351
f 342//342 424//424 340//340
f 344//344 424//424 342//342
f 346//346 424//424 344//344
f 347//347 424//424 346//346
f 424//424 413//413 420//420
f 424//424 427//427 413//413
f 347//347 427//427 424//424
f 349//349 427//427 347//347
f 427//427 349//349 425//425
f 417//417 426//426 421//421
f 416//416 426//426 417//417
f 372//372 426//426 416//416
f 374//374 426//426 372//372
f 376//376 426//426 374//374
f 378//378 426//426 376//376
f 379//379 426//426 378//378
f 381//381 426//426 379//379
f 383//383 426//426 381//381
f 385//385 426//426 383//383
f 413//413 394//394 396//396
f 413//413 392//392 394//394
f 413//413 389//389 392//392
f 385//385 428//428 426//426
f 387//387 428//428 385//385
f 389//389 428//428 387//387
f 413//413 428//428 389//389
f 428//428 413//413 427//427
f 318//318 421//421 364//364
f 320//320 421//421 318//318
f 322//322 421//421 320//320
f 323//323 421//421 322//322
f 325//325 421//421 323//323
f 327//327 421//421 325//325
f 329//329 421//421 327//327
f 329//329 424//424 421//421
f 331//331 424//424 329//329
f 333//333 424//424 331//331
f 336//336 424//424 333//333
f 338//338 424//424 336//336
f 424//424 338//338 340//340
f 429//429 427//427 425//425
f 427//427 429//429 430//430
f 431//431 427//427 430//430
f 427//427 431//431 428//428
f 431//431 426//426 428//428
f 426//426 431//431 432//432
f 426//426 429//429 425//425
f 429//429 426//426 432//432
f 431//431 429//429 432//432
f 429//429 431//431 430//430