# https://github.com/mikedh/trimesh
v -0.00713000 0.04349100 -0.00096200
v -0.00713000 0.02923100 -0.01522100
v 0.01643900 -0.04349100 -0.05755000
v -0.01643900 -0.02923100 -0.05755000
v -0.00552600 -0.02923100 -0.03120200
v 0.00552600 -0.02923100 -0.03120200
v 0.03187300 -0.02923100 -0.02028800
v -0.01643900 -0.04349100 -0.05755000
v 0.03564800 0.04349100 -0.00096200
v 0.02138900 0.01061900 0.05799900
v 0.00713000 0.04349100 -0.00096200
v 0.01643900 -0.02923100 -0.05755000
v -0.03564800 0.04349100 -0.01522100
v 0.04278700 -0.02923100 -0.04663600
v 0.02138900 -0.01354600 -0.04374000
v -0.02138900 -0.01354600 -0.04374000
v 0.00713000 0.02923100 -0.00096200
v -0.02138900 0.00071300 -0.05799900
v 0.04278700 -0.04349100 -0.04663600
v -0.03564800 0.02923100 -0.01522100
v 0.02138900 0.02153200 0.03165100
v 0.02138900 -0.01354600 -0.05799900
v -0.02138900 -0.04207700 0.03617200
v 0.02138900 0.00071300 -0.05799900
v 0.02138900 -0.04207700 0.03617200
v -0.02138900 0.02153200 0.03165100
v -0.02138900 -0.01354600 -0.05799900
v 0.03564800 0.02923100 -0.01522100
v -0.03564800 0.02923100 0.02755700
v -0.03564800 -0.04206500 0.02755700
v -0.00713000 0.02923100 -0.00096200
v 0.03564800 -0.04206500 0.02755700
v 0.03564800 0.02923100 0.02755700
v -0.03187300 -0.02923100 -0.02028800
v -0.03564800 0.02923100 -0.00096200
v 0.03564800 0.02923100 -0.04374000
v 0.03564800 -0.04206500 -0.04374000
v 0.00552600 -0.04349100 -0.03120200
v -0.03564800 -0.04206500 -0.04374000
v 0.03564800 0.02923100 -0.00096200
v -0.03564800 0.02923100 -0.04374000
v 0.02138900 0.00071300 -0.04374000
v -0.02138900 0.00071300 -0.04374000
v 0.03187300 -0.04349100 -0.02028800
v 0.03564800 0.04349100 -0.01522100
v -0.00713000 0.04349100 -0.01522100
v 0.00713000 0.02923100 -0.01522100
v 0.00713000 0.04349100 -0.01522100
v -0.03564800 0.04349100 -0.00096200
v -0.03187300 -0.04349100 -0.02028800
v -0.04278700 -0.04349100 -0.04663600
v 0.02138900 -0.03116300 0.00982400
v -0.00552600 -0.04349100 -0.03120200
v -0.02138900 -0.03116300 0.00982400
v -0.02138900 0.01061900 0.05799900
v -0.04278700 -0.02923100 -0.04663600
vn 0.57735027 0.57735027 0.57735027
vn 0.57735027 -0.57735027 -0.57735027
vn -0.31246504 -0.57734857 -0.75434358
vn 0.31246504 0.57734857 -0.75434358
vn 0.75434299 0.57735268 0.31245886
vn -0.75434299 0.57735268 0.31245886
vn 0.31244749 0.57734956 0.75435008
vn 0.31246504 -0.57734857 -0.75434358
vn 0.57735027 0.57735027 0.57735027
vn 0.57734942 0.31247092 0.75434049
vn -0.57735027 0.57735027 0.57735027
vn -0.31246504 0.57734857 -0.75434358
vn -0.57735027 0.57735027 -0.57735027
vn 0.75434753 0.57735027 -0.31245236
vn 0.57735027 -0.57735027 0.57735027
vn -0.57735027 -0.57735027 0.57735027
vn -0.57735027 -0.57735027 0.57735027
vn -0.57735027 0.57735027 -0.57735027
vn 0.75434753 -0.57735027 -0.31245236
vn -0.57735027 -0.57735027 -0.57735027
vn 0.57735147 0.75434020 -0.31246783
vn 0.57735027 -0.57735027 -0.57735027
vn -0.57734942 -0.75434555 0.31245870
vn 0.57735027 0.57735027 -0.57735027
vn 0.57734942 -0.75434555 0.31245870
vn -0.57735147 0.75434020 -0.31246783
vn -0.57735027 -0.57735027 -0.57735027
vn 0.57735027 -0.57735027 -0.57735027
vn -0.57735027 0.57735027 0.57735027
vn -0.57735027 -0.57735027 0.57735027
vn 0.57735027 -0.57735027 0.57735027
vn 0.57735027 -0.57735027 0.57735027
vn 0.57735027 0.57735027 0.57735027
vn -0.31244749 0.57734956 0.75435008
vn -0.57735027 -0.57735027 0.57735027
vn 0.57735027 0.57735027 -0.57735027
vn 0.57735027 -0.57735027 -0.57735027
vn -0.75434299 -0.57735268 0.31245886
vn -0.57735027 -0.57735027 -0.57735027
vn 0.57735027 -0.57735027 0.57735027
vn -0.57735027 0.57735027 -0.57735027
vn 0.57735027 0.57735027 0.57735027
vn -0.57735027 0.57735027 0.57735027
vn 0.31244749 -0.57734956 0.75435008
vn 0.57735027 0.57735027 -0.57735027
vn 0.57735027 0.57735027 -0.57735027
vn -0.57735027 -0.57735027 -0.57735027
vn -0.57735027 0.57735027 -0.57735027
vn -0.57735027 0.57735027 0.57735027
vn -0.31244749 -0.57734956 0.75435008
vn -0.75434753 -0.57735027 -0.31245236
vn 0.57735077 -0.31245580 -0.75434572
vn 0.75434299 -0.57735268 0.31245886
vn -0.57735077 -0.31245580 -0.75434572
vn -0.57734942 0.31247092 0.75434049
vn -0.75434753 0.57735027 -0.31245236
f 28//28 40//40 47//47
f 17//17 9//9 11//11
f 17//17 47//47 40//40
f 28//28 45//45 40//40
f 40//40 45//45 9//9
f 35//35 31//31 1//1
f 26//26 54//54 55//55
f 22//22 18//18 24//24
f 46//46 49//49 1//1
f 28//28 48//48 45//45
f 17//17 11//11 47//47
f 35//35 49//49 20//20
f 10//10 55//55 23//23
f 48//48 11//11 45//45
f 31//31 20//20 2//2
f 25//25 23//23 54//54
f 48//48 47//47 11//11
f 43//43 42//42 24//24
f 32//32 37//37 36//36
f 13//13 20//20 49//49
f 6//6 7//7 14//14
f 12//12 3//3 6//6
f 43//43 18//18 27//27
f 34//34 56//56 51//51
f 37//37 41//41 36//36
f 54//54 23//23 55//55
f 53//53 50//50 51//51
f 13//13 2//2 20//20
f 11//11 9//9 45//45
f 37//37 39//39 41//41
f 10//10 23//23 25//25
f 32//32 33//33 30//30
f 32//32 39//39 37//37
f 53//53 4//4 5//5
f 29//29 41//41 39//39
f 32//32 30//30 39//39
f 46//46 2//2 13//13
f 46//46 1//1 31//31
f 12//12 6//6 14//14
f 46//46 31//31 2//2
f 35//35 1//1 49//49
f 17//17 40//40 9//9
f 28//28 47//47 48//48
f 34//34 4//4 56//56
f 16//16 15//15 42//42
f 10//10 25//25 21//21
f 53//53 51//51 8//8
f 36//36 29//29 33//33
f 38//38 44//44 7//7
f 22//22 27//27 18//18
f 29//29 30//30 33//33
f 46//46 13//13 49//49
f 15//15 24//24 42//42
f 22//22 15//15 27//27
f 32//32 36//36 33//33
f 43//43 24//24 18//18
f 16//16 27//27 15//15
f 12//12 14//14 19//19
f 25//25 52//52 21//21
f 26//26 21//21 52//52
f 10//10 21//21 55//55
f 34//34 50//50 5//5
f 38//38 6//6 3//3
f 38//38 7//7 6//6
f 26//26 52//52 54//54
f 16//16 43//43 27//27
f 34//34 5//5 4//4
f 16//16 42//42 43//43
f 44//44 14//14 7//7
f 53//53 5//5 50//50
f 44//44 19//19 14//14
f 34//34 51//51 50//50
f 36//36 41//41 29//29
f 12//12 19//19 3//3
f 53//53 8//8 4//4
f 25//25 54//54 52//52
f 29//29 39//39 30//30
f 38//38 3//3 44//44
f 26//26 55//55 21//21
f 56//56 8//8 51//51
f 44//44 3//3 19//19
f 56//56 4//4 8//8
f 35//35 20//20 31//31
f 22//22 24//24 15//15