# https://github.com/mikedh/trimesh
v -9.82229800 4.69502500 -0.02323000
v -9.82344600 4.69666400 0.00491800
v -9.82344600 4.69666400 -0.02323000
v -9.82229800 4.69502500 0.00491800
v -9.82099600 4.69354000 -0.02323000
v -9.82099600 4.69354000 0.00491800
v -9.81954200 4.69223800 0.00491800
v -9.81954200 4.69223800 -0.02323000
v -9.81785700 4.69114300 0.00491800
v -9.81785700 4.69114300 -0.02323000
v -9.81609600 4.69027100 0.00491800
v -9.81609600 4.69027100 -0.02323000
v -9.81425900 4.68964300 0.00491800
v -9.81425900 4.68964300 -0.02323000
v -9.65975400 4.96388500 0.00491800
v -9.65967700 4.70419700 0.00491800
v -9.65967700 4.96191700 0.00491800
v -9.65975400 4.70223000 0.00491800
v -9.66013700 4.96582200 0.00491800
v -9.66013700 4.70029300 0.00491800
v -9.66082600 4.96769000 0.00491800
v -9.66082600 4.69843200 0.00491800
v -9.66166800 4.96945900 0.00491800
v -9.66166800 4.69666400 0.00491800
v -9.66274000 4.97109700 0.00491800
v -9.66274000 4.69502500 0.00491800
v -9.66404200 4.97257500 0.00491800
v -9.66404200 4.69354000 0.00491800
v -9.66557300 4.97387700 0.00491800
v -9.66557300 4.69223800 0.00491800
v -9.66718100 4.97497100 0.00491800
v -9.66718100 4.69114300 0.00491800
v -9.66894200 4.97584400 0.00491800
v -9.66894200 4.69027100 0.00491800
v -9.67077900 4.97648000 0.00491800
v -9.67077900 4.68964300 0.00491800
v -9.67277000 4.97686300 0.00491800
v -9.67277000 4.68925200 0.00491800
v -9.67468400 4.97699300 0.00491800
v -9.67468400 4.68912200 0.00491800
v -9.81035400 4.97699300 0.00491800
v -9.81035400 4.68912200 0.00491800
v -9.81234500 4.97686300 0.00491800
v -9.81234500 4.68925200 0.00491800
v -9.81425900 4.97648000 0.00491800
v -9.81609600 4.97584400 0.00491800
v -9.81785700 4.97497100 0.00491800
v -9.81954200 4.97387700 0.00491800
v -9.82099600 4.97257500 0.00491800
v -9.82229800 4.97109700 0.00491800
v -9.82344600 4.96945900 0.00491800
v -9.82428900 4.96769000 0.00491800
v -9.82428900 4.69843200 0.00491800
v -9.82490100 4.96582200 0.00491800
v -9.82490100 4.70029300 0.00491800
v -9.82528400 4.96388500 0.00491800
v -9.82528400 4.70223000 0.00491800
v -9.82543700 4.96191700 0.00491800
v -9.82543700 4.70419700 0.00491800
v -9.82528400 4.70223000 -0.02974700
v -9.82543700 4.70419700 -0.02974700
v -9.82490100 4.70029300 -0.02974700
v -9.82428900 4.69843200 -0.02974700
v -9.82344600 4.69666400 -0.02974700
v -9.82229800 4.69502500 -0.02974700
v -9.82099600 4.69354000 -0.02974700
v -9.81954200 4.69223800 -0.02974700
v -9.81785700 4.69114300 -0.02974700
v -9.81609600 4.69027100 -0.02974700
v -9.81425900 4.68964300 -0.02974700
v -9.81234500 4.68925200 -0.02974700
v -9.81035400 4.68912200 -0.02974700
v -9.67468400 4.68912200 -0.02974700
v -9.67277000 4.68925200 -0.02974700
v -9.67077900 4.68964300 -0.02974700
v -9.66894200 4.69027100 -0.02974700
v -9.66718100 4.69114300 -0.02974700
v -9.66557300 4.69223800 -0.02974700
v -9.66404200 4.69354000 -0.02974700
v -9.66274000 4.69502500 -0.02974700
v -9.66166800 4.69666400 -0.02974700
v -9.66082600 4.69843200 -0.02974700
v -9.66013700 4.70029300 -0.02974700
v -9.65975400 4.70223000 -0.02974700
v -9.65967700 4.70419700 -0.02974700
v -9.65967700 4.96191700 -0.02974700
v -9.65975400 4.96388500 -0.02974700
v -9.66013700 4.96582200 -0.02974700
v -9.66082600 4.96769000 -0.02974700
v -9.66166800 4.96945900 -0.02974700
v -9.66274000 4.97109700 -0.02974700
v -9.66404200 4.97257500 -0.02974700
v -9.66557300 4.97387700 -0.02974700
v -9.66718100 4.97497100 -0.02974700
v -9.66894200 4.97584400 -0.02974700
v -9.67077900 4.97648000 -0.02974700
v -9.67277000 4.97686300 -0.02974700
v -9.67468400 4.97699300 -0.02974700
v -9.81035400 4.97699300 -0.02974700
v -9.81234500 4.97686300 -0.02974700
v -9.81425900 4.97648000 -0.02974700
v -9.81609600 4.97584400 -0.02974700
v -9.81785700 4.97497100 -0.02974700
v -9.81954200 4.97387700 -0.02974700
v -9.82099600 4.97257500 -0.02974700
v -9.82229800 4.97109700 -0.02974700
v -9.82344600 4.96945900 -0.02974700
v -9.82428900 4.96769000 -0.02974700
v -9.82490100 4.96582200 -0.02974700
v -9.82528400 4.96388500 -0.02974700
v -9.82543700 4.96191700 -0.02974700
vn -0.78665668 -0.61739070 0.00000000
vn -0.62615050 -0.36516539 0.68890477
vn -0.86383238 -0.50377934 0.00000000
vn -0.56556133 -0.44386873 0.69506901
vn -0.71079924 -0.70339494 0.00000000
vn -0.51190558 -0.50657313 0.69378408
vn -0.43981918 -0.57462446 0.69019260
vn -0.60779926 -0.79409071 0.00000000
vn -0.35639377 -0.62531577 0.69423603
vn -0.49516507 -0.86879892 0.00000000
vn -0.27724945 -0.66577102 0.69273494
vn -0.38443208 -0.92315328 0.00000000
vn -0.18913897 -0.69568253 0.69300236
vn -0.26235220 -0.96497219 0.00000000
vn 0.71887522 0.08460963 0.68997074
vn 0.71132025 -0.01391731 0.70273025
vn 0.71131821 0.01391020 0.70273246
vn 0.71887237 -0.08461654 0.68997286
vn 0.69698011 0.19611515 0.68975182
vn 0.69697985 -0.19657423 0.68962138
vn 0.66077839 0.27844080 0.69702414
vn 0.66047966 -0.27887513 0.69713361
vn 0.62919693 0.35349540 0.69220822
vn 0.62916260 -0.35345122 0.69226199
vn 0.57477385 0.43770566 0.69141072
vn 0.57517823 -0.43682321 0.69163248
vn 0.50647282 0.51537987 0.69128060
vn 0.50724502 -0.51495758 0.69102907
vn 0.43561601 0.57174494 0.69523120
vn 0.43571039 -0.57161681 0.69527741
vn 0.36421035 0.62328570 0.69200127
vn 0.36424655 -0.62336980 0.69190646
vn 0.27855898 0.66483744 0.69310610
vn 0.27724945 -0.66577102 0.69273494
vn 0.18691376 0.69792647 0.69134788
vn 0.18669900 -0.69715557 0.69218321
vn 0.09261733 0.71436713 0.69361490
vn 0.09405267 -0.71458590 0.69319628
vn 0.02422544 0.71416773 0.69955527
vn 0.02422544 -0.71416773 0.69955527
vn -0.02328239 0.71391671 0.69984346
vn -0.02328239 -0.71391671 0.69984346
vn -0.09448156 0.71517744 0.69252759
vn -0.09597249 -0.71539773 0.69209491
vn -0.18931149 0.69648429 0.69214940
vn -0.27855898 0.66483744 0.69310610
vn -0.35636060 0.62522954 0.69433071
vn -0.43972514 0.57475006 0.69014793
vn -0.51113821 0.50700027 0.69403779
vn -0.56514687 0.44474550 0.69484563
vn -0.62618255 0.36521226 0.68885080
vn -0.66935218 0.26785512 0.69298001
vn -0.66908760 -0.26826639 0.69307643
vn -0.69680315 0.18231374 0.69370531
vn -0.69681376 -0.18273070 0.69358494
vn -0.71317948 0.09788486 0.69411352
vn -0.71317349 -0.09789831 0.69411778
vn -0.71509053 0.02775509 0.69848062
vn -0.71509420 -0.02776930 0.69847631
vn -0.71317349 -0.09789831 -0.69411778
vn -0.71509420 -0.02776930 -0.69847631
vn -0.69681376 -0.18273070 -0.69358494
vn -0.66908760 -0.26826639 -0.69307643
vn -0.62615050 -0.36516539 -0.68890477
vn -0.56556133 -0.44386873 -0.69506901
vn -0.51190558 -0.50657313 -0.69378408
vn -0.43981918 -0.57462446 -0.69019260
vn -0.35639377 -0.62531577 -0.69423603
vn -0.27724945 -0.66577102 -0.69273494
vn -0.18913897 -0.69568253 -0.69300236
vn -0.09597249 -0.71539773 -0.69209491
vn -0.02328239 -0.71391671 -0.69984346
vn 0.02422544 -0.71416773 -0.69955527
vn 0.09405267 -0.71458590 -0.69319628
vn 0.18669900 -0.69715557 -0.69218321
vn 0.27724945 -0.66577102 -0.69273494
vn 0.36424655 -0.62336980 -0.69190646
vn 0.43571039 -0.57161681 -0.69527741
vn 0.50724502 -0.51495758 -0.69102907
vn 0.57517823 -0.43682321 -0.69163248
vn 0.62916260 -0.35345122 -0.69226199
vn 0.66047966 -0.27887513 -0.69713361
vn 0.69697985 -0.19657423 -0.68962138
vn 0.71887237 -0.08461654 -0.68997286
vn 0.71132025 -0.01391731 -0.70273025
vn 0.71131821 0.01391020 -0.70273246
vn 0.71887522 0.08460963 -0.68997074
vn 0.69698011 0.19611515 -0.68975182
vn 0.66077839 0.27844080 -0.69702414
vn 0.62919693 0.35349540 -0.69220822
vn 0.57477385 0.43770566 -0.69141072
vn 0.50647282 0.51537987 -0.69128060
vn 0.43561601 0.57174494 -0.69523120
vn 0.36421035 0.62328570 -0.69200127
vn 0.27855898 0.66483744 -0.69310610
vn 0.18691376 0.69792647 -0.69134788
vn 0.09261733 0.71436713 -0.69361490
vn 0.02422544 0.71416773 -0.69955527
vn -0.02328239 0.71391671 -0.69984346
vn -0.09448156 0.71517744 -0.69252759
vn -0.18931149 0.69648429 -0.69214940
vn -0.27855898 0.66483744 -0.69310610
vn -0.35636060 0.62522954 -0.69433071
vn -0.43972514 0.57475006 -0.69014793
vn -0.51113821 0.50700027 -0.69403779
vn -0.56514687 0.44474550 -0.69484563
vn -0.62618255 0.36521226 -0.68885080
vn -0.66935218 0.26785512 -0.69298001
vn -0.69680315 0.18231374 -0.69370531
vn -0.71317948 0.09788486 -0.69411352
vn -0.71509053 0.02775509 -0.69848062
f 1//1 2//2 3//3
f 2//2 1//1 4//4
f 5//5 4//4 1//1
f 4//4 5//5 6//6
f 5//5 7//7 6//6
f 7//7 5//5 8//8
f 8//8 9//9 7//7
f 9//9 8//8 10//10
f 10//10 11//11 9//9
f 11//11 10//10 12//12
f 12//12 13//13 11//11
f 13//13 12//12 14//14
f 15//15 16//16 17//17
f 15//15 18//18 16//16
f 19//19 18//18 15//15
f 19//19 20//20 18//18
f 21//21 20//20 19//19
f 21//21 22//22 20//20
f 23//23 22//22 21//21
f 23//23 24//24 22//22
f 25//25 24//24 23//23
f 25//25 26//26 24//24
f 27//27 26//26 25//25
f 27//27 28//28 26//26
f 29//29 28//28 27//27
f 29//29 30//30 28//28
f 31//31 30//30 29//29
f 31//31 32//32 30//30
f 33//33 32//32 31//31
f 33//33 34//34 32//32
f 35//35 34//34 33//33
f 35//35 36//36 34//34
f 37//37 36//36 35//35
f 37//37 38//38 36//36
f 39//39 38//38 37//37
f 39//39 40//40 38//38
f 41//41 40//40 39//39
f 41//41 42//42 40//40
f 43//43 42//42 41//41
f 43//43 44//44 42//42
f 45//45 44//44 43//43
f 45//45 13//13 44//44
f 46//46 13//13 45//45
f 46//46 11//11 13//13
f 47//47 11//11 46//46
f 47//47 9//9 11//11
f 48//48 9//9 47//47
f 48//48 7//7 9//9
f 49//49 7//7 48//48
f 49//49 6//6 7//7
f 50//50 6//6 49//49
f 50//50 4//4 6//6
f 51//51 4//4 50//50
f 51//51 2//2 4//4
f 52//52 2//2 51//51
f 52//52 53//53 2//2
f 54//54 53//53 52//52
f 54//54 55//55 53//53
f 56//56 55//55 54//54
f 56//56 57//57 55//55
f 58//58 57//57 56//56
f 57//57 58//58 59//59
f 60//60 59//59 61//61
f 59//59 60//60 57//57
f 62//62 57//57 60//60
f 57//57 62//62 55//55
f 63//63 55//55 62//62
f 55//55 63//63 53//53
f 64//64 53//53 63//63
f 3//3 53//53 64//64
f 53//53 3//3 2//2
f 65//65 3//3 64//64
f 3//3 65//65 1//1
f 66//66 1//1 65//65
f 1//1 66//66 5//5
f 66//66 8//8 5//5
f 8//8 66//66 67//67
f 67//67 10//10 8//8
f 10//10 67//67 68//68
f 68//68 12//12 10//10
f 12//12 68//68 69//69
f 69//69 14//14 12//12
f 14//14 69//69 70//70
f 14//14 44//44 13//13
f 70//70 44//44 14//14
f 44//44 70//70 71//71
f 71//71 42//42 44//44
f 42//42 71//71 72//72
f 72//72 40//40 42//42
f 40//40 72//72 73//73
f 73//73 38//38 40//40
f 38//38 73//73 74//74
f 74//74 36//36 38//38
f 36//36 74//74 75//75
f 75//75 34//34 36//36
f 34//34 75//75 76//76
f 76//76 32//32 34//34
f 32//32 76//76 77//77
f 77//77 30//30 32//32
f 30//30 77//77 78//78
f 78//78 28//28 30//30
f 28//28 78//78 79//79
f 28//28 80//80 26//26
f 80//80 28//28 79//79
f 26//26 81//81 24//24
f 81//81 26//26 80//80
f 24//24 82//82 22//22
f 82//82 24//24 81//81
f 22//22 83//83 20//20
f 83//83 22//22 82//82
f 20//20 84//84 18//18
f 84//84 20//20 83//83
f 18//18 85//85 16//16
f 85//85 18//18 84//84
f 16//16 86//86 17//17
f 86//86 16//16 85//85
f 17//17 87//87 15//15
f 87//87 17//17 86//86
f 15//15 88//88 19//19
f 88//88 15//15 87//87
f 19//19 89//89 21//21
f 89//89 19//19 88//88
f 21//21 90//90 23//23
f 90//90 21//21 89//89
f 23//23 91//91 25//25
f 91//91 23//23 90//90
f 25//25 92//92 27//27
f 92//92 25//25 91//91
f 92//92 29//29 27//27
f 29//29 92//92 93//93
f 93//93 31//31 29//29
f 31//31 93//93 94//94
f 94//94 33//33 31//31
f 33//33 94//94 95//95
f 95//95 35//35 33//33
f 35//35 95//95 96//96
f 96//96 37//37 35//35
f 37//37 96//96 97//97
f 97//97 39//39 37//37
f 39//39 97//97 98//98
f 98//98 41//41 39//39
f 41//41 98//98 99//99
f 99//99 43//43 41//41
f 43//43 99//99 100//100
f 100//100 45//45 43//43
f 45//45 100//100 101//101
f 101//101 46//46 45//45
f 46//46 101//101 102//102
f 102//102 47//47 46//46
f 47//47 102//102 103//103
f 103//103 48//48 47//47
f 48//48 103//103 104//104
f 104//104 49//49 48//48
f 49//49 104//104 105//105
f 106//106 49//49 105//105
f 49//49 106//106 50//50
f 107//107 50//50 106//106
f 50//50 107//107 51//51
f 108//108 51//51 107//107
f 51//51 108//108 52//52
f 109//109 52//52 108//108
f 52//52 109//109 54//54
f 110//110 54//54 109//109
f 54//54 110//110 56//56
f 111//111 56//56 110//110
f 56//56 111//111 58//58
f 61//61 58//58 111//111
f 58//58 61//61 59//59
f 84//84 86//86 85//85
f 84//84 87//87 86//86
f 83//83 87//87 84//84
f 83//83 88//88 87//87
f 82//82 88//88 83//83
f 82//82 89//89 88//88
f 81//81 89//89 82//82
f 81//81 90//90 89//89
f 80//80 90//90 81//81
f 80//80 91//91 90//90
f 79//79 91//91 80//80
f 79//79 92//92 91//91
f 78//78 92//92 79//79
f 78//78 93//93 92//92
f 77//77 93//93 78//78
f 77//77 94//94 93//93
f 76//76 94//94 77//77
f 76//76 95//95 94//94
f 75//75 95//95 76//76
f 75//75 96//96 95//95
f 74//74 96//96 75//75
f 74//74 97//97 96//96
f 73//73 97//97 74//74
f 73//73 98//98 97//97
f 72//72 98//98 73//73
f 72//72 99//99 98//98
f 71//71 99//99 72//72
f 71//71 100//100 99//99
f 70//70 100//100 71//71
f 70//70 101//101 100//100
f 69//69 101//101 70//70
f 69//69 102//102 101//101
f 68//68 102//102 69//69
f 68//68 103//103 102//102
f 68//68 104//104 103//103
f 67//67 104//104 68//68
f 67//67 105//105 104//104
f 66//66 105//105 67//67
f 66//66 106//106 105//105
f 65//65 106//106 66//66
f 64//64 106//106 65//65
f 64//64 107//107 106//106
f 64//64 108//108 107//107
f 63//63 108//108 64//64
f 62//62 108//108 63//63
f 62//62 109//109 108//108
f 62//62 110//110 109//109
f 60//60 110//110 62//62
f 61//61 110//110 60//60
f 110//110 61//61 111//111