# https://github.com/mikedh/trimesh
v 0.11239100 0.00303500 0.07121800
v 0.12440600 0.00689600 0.07925300
v 0.11178800 0.00619000 0.07195700
v 0.12500900 0.00374100 0.07851400
v 0.11368500 0.00077200 0.06919900
v 0.12630300 0.00147900 0.07649500
v 0.12880000 0.00266200 0.07429600
v 0.12765100 0.00319800 0.07623200
v 0.12793900 0.00071600 0.07373700
v 0.12674100 0.00478800 0.07765000
v 0.12631800 0.00700200 0.07816900
v 0.12465300 0.01010000 0.07851400
v 0.12649100 0.00925200 0.07765000
v 0.12568700 0.01249100 0.07649500
v 0.12721800 0.01093200 0.07623200
v 0.11203500 0.00939300 0.07121800
v 0.11532400 0.00001000 0.06644100
v 0.12988300 0.00332400 0.07235900
v 0.12948300 0.00165600 0.07097900
v 0.12984100 0.00600400 0.07261800
v 0.12945500 0.00510700 0.07337400
v 0.13060900 0.00500200 0.07094100
v 0.12887800 0.00475700 0.07440700
v 0.12826400 0.00504300 0.07544100
v 0.12777700 0.00588800 0.07619700
v 0.12755300 0.00707100 0.07647400
v 0.12764600 0.00827200 0.07619700
v 0.12803200 0.00916900 0.07544100
v 0.12830000 0.01159400 0.07429600
v 0.12860900 0.00952200 0.07440700
v 0.12922300 0.00923600 0.07337400
v 0.12945000 0.01105800 0.07235900
v 0.12722800 0.01343200 0.07373700
v 0.11306900 0.01178800 0.06919900
v 0.11686500 0.00095000 0.06368300
v 0.13051700 0.00404800 0.06896100
v 0.12993400 0.00720500 0.07234100
v 0.13078200 0.00725200 0.07042200
v 0.12970700 0.00838800 0.07261800
v 0.13035900 0.00946800 0.07094100
v 0.12886700 0.01266900 0.07097900
v 0.11461200 0.01272800 0.06644100
v 0.11789800 0.00334200 0.06166400
v 0.13076400 0.00725200 0.06822200
v 0.13016100 0.01040600 0.06896100
v 0.11624900 0.01196500 0.06368300
v 0.11814600 0.00654600 0.06092600
v 0.11754300 0.00970300 0.06166400
v -0.15413900 -0.00867600 -0.09233200
v -0.15505700 -0.00637700 -0.09119000
v -0.15495400 -0.00634600 -0.09114600
v -0.15424800 -0.00868400 -0.09236400
v -0.15641000 -0.00645200 -0.08884200
v -0.15632200 -0.00642300 -0.08877400
v -0.15695600 -0.00883600 -0.08766800
v -0.15687400 -0.00883000 -0.08758800
v -0.15614700 -0.01114200 -0.08884200
v -0.15605700 -0.01116000 -0.08877400
v -0.13801100 -0.00118900 -0.07524800
v -0.13918900 -0.00244900 -0.07531400
v -0.13831000 -0.00131300 -0.07694300
v -0.14000100 -0.00392600 -0.07495100
v -0.13801100 -0.00135100 -0.07864100
v -0.14034800 -0.00544100 -0.07420400
v -0.13715000 -0.00130500 -0.08013400
v -0.14018600 -0.00681000 -0.07316500
v -0.13583300 -0.00117300 -0.08124100
v -0.13953900 -0.00786100 -0.07196000
v -0.13422200 -0.00097800 -0.08182400
v -0.14006500 -0.00897700 -0.07316500
v -0.13483300 -0.00220400 -0.08286900
v -0.14007300 -0.01035400 -0.07420400
v -0.13488500 -0.00364000 -0.08382400
v -0.13956000 -0.01182300 -0.07495100
v -0.13437200 -0.00510900 -0.08457100
v -0.13858800 -0.01319900 -0.07531400
v -0.13335400 -0.00642800 -0.08501800
v -0.13727900 -0.01432000 -0.07524800
v -0.13195900 -0.00743600 -0.08511200
v -0.13758800 -0.01423200 -0.07694300
v -0.13323300 -0.00859600 -0.08501800
v -0.13729400 -0.01415800 -0.07864100
v -0.13409600 -0.01002100 -0.08457100
v -0.15469100 -0.01108300 -0.09114600
v -0.13643400 -0.01411100 -0.08013400
v -0.13444400 -0.01153700 -0.08382400
v -0.13511100 -0.01409300 -0.08124100
v -0.13423300 -0.01295700 -0.08286900
v -0.13348800 -0.01410900 -0.08182400
v -0.15876800 -0.00832500 -0.09142000
v -0.15841800 -0.00830500 -0.09203100
v -0.15891000 -0.00894400 -0.09111500
v -0.15870100 -0.00954400 -0.09142000
v -0.15820600 -0.00890500 -0.09233600
v -0.15834800 -0.00952400 -0.09203100
v -0.15479400 -0.01106500 -0.09119000
v 0.09878000 -0.00147000 0.06147200
v 0.09644500 0.00533200 0.06485000
v 0.09639900 0.00532900 0.06493300
v 0.09879800 -0.00138500 0.06143000
v 0.10274200 -0.00116600 0.05459200
v 0.10277000 -0.00124600 0.05455000
v 0.10433200 0.00577500 0.05117200
v 0.10437800 0.00577700 0.05108900
v 0.09800700 0.01235200 0.06147200
v 0.09803500 0.01227200 0.06143000
v 0.10197900 0.01249100 0.05459200
v 0.10199700 0.01257600 0.05455000
v 0.09549700 0.01221300 0.06002000
v 0.09948600 0.01243500 0.05309800
v 0.09388900 0.00519000 0.06348100
v 0.09627000 -0.00160900 0.06002000
v 0.10026000 -0.00138700 0.05309800
v 0.10186800 0.00563600 0.04963700
v 0.09408700 0.00520000 0.06313500
v 0.09561500 0.01187300 0.05984700
v 0.09940700 0.01208400 0.05327200
v 0.10166900 0.00562500 0.04998400
v 0.09635000 -0.00125800 0.05984700
v 0.10014100 -0.00104700 0.05327200
v 0.11678500 0.00647100 0.05837500
v 0.11278300 -0.00060400 0.06039800
v 0.11437300 0.00633400 0.05697900
v 0.11519500 -0.00046700 0.06179400
v 0.11443200 0.01318700 0.06179400
v 0.11202000 0.01305300 0.06039800
v 0.11125400 -0.00068900 0.06863200
v 0.10883900 -0.00082300 0.06723700
v 0.11350200 0.00628500 0.05647600
v 0.11050900 0.00612000 0.05474600
v 0.10891900 -0.00082000 0.05816500
v 0.11191400 -0.00065300 0.05989600
v 0.11114900 0.01300400 0.05989600
v 0.10815600 0.01283700 0.05816500
v 0.11049100 0.01296800 0.06863200
v 0.10807600 0.01283100 0.06723700
v 0.10648600 0.00589300 0.07065600
v 0.10890100 0.00603000 0.07205200
v 0.10797100 -0.00087200 0.06673400
v 0.10497900 -0.00103900 0.06500400
v 0.10664900 0.00590400 0.05251200
v 0.10964100 0.00607100 0.05424300
v 0.10505800 -0.00103400 0.05593200
v 0.10805100 -0.00086700 0.05766200
v 0.10728800 0.01278800 0.05766200
v 0.10429600 0.01262000 0.05593200
v 0.10720800 0.01278500 0.06673400
v 0.10421600 0.01261800 0.06500400
v 0.10262600 0.00568000 0.06842300
v 0.10561800 0.00584400 0.07015300
v 0.10411000 -0.00108800 0.06450100
v 0.10111500 -0.00125600 0.06277000
v 0.10577800 0.00585500 0.05201000
v 0.10419000 -0.00108300 0.05542900
v 0.10342700 0.01257100 0.05542900
v 0.10334500 0.01256900 0.06450100
v 0.10035200 0.01240100 0.06277000
v 0.09876200 0.00546300 0.06619000
v 0.10175700 0.00563100 0.06792000
v 0.10024700 -0.00130500 0.06226800
v 0.09948400 0.01235200 0.06226800
v 0.09789400 0.00541400 0.06568700
v 0.11081900 0.00613600 0.07363900
v 0.11329500 -0.00093400 0.07004000
v 0.11744500 -0.00070200 0.06284200
v 0.11911700 0.00660000 0.05924300
v 0.11249100 0.01344000 0.07004000
v 0.11664100 0.01367200 0.06284200
v 0.10869500 0.00601700 0.07241100
v 0.11036800 0.01332100 0.06881200
v 0.11116900 -0.00105200 0.06881200
v 0.11531900 -0.00082000 0.06161400
v 0.11699100 0.00648100 0.05801500
v 0.11451700 0.01355300 0.06161400
v 0.10109700 -0.00134100 0.06281200
v 0.09871600 0.00546000 0.06627300
v 0.10508700 -0.00111700 0.05589000
v 0.10669500 0.00590600 0.05242900
v 0.10032400 0.01248400 0.06281200
v 0.10431400 0.01270500 0.05589000
v 0.10582600 0.00585700 0.05192600
v 0.10344500 0.01265600 0.05538700
v 0.09945600 0.01243500 0.06231000
v 0.09784700 0.00541200 0.06577100
v 0.10022900 -0.00138700 0.06231000
v 0.10421800 -0.00116600 0.05538700
v 0.10495800 -0.00112400 0.06504500
v 0.10257700 0.00567400 0.06850600
v 0.10895000 -0.00090000 0.05812300
v 0.11055800 0.00612300 0.05466200
v 0.10418500 0.01269700 0.06504500
v 0.10817700 0.01292200 0.05812300
v 0.10969000 0.00607400 0.05416000
v 0.10730800 0.01287300 0.05762100
v 0.10331600 0.01265100 0.06454300
v 0.10170800 0.00562800 0.06800400
v 0.10408900 -0.00117300 0.06454300
v 0.10807900 -0.00094900 0.05762100
v 0.10882100 -0.00090800 0.06727800
v 0.10644000 0.00589100 0.07073900
v 0.11281100 -0.00068600 0.06035600
v 0.11441900 0.00633700 0.05689500
v 0.10804800 0.01291400 0.06727800
v 0.11203800 0.01313800 0.06035600
v 0.11116900 0.01308900 0.05985400
v 0.11355100 0.00629000 0.05639300
v 0.10718000 0.01286500 0.06677600
v 0.10557100 0.00584200 0.07023700
v 0.10795300 -0.00095700 0.06677600
v 0.11194200 -0.00073300 0.05985400
vn 0.40863561 -0.29629484 0.86326491
vn -0.04089449 -0.00232191 0.99916077
vn 0.34770433 0.01945914 0.93740228
vn 0.04303121 -0.44127714 0.89633855
vn 0.53792380 -0.52274547 0.66134346
vn 0.22289887 -0.75592282 0.61554592
vn 0.83080868 -0.29967191 0.46899220
vn 0.74196366 -0.25779811 0.61889423
vn 0.45036980 -0.86220216 0.23189322
vn 0.67214732 -0.13524473 0.72796075
vn 0.63941048 0.03573907 0.76803447
vn -0.00646731 0.44340029 0.89630037
vn 0.65267430 0.20942111 0.72812022
vn 0.13739112 0.77604819 0.61552651
vn 0.70873656 0.33895568 0.61870957
vn 0.37317216 0.33986736 0.86326863
vn 0.70150765 -0.59968485 0.38505207
vn 0.91431636 -0.24813351 0.32008650
vn 0.66510493 -0.73126719 -0.15127369
vn 0.89171437 0.01893336 0.45220239
vn 0.88177594 -0.00450673 0.47164699
vn 0.97037538 -0.11827676 0.21067092
vn 0.86659680 -0.01377607 0.49881882
vn 0.85011938 -0.00615200 0.52655408
vn 0.83730684 0.01513123 0.54652384
vn 0.83275076 0.04608721 0.55172651
vn 0.83440274 0.07791328 0.54562037
vn 0.84476280 0.10133797 0.52545830
vn 0.79218819 0.39015773 0.46927051
vn 0.85963776 0.11025227 0.49886608
vn 0.87551846 0.10280767 0.47212075
vn 0.88099542 0.34851457 0.31997604
vn 0.35153150 0.90698568 0.23195383
vn 0.47624289 0.57942121 0.66141044
vn 0.85623250 -0.50492839 0.10914769
vn 0.80904691 -0.39820605 -0.43229046
vn 0.89383779 0.05016490 0.44557546
vn 0.98380280 0.05507611 0.17058333
vn 0.88815306 0.08089897 0.45237097
vn 0.95114172 0.22569802 0.21068893
vn 0.57954492 0.80072467 -0.15155093
vn 0.63052738 0.67386920 0.38514350
vn 0.95975731 -0.26520477 -0.09237065
vn 0.84349983 0.04730142 -0.53504263
vn 0.75962643 0.48591750 -0.43226366
vn 0.79452466 0.59733025 0.10921145
vn 0.98440812 0.05490870 -0.16710981
vn 0.92411417 0.37070620 -0.09268177
vn 0.29166491 0.01842079 -0.95634317
vn -0.12921795 0.79952343 -0.58657055
vn -0.00374009 0.84393386 -0.53643419
vn 0.15473949 0.00525034 -0.98794136
vn -0.59162349 0.77517773 0.22154265
vn -0.48735626 0.81711751 0.30790071
vn -0.77999913 -0.04621468 0.62407176
vn -0.68427062 -0.03676530 0.72830078
vn -0.49854111 -0.83793542 0.22208330
vn -0.39155534 -0.86642371 0.30982958
vn -0.36580113 0.84423607 0.39173332
vn -0.57485083 0.49464576 0.65182213
vn -0.20059784 0.97875927 -0.04231779
vn -0.57965575 0.47212002 0.66415503
vn -0.18426423 0.98083805 -0.06327256
vn -0.58337037 0.45333563 0.67391825
vn -0.17734763 0.98069543 -0.08236678
vn -0.58930453 0.43062039 0.68358339
vn -0.16396787 0.98088130 -0.10481608
vn -0.56657689 -0.03162329 0.82340184
vn 0.13199733 0.87199004 -0.47139163
vn -0.53883628 -0.49304460 0.68305379
vn 0.26239923 0.54115675 -0.79893430
vn -0.53036400 -0.51536338 0.67313788
vn 0.27112500 0.51916384 -0.81053078
vn -0.52302438 -0.53378567 0.66446848
vn 0.27660124 0.50173525 -0.81960569
vn -0.51613035 -0.55515620 0.65223543
vn 0.28311463 0.47980001 -0.83044449
vn -0.26958373 -0.87958539 0.39198744
vn 0.42871512 0.02417302 -0.90311628
vn -0.08974633 -0.99507799 -0.04201648
vn 0.33485678 -0.44444518 -0.83086666
vn -0.07803908 -0.99483675 -0.06488251
vn 0.33101309 -0.46781486 -0.81949960
vn 0.09502646 -0.84010668 -0.53403252
vn -0.06617085 -0.99443231 -0.08201098
vn 0.32691613 -0.48628251 -0.81034262
vn -0.05398100 -0.99303577 -0.10471873
vn 0.32057127 -0.50845089 -0.79919444
vn 0.22808122 -0.85189158 -0.47144426
vn -0.87014680 0.47305506 -0.13807051
vn -0.57067713 0.48938965 -0.65941291
vn -0.99113500 -0.05450314 0.12116444
vn -0.81211023 -0.56665398 -0.13921291
vn -0.38955966 -0.02222954 -0.92073293
vn -0.51115917 -0.55028275 -0.66023117
vn -0.03315598 -0.81016681 -0.58526099
vn 0.37185642 -0.66391273 0.64880096
vn 0.86113580 0.04811697 0.50609277
vn 0.13792638 0.00758073 0.99041347
vn 0.86258724 0.03982281 0.50433858
vn 0.87291535 0.02353603 0.48730365
vn 0.76233480 -0.64595847 -0.03979086
vn 0.88329482 0.04951994 0.46619528
vn 0.92060278 0.05154823 -0.38708308
vn 0.29360130 0.70219094 0.64863407
vn 0.85974745 0.06183485 0.50696231
vn 0.87123734 0.07948360 0.48438400
vn 0.68399708 0.72830188 -0.04152557
vn -0.76303743 0.64519576 0.03868224
vn -0.36934707 0.66574680 -0.64835480
vn -0.92259830 -0.05149907 0.38230907
vn -0.68689924 -0.72574783 0.03820367
vn -0.29165831 -0.70340096 -0.64819944
vn -0.13261240 -0.00746619 -0.99113985
vn -0.85621233 -0.04791399 -0.51439742
vn -0.85921766 -0.06327119 -0.50768274
vn -0.86943243 -0.07016804 -0.48904365
vn -0.87575646 -0.04896952 -0.48026306
vn -0.86057944 -0.03147241 -0.50834291
vn -0.87096535 -0.02988759 -0.49043459
vn -0.45515855 -0.02520237 -0.89005367
vn 0.76226866 -0.64603134 -0.03987463
vn 0.91991790 0.05130725 -0.38873979
vn -0.56227802 -0.50432685 -0.65536087
vn -0.61404998 0.43974951 -0.65541055
vn 0.68411360 0.72818201 -0.04170783
vn -0.83529432 -0.51788861 -0.18459356
vn 0.37030988 -0.66485154 0.64872416
vn -0.12781145 -0.00745731 -0.99177045
vn 0.92379861 0.05172620 -0.37936860
vn 0.76707259 -0.64070105 -0.03319333
vn -0.29081796 -0.66754216 -0.68542861
vn -0.36688109 0.66767043 -0.64777655
vn 0.68954250 0.72340664 -0.03484209
vn -0.88715780 0.42370059 -0.18283559
vn 0.29229515 0.70272740 0.64864301
vn 0.13797783 0.00775391 0.99040497
vn -0.99701542 -0.05544820 0.05371924
vn -0.68392791 -0.72837140 0.04144528
vn 0.36241068 -0.67068869 0.64717477
vn 0.92056488 0.05168919 -0.38715441
vn -0.72538629 -0.24607956 -0.64285269
vn 0.76370828 -0.64444921 -0.03787967
vn -0.29230846 -0.70286131 -0.64849190
vn -0.36501717 0.66860288 -0.64786778
vn 0.68394832 0.72834014 -0.04165733
vn -0.76194179 0.64641884 0.03984212
vn 0.28294177 0.70851730 0.64648835
vn 0.12733581 0.00743029 0.99183183
vn -0.72808627 0.57718247 -0.36979828
vn -0.51893974 -0.84145989 -0.15048851
vn 0.37224552 -0.66370735 0.64878797
vn -0.47129110 0.68379381 -0.55705540
vn -0.29338540 -0.70236258 -0.64854592
vn -0.96953438 0.23855005 0.05565043
vn -0.76384636 0.64429182 0.03777280
vn 0.29393203 0.70221196 0.64846151
vn 0.13794134 0.00787706 0.99040908
vn -0.71788511 -0.68234124 0.13802679
vn -0.68357996 -0.72867752 0.04180328
vn -0.36776218 0.49151766 -0.78940571
vn -0.77301277 0.62961456 0.07769658
vn 0.13209065 0.00738615 0.99121012
vn 0.36808830 -0.66673056 0.64805969
vn 0.76359399 -0.64456503 -0.03821172
vn 0.92301912 0.05152762 -0.38128809
vn 0.29134282 0.70354510 0.64818489
vn 0.68703679 0.72562438 -0.03807503
vn -0.92275314 -0.05160070 0.38192148
vn -0.76326411 0.64493696 0.03852552
vn -0.68755140 -0.72516134 0.03760439
vn -0.29147398 -0.70357019 -0.64809869
vn -0.13339477 -0.00751726 -0.99103447
vn -0.36713393 0.66729723 -0.64801782
vn 0.37135417 -0.66458187 0.64840344
vn 0.13822786 0.00759075 0.99037136
vn 0.76372234 -0.64444155 -0.03772634
vn 0.92064598 0.05159635 -0.38697391
vn 0.29381677 0.70229389 0.64842501
vn 0.68399475 0.72830560 -0.04149853
vn -0.13320108 -0.00752368 -0.99106048
vn -0.37209062 0.66365605 -0.64892929
vn -0.76204978 0.64628389 0.03996581
vn -0.92110844 -0.05134894 0.38590481
vn -0.68434242 -0.72798234 0.04143857
vn -0.29380112 -0.70231485 -0.64840940
vn 0.36273896 -0.67051213 0.64717380
vn 0.12766212 0.00638918 0.99179714
vn 0.76734197 -0.64036291 -0.03349112
vn 0.92377074 0.05173471 -0.37943528
vn 0.28371377 0.70751283 0.64724964
vn 0.68952828 0.72340926 -0.03506840
vn -0.12789681 -0.00726298 -0.99176089
vn -0.36535193 0.66856896 -0.64771406
vn -0.76315935 0.64506475 0.03846141
vn -0.92373731 -0.05104426 0.37961016
vn -0.68949831 -0.72343288 0.03517032
vn -0.29251415 -0.70316216 -0.64807287
vn 0.37061722 -0.66472125 0.64868216
vn 0.13840014 0.00780517 0.99034564
vn 0.76166712 -0.64670337 -0.04047160
vn 0.91995383 0.05111140 -0.38868056
vn 0.29214559 0.70311396 0.64829138
vn 0.68388552 0.72839536 -0.04172289
vn -0.36696502 0.66751779 -0.64788632
vn -0.12757924 -0.00667312 -0.99180593
vn -0.76237654 0.64590981 0.03978098
vn -0.92108054 -0.05162278 0.38593488
vn -0.68391572 -0.72837826 0.04152602
vn -0.29418905 -0.70195775 -0.64862016
f 1//1 2//2 3//3
f 2//2 1//1 4//4
f 5//5 4//4 1//1
f 4//4 5//5 6//6
f 6//6 7//7 8//8
f 7//7 6//6 9//9
f 6//6 10//10 4//4
f 10//10 6//6 8//8
f 4//4 11//11 2//2
f 11//11 4//4 10//10
f 11//11 12//12 2//2
f 12//12 11//11 13//13
f 13//13 14//14 12//12
f 14//14 13//13 15//15
f 3//3 12//12 16//16
f 12//12 3//3 2//2
f 9//9 5//5 17//17
f 5//5 9//9 6//6
f 9//9 18//18 7//7
f 18//18 9//9 19//19
f 18//18 20//20 21//21
f 20//20 18//18 22//22
f 7//7 21//21 23//23
f 21//21 7//7 18//18
f 8//8 23//23 24//24
f 23//23 8//8 7//7
f 8//8 25//25 10//10
f 25//25 8//8 24//24
f 10//10 26//26 11//11
f 26//26 10//10 25//25
f 26//26 13//13 11//11
f 13//13 26//26 27//27
f 27//27 15//15 13//13
f 15//15 27//27 28//28
f 28//28 29//29 15//15
f 29//29 28//28 30//30
f 31//31 29//29 30//30
f 29//29 31//31 32//32
f 15//15 33//33 14//14
f 33//33 15//15 29//29
f 16//16 14//14 34//34
f 14//14 16//16 12//12
f 35//35 9//9 17//17
f 9//9 35//35 19//19
f 19//19 22//22 18//18
f 22//22 19//19 36//36
f 22//22 37//37 20//20
f 37//37 22//22 38//38
f 25//25 27//27 26//26
f 24//24 27//27 25//25
f 24//24 28//28 27//27
f 23//23 28//28 24//24
f 23//23 30//30 28//28
f 21//21 30//30 23//23
f 21//21 31//31 30//30
f 20//20 31//31 21//21
f 20//20 39//39 31//31
f 39//39 20//20 37//37
f 39//39 32//32 31//31
f 32//32 39//39 40//40
f 32//32 33//33 29//29
f 33//33 32//32 41//41
f 34//34 33//33 42//42
f 33//33 34//34 14//14
f 36//36 35//35 43//43
f 35//35 36//36 19//19
f 36//36 38//38 22//22
f 38//38 36//36 44//44
f 37//37 40//40 39//39
f 40//40 37//37 38//38
f 40//40 41//41 32//32
f 41//41 40//40 45//45
f 33//33 46//46 42//42
f 46//46 33//33 41//41
f 36//36 47//47 44//44
f 47//47 36//36 43//43
f 38//38 45//45 40//40
f 45//45 38//38 44//44
f 46//46 45//45 48//48
f 45//45 46//46 41//41
f 44//44 48//48 45//45
f 48//48 44//44 47//47
f 49//49 50//50 51//51
f 50//50 49//49 52//52
f 53//53 51//51 50//50
f 51//51 53//53 54//54
f 55//55 54//54 53//53
f 54//54 55//55 56//56
f 57//57 56//56 55//55
f 56//56 57//57 58//58
f 59//59 54//54 60//60
f 54//54 59//59 61//61
f 60//60 54//54 62//62
f 54//54 61//61 63//63
f 54//54 64//64 62//62
f 64//64 54//54 56//56
f 63//63 51//51 54//54
f 51//51 63//63 65//65
f 64//64 56//56 66//66
f 51//51 65//65 67//67
f 66//66 56//56 68//68
f 51//51 67//67 69//69
f 68//68 56//56 70//70
f 69//69 71//71 51//51
f 56//56 72//72 70//70
f 71//71 73//73 51//51
f 58//58 72//72 56//56
f 72//72 58//58 74//74
f 75//75 51//51 73//73
f 51//51 75//75 49//49
f 58//58 76//76 74//74
f 75//75 77//77 49//49
f 58//58 78//78 76//76
f 77//77 79//79 49//49
f 58//58 80//80 78//78
f 49//49 79//79 81//81
f 58//58 82//82 80//80
f 49//49 81//81 83//83
f 84//84 82//82 58//58
f 82//82 84//84 85//85
f 83//83 84//84 49//49
f 84//84 83//83 86//86
f 84//84 87//87 85//85
f 84//84 86//86 88//88
f 84//84 89//89 87//87
f 84//84 88//88 89//89
f 90//90 50//50 91//91
f 50//50 90//90 53//53
f 92//92 53//53 90//90
f 53//53 92//92 55//55
f 93//93 55//55 92//92
f 55//55 93//93 57//57
f 50//50 94//94 91//91
f 94//94 50//50 52//52
f 90//90 93//93 92//92
f 91//91 93//93 90//90
f 91//91 95//95 93//93
f 95//95 91//91 94//94
f 96//96 93//93 95//95
f 93//93 96//96 57//57
f 52//52 95//95 94//94
f 95//95 52//52 96//96
f 84//84 57//57 96//96
f 57//57 84//84 58//58
f 49//49 96//96 52//52
f 96//96 49//49 84//84
f 97//97 98//98 99//99
f 97//97 100//100 98//98
f 97//97 101//101 100//100
f 102//102 101//101 97//97
f 102//102 103//103 101//101
f 103//103 102//102 104//104
f 98//98 105//105 99//99
f 106//106 105//105 98//98
f 107//107 105//105 106//106
f 107//107 108//108 105//105
f 103//103 108//108 107//107
f 108//108 103//103 104//104
f 109//109 108//108 110//110
f 108//108 109//109 105//105
f 111//111 105//105 109//109
f 105//105 111//111 99//99
f 112//112 99//99 111//111
f 99//99 112//112 97//97
f 113//113 97//97 112//112
f 97//97 113//113 102//102
f 104//104 113//113 114//114
f 113//113 104//104 102//102
f 108//108 114//114 110//110
f 114//114 108//108 104//104
f 109//109 115//115 111//111
f 109//109 116//116 115//115
f 109//109 117//117 116//116
f 110//110 117//117 109//109
f 110//110 118//118 117//117
f 118//118 110//110 114//114
f 115//115 112//112 111//111
f 119//119 112//112 115//115
f 120//120 112//112 119//119
f 120//120 113//113 112//112
f 118//118 113//113 120//120
f 113//113 118//118 114//114
f 120//120 103//103 118//118
f 103//103 120//120 101//101
f 117//117 103//103 107//107
f 103//103 117//117 118//118
f 100//100 120//120 119//119
f 120//120 100//100 101//101
f 107//107 116//116 117//117
f 116//116 107//107 106//106
f 98//98 119//119 115//115
f 119//119 98//98 100//100
f 106//106 115//115 116//116
f 115//115 106//106 98//98
f 121//121 122//122 123//123
f 122//122 121//121 124//124
f 125//125 123//123 126//126
f 123//123 125//125 121//121
f 122//122 127//127 128//128
f 127//127 122//122 124//124
f 122//122 129//129 123//123
f 122//122 130//130 129//129
f 122//122 131//131 130//130
f 131//131 122//122 132//132
f 126//126 123//123 133//133
f 123//123 134//134 133//133
f 129//129 134//134 123//123
f 134//134 129//129 130//130
f 135//135 126//126 136//136
f 126//126 135//135 125//125
f 137//137 127//127 138//138
f 127//127 137//137 128//128
f 131//131 139//139 140//140
f 132//132 139//139 131//131
f 132//132 128//128 139//139
f 128//128 132//132 122//122
f 130//130 141//141 142//142
f 130//130 143//143 141//141
f 130//130 144//144 143//143
f 144//144 130//130 131//131
f 134//134 142//142 145//145
f 142//142 134//134 130//130
f 142//142 146//146 145//145
f 146//146 142//142 141//141
f 147//147 134//134 148//148
f 147//147 133//133 134//134
f 136//136 133//133 147//147
f 133//133 136//136 126//126
f 136//136 138//138 135//135
f 138//138 136//136 137//137
f 149//149 137//137 150//150
f 140//140 137//137 149//149
f 139//139 137//137 140//140
f 137//137 139//139 128//128
f 143//143 151//151 152//152
f 144//144 151//151 143//143
f 144//144 140//140 151//151
f 140//140 144//144 131//131
f 141//141 103//103 153//153
f 143//143 103//103 141//141
f 154//154 103//103 143//143
f 103//103 154//154 101//101
f 146//146 107//107 155//155
f 146//146 103//103 107//107
f 146//146 153//153 103//103
f 153//153 146//146 141//141
f 156//156 146//146 157//157
f 156//156 145//145 146//146
f 148//148 145//145 156//156
f 145//145 148//148 134//134
f 148//148 150//150 147//147
f 150//150 148//148 149//149
f 150//150 136//136 147//147
f 136//136 150//150 137//137
f 158//158 140//140 159//159
f 152//152 140//140 158//158
f 140//140 152//152 151//151
f 149//149 159//159 140//140
f 101//101 160//160 100//100
f 154//154 160//160 101//101
f 154//154 152//152 160//160
f 152//152 154//154 143//143
f 106//106 155//155 107//107
f 161//161 155//155 106//106
f 161//161 146//146 155//155
f 146//146 161//161 157//157
f 157//157 149//149 156//156
f 158//158 149//149 157//157
f 149//149 158//158 159//159
f 148//148 156//156 149//149
f 98//98 100//100 160//160
f 98//98 158//158 162//162
f 160//160 158//158 98//98
f 158//158 160//160 152//152
f 106//106 98//98 162//162
f 106//106 157//157 161//161
f 162//162 157//157 106//106
f 157//157 162//162 158//158
f 163//163 1//1 3//3
f 164//164 1//1 163//163
f 164//164 5//5 1//1
f 164//164 17//17 5//5
f 165//165 17//17 164//164
f 165//165 35//35 17//17
f 165//165 43//43 35//35
f 43//43 166//166 47//47
f 166//166 43//43 165//165
f 16//16 163//163 3//3
f 16//16 167//167 163//163
f 34//34 167//167 16//16
f 42//42 167//167 34//34
f 42//42 168//168 167//167
f 46//46 168//168 42//42
f 48//48 168//168 46//46
f 48//48 166//166 168//168
f 166//166 48//48 47//47
f 169//169 167//167 170//170
f 167//167 169//169 163//163
f 171//171 163//163 169//169
f 163//163 171//171 164//164
f 172//172 164//164 171//171
f 164//164 172//172 165//165
f 165//165 173//173 166//166
f 173//173 165//165 172//172
f 166//166 174//174 168//168
f 174//174 166//166 173//173
f 170//170 168//168 174//174
f 168//168 170//170 167//167
f 170//170 138//138 169//169
f 170//170 135//135 138//138
f 170//170 125//125 135//135
f 174//174 125//125 170//170
f 174//174 121//121 125//125
f 121//121 174//174 173//173
f 138//138 171//171 169//169
f 127//127 171//171 138//138
f 124//124 171//171 127//127
f 124//124 172//172 171//171
f 121//121 172//172 124//124
f 172//172 121//121 173//173
f 175//175 158//158 176//176
f 175//175 152//152 158//158
f 175//175 143//143 152//152
f 177//177 143//143 175//175
f 177//177 141//141 143//143
f 141//141 177//177 178//178
f 158//158 179//179 176//176
f 157//157 179//179 158//158
f 146//146 179//179 157//157
f 146//146 180//180 179//179
f 141//141 180//180 146//146
f 180//180 141//141 178//178
f 180//180 181//181 182//182
f 181//181 180//180 178//178
f 179//179 182//182 183//183
f 182//182 179//179 180//180
f 184//184 179//179 183//183
f 179//179 184//184 176//176
f 184//184 175//175 176//176
f 175//175 184//184 185//185
f 177//177 185//185 186//186
f 185//185 177//177 175//175
f 178//178 186//186 181//181
f 186//186 178//178 177//177
f 183//183 162//162 184//184
f 183//183 161//161 162//162
f 183//183 155//155 161//161
f 182//182 155//155 183//183
f 182//182 153//153 155//155
f 153//153 182//182 181//181
f 162//162 185//185 184//184
f 160//160 185//185 162//162
f 154//154 185//185 160//160
f 154//154 186//186 185//185
f 153//153 186//186 154//154
f 186//186 153//153 181//181
f 187//187 149//149 188//188
f 187//187 140//140 149//149
f 187//187 131//131 140//140
f 189//189 131//131 187//187
f 189//189 130//130 131//131
f 130//130 189//189 190//190
f 149//149 191//191 188//188
f 148//148 191//191 149//149
f 134//134 191//191 148//148
f 134//134 192//192 191//191
f 130//130 192//192 134//134
f 192//192 130//130 190//190
f 192//192 193//193 194//194
f 193//193 192//192 190//190
f 195//195 192//192 194//194
f 192//192 195//195 191//191
f 196//196 191//191 195//195
f 191//191 196//196 188//188
f 196//196 187//187 188//188
f 187//187 196//196 197//197
f 198//198 187//187 197//197
f 187//187 198//198 189//189
f 190//190 198//198 193//193
f 198//198 190//190 189//189
f 195//195 159//159 196//196
f 195//195 156//156 159//159
f 195//195 145//145 156//156
f 194//194 145//145 195//195
f 194//194 142//142 145//145
f 142//142 194//194 193//193
f 159//159 197//197 196//196
f 151//151 197//197 159//159
f 144//144 197//197 151//151
f 144//144 198//198 197//197
f 142//142 198//198 144//144
f 198//198 142//142 193//193
f 199//199 137//137 200//200
f 199//199 128//128 137//137
f 199//199 122//122 128//128
f 201//201 122//122 199//199
f 201//201 123//123 122//122
f 123//123 201//201 202//202
f 137//137 203//203 200//200
f 136//136 203//203 137//137
f 126//126 203//203 136//136
f 126//126 204//204 203//203
f 123//123 204//204 126//126
f 204//204 123//123 202//202
f 202//202 205//205 204//204
f 205//205 202//202 206//206
f 207//207 204//204 205//205
f 204//204 207//207 203//203
f 208//208 203//203 207//207
f 203//203 208//208 200//200
f 208//208 199//199 200//200
f 199//199 208//208 209//209
f 201//201 209//209 210//210
f 209//209 201//201 199//199
f 201//201 206//206 202//202
f 206//206 201//201 210//210
f 207//207 150//150 208//208
f 207//207 147//147 150//150
f 207//207 133//133 147//147
f 205//205 133//133 207//207
f 205//205 129//129 133//133
f 129//129 205//205 206//206
f 150//150 209//209 208//208
f 139//139 209//209 150//150
f 132//132 209//209 139//139
f 132//132 210//210 209//209
f 129//129 210//210 132//132
f 210//210 129//129 206//206
f 85//85 80//80 82//82
f 87//87 80//80 85//85
f 87//87 78//78 80//80
f 78//78 87//87 89//89
f 72//72 68//68 70//70
f 74//74 68//68 72//72
f 76//76 68//68 74//74
f 68//68 76//76 78//78
f 79//79 83//83 81//81
f 79//79 86//86 83//83
f 79//79 88//88 86//86
f 88//88 79//79 89//89
f 120//120 78//78 89//89
f 78//78 120//120 119//119
f 68//68 119//119 115//115
f 119//119 68//68 78//78
f 62//62 59//59 60//60
f 64//64 59//59 62//62
f 66//66 59//59 64//64
f 59//59 66//66 68//68
f 69//69 73//73 71//71
f 69//69 75//75 73//73
f 69//69 77//77 75//75
f 77//77 69//69 79//79
f 118//118 89//89 79//79
f 89//89 118//118 120//120
f 68//68 116//116 59//59
f 116//116 68//68 115//115
f 61//61 65//65 63//63
f 61//61 67//67 65//65
f 59//59 67//67 61//61
f 67//67 59//59 69//69
f 118//118 69//69 117//117
f 69//69 118//118 79//79
f 59//59 117//117 69//69
f 117//117 59//59 116//116