# https://github.com/mikedh/trimesh
v 0.00870900 -0.04224900 0.00052700
v 0.01129000 -0.04224900 0.00046400
v 0.01142300 -0.04224900 0.00048100
v 0.01116600 -0.04224900 0.00041200
v 0.01105900 -0.04224900 0.00033100
v 0.01097700 -0.04224900 0.00022400
v 0.00831400 -0.04224900 0.00013600
v 0.01092600 -0.04224900 0.00010000
v 0.01090900 -0.04224900 -0.00003300
v 0.00781700 -0.04224900 -0.00011300
v 0.01092600 -0.04224900 -0.00016700
v 0.00726800 -0.04224900 -0.00019600
v 0.01097700 -0.04224900 -0.00029100
v -0.01234000 -0.04224900 -0.00019900
v -0.01232300 -0.04224900 -0.00033200
v 0.01105900 -0.04224900 -0.00039700
v -0.01234000 -0.04224900 -0.00046500
v 0.01116600 -0.04224900 -0.00047900
v 0.01129000 -0.04224900 -0.00053100
v 0.01142300 -0.04224900 -0.00054800
v -0.01239200 -0.04224900 -0.00058900
v -0.01861700 -0.04224900 0.00286800
v -0.01300600 -0.04224900 0.00283100
v -0.01287300 -0.04224900 0.00284800
v -0.01313000 -0.04224900 0.00277900
v -0.01323700 -0.04224900 0.00269700
v -0.01331900 -0.04224900 0.00259100
v -0.01337100 -0.04224900 0.00246700
v -0.01338800 -0.04224900 0.00233300
v -0.01337100 -0.04224900 0.00220000
v -0.01837600 -0.04224900 0.00214100
v -0.01331900 -0.04224900 0.00207600
v -0.01323700 -0.04224900 0.00196900
v -0.01313000 -0.04224900 0.00188800
v -0.01300600 -0.04224900 0.00183600
v -0.01287300 -0.04224900 0.00181900
v -0.01014300 -0.04224900 0.00157100
v -0.01366800 -0.04224900 0.00140900
v -0.01380100 -0.04224900 0.00139200
v -0.01829500 -0.04224900 0.00137900
v -0.01392500 -0.04224900 0.00134000
v -0.01403200 -0.04224900 0.00125900
v -0.01411400 -0.04224900 0.00115200
v -0.01416500 -0.04224900 0.00102800
v -0.01418300 -0.04224900 0.00089500
v -0.01416500 -0.04224900 0.00076100
v -0.01411400 -0.04224900 0.00063700
v -0.01837600 -0.04224900 0.00061700
v -0.01403200 -0.04224900 0.00053100
v -0.01392500 -0.04224900 0.00044900
v -0.01380100 -0.04224900 0.00039700
v -0.01366800 -0.04224900 0.00038000
v -0.01283700 -0.04224900 0.00018300
v -0.01297100 -0.04224900 0.00016500
v -0.01309500 -0.04224900 0.00011400
v -0.01320100 -0.04224900 0.00003200
v -0.01328400 -0.04224900 -0.00007400
v -0.01861700 -0.04224900 -0.00011100
v -0.01333500 -0.04224900 -0.00019900
v -0.01335200 -0.04224900 -0.00033200
v -0.01333500 -0.04224900 -0.00046500
v -0.01328400 -0.04224900 -0.00058900
v -0.01320100 -0.04224900 -0.00069600
v -0.01900700 -0.04224900 -0.00077100
v -0.01309500 -0.04224900 -0.00077800
v -0.01297100 -0.04224900 -0.00082900
v -0.01283700 -0.04224900 -0.00084700
v -0.01952800 -0.04224900 -0.00133300
v -0.02015700 -0.04224900 0.00452900
v -0.01636800 -0.04224900 0.00348500
v -0.02086300 -0.04224900 0.00482500
v -0.01952800 -0.04224900 0.00409000
v -0.01900700 -0.04224900 0.00352800
v 0.01002700 -0.04224900 0.00345600
v -0.01089600 -0.04224900 0.00348500
v 0.00726800 -0.04224900 0.00333800
v 0.01838900 -0.04224900 0.00345600
v -0.00837500 -0.04224900 0.00333400
v -0.00892100 -0.04224900 0.00324900
v -0.00941300 -0.04224900 0.00299900
v -0.01274000 -0.04224900 0.00283100
v -0.01261600 -0.04224900 0.00277900
v -0.01250900 -0.04224900 0.00269700
v -0.00980500 -0.04224900 0.00260900
v -0.01242800 -0.04224900 0.00259100
v -0.01237600 -0.04224900 0.00246700
v -0.01235900 -0.04224900 0.00233300
v -0.01237600 -0.04224900 0.00220000
v -0.01005600 -0.04224900 0.00211600
v -0.01242800 -0.04224900 0.00207600
v -0.01250900 -0.04224900 0.00196900
v -0.01261600 -0.04224900 0.00188800
v -0.01274000 -0.04224900 0.00183600
v 0.00782800 -0.04224900 0.00465400
v -0.00864300 -0.04224900 0.00465400
v 0.02168800 -0.04224900 0.00441500
v 0.02215300 -0.04224900 0.00492200
v 0.02129500 -0.04224900 0.00384900
v 0.00781700 -0.04224900 0.00325500
v 0.02098200 -0.04224900 0.00323600
v 0.01153000 -0.04224900 0.00308600
v 0.01139600 -0.04224900 0.00306900
v 0.01127200 -0.04224900 0.00301700
v 0.00831400 -0.04224900 0.00300600
v 0.01116600 -0.04224900 0.00293600
v 0.01108300 -0.04224900 0.00282900
v 0.01103200 -0.04224900 0.00270500
v 0.00870900 -0.04224900 0.00261400
v 0.01101500 -0.04224900 0.00257200
v 0.01103200 -0.04224900 0.00243800
v 0.01108300 -0.04224900 0.00231400
v 0.01116600 -0.04224900 0.00220800
v 0.01127200 -0.04224900 0.00212600
v 0.00896200 -0.04224900 0.00212000
v 0.01139600 -0.04224900 0.00207400
v 0.01153000 -0.04224900 0.00205700
v 0.01225700 -0.04224900 0.00173300
v 0.02061700 -0.04224900 0.00191200
v 0.01212400 -0.04224900 0.00171600
v 0.01200000 -0.04224900 0.00166400
v 0.01189300 -0.04224900 0.00158300
v 0.00904900 -0.04224900 0.00157100
v 0.01181200 -0.04224900 0.00147600
v 0.01176000 -0.04224900 0.00135200
v 0.01174300 -0.04224900 0.00121800
v 0.01176000 -0.04224900 0.00108500
v 0.00896200 -0.04224900 0.00102200
v 0.01181200 -0.04224900 0.00096100
v 0.01189300 -0.04224900 0.00085500
v 0.01200000 -0.04224900 0.00077300
v 0.01212400 -0.04224900 0.00072100
v 0.01225700 -0.04224900 0.00070400
v 0.02061700 -0.04224900 0.00053900
v 0.01155600 -0.04224900 0.00046400
v 0.01168000 -0.04224900 0.00041200
v 0.01178700 -0.04224900 0.00033100
v 0.01186900 -0.04224900 0.00022400
v 0.01192100 -0.04224900 0.00010000
v 0.01193800 -0.04224900 -0.00003300
v 0.02075500 -0.04224900 -0.00013600
v 0.01192100 -0.04224900 -0.00016700
v 0.01186900 -0.04224900 -0.00029100
v 0.01178700 -0.04224900 -0.00039700
v 0.01168000 -0.04224900 -0.00047900
v 0.01155600 -0.04224900 -0.00053100
v -0.01247300 -0.04224900 -0.00069600
v -0.01258000 -0.04224900 -0.00077800
v 0.02098200 -0.04224900 -0.00078500
v -0.01270500 -0.04224900 -0.00082900
v 0.02129500 -0.04224900 -0.00139800
v -0.02015700 -0.04224900 -0.00177200
v 0.02168800 -0.04224900 -0.00196400
v -0.02086300 -0.04224900 -0.00206800
v 0.02178300 -0.04224900 -0.00206800
v -0.00782900 -0.04224900 0.00324600
v 0.00671900 -0.04224900 0.00324600
v 0.01166200 -0.04224900 0.00306900
v 0.01178700 -0.04224900 0.00301700
v 0.01189300 -0.04224900 0.00293600
v 0.01197500 -0.04224900 0.00282900
v 0.01202600 -0.04224900 0.00270500
v 0.02075500 -0.04224900 0.00258700
v 0.01204400 -0.04224900 0.00257200
v 0.01202600 -0.04224900 0.00243800
v 0.01197500 -0.04224900 0.00231400
v 0.01189300 -0.04224900 0.00220800
v 0.01178700 -0.04224900 0.00212600
v 0.01166200 -0.04224900 0.00207400
v 0.01239100 -0.04224900 0.00171600
v 0.01251500 -0.04224900 0.00166400
v 0.01262100 -0.04224900 0.00158300
v 0.01270300 -0.04224900 0.00147600
v 0.01275500 -0.04224900 0.00135200
v 0.02057000 -0.04224900 0.00122500
v 0.01277200 -0.04224900 0.00121800
v 0.01275500 -0.04224900 0.00108500
v 0.01270300 -0.04224900 0.00096100
v 0.01262100 -0.04224900 0.00085500
v 0.01251500 -0.04224900 0.00077300
v 0.01239100 -0.04224900 0.00072100
v -0.01353500 -0.04224900 0.00139200
v -0.01341000 -0.04224900 0.00134000
v -0.01330400 -0.04224900 0.00125900
v -0.01322200 -0.04224900 0.00115200
v -0.01317100 -0.04224900 0.00102800
v -0.01005600 -0.04224900 0.00102500
v -0.01315300 -0.04224900 0.00089500
v -0.01317100 -0.04224900 0.00076100
v -0.01322200 -0.04224900 0.00063700
v -0.00980500 -0.04224900 0.00053300
v -0.01330400 -0.04224900 0.00053100
v -0.01341000 -0.04224900 0.00044900
v -0.01353500 -0.04224900 0.00039700
v -0.01270500 -0.04224900 0.00016500
v -0.00941300 -0.04224900 0.00014300
v -0.01258000 -0.04224900 0.00011400
v -0.01247300 -0.04224900 0.00003200
v -0.01239200 -0.04224900 -0.00007400
v -0.00892100 -0.04224900 -0.00010700
v -0.00837500 -0.04224900 -0.00019200
v 0.00671900 -0.04224900 -0.00010400
v -0.00782900 -0.04224900 -0.00010400
v -0.00830400 -0.04224900 0.00069500
v -0.00821700 -0.04224900 0.00070700
v -0.00839100 -0.04224900 0.00070700
v -0.00847200 -0.04224900 0.00074100
v -0.00813600 -0.04224900 0.00074100
v -0.00854200 -0.04224900 0.00079400
v -0.00806700 -0.04224900 0.00079400
v -0.00859500 -0.04224900 0.00086300
v -0.00801300 -0.04224900 0.00086300
v -0.00862900 -0.04224900 0.00094400
v -0.00798000 -0.04224900 0.00094400
v -0.00864000 -0.04224900 0.00103100
v -0.00796800 -0.04224900 0.00103100
v -0.00862900 -0.04224900 0.00111800
v -0.00798000 -0.04224900 0.00111800
v -0.00859500 -0.04224900 0.00119900
v -0.00801300 -0.04224900 0.00119900
v -0.00854200 -0.04224900 0.00126900
v -0.00806700 -0.04224900 0.00126900
v -0.00847200 -0.04224900 0.00132200
v -0.00813600 -0.04224900 0.00132200
v -0.00839100 -0.04224900 0.00135600
v -0.00821700 -0.04224900 0.00135600
v -0.00830400 -0.04224900 0.00136700
v -0.02896400 -0.04224900 0.00585500
v 0.02621500 -0.04224900 0.00503100
v 0.03275800 -0.04224900 0.00585500
v -0.02414300 -0.04224900 0.00477300
v -0.02501800 -0.04224900 0.00457700
v -0.02581200 -0.04224900 0.00416100
v -0.02647200 -0.04224900 0.00355400
v -0.02695300 -0.04224900 0.00279600
v -0.02722000 -0.04224900 0.00194000
v -0.02725700 -0.04224900 0.00104400
v -0.02706100 -0.04224900 0.00016900
v -0.02442400 -0.04224900 -0.00203300
v -0.02896400 -0.04224900 -0.00440800
v -0.02352800 -0.04224900 -0.00207100
v -0.02528000 -0.04224900 -0.00176600
v -0.02603700 -0.04224900 -0.00128600
v -0.02664500 -0.04224900 -0.00062600
v 0.02711100 -0.04224900 0.00499400
v 0.02796700 -0.04224900 0.00472600
v 0.02872500 -0.04224900 0.00424600
v 0.02933200 -0.04224900 0.00358600
v 0.02974800 -0.04224900 0.00279100
v 0.02994500 -0.04224900 0.00191600
v 0.02991900 -0.04224900 0.00130100
v 0.02990700 -0.04224900 0.00102000
v 0.02964000 -0.04224900 0.00016400
v 0.02683000 -0.04224900 -0.00181300
v 0.03275800 -0.04224900 -0.00440800
v 0.02916000 -0.04224900 -0.00059400
v 0.02850000 -0.04224900 -0.00120100
v 0.02770500 -0.04224900 -0.00161700
v 0.02534000 -0.04224900 0.00483400
v 0.02454500 -0.04224900 0.00441900
v 0.02388600 -0.04224900 0.00381100
v 0.02340600 -0.04224900 0.00305300
v 0.02313800 -0.04224900 0.00219700
v 0.02310100 -0.04224900 0.00130100
v 0.02329700 -0.04224900 0.00042600
v 0.02371300 -0.04224900 -0.00036800
v 0.02432000 -0.04224900 -0.00102800
v 0.02507800 -0.04224900 -0.00150800
v 0.02593400 -0.04224900 -0.00177600
v -0.02324600 -0.04224900 0.00473600
v -0.02239000 -0.04224900 0.00446900
v -0.02163300 -0.04224900 0.00398800
v -0.02102500 -0.04224900 0.00332900
v -0.02060900 -0.04224900 0.00253400
v -0.02041400 -0.04224900 0.00165900
v -0.02045000 -0.04224900 0.00076300
v -0.02071800 -0.04224900 -0.00009300
v -0.02119800 -0.04224900 -0.00085100
v -0.02185800 -0.04224900 -0.00145800
v -0.02265300 -0.04224900 -0.00187400
v -0.05793900 -0.04224900 -0.00127700
v -0.05749900 -0.04224900 -0.00161400
v -0.05663900 -0.04224900 -0.00127700
v -0.05749900 -0.04224900 -0.00214000
v -0.05793900 -0.04224900 -0.00243100
v -0.05663900 -0.04224900 -0.00214000
v -0.05663900 -0.04224900 -0.00243100
v -0.05663900 -0.04224900 -0.00161400
v -0.05460700 -0.04224900 -0.00214000
v -0.05417500 -0.04224900 -0.00127700
v -0.05460700 -0.04224900 -0.00161400
v -0.05417500 -0.04224900 -0.00243100
v -0.04196400 -0.04224900 -0.00050600
v -0.04111800 -0.04224900 -0.00062100
v -0.04082300 -0.04224900 -0.00058200
v -0.04139400 -0.04224900 -0.00073500
v -0.04222900 -0.04224900 -0.00085100
v -0.04163000 -0.04224900 -0.00091600
v -0.04181200 -0.04224900 -0.00115200
v -0.04239600 -0.04224900 -0.00125300
v -0.04192500 -0.04224900 -0.00142700
v -0.04245200 -0.04224900 -0.00168500
v -0.04196400 -0.04224900 -0.00172300
v -0.04192500 -0.04224900 -0.00201800
v -0.04239600 -0.04224900 -0.00211600
v -0.04181200 -0.04224900 -0.00229300
v -0.04222900 -0.04224900 -0.00251800
v -0.04163000 -0.04224900 -0.00253000
v -0.04139400 -0.04224900 -0.00271100
v -0.04111800 -0.04224900 -0.00282500
v -0.04196400 -0.04224900 -0.00286400
v -0.04082300 -0.04224900 -0.00286400
v -0.03960600 -0.04224900 -0.00286400
v -0.04161900 -0.04224900 -0.00312900
v -0.03995100 -0.04224900 -0.00312900
v -0.04035400 -0.04224900 -0.00329500
v -0.04121700 -0.04224900 -0.00329500
v -0.04078600 -0.04224900 -0.00335200
v -0.04121700 -0.04224900 -0.00007400
v -0.04035400 -0.04224900 -0.00007400
v -0.04078600 -0.04224900 -0.00001700
v -0.04161900 -0.04224900 -0.00024100
v -0.03995100 -0.04224900 -0.00024100
v -0.03960600 -0.04224900 -0.00050600
v -0.04052800 -0.04224900 -0.00062100
v -0.04025300 -0.04224900 -0.00073500
v -0.03934100 -0.04224900 -0.00085100
v -0.04001700 -0.04224900 -0.00091600
v -0.03983500 -0.04224900 -0.00115200
v -0.03917500 -0.04224900 -0.00125300
v -0.03972100 -0.04224900 -0.00142700
v -0.03911800 -0.04224900 -0.00168500
v -0.03968200 -0.04224900 -0.00172300
v -0.03972100 -0.04224900 -0.00201800
v -0.03917500 -0.04224900 -0.00211600
v -0.03983500 -0.04224900 -0.00229300
v -0.03934100 -0.04224900 -0.00251800
v -0.04001700 -0.04224900 -0.00253000
v -0.04025300 -0.04224900 -0.00271100
v -0.04052800 -0.04224900 -0.00282500
v -0.00830400 -0.04224900 0.00189000
v -0.00821700 -0.04224900 0.00190100
v -0.00839100 -0.04224900 0.00190100
v -0.00847200 -0.04224900 0.00193500
v -0.00813600 -0.04224900 0.00193500
v -0.00854200 -0.04224900 0.00198800
v -0.00806700 -0.04224900 0.00198800
v -0.00859500 -0.04224900 0.00205700
v -0.00801300 -0.04224900 0.00205700
v -0.00862900 -0.04224900 0.00213800
v -0.00798000 -0.04224900 0.00213800
v -0.00864000 -0.04224900 0.00222500
v -0.00796800 -0.04224900 0.00222500
v -0.00862900 -0.04224900 0.00231200
v -0.00798000 -0.04224900 0.00231200
v -0.00859500 -0.04224900 0.00239300
v -0.00801300 -0.04224900 0.00239300
v -0.00854200 -0.04224900 0.00246300
v -0.00806700 -0.04224900 0.00246300
v -0.00847200 -0.04224900 0.00251600
v -0.00813600 -0.04224900 0.00251600
v -0.00839100 -0.04224900 0.00255000
v -0.00821700 -0.04224900 0.00255000
v -0.00830400 -0.04224900 0.00256100
v -0.04724700 -0.04224900 -0.00056900
v -0.04640100 -0.04224900 -0.00068300
v -0.04610700 -0.04224900 -0.00064500
v -0.04667700 -0.04224900 -0.00079700
v -0.04751200 -0.04224900 -0.00091400
v -0.04691300 -0.04224900 -0.00097900
v -0.04709500 -0.04224900 -0.00121500
v -0.04767900 -0.04224900 -0.00131600
v -0.04720800 -0.04224900 -0.00149000
v -0.04773600 -0.04224900 -0.00174800
v -0.04724700 -0.04224900 -0.00178600
v -0.04720800 -0.04224900 -0.00208100
v -0.04767900 -0.04224900 -0.00217900
v -0.04709500 -0.04224900 -0.00235600
v -0.04751200 -0.04224900 -0.00258100
v -0.04691300 -0.04224900 -0.00259200
v -0.04667700 -0.04224900 -0.00277400
v -0.04640100 -0.04224900 -0.00288800
v -0.04724700 -0.04224900 -0.00292700
v -0.04610700 -0.04224900 -0.00292700
v -0.04488900 -0.04224900 -0.00292700
v -0.04690200 -0.04224900 -0.00319200
v -0.04523500 -0.04224900 -0.00319200
v -0.04563600 -0.04224900 -0.00335800
v -0.04650000 -0.04224900 -0.00335800
v -0.04606800 -0.04224900 -0.00341500
v -0.04650000 -0.04224900 -0.00013700
v -0.04563600 -0.04224900 -0.00013700
v -0.04606800 -0.04224900 -0.00008000
v -0.04690200 -0.04224900 -0.00030400
v -0.04523500 -0.04224900 -0.00030400
v -0.04488900 -0.04224900 -0.00056900
v -0.04581100 -0.04224900 -0.00068300
v -0.04553600 -0.04224900 -0.00079700
v -0.04462400 -0.04224900 -0.00091400
v -0.04529900 -0.04224900 -0.00097900
v -0.04511800 -0.04224900 -0.00121500
v -0.04445800 -0.04224900 -0.00131600
v -0.04500400 -0.04224900 -0.00149000
v -0.04440100 -0.04224900 -0.00174800
v -0.04496500 -0.04224900 -0.00178600
v -0.04500400 -0.04224900 -0.00208100
v -0.04445800 -0.04224900 -0.00217900
v -0.04511800 -0.04224900 -0.00235600
v -0.04462400 -0.04224900 -0.00258100
v -0.04529900 -0.04224900 -0.00259200
v -0.04553600 -0.04224900 -0.00277400
v -0.04581100 -0.04224900 -0.00288800
v -0.05251200 -0.04224900 -0.00066400
v -0.05164300 -0.04224900 -0.00077800
v -0.05134700 -0.04224900 -0.00074000
v -0.05191800 -0.04224900 -0.00089200
v -0.05277700 -0.04224900 -0.00100900
v -0.05215400 -0.04224900 -0.00107400
v -0.05233600 -0.04224900 -0.00131000
v -0.05294400 -0.04224900 -0.00141100
v -0.05245000 -0.04224900 -0.00158500
v -0.05300000 -0.04224900 -0.00184300
v -0.05248800 -0.04224900 -0.00188100
v -0.05245000 -0.04224900 -0.00217600
v -0.05294400 -0.04224900 -0.00227400
v -0.05233600 -0.04224900 -0.00245100
v -0.05277700 -0.04224900 -0.00267600
v -0.05215400 -0.04224900 -0.00268700
v -0.05191800 -0.04224900 -0.00286900
v -0.05164300 -0.04224900 -0.00298300
v -0.05251200 -0.04224900 -0.00302200
v -0.05134700 -0.04224900 -0.00302200
v -0.05015400 -0.04224900 -0.00302200
v -0.05216700 -0.04224900 -0.00328700
v -0.05049900 -0.04224900 -0.00328700
v -0.05090200 -0.04224900 -0.00345300
v -0.05176400 -0.04224900 -0.00345300
v -0.05133300 -0.04224900 -0.00351000
v -0.05176400 -0.04224900 -0.00023200
v -0.05090200 -0.04224900 -0.00023200
v -0.05133300 -0.04224900 -0.00017500
v -0.05216700 -0.04224900 -0.00039900
v -0.05049900 -0.04224900 -0.00039900
v -0.05015400 -0.04224900 -0.00066400
v -0.05105200 -0.04224900 -0.00077800
v -0.05077700 -0.04224900 -0.00089200
v -0.04988900 -0.04224900 -0.00100900
v -0.05054100 -0.04224900 -0.00107400
v -0.05035900 -0.04224900 -0.00131000
v -0.04972200 -0.04224900 -0.00141100
v -0.05024500 -0.04224900 -0.00158500
v -0.04966600 -0.04224900 -0.00184300
v -0.05020700 -0.04224900 -0.00188100
v -0.05024500 -0.04224900 -0.00217600
v -0.04972200 -0.04224900 -0.00227400
v -0.05035900 -0.04224900 -0.00245100
v -0.04988900 -0.04224900 -0.00267600
v -0.05054100 -0.04224900 -0.00268700
v -0.05077700 -0.04224900 -0.00286900
v -0.05105200 -0.04224900 -0.00298300
v -0.03567500 -0.04224900 0.00062300
v -0.03453600 -0.04224900 0.00031800
v -0.03508500 -0.04224900 0.00054600
v -0.03406500 -0.04224900 -0.00004400
v -0.03370300 -0.04224900 -0.00051500
v -0.03347600 -0.04224900 -0.00106400
v -0.03339800 -0.04224900 -0.00165400
v -0.03347600 -0.04224900 -0.00224300
v -0.03370300 -0.04224900 -0.00279200
v -0.03406500 -0.04224900 -0.00326400
v -0.03453600 -0.04224900 -0.00362600
v -0.03508500 -0.04224900 -0.00385300
v -0.03567500 -0.04224900 -0.00393100
v -0.05891600 -0.04224900 -0.00165400
v -0.05883900 -0.04224900 -0.00106400
v -0.05883900 -0.04224900 -0.00224300
v -0.05861100 -0.04224900 -0.00279200
v -0.05824900 -0.04224900 -0.00326400
v -0.05777700 -0.04224900 -0.00362600
v -0.05722800 -0.04224900 -0.00385300
v -0.05663900 -0.04224900 -0.00393100
v -0.05777700 -0.04224900 0.00031800
v -0.05663900 -0.04224900 0.00062300
v -0.05722800 -0.04224900 0.00054600
v -0.05824900 -0.04224900 -0.00004400
v -0.05861100 -0.04224900 -0.00051500
v -0.02383500 -0.04224900 0.00135100
v -0.06197200 0.04264700 0.00932100
v -0.04153900 -0.02652900 0.00932100
v -0.06197200 -0.04224900 0.00932100
v 0.06206400 -0.04224900 0.00932100
v -0.00455600 -0.02652900 0.00932100
v 0.01145500 -0.02644800 0.00932100
v -0.00455600 0.02927000 0.00932100
v 0.04843700 -0.02644800 0.00932100
v 0.04843700 0.02935100 0.00932100
v 0.06206400 0.04264700 0.00932100
v -0.04153900 0.02927000 0.00932100
v 0.01145500 0.02935100 0.00932100
v -0.06197200 0.04264700 -0.00932500
v 0.06206400 0.04264700 -0.00932500
v -0.00782900 -0.04224900 0.00103100
v -0.00782900 -0.04224900 0.00222500
v -0.00864000 -0.04224900 0.00189000
v -0.00871600 -0.04224900 0.00198800
v -0.00876300 -0.04224900 0.00210200
v -0.00877900 -0.04224900 0.00222500
v -0.00876300 -0.04224900 0.00234800
v -0.00871600 -0.04224900 0.00246300
v -0.00864000 -0.04224900 0.00256100
v -0.00854200 -0.04224900 0.00263700
v -0.00796800 -0.04224900 0.00256100
v -0.00806700 -0.04224900 0.00263700
v -0.00842700 -0.04224900 0.00268400
v -0.00818100 -0.04224900 0.00268400
v -0.00830400 -0.04224900 0.00270000
v -0.00830400 -0.04224900 0.00175000
v -0.00818100 -0.04224900 0.00176700
v -0.00842700 -0.04224900 0.00176700
v -0.00854200 -0.04224900 0.00181400
v -0.00806700 -0.04224900 0.00181400
v -0.00796800 -0.04224900 0.00189000
v -0.00789300 -0.04224900 0.00198800
v -0.00784500 -0.04224900 0.00210200
v -0.00784500 -0.04224900 0.00234800
v -0.00789300 -0.04224900 0.00246300
v -0.00864000 -0.04224900 0.00069500
v -0.00871600 -0.04224900 0.00079400
v -0.00876300 -0.04224900 0.00090800
v -0.00877900 -0.04224900 0.00103100
v -0.00876300 -0.04224900 0.00115400
v -0.00871600 -0.04224900 0.00126900
v -0.00864000 -0.04224900 0.00136700
v -0.00854200 -0.04224900 0.00144300
v -0.00796800 -0.04224900 0.00136700
v -0.00806700 -0.04224900 0.00144300
v -0.00842700 -0.04224900 0.00149000
v -0.00818100 -0.04224900 0.00149000
v -0.00830400 -0.04224900 0.00150600
v -0.00830400 -0.04224900 0.00055600
v -0.00818100 -0.04224900 0.00057300
v -0.00842700 -0.04224900 0.00057300
v -0.00854200 -0.04224900 0.00062000
v -0.00806700 -0.04224900 0.00062000
v -0.00796800 -0.04224900 0.00069500
v -0.00789300 -0.04224900 0.00079400
v -0.00784500 -0.04224900 0.00090800
v -0.00784500 -0.04224900 0.00115400
v -0.00789300 -0.04224900 0.00126900
v -0.06197200 -0.04224900 -0.00932500
v 0.06206400 -0.04224900 -0.00932500
v 0.04892900 -0.04224900 0.00071900
v 0.04874500 -0.04224900 0.00027400
v 0.05728800 -0.04224900 0.00071900
v 0.04592200 -0.04224900 0.00395300
v 0.04657200 -0.04224900 0.00403800
v 0.04531700 -0.04224900 0.00370200
v 0.04479800 -0.04224900 0.00330300
v 0.04439900 -0.04224900 0.00278400
v 0.03686200 -0.04224900 0.00233300
v 0.03686200 -0.04224900 0.00071900
v 0.04439900 -0.04224900 0.00027400
v 0.04421400 -0.04224900 0.00071900
v 0.04479800 -0.04224900 -0.00024500
v 0.04531700 -0.04224900 -0.00064400
v 0.04592200 -0.04224900 -0.00089500
v 0.04657200 -0.04224900 -0.00098000
v 0.04722100 -0.04224900 0.00395300
v 0.04782600 -0.04224900 0.00370200
v 0.04834600 -0.04224900 0.00330300
v 0.04874500 -0.04224900 0.00278400
v 0.04893100 -0.04224900 0.00233300
v 0.05728800 -0.04224900 0.00233300
v 0.04834600 -0.04224900 -0.00024500
v 0.04782600 -0.04224900 -0.00064400
v 0.04722100 -0.04224900 -0.00089500
v 0.04421200 -0.04224900 0.00233300
v 0.04414800 -0.04224900 0.00217800
v 0.04406200 -0.04224900 0.00152900
v 0.04414800 -0.04224900 0.00088000
v 0.04899600 -0.04224900 0.00217800
v 0.04908100 -0.04224900 0.00152900
v 0.04899600 -0.04224900 0.00088000
vn 0.00000000 -1.00000000 0.00000000
vn 0.00000000 -1.00000000 0.00000000
vn 0.00000000 -1.00000000 0.00000000
vn 0.00000000 -1.00000000 0.00000000
vn 0.00000000 -1.00000000 0.00000000
vn 0.00000000 -1.00000000 0.00000000
vn 0.00000000 -1.00000000 0.00000000
vn 0.00000000 -1.00000000 0.00000000
vn 0.00000000 -1.00000000 0.00000000
vn 0.00000000 -1.00000000 0.00000000
vn 0.00000000 -1.00000000 0.00000000
vn 0.00000000 -1.00000000 0.00000000
vn 0.00000000 -1.00000000 0.00000000
vn 0.00000000 -1.00000000 0.00000000
vn 0.00000000 -1.00000000 0.00000000
vn 0.00000000 -1.00000000 0.00000000
vn 0.00000000 -1.00000000 0.00000000
vn 0.00000000 -1.00000000 0.00000000
vn 0.00000000 -1.00000000 0.00000000
vn 0.00000000 -1.00000000 0.00000000
vn 0.00000000 -1.00000000 0.00000000
vn 0.00000000 -1.00000000 0.00000000
vn 0.00000000 -1.00000000 0.00000000
vn 0.00000000 -1.00000000 0.00000000
vn 0.00000000 -1.00000000 0.00000000
vn 0.00000000 -1.00000000 0.00000000
vn 0.00000000 -1.00000000 0.00000000
vn 0.00000000 -1.00000000 0.00000000
vn 0.00000000 -1.00000000 0.00000000
vn 0.00000000 -1.00000000 0.00000000
vn 0.00000000 -1.00000000 0.00000000
vn 0.00000000 -1.00000000 0.00000000
vn 0.00000000 -1.00000000 0.00000000
vn 0.00000000 -1.00000000 0.00000000
vn 0.00000000 -1.00000000 0.00000000
vn 0.00000000 -1.00000000 0.00000000
vn 0.00000000 -1.00000000 0.00000000
vn 0.00000000 -1.00000000 0.00000000
vn 0.00000000 -1.00000000 0.00000000
vn 0.00000000 -1.00000000 0.00000000
vn 0.00000000 -1.00000000 0.00000000
vn 0.00000000 -1.00000000 0.00000000
vn 0.00000000 -1.00000000 0.00000000
vn 0.00000000 -1.00000000 0.00000000
vn 0.00000000 -1.00000000 0.00000000
vn 0.00000000 -1.00000000 0.00000000
vn 0.00000000 -1.00000000 0.00000000
vn 0.00000000 -1.00000000 0.00000000
vn 0.00000000 -1.00000000 0.00000000
vn 0.00000000 -1.00000000 0.00000000
vn 0.00000000 -1.00000000 0.00000000
vn 0.00000000 -1.00000000 0.00000000
vn 0.00000000 -1.00000000 0.00000000
vn 0.00000000 -1.00000000 0.00000000
vn 0.00000000 -1.00000000 0.00000000
vn 0.00000000 -1.00000000 0.00000000
vn 0.00000000 -1.00000000 0.00000000
vn 0.00000000 -1.00000000 0.00000000
vn 0.00000000 -1.00000000 0.00000000
vn 0.00000000 -1.00000000 0.00000000
vn 0.00000000 -1.00000000 0.00000000
vn 0.00000000 -1.00000000 0.00000000
vn 0.00000000 -1.00000000 0.00000000
vn 0.00000000 -1.00000000 0.00000000
vn 0.00000000 -1.00000000 0.00000000
vn 0.00000000 -1.00000000 0.00000000
vn 0.00000000 -1.00000000 0.00000000
vn 0.00000000 -1.00000000 0.00000000
vn 0.00000000 -1.00000000 0.00000000
vn 0.00000000 -1.00000000 0.00000000
vn 0.00000000 -1.00000000 0.00000000
vn 0.00000000 -1.00000000 0.00000000
vn 0.00000000 -1.00000000 0.00000000
vn 0.00000000 -1.00000000 0.00000000
vn 0.00000000 -1.00000000 0.00000000
vn 0.00000000 -1.00000000 0.00000000
vn 0.00000000 -1.00000000 0.00000000
vn 0.00000000 -1.00000000 0.00000000
vn 0.00000000 -1.00000000 0.00000000
vn 0.00000000 -1.00000000 0.00000000
vn 0.00000000 -1.00000000 0.00000000
vn 0.00000000 -1.00000000 0.00000000
vn 0.00000000 -1.00000000 0.00000000
vn 0.00000000 -1.00000000 0.00000000
vn 0.00000000 -1.00000000 0.00000000
vn 0.00000000 -1.00000000 0.00000000
vn 0.00000000 -1.00000000 0.00000000
vn 0.00000000 -1.00000000 0.00000000
vn 0.00000000 -1.00000000 0.00000000
vn 0.00000000 -1.00000000 0.00000000
vn 0.00000000 -1.00000000 0.00000000
vn 0.00000000 -1.00000000 0.00000000
vn 0.00000000 -1.00000000 0.00000000
vn 0.00000000 -1.00000000 0.00000000
vn 0.00000000 -1.00000000 0.00000000
vn 0.00000000 -1.00000000 0.00000000
vn 0.00000000 -1.00000000 0.00000000
vn 0.00000000 -1.00000000 0.00000000
vn 0.00000000 -1.00000000 0.00000000
vn 0.00000000 -1.00000000 0.00000000
vn 0.00000000 -1.00000000 0.00000000
vn 0.00000000 -1.00000000 0.00000000
vn 0.00000000 -1.00000000 0.00000000
vn 0.00000000 -1.00000000 0.00000000
vn 0.00000000 -1.00000000 0.00000000
vn 0.00000000 -1.00000000 0.00000000
vn 0.00000000 -1.00000000 0.00000000
vn 0.00000000 -1.00000000 0.00000000
vn 0.00000000 -1.00000000 0.00000000
vn 0.00000000 -1.00000000 0.00000000
vn 0.00000000 -1.00000000 0.00000000
vn 0.00000000 -1.00000000 0.00000000
vn 0.00000000 -1.00000000 0.00000000
vn 0.00000000 -1.00000000 0.00000000
vn 0.00000000 -1.00000000 0.00000000
vn 0.00000000 -1.00000000 0.00000000
vn 0.00000000 -1.00000000 0.00000000
vn 0.00000000 -1.00000000 0.00000000
vn 0.00000000 -1.00000000 0.00000000
vn 0.00000000 -1.00000000 0.00000000
vn 0.00000000 -1.00000000 0.00000000
vn 0.00000000 -1.00000000 0.00000000
vn 0.00000000 -1.00000000 0.00000000
vn 0.00000000 -1.00000000 0.00000000
vn 0.00000000 -1.00000000 0.00000000
vn 0.00000000 -1.00000000 0.00000000
vn 0.00000000 -1.00000000 0.00000000
vn 0.00000000 -1.00000000 0.00000000
vn 0.00000000 -1.00000000 0.00000000
vn 0.00000000 -1.00000000 0.00000000
vn 0.00000000 -1.00000000 0.00000000
vn 0.00000000 -1.00000000 0.00000000
vn 0.00000000 -1.00000000 0.00000000
vn 0.00000000 -1.00000000 0.00000000
vn 0.00000000 -1.00000000 0.00000000
vn 0.00000000 -1.00000000 0.00000000
vn 0.00000000 -1.00000000 0.00000000
vn 0.00000000 -1.00000000 0.00000000
vn 0.00000000 -1.00000000 0.00000000
vn 0.00000000 -1.00000000 0.00000000
vn 0.00000000 -1.00000000 0.00000000
vn 0.00000000 -1.00000000 0.00000000
vn 0.00000000 -1.00000000 0.00000000
vn 0.00000000 -1.00000000 0.00000000
vn 0.00000000 -1.00000000 0.00000000
vn 0.00000000 -1.00000000 0.00000000
vn 0.00000000 -1.00000000 0.00000000
vn 0.00000000 -1.00000000 0.00000000
vn 0.00000000 -1.00000000 0.00000000
vn 0.00000000 -1.00000000 0.00000000
vn 0.00000000 -1.00000000 0.00000000
vn 0.00000000 -1.00000000 0.00000000
vn 0.00000000 -1.00000000 0.00000000
vn 0.00000000 -1.00000000 0.00000000
vn 0.00000000 -1.00000000 0.00000000
vn 0.00000000 -1.00000000 0.00000000
vn 0.00000000 -1.00000000 0.00000000
vn 0.00000000 -1.00000000 0.00000000
vn 0.00000000 -1.00000000 0.00000000
vn 0.00000000 -1.00000000 0.00000000
vn 0.00000000 -1.00000000 0.00000000
vn 0.00000000 -1.00000000 0.00000000
vn 0.00000000 -1.00000000 0.00000000
vn 0.00000000 -1.00000000 0.00000000
vn 0.00000000 -1.00000000 0.00000000
vn 0.00000000 -1.00000000 0.00000000
vn 0.00000000 -1.00000000 0.00000000
vn 0.00000000 -1.00000000 0.00000000
vn 0.00000000 -1.00000000 0.00000000
vn 0.00000000 -1.00000000 0.00000000
vn 0.00000000 -1.00000000 0.00000000
vn 0.00000000 -1.00000000 0.00000000
vn 0.00000000 -1.00000000 0.00000000
vn 0.00000000 -1.00000000 0.00000000
vn 0.00000000 -1.00000000 0.00000000
vn 0.00000000 -1.00000000 0.00000000
vn 0.00000000 -1.00000000 0.00000000
vn 0.00000000 -1.00000000 0.00000000
vn 0.00000000 -1.00000000 0.00000000
vn 0.00000000 -1.00000000 0.00000000
vn 0.00000000 -1.00000000 0.00000000
vn 0.00000000 -1.00000000 0.00000000
vn 0.00000000 -1.00000000 0.00000000
vn 0.00000000 -1.00000000 0.00000000
vn 0.00000000 -1.00000000 0.00000000
vn 0.00000000 -1.00000000 0.00000000
vn 0.00000000 -1.00000000 0.00000000
vn 0.00000000 -1.00000000 0.00000000
vn 0.00000000 -1.00000000 0.00000000
vn 0.00000000 -1.00000000 0.00000000
vn 0.00000000 -1.00000000 0.00000000
vn 0.00000000 -1.00000000 0.00000000
vn 0.00000000 -1.00000000 0.00000000
vn 0.00000000 -1.00000000 0.00000000
vn 0.00000000 -1.00000000 0.00000000
vn 0.00000000 -1.00000000 0.00000000
vn 0.00000000 -1.00000000 0.00000000
vn 0.00000000 -1.00000000 0.00000000
vn 0.00000000 -1.00000000 0.00000000
vn 0.00000000 -1.00000000 0.00000000
vn 0.00000000 -1.00000000 0.00000000
vn 0.00000000 -1.00000000 0.00000000
vn 0.00000000 -0.00000000 0.00000000
vn 0.00000000 -0.00000000 0.00000000
vn 0.00000000 0.00000000 0.00000000
vn 0.00000000 0.00000000 0.00000000
vn 0.00000000 0.00000000 0.00000000
vn 0.00000000 0.00000000 0.00000000
vn 0.00000000 -0.00000000 0.00000000
vn 0.00000000 -0.00000000 0.00000000
vn 0.00000000 0.00000000 0.00000000
vn 0.00000000 -0.00000000 0.00000000
vn 0.00000000 0.00000000 0.00000000
vn 0.00000000 -0.00000000 0.00000000
vn 0.00000000 0.00000000 0.00000000
vn 0.00000000 -0.00000000 0.00000000
vn 0.00000000 -0.00000000 0.00000000
vn 0.00000000 -0.00000000 0.00000000
vn 0.00000000 -0.00000000 0.00000000
vn 0.00000000 0.00000000 0.00000000
vn 0.00000000 0.00000000 0.00000000
vn 0.00000000 0.00000000 0.00000000
vn 0.00000000 0.00000000 0.00000000
vn 0.00000000 0.00000000 0.00000000
vn 0.00000000 -0.00000000 0.00000000
vn 0.00000000 -0.00000000 0.00000000
vn 0.00000000 -1.00000000 0.00000000
vn 0.00000000 -1.00000000 0.00000000
vn 0.00000000 -1.00000000 0.00000000
vn 0.00000000 -1.00000000 0.00000000
vn 0.00000000 -1.00000000 0.00000000
vn 0.00000000 -1.00000000 0.00000000
vn 0.00000000 -1.00000000 0.00000000
vn 0.00000000 -1.00000000 0.00000000
vn 0.00000000 -1.00000000 0.00000000
vn 0.00000000 -1.00000000 0.00000000
vn 0.00000000 -1.00000000 0.00000000
vn 0.00000000 -1.00000000 0.00000000
vn 0.00000000 -1.00000000 0.00000000
vn 0.00000000 -1.00000000 0.00000000
vn 0.00000000 -1.00000000 0.00000000
vn 0.00000000 -1.00000000 0.00000000
vn 0.00000000 -1.00000000 0.00000000
vn 0.00000000 -1.00000000 0.00000000
vn 0.00000000 -1.00000000 0.00000000
vn 0.00000000 -1.00000000 0.00000000
vn 0.00000000 -1.00000000 0.00000000
vn 0.00000000 -1.00000000 0.00000000
vn 0.00000000 -1.00000000 0.00000000
vn 0.00000000 -1.00000000 0.00000000
vn 0.00000000 -1.00000000 0.00000000
vn 0.00000000 -1.00000000 0.00000000
vn 0.00000000 -1.00000000 0.00000000
vn 0.00000000 -1.00000000 0.00000000
vn 0.00000000 -1.00000000 0.00000000
vn 0.00000000 -1.00000000 0.00000000
vn 0.00000000 -1.00000000 0.00000000
vn 0.00000000 -1.00000000 0.00000000
vn 0.00000000 -1.00000000 0.00000000
vn 0.00000000 -1.00000000 0.00000000
vn 0.00000000 -1.00000000 0.00000000
vn 0.00000000 -1.00000000 0.00000000
vn 0.00000000 -1.00000000 0.00000000
vn 0.00000000 -1.00000000 0.00000000
vn 0.00000000 -1.00000000 0.00000000
vn 0.00000000 -1.00000000 0.00000000
vn 0.00000000 -1.00000000 0.00000000
vn 0.00000000 -1.00000000 0.00000000
vn 0.00000000 -1.00000000 0.00000000
vn 0.00000000 -1.00000000 0.00000000
vn 0.00000000 -1.00000000 0.00000000
vn 0.00000000 -1.00000000 0.00000000
vn 0.00000000 -1.00000000 0.00000000
vn 0.00000000 -1.00000000 0.00000000
vn 0.00000000 -1.00000000 0.00000000
vn 0.00000000 -1.00000000 0.00000000
vn 0.00000000 -1.00000000 0.00000000
vn 0.00000000 -1.00000000 0.00000000
vn 0.00000000 -1.00000000 0.00000000
vn 0.00000000 -1.00000000 0.00000000
vn 0.00000000 -1.00000000 0.00000000
vn 0.00000000 -1.00000000 0.00000000
vn 0.00000000 -1.00000000 0.00000000
vn 0.00000000 -1.00000000 0.00000000
vn 0.00000000 -1.00000000 0.00000000
vn 0.00000000 -1.00000000 0.00000000
vn 0.00000000 -1.00000000 0.00000000
vn 0.00000000 -1.00000000 0.00000000
vn 0.00000000 -1.00000000 0.00000000
vn 0.00000000 -1.00000000 0.00000000
vn 0.00000000 -1.00000000 0.00000000
vn 0.00000000 -1.00000000 0.00000000
vn 0.00000000 -1.00000000 0.00000000
vn 0.00000000 -1.00000000 0.00000000
vn 0.00000000 -1.00000000 0.00000000
vn 0.00000000 -1.00000000 0.00000000
vn 0.00000000 -1.00000000 0.00000000
vn 0.00000000 -1.00000000 0.00000000
vn 0.00000000 -1.00000000 0.00000000
vn 0.00000000 -1.00000000 0.00000000
vn 0.00000000 -1.00000000 0.00000000
vn 0.00000000 -1.00000000 0.00000000
vn 0.00000000 -1.00000000 0.00000000
vn 0.00000000 -1.00000000 0.00000000
vn 0.00000000 -1.00000000 0.00000000
vn 0.00000000 -1.00000000 0.00000000
vn 0.00000000 -1.00000000 0.00000000
vn 0.00000000 -1.00000000 0.00000000
vn 0.00000000 -1.00000000 0.00000000
vn 0.00000000 -1.00000000 0.00000000
vn 0.00000000 -1.00000000 0.00000000
vn 0.00000000 -1.00000000 0.00000000
vn 0.00000000 -1.00000000 0.00000000
vn 0.00000000 -1.00000000 0.00000000
vn 0.00000000 -1.00000000 0.00000000
vn 0.00000000 -1.00000000 0.00000000
vn 0.00000000 -1.00000000 0.00000000
vn 0.00000000 -1.00000000 0.00000000
vn 0.00000000 -1.00000000 0.00000000
vn 0.00000000 -1.00000000 0.00000000
vn 0.00000000 -1.00000000 0.00000000
vn 0.00000000 -1.00000000 0.00000000
vn 0.00000000 -1.00000000 0.00000000
vn 0.00000000 -1.00000000 0.00000000
vn 0.00000000 -1.00000000 0.00000000
vn 0.00000000 -1.00000000 0.00000000
vn 0.00000000 -1.00000000 0.00000000
vn 0.00000000 -1.00000000 0.00000000
vn 0.00000000 -1.00000000 0.00000000
vn 0.00000000 -1.00000000 0.00000000
vn 0.00000000 -1.00000000 0.00000000
vn 0.00000000 -1.00000000 0.00000000
vn 0.00000000 -1.00000000 0.00000000
vn 0.00000000 -1.00000000 0.00000000
vn 0.00000000 -1.00000000 0.00000000
vn 0.00000000 -1.00000000 0.00000000
vn 0.00000000 -1.00000000 0.00000000
vn 0.00000000 -1.00000000 0.00000000
vn 0.00000000 -1.00000000 0.00000000
vn 0.00000000 -0.00000000 0.00000000
vn 0.00000000 -0.00000000 0.00000000
vn 0.00000000 0.00000000 0.00000000
vn 0.00000000 -0.00000000 0.00000000
vn 0.00000000 0.00000000 0.00000000
vn 0.00000000 -0.00000000 0.00000000
vn 0.00000000 -0.00000000 0.00000000
vn 0.00000000 0.00000000 0.00000000
vn 0.00000000 0.00000000 0.00000000
vn 0.00000000 -0.00000000 0.00000000
vn 0.00000000 -0.00000000 0.00000000
vn 0.00000000 0.00000000 0.00000000
vn 0.00000000 -0.00000000 0.00000000
vn 0.00000000 -0.00000000 0.00000000
vn 0.00000000 0.00000000 0.00000000
vn 0.00000000 0.00000000 0.00000000
vn 0.00000000 -0.00000000 0.00000000
vn 0.00000000 0.00000000 0.00000000
vn 0.00000000 0.00000000 0.00000000
vn 0.00000000 -0.00000000 0.00000000
vn 0.00000000 0.00000000 0.00000000
vn 0.00000000 -0.00000000 0.00000000
vn 0.00000000 -0.00000000 0.00000000
vn 0.00000000 0.00000000 0.00000000
vn 0.00000000 -1.00000000 0.00000000
vn 0.00000000 -1.00000000 0.00000000
vn 0.00000000 -1.00000000 0.00000000
vn 0.00000000 -1.00000000 0.00000000
vn 0.00000000 -1.00000000 0.00000000
vn 0.00000000 -1.00000000 0.00000000
vn 0.00000000 -1.00000000 0.00000000
vn 0.00000000 -1.00000000 0.00000000
vn 0.00000000 -1.00000000 0.00000000
vn 0.00000000 -1.00000000 0.00000000
vn 0.00000000 -1.00000000 0.00000000
vn 0.00000000 -1.00000000 0.00000000
vn 0.00000000 -1.00000000 0.00000000
vn 0.00000000 -1.00000000 0.00000000
vn 0.00000000 -1.00000000 0.00000000
vn 0.00000000 -1.00000000 0.00000000
vn 0.00000000 -1.00000000 0.00000000
vn 0.00000000 -1.00000000 0.00000000
vn 0.00000000 -1.00000000 0.00000000
vn 0.00000000 -1.00000000 0.00000000
vn 0.00000000 -1.00000000 0.00000000
vn 0.00000000 -1.00000000 0.00000000
vn 0.00000000 -1.00000000 0.00000000
vn 0.00000000 -1.00000000 0.00000000
vn 0.00000000 -1.00000000 0.00000000
vn 0.00000000 -1.00000000 0.00000000
vn 0.00000000 -1.00000000 0.00000000
vn 0.00000000 -1.00000000 0.00000000
vn 0.00000000 -1.00000000 0.00000000
vn 0.00000000 -1.00000000 0.00000000
vn 0.00000000 -1.00000000 0.00000000
vn 0.00000000 -1.00000000 0.00000000
vn 0.00000000 -1.00000000 0.00000000
vn 0.00000000 -1.00000000 0.00000000
vn 0.00000000 -1.00000000 0.00000000
vn 0.00000000 -1.00000000 0.00000000
vn 0.00000000 -1.00000000 0.00000000
vn 0.00000000 -1.00000000 0.00000000
vn 0.00000000 -1.00000000 0.00000000
vn 0.00000000 -1.00000000 0.00000000
vn 0.00000000 -1.00000000 0.00000000
vn 0.00000000 -1.00000000 0.00000000
vn 0.00000000 -1.00000000 0.00000000
vn 0.00000000 -1.00000000 0.00000000
vn 0.00000000 -1.00000000 0.00000000
vn 0.00000000 -1.00000000 0.00000000
vn 0.00000000 -1.00000000 0.00000000
vn 0.00000000 -1.00000000 0.00000000
vn 0.00000000 -1.00000000 0.00000000
vn 0.00000000 -1.00000000 0.00000000
vn 0.00000000 -1.00000000 0.00000000
vn 0.00000000 -1.00000000 0.00000000
vn 0.00000000 -1.00000000 0.00000000
vn 0.00000000 -1.00000000 0.00000000
vn 0.00000000 -1.00000000 0.00000000
vn 0.00000000 -1.00000000 0.00000000
vn 0.00000000 -1.00000000 0.00000000
vn 0.00000000 -1.00000000 0.00000000
vn 0.00000000 -1.00000000 0.00000000
vn 0.00000000 -1.00000000 0.00000000
vn 0.00000000 -1.00000000 0.00000000
vn 0.00000000 -1.00000000 0.00000000
vn 0.00000000 -1.00000000 0.00000000
vn 0.00000000 -1.00000000 0.00000000
vn 0.00000000 -1.00000000 0.00000000
vn 0.00000000 -1.00000000 0.00000000
vn 0.00000000 -1.00000000 0.00000000
vn 0.00000000 -1.00000000 0.00000000
vn 0.00000000 -1.00000000 0.00000000
vn 0.00000000 -1.00000000 0.00000000
vn 0.00000000 -1.00000000 0.00000000
vn 0.00000000 -1.00000000 0.00000000
vn 0.00000000 -1.00000000 0.00000000
vn 0.00000000 -1.00000000 0.00000000
vn 0.00000000 -1.00000000 0.00000000
vn 0.00000000 -1.00000000 0.00000000
vn 0.00000000 -1.00000000 0.00000000
vn 0.00000000 -1.00000000 0.00000000
vn 0.00000000 -1.00000000 0.00000000
vn 0.00000000 -1.00000000 0.00000000
vn 0.00000000 -1.00000000 0.00000000
vn 0.00000000 -1.00000000 0.00000000
vn 0.00000000 -1.00000000 0.00000000
vn 0.00000000 -1.00000000 0.00000000
vn 0.00000000 -1.00000000 0.00000000
vn 0.00000000 -1.00000000 0.00000000
vn 0.00000000 -1.00000000 0.00000000
vn 0.00000000 -1.00000000 0.00000000
vn 0.00000000 -1.00000000 0.00000000
vn 0.00000000 -1.00000000 0.00000000
vn 0.00000000 -1.00000000 0.00000000
vn 0.00000000 -1.00000000 0.00000000
vn 0.00000000 -1.00000000 0.00000000
vn 0.00000000 -1.00000000 0.00000000
vn 0.00000000 -1.00000000 0.00000000
vn 0.00000000 -1.00000000 0.00000000
vn 0.00000000 -1.00000000 0.00000000
vn 0.00000000 -1.00000000 0.00000000
vn 0.00000000 -1.00000000 0.00000000
vn 0.00000000 -1.00000000 0.00000000
vn 0.00000000 -1.00000000 0.00000000
vn 0.00000000 -1.00000000 0.00000000
vn 0.00000000 -1.00000000 0.00000000
vn 0.00000000 -1.00000000 0.00000000
vn 0.00000000 -1.00000000 0.00000000
vn 0.00000000 -1.00000000 0.00000000
vn 0.00000000 -1.00000000 0.00000000
vn 0.00000000 -1.00000000 0.00000000
vn 0.00000000 -1.00000000 0.00000000
vn 0.00000000 -1.00000000 0.00000000
vn 0.00000000 -1.00000000 0.00000000
vn 0.00000000 -1.00000000 0.00000000
vn 0.00000000 -1.00000000 0.00000000
vn 0.00000000 -1.00000000 0.00000000
vn 0.00000000 -1.00000000 0.00000000
vn 0.00000000 -1.00000000 0.00000000
vn 0.00000000 -1.00000000 0.00000000
vn 0.00000000 -1.00000000 0.00000000
vn 0.00000000 -1.00000000 0.00000000
vn 0.00000000 -1.00000000 0.00000000
vn 0.00000000 -1.00000000 0.00000000
vn 0.00000000 -1.00000000 0.00000000
vn 0.00000000 -1.00000000 0.00000000
vn -1.00000000 0.00000000 0.00000000
vn 0.00000000 0.00000000 0.00000000
vn -0.70710678 -0.70710678 -0.00000000
vn 0.70710678 -0.70710678 -0.00000000
vn 0.00000000 0.00000000 -0.00000000
vn 0.00000000 0.00000000 1.00000000
vn 0.00000000 0.00000000 -0.00000000
vn 0.00000000 0.00000000 1.00000000
vn 0.00000000 0.00000000 1.00000000
vn 1.00000000 -0.00000000 0.00000000
vn 0.00000000 0.00000000 -0.00000000
vn 0.00000000 0.00000000 1.00000000
vn -0.70710678 -0.00000000 -0.70710678
vn 0.70710678 0.00000000 -0.70710678
vn 0.00000000 0.00000000 0.00000000
vn 0.00000000 -0.00000000 0.00000000
vn 0.00000000 0.00000000 0.00000000
vn 0.00000000 -0.00000000 0.00000000
vn 0.00000000 -0.00000000 0.00000000
vn 0.00000000 0.00000000 0.00000000
vn 0.00000000 -0.00000000 0.00000000
vn 0.00000000 -0.00000000 0.00000000
vn 0.00000000 -0.00000000 0.00000000
vn 0.00000000 0.00000000 0.00000000
vn 0.00000000 -0.00000000 0.00000000
vn 0.00000000 -0.00000000 0.00000000
vn 0.00000000 0.00000000 0.00000000
vn 0.00000000 0.00000000 0.00000000
vn 0.00000000 -0.00000000 0.00000000
vn 0.00000000 0.00000000 0.00000000
vn 0.00000000 0.00000000 0.00000000
vn 0.00000000 -0.00000000 0.00000000
vn 0.00000000 -0.00000000 0.00000000
vn 0.00000000 0.00000000 0.00000000
vn 0.00000000 0.00000000 0.00000000
vn 0.00000000 -0.00000000 0.00000000
vn 0.00000000 -0.00000000 0.00000000
vn 0.00000000 0.00000000 0.00000000
vn 0.00000000 -0.00000000 0.00000000
vn 0.00000000 0.00000000 0.00000000
vn 0.00000000 0.00000000 0.00000000
vn 0.00000000 -0.00000000 0.00000000
vn 0.00000000 0.00000000 0.00000000
vn 0.00000000 0.00000000 0.00000000
vn 0.00000000 -0.00000000 0.00000000
vn 0.00000000 -0.00000000 0.00000000
vn 0.00000000 0.00000000 0.00000000
vn 0.00000000 0.00000000 0.00000000
vn 0.00000000 -0.00000000 0.00000000
vn 0.00000000 0.00000000 0.00000000
vn 0.00000000 0.00000000 0.00000000
vn 0.00000000 -0.00000000 0.00000000
vn 0.00000000 0.00000000 0.00000000
vn 0.00000000 0.00000000 0.00000000
vn 0.00000000 -0.00000000 0.00000000
vn 0.00000000 -0.00000000 0.00000000
vn 0.00000000 -0.00000000 0.00000000
vn 0.00000000 0.00000000 0.00000000
vn 0.00000000 -0.00000000 0.00000000
vn 0.00000000 0.00000000 0.00000000
vn 0.00000000 0.00000000 0.00000000
vn 0.00000000 -0.00000000 0.00000000
vn -0.57735027 -0.57735027 -0.57735027
vn 0.57735027 -0.57735027 -0.57735027
vn 0.00000000 -1.00000000 0.00000000
vn 0.00000000 -1.00000000 0.00000000
vn 0.00000000 -1.00000000 0.00000000
vn 0.00000000 -1.00000000 0.00000000
vn 0.00000000 -1.00000000 0.00000000
vn 0.00000000 -1.00000000 0.00000000
vn 0.00000000 -1.00000000 0.00000000
vn 0.00000000 -1.00000000 0.00000000
vn 0.00000000 -1.00000000 0.00000000
vn 0.00000000 -1.00000000 0.00000000
vn 0.00000000 -1.00000000 0.00000000
vn 0.00000000 -1.00000000 0.00000000
vn 0.00000000 -1.00000000 0.00000000
vn 0.00000000 -1.00000000 0.00000000
vn 0.00000000 -1.00000000 0.00000000
vn 0.00000000 -1.00000000 0.00000000
vn 0.00000000 -1.00000000 0.00000000
vn 0.00000000 -1.00000000 0.00000000
vn 0.00000000 -1.00000000 0.00000000
vn 0.00000000 -1.00000000 0.00000000
vn 0.00000000 -1.00000000 0.00000000
vn 0.00000000 -1.00000000 0.00000000
vn 0.00000000 -1.00000000 0.00000000
vn 0.00000000 -1.00000000 0.00000000
vn 0.00000000 -1.00000000 0.00000000
vn 0.00000000 -1.00000000 0.00000000
vn 0.00000000 -1.00000000 0.00000000
vn 0.00000000 -1.00000000 0.00000000
vn 0.00000000 -1.00000000 0.00000000
vn 0.00000000 -1.00000000 0.00000000
vn 0.00000000 -1.00000000 0.00000000
vn 0.00000000 -1.00000000 0.00000000
f 1//1 2//2 3//3
f 1//1 4//4 2//2
f 1//1 5//5 4//4
f 1//1 6//6 5//5
f 7//7 6//6 1//1
f 7//7 8//8 6//6
f 7//7 9//9 8//8
f 10//10 9//9 7//7
f 10//10 11//11 9//9
f 12//12 11//11 10//10
f 12//12 13//13 11//11
f 14//14 13//13 12//12
f 15//15 13//13 14//14
f 15//15 16//16 13//13
f 17//17 16//16 15//15
f 17//17 18//18 16//16
f 17//17 19//19 18//18
f 17//17 20//20 19//19
f 20//20 17//17 21//21
f 22//22 23//23 24//24
f 22//22 25//25 23//23
f 22//22 26//26 25//25
f 22//22 27//27 26//26
f 22//22 28//28 27//27
f 22//22 29//29 28//28
f 22//22 30//30 29//29
f 31//31 30//30 22//22
f 31//31 32//32 30//30
f 31//31 33//33 32//32
f 31//31 34//34 33//33
f 31//31 35//35 34//34
f 31//31 36//36 35//35
f 31//31 37//37 36//36
f 31//31 38//38 37//37
f 31//31 39//39 38//38
f 40//40 39//39 31//31
f 40//40 41//41 39//39
f 40//40 42//42 41//41
f 40//40 43//43 42//42
f 40//40 44//44 43//43
f 40//40 45//45 44//44
f 40//40 46//46 45//45
f 40//40 47//47 46//46
f 48//48 47//47 40//40
f 48//48 49//49 47//47
f 48//48 50//50 49//49
f 48//48 51//51 50//50
f 48//48 52//52 51//51
f 48//48 53//53 52//52
f 48//48 54//54 53//53
f 48//48 55//55 54//54
f 48//48 56//56 55//55
f 48//48 57//57 56//56
f 58//58 57//57 48//48
f 58//58 59//59 57//57
f 58//58 60//60 59//59
f 58//58 61//61 60//60
f 58//58 62//62 61//61
f 58//58 63//63 62//62
f 64//64 63//63 58//58
f 64//64 65//65 63//63
f 64//64 66//66 65//65
f 64//64 67//67 66//66
f 67//67 64//64 68//68
f 69//69 70//70 71//71
f 72//72 70//70 69//69
f 73//73 70//70 72//72
f 70//70 74//74 75//75
f 74//74 76//76 77//77
f 70//70 76//76 74//74
f 70//70 78//78 76//76
f 73//73 78//78 70//70
f 73//73 79//79 78//78
f 73//73 80//80 79//79
f 22//22 80//80 73//73
f 24//24 80//80 22//22
f 81//81 80//80 24//24
f 82//82 80//80 81//81
f 83//83 80//80 82//82
f 83//83 84//84 80//80
f 85//85 84//84 83//83
f 86//86 84//84 85//85
f 87//87 84//84 86//86
f 88//88 84//84 87//87
f 88//88 89//89 84//84
f 90//90 89//89 88//88
f 91//91 89//89 90//90
f 92//92 89//89 91//91
f 93//93 89//89 92//92
f 36//36 89//89 93//93
f 89//89 36//36 37//37
f 75//75 94//94 95//95
f 94//94 75//75 74//74
f 77//77 96//96 97//97
f 77//77 98//98 96//96
f 99//99 77//77 76//76
f 77//77 100//100 98//98
f 99//99 100//100 77//77
f 99//99 101//101 100//100
f 99//99 102//102 101//101
f 99//99 103//103 102//102
f 104//104 103//103 99//99
f 104//104 105//105 103//103
f 104//104 106//106 105//105
f 104//104 107//107 106//106
f 108//108 107//107 104//104
f 108//108 109//109 107//107
f 108//108 110//110 109//109
f 108//108 111//111 110//110
f 108//108 112//112 111//111
f 108//108 113//113 112//112
f 114//114 113//113 108//108
f 114//114 115//115 113//113
f 114//114 116//116 115//115
f 116//116 117//117 118//118
f 114//114 117//117 116//116
f 114//114 119//119 117//117
f 114//114 120//120 119//119
f 114//114 121//121 120//120
f 122//122 121//121 114//114
f 122//122 123//123 121//121
f 122//122 124//124 123//123
f 122//122 125//125 124//124
f 122//122 126//126 125//125
f 127//127 126//126 122//122
f 127//127 128//128 126//126
f 127//127 129//129 128//128
f 127//127 130//130 129//129
f 127//127 131//131 130//130
f 127//127 132//132 131//131
f 1//1 132//132 127//127
f 1//1 133//133 132//132
f 3//3 133//133 1//1
f 134//134 133//133 3//3
f 135//135 133//133 134//134
f 136//136 133//133 135//135
f 137//137 133//133 136//136
f 138//138 133//133 137//137
f 139//139 133//133 138//138
f 139//139 140//140 133//133
f 141//141 140//140 139//139
f 142//142 140//140 141//141
f 143//143 140//140 142//142
f 144//144 140//140 143//143
f 145//145 140//140 144//144
f 20//20 140//140 145//145
f 146//146 20//20 21//21
f 147//147 20//20 146//146
f 20//20 148//148 140//140
f 147//147 148//148 20//20
f 149//149 148//148 147//147
f 67//67 148//148 149//149
f 68//68 148//148 67//67
f 68//68 150//150 148//148
f 151//151 150//150 68//68
f 151//151 152//152 150//150
f 153//153 152//152 151//151
f 152//152 153//153 154//154
f 155//155 76//76 78//78
f 76//76 155//155 156//156
f 157//157 100//100 101//101
f 158//158 100//100 157//157
f 159//159 100//100 158//158
f 160//160 100//100 159//159
f 161//161 100//100 160//160
f 161//161 162//162 100//100
f 163//163 162//162 161//161
f 164//164 162//162 163//163
f 165//165 162//162 164//164
f 166//166 162//162 165//165
f 167//167 162//162 166//166
f 168//168 162//162 167//167
f 116//116 162//162 168//168
f 162//162 116//116 118//118
f 169//169 118//118 117//117
f 170//170 118//118 169//169
f 171//171 118//118 170//170
f 172//172 118//118 171//171
f 173//173 118//118 172//172
f 173//173 174//174 118//118
f 175//175 174//174 173//173
f 176//176 174//174 175//175
f 177//177 174//174 176//176
f 178//178 174//174 177//177
f 179//179 174//174 178//178
f 180//180 174//174 179//179
f 132//132 174//174 180//180
f 174//174 132//132 133//133
f 181//181 37//37 38//38
f 182//182 37//37 181//181
f 183//183 37//37 182//182
f 184//184 37//37 183//183
f 185//185 37//37 184//184
f 185//185 186//186 37//37
f 187//187 186//186 185//185
f 188//188 186//186 187//187
f 189//189 186//186 188//188
f 189//189 190//190 186//186
f 191//191 190//190 189//189
f 192//192 190//190 191//191
f 193//193 190//190 192//192
f 52//52 190//190 193//193
f 53//53 190//190 52//52
f 194//194 190//190 53//53
f 194//194 195//195 190//190
f 196//196 195//195 194//194
f 197//197 195//195 196//196
f 198//198 195//195 197//197
f 198//198 199//199 195//195
f 198//198 200//200 199//199
f 200//200 14//14 12//12
f 14//14 200//200 198//198
f 200//200 201//201 202//202
f 201//201 200//200 12//12
f 203//203 204//204 205//205
f 206//206 205//205 204//204
f 207//207 206//206 204//204
f 208//208 206//206 207//207
f 209//209 208//208 207//207
f 210//210 208//208 209//209
f 211//211 210//210 209//209
f 212//212 210//210 211//211
f 213//213 212//212 211//211
f 214//214 212//212 213//213
f 215//215 214//214 213//213
f 216//216 214//214 215//215
f 217//217 216//216 215//215
f 218//218 216//216 217//217
f 219//219 218//218 217//217
f 220//220 218//218 219//219
f 221//221 220//220 219//219
f 222//222 220//220 221//221
f 223//223 222//222 221//221
f 224//224 222//222 223//223
f 225//225 224//224 223//223
f 226//226 224//224 225//225
f 70//70 95//95 71//71
f 95//95 70//70 75//75
f 227//227 228//228 229//229
f 227//227 97//97 228//228
f 227//227 71//71 97//97
f 227//227 230//230 71//71
f 227//227 231//231 230//230
f 227//227 232//232 231//231
f 227//227 233//233 232//232
f 227//227 234//234 233//233
f 227//227 235//235 234//234
f 227//227 236//236 235//235
f 227//227 237//237 236//236
f 238//238 239//239 240//240
f 241//241 239//239 238//238
f 242//242 239//239 241//241
f 243//243 239//239 242//242
f 237//237 239//239 243//243
f 239//239 237//237 227//227
f 244//244 229//229 228//228
f 245//245 229//229 244//244
f 246//246 229//229 245//245
f 247//247 229//229 246//246
f 248//248 229//229 247//247
f 249//249 229//229 248//248
f 250//250 229//229 249//249
f 251//251 229//229 250//250
f 252//252 229//229 251//251
f 154//154 253//253 152//152
f 239//239 154//154 240//240
f 252//252 254//254 229//229
f 255//255 254//254 252//252
f 256//256 254//254 255//255
f 257//257 254//254 256//256
f 253//253 254//254 257//257
f 154//154 254//254 253//253
f 254//254 154//154 239//239
f 97//97 258//258 228//228
f 97//97 259//259 258//258
f 96//96 259//259 97//97
f 98//98 259//259 96//96
f 98//98 260//260 259//259
f 100//100 260//260 98//98
f 100//100 261//261 260//260
f 162//162 261//261 100//100
f 162//162 262//262 261//261
f 118//118 262//262 162//162
f 118//118 263//263 262//262
f 174//174 263//263 118//118
f 133//133 263//263 174//174
f 133//133 264//264 263//263
f 140//140 264//264 133//133
f 140//140 265//265 264//264
f 148//148 265//265 140//140
f 148//148 266//266 265//265
f 150//150 266//266 148//148
f 150//150 267//267 266//266
f 150//150 268//268 267//267
f 268//268 152//152 253//253
f 152//152 268//268 150//150
f 95//95 97//97 71//71
f 94//94 97//97 95//95
f 74//74 97//97 94//94
f 97//97 74//74 77//77
f 269//269 71//71 230//230
f 269//269 69//69 71//71
f 270//270 69//69 269//269
f 270//270 72//72 69//69
f 271//271 72//72 270//270
f 271//271 73//73 72//72
f 272//272 73//73 271//271
f 272//272 22//22 73//73
f 273//273 22//22 272//272
f 273//273 31//31 22//22
f 274//274 31//31 273//273
f 274//274 40//40 31//31
f 275//275 40//40 274//274
f 275//275 48//48 40//40
f 276//276 48//48 275//275
f 276//276 58//58 48//48
f 276//276 64//64 58//58
f 277//277 64//64 276//276
f 277//277 68//68 64//64
f 278//278 68//68 277//277
f 278//278 151//151 68//68
f 279//279 151//151 278//278
f 279//279 153//153 151//151
f 153//153 240//240 154//154
f 240//240 153//153 279//279
f 280//280 281//281 282//282
f 280//280 283//283 281//281
f 284//284 283//283 280//280
f 284//284 285//285 283//283
f 285//285 284//284 286//286
f 282//282 281//281 287//287
f 285//285 286//286 288//288
f 287//287 289//289 282//282
f 290//290 289//289 287//287
f 288//288 289//289 290//290
f 288//288 291//291 289//289
f 291//291 288//288 286//286
f 292//292 293//293 294//294
f 292//292 295//295 293//293
f 296//296 295//295 292//292
f 296//296 297//297 295//295
f 296//296 298//298 297//297
f 299//299 298//298 296//296
f 299//299 300//300 298//298
f 301//301 300//300 299//299
f 301//301 302//302 300//300
f 301//301 303//303 302//302
f 304//304 303//303 301//301
f 304//304 305//305 303//303
f 306//306 305//305 304//304
f 306//306 307//307 305//305
f 306//306 308//308 307//307
f 306//306 309//309 308//308
f 310//310 309//309 306//306
f 310//310 311//311 309//309
f 310//310 312//312 311//311
f 313//313 312//312 310//310
f 313//313 314//314 312//312
f 313//313 315//315 314//314
f 316//316 315//315 313//313
f 315//315 316//316 317//317
f 318//318 319//319 320//320
f 321//321 319//319 318//318
f 321//321 322//322 319//319
f 321//321 323//323 322//322
f 292//292 323//323 321//321
f 294//294 323//323 292//292
f 324//324 323//323 294//294
f 325//325 323//323 324//324
f 325//325 326//326 323//323
f 327//327 326//326 325//325
f 328//328 326//326 327//327
f 328//328 329//329 326//326
f 330//330 329//329 328//328
f 330//330 331//331 329//329
f 332//332 331//331 330//330
f 333//333 331//331 332//332
f 333//333 334//334 331//331
f 335//335 334//334 333//333
f 335//335 336//336 334//334
f 337//337 336//336 335//335
f 338//338 336//336 337//337
f 339//339 336//336 338//338
f 339//339 312//312 336//336
f 312//312 339//339 311//311
f 340//340 341//341 342//342
f 343//343 342//342 341//341
f 344//344 343//343 341//341
f 345//345 343//343 344//344
f 346//346 345//345 344//344
f 347//347 345//345 346//346
f 348//348 347//347 346//346
f 349//349 347//347 348//348
f 350//350 349//349 348//348
f 351//351 349//349 350//350
f 352//352 351//351 350//350
f 353//353 351//351 352//352
f 354//354 353//353 352//352
f 355//355 353//353 354//354
f 356//356 355//355 354//354
f 357//357 355//355 356//356
f 358//358 357//357 356//356
f 359//359 357//357 358//358
f 360//360 359//359 358//358
f 361//361 359//359 360//360
f 362//362 361//361 360//360
f 363//363 361//361 362//362
f 364//364 365//365 366//366
f 364//364 367//367 365//365
f 368//368 367//367 364//364
f 368//368 369//369 367//367
f 368//368 370//370 369//369
f 371//371 370//370 368//368
f 371//371 372//372 370//370
f 373//373 372//372 371//371
f 373//373 374//374 372//372
f 373//373 375//375 374//374
f 376//376 375//375 373//373
f 376//376 377//377 375//375
f 378//378 377//377 376//376
f 378//378 379//379 377//377
f 378//378 380//380 379//379
f 378//378 381//381 380//380
f 382//382 381//381 378//378
f 382//382 383//383 381//381
f 382//382 384//384 383//383
f 385//385 384//384 382//382
f 385//385 386//386 384//384
f 385//385 387//387 386//386
f 388//388 387//387 385//385
f 387//387 388//388 389//389
f 390//390 391//391 392//392
f 393//393 391//391 390//390
f 393//393 394//394 391//391
f 393//393 395//395 394//394
f 364//364 395//395 393//393
f 366//366 395//395 364//364
f 396//396 395//395 366//366
f 397//397 395//395 396//396
f 397//397 398//398 395//395
f 399//399 398//398 397//397
f 400//400 398//398 399//399
f 400//400 401//401 398//398
f 402//402 401//401 400//400
f 402//402 403//403 401//401
f 404//404 403//403 402//402
f 405//405 403//403 404//404
f 405//405 406//406 403//403
f 407//407 406//406 405//405
f 407//407 408//408 406//406
f 409//409 408//408 407//407
f 410//410 408//408 409//409
f 411//411 408//408 410//410
f 411//411 384//384 408//408
f 384//384 411//411 383//383
f 412//412 413//413 414//414
f 412//412 415//415 413//413
f 416//416 415//415 412//412
f 416//416 417//417 415//415
f 416//416 418//418 417//417
f 419//419 418//418 416//416
f 419//419 420//420 418//418
f 421//421 420//420 419//419
f 421//421 422//422 420//420
f 421//421 423//423 422//422
f 424//424 423//423 421//421
f 424//424 425//425 423//423
f 426//426 425//425 424//424
f 426//426 427//427 425//425
f 426//426 428//428 427//427
f 426//426 429//429 428//428
f 430//430 429//429 426//426
f 430//430 431//431 429//429
f 430//430 432//432 431//431
f 433//433 432//432 430//430
f 433//433 434//434 432//432
f 433//433 435//435 434//434
f 436//436 435//435 433//433
f 435//435 436//436 437//437
f 438//438 439//439 440//440
f 441//441 439//439 438//438
f 441//441 442//442 439//439
f 441//441 443//443 442//442
f 412//412 443//443 441//441
f 414//414 443//443 412//412
f 444//444 443//443 414//414
f 445//445 443//443 444//444
f 445//445 446//446 443//443
f 447//447 446//446 445//445
f 448//448 446//446 447//447
f 448//448 449//449 446//446
f 450//450 449//449 448//448
f 450//450 451//451 449//449
f 452//452 451//451 450//450
f 453//453 451//451 452//452
f 453//453 454//454 451//451
f 455//455 454//454 453//453
f 455//455 456//456 454//454
f 457//457 456//456 455//455
f 458//458 456//456 457//457
f 459//459 456//456 458//458
f 459//459 432//432 456//456
f 432//432 459//459 431//431
f 460//460 461//461 462//462
f 460//460 463//463 461//461
f 460//460 464//464 463//463
f 460//460 465//465 464//464
f 460//460 466//466 465//465
f 460//460 467//467 466//466
f 460//460 468//468 467//467
f 460//460 469//469 468//468
f 460//460 470//470 469//469
f 460//460 471//471 470//470
f 471//471 460//460 472//472
f 473//473 280//280 474//474
f 475//475 280//280 473//473
f 475//475 284//284 280//280
f 476//476 284//284 475//475
f 476//476 286//286 284//284
f 477//477 286//286 476//476
f 478//478 286//286 477//477
f 479//479 286//286 478//478
f 286//286 479//479 480//480
f 481//481 482//482 483//483
f 484//484 482//482 481//481
f 485//485 482//482 484//484
f 474//474 482//482 485//485
f 280//280 482//482 474//474
f 482//482 280//280 282//282
f 286//286 426//426 291//291
f 286//286 430//430 426//426
f 286//286 433//433 430//430
f 286//286 436//436 433//433
f 436//436 480//480 437//437
f 480//480 436//436 286//286
f 482//482 320//320 460//460
f 482//482 318//318 320//320
f 482//482 392//392 318//318
f 482//482 390//390 392//392
f 482//482 440//440 390//390
f 482//482 438//438 440//440
f 482//482 441//441 438//438
f 482//482 412//412 441//441
f 482//482 416//416 412//412
f 282//282 416//416 482//482
f 289//289 416//416 282//282
f 289//289 419//419 416//416
f 289//289 421//421 419//419
f 289//289 424//424 421//421
f 291//291 424//424 289//289
f 424//424 291//291 426//426
f 319//319 460//460 320//320
f 322//322 460//460 319//319
f 323//323 460//460 322//322
f 326//326 460//460 323//323
f 329//329 460//460 326//326
f 331//331 460//460 329//329
f 334//334 460//460 331//331
f 336//336 460//460 334//334
f 312//312 460//460 336//336
f 389//389 317//317 387//387
f 437//437 389//389 435//435
f 437//437 317//317 389//389
f 480//480 317//317 437//437
f 312//312 472//472 460//460
f 314//314 472//472 312//312
f 315//315 472//472 314//314
f 317//317 472//472 315//315
f 472//472 317//317 480//480
f 391//391 318//318 392//392
f 391//391 321//321 318//318
f 394//394 321//321 391//391
f 394//394 292//292 321//321
f 395//395 292//292 394//394
f 395//395 296//296 292//292
f 398//398 296//296 395//395
f 398//398 299//299 296//296
f 401//401 299//299 398//398
f 401//401 301//301 299//299
f 403//403 301//301 401//401
f 403//403 304//304 301//301
f 406//406 304//304 403//403
f 406//406 306//306 304//304
f 408//408 306//306 406//406
f 408//408 310//310 306//306
f 384//384 310//310 408//408
f 384//384 313//313 310//310
f 386//386 313//313 384//384
f 386//386 316//316 313//313
f 386//386 317//317 316//316
f 317//317 386//386 387//387
f 439//439 390//390 440//440
f 439//439 393//393 390//390
f 442//442 393//393 439//439
f 442//442 364//364 393//393
f 443//443 364//364 442//442
f 443//443 368//368 364//364
f 446//446 368//368 443//443
f 446//446 371//371 368//368
f 449//449 371//371 446//446
f 449//449 373//373 371//371
f 451//451 373//373 449//449
f 451//451 376//376 373//373
f 454//454 376//376 451//451
f 454//454 378//378 376//376
f 456//456 378//378 454//454
f 456//456 382//382 378//378
f 432//432 382//382 456//456
f 432//432 385//385 382//382
f 434//434 385//385 432//432
f 434//434 388//388 385//385
f 434//434 389//389 388//388
f 389//389 434//434 435//435
f 235//235 233//233 234//234
f 235//235 486//486 233//233
f 236//236 486//486 235//235
f 237//237 486//486 236//236
f 486//486 237//237 243//243
f 243//243 277//277 486//486
f 242//242 277//277 243//243
f 242//242 278//278 277//277
f 241//241 278//278 242//242
f 241//241 279//279 278//278
f 238//238 279//279 241//241
f 279//279 238//238 240//240
f 231//231 269//269 230//230
f 231//231 270//270 269//269
f 232//232 270//270 231//231
f 232//232 271//271 270//270
f 233//233 271//271 232//232
f 233//233 272//272 271//271
f 272//272 233//233 486//486
f 272//272 274//274 273//273
f 486//486 274//274 272//272
f 486//486 275//275 274//274
f 486//486 276//276 275//275
f 276//276 486//486 277//277
f 263//263 251//251 250//250
f 264//264 251//251 263//263
f 264//264 252//252 251//251
f 265//265 252//252 264//264
f 265//265 255//255 252//252
f 266//266 255//255 265//265
f 266//266 256//256 255//255
f 267//267 256//256 266//266
f 267//267 257//257 256//256
f 268//268 257//257 267//267
f 257//257 268//268 253//253
f 258//258 244//244 228//228
f 258//258 245//245 244//244
f 259//259 245//245 258//258
f 259//259 246//246 245//245
f 260//260 246//246 259//259
f 260//260 247//247 246//246
f 261//261 247//247 260//260
f 261//261 248//248 247//247
f 262//262 248//248 261//261
f 262//262 249//249 248//248
f 263//263 249//249 262//262
f 249//249 263//263 250//250
f 23//23 81//81 24//24
f 25//25 81//81 23//23
f 25//25 82//82 81//81
f 26//26 82//82 25//25
f 26//26 83//83 82//82
f 27//27 83//83 26//26
f 27//27 85//85 83//83
f 28//28 85//85 27//27
f 28//28 86//86 85//85
f 29//29 86//86 28//28
f 29//29 87//87 86//86
f 30//30 87//87 29//29
f 30//30 88//88 87//87
f 32//32 88//88 30//30
f 32//32 90//90 88//88
f 33//33 90//90 32//32
f 33//33 91//91 90//90
f 34//34 91//91 33//33
f 34//34 92//92 91//91
f 35//35 92//92 34//34
f 35//35 93//93 92//92
f 93//93 35//35 36//36
f 39//39 181//181 38//38
f 41//41 181//181 39//39
f 41//41 182//182 181//181
f 42//42 182//182 41//41
f 42//42 183//183 182//182
f 43//43 183//183 42//42
f 43//43 184//184 183//183
f 44//44 184//184 43//43
f 44//44 185//185 184//184
f 45//45 185//185 44//44
f 45//45 187//187 185//185
f 46//46 187//187 45//45
f 46//46 188//188 187//187
f 47//47 188//188 46//46
f 47//47 189//189 188//188
f 49//49 189//189 47//47
f 49//49 191//191 189//189
f 50//50 191//191 49//49
f 50//50 192//192 191//191
f 51//51 192//192 50//50
f 51//51 193//193 192//192
f 193//193 51//51 52//52
f 54//54 194//194 53//53
f 55//55 194//194 54//54
f 55//55 196//196 194//194
f 56//56 196//196 55//55
f 56//56 197//197 196//196
f 57//57 197//197 56//56
f 57//57 198//198 197//197
f 59//59 198//198 57//57
f 59//59 14//14 198//198
f 60//60 14//14 59//59
f 60//60 15//15 14//14
f 61//61 15//15 60//60
f 61//61 17//17 15//15
f 62//62 17//17 61//61
f 62//62 21//21 17//17
f 63//63 21//21 62//62
f 63//63 146//146 21//21
f 65//65 146//146 63//63
f 65//65 147//147 146//146
f 66//66 147//147 65//65
f 66//66 149//149 147//147
f 149//149 66//66 67//67
f 102//102 157//157 101//101
f 103//103 157//157 102//102
f 103//103 158//158 157//157
f 105//105 158//158 103//103
f 105//105 159//159 158//158
f 106//106 159//159 105//105
f 106//106 160//160 159//159
f 107//107 160//160 106//106
f 107//107 161//161 160//160
f 109//109 161//161 107//107
f 109//109 163//163 161//161
f 110//110 163//163 109//109
f 110//110 164//164 163//163
f 111//111 164//164 110//110
f 111//111 165//165 164//164
f 112//112 165//165 111//111
f 112//112 166//166 165//165
f 113//113 166//166 112//112
f 113//113 167//167 166//166
f 115//115 167//167 113//113
f 115//115 168//168 167//167
f 168//168 115//115 116//116
f 119//119 169//169 117//117
f 120//120 169//169 119//119
f 120//120 170//170 169//169
f 121//121 170//170 120//120
f 121//121 171//171 170//170
f 123//123 171//171 121//121
f 123//123 172//172 171//171
f 124//124 172//172 123//123
f 124//124 173//173 172//172
f 125//125 173//173 124//124
f 125//125 175//175 173//173
f 126//126 175//175 125//125
f 126//126 176//176 175//175
f 128//128 176//176 126//126
f 128//128 177//177 176//176
f 129//129 177//177 128//128
f 129//129 178//178 177//177
f 130//130 178//178 129//129
f 130//130 179//179 178//178
f 131//131 179//179 130//130
f 131//131 180//180 179//179
f 180//180 131//131 132//132
f 2//2 134//134 3//3
f 4//4 134//134 2//2
f 4//4 135//135 134//134
f 5//5 135//135 4//4
f 5//5 136//136 135//135
f 6//6 136//136 5//5
f 6//6 137//137 136//136
f 8//8 137//137 6//6
f 8//8 138//138 137//137
f 9//9 138//138 8//8
f 9//9 139//139 138//138
f 11//11 139//139 9//9
f 11//11 141//141 139//139
f 13//13 141//141 11//11
f 13//13 142//142 141//141
f 16//16 142//142 13//13
f 16//16 143//143 142//142
f 18//18 143//143 16//16
f 18//18 144//144 143//143
f 19//19 144//144 18//18
f 19//19 145//145 144//144
f 145//145 19//19 20//20
f 487//487 488//488 489//489
f 490//490 489//489 488//488
f 491//491 490//490 488//488
f 492//492 490//490 491//491
f 493//493 492//492 491//491
f 494//494 490//490 492//492
f 495//495 490//490 494//494
f 496//496 497//497 487//487
f 488//488 487//487 497//497
f 493//493 497//497 496//496
f 498//498 493//493 496//496
f 492//492 493//493 498//498
f 495//495 498//498 496//496
f 490//490 495//495 496//496
f 499//499 500//500 487//487
f 496//496 487//487 500//500
f 488//488 497//497 491//491
f 493//493 491//491 497//497
f 285//285 290//290 287//287
f 290//290 285//285 288//288
f 283//283 287//287 281//281
f 287//287 283//283 285//285
f 12//12 10//10 201//201
f 7//7 201//201 10//10
f 156//156 201//201 7//7
f 1//1 156//156 7//7
f 127//127 156//156 1//1
f 122//122 156//156 127//127
f 114//114 156//156 122//122
f 108//108 156//156 114//114
f 104//104 156//156 108//108
f 99//99 156//156 104//104
f 76//76 156//156 99//99
f 99//99 156//156 76//76
f 104//104 156//156 99//99
f 108//108 156//156 104//104
f 114//114 156//156 108//108
f 122//122 156//156 114//114
f 127//127 156//156 122//122
f 1//1 156//156 127//127
f 7//7 156//156 1//1
f 7//7 201//201 156//156
f 10//10 201//201 7//7
f 201//201 10//10 12//12
f 202//202 201//201 501//501
f 156//156 501//501 201//201
f 502//502 501//501 156//156
f 155//155 502//502 156//156
f 156//156 502//502 155//155
f 156//156 501//501 502//502
f 201//201 501//501 156//156
f 501//501 201//201 202//202
f 340//340 342//342 503//503
f 504//504 503//503 342//342
f 343//343 504//504 342//342
f 345//345 504//504 343//343
f 505//505 504//504 345//345
f 347//347 505//505 345//345
f 349//349 505//505 347//347
f 506//506 505//505 349//349
f 351//351 506//506 349//349
f 507//507 506//506 351//351
f 353//353 507//507 351//351
f 355//355 507//507 353//353
f 508//508 507//507 355//355
f 357//357 508//508 355//355
f 509//509 508//508 357//357
f 359//359 509//509 357//357
f 361//361 509//509 359//359
f 363//363 509//509 361//361
f 510//510 509//509 363//363
f 511//511 510//510 363//363
f 512//512 510//510 511//511
f 513//513 510//510 512//512
f 514//514 513//513 512//512
f 515//515 513//513 514//514
f 516//516 517//517 518//518
f 519//519 518//518 517//517
f 520//520 519//519 517//517
f 503//503 519//519 520//520
f 521//521 503//503 520//520
f 340//340 503//503 521//521
f 341//341 340//340 521//521
f 522//522 341//341 521//521
f 344//344 341//341 522//522
f 346//346 344//344 522//522
f 348//348 346//346 522//522
f 523//523 348//348 522//522
f 350//350 348//348 523//523
f 502//502 350//350 523//523
f 352//352 350//350 502//502
f 354//354 352//352 502//502
f 524//524 354//354 502//502
f 356//356 354//354 524//524
f 525//525 356//356 524//524
f 358//358 356//356 525//525
f 360//360 358//358 525//525
f 511//511 360//360 525//525
f 362//362 360//360 511//511
f 363//363 362//362 511//511
f 203//203 205//205 526//526
f 527//527 526//526 205//205
f 206//206 527//527 205//205
f 208//208 527//527 206//206
f 528//528 527//527 208//208
f 210//210 528//528 208//208
f 212//212 528//528 210//210
f 529//529 528//528 212//212
f 214//214 529//529 212//212
f 530//530 529//529 214//214
f 216//216 530//530 214//214
f 218//218 530//530 216//216
f 531//531 530//530 218//218
f 220//220 531//531 218//218
f 532//532 531//531 220//220
f 222//222 532//532 220//220
f 224//224 532//532 222//222
f 226//226 532//532 224//224
f 533//533 532//532 226//226
f 534//534 533//533 226//226
f 535//535 533//533 534//534
f 536//536 533//533 535//535
f 537//537 536//536 535//535
f 538//538 536//536 537//537
f 539//539 540//540 541//541
f 542//542 541//541 540//540
f 543//543 542//542 540//540
f 526//526 542//542 543//543
f 544//544 526//526 543//543
f 203//203 526//526 544//544
f 204//204 203//203 544//544
f 545//545 204//204 544//544
f 207//207 204//204 545//545
f 209//209 207//207 545//545
f 211//211 209//209 545//545
f 546//546 211//211 545//545
f 213//213 211//211 546//546
f 501//501 213//213 546//546
f 215//215 213//213 501//501
f 217//217 215//215 501//501
f 547//547 217//217 501//501
f 219//219 217//217 547//547
f 548//548 219//219 547//547
f 221//221 219//219 548//548
f 223//223 221//221 548//548
f 534//534 223//223 548//548
f 225//225 223//223 534//534
f 226//226 225//225 534//534
f 549//549 500//500 550//550
f 500//500 549//549 499//499
f 511//511 362//362 363//363
f 511//511 360//360 362//362
f 525//525 360//360 511//511
f 525//525 358//358 360//360
f 525//525 356//356 358//358
f 524//524 356//356 525//525
f 524//524 354//354 356//356
f 502//502 354//354 524//524
f 502//502 352//352 354//354
f 502//502 350//350 352//352
f 523//523 350//350 502//502
f 523//523 348//348 350//350
f 522//522 348//348 523//523
f 522//522 346//346 348//348
f 522//522 344//344 346//346
f 522//522 341//341 344//344
f 521//521 341//341 522//522
f 521//521 340//340 341//341
f 521//521 503//503 340//340
f 520//520 503//503 521//521
f 520//520 519//519 503//503
f 517//517 519//519 520//520
f 517//517 518//518 519//519
f 518//518 517//517 516//516
f 514//514 513//513 515//515
f 512//512 513//513 514//514
f 512//512 510//510 513//513
f 511//511 510//510 512//512
f 363//363 510//510 511//511
f 363//363 509//509 510//510
f 361//361 509//509 363//363
f 359//359 509//509 361//361
f 357//357 509//509 359//359
f 357//357 508//508 509//509
f 355//355 508//508 357//357
f 355//355 507//507 508//508
f 353//353 507//507 355//355
f 351//351 507//507 353//353
f 351//351 506//506 507//507
f 349//349 506//506 351//351
f 349//349 505//505 506//506
f 347//347 505//505 349//349
f 345//345 505//505 347//347
f 345//345 504//504 505//505
f 343//343 504//504 345//345
f 342//342 504//504 343//343
f 342//342 503//503 504//504
f 503//503 342//342 340//340
f 534//534 225//225 226//226
f 534//534 223//223 225//225
f 548//548 223//223 534//534
f 548//548 221//221 223//223
f 548//548 219//219 221//221
f 547//547 219//219 548//548
f 547//547 217//217 219//219
f 501//501 217//217 547//547
f 501//501 215//215 217//217
f 501//501 213//213 215//215
f 546//546 213//213 501//501
f 546//546 211//211 213//213
f 545//545 211//211 546//546
f 545//545 209//209 211//211
f 545//545 207//207 209//209
f 545//545 204//204 207//207
f 544//544 204//204 545//545
f 544//544 203//203 204//204
f 544//544 526//526 203//203
f 543//543 526//526 544//544
f 543//543 542//542 526//526
f 540//540 542//542 543//543
f 540//540 541//541 542//542
f 541//541 540//540 539//539
f 537//537 536//536 538//538
f 535//535 536//536 537//537
f 535//535 533//533 536//536
f 534//534 533//533 535//535
f 226//226 533//533 534//534
f 226//226 532//532 533//533
f 224//224 532//532 226//226
f 222//222 532//532 224//224
f 220//220 532//532 222//222
f 220//220 531//531 532//532
f 218//218 531//531 220//220
f 218//218 530//530 531//531
f 216//216 530//530 218//218
f 214//214 530//530 216//216
f 214//214 529//529 530//530
f 212//212 529//529 214//214
f 212//212 528//528 529//529
f 210//210 528//528 212//212
f 208//208 528//528 210//210
f 208//208 527//527 528//528
f 206//206 527//527 208//208
f 205//205 527//527 206//206
f 205//205 526//526 527//527
f 526//526 205//205 203//203
f 362//362 361//361 363//363
f 360//360 361//361 362//362
f 360//360 359//359 361//361
f 358//358 359//359 360//360
f 358//358 357//357 359//359
f 356//356 357//357 358//358
f 356//356 355//355 357//357
f 354//354 355//355 356//356
f 354//354 353//353 355//355
f 352//352 353//353 354//354
f 352//352 351//351 353//353
f 350//350 351//351 352//352
f 350//350 349//349 351//351
f 348//348 349//349 350//350
f 348//348 347//347 349//349
f 346//346 347//347 348//348
f 346//346 345//345 347//347
f 344//344 345//345 346//346
f 344//344 343//343 345//345
f 341//341 343//343 344//344
f 341//341 342//342 343//343
f 342//342 341//341 340//340
f 225//225 224//224 226//226
f 223//223 224//224 225//225
f 223//223 222//222 224//224
f 221//221 222//222 223//223
f 221//221 220//220 222//222
f 219//219 220//220 221//221
f 219//219 218//218 220//220
f 217//217 218//218 219//219
f 217//217 216//216 218//218
f 215//215 216//216 217//217
f 215//215 214//214 216//216
f 213//213 214//214 215//215
f 213//213 212//212 214//214
f 211//211 212//212 213//213
f 211//211 210//210 212//212
f 209//209 210//210 211//211
f 209//209 208//208 210//210
f 207//207 208//208 209//209
f 207//207 206//206 208//208
f 204//204 206//206 207//207
f 204//204 205//205 206//206
f 205//205 204//204 203//203
f 498//498 494//494 495//495
f 494//494 498//498 492//492
f 497//497 491//491 493//493
f 491//491 497//497 488//488
f 549//549 487//487 499//499
f 487//487 549//549 489//489
f 490//490 500//500 496//496
f 500//500 490//490 550//550
f 460//460 227//227 482//482
f 462//462 227//227 460//460
f 461//461 227//227 462//462
f 463//463 227//227 461//461
f 464//464 227//227 463//463
f 465//465 227//227 464//464
f 466//466 227//227 465//465
f 467//467 227//227 466//466
f 468//468 227//227 467//467
f 468//468 239//239 227//227
f 469//469 239//239 468//468
f 470//470 239//239 469//469
f 471//471 239//239 470//470
f 239//239 471//471 472//472
f 551//551 552//552 553//553
f 229//229 554//554 555//555
f 229//229 556//556 554//554
f 229//229 557//557 556//556
f 229//229 558//558 557//557
f 229//229 559//559 558//558
f 229//229 560//560 559//559
f 560//560 561//561 562//562
f 560//560 563//563 561//561
f 560//560 564//564 563//563
f 560//560 565//565 564//564
f 565//565 254//254 566//566
f 560//560 254//254 565//565
f 254//254 560//560 229//229
f 489//489 227//227 490//490
f 489//489 482//482 227//227
f 489//489 483//483 482//482
f 489//489 481//481 483//483
f 489//489 484//484 481//481
f 489//489 485//485 484//484
f 489//489 474//474 485//485
f 489//489 473//473 474//474
f 489//489 475//475 473//473
f 480//480 239//239 472//472
f 239//239 549//549 254//254
f 480//480 549//549 239//239
f 479//479 549//549 480//480
f 478//478 549//549 479//479
f 477//477 549//549 478//478
f 476//476 549//549 477//477
f 475//475 549//549 476//476
f 549//549 475//475 489//489
f 229//229 490//490 227//227
f 555//555 490//490 229//229
f 567//567 490//490 555//555
f 568//568 490//490 567//567
f 569//569 490//490 568//568
f 570//570 490//490 569//569
f 571//571 490//490 570//570
f 572//572 490//490 571//571
f 553//553 490//490 572//572
f 573//573 553//553 552//552
f 574//574 553//553 573//573
f 575//575 553//553 574//574
f 254//254 575//575 566//566
f 254//254 553//553 575//575
f 553//553 550//550 490//490
f 254//254 550//550 553//553
f 550//550 254//254 549//549
f 558//558 559//559 576//576
f 496//496 495//495 490//490
f 496//496 498//498 495//495
f 498//498 493//493 492//492
f 496//496 493//493 498//498
f 496//496 497//497 493//493
f 497//497 487//487 488//488
f 487//487 497//497 496//496
f 494//494 490//490 495//495
f 492//492 490//490 494//494
f 491//491 492//492 493//493
f 491//491 490//490 492//492
f 488//488 490//490 491//491
f 488//488 489//489 490//490
f 489//489 488//488 487//487
f 500//500 487//487 496//496
f 487//487 500//500 499//499
f 562//562 552//552 551//551
f 561//561 552//552 562//562
f 561//561 573//573 552//552
f 563//563 573//573 561//561
f 563//563 574//574 573//573
f 564//564 574//574 563//563
f 564//564 575//575 574//574
f 565//565 575//575 564//564
f 575//575 565//565 566//566
f 559//559 577//577 576//576
f 559//559 578//578 577//577
f 559//559 579//579 578//578
f 560//560 579//579 559//559
f 579//579 560//560 562//562
f 554//554 567//567 555//555
f 554//554 568//568 567//567
f 556//556 568//568 554//554
f 557//557 568//568 556//556
f 557//557 569//569 568//568
f 557//557 570//570 569//569
f 558//558 570//570 557//557
f 576//576 570//570 558//558
f 570//570 576//576 571//571
f 576//576 580//580 571//571
f 577//577 580//580 576//576
f 578//578 580//580 577//577
f 578//578 581//581 580//580
f 578//578 582//582 581//581
f 579//579 582//582 578//578
f 562//562 582//582 579//579
f 582//582 562//562 551//551
f 580//580 572//572 571//571
f 581//581 572//572 580//580
f 582//582 572//572 581//581
f 551//551 572//572 582//582
f 572//572 551//551 553//553
f 413//413 444//444 414//414
f 415//415 444//444 413//413
f 415//415 445//445 444//444
f 415//415 447//447 445//445
f 417//417 447//447 415//415
f 417//417 448//448 447//447
f 418//418 448//448 417//417
f 418//418 450//450 448//448
f 420//420 450//450 418//418
f 422//422 450//450 420//420
f 422//422 452//452 450//450
f 422//422 453//453 452//452
f 423//423 453//453 422//422
f 423//423 455//455 453//453
f 425//425 455//455 423//423
f 425//425 457//457 455//455
f 427//427 457//457 425//425
f 428//428 457//457 427//427
f 428//428 458//458 457//457
f 429//429 458//458 428//428
f 429//429 459//459 458//458
f 459//459 429//429 431//431
f 365//365 396//396 366//366
f 367//367 396//396 365//365
f 367//367 397//397 396//396
f 367//367 399//399 397//397
f 369//369 399//399 367//367
f 369//369 400//400 399//399
f 370//370 400//400 369//369
f 370//370 402//402 400//400
f 372//372 402//402 370//370
f 374//374 402//402 372//372
f 374//374 404//404 402//402
f 374//374 405//405 404//404
f 375//375 405//405 374//374
f 375//375 407//407 405//405
f 377//377 407//407 375//375
f 377//377 409//409 407//407
f 379//379 409//409 377//377
f 380//380 409//409 379//379
f 380//380 410//410 409//409
f 381//381 410//410 380//380
f 381//381 411//411 410//410
f 411//411 381//381 383//383
f 293//293 324//324 294//294
f 295//295 324//324 293//293
f 295//295 325//325 324//324
f 295//295 327//327 325//325
f 297//297 327//327 295//295
f 297//297 328//328 327//327
f 298//298 328//328 297//297
f 298//298 330//330 328//328
f 300//300 330//330 298//298
f 302//302 330//330 300//300
f 302//302 332//332 330//330
f 302//302 333//333 332//332
f 303//303 333//333 302//302
f 303//303 335//335 333//333
f 305//305 335//335 303//303
f 305//305 337//337 335//335
f 307//307 337//337 305//305
f 308//308 337//337 307//307
f 308//308 338//338 337//337
f 309//309 338//338 308//308
f 309//309 339//339 338//338
f 339//339 309//309 311//311