# https://github.com/mikedh/trimesh
v -0.00081300 0.08112500 0.00317400
v 0.00003900 0.08463100 0.00328700
v 0.00003900 0.08112500 0.00328700
v -0.00081300 0.08463100 0.00317400
v -0.00160800 0.08463100 0.00284500
v -0.00160800 0.08112500 0.00284500
v 0.00089100 0.08463100 0.00317400
v 0.00089100 0.08112500 0.00317400
v -0.00229000 0.08463100 0.00232200
v -0.00229000 0.08112500 0.00232200
v 0.00168600 0.08463100 0.00284500
v 0.00168600 0.08112500 0.00284500
v -0.00281300 0.08463100 0.00164000
v -0.00281300 0.08112500 0.00164000
v 0.00236800 0.08112500 0.00232200
v 0.00236800 0.08463100 0.00232200
v -0.00314200 0.08112500 0.00084500
v -0.00314200 0.08463100 0.00084500
v 0.00289300 0.08112500 0.00164000
v 0.00289300 0.08463100 0.00164000
v -0.00325500 0.08112500 -0.00000700
v -0.00325500 0.08463100 -0.00000700
v 0.00322200 0.08463100 0.00084500
v 0.00322200 0.08112500 0.00084500
v -0.00314200 0.08112500 -0.00086000
v -0.00314200 0.08463100 -0.00086000
v 0.00333300 0.08463100 -0.00000700
v 0.00333300 0.08112500 -0.00000700
v -0.00281300 0.08463100 -0.00165400
v -0.00281300 0.08112500 -0.00165400
v 0.00322200 0.08463100 -0.00086000
v 0.00322200 0.08112500 -0.00086000
v -0.00229000 0.08463100 -0.00233600
v -0.00229000 0.08112500 -0.00233600
v 0.00289300 0.08463100 -0.00165400
v 0.00289300 0.08112500 -0.00165400
v -0.00160800 0.08463100 -0.00286000
v -0.00160800 0.08112500 -0.00286000
v 0.00236800 0.08112500 -0.00233600
v 0.00236800 0.08463100 -0.00233600
v -0.00081300 0.08463100 -0.00318900
v -0.00081300 0.08112500 -0.00318900
v 0.00168600 0.08112500 -0.00286000
v 0.00168600 0.08463100 -0.00286000
v 0.00003900 0.08112500 -0.00330100
v 0.00003900 0.08463100 -0.00330100
v 0.00089100 0.08463100 -0.00318900
v 0.00089100 0.08112500 -0.00318900
v -0.00081300 0.04966900 -0.00318900
v 0.00003900 0.04966900 -0.00330100
v -0.00160800 0.04966900 -0.00286000
v 0.00089100 0.04966900 -0.00318900
v -0.00229000 0.04966900 -0.00233600
v 0.00168600 0.04966900 -0.00286000
v -0.00281300 0.04966900 -0.00165400
v 0.00236800 0.04966900 -0.00233600
v -0.00314200 0.04966900 -0.00086000
v 0.00289300 0.04966900 -0.00165400
v -0.00325500 0.04966900 -0.00000700
v 0.00322200 0.04966900 -0.00086000
v -0.00314200 0.04966900 0.00084500
v 0.00333300 0.04966900 -0.00000700
v -0.00281300 0.04966900 0.00164000
v 0.00322200 0.04966900 0.00084500
v -0.00229000 0.04966900 0.00232200
v 0.00289300 0.04966900 0.00164000
v -0.00160800 0.04966900 0.00284500
v 0.00236800 0.04966900 0.00232200
v -0.00081300 0.04966900 0.00317400
v 0.00168600 0.04966900 0.00284500
v 0.00003900 0.04966900 0.00328700
v 0.00089100 0.04966900 0.00317400
v -0.00713900 0.04966900 0.00269500
v -0.00554400 0.04658800 0.00378800
v -0.00554400 0.04966900 0.00378800
v -0.00713900 0.04658800 0.00269500
v -0.00378600 0.04658800 0.00459300
v -0.00378600 0.04966900 0.00459300
v -0.00191600 0.04658800 0.00508500
v -0.00191600 0.04966900 0.00508500
v 0.00001100 0.04658800 0.00525100
v 0.00001100 0.04966900 0.00525100
v 0.00193900 0.04658800 0.00508500
v 0.00193900 0.04966900 0.00508500
v 0.00380700 0.04658800 0.00459300
v 0.00380700 0.04966900 0.00459300
v 0.00556600 0.04658800 0.00378800
v 0.00556600 0.04966900 0.00378800
v 0.00716200 0.04658800 0.00269500
v 0.00716200 0.04966900 0.00269500
v -0.00852300 0.04966900 0.00134500
v -0.00852300 0.04658800 0.00134500
v 0.00001100 0.04658800 0.00232900
v -0.00083000 0.04658800 0.00230800
v -0.00167200 0.04658800 0.00225100
v -0.00250900 0.04658800 0.00215800
v -0.00334000 0.04658800 0.00203100
v -0.00416700 0.04658800 0.00186800
v -0.00498700 0.04658800 0.00167000
v -0.00579600 0.04658800 0.00143900
v -0.00659500 0.04658800 0.00117300
v -0.00738200 0.04658800 0.00087300
v -0.00815500 0.04658800 0.00054100
v -0.00891400 0.04658800 0.00017600
v -0.00965800 0.04658800 -0.00022100
v 0.00085300 0.04658800 0.00230800
v 0.00169400 0.04658800 0.00225100
v 0.00252900 0.04658800 0.00215800
v 0.00336200 0.04658800 0.00203100
v 0.00418900 0.04658800 0.00186800
v 0.00500700 0.04658800 0.00167000
v 0.00581700 0.04658800 0.00143900
v 0.00854500 0.04658800 0.00134500
v 0.00661600 0.04658800 0.00117300
v 0.00740400 0.04658800 0.00087300
v 0.00817800 0.04658800 0.00054100
v 0.00893600 0.04658800 0.00017600
v 0.00968000 0.04658800 -0.00022100
v 0.00854500 0.04966900 0.00134500
v -0.00965800 0.04966900 -0.00022100
v 0.00968000 0.04966900 -0.00022100
v 0.00698100 0.04658800 -0.00273800
v 0.00842600 0.04966900 -0.00158100
v 0.00842600 0.04658800 -0.00158100
v 0.00698100 0.04966900 -0.00273800
v 0.00538100 0.04658800 -0.00366600
v 0.00538100 0.04966900 -0.00366600
v 0.00366000 0.04658800 -0.00434400
v 0.00366000 0.04966900 -0.00434400
v 0.00185600 0.04658800 -0.00475700
v 0.00185600 0.04966900 -0.00475700
v 0.00001100 0.04658800 -0.00489600
v 0.00001100 0.04966900 -0.00489600
v -0.00183300 0.04658800 -0.00475700
v -0.00183300 0.04966900 -0.00475700
v -0.00363700 0.04658800 -0.00434400
v -0.00363700 0.04966900 -0.00434400
v -0.00535900 0.04658800 -0.00366600
v -0.00535900 0.04966900 -0.00366600
v -0.00695900 0.04658800 -0.00273800
v -0.00695900 0.04966900 -0.00273800
v -0.00840400 0.04658800 -0.00158100
v -0.00840400 0.04966900 -0.00158100
v -0.00891400 0.04658800 -0.00061800
v -0.00815500 0.04658800 -0.00098200
v -0.00738200 0.04658800 -0.00131500
v -0.00659500 0.04658800 -0.00161400
v -0.00579600 0.04658800 -0.00188000
v -0.00498700 0.04658800 -0.00211200
v -0.00416700 0.04658800 -0.00231000
v -0.00334000 0.04658800 -0.00247300
v -0.00250900 0.04658800 -0.00260000
v -0.00167200 0.04658800 -0.00269300
v -0.00083000 0.04658800 -0.00275000
v 0.00001100 0.04658800 -0.00277100
v 0.00893600 0.04658800 -0.00061800
v 0.00817800 0.04658800 -0.00098200
v 0.00740400 0.04658800 -0.00131500
v 0.00661600 0.04658800 -0.00161400
v 0.00581700 0.04658800 -0.00188000
v 0.00500700 0.04658800 -0.00211200
v 0.00418900 0.04658800 -0.00231000
v 0.00336200 0.04658800 -0.00247300
v 0.00252900 0.04658800 -0.00260000
v 0.00169400 0.04658800 -0.00269300
v 0.00085300 0.04658800 -0.00275000
v 0.00984400 0.08463100 0.00382900
v 0.01178600 0.08463100 0.00195500
v 0.01338000 0.08463100 -0.00022100
v 0.01141400 0.08463100 -0.00167300
v 0.00929300 0.08463100 -0.00288800
v 0.00704700 0.08463100 -0.00385100
v 0.00254900 0.08463100 0.00714600
v -0.00282800 0.08463100 0.00714600
v -0.00014000 0.08463100 0.00737600
v 0.00515800 0.08463100 0.00646300
v -0.00543900 0.08463100 0.00646300
v 0.00761500 0.08463100 0.00534700
v -0.00789400 0.08463100 0.00534700
v -0.01012500 0.08463100 0.00382900
v -0.01206700 0.08463100 0.00195500
v -0.01366100 0.08463100 -0.00022100
v -0.01169500 0.08463100 -0.00167300
v -0.00957500 0.08463100 -0.00288800
v -0.00732900 0.08463100 -0.00385100
v 0.00470500 0.08463100 -0.00454700
v -0.00498700 0.08463100 -0.00454700
v 0.00230000 0.08463100 -0.00496900
v -0.00257900 0.08463100 -0.00496900
v -0.00014000 0.08463100 -0.00511000
v 0.01141400 0.08112500 -0.00167300
v 0.01338000 0.08112500 -0.00022100
v 0.00929300 0.08112500 -0.00288800
v 0.00704700 0.08112500 -0.00385100
v 0.00470500 0.08112500 -0.00454700
v 0.00230000 0.08112500 -0.00496900
v -0.00014000 0.08112500 -0.00511000
v -0.00257900 0.08112500 -0.00496900
v -0.00498700 0.08112500 -0.00454700
v -0.00732900 0.08112500 -0.00385100
v -0.00957500 0.08112500 -0.00288800
v -0.01169500 0.08112500 -0.00167300
v -0.01366100 0.08112500 -0.00022100
v -0.01206700 0.08112500 0.00195500
v -0.01012500 0.08112500 0.00382900
v -0.00789400 0.08112500 0.00534700
v -0.00543900 0.08112500 0.00646300
v -0.00282800 0.08112500 0.00714600
v -0.00014000 0.08112500 0.00737600
v 0.00254900 0.08112500 0.00714600
v 0.00515800 0.08112500 0.00646300
v 0.00761500 0.08112500 0.00534700
v 0.00984400 0.08112500 0.00382900
v 0.01178600 0.08112500 0.00195500
v -0.00659500 -0.05546600 -0.00161400
v -0.00579600 -0.05546600 -0.00188000
v -0.00738200 -0.05546600 -0.00131500
v -0.00891400 -0.05546600 -0.00061800
v -0.00815500 -0.05546600 -0.00098200
v -0.00498700 -0.05546600 -0.00211200
v -0.00650000 -0.05729700 -0.00161400
v -0.00570300 -0.05722900 -0.00188000
v -0.00728200 -0.05736300 -0.00131500
v -0.00880800 -0.05749200 -0.00061800
v -0.00805300 -0.05742800 -0.00098200
v -0.00965800 -0.05546600 -0.00022100
v -0.00627900 -0.05917900 -0.00161400
v -0.00548800 -0.05906000 -0.00188000
v -0.00416700 -0.05546600 -0.00231000
v -0.00489800 -0.05716100 -0.00211200
v -0.00705700 -0.05929500 -0.00131500
v -0.00857200 -0.05952200 -0.00061800
v -0.00782200 -0.05941000 -0.00098200
v -0.00954900 -0.05755500 -0.00022100
v -0.00891400 -0.05546600 0.00017600
v -0.00593700 -0.06104300 -0.00161400
v -0.00515700 -0.06087400 -0.00188000
v -0.00468900 -0.05894000 -0.00211200
v -0.00334000 -0.05546600 -0.00247300
v -0.00408200 -0.05709200 -0.00231000
v -0.00579600 -0.05546600 0.00143900
v -0.00659500 -0.05546600 0.00117300
v -0.00670600 -0.06120900 -0.00131500
v -0.00820200 -0.06153300 -0.00061800
v -0.00746200 -0.06137300 -0.00098200
v -0.00930500 -0.05963200 -0.00022100
v -0.00880800 -0.05749200 0.00017600
v -0.00815500 -0.05546600 0.00054100
v -0.00738200 -0.05546600 0.00087300
v -0.00547800 -0.06288100 -0.00161400
v -0.00470800 -0.06266200 -0.00188000
v -0.00436600 -0.06070300 -0.00211200
v -0.00388000 -0.05881900 -0.00231000
v -0.00250900 -0.05546600 -0.00260000
v -0.00325900 -0.05702200 -0.00247300
v -0.00650000 -0.05729700 0.00117300
v -0.00570300 -0.05722900 0.00143900
v -0.00498700 -0.05546600 0.00167000
v -0.00490000 -0.06468600 -0.00161400
v -0.00414700 -0.06441800 -0.00188000
v -0.00623400 -0.06309600 -0.00131500
v -0.00770700 -0.06351600 -0.00061800
v -0.00697800 -0.06330800 -0.00098200
v -0.00892900 -0.06169000 -0.00022100
v -0.00857200 -0.05952200 0.00017600
v -0.00805300 -0.05742800 0.00054100
v -0.00728200 -0.05736300 0.00087300
v -0.00393100 -0.06244100 -0.00211200
v -0.00356700 -0.06053000 -0.00231000
v -0.00306400 -0.05869700 -0.00247300
v -0.00167200 -0.05546600 -0.00269300
v -0.00243000 -0.05695200 -0.00260000
v -0.00627900 -0.05917900 0.00117300
v -0.00548800 -0.05906000 0.00143900
v -0.00489800 -0.05716100 0.00167000
v -0.00416700 -0.05546600 0.00186800
v -0.00083000 -0.05546600 -0.00275000
v 0.00001100 -0.05546600 -0.00277100
v -0.00338500 -0.06414700 -0.00211200
v -0.00420900 -0.06645000 -0.00161400
v -0.00347400 -0.06613500 -0.00188000
v -0.00564100 -0.06494900 -0.00131500
v -0.00708400 -0.06546300 -0.00061800
v -0.00637000 -0.06520800 -0.00098200
v -0.00842100 -0.06371900 -0.00022100
v -0.00820200 -0.06153300 0.00017600
v -0.00782200 -0.05941000 0.00054100
v -0.00705700 -0.05929500 0.00087300
v -0.00314400 -0.06221700 -0.00231000
v -0.00276000 -0.06035500 -0.00247300
v -0.00224100 -0.05857300 -0.00260000
v -0.00159700 -0.05688100 -0.00269300
v -0.00593700 -0.06104300 0.00117300
v -0.00515700 -0.06087400 0.00143900
v -0.00468900 -0.05894000 0.00167000
v -0.00408200 -0.05709200 0.00186800
v -0.00334000 -0.05546600 0.00203100
v -0.00076000 -0.05681000 -0.00275000
v 0.00001100 -0.05674500 -0.00276900
v 0.00085300 -0.05546600 -0.00275000
v -0.00273200 -0.06581500 -0.00211200
v -0.00301100 -0.06780400 -0.00188000
v -0.00261500 -0.06387300 -0.00231000
v -0.00493200 -0.06676100 -0.00131500
v -0.00633800 -0.06736500 -0.00061800
v -0.00564100 -0.06706600 -0.00098200
v -0.00778300 -0.06571100 -0.00022100
v -0.00770700 -0.06351600 0.00017600
v -0.00746200 -0.06137300 0.00054100
v -0.00670600 -0.06120900 0.00087300
v -0.00235000 -0.06199100 -0.00247300
v -0.00194600 -0.06017900 -0.00260000
v -0.00141200 -0.05844900 -0.00269300
v -0.00547800 -0.06288100 0.00117300
v -0.00470800 -0.06266200 0.00143900
v -0.00436600 -0.06070300 0.00167000
v -0.00388000 -0.05881900 0.00186800
v -0.00325900 -0.05702200 0.00203100
v -0.00250900 -0.05546600 0.00215800
v -0.00058400 -0.05832500 -0.00275000
v 0.00001100 -0.05823600 -0.00276500
v 0.00169400 -0.05546600 -0.00269300
v 0.00078300 -0.05681000 -0.00275000
v -0.00183700 -0.06359700 -0.00247300
v -0.00197100 -0.06743800 -0.00211200
v -0.00198000 -0.06549200 -0.00231000
v -0.00340400 -0.06816600 -0.00161400
v -0.00410500 -0.06852200 -0.00131500
v -0.00547100 -0.06921600 -0.00061800
v -0.00479600 -0.06887300 -0.00098200
v -0.00702000 -0.06765800 -0.00022100
v -0.00708400 -0.06546300 0.00017600
v -0.00697800 -0.06330800 0.00054100
v -0.00623400 -0.06309600 0.00087300
v -0.00490000 -0.06468600 0.00117300
v -0.00414700 -0.06441800 0.00143900
v -0.00155100 -0.06176300 -0.00260000
v -0.00113000 -0.06000200 -0.00269300
v -0.00393100 -0.06244100 0.00167000
v -0.00356700 -0.06053000 0.00186800
v -0.00306400 -0.05869700 0.00203100
v -0.00243000 -0.05695200 0.00215800
v -0.00167200 -0.05546600 0.00225100
v -0.00031000 -0.05982500 -0.00275000
v 0.00001100 -0.05975600 -0.00275800
v 0.00060400 -0.05832500 -0.00275000
v 0.00252900 -0.05546600 -0.00260000
v 0.00162000 -0.05688100 -0.00269300
v 0.00001100 -0.05546600 0.00232900
v -0.00083000 -0.05546600 0.00230800
v -0.00105300 -0.06331800 -0.00260000
v -0.00122100 -0.06516600 -0.00247300
v -0.00110900 -0.06900800 -0.00211200
v -0.00124200 -0.06706700 -0.00231000
v -0.00249200 -0.06982700 -0.00161400
v -0.00180600 -0.06942000 -0.00188000
v -0.00316800 -0.07022800 -0.00131500
v -0.00448700 -0.07100800 -0.00061800
v -0.00383500 -0.07062100 -0.00098200
v -0.00613200 -0.06955300 -0.00022100
v -0.00633800 -0.06736500 0.00017600
v -0.00637000 -0.06520800 0.00054100
v -0.00564100 -0.06494900 0.00087300
v -0.00420900 -0.06645000 0.00117300
v -0.00347400 -0.06613500 0.00143900
v -0.00338500 -0.06414700 0.00167000
v -0.00074500 -0.06153400 -0.00269300
v 0.00001100 -0.06110200 -0.00275000
v -0.00314400 -0.06221700 0.00186800
v -0.00276000 -0.06035500 0.00203100
v -0.00224100 -0.05857300 0.00215800
v -0.00159700 -0.05688100 0.00225100
v 0.00033000 -0.05982500 -0.00275000
v 0.00143500 -0.05844900 -0.00269300
v 0.00336200 -0.05546600 -0.00247300
v 0.00245300 -0.05695200 -0.00260000
v -0.00076000 -0.05681000 0.00230800
v 0.00001100 -0.05674500 0.00232700
v 0.00085300 -0.05546600 0.00230800
v -0.00026500 -0.06303800 -0.00269300
v 0.00001100 -0.06374100 -0.00269300
v 0.00001100 -0.06294000 -0.00271300
v -0.00045600 -0.06483800 -0.00260000
v 0.00001100 -0.06583700 -0.00260000
v 0.00001100 -0.06463700 -0.00265700
v -0.00050500 -0.06669300 -0.00247300
v 0.00001100 -0.06763400 -0.00247300
v 0.00001100 -0.06643000 -0.00256200
v -0.00040500 -0.06859100 -0.00231000
v 0.00001100 -0.06924500 -0.00231000
v 0.00001100 -0.06834500 -0.00240500
v -0.00081500 -0.07097600 -0.00188000
v -0.00014600 -0.07052000 -0.00211200
v 0.00001100 -0.07073600 -0.00211200
v 0.00001100 -0.07041200 -0.00215900
v -0.00212400 -0.07186900 -0.00131500
v -0.00147400 -0.07142600 -0.00161400
v -0.00338900 -0.07273200 -0.00061800
v -0.00276400 -0.07230500 -0.00098200
v -0.00512500 -0.07138600 -0.00022100
v -0.00547100 -0.06921600 0.00017600
v -0.00564100 -0.06706600 0.00054100
v -0.00493200 -0.06676100 0.00087300
v -0.00301100 -0.06780400 0.00143900
v -0.00273200 -0.06581500 0.00167000
v -0.00261500 -0.06387300 0.00186800
v 0.00001100 -0.06131800 -0.00274600
v -0.00235000 -0.06199100 0.00203100
v -0.00194600 -0.06017900 0.00215800
v -0.00141200 -0.05844900 0.00225100
v 0.00115000 -0.06000200 -0.00269300
v 0.00226200 -0.05857300 -0.00260000
v -0.00058400 -0.05832500 0.00230800
v 0.00001100 -0.05823600 0.00232300
v 0.00418900 -0.05546600 -0.00231000
v 0.00328200 -0.05702200 -0.00247300
v 0.00169400 -0.05546600 0.00225100
v 0.00078300 -0.05681000 0.00230800
v 0.00028800 -0.06303800 -0.00269300
v 0.00047900 -0.06483800 -0.00260000
v 0.00052800 -0.06669300 -0.00247300
v 0.00042600 -0.06859100 -0.00231000
v 0.00001100 -0.07210700 -0.00188000
v 0.00016900 -0.07052000 -0.00211200
v -0.00097700 -0.07344000 -0.00131500
v -0.00035600 -0.07295600 -0.00161400
v 0.00001100 -0.07339700 -0.00161400
v 0.00001100 -0.07266900 -0.00177000
v -0.00218400 -0.07438300 -0.00061800
v -0.00158700 -0.07391600 -0.00098200
v -0.00400300 -0.07315100 -0.00022100
v -0.00448700 -0.07100800 0.00017600
v -0.00479600 -0.06887300 0.00054100
v -0.00410500 -0.06852200 0.00087300
v -0.00340400 -0.06816600 0.00117300
v -0.00197100 -0.06743800 0.00167000
v -0.00198000 -0.06549200 0.00186800
v -0.00183700 -0.06359700 0.00203100
v 0.00076800 -0.06153400 -0.00269300
v -0.00155100 -0.06176300 0.00215800
v -0.00113000 -0.06000200 0.00225100
v 0.00196800 -0.06017900 -0.00260000
v -0.00031000 -0.05982500 0.00230800
v 0.00001100 -0.05975600 0.00231600
v 0.00308400 -0.05869700 -0.00247300
v 0.00060400 -0.05832500 0.00230800
v 0.00500700 -0.05546600 -0.00211200
v 0.00410400 -0.05709200 -0.00231000
v 0.00252900 -0.05546600 0.00215800
v 0.00162000 -0.05688100 0.00225100
v 0.00107600 -0.06331800 -0.00260000
v 0.00124400 -0.06516600 -0.00247300
v 0.00126500 -0.06706700 -0.00231000
v 0.00113100 -0.06900800 -0.00211200
v 0.00083800 -0.07097600 -0.00188000
v 0.00001100 -0.07462400 -0.00131500
v 0.00037900 -0.07295600 -0.00161400
v 0.00001100 -0.07578400 -0.00098200
v -0.00030700 -0.07544800 -0.00098200
v 0.00001100 -0.07516400 -0.00116600
v -0.00087500 -0.07595200 -0.00061800
v -0.00276800 -0.07484000 -0.00022100
v -0.00338900 -0.07273200 0.00017600
v -0.00383500 -0.07062100 0.00054100
v -0.00316800 -0.07022800 0.00087300
v -0.00249200 -0.06982700 0.00117300
v -0.00110900 -0.06900800 0.00167000
v -0.00180600 -0.06942000 0.00143900
v -0.00124200 -0.06706700 0.00186800
v -0.00122100 -0.06516600 0.00203100
v -0.00105300 -0.06331800 0.00215800
v 0.00157300 -0.06176300 -0.00260000
v -0.00074500 -0.06153400 0.00225100
v 0.00001100 -0.06110200 0.00230800
v 0.00278200 -0.06035500 -0.00247300
v 0.00033000 -0.05982500 0.00230800
v 0.00390200 -0.05881900 -0.00231000
v 0.00143500 -0.05844900 0.00225100
v 0.00581700 -0.05546600 -0.00188000
v 0.00492000 -0.05716100 -0.00211200
v 0.00336200 -0.05546600 0.00203100
v 0.00245300 -0.05695200 0.00215800
v 0.00185800 -0.06359700 -0.00247300
v 0.00200200 -0.06549200 -0.00231000
v 0.00199400 -0.06743800 -0.00211200
v 0.00303300 -0.06780400 -0.00188000
v 0.00182600 -0.06942000 -0.00188000
v 0.00149700 -0.07142600 -0.00161400
v 0.00099900 -0.07344000 -0.00131500
v 0.00033000 -0.07544800 -0.00098200
v 0.00001100 -0.07688500 -0.00061800
v -0.00142900 -0.07644600 -0.00022100
v -0.00218400 -0.07438300 0.00017600
v -0.00276400 -0.07230500 0.00054100
v -0.00212400 -0.07186900 0.00087300
v -0.00147400 -0.07142600 0.00117300
v 0.00001100 -0.07041200 0.00171700
v -0.00014600 -0.07052000 0.00167000
v 0.00001100 -0.07073600 0.00167000
v -0.00081500 -0.07097600 0.00143900
v 0.00001100 -0.06834500 0.00196300
v -0.00040500 -0.06859100 0.00186800
v 0.00001100 -0.06924500 0.00186800
v 0.00001100 -0.06643000 0.00212000
v -0.00050500 -0.06669300 0.00203100
v 0.00001100 -0.06763400 0.00203100
v 0.00001100 -0.06463700 0.00221500
v -0.00045600 -0.06483800 0.00215800
v 0.00001100 -0.06583700 0.00215800
v 0.00001100 -0.06294000 0.00227100
v -0.00026500 -0.06303800 0.00225100
v 0.00001100 -0.06374100 0.00225100
v 0.00237200 -0.06199100 -0.00247300
v 0.00001100 -0.06131800 0.00230400
v 0.00358800 -0.06053000 -0.00231000
v 0.00115000 -0.06000200 0.00225100
v 0.00471000 -0.05894000 -0.00211200
v 0.00226200 -0.05857300 0.00215800
v 0.00661600 -0.05546600 -0.00161400
v 0.00572500 -0.05722900 -0.00188000
v 0.00418900 -0.05546600 0.00186800
v 0.00328200 -0.05702200 0.00203100
v 0.00263600 -0.06387300 -0.00231000
v 0.00275300 -0.06581500 -0.00211200
v 0.00251500 -0.06982700 -0.00161400
v 0.00214700 -0.07186900 -0.00131500
v 0.00160700 -0.07391600 -0.00098200
v 0.00089700 -0.07595200 -0.00061800
v 0.00001100 -0.07796300 -0.00022100
v -0.00087500 -0.07595200 0.00017600
v -0.00158700 -0.07391600 0.00054100
v 0.00001100 -0.07266900 0.00132800
v -0.00035600 -0.07295600 0.00117300
v 0.00001100 -0.07339700 0.00117300
v -0.00097700 -0.07344000 0.00087300
v 0.00001100 -0.07210700 0.00143900
v 0.00016900 -0.07052000 0.00167000
v 0.00042600 -0.06859100 0.00186800
v 0.00052800 -0.06669300 0.00203100
v 0.00047900 -0.06483800 0.00215800
v 0.00028800 -0.06303800 0.00225100
v 0.00316700 -0.06221700 -0.00231000
v 0.00076800 -0.06153400 0.00225100
v 0.00438900 -0.06070300 -0.00211200
v 0.00196800 -0.06017900 0.00215800
v 0.00551100 -0.05906000 -0.00188000
v 0.00308400 -0.05869700 0.00203100
v 0.00740400 -0.05546600 -0.00131500
v 0.00652000 -0.05729700 -0.00161400
v 0.00500700 -0.05546600 0.00167000
v 0.00410400 -0.05709200 0.00186800
v 0.00340700 -0.06414700 -0.00211200
v 0.00349600 -0.06613500 -0.00188000
v 0.00342600 -0.06816600 -0.00161400
v 0.00319000 -0.07022800 -0.00131500
v 0.00278400 -0.07230500 -0.00098200
v 0.00220600 -0.07438300 -0.00061800
v 0.00145200 -0.07644600 -0.00022100
v 0.00001100 -0.07688500 0.00017600
v 0.00001100 -0.07516400 0.00072400
v -0.00030700 -0.07544800 0.00054100
v 0.00001100 -0.07578400 0.00054100
v 0.00001100 -0.07462400 0.00087300
v 0.00037900 -0.07295600 0.00117300
v 0.00083800 -0.07097600 0.00143900
v 0.00113100 -0.06900800 0.00167000
v 0.00126500 -0.06706700 0.00186800
v 0.00124400 -0.06516600 0.00203100
v 0.00107600 -0.06331800 0.00215800
v 0.00395300 -0.06244100 -0.00211200
v 0.00157300 -0.06176300 0.00215800
v 0.00517900 -0.06087400 -0.00188000
v 0.00278200 -0.06035500 0.00203100
v 0.00629900 -0.05917900 -0.00161400
v 0.00390200 -0.05881900 0.00186800
v 0.00817800 -0.05546600 -0.00098200
v 0.00730400 -0.05736300 -0.00131500
v 0.00581700 -0.05546600 0.00143900
v 0.00492000 -0.05716100 0.00167000
v 0.00417000 -0.06441800 -0.00188000
v 0.00422900 -0.06645000 -0.00161400
v 0.00412700 -0.06852200 -0.00131500
v 0.00385500 -0.07062100 -0.00098200
v 0.00341100 -0.07273200 -0.00061800
v 0.00279100 -0.07484000 -0.00022100
v 0.00089700 -0.07595200 0.00017600
v 0.00033000 -0.07544800 0.00054100
v 0.00099900 -0.07344000 0.00087300
v 0.00149700 -0.07142600 0.00117300
v 0.00182600 -0.06942000 0.00143900
v 0.00303300 -0.06780400 0.00143900
v 0.00199400 -0.06743800 0.00167000
v 0.00200200 -0.06549200 0.00186800
v 0.00185800 -0.06359700 0.00203100
v 0.00473100 -0.06266200 -0.00188000
v 0.00237200 -0.06199100 0.00203100
v 0.00595900 -0.06104300 -0.00161400
v 0.00358800 -0.06053000 0.00186800
v 0.00707900 -0.05929500 -0.00131500
v 0.00471000 -0.05894000 0.00167000
v 0.00893600 -0.05546600 -0.00061800
v 0.00807600 -0.05742800 -0.00098200
v 0.00661600 -0.05546600 0.00117300
v 0.00572500 -0.05722900 0.00143900
v 0.00492200 -0.06468600 -0.00161400
v 0.00495200 -0.06676100 -0.00131500
v 0.00481600 -0.06887300 -0.00098200
v 0.00450800 -0.07100800 -0.00061800
v 0.00402500 -0.07315100 -0.00022100
v 0.00220600 -0.07438300 0.00017600
v 0.00160700 -0.07391600 0.00054100
v 0.00214700 -0.07186900 0.00087300
v 0.00251500 -0.06982700 0.00117300
v 0.00275300 -0.06581500 0.00167000
v 0.00263600 -0.06387300 0.00186800
v 0.00550000 -0.06288100 -0.00161400
v 0.00316700 -0.06221700 0.00186800
v 0.00672800 -0.06120900 -0.00131500
v 0.00438900 -0.06070300 0.00167000
v 0.00784200 -0.05941000 -0.00098200
v 0.00551100 -0.05906000 0.00143900
v 0.00968000 -0.05546600 -0.00022100
v 0.00883000 -0.05749200 -0.00061800
v 0.00740400 -0.05546600 0.00087300
v 0.00652000 -0.05729700 0.00117300
v 0.00566400 -0.06494900 -0.00131500
v 0.00566400 -0.06706600 -0.00098200
v 0.00549400 -0.06921600 -0.00061800
v 0.00514700 -0.07138600 -0.00022100
v 0.00341100 -0.07273200 0.00017600
v 0.00278400 -0.07230500 0.00054100
v 0.00319000 -0.07022800 0.00087300
v 0.00342600 -0.06816600 0.00117300
v 0.00349600 -0.06613500 0.00143900
v 0.00340700 -0.06414700 0.00167000
v 0.00625500 -0.06309600 -0.00131500
v 0.00395300 -0.06244100 0.00167000
v 0.00748300 -0.06137300 -0.00098200
v 0.00517900 -0.06087400 0.00143900
v 0.00859200 -0.05952200 -0.00061800
v 0.00629900 -0.05917900 0.00117300
v 0.00893600 -0.05546600 0.00017600
v 0.00957000 -0.05755500 -0.00022100
v 0.00817800 -0.05546600 0.00054100
v 0.00730400 -0.05736300 0.00087300
v 0.00639100 -0.06520800 -0.00098200
v 0.00636100 -0.06736500 -0.00061800
v 0.00615500 -0.06955300 -0.00022100
v 0.00450800 -0.07100800 0.00017600
v 0.00385500 -0.07062100 0.00054100
v 0.00412700 -0.06852200 0.00087300
v 0.00422900 -0.06645000 0.00117300
v 0.00417000 -0.06441800 0.00143900
v 0.00699800 -0.06330800 -0.00098200
v 0.00473100 -0.06266200 0.00143900
v 0.00822400 -0.06153300 -0.00061800
v 0.00595900 -0.06104300 0.00117300
v 0.00932700 -0.05963200 -0.00022100
v 0.00707900 -0.05929500 0.00087300
v 0.00883000 -0.05749200 0.00017600
v 0.00807600 -0.05742800 0.00054100
v 0.00710700 -0.06546300 -0.00061800
v 0.00704100 -0.06765800 -0.00022100
v 0.00549400 -0.06921600 0.00017600
v 0.00481600 -0.06887300 0.00054100
v 0.00495200 -0.06676100 0.00087300
v 0.00492200 -0.06468600 0.00117300
v 0.00772900 -0.06351600 -0.00061800
v 0.00550000 -0.06288100 0.00117300
v 0.00895100 -0.06169000 -0.00022100
v 0.00672800 -0.06120900 0.00087300
v 0.00859200 -0.05952200 0.00017600
v 0.00784200 -0.05941000 0.00054100
v 0.00780600 -0.06571100 -0.00022100
v 0.00636100 -0.06736500 0.00017600
v 0.00566400 -0.06706600 0.00054100
v 0.00566400 -0.06494900 0.00087300
v 0.00844300 -0.06371900 -0.00022100
v 0.00625500 -0.06309600 0.00087300
v 0.00822400 -0.06153300 0.00017600
v 0.00748300 -0.06137300 0.00054100
v 0.00710700 -0.06546300 0.00017600
v 0.00639100 -0.06520800 0.00054100
v 0.00772900 -0.06351600 0.00017600
v 0.00699800 -0.06330800 0.00054100
vn -0.25941757 -0.73467609 0.62686009
vn -0.00000000 0.89597735 -0.44409974
vn -0.00000000 -1.00000000 -0.00000000
vn -0.06259519 0.99789770 -0.01679373
vn -0.22195394 0.89595528 0.38470844
vn -0.43854963 -0.47945524 0.76012953
vn -0.11509779 0.89594006 -0.42900338
vn 0.00000000 -1.00000000 0.00000000
vn 0.04615193 0.99786773 0.04615193
vn -0.41271496 -0.73486157 0.53818662
vn 0.05641576 0.99787667 -0.03254855
vn 0.41275136 -0.73480635 0.53823409
vn -0.03254855 0.99787667 -0.05641576
vn -0.62672972 -0.73480635 0.25936362
vn 0.41283571 -0.73467838 0.53834409
vn -0.04587302 0.99789733 0.04578851
vn -0.84768331 -0.47928120 0.22742588
vn -0.42900338 0.89594006 0.11509779
vn 0.62654640 -0.73498943 0.25928776
vn 0.03282784 0.99784693 -0.05677885
vn -0.87744016 -0.47968611 0.00006704
vn -0.44410335 0.89597556 0.00003393
vn 0.42908360 0.89596690 0.11458877
vn 0.84778341 -0.47958762 0.22640451
vn -0.67247863 -0.73473549 -0.08908568
vn -0.01684104 0.99788812 0.06273493
vn 0.44421138 0.89592201 0.00003336
vn 0.87777463 -0.47907378 0.00006592
vn 0.38466809 0.89595011 0.22204473
vn -0.00000000 -1.00000000 -0.00000000
vn 0.42905314 0.89597386 -0.11464838
vn 0.84770828 -0.47966670 -0.22651828
vn 0.04597003 0.99788256 -0.04601247
vn -0.41327183 -0.73476993 -0.53788433
vn 0.03278561 0.99785412 0.05667672
vn 0.62647520 -0.73494527 -0.25958481
vn -0.22212054 0.89596603 -0.38458722
vn -0.43886675 -0.47957780 -0.75986914
vn 0.41339275 -0.73458666 -0.53804171
vn -0.04569111 0.99791206 -0.04564903
vn -0.06287934 0.99787920 0.01683109
vn -0.25937010 -0.73479071 -0.62674537
vn 0.41318730 -0.73489798 -0.53777432
vn 0.05659751 0.99786182 0.03268821
vn 0.00000000 -1.00000000 0.00000000
vn 0.00000000 0.89595043 0.44415405
vn -0.11484334 0.89595345 0.42904362
vn -0.00000000 -1.00000000 0.00000000
vn -0.17457233 0.73768474 -0.65218535
vn -0.00000000 0.73765338 -0.67517960
vn -0.33759135 0.73781536 -0.58451738
vn 0.17457233 0.73768474 -0.65218535
vn -0.47763959 0.73765943 -0.47719910
vn 0.33759135 0.73781536 -0.58451738
vn -0.58475454 0.73764997 -0.33754207
vn 0.47737150 0.73743651 -0.47781152
vn -0.65212991 0.73761752 -0.17506276
vn 0.58423210 0.73787299 -0.33795902
vn -0.67489481 0.73791395 0.00005156
vn 0.65203691 0.73789629 -0.17423244
vn -0.65223171 0.73754526 0.17498796
vn 0.67550409 0.73735624 0.00005073
vn -0.58477869 0.73770377 0.33738260
vn 0.65213861 0.73782430 0.17415665
vn -0.47733318 0.73777101 0.47733318
vn 0.58425632 0.73792682 0.33779959
vn -0.33738260 0.73770377 0.58477869
vn 0.47706498 0.73754804 0.47794550
vn -0.17498796 0.73754526 0.65223171
vn 0.33738260 0.73770377 0.58477869
vn 0.00000000 0.73793244 0.67487459
vn 0.17498796 0.73754526 0.65223171
vn -0.46003223 0.68825475 0.56095966
vn -0.35733375 -0.68834350 0.63126525
vn -0.35733375 0.68834350 0.63126525
vn -0.46003223 -0.68825475 0.56095966
vn -0.24421596 -0.68826062 0.68312216
vn -0.24421596 0.68826062 0.68312216
vn -0.12386683 -0.68834568 0.71472879
vn -0.12386683 0.68834568 0.71472879
vn -0.00001609 -0.68829451 0.72543136
vn -0.00001609 0.68829451 0.72543136
vn 0.12395044 -0.68831293 0.71474583
vn 0.12395044 0.68831293 0.71474583
vn 0.24421616 -0.68831153 0.68307079
vn 0.24421616 0.68831153 0.68307079
vn 0.35716975 -0.68835169 0.63134913
vn 0.35716975 0.68835169 0.63134913
vn 0.46009341 -0.68818525 0.56099475
vn 0.46009341 0.68818525 0.56099475
vn -0.54886905 0.68841666 0.47415744
vn -0.54886905 -0.68841666 0.47415744
vn -0.00001039 -0.71276536 0.70140255
vn -0.03248757 -0.71193536 0.70149313
vn -0.06250029 -0.71198514 0.69940752
vn -0.09186434 -0.71174952 0.69640043
vn -0.12096614 -0.71197199 0.69171025
vn -0.15035509 -0.71190081 0.68599606
vn -0.17890008 -0.71177356 0.67924456
vn -0.20734285 -0.71200500 0.67086349
vn -0.23602370 -0.71195673 0.66137011
vn -0.26373949 -0.71180475 0.65098040
vn -0.29080612 -0.71192942 0.63920912
vn -0.31757773 -0.71185453 0.62642439
vn -0.97955747 -0.19794223 -0.03586126
vn 0.03250469 -0.71194787 0.70147963
vn 0.06261835 -0.71200597 0.69937575
vn 0.09184040 -0.71167872 0.69647595
vn 0.12083499 -0.71201287 0.69169109
vn 0.15053258 -0.71196439 0.68589113
vn 0.17900480 -0.71167286 0.67932247
vn 0.20722238 -0.71204217 0.67086126
vn 0.54892707 -0.68845511 0.47403443
vn 0.23590040 -0.71190857 0.66146594
vn 0.26345144 -0.71179949 0.65110278
vn 0.29077390 -0.71204158 0.63909884
vn 0.31776598 -0.71179582 0.62639563
vn 0.97955747 -0.19794223 -0.03586126
vn 0.54892707 0.68845511 0.47403443
vn -0.80707646 0.58852881 -0.04755452
vn 0.80707646 0.58852881 -0.04755452
vn 0.40855562 -0.69066941 -0.59670601
vn 0.49331205 0.69054241 -0.52895596
vn 0.49331205 -0.69054241 -0.52895596
vn 0.40855562 0.69066941 -0.59670601
vn 0.31486951 -0.69059238 -0.65110626
vn 0.31486951 0.69059238 -0.65110626
vn 0.21384981 -0.69059977 -0.69089812
vn 0.21384981 0.69059977 -0.69089812
vn 0.10816440 -0.69063922 -0.71506498
vn 0.10816440 0.69063922 -0.71506498
vn -0.00001469 -0.69057777 -0.72325814
vn -0.00001469 0.69057777 -0.72325814
vn -0.10817830 -0.69064358 -0.71505867
vn -0.10817830 0.69064358 -0.71505867
vn -0.21377540 -0.69062100 -0.69089993
vn -0.21377540 0.69062100 -0.69089993
vn -0.31481385 -0.69057115 -0.65115568
vn -0.31481385 0.69057115 -0.65115568
vn -0.40855562 -0.69066941 -0.59670601
vn -0.40855562 0.69066941 -0.59670601
vn -0.49331205 -0.69054241 -0.52895596
vn -0.49331205 0.69054241 -0.52895596
vn -0.31718647 -0.71197658 -0.62648392
vn -0.29091626 -0.71168300 -0.63943337
vn -0.26363801 -0.71205573 -0.65074698
vn -0.23569967 -0.71183022 -0.66162180
vn -0.20776512 -0.71187475 -0.67087107
vn -0.17925439 -0.71190377 -0.67901464
vn -0.15035509 -0.71190081 -0.68599606
vn -0.12096614 -0.71197199 -0.69171025
vn -0.09186434 -0.71174952 -0.69640043
vn -0.06250029 -0.71198514 -0.69940752
vn -0.03248757 -0.71193536 -0.70149313
vn -0.00001039 -0.71276536 -0.70140255
vn 0.31737441 -0.71191795 -0.62645536
vn 0.29088352 -0.71179510 -0.63932348
vn 0.26335019 -0.71205024 -0.65086953
vn 0.23557659 -0.71178219 -0.66171730
vn 0.20764420 -0.71191205 -0.67086893
vn 0.17935879 -0.71180291 -0.67909281
vn 0.15053258 -0.71196439 -0.68589113
vn 0.12083499 -0.71201287 -0.69169109
vn 0.09184040 -0.71167872 -0.69647595
vn 0.06261835 -0.71200597 -0.69937575
vn 0.03250469 -0.71194787 -0.70147963
vn 0.45754853 0.68851961 0.56266340
vn 0.54640760 0.68838330 0.47704001
vn 0.80703560 0.57755592 -0.12297439
vn 0.39330638 0.69429757 -0.60271135
vn 0.32116483 0.69438061 -0.64396329
vn 0.24473312 0.69426949 -0.67682759
vn 0.12319964 0.68841213 0.71478010
vn -0.12314010 0.68843546 0.71476788
vn -0.00001146 0.68841541 0.72531663
vn 0.24268874 0.68845505 0.68347043
vn -0.24274613 0.68840244 0.68350304
vn 0.35546185 0.68832596 0.63234030
vn -0.35539110 0.68840298 0.63229622
vn -0.45745774 0.68847520 0.56279154
vn -0.54640760 0.68838330 0.47704001
vn -0.80703560 0.57755592 -0.12297439
vn -0.39335605 0.69431963 -0.60265353
vn -0.32123983 0.69435855 -0.64394967
vn -0.24473312 0.69426949 -0.67682759
vn 0.16495452 0.69437940 -0.70044789
vn -0.16488533 0.69435640 -0.70048698
vn 0.08309082 0.69429190 -0.71488088
vn -0.08302061 0.69431746 -0.71486421
vn -0.00000850 0.69434697 -0.71964039
vn 0.39330638 -0.69429757 -0.60271135
vn 0.80703560 -0.57755592 -0.12297439
vn 0.32116483 -0.69438061 -0.64396329
vn 0.24473312 -0.69426949 -0.67682759
vn 0.16495452 -0.69437940 -0.70044789
vn 0.08309082 -0.69429190 -0.71488088
vn -0.00000850 -0.69434697 -0.71964039
vn -0.08302061 -0.69431746 -0.71486421
vn -0.16488533 -0.69435640 -0.70048698
vn -0.24473312 -0.69426949 -0.67682759
vn -0.32123983 -0.69435855 -0.64394967
vn -0.39335605 -0.69431963 -0.60265353
vn -0.80703560 -0.57755592 -0.12297439
vn -0.54640760 -0.68838330 0.47704001
vn -0.45745774 -0.68847520 0.56279154
vn -0.35539110 -0.68840298 0.63229622
vn -0.24274613 -0.68840244 0.68350304
vn -0.12314010 -0.68843546 0.71476788
vn -0.00001146 -0.68841541 0.72531663
vn 0.12319964 -0.68841213 0.71478010
vn 0.24268874 -0.68845505 0.68347043
vn 0.35546185 -0.68832596 0.63234030
vn 0.45754853 -0.68851961 0.56266340
vn 0.54640760 -0.68838330 0.47704001
vn -0.33592094 -0.00877794 -0.94184928
vn -0.29610593 -0.00776463 -0.95512355
vn -0.37574227 -0.00985323 -0.92667182
vn -0.45194552 -0.01181346 -0.89196731
vn -0.41438761 -0.01080434 -0.91003636
vn -0.25558182 -0.00673047 -0.96676400
vn -0.33505959 -0.02831802 -0.94177129
vn -0.29516320 -0.02507502 -0.95511776
vn -0.37476120 -0.03162394 -0.92658187
vn -0.45087675 -0.03805034 -0.89177482
vn -0.41316840 -0.03480490 -0.90998928
vn -0.99966998 -0.02568905 -0.00000000
vn -0.33215690 -0.04991874 -0.94190229
vn -0.29298540 -0.04394810 -0.95510634
vn -0.21443578 -0.00562322 -0.97672190
vn -0.25505371 -0.02164380 -0.96668462
vn -0.37171560 -0.05572396 -0.92667273
vn -0.44786956 -0.06706192 -0.89158037
vn -0.40994978 -0.06146063 -0.91003504
vn -0.99642418 -0.08449173 -0.00000000
vn -0.45241572 -0.01182561 0.89172875
vn -0.32855230 -0.07106532 -0.94180842
vn -0.28962132 -0.06266956 -0.95508744
vn -0.25320781 -0.03796852 -0.96666654
vn -0.17261477 -0.00450928 -0.98497909
vn -0.21401919 -0.01810834 -0.97666160
vn -0.29556908 -0.00775068 0.95528993
vn -0.33645170 -0.00879204 0.94165968
vn -0.36728544 -0.07952959 -0.92670192
vn -0.44228513 -0.09581369 -0.89174189
vn -0.40537048 -0.08773571 -0.90993253
vn -0.98901101 -0.14784188 -0.00000000
vn -0.45134418 -0.03808964 0.89153666
vn -0.41439285 -0.01080484 0.91003397
vn -0.37573499 -0.00985283 0.92667477
vn -0.32310797 -0.09203359 -0.94187635
vn -0.28478045 -0.08116384 -0.95515053
vn -0.25015491 -0.05419472 -0.96668788
vn -0.21262354 -0.03184327 -0.97661519
vn -0.13109520 -0.00346320 -0.99136373
vn -0.17215211 -0.01453171 -0.98496319
vn -0.33559138 -0.02836281 0.94158057
vn -0.29462956 -0.02502971 0.95528370
vn -0.25502062 -0.00671547 0.96691229
vn -0.31661074 -0.11251263 -0.94185909
vn -0.27912547 -0.09918635 -0.95511834
vn -0.36154808 -0.10292468 -0.92665500
vn -0.43544217 -0.12394111 -0.89164383
vn -0.39869847 -0.11352360 -0.91002853
vn -0.97730213 -0.21185030 -0.00000000
vn -0.44833281 -0.06713143 0.89134228
vn -0.41317777 -0.03480551 0.90998501
vn -0.37475194 -0.03162300 0.92658565
vn -0.24627472 -0.07014058 -0.96665871
vn -0.21011890 -0.04550640 -0.97661621
vn -0.17089943 -0.02557865 -0.98495640
vn -0.08936941 -0.00238104 -0.99599570
vn -0.13068534 -0.01107470 -0.99136204
vn -0.33268386 -0.04999793 0.94171209
vn -0.29245566 -0.04386873 0.95527233
vn -0.25449189 -0.02159611 0.96683374
vn -0.21443578 -0.00562322 0.97672190
vn -0.04662376 -0.00123416 -0.99891176
vn 0.00002320 -0.00073788 -0.99999973
vn -0.24126119 -0.08573570 -0.96666562
vn -0.31953392 -0.12638472 -0.93910861
vn -0.28096406 -0.09371154 -0.95513211
vn -0.35420355 -0.12591839 -0.92665226
vn -0.42662927 -0.15172843 -0.89160863
vn -0.39054087 -0.13892452 -0.91004275
vn -0.96177809 -0.27383007 -0.00000000
vn -0.44274389 -0.09591295 0.89150353
vn -0.40995931 -0.06146218 0.91003064
vn -0.37170505 -0.05572255 0.92667705
vn -0.20669807 -0.05888512 -0.97663117
vn -0.16876727 -0.03659182 -0.98497647
vn -0.12956925 -0.01944656 -0.99137967
vn -0.08923608 -0.00758359 -0.99598163
vn -0.32907288 -0.07117804 0.94161814
vn -0.28909878 -0.06255627 0.95525316
vn -0.25265041 -0.03788496 0.96681565
vn -0.21401919 -0.01810834 0.97666160
vn -0.17261477 -0.00450928 0.98497909
vn -0.04646044 -0.00396909 -0.99891225
vn 0.00001084 -0.00207153 -0.99999785
vn 0.04660608 -0.00126608 -0.99891254
vn -0.23236383 -0.09144893 -0.96832027
vn -0.30277913 -0.15003442 -0.94117717
vn -0.20262212 -0.07198195 -0.97660784
vn -0.34552985 -0.14842906 -0.92659481
vn -0.41584707 -0.17874825 -0.89169517
vn -0.38116344 -0.16369274 -0.90990061
vn -0.94221636 -0.33500498 -0.00000000
vn -0.43589301 -0.12406944 0.89140566
vn -0.40537982 -0.08773764 0.90992819
vn -0.36727537 -0.07952742 0.92670610
vn -0.16624215 -0.04730154 -0.98494980
vn -0.12817803 -0.02772195 -0.99136365
vn -0.08856255 -0.01327399 -0.99598217
vn -0.32362087 -0.09217955 0.94168597
vn -0.28426523 -0.08101716 0.95531644
vn -0.24960463 -0.05407541 0.96683679
vn -0.21262354 -0.03184327 0.97661519
vn -0.17215211 -0.01453171 0.98496319
vn -0.13109520 -0.00346320 0.99136373
vn -0.04633426 -0.00686951 -0.99890237
vn 0.00000928 -0.00357849 -0.99999360
vn 0.08951553 -0.00232718 -0.99598271
vn 0.04643341 -0.00391042 -0.99891373
vn -0.16278568 -0.05789467 -0.98496144
vn -0.19709046 -0.10049386 -0.97522117
vn -0.19737656 -0.08486998 -0.97664711
vn -0.36217775 -0.18537856 -0.91348895
vn -0.33472929 -0.17031293 -0.92679545
vn -0.40384492 -0.20515093 -0.89152811
vn -0.36954654 -0.18781471 -0.91003351
vn -0.91872465 -0.39489874 0.00000000
vn -0.42707094 -0.15188553 0.89137041
vn -0.39870756 -0.11352618 0.91002422
vn -0.36153822 -0.10292180 0.92665917
vn -0.31711277 -0.11269107 0.94166884
vn -0.27862123 -0.09900708 0.95528415
vn -0.12615628 -0.03589977 -0.99136058
vn -0.08767733 -0.01892808 -0.99596908
vn -0.24573248 -0.06998624 0.96680788
vn -0.21011890 -0.04550640 0.97661621
vn -0.17089943 -0.02557865 0.98495640
vn -0.13068534 -0.01107470 0.99136204
vn -0.08936941 -0.00238104 0.99599570
vn -0.04550499 -0.00992826 -0.99891477
vn 0.00011676 -0.00513992 -0.99998678
vn 0.04625185 -0.00698328 -0.99890540
vn 0.13106065 -0.00336692 -0.99136864
vn 0.08926735 -0.00758644 -0.99597881
vn -0.00001503 -0.00069367 0.99999976
vn -0.04662376 -0.00123416 0.99891176
vn -0.12352462 -0.04396273 -0.99136721
vn -0.15862588 -0.06823699 -0.98497794
vn -0.21192414 -0.13341157 -0.96813713
vn -0.19153252 -0.09734406 -0.97664703
vn -0.29053298 -0.18199504 -0.93939789
vn -0.24377331 -0.16816898 -0.95514071
vn -0.32339480 -0.19140355 -0.92670410
vn -0.38965626 -0.23069364 -0.89159881
vn -0.35659473 -0.21114326 -0.91008720
vn -0.89145630 -0.45310668 -0.00000000
vn -0.41627768 -0.17893333 0.89145710
vn -0.39054965 -0.13892761 0.91003851
vn -0.35419413 -0.12591490 0.92665633
vn -0.32002207 -0.12659452 0.93891411
vn -0.28042742 -0.09353408 0.95530720
vn -0.24073054 -0.08554704 0.96681462
vn -0.08585602 -0.02453495 -0.99600541
vn 0.00022916 -0.01753020 -0.99984631
vn -0.20669807 -0.05888512 0.97663117
vn -0.16876727 -0.03659182 0.98497647
vn -0.12956925 -0.01944656 0.99137967
vn -0.08923608 -0.00758359 0.99598163
vn 0.04554448 -0.00985598 -0.99891369
vn 0.08856032 -0.01332922 -0.99598163
vn 0.17245514 -0.00447247 -0.98500722
vn 0.13073951 -0.01106487 -0.99135501
vn -0.04646044 -0.00396909 0.99891225
vn -0.00000999 -0.00215586 0.99999768
vn 0.04664288 -0.00122635 0.99891088
vn -0.08456826 -0.02996146 -0.99596713
vn -0.00018192 -0.03832573 -0.99926528
vn -0.00020753 -0.02223031 -0.99975285
vn -0.12084405 -0.05184841 -0.99131653
vn -0.00014283 -0.06162922 -0.99809910
vn -0.00011688 -0.04307864 -0.99907168
vn -0.15434421 -0.07833257 -0.98490704
vn 0.00039256 -0.09150069 -0.99580494
vn -0.00013334 -0.06774733 -0.99770250
vn -0.18465452 -0.10942183 -0.97669318
vn -0.00030721 -0.12429814 -0.99224487
vn 0.00036942 -0.09826463 -0.99516025
vn -0.24473428 -0.16707046 -0.95508774
vn -0.21302929 -0.14460889 -0.96628505
vn -0.00068526 -0.16204797 -0.98678264
vn -0.00101621 -0.13327311 -0.99107883
vn -0.31031692 -0.21173102 -0.92675422
vn -0.27768377 -0.18954383 -0.94178812
vn -0.37391627 -0.25518992 -0.89166402
vn -0.34253504 -0.23365206 -0.90998706
vn -0.86065482 -0.50918884 0.00000000
vn -0.40426313 -0.20536331 0.89128965
vn -0.38117108 -0.16369631 0.90989677
vn -0.34551894 -0.14842478 0.92659956
vn -0.30242241 -0.14985799 0.94131996
vn -0.23185643 -0.09126375 0.96845935
vn -0.20262212 -0.07198195 0.97660784
vn -0.00003439 -0.01833417 -0.99983191
vn -0.16624215 -0.04730154 0.98494980
vn -0.12817803 -0.02772195 0.99136365
vn -0.08856255 -0.01327399 0.99598217
vn 0.08753300 -0.01891610 -0.99598201
vn 0.12973902 -0.01947493 -0.99135690
vn -0.04633426 -0.00686951 0.99890237
vn 0.00004343 -0.00350804 0.99999385
vn 0.21467182 -0.00557761 -0.97667031
vn 0.17220360 -0.01453612 -0.98495412
vn 0.08951553 -0.00232718 0.99598271
vn 0.04643723 -0.00398943 0.99891324
vn 0.08448355 -0.03004107 -0.99597192
vn 0.12073793 -0.05185489 -0.99132912
vn 0.15422235 -0.07839370 -0.98492126
vn 0.18465252 -0.10933959 -0.97670277
vn -0.00082300 -0.18715920 -0.98232925
vn 0.21252907 -0.14474851 -0.96637429
vn -0.29605726 -0.23130008 -0.92674180
vn -0.26540288 -0.20695772 -0.94166332
vn -0.00035474 -0.23046956 -0.97307947
vn -0.00085742 -0.19733681 -0.98033537
vn -0.35699258 -0.27873106 -0.89155218
vn -0.32661146 -0.25520734 -0.91005174
vn -0.82583259 -0.56391535 -0.00000000
vn -0.39005951 -0.23093254 0.89136061
vn -0.36955593 -0.18781908 0.91002879
vn -0.33472101 -0.17030853 0.92679925
vn -0.36263848 -0.18561282 0.91325857
vn -0.19670265 -0.10029547 0.97531989
vn -0.19737656 -0.08486998 0.97664711
vn -0.16278568 -0.05789467 0.98496144
vn 0.08594088 -0.02443645 -0.99600051
vn -0.12615628 -0.03589977 0.99136058
vn -0.08767733 -0.01892808 0.99596908
vn 0.12809694 -0.02770915 -0.99137449
vn -0.04550499 -0.00992826 0.99891477
vn 0.00007465 -0.00518383 0.99998656
vn 0.17076108 -0.02566093 -0.98497826
vn 0.04624164 -0.00691626 0.99890634
vn 0.25570397 -0.00661424 -0.96673250
vn 0.21412993 -0.01812233 -0.97663706
vn 0.13106065 -0.00336692 0.99136864
vn 0.08926735 -0.00758644 0.99597881
vn 0.12369492 -0.04395951 -0.99134612
vn 0.15877322 -0.06820450 -0.98495645
vn 0.19151721 -0.09738815 -0.97664564
vn 0.21201319 -0.13346867 -0.96810977
vn 0.24482151 -0.16697377 -0.95508230
vn -0.00021049 -0.25925653 -0.96580847
vn 0.26526064 -0.20715934 -0.94165907
vn -0.00046429 -0.30635796 -0.95191627
vn -0.30980431 -0.27559027 -0.90998423
vn -0.00053472 -0.27077259 -0.96264319
vn -0.33790118 -0.30087186 -0.89179534
vn -0.78823156 -0.61537875 -0.00000000
vn -0.37430397 -0.25545436 0.89142560
vn -0.35660286 -0.21114830 0.91008285
vn -0.32338629 -0.19139852 0.92670811
vn -0.29099060 -0.18226600 0.93920369
vn -0.21147131 -0.13311245 0.96827732
vn -0.24331382 -0.16785096 0.95531379
vn -0.19153252 -0.09734406 0.97664703
vn -0.15862588 -0.06823699 0.98497794
vn -0.12352462 -0.04396273 0.99136721
vn 0.12621902 -0.03587688 -0.99135342
vn -0.08585602 -0.02453495 0.99600541
vn -0.00373993 -0.01692712 0.99984973
vn 0.16889328 -0.03648800 -0.98495872
vn 0.04556791 -0.00987490 0.99891243
vn 0.21253306 -0.03187334 -0.97663391
vn 0.08856032 -0.01332922 0.99598163
vn 0.29599976 -0.00774524 -0.95515661
vn 0.25506694 -0.02155292 -0.96668316
vn 0.17245514 -0.00447247 0.98500722
vn 0.13073951 -0.01106487 0.99135501
vn 0.16293917 -0.05789213 -0.98493621
vn 0.19761815 -0.08480565 -0.97660384
vn 0.19718469 -0.10050642 -0.97520083
vn 0.30293368 -0.14995470 -0.94114014
vn 0.24368210 -0.16808696 -0.95517842
vn 0.27767778 -0.18948317 -0.94180209
vn 0.29640926 -0.23152105 -0.92657409
vn 0.30969663 -0.27562343 -0.91001084
vn -0.00000928 -0.33731639 -0.94139134
vn -0.74696645 -0.66486174 0.00000000
vn -0.35736204 -0.27901962 0.89131388
vn -0.34254349 -0.23365770 0.90998244
vn -0.31030868 -0.21172538 0.92675827
vn -0.27812377 -0.18984411 0.94159778
vn -0.00062762 -0.13296762 0.99112018
vn -0.21256466 -0.14429201 0.96643473
vn -0.00065426 -0.16150323 0.98687197
vn -0.24429267 -0.16676903 0.95525346
vn 0.00019888 -0.09840318 0.99514661
vn -0.18465452 -0.10942183 0.97669318
vn 0.00009317 -0.12449870 0.99221977
vn 0.00009090 -0.06755129 0.99771580
vn -0.15434421 -0.07833257 0.98490704
vn -0.00000112 -0.09134432 0.99581937
vn 0.00000387 -0.04295990 0.99907680
vn -0.12084405 -0.05184841 0.99131653
vn 0.00061150 -0.06187724 0.99808358
vn -0.00011638 -0.02214918 0.99975467
vn -0.08456826 -0.02996146 0.99596713
vn 0.00047676 -0.03852280 0.99925761
vn 0.16613469 -0.04734257 -0.98496596
vn -0.00047629 -0.01885189 0.99982217
vn 0.20996595 -0.04543202 -0.97665256
vn 0.08753300 -0.01891610 0.99598201
vn 0.25305906 -0.03794141 -0.96670656
vn 0.12973902 -0.01947493 0.99135690
vn 0.33569462 -0.00882616 -0.94192952
vn 0.29554074 -0.02494607 -0.95500438
vn 0.21467182 -0.00557761 0.97667031
vn 0.17220360 -0.01453612 0.98495412
vn 0.20247870 -0.07202761 -0.97663422
vn 0.23235359 -0.09139963 -0.96832738
vn 0.29036055 -0.18182950 -0.93948325
vn 0.31078323 -0.21202836 -0.92652995
vn 0.32670515 -0.25515362 -0.91003317
vn 0.33788481 -0.30079091 -0.89182884
vn -0.00008323 -1.00000000 -0.00000562
vn -0.33825100 -0.30118345 0.89155751
vn -0.32661910 -0.25521323 0.91004735
vn -0.00033210 -0.19784042 0.98023418
vn -0.26519560 -0.20713793 0.94168210
vn -0.00035458 -0.23074799 0.97301348
vn -0.29604872 -0.23129334 0.92674621
vn -0.00021934 -0.18753551 0.98225780
vn 0.21201727 -0.14429690 0.96655423
vn 0.18467003 -0.10941041 0.97669153
vn 0.15418972 -0.07832231 0.98493205
vn 0.12070571 -0.05182939 0.99133438
vn 0.08444957 -0.02998514 0.99597649
vn 0.20673643 -0.05887923 -0.97662341
vn 0.08597140 -0.02451023 0.99599607
vn 0.25009189 -0.05411652 -0.96670857
vn 0.12809694 -0.02770915 0.99137449
vn 0.29320615 -0.04393327 -0.95503928
vn 0.17076108 -0.02566093 0.98497826
vn 0.37532923 -0.00984243 -0.92683930
vn 0.33494624 -0.02834195 -0.94181089
vn 0.25514348 -0.00659949 0.96688068
vn 0.21412993 -0.01812233 0.97663706
vn 0.24100031 -0.08575965 -0.96672857
vn 0.28109694 -0.09384355 -0.95508005
vn 0.36233423 -0.18517977 -0.91346722
vn 0.32390575 -0.19161284 -0.92648237
vn 0.34262872 -0.23369629 -0.90994044
vn 0.35655657 -0.27838742 -0.89183398
vn 0.74687852 -0.66496051 -0.00000938
vn -0.00004655 -0.33750772 0.94132276
vn -0.00044943 -0.27036142 0.96275880
vn -0.30953588 -0.27552006 0.91009683
vn -0.00048787 -0.30656238 0.95185044
vn -0.00014488 -0.25898522 0.96588127
vn 0.26501470 -0.20722798 0.94171321
vn 0.24436858 -0.16668954 0.95524792
vn 0.21155983 -0.13316932 0.96825016
vn 0.19151721 -0.09738815 0.97664564
vn 0.15877322 -0.06820450 0.98495645
vn 0.12369492 -0.04395951 0.99134612
vn 0.24619011 -0.07012161 -0.96668164
vn 0.12621902 -0.03587688 0.99135342
vn 0.28973249 -0.06264918 -0.95505506
vn 0.16889328 -0.03648800 0.98495872
vn 0.33231242 -0.04981054 -0.94185315
vn 0.21253306 -0.03187334 0.97663391
vn 0.41441469 -0.01080522 -0.91002402
vn 0.37425653 -0.03173036 -0.92678219
vn 0.29546336 -0.00773146 0.95532279
vn 0.25450497 -0.02150562 0.96683232
vn 0.27914109 -0.09929960 -0.95510201
vn 0.31978644 -0.12649040 -0.93900842
vn 0.33516687 -0.17033215 -0.92663376
vn 0.35672180 -0.21118627 -0.91002743
vn 0.37366764 -0.25489551 -0.89185244
vn 0.78827014 -0.61532933 -0.00000000
vn 0.33824251 -0.30108603 0.89159363
vn 0.30942650 -0.27552747 0.91013178
vn 0.29639933 -0.23151617 0.92657849
vn 0.27811779 -0.18978356 0.94161175
vn 0.24322141 -0.16776830 0.95535184
vn 0.30257688 -0.14977825 0.94128301
vn 0.19679638 -0.10030789 0.97529970
vn 0.19761815 -0.08480565 0.97660384
vn 0.16293917 -0.05789213 0.98493621
vn 0.28485767 -0.08115536 -0.95512822
vn 0.16613469 -0.04734257 0.98496596
vn 0.32866193 -0.07103360 -0.94177257
vn 0.20996595 -0.04543202 0.97665256
vn 0.37175450 -0.05568828 -0.92665927
vn 0.25250284 -0.03785783 0.96685526
vn 0.45220198 -0.01186492 -0.89183664
vn 0.41315253 -0.03506903 -0.90998635
vn 0.33622492 -0.00884030 0.94174022
vn 0.29500723 -0.02490118 0.95517049
vn 0.31654517 -0.11270087 -0.94185862
vn 0.34495403 -0.14845342 -0.92680542
vn 0.36914771 -0.18784402 -0.91018932
vn 0.38923831 -0.23053151 -0.89182328
vn 0.82602470 -0.56363391 -0.00000000
vn 0.35692567 -0.27867569 0.89159628
vn 0.32671148 -0.25515864 0.91002949
vn 0.31077385 -0.21202215 0.92653452
vn 0.29081870 -0.18210053 0.93928903
vn 0.23184681 -0.09121462 0.96846629
vn 0.20247870 -0.07202761 0.97663422
vn 0.32341204 -0.09201970 -0.94177334
vn 0.20673643 -0.05887923 0.97662341
vn 0.36744431 -0.07959181 -0.92663360
vn 0.24954085 -0.05399743 0.96685761
vn 0.41023364 -0.06156824 -0.90989984
vn 0.29267759 -0.04385389 0.95520504
vn 0.99966400 -0.02592087 0.00000000
vn 0.45125825 -0.03816847 -0.89157678
vn 0.37532192 -0.00984202 0.92684227
vn 0.33547695 -0.02838679 0.94162063
vn 0.35437529 -0.12593579 -0.92658423
vn 0.38063206 -0.16360962 -0.91013797
vn 0.40324338 -0.20512748 -0.89180575
vn 0.86047428 -0.50949389 0.00000000
vn 0.37405491 -0.25515960 0.89161455
vn 0.34263574 -0.23370102 0.90993658
vn 0.32389700 -0.19160749 0.92648654
vn 0.36279521 -0.18541383 0.91323674
vn 0.28056084 -0.09366611 0.95525508
vn 0.24047012 -0.08557099 0.96687731
vn 0.36194914 -0.10295233 -0.92649535
vn 0.24564854 -0.06996728 0.96683058
vn 0.40534647 -0.08772438 -0.90994432
vn 0.28920944 -0.06253609 0.95522099
vn 0.44743239 -0.06713219 -0.89179455
vn 0.33283838 -0.04988950 0.94166324
vn 0.45267250 -0.01187708 0.89159775
vn 0.99643864 -0.08432102 0.00000000
vn 0.41442077 -0.01080574 0.91002124
vn 0.37424665 -0.03172918 0.92678622
vn 0.39059759 -0.13868778 -0.91005452
vn 0.41623890 -0.17874512 -0.89151296
vn 0.89141192 -0.45319399 -0.00000000
vn 0.38964145 -0.23077029 0.89158545
vn 0.35672898 -0.21119064 0.91002360
vn 0.33515761 -0.17032728 0.92663801
vn 0.32027426 -0.12670008 0.93881387
vn 0.27863748 -0.09912043 0.95526766
vn 0.39844639 -0.11346007 -0.91014685
vn 0.28434293 -0.08100876 0.95529403
vn 0.44213965 -0.09559540 -0.89183746
vn 0.32918275 -0.07114618 0.94158215
vn 0.98896812 -0.14812852 -0.00000000
vn 0.37174218 -0.05568669 0.92666431
vn 0.45172581 -0.03820802 0.89133829
vn 0.41316309 -0.03506967 0.90998153
vn 0.42629504 -0.15158119 -0.89179352
vn 0.91884141 -0.39462698 -0.00000000
vn 0.40366066 -0.20533984 0.89156807
vn 0.36915522 -0.18784805 0.91018544
vn 0.34494479 -0.14844929 0.92680953
vn 0.31704684 -0.11287955 0.94166847
vn 0.43507040 -0.12376264 -0.89185007
vn 0.32392526 -0.09216555 0.94158268
vn 0.97737677 -0.21150566 0.00000000
vn 0.36743355 -0.07958931 0.92663808
vn 0.44789607 -0.06720186 0.89155651
vn 0.41024187 -0.06156976 0.90989602
vn 0.94214618 -0.33520229 0.00000000
vn 0.41666938 -0.17892998 0.89127475
vn 0.38064119 -0.16361317 0.91013351
vn 0.35436419 -0.12593234 0.92658894
vn 0.96183930 -0.27361499 0.00000000
vn 0.36193964 -0.10294939 0.92649939
vn 0.44259805 -0.09569443 0.89159943
vn 0.40535519 -0.08772600 0.90994028
vn 0.42673609 -0.15173795 0.89155589
vn 0.39060484 -0.13869058 0.91005098
vn 0.43552076 -0.12389080 0.89161244
vn 0.39845406 -0.11346225 0.91014322
f 1//1 2//2 3//3
f 2//2 1//1 4//4
f 5//5 1//1 4//4
f 1//1 5//5 6//6
f 3//3 7//7 8//8
f 7//7 3//3 2//2
f 9//9 6//6 5//5
f 6//6 9//9 10//10
f 8//8 11//11 12//12
f 11//11 8//8 7//7
f 10//10 13//13 9//9
f 13//13 10//10 14//14
f 11//11 15//15 16//16
f 15//15 11//11 12//12
f 17//17 13//13 18//18
f 13//13 17//17 14//14
f 19//19 16//16 20//20
f 16//16 19//19 15//15
f 21//21 18//18 22//22
f 18//18 21//21 17//17
f 19//19 23//23 20//20
f 23//23 19//19 24//24
f 25//25 22//22 26//26
f 22//22 25//25 21//21
f 24//24 27//27 23//23
f 27//27 24//24 28//28
f 25//25 29//29 26//26
f 29//29 25//25 30//30
f 28//28 31//31 27//27
f 31//31 28//28 32//32
f 30//30 33//33 29//29
f 33//33 30//30 34//34
f 32//32 35//35 31//31
f 35//35 32//32 36//36
f 34//34 37//37 38//38
f 37//37 34//34 33//33
f 39//39 35//35 40//40
f 35//35 39//39 36//36
f 38//38 41//41 42//42
f 41//41 38//38 37//37
f 43//43 40//40 39//39
f 40//40 43//43 44//44
f 41//41 45//45 46//46
f 45//45 41//41 42//42
f 47//47 43//43 44//44
f 43//43 47//47 48//48
f 46//46 48//48 47//47
f 48//48 46//46 45//45
f 49//49 45//45 50//50
f 45//45 49//49 42//42
f 51//51 42//42 49//49
f 42//42 51//51 38//38
f 50//50 48//48 52//52
f 48//48 50//50 45//45
f 53//53 38//38 51//51
f 38//38 53//53 34//34
f 52//52 43//43 54//54
f 43//43 52//52 48//48
f 53//53 30//30 34//34
f 30//30 53//53 55//55
f 54//54 39//39 56//56
f 39//39 54//54 43//43
f 55//55 25//25 30//30
f 25//25 55//55 57//57
f 58//58 39//39 36//36
f 39//39 58//58 56//56
f 57//57 21//21 25//25
f 21//21 57//57 59//59
f 60//60 36//36 32//32
f 36//36 60//60 58//58
f 59//59 17//17 21//21
f 17//17 59//59 61//61
f 62//62 32//32 28//28
f 32//32 62//62 60//60
f 61//61 14//14 17//17
f 14//14 61//61 63//63
f 64//64 28//28 24//24
f 28//28 64//64 62//62
f 63//63 10//10 14//14
f 10//10 63//63 65//65
f 66//66 24//24 19//19
f 24//24 66//66 64//64
f 10//10 67//67 6//6
f 67//67 10//10 65//65
f 68//68 19//19 15//15
f 19//19 68//68 66//66
f 6//6 69//69 1//1
f 69//69 6//6 67//67
f 12//12 68//68 15//15
f 68//68 12//12 70//70
f 1//1 71//71 3//3
f 71//71 1//1 69//69
f 8//8 70//70 12//12
f 70//70 8//8 72//72
f 3//3 72//72 8//8
f 72//72 3//3 71//71
f 73//73 74//74 75//75
f 74//74 73//73 76//76
f 75//75 77//77 78//78
f 77//77 75//75 74//74
f 78//78 79//79 80//80
f 79//79 78//78 77//77
f 80//80 81//81 82//82
f 81//81 80//80 79//79
f 82//82 83//83 84//84
f 83//83 82//82 81//81
f 84//84 85//85 86//86
f 85//85 84//84 83//83
f 86//86 87//87 88//88
f 87//87 86//86 85//85
f 88//88 89//89 90//90
f 89//89 88//88 87//87
f 91//91 76//76 73//73
f 76//76 91//91 92//92
f 79//79 83//83 81//81
f 77//77 83//83 79//79
f 77//77 85//85 83//83
f 74//74 85//85 77//77
f 74//74 87//87 85//85
f 76//76 87//87 74//74
f 76//76 89//89 87//87
f 76//76 93//93 89//89
f 76//76 94//94 93//93
f 76//76 95//95 94//94
f 76//76 96//96 95//95
f 76//76 97//97 96//96
f 76//76 98//98 97//97
f 76//76 99//99 98//98
f 76//76 100//100 99//99
f 92//92 100//100 76//76
f 92//92 101//101 100//100
f 92//92 102//102 101//101
f 92//92 103//103 102//102
f 92//92 104//104 103//103
f 104//104 92//92 105//105
f 106//106 89//89 93//93
f 107//107 89//89 106//106
f 108//108 89//89 107//107
f 109//109 89//89 108//108
f 110//110 89//89 109//109
f 111//111 89//89 110//110
f 112//112 89//89 111//111
f 112//112 113//113 89//89
f 114//114 113//113 112//112
f 115//115 113//113 114//114
f 116//116 113//113 115//115
f 117//117 113//113 116//116
f 113//113 117//117 118//118
f 90//90 113//113 119//119
f 113//113 90//90 89//89
f 105//105 91//91 120//120
f 91//91 105//105 92//92
f 113//113 121//121 119//119
f 121//121 113//113 118//118
f 122//122 123//123 124//124
f 123//123 122//122 125//125
f 126//126 125//125 122//122
f 125//125 126//126 127//127
f 128//128 127//127 126//126
f 127//127 128//128 129//129
f 130//130 129//129 128//128
f 129//129 130//130 131//131
f 132//132 131//131 130//130
f 131//131 132//132 133//133
f 134//134 133//133 132//132
f 133//133 134//134 135//135
f 136//136 135//135 134//134
f 135//135 136//136 137//137
f 138//138 137//137 136//136
f 137//137 138//138 139//139
f 140//140 139//139 138//138
f 139//139 140//140 141//141
f 142//142 141//141 140//140
f 141//141 142//142 143//143
f 142//142 120//120 143//143
f 120//120 142//142 105//105
f 118//118 123//123 121//121
f 123//123 118//118 124//124
f 142//142 144//144 105//105
f 142//142 145//145 144//144
f 142//142 146//146 145//145
f 142//142 147//147 146//146
f 142//142 148//148 147//147
f 142//142 149//149 148//148
f 142//142 150//150 149//149
f 142//142 151//151 150//150
f 140//140 151//151 142//142
f 140//140 152//152 151//151
f 140//140 153//153 152//152
f 140//140 154//154 153//153
f 140//140 155//155 154//154
f 155//155 140//140 138//138
f 156//156 124//124 118//118
f 157//157 124//124 156//156
f 158//158 124//124 157//157
f 159//159 124//124 158//158
f 160//160 124//124 159//159
f 161//161 124//124 160//160
f 162//162 124//124 161//161
f 163//163 124//124 162//162
f 163//163 122//122 124//124
f 164//164 122//122 163//163
f 165//165 122//122 164//164
f 166//166 122//122 165//165
f 155//155 122//122 166//166
f 138//138 122//122 155//155
f 138//138 126//126 122//122
f 136//136 126//126 138//138
f 136//136 128//128 126//126
f 134//134 128//128 136//136
f 134//134 130//130 128//128
f 130//130 134//134 132//132
f 167//167 7//7 2//2
f 167//167 11//11 7//7
f 167//167 16//16 11//11
f 168//168 16//16 167//167
f 168//168 20//20 16//16
f 168//168 23//23 20//20
f 168//168 27//27 23//23
f 169//169 27//27 168//168
f 169//169 31//31 27//27
f 169//169 35//35 31//31
f 170//170 35//35 169//169
f 170//170 40//40 35//35
f 170//170 44//44 40//40
f 171//171 44//44 170//170
f 171//171 47//47 44//44
f 171//171 46//46 47//47
f 46//46 171//171 172//172
f 173//173 174//174 175//175
f 176//176 174//174 173//173
f 176//176 177//177 174//174
f 178//178 177//177 176//176
f 178//178 179//179 177//177
f 178//178 180//180 179//179
f 167//167 180//180 178//178
f 2//2 180//180 167//167
f 4//4 180//180 2//2
f 5//5 180//180 4//4
f 9//9 180//180 5//5
f 9//9 181//181 180//180
f 13//13 181//181 9//9
f 18//18 181//181 13//13
f 22//22 181//181 18//18
f 22//22 182//182 181//181
f 26//26 182//182 22//22
f 29//29 182//182 26//26
f 29//29 183//183 182//182
f 33//33 183//183 29//29
f 37//37 183//183 33//33
f 37//37 184//184 183//183
f 41//41 184//184 37//37
f 46//46 184//184 41//41
f 172//172 184//184 46//46
f 172//172 185//185 184//184
f 186//186 185//185 172//172
f 186//186 187//187 185//185
f 188//188 187//187 186//186
f 188//188 189//189 187//187
f 189//189 188//188 190//190
f 191//191 169//169 192//192
f 169//169 191//191 170//170
f 193//193 170//170 191//191
f 170//170 193//193 171//171
f 194//194 171//171 193//193
f 171//171 194//194 172//172
f 195//195 172//172 194//194
f 172//172 195//195 186//186
f 196//196 186//186 195//195
f 186//186 196//196 188//188
f 197//197 188//188 196//196
f 188//188 197//197 190//190
f 198//198 190//190 197//197
f 190//190 198//198 189//189
f 199//199 189//189 198//198
f 189//189 199//199 187//187
f 200//200 187//187 199//199
f 187//187 200//200 185//185
f 201//201 185//185 200//200
f 185//185 201//201 184//184
f 202//202 184//184 201//201
f 184//184 202//202 183//183
f 203//203 183//183 202//202
f 183//183 203//203 182//182
f 203//203 181//181 182//182
f 181//181 203//203 204//204
f 181//181 205//205 180//180
f 205//205 181//181 204//204
f 180//180 206//206 179//179
f 206//206 180//180 205//205
f 179//179 207//207 177//177
f 207//207 179//179 206//206
f 177//177 208//208 174//174
f 208//208 177//177 207//207
f 174//174 209//209 175//175
f 209//209 174//174 208//208
f 175//175 210//210 173//173
f 210//210 175//175 209//209
f 173//173 211//211 176//176
f 211//211 173//173 210//210
f 176//176 212//212 178//178
f 212//212 176//176 211//211
f 178//178 213//213 167//167
f 213//213 178//178 212//212
f 167//167 214//214 168//168
f 214//214 167//167 213//213
f 214//214 169//169 168//168
f 169//169 214//214 192//192
f 208//208 210//210 209//209
f 207//207 210//210 208//208
f 207//207 211//211 210//210
f 207//207 212//212 211//211
f 206//206 212//212 207//207
f 205//205 212//212 206//206
f 205//205 213//213 212//212
f 205//205 3//3 213//213
f 205//205 1//1 3//3
f 205//205 6//6 1//1
f 205//205 10//10 6//6
f 204//204 10//10 205//205
f 204//204 14//14 10//10
f 204//204 17//17 14//14
f 204//204 21//21 17//17
f 203//203 21//21 204//204
f 203//203 25//25 21//21
f 203//203 30//30 25//25
f 202//202 30//30 203//203
f 202//202 34//34 30//30
f 202//202 38//38 34//34
f 201//201 38//38 202//202
f 201//201 42//42 38//38
f 201//201 45//45 42//42
f 45//45 201//201 200//200
f 8//8 213//213 3//3
f 12//12 213//213 8//8
f 15//15 213//213 12//12
f 15//15 214//214 213//213
f 19//19 214//214 15//15
f 24//24 214//214 19//19
f 28//28 214//214 24//24
f 28//28 192//192 214//214
f 32//32 192//192 28//28
f 36//36 192//192 32//32
f 36//36 191//191 192//192
f 39//39 191//191 36//36
f 43//43 191//191 39//39
f 43//43 193//193 191//191
f 48//48 193//193 43//43
f 45//45 193//193 48//48
f 200//200 193//193 45//45
f 200//200 194//194 193//193
f 199//199 194//194 200//200
f 199//199 195//195 194//194
f 198//198 195//195 199//199
f 198//198 196//196 195//195
f 196//196 198//198 197//197
f 7//7 4//4 2//2
f 11//11 4//4 7//7
f 11//11 5//5 4//4
f 16//16 5//5 11//11
f 16//16 9//9 5//5
f 20//20 9//9 16//16
f 20//20 13//13 9//9
f 23//23 13//13 20//20
f 23//23 18//18 13//13
f 27//27 18//18 23//23
f 27//27 22//22 18//18
f 31//31 22//22 27//27
f 31//31 26//26 22//22
f 35//35 26//26 31//31
f 35//35 29//29 26//26
f 40//40 29//29 35//35
f 40//40 33//33 29//29
f 44//44 33//33 40//40
f 44//44 37//37 33//33
f 47//47 37//37 44//44
f 47//47 41//41 37//37
f 41//41 47//47 46//46
f 215//215 148//148 216//216
f 148//148 215//215 147//147
f 217//217 147//147 215//215
f 147//147 217//217 146//146
f 218//218 145//145 219//219
f 145//145 218//218 144//144
f 216//216 149//149 220//220
f 149//149 216//216 148//148
f 221//221 216//216 222//222
f 216//216 221//221 215//215
f 219//219 146//146 217//217
f 146//146 219//219 145//145
f 223//223 215//215 221//221
f 215//215 223//223 217//217
f 224//224 219//219 225//225
f 219//219 224//224 218//218
f 226//226 144//144 218//218
f 144//144 226//226 105//105
f 227//227 222//222 228//228
f 222//222 227//227 221//221
f 220//220 150//150 229//229
f 150//150 220//220 149//149
f 222//222 220//220 230//230
f 220//220 222//222 216//216
f 225//225 217//217 223//223
f 217//217 225//225 219//219
f 231//231 221//221 227//227
f 221//221 231//231 223//223
f 232//232 225//225 233//233
f 225//225 232//232 224//224
f 234//234 218//218 224//224
f 218//218 234//234 226//226
f 105//105 235//235 104//104
f 235//235 105//105 226//226
f 236//236 228//228 237//237
f 228//228 236//236 227//227
f 228//228 230//230 238//238
f 230//230 228//228 222//222
f 229//229 151//151 239//239
f 151//151 229//229 150//150
f 230//230 229//229 240//240
f 229//229 230//230 220//220
f 101//101 241//241 100//100
f 241//241 101//101 242//242
f 233//233 223//223 231//231
f 223//223 233//233 225//225
f 243//243 227//227 236//236
f 227//227 243//243 231//231
f 244//244 233//233 245//245
f 233//233 244//244 232//232
f 246//246 224//224 232//232
f 224//224 246//246 234//234
f 235//235 234//234 247//247
f 234//234 235//235 226//226
f 104//104 248//248 103//103
f 248//248 104//104 235//235
f 102//102 242//242 101//101
f 242//242 102//102 249//249
f 250//250 237//237 251//251
f 237//237 250//250 236//236
f 237//237 238//238 252//252
f 238//238 237//237 228//228
f 238//238 240//240 253//253
f 240//240 238//238 230//230
f 239//239 152//152 254//254
f 152//152 239//239 151//151
f 240//240 239//239 255//255
f 239//239 240//240 229//229
f 241//241 256//256 257//257
f 256//256 241//241 242//242
f 100//100 258//258 99//99
f 258//258 100//100 241//241
f 245//245 231//231 243//243
f 231//231 245//245 233//233
f 259//259 251//251 260//260
f 251//251 259//259 250//250
f 261//261 236//236 250//250
f 236//236 261//261 243//243
f 262//262 245//245 263//263
f 245//245 262//262 244//244
f 264//264 232//232 244//244
f 232//232 264//264 246//246
f 247//247 246//246 265//265
f 246//246 247//247 234//234
f 248//248 247//247 266//266
f 247//247 248//248 235//235
f 103//103 249//249 102//102
f 249//249 103//103 248//248
f 242//242 267//267 256//256
f 267//267 242//242 249//249
f 251//251 252//252 268//268
f 252//252 251//251 237//237
f 252//252 253//253 269//269
f 253//253 252//252 238//238
f 253//253 255//255 270//270
f 255//255 253//253 240//240
f 254//254 153//153 271//271
f 153//153 254//254 152//152
f 255//255 254//254 272//272
f 254//254 255//255 239//239
f 257//257 273//273 274//274
f 273//273 257//257 256//256
f 258//258 257//257 275//275
f 257//257 258//258 241//241
f 99//99 276//276 98//98
f 276//276 99//99 258//258
f 277//277 155//155 278//278
f 155//155 277//277 154//154
f 260//260 268//268 279//279
f 268//268 260//260 251//251
f 263//263 243//243 261//261
f 243//243 263//263 245//245
f 280//280 260//260 281//281
f 260//260 280//280 259//259
f 282//282 250//250 259//259
f 250//250 282//282 261//261
f 283//283 263//263 284//284
f 263//263 283//283 262//262
f 285//285 244//244 262//262
f 244//244 285//285 264//264
f 265//265 264//264 286//286
f 264//264 265//265 246//246
f 266//266 265//265 287//287
f 265//265 266//266 247//247
f 249//249 266//266 267//267
f 266//266 249//249 248//248
f 256//256 288//288 273//273
f 288//288 256//256 267//267
f 271//271 154//154 277//277
f 154//154 271//271 153//153
f 268//268 269//269 289//289
f 269//269 268//268 252//252
f 269//269 270//270 290//290
f 270//270 269//269 253//253
f 270//270 272//272 291//291
f 272//272 270//270 255//255
f 272//272 271//271 292//292
f 271//271 272//272 254//254
f 274//274 293//293 294//294
f 293//293 274//274 273//273
f 275//275 274//274 295//295
f 274//274 275//275 257//257
f 276//276 275//275 296//296
f 275//275 276//276 258//258
f 98//98 297//297 97//97
f 297//297 98//98 276//276
f 298//298 278//278 299//299
f 278//278 298//298 277//277
f 278//278 166//166 300//300
f 166//166 278//278 155//155
f 301//301 302//302 281//281
f 281//281 279//279 301//301
f 279//279 281//281 260//260
f 279//279 289//289 303//303
f 289//289 279//279 268//268
f 302//302 280//280 281//281
f 284//284 261//261 282//282
f 261//261 284//284 263//263
f 304//304 259//259 280//280
f 259//259 304//304 282//282
f 305//305 284//284 306//306
f 284//284 305//305 283//283
f 307//307 262//262 283//283
f 262//262 307//307 285//285
f 286//286 285//285 308//308
f 285//285 286//286 264//264
f 287//287 286//286 309//309
f 286//286 287//287 265//265
f 267//267 287//287 288//288
f 287//287 267//267 266//266
f 273//273 310//310 293//293
f 310//310 273//273 288//288
f 292//292 277//277 298//298
f 277//277 292//292 271//271
f 289//289 290//290 311//311
f 290//290 289//289 269//269
f 290//290 291//291 312//312
f 291//291 290//290 270//270
f 291//291 292//292 313//313
f 292//292 291//291 272//272
f 294//294 314//314 315//315
f 314//314 294//294 293//293
f 295//295 294//294 316//316
f 294//294 295//295 274//274
f 296//296 295//295 317//317
f 295//295 296//296 275//275
f 297//297 296//296 318//318
f 296//296 297//297 276//276
f 97//97 319//319 96//96
f 319//319 97//97 297//297
f 320//320 299//299 321//321
f 299//299 320//320 298//298
f 300//300 165//165 322//322
f 165//165 300//300 166//166
f 299//299 300//300 323//323
f 300//300 299//299 278//278
f 303//303 311//311 324//324
f 311//311 303//303 289//289
f 325//325 302//302 301//301
f 301//301 303//303 326//326
f 303//303 301//301 279//279
f 302//302 327//327 280//280
f 306//306 282//282 304//304
f 282//282 306//306 284//284
f 328//328 280//280 327//327
f 280//280 328//328 304//304
f 329//329 306//306 330//330
f 306//306 329//329 305//305
f 331//331 283//283 305//305
f 283//283 331//331 307//307
f 308//308 307//307 332//332
f 307//307 308//308 285//285
f 309//309 308//308 333//333
f 308//308 309//309 286//286
f 288//288 309//309 310//310
f 309//309 288//288 287//287
f 293//293 334//334 314//314
f 334//334 293//293 310//310
f 315//315 335//335 336//336
f 335//335 315//315 314//314
f 313//313 298//298 320//320
f 298//298 313//313 292//292
f 311//311 312//312 337//337
f 312//312 311//311 290//290
f 312//312 313//313 338//338
f 313//313 312//312 291//291
f 316//316 315//315 339//339
f 315//315 316//316 294//294
f 317//317 316//316 340//340
f 316//316 317//317 295//295
f 318//318 317//317 341//341
f 317//317 318//318 296//296
f 319//319 318//318 342//342
f 318//318 319//319 297//297
f 96//96 343//343 95//95
f 343//343 96//96 319//319
f 344//344 321//321 345//345
f 321//321 344//344 320//320
f 321//321 323//323 346//346
f 323//323 321//321 299//299
f 322//322 164//164 347//347
f 164//164 322//322 165//165
f 348//348 300//300 322//322
f 300//300 348//348 323//323
f 94//94 349//349 93//93
f 349//349 94//94 350//350
f 324//324 337//337 351//351
f 337//337 324//324 311//311
f 326//326 324//324 352//352
f 324//324 326//326 303//303
f 353//353 302//302 325//325
f 325//325 326//326 354//354
f 326//326 325//325 301//301
f 355//355 327//327 302//302
f 353//353 356//356 302//302
f 330//330 304//304 328//328
f 304//304 330//330 306//306
f 357//357 327//327 355//355
f 327//327 357//357 328//328
f 358//358 330//330 359//359
f 330//330 358//358 329//329
f 360//360 305//305 329//329
f 305//305 360//360 331//331
f 332//332 331//331 361//361
f 331//331 332//332 307//307
f 333//333 332//332 362//362
f 332//332 333//333 308//308
f 310//310 333//333 334//334
f 333//333 310//310 309//309
f 314//314 363//363 335//335
f 363//363 314//314 334//334
f 336//336 364//364 365//365
f 364//364 336//336 335//335
f 339//339 336//336 366//366
f 336//336 339//339 315//315
f 338//338 320//320 344//344
f 320//320 338//338 313//313
f 337//337 338//338 367//367
f 338//338 337//337 312//312
f 368//368 344//344 345//345
f 340//340 339//339 369//369
f 339//339 340//340 316//316
f 341//341 340//340 370//370
f 340//340 341//341 317//317
f 342//342 341//341 371//371
f 341//341 342//342 318//318
f 343//343 342//342 372//372
f 342//342 343//343 319//319
f 95//95 350//350 94//94
f 350//350 95//95 343//343
f 345//345 346//346 373//373
f 346//346 345//345 321//321
f 374//374 323//323 348//348
f 323//323 374//374 346//346
f 347//347 163//163 375//375
f 163//163 347//347 164//164
f 376//376 322//322 347//347
f 322//322 376//376 348//348
f 349//349 377//377 378//378
f 377//377 349//349 350//350
f 93//93 379//379 106//106
f 379//379 93//93 349//349
f 351//351 367//367 380//380
f 367//367 351//351 337//337
f 381//381 380//380 382//382
f 352//352 351//351 383//383
f 351//351 352//352 324//324
f 384//384 383//383 385//385
f 354//354 352//352 386//386
f 352//352 354//354 326//326
f 387//387 386//386 388//388
f 353//353 354//354 389//389
f 354//354 353//353 325//325
f 390//390 389//389 391//391
f 356//356 355//355 302//302
f 392//392 353//353 393//393
f 353//353 392//392 356//356
f 394//394 393//393 395//395
f 359//359 328//328 357//357
f 328//328 359//359 330//330
f 396//396 355//355 397//397
f 355//355 396//396 357//357
f 398//398 359//359 399//399
f 359//359 398//398 358//358
f 400//400 329//329 358//358
f 329//329 400//400 360//360
f 361//361 360//360 401//401
f 360//360 361//361 331//331
f 362//362 361//361 402//402
f 361//361 362//362 332//332
f 334//334 362//362 363//363
f 362//362 334//334 333//333
f 335//335 403//403 364//364
f 403//403 335//335 363//363
f 404//404 365//365 364//364
f 405//405 365//365 404//404
f 366//366 365//365 405//405
f 365//365 366//366 336//336
f 369//369 366//366 406//406
f 366//366 369//369 339//339
f 407//407 344//344 368//368
f 367//367 344//344 407//407
f 344//344 367//367 338//338
f 373//373 368//368 345//345
f 370//370 369//369 408//408
f 369//369 370//370 340//340
f 371//371 370//370 409//409
f 370//370 371//371 341//341
f 372//372 371//371 410//410
f 371//371 372//372 342//342
f 350//350 372//372 377//377
f 372//372 350//350 343//343
f 411//411 346//346 374//374
f 346//346 411//411 373//373
f 412//412 348//348 376//376
f 348//348 412//412 374//374
f 378//378 413//413 414//414
f 413//413 378//378 377//377
f 375//375 162//162 415//415
f 162//162 375//375 163//163
f 416//416 347//347 375//375
f 347//347 416//416 376//376
f 106//106 417//417 107//107
f 417//417 106//106 379//379
f 349//349 418//418 379//379
f 418//418 349//349 378//378
f 380//380 407//407 382//382
f 407//407 380//380 367//367
f 385//385 380//380 381//381
f 383//383 380//380 385//385
f 380//380 383//383 351//351
f 419//419 381//381 382//382
f 388//388 383//383 384//384
f 386//386 383//383 388//388
f 383//383 386//386 352//352
f 420//420 384//384 385//385
f 389//389 387//387 391//391
f 389//389 386//386 387//387
f 386//386 389//389 354//354
f 421//421 387//387 388//388
f 393//393 390//390 395//395
f 393//393 389//389 390//390
f 389//389 393//393 353//353
f 422//422 390//390 391//391
f 397//397 356//356 392//392
f 356//356 397//397 355//355
f 423//423 393//393 394//394
f 393//393 423//423 392//392
f 424//424 394//394 395//395
f 399//399 357//357 396//396
f 357//357 399//399 359//359
f 425//425 397//397 426//426
f 397//397 425//425 396//396
f 427//427 426//426 428//428
f 429//429 399//399 430//430
f 399//399 429//429 398//398
f 431//431 358//358 398//398
f 358//358 431//431 400//400
f 401//401 400//400 432//432
f 400//400 401//401 360//360
f 402//402 401//401 433//433
f 401//401 402//402 361//361
f 363//363 402//402 403//403
f 402//402 363//363 362//362
f 364//364 434//434 435//435
f 434//434 364//364 403//403
f 404//404 364//364 435//435
f 436//436 405//405 404//404
f 406//406 405//405 437//437
f 405//405 406//406 366//366
f 408//408 406//406 438//438
f 406//406 408//408 369//369
f 439//439 373//373 411//411
f 407//407 373//373 439//439
f 373//373 407//407 368//368
f 409//409 408//408 440//440
f 408//408 409//409 370//370
f 410//410 409//409 441//441
f 409//409 410//410 371//371
f 377//377 410//410 413//413
f 410//410 377//377 372//372
f 442//442 374//374 412//412
f 374//374 442//442 411//411
f 414//414 443//443 444//444
f 443//443 414//414 413//413
f 445//445 376//376 416//416
f 376//376 445//445 412//412
f 378//378 446//446 418//418
f 446//446 378//378 414//414
f 415//415 161//161 447//447
f 161//161 415//415 162//162
f 448//448 375//375 415//415
f 375//375 448//448 416//416
f 107//107 449//449 108//108
f 449//449 107//107 417//417
f 379//379 450//450 417//417
f 450//450 379//379 418//418
f 382//382 439//439 419//419
f 439//439 382//382 407//407
f 420//420 419//419 451//451
f 385//385 419//419 420//420
f 419//419 385//385 381//381
f 421//421 420//420 452//452
f 388//388 420//420 421//421
f 420//420 388//388 384//384
f 422//422 421//421 453//453
f 391//391 421//421 422//422
f 421//421 391//391 387//387
f 424//424 422//422 454//454
f 395//395 422//422 424//424
f 422//422 395//395 390//390
f 426//426 423//423 428//428
f 426//426 392//392 423//423
f 392//392 426//426 397//397
f 423//423 424//424 455//455
f 424//424 423//423 394//394
f 430//430 396//396 425//425
f 396//396 430//430 399//399
f 456//456 426//426 427//427
f 426//426 456//456 425//425
f 457//457 427//427 428//428
f 458//458 459//459 460//460
f 461//461 430//430 459//459
f 430//430 461//461 429//429
f 462//462 398//398 429//429
f 398//398 462//462 431//431
f 432//432 431//431 463//463
f 431//431 432//432 400//400
f 433//433 432//432 464//464
f 432//432 433//433 401//401
f 403//403 433//433 434//434
f 433//433 403//403 402//402
f 435//435 465//465 466//466
f 465//465 435//435 434//434
f 466//466 404//404 435//435
f 467//467 404//404 468//468
f 467//467 436//436 404//404
f 437//437 436//436 469//469
f 436//436 437//437 405//405
f 438//438 437//437 470//470
f 437//437 438//438 406//406
f 440//440 438//438 471//471
f 438//438 440//440 408//408
f 472//472 411//411 442//442
f 411//411 472//472 439//439
f 441//441 440//440 473//473
f 440//440 441//441 409//409
f 413//413 441//441 443//443
f 441//441 413//413 410//410
f 444//444 443//443 474//474
f 475//475 412//412 445//445
f 412//412 475//475 442//442
f 414//414 476//476 446//446
f 476//476 414//414 444//444
f 477//477 416//416 448//448
f 416//416 477//477 445//445
f 418//418 478//478 450//450
f 478//478 418//418 446//446
f 447//447 160//160 479//479
f 160//160 447//447 161//161
f 480//480 415//415 447//447
f 415//415 480//480 448//448
f 108//108 481//481 109//109
f 481//481 108//108 449//449
f 417//417 482//482 449//449
f 482//482 417//417 450//450
f 451//451 439//439 472//472
f 439//439 451//451 419//419
f 452//452 451//451 483//483
f 451//451 452//452 420//420
f 453//453 452//452 484//484
f 452//452 453//453 421//421
f 454//454 453//453 485//485
f 453//453 454//454 422//422
f 486//486 454//454 485//485
f 486//486 487//487 454//454
f 455//455 454//454 487//487
f 454//454 455//455 424//424
f 457//457 455//455 488//488
f 428//428 455//455 457//457
f 455//455 428//428 423//423
f 459//459 456//456 460//460
f 459//459 425//425 456//456
f 425//425 459//459 430//430
f 456//456 457//457 489//489
f 457//457 456//456 427//427
f 490//490 458//458 460//460
f 491//491 459//459 458//458
f 459//459 491//491 461//461
f 492//492 429//429 461//461
f 429//429 492//492 462//462
f 463//463 462//462 493//493
f 462//462 463//463 431//431
f 464//464 463//463 494//494
f 463//463 464//464 432//432
f 434//434 464//464 465//465
f 464//464 434//434 433//433
f 466//466 495//495 496//496
f 495//495 466//466 465//465
f 468//468 404//404 466//466
f 497//497 498//498 499//499
f 467//467 500//500 498//498
f 500//500 467//467 468//468
f 501//501 502//502 503//503
f 469//469 467//467 502//502
f 467//467 469//469 436//436
f 504//504 505//505 506//506
f 470//470 469//469 505//505
f 469//469 470//470 437//437
f 507//507 508//508 509//509
f 471//471 470//470 508//508
f 470//470 471//471 438//438
f 510//510 511//511 512//512
f 473//473 471//471 511//511
f 471//471 473//473 440//440
f 513//513 442//442 475//475
f 442//442 513//513 472//472
f 443//443 514//514 474//474
f 443//443 473//473 514//514
f 473//473 443//443 441//441
f 476//476 444//444 474//474
f 515//515 445//445 477//477
f 445//445 515//515 475//475
f 446//446 516//516 478//478
f 516//516 446//446 476//476
f 517//517 448//448 480//480
f 448//448 517//517 477//477
f 450//450 518//518 482//482
f 518//518 450//450 478//478
f 479//479 159//159 519//519
f 159//159 479//479 160//160
f 520//520 447//447 479//479
f 447//447 520//520 480//480
f 109//109 521//521 110//110
f 521//521 109//109 481//481
f 449//449 522//522 481//481
f 522//522 449//449 482//482
f 483//483 472//472 513//513
f 472//472 483//483 451//451
f 484//484 483//483 523//523
f 483//483 484//484 452//452
f 485//485 484//484 524//524
f 484//484 485//485 453//453
f 486//486 485//485 524//524
f 486//486 525//525 487//487
f 488//488 487//487 525//525
f 487//487 488//488 455//455
f 489//489 488//488 526//526
f 488//488 489//489 457//457
f 490//490 489//489 527//527
f 460//460 489//489 490//490
f 489//489 460//460 456//456
f 491//491 490//490 528//528
f 490//490 491//491 458//458
f 529//529 461//461 491//491
f 461//461 529//529 492//492
f 493//493 492//492 530//530
f 492//492 493//493 462//462
f 494//494 493//493 531//531
f 493//493 494//494 463//463
f 465//465 494//494 495//495
f 494//494 465//465 464//464
f 532//532 533//533 534//534
f 496//496 535//535 533//533
f 535//535 496//496 495//495
f 468//468 496//496 500//500
f 496//496 468//468 466//466
f 498//498 536//536 499//499
f 536//536 498//498 500//500
f 537//537 497//497 499//499
f 503//503 498//498 497//497
f 502//502 498//498 503//503
f 498//498 502//502 467//467
f 538//538 501//501 503//503
f 506//506 502//502 501//501
f 505//505 502//502 506//506
f 502//502 505//505 469//469
f 539//539 504//504 506//506
f 508//508 504//504 509//509
f 508//508 505//505 504//504
f 505//505 508//508 470//470
f 540//540 507//507 509//509
f 511//511 507//507 512//512
f 511//511 508//508 507//507
f 508//508 511//511 471//471
f 541//541 510//510 512//512
f 514//514 511//511 510//510
f 511//511 514//514 473//473
f 542//542 475//475 515//515
f 475//475 542//542 513//513
f 476//476 543//543 516//516
f 474//474 543//543 476//476
f 543//543 474//474 514//514
f 544//544 477//477 517//517
f 477//477 544//544 515//515
f 478//478 545//545 518//518
f 545//545 478//478 516//516
f 546//546 480//480 520//520
f 480//480 546//546 517//517
f 482//482 547//547 522//522
f 547//547 482//482 518//518
f 519//519 158//158 548//548
f 158//158 519//519 159//159
f 549//549 479//479 519//519
f 479//479 549//549 520//520
f 110//110 550//550 111//111
f 550//550 110//110 521//521
f 481//481 551//551 521//521
f 551//551 481//481 522//522
f 523//523 513//513 542//542
f 513//513 523//523 483//483
f 524//524 523//523 552//552
f 523//523 524//524 484//484
f 553//553 486//486 524//524
f 554//554 525//525 486//486
f 526//526 525//525 555//555
f 525//525 526//526 488//488
f 527//527 526//526 556//556
f 526//526 527//527 489//489
f 528//528 527//527 557//557
f 527//527 528//528 490//490
f 529//529 528//528 558//558
f 528//528 529//529 491//491
f 530//530 529//529 559//559
f 529//529 530//530 492//492
f 560//560 561//561 562//562
f 531//531 530//530 561//561
f 530//530 531//531 493//493
f 495//495 531//531 535//535
f 531//531 495//495 494//494
f 533//533 563//563 534//534
f 563//563 533//533 535//535
f 564//564 532//532 534//534
f 536//536 533//533 532//532
f 500//500 533//533 536//536
f 533//533 500//500 496//496
f 499//499 565//565 537//537
f 565//565 499//499 536//536
f 538//538 537//537 566//566
f 503//503 537//537 538//538
f 537//537 503//503 497//497
f 539//539 538//538 567//567
f 506//506 538//538 539//539
f 538//538 506//506 501//501
f 540//540 539//539 568//568
f 509//509 539//539 540//540
f 539//539 509//509 504//504
f 541//541 540//540 569//569
f 512//512 540//540 541//541
f 540//540 512//512 507//507
f 514//514 541//541 543//543
f 541//541 514//514 510//510
f 570//570 515//515 544//544
f 515//515 570//570 542//542
f 516//516 571//571 545//545
f 571//571 516//516 543//543
f 572//572 517//517 546//546
f 517//517 572//572 544//544
f 518//518 573//573 547//547
f 573//573 518//518 545//545
f 574//574 520//520 549//549
f 520//520 574//574 546//546
f 522//522 575//575 551//551
f 575//575 522//522 547//547
f 548//548 157//157 576//576
f 157//157 548//548 158//158
f 577//577 519//519 548//548
f 519//519 577//577 549//549
f 111//111 578//578 112//112
f 578//578 111//111 550//550
f 521//521 579//579 550//550
f 579//579 521//521 551//551
f 552//552 542//542 570//570
f 542//542 552//552 523//523
f 553//553 552//552 580//580
f 552//552 553//553 524//524
f 581//581 486//486 553//553
f 581//581 554//554 486//486
f 555//555 554//554 582//582
f 554//554 555//555 525//525
f 556//556 555//555 583//583
f 555//555 556//556 526//526
f 557//557 556//556 584//584
f 556//556 557//557 527//527
f 558//558 557//557 585//585
f 557//557 558//558 528//528
f 559//559 558//558 586//586
f 558//558 559//559 529//529
f 561//561 559//559 562//562
f 559//559 561//561 530//530
f 587//587 560//560 562//562
f 563//563 561//561 560//560
f 535//535 561//561 563//563
f 561//561 535//535 531//531
f 534//534 588//588 564//564
f 588//588 534//534 563//563
f 565//565 564//564 589//589
f 536//536 564//564 565//565
f 564//564 536//536 532//532
f 566//566 565//565 590//590
f 565//565 566//566 537//537
f 591//591 566//566 590//590
f 591//591 592//592 566//566
f 567//567 566//566 592//592
f 566//566 567//567 538//538
f 568//568 567//567 593//593
f 567//567 568//568 539//539
f 569//569 568//568 594//594
f 568//568 569//569 540//540
f 543//543 569//569 571//571
f 569//569 543//543 541//541
f 595//595 544//544 572//572
f 544//544 595//595 570//570
f 545//545 596//596 573//573
f 596//596 545//545 571//571
f 597//597 546//546 574//574
f 546//546 597//597 572//572
f 547//547 598//598 575//575
f 598//598 547//547 573//573
f 599//599 549//549 577//577
f 549//549 599//599 574//574
f 551//551 600//600 579//579
f 600//600 551//551 575//575
f 576//576 156//156 601//601
f 156//156 576//576 157//157
f 602//602 548//548 576//576
f 548//548 602//602 577//577
f 112//112 603//603 114//114
f 603//603 112//112 578//578
f 550//550 604//604 578//578
f 604//604 550//550 579//579
f 580//580 570//570 595//595
f 570//570 580//580 552//552
f 581//581 580//580 605//605
f 580//580 581//581 553//553
f 582//582 581//581 606//606
f 581//581 582//582 554//554
f 583//583 582//582 607//607
f 582//582 583//583 555//555
f 584//584 583//583 608//608
f 583//583 584//584 556//556
f 585//585 584//584 609//609
f 584//584 585//585 557//557
f 610//610 558//558 585//585
f 558//558 610//610 586//586
f 562//562 586//586 587//587
f 586//586 562//562 559//559
f 588//588 587//587 611//611
f 563//563 587//587 588//588
f 587//587 563//563 560//560
f 589//589 588//588 612//612
f 588//588 589//589 564//564
f 590//590 589//589 613//613
f 589//589 590//590 565//565
f 591//591 590//590 613//613
f 591//591 614//614 592//592
f 593//593 592//592 614//614
f 592//592 593//593 567//567
f 594//594 593//593 615//615
f 593//593 594//594 568//568
f 571//571 594//594 596//596
f 594//594 571//571 569//569
f 616//616 572//572 597//597
f 572//572 616//616 595//595
f 573//573 617//617 598//598
f 617//617 573//573 596//596
f 618//618 574//574 599//599
f 574//574 618//618 597//597
f 575//575 619//619 600//600
f 619//619 575//575 598//598
f 620//620 577//577 602//602
f 577//577 620//620 599//599
f 579//579 621//621 604//604
f 621//621 579//579 600//600
f 601//601 118//118 622//622
f 118//118 601//601 156//156
f 623//623 576//576 601//601
f 576//576 623//623 602//602
f 114//114 624//624 115//115
f 624//624 114//114 603//603
f 578//578 625//625 603//603
f 625//625 578//578 604//604
f 605//605 595//595 616//616
f 595//595 605//605 580//580
f 606//606 605//605 626//626
f 605//605 606//606 581//581
f 607//607 606//606 627//627
f 606//606 607//607 582//582
f 608//608 607//607 628//628
f 607//607 608//608 583//583
f 609//609 608//608 629//629
f 608//608 609//609 584//584
f 630//630 585//585 609//609
f 585//585 630//630 610//610
f 611//611 586//586 610//610
f 586//586 611//611 587//587
f 612//612 611//611 631//631
f 611//611 612//612 588//588
f 613//613 612//612 632//632
f 612//612 613//613 589//589
f 633//633 591//591 613//613
f 634//634 614//614 591//591
f 615//615 614//614 635//635
f 614//614 615//615 593//593
f 596//596 615//615 617//617
f 615//615 596//596 594//594
f 636//636 597//597 618//618
f 597//597 636//636 616//616
f 598//598 637//637 619//619
f 637//637 598//598 617//617
f 638//638 599//599 620//620
f 599//599 638//638 618//618
f 600//600 639//639 621//621
f 639//639 600//600 619//619
f 640//640 602//602 623//623
f 602//602 640//640 620//620
f 604//604 641//641 625//625
f 641//641 604//604 621//621
f 117//117 622//622 118//118
f 622//622 117//117 642//642
f 643//643 601//601 622//622
f 601//601 643//643 623//623
f 115//115 644//644 116//116
f 644//644 115//115 624//624
f 603//603 645//645 624//624
f 645//645 603//603 625//625
f 626//626 616//616 636//636
f 616//616 626//626 605//605
f 627//627 626//626 646//646
f 626//626 627//627 606//606
f 628//628 627//627 647//647
f 627//627 628//628 607//607
f 629//629 628//628 648//648
f 628//628 629//629 608//608
f 649//649 609//609 629//629
f 609//609 649//649 630//630
f 631//631 610//610 630//630
f 610//610 631//631 611//611
f 632//632 631//631 650//650
f 631//631 632//632 612//612
f 633//633 632//632 651//651
f 632//632 633//633 613//613
f 652//652 591//591 633//633
f 652//652 634//634 591//591
f 635//635 634//634 653//653
f 634//634 635//635 614//614
f 617//617 635//635 637//637
f 635//635 617//617 615//615
f 654//654 618//618 638//638
f 618//618 654//654 636//636
f 619//619 655//655 639//639
f 655//655 619//619 637//637
f 656//656 620//620 640//640
f 620//620 656//656 638//638
f 621//621 657//657 641//641
f 657//657 621//621 639//639
f 658//658 623//623 643//643
f 623//623 658//658 640//640
f 625//625 659//659 645//645
f 659//659 625//625 641//641
f 116//116 642//642 117//117
f 642//642 116//116 644//644
f 642//642 643//643 622//622
f 643//643 642//642 660//660
f 624//624 661//661 644//644
f 661//661 624//624 645//645
f 646//646 636//636 654//654
f 636//636 646//646 626//626
f 647//647 646//646 662//662
f 646//646 647//647 627//627
f 648//648 647//647 663//663
f 647//647 648//648 628//628
f 664//664 629//629 648//648
f 629//629 664//664 649//649
f 650//650 630//630 649//649
f 630//630 650//650 631//631
f 651//651 650//650 665//665
f 650//650 651//651 632//632
f 652//652 651//651 666//666
f 651//651 652//652 633//633
f 653//653 652//652 667//667
f 652//652 653//653 634//634
f 637//637 653//653 655//655
f 653//653 637//637 635//635
f 668//668 638//638 656//656
f 638//638 668//668 654//654
f 639//639 669//669 657//657
f 669//669 639//639 655//655
f 670//670 640//640 658//658
f 640//640 670//670 656//656
f 641//641 671//671 659//659
f 671//671 641//641 657//657
f 660//660 658//658 643//643
f 658//658 660//660 672//672
f 645//645 673//673 661//661
f 673//673 645//645 659//659
f 644//644 660//660 642//642
f 660//660 644//644 661//661
f 662//662 654//654 668//668
f 654//654 662//662 646//646
f 663//663 662//662 674//674
f 662//662 663//663 647//647
f 675//675 648//648 663//663
f 648//648 675//675 664//664
f 665//665 649//649 664//664
f 649//649 665//665 650//650
f 666//666 665//665 676//676
f 665//665 666//666 651//651
f 667//667 666//666 677//677
f 666//666 667//667 652//652
f 655//655 667//667 669//669
f 667//667 655//655 653//653
f 678//678 656//656 670//670
f 656//656 678//678 668//668
f 657//657 679//679 671//671
f 679//679 657//657 669//669
f 672//672 670//670 658//658
f 670//670 672//672 680//680
f 659//659 681//681 673//673
f 681//681 659//659 671//671
f 661//661 672//672 660//660
f 672//672 661//661 673//673
f 674//674 668//668 678//678
f 668//668 674//674 662//662
f 682//682 663//663 674//674
f 663//663 682//682 675//675
f 676//676 664//664 675//675
f 664//664 676//676 665//665
f 677//677 676//676 683//683
f 676//676 677//677 666//666
f 669//669 677//677 679//679
f 677//677 669//669 667//667
f 680//680 678//678 670//670
f 678//678 680//680 684//684
f 671//671 685//685 681//681
f 685//685 671//671 679//679
f 673//673 680//680 672//672
f 680//680 673//673 681//681
f 684//684 674//674 678//678
f 674//674 684//684 682//682
f 683//683 675//675 682//682
f 675//675 683//683 676//676
f 679//679 683//683 685//685
f 683//683 679//679 677//677
f 681//681 684//684 680//680
f 684//684 681//681 685//685
f 685//685 682//682 684//684
f 682//682 685//685 683//683
f 84//84 80//80 82//82
f 86//86 80//80 84//84
f 86//86 78//78 80//80
f 88//88 78//78 86//86
f 88//88 75//75 78//78
f 88//88 71//71 75//75
f 88//88 72//72 71//71
f 88//88 70//70 72//72
f 90//90 70//70 88//88
f 90//90 68//68 70//70
f 90//90 66//66 68//68
f 119//119 66//66 90//90
f 119//119 64//64 66//66
f 119//119 62//62 64//64
f 121//121 62//62 119//119
f 121//121 60//60 62//62
f 123//123 60//60 121//121
f 123//123 58//58 60//60
f 123//123 56//56 58//58
f 125//125 56//56 123//123
f 125//125 54//54 56//56
f 125//125 52//52 54//54
f 125//125 50//50 52//52
f 127//127 50//50 125//125
f 127//127 139//139 50//50
f 129//129 139//139 127//127
f 129//129 137//137 139//139
f 131//131 137//137 129//129
f 131//131 135//135 137//137
f 135//135 131//131 133//133
f 69//69 75//75 71//71
f 67//67 75//75 69//69
f 67//67 73//73 75//75
f 65//65 73//73 67//67
f 63//63 73//73 65//65
f 63//63 91//91 73//73
f 61//61 91//91 63//63
f 59//59 91//91 61//61
f 59//59 120//120 91//91
f 57//57 120//120 59//59
f 57//57 143//143 120//120
f 55//55 143//143 57//57
f 53//53 143//143 55//55
f 53//53 141//141 143//143
f 51//51 141//141 53//53
f 49//49 141//141 51//51
f 50//50 141//141 49//49
f 141//141 50//50 139//139