# https://github.com/mikedh/trimesh
v 0.03172900 -0.02426800 0.03553900
v 0.03118000 -0.02426800 0.03539200
v 0.03172900 -0.02587400 0.03553900
v 0.03118000 -0.02587400 0.03539200
v 0.03158200 -0.02426800 0.03608700
v 0.03158200 -0.02587400 0.03608700
v 0.03103300 -0.02426800 0.03594000
v 0.03103300 -0.02587400 0.03594000
v 0.02947000 -0.02667700 0.03599100
v 0.02971200 -0.02667700 0.03670300
v 0.02951900 -0.02667700 0.03524100
v 0.02985200 -0.02667700 0.03456600
v 0.03020800 -0.02667700 0.03726800
v 0.03041800 -0.02667700 0.03407100
v 0.03088200 -0.02667700 0.03760100
v 0.03113000 -0.02667700 0.03382900
v 0.03163300 -0.02667700 0.03765000
v 0.03188000 -0.02667700 0.03387800
v 0.03234500 -0.02667700 0.03740800
v 0.03255400 -0.02667700 0.03421100
v 0.03291000 -0.02667700 0.03691300
v 0.03305000 -0.02667700 0.03477600
v 0.03324300 -0.02667700 0.03623800
v 0.03329200 -0.02667700 0.03548800
v 0.03255400 -0.02587400 0.03421100
v 0.03188000 -0.02587400 0.03387800
v 0.03305000 -0.02587400 0.03477600
v 0.03329200 -0.02587400 0.03548800
v 0.03324300 -0.02587400 0.03623800
v 0.03291000 -0.02587400 0.03691300
v 0.03234500 -0.02587400 0.03740800
v 0.03163300 -0.02587400 0.03765000
v 0.03088200 -0.02587400 0.03760100
v 0.03020800 -0.02587400 0.03726800
v 0.02971200 -0.02587400 0.03670300
v 0.02947000 -0.02587400 0.03599100
v 0.02951900 -0.02587400 0.03524100
v 0.02985200 -0.02587400 0.03456600
v 0.03041800 -0.02587400 0.03407100
v 0.03113000 -0.02587400 0.03382900
v 0.03172900 -0.02426800 0.00823700
v 0.03118000 -0.02426800 0.00809000
v 0.03172900 -0.02587400 0.00823700
v 0.03118000 -0.02587400 0.00809000
v 0.03158200 -0.02426800 0.00878500
v 0.03158200 -0.02587400 0.00878500
v 0.03103300 -0.02426800 0.00863900
v 0.03103300 -0.02587400 0.00863900
v 0.02947000 -0.02667700 0.00868900
v 0.02971200 -0.02667700 0.00940200
v 0.02951900 -0.02667700 0.00793900
v 0.02985200 -0.02667700 0.00726500
v 0.03020800 -0.02667700 0.00996700
v 0.03041800 -0.02667700 0.00676900
v 0.03088200 -0.02667700 0.01029900
v 0.03113000 -0.02667700 0.00652700
v 0.03163300 -0.02667700 0.01034900
v 0.03188000 -0.02667700 0.00657600
v 0.03234500 -0.02667700 0.01010700
v 0.03255400 -0.02667700 0.00690900
v 0.03291000 -0.02667700 0.00961100
v 0.03305000 -0.02667700 0.00747400
v 0.03324300 -0.02667700 0.00893700
v 0.03329200 -0.02667700 0.00818600
v 0.03255400 -0.02587400 0.00690900
v 0.03188000 -0.02587400 0.00657600
v 0.03305000 -0.02587400 0.00747400
v 0.03329200 -0.02587400 0.00818600
v 0.03324300 -0.02587400 0.00893700
v 0.03291000 -0.02587400 0.00961100
v 0.03234500 -0.02587400 0.01010700
v 0.03163300 -0.02587400 0.01034900
v 0.03088200 -0.02587400 0.01029900
v 0.03020800 -0.02587400 0.00996700
v 0.02971200 -0.02587400 0.00940200
v 0.02947000 -0.02587400 0.00868900
v 0.02951900 -0.02587400 0.00793900
v 0.02985200 -0.02587400 0.00726500
v 0.03041800 -0.02587400 0.00676900
v 0.03113000 -0.02587400 0.00652700
v 0.03172900 -0.02426800 -0.01906400
v 0.03118000 -0.02426800 -0.01921100
v 0.03172900 -0.02587400 -0.01906400
v 0.03118000 -0.02587400 -0.01921100
v 0.03158200 -0.02426800 -0.01851600
v 0.03158200 -0.02587400 -0.01851600
v 0.03103300 -0.02426800 -0.01866300
v 0.03103300 -0.02587400 -0.01866300
v 0.02947000 -0.02667700 -0.01861200
v 0.02971200 -0.02667700 -0.01790000
v 0.02951900 -0.02667700 -0.01936200
v 0.02985200 -0.02667700 -0.02003700
v 0.03020800 -0.02667700 -0.01733500
v 0.03041800 -0.02667700 -0.02053300
v 0.03088200 -0.02667700 -0.01700200
v 0.03113000 -0.02667700 -0.02077400
v 0.03163300 -0.02667700 -0.01695300
v 0.03188000 -0.02667700 -0.02072500
v 0.03234500 -0.02667700 -0.01719500
v 0.03255400 -0.02667700 -0.02039200
v 0.03291000 -0.02667700 -0.01769100
v 0.03305000 -0.02667700 -0.01982700
v 0.03324300 -0.02667700 -0.01836500
v 0.03329200 -0.02667700 -0.01911500
v 0.03255400 -0.02587400 -0.02039200
v 0.03188000 -0.02587400 -0.02072500
v 0.03305000 -0.02587400 -0.01982700
v 0.03329200 -0.02587400 -0.01911500
v 0.03324300 -0.02587400 -0.01836500
v 0.03291000 -0.02587400 -0.01769100
v 0.03234500 -0.02587400 -0.01719500
v 0.03163300 -0.02587400 -0.01695300
v 0.03088200 -0.02587400 -0.01700200
v 0.03020800 -0.02587400 -0.01733500
v 0.02971200 -0.02587400 -0.01790000
v 0.02947000 -0.02587400 -0.01861200
v 0.02951900 -0.02587400 -0.01936200
v 0.02985200 -0.02587400 -0.02003700
v 0.03041800 -0.02587400 -0.02053300
v 0.03113000 -0.02587400 -0.02077400
v 0.03172900 -0.02426800 -0.04636600
v 0.03118000 -0.02426800 -0.04651300
v 0.03172900 -0.02587400 -0.04636600
v 0.03118000 -0.02587400 -0.04651300
v 0.03158200 -0.02426800 -0.04581800
v 0.03158200 -0.02587400 -0.04581800
v 0.03103300 -0.02426800 -0.04596400
v 0.03103300 -0.02587400 -0.04596400
v 0.02947000 -0.02667700 -0.04591400
v 0.02971200 -0.02667700 -0.04520200
v 0.02951900 -0.02667700 -0.04666400
v 0.02985200 -0.02667700 -0.04733800
v 0.03020800 -0.02667700 -0.04463600
v 0.03041800 -0.02667700 -0.04783400
v 0.03088200 -0.02667700 -0.04430400
v 0.03113000 -0.02667700 -0.04807600
v 0.03163300 -0.02667700 -0.04425500
v 0.03188000 -0.02667700 -0.04802700
v 0.03234500 -0.02667700 -0.04449600
v 0.03255400 -0.02667700 -0.04769400
v 0.03291000 -0.02667700 -0.04499200
v 0.03305000 -0.02667700 -0.04712900
v 0.03324300 -0.02667700 -0.04566600
v 0.03329200 -0.02667700 -0.04641700
v 0.03255400 -0.02587400 -0.04769400
v 0.03188000 -0.02587400 -0.04802700
v 0.03305000 -0.02587400 -0.04712900
v 0.03329200 -0.02587400 -0.04641700
v 0.03324300 -0.02587400 -0.04566600
v 0.03291000 -0.02587400 -0.04499200
v 0.03234500 -0.02587400 -0.04449600
v 0.03163300 -0.02587400 -0.04425500
v 0.03088200 -0.02587400 -0.04430400
v 0.03020800 -0.02587400 -0.04463600
v 0.02971200 -0.02587400 -0.04520200
v 0.02947000 -0.02587400 -0.04591400
v 0.02951900 -0.02587400 -0.04666400
v 0.02985200 -0.02587400 -0.04733800
v 0.03041800 -0.02587400 -0.04783400
v 0.03113000 -0.02587400 -0.04807600
v -0.03090400 -0.02426800 0.03553900
v -0.03145300 -0.02426800 0.03539200
v -0.03090400 -0.02587400 0.03553900
v -0.03145300 -0.02587400 0.03539200
v -0.03105100 -0.02426800 0.03608700
v -0.03105100 -0.02587400 0.03608700
v -0.03160000 -0.02426800 0.03594000
v -0.03160000 -0.02587400 0.03594000
v -0.03316300 -0.02667700 0.03599100
v -0.03292100 -0.02667700 0.03670300
v -0.03311300 -0.02667700 0.03524100
v -0.03278100 -0.02667700 0.03456600
v -0.03242500 -0.02667700 0.03726800
v -0.03221500 -0.02667700 0.03407100
v -0.03175100 -0.02667700 0.03760100
v -0.03150300 -0.02667700 0.03382900
v -0.03100000 -0.02667700 0.03765000
v -0.03075300 -0.02667700 0.03387800
v -0.03028800 -0.02667700 0.03740800
v -0.03007900 -0.02667700 0.03421100
v -0.02972300 -0.02667700 0.03691300
v -0.02958300 -0.02667700 0.03477600
v -0.02939000 -0.02667700 0.03623800
v -0.02934100 -0.02667700 0.03548800
v -0.03007900 -0.02587400 0.03421100
v -0.03075300 -0.02587400 0.03387800
v -0.02958300 -0.02587400 0.03477600
v -0.02934100 -0.02587400 0.03548800
v -0.02939000 -0.02587400 0.03623800
v -0.02972300 -0.02587400 0.03691300
v -0.03028800 -0.02587400 0.03740800
v -0.03100000 -0.02587400 0.03765000
v -0.03175100 -0.02587400 0.03760100
v -0.03242500 -0.02587400 0.03726800
v -0.03292100 -0.02587400 0.03670300
v -0.03316300 -0.02587400 0.03599100
v -0.03311300 -0.02587400 0.03524100
v -0.03278100 -0.02587400 0.03456600
v -0.03221500 -0.02587400 0.03407100
v -0.03150300 -0.02587400 0.03382900
v -0.03090400 -0.02426800 0.00823700
v -0.03145300 -0.02426800 0.00809000
v -0.03090400 -0.02587400 0.00823700
v -0.03145300 -0.02587400 0.00809000
v -0.03105100 -0.02426800 0.00878500
v -0.03105100 -0.02587400 0.00878500
v -0.03160000 -0.02426800 0.00863900
v -0.03160000 -0.02587400 0.00863900
v -0.03316300 -0.02667700 0.00868900
v -0.03292100 -0.02667700 0.00940200
v -0.03311300 -0.02667700 0.00793900
v -0.03278100 -0.02667700 0.00726500
v -0.03242500 -0.02667700 0.00996700
v -0.03221500 -0.02667700 0.00676900
v -0.03175100 -0.02667700 0.01029900
v -0.03150300 -0.02667700 0.00652700
v -0.03100000 -0.02667700 0.01034900
v -0.03075300 -0.02667700 0.00657600
v -0.03028800 -0.02667700 0.01010700
v -0.03007900 -0.02667700 0.00690900
v -0.02972300 -0.02667700 0.00961100
v -0.02958300 -0.02667700 0.00747400
v -0.02939000 -0.02667700 0.00893700
v -0.02934100 -0.02667700 0.00818600
v -0.03007900 -0.02587400 0.00690900
v -0.03075300 -0.02587400 0.00657600
v -0.02958300 -0.02587400 0.00747400
v -0.02934100 -0.02587400 0.00818600
v -0.02939000 -0.02587400 0.00893700
v -0.02972300 -0.02587400 0.00961100
v -0.03028800 -0.02587400 0.01010700
v -0.03100000 -0.02587400 0.01034900
v -0.03175100 -0.02587400 0.01029900
v -0.03242500 -0.02587400 0.00996700
v -0.03292100 -0.02587400 0.00940200
v -0.03316300 -0.02587400 0.00868900
v -0.03311300 -0.02587400 0.00793900
v -0.03278100 -0.02587400 0.00726500
v -0.03221500 -0.02587400 0.00676900
v -0.03150300 -0.02587400 0.00652700
v -0.03090400 -0.02426800 -0.01906400
v -0.03145300 -0.02426800 -0.01921100
v -0.03090400 -0.02587400 -0.01906400
v -0.03145300 -0.02587400 -0.01921100
v -0.03105100 -0.02426800 -0.01851600
v -0.03105100 -0.02587400 -0.01851600
v -0.03160000 -0.02426800 -0.01866300
v -0.03160000 -0.02587400 -0.01866300
v -0.03316300 -0.02667700 -0.01861200
v -0.03292100 -0.02667700 -0.01790000
v -0.03311300 -0.02667700 -0.01936200
v -0.03278100 -0.02667700 -0.02003700
v -0.03242500 -0.02667700 -0.01733500
v -0.03221500 -0.02667700 -0.02053300
v -0.03175100 -0.02667700 -0.01700200
v -0.03150300 -0.02667700 -0.02077400
v -0.03100000 -0.02667700 -0.01695300
v -0.03075300 -0.02667700 -0.02072500
v -0.03028800 -0.02667700 -0.01719500
v -0.03007900 -0.02667700 -0.02039200
v -0.02972300 -0.02667700 -0.01769100
v -0.02958300 -0.02667700 -0.01982700
v -0.02939000 -0.02667700 -0.01836500
v -0.02934100 -0.02667700 -0.01911500
v -0.03007900 -0.02587400 -0.02039200
v -0.03075300 -0.02587400 -0.02072500
v -0.02958300 -0.02587400 -0.01982700
v -0.02934100 -0.02587400 -0.01911500
v -0.02939000 -0.02587400 -0.01836500
v -0.02972300 -0.02587400 -0.01769100
v -0.03028800 -0.02587400 -0.01719500
v -0.03100000 -0.02587400 -0.01695300
v -0.03175100 -0.02587400 -0.01700200
v -0.03242500 -0.02587400 -0.01733500
v -0.03292100 -0.02587400 -0.01790000
v -0.03316300 -0.02587400 -0.01861200
v -0.03311300 -0.02587400 -0.01936200
v -0.03278100 -0.02587400 -0.02003700
v -0.03221500 -0.02587400 -0.02053300
v -0.03150300 -0.02587400 -0.02077400
v -0.03090400 -0.02426800 -0.04636600
v -0.03145300 -0.02426800 -0.04651300
v -0.03090400 -0.02587400 -0.04636600
v -0.03145300 -0.02587400 -0.04651300
v -0.03105100 -0.02426800 -0.04581800
v -0.03105100 -0.02587400 -0.04581800
v -0.03160000 -0.02426800 -0.04596400
v -0.03160000 -0.02587400 -0.04596400
v -0.03316300 -0.02667700 -0.04591400
v -0.03292100 -0.02667700 -0.04520200
v -0.03311300 -0.02667700 -0.04666400
v -0.03278100 -0.02667700 -0.04733800
v -0.03242500 -0.02667700 -0.04463600
v -0.03221500 -0.02667700 -0.04783400
v -0.03175100 -0.02667700 -0.04430400
v -0.03150300 -0.02667700 -0.04807600
v -0.03100000 -0.02667700 -0.04425500
v -0.03075300 -0.02667700 -0.04802700
v -0.03028800 -0.02667700 -0.04449600
v -0.03007900 -0.02667700 -0.04769400
v -0.02972300 -0.02667700 -0.04499200
v -0.02958300 -0.02667700 -0.04712900
v -0.02939000 -0.02667700 -0.04566600
v -0.02934100 -0.02667700 -0.04641700
v -0.03007900 -0.02587400 -0.04769400
v -0.03075300 -0.02587400 -0.04802700
v -0.02958300 -0.02587400 -0.04712900
v -0.02934100 -0.02587400 -0.04641700
v -0.02939000 -0.02587400 -0.04566600
v -0.02972300 -0.02587400 -0.04499200
v -0.03028800 -0.02587400 -0.04449600
v -0.03100000 -0.02587400 -0.04425500
v -0.03175100 -0.02587400 -0.04430400
v -0.03242500 -0.02587400 -0.04463600
v -0.03292100 -0.02587400 -0.04520200
v -0.03316300 -0.02587400 -0.04591400
v -0.03311300 -0.02587400 -0.04666400
v -0.03278100 -0.02587400 -0.04733800
v -0.03221500 -0.02587400 -0.04783400
v -0.03150300 -0.02587400 -0.04807600
v 0.02490400 -0.02426800 0.05802200
v 0.02435500 -0.02426800 0.05787500
v 0.02490400 -0.02587400 0.05802200
v 0.02435500 -0.02587400 0.05787500
v 0.02475600 -0.02426800 0.05857100
v 0.02475600 -0.02587400 0.05857100
v 0.02420800 -0.02426800 0.05842400
v 0.02420800 -0.02587400 0.05842400
v 0.02264500 -0.02667700 0.05847500
v 0.02288700 -0.02667700 0.05918700
v 0.02269400 -0.02667700 0.05772400
v 0.02302700 -0.02667700 0.05705000
v 0.02338200 -0.02667700 0.05975200
v 0.02359200 -0.02667700 0.05655400
v 0.02405700 -0.02667700 0.06008400
v 0.02430400 -0.02667700 0.05631200
v 0.02480700 -0.02667700 0.06013400
v 0.02505500 -0.02667700 0.05636200
v 0.02551900 -0.02667700 0.05989200
v 0.02572900 -0.02667700 0.05669400
v 0.02608500 -0.02667700 0.05939600
v 0.02622500 -0.02667700 0.05726000
v 0.02641700 -0.02667700 0.05872200
v 0.02646700 -0.02667700 0.05797200
v 0.02572900 -0.02587400 0.05669400
v 0.02505500 -0.02587400 0.05636200
v 0.02622500 -0.02587400 0.05726000
v 0.02646700 -0.02587400 0.05797200
v 0.02641700 -0.02587400 0.05872200
v 0.02608500 -0.02587400 0.05939600
v 0.02551900 -0.02587400 0.05989200
v 0.02480700 -0.02587400 0.06013400
v 0.02405700 -0.02587400 0.06008400
v 0.02338200 -0.02587400 0.05975200
v 0.02288700 -0.02587400 0.05918700
v 0.02264500 -0.02587400 0.05847500
v 0.02269400 -0.02587400 0.05772400
v 0.02302700 -0.02587400 0.05705000
v 0.02359200 -0.02587400 0.05655400
v 0.02430400 -0.02587400 0.05631200
v -0.02407900 -0.02426800 0.05802200
v -0.02462700 -0.02426800 0.05787500
v -0.02407900 -0.02587400 0.05802200
v -0.02462700 -0.02587400 0.05787500
v -0.02422600 -0.02426800 0.05857100
v -0.02422600 -0.02587400 0.05857100
v -0.02477400 -0.02426800 0.05842400
v -0.02477400 -0.02587400 0.05842400
v -0.02633700 -0.02667700 0.05847500
v -0.02609600 -0.02667700 0.05918700
v -0.02628800 -0.02667700 0.05772400
v -0.02595500 -0.02667700 0.05705000
v -0.02560000 -0.02667700 0.05975200
v -0.02539000 -0.02667700 0.05655400
v -0.02492500 -0.02667700 0.06008400
v -0.02467800 -0.02667700 0.05631200
v -0.02417500 -0.02667700 0.06013400
v -0.02392800 -0.02667700 0.05636200
v -0.02346300 -0.02667700 0.05989200
v -0.02325300 -0.02667700 0.05669400
v -0.02289800 -0.02667700 0.05939600
v -0.02275800 -0.02667700 0.05726000
v -0.02256500 -0.02667700 0.05872200
v -0.02251600 -0.02667700 0.05797200
v -0.02325300 -0.02587400 0.05669400
v -0.02392800 -0.02587400 0.05636200
v -0.02275800 -0.02587400 0.05726000
v -0.02251600 -0.02587400 0.05797200
v -0.02256500 -0.02587400 0.05872200
v -0.02289800 -0.02587400 0.05939600
v -0.02346300 -0.02587400 0.05989200
v -0.02417500 -0.02587400 0.06013400
v -0.02492500 -0.02587400 0.06008400
v -0.02560000 -0.02587400 0.05975200
v -0.02609600 -0.02587400 0.05918700
v -0.02633700 -0.02587400 0.05847500
v -0.02628800 -0.02587400 0.05772400
v -0.02595500 -0.02587400 0.05705000
v -0.02539000 -0.02587400 0.05655400
v -0.02467800 -0.02587400 0.05631200
v 0.05225900 0.02712300 -0.06315200
v -0.05213000 0.02712300 0.07014400
v 0.05225900 0.02712300 0.07014400
v -0.05213000 0.02712300 -0.06315200
v 0.05225900 -0.02426800 0.07014400
v -0.05213000 -0.02426800 0.07014400
v 0.05225900 -0.02426800 -0.06315200
v -0.05213000 -0.02426800 -0.06315200
v -0.04891800 -0.02426800 0.06693200
v -0.04891800 -0.02426800 0.04926700
v -0.04891800 -0.02426800 0.02196500
v -0.04891800 -0.02426800 -0.00533600
v -0.04891800 -0.02426800 -0.03263800
v -0.04891800 -0.02426800 -0.05994000
v 0.04904700 -0.02426800 -0.05994000
v 0.00006500 -0.02426800 0.06693200
v 0.04904700 -0.02426800 0.06693200
v 0.04904700 -0.02426800 0.04926700
v 0.04904700 -0.02426800 0.02196500
v 0.04904700 -0.02426800 -0.00533600
v 0.04904700 -0.02426800 -0.03263800
v 0.00006500 -0.02426800 0.04926700
v 0.04397900 -0.01654400 -0.07439300
v 0.04278500 -0.01902300 -0.07439300
v 0.04278500 -0.01749600 -0.07439300
v 0.04397900 -0.01997600 -0.07439300
v 0.04546800 -0.01688300 -0.07439300
v 0.04546800 -0.01963600 -0.07439300
v 0.04613100 -0.01826000 -0.07439300
v 0.04647900 -0.02101200 -0.06315200
v 0.04350000 -0.02169200 -0.06315200
v 0.04111200 -0.01978700 -0.06315200
v 0.04111200 -0.01673200 -0.06315200
v 0.04350000 -0.01482700 -0.06315200
v 0.04647900 -0.01550700 -0.06315200
v 0.04780400 -0.01826000 -0.06315200
v 0.04472700 0.02241600 -0.07439300
v 0.04353300 0.01993600 -0.07439300
v 0.04353300 0.02146300 -0.07439300
v 0.04472700 0.01898300 -0.07439300
v 0.04621600 0.02207600 -0.07439300
v 0.04621600 0.01932300 -0.07439300
v 0.04687900 0.02069900 -0.07439300
v 0.04722700 0.01794700 -0.06315200
v 0.04424900 0.01726700 -0.06315200
v 0.04186000 0.01917200 -0.06315200
v 0.04186000 0.02222700 -0.06315200
v 0.04424900 0.02413200 -0.06315200
v 0.04722700 0.02345200 -0.06315200
v 0.04855300 0.02069900 -0.06315200
v -0.04601000 0.02241600 -0.07439300
v -0.04720400 0.01993600 -0.07439300
v -0.04720400 0.02146300 -0.07439300
v -0.04601000 0.01898300 -0.07439300
v -0.04452100 0.02207600 -0.07439300
v -0.04452100 0.01932300 -0.07439300
v -0.04385800 0.02069900 -0.07439300
v -0.04351100 0.01794700 -0.06315200
v -0.04648900 0.01726700 -0.06315200
v -0.04887700 0.01917200 -0.06315200
v -0.04887700 0.02222700 -0.06315200
v -0.04648900 0.02413200 -0.06315200
v -0.04351100 0.02345200 -0.06315200
v -0.04218500 0.02069900 -0.06315200
v -0.04601000 -0.01612800 -0.07439300
v -0.04720400 -0.01860800 -0.07439300
v -0.04720400 -0.01708000 -0.07439300
v -0.04601000 -0.01956000 -0.07439300
v -0.04452100 -0.01646800 -0.07439300
v -0.04452100 -0.01922000 -0.07439300
v -0.04385800 -0.01784400 -0.07439300
v -0.04351100 -0.02059600 -0.06315200
v -0.04648900 -0.02127600 -0.06315200
v -0.04887700 -0.01937100 -0.06315200
v -0.04887700 -0.01631700 -0.06315200
v -0.04648900 -0.01441200 -0.06315200
v -0.04351100 -0.01509200 -0.06315200
v -0.04218500 -0.01784400 -0.06315200
vn 0.00000000 -0.00000000 -0.00000000
vn -0.00000000 0.00000000 -0.00000000
vn 0.00000000 -0.00000000 0.00000000
vn 0.00000000 -0.00000000 -0.00000000
vn 0.00000000 0.00000000 0.00000000
vn -0.00000000 0.00000000 -0.00000000
vn 0.00000000 0.00000000 -0.00000000
vn -0.00000000 -0.00000000 -0.00000000
vn -0.00000000 0.00000000 0.00000000
vn 0.00000000 -0.00000000 -0.00000000
vn -0.00000000 -0.00000000 -0.00000000
vn 0.00000000 0.00000000 0.00000000
vn -0.00000000 0.00000000 0.00000000
vn -0.00000000 -0.00000000 -0.00000000
vn 0.00000000 -0.00000000 0.00000000
vn -0.00000000 0.00000000 -0.00000000
vn 0.00000000 0.00000000 0.00000000
vn 0.00000000 0.00000000 0.00000000
vn 0.00000000 -0.00000000 -0.00000000
vn 0.00000000 0.00000000 -0.00000000
vn -0.00000000 -0.00000000 -0.00000000
vn -0.00000000 0.00000000 -0.00000000
vn 0.00000000 0.00000000 0.00000000
vn 0.00000000 0.00000000 -0.00000000
vn 0.00000000 0.00000000 -0.00000000
vn 0.00000000 -0.00000000 -0.00000000
vn 0.00000000 0.00000000 -0.00000000
vn -0.00000000 -0.00000000 0.00000000
vn -0.00000000 -0.00000000 -0.00000000
vn 0.00000000 -0.00000000 0.00000000
vn -0.00000000 0.00000000 -0.00000000
vn 0.00000000 -0.00000000 -0.00000000
vn -0.00000000 0.00000000 0.00000000
vn 0.00000000 -0.00000000 0.00000000
vn -0.00000000 0.00000000 0.00000000
vn 0.00000000 -0.00000000 -0.00000000
vn 0.00000000 0.00000000 0.00000000
vn -0.00000000 -0.00000000 -0.00000000
vn 0.00000000 0.00000000 0.00000000
vn 0.00000000 0.00000000 0.00000000
vn -0.00000000 0.00000000 -0.00000000
vn -0.00000000 -0.00000000 -0.00000000
vn 0.00000000 -0.00000000 -0.00000000
vn 0.00000000 -0.00000000 0.00000000
vn 0.00000000 -0.00000000 0.00000000
vn -0.00000000 0.00000000 -0.00000000
vn 0.00000000 0.00000000 -0.00000000
vn -0.00000000 -0.00000000 0.00000000
vn 0.00000000 0.00000000 -0.00000000
vn -0.00000000 -0.00000000 0.00000000
vn -0.00000000 -0.00000000 -0.00000000
vn 0.00000000 0.00000000 0.00000000
vn 0.00000000 0.00000000 0.00000000
vn 0.00000000 -0.00000000 -0.00000000
vn 0.00000000 -0.00000000 -0.00000000
vn 0.00000000 0.00000000 0.00000000
vn -0.00000000 -0.00000000 0.00000000
vn 0.00000000 -0.00000000 0.00000000
vn 0.00000000 -0.00000000 0.00000000
vn 0.00000000 0.00000000 -0.00000000
vn 0.00000000 -0.00000000 0.00000000
vn 0.00000000 0.00000000 -0.00000000
vn -0.00000000 0.00000000 0.00000000
vn 0.00000000 0.00000000 0.00000000
vn 0.00000000 0.00000000 0.00000000
vn 0.00000000 0.00000000 -0.00000000
vn 0.00000000 0.00000000 -0.00000000
vn 0.00000000 -0.00000000 -0.00000000
vn 0.00000000 -0.00000000 0.00000000
vn -0.00000000 -0.00000000 0.00000000
vn -0.00000000 0.00000000 0.00000000
vn 0.00000000 0.00000000 -0.00000000
vn -0.00000000 0.00000000 0.00000000
vn 0.00000000 -0.00000000 -0.00000000
vn 0.00000000 0.00000000 -0.00000000
vn -0.00000000 -0.00000000 0.00000000
vn 0.00000000 0.00000000 0.00000000
vn -0.00000000 -0.00000000 -0.00000000
vn 0.00000000 0.00000000 0.00000000
vn 0.00000000 0.00000000 0.00000000
vn -0.00000000 0.00000000 0.00000000
vn -0.00000000 0.00000000 -0.00000000
vn 0.00000000 -0.00000000 -0.00000000
vn 0.00000000 -0.00000000 0.00000000
vn 0.00000000 0.00000000 0.00000000
vn -0.00000000 0.00000000 0.00000000
vn 0.00000000 -0.00000000 0.00000000
vn -0.00000000 -0.00000000 -0.00000000
vn 0.00000000 0.00000000 -0.00000000
vn -0.00000000 -0.00000000 0.00000000
vn -0.00000000 -0.00000000 0.00000000
vn 0.00000000 0.00000000 0.00000000
vn 0.00000000 0.00000000 0.00000000
vn 0.00000000 -0.00000000 0.00000000
vn 0.00000000 -0.00000000 0.00000000
vn -0.00000000 0.00000000 -0.00000000
vn -0.00000000 0.00000000 -0.00000000
vn 0.00000000 0.00000000 0.00000000
vn 0.00000000 -0.00000000 0.00000000
vn 0.00000000 0.00000000 -0.00000000
vn 0.00000000 0.00000000 0.00000000
vn 0.00000000 0.00000000 -0.00000000
vn 0.00000000 0.00000000 0.00000000
vn 0.00000000 0.00000000 0.00000000
vn 0.00000000 0.00000000 0.00000000
vn 0.00000000 -0.00000000 -0.00000000
vn 0.00000000 0.00000000 -0.00000000
vn 0.00000000 -0.00000000 -0.00000000
vn 0.00000000 0.00000000 0.00000000
vn 0.00000000 -0.00000000 0.00000000
vn -0.00000000 -0.00000000 -0.00000000
vn 0.00000000 0.00000000 0.00000000
vn -0.00000000 -0.00000000 0.00000000
vn 0.00000000 -0.00000000 0.00000000
vn 0.00000000 0.00000000 -0.00000000
vn -0.00000000 -0.00000000 0.00000000
vn 0.00000000 0.00000000 0.00000000
vn -0.00000000 -0.00000000 0.00000000
vn -0.00000000 0.00000000 -0.00000000
vn 0.00000000 0.00000000 0.00000000
vn 0.00000000 -0.00000000 -0.00000000
vn -0.00000000 0.00000000 -0.00000000
vn 0.00000000 -0.00000000 0.00000000
vn 0.00000000 -0.00000000 -0.00000000
vn 0.00000000 0.00000000 0.00000000
vn -0.00000000 0.00000000 -0.00000000
vn 0.00000000 0.00000000 -0.00000000
vn 0.00000000 -0.00000000 0.00000000
vn 0.00000000 0.00000000 0.00000000
vn -0.00000000 0.00000000 0.00000000
vn -0.00000000 -0.00000000 -0.00000000
vn 0.00000000 -0.00000000 -0.00000000
vn 0.00000000 -0.00000000 -0.00000000
vn 0.00000000 -0.00000000 0.00000000
vn -0.00000000 0.00000000 0.00000000
vn -0.00000000 -0.00000000 -0.00000000
vn -0.00000000 0.00000000 -0.00000000
vn 0.00000000 -0.00000000 0.00000000
vn 0.00000000 -0.00000000 0.00000000
vn 0.00000000 0.00000000 -0.00000000
vn 0.00000000 -0.00000000 0.00000000
vn -0.00000000 0.00000000 -0.00000000
vn 0.00000000 0.00000000 0.00000000
vn 0.00000000 -0.00000000 -0.00000000
vn 0.00000000 0.00000000 -0.00000000
vn 0.00000000 0.00000000 -0.00000000
vn 0.00000000 -0.00000000 -0.00000000
vn -0.00000000 0.00000000 0.00000000
vn 0.00000000 -0.00000000 0.00000000
vn 0.00000000 -0.00000000 -0.00000000
vn 0.00000000 -0.00000000 -0.00000000
vn 0.00000000 0.00000000 0.00000000
vn 0.00000000 -0.00000000 0.00000000
vn 0.00000000 0.00000000 0.00000000
vn 0.00000000 0.00000000 -0.00000000
vn -0.00000000 -0.00000000 0.00000000
vn 0.00000000 -0.00000000 0.00000000
vn -0.00000000 -0.00000000 0.00000000
vn -0.00000000 0.00000000 -0.00000000
vn 0.00000000 0.00000000 0.00000000
vn -0.00000000 0.00000000 -0.00000000
vn -0.00000000 0.00000000 -0.00000000
vn 0.00000000 -0.00000000 0.00000000
vn 0.00000000 -0.00000000 -0.00000000
vn 0.00000000 0.00000000 0.00000000
vn -0.00000000 0.00000000 -0.00000000
vn 0.00000000 -0.00000000 -0.00000000
vn -0.00000000 0.00000000 0.00000000
vn -0.00000000 -0.00000000 0.00000000
vn 0.00000000 -0.00000000 -0.00000000
vn 0.00000000 0.00000000 -0.00000000
vn 0.00000000 0.00000000 0.00000000
vn 0.00000000 0.00000000 0.00000000
vn -0.00000000 -0.00000000 -0.00000000
vn 0.00000000 0.00000000 0.00000000
vn 0.00000000 -0.00000000 0.00000000
vn 0.00000000 0.00000000 0.00000000
vn 0.00000000 -0.00000000 -0.00000000
vn -0.00000000 -0.00000000 -0.00000000
vn 0.00000000 -0.00000000 0.00000000
vn -0.00000000 -0.00000000 -0.00000000
vn 0.00000000 0.00000000 0.00000000
vn 0.00000000 -0.00000000 0.00000000
vn 0.00000000 0.00000000 0.00000000
vn 0.00000000 0.00000000 -0.00000000
vn 0.00000000 -0.00000000 0.00000000
vn 0.00000000 0.00000000 0.00000000
vn 0.00000000 -0.00000000 0.00000000
vn -0.00000000 -0.00000000 -0.00000000
vn 0.00000000 0.00000000 0.00000000
vn 0.00000000 0.00000000 0.00000000
vn -0.00000000 -0.00000000 -0.00000000
vn -0.00000000 0.00000000 0.00000000
vn 0.00000000 -0.00000000 0.00000000
vn -0.00000000 -0.00000000 0.00000000
vn 0.00000000 0.00000000 -0.00000000
vn 0.00000000 0.00000000 0.00000000
vn 0.00000000 -0.00000000 -0.00000000
vn 0.00000000 -0.00000000 0.00000000
vn -0.00000000 -0.00000000 -0.00000000
vn -0.00000000 0.00000000 -0.00000000
vn 0.00000000 -0.00000000 0.00000000
vn 0.00000000 -0.00000000 0.00000000
vn 0.00000000 -0.00000000 0.00000000
vn 0.00000000 0.00000000 0.00000000
vn -0.00000000 -0.00000000 -0.00000000
vn 0.00000000 0.00000000 0.00000000
vn 0.00000000 -0.00000000 0.00000000
vn 0.00000000 -0.00000000 -0.00000000
vn -0.00000000 0.00000000 0.00000000
vn 0.00000000 0.00000000 0.00000000
vn -0.00000000 -0.00000000 0.00000000
vn 0.00000000 0.00000000 0.00000000
vn -0.00000000 0.00000000 -0.00000000
vn 0.00000000 -0.00000000 -0.00000000
vn 0.00000000 0.00000000 0.00000000
vn -0.00000000 0.00000000 0.00000000
vn 0.00000000 0.00000000 -0.00000000
vn -0.00000000 -0.00000000 0.00000000
vn 0.00000000 0.00000000 0.00000000
vn 0.00000000 0.00000000 0.00000000
vn 0.00000000 0.00000000 -0.00000000
vn -0.00000000 -0.00000000 0.00000000
vn -0.00000000 0.00000000 0.00000000
vn 0.00000000 -0.00000000 -0.00000000
vn 0.00000000 0.00000000 0.00000000
vn -0.00000000 0.00000000 0.00000000
vn 0.00000000 -0.00000000 -0.00000000
vn 0.00000000 -0.00000000 0.00000000
vn -0.00000000 -0.00000000 0.00000000
vn -0.00000000 0.00000000 0.00000000
vn 0.00000000 0.00000000 -0.00000000
vn -0.00000000 0.00000000 0.00000000
vn -0.00000000 0.00000000 -0.00000000
vn 0.00000000 -0.00000000 -0.00000000
vn 0.00000000 0.00000000 0.00000000
vn -0.00000000 -0.00000000 -0.00000000
vn 0.00000000 0.00000000 0.00000000
vn 0.00000000 -0.00000000 0.00000000
vn -0.00000000 0.00000000 -0.00000000
vn -0.00000000 0.00000000 0.00000000
vn 0.00000000 0.00000000 -0.00000000
vn 0.00000000 -0.00000000 -0.00000000
vn 0.00000000 -0.00000000 0.00000000
vn 0.00000000 0.00000000 0.00000000
vn -0.00000000 0.00000000 -0.00000000
vn 0.00000000 -0.00000000 -0.00000000
vn -0.00000000 -0.00000000 0.00000000
vn -0.00000000 0.00000000 0.00000000
vn -0.00000000 -0.00000000 0.00000000
vn 0.00000000 -0.00000000 0.00000000
vn 0.00000000 0.00000000 0.00000000
vn 0.00000000 0.00000000 0.00000000
vn -0.00000000 -0.00000000 0.00000000
vn 0.00000000 -0.00000000 0.00000000
vn 0.00000000 0.00000000 0.00000000
vn 0.00000000 0.00000000 0.00000000
vn 0.00000000 -0.00000000 -0.00000000
vn -0.00000000 -0.00000000 0.00000000
vn 0.00000000 0.00000000 0.00000000
vn 0.00000000 -0.00000000 0.00000000
vn 0.00000000 0.00000000 -0.00000000
vn 0.00000000 0.00000000 0.00000000
vn -0.00000000 0.00000000 0.00000000
vn 0.00000000 0.00000000 -0.00000000
vn 0.00000000 0.00000000 0.00000000
vn -0.00000000 0.00000000 0.00000000
vn 0.00000000 -0.00000000 -0.00000000
vn 0.00000000 -0.00000000 0.00000000
vn 0.00000000 0.00000000 0.00000000
vn 0.00000000 0.00000000 0.00000000
vn 0.00000000 0.00000000 -0.00000000
vn -0.00000000 -0.00000000 0.00000000
vn -0.00000000 -0.00000000 0.00000000
vn 0.00000000 0.00000000 -0.00000000
vn 0.00000000 -0.00000000 0.00000000
vn -0.00000000 0.00000000 0.00000000
vn 0.00000000 -0.00000000 0.00000000
vn 0.00000000 0.00000000 0.00000000
vn 0.00000000 0.00000000 -0.00000000
vn -0.00000000 0.00000000 -0.00000000
vn 0.00000000 0.00000000 0.00000000
vn 0.00000000 0.00000000 0.00000000
vn 0.00000000 -0.00000000 -0.00000000
vn 0.00000000 0.00000000 0.00000000
vn -0.00000000 0.00000000 -0.00000000
vn 0.00000000 -0.00000000 -0.00000000
vn 0.00000000 0.00000000 0.00000000
vn 0.00000000 -0.00000000 0.00000000
vn -0.00000000 0.00000000 0.00000000
vn 0.00000000 0.00000000 0.00000000
vn 0.00000000 -0.00000000 0.00000000
vn 0.00000000 -0.00000000 0.00000000
vn -0.00000000 -0.00000000 -0.00000000
vn -0.00000000 0.00000000 0.00000000
vn 0.00000000 -0.00000000 0.00000000
vn -0.00000000 -0.00000000 0.00000000
vn 0.00000000 0.00000000 -0.00000000
vn 0.00000000 -0.00000000 0.00000000
vn 0.00000000 0.00000000 0.00000000
vn 0.00000000 -0.00000000 0.00000000
vn 0.00000000 0.00000000 0.00000000
vn 0.00000000 0.00000000 0.00000000
vn -0.00000000 -0.00000000 -0.00000000
vn 0.00000000 0.00000000 -0.00000000
vn 0.00000000 0.00000000 0.00000000
vn 0.00000000 -0.00000000 0.00000000
vn 0.00000000 0.00000000 0.00000000
vn 0.00000000 -0.00000000 0.00000000
vn 0.00000000 -0.00000000 -0.00000000
vn 0.00000000 -0.00000000 0.00000000
vn 0.00000000 -0.00000000 0.00000000
vn 0.00000000 0.00000000 0.00000000
vn -0.00000000 0.00000000 0.00000000
vn 0.00000000 -0.00000000 0.00000000
vn 0.00000000 0.00000000 0.00000000
vn -0.00000000 -0.00000000 -0.00000000
vn -0.00000000 0.00000000 0.00000000
vn 0.00000000 -0.00000000 0.00000000
vn -0.00000000 -0.00000000 -0.00000000
vn -0.00000000 0.00000000 -0.00000000
vn -0.00000000 0.00000000 -0.00000000
vn 0.00000000 -0.00000000 -0.00000000
vn 0.00000000 -0.00000000 0.00000000
vn 0.00000000 0.00000000 0.00000000
vn -0.00000000 0.00000000 -0.00000000
vn 0.00000000 0.00000000 -0.00000000
vn -0.00000000 0.00000000 0.00000000
vn 0.00000000 -0.00000000 0.00000000
vn 0.00000000 -0.00000000 -0.00000000
vn -0.00000000 0.00000000 -0.00000000
vn -0.00000000 0.00000000 -0.00000000
vn 0.00000000 0.00000000 -0.00000000
vn 0.00000000 0.00000000 0.00000000
vn -0.00000000 -0.00000000 0.00000000
vn -0.00000000 -0.00000000 0.00000000
vn 0.00000000 0.00000000 0.00000000
vn 0.00000000 -0.00000000 -0.00000000
vn -0.00000000 0.00000000 -0.00000000
vn 0.00000000 0.00000000 0.00000000
vn 0.00000000 0.00000000 0.00000000
vn -0.00000000 -0.00000000 -0.00000000
vn -0.00000000 0.00000000 -0.00000000
vn 0.00000000 -0.00000000 0.00000000
vn 0.00000000 -0.00000000 -0.00000000
vn -0.00000000 -0.00000000 0.00000000
vn 0.00000000 -0.00000000 0.00000000
vn -0.00000000 0.00000000 -0.00000000
vn 0.00000000 0.00000000 0.00000000
vn -0.00000000 0.00000000 -0.00000000
vn 0.00000000 -0.00000000 0.00000000
vn 0.00000000 0.00000000 0.00000000
vn 0.00000000 0.00000000 -0.00000000
vn 0.00000000 -0.00000000 -0.00000000
vn -0.00000000 -0.00000000 0.00000000
vn 0.00000000 0.00000000 0.00000000
vn 0.00000000 0.00000000 0.00000000
vn -0.00000000 -0.00000000 0.00000000
vn -0.00000000 -0.00000000 -0.00000000
vn 0.00000000 0.00000000 -0.00000000
vn -0.00000000 0.00000000 0.00000000
vn -0.00000000 -0.00000000 -0.00000000
vn -0.00000000 -0.00000000 -0.00000000
vn 0.00000000 0.00000000 0.00000000
vn -0.00000000 -0.00000000 0.00000000
vn 0.00000000 -0.00000000 -0.00000000
vn 0.00000000 0.00000000 -0.00000000
vn -0.00000000 -0.00000000 0.00000000
vn -0.00000000 -0.00000000 0.00000000
vn 0.00000000 0.00000000 -0.00000000
vn -0.00000000 0.00000000 -0.00000000
vn -0.00000000 -0.00000000 -0.00000000
vn -0.00000000 0.00000000 0.00000000
vn 0.00000000 -0.00000000 0.00000000
vn 0.00000000 -0.00000000 0.00000000
vn -0.00000000 -0.00000000 -0.00000000
vn -0.00000000 0.00000000 -0.00000000
vn -0.00000000 -0.00000000 0.00000000
vn 0.00000000 0.00000000 0.00000000
vn 0.00000000 -0.00000000 -0.00000000
vn 0.00000000 -0.00000000 -0.00000000
vn 0.00000000 0.00000000 0.00000000
vn 0.00000000 -0.00000000 0.00000000
vn 0.00000000 0.00000000 0.00000000
vn -0.00000000 0.00000000 0.00000000
vn 0.00000000 0.00000000 0.00000000
vn 0.00000000 0.00000000 -0.00000000
vn 0.00000000 -0.00000000 -0.00000000
vn 0.00000000 0.00000000 0.00000000
vn 0.00000000 0.00000000 0.00000000
vn -0.00000000 0.00000000 -0.00000000
vn 0.00000000 0.00000000 0.00000000
vn -0.00000000 0.00000000 0.00000000
vn 0.00000000 0.00000000 0.00000000
vn -0.00000000 -0.00000000 0.00000000
vn 0.00000000 0.00000000 -0.00000000
vn 0.00000000 -0.00000000 0.00000000
vn -0.00000000 -0.00000000 0.00000000
vn -0.00000000 -0.00000000 -0.00000000
vn -0.00000000 0.00000000 0.00000000
vn -0.00000000 0.00000000 -0.00000000
vn 0.00000000 0.00000000 0.00000000
vn 0.00000000 -0.00000000 0.00000000
vn -0.00000000 -0.00000000 0.00000000
vn -0.00000000 0.00000000 0.00000000
vn -0.00000000 0.00000000 0.00000000
vn 0.00000000 -0.00000000 0.00000000
vn 0.00000000 0.00000000 -0.00000000
vn 0.00000000 -0.00000000 0.00000000
vn 0.00000000 -0.00000000 0.00000000
vn 0.00000000 -0.00000000 0.00000000
vn 0.00000000 -0.00000000 0.00000000
vn 0.00000000 -0.00000000 0.00000000
vn 0.00000000 0.00000000 0.00000000
vn 0.00000000 0.00000000 0.00000000
vn 0.00000000 0.00000000 0.00000000
vn 0.00000000 -0.00000000 0.00000000
vn 0.00000000 -0.00000000 0.00000000
vn 0.00000000 -0.00000000 0.00000000
vn 0.00000000 -0.00000000 0.00000000
vn 0.00000000 0.00000000 0.00000000
vn 0.00000000 -0.00000000 0.00000000
vn -0.00000000 -0.00000000 -0.00000000
vn 0.00000000 -0.00000000 0.00000000
vn 0.00000000 0.00000000 0.00000000
vn 0.00000000 0.00000000 0.00000000
vn 0.00000000 0.00000000 0.00000000
vn 0.00000000 0.00000000 0.00000000
vn 0.00000000 -0.00000000 0.00000000
vn -0.00000000 -0.00000000 0.00000000
vn -0.00000000 -0.00000000 0.00000000
vn 0.00000000 0.00000000 -0.00000000
vn -0.00000000 -0.00000000 -0.00000000
vn 0.00000000 0.00000000 -0.00000000
vn -0.00000000 -0.00000000 0.00000000
vn -0.00000000 0.00000000 0.00000000
vn 0.00000000 -0.00000000 0.00000000
vn -0.00000000 -0.00000000 -0.00000000
vn 0.00000000 -0.00000000 -0.00000000
vn 0.00000000 0.00000000 0.00000000
vn 0.00000000 0.00000000 -0.00000000
vn -0.00000000 0.00000000 0.00000000
vn 0.00000000 0.00000000 -0.00000000
vn 0.00000000 -0.00000000 0.00000000
vn -0.00000000 -0.00000000 -0.00000000
vn 0.00000000 0.00000000 -0.00000000
vn -0.00000000 0.00000000 0.00000000
vn 0.00000000 0.00000000 -0.00000000
vn 0.00000000 -0.00000000 0.00000000
vn -0.00000000 -0.00000000 -0.00000000
vn -0.00000000 -0.00000000 0.00000000
vn 0.00000000 -0.00000000 0.00000000
vn 0.00000000 -0.00000000 -0.00000000
vn 0.00000000 0.00000000 0.00000000
vn -0.00000000 0.00000000 0.00000000
vn 0.00000000 0.00000000 0.00000000
vn 0.00000000 0.00000000 -0.00000000
vn -0.00000000 0.00000000 0.00000000
vn -0.00000000 -0.00000000 -0.00000000
vn 0.00000000 0.00000000 -0.00000000
vn -0.00000000 0.00000000 -0.00000000
vn 0.00000000 0.00000000 0.00000000
vn 0.00000000 -0.00000000 0.00000000
vn -0.00000000 0.00000000 -0.00000000
vn -0.00000000 0.00000000 0.00000000
vn 0.00000000 -0.00000000 0.00000000
vn 0.00000000 -0.00000000 0.00000000
vn 0.00000000 0.00000000 0.00000000
vn -0.00000000 0.00000000 -0.00000000
vn 0.00000000 0.00000000 -0.00000000
vn 0.00000000 -0.00000000 0.00000000
vn -0.00000000 0.00000000 0.00000000
vn -0.00000000 -0.00000000 0.00000000
vn 0.00000000 0.00000000 -0.00000000
vn -0.00000000 0.00000000 0.00000000
vn 0.00000000 0.00000000 -0.00000000
vn 0.00000000 -0.00000000 0.00000000
vn -0.00000000 0.00000000 -0.00000000
f 1//1 2//2 3//3
f 4//4 3//3 2//2
f 2//2 3//3 4//4
f 3//3 2//2 1//1
f 1//1 3//3 5//5
f 6//6 5//5 3//3
f 3//3 5//5 6//6
f 5//5 3//3 1//1
f 7//7 5//5 8//8
f 6//6 8//8 5//5
f 5//5 8//8 6//6
f 8//8 5//5 7//7
f 4//4 2//2 8//8
f 7//7 8//8 2//2
f 2//2 8//8 7//7
f 8//8 2//2 4//4
f 7//7 2//2 5//5
f 1//1 5//5 2//2
f 2//2 5//5 1//1
f 5//5 2//2 7//7
f 9//9 10//10 11//11
f 12//12 11//11 10//10
f 13//13 12//12 10//10
f 14//14 12//12 13//13
f 15//15 14//14 13//13
f 16//16 14//14 15//15
f 17//17 16//16 15//15
f 18//18 16//16 17//17
f 19//19 18//18 17//17
f 20//20 18//18 19//19
f 21//21 20//20 19//19
f 22//22 20//20 21//21
f 23//23 22//22 21//21
f 24//24 22//22 23//23
f 23//23 22//22 24//24
f 21//21 22//22 23//23
f 21//21 20//20 22//22
f 19//19 20//20 21//21
f 19//19 18//18 20//20
f 17//17 18//18 19//19
f 17//17 16//16 18//18
f 15//15 16//16 17//17
f 15//15 14//14 16//16
f 13//13 14//14 15//15
f 13//13 12//12 14//14
f 10//10 12//12 13//13
f 10//10 11//11 12//12
f 11//11 10//10 9//9
f 25//25 26//26 20//20
f 18//18 20//20 26//26
f 26//26 20//20 18//18
f 20//20 26//26 25//25
f 25//25 20//20 27//27
f 22//22 27//27 20//20
f 20//20 27//27 22//22
f 27//27 20//20 25//25
f 27//27 22//22 28//28
f 24//24 28//28 22//22
f 22//22 28//28 24//24
f 28//28 22//22 27//27
f 28//28 24//24 29//29
f 23//23 29//29 24//24
f 24//24 29//29 23//23
f 29//29 24//24 28//28
f 29//29 23//23 30//30
f 21//21 30//30 23//23
f 23//23 30//30 21//21
f 30//30 23//23 29//29
f 31//31 30//30 19//19
f 21//21 19//19 30//30
f 30//30 19//19 21//21
f 19//19 30//30 31//31
f 32//32 31//31 17//17
f 19//19 17//17 31//31
f 31//31 17//17 19//19
f 17//17 31//31 32//32
f 33//33 32//32 15//15
f 17//17 15//15 32//32
f 32//32 15//15 17//17
f 15//15 32//32 33//33
f 34//34 33//33 13//13
f 15//15 13//13 33//33
f 33//33 13//13 15//15
f 13//13 33//33 34//34
f 10//10 35//35 13//13
f 34//34 13//13 35//35
f 35//35 13//13 34//34
f 13//13 35//35 10//10
f 9//9 36//36 10//10
f 35//35 10//10 36//36
f 36//36 10//10 35//35
f 10//10 36//36 9//9
f 11//11 37//37 9//9
f 36//36 9//9 37//37
f 37//37 9//9 36//36
f 9//9 37//37 11//11
f 12//12 38//38 11//11
f 37//37 11//11 38//38
f 38//38 11//11 37//37
f 11//11 38//38 12//12
f 39//39 38//38 14//14
f 12//12 14//14 38//38
f 38//38 14//14 12//12
f 14//14 38//38 39//39
f 40//40 39//39 16//16
f 14//14 16//16 39//39
f 39//39 16//16 14//14
f 16//16 39//39 40//40
f 26//26 40//40 18//18
f 16//16 18//18 40//40
f 40//40 18//18 16//16
f 18//18 40//40 26//26
f 33//33 8//8 32//32
f 6//6 32//32 8//8
f 3//3 32//32 6//6
f 31//31 32//32 3//3
f 26//26 31//31 3//3
f 25//25 31//31 26//26
f 30//30 31//31 25//25
f 27//27 30//30 25//25
f 29//29 30//30 27//27
f 28//28 29//29 27//27
f 36//36 37//37 35//35
f 38//38 35//35 37//37
f 34//34 35//35 38//38
f 39//39 34//34 38//38
f 33//33 34//34 39//39
f 40//40 33//33 39//39
f 8//8 33//33 40//40
f 4//4 8//8 40//40
f 26//26 4//4 40//40
f 3//3 4//4 26//26
f 26//26 4//4 3//3
f 40//40 4//4 26//26
f 40//40 8//8 4//4
f 40//40 33//33 8//8
f 39//39 33//33 40//40
f 39//39 34//34 33//33
f 38//38 34//34 39//39
f 38//38 35//35 34//34
f 37//37 35//35 38//38
f 35//35 37//37 36//36
f 27//27 29//29 28//28
f 27//27 30//30 29//29
f 25//25 30//30 27//27
f 25//25 31//31 30//30
f 26//26 31//31 25//25
f 3//3 31//31 26//26
f 3//3 32//32 31//31
f 6//6 32//32 3//3
f 8//8 32//32 6//6
f 32//32 8//8 33//33
f 41//41 42//42 43//43
f 44//44 43//43 42//42
f 42//42 43//43 44//44
f 43//43 42//42 41//41
f 41//41 43//43 45//45
f 46//46 45//45 43//43
f 43//43 45//45 46//46
f 45//45 43//43 41//41
f 47//47 45//45 48//48
f 46//46 48//48 45//45
f 45//45 48//48 46//46
f 48//48 45//45 47//47
f 44//44 42//42 48//48
f 47//47 48//48 42//42
f 42//42 48//48 47//47
f 48//48 42//42 44//44
f 47//47 42//42 45//45
f 41//41 45//45 42//42
f 42//42 45//45 41//41
f 45//45 42//42 47//47
f 49//49 50//50 51//51
f 52//52 51//51 50//50
f 53//53 52//52 50//50
f 54//54 52//52 53//53
f 55//55 54//54 53//53
f 56//56 54//54 55//55
f 57//57 56//56 55//55
f 58//58 56//56 57//57
f 59//59 58//58 57//57
f 60//60 58//58 59//59
f 61//61 60//60 59//59
f 62//62 60//60 61//61
f 63//63 62//62 61//61
f 64//64 62//62 63//63
f 63//63 62//62 64//64
f 61//61 62//62 63//63
f 61//61 60//60 62//62
f 59//59 60//60 61//61
f 59//59 58//58 60//60
f 57//57 58//58 59//59
f 57//57 56//56 58//58
f 55//55 56//56 57//57
f 55//55 54//54 56//56
f 53//53 54//54 55//55
f 53//53 52//52 54//54
f 50//50 52//52 53//53
f 50//50 51//51 52//52
f 51//51 50//50 49//49
f 65//65 66//66 60//60
f 58//58 60//60 66//66
f 66//66 60//60 58//58
f 60//60 66//66 65//65
f 65//65 60//60 67//67
f 62//62 67//67 60//60
f 60//60 67//67 62//62
f 67//67 60//60 65//65
f 67//67 62//62 68//68
f 64//64 68//68 62//62
f 62//62 68//68 64//64
f 68//68 62//62 67//67
f 68//68 64//64 69//69
f 63//63 69//69 64//64
f 64//64 69//69 63//63
f 69//69 64//64 68//68
f 69//69 63//63 70//70
f 61//61 70//70 63//63
f 63//63 70//70 61//61
f 70//70 63//63 69//69
f 71//71 70//70 59//59
f 61//61 59//59 70//70
f 70//70 59//59 61//61
f 59//59 70//70 71//71
f 72//72 71//71 57//57
f 59//59 57//57 71//71
f 71//71 57//57 59//59
f 57//57 71//71 72//72
f 73//73 72//72 55//55
f 57//57 55//55 72//72
f 72//72 55//55 57//57
f 55//55 72//72 73//73
f 74//74 73//73 53//53
f 55//55 53//53 73//73
f 73//73 53//53 55//55
f 53//53 73//73 74//74
f 50//50 75//75 53//53
f 74//74 53//53 75//75
f 75//75 53//53 74//74
f 53//53 75//75 50//50
f 49//49 76//76 50//50
f 75//75 50//50 76//76
f 76//76 50//50 75//75
f 50//50 76//76 49//49
f 51//51 77//77 49//49
f 76//76 49//49 77//77
f 77//77 49//49 76//76
f 49//49 77//77 51//51
f 52//52 78//78 51//51
f 77//77 51//51 78//78
f 78//78 51//51 77//77
f 51//51 78//78 52//52
f 79//79 78//78 54//54
f 52//52 54//54 78//78
f 78//78 54//54 52//52
f 54//54 78//78 79//79
f 80//80 79//79 56//56
f 54//54 56//56 79//79
f 79//79 56//56 54//54
f 56//56 79//79 80//80
f 66//66 80//80 58//58
f 56//56 58//58 80//80
f 80//80 58//58 56//56
f 58//58 80//80 66//66
f 73//73 48//48 72//72
f 46//46 72//72 48//48
f 43//43 72//72 46//46
f 71//71 72//72 43//43
f 66//66 71//71 43//43
f 65//65 71//71 66//66
f 70//70 71//71 65//65
f 67//67 70//70 65//65
f 69//69 70//70 67//67
f 68//68 69//69 67//67
f 76//76 77//77 75//75
f 78//78 75//75 77//77
f 74//74 75//75 78//78
f 79//79 74//74 78//78
f 73//73 74//74 79//79
f 80//80 73//73 79//79
f 48//48 73//73 80//80
f 44//44 48//48 80//80
f 66//66 44//44 80//80
f 43//43 44//44 66//66
f 66//66 44//44 43//43
f 80//80 44//44 66//66
f 80//80 48//48 44//44
f 80//80 73//73 48//48
f 79//79 73//73 80//80
f 79//79 74//74 73//73
f 78//78 74//74 79//79
f 78//78 75//75 74//74
f 77//77 75//75 78//78
f 75//75 77//77 76//76
f 67//67 69//69 68//68
f 67//67 70//70 69//69
f 65//65 70//70 67//67
f 65//65 71//71 70//70
f 66//66 71//71 65//65
f 43//43 71//71 66//66
f 43//43 72//72 71//71
f 46//46 72//72 43//43
f 48//48 72//72 46//46
f 72//72 48//48 73//73
f 81//81 82//82 83//83
f 84//84 83//83 82//82
f 82//82 83//83 84//84
f 83//83 82//82 81//81
f 81//81 83//83 85//85
f 86//86 85//85 83//83
f 83//83 85//85 86//86
f 85//85 83//83 81//81
f 87//87 85//85 88//88
f 86//86 88//88 85//85
f 85//85 88//88 86//86
f 88//88 85//85 87//87
f 84//84 82//82 88//88
f 87//87 88//88 82//82
f 82//82 88//88 87//87
f 88//88 82//82 84//84
f 87//87 82//82 85//85
f 81//81 85//85 82//82
f 82//82 85//85 81//81
f 85//85 82//82 87//87
f 89//89 90//90 91//91
f 92//92 91//91 90//90
f 93//93 92//92 90//90
f 94//94 92//92 93//93
f 95//95 94//94 93//93
f 96//96 94//94 95//95
f 97//97 96//96 95//95
f 98//98 96//96 97//97
f 99//99 98//98 97//97
f 100//100 98//98 99//99
f 101//101 100//100 99//99
f 102//102 100//100 101//101
f 103//103 102//102 101//101
f 104//104 102//102 103//103
f 103//103 102//102 104//104
f 101//101 102//102 103//103
f 101//101 100//100 102//102
f 99//99 100//100 101//101
f 99//99 98//98 100//100
f 97//97 98//98 99//99
f 97//97 96//96 98//98
f 95//95 96//96 97//97
f 95//95 94//94 96//96
f 93//93 94//94 95//95
f 93//93 92//92 94//94
f 90//90 92//92 93//93
f 90//90 91//91 92//92
f 91//91 90//90 89//89
f 105//105 106//106 100//100
f 98//98 100//100 106//106
f 106//106 100//100 98//98
f 100//100 106//106 105//105
f 105//105 100//100 107//107
f 102//102 107//107 100//100
f 100//100 107//107 102//102
f 107//107 100//100 105//105
f 107//107 102//102 108//108
f 104//104 108//108 102//102
f 102//102 108//108 104//104
f 108//108 102//102 107//107
f 108//108 104//104 109//109
f 103//103 109//109 104//104
f 104//104 109//109 103//103
f 109//109 104//104 108//108
f 109//109 103//103 110//110
f 101//101 110//110 103//103
f 103//103 110//110 101//101
f 110//110 103//103 109//109
f 111//111 110//110 99//99
f 101//101 99//99 110//110
f 110//110 99//99 101//101
f 99//99 110//110 111//111
f 112//112 111//111 97//97
f 99//99 97//97 111//111
f 111//111 97//97 99//99
f 97//97 111//111 112//112
f 113//113 112//112 95//95
f 97//97 95//95 112//112
f 112//112 95//95 97//97
f 95//95 112//112 113//113
f 114//114 113//113 93//93
f 95//95 93//93 113//113
f 113//113 93//93 95//95
f 93//93 113//113 114//114
f 90//90 115//115 93//93
f 114//114 93//93 115//115
f 115//115 93//93 114//114
f 93//93 115//115 90//90
f 89//89 116//116 90//90
f 115//115 90//90 116//116
f 116//116 90//90 115//115
f 90//90 116//116 89//89
f 91//91 117//117 89//89
f 116//116 89//89 117//117
f 117//117 89//89 116//116
f 89//89 117//117 91//91
f 92//92 118//118 91//91
f 117//117 91//91 118//118
f 118//118 91//91 117//117
f 91//91 118//118 92//92
f 119//119 118//118 94//94
f 92//92 94//94 118//118
f 118//118 94//94 92//92
f 94//94 118//118 119//119
f 120//120 119//119 96//96
f 94//94 96//96 119//119
f 119//119 96//96 94//94
f 96//96 119//119 120//120
f 106//106 120//120 98//98
f 96//96 98//98 120//120
f 120//120 98//98 96//96
f 98//98 120//120 106//106
f 113//113 88//88 112//112
f 86//86 112//112 88//88
f 83//83 112//112 86//86
f 111//111 112//112 83//83
f 106//106 111//111 83//83
f 105//105 111//111 106//106
f 110//110 111//111 105//105
f 107//107 110//110 105//105
f 109//109 110//110 107//107
f 108//108 109//109 107//107
f 116//116 117//117 115//115
f 118//118 115//115 117//117
f 114//114 115//115 118//118
f 119//119 114//114 118//118
f 113//113 114//114 119//119
f 120//120 113//113 119//119
f 88//88 113//113 120//120
f 84//84 88//88 120//120
f 106//106 84//84 120//120
f 83//83 84//84 106//106
f 106//106 84//84 83//83
f 120//120 84//84 106//106
f 120//120 88//88 84//84
f 120//120 113//113 88//88
f 119//119 113//113 120//120
f 119//119 114//114 113//113
f 118//118 114//114 119//119
f 118//118 115//115 114//114
f 117//117 115//115 118//118
f 115//115 117//117 116//116
f 107//107 109//109 108//108
f 107//107 110//110 109//109
f 105//105 110//110 107//107
f 105//105 111//111 110//110
f 106//106 111//111 105//105
f 83//83 111//111 106//106
f 83//83 112//112 111//111
f 86//86 112//112 83//83
f 88//88 112//112 86//86
f 112//112 88//88 113//113
f 121//121 122//122 123//123
f 124//124 123//123 122//122
f 122//122 123//123 124//124
f 123//123 122//122 121//121
f 121//121 123//123 125//125
f 126//126 125//125 123//123
f 123//123 125//125 126//126
f 125//125 123//123 121//121
f 127//127 125//125 128//128
f 126//126 128//128 125//125
f 125//125 128//128 126//126
f 128//128 125//125 127//127
f 124//124 122//122 128//128
f 127//127 128//128 122//122
f 122//122 128//128 127//127
f 128//128 122//122 124//124
f 127//127 122//122 125//125
f 121//121 125//125 122//122
f 122//122 125//125 121//121
f 125//125 122//122 127//127
f 129//129 130//130 131//131
f 132//132 131//131 130//130
f 133//133 132//132 130//130
f 134//134 132//132 133//133
f 135//135 134//134 133//133
f 136//136 134//134 135//135
f 137//137 136//136 135//135
f 138//138 136//136 137//137
f 139//139 138//138 137//137
f 140//140 138//138 139//139
f 141//141 140//140 139//139
f 142//142 140//140 141//141
f 143//143 142//142 141//141
f 144//144 142//142 143//143
f 143//143 142//142 144//144
f 141//141 142//142 143//143
f 141//141 140//140 142//142
f 139//139 140//140 141//141
f 139//139 138//138 140//140
f 137//137 138//138 139//139
f 137//137 136//136 138//138
f 135//135 136//136 137//137
f 135//135 134//134 136//136
f 133//133 134//134 135//135
f 133//133 132//132 134//134
f 130//130 132//132 133//133
f 130//130 131//131 132//132
f 131//131 130//130 129//129
f 145//145 146//146 140//140
f 138//138 140//140 146//146
f 146//146 140//140 138//138
f 140//140 146//146 145//145
f 145//145 140//140 147//147
f 142//142 147//147 140//140
f 140//140 147//147 142//142
f 147//147 140//140 145//145
f 147//147 142//142 148//148
f 144//144 148//148 142//142
f 142//142 148//148 144//144
f 148//148 142//142 147//147
f 148//148 144//144 149//149
f 143//143 149//149 144//144
f 144//144 149//149 143//143
f 149//149 144//144 148//148
f 149//149 143//143 150//150
f 141//141 150//150 143//143
f 143//143 150//150 141//141
f 150//150 143//143 149//149
f 151//151 150//150 139//139
f 141//141 139//139 150//150
f 150//150 139//139 141//141
f 139//139 150//150 151//151
f 152//152 151//151 137//137
f 139//139 137//137 151//151
f 151//151 137//137 139//139
f 137//137 151//151 152//152
f 153//153 152//152 135//135
f 137//137 135//135 152//152
f 152//152 135//135 137//137
f 135//135 152//152 153//153
f 154//154 153//153 133//133
f 135//135 133//133 153//153
f 153//153 133//133 135//135
f 133//133 153//153 154//154
f 130//130 155//155 133//133
f 154//154 133//133 155//155
f 155//155 133//133 154//154
f 133//133 155//155 130//130
f 129//129 156//156 130//130
f 155//155 130//130 156//156
f 156//156 130//130 155//155
f 130//130 156//156 129//129
f 131//131 157//157 129//129
f 156//156 129//129 157//157
f 157//157 129//129 156//156
f 129//129 157//157 131//131
f 132//132 158//158 131//131
f 157//157 131//131 158//158
f 158//158 131//131 157//157
f 131//131 158//158 132//132
f 159//159 158//158 134//134
f 132//132 134//134 158//158
f 158//158 134//134 132//132
f 134//134 158//158 159//159
f 160//160 159//159 136//136
f 134//134 136//136 159//159
f 159//159 136//136 134//134
f 136//136 159//159 160//160
f 146//146 160//160 138//138
f 136//136 138//138 160//160
f 160//160 138//138 136//136
f 138//138 160//160 146//146
f 153//153 128//128 152//152
f 126//126 152//152 128//128
f 123//123 152//152 126//126
f 151//151 152//152 123//123
f 146//146 151//151 123//123
f 145//145 151//151 146//146
f 150//150 151//151 145//145
f 147//147 150//150 145//145
f 149//149 150//150 147//147
f 148//148 149//149 147//147
f 156//156 157//157 155//155
f 158//158 155//155 157//157
f 154//154 155//155 158//158
f 159//159 154//154 158//158
f 153//153 154//154 159//159
f 160//160 153//153 159//159
f 128//128 153//153 160//160
f 124//124 128//128 160//160
f 146//146 124//124 160//160
f 123//123 124//124 146//146
f 146//146 124//124 123//123
f 160//160 124//124 146//146
f 160//160 128//128 124//124
f 160//160 153//153 128//128
f 159//159 153//153 160//160
f 159//159 154//154 153//153
f 158//158 154//154 159//159
f 158//158 155//155 154//154
f 157//157 155//155 158//158
f 155//155 157//157 156//156
f 147//147 149//149 148//148
f 147//147 150//150 149//149
f 145//145 150//150 147//147
f 145//145 151//151 150//150
f 146//146 151//151 145//145
f 123//123 151//151 146//146
f 123//123 152//152 151//151
f 126//126 152//152 123//123
f 128//128 152//152 126//126
f 152//152 128//128 153//153
f 161//161 162//162 163//163
f 164//164 163//163 162//162
f 162//162 163//163 164//164
f 163//163 162//162 161//161
f 161//161 163//163 165//165
f 166//166 165//165 163//163
f 163//163 165//165 166//166
f 165//165 163//163 161//161
f 167//167 165//165 168//168
f 166//166 168//168 165//165
f 165//165 168//168 166//166
f 168//168 165//165 167//167
f 164//164 162//162 168//168
f 167//167 168//168 162//162
f 162//162 168//168 167//167
f 168//168 162//162 164//164
f 167//167 162//162 165//165
f 161//161 165//165 162//162
f 162//162 165//165 161//161
f 165//165 162//162 167//167
f 169//169 170//170 171//171
f 172//172 171//171 170//170
f 173//173 172//172 170//170
f 174//174 172//172 173//173
f 175//175 174//174 173//173
f 176//176 174//174 175//175
f 177//177 176//176 175//175
f 178//178 176//176 177//177
f 179//179 178//178 177//177
f 180//180 178//178 179//179
f 181//181 180//180 179//179
f 182//182 180//180 181//181
f 183//183 182//182 181//181
f 184//184 182//182 183//183
f 183//183 182//182 184//184
f 181//181 182//182 183//183
f 181//181 180//180 182//182
f 179//179 180//180 181//181
f 179//179 178//178 180//180
f 177//177 178//178 179//179
f 177//177 176//176 178//178
f 175//175 176//176 177//177
f 175//175 174//174 176//176
f 173//173 174//174 175//175
f 173//173 172//172 174//174
f 170//170 172//172 173//173
f 170//170 171//171 172//172
f 171//171 170//170 169//169
f 185//185 186//186 180//180
f 178//178 180//180 186//186
f 186//186 180//180 178//178
f 180//180 186//186 185//185
f 185//185 180//180 187//187
f 182//182 187//187 180//180
f 180//180 187//187 182//182
f 187//187 180//180 185//185
f 187//187 182//182 188//188
f 184//184 188//188 182//182
f 182//182 188//188 184//184
f 188//188 182//182 187//187
f 188//188 184//184 189//189
f 183//183 189//189 184//184
f 184//184 189//189 183//183
f 189//189 184//184 188//188
f 189//189 183//183 190//190
f 181//181 190//190 183//183
f 183//183 190//190 181//181
f 190//190 183//183 189//189
f 191//191 190//190 179//179
f 181//181 179//179 190//190
f 190//190 179//179 181//181
f 179//179 190//190 191//191
f 192//192 191//191 177//177
f 179//179 177//177 191//191
f 191//191 177//177 179//179
f 177//177 191//191 192//192
f 193//193 192//192 175//175
f 177//177 175//175 192//192
f 192//192 175//175 177//177
f 175//175 192//192 193//193
f 194//194 193//193 173//173
f 175//175 173//173 193//193
f 193//193 173//173 175//175
f 173//173 193//193 194//194
f 170//170 195//195 173//173
f 194//194 173//173 195//195
f 195//195 173//173 194//194
f 173//173 195//195 170//170
f 169//169 196//196 170//170
f 195//195 170//170 196//196
f 196//196 170//170 195//195
f 170//170 196//196 169//169
f 171//171 197//197 169//169
f 196//196 169//169 197//197
f 197//197 169//169 196//196
f 169//169 197//197 171//171
f 172//172 198//198 171//171
f 197//197 171//171 198//198
f 198//198 171//171 197//197
f 171//171 198//198 172//172
f 199//199 198//198 174//174
f 172//172 174//174 198//198
f 198//198 174//174 172//172
f 174//174 198//198 199//199
f 200//200 199//199 176//176
f 174//174 176//176 199//199
f 199//199 176//176 174//174
f 176//176 199//199 200//200
f 186//186 200//200 178//178
f 176//176 178//178 200//200
f 200//200 178//178 176//176
f 178//178 200//200 186//186
f 193//193 168//168 192//192
f 166//166 192//192 168//168
f 163//163 192//192 166//166
f 191//191 192//192 163//163
f 186//186 191//191 163//163
f 185//185 191//191 186//186
f 190//190 191//191 185//185
f 187//187 190//190 185//185
f 189//189 190//190 187//187
f 188//188 189//189 187//187
f 196//196 197//197 195//195
f 198//198 195//195 197//197
f 194//194 195//195 198//198
f 199//199 194//194 198//198
f 193//193 194//194 199//199
f 200//200 193//193 199//199
f 168//168 193//193 200//200
f 164//164 168//168 200//200
f 186//186 164//164 200//200
f 163//163 164//164 186//186
f 186//186 164//164 163//163
f 200//200 164//164 186//186
f 200//200 168//168 164//164
f 200//200 193//193 168//168
f 199//199 193//193 200//200
f 199//199 194//194 193//193
f 198//198 194//194 199//199
f 198//198 195//195 194//194
f 197//197 195//195 198//198
f 195//195 197//197 196//196
f 187//187 189//189 188//188
f 187//187 190//190 189//189
f 185//185 190//190 187//187
f 185//185 191//191 190//190
f 186//186 191//191 185//185
f 163//163 191//191 186//186
f 163//163 192//192 191//191
f 166//166 192//192 163//163
f 168//168 192//192 166//166
f 192//192 168//168 193//193
f 201//201 202//202 203//203
f 204//204 203//203 202//202
f 202//202 203//203 204//204
f 203//203 202//202 201//201
f 201//201 203//203 205//205
f 206//206 205//205 203//203
f 203//203 205//205 206//206
f 205//205 203//203 201//201
f 207//207 205//205 208//208
f 206//206 208//208 205//205
f 205//205 208//208 206//206
f 208//208 205//205 207//207
f 204//204 202//202 208//208
f 207//207 208//208 202//202
f 202//202 208//208 207//207
f 208//208 202//202 204//204
f 207//207 202//202 205//205
f 201//201 205//205 202//202
f 202//202 205//205 201//201
f 205//205 202//202 207//207
f 209//209 210//210 211//211
f 212//212 211//211 210//210
f 213//213 212//212 210//210
f 214//214 212//212 213//213
f 215//215 214//214 213//213
f 216//216 214//214 215//215
f 217//217 216//216 215//215
f 218//218 216//216 217//217
f 219//219 218//218 217//217
f 220//220 218//218 219//219
f 221//221 220//220 219//219
f 222//222 220//220 221//221
f 223//223 222//222 221//221
f 224//224 222//222 223//223
f 223//223 222//222 224//224
f 221//221 222//222 223//223
f 221//221 220//220 222//222
f 219//219 220//220 221//221
f 219//219 218//218 220//220
f 217//217 218//218 219//219
f 217//217 216//216 218//218
f 215//215 216//216 217//217
f 215//215 214//214 216//216
f 213//213 214//214 215//215
f 213//213 212//212 214//214
f 210//210 212//212 213//213
f 210//210 211//211 212//212
f 211//211 210//210 209//209
f 225//225 226//226 220//220
f 218//218 220//220 226//226
f 226//226 220//220 218//218
f 220//220 226//226 225//225
f 225//225 220//220 227//227
f 222//222 227//227 220//220
f 220//220 227//227 222//222
f 227//227 220//220 225//225
f 227//227 222//222 228//228
f 224//224 228//228 222//222
f 222//222 228//228 224//224
f 228//228 222//222 227//227
f 228//228 224//224 229//229
f 223//223 229//229 224//224
f 224//224 229//229 223//223
f 229//229 224//224 228//228
f 229//229 223//223 230//230
f 221//221 230//230 223//223
f 223//223 230//230 221//221
f 230//230 223//223 229//229
f 231//231 230//230 219//219
f 221//221 219//219 230//230
f 230//230 219//219 221//221
f 219//219 230//230 231//231
f 232//232 231//231 217//217
f 219//219 217//217 231//231
f 231//231 217//217 219//219
f 217//217 231//231 232//232
f 233//233 232//232 215//215
f 217//217 215//215 232//232
f 232//232 215//215 217//217
f 215//215 232//232 233//233
f 234//234 233//233 213//213
f 215//215 213//213 233//233
f 233//233 213//213 215//215
f 213//213 233//233 234//234
f 210//210 235//235 213//213
f 234//234 213//213 235//235
f 235//235 213//213 234//234
f 213//213 235//235 210//210
f 209//209 236//236 210//210
f 235//235 210//210 236//236
f 236//236 210//210 235//235
f 210//210 236//236 209//209
f 211//211 237//237 209//209
f 236//236 209//209 237//237
f 237//237 209//209 236//236
f 209//209 237//237 211//211
f 212//212 238//238 211//211
f 237//237 211//211 238//238
f 238//238 211//211 237//237
f 211//211 238//238 212//212
f 239//239 238//238 214//214
f 212//212 214//214 238//238
f 238//238 214//214 212//212
f 214//214 238//238 239//239
f 240//240 239//239 216//216
f 214//214 216//216 239//239
f 239//239 216//216 214//214
f 216//216 239//239 240//240
f 226//226 240//240 218//218
f 216//216 218//218 240//240
f 240//240 218//218 216//216
f 218//218 240//240 226//226
f 233//233 208//208 232//232
f 206//206 232//232 208//208
f 203//203 232//232 206//206
f 231//231 232//232 203//203
f 226//226 231//231 203//203
f 225//225 231//231 226//226
f 230//230 231//231 225//225
f 227//227 230//230 225//225
f 229//229 230//230 227//227
f 228//228 229//229 227//227
f 236//236 237//237 235//235
f 238//238 235//235 237//237
f 234//234 235//235 238//238
f 239//239 234//234 238//238
f 233//233 234//234 239//239
f 240//240 233//233 239//239
f 208//208 233//233 240//240
f 204//204 208//208 240//240
f 226//226 204//204 240//240
f 203//203 204//204 226//226
f 226//226 204//204 203//203
f 240//240 204//204 226//226
f 240//240 208//208 204//204
f 240//240 233//233 208//208
f 239//239 233//233 240//240
f 239//239 234//234 233//233
f 238//238 234//234 239//239
f 238//238 235//235 234//234
f 237//237 235//235 238//238
f 235//235 237//237 236//236
f 227//227 229//229 228//228
f 227//227 230//230 229//229
f 225//225 230//230 227//227
f 225//225 231//231 230//230
f 226//226 231//231 225//225
f 203//203 231//231 226//226
f 203//203 232//232 231//231
f 206//206 232//232 203//203
f 208//208 232//232 206//206
f 232//232 208//208 233//233
f 241//241 242//242 243//243
f 244//244 243//243 242//242
f 242//242 243//243 244//244
f 243//243 242//242 241//241
f 241//241 243//243 245//245
f 246//246 245//245 243//243
f 243//243 245//245 246//246
f 245//245 243//243 241//241
f 247//247 245//245 248//248
f 246//246 248//248 245//245
f 245//245 248//248 246//246
f 248//248 245//245 247//247
f 244//244 242//242 248//248
f 247//247 248//248 242//242
f 242//242 248//248 247//247
f 248//248 242//242 244//244
f 247//247 242//242 245//245
f 241//241 245//245 242//242
f 242//242 245//245 241//241
f 245//245 242//242 247//247
f 249//249 250//250 251//251
f 252//252 251//251 250//250
f 253//253 252//252 250//250
f 254//254 252//252 253//253
f 255//255 254//254 253//253
f 256//256 254//254 255//255
f 257//257 256//256 255//255
f 258//258 256//256 257//257
f 259//259 258//258 257//257
f 260//260 258//258 259//259
f 261//261 260//260 259//259
f 262//262 260//260 261//261
f 263//263 262//262 261//261
f 264//264 262//262 263//263
f 263//263 262//262 264//264
f 261//261 262//262 263//263
f 261//261 260//260 262//262
f 259//259 260//260 261//261
f 259//259 258//258 260//260
f 257//257 258//258 259//259
f 257//257 256//256 258//258
f 255//255 256//256 257//257
f 255//255 254//254 256//256
f 253//253 254//254 255//255
f 253//253 252//252 254//254
f 250//250 252//252 253//253
f 250//250 251//251 252//252
f 251//251 250//250 249//249
f 265//265 266//266 260//260
f 258//258 260//260 266//266
f 266//266 260//260 258//258
f 260//260 266//266 265//265
f 265//265 260//260 267//267
f 262//262 267//267 260//260
f 260//260 267//267 262//262
f 267//267 260//260 265//265
f 267//267 262//262 268//268
f 264//264 268//268 262//262
f 262//262 268//268 264//264
f 268//268 262//262 267//267
f 268//268 264//264 269//269
f 263//263 269//269 264//264
f 264//264 269//269 263//263
f 269//269 264//264 268//268
f 269//269 263//263 270//270
f 261//261 270//270 263//263
f 263//263 270//270 261//261
f 270//270 263//263 269//269
f 271//271 270//270 259//259
f 261//261 259//259 270//270
f 270//270 259//259 261//261
f 259//259 270//270 271//271
f 272//272 271//271 257//257
f 259//259 257//257 271//271
f 271//271 257//257 259//259
f 257//257 271//271 272//272
f 273//273 272//272 255//255
f 257//257 255//255 272//272
f 272//272 255//255 257//257
f 255//255 272//272 273//273
f 274//274 273//273 253//253
f 255//255 253//253 273//273
f 273//273 253//253 255//255
f 253//253 273//273 274//274
f 250//250 275//275 253//253
f 274//274 253//253 275//275
f 275//275 253//253 274//274
f 253//253 275//275 250//250
f 249//249 276//276 250//250
f 275//275 250//250 276//276
f 276//276 250//250 275//275
f 250//250 276//276 249//249
f 251//251 277//277 249//249
f 276//276 249//249 277//277
f 277//277 249//249 276//276
f 249//249 277//277 251//251
f 252//252 278//278 251//251
f 277//277 251//251 278//278
f 278//278 251//251 277//277
f 251//251 278//278 252//252
f 279//279 278//278 254//254
f 252//252 254//254 278//278
f 278//278 254//254 252//252
f 254//254 278//278 279//279
f 280//280 279//279 256//256
f 254//254 256//256 279//279
f 279//279 256//256 254//254
f 256//256 279//279 280//280
f 266//266 280//280 258//258
f 256//256 258//258 280//280
f 280//280 258//258 256//256
f 258//258 280//280 266//266
f 273//273 248//248 272//272
f 246//246 272//272 248//248
f 243//243 272//272 246//246
f 271//271 272//272 243//243
f 266//266 271//271 243//243
f 265//265 271//271 266//266
f 270//270 271//271 265//265
f 267//267 270//270 265//265
f 269//269 270//270 267//267
f 268//268 269//269 267//267
f 276//276 277//277 275//275
f 278//278 275//275 277//277
f 274//274 275//275 278//278
f 279//279 274//274 278//278
f 273//273 274//274 279//279
f 280//280 273//273 279//279
f 248//248 273//273 280//280
f 244//244 248//248 280//280
f 266//266 244//244 280//280
f 243//243 244//244 266//266
f 266//266 244//244 243//243
f 280//280 244//244 266//266
f 280//280 248//248 244//244
f 280//280 273//273 248//248
f 279//279 273//273 280//280
f 279//279 274//274 273//273
f 278//278 274//274 279//279
f 278//278 275//275 274//274
f 277//277 275//275 278//278
f 275//275 277//277 276//276
f 267//267 269//269 268//268
f 267//267 270//270 269//269
f 265//265 270//270 267//267
f 265//265 271//271 270//270
f 266//266 271//271 265//265
f 243//243 271//271 266//266
f 243//243 272//272 271//271
f 246//246 272//272 243//243
f 248//248 272//272 246//246
f 272//272 248//248 273//273
f 281//281 282//282 283//283
f 284//284 283//283 282//282
f 282//282 283//283 284//284
f 283//283 282//282 281//281
f 281//281 283//283 285//285
f 286//286 285//285 283//283
f 283//283 285//285 286//286
f 285//285 283//283 281//281
f 287//287 285//285 288//288
f 286//286 288//288 285//285
f 285//285 288//288 286//286
f 288//288 285//285 287//287
f 284//284 282//282 288//288
f 287//287 288//288 282//282
f 282//282 288//288 287//287
f 288//288 282//282 284//284
f 287//287 282//282 285//285
f 281//281 285//285 282//282
f 282//282 285//285 281//281
f 285//285 282//282 287//287
f 289//289 290//290 291//291
f 292//292 291//291 290//290
f 293//293 292//292 290//290
f 294//294 292//292 293//293
f 295//295 294//294 293//293
f 296//296 294//294 295//295
f 297//297 296//296 295//295
f 298//298 296//296 297//297
f 299//299 298//298 297//297
f 300//300 298//298 299//299
f 301//301 300//300 299//299
f 302//302 300//300 301//301
f 303//303 302//302 301//301
f 304//304 302//302 303//303
f 303//303 302//302 304//304
f 301//301 302//302 303//303
f 301//301 300//300 302//302
f 299//299 300//300 301//301
f 299//299 298//298 300//300
f 297//297 298//298 299//299
f 297//297 296//296 298//298
f 295//295 296//296 297//297
f 295//295 294//294 296//296
f 293//293 294//294 295//295
f 293//293 292//292 294//294
f 290//290 292//292 293//293
f 290//290 291//291 292//292
f 291//291 290//290 289//289
f 305//305 306//306 300//300
f 298//298 300//300 306//306
f 306//306 300//300 298//298
f 300//300 306//306 305//305
f 305//305 300//300 307//307
f 302//302 307//307 300//300
f 300//300 307//307 302//302
f 307//307 300//300 305//305
f 307//307 302//302 308//308
f 304//304 308//308 302//302
f 302//302 308//308 304//304
f 308//308 302//302 307//307
f 308//308 304//304 309//309
f 303//303 309//309 304//304
f 304//304 309//309 303//303
f 309//309 304//304 308//308
f 309//309 303//303 310//310
f 301//301 310//310 303//303
f 303//303 310//310 301//301
f 310//310 303//303 309//309
f 311//311 310//310 299//299
f 301//301 299//299 310//310
f 310//310 299//299 301//301
f 299//299 310//310 311//311
f 312//312 311//311 297//297
f 299//299 297//297 311//311
f 311//311 297//297 299//299
f 297//297 311//311 312//312
f 313//313 312//312 295//295
f 297//297 295//295 312//312
f 312//312 295//295 297//297
f 295//295 312//312 313//313
f 314//314 313//313 293//293
f 295//295 293//293 313//313
f 313//313 293//293 295//295
f 293//293 313//313 314//314
f 290//290 315//315 293//293
f 314//314 293//293 315//315
f 315//315 293//293 314//314
f 293//293 315//315 290//290
f 289//289 316//316 290//290
f 315//315 290//290 316//316
f 316//316 290//290 315//315
f 290//290 316//316 289//289
f 291//291 317//317 289//289
f 316//316 289//289 317//317
f 317//317 289//289 316//316
f 289//289 317//317 291//291
f 292//292 318//318 291//291
f 317//317 291//291 318//318
f 318//318 291//291 317//317
f 291//291 318//318 292//292
f 319//319 318//318 294//294
f 292//292 294//294 318//318
f 318//318 294//294 292//292
f 294//294 318//318 319//319
f 320//320 319//319 296//296
f 294//294 296//296 319//319
f 319//319 296//296 294//294
f 296//296 319//319 320//320
f 306//306 320//320 298//298
f 296//296 298//298 320//320
f 320//320 298//298 296//296
f 298//298 320//320 306//306
f 313//313 288//288 312//312
f 286//286 312//312 288//288
f 283//283 312//312 286//286
f 311//311 312//312 283//283
f 306//306 311//311 283//283
f 305//305 311//311 306//306
f 310//310 311//311 305//305
f 307//307 310//310 305//305
f 309//309 310//310 307//307
f 308//308 309//309 307//307
f 316//316 317//317 315//315
f 318//318 315//315 317//317
f 314//314 315//315 318//318
f 319//319 314//314 318//318
f 313//313 314//314 319//319
f 320//320 313//313 319//319
f 288//288 313//313 320//320
f 284//284 288//288 320//320
f 306//306 284//284 320//320
f 283//283 284//284 306//306
f 306//306 284//284 283//283
f 320//320 284//284 306//306
f 320//320 288//288 284//284
f 320//320 313//313 288//288
f 319//319 313//313 320//320
f 319//319 314//314 313//313
f 318//318 314//314 319//319
f 318//318 315//315 314//314
f 317//317 315//315 318//318
f 315//315 317//317 316//316
f 307//307 309//309 308//308
f 307//307 310//310 309//309
f 305//305 310//310 307//307
f 305//305 311//311 310//310
f 306//306 311//311 305//305
f 283//283 311//311 306//306
f 283//283 312//312 311//311
f 286//286 312//312 283//283
f 288//288 312//312 286//286
f 312//312 288//288 313//313
f 321//321 322//322 323//323
f 324//324 323//323 322//322
f 322//322 323//323 324//324
f 323//323 322//322 321//321
f 321//321 323//323 325//325
f 326//326 325//325 323//323
f 323//323 325//325 326//326
f 325//325 323//323 321//321
f 327//327 325//325 328//328
f 326//326 328//328 325//325
f 325//325 328//328 326//326
f 328//328 325//325 327//327
f 324//324 322//322 328//328
f 327//327 328//328 322//322
f 322//322 328//328 327//327
f 328//328 322//322 324//324
f 327//327 322//322 325//325
f 321//321 325//325 322//322
f 322//322 325//325 321//321
f 325//325 322//322 327//327
f 329//329 330//330 331//331
f 332//332 331//331 330//330
f 333//333 332//332 330//330
f 334//334 332//332 333//333
f 335//335 334//334 333//333
f 336//336 334//334 335//335
f 337//337 336//336 335//335
f 338//338 336//336 337//337
f 339//339 338//338 337//337
f 340//340 338//338 339//339
f 341//341 340//340 339//339
f 342//342 340//340 341//341
f 343//343 342//342 341//341
f 344//344 342//342 343//343
f 343//343 342//342 344//344
f 341//341 342//342 343//343
f 341//341 340//340 342//342
f 339//339 340//340 341//341
f 339//339 338//338 340//340
f 337//337 338//338 339//339
f 337//337 336//336 338//338
f 335//335 336//336 337//337
f 335//335 334//334 336//336
f 333//333 334//334 335//335
f 333//333 332//332 334//334
f 330//330 332//332 333//333
f 330//330 331//331 332//332
f 331//331 330//330 329//329
f 345//345 346//346 340//340
f 338//338 340//340 346//346
f 346//346 340//340 338//338
f 340//340 346//346 345//345
f 345//345 340//340 347//347
f 342//342 347//347 340//340
f 340//340 347//347 342//342
f 347//347 340//340 345//345
f 347//347 342//342 348//348
f 344//344 348//348 342//342
f 342//342 348//348 344//344
f 348//348 342//342 347//347
f 348//348 344//344 349//349
f 343//343 349//349 344//344
f 344//344 349//349 343//343
f 349//349 344//344 348//348
f 349//349 343//343 350//350
f 341//341 350//350 343//343
f 343//343 350//350 341//341
f 350//350 343//343 349//349
f 351//351 350//350 339//339
f 341//341 339//339 350//350
f 350//350 339//339 341//341
f 339//339 350//350 351//351
f 352//352 351//351 337//337
f 339//339 337//337 351//351
f 351//351 337//337 339//339
f 337//337 351//351 352//352
f 353//353 352//352 335//335
f 337//337 335//335 352//352
f 352//352 335//335 337//337
f 335//335 352//352 353//353
f 354//354 353//353 333//333
f 335//335 333//333 353//353
f 353//353 333//333 335//335
f 333//333 353//353 354//354
f 330//330 355//355 333//333
f 354//354 333//333 355//355
f 355//355 333//333 354//354
f 333//333 355//355 330//330
f 329//329 356//356 330//330
f 355//355 330//330 356//356
f 356//356 330//330 355//355
f 330//330 356//356 329//329
f 331//331 357//357 329//329
f 356//356 329//329 357//357
f 357//357 329//329 356//356
f 329//329 357//357 331//331
f 332//332 358//358 331//331
f 357//357 331//331 358//358
f 358//358 331//331 357//357
f 331//331 358//358 332//332
f 359//359 358//358 334//334
f 332//332 334//334 358//358
f 358//358 334//334 332//332
f 334//334 358//358 359//359
f 360//360 359//359 336//336
f 334//334 336//336 359//359
f 359//359 336//336 334//334
f 336//336 359//359 360//360
f 346//346 360//360 338//338
f 336//336 338//338 360//360
f 360//360 338//338 336//336
f 338//338 360//360 346//346
f 353//353 328//328 352//352
f 326//326 352//352 328//328
f 323//323 352//352 326//326
f 351//351 352//352 323//323
f 346//346 351//351 323//323
f 345//345 351//351 346//346
f 350//350 351//351 345//345
f 347//347 350//350 345//345
f 349//349 350//350 347//347
f 348//348 349//349 347//347
f 356//356 357//357 355//355
f 358//358 355//355 357//357
f 354//354 355//355 358//358
f 359//359 354//354 358//358
f 353//353 354//354 359//359
f 360//360 353//353 359//359
f 328//328 353//353 360//360
f 324//324 328//328 360//360
f 346//346 324//324 360//360
f 323//323 324//324 346//346
f 346//346 324//324 323//323
f 360//360 324//324 346//346
f 360//360 328//328 324//324
f 360//360 353//353 328//328
f 359//359 353//353 360//360
f 359//359 354//354 353//353
f 358//358 354//354 359//359
f 358//358 355//355 354//354
f 357//357 355//355 358//358
f 355//355 357//357 356//356
f 347//347 349//349 348//348
f 347//347 350//350 349//349
f 345//345 350//350 347//347
f 345//345 351//351 350//350
f 346//346 351//351 345//345
f 323//323 351//351 346//346
f 323//323 352//352 351//351
f 326//326 352//352 323//323
f 328//328 352//352 326//326
f 352//352 328//328 353//353
f 361//361 362//362 363//363
f 364//364 363//363 362//362
f 362//362 363//363 364//364
f 363//363 362//362 361//361
f 361//361 363//363 365//365
f 366//366 365//365 363//363
f 363//363 365//365 366//366
f 365//365 363//363 361//361
f 367//367 365//365 368//368
f 366//366 368//368 365//365
f 365//365 368//368 366//366
f 368//368 365//365 367//367
f 364//364 362//362 368//368
f 367//367 368//368 362//362
f 362//362 368//368 367//367
f 368//368 362//362 364//364
f 367//367 362//362 365//365
f 361//361 365//365 362//362
f 362//362 365//365 361//361
f 365//365 362//362 367//367
f 369//369 370//370 371//371
f 372//372 371//371 370//370
f 373//373 372//372 370//370
f 374//374 372//372 373//373
f 375//375 374//374 373//373
f 376//376 374//374 375//375
f 377//377 376//376 375//375
f 378//378 376//376 377//377
f 379//379 378//378 377//377
f 380//380 378//378 379//379
f 381//381 380//380 379//379
f 382//382 380//380 381//381
f 383//383 382//382 381//381
f 384//384 382//382 383//383
f 383//383 382//382 384//384
f 381//381 382//382 383//383
f 381//381 380//380 382//382
f 379//379 380//380 381//381
f 379//379 378//378 380//380
f 377//377 378//378 379//379
f 377//377 376//376 378//378
f 375//375 376//376 377//377
f 375//375 374//374 376//376
f 373//373 374//374 375//375
f 373//373 372//372 374//374
f 370//370 372//372 373//373
f 370//370 371//371 372//372
f 371//371 370//370 369//369
f 385//385 386//386 380//380
f 378//378 380//380 386//386
f 386//386 380//380 378//378
f 380//380 386//386 385//385
f 385//385 380//380 387//387
f 382//382 387//387 380//380
f 380//380 387//387 382//382
f 387//387 380//380 385//385
f 387//387 382//382 388//388
f 384//384 388//388 382//382
f 382//382 388//388 384//384
f 388//388 382//382 387//387
f 388//388 384//384 389//389
f 383//383 389//389 384//384
f 384//384 389//389 383//383
f 389//389 384//384 388//388
f 389//389 383//383 390//390
f 381//381 390//390 383//383
f 383//383 390//390 381//381
f 390//390 383//383 389//389
f 391//391 390//390 379//379
f 381//381 379//379 390//390
f 390//390 379//379 381//381
f 379//379 390//390 391//391
f 392//392 391//391 377//377
f 379//379 377//377 391//391
f 391//391 377//377 379//379
f 377//377 391//391 392//392
f 393//393 392//392 375//375
f 377//377 375//375 392//392
f 392//392 375//375 377//377
f 375//375 392//392 393//393
f 394//394 393//393 373//373
f 375//375 373//373 393//393
f 393//393 373//373 375//375
f 373//373 393//393 394//394
f 370//370 395//395 373//373
f 394//394 373//373 395//395
f 395//395 373//373 394//394
f 373//373 395//395 370//370
f 369//369 396//396 370//370
f 395//395 370//370 396//396
f 396//396 370//370 395//395
f 370//370 396//396 369//369
f 371//371 397//397 369//369
f 396//396 369//369 397//397
f 397//397 369//369 396//396
f 369//369 397//397 371//371
f 372//372 398//398 371//371
f 397//397 371//371 398//398
f 398//398 371//371 397//397
f 371//371 398//398 372//372
f 399//399 398//398 374//374
f 372//372 374//374 398//398
f 398//398 374//374 372//372
f 374//374 398//398 399//399
f 400//400 399//399 376//376
f 374//374 376//376 399//399
f 399//399 376//376 374//374
f 376//376 399//399 400//400
f 386//386 400//400 378//378
f 376//376 378//378 400//400
f 400//400 378//378 376//376
f 378//378 400//400 386//386
f 393//393 368//368 392//392
f 366//366 392//392 368//368
f 363//363 392//392 366//366
f 391//391 392//392 363//363
f 386//386 391//391 363//363
f 385//385 391//391 386//386
f 390//390 391//391 385//385
f 387//387 390//390 385//385
f 389//389 390//390 387//387
f 388//388 389//389 387//387
f 396//396 397//397 395//395
f 398//398 395//395 397//397
f 394//394 395//395 398//398
f 399//399 394//394 398//398
f 393//393 394//394 399//399
f 400//400 393//393 399//399
f 368//368 393//393 400//400
f 364//364 368//368 400//400
f 386//386 364//364 400//400
f 363//363 364//364 386//386
f 386//386 364//364 363//363
f 400//400 364//364 386//386
f 400//400 368//368 364//364
f 400//400 393//393 368//368
f 399//399 393//393 400//400
f 399//399 394//394 393//393
f 398//398 394//394 399//399
f 398//398 395//395 394//394
f 397//397 395//395 398//398
f 395//395 397//397 396//396
f 387//387 389//389 388//388
f 387//387 390//390 389//389
f 385//385 390//390 387//387
f 385//385 391//391 390//390
f 386//386 391//391 385//385
f 363//363 391//391 386//386
f 363//363 392//392 391//391
f 366//366 392//392 363//363
f 368//368 392//392 366//366
f 392//392 368//368 393//393
f 401//401 402//402 403//403
f 402//402 401//401 404//404
f 402//402 405//405 403//403
f 405//405 402//402 406//406
f 405//405 401//401 403//403
f 401//401 405//405 407//407
f 408//408 401//401 407//407
f 401//401 408//408 404//404
f 408//408 402//402 404//404
f 402//402 408//408 406//406
f 406//406 409//409 405//405
f 406//406 410//410 409//409
f 406//406 411//411 410//410
f 406//406 412//412 411//411
f 406//406 413//413 412//412
f 406//406 414//414 413//413
f 414//414 408//408 415//415
f 408//408 414//414 406//406
f 416//416 405//405 409//409
f 417//417 405//405 416//416
f 418//418 405//405 417//417
f 419//419 405//405 418//418
f 420//420 405//405 419//419
f 421//421 405//405 420//420
f 415//415 405//405 421//421
f 415//415 407//407 405//405
f 407//407 415//415 408//408
f 404//404 401//401 402//402
f 403//403 402//402 401//401
f 406//406 402//402 405//405
f 403//403 405//405 402//402
f 407//407 405//405 401//401
f 403//403 401//401 405//405
f 404//404 408//408 401//401
f 407//407 401//401 408//408
f 406//406 408//408 402//402
f 404//404 402//402 408//408
f 408//408 415//415 407//407
f 405//405 407//407 415//415
f 421//421 405//405 415//415
f 420//420 405//405 421//421
f 419//419 405//405 420//420
f 418//418 405//405 419//419
f 417//417 405//405 418//418
f 416//416 405//405 417//417
f 409//409 405//405 416//416
f 406//406 414//414 408//408
f 415//415 408//408 414//414
f 413//413 414//414 406//406
f 412//412 413//413 406//406
f 411//411 412//412 406//406
f 410//410 411//411 406//406
f 409//409 410//410 406//406
f 405//405 409//409 406//406
f 414//414 421//421 413//413
f 421//421 414//414 415//415
f 413//413 420//420 412//412
f 420//420 413//413 421//421
f 412//412 419//419 411//411
f 419//419 412//412 420//420
f 422//422 417//417 416//416
f 417//417 422//422 418//418
f 410//410 418//418 422//422
f 411//411 418//418 410//410
f 418//418 411//411 419//419
f 410//410 416//416 409//409
f 416//416 410//410 422//422
f 415//415 414//414 421//421
f 413//413 421//421 414//414
f 421//421 413//413 420//420
f 412//412 420//420 413//413
f 420//420 412//412 419//419
f 411//411 419//419 412//412
f 418//418 422//422 417//417
f 416//416 417//417 422//422
f 419//419 411//411 418//418
f 410//410 418//418 411//411
f 422//422 418//418 410//410
f 422//422 410//410 416//416
f 409//409 416//416 410//410
f 423//423 424//424 425//425
f 423//423 426//426 424//424
f 427//427 426//426 423//423
f 427//427 428//428 426//426
f 428//428 427//427 429//429
f 430//430 426//426 428//428
f 426//426 430//430 431//431
f 431//431 424//424 426//426
f 424//424 431//431 432//432
f 424//424 433//433 425//425
f 433//433 424//424 432//432
f 433//433 423//423 425//425
f 423//423 433//433 434//434
f 434//434 427//427 423//423
f 427//427 434//434 435//435
f 435//435 429//429 427//427
f 429//429 435//435 436//436
f 436//436 428//428 429//429
f 428//428 436//436 430//430
f 432//432 434//434 433//433
f 431//431 434//434 432//432
f 431//431 435//435 434//434
f 430//430 435//435 431//431
f 435//435 430//430 436//436
f 429//429 427//427 428//428
f 426//426 428//428 427//427
f 423//423 426//426 427//427
f 424//424 426//426 423//423
f 425//425 424//424 423//423
f 431//431 430//430 426//426
f 428//428 426//426 430//430
f 432//432 431//431 424//424
f 426//426 424//424 431//431
f 432//432 424//424 433//433
f 425//425 433//433 424//424
f 434//434 433//433 423//423
f 425//425 423//423 433//433
f 435//435 434//434 427//427
f 423//423 427//427 434//434
f 436//436 435//435 429//429
f 427//427 429//429 435//435
f 430//430 436//436 428//428
f 429//429 428//428 436//436
f 436//436 430//430 435//435
f 431//431 435//435 430//430
f 434//434 435//435 431//431
f 432//432 434//434 431//431
f 433//433 434//434 432//432
f 437//437 438//438 439//439
f 437//437 440//440 438//438
f 441//441 440//440 437//437
f 441//441 442//442 440//440
f 442//442 441//441 443//443
f 444//444 440//440 442//442
f 440//440 444//444 445//445
f 445//445 438//438 440//440
f 438//438 445//445 446//446
f 438//438 447//447 439//439
f 447//447 438//438 446//446
f 447//447 437//437 439//439
f 437//437 447//447 448//448
f 448//448 441//441 437//437
f 441//441 448//448 449//449
f 449//449 443//443 441//441
f 443//443 449//449 450//450
f 450//450 442//442 443//443
f 442//442 450//450 444//444
f 446//446 448//448 447//447
f 445//445 448//448 446//446
f 445//445 449//449 448//448
f 444//444 449//449 445//445
f 449//449 444//444 450//450
f 443//443 441//441 442//442
f 440//440 442//442 441//441
f 437//437 440//440 441//441
f 438//438 440//440 437//437
f 439//439 438//438 437//437
f 445//445 444//444 440//440
f 442//442 440//440 444//444
f 446//446 445//445 438//438
f 440//440 438//438 445//445
f 446//446 438//438 447//447
f 439//439 447//447 438//438
f 448//448 447//447 437//437
f 439//439 437//437 447//447
f 449//449 448//448 441//441
f 437//437 441//441 448//448
f 450//450 449//449 443//443
f 441//441 443//443 449//449
f 444//444 450//450 442//442
f 443//443 442//442 450//450
f 450//450 444//444 449//449
f 445//445 449//449 444//444
f 448//448 449//449 445//445
f 446//446 448//448 445//445
f 447//447 448//448 446//446
f 451//451 452//452 453//453
f 451//451 454//454 452//452
f 455//455 454//454 451//451
f 455//455 456//456 454//454
f 456//456 455//455 457//457
f 458//458 454//454 456//456
f 454//454 458//458 459//459
f 459//459 452//452 454//454
f 452//452 459//459 460//460
f 452//452 461//461 453//453
f 461//461 452//452 460//460
f 461//461 451//451 453//453
f 451//451 461//461 462//462
f 462//462 455//455 451//451
f 455//455 462//462 463//463
f 463//463 457//457 455//455
f 457//457 463//463 464//464
f 464//464 456//456 457//457
f 456//456 464//464 458//458
f 460//460 462//462 461//461
f 459//459 462//462 460//460
f 459//459 463//463 462//462
f 458//458 463//463 459//459
f 463//463 458//458 464//464
f 457//457 455//455 456//456
f 454//454 456//456 455//455
f 451//451 454//454 455//455
f 452//452 454//454 451//451
f 453//453 452//452 451//451
f 459//459 458//458 454//454
f 456//456 454//454 458//458
f 460//460 459//459 452//452
f 454//454 452//452 459//459
f 460//460 452//452 461//461
f 453//453 461//461 452//452
f 462//462 461//461 451//451
f 453//453 451//451 461//461
f 463//463 462//462 455//455
f 451//451 455//455 462//462
f 464//464 463//463 457//457
f 455//455 457//457 463//463
f 458//458 464//464 456//456
f 457//457 456//456 464//464
f 464//464 458//458 463//463
f 459//459 463//463 458//458
f 462//462 463//463 459//459
f 460//460 462//462 459//459
f 461//461 462//462 460//460
f 465//465 466//466 467//467
f 465//465 468//468 466//466
f 469//469 468//468 465//465
f 469//469 470//470 468//468
f 470//470 469//469 471//471
f 472//472 468//468 470//470
f 468//468 472//472 473//473
f 473//473 466//466 468//468
f 466//466 473//473 474//474
f 466//466 475//475 467//467
f 475//475 466//466 474//474
f 475//475 465//465 467//467
f 465//465 475//475 476//476
f 476//476 469//469 465//465
f 469//469 476//476 477//477
f 477//477 471//471 469//469
f 471//471 477//477 478//478
f 478//478 470//470 471//471
f 470//470 478//478 472//472
f 474//474 476//476 475//475
f 473//473 476//476 474//474
f 473//473 477//477 476//476
f 472//472 477//477 473//473
f 477//477 472//472 478//478
f 471//471 469//469 470//470
f 468//468 470//470 469//469
f 465//465 468//468 469//469
f 466//466 468//468 465//465
f 467//467 466//466 465//465
f 473//473 472//472 468//468
f 470//470 468//468 472//472
f 474//474 473//473 466//466
f 468//468 466//466 473//473
f 474//474 466//466 475//475
f 467//467 475//475 466//466
f 476//476 475//475 465//465
f 467//467 465//465 475//475
f 477//477 476//476 469//469
f 465//465 469//469 476//476
f 478//478 477//477 471//471
f 469//469 471//471 477//477
f 472//472 478//478 470//470
f 471//471 470//470 478//478
f 478//478 472//472 477//477
f 473//473 477//477 472//472
f 476//476 477//477 473//473
f 474//474 476//476 473//473
f 475//475 476//476 474//474