# https://github.com/mikedh/trimesh
v 0.02905500 0.04268200 0.03819600
v 0.00820200 -0.04353300 -0.01290200
v 0.02905500 -0.04353300 0.03819600
v 0.00820200 0.04268200 -0.01290200
v -0.03181100 0.04232200 -0.01534700
v -0.03685200 0.03382300 -0.01534700
v -0.03181100 0.03382300 -0.01534700
v -0.03685200 0.04232200 -0.01534700
v -0.02676900 0.03382300 -0.01534700
v -0.03181100 0.03081800 -0.01534700
v -0.02676900 0.03081800 -0.01534700
v -0.02676900 0.04232200 -0.01534700
v -0.02172700 0.04232200 -0.01534700
v -0.02172700 0.03382300 -0.01534700
v -0.02172700 0.03081800 -0.01534700
v -0.02676900 0.02781200 -0.01534700
v -0.02172700 0.02781200 -0.01534700
v -0.03685200 0.02781200 -0.01534700
v -0.03181100 0.02781200 -0.01534700
v -0.03181100 0.02480600 -0.01534700
v -0.02676900 0.02480600 -0.01534700
v -0.02172700 0.02480600 -0.01534700
v -0.02676900 0.02180000 -0.01534700
v -0.02172700 0.02180000 -0.01534700
v -0.01668500 0.02180000 -0.01534700
v -0.02172700 0.01879500 -0.01534700
v -0.01668500 0.01879500 -0.01534700
v -0.01668500 0.02480600 -0.01534700
v -0.01668500 0.02781200 -0.01534700
v -0.01668500 0.03081800 -0.01534700
v -0.01668500 0.03382300 -0.01534700
v -0.01668500 0.04232200 -0.01534700
v -0.03685200 0.02180000 -0.01534700
v -0.03181100 0.02180000 -0.01534700
v -0.03181100 0.01879500 -0.01534700
v -0.02676900 0.01879500 -0.01534700
v -0.02676900 0.01578900 -0.01534700
v -0.02172700 0.01578900 -0.01534700
v -0.01668500 0.01578900 -0.01534700
v -0.02172700 0.01278300 -0.01534700
v -0.01668500 0.01278300 -0.01534700
v -0.01164300 0.00977800 -0.01534700
v -0.01668500 0.00977800 -0.01534700
v -0.01164300 0.01419600 -0.01534700
v -0.01164300 0.01578900 -0.01534700
v -0.01164300 0.01982100 -0.01534700
v -0.01164300 0.02180000 -0.01534700
v -0.01164300 0.02544600 -0.01534700
v -0.01164300 0.02781200 -0.01534700
v -0.01164300 0.03107100 -0.01534700
v -0.01164300 0.03382300 -0.01534700
v -0.01164300 0.03669600 -0.01534700
v -0.01164300 0.04232200 -0.01534700
v -0.03685200 0.01578900 -0.01534700
v -0.03181100 0.01578900 -0.01534700
v -0.03181100 0.01278300 -0.01534700
v -0.02676900 0.01278300 -0.01534700
v -0.02676900 0.00977800 -0.01534700
v -0.02172700 0.00977800 -0.01534700
v -0.02172700 0.00677200 -0.01534700
v -0.01668500 0.00677200 -0.01534700
v -0.01164300 0.00376600 -0.01534700
v -0.01668500 0.00376600 -0.01534700
v -0.01164300 0.00857100 -0.01534700
v -0.00776500 0.00294600 -0.01534700
v -0.01164300 0.00294600 -0.01534700
v -0.00776500 0.00857100 -0.01534700
v -0.00776500 0.01419600 -0.01534700
v -0.00776500 0.01982100 -0.01534700
v -0.00776500 0.02544600 -0.01534700
v -0.00776500 0.03107100 -0.01534700
v -0.00776500 0.03669600 -0.01534700
v -0.00776500 0.04232200 -0.01534700
v -0.00000800 0.04232200 -0.01534700
v -0.00388700 0.03066700 -0.01534700
v -0.00000800 0.03066700 -0.01534700
v -0.00388700 0.04232200 -0.01534700
v -0.00388700 -0.00722400 -0.01534700
v -0.00000800 -0.00722400 -0.01534700
v -0.00388700 -0.01285900 -0.01534700
v -0.00000800 -0.01285900 -0.01534700
v -0.03685200 0.00977800 -0.01534700
v -0.03181100 0.00977800 -0.01534700
v -0.03181100 0.00677200 -0.01534700
v -0.02676900 0.00677200 -0.01534700
v -0.02676900 0.00376600 -0.01534700
v -0.02172700 0.00376600 -0.01534700
v -0.02172700 0.00076100 -0.01534700
v -0.01668500 0.00076100 -0.01534700
v -0.01164300 -0.00224500 -0.01534700
v -0.01668500 -0.00224500 -0.01534700
v -0.00776500 -0.00268000 -0.01534700
v -0.01164300 -0.00268000 -0.01534700
v -0.00776500 -0.00722400 -0.01534700
v -0.00776500 -0.00830500 -0.01534700
v -0.00776500 -0.01285900 -0.01534700
v -0.00388700 -0.01849300 -0.01534700
v -0.00000800 -0.01849300 -0.01534700
v -0.03685200 0.00376600 -0.01534700
v -0.03181100 0.00376600 -0.01534700
v -0.03181100 0.00076100 -0.01534700
v -0.02676900 0.00076100 -0.01534700
v -0.02676900 -0.00224500 -0.01534700
v -0.02172700 -0.00224500 -0.01534700
v -0.02172700 -0.00525100 -0.01534700
v -0.01668500 -0.00525100 -0.01534700
v -0.01164300 -0.00825700 -0.01534700
v -0.01668500 -0.00825700 -0.01534700
v -0.01164300 -0.00830500 -0.01534700
v -0.01164300 -0.01393000 -0.01534700
v -0.00776500 -0.01393000 -0.01534700
v -0.00776500 -0.01849300 -0.01534700
v -0.00388700 -0.02412800 -0.01534700
v -0.00000800 -0.02412800 -0.01534700
v -0.00000800 -0.02470700 -0.01534700
v -0.00388700 -0.03080500 -0.01534700
v -0.00000800 -0.03080500 -0.01534700
v -0.00388700 -0.02470700 -0.01534700
v -0.00000800 -0.03690300 -0.01534700
v -0.00388700 -0.04300100 -0.01534700
v -0.00000800 -0.04300100 -0.01534700
v -0.00388700 -0.03690300 -0.01534700
v -0.03685200 -0.00224500 -0.01534700
v -0.03181100 -0.00224500 -0.01534700
v -0.03181100 -0.00525100 -0.01534700
v -0.02676900 -0.00525100 -0.01534700
v -0.02676900 -0.00825700 -0.01534700
v -0.02172700 -0.00825700 -0.01534700
v -0.02172700 -0.01126200 -0.01534700
v -0.01668500 -0.01126200 -0.01534700
v -0.01668500 -0.01426800 -0.01534700
v -0.01164300 -0.01426800 -0.01534700
v -0.00776500 -0.02470700 -0.01534700
v -0.00776500 -0.02412800 -0.01534700
v -0.01164300 -0.01955500 -0.01534700
v -0.00776500 -0.01955500 -0.01534700
v -0.00776500 -0.02518000 -0.01534700
v -0.00776500 -0.03080500 -0.01534700
v -0.00776500 -0.04300100 -0.01534700
v -0.00776500 -0.03690300 -0.01534700
v -0.03685200 -0.00825700 -0.01534700
v -0.03181100 -0.00825700 -0.01534700
v -0.03181100 -0.01126200 -0.01534700
v -0.02676900 -0.01126200 -0.01534700
v -0.02676900 -0.01426800 -0.01534700
v -0.02172700 -0.01426800 -0.01534700
v -0.02172700 -0.01727400 -0.01534700
v -0.01668500 -0.01727400 -0.01534700
v -0.01668500 -0.02027900 -0.01534700
v -0.01164300 -0.02027900 -0.01534700
v -0.01164300 -0.02518000 -0.01534700
v -0.01164300 -0.02629100 -0.01534700
v -0.01164300 -0.03080500 -0.01534700
v -0.01164300 -0.04300100 -0.01534700
v -0.01164300 -0.03404700 -0.01534700
v -0.03685200 -0.01426800 -0.01534700
v -0.03181100 -0.01426800 -0.01534700
v -0.03181100 -0.01727400 -0.01534700
v -0.02676900 -0.01727400 -0.01534700
v -0.02676900 -0.02027900 -0.01534700
v -0.02172700 -0.02027900 -0.01534700
v -0.02172700 -0.02328500 -0.01534700
v -0.01668500 -0.02328500 -0.01534700
v -0.01668500 -0.02629100 -0.01534700
v -0.01668500 -0.03404700 -0.01534700
v -0.01668500 -0.02929600 -0.01534700
v -0.01668500 -0.03705300 -0.01534700
v -0.01668500 -0.04300100 -0.01534700
v -0.03685200 -0.02027900 -0.01534700
v -0.03181100 -0.02027900 -0.01534700
v -0.03181100 -0.02328500 -0.01534700
v -0.02676900 -0.02328500 -0.01534700
v -0.02676900 -0.02629100 -0.01534700
v -0.02172700 -0.02629100 -0.01534700
v -0.02172700 -0.02929600 -0.01534700
v -0.02172700 -0.03705300 -0.01534700
v -0.02172700 -0.03404700 -0.01534700
v -0.02172700 -0.04300100 -0.01534700
v -0.03685200 -0.02629100 -0.01534700
v -0.03181100 -0.02629100 -0.01534700
v -0.03181100 -0.02929600 -0.01534700
v -0.02676900 -0.02929600 -0.01534700
v -0.02676900 -0.03404700 -0.01534700
v -0.02676900 -0.04300100 -0.01534700
v -0.02676900 -0.03705300 -0.01534700
v -0.03685200 -0.03404700 -0.01534700
v -0.03181100 -0.03404700 -0.01534700
v -0.03181100 -0.03705300 -0.01534700
v -0.03181100 -0.04300100 -0.01534700
v -0.03685200 -0.04300100 -0.01534700
v -0.03900400 0.01026300 -0.01534700
v -0.04094400 -0.00525000 -0.01534700
v -0.03900400 -0.00525000 -0.01534700
v -0.04094400 0.01026300 -0.01534700
v -0.04234500 0.00727300 -0.01534700
v -0.05010100 -0.00242300 -0.01534700
v -0.04234500 -0.00242300 -0.01534700
v -0.05010100 0.00727300 -0.01534700
v -0.05241800 0.00250700 -0.01534700
v -0.05435700 -0.00525000 -0.01534700
v -0.05241800 -0.00525000 -0.01534700
v -0.05435700 0.00250700 -0.01534700
v -0.05241800 0.01026300 -0.01534700
v -0.05435700 0.01026300 -0.01534700
v 0.00511000 -0.04696500 -0.01922500
v 0.00511000 0.04611500 -0.01534700
v 0.00511000 -0.04696500 -0.01534700
v 0.00511000 0.04611500 -0.01922500
v -0.05694300 0.04611500 -0.01922500
v -0.05694300 -0.04696500 -0.01922500
v 0.00870100 0.04611500 -0.01681200
v 0.00870100 -0.04696500 -0.01681200
v -0.05694300 -0.04696500 -0.01534700
v -0.05694300 0.04611500 -0.01534700
v 0.02855600 -0.04696500 0.04210600
v 0.02725900 -0.04353300 0.03892900
v 0.02725900 0.04268200 0.03892900
v 0.02855600 0.04611500 0.04210600
v 0.00640700 0.04268200 -0.01216900
v 0.00640700 -0.04353300 -0.01216900
v 0.03214800 -0.04696500 0.04064100
v 0.03214800 0.04611500 0.04064100
vn -0.75270296 -0.57735167 -0.31639107
vn -0.31632130 0.57733862 0.75274229
vn -0.75270296 0.57735167 -0.31639107
vn -0.31632130 -0.57733862 0.75274229
vn 0.00000000 0.00000000 1.00000000
vn 0.00000000 0.00000000 1.00000000
vn 0.00000000 0.00000000 1.00000000
vn 0.00000000 0.00000000 1.00000000
vn 0.00000000 0.00000000 1.00000000
vn 0.00000000 0.00000000 1.00000000
vn 0.00000000 0.00000000 1.00000000
vn 0.00000000 0.00000000 1.00000000
vn 0.00000000 0.00000000 1.00000000
vn 0.00000000 0.00000000 1.00000000
vn 0.00000000 0.00000000 1.00000000
vn 0.00000000 0.00000000 1.00000000
vn 0.00000000 0.00000000 1.00000000
vn 0.00000000 0.00000000 1.00000000
vn 0.00000000 0.00000000 1.00000000
vn 0.00000000 0.00000000 1.00000000
vn 0.00000000 0.00000000 1.00000000
vn 0.00000000 0.00000000 1.00000000
vn 0.00000000 0.00000000 1.00000000
vn 0.00000000 0.00000000 1.00000000
vn 0.00000000 0.00000000 1.00000000
vn 0.00000000 0.00000000 1.00000000
vn 0.00000000 0.00000000 1.00000000
vn 0.00000000 0.00000000 1.00000000
vn 0.00000000 0.00000000 1.00000000
vn 0.00000000 0.00000000 1.00000000
vn 0.00000000 0.00000000 1.00000000
vn 0.00000000 0.00000000 1.00000000
vn 0.00000000 0.00000000 1.00000000
vn 0.00000000 0.00000000 1.00000000
vn 0.00000000 0.00000000 1.00000000
vn 0.00000000 0.00000000 1.00000000
vn 0.00000000 0.00000000 1.00000000
vn 0.00000000 0.00000000 1.00000000
vn 0.00000000 0.00000000 1.00000000
vn 0.00000000 0.00000000 1.00000000
vn 0.00000000 0.00000000 1.00000000
vn 0.00000000 0.00000000 1.00000000
vn 0.00000000 0.00000000 1.00000000
vn 0.00000000 0.00000000 1.00000000
vn 0.00000000 0.00000000 1.00000000
vn 0.00000000 0.00000000 1.00000000
vn 0.00000000 0.00000000 1.00000000
vn 0.00000000 0.00000000 1.00000000
vn 0.00000000 0.00000000 1.00000000
vn 0.00000000 0.00000000 1.00000000
vn 0.00000000 0.00000000 1.00000000
vn 0.00000000 0.00000000 1.00000000
vn 0.00000000 0.00000000 1.00000000
vn 0.00000000 0.00000000 1.00000000
vn 0.00000000 0.00000000 1.00000000
vn 0.00000000 0.00000000 1.00000000
vn 0.00000000 0.00000000 1.00000000
vn 0.00000000 0.00000000 1.00000000
vn 0.00000000 0.00000000 1.00000000
vn 0.00000000 0.00000000 1.00000000
vn 0.00000000 0.00000000 1.00000000
vn 0.00000000 0.00000000 1.00000000
vn 0.00000000 0.00000000 1.00000000
vn 0.00000000 0.00000000 1.00000000
vn 0.00000000 0.00000000 1.00000000
vn 0.00000000 0.00000000 1.00000000
vn 0.00000000 0.00000000 1.00000000
vn 0.00000000 0.00000000 1.00000000
vn 0.00000000 0.00000000 1.00000000
vn 0.00000000 0.00000000 1.00000000
vn 0.00000000 0.00000000 1.00000000
vn 0.00000000 0.00000000 1.00000000
vn 0.00000000 0.00000000 1.00000000
vn 0.00000000 0.00000000 1.00000000
vn 0.00000000 0.00000000 1.00000000
vn 0.00000000 0.00000000 1.00000000
vn 0.00000000 0.00000000 1.00000000
vn 0.00000000 0.00000000 1.00000000
vn 0.00000000 0.00000000 1.00000000
vn 0.00000000 0.00000000 1.00000000
vn 0.00000000 0.00000000 1.00000000
vn 0.00000000 0.00000000 1.00000000
vn 0.00000000 0.00000000 1.00000000
vn 0.00000000 0.00000000 1.00000000
vn 0.00000000 0.00000000 1.00000000
vn 0.00000000 0.00000000 1.00000000
vn 0.00000000 0.00000000 1.00000000
vn 0.00000000 0.00000000 1.00000000
vn 0.00000000 0.00000000 1.00000000
vn 0.00000000 0.00000000 1.00000000
vn 0.00000000 0.00000000 1.00000000
vn 0.00000000 0.00000000 1.00000000
vn 0.00000000 0.00000000 1.00000000
vn 0.00000000 0.00000000 1.00000000
vn 0.00000000 0.00000000 1.00000000
vn 0.00000000 0.00000000 1.00000000
vn 0.00000000 0.00000000 1.00000000
vn 0.00000000 0.00000000 1.00000000
vn 0.00000000 0.00000000 1.00000000
vn 0.00000000 0.00000000 1.00000000
vn 0.00000000 0.00000000 1.00000000
vn 0.00000000 0.00000000 1.00000000
vn 0.00000000 0.00000000 1.00000000
vn 0.00000000 0.00000000 1.00000000
vn 0.00000000 0.00000000 1.00000000
vn 0.00000000 0.00000000 1.00000000
vn 0.00000000 0.00000000 1.00000000
vn 0.00000000 0.00000000 1.00000000
vn 0.00000000 0.00000000 1.00000000
vn 0.00000000 0.00000000 1.00000000
vn 0.00000000 0.00000000 1.00000000
vn 0.00000000 0.00000000 1.00000000
vn 0.00000000 0.00000000 1.00000000
vn 0.00000000 0.00000000 1.00000000
vn 0.00000000 0.00000000 1.00000000
vn 0.00000000 0.00000000 1.00000000
vn 0.00000000 0.00000000 1.00000000
vn 0.00000000 0.00000000 1.00000000
vn 0.00000000 0.00000000 1.00000000
vn 0.00000000 0.00000000 1.00000000
vn 0.00000000 0.00000000 1.00000000
vn 0.00000000 0.00000000 1.00000000
vn 0.00000000 0.00000000 1.00000000
vn 0.00000000 0.00000000 1.00000000
vn 0.00000000 0.00000000 1.00000000
vn 0.00000000 0.00000000 1.00000000
vn 0.00000000 0.00000000 1.00000000
vn 0.00000000 0.00000000 1.00000000
vn 0.00000000 0.00000000 1.00000000
vn 0.00000000 0.00000000 1.00000000
vn 0.00000000 0.00000000 1.00000000
vn 0.00000000 0.00000000 1.00000000
vn 0.00000000 0.00000000 1.00000000
vn 0.00000000 0.00000000 1.00000000
vn 0.00000000 0.00000000 1.00000000
vn 0.00000000 0.00000000 1.00000000
vn 0.00000000 0.00000000 1.00000000
vn 0.00000000 0.00000000 1.00000000
vn 0.00000000 0.00000000 1.00000000
vn 0.00000000 0.00000000 1.00000000
vn 0.00000000 0.00000000 1.00000000
vn 0.00000000 0.00000000 1.00000000
vn 0.00000000 0.00000000 1.00000000
vn 0.00000000 0.00000000 1.00000000
vn 0.00000000 0.00000000 1.00000000
vn 0.00000000 0.00000000 1.00000000
vn 0.00000000 0.00000000 1.00000000
vn 0.00000000 0.00000000 1.00000000
vn 0.00000000 0.00000000 1.00000000
vn 0.00000000 0.00000000 1.00000000
vn 0.00000000 0.00000000 1.00000000
vn 0.00000000 0.00000000 1.00000000
vn 0.00000000 0.00000000 1.00000000
vn 0.00000000 0.00000000 1.00000000
vn 0.00000000 0.00000000 1.00000000
vn 0.00000000 0.00000000 1.00000000
vn 0.00000000 0.00000000 1.00000000
vn 0.00000000 0.00000000 1.00000000
vn 0.00000000 0.00000000 1.00000000
vn 0.00000000 0.00000000 1.00000000
vn 0.00000000 0.00000000 1.00000000
vn 0.00000000 0.00000000 1.00000000
vn 0.00000000 0.00000000 1.00000000
vn 0.00000000 0.00000000 1.00000000
vn 0.00000000 0.00000000 1.00000000
vn 0.00000000 0.00000000 1.00000000
vn 0.00000000 0.00000000 1.00000000
vn 0.00000000 0.00000000 1.00000000
vn 0.00000000 0.00000000 1.00000000
vn 0.00000000 0.00000000 1.00000000
vn 0.00000000 0.00000000 1.00000000
vn 0.00000000 0.00000000 1.00000000
vn 0.00000000 0.00000000 1.00000000
vn 0.00000000 0.00000000 1.00000000
vn 0.00000000 0.00000000 1.00000000
vn 0.00000000 0.00000000 1.00000000
vn 0.00000000 0.00000000 1.00000000
vn 0.00000000 0.00000000 1.00000000
vn 0.00000000 0.00000000 1.00000000
vn 0.00000000 0.00000000 1.00000000
vn 0.00000000 0.00000000 1.00000000
vn 0.00000000 0.00000000 1.00000000
vn 0.00000000 0.00000000 1.00000000
vn 0.00000000 0.00000000 1.00000000
vn 0.00000000 0.00000000 1.00000000
vn 0.00000000 0.00000000 1.00000000
vn 0.00000000 0.00000000 1.00000000
vn 0.00000000 0.00000000 1.00000000
vn 0.00000000 0.00000000 1.00000000
vn 0.00000000 0.00000000 1.00000000
vn 0.00000000 0.00000000 1.00000000
vn 0.00000000 0.00000000 1.00000000
vn 0.00000000 0.00000000 1.00000000
vn 0.00000000 0.00000000 1.00000000
vn 0.00000000 0.00000000 1.00000000
vn 0.00000000 0.00000000 1.00000000
vn 0.00000000 0.00000000 1.00000000
vn 0.00000000 0.00000000 1.00000000
vn 0.00000000 0.00000000 1.00000000
vn 0.00000000 0.00000000 1.00000000
vn 0.00000000 0.00000000 1.00000000
vn 0.00000000 0.00000000 1.00000000
vn 0.00000000 0.00000000 1.00000000
vn 0.00000000 0.00000000 1.00000000
vn 0.57735027 -0.57735027 -0.57735027
vn -0.14647818 0.96488419 0.21804274
vn -0.14647896 -0.96488455 0.21804064
vn 0.57735027 0.57735027 -0.57735027
vn -0.57735027 0.57735027 -0.57735027
vn -0.57735027 -0.57735027 -0.57735027
vn 0.31643985 0.57735672 -0.75267857
vn 0.31643985 -0.57735672 -0.75267857
vn -0.57735027 -0.57735027 0.57735027
vn -0.57735027 0.57735027 0.57735027
vn -0.31645211 -0.57737398 0.75266018
vn -0.95141927 0.30145304 0.06266924
vn -0.95142148 -0.30144690 0.06266526
vn -0.31645373 0.57737434 0.75265922
vn -0.72352233 -0.30157895 0.62093927
vn -0.72352353 0.30158511 0.62093487
vn 0.75267492 -0.57733870 0.31648144
vn 0.75267492 0.57733870 0.31648144
f 1//1 2//2 3//3
f 2//2 1//1 4//4
f 5//5 6//6 7//7
f 6//6 5//5 8//8
f 9//9 10//10 11//11
f 9//9 7//7 10//10
f 12//12 7//7 9//9
f 7//7 12//12 5//5
f 13//13 9//9 14//14
f 9//9 13//13 12//12
f 15//15 16//16 17//17
f 15//15 11//11 16//16
f 14//14 11//11 15//15
f 11//11 14//14 9//9
f 10//10 18//18 19//19
f 7//7 18//18 10//10
f 18//18 7//7 6//6
f 16//16 20//20 21//21
f 16//16 19//19 20//20
f 11//11 19//19 16//16
f 19//19 11//11 10//10
f 22//22 23//23 24//24
f 22//22 21//21 23//23
f 17//17 21//21 22//22
f 21//21 17//17 16//16
f 25//25 26//26 27//27
f 25//25 24//24 26//26
f 28//28 24//24 25//25
f 24//24 28//28 22//22
f 29//29 22//22 28//28
f 29//29 17//17 22//22
f 30//30 17//17 29//29
f 17//17 30//30 15//15
f 31//31 15//15 30//30
f 31//31 14//14 15//15
f 32//32 14//14 31//31
f 14//14 32//32 13//13
f 20//20 33//33 34//34
f 19//19 33//33 20//20
f 33//33 19//19 18//18
f 23//23 35//35 36//36
f 23//23 34//34 35//35
f 21//21 34//34 23//23
f 34//34 21//21 20//20
f 26//26 37//37 38//38
f 26//26 36//36 37//37
f 24//24 36//36 26//26
f 36//36 24//24 23//23
f 39//39 40//40 41//41
f 39//39 38//38 40//40
f 27//27 38//38 39//39
f 38//38 27//27 26//26
f 42//42 41//41 43//43
f 44//44 41//41 42//42
f 45//45 41//41 44//44
f 41//41 45//45 39//39
f 45//45 27//27 39//39
f 46//46 27//27 45//45
f 47//47 27//27 46//46
f 27//27 47//47 25//25
f 47//47 28//28 25//25
f 48//48 28//28 47//47
f 49//49 28//28 48//48
f 28//28 49//49 29//29
f 49//49 30//30 29//29
f 50//50 30//30 49//49
f 51//51 30//30 50//50
f 30//30 51//51 31//31
f 52//52 31//31 51//51
f 53//53 31//31 52//52
f 31//31 53//53 32//32
f 35//35 54//54 55//55
f 34//34 54//54 35//35
f 54//54 34//34 33//33
f 37//37 56//56 57//57
f 37//37 55//55 56//56
f 36//36 55//55 37//37
f 55//55 36//36 35//35
f 40//40 58//58 59//59
f 40//40 57//57 58//58
f 38//38 57//57 40//40
f 57//57 38//38 37//37
f 43//43 60//60 61//61
f 43//43 59//59 60//60
f 41//41 59//59 43//43
f 59//59 41//41 40//40
f 62//62 61//61 63//63
f 64//64 61//61 62//62
f 42//42 61//61 64//64
f 61//61 42//42 43//43
f 65//65 62//62 66//66
f 67//67 62//62 65//65
f 62//62 67//67 64//64
f 67//67 42//42 64//64
f 68//68 42//42 67//67
f 42//42 68//68 44//44
f 68//68 45//45 44//44
f 69//69 45//45 68//68
f 45//45 69//69 46//46
f 69//69 47//47 46//46
f 70//70 47//47 69//69
f 47//47 70//70 48//48
f 70//70 49//49 48//48
f 71//71 49//49 70//70
f 49//49 71//71 50//50
f 71//71 51//51 50//50
f 72//72 51//51 71//71
f 51//51 72//72 52//52
f 73//73 52//52 72//72
f 52//52 73//73 53//53
f 74//74 75//75 76//76
f 75//75 74//74 77//77
f 76//76 78//78 79//79
f 78//78 76//76 75//75
f 79//79 80//80 81//81
f 80//80 79//79 78//78
f 56//56 82//82 83//83
f 55//55 82//82 56//56
f 82//82 55//55 54//54
f 58//58 84//84 85//85
f 58//58 83//83 84//84
f 57//57 83//83 58//58
f 83//83 57//57 56//56
f 60//60 86//86 87//87
f 60//60 85//85 86//86
f 59//59 85//85 60//60
f 85//85 59//59 58//58
f 63//63 88//88 89//89
f 63//63 87//87 88//88
f 61//61 87//87 63//63
f 87//87 61//61 60//60
f 90//90 89//89 91//91
f 66//66 89//89 90//90
f 62//62 89//89 66//66
f 89//89 62//62 63//63
f 92//92 90//90 93//93
f 65//65 90//90 92//92
f 90//90 65//65 66//66
f 78//78 92//92 94//94
f 78//78 65//65 92//92
f 78//78 67//67 65//65
f 78//78 68//68 67//67
f 78//78 69//69 68//68
f 78//78 70//70 69//69
f 75//75 70//70 78//78
f 75//75 71//71 70//70
f 75//75 72//72 71//71
f 77//77 72//72 75//75
f 72//72 77//77 73//73
f 80//80 95//95 96//96
f 78//78 95//95 80//80
f 95//95 78//78 94//94
f 81//81 97//97 98//98
f 97//97 81//81 80//80
f 84//84 99//99 100//100
f 83//83 99//99 84//84
f 99//99 83//83 82//82
f 86//86 101//101 102//102
f 86//86 100//100 101//101
f 85//85 100//100 86//86
f 100//100 85//85 84//84
f 88//88 103//103 104//104
f 88//88 102//102 103//103
f 87//87 102//102 88//88
f 102//102 87//87 86//86
f 91//91 105//105 106//106
f 91//91 104//104 105//105
f 89//89 104//104 91//91
f 104//104 89//89 88//88
f 107//107 106//106 108//108
f 93//93 106//106 107//107
f 90//90 106//106 93//93
f 106//106 90//90 91//91
f 95//95 107//107 109//109
f 94//94 107//107 95//95
f 92//92 107//107 94//94
f 107//107 92//92 93//93
f 96//96 110//110 111//111
f 95//95 110//110 96//96
f 110//110 95//95 109//109
f 97//97 111//111 112//112
f 80//80 111//111 97//97
f 111//111 80//80 96//96
f 98//98 113//113 114//114
f 113//113 98//98 97//97
f 115//115 116//116 117//117
f 116//116 115//115 118//118
f 119//119 120//120 121//121
f 120//120 119//119 122//122
f 117//117 122//122 119//119
f 122//122 117//117 116//116
f 101//101 123//123 124//124
f 100//100 123//123 101//101
f 123//123 100//100 99//99
f 103//103 125//125 126//126
f 103//103 124//124 125//125
f 102//102 124//124 103//103
f 124//124 102//102 101//101
f 105//105 127//127 128//128
f 105//105 126//126 127//127
f 104//104 126//126 105//105
f 126//126 104//104 103//103
f 108//108 129//129 130//130
f 108//108 128//128 129//129
f 106//106 128//128 108//108
f 128//128 106//106 105//105
f 110//110 131//131 132//132
f 110//110 130//130 131//131
f 109//109 130//130 110//110
f 107//107 130//130 109//109
f 130//130 107//107 108//108
f 115//115 133//133 118//118
f 114//114 133//133 115//115
f 113//113 133//133 114//114
f 133//133 113//113 134//134
f 112//112 135//135 136//136
f 112//112 132//132 135//135
f 111//111 132//132 112//112
f 132//132 111//111 110//110
f 113//113 136//136 134//134
f 97//97 136//136 113//113
f 136//136 97//97 112//112
f 116//116 137//137 138//138
f 118//118 137//137 116//116
f 137//137 118//118 133//133
f 122//122 139//139 120//120
f 139//139 122//122 140//140
f 116//116 140//140 122//122
f 140//140 116//116 138//138
f 125//125 141//141 142//142
f 124//124 141//141 125//125
f 141//141 124//124 123//123
f 127//127 143//143 144//144
f 127//127 142//142 143//143
f 126//126 142//142 127//127
f 142//142 126//126 125//125
f 129//129 145//145 146//146
f 129//129 144//144 145//145
f 128//128 144//144 129//129
f 144//144 128//128 127//127
f 131//131 147//147 148//148
f 131//131 146//146 147//147
f 130//130 146//146 131//131
f 146//146 130//130 129//129
f 135//135 149//149 150//150
f 135//135 148//148 149//149
f 132//132 148//148 135//135
f 148//148 132//132 131//131
f 133//133 151//151 137//137
f 134//134 151//151 133//133
f 134//134 150//150 151//151
f 136//136 150//150 134//134
f 150//150 136//136 135//135
f 138//138 152//152 153//153
f 137//137 152//152 138//138
f 152//152 137//137 151//151
f 140//140 154//154 139//139
f 140//140 155//155 154//154
f 138//138 155//155 140//140
f 155//155 138//138 153//153
f 143//143 156//156 157//157
f 142//142 156//156 143//143
f 156//156 142//142 141//141
f 145//145 158//158 159//159
f 145//145 157//157 158//158
f 144//144 157//157 145//145
f 157//157 144//144 143//143
f 147//147 160//160 161//161
f 147//147 159//159 160//160
f 146//146 159//159 147//147
f 159//159 146//146 145//145
f 149//149 162//162 163//163
f 149//149 161//161 162//162
f 148//148 161//161 149//149
f 161//161 148//148 147//147
f 151//151 164//164 152//152
f 151//151 163//163 164//164
f 150//150 163//163 151//151
f 163//163 150//150 149//149
f 153//153 165//165 155//155
f 153//153 166//166 165//165
f 152//152 166//166 153//153
f 166//166 152//152 164//164
f 154//154 167//167 168//168
f 155//155 167//167 154//154
f 167//167 155//155 165//165
f 158//158 169//169 170//170
f 157//157 169//169 158//158
f 169//169 157//157 156//156
f 160//160 171//171 172//172
f 160//160 170//170 171//171
f 159//159 170//170 160//160
f 170//170 159//159 158//158
f 162//162 173//173 174//174
f 162//162 172//172 173//173
f 161//161 172//172 162//162
f 172//172 161//161 160//160
f 164//164 175//175 166//166
f 164//164 174//174 175//175
f 163//163 174//174 164//164
f 174//174 163//163 162//162
f 165//165 176//176 167//167
f 165//165 177//177 176//176
f 166//166 177//177 165//165
f 177//177 166//166 175//175
f 167//167 178//178 168//168
f 178//178 167//167 176//176
f 171//171 179//179 180//180
f 170//170 179//179 171//171
f 179//179 170//170 169//169
f 173//173 181//181 182//182
f 173//173 180//180 181//181
f 172//172 180//180 173//173
f 180//180 172//172 171//171
f 175//175 183//183 177//177
f 175//175 182//182 183//183
f 174//174 182//182 175//175
f 182//182 174//174 173//173
f 176//176 184//184 178//178
f 176//176 185//185 184//184
f 177//177 185//185 176//176
f 185//185 177//177 183//183
f 181//181 186//186 187//187
f 180//180 186//186 181//181
f 186//186 180//180 179//179
f 183//183 188//188 185//185
f 183//183 187//187 188//188
f 182//182 187//187 183//183
f 187//187 182//182 181//181
f 185//185 189//189 184//184
f 189//189 185//185 188//188
f 188//188 190//190 189//189
f 187//187 190//190 188//188
f 190//190 187//187 186//186
f 191//191 192//192 193//193
f 192//192 191//191 194//194
f 195//195 196//196 197//197
f 196//196 195//195 198//198
f 199//199 200//200 201//201
f 200//200 199//199 202//202
f 203//203 202//202 199//199
f 202//202 203//203 204//204
f 205//205 206//206 207//207
f 206//206 205//205 208//208
f 209//209 205//205 210//210
f 205//205 209//209 208//208
f 211//211 207//207 206//206
f 207//207 211//211 212//212
f 213//213 205//205 207//207
f 205//205 213//213 210//210
f 192//192 197//197 201//201
f 192//192 195//195 197//197
f 195//195 194//194 198//198
f 194//194 195//195 192//192
f 123//123 193//193 141//141
f 99//99 193//193 123//123
f 82//82 193//193 99//99
f 82//82 191//191 193//193
f 191//191 203//203 194//194
f 191//191 204//204 203//203
f 191//191 54//54 204//204
f 54//54 191//191 82//82
f 207//207 121//121 213//213
f 207//207 119//119 121//121
f 207//207 117//117 119//119
f 207//207 115//115 117//117
f 207//207 114//114 115//115
f 207//207 98//98 114//114
f 207//207 81//81 98//98
f 207//207 79//79 81//81
f 207//207 76//76 79//79
f 207//207 74//74 76//76
f 74//74 73//73 77//77
f 74//74 53//53 73//73
f 74//74 32//32 53//53
f 74//74 13//13 32//32
f 74//74 12//12 13//13
f 74//74 5//5 12//12
f 74//74 8//8 5//5
f 74//74 206//206 8//8
f 206//206 74//74 207//207
f 120//120 213//213 121//121
f 139//139 213//213 120//120
f 154//154 213//213 139//139
f 168//168 213//213 154//154
f 178//178 213//213 168//168
f 184//184 213//213 178//178
f 189//189 213//213 184//184
f 190//190 213//213 189//189
f 186//186 213//213 190//190
f 179//179 213//213 186//186
f 169//169 213//213 179//179
f 156//156 213//213 169//169
f 141//141 213//213 156//156
f 193//193 213//213 141//141
f 192//192 213//213 193//193
f 201//201 213//213 192//192
f 200//200 213//213 201//201
f 202//202 213//213 200//200
f 204//204 213//213 202//202
f 33//33 204//204 54//54
f 18//18 204//204 33//33
f 6//6 204//204 18//18
f 8//8 204//204 6//6
f 204//204 214//214 213//213
f 8//8 214//214 204//204
f 214//214 8//8 206//206
f 196//196 201//201 197//197
f 196//196 199//199 201//201
f 198//198 199//199 196//196
f 198//198 203//203 199//199
f 203//203 198//198 194//194
f 209//209 213//213 214//214
f 213//213 209//209 210//210
f 209//209 206//206 208//208
f 206//206 209//209 214//214
f 215//215 216//216 207//207
f 215//215 217//217 216//216
f 217//217 218//218 219//219
f 218//218 217//217 215//215
f 220//220 207//207 216//216
f 219//219 207//207 220//220
f 219//219 206//206 207//207
f 206//206 219//219 218//218
f 215//215 212//212 221//221
f 212//212 215//215 207//207
f 221//221 218//218 215//215
f 218//218 221//221 222//222
f 211//211 218//218 222//222
f 218//218 211//211 206//206
f 211//211 221//221 212//212
f 221//221 211//211 222//222
f 2//2 219//219 220//220
f 219//219 2//2 4//4
f 3//3 220//220 216//216
f 220//220 3//3 2//2
f 219//219 1//1 217//217
f 1//1 219//219 4//4
f 1//1 216//216 217//217
f 216//216 1//1 3//3