# https://github.com/mikedh/trimesh
v -0.14356000 -0.01671700 -0.15075700
v -0.14356000 -0.01671700 -0.14058400
v -0.14356000 0.01676100 -0.15075700
v -0.14356000 0.01676100 -0.14058400
v -0.17942400 0.01676100 -0.15075700
v -0.17942400 0.01676100 -0.14058400
v -0.17942400 -0.01671700 -0.14058400
v -0.17942400 -0.01671700 -0.15075700
v 0.06075200 -0.00080800 0.03284400
v 0.06742900 -0.00080800 0.01590400
v 0.06075200 0.00090400 0.03284400
v 0.06742900 0.00090400 0.01590400
v 0.05230200 -0.00080800 0.04897300
v 0.05230200 0.00090400 0.04897300
v 0.04218300 -0.00080800 0.06409000
v 0.04218300 0.00090400 0.06409000
v 0.02922800 -0.00080800 0.07884200
v 0.02922800 0.00090400 0.07884200
v 0.01416800 0.00090400 0.09140800
v 0.01416800 -0.00080800 0.09140800
v -0.00264400 0.00090400 0.10150700
v -0.00264400 -0.00080800 0.10150700
v -0.02081500 0.00090400 0.10889800
v -0.02081500 -0.00080800 0.10889800
v -0.03990400 0.00090400 0.11340600
v -0.03990400 -0.00080800 0.11340600
v -0.05945800 0.00090400 0.11492100
v -0.05945800 -0.00080800 0.11492100
v -0.07901300 0.00090400 0.11340600
v -0.07901300 -0.00080800 0.11340600
v -0.09810200 0.00090400 0.10889800
v -0.09810200 -0.00080800 0.10889800
v -0.11627200 0.00090400 0.10150700
v -0.11627200 -0.00080800 0.10150700
v -0.13308500 0.00090400 0.09140800
v -0.13308500 -0.00080800 0.09140800
v -0.14814500 0.00090400 0.07884200
v -0.14814500 -0.00080800 0.07884200
v -0.16110000 -0.00080800 0.06409000
v -0.16110000 0.00090400 0.06409000
v -0.17121900 -0.00080800 0.04897300
v -0.17121900 0.00090400 0.04897300
v -0.17966900 -0.00080800 0.03284400
v -0.17966900 0.00090400 0.03284400
v -0.18634600 -0.00080800 0.01590400
v -0.18634600 0.00090400 0.01590400
v -0.19116900 -0.00080800 -0.00165300
v -0.19116900 0.00090400 -0.00165300
v -0.19408900 -0.00080800 -0.01962900
v -0.19408900 0.00090400 -0.01962900
v -0.19506400 -0.00080800 -0.03781300
v -0.19506400 0.00090400 -0.03781300
v -0.19408900 -0.00080800 -0.05599300
v -0.19408900 0.00090400 -0.05599300
v -0.19116900 -0.00080800 -0.07396900
v -0.19116900 0.00090400 -0.07396900
v -0.18634600 -0.00080800 -0.09152600
v -0.18634600 0.00090400 -0.09152600
v -0.17966900 -0.00080800 -0.10846600
v -0.17966900 0.00090400 -0.10846600
v -0.17121900 -0.00080800 -0.12459500
v -0.17121900 0.00090400 -0.12459500
v -0.16051700 -0.00080800 -0.14058400
v -0.16051700 0.00090400 -0.14058400
v -0.16222900 0.00090400 -0.14058400
v -0.16222900 -0.00080800 -0.14058400
v -0.17244600 -0.00080800 -0.12532600
v -0.17244600 0.00090400 -0.12532600
v -0.18096600 -0.00080800 -0.10906000
v -0.18096600 0.00090400 -0.10906000
v -0.18770000 -0.00080800 -0.09197900
v -0.18770000 0.00090400 -0.09197900
v -0.19256400 -0.00080800 -0.07427100
v -0.19256400 0.00090400 -0.07427100
v -0.19550300 -0.00080800 -0.05614700
v -0.19550300 0.00090400 -0.05614700
v -0.19648900 -0.00080800 -0.03781300
v -0.19648900 0.00090400 -0.03781300
v -0.19550300 -0.00080800 -0.01947500
v -0.19550300 0.00090400 -0.01947500
v -0.19256400 -0.00080800 -0.00135100
v -0.19256400 0.00090400 -0.00135100
v -0.14914000 -0.00080800 0.07986400
v -0.16222900 -0.00080800 0.06496200
v -0.14914000 0.00090400 0.07986400
v -0.16222900 0.00090400 0.06496200
v -0.13391300 -0.00080800 0.09257100
v -0.13391300 0.00090400 0.09257100
v -0.11690900 -0.00080800 0.10278400
v -0.11690900 0.00090400 0.10278400
v -0.09853800 -0.00080800 0.11025900
v -0.09853800 0.00090400 0.11025900
v -0.07923400 -0.00080800 0.11481700
v -0.07923400 0.00090400 0.11481700
v -0.05945800 -0.00080800 0.11634900
v -0.05945800 0.00090400 0.11634900
v -0.03968200 -0.00080800 0.11481700
v -0.03968200 0.00090400 0.11481700
v -0.02037900 -0.00080800 0.11025900
v -0.02037900 0.00090400 0.11025900
v -0.00200800 -0.00080800 0.10278400
v -0.00200800 0.00090400 0.10278400
v 0.01499600 -0.00080800 0.09257100
v 0.01499600 0.00090400 0.09257100
v 0.03022400 -0.00080800 0.07986400
v 0.03022400 0.00090400 0.07986400
v 0.04331300 -0.00080800 0.06496200
v 0.04331300 0.00090400 0.06496200
v 0.05352900 -0.00080800 0.04970100
v 0.05352900 0.00090400 0.04970100
v 0.06205000 -0.00080800 0.03343800
v 0.06205000 0.00090400 0.03343800
v 0.06878000 -0.00080800 0.01635300
v 0.06878000 0.00090400 0.01635300
v 0.07136100 -0.00080800 0.00696500
v 0.07136100 0.00090400 0.00696500
v 0.07136100 -0.00080800 0.00658600
v 0.07136100 0.00090400 0.00658600
v 0.06999000 0.00090400 0.00658600
v 0.06999000 -0.00080800 0.00658600
v -0.18770000 -0.00080800 0.01635300
v -0.18770000 0.00090400 0.01635300
v -0.18096600 0.00090400 0.03343800
v -0.17244600 0.00090400 0.04970100
v -0.17244600 -0.00080800 0.04970100
v -0.18096600 -0.00080800 0.03343800
v 0.08824400 -0.00615100 -0.00155600
v 0.08927300 -0.00140700 -0.00155600
v 0.08761400 -0.00592400 -0.00036900
v 0.08860300 -0.00135200 -0.00036900
v 0.08903900 0.00344100 -0.00155600
v 0.08837800 0.00332100 -0.00036900
v 0.08602500 -0.01046700 -0.00155600
v 0.08547200 -0.01008400 -0.00036900
v 0.08688700 -0.00566300 0.00075000
v 0.08783500 -0.00128800 0.00075000
v 0.08761700 0.00318400 0.00075000
v 0.08695000 0.00777700 -0.00036900
v 0.08756100 0.00806400 -0.00155600
v 0.08276100 -0.01406000 -0.00155600
v 0.08232800 -0.01354800 -0.00036900
v 0.08483900 -0.00964400 0.00075000
v 0.08607200 -0.00537100 0.00179300
v 0.08697100 -0.00121600 0.00179300
v 0.08676600 0.00303000 0.00179300
v 0.08625300 0.00744700 0.00075000
v 0.08442000 0.01171100 -0.00036900
v 0.08493300 0.01214600 -0.00155600
v 0.07867800 -0.01668800 -0.00155600
v 0.07839300 -0.01608000 -0.00036900
v 0.08182900 -0.01295900 0.00075000
v 0.08412500 -0.00915000 0.00179300
v 0.08517400 -0.00504900 0.00275100
v 0.08602200 -0.00113800 0.00275100
v 0.08583100 0.00286000 0.00275100
v 0.08546900 0.00707800 0.00179300
v 0.08383000 0.01121200 0.00075000
v 0.08133900 0.01540800 -0.00155600
v 0.08095400 0.01485600 -0.00036900
v 0.07405600 -0.01816800 -0.00155600
v 0.07393900 -0.01750700 -0.00036900
v 0.07806500 -0.01538200 0.00075000
v 0.08126900 -0.01229800 0.00179300
v 0.08334400 -0.00860800 0.00275100
v 0.08420200 -0.00470100 0.00361300
v 0.08499600 -0.00105300 0.00361300
v 0.08481500 0.00267600 0.00361300
v 0.08460800 0.00667100 0.00275100
v 0.08317000 0.01065300 0.00179300
v 0.08051500 0.01422200 0.00075000
v 0.07702200 0.01763000 -0.00155600
v 0.07679400 0.01699700 -0.00036900
v 0.06920900 -0.01840300 -0.00155600
v 0.06926300 -0.01773300 -0.00036900
v 0.07380100 -0.01674700 0.00075000
v 0.07769300 -0.01459800 0.00179300
v 0.08065200 -0.01157100 0.00275100
v 0.08249600 -0.00802000 0.00361300
v 0.08316600 -0.00432900 0.00437700
v 0.08389700 -0.00096200 0.00437700
v 0.08372900 0.00248000 0.00437700
v 0.08367600 0.00623100 0.00361300
v 0.08244200 0.01003700 0.00275100
v 0.08002200 0.01351000 0.00179300
v 0.07653600 0.01627000 0.00075000
v 0.07227900 0.01865800 -0.00155600
v 0.07222200 0.01798900 -0.00036900
v 0.06446600 -0.01737400 -0.00155600
v 0.06469100 -0.01674100 -0.00036900
v 0.06932600 -0.01696300 0.00075000
v 0.07364700 -0.01589500 0.00179300
v 0.07728700 -0.01373700 0.00275100
v 0.07998500 -0.01078400 0.00361300
v 0.08159100 -0.00739200 0.00437700
v 0.08207000 -0.00393600 0.00503400
v 0.08273700 -0.00086500 0.00503400
v 0.08139000 0.00205600 0.00557700
v 0.08152400 -0.00076500 0.00557700
v 0.08258600 0.00227200 0.00503400
v 0.08092700 -0.00352500 0.00557700
v 0.07963300 -0.00603600 0.00557700
v 0.08063200 -0.00672900 0.00503400
v 0.08052800 0.00474500 0.00557700
v 0.08162800 0.00526400 0.00503400
v 0.08268000 0.00576100 0.00437700
v 0.08165500 0.00937000 0.00361300
v 0.07947900 0.01272700 0.00275100
v 0.07624100 0.01545500 0.00179300
v 0.07215900 0.01721900 0.00075000
v 0.06742900 0.01842400 -0.00155600
v 0.06755000 0.01776300 -0.00036900
v 0.06014900 -0.01515200 -0.00155600
v 0.06053100 -0.01460000 -0.00036900
v 0.06495200 -0.01601400 0.00075000
v 0.06940000 -0.01610100 0.00179300
v 0.07347600 -0.01495800 0.00275100
v 0.07684800 -0.01280400 0.00361300
v 0.07773600 -0.00812700 0.00557700
v 0.07852100 -0.00905500 0.00503400
v 0.07927500 -0.00994300 0.00437700
v 0.07803800 0.00630600 0.00600600
v 0.07938900 0.00420800 0.00600600
v 0.07900000 0.00712000 0.00557700
v 0.08015000 0.00183100 0.00600600
v 0.08027000 -0.00066100 0.00600600
v 0.07974100 -0.00310000 0.00600600
v 0.07860100 -0.00531900 0.00600600
v 0.07692200 -0.00716700 0.00600600
v 0.07482300 -0.00851700 0.00600600
v 0.07536000 -0.00965500 0.00557700
v 0.07619100 0.00798400 0.00600600
v 0.07690800 0.00901800 0.00557700
v 0.07992500 0.00790500 0.00503400
v 0.08081300 0.00865800 0.00437700
v 0.07889300 0.01187900 0.00361300
v 0.07592000 0.01455900 0.00275100
v 0.07208800 0.01635600 0.00179300
v 0.06768700 0.01700300 0.00075000
v 0.06549500 0.01780400 -0.00155600
v 0.06280700 0.01694300 -0.00155600
v 0.06309500 0.01633600 -0.00036900
v 0.06569600 0.01717000 -0.00036900
v 0.05655600 -0.01189000 -0.00155600
v 0.05706900 -0.01145500 -0.00036900
v 0.06097400 -0.01396600 0.00075000
v 0.06524400 -0.01520000 0.00179300
v 0.06947700 -0.01515100 0.00275100
v 0.07244700 -0.00927900 0.00600600
v 0.07267200 -0.01051700 0.00557700
v 0.07329200 -0.01394300 0.00361300
v 0.07587900 -0.01075500 0.00503400
v 0.07637500 -0.01180700 0.00437700
v 0.07353600 0.00791200 0.00631400
v 0.07545700 0.00692400 0.00631400
v 0.07397200 0.00912600 0.00600600
v 0.07705200 0.00547300 0.00631400
v 0.07822200 0.00365700 0.00631400
v 0.07887900 0.00160200 0.00631400
v 0.07898600 -0.00055500 0.00631400
v 0.07852700 -0.00266400 0.00631400
v 0.07753800 -0.00458400 0.00631400
v 0.07608700 -0.00618200 0.00631400
v 0.07427400 -0.00735000 0.00631400
v 0.07221600 -0.00800900 0.00631400
v 0.06995300 -0.00939900 0.00600600
v 0.07006100 -0.00811300 0.00631400
v 0.07142800 0.00836900 0.00631400
v 0.07153200 0.00965500 0.00600600
v 0.07439800 0.01031000 0.00557700
v 0.07759900 0.01001700 0.00503400
v 0.07826200 0.01097400 0.00437700
v 0.07557100 0.01358800 0.00361300
v 0.07200800 0.01540700 0.00275100
v 0.06784200 0.01615100 0.00179300
v 0.06342400 0.01563700 0.00075000
v 0.06593100 0.01644100 0.00075000
v 0.05872500 0.01431600 -0.00155600
v 0.05916000 0.01380400 -0.00036900
v 0.05392800 -0.00780800 -0.00155600
v 0.05453500 -0.00752100 -0.00036900
v 0.05765900 -0.01095600 0.00075000
v 0.06146600 -0.01325400 0.00179300
v 0.06751600 -0.00887000 0.00600600
v 0.06795200 -0.00765600 0.00631400
v 0.06556600 -0.01430300 0.00275100
v 0.06984900 -0.01065300 0.00557700
v 0.06956400 -0.01412300 0.00361300
v 0.07288900 -0.01171300 0.00503400
v 0.07309400 -0.01285800 0.00437700
v 0.06603200 -0.00666800 0.00631400
v 0.06677900 -0.00559000 0.00650200
v 0.06839500 -0.00642100 0.00650200
v 0.06926900 0.00826500 0.00631400
v 0.06950400 0.00697400 0.00650200
v 0.07131700 0.00706200 0.00650200
v 0.07309400 0.00667700 0.00650200
v 0.07471000 0.00584600 0.00650200
v 0.07605400 0.00462500 0.00650200
v 0.07703600 0.00309700 0.00650200
v 0.07758900 0.00136800 0.00650200
v 0.07767900 -0.00044600 0.00650200
v 0.07729400 -0.00222200 0.00650200
v 0.07646300 -0.00383600 0.00650200
v 0.07523900 -0.00518100 0.00650200
v 0.07371400 -0.00616400 0.00650200
v 0.07198400 -0.00671800 0.00650200
v 0.07016800 -0.00680600 0.00650200
v 0.06721500 0.00760600 0.00631400
v 0.06777500 0.00642000 0.00650200
v 0.06861900 0.00805600 0.00631400
v 0.06901500 0.00681800 0.00650200
v 0.06904200 0.00953400 0.00600600
v 0.07163600 0.01090900 0.00557700
v 0.07480700 0.01145500 0.00503400
v 0.07519900 0.01255000 0.00437700
v 0.07192400 0.01437900 0.00361300
v 0.06801300 0.01521400 0.00275100
v 0.06379300 0.01485400 0.00179300
v 0.06619200 0.01562300 0.00179300
v 0.05966000 0.01321400 0.00075000
v 0.05601600 0.01034000 -0.00036900
v 0.05546300 0.01072300 -0.00155600
v 0.05244700 -0.00318500 -0.00155600
v 0.05311000 -0.00306600 -0.00036900
v 0.05523500 -0.00719200 0.00075000
v 0.06443300 -0.00521700 0.00631400
v 0.06543500 -0.00436900 0.00650200
v 0.05831900 -0.01039700 0.00179300
v 0.06529800 -0.00772800 0.00600600
v 0.06200900 -0.01247100 0.00275100
v 0.06709100 -0.01005400 0.00557700
v 0.06591400 -0.01333200 0.00361300
v 0.06974900 -0.01186500 0.00503400
v 0.06965500 -0.01302400 0.00437700
v 0.06753300 -0.00450300 0.00656200
v 0.06884000 -0.00517600 0.00656200
v 0.06644400 -0.00351400 0.00656200
v 0.06445300 -0.00284200 0.00650200
v 0.06564600 -0.00227700 0.00656200
v 0.06624600 0.00543700 0.00650200
v 0.06710100 0.00442800 0.00656200
v 0.06833800 0.00522400 0.00656200
v 0.06941400 0.00556900 0.00656200
v 0.06973900 0.00567300 0.00656200
v 0.07121000 0.00574400 0.00656200
v 0.07264800 0.00543200 0.00656200
v 0.07395500 0.00475900 0.00656200
v 0.07504500 0.00377000 0.00656200
v 0.07583900 0.00253300 0.00656200
v 0.07628800 0.00113200 0.00656200
v 0.07635900 -0.00033700 0.00656200
v 0.07604700 -0.00177500 0.00656200
v 0.07537700 -0.00308300 0.00656200
v 0.07438400 -0.00417200 0.00656200
v 0.07314800 -0.00496800 0.00656200
v 0.07174600 -0.00541700 0.00656200
v 0.07027800 -0.00548800 0.00656200
v 0.06502600 0.00409200 0.00650200
v 0.06611200 0.00333900 0.00656200
v 0.06539800 0.00643800 0.00631400
v 0.06666500 0.00877300 0.00600600
v 0.06822700 0.00927400 0.00600600
v 0.06881700 0.01077200 0.00557700
v 0.07173600 0.01212100 0.00503400
v 0.07183400 0.01328000 0.00437700
v 0.06819700 0.01419900 0.00361300
v 0.06420100 0.01399300 0.00275100
v 0.06648100 0.01472400 0.00275100
v 0.06021900 0.01255400 0.00179300
v 0.05665000 0.00990000 0.00075000
v 0.05387400 0.00618000 -0.00036900
v 0.05324100 0.00640700 -0.00155600
v 0.05221200 0.00166300 -0.00155600
v 0.05288200 0.00160800 -0.00036900
v 0.06389600 -0.00111200 0.00650200
v 0.06520000 -0.00087600 0.00656200
v 0.05386800 -0.00292800 0.00075000
v 0.06326600 -0.00340100 0.00631400
v 0.05601600 -0.00682200 0.00179300
v 0.06345100 -0.00605100 0.00600600
v 0.05904600 -0.00978100 0.00275100
v 0.06458000 -0.00876200 0.00557700
v 0.06259600 -0.01162300 0.00361300
v 0.06668200 -0.01119900 0.00503400
v 0.06628600 -0.01229400 0.00437700
v 0.06512700 0.00059300 0.00656200
v 0.06543800 0.00203100 0.00656200
v 0.06419500 0.00247700 0.00650200
v 0.06394700 0.00484000 0.00631400
v 0.06456700 0.00742300 0.00600600
v 0.06612500 0.00991100 0.00557700
v 0.06784800 0.01046200 0.00557700
v 0.06859900 0.01196900 0.00503400
v 0.06839100 0.01311400 0.00437700
v 0.06464100 0.01306000 0.00361300
v 0.06679200 0.01375000 0.00361300
v 0.06083600 0.01182700 0.00275100
v 0.05736000 0.00940600 0.00179300
v 0.05460200 0.00591900 0.00075000
v 0.06380900 0.00070200 0.00650200
v 0.05365300 0.00154400 0.00075000
v 0.06260600 -0.00134600 0.00631400
v 0.05471900 -0.00277400 0.00179300
v 0.06210000 -0.00395200 0.00600600
v 0.05687800 -0.00641500 0.00275100
v 0.06248900 -0.00686400 0.00557700
v 0.05983100 -0.00911400 0.00361300
v 0.06388600 -0.00976100 0.00503400
v 0.06322300 -0.01071800 0.00437700
v 0.06296100 0.00292000 0.00631400
v 0.06288800 0.00557500 0.00600600
v 0.06375200 0.00838300 0.00557700
v 0.06560900 0.01101100 0.00503400
v 0.06748000 0.01161000 0.00503400
v 0.06511000 0.01206300 0.00437700
v 0.06712800 0.01270900 0.00437700
v 0.06150300 0.01104000 0.00361300
v 0.05814500 0.00886400 0.00275100
v 0.05541600 0.00562700 0.00179300
v 0.06250200 0.00081100 0.00631400
v 0.05451500 0.00147200 0.00179300
v 0.06133600 -0.00157500 0.00600600
v 0.05565800 -0.00260400 0.00275100
v 0.06096000 -0.00448900 0.00557700
v 0.05781300 -0.00597500 0.00361300
v 0.06156000 -0.00765000 0.00503400
v 0.06067200 -0.00840200 0.00437700
v 0.06174500 0.00335600 0.00600600
v 0.06185500 0.00629200 0.00557700
v 0.06296500 0.00931000 0.00503400
v 0.06221400 0.01019900 0.00437700
v 0.05899300 0.00827600 0.00361300
v 0.05631500 0.00530500 0.00275100
v 0.06121800 0.00091700 0.00600600
v 0.05546300 0.00139400 0.00275100
v 0.06009900 -0.00180000 0.00557700
v 0.05667300 -0.00242000 0.00361300
v 0.05986100 -0.00500800 0.00503400
v 0.05880800 -0.00550500 0.00437700
v 0.06056100 0.00378100 0.00557700
v 0.06085300 0.00698500 0.00503400
v 0.05989800 0.00764800 0.00437700
v 0.05728300 0.00495700 0.00361300
v 0.05996100 0.00102100 0.00557700
v 0.05649200 0.00130800 0.00361300
v 0.05890200 -0.00201600 0.00503400
v 0.05775600 -0.00222400 0.00437700
v 0.05941800 0.00419100 0.00503400
v 0.05832200 0.00458400 0.00437700
v 0.05875100 0.00112100 0.00503400
v 0.05759200 0.00121700 0.00437700
vn -0.00000000 0.00000000 0.00000000
vn 0.00000000 -0.00000000 0.00000000
vn 0.00000000 0.00000000 0.00000000
vn -0.00000000 -0.00000000 0.00000000
vn 0.00000000 -0.00000000 0.00000000
vn 0.00000000 0.00000000 0.00000000
vn 0.00000000 0.00000000 0.00000000
vn 0.00000000 -0.00000000 0.00000000
vn -0.00000000 -0.00000000 -0.00000000
vn -0.00000000 -0.00000000 -0.00000000
vn -0.00000000 -0.00000000 0.00000000
vn 0.00000000 -0.00000000 0.00000000
vn -0.00000000 -0.00000000 -0.00000000
vn 0.00000000 -0.00000000 0.00000000
vn 0.00000000 0.00000000 0.00000000
vn -0.00000000 -0.00000000 -0.00000000
vn -0.00000000 0.00000000 -0.00000000
vn 0.00000000 -0.00000000 0.00000000
vn 0.00000000 0.00000000 0.00000000
vn -0.00000000 0.00000000 -0.00000000
vn -0.00000000 0.00000000 0.00000000
vn 0.00000000 0.00000000 0.00000000
vn -0.00000000 0.00000000 0.00000000
vn 0.00000000 0.00000000 -0.00000000
vn -0.00000000 0.00000000 -0.00000000
vn 0.00000000 -0.00000000 0.00000000
vn -0.00000000 0.00000000 0.00000000
vn 0.00000000 0.00000000 -0.00000000
vn 0.00000000 0.00000000 -0.00000000
vn -0.00000000 -0.00000000 0.00000000
vn -0.00000000 0.00000000 0.00000000
vn 0.00000000 -0.00000000 -0.00000000
vn 0.00000000 -0.00000000 -0.00000000
vn -0.00000000 0.00000000 0.00000000
vn 0.00000000 -0.00000000 -0.00000000
vn -0.00000000 0.00000000 0.00000000
vn -0.00000000 0.00000000 0.00000000
vn 0.00000000 0.00000000 -0.00000000
vn 0.00000000 -0.00000000 -0.00000000
vn -0.00000000 0.00000000 0.00000000
vn 0.00000000 -0.00000000 -0.00000000
vn -0.00000000 -0.00000000 0.00000000
vn -0.00000000 -0.00000000 0.00000000
vn 0.00000000 -0.00000000 -0.00000000
vn 0.00000000 0.00000000 -0.00000000
vn -0.00000000 -0.00000000 0.00000000
vn -0.00000000 -0.00000000 0.00000000
vn 0.00000000 0.00000000 -0.00000000
vn 0.00000000 -0.00000000 -0.00000000
vn -0.00000000 -0.00000000 0.00000000
vn -0.00000000 -0.00000000 -0.00000000
vn 0.00000000 0.00000000 0.00000000
vn 0.00000000 -0.00000000 0.00000000
vn -0.00000000 -0.00000000 -0.00000000
vn 0.00000000 -0.00000000 0.00000000
vn 0.00000000 -0.00000000 -0.00000000
vn -0.00000000 -0.00000000 0.00000000
vn 0.00000000 -0.00000000 -0.00000000
vn -0.00000000 0.00000000 -0.00000000
vn 0.00000000 -0.00000000 0.00000000
vn 0.00000000 -0.00000000 0.00000000
vn -0.00000000 0.00000000 -0.00000000
vn 0.00000000 0.00000000 0.00000000
vn 0.00000000 -0.00000000 -0.00000000
vn -0.00000000 0.00000000 -0.00000000
vn 0.00000000 0.00000000 0.00000000
vn -0.00000000 -0.00000000 -0.00000000
vn 0.00000000 -0.00000000 0.00000000
vn 0.00000000 0.00000000 0.00000000
vn -0.00000000 -0.00000000 -0.00000000
vn -0.00000000 0.00000000 -0.00000000
vn 0.00000000 0.00000000 0.00000000
vn 0.00000000 0.00000000 0.00000000
vn -0.00000000 0.00000000 -0.00000000
vn 0.00000000 0.00000000 0.00000000
vn -0.00000000 0.00000000 0.00000000
vn -0.00000000 0.00000000 0.00000000
vn 0.00000000 0.00000000 0.00000000
vn 0.00000000 0.00000000 -0.00000000
vn -0.00000000 -0.00000000 0.00000000
vn 0.00000000 0.00000000 -0.00000000
vn -0.00000000 0.00000000 0.00000000
vn -0.00000000 -0.00000000 0.00000000
vn 0.00000000 -0.00000000 -0.00000000
vn 0.00000000 0.00000000 0.00000000
vn -0.00000000 0.00000000 0.00000000
vn -0.00000000 0.00000000 0.00000000
vn 0.00000000 -0.00000000 -0.00000000
vn 0.00000000 -0.00000000 -0.00000000
vn -0.00000000 0.00000000 0.00000000
vn 0.00000000 0.00000000 -0.00000000
vn -0.00000000 -0.00000000 0.00000000
vn -0.00000000 -0.00000000 0.00000000
vn 0.00000000 0.00000000 -0.00000000
vn -0.00000000 0.00000000 0.00000000
vn 0.00000000 -0.00000000 -0.00000000
vn -0.00000000 0.00000000 -0.00000000
vn 0.00000000 -0.00000000 0.00000000
vn 0.00000000 -0.00000000 0.00000000
vn -0.00000000 -0.00000000 -0.00000000
vn 0.00000000 -0.00000000 0.00000000
vn 0.00000000 -0.00000000 0.00000000
vn 0.00000000 -0.00000000 0.00000000
vn -0.00000000 0.00000000 -0.00000000
vn -0.00000000 0.00000000 -0.00000000
vn 0.00000000 -0.00000000 0.00000000
vn 0.00000000 -0.00000000 0.00000000
vn -0.00000000 0.00000000 -0.00000000
vn 0.00000000 0.00000000 0.00000000
vn -0.00000000 -0.00000000 -0.00000000
vn 0.00000000 0.00000000 0.00000000
vn -0.00000000 0.00000000 -0.00000000
vn -0.00000000 -0.00000000 -0.00000000
vn 0.00000000 0.00000000 0.00000000
vn 0.00000000 0.00000000 0.00000000
vn -0.00000000 0.00000000 -0.00000000
vn 0.00000000 0.00000000 0.00000000
vn 0.00000000 -0.00000000 0.00000000
vn 0.00000000 0.00000000 0.00000000
vn -0.00000000 0.00000000 0.00000000
vn 0.00000000 0.00000000 -0.00000000
vn -0.00000000 0.00000000 0.00000000
vn 0.00000000 0.00000000 -0.00000000
vn 0.00000000 0.00000000 -0.00000000
vn -0.00000000 0.00000000 0.00000000
vn -0.00000000 0.00000000 0.00000000
vn -0.00000000 0.00000000 -0.00000000
vn 0.00000000 0.00000000 -0.00000000
vn -0.00000000 0.00000000 -0.00000000
vn 0.00000000 0.00000000 0.00000000
vn -0.00000000 -0.00000000 -0.00000000
vn -0.00000000 -0.00000000 -0.00000000
vn 0.00000000 -0.00000000 0.00000000
vn -0.00000000 0.00000000 -0.00000000
vn 0.00000000 -0.00000000 0.00000000
vn -0.00000000 -0.00000000 -0.00000000
vn 0.00000000 0.00000000 0.00000000
vn -0.00000000 -0.00000000 -0.00000000
vn 0.00000000 0.00000000 0.00000000
vn -0.00000000 0.00000000 -0.00000000
vn -0.00000000 0.00000000 -0.00000000
vn 0.00000000 -0.00000000 0.00000000
vn -0.00000000 0.00000000 -0.00000000
vn 0.00000000 -0.00000000 0.00000000
vn 0.00000000 0.00000000 0.00000000
vn -0.00000000 0.00000000 -0.00000000
vn 0.00000000 -0.00000000 -0.00000000
vn -0.00000000 0.00000000 0.00000000
vn 0.00000000 -0.00000000 0.00000000
vn -0.00000000 0.00000000 -0.00000000
vn 0.00000000 -0.00000000 0.00000000
vn 0.00000000 -0.00000000 0.00000000
vn 0.00000000 -0.00000000 0.00000000
vn -0.00000000 0.00000000 0.00000000
vn 0.00000000 0.00000000 0.00000000
vn 0.00000000 0.00000000 0.00000000
vn -0.00000000 -0.00000000 0.00000000
vn -0.00000000 0.00000000 -0.00000000
vn 0.00000000 0.00000000 0.00000000
vn -0.00000000 0.00000000 -0.00000000
vn 0.00000000 -0.00000000 0.00000000
vn -0.00000000 0.00000000 -0.00000000
vn 0.00000000 -0.00000000 0.00000000
vn -0.00000000 0.00000000 -0.00000000
vn 0.00000000 -0.00000000 0.00000000
vn -0.00000000 0.00000000 -0.00000000
vn -0.00000000 -0.00000000 -0.00000000
vn -0.00000000 -0.00000000 -0.00000000
vn -0.00000000 -0.00000000 -0.00000000
vn -0.00000000 -0.00000000 -0.00000000
vn 0.00000000 0.00000000 0.00000000
vn 0.00000000 -0.00000000 -0.00000000
vn 0.00000000 -0.00000000 0.00000000
vn -0.00000000 -0.00000000 0.00000000
vn -0.00000000 -0.00000000 -0.00000000
vn -0.00000000 0.00000000 -0.00000000
vn -0.00000000 0.00000000 -0.00000000
vn 0.00000000 -0.00000000 0.00000000
vn -0.00000000 0.00000000 -0.00000000
vn 0.00000000 -0.00000000 0.00000000
vn -0.00000000 -0.00000000 -0.00000000
vn -0.00000000 -0.00000000 0.00000000
vn 0.00000000 0.00000000 0.00000000
vn -0.00000000 -0.00000000 -0.00000000
vn -0.00000000 -0.00000000 -0.00000000
vn -0.00000000 0.00000000 -0.00000000
vn 0.00000000 0.00000000 0.00000000
vn 0.00000000 0.00000000 0.00000000
vn -0.00000000 -0.00000000 0.00000000
vn -0.00000000 0.00000000 -0.00000000
vn -0.00000000 0.00000000 -0.00000000
vn 0.00000000 -0.00000000 0.00000000
vn -0.00000000 0.00000000 -0.00000000
vn -0.00000000 0.00000000 -0.00000000
vn 0.00000000 -0.00000000 0.00000000
vn -0.00000000 0.00000000 -0.00000000
vn 0.00000000 -0.00000000 0.00000000
vn 0.00000000 -0.00000000 0.00000000
vn 0.00000000 0.00000000 0.00000000
vn -0.00000000 0.00000000 -0.00000000
vn 0.00000000 0.00000000 -0.00000000
vn 0.00000000 -0.00000000 0.00000000
vn 0.00000000 0.00000000 0.00000000
vn -0.00000000 -0.00000000 -0.00000000
vn 0.00000000 0.00000000 0.00000000
vn -0.00000000 -0.00000000 -0.00000000
vn 0.00000000 0.00000000 0.00000000
vn 0.00000000 0.00000000 0.00000000
vn 0.00000000 -0.00000000 -0.00000000
vn 0.00000000 -0.00000000 -0.00000000
vn -0.00000000 0.00000000 0.00000000
vn -0.00000000 -0.00000000 0.00000000
vn 0.00000000 0.00000000 -0.00000000
vn -0.00000000 0.00000000 -0.00000000
vn 0.00000000 0.00000000 -0.00000000
vn -0.00000000 -0.00000000 0.00000000
vn 0.00000000 -0.00000000 0.00000000
vn 0.00000000 -0.00000000 0.00000000
vn 0.00000000 -0.00000000 0.00000000
vn -0.00000000 0.00000000 0.00000000
vn -0.00000000 -0.00000000 -0.00000000
vn 0.00000000 0.00000000 -0.00000000
vn 0.00000000 0.00000000 0.00000000
vn 0.00000000 0.00000000 0.00000000
vn 0.00000000 -0.00000000 0.00000000
vn -0.00000000 0.00000000 -0.00000000
vn -0.00000000 0.00000000 -0.00000000
vn -0.00000000 0.00000000 -0.00000000
vn 0.00000000 0.00000000 0.00000000
vn 0.00000000 -0.00000000 0.00000000
vn 0.00000000 0.00000000 0.00000000
vn 0.00000000 0.00000000 0.00000000
vn 0.00000000 -0.00000000 0.00000000
vn -0.00000000 -0.00000000 -0.00000000
vn -0.00000000 -0.00000000 -0.00000000
vn -0.00000000 -0.00000000 -0.00000000
vn 0.00000000 0.00000000 0.00000000
vn 0.00000000 -0.00000000 -0.00000000
vn 0.00000000 -0.00000000 -0.00000000
vn -0.00000000 0.00000000 0.00000000
vn -0.00083556 0.00200534 -0.99999764
vn 0.00008347 -0.00008347 0.99999999
vn 0.00000000 0.00000000 -0.00000000
vn -0.00000000 -0.00000000 0.00000000
vn -0.00000000 -0.00000000 0.00000000
vn 0.00000000 0.00000000 -0.00000000
vn -0.00000000 -0.00000000 0.00000000
vn 0.00000000 0.00000000 -0.00000000
vn -0.00000000 0.00000000 0.00000000
vn -0.00000000 0.00000000 -0.00000000
vn -0.00000000 0.00000000 -0.00000000
vn 0.00000000 0.00000000 -0.00000000
vn 0.00000000 0.00000000 -0.00000000
vn -0.00000000 0.00000000 0.00000000
vn 0.00000000 0.00000000 0.00000000
vn 0.00000000 0.00000000 -0.00000000
vn -0.00000000 -0.00000000 0.00000000
vn -0.00000000 -0.00000000 -0.00000000
vn -0.00000000 0.00000000 -0.00000000
vn 0.00000000 -0.00000000 0.00000000
vn -0.00000000 0.00000000 -0.00000000
vn 0.00000000 -0.00000000 0.00000000
vn -0.00000000 0.00000000 0.00000000
vn 0.00000000 -0.00000000 -0.00000000
vn 0.00000000 0.00000000 0.00000000
vn 0.00000000 -0.00000000 0.00000000
vn 0.00000000 0.00000000 0.00000000
vn -0.00000000 -0.00000000 -0.00000000
vn -0.00000000 -0.00000000 -0.00000000
vn -0.00000000 -0.00000000 -0.00000000
vn 0.00000000 0.00000000 0.00000000
vn 0.00000000 0.00000000 0.00000000
vn -0.00000000 -0.00000000 -0.00000000
vn 0.00000000 -0.00000000 -0.00000000
vn 0.00098503 -0.00059102 0.99999934
vn 0.00009842 0.00000000 -1.00000000
vn 0.00000000 -0.00000000 -0.00000000
vn -0.00000000 0.00000000 0.00000000
vn -0.00000000 -0.00000000 0.00000000
vn 0.00000000 0.00000000 -0.00000000
vn -0.00000000 -0.00000000 0.00000000
vn 0.00000000 0.00000000 -0.00000000
vn 0.00000000 0.00000000 0.00000000
vn 0.00000000 0.00000000 -0.00000000
vn -0.00000000 0.00000000 -0.00000000
vn -0.00000000 -0.00000000 0.00000000
vn 0.00000000 0.00000000 -0.00000000
vn 0.00000000 0.00000000 -0.00000000
vn 0.00000000 -0.00000000 0.00000000
vn 0.00000000 0.00000000 -0.00000000
vn -0.00000000 0.00000000 0.00000000
vn 0.00000000 0.00000000 0.00000000
vn -0.00000000 0.00000000 0.00000000
vn -0.00000000 0.00000000 0.00000000
vn -0.00000000 -0.00000000 -0.00000000
vn 0.00000000 0.00000000 0.00000000
vn -0.00000000 -0.00000000 -0.00000000
vn 0.00000000 0.00000000 0.00000000
vn -0.00000000 -0.00000000 -0.00000000
vn 0.00000000 0.00000000 0.00000000
vn 0.00000000 -0.00000000 0.00000000
vn -0.00000000 0.00000000 -0.00000000
vn 0.00000000 -0.00000000 0.00000000
vn -0.00000000 0.00000000 0.00000000
vn -0.00000000 0.00000000 0.00000000
vn 0.00000000 -0.00000000 0.00000000
vn 0.00000000 0.00000000 0.00000000
vn -0.00000000 0.00000000 0.00000000
vn -0.00000000 0.00000000 0.00000000
vn 0.00000000 -0.00000000 -0.00000000
vn -0.00000000 0.00000000 0.00000000
vn -0.00000000 0.00000000 0.00000000
vn 0.00000000 0.00000000 0.00000000
vn 0.00000000 -0.00000000 -0.00000000
vn 0.00000000 0.00000000 0.00000000
vn -0.00000000 -0.00000000 -0.00000000
vn 0.00000000 -0.00000000 -0.00000000
vn -0.00118513 0.00270887 0.99999563
vn 0.00008473 -0.00135570 -0.99999908
vn 0.00000000 0.00000000 0.00000000
vn -0.00000000 0.00000000 0.00000000
vn 0.00000000 -0.00000000 -0.00000000
vn 0.00000000 0.00000000 -0.00000000
vn -0.00000000 -0.00000000 0.00000000
vn 0.00000000 0.00000000 -0.00000000
vn 0.00000000 0.00000000 -0.00000000
vn -0.00000000 -0.00000000 0.00000000
vn 0.00000000 0.00000000 -0.00000000
vn 0.00000000 -0.00000000 0.00000000
vn 0.00000000 0.00000000 0.00000000
vn 0.00000000 0.00000000 -0.00000000
vn -0.00000000 -0.00000000 0.00000000
vn 0.00000000 0.00000000 0.00000000
vn 0.00000000 0.00000000 -0.00000000
vn 0.00000000 0.00000000 -0.00000000
vn -0.00000000 0.00000000 -0.00000000
vn 0.00000000 0.00000000 0.00000000
vn 0.00000000 0.00000000 -0.00000000
vn -0.00000000 -0.00000000 -0.00000000
vn 0.00000000 -0.00000000 -0.00000000
vn -0.00000000 0.00000000 0.00000000
vn 0.00000000 -0.00000000 0.00000000
vn 0.00000000 -0.00000000 0.00000000
vn 0.00000000 0.00000000 -0.00000000
vn 0.00000000 0.00000000 0.00000000
vn -0.00000000 -0.00000000 0.00000000
vn 0.00000000 0.00000000 -0.00000000
vn 0.00000000 0.00000000 -0.00000000
vn 0.00000000 0.00000000 0.00000000
vn 0.00000000 0.00000000 -0.00000000
vn -0.00000000 0.00000000 -0.00000000
vn -0.00000000 0.00000000 -0.00000000
vn 0.00000000 -0.00000000 0.00000000
vn -0.00000000 0.00000000 -0.00000000
vn 0.00000000 -0.00000000 -0.00000000
vn 0.00000000 -0.00000000 0.00000000
vn -0.00000000 0.00000000 -0.00000000
vn 0.00000000 -0.00000000 -0.00000000
vn 0.00000000 0.00000000 -0.00000000
vn 0.00000000 0.00000000 -0.00000000
vn 0.00000000 -0.00000000 -0.00000000
vn 0.00000000 -0.00000000 -0.00000000
vn 0.00000000 0.00000000 0.00000000
vn -0.00000000 -0.00000000 -0.00000000
vn 0.00000000 -0.00000000 -0.00000000
vn -0.00000000 0.00000000 0.00000000
vn 0.00000000 -0.00000000 0.00000000
vn -0.00000000 0.00000000 0.00000000
vn -0.00000000 -0.00000000 -0.00000000
vn 0.00000000 0.00000000 0.00000000
vn -0.00000000 -0.00000000 0.00000000
vn 0.00000000 -0.00000000 -0.00000000
vn -0.00000000 -0.00000000 0.00000000
vn 0.00000000 0.00000000 0.00000000
vn 0.00000000 -0.00000000 0.00000000
vn 0.00000000 0.00000000 -0.00000000
vn -0.00000000 -0.00000000 0.00000000
vn 0.00000000 0.00000000 0.00000000
vn -0.00000000 -0.00000000 0.00000000
vn -0.00000000 -0.00000000 0.00000000
vn 0.00000000 0.00000000 -0.00000000
vn 0.00000000 0.00000000 -0.00000000
vn 0.00000000 0.00000000 -0.00000000
vn -0.00000000 -0.00000000 0.00000000
vn 0.00000000 0.00000000 -0.00000000
vn 0.00000000 -0.00000000 0.00000000
vn 0.00000000 0.00000000 0.00000000
vn 0.00000000 -0.00000000 -0.00000000
vn 0.00000000 0.00000000 0.00000000
vn -0.00000000 0.00000000 0.00000000
vn -0.00000000 0.00000000 0.00000000
vn -0.00000000 0.00000000 0.00000000
vn -0.00000000 0.00000000 0.00000000
vn -0.00000000 0.00000000 0.00000000
vn -0.00000000 -0.00000000 0.00000000
vn 0.00000000 -0.00000000 -0.00000000
vn 0.00000000 0.00000000 -0.00000000
vn 0.00000000 -0.00000000 -0.00000000
vn 0.00000000 -0.00000000 -0.00000000
vn -0.00000000 0.00000000 0.00000000
vn 0.00000000 0.00000000 -0.00000000
vn 0.00000000 -0.00000000 -0.00000000
vn -0.00000000 -0.00000000 0.00000000
vn 0.00000000 0.00000000 0.00000000
vn -0.00000000 0.00000000 -0.00000000
vn 0.00000000 -0.00000000 0.00000000
vn -0.00000000 -0.00000000 0.00000000
vn -0.00000000 -0.00000000 0.00000000
vn -0.00000000 -0.00000000 0.00000000
vn -0.00000000 0.00000000 0.00000000
vn 0.00000000 -0.00000000 -0.00000000
vn 0.00000000 -0.00000000 0.00000000
vn 0.00000000 -0.00000000 -0.00000000
vn 0.00000000 0.00000000 -0.00000000
vn 0.00000000 0.00000000 0.00000000
vn 0.00000000 -0.00000000 -0.00000000
vn -0.00000000 -0.00000000 -0.00000000
vn 0.00000000 -0.00000000 0.00000000
vn -0.00000000 0.00000000 0.00000000
vn 0.00000000 -0.00000000 -0.00000000
vn 0.00000000 -0.00000000 -0.00000000
vn -0.00000000 -0.00000000 0.00000000
vn 0.00000000 0.00000000 -0.00000000
vn -0.00000000 -0.00000000 0.00000000
vn 0.00000000 0.00000000 -0.00000000
vn -0.00000000 0.00000000 0.00000000
vn 0.00000000 0.00000000 -0.00000000
vn -0.00000000 0.00000000 0.00000000
vn 0.00000000 -0.00000000 -0.00000000
vn -0.00000000 0.00000000 0.00000000
vn -0.00000000 -0.00000000 0.00000000
vn -0.00000000 0.00000000 0.00000000
vn -0.00000000 0.00000000 0.00000000
vn 0.00000000 -0.00000000 -0.00000000
vn 0.00000000 -0.00000000 -0.00000000
vn 0.00000000 0.00000000 -0.00000000
vn -0.00000000 -0.00000000 0.00000000
vn 0.00000000 0.00000000 0.00000000
vn -0.00000000 -0.00000000 0.00000000
vn 0.00000000 -0.00000000 -0.00000000
vn 0.00000000 -0.00000000 0.00000000
vn 0.00000000 -0.00000000 -0.00000000
vn 0.00000000 -0.00000000 -0.00000000
vn 0.00000000 0.00000000 -0.00000000
vn 0.00000000 0.00000000 0.00000000
vn 0.00000000 -0.00000000 0.00000000
vn 0.00000000 -0.00000000 0.00000000
vn 0.00000000 -0.00000000 -0.00000000
vn -0.00000000 0.00000000 0.00000000
vn -0.00000000 0.00000000 0.00000000
vn 0.00000000 0.00000000 0.00000000
f 1//1 2//2 3//3
f 4//4 3//3 2//2
f 2//2 3//3 4//4
f 3//3 2//2 1//1
f 5//5 3//3 6//6
f 4//4 6//6 3//3
f 3//3 6//6 4//4
f 6//6 3//3 5//5
f 7//7 6//6 2//2
f 4//4 2//2 6//6
f 6//6 2//2 4//4
f 2//2 6//6 7//7
f 1//1 8//8 2//2
f 7//7 2//2 8//8
f 8//8 2//2 7//7
f 2//2 8//8 1//1
f 5//5 8//8 3//3
f 1//1 3//3 8//8
f 8//8 3//3 1//1
f 3//3 8//8 5//5
f 7//7 8//8 6//6
f 5//5 6//6 8//8
f 8//8 6//6 5//5
f 6//6 8//8 7//7
f 9//9 10//10 11//11
f 12//12 11//11 10//10
f 10//10 11//11 12//12
f 11//11 10//10 9//9
f 13//13 9//9 14//14
f 11//11 14//14 9//9
f 9//9 14//14 11//11
f 14//14 9//9 13//13
f 15//15 13//13 16//16
f 14//14 16//16 13//13
f 13//13 16//16 14//14
f 16//16 13//13 15//15
f 17//17 15//15 18//18
f 16//16 18//18 15//15
f 15//15 18//18 16//16
f 18//18 15//15 17//17
f 19//19 20//20 18//18
f 17//17 18//18 20//20
f 20//20 18//18 17//17
f 18//18 20//20 19//19
f 21//21 22//22 19//19
f 20//20 19//19 22//22
f 22//22 19//19 20//20
f 19//19 22//22 21//21
f 23//23 24//24 21//21
f 22//22 21//21 24//24
f 24//24 21//21 22//22
f 21//21 24//24 23//23
f 25//25 26//26 23//23
f 24//24 23//23 26//26
f 26//26 23//23 24//24
f 23//23 26//26 25//25
f 27//27 28//28 25//25
f 26//26 25//25 28//28
f 28//28 25//25 26//26
f 25//25 28//28 27//27
f 29//29 30//30 27//27
f 28//28 27//27 30//30
f 30//30 27//27 28//28
f 27//27 30//30 29//29
f 31//31 32//32 29//29
f 30//30 29//29 32//32
f 32//32 29//29 30//30
f 29//29 32//32 31//31
f 33//33 34//34 31//31
f 32//32 31//31 34//34
f 34//34 31//31 32//32
f 31//31 34//34 33//33
f 35//35 36//36 33//33
f 34//34 33//33 36//36
f 36//36 33//33 34//34
f 33//33 36//36 35//35
f 37//37 38//38 35//35
f 36//36 35//35 38//38
f 38//38 35//35 36//36
f 35//35 38//38 37//37
f 39//39 38//38 40//40
f 37//37 40//40 38//38
f 38//38 40//40 37//37
f 40//40 38//38 39//39
f 41//41 39//39 42//42
f 40//40 42//42 39//39
f 39//39 42//42 40//40
f 42//42 39//39 41//41
f 43//43 41//41 44//44
f 42//42 44//44 41//41
f 41//41 44//44 42//42
f 44//44 41//41 43//43
f 45//45 43//43 46//46
f 44//44 46//46 43//43
f 43//43 46//46 44//44
f 46//46 43//43 45//45
f 47//47 45//45 48//48
f 46//46 48//48 45//45
f 45//45 48//48 46//46
f 48//48 45//45 47//47
f 49//49 47//47 50//50
f 48//48 50//50 47//47
f 47//47 50//50 48//48
f 50//50 47//47 49//49
f 51//51 49//49 52//52
f 50//50 52//52 49//49
f 49//49 52//52 50//50
f 52//52 49//49 51//51
f 53//53 51//51 54//54
f 52//52 54//54 51//51
f 51//51 54//54 52//52
f 54//54 51//51 53//53
f 55//55 53//53 56//56
f 54//54 56//56 53//53
f 53//53 56//56 54//54
f 56//56 53//53 55//55
f 57//57 55//55 58//58
f 56//56 58//58 55//55
f 55//55 58//58 56//56
f 58//58 55//55 57//57
f 59//59 57//57 60//60
f 58//58 60//60 57//57
f 57//57 60//60 58//58
f 60//60 57//57 59//59
f 61//61 59//59 62//62
f 60//60 62//62 59//59
f 59//59 62//62 60//60
f 62//62 59//59 61//61
f 63//63 61//61 64//64
f 62//62 64//64 61//61
f 61//61 64//64 62//62
f 64//64 61//61 63//63
f 65//65 66//66 64//64
f 63//63 64//64 66//66
f 66//66 64//64 63//63
f 64//64 66//66 65//65
f 67//67 66//66 68//68
f 65//65 68//68 66//66
f 66//66 68//68 65//65
f 68//68 66//66 67//67
f 69//69 67//67 70//70
f 68//68 70//70 67//67
f 67//67 70//70 68//68
f 70//70 67//67 69//69
f 71//71 69//69 72//72
f 70//70 72//72 69//69
f 69//69 72//72 70//70
f 72//72 69//69 71//71
f 73//73 71//71 74//74
f 72//72 74//74 71//71
f 71//71 74//74 72//72
f 74//74 71//71 73//73
f 75//75 73//73 76//76
f 74//74 76//76 73//73
f 73//73 76//76 74//74
f 76//76 73//73 75//75
f 77//77 75//75 78//78
f 76//76 78//78 75//75
f 75//75 78//78 76//76
f 78//78 75//75 77//77
f 79//79 77//77 80//80
f 78//78 80//80 77//77
f 77//77 80//80 78//78
f 80//80 77//77 79//79
f 81//81 79//79 82//82
f 80//80 82//82 79//79
f 79//79 82//82 80//80
f 82//82 79//79 81//81
f 83//83 84//84 85//85
f 86//86 85//85 84//84
f 84//84 85//85 86//86
f 85//85 84//84 83//83
f 83//83 85//85 87//87
f 88//88 87//87 85//85
f 85//85 87//87 88//88
f 87//87 85//85 83//83
f 87//87 88//88 89//89
f 90//90 89//89 88//88
f 88//88 89//89 90//90
f 89//89 88//88 87//87
f 89//89 90//90 91//91
f 92//92 91//91 90//90
f 90//90 91//91 92//92
f 91//91 90//90 89//89
f 91//91 92//92 93//93
f 94//94 93//93 92//92
f 92//92 93//93 94//94
f 93//93 92//92 91//91
f 93//93 94//94 95//95
f 96//96 95//95 94//94
f 94//94 95//95 96//96
f 95//95 94//94 93//93
f 95//95 96//96 97//97
f 98//98 97//97 96//96
f 96//96 97//97 98//98
f 97//97 96//96 95//95
f 97//97 98//98 99//99
f 100//100 99//99 98//98
f 98//98 99//99 100//100
f 99//99 98//98 97//97
f 99//99 100//100 101//101
f 102//102 101//101 100//100
f 100//100 101//101 102//102
f 101//101 100//100 99//99
f 101//101 102//102 103//103
f 104//104 103//103 102//102
f 102//102 103//103 104//104
f 103//103 102//102 101//101
f 103//103 104//104 105//105
f 106//106 105//105 104//104
f 104//104 105//105 106//106
f 105//105 104//104 103//103
f 107//107 105//105 108//108
f 106//106 108//108 105//105
f 105//105 108//108 106//106
f 108//108 105//105 107//107
f 109//109 107//107 110//110
f 108//108 110//110 107//107
f 107//107 110//110 108//108
f 110//110 107//107 109//109
f 111//111 109//109 112//112
f 110//110 112//112 109//109
f 109//109 112//112 110//110
f 112//112 109//109 111//111
f 113//113 111//111 114//114
f 112//112 114//114 111//111
f 111//111 114//114 112//112
f 114//114 111//111 113//113
f 115//115 113//113 116//116
f 114//114 116//116 113//113
f 113//113 116//116 114//114
f 116//116 113//113 115//115
f 117//117 115//115 118//118
f 116//116 118//118 115//115
f 115//115 118//118 116//116
f 118//118 115//115 117//117
f 119//119 120//120 118//118
f 117//117 118//118 120//120
f 120//120 118//118 117//117
f 118//118 120//120 119//119
f 10//10 120//120 12//12
f 119//119 12//12 120//120
f 120//120 12//12 119//119
f 12//12 120//120 10//10
f 121//121 81//81 122//122
f 82//82 122//122 81//81
f 81//81 122//122 82//82
f 122//122 81//81 121//121
f 65//65 64//64 68//68
f 62//62 68//68 64//64
f 70//70 68//68 62//62
f 60//60 70//70 62//62
f 72//72 70//70 60//60
f 58//58 72//72 60//60
f 74//74 72//72 58//58
f 56//56 74//74 58//58
f 76//76 74//74 56//56
f 54//54 76//76 56//56
f 78//78 76//76 54//54
f 52//52 78//78 54//54
f 80//80 78//78 52//52
f 50//50 80//80 52//52
f 48//48 80//80 50//50
f 82//82 80//80 48//48
f 46//46 82//82 48//48
f 122//122 82//82 46//46
f 44//44 122//122 46//46
f 123//123 122//122 44//44
f 42//42 123//123 44//44
f 124//124 123//123 42//42
f 40//40 124//124 42//42
f 86//86 124//124 40//40
f 37//37 86//86 40//40
f 85//85 86//86 37//37
f 35//35 85//85 37//37
f 88//88 85//85 35//35
f 33//33 88//88 35//35
f 90//90 88//88 33//33
f 31//31 90//90 33//33
f 92//92 90//90 31//31
f 29//29 92//92 31//31
f 94//94 92//92 29//29
f 27//27 94//94 29//29
f 96//96 94//94 27//27
f 119//119 118//118 12//12
f 116//116 12//12 118//118
f 114//114 12//12 116//116
f 11//11 12//12 114//114
f 112//112 11//11 114//114
f 14//14 11//11 112//112
f 110//110 14//14 112//112
f 16//16 14//14 110//110
f 108//108 16//16 110//110
f 18//18 16//16 108//108
f 106//106 18//18 108//108
f 19//19 18//18 106//106
f 104//104 19//19 106//106
f 21//21 19//19 104//104
f 102//102 21//21 104//104
f 23//23 21//21 102//102
f 100//100 23//23 102//102
f 25//25 23//23 100//100
f 98//98 25//25 100//100
f 27//27 25//25 98//98
f 96//96 27//27 98//98
f 98//98 27//27 96//96
f 98//98 25//25 27//27
f 100//100 25//25 98//98
f 100//100 23//23 25//25
f 102//102 23//23 100//100
f 102//102 21//21 23//23
f 104//104 21//21 102//102
f 104//104 19//19 21//21
f 106//106 19//19 104//104
f 106//106 18//18 19//19
f 108//108 18//18 106//106
f 108//108 16//16 18//18
f 110//110 16//16 108//108
f 110//110 14//14 16//16
f 112//112 14//14 110//110
f 112//112 11//11 14//14
f 114//114 11//11 112//112
f 114//114 12//12 11//11
f 116//116 12//12 114//114
f 118//118 12//12 116//116
f 12//12 118//118 119//119
f 27//27 94//94 96//96
f 29//29 94//94 27//27
f 29//29 92//92 94//94
f 31//31 92//92 29//29
f 31//31 90//90 92//92
f 33//33 90//90 31//31
f 33//33 88//88 90//90
f 35//35 88//88 33//33
f 35//35 85//85 88//88
f 37//37 85//85 35//35
f 37//37 86//86 85//85
f 40//40 86//86 37//37
f 40//40 124//124 86//86
f 42//42 124//124 40//40
f 42//42 123//123 124//124
f 44//44 123//123 42//42
f 44//44 122//122 123//123
f 46//46 122//122 44//44
f 46//46 82//82 122//122
f 48//48 82//82 46//46
f 48//48 80//80 82//82
f 50//50 80//80 48//48
f 52//52 80//80 50//50
f 52//52 78//78 80//80
f 54//54 78//78 52//52
f 54//54 76//76 78//78
f 56//56 76//76 54//54
f 56//56 74//74 76//76
f 58//58 74//74 56//56
f 58//58 72//72 74//74
f 60//60 72//72 58//58
f 60//60 70//70 72//72
f 62//62 70//70 60//60
f 62//62 68//68 70//70
f 64//64 68//68 62//62
f 68//68 64//64 65//65
f 84//84 125//125 86//86
f 124//124 86//86 125//125
f 125//125 86//86 124//124
f 86//86 125//125 84//84
f 117//117 120//120 115//115
f 10//10 115//115 120//120
f 113//113 115//115 10//10
f 9//9 113//113 10//10
f 111//111 113//113 9//9
f 13//13 111//111 9//9
f 109//109 111//111 13//13
f 15//15 109//109 13//13
f 107//107 109//109 15//15
f 17//17 107//107 15//15
f 105//105 107//107 17//17
f 20//20 105//105 17//17
f 103//103 105//105 20//20
f 22//22 103//103 20//20
f 101//101 103//103 22//22
f 24//24 101//101 22//22
f 99//99 101//101 24//24
f 26//26 99//99 24//24
f 97//97 99//99 26//26
f 28//28 97//97 26//26
f 95//95 97//97 28//28
f 63//63 66//66 61//61
f 67//67 61//61 66//66
f 69//69 61//61 67//67
f 59//59 61//61 69//69
f 71//71 59//59 69//69
f 57//57 59//59 71//71
f 73//73 57//57 71//71
f 55//55 57//57 73//73
f 75//75 55//55 73//73
f 53//53 55//55 75//75
f 77//77 53//53 75//75
f 51//51 53//53 77//77
f 49//49 51//51 77//77
f 79//79 49//49 77//77
f 47//47 49//49 79//79
f 81//81 47//47 79//79
f 45//45 47//47 81//81
f 121//121 45//45 81//81
f 43//43 45//45 121//121
f 126//126 43//43 121//121
f 41//41 43//43 126//126
f 125//125 41//41 126//126
f 39//39 41//41 125//125
f 84//84 39//39 125//125
f 38//38 39//39 84//84
f 83//83 38//38 84//84
f 36//36 38//38 83//83
f 87//87 36//36 83//83
f 34//34 36//36 87//87
f 89//89 34//34 87//87
f 32//32 34//34 89//89
f 91//91 32//32 89//89
f 30//30 32//32 91//91
f 93//93 30//30 91//91
f 28//28 30//30 93//93
f 95//95 28//28 93//93
f 93//93 28//28 95//95
f 93//93 30//30 28//28
f 91//91 30//30 93//93
f 91//91 32//32 30//30
f 89//89 32//32 91//91
f 89//89 34//34 32//32
f 87//87 34//34 89//89
f 87//87 36//36 34//34
f 83//83 36//36 87//87
f 83//83 38//38 36//36
f 84//84 38//38 83//83
f 84//84 39//39 38//38
f 125//125 39//39 84//84
f 125//125 41//41 39//39
f 126//126 41//41 125//125
f 126//126 43//43 41//41
f 121//121 43//43 126//126
f 121//121 45//45 43//43
f 81//81 45//45 121//121
f 81//81 47//47 45//45
f 79//79 47//47 81//81
f 79//79 49//49 47//47
f 77//77 49//49 79//79
f 77//77 51//51 49//49
f 77//77 53//53 51//51
f 75//75 53//53 77//77
f 75//75 55//55 53//53
f 73//73 55//55 75//75
f 73//73 57//57 55//55
f 71//71 57//57 73//73
f 71//71 59//59 57//57
f 69//69 59//59 71//71
f 69//69 61//61 59//59
f 67//67 61//61 69//69
f 66//66 61//61 67//67
f 61//61 66//66 63//63
f 28//28 97//97 95//95
f 26//26 97//97 28//28
f 26//26 99//99 97//97
f 24//24 99//99 26//26
f 24//24 101//101 99//99
f 22//22 101//101 24//24
f 22//22 103//103 101//101
f 20//20 103//103 22//22
f 20//20 105//105 103//103
f 17//17 105//105 20//20
f 17//17 107//107 105//105
f 15//15 107//107 17//17
f 15//15 109//109 107//107
f 13//13 109//109 15//15
f 13//13 111//111 109//109
f 9//9 111//111 13//13
f 9//9 113//113 111//111
f 10//10 113//113 9//9
f 10//10 115//115 113//113
f 120//120 115//115 10//10
f 115//115 120//120 117//117
f 126//126 121//121 123//123
f 122//122 123//123 121//121
f 121//121 123//123 122//122
f 123//123 121//121 126//126
f 125//125 126//126 124//124
f 123//123 124//124 126//126
f 126//126 124//124 123//123
f 124//124 126//126 125//125
f 127//127 128//128 129//129
f 130//130 129//129 128//128
f 128//128 129//129 130//130
f 129//129 128//128 127//127
f 128//128 131//131 130//130
f 132//132 130//130 131//131
f 131//131 130//130 132//132
f 130//130 131//131 128//128
f 133//133 127//127 134//134
f 129//129 134//134 127//127
f 127//127 134//134 129//129
f 134//134 127//127 133//133
f 129//129 130//130 135//135
f 136//136 135//135 130//130
f 130//130 135//135 136//136
f 135//135 130//130 129//129
f 130//130 132//132 136//136
f 137//137 136//136 132//132
f 132//132 136//136 137//137
f 136//136 132//132 130//130
f 132//132 131//131 138//138
f 139//139 138//138 131//131
f 131//131 138//138 139//139
f 138//138 131//131 132//132
f 140//140 133//133 141//141
f 134//134 141//141 133//133
f 133//133 141//141 134//134
f 141//141 133//133 140//140
f 134//134 129//129 142//142
f 135//135 142//142 129//129
f 129//129 142//142 135//135
f 142//142 129//129 134//134
f 135//135 136//136 143//143
f 144//144 143//143 136//136
f 136//136 143//143 144//144
f 143//143 136//136 135//135
f 136//136 137//137 144//144
f 145//145 144//144 137//137
f 137//137 144//144 145//145
f 144//144 137//137 136//136
f 137//137 132//132 146//146
f 138//138 146//146 132//132
f 132//132 146//146 138//138
f 146//146 132//132 137//137
f 138//138 139//139 147//147
f 148//148 147//147 139//139
f 139//139 147//147 148//148
f 147//147 139//139 138//138
f 149//149 140//140 150//150
f 141//141 150//150 140//140
f 140//140 150//150 141//141
f 150//150 140//140 149//149
f 141//141 134//134 151//151
f 142//142 151//151 134//134
f 134//134 151//151 142//142
f 151//151 134//134 141//141
f 142//142 135//135 152//152
f 143//143 152//152 135//135
f 135//135 152//152 143//143
f 152//152 135//135 142//142
f 153//153 143//143 154//154
f 144//144 154//154 143//143
f 143//143 154//154 144//144
f 154//154 143//143 153//153
f 144//144 145//145 154//154
f 155//155 154//154 145//145
f 145//145 154//154 155//155
f 154//154 145//145 144//144
f 145//145 137//137 156//156
f 146//146 156//156 137//137
f 137//137 156//156 146//146
f 156//156 137//137 145//145
f 146//146 138//138 157//157
f 147//147 157//157 138//138
f 138//138 157//157 147//147
f 157//157 138//138 146//146
f 148//148 158//158 147//147
f 159//159 147//147 158//158
f 158//158 147//147 159//159
f 147//147 158//158 148//148
f 160//160 149//149 161//161
f 150//150 161//161 149//149
f 149//149 161//161 150//150
f 161//161 149//149 160//160
f 150//150 141//141 162//162
f 151//151 162//162 141//141
f 141//141 162//162 151//151
f 162//162 141//141 150//150
f 163//163 151//151 152//152
f 142//142 152//152 151//151
f 151//151 152//152 142//142
f 152//152 151//151 163//163
f 164//164 152//152 153//153
f 143//143 153//153 152//152
f 152//152 153//153 143//143
f 153//153 152//152 164//164
f 165//165 153//153 166//166
f 154//154 166//166 153//153
f 153//153 166//166 154//154
f 166//166 153//153 165//165
f 167//167 166//166 155//155
f 154//154 155//155 166//166
f 166//166 155//155 154//154
f 155//155 166//166 167//167
f 168//168 155//155 156//156
f 145//145 156//156 155//155
f 155//155 156//156 145//145
f 156//156 155//155 168//168
f 156//156 146//146 169//169
f 157//157 169//169 146//146
f 146//146 169//169 157//157
f 169//169 146//146 156//156
f 147//147 159//159 157//157
f 170//170 157//157 159//159
f 159//159 157//157 170//170
f 157//157 159//159 147//147
f 158//158 171//171 159//159
f 172//172 159//159 171//171
f 171//171 159//159 172//172
f 159//159 171//171 158//158
f 173//173 160//160 174//174
f 161//161 174//174 160//160
f 160//160 174//174 161//161
f 174//174 160//160 173//173
f 161//161 150//150 175//175
f 162//162 175//175 150//150
f 150//150 175//175 162//162
f 175//175 150//150 161//161
f 162//162 151//151 176//176
f 163//163 176//176 151//151
f 151//151 176//176 163//163
f 176//176 151//151 162//162
f 177//177 163//163 164//164
f 152//152 164//164 163//163
f 163//163 164//164 152//152
f 164//164 163//163 177//177
f 178//178 164//164 165//165
f 153//153 165//165 164//164
f 164//164 165//165 153//153
f 165//165 164//164 178//178
f 179//179 165//165 180//180
f 166//166 180//180 165//165
f 165//165 180//180 166//166
f 180//180 165//165 179//179
f 181//181 180//180 167//167
f 166//166 167//167 180//180
f 180//180 167//167 166//166
f 167//167 180//180 181//181
f 182//182 167//167 168//168
f 155//155 168//168 167//167
f 167//167 168//168 155//155
f 168//168 167//167 182//182
f 183//183 168//168 169//169
f 156//156 169//169 168//168
f 168//168 169//169 156//156
f 169//169 168//168 183//183
f 184//184 169//169 170//170
f 157//157 170//170 169//169
f 169//169 170//170 157//157
f 170//170 169//169 184//184
f 159//159 172//172 170//170
f 185//185 170//170 172//172
f 172//172 170//170 185//185
f 170//170 172//172 159//159
f 171//171 186//186 172//172
f 187//187 172//172 186//186
f 186//186 172//172 187//187
f 172//172 186//186 171//171
f 188//188 173//173 189//189
f 174//174 189//189 173//173
f 173//173 189//189 174//174
f 189//189 173//173 188//188
f 174//174 161//161 190//190
f 175//175 190//190 161//161
f 161//161 190//190 175//175
f 190//190 161//161 174//174
f 175//175 162//162 191//191
f 176//176 191//191 162//162
f 162//162 191//191 176//176
f 191//191 162//162 175//175
f 192//192 176//176 177//177
f 163//163 177//177 176//176
f 176//176 177//177 163//163
f 177//177 176//176 192//192
f 193//193 177//177 178//178
f 164//164 178//178 177//177
f 177//177 178//178 164//164
f 178//178 177//177 193//193
f 194//194 178//178 179//179
f 165//165 179//179 178//178
f 178//178 179//179 165//165
f 179//179 178//178 194//194
f 195//195 179//179 196//196
f 180//180 196//196 179//179
f 179//179 196//196 180//180
f 196//196 179//179 195//195
f 197//197 198//198 199//199
f 196//196 199//199 198//198
f 198//198 199//199 196//196
f 199//199 198//198 197//197
f 200//200 195//195 198//198
f 196//196 198//198 195//195
f 195//195 198//198 196//196
f 198//198 195//195 200//200
f 201//201 202//202 200//200
f 195//195 200//200 202//202
f 202//202 200//200 195//195
f 200//200 202//202 201//201
f 203//203 197//197 204//204
f 199//199 204//204 197//197
f 197//197 204//204 199//199
f 204//204 197//197 203//203
f 199//199 196//196 181//181
f 180//180 181//181 196//196
f 196//196 181//181 180//180
f 181//181 196//196 199//199
f 205//205 181//181 182//182
f 167//167 182//182 181//181
f 181//181 182//182 167//167
f 182//182 181//181 205//205
f 206//206 182//182 183//183
f 168//168 183//183 182//182
f 182//182 183//183 168//168
f 183//183 182//182 206//206
f 207//207 183//183 184//184
f 169//169 184//184 183//183
f 183//183 184//184 169//169
f 184//184 183//183 207//207
f 170//170 185//185 184//184
f 208//208 184//184 185//185
f 185//185 184//184 208//208
f 184//184 185//185 170//170
f 172//172 187//187 185//185
f 209//209 185//185 187//187
f 187//187 185//185 209//209
f 185//185 187//187 172//172
f 186//186 210//210 187//187
f 211//211 187//187 210//210
f 210//210 187//187 211//211
f 187//187 210//210 186//186
f 212//212 188//188 213//213
f 189//189 213//213 188//188
f 188//188 213//213 189//189
f 213//213 188//188 212//212
f 189//189 174//174 214//214
f 190//190 214//214 174//174
f 174//174 214//214 190//190
f 214//214 174//174 189//189
f 190//190 175//175 215//215
f 191//191 215//215 175//175
f 175//175 215//215 191//191
f 215//215 175//175 190//190
f 216//216 191//191 192//192
f 176//176 192//192 191//191
f 191//191 192//192 176//176
f 192//192 191//191 216//216
f 217//217 192//192 193//193
f 177//177 193//193 192//192
f 192//192 193//193 177//177
f 193//193 192//192 217//217
f 218//218 219//219 201//201
f 202//202 201//201 219//219
f 219//219 201//201 202//202
f 201//201 219//219 218//218
f 220//220 193//193 194//194
f 178//178 194//194 193//193
f 193//193 194//194 178//178
f 194//194 193//193 220//220
f 202//202 194//194 195//195
f 179//179 195//195 194//194
f 194//194 195//195 179//179
f 195//195 194//194 202//202
f 221//221 222//222 223//223
f 203//203 223//223 222//222
f 222//222 223//223 203//203
f 223//223 222//222 221//221
f 222//222 224//224 203//203
f 197//197 203//203 224//224
f 224//224 203//203 197//197
f 203//203 224//224 222//222
f 224//224 225//225 197//197
f 198//198 197//197 225//225
f 225//225 197//197 198//198
f 197//197 225//225 224//224
f 226//226 200//200 225//225
f 198//198 225//225 200//200
f 200//200 225//225 198//198
f 225//225 200//200 226//226
f 227//227 201//201 226//226
f 200//200 226//226 201//201
f 201//201 226//226 200//200
f 226//226 201//201 227//227
f 228//228 218//218 227//227
f 201//201 227//227 218//218
f 218//218 227//227 201//201
f 227//227 218//218 228//228
f 229//229 230//230 228//228
f 218//218 228//228 230//230
f 230//230 228//228 218//218
f 228//228 230//230 229//229
f 231//231 221//221 232//232
f 223//223 232//232 221//221
f 221//221 232//232 223//223
f 232//232 221//221 231//231
f 223//223 203//203 233//233
f 204//204 233//233 203//203
f 203//203 233//233 204//204
f 233//233 203//203 223//223
f 204//204 199//199 205//205
f 181//181 205//205 199//199
f 199//199 205//205 181//181
f 205//205 199//199 204//204
f 234//234 205//205 206//206
f 182//182 206//206 205//205
f 205//205 206//206 182//182
f 206//206 205//205 234//234
f 235//235 206//206 207//207
f 183//183 207//207 206//206
f 206//206 207//207 183//183
f 207//207 206//206 235//235
f 236//236 207//207 208//208
f 184//184 208//208 207//207
f 207//207 208//208 184//184
f 208//208 207//207 236//236
f 185//185 209//209 208//208
f 237//237 208//208 209//209
f 209//209 208//208 237//237
f 208//208 209//209 185//185
f 187//187 211//211 209//209
f 238//238 209//209 211//211
f 211//211 209//209 238//238
f 209//209 211//211 187//187
f 210//210 239//239 211//211
f 240//240 211//211 239//239
f 241//241 211//211 240//240
f 242//242 211//211 241//241
f 241//241 211//211 242//242
f 240//240 211//211 241//241
f 239//239 211//211 240//240
f 211//211 239//239 210//210
f 243//243 212//212 244//244
f 213//213 244//244 212//212
f 212//212 244//244 213//213
f 244//244 212//212 243//243
f 213//213 189//189 245//245
f 214//214 245//245 189//189
f 189//189 245//245 214//214
f 245//245 189//189 213//213
f 214//214 190//190 246//246
f 215//215 246//246 190//190
f 190//190 246//246 215//215
f 246//246 190//190 214//214
f 215//215 191//191 247//247
f 216//216 247//247 191//191
f 191//191 247//247 216//216
f 247//247 191//191 215//215
f 248//248 249//249 229//229
f 230//230 229//229 249//249
f 249//249 229//229 230//230
f 229//229 249//249 248//248
f 250//250 216//216 217//217
f 192//192 217//217 216//216
f 216//216 217//217 192//192
f 217//217 216//216 250//250
f 230//230 251//251 218//218
f 219//219 218//218 251//251
f 251//251 218//218 219//219
f 218//218 251//251 230//230
f 252//252 217//217 220//220
f 193//193 220//220 217//217
f 217//217 220//220 193//193
f 220//220 217//217 252//252
f 219//219 220//220 202//202
f 194//194 202//202 220//220
f 220//220 202//202 194//194
f 202//202 220//220 219//219
f 253//253 254//254 255//255
f 231//231 255//255 254//254
f 254//254 255//255 231//231
f 255//255 254//254 253//253
f 254//254 256//256 231//231
f 221//221 231//231 256//256
f 256//256 231//231 221//221
f 231//231 256//256 254//254
f 256//256 257//257 221//221
f 222//222 221//221 257//257
f 257//257 221//221 222//222
f 221//221 257//257 256//256
f 257//257 258//258 222//222
f 224//224 222//222 258//258
f 258//258 222//222 224//224
f 222//222 258//258 257//257
f 258//258 259//259 224//224
f 225//225 224//224 259//259
f 259//259 224//224 225//225
f 224//224 259//259 258//258
f 260//260 226//226 259//259
f 225//225 259//259 226//226
f 226//226 259//259 225//225
f 259//259 226//226 260//260
f 261//261 227//227 260//260
f 226//226 260//260 227//227
f 227//227 260//260 226//226
f 260//260 227//227 261//261
f 262//262 228//228 261//261
f 227//227 261//261 228//228
f 228//228 261//261 227//227
f 261//261 228//228 262//262
f 263//263 229//229 262//262
f 228//228 262//262 229//229
f 229//229 262//262 228//228
f 262//262 229//229 263//263
f 264//264 248//248 263//263
f 229//229 263//263 248//248
f 248//248 263//263 229//229
f 263//263 248//248 264//264
f 265//265 248//248 266//266
f 264//264 266//266 248//248
f 248//248 266//266 264//264
f 266//266 248//248 265//265
f 267//267 253//253 268//268
f 255//255 268//268 253//253
f 253//253 268//268 255//255
f 268//268 253//253 267//267
f 255//255 231//231 269//269
f 232//232 269//269 231//231
f 231//231 269//269 232//232
f 269//269 231//231 255//255
f 232//232 223//223 270//270
f 233//233 270//270 223//223
f 223//223 270//270 233//233
f 270//270 223//223 232//232
f 233//233 204//204 234//234
f 205//205 234//234 204//204
f 204//204 234//234 205//205
f 234//234 204//204 233//233
f 271//271 234//234 235//235
f 206//206 235//235 234//234
f 234//234 235//235 206//206
f 235//235 234//234 271//271
f 272//272 235//235 236//236
f 207//207 236//236 235//235
f 235//235 236//236 207//207
f 236//236 235//235 272//272
f 273//273 236//236 237//237
f 208//208 237//237 236//236
f 236//236 237//237 208//208
f 237//237 236//236 273//273
f 209//209 238//238 237//237
f 274//274 237//237 238//238
f 238//238 237//237 274//274
f 237//237 238//238 209//209
f 211//211 242//242 238//238
f 241//241 238//238 242//242
f 275//275 238//238 241//241
f 276//276 238//238 275//275
f 275//275 238//238 276//276
f 241//241 238//238 275//275
f 242//242 238//238 241//241
f 238//238 242//242 211//211
f 240//240 277//277 241//241
f 278//278 241//241 277//277
f 277//277 241//241 278//278
f 241//241 277//277 240//240
f 243//243 244//244 279//279
f 280//280 279//279 244//244
f 244//244 279//279 280//280
f 279//279 244//244 243//243
f 244//244 213//213 281//281
f 245//245 281//281 213//213
f 213//213 281//281 245//245
f 281//281 213//213 244//244
f 245//245 214//214 282//282
f 246//246 282//282 214//214
f 214//214 282//282 246//246
f 282//282 214//214 245//245
f 283//283 265//265 284//284
f 266//266 284//284 265//265
f 265//265 284//284 266//266
f 284//284 265//265 283//283
f 246//246 215//215 285//285
f 247//247 285//285 215//215
f 215//215 285//285 247//247
f 285//285 215//215 246//246
f 286//286 249//249 265//265
f 248//248 265//265 249//249
f 249//249 265//265 248//248
f 265//265 249//249 286//286
f 247//247 216//216 287//287
f 250//250 287//287 216//216
f 216//216 287//287 250//250
f 287//287 216//216 247//247
f 249//249 288//288 230//230
f 251//251 230//230 288//288
f 288//288 230//230 251//251
f 230//230 288//288 249//249
f 289//289 250//250 252//252
f 217//217 252//252 250//250
f 250//250 252//252 217//217
f 252//252 250//250 289//289
f 251//251 252//252 219//219
f 220//220 219//219 252//252
f 252//252 219//219 220//220
f 219//219 252//252 251//251
f 290//290 284//284 291//291
f 292//292 291//291 284//284
f 284//284 291//291 292//292
f 291//291 284//284 290//290
f 293//293 294//294 267//267
f 295//295 267//267 294//294
f 294//294 267//267 295//295
f 267//267 294//294 293//293
f 295//295 296//296 267//267
f 253//253 267//267 296//296
f 296//296 267//267 253//253
f 267//267 296//296 295//295
f 296//296 297//297 253//253
f 254//254 253//253 297//297
f 297//297 253//253 254//254
f 253//253 297//297 296//296
f 297//297 298//298 254//254
f 256//256 254//254 298//298
f 298//298 254//254 256//256
f 254//254 298//298 297//297
f 298//298 299//299 256//256
f 257//257 256//256 299//299
f 299//299 256//256 257//257
f 256//256 299//299 298//298
f 299//299 300//300 257//257
f 258//258 257//257 300//300
f 300//300 257//257 258//258
f 257//257 300//300 299//299
f 300//300 301//301 258//258
f 259//259 258//258 301//301
f 301//301 258//258 259//259
f 258//258 301//301 300//300
f 302//302 260//260 301//301
f 259//259 301//301 260//260
f 260//260 301//301 259//259
f 301//301 260//260 302//302
f 303//303 261//261 302//302
f 260//260 302//302 261//261
f 261//261 302//302 260//260
f 302//302 261//261 303//303
f 304//304 262//262 303//303
f 261//261 303//303 262//262
f 262//262 303//303 261//261
f 303//303 262//262 304//304
f 305//305 263//263 304//304
f 262//262 304//304 263//263
f 263//263 304//304 262//262
f 304//304 263//263 305//305
f 306//306 264//264 305//305
f 263//263 305//305 264//264
f 264//264 305//305 263//263
f 305//305 264//264 306//306
f 266//266 264//264 307//307
f 306//306 307//307 264//264
f 264//264 307//307 306//306
f 307//307 264//264 266//266
f 284//284 266//266 292//292
f 307//307 292//292 266//266
f 266//266 292//292 307//307
f 292//292 266//266 284//284
f 308//308 309//309 310//310
f 311//311 310//310 309//309
f 293//293 310//310 311//311
f 294//294 293//293 311//311
f 311//311 293//293 294//294
f 311//311 310//310 293//293
f 309//309 310//310 311//311
f 310//310 309//309 308//308
f 312//312 293//293 268//268
f 267//267 268//268 293//293
f 293//293 268//268 267//267
f 268//268 293//293 312//312
f 268//268 255//255 313//313
f 269//269 313//313 255//255
f 255//255 313//313 269//269
f 313//313 255//255 268//268
f 269//269 232//232 314//314
f 270//270 314//314 232//232
f 232//232 314//314 270//270
f 314//314 232//232 269//269
f 270//270 233//233 271//271
f 234//234 271//271 233//233
f 233//233 271//271 234//234
f 271//271 233//233 270//270
f 315//315 271//271 272//272
f 235//235 272//272 271//271
f 271//271 272//272 235//235
f 272//272 271//271 315//315
f 316//316 272//272 273//273
f 236//236 273//273 272//272
f 272//272 273//273 236//236
f 273//273 272//272 316//316
f 237//237 274//274 273//273
f 317//317 273//273 274//274
f 274//274 273//273 317//317
f 273//273 274//274 237//237
f 238//238 276//276 274//274
f 275//275 274//274 276//276
f 318//318 274//274 275//275
f 319//319 274//274 318//318
f 318//318 274//274 319//319
f 275//275 274//274 318//318
f 276//276 274//274 275//275
f 274//274 276//276 238//238
f 241//241 278//278 275//275
f 320//320 275//275 278//278
f 278//278 275//275 320//320
f 275//275 278//278 241//241
f 321//321 278//278 322//322
f 277//277 322//322 278//278
f 278//278 322//322 277//277
f 322//322 278//278 321//321
f 279//279 280//280 323//323
f 324//324 323//323 280//280
f 280//280 323//323 324//324
f 323//323 280//280 279//279
f 244//244 281//281 280//280
f 325//325 280//280 281//281
f 281//281 280//280 325//325
f 280//280 281//281 244//244
f 326//326 290//290 327//327
f 291//291 327//327 290//290
f 290//290 327//327 291//291
f 327//327 290//290 326//326
f 281//281 245//245 328//328
f 282//282 328//328 245//245
f 245//245 328//328 282//282
f 328//328 245//245 281//281
f 329//329 283//283 290//290
f 284//284 290//290 283//283
f 283//283 290//290 284//284
f 290//290 283//283 329//329
f 282//282 246//246 330//330
f 285//285 330//330 246//246
f 246//246 330//330 285//285
f 330//330 246//246 282//282
f 331//331 286//286 283//283
f 265//265 283//283 286//286
f 286//286 283//283 265//265
f 283//283 286//286 331//331
f 285//285 247//247 332//332
f 287//287 332//332 247//247
f 247//247 332//332 287//287
f 332//332 247//247 285//285
f 333//333 288//288 286//286
f 249//249 286//286 288//288
f 288//288 286//286 249//249
f 286//286 288//288 333//333
f 287//287 250//250 334//334
f 289//289 334//334 250//250
f 250//250 334//334 289//289
f 334//334 250//250 287//287
f 288//288 289//289 251//251
f 252//252 251//251 289//289
f 289//289 251//251 252//252
f 251//251 289//289 288//288
f 291//291 292//292 335//335
f 336//336 335//335 292//292
f 292//292 335//335 336//336
f 335//335 292//292 291//291
f 327//327 291//291 337//337
f 335//335 337//337 291//291
f 291//291 337//337 335//335
f 337//337 291//291 327//327
f 338//338 327//327 339//339
f 337//337 339//339 327//327
f 327//327 339//339 337//337
f 339//339 327//327 338//338
f 340//340 341//341 309//309
f 342//342 309//309 341//341
f 341//341 309//309 342//342
f 309//309 341//341 340//340
f 309//309 342//342 311//311
f 343//343 311//311 342//342
f 294//294 311//311 343//343
f 344//344 294//294 343//343
f 343//343 294//294 344//344
f 343//343 311//311 294//294
f 342//342 311//311 343//343
f 311//311 342//342 309//309
f 294//294 344//344 295//295
f 345//345 295//295 344//344
f 344//344 295//295 345//345
f 295//295 344//344 294//294
f 345//345 346//346 295//295
f 296//296 295//295 346//346
f 346//346 295//295 296//296
f 295//295 346//346 345//345
f 346//346 347//347 296//296
f 297//297 296//296 347//347
f 347//347 296//296 297//297
f 296//296 347//347 346//346
f 347//347 348//348 297//297
f 298//298 297//297 348//348
f 348//348 297//297 298//298
f 297//297 348//348 347//347
f 348//348 349//349 298//298
f 299//299 298//298 349//349
f 349//349 298//298 299//299
f 298//298 349//349 348//348
f 349//349 350//350 299//299
f 300//300 299//299 350//350
f 350//350 299//299 300//300
f 299//299 350//350 349//349
f 350//350 351//351 300//300
f 301//301 300//300 351//351
f 351//351 300//300 301//301
f 300//300 351//351 350//350
f 352//352 302//302 351//351
f 301//301 351//351 302//302
f 302//302 351//351 301//301
f 351//351 302//302 352//352
f 353//353 303//303 352//352
f 302//302 352//352 303//303
f 303//303 352//352 302//302
f 352//352 303//303 353//353
f 354//354 304//304 353//353
f 303//303 353//353 304//304
f 304//304 353//353 303//303
f 353//353 304//304 354//354
f 355//355 305//305 354//354
f 304//304 354//354 305//305
f 305//305 354//354 304//304
f 354//354 305//305 355//355
f 356//356 306//306 355//355
f 305//305 355//355 306//306
f 306//306 355//355 305//305
f 355//355 306//306 356//356
f 307//307 306//306 357//357
f 356//356 357//357 306//306
f 306//306 357//357 356//356
f 357//357 306//306 307//307
f 292//292 307//307 336//336
f 357//357 336//336 307//307
f 307//307 336//336 357//357
f 336//336 307//307 292//292
f 358//358 359//359 340//340
f 341//341 340//340 359//359
f 359//359 340//340 341//341
f 340//340 359//359 358//358
f 360//360 340//340 308//308
f 309//309 308//308 340//340
f 340//340 308//308 309//309
f 308//308 340//340 360//360
f 361//361 308//308 362//362
f 310//310 362//362 308//308
f 312//312 362//362 310//310
f 293//293 312//312 310//310
f 310//310 312//312 293//293
f 310//310 362//362 312//312
f 308//308 362//362 310//310
f 362//362 308//308 361//361
f 363//363 312//312 313//313
f 268//268 313//313 312//312
f 312//312 313//313 268//268
f 313//313 312//312 363//363
f 313//313 269//269 364//364
f 314//314 364//364 269//269
f 269//269 364//364 314//314
f 364//364 269//269 313//313
f 314//314 270//270 315//315
f 271//271 315//315 270//270
f 270//270 315//315 271//271
f 315//315 270//270 314//314
f 365//365 315//315 316//316
f 272//272 316//316 315//315
f 315//315 316//316 272//272
f 316//316 315//315 365//365
f 317//317 366//366 273//273
f 316//316 273//273 366//366
f 366//366 273//273 316//316
f 273//273 366//366 317//317
f 318//318 367//367 319//319
f 368//368 319//319 367//367
f 274//274 319//319 368//368
f 317//317 274//274 368//368
f 368//368 274//274 317//317
f 368//368 319//319 274//274
f 367//367 319//319 368//368
f 319//319 367//367 318//318
f 275//275 320//320 318//318
f 369//369 318//318 320//320
f 320//320 318//318 369//369
f 318//318 320//320 275//275
f 370//370 320//320 321//321
f 278//278 321//321 320//320
f 320//320 321//321 278//278
f 321//321 320//320 370//370
f 371//371 321//321 372//372
f 322//322 372//372 321//321
f 321//321 372//372 322//322
f 372//372 321//321 371//371
f 323//323 324//324 373//373
f 374//374 373//373 324//324
f 324//324 373//373 374//374
f 373//373 324//324 323//323
f 375//375 338//338 376//376
f 339//339 376//376 338//338
f 338//338 376//376 339//339
f 376//376 338//338 375//375
f 280//280 325//325 324//324
f 377//377 324//324 325//325
f 325//325 324//324 377//377
f 324//324 325//325 280//280
f 378//378 326//326 338//338
f 327//327 338//338 326//326
f 326//326 338//338 327//327
f 338//338 326//326 378//378
f 281//281 328//328 325//325
f 379//379 325//325 328//328
f 328//328 325//325 379//379
f 325//325 328//328 281//281
f 380//380 329//329 326//326
f 290//290 326//326 329//329
f 329//329 326//326 290//290
f 326//326 329//329 380//380
f 328//328 282//282 381//381
f 330//330 381//381 282//282
f 282//282 381//381 330//330
f 381//381 282//282 328//328
f 382//382 331//331 329//329
f 283//283 329//329 331//331
f 331//331 329//329 283//283
f 329//329 331//331 382//382
f 330//330 285//285 383//383
f 332//332 383//383 285//285
f 285//285 383//383 332//332
f 383//383 285//285 330//330
f 384//384 333//333 331//331
f 286//286 331//331 333//333
f 333//333 331//331 286//286
f 331//331 333//333 384//384
f 332//332 287//287 385//385
f 334//334 385//385 287//287
f 287//287 385//385 334//334
f 385//385 287//287 332//332
f 334//334 289//289 333//333
f 288//288 333//333 289//289
f 289//289 333//333 288//288
f 333//333 289//289 334//334
f 386//386 387//387 376//376
f 339//339 376//376 387//387
f 359//359 339//339 387//387
f 337//337 339//339 359//359
f 341//341 337//337 359//359
f 335//335 337//337 341//341
f 342//342 335//335 341//341
f 336//336 335//335 342//342
f 343//343 336//336 342//342
f 357//357 336//336 343//343
f 344//344 357//357 343//343
f 345//345 357//357 344//344
f 356//356 357//357 345//345
f 346//346 356//356 345//345
f 355//355 356//356 346//346
f 347//347 355//355 346//346
f 354//354 355//355 347//347
f 348//348 354//354 347//347
f 353//353 354//354 348//348
f 349//349 353//353 348//348
f 352//352 353//353 349//349
f 350//350 352//352 349//349
f 351//351 352//352 350//350
f 350//350 352//352 351//351
f 349//349 352//352 350//350
f 349//349 353//353 352//352
f 348//348 353//353 349//349
f 348//348 354//354 353//353
f 347//347 354//354 348//348
f 347//347 355//355 354//354
f 346//346 355//355 347//347
f 346//346 356//356 355//355
f 345//345 356//356 346//346
f 345//345 357//357 356//356
f 344//344 357//357 345//345
f 343//343 357//357 344//344
f 343//343 336//336 357//357
f 342//342 336//336 343//343
f 342//342 335//335 336//336
f 341//341 335//335 342//342
f 341//341 337//337 335//335
f 359//359 337//337 341//341
f 359//359 339//339 337//337
f 387//387 339//339 359//359
f 387//387 376//376 339//339
f 376//376 387//387 386//386
f 388//388 387//387 358//358
f 359//359 358//358 387//387
f 387//387 358//358 359//359
f 358//358 387//387 388//388
f 389//389 358//358 360//360
f 340//340 360//360 358//358
f 358//358 360//360 340//340
f 360//360 358//358 389//389
f 390//390 360//360 361//361
f 308//308 361//361 360//360
f 360//360 361//361 308//308
f 361//361 360//360 390//390
f 391//391 361//361 392//392
f 362//362 392//392 361//361
f 363//363 392//392 362//362
f 312//312 363//363 362//362
f 362//362 363//363 312//312
f 362//362 392//392 363//363
f 361//361 392//392 362//362
f 392//392 361//361 391//391
f 393//393 363//363 364//364
f 313//313 364//364 363//363
f 363//363 364//364 313//313
f 364//364 363//363 393//393
f 364//364 314//314 365//365
f 315//315 365//365 314//314
f 314//314 365//365 315//315
f 365//365 314//314 364//364
f 366//366 394//394 316//316
f 365//365 316//316 394//394
f 394//394 316//316 365//365
f 316//316 394//394 366//366
f 367//367 395//395 368//368
f 396//396 368//368 395//395
f 317//317 368//368 396//396
f 366//366 317//317 396//396
f 396//396 317//317 366//366
f 396//396 368//368 317//317
f 395//395 368//368 396//396
f 368//368 395//395 367//367
f 369//369 397//397 318//318
f 367//367 318//318 397//397
f 397//397 318//318 367//367
f 318//318 397//397 369//369
f 370//370 398//398 320//320
f 369//369 320//320 398//398
f 398//398 320//320 369//369
f 320//320 398//398 370//370
f 399//399 370//370 371//371
f 321//321 371//371 370//370
f 370//370 371//371 321//321
f 371//371 370//370 399//399
f 374//374 371//371 373//373
f 372//372 373//373 371//371
f 371//371 373//373 372//372
f 373//373 371//371 374//374
f 400//400 375//375 386//386
f 376//376 386//386 375//375
f 375//375 386//386 376//376
f 386//386 375//375 400//400
f 324//324 377//377 374//374
f 401//401 374//374 377//377
f 377//377 374//374 401//401
f 374//374 377//377 324//324
f 402//402 378//378 375//375
f 338//338 375//375 378//378
f 378//378 375//375 338//338
f 375//375 378//378 402//402
f 325//325 379//379 377//377
f 403//403 377//377 379//379
f 379//379 377//377 403//403
f 377//377 379//379 325//325
f 404//404 380//380 378//378
f 326//326 378//378 380//380
f 380//380 378//378 326//326
f 378//378 380//380 404//404
f 379//379 328//328 405//405
f 381//381 405//405 328//328
f 328//328 405//405 381//381
f 405//405 328//328 379//379
f 406//406 382//382 380//380
f 329//329 380//380 382//382
f 382//382 380//380 329//329
f 380//380 382//382 406//406
f 381//381 330//330 407//407
f 383//383 407//407 330//330
f 330//330 407//407 383//383
f 407//407 330//330 381//381
f 408//408 384//384 382//382
f 331//331 382//382 384//384
f 384//384 382//382 331//331
f 382//382 384//384 408//408
f 383//383 332//332 409//409
f 385//385 409//409 332//332
f 332//332 409//409 385//385
f 409//409 332//332 383//383
f 385//385 334//334 384//384
f 333//333 384//384 334//334
f 334//334 384//384 333//333
f 384//384 334//334 385//385
f 400//400 386//386 388//388
f 387//387 388//388 386//386
f 386//386 388//388 387//387
f 388//388 386//386 400//400
f 410//410 388//388 389//389
f 358//358 389//389 388//388
f 388//388 389//389 358//358
f 389//389 388//388 410//410
f 411//411 389//389 390//390
f 360//360 390//390 389//389
f 389//389 390//390 360//360
f 390//390 389//389 411//411
f 412//412 390//390 391//391
f 361//361 391//391 390//390
f 390//390 391//391 361//361
f 391//391 390//390 412//412
f 413//413 391//391 414//414
f 392//392 414//414 391//391
f 393//393 414//414 392//392
f 363//363 393//393 392//392
f 392//392 393//393 363//363
f 392//392 414//414 393//393
f 391//391 414//414 392//392
f 414//414 391//391 413//413
f 394//394 393//393 365//365
f 364//364 365//365 393//393
f 393//393 365//365 364//364
f 365//365 393//393 394//394
f 395//395 415//415 396//396
f 416//416 396//396 415//415
f 366//366 396//396 416//416
f 394//394 366//366 416//416
f 416//416 366//366 394//394
f 416//416 396//396 366//366
f 415//415 396//396 416//416
f 396//396 415//415 395//395
f 397//397 417//417 367//367
f 395//395 367//367 417//417
f 417//417 367//367 395//395
f 367//367 417//417 397//397
f 398//398 418//418 369//369
f 397//397 369//369 418//418
f 418//418 369//369 397//397
f 369//369 418//418 398//398
f 419//419 398//398 399//399
f 370//370 399//399 398//398
f 398//398 399//399 370//370
f 399//399 398//398 419//419
f 401//401 399//399 374//374
f 371//371 374//374 399//399
f 399//399 374//374 371//371
f 374//374 399//399 401//401
f 420//420 402//402 400//400
f 375//375 400//400 402//402
f 402//402 400//400 375//375
f 400//400 402//402 420//420
f 377//377 403//403 401//401
f 421//421 401//401 403//403
f 403//403 401//401 421//421
f 401//401 403//403 377//377
f 422//422 404//404 402//402
f 378//378 402//402 404//404
f 404//404 402//402 378//378
f 402//402 404//404 422//422
f 403//403 379//379 423//423
f 405//405 423//423 379//379
f 379//379 423//423 405//405
f 423//423 379//379 403//403
f 424//424 406//406 404//404
f 380//380 404//404 406//406
f 406//406 404//404 380//380
f 404//404 406//406 424//424
f 405//405 381//381 425//425
f 407//407 425//425 381//381
f 381//381 425//425 407//407
f 425//425 381//381 405//405
f 426//426 408//408 406//406
f 382//382 406//406 408//408
f 408//408 406//406 382//382
f 406//406 408//408 426//426
f 407//407 383//383 427//427
f 409//409 427//427 383//383
f 383//383 427//427 409//409
f 427//427 383//383 407//407
f 409//409 385//385 408//408
f 384//384 408//408 385//385
f 385//385 408//408 384//384
f 408//408 385//385 409//409
f 420//420 400//400 410//410
f 388//388 410//410 400//400
f 400//400 410//410 388//388
f 410//410 400//400 420//420
f 428//428 410//410 411//411
f 389//389 411//411 410//410
f 410//410 411//411 389//389
f 411//411 410//410 428//428
f 429//429 411//411 412//412
f 390//390 412//412 411//411
f 411//411 412//412 390//390
f 412//412 411//411 429//429
f 430//430 412//412 413//413
f 391//391 413//413 412//412
f 412//412 413//413 391//391
f 413//413 412//412 430//430
f 415//415 413//413 416//416
f 414//414 416//416 413//413
f 394//394 416//416 414//414
f 393//393 394//394 414//414
f 414//414 394//394 393//393
f 414//414 416//416 394//394
f 413//413 416//416 414//414
f 416//416 413//413 415//415
f 417//417 431//431 395//395
f 415//415 395//395 431//431
f 431//431 395//395 415//415
f 395//395 431//431 417//417
f 418//418 432//432 397//397
f 417//417 397//397 432//432
f 432//432 397//397 417//417
f 397//397 432//432 418//418
f 419//419 433//433 398//398
f 418//418 398//398 433//433
f 433//433 398//398 418//418
f 398//398 433//433 419//419
f 421//421 419//419 401//401
f 399//399 401//401 419//419
f 419//419 401//401 399//399
f 401//401 419//419 421//421
f 434//434 422//422 420//420
f 402//402 420//420 422//422
f 422//422 420//420 402//402
f 420//420 422//422 434//434
f 403//403 423//423 421//421
f 435//435 421//421 423//423
f 423//423 421//421 435//435
f 421//421 423//423 403//403
f 436//436 424//424 422//422
f 404//404 422//422 424//424
f 424//424 422//422 404//404
f 422//422 424//424 436//436
f 423//423 405//405 437//437
f 425//425 437//437 405//405
f 405//405 437//437 425//425
f 437//437 405//405 423//423
f 438//438 426//426 424//424
f 406//406 424//424 426//426
f 426//426 424//424 406//406
f 424//424 426//426 438//438
f 425//425 407//407 439//439
f 427//427 439//439 407//407
f 407//407 439//439 427//427
f 439//439 407//407 425//425
f 427//427 409//409 426//426
f 408//408 426//426 409//409
f 409//409 426//426 408//408
f 426//426 409//409 427//427
f 434//434 420//420 428//428
f 410//410 428//428 420//420
f 420//420 428//428 410//410
f 428//428 420//420 434//434
f 440//440 428//428 429//429
f 411//411 429//429 428//428
f 428//428 429//429 411//411
f 429//429 428//428 440//440
f 441//441 429//429 430//430
f 412//412 430//430 429//429
f 429//429 430//430 412//412
f 430//430 429//429 441//441
f 431//431 430//430 415//415
f 413//413 415//415 430//430
f 430//430 415//415 413//413
f 415//415 430//430 431//431
f 432//432 442//442 417//417
f 431//431 417//417 442//442
f 442//442 417//417 431//431
f 417//417 442//442 432//432
f 433//433 443//443 418//418
f 432//432 418//418 443//443
f 443//443 418//418 432//432
f 418//418 443//443 433//433
f 421//421 435//435 419//419
f 433//433 419//419 435//435
f 435//435 419//419 433//433
f 419//419 435//435 421//421
f 444//444 436//436 434//434
f 422//422 434//434 436//436
f 436//436 434//434 422//422
f 434//434 436//436 444//444
f 435//435 423//423 445//445
f 437//437 445//445 423//423
f 423//423 445//445 437//437
f 445//445 423//423 435//435
f 446//446 438//438 436//436
f 424//424 436//436 438//438
f 438//438 436//436 424//424
f 436//436 438//438 446//446
f 437//437 425//425 447//447
f 439//439 447//447 425//425
f 425//425 447//447 439//439
f 447//447 425//425 437//437
f 439//439 427//427 438//438
f 426//426 438//438 427//427
f 427//427 438//438 426//426
f 438//438 427//427 439//439
f 444//444 434//434 440//440
f 428//428 440//440 434//434
f 434//434 440//440 428//428
f 440//440 434//434 444//444
f 448//448 440//440 441//441
f 429//429 441//441 440//440
f 440//440 441//441 429//429
f 441//441 440//440 448//448
f 442//442 441//441 431//431
f 430//430 431//431 441//441
f 441//441 431//431 430//430
f 431//431 441//441 442//442
f 443//443 449//449 432//432
f 442//442 432//432 449//449
f 449//449 432//432 442//442
f 432//432 449//449 443//443
f 435//435 445//445 433//433
f 443//443 433//433 445//445
f 445//445 433//433 443//443
f 433//433 445//445 435//435
f 450//450 446//446 444//444
f 436//436 444//444 446//446
f 446//446 444//444 436//436
f 444//444 446//446 450//450
f 445//445 437//437 451//451
f 447//447 451//451 437//437
f 437//437 451//451 447//447
f 451//451 437//437 445//445
f 447//447 439//439 446//446
f 438//438 446//446 439//439
f 439//439 446//446 438//438
f 446//446 439//439 447//447
f 450//450 444//444 448//448
f 440//440 448//448 444//444
f 444//444 448//448 440//440
f 448//448 444//444 450//450
f 449//449 448//448 442//442
f 441//441 442//442 448//448
f 448//448 442//442 441//441
f 442//442 448//448 449//449
f 445//445 451//451 443//443
f 449//449 443//443 451//451
f 451//451 443//443 449//449
f 443//443 451//451 445//445
f 451//451 447//447 450//450
f 446//446 450//450 447//447
f 447//447 450//450 446//446
f 450//450 447//447 451//451
f 451//451 450//450 449//449
f 448//448 449//449 450//450
f 450//450 449//449 448//448
f 449//449 450//450 451//451