# https://github.com/mikedh/trimesh
v -0.00102900 0.08523000 -0.02998300
v -0.00102900 -0.08528400 0.07007900
v -0.00102900 -0.08528400 -0.02998300
v -0.00102900 0.08523000 0.07007900
v 0.00282300 -0.08138100 0.05974900
v 0.00282300 0.08152800 -0.01496500
v 0.00282300 0.08152800 0.05974900
v 0.00282300 -0.08138100 -0.01496500
v 0.00282300 -0.08138100 -0.02810600
v 0.00089700 -0.08138100 -0.01684200
v 0.00282300 -0.08138100 -0.01684200
v 0.00089700 -0.08138100 -0.02810600
v 0.00282300 -0.01538400 -0.01684200
v 0.00089700 -0.01538400 -0.01684200
v 0.00089700 -0.01538400 -0.02810600
v 0.00282300 -0.01538400 -0.02810600
v 0.00282300 0.01610300 -0.01684200
v 0.00089700 0.01610300 -0.02810600
v 0.00089700 0.01610300 -0.01684200
v 0.00282300 0.01610300 -0.02810600
v 0.00282300 0.08152800 -0.01684200
v 0.00089700 0.08152800 -0.01684200
v 0.00089700 0.08152800 -0.02810600
v 0.00282300 0.08152800 -0.02810600
v 0.00436300 0.00572300 -0.01754600
v 0.00436300 0.00504400 -0.02117800
v 0.00436300 0.00521500 -0.02247400
v 0.00436300 0.00454400 -0.01997100
v 0.00436300 0.00425700 -0.01684200
v 0.00436300 0.00399300 -0.01671600
v 0.00436300 0.00374800 -0.01893400
v 0.00436300 0.00271200 -0.01813800
v 0.00436300 0.00209100 -0.01647300
v 0.00436300 0.00150400 -0.01763800
v 0.00436300 0.00020800 -0.01684200
v 0.00436300 0.00020800 -0.01746700
v 0.00436300 -0.00108800 -0.01763800
v 0.00436300 -0.00167400 -0.01647300
v 0.00436300 -0.00229500 -0.01813800
v 0.00436300 -0.00333200 -0.01893400
v 0.00436300 -0.00357700 -0.01671600
v 0.00436300 -0.00384000 -0.01684200
v 0.00436300 -0.00412800 -0.01997100
v 0.00436300 -0.00462800 -0.02117800
v 0.00436300 -0.00530600 -0.01754600
v 0.00436300 -0.00479800 -0.02247400
v 0.00436300 -0.00530600 -0.02740200
v 0.00436300 -0.00668500 -0.01888000
v 0.00436300 -0.00668500 -0.02606800
v 0.00436300 -0.00757300 -0.02436800
v 0.00436300 -0.00757300 -0.02058000
v 0.00436300 -0.00787900 -0.02247400
v 0.00436300 0.00799000 -0.02058000
v 0.00436300 0.00799000 -0.02436800
v 0.00436300 0.00829600 -0.02247400
v 0.00436300 0.00710100 -0.01888000
v 0.00436300 0.00710100 -0.02606800
v 0.00436300 0.00572300 -0.02740200
v 0.00436300 0.00504400 -0.02377000
v 0.00436300 0.00454400 -0.02497700
v 0.00436300 0.00425700 -0.02810600
v 0.00436300 0.00399300 -0.02823200
v 0.00436300 0.00374800 -0.02601400
v 0.00436300 0.00271200 -0.02681000
v 0.00436300 0.00209100 -0.02847500
v 0.00436300 0.00150400 -0.02731000
v 0.00436300 0.00020800 -0.02810600
v 0.00436300 0.00020800 -0.02748100
v 0.00436300 -0.00108800 -0.02731000
v 0.00436300 -0.00167400 -0.02847500
v 0.00436300 -0.00229500 -0.02681000
v 0.00436300 -0.00333200 -0.02601400
v 0.00436300 -0.00357700 -0.02823200
v 0.00436300 -0.00384000 -0.02810600
v 0.00436300 -0.00412800 -0.02497700
v 0.00436300 -0.00462800 -0.02377000
v -0.00449500 0.01484800 0.04996000
v -0.00449500 0.03750500 0.02608200
v -0.00449500 0.03750500 0.04996000
v -0.00449500 0.01484800 0.03519700
v -0.00449500 0.01484800 0.02608200
v -0.00102900 0.07868300 -0.02998300
v -0.00102900 -0.03759500 0.02608200
v -0.00102900 0.03750500 0.02608200
v -0.00102900 -0.03759500 0.04996000
v -0.00102900 0.03750500 0.04996000
v -0.00449500 -0.01490200 0.03519700
v -0.00449500 -0.01490200 0.02608200
v -0.00449500 -0.01490200 0.04996000
v -0.02124800 0.03804300 -0.04888200
v 0.02342700 0.03643100 -0.04837300
v 0.02342700 0.03804300 -0.04888200
v -0.02124800 0.03643100 -0.04837300
v 0.02342700 0.03480700 -0.04790500
v -0.02124800 0.03480700 -0.04790500
v 0.02342700 0.03317100 -0.04747800
v -0.02124800 0.03317100 -0.04747800
v 0.02342700 0.03152600 -0.04709300
v -0.02124800 0.03152600 -0.04709300
v 0.02342700 0.02987100 -0.04675000
v -0.02124800 0.02987100 -0.04675000
v 0.02342700 0.02820800 -0.04644900
v -0.02124800 0.02820800 -0.04644900
v 0.02342700 0.02653700 -0.04619000
v -0.02124800 0.02653700 -0.04619000
v 0.02342700 0.02486100 -0.04597400
v -0.02124800 0.02486100 -0.04597400
v 0.02342700 0.02318000 -0.04580000
v -0.02124800 0.02318000 -0.04580000
v 0.02342700 0.02149500 -0.04566900
v -0.02124800 0.02149500 -0.04566900
v 0.02342700 0.01980700 -0.04558100
v -0.02124800 0.01980700 -0.04558100
v 0.00109000 0.01484800 -0.04558100
v 0.02342700 -0.01986100 -0.04558100
v -0.01007900 0.01484800 -0.04558100
v -0.01007900 -0.01490200 -0.04558100
v 0.00109000 -0.01490200 -0.04558100
v -0.02124800 -0.01986100 -0.04558100
v -0.02124800 -0.02154900 -0.04566900
v 0.02342700 -0.02154900 -0.04566900
v 0.02342700 -0.02323400 -0.04580000
v -0.02124800 -0.02323400 -0.04580000
v 0.02342700 -0.02491500 -0.04597400
v -0.02124800 -0.02491500 -0.04597400
v 0.02342700 -0.02659100 -0.04619000
v -0.02124800 -0.02659100 -0.04619000
v 0.02342700 -0.02826200 -0.04644900
v -0.02124800 -0.02826200 -0.04644900
v 0.02342700 -0.02992500 -0.04675000
v -0.02124800 -0.02992500 -0.04675000
v 0.02342700 -0.03158000 -0.04709300
v -0.02124800 -0.03158000 -0.04709300
v 0.02342700 -0.03322500 -0.04747800
v -0.02124800 -0.03322500 -0.04747800
v 0.02342700 -0.03486100 -0.04790500
v -0.02124800 -0.03486100 -0.04790500
v 0.02342700 -0.03648500 -0.04837300
v -0.02124800 -0.03648500 -0.04837300
v 0.02342700 -0.03809700 -0.04888200
v -0.02124800 -0.03809700 -0.04888200
v 0.02342700 0.03964100 -0.04943200
v 0.02342700 -0.03969500 -0.04943200
v -0.02124800 0.03964100 -0.04943200
v -0.02124800 -0.03969500 -0.04943200
v -0.00449500 -0.03759500 0.02608200
v -0.00449500 -0.03759500 0.04996000
v 0.00020100 -0.01490200 -0.04448300
v 0.00020100 0.01484800 -0.04448300
v -0.00061900 -0.01490200 -0.04333400
v -0.00061900 0.01484800 -0.04333400
v -0.00136700 -0.01490200 -0.04213600
v -0.00136700 0.01484800 -0.04213600
v -0.00204000 -0.01490200 -0.04089500
v -0.00204000 0.01484800 -0.04089500
v -0.00263700 -0.01490200 -0.03961500
v -0.00263700 0.01484800 -0.03961500
v -0.00315300 -0.01490200 -0.03830100
v -0.00315300 0.01484800 -0.03830100
v -0.00358800 -0.01490200 -0.03695800
v -0.00358800 0.01484800 -0.03695800
v -0.00394000 -0.01490200 -0.03559000
v -0.00394000 0.01484800 -0.03559000
v -0.00420700 -0.01490200 -0.03420400
v -0.00420700 0.01484800 -0.03420400
v -0.00438900 -0.01490200 -0.03280400
v -0.00438900 0.01484800 -0.03280400
v -0.00448500 -0.01490200 -0.03139500
v -0.00448500 0.01484800 -0.03139500
v -0.00449500 -0.01490200 -0.02998300
v -0.00449500 0.01484800 -0.02998300
v -0.00540500 -0.01490200 0.04895900
v -0.00540500 0.01484800 0.04895900
v -0.00624400 -0.01490200 0.04789900
v -0.00624400 0.01484800 0.04789900
v -0.00700900 -0.01490200 0.04678300
v -0.00700900 0.01484800 0.04678300
v -0.00769600 -0.01490200 0.04561800
v -0.00769600 0.01484800 0.04561800
v -0.00830100 -0.01490200 0.04440800
v -0.00830100 0.01484800 0.04440800
v -0.00882300 -0.01490200 0.04316000
v -0.00882300 0.01484800 0.04316000
v -0.00925800 -0.01490200 0.04187900
v -0.00925800 0.01484800 0.04187900
v -0.00960500 -0.01490200 0.04057100
v -0.00960500 0.01484800 0.04057100
v -0.00986100 -0.01490200 0.03924300
v -0.00986100 0.01484800 0.03924300
v -0.01002600 -0.01490200 0.03790100
v -0.01002600 0.01484800 0.03790100
v -0.01009900 -0.01490200 0.03655000
v -0.01009900 0.01484800 0.03655000
v -0.01007900 -0.01490200 0.03519700
v -0.01007900 0.01484800 0.03519700
v 0.00474800 0.08523000 -0.02998300
v 0.00474800 0.07868300 -0.02998300
v 0.00474800 -0.08528400 -0.02998300
v 0.00474800 0.08523000 0.07007900
v 0.00474800 0.08152800 -0.01496500
v 0.00474800 0.01610300 -0.01684200
v 0.00474800 0.08152800 -0.01684200
v 0.00474800 0.00829600 -0.02247400
v 0.00474800 0.01610300 -0.02810600
v 0.00474800 0.00799000 -0.02058000
v 0.00474800 0.00710100 -0.01888000
v 0.00474800 0.00572300 -0.01754600
v 0.00474800 0.00425700 -0.01684200
v 0.00474800 0.00399300 -0.01671600
v 0.00474800 0.00209100 -0.01647300
v 0.00474800 -0.00167400 -0.01647300
v 0.00474800 0.00020800 -0.01684200
v 0.00474800 -0.00357700 -0.01671600
v 0.00474800 -0.00530600 -0.01754600
v 0.00474800 -0.00384000 -0.01684200
v 0.00474800 -0.00757300 -0.02058000
v 0.00474800 -0.01538400 -0.01684200
v 0.00474800 -0.00787900 -0.02247400
v 0.00474800 -0.00668500 -0.01888000
v 0.00474800 -0.08138100 -0.01496500
v 0.00474800 -0.08138100 -0.01684200
v 0.00474800 0.08152800 0.05974900
v 0.00474800 -0.08138100 0.05974900
v 0.00474800 -0.08138100 -0.02810600
v 0.00474800 -0.08528400 0.07007900
v 0.00474800 0.08152800 -0.02810600
v 0.00474800 0.00799000 -0.02436800
v 0.00474800 0.00710100 -0.02606800
v 0.00474800 0.00572300 -0.02740200
v 0.00474800 0.00425700 -0.02810600
v 0.00474800 0.00399300 -0.02823200
v 0.00474800 0.00209100 -0.02847500
v 0.00474800 -0.00167400 -0.02847500
v 0.00474800 0.00020800 -0.02810600
v 0.00474800 -0.00530600 -0.02740200
v 0.00474800 -0.00357700 -0.02823200
v 0.00474800 -0.00384000 -0.02810600
v 0.00474800 -0.00757300 -0.02436800
v 0.00474800 -0.00668500 -0.02606800
v 0.00474800 -0.01538400 -0.02810600
v 0.00513300 0.00213400 -0.01913900
v 0.00590400 0.00120500 -0.01875400
v 0.00590400 0.00213400 -0.01913900
v 0.00513300 0.00120500 -0.01875400
v 0.00513300 0.00293200 -0.01975100
v 0.00590400 0.00293200 -0.01975100
v 0.00590400 0.00354400 -0.02054800
v 0.00513300 0.00354400 -0.02054800
v 0.00590400 0.00392800 -0.02147700
v 0.00513300 0.00392800 -0.02147700
v 0.00590400 0.00406000 -0.02247400
v 0.00513300 0.00406000 -0.02247400
v 0.00590400 0.00392800 -0.02347100
v 0.00513300 0.00392800 -0.02347100
v 0.00590400 0.00354400 -0.02440000
v 0.00513300 0.00354400 -0.02440000
v 0.00590400 0.00293200 -0.02519700
v 0.00513300 0.00293200 -0.02519700
v 0.00513300 0.00213400 -0.02580900
v 0.00590400 0.00213400 -0.02580900
v 0.00513300 0.00120500 -0.02619400
v 0.00590400 0.00120500 -0.02619400
v 0.00513300 0.00020800 -0.02632500
v 0.00590400 0.00020800 -0.02632500
v 0.00513300 -0.00078900 -0.02619400
v 0.00590400 -0.00078900 -0.02619400
v 0.00513300 -0.00171700 -0.02580900
v 0.00590400 -0.00171700 -0.02580900
v 0.00590400 -0.00251500 -0.02519700
v 0.00513300 -0.00251500 -0.02519700
v 0.00590400 -0.00312700 -0.02440000
v 0.00513300 -0.00312700 -0.02440000
v 0.00590400 -0.00351200 -0.02347100
v 0.00513300 -0.00351200 -0.02347100
v 0.00590400 -0.00364300 -0.02247400
v 0.00513300 -0.00364300 -0.02247400
v 0.00590400 -0.00351200 -0.02147700
v 0.00513300 -0.00351200 -0.02147700
v 0.00590400 -0.00312700 -0.02054800
v 0.00513300 -0.00312700 -0.02054800
v 0.00590400 -0.00251500 -0.01975100
v 0.00513300 -0.00251500 -0.01975100
v 0.00590400 -0.00171700 -0.01913900
v 0.00513300 -0.00171700 -0.01913900
v 0.00513300 -0.00078900 -0.01875400
v 0.00590400 -0.00078900 -0.01875400
v 0.00513300 0.00020800 -0.01862300
v 0.00590400 0.00020800 -0.01862300
v 0.00513300 -0.00108800 -0.02731000
v 0.00513300 -0.00229500 -0.02681000
v 0.00513300 -0.00333200 -0.02601400
v 0.00513300 -0.00412800 -0.02497700
v 0.00513300 -0.00462800 -0.02377000
v 0.00513300 -0.00479800 -0.02247400
v 0.00513300 -0.00462800 -0.02117800
v 0.00513300 -0.00412800 -0.01997100
v 0.00513300 -0.00333200 -0.01893400
v 0.00513300 -0.00229500 -0.01813800
v 0.00513300 -0.00108800 -0.01763800
v 0.00513300 0.00020800 -0.01746700
v 0.00513300 0.00150400 -0.01763800
v 0.00513300 0.00271200 -0.01813800
v 0.00513300 0.00374800 -0.01893400
v 0.00513300 0.00454400 -0.01997100
v 0.00513300 0.00504400 -0.02117800
v 0.00513300 0.00521500 -0.02247400
v 0.00513300 0.00504400 -0.02377000
v 0.00513300 0.00454400 -0.02497700
v 0.00513300 0.00374800 -0.02601400
v 0.00513300 0.00271200 -0.02681000
v 0.00513300 0.00150400 -0.02731000
v 0.00513300 0.00020800 -0.02748100
vn -0.57735027 0.57735027 -0.57735027
vn -0.57735027 -0.57735027 0.57735027
vn -0.57735027 -0.57735027 -0.57735027
vn -0.57735027 0.57735027 0.57735027
vn 0.57735027 0.57735027 -0.57735027
vn 0.57735027 -0.57735027 0.57735027
vn 0.57735027 -0.57735027 -0.57735027
vn 0.57735027 0.57735027 0.57735027
vn -0.00000000 0.70710678 0.70710678
vn 0.57735027 0.57735027 -0.57735027
vn 0.00000000 0.70710678 -0.70710678
vn 0.57735027 0.57735027 0.57735027
vn -0.00000000 -0.70710678 -0.70710678
vn 0.57735027 -0.57735027 -0.57735027
vn 0.57735027 -0.57735027 0.57735027
vn 0.00000000 -0.70710678 0.70710678
vn 0.00000000 0.70710678 -0.70710678
vn 0.57735027 0.57735027 0.57735027
vn 0.57735027 0.57735027 -0.57735027
vn -0.00000000 0.70710678 0.70710678
vn -0.00000000 -0.70710678 -0.70710678
vn 0.57735027 -0.57735027 -0.57735027
vn 0.57735027 -0.57735027 0.57735027
vn 0.00000000 -0.70710678 0.70710678
vn 0.67279519 -0.42287514 -0.60706115
vn 0.73766932 0.65212878 0.17484860
vn 0.73776964 0.67505256 -0.00000000
vn 0.73771714 0.58462819 0.33761412
vn 0.70683720 -0.30545256 -0.63802814
vn 0.67312264 -0.20876649 -0.70945223
vn 0.73760250 0.47757462 0.47735210
vn 0.73780891 0.33761462 0.58451208
vn 0.67288531 0.02456981 -0.73933868
vn 0.73763392 0.17476316 0.65219172
vn 0.75307381 -0.00003299 -0.65793604
vn 0.73776964 0.00000000 0.67505256
vn 0.73766932 -0.17484860 0.65212878
vn 0.67288186 -0.02463140 -0.73933977
vn 0.73771714 -0.33761412 0.58462819
vn 0.73765886 -0.47741984 0.47741984
vn 0.67296707 0.20930700 -0.70944056
vn 0.70700334 0.30585185 -0.63765267
vn 0.73771714 -0.58462819 0.33761412
vn 0.73776104 -0.65209822 0.17457536
vn 0.67283171 0.42274612 -0.60711054
vn 0.73758621 -0.67525298 -0.00000000
vn 0.67283171 0.42274612 0.60711054
vn 0.67288226 0.59260853 -0.44276924
vn 0.67288226 0.59260853 0.44276924
vn 0.67282411 0.70206635 0.23326071
vn 0.67282411 0.70206635 -0.23326071
vn 0.67290809 0.73972610 -0.00000000
vn 0.67277757 -0.70205260 -0.23343625
vn 0.67277757 -0.70205260 0.23343625
vn 0.67290809 -0.73972610 0.00000000
vn 0.67296535 -0.59252594 -0.44275348
vn 0.67296535 -0.59252594 0.44275348
vn 0.67279519 -0.42287514 0.60706115
vn 0.73766932 0.65212878 -0.17484860
vn 0.73771714 0.58462819 -0.33761412
vn 0.70683720 -0.30545256 0.63802814
vn 0.67312264 -0.20876649 0.70945223
vn 0.73760250 0.47757462 -0.47735210
vn 0.73780891 0.33761462 -0.58451208
vn 0.67288531 0.02456981 0.73933868
vn 0.73763392 0.17476316 -0.65219172
vn 0.75307381 -0.00003299 0.65793604
vn 0.73776964 0.00000000 -0.67505256
vn 0.73766932 -0.17484860 -0.65212878
vn 0.67288186 -0.02463140 0.73933977
vn 0.73771714 -0.33761412 -0.58462819
vn 0.73765886 -0.47741984 -0.47741984
vn 0.67296707 0.20930700 0.70944056
vn 0.70700334 0.30585185 0.63765267
vn 0.73771714 -0.58462819 -0.33761412
vn 0.73776104 -0.65209822 -0.17457536
vn 0.09539751 0.17230237 0.98041379
vn 0.00000000 0.70710678 -0.70710678
vn -0.00000000 0.70710678 0.70710678
vn 0.70710678 0.70710678 0.00000000
vn 0.57735027 0.57735027 -0.57735027
vn -0.70710678 0.00000000 -0.70710678
vn -0.90453403 -0.30151134 -0.30151134
vn -0.90453403 0.30151134 -0.30151134
vn -0.90453403 -0.30151134 0.30151134
vn -0.90453403 0.30151134 0.30151134
vn 0.70710678 -0.70710678 0.00000000
vn 0.33333333 -0.66666667 -0.66666667
vn -0.26307051 -0.16699492 0.95021398
vn -0.70423364 0.22243238 0.67422460
vn 0.70427359 0.20518988 0.67962918
vn 0.70423364 0.22243238 0.67422460
vn -0.70427359 0.20518988 0.67962918
vn 0.70427418 0.18795100 0.68459645
vn -0.70427418 0.18795100 0.68459645
vn 0.70425924 0.17055154 0.68915245
vn -0.70425924 0.17055154 0.68915245
vn 0.70424311 0.15294567 0.69328873
vn -0.70424311 0.15294567 0.69328873
vn 0.70427089 0.13526783 0.69692548
vn -0.70427089 0.13526783 0.69692548
vn 0.70427220 0.11759951 0.70012215
vn -0.70427220 0.11759951 0.70012215
vn 0.70423699 0.09975441 0.70292199
vn -0.70423699 0.09975441 0.70292199
vn 0.70430090 0.08192226 0.70515884
vn -0.70430090 0.08192226 0.70515884
vn 0.70424233 0.06406866 0.70706290
vn -0.70424233 0.06406866 0.70706290
vn 0.70424798 0.04599915 0.70846232
vn -0.70424798 0.04599915 0.70846232
vn 0.70129248 0.01856311 0.71263193
vn -0.70129248 0.01856311 0.71263193
vn 0.20700038 0.15094089 0.96662697
vn 0.70129248 -0.01856311 0.71263193
vn -0.30151134 0.30151134 0.90453403
vn -0.30151134 -0.30151134 0.90453403
vn 0.20700038 -0.15094089 0.96662697
vn -0.70129248 -0.01856311 0.71263193
vn -0.70424798 -0.04599915 0.70846232
vn 0.70424798 -0.04599915 0.70846232
vn 0.70424233 -0.06406866 0.70706290
vn -0.70424233 -0.06406866 0.70706290
vn 0.70430090 -0.08192226 0.70515884
vn -0.70430090 -0.08192226 0.70515884
vn 0.70423699 -0.09975441 0.70292199
vn -0.70423699 -0.09975441 0.70292199
vn 0.70427220 -0.11759951 0.70012215
vn -0.70427220 -0.11759951 0.70012215
vn 0.70427089 -0.13526783 0.69692548
vn -0.70427089 -0.13526783 0.69692548
vn 0.70424311 -0.15294567 0.69328873
vn -0.70424311 -0.15294567 0.69328873
vn 0.70425924 -0.17055154 0.68915245
vn -0.70425924 -0.17055154 0.68915245
vn 0.70427418 -0.18795100 0.68459645
vn -0.70427418 -0.18795100 0.68459645
vn 0.70427359 -0.20518988 0.67962918
vn -0.70427359 -0.20518988 0.67962918
vn 0.70423364 -0.22243238 0.67422460
vn -0.70423364 -0.22243238 0.67422460
vn 0.53878101 0.83090138 -0.13898893
vn 0.53878101 -0.83090138 -0.13898893
vn -0.53878101 0.83090138 -0.13898893
vn -0.53878101 -0.83090138 -0.13898893
vn -0.57735027 -0.57735027 -0.57735027
vn -0.57735027 -0.57735027 0.57735027
vn 0.55727524 -0.71400825 0.42383549
vn 0.55727524 0.71400825 0.42383549
vn 0.58207428 -0.71411447 0.38888308
vn 0.58207428 0.71411447 0.38888308
vn 0.60490736 -0.71406225 0.35242332
vn 0.60490736 0.71406225 0.35242332
vn 0.62530142 -0.71397851 0.31501242
vn 0.62530142 0.71397851 0.31501242
vn 0.64325752 -0.71417549 0.27599481
vn 0.64325752 0.71417549 0.27599481
vn 0.65916454 -0.71403026 0.23592986
vn 0.65916454 0.71403026 0.23592986
vn 0.67230597 -0.71408040 0.19517649
vn 0.67230597 0.71408040 0.19517649
vn 0.68300865 -0.71409711 0.15350732
vn 0.68300865 0.71409711 0.15350732
vn 0.69118637 -0.71403946 0.11139592
vn 0.69118637 0.71403946 0.11139592
vn 0.69667675 -0.71406380 0.06895214
vn 0.69667675 0.71406380 0.06895214
vn 0.69962210 -0.71402936 0.02628678
vn 0.69962210 0.71402936 0.02628678
vn 0.70630357 -0.70790466 0.00250104
vn 0.70630357 0.70790466 0.00250104
vn -0.54488015 -0.69950501 0.46238336
vn -0.54488015 0.69950501 0.46238336
vn -0.57525975 -0.69946619 0.42405574
vn -0.57525975 0.69946619 0.42405574
vn -0.60283692 -0.69952340 0.38373776
vn -0.60283692 0.69952340 0.38373776
vn -0.62783478 -0.69940691 0.34154570
vn -0.62783478 0.69940691 0.34154570
vn -0.64952482 -0.69959103 0.29780848
vn -0.64952482 0.69959103 0.29780848
vn -0.66842681 -0.69944747 0.25294039
vn -0.66842681 0.69944747 0.25294039
vn -0.68407783 -0.69953027 0.20662751
vn -0.68407783 0.69953027 0.20662751
vn -0.69669863 -0.69943791 0.15936635
vn -0.69669863 0.69943791 0.15936635
vn -0.70588824 -0.69952422 0.11129984
vn -0.70588824 0.69952422 0.11129984
vn -0.71186130 -0.69949592 0.06292021
vn -0.71186130 0.69949592 0.06292021
vn -0.71454320 -0.69945108 0.01400708
vn -0.71454320 0.69945108 0.01400708
vn -0.70541636 -0.70877399 -0.00521344
vn -0.70541636 0.70877399 -0.00521344
vn 0.57735027 0.57735027 -0.57735027
vn 0.70710678 0.00000000 -0.70710678
vn 0.57735027 -0.57735027 -0.57735027
vn 0.57735027 0.57735027 0.57735027
vn 0.90453403 -0.30151134 0.30151134
vn 0.90453403 0.30151134 -0.30151134
vn 0.90453403 -0.30151134 -0.30151134
vn 0.74483039 -0.66725384 -0.00000000
vn 0.90453403 0.30151134 0.30151134
vn 0.74498922 -0.63300139 -0.21047635
vn 0.74476076 -0.53457504 -0.39945080
vn 0.74496777 -0.38130471 -0.54738445
vn 0.70737656 -0.30521966 -0.63754165
vn 0.74456958 -0.18844514 -0.64039407
vn 0.74485811 0.02216101 -0.66685477
vn 0.74486231 -0.02221632 -0.66684824
vn 0.66626579 -0.00003739 -0.74571435
vn 0.74475867 0.18883717 -0.64005863
vn 0.74492333 0.38123385 -0.54749428
vn -0.70700334 0.30585185 -0.63765267
vn 0.74493257 0.63311003 -0.21035006
vn 0.90453403 -0.30151134 -0.30151134
vn 0.74483039 0.66725384 0.00000000
vn 0.74486182 0.53450454 -0.39935668
vn 0.57735027 0.57735027 0.57735027
vn 0.57735027 0.57735027 -0.57735027
vn 0.90453403 -0.30151134 -0.30151134
vn 0.90453403 0.30151134 -0.30151134
vn 0.90453403 0.30151134 0.30151134
vn 0.57735027 -0.57735027 0.57735027
vn 0.90453403 -0.30151134 0.30151134
vn 0.74498922 -0.63300139 0.21047635
vn 0.74476076 -0.53457504 0.39945080
vn 0.74496777 -0.38130471 0.54738445
vn 0.70737656 -0.30521966 0.63754165
vn 0.74456958 -0.18844514 0.64039407
vn 0.74485811 0.02216101 0.66685477
vn 0.74486231 -0.02221632 0.66684824
vn 0.66626579 -0.00003739 0.74571435
vn 0.74492333 0.38123385 0.54749428
vn 0.74475867 0.18883717 0.64005863
vn -0.70700334 0.30585185 0.63765267
vn 0.74493257 0.63311003 0.21035006
vn 0.74486182 0.53450454 0.39935668
vn 0.90453403 -0.30151134 0.30151134
vn 0.73764732 0.33757024 0.58474162
vn 0.67882975 0.19002339 0.70928223
vn 0.67891949 0.36708150 0.63586123
vn 0.73775268 0.17469706 0.65207509
vn 0.73768938 0.47725168 0.47754080
vn 0.67888365 0.51903299 0.51934742
vn 0.67876247 0.63604447 0.36705441
vn 0.73783170 0.58461999 0.33737790
vn 0.67902599 0.70910060 0.19000014
vn 0.73752235 0.65231231 0.17478398
vn 0.67872367 0.73439375 -0.00000000
vn 0.73787729 0.67493489 -0.00000000
vn 0.67902599 0.70910060 -0.19000014
vn 0.73752235 0.65231231 -0.17478398
vn 0.67876247 0.63604447 -0.36705441
vn 0.73783170 0.58461999 -0.33737790
vn 0.67888365 0.51903299 -0.51934742
vn 0.73768938 0.47725168 -0.47754080
vn 0.73764732 0.33757024 -0.58474162
vn 0.67891949 0.36708150 -0.63586123
vn 0.73775268 0.17469706 -0.65207509
vn 0.67882975 0.19002339 -0.70928223
vn 0.73763882 0.00000000 -0.67519550
vn 0.67892672 -0.00000000 -0.73420604
vn 0.73779876 -0.17480825 -0.65199314
vn 0.67879051 -0.19016792 -0.70928105
vn 0.73760124 -0.33770682 -0.58472088
vn 0.67895874 -0.36718449 -0.63575984
vn 0.67888365 -0.51903299 -0.51934742
vn 0.73768938 -0.47725168 -0.47754080
vn 0.67885710 -0.63579999 -0.36730288
vn 0.73772055 -0.58457009 -0.33770727
vn 0.67882975 -0.70928223 -0.19002339
vn 0.73775268 -0.65207509 -0.17469706
vn 0.67892672 -0.73420604 -0.00000000
vn 0.73763882 -0.67519550 -0.00000000
vn 0.67882975 -0.70928223 0.19002339
vn 0.73775268 -0.65207509 0.17469706
vn 0.67885710 -0.63579999 0.36730288
vn 0.73772055 -0.58457009 0.33770727
vn 0.67888365 -0.51903299 0.51934742
vn 0.73768938 -0.47725168 0.47754080
vn 0.67895874 -0.36718449 0.63575984
vn 0.73760124 -0.33770682 0.58472088
vn 0.73779876 -0.17480825 0.65199314
vn 0.67879051 -0.19016792 0.70928105
vn 0.73763882 0.00000000 0.67519550
vn 0.67892672 0.00000000 0.73420604
vn 0.67890074 -0.19014557 -0.70918153
vn 0.67886001 -0.36719820 -0.63585735
vn 0.67890965 -0.51917323 -0.51917323
vn 0.67886001 -0.63585735 -0.36719820
vn 0.67882262 -0.70932336 -0.18989529
vn 0.67897156 -0.73416458 -0.00000000
vn 0.67882262 -0.70932336 0.18989529
vn 0.67886001 -0.63585735 0.36719820
vn 0.67890965 -0.51917323 0.51917323
vn 0.67886001 -0.36719820 0.63585735
vn 0.67890074 -0.19014557 0.70918153
vn 0.67881530 0.00000000 0.73430906
vn 0.67893090 0.19003455 0.70918242
vn 0.67878187 0.36728943 0.63588808
vn 0.67895767 0.51926279 0.51902084
vn 0.67886001 0.63585735 0.36719820
vn 0.67890074 0.70918153 0.19014557
vn 0.67881530 0.73430906 -0.00000000
vn 0.67890074 0.70918153 -0.19014557
vn 0.67886001 0.63585735 -0.36719820
vn 0.67895767 0.51926279 -0.51902084
vn 0.67878187 0.36728943 -0.63588808
vn 0.67893090 0.19003455 -0.70918242
vn 0.67881530 -0.00000000 -0.73430906
f 1//1 2//2 3//3
f 2//2 1//1 4//4
f 3//3 2//2 1//1
f 4//4 1//1 2//2
f 5//5 6//6 7//7
f 6//6 5//5 8//8
f 9//9 10//10 11//11
f 10//10 9//9 12//12
f 10//10 13//13 11//11
f 13//13 10//10 14//14
f 15//15 13//13 14//14
f 13//13 15//15 16//16
f 15//15 9//9 16//16
f 9//9 15//15 12//12
f 10//10 15//15 14//14
f 15//15 10//10 12//12
f 17//17 18//18 19//19
f 18//18 17//17 20//20
f 19//19 21//21 17//17
f 21//21 19//19 22//22
f 23//23 21//21 22//22
f 21//21 23//23 24//24
f 23//23 20//20 24//24
f 20//20 23//23 18//18
f 19//19 23//23 22//22
f 23//23 19//19 18//18
f 25//25 26//26 27//27
f 25//25 28//28 26//26
f 29//29 28//28 25//25
f 30//30 28//28 29//29
f 30//30 31//31 28//28
f 30//30 32//32 31//31
f 33//33 32//32 30//30
f 33//33 34//34 32//32
f 35//35 34//34 33//33
f 35//35 36//36 34//34
f 35//35 37//37 36//36
f 38//38 37//37 35//35
f 38//38 39//39 37//37
f 38//38 40//40 39//39
f 41//41 40//40 38//38
f 42//42 40//40 41//41
f 42//42 43//43 40//40
f 42//42 44//44 43//43
f 45//45 44//44 42//42
f 45//45 46//46 44//44
f 45//45 47//47 46//46
f 48//48 47//47 45//45
f 48//48 49//49 47//47
f 48//48 50//50 49//49
f 51//51 50//50 48//48
f 50//50 51//51 52//52
f 53//53 54//54 55//55
f 56//56 54//54 53//53
f 56//56 57//57 54//54
f 56//56 58//58 57//57
f 25//25 58//58 56//56
f 27//27 58//58 25//25
f 59//59 58//58 27//27
f 60//60 58//58 59//59
f 60//60 61//61 58//58
f 60//60 62//62 61//61
f 63//63 62//62 60//60
f 64//64 62//62 63//63
f 64//64 65//65 62//62
f 66//66 65//65 64//64
f 66//66 67//67 65//65
f 68//68 67//67 66//66
f 69//69 67//67 68//68
f 69//69 70//70 67//67
f 71//71 70//70 69//69
f 72//72 70//70 71//71
f 72//72 73//73 70//70
f 72//72 74//74 73//73
f 75//75 74//74 72//72
f 76//76 74//74 75//75
f 76//76 47//47 74//74
f 47//47 76//76 46//46
f 77//77 78//78 79//79
f 80//80 78//78 77//77
f 78//78 80//80 81//81
f 82//82 83//83 84//84
f 83//83 3//3 85//85
f 3//3 83//83 82//82
f 82//82 4//4 1//1
f 84//84 4//4 82//82
f 86//86 4//4 84//84
f 85//85 4//4 86//86
f 85//85 2//2 4//4
f 2//2 85//85 3//3
f 87//87 81//81 80//80
f 81//81 87//87 88//88
f 89//89 80//80 77//77
f 80//80 89//89 87//87
f 9//9 11//11 16//16
f 13//13 16//16 11//11
f 11//11 16//16 13//13
f 16//16 11//11 9//9
f 20//20 17//17 24//24
f 21//21 24//24 17//17
f 17//17 24//24 21//21
f 24//24 17//17 20//20
f 90//90 91//91 92//92
f 91//91 90//90 93//93
f 93//93 94//94 91//91
f 94//94 93//93 95//95
f 95//95 96//96 94//94
f 96//96 95//95 97//97
f 97//97 98//98 96//96
f 98//98 97//97 99//99
f 99//99 100//100 98//98
f 100//100 99//99 101//101
f 101//101 102//102 100//100
f 102//102 101//101 103//103
f 103//103 104//104 102//102
f 104//104 103//103 105//105
f 105//105 106//106 104//104
f 106//106 105//105 107//107
f 107//107 108//108 106//106
f 108//108 107//107 109//109
f 109//109 110//110 108//108
f 110//110 109//109 111//111
f 111//111 112//112 110//110
f 112//112 111//111 113//113
f 112//112 114//114 115//115
f 112//112 116//116 114//114
f 116//116 113//113 117//117
f 113//113 116//116 112//112
f 118//118 115//115 114//114
f 117//117 115//115 118//118
f 117//117 119//119 115//115
f 119//119 117//117 113//113
f 115//115 120//120 121//121
f 120//120 115//115 119//119
f 120//120 122//122 121//121
f 122//122 120//120 123//123
f 123//123 124//124 122//122
f 124//124 123//123 125//125
f 125//125 126//126 124//124
f 126//126 125//125 127//127
f 127//127 128//128 126//126
f 128//128 127//127 129//129
f 129//129 130//130 128//128
f 130//130 129//129 131//131
f 131//131 132//132 130//130
f 132//132 131//131 133//133
f 133//133 134//134 132//132
f 134//134 133//133 135//135
f 135//135 136//136 134//134
f 136//136 135//135 137//137
f 137//137 138//138 136//136
f 138//138 137//137 139//139
f 139//139 140//140 138//138
f 140//140 139//139 141//141
f 91//91 142//142 92//92
f 94//94 142//142 91//91
f 96//96 142//142 94//94
f 98//98 142//142 96//96
f 100//100 142//142 98//98
f 102//102 142//142 100//100
f 104//104 142//142 102//102
f 106//106 142//142 104//104
f 108//108 142//142 106//106
f 110//110 142//142 108//108
f 112//112 142//142 110//110
f 115//115 142//142 112//112
f 121//121 142//142 115//115
f 122//122 142//142 121//121
f 124//124 142//142 122//122
f 126//126 142//142 124//124
f 128//128 142//142 126//126
f 130//130 142//142 128//128
f 132//132 142//142 130//130
f 134//134 142//142 132//132
f 136//136 142//142 134//134
f 138//138 142//142 136//136
f 140//140 142//142 138//138
f 142//142 140//140 143//143
f 142//142 90//90 92//92
f 90//90 142//142 144//144
f 144//144 93//93 90//90
f 144//144 95//95 93//93
f 144//144 97//97 95//95
f 144//144 99//99 97//97
f 144//144 101//101 99//99
f 144//144 103//103 101//101
f 144//144 105//105 103//103
f 144//144 107//107 105//105
f 144//144 109//109 107//107
f 144//144 111//111 109//109
f 144//144 113//113 111//111
f 144//144 119//119 113//113
f 144//144 120//120 119//119
f 144//144 123//123 120//120
f 144//144 125//125 123//123
f 144//144 127//127 125//125
f 144//144 129//129 127//127
f 144//144 131//131 129//129
f 144//144 133//133 131//131
f 144//144 135//135 133//133
f 144//144 137//137 135//135
f 144//144 139//139 137//137
f 144//144 141//141 139//139
f 141//141 144//144 145//145
f 141//141 143//143 140//140
f 143//143 141//141 145//145
f 145//145 142//142 143//143
f 142//142 145//145 144//144
f 146//146 85//85 147//147
f 85//85 146//146 83//83
f 84//84 79//79 86//86
f 79//79 84//84 78//78
f 146//146 84//84 83//83
f 88//88 84//84 146//146
f 81//81 84//84 88//88
f 84//84 81//81 78//78
f 79//79 85//85 86//86
f 77//77 85//85 79//79
f 89//89 85//85 77//77
f 85//85 89//89 147//147
f 88//88 89//89 87//87
f 146//146 89//89 88//88
f 89//89 146//146 147//147
f 148//148 114//114 149//149
f 114//114 148//148 118//118
f 150//150 149//149 151//151
f 149//149 150//150 148//148
f 152//152 151//151 153//153
f 151//151 152//152 150//150
f 154//154 153//153 155//155
f 153//153 154//154 152//152
f 156//156 155//155 157//157
f 155//155 156//156 154//154
f 158//158 157//157 159//159
f 157//157 158//158 156//156
f 160//160 159//159 161//161
f 159//159 160//160 158//158
f 162//162 161//161 163//163
f 161//161 162//162 160//160
f 164//164 163//163 165//165
f 163//163 164//164 162//162
f 166//166 165//165 167//167
f 165//165 166//166 164//164
f 168//168 167//167 169//169
f 167//167 168//168 166//166
f 170//170 169//169 171//171
f 169//169 170//170 168//168
f 81//81 170//170 171//171
f 170//170 81//81 88//88
f 81//81 80//80 78//78
f 77//77 78//78 80//80
f 79//79 78//78 77//77
f 172//172 77//77 173//173
f 77//77 172//172 89//89
f 174//174 173//173 175//175
f 173//173 174//174 172//172
f 176//176 175//175 177//177
f 175//175 176//176 174//174
f 178//178 177//177 179//179
f 177//177 178//178 176//176
f 180//180 179//179 181//181
f 179//179 180//180 178//178
f 182//182 181//181 183//183
f 181//181 182//182 180//180
f 184//184 183//183 185//185
f 183//183 184//184 182//182
f 186//186 185//185 187//187
f 185//185 186//186 184//184
f 188//188 187//187 189//189
f 187//187 188//188 186//186
f 190//190 189//189 191//191
f 189//189 190//190 188//188
f 192//192 191//191 193//193
f 191//191 192//192 190//190
f 174//174 89//89 172//172
f 176//176 89//89 174//174
f 178//178 89//89 176//176
f 180//180 89//89 178//178
f 182//182 89//89 180//180
f 184//184 89//89 182//182
f 186//186 89//89 184//184
f 188//188 89//89 186//186
f 190//190 89//89 188//188
f 192//192 89//89 190//190
f 194//194 89//89 192//192
f 194//194 87//87 89//89
f 194//194 88//88 87//87
f 194//194 170//170 88//88
f 194//194 168//168 170//170
f 194//194 166//166 168//168
f 117//117 166//166 194//194
f 117//117 164//164 166//166
f 117//117 162//162 164//164
f 117//117 160//160 162//162
f 117//117 158//158 160//160
f 117//117 156//156 158//158
f 117//117 154//154 156//156
f 117//117 152//152 154//154
f 117//117 150//150 152//152
f 117//117 148//148 150//150
f 148//148 117//117 118//118
f 77//77 175//175 173//173
f 77//77 177//177 175//175
f 77//77 179//179 177//177
f 77//77 181//181 179//179
f 77//77 183//183 181//181
f 77//77 185//185 183//183
f 77//77 187//187 185//185
f 77//77 189//189 187//187
f 77//77 191//191 189//189
f 77//77 193//193 191//191
f 80//80 193//193 77//77
f 80//80 195//195 193//193
f 81//81 195//195 80//80
f 171//171 195//195 81//81
f 169//169 195//195 171//171
f 167//167 195//195 169//169
f 167//167 116//116 195//195
f 165//165 116//116 167//167
f 163//163 116//116 165//165
f 161//161 116//116 163//163
f 159//159 116//116 161//161
f 157//157 116//116 159//159
f 155//155 116//116 157//157
f 153//153 116//116 155//155
f 151//151 116//116 153//153
f 149//149 116//116 151//151
f 116//116 149//149 114//114
f 194//194 193//193 195//195
f 193//193 194//194 192//192
f 117//117 195//195 116//116
f 195//195 117//117 194//194
f 82//82 196//196 197//197
f 196//196 82//82 1//1
f 3//3 197//197 198//198
f 197//197 3//3 82//82
f 196//196 4//4 199//199
f 4//4 196//196 1//1
f 200//200 201//201 202//202
f 201//201 203//203 204//204
f 201//201 205//205 203//203
f 201//201 206//206 205//205
f 201//201 207//207 206//206
f 201//201 208//208 207//207
f 200//200 208//208 201//201
f 200//200 209//209 208//208
f 200//200 210//210 209//209
f 210//210 211//211 212//212
f 200//200 211//211 210//210
f 213//213 214//214 215//215
f 216//216 217//217 218//218
f 219//219 217//217 216//216
f 214//214 217//217 219//219
f 213//213 217//217 214//214
f 211//211 217//217 213//213
f 220//220 211//211 200//200
f 220//220 217//217 211//211
f 217//217 220//220 221//221
f 199//199 222//222 196//196
f 199//199 223//223 222//222
f 223//223 221//221 220//220
f 223//223 224//224 221//221
f 223//223 225//225 224//224
f 225//225 223//223 199//199
f 200//200 196//196 222//222
f 202//202 196//196 200//200
f 226//226 196//196 202//202
f 226//226 197//197 196//196
f 204//204 197//197 226//226
f 227//227 204//204 203//203
f 228//228 204//204 227//227
f 229//229 204//204 228//228
f 230//230 204//204 229//229
f 230//230 197//197 204//204
f 231//231 197//197 230//230
f 232//232 197//197 231//231
f 233//233 232//232 234//234
f 233//233 197//197 232//232
f 235//235 236//236 237//237
f 217//217 238//238 218//218
f 217//217 239//239 238//238
f 240//240 239//239 217//217
f 240//240 235//235 239//239
f 240//240 236//236 235//235
f 240//240 233//233 236//236
f 224//224 233//233 240//240
f 224//224 197//197 233//233
f 224//224 198//198 197//197
f 198//198 224//224 225//225
f 3//3 225//225 2//2
f 225//225 3//3 198//198
f 4//4 225//225 199//199
f 225//225 4//4 2//2
f 220//220 5//5 223//223
f 5//5 220//220 8//8
f 6//6 220//220 200//200
f 220//220 6//6 8//8
f 5//5 222//222 223//223
f 222//222 5//5 7//7
f 6//6 222//222 7//7
f 222//222 6//6 200//200
f 54//54 203//203 55//55
f 203//203 54//54 227//227
f 55//55 205//205 53//53
f 205//205 55//55 203//203
f 57//57 227//227 54//54
f 227//227 57//57 228//228
f 53//53 206//206 56//56
f 206//206 53//53 205//205
f 228//228 58//58 229//229
f 58//58 228//228 57//57
f 25//25 206//206 207//207
f 206//206 25//25 56//56
f 58//58 230//230 229//229
f 230//230 58//58 61//61
f 29//29 207//207 208//208
f 207//207 29//29 25//25
f 61//61 231//231 230//230
f 231//231 61//61 62//62
f 30//30 208//208 209//209
f 208//208 30//30 29//29
f 62//62 232//232 231//231
f 232//232 62//62 65//65
f 33//33 209//209 210//210
f 209//209 33//33 30//30
f 65//65 234//234 232//232
f 234//234 65//65 67//67
f 212//212 33//33 210//210
f 33//33 212//212 35//35
f 67//67 233//233 234//234
f 233//233 67//67 70//70
f 38//38 212//212 211//211
f 212//212 38//38 35//35
f 70//70 236//236 233//233
f 236//236 70//70 73//73
f 41//41 211//211 213//213
f 211//211 41//41 38//38
f 73//73 237//237 236//236
f 237//237 73//73 74//74
f 42//42 213//213 215//215
f 213//213 42//42 41//41
f 74//74 235//235 237//237
f 235//235 74//74 47//47
f 45//45 215//215 214//214
f 215//215 45//45 42//42
f 47//47 239//239 235//235
f 239//239 47//47 49//49
f 219//219 45//45 214//214
f 45//45 219//219 48//48
f 239//239 50//50 238//238
f 50//50 239//239 49//49
f 216//216 48//48 219//219
f 48//48 216//216 51//51
f 238//238 52//52 218//218
f 52//52 238//238 50//50
f 218//218 51//51 216//216
f 51//51 218//218 52//52
f 224//224 11//11 221//221
f 11//11 224//224 9//9
f 16//16 224//224 240//240
f 224//224 16//16 9//9
f 11//11 217//217 221//221
f 217//217 11//11 13//13
f 16//16 217//217 13//13
f 217//217 16//16 240//240
f 17//17 202//202 201//201
f 202//202 17//17 21//21
f 204//204 17//17 201//201
f 17//17 204//204 20//20
f 24//24 202//202 21//21
f 202//202 24//24 226//226
f 24//24 204//204 226//226
f 204//204 24//24 20//20
f 241//241 242//242 243//243
f 242//242 241//241 244//244
f 245//245 243//243 246//246
f 243//243 245//245 241//241
f 247//247 245//245 246//246
f 245//245 247//247 248//248
f 249//249 248//248 247//247
f 248//248 249//249 250//250
f 251//251 250//250 249//249
f 250//250 251//251 252//252
f 253//253 252//252 251//251
f 252//252 253//253 254//254
f 255//255 254//254 253//253
f 254//254 255//255 256//256
f 257//257 256//256 255//255
f 256//256 257//257 258//258
f 259//259 257//257 260//260
f 257//257 259//259 258//258
f 261//261 260//260 262//262
f 260//260 261//261 259//259
f 263//263 262//262 264//264
f 262//262 263//263 261//261
f 265//265 264//264 266//266
f 264//264 265//265 263//263
f 267//267 266//266 268//268
f 266//266 267//267 265//265
f 269//269 267//267 268//268
f 267//267 269//269 270//270
f 270//270 271//271 272//272
f 271//271 270//270 269//269
f 272//272 273//273 274//274
f 273//273 272//272 271//271
f 274//274 275//275 276//276
f 275//275 274//274 273//273
f 276//276 277//277 278//278
f 277//277 276//276 275//275
f 278//278 279//279 280//280
f 279//279 278//278 277//277
f 280//280 281//281 282//282
f 281//281 280//280 279//279
f 283//283 282//282 281//281
f 282//282 283//283 284//284
f 285//285 283//283 286//286
f 283//283 285//285 284//284
f 287//287 286//286 288//288
f 286//286 287//287 285//285
f 244//244 288//288 242//242
f 288//288 244//244 287//287
f 249//249 253//253 251//251
f 247//247 253//253 249//249
f 247//247 255//255 253//253
f 246//246 255//255 247//247
f 246//246 257//257 255//255
f 243//243 257//257 246//246
f 243//243 260//260 257//257
f 243//243 262//262 260//260
f 242//242 262//262 243//243
f 288//288 262//262 242//242
f 288//288 264//264 262//262
f 286//286 264//264 288//288
f 286//286 266//266 264//264
f 283//283 266//266 286//286
f 283//283 268//268 266//266
f 281//281 268//268 283//283
f 281//281 269//269 268//268
f 279//279 269//269 281//281
f 279//279 271//271 269//269
f 277//277 271//271 279//279
f 277//277 273//273 271//271
f 273//273 277//277 275//275
f 71//71 289//289 290//290
f 289//289 71//71 69//69
f 72//72 290//290 291//291
f 290//290 72//72 71//71
f 72//72 292//292 75//75
f 292//292 72//72 291//291
f 75//75 293//293 76//76
f 293//293 75//75 292//292
f 76//76 294//294 46//46
f 294//294 76//76 293//293
f 46//46 295//295 44//44
f 295//295 46//46 294//294
f 44//44 296//296 43//43
f 296//296 44//44 295//295
f 43//43 297//297 40//40
f 297//297 43//43 296//296
f 39//39 297//297 298//298
f 297//297 39//39 40//40
f 37//37 298//298 299//299
f 298//298 37//37 39//39
f 36//36 299//299 300//300
f 299//299 36//36 37//37
f 34//34 300//300 301//301
f 300//300 34//34 36//36
f 32//32 301//301 302//302
f 301//301 32//32 34//34
f 31//31 302//302 303//303
f 302//302 31//31 32//32
f 304//304 31//31 303//303
f 31//31 304//304 28//28
f 305//305 28//28 304//304
f 28//28 305//305 26//26
f 306//306 26//26 305//305
f 26//26 306//306 27//27
f 307//307 27//27 306//306
f 27//27 307//307 59//59
f 308//308 59//59 307//307
f 59//59 308//308 60//60
f 309//309 60//60 308//308
f 60//60 309//309 63//63
f 64//64 309//309 310//310
f 309//309 64//64 63//63
f 66//66 310//310 311//311
f 310//310 66//66 64//64
f 68//68 311//311 312//312
f 311//311 68//68 66//66
f 69//69 312//312 289//289
f 312//312 69//69 68//68
f 305//305 307//307 306//306
f 304//304 307//307 305//305
f 304//304 308//308 307//307
f 304//304 252//252 308//308
f 304//304 250//250 252//252
f 303//303 250//250 304//304
f 303//303 248//248 250//250
f 303//303 245//245 248//248
f 302//302 245//245 303//303
f 302//302 241//241 245//245
f 301//301 241//241 302//302
f 301//301 244//244 241//241
f 300//300 244//244 301//301
f 300//300 287//287 244//244
f 300//300 285//285 287//287
f 299//299 285//285 300//300
f 299//299 284//284 285//285
f 298//298 284//284 299//299
f 298//298 282//282 284//284
f 298//298 280//280 282//282
f 297//297 280//280 298//298
f 297//297 278//278 280//280
f 297//297 276//276 278//278
f 276//276 297//297 296//296
f 254//254 308//308 252//252
f 254//254 309//309 308//308
f 256//256 309//309 254//254
f 258//258 309//309 256//256
f 258//258 310//310 309//309
f 259//259 310//310 258//258
f 259//259 311//311 310//310
f 261//261 311//311 259//259
f 263//263 311//311 261//261
f 263//263 312//312 311//311
f 265//265 312//312 263//263
f 265//265 289//289 312//312
f 267//267 289//289 265//265
f 267//267 290//290 289//289
f 270//270 290//290 267//267
f 272//272 290//290 270//270
f 272//272 291//291 290//290
f 274//274 291//291 272//272
f 276//276 291//291 274//274
f 296//296 291//291 276//276
f 296//296 292//292 291//291
f 295//295 292//292 296//296
f 295//295 293//293 292//292
f 293//293 295//295 294//294